<?xml version="1.0" encoding="UTF-8" standalone="no"?>
<!DOCTYPE svg PUBLIC "-//W3C//DTD SVG 1.1//EN"
 "http://www.w3.org/Graphics/SVG/1.1/DTD/svg11.dtd">
<!-- Generated by graphviz version 2.38.0 (20140413.2041)
 -->
<!-- Title: %3 Pages: 1 -->
<svg width="116pt" height="162pt"
 viewBox="0.00 0.00 115.69 161.85" xmlns="http://www.w3.org/2000/svg" xmlns:xlink="http://www.w3.org/1999/xlink">
<g id="graph0" class="graph" transform="scale(1 1) rotate(0) translate(56.5491 80.0261)">
<title>%3</title>
<polygon fill="white" stroke="none" points="-56.5491,81.826 -56.5491,-80.0261 59.1418,-80.0261 59.1418,81.826 -56.5491,81.826"/>
<!-- 0 -->
<g id="node1" class="node"><title>0</title>
<ellipse fill="#1874cd" stroke="black" cx="-0.483203" cy="-0.317852" rx="8" ry="8"/>
</g>
<!-- 2 -->
<g id="node3" class="node"><title>2</title>
<ellipse fill="#1874cd" stroke="black" cx="43.5868" cy="30.116" rx="2.5" ry="2.5"/>
</g>
<!-- 0&#45;&gt;2 -->
<g id="edge3" class="edge"><title>0&#45;&gt;2</title>
<path fill="none" stroke="black" d="M6.40273,4.43744C16.4734,11.3921 34.7265,23.9973 41.2174,28.4798"/>
</g>
<!-- 3 -->
<g id="node4" class="node"><title>3</title>
<ellipse fill="#1874cd" stroke="black" cx="-44.5364" cy="-30.8231" rx="2.5" ry="2.5"/>
</g>
<!-- 0&#45;&gt;3 -->
<g id="edge4" class="edge"><title>0&#45;&gt;3</title>
<path fill="none" stroke="black" d="M-7.36652,-5.08429C-17.4334,-12.0552 -35.6795,-24.69 -42.1679,-29.183"/>
</g>
<!-- anon_0_1_0 -->
<g id="node6" class="node"><title>anon_0_1_0</title>
<ellipse fill="white" stroke="black" cx="27.6315" cy="-41.1283" rx="1" ry="1"/>
</g>
<!-- 0&#45;&gt;anon_0_1_0 -->
<g id="edge1" class="edge"><title>0&#45;&gt;anon_0_1_0</title>
<path fill="none" stroke="black" d="M4.15937,-7.05687C11.1466,-17.1993 23.877,-35.6784 26.9505,-40.1397"/>
</g>
<!-- anon_0_4_0 -->
<g id="node7" class="node"><title>anon_0_4_0</title>
<ellipse fill="white" stroke="black" cx="-28.7913" cy="40.3533" rx="1" ry="1"/>
</g>
<!-- 0&#45;&gt;anon_0_4_0 -->
<g id="edge5" class="edge"><title>0&#45;&gt;anon_0_4_0</title>
<path fill="none" stroke="black" d="M-5.15772,6.39816C-12.193,16.5059 -25.011,34.922 -28.1056,39.3681"/>
</g>
<!-- 1 -->
<g id="node2" class="node"><title>1</title>
<ellipse fill="#1874cd" stroke="black" cx="52.6418" cy="-73.5261" rx="2.5" ry="2.5"/>
</g>
<!-- 4 -->
<g id="node5" class="node"><title>4</title>
<ellipse fill="#1874cd" stroke="black" cx="-50.0491" cy="75.326" rx="2.5" ry="2.5"/>
</g>
<!-- anon_0_1_0&#45;&gt;1 -->
<g id="edge2" class="edge"><title>anon_0_1_0&#45;&gt;1</title>
<path fill="none" stroke="black" d="M28.2497,-41.9291C31.4392,-46.0607 46.0739,-65.0183 51.0104,-71.4129"/>
</g>
<!-- anon_0_4_0&#45;&gt;4 -->
<g id="edge6" class="edge"><title>anon_0_4_0&#45;&gt;4</title>
<path fill="none" stroke="black" d="M-29.3168,41.2178C-32.0277,45.6777 -44.4667,66.142 -48.6625,73.0448"/>
</g>
</g>
</svg>
