<?xml version="1.0" encoding="UTF-8" standalone="no"?>
<!DOCTYPE svg PUBLIC "-//W3C//DTD SVG 1.1//EN"
 "http://www.w3.org/Graphics/SVG/1.1/DTD/svg11.dtd">
<!-- Generated by graphviz version 2.38.0 (20140413.2041)
 -->
<!-- Title: %3 Pages: 1 -->
<svg width="450pt" height="493pt"
 viewBox="0.00 0.00 450.14 492.75" xmlns="http://www.w3.org/2000/svg" xmlns:xlink="http://www.w3.org/1999/xlink">
<g id="graph0" class="graph" transform="scale(1 1) rotate(0) translate(229.469 212.394)">
<title>%3</title>
<polygon fill="white" stroke="none" points="-229.469,280.353 -229.469,-212.394 220.675,-212.394 220.675,280.353 -229.469,280.353"/>
<!-- 0 -->
<g id="node1" class="node"><title>0</title>
<path fill="#98f5ff" stroke="black" stroke-width="0.5" d="M-90.5054,-87.413C-90.5054,-87.413 -72.5054,-87.413 -72.5054,-87.413 -72.5054,-88.4504 -72.5951,-89.4858 -72.7734,-90.5078 -72.9518,-91.5297 -73.2181,-92.5343 -73.5695,-93.5103 -73.9209,-94.4864 -74.356,-95.4302 -74.87,-96.3313 -75.384,-97.2324 -75.9749,-98.0874 -76.6361,-98.8867 -77.2974,-99.686 -78.0265,-100.427 -78.8153,-101.1 -79.6041,-101.774 -80.4497,-102.378 -81.3426,-102.906 -82.2356,-103.434 -83.1724,-103.884 -84.1428,-104.251 -85.1132,-104.618 -86.1135,-104.9 -87.1325,-105.094 -87.1325,-105.094 -90.5054,-87.413 -90.5054,-87.413"/>
<path fill="deepskyblue" stroke="black" stroke-width="0.5" d="M-90.5054,-87.413C-90.5054,-87.413 -87.1325,-105.094 -87.1325,-105.094 -88.0356,-105.266 -88.9506,-105.369 -89.8693,-105.402 -90.7881,-105.434 -91.7081,-105.396 -92.6211,-105.288 -93.5341,-105.18 -94.4374,-105.002 -95.3232,-104.756 -96.2091,-104.51 -97.0747,-104.197 -97.9126,-103.818 -98.7506,-103.44 -99.5583,-102.998 -100.329,-102.496 -101.099,-101.995 -101.83,-101.435 -102.515,-100.821 -103.2,-100.208 -103.836,-99.5428 -104.42,-98.8321 -105.003,-98.1214 -105.531,-97.3671 -105.999,-96.5758 -106.467,-95.7845 -106.873,-94.9584 -107.215,-94.105 -107.557,-93.2515 -107.833,-92.3731 -108.041,-91.4775 -108.248,-90.5818 -108.387,-89.6716 -108.455,-88.7548 -108.524,-87.838 -108.522,-86.9173 -108.45,-86.0008 -108.378,-85.0843 -108.236,-84.1746 -108.024,-83.2798 -107.813,-82.385 -107.534,-81.5077 -107.189,-80.6556 -106.844,-79.8034 -106.434,-78.979 -105.963,-78.1895 -105.492,-77.4 -104.961,-76.6478 -104.375,-75.9394 -103.789,-75.231 -103.149,-74.5686 -102.462,-73.9579 -101.775,-73.3472 -101.042,-72.7901 -100.269,-72.2914 -99.497,-71.7927 -98.6876,-71.3539 -97.8482,-70.9788 -97.0088,-70.6038 -96.1419,-70.2936 -95.2551,-70.051 -94.3683,-69.8084 -93.4643,-69.6341 -92.5508,-69.5296 -91.6374,-69.4252 -90.7174,-69.3908 -89.7987,-69.4269 -88.8801,-69.463 -87.9655,-69.5694 -87.0631,-69.7453 -86.1607,-69.9211 -85.2731,-70.1658 -84.4081,-70.4772 -83.5431,-70.7886 -82.7032,-71.1659 -81.8958,-71.6056 -81.0885,-72.0453 -80.3159,-72.5463 -79.5851,-73.104 -78.8543,-73.6618 -78.1672,-74.2747 -77.53,-74.9375 -76.8928,-75.6002 -76.3073,-76.3108 -75.7787,-77.063 -75.2501,-77.8151 -74.7798,-78.6067 -74.3721,-79.4307 -73.9644,-80.2547 -73.6204,-81.1088 -73.3432,-81.9854 -73.066,-82.8619 -72.8563,-83.7585 -72.7161,-84.6671 -72.5758,-85.5757 -72.5054,-86.4937 -72.5054,-87.413 -72.5054,-87.413 -90.5054,-87.413 -90.5054,-87.413"/>
<ellipse fill="none" stroke="black" cx="-90.5054" cy="-87.413" rx="18" ry="18"/>
<text text-anchor="middle" x="-90.5054" y="-85.513" font-family="monospace" font-size="8.00">0</text>
</g>
<!-- 22 -->
<g id="node23" class="node"><title>22</title>
<ellipse fill="deepskyblue" stroke="black" cx="-131.239" cy="-145.075" rx="2.5" ry="2.5"/>
<text text-anchor="middle" x="-131.239" y="-143.175" font-family="monospace" font-size="8.00">22</text>
</g>
<!-- 0&#45;&gt;22 -->
<g id="edge2" class="edge"><title>0&#45;&gt;22</title>
<path fill="none" stroke="black" d="M-100.995,-102.263C-110.99,-116.411 -125.172,-136.487 -129.752,-142.97"/>
</g>
<!-- 24 -->
<g id="node25" class="node"><title>24</title>
<ellipse fill="deepskyblue" stroke="black" cx="-158.149" cy="-120.026" rx="2.5" ry="2.5"/>
<text text-anchor="middle" x="-158.149" y="-118.126" font-family="monospace" font-size="8.00">24</text>
</g>
<!-- 0&#45;&gt;24 -->
<g id="edge3" class="edge"><title>0&#45;&gt;24</title>
<path fill="none" stroke="black" d="M-106.88,-95.3076C-120.998,-102.114 -140.7,-111.613 -151.09,-116.622"/>
<polygon fill="black" stroke="black" points="-151.851,-115.047 -155.595,-118.794 -150.331,-118.199 -151.851,-115.047"/>
<text text-anchor="middle" x="-142.131" y="-109.599" font-family="monospace" font-size="8.00">P55L</text>
</g>
<!-- 58 -->
<g id="node59" class="node"><title>58</title>
<ellipse fill="black" stroke="black" cx="-99.545" cy="-159.983" rx="2.5" ry="2.5"/>
<text text-anchor="middle" x="-99.545" y="-158.083" font-family="monospace" font-size="8.00">58</text>
</g>
<!-- 0&#45;&gt;58 -->
<g id="edge4" class="edge"><title>0&#45;&gt;58</title>
<path fill="none" stroke="black" d="M-92.7399,-105.352C-94.9567,-123.148 -98.1688,-148.935 -99.2075,-157.274"/>
</g>
<!-- 1 -->
<g id="node2" class="node"><title>1</title>
<ellipse fill="deepskyblue" stroke="black" cx="134.659" cy="-44.503" rx="2.5" ry="2.5"/>
<text text-anchor="middle" x="134.659" y="-42.603" font-family="monospace" font-size="8.00">1</text>
</g>
<!-- 3 -->
<g id="node4" class="node"><title>3</title>
<path fill="#ff3030" stroke="black" stroke-width="0.5" d="M76.9784,-71.8886C76.9784,-71.8886 100.978,-71.8886 100.978,-71.8886 100.978,-72.9711 100.905,-74.0524 100.759,-75.125 100.613,-76.1976 100.395,-77.2591 100.105,-78.3023 99.8162,-79.3454 99.4567,-80.3678 99.0293,-81.3624 98.602,-82.357 98.1079,-83.3216 97.5504,-84.2495 96.9928,-85.1774 96.3732,-86.0665 95.6956,-86.9107 95.018,-87.755 94.2841,-88.5524 93.4989,-89.2976 92.7136,-90.0427 91.8789,-90.7339 91.0003,-91.3663 90.1218,-91.9988 89.2015,-92.5711 88.2457,-93.0793 87.2899,-93.5875 86.3008,-94.0305 85.2852,-94.4052 84.2696,-94.7798 83.2298,-95.0854 82.1729,-95.3197 81.116,-95.554 80.0445,-95.7165 78.9657,-95.8061 77.8869,-95.8958 76.8033,-95.9123 75.7223,-95.8557 74.6413,-95.799 73.5653,-95.6693 72.5018,-95.4674 71.4383,-95.2655 70.3896,-94.9918 69.363,-94.6483 68.3365,-94.3048 67.3343,-93.8923 66.3634,-93.4135 65.3925,-92.9347 64.4552,-92.3908 63.5577,-91.7855 63.5577,-91.7855 76.9784,-71.8886 76.9784,-71.8886"/>
<path fill="deepskyblue" stroke="black" stroke-width="0.5" d="M76.9784,-71.8886C76.9784,-71.8886 63.5577,-91.7855 63.5577,-91.7855 62.7472,-91.2388 61.9708,-90.643 61.2329,-90.0016 60.4951,-89.3602 59.7971,-88.6743 59.1429,-87.9477 58.4887,-87.2211 57.8795,-86.4553 57.3187,-85.6544 56.7579,-84.8535 56.2466,-84.0191 55.7876,-83.1559 55.3286,-82.2926 54.9228,-81.4021 54.5724,-80.4894 54.222,-79.5766 53.9278,-78.6433 53.6913,-77.6947 53.4547,-76.746 53.2764,-75.7838 53.1572,-74.8134 53.0381,-73.843 52.9784,-72.8663 52.9784,-71.8886 52.9784,-70.9109 53.0381,-69.9341 53.1572,-68.9637 53.2764,-67.9933 53.4547,-67.0311 53.6913,-66.0824 53.9278,-65.1338 54.2221,-64.2005 54.5724,-63.2877 54.9228,-62.375 55.3286,-61.4845 55.7876,-60.6212 56.2466,-59.758 56.7579,-58.9236 57.3187,-58.1227 57.8795,-57.3219 58.4887,-56.556 59.1429,-55.8294 59.7971,-55.1029 60.4951,-54.417 61.2329,-53.7755 61.9708,-53.1341 62.7472,-52.5384 63.5577,-51.9917 63.5577,-51.9917 76.9784,-71.8886 76.9784,-71.8886"/>
<path fill="#98f5ff" stroke="black" stroke-width="0.5" d="M76.9784,-71.8886C76.9784,-71.8886 63.5577,-51.9917 63.5577,-51.9917 64.1366,-51.6012 64.7322,-51.2362 65.3429,-50.8977 65.9536,-50.5592 66.5788,-50.2475 67.2167,-49.9635 67.8546,-49.6795 68.5045,-49.4234 69.1647,-49.1961 69.8249,-48.9688 70.4947,-48.7704 71.1722,-48.6015 71.1722,-48.6015 76.9784,-71.8886 76.9784,-71.8886"/>
<path fill="#1874cd" stroke="black" stroke-width="0.5" d="M76.9784,-71.8886C76.9784,-71.8886 71.1722,-48.6015 71.1722,-48.6015 72.0531,-48.3818 72.9457,-48.2124 73.8457,-48.0939 74.7458,-47.9754 75.6518,-47.9081 76.5595,-47.8922 77.4672,-47.8764 78.375,-47.912 79.2787,-47.9991 80.1823,-48.0861 81.0803,-48.2243 81.9682,-48.413 82.8562,-48.6018 83.7328,-48.8407 84.5937,-49.1288 85.4546,-49.4169 86.2984,-49.7535 87.1212,-50.1372 87.944,-50.5208 88.7443,-50.9509 89.5183,-51.4252 90.2924,-51.8995 91.0389,-52.4174 91.7542,-52.9763 92.4696,-53.5352 93.1527,-54.1343 93.8002,-54.7706 94.4477,-55.4069 95.0585,-56.0794 95.6299,-56.7849 96.2012,-57.4904 96.732,-58.2277 97.2197,-58.9934 97.7075,-59.759 98.1514,-60.5517 98.5494,-61.3677 98.9474,-62.1836 99.2987,-63.0215 99.6017,-63.8772 99.9048,-64.7329 100.159,-65.6052 100.363,-66.4897 100.567,-67.3743 100.721,-68.2697 100.824,-69.1717 100.927,-70.0737 100.978,-70.9808 100.978,-71.8886 100.978,-71.8886 76.9784,-71.8886 76.9784,-71.8886"/>
<ellipse fill="none" stroke="black" cx="76.9784" cy="-71.8886" rx="24" ry="24"/>
<text text-anchor="middle" x="76.9784" y="-69.9886" font-family="monospace" font-size="8.00">3</text>
</g>
<!-- 1&#45;&gt;3 -->
<g id="edge5" class="edge"><title>1&#45;&gt;3</title>
<path fill="none" stroke="black" d="M132.18,-45.6797C126.401,-48.4234 111.548,-55.4757 98.7027,-61.5743"/>
</g>
<!-- 2 -->
<g id="node3" class="node"><title>2</title>
<ellipse fill="#ff3030" stroke="black" cx="-96.4621" cy="-45.0275" rx="10" ry="10"/>
<text text-anchor="middle" x="-96.4621" y="-43.1275" font-family="monospace" font-size="8.00">2</text>
</g>
<!-- anon_2_37_0 -->
<g id="node61" class="node"><title>anon_2_37_0</title>
<ellipse fill="white" stroke="black" cx="-155.536" cy="-75.3385" rx="1" ry="1"/>
</g>
<!-- 2&#45;&gt;anon_2_37_0 -->
<g id="edge7" class="edge"><title>2&#45;&gt;anon_2_37_0</title>
<path fill="none" stroke="black" d="M-105.434,-49.6311C-119.894,-57.0506 -147.408,-71.1682 -154.061,-74.5817"/>
</g>
<!-- 10 -->
<g id="node11" class="node"><title>10</title>
<ellipse fill="#ff3030" stroke="black" cx="112.768" cy="-29.4865" rx="2.5" ry="2.5"/>
<text text-anchor="middle" x="112.768" y="-27.5865" font-family="monospace" font-size="8.00">10</text>
</g>
<!-- 3&#45;&gt;10 -->
<g id="edge10" class="edge"><title>3&#45;&gt;10</title>
<path fill="none" stroke="black" d="M92.7805,-53.167C99.9712,-44.6478 107.619,-35.5871 110.993,-31.5892"/>
</g>
<!-- 16 -->
<g id="node17" class="node"><title>16</title>
<ellipse fill="#ff3030" stroke="black" cx="143.685" cy="-15.4368" rx="2.5" ry="2.5"/>
<text text-anchor="middle" x="143.685" y="-13.5368" font-family="monospace" font-size="8.00">16</text>
</g>
<!-- 3&#45;&gt;16 -->
<g id="edge11" class="edge"><title>3&#45;&gt;16</title>
<path fill="none" stroke="black" d="M95.5598,-56.1636C109.742,-44.162 128.388,-28.3816 137.763,-20.4484"/>
<polygon fill="black" stroke="black" points="139.061,-21.6427 141.747,-17.0768 136.8,-18.9709 139.061,-21.6427"/>
<text text-anchor="middle" x="132.32" y="-30.079" font-family="monospace" font-size="8.00">M704V</text>
</g>
<!-- 18 -->
<g id="node19" class="node"><title>18</title>
<ellipse fill="deepskyblue" stroke="black" cx="33.5813" cy="-124.866" rx="2.5" ry="2.5"/>
<text text-anchor="middle" x="33.5813" y="-122.966" font-family="monospace" font-size="8.00">18</text>
</g>
<!-- 3&#45;&gt;18 -->
<g id="edge12" class="edge"><title>3&#45;&gt;18</title>
<path fill="none" stroke="black" d="M61.556,-90.7155C51.6161,-102.85 39.7537,-117.331 35.3447,-122.713"/>
</g>
<!-- 21 -->
<g id="node22" class="node"><title>21</title>
<ellipse fill="deepskyblue" stroke="black" cx="56.9237" cy="-106.217" rx="2.5" ry="2.5"/>
<text text-anchor="middle" x="56.9237" y="-104.317" font-family="monospace" font-size="8.00">21</text>
</g>
<!-- 3&#45;&gt;21 -->
<g id="edge13" class="edge"><title>3&#45;&gt;21</title>
<path fill="none" stroke="black" d="M64.8498,-92.6496C62.2102,-97.168 59.7739,-101.338 58.318,-103.831"/>
</g>
<!-- 25 -->
<g id="node26" class="node"><title>25</title>
<ellipse fill="deepskyblue" stroke="black" cx="121.01" cy="-6.61371" rx="2.5" ry="2.5"/>
<text text-anchor="middle" x="121.01" y="-4.71371" font-family="monospace" font-size="8.00">25</text>
</g>
<!-- 3&#45;&gt;25 -->
<g id="edge14" class="edge"><title>3&#45;&gt;25</title>
<path fill="none" stroke="black" d="M90.4286,-51.9493C101.152,-36.0525 115.087,-15.394 119.561,-8.76229"/>
</g>
<!-- 29 -->
<g id="node30" class="node"><title>29</title>
<ellipse fill="deepskyblue" stroke="black" cx="152.732" cy="-65.8905" rx="2.5" ry="2.5"/>
<text text-anchor="middle" x="152.732" y="-63.9905" font-family="monospace" font-size="8.00">29</text>
</g>
<!-- 3&#45;&gt;29 -->
<g id="edge15" class="edge"><title>3&#45;&gt;29</title>
<path fill="none" stroke="black" d="M100.947,-69.9907C116.021,-68.7972 134.507,-67.3335 144.817,-66.5172"/>
<polygon fill="black" stroke="black" points="145.008,-68.2576 149.855,-66.1183 144.732,-64.7685 145.008,-68.2576"/>
<text text-anchor="middle" x="141.398" y="-70.6548" font-family="monospace" font-size="8.00">V1303A</text>
</g>
<!-- 30 -->
<g id="node31" class="node"><title>30</title>
<ellipse fill="deepskyblue" stroke="black" cx="90.5573" cy="-127.589" rx="2.5" ry="2.5"/>
<text text-anchor="middle" x="90.5573" y="-125.689" font-family="monospace" font-size="8.00">30</text>
</g>
<!-- 3&#45;&gt;30 -->
<g id="edge16" class="edge"><title>3&#45;&gt;30</title>
<path fill="none" stroke="black" d="M82.7371,-95.5107C85.5706,-107.134 88.6494,-119.763 89.9369,-125.044"/>
</g>
<!-- 34 -->
<g id="node35" class="node"><title>34</title>
<ellipse fill="#ff3030" stroke="black" cx="128.604" cy="-119.955" rx="2.5" ry="2.5"/>
<text text-anchor="middle" x="128.604" y="-118.055" font-family="monospace" font-size="8.00">34</text>
</g>
<!-- 3&#45;&gt;34 -->
<g id="edge17" class="edge"><title>3&#45;&gt;34</title>
<path fill="none" stroke="black" d="M94.7449,-88.4302C106.878,-99.7271 121.647,-113.478 126.759,-118.237"/>
</g>
<!-- 36 -->
<g id="node37" class="node"><title>36</title>
<ellipse fill="#ff3030" stroke="black" cx="110.544" cy="-95.1782" rx="2.5" ry="2.5"/>
<text text-anchor="middle" x="110.544" y="-93.2782" font-family="monospace" font-size="8.00">36</text>
</g>
<!-- 3&#45;&gt;36 -->
<g id="edge20" class="edge"><title>3&#45;&gt;36</title>
<path fill="none" stroke="black" d="M96.8916,-85.7054C101.409,-88.8398 105.613,-91.7565 108.13,-93.5033"/>
</g>
<!-- 41 -->
<g id="node42" class="node"><title>41</title>
<ellipse fill="#1874cd" stroke="black" cx="27.6759" cy="-70.5974" rx="2.5" ry="2.5"/>
<text text-anchor="middle" x="27.6759" y="-68.6974" font-family="monospace" font-size="8.00">41</text>
</g>
<!-- 3&#45;&gt;41 -->
<g id="edge23" class="edge"><title>3&#45;&gt;41</title>
<path fill="none" stroke="black" d="M52.9049,-71.2581C43.9096,-71.0225 34.8117,-70.7843 30.4057,-70.6689"/>
</g>
<!-- 43 -->
<g id="node44" class="node"><title>43</title>
<ellipse fill="#1874cd" stroke="black" cx="150.1" cy="-105.557" rx="2.5" ry="2.5"/>
<text text-anchor="middle" x="150.1" y="-103.657" font-family="monospace" font-size="8.00">43</text>
</g>
<!-- 3&#45;&gt;43 -->
<g id="edge24" class="edge"><title>3&#45;&gt;43</title>
<path fill="none" stroke="black" d="M98.9171,-81.9902C116.754,-90.2028 140.149,-100.975 147.664,-104.435"/>
</g>
<!-- 44 -->
<g id="node45" class="node"><title>44</title>
<ellipse fill="#1874cd" stroke="black" cx="144.576" cy="-84.4779" rx="2.5" ry="2.5"/>
<text text-anchor="middle" x="144.576" y="-82.5779" font-family="monospace" font-size="8.00">44</text>
</g>
<!-- 3&#45;&gt;44 -->
<g id="edge25" class="edge"><title>3&#45;&gt;44</title>
<path fill="none" stroke="black" d="M100.621,-76.2917C116.155,-79.1847 134.843,-82.6653 141.795,-83.96"/>
</g>
<!-- 46 -->
<g id="node47" class="node"><title>46</title>
<ellipse fill="#1874cd" stroke="black" cx="167.32" cy="-43.9787" rx="2.5" ry="2.5"/>
<text text-anchor="middle" x="167.32" y="-42.0787" font-family="monospace" font-size="8.00">46</text>
</g>
<!-- 3&#45;&gt;46 -->
<g id="edge28" class="edge"><title>3&#45;&gt;46</title>
<path fill="none" stroke="black" d="M100.244,-64.7011C123.038,-57.6591 155.652,-47.5835 164.832,-44.7475"/>
</g>
<!-- 56 -->
<g id="node57" class="node"><title>56</title>
<ellipse fill="#98f5ff" stroke="black" cx="90.7339" cy="-35.0809" rx="2.5" ry="2.5"/>
<text text-anchor="middle" x="90.7339" y="-33.1809" font-family="monospace" font-size="8.00">56</text>
</g>
<!-- 3&#45;&gt;56 -->
<g id="edge29" class="edge"><title>3&#45;&gt;56</title>
<path fill="none" stroke="black" d="M85.455,-49.2064C87.2242,-44.4723 88.844,-40.138 89.81,-37.5531"/>
</g>
<!-- 59 -->
<g id="node60" class="node"><title>59</title>
<ellipse fill="black" stroke="black" cx="58.5825" cy="-137.334" rx="2.5" ry="2.5"/>
<text text-anchor="middle" x="58.5825" y="-135.434" font-family="monospace" font-size="8.00">59</text>
</g>
<!-- 3&#45;&gt;59 -->
<g id="edge30" class="edge"><title>3&#45;&gt;59</title>
<path fill="none" stroke="black" d="M70.4409,-95.1463C66.2274,-110.136 61.199,-128.025 59.33,-134.674"/>
</g>
<!-- anon_3_35_0 -->
<g id="node62" class="node"><title>anon_3_35_0</title>
<ellipse fill="white" stroke="black" cx="119.708" cy="-143.867" rx="1" ry="1"/>
</g>
<!-- 3&#45;&gt;anon_3_35_0 -->
<g id="edge18" class="edge"><title>3&#45;&gt;anon_3_35_0</title>
<path fill="none" stroke="black" d="M89.3374,-92.7078C100.38,-111.309 115.35,-136.527 118.92,-142.541"/>
</g>
<!-- anon_3_40_0 -->
<g id="node63" class="node"><title>anon_3_40_0</title>
<ellipse fill="white" stroke="black" cx="37.4843" cy="-155.983" rx="1" ry="1"/>
</g>
<!-- 3&#45;&gt;anon_3_40_0 -->
<g id="edge21" class="edge"><title>3&#45;&gt;anon_3_40_0</title>
<path fill="none" stroke="black" d="M66.6018,-93.9833C55.9974,-116.563 40.6996,-149.136 37.9245,-155.045"/>
</g>
<!-- anon_3_45_0 -->
<g id="node64" class="node"><title>anon_3_45_0</title>
<ellipse fill="white" stroke="black" cx="78.776" cy="-159.132" rx="1" ry="1"/>
</g>
<!-- 3&#45;&gt;anon_3_45_0 -->
<g id="edge26" class="edge"><title>3&#45;&gt;anon_3_45_0</title>
<path fill="none" stroke="black" d="M77.4791,-96.1907C77.9528,-119.182 78.6115,-151.146 78.7499,-157.863"/>
</g>
<!-- 4 -->
<g id="node5" class="node"><title>4</title>
<path fill="#ff3030" stroke="black" stroke-width="0.5" d="M-79.9188,100.984C-79.9188,100.984 -57.4188,100.984 -57.4188,100.984 -57.4188,100.228 -57.4568,99.4734 -57.5327,98.7219 -57.6087,97.9703 -57.7224,97.2231 -57.8735,96.483 -58.0246,95.743 -58.2128,95.0109 -58.4375,94.2898 -58.6623,93.5686 -58.9232,92.8593 -59.2192,92.1644 -59.5153,91.4695 -59.8462,90.7899 -60.2106,90.1283 -60.575,89.4667 -60.9725,88.8238 -61.4016,88.2022 -61.8307,87.5805 -62.2908,86.9809 -62.7802,86.4055 -63.2696,85.8302 -63.7877,85.2798 -64.3325,84.7566 -64.3325,84.7566 -79.9188,100.984 -79.9188,100.984"/>
<path fill="deepskyblue" stroke="black" stroke-width="0.5" d="M-79.9188,100.984C-79.9188,100.984 -64.3325,84.7566 -64.3325,84.7566 -64.8909,84.2202 -65.4766,83.7131 -66.0872,83.2371 -66.6979,82.7612 -67.3327,82.317 -67.9892,81.9065 -68.6456,81.496 -69.3228,81.1197 -70.0181,80.779 -70.7134,80.4383 -71.4257,80.1337 -72.1524,79.8665 -72.879,79.5992 -73.619,79.3697 -74.3693,79.1787 -75.1197,78.9878 -75.8793,78.8356 -76.6453,78.723 -77.4114,78.6104 -78.1827,78.5373 -78.9562,78.5042 -79.7297,78.4711 -80.5045,78.4779 -81.2773,78.5247 -82.0501,78.5714 -82.82,78.658 -83.5839,78.7841 -84.3478,78.9103 -85.1047,79.0757 -85.8515,79.2799 -86.5984,79.484 -87.3342,79.7266 -88.056,80.0066 -88.7779,80.2866 -89.4848,80.6037 -90.1739,80.9566 -90.863,81.3095 -91.5335,81.6977 -92.1826,82.1197 -92.8318,82.5417 -93.4587,82.9969 -94.0609,83.4836 -94.663,83.9702 -95.2397,84.4876 -95.7886,85.0337 -96.3374,85.5798 -96.8577,86.1539 -97.3474,86.7536 -97.837,87.3533 -98.2954,87.9779 -98.7207,88.6249 -99.146,89.2719 -99.5376,89.9404 -99.8939,90.6278 -100.25,91.3151 -100.571,92.0204 -100.855,92.7409 -101.138,93.4613 -101.384,94.1958 -101.592,94.9416 -101.8,95.6875 -101.97,96.4435 -102.1,97.2067 -102.229,97.97 -102.32,98.7395 -102.371,99.512 -102.421,100.285 -102.432,101.059 -102.403,101.833 -102.373,102.607 -102.304,103.378 -102.196,104.145 -102.087,104.911 -101.939,105.672 -101.751,106.423 -101.564,107.174 -101.338,107.916 -101.075,108.644 -100.811,109.372 -100.51,110.085 -100.173,110.782 -99.8358,111.479 -99.4629,112.158 -99.0557,112.817 -98.6485,113.476 -98.2076,114.113 -97.7347,114.726 -97.2618,115.339 -96.7576,115.927 -96.2241,116.488 -95.6906,117.049 -95.1284,117.582 -94.54,118.085 -93.9515,118.589 -93.3374,119.061 -92.7002,119.501 -92.7002,119.501 -79.9188,100.984 -79.9188,100.984"/>
<path fill="#98f5ff" stroke="black" stroke-width="0.5" d="M-79.9188,100.984C-79.9188,100.984 -92.7002,119.501 -92.7002,119.501 -91.8609,120.08 -90.9831,120.602 -90.0729,121.062 -89.1628,121.522 -88.2224,121.92 -87.2583,122.253 -86.2942,122.586 -85.3086,122.852 -84.3083,123.051 -83.308,123.25 -82.2953,123.381 -81.2773,123.443 -80.2592,123.504 -79.2382,123.496 -78.2212,123.419 -77.2042,123.343 -76.1936,123.197 -75.1964,122.982 -74.1993,122.768 -73.2178,122.487 -72.2588,122.14 -71.2998,121.792 -70.3656,121.38 -69.4625,120.906 -68.5594,120.432 -67.6896,119.898 -66.8591,119.306 -66.0286,118.714 -65.2393,118.066 -64.4966,117.367 -63.754,116.668 -63.0598,115.919 -62.4187,115.126 -61.7777,114.332 -61.1913,113.497 -60.6637,112.624 -60.1361,111.751 -59.6684,110.843 -59.2639,109.907 -58.8594,108.971 -58.519,108.008 -58.2452,107.026 -57.9713,106.043 -57.7645,105.043 -57.6263,104.033 -57.4881,103.022 -57.4188,102.004 -57.4188,100.984 -57.4188,100.984 -79.9188,100.984 -79.9188,100.984"/>
<ellipse fill="none" stroke="black" cx="-79.9188" cy="100.984" rx="22.5" ry="22.5"/>
<text text-anchor="middle" x="-79.9188" y="102.884" font-family="monospace" font-size="8.00">4</text>
</g>
<!-- 11 -->
<g id="node12" class="node"><title>11</title>
<ellipse fill="deepskyblue" stroke="black" cx="-130.23" cy="84.2833" rx="2.5" ry="2.5"/>
<text text-anchor="middle" x="-130.23" y="86.1833" font-family="monospace" font-size="8.00">11</text>
</g>
<!-- 4&#45;&gt;11 -->
<g id="edge32" class="edge"><title>4&#45;&gt;11</title>
<path fill="none" stroke="black" d="M-101.547,93.8043C-111.774,90.4095 -122.795,86.7513 -127.666,85.1344"/>
</g>
<!-- 55 -->
<g id="node56" class="node"><title>55</title>
<ellipse fill="#98f5ff" stroke="black" cx="-135.691" cy="164.456" rx="2.5" ry="2.5"/>
<text text-anchor="middle" x="-135.691" y="166.356" font-family="monospace" font-size="8.00">55</text>
</g>
<!-- 4&#45;&gt;55 -->
<g id="edge33" class="edge"><title>4&#45;&gt;55</title>
<path fill="none" stroke="black" d="M-94.8647,117.993C-108.804,133.857 -128.285,156.028 -134.033,162.569"/>
</g>
<!-- 5 -->
<g id="node6" class="node"><title>5</title>
<ellipse fill="#ff3030" stroke="black" cx="-131.84" cy="0.844182" rx="12.5" ry="12.5"/>
<text text-anchor="middle" x="-131.84" y="2.74418" font-family="monospace" font-size="8.00">5</text>
</g>
<!-- 32 -->
<g id="node33" class="node"><title>32</title>
<ellipse fill="#ff3030" stroke="black" cx="-145.936" cy="45.7118" rx="2.5" ry="2.5"/>
<text text-anchor="middle" x="-145.936" y="47.6118" font-family="monospace" font-size="8.00">32</text>
</g>
<!-- 5&#45;&gt;32 -->
<g id="edge35" class="edge"><title>5&#45;&gt;32</title>
<path fill="none" stroke="black" d="M-135.692,13.1045C-138.953,23.483 -143.371,37.547 -145.148,43.2034"/>
</g>
<!-- 38 -->
<g id="node39" class="node"><title>38</title>
<ellipse fill="#ff3030" stroke="black" cx="-195.158" cy="4.33002" rx="2.5" ry="2.5"/>
<text text-anchor="middle" x="-195.158" y="6.23002" font-family="monospace" font-size="8.00">38</text>
</g>
<!-- 5&#45;&gt;38 -->
<g id="edge36" class="edge"><title>5&#45;&gt;38</title>
<path fill="none" stroke="black" d="M-144.349,1.53287C-159.631,2.37415 -184.447,3.74032 -192.526,4.18509"/>
</g>
<!-- 39 -->
<g id="node40" class="node"><title>39</title>
<ellipse fill="#ff3030" stroke="black" cx="-192.03" cy="38.9456" rx="2.5" ry="2.5"/>
<text text-anchor="middle" x="-192.03" y="40.8456" font-family="monospace" font-size="8.00">39</text>
</g>
<!-- 5&#45;&gt;39 -->
<g id="edge37" class="edge"><title>5&#45;&gt;39</title>
<path fill="none" stroke="black" d="M-142.6,7.65596C-157.208,16.9029 -182.355,32.8212 -189.856,37.5699"/>
</g>
<!-- anon_5_37_0 -->
<g id="node72" class="node"><title>anon_5_37_0</title>
<ellipse fill="white" stroke="black" cx="-184.258" cy="-34.101" rx="1" ry="1"/>
</g>
<!-- 5&#45;&gt;anon_5_37_0 -->
<g id="edge71" class="edge"><title>5&#45;&gt;anon_5_37_0</title>
<path fill="none" stroke="black" stroke-dasharray="5,2" d="M-142.447,-6.22751C-155.85,-15.1622 -177.809,-29.8019 -183.09,-33.3222"/>
</g>
<!-- 6 -->
<g id="node7" class="node"><title>6</title>
<path fill="#ff3030" stroke="black" stroke-width="0.5" d="M-28.7997,11.597C-28.7997,11.597 -4.29972,11.597 -4.29972,11.597 -4.29972,10.4931 -4.37433,9.39043 -4.52304,8.29657 -4.67175,7.20272 -4.89422,6.12016 -5.18893,5.05631 -5.18893,5.05631 -28.7997,11.597 -28.7997,11.597"/>
<path fill="deepskyblue" stroke="black" stroke-width="0.5" d="M-28.7997,11.597C-28.7997,11.597 -5.18893,5.05631 -5.18893,5.05631 -5.40992,4.25855 -5.67121,3.47251 -5.97178,2.7012 -6.27235,1.9299 -6.61182,1.17432 -6.98888,0.43738 -7.36593,-0.299561 -7.7801,-1.01692 -8.22978,-1.71193 -8.67946,-2.40694 -9.16407,-3.07872 -9.68176,-3.72467 -9.68176,-3.72467 -28.7997,11.597 -28.7997,11.597"/>
<path fill="brown" stroke="black" stroke-width="0.5" d="M-28.7997,11.597C-28.7997,11.597 -9.68176,-3.72467 -9.68176,-3.72467 -10.1293,-4.28312 -10.6011,-4.8217 -11.0958,-5.33884 -11.5905,-5.85598 -12.1077,-6.3512 -12.6457,-6.82307 -13.1838,-7.29494 -13.7423,-7.74301 -14.3196,-8.16599 -14.8969,-8.58896 -15.4924,-8.98644 -16.1045,-9.35728 -16.7166,-9.72812 -17.3447,-10.072 -17.9868,-10.3878 -18.629,-10.7037 -19.2848,-10.9912 -19.9521,-11.2497 -20.6195,-11.5081 -21.2979,-11.7372 -21.9853,-11.9362 -22.6727,-12.1353 -23.3685,-12.3041 -24.0707,-12.4423 -24.773,-12.5804 -25.4809,-12.6877 -26.1925,-12.7639 -26.9041,-12.84 -27.6187,-12.885 -28.3342,-12.8986 -29.0497,-12.9122 -29.7655,-12.8944 -30.4795,-12.8453 -31.1935,-12.7963 -31.905,-12.7159 -32.6119,-12.6046 -33.3189,-12.4932 -34.0206,-12.351 -34.7151,-12.1782 -35.4096,-12.0054 -36.0962,-11.8022 -36.7729,-11.5693 -37.4496,-11.3364 -38.1158,-11.074 -38.7695,-10.7828 -39.4232,-10.4915 -40.0639,-10.1718 -40.6896,-9.82449 -41.3154,-9.47718 -41.9256,-9.10261 -42.5185,-8.70188 -43.1115,-8.30114 -43.6866,-7.87461 -44.2422,-7.42353 -44.7978,-6.97244 -45.3334,-6.49723 -45.8474,-5.99925 -46.3614,-5.50128 -46.8533,-4.98102 -47.3217,-4.43998 -47.7902,-3.89893 -48.2347,-3.33763 -48.654,-2.75767 -49.0733,-2.17771 -49.467,-1.57965 -49.834,-0.965224 -50.2009,-0.350797 -50.5408,0.279414 -50.8526,0.923595 -51.1644,1.56778 -51.4478,2.22531 -51.702,2.8943 -51.9562,3.56329 -52.181,4.2431 -52.3757,4.93178 -52.5703,5.62045 -52.7348,6.31732 -52.8685,7.02039 -53.0022,7.72345 -53.105,8.43204 -53.1766,9.14411 -53.2483,9.85618 -53.2887,10.571 -53.2978,11.2867 -53.3068,12.0023 -53.2845,12.7179 -53.2309,13.4316 -53.1773,14.1452 -53.0925,14.8562 -52.9767,15.5624 -52.8608,16.2686 -52.7141,16.9695 -52.5369,17.6628 -52.3597,18.3562 -52.1523,19.0415 -51.9151,19.7167 -51.6779,20.3919 -51.4112,21.0565 -51.1159,21.7083 -50.8205,22.3602 -50.4967,22.9988 -50.1455,23.6223 -49.7942,24.2459 -49.4158,24.8537 -49.0113,25.4441 -48.6068,26.0345 -48.1767,26.6069 -47.7221,27.1596 -47.2675,27.7124 -46.7889,28.2449 -46.2876,28.7557 -45.7864,29.2666 -45.2631,29.7552 -44.7191,30.2202 -44.1751,30.6852 -43.6109,31.1262 -43.0283,31.5418 -42.4457,31.9575 -41.8452,32.3474 -41.2285,32.7104 -40.6117,33.0735 -39.9794,33.4093 -39.3332,33.717 -38.6871,34.0247 -38.0278,34.3039 -37.3572,34.5539 -36.6866,34.8039 -36.0054,35.0244 -35.3155,35.2147 -34.6256,35.405 -33.9277,35.565 -33.2238,35.6943 -32.5199,35.8235 -31.8107,35.9218 -31.0982,35.989 -30.3857,36.0561 -29.6705,36.092 -28.9549,36.0965 -28.2392,36.101 -27.5237,36.0742 -26.8104,36.0161 -26.0971,35.958 -25.3867,35.8687 -24.6812,35.7484 -23.9758,35.6281 -23.2759,35.4769 -22.5836,35.2953 -21.8914,35.1137 -21.2074,34.9019 -20.5337,34.6605 -19.86,34.419 -19.1972,34.1482 -18.5473,33.8487 -17.8973,33.5492 -17.2607,33.2214 -16.6394,32.8662 -16.0181,32.5109 -15.4127,32.1287 -14.8249,31.7205 -14.2371,31.3123 -13.6674,30.8785 -13.1176,30.4204 -12.5677,29.9623 -12.0382,29.4803 -11.5306,28.9759 -11.0229,28.4714 -10.5376,27.945 -10.076,27.3981 -9.61447,26.8511 -9.1771,26.2842 -8.76517,25.699 -8.35324,25.1138 -7.96715,24.5108 -7.60801,23.8918 -7.24887,23.2727 -6.91702,22.6383 -6.61343,21.9902 -6.30983,21.3421 -6.03478,20.6811 -5.78907,20.0089 -5.54335,19.3367 -5.3272,18.6541 -5.14124,17.963 -4.95528,17.272 -4.7997,16.5731 -4.67493,15.8684 -4.55016,15.1637 -4.45633,14.4538 -4.3937,13.7409 -4.33107,13.028 -4.29972,12.3127 -4.29972,11.597 -4.29972,11.597 -28.7997,11.597 -28.7997,11.597"/>
<ellipse fill="none" stroke="black" cx="-28.7997" cy="11.597" rx="24.5" ry="24.5"/>
<text text-anchor="middle" x="-28.7997" y="13.497" font-family="monospace" font-size="8.00">6</text>
</g>
<!-- 6&#45;&gt;0 -->
<g id="edge1" class="edge"><title>6&#45;&gt;0</title>
<path fill="none" stroke="black" d="M-41.7356,-9.60326C-43.8024,-12.969 -45.9223,-16.4088 -47.9342,-19.6524 -58.0004,-35.8815 -69.5306,-54.2189 -78.0503,-67.7212"/>
<polygon fill="black" stroke="black" points="-79.6283,-66.9427 -80.8177,-72.1049 -76.6687,-68.8111 -79.6283,-66.9427"/>
<text text-anchor="middle" x="-45.1199" y="-43.3967" font-family="monospace" font-size="8.00">I1868T</text>
</g>
<!-- 6&#45;&gt;2 -->
<g id="edge6" class="edge"><title>6&#45;&gt;2</title>
<path fill="none" stroke="black" d="M-46.7942,-5.91907C-55.7905,-14.3545 -67.0149,-24.4088 -77.7005,-32.6831 -79.5039,-34.0796 -81.4629,-35.4825 -83.4121,-36.8159"/>
<polygon fill="black" stroke="black" points="-84.6628,-35.5452 -87.8647,-39.7654 -82.7299,-38.4631 -84.6628,-35.5452"/>
<text text-anchor="middle" x="-50.6024" y="-26.2573" font-family="monospace" font-size="8.00">A1934V</text>
</g>
<!-- 6&#45;&gt;3 -->
<g id="edge9" class="edge"><title>6&#45;&gt;3</title>
<path fill="none" stroke="black" d="M-9.39839,-3.71554C8.45631,-17.8074 34.9608,-38.7261 53.8965,-53.6711"/>
<polygon fill="black" stroke="black" points="53.0469,-55.23 58.0559,-56.954 55.2153,-52.4826 53.0469,-55.23"/>
<text text-anchor="middle" x="8.47603" y="-33.051" font-family="monospace" font-size="8.00">N1570Y</text>
</g>
<!-- 6&#45;&gt;4 -->
<g id="edge31" class="edge"><title>6&#45;&gt;4</title>
<path fill="none" stroke="black" d="M-41.1742,33.235C-48.7137,46.4185 -58.3609,63.2877 -66.1427,76.8948"/>
<polygon fill="black" stroke="black" points="-64.7031,77.9027 -68.7044,81.3743 -67.7413,76.1651 -64.7031,77.9027"/>
<text text-anchor="middle" x="-70.9878" y="54.7894" font-family="monospace" font-size="8.00">P1874L</text>
</g>
<!-- 6&#45;&gt;5 -->
<g id="edge34" class="edge"><title>6&#45;&gt;5</title>
<path fill="none" stroke="black" d="M-53.2188,9.04873C-71.8257,7.10699 -97.0256,4.47724 -113.828,2.72382"/>
<polygon fill="black" stroke="black" points="-114.391,4.42464 -119.182,2.16504 -114.028,0.94354 -114.391,4.42464"/>
<text text-anchor="middle" x="-102.208" y="3.00611" font-family="monospace" font-size="8.00">P1874S</text>
</g>
<!-- 7 -->
<g id="node8" class="node"><title>7</title>
<ellipse fill="#ff3030" stroke="black" cx="12.1467" cy="47.7624" rx="6.5" ry="6.5"/>
<text text-anchor="middle" x="12.1467" y="49.6624" font-family="monospace" font-size="8.00">7</text>
</g>
<!-- 6&#45;&gt;7 -->
<g id="edge38" class="edge"><title>6&#45;&gt;7</title>
<path fill="none" stroke="black" d="M-10.2434,27.9867C-5.51944,32.159 -0.658156,36.4527 3.32254,39.9686"/>
<polygon fill="black" stroke="black" points="4.65917,38.8143 7.24823,43.4359 2.34217,41.4376 4.65917,38.8143"/>
<text text-anchor="middle" x="14.5264" y="33.1325" font-family="monospace" font-size="8.00">K1603T</text>
</g>
<!-- 8 -->
<g id="node9" class="node"><title>8</title>
<ellipse fill="#ff3030" stroke="black" cx="-84.5939" cy="14.2088" rx="4.5" ry="4.5"/>
<text text-anchor="middle" x="-84.5939" y="16.1088" font-family="monospace" font-size="8.00">8</text>
</g>
<!-- 6&#45;&gt;8 -->
<g id="edge39" class="edge"><title>6&#45;&gt;8</title>
<path fill="none" stroke="black" d="M-53.4343,12.7502C-60.9659,13.1028 -68.8191,13.4704 -74.7574,13.7484"/>
<polygon fill="black" stroke="black" points="-74.8982,15.5068 -79.9746,13.9926 -75.0619,12.0106 -74.8982,15.5068"/>
<text text-anchor="middle" x="-82.722" y="19.7722" font-family="monospace" font-size="8.00">L1667M</text>
</g>
<!-- 13 -->
<g id="node14" class="node"><title>13</title>
<ellipse fill="#ff3030" stroke="black" cx="-9.08896" cy="74.0464" rx="5.5" ry="5.5"/>
<text text-anchor="middle" x="-9.08896" y="75.9464" font-family="monospace" font-size="8.00">13</text>
</g>
<!-- 6&#45;&gt;13 -->
<g id="edge40" class="edge"><title>6&#45;&gt;13</title>
<path fill="none" stroke="black" d="M-21.3479,35.2064C-18.23,45.0849 -14.7703,56.0464 -12.3234,63.7986"/>
<polygon fill="black" stroke="black" points="-10.6441,63.3052 -10.808,68.6001 -13.9818,64.3587 -10.6441,63.3052"/>
<text text-anchor="middle" x="-32.1475" y="58.083" font-family="monospace" font-size="8.00">I1940T</text>
</g>
<!-- 14 -->
<g id="node15" class="node"><title>14</title>
<path fill="#98f5ff" stroke="black" stroke-width="0.5" d="M28.6275,95.7987C28.6275,95.7987 33.1275,95.7987 33.1275,95.7987 33.1275,95.6023 33.1146,95.4061 33.089,95.2113 33.0634,95.0166 33.025,94.8238 32.9742,94.634 32.9233,94.4443 32.8601,94.2581 32.785,94.0766 32.7098,93.8952 32.6228,93.7188 32.5246,93.5487 32.4264,93.3786 32.3172,93.2151 32.1976,93.0593 32.078,92.9035 31.9484,92.7556 31.8095,92.6167 31.6706,92.4778 31.5228,92.3482 31.3669,92.2286 31.2111,92.109 31.0476,91.9998 30.8775,91.9016 30.7074,91.8034 30.531,91.7164 30.3496,91.6413 30.1681,91.5661 29.9819,91.5029 29.7922,91.452 29.6025,91.4012 29.4096,91.3628 29.2149,91.3372 29.0201,91.3116 28.8239,91.2987 28.6275,91.2987 28.4311,91.2987 28.2349,91.3116 28.0401,91.3372 27.8454,91.3628 27.6525,91.4012 27.4628,91.452 27.2731,91.5029 27.0869,91.5661 26.9054,91.6413 26.7239,91.7164 26.5476,91.8034 26.3775,91.9016 26.3775,91.9016 28.6275,95.7987 28.6275,95.7987"/>
<path fill="#ff3030" stroke="black" stroke-width="0.5" d="M28.6275,95.7987C28.6275,95.7987 26.3775,91.9016 26.3775,91.9016 26.2074,91.9998 26.0439,92.1091 25.8881,92.2286 25.7322,92.3482 25.5844,92.4778 25.4455,92.6167 25.3066,92.7556 25.177,92.9035 25.0574,93.0593 24.9378,93.2151 24.8286,93.3786 24.7304,93.5487 24.6322,93.7188 24.5452,93.8952 24.47,94.0766 24.3949,94.2581 24.3317,94.4443 24.2808,94.634 24.23,94.8238 24.1916,95.0166 24.166,95.2113 24.1404,95.4061 24.1275,95.6023 24.1275,95.7987 24.1275,95.9951 24.1404,96.1913 24.166,96.3861 24.1916,96.5808 24.23,96.7737 24.2808,96.9634 24.3317,97.1531 24.3949,97.3393 24.47,97.5208 24.5452,97.7023 24.6322,97.8786 24.7304,98.0487 24.8286,98.2188 24.9378,98.3823 25.0574,98.5381 25.177,98.694 25.3066,98.8418 25.4455,98.9807 25.5844,99.1196 25.7322,99.2492 25.8881,99.3688 26.0439,99.4884 26.2074,99.5976 26.3775,99.6958 26.5476,99.794 26.724,99.881 26.9054,99.9562 27.0869,100.031 27.2731,100.095 27.4628,100.145 27.6525,100.196 27.8454,100.235 28.0401,100.26 28.2349,100.286 28.4311,100.299 28.6275,100.299 28.8239,100.299 29.0201,100.286 29.2149,100.26 29.4096,100.235 29.6025,100.196 29.7922,100.145 29.9819,100.095 30.1681,100.031 30.3496,99.9562 30.531,99.881 30.7074,99.794 30.8775,99.6958 31.0476,99.5976 31.2111,99.4884 31.3669,99.3688 31.5228,99.2492 31.6706,99.1196 31.8095,98.9807 31.9484,98.8418 32.078,98.694 32.1976,98.5381 32.3172,98.3823 32.4264,98.2188 32.5246,98.0487 32.6228,97.8786 32.7098,97.7023 32.785,97.5208 32.8601,97.3393 32.9233,97.1531 32.9742,96.9634 33.025,96.7737 33.0634,96.5808 33.089,96.3861 33.1146,96.1913 33.1275,95.9951 33.1275,95.7987 33.1275,95.7987 28.6275,95.7987 28.6275,95.7987"/>
<ellipse fill="none" stroke="black" cx="28.6275" cy="95.7987" rx="4.5" ry="4.5"/>
<text text-anchor="middle" x="28.6275" y="97.6987" font-family="monospace" font-size="8.00">14</text>
</g>
<!-- 6&#45;&gt;14 -->
<g id="edge41" class="edge"><title>6&#45;&gt;14</title>
<path fill="none" stroke="black" d="M-14.8982,31.9799C-2.7074,49.8544 14.3887,74.9213 23.081,87.6663"/>
<polygon fill="black" stroke="black" points="24.6956,86.9278 26.0671,92.0446 21.8041,88.8999 24.6956,86.9278"/>
<text text-anchor="middle" x="19.2257" y="68.6194" font-family="monospace" font-size="8.00">T791M</text>
</g>
<!-- 17 -->
<g id="node18" class="node"><title>17</title>
<ellipse fill="#ff3030" stroke="black" cx="-51.0993" cy="-16.4537" rx="4.5" ry="4.5"/>
<text text-anchor="middle" x="-51.0993" y="-14.5537" font-family="monospace" font-size="8.00">17</text>
</g>
<!-- 6&#45;&gt;17 -->
<g id="edge42" class="edge"><title>6&#45;&gt;17</title>
<path fill="none" stroke="black" d="M-44.2875,-7.88512C-44.4659,-8.10949 -44.6425,-8.33165 -44.8171,-8.55132"/>
<polygon fill="black" stroke="black" points="-46.3734,-7.69676 -48.115,-12.6997 -43.6336,-9.87482 -46.3734,-7.69676"/>
<text text-anchor="middle" x="-60.7515" y="-2.06883" font-family="monospace" font-size="8.00">N1345I</text>
</g>
<!-- 19 -->
<g id="node20" class="node"><title>19</title>
<path fill="#98f5ff" stroke="black" stroke-width="0.5" d="M-83.3409,-27.0099C-83.3409,-27.0099 -75.3409,-27.0099 -75.3409,-27.0099 -75.3409,-27.429 -75.3739,-27.8474 -75.4394,-28.2614 -75.505,-28.6753 -75.603,-29.0835 -75.7325,-29.482 -75.862,-29.8806 -76.0226,-30.2684 -76.2129,-30.6418 -76.4031,-31.0152 -76.6225,-31.3731 -76.8688,-31.7122 -77.1151,-32.0512 -77.3877,-32.3704 -77.6841,-32.6668 -77.9804,-32.9631 -78.2996,-33.2357 -78.6386,-33.482 -78.9777,-33.7284 -79.3356,-33.9477 -79.709,-34.138 -80.0824,-34.3282 -80.4702,-34.4889 -80.8688,-34.6184 -81.2674,-34.7479 -81.6755,-34.8459 -82.0895,-34.9114 -82.5034,-34.977 -82.9218,-35.0099 -83.3409,-35.0099 -83.76,-35.0099 -84.1785,-34.977 -84.5924,-34.9114 -85.0063,-34.8459 -85.4145,-34.7479 -85.8131,-34.6184 -86.2116,-34.4889 -86.5994,-34.3282 -86.9729,-34.138 -87.3463,-33.9477 -87.7042,-33.7284 -88.0432,-33.482 -88.3823,-33.2357 -88.7014,-32.9631 -88.9978,-32.6668 -89.2941,-32.3704 -89.5667,-32.0512 -89.8131,-31.7122 -89.8131,-31.7122 -83.3409,-27.0099 -83.3409,-27.0099"/>
<path fill="deepskyblue" stroke="black" stroke-width="0.5" d="M-83.3409,-27.0099C-83.3409,-27.0099 -89.8131,-31.7122 -89.8131,-31.7122 -89.9978,-31.458 -90.1673,-31.1931 -90.3209,-30.9189 -90.4744,-30.6447 -90.6117,-30.3617 -90.732,-30.0714 -90.8522,-29.781 -90.9553,-29.4839 -91.0406,-29.1814 -91.1259,-28.879 -91.1933,-28.5718 -91.2424,-28.2614 -91.2916,-27.951 -91.3224,-27.638 -91.3348,-27.324 -91.3471,-27.01 -91.3409,-26.6955 -91.3163,-26.3822 -91.2916,-26.069 -91.2485,-25.7574 -91.1872,-25.4492 -91.1259,-25.141 -91.0465,-24.8366 -90.9494,-24.5378 -90.8523,-24.2389 -90.7376,-23.946 -90.6061,-23.6606 -90.4745,-23.3752 -90.3262,-23.0979 -90.1621,-22.8299 -89.9979,-22.562 -89.818,-22.3039 -89.6235,-22.0572 -89.4289,-21.8104 -89.22,-21.5753 -88.9978,-21.3531 -88.7756,-21.1308 -88.5405,-20.9219 -88.2937,-20.7274 -88.0469,-20.5328 -87.7889,-20.353 -87.5209,-20.1888 -87.253,-20.0246 -86.9756,-19.8763 -86.6902,-19.7448 -86.4048,-19.6132 -86.1119,-19.4986 -85.8131,-19.4015 -85.5142,-19.3043 -85.2099,-19.2249 -84.9017,-19.1636 -84.5934,-19.1023 -84.2819,-19.0592 -83.9686,-19.0346 -83.6553,-19.0099 -83.3409,-19.0037 -83.0269,-19.0161 -82.7128,-19.0284 -82.3998,-19.0592 -82.0895,-19.1084 -81.7791,-19.1576 -81.4719,-19.225 -81.1694,-19.3103 -80.867,-19.3956 -80.5698,-19.4986 -80.2795,-19.6189 -79.9891,-19.7391 -79.7061,-19.8764 -79.432,-20.0299 -79.1578,-20.1835 -78.8929,-20.3531 -78.6386,-20.5378 -78.3844,-20.7225 -78.1413,-20.922 -77.9105,-21.1353 -77.6798,-21.3486 -77.4618,-21.5754 -77.2577,-21.8143 -77.0536,-22.0533 -76.8638,-22.3041 -76.6892,-22.5653 -76.5146,-22.8266 -76.3555,-23.098 -76.2129,-23.378 -76.0702,-23.658 -75.9442,-23.9461 -75.8354,-24.241 -75.7266,-24.5358 -75.6353,-24.8368 -75.562,-25.1423 -75.4886,-25.4479 -75.4333,-25.7575 -75.3964,-26.0696 -75.3594,-26.3817 -75.3409,-26.6957 -75.3409,-27.0099 -75.3409,-27.0099 -83.3409,-27.0099 -83.3409,-27.0099"/>
<ellipse fill="none" stroke="black" cx="-83.3409" cy="-27.0099" rx="8" ry="8"/>
<text text-anchor="middle" x="-83.3409" y="-25.1099" font-family="monospace" font-size="8.00">19</text>
</g>
<!-- 6&#45;&gt;19 -->
<g id="edge43" class="edge"><title>6&#45;&gt;19</title>
<path fill="none" stroke="black" d="M-48.7992,-2.55956C-56.7038,-8.15484 -65.4877,-14.3725 -72.2194,-19.1376"/>
<polygon fill="black" stroke="black" points="-73.446,-17.8617 -76.516,-22.1789 -71.4239,-20.7185 -73.446,-17.8617"/>
<text text-anchor="middle" x="-78.824" y="-15.087" font-family="monospace" font-size="8.00">E1597G</text>
</g>
<!-- 26 -->
<g id="node27" class="node"><title>26</title>
<ellipse fill="deepskyblue" stroke="black" cx="6.57869" cy="-5.27096" rx="3.5" ry="3.5"/>
<text text-anchor="middle" x="6.57869" y="-3.37096" font-family="monospace" font-size="8.00">26</text>
</g>
<!-- 6&#45;&gt;26 -->
<g id="edge44" class="edge"><title>6&#45;&gt;26</title>
<path fill="none" stroke="black" d="M-6.59493,1.01005C-4.82485,0.166097 -3.11943,-0.647028 -1.55622,-1.39234"/>
<polygon fill="black" stroke="black" points="-2.16868,-3.03903 3.09776,-3.6113 -0.662339,0.120261 -2.16868,-3.03903"/>
<text text-anchor="middle" x="14.149" y="5.14819" font-family="monospace" font-size="8.00">I1584T</text>
</g>
<!-- 31 -->
<g id="node32" class="node"><title>31</title>
<path fill="#98f5ff" stroke="black" stroke-width="0.5" d="M-37.6759,97.0649C-37.6759,97.0649 -28.6759,97.0649 -28.6759,97.0649 -28.6759,96.5737 -28.7161,96.0834 -28.7961,95.5988 -28.8761,95.1142 -28.9956,94.637 -29.1535,94.1719 -29.3114,93.7068 -29.5071,93.2555 -29.7386,92.8223 -29.9701,92.3892 -30.2367,91.9757 -30.5357,91.586 -30.8347,91.1964 -31.1651,90.8318 -31.5236,90.4961 -31.882,90.1604 -32.2674,89.8545 -32.6758,89.5817 -33.0841,89.3088 -33.5142,89.0698 -33.9615,88.8671 -34.4089,88.6644 -34.8721,88.4987 -35.3465,88.3715 -35.8209,88.2444 -36.305,88.1564 -36.7937,88.1082 -37.2825,88.0601 -37.7744,88.052 -38.2645,88.0841 -38.7546,88.1163 -39.2413,88.1885 -39.7196,88.3 -40.1979,88.4115 -40.6663,88.562 -41.12,88.75 -41.5738,88.9379 -42.0114,89.1627 -42.4285,89.4221 -42.8456,89.6814 -43.2407,89.9745 -43.61,90.2983 -43.9793,90.6222 -44.3214,90.9757 -44.633,91.3553 -44.9446,91.735 -45.2245,92.1395 -45.4701,92.5649 -45.4701,92.5649 -37.6759,97.0649 -37.6759,97.0649"/>
<path fill="deepskyblue" stroke="black" stroke-width="0.5" d="M-37.6759,97.0649C-37.6759,97.0649 -45.4701,92.5649 -45.4701,92.5649 -45.642,92.8625 -45.7966,93.1698 -45.9333,93.4851 -46.0701,93.8005 -46.1886,94.1234 -46.2884,94.4523 -46.3881,94.7812 -46.469,95.1156 -46.5305,95.4537 -46.592,95.7919 -46.6341,96.1333 -46.6566,96.4762 -46.6791,96.8192 -46.6819,97.1632 -46.6651,97.5065 -46.6482,97.8498 -46.6117,98.1918 -46.5557,98.5309 -46.4997,98.8701 -46.4243,99.2057 -46.3299,99.5362 -46.2356,99.8667 -46.1223,100.191 -45.9908,100.509 -45.8593,100.827 -45.7097,101.136 -45.5427,101.437 -45.3757,101.737 -45.1917,102.028 -44.9915,102.307 -44.7913,102.587 -44.5753,102.854 -44.3445,103.109 -44.1136,103.364 -43.8684,103.605 -43.61,103.831 -43.3516,104.058 -43.0804,104.27 -42.7978,104.465 -42.5152,104.661 -42.2216,104.84 -41.9185,105.002 -41.6153,105.164 -41.3032,105.309 -40.9835,105.435 -40.6639,105.561 -40.3373,105.669 -40.0053,105.758 -39.6733,105.847 -39.3365,105.917 -38.9965,105.967 -38.6565,106.018 -38.3139,106.049 -37.9704,106.06 -37.6268,106.071 -37.283,106.063 -36.9404,106.035 -36.5978,106.007 -36.2572,105.959 -35.9201,105.892 -35.583,105.825 -35.25,105.739 -34.9228,105.633 -34.5955,105.528 -34.2746,105.405 -33.9615,105.263 -33.6485,105.121 -33.3438,104.961 -33.049,104.784 -32.7542,104.608 -32.4697,104.414 -32.197,104.205 -31.9244,103.996 -31.6639,103.771 -31.4169,103.532 -31.1699,103.293 -30.9368,103.04 -30.7188,102.774 -30.5008,102.509 -30.2981,102.231 -30.1119,101.942 -29.9256,101.653 -29.7561,101.354 -29.604,101.045 -29.452,100.737 -29.3178,100.421 -29.202,100.097 -29.0862,99.7733 -28.989,99.4433 -28.911,99.1086 -28.833,98.7738 -28.7741,98.4349 -28.7349,98.0935 -28.6956,97.752 -28.6759,97.4086 -28.6759,97.0649 -28.6759,97.0649 -37.6759,97.0649 -37.6759,97.0649"/>
<ellipse fill="none" stroke="black" cx="-37.6759" cy="97.0649" rx="9" ry="9"/>
<text text-anchor="middle" x="-37.6759" y="98.9649" font-family="monospace" font-size="8.00">31</text>
</g>
<!-- 6&#45;&gt;31 -->
<g id="edge48" class="edge"><title>6&#45;&gt;31</title>
<path fill="none" stroke="black" d="M-31.3671,36.3179C-32.9441,51.5024 -34.9067,70.4011 -36.2204,83.0503"/>
<polygon fill="black" stroke="black" points="-34.4835,83.2673 -36.7407,88.0597 -37.9647,82.9057 -34.4835,83.2673"/>
<text text-anchor="middle" x="-50.0518" y="68.569" font-family="monospace" font-size="8.00">V1853I</text>
</g>
<!-- 47 -->
<g id="node48" class="node"><title>47</title>
<ellipse fill="brown" stroke="black" cx="-27.8738" cy="43.3256" rx="2.5" ry="2.5"/>
<text text-anchor="middle" x="-27.8738" y="45.2256" font-family="monospace" font-size="8.00">47</text>
</g>
<!-- 6&#45;&gt;47 -->
<g id="edge49" class="edge"><title>6&#45;&gt;47</title>
<path fill="none" stroke="black" d="M-28.0793,36.284C-28.0307,37.948 -27.9877,39.4222 -27.9538,40.5861"/>
</g>
<!-- 48 -->
<g id="node49" class="node"><title>48</title>
<ellipse fill="brown" stroke="black" cx="-93.825" cy="42.8103" rx="4.5" ry="4.5"/>
<text text-anchor="middle" x="-93.825" y="44.7103" font-family="monospace" font-size="8.00">48</text>
</g>
<!-- 6&#45;&gt;48 -->
<g id="edge50" class="edge"><title>6&#45;&gt;48</title>
<path fill="none" stroke="black" d="M-51.1777,22.3389C-65.1379,29.04 -81.8679,37.0707 -89.5664,40.7661"/>
</g>
<!-- 50 -->
<g id="node51" class="node"><title>50</title>
<ellipse fill="brown" stroke="black" cx="-17.6376" cy="-61.0408" rx="5.5" ry="5.5"/>
<text text-anchor="middle" x="-17.6376" y="-59.1408" font-family="monospace" font-size="8.00">50</text>
</g>
<!-- 6&#45;&gt;50 -->
<g id="edge53" class="edge"><title>6&#45;&gt;50</title>
<path fill="none" stroke="black" d="M-24.2943,-12.5036C-23.6251,-16.3444 -22.9684,-20.2782 -22.3947,-24.002 -20.6768,-35.1512 -19.0965,-48.2554 -18.2604,-55.5065"/>
</g>
<!-- 51 -->
<g id="node52" class="node"><title>51</title>
<ellipse fill="brown" stroke="black" cx="12.2566" cy="18.0895" rx="2.5" ry="2.5"/>
<text text-anchor="middle" x="12.2566" y="19.9895" font-family="monospace" font-size="8.00">51</text>
</g>
<!-- 6&#45;&gt;51 -->
<g id="edge54" class="edge"><title>6&#45;&gt;51</title>
<path fill="none" stroke="black" d="M-4.4426,15.4488C1.35913,16.3662 6.73781,17.2168 9.75011,17.6931"/>
</g>
<!-- 54 -->
<g id="node55" class="node"><title>54</title>
<ellipse fill="brown" stroke="black" cx="-24.8946" cy="-23.987" rx="2.5" ry="2.5"/>
<text text-anchor="middle" x="-24.8946" y="-22.087" font-family="monospace" font-size="8.00">54</text>
</g>
<!-- 6&#45;&gt;54 -->
<g id="edge55" class="edge"><title>6&#45;&gt;54</title>
<path fill="none" stroke="black" d="M-26.0875,-13.1173C-25.7335,-16.3431 -25.419,-19.2092 -25.2019,-21.1874"/>
</g>
<!-- anon_6_27_0 -->
<g id="node65" class="node"><title>anon_6_27_0</title>
<ellipse fill="white" stroke="black" cx="-69.6625" cy="62.3655" rx="1" ry="1"/>
</g>
<!-- 6&#45;&gt;anon_6_27_0 -->
<g id="edge45" class="edge"><title>6&#45;&gt;anon_6_27_0</title>
<path fill="none" stroke="black" d="M-44.2482,30.7904C-54.0117,42.9208 -65.3921,57.0599 -68.7101,61.1822"/>
</g>
<!-- anon_6_49_0 -->
<g id="node67" class="node"><title>anon_6_49_0</title>
<ellipse fill="white" stroke="black" cx="34.6709" cy="39.5457" rx="1" ry="1"/>
</g>
<!-- 6&#45;&gt;anon_6_49_0 -->
<g id="edge51" class="edge"><title>6&#45;&gt;anon_6_49_0</title>
<path fill="none" stroke="black" d="M-6.24363,21.5293C9.71925,28.5584 29.0723,37.0804 33.6611,39.101"/>
</g>
<!-- 57 -->
<g id="node58" class="node"><title>57</title>
<ellipse fill="black" stroke="black" cx="-147.199" cy="24.8043" rx="4.5" ry="4.5"/>
<text text-anchor="middle" x="-147.199" y="26.7043" font-family="monospace" font-size="8.00">57</text>
</g>
<!-- 8&#45;&gt;57 -->
<g id="edge56" class="edge"><title>8&#45;&gt;57</title>
<path fill="none" stroke="black" d="M-89.0963,14.9709C-100.647,16.9258 -131.231,22.1019 -142.737,24.0492"/>
</g>
<!-- 9 -->
<g id="node10" class="node"><title>9</title>
<ellipse fill="deepskyblue" stroke="black" cx="130.474" cy="166.856" rx="2.5" ry="2.5"/>
<text text-anchor="middle" x="130.474" y="168.756" font-family="monospace" font-size="8.00">9</text>
</g>
<!-- 15 -->
<g id="node16" class="node"><title>15</title>
<path fill="#98f5ff" stroke="black" stroke-width="0.5" d="M84.9438,138.916C84.9438,138.916 97.4438,138.916 97.4438,138.916 97.4438,138.458 97.4186,138 97.3683,137.545 97.318,137.089 97.2427,136.637 97.1427,136.19 97.0428,135.742 96.9183,135.301 96.7698,134.867 96.6214,134.434 96.4492,134.009 96.2541,133.594 96.059,133.179 95.8412,132.776 95.6018,132.385 95.3623,131.994 95.1016,131.617 94.8207,131.255 94.5398,130.893 94.2393,130.546 93.9204,130.217 93.6014,129.888 93.2647,129.577 92.9116,129.285 92.5585,128.993 92.1896,128.72 91.8066,128.469 91.4235,128.217 91.027,127.987 90.6187,127.779 90.2103,127.571 89.7909,127.385 89.3622,127.223 88.9335,127.061 88.4963,126.923 88.0524,126.809 87.6085,126.695 87.1587,126.606 86.705,126.541 86.2513,126.476 85.7944,126.437 85.3364,126.422 84.8784,126.408 84.4199,126.419 83.963,126.455 83.5062,126.491 83.0517,126.552 82.6015,126.638 82.6015,126.638 84.9438,138.916 84.9438,138.916"/>
<path fill="deepskyblue" stroke="black" stroke-width="0.5" d="M84.9438,138.916C84.9438,138.916 82.6015,126.638 82.6015,126.638 82.0227,126.748 81.4523,126.899 80.8948,127.09 80.3373,127.281 79.794,127.511 79.2689,127.779 78.7438,128.046 78.2383,128.351 77.7562,128.689 77.2741,129.028 76.8165,129.401 76.3869,129.804 75.9574,130.208 75.5568,130.641 75.1884,131.101 74.8199,131.561 74.4845,132.046 74.1845,132.553 73.8845,133.061 73.6208,133.588 73.3953,134.133 73.1698,134.677 72.983,135.237 72.8365,135.808 72.6899,136.378 72.5839,136.959 72.5193,137.545 72.4546,138.13 72.4314,138.72 72.4499,139.309 72.4685,139.898 72.5286,140.485 72.6299,141.065 72.7312,141.646 72.8735,142.219 73.0556,142.779 73.2377,143.339 73.4592,143.886 73.7184,144.416 73.9777,144.945 74.274,145.455 74.6053,145.942 74.9365,146.43 75.3018,146.893 75.6984,147.329 76.095,147.765 76.5219,148.172 76.976,148.548 77.43,148.923 77.9101,149.266 78.4125,149.574 78.915,149.882 79.4386,150.154 79.9794,150.388 80.5203,150.622 81.077,150.818 81.6454,150.973 82.2138,151.129 82.7925,151.244 83.3771,151.318 83.9618,151.392 84.5509,151.424 85.1401,151.415 85.7293,151.406 86.3172,151.355 86.8992,151.262 87.4812,151.17 88.056,151.037 88.6193,150.864 89.1825,150.69 89.7328,150.478 90.266,150.227 90.7992,149.976 91.314,149.687 91.8066,149.364 92.2991,149.04 92.7681,148.682 93.2102,148.293 93.6522,147.903 94.0661,147.483 94.4488,147.034 94.8316,146.586 95.1821,146.112 95.4979,145.614 95.8136,145.117 96.0938,144.597 96.3363,144.06 96.5788,143.523 96.783,142.97 96.9474,142.404 97.1119,141.838 97.236,141.261 97.3191,140.678 97.4021,140.094 97.4438,139.506 97.4438,138.916 97.4438,138.916 84.9438,138.916 84.9438,138.916"/>
<ellipse fill="none" stroke="black" cx="84.9438" cy="138.916" rx="12.5" ry="12.5"/>
<text text-anchor="middle" x="84.9438" y="140.816" font-family="monospace" font-size="8.00">15</text>
</g>
<!-- 9&#45;&gt;15 -->
<g id="edge57" class="edge"><title>9&#45;&gt;15</title>
<path fill="none" stroke="black" d="M128.278,165.508C122.522,161.976 106.698,152.266 95.8529,145.611"/>
</g>
<!-- 12 -->
<g id="node13" class="node"><title>12</title>
<ellipse fill="deepskyblue" stroke="black" cx="148.085" cy="139.608" rx="2.5" ry="2.5"/>
<text text-anchor="middle" x="148.085" y="141.508" font-family="monospace" font-size="8.00">12</text>
</g>
<!-- 12&#45;&gt;15 -->
<g id="edge58" class="edge"><title>12&#45;&gt;15</title>
<path fill="none" stroke="black" d="M145.372,139.578C137.252,139.489 112.765,139.221 97.5697,139.055"/>
</g>
<!-- 28 -->
<g id="node29" class="node"><title>28</title>
<ellipse fill="#ff3030" stroke="black" cx="-5.43842" cy="129.114" rx="2.5" ry="2.5"/>
<text text-anchor="middle" x="-5.43842" y="131.014" font-family="monospace" font-size="8.00">28</text>
</g>
<!-- 13&#45;&gt;28 -->
<g id="edge59" class="edge"><title>13&#45;&gt;28</title>
<path fill="none" stroke="black" d="M-8.69829,79.9395C-7.91841,91.7037 -6.19462,117.707 -5.6251,126.298"/>
</g>
<!-- 14&#45;&gt;15 -->
<g id="edge60" class="edge"><title>14&#45;&gt;15</title>
<path fill="none" stroke="black" d="M32.3226,98.6278C39.9734,104.486 57.9027,118.213 70.7042,128.014"/>
<polygon fill="black" stroke="black" points="71.9206,126.741 74.8268,131.17 69.7929,129.52 71.9206,126.741"/>
<text text-anchor="middle" x="37.5965" y="112.316" font-family="monospace" font-size="8.00">A1746S</text>
</g>
<!-- anon_14_20_0 -->
<g id="node68" class="node"><title>anon_14_20_0</title>
<ellipse fill="white" stroke="black" cx="19.6784" cy="144.811" rx="1" ry="1"/>
</g>
<!-- 14&#45;&gt;anon_14_20_0 -->
<g id="edge61" class="edge"><title>14&#45;&gt;anon_14_20_0</title>
<path fill="none" stroke="black" d="M27.8016,100.322C25.8631,110.939 21.0977,137.038 19.9366,143.397"/>
</g>
<!-- anon_15_23_0 -->
<g id="node70" class="node"><title>anon_15_23_0</title>
<ellipse fill="white" stroke="black" cx="95.442" cy="201.316" rx="1" ry="1"/>
</g>
<!-- 15&#45;&gt;anon_15_23_0 -->
<g id="edge64" class="edge"><title>15&#45;&gt;anon_15_23_0</title>
<path fill="none" stroke="black" d="M87.0179,151.244C89.6949,167.156 94.1368,193.558 95.2055,199.91"/>
</g>
<!-- 33 -->
<g id="node34" class="node"><title>33</title>
<ellipse fill="deepskyblue" stroke="black" cx="-141.241" cy="-54.4255" rx="2.5" ry="2.5"/>
<text text-anchor="middle" x="-141.241" y="-52.5255" font-family="monospace" font-size="8.00">33</text>
</g>
<!-- 19&#45;&gt;33 -->
<g id="edge67" class="edge"><title>19&#45;&gt;33</title>
<path fill="none" stroke="black" d="M-90.9104,-30.594C-104.153,-36.8642 -130.88,-49.5194 -138.909,-53.3211"/>
</g>
<!-- 20 -->
<g id="node21" class="node"><title>20</title>
<ellipse fill="deepskyblue" stroke="black" cx="-20.587" cy="227.638" rx="2.5" ry="2.5"/>
<text text-anchor="middle" x="-20.587" y="229.538" font-family="monospace" font-size="8.00">20</text>
</g>
<!-- anon_20_31_0 -->
<g id="node73" class="node"><title>anon_20_31_0</title>
<ellipse fill="white" stroke="black" cx="-54.9753" cy="201.364" rx="1" ry="1"/>
</g>
<!-- 20&#45;&gt;anon_20_31_0 -->
<g id="edge74" class="edge"><title>20&#45;&gt;anon_20_31_0</title>
<path fill="none" stroke="black" stroke-dasharray="5,2" d="M-22.8433,225.914C-29.5375,220.799 -49.1179,205.839 -53.9084,202.179"/>
</g>
<!-- 23 -->
<g id="node24" class="node"><title>23</title>
<ellipse fill="deepskyblue" stroke="black" cx="139.625" cy="273.853" rx="2.5" ry="2.5"/>
<text text-anchor="middle" x="139.625" y="275.753" font-family="monospace" font-size="8.00">23</text>
</g>
<!-- 27 -->
<g id="node28" class="node"><title>27</title>
<ellipse fill="#ff3030" stroke="black" cx="-153.156" cy="128.085" rx="3.5" ry="3.5"/>
<text text-anchor="middle" x="-153.156" y="129.985" font-family="monospace" font-size="8.00">27</text>
</g>
<!-- anon_20_31_1 -->
<g id="node74" class="node"><title>anon_20_31_1</title>
<ellipse fill="white" stroke="black" cx="-55.0315" cy="156.521" rx="1" ry="1"/>
</g>
<!-- 31&#45;&gt;anon_20_31_1 -->
<g id="edge76" class="edge"><title>31&#45;&gt;anon_20_31_1</title>
<path fill="none" stroke="black" stroke-dasharray="5,2" d="M-40.2368,105.838C-43.768,117.935 -50.0488,139.451 -53.1676,150.135"/>
<polygon fill="black" stroke="black" points="-51.5128,150.712 -54.5938,155.021 -54.8726,149.731 -51.5128,150.712"/>
<text text-anchor="middle" x="-63.4184" y="136.84" font-family="monospace" font-size="8.00">L1366F</text>
</g>
<!-- 35 -->
<g id="node36" class="node"><title>35</title>
<ellipse fill="#ff3030" stroke="black" cx="151.983" cy="-177.017" rx="2.5" ry="2.5"/>
<text text-anchor="middle" x="151.983" y="-175.117" font-family="monospace" font-size="8.00">35</text>
</g>
<!-- 37 -->
<g id="node38" class="node"><title>37</title>
<ellipse fill="#ff3030" stroke="black" cx="-203.497" cy="-71.2499" rx="2.5" ry="2.5"/>
<text text-anchor="middle" x="-203.497" y="-69.3499" font-family="monospace" font-size="8.00">37</text>
</g>
<!-- 40 -->
<g id="node41" class="node"><title>40</title>
<ellipse fill="deepskyblue" stroke="black" cx="32.9159" cy="-204.16" rx="2.5" ry="2.5"/>
<text text-anchor="middle" x="32.9159" y="-202.26" font-family="monospace" font-size="8.00">40</text>
</g>
<!-- 42 -->
<g id="node43" class="node"><title>42</title>
<ellipse fill="#1874cd" stroke="black" cx="214.175" cy="-43.4904" rx="2.5" ry="2.5"/>
<text text-anchor="middle" x="214.175" y="-41.5904" font-family="monospace" font-size="8.00">42</text>
</g>
<!-- 42&#45;&gt;46 -->
<g id="edge68" class="edge"><title>42&#45;&gt;46</title>
<path fill="none" stroke="black" d="M211.656,-43.5166C203.597,-43.6006 178.48,-43.8624 170.085,-43.9499"/>
</g>
<!-- 45 -->
<g id="node46" class="node"><title>45</title>
<ellipse fill="#1874cd" stroke="black" cx="85.7209" cy="-205.894" rx="2.5" ry="2.5"/>
<text text-anchor="middle" x="85.7209" y="-203.994" font-family="monospace" font-size="8.00">45</text>
</g>
<!-- 48&#45;&gt;11 -->
<g id="edge73" class="edge"><title>48&#45;&gt;11</title>
<path fill="none" stroke="black" stroke-dasharray="5,2" d="M-96.9289,46.3463C-103.08,53.3541 -116.894,69.0905 -124.659,77.9363"/>
<polygon fill="black" stroke="black" points="-123.649,79.4393 -128.263,82.0425 -126.28,77.1304 -123.649,79.4393"/>
<text text-anchor="middle" x="-128.631" y="61.6345" font-family="monospace" font-size="8.00">P1874L</text>
</g>
<!-- 48&#45;&gt;32 -->
<g id="edge77" class="edge"><title>48&#45;&gt;32</title>
<path fill="none" stroke="black" stroke-dasharray="5,2" d="M-98.6341,43.0781C-107.648,43.58 -127.16,44.6664 -138.098,45.2754"/>
<polygon fill="black" stroke="black" points="-138.082,47.0271 -143.172,45.5579 -138.277,43.5325 -138.082,47.0271"/>
<text text-anchor="middle" x="-121.109" y="50.7294" font-family="monospace" font-size="8.00">P1874S</text>
</g>
<!-- 49 -->
<g id="node50" class="node"><title>49</title>
<ellipse fill="brown" stroke="black" cx="71.8041" cy="69.0897" rx="2.5" ry="2.5"/>
<text text-anchor="middle" x="71.8041" y="70.9897" font-family="monospace" font-size="8.00">49</text>
</g>
<!-- 50&#45;&gt;41 -->
<g id="edge78" class="edge"><title>50&#45;&gt;41</title>
<path fill="none" stroke="black" stroke-dasharray="5,2" d="M-12.0813,-62.2126C-4.01657,-63.9135 10.9591,-67.0718 20.0507,-68.9892"/>
<polygon fill="black" stroke="black" points="19.7903,-70.7227 25.0438,-70.0423 20.5126,-67.2981 19.7903,-70.7227"/>
<text text-anchor="middle" x="-9.63686" y="-68.7025" font-family="monospace" font-size="8.00">N1570Y</text>
</g>
<!-- 52 -->
<g id="node53" class="node"><title>52</title>
<ellipse fill="brown" stroke="black" cx="-32.0713" cy="-113.895" rx="2.5" ry="2.5"/>
<text text-anchor="middle" x="-32.0713" y="-111.995" font-family="monospace" font-size="8.00">52</text>
</g>
<!-- 50&#45;&gt;52 -->
<g id="edge69" class="edge"><title>50&#45;&gt;52</title>
<path fill="none" stroke="black" d="M-19.1823,-66.6972C-22.2658,-77.9886 -29.0814,-102.947 -31.3332,-111.192"/>
</g>
<!-- 53 -->
<g id="node54" class="node"><title>53</title>
<ellipse fill="brown" stroke="black" cx="-52.3911" cy="-102.509" rx="2.5" ry="2.5"/>
<text text-anchor="middle" x="-52.3911" y="-100.609" font-family="monospace" font-size="8.00">53</text>
</g>
<!-- 50&#45;&gt;53 -->
<g id="edge70" class="edge"><title>50&#45;&gt;53</title>
<path fill="none" stroke="black" d="M-21.3568,-65.4786C-28.7814,-74.3376 -45.1921,-93.9189 -50.6139,-100.388"/>
</g>
<!-- anon_2_37_0&#45;&gt;37 -->
<g id="edge8" class="edge"><title>anon_2_37_0&#45;&gt;37</title>
<path fill="none" stroke="black" d="M-156.722,-75.2375C-162.028,-74.7851 -183.857,-72.9242 -195.726,-71.9124"/>
<polygon fill="black" stroke="black" points="-195.754,-70.1538 -200.884,-71.4727 -196.051,-73.6411 -195.754,-70.1538"/>
<text text-anchor="middle" x="-194.836" y="-75.9522" font-family="monospace" font-size="8.00">P1874S</text>
</g>
<!-- anon_3_35_0&#45;&gt;35 -->
<g id="edge19" class="edge"><title>anon_3_35_0&#45;&gt;35</title>
<path fill="none" stroke="black" d="M120.505,-144.687C124.699,-148.994 144.225,-169.049 150.225,-175.212"/>
</g>
<!-- anon_3_40_0&#45;&gt;40 -->
<g id="edge22" class="edge"><title>anon_3_40_0&#45;&gt;40</title>
<path fill="none" stroke="black" d="M37.3714,-157.173C36.8659,-162.504 34.7866,-184.432 33.6561,-196.354"/>
<polygon fill="black" stroke="black" points="31.8946,-196.393 33.1647,-201.536 35.379,-196.724 31.8946,-196.393"/>
<text text-anchor="middle" x="21.7649" y="-181.988" font-family="monospace" font-size="8.00">P940H</text>
</g>
<!-- anon_3_45_0&#45;&gt;45 -->
<g id="edge27" class="edge"><title>anon_3_45_0&#45;&gt;45</title>
<path fill="none" stroke="black" d="M78.9477,-160.288C79.85,-166.364 84.0516,-194.654 85.3426,-203.346"/>
</g>
<!-- anon_6_27_1 -->
<g id="node66" class="node"><title>anon_6_27_1</title>
<ellipse fill="white" stroke="black" cx="-108.751" cy="99.1109" rx="1" ry="1"/>
</g>
<!-- anon_6_27_0&#45;&gt;anon_6_27_1 -->
<g id="edge46" class="edge"><title>anon_6_27_0&#45;&gt;anon_6_27_1</title>
<path fill="none" stroke="black" d="M-70.7009,63.1965C-74.3069,66.0967 -86.5774,76.0879 -95.936,85.1818 -100.838,89.945 -106.234,96.1634 -108.086,98.3279"/>
</g>
<!-- anon_6_27_1&#45;&gt;27 -->
<g id="edge47" class="edge"><title>anon_6_27_1&#45;&gt;27</title>
<path fill="none" stroke="black" d="M-109.849,99.8272C-114.667,102.971 -134.195,115.713 -145.312,122.967"/>
<polygon fill="black" stroke="black" points="-144.601,124.593 -149.745,125.859 -146.514,121.662 -144.601,124.593"/>
<text text-anchor="middle" x="-140.812" y="110.253" font-family="monospace" font-size="8.00">G54C</text>
</g>
<!-- anon_6_49_0&#45;&gt;49 -->
<g id="edge52" class="edge"><title>anon_6_49_0&#45;&gt;49</title>
<path fill="none" stroke="black" d="M35.5888,40.276C40.4136,44.1146 62.8787,61.9884 69.7813,67.4803"/>
</g>
<!-- anon_14_20_1 -->
<g id="node69" class="node"><title>anon_14_20_1</title>
<ellipse fill="white" stroke="black" cx="7.81935" cy="190.486" rx="1" ry="1"/>
</g>
<!-- anon_14_20_0&#45;&gt;anon_14_20_1 -->
<g id="edge62" class="edge"><title>anon_14_20_0&#45;&gt;anon_14_20_1</title>
<path fill="none" stroke="black" d="M19.3853,145.94C18.0257,151.176 12.2797,173.307 9.43227,184.274"/>
<polygon fill="black" stroke="black" points="11.0963,184.829 8.1458,189.228 7.70858,183.949 11.0963,184.829"/>
<text text-anchor="middle" x="-2.24452" y="165.023" font-family="monospace" font-size="8.00">L1366F</text>
</g>
<!-- anon_14_20_1&#45;&gt;20 -->
<g id="edge63" class="edge"><title>anon_14_20_1&#45;&gt;20</title>
<path fill="none" stroke="black" d="M7.11717,191.404C3.97418,195.515 -8.95458,212.424 -15.9843,221.618"/>
<polygon fill="black" stroke="black" points="-14.6123,222.705 -19.0396,225.614 -17.3928,220.579 -14.6123,222.705"/>
<text text-anchor="middle" x="-21.9809" y="205.935" font-family="monospace" font-size="8.00">V1853I</text>
</g>
<!-- anon_15_23_1 -->
<g id="node71" class="node"><title>anon_15_23_1</title>
<ellipse fill="white" stroke="black" cx="115.385" cy="239.259" rx="1" ry="1"/>
</g>
<!-- anon_15_23_0&#45;&gt;anon_15_23_1 -->
<g id="edge65" class="edge"><title>anon_15_23_0&#45;&gt;anon_15_23_1</title>
<path fill="none" stroke="black" d="M95.9349,202.253C98.1603,206.487 107.373,224.015 112.279,233.348"/>
<polygon fill="black" stroke="black" points="113.898,232.668 114.675,237.908 110.8,234.297 113.898,232.668"/>
<text text-anchor="middle" x="91.7315" y="217.341" font-family="monospace" font-size="8.00">Q545L</text>
</g>
<!-- anon_15_23_1&#45;&gt;23 -->
<g id="edge66" class="edge"><title>anon_15_23_1&#45;&gt;23</title>
<path fill="none" stroke="black" d="M115.984,240.114C119.076,244.526 133.259,264.768 138.044,271.596"/>
</g>
<!-- anon_5_37_0&#45;&gt;37 -->
<g id="edge72" class="edge"><title>anon_5_37_0&#45;&gt;37</title>
<path fill="none" stroke="black" stroke-dasharray="5,2" d="M-184.734,-35.0193C-186.785,-38.9795 -194.988,-54.8193 -199.843,-64.1934"/>
<polygon fill="black" stroke="black" points="-201.497,-63.5821 -202.242,-68.8268 -198.389,-65.1917 -201.497,-63.5821"/>
<text text-anchor="middle" x="-209.469" y="-54.4873" font-family="monospace" font-size="8.00">A1934V</text>
</g>
<!-- anon_20_31_1&#45;&gt;anon_20_31_0 -->
<g id="edge75" class="edge"><title>anon_20_31_1&#45;&gt;anon_20_31_0</title>
<path fill="none" stroke="black" stroke-dasharray="5,2" d="M-55.0301,157.629C-55.0237,162.722 -54.997,184.093 -54.9833,194.96"/>
<polygon fill="black" stroke="black" points="-53.2332,195.127 -54.9769,200.13 -56.7332,195.132 -53.2332,195.127"/>
<text text-anchor="middle" x="-68.5033" y="176.414" font-family="monospace" font-size="8.00">T791M</text>
</g>
</g>
</svg>
