<?xml version="1.0" encoding="UTF-8" standalone="no"?>
<!DOCTYPE svg PUBLIC "-//W3C//DTD SVG 1.1//EN"
 "http://www.w3.org/Graphics/SVG/1.1/DTD/svg11.dtd">
<!-- Generated by graphviz version 2.38.0 (20140413.2041)
 -->
<!-- Title: %3 Pages: 1 -->
<svg width="196pt" height="131pt"
 viewBox="0.00 0.00 196.08 131.07" xmlns="http://www.w3.org/2000/svg" xmlns:xlink="http://www.w3.org/1999/xlink">
<g id="graph0" class="graph" transform="scale(1 1) rotate(0) translate(108.115 67.4516)">
<title>%3</title>
<polygon fill="white" stroke="none" points="-108.115,63.6181 -108.115,-67.4516 87.969,-67.4516 87.969,63.6181 -108.115,63.6181"/>
<!-- 0 -->
<g id="node1" class="node"><title>0</title>
<ellipse fill="#1874cd" stroke="black" cx="-94.1148" cy="13.8032" rx="10" ry="10"/>
</g>
<!-- 6 -->
<g id="node7" class="node"><title>6</title>
<ellipse fill="#1874cd" stroke="black" cx="-35.4417" cy="5.39963" rx="6" ry="6"/>
</g>
<!-- 0&#45;&gt;6 -->
<g id="edge1" class="edge"><title>0&#45;&gt;6</title>
<path fill="none" stroke="black" d="M-84.1617,12.3777C-71.9993,10.6357 -51.7914,7.74136 -41.6496,6.28877"/>
</g>
<!-- 1 -->
<g id="node2" class="node"><title>1</title>
<ellipse fill="#1874cd" stroke="black" cx="28.1498" cy="-3.31326" rx="12" ry="12"/>
</g>
<!-- 3 -->
<g id="node4" class="node"><title>3</title>
<ellipse fill="#1874cd" stroke="black" cx="16.3782" cy="54.2137" rx="3.5" ry="3.5"/>
</g>
<!-- 1&#45;&gt;3 -->
<g id="edge2" class="edge"><title>1&#45;&gt;3</title>
<path fill="none" stroke="black" d="M25.7107,8.60636C23.017,21.7704 18.8361,42.2022 17.1358,50.5111"/>
</g>
<!-- 4 -->
<g id="node5" class="node"><title>4</title>
<ellipse fill="#1874cd" stroke="black" cx="76.4748" cy="-44.0461" rx="7" ry="7"/>
</g>
<!-- 1&#45;&gt;4 -->
<g id="edge3" class="edge"><title>1&#45;&gt;4</title>
<path fill="none" stroke="black" d="M37.4674,-11.167C46.0469,-18.3986 58.7034,-29.0667 67.2526,-36.2727"/>
<polygon fill="black" stroke="black" points="66.1327,-37.6175 71.0837,-39.5019 68.3884,-34.9413 66.1327,-37.6175"/>
<text text-anchor="middle" x="36.36" y="-26.3198" font-family="monospace" font-size="8.00">V1681I</text>
</g>
<!-- 5 -->
<g id="node6" class="node"><title>5</title>
<ellipse fill="#1874cd" stroke="black" cx="2.61376" cy="-58.4516" rx="5" ry="5"/>
</g>
<!-- 1&#45;&gt;5 -->
<g id="edge4" class="edge"><title>1&#45;&gt;5</title>
<path fill="none" stroke="black" d="M23.1047,-14.2068C18.3953,-24.3755 11.4406,-39.3923 6.96821,-49.0493"/>
<polygon fill="black" stroke="black" points="5.28226,-48.5255 4.76894,-53.7981 8.4582,-49.9964 5.28226,-48.5255"/>
<text text-anchor="middle" x="-0.963534" y="-34.2281" font-family="monospace" font-size="8.00">S2076T</text>
</g>
<!-- 1&#45;&gt;6 -->
<g id="edge5" class="edge"><title>1&#45;&gt;6</title>
<path fill="none" stroke="black" d="M16.1887,-1.67443C2.6609,0.179065 -18.8426,3.12533 -29.3118,4.55975"/>
</g>
<!-- 7 -->
<g id="node8" class="node"><title>7</title>
<ellipse fill="#1874cd" stroke="black" cx="80.469" cy="23.0043" rx="3.5" ry="3.5"/>
</g>
<!-- 1&#45;&gt;7 -->
<g id="edge6" class="edge"><title>1&#45;&gt;7</title>
<path fill="none" stroke="black" d="M38.9904,2.13975C48.9985,7.17403 63.6255,14.5317 72.5698,19.0308"/>
<polygon fill="black" stroke="black" points="73.4213,17.5001 77.1016,21.3104 71.8484,20.6269 73.4213,17.5001"/>
<text text-anchor="middle" x="39.7801" y="16.9853" font-family="monospace" font-size="8.00">L1617F</text>
</g>
<!-- 2 -->
<g id="node3" class="node"><title>2</title>
<ellipse fill="#1874cd" stroke="black" cx="-29.422" cy="56.1181" rx="3.5" ry="3.5"/>
</g>
<!-- 2&#45;&gt;3 -->
<g id="edge7" class="edge"><title>2&#45;&gt;3</title>
<path fill="none" stroke="black" d="M-25.8281,55.9687C-17.3086,55.6144 4.0445,54.7266 12.6738,54.3677"/>
</g>
<!-- 2&#45;&gt;6 -->
<g id="edge9" class="edge"><title>2&#45;&gt;6</title>
<path fill="none" stroke="black" stroke-dasharray="5,2" d="M-29.8549,52.4706C-30.8793,43.8395 -33.4605,22.0915 -34.7234,11.4514"/>
</g>
<!-- 8 -->
<g id="node9" class="node"><title>8</title>
<ellipse fill="#1874cd" stroke="black" cx="-45.1071" cy="-46.728" rx="5" ry="5"/>
</g>
<!-- 5&#45;&gt;8 -->
<g id="edge8" class="edge"><title>5&#45;&gt;8</title>
<path fill="none" stroke="black" d="M-2.49321,-57.197C-11.7262,-54.9287 -31.08,-50.174 -40.1799,-47.9385"/>
</g>
<!-- 6&#45;&gt;8 -->
<g id="edge10" class="edge"><title>6&#45;&gt;8</title>
<path fill="none" stroke="black" stroke-dasharray="5,2" d="M-36.5504,-0.580073C-38.1888,-9.41602 -41.276,-26.0659 -43.2598,-36.765"/>
<polygon fill="black" stroke="black" points="-44.9921,-36.5093 -44.1831,-41.7446 -41.5508,-37.1474 -44.9921,-36.5093"/>
<text text-anchor="middle" x="-55.9051" y="-21.2725" font-family="monospace" font-size="8.00">S2076T</text>
</g>
</g>
</svg>
