<?xml version="1.0" encoding="UTF-8" standalone="no"?>
<!DOCTYPE svg PUBLIC "-//W3C//DTD SVG 1.1//EN"
 "http://www.w3.org/Graphics/SVG/1.1/DTD/svg11.dtd">
<!-- Generated by graphviz version 2.38.0 (20140413.2041)
 -->
<!-- Title: %3 Pages: 1 -->
<svg width="720pt" height="883pt"
 viewBox="0.00 0.00 719.58 883.01" xmlns="http://www.w3.org/2000/svg" xmlns:xlink="http://www.w3.org/1999/xlink">
<g id="graph0" class="graph" transform="scale(1 1) rotate(0) translate(244.346 578.922)">
<title>%3</title>
<polygon fill="white" stroke="none" points="-244.346,304.089 -244.346,-578.922 475.235,-578.922 475.235,304.089 -244.346,304.089"/>
<!-- 0 -->
<g id="node1" class="node"><title>0</title>
<ellipse fill="palegreen" stroke="black" cx="-113.489" cy="-344.849" rx="33" ry="33"/>
</g>
<!-- 1 -->
<g id="node2" class="node"><title>1</title>
<ellipse fill="palegreen" stroke="black" cx="-37.6217" cy="-368.456" rx="3.5" ry="3.5"/>
</g>
<!-- 0&#45;&gt;1 -->
<g id="edge1" class="edge"><title>0&#45;&gt;1</title>
<path fill="none" stroke="black" d="M-81.7541,-354.724C-65.8371,-359.677 -48.4234,-365.095 -41.1351,-367.363"/>
</g>
<!-- 3 -->
<g id="node4" class="node"><title>3</title>
<ellipse fill="palegreen" stroke="black" cx="-117.358" cy="-286.914" rx="3.5" ry="3.5"/>
</g>
<!-- 0&#45;&gt;3 -->
<g id="edge2" class="edge"><title>0&#45;&gt;3</title>
<path fill="none" stroke="black" d="M-115.695,-311.82C-116.265,-303.282 -116.803,-295.224 -117.105,-290.693"/>
</g>
<!-- 5 -->
<g id="node6" class="node"><title>5</title>
<ellipse fill="palegreen" stroke="black" cx="-159.429" cy="-389.159" rx="3.5" ry="3.5"/>
</g>
<!-- 0&#45;&gt;5 -->
<g id="edge3" class="edge"><title>0&#45;&gt;5</title>
<path fill="none" stroke="black" d="M-137.267,-367.783C-145.148,-375.385 -152.903,-382.864 -156.813,-386.635"/>
</g>
<!-- 7 -->
<g id="node8" class="node"><title>7</title>
<ellipse fill="palegreen" stroke="black" cx="-201.195" cy="-383.579" rx="5" ry="5"/>
</g>
<!-- 0&#45;&gt;7 -->
<g id="edge6" class="edge"><title>0&#45;&gt;7</title>
<path fill="none" stroke="black" d="M-144.164,-358.395C-163.528,-366.946 -186.671,-377.165 -196.456,-381.486"/>
</g>
<!-- 9 -->
<g id="node10" class="node"><title>9</title>
<ellipse fill="palegreen" stroke="black" cx="-129.788" cy="-240.062" rx="9" ry="9"/>
</g>
<!-- 0&#45;&gt;9 -->
<g id="edge7" class="edge"><title>0&#45;&gt;9</title>
<path fill="none" stroke="black" d="M-118.602,-311.982C-122,-290.134 -126.22,-263.001 -128.376,-249.14"/>
</g>
<!-- 10 -->
<g id="node11" class="node"><title>10</title>
<ellipse fill="palegreen" stroke="black" cx="-189.445" cy="-314.06" rx="3.5" ry="3.5"/>
</g>
<!-- 0&#45;&gt;10 -->
<g id="edge8" class="edge"><title>0&#45;&gt;10</title>
<path fill="none" stroke="black" d="M-144.383,-332.326C-160.484,-325.8 -178.345,-318.56 -185.833,-315.524"/>
</g>
<!-- 11 -->
<g id="node12" class="node"><title>11</title>
<ellipse fill="palegreen" stroke="black" cx="-66.3511" cy="-264.714" rx="3.5" ry="3.5"/>
</g>
<!-- 0&#45;&gt;11 -->
<g id="edge9" class="edge"><title>0&#45;&gt;11</title>
<path fill="none" stroke="black" d="M-96.7373,-316.371C-85.9406,-298.016 -73.0556,-276.112 -68.2665,-267.97"/>
</g>
<!-- 12 -->
<g id="node13" class="node"><title>12</title>
<ellipse fill="palegreen" stroke="black" cx="-174.951" cy="-265.976" rx="5" ry="5"/>
</g>
<!-- 0&#45;&gt;12 -->
<g id="edge10" class="edge"><title>0&#45;&gt;12</title>
<path fill="none" stroke="black" d="M-133.955,-318.585C-147.784,-300.839 -164.746,-279.073 -171.721,-270.121"/>
</g>
<!-- 14 -->
<g id="node15" class="node"><title>14</title>
<ellipse fill="palegreen" stroke="black" cx="-206.5" cy="-344.348" rx="3.5" ry="3.5"/>
</g>
<!-- 0&#45;&gt;14 -->
<g id="edge11" class="edge"><title>0&#45;&gt;14</title>
<path fill="none" stroke="black" d="M-146.543,-344.671C-168.056,-344.555 -193.77,-344.417 -202.993,-344.367"/>
</g>
<!-- 18 -->
<g id="node19" class="node"><title>18</title>
<ellipse fill="palegreen" stroke="black" cx="-43.0099" cy="-406.029" rx="3.5" ry="3.5"/>
</g>
<!-- 0&#45;&gt;18 -->
<g id="edge16" class="edge"><title>0&#45;&gt;18</title>
<path fill="none" stroke="black" d="M-88.4424,-366.591C-72.2995,-380.604 -53.0343,-397.327 -45.8738,-403.543"/>
</g>
<!-- 20 -->
<g id="node21" class="node"><title>20</title>
<ellipse fill="palegreen" stroke="black" cx="-83.501" cy="-407.726" rx="3.5" ry="3.5"/>
</g>
<!-- 0&#45;&gt;20 -->
<g id="edge17" class="edge"><title>0&#45;&gt;20</title>
<path fill="none" stroke="black" d="M-99.1977,-374.814C-93.5255,-386.707 -87.719,-398.882 -85.0345,-404.511"/>
</g>
<!-- 22 -->
<g id="node23" class="node"><title>22</title>
<ellipse fill="palegreen" stroke="black" cx="-55.4021" cy="-303.6" rx="3.5" ry="3.5"/>
</g>
<!-- 0&#45;&gt;22 -->
<g id="edge18" class="edge"><title>0&#45;&gt;22</title>
<path fill="none" stroke="black" d="M-86.4863,-325.674C-75.3465,-317.763 -63.8044,-309.567 -58.4586,-305.771"/>
</g>
<!-- anon_0_6_0 -->
<g id="node63" class="node"><title>anon_0_6_0</title>
<ellipse fill="white" stroke="black" cx="-14.863" cy="-324.673" rx="2.5" ry="2.5"/>
</g>
<!-- 0&#45;&gt;anon_0_6_0 -->
<g id="edge4" class="edge"><title>0&#45;&gt;anon_0_6_0</title>
<path fill="none" stroke="black" d="M-80.9219,-338.187C-56.683,-333.228 -26.319,-327.017 -17.422,-325.197"/>
</g>
<!-- anon_0_15_0 -->
<g id="node64" class="node"><title>anon_0_15_0</title>
<ellipse fill="white" stroke="black" cx="-131.682" cy="-441.107" rx="2.5" ry="2.5"/>
</g>
<!-- 0&#45;&gt;anon_0_15_0 -->
<g id="edge12" class="edge"><title>0&#45;&gt;anon_0_15_0</title>
<path fill="none" stroke="black" d="M-119.648,-377.438C-124.019,-400.563 -129.403,-429.051 -131.125,-438.161"/>
</g>
<!-- 2 -->
<g id="node3" class="node"><title>2</title>
<path fill="#787878" stroke="black" stroke-width="0.5" d="M310.817,-370.015C310.817,-370.015 351.817,-370.015 351.817,-370.015 351.817,-371.047 351.778,-372.079 351.7,-373.108 351.623,-374.137 351.506,-375.163 351.351,-376.184 351.195,-377.204 351.001,-378.218 350.77,-379.224 350.538,-380.23 350.268,-381.227 349.961,-382.212 349.654,-383.198 349.31,-384.171 348.929,-385.131 348.548,-386.09 348.132,-387.035 347.68,-387.963 347.228,-388.891 346.741,-389.802 346.221,-390.693 345.7,-391.584 345.146,-392.456 344.56,-393.305 343.973,-394.155 343.355,-394.982 342.706,-395.785 342.058,-396.587 341.379,-397.365 340.671,-398.117 339.964,-398.869 339.228,-399.593 338.466,-400.289 337.704,-400.985 336.915,-401.652 336.103,-402.289 335.29,-402.926 334.454,-403.531 333.596,-404.105 332.737,-404.678 331.858,-405.219 330.959,-405.726 330.06,-406.233 329.142,-406.706 328.207,-407.144 327.272,-407.582 326.321,-407.984 325.356,-408.35 324.391,-408.716 323.412,-409.046 322.422,-409.338 321.432,-409.63 320.432,-409.885 319.422,-410.101 318.413,-410.318 317.396,-410.496 316.374,-410.636 315.351,-410.776 314.323,-410.877 313.293,-410.94 312.263,-411.002 311.23,-411.025 310.198,-411.01 309.166,-410.994 308.135,-410.94 307.107,-410.846 306.079,-410.753 305.055,-410.621 304.037,-410.45 303.019,-410.279 302.008,-410.07 301.005,-409.823 300.003,-409.576 299.011,-409.291 298.03,-408.969 297.049,-408.647 296.081,-408.289 295.127,-407.894 294.174,-407.499 293.235,-407.068 292.314,-406.602 291.393,-406.136 290.49,-405.636 289.606,-405.102 288.723,-404.568 287.86,-404 287.02,-403.401 286.179,-402.802 285.362,-402.171 284.569,-401.511 283.776,-400.85 283.008,-400.159 282.267,-399.44 281.526,-398.722 280.813,-397.975 280.128,-397.203 280.128,-397.203 310.817,-370.015 310.817,-370.015"/>
<path fill="palegreen" stroke="black" stroke-width="0.5" d="M310.817,-370.015C310.817,-370.015 280.128,-397.203 280.128,-397.203 279.033,-395.966 278.013,-394.665 277.075,-393.305 276.137,-391.946 275.281,-390.531 274.514,-389.068 273.746,-387.606 273.067,-386.098 272.482,-384.553 271.896,-383.009 271.404,-381.43 271.009,-379.826 270.613,-378.223 270.315,-376.596 270.116,-374.957 269.917,-373.317 269.817,-371.666 269.817,-370.015 269.817,-368.363 269.917,-366.712 270.116,-365.073 270.315,-363.433 270.613,-361.806 271.009,-360.203 271.404,-358.599 271.896,-357.02 272.482,-355.476 273.067,-353.931 273.746,-352.424 274.514,-350.961 275.281,-349.498 276.137,-348.083 277.075,-346.724 278.013,-345.364 279.033,-344.063 280.128,-342.827 281.224,-341.59 282.393,-340.421 283.629,-339.326 284.866,-338.23 286.167,-337.211 287.527,-336.272 288.886,-335.334 290.301,-334.478 291.764,-333.711 293.226,-332.943 294.734,-332.265 296.279,-331.679 297.823,-331.093 299.402,-330.601 301.005,-330.206 302.609,-329.811 304.236,-329.513 305.875,-329.313 307.515,-329.114 309.165,-329.015 310.817,-329.015 312.469,-329.015 314.12,-329.114 315.759,-329.313 317.399,-329.513 319.025,-329.811 320.629,-330.206 322.233,-330.601 323.812,-331.093 325.356,-331.679 326.901,-332.265 328.408,-332.943 329.871,-333.711 331.334,-334.478 332.749,-335.334 334.108,-336.272 335.467,-337.211 336.769,-338.23 338.005,-339.326 339.242,-340.421 340.411,-341.59 341.506,-342.827 342.602,-344.063 343.621,-345.364 344.56,-346.724 345.498,-348.083 346.353,-349.498 347.121,-350.961 347.889,-352.424 348.567,-353.931 349.153,-355.476 349.739,-357.02 350.231,-358.599 350.626,-360.203 351.021,-361.806 351.319,-363.433 351.518,-365.073 351.718,-366.712 351.817,-368.363 351.817,-370.015 351.817,-370.015 310.817,-370.015 310.817,-370.015"/>
<ellipse fill="none" stroke="black" cx="310.817" cy="-370.015" rx="41" ry="41"/>
</g>
<!-- 4 -->
<g id="node5" class="node"><title>4</title>
<ellipse fill="palegreen" stroke="black" cx="278.816" cy="-250.608" rx="13" ry="13"/>
</g>
<!-- 2&#45;&gt;4 -->
<g id="edge19" class="edge"><title>2&#45;&gt;4</title>
<path fill="none" stroke="black" d="M300.161,-330.254C293.907,-306.916 286.421,-278.985 282.182,-263.168"/>
</g>
<!-- 13 -->
<g id="node14" class="node"><title>13</title>
<ellipse fill="palegreen" stroke="black" cx="260.49" cy="-325.163" rx="3.5" ry="3.5"/>
</g>
<!-- 2&#45;&gt;13 -->
<g id="edge20" class="edge"><title>2&#45;&gt;13</title>
<path fill="none" stroke="black" d="M280.092,-342.632C273.216,-336.504 266.923,-330.896 263.409,-327.764"/>
</g>
<!-- 17 -->
<g id="node18" class="node"><title>17</title>
<ellipse fill="palegreen" stroke="black" cx="286.535" cy="-466.264" rx="3.5" ry="3.5"/>
</g>
<!-- 2&#45;&gt;17 -->
<g id="edge21" class="edge"><title>2&#45;&gt;17</title>
<path fill="none" stroke="black" d="M300.73,-409.997C295.414,-431.07 289.556,-454.288 287.396,-462.851"/>
</g>
<!-- 19 -->
<g id="node20" class="node"><title>19</title>
<ellipse fill="palegreen" stroke="black" cx="243.841" cy="-442.868" rx="3.5" ry="3.5"/>
</g>
<!-- 2&#45;&gt;19 -->
<g id="edge22" class="edge"><title>2&#45;&gt;19</title>
<path fill="none" stroke="black" d="M282.802,-400.489C268.463,-416.085 252.749,-433.178 246.56,-439.91"/>
</g>
<!-- 23 -->
<g id="node24" class="node"><title>23</title>
<ellipse fill="#787878" stroke="black" cx="410.744" cy="-440.679" rx="11.5" ry="11.5"/>
</g>
<!-- 2&#45;&gt;23 -->
<g id="edge23" class="edge"><title>2&#45;&gt;23</title>
<path fill="none" stroke="black" d="M344.37,-393.741C364.327,-407.855 388.216,-424.747 401.197,-433.927"/>
</g>
<!-- 24 -->
<g id="node25" class="node"><title>24</title>
<ellipse fill="#787878" stroke="black" cx="213.716" cy="-355.735" rx="3.5" ry="3.5"/>
</g>
<!-- 2&#45;&gt;24 -->
<g id="edge24" class="edge"><title>2&#45;&gt;24</title>
<path fill="none" stroke="black" d="M270.2,-364.041C249.205,-360.954 226.175,-357.567 217.393,-356.275"/>
</g>
<!-- 27 -->
<g id="node28" class="node"><title>27</title>
<ellipse fill="#787878" stroke="black" cx="217.153" cy="-404.012" rx="3.5" ry="3.5"/>
</g>
<!-- 2&#45;&gt;27 -->
<g id="edge27" class="edge"><title>2&#45;&gt;27</title>
<path fill="none" stroke="black" d="M272.18,-384.039C251.62,-391.502 228.885,-399.754 220.497,-402.799"/>
</g>
<!-- 28 -->
<g id="node29" class="node"><title>28</title>
<ellipse fill="#787878" stroke="black" cx="381.02" cy="-362.101" rx="3.5" ry="3.5"/>
</g>
<!-- 2&#45;&gt;28 -->
<g id="edge28" class="edge"><title>2&#45;&gt;28</title>
<path fill="none" stroke="black" d="M351.654,-365.411C362.272,-364.215 372.17,-363.099 377.32,-362.518"/>
</g>
<!-- 29 -->
<g id="node30" class="node"><title>29</title>
<ellipse fill="#787878" stroke="black" cx="331.7" cy="-444.083" rx="3.5" ry="3.5"/>
</g>
<!-- 2&#45;&gt;29 -->
<g id="edge29" class="edge"><title>2&#45;&gt;29</title>
<path fill="none" stroke="black" d="M321.992,-409.651C325.561,-422.308 329.014,-434.558 330.675,-440.447"/>
</g>
<!-- anon_2_25_0 -->
<g id="node67" class="node"><title>anon_2_25_0</title>
<ellipse fill="white" stroke="black" cx="390.231" cy="-307.063" rx="2.5" ry="2.5"/>
</g>
<!-- 2&#45;&gt;anon_2_25_0 -->
<g id="edge25" class="edge"><title>2&#45;&gt;anon_2_25_0</title>
<path fill="none" stroke="black" d="M343.118,-344.41C361.325,-329.977 381.686,-313.837 388.147,-308.715"/>
</g>
<!-- 21 -->
<g id="node22" class="node"><title>21</title>
<ellipse fill="palegreen" stroke="black" cx="221.67" cy="-229.436" rx="3.5" ry="3.5"/>
</g>
<!-- 4&#45;&gt;21 -->
<g id="edge32" class="edge"><title>4&#45;&gt;21</title>
<path fill="none" stroke="black" d="M266.416,-246.014C253.285,-241.149 233.36,-233.767 225.271,-230.77"/>
</g>
<!-- anon_4_16_0 -->
<g id="node68" class="node"><title>anon_4_16_0</title>
<ellipse fill="white" stroke="black" cx="298.075" cy="-196.566" rx="2.5" ry="2.5"/>
</g>
<!-- 4&#45;&gt;anon_4_16_0 -->
<g id="edge30" class="edge"><title>4&#45;&gt;anon_4_16_0</title>
<path fill="none" stroke="black" d="M283.186,-238.345C287.803,-225.39 294.747,-205.906 297.188,-199.055"/>
</g>
<!-- 6 -->
<g id="node7" class="node"><title>6</title>
<ellipse fill="palegreen" stroke="black" cx="30.5979" cy="-315.159" rx="3.5" ry="3.5"/>
</g>
<!-- 8 -->
<g id="node9" class="node"><title>8</title>
<ellipse fill="palegreen" stroke="black" cx="-176.47" cy="-214.796" rx="5" ry="5"/>
</g>
<!-- 8&#45;&gt;9 -->
<g id="edge33" class="edge"><title>8&#45;&gt;9</title>
<path fill="none" stroke="black" d="M-171.824,-217.311C-163.89,-221.605 -147.642,-230.399 -137.833,-235.708"/>
</g>
<!-- 8&#45;&gt;12 -->
<g id="edge78" class="edge"><title>8&#45;&gt;12</title>
<path fill="none" stroke="black" stroke-dasharray="5,2" d="M-176.319,-219.891C-176.028,-229.701 -175.393,-251.108 -175.102,-260.902"/>
</g>
<!-- 15 -->
<g id="node16" class="node"><title>15</title>
<ellipse fill="palegreen" stroke="black" cx="-142.465" cy="-571.422" rx="3.5" ry="3.5"/>
</g>
<!-- 16 -->
<g id="node17" class="node"><title>16</title>
<ellipse fill="palegreen" stroke="black" cx="308.715" cy="-153.69" rx="3.5" ry="3.5"/>
</g>
<!-- 26 -->
<g id="node27" class="node"><title>26</title>
<ellipse fill="#787878" stroke="black" cx="467.735" cy="-435.969" rx="3.5" ry="3.5"/>
</g>
<!-- 23&#45;&gt;26 -->
<g id="edge34" class="edge"><title>23&#45;&gt;26</title>
<path fill="none" stroke="black" d="M422.277,-439.725C435.287,-438.65 455.714,-436.962 464.029,-436.275"/>
</g>
<!-- 30 -->
<g id="node31" class="node"><title>30</title>
<ellipse fill="#787878" stroke="black" cx="421.66" cy="-497.084" rx="3.5" ry="3.5"/>
</g>
<!-- 23&#45;&gt;30 -->
<g id="edge35" class="edge"><title>23&#45;&gt;30</title>
<path fill="none" stroke="black" d="M412.953,-452.093C415.445,-464.969 419.358,-485.187 420.95,-493.415"/>
</g>
<!-- 25 -->
<g id="node26" class="node"><title>25</title>
<ellipse fill="#787878" stroke="black" cx="431.081" cy="-285.665" rx="3.5" ry="3.5"/>
</g>
<!-- 31 -->
<g id="node32" class="node"><title>31</title>
<ellipse fill="#1874cd" stroke="black" cx="-212.125" cy="95.5738" rx="18.5" ry="18.5"/>
</g>
<!-- 44 -->
<g id="node45" class="node"><title>44</title>
<ellipse fill="#1874cd" stroke="black" cx="-145.206" cy="147.674" rx="6" ry="6"/>
</g>
<!-- 31&#45;&gt;44 -->
<g id="edge44" class="edge"><title>31&#45;&gt;44</title>
<path fill="none" stroke="black" d="M-197.273,107.137C-182.179,118.888 -159.677,136.408 -149.958,143.974"/>
</g>
<!-- anon_31_37_0 -->
<g id="node69" class="node"><title>anon_31_37_0</title>
<ellipse fill="white" stroke="black" cx="-227.07" cy="20.2186" rx="2.5" ry="2.5"/>
</g>
<!-- 31&#45;&gt;anon_31_37_0 -->
<g id="edge36" class="edge"><title>31&#45;&gt;anon_31_37_0</title>
<path fill="none" stroke="black" d="M-215.743,77.3324C-219.406,58.8639 -224.77,31.8157 -226.506,23.0635"/>
</g>
<!-- anon_31_45_0 -->
<g id="node76" class="node"><title>anon_31_45_0</title>
<ellipse fill="white" stroke="black" cx="-237.846" cy="155.049" rx="2.5" ry="2.5"/>
</g>
<!-- 31&#45;&gt;anon_31_45_0 -->
<g id="edge45" class="edge"><title>31&#45;&gt;anon_31_45_0</title>
<path fill="none" stroke="black" d="M-219.565,112.776C-225.737,127.048 -233.948,146.035 -236.81,152.653"/>
</g>
<!-- 32 -->
<g id="node33" class="node"><title>32</title>
<ellipse fill="#1874cd" stroke="black" cx="-106.586" cy="296.589" rx="3.5" ry="3.5"/>
</g>
<!-- anon_32_33_0 -->
<g id="node77" class="node"><title>anon_32_33_0</title>
<ellipse fill="white" stroke="black" cx="-102.498" cy="251.263" rx="2.5" ry="2.5"/>
</g>
<!-- 32&#45;&gt;anon_32_33_0 -->
<g id="edge47" class="edge"><title>32&#45;&gt;anon_32_33_0</title>
<path fill="none" stroke="black" d="M-106.266,293.032C-105.467,284.183 -103.407,261.346 -102.723,253.756"/>
</g>
<!-- 33 -->
<g id="node34" class="node"><title>33</title>
<ellipse fill="#1874cd" stroke="black" cx="-104.253" cy="196.995" rx="9" ry="9"/>
</g>
<!-- 33&#45;&gt;44 -->
<g id="edge49" class="edge"><title>33&#45;&gt;44</title>
<path fill="none" stroke="black" d="M-110.295,189.718C-118.839,179.428 -134.204,160.923 -141.353,152.314"/>
</g>
<!-- anon_33_34_0 -->
<g id="node85" class="node"><title>anon_33_34_0</title>
<ellipse fill="white" stroke="black" cx="-40.8284" cy="193.944" rx="2.5" ry="2.5"/>
</g>
<!-- 33&#45;&gt;anon_33_34_0 -->
<g id="edge79" class="edge"><title>33&#45;&gt;anon_33_34_0</title>
<path fill="none" stroke="black" stroke-dasharray="5,2" d="M-95.1654,196.558C-80.6423,195.859 -52.9093,194.525 -43.8051,194.087"/>
</g>
<!-- anon_33_45_0 -->
<g id="node92" class="node"><title>anon_33_45_0</title>
<ellipse fill="white" stroke="black" cx="-160.473" cy="213.145" rx="2.5" ry="2.5"/>
</g>
<!-- 33&#45;&gt;anon_33_45_0 -->
<g id="edge87" class="edge"><title>33&#45;&gt;anon_33_45_0</title>
<path fill="none" stroke="black" stroke-dasharray="5,2" d="M-113.037,199.519C-126.131,203.28 -150.069,210.157 -157.911,212.409"/>
</g>
<!-- 34 -->
<g id="node35" class="node"><title>34</title>
<ellipse fill="#1874cd" stroke="black" cx="133.536" cy="-94.8579" rx="10" ry="10"/>
</g>
<!-- 46 -->
<g id="node47" class="node"><title>46</title>
<ellipse fill="#1874cd" stroke="black" cx="64.7182" cy="-111.236" rx="6" ry="6"/>
</g>
<!-- 34&#45;&gt;46 -->
<g id="edge52" class="edge"><title>34&#45;&gt;46</title>
<path fill="none" stroke="black" d="M123.676,-97.2045C109.256,-100.636 82.8331,-106.925 70.8802,-109.769"/>
</g>
<!-- anon_34_36_0 -->
<g id="node78" class="node"><title>anon_34_36_0</title>
<ellipse fill="white" stroke="black" cx="142.554" cy="-148.193" rx="2.5" ry="2.5"/>
</g>
<!-- 34&#45;&gt;anon_34_36_0 -->
<g id="edge50" class="edge"><title>34&#45;&gt;anon_34_36_0</title>
<path fill="none" stroke="black" d="M135.275,-105.141C137.404,-117.734 140.879,-138.284 142.107,-145.548"/>
</g>
<!-- anon_34_48_0 -->
<g id="node79" class="node"><title>anon_34_48_0</title>
<ellipse fill="white" stroke="black" cx="185.306" cy="-133.878" rx="2.5" ry="2.5"/>
</g>
<!-- 34&#45;&gt;anon_34_48_0 -->
<g id="edge53" class="edge"><title>34&#45;&gt;anon_34_48_0</title>
<path fill="none" stroke="black" d="M141.625,-100.955C153.683,-110.043 175.726,-126.657 182.947,-132.1"/>
</g>
<!-- anon_34_50_0 -->
<g id="node81" class="node"><title>anon_34_50_0</title>
<ellipse fill="white" stroke="black" cx="188.385" cy="-82.8578" rx="2.5" ry="2.5"/>
</g>
<!-- 34&#45;&gt;anon_34_50_0 -->
<g id="edge56" class="edge"><title>34&#45;&gt;anon_34_50_0</title>
<path fill="none" stroke="black" d="M143.342,-92.7125C156.16,-89.908 177.884,-85.1552 185.58,-83.4714"/>
</g>
<!-- 35 -->
<g id="node36" class="node"><title>35</title>
<ellipse fill="#1874cd" stroke="black" cx="36" cy="24" rx="6" ry="6"/>
</g>
<!-- 36 -->
<g id="node37" class="node"><title>36</title>
<ellipse fill="#1874cd" stroke="black" cx="127.317" cy="-198.27" rx="3.5" ry="3.5"/>
</g>
<!-- anon_36_37_0 -->
<g id="node93" class="node"><title>anon_36_37_0</title>
<ellipse fill="white" stroke="black" cx="77.547" cy="-205.519" rx="2.5" ry="2.5"/>
</g>
<!-- 36&#45;&gt;anon_36_37_0 -->
<g id="edge89" class="edge"><title>36&#45;&gt;anon_36_37_0</title>
<path fill="none" stroke="black" stroke-dasharray="5,2" d="M123.738,-198.792C114.287,-200.168 88.812,-203.878 80.334,-205.113"/>
</g>
<!-- anon_36_48_0 -->
<g id="node94" class="node"><title>anon_36_48_0</title>
<ellipse fill="white" stroke="black" cx="152.069" cy="-247.176" rx="2.5" ry="2.5"/>
</g>
<!-- 36&#45;&gt;anon_36_48_0 -->
<g id="edge91" class="edge"><title>36&#45;&gt;anon_36_48_0</title>
<path fill="none" stroke="black" stroke-dasharray="5,2" d="M128.941,-201.479C133.587,-210.659 146.858,-236.88 150.892,-244.85"/>
</g>
<!-- 37 -->
<g id="node38" class="node"><title>37</title>
<ellipse fill="#1874cd" stroke="black" cx="32.9392" cy="-183.762" rx="12" ry="12"/>
</g>
<!-- 41 -->
<g id="node42" class="node"><title>41</title>
<ellipse fill="#1874cd" stroke="black" cx="3.23001" cy="-161.432" rx="3.5" ry="3.5"/>
</g>
<!-- 37&#45;&gt;41 -->
<g id="edge58" class="edge"><title>37&#45;&gt;41</title>
<path fill="none" stroke="black" d="M23.2113,-176.45C17.2545,-171.973 10.044,-166.554 6.11919,-163.604"/>
</g>
<!-- 42 -->
<g id="node43" class="node"><title>42</title>
<ellipse fill="#1874cd" stroke="black" cx="10.3793" cy="-248.149" rx="7" ry="7"/>
</g>
<!-- 37&#45;&gt;42 -->
<g id="edge59" class="edge"><title>37&#45;&gt;42</title>
<path fill="none" stroke="black" d="M28.906,-195.273C24.1913,-208.729 16.5476,-230.545 12.7199,-241.469"/>
</g>
<!-- 43 -->
<g id="node44" class="node"><title>43</title>
<ellipse fill="#1874cd" stroke="black" cx="70.8352" cy="-152.303" rx="5" ry="5"/>
</g>
<!-- 37&#45;&gt;43 -->
<g id="edge60" class="edge"><title>37&#45;&gt;43</title>
<path fill="none" stroke="black" d="M42.502,-175.823C50.3955,-169.271 61.1963,-160.305 66.9136,-155.558"/>
</g>
<!-- 37&#45;&gt;46 -->
<g id="edge61" class="edge"><title>37&#45;&gt;46</title>
<path fill="none" stroke="black" d="M37.7658,-172.747C44.6417,-157.055 57.0045,-128.84 62.2535,-116.861"/>
</g>
<!-- 47 -->
<g id="node48" class="node"><title>47</title>
<ellipse fill="#1874cd" stroke="black" cx="-2.90862" cy="-224.928" rx="3.5" ry="3.5"/>
</g>
<!-- 37&#45;&gt;47 -->
<g id="edge62" class="edge"><title>37&#45;&gt;47</title>
<path fill="none" stroke="black" d="M24.9834,-192.898C16.8976,-202.183 4.8434,-216.026 -0.36285,-222.005"/>
</g>
<!-- anon_37_48_0 -->
<g id="node96" class="node"><title>anon_37_48_0</title>
<ellipse fill="white" stroke="black" cx="66.5119" cy="-238.689" rx="2.5" ry="2.5"/>
</g>
<!-- 37&#45;&gt;anon_37_48_0 -->
<g id="edge94" class="edge"><title>37&#45;&gt;anon_37_48_0</title>
<path fill="none" stroke="black" stroke-dasharray="5,2" d="M39.254,-194.093C47.3077,-207.27 60.7157,-229.206 65.0868,-236.357"/>
</g>
<!-- 38 -->
<g id="node39" class="node"><title>38</title>
<ellipse fill="#1874cd" stroke="black" cx="25.5917" cy="-121.555" rx="3.5" ry="3.5"/>
</g>
<!-- 38&#45;&gt;41 -->
<g id="edge63" class="edge"><title>38&#45;&gt;41</title>
<path fill="none" stroke="black" d="M23.8371,-124.684C19.7186,-132.028 9.45771,-150.326 5.16563,-157.98"/>
</g>
<!-- 38&#45;&gt;46 -->
<g id="edge97" class="edge"><title>38&#45;&gt;46</title>
<path fill="none" stroke="black" stroke-dasharray="5,2" d="M29.2025,-120.603C35.9374,-118.826 50.477,-114.992 58.7118,-112.82"/>
</g>
<!-- 39 -->
<g id="node40" class="node"><title>39</title>
<ellipse fill="#1874cd" stroke="black" cx="63" cy="-33" rx="3.5" ry="3.5"/>
</g>
<!-- 40 -->
<g id="node41" class="node"><title>40</title>
<path fill="#1874cd" stroke="black" stroke-width="0.5" d="M313.684,99.0149C313.684,99.0149 340.184,99.0149 340.184,99.0149 340.184,98.0055 340.126,96.9969 340.011,95.9941 339.896,94.9913 339.724,93.9959 339.495,93.0127 339.267,92.0296 338.982,91.0603 338.643,90.1096 338.304,89.1589 337.91,88.2284 337.465,87.3225 337.02,86.4167 336.523,85.5371 335.977,84.6879 335.431,83.8388 334.838,83.0215 334.199,82.2401 333.56,81.4587 332.877,80.7144 332.153,80.0109 331.429,79.3074 330.665,78.6459 329.866,78.0295 329.866,78.0295 313.684,99.0149 313.684,99.0149"/>
<path fill="olivedrab" stroke="black" stroke-width="0.5" d="M313.684,99.0149C313.684,99.0149 329.866,78.0295 329.866,78.0295 329.279,77.5769 328.673,77.1491 328.051,76.7473 327.428,76.3455 326.788,75.97 326.134,75.6217 325.48,75.2735 324.811,74.9529 324.13,74.6607 323.449,74.3685 322.756,74.1051 322.053,73.871 321.349,73.637 320.637,73.4325 319.916,73.2582 319.196,73.0839 318.468,72.9399 317.736,72.8265 317.003,72.7132 316.267,72.6306 315.527,72.5791 314.788,72.5275 314.047,72.507 313.305,72.5176 312.564,72.5282 311.824,72.5699 311.086,72.6425 310.349,72.7152 309.615,72.8187 308.886,72.9529 308.157,73.0871 307.434,73.2518 306.719,73.4467 306.004,73.6415 305.297,73.8662 304.601,74.1202 303.904,74.3743 303.219,74.6575 302.546,74.969 301.874,75.2805 301.215,75.62 300.571,75.9868 299.927,76.3536 299.298,76.7472 298.687,77.1666 298.076,77.5861 297.483,78.031 296.909,78.5002 296.335,78.9693 295.781,79.4624 295.249,79.978 294.717,80.4936 294.206,81.0313 293.719,81.5897 293.231,82.1481 292.768,82.7267 292.329,83.324 291.89,83.9213 291.476,84.5367 291.089,85.1687 290.702,85.8007 290.341,86.4486 290.008,87.1108 289.675,87.773 289.37,88.4488 289.094,89.1366 288.818,89.8243 288.57,90.5234 288.353,91.2319 288.135,91.9404 287.947,92.6577 287.789,93.3819 287.632,94.1062 287.505,94.8367 287.409,95.5716 287.312,96.3065 287.247,97.0451 287.212,97.7855 287.178,98.5259 287.175,99.2674 287.203,100.008 287.23,100.749 287.289,101.488 287.379,102.224 287.469,102.959 287.589,103.691 287.74,104.417 287.891,105.142 288.073,105.861 288.284,106.572 288.495,107.282 288.737,107.983 289.007,108.673 289.277,109.364 289.576,110.042 289.903,110.707 290.23,111.372 290.585,112.024 290.966,112.659 291.348,113.294 291.756,113.913 292.189,114.515 292.623,115.116 293.082,115.698 293.564,116.261 294.046,116.824 294.552,117.366 295.08,117.887 295.608,118.407 296.157,118.905 296.727,119.379 297.296,119.853 297.885,120.304 298.493,120.728 299.1,121.153 299.725,121.553 300.366,121.925 301.006,122.298 301.663,122.643 302.332,122.961 303.002,123.278 303.685,123.567 304.379,123.828 305.073,124.088 305.777,124.319 306.491,124.52 307.204,124.721 307.926,124.892 308.653,125.033 309.381,125.174 310.114,125.284 310.851,125.363 311.588,125.442 312.328,125.491 313.069,125.508 313.81,125.525 314.551,125.511 315.291,125.466 316.031,125.421 316.769,125.345 317.502,125.238 318.235,125.132 318.964,124.994 319.686,124.826 320.408,124.658 321.123,124.46 321.828,124.232 322.533,124.005 323.229,123.747 323.912,123.461 324.596,123.175 325.268,122.861 325.925,122.518 326.582,122.176 327.225,121.806 327.851,121.41 328.478,121.014 329.087,120.591 329.678,120.144 330.269,119.697 330.841,119.225 331.392,118.729 331.944,118.234 332.474,117.716 332.982,117.176 333.49,116.636 333.975,116.076 334.436,115.495 334.897,114.915 335.333,114.315 335.744,113.698 336.155,113.081 336.539,112.447 336.897,111.798 337.254,111.149 337.585,110.485 337.886,109.808 338.188,109.131 338.462,108.442 338.706,107.742 338.95,107.042 339.164,106.332 339.349,105.614 339.534,104.897 339.688,104.171 339.812,103.44 339.936,102.71 340.029,101.974 340.091,101.236 340.153,100.497 340.184,99.7561 340.184,99.0149 340.184,99.0149 313.684,99.0149 313.684,99.0149"/>
<ellipse fill="none" stroke="black" cx="313.684" cy="99.0149" rx="26.5" ry="26.5"/>
</g>
<!-- 52 -->
<g id="node53" class="node"><title>52</title>
<ellipse fill="olivedrab" stroke="black" cx="231.11" cy="124.983" rx="9" ry="9"/>
</g>
<!-- 40&#45;&gt;52 -->
<g id="edge64" class="edge"><title>40&#45;&gt;52</title>
<path fill="none" stroke="black" d="M288.01,107.089C271.534,112.27 251.169,118.675 239.813,122.246"/>
</g>
<!-- 55 -->
<g id="node56" class="node"><title>55</title>
<ellipse fill="olivedrab" stroke="black" cx="228.258" cy="61.9718" rx="11" ry="11"/>
</g>
<!-- 40&#45;&gt;55 -->
<g id="edge65" class="edge"><title>40&#45;&gt;55</title>
<path fill="none" stroke="black" d="M288.975,88.3005C272.221,81.0355 250.943,71.8089 238.538,66.4297"/>
</g>
<!-- 56 -->
<g id="node57" class="node"><title>56</title>
<ellipse fill="olivedrab" stroke="black" cx="282.999" cy="33.4991" rx="3.5" ry="3.5"/>
</g>
<!-- 40&#45;&gt;56 -->
<g id="edge66" class="edge"><title>40&#45;&gt;56</title>
<path fill="none" stroke="black" d="M302.432,74.9913C295.727,60.6755 287.898,43.9588 284.596,36.9093"/>
</g>
<!-- 57 -->
<g id="node58" class="node"><title>57</title>
<ellipse fill="olivedrab" stroke="black" cx="275" cy="164.647" rx="3.5" ry="3.5"/>
</g>
<!-- 40&#45;&gt;57 -->
<g id="edge67" class="edge"><title>40&#45;&gt;57</title>
<path fill="none" stroke="black" d="M300.154,121.97C291.439,136.756 280.988,154.487 276.833,161.536"/>
</g>
<!-- 58 -->
<g id="node59" class="node"><title>58</title>
<ellipse fill="olivedrab" stroke="black" cx="386.735" cy="105.2" rx="3.5" ry="3.5"/>
</g>
<!-- 40&#45;&gt;58 -->
<g id="edge68" class="edge"><title>40&#45;&gt;58</title>
<path fill="none" stroke="black" d="M340.471,101.283C356.433,102.634 375.072,104.212 382.933,104.878"/>
</g>
<!-- 60 -->
<g id="node61" class="node"><title>60</title>
<ellipse fill="olivedrab" stroke="black" cx="376.875" cy="149.664" rx="3.5" ry="3.5"/>
</g>
<!-- 40&#45;&gt;60 -->
<g id="edge73" class="edge"><title>40&#45;&gt;60</title>
<path fill="none" stroke="black" d="M334.375,115.599C348.773,127.139 366.614,141.439 373.73,147.143"/>
</g>
<!-- 61 -->
<g id="node62" class="node"><title>61</title>
<ellipse fill="olivedrab" stroke="black" cx="338.244" cy="174.9" rx="3.5" ry="3.5"/>
</g>
<!-- 40&#45;&gt;61 -->
<g id="edge74" class="edge"><title>40&#45;&gt;61</title>
<path fill="none" stroke="black" d="M321.862,124.283C327.444,141.53 334.303,162.722 337.037,171.169"/>
</g>
<!-- anon_40_59_0 -->
<g id="node82" class="node"><title>anon_40_59_0</title>
<ellipse fill="white" stroke="black" cx="357.067" cy="31.7487" rx="2.5" ry="2.5"/>
</g>
<!-- 40&#45;&gt;anon_40_59_0 -->
<g id="edge69" class="edge"><title>40&#45;&gt;anon_40_59_0</title>
<path fill="none" stroke="black" d="M328.13,76.6162C338.383,60.7174 351.078,41.0346 355.478,34.2125"/>
</g>
<!-- 49 -->
<g id="node50" class="node"><title>49</title>
<ellipse fill="#1874cd" stroke="black" cx="101.64" cy="-99.8868" rx="5" ry="5"/>
</g>
<!-- 43&#45;&gt;49 -->
<g id="edge75" class="edge"><title>43&#45;&gt;49</title>
<path fill="none" stroke="black" d="M73.4616,-147.834C79.2814,-137.931 93.2064,-114.237 99.02,-104.344"/>
</g>
<!-- anon_44_46_0 -->
<g id="node98" class="node"><title>anon_44_46_0</title>
<ellipse fill="white" stroke="black" cx="-130.205" cy="111.829" rx="2.5" ry="2.5"/>
</g>
<!-- 44&#45;&gt;anon_44_46_0 -->
<g id="edge98" class="edge"><title>44&#45;&gt;anon_44_46_0</title>
<path fill="none" stroke="black" stroke-dasharray="5,2" d="M-142.862,142.073C-139.566,134.197 -133.694,120.168 -131.283,114.407"/>
</g>
<!-- 45 -->
<g id="node46" class="node"><title>45</title>
<ellipse fill="#1874cd" stroke="black" cx="-208.84" cy="196.356" rx="3.5" ry="3.5"/>
</g>
<!-- 46&#45;&gt;49 -->
<g id="edge106" class="edge"><title>46&#45;&gt;49</title>
<path fill="none" stroke="black" stroke-dasharray="5,2" d="M70.4872,-109.462C77.6263,-107.268 89.6736,-103.565 96.506,-101.465"/>
</g>
<!-- 48 -->
<g id="node49" class="node"><title>48</title>
<ellipse fill="#1874cd" stroke="black" cx="174.499" cy="-228.626" rx="3.5" ry="3.5"/>
</g>
<!-- anon_49_50_0 -->
<g id="node105" class="node"><title>anon_49_50_0</title>
<ellipse fill="white" stroke="black" cx="153.255" cy="-69.0583" rx="2.5" ry="2.5"/>
</g>
<!-- 49&#45;&gt;anon_49_50_0 -->
<g id="edge107" class="edge"><title>49&#45;&gt;anon_49_50_0</title>
<path fill="none" stroke="black" stroke-dasharray="5,2" d="M106.04,-97.2584C116.572,-90.968 142.944,-75.2166 150.929,-70.4479"/>
</g>
<!-- 50 -->
<g id="node51" class="node"><title>50</title>
<ellipse fill="#1874cd" stroke="black" cx="206.561" cy="-55.5189" rx="3.5" ry="3.5"/>
</g>
<!-- 51 -->
<g id="node52" class="node"><title>51</title>
<ellipse fill="olivedrab" stroke="black" cx="230.053" cy="176.364" rx="3.5" ry="3.5"/>
</g>
<!-- 51&#45;&gt;52 -->
<g id="edge76" class="edge"><title>51&#45;&gt;52</title>
<path fill="none" stroke="black" d="M230.129,172.668C230.294,164.661 230.688,145.509 230.923,134.062"/>
</g>
<!-- 51&#45;&gt;57 -->
<g id="edge109" class="edge"><title>51&#45;&gt;57</title>
<path fill="none" stroke="black" stroke-dasharray="5,2" d="M233.58,175.444C242.024,173.243 263.312,167.694 271.613,165.53"/>
</g>
<!-- 54 -->
<g id="node55" class="node"><title>54</title>
<ellipse fill="olivedrab" stroke="black" cx="184.599" cy="96.3112" rx="5" ry="5"/>
</g>
<!-- 52&#45;&gt;54 -->
<g id="edge77" class="edge"><title>52&#45;&gt;54</title>
<path fill="none" stroke="black" d="M223.43,120.249C213.625,114.205 196.985,103.946 189.056,99.0588"/>
</g>
<!-- 53 -->
<g id="node54" class="node"><title>53</title>
<ellipse fill="olivedrab" stroke="black" cx="-57" cy="-63" rx="3.5" ry="3.5"/>
</g>
<!-- 54&#45;&gt;55 -->
<g id="edge110" class="edge"><title>54&#45;&gt;55</title>
<path fill="none" stroke="black" stroke-dasharray="5,2" d="M188.628,93.1422C195.637,87.6298 210.219,76.16 219.606,68.7767"/>
</g>
<!-- 59 -->
<g id="node60" class="node"><title>59</title>
<ellipse fill="olivedrab" stroke="black" cx="417.845" cy="-81.6852" rx="3.5" ry="3.5"/>
</g>
<!-- anon_0_6_0&#45;&gt;6 -->
<g id="edge5" class="edge"><title>anon_0_6_0&#45;&gt;6</title>
<path fill="none" stroke="black" d="M-12.1553,-324.107C-4.3564,-322.474 18.1617,-317.761 26.9879,-315.914"/>
</g>
<!-- anon_0_15_1 -->
<g id="node65" class="node"><title>anon_0_15_1</title>
<ellipse fill="white" stroke="black" cx="-140.974" cy="-485.243" rx="2.5" ry="2.5"/>
</g>
<!-- anon_0_15_0&#45;&gt;anon_0_15_1 -->
<g id="edge13" class="edge"><title>anon_0_15_0&#45;&gt;anon_0_15_1</title>
<path fill="none" stroke="black" d="M-132.235,-443.736C-133.892,-451.605 -138.797,-474.906 -140.435,-482.684"/>
</g>
<!-- anon_0_15_2 -->
<g id="node66" class="node"><title>anon_0_15_2</title>
<ellipse fill="white" stroke="black" cx="-146.103" cy="-528.128" rx="2.5" ry="2.5"/>
</g>
<!-- anon_0_15_1&#45;&gt;anon_0_15_2 -->
<g id="edge14" class="edge"><title>anon_0_15_1&#45;&gt;anon_0_15_2</title>
<path fill="none" stroke="black" d="M-141.279,-487.797C-142.194,-495.443 -144.901,-518.084 -145.805,-525.64"/>
</g>
<!-- anon_0_15_2&#45;&gt;15 -->
<g id="edge15" class="edge"><title>anon_0_15_2&#45;&gt;15</title>
<path fill="none" stroke="black" d="M-145.886,-530.706C-145.268,-538.061 -143.495,-559.159 -142.775,-567.733"/>
</g>
<!-- anon_2_25_0&#45;&gt;25 -->
<g id="edge26" class="edge"><title>anon_2_25_0&#45;&gt;25</title>
<path fill="none" stroke="black" d="M392.911,-305.659C400.153,-301.866 420.092,-291.422 427.893,-287.336"/>
</g>
<!-- anon_4_16_0&#45;&gt;16 -->
<g id="edge31" class="edge"><title>anon_4_16_0&#45;&gt;16</title>
<path fill="none" stroke="black" d="M298.709,-194.012C300.534,-186.657 305.804,-165.419 307.87,-157.095"/>
</g>
<!-- anon_31_37_1 -->
<g id="node70" class="node"><title>anon_31_37_1</title>
<ellipse fill="white" stroke="black" cx="-219.403" cy="-30.8775" rx="2.5" ry="2.5"/>
</g>
<!-- anon_31_37_0&#45;&gt;anon_31_37_1 -->
<g id="edge37" class="edge"><title>anon_31_37_0&#45;&gt;anon_31_37_1</title>
<path fill="none" stroke="black" d="M-226.658,17.4714C-225.314,8.51657 -221.073,-19.7472 -219.78,-28.3611"/>
</g>
<!-- anon_31_37_2 -->
<g id="node71" class="node"><title>anon_31_37_2</title>
<ellipse fill="white" stroke="black" cx="-199.424" cy="-78.5092" rx="2.5" ry="2.5"/>
</g>
<!-- anon_31_37_1&#45;&gt;anon_31_37_2 -->
<g id="edge38" class="edge"><title>anon_31_37_1&#45;&gt;anon_31_37_2</title>
<path fill="none" stroke="black" d="M-218.328,-33.4384C-214.827,-41.7861 -203.776,-68.1336 -200.407,-76.1634"/>
</g>
<!-- anon_31_37_3 -->
<g id="node72" class="node"><title>anon_31_37_3</title>
<ellipse fill="white" stroke="black" cx="-169.261" cy="-119.982" rx="2.5" ry="2.5"/>
</g>
<!-- anon_31_37_2&#45;&gt;anon_31_37_3 -->
<g id="edge39" class="edge"><title>anon_31_37_2&#45;&gt;anon_31_37_3</title>
<path fill="none" stroke="black" d="M-197.802,-80.739C-192.516,-88.0074 -175.832,-110.948 -170.747,-117.94"/>
</g>
<!-- anon_31_37_4 -->
<g id="node73" class="node"><title>anon_31_37_4</title>
<ellipse fill="white" stroke="black" cx="-130.781" cy="-152.887" rx="2.5" ry="2.5"/>
</g>
<!-- anon_31_37_3&#45;&gt;anon_31_37_4 -->
<g id="edge40" class="edge"><title>anon_31_37_3&#45;&gt;anon_31_37_4</title>
<path fill="none" stroke="black" d="M-167.192,-121.752C-160.573,-127.411 -139.947,-145.049 -133.052,-150.945"/>
</g>
<!-- anon_31_37_5 -->
<g id="node74" class="node"><title>anon_31_37_5</title>
<ellipse fill="white" stroke="black" cx="-85.9032" cy="-174.365" rx="2.5" ry="2.5"/>
</g>
<!-- anon_31_37_4&#45;&gt;anon_31_37_5 -->
<g id="edge41" class="edge"><title>anon_31_37_4&#45;&gt;anon_31_37_5</title>
<path fill="none" stroke="black" d="M-128.368,-154.041C-120.649,-157.736 -96.5925,-169.249 -88.5512,-173.098"/>
</g>
<!-- anon_31_37_6 -->
<g id="node75" class="node"><title>anon_31_37_6</title>
<ellipse fill="white" stroke="black" cx="-36.9311" cy="-181.952" rx="2.5" ry="2.5"/>
</g>
<!-- anon_31_37_5&#45;&gt;anon_31_37_6 -->
<g id="edge42" class="edge"><title>anon_31_37_5&#45;&gt;anon_31_37_6</title>
<path fill="none" stroke="black" d="M-83.2702,-174.773C-74.8465,-176.078 -48.5956,-180.145 -39.8207,-181.505"/>
</g>
<!-- anon_31_37_6&#45;&gt;37 -->
<g id="edge43" class="edge"><title>anon_31_37_6&#45;&gt;37</title>
<path fill="none" stroke="black" d="M-34.2774,-182.021C-25.3535,-182.252 3.95354,-183.011 20.7762,-183.447"/>
</g>
<!-- anon_31_45_0&#45;&gt;45 -->
<g id="edge46" class="edge"><title>anon_31_45_0&#45;&gt;45</title>
<path fill="none" stroke="black" d="M-236.287,157.269C-231.392,164.241 -216.332,185.687 -210.857,193.484"/>
</g>
<!-- anon_32_33_0&#45;&gt;33 -->
<g id="edge48" class="edge"><title>anon_32_33_0&#45;&gt;33</title>
<path fill="none" stroke="black" d="M-102.582,248.646C-102.826,241.108 -103.538,219.082 -103.95,206.359"/>
</g>
<!-- anon_34_36_0&#45;&gt;36 -->
<g id="edge51" class="edge"><title>anon_34_36_0&#45;&gt;36</title>
<path fill="none" stroke="black" d="M141.819,-150.608C139.346,-158.736 131.318,-185.12 128.395,-194.729"/>
</g>
<!-- anon_34_48_1 -->
<g id="node80" class="node"><title>anon_34_48_1</title>
<ellipse fill="white" stroke="black" cx="200.465" cy="-181.579" rx="2.5" ry="2.5"/>
</g>
<!-- anon_34_48_0&#45;&gt;anon_34_48_1 -->
<g id="edge54" class="edge"><title>anon_34_48_0&#45;&gt;anon_34_48_1</title>
<path fill="none" stroke="black" d="M186.121,-136.442C188.729,-144.648 196.854,-170.217 199.571,-178.764"/>
</g>
<!-- anon_34_48_1&#45;&gt;48 -->
<g id="edge55" class="edge"><title>anon_34_48_1&#45;&gt;48</title>
<path fill="none" stroke="black" d="M199.213,-183.848C194.998,-191.484 181.318,-216.272 176.335,-225.299"/>
</g>
<!-- anon_34_50_0&#45;&gt;50 -->
<g id="edge57" class="edge"><title>anon_34_50_0&#45;&gt;50</title>
<path fill="none" stroke="black" d="M189.811,-80.7125C193.025,-75.8789 200.839,-64.1243 204.546,-58.5491"/>
</g>
<!-- anon_40_59_1 -->
<g id="node83" class="node"><title>anon_40_59_1</title>
<ellipse fill="white" stroke="black" cx="382.471" cy="-4.19573" rx="2.5" ry="2.5"/>
</g>
<!-- anon_40_59_0&#45;&gt;anon_40_59_1 -->
<g id="edge70" class="edge"><title>anon_40_59_0&#45;&gt;anon_40_59_1</title>
<path fill="none" stroke="black" d="M358.733,29.3903C363.414,22.7681 376.621,4.08091 381.023,-2.14718"/>
</g>
<!-- anon_40_59_2 -->
<g id="node84" class="node"><title>anon_40_59_2</title>
<ellipse fill="white" stroke="black" cx="405.06" cy="-40.4218" rx="2.5" ry="2.5"/>
</g>
<!-- anon_40_59_1&#45;&gt;anon_40_59_2 -->
<g id="edge71" class="edge"><title>anon_40_59_1&#45;&gt;anon_40_59_2</title>
<path fill="none" stroke="black" d="M383.953,-6.57263C388.036,-13.1208 399.418,-31.374 403.543,-37.9887"/>
</g>
<!-- anon_40_59_2&#45;&gt;59 -->
<g id="edge72" class="edge"><title>anon_40_59_2&#45;&gt;59</title>
<path fill="none" stroke="black" d="M405.899,-43.1292C408.121,-50.3011 414.162,-69.7996 416.699,-77.987"/>
</g>
<!-- anon_33_34_1 -->
<g id="node86" class="node"><title>anon_33_34_1</title>
<ellipse fill="white" stroke="black" cx="9.68227" cy="180.559" rx="2.5" ry="2.5"/>
</g>
<!-- anon_33_34_0&#45;&gt;anon_33_34_1 -->
<g id="edge80" class="edge"><title>anon_33_34_0&#45;&gt;anon_33_34_1</title>
<path fill="none" stroke="black" stroke-dasharray="5,2" d="M-38.3922,193.298C-29.879,191.043 -1.50693,183.524 7.1515,181.23"/>
</g>
<!-- anon_33_34_2 -->
<g id="node87" class="node"><title>anon_33_34_2</title>
<ellipse fill="white" stroke="black" cx="54.7288" cy="154.352" rx="2.5" ry="2.5"/>
</g>
<!-- anon_33_34_1&#45;&gt;anon_33_34_2 -->
<g id="edge81" class="edge"><title>anon_33_34_1&#45;&gt;anon_33_34_2</title>
<path fill="none" stroke="black" stroke-dasharray="5,2" d="M11.855,179.295C19.4472,174.878 44.75,160.158 52.4718,155.665"/>
</g>
<!-- anon_33_34_3 -->
<g id="node88" class="node"><title>anon_33_34_3</title>
<ellipse fill="white" stroke="black" cx="92.0465" cy="118.215" rx="2.5" ry="2.5"/>
</g>
<!-- anon_33_34_2&#45;&gt;anon_33_34_3 -->
<g id="edge82" class="edge"><title>anon_33_34_2&#45;&gt;anon_33_34_3</title>
<path fill="none" stroke="black" stroke-dasharray="5,2" d="M56.7352,152.409C63.2753,146.076 83.9176,126.087 90.2087,119.995"/>
</g>
<!-- anon_33_34_4 -->
<g id="node89" class="node"><title>anon_33_34_4</title>
<ellipse fill="white" stroke="black" cx="119.714" cy="74.6672" rx="2.5" ry="2.5"/>
</g>
<!-- anon_33_34_3&#45;&gt;anon_33_34_4 -->
<g id="edge83" class="edge"><title>anon_33_34_3&#45;&gt;anon_33_34_4</title>
<path fill="none" stroke="black" stroke-dasharray="5,2" d="M93.5341,115.874C98.383,108.242 113.688,84.1533 118.352,76.8119"/>
</g>
<!-- anon_33_34_5 -->
<g id="node90" class="node"><title>anon_33_34_5</title>
<ellipse fill="white" stroke="black" cx="135.154" cy="25.9011" rx="2.5" ry="2.5"/>
</g>
<!-- anon_33_34_4&#45;&gt;anon_33_34_5 -->
<g id="edge84" class="edge"><title>anon_33_34_4&#45;&gt;anon_33_34_5</title>
<path fill="none" stroke="black" stroke-dasharray="5,2" d="M120.545,72.0453C123.25,63.4988 131.791,36.5238 134.394,28.3028"/>
</g>
<!-- anon_33_34_6 -->
<g id="node91" class="node"><title>anon_33_34_6</title>
<ellipse fill="white" stroke="black" cx="136.192" cy="-25.6626" rx="2.5" ry="2.5"/>
</g>
<!-- anon_33_34_5&#45;&gt;anon_33_34_6 -->
<g id="edge85" class="edge"><title>anon_33_34_5&#45;&gt;anon_33_34_6</title>
<path fill="none" stroke="black" stroke-dasharray="5,2" d="M135.21,23.1288C135.392,14.092 135.966,-14.4305 136.141,-23.1231"/>
</g>
<!-- anon_33_34_6&#45;&gt;34 -->
<g id="edge86" class="edge"><title>anon_33_34_6&#45;&gt;34</title>
<path fill="none" stroke="black" stroke-dasharray="5,2" d="M136.091,-28.2906C135.739,-37.4739 134.55,-68.4531 133.926,-84.7083"/>
</g>
<!-- anon_33_45_0&#45;&gt;45 -->
<g id="edge88" class="edge"><title>anon_33_45_0&#45;&gt;45</title>
<path fill="none" stroke="black" stroke-dasharray="5,2" d="M-163.074,212.243C-171.236,209.409 -196.348,200.692 -205.478,197.523"/>
</g>
<!-- anon_36_37_0&#45;&gt;37 -->
<g id="edge90" class="edge"><title>anon_36_37_0&#45;&gt;37</title>
<path fill="none" stroke="black" stroke-dasharray="5,2" d="M75.1487,-204.349C69.3578,-201.524 54.3174,-194.189 43.8515,-189.084"/>
</g>
<!-- anon_36_48_1 -->
<g id="node95" class="node"><title>anon_36_48_1</title>
<ellipse fill="white" stroke="black" cx="190.708" cy="-267.096" rx="2.5" ry="2.5"/>
</g>
<!-- anon_36_48_0&#45;&gt;anon_36_48_1 -->
<g id="edge92" class="edge"><title>anon_36_48_0&#45;&gt;anon_36_48_1</title>
<path fill="none" stroke="black" stroke-dasharray="5,2" d="M154.604,-248.483C161.588,-252.084 181.057,-262.121 188.113,-265.758"/>
</g>
<!-- anon_36_48_1&#45;&gt;48 -->
<g id="edge93" class="edge"><title>anon_36_48_1&#45;&gt;48</title>
<path fill="none" stroke="black" stroke-dasharray="5,2" d="M189.644,-264.572C186.827,-257.886 179.168,-239.707 175.952,-232.074"/>
</g>
<!-- anon_37_48_1 -->
<g id="node97" class="node"><title>anon_37_48_1</title>
<ellipse fill="white" stroke="black" cx="115.247" cy="-254.228" rx="2.5" ry="2.5"/>
</g>
<!-- anon_37_48_0&#45;&gt;anon_37_48_1 -->
<g id="edge95" class="edge"><title>anon_37_48_0&#45;&gt;anon_37_48_1</title>
<path fill="none" stroke="black" stroke-dasharray="5,2" d="M69.1321,-239.524C77.6732,-242.247 104.631,-250.843 112.847,-253.462"/>
</g>
<!-- anon_37_48_1&#45;&gt;48 -->
<g id="edge96" class="edge"><title>anon_37_48_1&#45;&gt;48</title>
<path fill="none" stroke="black" stroke-dasharray="5,2" d="M117.793,-253.127C127.274,-249.031 160.53,-234.662 171.187,-230.057"/>
</g>
<!-- anon_44_46_1 -->
<g id="node99" class="node"><title>anon_44_46_1</title>
<ellipse fill="white" stroke="black" cx="-104.384" cy="82.1777" rx="2.5" ry="2.5"/>
</g>
<!-- anon_44_46_0&#45;&gt;anon_44_46_1 -->
<g id="edge99" class="edge"><title>anon_44_46_0&#45;&gt;anon_44_46_1</title>
<path fill="none" stroke="black" stroke-dasharray="5,2" d="M-128.51,109.884C-123.843,104.524 -110.833,89.5835 -106.119,84.1693"/>
</g>
<!-- anon_44_46_2 -->
<g id="node100" class="node"><title>anon_44_46_2</title>
<ellipse fill="white" stroke="black" cx="-73.7725" cy="55.5309" rx="2.5" ry="2.5"/>
</g>
<!-- anon_44_46_1&#45;&gt;anon_44_46_2 -->
<g id="edge100" class="edge"><title>anon_44_46_1&#45;&gt;anon_44_46_2</title>
<path fill="none" stroke="black" stroke-dasharray="5,2" d="M-102.376,80.4293C-96.8425,75.6127 -81.4181,62.1862 -75.8285,57.3206"/>
</g>
<!-- anon_44_46_3 -->
<g id="node101" class="node"><title>anon_44_46_3</title>
<ellipse fill="white" stroke="black" cx="-44.039" cy="27.1036" rx="2.5" ry="2.5"/>
</g>
<!-- anon_44_46_2&#45;&gt;anon_44_46_3 -->
<g id="edge101" class="edge"><title>anon_44_46_2&#45;&gt;anon_44_46_3</title>
<path fill="none" stroke="black" stroke-dasharray="5,2" d="M-71.8216,53.6657C-66.447,48.5272 -51.4653,34.2036 -46.0361,29.013"/>
</g>
<!-- anon_44_46_4 -->
<g id="node102" class="node"><title>anon_44_46_4</title>
<ellipse fill="white" stroke="black" cx="-18.2622" cy="-5.36694" rx="2.5" ry="2.5"/>
</g>
<!-- anon_44_46_3&#45;&gt;anon_44_46_4 -->
<g id="edge102" class="edge"><title>anon_44_46_3&#45;&gt;anon_44_46_4</title>
<path fill="none" stroke="black" stroke-dasharray="5,2" d="M-42.3477,24.9731C-37.6883,19.1038 -24.7003,2.74293 -19.9935,-3.18604"/>
</g>
<!-- anon_44_46_5 -->
<g id="node103" class="node"><title>anon_44_46_5</title>
<ellipse fill="white" stroke="black" cx="8.22541" cy="-37.9117" rx="2.5" ry="2.5"/>
</g>
<!-- anon_44_46_4&#45;&gt;anon_44_46_5 -->
<g id="edge103" class="edge"><title>anon_44_46_4&#45;&gt;anon_44_46_5</title>
<path fill="none" stroke="black" stroke-dasharray="5,2" d="M-16.5243,-7.5023C-11.7364,-13.3851 1.60984,-29.7833 6.44635,-35.7258"/>
</g>
<!-- anon_44_46_6 -->
<g id="node104" class="node"><title>anon_44_46_6</title>
<ellipse fill="white" stroke="black" cx="36.9623" cy="-69.8323" rx="2.5" ry="2.5"/>
</g>
<!-- anon_44_46_5&#45;&gt;anon_44_46_6 -->
<g id="edge104" class="edge"><title>anon_44_46_5&#45;&gt;anon_44_46_6</title>
<path fill="none" stroke="black" stroke-dasharray="5,2" d="M10.1109,-40.0061C15.3054,-45.7761 29.7849,-61.8598 35.0321,-67.6883"/>
</g>
<!-- anon_44_46_6&#45;&gt;46 -->
<g id="edge105" class="edge"><title>anon_44_46_6&#45;&gt;46</title>
<path fill="none" stroke="black" stroke-dasharray="5,2" d="M38.4545,-72.0583C42.7334,-78.4411 55.128,-96.93 61.2345,-106.039"/>
</g>
<!-- anon_49_50_0&#45;&gt;50 -->
<g id="edge108" class="edge"><title>anon_49_50_0&#45;&gt;50</title>
<path fill="none" stroke="black" stroke-dasharray="5,2" d="M155.826,-68.4053C164.561,-66.1867 193.105,-58.9366 203.081,-56.4027"/>
</g>
</g>
</svg>
