<?xml version="1.0" encoding="UTF-8" standalone="no"?>
<!DOCTYPE svg PUBLIC "-//W3C//DTD SVG 1.1//EN"
 "http://www.w3.org/Graphics/SVG/1.1/DTD/svg11.dtd">
<!-- Generated by graphviz version 2.38.0 (20140413.2041)
 -->
<!-- Title: %3 Pages: 1 -->
<svg width="601pt" height="637pt"
 viewBox="0.00 0.00 601.36 637.29" xmlns="http://www.w3.org/2000/svg" xmlns:xlink="http://www.w3.org/1999/xlink">
<g id="graph0" class="graph" transform="scale(1 1) rotate(0) translate(246.02 435.087)">
<title>%3</title>
<polygon fill="white" stroke="none" points="-246.02,202.204 -246.02,-435.087 355.345,-435.087 355.345,202.204 -246.02,202.204"/>
<!-- 0 -->
<g id="node1" class="node"><title>0</title>
<ellipse fill="palegreen" stroke="black" cx="-35.4892" cy="63.1508" rx="33" ry="33"/>
</g>
<!-- 1 -->
<g id="node2" class="node"><title>1</title>
<ellipse fill="palegreen" stroke="black" cx="40.3783" cy="39.5436" rx="3.5" ry="3.5"/>
</g>
<!-- 0&#45;&gt;1 -->
<g id="edge1" class="edge"><title>0&#45;&gt;1</title>
<path fill="none" stroke="black" d="M-3.75414,53.276C12.1629,48.3232 29.5766,42.9047 36.8649,40.6369"/>
</g>
<!-- 3 -->
<g id="node4" class="node"><title>3</title>
<ellipse fill="palegreen" stroke="black" cx="-39.3578" cy="121.086" rx="3.5" ry="3.5"/>
</g>
<!-- 0&#45;&gt;3 -->
<g id="edge2" class="edge"><title>0&#45;&gt;3</title>
<path fill="none" stroke="black" d="M-37.6947,96.1801C-38.2648,104.718 -38.8029,112.776 -39.1055,117.307"/>
</g>
<!-- 5 -->
<g id="node6" class="node"><title>5</title>
<ellipse fill="palegreen" stroke="black" cx="-81.4292" cy="18.8414" rx="3.5" ry="3.5"/>
</g>
<!-- 0&#45;&gt;5 -->
<g id="edge3" class="edge"><title>0&#45;&gt;5</title>
<path fill="none" stroke="black" d="M-59.2666,40.2174C-67.1484,32.6154 -74.9032,25.1357 -78.813,21.3647"/>
</g>
<!-- 7 -->
<g id="node8" class="node"><title>7</title>
<ellipse fill="palegreen" stroke="black" cx="-123.195" cy="24.4212" rx="5" ry="5"/>
</g>
<!-- 0&#45;&gt;7 -->
<g id="edge6" class="edge"><title>0&#45;&gt;7</title>
<path fill="none" stroke="black" d="M-66.1644,49.6051C-85.5284,41.0542 -108.671,30.8345 -118.456,26.5138"/>
</g>
<!-- 9 -->
<g id="node10" class="node"><title>9</title>
<ellipse fill="palegreen" stroke="black" cx="-51.7883" cy="167.938" rx="9" ry="9"/>
</g>
<!-- 0&#45;&gt;9 -->
<g id="edge7" class="edge"><title>0&#45;&gt;9</title>
<path fill="none" stroke="black" d="M-40.6016,96.0185C-43.9999,117.866 -48.2204,144.999 -50.3764,158.86"/>
</g>
<!-- 10 -->
<g id="node11" class="node"><title>10</title>
<ellipse fill="palegreen" stroke="black" cx="-111.445" cy="93.9398" rx="3.5" ry="3.5"/>
</g>
<!-- 0&#45;&gt;10 -->
<g id="edge8" class="edge"><title>0&#45;&gt;10</title>
<path fill="none" stroke="black" d="M-66.3834,75.6739C-82.4836,82.2002 -100.345,89.4402 -107.833,92.4755"/>
</g>
<!-- 11 -->
<g id="node12" class="node"><title>11</title>
<ellipse fill="palegreen" stroke="black" cx="11.6489" cy="143.286" rx="3.5" ry="3.5"/>
</g>
<!-- 0&#45;&gt;11 -->
<g id="edge9" class="edge"><title>0&#45;&gt;11</title>
<path fill="none" stroke="black" d="M-18.7373,91.6292C-7.94059,109.984 4.9444,131.888 9.73346,140.03"/>
</g>
<!-- 12 -->
<g id="node13" class="node"><title>12</title>
<ellipse fill="palegreen" stroke="black" cx="-96.9515" cy="142.024" rx="5" ry="5"/>
</g>
<!-- 0&#45;&gt;12 -->
<g id="edge10" class="edge"><title>0&#45;&gt;12</title>
<path fill="none" stroke="black" d="M-55.9552,89.4146C-69.7838,107.161 -86.7455,128.927 -93.7214,137.879"/>
</g>
<!-- 14 -->
<g id="node15" class="node"><title>14</title>
<ellipse fill="palegreen" stroke="black" cx="-128.5" cy="63.6518" rx="3.5" ry="3.5"/>
</g>
<!-- 0&#45;&gt;14 -->
<g id="edge11" class="edge"><title>0&#45;&gt;14</title>
<path fill="none" stroke="black" d="M-68.5431,63.3288C-90.0555,63.4447 -115.77,63.5832 -124.993,63.6329"/>
</g>
<!-- 18 -->
<g id="node19" class="node"><title>18</title>
<ellipse fill="palegreen" stroke="black" cx="34.9901" cy="1.97136" rx="3.5" ry="3.5"/>
</g>
<!-- 0&#45;&gt;18 -->
<g id="edge16" class="edge"><title>0&#45;&gt;18</title>
<path fill="none" stroke="black" d="M-10.4424,41.409C5.70054,27.3961 24.9657,10.673 32.1262,4.45738"/>
</g>
<!-- 20 -->
<g id="node21" class="node"><title>20</title>
<ellipse fill="palegreen" stroke="black" cx="-5.50096" cy="0.273901" rx="3.5" ry="3.5"/>
</g>
<!-- 0&#45;&gt;20 -->
<g id="edge17" class="edge"><title>0&#45;&gt;20</title>
<path fill="none" stroke="black" d="M-21.1977,33.1856C-15.5255,21.2926 -9.719,9.11797 -7.03449,3.4893"/>
</g>
<!-- 22 -->
<g id="node23" class="node"><title>22</title>
<ellipse fill="palegreen" stroke="black" cx="22.5979" cy="104.4" rx="3.5" ry="3.5"/>
</g>
<!-- 0&#45;&gt;22 -->
<g id="edge18" class="edge"><title>0&#45;&gt;22</title>
<path fill="none" stroke="black" d="M-8.48628,82.3263C2.6535,90.237 14.1956,98.4333 19.5414,102.229"/>
</g>
<!-- anon_0_6_0 -->
<g id="node67" class="node"><title>anon_0_6_0</title>
<ellipse fill="white" stroke="black" cx="63.137" cy="83.3268" rx="2.5" ry="2.5"/>
</g>
<!-- 0&#45;&gt;anon_0_6_0 -->
<g id="edge4" class="edge"><title>0&#45;&gt;anon_0_6_0</title>
<path fill="none" stroke="black" d="M-2.92193,69.8131C21.317,74.7717 51.681,80.9833 60.578,82.8033"/>
</g>
<!-- anon_0_15_0 -->
<g id="node68" class="node"><title>anon_0_15_0</title>
<ellipse fill="white" stroke="black" cx="-53.6818" cy="-33.1073" rx="2.5" ry="2.5"/>
</g>
<!-- 0&#45;&gt;anon_0_15_0 -->
<g id="edge12" class="edge"><title>0&#45;&gt;anon_0_15_0</title>
<path fill="none" stroke="black" d="M-41.6483,30.5622C-46.019,7.43664 -51.4032,-21.0512 -53.1249,-30.1607"/>
</g>
<!-- 2 -->
<g id="node3" class="node"><title>2</title>
<path fill="#787878" stroke="black" stroke-width="0.5" d="M100.817,-220.015C100.817,-220.015 141.817,-220.015 141.817,-220.015 141.817,-221.047 141.778,-222.079 141.7,-223.108 141.623,-224.137 141.506,-225.163 141.351,-226.184 141.195,-227.204 141.001,-228.218 140.77,-229.224 140.538,-230.23 140.268,-231.227 139.961,-232.212 139.654,-233.198 139.31,-234.171 138.929,-235.131 138.548,-236.09 138.132,-237.035 137.68,-237.963 137.228,-238.891 136.741,-239.802 136.221,-240.693 135.7,-241.584 135.146,-242.456 134.56,-243.305 133.973,-244.155 133.355,-244.982 132.706,-245.785 132.058,-246.587 131.379,-247.365 130.671,-248.117 129.964,-248.869 129.228,-249.593 128.466,-250.289 127.704,-250.985 126.915,-251.652 126.103,-252.289 125.29,-252.926 124.454,-253.531 123.596,-254.105 122.737,-254.678 121.858,-255.219 120.959,-255.726 120.06,-256.233 119.142,-256.706 118.207,-257.144 117.272,-257.582 116.321,-257.984 115.356,-258.35 114.391,-258.716 113.412,-259.046 112.422,-259.338 111.432,-259.63 110.432,-259.885 109.422,-260.101 108.413,-260.318 107.396,-260.496 106.374,-260.636 105.351,-260.776 104.323,-260.877 103.293,-260.94 102.263,-261.002 101.23,-261.025 100.198,-261.01 99.166,-260.994 98.1349,-260.94 97.1069,-260.846 96.0789,-260.753 95.0548,-260.621 94.0368,-260.45 93.0188,-260.279 92.0076,-260.07 91.0054,-259.823 90.0032,-259.576 89.0106,-259.291 88.0299,-258.969 87.0492,-258.647 86.081,-258.289 85.1273,-257.894 84.1737,-257.499 83.2353,-257.068 82.3142,-256.602 81.3931,-256.136 80.4898,-255.636 79.6065,-255.102 78.7231,-254.568 77.8603,-254 77.0197,-253.401 76.1792,-252.802 75.3616,-252.171 74.5686,-251.511 73.7757,-250.85 73.008,-250.159 72.2671,-249.44 71.5263,-248.722 70.8129,-247.975 70.1284,-247.203 70.1284,-247.203 100.817,-220.015 100.817,-220.015"/>
<path fill="palegreen" stroke="black" stroke-width="0.5" d="M100.817,-220.015C100.817,-220.015 70.1284,-247.203 70.1284,-247.203 69.033,-245.966 68.0134,-244.665 67.075,-243.305 66.1367,-241.946 65.2813,-240.531 64.5137,-239.068 63.746,-237.606 63.0674,-236.098 62.4817,-234.553 61.8959,-233.009 61.404,-231.43 61.0087,-229.826 60.6134,-228.223 60.3154,-226.596 60.1163,-224.957 59.9172,-223.317 59.8174,-221.666 59.8174,-220.015 59.8174,-218.363 59.9172,-216.712 60.1163,-215.073 60.3154,-213.433 60.6134,-211.806 61.0087,-210.203 61.4041,-208.599 61.8959,-207.02 62.4817,-205.476 63.0674,-203.931 63.746,-202.424 64.5137,-200.961 65.2813,-199.498 66.1367,-198.083 67.075,-196.724 68.0134,-195.364 69.033,-194.063 70.1284,-192.827 71.2238,-191.59 72.3929,-190.421 73.6293,-189.326 74.8658,-188.23 76.1672,-187.211 77.5267,-186.272 78.8861,-185.334 80.3011,-184.478 81.7637,-183.711 83.2263,-182.943 84.734,-182.265 86.2786,-181.679 87.8231,-181.093 89.4016,-180.601 91.0054,-180.206 92.6093,-179.811 94.2355,-179.513 95.8753,-179.313 97.5152,-179.114 99.1655,-179.015 100.817,-179.015 102.469,-179.015 104.12,-179.114 105.759,-179.313 107.399,-179.513 109.025,-179.811 110.629,-180.206 112.233,-180.601 113.812,-181.093 115.356,-181.679 116.901,-182.265 118.408,-182.943 119.871,-183.711 121.334,-184.478 122.749,-185.334 124.108,-186.272 125.467,-187.211 126.769,-188.23 128.005,-189.326 129.242,-190.421 130.411,-191.59 131.506,-192.827 132.602,-194.063 133.621,-195.364 134.56,-196.724 135.498,-198.083 136.353,-199.498 137.121,-200.961 137.889,-202.424 138.567,-203.931 139.153,-205.476 139.739,-207.02 140.231,-208.599 140.626,-210.203 141.021,-211.806 141.319,-213.433 141.518,-215.073 141.718,-216.712 141.817,-218.363 141.817,-220.015 141.817,-220.015 100.817,-220.015 100.817,-220.015"/>
<ellipse fill="none" stroke="black" cx="100.817" cy="-220.015" rx="41" ry="41"/>
</g>
<!-- 4 -->
<g id="node5" class="node"><title>4</title>
<ellipse fill="palegreen" stroke="black" cx="68.8161" cy="-100.608" rx="13" ry="13"/>
</g>
<!-- 2&#45;&gt;4 -->
<g id="edge19" class="edge"><title>2&#45;&gt;4</title>
<path fill="none" stroke="black" d="M90.1614,-180.254C83.9068,-156.916 76.4212,-128.985 72.1822,-113.168"/>
</g>
<!-- 13 -->
<g id="node14" class="node"><title>13</title>
<ellipse fill="palegreen" stroke="black" cx="50.4904" cy="-175.163" rx="3.5" ry="3.5"/>
</g>
<!-- 2&#45;&gt;13 -->
<g id="edge20" class="edge"><title>2&#45;&gt;13</title>
<path fill="none" stroke="black" d="M70.0922,-192.632C63.216,-186.504 56.923,-180.896 53.4091,-177.764"/>
</g>
<!-- 17 -->
<g id="node18" class="node"><title>17</title>
<ellipse fill="palegreen" stroke="black" cx="76.5347" cy="-316.264" rx="3.5" ry="3.5"/>
</g>
<!-- 2&#45;&gt;17 -->
<g id="edge21" class="edge"><title>2&#45;&gt;17</title>
<path fill="none" stroke="black" d="M90.7303,-259.997C85.4138,-281.07 79.5561,-304.288 77.3958,-312.851"/>
</g>
<!-- 19 -->
<g id="node20" class="node"><title>19</title>
<ellipse fill="palegreen" stroke="black" cx="33.8414" cy="-292.868" rx="3.5" ry="3.5"/>
</g>
<!-- 2&#45;&gt;19 -->
<g id="edge22" class="edge"><title>2&#45;&gt;19</title>
<path fill="none" stroke="black" d="M72.8016,-250.489C58.4632,-266.085 42.7491,-283.178 36.5603,-289.91"/>
</g>
<!-- 23 -->
<g id="node24" class="node"><title>23</title>
<ellipse fill="#787878" stroke="black" cx="200.744" cy="-290.679" rx="11.5" ry="11.5"/>
</g>
<!-- 2&#45;&gt;23 -->
<g id="edge23" class="edge"><title>2&#45;&gt;23</title>
<path fill="none" stroke="black" d="M134.37,-243.741C154.327,-257.855 178.216,-274.747 191.197,-283.927"/>
</g>
<!-- 24 -->
<g id="node25" class="node"><title>24</title>
<ellipse fill="#787878" stroke="black" cx="3.71644" cy="-205.735" rx="3.5" ry="3.5"/>
</g>
<!-- 2&#45;&gt;24 -->
<g id="edge24" class="edge"><title>2&#45;&gt;24</title>
<path fill="none" stroke="black" d="M60.2004,-214.041C39.2049,-210.954 16.1749,-207.567 7.39331,-206.275"/>
</g>
<!-- 27 -->
<g id="node28" class="node"><title>27</title>
<ellipse fill="#787878" stroke="black" cx="7.15289" cy="-254.012" rx="3.5" ry="3.5"/>
</g>
<!-- 2&#45;&gt;27 -->
<g id="edge27" class="edge"><title>2&#45;&gt;27</title>
<path fill="none" stroke="black" d="M62.1797,-234.039C41.6195,-241.502 18.8846,-249.754 10.4968,-252.799"/>
</g>
<!-- 28 -->
<g id="node29" class="node"><title>28</title>
<ellipse fill="#787878" stroke="black" cx="171.02" cy="-212.101" rx="3.5" ry="3.5"/>
</g>
<!-- 2&#45;&gt;28 -->
<g id="edge28" class="edge"><title>2&#45;&gt;28</title>
<path fill="none" stroke="black" d="M141.654,-215.411C152.272,-214.215 162.17,-213.099 167.32,-212.518"/>
</g>
<!-- 29 -->
<g id="node30" class="node"><title>29</title>
<ellipse fill="#787878" stroke="black" cx="121.7" cy="-294.083" rx="3.5" ry="3.5"/>
</g>
<!-- 2&#45;&gt;29 -->
<g id="edge29" class="edge"><title>2&#45;&gt;29</title>
<path fill="none" stroke="black" d="M111.992,-259.651C115.561,-272.308 119.014,-284.558 120.675,-290.447"/>
</g>
<!-- anon_2_25_0 -->
<g id="node71" class="node"><title>anon_2_25_0</title>
<ellipse fill="white" stroke="black" cx="180.231" cy="-157.063" rx="2.5" ry="2.5"/>
</g>
<!-- 2&#45;&gt;anon_2_25_0 -->
<g id="edge25" class="edge"><title>2&#45;&gt;anon_2_25_0</title>
<path fill="none" stroke="black" d="M133.118,-194.41C151.325,-179.977 171.686,-163.837 178.147,-158.715"/>
</g>
<!-- 21 -->
<g id="node22" class="node"><title>21</title>
<ellipse fill="palegreen" stroke="black" cx="11.6695" cy="-79.4358" rx="3.5" ry="3.5"/>
</g>
<!-- 4&#45;&gt;21 -->
<g id="edge32" class="edge"><title>4&#45;&gt;21</title>
<path fill="none" stroke="black" d="M56.4161,-96.0142C43.2855,-91.1493 23.3603,-83.7671 15.2714,-80.7702"/>
</g>
<!-- anon_4_16_0 -->
<g id="node72" class="node"><title>anon_4_16_0</title>
<ellipse fill="white" stroke="black" cx="88.0754" cy="-46.5657" rx="2.5" ry="2.5"/>
</g>
<!-- 4&#45;&gt;anon_4_16_0 -->
<g id="edge30" class="edge"><title>4&#45;&gt;anon_4_16_0</title>
<path fill="none" stroke="black" d="M73.1863,-88.3452C77.8032,-75.39 84.7467,-55.906 87.1883,-49.0549"/>
</g>
<!-- 6 -->
<g id="node7" class="node"><title>6</title>
<ellipse fill="palegreen" stroke="black" cx="108.598" cy="92.8413" rx="3.5" ry="3.5"/>
</g>
<!-- 8 -->
<g id="node9" class="node"><title>8</title>
<ellipse fill="palegreen" stroke="black" cx="-98.4704" cy="193.204" rx="5" ry="5"/>
</g>
<!-- 8&#45;&gt;9 -->
<g id="edge33" class="edge"><title>8&#45;&gt;9</title>
<path fill="none" stroke="black" d="M-93.8237,190.689C-85.8904,186.395 -69.642,177.601 -59.8332,172.292"/>
</g>
<!-- 8&#45;&gt;12 -->
<g id="edge69" class="edge"><title>8&#45;&gt;12</title>
<path fill="none" stroke="black" stroke-dasharray="5,2" d="M-98.3192,188.109C-98.028,178.299 -97.3927,156.892 -97.1021,147.098"/>
</g>
<!-- 15 -->
<g id="node16" class="node"><title>15</title>
<ellipse fill="palegreen" stroke="black" cx="-64.465" cy="-163.422" rx="3.5" ry="3.5"/>
</g>
<!-- 16 -->
<g id="node17" class="node"><title>16</title>
<ellipse fill="palegreen" stroke="black" cx="98.715" cy="-3.68979" rx="3.5" ry="3.5"/>
</g>
<!-- 26 -->
<g id="node27" class="node"><title>26</title>
<ellipse fill="#787878" stroke="black" cx="257.735" cy="-285.969" rx="3.5" ry="3.5"/>
</g>
<!-- 23&#45;&gt;26 -->
<g id="edge34" class="edge"><title>23&#45;&gt;26</title>
<path fill="none" stroke="black" d="M212.277,-289.725C225.287,-288.65 245.714,-286.962 254.029,-286.275"/>
</g>
<!-- 30 -->
<g id="node31" class="node"><title>30</title>
<ellipse fill="#787878" stroke="black" cx="211.66" cy="-347.084" rx="3.5" ry="3.5"/>
</g>
<!-- 23&#45;&gt;30 -->
<g id="edge35" class="edge"><title>23&#45;&gt;30</title>
<path fill="none" stroke="black" d="M202.953,-302.093C205.445,-314.969 209.358,-335.187 210.95,-343.415"/>
</g>
<!-- 25 -->
<g id="node26" class="node"><title>25</title>
<ellipse fill="#787878" stroke="black" cx="221.081" cy="-135.665" rx="3.5" ry="3.5"/>
</g>
<!-- 31 -->
<g id="node32" class="node"><title>31</title>
<ellipse fill="#1874cd" stroke="black" cx="-223.52" cy="-116.368" rx="18.5" ry="18.5"/>
</g>
<!-- 44 -->
<g id="node45" class="node"><title>44</title>
<ellipse fill="#1874cd" stroke="black" cx="-189.747" cy="-141.778" rx="6" ry="6"/>
</g>
<!-- 31&#45;&gt;44 -->
<g id="edge36" class="edge"><title>31&#45;&gt;44</title>
<path fill="none" stroke="black" d="M-208.608,-127.587C-203.661,-131.31 -198.483,-135.205 -194.808,-137.97"/>
</g>
<!-- 62 -->
<g id="node63" class="node"><title>62</title>
<ellipse fill="white" stroke="black" cx="-146.767" cy="-123.682" rx="2.5" ry="2.5"/>
</g>
<!-- 31&#45;&gt;62 -->
<g id="edge37" class="edge"><title>31&#45;&gt;62</title>
<path fill="none" stroke="black" d="M-204.94,-118.138C-186.129,-119.931 -158.579,-122.556 -149.665,-123.406"/>
</g>
<!-- 32 -->
<g id="node33" class="node"><title>32</title>
<ellipse fill="#1874cd" stroke="black" cx="-91.725" cy="-25.6781" rx="3.5" ry="3.5"/>
</g>
<!-- 63 -->
<g id="node64" class="node"><title>63</title>
<ellipse fill="white" stroke="black" cx="-115.967" cy="-62.3097" rx="2.5" ry="2.5"/>
</g>
<!-- 32&#45;&gt;63 -->
<g id="edge38" class="edge"><title>32&#45;&gt;63</title>
<path fill="none" stroke="black" d="M-93.9621,-29.0586C-98.8382,-36.4268 -110.317,-53.7726 -114.45,-60.0183"/>
</g>
<!-- 33 -->
<g id="node34" class="node"><title>33</title>
<ellipse fill="#1874cd" stroke="black" cx="-164.542" cy="-82.2656" rx="9" ry="9"/>
</g>
<!-- 33&#45;&gt;44 -->
<g id="edge39" class="edge"><title>33&#45;&gt;44</title>
<path fill="none" stroke="black" d="M-168.153,-90.7922C-173.38,-103.134 -182.913,-125.643 -187.353,-136.126"/>
</g>
<!-- 33&#45;&gt;62 -->
<g id="edge70" class="edge"><title>33&#45;&gt;62</title>
<path fill="none" stroke="black" stroke-dasharray="5,2" d="M-160.945,-90.6468C-156.806,-100.291 -150.26,-115.542 -147.772,-121.34"/>
</g>
<!-- 33&#45;&gt;63 -->
<g id="edge40" class="edge"><title>33&#45;&gt;63</title>
<path fill="none" stroke="black" d="M-156.081,-78.7895C-144.773,-74.1441 -125.359,-66.1682 -118.476,-63.3406"/>
</g>
<!-- 34 -->
<g id="node35" class="node"><title>34</title>
<ellipse fill="#1874cd" stroke="black" cx="-98.3833" cy="-349.94" rx="10" ry="10"/>
</g>
<!-- 46 -->
<g id="node47" class="node"><title>46</title>
<ellipse fill="#1874cd" stroke="black" cx="-155.921" cy="-310.414" rx="6" ry="6"/>
</g>
<!-- 34&#45;&gt;46 -->
<g id="edge41" class="edge"><title>34&#45;&gt;46</title>
<path fill="none" stroke="black" d="M-106.873,-344.108C-119.002,-335.776 -140.915,-320.722 -150.818,-313.919"/>
</g>
<!-- 64 -->
<g id="node65" class="node"><title>64</title>
<ellipse fill="white" stroke="black" cx="-67.5766" cy="-294.893" rx="2.5" ry="2.5"/>
</g>
<!-- 34&#45;&gt;64 -->
<g id="edge42" class="edge"><title>34&#45;&gt;64</title>
<path fill="none" stroke="black" d="M-93.2962,-340.85C-86.0502,-327.903 -73.1671,-304.883 -68.9526,-297.352"/>
</g>
<!-- 65 -->
<g id="node66" class="node"><title>65</title>
<ellipse fill="white" stroke="black" cx="-152.257" cy="-382.392" rx="2.5" ry="2.5"/>
</g>
<!-- 34&#45;&gt;65 -->
<g id="edge43" class="edge"><title>34&#45;&gt;65</title>
<path fill="none" stroke="black" d="M-107.279,-355.299C-119.951,-362.932 -142.48,-376.503 -149.85,-380.942"/>
</g>
<!-- 35 -->
<g id="node36" class="node"><title>35</title>
<ellipse fill="#1874cd" stroke="black" cx="50" cy="-50" rx="6" ry="6"/>
</g>
<!-- 36 -->
<g id="node37" class="node"><title>36</title>
<ellipse fill="#1874cd" stroke="black" cx="-38.0184" cy="-257.758" rx="3.5" ry="3.5"/>
</g>
<!-- 36&#45;&gt;64 -->
<g id="edge44" class="edge"><title>36&#45;&gt;64</title>
<path fill="none" stroke="black" d="M-40.3378,-260.672C-46.1083,-267.922 -61.0015,-286.633 -65.9506,-292.851"/>
</g>
<!-- 37 -->
<g id="node38" class="node"><title>37</title>
<ellipse fill="#1874cd" stroke="black" cx="-125.538" cy="-255.705" rx="12" ry="12"/>
</g>
<!-- 41 -->
<g id="node42" class="node"><title>41</title>
<ellipse fill="#1874cd" stroke="black" cx="-119.758" cy="-289.937" rx="3.5" ry="3.5"/>
</g>
<!-- 37&#45;&gt;41 -->
<g id="edge45" class="edge"><title>37&#45;&gt;41</title>
<path fill="none" stroke="black" d="M-123.517,-267.678C-122.397,-274.31 -121.085,-282.079 -120.345,-286.462"/>
</g>
<!-- 42 -->
<g id="node43" class="node"><title>42</title>
<ellipse fill="#1874cd" stroke="black" cx="-162.592" cy="-205.009" rx="7" ry="7"/>
</g>
<!-- 37&#45;&gt;42 -->
<g id="edge46" class="edge"><title>37&#45;&gt;42</title>
<path fill="none" stroke="black" d="M-132.683,-245.931C-140.337,-235.457 -152.225,-219.193 -158.458,-210.665"/>
</g>
<!-- 43 -->
<g id="node44" class="node"><title>43</title>
<ellipse fill="#1874cd" stroke="black" cx="-190.827" cy="-285.381" rx="5" ry="5"/>
</g>
<!-- 37&#45;&gt;43 -->
<g id="edge47" class="edge"><title>37&#45;&gt;43</title>
<path fill="none" stroke="black" d="M-136.613,-260.739C-151.166,-267.354 -176.069,-278.673 -186.268,-283.309"/>
</g>
<!-- 37&#45;&gt;46 -->
<g id="edge48" class="edge"><title>37&#45;&gt;46</title>
<path fill="none" stroke="black" d="M-131.396,-266.254C-137.811,-277.804 -147.85,-295.882 -152.861,-304.905"/>
</g>
<!-- 47 -->
<g id="node48" class="node"><title>47</title>
<ellipse fill="#1874cd" stroke="black" cx="-107.436" cy="-201.77" rx="3.5" ry="3.5"/>
</g>
<!-- 37&#45;&gt;47 -->
<g id="edge49" class="edge"><title>37&#45;&gt;47</title>
<path fill="none" stroke="black" d="M-121.699,-244.267C-117.548,-231.898 -111.177,-212.917 -108.589,-205.205"/>
</g>
<!-- 37&#45;&gt;64 -->
<g id="edge71" class="edge"><title>37&#45;&gt;64</title>
<path fill="none" stroke="black" stroke-dasharray="5,2" d="M-115.442,-262.531C-101.43,-272.005 -76.9873,-288.531 -69.691,-293.464"/>
</g>
<!-- 38 -->
<g id="node39" class="node"><title>38</title>
<ellipse fill="#1874cd" stroke="black" cx="-135.387" cy="-337.205" rx="3.5" ry="3.5"/>
</g>
<!-- 38&#45;&gt;41 -->
<g id="edge50" class="edge"><title>38&#45;&gt;41</title>
<path fill="none" stroke="black" d="M-134.263,-333.806C-131.38,-325.085 -123.744,-301.993 -120.872,-293.306"/>
</g>
<!-- 38&#45;&gt;46 -->
<g id="edge72" class="edge"><title>38&#45;&gt;46</title>
<path fill="none" stroke="black" stroke-dasharray="5,2" d="M-137.585,-334.338C-141.061,-329.802 -147.871,-320.916 -152.143,-315.343"/>
</g>
<!-- 39 -->
<g id="node40" class="node"><title>39</title>
<ellipse fill="#1874cd" stroke="black" cx="3" cy="-47" rx="3.5" ry="3.5"/>
</g>
<!-- 40 -->
<g id="node41" class="node"><title>40</title>
<path fill="#1874cd" stroke="black" stroke-width="0.5" d="M243.684,51.0149C243.684,51.0149 270.184,51.0149 270.184,51.0149 270.184,50.0055 270.126,48.9969 270.011,47.9941 269.896,46.9913 269.724,45.9959 269.495,45.0127 269.267,44.0296 268.982,43.0603 268.643,42.1096 268.304,41.1589 267.91,40.2284 267.465,39.3225 267.02,38.4167 266.523,37.5371 265.977,36.6879 265.431,35.8388 264.838,35.0215 264.199,34.2401 263.56,33.4587 262.877,32.7144 262.153,32.0109 261.429,31.3074 260.665,30.6459 259.866,30.0295 259.866,30.0295 243.684,51.0149 243.684,51.0149"/>
<path fill="olivedrab" stroke="black" stroke-width="0.5" d="M243.684,51.0149C243.684,51.0149 259.866,30.0295 259.866,30.0295 259.279,29.5769 258.673,29.1491 258.051,28.7473 257.428,28.3455 256.788,27.97 256.134,27.6217 255.48,27.2735 254.811,26.9529 254.13,26.6607 253.449,26.3685 252.756,26.1051 252.053,25.871 251.349,25.637 250.637,25.4325 249.916,25.2582 249.196,25.0839 248.468,24.9399 247.736,24.8265 247.003,24.7132 246.267,24.6306 245.527,24.5791 244.788,24.5275 244.047,24.507 243.305,24.5176 242.564,24.5282 241.824,24.5699 241.086,24.6425 240.349,24.7152 239.615,24.8187 238.886,24.9529 238.157,25.0871 237.434,25.2518 236.719,25.4467 236.004,25.6415 235.297,25.8662 234.601,26.1202 233.904,26.3743 233.219,26.6575 232.546,26.969 231.874,27.2805 231.215,27.62 230.571,27.9868 229.927,28.3536 229.298,28.7472 228.687,29.1666 228.076,29.5861 227.483,30.031 226.909,30.5002 226.335,30.9693 225.781,31.4624 225.249,31.978 224.717,32.4936 224.206,33.0313 223.719,33.5897 223.231,34.1481 222.768,34.7267 222.329,35.324 221.89,35.9213 221.476,36.5367 221.089,37.1687 220.702,37.8007 220.341,38.4486 220.008,39.1108 219.675,39.773 219.37,40.4488 219.094,41.1366 218.818,41.8243 218.57,42.5234 218.353,43.2319 218.135,43.9404 217.947,44.6577 217.789,45.3819 217.632,46.1062 217.505,46.8367 217.409,47.5716 217.312,48.3065 217.247,49.0451 217.212,49.7855 217.178,50.5259 217.175,51.2674 217.203,52.008 217.23,52.7487 217.289,53.4878 217.379,54.2236 217.469,54.9593 217.589,55.6909 217.74,56.4166 217.891,57.1422 218.073,57.8611 218.284,58.5715 218.495,59.2819 218.737,59.9832 219.007,60.6734 219.277,61.3636 219.576,62.0421 219.903,62.7073 220.23,63.3724 220.585,64.0235 220.966,64.6589 221.348,65.2943 221.756,65.9134 222.189,66.5146 222.623,67.1158 223.082,67.6985 223.564,68.2612 224.046,68.824 224.552,69.3662 225.08,69.8865 225.608,70.4069 226.157,70.9049 226.727,71.3791 227.296,71.8534 227.885,72.3036 228.493,72.7285 229.1,73.1533 229.725,73.5526 230.366,73.9251 231.006,74.2976 231.663,74.643 232.332,74.9605 233.002,75.278 233.685,75.5672 234.379,75.8275 235.073,76.0878 235.777,76.3188 236.491,76.52 237.204,76.7212 237.926,76.8923 238.653,77.033 239.381,77.1737 240.114,77.2838 240.851,77.3631 241.588,77.4423 242.328,77.4906 243.069,77.5078 243.81,77.525 244.551,77.5111 245.291,77.4661 246.031,77.4212 246.769,77.3452 247.502,77.2384 248.235,77.1316 248.964,76.9941 249.686,76.8262 250.408,76.6583 251.123,76.4603 251.828,76.2325 252.533,76.0047 253.229,75.7474 253.912,75.4614 254.596,75.1753 255.268,74.8606 255.925,74.5183 256.582,74.1759 257.225,73.8061 257.851,73.4098 258.478,73.0136 259.087,72.5912 259.678,72.1439 260.269,71.6966 260.841,71.2246 261.392,70.7293 261.944,70.234 262.474,69.7158 262.982,69.1761 263.49,68.6363 263.975,68.0755 264.436,67.4951 264.897,66.9147 265.333,66.3152 265.744,65.6982 266.155,65.0812 266.539,64.4472 266.897,63.798 267.254,63.1487 267.585,62.4848 267.886,61.8078 268.188,61.1309 268.462,60.4416 268.706,59.7418 268.95,59.0419 269.164,58.3322 269.349,57.6144 269.534,56.8965 269.688,56.1713 269.812,55.4405 269.936,54.7097 270.029,53.9741 270.091,53.2355 270.153,52.4969 270.184,51.7561 270.184,51.0149 270.184,51.0149 243.684,51.0149 243.684,51.0149"/>
<ellipse fill="none" stroke="black" cx="243.684" cy="51.0149" rx="26.5" ry="26.5"/>
</g>
<!-- 52 -->
<g id="node53" class="node"><title>52</title>
<ellipse fill="olivedrab" stroke="black" cx="161.11" cy="76.9832" rx="9" ry="9"/>
</g>
<!-- 40&#45;&gt;52 -->
<g id="edge51" class="edge"><title>40&#45;&gt;52</title>
<path fill="none" stroke="black" d="M218.01,59.0891C201.534,64.2704 181.169,70.675 169.813,74.2464"/>
</g>
<!-- 55 -->
<g id="node56" class="node"><title>55</title>
<ellipse fill="olivedrab" stroke="black" cx="158.258" cy="13.9718" rx="11" ry="11"/>
</g>
<!-- 40&#45;&gt;55 -->
<g id="edge52" class="edge"><title>40&#45;&gt;55</title>
<path fill="none" stroke="black" d="M218.975,40.3005C202.221,33.0355 180.943,23.8089 168.538,18.4297"/>
</g>
<!-- 56 -->
<g id="node57" class="node"><title>56</title>
<ellipse fill="olivedrab" stroke="black" cx="212.999" cy="-14.5009" rx="3.5" ry="3.5"/>
</g>
<!-- 40&#45;&gt;56 -->
<g id="edge53" class="edge"><title>40&#45;&gt;56</title>
<path fill="none" stroke="black" d="M232.432,26.9913C225.727,12.6755 217.898,-4.04118 214.596,-11.0907"/>
</g>
<!-- 57 -->
<g id="node58" class="node"><title>57</title>
<ellipse fill="olivedrab" stroke="black" cx="205" cy="116.647" rx="3.5" ry="3.5"/>
</g>
<!-- 40&#45;&gt;57 -->
<g id="edge54" class="edge"><title>40&#45;&gt;57</title>
<path fill="none" stroke="black" d="M230.154,73.9697C221.439,88.7559 210.988,106.487 206.833,113.536"/>
</g>
<!-- 58 -->
<g id="node59" class="node"><title>58</title>
<ellipse fill="olivedrab" stroke="black" cx="316.735" cy="57.1999" rx="3.5" ry="3.5"/>
</g>
<!-- 40&#45;&gt;58 -->
<g id="edge55" class="edge"><title>40&#45;&gt;58</title>
<path fill="none" stroke="black" d="M270.471,53.2829C286.433,54.6343 305.072,56.2125 312.933,56.878"/>
</g>
<!-- 60 -->
<g id="node61" class="node"><title>60</title>
<ellipse fill="olivedrab" stroke="black" cx="306.875" cy="101.664" rx="3.5" ry="3.5"/>
</g>
<!-- 40&#45;&gt;60 -->
<g id="edge60" class="edge"><title>40&#45;&gt;60</title>
<path fill="none" stroke="black" d="M264.375,67.5992C278.773,79.1393 296.614,93.4392 303.73,99.1433"/>
</g>
<!-- 61 -->
<g id="node62" class="node"><title>61</title>
<ellipse fill="olivedrab" stroke="black" cx="268.244" cy="126.9" rx="3.5" ry="3.5"/>
</g>
<!-- 40&#45;&gt;61 -->
<g id="edge61" class="edge"><title>40&#45;&gt;61</title>
<path fill="none" stroke="black" d="M251.862,76.2835C257.444,93.5295 264.303,114.722 267.037,123.169"/>
</g>
<!-- anon_40_59_0 -->
<g id="node73" class="node"><title>anon_40_59_0</title>
<ellipse fill="white" stroke="black" cx="287.067" cy="-16.2513" rx="2.5" ry="2.5"/>
</g>
<!-- 40&#45;&gt;anon_40_59_0 -->
<g id="edge56" class="edge"><title>40&#45;&gt;anon_40_59_0</title>
<path fill="none" stroke="black" d="M258.13,28.6162C268.383,12.7174 281.078,-6.96538 285.478,-13.7875"/>
</g>
<!-- 49 -->
<g id="node50" class="node"><title>49</title>
<ellipse fill="#1874cd" stroke="black" cx="-192.794" cy="-343.468" rx="5" ry="5"/>
</g>
<!-- 43&#45;&gt;49 -->
<g id="edge62" class="edge"><title>43&#45;&gt;49</title>
<path fill="none" stroke="black" d="M-191.008,-290.741C-191.385,-301.863 -192.247,-327.322 -192.618,-338.288"/>
</g>
<!-- 45 -->
<g id="node46" class="node"><title>45</title>
<ellipse fill="#1874cd" stroke="black" cx="-103.732" cy="-105.919" rx="3.5" ry="3.5"/>
</g>
<!-- 45&#45;&gt;62 -->
<g id="edge63" class="edge"><title>45&#45;&gt;62</title>
<path fill="none" stroke="black" d="M-107.109,-107.313C-115.511,-110.78 -137.194,-119.731 -144.4,-122.705"/>
</g>
<!-- 45&#45;&gt;63 -->
<g id="edge73" class="edge"><title>45&#45;&gt;63</title>
<path fill="none" stroke="black" stroke-dasharray="5,2" d="M-104.692,-102.497C-107.036,-94.144 -113.014,-72.8348 -115.174,-65.1374"/>
</g>
<!-- 46&#45;&gt;49 -->
<g id="edge74" class="edge"><title>46&#45;&gt;49</title>
<path fill="none" stroke="black" stroke-dasharray="5,2" d="M-160.442,-314.467C-167.673,-320.949 -181.731,-333.551 -188.689,-339.788"/>
</g>
<!-- 48 -->
<g id="node49" class="node"><title>48</title>
<ellipse fill="#1874cd" stroke="black" cx="20.4285" cy="-320.682" rx="3.5" ry="3.5"/>
</g>
<!-- anon_48_64_0 -->
<g id="node76" class="node"><title>anon_48_64_0</title>
<ellipse fill="white" stroke="black" cx="-23.9905" cy="-312.859" rx="2.5" ry="2.5"/>
</g>
<!-- 48&#45;&gt;anon_48_64_0 -->
<g id="edge64" class="edge"><title>48&#45;&gt;anon_48_64_0</title>
<path fill="none" stroke="black" d="M16.943,-320.068C8.43503,-318.57 -13.27,-314.747 -21.1102,-313.366"/>
</g>
<!-- 49&#45;&gt;65 -->
<g id="edge75" class="edge"><title>49&#45;&gt;65</title>
<path fill="none" stroke="black" stroke-dasharray="5,2" d="M-189.053,-347.06C-180.742,-355.04 -160.962,-374.033 -154.408,-380.327"/>
</g>
<!-- 50 -->
<g id="node51" class="node"><title>50</title>
<ellipse fill="#1874cd" stroke="black" cx="-159.951" cy="-427.587" rx="3.5" ry="3.5"/>
</g>
<!-- 50&#45;&gt;65 -->
<g id="edge66" class="edge"><title>50&#45;&gt;65</title>
<path fill="none" stroke="black" d="M-159.347,-424.04C-157.845,-415.217 -153.968,-392.445 -152.68,-384.878"/>
</g>
<!-- 51 -->
<g id="node52" class="node"><title>51</title>
<ellipse fill="olivedrab" stroke="black" cx="160.053" cy="128.364" rx="3.5" ry="3.5"/>
</g>
<!-- 51&#45;&gt;52 -->
<g id="edge67" class="edge"><title>51&#45;&gt;52</title>
<path fill="none" stroke="black" d="M160.129,124.668C160.294,116.661 160.688,97.5093 160.923,86.0618"/>
</g>
<!-- 51&#45;&gt;57 -->
<g id="edge76" class="edge"><title>51&#45;&gt;57</title>
<path fill="none" stroke="black" stroke-dasharray="5,2" d="M163.58,127.444C172.024,125.243 193.312,119.694 201.613,117.53"/>
</g>
<!-- 54 -->
<g id="node55" class="node"><title>54</title>
<ellipse fill="olivedrab" stroke="black" cx="114.599" cy="48.3112" rx="5" ry="5"/>
</g>
<!-- 52&#45;&gt;54 -->
<g id="edge68" class="edge"><title>52&#45;&gt;54</title>
<path fill="none" stroke="black" d="M153.43,72.2486C143.625,66.2045 126.985,55.9464 119.056,51.0588"/>
</g>
<!-- 53 -->
<g id="node54" class="node"><title>53</title>
<ellipse fill="olivedrab" stroke="black" cx="-19" cy="-91" rx="3.5" ry="3.5"/>
</g>
<!-- 54&#45;&gt;55 -->
<g id="edge77" class="edge"><title>54&#45;&gt;55</title>
<path fill="none" stroke="black" stroke-dasharray="5,2" d="M118.628,45.1422C125.637,39.6298 140.219,28.16 149.606,20.7767"/>
</g>
<!-- 59 -->
<g id="node60" class="node"><title>59</title>
<ellipse fill="olivedrab" stroke="black" cx="347.845" cy="-129.685" rx="3.5" ry="3.5"/>
</g>
<!-- anon_0_6_0&#45;&gt;6 -->
<g id="edge5" class="edge"><title>anon_0_6_0&#45;&gt;6</title>
<path fill="none" stroke="black" d="M65.8447,83.8935C73.6436,85.5257 96.1617,90.2386 104.988,92.0858"/>
</g>
<!-- anon_0_15_1 -->
<g id="node69" class="node"><title>anon_0_15_1</title>
<ellipse fill="white" stroke="black" cx="-62.9738" cy="-77.2433" rx="2.5" ry="2.5"/>
</g>
<!-- anon_0_15_0&#45;&gt;anon_0_15_1 -->
<g id="edge13" class="edge"><title>anon_0_15_0&#45;&gt;anon_0_15_1</title>
<path fill="none" stroke="black" d="M-54.2352,-35.736C-55.8918,-43.6046 -60.7975,-66.9061 -62.4349,-74.6836"/>
</g>
<!-- anon_0_15_2 -->
<g id="node70" class="node"><title>anon_0_15_2</title>
<ellipse fill="white" stroke="black" cx="-68.1025" cy="-120.128" rx="2.5" ry="2.5"/>
</g>
<!-- anon_0_15_1&#45;&gt;anon_0_15_2 -->
<g id="edge14" class="edge"><title>anon_0_15_1&#45;&gt;anon_0_15_2</title>
<path fill="none" stroke="black" d="M-63.2793,-79.7975C-64.1936,-87.4429 -66.9013,-110.084 -67.8051,-117.64"/>
</g>
<!-- anon_0_15_2&#45;&gt;15 -->
<g id="edge15" class="edge"><title>anon_0_15_2&#45;&gt;15</title>
<path fill="none" stroke="black" d="M-67.8859,-122.706C-67.268,-130.061 -65.4953,-151.159 -64.775,-159.733"/>
</g>
<!-- anon_2_25_0&#45;&gt;25 -->
<g id="edge26" class="edge"><title>anon_2_25_0&#45;&gt;25</title>
<path fill="none" stroke="black" d="M182.911,-155.659C190.153,-151.866 210.092,-141.422 217.893,-137.336"/>
</g>
<!-- anon_4_16_0&#45;&gt;16 -->
<g id="edge31" class="edge"><title>anon_4_16_0&#45;&gt;16</title>
<path fill="none" stroke="black" d="M88.7091,-44.012C90.5343,-36.6565 95.8044,-15.4188 97.8701,-7.09451"/>
</g>
<!-- anon_40_59_1 -->
<g id="node74" class="node"><title>anon_40_59_1</title>
<ellipse fill="white" stroke="black" cx="312.471" cy="-52.1957" rx="2.5" ry="2.5"/>
</g>
<!-- anon_40_59_0&#45;&gt;anon_40_59_1 -->
<g id="edge57" class="edge"><title>anon_40_59_0&#45;&gt;anon_40_59_1</title>
<path fill="none" stroke="black" d="M288.733,-18.6097C293.414,-25.2319 306.621,-43.9191 311.023,-50.1472"/>
</g>
<!-- anon_40_59_2 -->
<g id="node75" class="node"><title>anon_40_59_2</title>
<ellipse fill="white" stroke="black" cx="335.06" cy="-88.4218" rx="2.5" ry="2.5"/>
</g>
<!-- anon_40_59_1&#45;&gt;anon_40_59_2 -->
<g id="edge58" class="edge"><title>anon_40_59_1&#45;&gt;anon_40_59_2</title>
<path fill="none" stroke="black" d="M313.953,-54.5726C318.036,-61.1208 329.418,-79.374 333.543,-85.9887"/>
</g>
<!-- anon_40_59_2&#45;&gt;59 -->
<g id="edge59" class="edge"><title>anon_40_59_2&#45;&gt;59</title>
<path fill="none" stroke="black" d="M335.899,-91.1292C338.121,-98.3011 344.162,-117.8 346.699,-125.987"/>
</g>
<!-- anon_48_64_0&#45;&gt;64 -->
<g id="edge65" class="edge"><title>anon_48_64_0&#45;&gt;64</title>
<path fill="none" stroke="black" d="M-26.3338,-311.893C-33.8311,-308.803 -57.1949,-299.173 -65.0048,-295.953"/>
</g>
</g>
</svg>
