<?xml version="1.0" encoding="UTF-8" standalone="no"?>
<!DOCTYPE svg PUBLIC "-//W3C//DTD SVG 1.1//EN"
 "http://www.w3.org/Graphics/SVG/1.1/DTD/svg11.dtd">
<!-- Generated by graphviz version 2.38.0 (20140413.2041)
 -->
<!-- Title: %3 Pages: 1 -->
<svg width="753pt" height="721pt"
 viewBox="0.00 0.00 753.17 721.21" xmlns="http://www.w3.org/2000/svg" xmlns:xlink="http://www.w3.org/1999/xlink">
<g id="graph0" class="graph" transform="scale(1 1) rotate(0) translate(220.351 500.881)">
<title>%3</title>
<polygon fill="white" stroke="none" points="-220.351,220.327 -220.351,-500.881 532.823,-500.881 532.823,220.327 -220.351,220.327"/>
<!-- 0 -->
<g id="node1" class="node"><title>0</title>
<ellipse fill="grey" stroke="black" cx="154.548" cy="-268.542" rx="33" ry="33"/>
</g>
<!-- 1 -->
<g id="node2" class="node"><title>1</title>
<ellipse fill="grey" stroke="black" cx="229.929" cy="-244.923" rx="3.5" ry="3.5"/>
</g>
<!-- 0&#45;&#45;1 -->
<g id="edge1" class="edge"><title>0&#45;&#45;1</title>
<path fill="none" stroke="black" d="M186.079,-258.663C201.894,-253.707 219.196,-248.286 226.438,-246.017"/>
</g>
<!-- anon_0_15_0 -->
<g id="node63" class="node"><title>anon_0_15_0</title>
<ellipse fill="white" stroke="black" cx="170.796" cy="-363.665" rx="2.5" ry="2.5"/>
</g>
<!-- 0&#45;&#45;anon_0_15_0 -->
<g id="edge2" class="edge"><title>0&#45;&#45;anon_0_15_0</title>
<path fill="none" stroke="black" d="M160.14,-301.278C164.032,-324.064 168.786,-351.895 170.305,-360.789"/>
</g>
<!-- 2 -->
<g id="node3" class="node"><title>2</title>
<ellipse fill="grey" stroke="black" cx="357.31" cy="70.026" rx="41" ry="41"/>
</g>
<!-- 4 -->
<g id="node5" class="node"><title>4</title>
<ellipse fill="grey" stroke="black" cx="245.685" cy="15.5952" rx="13" ry="13"/>
</g>
<!-- 2&#45;&#45;4 -->
<g id="edge6" class="edge"><title>2&#45;&#45;4</title>
<path fill="none" stroke="black" d="M320.451,52.0524C298.605,41.4002 272.364,28.6045 257.495,21.3542"/>
</g>
<!-- 13 -->
<g id="node14" class="node"><title>13</title>
<ellipse fill="grey" stroke="black" cx="334.531" cy="153.566" rx="3.5" ry="3.5"/>
</g>
<!-- 2&#45;&#45;13 -->
<g id="edge7" class="edge"><title>2&#45;&#45;13</title>
<path fill="none" stroke="black" d="M346.454,109.838C342.054,125.976 337.547,142.504 335.569,149.759"/>
</g>
<!-- 17 -->
<g id="node18" class="node"><title>17</title>
<ellipse fill="grey" stroke="black" cx="407.163" cy="11.5874" rx="3.5" ry="3.5"/>
</g>
<!-- 2&#45;&#45;17 -->
<g id="edge8" class="edge"><title>2&#45;&#45;17</title>
<path fill="none" stroke="black" d="M383.988,38.7537C392.508,28.7673 400.753,19.1022 404.717,14.4555"/>
</g>
<!-- 19 -->
<g id="node20" class="node"><title>19</title>
<ellipse fill="grey" stroke="black" cx="333.356" cy="-7.13486" rx="3.5" ry="3.5"/>
</g>
<!-- 2&#45;&#45;19 -->
<g id="edge9" class="edge"><title>2&#45;&#45;19</title>
<path fill="none" stroke="black" d="M345.052,30.5414C340.724,16.5999 336.445,2.81592 334.477,-3.52315"/>
</g>
<!-- 23 -->
<g id="node24" class="node"><title>23</title>
<ellipse fill="grey" stroke="black" cx="476.498" cy="42.1623" rx="11.5" ry="11.5"/>
</g>
<!-- 2&#45;&#45;23 -->
<g id="edge10" class="edge"><title>2&#45;&#45;23</title>
<path fill="none" stroke="black" d="M397.33,60.6703C421.135,55.1052 449.627,48.4442 465.111,44.8245"/>
</g>
<!-- 24 -->
<g id="node25" class="node"><title>24</title>
<ellipse fill="grey" stroke="black" cx="286.998" cy="144.816" rx="3.5" ry="3.5"/>
</g>
<!-- 2&#45;&#45;24 -->
<g id="edge11" class="edge"><title>2&#45;&#45;24</title>
<path fill="none" stroke="black" d="M329.117,100.015C313.529,116.596 296.039,135.2 289.576,142.074"/>
</g>
<!-- 27 -->
<g id="node28" class="node"><title>27</title>
<ellipse fill="grey" stroke="black" cx="284.588" cy="92.8791" rx="3.5" ry="3.5"/>
</g>
<!-- 2&#45;&#45;27 -->
<g id="edge12" class="edge"><title>2&#45;&#45;27</title>
<path fill="none" stroke="black" d="M317.969,82.3889C305.654,86.2592 293.797,89.9852 288.102,91.7749"/>
</g>
<!-- 28 -->
<g id="node29" class="node"><title>28</title>
<ellipse fill="grey" stroke="black" cx="424.426" cy="108.932" rx="3.5" ry="3.5"/>
</g>
<!-- 2&#45;&#45;28 -->
<g id="edge13" class="edge"><title>2&#45;&#45;28</title>
<path fill="none" stroke="black" d="M392.834,90.6181C404.405,97.3256 415.663,103.852 421.081,106.992"/>
</g>
<!-- 29 -->
<g id="node30" class="node"><title>29</title>
<ellipse fill="grey" stroke="black" cx="378.882" cy="-30.8731" rx="3.5" ry="3.5"/>
</g>
<!-- 2&#45;&#45;29 -->
<g id="edge14" class="edge"><title>2&#45;&#45;29</title>
<path fill="none" stroke="black" d="M365.898,29.8581C370.739,7.21621 376.197,-18.3111 378.144,-27.419"/>
</g>
<!-- 3 -->
<g id="node4" class="node"><title>3</title>
<ellipse fill="grey" stroke="black" cx="111.342" cy="-211.335" rx="3.5" ry="3.5"/>
</g>
<!-- 3&#45;&#45;0 -->
<g id="edge15" class="edge"><title>3&#45;&#45;0</title>
<path fill="none" stroke="black" d="M113.665,-214.411C117.661,-219.702 126.206,-231.016 134.455,-241.938"/>
</g>
<!-- 21 -->
<g id="node22" class="node"><title>21</title>
<ellipse fill="grey" stroke="black" cx="192.442" cy="44.2236" rx="3.5" ry="3.5"/>
</g>
<!-- 4&#45;&#45;21 -->
<g id="edge16" class="edge"><title>4&#45;&#45;21</title>
<path fill="none" stroke="black" d="M234.132,21.8071C221.898,28.3851 203.334,38.3669 195.798,42.4192"/>
</g>
<!-- 5 -->
<g id="node6" class="node"><title>5</title>
<ellipse fill="grey" stroke="black" cx="87.9759" cy="-326.663" rx="3.5" ry="3.5"/>
</g>
<!-- 5&#45;&#45;0 -->
<g id="edge17" class="edge"><title>5&#45;&#45;0</title>
<path fill="none" stroke="black" d="M90.8364,-324.166C97.5062,-318.343 114.65,-303.376 129.475,-290.433"/>
</g>
<!-- 6 -->
<g id="node7" class="node"><title>6</title>
<ellipse fill="grey" stroke="black" cx="299.536" cy="-285.697" rx="3.5" ry="3.5"/>
</g>
<!-- anon_6_0_0 -->
<g id="node66" class="node"><title>anon_6_0_0</title>
<ellipse fill="white" stroke="black" cx="252.682" cy="-284.702" rx="2.5" ry="2.5"/>
</g>
<!-- 6&#45;&#45;anon_6_0_0 -->
<g id="edge18" class="edge"><title>6&#45;&#45;anon_6_0_0</title>
<path fill="none" stroke="black" d="M295.86,-285.619C286.713,-285.424 263.104,-284.923 255.259,-284.756"/>
</g>
<!-- 7 -->
<g id="node8" class="node"><title>7</title>
<ellipse fill="grey" stroke="black" cx="58.811" cy="-296.804" rx="5" ry="5"/>
</g>
<!-- 7&#45;&#45;0 -->
<g id="edge20" class="edge"><title>7&#45;&#45;0</title>
<path fill="none" stroke="black" d="M63.6902,-295.364C74.4356,-292.192 100.907,-284.378 122.521,-277.997"/>
</g>
<!-- 8 -->
<g id="node9" class="node"><title>8</title>
<ellipse fill="grey" stroke="black" cx="144.576" cy="-106.942" rx="5" ry="5"/>
</g>
<!-- 9 -->
<g id="node10" class="node"><title>9</title>
<ellipse fill="grey" stroke="black" cx="147.309" cy="-160.984" rx="9" ry="9"/>
</g>
<!-- 9&#45;&#45;0 -->
<g id="edge21" class="edge"><title>9&#45;&#45;0</title>
<path fill="none" stroke="black" d="M147.926,-170.155C148.891,-184.481 150.801,-212.873 152.324,-235.49"/>
</g>
<!-- 9&#45;&#45;8 -->
<g id="edge22" class="edge"><title>9&#45;&#45;8</title>
<path fill="none" stroke="black" d="M146.833,-151.571C146.252,-140.079 145.29,-121.062 144.833,-112.02"/>
</g>
<!-- 10 -->
<g id="node11" class="node"><title>10</title>
<ellipse fill="grey" stroke="black" cx="72.3933" cy="-223.483" rx="3.5" ry="3.5"/>
</g>
<!-- 10&#45;&#45;0 -->
<g id="edge23" class="edge"><title>10&#45;&#45;0</title>
<path fill="none" stroke="black" d="M75.5135,-225.194C83.6616,-229.663 106.262,-242.059 125.218,-252.456"/>
</g>
<!-- 11 -->
<g id="node12" class="node"><title>11</title>
<ellipse fill="grey" stroke="black" cx="221.826" cy="-206.221" rx="3.5" ry="3.5"/>
</g>
<!-- 11&#45;&#45;0 -->
<g id="edge24" class="edge"><title>11&#45;&#45;0</title>
<path fill="none" stroke="black" d="M218.935,-208.899C212.044,-215.282 194.088,-231.915 178.884,-245.999"/>
</g>
<!-- 12 -->
<g id="node13" class="node"><title>12</title>
<ellipse fill="grey" stroke="black" cx="145.045" cy="-59.2527" rx="5" ry="5"/>
</g>
<!-- 12&#45;&#45;8 -->
<g id="edge25" class="edge"><title>12&#45;&#45;8</title>
<path fill="none" stroke="black" d="M144.995,-64.3563C144.905,-73.4871 144.718,-92.5225 144.627,-101.731"/>
</g>
<!-- 14 -->
<g id="node15" class="node"><title>14</title>
<ellipse fill="grey" stroke="black" cx="71.3292" cy="-261.312" rx="3.5" ry="3.5"/>
</g>
<!-- 14&#45;&#45;0 -->
<g id="edge26" class="edge"><title>14&#45;&#45;0</title>
<path fill="none" stroke="black" d="M74.905,-261.623C82.9938,-262.325 103.405,-264.099 121.538,-265.674"/>
</g>
<!-- 15 -->
<g id="node16" class="node"><title>15</title>
<ellipse fill="grey" stroke="black" cx="187.18" cy="-493.381" rx="3.5" ry="3.5"/>
</g>
<!-- 16 -->
<g id="node17" class="node"><title>16</title>
<ellipse fill="grey" stroke="black" cx="193.407" cy="-71.1919" rx="3.5" ry="3.5"/>
</g>
<!-- anon_16_4_0 -->
<g id="node67" class="node"><title>anon_16_4_0</title>
<ellipse fill="white" stroke="black" cx="220.861" cy="-36.6939" rx="2.5" ry="2.5"/>
</g>
<!-- 16&#45;&#45;anon_16_4_0 -->
<g id="edge27" class="edge"><title>16&#45;&#45;anon_16_4_0</title>
<path fill="none" stroke="black" d="M195.94,-68.0082C201.462,-61.0693 214.463,-44.7338 219.144,-38.8519"/>
</g>
<!-- 18 -->
<g id="node19" class="node"><title>18</title>
<ellipse fill="grey" stroke="black" cx="208.282" cy="-312.028" rx="3.5" ry="3.5"/>
</g>
<!-- 18&#45;&#45;0 -->
<g id="edge29" class="edge"><title>18&#45;&#45;0</title>
<path fill="none" stroke="black" d="M205.393,-309.69C200.553,-305.773 190.352,-297.517 180.348,-289.421"/>
</g>
<!-- 20 -->
<g id="node21" class="node"><title>20</title>
<ellipse fill="grey" stroke="black" cx="128.269" cy="-325.709" rx="3.5" ry="3.5"/>
</g>
<!-- 20&#45;&#45;0 -->
<g id="edge30" class="edge"><title>20&#45;&#45;0</title>
<path fill="none" stroke="black" d="M129.834,-322.304C132.044,-317.497 136.299,-308.242 140.663,-298.748"/>
</g>
<!-- 22 -->
<g id="node23" class="node"><title>22</title>
<ellipse fill="grey" stroke="black" cx="177.343" cy="-208.607" rx="3.5" ry="3.5"/>
</g>
<!-- 22&#45;&#45;0 -->
<g id="edge31" class="edge"><title>22&#45;&#45;0</title>
<path fill="none" stroke="black" d="M175.986,-212.177C174.03,-217.318 170.23,-227.31 166.365,-237.472"/>
</g>
<!-- 25 -->
<g id="node26" class="node"><title>25</title>
<ellipse fill="grey" stroke="black" cx="402.114" cy="212.827" rx="3.5" ry="3.5"/>
</g>
<!-- anon_25_2_0 -->
<g id="node68" class="node"><title>anon_25_2_0</title>
<ellipse fill="white" stroke="black" cx="392.728" cy="168.15" rx="2.5" ry="2.5"/>
</g>
<!-- 25&#45;&#45;anon_25_2_0 -->
<g id="edge32" class="edge"><title>25&#45;&#45;anon_25_2_0</title>
<path fill="none" stroke="black" d="M401.377,209.321C399.545,200.599 394.815,178.088 393.244,170.607"/>
</g>
<!-- 26 -->
<g id="node27" class="node"><title>26</title>
<ellipse fill="grey" stroke="black" cx="525.323" cy="71.4328" rx="3.5" ry="3.5"/>
</g>
<!-- 26&#45;&#45;23 -->
<g id="edge34" class="edge"><title>26&#45;&#45;23</title>
<path fill="none" stroke="black" d="M522.12,69.5123C514.991,65.2388 497.572,54.7956 486.438,48.1209"/>
</g>
<!-- 30 -->
<g id="node31" class="node"><title>30</title>
<ellipse fill="grey" stroke="black" cx="510.686" cy="-4.30222" rx="3.5" ry="3.5"/>
</g>
<!-- 30&#45;&#45;23 -->
<g id="edge35" class="edge"><title>30&#45;&#45;23</title>
<path fill="none" stroke="black" d="M508.443,-1.25356C503.452,5.53017 491.254,22.1079 483.458,32.7035"/>
</g>
<!-- 31 -->
<g id="node32" class="node"><title>31</title>
<ellipse fill="grey" stroke="black" cx="50.9143" cy="73.1636" rx="18.5" ry="18.5"/>
</g>
<!-- 32 -->
<g id="node33" class="node"><title>32</title>
<ellipse fill="grey" stroke="black" cx="194.92" cy="185.717" rx="3.5" ry="3.5"/>
</g>
<!-- 33 -->
<g id="node34" class="node"><title>33</title>
<ellipse fill="grey" stroke="black" cx="-45.4554" cy="17.6622" rx="9" ry="9"/>
</g>
<!-- 34 -->
<g id="node35" class="node"><title>34</title>
<ellipse fill="grey" stroke="black" cx="-50.7523" cy="-33.3226" rx="10" ry="10"/>
</g>
<!-- anon_34_50_0 -->
<g id="node69" class="node"><title>anon_34_50_0</title>
<ellipse fill="white" stroke="black" cx="-45.4063" cy="-90.3305" rx="2.5" ry="2.5"/>
</g>
<!-- 34&#45;&#45;anon_34_50_0 -->
<g id="edge36" class="edge"><title>34&#45;&#45;anon_34_50_0</title>
<path fill="none" stroke="black" d="M-49.7965,-43.5145C-48.5472,-56.8374 -46.4297,-79.4165 -45.6796,-87.4152"/>
</g>
<!-- 35 -->
<g id="node36" class="node"><title>35</title>
<ellipse fill="grey" stroke="black" cx="60" cy="-60" rx="6" ry="6"/>
</g>
<!-- 36 -->
<g id="node37" class="node"><title>36</title>
<ellipse fill="grey" stroke="black" cx="45.7093" cy="-6.91682" rx="3.5" ry="3.5"/>
</g>
<!-- anon_36_34_0 -->
<g id="node70" class="node"><title>anon_36_34_0</title>
<ellipse fill="white" stroke="black" cx="1.39677" cy="-14.3636" rx="2.5" ry="2.5"/>
</g>
<!-- 36&#45;&#45;anon_36_34_0 -->
<g id="edge38" class="edge"><title>36&#45;&#45;anon_36_34_0</title>
<path fill="none" stroke="black" d="M42.2322,-7.50116C33.7446,-8.92752 12.0916,-12.5664 4.2701,-13.8808"/>
</g>
<!-- anon_36_48_0 -->
<g id="node71" class="node"><title>anon_36_48_0</title>
<ellipse fill="white" stroke="black" cx="89.5503" cy="-4.67448" rx="2.5" ry="2.5"/>
</g>
<!-- 36&#45;&#45;anon_36_48_0 -->
<g id="edge40" class="edge"><title>36&#45;&#45;anon_36_48_0</title>
<path fill="none" stroke="black" d="M49.4472,-6.72564C58.0613,-6.28506 79.1518,-5.20634 86.7579,-4.81731"/>
</g>
<!-- 37 -->
<g id="node38" class="node"><title>37</title>
<ellipse fill="grey" stroke="black" cx="-144.781" cy="47.0018" rx="12" ry="12"/>
</g>
<!-- 42 -->
<g id="node43" class="node"><title>42</title>
<ellipse fill="grey" stroke="black" cx="-209.351" cy="30.6553" rx="7" ry="7"/>
</g>
<!-- 37&#45;&#45;42 -->
<g id="edge43" class="edge"><title>37&#45;&#45;42</title>
<path fill="none" stroke="black" d="M-156.624,44.0036C-170.022,40.6118 -191.399,35.2 -202.364,32.4241"/>
</g>
<!-- 43 -->
<g id="node44" class="node"><title>43</title>
<ellipse fill="grey" stroke="black" cx="-130.733" cy="107.517" rx="5" ry="5"/>
</g>
<!-- 37&#45;&#45;43 -->
<g id="edge44" class="edge"><title>37&#45;&#45;43</title>
<path fill="none" stroke="black" d="M-142.005,58.9576C-138.935,72.1845 -134.129,92.8856 -131.918,102.409"/>
</g>
<!-- 46 -->
<g id="node47" class="node"><title>46</title>
<ellipse fill="grey" stroke="black" cx="-109.302" cy="-8.28182" rx="6" ry="6"/>
</g>
<!-- 37&#45;&#45;46 -->
<g id="edge45" class="edge"><title>37&#45;&#45;46</title>
<path fill="none" stroke="black" d="M-138.273,36.862C-130.671,25.0167 -118.395,5.88715 -112.57,-3.18921"/>
</g>
<!-- 47 -->
<g id="node48" class="node"><title>47</title>
<ellipse fill="grey" stroke="black" cx="-190.425" cy="77.93" rx="3.5" ry="3.5"/>
</g>
<!-- 37&#45;&#45;47 -->
<g id="edge46" class="edge"><title>37&#45;&#45;47</title>
<path fill="none" stroke="black" d="M-154.91,53.8658C-165.206,60.8419 -180.554,71.2419 -187.183,75.7336"/>
</g>
<!-- 38 -->
<g id="node39" class="node"><title>38</title>
<ellipse fill="grey" stroke="black" cx="-144.941" cy="-47.7862" rx="3.5" ry="3.5"/>
</g>
<!-- 41 -->
<g id="node42" class="node"><title>41</title>
<ellipse fill="grey" stroke="black" cx="-177.824" cy="-82.0226" rx="3.5" ry="3.5"/>
</g>
<!-- 38&#45;&#45;41 -->
<g id="edge47" class="edge"><title>38&#45;&#45;41</title>
<path fill="none" stroke="black" d="M-147.521,-50.4726C-153.699,-56.9041 -169.273,-73.12 -175.346,-79.4423"/>
</g>
<!-- 38&#45;&#45;46 -->
<g id="edge48" class="edge"><title>38&#45;&#45;46</title>
<path fill="none" stroke="black" d="M-142.378,-44.9451C-136.313,-38.2224 -121.031,-21.283 -113.554,-12.9955"/>
</g>
<!-- 39 -->
<g id="node40" class="node"><title>39</title>
<ellipse fill="grey" stroke="black" cx="3" cy="-84" rx="3.5" ry="3.5"/>
</g>
<!-- 40 -->
<g id="node41" class="node"><title>40</title>
<ellipse fill="grey" stroke="black" cx="-71.5754" cy="-333.858" rx="26.5" ry="26.5"/>
</g>
<!-- 52 -->
<g id="node53" class="node"><title>52</title>
<ellipse fill="grey" stroke="black" cx="-54.6019" cy="-242.308" rx="9" ry="9"/>
</g>
<!-- 40&#45;&#45;52 -->
<g id="edge49" class="edge"><title>40&#45;&#45;52</title>
<path fill="none" stroke="black" d="M-66.666,-307.378C-63.1804,-288.578 -58.7095,-264.463 -56.3085,-251.513"/>
</g>
<!-- 55 -->
<g id="node56" class="node"><title>55</title>
<ellipse fill="grey" stroke="black" cx="-135.193" cy="-405.538" rx="11" ry="11"/>
</g>
<!-- 40&#45;&#45;55 -->
<g id="edge50" class="edge"><title>40&#45;&#45;55</title>
<path fill="none" stroke="black" d="M-89.2963,-353.825C-101.944,-368.075 -118.314,-386.52 -127.696,-397.091"/>
</g>
<!-- 56 -->
<g id="node57" class="node"><title>56</title>
<ellipse fill="grey" stroke="black" cx="-131.801" cy="-353.115" rx="3.5" ry="3.5"/>
</g>
<!-- 40&#45;&#45;56 -->
<g id="edge51" class="edge"><title>40&#45;&#45;56</title>
<path fill="none" stroke="black" d="M-97.1166,-342.025C-109.171,-345.879 -122.226,-350.053 -128.311,-351.999"/>
</g>
<!-- 57 -->
<g id="node58" class="node"><title>57</title>
<ellipse fill="grey" stroke="black" cx="-147.352" cy="-305.5" rx="3.5" ry="3.5"/>
</g>
<!-- 40&#45;&#45;57 -->
<g id="edge52" class="edge"><title>40&#45;&#45;57</title>
<path fill="none" stroke="black" d="M-96.808,-324.415C-114.03,-317.97 -135.192,-310.051 -143.627,-306.894"/>
</g>
<!-- 58 -->
<g id="node59" class="node"><title>58</title>
<ellipse fill="grey" stroke="black" cx="1.16492" cy="-329.011" rx="3.5" ry="3.5"/>
</g>
<!-- 40&#45;&#45;58 -->
<g id="edge53" class="edge"><title>40&#45;&#45;58</title>
<path fill="none" stroke="black" d="M-44.9026,-332.081C-29.0082,-331.021 -10.4482,-329.785 -2.62126,-329.263"/>
</g>
<!-- 60 -->
<g id="node61" class="node"><title>60</title>
<ellipse fill="grey" stroke="black" cx="-15.9666" cy="-289.337" rx="3.5" ry="3.5"/>
</g>
<!-- 40&#45;&#45;60 -->
<g id="edge58" class="edge"><title>40&#45;&#45;60</title>
<path fill="none" stroke="black" d="M-50.8687,-317.28C-38.7639,-307.589 -24.7356,-296.358 -18.8248,-291.625"/>
</g>
<!-- 61 -->
<g id="node62" class="node"><title>61</title>
<ellipse fill="grey" stroke="black" cx="-112.588" cy="-272.987" rx="3.5" ry="3.5"/>
</g>
<!-- 40&#45;&#45;61 -->
<g id="edge59" class="edge"><title>40&#45;&#45;61</title>
<path fill="none" stroke="black" d="M-86.614,-311.537C-95.5755,-298.237 -106.04,-282.705 -110.453,-276.155"/>
</g>
<!-- anon_40_59_0 -->
<g id="node73" class="node"><title>anon_40_59_0</title>
<ellipse fill="white" stroke="black" cx="-25.8619" cy="-399.406" rx="2.5" ry="2.5"/>
</g>
<!-- 40&#45;&#45;anon_40_59_0 -->
<g id="edge54" class="edge"><title>40&#45;&#45;anon_40_59_0</title>
<path fill="none" stroke="black" d="M-56.3535,-355.684C-45.5488,-371.177 -32.1725,-390.357 -27.5363,-397.005"/>
</g>
<!-- 44 -->
<g id="node45" class="node"><title>44</title>
<ellipse fill="grey" stroke="black" cx="2.1749" cy="36.7344" rx="6" ry="6"/>
</g>
<!-- 44&#45;&#45;31 -->
<g id="edge60" class="edge"><title>44&#45;&#45;31</title>
<path fill="none" stroke="black" d="M7.02641,40.3606C13.672,45.3277 25.9061,54.4718 35.7725,61.8462"/>
</g>
<!-- 44&#45;&#45;33 -->
<g id="edge61" class="edge"><title>44&#45;&#45;33</title>
<path fill="none" stroke="black" d="M-3.6655,34.3958C-12.0121,31.0536 -27.4012,24.8915 -36.9949,21.05"/>
</g>
<!-- 45 -->
<g id="node46" class="node"><title>45</title>
<ellipse fill="grey" stroke="black" cx="132.081" cy="129.908" rx="3.5" ry="3.5"/>
</g>
<!-- anon_45_31_0 -->
<g id="node76" class="node"><title>anon_45_31_0</title>
<ellipse fill="white" stroke="black" cx="99.8701" cy="102.567" rx="2.5" ry="2.5"/>
</g>
<!-- 45&#45;&#45;anon_45_31_0 -->
<g id="edge62" class="edge"><title>45&#45;&#45;anon_45_31_0</title>
<path fill="none" stroke="black" d="M129.108,127.385C122.629,121.886 107.377,108.939 101.885,104.277"/>
</g>
<!-- anon_45_32_0 -->
<g id="node77" class="node"><title>anon_45_32_0</title>
<ellipse fill="white" stroke="black" cx="160.495" cy="161.248" rx="2.5" ry="2.5"/>
</g>
<!-- 45&#45;&#45;anon_45_32_0 -->
<g id="edge64" class="edge"><title>45&#45;&#45;anon_45_32_0</title>
<path fill="none" stroke="black" d="M134.703,132.801C140.418,139.104 153.873,153.944 158.718,159.287"/>
</g>
<!-- 46&#45;&#45;34 -->
<g id="edge66" class="edge"><title>46&#45;&#45;34</title>
<path fill="none" stroke="black" d="M-103.474,-10.7744C-93.2922,-15.1288 -72.1912,-24.1535 -59.9973,-29.3686"/>
</g>
<!-- 48 -->
<g id="node49" class="node"><title>48</title>
<ellipse fill="grey" stroke="black" cx="171.652" cy="16.2476" rx="3.5" ry="3.5"/>
</g>
<!-- 49 -->
<g id="node50" class="node"><title>49</title>
<ellipse fill="grey" stroke="black" cx="-138.401" cy="156.878" rx="5" ry="5"/>
</g>
<!-- 49&#45;&#45;43 -->
<g id="edge67" class="edge"><title>49&#45;&#45;43</title>
<path fill="none" stroke="black" d="M-137.58,151.596C-136.096,142.045 -132.987,122.026 -131.524,112.613"/>
</g>
<!-- 50 -->
<g id="node51" class="node"><title>50</title>
<ellipse fill="grey" stroke="black" cx="-41.2734" cy="-135.72" rx="3.5" ry="3.5"/>
</g>
<!-- 51 -->
<g id="node52" class="node"><title>51</title>
<ellipse fill="grey" stroke="black" cx="-39.7632" cy="-192.414" rx="3.5" ry="3.5"/>
</g>
<!-- 51&#45;&#45;52 -->
<g id="edge68" class="edge"><title>51&#45;&#45;52</title>
<path fill="none" stroke="black" d="M-40.8304,-196.002C-43.1429,-203.778 -48.6739,-222.376 -51.98,-233.492"/>
</g>
<!-- 53 -->
<g id="node54" class="node"><title>53</title>
<ellipse fill="grey" stroke="black" cx="-78" cy="78" rx="3.5" ry="3.5"/>
</g>
<!-- 54 -->
<g id="node55" class="node"><title>54</title>
<ellipse fill="grey" stroke="black" cx="-184.25" cy="-434.286" rx="5" ry="5"/>
</g>
<!-- 55&#45;&#45;54 -->
<g id="edge69" class="edge"><title>55&#45;&#45;54</title>
<path fill="none" stroke="black" d="M-145.12,-411.355C-155.759,-417.59 -172.16,-427.201 -179.91,-431.743"/>
</g>
<!-- 59 -->
<g id="node60" class="node"><title>59</title>
<ellipse fill="grey" stroke="black" cx="64.3652" cy="-492.956" rx="3.5" ry="3.5"/>
</g>
<!-- anon_0_15_1 -->
<g id="node64" class="node"><title>anon_0_15_1</title>
<ellipse fill="white" stroke="black" cx="173.652" cy="-408.434" rx="2.5" ry="2.5"/>
</g>
<!-- anon_0_15_0&#45;&#45;anon_0_15_1 -->
<g id="edge3" class="edge"><title>anon_0_15_0&#45;&#45;anon_0_15_1</title>
<path fill="none" stroke="black" d="M170.966,-366.331C171.475,-374.312 172.983,-397.948 173.486,-405.837"/>
</g>
<!-- anon_0_15_2 -->
<g id="node65" class="node"><title>anon_0_15_2</title>
<ellipse fill="white" stroke="black" cx="177.176" cy="-451.315" rx="2.5" ry="2.5"/>
</g>
<!-- anon_0_15_1&#45;&#45;anon_0_15_2 -->
<g id="edge4" class="edge"><title>anon_0_15_1&#45;&#45;anon_0_15_2</title>
<path fill="none" stroke="black" d="M173.862,-410.988C174.478,-418.488 176.281,-440.423 176.935,-448.384"/>
</g>
<!-- anon_0_15_2&#45;&#45;15 -->
<g id="edge5" class="edge"><title>anon_0_15_2&#45;&#45;15</title>
<path fill="none" stroke="black" d="M177.832,-454.075C179.571,-461.386 184.298,-481.264 186.283,-489.611"/>
</g>
<!-- anon_6_0_0&#45;&#45;0 -->
<g id="edge19" class="edge"><title>anon_6_0_0&#45;&#45;0</title>
<path fill="none" stroke="black" d="M249.85,-284.235C240.674,-282.724 210.967,-277.833 187.131,-273.908"/>
</g>
<!-- anon_16_4_0&#45;&#45;4 -->
<g id="edge28" class="edge"><title>anon_16_4_0&#45;&#45;4</title>
<path fill="none" stroke="black" d="M222.059,-34.1719C225.235,-27.4806 234.038,-8.93812 239.955,3.52513"/>
</g>
<!-- anon_25_2_0&#45;&#45;2 -->
<g id="edge33" class="edge"><title>anon_25_2_0&#45;&#45;2</title>
<path fill="none" stroke="black" d="M391.852,165.724C388.976,157.756 379.527,131.579 371.238,108.613"/>
</g>
<!-- anon_34_50_0&#45;&#45;50 -->
<g id="edge37" class="edge"><title>anon_34_50_0&#45;&#45;50</title>
<path fill="none" stroke="black" d="M-45.1601,-93.0339C-44.4511,-100.821 -42.404,-123.303 -41.6016,-132.116"/>
</g>
<!-- anon_36_34_0&#45;&#45;34 -->
<g id="edge39" class="edge"><title>anon_36_34_0&#45;&#45;34</title>
<path fill="none" stroke="black" d="M-1.11849,-15.2781C-8.28016,-17.8817 -29.0543,-25.4342 -41.3387,-29.9003"/>
</g>
<!-- anon_36_48_1 -->
<g id="node72" class="node"><title>anon_36_48_1</title>
<ellipse fill="white" stroke="black" cx="130.88" cy="3.18897" rx="2.5" ry="2.5"/>
</g>
<!-- anon_36_48_0&#45;&#45;anon_36_48_1 -->
<g id="edge41" class="edge"><title>anon_36_48_0&#45;&#45;anon_36_48_1</title>
<path fill="none" stroke="black" d="M92.2621,-4.15854C99.7329,-2.73715 120.558,1.22499 128.104,2.66082"/>
</g>
<!-- anon_36_48_1&#45;&#45;48 -->
<g id="edge42" class="edge"><title>anon_36_48_1&#45;&#45;48</title>
<path fill="none" stroke="black" d="M133.555,4.04578C140.642,6.31547 159.908,12.4862 167.998,15.0773"/>
</g>
<!-- anon_40_59_1 -->
<g id="node74" class="node"><title>anon_40_59_1</title>
<ellipse fill="white" stroke="black" cx="4.99632" cy="-431.109" rx="2.5" ry="2.5"/>
</g>
<!-- anon_40_59_0&#45;&#45;anon_40_59_1 -->
<g id="edge55" class="edge"><title>anon_40_59_0&#45;&#45;anon_40_59_1</title>
<path fill="none" stroke="black" d="M-23.8372,-401.486C-18.152,-407.327 -2.10915,-423.809 3.23764,-429.302"/>
</g>
<!-- anon_40_59_2 -->
<g id="node75" class="node"><title>anon_40_59_2</title>
<ellipse fill="white" stroke="black" cx="36.4261" cy="-460.177" rx="2.5" ry="2.5"/>
</g>
<!-- anon_40_59_1&#45;&#45;anon_40_59_2 -->
<g id="edge56" class="edge"><title>anon_40_59_1&#45;&#45;anon_40_59_2</title>
<path fill="none" stroke="black" d="M7.05852,-433.016C12.7397,-438.27 28.5762,-452.917 34.3151,-458.224"/>
</g>
<!-- anon_40_59_2&#45;&#45;59 -->
<g id="edge57" class="edge"><title>anon_40_59_2&#45;&#45;59</title>
<path fill="none" stroke="black" d="M38.2592,-462.327C43.1153,-468.025 56.3176,-483.514 61.8612,-490.019"/>
</g>
<!-- anon_45_31_0&#45;&#45;31 -->
<g id="edge63" class="edge"><title>anon_45_31_0&#45;&#45;31</title>
<path fill="none" stroke="black" d="M97.5088,101.149C92.0845,97.8909 78.3416,89.6368 67.1776,82.9315"/>
</g>
<!-- anon_45_32_0&#45;&#45;32 -->
<g id="edge65" class="edge"><title>anon_45_32_0&#45;&#45;32</title>
<path fill="none" stroke="black" d="M162.754,162.853C168.737,167.106 185.004,178.669 191.835,183.524"/>
</g>
</g>
</svg>
