<?xml version="1.0" encoding="UTF-8" standalone="no"?>
<!DOCTYPE svg PUBLIC "-//W3C//DTD SVG 1.1//EN"
 "http://www.w3.org/Graphics/SVG/1.1/DTD/svg11.dtd">
<!-- Generated by graphviz version 2.38.0 (20140413.2041)
 -->
<!-- Title: %3 Pages: 1 -->
<svg width="199pt" height="235pt"
 viewBox="0.00 0.00 199.26 235.17" xmlns="http://www.w3.org/2000/svg" xmlns:xlink="http://www.w3.org/1999/xlink">
<g id="graph0" class="graph" transform="scale(1 1) rotate(0) translate(67.9858 161.345)">
<title>%3</title>
<polygon fill="white" stroke="none" points="-67.9858,73.824 -67.9858,-161.345 131.27,-161.345 131.27,73.824 -67.9858,73.824"/>
<!-- 0 -->
<g id="node1" class="node"><title>0</title>
<ellipse fill="palegreen" stroke="black" cx="26.7648" cy="-66.9996" rx="33" ry="33"/>
<text text-anchor="middle" x="26.7648" y="-65.0996" font-family="monospace" font-size="8.00">0</text>
</g>
<!-- 1 -->
<g id="node2" class="node"><title>1</title>
<ellipse fill="palegreen" stroke="black" cx="-14.808" cy="-143.155" rx="3.5" ry="3.5"/>
<text text-anchor="middle" x="-14.808" y="-141.255" font-family="monospace" font-size="8.00">1</text>
</g>
<!-- 0&#45;&gt;1 -->
<g id="edge1" class="edge"><title>0&#45;&gt;1</title>
<path fill="none" stroke="black" d="M10.8106,-96.2256C1.65141,-113.004 -8.83289,-132.21 -12.9815,-139.81"/>
</g>
<!-- 2 -->
<g id="node3" class="node"><title>2</title>
<ellipse fill="palegreen" stroke="black" cx="27.7494" cy="-153.845" rx="3.5" ry="3.5"/>
<text text-anchor="middle" x="27.7494" y="-151.945" font-family="monospace" font-size="8.00">2</text>
</g>
<!-- 0&#45;&gt;2 -->
<g id="edge2" class="edge"><title>0&#45;&gt;2</title>
<path fill="none" stroke="black" d="M27.1427,-100.328C27.3618,-119.653 27.6129,-141.801 27.7091,-150.285"/>
</g>
<!-- 3 -->
<g id="node4" class="node"><title>3</title>
<ellipse fill="palegreen" stroke="black" cx="70.5932" cy="-143.42" rx="3.5" ry="3.5"/>
<text text-anchor="middle" x="70.5932" y="-141.52" font-family="monospace" font-size="8.00">3</text>
</g>
<!-- 0&#45;&gt;3 -->
<g id="edge3" class="edge"><title>0&#45;&gt;3</title>
<path fill="none" stroke="black" d="M43.3345,-95.891C53.0309,-112.798 64.2141,-132.297 68.6427,-140.019"/>
</g>
<!-- 4 -->
<g id="node5" class="node"><title>4</title>
<ellipse fill="palegreen" stroke="black" cx="122.27" cy="-71.826" rx="5" ry="5"/>
<text text-anchor="middle" x="122.27" y="-69.926" font-family="monospace" font-size="8.00">4</text>
</g>
<!-- 0&#45;&gt;4 -->
<g id="edge4" class="edge"><title>0&#45;&gt;4</title>
<path fill="none" stroke="black" d="M59.8998,-68.6741C78.214,-69.5996 99.7029,-70.6856 112.078,-71.3109"/>
<polygon fill="black" stroke="black" points="111.996,-73.0589 117.078,-71.5636 112.173,-69.5634 111.996,-73.0589"/>
<text text-anchor="middle" x="99.4887" y="-72.5925" font-family="monospace" font-size="8.00">I492N</text>
</g>
<!-- 6 -->
<g id="node7" class="node"><title>6</title>
<ellipse fill="palegreen" stroke="black" cx="23.5736" cy="32.4056" rx="9" ry="9"/>
<text text-anchor="middle" x="23.5736" y="34.3056" font-family="monospace" font-size="8.00">6</text>
</g>
<!-- 0&#45;&gt;6 -->
<g id="edge5" class="edge"><title>0&#45;&gt;6</title>
<path fill="none" stroke="black" d="M25.7022,-33.8991C25.0567,-13.7927 24.2797,10.4089 23.8662,23.2902"/>
</g>
<!-- 7 -->
<g id="node8" class="node"><title>7</title>
<ellipse fill="palegreen" stroke="black" cx="-60.4858" cy="-72.2006" rx="3.5" ry="3.5"/>
<text text-anchor="middle" x="-60.4858" y="-70.3006" font-family="monospace" font-size="8.00">7</text>
</g>
<!-- 0&#45;&gt;7 -->
<g id="edge6" class="edge"><title>0&#45;&gt;7</title>
<path fill="none" stroke="black" d="M-6.2209,-68.9658C-25.717,-70.128 -48.2322,-71.4701 -56.8634,-71.9846"/>
</g>
<!-- 8 -->
<g id="node9" class="node"><title>8</title>
<ellipse fill="palegreen" stroke="black" cx="-55.1537" cy="-28.2447" rx="3.5" ry="3.5"/>
<text text-anchor="middle" x="-55.1537" y="-26.3447" font-family="monospace" font-size="8.00">8</text>
</g>
<!-- 0&#45;&gt;8 -->
<g id="edge7" class="edge"><title>0&#45;&gt;8</title>
<path fill="none" stroke="black" d="M-3.27343,-52.7888C-21.904,-43.9748 -43.7865,-33.6224 -51.9076,-29.7804"/>
</g>
<!-- 9 -->
<g id="node10" class="node"><title>9</title>
<ellipse fill="palegreen" stroke="black" cx="71.586" cy="14.8935" rx="5" ry="5"/>
<text text-anchor="middle" x="71.586" y="16.7935" font-family="monospace" font-size="8.00">9</text>
</g>
<!-- 0&#45;&gt;9 -->
<g id="edge8" class="edge"><title>0&#45;&gt;9</title>
<path fill="none" stroke="black" d="M42.6933,-37.8966C52.4561,-20.0589 64.0147,1.05983 69.0407,10.2429"/>
</g>
<!-- 10 -->
<g id="node11" class="node"><title>10</title>
<ellipse fill="palegreen" stroke="black" cx="98.2388" cy="-34.8298" rx="3.5" ry="3.5"/>
<text text-anchor="middle" x="98.2388" y="-32.9298" font-family="monospace" font-size="8.00">10</text>
</g>
<!-- 0&#45;&gt;10 -->
<g id="edge9" class="edge"><title>0&#45;&gt;10</title>
<path fill="none" stroke="black" d="M57.0762,-53.3567C71.9908,-46.6438 88.1962,-39.3499 94.9732,-36.2996"/>
</g>
<!-- 11 -->
<g id="node12" class="node"><title>11</title>
<ellipse fill="palegreen" stroke="black" cx="-47.1868" cy="-113.595" rx="3.5" ry="3.5"/>
<text text-anchor="middle" x="-47.1868" y="-111.695" font-family="monospace" font-size="8.00">11</text>
</g>
<!-- 0&#45;&gt;11 -->
<g id="edge10" class="edge"><title>0&#45;&gt;11</title>
<path fill="none" stroke="black" d="M-1.1931,-84.6155C-14.9975,-93.3134 -30.5878,-103.137 -39.6113,-108.822"/>
<polygon fill="black" stroke="black" points="-40.5983,-107.376 -43.8957,-111.522 -38.7325,-110.337 -40.5983,-107.376"/>
<text text-anchor="middle" x="-33.9022" y="-99.3189" font-family="monospace" font-size="8.00">M925L</text>
</g>
<!-- 12 -->
<g id="node13" class="node"><title>12</title>
<ellipse fill="palegreen" stroke="black" cx="-20.8264" cy="-3.55056" rx="3.5" ry="3.5"/>
<text text-anchor="middle" x="-20.8264" y="-1.65056" font-family="monospace" font-size="8.00">12</text>
</g>
<!-- 0&#45;&gt;12 -->
<g id="edge11" class="edge"><title>0&#45;&gt;12</title>
<path fill="none" stroke="black" d="M6.85761,-40.4591C-3.12708,-27.1474 -14.0506,-12.5841 -18.6225,-6.48884"/>
</g>
<!-- 13 -->
<g id="node14" class="node"><title>13</title>
<ellipse fill="palegreen" stroke="black" cx="99.4153" cy="-111.364" rx="3.5" ry="3.5"/>
<text text-anchor="middle" x="99.4153" y="-109.464" font-family="monospace" font-size="8.00">13</text>
</g>
<!-- 0&#45;&gt;13 -->
<g id="edge12" class="edge"><title>0&#45;&gt;13</title>
<path fill="none" stroke="black" d="M55.0614,-84.2792C70.9982,-94.0111 89.1052,-105.068 96.2645,-109.44"/>
</g>
<!-- 5 -->
<g id="node6" class="node"><title>5</title>
<ellipse fill="palegreen" stroke="black" cx="64.704" cy="64.824" rx="5" ry="5"/>
<text text-anchor="middle" x="64.704" y="66.724" font-family="monospace" font-size="8.00">5</text>
</g>
<!-- 5&#45;&gt;6 -->
<g id="edge13" class="edge"><title>5&#45;&gt;6</title>
<path fill="none" stroke="black" d="M60.6099,61.5971C53.62,56.0878 39.304,44.8041 30.6617,37.9924"/>
</g>
<!-- 5&#45;&gt;9 -->
<g id="edge14" class="edge"><title>5&#45;&gt;9</title>
<path fill="none" stroke="black" stroke-dasharray="5,2" d="M65.389,59.854C66.6946,50.3819 69.5276,29.8277 70.8625,20.1426"/>
</g>
</g>
</svg>
