<?xml version="1.0" encoding="UTF-8" standalone="no"?>
<!DOCTYPE svg PUBLIC "-//W3C//DTD SVG 1.1//EN"
 "http://www.w3.org/Graphics/SVG/1.1/DTD/svg11.dtd">
<!-- Generated by graphviz version 2.38.0 (20140413.2041)
 -->
<!-- Title: %3 Pages: 1 -->
<svg width="328pt" height="348pt"
 viewBox="0.00 0.00 328.36 347.79" xmlns="http://www.w3.org/2000/svg" xmlns:xlink="http://www.w3.org/1999/xlink">
<g id="graph0" class="graph" transform="scale(1 1) rotate(0) translate(184.023 210.521)">
<title>%3</title>
<polygon fill="white" stroke="none" points="-184.023,137.266 -184.023,-210.521 144.34,-210.521 144.34,137.266 -184.023,137.266"/>
<!-- 0 -->
<g id="node1" class="node"><title>0</title>
<path fill="#787878" stroke="black" stroke-width="0.5" d="M22.3038,9.41739C22.3038,9.41739 80.3038,9.41739 80.3038,9.41739 80.3038,7.95718 80.2487,6.49749 80.1385,5.04145 80.0284,3.5854 79.8632,2.13403 79.6435,0.690448 79.4238,-0.753137 79.1497,-2.18791 78.8217,-3.6108 78.4937,-5.0337 78.1121,-6.4437 77.6776,-7.83779 77.2432,-9.23188 76.7563,-10.6091 76.218,-11.9664 75.6796,-13.3238 75.0902,-14.6603 74.4509,-15.9731 73.8117,-17.286 73.1231,-18.5742 72.3867,-19.8351 71.6502,-21.096 70.8664,-22.3286 70.0369,-23.5304 69.2074,-24.7321 68.3328,-25.9021 67.415,-27.0378 66.4972,-28.1735 65.5369,-29.2742 64.536,-30.3374 63.5351,-31.4006 62.4945,-32.4257 61.4162,-33.4104 60.338,-34.3951 59.223,-35.3387 58.0735,-36.2393 56.9241,-37.1398 55.741,-37.9966 54.5269,-38.8078 53.3128,-39.6191 52.0685,-40.3842 50.7966,-41.1015 49.5247,-41.8189 48.2262,-42.4879 46.9039,-43.1073 45.5815,-43.7266 44.2362,-44.2958 42.8709,-44.8136 41.5056,-45.3314 40.1212,-45.7974 38.7207,-46.2107 37.3202,-46.624 35.9046,-46.9843 34.4769,-47.2908 33.0492,-47.5972 31.6105,-47.8497 30.1638,-48.0476 28.717,-48.2455 27.2633,-48.3886 25.8058,-48.4768 24.3482,-48.565 22.8879,-48.598 21.4278,-48.576 19.9678,-48.5539 18.5091,-48.4768 17.0549,-48.3446 15.6007,-48.2125 14.152,-48.0254 12.7119,-47.784 11.2718,-47.5425 9.8413,-47.2467 8.42352,-46.8972 7.00574,-46.5478 5.60167,-46.1449 4.2143,-45.6895 2.82693,-45.2341 1.45725,-44.7264 0.108191,-44.1676 -1.24087,-43.6088 -2.56834,-42.9993 -3.87139,-42.3403 -5.17444,-41.6813 -6.45214,-40.9733 -7.70176,-40.2179 -8.95138,-39.4625 -10.172,-38.6602 -11.3611,-37.8126 -12.5502,-36.9651 -13.7068,-36.0729 -14.8285,-35.1381 -15.9502,-34.2032 -17.0363,-33.2264 -18.0843,-32.2095 -19.1323,-31.1927 -20.1415,-30.1367 -21.1098,-29.0437 -21.1098,-29.0437 22.3038,9.41739 22.3038,9.41739"/>
<path fill="palegreen" stroke="black" stroke-width="0.5" d="M22.3038,9.41739C22.3038,9.41739 -21.1098,-29.0437 -21.1098,-29.0437 -22.6594,-27.2946 -24.1018,-25.4535 -25.4292,-23.5304 -26.7567,-21.6072 -27.9667,-19.6057 -29.0526,-17.5366 -30.1386,-15.4674 -31.0985,-13.3346 -31.9271,-11.1497 -32.7557,-8.96478 -33.4516,-6.73178 -34.0108,-4.46292 -34.57,-2.19405 -34.9916,0.106535 -35.2733,2.42626 -35.5549,4.74599 -35.6962,7.08062 -35.6962,9.41739 -35.6962,11.7542 -35.5549,14.0888 -35.2733,16.4085 -34.9916,18.7282 -34.57,21.0288 -34.0108,23.2977 -33.4516,25.5666 -32.7557,27.7996 -31.9271,29.9845 -31.0985,32.1694 -30.1386,34.3022 -29.0526,36.3713 -27.9667,38.4404 -26.7567,40.442 -25.4292,42.3651 -24.1018,44.2883 -22.6594,46.1294 -21.1098,47.8785 -19.5602,49.6276 -17.9064,51.2815 -16.1573,52.831 -14.4082,54.3806 -12.567,55.823 -10.6439,57.1505 -8.7208,58.4779 -6.71921,59.6879 -4.65011,60.7738 -2.58101,61.8598 -0.448165,62.8197 1.73675,63.6483 3.92166,64.477 6.15466,65.1728 8.42352,65.732 10.6924,66.2912 12.993,66.7128 15.3127,66.9945 17.6324,67.2762 19.9671,67.4174 22.3038,67.4174 24.6406,67.4174 26.9752,67.2762 29.295,66.9945 31.6147,66.7128 33.9153,66.2912 36.1841,65.732 38.453,65.1728 40.686,64.477 42.8709,63.6483 45.0558,62.8197 47.1887,61.8598 49.2578,60.7738 51.3269,59.6879 53.3285,58.4779 55.2516,57.1505 57.1747,55.823 59.0159,54.3806 60.7649,52.831 62.514,51.2814 64.1679,49.6276 65.7175,47.8785 67.267,46.1294 68.7095,44.2883 70.0369,42.3651 71.3643,40.442 72.5743,38.4404 73.6603,36.3713 74.7462,34.3022 75.7061,32.1694 76.5348,29.9845 77.3634,27.7996 78.0592,25.5666 78.6185,23.2977 79.1777,21.0288 79.5993,18.7282 79.8809,16.4085 80.1626,14.0888 80.3038,11.7542 80.3038,9.41739 80.3038,9.41739 22.3038,9.41739 22.3038,9.41739"/>
<ellipse fill="none" stroke="black" cx="22.3038" cy="9.41739" rx="58" ry="58"/>
</g>
<!-- 1 -->
<g id="node2" class="node"><title>1</title>
<ellipse fill="palegreen" stroke="black" cx="12.0339" cy="-138.667" rx="18.5" ry="18.5"/>
</g>
<!-- 0&#45;&#45;1 -->
<g id="edge1" class="edge"><title>0&#45;&#45;1</title>
<path fill="none" stroke="black" d="M18.2744,-48.6846C16.5098,-74.1277 14.5625,-102.207 13.3202,-120.12"/>
</g>
<!-- 2 -->
<g id="node3" class="node"><title>2</title>
<ellipse fill="#787878" stroke="black" cx="-121.865" cy="35.4859" rx="16" ry="16"/>
</g>
<!-- 2&#45;&#45;0 -->
<g id="edge2" class="edge"><title>2&#45;&#45;0</title>
<path fill="none" stroke="black" d="M-105.885,32.5965C-88.7302,29.4945 -60.4801,24.3863 -34.8598,19.7537"/>
</g>
<!-- 3 -->
<g id="node4" class="node"><title>3</title>
<ellipse fill="palegreen" stroke="black" cx="9.38084" cy="-201.521" rx="5" ry="5"/>
</g>
<!-- 3&#45;&#45;1 -->
<g id="edge3" class="edge"><title>3&#45;&#45;1</title>
<path fill="none" stroke="black" d="M9.60704,-196.162C9.96543,-187.672 10.6807,-170.727 11.2423,-157.422"/>
</g>
<!-- 4 -->
<g id="node5" class="node"><title>4</title>
<ellipse fill="palegreen" stroke="black" cx="82.0248" cy="-75.2146" rx="5" ry="5"/>
</g>
<!-- 4&#45;&#45;0 -->
<g id="edge4" class="edge"><title>4&#45;&#45;0</title>
<path fill="none" stroke="black" d="M78.814,-70.6644C74.2107,-64.141 65.2419,-51.431 55.7815,-38.0245"/>
</g>
<!-- 5 -->
<g id="node6" class="node"><title>5</title>
<ellipse fill="#787878" stroke="black" cx="-49.5314" cy="-59.9364" rx="5" ry="5"/>
</g>
<!-- 5&#45;&#45;0 -->
<g id="edge5" class="edge"><title>5&#45;&#45;0</title>
<path fill="none" stroke="black" d="M-45.6692,-56.2076C-40.4236,-51.1432 -30.4651,-41.5287 -19.7558,-31.1893"/>
</g>
<!-- 6 -->
<g id="node7" class="node"><title>6</title>
<ellipse fill="#787878" stroke="black" cx="-156.344" cy="88.8077" rx="5" ry="5"/>
</g>
<!-- 6&#45;&#45;2 -->
<g id="edge6" class="edge"><title>6&#45;&#45;2</title>
<path fill="none" stroke="black" d="M-153.404,84.2615C-148.453,76.6052 -138.263,60.8455 -130.8,49.3042"/>
</g>
<!-- 7 -->
<g id="node8" class="node"><title>7</title>
<ellipse fill="palegreen" stroke="black" cx="135.34" cy="40.7069" rx="5" ry="5"/>
</g>
<!-- 7&#45;&#45;0 -->
<g id="edge7" class="edge"><title>7&#45;&#45;0</title>
<path fill="none" stroke="black" d="M130.483,39.3625C121.144,36.7774 99.7123,30.8448 78.3668,24.9361"/>
</g>
<!-- 8 -->
<g id="node9" class="node"><title>8</title>
<ellipse fill="#787878" stroke="black" cx="-26.6644" cy="100.245" rx="5" ry="5"/>
</g>
<!-- 8&#45;&#45;0 -->
<g id="edge8" class="edge"><title>8&#45;&#45;0</title>
<path fill="none" stroke="black" d="M-24.1687,95.6159C-20.4657,88.7474 -13.1112,75.1062 -5.32533,60.6647"/>
</g>
<!-- 9 -->
<g id="node10" class="node"><title>9</title>
<ellipse fill="palegreen" stroke="black" cx="98.8332" cy="100.642" rx="5" ry="5"/>
</g>
<!-- 9&#45;&#45;0 -->
<g id="edge9" class="edge"><title>9&#45;&#45;0</title>
<path fill="none" stroke="black" d="M95.5448,96.7224C89.1363,89.0832 74.3164,71.4176 59.6718,53.9608"/>
</g>
<!-- 10 -->
<g id="node11" class="node"><title>10</title>
<ellipse fill="#787878" stroke="black" cx="34.6106" cy="128.266" rx="5" ry="5"/>
</g>
<!-- 10&#45;&#45;0 -->
<g id="edge10" class="edge"><title>10&#45;&#45;0</title>
<path fill="none" stroke="black" d="M34.0818,123.159C33.0467,113.162 30.6467,89.9859 28.2815,67.1444"/>
</g>
<!-- 11 -->
<g id="node12" class="node"><title>11</title>
<ellipse fill="#787878" stroke="black" cx="-175.023" cy="1.80106" rx="5" ry="5"/>
</g>
<!-- 11&#45;&#45;2 -->
<g id="edge11" class="edge"><title>11&#45;&#45;2</title>
<path fill="none" stroke="black" d="M-170.491,4.67301C-162.858,9.50965 -147.147,19.4655 -135.641,26.7564"/>
</g>
<!-- 12 -->
<g id="node13" class="node"><title>12</title>
<ellipse fill="#787878" stroke="black" cx="134.9" cy="-30.0321" rx="5" ry="5"/>
</g>
<!-- 12&#45;&#45;0 -->
<g id="edge12" class="edge"><title>12&#45;&#45;0</title>
<path fill="none" stroke="black" d="M130.062,-28.337C120.633,-25.0335 98.8288,-17.3941 77.2825,-9.84509"/>
</g>
</g>
</svg>
