<?xml version="1.0" encoding="UTF-8" standalone="no"?>
<!DOCTYPE svg PUBLIC "-//W3C//DTD SVG 1.1//EN"
 "http://www.w3.org/Graphics/SVG/1.1/DTD/svg11.dtd">
<!-- Generated by graphviz version 2.38.0 (20140413.2041)
 -->
<!-- Title: %3 Pages: 1 -->
<svg width="186pt" height="172pt"
 viewBox="0.00 0.00 186.17 172.37" xmlns="http://www.w3.org/2000/svg" xmlns:xlink="http://www.w3.org/1999/xlink">
<g id="graph0" class="graph" transform="scale(1 1) rotate(0) translate(90.2767 105.152)">
<title>%3</title>
<polygon fill="white" stroke="none" points="-90.2767,67.2158 -90.2767,-105.152 95.8976,-105.152 95.8976,67.2158 -90.2767,67.2158"/>
<!-- 0 -->
<g id="node1" class="node"><title>0</title>
<ellipse fill="palegreen" stroke="black" cx="9.94801" cy="-14.9468" rx="33" ry="33"/>
</g>
<!-- 1 -->
<g id="node2" class="node"><title>1</title>
<ellipse fill="palegreen" stroke="black" cx="-46.3708" cy="35.1264" rx="3.5" ry="3.5"/>
</g>
<!-- 0&#45;&#45;1 -->
<g id="edge1" class="edge"><title>0&#45;&#45;1</title>
<path fill="none" stroke="black" d="M-14.9182,7.1618C-26.2334,17.2222 -38.2679,27.9221 -43.5779,32.6433"/>
</g>
<!-- 2 -->
<g id="node3" class="node"><title>2</title>
<ellipse fill="palegreen" stroke="black" cx="73.5758" cy="-55.3196" rx="3.5" ry="3.5"/>
</g>
<!-- 0&#45;&#45;2 -->
<g id="edge2" class="edge"><title>0&#45;&#45;2</title>
<path fill="none" stroke="black" d="M38.0413,-32.7724C50.825,-40.8839 64.4213,-49.5109 70.4204,-53.3175"/>
</g>
<!-- 3 -->
<g id="node4" class="node"><title>3</title>
<ellipse fill="palegreen" stroke="black" cx="-16.239" cy="55.7713" rx="3.5" ry="3.5"/>
</g>
<!-- 0&#45;&#45;3 -->
<g id="edge3" class="edge"><title>0&#45;&#45;3</title>
<path fill="none" stroke="black" d="M-1.61424,16.277C-6.8756,30.4853 -12.4714,45.5967 -14.9404,52.2644"/>
</g>
<!-- 4 -->
<g id="node5" class="node"><title>4</title>
<ellipse fill="palegreen" stroke="black" cx="86.8976" cy="-20.4143" rx="5" ry="5"/>
</g>
<!-- 0&#45;&#45;4 -->
<g id="edge4" class="edge"><title>0&#45;&#45;4</title>
<path fill="none" stroke="black" d="M43.0281,-17.2973C57.8554,-18.3508 73.7732,-19.4818 81.7367,-20.0476"/>
</g>
<!-- 6 -->
<g id="node7" class="node"><title>6</title>
<ellipse fill="palegreen" stroke="black" cx="-64.4576" cy="-48.7875" rx="9" ry="9"/>
</g>
<!-- 0&#45;&#45;6 -->
<g id="edge5" class="edge"><title>0&#45;&#45;6</title>
<path fill="none" stroke="black" d="M-20.3156,-28.7111C-33.3513,-34.6399 -47.5654,-41.1047 -56.2464,-45.0529"/>
</g>
<!-- 7 -->
<g id="node8" class="node"><title>7</title>
<ellipse fill="palegreen" stroke="black" cx="-63.0773" cy="2.62611" rx="3.5" ry="3.5"/>
</g>
<!-- 0&#45;&#45;7 -->
<g id="edge6" class="edge"><title>0&#45;&#45;7</title>
<path fill="none" stroke="black" d="M-22.2945,-7.18791C-36.9664,-3.65725 -52.5708,0.0978023 -59.456,1.75467"/>
</g>
<!-- 8 -->
<g id="node9" class="node"><title>8</title>
<ellipse fill="palegreen" stroke="black" cx="11.6745" cy="-90.0239" rx="3.5" ry="3.5"/>
</g>
<!-- 0&#45;&#45;8 -->
<g id="edge7" class="edge"><title>0&#45;&#45;8</title>
<path fill="none" stroke="black" d="M10.7103,-48.0953C11.0571,-63.1793 11.4261,-79.2222 11.5888,-86.3008"/>
</g>
<!-- 9 -->
<g id="node10" class="node"><title>9</title>
<ellipse fill="palegreen" stroke="black" cx="-38.9863" cy="-76.0107" rx="5" ry="5"/>
</g>
<!-- 0&#45;&#45;9 -->
<g id="edge8" class="edge"><title>0&#45;&#45;9</title>
<path fill="none" stroke="black" d="M-10.8045,-40.8434C-20.3905,-52.8055 -30.7554,-65.7395 -35.8274,-72.0687"/>
</g>
<!-- 10 -->
<g id="node11" class="node"><title>10</title>
<ellipse fill="palegreen" stroke="black" cx="54.9862" cy="45.5033" rx="3.5" ry="3.5"/>
</g>
<!-- 0&#45;&#45;10 -->
<g id="edge9" class="edge"><title>0&#45;&#45;10</title>
<path fill="none" stroke="black" d="M29.8335,11.7435C38.8823,23.8888 48.5063,36.806 52.7527,42.5056"/>
</g>
<!-- 11 -->
<g id="node12" class="node"><title>11</title>
<ellipse fill="palegreen" stroke="black" cx="78.4688" cy="16.3732" rx="3.5" ry="3.5"/>
</g>
<!-- 0&#45;&#45;11 -->
<g id="edge10" class="edge"><title>0&#45;&#45;11</title>
<path fill="none" stroke="black" d="M40.2017,-1.11822C53.9685,5.17442 68.6103,11.867 75.0708,14.82"/>
</g>
<!-- 12 -->
<g id="node13" class="node"><title>12</title>
<ellipse fill="palegreen" stroke="black" cx="47.0828" cy="-80.499" rx="3.5" ry="3.5"/>
</g>
<!-- 0&#45;&#45;12 -->
<g id="edge11" class="edge"><title>0&#45;&#45;12</title>
<path fill="none" stroke="black" d="M26.3439,-43.8898C33.8049,-57.0602 41.74,-71.0677 45.2412,-77.2483"/>
</g>
<!-- 13 -->
<g id="node14" class="node"><title>13</title>
<ellipse fill="palegreen" stroke="black" cx="20.4892" cy="59.7158" rx="3.5" ry="3.5"/>
</g>
<!-- 0&#45;&#45;13 -->
<g id="edge12" class="edge"><title>0&#45;&#45;13</title>
<path fill="none" stroke="black" d="M14.6022,18.0187C16.7201,33.0195 18.9726,48.9737 19.9665,56.0133"/>
</g>
<!-- 5 -->
<g id="node6" class="node"><title>5</title>
<ellipse fill="palegreen" stroke="black" cx="-81.2767" cy="-96.1518" rx="5" ry="5"/>
</g>
<!-- 5&#45;&#45;6 -->
<g id="edge13" class="edge"><title>5&#45;&#45;6</title>
<path fill="none" stroke="black" d="M-79.6025,-91.4372C-76.7775,-83.4815 -71.0258,-67.2844 -67.4803,-57.2997"/>
</g>
<!-- 5&#45;&#45;9 -->
<g id="edge14" class="edge"><title>5&#45;&#45;9</title>
<path fill="none" stroke="black" stroke-dasharray="5,2" d="M-76.7509,-93.9964C-68.6538,-90.14 -51.7735,-82.1007 -43.6078,-78.2117"/>
</g>
</g>
</svg>
