<?xml version="1.0" encoding="UTF-8" standalone="no"?>
<!DOCTYPE svg PUBLIC "-//W3C//DTD SVG 1.1//EN"
 "http://www.w3.org/Graphics/SVG/1.1/DTD/svg11.dtd">
<!-- Generated by graphviz version 2.38.0 (20140413.2041)
 -->
<!-- Title: %3 Pages: 1 -->
<svg width="509pt" height="532pt"
 viewBox="0.00 0.00 509.32 531.51" xmlns="http://www.w3.org/2000/svg" xmlns:xlink="http://www.w3.org/1999/xlink">
<g id="graph0" class="graph" transform="scale(1 1) rotate(0) translate(244.417 240.739)">
<title>%3</title>
<polygon fill="white" stroke="none" points="-244.417,290.773 -244.417,-240.739 264.906,-240.739 264.906,290.773 -244.417,290.773"/>
<!-- 0 -->
<g id="node1" class="node"><title>0</title>
<path fill="#98f5ff" stroke="black" stroke-width="0.5" d="M93.5652,-162.784C93.5652,-162.784 119.065,-162.784 119.065,-162.784 119.065,-163.518 119.033,-164.253 118.97,-164.984 118.907,-165.716 118.812,-166.445 118.685,-167.168 118.559,-167.892 118.402,-168.609 118.213,-169.319 118.025,-170.029 117.806,-170.731 117.558,-171.422 117.309,-172.113 117.03,-172.793 116.723,-173.46 116.415,-174.127 116.079,-174.78 115.715,-175.418 115.351,-176.056 114.96,-176.678 114.543,-177.282 114.125,-177.887 113.681,-178.472 113.213,-179.038 112.745,-179.604 112.253,-180.15 111.737,-180.673 111.222,-181.196 110.685,-181.697 110.126,-182.174 109.568,-182.651 108.989,-183.104 108.391,-183.531 107.794,-183.958 107.178,-184.359 106.546,-184.733 105.914,-185.107 105.266,-185.453 104.603,-185.771 103.941,-186.089 103.266,-186.378 102.579,-186.638 101.892,-186.897 101.194,-187.127 100.487,-187.327 99.78,-187.526 99.0649,-187.695 98.3434,-187.832 98.3434,-187.832 93.5652,-162.784 93.5652,-162.784"/>
<path fill="deepskyblue" stroke="black" stroke-width="0.5" d="M93.5652,-162.784C93.5652,-162.784 98.3434,-187.832 98.3434,-187.832 97.064,-188.076 95.7679,-188.222 94.4662,-188.268 93.1646,-188.314 91.8614,-188.26 90.568,-188.107 89.2746,-187.954 87.9948,-187.702 86.7399,-187.354 85.485,-187.005 84.2586,-186.561 83.0716,-186.025 81.8845,-185.489 80.7403,-184.863 79.6489,-184.152 78.5575,-183.441 77.5222,-182.648 76.552,-181.779 75.5818,-180.91 74.6797,-179.968 73.8534,-178.961 73.0272,-177.954 72.2792,-176.886 71.6163,-175.765 70.9533,-174.644 70.3771,-173.473 69.8929,-172.264 69.4087,-171.055 69.0178,-169.811 68.7238,-168.542 68.4297,-167.273 68.2332,-165.984 68.1361,-164.685 68.039,-163.386 68.0416,-162.082 68.1438,-160.783 68.246,-159.485 68.4475,-158.196 68.7466,-156.929 69.0456,-155.661 69.4414,-154.418 69.9303,-153.211 70.4193,-152.004 71,-150.836 71.6674,-149.717 72.3348,-148.599 73.0869,-147.533 73.9171,-146.53 74.7473,-145.526 75.6532,-144.588 76.6267,-143.723 77.6003,-142.857 78.6388,-142.068 79.7329,-141.362 80.8271,-140.655 81.9738,-140.034 83.1629,-139.502 84.352,-138.971 85.5801,-138.531 86.8364,-138.188 88.0927,-137.844 89.3734,-137.597 90.6674,-137.449 91.9614,-137.301 93.2649,-137.253 94.5663,-137.304 95.8677,-137.355 97.1633,-137.506 98.4417,-137.755 99.7201,-138.004 100.978,-138.35 102.203,-138.792 103.428,-139.233 104.618,-139.767 105.762,-140.39 106.906,-141.013 108,-141.723 109.036,-142.513 110.071,-143.303 111.044,-144.171 111.947,-145.11 112.85,-146.049 113.679,-147.056 114.428,-148.121 115.177,-149.187 115.843,-150.308 116.421,-151.476 116.998,-152.643 117.486,-153.853 117.878,-155.095 118.271,-156.337 118.568,-157.607 118.767,-158.894 118.965,-160.181 119.065,-161.482 119.065,-162.784 119.065,-162.784 93.5652,-162.784 93.5652,-162.784"/>
<ellipse fill="none" stroke="black" cx="93.5652" cy="-162.784" rx="25.5" ry="25.5"/>
<text text-anchor="middle" x="93.5652" y="-160.884" font-family="monospace" font-size="8.00">0</text>
</g>
<!-- 6 -->
<g id="node7" class="node"><title>6</title>
<path fill="brown" stroke="black" stroke-width="0.5" d="M60.2535,-30.3188C60.2535,-30.3188 94.7535,-30.3188 94.7535,-30.3188 94.7535,-31.3266 94.7093,-32.3339 94.6212,-33.3378 94.533,-34.3417 94.4008,-35.3413 94.2251,-36.3336 94.0495,-37.3259 93.8304,-38.3101 93.5685,-39.2833 93.3066,-40.2564 93.0023,-41.2176 92.6563,-42.1642 92.3102,-43.1107 91.9229,-44.0416 91.4954,-44.9542 91.0679,-45.8668 90.6006,-46.7602 90.0949,-47.6319 89.5892,-48.5036 89.0455,-49.3527 88.4654,-50.1768 87.8854,-51.0009 87.2695,-51.7991 86.6195,-52.5693 85.9696,-53.3395 85.2862,-54.0808 84.5713,-54.7912 83.8565,-55.5015 83.1108,-56.1802 82.3365,-56.8252 81.5623,-57.4703 80.7601,-58.0811 79.9324,-58.656 79.1046,-59.2308 78.2521,-59.7691 77.3772,-60.2693 76.5023,-60.7695 75.6059,-61.2311 74.6907,-61.6528 73.7754,-62.0745 72.842,-62.456 71.8933,-62.796 70.9447,-63.136 69.9815,-63.4343 69.0067,-63.6899 68.0319,-63.9456 67.0464,-64.1585 66.053,-64.3279 65.0596,-64.4973 64.0592,-64.6231 63.0547,-64.7049 62.0503,-64.7868 61.0427,-64.8245 60.035,-64.8181 59.0272,-64.8118 58.0202,-64.7612 57.0169,-64.6667 56.0136,-64.5721 55.0149,-64.4337 54.0237,-64.2517 53.0325,-64.0697 52.0497,-63.8444 51.0782,-63.5764 50.1068,-63.3084 49.1475,-62.9979 48.2032,-62.6459 47.2589,-62.2939 46.3305,-61.9007 45.4206,-61.4674 44.5107,-61.0342 43.6203,-60.5612 42.7518,-60.05 41.8833,-59.5387 41.0377,-58.9897 40.2173,-58.4044 39.3969,-57.8191 38.6025,-57.1982 37.8365,-56.5434 37.0704,-55.8886 36.3335,-55.2005 35.6277,-54.4812 34.9219,-53.7618 34.2479,-53.0119 33.6078,-52.2335 32.9676,-51.4552 32.3619,-50.6492 31.7923,-49.8178 31.2227,-48.9864 30.6898,-48.1305 30.1952,-47.2525 29.7006,-46.3745 29.2446,-45.4752 28.8287,-44.5572 28.4128,-43.6393 28.0373,-42.7036 27.7033,-41.7527 27.3693,-40.8019 27.0771,-39.8369 26.8276,-38.8605 26.5781,-37.8841 26.3715,-36.8973 26.2084,-35.9028 26.0453,-34.9083 25.9258,-33.9072 25.8504,-32.9022 25.7749,-31.8973 25.7435,-30.8895 25.7563,-29.8818 25.769,-28.8741 25.826,-27.8675 25.9268,-26.8648 26.0277,-25.8621 26.1725,-24.8643 26.3608,-23.8742 26.549,-22.8842 26.7806,-21.9029 27.0547,-20.9331 27.3289,-19.9634 27.6454,-19.0061 28.0034,-18.064 28.3614,-17.122 28.7604,-16.1961 29.1995,-15.2889 29.6385,-14.3818 30.1171,-13.4944 30.6338,-12.6292 31.1505,-11.764 31.7049,-10.9218 32.2954,-10.1051 32.8859,-9.28845 33.5118,-8.49803 34.1715,-7.73615 34.8311,-6.97428 35.5239,-6.24167 36.2477,-5.54044 36.9714,-4.83921 37.7256,-4.17003 38.508,-3.53483 39.2904,-2.89962 40.1002,-2.29901 40.9352,-1.7347 41.7702,-1.1704 42.6294,-0.642954 43.5106,-0.15388 44.3917,0.335194 45.2939,0.785425 46.2144,1.19552 47.135,1.60561 48.0731,1.97517 49.026,2.30313 49.9789,2.6311 50.9457,2.91715 51.9237,3.16047 52.9016,3.40379 53.8898,3.60415 54.8853,3.76096 55.8808,3.91777 56.8827,4.03088 57.8881,4.09998 58.8935,4.16907 59.9014,4.19408 60.909,4.17493 61.9166,4.15579 62.9229,4.0925 63.9249,3.98525 64.927,3.87801 65.9238,3.72691 66.9127,3.53239 67.9015,3.33787 68.8813,3.10012 69.8493,2.81982 70.8173,2.53952 71.7726,2.21694 72.7123,1.853 73.6521,1.48907 74.5755,1.08414 75.4798,0.639365 76.3841,0.194593 77.2685,-0.289589 78.1304,-0.811787 78.9923,-1.33399 79.831,-1.8937 80.6439,-2.48932 81.4568,-3.08494 82.2432,-3.71589 83.0009,-4.38036 83.7586,-5.04483 84.4868,-5.74218 85.1835,-6.4704 85.8801,-7.19863 86.5445,-7.95703 87.1747,-8.74342 87.1747,-8.74342 60.2535,-30.3188 60.2535,-30.3188"/>
<path fill="#ff3030" stroke="black" stroke-width="0.5" d="M60.2535,-30.3188C60.2535,-30.3188 87.1747,-8.74342 87.1747,-8.74342 88.1469,-9.95643 89.0359,-11.2338 89.8358,-12.5667 90.6356,-13.8996 91.3445,-15.285 91.9575,-16.7136 91.9575,-16.7136 60.2535,-30.3188 60.2535,-30.3188"/>
<path fill="deepskyblue" stroke="black" stroke-width="0.5" d="M60.2535,-30.3188C60.2535,-30.3188 91.9575,-16.7136 91.9575,-16.7136 92.4172,-17.7848 92.8223,-18.8786 93.1713,-19.9908 93.5203,-21.103 93.8126,-22.2322 94.0473,-23.374 94.2819,-24.5159 94.4586,-25.6688 94.5765,-26.8285 94.6944,-27.9882 94.7535,-29.1532 94.7535,-30.3188 94.7535,-30.3188 60.2535,-30.3188 60.2535,-30.3188"/>
<ellipse fill="none" stroke="black" cx="60.2535" cy="-30.3188" rx="34.5" ry="34.5"/>
<text text-anchor="middle" x="60.2535" y="-28.4188" font-family="monospace" font-size="8.00">6</text>
</g>
<!-- 0&#45;&#45;6 -->
<g id="edge1" class="edge"><title>0&#45;&#45;6</title>
<path fill="none" stroke="black" d="M87.2995,-137.868C82.0601,-117.034 74.5368,-87.1169 68.7544,-64.123"/>
</g>
<!-- 22 -->
<g id="node23" class="node"><title>22</title>
<ellipse fill="deepskyblue" stroke="black" cx="113.664" cy="-231.015" rx="3.5" ry="3.5"/>
<text text-anchor="middle" x="113.664" y="-229.115" font-family="monospace" font-size="8.00">22</text>
</g>
<!-- 0&#45;&#45;22 -->
<g id="edge2" class="edge"><title>0&#45;&#45;22</title>
<path fill="none" stroke="black" d="M100.821,-187.417C105.229,-202.381 110.416,-219.988 112.605,-227.419"/>
</g>
<!-- 24 -->
<g id="node25" class="node"><title>24</title>
<ellipse fill="deepskyblue" stroke="black" cx="142.517" cy="-214.929" rx="3.5" ry="3.5"/>
<text text-anchor="middle" x="142.517" y="-213.029" font-family="monospace" font-size="8.00">24</text>
</g>
<!-- 0&#45;&#45;24 -->
<g id="edge3" class="edge"><title>0&#45;&#45;24</title>
<path fill="none" stroke="black" d="M111.238,-181.61C121.973,-193.045 134.605,-206.501 139.936,-212.181"/>
</g>
<!-- 58 -->
<g id="node59" class="node"><title>58</title>
<ellipse fill="black" stroke="black" cx="81.5669" cy="-233.239" rx="3.5" ry="3.5"/>
<text text-anchor="middle" x="81.5669" y="-231.339" font-family="monospace" font-size="8.00">58</text>
</g>
<!-- 0&#45;&#45;58 -->
<g id="edge4" class="edge"><title>0&#45;&#45;58</title>
<path fill="none" stroke="black" d="M89.2335,-188.22C86.6022,-203.671 83.506,-221.852 82.1993,-229.525"/>
</g>
<!-- 1 -->
<g id="node2" class="node"><title>1</title>
<ellipse fill="deepskyblue" stroke="black" cx="-127.928" cy="-16.2801" rx="3.5" ry="3.5"/>
<text text-anchor="middle" x="-127.928" y="-14.3801" font-family="monospace" font-size="8.00">1</text>
</g>
<!-- 3 -->
<g id="node4" class="node"><title>3</title>
<path fill="#1874cd" stroke="black" stroke-width="0.5" d="M-105.876,-90.7006C-105.876,-90.7006 -71.8755,-90.7006 -71.8755,-90.7006 -71.8755,-91.9866 -71.9485,-93.2717 -72.0941,-94.5495 -72.2397,-95.8273 -72.4577,-97.0958 -72.747,-98.3489 -73.0363,-99.602 -73.3964,-100.838 -73.8257,-102.05 -74.255,-103.262 -74.7528,-104.449 -75.3165,-105.605 -75.8803,-106.761 -76.5092,-107.884 -77.2002,-108.969 -77.8912,-110.053 -78.6432,-111.098 -79.4526,-112.097 -80.2619,-113.097 -81.1273,-114.05 -82.0446,-114.951 -82.9619,-115.853 -83.9296,-116.701 -84.943,-117.493 -85.9565,-118.285 -87.014,-119.018 -88.1106,-119.69 -89.2071,-120.362 -90.3409,-120.972 -91.5065,-121.515 -92.6721,-122.059 -93.8676,-122.535 -95.0872,-122.944 -96.3068,-123.352 -97.5486,-123.69 -98.8065,-123.958 -100.065,-124.225 -101.337,-124.421 -102.617,-124.544 -103.897,-124.667 -105.183,-124.718 -106.469,-124.695 -107.755,-124.673 -109.038,-124.578 -110.313,-124.41 -111.588,-124.242 -112.853,-124.002 -114.101,-123.691 -114.101,-123.691 -105.876,-90.7006 -105.876,-90.7006"/>
<path fill="#98f5ff" stroke="black" stroke-width="0.5" d="M-105.876,-90.7006C-105.876,-90.7006 -114.101,-123.691 -114.101,-123.691 -115.061,-123.451 -116.01,-123.17 -116.945,-122.848 -117.88,-122.526 -118.801,-122.163 -119.705,-121.761 -120.608,-121.359 -121.494,-120.917 -122.359,-120.438 -123.224,-119.958 -124.068,-119.441 -124.888,-118.888 -124.888,-118.888 -105.876,-90.7006 -105.876,-90.7006"/>
<path fill="#ff3030" stroke="black" stroke-width="0.5" d="M-105.876,-90.7006C-105.876,-90.7006 -124.888,-118.888 -124.888,-118.888 -126.159,-118.03 -127.371,-117.088 -128.516,-116.067 -129.66,-115.045 -130.733,-113.948 -131.729,-112.782 -132.725,-111.616 -133.641,-110.383 -134.471,-109.094 -135.3,-107.804 -136.042,-106.459 -136.69,-105.07 -137.338,-103.68 -137.891,-102.248 -138.346,-100.783 -138.801,-99.3184 -139.156,-97.8247 -139.409,-96.3122 -139.662,-94.7997 -139.813,-93.2717 -139.86,-91.7389 -139.907,-90.206 -139.85,-88.6718 -139.689,-87.1466 -139.529,-85.6214 -139.266,-84.1089 -138.901,-82.6192 -138.537,-81.1296 -138.072,-79.6664 -137.51,-78.2395 -136.948,-76.8127 -136.29,-75.4255 -135.54,-74.0874 -134.791,-72.7494 -133.952,-71.4636 -133.029,-70.2389 -132.106,-69.0141 -131.101,-67.8532 -130.022,-66.7641 -128.942,-65.675 -127.79,-64.6601 -126.573,-63.7266 -125.357,-62.793 -124.078,-61.9428 -122.747,-61.1818 -121.415,-60.4208 -120.034,-59.7508 -118.612,-59.1763 -118.612,-59.1763 -105.876,-90.7006 -105.876,-90.7006"/>
<path fill="deepskyblue" stroke="black" stroke-width="0.5" d="M-105.876,-90.7006C-105.876,-90.7006 -118.612,-59.1763 -118.612,-59.1763 -117.328,-58.6575 -116.013,-58.2176 -114.675,-57.8591 -113.338,-57.5006 -111.979,-57.2242 -110.607,-57.0315 -109.236,-56.8387 -107.854,-56.7299 -106.469,-56.7057 -105.084,-56.6816 -103.699,-56.742 -102.322,-56.8868 -100.944,-57.0316 -99.5768,-57.2604 -98.2272,-57.572 -96.8776,-57.8836 -95.5484,-58.2773 -94.2469,-58.751 -92.9453,-59.2247 -91.674,-59.7775 -90.4399,-60.4063 -89.2058,-61.0352 -88.0112,-61.7388 -86.863,-62.5133 -85.7147,-63.2878 -84.6148,-64.1318 -83.5695,-65.0404 -82.5242,-65.9491 -81.5354,-66.9208 -80.6086,-67.9501 -79.6818,-68.9794 -78.8188,-70.0644 -78.0244,-71.199 -77.2299,-72.3335 -76.5056,-73.5156 -75.8553,-74.7385 -75.2051,-75.9615 -74.6302,-77.223 -74.1338,-78.5161 -73.6374,-79.8091 -73.2206,-81.1313 -72.8855,-82.4752 -72.5504,-83.8191 -72.2978,-85.1823 -72.129,-86.557 -71.9602,-87.9317 -71.8755,-89.3155 -71.8755,-90.7006 -71.8755,-90.7006 -105.876,-90.7006 -105.876,-90.7006"/>
<ellipse fill="none" stroke="black" cx="-105.876" cy="-90.7006" rx="34" ry="34"/>
<text text-anchor="middle" x="-105.876" y="-88.8006" font-family="monospace" font-size="8.00">3</text>
</g>
<!-- 1&#45;&#45;3 -->
<g id="edge5" class="edge"><title>1&#45;&#45;3</title>
<path fill="none" stroke="black" d="M-126.865,-19.8696C-124.8,-26.8379 -120.059,-42.8369 -115.604,-57.8691"/>
</g>
<!-- 2 -->
<g id="node3" class="node"><title>2</title>
<ellipse fill="#ff3030" stroke="black" cx="143.739" cy="-79.8682" rx="14" ry="14"/>
<text text-anchor="middle" x="143.739" y="-77.9682" font-family="monospace" font-size="8.00">2</text>
</g>
<!-- 2&#45;&#45;6 -->
<g id="edge6" class="edge"><title>2&#45;&#45;6</title>
<path fill="none" stroke="black" d="M131.42,-72.557C120.534,-66.0962 104.217,-56.4116 89.9517,-47.945"/>
</g>
<!-- 60 -->
<g id="node61" class="node"><title>60</title>
<ellipse fill="white" stroke="black" cx="197.851" cy="-106.535" rx="2.5" ry="2.5"/>
<text text-anchor="middle" x="197.851" y="-104.635" font-family="monospace" font-size="8.00">60</text>
</g>
<!-- 2&#45;&#45;60 -->
<g id="edge7" class="edge"><title>2&#45;&#45;60</title>
<path fill="none" stroke="black" d="M156.562,-86.1877C169.564,-92.5948 188.695,-102.022 195.412,-105.333"/>
</g>
<!-- 3&#45;&#45;6 -->
<g id="edge8" class="edge"><title>3&#45;&#45;6</title>
<path fill="none" stroke="black" d="M-73.8442,-79.0584C-44.6151,-68.4347 -1.6214,-52.8081 27.7536,-42.1313"/>
</g>
<!-- 10 -->
<g id="node11" class="node"><title>10</title>
<ellipse fill="#ff3030" stroke="black" cx="-111.905" cy="-16.5549" rx="3.5" ry="3.5"/>
<text text-anchor="middle" x="-111.905" y="-14.6549" font-family="monospace" font-size="8.00">10</text>
</g>
<!-- 3&#45;&#45;10 -->
<g id="edge9" class="edge"><title>3&#45;&#45;10</title>
<path fill="none" stroke="black" d="M-108.643,-56.6658C-109.832,-42.0471 -111.072,-26.794 -111.618,-20.0812"/>
</g>
<!-- 16 -->
<g id="node17" class="node"><title>16</title>
<ellipse fill="#ff3030" stroke="black" cx="-150.943" cy="-151.645" rx="3.5" ry="3.5"/>
<text text-anchor="middle" x="-150.943" y="-149.745" font-family="monospace" font-size="8.00">16</text>
</g>
<!-- 3&#45;&#45;16 -->
<g id="edge10" class="edge"><title>3&#45;&#45;16</title>
<path fill="none" stroke="black" d="M-126.299,-118.32C-135.243,-130.414 -144.633,-143.112 -148.769,-148.706"/>
</g>
<!-- 18 -->
<g id="node19" class="node"><title>18</title>
<ellipse fill="deepskyblue" stroke="black" cx="-51.4922" cy="-138.669" rx="3.5" ry="3.5"/>
<text text-anchor="middle" x="-51.4922" y="-136.769" font-family="monospace" font-size="8.00">18</text>
</g>
<!-- 3&#45;&#45;18 -->
<g id="edge11" class="edge"><title>3&#45;&#45;18</title>
<path fill="none" stroke="black" d="M-80.2763,-113.28C-69.9177,-122.417 -59.2499,-131.826 -54.3134,-136.181"/>
</g>
<!-- 21 -->
<g id="node22" class="node"><title>21</title>
<ellipse fill="deepskyblue" stroke="black" cx="-155.128" cy="-34.4289" rx="3.5" ry="3.5"/>
<text text-anchor="middle" x="-155.128" y="-32.5289" font-family="monospace" font-size="8.00">21</text>
</g>
<!-- 3&#45;&#45;21 -->
<g id="edge12" class="edge"><title>3&#45;&#45;21</title>
<path fill="none" stroke="black" d="M-128.484,-64.8704C-138.195,-53.7758 -148.327,-42.1997 -152.786,-37.1051"/>
</g>
<!-- 25 -->
<g id="node26" class="node"><title>25</title>
<ellipse fill="deepskyblue" stroke="black" cx="-88.2714" cy="-167.673" rx="3.5" ry="3.5"/>
<text text-anchor="middle" x="-88.2714" y="-165.773" font-family="monospace" font-size="8.00">25</text>
</g>
<!-- 3&#45;&#45;25 -->
<g id="edge13" class="edge"><title>3&#45;&#45;25</title>
<path fill="none" stroke="black" d="M-98.2053,-124.238C-94.5732,-140.119 -90.6797,-157.143 -89.0541,-164.25"/>
</g>
<!-- 29 -->
<g id="node30" class="node"><title>29</title>
<ellipse fill="deepskyblue" stroke="black" cx="-61.9264" cy="-153.235" rx="3.5" ry="3.5"/>
<text text-anchor="middle" x="-61.9264" y="-151.335" font-family="monospace" font-size="8.00">29</text>
</g>
<!-- 3&#45;&#45;29 -->
<g id="edge14" class="edge"><title>3&#45;&#45;29</title>
<path fill="none" stroke="black" d="M-86.2148,-118.676C-77.4385,-131.163 -68.1644,-144.359 -64.0759,-150.177"/>
</g>
<!-- 30 -->
<g id="node31" class="node"><title>30</title>
<ellipse fill="deepskyblue" stroke="black" cx="-164.111" cy="-135.307" rx="3.5" ry="3.5"/>
<text text-anchor="middle" x="-164.111" y="-133.407" font-family="monospace" font-size="8.00">30</text>
</g>
<!-- 3&#45;&#45;30 -->
<g id="edge15" class="edge"><title>3&#45;&#45;30</title>
<path fill="none" stroke="black" d="M-132.947,-111.437C-144.116,-119.991 -155.687,-128.854 -161.047,-132.96"/>
</g>
<!-- 34 -->
<g id="node35" class="node"><title>34</title>
<ellipse fill="#ff3030" stroke="black" cx="-178.805" cy="-96.5255" rx="3.5" ry="3.5"/>
<text text-anchor="middle" x="-178.805" y="-94.6255" font-family="monospace" font-size="8.00">34</text>
</g>
<!-- 3&#45;&#45;34 -->
<g id="edge16" class="edge"><title>3&#45;&#45;34</title>
<path fill="none" stroke="black" d="M-139.778,-93.4084C-153.764,-94.5255 -168.256,-95.683 -174.968,-96.219"/>
</g>
<!-- 36 -->
<g id="node37" class="node"><title>36</title>
<ellipse fill="#ff3030" stroke="black" cx="-104.791" cy="-167.08" rx="3.5" ry="3.5"/>
<text text-anchor="middle" x="-104.791" y="-165.18" font-family="monospace" font-size="8.00">36</text>
</g>
<!-- 3&#45;&#45;36 -->
<g id="edge19" class="edge"><title>3&#45;&#45;36</title>
<path fill="none" stroke="black" d="M-105.39,-124.869C-105.174,-140.121 -104.945,-156.239 -104.844,-163.344"/>
</g>
<!-- 41 -->
<g id="node42" class="node"><title>41</title>
<ellipse fill="#1874cd" stroke="black" cx="-57.1256" cy="-38.303" rx="3.5" ry="3.5"/>
<text text-anchor="middle" x="-57.1256" y="-36.403" font-family="monospace" font-size="8.00">41</text>
</g>
<!-- 3&#45;&#45;41 -->
<g id="edge22" class="edge"><title>3&#45;&#45;41</title>
<path fill="none" stroke="black" d="M-82.6428,-65.7295C-73.4219,-55.8187 -63.9826,-45.6731 -59.6186,-40.9825"/>
</g>
<!-- 43 -->
<g id="node44" class="node"><title>43</title>
<ellipse fill="#1874cd" stroke="black" cx="-172.332" cy="-58.7001" rx="3.5" ry="3.5"/>
<text text-anchor="middle" x="-172.332" y="-56.8001" font-family="monospace" font-size="8.00">43</text>
</g>
<!-- 3&#45;&#45;43 -->
<g id="edge23" class="edge"><title>3&#45;&#45;43</title>
<path fill="none" stroke="black" d="M-136.769,-75.8245C-149.514,-69.6875 -162.719,-63.3289 -168.835,-60.3839"/>
</g>
<!-- 44 -->
<g id="node45" class="node"><title>44</title>
<ellipse fill="#1874cd" stroke="black" cx="-133.323" cy="-160.676" rx="3.5" ry="3.5"/>
<text text-anchor="middle" x="-133.323" y="-158.776" font-family="monospace" font-size="8.00">44</text>
</g>
<!-- 3&#45;&#45;44 -->
<g id="edge24" class="edge"><title>3&#45;&#45;44</title>
<path fill="none" stroke="black" d="M-118.314,-122.412C-123.761,-136.298 -129.48,-150.879 -131.999,-157.301"/>
</g>
<!-- 46 -->
<g id="node47" class="node"><title>46</title>
<ellipse fill="#1874cd" stroke="black" cx="-191.436" cy="-73.3402" rx="3.5" ry="3.5"/>
<text text-anchor="middle" x="-191.436" y="-71.4402" font-family="monospace" font-size="8.00">46</text>
</g>
<!-- 3&#45;&#45;46 -->
<g id="edge27" class="edge"><title>3&#45;&#45;46</title>
<path fill="none" stroke="black" d="M-139.2,-83.9389C-157.969,-80.1307 -179.294,-75.8039 -187.725,-74.0932"/>
</g>
<!-- 56 -->
<g id="node57" class="node"><title>56</title>
<ellipse fill="#98f5ff" stroke="black" cx="-142.115" cy="-21.3644" rx="3.5" ry="3.5"/>
<text text-anchor="middle" x="-142.115" y="-19.4644" font-family="monospace" font-size="8.00">56</text>
</g>
<!-- 3&#45;&#45;56 -->
<g id="edge28" class="edge"><title>3&#45;&#45;56</title>
<path fill="none" stroke="black" d="M-121.665,-60.4904C-128.99,-46.4769 -136.83,-31.4753 -140.293,-24.8503"/>
</g>
<!-- 59 -->
<g id="node60" class="node"><title>59</title>
<ellipse fill="black" stroke="black" cx="-74.1815" cy="-162.581" rx="3.5" ry="3.5"/>
<text text-anchor="middle" x="-74.1815" y="-160.681" font-family="monospace" font-size="8.00">59</text>
</g>
<!-- 3&#45;&#45;59 -->
<g id="edge29" class="edge"><title>3&#45;&#45;59</title>
<path fill="none" stroke="black" d="M-92.0663,-122.019C-85.6606,-136.547 -78.8032,-152.099 -75.7749,-158.967"/>
</g>
<!-- anon_3_35_0 -->
<g id="node63" class="node"><title>anon_3_35_0</title>
<ellipse fill="white" stroke="black" cx="-181.511" cy="-127.145" rx="2.5" ry="2.5"/>
</g>
<!-- 3&#45;&#45;anon_3_35_0 -->
<g id="edge17" class="edge"><title>3&#45;&#45;anon_3_35_0</title>
<path fill="none" stroke="black" d="M-136.64,-105.524C-153.653,-113.722 -172.642,-122.872 -179.165,-126.015"/>
</g>
<!-- anon_3_40_0 -->
<g id="node64" class="node"><title>anon_3_40_0</title>
<ellipse fill="white" stroke="black" cx="-173.27" cy="-29.3941" rx="2.5" ry="2.5"/>
</g>
<!-- 3&#45;&#45;anon_3_40_0 -->
<g id="edge20" class="edge"><title>3&#45;&#45;anon_3_40_0</title>
<path fill="none" stroke="black" d="M-131.355,-67.5232C-147.159,-53.1462 -165.533,-36.4325 -171.382,-31.1119"/>
</g>
<!-- anon_3_45_0 -->
<g id="node65" class="node"><title>anon_3_45_0</title>
<ellipse fill="white" stroke="black" cx="-122.516" cy="-180.151" rx="2.5" ry="2.5"/>
</g>
<!-- 3&#45;&#45;anon_3_45_0 -->
<g id="edge25" class="edge"><title>3&#45;&#45;anon_3_45_0</title>
<path fill="none" stroke="black" d="M-112.119,-124.263C-116.029,-145.283 -120.593,-169.816 -122.046,-177.629"/>
</g>
<!-- 4 -->
<g id="node5" class="node"><title>4</title>
<path fill="#98f5ff" stroke="black" stroke-width="0.5" d="M176.746,-76.828C176.746,-76.828 208.746,-76.828 208.746,-76.828 208.746,-78.2785 208.647,-79.7273 208.451,-81.1645 208.254,-82.6016 207.96,-84.0238 207.571,-85.421 207.181,-86.8182 206.697,-88.1874 206.122,-89.519 205.547,-90.8505 204.881,-92.1415 204.131,-93.3828 203.381,-94.6241 202.547,-95.813 201.635,-96.9412 200.723,-98.0694 199.736,-99.1343 198.68,-100.128 197.623,-101.123 196.501,-102.044 195.32,-102.886 194.139,-103.728 192.902,-104.488 191.617,-105.163 190.333,-105.837 189.004,-106.423 187.64,-106.916 186.276,-107.41 184.88,-107.811 183.462,-108.115 182.044,-108.42 180.607,-108.627 179.16,-108.737 177.714,-108.846 176.262,-108.857 174.814,-108.77 173.366,-108.682 171.926,-108.496 170.503,-108.213 169.08,-107.93 167.679,-107.551 166.308,-107.078 164.936,-106.604 163.599,-106.039 162.304,-105.384 161.01,-104.729 159.762,-103.987 158.568,-103.163 158.568,-103.163 176.746,-76.828 176.746,-76.828"/>
<path fill="deepskyblue" stroke="black" stroke-width="0.5" d="M176.746,-76.828C176.746,-76.828 158.568,-103.163 158.568,-103.163 157.662,-102.538 156.788,-101.866 155.951,-101.151 155.114,-100.435 154.315,-99.6767 153.556,-98.8787 152.797,-98.0807 152.08,-97.2441 151.408,-96.3722 150.735,-95.5003 150.108,-94.5942 149.529,-93.6577 148.95,-92.7211 148.42,-91.7553 147.94,-90.7641 147.46,-89.7728 147.032,-88.7575 146.658,-87.7221 146.283,-86.6868 145.961,-85.6327 145.695,-84.5643 145.429,-83.4958 145.218,-82.4143 145.063,-81.3241 144.909,-80.2338 144.81,-79.1364 144.769,-78.036 144.727,-76.9356 144.742,-75.8339 144.815,-74.7351 144.887,-73.6363 145.015,-72.542 145.2,-71.4564 145.385,-70.3709 145.626,-69.2957 145.921,-68.235 146.217,-67.1743 146.567,-66.1295 146.971,-65.1049 147.374,-64.0803 147.83,-63.0773 148.337,-62.0997 148.844,-61.1221 149.401,-60.1713 150.005,-59.2512 150.61,-58.331 151.262,-57.4427 151.959,-56.5897 152.655,-55.7368 153.395,-54.9203 154.176,-54.1437 154.956,-53.367 155.776,-52.6312 156.633,-51.939 157.489,-51.2469 158.381,-50.5995 159.304,-49.9993 160.227,-49.3991 161.181,-48.847 162.161,-48.3451 163.141,-47.8432 164.146,-47.3922 165.173,-46.994 166.2,-46.5958 167.246,-46.2508 168.308,-45.9604 169.37,-45.6701 170.447,-45.4348 171.533,-45.2554 172.62,-45.076 173.715,-44.9528 174.814,-44.8864 175.913,-44.8199 177.015,-44.8102 178.115,-44.8573 179.215,-44.9044 180.312,-45.0082 181.402,-45.1684 182.491,-45.3286 183.571,-45.545 184.639,-45.8166 185.706,-46.0881 186.758,-46.4146 187.792,-46.7947 188.825,-47.1748 189.838,-47.608 190.827,-48.0925 191.816,-48.5771 192.779,-49.1123 193.713,-49.6961 194.646,-50.28 195.549,-50.9116 196.418,-51.5885 197.286,-52.2654 198.119,-52.9867 198.913,-53.7495 198.913,-53.7495 176.746,-76.828 176.746,-76.828"/>
<path fill="#ff3030" stroke="black" stroke-width="0.5" d="M176.746,-76.828C176.746,-76.828 198.913,-53.7495 198.913,-53.7495 199.688,-54.4937 200.425,-55.2764 201.121,-56.0947 201.817,-56.913 202.471,-57.7658 203.081,-58.6499 203.692,-59.534 204.257,-60.4483 204.775,-61.3893 205.294,-62.3303 205.764,-63.2967 206.185,-64.285 206.606,-65.2734 206.977,-66.2822 207.297,-67.3079 207.617,-68.3335 207.884,-69.3746 208.099,-70.4272 208.314,-71.4797 208.476,-72.5424 208.584,-73.6113 208.692,-74.6801 208.746,-75.7537 208.746,-76.828 208.746,-76.828 176.746,-76.828 176.746,-76.828"/>
<ellipse fill="none" stroke="black" cx="176.746" cy="-76.828" rx="32" ry="32"/>
<text text-anchor="middle" x="176.746" y="-74.928" font-family="monospace" font-size="8.00">4</text>
</g>
<!-- 4&#45;&#45;6 -->
<g id="edge30" class="edge"><title>4&#45;&#45;6</title>
<path fill="none" stroke="black" d="M146.746,-64.8507C130.162,-58.2297 109.548,-49.9994 92.604,-43.2346"/>
</g>
<!-- 11 -->
<g id="node12" class="node"><title>11</title>
<ellipse fill="deepskyblue" stroke="black" cx="185.159" cy="-10.2808" rx="3.5" ry="3.5"/>
<text text-anchor="middle" x="185.159" y="-8.3808" font-family="monospace" font-size="8.00">11</text>
</g>
<!-- 4&#45;&#45;11 -->
<g id="edge31" class="edge"><title>4&#45;&#45;11</title>
<path fill="none" stroke="black" d="M180.805,-44.724C182.351,-32.4927 183.924,-20.0505 184.686,-14.0193"/>
</g>
<!-- 55 -->
<g id="node56" class="node"><title>55</title>
<ellipse fill="#98f5ff" stroke="black" cx="257.406" cy="-79.3569" rx="3.5" ry="3.5"/>
<text text-anchor="middle" x="257.406" y="-77.4569" font-family="monospace" font-size="8.00">55</text>
</g>
<!-- 4&#45;&#45;55 -->
<g id="edge32" class="edge"><title>4&#45;&#45;55</title>
<path fill="none" stroke="black" d="M209.089,-77.842C226.269,-78.3807 245.465,-78.9825 253.519,-79.235"/>
</g>
<!-- 5 -->
<g id="node6" class="node"><title>5</title>
<ellipse fill="#ff3030" stroke="black" cx="140.324" cy="-107.835" rx="18" ry="18"/>
<text text-anchor="middle" x="140.324" y="-105.935" font-family="monospace" font-size="8.00">5</text>
</g>
<!-- 5&#45;&#45;6 -->
<g id="edge33" class="edge"><title>5&#45;&#45;6</title>
<path fill="none" stroke="black" d="M127.102,-95.0346C115.731,-84.0263 99.0185,-67.8473 85.1493,-54.4205"/>
</g>
<!-- 32 -->
<g id="node33" class="node"><title>32</title>
<ellipse fill="#ff3030" stroke="black" cx="178.327" cy="-61.4428" rx="3.5" ry="3.5"/>
<text text-anchor="middle" x="178.327" y="-59.5428" font-family="monospace" font-size="8.00">32</text>
</g>
<!-- 5&#45;&#45;32 -->
<g id="edge34" class="edge"><title>5&#45;&#45;32</title>
<path fill="none" stroke="black" d="M151.932,-93.6636C160.489,-83.2181 171.415,-69.88 176.067,-64.2016"/>
</g>
<!-- 38 -->
<g id="node39" class="node"><title>38</title>
<ellipse fill="#ff3030" stroke="black" cx="160.73" cy="-166.423" rx="3.5" ry="3.5"/>
<text text-anchor="middle" x="160.73" y="-164.523" font-family="monospace" font-size="8.00">38</text>
</g>
<!-- 5&#45;&#45;38 -->
<g id="edge35" class="edge"><title>5&#45;&#45;38</title>
<path fill="none" stroke="black" d="M146.336,-125.096C150.944,-138.328 156.934,-155.523 159.488,-162.857"/>
</g>
<!-- 39 -->
<g id="node40" class="node"><title>39</title>
<ellipse fill="#ff3030" stroke="black" cx="185.585" cy="-150.918" rx="3.5" ry="3.5"/>
<text text-anchor="middle" x="185.585" y="-149.018" font-family="monospace" font-size="8.00">39</text>
</g>
<!-- 5&#45;&#45;39 -->
<g id="edge36" class="edge"><title>5&#45;&#45;39</title>
<path fill="none" stroke="black" d="M153.659,-120.528C163.881,-130.258 177.165,-142.903 182.83,-148.296"/>
</g>
<!-- 5&#45;&#45;60 -->
<g id="edge71" class="edge"><title>5&#45;&#45;60</title>
<path fill="none" stroke="black" stroke-dasharray="5,2" d="M158.526,-107.423C171.956,-107.12 188.953,-106.736 195.305,-106.592"/>
</g>
<!-- 7 -->
<g id="node8" class="node"><title>7</title>
<ellipse fill="#ff3030" stroke="black" cx="21.8594" cy="-95.4407" rx="9.5" ry="9.5"/>
<text text-anchor="middle" x="21.8594" y="-93.5407" font-family="monospace" font-size="8.00">7</text>
</g>
<!-- 6&#45;&#45;7 -->
<g id="edge37" class="edge"><title>6&#45;&#45;7</title>
<path fill="none" stroke="black" d="M42.6296,-60.2114C36.7945,-70.1086 30.7642,-80.3368 26.7147,-87.2054"/>
</g>
<!-- 8 -->
<g id="node9" class="node"><title>8</title>
<ellipse fill="#ff3030" stroke="black" cx="55.8536" cy="47.384" rx="6" ry="6"/>
<text text-anchor="middle" x="55.8536" y="49.284" font-family="monospace" font-size="8.00">8</text>
</g>
<!-- 6&#45;&#45;8 -->
<g id="edge38" class="edge"><title>6&#45;&#45;8</title>
<path fill="none" stroke="black" d="M58.2852,4.44174C57.489,18.5037 56.6518,33.2884 56.1972,41.3172"/>
</g>
<!-- 13 -->
<g id="node14" class="node"><title>13</title>
<ellipse fill="#ff3030" stroke="black" cx="60.1132" cy="-116.132" rx="8" ry="8"/>
<text text-anchor="middle" x="60.1132" y="-114.232" font-family="monospace" font-size="8.00">13</text>
</g>
<!-- 6&#45;&#45;13 -->
<g id="edge39" class="edge"><title>6&#45;&#45;13</title>
<path fill="none" stroke="black" d="M60.1965,-65.2222C60.1707,-80.9989 60.1424,-98.2722 60.1264,-108.097"/>
</g>
<!-- 14 -->
<g id="node15" class="node"><title>14</title>
<path fill="#98f5ff" stroke="black" stroke-width="0.5" d="M44.7747,82.3779C44.7747,82.3779 50.7747,82.3779 50.7747,82.3779 50.7747,82.116 50.7575,81.8544 50.7233,81.5947 50.6892,81.3351 50.638,81.0779 50.5702,80.825 50.5024,80.572 50.4182,80.3237 50.3179,80.0818 50.2177,79.8398 50.1018,79.6047 49.9708,79.3779 49.8399,79.1511 49.6942,78.9331 49.5348,78.7253 49.3754,78.5175 49.2025,78.3204 49.0173,78.1353 48.8321,77.9501 48.635,77.7772 48.4272,77.6178 48.2195,77.4583 48.0015,77.3127 47.7747,77.1817 47.5479,77.0508 47.3127,76.9348 47.0708,76.8346 46.8288,76.7344 46.5805,76.6501 46.3276,76.5823 46.0746,76.5146 45.8175,76.4634 45.5578,76.4292 45.2982,76.395 45.0366,76.3779 44.7747,76.3779 44.5128,76.3779 44.2512,76.395 43.9915,76.4292 43.7319,76.4634 43.4747,76.5146 43.2218,76.5823 42.9688,76.6501 42.7205,76.7344 42.4786,76.8346 42.2366,76.9348 42.0015,77.0508 41.7747,77.1817 41.7747,77.1817 44.7747,82.3779 44.7747,82.3779"/>
<path fill="#ff3030" stroke="black" stroke-width="0.5" d="M44.7747,82.3779C44.7747,82.3779 41.7747,77.1817 41.7747,77.1817 41.5479,77.3127 41.3299,77.4583 41.1221,77.6178 40.9143,77.7772 40.7172,77.9501 40.532,78.1353 40.3468,78.3204 40.174,78.5175 40.0145,78.7253 39.8551,78.9331 39.7095,79.1511 39.5785,79.3779 39.4476,79.6047 39.3316,79.8398 39.2314,80.0818 39.1312,80.3237 39.0469,80.572 38.9791,80.825 38.9113,81.0779 38.8602,81.3351 38.826,81.5947 38.7918,81.8544 38.7747,82.116 38.7747,82.3779 38.7747,82.6398 38.7918,82.9014 38.826,83.161 38.8602,83.4207 38.9113,83.6778 38.9791,83.9308 39.0469,84.1838 39.1312,84.432 39.2314,84.674 39.3316,84.9159 39.4476,85.1511 39.5785,85.3779 39.7095,85.6047 39.8551,85.8227 40.0145,86.0305 40.174,86.2382 40.3468,86.4353 40.532,86.6205 40.7172,86.8057 40.9143,86.9786 41.1221,87.138 41.3299,87.2974 41.5479,87.4431 41.7747,87.574 42.0015,87.705 42.2366,87.8209 42.4786,87.9212 42.7205,88.0214 42.9688,88.1057 43.2218,88.1734 43.4747,88.2412 43.7319,88.2924 43.9915,88.3266 44.2512,88.3607 44.5128,88.3779 44.7747,88.3779 45.0366,88.3779 45.2982,88.3607 45.5578,88.3266 45.8175,88.2924 46.0746,88.2412 46.3276,88.1734 46.5805,88.1057 46.8288,88.0214 47.0708,87.9212 47.3127,87.8209 47.5479,87.705 47.7747,87.574 48.0015,87.4431 48.2195,87.2974 48.4272,87.138 48.635,86.9786 48.8321,86.8057 49.0173,86.6205 49.2025,86.4353 49.3754,86.2382 49.5348,86.0305 49.6942,85.8227 49.8399,85.6047 49.9708,85.3779 50.1018,85.1511 50.2177,84.9159 50.3179,84.674 50.4182,84.432 50.5024,84.1838 50.5702,83.9308 50.638,83.6778 50.6892,83.4207 50.7233,83.161 50.7575,82.9014 50.7747,82.6398 50.7747,82.3779 50.7747,82.3779 44.7747,82.3779 44.7747,82.3779"/>
<ellipse fill="none" stroke="black" cx="44.7747" cy="82.3779" rx="6" ry="6"/>
<text text-anchor="middle" x="44.7747" y="84.2779" font-family="monospace" font-size="8.00">14</text>
</g>
<!-- 6&#45;&#45;14 -->
<g id="edge40" class="edge"><title>6&#45;&#45;14</title>
<path fill="none" stroke="black" d="M55.5252,4.10626C52.0045,29.7396 47.4989,62.5439 45.638,76.0926"/>
</g>
<!-- 17 -->
<g id="node18" class="node"><title>17</title>
<ellipse fill="#ff3030" stroke="black" cx="6.79616" cy="15.0946" rx="6" ry="6"/>
<text text-anchor="middle" x="6.79616" y="16.9946" font-family="monospace" font-size="8.00">17</text>
</g>
<!-- 6&#45;&#45;17 -->
<g id="edge41" class="edge"><title>6&#45;&#45;17</title>
<path fill="none" stroke="black" d="M33.8381,-7.87819C25.2102,-0.548561 16.5388,6.81804 11.4205,11.1662"/>
</g>
<!-- 19 -->
<g id="node20" class="node"><title>19</title>
<path fill="#98f5ff" stroke="black" stroke-width="0.5" d="M125.982,33.4984C125.982,33.4984 137.482,33.4984 137.482,33.4984 137.482,32.896 137.435,32.2945 137.34,31.6994 137.246,31.1044 137.105,30.5177 136.919,29.9448 136.733,29.3718 136.502,28.8143 136.228,28.2776 135.955,27.7408 135.64,27.2263 135.286,26.7389 134.931,26.2515 134.54,25.7927 134.114,25.3667 133.688,24.9407 133.229,24.5489 132.741,24.1948 132.254,23.8406 131.74,23.5254 131.203,23.2519 130.666,22.9784 130.109,22.7475 129.536,22.5613 128.963,22.3751 128.376,22.2343 127.781,22.14 127.186,22.0458 126.584,21.9984 125.982,21.9984 125.379,21.9984 124.778,22.0458 124.183,22.14 123.588,22.2343 123.001,22.3751 122.428,22.5613 121.855,22.7475 121.298,22.9784 120.761,23.2519 120.224,23.5254 119.71,23.8406 119.222,24.1948 118.735,24.5489 118.276,24.9407 117.85,25.3667 117.424,25.7927 117.032,26.2515 116.678,26.7389 116.678,26.7389 125.982,33.4984 125.982,33.4984"/>
<path fill="deepskyblue" stroke="black" stroke-width="0.5" d="M125.982,33.4984C125.982,33.4984 116.678,26.7389 116.678,26.7389 116.413,27.1044 116.169,27.4852 115.948,27.8793 115.727,28.2734 115.53,28.6802 115.357,29.0976 115.184,29.5149 115.036,29.9421 114.914,30.3769 114.791,30.8117 114.694,31.2533 114.623,31.6994 114.553,32.1456 114.508,32.5956 114.491,33.047 114.473,33.4983 114.482,33.9504 114.517,34.4007 114.553,34.8511 114.615,35.2989 114.703,35.742 114.791,36.185 114.905,36.6225 115.045,37.0521 115.184,37.4818 115.349,37.9028 115.538,38.313 115.727,38.7233 115.94,39.122 116.177,39.5072 116.413,39.8923 116.671,40.2633 116.951,40.618 117.23,40.9728 117.531,41.3107 117.85,41.6302 118.17,41.9496 118.508,42.2499 118.862,42.5296 119.217,42.8093 119.588,43.0678 119.973,43.3038 120.358,43.5398 120.757,43.753 121.167,43.9421 121.578,44.1312 121.999,44.296 122.428,44.4356 122.858,44.5752 123.295,44.6893 123.738,44.7775 124.181,44.8656 124.629,44.9276 125.08,44.963 125.53,44.9984 125.982,45.0073 126.433,44.9896 126.885,44.9718 127.335,44.9275 127.781,44.8569 128.227,44.7862 128.669,44.6893 129.103,44.5667 129.538,44.4441 129.965,44.2959 130.383,44.1231 130.8,43.9502 131.207,43.7529 131.601,43.5321 131.995,43.3114 132.376,43.0677 132.741,42.8021 133.107,42.5366 133.456,42.2498 133.788,41.9432 134.12,41.6365 134.433,41.3106 134.727,40.9671 135.02,40.6236 135.293,40.2631 135.544,39.8875 135.795,39.5119 136.023,39.1218 136.228,38.7193 136.434,38.3168 136.615,37.9026 136.771,37.4788 136.927,37.055 137.059,36.6223 137.164,36.1831 137.27,35.7438 137.349,35.2987 137.402,34.8501 137.455,34.4015 137.482,33.9502 137.482,33.4984 137.482,33.4984 125.982,33.4984 125.982,33.4984"/>
<ellipse fill="none" stroke="black" cx="125.982" cy="33.4984" rx="11.5" ry="11.5"/>
<text text-anchor="middle" x="125.982" y="35.3984" font-family="monospace" font-size="8.00">19</text>
</g>
<!-- 6&#45;&#45;19 -->
<g id="edge42" class="edge"><title>6&#45;&#45;19</title>
<path fill="none" stroke="black" d="M85.1026,-6.19226C96.5904,4.96152 109.47,17.4663 117.647,25.4058"/>
</g>
<!-- 26 -->
<g id="node27" class="node"><title>26</title>
<ellipse fill="deepskyblue" stroke="black" cx="82.9978" cy="-95.4546" rx="5" ry="5"/>
<text text-anchor="middle" x="82.9978" y="-93.5546" font-family="monospace" font-size="8.00">26</text>
</g>
<!-- 6&#45;&#45;26 -->
<g id="edge43" class="edge"><title>6&#45;&#45;26</title>
<path fill="none" stroke="black" d="M71.7589,-63.2684C75.461,-73.8706 79.1443,-84.4188 81.2391,-90.418"/>
</g>
<!-- 31 -->
<g id="node32" class="node"><title>31</title>
<path fill="#98f5ff" stroke="black" stroke-width="0.5" d="M16.4571,56.9914C16.4571,56.9914 28.9571,56.9914 28.9571,56.9914 28.9571,56.3092 28.9013,55.6282 28.7902,54.9552 28.679,54.2822 28.513,53.6193 28.2938,52.9734 28.0745,52.3274 27.8027,51.7005 27.4811,51.0989 27.1596,50.4973 26.7893,49.9231 26.374,49.3819 25.9588,48.8407 25.4999,48.3344 25.002,47.8681 24.5042,47.4018 23.9689,46.977 23.4018,46.598 22.8346,46.219 22.2373,45.8871 21.616,45.6056 20.9946,45.3241 20.3513,45.0939 19.6924,44.9173 19.0335,44.7408 18.3612,44.6184 17.6823,44.5516 17.0035,44.4847 16.3203,44.4735 15.6396,44.5182 14.9589,44.5628 14.283,44.663 13.6187,44.8179 12.9543,44.9728 12.3038,45.1818 11.6736,45.4429 11.0434,45.7039 10.4356,46.0161 9.85628,46.3764 9.277,46.7366 8.72817,47.1436 8.2153,47.5934 7.70244,48.0432 7.22725,48.5342 6.7945,49.0615 6.36174,49.5888 5.97288,50.1506 5.63181,50.7414 5.63181,50.7414 16.4571,56.9914 16.4571,56.9914"/>
<path fill="deepskyblue" stroke="black" stroke-width="0.5" d="M16.4571,56.9914C16.4571,56.9914 5.63181,50.7414 5.63181,50.7414 5.39312,51.1548 5.17832,51.5816 4.98844,52.0195 4.79857,52.4575 4.63394,52.906 4.49537,53.3628 4.3568,53.8196 4.24451,54.284 4.15905,54.7537 4.07359,55.2233 4.01511,55.6975 3.98389,56.1739 3.95267,56.6502 3.94876,57.1279 3.97218,57.6047 3.99561,58.0815 4.04632,58.5566 4.12408,59.0276 4.20184,59.4986 4.30652,59.9647 4.4376,60.4237 4.56868,60.8828 4.72595,61.3339 4.90863,61.7749 5.09131,62.216 5.29911,62.6462 5.531,63.0634 5.76288,63.4807 6.01848,63.8843 6.29654,64.2724 6.5746,64.6604 6.87465,65.0322 7.19524,65.3859 7.51582,65.7396 7.8564,66.0746 8.2153,66.3894 8.57421,66.7041 8.95085,66.9981 9.34337,67.2697 9.7359,67.5414 10.1437,67.7904 10.5647,68.0154 10.9857,68.2404 11.4192,68.4412 11.8632,68.6166 12.3071,68.792 12.7608,68.9419 13.2219,69.0655 13.683,69.189 14.1508,69.2861 14.623,69.3561 15.0952,69.4261 15.571,69.4691 16.0481,69.4847 16.5252,69.5003 17.0029,69.4886 17.4786,69.4496 17.9544,69.4106 18.4276,69.3443 18.8958,69.2512 19.364,69.1581 19.8264,69.0382 20.2809,68.8922 20.7354,68.7461 21.1811,68.5742 21.616,68.3772 22.0508,68.1802 22.474,67.9584 22.8834,67.713 23.2929,67.4676 23.6879,67.1989 24.0666,66.9083 24.4454,66.6177 24.8071,66.3056 25.1502,65.9737 25.4932,65.6417 25.8169,65.2903 26.1198,64.9213 26.4226,64.5523 26.704,64.1662 26.9627,63.765 27.2214,63.3638 27.4569,62.9481 27.668,62.52 27.8792,62.0919 28.0656,61.652 28.2264,61.2025 28.3872,60.7531 28.5222,60.2947 28.6306,59.8298 28.739,59.3649 28.8207,58.8942 28.8752,58.42 28.9298,57.9457 28.9571,57.4688 28.9571,56.9914 28.9571,56.9914 16.4571,56.9914 16.4571,56.9914"/>
<ellipse fill="none" stroke="black" cx="16.4571" cy="56.9914" rx="12.5" ry="12.5"/>
<text text-anchor="middle" x="16.4571" y="58.8914" font-family="monospace" font-size="8.00">31</text>
</g>
<!-- 6&#45;&#45;31 -->
<g id="edge47" class="edge"><title>6&#45;&#45;31</title>
<path fill="none" stroke="black" d="M44.6892,0.709321C36.8215,16.394 27.7603,34.458 22.0707,45.8004"/>
</g>
<!-- 47 -->
<g id="node48" class="node"><title>47</title>
<ellipse fill="brown" stroke="black" cx="1.26264" cy="-57.4844" rx="3.5" ry="3.5"/>
<text text-anchor="middle" x="1.26264" y="-55.5844" font-family="monospace" font-size="8.00">47</text>
</g>
<!-- 6&#45;&#45;47 -->
<g id="edge48" class="edge"><title>6&#45;&#45;47</title>
<path fill="none" stroke="black" d="M28.6857,-44.8559C18.824,-49.3973 9.27277,-53.7957 4.47089,-56.007"/>
</g>
<!-- 48 -->
<g id="node49" class="node"><title>48</title>
<ellipse fill="brown" stroke="black" cx="141.316" cy="-32.5771" rx="6" ry="6"/>
<text text-anchor="middle" x="141.316" y="-30.6771" font-family="monospace" font-size="8.00">48</text>
</g>
<!-- 6&#45;&#45;48 -->
<g id="edge49" class="edge"><title>6&#45;&#45;48</title>
<path fill="none" stroke="black" d="M95.1019,-31.2897C110.379,-31.7152 126.754,-32.1714 135.315,-32.4099"/>
</g>
<!-- 50 -->
<g id="node51" class="node"><title>50</title>
<ellipse fill="brown" stroke="black" cx="-24.1874" cy="-2.12671" rx="8" ry="8"/>
<text text-anchor="middle" x="-24.1874" y="-0.226705" font-family="monospace" font-size="8.00">50</text>
</g>
<!-- 6&#45;&#45;50 -->
<g id="edge52" class="edge"><title>6&#45;&#45;50</title>
<path fill="none" stroke="black" d="M27.3647,-19.3383C11.4348,-14.0198 -6.36075,-8.07846 -16.324,-4.75206"/>
</g>
<!-- 51 -->
<g id="node52" class="node"><title>51</title>
<ellipse fill="brown" stroke="black" cx="102.036" cy="17.4747" rx="3.5" ry="3.5"/>
<text text-anchor="middle" x="102.036" y="19.3747" font-family="monospace" font-size="8.00">51</text>
</g>
<!-- 6&#45;&#45;51 -->
<g id="edge53" class="edge"><title>6&#45;&#45;51</title>
<path fill="none" stroke="black" d="M83.1006,-4.18468C89.8068,3.48634 96.2418,10.8471 99.6088,14.6985"/>
</g>
<!-- 54 -->
<g id="node55" class="node"><title>54</title>
<ellipse fill="brown" stroke="black" cx="43.3835" cy="-95.6667" rx="3.5" ry="3.5"/>
<text text-anchor="middle" x="43.3835" y="-93.7667" font-family="monospace" font-size="8.00">54</text>
</g>
<!-- 6&#45;&#45;54 -->
<g id="edge54" class="edge"><title>6&#45;&#45;54</title>
<path fill="none" stroke="black" d="M51.6208,-63.7585C48.6376,-75.3144 45.6873,-86.7425 44.2638,-92.2567"/>
</g>
<!-- anon_6_27_0 -->
<g id="node66" class="node"><title>anon_6_27_0</title>
<ellipse fill="white" stroke="black" cx="136.43" cy="1.68306" rx="2.5" ry="2.5"/>
</g>
<!-- 6&#45;&#45;anon_6_27_0 -->
<g id="edge44" class="edge"><title>6&#45;&#45;anon_6_27_0</title>
<path fill="none" stroke="black" d="M92.1177,-16.9326C108.752,-9.9445 127.014,-2.27256 133.746,0.555842"/>
</g>
<!-- anon_6_49_0 -->
<g id="node68" class="node"><title>anon_6_49_0</title>
<ellipse fill="white" stroke="black" cx="84.7541" cy="37.9931" rx="2.5" ry="2.5"/>
</g>
<!-- 6&#45;&#45;anon_6_49_0 -->
<g id="edge50" class="edge"><title>6&#45;&#45;anon_6_49_0</title>
<path fill="none" stroke="black" d="M71.9297,2.23661C76.8597,15.9823 81.914,30.0744 83.8893,35.5819"/>
</g>
<!-- 57 -->
<g id="node58" class="node"><title>57</title>
<ellipse fill="black" stroke="black" cx="71.9316" cy="96.3656" rx="6" ry="6"/>
<text text-anchor="middle" x="71.9316" y="98.2656" font-family="monospace" font-size="8.00">57</text>
</g>
<!-- 8&#45;&#45;57 -->
<g id="edge55" class="edge"><title>8&#45;&#45;57</title>
<path fill="none" stroke="black" d="M57.8251,53.3901C60.9444,62.8932 66.9777,81.2736 70.0439,90.6149"/>
</g>
<!-- 9 -->
<g id="node10" class="node"><title>9</title>
<ellipse fill="deepskyblue" stroke="black" cx="31.822" cy="207.609" rx="3.5" ry="3.5"/>
<text text-anchor="middle" x="31.822" y="209.509" font-family="monospace" font-size="8.00">9</text>
</g>
<!-- 15 -->
<g id="node16" class="node"><title>15</title>
<path fill="#98f5ff" stroke="black" stroke-width="0.5" d="M66.2351,156.209C66.2351,156.209 84.2351,156.209 84.2351,156.209 84.2351,155.549 84.1988,154.889 84.1264,154.233 84.054,153.577 83.9456,152.926 83.8016,152.282 83.6577,151.638 83.4784,151.002 83.2647,150.378 83.0509,149.754 82.803,149.142 82.522,148.545 82.241,147.947 81.9274,147.366 81.5826,146.804 81.2379,146.241 80.8624,145.698 80.4579,145.176 80.0535,144.655 79.6206,144.156 79.1614,143.682 78.7022,143.208 78.2172,142.76 77.7088,142.339 77.2003,141.919 76.6691,141.526 76.1175,141.164 75.566,140.802 74.9949,140.47 74.407,140.17 73.819,139.871 73.215,139.604 72.5977,139.371 71.9804,139.137 71.3507,138.938 70.7115,138.774 70.0724,138.61 69.4247,138.481 68.7713,138.388 68.118,138.295 67.4601,138.238 66.8005,138.217 66.1409,138.197 65.4807,138.212 64.8229,138.264 64.165,138.316 63.5105,138.404 62.8623,138.527 62.8623,138.527 66.2351,156.209 66.2351,156.209"/>
<path fill="deepskyblue" stroke="black" stroke-width="0.5" d="M66.2351,156.209C66.2351,156.209 62.8623,138.527 62.8623,138.527 62.0287,138.686 61.2074,138.904 60.4046,139.179 59.6018,139.454 58.8194,139.785 58.0633,140.17 57.3072,140.556 56.5793,140.994 55.885,141.482 55.1908,141.97 54.5319,142.506 53.9133,143.087 53.2947,143.668 52.7179,144.292 52.1874,144.954 51.6568,145.617 51.1737,146.315 50.7418,147.046 50.3098,147.776 49.93,148.536 49.6053,149.32 49.2806,150.104 49.0117,150.91 48.8006,151.732 48.5896,152.554 48.4369,153.39 48.3438,154.233 48.2507,155.077 48.2174,155.926 48.244,156.774 48.2707,157.622 48.3573,158.467 48.5032,159.303 48.6491,160.139 48.8539,160.964 49.1161,161.771 49.3783,162.578 49.6973,163.365 50.0706,164.128 50.444,164.89 50.8707,165.624 51.3477,166.326 51.8247,167.028 52.3507,167.695 52.9218,168.323 53.4929,168.95 54.1076,169.537 54.7615,170.078 55.4153,170.619 56.1066,171.113 56.8302,171.556 57.5537,172 58.3077,172.391 59.0865,172.728 59.8653,173.065 60.6669,173.347 61.4854,173.571 62.3039,173.795 63.1372,173.96 63.9791,174.067 64.821,174.173 65.6694,174.22 66.5179,174.206 67.3663,174.193 68.2128,174.12 69.0509,173.987 69.8891,173.854 70.7168,173.662 71.5279,173.413 72.3389,173.163 73.1313,172.857 73.8992,172.495 74.667,172.134 75.4083,171.719 76.1175,171.253 76.8268,170.787 77.5022,170.272 78.1387,169.711 78.7753,169.149 79.3713,168.544 79.9224,167.899 80.4735,167.253 80.9783,166.57 81.433,165.853 81.8877,165.137 82.2912,164.389 82.6404,163.616 82.9896,162.842 83.2837,162.045 83.5204,161.23 83.7572,160.416 83.936,159.585 84.0556,158.745 84.1751,157.905 84.2351,157.057 84.2351,156.209 84.2351,156.209 66.2351,156.209 66.2351,156.209"/>
<ellipse fill="none" stroke="black" cx="66.2351" cy="156.209" rx="18" ry="18"/>
<text text-anchor="middle" x="66.2351" y="158.109" font-family="monospace" font-size="8.00">15</text>
</g>
<!-- 9&#45;&#45;15 -->
<g id="edge56" class="edge"><title>9&#45;&#45;15</title>
<path fill="none" stroke="black" d="M33.8716,204.547C38.1547,198.15 48.3022,182.994 56.102,171.344"/>
</g>
<!-- 11&#45;&#45;48 -->
<g id="edge72" class="edge"><title>11&#45;&#45;48</title>
<path fill="none" stroke="black" stroke-dasharray="5,2" d="M182.006,-11.8843C174.623,-15.6387 156.14,-25.0386 146.841,-29.7674"/>
</g>
<!-- 12 -->
<g id="node13" class="node"><title>12</title>
<ellipse fill="deepskyblue" stroke="black" cx="61.7819" cy="216.107" rx="3.5" ry="3.5"/>
<text text-anchor="middle" x="61.7819" y="218.007" font-family="monospace" font-size="8.00">12</text>
</g>
<!-- 12&#45;&#45;15 -->
<g id="edge57" class="edge"><title>12&#45;&#45;15</title>
<path fill="none" stroke="black" d="M62.0472,212.539C62.5939,205.185 63.8792,187.897 64.8828,174.399"/>
</g>
<!-- 28 -->
<g id="node29" class="node"><title>28</title>
<ellipse fill="#ff3030" stroke="black" cx="61.4233" cy="-166.625" rx="3.5" ry="3.5"/>
<text text-anchor="middle" x="61.4233" y="-164.725" font-family="monospace" font-size="8.00">28</text>
</g>
<!-- 13&#45;&#45;28 -->
<g id="edge58" class="edge"><title>13&#45;&#45;28</title>
<path fill="none" stroke="black" d="M60.3296,-124.47C60.6203,-135.674 61.1243,-155.101 61.331,-163.064"/>
</g>
<!-- 14&#45;&#45;15 -->
<g id="edge59" class="edge"><title>14&#45;&#45;15</title>
<path fill="none" stroke="black" d="M46.4586,88.1713C49.581,98.9134 56.3825,122.312 61.1323,138.653"/>
</g>
<!-- 61 -->
<g id="node62" class="node"><title>61</title>
<ellipse fill="white" stroke="black" cx="5.61774" cy="111.363" rx="2.5" ry="2.5"/>
<text text-anchor="middle" x="5.61774" y="113.263" font-family="monospace" font-size="8.00">61</text>
</g>
<!-- 14&#45;&#45;61 -->
<g id="edge60" class="edge"><title>14&#45;&#45;61</title>
<path fill="none" stroke="black" d="M39.6556,86.1672C31.0317,92.551 13.9514,105.195 7.84938,109.712"/>
</g>
<!-- anon_15_23_0 -->
<g id="node69" class="node"><title>anon_15_23_0</title>
<ellipse fill="white" stroke="black" cx="107.903" cy="205.92" rx="2.5" ry="2.5"/>
</g>
<!-- 15&#45;&#45;anon_15_23_0 -->
<g id="edge61" class="edge"><title>15&#45;&#45;anon_15_23_0</title>
<path fill="none" stroke="black" d="M77.8419,170.056C87.8593,182.007 101.443,198.213 106.185,203.87"/>
</g>
<!-- 33 -->
<g id="node34" class="node"><title>33</title>
<ellipse fill="deepskyblue" stroke="black" cx="167.204" cy="70.1437" rx="3.5" ry="3.5"/>
<text text-anchor="middle" x="167.204" y="72.0437" font-family="monospace" font-size="8.00">33</text>
</g>
<!-- 19&#45;&#45;33 -->
<g id="edge64" class="edge"><title>19&#45;&#45;33</title>
<path fill="none" stroke="black" d="M134.724,41.27C144.178,49.6738 158.684,62.5697 164.579,67.8096"/>
</g>
<!-- 20 -->
<g id="node21" class="node"><title>20</title>
<ellipse fill="deepskyblue" stroke="black" cx="-44.7545" cy="186.208" rx="3.5" ry="3.5"/>
<text text-anchor="middle" x="-44.7545" y="188.108" font-family="monospace" font-size="8.00">20</text>
</g>
<!-- anon_20_61_0 -->
<g id="node71" class="node"><title>anon_20_61_0</title>
<ellipse fill="white" stroke="black" cx="-20.3303" cy="148.673" rx="2.5" ry="2.5"/>
</g>
<!-- 20&#45;&#45;anon_20_61_0 -->
<g id="edge65" class="edge"><title>20&#45;&#45;anon_20_61_0</title>
<path fill="none" stroke="black" d="M-42.838,183.262C-38.1598,176.073 -26.225,157.732 -21.914,151.107"/>
</g>
<!-- 23 -->
<g id="node24" class="node"><title>23</title>
<ellipse fill="deepskyblue" stroke="black" cx="148.223" cy="283.273" rx="3.5" ry="3.5"/>
<text text-anchor="middle" x="148.223" y="285.173" font-family="monospace" font-size="8.00">23</text>
</g>
<!-- 27 -->
<g id="node28" class="node"><title>27</title>
<ellipse fill="#ff3030" stroke="black" cx="220.972" cy="39.311" rx="5" ry="5"/>
<text text-anchor="middle" x="220.972" y="41.211" font-family="monospace" font-size="8.00">27</text>
</g>
<!-- 31&#45;&#45;61 -->
<g id="edge73" class="edge"><title>31&#45;&#45;61</title>
<path fill="none" stroke="black" stroke-dasharray="5,2" d="M13.9975,69.3293C11.3991,82.3634 7.49114,101.966 6.11701,108.859"/>
</g>
<!-- 32&#45;&#45;48 -->
<g id="edge74" class="edge"><title>32&#45;&#45;48</title>
<path fill="none" stroke="black" stroke-dasharray="5,2" d="M175.423,-59.1777C169.084,-54.2336 153.952,-42.4316 146.15,-36.3471"/>
</g>
<!-- 35 -->
<g id="node36" class="node"><title>35</title>
<ellipse fill="#ff3030" stroke="black" cx="-219.908" cy="-150.122" rx="3.5" ry="3.5"/>
<text text-anchor="middle" x="-219.908" y="-148.222" font-family="monospace" font-size="8.00">35</text>
</g>
<!-- 37 -->
<g id="node38" class="node"><title>37</title>
<ellipse fill="#ff3030" stroke="black" cx="239.729" cy="-123.853" rx="3.5" ry="3.5"/>
<text text-anchor="middle" x="239.729" y="-121.953" font-family="monospace" font-size="8.00">37</text>
</g>
<!-- 37&#45;&#45;60 -->
<g id="edge67" class="edge"><title>37&#45;&#45;60</title>
<path fill="none" stroke="black" d="M236.443,-122.494C228.421,-119.177 207.958,-110.714 200.566,-107.658"/>
</g>
<!-- 40 -->
<g id="node41" class="node"><title>40</title>
<ellipse fill="deepskyblue" stroke="black" cx="-208.869" cy="-0.89862" rx="3.5" ry="3.5"/>
<text text-anchor="middle" x="-208.869" y="1.00138" font-family="monospace" font-size="8.00">40</text>
</g>
<!-- 41&#45;&#45;50 -->
<g id="edge75" class="edge"><title>41&#45;&#45;50</title>
<path fill="none" stroke="black" stroke-dasharray="5,2" d="M-54.541,-35.4643C-49.2027,-29.6012 -36.8577,-16.0426 -29.6634,-8.14109"/>
</g>
<!-- 42 -->
<g id="node43" class="node"><title>42</title>
<ellipse fill="#1874cd" stroke="black" cx="-236.917" cy="-65.0205" rx="3.5" ry="3.5"/>
<text text-anchor="middle" x="-236.917" y="-63.1205" font-family="monospace" font-size="8.00">42</text>
</g>
<!-- 42&#45;&#45;46 -->
<g id="edge68" class="edge"><title>42&#45;&#45;46</title>
<path fill="none" stroke="black" d="M-233.348,-65.6733C-224.888,-67.2209 -203.684,-71.0998 -195.114,-72.6673"/>
</g>
<!-- 45 -->
<g id="node46" class="node"><title>45</title>
<ellipse fill="#1874cd" stroke="black" cx="-133.848" cy="-224.166" rx="3.5" ry="3.5"/>
<text text-anchor="middle" x="-133.848" y="-222.266" font-family="monospace" font-size="8.00">45</text>
</g>
<!-- 49 -->
<g id="node50" class="node"><title>49</title>
<ellipse fill="brown" stroke="black" cx="110.429" cy="73.9312" rx="3.5" ry="3.5"/>
<text text-anchor="middle" x="110.429" y="75.8312" font-family="monospace" font-size="8.00">49</text>
</g>
<!-- 52 -->
<g id="node53" class="node"><title>52</title>
<ellipse fill="brown" stroke="black" cx="-43.4958" cy="44.1895" rx="3.5" ry="3.5"/>
<text text-anchor="middle" x="-43.4958" y="46.0895" font-family="monospace" font-size="8.00">52</text>
</g>
<!-- 50&#45;&#45;52 -->
<g id="edge69" class="edge"><title>50&#45;&#45;52</title>
<path fill="none" stroke="black" d="M-27.3758,5.52147C-31.6603,15.7989 -39.0891,33.6189 -42.1342,40.9234"/>
</g>
<!-- 53 -->
<g id="node54" class="node"><title>53</title>
<ellipse fill="brown" stroke="black" cx="-61.2248" cy="31.5957" rx="3.5" ry="3.5"/>
<text text-anchor="middle" x="-61.2248" y="33.4957" font-family="monospace" font-size="8.00">53</text>
</g>
<!-- 50&#45;&#45;53 -->
<g id="edge70" class="edge"><title>50&#45;&#45;53</title>
<path fill="none" stroke="black" d="M-30.3034,3.44187C-38.5219,10.9248 -52.7719,23.8994 -58.613,29.2177"/>
</g>
<!-- anon_3_35_0&#45;&#45;35 -->
<g id="edge18" class="edge"><title>anon_3_35_0&#45;&#45;35</title>
<path fill="none" stroke="black" d="M-184.031,-128.653C-190.704,-132.646 -208.848,-143.503 -216.467,-148.062"/>
</g>
<!-- anon_3_40_0&#45;&#45;40 -->
<g id="edge21" class="edge"><title>anon_3_40_0&#45;&#45;40</title>
<path fill="none" stroke="black" d="M-175.606,-27.5244C-181.917,-22.4726 -199.292,-8.56449 -206.09,-3.12274"/>
</g>
<!-- anon_3_45_0&#45;&#45;45 -->
<g id="edge26" class="edge"><title>anon_3_45_0&#45;&#45;45</title>
<path fill="none" stroke="black" d="M-123.191,-182.773C-125.135,-190.324 -130.748,-212.126 -132.949,-220.671"/>
</g>
<!-- anon_6_27_1 -->
<g id="node67" class="node"><title>anon_6_27_1</title>
<ellipse fill="white" stroke="black" cx="177.731" cy="21.2226" rx="2.5" ry="2.5"/>
</g>
<!-- anon_6_27_0&#45;&#45;anon_6_27_1 -->
<g id="edge45" class="edge"><title>anon_6_27_0&#45;&#45;anon_6_27_1</title>
<path fill="none" stroke="black" d="M139.14,2.96511C146.749,6.56498 168.221,16.7234 175.377,20.109"/>
</g>
<!-- anon_6_27_1&#45;&#45;27 -->
<g id="edge46" class="edge"><title>anon_6_27_1&#45;&#45;27</title>
<path fill="none" stroke="black" d="M180.056,22.1951C186.862,25.0423 206.85,33.4035 216.132,37.2865"/>
</g>
<!-- anon_6_49_0&#45;&#45;49 -->
<g id="edge51" class="edge"><title>anon_6_49_0&#45;&#45;49</title>
<path fill="none" stroke="black" d="M86.4387,40.3511C90.9012,46.5974 103.034,63.5795 108.128,70.7103"/>
</g>
<!-- anon_15_23_1 -->
<g id="node70" class="node"><title>anon_15_23_1</title>
<ellipse fill="white" stroke="black" cx="129.825" cy="243.871" rx="2.5" ry="2.5"/>
</g>
<!-- anon_15_23_0&#45;&#45;anon_15_23_1 -->
<g id="edge62" class="edge"><title>anon_15_23_0&#45;&#45;anon_15_23_1</title>
<path fill="none" stroke="black" d="M109.341,208.41C113.304,215.27 124.35,234.392 128.353,241.322"/>
</g>
<!-- anon_15_23_1&#45;&#45;23 -->
<g id="edge63" class="edge"><title>anon_15_23_1&#45;&#45;23</title>
<path fill="none" stroke="black" d="M131.033,246.456C134.23,253.304 142.924,271.923 146.574,279.741"/>
</g>
<!-- anon_20_61_0&#45;&#45;61 -->
<g id="edge66" class="edge"><title>anon_20_61_0&#45;&#45;61</title>
<path fill="none" stroke="black" d="M-18.6278,146.225C-13.8472,139.351 -0.357097,119.954 4.1389,113.49"/>
</g>
</g>
</svg>
