<?xml version="1.0" encoding="UTF-8" standalone="no"?>
<!DOCTYPE svg PUBLIC "-//W3C//DTD SVG 1.1//EN"
 "http://www.w3.org/Graphics/SVG/1.1/DTD/svg11.dtd">
<!-- Generated by graphviz version 2.38.0 (20140413.2041)
 -->
<!-- Title: %3 Pages: 1 -->
<svg width="698pt" height="639pt"
 viewBox="0.00 0.00 697.68 639.39" xmlns="http://www.w3.org/2000/svg" xmlns:xlink="http://www.w3.org/1999/xlink">
<g id="graph0" class="graph" transform="scale(1 1) rotate(0) translate(256.953 451.009)">
<title>%3</title>
<polygon fill="white" stroke="none" points="-256.953,188.384 -256.953,-451.009 440.723,-451.009 440.723,188.384 -256.953,188.384"/>
<!-- 0 -->
<g id="node1" class="node"><title>0</title>
<path fill="palegreen" stroke="black" stroke-width="0.5" d="M212.601,-185.429C212.601,-185.429 253.601,-185.429 253.601,-185.429 253.601,-187.081 253.502,-188.731 253.302,-190.371 253.103,-192.011 252.805,-193.637 252.41,-195.241 252.015,-196.845 251.523,-198.423 250.937,-199.968 250.351,-201.512 249.673,-203.02 248.905,-204.482 248.137,-205.945 247.282,-207.36 246.344,-208.719 245.405,-210.079 244.386,-211.38 243.29,-212.617 242.195,-213.853 241.026,-215.022 239.789,-216.118 238.553,-217.213 237.252,-218.233 235.892,-219.171 234.533,-220.11 233.118,-220.965 231.655,-221.733 230.192,-222.5 228.685,-223.179 227.14,-223.764 225.596,-224.35 224.017,-224.842 222.413,-225.237 220.81,-225.633 219.183,-225.931 217.543,-226.13 215.904,-226.329 214.253,-226.429 212.601,-226.429 210.95,-226.429 209.299,-226.329 207.659,-226.13 206.02,-225.931 204.393,-225.633 202.789,-225.237 201.186,-224.842 199.607,-224.35 198.063,-223.764 196.518,-223.179 195.01,-222.5 193.548,-221.733 192.085,-220.965 190.67,-220.11 189.311,-219.171 187.951,-218.233 186.65,-217.213 185.413,-216.118 184.177,-215.022 183.008,-213.853 181.912,-212.617 180.817,-211.38 179.797,-210.079 178.859,-208.719 177.921,-207.36 177.065,-205.945 176.298,-204.482 175.53,-203.02 174.852,-201.512 174.266,-199.968 173.68,-198.423 173.188,-196.845 172.793,-195.241 172.397,-193.637 172.099,-192.011 171.9,-190.371 171.701,-188.731 171.601,-187.081 171.601,-185.429 171.601,-183.777 171.701,-182.127 171.9,-180.487 172.099,-178.847 172.397,-177.221 172.793,-175.617 173.188,-174.013 173.68,-172.435 174.266,-170.89 174.852,-169.346 175.53,-167.838 176.298,-166.375 177.065,-164.913 177.921,-163.498 178.859,-162.138 179.797,-160.779 180.817,-159.477 181.912,-158.241 181.912,-158.241 212.601,-185.429 212.601,-185.429"/>
<path fill="#787878" stroke="black" stroke-width="0.5" d="M212.601,-185.429C212.601,-185.429 181.912,-158.241 181.912,-158.241 182.597,-157.468 183.31,-156.722 184.051,-156.003 184.792,-155.284 185.56,-154.594 186.353,-153.933 187.146,-153.272 187.963,-152.641 188.804,-152.042 189.644,-151.443 190.507,-150.876 191.391,-150.342 192.274,-149.808 193.177,-149.307 194.098,-148.841 195.019,-148.376 195.958,-147.945 196.911,-147.55 197.865,-147.155 198.833,-146.796 199.814,-146.474 200.795,-146.152 201.787,-145.867 202.789,-145.62 203.792,-145.373 204.803,-145.164 205.821,-144.993 206.839,-144.823 207.863,-144.69 208.891,-144.597 209.919,-144.504 210.95,-144.449 211.982,-144.433 213.014,-144.418 214.047,-144.441 215.077,-144.504 216.107,-144.566 217.135,-144.667 218.158,-144.807 219.18,-144.947 220.197,-145.125 221.207,-145.342 222.216,-145.559 223.216,-145.813 224.206,-146.106 225.196,-146.398 226.175,-146.727 227.14,-147.093 228.105,-147.459 229.056,-147.862 229.991,-148.299 230.926,-148.737 231.844,-149.21 232.743,-149.717 233.642,-150.224 234.522,-150.765 235.38,-151.339 236.238,-151.912 237.074,-152.518 237.887,-153.154 238.699,-153.791 239.488,-154.458 240.25,-155.154 241.012,-155.85 241.748,-156.575 242.455,-157.326 243.163,-158.078 243.842,-158.856 244.49,-159.659 245.139,-160.462 245.757,-161.289 246.344,-162.138 246.93,-162.988 247.484,-163.859 248.005,-164.75 248.525,-165.642 249.012,-166.552 249.464,-167.48 249.916,-168.408 250.333,-169.353 250.713,-170.313 251.094,-171.272 251.438,-172.246 251.745,-173.231 252.052,-174.217 252.322,-175.213 252.554,-176.219 252.786,-177.225 252.979,-178.239 253.135,-179.26 253.29,-180.28 253.407,-181.306 253.485,-182.335 253.562,-183.365 253.601,-184.397 253.601,-185.429 253.601,-185.429 212.601,-185.429 212.601,-185.429"/>
<ellipse fill="none" stroke="black" cx="212.601" cy="-185.429" rx="41" ry="41"/>
</g>
<!-- 1 -->
<g id="node2" class="node"><title>1</title>
<ellipse fill="palegreen" stroke="black" cx="-25.5914" cy="40.138" rx="33" ry="33"/>
</g>
<!-- 2 -->
<g id="node3" class="node"><title>2</title>
<path fill="#1874cd" stroke="black" stroke-width="0.5" d="M227.387,67.5722C227.387,67.5722 253.887,67.5722 253.887,67.5722 253.887,66.5628 253.83,65.5542 253.715,64.5514 253.6,63.5486 253.427,62.5532 253.199,61.57 252.97,60.5868 252.685,59.6175 252.346,58.6668 252.007,57.7162 251.614,56.7856 251.168,55.8798 250.723,54.974 250.226,54.0943 249.681,53.2452 249.135,52.396 248.541,51.5787 247.902,50.7973 247.263,50.0159 246.58,49.2716 245.856,48.5682 245.132,47.8647 244.369,47.2031 243.569,46.5867 243.569,46.5867 227.387,67.5722 227.387,67.5722"/>
<path fill="olivedrab" stroke="black" stroke-width="0.5" d="M227.387,67.5722C227.387,67.5722 243.569,46.5867 243.569,46.5867 242.983,46.1341 242.377,45.7064 241.754,45.3045 241.131,44.9027 240.492,44.5272 239.838,44.179 239.183,43.8308 238.515,43.5101 237.834,43.218 237.152,42.9258 236.459,42.6623 235.756,42.4283 235.053,42.1942 234.34,41.9898 233.62,41.8154 232.899,41.6411 232.172,41.4971 231.439,41.3838 230.707,41.2705 229.97,41.1879 229.231,41.1363 228.491,41.0848 227.75,41.0643 227.009,41.0749 226.268,41.0854 225.527,41.1271 224.79,41.1998 224.052,41.2724 223.318,41.376 222.589,41.5102 221.86,41.6444 221.137,41.8091 220.422,42.0039 219.707,42.1987 219,42.4235 218.304,42.6775 217.608,42.9316 216.922,43.2147 216.25,43.5262 215.577,43.8377 214.918,44.1773 214.274,44.5441 213.63,44.9108 213.002,45.3044 212.391,45.7239 211.779,46.1433 211.186,46.5882 210.612,47.0574 210.039,47.5266 209.485,48.0196 208.952,48.5352 208.42,49.0508 207.909,49.5886 207.422,50.147 206.935,50.7054 206.471,51.284 206.032,51.8813 205.593,52.4786 205.18,53.094 204.792,53.7259 204.405,54.3579 204.044,55.0058 203.712,55.668 203.379,56.3302 203.074,57.0061 202.797,57.6938 202.521,58.3816 202.274,59.0806 202.056,59.7891 201.838,60.4976 201.65,61.2149 201.493,61.9392 201.335,62.6634 201.208,63.394 201.112,64.1288 201.016,64.8637 200.95,65.6024 200.916,66.3427 200.881,67.0831 200.878,67.8246 200.906,68.5653 200.934,69.3059 200.993,70.0451 201.082,70.7808 201.172,71.5166 201.293,72.2482 201.444,72.9738 201.595,73.6994 201.776,74.4184 201.988,75.1288 202.199,75.8392 202.44,76.5404 202.71,77.2306 202.98,77.9208 203.279,78.5994 203.606,79.2645 203.933,79.9297 204.288,80.5808 204.67,81.2162 205.051,81.8516 205.459,82.4707 205.893,83.0718 206.326,83.673 206.785,84.2557 207.267,84.8185 207.75,85.3812 208.255,85.9235 208.783,86.4438 209.311,86.9641 209.86,87.4621 210.43,87.9364 211,88.4107 211.589,88.8608 212.196,89.2857 212.803,89.7106 213.428,90.1098 214.069,90.4823 214.71,90.8548 215.366,91.2003 216.036,91.5178 216.705,91.8352 217.388,92.1245 218.082,92.3848 218.776,92.645 219.481,92.876 220.194,93.0772 220.907,93.2784 221.629,93.4496 222.357,93.5903 223.084,93.731 223.818,93.8411 224.555,93.9203 225.292,93.9995 226.031,94.0478 226.772,94.065 227.513,94.0822 228.255,94.0683 228.995,94.0234 229.734,93.9784 230.472,93.9024 231.205,93.7957 231.939,93.6889 232.668,93.5513 233.389,93.3835 234.111,93.2156 234.826,93.0175 235.531,92.7897 236.237,92.562 236.932,92.3047 237.616,92.0186 238.299,91.7325 238.971,91.4179 239.628,91.0755 240.286,90.7331 240.928,90.3634 241.555,89.9671 242.181,89.5709 242.791,89.1485 243.382,88.7012 243.972,88.2538 244.544,87.7819 245.096,87.2866 245.647,86.7913 246.178,86.2731 246.686,85.7333 247.193,85.1936 247.679,84.6328 248.14,84.0523 248.6,83.4719 249.037,82.8724 249.447,82.2554 249.858,81.6384 250.243,81.0045 250.6,80.3552 250.958,79.706 251.288,79.042 251.59,78.3651 251.892,77.6882 252.165,76.9989 252.409,76.299 252.653,75.5992 252.868,74.8894 253.052,74.1716 253.237,73.4538 253.391,72.7285 253.515,71.9977 253.639,71.267 253.732,70.5313 253.794,69.7928 253.856,69.0542 253.887,68.3133 253.887,67.5722 253.887,67.5722 227.387,67.5722 227.387,67.5722"/>
<ellipse fill="none" stroke="black" cx="227.387" cy="67.5722" rx="26.5" ry="26.5"/>
</g>
<!-- 3 -->
<g id="node4" class="node"><title>3</title>
<ellipse fill="#1874cd" stroke="black" cx="-234.453" cy="-81.7915" rx="18.5" ry="18.5"/>
</g>
<!-- 4 -->
<g id="node5" class="node"><title>4</title>
<ellipse fill="palegreen" stroke="black" cx="106.297" cy="-117.986" rx="13" ry="13"/>
</g>
<!-- 4&#45;&#45;0 -->
<g id="edge1" class="edge"><title>4&#45;&#45;0</title>
<path fill="none" stroke="black" d="M117.674,-125.203C131.921,-134.242 156.987,-150.145 177.784,-163.34"/>
</g>
<!-- 5 -->
<g id="node6" class="node"><title>5</title>
<ellipse fill="#1874cd" stroke="black" cx="-138.487" cy="-288.921" rx="12" ry="12"/>
</g>
<!-- 6 -->
<g id="node7" class="node"><title>6</title>
<ellipse fill="#787878" stroke="black" cx="149.019" cy="-290.77" rx="11.5" ry="11.5"/>
</g>
<!-- 6&#45;&#45;0 -->
<g id="edge2" class="edge"><title>6&#45;&#45;0</title>
<path fill="none" stroke="black" d="M155.116,-280.67C163.384,-266.972 178.577,-241.8 191.268,-220.774"/>
</g>
<!-- 7 -->
<g id="node8" class="node"><title>7</title>
<ellipse fill="olivedrab" stroke="black" cx="139.351" cy="81.473" rx="11" ry="11"/>
</g>
<!-- 7&#45;&#45;2 -->
<g id="edge3" class="edge"><title>7&#45;&#45;2</title>
<path fill="none" stroke="black" d="M150.501,79.7125C163.178,77.7107 184.306,74.3746 201.21,71.7055"/>
</g>
<!-- 8 -->
<g id="node9" class="node"><title>8</title>
<ellipse fill="#1874cd" stroke="black" cx="-38.4536" cy="-360.913" rx="10" ry="10"/>
</g>
<!-- 9 -->
<g id="node10" class="node"><title>9</title>
<ellipse fill="olivedrab" stroke="black" cx="173.98" cy="135.394" rx="9" ry="9"/>
</g>
<!-- 9&#45;&#45;2 -->
<g id="edge4" class="edge"><title>9&#45;&#45;2</title>
<path fill="none" stroke="black" d="M179.696,128.136C187.069,118.772 200.209,102.086 210.832,88.5958"/>
</g>
<!-- 10 -->
<g id="node11" class="node"><title>10</title>
<ellipse fill="palegreen" stroke="black" cx="28.8341" cy="130.559" rx="9" ry="9"/>
</g>
<!-- 10&#45;&#45;1 -->
<g id="edge5" class="edge"><title>10&#45;&#45;1</title>
<path fill="none" stroke="black" d="M24.0042,122.535C16.7719,110.519 2.77187,87.26 -8.51432,68.5094"/>
</g>
<!-- 11 -->
<g id="node12" class="node"><title>11</title>
<ellipse fill="#1874cd" stroke="black" cx="-194.146" cy="17.6308" rx="9" ry="9"/>
</g>
<!-- 12 -->
<g id="node13" class="node"><title>12</title>
<ellipse fill="#1874cd" stroke="black" cx="-196.063" cy="-253.965" rx="7" ry="7"/>
</g>
<!-- 12&#45;&#45;5 -->
<g id="edge6" class="edge"><title>12&#45;&#45;5</title>
<path fill="none" stroke="black" d="M-189.901,-257.706C-180.154,-263.624 -161.057,-275.218 -149.081,-282.489"/>
</g>
<!-- 13 -->
<g id="node14" class="node"><title>13</title>
<ellipse fill="#1874cd" stroke="black" cx="-243.336" cy="-13.9026" rx="6" ry="6"/>
</g>
<!-- 13&#45;&#45;3 -->
<g id="edge7" class="edge"><title>13&#45;&#45;3</title>
<path fill="none" stroke="black" d="M-242.516,-20.1677C-241.245,-29.884 -238.748,-48.9623 -236.868,-63.3303"/>
</g>
<!-- 13&#45;&#45;11 -->
<g id="edge8" class="edge"><title>13&#45;&#45;11</title>
<path fill="none" stroke="black" d="M-238.072,-10.528C-229.347,-4.93534 -211.857,6.27684 -201.778,12.7383"/>
</g>
<!-- 14 -->
<g id="node15" class="node"><title>14</title>
<ellipse fill="#1874cd" stroke="black" cx="-71.6209" cy="-305.014" rx="6" ry="6"/>
</g>
<!-- 14&#45;&#45;5 -->
<g id="edge9" class="edge"><title>14&#45;&#45;5</title>
<path fill="none" stroke="black" d="M-77.7916,-303.529C-88.9133,-300.852 -112.489,-295.178 -126.763,-291.743"/>
</g>
<!-- 14&#45;&#45;8 -->
<g id="edge10" class="edge"><title>14&#45;&#45;8</title>
<path fill="none" stroke="black" d="M-68.3194,-310.579C-62.5518,-320.299 -50.5984,-340.445 -43.6907,-352.087"/>
</g>
<!-- 15 -->
<g id="node16" class="node"><title>15</title>
<ellipse fill="#1874cd" stroke="black" cx="-17" cy="-75" rx="6" ry="6"/>
</g>
<!-- 16 -->
<g id="node17" class="node"><title>16</title>
<ellipse fill="#1874cd" stroke="black" cx="-28.0276" cy="-269.233" rx="5" ry="5"/>
</g>
<!-- 16&#45;&#45;14 -->
<g id="edge11" class="edge"><title>16&#45;&#45;14</title>
<path fill="none" stroke="black" d="M-32.0506,-272.535C-40.1445,-279.179 -58.3558,-294.126 -66.9556,-301.185"/>
</g>
<!-- 17 -->
<g id="node18" class="node"><title>17</title>
<ellipse fill="palegreen" stroke="black" cx="7.67963" cy="179.318" rx="5" ry="5"/>
</g>
<!-- 17&#45;&#45;10 -->
<g id="edge12" class="edge"><title>17&#45;&#45;10</title>
<path fill="none" stroke="black" d="M9.78534,174.464C13.3804,166.178 20.7435,149.207 25.1885,138.962"/>
</g>
<!-- 18 -->
<g id="node19" class="node"><title>18</title>
<ellipse fill="#1874cd" stroke="black" cx="-76.8557" cy="-247.565" rx="5" ry="5"/>
</g>
<!-- 18&#45;&#45;5 -->
<g id="edge13" class="edge"><title>18&#45;&#45;5</title>
<path fill="none" stroke="black" d="M-81.288,-250.539C-91.0034,-257.059 -114.395,-272.755 -128.067,-281.929"/>
</g>
<!-- 18&#45;&#45;16 -->
<g id="edge70" class="edge"><title>18&#45;&#45;16</title>
<path fill="none" stroke="black" stroke-dasharray="5,2" d="M-71.9953,-249.722C-62.636,-253.875 -42.2121,-262.939 -32.8683,-267.085"/>
</g>
<!-- 19 -->
<g id="node20" class="node"><title>19</title>
<ellipse fill="palegreen" stroke="black" cx="-22.1319" cy="137.942" rx="5" ry="5"/>
</g>
<!-- 19&#45;&#45;1 -->
<g id="edge14" class="edge"><title>19&#45;&#45;1</title>
<path fill="none" stroke="black" d="M-22.3179,132.684C-22.708,121.654 -23.6396,95.3175 -24.4096,73.5488"/>
</g>
<!-- 19&#45;&#45;17 -->
<g id="edge71" class="edge"><title>19&#45;&#45;17</title>
<path fill="none" stroke="black" stroke-dasharray="5,2" d="M-19.1645,142.061C-13.5091,149.91 -1.23698,166.942 4.54562,174.968"/>
</g>
<!-- 20 -->
<g id="node21" class="node"><title>20</title>
<ellipse fill="palegreen" stroke="black" cx="27.0064" cy="-43.2625" rx="5" ry="5"/>
</g>
<!-- 20&#45;&#45;1 -->
<g id="edge15" class="edge"><title>20&#45;&#45;1</title>
<path fill="none" stroke="black" d="M24.1785,-38.7785C18.2038,-29.3049 3.87916,-6.59133 -7.87583,12.0477"/>
</g>
<!-- 21 -->
<g id="node22" class="node"><title>21</title>
<ellipse fill="olivedrab" stroke="black" cx="119.694" cy="133.658" rx="5" ry="5"/>
</g>
<!-- 21&#45;&#45;7 -->
<g id="edge16" class="edge"><title>21&#45;&#45;7</title>
<path fill="none" stroke="black" d="M121.508,128.842C124.663,120.465 131.229,103.034 135.455,91.8142"/>
</g>
<!-- 21&#45;&#45;9 -->
<g id="edge72" class="edge"><title>21&#45;&#45;9</title>
<path fill="none" stroke="black" stroke-dasharray="5,2" d="M124.703,133.818C133.838,134.11 153.32,134.733 164.863,135.102"/>
</g>
<!-- 22 -->
<g id="node23" class="node"><title>22</title>
<ellipse fill="#1874cd" stroke="black" cx="44.3957" cy="-316.03" rx="3.5" ry="3.5"/>
</g>
<!-- anon_22_8_0 -->
<g id="node63" class="node"><title>anon_22_8_0</title>
<ellipse fill="white" stroke="black" cx="18.4923" cy="-355.615" rx="2.5" ry="2.5"/>
</g>
<!-- 22&#45;&#45;anon_22_8_0 -->
<g id="edge17" class="edge"><title>22&#45;&#45;anon_22_8_0</title>
<path fill="none" stroke="black" d="M42.3631,-319.136C37.3062,-326.864 24.2544,-346.809 19.9172,-353.437"/>
</g>
<!-- anon_22_16_0 -->
<g id="node78" class="node"><title>anon_22_16_0</title>
<ellipse fill="white" stroke="black" cx="20.5819" cy="-273.811" rx="2.5" ry="2.5"/>
</g>
<!-- 22&#45;&#45;anon_22_16_0 -->
<g id="edge73" class="edge"><title>22&#45;&#45;anon_22_16_0</title>
<path fill="none" stroke="black" stroke-dasharray="5,2" d="M42.5271,-312.717C37.8781,-304.475 25.8792,-283.203 21.8919,-276.134"/>
</g>
<!-- 23 -->
<g id="node24" class="node"><title>23</title>
<ellipse fill="palegreen" stroke="black" cx="139.367" cy="-203.983" rx="3.5" ry="3.5"/>
</g>
<!-- 23&#45;&#45;0 -->
<g id="edge19" class="edge"><title>23&#45;&#45;0</title>
<path fill="none" stroke="black" d="M142.899,-203.088C148.557,-201.655 160.262,-198.689 172.493,-195.59"/>
</g>
<!-- 24 -->
<g id="node25" class="node"><title>24</title>
<ellipse fill="olivedrab" stroke="black" cx="245.293" cy="-4.00083" rx="3.5" ry="3.5"/>
</g>
<!-- 24&#45;&#45;2 -->
<g id="edge20" class="edge"><title>24&#45;&#45;2</title>
<path fill="none" stroke="black" d="M244.429,-0.548717C242.529,7.04655 237.838,25.7974 233.858,41.7074"/>
</g>
<!-- 25 -->
<g id="node26" class="node"><title>25</title>
<ellipse fill="palegreen" stroke="black" cx="-79.963" cy="10.2675" rx="3.5" ry="3.5"/>
</g>
<!-- 25&#45;&#45;1 -->
<g id="edge21" class="edge"><title>25&#45;&#45;1</title>
<path fill="none" stroke="black" d="M-76.7247,12.0466C-72.198,14.5334 -63.5254,19.298 -54.5904,24.2066"/>
</g>
<!-- 26 -->
<g id="node27" class="node"><title>26</title>
<ellipse fill="#1874cd" stroke="black" cx="-124.084" cy="-238.693" rx="3.5" ry="3.5"/>
</g>
<!-- 26&#45;&#45;5 -->
<g id="edge22" class="edge"><title>26&#45;&#45;5</title>
<path fill="none" stroke="black" d="M-125.12,-242.305C-127.184,-249.503 -131.889,-265.913 -135.128,-277.208"/>
</g>
<!-- 27 -->
<g id="node28" class="node"><title>27</title>
<ellipse fill="#787878" stroke="black" cx="216.502" cy="-260.033" rx="3.5" ry="3.5"/>
</g>
<!-- 27&#45;&#45;0 -->
<g id="edge23" class="edge"><title>27&#45;&#45;0</title>
<path fill="none" stroke="black" d="M216.314,-256.435C216.016,-250.73 215.402,-238.987 214.758,-226.665"/>
</g>
<!-- 28 -->
<g id="node29" class="node"><title>28</title>
<ellipse fill="#1874cd" stroke="black" cx="95" cy="89" rx="3.5" ry="3.5"/>
</g>
<!-- 29 -->
<g id="node30" class="node"><title>29</title>
<ellipse fill="#1874cd" stroke="black" cx="-226.124" cy="-354.978" rx="3.5" ry="3.5"/>
</g>
<!-- anon_29_5_0 -->
<g id="node64" class="node"><title>anon_29_5_0</title>
<ellipse fill="white" stroke="black" cx="-195.364" cy="-315.361" rx="2.5" ry="2.5"/>
</g>
<!-- 29&#45;&#45;anon_29_5_0 -->
<g id="edge24" class="edge"><title>29&#45;&#45;anon_29_5_0</title>
<path fill="none" stroke="black" d="M-223.912,-352.129C-218.071,-344.607 -202.326,-324.328 -197.087,-317.58"/>
</g>
<!-- 30 -->
<g id="node31" class="node"><title>30</title>
<ellipse fill="palegreen" stroke="black" cx="-113.021" cy="67.4355" rx="3.5" ry="3.5"/>
</g>
<!-- 30&#45;&#45;1 -->
<g id="edge26" class="edge"><title>30&#45;&#45;1</title>
<path fill="none" stroke="black" d="M-109.265,66.2626C-100.309,63.4664 -76.9753,56.1812 -57.2174,50.0123"/>
</g>
<!-- 31 -->
<g id="node32" class="node"><title>31</title>
<ellipse fill="palegreen" stroke="black" cx="53.8034" cy="67.1978" rx="3.5" ry="3.5"/>
</g>
<!-- 31&#45;&#45;1 -->
<g id="edge27" class="edge"><title>31&#45;&#45;1</title>
<path fill="none" stroke="black" d="M50.3919,66.0351C42.6749,63.4049 23.2014,56.7678 5.90158,50.8716"/>
</g>
<!-- 32 -->
<g id="node33" class="node"><title>32</title>
<ellipse fill="palegreen" stroke="black" cx="-96.482" cy="98.9988" rx="3.5" ry="3.5"/>
</g>
<!-- 32&#45;&#45;1 -->
<g id="edge28" class="edge"><title>32&#45;&#45;1</title>
<path fill="none" stroke="black" d="M-93.4359,96.4696C-86.1744,90.4404 -67.2548,74.7314 -51.2346,61.4297"/>
</g>
<!-- 33 -->
<g id="node34" class="node"><title>33</title>
<ellipse fill="olivedrab" stroke="black" cx="199.961" cy="-8.43475" rx="3.5" ry="3.5"/>
</g>
<!-- 33&#45;&#45;2 -->
<g id="edge29" class="edge"><title>33&#45;&#45;2</title>
<path fill="none" stroke="black" d="M201.284,-4.76878C204.323,3.65286 212.022,24.9895 218.276,42.3224"/>
</g>
<!-- 34 -->
<g id="node35" class="node"><title>34</title>
<ellipse fill="palegreen" stroke="black" cx="49.6737" cy="-136.935" rx="3.5" ry="3.5"/>
</g>
<!-- 34&#45;&#45;4 -->
<g id="edge30" class="edge"><title>34&#45;&#45;4</title>
<path fill="none" stroke="black" d="M53.0462,-135.806C60.8554,-133.193 80.5134,-126.614 93.634,-122.223"/>
</g>
<!-- 35 -->
<g id="node36" class="node"><title>35</title>
<ellipse fill="palegreen" stroke="black" cx="62.8571" cy="-26.0244" rx="3.5" ry="3.5"/>
</g>
<!-- anon_35_4_0 -->
<g id="node65" class="node"><title>anon_35_4_0</title>
<ellipse fill="white" stroke="black" cx="87.2128" cy="-63.0058" rx="2.5" ry="2.5"/>
</g>
<!-- 35&#45;&#45;anon_35_4_0 -->
<g id="edge31" class="edge"><title>35&#45;&#45;anon_35_4_0</title>
<path fill="none" stroke="black" d="M65.1048,-29.4373C70.0037,-36.8757 81.5366,-54.3872 85.6892,-60.6925"/>
</g>
<!-- 36 -->
<g id="node37" class="node"><title>36</title>
<ellipse fill="palegreen" stroke="black" cx="11.901" cy="84.9577" rx="3.5" ry="3.5"/>
</g>
<!-- 36&#45;&#45;1 -->
<g id="edge33" class="edge"><title>36&#45;&#45;1</title>
<path fill="none" stroke="black" d="M9.44101,82.0169C6.50861,78.5114 1.30819,72.2947 -4.20313,65.7063"/>
</g>
<!-- 37 -->
<g id="node38" class="node"><title>37</title>
<ellipse fill="#787878" stroke="black" cx="313.309" cy="-181.914" rx="3.5" ry="3.5"/>
</g>
<!-- 37&#45;&#45;0 -->
<g id="edge34" class="edge"><title>37&#45;&#45;0</title>
<path fill="none" stroke="black" d="M309.484,-182.048C300.214,-182.371 275.686,-183.227 253.631,-183.997"/>
</g>
<!-- 38 -->
<g id="node39" class="node"><title>38</title>
<ellipse fill="palegreen" stroke="black" cx="-64.1672" cy="111.971" rx="3.5" ry="3.5"/>
</g>
<!-- 38&#45;&#45;1 -->
<g id="edge35" class="edge"><title>38&#45;&#45;1</title>
<path fill="none" stroke="black" d="M-62.5096,108.885C-58.8178,102.01 -49.5882,84.8234 -41.2816,69.3554"/>
</g>
<!-- 39 -->
<g id="node40" class="node"><title>39</title>
<ellipse fill="#1874cd" stroke="black" cx="-142.986" cy="-58.2339" rx="3.5" ry="3.5"/>
</g>
<!-- anon_39_3_0 -->
<g id="node66" class="node"><title>anon_39_3_0</title>
<ellipse fill="white" stroke="black" cx="-171.668" cy="-94.399" rx="2.5" ry="2.5"/>
</g>
<!-- 39&#45;&#45;anon_39_3_0 -->
<g id="edge36" class="edge"><title>39&#45;&#45;anon_39_3_0</title>
<path fill="none" stroke="black" d="M-145.236,-61.0717C-150.836,-68.132 -165.288,-86.3542 -170.09,-92.4096"/>
</g>
<!-- anon_39_11_0 -->
<g id="node79" class="node"><title>anon_39_11_0</title>
<ellipse fill="white" stroke="black" cx="-149.992" cy="-12.8008" rx="2.5" ry="2.5"/>
</g>
<!-- 39&#45;&#45;anon_39_11_0 -->
<g id="edge75" class="edge"><title>39&#45;&#45;anon_39_11_0</title>
<path fill="none" stroke="black" stroke-dasharray="5,2" d="M-143.536,-54.6688C-144.903,-45.7993 -148.433,-22.9072 -149.606,-15.3001"/>
</g>
<!-- 40 -->
<g id="node41" class="node"><title>40</title>
<ellipse fill="olivedrab" stroke="black" cx="165.657" cy="21.4566" rx="3.5" ry="3.5"/>
</g>
<!-- 40&#45;&#45;2 -->
<g id="edge38" class="edge"><title>40&#45;&#45;2</title>
<path fill="none" stroke="black" d="M168.634,23.6808C175.33,28.6825 192.075,41.1925 205.984,51.5827"/>
</g>
<!-- 41 -->
<g id="node42" class="node"><title>41</title>
<ellipse fill="#787878" stroke="black" cx="284.611" cy="-54.7622" rx="3.5" ry="3.5"/>
</g>
<!-- anon_41_0_0 -->
<g id="node67" class="node"><title>anon_41_0_0</title>
<ellipse fill="white" stroke="black" cx="257.413" cy="-91.492" rx="2.5" ry="2.5"/>
</g>
<!-- 41&#45;&#45;anon_41_0_0 -->
<g id="edge39" class="edge"><title>41&#45;&#45;anon_41_0_0</title>
<path fill="none" stroke="black" d="M282.477,-57.6443C277.167,-64.8148 263.463,-83.3216 258.909,-89.4715"/>
</g>
<!-- 42 -->
<g id="node43" class="node"><title>42</title>
<ellipse fill="palegreen" stroke="black" cx="-115.604" cy="29.9137" rx="3.5" ry="3.5"/>
</g>
<!-- 42&#45;&#45;1 -->
<g id="edge41" class="edge"><title>42&#45;&#45;1</title>
<path fill="none" stroke="black" d="M-111.736,30.353C-102.583,31.3927 -78.843,34.0893 -58.5976,36.3889"/>
</g>
<!-- 43 -->
<g id="node44" class="node"><title>43</title>
<ellipse fill="#787878" stroke="black" cx="283.885" cy="-144.221" rx="3.5" ry="3.5"/>
</g>
<!-- 43&#45;&#45;0 -->
<g id="edge42" class="edge"><title>43&#45;&#45;0</title>
<path fill="none" stroke="black" d="M280.822,-145.992C274.959,-149.381 261.539,-157.139 248.139,-164.886"/>
</g>
<!-- 44 -->
<g id="node45" class="node"><title>44</title>
<ellipse fill="#1874cd" stroke="black" cx="-144.475" cy="-435.471" rx="3.5" ry="3.5"/>
</g>
<!-- anon_44_5_0 -->
<g id="node68" class="node"><title>anon_44_5_0</title>
<ellipse fill="white" stroke="black" cx="-146.861" cy="-389.866" rx="2.5" ry="2.5"/>
</g>
<!-- 44&#45;&#45;anon_44_5_0 -->
<g id="edge43" class="edge"><title>44&#45;&#45;anon_44_5_0</title>
<path fill="none" stroke="black" d="M-144.662,-431.892C-145.128,-422.989 -146.33,-400.01 -146.729,-392.374"/>
</g>
<!-- anon_44_8_0 -->
<g id="node80" class="node"><title>anon_44_8_0</title>
<ellipse fill="white" stroke="black" cx="-95.5501" cy="-444.509" rx="2.5" ry="2.5"/>
</g>
<!-- 44&#45;&#45;anon_44_8_0 -->
<g id="edge77" class="edge"><title>44&#45;&#45;anon_44_8_0</title>
<path fill="none" stroke="black" stroke-dasharray="5,2" d="M-140.956,-436.121C-131.666,-437.837 -106.624,-442.463 -98.2897,-444.003"/>
</g>
<!-- anon_44_29_0 -->
<g id="node82" class="node"><title>anon_44_29_0</title>
<ellipse fill="white" stroke="black" cx="-193.645" cy="-442.292" rx="2.5" ry="2.5"/>
</g>
<!-- 44&#45;&#45;anon_44_29_0 -->
<g id="edge80" class="edge"><title>44&#45;&#45;anon_44_29_0</title>
<path fill="none" stroke="black" stroke-dasharray="5,2" d="M-148.011,-435.961C-157.347,-437.256 -182.515,-440.748 -190.891,-441.91"/>
</g>
<!-- 45 -->
<g id="node46" class="node"><title>45</title>
<ellipse fill="olivedrab" stroke="black" cx="230.595" cy="147.436" rx="3.5" ry="3.5"/>
</g>
<!-- 45&#45;&#45;2 -->
<g id="edge46" class="edge"><title>45&#45;&#45;2</title>
<path fill="none" stroke="black" d="M230.441,143.584C230.085,134.735 229.185,112.316 228.453,94.1033"/>
</g>
<!-- 46 -->
<g id="node47" class="node"><title>46</title>
<ellipse fill="palegreen" stroke="black" cx="191.222" cy="-115.856" rx="3.5" ry="3.5"/>
</g>
<!-- 46&#45;&#45;0 -->
<g id="edge47" class="edge"><title>46&#45;&#45;0</title>
<path fill="none" stroke="black" d="M192.253,-119.212C193.838,-124.369 197.049,-134.817 200.461,-145.92"/>
</g>
<!-- 47 -->
<g id="node48" class="node"><title>47</title>
<ellipse fill="palegreen" stroke="black" cx="32.3196" cy="-1.34355" rx="3.5" ry="3.5"/>
</g>
<!-- 47&#45;&#45;1 -->
<g id="edge48" class="edge"><title>47&#45;&#45;1</title>
<path fill="none" stroke="black" d="M29.206,0.886682C23.8495,4.72356 12.3971,12.9269 1.34025,20.8469"/>
</g>
<!-- 48 -->
<g id="node49" class="node"><title>48</title>
<ellipse fill="olivedrab" stroke="black" cx="198.261" cy="180.884" rx="3.5" ry="3.5"/>
</g>
<!-- 48&#45;&#45;9 -->
<g id="edge49" class="edge"><title>48&#45;&#45;9</title>
<path fill="none" stroke="black" d="M196.515,177.612C192.731,170.523 183.68,153.567 178.27,143.432"/>
</g>
<!-- 48&#45;&#45;45 -->
<g id="edge83" class="edge"><title>48&#45;&#45;45</title>
<path fill="none" stroke="black" stroke-dasharray="5,2" d="M200.798,178.259C206.872,171.976 222.187,156.134 228.158,149.957"/>
</g>
<!-- 49 -->
<g id="node50" class="node"><title>49</title>
<ellipse fill="#787878" stroke="black" cx="95.862" cy="-310.525" rx="3.5" ry="3.5"/>
</g>
<!-- 49&#45;&#45;6 -->
<g id="edge50" class="edge"><title>49&#45;&#45;6</title>
<path fill="none" stroke="black" d="M99.3498,-309.229C107.111,-306.345 126.076,-299.297 138.198,-294.792"/>
</g>
<!-- 50 -->
<g id="node51" class="node"><title>50</title>
<ellipse fill="olivedrab" stroke="black" cx="433.223" cy="31.1046" rx="3.5" ry="3.5"/>
</g>
<!-- anon_50_2_0 -->
<g id="node70" class="node"><title>anon_50_2_0</title>
<ellipse fill="white" stroke="black" cx="390.19" cy="31.5903" rx="2.5" ry="2.5"/>
</g>
<!-- 50&#45;&#45;anon_50_2_0 -->
<g id="edge51" class="edge"><title>50&#45;&#45;anon_50_2_0</title>
<path fill="none" stroke="black" d="M429.554,31.146C421.099,31.2414 400.397,31.4751 392.931,31.5593"/>
</g>
<!-- 51 -->
<g id="node52" class="node"><title>51</title>
<ellipse fill="olivedrab" stroke="black" cx="49" cy="-95" rx="3.5" ry="3.5"/>
</g>
<!-- 52 -->
<g id="node53" class="node"><title>52</title>
<ellipse fill="palegreen" stroke="black" cx="299.336" cy="-229.148" rx="3.5" ry="3.5"/>
</g>
<!-- 52&#45;&#45;0 -->
<g id="edge55" class="edge"><title>52&#45;&#45;0</title>
<path fill="none" stroke="black" d="M296.041,-227.488C288.244,-223.557 267.909,-213.307 249.267,-203.91"/>
</g>
<!-- 53 -->
<g id="node54" class="node"><title>53</title>
<ellipse fill="palegreen" stroke="black" cx="118.871" cy="10.8501" rx="3.5" ry="3.5"/>
</g>
<!-- anon_53_1_0 -->
<g id="node73" class="node"><title>anon_53_1_0</title>
<ellipse fill="white" stroke="black" cx="73.2237" cy="20.4073" rx="2.5" ry="2.5"/>
</g>
<!-- 53&#45;&#45;anon_53_1_0 -->
<g id="edge56" class="edge"><title>53&#45;&#45;anon_53_1_0</title>
<path fill="none" stroke="black" d="M115.289,11.6C106.378,13.4658 83.3778,18.2813 75.7348,19.8815"/>
</g>
<!-- 54 -->
<g id="node55" class="node"><title>54</title>
<ellipse fill="#1874cd" stroke="black" cx="-166.742" cy="-233.229" rx="3.5" ry="3.5"/>
</g>
<!-- 54&#45;&#45;5 -->
<g id="edge58" class="edge"><title>54&#45;&#45;5</title>
<path fill="none" stroke="black" d="M-165.059,-236.546C-161.02,-244.508 -150.627,-264.992 -144.101,-277.856"/>
</g>
<!-- 55 -->
<g id="node56" class="node"><title>55</title>
<ellipse fill="#787878" stroke="black" cx="268.309" cy="-266.69" rx="3.5" ry="3.5"/>
</g>
<!-- 55&#45;&#45;0 -->
<g id="edge59" class="edge"><title>55&#45;&#45;0</title>
<path fill="none" stroke="black" d="M266.193,-263.603C261.145,-256.24 247.916,-236.943 235.866,-219.365"/>
</g>
<!-- 56 -->
<g id="node57" class="node"><title>56</title>
<ellipse fill="#1874cd" stroke="black" cx="-197.558" cy="111.135" rx="3.5" ry="3.5"/>
</g>
<!-- anon_56_11_0 -->
<g id="node74" class="node"><title>anon_56_11_0</title>
<ellipse fill="white" stroke="black" cx="-193.863" cy="68.3621" rx="2.5" ry="2.5"/>
</g>
<!-- 56&#45;&#45;anon_56_11_0 -->
<g id="edge60" class="edge"><title>56&#45;&#45;anon_56_11_0</title>
<path fill="none" stroke="black" d="M-197.243,107.488C-196.517,99.0839 -194.739,78.5073 -194.098,71.0865"/>
</g>
<!-- 57 -->
<g id="node58" class="node"><title>57</title>
<ellipse fill="palegreen" stroke="black" cx="-14.5757" cy="-31.1886" rx="3.5" ry="3.5"/>
</g>
<!-- 57&#45;&#45;1 -->
<g id="edge62" class="edge"><title>57&#45;&#45;1</title>
<path fill="none" stroke="black" d="M-15.1679,-27.3538C-16.1958,-20.6985 -18.4036,-6.40286 -20.5238,7.32569"/>
</g>
<!-- 58 -->
<g id="node59" class="node"><title>58</title>
<ellipse fill="palegreen" stroke="black" cx="-134.568" cy="-161.71" rx="3.5" ry="3.5"/>
</g>
<!-- anon_58_1_0 -->
<g id="node75" class="node"><title>anon_58_1_0</title>
<ellipse fill="white" stroke="black" cx="-118.718" cy="-121.421" rx="2.5" ry="2.5"/>
</g>
<!-- 58&#45;&#45;anon_58_1_0 -->
<g id="edge63" class="edge"><title>58&#45;&#45;anon_58_1_0</title>
<path fill="none" stroke="black" d="M-133.217,-158.275C-130.102,-150.359 -122.477,-130.977 -119.727,-123.987"/>
</g>
<!-- 59 -->
<g id="node60" class="node"><title>59</title>
<ellipse fill="olivedrab" stroke="black" cx="281.251" cy="118.555" rx="3.5" ry="3.5"/>
</g>
<!-- 59&#45;&#45;2 -->
<g id="edge67" class="edge"><title>59&#45;&#45;2</title>
<path fill="none" stroke="black" d="M278.653,116.096C272.937,110.686 258.826,97.3291 246.852,85.9961"/>
</g>
<!-- 60 -->
<g id="node61" class="node"><title>60</title>
<ellipse fill="#1874cd" stroke="black" cx="-83.1055" cy="-258.97" rx="3.5" ry="3.5"/>
</g>
<!-- 60&#45;&#45;14 -->
<g id="edge68" class="edge"><title>60&#45;&#45;14</title>
<path fill="none" stroke="black" d="M-82.2043,-262.583C-80.2372,-270.47 -75.5417,-289.295 -73.1208,-299.001"/>
</g>
<!-- 60&#45;&#45;26 -->
<g id="edge84" class="edge"><title>60&#45;&#45;26</title>
<path fill="none" stroke="black" stroke-dasharray="5,2" d="M-86.321,-257.379C-93.8682,-253.645 -112.672,-244.34 -120.537,-240.448"/>
</g>
<!-- 61 -->
<g id="node62" class="node"><title>61</title>
<ellipse fill="#787878" stroke="black" cx="161.522" cy="-347.226" rx="3.5" ry="3.5"/>
</g>
<!-- 61&#45;&#45;6 -->
<g id="edge69" class="edge"><title>61&#45;&#45;6</title>
<path fill="none" stroke="black" d="M160.701,-343.522C158.876,-335.279 154.415,-315.137 151.565,-302.263"/>
</g>
<!-- anon_22_8_0&#45;&#45;8 -->
<g id="edge18" class="edge"><title>anon_22_8_0&#45;&#45;8</title>
<path fill="none" stroke="black" d="M15.7457,-355.87C7.92524,-356.598 -14.7597,-358.708 -28.1741,-359.957"/>
</g>
<!-- anon_29_5_0&#45;&#45;5 -->
<g id="edge25" class="edge"><title>anon_29_5_0&#45;&#45;5</title>
<path fill="none" stroke="black" d="M-192.92,-314.225C-185.521,-310.785 -163.033,-300.332 -149.386,-293.988"/>
</g>
<!-- anon_35_4_0&#45;&#45;4 -->
<g id="edge32" class="edge"><title>anon_35_4_0&#45;&#45;4</title>
<path fill="none" stroke="black" d="M88.0328,-65.3682C90.4015,-72.192 97.378,-92.2903 101.991,-105.578"/>
</g>
<!-- anon_39_3_0&#45;&#45;3 -->
<g id="edge37" class="edge"><title>anon_39_3_0&#45;&#45;3</title>
<path fill="none" stroke="black" d="M-174.366,-93.8573C-181.501,-92.4245 -201.346,-88.4395 -216.293,-85.4381"/>
</g>
<!-- anon_41_0_0&#45;&#45;0 -->
<g id="edge40" class="edge"><title>anon_41_0_0&#45;&#45;0</title>
<path fill="none" stroke="black" d="M256.305,-93.814C252.693,-101.386 240.888,-126.132 230.457,-147.999"/>
</g>
<!-- anon_44_5_1 -->
<g id="node69" class="node"><title>anon_44_5_1</title>
<ellipse fill="white" stroke="black" cx="-143.706" cy="-343.911" rx="2.5" ry="2.5"/>
</g>
<!-- anon_44_5_0&#45;&#45;anon_44_5_1 -->
<g id="edge44" class="edge"><title>anon_44_5_0&#45;&#45;anon_44_5_1</title>
<path fill="none" stroke="black" d="M-146.673,-387.129C-146.11,-378.936 -144.445,-354.674 -143.889,-346.576"/>
</g>
<!-- anon_44_5_1&#45;&#45;5 -->
<g id="edge45" class="edge"><title>anon_44_5_1&#45;&#45;5</title>
<path fill="none" stroke="black" d="M-143.454,-341.259C-142.778,-334.136 -140.89,-314.244 -139.646,-301.138"/>
</g>
<!-- anon_50_2_1 -->
<g id="node71" class="node"><title>anon_50_2_1</title>
<ellipse fill="white" stroke="black" cx="348.012" cy="37.6487" rx="2.5" ry="2.5"/>
</g>
<!-- anon_50_2_0&#45;&#45;anon_50_2_1 -->
<g id="edge52" class="edge"><title>anon_50_2_0&#45;&#45;anon_50_2_1</title>
<path fill="none" stroke="black" d="M387.422,31.9878C379.798,33.0829 358.546,36.1355 350.845,37.2418"/>
</g>
<!-- anon_50_2_2 -->
<g id="node72" class="node"><title>anon_50_2_2</title>
<ellipse fill="white" stroke="black" cx="305.145" cy="47.6639" rx="2.5" ry="2.5"/>
</g>
<!-- anon_50_2_1&#45;&#45;anon_50_2_2 -->
<g id="edge53" class="edge"><title>anon_50_2_1&#45;&#45;anon_50_2_2</title>
<path fill="none" stroke="black" d="M345.459,38.2452C337.816,40.0307 315.185,45.3182 307.631,47.0831"/>
</g>
<!-- anon_50_2_2&#45;&#45;2 -->
<g id="edge54" class="edge"><title>anon_50_2_2&#45;&#45;2</title>
<path fill="none" stroke="black" d="M302.558,48.3263C294.916,50.2829 271.815,56.1974 253.219,60.9586"/>
</g>
<!-- anon_53_1_0&#45;&#45;1 -->
<g id="edge57" class="edge"><title>anon_53_1_0&#45;&#45;1</title>
<path fill="none" stroke="black" d="M70.373,20.9765C61.1329,22.8215 31.2193,28.7945 7.21825,33.5868"/>
</g>
<!-- anon_56_11_0&#45;&#45;11 -->
<g id="edge61" class="edge"><title>anon_56_11_0&#45;&#45;11</title>
<path fill="none" stroke="black" d="M-193.878,65.6346C-193.918,58.3901 -194.03,38.4175 -194.095,26.6421"/>
</g>
<!-- anon_58_1_1 -->
<g id="node76" class="node"><title>anon_58_1_1</title>
<ellipse fill="white" stroke="black" cx="-96.2865" cy="-84.6393" rx="2.5" ry="2.5"/>
</g>
<!-- anon_58_1_0&#45;&#45;anon_58_1_1 -->
<g id="edge64" class="edge"><title>anon_58_1_0&#45;&#45;anon_58_1_1</title>
<path fill="none" stroke="black" d="M-117.246,-119.008C-113.191,-112.359 -101.889,-93.8259 -97.7931,-87.1098"/>
</g>
<!-- anon_58_1_2 -->
<g id="node77" class="node"><title>anon_58_1_2</title>
<ellipse fill="white" stroke="black" cx="-72.5301" cy="-46.3918" rx="2.5" ry="2.5"/>
</g>
<!-- anon_58_1_1&#45;&#45;anon_58_1_2 -->
<g id="edge65" class="edge"><title>anon_58_1_1&#45;&#45;anon_58_1_2</title>
<path fill="none" stroke="black" d="M-94.7278,-82.1298C-90.351,-75.0832 -78.0003,-55.1988 -73.884,-48.5716"/>
</g>
<!-- anon_58_1_2&#45;&#45;1 -->
<g id="edge66" class="edge"><title>anon_58_1_2&#45;&#45;1</title>
<path fill="none" stroke="black" d="M-71.1759,-43.8955C-66.8168,-35.8596 -52.7715,-9.96757 -41.4111,10.9749"/>
</g>
<!-- anon_22_16_0&#45;&#45;16 -->
<g id="edge74" class="edge"><title>anon_22_16_0&#45;&#45;16</title>
<path fill="none" stroke="black" stroke-dasharray="5,2" d="M17.9684,-273.565C10.2381,-272.837 -12.6172,-270.684 -22.9059,-269.715"/>
</g>
<!-- anon_39_11_0&#45;&#45;11 -->
<g id="edge76" class="edge"><title>anon_39_11_0&#45;&#45;11</title>
<path fill="none" stroke="black" stroke-dasharray="5,2" d="M-152.121,-11.333C-158.254,-7.10635 -176.175,5.24544 -186.527,12.3799"/>
</g>
<!-- anon_44_8_1 -->
<g id="node81" class="node"><title>anon_44_8_1</title>
<ellipse fill="white" stroke="black" cx="-56.2146" cy="-417.202" rx="2.5" ry="2.5"/>
</g>
<!-- anon_44_8_0&#45;&#45;anon_44_8_1 -->
<g id="edge78" class="edge"><title>anon_44_8_0&#45;&#45;anon_44_8_1</title>
<path fill="none" stroke="black" stroke-dasharray="5,2" d="M-93.4352,-443.041C-86.6691,-438.344 -65.5838,-423.706 -58.5356,-418.814"/>
</g>
<!-- anon_44_8_1&#45;&#45;8 -->
<g id="edge79" class="edge"><title>anon_44_8_1&#45;&#45;8</title>
<path fill="none" stroke="black" stroke-dasharray="5,2" d="M-55.4515,-414.784C-53.0877,-407.292 -45.7933,-384.174 -41.5676,-370.782"/>
</g>
<!-- anon_44_29_1 -->
<g id="node83" class="node"><title>anon_44_29_1</title>
<ellipse fill="white" stroke="black" cx="-226.092" cy="-405.449" rx="2.5" ry="2.5"/>
</g>
<!-- anon_44_29_0&#45;&#45;anon_44_29_1 -->
<g id="edge81" class="edge"><title>anon_44_29_0&#45;&#45;anon_44_29_1</title>
<path fill="none" stroke="black" stroke-dasharray="5,2" d="M-195.389,-440.311C-200.97,-433.974 -218.363,-414.225 -224.177,-407.623"/>
</g>
<!-- anon_44_29_1&#45;&#45;29 -->
<g id="edge82" class="edge"><title>anon_44_29_1&#45;&#45;29</title>
<path fill="none" stroke="black" stroke-dasharray="5,2" d="M-226.094,-402.736C-226.099,-394.218 -226.116,-368.014 -226.122,-358.487"/>
</g>
</g>
</svg>
