<?xml version="1.0" encoding="UTF-8" standalone="no"?>
<!DOCTYPE svg PUBLIC "-//W3C//DTD SVG 1.1//EN"
 "http://www.w3.org/Graphics/SVG/1.1/DTD/svg11.dtd">
<!-- Generated by graphviz version 2.38.0 (20140413.2041)
 -->
<!-- Title: %3 Pages: 1 -->
<svg width="235pt" height="237pt"
 viewBox="0.00 0.00 235.34 237.00" xmlns="http://www.w3.org/2000/svg" xmlns:xlink="http://www.w3.org/1999/xlink">
<g id="graph0" class="graph" transform="scale(1 1) rotate(0) translate(119.718 119.912)">
<title>%3</title>
<polygon fill="white" stroke="none" points="-119.718,117.089 -119.718,-119.912 115.624,-119.912 115.624,117.089 -119.718,117.089"/>
<!-- 0 -->
<g id="node1" class="node"><title>0</title>
<ellipse fill="grey" stroke="black" cx="-69.8428" cy="-74.5201" rx="23" ry="23"/>
<text text-anchor="middle" x="-69.8428" y="-70.8201" font-family="monospace" font-size="14.00">0</text>
</g>
<!-- anon_0_1_0 -->
<g id="node4" class="node"><title>anon_0_1_0</title>
<ellipse fill="white" stroke="black" cx="8.79492" cy="-101.412" rx="14.5" ry="14.5"/>
</g>
<!-- 0&#45;&gt;anon_0_1_0 -->
<g id="edge1" class="edge"><title>0&#45;&gt;anon_0_1_0</title>
<path fill="none" stroke="black" d="M-47.9378,-82.011C-36.1148,-86.0541 -21.6593,-90.9975 -10.299,-94.8823"/>
<polygon fill="black" stroke="black" points="-10.6151,-96.6237 -5.31782,-96.5858 -9.48256,-93.312 -10.6151,-96.6237"/>
<text text-anchor="middle" x="-31.3112" y="-93.0357" font-family="monospace" font-size="14.00">A</text>
</g>
<!-- anon_0_2_0 -->
<g id="node5" class="node"><title>anon_0_2_0</title>
<ellipse fill="white" stroke="black" cx="-101.218" cy="2.37349" rx="14.5" ry="14.5"/>
</g>
<!-- 0&#45;&gt;anon_0_2_0 -->
<g id="edge3" class="edge"><title>0&#45;&gt;anon_0_2_0</title>
<path fill="none" stroke="black" d="M-78.5824,-53.101C-83.2995,-41.5402 -89.067,-27.4053 -93.5995,-16.297"/>
<polygon fill="black" stroke="black" points="-92.0776,-15.3946 -95.5869,-11.4262 -95.3182,-16.7169 -92.0776,-15.3946"/>
<text text-anchor="middle" x="-91.5115" y="-36.2429" font-family="monospace" font-size="14.00">A</text>
</g>
<!-- 1 -->
<g id="node2" class="node"><title>1</title>
<ellipse fill="grey" stroke="black" cx="74.7545" cy="-66.6915" rx="16" ry="16"/>
<text text-anchor="middle" x="74.7545" y="-62.9915" font-family="monospace" font-size="14.00">1</text>
</g>
<!-- 2 -->
<g id="node3" class="node"><title>2</title>
<ellipse fill="grey" stroke="black" cx="-3.3974" cy="97.0892" rx="16" ry="16"/>
<text text-anchor="middle" x="-3.3974" y="100.789" font-family="monospace" font-size="14.00">2</text>
</g>
<!-- anon_0_1_0&#45;&gt;1 -->
<g id="edge2" class="edge"><title>anon_0_1_0&#45;&gt;1</title>
<path fill="none" stroke="black" d="M21.8264,-94.5523C31.5504,-89.4337 44.9804,-82.3643 55.8787,-76.6275"/>
<polygon fill="black" stroke="black" points="56.7669,-78.1377 60.3762,-74.2601 55.1366,-75.0406 56.7669,-78.1377"/>
<text text-anchor="middle" x="36.7021" y="-88.1531" font-family="monospace" font-size="14.00">B</text>
</g>
<!-- anon_0_2_1 -->
<g id="node6" class="node"><title>anon_0_2_1</title>
<ellipse fill="white" stroke="black" cx="-72.4053" cy="68.7687" rx="14.5" ry="14.5"/>
</g>
<!-- anon_0_2_0&#45;&gt;anon_0_2_1 -->
<g id="edge4" class="edge"><title>anon_0_2_0&#45;&gt;anon_0_2_1</title>
<path fill="none" stroke="black" d="M-95.387,15.8096C-91.0521,25.7989 -85.0884,39.5416 -80.3225,50.5242"/>
<polygon fill="black" stroke="black" points="-78.6124,50.0692 -78.2272,55.3527 -81.8231,51.4626 -78.6124,50.0692"/>
<text text-anchor="middle" x="-91.2817" y="31.8397" font-family="monospace" font-size="14.00">C</text>
</g>
<!-- anon_0_2_1&#45;&gt;2 -->
<g id="edge5" class="edge"><title>anon_0_2_1&#45;&gt;2</title>
<path fill="none" stroke="black" d="M-58.7716,74.3639C-48.5982,78.539 -34.5475,84.3053 -23.1456,88.9846"/>
<polygon fill="black" stroke="black" points="-22.4014,87.3983 -18.4402,90.9157 -23.7303,90.6363 -22.4014,87.3983"/>
<text text-anchor="middle" x="-43.0004" y="78.8831" font-family="monospace" font-size="14.00">D</text>
</g>
<!-- anon_1_2_0 -->
<g id="node7" class="node"><title>anon_1_2_0</title>
<ellipse fill="white" stroke="black" cx="97.1236" cy="4.42215" rx="14.5" ry="14.5"/>
</g>
<!-- anon_1_2_0&#45;&gt;1 -->
<g id="edge6" class="edge"><title>anon_1_2_0&#45;&gt;1</title>
<path fill="none" stroke="black" stroke-dasharray="5,2" d="M92.7042,-9.62762C89.4065,-20.1114 84.8519,-34.5908 81.156,-46.3407"/>
<polygon fill="black" stroke="black" points="79.4617,-45.8949 79.6307,-51.1896 82.8004,-46.9452 79.4617,-45.8949"/>
<text text-anchor="middle" x="81.6333" y="-34.3173" font-family="monospace" font-size="14.00">B</text>
</g>
<!-- anon_1_2_1 -->
<g id="node8" class="node"><title>anon_1_2_1</title>
<ellipse fill="white" stroke="black" cx="66.19" cy="69.9699" rx="14.5" ry="14.5"/>
</g>
<!-- anon_1_2_0&#45;&gt;anon_1_2_1 -->
<g id="edge7" class="edge"><title>anon_1_2_0&#45;&gt;anon_1_2_1</title>
<path fill="none" stroke="black" stroke-dasharray="5,2" d="M90.8637,17.6867C86.2097,27.5486 79.8069,41.1159 74.6901,51.9583"/>
<polygon fill="black" stroke="black" points="76.1572,52.9502 72.4406,56.7251 72.9919,51.4564 76.1572,52.9502"/>
<text text-anchor="middle" x="77.1248" y="33.4638" font-family="monospace" font-size="14.00">C</text>
</g>
<!-- anon_1_2_1&#45;&gt;2 -->
<g id="edge8" class="edge"><title>anon_1_2_1&#45;&gt;2</title>
<path fill="none" stroke="black" stroke-dasharray="5,2" d="M52.4418,75.3278C42.183,79.3258 28.0143,84.8476 16.5166,89.3284"/>
<polygon fill="black" stroke="black" points="17.066,90.9925 11.7718,91.1775 15.795,87.7313 17.066,90.9925"/>
<text text-anchor="middle" x="27.5004" y="79.4941" font-family="monospace" font-size="14.00">D</text>
</g>
</g>
</svg>
