<?xml version="1.0" encoding="UTF-8" standalone="no"?>
<!DOCTYPE svg PUBLIC "-//W3C//DTD SVG 1.1//EN"
 "http://www.w3.org/Graphics/SVG/1.1/DTD/svg11.dtd">
<!-- Generated by graphviz version 2.38.0 (20140413.2041)
 -->
<!-- Title: %3 Pages: 1 -->
<svg width="544pt" height="581pt"
 viewBox="0.00 0.00 543.87 581.27" xmlns="http://www.w3.org/2000/svg" xmlns:xlink="http://www.w3.org/1999/xlink">
<g id="graph0" class="graph" transform="scale(1 1) rotate(0) translate(184.334 397.259)">
<title>%3</title>
<polygon fill="white" stroke="none" points="-184.334,184.015 -184.334,-397.259 359.538,-397.259 359.538,184.015 -184.334,184.015"/>
<!-- 0 -->
<g id="node1" class="node"><title>0</title>
<ellipse fill="palegreen" stroke="black" cx="-37.8843" cy="61.8404" rx="23.5" ry="23.5"/>
</g>
<!-- 1 -->
<g id="node2" class="node"><title>1</title>
<ellipse fill="palegreen" stroke="black" cx="27.3499" cy="42.1901" rx="2.5" ry="2.5"/>
</g>
<!-- 0&#45;&gt;1 -->
<g id="edge1" class="edge"><title>0&#45;&gt;1</title>
<path fill="none" stroke="black" d="M-15.0686,54.9677C-0.0779991,50.4521 17.9575,45.0194 24.6659,42.9986"/>
</g>
<!-- 3 -->
<g id="node4" class="node"><title>3</title>
<ellipse fill="palegreen" stroke="black" cx="-44.0019" cy="110.331" rx="2.5" ry="2.5"/>
</g>
<!-- 0&#45;&gt;3 -->
<g id="edge2" class="edge"><title>0&#45;&gt;3</title>
<path fill="none" stroke="black" d="M-40.8356,85.2335C-41.96,94.1459 -43.1038,103.212 -43.6582,107.607"/>
</g>
<!-- 5 -->
<g id="node6" class="node"><title>5</title>
<ellipse fill="palegreen" stroke="black" cx="-76.2374" cy="22.9095" rx="2.5" ry="2.5"/>
</g>
<!-- 0&#45;&gt;5 -->
<g id="edge3" class="edge"><title>0&#45;&gt;5</title>
<path fill="none" stroke="black" d="M-54.8182,44.6514C-62.5239,36.8296 -70.7193,28.5107 -74.3355,24.8401"/>
</g>
<!-- 7 -->
<g id="node8" class="node"><title>7</title>
<ellipse fill="palegreen" stroke="black" cx="-111.416" cy="27.8584" rx="3.5" ry="3.5"/>
</g>
<!-- 0&#45;&gt;7 -->
<g id="edge6" class="edge"><title>0&#45;&gt;7</title>
<path fill="none" stroke="black" d="M-59.5486,51.8285C-76.8329,43.8407 -99.5067,33.3622 -108.005,29.4349"/>
</g>
<!-- 9 -->
<g id="node10" class="node"><title>9</title>
<ellipse fill="palegreen" stroke="black" cx="-51.033" cy="150.272" rx="6" ry="6"/>
</g>
<!-- 0&#45;&gt;9 -->
<g id="edge7" class="edge"><title>0&#45;&gt;9</title>
<path fill="none" stroke="black" d="M-42.3019,84.9812C-43.7502,92.9943 -45.2957,102.045 -46.5019,110.339 -48.229,122.215 -49.6807,136.159 -50.4475,144.031"/>
</g>
<!-- 10 -->
<g id="node11" class="node"><title>10</title>
<ellipse fill="palegreen" stroke="black" cx="-103.781" cy="87.6717" rx="2.5" ry="2.5"/>
</g>
<!-- 0&#45;&gt;10 -->
<g id="edge8" class="edge"><title>0&#45;&gt;10</title>
<path fill="none" stroke="black" d="M-59.8269,70.4419C-75.4019,76.5473 -94.6839,84.1058 -101.367,86.7255"/>
</g>
<!-- 11 -->
<g id="node12" class="node"><title>11</title>
<ellipse fill="palegreen" stroke="black" cx="1.64149" cy="130.104" rx="2.5" ry="2.5"/>
</g>
<!-- 0&#45;&gt;11 -->
<g id="edge9" class="edge"><title>0&#45;&gt;11</title>
<path fill="none" stroke="black" d="M-26.0253,82.3218C-16.3838,98.9733 -3.73739,120.814 0.324986,127.83"/>
</g>
<!-- 12 -->
<g id="node13" class="node"><title>12</title>
<ellipse fill="palegreen" stroke="black" cx="-90.6451" cy="128.513" rx="3.5" ry="3.5"/>
</g>
<!-- 0&#45;&gt;12 -->
<g id="edge10" class="edge"><title>0&#45;&gt;12</title>
<path fill="none" stroke="black" d="M-52.5811,80.4124C-65.2655,96.4413 -82.4659,118.177 -88.4701,125.764"/>
</g>
<!-- 14 -->
<g id="node15" class="node"><title>14</title>
<ellipse fill="palegreen" stroke="black" cx="-117.125" cy="61.0384" rx="2.5" ry="2.5"/>
</g>
<!-- 0&#45;&gt;14 -->
<g id="edge11" class="edge"><title>0&#45;&gt;14</title>
<path fill="none" stroke="black" d="M-61.6592,61.5998C-80.9884,61.4041 -106.342,61.1475 -114.486,61.0651"/>
</g>
<!-- 18 -->
<g id="node19" class="node"><title>18</title>
<ellipse fill="palegreen" stroke="black" cx="22.1204" cy="10.2925" rx="2.5" ry="2.5"/>
</g>
<!-- 0&#45;&gt;18 -->
<g id="edge16" class="edge"><title>0&#45;&gt;18</title>
<path fill="none" stroke="black" d="M-19.8809,46.3743C-5.244,33.8003 13.9547,17.3074 20.1218,12.0094"/>
</g>
<!-- 20 -->
<g id="node21" class="node"><title>20</title>
<ellipse fill="palegreen" stroke="black" cx="-12.129" cy="7.88865" rx="2.5" ry="2.5"/>
</g>
<!-- 0&#45;&gt;20 -->
<g id="edge17" class="edge"><title>0&#45;&gt;20</title>
<path fill="none" stroke="black" d="M-27.7052,40.5173C-22.0809,28.7357 -15.7376,15.4479 -13.2316,10.1982"/>
</g>
<!-- 22 -->
<g id="node23" class="node"><title>22</title>
<ellipse fill="palegreen" stroke="black" cx="11.2362" cy="97.502" rx="2.5" ry="2.5"/>
</g>
<!-- 0&#45;&gt;22 -->
<g id="edge18" class="edge"><title>0&#45;&gt;22</title>
<path fill="none" stroke="black" d="M-18.7524,75.7303C-7.97721,83.5531 4.26535,92.4412 9.10586,95.9554"/>
</g>
<!-- anon_0_6_0 -->
<g id="node67" class="node"><title>anon_0_6_0</title>
<ellipse fill="white" stroke="black" cx="44.9725" cy="79.5802" rx="1" ry="1"/>
</g>
<!-- 0&#45;&gt;anon_0_6_0 -->
<g id="edge4" class="edge"><title>0&#45;&gt;anon_0_6_0</title>
<path fill="none" stroke="black" d="M-14.8041,66.7819C6.64797,71.3749 36.3253,77.7288 43.4095,79.2456"/>
</g>
<!-- anon_0_15_0 -->
<g id="node68" class="node"><title>anon_0_15_0</title>
<ellipse fill="white" stroke="black" cx="-52.5014" cy="-19.6125" rx="1" ry="1"/>
</g>
<!-- 0&#45;&gt;anon_0_15_0 -->
<g id="edge12" class="edge"><title>0&#45;&gt;anon_0_15_0</title>
<path fill="none" stroke="black" d="M-42.1122,38.2809C-45.8896,17.2317 -51.0108,-11.306 -52.2321,-18.1116"/>
</g>
<!-- 2 -->
<g id="node3" class="node"><title>2</title>
<path fill="palegreen" stroke="black" stroke-width="0.5" d="M83.7722,-190.974C83.7722,-190.974 112.772,-190.974 112.772,-190.974 112.772,-192.142 112.702,-193.309 112.561,-194.469 112.42,-195.629 112.209,-196.779 111.93,-197.914 111.65,-199.048 111.302,-200.165 110.888,-201.257 110.473,-202.35 109.993,-203.416 109.45,-204.451 108.907,-205.485 108.302,-206.486 107.639,-207.447 106.975,-208.409 106.254,-209.33 105.479,-210.204 104.704,-211.079 103.877,-211.906 103.003,-212.68 102.128,-213.455 101.208,-214.176 100.246,-214.84 99.2845,-215.504 98.2837,-216.109 97.2492,-216.652 96.2146,-217.195 95.1482,-217.675 94.0557,-218.089 92.9633,-218.503 91.8468,-218.851 90.7124,-219.131 89.5779,-219.411 88.4276,-219.621 87.2678,-219.762 86.1079,-219.903 84.9406,-219.974 83.7722,-219.974 82.6038,-219.974 81.4365,-219.903 80.2766,-219.762 79.1168,-219.621 77.9665,-219.411 76.832,-219.131 75.6976,-218.851 74.5811,-218.503 73.4887,-218.089 72.3962,-217.675 71.3298,-217.195 70.2952,-216.652 69.2607,-216.109 68.2599,-215.504 67.2983,-214.84 66.3368,-214.176 65.4162,-213.455 64.5416,-212.68 63.6671,-211.906 62.8402,-211.079 62.0654,-210.204 61.2906,-209.33 60.5694,-208.409 59.9057,-207.447 59.242,-206.486 58.637,-205.485 58.094,-204.451 57.551,-203.416 57.071,-202.35 56.6567,-201.257 56.2424,-200.165 55.8945,-199.048 55.6149,-197.914 55.3353,-196.779 55.1245,-195.629 54.9836,-194.469 54.8428,-193.309 54.7722,-192.142 54.7722,-190.974 54.7722,-189.805 54.8428,-188.638 54.9836,-187.478 55.1245,-186.318 55.3353,-185.168 55.6149,-184.033 55.8945,-182.899 56.2424,-181.783 56.6567,-180.69 57.071,-179.598 57.551,-178.531 58.094,-177.497 58.637,-176.462 59.242,-175.461 59.9057,-174.5 60.5694,-173.538 61.2906,-172.618 62.0654,-171.743 62.0654,-171.743 83.7722,-190.974 83.7722,-190.974"/>
<path fill="#787878" stroke="black" stroke-width="0.5" d="M83.7722,-190.974C83.7722,-190.974 62.0654,-171.743 62.0654,-171.743 63.034,-170.65 64.0839,-169.631 65.206,-168.696 66.3282,-167.761 67.5193,-166.912 68.7694,-166.156 70.0195,-165.4 71.3248,-164.74 72.6744,-164.181 74.0239,-163.622 75.4138,-163.166 76.8321,-162.816 78.2503,-162.467 79.693,-162.225 81.1477,-162.093 82.6025,-161.96 84.0651,-161.938 85.5232,-162.027 86.9812,-162.115 88.4306,-162.313 89.8588,-162.62 91.287,-162.926 92.6899,-163.34 94.0557,-163.858 95.4216,-164.376 96.7463,-164.997 98.0186,-165.714 99.2909,-166.432 100.507,-167.244 101.657,-168.145 102.807,-169.046 103.887,-170.033 104.888,-171.096 105.89,-172.16 106.809,-173.298 107.639,-174.5 108.469,-175.702 109.206,-176.965 109.846,-178.278 110.485,-179.592 111.025,-180.951 111.459,-182.346 111.894,-183.741 112.222,-185.166 112.442,-186.61 112.662,-188.054 112.772,-189.513 112.772,-190.974 112.772,-190.974 83.7722,-190.974 83.7722,-190.974"/>
<ellipse fill="none" stroke="black" cx="83.7722" cy="-190.974" rx="29" ry="29"/>
</g>
<!-- 4 -->
<g id="node5" class="node"><title>4</title>
<ellipse fill="palegreen" stroke="black" cx="60.4027" cy="-92.0309" rx="9" ry="9"/>
</g>
<!-- 2&#45;&gt;4 -->
<g id="edge19" class="edge"><title>2&#45;&gt;4</title>
<path fill="none" stroke="black" d="M77.0754,-162.621C72.1659,-141.835 65.8102,-114.925 62.546,-101.105"/>
</g>
<!-- 13 -->
<g id="node14" class="node"><title>13</title>
<ellipse fill="palegreen" stroke="black" cx="42.2636" cy="-151.877" rx="2.5" ry="2.5"/>
</g>
<!-- 2&#45;&gt;13 -->
<g id="edge20" class="edge"><title>2&#45;&gt;13</title>
<path fill="none" stroke="black" d="M62.5315,-170.967C55.1913,-164.053 47.9322,-157.216 44.4296,-153.917"/>
</g>
<!-- 17 -->
<g id="node18" class="node"><title>17</title>
<ellipse fill="palegreen" stroke="black" cx="62.0024" cy="-271.188" rx="2.5" ry="2.5"/>
</g>
<!-- 2&#45;&gt;17 -->
<g id="edge21" class="edge"><title>2&#45;&gt;17</title>
<path fill="none" stroke="black" d="M76.1582,-219.029C71.0575,-237.823 64.9004,-260.51 62.7709,-268.357"/>
</g>
<!-- 19 -->
<g id="node20" class="node"><title>19</title>
<ellipse fill="palegreen" stroke="black" cx="26.4031" cy="-250.885" rx="2.5" ry="2.5"/>
</g>
<!-- 2&#45;&gt;19 -->
<g id="edge22" class="edge"><title>2&#45;&gt;19</title>
<path fill="none" stroke="black" d="M63.7073,-211.928C50.2656,-225.965 34.04,-242.91 28.428,-248.77"/>
</g>
<!-- 23 -->
<g id="node24" class="node"><title>23</title>
<ellipse fill="#787878" stroke="black" cx="164.447" cy="-252.066" rx="8" ry="8"/>
</g>
<!-- 2&#45;&gt;23 -->
<g id="edge23" class="edge"><title>2&#45;&gt;23</title>
<path fill="none" stroke="black" d="M107.107,-208.644C124.418,-221.753 146.844,-238.736 157.813,-247.042"/>
</g>
<!-- 24 -->
<g id="node25" class="node"><title>24</title>
<ellipse fill="#787878" stroke="black" cx="2.89942" cy="-177.09" rx="2.5" ry="2.5"/>
</g>
<!-- 2&#45;&gt;24 -->
<g id="edge24" class="edge"><title>2&#45;&gt;24</title>
<path fill="none" stroke="black" d="M55.0318,-186.04C36.1451,-182.798 13.5338,-178.916 5.71851,-177.574"/>
</g>
<!-- 27 -->
<g id="node28" class="node"><title>27</title>
<ellipse fill="#787878" stroke="black" cx="4.66268" cy="-217.745" rx="2.5" ry="2.5"/>
</g>
<!-- 2&#45;&gt;27 -->
<g id="edge27" class="edge"><title>2&#45;&gt;27</title>
<path fill="none" stroke="black" d="M56.1035,-200.337C37.5681,-206.609 15.1937,-214.181 7.45499,-216.8"/>
</g>
<!-- 28 -->
<g id="node29" class="node"><title>28</title>
<ellipse fill="#787878" stroke="black" cx="143.585" cy="-185.582" rx="2.5" ry="2.5"/>
</g>
<!-- 2&#45;&gt;28 -->
<g id="edge28" class="edge"><title>2&#45;&gt;28</title>
<path fill="none" stroke="black" d="M112.978,-188.341C124.365,-187.314 135.888,-186.275 140.938,-185.82"/>
</g>
<!-- 29 -->
<g id="node30" class="node"><title>29</title>
<ellipse fill="#787878" stroke="black" cx="100.431" cy="-252.523" rx="2.5" ry="2.5"/>
</g>
<!-- 2&#45;&gt;29 -->
<g id="edge29" class="edge"><title>2&#45;&gt;29</title>
<path fill="none" stroke="black" d="M91.419,-219.226C94.7719,-231.614 98.2734,-244.551 99.7305,-249.935"/>
</g>
<!-- anon_2_25_0 -->
<g id="node71" class="node"><title>anon_2_25_0</title>
<ellipse fill="white" stroke="black" cx="150.61" cy="-140.202" rx="1" ry="1"/>
</g>
<!-- 2&#45;&gt;anon_2_25_0 -->
<g id="edge25" class="edge"><title>2&#45;&gt;anon_2_25_0</title>
<path fill="none" stroke="black" d="M107.149,-173.216C124.014,-160.405 144.64,-144.737 149.533,-141.02"/>
</g>
<!-- 21 -->
<g id="node22" class="node"><title>21</title>
<ellipse fill="palegreen" stroke="black" cx="8.98862" cy="-70.1256" rx="2.5" ry="2.5"/>
</g>
<!-- 4&#45;&gt;21 -->
<g id="edge32" class="edge"><title>4&#45;&gt;21</title>
<path fill="none" stroke="black" d="M51.9127,-88.4137C40.0477,-83.3586 19.1267,-74.445 11.6985,-71.2802"/>
</g>
<!-- anon_4_16_0 -->
<g id="node72" class="node"><title>anon_4_16_0</title>
<ellipse fill="white" stroke="black" cx="78.2804" cy="-43.4355" rx="1" ry="1"/>
</g>
<!-- 4&#45;&gt;anon_4_16_0 -->
<g id="edge30" class="edge"><title>4&#45;&gt;anon_4_16_0</title>
<path fill="none" stroke="black" d="M63.5167,-83.5663C67.9986,-71.3837 75.9406,-49.7955 77.8561,-44.5888"/>
</g>
<!-- 6 -->
<g id="node7" class="node"><title>6</title>
<ellipse fill="palegreen" stroke="black" cx="88.1105" cy="88.9853" rx="2.5" ry="2.5"/>
</g>
<!-- 8 -->
<g id="node9" class="node"><title>8</title>
<ellipse fill="palegreen" stroke="black" cx="-92.6072" cy="176.515" rx="3.5" ry="3.5"/>
</g>
<!-- 8&#45;&gt;9 -->
<g id="edge33" class="edge"><title>8&#45;&gt;9</title>
<path fill="none" stroke="black" d="M-89.6173,174.628C-82.6168,170.209 -65.0895,159.145 -56.2721,153.579"/>
</g>
<!-- 8&#45;&gt;12 -->
<g id="edge69" class="edge"><title>8&#45;&gt;12</title>
<path fill="none" stroke="black" stroke-dasharray="5,2" d="M-92.4533,172.749C-92.0847,163.731 -91.1553,140.995 -90.793,132.131"/>
</g>
<!-- 15 -->
<g id="node16" class="node"><title>15</title>
<ellipse fill="palegreen" stroke="black" cx="-60.3529" cy="-141.751" rx="2.5" ry="2.5"/>
</g>
<!-- 16 -->
<g id="node17" class="node"><title>16</title>
<ellipse fill="palegreen" stroke="black" cx="88.4014" cy="-2.93544" rx="2.5" ry="2.5"/>
</g>
<!-- 26 -->
<g id="node27" class="node"><title>26</title>
<ellipse fill="#787878" stroke="black" cx="217.015" cy="-250.881" rx="2.5" ry="2.5"/>
</g>
<!-- 23&#45;&gt;26 -->
<g id="edge34" class="edge"><title>23&#45;&gt;26</title>
<path fill="none" stroke="black" d="M172.661,-251.881C184.674,-251.61 206.446,-251.119 214.189,-250.944"/>
</g>
<!-- 30 -->
<g id="node31" class="node"><title>30</title>
<ellipse fill="#787878" stroke="black" cx="173.544" cy="-304.274" rx="2.5" ry="2.5"/>
</g>
<!-- 23&#45;&gt;30 -->
<g id="edge35" class="edge"><title>23&#45;&gt;30</title>
<path fill="none" stroke="black" d="M165.869,-260.224C167.948,-272.154 171.715,-293.778 173.055,-301.467"/>
</g>
<!-- 25 -->
<g id="node26" class="node"><title>25</title>
<ellipse fill="#787878" stroke="black" cx="190.291" cy="-121.187" rx="2.5" ry="2.5"/>
</g>
<!-- 31 -->
<g id="node32" class="node"><title>31</title>
<ellipse fill="#1874cd" stroke="black" cx="233.306" cy="-187.267" rx="13" ry="13"/>
</g>
<!-- 44 -->
<g id="node45" class="node"><title>44</title>
<ellipse fill="#1874cd" stroke="black" cx="262.979" cy="-210.159" rx="4.5" ry="4.5"/>
</g>
<!-- 31&#45;&gt;44 -->
<g id="edge36" class="edge"><title>31&#45;&gt;44</title>
<path fill="none" stroke="black" d="M243.684,-195.274C249.032,-199.399 255.232,-204.182 259.13,-207.189"/>
</g>
<!-- 62 -->
<g id="node63" class="node"><title>62</title>
<ellipse fill="white" stroke="black" cx="300.452" cy="-193.275" rx="1" ry="1"/>
</g>
<!-- 31&#45;&gt;62 -->
<g id="edge37" class="edge"><title>31&#45;&gt;62</title>
<path fill="none" stroke="black" d="M246.572,-188.454C263.694,-189.986 292.104,-192.528 298.939,-193.14"/>
</g>
<!-- 32 -->
<g id="node33" class="node"><title>32</title>
<ellipse fill="#1874cd" stroke="black" cx="353.038" cy="-102.159" rx="2.5" ry="2.5"/>
</g>
<!-- 63 -->
<g id="node64" class="node"><title>63</title>
<ellipse fill="white" stroke="black" cx="330.088" cy="-136.543" rx="1" ry="1"/>
</g>
<!-- 32&#45;&gt;63 -->
<g id="edge38" class="edge"><title>32&#45;&gt;63</title>
<path fill="none" stroke="black" d="M351.532,-104.415C347.065,-111.108 333.997,-130.686 330.8,-135.476"/>
</g>
<!-- 33 -->
<g id="node34" class="node"><title>33</title>
<ellipse fill="#1874cd" stroke="black" cx="285.631" cy="-154.992" rx="6" ry="6"/>
</g>
<!-- 33&#45;&gt;44 -->
<g id="edge39" class="edge"><title>33&#45;&gt;44</title>
<path fill="none" stroke="black" d="M283.207,-160.896C278.641,-172.014 268.863,-195.828 264.804,-205.714"/>
</g>
<!-- 33&#45;&gt;62 -->
<g id="edge70" class="edge"><title>33&#45;&gt;62</title>
<path fill="none" stroke="black" stroke-dasharray="5,2" d="M287.818,-160.641C291.425,-169.959 298.393,-187.956 300.078,-192.31"/>
</g>
<!-- 33&#45;&gt;63 -->
<g id="edge40" class="edge"><title>33&#45;&gt;63</title>
<path fill="none" stroke="black" d="M291.443,-152.58C301.987,-148.204 323.667,-139.208 328.922,-137.027"/>
</g>
<!-- 34 -->
<g id="node35" class="node"><title>34</title>
<ellipse fill="#1874cd" stroke="black" cx="-89.8254" cy="-316.703" rx="7" ry="7"/>
</g>
<!-- 46 -->
<g id="node47" class="node"><title>46</title>
<ellipse fill="#1874cd" stroke="black" cx="-141.689" cy="-281.114" rx="4.5" ry="4.5"/>
</g>
<!-- 34&#45;&gt;46 -->
<g id="edge41" class="edge"><title>34&#45;&gt;46</title>
<path fill="none" stroke="black" d="M-95.7748,-312.62C-106.524,-305.244 -128.897,-289.892 -137.857,-283.744"/>
</g>
<!-- 64 -->
<g id="node65" class="node"><title>64</title>
<ellipse fill="white" stroke="black" cx="-62.2409" cy="-266.925" rx="1" ry="1"/>
</g>
<!-- 34&#45;&gt;64 -->
<g id="edge42" class="edge"><title>34&#45;&gt;64</title>
<path fill="none" stroke="black" d="M-86.2192,-310.195C-79.6767,-298.389 -66.2252,-274.115 -62.9645,-268.231"/>
</g>
<!-- 65 -->
<g id="node66" class="node"><title>65</title>
<ellipse fill="white" stroke="black" cx="-137.927" cy="-348.061" rx="1" ry="1"/>
</g>
<!-- 34&#45;&gt;65 -->
<g id="edge43" class="edge"><title>34&#45;&gt;65</title>
<path fill="none" stroke="black" d="M-95.7236,-320.548C-106.962,-327.875 -130.845,-343.445 -136.64,-347.223"/>
</g>
<!-- 35 -->
<g id="node36" class="node"><title>35</title>
<ellipse fill="#1874cd" stroke="black" cx="45" cy="-45" rx="4.5" ry="4.5"/>
</g>
<!-- 36 -->
<g id="node37" class="node"><title>36</title>
<ellipse fill="#1874cd" stroke="black" cx="-33.9368" cy="-232.306" rx="2.5" ry="2.5"/>
</g>
<!-- 36&#45;&gt;64 -->
<g id="edge44" class="edge"><title>36&#45;&gt;64</title>
<path fill="none" stroke="black" d="M-35.7939,-234.577C-41.3037,-241.316 -57.4198,-261.028 -61.3627,-265.851"/>
</g>
<!-- 37 -->
<g id="node38" class="node"><title>37</title>
<ellipse fill="#1874cd" stroke="black" cx="-114.135" cy="-232.04" rx="8.5" ry="8.5"/>
</g>
<!-- 41 -->
<g id="node42" class="node"><title>41</title>
<ellipse fill="#1874cd" stroke="black" cx="-110.651" cy="-264.6" rx="2.5" ry="2.5"/>
</g>
<!-- 37&#45;&gt;41 -->
<g id="edge45" class="edge"><title>37&#45;&gt;41</title>
<path fill="none" stroke="black" d="M-113.22,-240.595C-112.462,-247.679 -111.432,-257.305 -110.938,-261.918"/>
</g>
<!-- 42 -->
<g id="node43" class="node"><title>42</title>
<ellipse fill="#1874cd" stroke="black" cx="-147.187" cy="-186.16" rx="5" ry="5"/>
</g>
<!-- 37&#45;&gt;42 -->
<g id="edge46" class="edge"><title>37&#45;&gt;42</title>
<path fill="none" stroke="black" d="M-119.3,-224.871C-126.272,-215.193 -138.472,-198.257 -144.137,-190.394"/>
</g>
<!-- 43 -->
<g id="node44" class="node"><title>43</title>
<ellipse fill="#1874cd" stroke="black" cx="-173.682" cy="-257.091" rx="3.5" ry="3.5"/>
</g>
<!-- 37&#45;&gt;43 -->
<g id="edge47" class="edge"><title>37&#45;&gt;43</title>
<path fill="none" stroke="black" d="M-122.415,-235.523C-135.709,-241.116 -161.245,-251.858 -170.353,-255.69"/>
</g>
<!-- 37&#45;&gt;46 -->
<g id="edge48" class="edge"><title>37&#45;&gt;46</title>
<path fill="none" stroke="black" d="M-118.441,-239.708C-124.374,-250.275 -134.85,-268.933 -139.434,-277.098"/>
</g>
<!-- 47 -->
<g id="node48" class="node"><title>47</title>
<ellipse fill="#1874cd" stroke="black" cx="-97.7003" cy="-182.819" rx="2.5" ry="2.5"/>
</g>
<!-- 37&#45;&gt;47 -->
<g id="edge49" class="edge"><title>37&#45;&gt;47</title>
<path fill="none" stroke="black" d="M-111.421,-223.912C-107.629,-212.553 -100.941,-192.525 -98.5665,-185.413"/>
</g>
<!-- 37&#45;&gt;64 -->
<g id="edge71" class="edge"><title>37&#45;&gt;64</title>
<path fill="none" stroke="black" stroke-dasharray="5,2" d="M-106.92,-236.89C-94.4428,-245.278 -69.5932,-261.982 -63.5758,-266.027"/>
</g>
<!-- 38 -->
<g id="node39" class="node"><title>38</title>
<ellipse fill="#1874cd" stroke="black" cx="-127.847" cy="-309.982" rx="2.5" ry="2.5"/>
</g>
<!-- 38&#45;&gt;41 -->
<g id="edge50" class="edge"><title>38&#45;&gt;41</title>
<path fill="none" stroke="black" d="M-126.923,-307.542C-123.965,-299.736 -114.747,-275.409 -111.666,-267.278"/>
</g>
<!-- 38&#45;&gt;46 -->
<g id="edge72" class="edge"><title>38&#45;&gt;46</title>
<path fill="none" stroke="black" stroke-dasharray="5,2" d="M-128.934,-307.717C-131.228,-302.932 -136.602,-291.724 -139.591,-285.491"/>
</g>
<!-- 39 -->
<g id="node40" class="node"><title>39</title>
<ellipse fill="#1874cd" stroke="black" cx="3" cy="-43" rx="2.5" ry="2.5"/>
</g>
<!-- 40 -->
<g id="node41" class="node"><title>40</title>
<path fill="#1874cd" stroke="black" stroke-width="0.5" d="M196.799,49.1361C196.799,49.1361 215.799,49.1361 215.799,49.1361 215.799,48.4124 215.757,47.6893 215.675,46.9703 215.592,46.2513 215.469,45.5376 215.305,44.8327 215.141,44.1278 214.937,43.4328 214.694,42.7512 214.451,42.0696 214.169,41.4024 213.849,40.7529 213.53,40.1035 213.174,39.4728 212.783,38.864 212.391,38.2551 211.966,37.6692 211.507,37.1089 211.049,36.5486 210.56,36.015 210.041,35.5106 209.522,35.0063 208.974,34.5319 208.401,34.09 208.401,34.09 196.799,49.1361 196.799,49.1361"/>
<path fill="olivedrab" stroke="black" stroke-width="0.5" d="M196.799,49.1361C196.799,49.1361 208.401,34.09 208.401,34.09 207.559,33.4407 206.664,32.8632 205.725,32.3637 204.787,31.8641 203.808,31.4442 202.799,31.1084 201.79,30.7727 200.755,30.5222 199.704,30.3596 198.653,30.197 197.591,30.1229 196.527,30.1381 195.464,30.1533 194.404,30.2577 193.358,30.4502 192.313,30.6427 191.285,30.9227 190.286,31.2871 189.287,31.6516 188.321,32.0993 187.397,32.6254 186.473,33.1516 185.595,33.7544 184.771,34.4274 183.948,35.1005 183.183,35.8415 182.484,36.6426 181.785,37.4437 181.154,38.3021 180.599,39.2087 180.043,40.1153 179.564,41.0669 179.168,42.0536 178.772,43.0402 178.459,44.0584 178.233,45.0974 178.007,46.1364 177.868,47.1925 177.819,48.2547 177.77,49.3168 177.81,50.3812 177.938,51.4367 178.067,52.4922 178.284,53.535 178.588,54.5541 178.891,55.5733 179.279,56.5651 179.748,57.5193 180.217,58.4735 180.766,59.3867 181.388,60.2491 182.01,61.1116 182.703,61.9203 183.46,62.6668 184.217,63.4132 185.036,64.0948 185.907,64.7044 186.778,65.3139 187.699,65.8492 188.66,66.3047 189.621,66.7602 190.618,67.1342 191.641,67.4228 192.665,67.7114 193.711,67.9136 194.768,68.0273 195.825,68.1409 196.89,68.1657 197.951,68.1012 199.012,68.0367 200.066,67.8832 201.102,67.6424 202.138,67.4015 203.151,67.0742 204.132,66.6638 205.113,66.2534 206.058,65.7614 206.956,65.1929 207.855,64.6244 208.704,63.9816 209.495,63.271 210.286,62.5605 211.016,61.7848 211.678,60.9521 212.339,60.1195 212.929,59.2327 213.442,58.3013 213.955,57.3699 214.389,56.3971 214.739,55.3931 215.089,54.3892 215.354,53.3576 215.532,52.3092 215.709,51.2608 215.799,50.1994 215.799,49.1361 215.799,49.1361 196.799,49.1361 196.799,49.1361"/>
<ellipse fill="none" stroke="black" cx="196.799" cy="49.1361" rx="19" ry="19"/>
</g>
<!-- 52 -->
<g id="node53" class="node"><title>52</title>
<ellipse fill="olivedrab" stroke="black" cx="125.545" cy="70.0348" rx="6" ry="6"/>
</g>
<!-- 40&#45;&gt;52 -->
<g id="edge51" class="edge"><title>40&#45;&gt;52</title>
<path fill="none" stroke="black" d="M178.449,54.5181C162.945,59.0654 141.681,65.3021 131.478,68.2945"/>
</g>
<!-- 55 -->
<g id="node56" class="node"><title>55</title>
<ellipse fill="olivedrab" stroke="black" cx="125.704" cy="15.2378" rx="7.5" ry="7.5"/>
</g>
<!-- 40&#45;&gt;55 -->
<g id="edge52" class="edge"><title>40&#45;&gt;55</title>
<path fill="none" stroke="black" d="M179.589,40.9303C164.466,33.7196 143.245,23.6015 132.505,18.4804"/>
</g>
<!-- 56 -->
<g id="node57" class="node"><title>56</title>
<ellipse fill="olivedrab" stroke="black" cx="172.326" cy="-8.34805" rx="2.5" ry="2.5"/>
</g>
<!-- 40&#45;&gt;56 -->
<g id="edge53" class="edge"><title>40&#45;&gt;56</title>
<path fill="none" stroke="black" d="M189.323,31.5766C183.588,18.1054 176.2,0.751393 173.435,-5.74286"/>
</g>
<!-- 57 -->
<g id="node58" class="node"><title>57</title>
<ellipse fill="olivedrab" stroke="black" cx="163.263" cy="106.335" rx="2.5" ry="2.5"/>
</g>
<!-- 40&#45;&gt;57 -->
<g id="edge54" class="edge"><title>40&#45;&gt;57</title>
<path fill="none" stroke="black" d="M187.099,65.6805C179.051,79.4062 168.345,97.6662 164.614,104.031"/>
</g>
<!-- 58 -->
<g id="node59" class="node"><title>58</title>
<ellipse fill="olivedrab" stroke="black" cx="259.963" cy="54.9759" rx="2.5" ry="2.5"/>
</g>
<!-- 40&#45;&gt;58 -->
<g id="edge55" class="edge"><title>40&#45;&gt;58</title>
<path fill="none" stroke="black" d="M215.75,50.8883C230.576,52.259 249.849,54.0408 257.067,54.7081"/>
</g>
<!-- 60 -->
<g id="node61" class="node"><title>60</title>
<ellipse fill="olivedrab" stroke="black" cx="251.031" cy="93.6114" rx="2.5" ry="2.5"/>
</g>
<!-- 40&#45;&gt;60 -->
<g id="edge60" class="edge"><title>40&#45;&gt;60</title>
<path fill="none" stroke="black" d="M211.618,61.2892C224.665,71.9885 242.529,86.6392 248.77,91.757"/>
</g>
<!-- 61 -->
<g id="node62" class="node"><title>61</title>
<ellipse fill="olivedrab" stroke="black" cx="217.058" cy="114.853" rx="2.5" ry="2.5"/>
</g>
<!-- 40&#45;&gt;61 -->
<g id="edge61" class="edge"><title>40&#45;&gt;61</title>
<path fill="none" stroke="black" d="M202.442,67.442C207.313,83.2412 213.918,104.666 216.223,112.144"/>
</g>
<!-- anon_40_59_0 -->
<g id="node73" class="node"><title>anon_40_59_0</title>
<ellipse fill="white" stroke="black" cx="235.485" cy="-7.79308" rx="1" ry="1"/>
</g>
<!-- 40&#45;&gt;anon_40_59_0 -->
<g id="edge56" class="edge"><title>40&#45;&gt;anon_40_59_0</title>
<path fill="none" stroke="black" d="M207.575,33.2782C217.591,18.5389 231.447,-1.85183 234.755,-6.71921"/>
</g>
<!-- 49 -->
<g id="node50" class="node"><title>49</title>
<ellipse fill="#1874cd" stroke="black" cx="-176.834" cy="-311.623" rx="3.5" ry="3.5"/>
</g>
<!-- 43&#45;&gt;49 -->
<g id="edge62" class="edge"><title>43&#45;&gt;49</title>
<path fill="none" stroke="black" d="M-173.889,-260.669C-174.459,-270.526 -176.047,-298.003 -176.622,-307.96"/>
</g>
<!-- 45 -->
<g id="node46" class="node"><title>45</title>
<ellipse fill="#1874cd" stroke="black" cx="341.506" cy="-177.605" rx="2.5" ry="2.5"/>
</g>
<!-- 45&#45;&gt;62 -->
<g id="edge63" class="edge"><title>45&#45;&gt;62</title>
<path fill="none" stroke="black" d="M338.812,-178.633C330.82,-181.683 307.445,-190.606 301.726,-192.789"/>
</g>
<!-- 45&#45;&gt;63 -->
<g id="edge73" class="edge"><title>45&#45;&gt;63</title>
<path fill="none" stroke="black" stroke-dasharray="5,2" d="M340.757,-174.911C338.534,-166.917 332.033,-143.537 330.442,-137.817"/>
</g>
<!-- 46&#45;&gt;49 -->
<g id="edge74" class="edge"><title>46&#45;&gt;49</title>
<path fill="none" stroke="black" stroke-dasharray="5,2" d="M-145.188,-284.151C-152.132,-290.18 -167.541,-303.556 -173.95,-309.119"/>
</g>
<!-- 48 -->
<g id="node49" class="node"><title>48</title>
<ellipse fill="#1874cd" stroke="black" cx="20.123" cy="-291.257" rx="2.5" ry="2.5"/>
</g>
<!-- anon_48_64_0 -->
<g id="node76" class="node"><title>anon_48_64_0</title>
<ellipse fill="white" stroke="black" cx="-21.6526" cy="-283.561" rx="1" ry="1"/>
</g>
<!-- 48&#45;&gt;anon_48_64_0 -->
<g id="edge64" class="edge"><title>48&#45;&gt;anon_48_64_0</title>
<path fill="none" stroke="black" d="M17.3819,-290.752C9.24974,-289.254 -14.5369,-284.872 -20.3565,-283.8"/>
</g>
<!-- 49&#45;&gt;65 -->
<g id="edge75" class="edge"><title>49&#45;&gt;65</title>
<path fill="none" stroke="black" stroke-dasharray="5,2" d="M-174.036,-314.243C-166.23,-321.554 -144.438,-341.963 -139.112,-346.951"/>
</g>
<!-- 50 -->
<g id="node51" class="node"><title>50</title>
<ellipse fill="#1874cd" stroke="black" cx="-144.814" cy="-390.759" rx="2.5" ry="2.5"/>
</g>
<!-- 50&#45;&gt;65 -->
<g id="edge66" class="edge"><title>50&#45;&gt;65</title>
<path fill="none" stroke="black" d="M-144.404,-388.216C-143.107,-380.173 -139.12,-355.462 -138.144,-349.41"/>
</g>
<!-- 51 -->
<g id="node52" class="node"><title>51</title>
<ellipse fill="olivedrab" stroke="black" cx="120.508" cy="117.749" rx="2.5" ry="2.5"/>
</g>
<!-- 51&#45;&gt;52 -->
<g id="edge67" class="edge"><title>51&#45;&gt;52</title>
<path fill="none" stroke="black" d="M120.779,115.184C121.555,107.828 123.805,86.5211 124.913,76.0235"/>
</g>
<!-- 51&#45;&gt;57 -->
<g id="edge76" class="edge"><title>51&#45;&gt;57</title>
<path fill="none" stroke="black" stroke-dasharray="5,2" d="M123.054,117.069C130.677,115.035 153.249,109.009 160.783,106.997"/>
</g>
<!-- 54 -->
<g id="node55" class="node"><title>54</title>
<ellipse fill="olivedrab" stroke="black" cx="83.1631" cy="42.6092" rx="3.5" ry="3.5"/>
</g>
<!-- 52&#45;&gt;54 -->
<g id="edge68" class="edge"><title>52&#45;&gt;54</title>
<path fill="none" stroke="black" d="M120.348,66.6719C111.507,60.9505 93.784,49.4821 86.4535,44.7384"/>
</g>
<!-- 53 -->
<g id="node54" class="node"><title>53</title>
<ellipse fill="olivedrab" stroke="black" cx="103" cy="-103" rx="2.5" ry="2.5"/>
</g>
<!-- 54&#45;&gt;55 -->
<g id="edge77" class="edge"><title>54&#45;&gt;55</title>
<path fill="none" stroke="black" stroke-dasharray="5,2" d="M86.2225,40.6407C93.0811,36.2279 109.814,25.4618 119.145,19.4583"/>
</g>
<!-- 59 -->
<g id="node60" class="node"><title>59</title>
<ellipse fill="olivedrab" stroke="black" cx="293.609" cy="-113.198" rx="2.5" ry="2.5"/>
</g>
<!-- anon_0_6_0&#45;&gt;6 -->
<g id="edge5" class="edge"><title>anon_0_6_0&#45;&gt;6</title>
<path fill="none" stroke="black" d="M46.0388,79.8127C51.54,81.0121 76.7822,86.5154 85.2968,88.3718"/>
</g>
<!-- anon_0_15_1 -->
<g id="node69" class="node"><title>anon_0_15_1</title>
<ellipse fill="white" stroke="black" cx="-60.8738" cy="-61.0527" rx="1" ry="1"/>
</g>
<!-- anon_0_15_0&#45;&gt;anon_0_15_1 -->
<g id="edge13" class="edge"><title>anon_0_15_0&#45;&gt;anon_0_15_1</title>
<path fill="none" stroke="black" d="M-52.7084,-20.6369C-53.8365,-26.2206 -59.242,-52.9762 -60.5758,-59.5778"/>
</g>
<!-- anon_0_15_2 -->
<g id="node70" class="node"><title>anon_0_15_2</title>
<ellipse fill="white" stroke="black" cx="-64.8429" cy="-101.077" rx="1" ry="1"/>
</g>
<!-- anon_0_15_1&#45;&gt;anon_0_15_2 -->
<g id="edge14" class="edge"><title>anon_0_15_1&#45;&gt;anon_0_15_2</title>
<path fill="none" stroke="black" d="M-61.0058,-62.3843C-61.6084,-68.461 -64.0942,-93.5273 -64.7062,-99.699"/>
</g>
<!-- anon_0_15_2&#45;&gt;15 -->
<g id="edge15" class="edge"><title>anon_0_15_2&#45;&gt;15</title>
<path fill="none" stroke="black" d="M-64.7319,-102.082C-64.1593,-107.269 -61.532,-131.069 -60.6458,-139.098"/>
</g>
<!-- anon_2_25_0&#45;&gt;25 -->
<g id="edge26" class="edge"><title>anon_2_25_0&#45;&gt;25</title>
<path fill="none" stroke="black" d="M151.591,-139.732C156.651,-137.307 179.871,-126.18 187.703,-122.427"/>
</g>
<!-- anon_4_16_0&#45;&gt;16 -->
<g id="edge31" class="edge"><title>anon_4_16_0&#45;&gt;16</title>
<path fill="none" stroke="black" d="M78.5306,-42.4344C79.8213,-37.2696 85.7436,-13.571 87.7412,-5.57714"/>
</g>
<!-- anon_40_59_1 -->
<g id="node74" class="node"><title>anon_40_59_1</title>
<ellipse fill="white" stroke="black" cx="259.988" cy="-40.8952" rx="1" ry="1"/>
</g>
<!-- anon_40_59_0&#45;&gt;anon_40_59_1 -->
<g id="edge57" class="edge"><title>anon_40_59_0&#45;&gt;anon_40_59_1</title>
<path fill="none" stroke="black" d="M236.091,-8.61134C239.392,-13.0716 255.212,-34.4437 259.116,-39.7171"/>
</g>
<!-- anon_40_59_2 -->
<g id="node75" class="node"><title>anon_40_59_2</title>
<ellipse fill="white" stroke="black" cx="281.558" cy="-74.3085" rx="1" ry="1"/>
</g>
<!-- anon_40_59_1&#45;&gt;anon_40_59_2 -->
<g id="edge58" class="edge"><title>anon_40_59_1&#45;&gt;anon_40_59_2</title>
<path fill="none" stroke="black" d="M260.915,-42.3309C264.527,-47.927 277.623,-68.2128 280.84,-73.1968"/>
</g>
<!-- anon_40_59_2&#45;&gt;59 -->
<g id="edge59" class="edge"><title>anon_40_59_2&#45;&gt;59</title>
<path fill="none" stroke="black" d="M281.856,-75.2699C283.393,-80.2292 290.445,-102.986 292.823,-110.662"/>
</g>
<!-- anon_48_64_0&#45;&gt;64 -->
<g id="edge65" class="edge"><title>anon_48_64_0&#45;&gt;64</title>
<path fill="none" stroke="black" d="M-22.6559,-283.15C-28.1249,-280.908 -54.3304,-270.167 -60.7963,-267.517"/>
</g>
</g>
</svg>
