<?xml version="1.0" encoding="UTF-8" standalone="no"?>
<!DOCTYPE svg PUBLIC "-//W3C//DTD SVG 1.1//EN"
 "http://www.w3.org/Graphics/SVG/1.1/DTD/svg11.dtd">
<!-- Generated by graphviz version 2.38.0 (20140413.2041)
 -->
<!-- Title: %3 Pages: 1 -->
<svg width="208pt" height="347pt"
 viewBox="0.00 0.00 207.97 347.20" xmlns="http://www.w3.org/2000/svg" xmlns:xlink="http://www.w3.org/1999/xlink">
<g id="graph0" class="graph" transform="scale(1 1) rotate(0) translate(83.9295 240.681)">
<title>%3</title>
<polygon fill="white" stroke="none" points="-83.9295,106.52 -83.9295,-240.681 124.044,-240.681 124.044,106.52 -83.9295,106.52"/>
<!-- 0 -->
<g id="node1" class="node"><title>0</title>
<path fill="#787878" stroke="black" stroke-width="0.5" d="M20.1652,-61.3232C20.1652,-61.3232 61.1652,-61.3232 61.1652,-61.3232 61.1652,-62.3555 61.1262,-63.3873 61.0484,-64.4166 60.9705,-65.4458 60.8538,-66.4718 60.6985,-67.4923 60.5431,-68.5127 60.3494,-69.527 60.1175,-70.5328 59.8856,-71.5387 59.6159,-72.5354 59.3088,-73.5209 59.0017,-74.5063 58.6575,-75.4799 58.2769,-76.4394 57.8964,-77.3989 57.4797,-78.3437 57.0278,-79.2717 56.576,-80.1998 56.0892,-81.1104 55.5686,-82.0017 55.048,-82.8931 54.4939,-83.7644 53.9076,-84.6139 53.3212,-85.4634 52.703,-86.2904 52.0542,-87.0933 51.4054,-87.8961 50.7265,-88.6742 50.019,-89.4258 49.3115,-90.1774 48.5759,-90.902 47.8137,-91.598 47.0515,-92.2941 46.2632,-92.9612 45.4507,-93.5978 44.6382,-94.2343 43.8019,-94.84 42.9436,-95.4135 42.0854,-95.987 41.2057,-96.5278 40.3067,-97.0349 39.4076,-97.542 38.4897,-98.0149 37.5549,-98.4527 36.6201,-98.8905 35.6692,-99.2929 34.704,-99.6589 33.7389,-100.025 32.7603,-100.354 31.7703,-100.647 30.7803,-100.939 29.7796,-101.193 28.7704,-101.41 27.7611,-101.627 26.7441,-101.805 25.7214,-101.945 24.6987,-102.085 23.6711,-102.186 22.6407,-102.248 21.6104,-102.311 20.5781,-102.334 19.546,-102.319 18.5139,-102.303 17.4828,-102.248 16.4548,-102.155 15.4268,-102.062 14.4027,-101.929 13.3847,-101.759 12.3667,-101.588 11.3555,-101.379 10.3533,-101.132 9.35106,-100.885 8.35853,-100.6 7.3778,-100.278 6.39707,-99.9562 5.42885,-99.5973 4.47521,-99.2023 3.52156,-98.8073 2.58318,-98.3764 1.66205,-97.9106 0.740931,-97.4447 -0.162272,-96.9443 -1.04562,-96.4103 -1.92897,-95.8763 -2.79185,-95.3091 -3.63239,-94.71 -4.47293,-94.1108 -5.29055,-93.4802 -6.0835,-92.8193 -6.87645,-92.1585 -7.64415,-91.4679 -8.38498,-90.7492 -9.12581,-90.0304 -9.83923,-89.2839 -10.5237,-88.5113 -10.5237,-88.5113 20.1652,-61.3232 20.1652,-61.3232"/>
<path fill="palegreen" stroke="black" stroke-width="0.5" d="M20.1652,-61.3232C20.1652,-61.3232 -10.5237,-88.5113 -10.5237,-88.5113 -11.6191,-87.2748 -12.6388,-85.9733 -13.5771,-84.6139 -14.5155,-83.2544 -15.3708,-81.8395 -16.1385,-80.3769 -16.9061,-78.9142 -17.5847,-77.4065 -18.1704,-75.862 -18.7562,-74.3175 -19.2481,-72.739 -19.6434,-71.1352 -20.0387,-69.5313 -20.3367,-67.905 -20.5358,-66.2652 -20.7349,-64.6254 -20.8348,-62.9751 -20.8348,-61.3232 -20.8348,-59.6714 -20.7349,-58.021 -20.5358,-56.3812 -20.3367,-54.7414 -20.0387,-53.1151 -19.6434,-51.5113 -19.2481,-49.9074 -18.7562,-48.3289 -18.1704,-46.7844 -17.5847,-45.2399 -16.9061,-43.7322 -16.1385,-42.2696 -15.3708,-40.8069 -14.5155,-39.392 -13.5771,-38.0326 -12.6388,-36.6731 -11.6191,-35.3716 -10.5237,-34.1352 -9.42833,-32.8988 -8.25923,-31.7297 -7.0228,-30.6343 -5.78637,-29.5389 -4.48487,-28.5193 -3.12543,-27.5809 -1.76598,-26.6425 -0.351063,-25.7872 1.11158,-25.0195 2.57422,-24.2519 4.08192,-23.5733 5.62643,-22.9876 7.17094,-22.4018 8.74943,-21.9099 10.3533,-21.5146 11.9571,-21.1193 13.5834,-20.8213 15.2232,-20.6222 16.863,-20.4231 18.5134,-20.3232 20.1652,-20.3232 21.8171,-20.3232 23.4674,-20.4231 25.1072,-20.6222 26.747,-20.8213 28.3733,-21.1193 29.9772,-21.5146 31.581,-21.9099 33.1595,-22.4018 34.704,-22.9876 36.2485,-23.5733 37.7562,-24.2519 39.2189,-25.0195 40.6815,-25.7872 42.0964,-26.6425 43.4559,-27.5809 44.8153,-28.5193 46.1168,-29.5389 47.3533,-30.6343 48.5897,-31.7297 49.7588,-32.8988 50.8542,-34.1352 51.9495,-35.3716 52.9692,-36.6731 53.9076,-38.0326 54.8459,-39.392 55.7013,-40.8069 56.4689,-42.2696 57.2366,-43.7322 57.9151,-45.2399 58.5009,-46.7844 59.0866,-48.3289 59.5785,-49.9074 59.9738,-51.5113 60.3692,-53.1151 60.6672,-54.7414 60.8663,-56.3812 61.0654,-58.021 61.1652,-59.6714 61.1652,-61.3232 61.1652,-61.3232 20.1652,-61.3232 20.1652,-61.3232"/>
<ellipse fill="none" stroke="black" cx="20.1652" cy="-61.3232" rx="41" ry="41"/>
</g>
<!-- 1 -->
<g id="node2" class="node"><title>1</title>
<ellipse fill="palegreen" stroke="black" cx="15.396" cy="-177.405" rx="13" ry="13"/>
</g>
<!-- 0&#45;&gt;1 -->
<g id="edge1" class="edge"><title>0&#45;&gt;1</title>
<path fill="none" stroke="black" d="M18.4703,-102.576C17.5815,-124.211 16.5527,-149.251 15.9392,-164.184"/>
</g>
<!-- 2 -->
<g id="node3" class="node"><title>2</title>
<ellipse fill="palegreen" stroke="black" cx="75.0885" cy="-128.008" rx="3.5" ry="3.5"/>
</g>
<!-- 0&#45;&gt;2 -->
<g id="edge2" class="edge"><title>0&#45;&gt;2</title>
<path fill="none" stroke="black" d="M46.34,-93.1031C56.9496,-105.985 67.8159,-119.178 72.5859,-124.969"/>
</g>
<!-- 3 -->
<g id="node4" class="node"><title>3</title>
<ellipse fill="palegreen" stroke="black" cx="116.544" cy="-90.891" rx="3.5" ry="3.5"/>
</g>
<!-- 0&#45;&gt;3 -->
<g id="edge3" class="edge"><title>0&#45;&gt;3</title>
<path fill="none" stroke="black" d="M59.366,-73.3496C77.4728,-78.9045 97.3348,-84.998 108.232,-88.3411"/>
<polygon fill="black" stroke="black" points="107.763,-90.0277 113.057,-89.8212 108.79,-86.6816 107.763,-90.0277"/>
<text text-anchor="middle" x="99.799" y="-74.4453" font-family="monospace" font-size="8.00">F1529L</text>
</g>
<!-- 4 -->
<g id="node5" class="node"><title>4</title>
<ellipse fill="palegreen" stroke="black" cx="-70.4791" cy="-21.7701" rx="3.5" ry="3.5"/>
</g>
<!-- 0&#45;&gt;4 -->
<g id="edge4" class="edge"><title>0&#45;&gt;4</title>
<path fill="none" stroke="black" d="M-17.4887,-44.8927C-37.3344,-36.233 -59.2004,-26.6916 -67.2647,-23.1727"/>
</g>
<!-- 6 -->
<g id="node7" class="node"><title>6</title>
<ellipse fill="#787878" stroke="black" cx="62.1649" cy="46.957" rx="11.5" ry="11.5"/>
</g>
<!-- 0&#45;&gt;6 -->
<g id="edge5" class="edge"><title>0&#45;&gt;6</title>
<path fill="none" stroke="black" d="M35.091,-22.8428C43.2018,-1.93215 52.6353,22.3885 57.9528,36.0976"/>
</g>
<!-- 7 -->
<g id="node8" class="node"><title>7</title>
<ellipse fill="#787878" stroke="black" cx="-41.4854" cy="-121.632" rx="3.5" ry="3.5"/>
</g>
<!-- 0&#45;&gt;7 -->
<g id="edge6" class="edge"><title>0&#45;&gt;7</title>
<path fill="none" stroke="black" d="M-9.2156,-90.0645C-21.1247,-101.714 -33.3219,-113.646 -38.6762,-118.884"/>
</g>
<!-- 9 -->
<g id="node10" class="node"><title>9</title>
<ellipse fill="#787878" stroke="black" cx="102.733" cy="-37.7027" rx="3.5" ry="3.5"/>
</g>
<!-- 0&#45;&gt;9 -->
<g id="edge7" class="edge"><title>0&#45;&gt;9</title>
<path fill="none" stroke="black" d="M59.9978,-49.9281C75.8333,-45.3979 91.9539,-40.7862 99.0244,-38.7635"/>
</g>
<!-- 10 -->
<g id="node11" class="node"><title>10</title>
<ellipse fill="#787878" stroke="black" cx="-26.1181" cy="10.3631" rx="3.5" ry="3.5"/>
</g>
<!-- 0&#45;&gt;10 -->
<g id="edge8" class="edge"><title>0&#45;&gt;10</title>
<path fill="none" stroke="black" d="M-2.16301,-26.7399C-11.0397,-12.9913 -20.0761,1.00487 -24.0395,7.14365"/>
</g>
<!-- 11 -->
<g id="node12" class="node"><title>11</title>
<ellipse fill="#787878" stroke="black" cx="-76.4295" cy="-78.3008" rx="3.5" ry="3.5"/>
</g>
<!-- 0&#45;&gt;11 -->
<g id="edge9" class="edge"><title>0&#45;&gt;11</title>
<path fill="none" stroke="black" d="M-20.24,-68.4249C-41.126,-72.0958 -64.036,-76.1225 -72.7718,-77.6579"/>
</g>
<!-- 5 -->
<g id="node6" class="node"><title>5</title>
<ellipse fill="palegreen" stroke="black" cx="13.9221" cy="-233.181" rx="3.5" ry="3.5"/>
</g>
<!-- 1&#45;&gt;5 -->
<g id="edge10" class="edge"><title>1&#45;&gt;5</title>
<path fill="none" stroke="black" d="M15.0467,-190.623C14.713,-203.251 14.2311,-221.489 14.0235,-229.344"/>
</g>
<!-- 8 -->
<g id="node9" class="node"><title>8</title>
<ellipse fill="#787878" stroke="black" cx="113.708" cy="70.9735" rx="3.5" ry="3.5"/>
</g>
<!-- 6&#45;&gt;8 -->
<g id="edge11" class="edge"><title>6&#45;&gt;8</title>
<path fill="none" stroke="black" d="M72.5954,51.8171C84.3618,57.2996 102.836,65.9078 110.356,69.4116"/>
</g>
<!-- 12 -->
<g id="node13" class="node"><title>12</title>
<ellipse fill="#787878" stroke="black" cx="39.5812" cy="99.0198" rx="3.5" ry="3.5"/>
</g>
<!-- 6&#45;&gt;12 -->
<g id="edge12" class="edge"><title>6&#45;&gt;12</title>
<path fill="none" stroke="black" d="M57.4856,57.7444C52.3177,69.6581 44.2967,88.1491 41.0348,95.6689"/>
</g>
</g>
</svg>
