<?xml version="1.0" encoding="UTF-8" standalone="no"?>
<!DOCTYPE svg PUBLIC "-//W3C//DTD SVG 1.1//EN"
 "http://www.w3.org/Graphics/SVG/1.1/DTD/svg11.dtd">
<!-- Generated by graphviz version 2.38.0 (20140413.2041)
 -->
<!-- Title: %3 Pages: 1 -->
<svg width="210pt" height="191pt"
 viewBox="0.00 0.00 209.72 191.27" xmlns="http://www.w3.org/2000/svg" xmlns:xlink="http://www.w3.org/1999/xlink">
<g id="graph0" class="graph" transform="scale(1 1) rotate(0) translate(68.8645 89.3148)">
<title>%3</title>
<polygon fill="white" stroke="none" points="-68.8645,101.95 -68.8645,-89.3148 140.853,-89.3148 140.853,101.95 -68.8645,101.95"/>
<!-- 0 -->
<g id="node1" class="node"><title>0</title>
<ellipse fill="#1874cd" stroke="black" cx="-1.99134" cy="-29.3419" rx="21.5" ry="21.5"/>
</g>
<!-- 4 -->
<g id="node5" class="node"><title>4</title>
<ellipse fill="#1874cd" stroke="black" cx="-33.445" cy="-81.8148" rx="3.5" ry="3.5"/>
</g>
<!-- 0&#45;&#45;4 -->
<g id="edge4" class="edge"><title>0&#45;&#45;4</title>
<path fill="none" stroke="black" d="M-13.1693,-47.9896C-19.9498,-59.3013 -27.9646,-72.6721 -31.5482,-78.6505"/>
</g>
<!-- 5 -->
<g id="node6" class="node"><title>5</title>
<ellipse fill="#1874cd" stroke="black" cx="-61.3645" cy="-14.5062" rx="3.5" ry="3.5"/>
</g>
<!-- 0&#45;&#45;5 -->
<g id="edge5" class="edge"><title>0&#45;&#45;5</title>
<path fill="none" stroke="black" d="M-23.0913,-24.0696C-35.8905,-20.8715 -51.0196,-17.0911 -57.7842,-15.4009"/>
</g>
<!-- anon_0_1_0 -->
<g id="node7" class="node"><title>anon_0_1_0</title>
<ellipse fill="white" stroke="black" cx="25.469" cy="24.3039" rx="2.5" ry="2.5"/>
</g>
<!-- 0&#45;&#45;anon_0_1_0 -->
<g id="edge1" class="edge"><title>0&#45;&#45;anon_0_1_0</title>
<path fill="none" stroke="black" d="M7.92249,-9.97454C14.0676,2.0303 21.3205,16.1995 24.1996,21.824"/>
</g>
<!-- anon_0_2_0 -->
<g id="node10" class="node"><title>anon_0_2_0</title>
<ellipse fill="white" stroke="black" cx="47.9264" cy="-63.0171" rx="2.5" ry="2.5"/>
</g>
<!-- 0&#45;&#45;anon_0_2_0 -->
<g id="edge9" class="edge"><title>0&#45;&#45;anon_0_2_0</title>
<path fill="none" stroke="black" stroke-dasharray="5,2" d="M16.0301,-41.4994C27.2007,-49.0353 40.3852,-57.9297 45.6189,-61.4604"/>
</g>
<!-- 1 -->
<g id="node2" class="node"><title>1</title>
<ellipse fill="#1874cd" stroke="black" cx="107.717" cy="51.5289" rx="9" ry="9"/>
</g>
<!-- 3 -->
<g id="node4" class="node"><title>3</title>
<ellipse fill="#1874cd" stroke="black" cx="130.411" cy="94.4504" rx="3.5" ry="3.5"/>
</g>
<!-- 1&#45;&#45;3 -->
<g id="edge8" class="edge"><title>1&#45;&#45;3</title>
<path fill="none" stroke="black" d="M112.093,59.8046C117.142,69.3539 125.197,84.5895 128.696,91.2067"/>
</g>
<!-- anon_1_2_0 -->
<g id="node9" class="node"><title>anon_1_2_0</title>
<ellipse fill="white" stroke="black" cx="133.224" cy="11.3313" rx="2.5" ry="2.5"/>
</g>
<!-- 1&#45;&#45;anon_1_2_0 -->
<g id="edge6" class="edge"><title>1&#45;&#45;anon_1_2_0</title>
<path fill="none" stroke="black" d="M112.635,43.7784C118.542,34.4702 128.109,19.3927 131.752,13.6515"/>
</g>
<!-- 2 -->
<g id="node3" class="node"><title>2</title>
<ellipse fill="#1874cd" stroke="black" cx="127.853" cy="-35.8776" rx="9" ry="9"/>
</g>
<!-- anon_0_1_1 -->
<g id="node8" class="node"><title>anon_0_1_1</title>
<ellipse fill="white" stroke="black" cx="60.3879" cy="46.2306" rx="2.5" ry="2.5"/>
</g>
<!-- anon_0_1_0&#45;&#45;anon_0_1_1 -->
<g id="edge2" class="edge"><title>anon_0_1_0&#45;&#45;anon_0_1_1</title>
<path fill="none" stroke="black" d="M27.7602,25.7426C34.0721,29.706 51.6665,40.7542 58.0426,44.7579"/>
</g>
<!-- anon_0_1_1&#45;&#45;1 -->
<g id="edge3" class="edge"><title>anon_0_1_1&#45;&#45;1</title>
<path fill="none" stroke="black" d="M62.9326,46.5155C69.5376,47.2549 87.4837,49.2639 98.5497,50.5027"/>
</g>
<!-- anon_1_2_0&#45;&#45;2 -->
<g id="edge7" class="edge"><title>anon_1_2_0&#45;&#45;2</title>
<path fill="none" stroke="black" d="M132.935,8.79315C132.186,2.2049 130.149,-15.6955 128.893,-26.7332"/>
</g>
<!-- anon_0_2_1 -->
<g id="node11" class="node"><title>anon_0_2_1</title>
<ellipse fill="white" stroke="black" cx="89.1301" cy="-63.4125" rx="2.5" ry="2.5"/>
</g>
<!-- anon_0_2_0&#45;&#45;anon_0_2_1 -->
<g id="edge10" class="edge"><title>anon_0_2_0&#45;&#45;anon_0_2_1</title>
<path fill="none" stroke="black" stroke-dasharray="5,2" d="M50.6299,-63.0431C58.0779,-63.1145 78.8391,-63.3137 86.3627,-63.3859"/>
</g>
<!-- anon_0_2_1&#45;&#45;2 -->
<g id="edge11" class="edge"><title>anon_0_2_1&#45;&#45;2</title>
<path fill="none" stroke="black" stroke-dasharray="5,2" d="M91.212,-61.9321C96.616,-58.0894 111.299,-47.6489 120.352,-41.2111"/>
</g>
</g>
</svg>
