<?xml version="1.0" encoding="UTF-8" standalone="no"?>
<!DOCTYPE svg PUBLIC "-//W3C//DTD SVG 1.1//EN"
 "http://www.w3.org/Graphics/SVG/1.1/DTD/svg11.dtd">
<!-- Generated by graphviz version 2.38.0 (20140413.2041)
 -->
<!-- Title: %3 Pages: 1 -->
<svg width="908pt" height="911pt"
 viewBox="0.00 0.00 907.93 910.54" xmlns="http://www.w3.org/2000/svg" xmlns:xlink="http://www.w3.org/1999/xlink">
<g id="graph0" class="graph" transform="scale(1 1) rotate(0) translate(354.109 591.456)">
<title>%3</title>
<polygon fill="white" stroke="none" points="-354.109,319.079 -354.109,-591.456 553.823,-591.456 553.823,319.079 -354.109,319.079"/>
<!-- 0 -->
<g id="node1" class="node"><title>0</title>
<ellipse fill="palegreen" stroke="black" cx="30.548" cy="-284.542" rx="33" ry="33"/>
</g>
<!-- 1 -->
<g id="node2" class="node"><title>1</title>
<ellipse fill="palegreen" stroke="black" cx="105.929" cy="-260.923" rx="3.5" ry="3.5"/>
</g>
<!-- 0&#45;&#45;1 -->
<g id="edge1" class="edge"><title>0&#45;&#45;1</title>
<path fill="none" stroke="black" d="M62.0794,-274.663C77.8944,-269.707 95.1963,-264.286 102.438,-262.017"/>
</g>
<!-- anon_0_15_0 -->
<g id="node63" class="node"><title>anon_0_15_0</title>
<ellipse fill="white" stroke="black" cx="46.796" cy="-379.665" rx="2.5" ry="2.5"/>
</g>
<!-- 0&#45;&#45;anon_0_15_0 -->
<g id="edge2" class="edge"><title>0&#45;&#45;anon_0_15_0</title>
<path fill="none" stroke="black" d="M36.1396,-317.278C40.0318,-340.064 44.7856,-367.895 46.3048,-376.789"/>
</g>
<!-- 2 -->
<g id="node3" class="node"><title>2</title>
<path fill="palegreen" stroke="black" stroke-width="0.5" d="M378.31,-355.974C378.31,-355.974 419.31,-355.974 419.31,-355.974 419.31,-357.626 419.21,-359.276 419.011,-360.916 418.812,-362.556 418.514,-364.182 418.119,-365.786 417.724,-367.39 417.232,-368.968 416.646,-370.513 416.06,-372.057 415.382,-373.565 414.614,-375.028 413.846,-376.49 412.991,-377.905 412.053,-379.265 411.114,-380.624 410.095,-381.926 408.999,-383.162 407.904,-384.398 406.735,-385.568 405.498,-386.663 404.262,-387.758 402.96,-388.778 401.601,-389.716 400.241,-390.655 398.827,-391.51 397.364,-392.278 395.901,-393.045 394.394,-393.724 392.849,-394.31 391.305,-394.895 389.726,-395.387 388.122,-395.783 386.518,-396.178 384.892,-396.476 383.252,-396.675 381.612,-396.874 379.962,-396.974 378.31,-396.974 376.658,-396.974 375.008,-396.874 373.368,-396.675 371.728,-396.476 370.102,-396.178 368.498,-395.783 366.894,-395.387 365.316,-394.895 363.771,-394.31 362.227,-393.724 360.719,-393.045 359.257,-392.278 357.794,-391.51 356.379,-390.655 355.02,-389.716 353.66,-388.778 352.359,-387.758 351.122,-386.663 349.886,-385.568 348.717,-384.398 347.621,-383.162 346.526,-381.926 345.506,-380.624 344.568,-379.265 343.63,-377.905 342.774,-376.49 342.007,-375.028 341.239,-373.565 340.56,-372.057 339.975,-370.513 339.389,-368.968 338.897,-367.39 338.502,-365.786 338.106,-364.182 337.808,-362.556 337.609,-360.916 337.41,-359.276 337.31,-357.626 337.31,-355.974 337.31,-354.322 337.41,-352.672 337.609,-351.032 337.808,-349.392 338.106,-347.766 338.502,-346.162 338.897,-344.558 339.389,-342.98 339.975,-341.435 340.56,-339.891 341.239,-338.383 342.007,-336.92 342.774,-335.458 343.63,-334.043 344.568,-332.683 345.506,-331.324 346.526,-330.022 347.621,-328.786 347.621,-328.786 378.31,-355.974 378.31,-355.974"/>
<path fill="#787878" stroke="black" stroke-width="0.5" d="M378.31,-355.974C378.31,-355.974 347.621,-328.786 347.621,-328.786 348.306,-328.013 349.019,-327.267 349.76,-326.548 350.501,-325.829 351.269,-325.139 352.062,-324.478 352.855,-323.817 353.672,-323.186 354.513,-322.587 355.353,-321.988 356.216,-321.421 357.099,-320.887 357.983,-320.353 358.886,-319.853 359.807,-319.387 360.728,-318.921 361.667,-318.49 362.62,-318.095 363.574,-317.7 364.542,-317.341 365.523,-317.019 366.504,-316.697 367.496,-316.412 368.498,-316.165 369.501,-315.918 370.512,-315.709 371.53,-315.539 372.548,-315.368 373.572,-315.236 374.6,-315.142 375.628,-315.049 376.659,-314.994 377.691,-314.979 378.723,-314.963 379.755,-314.986 380.786,-315.049 381.816,-315.111 382.844,-315.212 383.866,-315.352 384.889,-315.492 385.906,-315.671 386.915,-315.887 387.925,-316.104 388.925,-316.359 389.915,-316.651 390.905,-316.943 391.884,-317.272 392.849,-317.638 393.814,-318.004 394.765,-318.407 395.7,-318.845 396.635,-319.282 397.553,-319.755 398.452,-320.262 399.351,-320.769 400.23,-321.31 401.089,-321.884 401.947,-322.457 402.783,-323.063 403.596,-323.699 404.408,-324.336 405.197,-325.003 405.959,-325.699 406.721,-326.395 407.457,-327.12 408.164,-327.871 408.872,-328.623 409.55,-329.401 410.199,-330.204 410.848,-331.007 411.466,-331.834 412.053,-332.683 412.639,-333.533 413.193,-334.404 413.714,-335.296 414.234,-336.187 414.721,-337.097 415.173,-338.026 415.625,-338.954 416.041,-339.898 416.422,-340.858 416.803,-341.817 417.147,-342.791 417.454,-343.776 417.761,-344.762 418.031,-345.759 418.263,-346.764 418.494,-347.77 418.688,-348.785 418.844,-349.805 418.999,-350.825 419.116,-351.851 419.193,-352.881 419.271,-353.91 419.31,-354.942 419.31,-355.974 419.31,-355.974 378.31,-355.974 378.31,-355.974"/>
<ellipse fill="none" stroke="black" cx="378.31" cy="-355.974" rx="41" ry="41"/>
</g>
<!-- 4 -->
<g id="node5" class="node"><title>4</title>
<ellipse fill="palegreen" stroke="black" cx="266.685" cy="-410.405" rx="13" ry="13"/>
</g>
<!-- 2&#45;&#45;4 -->
<g id="edge6" class="edge"><title>2&#45;&#45;4</title>
<path fill="none" stroke="black" d="M341.451,-373.948C319.605,-384.6 293.364,-397.395 278.495,-404.646"/>
</g>
<!-- 13 -->
<g id="node14" class="node"><title>13</title>
<ellipse fill="palegreen" stroke="black" cx="355.531" cy="-272.434" rx="3.5" ry="3.5"/>
</g>
<!-- 2&#45;&#45;13 -->
<g id="edge7" class="edge"><title>2&#45;&#45;13</title>
<path fill="none" stroke="black" d="M367.454,-316.162C363.054,-300.024 358.547,-283.496 356.569,-276.241"/>
</g>
<!-- 17 -->
<g id="node18" class="node"><title>17</title>
<ellipse fill="palegreen" stroke="black" cx="428.163" cy="-414.413" rx="3.5" ry="3.5"/>
</g>
<!-- 2&#45;&#45;17 -->
<g id="edge8" class="edge"><title>2&#45;&#45;17</title>
<path fill="none" stroke="black" d="M404.988,-387.246C413.508,-397.233 421.753,-406.898 425.717,-411.544"/>
</g>
<!-- 19 -->
<g id="node20" class="node"><title>19</title>
<ellipse fill="palegreen" stroke="black" cx="354.356" cy="-433.135" rx="3.5" ry="3.5"/>
</g>
<!-- 2&#45;&#45;19 -->
<g id="edge9" class="edge"><title>2&#45;&#45;19</title>
<path fill="none" stroke="black" d="M366.052,-395.459C361.724,-409.4 357.445,-423.184 355.477,-429.523"/>
</g>
<!-- 23 -->
<g id="node24" class="node"><title>23</title>
<ellipse fill="#787878" stroke="black" cx="497.498" cy="-383.838" rx="11.5" ry="11.5"/>
</g>
<!-- 2&#45;&#45;23 -->
<g id="edge10" class="edge"><title>2&#45;&#45;23</title>
<path fill="none" stroke="black" d="M418.33,-365.33C442.135,-370.895 470.627,-377.556 486.111,-381.175"/>
</g>
<!-- 24 -->
<g id="node25" class="node"><title>24</title>
<ellipse fill="#787878" stroke="black" cx="307.998" cy="-281.184" rx="3.5" ry="3.5"/>
</g>
<!-- 2&#45;&#45;24 -->
<g id="edge11" class="edge"><title>2&#45;&#45;24</title>
<path fill="none" stroke="black" d="M350.117,-325.985C334.529,-309.404 317.039,-290.8 310.576,-283.926"/>
</g>
<!-- 27 -->
<g id="node28" class="node"><title>27</title>
<ellipse fill="#787878" stroke="black" cx="305.588" cy="-333.121" rx="3.5" ry="3.5"/>
</g>
<!-- 2&#45;&#45;27 -->
<g id="edge12" class="edge"><title>2&#45;&#45;27</title>
<path fill="none" stroke="black" d="M338.969,-343.611C326.654,-339.741 314.797,-336.015 309.102,-334.225"/>
</g>
<!-- 28 -->
<g id="node29" class="node"><title>28</title>
<ellipse fill="#787878" stroke="black" cx="445.426" cy="-317.068" rx="3.5" ry="3.5"/>
</g>
<!-- 2&#45;&#45;28 -->
<g id="edge13" class="edge"><title>2&#45;&#45;28</title>
<path fill="none" stroke="black" d="M413.834,-335.382C425.405,-328.674 436.663,-322.148 442.081,-319.008"/>
</g>
<!-- 29 -->
<g id="node30" class="node"><title>29</title>
<ellipse fill="#787878" stroke="black" cx="399.882" cy="-456.873" rx="3.5" ry="3.5"/>
</g>
<!-- 2&#45;&#45;29 -->
<g id="edge14" class="edge"><title>2&#45;&#45;29</title>
<path fill="none" stroke="black" d="M386.898,-396.142C391.739,-418.784 397.197,-444.311 399.144,-453.419"/>
</g>
<!-- 3 -->
<g id="node4" class="node"><title>3</title>
<ellipse fill="palegreen" stroke="black" cx="-12.6579" cy="-227.335" rx="3.5" ry="3.5"/>
</g>
<!-- 3&#45;&#45;0 -->
<g id="edge15" class="edge"><title>3&#45;&#45;0</title>
<path fill="none" stroke="black" d="M-10.335,-230.411C-6.33862,-235.702 2.20571,-247.016 10.455,-257.938"/>
</g>
<!-- 21 -->
<g id="node22" class="node"><title>21</title>
<ellipse fill="palegreen" stroke="black" cx="213.442" cy="-381.776" rx="3.5" ry="3.5"/>
</g>
<!-- 4&#45;&#45;21 -->
<g id="edge16" class="edge"><title>4&#45;&#45;21</title>
<path fill="none" stroke="black" d="M255.132,-404.193C242.898,-397.615 224.334,-387.633 216.798,-383.581"/>
</g>
<!-- 5 -->
<g id="node6" class="node"><title>5</title>
<ellipse fill="palegreen" stroke="black" cx="-36.0241" cy="-342.663" rx="3.5" ry="3.5"/>
</g>
<!-- 5&#45;&#45;0 -->
<g id="edge17" class="edge"><title>5&#45;&#45;0</title>
<path fill="none" stroke="black" d="M-33.1636,-340.166C-26.4938,-334.343 -9.35027,-319.376 5.47481,-306.433"/>
</g>
<!-- 6 -->
<g id="node7" class="node"><title>6</title>
<ellipse fill="palegreen" stroke="black" cx="175.536" cy="-301.697" rx="3.5" ry="3.5"/>
</g>
<!-- anon_6_0_0 -->
<g id="node66" class="node"><title>anon_6_0_0</title>
<ellipse fill="white" stroke="black" cx="128.682" cy="-300.702" rx="2.5" ry="2.5"/>
</g>
<!-- 6&#45;&#45;anon_6_0_0 -->
<g id="edge18" class="edge"><title>6&#45;&#45;anon_6_0_0</title>
<path fill="none" stroke="black" d="M171.86,-301.619C162.713,-301.424 139.104,-300.923 131.259,-300.756"/>
</g>
<!-- 7 -->
<g id="node8" class="node"><title>7</title>
<ellipse fill="palegreen" stroke="black" cx="-65.189" cy="-312.804" rx="5" ry="5"/>
</g>
<!-- 7&#45;&#45;0 -->
<g id="edge20" class="edge"><title>7&#45;&#45;0</title>
<path fill="none" stroke="black" d="M-60.3098,-311.364C-49.5644,-308.192 -23.0931,-300.378 -1.47872,-293.997"/>
</g>
<!-- 8 -->
<g id="node9" class="node"><title>8</title>
<ellipse fill="palegreen" stroke="black" cx="20.5759" cy="-122.942" rx="5" ry="5"/>
</g>
<!-- 9 -->
<g id="node10" class="node"><title>9</title>
<ellipse fill="palegreen" stroke="black" cx="23.3092" cy="-176.984" rx="9" ry="9"/>
</g>
<!-- 9&#45;&#45;0 -->
<g id="edge21" class="edge"><title>9&#45;&#45;0</title>
<path fill="none" stroke="black" d="M23.9264,-186.155C24.8905,-200.481 26.8013,-228.873 28.3235,-251.49"/>
</g>
<!-- 9&#45;&#45;8 -->
<g id="edge22" class="edge"><title>9&#45;&#45;8</title>
<path fill="none" stroke="black" d="M22.8331,-167.571C22.2519,-156.079 21.2901,-137.062 20.8327,-128.02"/>
</g>
<!-- 10 -->
<g id="node11" class="node"><title>10</title>
<ellipse fill="palegreen" stroke="black" cx="-51.6067" cy="-239.483" rx="3.5" ry="3.5"/>
</g>
<!-- 10&#45;&#45;0 -->
<g id="edge23" class="edge"><title>10&#45;&#45;0</title>
<path fill="none" stroke="black" d="M-48.4865,-241.194C-40.3384,-245.663 -17.7381,-258.059 1.21809,-268.456"/>
</g>
<!-- 11 -->
<g id="node12" class="node"><title>11</title>
<ellipse fill="palegreen" stroke="black" cx="97.8259" cy="-222.221" rx="3.5" ry="3.5"/>
</g>
<!-- 11&#45;&#45;0 -->
<g id="edge24" class="edge"><title>11&#45;&#45;0</title>
<path fill="none" stroke="black" d="M94.9351,-224.899C88.0436,-231.282 70.0882,-247.915 54.8844,-261.999"/>
</g>
<!-- 12 -->
<g id="node13" class="node"><title>12</title>
<ellipse fill="palegreen" stroke="black" cx="21.0453" cy="-75.2527" rx="5" ry="5"/>
</g>
<!-- 12&#45;&#45;8 -->
<g id="edge25" class="edge"><title>12&#45;&#45;8</title>
<path fill="none" stroke="black" d="M20.9951,-80.3563C20.9052,-89.4871 20.7178,-108.523 20.6272,-117.731"/>
</g>
<!-- 14 -->
<g id="node15" class="node"><title>14</title>
<ellipse fill="palegreen" stroke="black" cx="-52.6708" cy="-277.312" rx="3.5" ry="3.5"/>
</g>
<!-- 14&#45;&#45;0 -->
<g id="edge26" class="edge"><title>14&#45;&#45;0</title>
<path fill="none" stroke="black" d="M-49.095,-277.623C-41.0062,-278.325 -20.5948,-280.099 -2.4618,-281.674"/>
</g>
<!-- 15 -->
<g id="node16" class="node"><title>15</title>
<ellipse fill="palegreen" stroke="black" cx="63.1798" cy="-509.381" rx="3.5" ry="3.5"/>
</g>
<!-- 16 -->
<g id="node17" class="node"><title>16</title>
<ellipse fill="palegreen" stroke="black" cx="214.407" cy="-497.192" rx="3.5" ry="3.5"/>
</g>
<!-- anon_16_4_0 -->
<g id="node67" class="node"><title>anon_16_4_0</title>
<ellipse fill="white" stroke="black" cx="241.861" cy="-462.694" rx="2.5" ry="2.5"/>
</g>
<!-- 16&#45;&#45;anon_16_4_0 -->
<g id="edge27" class="edge"><title>16&#45;&#45;anon_16_4_0</title>
<path fill="none" stroke="black" d="M216.94,-494.008C222.462,-487.069 235.463,-470.734 240.144,-464.852"/>
</g>
<!-- 18 -->
<g id="node19" class="node"><title>18</title>
<ellipse fill="palegreen" stroke="black" cx="84.2817" cy="-328.028" rx="3.5" ry="3.5"/>
</g>
<!-- 18&#45;&#45;0 -->
<g id="edge29" class="edge"><title>18&#45;&#45;0</title>
<path fill="none" stroke="black" d="M81.3928,-325.69C76.5534,-321.773 66.3517,-313.517 56.3476,-305.421"/>
</g>
<!-- 20 -->
<g id="node21" class="node"><title>20</title>
<ellipse fill="palegreen" stroke="black" cx="4.26907" cy="-341.709" rx="3.5" ry="3.5"/>
</g>
<!-- 20&#45;&#45;0 -->
<g id="edge30" class="edge"><title>20&#45;&#45;0</title>
<path fill="none" stroke="black" d="M5.83424,-338.304C8.04414,-333.497 12.2986,-324.242 16.6631,-314.748"/>
</g>
<!-- 22 -->
<g id="node23" class="node"><title>22</title>
<ellipse fill="palegreen" stroke="black" cx="53.3434" cy="-224.607" rx="3.5" ry="3.5"/>
</g>
<!-- 22&#45;&#45;0 -->
<g id="edge31" class="edge"><title>22&#45;&#45;0</title>
<path fill="none" stroke="black" d="M51.9857,-228.177C50.0304,-233.318 46.2299,-243.31 42.3651,-253.472"/>
</g>
<!-- 25 -->
<g id="node26" class="node"><title>25</title>
<ellipse fill="#787878" stroke="black" cx="423.114" cy="-213.173" rx="3.5" ry="3.5"/>
</g>
<!-- anon_25_2_0 -->
<g id="node68" class="node"><title>anon_25_2_0</title>
<ellipse fill="white" stroke="black" cx="413.728" cy="-257.85" rx="2.5" ry="2.5"/>
</g>
<!-- 25&#45;&#45;anon_25_2_0 -->
<g id="edge32" class="edge"><title>25&#45;&#45;anon_25_2_0</title>
<path fill="none" stroke="black" d="M422.377,-216.679C420.545,-225.401 415.815,-247.912 414.244,-255.393"/>
</g>
<!-- 26 -->
<g id="node27" class="node"><title>26</title>
<ellipse fill="#787878" stroke="black" cx="546.323" cy="-354.567" rx="3.5" ry="3.5"/>
</g>
<!-- 26&#45;&#45;23 -->
<g id="edge34" class="edge"><title>26&#45;&#45;23</title>
<path fill="none" stroke="black" d="M543.12,-356.488C535.991,-360.761 518.572,-371.204 507.438,-377.879"/>
</g>
<!-- 30 -->
<g id="node31" class="node"><title>30</title>
<ellipse fill="#787878" stroke="black" cx="531.686" cy="-430.302" rx="3.5" ry="3.5"/>
</g>
<!-- 30&#45;&#45;23 -->
<g id="edge35" class="edge"><title>30&#45;&#45;23</title>
<path fill="none" stroke="black" d="M529.443,-427.254C524.452,-420.47 512.254,-403.892 504.458,-393.297"/>
</g>
<!-- 31 -->
<g id="node32" class="node"><title>31</title>
<ellipse fill="#1874cd" stroke="black" cx="-236.976" cy="132.334" rx="18.5" ry="18.5"/>
</g>
<!-- anon_31_37_0 -->
<g id="node69" class="node"><title>anon_31_37_0</title>
<ellipse fill="white" stroke="black" cx="-177.012" cy="109.768" rx="2.5" ry="2.5"/>
</g>
<!-- 31&#45;&#45;anon_31_37_0 -->
<g id="edge36" class="edge"><title>31&#45;&#45;anon_31_37_0</title>
<path fill="none" stroke="black" d="M-219.632,125.807C-205.243,120.392 -186.1,113.188 -179.428,110.677"/>
</g>
<!-- 32 -->
<g id="node33" class="node"><title>32</title>
<ellipse fill="#1874cd" stroke="black" cx="-315.863" cy="311.579" rx="3.5" ry="3.5"/>
</g>
<!-- 33 -->
<g id="node34" class="node"><title>33</title>
<ellipse fill="#1874cd" stroke="black" cx="-341.109" cy="61.0031" rx="9" ry="9"/>
</g>
<!-- 34 -->
<g id="node35" class="node"><title>34</title>
<ellipse fill="#1874cd" stroke="black" cx="207.481" cy="-84.5134" rx="10" ry="10"/>
</g>
<!-- anon_34_50_0 -->
<g id="node76" class="node"><title>anon_34_50_0</title>
<ellipse fill="white" stroke="black" cx="264.921" cy="-85.5378" rx="2.5" ry="2.5"/>
</g>
<!-- 34&#45;&#45;anon_34_50_0 -->
<g id="edge44" class="edge"><title>34&#45;&#45;anon_34_50_0</title>
<path fill="none" stroke="black" d="M217.486,-84.6919C231.115,-84.9349 254.702,-85.3555 262.407,-85.4929"/>
</g>
<!-- 35 -->
<g id="node36" class="node"><title>35</title>
<ellipse fill="#1874cd" stroke="black" cx="-29" cy="-41" rx="6" ry="6"/>
</g>
<!-- 36 -->
<g id="node37" class="node"><title>36</title>
<ellipse fill="#1874cd" stroke="black" cx="201.732" cy="-185.7" rx="3.5" ry="3.5"/>
</g>
<!-- anon_36_34_0 -->
<g id="node77" class="node"><title>anon_36_34_0</title>
<ellipse fill="white" stroke="black" cx="198.039" cy="-140.152" rx="2.5" ry="2.5"/>
</g>
<!-- 36&#45;&#45;anon_36_34_0 -->
<g id="edge46" class="edge"><title>36&#45;&#45;anon_36_34_0</title>
<path fill="none" stroke="black" d="M201.442,-182.126C200.721,-173.234 198.861,-150.284 198.243,-142.658"/>
</g>
<!-- anon_36_48_0 -->
<g id="node78" class="node"><title>anon_36_48_0</title>
<ellipse fill="white" stroke="black" cx="211.002" cy="-229.176" rx="2.5" ry="2.5"/>
</g>
<!-- 36&#45;&#45;anon_36_48_0 -->
<g id="edge48" class="edge"><title>36&#45;&#45;anon_36_48_0</title>
<path fill="none" stroke="black" d="M202.522,-189.406C204.344,-197.949 208.803,-218.864 210.412,-226.407"/>
</g>
<!-- 37 -->
<g id="node38" class="node"><title>37</title>
<ellipse fill="#1874cd" stroke="black" cx="128.52" cy="16.3619" rx="12" ry="12"/>
</g>
<!-- 42 -->
<g id="node43" class="node"><title>42</title>
<ellipse fill="#1874cd" stroke="black" cx="121.524" cy="68.931" rx="7" ry="7"/>
</g>
<!-- 37&#45;&#45;42 -->
<g id="edge51" class="edge"><title>37&#45;&#45;42</title>
<path fill="none" stroke="black" d="M126.933,28.2906C125.562,38.5903 123.627,53.1323 122.481,61.7403"/>
</g>
<!-- 43 -->
<g id="node44" class="node"><title>43</title>
<ellipse fill="#1874cd" stroke="black" cx="162.194" cy="75.1062" rx="5" ry="5"/>
</g>
<!-- 37&#45;&#45;43 -->
<g id="edge52" class="edge"><title>37&#45;&#45;43</title>
<path fill="none" stroke="black" d="M134.541,26.8642C141.956,39.8009 154.227,61.2069 159.571,70.5303"/>
</g>
<!-- 46 -->
<g id="node47" class="node"><title>46</title>
<ellipse fill="#1874cd" stroke="black" cx="182.098" cy="-25.3078" rx="6" ry="6"/>
</g>
<!-- 37&#45;&#45;46 -->
<g id="edge53" class="edge"><title>37&#45;&#45;46</title>
<path fill="none" stroke="black" d="M138.347,8.71901C149.827,-0.209264 168.366,-14.628 177.163,-21.4693"/>
</g>
<!-- 47 -->
<g id="node48" class="node"><title>47</title>
<ellipse fill="#1874cd" stroke="black" cx="103.338" cy="-30.3905" rx="3.5" ry="3.5"/>
</g>
<!-- 37&#45;&#45;47 -->
<g id="edge54" class="edge"><title>37&#45;&#45;47</title>
<path fill="none" stroke="black" d="M122.68,5.51843C116.984,-5.0557 108.672,-20.4873 105.089,-27.14"/>
</g>
<!-- 38 -->
<g id="node39" class="node"><title>38</title>
<ellipse fill="#1874cd" stroke="black" cx="226.667" cy="4.51578" rx="3.5" ry="3.5"/>
</g>
<!-- 41 -->
<g id="node42" class="node"><title>41</title>
<ellipse fill="#1874cd" stroke="black" cx="267.76" cy="31.12" rx="3.5" ry="3.5"/>
</g>
<!-- 38&#45;&#45;41 -->
<g id="edge55" class="edge"><title>38&#45;&#45;41</title>
<path fill="none" stroke="black" d="M229.622,6.42909C237.13,11.2901 256.89,24.0829 264.608,29.0794"/>
</g>
<!-- 38&#45;&#45;46 -->
<g id="edge56" class="edge"><title>38&#45;&#45;46</title>
<path fill="none" stroke="black" d="M223.742,2.55897C216.306,-2.41723 196.599,-15.6042 187.211,-21.8866"/>
</g>
<!-- 39 -->
<g id="node40" class="node"><title>39</title>
<ellipse fill="#1874cd" stroke="black" cx="73" cy="67" rx="3.5" ry="3.5"/>
</g>
<!-- 40 -->
<g id="node41" class="node"><title>40</title>
<path fill="#1874cd" stroke="black" stroke-width="0.5" d="M-162.575,-424.858C-162.575,-424.858 -136.075,-424.858 -136.075,-424.858 -136.075,-425.867 -136.133,-426.876 -136.248,-427.879 -136.363,-428.881 -136.535,-429.877 -136.764,-430.86 -136.993,-431.843 -137.277,-432.812 -137.617,-433.763 -137.956,-434.714 -138.349,-435.644 -138.794,-436.55 -139.24,-437.456 -139.736,-438.336 -140.282,-439.185 -140.828,-440.034 -141.422,-440.851 -142.061,-441.633 -142.7,-442.414 -143.383,-443.158 -144.107,-443.862 -144.83,-444.565 -145.594,-445.227 -146.393,-445.843 -146.393,-445.843 -162.575,-424.858 -162.575,-424.858"/>
<path fill="olivedrab" stroke="black" stroke-width="0.5" d="M-162.575,-424.858C-162.575,-424.858 -146.393,-445.843 -146.393,-445.843 -146.98,-446.296 -147.586,-446.724 -148.209,-447.125 -148.831,-447.527 -149.471,-447.903 -150.125,-448.251 -150.779,-448.599 -151.448,-448.92 -152.129,-449.212 -152.81,-449.504 -153.503,-449.768 -154.207,-450.002 -154.91,-450.236 -155.623,-450.44 -156.343,-450.615 -157.064,-450.789 -157.791,-450.933 -158.523,-451.046 -159.256,-451.16 -159.993,-451.242 -160.732,-451.294 -161.471,-451.345 -162.213,-451.366 -162.954,-451.355 -163.695,-451.345 -164.435,-451.303 -165.173,-451.23 -165.91,-451.158 -166.645,-451.054 -167.374,-450.92 -168.103,-450.786 -168.826,-450.621 -169.541,-450.426 -170.256,-450.231 -170.962,-450.007 -171.659,-449.752 -172.355,-449.498 -173.04,-449.215 -173.713,-448.904 -174.385,-448.592 -175.045,-448.253 -175.689,-447.886 -176.333,-447.519 -176.961,-447.126 -177.572,-446.706 -178.183,-446.287 -178.776,-445.842 -179.35,-445.373 -179.924,-444.903 -180.478,-444.41 -181.01,-443.895 -181.543,-443.379 -182.053,-442.841 -182.541,-442.283 -183.028,-441.725 -183.492,-441.146 -183.931,-440.549 -184.369,-439.951 -184.783,-439.336 -185.17,-438.704 -185.558,-438.072 -185.918,-437.424 -186.251,-436.762 -186.584,-436.1 -186.889,-435.424 -187.165,-434.736 -187.442,-434.048 -187.689,-433.349 -187.907,-432.641 -188.124,-431.932 -188.312,-431.215 -188.47,-430.491 -188.627,-429.767 -188.754,-429.036 -188.851,-428.301 -188.947,-427.566 -189.012,-426.828 -189.047,-426.087 -189.081,-425.347 -189.085,-424.605 -189.057,-423.865 -189.029,-423.124 -188.97,-422.385 -188.88,-421.649 -188.791,-420.913 -188.67,-420.182 -188.519,-419.456 -188.368,-418.731 -188.187,-418.012 -187.975,-417.301 -187.764,-416.591 -187.523,-415.89 -187.253,-415.199 -186.982,-414.509 -186.683,-413.831 -186.356,-413.165 -186.029,-412.5 -185.675,-411.849 -185.293,-411.214 -184.911,-410.578 -184.503,-409.959 -184.07,-409.358 -183.636,-408.757 -183.178,-408.174 -182.695,-407.611 -182.213,-407.049 -181.707,-406.507 -181.179,-405.986 -180.652,-405.466 -180.102,-404.968 -179.533,-404.494 -178.963,-404.019 -178.374,-403.569 -177.767,-403.144 -177.159,-402.719 -176.534,-402.32 -175.894,-401.948 -175.253,-401.575 -174.597,-401.23 -173.927,-400.912 -173.257,-400.595 -172.574,-400.305 -171.881,-400.045 -171.187,-399.785 -170.482,-399.554 -169.769,-399.353 -169.055,-399.152 -168.334,-398.98 -167.606,-398.84 -166.878,-398.699 -166.145,-398.589 -165.408,-398.51 -164.671,-398.43 -163.931,-398.382 -163.19,-398.365 -162.449,-398.348 -161.708,-398.362 -160.968,-398.407 -160.228,-398.452 -159.491,-398.528 -158.757,-398.634 -158.024,-398.741 -157.295,-398.879 -156.573,-399.046 -155.851,-399.214 -155.137,-399.412 -154.431,-399.64 -153.726,-399.868 -153.031,-400.125 -152.347,-400.411 -151.663,-400.697 -150.992,-401.012 -150.334,-401.354 -149.677,-401.697 -149.034,-402.067 -148.408,-402.463 -147.782,-402.859 -147.172,-403.281 -146.581,-403.729 -145.99,-404.176 -145.418,-404.648 -144.867,-405.143 -144.315,-405.639 -143.785,-406.157 -143.277,-406.697 -142.769,-407.236 -142.284,-407.797 -141.823,-408.378 -141.362,-408.958 -140.926,-409.558 -140.515,-410.175 -140.105,-410.792 -139.72,-411.426 -139.362,-412.075 -139.005,-412.724 -138.675,-413.388 -138.373,-414.065 -138.071,-414.742 -137.798,-415.431 -137.554,-416.131 -137.309,-416.831 -137.095,-417.541 -136.91,-418.258 -136.726,-418.976 -136.571,-419.701 -136.448,-420.432 -136.324,-421.163 -136.231,-421.899 -136.169,-422.637 -136.106,-423.376 -136.075,-424.117 -136.075,-424.858 -136.075,-424.858 -162.575,-424.858 -162.575,-424.858"/>
<ellipse fill="none" stroke="black" cx="-162.575" cy="-424.858" rx="26.5" ry="26.5"/>
</g>
<!-- 52 -->
<g id="node53" class="node"><title>52</title>
<ellipse fill="olivedrab" stroke="black" cx="-145.602" cy="-333.308" rx="9" ry="9"/>
</g>
<!-- 40&#45;&#45;52 -->
<g id="edge57" class="edge"><title>40&#45;&#45;52</title>
<path fill="none" stroke="black" d="M-157.666,-398.378C-154.18,-379.578 -149.709,-355.463 -147.309,-342.513"/>
</g>
<!-- 55 -->
<g id="node56" class="node"><title>55</title>
<ellipse fill="olivedrab" stroke="black" cx="-226.193" cy="-496.538" rx="11" ry="11"/>
</g>
<!-- 40&#45;&#45;55 -->
<g id="edge58" class="edge"><title>40&#45;&#45;55</title>
<path fill="none" stroke="black" d="M-180.296,-444.825C-192.944,-459.075 -209.314,-477.52 -218.696,-488.091"/>
</g>
<!-- 56 -->
<g id="node57" class="node"><title>56</title>
<ellipse fill="olivedrab" stroke="black" cx="-222.801" cy="-444.115" rx="3.5" ry="3.5"/>
</g>
<!-- 40&#45;&#45;56 -->
<g id="edge59" class="edge"><title>40&#45;&#45;56</title>
<path fill="none" stroke="black" d="M-188.117,-433.025C-200.171,-436.879 -213.226,-441.053 -219.311,-442.999"/>
</g>
<!-- 57 -->
<g id="node58" class="node"><title>57</title>
<ellipse fill="olivedrab" stroke="black" cx="-238.352" cy="-396.5" rx="3.5" ry="3.5"/>
</g>
<!-- 40&#45;&#45;57 -->
<g id="edge60" class="edge"><title>40&#45;&#45;57</title>
<path fill="none" stroke="black" d="M-187.808,-415.415C-205.03,-408.97 -226.192,-401.051 -234.627,-397.894"/>
</g>
<!-- 58 -->
<g id="node59" class="node"><title>58</title>
<ellipse fill="olivedrab" stroke="black" cx="-89.8351" cy="-420.011" rx="3.5" ry="3.5"/>
</g>
<!-- 40&#45;&#45;58 -->
<g id="edge61" class="edge"><title>40&#45;&#45;58</title>
<path fill="none" stroke="black" d="M-135.903,-423.081C-120.008,-422.021 -101.448,-420.785 -93.6213,-420.263"/>
</g>
<!-- 60 -->
<g id="node61" class="node"><title>60</title>
<ellipse fill="olivedrab" stroke="black" cx="-106.967" cy="-380.337" rx="3.5" ry="3.5"/>
</g>
<!-- 40&#45;&#45;60 -->
<g id="edge66" class="edge"><title>40&#45;&#45;60</title>
<path fill="none" stroke="black" d="M-141.869,-408.28C-129.764,-398.589 -115.736,-387.358 -109.825,-382.625"/>
</g>
<!-- 61 -->
<g id="node62" class="node"><title>61</title>
<ellipse fill="olivedrab" stroke="black" cx="-203.588" cy="-363.987" rx="3.5" ry="3.5"/>
</g>
<!-- 40&#45;&#45;61 -->
<g id="edge67" class="edge"><title>40&#45;&#45;61</title>
<path fill="none" stroke="black" d="M-177.614,-402.537C-186.576,-389.237 -197.04,-373.705 -201.453,-367.155"/>
</g>
<!-- anon_40_59_0 -->
<g id="node80" class="node"><title>anon_40_59_0</title>
<ellipse fill="white" stroke="black" cx="-116.862" cy="-490.406" rx="2.5" ry="2.5"/>
</g>
<!-- 40&#45;&#45;anon_40_59_0 -->
<g id="edge62" class="edge"><title>40&#45;&#45;anon_40_59_0</title>
<path fill="none" stroke="black" d="M-147.353,-446.684C-136.549,-462.177 -123.173,-481.357 -118.536,-488.005"/>
</g>
<!-- 44 -->
<g id="node45" class="node"><title>44</title>
<ellipse fill="#1874cd" stroke="black" cx="-293.779" cy="88.5601" rx="6" ry="6"/>
</g>
<!-- 44&#45;&#45;31 -->
<g id="edge68" class="edge"><title>44&#45;&#45;31</title>
<path fill="none" stroke="black" d="M-288.936,92.2922C-280.78,98.5775 -263.991,111.515 -251.697,120.99"/>
</g>
<!-- 44&#45;&#45;33 -->
<g id="edge69" class="edge"><title>44&#45;&#45;33</title>
<path fill="none" stroke="black" d="M-299.208,85.3989C-307.561,80.5357 -323.604,71.1947 -333.233,65.5884"/>
</g>
<!-- 45 -->
<g id="node46" class="node"><title>45</title>
<ellipse fill="#1874cd" stroke="black" cx="-274.943" cy="235.154" rx="3.5" ry="3.5"/>
</g>
<!-- anon_45_31_0 -->
<g id="node83" class="node"><title>anon_45_31_0</title>
<ellipse fill="white" stroke="black" cx="-256.236" cy="194.75" rx="2.5" ry="2.5"/>
</g>
<!-- 45&#45;&#45;anon_45_31_0 -->
<g id="edge70" class="edge"><title>45&#45;&#45;anon_45_31_0</title>
<path fill="none" stroke="black" d="M-273.348,231.709C-269.672,223.77 -260.673,204.333 -257.428,197.323"/>
</g>
<!-- anon_45_32_0 -->
<g id="node84" class="node"><title>anon_45_32_0</title>
<ellipse fill="white" stroke="black" cx="-295.932" cy="273.418" rx="2.5" ry="2.5"/>
</g>
<!-- 45&#45;&#45;anon_45_32_0 -->
<g id="edge72" class="edge"><title>45&#45;&#45;anon_45_32_0</title>
<path fill="none" stroke="black" d="M-276.88,238.685C-281.101,246.382 -291.04,264.5 -294.619,271.024"/>
</g>
<!-- 46&#45;&#45;34 -->
<g id="edge74" class="edge"><title>46&#45;&#45;34</title>
<path fill="none" stroke="black" d="M184.625,-31.2011C189.039,-41.4967 198.187,-62.8342 203.473,-75.1648"/>
</g>
<!-- 48 -->
<g id="node49" class="node"><title>48</title>
<ellipse fill="#1874cd" stroke="black" cx="235.691" cy="-311.051" rx="3.5" ry="3.5"/>
</g>
<!-- 49 -->
<g id="node50" class="node"><title>49</title>
<ellipse fill="#1874cd" stroke="black" cx="182.433" cy="123.716" rx="5" ry="5"/>
</g>
<!-- 49&#45;&#45;43 -->
<g id="edge75" class="edge"><title>49&#45;&#45;43</title>
<path fill="none" stroke="black" d="M180.418,118.877C176.539,109.56 168.073,89.2272 164.2,79.9252"/>
</g>
<!-- 50 -->
<g id="node51" class="node"><title>50</title>
<ellipse fill="#1874cd" stroke="black" cx="311.147" cy="-86.1641" rx="3.5" ry="3.5"/>
</g>
<!-- 51 -->
<g id="node52" class="node"><title>51</title>
<ellipse fill="olivedrab" stroke="black" cx="-130.763" cy="-283.414" rx="3.5" ry="3.5"/>
</g>
<!-- 51&#45;&#45;52 -->
<g id="edge76" class="edge"><title>51&#45;&#45;52</title>
<path fill="none" stroke="black" d="M-131.83,-287.002C-134.143,-294.778 -139.674,-313.376 -142.98,-324.492"/>
</g>
<!-- 53 -->
<g id="node54" class="node"><title>53</title>
<ellipse fill="olivedrab" stroke="black" cx="3" cy="102" rx="3.5" ry="3.5"/>
</g>
<!-- 54 -->
<g id="node55" class="node"><title>54</title>
<ellipse fill="olivedrab" stroke="black" cx="-275.25" cy="-525.286" rx="5" ry="5"/>
</g>
<!-- 55&#45;&#45;54 -->
<g id="edge77" class="edge"><title>55&#45;&#45;54</title>
<path fill="none" stroke="black" d="M-236.12,-502.355C-246.759,-508.59 -263.16,-518.201 -270.91,-522.743"/>
</g>
<!-- 59 -->
<g id="node60" class="node"><title>59</title>
<ellipse fill="olivedrab" stroke="black" cx="-26.6348" cy="-583.956" rx="3.5" ry="3.5"/>
</g>
<!-- anon_0_15_1 -->
<g id="node64" class="node"><title>anon_0_15_1</title>
<ellipse fill="white" stroke="black" cx="49.6517" cy="-424.434" rx="2.5" ry="2.5"/>
</g>
<!-- anon_0_15_0&#45;&#45;anon_0_15_1 -->
<g id="edge3" class="edge"><title>anon_0_15_0&#45;&#45;anon_0_15_1</title>
<path fill="none" stroke="black" d="M46.9661,-382.331C47.4752,-390.312 48.9829,-413.948 49.4861,-421.837"/>
</g>
<!-- anon_0_15_2 -->
<g id="node65" class="node"><title>anon_0_15_2</title>
<ellipse fill="white" stroke="black" cx="53.1761" cy="-467.315" rx="2.5" ry="2.5"/>
</g>
<!-- anon_0_15_1&#45;&#45;anon_0_15_2 -->
<g id="edge4" class="edge"><title>anon_0_15_1&#45;&#45;anon_0_15_2</title>
<path fill="none" stroke="black" d="M49.8616,-426.988C50.4781,-434.488 52.2808,-456.423 52.9352,-464.384"/>
</g>
<!-- anon_0_15_2&#45;&#45;15 -->
<g id="edge5" class="edge"><title>anon_0_15_2&#45;&#45;15</title>
<path fill="none" stroke="black" d="M53.8324,-470.075C55.5712,-477.386 60.2983,-497.264 62.2833,-505.611"/>
</g>
<!-- anon_6_0_0&#45;&#45;0 -->
<g id="edge19" class="edge"><title>anon_6_0_0&#45;&#45;0</title>
<path fill="none" stroke="black" d="M125.85,-300.235C116.674,-298.724 86.9668,-293.833 63.1313,-289.908"/>
</g>
<!-- anon_16_4_0&#45;&#45;4 -->
<g id="edge28" class="edge"><title>anon_16_4_0&#45;&#45;4</title>
<path fill="none" stroke="black" d="M243.059,-460.172C246.235,-453.481 255.038,-434.938 260.955,-422.475"/>
</g>
<!-- anon_25_2_0&#45;&#45;2 -->
<g id="edge33" class="edge"><title>anon_25_2_0&#45;&#45;2</title>
<path fill="none" stroke="black" d="M412.852,-260.276C409.976,-268.244 400.527,-294.421 392.238,-317.387"/>
</g>
<!-- anon_31_37_1 -->
<g id="node70" class="node"><title>anon_31_37_1</title>
<ellipse fill="white" stroke="black" cx="-137.601" cy="92.1735" rx="2.5" ry="2.5"/>
</g>
<!-- anon_31_37_0&#45;&#45;anon_31_37_1 -->
<g id="edge37" class="edge"><title>anon_31_37_0&#45;&#45;anon_31_37_1</title>
<path fill="none" stroke="black" d="M-174.426,108.613C-167.302,105.433 -147.444,96.5678 -140.248,93.3552"/>
</g>
<!-- anon_31_37_2 -->
<g id="node71" class="node"><title>anon_31_37_2</title>
<ellipse fill="white" stroke="black" cx="-98.8165" cy="74.1357" rx="2.5" ry="2.5"/>
</g>
<!-- anon_31_37_1&#45;&#45;anon_31_37_2 -->
<g id="edge38" class="edge"><title>anon_31_37_1&#45;&#45;anon_31_37_2</title>
<path fill="none" stroke="black" d="M-135.056,90.99C-128.045,87.7295 -108.503,78.6409 -101.421,75.3472"/>
</g>
<!-- anon_31_37_3 -->
<g id="node72" class="node"><title>anon_31_37_3</title>
<ellipse fill="white" stroke="black" cx="-59.4994" cy="57.4633" rx="2.5" ry="2.5"/>
</g>
<!-- anon_31_37_2&#45;&#45;anon_31_37_3 -->
<g id="edge39" class="edge"><title>anon_31_37_2&#45;&#45;anon_31_37_3</title>
<path fill="none" stroke="black" d="M-96.2368,73.0418C-89.1298,70.0281 -69.3192,61.6274 -62.1401,58.5831"/>
</g>
<!-- anon_31_37_4 -->
<g id="node73" class="node"><title>anon_31_37_4</title>
<ellipse fill="white" stroke="black" cx="-19.095" cy="43.0581" rx="2.5" ry="2.5"/>
</g>
<!-- anon_31_37_3&#45;&#45;anon_31_37_4 -->
<g id="edge40" class="edge"><title>anon_31_37_3&#45;&#45;anon_31_37_4</title>
<path fill="none" stroke="black" d="M-56.8483,56.5181C-49.5448,53.9142 -29.1864,46.6559 -21.8088,44.0256"/>
</g>
<!-- anon_31_37_5 -->
<g id="node74" class="node"><title>anon_31_37_5</title>
<ellipse fill="white" stroke="black" cx="22.7615" cy="31.4668" rx="2.5" ry="2.5"/>
</g>
<!-- anon_31_37_4&#45;&#45;anon_31_37_5 -->
<g id="edge41" class="edge"><title>anon_31_37_4&#45;&#45;anon_31_37_5</title>
<path fill="none" stroke="black" d="M-16.3487,42.2975C-8.78272,40.2023 12.3074,34.3618 19.9502,32.2453"/>
</g>
<!-- anon_31_37_6 -->
<g id="node75" class="node"><title>anon_31_37_6</title>
<ellipse fill="white" stroke="black" cx="66.8237" cy="23.3804" rx="2.5" ry="2.5"/>
</g>
<!-- anon_31_37_5&#45;&#45;anon_31_37_6 -->
<g id="edge42" class="edge"><title>anon_31_37_5&#45;&#45;anon_31_37_6</title>
<path fill="none" stroke="black" d="M25.3858,30.9851C33.2412,29.5435 56.5038,25.2743 64.2683,23.8494"/>
</g>
<!-- anon_31_37_6&#45;&#45;37 -->
<g id="edge43" class="edge"><title>anon_31_37_6&#45;&#45;37</title>
<path fill="none" stroke="black" d="M69.4747,23.0788C77.4551,22.171 101.615,19.4226 116.441,17.7359"/>
</g>
<!-- anon_34_50_0&#45;&#45;50 -->
<g id="edge45" class="edge"><title>anon_34_50_0&#45;&#45;50</title>
<path fill="none" stroke="black" d="M267.675,-85.5751C275.605,-85.6825 298.502,-85.9928 307.476,-86.1143"/>
</g>
<!-- anon_36_34_0&#45;&#45;34 -->
<g id="edge47" class="edge"><title>anon_36_34_0&#45;&#45;34</title>
<path fill="none" stroke="black" d="M198.495,-137.469C199.791,-129.828 203.553,-107.664 205.777,-94.557"/>
</g>
<!-- anon_36_48_1 -->
<g id="node79" class="node"><title>anon_36_48_1</title>
<ellipse fill="white" stroke="black" cx="222.727" cy="-270.001" rx="2.5" ry="2.5"/>
</g>
<!-- anon_36_48_0&#45;&#45;anon_36_48_1 -->
<g id="edge49" class="edge"><title>anon_36_48_0&#45;&#45;anon_36_48_1</title>
<path fill="none" stroke="black" d="M211.771,-231.855C213.891,-239.234 219.799,-259.804 221.94,-267.259"/>
</g>
<!-- anon_36_48_1&#45;&#45;48 -->
<g id="edge50" class="edge"><title>anon_36_48_1&#45;&#45;48</title>
<path fill="none" stroke="black" d="M223.578,-272.694C225.831,-279.829 231.957,-299.227 234.529,-307.372"/>
</g>
<!-- anon_40_59_1 -->
<g id="node81" class="node"><title>anon_40_59_1</title>
<ellipse fill="white" stroke="black" cx="-86.0037" cy="-522.109" rx="2.5" ry="2.5"/>
</g>
<!-- anon_40_59_0&#45;&#45;anon_40_59_1 -->
<g id="edge63" class="edge"><title>anon_40_59_0&#45;&#45;anon_40_59_1</title>
<path fill="none" stroke="black" d="M-114.837,-492.486C-109.152,-498.327 -93.1092,-514.809 -87.7624,-520.302"/>
</g>
<!-- anon_40_59_2 -->
<g id="node82" class="node"><title>anon_40_59_2</title>
<ellipse fill="white" stroke="black" cx="-54.5739" cy="-551.177" rx="2.5" ry="2.5"/>
</g>
<!-- anon_40_59_1&#45;&#45;anon_40_59_2 -->
<g id="edge64" class="edge"><title>anon_40_59_1&#45;&#45;anon_40_59_2</title>
<path fill="none" stroke="black" d="M-83.9415,-524.016C-78.2603,-529.27 -62.4238,-543.917 -56.6849,-549.224"/>
</g>
<!-- anon_40_59_2&#45;&#45;59 -->
<g id="edge65" class="edge"><title>anon_40_59_2&#45;&#45;59</title>
<path fill="none" stroke="black" d="M-52.7408,-553.327C-47.8847,-559.025 -34.6824,-574.514 -29.1388,-581.019"/>
</g>
<!-- anon_45_31_0&#45;&#45;31 -->
<g id="edge71" class="edge"><title>anon_45_31_0&#45;&#45;31</title>
<path fill="none" stroke="black" d="M-255.409,192.068C-253.205,184.928 -247.052,164.986 -242.457,150.094"/>
</g>
<!-- anon_45_32_0&#45;&#45;32 -->
<g id="edge73" class="edge"><title>anon_45_32_0&#45;&#45;32</title>
<path fill="none" stroke="black" d="M-297.239,275.922C-300.704,282.554 -310.122,300.587 -314.077,308.159"/>
</g>
</g>
</svg>
