<?xml version="1.0" encoding="UTF-8" standalone="no"?>
<!DOCTYPE svg PUBLIC "-//W3C//DTD SVG 1.1//EN"
 "http://www.w3.org/Graphics/SVG/1.1/DTD/svg11.dtd">
<!-- Generated by graphviz version 2.38.0 (20140413.2041)
 -->
<!-- Title: %3 Pages: 1 -->
<svg width="692pt" height="757pt"
 viewBox="0.00 0.00 691.88 757.02" xmlns="http://www.w3.org/2000/svg" xmlns:xlink="http://www.w3.org/1999/xlink">
<g id="graph0" class="graph" transform="scale(1 1) rotate(0) translate(263.767 518.774)">
<title>%3</title>
<polygon fill="white" stroke="none" points="-263.767,238.249 -263.767,-518.774 428.109,-518.774 428.109,238.249 -263.767,238.249"/>
<!-- 0 -->
<g id="node1" class="node"><title>0</title>
<ellipse fill="palegreen" stroke="black" cx="238.116" cy="-248.16" rx="23.5" ry="23.5"/>
</g>
<!-- 1 -->
<g id="node2" class="node"><title>1</title>
<ellipse fill="palegreen" stroke="black" cx="303.35" cy="-267.81" rx="2.5" ry="2.5"/>
</g>
<!-- 0&#45;&gt;1 -->
<g id="edge1" class="edge"><title>0&#45;&gt;1</title>
<path fill="none" stroke="black" d="M260.931,-255.032C275.922,-259.548 293.958,-264.981 300.666,-267.001"/>
</g>
<!-- 3 -->
<g id="node4" class="node"><title>3</title>
<ellipse fill="palegreen" stroke="black" cx="231.998" cy="-199.669" rx="2.5" ry="2.5"/>
</g>
<!-- 0&#45;&gt;3 -->
<g id="edge2" class="edge"><title>0&#45;&gt;3</title>
<path fill="none" stroke="black" d="M235.164,-224.767C234.04,-215.854 232.896,-206.788 232.342,-202.393"/>
</g>
<!-- 5 -->
<g id="node6" class="node"><title>5</title>
<ellipse fill="palegreen" stroke="black" cx="199.763" cy="-287.09" rx="2.5" ry="2.5"/>
</g>
<!-- 0&#45;&gt;5 -->
<g id="edge3" class="edge"><title>0&#45;&gt;5</title>
<path fill="none" stroke="black" d="M221.182,-265.349C213.476,-273.17 205.281,-281.489 201.665,-285.16"/>
</g>
<!-- 7 -->
<g id="node8" class="node"><title>7</title>
<ellipse fill="palegreen" stroke="black" cx="164.584" cy="-282.142" rx="3.5" ry="3.5"/>
</g>
<!-- 0&#45;&gt;7 -->
<g id="edge6" class="edge"><title>0&#45;&gt;7</title>
<path fill="none" stroke="black" d="M216.451,-258.172C199.167,-266.159 176.493,-276.638 167.995,-280.565"/>
</g>
<!-- 9 -->
<g id="node10" class="node"><title>9</title>
<ellipse fill="palegreen" stroke="black" cx="224.967" cy="-159.728" rx="6" ry="6"/>
</g>
<!-- 0&#45;&gt;9 -->
<g id="edge7" class="edge"><title>0&#45;&gt;9</title>
<path fill="none" stroke="black" d="M233.698,-225.019C232.25,-217.006 230.704,-207.955 229.498,-199.661 227.771,-187.785 226.319,-173.841 225.553,-165.969"/>
</g>
<!-- 10 -->
<g id="node11" class="node"><title>10</title>
<ellipse fill="palegreen" stroke="black" cx="172.219" cy="-222.328" rx="2.5" ry="2.5"/>
</g>
<!-- 0&#45;&gt;10 -->
<g id="edge8" class="edge"><title>0&#45;&gt;10</title>
<path fill="none" stroke="black" d="M216.173,-239.558C200.598,-233.453 181.316,-225.894 174.633,-223.274"/>
</g>
<!-- 11 -->
<g id="node12" class="node"><title>11</title>
<ellipse fill="palegreen" stroke="black" cx="277.641" cy="-179.896" rx="2.5" ry="2.5"/>
</g>
<!-- 0&#45;&gt;11 -->
<g id="edge9" class="edge"><title>0&#45;&gt;11</title>
<path fill="none" stroke="black" d="M249.975,-227.678C259.616,-211.027 272.263,-189.186 276.325,-182.17"/>
</g>
<!-- 12 -->
<g id="node13" class="node"><title>12</title>
<ellipse fill="palegreen" stroke="black" cx="185.355" cy="-181.487" rx="3.5" ry="3.5"/>
</g>
<!-- 0&#45;&gt;12 -->
<g id="edge10" class="edge"><title>0&#45;&gt;12</title>
<path fill="none" stroke="black" d="M223.419,-229.588C210.735,-213.559 193.534,-191.823 187.53,-184.236"/>
</g>
<!-- 14 -->
<g id="node15" class="node"><title>14</title>
<ellipse fill="palegreen" stroke="black" cx="158.875" cy="-248.962" rx="2.5" ry="2.5"/>
</g>
<!-- 0&#45;&gt;14 -->
<g id="edge11" class="edge"><title>0&#45;&gt;14</title>
<path fill="none" stroke="black" d="M214.341,-248.4C195.012,-248.596 169.658,-248.852 161.514,-248.935"/>
</g>
<!-- 18 -->
<g id="node19" class="node"><title>18</title>
<ellipse fill="palegreen" stroke="black" cx="298.12" cy="-299.708" rx="2.5" ry="2.5"/>
</g>
<!-- 0&#45;&gt;18 -->
<g id="edge16" class="edge"><title>0&#45;&gt;18</title>
<path fill="none" stroke="black" d="M256.119,-263.626C270.756,-276.2 289.955,-292.693 296.122,-297.991"/>
</g>
<!-- 20 -->
<g id="node21" class="node"><title>20</title>
<ellipse fill="palegreen" stroke="black" cx="263.871" cy="-302.111" rx="2.5" ry="2.5"/>
</g>
<!-- 0&#45;&gt;20 -->
<g id="edge17" class="edge"><title>0&#45;&gt;20</title>
<path fill="none" stroke="black" d="M248.295,-269.483C253.919,-281.264 260.262,-294.552 262.768,-299.802"/>
</g>
<!-- 22 -->
<g id="node23" class="node"><title>22</title>
<ellipse fill="palegreen" stroke="black" cx="287.236" cy="-212.498" rx="2.5" ry="2.5"/>
</g>
<!-- 0&#45;&gt;22 -->
<g id="edge18" class="edge"><title>0&#45;&gt;22</title>
<path fill="none" stroke="black" d="M257.248,-234.27C268.023,-226.447 280.265,-217.559 285.106,-214.045"/>
</g>
<!-- anon_0_6_0 -->
<g id="node67" class="node"><title>anon_0_6_0</title>
<ellipse fill="white" stroke="black" cx="320.972" cy="-230.42" rx="1" ry="1"/>
</g>
<!-- 0&#45;&gt;anon_0_6_0 -->
<g id="edge4" class="edge"><title>0&#45;&gt;anon_0_6_0</title>
<path fill="none" stroke="black" d="M261.196,-243.218C282.648,-238.625 312.325,-232.271 319.409,-230.754"/>
</g>
<!-- anon_0_15_0 -->
<g id="node68" class="node"><title>anon_0_15_0</title>
<ellipse fill="white" stroke="black" cx="223.499" cy="-329.613" rx="1" ry="1"/>
</g>
<!-- 0&#45;&gt;anon_0_15_0 -->
<g id="edge12" class="edge"><title>0&#45;&gt;anon_0_15_0</title>
<path fill="none" stroke="black" d="M233.888,-271.719C230.11,-292.768 224.989,-321.306 223.768,-328.112"/>
</g>
<!-- 2 -->
<g id="node3" class="node"><title>2</title>
<path fill="palegreen" stroke="black" stroke-width="0.5" d="M-98.2278,-398.974C-98.2278,-398.974 -69.2278,-398.974 -69.2278,-398.974 -69.2278,-400.142 -69.2984,-401.309 -69.4392,-402.469 -69.5801,-403.629 -69.7909,-404.779 -70.0705,-405.914 -70.3501,-407.048 -70.698,-408.165 -71.1123,-409.257 -71.5266,-410.35 -72.0066,-411.416 -72.5496,-412.451 -73.0925,-413.485 -73.6975,-414.486 -74.3613,-415.447 -75.025,-416.409 -75.7462,-417.33 -76.521,-418.204 -77.2958,-419.079 -78.1227,-419.906 -78.9972,-420.68 -79.8718,-421.455 -80.7924,-422.176 -81.7539,-422.84 -82.7155,-423.504 -83.7163,-424.109 -84.7508,-424.652 -85.7854,-425.195 -86.8518,-425.675 -87.9443,-426.089 -89.0367,-426.503 -90.1532,-426.851 -91.2876,-427.131 -92.4221,-427.411 -93.5724,-427.621 -94.7322,-427.762 -95.8921,-427.903 -97.0594,-427.974 -98.2278,-427.974 -99.3962,-427.974 -100.563,-427.903 -101.723,-427.762 -102.883,-427.621 -104.034,-427.411 -105.168,-427.131 -106.302,-426.851 -107.419,-426.503 -108.511,-426.089 -109.604,-425.675 -110.67,-425.195 -111.705,-424.652 -112.739,-424.109 -113.74,-423.504 -114.702,-422.84 -115.663,-422.176 -116.584,-421.455 -117.458,-420.68 -118.333,-419.906 -119.16,-419.079 -119.935,-418.204 -120.709,-417.33 -121.431,-416.409 -122.094,-415.447 -122.758,-414.486 -123.363,-413.485 -123.906,-412.451 -124.449,-411.416 -124.929,-410.35 -125.343,-409.257 -125.758,-408.165 -126.105,-407.048 -126.385,-405.914 -126.665,-404.779 -126.876,-403.629 -127.016,-402.469 -127.157,-401.309 -127.228,-400.142 -127.228,-398.974 -127.228,-397.805 -127.157,-396.638 -127.016,-395.478 -126.876,-394.318 -126.665,-393.168 -126.385,-392.033 -126.105,-390.899 -125.758,-389.783 -125.343,-388.69 -124.929,-387.598 -124.449,-386.531 -123.906,-385.497 -123.363,-384.462 -122.758,-383.461 -122.094,-382.5 -121.431,-381.538 -120.709,-380.618 -119.935,-379.743 -119.935,-379.743 -98.2278,-398.974 -98.2278,-398.974"/>
<path fill="#787878" stroke="black" stroke-width="0.5" d="M-98.2278,-398.974C-98.2278,-398.974 -119.935,-379.743 -119.935,-379.743 -118.966,-378.65 -117.916,-377.631 -116.794,-376.696 -115.672,-375.761 -114.481,-374.912 -113.231,-374.156 -111.981,-373.4 -110.675,-372.74 -109.326,-372.181 -107.976,-371.622 -106.586,-371.166 -105.168,-370.816 -103.75,-370.467 -102.307,-370.225 -100.852,-370.093 -99.3975,-369.96 -97.9349,-369.938 -96.4768,-370.027 -95.0188,-370.115 -93.5694,-370.313 -92.1412,-370.62 -90.713,-370.926 -89.3101,-371.34 -87.9443,-371.858 -86.5784,-372.376 -85.2537,-372.997 -83.9814,-373.714 -82.7091,-374.432 -81.4928,-375.244 -80.3429,-376.145 -79.1931,-377.046 -78.1129,-378.033 -77.1117,-379.096 -76.1105,-380.16 -75.1911,-381.298 -74.3613,-382.5 -73.5315,-383.702 -72.7937,-384.965 -72.1542,-386.278 -71.5148,-387.592 -70.9755,-388.951 -70.5409,-390.346 -70.1063,-391.741 -69.7777,-393.166 -69.558,-394.61 -69.3382,-396.054 -69.2278,-397.513 -69.2278,-398.974 -69.2278,-398.974 -98.2278,-398.974 -98.2278,-398.974"/>
<ellipse fill="none" stroke="black" cx="-98.2278" cy="-398.974" rx="29" ry="29"/>
</g>
<!-- 4 -->
<g id="node5" class="node"><title>4</title>
<ellipse fill="palegreen" stroke="black" cx="-121.597" cy="-300.031" rx="9" ry="9"/>
</g>
<!-- 2&#45;&gt;4 -->
<g id="edge19" class="edge"><title>2&#45;&gt;4</title>
<path fill="none" stroke="black" d="M-104.925,-370.621C-109.834,-349.835 -116.19,-322.925 -119.454,-309.105"/>
</g>
<!-- 13 -->
<g id="node14" class="node"><title>13</title>
<ellipse fill="palegreen" stroke="black" cx="-139.736" cy="-359.877" rx="2.5" ry="2.5"/>
</g>
<!-- 2&#45;&gt;13 -->
<g id="edge20" class="edge"><title>2&#45;&gt;13</title>
<path fill="none" stroke="black" d="M-119.468,-378.967C-126.809,-372.053 -134.068,-365.216 -137.57,-361.917"/>
</g>
<!-- 17 -->
<g id="node18" class="node"><title>17</title>
<ellipse fill="palegreen" stroke="black" cx="-119.998" cy="-479.188" rx="2.5" ry="2.5"/>
</g>
<!-- 2&#45;&gt;17 -->
<g id="edge21" class="edge"><title>2&#45;&gt;17</title>
<path fill="none" stroke="black" d="M-105.842,-427.029C-110.942,-445.823 -117.1,-468.51 -119.229,-476.357"/>
</g>
<!-- 19 -->
<g id="node20" class="node"><title>19</title>
<ellipse fill="palegreen" stroke="black" cx="-155.597" cy="-458.885" rx="2.5" ry="2.5"/>
</g>
<!-- 2&#45;&gt;19 -->
<g id="edge22" class="edge"><title>2&#45;&gt;19</title>
<path fill="none" stroke="black" d="M-118.293,-419.928C-131.734,-433.965 -147.96,-450.91 -153.572,-456.77"/>
</g>
<!-- 23 -->
<g id="node24" class="node"><title>23</title>
<ellipse fill="#787878" stroke="black" cx="-17.5525" cy="-460.066" rx="8" ry="8"/>
</g>
<!-- 2&#45;&gt;23 -->
<g id="edge23" class="edge"><title>2&#45;&gt;23</title>
<path fill="none" stroke="black" d="M-74.8932,-416.644C-57.5817,-429.753 -35.1562,-446.736 -24.1867,-455.042"/>
</g>
<!-- 24 -->
<g id="node25" class="node"><title>24</title>
<ellipse fill="#787878" stroke="black" cx="-179.101" cy="-385.09" rx="2.5" ry="2.5"/>
</g>
<!-- 2&#45;&gt;24 -->
<g id="edge24" class="edge"><title>2&#45;&gt;24</title>
<path fill="none" stroke="black" d="M-126.968,-394.04C-145.855,-390.798 -168.466,-386.916 -176.281,-385.574"/>
</g>
<!-- 27 -->
<g id="node28" class="node"><title>27</title>
<ellipse fill="#787878" stroke="black" cx="-177.337" cy="-425.745" rx="2.5" ry="2.5"/>
</g>
<!-- 2&#45;&gt;27 -->
<g id="edge27" class="edge"><title>2&#45;&gt;27</title>
<path fill="none" stroke="black" d="M-125.896,-408.337C-144.432,-414.609 -166.806,-422.181 -174.545,-424.8"/>
</g>
<!-- 28 -->
<g id="node29" class="node"><title>28</title>
<ellipse fill="#787878" stroke="black" cx="-38.4151" cy="-393.582" rx="2.5" ry="2.5"/>
</g>
<!-- 2&#45;&gt;28 -->
<g id="edge28" class="edge"><title>2&#45;&gt;28</title>
<path fill="none" stroke="black" d="M-69.0223,-396.341C-57.635,-395.314 -46.1121,-394.275 -41.0623,-393.82"/>
</g>
<!-- 29 -->
<g id="node30" class="node"><title>29</title>
<ellipse fill="#787878" stroke="black" cx="-81.569" cy="-460.523" rx="2.5" ry="2.5"/>
</g>
<!-- 2&#45;&gt;29 -->
<g id="edge29" class="edge"><title>2&#45;&gt;29</title>
<path fill="none" stroke="black" d="M-90.581,-427.226C-87.2281,-439.614 -83.7266,-452.551 -82.2695,-457.935"/>
</g>
<!-- anon_2_25_0 -->
<g id="node71" class="node"><title>anon_2_25_0</title>
<ellipse fill="white" stroke="black" cx="-31.3901" cy="-348.202" rx="1" ry="1"/>
</g>
<!-- 2&#45;&gt;anon_2_25_0 -->
<g id="edge25" class="edge"><title>2&#45;&gt;anon_2_25_0</title>
<path fill="none" stroke="black" d="M-74.8512,-381.216C-57.9864,-368.405 -37.3601,-352.737 -32.4671,-349.02"/>
</g>
<!-- 21 -->
<g id="node22" class="node"><title>21</title>
<ellipse fill="palegreen" stroke="black" cx="-173.011" cy="-278.126" rx="2.5" ry="2.5"/>
</g>
<!-- 4&#45;&gt;21 -->
<g id="edge32" class="edge"><title>4&#45;&gt;21</title>
<path fill="none" stroke="black" d="M-130.087,-296.414C-141.952,-291.359 -162.873,-282.445 -170.302,-279.28"/>
</g>
<!-- anon_4_16_0 -->
<g id="node72" class="node"><title>anon_4_16_0</title>
<ellipse fill="white" stroke="black" cx="-103.72" cy="-251.435" rx="1" ry="1"/>
</g>
<!-- 4&#45;&gt;anon_4_16_0 -->
<g id="edge30" class="edge"><title>4&#45;&gt;anon_4_16_0</title>
<path fill="none" stroke="black" d="M-118.483,-291.566C-114.001,-279.384 -106.059,-257.796 -104.144,-252.589"/>
</g>
<!-- 6 -->
<g id="node7" class="node"><title>6</title>
<ellipse fill="palegreen" stroke="black" cx="364.111" cy="-221.015" rx="2.5" ry="2.5"/>
</g>
<!-- 8 -->
<g id="node9" class="node"><title>8</title>
<ellipse fill="palegreen" stroke="black" cx="183.393" cy="-133.485" rx="3.5" ry="3.5"/>
</g>
<!-- 8&#45;&gt;9 -->
<g id="edge33" class="edge"><title>8&#45;&gt;9</title>
<path fill="none" stroke="black" d="M186.383,-135.372C193.383,-139.791 210.91,-150.855 219.728,-156.421"/>
</g>
<!-- 8&#45;&gt;12 -->
<g id="edge77" class="edge"><title>8&#45;&gt;12</title>
<path fill="none" stroke="black" stroke-dasharray="5,2" d="M183.547,-137.251C183.915,-146.269 184.845,-169.005 185.207,-177.869"/>
</g>
<!-- 15 -->
<g id="node16" class="node"><title>15</title>
<ellipse fill="palegreen" stroke="black" cx="215.647" cy="-451.751" rx="2.5" ry="2.5"/>
</g>
<!-- 16 -->
<g id="node17" class="node"><title>16</title>
<ellipse fill="palegreen" stroke="black" cx="-93.5986" cy="-210.935" rx="2.5" ry="2.5"/>
</g>
<!-- 26 -->
<g id="node27" class="node"><title>26</title>
<ellipse fill="#787878" stroke="black" cx="35.0151" cy="-458.881" rx="2.5" ry="2.5"/>
</g>
<!-- 23&#45;&gt;26 -->
<g id="edge34" class="edge"><title>23&#45;&gt;26</title>
<path fill="none" stroke="black" d="M-9.33883,-459.881C2.67368,-459.61 24.4464,-459.119 32.1888,-458.944"/>
</g>
<!-- 30 -->
<g id="node31" class="node"><title>30</title>
<ellipse fill="#787878" stroke="black" cx="-8.45589" cy="-512.274" rx="2.5" ry="2.5"/>
</g>
<!-- 23&#45;&gt;30 -->
<g id="edge35" class="edge"><title>23&#45;&gt;30</title>
<path fill="none" stroke="black" d="M-16.1312,-468.224C-14.0524,-480.154 -10.2848,-501.778 -8.94496,-509.467"/>
</g>
<!-- 25 -->
<g id="node26" class="node"><title>25</title>
<ellipse fill="#787878" stroke="black" cx="8.29103" cy="-329.187" rx="2.5" ry="2.5"/>
</g>
<!-- 31 -->
<g id="node32" class="node"><title>31</title>
<ellipse fill="#1874cd" stroke="black" cx="-110.294" cy="-142.628" rx="13" ry="13"/>
</g>
<!-- 44 -->
<g id="node45" class="node"><title>44</title>
<ellipse fill="#1874cd" stroke="black" cx="-133.886" cy="-65.065" rx="4.5" ry="4.5"/>
</g>
<!-- 31&#45;&gt;44 -->
<g id="edge44" class="edge"><title>31&#45;&gt;44</title>
<path fill="none" stroke="black" d="M-114.085,-130.166C-119.451,-112.523 -129.003,-81.1199 -132.529,-69.5261"/>
</g>
<!-- 62 -->
<g id="node63" class="node"><title>62</title>
<ellipse fill="white" stroke="black" cx="-147.726" cy="-105.45" rx="1" ry="1"/>
</g>
<!-- 31&#45;&gt;62 -->
<g id="edge45" class="edge"><title>31&#45;&gt;62</title>
<path fill="none" stroke="black" d="M-119.74,-133.246C-129.442,-123.609 -143.592,-109.555 -146.978,-106.192"/>
</g>
<!-- anon_31_37_0 -->
<g id="node73" class="node"><title>anon_31_37_0</title>
<ellipse fill="white" stroke="black" cx="-49.1787" cy="-178.248" rx="1" ry="1"/>
</g>
<!-- 31&#45;&gt;anon_31_37_0 -->
<g id="edge36" class="edge"><title>31&#45;&gt;anon_31_37_0</title>
<path fill="none" stroke="black" d="M-98.7991,-149.328C-83.3083,-158.356 -56.9358,-173.727 -50.5847,-177.428"/>
</g>
<!-- 32 -->
<g id="node33" class="node"><title>32</title>
<ellipse fill="#1874cd" stroke="black" cx="-257.267" cy="-83.0404" rx="2.5" ry="2.5"/>
</g>
<!-- 63 -->
<g id="node64" class="node"><title>63</title>
<ellipse fill="white" stroke="black" cx="-214.397" cy="-81.0094" rx="1" ry="1"/>
</g>
<!-- 32&#45;&gt;63 -->
<g id="edge46" class="edge"><title>32&#45;&gt;63</title>
<path fill="none" stroke="black" d="M-254.713,-82.9195C-246.638,-82.5369 -221.827,-81.3614 -215.75,-81.0736"/>
</g>
<!-- 33 -->
<g id="node34" class="node"><title>33</title>
<ellipse fill="#1874cd" stroke="black" cx="-175.462" cy="-52.2206" rx="6" ry="6"/>
</g>
<!-- 33&#45;&gt;44 -->
<g id="edge47" class="edge"><title>33&#45;&gt;44</title>
<path fill="none" stroke="black" d="M-169.681,-54.0065C-161.292,-56.5984 -145.92,-61.3474 -138.346,-63.6874"/>
</g>
<!-- 33&#45;&gt;62 -->
<g id="edge86" class="edge"><title>33&#45;&gt;62</title>
<path fill="none" stroke="black" stroke-dasharray="5,2" d="M-172.494,-57.917C-166.233,-69.9322 -151.965,-97.313 -148.496,-103.97"/>
</g>
<!-- 33&#45;&gt;63 -->
<g id="edge48" class="edge"><title>33&#45;&gt;63</title>
<path fill="none" stroke="black" d="M-180.552,-55.9842C-189.786,-62.8123 -208.773,-76.8512 -213.375,-80.2542"/>
</g>
<!-- anon_33_34_0 -->
<g id="node84" class="node"><title>anon_33_34_0</title>
<ellipse fill="white" stroke="black" cx="-182.508" cy="6.55149" rx="1" ry="1"/>
</g>
<!-- 33&#45;&gt;anon_33_34_0 -->
<g id="edge78" class="edge"><title>33&#45;&gt;anon_33_34_0</title>
<path fill="none" stroke="black" stroke-dasharray="5,2" d="M-176.216,-45.9309C-177.835,-32.4276 -181.561,-1.34735 -182.357,5.28992"/>
</g>
<!-- 34 -->
<g id="node35" class="node"><title>34</title>
<ellipse fill="#1874cd" stroke="black" cx="100.181" cy="113.326" rx="7" ry="7"/>
</g>
<!-- 46 -->
<g id="node47" class="node"><title>46</title>
<ellipse fill="#1874cd" stroke="black" cx="128.261" cy="91.2053" rx="4.5" ry="4.5"/>
</g>
<!-- 34&#45;&gt;46 -->
<g id="edge49" class="edge"><title>34&#45;&gt;46</title>
<path fill="none" stroke="black" d="M105.864,108.85C111.505,104.406 119.975,97.7327 124.719,93.9958"/>
</g>
<!-- 64 -->
<g id="node65" class="node"><title>64</title>
<ellipse fill="white" stroke="black" cx="127.572" cy="48.1431" rx="1" ry="1"/>
</g>
<!-- 34&#45;&gt;64 -->
<g id="edge50" class="edge"><title>34&#45;&gt;64</title>
<path fill="none" stroke="black" d="M102.908,106.838C109.187,91.8964 124.342,55.831 127.128,49.2"/>
</g>
<!-- 65 -->
<g id="node66" class="node"><title>65</title>
<ellipse fill="white" stroke="black" cx="124.929" cy="162.906" rx="1" ry="1"/>
</g>
<!-- 34&#45;&gt;65 -->
<g id="edge51" class="edge"><title>34&#45;&gt;65</title>
<path fill="none" stroke="black" d="M103.417,119.808C109.286,131.567 121.354,155.744 124.28,161.605"/>
</g>
<!-- 35 -->
<g id="node36" class="node"><title>35</title>
<ellipse fill="#1874cd" stroke="black" cx="5" cy="-5" rx="4.5" ry="4.5"/>
</g>
<!-- 36 -->
<g id="node37" class="node"><title>36</title>
<ellipse fill="#1874cd" stroke="black" cx="145.11" cy="72.7728" rx="2.5" ry="2.5"/>
</g>
<!-- 36&#45;&gt;64 -->
<g id="edge52" class="edge"><title>36&#45;&gt;64</title>
<path fill="none" stroke="black" d="M143.492,70.4998C139.829,65.3552 131.014,52.9761 128.349,49.2332"/>
</g>
<!-- 37 -->
<g id="node38" class="node"><title>37</title>
<ellipse fill="#1874cd" stroke="black" cx="165.298" cy="28.4561" rx="8.5" ry="8.5"/>
</g>
<!-- 41 -->
<g id="node42" class="node"><title>41</title>
<ellipse fill="#1874cd" stroke="black" cx="207.445" cy="65.5157" rx="2.5" ry="2.5"/>
</g>
<!-- 37&#45;&gt;41 -->
<g id="edge53" class="edge"><title>37&#45;&gt;41</title>
<path fill="none" stroke="black" d="M171.883,34.2467C181.7,42.8783 199.645,58.6578 205.524,63.8271"/>
</g>
<!-- 42 -->
<g id="node43" class="node"><title>42</title>
<ellipse fill="#1874cd" stroke="black" cx="227.58" cy="14.5213" rx="5" ry="5"/>
</g>
<!-- 37&#45;&gt;42 -->
<g id="edge54" class="edge"><title>37&#45;&gt;42</title>
<path fill="none" stroke="black" d="M173.697,26.5768C186.846,23.635 211.888,18.0321 222.56,15.6444"/>
</g>
<!-- 43 -->
<g id="node44" class="node"><title>43</title>
<ellipse fill="#1874cd" stroke="black" cx="191.223" cy="92.9199" rx="3.5" ry="3.5"/>
</g>
<!-- 37&#45;&gt;43 -->
<g id="edge55" class="edge"><title>37&#45;&gt;43</title>
<path fill="none" stroke="black" d="M168.477,36.3607C174.155,50.4813 185.824,79.4947 189.834,89.4655"/>
</g>
<!-- 37&#45;&gt;46 -->
<g id="edge56" class="edge"><title>37&#45;&gt;46</title>
<path fill="none" stroke="black" d="M160.756,36.1504C152.798,49.6336 136.606,77.0666 130.585,87.2682"/>
</g>
<!-- 47 -->
<g id="node48" class="node"><title>47</title>
<ellipse fill="#1874cd" stroke="black" cx="206.348" cy="-3.7416" rx="2.5" ry="2.5"/>
</g>
<!-- 37&#45;&gt;47 -->
<g id="edge57" class="edge"><title>37&#45;&gt;47</title>
<path fill="none" stroke="black" d="M172.076,23.1393C181.549,15.709 198.253,2.60733 204.184,-2.04456"/>
</g>
<!-- 37&#45;&gt;64 -->
<g id="edge87" class="edge"><title>37&#45;&gt;64</title>
<path fill="none" stroke="black" stroke-dasharray="5,2" d="M157.663,32.4401C148.19,37.3837 132.776,45.4275 128.628,47.5921"/>
</g>
<!-- 38 -->
<g id="node39" class="node"><title>38</title>
<ellipse fill="#1874cd" stroke="black" cx="177.819" cy="111.847" rx="2.5" ry="2.5"/>
</g>
<!-- 38&#45;&gt;41 -->
<g id="edge58" class="edge"><title>38&#45;&gt;41</title>
<path fill="none" stroke="black" d="M178.842,109.529C180.642,105.528 184.582,97.1126 188.728,90.4653 194.23,81.6441 202.007,72.0206 205.552,67.7601"/>
</g>
<!-- 38&#45;&gt;46 -->
<g id="edge88" class="edge"><title>38&#45;&gt;46</title>
<path fill="none" stroke="black" stroke-dasharray="5,2" d="M175.429,110.851C167.617,107.598 142.766,97.2467 132.629,93.0247"/>
</g>
<!-- 39 -->
<g id="node40" class="node"><title>39</title>
<ellipse fill="#1874cd" stroke="black" cx="3" cy="49" rx="2.5" ry="2.5"/>
</g>
<!-- 40 -->
<g id="node41" class="node"><title>40</title>
<path fill="#1874cd" stroke="black" stroke-width="0.5" d="M324.799,163.136C324.799,163.136 343.799,163.136 343.799,163.136 343.799,162.412 343.757,161.689 343.675,160.97 343.592,160.251 343.469,159.538 343.305,158.833 343.141,158.128 342.937,157.433 342.694,156.751 342.451,156.07 342.169,155.402 341.849,154.753 341.53,154.103 341.174,153.473 340.783,152.864 340.391,152.255 339.966,151.669 339.507,151.109 339.049,150.549 338.56,150.015 338.041,149.511 337.522,149.006 336.974,148.532 336.401,148.09 336.401,148.09 324.799,163.136 324.799,163.136"/>
<path fill="olivedrab" stroke="black" stroke-width="0.5" d="M324.799,163.136C324.799,163.136 336.401,148.09 336.401,148.09 335.559,147.441 334.664,146.863 333.725,146.364 332.787,145.864 331.808,145.444 330.799,145.108 329.79,144.773 328.755,144.522 327.704,144.36 326.653,144.197 325.591,144.123 324.527,144.138 323.464,144.153 322.404,144.258 321.358,144.45 320.313,144.643 319.285,144.923 318.286,145.287 317.287,145.652 316.321,146.099 315.397,146.625 314.473,147.152 313.595,147.754 312.771,148.427 311.948,149.101 311.183,149.842 310.484,150.643 309.785,151.444 309.154,152.302 308.599,153.209 308.043,154.115 307.564,155.067 307.168,156.054 306.772,157.04 306.459,158.058 306.233,159.097 306.007,160.136 305.868,161.193 305.819,162.255 305.77,163.317 305.81,164.381 305.938,165.437 306.067,166.492 306.284,167.535 306.588,168.554 306.891,169.573 307.279,170.565 307.748,171.519 308.217,172.474 308.766,173.387 309.388,174.249 310.01,175.112 310.703,175.92 311.46,176.667 312.217,177.413 313.036,178.095 313.907,178.704 314.778,179.314 315.699,179.849 316.66,180.305 317.621,180.76 318.618,181.134 319.641,181.423 320.665,181.711 321.711,181.914 322.768,182.027 323.825,182.141 324.89,182.166 325.951,182.101 327.012,182.037 328.066,181.883 329.102,181.642 330.138,181.402 331.151,181.074 332.132,180.664 333.113,180.253 334.058,179.761 334.956,179.193 335.855,178.624 336.704,177.982 337.495,177.271 338.286,176.56 339.016,175.785 339.678,174.952 340.339,174.119 340.929,173.233 341.442,172.301 341.955,171.37 342.389,170.397 342.739,169.393 343.089,168.389 343.354,167.358 343.532,166.309 343.709,165.261 343.799,164.199 343.799,163.136 343.799,163.136 324.799,163.136 324.799,163.136"/>
<ellipse fill="none" stroke="black" cx="324.799" cy="163.136" rx="19" ry="19"/>
</g>
<!-- 52 -->
<g id="node53" class="node"><title>52</title>
<ellipse fill="olivedrab" stroke="black" cx="253.545" cy="184.035" rx="6" ry="6"/>
</g>
<!-- 40&#45;&gt;52 -->
<g id="edge59" class="edge"><title>40&#45;&gt;52</title>
<path fill="none" stroke="black" d="M306.449,168.518C290.945,173.065 269.681,179.302 259.478,182.295"/>
</g>
<!-- 55 -->
<g id="node56" class="node"><title>55</title>
<ellipse fill="olivedrab" stroke="black" cx="253.704" cy="129.238" rx="7.5" ry="7.5"/>
</g>
<!-- 40&#45;&gt;55 -->
<g id="edge60" class="edge"><title>40&#45;&gt;55</title>
<path fill="none" stroke="black" d="M307.589,154.93C292.466,147.72 271.245,137.601 260.505,132.48"/>
</g>
<!-- 56 -->
<g id="node57" class="node"><title>56</title>
<ellipse fill="olivedrab" stroke="black" cx="300.326" cy="105.652" rx="2.5" ry="2.5"/>
</g>
<!-- 40&#45;&gt;56 -->
<g id="edge61" class="edge"><title>40&#45;&gt;56</title>
<path fill="none" stroke="black" d="M317.323,145.577C311.588,132.105 304.2,114.751 301.435,108.257"/>
</g>
<!-- 57 -->
<g id="node58" class="node"><title>57</title>
<ellipse fill="olivedrab" stroke="black" cx="291.263" cy="220.335" rx="2.5" ry="2.5"/>
</g>
<!-- 40&#45;&gt;57 -->
<g id="edge62" class="edge"><title>40&#45;&gt;57</title>
<path fill="none" stroke="black" d="M315.099,179.681C307.051,193.406 296.345,211.666 292.614,218.031"/>
</g>
<!-- 58 -->
<g id="node59" class="node"><title>58</title>
<ellipse fill="olivedrab" stroke="black" cx="387.963" cy="168.976" rx="2.5" ry="2.5"/>
</g>
<!-- 40&#45;&gt;58 -->
<g id="edge63" class="edge"><title>40&#45;&gt;58</title>
<path fill="none" stroke="black" d="M343.75,164.888C358.576,166.259 377.849,168.041 385.067,168.708"/>
</g>
<!-- 60 -->
<g id="node61" class="node"><title>60</title>
<ellipse fill="olivedrab" stroke="black" cx="379.031" cy="207.611" rx="2.5" ry="2.5"/>
</g>
<!-- 40&#45;&gt;60 -->
<g id="edge68" class="edge"><title>40&#45;&gt;60</title>
<path fill="none" stroke="black" d="M339.618,175.289C352.665,185.988 370.529,200.639 376.77,205.757"/>
</g>
<!-- 61 -->
<g id="node62" class="node"><title>61</title>
<ellipse fill="olivedrab" stroke="black" cx="345.058" cy="228.853" rx="2.5" ry="2.5"/>
</g>
<!-- 40&#45;&gt;61 -->
<g id="edge69" class="edge"><title>40&#45;&gt;61</title>
<path fill="none" stroke="black" d="M330.442,181.442C335.313,197.241 341.918,218.666 344.223,226.144"/>
</g>
<!-- anon_40_59_0 -->
<g id="node80" class="node"><title>anon_40_59_0</title>
<ellipse fill="white" stroke="black" cx="363.485" cy="106.207" rx="1" ry="1"/>
</g>
<!-- 40&#45;&gt;anon_40_59_0 -->
<g id="edge64" class="edge"><title>40&#45;&gt;anon_40_59_0</title>
<path fill="none" stroke="black" d="M335.575,147.278C345.591,132.539 359.447,112.148 362.755,107.281"/>
</g>
<!-- 49 -->
<g id="node50" class="node"><title>49</title>
<ellipse fill="#1874cd" stroke="black" cx="155.473" cy="137.52" rx="3.5" ry="3.5"/>
</g>
<!-- 43&#45;&gt;49 -->
<g id="edge70" class="edge"><title>43&#45;&gt;49</title>
<path fill="none" stroke="black" d="M188.572,95.7738C185.484,99.1308 180.267,104.904 176.045,110.085 168.975,118.762 161.194,129.49 157.56,134.578"/>
</g>
<!-- anon_44_46_0 -->
<g id="node91" class="node"><title>anon_44_46_0</title>
<ellipse fill="white" stroke="black" cx="-123.302" cy="-21.2453" rx="1" ry="1"/>
</g>
<!-- 44&#45;&gt;anon_44_46_0 -->
<g id="edge89" class="edge"><title>44&#45;&gt;anon_44_46_0</title>
<path fill="none" stroke="black" stroke-dasharray="5,2" d="M-132.754,-60.3755C-130.364,-50.4843 -124.92,-27.9436 -123.596,-22.463"/>
</g>
<!-- 45 -->
<g id="node46" class="node"><title>45</title>
<ellipse fill="#1874cd" stroke="black" cx="-189.125" cy="-121.946" rx="2.5" ry="2.5"/>
</g>
<!-- 45&#45;&gt;62 -->
<g id="edge71" class="edge"><title>45&#45;&gt;62</title>
<path fill="none" stroke="black" d="M-186.408,-120.864C-178.349,-117.653 -154.777,-108.26 -149.01,-105.961"/>
</g>
<!-- 45&#45;&gt;63 -->
<g id="edge97" class="edge"><title>45&#45;&gt;63</title>
<path fill="none" stroke="black" stroke-dasharray="5,2" d="M-190.483,-119.745C-195.076,-112.305 -209.94,-88.2281 -213.584,-82.3251"/>
</g>
<!-- 46&#45;&gt;49 -->
<g id="edge98" class="edge"><title>46&#45;&gt;49</title>
<path fill="none" stroke="black" stroke-dasharray="5,2" d="M130.581,95.1541C135.876,104.167 148.767,126.108 153.601,134.334"/>
</g>
<!-- 48 -->
<g id="node49" class="node"><title>48</title>
<ellipse fill="#1874cd" stroke="black" cx="236.091" cy="61.0724" rx="2.5" ry="2.5"/>
</g>
<!-- anon_48_64_0 -->
<g id="node83" class="node"><title>anon_48_64_0</title>
<ellipse fill="white" stroke="black" cx="179.788" cy="51.6199" rx="1" ry="1"/>
</g>
<!-- 48&#45;&gt;anon_48_64_0 -->
<g id="edge72" class="edge"><title>48&#45;&gt;anon_48_64_0</title>
<path fill="none" stroke="black" d="M233.376,60.6165C223.183,58.9053 187.454,52.9068 180.844,51.7971"/>
</g>
<!-- 49&#45;&gt;65 -->
<g id="edge99" class="edge"><title>49&#45;&gt;65</title>
<path fill="none" stroke="black" stroke-dasharray="5,2" d="M152.654,139.863C146.038,145.362 129.773,158.88 125.81,162.173"/>
</g>
<!-- 50 -->
<g id="node51" class="node"><title>50</title>
<ellipse fill="#1874cd" stroke="black" cx="138.338" cy="205.802" rx="2.5" ry="2.5"/>
</g>
<!-- 50&#45;&gt;65 -->
<g id="edge74" class="edge"><title>50&#45;&gt;65</title>
<path fill="none" stroke="black" d="M137.539,203.247C135.014,195.166 127.253,170.34 125.352,164.26"/>
</g>
<!-- 51 -->
<g id="node52" class="node"><title>51</title>
<ellipse fill="olivedrab" stroke="black" cx="248.508" cy="231.749" rx="2.5" ry="2.5"/>
</g>
<!-- 51&#45;&gt;52 -->
<g id="edge75" class="edge"><title>51&#45;&gt;52</title>
<path fill="none" stroke="black" d="M248.779,229.184C249.555,221.828 251.805,200.521 252.913,190.024"/>
</g>
<!-- 51&#45;&gt;57 -->
<g id="edge100" class="edge"><title>51&#45;&gt;57</title>
<path fill="none" stroke="black" stroke-dasharray="5,2" d="M251.054,231.069C258.677,229.035 281.249,223.009 288.783,220.997"/>
</g>
<!-- 54 -->
<g id="node55" class="node"><title>54</title>
<ellipse fill="olivedrab" stroke="black" cx="211.163" cy="156.609" rx="3.5" ry="3.5"/>
</g>
<!-- 52&#45;&gt;54 -->
<g id="edge76" class="edge"><title>52&#45;&gt;54</title>
<path fill="none" stroke="black" d="M248.348,180.672C239.507,174.95 221.784,163.482 214.453,158.738"/>
</g>
<!-- 53 -->
<g id="node54" class="node"><title>53</title>
<ellipse fill="olivedrab" stroke="black" cx="55" cy="49" rx="2.5" ry="2.5"/>
</g>
<!-- 54&#45;&gt;55 -->
<g id="edge101" class="edge"><title>54&#45;&gt;55</title>
<path fill="none" stroke="black" stroke-dasharray="5,2" d="M214.223,154.641C221.081,150.228 237.814,139.462 247.145,133.458"/>
</g>
<!-- 59 -->
<g id="node60" class="node"><title>59</title>
<ellipse fill="olivedrab" stroke="black" cx="421.609" cy="0.801779" rx="2.5" ry="2.5"/>
</g>
<!-- anon_62_64_0 -->
<g id="node98" class="node"><title>anon_62_64_0</title>
<ellipse fill="white" stroke="black" cx="-107.861" cy="-111.952" rx="1" ry="1"/>
</g>
<!-- 62&#45;&gt;anon_62_64_0 -->
<g id="edge102" class="edge"><title>62&#45;&gt;anon_62_64_0</title>
<path fill="none" stroke="black" stroke-dasharray="5,2" d="M-146.399,-105.666C-140.347,-106.653 -115.381,-110.725 -109.234,-111.728"/>
</g>
<!-- anon_0_6_0&#45;&gt;6 -->
<g id="edge5" class="edge"><title>anon_0_6_0&#45;&gt;6</title>
<path fill="none" stroke="black" d="M322.039,-230.187C327.54,-228.988 352.782,-223.485 361.297,-221.628"/>
</g>
<!-- anon_0_15_1 -->
<g id="node69" class="node"><title>anon_0_15_1</title>
<ellipse fill="white" stroke="black" cx="215.126" cy="-371.053" rx="1" ry="1"/>
</g>
<!-- anon_0_15_0&#45;&gt;anon_0_15_1 -->
<g id="edge13" class="edge"><title>anon_0_15_0&#45;&gt;anon_0_15_1</title>
<path fill="none" stroke="black" d="M223.292,-330.637C222.164,-336.221 216.758,-362.976 215.424,-369.578"/>
</g>
<!-- anon_0_15_2 -->
<g id="node70" class="node"><title>anon_0_15_2</title>
<ellipse fill="white" stroke="black" cx="211.157" cy="-411.077" rx="1" ry="1"/>
</g>
<!-- anon_0_15_1&#45;&gt;anon_0_15_2 -->
<g id="edge14" class="edge"><title>anon_0_15_1&#45;&gt;anon_0_15_2</title>
<path fill="none" stroke="black" d="M214.994,-372.384C214.392,-378.461 211.906,-403.527 211.294,-409.699"/>
</g>
<!-- anon_0_15_2&#45;&gt;15 -->
<g id="edge15" class="edge"><title>anon_0_15_2&#45;&gt;15</title>
<path fill="none" stroke="black" d="M211.268,-412.082C211.841,-417.269 214.468,-441.069 215.354,-449.098"/>
</g>
<!-- anon_2_25_0&#45;&gt;25 -->
<g id="edge26" class="edge"><title>anon_2_25_0&#45;&gt;25</title>
<path fill="none" stroke="black" d="M-30.4093,-347.732C-25.3489,-345.307 -2.12946,-334.18 5.70274,-330.427"/>
</g>
<!-- anon_4_16_0&#45;&gt;16 -->
<g id="edge31" class="edge"><title>anon_4_16_0&#45;&gt;16</title>
<path fill="none" stroke="black" d="M-103.469,-250.434C-102.179,-245.27 -96.2564,-221.571 -94.2588,-213.577"/>
</g>
<!-- anon_31_37_1 -->
<g id="node74" class="node"><title>anon_31_37_1</title>
<ellipse fill="white" stroke="black" cx="1.17542" cy="-184.612" rx="1" ry="1"/>
</g>
<!-- anon_31_37_0&#45;&gt;anon_31_37_1 -->
<g id="edge37" class="edge"><title>anon_31_37_0&#45;&gt;anon_31_37_1</title>
<path fill="none" stroke="black" d="M-47.934,-178.405C-40.9068,-179.293 -6.28338,-183.669 0.146761,-184.482"/>
</g>
<!-- anon_31_37_2 -->
<g id="node75" class="node"><title>anon_31_37_2</title>
<ellipse fill="white" stroke="black" cx="51.1043" cy="-175.927" rx="1" ry="1"/>
</g>
<!-- anon_31_37_1&#45;&gt;anon_31_37_2 -->
<g id="edge38" class="edge"><title>anon_31_37_1&#45;&gt;anon_31_37_2</title>
<path fill="none" stroke="black" d="M2.40963,-184.397C9.37746,-183.185 43.7085,-177.214 50.0844,-176.105"/>
</g>
<!-- anon_31_37_3 -->
<g id="node76" class="node"><title>anon_31_37_3</title>
<ellipse fill="white" stroke="black" cx="96.3458" cy="-154.162" rx="1" ry="1"/>
</g>
<!-- anon_31_37_2&#45;&gt;anon_31_37_3 -->
<g id="edge39" class="edge"><title>anon_31_37_2&#45;&gt;anon_31_37_3</title>
<path fill="none" stroke="black" d="M52.2227,-175.389C58.5363,-172.352 89.6443,-157.386 95.4216,-154.607"/>
</g>
<!-- anon_31_37_4 -->
<g id="node77" class="node"><title>anon_31_37_4</title>
<ellipse fill="white" stroke="black" cx="133.309" cy="-121.216" rx="1" ry="1"/>
</g>
<!-- anon_31_37_3&#45;&gt;anon_31_37_4 -->
<g id="edge40" class="edge"><title>anon_31_37_3&#45;&gt;anon_31_37_4</title>
<path fill="none" stroke="black" d="M97.2595,-153.348C102.418,-148.75 127.834,-126.097 132.554,-121.889"/>
</g>
<!-- anon_31_37_5 -->
<g id="node78" class="node"><title>anon_31_37_5</title>
<ellipse fill="white" stroke="black" cx="157.635" cy="-79.3003" rx="1" ry="1"/>
</g>
<!-- anon_31_37_4&#45;&gt;anon_31_37_5 -->
<g id="edge41" class="edge"><title>anon_31_37_4&#45;&gt;anon_31_37_5</title>
<path fill="none" stroke="black" d="M133.91,-120.18C137.188,-114.532 152.894,-87.4696 156.769,-80.7921"/>
</g>
<!-- anon_31_37_6 -->
<g id="node79" class="node"><title>anon_31_37_6</title>
<ellipse fill="white" stroke="black" cx="164.438" cy="-31.9664" rx="1" ry="1"/>
</g>
<!-- anon_31_37_5&#45;&gt;anon_31_37_6 -->
<g id="edge42" class="edge"><title>anon_31_37_5&#45;&gt;anon_31_37_6</title>
<path fill="none" stroke="black" d="M157.803,-78.1303C158.736,-71.6385 163.27,-40.0924 164.251,-33.2694"/>
</g>
<!-- anon_31_37_6&#45;&gt;37 -->
<g id="edge43" class="edge"><title>anon_31_37_6&#45;&gt;37</title>
<path fill="none" stroke="black" d="M164.453,-30.9177C164.538,-24.9628 164.962,4.85844 165.175,19.8392"/>
</g>
<!-- anon_40_59_1 -->
<g id="node81" class="node"><title>anon_40_59_1</title>
<ellipse fill="white" stroke="black" cx="387.988" cy="73.1048" rx="1" ry="1"/>
</g>
<!-- anon_40_59_0&#45;&gt;anon_40_59_1 -->
<g id="edge65" class="edge"><title>anon_40_59_0&#45;&gt;anon_40_59_1</title>
<path fill="none" stroke="black" d="M364.091,105.389C367.392,100.928 383.212,79.5563 387.116,74.2829"/>
</g>
<!-- anon_40_59_2 -->
<g id="node82" class="node"><title>anon_40_59_2</title>
<ellipse fill="white" stroke="black" cx="409.558" cy="39.6915" rx="1" ry="1"/>
</g>
<!-- anon_40_59_1&#45;&gt;anon_40_59_2 -->
<g id="edge66" class="edge"><title>anon_40_59_1&#45;&gt;anon_40_59_2</title>
<path fill="none" stroke="black" d="M388.915,71.6691C392.527,66.073 405.623,45.7872 408.84,40.8032"/>
</g>
<!-- anon_40_59_2&#45;&gt;59 -->
<g id="edge67" class="edge"><title>anon_40_59_2&#45;&gt;59</title>
<path fill="none" stroke="black" d="M409.856,38.7301C411.393,33.7708 418.445,11.0144 420.823,3.33844"/>
</g>
<!-- anon_48_64_0&#45;&gt;64 -->
<g id="edge73" class="edge"><title>anon_48_64_0&#45;&gt;64</title>
<path fill="none" stroke="black" d="M178.497,51.5339C171.21,51.0487 135.307,48.6581 128.639,48.2141"/>
</g>
<!-- anon_33_34_1 -->
<g id="node85" class="node"><title>anon_33_34_1</title>
<ellipse fill="white" stroke="black" cx="-168.178" cy="55.9461" rx="1" ry="1"/>
</g>
<!-- anon_33_34_0&#45;&gt;anon_33_34_1 -->
<g id="edge79" class="edge"><title>anon_33_34_0&#45;&gt;anon_33_34_1</title>
<path fill="none" stroke="black" stroke-dasharray="5,2" d="M-182.154,7.77248C-180.154,14.6657 -170.301,48.6294 -168.471,54.937"/>
</g>
<!-- anon_33_34_2 -->
<g id="node86" class="node"><title>anon_33_34_2</title>
<ellipse fill="white" stroke="black" cx="-137.836" cy="98.5264" rx="1" ry="1"/>
</g>
<!-- anon_33_34_1&#45;&gt;anon_33_34_2 -->
<g id="edge80" class="edge"><title>anon_33_34_1&#45;&gt;anon_33_34_2</title>
<path fill="none" stroke="black" stroke-dasharray="5,2" d="M-167.428,56.9986C-163.194,62.9409 -142.33,92.2191 -138.456,97.6565"/>
</g>
<!-- anon_33_34_3 -->
<g id="node87" class="node"><title>anon_33_34_3</title>
<ellipse fill="white" stroke="black" cx="-96.6062" cy="130.703" rx="1" ry="1"/>
</g>
<!-- anon_33_34_2&#45;&gt;anon_33_34_3 -->
<g id="edge81" class="edge"><title>anon_33_34_2&#45;&gt;anon_33_34_3</title>
<path fill="none" stroke="black" stroke-dasharray="5,2" d="M-136.817,99.3218C-131.063,103.812 -102.713,125.937 -97.4485,130.046"/>
</g>
<!-- anon_33_34_4 -->
<g id="node88" class="node"><title>anon_33_34_4</title>
<ellipse fill="white" stroke="black" cx="-48.7917" cy="150.668" rx="1" ry="1"/>
</g>
<!-- anon_33_34_3&#45;&gt;anon_33_34_4 -->
<g id="edge82" class="edge"><title>anon_33_34_3&#45;&gt;anon_33_34_4</title>
<path fill="none" stroke="black" stroke-dasharray="5,2" d="M-95.4243,131.197C-88.7515,133.983 -55.8743,147.711 -49.7685,150.26"/>
</g>
<!-- anon_33_34_5 -->
<g id="node89" class="node"><title>anon_33_34_5</title>
<ellipse fill="white" stroke="black" cx="1.92632" cy="156.138" rx="1" ry="1"/>
</g>
<!-- anon_33_34_4&#45;&gt;anon_33_34_5 -->
<g id="edge83" class="edge"><title>anon_33_34_4&#45;&gt;anon_33_34_5</title>
<path fill="none" stroke="black" stroke-dasharray="5,2" d="M-47.538,150.804C-40.46,151.567 -5.58637,155.328 0.890226,156.027"/>
</g>
<!-- anon_33_34_6 -->
<g id="node90" class="node"><title>anon_33_34_6</title>
<ellipse fill="white" stroke="black" cx="50.2833" cy="144.41" rx="1" ry="1"/>
</g>
<!-- anon_33_34_5&#45;&gt;anon_33_34_6 -->
<g id="edge84" class="edge"><title>anon_33_34_5&#45;&gt;anon_33_34_6</title>
<path fill="none" stroke="black" stroke-dasharray="5,2" d="M3.12167,155.848C9.87012,154.212 43.1203,146.147 49.2954,144.649"/>
</g>
<!-- anon_33_34_6&#45;&gt;34 -->
<g id="edge85" class="edge"><title>anon_33_34_6&#45;&gt;34</title>
<path fill="none" stroke="black" stroke-dasharray="5,2" d="M51.1493,143.87C56.2223,140.71 82.269,124.485 94.1998,117.053"/>
</g>
<!-- anon_44_46_1 -->
<g id="node92" class="node"><title>anon_44_46_1</title>
<ellipse fill="white" stroke="black" cx="-109.711" cy="19.1059" rx="1" ry="1"/>
</g>
<!-- anon_44_46_0&#45;&gt;anon_44_46_1 -->
<g id="edge90" class="edge"><title>anon_44_46_0&#45;&gt;anon_44_46_1</title>
<path fill="none" stroke="black" stroke-dasharray="5,2" d="M-122.966,-20.2478C-121.135,-14.8108 -112.36,11.2417 -110.194,17.6698"/>
</g>
<!-- anon_44_46_2 -->
<g id="node93" class="node"><title>anon_44_46_2</title>
<ellipse fill="white" stroke="black" cx="-85.7682" cy="55.1454" rx="1" ry="1"/>
</g>
<!-- anon_44_46_1&#45;&gt;anon_44_46_2 -->
<g id="edge91" class="edge"><title>anon_44_46_1&#45;&gt;anon_44_46_2</title>
<path fill="none" stroke="black" stroke-dasharray="5,2" d="M-109.119,19.9968C-105.893,24.8529 -90.4345,48.1215 -86.6204,53.8627"/>
</g>
<!-- anon_44_46_3 -->
<g id="node94" class="node"><title>anon_44_46_3</title>
<ellipse fill="white" stroke="black" cx="-51.7806" cy="82.0584" rx="1" ry="1"/>
</g>
<!-- anon_44_46_2&#45;&gt;anon_44_46_3 -->
<g id="edge92" class="edge"><title>anon_44_46_2&#45;&gt;anon_44_46_3</title>
<path fill="none" stroke="black" stroke-dasharray="5,2" d="M-84.9281,55.8107C-80.3485,59.437 -58.4046,76.8132 -52.9902,81.1005"/>
</g>
<!-- anon_44_46_4 -->
<g id="node95" class="node"><title>anon_44_46_4</title>
<ellipse fill="white" stroke="black" cx="-10.4067" cy="95.5388" rx="1" ry="1"/>
</g>
<!-- anon_44_46_3&#45;&gt;anon_44_46_4 -->
<g id="edge93" class="edge"><title>anon_44_46_3&#45;&gt;anon_44_46_4</title>
<path fill="none" stroke="black" stroke-dasharray="5,2" d="M-50.7579,82.3916C-45.183,84.208 -18.4703,92.9115 -11.8792,95.059"/>
</g>
<!-- anon_44_46_5 -->
<g id="node96" class="node"><title>anon_44_46_5</title>
<ellipse fill="white" stroke="black" cx="33.4282" cy="96.6441" rx="1" ry="1"/>
</g>
<!-- anon_44_46_4&#45;&gt;anon_44_46_5 -->
<g id="edge94" class="edge"><title>anon_44_46_4&#45;&gt;anon_44_46_5</title>
<path fill="none" stroke="black" stroke-dasharray="5,2" d="M-9.32315,95.5661C-3.41672,95.715 24.8849,96.4286 31.8681,96.6047"/>
</g>
<!-- anon_44_46_6 -->
<g id="node97" class="node"><title>anon_44_46_6</title>
<ellipse fill="white" stroke="black" cx="77.1634" cy="89.9969" rx="1" ry="1"/>
</g>
<!-- anon_44_46_5&#45;&gt;anon_44_46_6 -->
<g id="edge95" class="edge"><title>anon_44_46_5&#45;&gt;anon_44_46_6</title>
<path fill="none" stroke="black" stroke-dasharray="5,2" d="M34.5093,96.4797C40.4023,95.5841 68.6396,91.2924 75.6068,90.2335"/>
</g>
<!-- anon_44_46_6&#45;&gt;46 -->
<g id="edge96" class="edge"><title>anon_44_46_6&#45;&gt;46</title>
<path fill="none" stroke="black" stroke-dasharray="5,2" d="M78.4265,90.0268C84.6967,90.1751 112.619,90.8354 123.704,91.0976"/>
</g>
<!-- anon_62_64_1 -->
<g id="node99" class="node"><title>anon_62_64_1</title>
<ellipse fill="white" stroke="black" cx="-63.8889" cy="-114.202" rx="1" ry="1"/>
</g>
<!-- anon_62_64_0&#45;&gt;anon_62_64_1 -->
<g id="edge103" class="edge"><title>anon_62_64_0&#45;&gt;anon_62_64_1</title>
<path fill="none" stroke="black" stroke-dasharray="5,2" d="M-106.774,-112.008C-100.85,-112.311 -72.459,-113.764 -65.454,-114.122"/>
</g>
<!-- anon_62_64_2 -->
<g id="node100" class="node"><title>anon_62_64_2</title>
<ellipse fill="white" stroke="black" cx="-20.6485" cy="-104.829" rx="1" ry="1"/>
</g>
<!-- anon_62_64_1&#45;&gt;anon_62_64_2 -->
<g id="edge104" class="edge"><title>anon_62_64_1&#45;&gt;anon_62_64_2</title>
<path fill="none" stroke="black" stroke-dasharray="5,2" d="M-62.8201,-113.97C-56.9937,-112.707 -29.0759,-106.656 -22.1874,-105.163"/>
</g>
<!-- anon_62_64_3 -->
<g id="node101" class="node"><title>anon_62_64_3</title>
<ellipse fill="white" stroke="black" cx="19.4854" cy="-86.3717" rx="1" ry="1"/>
</g>
<!-- anon_62_64_2&#45;&gt;anon_62_64_3 -->
<g id="edge105" class="edge"><title>anon_62_64_2&#45;&gt;anon_62_64_3</title>
<path fill="none" stroke="black" stroke-dasharray="5,2" d="M-19.6564,-104.373C-14.2486,-101.886 11.6635,-89.969 18.057,-87.0286"/>
</g>
<!-- anon_62_64_4 -->
<g id="node102" class="node"><title>anon_62_64_4</title>
<ellipse fill="white" stroke="black" cx="53.4755" cy="-58.6976" rx="1" ry="1"/>
</g>
<!-- anon_62_64_3&#45;&gt;anon_62_64_4 -->
<g id="edge106" class="edge"><title>anon_62_64_3&#45;&gt;anon_62_64_4</title>
<path fill="none" stroke="black" stroke-dasharray="5,2" d="M20.3256,-85.6876C24.9056,-81.9587 46.851,-64.0911 52.2658,-59.6825"/>
</g>
<!-- anon_62_64_5 -->
<g id="node103" class="node"><title>anon_62_64_5</title>
<ellipse fill="white" stroke="black" cx="80.3865" cy="-24.219" rx="1" ry="1"/>
</g>
<!-- anon_62_64_4&#45;&gt;anon_62_64_5 -->
<g id="edge107" class="edge"><title>anon_62_64_4&#45;&gt;anon_62_64_5</title>
<path fill="none" stroke="black" stroke-dasharray="5,2" d="M54.1407,-57.8453C57.7668,-53.1995 75.1417,-30.9388 79.4288,-25.4462"/>
</g>
<!-- anon_62_64_6 -->
<g id="node104" class="node"><title>anon_62_64_6</title>
<ellipse fill="white" stroke="black" cx="103.01" cy="12.9897" rx="1" ry="1"/>
</g>
<!-- anon_62_64_5&#45;&gt;anon_62_64_6 -->
<g id="edge108" class="edge"><title>anon_62_64_5&#45;&gt;anon_62_64_6</title>
<path fill="none" stroke="black" stroke-dasharray="5,2" d="M80.9458,-23.2993C83.9942,-18.2857 98.6009,5.73783 102.205,11.6654"/>
</g>
<!-- anon_62_64_6&#45;&gt;64 -->
<g id="edge109" class="edge"><title>anon_62_64_6&#45;&gt;64</title>
<path fill="none" stroke="black" stroke-dasharray="5,2" d="M103.617,13.8586C106.927,18.5953 122.785,41.2918 126.698,46.892"/>
</g>
</g>
</svg>
