<?xml version="1.0" encoding="UTF-8" standalone="no"?>
<!DOCTYPE svg PUBLIC "-//W3C//DTD SVG 1.1//EN"
 "http://www.w3.org/Graphics/SVG/1.1/DTD/svg11.dtd">
<!-- Generated by graphviz version 2.38.0 (20140413.2041)
 -->
<!-- Title: %3 Pages: 1 -->
<svg width="653pt" height="783pt"
 viewBox="0.00 0.00 653.00 782.67" xmlns="http://www.w3.org/2000/svg" xmlns:xlink="http://www.w3.org/1999/xlink">
<g id="graph0" class="graph" transform="scale(1 1) rotate(0) translate(219.674 538.975)">
<title>%3</title>
<polygon fill="white" stroke="none" points="-219.674,243.697 -219.674,-538.975 433.33,-538.975 433.33,243.697 -219.674,243.697"/>
<!-- 0 -->
<g id="node1" class="node"><title>0</title>
<ellipse fill="grey" stroke="black" cx="217.538" cy="-190.805" rx="41" ry="41"/>
</g>
<!-- 4 -->
<g id="node5" class="node"><title>4</title>
<ellipse fill="grey" stroke="black" cx="272.723" cy="-79.9741" rx="13" ry="13"/>
</g>
<!-- 0&#45;&#45;4 -->
<g id="edge1" class="edge"><title>0&#45;&#45;4</title>
<path fill="none" stroke="black" d="M235.914,-153.9C246.7,-132.238 259.608,-106.313 266.918,-91.632"/>
</g>
<!-- 23 -->
<g id="node24" class="node"><title>23</title>
<ellipse fill="grey" stroke="black" cx="183.061" cy="-260.731" rx="3.5" ry="3.5"/>
</g>
<!-- 0&#45;&#45;23 -->
<g id="edge2" class="edge"><title>0&#45;&#45;23</title>
<path fill="none" stroke="black" d="M199.29,-227.816C193.346,-239.871 187.562,-251.601 184.779,-257.246"/>
</g>
<!-- 43 -->
<g id="node44" class="node"><title>43</title>
<ellipse fill="grey" stroke="black" cx="273.773" cy="-155.701" rx="3.5" ry="3.5"/>
</g>
<!-- 0&#45;&#45;43 -->
<g id="edge5" class="edge"><title>0&#45;&#45;43</title>
<path fill="none" stroke="black" d="M252.513,-168.972C260.018,-164.288 266.829,-160.036 270.624,-157.667"/>
</g>
<!-- anon_0_41_0 -->
<g id="node63" class="node"><title>anon_0_41_0</title>
<ellipse fill="white" stroke="black" cx="151.887" cy="-113.254" rx="2.5" ry="2.5"/>
</g>
<!-- 0&#45;&#45;anon_0_41_0 -->
<g id="edge3" class="edge"><title>0&#45;&#45;anon_0_41_0</title>
<path fill="none" stroke="black" d="M190.835,-159.262C175.783,-141.482 158.951,-121.598 153.609,-115.288"/>
</g>
<!-- 1 -->
<g id="node2" class="node"><title>1</title>
<ellipse fill="grey" stroke="black" cx="317.916" cy="129.307" rx="33" ry="33"/>
</g>
<!-- 10 -->
<g id="node11" class="node"><title>10</title>
<ellipse fill="grey" stroke="black" cx="420.33" cy="160.122" rx="9" ry="9"/>
</g>
<!-- 1&#45;&#45;10 -->
<g id="edge6" class="edge"><title>1&#45;&#45;10</title>
<path fill="none" stroke="black" d="M349.759,138.888C371.133,145.319 397.785,153.338 411.407,157.437"/>
</g>
<!-- 19 -->
<g id="node20" class="node"><title>19</title>
<ellipse fill="grey" stroke="black" cx="236.277" cy="195.222" rx="5" ry="5"/>
</g>
<!-- 1&#45;&#45;19 -->
<g id="edge7" class="edge"><title>1&#45;&#45;19</title>
<path fill="none" stroke="black" d="M292.085,150.162C273.399,165.249 249.847,184.265 240.437,191.862"/>
</g>
<!-- 20 -->
<g id="node21" class="node"><title>20</title>
<ellipse fill="grey" stroke="black" cx="381.085" cy="85.6896" rx="5" ry="5"/>
</g>
<!-- 1&#45;&#45;20 -->
<g id="edge8" class="edge"><title>1&#45;&#45;20</title>
<path fill="none" stroke="black" d="M345.072,110.556C357.11,102.244 370.024,93.327 376.63,88.7653"/>
</g>
<!-- 25 -->
<g id="node26" class="node"><title>25</title>
<ellipse fill="grey" stroke="black" cx="291.673" cy="72.8781" rx="3.5" ry="3.5"/>
</g>
<!-- 1&#45;&#45;25 -->
<g id="edge9" class="edge"><title>1&#45;&#45;25</title>
<path fill="none" stroke="black" d="M303.873,99.11C299.583,89.8863 295.426,80.9465 293.246,76.2599"/>
</g>
<!-- 30 -->
<g id="node31" class="node"><title>30</title>
<ellipse fill="grey" stroke="black" cx="276.329" cy="175.159" rx="3.5" ry="3.5"/>
</g>
<!-- 1&#45;&#45;30 -->
<g id="edge10" class="edge"><title>1&#45;&#45;30</title>
<path fill="none" stroke="black" d="M295.662,153.844C288.864,161.339 282.275,168.603 278.821,172.411"/>
</g>
<!-- 31 -->
<g id="node32" class="node"><title>31</title>
<ellipse fill="grey" stroke="black" cx="375.986" cy="163.788" rx="3.5" ry="3.5"/>
</g>
<!-- 1&#45;&#45;31 -->
<g id="edge11" class="edge"><title>1&#45;&#45;31</title>
<path fill="none" stroke="black" d="M346.611,146.345C357.126,152.589 367.701,158.868 372.818,161.906"/>
</g>
<!-- 32 -->
<g id="node33" class="node"><title>32</title>
<ellipse fill="grey" stroke="black" cx="298.656" cy="217.224" rx="3.5" ry="3.5"/>
</g>
<!-- 1&#45;&#45;32 -->
<g id="edge12" class="edge"><title>1&#45;&#45;32</title>
<path fill="none" stroke="black" d="M310.854,161.545C306.473,181.54 301.328,205.025 299.419,213.74"/>
</g>
<!-- 36 -->
<g id="node37" class="node"><title>36</title>
<ellipse fill="grey" stroke="black" cx="373.21" cy="205.055" rx="3.5" ry="3.5"/>
</g>
<!-- 1&#45;&#45;36 -->
<g id="edge13" class="edge"><title>1&#45;&#45;36</title>
<path fill="none" stroke="black" d="M337.567,156.226C350.231,173.576 365.346,194.281 370.963,201.977"/>
</g>
<!-- 38 -->
<g id="node39" class="node"><title>38</title>
<ellipse fill="grey" stroke="black" cx="336.131" cy="216.509" rx="3.5" ry="3.5"/>
</g>
<!-- 1&#45;&#45;38 -->
<g id="edge14" class="edge"><title>1&#45;&#45;38</title>
<path fill="none" stroke="black" d="M324.699,161.778C328.785,181.341 333.541,204.108 335.365,212.842"/>
</g>
<!-- 42 -->
<g id="node43" class="node"><title>42</title>
<ellipse fill="grey" stroke="black" cx="243.396" cy="132.693" rx="3.5" ry="3.5"/>
</g>
<!-- 1&#45;&#45;42 -->
<g id="edge15" class="edge"><title>1&#45;&#45;42</title>
<path fill="none" stroke="black" d="M284.579,130.821C269.698,131.497 253.973,132.212 247.04,132.527"/>
</g>
<!-- 47 -->
<g id="node48" class="node"><title>47</title>
<ellipse fill="grey" stroke="black" cx="403.343" cy="115.347" rx="3.5" ry="3.5"/>
</g>
<!-- 1&#45;&#45;47 -->
<g id="edge16" class="edge"><title>1&#45;&#45;47</title>
<path fill="none" stroke="black" d="M350.7,123.949C369.521,120.874 391.065,117.353 399.59,115.96"/>
</g>
<!-- 57 -->
<g id="node58" class="node"><title>57</title>
<ellipse fill="grey" stroke="black" cx="315.135" cy="43.1737" rx="3.5" ry="3.5"/>
</g>
<!-- 1&#45;&#45;57 -->
<g id="edge17" class="edge"><title>1&#45;&#45;57</title>
<path fill="none" stroke="black" d="M316.849,96.2517C316.236,77.2752 315.535,55.5533 315.258,46.958"/>
</g>
<!-- anon_1_58_0 -->
<g id="node64" class="node"><title>anon_1_58_0</title>
<ellipse fill="white" stroke="black" cx="235.581" cy="72.3618" rx="2.5" ry="2.5"/>
</g>
<!-- 1&#45;&#45;anon_1_58_0 -->
<g id="edge18" class="edge"><title>1&#45;&#45;anon_1_58_0</title>
<path fill="none" stroke="black" d="M290.5,110.345C270.291,96.3678 245.087,78.9363 237.704,73.8302"/>
</g>
<!-- 2 -->
<g id="node3" class="node"><title>2</title>
<ellipse fill="grey" stroke="black" cx="-38.1537" cy="-40.7864" rx="26.5" ry="26.5"/>
</g>
<!-- 24 -->
<g id="node25" class="node"><title>24</title>
<ellipse fill="grey" stroke="black" cx="-65.8108" cy="-108.121" rx="3.5" ry="3.5"/>
</g>
<!-- 2&#45;&#45;24 -->
<g id="edge22" class="edge"><title>2&#45;&#45;24</title>
<path fill="none" stroke="black" d="M-48.2951,-65.4769C-54.3385,-80.1901 -61.3953,-97.3708 -64.3712,-104.616"/>
</g>
<!-- 33 -->
<g id="node34" class="node"><title>33</title>
<ellipse fill="grey" stroke="black" cx="-108.24" cy="-77.805" rx="3.5" ry="3.5"/>
</g>
<!-- 2&#45;&#45;33 -->
<g id="edge23" class="edge"><title>2&#45;&#45;33</title>
<path fill="none" stroke="black" d="M-61.8819,-53.3192C-77.7668,-61.7093 -97.1266,-71.9348 -104.836,-76.007"/>
</g>
<!-- 40 -->
<g id="node41" class="node"><title>40</title>
<ellipse fill="grey" stroke="black" cx="-116.254" cy="-24.7049" rx="3.5" ry="3.5"/>
</g>
<!-- 2&#45;&#45;40 -->
<g id="edge24" class="edge"><title>2&#45;&#45;40</title>
<path fill="none" stroke="black" d="M-64.1601,-35.4315C-82.0872,-31.7402 -104.158,-27.1956 -112.671,-25.4426"/>
</g>
<!-- anon_2_50_0 -->
<g id="node67" class="node"><title>anon_2_50_0</title>
<ellipse fill="white" stroke="black" cx="20.3666" cy="-92.9005" rx="2.5" ry="2.5"/>
</g>
<!-- 2&#45;&#45;anon_2_50_0 -->
<g id="edge25" class="edge"><title>2&#45;&#45;anon_2_50_0</title>
<path fill="none" stroke="black" d="M-18.3414,-58.4298C-4.54743,-70.7138 12.3847,-85.7923 18.2493,-91.0149"/>
</g>
<!-- 3 -->
<g id="node4" class="node"><title>3</title>
<ellipse fill="grey" stroke="black" cx="-197.005" cy="29.3556" rx="18.5" ry="18.5"/>
</g>
<!-- 13 -->
<g id="node14" class="node"><title>13</title>
<ellipse fill="grey" stroke="black" cx="-174.834" cy="-27.3424" rx="6" ry="6"/>
</g>
<!-- 3&#45;&#45;13 -->
<g id="edge29" class="edge"><title>3&#45;&#45;13</title>
<path fill="none" stroke="black" d="M-190.232,12.0362C-185.75,0.572978 -180.152,-13.7408 -177.092,-21.5675"/>
</g>
<!-- anon_4_35_0 -->
<g id="node70" class="node"><title>anon_4_35_0</title>
<ellipse fill="white" stroke="black" cx="265.793" cy="-23.1529" rx="2.5" ry="2.5"/>
</g>
<!-- 4&#45;&#45;anon_4_35_0 -->
<g id="edge30" class="edge"><title>4&#45;&#45;anon_4_35_0</title>
<path fill="none" stroke="black" d="M271.116,-66.7954C269.452,-53.1571 266.978,-32.8701 266.109,-25.742"/>
</g>
<!-- 5 -->
<g id="node6" class="node"><title>5</title>
<ellipse fill="grey" stroke="black" cx="-100.571" cy="-318.804" rx="12" ry="12"/>
</g>
<!-- 12 -->
<g id="node13" class="node"><title>12</title>
<ellipse fill="grey" stroke="black" cx="-125.786" cy="-255.726" rx="7" ry="7"/>
</g>
<!-- 5&#45;&#45;12 -->
<g id="edge32" class="edge"><title>5&#45;&#45;12</title>
<path fill="none" stroke="black" d="M-105.079,-307.527C-110.349,-294.345 -118.892,-272.972 -123.17,-262.27"/>
</g>
<!-- 18 -->
<g id="node19" class="node"><title>18</title>
<ellipse fill="grey" stroke="black" cx="-107.33" cy="-383.116" rx="5" ry="5"/>
</g>
<!-- 5&#45;&#45;18 -->
<g id="edge33" class="edge"><title>5&#45;&#45;18</title>
<path fill="none" stroke="black" d="M-101.842,-330.901C-103.326,-345.018 -105.713,-367.725 -106.782,-377.896"/>
</g>
<!-- anon_5_29_0 -->
<g id="node71" class="node"><title>anon_5_29_0</title>
<ellipse fill="white" stroke="black" cx="-74.053" cy="-265.015" rx="2.5" ry="2.5"/>
</g>
<!-- 5&#45;&#45;anon_5_29_0 -->
<g id="edge34" class="edge"><title>5&#45;&#45;anon_5_29_0</title>
<path fill="none" stroke="black" d="M-95.2048,-307.919C-88.909,-295.149 -78.8804,-274.807 -75.341,-267.627"/>
</g>
<!-- 6 -->
<g id="node7" class="node"><title>6</title>
<ellipse fill="grey" stroke="black" cx="106.493" cy="-241.107" rx="11.5" ry="11.5"/>
</g>
<!-- 6&#45;&#45;0 -->
<g id="edge36" class="edge"><title>6&#45;&#45;0</title>
<path fill="none" stroke="black" d="M117.14,-236.284C131.471,-229.792 157.716,-217.903 179.778,-207.909"/>
</g>
<!-- 49 -->
<g id="node50" class="node"><title>49</title>
<ellipse fill="grey" stroke="black" cx="51.3405" cy="-226.214" rx="3.5" ry="3.5"/>
</g>
<!-- 6&#45;&#45;49 -->
<g id="edge37" class="edge"><title>6&#45;&#45;49</title>
<path fill="none" stroke="black" d="M95.3319,-238.093C82.7415,-234.693 62.9734,-229.355 54.9273,-227.183"/>
</g>
<!-- 7 -->
<g id="node8" class="node"><title>7</title>
<ellipse fill="grey" stroke="black" cx="93.342" cy="205.219" rx="11" ry="11"/>
</g>
<!-- 21 -->
<g id="node22" class="node"><title>21</title>
<ellipse fill="grey" stroke="black" cx="63.7927" cy="161.541" rx="5" ry="5"/>
</g>
<!-- 7&#45;&#45;21 -->
<g id="edge38" class="edge"><title>7&#45;&#45;21</title>
<path fill="none" stroke="black" d="M87.0754,195.956C80.841,186.741 71.5406,172.994 66.8023,165.99"/>
</g>
<!-- 8 -->
<g id="node9" class="node"><title>8</title>
<ellipse fill="grey" stroke="black" cx="-49.8669" cy="-524.975" rx="10" ry="10"/>
</g>
<!-- 14 -->
<g id="node15" class="node"><title>14</title>
<ellipse fill="grey" stroke="black" cx="-78.9037" cy="-476.678" rx="6" ry="6"/>
</g>
<!-- 8&#45;&#45;14 -->
<g id="edge39" class="edge"><title>8&#45;&#45;14</title>
<path fill="none" stroke="black" d="M-55.1927,-516.116C-61.2178,-506.095 -70.8309,-490.105 -75.7617,-481.904"/>
</g>
<!-- 9 -->
<g id="node10" class="node"><title>9</title>
<ellipse fill="grey" stroke="black" cx="42.2262" cy="115.114" rx="9" ry="9"/>
</g>
<!-- 11 -->
<g id="node12" class="node"><title>11</title>
<ellipse fill="grey" stroke="black" cx="-162.854" cy="-77.2082" rx="9" ry="9"/>
</g>
<!-- anon_11_39_0 -->
<g id="node72" class="node"><title>anon_11_39_0</title>
<ellipse fill="white" stroke="black" cx="-157.645" cy="-124.454" rx="2.5" ry="2.5"/>
</g>
<!-- 11&#45;&#45;anon_11_39_0 -->
<g id="edge40" class="edge"><title>11&#45;&#45;anon_11_39_0</title>
<path fill="none" stroke="black" d="M-161.85,-86.3176C-160.644,-97.258 -158.69,-114.979 -157.946,-121.727"/>
</g>
<!-- 13&#45;&#45;11 -->
<g id="edge42" class="edge"><title>13&#45;&#45;11</title>
<path fill="none" stroke="black" d="M-173.365,-33.4569C-171.265,-42.1953 -167.395,-58.3066 -164.982,-68.3506"/>
</g>
<!-- 15 -->
<g id="node16" class="node"><title>15</title>
<ellipse fill="grey" stroke="black" cx="30" cy="-30" rx="6" ry="6"/>
</g>
<!-- 16 -->
<g id="node17" class="node"><title>16</title>
<ellipse fill="grey" stroke="black" cx="-115.264" cy="-436.27" rx="5" ry="5"/>
</g>
<!-- 16&#45;&#45;14 -->
<g id="edge43" class="edge"><title>16&#45;&#45;14</title>
<path fill="none" stroke="black" d="M-111.908,-439.999C-105.227,-447.423 -90.2832,-464.031 -83.0216,-472.101"/>
</g>
<!-- 16&#45;&#45;18 -->
<g id="edge44" class="edge"><title>16&#45;&#45;18</title>
<path fill="none" stroke="black" d="M-114.474,-430.979C-112.938,-420.686 -109.566,-398.098 -108.07,-388.075"/>
</g>
<!-- 17 -->
<g id="node18" class="node"><title>17</title>
<ellipse fill="grey" stroke="black" cx="203.839" cy="234.697" rx="5" ry="5"/>
</g>
<!-- 19&#45;&#45;17 -->
<g id="edge45" class="edge"><title>19&#45;&#45;17</title>
<path fill="none" stroke="black" d="M233.048,199.151C226.894,206.639 213.541,222.89 207.25,230.547"/>
</g>
<!-- 21&#45;&#45;9 -->
<g id="edge46" class="edge"><title>21&#45;&#45;9</title>
<path fill="none" stroke="black" d="M61.6459,156.92C58.0235,149.122 50.6484,133.245 46.1021,123.458"/>
</g>
<!-- 22 -->
<g id="node23" class="node"><title>22</title>
<ellipse fill="grey" stroke="black" cx="-191.014" cy="-492.376" rx="3.5" ry="3.5"/>
</g>
<!-- anon_22_16_0 -->
<g id="node73" class="node"><title>anon_22_16_0</title>
<ellipse fill="white" stroke="black" cx="-157.012" cy="-463.059" rx="2.5" ry="2.5"/>
</g>
<!-- 22&#45;&#45;anon_22_16_0 -->
<g id="edge47" class="edge"><title>22&#45;&#45;anon_22_16_0</title>
<path fill="none" stroke="black" d="M-188.346,-490.075C-181.833,-484.46 -165.218,-470.134 -159.217,-464.96"/>
</g>
<!-- 26 -->
<g id="node27" class="node"><title>26</title>
<ellipse fill="grey" stroke="black" cx="-166.821" cy="-318.822" rx="3.5" ry="3.5"/>
</g>
<!-- 26&#45;&#45;5 -->
<g id="edge49" class="edge"><title>26&#45;&#45;5</title>
<path fill="none" stroke="black" d="M-163.259,-318.821C-153.853,-318.818 -128.012,-318.811 -112.602,-318.807"/>
</g>
<!-- 60 -->
<g id="node61" class="node"><title>60</title>
<ellipse fill="grey" stroke="black" cx="-212.174" cy="-300.02" rx="3.5" ry="3.5"/>
</g>
<!-- 26&#45;&#45;60 -->
<g id="edge50" class="edge"><title>26&#45;&#45;60</title>
<path fill="none" stroke="black" d="M-170.083,-317.469C-178.37,-314.034 -200.178,-304.994 -208.696,-301.463"/>
</g>
<!-- 27 -->
<g id="node28" class="node"><title>27</title>
<ellipse fill="grey" stroke="black" cx="224.32" cy="-288.466" rx="3.5" ry="3.5"/>
</g>
<!-- 27&#45;&#45;0 -->
<g id="edge51" class="edge"><title>27&#45;&#45;0</title>
<path fill="none" stroke="black" d="M224.063,-284.757C223.453,-275.977 221.863,-253.08 220.405,-232.09"/>
</g>
<!-- 28 -->
<g id="node29" class="node"><title>28</title>
<ellipse fill="grey" stroke="black" cx="-45" cy="45" rx="3.5" ry="3.5"/>
</g>
<!-- 29 -->
<g id="node30" class="node"><title>29</title>
<ellipse fill="grey" stroke="black" cx="-62.5905" cy="-219.123" rx="3.5" ry="3.5"/>
</g>
<!-- 34 -->
<g id="node35" class="node"><title>34</title>
<ellipse fill="grey" stroke="black" cx="333.266" cy="-71.601" rx="3.5" ry="3.5"/>
</g>
<!-- 34&#45;&#45;4 -->
<g id="edge52" class="edge"><title>34&#45;&#45;4</title>
<path fill="none" stroke="black" d="M329.66,-72.0997C321.208,-73.2686 299.777,-76.2325 285.753,-78.1721"/>
</g>
<!-- 35 -->
<g id="node36" class="node"><title>35</title>
<ellipse fill="grey" stroke="black" cx="266.082" cy="20.9628" rx="3.5" ry="3.5"/>
</g>
<!-- 37 -->
<g id="node38" class="node"><title>37</title>
<ellipse fill="grey" stroke="black" cx="315.62" cy="-194.728" rx="3.5" ry="3.5"/>
</g>
<!-- 37&#45;&#45;0 -->
<g id="edge53" class="edge"><title>37&#45;&#45;0</title>
<path fill="none" stroke="black" d="M311.895,-194.579C303.042,-194.225 279.898,-193.299 258.749,-192.453"/>
</g>
<!-- 39 -->
<g id="node40" class="node"><title>39</title>
<ellipse fill="grey" stroke="black" cx="-157.715" cy="-166.696" rx="3.5" ry="3.5"/>
</g>
<!-- 41 -->
<g id="node42" class="node"><title>41</title>
<ellipse fill="grey" stroke="black" cx="115.76" cy="-84.6232" rx="3.5" ry="3.5"/>
</g>
<!-- 44 -->
<g id="node45" class="node"><title>44</title>
<ellipse fill="grey" stroke="black" cx="48.1965" cy="-307.985" rx="3.5" ry="3.5"/>
</g>
<!-- anon_44_5_0 -->
<g id="node74" class="node"><title>anon_44_5_0</title>
<ellipse fill="white" stroke="black" cx="4.54341" cy="-318.069" rx="2.5" ry="2.5"/>
</g>
<!-- 44&#45;&#45;anon_44_5_0 -->
<g id="edge54" class="edge"><title>44&#45;&#45;anon_44_5_0</title>
<path fill="none" stroke="black" d="M44.7711,-308.776C36.4098,-310.708 15.0791,-315.635 7.37397,-317.415"/>
</g>
<!-- 45 -->
<g id="node46" class="node"><title>45</title>
<ellipse fill="grey" stroke="black" cx="5.57937" cy="25.7935" rx="3.5" ry="3.5"/>
</g>
<!-- 45&#45;&#45;2 -->
<g id="edge57" class="edge"><title>45&#45;&#45;2</title>
<path fill="none" stroke="black" d="M3.47004,22.5822C-1.3415,15.257 -13.4798,-3.2225 -23.4143,-18.347"/>
</g>
<!-- 46 -->
<g id="node47" class="node"><title>46</title>
<ellipse fill="grey" stroke="black" cx="149.962" cy="-169.124" rx="3.5" ry="3.5"/>
</g>
<!-- 46&#45;&#45;0 -->
<g id="edge58" class="edge"><title>46&#45;&#45;0</title>
<path fill="none" stroke="black" d="M153.595,-170.29C158.584,-171.891 168.106,-174.946 178.308,-178.219"/>
</g>
<!-- 48 -->
<g id="node49" class="node"><title>48</title>
<ellipse fill="grey" stroke="black" cx="24.4879" cy="67.8133" rx="3.5" ry="3.5"/>
</g>
<!-- 48&#45;&#45;9 -->
<g id="edge59" class="edge"><title>48&#45;&#45;9</title>
<path fill="none" stroke="black" d="M25.7636,71.215C28.4963,78.502 34.9884,95.8139 38.9547,106.39"/>
</g>
<!-- 48&#45;&#45;45 -->
<g id="edge60" class="edge"><title>48&#45;&#45;45</title>
<path fill="none" stroke="black" d="M23.0042,64.516C19.5218,56.7772 10.8454,37.4959 7.21608,29.4307"/>
</g>
<!-- 50 -->
<g id="node51" class="node"><title>50</title>
<ellipse fill="grey" stroke="black" cx="99.6025" cy="-195.092" rx="3.5" ry="3.5"/>
</g>
<!-- 51 -->
<g id="node52" class="node"><title>51</title>
<ellipse fill="grey" stroke="black" cx="75" cy="45" rx="3.5" ry="3.5"/>
</g>
<!-- 52 -->
<g id="node53" class="node"><title>52</title>
<ellipse fill="grey" stroke="black" cx="302.938" cy="-241.013" rx="3.5" ry="3.5"/>
</g>
<!-- 52&#45;&#45;0 -->
<g id="edge61" class="edge"><title>52&#45;&#45;0</title>
<path fill="none" stroke="black" d="M299.695,-239.106C291.956,-234.556 271.676,-222.633 253.203,-211.773"/>
</g>
<!-- 53 -->
<g id="node54" class="node"><title>53</title>
<ellipse fill="grey" stroke="black" cx="396.555" cy="7.23303" rx="3.5" ry="3.5"/>
</g>
<!-- anon_53_1_0 -->
<g id="node76" class="node"><title>anon_53_1_0</title>
<ellipse fill="white" stroke="black" cx="367.802" cy="44.2646" rx="2.5" ry="2.5"/>
</g>
<!-- 53&#45;&#45;anon_53_1_0 -->
<g id="edge62" class="edge"><title>53&#45;&#45;anon_53_1_0</title>
<path fill="none" stroke="black" d="M394.299,10.1388C388.686,17.3682 374.198,36.0271 369.384,42.2275"/>
</g>
<!-- 54 -->
<g id="node55" class="node"><title>54</title>
<ellipse fill="grey" stroke="black" cx="-138.574" cy="-292.749" rx="3.5" ry="3.5"/>
</g>
<!-- 54&#45;&#45;5 -->
<g id="edge64" class="edge"><title>54&#45;&#45;5</title>
<path fill="none" stroke="black" d="M-135.592,-294.794C-130.273,-298.44 -118.924,-306.221 -110.581,-311.941"/>
</g>
<!-- 55 -->
<g id="node56" class="node"><title>55</title>
<ellipse fill="grey" stroke="black" cx="270.917" cy="-275.782" rx="3.5" ry="3.5"/>
</g>
<!-- 55&#45;&#45;0 -->
<g id="edge65" class="edge"><title>55&#45;&#45;0</title>
<path fill="none" stroke="black" d="M268.89,-272.555C264.015,-264.794 251.177,-244.356 239.557,-225.859"/>
</g>
<!-- 56 -->
<g id="node57" class="node"><title>56</title>
<ellipse fill="grey" stroke="black" cx="-157.671" cy="-250.85" rx="3.5" ry="3.5"/>
</g>
<!-- anon_56_39_0 -->
<g id="node77" class="node"><title>anon_56_39_0</title>
<ellipse fill="white" stroke="black" cx="-161.277" cy="-208.805" rx="2.5" ry="2.5"/>
</g>
<!-- 56&#45;&#45;anon_56_39_0 -->
<g id="edge66" class="edge"><title>56&#45;&#45;anon_56_39_0</title>
<path fill="none" stroke="black" d="M-157.978,-247.265C-158.687,-239.004 -160.421,-218.778 -161.047,-211.483"/>
</g>
<!-- 58 -->
<g id="node59" class="node"><title>58</title>
<ellipse fill="grey" stroke="black" cx="123.563" cy="3.66286" rx="3.5" ry="3.5"/>
</g>
<!-- 59 -->
<g id="node60" class="node"><title>59</title>
<ellipse fill="grey" stroke="black" cx="-84.0739" cy="15.5632" rx="3.5" ry="3.5"/>
</g>
<!-- 59&#45;&#45;2 -->
<g id="edge68" class="edge"><title>59&#45;&#45;2</title>
<path fill="none" stroke="black" d="M-81.8591,12.8454C-77.0219,6.90955 -65.1323,-7.68037 -54.9736,-20.1463"/>
</g>
<!-- 61 -->
<g id="node62" class="node"><title>61</title>
<ellipse fill="grey" stroke="black" cx="85.5271" cy="-294.686" rx="3.5" ry="3.5"/>
</g>
<!-- 61&#45;&#45;6 -->
<g id="edge69" class="edge"><title>61&#45;&#45;6</title>
<path fill="none" stroke="black" d="M86.9027,-291.17C89.9637,-283.348 97.4439,-264.232 102.225,-252.014"/>
</g>
<!-- anon_0_41_0&#45;&#45;41 -->
<g id="edge4" class="edge"><title>anon_0_41_0&#45;&#45;41</title>
<path fill="none" stroke="black" d="M149.517,-111.376C143.112,-106.3 125.479,-92.3255 118.58,-86.8579"/>
</g>
<!-- anon_1_58_1 -->
<g id="node65" class="node"><title>anon_1_58_1</title>
<ellipse fill="white" stroke="black" cx="199.57" cy="44.9139" rx="2.5" ry="2.5"/>
</g>
<!-- anon_1_58_0&#45;&#45;anon_1_58_1 -->
<g id="edge19" class="edge"><title>anon_1_58_0&#45;&#45;anon_1_58_1</title>
<path fill="none" stroke="black" d="M233.218,70.5608C226.584,65.504 207.862,51.2341 201.623,46.4782"/>
</g>
<!-- anon_1_58_2 -->
<g id="node66" class="node"><title>anon_1_58_2</title>
<ellipse fill="white" stroke="black" cx="163.622" cy="20.7006" rx="2.5" ry="2.5"/>
</g>
<!-- anon_1_58_1&#45;&#45;anon_1_58_2 -->
<g id="edge20" class="edge"><title>anon_1_58_1&#45;&#45;anon_1_58_2</title>
<path fill="none" stroke="black" d="M197.212,43.3252C190.714,38.9484 172.601,26.7481 166.037,22.3269"/>
</g>
<!-- anon_1_58_2&#45;&#45;58 -->
<g id="edge21" class="edge"><title>anon_1_58_2&#45;&#45;58</title>
<path fill="none" stroke="black" d="M160.994,19.5827C154.031,16.6214 135.102,8.57043 127.153,5.18984"/>
</g>
<!-- anon_2_50_1 -->
<g id="node68" class="node"><title>anon_2_50_1</title>
<ellipse fill="white" stroke="black" cx="47.5001" cy="-127.243" rx="2.5" ry="2.5"/>
</g>
<!-- anon_2_50_0&#45;&#45;anon_2_50_1 -->
<g id="edge26" class="edge"><title>anon_2_50_0&#45;&#45;anon_2_50_1</title>
<path fill="none" stroke="black" d="M22.1469,-95.1538C27.0515,-101.361 40.7232,-118.665 45.6776,-124.936"/>
</g>
<!-- anon_2_50_2 -->
<g id="node69" class="node"><title>anon_2_50_2</title>
<ellipse fill="white" stroke="black" cx="71.6359" cy="-162.391" rx="2.5" ry="2.5"/>
</g>
<!-- anon_2_50_1&#45;&#45;anon_2_50_2 -->
<g id="edge27" class="edge"><title>anon_2_50_1&#45;&#45;anon_2_50_2</title>
<path fill="none" stroke="black" d="M49.0837,-129.549C53.4465,-135.902 65.6077,-153.613 70.0148,-160.031"/>
</g>
<!-- anon_2_50_2&#45;&#45;50 -->
<g id="edge28" class="edge"><title>anon_2_50_2&#45;&#45;50</title>
<path fill="none" stroke="black" d="M73.4709,-164.537C78.3316,-170.221 91.5469,-185.673 97.096,-192.161"/>
</g>
<!-- anon_4_35_0&#45;&#45;35 -->
<g id="edge31" class="edge"><title>anon_4_35_0&#45;&#45;35</title>
<path fill="none" stroke="black" d="M265.81,-20.5254C265.86,-12.9572 266.003,8.89462 266.059,17.4597"/>
</g>
<!-- anon_5_29_0&#45;&#45;29 -->
<g id="edge35" class="edge"><title>anon_5_29_0&#45;&#45;29</title>
<path fill="none" stroke="black" d="M-73.4367,-262.548C-71.5209,-254.877 -65.6652,-231.433 -63.4509,-222.568"/>
</g>
<!-- anon_11_39_0&#45;&#45;39 -->
<g id="edge41" class="edge"><title>anon_11_39_0&#45;&#45;39</title>
<path fill="none" stroke="black" d="M-157.65,-126.97C-157.661,-134.074 -157.695,-154.325 -157.709,-162.844"/>
</g>
<!-- anon_22_16_0&#45;&#45;16 -->
<g id="edge48" class="edge"><title>anon_22_16_0&#45;&#45;16</title>
<path fill="none" stroke="black" d="M-154.767,-461.618C-148.128,-457.358 -128.499,-444.763 -119.662,-439.093"/>
</g>
<!-- anon_44_5_1 -->
<g id="node75" class="node"><title>anon_44_5_1</title>
<ellipse fill="white" stroke="black" cx="-40.779" cy="-323.213" rx="2.5" ry="2.5"/>
</g>
<!-- anon_44_5_0&#45;&#45;anon_44_5_1 -->
<g id="edge55" class="edge"><title>anon_44_5_0&#45;&#45;anon_44_5_1</title>
<path fill="none" stroke="black" d="M1.84401,-318.376C-6.23606,-319.293 -30.164,-322.008 -38.1505,-322.915"/>
</g>
<!-- anon_44_5_1&#45;&#45;5 -->
<g id="edge56" class="edge"><title>anon_44_5_1&#45;&#45;5</title>
<path fill="none" stroke="black" d="M-43.3482,-323.024C-50.9928,-322.46 -73.9565,-320.767 -88.3631,-319.704"/>
</g>
<!-- anon_53_1_0&#45;&#45;1 -->
<g id="edge63" class="edge"><title>anon_53_1_0&#45;&#45;1</title>
<path fill="none" stroke="black" d="M366.363,46.718C361.73,54.6157 346.803,80.0625 334.73,100.645"/>
</g>
<!-- anon_56_39_0&#45;&#45;39 -->
<g id="edge67" class="edge"><title>anon_56_39_0&#45;&#45;39</title>
<path fill="none" stroke="black" d="M-161.043,-206.043C-160.424,-198.724 -158.741,-178.825 -158.034,-170.47"/>
</g>
</g>
</svg>
