<?xml version="1.0" encoding="UTF-8" standalone="no"?>
<!DOCTYPE svg PUBLIC "-//W3C//DTD SVG 1.1//EN"
 "http://www.w3.org/Graphics/SVG/1.1/DTD/svg11.dtd">
<!-- Generated by graphviz version 2.38.0 (20140413.2041)
 -->
<!-- Title: %3 Pages: 1 -->
<svg width="531pt" height="512pt"
 viewBox="0.00 0.00 531.42 512.50" xmlns="http://www.w3.org/2000/svg" xmlns:xlink="http://www.w3.org/1999/xlink">
<g id="graph0" class="graph" transform="scale(1 1) rotate(0) translate(183.296 278.033)">
<title>%3</title>
<polygon fill="white" stroke="none" points="-183.296,234.463 -183.296,-278.033 348.119,-278.033 348.119,234.463 -183.296,234.463"/>
<!-- 0 -->
<g id="node1" class="node"><title>0</title>
<path fill="#98f5ff" stroke="black" stroke-width="0.5" d="M61.6196,-195.216C61.6196,-195.216 87.1196,-195.216 87.1196,-195.216 87.1196,-195.951 87.0879,-196.685 87.0245,-197.416 86.9611,-198.148 86.8662,-198.877 86.7399,-199.6 86.6136,-200.324 86.4562,-201.042 86.2679,-201.752 86.0797,-202.461 85.8609,-203.163 85.6121,-203.854 85.3633,-204.545 85.0848,-205.225 84.7773,-205.892 84.4698,-206.559 84.1336,-207.212 83.7697,-207.85 83.4058,-208.488 83.0145,-209.11 82.597,-209.714 82.1794,-210.319 81.7359,-210.905 81.2677,-211.47 80.7995,-212.036 80.3072,-212.582 79.7919,-213.105 79.2767,-213.629 78.739,-214.13 78.1806,-214.607 77.6221,-215.084 77.0432,-215.536 76.4457,-215.963 75.8481,-216.39 75.2324,-216.791 74.6002,-217.165 73.968,-217.539 73.32,-217.885 72.6579,-218.203 71.9958,-218.521 71.3203,-218.81 70.6332,-219.07 69.9462,-219.33 69.2482,-219.559 68.5414,-219.759 67.8345,-219.958 67.1193,-220.127 66.3978,-220.264 66.3978,-220.264 61.6196,-195.216 61.6196,-195.216"/>
<path fill="deepskyblue" stroke="black" stroke-width="0.5" d="M61.6196,-195.216C61.6196,-195.216 66.3978,-220.264 66.3978,-220.264 65.1185,-220.509 63.8223,-220.654 62.5207,-220.7 61.2191,-220.746 59.9158,-220.692 58.6224,-220.539 57.329,-220.386 56.0492,-220.134 54.7943,-219.786 53.5394,-219.437 52.3131,-218.993 51.126,-218.457 49.939,-217.921 48.7947,-217.295 47.7033,-216.584 46.612,-215.873 45.5766,-215.08 44.6065,-214.211 43.6363,-213.342 42.7341,-212.4 41.9079,-211.393 41.0816,-210.386 40.3337,-209.318 39.6707,-208.197 39.0077,-207.076 38.4316,-205.905 37.9474,-204.696 37.4632,-203.487 37.0723,-202.243 36.7782,-200.974 36.4841,-199.705 36.2877,-198.416 36.1906,-197.117 36.0935,-195.818 36.096,-194.514 36.1982,-193.215 36.3004,-191.917 36.5019,-190.628 36.801,-189.361 37.1001,-188.093 37.4958,-186.85 37.9848,-185.643 38.4737,-184.436 39.0545,-183.268 39.7218,-182.15 40.3892,-181.031 41.1413,-179.965 41.9715,-178.962 42.8017,-177.958 43.7076,-177.02 44.6812,-176.155 45.6548,-175.29 46.6932,-174.5 47.7874,-173.794 48.8815,-173.087 50.0282,-172.466 51.2174,-171.934 52.4065,-171.403 53.6346,-170.964 54.8909,-170.62 56.1471,-170.276 57.4279,-170.029 58.7219,-169.881 60.0159,-169.733 61.3193,-169.685 62.6208,-169.736 63.9222,-169.787 65.2178,-169.938 66.4962,-170.187 67.7746,-170.436 69.032,-170.783 70.2574,-171.224 71.4829,-171.665 72.6727,-172.199 73.8165,-172.822 74.9603,-173.445 76.0547,-174.155 77.09,-174.945 78.1254,-175.735 79.0987,-176.604 80.0014,-177.542 80.9041,-178.481 81.7335,-179.488 82.4824,-180.554 83.2313,-181.619 83.8975,-182.741 84.4751,-183.908 85.0527,-185.075 85.54,-186.285 85.9327,-187.527 86.3254,-188.769 86.6225,-190.039 86.8211,-191.326 87.0198,-192.613 87.1196,-193.914 87.1196,-195.216 87.1196,-195.216 61.6196,-195.216 61.6196,-195.216"/>
<ellipse fill="none" stroke="black" cx="61.6196" cy="-195.216" rx="25.5" ry="25.5"/>
<text text-anchor="middle" x="61.6196" y="-192.716" font-family="monospace" font-size="10.00">0</text>
</g>
<!-- 6 -->
<g id="node7" class="node"><title>6</title>
<path fill="brown" stroke="black" stroke-width="0.5" d="M8.37286,-79.7395C8.37286,-79.7395 42.8729,-79.7395 42.8729,-79.7395 42.8729,-80.7473 42.8287,-81.7546 42.7405,-82.7585 42.6523,-83.7624 42.5202,-84.7619 42.3445,-85.7543 42.1688,-86.7466 41.9497,-87.7308 41.6879,-88.7039 41.426,-89.6771 41.1216,-90.6383 40.7756,-91.5848 40.4296,-92.5313 40.0423,-93.4622 39.6148,-94.3748 39.1873,-95.2874 38.72,-96.1808 38.2142,-97.0525 37.7085,-97.9242 37.1648,-98.7733 36.5848,-99.5974 36.0047,-100.422 35.3888,-101.22 34.7389,-101.99 34.0889,-102.76 33.4055,-103.501 32.6907,-104.212 31.9758,-104.922 31.2302,-105.601 30.4559,-106.246 29.6816,-106.891 28.8795,-107.502 28.0517,-108.077 27.224,-108.651 26.3714,-109.19 25.4965,-109.69 24.6217,-110.19 23.7253,-110.652 22.81,-111.073 21.8947,-111.495 20.9614,-111.877 20.0127,-112.217 19.064,-112.557 18.1009,-112.855 17.1261,-113.111 16.1513,-113.366 15.1658,-113.579 14.1723,-113.749 13.1789,-113.918 12.1785,-114.044 11.1741,-114.126 10.1696,-114.207 9.16209,-114.245 8.15434,-114.239 7.14659,-114.232 6.1396,-114.182 5.13627,-114.087 4.13295,-113.993 3.13424,-113.854 2.14304,-113.672 1.15183,-113.49 0.169075,-113.265 -0.802404,-112.997 -1.77388,-112.729 -2.73315,-112.419 -3.67745,-112.067 -4.62175,-111.715 -5.55017,-111.321 -6.46005,-110.888 -7.36992,-110.455 -8.26038,-109.982 -9.12885,-109.471 -9.99732,-108.959 -10.843,-108.41 -11.6634,-107.825 -12.4838,-107.24 -13.2781,-106.619 -14.0442,-105.964 -14.8102,-105.309 -15.5472,-104.621 -16.253,-103.902 -16.9588,-103.182 -17.6327,-102.433 -18.2729,-101.654 -18.913,-100.876 -19.5188,-100.07 -20.0883,-99.2385 -20.6579,-98.4071 -21.1908,-97.5512 -21.6854,-96.6731 -22.1801,-95.7951 -22.636,-94.8958 -23.0519,-93.9779 -23.4679,-93.0599 -23.8434,-92.1242 -24.1773,-91.1734 -24.5113,-90.2226 -24.8035,-89.2576 -25.053,-88.2812 -25.3025,-87.3048 -25.5091,-86.3179 -25.6723,-85.3235 -25.8354,-84.329 -25.9548,-83.3278 -26.0303,-82.3229 -26.1057,-81.3179 -26.1371,-80.3102 -26.1244,-79.3025 -26.1116,-78.2948 -26.0547,-77.2881 -25.9538,-76.2854 -25.8529,-75.2827 -25.7081,-74.2849 -25.5199,-73.2949 -25.3316,-72.3048 -25.1001,-71.3235 -24.8259,-70.3538 -24.5517,-69.384 -24.2352,-68.4267 -23.8773,-67.4847 -23.5193,-66.5426 -23.1202,-65.6167 -22.6812,-64.7096 -22.2421,-63.8025 -21.7636,-62.915 -21.2468,-62.0498 -20.7301,-61.1846 -20.1757,-60.3425 -19.5853,-59.5258 -18.9948,-58.7091 -18.3688,-57.9187 -17.7092,-57.1568 -17.0495,-56.3949 -16.3568,-55.6623 -15.633,-54.9611 -14.9092,-54.2599 -14.155,-53.5907 -13.3726,-52.9555 -12.5903,-52.3203 -11.7804,-51.7197 -10.9455,-51.1554 -10.1105,-50.5911 -9.25121,-50.0636 -8.37006,-49.5745 -7.48892,-49.0855 -6.58677,-48.6352 -5.66621,-48.2251 -4.74566,-47.815 -3.80757,-47.4455 -2.85466,-47.1175 -1.90174,-46.7896 -0.934916,-46.5035 0.0430404,-46.2602 1.021,-46.0169 2.00915,-45.8165 3.00464,-45.6597 4.00014,-45.5029 5.00203,-45.3898 6.00743,-45.3207 7.01283,-45.2516 8.02078,-45.2266 9.02837,-45.2457 10.036,-45.2649 11.0422,-45.3282 12.0443,-45.4354 13.0463,-45.5426 14.0432,-45.6937 15.032,-45.8883 16.0208,-46.0828 17.0007,-46.3205 17.9687,-46.6008 18.9367,-46.8811 19.8919,-47.2037 20.8317,-47.5677 21.7715,-47.9316 22.6948,-48.3365 23.5991,-48.7813 24.5035,-49.2261 25.3878,-49.7102 26.2498,-50.2324 27.1117,-50.7546 27.9503,-51.3144 28.7632,-51.91 29.5762,-52.5056 30.3626,-53.1365 31.1203,-53.801 31.878,-54.4655 32.6062,-55.1628 33.3028,-55.8911 33.9994,-56.6193 34.6638,-57.3777 35.2941,-58.1641 35.2941,-58.1641 8.37286,-79.7395 8.37286,-79.7395"/>
<path fill="#ff3030" stroke="black" stroke-width="0.5" d="M8.37286,-79.7395C8.37286,-79.7395 35.2941,-58.1641 35.2941,-58.1641 36.2662,-59.3771 37.1553,-60.6544 37.9551,-61.9873 38.755,-63.3202 39.4639,-64.7057 40.0769,-66.1342 40.0769,-66.1342 8.37286,-79.7395 8.37286,-79.7395"/>
<path fill="deepskyblue" stroke="black" stroke-width="0.5" d="M8.37286,-79.7395C8.37286,-79.7395 40.0769,-66.1342 40.0769,-66.1342 40.5366,-67.2054 40.9417,-68.2992 41.2907,-69.4115 41.6396,-70.5237 41.932,-71.6529 42.1666,-72.7947 42.4013,-73.9365 42.5779,-75.0895 42.6958,-76.2492 42.8138,-77.4089 42.8729,-78.5738 42.8729,-79.7395 42.8729,-79.7395 8.37286,-79.7395 8.37286,-79.7395"/>
<ellipse fill="none" stroke="black" cx="8.37286" cy="-79.7395" rx="34.5" ry="34.5"/>
<text text-anchor="middle" x="8.37286" y="-77.2395" font-family="monospace" font-size="10.00">6</text>
</g>
<!-- 0&#45;&#45;6 -->
<g id="edge1" class="edge"><title>0&#45;&#45;6</title>
<path fill="none" stroke="black" d="M50.8443,-171.848C42.8218,-154.449 31.7807,-130.504 22.9668,-111.389"/>
</g>
<!-- 22 -->
<g id="node23" class="node"><title>22</title>
<ellipse fill="deepskyblue" stroke="black" cx="118.854" cy="-237.299" rx="3.5" ry="3.5"/>
<text text-anchor="middle" x="118.854" y="-234.799" font-family="monospace" font-size="10.00">22</text>
</g>
<!-- 0&#45;&#45;22 -->
<g id="edge2" class="edge"><title>0&#45;&#45;22</title>
<path fill="none" stroke="black" d="M82.2825,-210.409C94.8342,-219.638 109.604,-230.497 115.837,-235.081"/>
</g>
<!-- 24 -->
<g id="node25" class="node"><title>24</title>
<ellipse fill="deepskyblue" stroke="black" cx="46.9543" cy="-265.198" rx="3.5" ry="3.5"/>
<text text-anchor="middle" x="46.9543" y="-262.698" font-family="monospace" font-size="10.00">24</text>
</g>
<!-- 0&#45;&#45;24 -->
<g id="edge3" class="edge"><title>0&#45;&#45;24</title>
<path fill="none" stroke="black" d="M56.3251,-220.481C53.1089,-235.829 49.3245,-253.888 47.7273,-261.51"/>
</g>
<!-- 58 -->
<g id="node59" class="node"><title>58</title>
<ellipse fill="black" stroke="black" cx="86.2883" cy="-261.002" rx="3.5" ry="3.5"/>
<text text-anchor="middle" x="86.2883" y="-258.502" font-family="monospace" font-size="10.00">58</text>
</g>
<!-- 0&#45;&#45;58 -->
<g id="edge4" class="edge"><title>0&#45;&#45;58</title>
<path fill="none" stroke="black" d="M70.6652,-219.339C76.0556,-233.713 82.3499,-250.499 85.0043,-257.577"/>
</g>
<!-- 1 -->
<g id="node2" class="node"><title>1</title>
<ellipse fill="deepskyblue" stroke="black" cx="-79.8628" cy="104.208" rx="3.5" ry="3.5"/>
<text text-anchor="middle" x="-79.8628" y="106.708" font-family="monospace" font-size="10.00">1</text>
</g>
<!-- 3 -->
<g id="node4" class="node"><title>3</title>
<path fill="#1874cd" stroke="black" stroke-width="0.5" d="M0.27873,99.7387C0.27873,99.7387 34.2787,99.7387 34.2787,99.7387 34.2787,98.4526 34.2058,97.1676 34.0602,95.8898 33.9146,94.612 33.6966,93.3435 33.4073,92.0904 33.118,90.8373 32.7578,89.6016 32.3285,88.3893 31.8992,87.177 31.4015,85.99 30.8377,84.8341 30.274,83.6782 29.645,82.5552 28.954,81.4705 28.263,80.3859 27.511,79.3413 26.7017,78.3418 25.8923,77.3423 25.0269,76.3896 24.1096,75.4882 23.1924,74.5868 22.2247,73.7381 21.2112,72.9463 20.1978,72.1546 19.1402,71.4209 18.0437,70.7489 16.9471,70.077 15.8133,69.4678 14.6477,68.9242 13.4822,68.3807 12.2867,67.9038 11.0671,67.4957 9.84748,67.0876 8.60569,66.7491 7.34773,66.4817 6.08976,66.2143 4.81763,66.0185 3.53748,65.8952 2.25733,65.772 0.97122,65.7214 -0.314654,65.7439 -1.60053,65.7663 -2.8841,65.8617 -4.15916,66.0296 -5.43423,66.1974 -6.69875,66.4375 -7.94662,66.7486 -7.94662,66.7486 0.27873,99.7387 0.27873,99.7387"/>
<path fill="#98f5ff" stroke="black" stroke-width="0.5" d="M0.27873,99.7387C0.27873,99.7387 -7.94662,66.7486 -7.94662,66.7486 -8.90641,66.988 -9.8553,67.269 -10.7906,67.5911 -11.7259,67.9131 -12.6467,68.2758 -13.5503,68.6782 -14.454,69.0805 -15.3396,69.5221 -16.2048,70.0016 -17.07,70.4812 -17.9138,70.9983 -18.7338,71.5514 -18.7338,71.5514 0.27873,99.7387 0.27873,99.7387"/>
<path fill="#ff3030" stroke="black" stroke-width="0.5" d="M0.27873,99.7387C0.27873,99.7387 -18.7338,71.5514 -18.7338,71.5514 -20.0052,72.409 -21.2171,73.3516 -22.3612,74.3728 -23.5054,75.3939 -24.5791,76.4913 -25.5751,77.6575 -26.571,78.8236 -27.487,80.0558 -28.3166,81.3456 -29.1462,82.6354 -29.8876,83.9798 -30.5357,85.3697 -31.1838,86.7596 -31.7372,88.1917 -32.1919,89.6563 -32.6467,91.1209 -33.0019,92.6146 -33.255,94.1271 -33.5081,95.6396 -33.6586,97.1675 -33.7054,98.7004 -33.7522,100.233 -33.6953,101.768 -33.535,103.293 -33.3747,104.818 -33.1114,106.33 -32.7469,107.82 -32.3824,109.31 -31.9175,110.773 -31.3555,112.2 -30.7934,113.627 -30.1355,115.014 -29.3861,116.352 -28.6368,117.69 -27.7978,118.976 -26.8749,120.2 -25.952,121.425 -24.9472,122.586 -23.8676,123.675 -22.7879,124.764 -21.6358,125.779 -20.4192,126.713 -19.2025,127.646 -17.9241,128.496 -16.5926,129.257 -15.2612,130.018 -13.8798,130.688 -12.4579,131.263 -12.4579,131.263 0.27873,99.7387 0.27873,99.7387"/>
<path fill="deepskyblue" stroke="black" stroke-width="0.5" d="M0.27873,99.7387C0.27873,99.7387 -12.4579,131.263 -12.4579,131.263 -11.1737,131.782 -9.85898,132.222 -8.52111,132.58 -7.18325,132.939 -5.82473,133.215 -4.45315,133.408 -3.08157,133.601 -1.6995,133.709 -0.314648,133.734 1.0702,133.758 2.45523,133.697 3.8327,133.552 5.21017,133.408 6.57751,133.179 7.92707,132.867 9.27663,132.556 10.6059,132.162 11.9074,131.688 13.2089,131.215 14.4803,130.662 15.7144,130.033 16.9485,129.404 18.143,128.7 19.2913,127.926 20.4396,127.151 21.5394,126.308 22.5847,125.399 23.6301,124.49 24.6189,123.518 25.5457,122.489 26.4724,121.46 27.3355,120.375 28.1299,119.24 28.9243,118.106 29.6487,116.924 30.2989,115.701 30.9492,114.478 31.5241,113.216 32.0205,111.923 32.5168,110.63 32.9337,109.308 33.2688,107.964 33.6039,106.62 33.8565,105.257 34.0253,103.882 34.1941,102.508 34.2787,101.124 34.2787,99.7387 34.2787,99.7387 0.27873,99.7387 0.27873,99.7387"/>
<ellipse fill="none" stroke="black" cx="0.27873" cy="99.7387" rx="34" ry="34"/>
<text text-anchor="middle" x="0.27873" y="102.239" font-family="monospace" font-size="10.00">3</text>
</g>
<!-- 1&#45;&#45;3 -->
<g id="edge5" class="edge"><title>1&#45;&#45;3</title>
<path fill="none" stroke="black" d="M-75.9974,103.992C-68.3058,103.563 -50.397,102.565 -33.8647,101.643"/>
</g>
<!-- 2 -->
<g id="node3" class="node"><title>2</title>
<ellipse fill="#ff3030" stroke="black" cx="-72.8701" cy="-132.868" rx="14" ry="14"/>
<text text-anchor="middle" x="-72.8701" y="-130.368" font-family="monospace" font-size="10.00">2</text>
</g>
<!-- 2&#45;&#45;6 -->
<g id="edge6" class="edge"><title>2&#45;&#45;6</title>
<path fill="none" stroke="black" d="M-60.8824,-125.029C-50.2891,-118.101 -34.4098,-107.717 -20.5278,-98.6389"/>
</g>
<!-- 60 -->
<g id="node61" class="node"><title>60</title>
<ellipse fill="white" stroke="black" cx="-120.824" cy="-168.002" rx="2.5" ry="2.5"/>
<text text-anchor="middle" x="-120.824" y="-165.502" font-family="monospace" font-size="10.00">60</text>
</g>
<!-- 2&#45;&#45;60 -->
<g id="edge7" class="edge"><title>2&#45;&#45;60</title>
<path fill="none" stroke="black" d="M-84.4785,-141.373C-96.0096,-149.822 -112.797,-162.121 -118.686,-166.436"/>
</g>
<!-- 3&#45;&#45;6 -->
<g id="edge8" class="edge"><title>3&#45;&#45;6</title>
<path fill="none" stroke="black" d="M1.82023,65.5578C3.2513,33.8252 5.3715,-13.1877 6.80953,-45.0745"/>
</g>
<!-- 10 -->
<g id="node11" class="node"><title>10</title>
<ellipse fill="#ff3030" stroke="black" cx="59.7464" cy="142.984" rx="3.5" ry="3.5"/>
<text text-anchor="middle" x="59.7464" y="145.484" font-family="monospace" font-size="10.00">10</text>
</g>
<!-- 3&#45;&#45;10 -->
<g id="edge9" class="edge"><title>3&#45;&#45;10</title>
<path fill="none" stroke="black" d="M27.9235,119.842C39.328,128.136 51.1445,136.729 56.6173,140.708"/>
</g>
<!-- 16 -->
<g id="node17" class="node"><title>16</title>
<ellipse fill="#ff3030" stroke="black" cx="9.85656" cy="173.074" rx="3.5" ry="3.5"/>
<text text-anchor="middle" x="9.85656" y="175.574" font-family="monospace" font-size="10.00">16</text>
</g>
<!-- 3&#45;&#45;16 -->
<g id="edge10" class="edge"><title>3&#45;&#45;16</title>
<path fill="none" stroke="black" d="M4.73117,133.83C6.56798,147.894 8.47113,162.466 9.35258,169.215"/>
</g>
<!-- 18 -->
<g id="node19" class="node"><title>18</title>
<ellipse fill="deepskyblue" stroke="black" cx="66.2248" cy="70.8287" rx="3.5" ry="3.5"/>
<text text-anchor="middle" x="66.2248" y="73.3287" font-family="monospace" font-size="10.00">18</text>
</g>
<!-- 3&#45;&#45;18 -->
<g id="edge11" class="edge"><title>3&#45;&#45;18</title>
<path fill="none" stroke="black" d="M31.7066,85.9611C44.1801,80.4929 56.949,74.8951 62.8524,72.3071"/>
</g>
<!-- 21 -->
<g id="node22" class="node"><title>21</title>
<ellipse fill="deepskyblue" stroke="black" cx="-27.9118" cy="166.846" rx="3.5" ry="3.5"/>
<text text-anchor="middle" x="-27.9118" y="169.346" font-family="monospace" font-size="10.00">21</text>
</g>
<!-- 3&#45;&#45;21 -->
<g id="edge12" class="edge"><title>3&#45;&#45;21</title>
<path fill="none" stroke="black" d="M-12.9911,131.328C-18.3606,144.11 -23.8905,157.274 -26.4494,163.365"/>
</g>
<!-- 25 -->
<g id="node26" class="node"><title>25</title>
<ellipse fill="deepskyblue" stroke="black" cx="-60.9467" cy="144.461" rx="3.5" ry="3.5"/>
<text text-anchor="middle" x="-60.9467" y="146.961" font-family="monospace" font-size="10.00">25</text>
</g>
<!-- 3&#45;&#45;25 -->
<g id="edge13" class="edge"><title>3&#45;&#45;25</title>
<path fill="none" stroke="black" d="M-27.4678,120.006C-39.6174,128.881 -52.3745,138.2 -57.9937,142.304"/>
</g>
<!-- 29 -->
<g id="node30" class="node"><title>29</title>
<ellipse fill="deepskyblue" stroke="black" cx="31.9559" cy="164.863" rx="3.5" ry="3.5"/>
<text text-anchor="middle" x="31.9559" y="167.363" font-family="monospace" font-size="10.00">29</text>
</g>
<!-- 3&#45;&#45;29 -->
<g id="edge14" class="edge"><title>3&#45;&#45;29</title>
<path fill="none" stroke="black" d="M15.1898,130.394C21.2234,142.799 27.4373,155.573 30.3126,161.485"/>
</g>
<!-- 30 -->
<g id="node31" class="node"><title>30</title>
<ellipse fill="deepskyblue" stroke="black" cx="79.2347" cy="101.747" rx="3.5" ry="3.5"/>
<text text-anchor="middle" x="79.2347" y="104.247" font-family="monospace" font-size="10.00">30</text>
</g>
<!-- 3&#45;&#45;30 -->
<g id="edge15" class="edge"><title>3&#45;&#45;30</title>
<path fill="none" stroke="black" d="M34.6803,100.614C50.9705,101.028 68.4333,101.472 75.7242,101.658"/>
</g>
<!-- 34 -->
<g id="node35" class="node"><title>34</title>
<ellipse fill="#ff3030" stroke="black" cx="-77.9735" cy="88.9525" rx="3.5" ry="3.5"/>
<text text-anchor="middle" x="-77.9735" y="91.4525" font-family="monospace" font-size="10.00">34</text>
</g>
<!-- 3&#45;&#45;34 -->
<g id="edge16" class="edge"><title>3&#45;&#45;34</title>
<path fill="none" stroke="black" d="M-33.8162,95.0391C-49.9612,92.8137 -67.2684,90.4281 -74.4943,89.4321"/>
</g>
<!-- 36 -->
<g id="node37" class="node"><title>36</title>
<ellipse fill="#ff3030" stroke="black" cx="75.7222" cy="86.104" rx="3.5" ry="3.5"/>
<text text-anchor="middle" x="75.7222" y="88.604" font-family="monospace" font-size="10.00">36</text>
</g>
<!-- 3&#45;&#45;36 -->
<g id="edge19" class="edge"><title>3&#45;&#45;36</title>
<path fill="none" stroke="black" d="M34.0286,93.6392C49.094,90.9164 65.0139,88.0393 72.0323,86.7708"/>
</g>
<!-- 41 -->
<g id="node42" class="node"><title>41</title>
<ellipse fill="#1874cd" stroke="black" cx="-26.0792" cy="34.1852" rx="3.5" ry="3.5"/>
<text text-anchor="middle" x="-26.0792" y="36.6852" font-family="monospace" font-size="10.00">41</text>
</g>
<!-- 3&#45;&#45;41 -->
<g id="edge22" class="edge"><title>3&#45;&#45;41</title>
<path fill="none" stroke="black" d="M-12.437,68.1141C-17.3869,55.8035 -22.424,43.276 -24.7507,37.4894"/>
</g>
<!-- 43 -->
<g id="node44" class="node"><title>43</title>
<ellipse fill="#1874cd" stroke="black" cx="-69.4784" cy="75.0231" rx="3.5" ry="3.5"/>
<text text-anchor="middle" x="-69.4784" y="77.5231" font-family="monospace" font-size="10.00">43</text>
</g>
<!-- 3&#45;&#45;43 -->
<g id="edge23" class="edge"><title>3&#45;&#45;43</title>
<path fill="none" stroke="black" d="M-32.1492,88.2492C-45.5271,83.5093 -59.3881,78.5982 -65.8078,76.3236"/>
</g>
<!-- 44 -->
<g id="node45" class="node"><title>44</title>
<ellipse fill="#1874cd" stroke="black" cx="73.9489" cy="117.952" rx="3.5" ry="3.5"/>
<text text-anchor="middle" x="73.9489" y="120.452" font-family="monospace" font-size="10.00">44</text>
</g>
<!-- 3&#45;&#45;44 -->
<g id="edge24" class="edge"><title>3&#45;&#45;44</title>
<path fill="none" stroke="black" d="M33.665,107.993C48.2842,111.607 63.6343,115.402 70.3957,117.074"/>
</g>
<!-- 46 -->
<g id="node47" class="node"><title>46</title>
<ellipse fill="#1874cd" stroke="black" cx="51.3486" cy="173.776" rx="3.5" ry="3.5"/>
<text text-anchor="middle" x="51.3486" y="176.276" font-family="monospace" font-size="10.00">46</text>
</g>
<!-- 3&#45;&#45;46 -->
<g id="edge27" class="edge"><title>3&#45;&#45;46</title>
<path fill="none" stroke="black" d="M19.586,127.729C30.8846,144.109 43.9154,163 49.0758,170.481"/>
</g>
<!-- 56 -->
<g id="node57" class="node"><title>56</title>
<ellipse fill="#98f5ff" stroke="black" cx="-48.1625" cy="159.016" rx="3.5" ry="3.5"/>
<text text-anchor="middle" x="-48.1625" y="161.516" font-family="monospace" font-size="10.00">56</text>
</g>
<!-- 3&#45;&#45;56 -->
<g id="edge28" class="edge"><title>3&#45;&#45;56</title>
<path fill="none" stroke="black" d="M-21.3916,126.257C-31.0649,138.094 -41.2869,150.603 -45.7933,156.117"/>
</g>
<!-- 59 -->
<g id="node60" class="node"><title>59</title>
<ellipse fill="black" stroke="black" cx="-72.7014" cy="120.412" rx="3.5" ry="3.5"/>
<text text-anchor="middle" x="-72.7014" y="122.912" font-family="monospace" font-size="10.00">59</text>
</g>
<!-- 3&#45;&#45;59 -->
<g id="edge29" class="edge"><title>3&#45;&#45;59</title>
<path fill="none" stroke="black" d="M-32.7949,109.107C-47.2771,113.21 -62.4834,117.517 -69.1815,119.415"/>
</g>
<!-- anon_3_35_0 -->
<g id="node63" class="node"><title>anon_3_35_0</title>
<ellipse fill="white" stroke="black" cx="-86.0085" cy="138.834" rx="2.5" ry="2.5"/>
</g>
<!-- 3&#45;&#45;anon_3_35_0 -->
<g id="edge17" class="edge"><title>3&#45;&#45;anon_3_35_0</title>
<path fill="none" stroke="black" d="M-30.8729,113.853C-51.3408,123.127 -75.7202,134.173 -83.496,137.696"/>
</g>
<!-- anon_3_40_0 -->
<g id="node64" class="node"><title>anon_3_40_0</title>
<ellipse fill="white" stroke="black" cx="-18.4072" cy="183.863" rx="2.5" ry="2.5"/>
</g>
<!-- 3&#45;&#45;anon_3_40_0 -->
<g id="edge20" class="edge"><title>3&#45;&#45;anon_3_40_0</title>
<path fill="none" stroke="black" d="M-7.10646,132.987C-11.3502,152.092 -16.1581,173.737 -17.8119,181.183"/>
</g>
<!-- anon_3_45_0 -->
<g id="node65" class="node"><title>anon_3_45_0</title>
<ellipse fill="white" stroke="black" cx="84.2308" cy="139.83" rx="2.5" ry="2.5"/>
</g>
<!-- 3&#45;&#45;anon_3_45_0 -->
<g id="edge25" class="edge"><title>3&#45;&#45;anon_3_45_0</title>
<path fill="none" stroke="black" d="M31.0627,114.44C50.9045,123.915 74.3456,135.109 81.8173,138.678"/>
</g>
<!-- 4 -->
<g id="node5" class="node"><title>4</title>
<path fill="#98f5ff" stroke="black" stroke-width="0.5" d="M-37.5472,-191.949C-37.5472,-191.949 -5.54716,-191.949 -5.54716,-191.949 -5.54716,-193.399 -5.64578,-194.848 -5.84235,-196.285 -6.03892,-197.722 -6.33298,-199.144 -6.72249,-200.542 -7.112,-201.939 -7.59607,-203.308 -8.17134,-204.64 -8.7466,-205.971 -9.41174,-207.262 -10.1622,-208.503 -10.9126,-209.745 -11.7465,-210.934 -12.6582,-212.062 -13.5699,-213.19 -14.5573,-214.255 -15.6135,-215.249 -16.6697,-216.243 -17.7922,-217.165 -18.9734,-218.007 -20.1546,-218.848 -21.3916,-219.609 -22.676,-220.283 -23.9604,-220.957 -25.2891,-221.543 -26.653,-222.037 -28.0169,-222.531 -29.4127,-222.931 -30.831,-223.236 -32.2492,-223.54 -33.6865,-223.748 -35.1328,-223.857 -36.5792,-223.967 -38.0314,-223.978 -39.4793,-223.89 -40.9271,-223.803 -42.3674,-223.617 -43.79,-223.334 -45.2127,-223.051 -46.6145,-222.671 -47.9856,-222.198 -49.3568,-221.725 -50.6942,-221.159 -51.9887,-220.505 -53.2831,-219.85 -54.5315,-219.108 -55.7252,-218.284 -55.7252,-218.284 -37.5472,-191.949 -37.5472,-191.949"/>
<path fill="deepskyblue" stroke="black" stroke-width="0.5" d="M-37.5472,-191.949C-37.5472,-191.949 -55.7252,-218.284 -55.7252,-218.284 -56.6315,-217.659 -57.5048,-216.987 -58.3417,-216.271 -59.1787,-215.556 -59.9782,-214.797 -60.7369,-213.999 -61.4957,-213.201 -62.2128,-212.365 -62.8853,-211.493 -63.5579,-210.621 -64.185,-209.715 -64.7641,-208.778 -65.3432,-207.842 -65.8736,-206.876 -66.3531,-205.885 -66.8327,-204.893 -67.2608,-203.878 -67.6356,-202.843 -68.0105,-201.807 -68.3317,-200.753 -68.5979,-199.685 -68.8641,-198.616 -69.075,-197.535 -69.2297,-196.445 -69.3844,-195.354 -69.4828,-194.257 -69.5243,-193.157 -69.5659,-192.056 -69.5507,-190.954 -69.4786,-189.856 -69.4066,-188.757 -69.2779,-187.663 -69.0931,-186.577 -68.9083,-185.492 -68.6675,-184.416 -68.3718,-183.356 -68.0761,-182.295 -67.7259,-181.25 -67.3225,-180.226 -66.9191,-179.201 -66.4631,-178.198 -65.9563,-177.22 -65.4494,-176.243 -64.8925,-175.292 -64.2877,-174.372 -63.6829,-173.452 -63.0309,-172.563 -62.3345,-171.71 -61.6381,-170.857 -60.8981,-170.041 -60.1175,-169.264 -59.337,-168.488 -58.5168,-167.752 -57.6604,-167.06 -56.8039,-166.368 -55.9123,-165.72 -54.9891,-165.12 -54.0659,-164.52 -53.1124,-163.968 -52.1322,-163.466 -51.1521,-162.964 -50.1468,-162.513 -49.1201,-162.115 -48.0935,-161.716 -47.0471,-161.371 -45.9849,-161.081 -44.9227,-160.791 -43.8462,-160.555 -42.7598,-160.376 -41.6734,-160.197 -40.5784,-160.073 -39.4793,-160.007 -38.3801,-159.941 -37.2783,-159.931 -36.1782,-159.978 -35.078,-160.025 -33.9811,-160.129 -32.8916,-160.289 -31.8022,-160.449 -30.7218,-160.666 -29.6546,-160.937 -28.5875,-161.209 -27.5351,-161.535 -26.5016,-161.915 -25.4682,-162.295 -24.455,-162.729 -23.4662,-163.213 -22.4774,-163.698 -21.5143,-164.233 -20.5806,-164.817 -19.647,-165.401 -18.7441,-166.032 -17.8756,-166.709 -17.0071,-167.386 -16.1741,-168.107 -15.38,-168.87 -15.38,-168.87 -37.5472,-191.949 -37.5472,-191.949"/>
<path fill="#ff3030" stroke="black" stroke-width="0.5" d="M-37.5472,-191.949C-37.5472,-191.949 -15.38,-168.87 -15.38,-168.87 -14.6052,-169.614 -13.8684,-170.397 -13.1724,-171.215 -12.4763,-172.034 -11.8219,-172.886 -11.2117,-173.771 -10.6014,-174.655 -10.0361,-175.569 -9.51777,-176.51 -8.99947,-177.451 -8.52889,-178.417 -8.10781,-179.406 -7.68673,-180.394 -7.31569,-181.403 -6.99609,-182.429 -6.67649,-183.454 -6.40874,-184.495 -6.19385,-185.548 -5.97897,-186.6 -5.81723,-187.663 -5.70924,-188.732 -5.60125,-189.801 -5.54716,-190.874 -5.54716,-191.949 -5.54716,-191.949 -37.5472,-191.949 -37.5472,-191.949"/>
<ellipse fill="none" stroke="black" cx="-37.5472" cy="-191.949" rx="32" ry="32"/>
<text text-anchor="middle" x="-37.5472" y="-189.449" font-family="monospace" font-size="10.00">4</text>
</g>
<!-- 4&#45;&#45;6 -->
<g id="edge30" class="edge"><title>4&#45;&#45;6</title>
<path fill="none" stroke="black" d="M-25.362,-162.173C-19.0382,-146.721 -11.3042,-127.822 -4.83741,-112.02"/>
</g>
<!-- 11 -->
<g id="node12" class="node"><title>11</title>
<ellipse fill="deepskyblue" stroke="black" cx="29.7525" cy="-199.751" rx="3.5" ry="3.5"/>
<text text-anchor="middle" x="29.7525" y="-197.251" font-family="monospace" font-size="10.00">11</text>
</g>
<!-- 4&#45;&#45;11 -->
<g id="edge31" class="edge"><title>4&#45;&#45;11</title>
<path fill="none" stroke="black" d="M-5.47416,-195.667C6.98447,-197.111 19.732,-198.589 25.9169,-199.306"/>
</g>
<!-- 55 -->
<g id="node56" class="node"><title>55</title>
<ellipse fill="#98f5ff" stroke="black" cx="-57.2691" cy="-270.533" rx="3.5" ry="3.5"/>
<text text-anchor="middle" x="-57.2691" y="-268.033" font-family="monospace" font-size="10.00">55</text>
</g>
<!-- 4&#45;&#45;55 -->
<g id="edge32" class="edge"><title>4&#45;&#45;55</title>
<path fill="none" stroke="black" d="M-45.3418,-223.007C-49.5624,-239.824 -54.3118,-258.749 -56.3062,-266.696"/>
</g>
<!-- 5 -->
<g id="node6" class="node"><title>5</title>
<ellipse fill="#ff3030" stroke="black" cx="-61.3926" cy="-166.844" rx="18" ry="18"/>
<text text-anchor="middle" x="-61.3926" y="-164.344" font-family="monospace" font-size="10.00">5</text>
</g>
<!-- 5&#45;&#45;6 -->
<g id="edge33" class="edge"><title>5&#45;&#45;6</title>
<path fill="none" stroke="black" d="M-49.8723,-152.46C-39.9646,-140.09 -25.4033,-121.91 -13.3189,-106.822"/>
</g>
<!-- 32 -->
<g id="node33" class="node"><title>32</title>
<ellipse fill="#ff3030" stroke="black" cx="-13.5983" cy="-198.184" rx="3.5" ry="3.5"/>
<text text-anchor="middle" x="-13.5983" y="-195.684" font-family="monospace" font-size="10.00">32</text>
</g>
<!-- 5&#45;&#45;32 -->
<g id="edge34" class="edge"><title>5&#45;&#45;32</title>
<path fill="none" stroke="black" d="M-46.2702,-176.76C-35.7685,-183.646 -22.6414,-192.254 -16.7342,-196.128"/>
</g>
<!-- 38 -->
<g id="node39" class="node"><title>38</title>
<ellipse fill="#ff3030" stroke="black" cx="-74.6598" cy="-228.088" rx="3.5" ry="3.5"/>
<text text-anchor="middle" x="-74.6598" y="-225.588" font-family="monospace" font-size="10.00">38</text>
</g>
<!-- 5&#45;&#45;38 -->
<g id="edge35" class="edge"><title>5&#45;&#45;38</title>
<path fill="none" stroke="black" d="M-65.23,-184.558C-68.23,-198.406 -72.1638,-216.566 -73.843,-224.317"/>
</g>
<!-- 39 -->
<g id="node40" class="node"><title>39</title>
<ellipse fill="#ff3030" stroke="black" cx="-104.228" cy="-212.378" rx="3.5" ry="3.5"/>
<text text-anchor="middle" x="-104.228" y="-209.878" font-family="monospace" font-size="10.00">39</text>
</g>
<!-- 5&#45;&#45;39 -->
<g id="edge36" class="edge"><title>5&#45;&#45;39</title>
<path fill="none" stroke="black" d="M-74.013,-180.259C-83.6869,-190.543 -96.2591,-203.907 -101.621,-209.606"/>
</g>
<!-- 5&#45;&#45;60 -->
<g id="edge71" class="edge"><title>5&#45;&#45;60</title>
<path fill="none" stroke="black" stroke-dasharray="5,2" d="M-79.547,-167.198C-93.4746,-167.469 -111.417,-167.819 -118.131,-167.95"/>
</g>
<!-- 7 -->
<g id="node8" class="node"><title>7</title>
<ellipse fill="#ff3030" stroke="black" cx="-50.2361" cy="-43.6977" rx="9.5" ry="9.5"/>
<text text-anchor="middle" x="-50.2361" y="-41.1977" font-family="monospace" font-size="10.00">7</text>
</g>
<!-- 6&#45;&#45;7 -->
<g id="edge37" class="edge"><title>6&#45;&#45;7</title>
<path fill="none" stroke="black" d="M-21.2751,-61.5074C-28.7706,-56.898 -36.2363,-52.307 -41.71,-48.9409"/>
</g>
<!-- 8 -->
<g id="node9" class="node"><title>8</title>
<ellipse fill="#ff3030" stroke="black" cx="-61.8753" cy="-107.329" rx="6" ry="6"/>
<text text-anchor="middle" x="-61.8753" y="-104.829" font-family="monospace" font-size="10.00">8</text>
</g>
<!-- 6&#45;&#45;8 -->
<g id="edge38" class="edge"><title>6&#45;&#45;8</title>
<path fill="none" stroke="black" d="M-23.8728,-92.4037C-36.1361,-97.2199 -48.8705,-102.221 -56.0425,-105.038"/>
</g>
<!-- 13 -->
<g id="node14" class="node"><title>13</title>
<ellipse fill="#ff3030" stroke="black" cx="62.0181" cy="-138.159" rx="8" ry="8"/>
<text text-anchor="middle" x="62.0181" y="-135.659" font-family="monospace" font-size="10.00">13</text>
</g>
<!-- 6&#45;&#45;13 -->
<g id="edge39" class="edge"><title>6&#45;&#45;13</title>
<path fill="none" stroke="black" d="M31.7464,-105.193C40.7816,-115.032 50.3477,-125.45 56.2517,-131.879"/>
</g>
<!-- 14 -->
<g id="node15" class="node"><title>14</title>
<path fill="#98f5ff" stroke="black" stroke-width="0.5" d="M125.9,-82.541C125.9,-82.541 131.9,-82.541 131.9,-82.541 131.9,-82.8029 131.882,-83.0645 131.848,-83.3242 131.814,-83.5838 131.763,-83.841 131.695,-84.094 131.627,-84.3469 131.543,-84.5952 131.443,-84.8371 131.343,-85.0791 131.227,-85.3142 131.096,-85.541 130.965,-85.7678 130.819,-85.9858 130.66,-86.1936 130.5,-86.4014 130.327,-86.5985 130.142,-86.7837 129.957,-86.9689 129.76,-87.1417 129.552,-87.3012 129.344,-87.4606 129.126,-87.6062 128.9,-87.7372 128.673,-87.8681 128.438,-87.9841 128.196,-88.0843 127.954,-88.1845 127.705,-88.2688 127.452,-88.3366 127.199,-88.4044 126.942,-88.4555 126.683,-88.4897 126.423,-88.5239 126.161,-88.541 125.9,-88.541 125.638,-88.541 125.376,-88.5239 125.116,-88.4897 124.857,-88.4555 124.6,-88.4044 124.347,-88.3366 124.094,-88.2688 123.845,-88.1845 123.603,-88.0843 123.361,-87.9841 123.126,-87.8681 122.9,-87.7372 122.9,-87.7372 125.9,-82.541 125.9,-82.541"/>
<path fill="#ff3030" stroke="black" stroke-width="0.5" d="M125.9,-82.541C125.9,-82.541 122.9,-87.7372 122.9,-87.7372 122.673,-87.6062 122.455,-87.4606 122.247,-87.3012 122.039,-87.1417 121.842,-86.9689 121.657,-86.7837 121.472,-86.5985 121.299,-86.4014 121.139,-86.1936 120.98,-85.9858 120.834,-85.7678 120.703,-85.541 120.572,-85.3142 120.456,-85.0791 120.356,-84.8371 120.256,-84.5952 120.172,-84.3469 120.104,-84.094 120.036,-83.841 119.985,-83.5838 119.951,-83.3242 119.917,-83.0645 119.9,-82.8029 119.9,-82.541 119.9,-82.2791 119.917,-82.0175 119.951,-81.7579 119.985,-81.4982 120.036,-81.2411 120.104,-80.9881 120.172,-80.7352 120.256,-80.4869 120.356,-80.2449 120.456,-80.003 120.572,-79.7678 120.703,-79.541 120.834,-79.3142 120.98,-79.0962 121.139,-78.8885 121.299,-78.6807 121.472,-78.4836 121.657,-78.2984 121.842,-78.1132 122.039,-77.9403 122.247,-77.7809 122.455,-77.6215 122.673,-77.4758 122.9,-77.3449 123.126,-77.2139 123.361,-77.098 123.603,-76.9978 123.845,-76.8975 124.094,-76.8133 124.347,-76.7455 124.6,-76.6777 124.857,-76.6266 125.116,-76.5924 125.376,-76.5582 125.638,-76.541 125.9,-76.541 126.161,-76.541 126.423,-76.5582 126.683,-76.5924 126.942,-76.6266 127.199,-76.6777 127.452,-76.7455 127.705,-76.8133 127.954,-76.8975 128.196,-76.9978 128.438,-77.098 128.673,-77.2139 128.9,-77.3449 129.126,-77.4758 129.344,-77.6215 129.552,-77.7809 129.76,-77.9403 129.957,-78.1132 130.142,-78.2984 130.327,-78.4836 130.5,-78.6807 130.66,-78.8885 130.819,-79.0962 130.965,-79.3142 131.096,-79.541 131.227,-79.7678 131.343,-80.003 131.443,-80.2449 131.543,-80.4869 131.627,-80.7352 131.695,-80.9881 131.763,-81.2411 131.814,-81.4982 131.848,-81.7579 131.882,-82.0175 131.9,-82.2791 131.9,-82.541 131.9,-82.541 125.9,-82.541 125.9,-82.541"/>
<ellipse fill="none" stroke="black" cx="125.9" cy="-82.541" rx="6" ry="6"/>
<text text-anchor="middle" x="125.9" y="-80.041" font-family="monospace" font-size="10.00">14</text>
</g>
<!-- 6&#45;&#45;14 -->
<g id="edge40" class="edge"><title>6&#45;&#45;14</title>
<path fill="none" stroke="black" d="M42.9991,-80.5649C70.083,-81.2105 105.447,-82.0535 119.622,-82.3914"/>
</g>
<!-- 17 -->
<g id="node18" class="node"><title>17</title>
<ellipse fill="#ff3030" stroke="black" cx="65.3266" cy="-30.0553" rx="6" ry="6"/>
<text text-anchor="middle" x="65.3266" y="-27.5553" font-family="monospace" font-size="10.00">17</text>
</g>
<!-- 6&#45;&#45;17 -->
<g id="edge41" class="edge"><title>6&#45;&#45;17</title>
<path fill="none" stroke="black" d="M34.5161,-56.9332C44.5755,-48.1578 55.0259,-39.0412 60.801,-34.0033"/>
</g>
<!-- 19 -->
<g id="node20" class="node"><title>19</title>
<path fill="#98f5ff" stroke="black" stroke-width="0.5" d="M-85.3427,-60.0037C-85.3427,-60.0037 -73.8427,-60.0037 -73.8427,-60.0037 -73.8427,-60.6062 -73.89,-61.2077 -73.9843,-61.8027 -74.0785,-62.3978 -74.2194,-62.9845 -74.4055,-63.5574 -74.5917,-64.1304 -74.8226,-64.6878 -75.0961,-65.2246 -75.3696,-65.7614 -75.6849,-66.2759 -76.039,-66.7633 -76.3931,-67.2506 -76.785,-67.7095 -77.211,-68.1355 -77.637,-68.5615 -78.0958,-68.9533 -78.5832,-69.3074 -79.0705,-69.6615 -79.585,-69.9768 -80.1218,-70.2503 -80.6586,-70.5238 -81.216,-70.7547 -81.789,-70.9409 -82.362,-71.127 -82.9487,-71.2679 -83.5437,-71.3621 -84.1387,-71.4564 -84.7402,-71.5037 -85.3427,-71.5037 -85.9451,-71.5037 -86.5467,-71.4564 -87.1417,-71.3621 -87.7367,-71.2679 -88.3234,-71.127 -88.8964,-70.9409 -89.4693,-70.7547 -90.0268,-70.5238 -90.5636,-70.2503 -91.1004,-69.9768 -91.6148,-69.6615 -92.1022,-69.3074 -92.5896,-68.9533 -93.0484,-68.5615 -93.4744,-68.1355 -93.9004,-67.7095 -94.2923,-67.2506 -94.6464,-66.7633 -94.6464,-66.7633 -85.3427,-60.0037 -85.3427,-60.0037"/>
<path fill="deepskyblue" stroke="black" stroke-width="0.5" d="M-85.3427,-60.0037C-85.3427,-60.0037 -94.6464,-66.7633 -94.6464,-66.7633 -94.9119,-66.3978 -95.1557,-66.017 -95.3764,-65.6229 -95.5971,-65.2287 -95.7944,-64.8219 -95.9673,-64.4046 -96.1402,-63.9872 -96.2883,-63.5601 -96.4109,-63.1253 -96.5335,-62.6905 -96.6304,-62.2489 -96.7011,-61.8027 -96.7718,-61.3566 -96.8161,-60.9066 -96.8338,-60.4552 -96.8516,-60.0038 -96.8427,-59.5518 -96.8072,-59.1014 -96.7718,-58.6511 -96.7098,-58.2032 -96.6217,-57.7602 -96.5336,-57.3171 -96.4194,-56.8797 -96.2798,-56.45 -96.1402,-56.0204 -95.9755,-55.5994 -95.7863,-55.1891 -95.5972,-54.7789 -95.3841,-54.3802 -95.1481,-53.995 -94.912,-53.6098 -94.6535,-53.2389 -94.3738,-52.8841 -94.0942,-52.5294 -93.7938,-52.1914 -93.4744,-51.872 -93.155,-51.5526 -92.817,-51.2522 -92.4623,-50.9726 -92.1075,-50.6929 -91.7366,-50.4344 -91.3514,-50.1984 -90.9663,-49.9623 -90.5675,-49.7492 -90.1573,-49.5601 -89.747,-49.371 -89.326,-49.2062 -88.8964,-49.0666 -88.4668,-48.927 -88.0293,-48.8128 -87.5862,-48.7247 -87.1432,-48.6366 -86.6953,-48.5746 -86.245,-48.5392 -85.7946,-48.5037 -85.3426,-48.4949 -84.8912,-48.5126 -84.4398,-48.5303 -83.9899,-48.5746 -83.5437,-48.6453 -83.0975,-48.716 -82.6559,-48.8129 -82.2211,-48.9355 -81.7863,-49.0581 -81.3592,-49.2062 -80.9418,-49.3791 -80.5245,-49.552 -80.1177,-49.7493 -79.7235,-49.97 -79.3294,-50.1908 -78.9486,-50.4345 -78.5832,-50.7 -78.2177,-50.9656 -77.8682,-51.2524 -77.5365,-51.559 -77.2048,-51.8657 -76.8914,-52.1916 -76.598,-52.5351 -76.3046,-52.8786 -76.0318,-53.2391 -75.7808,-53.6147 -75.5298,-53.9903 -75.3012,-54.3803 -75.0961,-54.7828 -74.891,-55.1853 -74.7098,-55.5996 -74.5535,-56.0234 -74.3971,-56.4472 -74.2659,-56.8799 -74.1604,-57.3191 -74.055,-57.7584 -73.9755,-58.2034 -73.9224,-58.652 -73.8693,-59.1007 -73.8427,-59.552 -73.8427,-60.0037 -73.8427,-60.0037 -85.3427,-60.0037 -85.3427,-60.0037"/>
<ellipse fill="none" stroke="black" cx="-85.3427" cy="-60.0037" rx="11.5" ry="11.5"/>
<text text-anchor="middle" x="-85.3427" y="-57.5037" font-family="monospace" font-size="10.00">19</text>
</g>
<!-- 6&#45;&#45;19 -->
<g id="edge42" class="edge"><title>6&#45;&#45;19</title>
<path fill="none" stroke="black" d="M-25.4606,-72.6144C-42.4476,-69.0371 -61.9153,-64.9373 -73.9216,-62.4089"/>
</g>
<!-- 26 -->
<g id="node27" class="node"><title>26</title>
<ellipse fill="deepskyblue" stroke="black" cx="72.7824" cy="-49.7778" rx="5" ry="5"/>
<text text-anchor="middle" x="72.7824" y="-47.2778" font-family="monospace" font-size="10.00">26</text>
</g>
<!-- 6&#45;&#45;26 -->
<g id="edge43" class="edge"><title>6&#45;&#45;26</title>
<path fill="none" stroke="black" d="M39.8229,-65.1097C50.808,-59.9997 61.9103,-54.8352 68.0135,-51.9962"/>
</g>
<!-- 31 -->
<g id="node32" class="node"><title>31</title>
<path fill="#98f5ff" stroke="black" stroke-width="0.5" d="M106.904,-51.2176C106.904,-51.2176 119.404,-51.2176 119.404,-51.2176 119.404,-51.8997 119.348,-52.5808 119.237,-53.2538 119.126,-53.9268 118.96,-54.5896 118.741,-55.2356 118.522,-55.8815 118.25,-56.5085 117.928,-57.1101 117.607,-57.7117 117.236,-58.2859 116.821,-58.8271 116.406,-59.3683 115.947,-59.8746 115.449,-60.3409 114.951,-60.8072 114.416,-61.232 113.849,-61.611 113.282,-61.99 112.684,-62.3219 112.063,-62.6034 111.442,-62.8849 110.798,-63.1151 110.139,-63.2917 109.481,-63.4682 108.808,-63.5905 108.129,-63.6574 107.451,-63.7243 106.767,-63.7355 106.087,-63.6908 105.406,-63.6462 104.73,-63.546 104.066,-63.3911 103.401,-63.2362 102.751,-63.0271 102.121,-62.7661 101.49,-62.505 100.883,-62.1928 100.303,-61.8326 99.7241,-61.4724 99.1753,-61.0654 98.6624,-60.6156 98.1495,-60.1658 97.6744,-59.6748 97.2416,-59.1475 96.8089,-58.6202 96.42,-58.0584 96.0789,-57.4676 96.0789,-57.4676 106.904,-51.2176 106.904,-51.2176"/>
<path fill="deepskyblue" stroke="black" stroke-width="0.5" d="M106.904,-51.2176C106.904,-51.2176 96.0789,-57.4676 96.0789,-57.4676 95.8402,-57.0542 95.6254,-56.6274 95.4356,-56.1895 95.2457,-55.7515 95.0811,-55.303 94.9425,-54.8462 94.8039,-54.3893 94.6916,-53.925 94.6062,-53.4553 94.5207,-52.9857 94.4622,-52.5115 94.431,-52.0351 94.3998,-51.5588 94.3959,-51.081 94.4193,-50.6043 94.4427,-50.1275 94.4934,-49.6524 94.5712,-49.1814 94.649,-48.7104 94.7536,-48.2443 94.8847,-47.7852 95.0158,-47.3262 95.1731,-46.8751 95.3557,-46.4341 95.5384,-45.993 95.7462,-45.5628 95.9781,-45.1456 96.21,-44.7283 96.4656,-44.3247 96.7437,-43.9366 97.0217,-43.5486 97.3218,-43.1768 97.6423,-42.8231 97.9629,-42.4694 98.3035,-42.1344 98.6624,-41.8196 99.0213,-41.5049 99.398,-41.2109 99.7905,-40.9392 100.183,-40.6676 100.591,-40.4186 101.012,-40.1936 101.433,-39.9686 101.866,-39.7678 102.31,-39.5924 102.754,-39.4169 103.208,-39.2671 103.669,-39.1435 104.13,-39.02 104.598,-38.9229 105.07,-38.8529 105.542,-38.7828 106.018,-38.7399 106.495,-38.7243 106.972,-38.7087 107.45,-38.7204 107.926,-38.7594 108.402,-38.7984 108.875,-38.8647 109.343,-38.9578 109.811,-39.0509 110.274,-39.1708 110.728,-39.3168 111.183,-39.4628 111.628,-39.6348 112.063,-39.8318 112.498,-40.0288 112.921,-40.2506 113.331,-40.496 113.74,-40.7414 114.135,-41.0101 114.514,-41.3007 114.892,-41.5913 115.254,-41.9033 115.597,-42.2353 115.94,-42.5673 116.264,-42.9187 116.567,-43.2877 116.87,-43.6567 117.151,-44.0428 117.41,-44.444 117.669,-44.8452 117.904,-45.2609 118.115,-45.689 118.326,-46.1171 118.513,-46.557 118.674,-47.0065 118.834,-47.4559 118.969,-47.9142 119.078,-48.3791 119.186,-48.844 119.268,-49.3148 119.322,-49.789 119.377,-50.2633 119.404,-50.7402 119.404,-51.2176 119.404,-51.2176 106.904,-51.2176 106.904,-51.2176"/>
<ellipse fill="none" stroke="black" cx="106.904" cy="-51.2176" rx="12.5" ry="12.5"/>
<text text-anchor="middle" x="106.904" y="-48.7176" font-family="monospace" font-size="10.00">31</text>
</g>
<!-- 6&#45;&#45;31 -->
<g id="edge47" class="edge"><title>6&#45;&#45;31</title>
<path fill="none" stroke="black" d="M41.7311,-70.0833C60.0432,-64.7825 81.64,-58.5308 94.7977,-54.7221"/>
</g>
<!-- 47 -->
<g id="node48" class="node"><title>47</title>
<ellipse fill="brown" stroke="black" cx="74.864" cy="-79.6278" rx="3.5" ry="3.5"/>
<text text-anchor="middle" x="74.864" y="-77.1278" font-family="monospace" font-size="10.00">47</text>
</g>
<!-- 6&#45;&#45;47 -->
<g id="edge48" class="edge"><title>6&#45;&#45;47</title>
<path fill="none" stroke="black" d="M43.1763,-79.681C54.4879,-79.662 65.5585,-79.6434 71.1347,-79.6341"/>
</g>
<!-- 48 -->
<g id="node49" class="node"><title>48</title>
<ellipse fill="brown" stroke="black" cx="9.07495" cy="-156.509" rx="6" ry="6"/>
<text text-anchor="middle" x="9.07495" y="-154.009" font-family="monospace" font-size="10.00">48</text>
</g>
<!-- 6&#45;&#45;48 -->
<g id="edge49" class="edge"><title>6&#45;&#45;48</title>
<path fill="none" stroke="black" d="M8.69104,-114.53C8.81585,-128.178 8.94625,-142.436 9.01839,-150.324"/>
</g>
<!-- 50 -->
<g id="node51" class="node"><title>50</title>
<ellipse fill="brown" stroke="black" cx="-48.7239" cy="-9.53639" rx="8" ry="8"/>
<text text-anchor="middle" x="-48.7239" y="-7.03639" font-family="monospace" font-size="10.00">50</text>
</g>
<!-- 6&#45;&#45;50 -->
<g id="edge52" class="edge"><title>6&#45;&#45;50</title>
<path fill="none" stroke="black" d="M-13.5389,-52.7979C-24.483,-39.3417 -36.8045,-24.1918 -43.5752,-15.867"/>
</g>
<!-- 51 -->
<g id="node52" class="node"><title>51</title>
<ellipse fill="brown" stroke="black" cx="16.8383" cy="-15.6457" rx="3.5" ry="3.5"/>
<text text-anchor="middle" x="16.8383" y="-13.1457" font-family="monospace" font-size="10.00">51</text>
</g>
<!-- 6&#45;&#45;51 -->
<g id="edge53" class="edge"><title>6&#45;&#45;51</title>
<path fill="none" stroke="black" d="M12.903,-45.441C14.3181,-34.7262 15.6888,-24.3487 16.3779,-19.1315"/>
</g>
<!-- 54 -->
<g id="node55" class="node"><title>54</title>
<ellipse fill="brown" stroke="black" cx="44.972" cy="-22.1372" rx="3.5" ry="3.5"/>
<text text-anchor="middle" x="44.972" y="-19.6372" font-family="monospace" font-size="10.00">54</text>
</g>
<!-- 6&#45;&#45;54 -->
<g id="edge54" class="edge"><title>6&#45;&#45;54</title>
<path fill="none" stroke="black" d="M26.8869,-50.6009C33.4115,-40.3319 39.8998,-30.1202 43.0334,-25.1884"/>
</g>
<!-- anon_6_27_0 -->
<g id="node66" class="node"><title>anon_6_27_0</title>
<ellipse fill="white" stroke="black" cx="-79.0262" cy="-82.8619" rx="2.5" ry="2.5"/>
</g>
<!-- 6&#45;&#45;anon_6_27_0 -->
<g id="edge44" class="edge"><title>6&#45;&#45;anon_6_27_0</title>
<path fill="none" stroke="black" d="M-26.1695,-80.9735C-46.0185,-81.6827 -68.5065,-82.4861 -76.2417,-82.7624"/>
</g>
<!-- anon_6_49_0 -->
<g id="node68" class="node"><title>anon_6_49_0</title>
<ellipse fill="white" stroke="black" cx="72.9041" cy="-110.99" rx="2.5" ry="2.5"/>
</g>
<!-- 6&#45;&#45;anon_6_49_0 -->
<g id="edge50" class="edge"><title>6&#45;&#45;anon_6_49_0</title>
<path fill="none" stroke="black" d="M39.5043,-94.8154C52.1385,-100.934 65.0049,-107.164 70.342,-109.749"/>
</g>
<!-- 57 -->
<g id="node58" class="node"><title>57</title>
<ellipse fill="black" stroke="black" cx="-111.767" cy="-124.667" rx="6" ry="6"/>
<text text-anchor="middle" x="-111.767" y="-122.167" font-family="monospace" font-size="10.00">57</text>
</g>
<!-- 8&#45;&#45;57 -->
<g id="edge55" class="edge"><title>8&#45;&#45;57</title>
<path fill="none" stroke="black" d="M-67.5985,-109.318C-77.1199,-112.627 -96.1216,-119.23 -105.801,-122.594"/>
</g>
<!-- 9 -->
<g id="node10" class="node"><title>9</title>
<ellipse fill="deepskyblue" stroke="black" cx="221.651" cy="-168.504" rx="3.5" ry="3.5"/>
<text text-anchor="middle" x="221.651" y="-166.004" font-family="monospace" font-size="10.00">9</text>
</g>
<!-- 15 -->
<g id="node16" class="node"><title>15</title>
<path fill="#98f5ff" stroke="black" stroke-width="0.5" d="M196.937,-112.28C196.937,-112.28 214.937,-112.28 214.937,-112.28 214.937,-112.94 214.901,-113.6 214.829,-114.256 214.756,-114.912 214.648,-115.563 214.504,-116.207 214.36,-116.851 214.181,-117.487 213.967,-118.111 213.753,-118.735 213.505,-119.347 213.224,-119.944 212.943,-120.542 212.63,-121.123 212.285,-121.685 211.94,-122.248 211.565,-122.791 211.16,-123.313 210.756,-123.834 210.323,-124.333 209.864,-124.807 209.404,-125.281 208.919,-125.729 208.411,-126.15 207.902,-126.57 207.371,-126.963 206.82,-127.325 206.268,-127.687 205.697,-128.019 205.109,-128.319 204.521,-128.618 203.917,-128.885 203.3,-129.118 202.683,-129.352 202.053,-129.551 201.414,-129.715 200.775,-129.879 200.127,-130.008 199.474,-130.101 198.82,-130.194 198.162,-130.251 197.503,-130.272 196.843,-130.292 196.183,-130.277 195.525,-130.225 194.867,-130.173 194.213,-130.085 193.564,-129.962 193.564,-129.962 196.937,-112.28 196.937,-112.28"/>
<path fill="deepskyblue" stroke="black" stroke-width="0.5" d="M196.937,-112.28C196.937,-112.28 193.564,-129.962 193.564,-129.962 192.731,-129.803 191.91,-129.585 191.107,-129.31 190.304,-129.035 189.522,-128.704 188.765,-128.319 188.009,-127.933 187.281,-127.495 186.587,-127.007 185.893,-126.519 185.234,-125.983 184.615,-125.402 183.997,-124.821 183.42,-124.197 182.89,-123.535 182.359,-122.873 181.876,-122.174 181.444,-121.443 181.012,-120.713 180.632,-119.953 180.307,-119.169 179.983,-118.385 179.714,-117.579 179.503,-116.757 179.292,-115.935 179.139,-115.099 179.046,-114.256 178.953,-113.412 178.92,-112.563 178.946,-111.715 178.973,-110.867 179.059,-110.022 179.205,-109.186 179.351,-108.35 179.556,-107.525 179.818,-106.718 180.08,-105.911 180.399,-105.124 180.773,-104.362 181.146,-103.599 181.573,-102.865 182.05,-102.163 182.527,-101.461 183.053,-100.794 183.624,-100.166 184.195,-99.5386 184.81,-98.9521 185.464,-98.4112 186.117,-97.8703 186.809,-97.3763 187.532,-96.9329 188.256,-96.4895 189.01,-96.0979 189.789,-95.7609 190.567,-95.4238 191.369,-95.1423 192.188,-94.9184 193.006,-94.6945 193.839,-94.5287 194.681,-94.4224 195.523,-94.316 196.372,-94.2693 197.22,-94.2827 198.068,-94.296 198.915,-94.3693 199.753,-94.5021 200.591,-94.6348 201.419,-94.8267 202.23,-95.0762 203.041,-95.3257 203.833,-95.6322 204.601,-95.9936 205.369,-96.3549 206.11,-96.77 206.82,-97.2359 207.529,-97.7018 208.204,-98.2173 208.841,-98.7784 209.477,-99.3396 210.073,-99.9451 210.625,-100.59 211.176,-101.236 211.68,-101.919 212.135,-102.636 212.59,-103.352 212.993,-104.1 213.343,-104.873 213.692,-105.647 213.986,-106.444 214.223,-107.259 214.459,-108.073 214.638,-108.904 214.758,-109.744 214.877,-110.584 214.937,-111.432 214.937,-112.28 214.937,-112.28 196.937,-112.28 196.937,-112.28"/>
<ellipse fill="none" stroke="black" cx="196.937" cy="-112.28" rx="18" ry="18"/>
<text text-anchor="middle" x="196.937" y="-109.78" font-family="monospace" font-size="10.00">15</text>
</g>
<!-- 9&#45;&#45;15 -->
<g id="edge56" class="edge"><title>9&#45;&#45;15</title>
<path fill="none" stroke="black" d="M220.179,-165.156C217.103,-158.158 209.816,-141.579 204.214,-128.836"/>
</g>
<!-- 11&#45;&#45;48 -->
<g id="edge72" class="edge"><title>11&#45;&#45;48</title>
<path fill="none" stroke="black" stroke-dasharray="5,2" d="M28.13,-196.358C24.5883,-188.951 16.1341,-171.272 11.7755,-162.157"/>
</g>
<!-- 12 -->
<g id="node13" class="node"><title>12</title>
<ellipse fill="deepskyblue" stroke="black" cx="252.861" cy="-86.8677" rx="3.5" ry="3.5"/>
<text text-anchor="middle" x="252.861" y="-84.3677" font-family="monospace" font-size="10.00">12</text>
</g>
<!-- 12&#45;&#45;15 -->
<g id="edge57" class="edge"><title>12&#45;&#45;15</title>
<path fill="none" stroke="black" d="M249.53,-88.3813C242.57,-91.5441 226.079,-99.0377 213.404,-104.798"/>
</g>
<!-- 28 -->
<g id="node29" class="node"><title>28</title>
<ellipse fill="#ff3030" stroke="black" cx="98.8012" cy="-172.788" rx="3.5" ry="3.5"/>
<text text-anchor="middle" x="98.8012" y="-170.288" font-family="monospace" font-size="10.00">28</text>
</g>
<!-- 13&#45;&#45;28 -->
<g id="edge58" class="edge"><title>13&#45;&#45;28</title>
<path fill="none" stroke="black" d="M68.0921,-143.877C76.2541,-151.561 90.4063,-164.884 96.2074,-170.346"/>
</g>
<!-- 14&#45;&#45;15 -->
<g id="edge59" class="edge"><title>14&#45;&#45;15</title>
<path fill="none" stroke="black" d="M131.474,-84.8746C141.809,-89.2016 164.323,-98.6269 180.046,-105.209"/>
</g>
<!-- 61 -->
<g id="node62" class="node"><title>61</title>
<ellipse fill="white" stroke="black" cx="161.975" cy="-49.6142" rx="2.5" ry="2.5"/>
<text text-anchor="middle" x="161.975" y="-47.1142" font-family="monospace" font-size="10.00">61</text>
</g>
<!-- 14&#45;&#45;61 -->
<g id="edge60" class="edge"><title>14&#45;&#45;61</title>
<path fill="none" stroke="black" d="M130.616,-78.2364C138.561,-70.9847 154.297,-56.6219 159.919,-51.4908"/>
</g>
<!-- anon_15_23_0 -->
<g id="node69" class="node"><title>anon_15_23_0</title>
<ellipse fill="white" stroke="black" cx="257.602" cy="-134.419" rx="2.5" ry="2.5"/>
</g>
<!-- 15&#45;&#45;anon_15_23_0 -->
<g id="edge61" class="edge"><title>15&#45;&#45;anon_15_23_0</title>
<path fill="none" stroke="black" d="M214.159,-118.565C228.731,-123.883 248.303,-131.025 255.13,-133.516"/>
</g>
<!-- 33 -->
<g id="node34" class="node"><title>33</title>
<ellipse fill="deepskyblue" stroke="black" cx="-142.465" cy="-55.6268" rx="3.5" ry="3.5"/>
<text text-anchor="middle" x="-142.465" y="-53.1268" font-family="monospace" font-size="10.00">33</text>
</g>
<!-- 19&#45;&#45;33 -->
<g id="edge64" class="edge"><title>19&#45;&#45;33</title>
<path fill="none" stroke="black" d="M-96.9022,-59.118C-109.942,-58.1188 -130.416,-56.55 -138.75,-55.9115"/>
</g>
<!-- 20 -->
<g id="node21" class="node"><title>20</title>
<ellipse fill="deepskyblue" stroke="black" cx="244.729" cy="-13.1808" rx="3.5" ry="3.5"/>
<text text-anchor="middle" x="244.729" y="-10.6808" font-family="monospace" font-size="10.00">20</text>
</g>
<!-- anon_20_61_0 -->
<g id="node71" class="node"><title>anon_20_61_0</title>
<ellipse fill="white" stroke="black" cx="203.2" cy="-30.3957" rx="2.5" ry="2.5"/>
</g>
<!-- 20&#45;&#45;anon_20_61_0 -->
<g id="edge65" class="edge"><title>20&#45;&#45;anon_20_61_0</title>
<path fill="none" stroke="black" d="M241.471,-14.5316C233.516,-17.8289 213.223,-26.2409 205.893,-29.2794"/>
</g>
<!-- 23 -->
<g id="node24" class="node"><title>23</title>
<ellipse fill="deepskyblue" stroke="black" cx="340.619" cy="-161.426" rx="3.5" ry="3.5"/>
<text text-anchor="middle" x="340.619" y="-158.926" font-family="monospace" font-size="10.00">23</text>
</g>
<!-- 27 -->
<g id="node28" class="node"><title>27</title>
<ellipse fill="#ff3030" stroke="black" cx="-174.296" cy="-93.3167" rx="5" ry="5"/>
<text text-anchor="middle" x="-174.296" y="-90.8167" font-family="monospace" font-size="10.00">27</text>
</g>
<!-- 31&#45;&#45;61 -->
<g id="edge73" class="edge"><title>31&#45;&#45;61</title>
<path fill="none" stroke="black" stroke-dasharray="5,2" d="M119.401,-50.8538C132.602,-50.4694 152.457,-49.8913 159.438,-49.6881"/>
</g>
<!-- 32&#45;&#45;48 -->
<g id="edge74" class="edge"><title>32&#45;&#45;48</title>
<path fill="none" stroke="black" stroke-dasharray="5,2" d="M-11.8191,-194.914C-7.93565,-187.776 1.33449,-170.737 6.11374,-161.952"/>
</g>
<!-- 35 -->
<g id="node36" class="node"><title>35</title>
<ellipse fill="#ff3030" stroke="black" cx="-126.325" cy="160.849" rx="3.5" ry="3.5"/>
<text text-anchor="middle" x="-126.325" y="163.349" font-family="monospace" font-size="10.00">35</text>
</g>
<!-- 37 -->
<g id="node38" class="node"><title>37</title>
<ellipse fill="#ff3030" stroke="black" cx="-161.198" cy="-189.42" rx="3.5" ry="3.5"/>
<text text-anchor="middle" x="-161.198" y="-186.92" font-family="monospace" font-size="10.00">37</text>
</g>
<!-- 37&#45;&#45;60 -->
<g id="edge67" class="edge"><title>37&#45;&#45;60</title>
<path fill="none" stroke="black" d="M-158.03,-187.739C-150.148,-183.558 -129.805,-172.767 -123.045,-169.181"/>
</g>
<!-- 40 -->
<g id="node41" class="node"><title>40</title>
<ellipse fill="deepskyblue" stroke="black" cx="-31.4636" cy="226.963" rx="3.5" ry="3.5"/>
<text text-anchor="middle" x="-31.4636" y="229.463" font-family="monospace" font-size="10.00">40</text>
</g>
<!-- 41&#45;&#45;50 -->
<g id="edge75" class="edge"><title>41&#45;&#45;50</title>
<path fill="none" stroke="black" stroke-dasharray="5,2" d="M-27.7078,31.0409C-31.2774,24.1487 -39.8722,7.55416 -44.8953,-2.14435"/>
</g>
<!-- 42 -->
<g id="node43" class="node"><title>42</title>
<ellipse fill="#1874cd" stroke="black" cx="74.6917" cy="214.106" rx="3.5" ry="3.5"/>
<text text-anchor="middle" x="74.6917" y="216.606" font-family="monospace" font-size="10.00">42</text>
</g>
<!-- 42&#45;&#45;46 -->
<g id="edge68" class="edge"><title>42&#45;&#45;46</title>
<path fill="none" stroke="black" d="M72.86,210.941C68.4749,203.365 57.4186,184.263 53.1079,176.816"/>
</g>
<!-- 45 -->
<g id="node46" class="node"><title>45</title>
<ellipse fill="#1874cd" stroke="black" cx="123.112" cy="164.356" rx="3.5" ry="3.5"/>
<text text-anchor="middle" x="123.112" y="166.856" font-family="monospace" font-size="10.00">45</text>
</g>
<!-- 49 -->
<g id="node50" class="node"><title>49</title>
<ellipse fill="brown" stroke="black" cx="110.985" cy="-132.795" rx="3.5" ry="3.5"/>
<text text-anchor="middle" x="110.985" y="-130.295" font-family="monospace" font-size="10.00">49</text>
</g>
<!-- 52 -->
<g id="node53" class="node"><title>52</title>
<ellipse fill="brown" stroke="black" cx="-99.8098" cy="-10.356" rx="3.5" ry="3.5"/>
<text text-anchor="middle" x="-99.8098" y="-7.85604" font-family="monospace" font-size="10.00">52</text>
</g>
<!-- 50&#45;&#45;52 -->
<g id="edge69" class="edge"><title>50&#45;&#45;52</title>
<path fill="none" stroke="black" d="M-57.1597,-9.67174C-68.4955,-9.85362 -88.1507,-10.169 -96.2074,-10.2982"/>
</g>
<!-- 53 -->
<g id="node54" class="node"><title>53</title>
<ellipse fill="brown" stroke="black" cx="-95.4007" cy="10.5272" rx="3.5" ry="3.5"/>
<text text-anchor="middle" x="-95.4007" y="13.0272" font-family="monospace" font-size="10.00">53</text>
</g>
<!-- 50&#45;&#45;53 -->
<g id="edge70" class="edge"><title>50&#45;&#45;53</title>
<path fill="none" stroke="black" d="M-56.4316,-6.2233C-66.789,-1.77124 -84.7478,5.94818 -92.1091,9.11239"/>
</g>
<!-- anon_3_35_0&#45;&#45;35 -->
<g id="edge18" class="edge"><title>anon_3_35_0&#45;&#45;35</title>
<path fill="none" stroke="black" d="M-88.6537,140.279C-95.8011,144.181 -115.479,154.926 -123.178,159.131"/>
</g>
<!-- anon_3_40_0&#45;&#45;40 -->
<g id="edge21" class="edge"><title>anon_3_40_0&#45;&#45;40</title>
<path fill="none" stroke="black" d="M-19.1849,186.43C-21.4247,193.824 -27.8919,215.173 -30.4268,223.541"/>
</g>
<!-- anon_3_45_0&#45;&#45;45 -->
<g id="edge26" class="edge"><title>anon_3_45_0&#45;&#45;45</title>
<path fill="none" stroke="black" d="M86.7819,141.439C93.6749,145.787 112.652,157.758 120.077,162.442"/>
</g>
<!-- anon_6_27_1 -->
<g id="node67" class="node"><title>anon_6_27_1</title>
<ellipse fill="white" stroke="black" cx="-126.391" cy="-87.4343" rx="2.5" ry="2.5"/>
</g>
<!-- anon_6_27_0&#45;&#45;anon_6_27_1 -->
<g id="edge45" class="edge"><title>anon_6_27_0&#45;&#45;anon_6_27_1</title>
<path fill="none" stroke="black" d="M-81.5727,-83.1077C-89.72,-83.8942 -115.109,-86.3452 -123.596,-87.1645"/>
</g>
<!-- anon_6_27_1&#45;&#45;27 -->
<g id="edge46" class="edge"><title>anon_6_27_1&#45;&#45;27</title>
<path fill="none" stroke="black" d="M-128.967,-87.7505C-136.585,-88.686 -159.109,-91.4518 -169.249,-92.6969"/>
</g>
<!-- anon_6_49_0&#45;&#45;49 -->
<g id="edge51" class="edge"><title>anon_6_49_0&#45;&#45;49</title>
<path fill="none" stroke="black" d="M75.4026,-112.42C82.0214,-116.21 100.016,-126.514 107.572,-130.841"/>
</g>
<!-- anon_15_23_1 -->
<g id="node70" class="node"><title>anon_15_23_1</title>
<ellipse fill="white" stroke="black" cx="299.18" cy="-148.278" rx="2.5" ry="2.5"/>
</g>
<!-- anon_15_23_0&#45;&#45;anon_15_23_1 -->
<g id="edge62" class="edge"><title>anon_15_23_0&#45;&#45;anon_15_23_1</title>
<path fill="none" stroke="black" d="M260.33,-135.328C267.846,-137.833 288.795,-144.816 296.387,-147.347"/>
</g>
<!-- anon_15_23_1&#45;&#45;23 -->
<g id="edge63" class="edge"><title>anon_15_23_1&#45;&#45;23</title>
<path fill="none" stroke="black" d="M301.899,-149.14C309.101,-151.425 328.683,-157.638 336.905,-160.247"/>
</g>
<!-- anon_20_61_0&#45;&#45;61 -->
<g id="edge66" class="edge"><title>anon_20_61_0&#45;&#45;61</title>
<path fill="none" stroke="black" d="M200.495,-31.6567C192.9,-35.1974 171.468,-45.1889 164.325,-48.5189"/>
</g>
</g>
</svg>
