<?xml version="1.0" encoding="UTF-8" standalone="no"?>
<!DOCTYPE svg PUBLIC "-//W3C//DTD SVG 1.1//EN"
 "http://www.w3.org/Graphics/SVG/1.1/DTD/svg11.dtd">
<!-- Generated by graphviz version 2.38.0 (20140413.2041)
 -->
<!-- Title: %3 Pages: 1 -->
<svg width="166pt" height="177pt"
 viewBox="0.00 0.00 165.97 176.96" xmlns="http://www.w3.org/2000/svg" xmlns:xlink="http://www.w3.org/1999/xlink">
<g id="graph0" class="graph" transform="scale(1 1) rotate(0) translate(83.8574 88.045)">
<title>%3</title>
<polygon fill="white" stroke="none" points="-83.8574,88.9194 -83.8574,-88.045 82.1167,-88.045 82.1167,88.9194 -83.8574,88.9194"/>
<!-- 0 -->
<g id="node1" class="node"><title>0</title>
<path fill="#1874cd" stroke="black" stroke-width="0.5" d="M-9.47181,-15.663C-9.47181,-15.663 9.52819,-15.663 9.52819,-15.663 9.52819,-16.3867 9.48684,-17.1099 9.40434,-17.8289 9.32185,-18.5479 9.19834,-19.2616 9.03442,-19.9665 8.8705,-20.6714 8.66644,-21.3663 8.42323,-22.048 8.18003,-22.7296 7.89808,-23.3968 7.57876,-24.0462 7.25944,-24.6957 6.90328,-25.3264 6.51201,-25.9352 6.12074,-26.544 5.695,-27.13 5.23688,-27.6903 4.77876,-28.2505 4.289,-28.7842 3.77001,-29.2885 3.25101,-29.7929 2.70361,-30.2672 2.1305,-30.7092 2.1305,-30.7092 -9.47181,-15.663 -9.47181,-15.663"/>
<path fill="olivedrab" stroke="black" stroke-width="0.5" d="M-9.47181,-15.663C-9.47181,-15.663 2.1305,-30.7092 2.1305,-30.7092 1.28848,-31.3585 0.393436,-31.9359 -0.545195,-32.4355 -1.48383,-32.9351 -2.46274,-33.3549 -3.47162,-33.6907 -4.48049,-34.0265 -5.51578,-34.277 -6.56657,-34.4396 -7.61735,-34.6022 -8.67994,-34.6763 -9.74312,-34.6611 -10.8063,-34.6459 -11.8663,-34.5415 -12.912,-34.349 -13.9578,-34.1565 -14.9855,-33.8765 -15.9844,-33.512 -16.9832,-33.1476 -17.9498,-32.6999 -18.8737,-32.1737 -19.7977,-31.6476 -20.6759,-31.0448 -21.499,-30.3717 -22.3222,-29.6986 -23.0874,-28.9577 -23.7865,-28.1566 -24.4857,-27.3555 -25.1164,-26.4971 -25.672,-25.5905 -26.2275,-24.6839 -26.706,-23.7323 -27.1024,-22.7456 -27.4987,-21.759 -27.8116,-20.7408 -28.0376,-19.7018 -28.2636,-18.6628 -28.402,-17.6067 -28.4514,-16.5445 -28.5007,-15.4824 -28.4608,-14.4179 -28.332,-13.3625 -28.2033,-12.307 -27.9862,-11.2642 -27.6829,-10.2451 -27.3797,-9.22592 -26.9915,-8.23403 -26.5224,-7.27983 -26.0532,-6.32564 -25.5048,-5.41251 -24.8829,-4.55006 -24.261,-3.68761 -23.5678,-2.87889 -22.8106,-2.13242 -22.0534,-1.38595 -21.2348,-0.704356 -20.3636,-0.0948228 -19.4923,0.51471 -18.5715,1.05003 -17.6107,1.50551 -16.6499,1.96098 -15.6525,2.335 -14.6292,2.62362 -13.6058,2.91224 -12.56,3.11444 -11.5028,3.2281 -10.4456,3.34176 -9.38074,3.36648 -8.31941,3.30199 -7.25808,3.2375 -6.20403,3.08403 -5.16837,2.84319 -4.13271,2.60236 -3.1191,2.27502 -2.1382,1.86461 -1.15731,1.4542 -0.212597,0.962176 0.685981,0.393719 1.58456,-0.174738 2.43384,-0.817623 3.22486,-1.52816 4.01589,-2.2387 4.74587,-3.01439 5.40712,-3.84706 6.06838,-4.67972 6.65857,-5.56643 7.17148,-6.49783 7.68439,-7.42923 8.11821,-8.40205 8.46837,-9.40603 8.81852,-10.41 9.08379,-11.4416 9.26136,-12.49 9.43893,-13.5383 9.52819,-14.5997 9.52819,-15.663 9.52819,-15.663 -9.47181,-15.663 -9.47181,-15.663"/>
<ellipse fill="none" stroke="black" cx="-9.47181" cy="-15.663" rx="19" ry="19"/>
</g>
<!-- 2 -->
<g id="node3" class="node"><title>2</title>
<ellipse fill="olivedrab" stroke="black" cx="24.8658" cy="47.3006" rx="6" ry="6"/>
</g>
<!-- 0&#45;&gt;2 -->
<g id="edge1" class="edge"><title>0&#45;&gt;2</title>
<path fill="none" stroke="black" d="M-0.26995,1.21006C7.12008,14.7609 17.0405,32.9515 21.9132,41.8864"/>
</g>
<!-- 4 -->
<g id="node5" class="node"><title>4</title>
<ellipse fill="olivedrab" stroke="black" cx="64.589" cy="-1.19218" rx="7.5" ry="7.5"/>
</g>
<!-- 0&#45;&gt;4 -->
<g id="edge2" class="edge"><title>0&#45;&gt;4</title>
<path fill="none" stroke="black" d="M9.21686,-12.0114C24.6434,-8.99722 45.7515,-4.87287 56.9248,-2.6897"/>
</g>
<!-- 5 -->
<g id="node6" class="node"><title>5</title>
<ellipse fill="olivedrab" stroke="black" cx="-60.8929" cy="-56.8418" rx="2.5" ry="2.5"/>
</g>
<!-- 0&#45;&gt;5 -->
<g id="edge3" class="edge"><title>0&#45;&gt;5</title>
<path fill="none" stroke="black" d="M-24.3449,-27.5736C-36.684,-37.455 -53.0995,-50.6007 -58.8215,-55.1829"/>
</g>
<!-- 6 -->
<g id="node7" class="node"><title>6</title>
<ellipse fill="olivedrab" stroke="black" cx="-34.3262" cy="47.0735" rx="2.5" ry="2.5"/>
</g>
<!-- 0&#45;&gt;6 -->
<g id="edge4" class="edge"><title>0&#45;&gt;6</title>
<path fill="none" stroke="black" d="M-16.5276,2.14694C-22.4979,17.2169 -30.5163,37.4568 -33.3133,44.5169"/>
</g>
<!-- 7 -->
<g id="node8" class="node"><title>7</title>
<ellipse fill="olivedrab" stroke="black" cx="-11.9218" cy="-81.545" rx="2.5" ry="2.5"/>
</g>
<!-- 0&#45;&gt;7 -->
<g id="edge5" class="edge"><title>0&#45;&gt;7</title>
<path fill="none" stroke="black" d="M-10.1805,-34.7188C-10.7684,-50.528 -11.5505,-71.5599 -11.8231,-78.891"/>
</g>
<!-- 8 -->
<g id="node9" class="node"><title>8</title>
<ellipse fill="olivedrab" stroke="black" cx="-77.3574" cy="-5.772" rx="2.5" ry="2.5"/>
</g>
<!-- 0&#45;&gt;8 -->
<g id="edge6" class="edge"><title>0&#45;&gt;8</title>
<path fill="none" stroke="black" d="M-28.3817,-12.9078C-44.7023,-10.5299 -66.8335,-7.30535 -74.559,-6.17974"/>
</g>
<!-- 9 -->
<g id="node10" class="node"><title>9</title>
<ellipse fill="olivedrab" stroke="black" cx="37.5205" cy="-64.4414" rx="2.5" ry="2.5"/>
</g>
<!-- 0&#45;&gt;9 -->
<g id="edge7" class="edge"><title>0&#45;&gt;9</title>
<path fill="none" stroke="black" d="M3.86859,-29.5105C13.2165,-39.2137 25.2201,-51.6735 32.0735,-58.7874"/>
<polygon fill="black" stroke="black" points="30.8761,-60.0669 35.6054,-62.4536 33.3967,-57.6385 30.8761,-60.0669"/>
<text text-anchor="middle" x="6.34497" y="-48.6941" font-family="monospace" font-size="8.00">K251R</text>
</g>
<!-- 1 -->
<g id="node2" class="node"><title>1</title>
<ellipse fill="olivedrab" stroke="black" cx="-7.62177" cy="82.4194" rx="2.5" ry="2.5"/>
</g>
<!-- 1&#45;&gt;2 -->
<g id="edge8" class="edge"><title>1&#45;&gt;2</title>
<path fill="none" stroke="black" d="M-5.87509,80.5312C-0.866805,75.1173 13.6407,59.4348 20.7883,51.7084"/>
</g>
<!-- 1&#45;&gt;6 -->
<g id="edge10" class="edge"><title>1&#45;&gt;6</title>
<path fill="none" stroke="black" stroke-dasharray="5,2" d="M-9.37392,80.1002C-14.2938,73.5883 -28.1772,55.2123 -32.8043,49.088"/>
</g>
<!-- 3 -->
<g id="node4" class="node"><title>3</title>
<ellipse fill="olivedrab" stroke="black" cx="74.6167" cy="48.6619" rx="3.5" ry="3.5"/>
</g>
<!-- 2&#45;&gt;3 -->
<g id="edge9" class="edge"><title>2&#45;&gt;3</title>
<path fill="none" stroke="black" d="M30.9663,47.4675C41.4489,47.7543 62.5662,48.3321 71.0087,48.5631"/>
</g>
<!-- 3&#45;&gt;4 -->
<g id="edge11" class="edge"><title>3&#45;&gt;4</title>
<path fill="none" stroke="black" stroke-dasharray="5,2" d="M73.8955,45.0765C72.2788,37.039 68.3346,17.4297 66.1352,6.49507"/>
</g>
</g>
</svg>
