<?xml version="1.0" encoding="UTF-8" standalone="no"?>
<!DOCTYPE svg PUBLIC "-//W3C//DTD SVG 1.1//EN"
 "http://www.w3.org/Graphics/SVG/1.1/DTD/svg11.dtd">
<!-- Generated by graphviz version 2.38.0 (20140413.2041)
 -->
<!-- Title: %3 Pages: 1 -->
<svg width="156pt" height="155pt"
 viewBox="0.00 0.00 156.12 155.10" xmlns="http://www.w3.org/2000/svg" xmlns:xlink="http://www.w3.org/1999/xlink">
<g id="graph0" class="graph" transform="scale(1 1) rotate(0) translate(36.125 82.7892)">
<title>%3</title>
<polygon fill="white" stroke="none" points="-36.125,72.3098 -36.125,-82.7892 120,-82.7892 120,72.3098 -36.125,72.3098"/>
<!-- 0 -->
<g id="node1" class="node"><title>0</title>
<ellipse fill="#1874cd" stroke="black" cx="20.8675" cy="-24.5142" rx="11.5" ry="11.5"/>
</g>
<!-- 1 -->
<g id="node2" class="node"><title>1</title>
<ellipse fill="#1874cd" stroke="black" cx="-28.625" cy="-37.3418" rx="3.5" ry="3.5"/>
</g>
<!-- 1&#45;&#45;0 -->
<g id="edge1" class="edge"><title>1&#45;&#45;0</title>
<path fill="none" stroke="black" d="M-25.0657,-36.4193C-17.973,-34.581 -1.80356,-30.3901 9.32615,-27.5055"/>
</g>
<!-- 2 -->
<g id="node3" class="node"><title>2</title>
<ellipse fill="#1874cd" stroke="black" cx="112.5" cy="-35.2898" rx="3.5" ry="3.5"/>
</g>
<!-- anon_2_0_0 -->
<g id="node6" class="node"><title>anon_2_0_0</title>
<ellipse fill="white" stroke="black" cx="70.7216" cy="-29.4694" rx="2.5" ry="2.5"/>
</g>
<!-- 2&#45;&#45;anon_2_0_0 -->
<g id="edge2" class="edge"><title>2&#45;&#45;anon_2_0_0</title>
<path fill="none" stroke="black" d="M108.938,-34.7935C100.729,-33.6499 80.6308,-30.8499 73.3826,-29.8401"/>
</g>
<!-- 3 -->
<g id="node4" class="node"><title>3</title>
<ellipse fill="#1874cd" stroke="black" cx="14.871" cy="-75.2892" rx="3.5" ry="3.5"/>
</g>
<!-- 3&#45;&#45;0 -->
<g id="edge4" class="edge"><title>3&#45;&#45;0</title>
<path fill="none" stroke="black" d="M15.3023,-71.6376C16.1616,-64.3611 18.1207,-47.7727 19.4692,-36.3546"/>
</g>
<!-- 4 -->
<g id="node5" class="node"><title>4</title>
<ellipse fill="#1874cd" stroke="black" cx="-2.23737" cy="64.8098" rx="3.5" ry="3.5"/>
</g>
<!-- anon_4_0_0 -->
<g id="node7" class="node"><title>anon_4_0_0</title>
<ellipse fill="white" stroke="black" cx="9.1962" cy="24.2071" rx="2.5" ry="2.5"/>
</g>
<!-- 4&#45;&#45;anon_4_0_0 -->
<g id="edge5" class="edge"><title>4&#45;&#45;anon_4_0_0</title>
<path fill="none" stroke="black" d="M-1.26255,61.3481C0.983982,53.3702 6.48431,33.8376 8.46796,26.7933"/>
</g>
<!-- anon_2_0_0&#45;&#45;0 -->
<g id="edge3" class="edge"><title>anon_2_0_0&#45;&#45;0</title>
<path fill="none" stroke="black" d="M68.0412,-29.203C61.4883,-28.5517 44.3381,-26.847 32.627,-25.683"/>
</g>
<!-- anon_4_0_0&#45;&#45;0 -->
<g id="edge6" class="edge"><title>anon_4_0_0&#45;&#45;0</title>
<path fill="none" stroke="black" d="M9.8237,21.5877C11.3578,15.1836 15.3728,-1.57683 18.1145,-13.0219"/>
</g>
</g>
</svg>
