<?xml version="1.0" encoding="UTF-8" standalone="no"?>
<!DOCTYPE svg PUBLIC "-//W3C//DTD SVG 1.1//EN"
 "http://www.w3.org/Graphics/SVG/1.1/DTD/svg11.dtd">
<!-- Generated by graphviz version 2.38.0 (20140413.2041)
 -->
<!-- Title: %3 Pages: 1 -->
<svg width="173pt" height="222pt"
 viewBox="0.00 0.00 173.13 221.63" xmlns="http://www.w3.org/2000/svg" xmlns:xlink="http://www.w3.org/1999/xlink">
<g id="graph0" class="graph" transform="scale(1 1) rotate(0) translate(98.8193 90.2375)">
<title>%3</title>
<polygon fill="white" stroke="none" points="-98.8193,131.388 -98.8193,-90.2375 74.3087,-90.2375 74.3087,131.388 -98.8193,131.388"/>
<!-- 0 -->
<g id="node1" class="node"><title>0</title>
<ellipse fill="grey" stroke="black" cx="-71.8193" cy="-60.5074" rx="23" ry="23"/>
<text text-anchor="middle" x="-71.8193" y="-56.8074" font-family="monospace" font-size="14.00">0</text>
</g>
<!-- 3 -->
<g id="node4" class="node"><title>3</title>
<ellipse fill="white" stroke="black" cx="-0.973596" cy="-24.5749" rx="14.5" ry="14.5"/>
<text text-anchor="middle" x="-0.973596" y="-20.8749" font-family="monospace" font-size="14.00">3</text>
</g>
<!-- 0&#45;&gt;3 -->
<g id="edge1" class="edge"><title>0&#45;&gt;3</title>
<path fill="none" stroke="black" d="M-50.9465,-49.9208C-40.7042,-44.726 -28.4977,-38.5349 -18.7126,-33.572"/>
<polygon fill="black" stroke="black" points="-17.7904,-35.0666 -14.1227,-31.2441 -19.3736,-31.9451 -17.7904,-35.0666"/>
<text text-anchor="middle" x="-37.0787" y="-44.4048" font-family="monospace" font-size="14.00">B</text>
</g>
<!-- 1 -->
<g id="node2" class="node"><title>1</title>
<ellipse fill="grey" stroke="black" cx="54.3087" cy="-70.2375" rx="16" ry="16"/>
<text text-anchor="middle" x="54.3087" y="-66.5375" font-family="monospace" font-size="14.00">1</text>
</g>
<!-- 2 -->
<g id="node3" class="node"><title>2</title>
<ellipse fill="grey" stroke="black" cx="11.9479" cy="111.388" rx="16" ry="16"/>
<text text-anchor="middle" x="11.9479" y="115.088" font-family="monospace" font-size="14.00">2</text>
</g>
<!-- 3&#45;&gt;1 -->
<g id="edge2" class="edge"><title>3&#45;&gt;1</title>
<path fill="none" stroke="black" d="M10.2136,-33.8154C18.0222,-40.2653 28.5854,-48.9903 37.4153,-56.2838"/>
<polygon fill="black" stroke="black" points="36.6216,-57.898 41.5911,-59.7329 38.8506,-55.1994 36.6216,-57.898"/>
<text text-anchor="middle" x="21.1515" y="-50.3669" font-family="monospace" font-size="14.00">A</text>
</g>
<!-- anon_2_3_0 -->
<g id="node5" class="node"><title>anon_2_3_0</title>
<ellipse fill="white" stroke="black" cx="6.5363" cy="43.9318" rx="14.5" ry="14.5"/>
</g>
<!-- 3&#45;&gt;anon_2_3_0 -->
<g id="edge4" class="edge"><title>3&#45;&gt;anon_2_3_0</title>
<path fill="none" stroke="black" d="M0.61906,-10.0464C1.71429,-0.0554838 3.18184,13.3317 4.3814,24.2743"/>
<polygon fill="black" stroke="black" points="6.14058,24.2633 4.94594,29.4242 2.66143,24.6447 6.14058,24.2633"/>
<text text-anchor="middle" x="-1.73181" y="5.75839" font-family="monospace" font-size="14.00">E</text>
</g>
<!-- anon_2_3_0&#45;&gt;2 -->
<g id="edge3" class="edge"><title>anon_2_3_0&#45;&gt;2</title>
<path fill="none" stroke="black" d="M7.71054,58.5688C8.45175,67.808 9.42159,79.897 10.2464,90.1777"/>
<polygon fill="black" stroke="black" points="12.0069,90.2404 10.6625,95.3644 8.51813,90.5204 12.0069,90.2404"/>
<text text-anchor="middle" x="4.6944" y="73.2651" font-family="monospace" font-size="14.00">C</text>
</g>
</g>
</svg>
