<?xml version="1.0" encoding="UTF-8" standalone="no"?>
<!DOCTYPE svg PUBLIC "-//W3C//DTD SVG 1.1//EN"
 "http://www.w3.org/Graphics/SVG/1.1/DTD/svg11.dtd">
<!-- Generated by graphviz version 2.38.0 (20140413.2041)
 -->
<!-- Title: %3 Pages: 1 -->
<svg width="412pt" height="534pt"
 viewBox="0.00 0.00 411.70 533.51" xmlns="http://www.w3.org/2000/svg" xmlns:xlink="http://www.w3.org/1999/xlink">
<g id="graph0" class="graph" transform="scale(1 1) rotate(0) translate(212.533 264.622)">
<title>%3</title>
<polygon fill="white" stroke="none" points="-212.533,268.889 -212.533,-264.622 199.163,-264.622 199.163,268.889 -212.533,268.889"/>
<!-- 0 -->
<g id="node1" class="node"><title>0</title>
<path fill="#1874cd" stroke="black" stroke-width="0.5" d="M-101.677,137.046C-101.677,137.046 -93.1768,137.046 -93.1768,137.046 -93.1768,136.641 -93.2057,136.237 -93.2633,135.836 -93.3209,135.435 -93.4071,135.039 -93.5211,134.651 -93.6351,134.262 -93.7768,133.883 -93.9449,133.515 -94.1131,133.146 -94.3073,132.791 -94.5261,132.45 -94.745,132.11 -94.9879,131.785 -95.2529,131.479 -95.518,131.173 -95.8046,130.887 -96.1105,130.622 -96.4164,130.357 -96.7408,130.114 -97.0814,129.895 -97.4219,129.676 -97.7776,129.482 -98.1458,129.314 -98.514,129.146 -98.8937,129.004 -99.2821,128.89 -99.6705,128.776 -100.066,128.69 -100.467,128.632 -100.868,128.574 -101.272,128.546 -101.677,128.546 -102.082,128.546 -102.486,128.574 -102.886,128.632 -103.287,128.69 -103.683,128.776 -104.072,128.89 -104.46,129.004 -104.84,129.146 -105.208,129.314 -105.576,129.482 -105.932,129.676 -106.272,129.895 -106.613,130.114 -106.937,130.357 -107.243,130.622 -107.549,130.887 -107.836,131.173 -108.101,131.479 -108.366,131.785 -108.609,132.11 -108.827,132.45 -109.046,132.791 -109.241,133.146 -109.409,133.515 -109.577,133.883 -109.718,134.262 -109.832,134.651 -109.947,135.039 -110.033,135.435 -110.09,135.836 -110.148,136.237 -110.177,136.641 -110.177,137.046 -110.177,137.45 -110.148,137.855 -110.09,138.255 -110.033,138.656 -109.947,139.052 -109.832,139.44 -109.718,139.829 -109.577,140.208 -109.409,140.577 -109.241,140.945 -109.046,141.3 -108.827,141.641 -108.609,141.982 -108.366,142.306 -108.101,142.612 -107.836,142.918 -107.549,143.204 -107.243,143.469 -106.937,143.734 -106.613,143.977 -106.272,144.196 -105.932,144.415 -105.576,144.609 -105.208,144.777 -104.84,144.946 -104.46,145.087 -104.072,145.201 -103.683,145.315 -103.287,145.401 -102.886,145.459 -102.886,145.459 -101.677,137.046 -101.677,137.046"/>
<path fill="olivedrab" stroke="black" stroke-width="0.5" d="M-101.677,137.046C-101.677,137.046 -102.886,145.459 -102.886,145.459 -102.285,145.545 -101.676,145.567 -101.07,145.524 -100.464,145.481 -99.8649,145.372 -99.2821,145.201 -98.6992,145.03 -98.1364,144.797 -97.6032,144.506 -97.07,144.215 -96.5696,143.867 -96.1105,143.469 -95.6514,143.072 -95.2362,142.626 -94.8722,142.139 -94.5082,141.653 -94.1973,141.129 -93.9449,140.577 -93.6926,140.024 -93.5002,139.446 -93.3711,138.852 -93.2419,138.259 -93.1768,137.653 -93.1768,137.046 -93.1768,137.046 -101.677,137.046 -101.677,137.046"/>
<ellipse fill="none" stroke="black" cx="-101.677" cy="137.046" rx="8.5" ry="8.5"/>
</g>
<!-- 8 -->
<g id="node9" class="node"><title>8</title>
<ellipse fill="olivedrab" stroke="black" cx="-137.836" cy="174.427" rx="2.5" ry="2.5"/>
</g>
<!-- 0&#45;&gt;8 -->
<g id="edge2" class="edge"><title>0&#45;&gt;8</title>
<path fill="none" stroke="black" d="M-107.648,143.218C-115.992,151.845 -130.706,167.056 -135.93,172.457"/>
</g>
<!-- 1 -->
<g id="node2" class="node"><title>1</title>
<path fill="#1874cd" stroke="black" stroke-width="0.5" d="M-55.132,81.4592C-55.132,81.4592 -45.132,81.4592 -45.132,81.4592 -45.132,80.8479 -45.188,80.2379 -45.2994,79.6368 -45.4108,79.0358 -45.5771,78.4462 -45.7961,77.8755 -46.0152,77.3048 -46.2862,76.7554 -46.6056,76.2342 -46.925,75.713 -47.2915,75.2222 -47.7005,74.7679 -48.1095,74.3136 -48.5594,73.8978 -49.0443,73.5257 -49.5293,73.1535 -50.0474,72.8266 -50.592,72.5491 -51.1367,72.2716 -51.7057,72.0446 -52.2918,71.871 -52.8779,71.6974 -53.4787,71.5779 -54.0867,71.514 -54.6946,71.4501 -55.3071,71.4421 -55.9165,71.49 -56.526,71.538 -57.1297,71.6417 -57.7201,71.7999 -58.3106,71.9582 -58.8853,72.1702 -59.4371,72.4333 -59.9888,72.6965 -60.5153,73.0097 -61.0098,73.369 -61.5044,73.7283 -61.9649,74.1322 -62.3857,74.5756 -62.8065,75.0191 -63.1857,75.5001 -63.5187,76.0128 -63.8516,76.5255 -64.1368,77.0676 -64.3707,77.6324 -64.6047,78.1971 -64.7863,78.7821 -64.9134,79.3801 -64.9134,79.3801 -55.132,81.4592 -55.132,81.4592"/>
<path fill="olivedrab" stroke="black" stroke-width="0.5" d="M-55.132,81.4592C-55.132,81.4592 -64.9134,79.3801 -64.9134,79.3801 -65.0587,80.0636 -65.132,80.7604 -65.132,81.4592 -65.132,82.158 -65.0587,82.8548 -64.9134,83.5383 -64.7681,84.2218 -64.5516,84.8882 -64.2674,85.5266 -63.9832,86.1649 -63.6328,86.7717 -63.2221,87.337 -62.8114,87.9024 -62.3425,88.4231 -61.8233,88.8906 -61.304,89.3582 -60.7371,89.7701 -60.132,90.1194 -59.5268,90.4688 -58.8867,90.7538 -58.2221,90.9698 -57.5576,91.1857 -56.8722,91.3314 -56.1772,91.4044 -55.4823,91.4775 -54.7816,91.4775 -54.0867,91.4044 -53.3917,91.3314 -52.7064,91.1857 -52.0418,90.9698 -51.3772,90.7538 -50.7371,90.4688 -50.132,90.1194 -49.5268,89.7701 -48.9599,89.3582 -48.4406,88.8906 -47.9214,88.4231 -47.4525,87.9024 -47.0418,87.337 -46.6311,86.7717 -46.2807,86.1649 -45.9965,85.5266 -45.7123,84.8882 -45.4958,84.2218 -45.3505,83.5383 -45.2052,82.8548 -45.132,82.158 -45.132,81.4592 -45.132,81.4592 -55.132,81.4592 -55.132,81.4592"/>
<ellipse fill="none" stroke="black" cx="-55.132" cy="81.4592" rx="10" ry="10"/>
</g>
<!-- 1&#45;&gt;0 -->
<g id="edge1" class="edge"><title>1&#45;&gt;0</title>
<path fill="none" stroke="black" d="M-61.6038,89.1882C-69.7189,98.8797 -83.6697,115.54 -92.7831,126.424"/>
<polygon fill="black" stroke="black" points="-91.5799,127.713 -96.1317,130.423 -94.2634,125.466 -91.5799,127.713"/>
<text text-anchor="middle" x="-94.6728" y="115.973" font-family="monospace" font-size="8.00">F1920S</text>
</g>
<!-- 2 -->
<g id="node3" class="node"><title>2</title>
<ellipse fill="#1874cd" stroke="black" cx="-20.7987" cy="143.261" rx="4.5" ry="4.5"/>
</g>
<!-- 1&#45;&gt;2 -->
<g id="edge3" class="edge"><title>1&#45;&gt;2</title>
<path fill="none" stroke="black" d="M-50.2128,90.3138C-42.6477,103.931 -28.4613,129.468 -23.0101,139.28"/>
</g>
<!-- 5 -->
<g id="node6" class="node"><title>5</title>
<ellipse fill="olivedrab" stroke="black" cx="-89.5685" cy="55.4623" rx="2.5" ry="2.5"/>
</g>
<!-- 1&#45;&gt;5 -->
<g id="edge7" class="edge"><title>1&#45;&gt;5</title>
<path fill="none" stroke="black" d="M-63.1189,75.4297C-69.2038,70.8361 -77.4724,64.5939 -83.1354,60.3188"/>
<polygon fill="black" stroke="black" points="-84.53,61.4587 -87.4661,57.0494 -82.4212,58.6653 -84.53,61.4587"/>
<text text-anchor="middle" x="-88.7647" y="63.6606" font-family="monospace" font-size="8.00">R537L</text>
</g>
<!-- 6 -->
<g id="node7" class="node"><title>6</title>
<ellipse fill="olivedrab" stroke="black" cx="-89.2715" cy="103.779" rx="2.5" ry="2.5"/>
</g>
<!-- 1&#45;&gt;6 -->
<g id="edge8" class="edge"><title>1&#45;&gt;6</title>
<path fill="none" stroke="black" d="M-63.7468,87.0915C-69.5542,90.8883 -77.1083,95.8271 -82.4883,99.3445"/>
<polygon fill="black" stroke="black" points="-81.8558,101.022 -86.9984,102.293 -83.7711,98.0922 -81.8558,101.022"/>
<text text-anchor="middle" x="-91.1179" y="91.9258" font-family="monospace" font-size="8.00">H1755Y</text>
</g>
<!-- 7 -->
<g id="node8" class="node"><title>7</title>
<ellipse fill="olivedrab" stroke="black" cx="-15.7945" cy="102.295" rx="2.5" ry="2.5"/>
</g>
<!-- 1&#45;&gt;7 -->
<g id="edge9" class="edge"><title>1&#45;&gt;7</title>
<path fill="none" stroke="black" d="M-46.0083,86.2916C-36.9296,91.1002 -23.5954,98.1628 -18.196,101.023"/>
</g>
<!-- 9 -->
<g id="node10" class="node"><title>9</title>
<ellipse fill="olivedrab" stroke="black" cx="-55.4723" cy="125.788" rx="2.5" ry="2.5"/>
</g>
<!-- 1&#45;&gt;9 -->
<g id="edge10" class="edge"><title>1&#45;&gt;9</title>
<path fill="none" stroke="black" d="M-55.2109,91.7405C-55.2723,99.7331 -55.3561,110.653 -55.4121,117.949"/>
<polygon fill="black" stroke="black" points="-53.6631,118.095 -55.4515,123.082 -57.163,118.068 -53.6631,118.095"/>
<text text-anchor="middle" x="-68.8334" y="105.102" font-family="monospace" font-size="8.00">K251R</text>
</g>
<!-- anon_1_3_0 -->
<g id="node17" class="node"><title>anon_1_3_0</title>
<ellipse fill="white" stroke="black" cx="-119.66" cy="73.7524" rx="1" ry="1"/>
</g>
<!-- 1&#45;&gt;anon_1_3_0 -->
<g id="edge4" class="edge"><title>1&#45;&gt;anon_1_3_0</title>
<path fill="none" stroke="black" d="M-65.2145,80.255C-81.3781,78.3246 -111.938,74.6748 -118.429,73.8995"/>
</g>
<!-- anon_1_11_0 -->
<g id="node19" class="node"><title>anon_1_11_0</title>
<ellipse fill="white" stroke="black" cx="-59.2828" cy="23.5343" rx="1" ry="1"/>
</g>
<!-- 1&#45;&gt;anon_1_11_0 -->
<g id="edge11" class="edge"><title>1&#45;&gt;anon_1_11_0</title>
<path fill="none" stroke="black" d="M-55.855,71.3694C-56.8955,56.8481 -58.7395,31.1153 -59.1842,24.909"/>
</g>
<!-- anon_1_12_0 -->
<g id="node28" class="node"><title>anon_1_12_0</title>
<ellipse fill="white" stroke="black" cx="-0.487103" cy="61.7196" rx="1" ry="1"/>
</g>
<!-- 1&#45;&gt;anon_1_12_0 -->
<g id="edge27" class="edge"><title>1&#45;&gt;anon_1_12_0</title>
<path fill="none" stroke="black" stroke-dasharray="5,2" d="M-45.6135,78.0208C-31.9144,73.0722 -7.63884,64.303 -1.78398,62.1881"/>
</g>
<!-- anon_2_4_0 -->
<g id="node23" class="node"><title>anon_2_4_0</title>
<ellipse fill="white" stroke="black" cx="-2.72272" cy="186.423" rx="1" ry="1"/>
</g>
<!-- 2&#45;&gt;anon_2_4_0 -->
<g id="edge16" class="edge"><title>2&#45;&gt;anon_2_4_0</title>
<path fill="none" stroke="black" d="M-18.9994,147.557C-14.9988,157.11 -5.53742,179.702 -3.23458,185.2"/>
</g>
<!-- 3 -->
<g id="node4" class="node"><title>3</title>
<ellipse fill="#1874cd" stroke="black" cx="-206.033" cy="72.2213" rx="2.5" ry="2.5"/>
</g>
<!-- 4 -->
<g id="node5" class="node"><title>4</title>
<ellipse fill="#1874cd" stroke="black" cx="27.3138" cy="262.389" rx="2.5" ry="2.5"/>
</g>
<!-- 10 -->
<g id="node11" class="node"><title>10</title>
<ellipse fill="#1874cd" stroke="black" cx="135.294" cy="-197.104" rx="15" ry="15"/>
</g>
<!-- 14 -->
<g id="node15" class="node"><title>14</title>
<ellipse fill="#1874cd" stroke="black" cx="141.294" cy="-258.122" rx="2.5" ry="2.5"/>
</g>
<!-- 10&#45;&gt;14 -->
<g id="edge22" class="edge"><title>10&#45;&gt;14</title>
<path fill="none" stroke="black" d="M136.777,-212.187C138.221,-226.868 140.3,-248.017 141.029,-255.432"/>
</g>
<!-- 15 -->
<g id="node16" class="node"><title>15</title>
<ellipse fill="#1874cd" stroke="black" cx="192.663" cy="-218.196" rx="2.5" ry="2.5"/>
</g>
<!-- 10&#45;&gt;15 -->
<g id="edge23" class="edge"><title>10&#45;&gt;15</title>
<path fill="none" stroke="black" d="M149.475,-202.318C163.279,-207.393 183.162,-214.703 190.134,-217.266"/>
</g>
<!-- anon_10_12_0 -->
<g id="node32" class="node"><title>anon_10_12_0</title>
<ellipse fill="white" stroke="black" cx="156.42" cy="-137.147" rx="1" ry="1"/>
</g>
<!-- 10&#45;&gt;anon_10_12_0 -->
<g id="edge32" class="edge"><title>10&#45;&gt;anon_10_12_0</title>
<path fill="none" stroke="black" stroke-dasharray="5,2" d="M140.3,-182.895C144.742,-170.29 151.015,-152.486 154.271,-143.245"/>
<polygon fill="black" stroke="black" points="155.972,-143.683 155.983,-138.386 152.671,-142.52 155.972,-143.683"/>
<text text-anchor="middle" x="134.585" y="-163.401" font-family="monospace" font-size="8.00">G317S</text>
</g>
<!-- 11 -->
<g id="node12" class="node"><title>11</title>
<ellipse fill="#1874cd" stroke="black" cx="11.9555" cy="-130.383" rx="6" ry="6"/>
</g>
<!-- 13 -->
<g id="node14" class="node"><title>13</title>
<ellipse fill="#1874cd" stroke="black" cx="-24.3648" cy="-169.063" rx="2.5" ry="2.5"/>
</g>
<!-- 11&#45;&gt;13 -->
<g id="edge26" class="edge"><title>11&#45;&gt;13</title>
<path fill="none" stroke="black" d="M7.78909,-134.82C-0.11137,-143.234 -16.9776,-161.196 -22.5419,-167.121"/>
</g>
<!-- anon_10_11_1 -->
<g id="node26" class="node"><title>anon_10_11_1</title>
<ellipse fill="white" stroke="black" cx="37.2496" cy="-174.135" rx="1" ry="1"/>
</g>
<!-- 11&#45;&gt;anon_10_11_1 -->
<g id="edge21" class="edge"><title>11&#45;&gt;anon_10_11_1</title>
<path fill="none" stroke="black" d="M15.0571,-135.748C19.8589,-144.054 29.0499,-159.952 33.9623,-168.449"/>
<polygon fill="black" stroke="black" points="32.5554,-169.512 36.573,-172.965 35.5855,-167.76 32.5554,-169.512"/>
<text text-anchor="middle" x="9.78378" y="-156.902" font-family="monospace" font-size="8.00">I1940T</text>
</g>
<!-- anon_11_12_0 -->
<g id="node27" class="node"><title>anon_11_12_0</title>
<ellipse fill="white" stroke="black" cx="56.0278" cy="-105.283" rx="1" ry="1"/>
</g>
<!-- 11&#45;&gt;anon_11_12_0 -->
<g id="edge24" class="edge"><title>11&#45;&gt;anon_11_12_0</title>
<path fill="none" stroke="black" d="M17.3596,-127.305C25.7263,-122.54 41.7408,-113.42 50.3,-108.545"/>
<polygon fill="black" stroke="black" points="51.3703,-109.949 54.849,-105.954 49.6381,-106.908 51.3703,-109.949"/>
<text text-anchor="middle" x="22.5498" y="-110.261" font-family="monospace" font-size="8.00">G317S</text>
</g>
<!-- 12 -->
<g id="node13" class="node"><title>12</title>
<ellipse fill="#1874cd" stroke="black" cx="95.7876" cy="-72.5686" rx="6" ry="6"/>
</g>
<!-- 12&#45;&gt;anon_11_12_0 -->
<g id="edge25" class="edge"><title>12&#45;&gt;anon_11_12_0</title>
<path fill="none" stroke="black" d="M90.9123,-76.58C83.3643,-82.7905 68.9168,-94.6778 61.1951,-101.031"/>
<polygon fill="black" stroke="black" points="59.8404,-99.8795 57.0913,-104.408 62.0643,-102.582 59.8404,-99.8795"/>
<text text-anchor="middle" x="58.0509" y="-93.0535" font-family="monospace" font-size="8.00">S1683I</text>
</g>
<!-- anon_10_12_1 -->
<g id="node33" class="node"><title>anon_10_12_1</title>
<ellipse fill="white" stroke="black" cx="139.437" cy="-98.0227" rx="1" ry="1"/>
</g>
<!-- 12&#45;&gt;anon_10_12_1 -->
<g id="edge34" class="edge"><title>12&#45;&gt;anon_10_12_1</title>
<path fill="none" stroke="black" stroke-dasharray="5,2" d="M101.14,-75.6898C109.426,-80.522 125.287,-89.7712 133.764,-94.7146"/>
<polygon fill="black" stroke="black" points="133.068,-96.3347 138.269,-97.3418 134.831,-93.3113 133.068,-96.3347"/>
<text text-anchor="middle" x="103.651" y="-89.0843" font-family="monospace" font-size="8.00">I1940T</text>
</g>
<!-- anon_1_3_1 -->
<g id="node18" class="node"><title>anon_1_3_1</title>
<ellipse fill="white" stroke="black" cx="-163.283" cy="71.1512" rx="1" ry="1"/>
</g>
<!-- anon_1_3_0&#45;&gt;anon_1_3_1 -->
<g id="edge5" class="edge"><title>anon_1_3_0&#45;&gt;anon_1_3_1</title>
<path fill="none" stroke="black" d="M-120.739,73.6881C-126.617,73.3376 -154.782,71.6581 -161.731,71.2437"/>
</g>
<!-- anon_1_3_1&#45;&gt;3 -->
<g id="edge6" class="edge"><title>anon_1_3_1&#45;&gt;3</title>
<path fill="none" stroke="black" d="M-164.34,71.1776C-169.792,71.3141 -194.806,71.9403 -203.244,72.1515"/>
</g>
<!-- anon_1_11_1 -->
<g id="node20" class="node"><title>anon_1_11_1</title>
<ellipse fill="white" stroke="black" cx="-63.1379" cy="-20.6864" rx="1" ry="1"/>
</g>
<!-- anon_1_11_0&#45;&gt;anon_1_11_1 -->
<g id="edge12" class="edge"><title>anon_1_11_0&#45;&gt;anon_1_11_1</title>
<path fill="none" stroke="black" d="M-59.3781,22.4412C-59.8975,16.4828 -62.3866,-12.0679 -63.0007,-19.1125"/>
</g>
<!-- anon_1_11_2 -->
<g id="node21" class="node"><title>anon_1_11_2</title>
<ellipse fill="white" stroke="black" cx="-52.8527" cy="-62.6921" rx="1" ry="1"/>
</g>
<!-- anon_1_11_1&#45;&gt;anon_1_11_2 -->
<g id="edge13" class="edge"><title>anon_1_11_1&#45;&gt;anon_1_11_2</title>
<path fill="none" stroke="black" d="M-62.8837,-21.7247C-61.4978,-27.3847 -54.8573,-54.5053 -53.2188,-61.1971"/>
</g>
<!-- anon_1_11_3 -->
<g id="node22" class="node"><title>anon_1_11_3</title>
<ellipse fill="white" stroke="black" cx="-27.6895" cy="-97.8909" rx="1" ry="1"/>
</g>
<!-- anon_1_11_2&#45;&gt;anon_1_11_3 -->
<g id="edge14" class="edge"><title>anon_1_11_2&#45;&gt;anon_1_11_3</title>
<path fill="none" stroke="black" d="M-52.2307,-63.5622C-48.8402,-68.305 -32.5937,-91.0308 -28.585,-96.6382"/>
</g>
<!-- anon_1_11_3&#45;&gt;11 -->
<g id="edge15" class="edge"><title>anon_1_11_3&#45;&gt;11</title>
<path fill="none" stroke="black" d="M-26.7095,-98.6941C-22.6613,-102.012 -6.9814,-114.863 3.12468,-123.146"/>
<polygon fill="black" stroke="black" points="2.08797,-124.559 7.06444,-126.375 4.3066,-121.852 2.08797,-124.559"/>
<text text-anchor="middle" x="-25.9668" y="-115.016" font-family="monospace" font-size="8.00">S1683I</text>
</g>
<!-- anon_2_4_1 -->
<g id="node24" class="node"><title>anon_2_4_1</title>
<ellipse fill="white" stroke="black" cx="11.505" cy="224.428" rx="1" ry="1"/>
</g>
<!-- anon_2_4_0&#45;&gt;anon_2_4_1 -->
<g id="edge17" class="edge"><title>anon_2_4_0&#45;&gt;anon_2_4_1</title>
<path fill="none" stroke="black" d="M-2.37102,187.362C-0.453945,192.483 8.73204,217.021 10.9986,223.076"/>
</g>
<!-- anon_2_4_1&#45;&gt;4 -->
<g id="edge18" class="edge"><title>anon_2_4_1&#45;&gt;4</title>
<path fill="none" stroke="black" d="M11.8957,225.367C13.9117,230.207 23.1623,252.42 26.2826,259.913"/>
</g>
<!-- anon_10_11_0 -->
<g id="node25" class="node"><title>anon_10_11_0</title>
<ellipse fill="white" stroke="black" cx="72.0341" cy="-199.32" rx="1" ry="1"/>
</g>
<!-- anon_10_11_0&#45;&gt;10 -->
<g id="edge19" class="edge"><title>anon_10_11_0&#45;&gt;10</title>
<path fill="none" stroke="black" d="M73.1321,-199.282C78.0848,-199.108 98.8065,-198.382 114.981,-197.816"/>
<polygon fill="black" stroke="black" points="115.326,-199.555 120.262,-197.63 115.204,-196.057 115.326,-199.555"/>
<text text-anchor="middle" x="83.2239" y="-192.055" font-family="monospace" font-size="8.00">D466H</text>
</g>
<!-- anon_10_11_0&#45;&gt;anon_10_11_1 -->
<g id="edge20" class="edge"><title>anon_10_11_0&#45;&gt;anon_10_11_1</title>
<path fill="none" stroke="black" d="M71.1742,-198.698C67.2928,-195.887 51.224,-184.253 42.668,-178.058"/>
<polygon fill="black" stroke="black" points="43.5638,-176.546 38.4876,-175.031 41.5112,-179.381 43.5638,-176.546"/>
<text text-anchor="middle" x="38.9594" y="-189.558" font-family="monospace" font-size="8.00">S1683I</text>
</g>
<!-- anon_1_12_1 -->
<g id="node29" class="node"><title>anon_1_12_1</title>
<ellipse fill="white" stroke="black" cx="41.0586" cy="45.6916" rx="1" ry="1"/>
</g>
<!-- anon_1_12_0&#45;&gt;anon_1_12_1 -->
<g id="edge28" class="edge"><title>anon_1_12_0&#45;&gt;anon_1_12_1</title>
<path fill="none" stroke="black" stroke-dasharray="5,2" d="M0.539876,61.3234C5.21944,59.518 24.7313,51.9905 34.8739,48.0776"/>
<polygon fill="black" stroke="black" points="34.2852,46.429 39.58,46.262 35.545,49.6945 34.2852,46.429"/>
<text text-anchor="middle" x="6.64166" y="51.1612" font-family="monospace" font-size="8.00">G317S</text>
</g>
<!-- anon_1_12_2 -->
<g id="node30" class="node"><title>anon_1_12_2</title>
<ellipse fill="white" stroke="black" cx="73.903" cy="17.2919" rx="1" ry="1"/>
</g>
<!-- anon_1_12_1&#45;&gt;anon_1_12_2 -->
<g id="edge29" class="edge"><title>anon_1_12_1&#45;&gt;anon_1_12_2</title>
<path fill="none" stroke="black" stroke-dasharray="5,2" d="M41.8705,44.9895C46.296,41.1629 67.5018,22.8268 72.7341,18.3026"/>
</g>
<!-- anon_1_12_3 -->
<g id="node31" class="node"><title>anon_1_12_3</title>
<ellipse fill="white" stroke="black" cx="93.1214" cy="-21.5034" rx="1" ry="1"/>
</g>
<!-- anon_1_12_2&#45;&gt;anon_1_12_3 -->
<g id="edge30" class="edge"><title>anon_1_12_2&#45;&gt;anon_1_12_3</title>
<path fill="none" stroke="black" stroke-dasharray="5,2" d="M74.3781,16.3329C76.9676,11.1055 89.3758,-13.9424 92.4374,-20.1227"/>
</g>
<!-- anon_1_12_3&#45;&gt;12 -->
<g id="edge31" class="edge"><title>anon_1_12_3&#45;&gt;12</title>
<path fill="none" stroke="black" stroke-dasharray="5,2" d="M93.1873,-22.7657C93.4984,-28.7248 94.8313,-54.253 95.4587,-66.2686"/>
</g>
<!-- anon_10_12_1&#45;&gt;anon_10_12_0 -->
<g id="edge33" class="edge"><title>anon_10_12_1&#45;&gt;anon_10_12_0</title>
<path fill="none" stroke="black" stroke-dasharray="5,2" d="M139.856,-98.9898C141.751,-103.355 149.597,-121.429 153.774,-131.053"/>
<polygon fill="black" stroke="black" points="152.219,-131.865 155.815,-135.755 155.43,-130.472 152.219,-131.865"/>
<text text-anchor="middle" x="134.273" y="-119.828" font-family="monospace" font-size="8.00">D466H</text>
</g>
</g>
</svg>
