<?xml version="1.0" encoding="UTF-8" standalone="no"?>
<!DOCTYPE svg PUBLIC "-//W3C//DTD SVG 1.1//EN"
 "http://www.w3.org/Graphics/SVG/1.1/DTD/svg11.dtd">
<!-- Generated by graphviz version 2.38.0 (20140413.2041)
 -->
<!-- Title: %3 Pages: 1 -->
<svg width="503pt" height="548pt"
 viewBox="0.00 0.00 503.24 547.89" xmlns="http://www.w3.org/2000/svg" xmlns:xlink="http://www.w3.org/1999/xlink">
<g id="graph0" class="graph" transform="scale(1 1) rotate(0) translate(240.025 326.278)">
<title>%3</title>
<polygon fill="white" stroke="none" points="-240.025,221.608 -240.025,-326.278 263.215,-326.278 263.215,221.608 -240.025,221.608"/>
<!-- 0 -->
<g id="node1" class="node"><title>0</title>
<path fill="deepskyblue" stroke="black" stroke-width="0.5" d="M153.17,-92.266C153.17,-92.266 178.67,-92.266 178.67,-92.266 178.67,-93.5684 178.57,-94.8689 178.371,-96.1561 178.173,-97.4433 177.876,-98.7134 177.483,-99.9552 177.09,-101.197 176.603,-102.407 176.025,-103.574 175.448,-104.742 174.782,-105.863 174.033,-106.929 173.284,-107.994 172.454,-109.001 171.552,-109.94 170.649,-110.879 169.676,-111.747 168.64,-112.537 167.605,-113.327 166.511,-114.037 165.367,-114.66 164.223,-115.283 163.033,-115.817 161.808,-116.258 160.582,-116.7 159.325,-117.046 158.046,-117.295 156.768,-117.544 155.472,-117.695 154.171,-117.746 152.87,-117.797 151.566,-117.749 150.272,-117.601 148.978,-117.453 147.697,-117.206 146.441,-116.862 145.185,-116.519 143.957,-116.079 142.768,-115.548 141.579,-115.017 140.432,-114.395 139.338,-113.688 138.243,-112.982 137.205,-112.193 136.231,-111.327 135.258,-110.462 134.352,-109.524 133.522,-108.52 132.692,-107.517 131.94,-106.451 131.272,-105.333 130.605,-104.214 130.024,-103.046 129.535,-101.839 129.046,-100.632 128.65,-99.3891 128.351,-98.1214 128.052,-96.8538 127.851,-95.5651 127.749,-94.2667 127.646,-92.9683 127.644,-91.6639 127.741,-90.3651 127.838,-89.0663 128.034,-87.7769 128.328,-86.5081 128.623,-85.2393 129.013,-83.9949 129.498,-82.7858 129.982,-81.5767 130.558,-80.4065 131.221,-79.2854 131.884,-78.1644 132.632,-77.0958 133.458,-76.089 134.284,-75.0822 135.187,-74.1402 136.157,-73.2712 137.127,-72.4022 138.162,-71.6089 139.254,-70.8981 140.345,-70.1873 141.489,-69.5612 142.676,-69.0252 143.863,-68.4892 145.09,-68.045 146.345,-67.6964 147.6,-67.3478 148.879,-67.0958 150.173,-66.9427 151.466,-66.7897 152.769,-66.7359 154.071,-66.7819 155.373,-66.8279 156.669,-66.9736 157.948,-67.2177 157.948,-67.2177 153.17,-92.266 153.17,-92.266"/>
<path fill="#98f5ff" stroke="black" stroke-width="0.5" d="M153.17,-92.266C153.17,-92.266 157.948,-67.2177 157.948,-67.2177 158.67,-67.3553 159.385,-67.524 160.092,-67.7234 160.799,-67.9227 161.496,-68.1526 162.184,-68.4122 162.871,-68.6718 163.546,-68.961 164.208,-69.2789 164.87,-69.5968 165.518,-69.9432 166.15,-70.3171 166.783,-70.6909 167.398,-71.092 167.996,-71.519 168.594,-71.946 169.172,-72.3986 169.731,-72.8756 170.289,-73.3526 170.827,-73.8535 171.342,-74.3769 171.857,-74.9003 172.35,-75.4458 172.818,-76.0117 173.286,-76.5776 173.73,-77.1635 174.147,-77.7677 174.565,-78.3719 174.956,-78.9938 175.32,-79.6318 175.684,-80.2698 176.02,-80.9232 176.328,-81.5902 176.635,-82.2572 176.914,-82.9371 177.162,-83.6282 177.411,-84.3192 177.63,-85.0207 177.818,-85.7306 178.006,-86.4405 178.164,-87.1583 178.29,-87.8818 178.416,-88.6053 178.511,-89.334 178.575,-90.0657 178.638,-90.7974 178.67,-91.5315 178.67,-92.266 178.67,-92.266 153.17,-92.266 153.17,-92.266"/>
<ellipse fill="none" stroke="black" cx="153.17" cy="-92.266" rx="25.5" ry="25.5"/>
<text text-anchor="middle" x="153.17" y="-89.766" font-family="Times,serif" font-size="10.00">0</text>
</g>
<!-- 6 -->
<g id="node7" class="node"><title>6</title>
<path fill="deepskyblue" stroke="black" stroke-width="0.5" d="M60.8647,-3.72361C60.8647,-3.72361 95.3647,-3.72361 95.3647,-3.72361 95.3647,-4.88929 95.3057,-6.05422 95.1877,-7.21392 95.0698,-8.37362 94.8932,-9.5266 94.6585,-10.6684 94.4239,-11.8102 94.1315,-12.9394 93.7825,-14.0516 93.4336,-15.1639 93.0285,-16.2577 92.5688,-17.3289 92.5688,-17.3289 60.8647,-3.72361 60.8647,-3.72361"/>
<path fill="brown" stroke="black" stroke-width="0.5" d="M60.8647,-3.72361C60.8647,-3.72361 92.5688,-17.3289 92.5688,-17.3289 92.1714,-18.255 91.7335,-19.1632 91.2566,-20.051 90.7797,-20.9388 90.2641,-21.8052 89.7113,-22.6479 89.1585,-23.4905 88.569,-24.3085 87.9446,-25.0995 87.3202,-25.8905 86.6615,-26.6538 85.9702,-27.3872 85.279,-28.1205 84.556,-28.8232 83.8032,-29.4933 83.0505,-30.1633 82.2687,-30.8001 81.4602,-31.4017 80.6517,-32.0033 79.8172,-32.5692 78.9592,-33.0978 78.1012,-33.6263 77.2204,-34.117 76.3194,-34.5685 75.4184,-35.0199 74.498,-35.4316 73.561,-35.8025 72.6239,-36.1734 71.6711,-36.503 70.7052,-36.7905 69.7393,-37.0779 68.7612,-37.3229 67.7739,-37.5247 66.7865,-37.7265 65.7908,-37.885 64.7895,-37.9996 63.7883,-38.1143 62.7825,-38.185 61.7751,-38.2116 60.7677,-38.2382 59.7596,-38.2206 58.7537,-38.159 57.7478,-38.0973 56.7451,-37.9916 55.7485,-37.8421 54.7519,-37.6927 53.7623,-37.4997 52.7825,-37.2636 51.8028,-37.0275 50.8339,-36.7486 49.8786,-36.4277 48.9233,-36.1067 47.9825,-35.7441 47.0589,-35.3409 46.1354,-34.9376 45.2299,-34.494 44.3452,-34.0115 43.4604,-33.5289 42.5973,-33.0078 41.7582,-32.4497 40.9191,-31.8916 40.1048,-31.297 39.3177,-30.6676 38.5307,-30.0382 37.7716,-29.3746 37.0426,-28.6787 36.3137,-27.9829 35.6156,-27.2554 34.9503,-26.4984 34.285,-25.7414 33.6532,-24.9557 33.0568,-24.1434 32.4603,-23.3311 31.8997,-22.493 31.3766,-21.6317 30.8535,-20.7703 30.3684,-19.8864 29.9226,-18.9826 29.4769,-18.0787 29.071,-17.1558 28.7061,-16.2164 28.3411,-15.277 28.0176,-14.3221 27.7362,-13.3544 27.4549,-12.3867 27.2161,-11.4071 27.0206,-10.4185 26.825,-9.42989 26.6728,-8.43318 26.5645,-7.43125 26.4562,-6.42931 26.3919,-5.42311 26.3717,-4.41554 26.3515,-3.40797 26.3754,-2.4 26.4434,-1.39453 26.5115,-0.389057 26.6235,0.612952 26.7793,1.60861 26.9351,2.60428 27.1344,3.59264 27.3766,4.57085 27.6189,5.54906 27.904,6.51619 28.2309,7.46945 28.5579,8.42271 28.9265,9.36118 29.3356,10.2822 29.7447,11.2032 30.194,12.1058 30.6821,12.9874 31.1703,13.8691 31.6968,14.729 32.2602,15.5645 32.8236,16.4001 33.4234,17.2105 34.0578,17.9936 34.6922,18.7766 35.3605,19.5315 36.061,20.2561 36.7615,20.9806 37.4933,21.6741 38.2545,22.3346 39.0157,22.995 39.8055,23.6218 40.6215,24.2131 41.4376,24.8045 42.2791,25.3597 43.1438,25.8774 44.0085,26.395 44.8954,26.8745 45.8021,27.3145 46.7087,27.7545 47.6342,28.1546 48.5759,28.5135 49.5175,28.8725 50.4745,29.19 51.444,29.4652 52.4134,29.7404 53.3945,29.973 54.3843,30.1623 55.3742,30.3516 56.3718,30.4974 57.3744,30.5994 58.377,30.7013 59.3836,30.7593 60.3913,30.7731 61.399,30.787 62.4068,30.7566 63.4118,30.6822 64.4168,30.6078 65.4181,30.4894 66.4127,30.3274 67.4074,30.1653 68.3945,29.9597 69.3711,29.7113 70.3478,29.4628 71.3131,29.1716 72.2643,28.8386 73.2154,28.5057 74.1516,28.1311 75.0699,27.7162 75.9883,27.3013 76.8881,26.8463 77.7666,26.3526 78.6452,25.8588 79.5017,25.3269 80.3336,24.7582 81.1656,24.1895 81.9723,23.5846 82.7513,22.9452 83.5303,22.3059 84.2809,21.6328 85.001,20.9277 85.7211,20.2227 86.41,19.4864 87.0656,18.7211 87.7212,17.9557 88.343,17.162 88.9291,16.3423 89.5153,15.5225 90.0652,14.6774 90.5774,13.8095 91.0895,12.9415 91.5634,12.0516 91.9976,11.1422 92.4319,10.2328 92.8261,9.30475 93.1791,8.36082 93.5321,7.41689 93.8435,6.45795 94.1126,5.48675 94.1126,5.48675 60.8647,-3.72361 60.8647,-3.72361"/>
<path fill="#ff3030" stroke="black" stroke-width="0.5" d="M60.8647,-3.72361C60.8647,-3.72361 94.1126,5.48675 94.1126,5.48675 94.5276,3.98868 94.8409,2.46426 95.0503,0.923933 95.2597,-0.616395 95.3647,-2.16912 95.3647,-3.72361 95.3647,-3.72361 60.8647,-3.72361 60.8647,-3.72361"/>
<ellipse fill="none" stroke="black" cx="60.8647" cy="-3.72361" rx="34.5" ry="34.5"/>
<text text-anchor="middle" x="60.8647" y="-1.22361" font-family="Times,serif" font-size="10.00">6</text>
</g>
<!-- 0&#45;&#45;6 -->
<g id="edge1" class="edge"><title>0&#45;&#45;6</title>
<path fill="none" stroke="black" d="M134.491,-74.3481C120.478,-60.9066 101.153,-42.3692 85.8172,-27.6589"/>
</g>
<!-- 22 -->
<g id="node23" class="node"><title>22</title>
<ellipse fill="deepskyblue" stroke="black" cx="178.736" cy="-158.13" rx="3.5" ry="3.5"/>
<text text-anchor="middle" x="178.736" y="-155.63" font-family="Times,serif" font-size="10.00">22</text>
</g>
<!-- 0&#45;&#45;22 -->
<g id="edge2" class="edge"><title>0&#45;&#45;22</title>
<path fill="none" stroke="black" d="M162.4,-116.044C168.007,-130.488 174.604,-147.485 177.389,-154.658"/>
</g>
<!-- 24 -->
<g id="node25" class="node"><title>24</title>
<ellipse fill="deepskyblue" stroke="black" cx="207.873" cy="-136.324" rx="3.5" ry="3.5"/>
<text text-anchor="middle" x="207.873" y="-133.824" font-family="Times,serif" font-size="10.00">24</text>
</g>
<!-- 0&#45;&#45;24 -->
<g id="edge3" class="edge"><title>0&#45;&#45;24</title>
<path fill="none" stroke="black" d="M173.229,-108.421C185.182,-118.048 199.14,-129.29 205.026,-134.03"/>
</g>
<!-- 58 -->
<g id="node59" class="node"><title>58</title>
<ellipse fill="black" stroke="black" cx="223.293" cy="-103.832" rx="3.5" ry="3.5"/>
<text text-anchor="middle" x="223.293" y="-101.332" font-family="Times,serif" font-size="10.00">58</text>
</g>
<!-- 0&#45;&#45;58 -->
<g id="edge4" class="edge"><title>0&#45;&#45;58</title>
<path fill="none" stroke="black" d="M178.486,-96.4418C193.864,-98.9783 211.959,-101.963 219.597,-103.223"/>
</g>
<!-- 1 -->
<g id="node2" class="node"><title>1</title>
<ellipse fill="deepskyblue" stroke="black" cx="-175.63" cy="73.9862" rx="3.5" ry="3.5"/>
<text text-anchor="middle" x="-175.63" y="76.4862" font-family="Times,serif" font-size="10.00">1</text>
</g>
<!-- 3 -->
<g id="node4" class="node"><title>3</title>
<path fill="deepskyblue" stroke="black" stroke-width="0.5" d="M-102.578,72.2332C-102.578,72.2332 -68.5781,72.2332 -68.5781,72.2332 -68.5781,70.8482 -68.6627,69.4644 -68.8315,68.0897 -69.0003,66.715 -69.253,65.3518 -69.588,64.0079 -69.9231,62.664 -70.34,61.3418 -70.8363,60.0487 -71.3327,58.7557 -71.9076,57.4941 -72.5579,56.2712 -73.2081,55.0483 -73.9325,53.8662 -74.7269,52.7316 -75.5213,51.5971 -76.3844,50.5121 -77.3112,49.4828 -78.2379,48.4535 -79.2268,47.4818 -80.2721,46.5731 -81.3174,45.6644 -82.4173,44.8205 -83.5655,44.046 -84.7138,43.2714 -85.9083,42.5678 -87.1424,41.939 -88.3765,41.3102 -89.6479,40.7574 -90.9494,40.2837 -92.2509,39.81 -93.5802,39.4162 -94.9297,39.1047 -96.2793,38.7931 -97.6466,38.5643 -99.0241,38.4195 -100.402,38.2747 -101.787,38.2142 -103.171,38.2384 -104.556,38.2626 -105.938,38.3714 -107.31,38.5641 -108.682,38.7569 -110.04,39.0333 -111.378,39.3918 -112.716,39.7502 -114.031,40.1901 -115.315,40.709 -115.315,40.709 -102.578,72.2332 -102.578,72.2332"/>
<path fill="#98f5ff" stroke="black" stroke-width="0.5" d="M-102.578,72.2332C-102.578,72.2332 -115.315,40.709 -115.315,40.709 -116.232,41.0795 -117.132,41.4899 -118.014,41.939 -118.895,42.3881 -119.756,42.8754 -120.595,43.3996 -121.434,43.9238 -122.25,44.4843 -123.04,45.0796 -123.83,45.6749 -124.593,46.3044 -125.329,46.9663 -125.329,46.9663 -102.578,72.2332 -102.578,72.2332"/>
<path fill="#ff3030" stroke="black" stroke-width="0.5" d="M-102.578,72.2332C-102.578,72.2332 -125.329,46.9663 -125.329,46.9663 -126.468,47.9925 -127.537,49.0946 -128.528,50.265 -129.519,51.4355 -130.429,52.6717 -131.253,53.9651 -132.077,55.2585 -132.813,56.6061 -133.455,57.9988 -134.097,59.3915 -134.644,60.8261 -135.092,62.2926 -135.541,63.7592 -135.889,65.2544 -136.136,66.768 -136.382,68.2816 -136.526,69.8102 -136.566,71.3432 -136.607,72.8763 -136.543,74.4103 -136.376,75.9347 -136.209,77.4592 -135.939,78.9706 -135.568,80.4586 -135.197,81.9466 -134.726,83.4078 -134.158,84.8322 -133.589,86.2566 -132.925,87.6409 -132.17,88.9756 -131.415,90.3104 -130.57,91.5925 -129.642,92.8132 -128.714,94.034 -127.704,95.1905 -126.62,96.2749 -125.535,97.3593 -124.379,98.3691 -123.158,99.2973 -121.937,100.226 -120.655,101.07 -119.32,101.825 -117.986,102.581 -116.601,103.244 -115.177,103.813 -113.753,104.381 -112.291,104.852 -110.803,105.223 -110.803,105.223 -102.578,72.2332 -102.578,72.2332"/>
<path fill="#1874cd" stroke="black" stroke-width="0.5" d="M-102.578,72.2332C-102.578,72.2332 -110.803,105.223 -110.803,105.223 -109.556,105.534 -108.291,105.775 -107.016,105.942 -105.741,106.11 -104.457,106.206 -103.171,106.228 -101.886,106.251 -100.599,106.2 -99.3193,106.077 -98.0392,105.953 -96.767,105.758 -95.5091,105.49 -94.2511,105.223 -93.0093,104.884 -91.7897,104.476 -90.5701,104.068 -89.3746,103.591 -88.2091,103.048 -87.0435,102.504 -85.9097,101.895 -84.8131,101.223 -83.7166,100.551 -82.659,99.8174 -81.6456,99.0256 -80.6322,98.2338 -79.6645,97.3852 -78.7472,96.4838 -77.8299,95.5823 -76.9645,94.6296 -76.1551,93.6301 -75.3458,92.6307 -74.5938,91.5861 -73.9028,90.5014 -73.2118,89.4168 -72.5829,88.2938 -72.0191,87.1379 -71.4553,85.9819 -70.9576,84.795 -70.5283,83.5827 -70.099,82.3704 -69.7388,81.1347 -69.4495,79.8816 -69.1602,78.6285 -68.9422,77.36 -68.7966,76.0822 -68.6511,74.8043 -68.5781,73.5193 -68.5781,72.2332 -68.5781,72.2332 -102.578,72.2332 -102.578,72.2332"/>
<ellipse fill="none" stroke="black" cx="-102.578" cy="72.2332" rx="34" ry="34"/>
<text text-anchor="middle" x="-102.578" y="74.7332" font-family="Times,serif" font-size="10.00">3</text>
</g>
<!-- 1&#45;&#45;3 -->
<g id="edge5" class="edge"><title>1&#45;&#45;3</title>
<path fill="none" stroke="black" d="M-172.107,73.9016C-165.552,73.7443 -150.855,73.3917 -136.655,73.0509"/>
</g>
<!-- 2 -->
<g id="node3" class="node"><title>2</title>
<ellipse fill="#ff3030" stroke="black" cx="153.863" cy="-22.5923" rx="14" ry="14"/>
<text text-anchor="middle" x="153.863" y="-20.0923" font-family="Times,serif" font-size="10.00">2</text>
</g>
<!-- 2&#45;&#45;6 -->
<g id="edge6" class="edge"><title>2&#45;&#45;6</title>
<path fill="none" stroke="black" d="M140.141,-19.8081C128.217,-17.3889 110.442,-13.7825 94.7436,-10.5974"/>
</g>
<!-- anon_2_37_0 -->
<g id="node61" class="node"><title>anon_2_37_0</title>
<ellipse fill="white" stroke="black" cx="211.733" cy="-34.3638" rx="2.5" ry="2.5"/>
</g>
<!-- 2&#45;&#45;anon_2_37_0 -->
<g id="edge7" class="edge"><title>2&#45;&#45;anon_2_37_0</title>
<path fill="none" stroke="black" d="M167.872,-25.4418C181.787,-28.2724 202.045,-32.3932 209.153,-33.839"/>
</g>
<!-- 3&#45;&#45;6 -->
<g id="edge9" class="edge"><title>3&#45;&#45;6</title>
<path fill="none" stroke="black" d="M-71.451,57.7676C-42.461,44.295 0.533535,24.3141 29.5756,10.8174"/>
</g>
<!-- 10 -->
<g id="node11" class="node"><title>10</title>
<ellipse fill="#ff3030" stroke="black" cx="-149.742" cy="128.599" rx="3.5" ry="3.5"/>
<text text-anchor="middle" x="-149.742" y="131.099" font-family="Times,serif" font-size="10.00">10</text>
</g>
<!-- 3&#45;&#45;10 -->
<g id="edge10" class="edge"><title>3&#45;&#45;10</title>
<path fill="none" stroke="black" d="M-124.503,98.4359C-133.548,109.246 -142.92,120.446 -147.26,125.633"/>
</g>
<!-- 16 -->
<g id="node17" class="node"><title>16</title>
<ellipse fill="#ff3030" stroke="black" cx="-150.089" cy="12.9454" rx="3.5" ry="3.5"/>
<text text-anchor="middle" x="-150.089" y="15.4454" font-family="Times,serif" font-size="10.00">16</text>
</g>
<!-- 3&#45;&#45;16 -->
<g id="edge11" class="edge"><title>3&#45;&#45;16</title>
<path fill="none" stroke="black" d="M-124.109,45.3648C-133.537,33.5997 -143.437,21.2463 -147.797,15.8049"/>
</g>
<!-- 18 -->
<g id="node19" class="node"><title>18</title>
<ellipse fill="deepskyblue" stroke="black" cx="-72.6492" cy="146.223" rx="3.5" ry="3.5"/>
<text text-anchor="middle" x="-72.6492" y="148.723" font-family="Times,serif" font-size="10.00">18</text>
</g>
<!-- 3&#45;&#45;18 -->
<g id="edge12" class="edge"><title>3&#45;&#45;18</title>
<path fill="none" stroke="black" d="M-89.7118,104.041C-83.5013,119.394 -76.7988,135.964 -73.9982,142.888"/>
</g>
<!-- 21 -->
<g id="node22" class="node"><title>21</title>
<ellipse fill="deepskyblue" stroke="black" cx="-88.8924" cy="147.786" rx="3.5" ry="3.5"/>
<text text-anchor="middle" x="-88.8924" y="150.286" font-family="Times,serif" font-size="10.00">21</text>
</g>
<!-- 3&#45;&#45;21 -->
<g id="edge13" class="edge"><title>3&#45;&#45;21</title>
<path fill="none" stroke="black" d="M-96.4558,106.032C-93.7228,121.119 -90.8349,137.063 -89.5618,144.091"/>
</g>
<!-- 25 -->
<g id="node26" class="node"><title>25</title>
<ellipse fill="deepskyblue" stroke="black" cx="-133.907" cy="141.698" rx="3.5" ry="3.5"/>
<text text-anchor="middle" x="-133.907" y="144.198" font-family="Times,serif" font-size="10.00">25</text>
</g>
<!-- 3&#45;&#45;25 -->
<g id="edge14" class="edge"><title>3&#45;&#45;25</title>
<path fill="none" stroke="black" d="M-116.593,103.309C-122.849,117.18 -129.46,131.839 -132.375,138.301"/>
</g>
<!-- 29 -->
<g id="node30" class="node"><title>29</title>
<ellipse fill="deepskyblue" stroke="black" cx="-114.671" cy="146.641" rx="3.5" ry="3.5"/>
<text text-anchor="middle" x="-114.671" y="149.141" font-family="Times,serif" font-size="10.00">29</text>
</g>
<!-- 3&#45;&#45;29 -->
<g id="edge15" class="edge"><title>3&#45;&#45;29</title>
<path fill="none" stroke="black" d="M-108.058,105.954C-110.458,120.72 -112.978,136.224 -114.087,143.053"/>
</g>
<!-- 30 -->
<g id="node31" class="node"><title>30</title>
<ellipse fill="deepskyblue" stroke="black" cx="-106.442" cy="-1.20259" rx="3.5" ry="3.5"/>
<text text-anchor="middle" x="-106.442" y="1.29741" font-family="Times,serif" font-size="10.00">30</text>
</g>
<!-- 3&#45;&#45;30 -->
<g id="edge16" class="edge"><title>3&#45;&#45;30</title>
<path fill="none" stroke="black" d="M-104.374,38.0952C-105.115,24.0118 -105.883,9.41985 -106.239,2.66154"/>
</g>
<!-- 34 -->
<g id="node35" class="node"><title>34</title>
<ellipse fill="#ff3030" stroke="black" cx="-167.06" cy="36.7156" rx="3.5" ry="3.5"/>
<text text-anchor="middle" x="-167.06" y="39.2156" font-family="Times,serif" font-size="10.00">34</text>
</g>
<!-- 3&#45;&#45;34 -->
<g id="edge17" class="edge"><title>3&#45;&#45;34</title>
<path fill="none" stroke="black" d="M-132.554,55.7222C-144.92,48.9107 -157.732,41.8532 -163.667,38.5845"/>
</g>
<!-- 36 -->
<g id="node37" class="node"><title>36</title>
<ellipse fill="#ff3030" stroke="black" cx="-137.838" cy="1.79611" rx="3.5" ry="3.5"/>
<text text-anchor="middle" x="-137.838" y="4.29611" font-family="Times,serif" font-size="10.00">36</text>
</g>
<!-- 3&#45;&#45;36 -->
<g id="edge20" class="edge"><title>3&#45;&#45;36</title>
<path fill="none" stroke="black" d="M-117.941,41.5434C-125.216,27.0108 -133.015,11.4321 -136.27,4.9279"/>
</g>
<!-- 41 -->
<g id="node42" class="node"><title>41</title>
<ellipse fill="#1874cd" stroke="black" cx="-36.7033" cy="67.855" rx="3.5" ry="3.5"/>
<text text-anchor="middle" x="-36.7033" y="70.355" font-family="Times,serif" font-size="10.00">41</text>
</g>
<!-- 3&#45;&#45;41 -->
<g id="edge23" class="edge"><title>3&#45;&#45;41</title>
<path fill="none" stroke="black" d="M-68.483,69.9672C-57.181,69.216 -46.0611,68.477 -40.4547,68.1044"/>
</g>
<!-- 43 -->
<g id="node44" class="node"><title>43</title>
<ellipse fill="#1874cd" stroke="black" cx="-172.502" cy="95.8254" rx="3.5" ry="3.5"/>
<text text-anchor="middle" x="-172.502" y="98.3254" font-family="Times,serif" font-size="10.00">43</text>
</g>
<!-- 3&#45;&#45;43 -->
<g id="edge24" class="edge"><title>3&#45;&#45;43</title>
<path fill="none" stroke="black" d="M-135.084,83.2005C-148.494,87.7249 -162.388,92.4128 -168.823,94.584"/>
</g>
<!-- 44 -->
<g id="node45" class="node"><title>44</title>
<ellipse fill="#1874cd" stroke="black" cx="-60.0122" cy="138.554" rx="3.5" ry="3.5"/>
<text text-anchor="middle" x="-60.0122" y="141.054" font-family="Times,serif" font-size="10.00">44</text>
</g>
<!-- 3&#45;&#45;44 -->
<g id="edge25" class="edge"><title>3&#45;&#45;44</title>
<path fill="none" stroke="black" d="M-84.0319,101.13C-75.2497,114.813 -65.8354,129.481 -61.9048,135.605"/>
</g>
<!-- 46 -->
<g id="node47" class="node"><title>46</title>
<ellipse fill="#1874cd" stroke="black" cx="-103.319" cy="167.366" rx="3.5" ry="3.5"/>
<text text-anchor="middle" x="-103.319" y="169.866" font-family="Times,serif" font-size="10.00">46</text>
</g>
<!-- 3&#45;&#45;46 -->
<g id="edge28" class="edge"><title>3&#45;&#45;46</title>
<path fill="none" stroke="black" d="M-102.843,106.31C-103.014,128.276 -103.218,154.426 -103.291,163.803"/>
</g>
<!-- 56 -->
<g id="node57" class="node"><title>56</title>
<ellipse fill="#98f5ff" stroke="black" cx="-123.052" cy="-2.24547" rx="3.5" ry="3.5"/>
<text text-anchor="middle" x="-123.052" y="0.254525" font-family="Times,serif" font-size="10.00">56</text>
</g>
<!-- 3&#45;&#45;56 -->
<g id="edge29" class="edge"><title>3&#45;&#45;56</title>
<path fill="none" stroke="black" d="M-111.618,39.349C-115.731,24.3851 -120.106,8.47017 -122.037,1.44794"/>
</g>
<!-- 59 -->
<g id="node60" class="node"><title>59</title>
<ellipse fill="black" stroke="black" cx="-50.4367" cy="126.26" rx="3.5" ry="3.5"/>
<text text-anchor="middle" x="-50.4367" y="128.76" font-family="Times,serif" font-size="10.00">59</text>
</g>
<!-- 3&#45;&#45;59 -->
<g id="edge30" class="edge"><title>3&#45;&#45;59</title>
<path fill="none" stroke="black" d="M-78.9483,96.7175C-68.6014,107.439 -57.737,118.696 -52.9516,123.654"/>
</g>
<!-- anon_3_35_0 -->
<g id="node62" class="node"><title>anon_3_35_0</title>
<ellipse fill="white" stroke="black" cx="-172.916" cy="13.5347" rx="2.5" ry="2.5"/>
</g>
<!-- 3&#45;&#45;anon_3_35_0 -->
<g id="edge18" class="edge"><title>3&#45;&#45;anon_3_35_0</title>
<path fill="none" stroke="black" d="M-128.769,50.3761C-145.33,36.5556 -164.737,20.3598 -170.919,15.2008"/>
</g>
<!-- anon_3_40_0 -->
<g id="node63" class="node"><title>anon_3_40_0</title>
<ellipse fill="white" stroke="black" cx="-187.549" cy="56.2112" rx="2.5" ry="2.5"/>
</g>
<!-- 3&#45;&#45;anon_3_40_0 -->
<g id="edge21" class="edge"><title>3&#45;&#45;anon_3_40_0</title>
<path fill="none" stroke="black" d="M-136.161,65.9009C-155.458,62.2622 -177.322,58.1396 -184.842,56.7216"/>
</g>
<!-- anon_3_45_0 -->
<g id="node64" class="node"><title>anon_3_45_0</title>
<ellipse fill="white" stroke="black" cx="-169.598" cy="123.933" rx="2.5" ry="2.5"/>
</g>
<!-- 3&#45;&#45;anon_3_45_0 -->
<g id="edge26" class="edge"><title>3&#45;&#45;anon_3_45_0</title>
<path fill="none" stroke="black" d="M-129.838,93.2617C-144.914,104.891 -161.739,117.871 -167.519,122.329"/>
</g>
<!-- 4 -->
<g id="node5" class="node"><title>4</title>
<path fill="deepskyblue" stroke="black" stroke-width="0.5" d="M171.881,53.8985C171.881,53.8985 203.881,53.8985 203.881,53.8985 203.881,52.7974 203.824,51.697 203.711,50.6017 203.597,49.5064 203.427,48.4177 203.202,47.3399 202.976,46.2622 202.695,45.1968 202.359,44.148 202.024,43.0992 201.634,42.0685 201.193,41.0598 200.751,40.0512 200.257,39.066 199.714,38.1083 199.171,37.1505 198.578,36.2215 197.939,35.3248 197.3,34.4281 196.615,33.565 195.887,32.739 195.159,31.9129 194.388,31.125 193.579,30.3784 192.77,29.6317 191.922,28.9273 191.04,28.2681 190.158,27.6088 189.243,26.9955 188.298,26.4305 187.353,25.8656 186.379,25.3499 185.381,24.8854 184.382,24.4208 183.36,24.0081 182.32,23.6489 181.279,23.2897 180.22,22.9845 179.148,22.7345 178.075,22.4844 176.991,22.2899 175.898,22.1517 174.806,22.0134 173.707,21.9317 172.606,21.9068 171.505,21.8818 170.404,21.9137 169.306,22.0023 168.209,22.0909 167.116,22.2361 166.034,22.4373 164.951,22.6385 163.88,22.8955 162.823,23.2072 161.767,23.5189 160.728,23.8848 159.71,24.3037 158.691,24.7225 157.695,25.1936 156.725,25.7151 155.756,26.2366 154.813,26.8079 153.902,27.4265 152.991,28.0452 152.113,28.7105 151.271,29.4197 150.428,30.1289 149.623,30.8811 148.858,31.6733 148.094,32.4656 147.37,33.2967 146.691,34.1635 146.012,35.0303 145.378,35.9316 144.792,36.8638 144.206,37.7959 143.668,38.7577 143.181,39.7453 142.694,40.7329 142.258,41.745 141.876,42.7775 141.493,43.81 141.164,44.8615 140.89,45.928 140.615,46.9944 140.396,48.0743 140.233,49.1633 140.07,50.2523 139.964,51.3491 139.914,52.4491 139.864,53.5491 139.871,54.6509 139.935,55.7502 139.998,56.8495 140.119,57.9448 140.295,59.0317 140.295,59.0317 171.881,53.8985 171.881,53.8985"/>
<path fill="#98f5ff" stroke="black" stroke-width="0.5" d="M171.881,53.8985C171.881,53.8985 140.295,59.0317 140.295,59.0317 140.528,60.4634 140.858,61.8777 141.282,63.2647 141.707,64.6517 142.225,66.0082 142.834,67.3249 143.443,68.6416 144.14,69.9153 144.921,71.1374 145.703,72.3594 146.566,73.527 147.506,74.6318 148.446,75.7367 149.46,76.7764 150.541,77.7437 151.622,78.7111 152.767,79.6038 153.969,80.4157 155.171,81.2277 156.427,81.9569 157.728,82.5985 159.029,83.24 160.372,83.7924 161.748,84.2517 163.124,84.711 164.529,85.0763 165.955,85.3449 167.38,85.6136 168.822,85.785 170.271,85.858 171.719,85.931 173.171,85.9054 174.617,85.7814 176.062,85.6574 177.497,85.4353 178.912,85.1166 180.327,84.7979 181.719,84.3833 183.078,83.8758 184.436,83.3683 185.759,82.7689 187.037,82.082 188.314,81.395 189.544,80.6219 190.716,79.7681 191.889,78.9144 193.002,77.9818 194.048,76.977 194.048,76.977 171.881,53.8985 171.881,53.8985"/>
<path fill="#ff3030" stroke="black" stroke-width="0.5" d="M171.881,53.8985C171.881,53.8985 194.048,76.977 194.048,76.977 194.823,76.2328 195.56,75.4501 196.256,74.6318 196.952,73.8135 197.606,72.9607 198.217,72.0766 198.827,71.1925 199.392,70.2782 199.91,69.3372 200.429,68.3963 200.899,67.4298 201.32,66.4415 201.741,65.4532 202.113,64.4443 202.432,63.4186 202.752,62.393 203.019,61.3519 203.234,60.2994 203.449,59.2468 203.611,58.1841 203.719,57.1152 203.827,56.0464 203.881,54.9728 203.881,53.8985 203.881,53.8985 171.881,53.8985 171.881,53.8985"/>
<ellipse fill="none" stroke="black" cx="171.881" cy="53.8985" rx="32" ry="32"/>
<text text-anchor="middle" x="171.881" y="56.3985" font-family="Times,serif" font-size="10.00">4</text>
</g>
<!-- 4&#45;&#45;6 -->
<g id="edge31" class="edge"><title>4&#45;&#45;6</title>
<path fill="none" stroke="black" d="M143.292,39.0594C127.487,30.8563 107.842,20.6594 91.6945,12.2783"/>
</g>
<!-- 11 -->
<g id="node12" class="node"><title>11</title>
<ellipse fill="deepskyblue" stroke="black" cx="129.109" cy="104.717" rx="3.5" ry="3.5"/>
<text text-anchor="middle" x="129.109" y="107.217" font-family="Times,serif" font-size="10.00">11</text>
</g>
<!-- 4&#45;&#45;11 -->
<g id="edge32" class="edge"><title>4&#45;&#45;11</title>
<path fill="none" stroke="black" d="M151.247,78.4148C143.386,87.7552 135.389,97.2567 131.512,101.862"/>
</g>
<!-- 55 -->
<g id="node56" class="node"><title>55</title>
<ellipse fill="#98f5ff" stroke="black" cx="230.906" cy="112.015" rx="3.5" ry="3.5"/>
<text text-anchor="middle" x="230.906" y="114.515" font-family="Times,serif" font-size="10.00">55</text>
</g>
<!-- 4&#45;&#45;55 -->
<g id="edge33" class="edge"><title>4&#45;&#45;55</title>
<path fill="none" stroke="black" d="M194.871,76.5342C207.819,89.2828 222.53,103.767 228.346,109.494"/>
</g>
<!-- 5 -->
<g id="node6" class="node"><title>5</title>
<ellipse fill="#ff3030" stroke="black" cx="171.806" cy="24.3495" rx="18" ry="18"/>
<text text-anchor="middle" x="171.806" y="26.8495" font-family="Times,serif" font-size="10.00">5</text>
</g>
<!-- 5&#45;&#45;6 -->
<g id="edge34" class="edge"><title>5&#45;&#45;6</title>
<path fill="none" stroke="black" d="M153.981,19.8391C138.056,15.8093 114.293,9.79604 94.7583,4.85299"/>
</g>
<!-- 32 -->
<g id="node33" class="node"><title>32</title>
<ellipse fill="#ff3030" stroke="black" cx="159.287" cy="79.6255" rx="3.5" ry="3.5"/>
<text text-anchor="middle" x="159.287" y="82.1255" font-family="Times,serif" font-size="10.00">32</text>
</g>
<!-- 5&#45;&#45;32 -->
<g id="edge35" class="edge"><title>5&#45;&#45;32</title>
<path fill="none" stroke="black" d="M167.776,42.1435C165.032,54.2627 161.629,69.2867 160.099,76.0413"/>
</g>
<!-- 38 -->
<g id="node39" class="node"><title>38</title>
<ellipse fill="#ff3030" stroke="black" cx="230.306" cy="45.6692" rx="3.5" ry="3.5"/>
<text text-anchor="middle" x="230.306" y="48.1692" font-family="Times,serif" font-size="10.00">38</text>
</g>
<!-- 5&#45;&#45;38 -->
<g id="edge36" class="edge"><title>5&#45;&#45;38</title>
<path fill="none" stroke="black" d="M188.727,30.516C201.955,35.3368 219.3,41.6582 226.705,44.3566"/>
</g>
<!-- 39 -->
<g id="node40" class="node"><title>39</title>
<ellipse fill="#ff3030" stroke="black" cx="215.332" cy="70.6465" rx="3.5" ry="3.5"/>
<text text-anchor="middle" x="215.332" y="73.1465" font-family="Times,serif" font-size="10.00">39</text>
</g>
<!-- 5&#45;&#45;39 -->
<g id="edge37" class="edge"><title>5&#45;&#45;39</title>
<path fill="none" stroke="black" d="M184.162,37.4925C194.014,47.9719 207.051,61.839 212.621,67.7635"/>
</g>
<!-- anon_5_37_0 -->
<g id="node72" class="node"><title>anon_5_37_0</title>
<ellipse fill="white" stroke="black" cx="230.659" cy="7.41702" rx="2.5" ry="2.5"/>
</g>
<!-- 5&#45;&#45;anon_5_37_0 -->
<g id="edge71" class="edge"><title>5&#45;&#45;anon_5_37_0</title>
<path fill="none" stroke="black" stroke-dasharray="5,2" d="M189.146,19.3608C202.979,15.3807 221.127,10.1595 227.929,8.20255"/>
</g>
<!-- 7 -->
<g id="node8" class="node"><title>7</title>
<ellipse fill="#ff3030" stroke="black" cx="31.5575" cy="-75.2378" rx="9.5" ry="9.5"/>
<text text-anchor="middle" x="31.5575" y="-72.7378" font-family="Times,serif" font-size="10.00">7</text>
</g>
<!-- 6&#45;&#45;7 -->
<g id="edge38" class="edge"><title>6&#45;&#45;7</title>
<path fill="none" stroke="black" d="M47.7541,-35.7157C43.1819,-46.8725 38.4071,-58.5238 35.2368,-66.2597"/>
</g>
<!-- 8 -->
<g id="node9" class="node"><title>8</title>
<ellipse fill="#ff3030" stroke="black" cx="-6.98437" cy="-61.4056" rx="6" ry="6"/>
<text text-anchor="middle" x="-6.98437" y="-58.9056" font-family="Times,serif" font-size="10.00">8</text>
</g>
<!-- 6&#45;&#45;8 -->
<g id="edge39" class="edge"><title>6&#45;&#45;8</title>
<path fill="none" stroke="black" d="M34.4382,-26.1902C20.7454,-37.8311 5.33703,-50.9306 -2.24705,-57.3782"/>
</g>
<!-- 13 -->
<g id="node14" class="node"><title>13</title>
<ellipse fill="#ff3030" stroke="black" cx="77.2541" cy="75.1724" rx="8" ry="8"/>
<text text-anchor="middle" x="77.2541" y="77.6724" font-family="Times,serif" font-size="10.00">13</text>
</g>
<!-- 6&#45;&#45;13 -->
<g id="edge40" class="edge"><title>6&#45;&#45;13</title>
<path fill="none" stroke="black" d="M67.9104,30.1933C70.7561,43.8921 73.7905,58.4987 75.6038,67.2281"/>
</g>
<!-- 14 -->
<g id="node15" class="node"><title>14</title>
<path fill="#98f5ff" stroke="black" stroke-width="0.5" d="M17.7847,-116.202C17.7847,-116.202 23.7847,-116.202 23.7847,-116.202 23.7847,-116.464 23.7676,-116.726 23.7334,-116.985 23.6992,-117.245 23.6481,-117.502 23.5803,-117.755 23.5125,-118.008 23.4282,-118.256 23.328,-118.498 23.2278,-118.74 23.1118,-118.975 22.9809,-119.202 22.8499,-119.429 22.7043,-119.647 22.5449,-119.855 22.3854,-120.063 22.2126,-120.26 22.0274,-120.445 21.8422,-120.63 21.6451,-120.803 21.4373,-120.962 21.2295,-121.122 21.0115,-121.267 20.7847,-121.398 20.5579,-121.529 20.3228,-121.645 20.0808,-121.746 19.8389,-121.846 19.5906,-121.93 19.3376,-121.998 19.0847,-122.066 18.8275,-122.117 18.5679,-122.151 18.3082,-122.185 18.0466,-122.202 17.7847,-122.202 17.5228,-122.202 17.2612,-122.185 17.0016,-122.151 16.7419,-122.117 16.4848,-122.066 16.2318,-121.998 15.9789,-121.93 15.7306,-121.846 15.4886,-121.746 15.2467,-121.645 15.0115,-121.529 14.7847,-121.398 14.7847,-121.398 17.7847,-116.202 17.7847,-116.202"/>
<path fill="#ff3030" stroke="black" stroke-width="0.5" d="M17.7847,-116.202C17.7847,-116.202 14.7847,-121.398 14.7847,-121.398 14.5579,-121.267 14.3399,-121.122 14.1322,-120.962 13.9244,-120.803 13.7273,-120.63 13.5421,-120.445 13.3569,-120.26 13.184,-120.063 13.0246,-119.855 12.8652,-119.647 12.7195,-119.429 12.5886,-119.202 12.4576,-118.975 12.3417,-118.74 12.2415,-118.498 12.1412,-118.256 12.057,-118.008 11.9892,-117.755 11.9214,-117.502 11.8702,-117.245 11.8361,-116.985 11.8019,-116.726 11.7847,-116.464 11.7847,-116.202 11.7847,-115.94 11.8019,-115.679 11.8361,-115.419 11.8702,-115.159 11.9214,-114.902 11.9892,-114.649 12.057,-114.396 12.1412,-114.148 12.2415,-113.906 12.3417,-113.664 12.4576,-113.429 12.5886,-113.202 12.7195,-112.975 12.8652,-112.757 13.0246,-112.55 13.184,-112.342 13.3569,-112.145 13.5421,-111.96 13.7273,-111.774 13.9244,-111.602 14.1322,-111.442 14.3399,-111.283 14.5579,-111.137 14.7847,-111.006 15.0115,-110.875 15.2467,-110.759 15.4886,-110.659 15.7306,-110.559 15.9789,-110.474 16.2318,-110.407 16.4848,-110.339 16.7419,-110.288 17.0016,-110.254 17.2612,-110.219 17.5228,-110.202 17.7847,-110.202 18.0466,-110.202 18.3082,-110.219 18.5679,-110.254 18.8275,-110.288 19.0847,-110.339 19.3376,-110.407 19.5906,-110.474 19.8389,-110.559 20.0808,-110.659 20.3228,-110.759 20.5579,-110.875 20.7847,-111.006 21.0115,-111.137 21.2295,-111.283 21.4373,-111.442 21.6451,-111.602 21.8422,-111.774 22.0274,-111.96 22.2126,-112.145 22.3854,-112.342 22.5449,-112.55 22.7043,-112.757 22.8499,-112.975 22.9809,-113.202 23.1118,-113.429 23.2278,-113.664 23.328,-113.906 23.4282,-114.148 23.5125,-114.396 23.5803,-114.649 23.6481,-114.902 23.6992,-115.159 23.7334,-115.419 23.7676,-115.679 23.7847,-115.94 23.7847,-116.202 23.7847,-116.202 17.7847,-116.202 17.7847,-116.202"/>
<ellipse fill="none" stroke="black" cx="17.7847" cy="-116.202" rx="6" ry="6"/>
<text text-anchor="middle" x="17.7847" y="-113.702" font-family="Times,serif" font-size="10.00">14</text>
</g>
<!-- 6&#45;&#45;14 -->
<g id="edge41" class="edge"><title>6&#45;&#45;14</title>
<path fill="none" stroke="black" d="M48.5197,-35.9555C38.4749,-62.1817 25.1459,-96.9829 19.9696,-110.498"/>
</g>
<!-- 17 -->
<g id="node18" class="node"><title>17</title>
<ellipse fill="#ff3030" stroke="black" cx="12.5381" cy="-56.7771" rx="6" ry="6"/>
<text text-anchor="middle" x="12.5381" y="-54.2771" font-family="Times,serif" font-size="10.00">17</text>
</g>
<!-- 6&#45;&#45;17 -->
<g id="edge42" class="edge"><title>6&#45;&#45;17</title>
<path fill="none" stroke="black" d="M37.5507,-29.3179C29.6339,-38.0092 21.5953,-46.834 16.84,-52.0544"/>
</g>
<!-- 19 -->
<g id="node20" class="node"><title>19</title>
<path fill="deepskyblue" stroke="black" stroke-width="0.5" d="M104.167,75.8636C104.167,75.8636 115.667,75.8636 115.667,75.8636 115.667,75.4119 115.64,74.9606 115.587,74.512 115.534,74.0634 115.455,73.6183 115.349,73.179 115.244,72.7398 115.113,72.3071 114.956,71.8833 114.8,71.4595 114.619,71.0453 114.414,70.6428 114.209,70.2403 113.98,69.8502 113.729,69.4746 113.478,69.099 113.205,68.7385 112.912,68.395 112.618,68.0515 112.305,67.7256 111.973,67.4189 111.642,67.1123 111.292,66.8255 110.927,66.56 110.561,66.2944 110.18,66.0507 109.786,65.8299 109.392,65.6092 108.985,65.4119 108.568,65.239 108.151,65.0662 107.723,64.918 107.289,64.7954 106.854,64.6728 106.412,64.5759 105.966,64.5052 105.52,64.4346 105.07,64.3902 104.619,64.3725 104.167,64.3548 103.715,64.3637 103.265,64.3991 102.814,64.4345 102.367,64.4965 101.924,64.5846 101.481,64.6727 101.043,64.7869 100.613,64.9265 100.184,65.0661 99.7628,65.2309 99.3525,65.42 98.9423,65.6091 98.5435,65.8223 98.1584,66.0583 97.7732,66.2943 97.4023,66.5528 97.0475,66.8325 96.6928,67.1122 96.3548,67.4125 96.0354,67.7319 95.716,68.0513 95.4156,68.3893 95.136,68.7441 94.8563,69.0988 94.5978,69.4697 94.3617,69.8549 94.1257,70.2401 93.9126,70.6388 93.7235,71.0491 93.5343,71.4593 93.3695,71.8803 93.23,72.31 93.0904,72.7396 92.9762,73.1771 92.8881,73.6201 92.7999,74.0632 92.738,74.511 92.7026,74.9614 92.6671,75.4117 92.6582,75.8637 92.676,76.3151 92.6937,76.7665 92.738,77.2165 92.8087,77.6626 92.8794,78.1088 92.9763,78.5504 93.0989,78.9852 93.2215,79.42 93.3696,79.8472 93.5425,80.2645 93.7154,80.6819 93.9127,81.0887 94.1334,81.4828 94.3541,81.8769 94.5979,82.2577 94.8634,82.6232 94.8634,82.6232 104.167,75.8636 104.167,75.8636"/>
<path fill="#98f5ff" stroke="black" stroke-width="0.5" d="M104.167,75.8636C104.167,75.8636 94.8634,82.6232 94.8634,82.6232 95.2175,83.1106 95.6094,83.5694 96.0354,83.9954 96.4614,84.4214 96.9202,84.8132 97.4076,85.1673 97.895,85.5215 98.4094,85.8367 98.9462,86.1102 99.483,86.3837 100.04,86.6146 100.613,86.8008 101.186,86.987 101.773,87.1278 102.368,87.2221 102.963,87.3163 103.565,87.3636 104.167,87.3636 104.77,87.3636 105.371,87.3163 105.966,87.2221 106.561,87.1278 107.148,86.987 107.721,86.8008 108.294,86.6146 108.851,86.3837 109.388,86.1102 109.925,85.8367 110.439,85.5215 110.927,85.1673 111.414,84.8132 111.873,84.4214 112.299,83.9954 112.725,83.5694 113.117,83.1106 113.471,82.6232 113.825,82.1358 114.14,81.6213 114.414,81.0845 114.687,80.5478 114.918,79.9903 115.104,79.4173 115.29,78.8444 115.431,78.2577 115.526,77.6626 115.62,77.0676 115.667,76.4661 115.667,75.8636 115.667,75.8636 104.167,75.8636 104.167,75.8636"/>
<ellipse fill="none" stroke="black" cx="104.167" cy="75.8636" rx="11.5" ry="11.5"/>
<text text-anchor="middle" x="104.167" y="78.3636" font-family="Times,serif" font-size="10.00">19</text>
</g>
<!-- 6&#45;&#45;19 -->
<g id="edge43" class="edge"><title>6&#45;&#45;19</title>
<path fill="none" stroke="black" d="M77.4827,26.8193C84.9241,40.4961 93.2052,55.7163 98.5394,65.5202"/>
</g>
<!-- 26 -->
<g id="node27" class="node"><title>26</title>
<ellipse fill="deepskyblue" stroke="black" cx="91.2066" cy="-63.9905" rx="5" ry="5"/>
<text text-anchor="middle" x="91.2066" y="-61.4905" font-family="Times,serif" font-size="10.00">26</text>
</g>
<!-- 6&#45;&#45;26 -->
<g id="edge44" class="edge"><title>6&#45;&#45;26</title>
<path fill="none" stroke="black" d="M76.3912,-34.5632C81.2902,-44.2939 86.1397,-53.9263 88.8948,-59.3988"/>
</g>
<!-- 31 -->
<g id="node32" class="node"><title>31</title>
<path fill="deepskyblue" stroke="black" stroke-width="0.5" d="M85.8544,-102.965C85.8544,-102.965 98.3544,-102.965 98.3544,-102.965 98.3544,-103.442 98.327,-103.919 98.2725,-104.393 98.2179,-104.867 98.1362,-105.338 98.0278,-105.803 97.9194,-106.268 97.7845,-106.726 97.6237,-107.176 97.4628,-107.625 97.2764,-108.065 97.0653,-108.493 96.8541,-108.921 96.6187,-109.337 96.36,-109.738 96.1013,-110.139 95.8198,-110.526 95.517,-110.895 95.2142,-111.264 94.8904,-111.615 94.5474,-111.947 94.2044,-112.279 93.8426,-112.591 93.4639,-112.882 93.0852,-113.172 92.6901,-113.441 92.2806,-113.686 91.8712,-113.932 91.448,-114.153 91.0132,-114.35 90.5784,-114.547 90.1326,-114.719 89.6782,-114.865 89.2237,-115.011 88.7612,-115.131 88.293,-115.224 87.8248,-115.318 87.3516,-115.384 86.8759,-115.423 86.4001,-115.462 85.9225,-115.474 85.4454,-115.458 84.9683,-115.442 84.4924,-115.399 84.0202,-115.329 83.548,-115.259 83.0802,-115.162 82.6191,-115.039 82.158,-114.915 81.7044,-114.765 81.2604,-114.59 80.8165,-114.414 80.3829,-114.214 79.9619,-113.989 79.5409,-113.764 79.1331,-113.515 78.7406,-113.243 78.3481,-112.971 77.9714,-112.677 77.6125,-112.363 77.2536,-112.048 76.9131,-111.713 76.5925,-111.359 76.2719,-111.005 75.9718,-110.634 75.6938,-110.246 75.4157,-109.858 75.1601,-109.454 74.9282,-109.037 74.6963,-108.619 74.4886,-108.189 74.3059,-107.748 74.1232,-107.307 73.9659,-106.856 73.8348,-106.397 73.7038,-105.938 73.5991,-105.472 73.5213,-105.001 73.4436,-104.53 73.3928,-104.055 73.3694,-103.578 73.346,-103.101 73.3499,-102.623 73.3811,-102.147 73.4123,-101.671 73.4708,-101.197 73.5563,-100.727 73.6417,-100.257 73.754,-99.7929 73.8926,-99.3361 74.0312,-98.8793 74.1958,-98.4308 74.3857,-97.9928 74.5756,-97.5548 74.7904,-97.1281 75.029,-96.7147 75.029,-96.7147 85.8544,-102.965 85.8544,-102.965"/>
<path fill="#98f5ff" stroke="black" stroke-width="0.5" d="M85.8544,-102.965C85.8544,-102.965 75.029,-96.7147 75.029,-96.7147 75.3701,-96.1239 75.759,-95.562 76.1917,-95.0347 76.6245,-94.5074 77.0997,-94.0164 77.6125,-93.5667 78.1254,-93.1169 78.6742,-92.7098 79.2535,-92.3496 79.8328,-91.9894 80.4406,-91.6772 81.0708,-91.4162 81.701,-91.1551 82.3516,-90.9461 83.0159,-90.7912 83.6802,-90.6363 84.3561,-90.536 85.0368,-90.4914 85.7175,-90.4468 86.4007,-90.458 87.0796,-90.5248 87.7584,-90.5917 88.4307,-90.714 89.0896,-90.8906 89.7485,-91.0671 90.3919,-91.2973 91.0132,-91.5789 91.6345,-91.8604 92.2318,-92.1923 92.799,-92.5713 93.3662,-92.9503 93.9014,-93.375 94.3993,-93.8413 94.8971,-94.3077 95.356,-94.8139 95.7713,-95.3551 96.1865,-95.8963 96.5568,-96.4706 96.8784,-97.0722 97.1999,-97.6738 97.4717,-98.3007 97.691,-98.9467 97.9103,-99.5926 98.0763,-100.255 98.1874,-100.928 98.2985,-101.601 98.3544,-102.282 98.3544,-102.965 98.3544,-102.965 85.8544,-102.965 85.8544,-102.965"/>
<ellipse fill="none" stroke="black" cx="85.8544" cy="-102.965" rx="12.5" ry="12.5"/>
<text text-anchor="middle" x="85.8544" y="-100.465" font-family="Times,serif" font-size="10.00">31</text>
</g>
<!-- 6&#45;&#45;31 -->
<g id="edge48" class="edge"><title>6&#45;&#45;31</title>
<path fill="none" stroke="black" d="M69.3251,-37.3221C73.9694,-55.7661 79.4468,-77.5184 82.7839,-90.7709"/>
</g>
<!-- 47 -->
<g id="node48" class="node"><title>47</title>
<ellipse fill="brown" stroke="black" cx="-2.5747" cy="-31.6558" rx="3.5" ry="3.5"/>
<text text-anchor="middle" x="-2.5747" y="-29.1558" font-family="Times,serif" font-size="10.00">47</text>
</g>
<!-- 6&#45;&#45;47 -->
<g id="edge49" class="edge"><title>6&#45;&#45;47</title>
<path fill="none" stroke="black" d="M29.145,-17.6897C17.7457,-22.7088 6.34647,-27.7279 0.836077,-30.1541"/>
</g>
<!-- 48 -->
<g id="node49" class="node"><title>48</title>
<ellipse fill="brown" stroke="black" cx="117.048" cy="56.5059" rx="6" ry="6"/>
<text text-anchor="middle" x="117.048" y="59.0059" font-family="Times,serif" font-size="10.00">48</text>
</g>
<!-- 6&#45;&#45;48 -->
<g id="edge50" class="edge"><title>6&#45;&#45;48</title>
<path fill="none" stroke="black" d="M84.6915,21.8191C95.219,33.1048 106.565,45.2676 112.628,51.7672"/>
</g>
<!-- 50 -->
<g id="node51" class="node"><title>50</title>
<ellipse fill="brown" stroke="black" cx="6.7977" cy="50.6883" rx="8" ry="8"/>
<text text-anchor="middle" x="6.7977" y="53.1883" font-family="Times,serif" font-size="10.00">50</text>
</g>
<!-- 6&#45;&#45;50 -->
<g id="edge53" class="edge"><title>6&#45;&#45;50</title>
<path fill="none" stroke="black" d="M36.3623,20.9351C27.6449,29.7081 18.5734,38.8375 12.8164,44.6312"/>
</g>
<!-- 51 -->
<g id="node52" class="node"><title>51</title>
<ellipse fill="brown" stroke="black" cx="58.2655" cy="-70.4597" rx="3.5" ry="3.5"/>
<text text-anchor="middle" x="58.2655" y="-67.9597" font-family="Times,serif" font-size="10.00">51</text>
</g>
<!-- 6&#45;&#45;51 -->
<g id="edge54" class="edge"><title>6&#45;&#45;51</title>
<path fill="none" stroke="black" d="M59.5194,-38.2645C59.0735,-49.7143 58.6347,-60.9796 58.4135,-66.6593"/>
</g>
<!-- 54 -->
<g id="node55" class="node"><title>54</title>
<ellipse fill="brown" stroke="black" cx="-5.38305" cy="-9.62582" rx="3.5" ry="3.5"/>
<text text-anchor="middle" x="-5.38305" y="-7.12582" font-family="Times,serif" font-size="10.00">54</text>
</g>
<!-- 6&#45;&#45;54 -->
<g id="edge55" class="edge"><title>6&#45;&#45;54</title>
<path fill="none" stroke="black" d="M26.1887,-6.81301C14.9185,-7.8171 3.88841,-8.7998 -1.66739,-9.29478"/>
</g>
<!-- anon_6_27_0 -->
<g id="node65" class="node"><title>anon_6_27_0</title>
<ellipse fill="white" stroke="black" cx="62.0485" cy="82.6382" rx="2.5" ry="2.5"/>
</g>
<!-- 6&#45;&#45;anon_6_27_0 -->
<g id="edge45" class="edge"><title>6&#45;&#45;anon_6_27_0</title>
<path fill="none" stroke="black" d="M61.3394,30.9054C61.607,50.427 61.9079,72.3777 62.0113,79.923"/>
</g>
<!-- anon_6_49_0 -->
<g id="node67" class="node"><title>anon_6_49_0</title>
<ellipse fill="white" stroke="black" cx="117.209" cy="-38.9503" rx="2.5" ry="2.5"/>
</g>
<!-- 6&#45;&#45;anon_6_49_0 -->
<g id="edge51" class="edge"><title>6&#45;&#45;anon_6_49_0</title>
<path fill="none" stroke="black" d="M90.3569,-22.1623C100.581,-28.5547 110.573,-34.8018 114.93,-37.5258"/>
</g>
<!-- 57 -->
<g id="node58" class="node"><title>57</title>
<ellipse fill="black" stroke="black" cx="-42.5581" cy="-99.4076" rx="6" ry="6"/>
<text text-anchor="middle" x="-42.5581" y="-96.9076" font-family="Times,serif" font-size="10.00">57</text>
</g>
<!-- 8&#45;&#45;57 -->
<g id="edge56" class="edge"><title>8&#45;&#45;57</title>
<path fill="none" stroke="black" d="M-11.3464,-66.0654C-18.174,-73.359 -31.311,-87.3927 -38.1604,-94.7097"/>
</g>
<!-- 9 -->
<g id="node10" class="node"><title>9</title>
<ellipse fill="deepskyblue" stroke="black" cx="-13.7528" cy="-239.856" rx="3.5" ry="3.5"/>
<text text-anchor="middle" x="-13.7528" y="-237.356" font-family="Times,serif" font-size="10.00">9</text>
</g>
<!-- 15 -->
<g id="node16" class="node"><title>15</title>
<path fill="deepskyblue" stroke="black" stroke-width="0.5" d="M-27.4612,-180.409C-27.4612,-180.409 -9.46123,-180.409 -9.46123,-180.409 -9.46123,-181.257 -9.52124,-182.105 -9.64081,-182.945 -9.76037,-183.785 -9.9392,-184.616 -10.1759,-185.431 -10.4127,-186.246 -10.7068,-187.043 -11.056,-187.816 -11.4052,-188.59 -11.8086,-189.337 -12.2633,-190.054 -12.718,-190.77 -13.2228,-191.454 -13.7739,-192.099 -14.325,-192.744 -14.9211,-193.35 -15.5576,-193.911 -16.1942,-194.472 -16.8696,-194.988 -17.5788,-195.453 -18.2881,-195.919 -19.0294,-196.334 -19.7972,-196.696 -20.565,-197.057 -21.3574,-197.364 -22.1685,-197.613 -22.9796,-197.863 -23.8073,-198.055 -24.6454,-198.187 -25.4835,-198.32 -26.33,-198.393 -27.1785,-198.407 -28.027,-198.42 -28.8753,-198.373 -29.7172,-198.267 -30.5591,-198.161 -31.3924,-197.995 -32.2109,-197.771 -33.0295,-197.547 -33.8311,-197.265 -34.6099,-196.928 -35.3887,-196.591 -36.1427,-196.2 -36.8662,-195.756 -37.5897,-195.313 -38.281,-194.819 -38.9349,-194.278 -39.5887,-193.737 -40.2035,-193.151 -40.7746,-192.523 -41.3457,-191.895 -41.8717,-191.228 -42.3487,-190.526 -42.8257,-189.825 -43.2524,-189.09 -43.6257,-188.328 -43.9991,-187.566 -44.318,-186.778 -44.5803,-185.971 -44.8425,-185.164 -45.0473,-184.34 -45.1932,-183.504 -45.3391,-182.668 -45.4257,-181.822 -45.4524,-180.974 -45.479,-180.126 -45.4456,-179.277 -45.3525,-178.434 -45.2594,-177.59 -45.1068,-176.754 -44.8957,-175.932 -44.6847,-175.111 -44.4158,-174.305 -44.0911,-173.521 -43.7663,-172.737 -43.3866,-171.977 -42.9546,-171.246 -42.5226,-170.516 -42.0395,-169.817 -41.509,-169.155 -40.9784,-168.492 -40.4017,-167.868 -39.7831,-167.287 -39.1645,-166.707 -38.5056,-166.17 -37.8113,-165.682 -37.1171,-165.194 -36.3892,-164.756 -35.6331,-164.371 -34.877,-163.986 -34.0946,-163.654 -33.2917,-163.379 -32.4889,-163.104 -31.6676,-162.887 -30.8341,-162.728 -30.8341,-162.728 -27.4612,-180.409 -27.4612,-180.409"/>
<path fill="#98f5ff" stroke="black" stroke-width="0.5" d="M-27.4612,-180.409C-27.4612,-180.409 -30.8341,-162.728 -30.8341,-162.728 -30.1859,-162.604 -29.5314,-162.516 -28.8735,-162.464 -28.2156,-162.413 -27.5554,-162.397 -26.8958,-162.418 -26.2363,-162.439 -25.5783,-162.495 -24.925,-162.588 -24.2717,-162.681 -23.624,-162.81 -22.9848,-162.974 -22.3456,-163.139 -21.716,-163.338 -21.0987,-163.571 -20.4814,-163.804 -19.8774,-164.071 -19.2894,-164.371 -18.7014,-164.67 -18.1304,-165.002 -17.5788,-165.364 -17.0273,-165.727 -16.4961,-166.119 -15.9876,-166.54 -15.4791,-166.96 -14.9942,-167.409 -14.535,-167.882 -14.0757,-168.356 -13.6429,-168.855 -13.2384,-169.377 -12.834,-169.898 -12.4585,-170.441 -12.1137,-171.004 -11.7689,-171.567 -11.4553,-172.148 -11.1743,-172.745 -10.8934,-173.342 -10.6454,-173.954 -10.4317,-174.578 -10.2179,-175.203 -10.0387,-175.838 -9.89473,-176.482 -9.75078,-177.126 -9.64235,-177.778 -9.56994,-178.434 -9.49752,-179.09 -9.46123,-179.749 -9.46123,-180.409 -9.46123,-180.409 -27.4612,-180.409 -27.4612,-180.409"/>
<ellipse fill="none" stroke="black" cx="-27.4612" cy="-180.409" rx="18" ry="18"/>
<text text-anchor="middle" x="-27.4612" y="-177.909" font-family="Times,serif" font-size="10.00">15</text>
</g>
<!-- 9&#45;&#45;15 -->
<g id="edge57" class="edge"><title>9&#45;&#45;15</title>
<path fill="none" stroke="black" d="M-14.5692,-236.315C-16.2639,-228.966 -20.2632,-211.623 -23.3616,-198.187"/>
</g>
<!-- 11&#45;&#45;48 -->
<g id="edge73" class="edge"><title>11&#45;&#45;48</title>
<path fill="none" stroke="black" stroke-dasharray="5,2" d="M128.242,101.25C126.211,93.132 121.126,72.8065 118.568,62.5814"/>
</g>
<!-- 12 -->
<g id="node13" class="node"><title>12</title>
<ellipse fill="deepskyblue" stroke="black" cx="-85.3767" cy="-200.484" rx="3.5" ry="3.5"/>
<text text-anchor="middle" x="-85.3767" y="-197.984" font-family="Times,serif" font-size="10.00">12</text>
</g>
<!-- 12&#45;&#45;15 -->
<g id="edge58" class="edge"><title>12&#45;&#45;15</title>
<path fill="none" stroke="black" d="M-81.9272,-199.288C-74.7191,-196.79 -57.6413,-190.87 -44.5148,-186.32"/>
</g>
<!-- 28 -->
<g id="node29" class="node"><title>28</title>
<ellipse fill="#ff3030" stroke="black" cx="94.418" cy="124.368" rx="3.5" ry="3.5"/>
<text text-anchor="middle" x="94.418" y="126.868" font-family="Times,serif" font-size="10.00">28</text>
</g>
<!-- 13&#45;&#45;28 -->
<g id="edge59" class="edge"><title>13&#45;&#45;28</title>
<path fill="none" stroke="black" d="M79.936,82.8591C83.7074,93.6687 90.4251,112.923 93.1836,120.83"/>
</g>
<!-- 14&#45;&#45;15 -->
<g id="edge60" class="edge"><title>14&#45;&#45;15</title>
<path fill="none" stroke="black" d="M14.2344,-121.24C7.56791,-130.701 -7.05282,-151.448 -17.0809,-165.679"/>
</g>
<!-- anon_14_20_0 -->
<g id="node68" class="node"><title>anon_14_20_0</title>
<ellipse fill="white" stroke="black" cx="34.6394" cy="-162.374" rx="2.5" ry="2.5"/>
</g>
<!-- 14&#45;&#45;anon_14_20_0 -->
<g id="edge61" class="edge"><title>14&#45;&#45;anon_14_20_0</title>
<path fill="none" stroke="black" d="M19.8514,-121.864C23.5082,-131.881 30.9851,-152.364 33.6603,-159.692"/>
</g>
<!-- anon_15_23_0 -->
<g id="node70" class="node"><title>anon_15_23_0</title>
<ellipse fill="white" stroke="black" cx="-58.2492" cy="-238.214" rx="2.5" ry="2.5"/>
</g>
<!-- 15&#45;&#45;anon_15_23_0 -->
<g id="edge64" class="edge"><title>15&#45;&#45;anon_15_23_0</title>
<path fill="none" stroke="black" d="M-36.0374,-196.511C-43.4392,-210.408 -53.4763,-229.253 -56.98,-235.831"/>
</g>
<!-- 33 -->
<g id="node34" class="node"><title>33</title>
<ellipse fill="deepskyblue" stroke="black" cx="133.08" cy="125.399" rx="3.5" ry="3.5"/>
<text text-anchor="middle" x="133.08" y="127.899" font-family="Times,serif" font-size="10.00">33</text>
</g>
<!-- 19&#45;&#45;33 -->
<g id="edge67" class="edge"><title>19&#45;&#45;33</title>
<path fill="none" stroke="black" d="M110.018,85.8879C116.618,97.196 126.981,114.951 131.199,122.178"/>
</g>
<!-- 20 -->
<g id="node21" class="node"><title>20</title>
<ellipse fill="deepskyblue" stroke="black" cx="84.03" cy="-234.842" rx="3.5" ry="3.5"/>
<text text-anchor="middle" x="84.03" y="-232.342" font-family="Times,serif" font-size="10.00">20</text>
</g>
<!-- anon_20_31_0 -->
<g id="node73" class="node"><title>anon_20_31_0</title>
<ellipse fill="white" stroke="black" cx="111.93" cy="-201.751" rx="2.5" ry="2.5"/>
</g>
<!-- 20&#45;&#45;anon_20_31_0 -->
<g id="edge74" class="edge"><title>20&#45;&#45;anon_20_31_0</title>
<path fill="none" stroke="black" stroke-dasharray="5,2" d="M86.6048,-231.788C92.2167,-225.132 105.428,-209.463 110.185,-203.821"/>
</g>
<!-- 23 -->
<g id="node24" class="node"><title>23</title>
<ellipse fill="deepskyblue" stroke="black" cx="-93.0483" cy="-318.778" rx="3.5" ry="3.5"/>
<text text-anchor="middle" x="-93.0483" y="-316.278" font-family="Times,serif" font-size="10.00">23</text>
</g>
<!-- 27 -->
<g id="node28" class="node"><title>27</title>
<ellipse fill="#ff3030" stroke="black" cx="88.2698" cy="174.434" rx="5" ry="5"/>
<text text-anchor="middle" x="88.2698" y="176.934" font-family="Times,serif" font-size="10.00">27</text>
</g>
<!-- 32&#45;&#45;48 -->
<g id="edge77" class="edge"><title>32&#45;&#45;48</title>
<path fill="none" stroke="black" stroke-dasharray="5,2" d="M155.973,77.8114C148.738,73.8514 131.468,64.3988 122.565,59.5254"/>
</g>
<!-- 35 -->
<g id="node36" class="node"><title>35</title>
<ellipse fill="#ff3030" stroke="black" cx="-211.139" cy="-11.5963" rx="3.5" ry="3.5"/>
<text text-anchor="middle" x="-211.139" y="-9.09628" font-family="Times,serif" font-size="10.00">35</text>
</g>
<!-- 37 -->
<g id="node38" class="node"><title>37</title>
<ellipse fill="#ff3030" stroke="black" cx="255.715" cy="-27.0845" rx="3.5" ry="3.5"/>
<text text-anchor="middle" x="255.715" y="-24.5845" font-family="Times,serif" font-size="10.00">37</text>
</g>
<!-- 40 -->
<g id="node41" class="node"><title>40</title>
<ellipse fill="deepskyblue" stroke="black" cx="-232.525" cy="51.6551" rx="3.5" ry="3.5"/>
<text text-anchor="middle" x="-232.525" y="54.1551" font-family="Times,serif" font-size="10.00">40</text>
</g>
<!-- 41&#45;&#45;50 -->
<g id="edge78" class="edge"><title>41&#45;&#45;50</title>
<path fill="none" stroke="black" stroke-dasharray="5,2" d="M-33.2899,66.508C-26.3197,63.7574 -10.3051,57.4376 -0.760962,53.6712"/>
</g>
<!-- 42 -->
<g id="node43" class="node"><title>42</title>
<ellipse fill="#1874cd" stroke="black" cx="-107.716" cy="214.108" rx="3.5" ry="3.5"/>
<text text-anchor="middle" x="-107.716" y="216.608" font-family="Times,serif" font-size="10.00">42</text>
</g>
<!-- 42&#45;&#45;46 -->
<g id="edge68" class="edge"><title>42&#45;&#45;46</title>
<path fill="none" stroke="black" d="M-107.371,210.44C-106.545,201.66 -104.462,179.521 -103.65,170.889"/>
</g>
<!-- 45 -->
<g id="node46" class="node"><title>45</title>
<ellipse fill="#1874cd" stroke="black" cx="-203.408" cy="153.385" rx="3.5" ry="3.5"/>
<text text-anchor="middle" x="-203.408" y="155.885" font-family="Times,serif" font-size="10.00">45</text>
</g>
<!-- 49 -->
<g id="node50" class="node"><title>49</title>
<ellipse fill="brown" stroke="black" cx="153.336" cy="-62.0926" rx="3.5" ry="3.5"/>
<text text-anchor="middle" x="153.336" y="-59.5926" font-family="Times,serif" font-size="10.00">49</text>
</g>
<!-- 52 -->
<g id="node53" class="node"><title>52</title>
<ellipse fill="brown" stroke="black" cx="-29.4075" cy="19.3608" rx="3.5" ry="3.5"/>
<text text-anchor="middle" x="-29.4075" y="21.8608" font-family="Times,serif" font-size="10.00">52</text>
</g>
<!-- 50&#45;&#45;52 -->
<g id="edge69" class="edge"><title>50&#45;&#45;52</title>
<path fill="none" stroke="black" d="M0.491242,45.2315C-7.45061,38.3596 -20.7576,26.8454 -26.559,21.8255"/>
</g>
<!-- 53 -->
<g id="node54" class="node"><title>53</title>
<ellipse fill="brown" stroke="black" cx="14.87" cy="99.6833" rx="3.5" ry="3.5"/>
<text text-anchor="middle" x="14.87" y="102.183" font-family="Times,serif" font-size="10.00">53</text>
</g>
<!-- 50&#45;&#45;53 -->
<g id="edge70" class="edge"><title>50&#45;&#45;53</title>
<path fill="none" stroke="black" d="M8.13069,58.7789C9.92191,69.6507 13.0277,88.5014 14.3008,96.2283"/>
</g>
<!-- anon_2_37_0&#45;&#45;37 -->
<g id="edge8" class="edge"><title>anon_2_37_0&#45;&#45;37</title>
<path fill="none" stroke="black" d="M214.353,-33.9303C221.898,-32.6815 243.683,-29.0758 252.223,-27.6625"/>
</g>
<!-- anon_3_35_0&#45;&#45;35 -->
<g id="edge19" class="edge"><title>anon_3_35_0&#45;&#45;35</title>
<path fill="none" stroke="black" d="M-175.424,11.8858C-182.2,7.43047 -200.856,-4.83553 -208.156,-9.63476"/>
</g>
<!-- anon_3_40_0&#45;&#45;40 -->
<g id="edge22" class="edge"><title>anon_3_40_0&#45;&#45;40</title>
<path fill="none" stroke="black" d="M-190.228,55.9398C-197.944,55.1582 -220.221,52.9015 -228.953,52.0169"/>
</g>
<!-- anon_3_45_0&#45;&#45;45 -->
<g id="edge27" class="edge"><title>anon_3_45_0&#45;&#45;45</title>
<path fill="none" stroke="black" d="M-171.817,125.866C-177.693,130.985 -193.669,144.902 -200.378,150.745"/>
</g>
<!-- anon_6_27_1 -->
<g id="node66" class="node"><title>anon_6_27_1</title>
<ellipse fill="white" stroke="black" cx="72.4972" cy="128.786" rx="2.5" ry="2.5"/>
</g>
<!-- anon_6_27_0&#45;&#45;anon_6_27_1 -->
<g id="edge46" class="edge"><title>anon_6_27_0&#45;&#45;anon_6_27_1</title>
<path fill="none" stroke="black" d="M62.6103,85.1193C64.4075,93.0571 70.0084,117.794 71.8806,126.063"/>
</g>
<!-- anon_6_27_1&#45;&#45;27 -->
<g id="edge47" class="edge"><title>anon_6_27_1&#45;&#45;27</title>
<path fill="none" stroke="black" d="M73.3452,131.24C75.8534,138.499 83.2695,159.962 86.6079,169.624"/>
</g>
<!-- anon_6_49_0&#45;&#45;49 -->
<g id="edge52" class="edge"><title>anon_6_49_0&#45;&#45;49</title>
<path fill="none" stroke="black" d="M119.579,-40.4688C125.858,-44.4911 142.93,-55.4266 150.098,-60.0185"/>
</g>
<!-- anon_14_20_1 -->
<g id="node69" class="node"><title>anon_14_20_1</title>
<ellipse fill="white" stroke="black" cx="52.7734" cy="-203.201" rx="2.5" ry="2.5"/>
</g>
<!-- anon_14_20_0&#45;&#45;anon_14_20_1 -->
<g id="edge62" class="edge"><title>anon_14_20_0&#45;&#45;anon_14_20_1</title>
<path fill="none" stroke="black" d="M35.8292,-165.053C39.1701,-172.575 48.5979,-193.8 51.7399,-200.874"/>
</g>
<!-- anon_14_20_1&#45;&#45;20 -->
<g id="edge63" class="edge"><title>anon_14_20_1&#45;&#45;20</title>
<path fill="none" stroke="black" d="M54.8243,-205.277C60.2569,-210.777 75.0268,-225.728 81.2287,-232.006"/>
</g>
<!-- anon_15_23_1 -->
<g id="node71" class="node"><title>anon_15_23_1</title>
<ellipse fill="white" stroke="black" cx="-76.5359" cy="-278.39" rx="2.5" ry="2.5"/>
</g>
<!-- anon_15_23_0&#45;&#45;anon_15_23_1 -->
<g id="edge65" class="edge"><title>anon_15_23_0&#45;&#45;anon_15_23_1</title>
<path fill="none" stroke="black" d="M-59.449,-240.85C-62.8181,-248.252 -72.3252,-269.139 -75.4937,-276.1"/>
</g>
<!-- anon_15_23_1&#45;&#45;23 -->
<g id="edge66" class="edge"><title>anon_15_23_1&#45;&#45;23</title>
<path fill="none" stroke="black" d="M-77.6193,-281.04C-80.4893,-288.06 -88.292,-307.144 -91.5684,-315.158"/>
</g>
<!-- anon_5_37_0&#45;&#45;37 -->
<g id="edge72" class="edge"><title>anon_5_37_0&#45;&#45;37</title>
<path fill="none" stroke="black" stroke-dasharray="5,2" d="M232.303,5.15328C236.658,-0.843323 248.498,-17.1466 253.47,-23.9923"/>
</g>
<!-- anon_20_31_1 -->
<g id="node74" class="node"><title>anon_20_31_1</title>
<ellipse fill="white" stroke="black" cx="103.972" cy="-158.222" rx="2.5" ry="2.5"/>
</g>
<!-- anon_20_31_0&#45;&#45;anon_20_31_1 -->
<g id="edge75" class="edge"><title>anon_20_31_0&#45;&#45;anon_20_31_1</title>
<path fill="none" stroke="black" stroke-dasharray="5,2" d="M111.456,-199.159C110.037,-191.398 105.836,-168.417 104.434,-160.746"/>
</g>
<!-- anon_20_31_1&#45;&#45;31 -->
<g id="edge76" class="edge"><title>anon_20_31_1&#45;&#45;31</title>
<path fill="none" stroke="black" stroke-dasharray="5,2" d="M103.098,-155.557C100.751,-148.399 94.1976,-128.411 89.8795,-115.241"/>
</g>
</g>
</svg>
