<?xml version="1.0" encoding="UTF-8" standalone="no"?>
<!DOCTYPE svg PUBLIC "-//W3C//DTD SVG 1.1//EN"
 "http://www.w3.org/Graphics/SVG/1.1/DTD/svg11.dtd">
<!-- Generated by graphviz version 2.38.0 (20140413.2041)
 -->
<!-- Title: %3 Pages: 1 -->
<svg width="217pt" height="265pt"
 viewBox="0.00 0.00 217.29 264.93" xmlns="http://www.w3.org/2000/svg" xmlns:xlink="http://www.w3.org/1999/xlink">
<g id="graph0" class="graph" transform="scale(1 1) rotate(0) translate(121.682 114.189)">
<title>%3</title>
<polygon fill="white" stroke="none" points="-121.682,150.743 -121.682,-114.189 95.6092,-114.189 95.6092,150.743 -121.682,150.743"/>
<!-- 0 -->
<g id="node1" class="node"><title>0</title>
<path fill="#1874cd" stroke="black" stroke-width="0.5" d="M7.65389,-25.2555C7.65389,-25.2555 21.6539,-25.2555 21.6539,-25.2555 21.6539,-26.1113 21.5754,-26.9653 21.4195,-27.8068 21.2635,-28.6483 21.0307,-29.4737 20.724,-30.2726 20.4173,-31.0716 20.038,-31.8408 19.5909,-32.5705 19.1437,-33.3002 18.6306,-33.9873 18.0579,-34.6233 17.4853,-35.2593 16.8555,-35.8415 16.1766,-36.3624 15.4976,-36.8834 14.7723,-37.3411 14.0098,-37.7296 13.2472,-38.1181 12.4507,-38.4359 11.6301,-38.679 10.8095,-38.922 9.96841,-39.0893 9.11729,-39.1788 8.26617,-39.2683 7.40864,-39.2795 6.55547,-39.2123 5.70229,-39.1452 4.85707,-39 4.03043,-38.7785 3.20378,-38.557 2.39918,-38.2601 1.62674,-37.8917 0.854297,-37.5233 0.117264,-37.0848 -0.5751,-36.5817 -1.26746,-36.0787 -1.91225,-35.5132 -2.50135,-34.8925 -3.09045,-34.2717 -3.62139,-33.5982 -4.08749,-32.8804 -4.5536,-32.1627 -4.95292,-31.4037 -5.28042,-30.6131 -5.60792,-29.8224 -5.86224,-29.0034 -6.04017,-28.1663 -6.04017,-28.1663 7.65389,-25.2555 7.65389,-25.2555"/>
<path fill="olivedrab" stroke="black" stroke-width="0.5" d="M7.65389,-25.2555C7.65389,-25.2555 -6.04017,-28.1663 -6.04017,-28.1663 -6.1418,-27.6881 -6.21832,-27.205 -6.26941,-26.7189 -6.32051,-26.2328 -6.34611,-25.7443 -6.34611,-25.2555 -6.34611,-24.7667 -6.32051,-24.2782 -6.26941,-23.7921 -6.21832,-23.306 -6.1418,-22.8229 -6.04017,-22.3447 -5.93855,-21.8666 -5.81195,-21.3941 -5.6609,-20.9293 -5.50985,-20.4644 -5.33456,-20.0077 -5.13574,-19.5612 -4.93693,-19.1146 -4.71486,-18.6788 -4.47046,-18.2555 -4.22606,-17.8322 -3.95966,-17.4219 -3.67234,-17.0265 -3.38503,-16.631 -3.07721,-16.2509 -2.75013,-15.8877 -2.42306,-15.5244 -2.07719,-15.1785 -1.71394,-14.8515 -1.35068,-14.5244 -0.970551,-14.2166 -0.5751,-13.9293 -0.17965,-13.6419 0.230577,-13.3755 0.653893,-13.1311 1.07721,-12.8867 1.51304,-12.6647 1.95958,-12.4659 2.40612,-12.267 2.86278,-12.0917 3.32766,-11.9407 3.79254,-11.7897 4.26501,-11.6631 4.74313,-11.5614 5.22125,-11.4598 5.70437,-11.3833 6.19049,-11.3322 6.67662,-11.2811 7.16509,-11.2555 7.65389,-11.2555 8.1427,-11.2555 8.63117,-11.2811 9.11729,-11.3322 9.60342,-11.3833 10.0865,-11.4598 10.5647,-11.5614 11.0428,-11.6631 11.5153,-11.7897 11.9801,-11.9407 12.445,-12.0917 12.9017,-12.267 13.3482,-12.4659 13.7948,-12.6647 14.2306,-12.8867 14.6539,-13.1311 15.0772,-13.3755 15.4874,-13.6419 15.8829,-13.9293 16.2783,-14.2166 16.6585,-14.5244 17.0217,-14.8515 17.385,-15.1785 17.7308,-15.5244 18.0579,-15.8877 18.385,-16.2509 18.6928,-16.631 18.9801,-17.0265 19.2674,-17.4219 19.5338,-17.8322 19.7782,-18.2555 20.0227,-18.6788 20.2447,-19.1146 20.4435,-19.5612 20.6423,-20.0077 20.8176,-20.4644 20.9687,-20.9293 21.1197,-21.3941 21.2463,-21.8666 21.348,-22.3447 21.4496,-22.8229 21.5261,-23.306 21.5772,-23.7921 21.6283,-24.2782 21.6539,-24.7667 21.6539,-25.2555 21.6539,-25.2555 7.65389,-25.2555 7.65389,-25.2555"/>
<ellipse fill="none" stroke="black" cx="7.65389" cy="-25.2555" rx="14" ry="14"/>
</g>
<!-- 1 -->
<g id="node2" class="node"><title>1</title>
<path fill="#1874cd" stroke="black" stroke-width="0.5" d="M51.5822,-69.9669C51.5822,-69.9669 63.5822,-69.9669 63.5822,-69.9669 63.5822,-70.5384 63.5414,-71.1091 63.4601,-71.6747 63.3788,-72.2403 63.2571,-72.7994 63.0961,-73.3477 62.9351,-73.896 62.7352,-74.4321 62.4978,-74.9519 62.2604,-75.4717 61.9862,-75.9739 61.6773,-76.4546 61.3683,-76.9353 61.0254,-77.3934 60.6512,-77.8253 60.277,-78.2571 59.8724,-78.6617 59.4406,-79.0359 59.0087,-79.4101 58.5506,-79.753 58.0699,-80.062 57.5892,-80.3709 57.087,-80.6451 56.5672,-80.8825 56.0474,-81.1199 55.5113,-81.3199 54.963,-81.4808 54.4147,-81.6418 53.8556,-81.7635 53.29,-81.8448 52.7244,-81.9261 52.1537,-81.9669 51.5822,-81.9669 51.0108,-81.9669 50.4401,-81.9261 49.8744,-81.8448 49.3088,-81.7635 48.7497,-81.6418 48.2014,-81.4808 47.6531,-81.3199 47.117,-81.1199 46.5972,-80.8825 46.0774,-80.6451 45.5753,-80.3709 45.0945,-80.062 44.6138,-79.753 44.1558,-79.4101 43.7239,-79.0359 43.292,-78.6617 42.8874,-78.2571 42.5132,-77.8253 42.139,-77.3934 41.7961,-76.9353 41.4872,-76.4546 41.1782,-75.9739 40.904,-75.4717 40.6666,-74.9519 40.4293,-74.4321 40.2293,-73.896 40.0683,-73.3477 39.9073,-72.7994 39.7857,-72.2403 39.7044,-71.6747 39.623,-71.1091 39.5822,-70.5384 39.5822,-69.9669 39.5822,-69.3955 39.623,-68.8248 39.7044,-68.2592 39.7857,-67.6935 39.9073,-67.1344 40.0683,-66.5861 40.2293,-66.0378 40.4293,-65.5018 40.6666,-64.9819 40.904,-64.4621 41.1782,-63.96 41.4872,-63.4792 41.7961,-62.9985 42.139,-62.5405 42.5132,-62.1086 42.8874,-61.6767 43.292,-61.2721 43.7239,-60.8979 44.1558,-60.5237 44.6138,-60.1808 45.0945,-59.8719 45.5753,-59.5629 46.0774,-59.2887 46.5972,-59.0513 47.117,-58.814 47.6531,-58.614 48.2014,-58.453 48.7497,-58.292 49.3088,-58.1704 49.8744,-58.0891 49.8744,-58.0891 51.5822,-69.9669 51.5822,-69.9669"/>
<path fill="olivedrab" stroke="black" stroke-width="0.5" d="M51.5822,-69.9669C51.5822,-69.9669 49.8744,-58.0891 49.8744,-58.0891 50.2986,-58.0281 50.7257,-57.9899 51.1539,-57.9746 51.5821,-57.9593 52.0109,-57.9669 52.4383,-57.9975 52.8657,-58.0281 53.2912,-58.0815 53.7129,-58.1576 54.1346,-58.2337 54.5519,-58.3323 54.963,-58.453 55.3742,-58.5737 55.7785,-58.7164 56.1744,-58.8804 56.5703,-59.0444 56.9571,-59.2294 57.3332,-59.4348 57.7093,-59.6401 58.0741,-59.8655 58.4261,-60.1099 58.7781,-60.3543 59.1167,-60.6173 59.4406,-60.8979 59.7644,-61.1785 60.073,-61.4763 60.365,-61.7899 60.6569,-62.1035 60.9319,-62.4326 61.1887,-62.7756 61.4455,-63.1186 61.6837,-63.4752 61.9024,-63.8437 62.121,-64.2122 62.3198,-64.5922 62.4978,-64.982 62.6758,-65.3717 62.8328,-65.7708 62.9681,-66.1773 63.1035,-66.5839 63.2169,-66.9974 63.308,-67.4161 63.3991,-67.8349 63.4677,-68.2581 63.5135,-68.6842 63.5593,-69.1102 63.5822,-69.5384 63.5822,-69.9669 63.5822,-69.9669 51.5822,-69.9669 51.5822,-69.9669"/>
<ellipse fill="none" stroke="black" cx="51.5822" cy="-69.9669" rx="12" ry="12"/>
</g>
<!-- 1&#45;&#45;0 -->
<g id="edge1" class="edge"><title>1&#45;&#45;0</title>
<path fill="none" stroke="black" d="M43.1124,-61.3461C35.8323,-53.9363 25.323,-43.2396 17.6356,-35.4152"/>
</g>
<!-- 2 -->
<g id="node3" class="node"><title>2</title>
<ellipse fill="#1874cd" stroke="black" cx="33.6581" cy="25.475" rx="6" ry="6"/>
</g>
<!-- 2&#45;&#45;0 -->
<g id="edge2" class="edge"><title>2&#45;&#45;0</title>
<path fill="none" stroke="black" d="M30.8752,20.046C26.8921,12.2755 19.4525,-2.23806 14.0652,-12.7479"/>
</g>
<!-- 3 -->
<g id="node4" class="node"><title>3</title>
<ellipse fill="olivedrab" stroke="black" cx="-41.5957" cy="-3.65658" rx="3.5" ry="3.5"/>
</g>
<!-- 3&#45;&#45;0 -->
<g id="edge3" class="edge"><title>3&#45;&#45;0</title>
<path fill="none" stroke="black" d="M-38.3643,-5.07374C-31.7731,-7.96436 -16.459,-14.6805 -5.30195,-19.5736"/>
</g>
<!-- 4 -->
<g id="node5" class="node"><title>4</title>
<ellipse fill="olivedrab" stroke="black" cx="6.81319" cy="-78.9784" rx="3.5" ry="3.5"/>
</g>
<!-- 4&#45;&#45;0 -->
<g id="edge4" class="edge"><title>4&#45;&#45;0</title>
<path fill="none" stroke="black" d="M6.86835,-75.4535C6.98086,-68.2637 7.24228,-51.5586 7.43273,-39.3881"/>
</g>
<!-- 5 -->
<g id="node6" class="node"><title>5</title>
<ellipse fill="olivedrab" stroke="black" cx="88.1092" cy="-106.689" rx="3.5" ry="3.5"/>
</g>
<!-- 5&#45;&#45;1 -->
<g id="edge5" class="edge"><title>5&#45;&#45;1</title>
<path fill="none" stroke="black" d="M85.243,-103.807C79.9284,-98.4644 68.352,-86.8262 60.2675,-78.6986"/>
</g>
<!-- 6 -->
<g id="node7" class="node"><title>6</title>
<ellipse fill="olivedrab" stroke="black" cx="-19.2862" cy="21.2679" rx="3.5" ry="3.5"/>
</g>
<!-- 6&#45;&#45;0 -->
<g id="edge6" class="edge"><title>6&#45;&#45;0</title>
<path fill="none" stroke="black" d="M-17.5186,18.2154C-13.9131,11.9891 -5.53615,-2.47732 0.5669,-13.0168"/>
</g>
<!-- 7 -->
<g id="node8" class="node"><title>7</title>
<ellipse fill="#1874cd" stroke="black" cx="-114.182" cy="-86.8235" rx="3.5" ry="3.5"/>
</g>
<!-- anon_7_0_0 -->
<g id="node11" class="node"><title>anon_7_0_0</title>
<ellipse fill="white" stroke="black" cx="-75.4423" cy="-70.0244" rx="2.5" ry="2.5"/>
</g>
<!-- 7&#45;&#45;anon_7_0_0 -->
<g id="edge7" class="edge"><title>7&#45;&#45;anon_7_0_0</title>
<path fill="none" stroke="black" d="M-110.607,-85.2732C-102.815,-81.8942 -84.4706,-73.9395 -77.8656,-71.0752"/>
</g>
<!-- 8 -->
<g id="node9" class="node"><title>8</title>
<ellipse fill="#1874cd" stroke="black" cx="84.8742" cy="143.243" rx="3.5" ry="3.5"/>
</g>
<!-- anon_8_2_0 -->
<g id="node13" class="node"><title>anon_8_2_0</title>
<ellipse fill="white" stroke="black" cx="69.1909" cy="104.093" rx="2.5" ry="2.5"/>
</g>
<!-- 8&#45;&#45;anon_8_2_0 -->
<g id="edge10" class="edge"><title>8&#45;&#45;anon_8_2_0</title>
<path fill="none" stroke="black" d="M83.537,139.905C80.4555,132.212 72.9108,113.379 70.1898,106.587"/>
</g>
<!-- 9 -->
<g id="node10" class="node"><title>9</title>
<ellipse fill="olivedrab" stroke="black" cx="61.3631" cy="-25.4195" rx="3.5" ry="3.5"/>
</g>
<!-- 9&#45;&#45;0 -->
<g id="edge13" class="edge"><title>9&#45;&#45;0</title>
<path fill="none" stroke="black" d="M57.8391,-25.4088C50.6511,-25.3868 33.9503,-25.3358 21.7829,-25.2986"/>
</g>
<!-- anon_7_0_1 -->
<g id="node12" class="node"><title>anon_7_0_1</title>
<ellipse fill="white" stroke="black" cx="-38.5498" cy="-51.4806" rx="2.5" ry="2.5"/>
</g>
<!-- anon_7_0_0&#45;&#45;anon_7_0_1 -->
<g id="edge8" class="edge"><title>anon_7_0_0&#45;&#45;anon_7_0_1</title>
<path fill="none" stroke="black" d="M-73.0217,-68.8077C-66.353,-65.4557 -47.7641,-56.1121 -41.0277,-52.7261"/>
</g>
<!-- anon_7_0_1&#45;&#45;0 -->
<g id="edge9" class="edge"><title>anon_7_0_1&#45;&#45;0</title>
<path fill="none" stroke="black" d="M-36.3213,-50.2157C-30.6972,-47.0235 -15.5978,-38.4531 -4.65958,-32.2446"/>
</g>
<!-- anon_8_2_1 -->
<g id="node14" class="node"><title>anon_8_2_1</title>
<ellipse fill="white" stroke="black" cx="52.7717" cy="66.3189" rx="2.5" ry="2.5"/>
</g>
<!-- anon_8_2_0&#45;&#45;anon_8_2_1 -->
<g id="edge11" class="edge"><title>anon_8_2_0&#45;&#45;anon_8_2_1</title>
<path fill="none" stroke="black" d="M68.1136,101.615C65.1457,94.7865 56.8726,75.7534 53.8745,68.856"/>
</g>
<!-- anon_8_2_1&#45;&#45;2 -->
<g id="edge12" class="edge"><title>anon_8_2_1&#45;&#45;2</title>
<path fill="none" stroke="black" d="M51.5176,63.639C48.4281,57.037 40.4001,39.882 36.2408,30.994"/>
</g>
</g>
</svg>
