<?xml version="1.0" encoding="UTF-8" standalone="no"?>
<!DOCTYPE svg PUBLIC "-//W3C//DTD SVG 1.1//EN"
 "http://www.w3.org/Graphics/SVG/1.1/DTD/svg11.dtd">
<!-- Generated by graphviz version 2.38.0 (20140413.2041)
 -->
<!-- Title: %3 Pages: 1 -->
<svg width="178pt" height="184pt"
 viewBox="0.00 0.00 177.87 183.57" xmlns="http://www.w3.org/2000/svg" xmlns:xlink="http://www.w3.org/1999/xlink">
<g id="graph0" class="graph" transform="scale(1 1) rotate(0) translate(129.751 123.622)">
<title>%3</title>
<polygon fill="white" stroke="none" points="-129.751,59.9497 -129.751,-123.622 48.1213,-123.622 48.1213,59.9497 -129.751,59.9497"/>
<!-- 0 -->
<g id="node1" class="node"><title>0</title>
<path fill="#1874cd" stroke="black" stroke-width="0.5" d="M-54.9018,-15.4778C-54.9018,-15.4778 -28.4018,-15.4778 -28.4018,-15.4778 -28.4018,-16.4872 -28.4595,-17.4957 -28.5746,-18.4985 -28.6896,-19.5014 -28.8619,-20.4968 -29.0905,-21.4799 -29.3191,-22.4631 -29.6037,-23.4324 -29.9429,-24.3831 -30.2821,-25.3338 -30.6754,-26.2643 -31.1208,-27.1701 -31.5661,-28.076 -32.0629,-28.9556 -32.6086,-29.8048 -33.1543,-30.6539 -33.7481,-31.4712 -34.3871,-32.2526 -35.026,-33.034 -35.7091,-33.7783 -36.433,-34.4818 -37.1568,-35.1852 -37.9203,-35.8468 -38.7196,-36.4632 -38.7196,-36.4632 -54.9018,-15.4778 -54.9018,-15.4778"/>
<path fill="olivedrab" stroke="black" stroke-width="0.5" d="M-54.9018,-15.4778C-54.9018,-15.4778 -38.7196,-36.4632 -38.7196,-36.4632 -39.3066,-36.9158 -39.9123,-37.3436 -40.5351,-37.7454 -41.1579,-38.1472 -41.7973,-38.5227 -42.4515,-38.8709 -43.1058,-39.2192 -43.7744,-39.5398 -44.4556,-39.832 -45.1368,-40.1241 -45.8299,-40.3876 -46.5331,-40.6217 -47.2364,-40.8557 -47.9491,-41.0602 -48.6695,-41.2345 -49.3899,-41.4088 -50.1173,-41.5528 -50.8498,-41.6661 -51.5822,-41.7795 -52.3191,-41.862 -53.0585,-41.9136 -53.7979,-41.9651 -54.5391,-41.9857 -55.2802,-41.9751 -56.0213,-41.9645 -56.7617,-41.9228 -57.4993,-41.8502 -58.2369,-41.7775 -58.9711,-41.674 -59.7,-41.5398 -60.429,-41.4056 -61.152,-41.2408 -61.8671,-41.046 -62.5822,-40.8512 -63.2888,-40.6265 -63.9851,-40.3724 -64.6814,-40.1184 -65.3667,-39.8352 -66.0392,-39.5237 -66.7118,-39.2122 -67.371,-38.8726 -68.015,-38.5059 -68.6591,-38.1391 -69.2875,-37.7455 -69.8986,-37.326 -70.5097,-36.9066 -71.1029,-36.4617 -71.6766,-35.9925 -72.2504,-35.5233 -72.8043,-35.0303 -73.3367,-34.5147 -73.8692,-33.9991 -74.3797,-33.4614 -74.8671,-32.903 -75.3545,-32.3446 -75.8182,-31.7659 -76.257,-31.1687 -76.6959,-30.5714 -77.1095,-29.9559 -77.4968,-29.324 -77.884,-28.692 -78.2446,-28.0441 -78.5776,-27.3819 -78.9105,-26.7197 -79.2155,-26.0439 -79.4918,-25.3561 -79.7681,-24.6683 -80.0154,-23.9693 -80.2331,-23.2608 -80.4508,-22.5523 -80.6387,-21.835 -80.7962,-21.1108 -80.9538,-20.3865 -81.0809,-19.656 -81.1772,-18.9211 -81.2735,-18.1862 -81.3389,-17.4476 -81.3733,-16.7072 -81.4077,-15.9668 -81.411,-15.2253 -81.3832,-14.4847 -81.3554,-13.744 -81.2966,-13.0048 -81.2068,-12.2691 -81.1171,-11.5334 -80.9965,-10.8017 -80.8455,-10.0761 -80.6944,-9.3505 -80.5129,-8.63154 -80.3016,-7.92113 -80.0902,-7.21073 -79.8492,-6.5095 -79.579,-5.8193 -79.3089,-5.12911 -79.0099,-4.45055 -78.6829,-3.78541 -78.3559,-3.12028 -78.0011,-2.46916 -77.6195,-1.83377 -77.2378,-1.19838 -76.8297,-0.579277 -76.3962,0.0219009 -75.9627,0.623079 -75.5042,1.20581 -75.0218,1.76854 -74.5395,2.33128 -74.0337,2.87353 -73.5059,3.39387 -72.9781,3.91421 -72.4286,4.41217 -71.8591,4.88645 -71.2895,5.36073 -70.7003,5.8109 -70.093,6.23578 -69.4857,6.66067 -68.8608,7.05988 -68.22,7.43238 -67.5793,7.80488 -66.9231,8.15033 -66.2534,8.46782 -65.5837,8.78532 -64.9009,9.07457 -64.2069,9.33483 -63.5129,9.59508 -62.8083,9.82611 -62.095,10.0273 -61.3816,10.2285 -60.6602,10.3996 -59.9325,10.5403 -59.2048,10.6811 -58.4715,10.7912 -57.7345,10.8704 -56.9976,10.9496 -56.2577,10.9979 -55.5167,11.0151 -54.7757,11.0323 -54.0343,11.0184 -53.2945,10.9734 -52.5547,10.9285 -51.8171,10.8525 -51.0837,10.7457 -50.3502,10.6389 -49.6216,10.5014 -48.8997,10.3335 -48.1777,10.1657 -47.4632,9.96758 -46.7579,9.7398 -46.0526,9.51202 -45.3571,9.25476 -44.6734,8.96868 -43.9896,8.6826 -43.3182,8.36796 -42.6608,8.02559 -42.0035,7.68322 -41.3607,7.31342 -40.7344,6.91717 -40.108,6.52092 -39.4985,6.09857 -38.9076,5.65123 -38.3166,5.20388 -37.7447,4.73194 -37.1933,4.23665 -36.6419,3.74136 -36.1115,3.22316 -35.6036,2.68341 -35.0956,2.14365 -34.6106,1.58283 -34.1496,1.00241 -33.6887,0.421989 -33.2523,-0.177512 -32.8416,-0.794515 -32.431,-1.41152 -32.0463,-2.04548 -31.6888,-2.69472 -31.3313,-3.34397 -31.0011,-4.00793 -30.6993,-4.68485 -30.3974,-5.36177 -30.1241,-6.05106 -29.88,-6.75089 -29.6359,-7.45073 -29.4213,-8.1605 -29.2367,-8.87833 -29.0521,-9.59616 -28.8978,-10.3214 -28.774,-11.0522 -28.6502,-11.783 -28.5571,-12.5186 -28.495,-13.2572 -28.4329,-13.9957 -28.4018,-14.7366 -28.4018,-15.4778 -28.4018,-15.4778 -54.9018,-15.4778 -54.9018,-15.4778"/>
<ellipse fill="none" stroke="black" cx="-54.9018" cy="-15.4778" rx="26.5" ry="26.5"/>
</g>
<!-- 2 -->
<g id="node3" class="node"><title>2</title>
<ellipse fill="olivedrab" stroke="black" cx="-11.6345" cy="-77.2683" rx="9" ry="9"/>
</g>
<!-- 0&#45;&#45;2 -->
<g id="edge1" class="edge"><title>0&#45;&#45;2</title>
<path fill="none" stroke="black" d="M-39.5255,-37.4368C-31.6557,-48.6758 -22.5771,-61.641 -16.9711,-69.6471"/>
</g>
<!-- 4 -->
<g id="node5" class="node"><title>4</title>
<ellipse fill="olivedrab" stroke="black" cx="22.0687" cy="-23.9434" rx="11" ry="11"/>
</g>
<!-- 0&#45;&#45;4 -->
<g id="edge2" class="edge"><title>0&#45;&#45;4</title>
<path fill="none" stroke="black" d="M-28.4129,-18.3911C-15.0192,-19.8643 0.528345,-21.5743 10.7915,-22.703"/>
</g>
<!-- 5 -->
<g id="node6" class="node"><title>5</title>
<ellipse fill="olivedrab" stroke="black" cx="-122.251" cy="-32.1734" rx="3.5" ry="3.5"/>
</g>
<!-- 0&#45;&#45;5 -->
<g id="edge3" class="edge"><title>0&#45;&#45;5</title>
<path fill="none" stroke="black" d="M-80.7482,-21.885C-94.9928,-25.4162 -111.216,-29.4378 -118.437,-31.2279"/>
</g>
<!-- 6 -->
<g id="node7" class="node"><title>6</title>
<ellipse fill="olivedrab" stroke="black" cx="-70.5966" cy="-83.0916" rx="3.5" ry="3.5"/>
</g>
<!-- 0&#45;&#45;6 -->
<g id="edge4" class="edge"><title>0&#45;&#45;6</title>
<path fill="none" stroke="black" d="M-60.9249,-41.4257C-64.2444,-55.7262 -68.025,-72.013 -69.7078,-79.2626"/>
</g>
<!-- 7 -->
<g id="node8" class="node"><title>7</title>
<ellipse fill="olivedrab" stroke="black" cx="-14.4541" cy="40.6632" rx="3.5" ry="3.5"/>
</g>
<!-- 0&#45;&#45;7 -->
<g id="edge5" class="edge"><title>0&#45;&#45;7</title>
<path fill="none" stroke="black" d="M-39.3793,6.06722C-30.8245,17.9412 -21.0815,31.4645 -16.7446,37.4839"/>
</g>
<!-- 8 -->
<g id="node9" class="node"><title>8</title>
<ellipse fill="olivedrab" stroke="black" cx="-66.9068" cy="52.4497" rx="3.5" ry="3.5"/>
</g>
<!-- 0&#45;&#45;8 -->
<g id="edge6" class="edge"><title>0&#45;&#45;8</title>
<path fill="none" stroke="black" d="M-59.5776,10.9793C-62.1057,25.284 -64.9644,41.4588 -66.2357,48.6521"/>
</g>
<!-- 9 -->
<g id="node10" class="node"><title>9</title>
<ellipse fill="olivedrab" stroke="black" cx="-113.651" cy="20.7629" rx="3.5" ry="3.5"/>
</g>
<!-- 0&#45;&#45;9 -->
<g id="edge7" class="edge"><title>0&#45;&#45;9</title>
<path fill="none" stroke="black" d="M-77.7838,-1.36241C-90.1556,6.26943 -104.145,14.899 -110.366,18.7368"/>
</g>
<!-- 1 -->
<g id="node2" class="node"><title>1</title>
<ellipse fill="olivedrab" stroke="black" cx="-41.8224" cy="-116.122" rx="3.5" ry="3.5"/>
</g>
<!-- 1&#45;&#45;2 -->
<g id="edge8" class="edge"><title>1&#45;&#45;2</title>
<path fill="none" stroke="black" d="M-39.4536,-113.073C-34.7278,-106.991 -24.0108,-93.1973 -17.3436,-84.6163"/>
</g>
<!-- 1&#45;&#45;6 -->
<g id="edge10" class="edge"><title>1&#45;&#45;6</title>
<path fill="none" stroke="black" stroke-dasharray="5,2" d="M-44.4779,-113.074C-50.0429,-106.685 -62.8542,-91.9792 -68.1928,-85.8509"/>
</g>
<!-- 3 -->
<g id="node4" class="node"><title>3</title>
<ellipse fill="olivedrab" stroke="black" cx="39.1213" cy="-73.7168" rx="5" ry="5"/>
</g>
<!-- 2&#45;&#45;3 -->
<g id="edge9" class="edge"><title>2&#45;&#45;3</title>
<path fill="none" stroke="black" d="M-2.32508,-76.6169C8.32106,-75.872 25.3763,-74.6786 33.9073,-74.0816"/>
</g>
<!-- 3&#45;&#45;4 -->
<g id="edge11" class="edge"><title>3&#45;&#45;4</title>
<path fill="none" stroke="black" stroke-dasharray="5,2" d="M37.4238,-68.7623C34.6944,-60.7955 29.2704,-44.9639 25.6552,-34.4116"/>
</g>
</g>
</svg>
