<?xml version="1.0" encoding="UTF-8" standalone="no"?>
<!DOCTYPE svg PUBLIC "-//W3C//DTD SVG 1.1//EN"
 "http://www.w3.org/Graphics/SVG/1.1/DTD/svg11.dtd">
<!-- Generated by graphviz version 2.38.0 (20140413.2041)
 -->
<!-- Title: %3 Pages: 1 -->
<svg width="279pt" height="189pt"
 viewBox="0.00 0.00 278.74 188.77" xmlns="http://www.w3.org/2000/svg" xmlns:xlink="http://www.w3.org/1999/xlink">
<g id="graph0" class="graph" transform="scale(1 1) rotate(0) translate(118.079 87.287)">
<title>%3</title>
<polygon fill="white" stroke="none" points="-118.079,101.48 -118.079,-87.287 160.665,-87.287 160.665,101.48 -118.079,101.48"/>
<!-- 0 -->
<g id="node1" class="node"><title>0</title>
<path fill="#1874cd" stroke="black" stroke-width="0.5" d="M-67.1116,53.8914C-67.1116,53.8914 -58.6116,53.8914 -58.6116,53.8914 -58.6116,53.4867 -58.6405,53.0824 -58.6981,52.6817 -58.7557,52.2811 -58.8419,51.8851 -58.9559,51.4967 -59.0699,51.1083 -59.2116,50.7286 -59.3797,50.3604 -59.5479,49.9922 -59.7421,49.6365 -59.9609,49.296 -60.1798,48.9555 -60.4227,48.631 -60.6877,48.3251 -60.9528,48.0192 -61.2394,47.7326 -61.5453,47.4676 -61.8512,47.2025 -62.1756,46.9596 -62.5161,46.7408 -62.8567,46.5219 -63.2124,46.3277 -63.5806,46.1596 -63.9488,45.9914 -64.3285,45.8498 -64.7169,45.7357 -65.1052,45.6217 -65.5013,45.5355 -65.9019,45.4779 -66.3026,45.4203 -66.7068,45.3914 -67.1116,45.3914 -67.5164,45.3914 -67.9206,45.4203 -68.3213,45.4779 -68.7219,45.5355 -69.1179,45.6217 -69.5063,45.7357 -69.8947,45.8498 -70.2744,45.9914 -70.6426,46.1596 -71.0108,46.3277 -71.3665,46.5219 -71.707,46.7408 -72.0476,46.9596 -72.372,47.2025 -72.6779,47.4676 -72.9838,47.7326 -73.2704,48.0192 -73.5355,48.3251 -73.8005,48.631 -74.0434,48.9555 -74.2623,49.296 -74.4811,49.6365 -74.6753,49.9922 -74.8435,50.3604 -75.0116,50.7286 -75.1532,51.1083 -75.2673,51.4967 -75.3813,51.8851 -75.4675,52.2811 -75.5251,52.6817 -75.5827,53.0824 -75.6116,53.4867 -75.6116,53.8914 -75.6116,54.2962 -75.5827,54.7005 -75.5251,55.1011 -75.4675,55.5018 -75.3813,55.8978 -75.2673,56.2862 -75.1532,56.6745 -75.0116,57.0543 -74.8435,57.4225 -74.6753,57.7906 -74.4811,58.1464 -74.2622,58.4869 -74.0434,58.8274 -73.8005,59.1518 -73.5355,59.4577 -73.2704,59.7636 -72.9838,60.0502 -72.6779,60.3153 -72.372,60.5804 -72.0476,60.8232 -71.707,61.0421 -71.3665,61.2609 -71.0108,61.4551 -70.6426,61.6233 -70.2744,61.7914 -69.8947,61.9331 -69.5063,62.0471 -69.1179,62.1612 -68.7219,62.2473 -68.3213,62.3049 -68.3213,62.3049 -67.1116,53.8914 -67.1116,53.8914"/>
<path fill="olivedrab" stroke="black" stroke-width="0.5" d="M-67.1116,53.8914C-67.1116,53.8914 -68.3213,62.3049 -68.3213,62.3049 -67.72,62.3914 -67.1111,62.4131 -66.5052,62.3698 -65.8993,62.3264 -65.2997,62.2183 -64.7169,62.0471 -64.134,61.876 -63.5711,61.6428 -63.038,61.3517 -62.5048,61.0606 -62.0044,60.7131 -61.5453,60.3153 -61.0862,59.9175 -60.671,59.4716 -60.307,58.9853 -59.9429,58.499 -59.6321,57.975 -59.3797,57.4225 -59.1274,56.8699 -58.935,56.2918 -58.8058,55.6982 -58.6767,55.1046 -58.6116,54.4989 -58.6116,53.8914 -58.6116,53.8914 -67.1116,53.8914 -67.1116,53.8914"/>
<ellipse fill="none" stroke="black" cx="-67.1116" cy="53.8914" rx="8.5" ry="8.5"/>
</g>
<!-- 8 -->
<g id="node9" class="node"><title>8</title>
<ellipse fill="olivedrab" stroke="black" cx="-98.5266" cy="94.9797" rx="2.5" ry="2.5"/>
</g>
<!-- 0&#45;&gt;8 -->
<g id="edge2" class="edge"><title>0&#45;&gt;8</title>
<path fill="none" stroke="black" d="M-72.2991,60.6763C-79.5489,70.1584 -92.332,86.8777 -96.8708,92.8141"/>
</g>
<!-- 1 -->
<g id="node2" class="node"><title>1</title>
<path fill="olivedrab" stroke="black" stroke-width="0.5" d="M-10.1427,16.433C-10.1427,16.433 -0.142718,16.433 -0.142718,16.433 -0.142718,15.7342 -0.215959,15.0374 -0.361242,14.3539 -0.506524,13.6704 -0.723048,13.004 -1.00726,12.3656 -1.29148,11.7273 -1.64182,11.1205 -2.05255,10.5552 -2.46327,9.98984 -2.93213,9.46912 -3.45141,9.00156 -3.9707,8.53399 -4.53757,8.12213 -5.14272,7.77275 -5.74787,7.42337 -6.38798,7.13837 -7.05255,6.92244 -7.71712,6.70651 -8.40249,6.56083 -9.09743,6.48779 -9.79237,6.41474 -10.4931,6.41474 -11.188,6.48779 -11.8829,6.56083 -12.5683,6.70651 -13.2329,6.92244 -13.8975,7.13837 -14.5376,7.42337 -15.1427,7.77275 -15.7479,8.12214 -16.3147,8.53399 -16.834,9.00156 -17.3533,9.46912 -17.8222,9.98984 -18.2329,10.5552 -18.6436,11.1205 -18.994,11.7273 -19.2782,12.3656 -19.5624,13.004 -19.7789,13.6704 -19.9242,14.3539 -20.0695,15.0374 -20.1427,15.7342 -20.1427,16.433 -20.1427,17.1318 -20.0695,17.8286 -19.9242,18.5121 -19.9242,18.5121 -10.1427,16.433 -10.1427,16.433"/>
<path fill="#1874cd" stroke="black" stroke-width="0.5" d="M-10.1427,16.433C-10.1427,16.433 -19.9242,18.5121 -19.9242,18.5121 -19.7971,19.1101 -19.6154,19.6951 -19.3815,20.2598 -19.1476,20.8246 -18.8624,21.3667 -18.5294,21.8794 -18.1965,22.3921 -17.8172,22.8731 -17.3965,23.3166 -16.9757,23.76 -16.5151,24.1639 -16.0206,24.5232 -15.526,24.8825 -14.9996,25.1957 -14.4478,25.4589 -13.8961,25.722 -13.3214,25.934 -12.7309,26.0923 -12.1404,26.2505 -11.5367,26.3542 -10.9273,26.4022 -10.3179,26.4501 -9.70538,26.4421 -9.09743,26.3782 -8.48949,26.3143 -7.88868,26.1948 -7.30256,26.0212 -6.71644,25.8476 -6.14748,25.6206 -5.60281,25.3431 -5.05815,25.0655 -4.54007,24.7387 -4.0551,24.3665 -3.57013,23.9944 -3.1203,23.5786 -2.71127,23.1243 -2.30223,22.67 -1.93572,22.1792 -1.61632,21.658 -1.29692,21.1368 -1.02598,20.5874 -0.806913,20.0167 -0.587846,19.446 -0.421568,18.8564 -0.310169,18.2554 -0.198769,17.6543 -0.142718,17.0443 -0.142718,16.433 -0.142718,16.433 -10.1427,16.433 -10.1427,16.433"/>
<ellipse fill="none" stroke="black" cx="-10.1427" cy="16.433" rx="10" ry="10"/>
</g>
<!-- 1&#45;&gt;0 -->
<g id="edge1" class="edge"><title>1&#45;&gt;0</title>
<path fill="none" stroke="black" d="M-18.5487,21.9601C-28.2982,28.3707 -44.433,38.9797 -55.4058,46.1946"/>
<polygon fill="black" stroke="black" points="-54.6194,47.7719 -59.7587,49.0567 -56.5424,44.8475 -54.6194,47.7719"/>
<text text-anchor="middle" x="-55.318" y="33.0165" font-family="monospace" font-size="8.00">F1920S</text>
</g>
<!-- 2 -->
<g id="node3" class="node"><title>2</title>
<ellipse fill="#1874cd" stroke="black" cx="45.8838" cy="-11.9005" rx="4.5" ry="4.5"/>
</g>
<!-- 1&#45;&gt;2 -->
<g id="edge3" class="edge"><title>1&#45;&gt;2</title>
<path fill="none" stroke="black" d="M-1.14108,11.8807C11.1082,5.68612 32.5399,-5.15224 41.6224,-9.7454"/>
</g>
<!-- 5 -->
<g id="node6" class="node"><title>5</title>
<ellipse fill="olivedrab" stroke="black" cx="-6.55376" cy="-32.7376" rx="2.5" ry="2.5"/>
</g>
<!-- 1&#45;&gt;5 -->
<g id="edge7" class="edge"><title>1&#45;&gt;5</title>
<path fill="none" stroke="black" d="M-9.38159,6.00518C-8.7126,-3.1603 -7.75295,-16.308 -7.14155,-24.6845"/>
<polygon fill="black" stroke="black" points="-8.86189,-25.1558 -6.75247,-30.0152 -5.37118,-24.901 -8.86189,-25.1558"/>
<text text-anchor="middle" x="-21.5533" y="-14.7927" font-family="monospace" font-size="8.00">R537L</text>
</g>
<!-- 6 -->
<g id="node7" class="node"><title>6</title>
<ellipse fill="olivedrab" stroke="black" cx="-24.9592" cy="62.5015" rx="2.5" ry="2.5"/>
</g>
<!-- 1&#45;&gt;6 -->
<g id="edge8" class="edge"><title>1&#45;&gt;6</title>
<path fill="none" stroke="black" d="M-13.2849,26.2029C-16.0467,34.7902 -20.0085,47.1084 -22.5326,54.9565"/>
<polygon fill="black" stroke="black" points="-20.9419,55.7267 -24.1388,59.9508 -24.2739,54.655 -20.9419,55.7267"/>
<text text-anchor="middle" x="-34.7684" y="49.6527" font-family="monospace" font-size="8.00">H1755Y</text>
</g>
<!-- 7 -->
<g id="node8" class="node"><title>7</title>
<ellipse fill="olivedrab" stroke="black" cx="34.9061" cy="44.2133" rx="2.5" ry="2.5"/>
</g>
<!-- 1&#45;&gt;7 -->
<g id="edge9" class="edge"><title>1&#45;&gt;7</title>
<path fill="none" stroke="black" d="M-1.45685,21.7893C9.17931,28.3483 26.5369,39.0523 32.6721,42.8356"/>
</g>
<!-- 9 -->
<g id="node10" class="node"><title>9</title>
<ellipse fill="olivedrab" stroke="black" cx="11.5148" cy="71.9428" rx="2.5" ry="2.5"/>
</g>
<!-- 1&#45;&gt;9 -->
<g id="edge10" class="edge"><title>1&#45;&gt;9</title>
<path fill="none" stroke="black" d="M-6.46881,25.8495C-2.19133,36.813 4.78211,54.6864 8.66901,64.6488"/>
<polygon fill="black" stroke="black" points="10.3701,64.1942 10.5572,69.4883 7.10945,65.4663 10.3701,64.1942"/>
<text text-anchor="middle" x="15.522" y="45.0121" font-family="monospace" font-size="8.00">K251R</text>
</g>
<!-- anon_1_3_0 -->
<g id="node11" class="node"><title>anon_1_3_0</title>
<ellipse fill="white" stroke="black" cx="-54.3929" cy="-20.1674" rx="1" ry="1"/>
</g>
<!-- 1&#45;&gt;anon_1_3_0 -->
<g id="edge4" class="edge"><title>1&#45;&gt;anon_1_3_0</title>
<path fill="none" stroke="black" d="M-17.8505,10.0577C-28.9437,0.882223 -48.6016,-15.3773 -53.3427,-19.2988"/>
</g>
<!-- anon_2_4_0 -->
<g id="node13" class="node"><title>anon_2_4_0</title>
<ellipse fill="white" stroke="black" cx="87.3335" cy="-29.173" rx="1" ry="1"/>
</g>
<!-- 2&#45;&gt;anon_2_4_0 -->
<g id="edge11" class="edge"><title>2&#45;&gt;anon_2_4_0</title>
<path fill="none" stroke="black" d="M50.3197,-13.7489C59.6759,-17.6478 80.9974,-26.5327 86.1816,-28.693"/>
</g>
<!-- 3 -->
<g id="node4" class="node"><title>3</title>
<ellipse fill="#1874cd" stroke="black" cx="-111.579" cy="-80.787" rx="2.5" ry="2.5"/>
</g>
<!-- 4 -->
<g id="node5" class="node"><title>4</title>
<ellipse fill="#1874cd" stroke="black" cx="154.165" cy="-72.1659" rx="2.5" ry="2.5"/>
</g>
<!-- anon_1_3_1 -->
<g id="node12" class="node"><title>anon_1_3_1</title>
<ellipse fill="white" stroke="black" cx="-83.3235" cy="-50.4507" rx="1" ry="1"/>
</g>
<!-- anon_1_3_0&#45;&gt;anon_1_3_1 -->
<g id="edge5" class="edge"><title>anon_1_3_0&#45;&gt;anon_1_3_1</title>
<path fill="none" stroke="black" d="M-55.108,-20.916C-59.0062,-24.9964 -77.685,-44.5487 -82.2938,-49.3729"/>
</g>
<!-- anon_1_3_1&#45;&gt;3 -->
<g id="edge6" class="edge"><title>anon_1_3_1&#45;&gt;3</title>
<path fill="none" stroke="black" d="M-84.0219,-51.2006C-87.6252,-55.0692 -104.159,-72.8205 -109.736,-78.8083"/>
</g>
<!-- anon_2_4_1 -->
<g id="node14" class="node"><title>anon_2_4_1</title>
<ellipse fill="white" stroke="black" cx="122.786" cy="-46.5796" rx="1" ry="1"/>
</g>
<!-- anon_2_4_0&#45;&gt;anon_2_4_1 -->
<g id="edge12" class="edge"><title>anon_2_4_0&#45;&gt;anon_2_4_1</title>
<path fill="none" stroke="black" d="M88.8568,-29.921C94.7943,-32.8362 116.318,-43.404 121.606,-46.0004"/>
</g>
<!-- anon_2_4_1&#45;&gt;4 -->
<g id="edge13" class="edge"><title>anon_2_4_1&#45;&gt;4</title>
<path fill="none" stroke="black" d="M123.561,-47.212C127.563,-50.4749 145.925,-65.4468 152.118,-70.497"/>
</g>
</g>
</svg>
