<?xml version="1.0" encoding="UTF-8" standalone="no"?>
<!DOCTYPE svg PUBLIC "-//W3C//DTD SVG 1.1//EN"
 "http://www.w3.org/Graphics/SVG/1.1/DTD/svg11.dtd">
<!-- Generated by graphviz version 2.38.0 (20140413.2041)
 -->
<!-- Title: %3 Pages: 1 -->
<svg width="903pt" height="777pt"
 viewBox="0.00 0.00 902.68 777.26" xmlns="http://www.w3.org/2000/svg" xmlns:xlink="http://www.w3.org/1999/xlink">
<g id="graph0" class="graph" transform="scale(1 1) rotate(0) translate(339.776 521.368)">
<title>%3</title>
<polygon fill="white" stroke="none" points="-339.776,255.889 -339.776,-521.368 562.907,-521.368 562.907,255.889 -339.776,255.889"/>
<!-- 0 -->
<g id="node1" class="node"><title>0</title>
<path fill="#98f5ff" stroke="black" stroke-width="0.5" d="M30.865,-145.657C30.865,-145.657 56.365,-145.657 56.365,-145.657 56.365,-146.391 56.3333,-147.125 56.2699,-147.857 56.2065,-148.589 56.1116,-149.317 55.9853,-150.041 55.859,-150.765 55.7015,-151.482 55.5133,-152.192 55.3251,-152.902 55.1063,-153.604 54.8575,-154.295 54.6087,-154.986 54.3301,-155.666 54.0227,-156.333 53.7152,-157 53.379,-157.653 53.0151,-158.291 52.6512,-158.929 52.2599,-159.551 51.8423,-160.155 51.4248,-160.759 50.9813,-161.345 50.5131,-161.911 50.0449,-162.477 49.5525,-163.022 49.0373,-163.546 48.522,-164.069 47.9844,-164.57 47.4259,-165.047 46.8674,-165.524 46.2886,-165.977 45.691,-166.404 45.0935,-166.831 44.4777,-167.232 43.8456,-167.606 43.2134,-167.98 42.5653,-168.326 41.9033,-168.644 41.2412,-168.962 40.5657,-169.251 39.8786,-169.511 39.1916,-169.77 38.4936,-170 37.7867,-170.199 37.0799,-170.399 36.3647,-170.568 35.6432,-170.705 35.6432,-170.705 30.865,-145.657 30.865,-145.657"/>
<path fill="deepskyblue" stroke="black" stroke-width="0.5" d="M30.865,-145.657C30.865,-145.657 35.6432,-170.705 35.6432,-170.705 34.3639,-170.949 33.0677,-171.095 31.7661,-171.141 30.4644,-171.187 29.1612,-171.133 27.8678,-170.98 26.5744,-170.827 25.2946,-170.575 24.0397,-170.226 22.7848,-169.878 21.5584,-169.434 20.3714,-168.898 19.1843,-168.362 18.0401,-167.736 16.9487,-167.025 15.8573,-166.314 14.822,-165.521 13.8518,-164.652 12.8817,-163.783 11.9795,-162.841 11.1532,-161.834 10.327,-160.827 9.57908,-159.758 8.91609,-158.637 8.25309,-157.516 7.67696,-156.346 7.19275,-155.137 6.70854,-153.928 6.31768,-152.684 6.02359,-151.415 5.72949,-150.146 5.53304,-148.856 5.43595,-147.558 5.33887,-146.259 5.34143,-144.955 5.44362,-143.656 5.5458,-142.358 5.74732,-141.069 6.04639,-139.801 6.34546,-138.534 6.74121,-137.291 7.23016,-136.084 7.71912,-134.877 8.29984,-133.709 8.96723,-132.59 9.63462,-131.472 10.3867,-130.406 11.2169,-129.403 12.0471,-128.399 12.953,-127.461 13.9266,-126.595 14.9001,-125.73 15.9386,-124.941 17.0327,-124.234 18.1269,-123.528 19.2736,-122.906 20.4627,-122.375 21.6519,-121.844 22.88,-121.404 24.1362,-121.061 25.3925,-120.717 26.6733,-120.47 27.9673,-120.322 29.2613,-120.174 30.5647,-120.125 31.8661,-120.176 33.1676,-120.228 34.4632,-120.378 35.7416,-120.627 37.02,-120.877 38.2774,-121.223 39.5028,-121.664 40.7283,-122.106 41.9181,-122.64 43.0619,-123.263 44.2057,-123.886 45.3,-124.596 46.3354,-125.386 47.3708,-126.176 48.3441,-127.044 49.2468,-127.983 50.1495,-128.922 50.9789,-129.929 51.7278,-130.994 52.4767,-132.06 53.1429,-133.181 53.7205,-134.349 54.2981,-135.516 54.7854,-136.726 55.1781,-137.968 55.5708,-139.209 55.8678,-140.479 56.0665,-141.767 56.2652,-143.054 56.365,-144.354 56.365,-145.657 56.365,-145.657 30.865,-145.657 30.865,-145.657"/>
<ellipse fill="none" stroke="black" cx="30.865" cy="-145.657" rx="25.5" ry="25.5"/>
</g>
<!-- 24 -->
<g id="node25" class="node"><title>24</title>
<ellipse fill="deepskyblue" stroke="black" cx="9.30034" cy="-231.572" rx="3.5" ry="3.5"/>
</g>
<!-- 0&#45;&#45;24 -->
<g id="edge1" class="edge"><title>0&#45;&#45;24</title>
<path fill="none" stroke="black" d="M24.6276,-170.507C19.4529,-191.123 12.5687,-218.551 10.169,-228.111"/>
</g>
<!-- 1 -->
<g id="node2" class="node"><title>1</title>
<ellipse fill="deepskyblue" stroke="black" cx="-204.51" cy="-5.82773" rx="3.5" ry="3.5"/>
</g>
<!-- 2 -->
<g id="node3" class="node"><title>2</title>
<ellipse fill="#ff3030" stroke="black" cx="55.9167" cy="57.392" rx="14" ry="14"/>
</g>
<!-- 6 -->
<g id="node7" class="node"><title>6</title>
<path fill="brown" stroke="black" stroke-width="0.5" d="M-25.6652,-8.84346C-25.6652,-8.84346 8.83478,-8.84346 8.83478,-8.84346 8.83478,-9.85123 8.79062,-10.8585 8.70243,-11.8624 8.61425,-12.8663 8.48212,-13.8659 8.30642,-14.8582 8.13072,-15.8506 7.91163,-16.8347 7.64977,-17.8079 7.38791,-18.781 7.08354,-19.7423 6.73753,-20.6888 6.39152,-21.6353 6.0042,-22.5662 5.57669,-23.4788 5.14919,-24.3914 4.68189,-25.2848 4.17617,-26.1565 3.67044,-27.0282 3.12676,-27.8773 2.54669,-28.7014 1.96663,-29.5255 1.35073,-30.3238 0.700779,-31.0939 0.0508246,-31.8641 -0.632563,-32.6054 -1.34742,-33.3158 -2.06227,-34.0261 -2.80791,-34.7048 -3.58218,-35.3499 -4.35646,-35.9949 -5.15862,-36.6058 -5.98637,-37.1806 -6.81412,-37.7554 -7.66666,-38.2937 -8.54154,-38.7939 -9.41641,-39.2941 -10.3128,-39.7557 -11.2281,-40.1774 -12.1434,-40.5992 -13.0767,-40.9806 -14.0254,-41.3206 -14.9741,-41.6606 -15.9372,-41.9589 -16.912,-42.2146 -17.8868,-42.4703 -18.8723,-42.6831 -19.8657,-42.8525 -20.8592,-43.0219 -21.8596,-43.1477 -22.864,-43.2295 -23.8684,-43.3114 -24.876,-43.3492 -25.8837,-43.3428 -26.8915,-43.3364 -27.8985,-43.2859 -28.9018,-43.1913 -29.9051,-43.0968 -30.9038,-42.9583 -31.895,-42.7763 -32.8862,-42.5943 -33.869,-42.369 -34.8405,-42.101 -35.812,-41.833 -36.7712,-41.5225 -37.7155,-41.1705 -38.6598,-40.8185 -39.5883,-40.4253 -40.4981,-39.9921 -41.408,-39.5588 -42.2985,-39.0858 -43.1669,-38.5746 -44.0354,-38.0634 -44.881,-37.5143 -45.7015,-36.929 -46.5219,-36.3438 -47.3162,-35.7228 -48.0823,-35.068 -48.8483,-34.4132 -49.5853,-33.7251 -50.2911,-33.0058 -50.9969,-32.2864 -51.6708,-31.5365 -52.311,-30.7582 -52.9511,-29.9798 -53.5568,-29.1738 -54.1264,-28.3424 -54.696,-27.5111 -55.2289,-26.6551 -55.7235,-25.7771 -56.2182,-24.8991 -56.6741,-23.9998 -57.09,-23.0819 -57.5059,-22.1639 -57.8814,-21.2282 -58.2154,-20.2774 -58.5494,-19.3266 -58.8416,-18.3616 -59.0911,-17.3852 -59.3406,-16.4088 -59.5472,-15.4219 -59.7103,-14.4274 -59.8734,-13.4329 -59.9929,-12.4318 -60.0684,-11.4268 -60.1438,-10.4219 -60.1752,-9.41413 -60.1625,-8.40644 -60.1497,-7.39875 -60.0928,-6.3921 -59.9919,-5.38939 -59.891,-4.38668 -59.7462,-3.38888 -59.5579,-2.39884 -59.3697,-1.40881 -59.1382,-0.4275 -58.864,0.542262 -58.5898,1.51202 -58.2733,2.46931 -57.9153,3.41136 -57.5574,4.35341 -57.1583,5.27932 -56.7192,6.18644 -56.2802,7.09355 -55.8016,7.98099 -55.2849,8.8462 -54.7682,9.71142 -54.2138,10.5536 -53.6233,11.3703 -53.0329,12.1869 -52.4069,12.9773 -51.7473,13.7392 -51.0876,14.5011 -50.3949,15.2337 -49.6711,15.9349 -48.9473,16.6362 -48.1931,17.3053 -47.4107,17.9405 -46.6283,18.5758 -45.8185,19.1764 -44.9835,19.7407 -44.1486,20.305 -43.2893,20.8324 -42.4081,21.3215 -41.527,21.8106 -40.6249,22.2608 -39.7043,22.6709 -38.7837,23.081 -37.8456,23.4505 -36.8927,23.7785 -35.9398,24.1065 -34.973,24.3925 -33.995,24.6358 -33.0171,24.8792 -32.0289,25.0795 -31.0334,25.2363 -30.0379,25.3931 -29.036,25.5063 -28.0306,25.5754 -27.0252,25.6444 -26.0173,25.6695 -25.0097,25.6503 -24.0021,25.6312 -22.9959,25.5679 -21.9938,25.4606 -20.9918,25.3534 -19.9949,25.2023 -19.0061,25.0078 -18.0172,24.8132 -17.0374,24.5755 -16.0694,24.2952 -15.1014,24.0149 -14.1461,23.6923 -13.2064,23.3284 -12.2666,22.9644 -11.3433,22.5595 -10.4389,22.1147 -9.53463,21.67 -8.65023,21.1858 -7.78831,20.6636 -6.92639,20.1414 -6.08776,19.5817 -5.27483,18.9861 -4.46191,18.3904 -3.67548,17.7595 -2.9178,17.095 -2.16011,16.4305 -1.43191,15.7332 -0.735276,15.005 -0.0386444,14.2767 0.625745,13.5184 1.25598,12.732 1.25598,12.732 -25.6652,-8.84346 -25.6652,-8.84346"/>
<path fill="#ff3030" stroke="black" stroke-width="0.5" d="M-25.6652,-8.84346C-25.6652,-8.84346 1.25598,12.732 1.25598,12.732 2.22812,11.5189 3.11717,10.2416 3.91705,8.9087 4.71692,7.57579 5.42579,6.19034 6.03882,4.76182 6.03882,4.76182 -25.6652,-8.84346 -25.6652,-8.84346"/>
<path fill="deepskyblue" stroke="black" stroke-width="0.5" d="M-25.6652,-8.84346C-25.6652,-8.84346 6.03882,4.76182 6.03882,4.76182 6.49851,3.69061 6.90362,2.59679 7.25258,1.48457 7.60154,0.372349 7.89391,-0.756843 8.12856,-1.89866 8.36321,-3.04048 8.53984,-4.19345 8.65777,-5.35315 8.7757,-6.51285 8.83478,-7.67778 8.83478,-8.84346 8.83478,-8.84346 -25.6652,-8.84346 -25.6652,-8.84346"/>
<ellipse fill="none" stroke="black" cx="-25.6652" cy="-8.84346" rx="34.5" ry="34.5"/>
</g>
<!-- 2&#45;&#45;6 -->
<g id="edge2" class="edge"><title>2&#45;&#45;6</title>
<path fill="none" stroke="black" d="M44.9142,48.4592C33.78,39.4195 16.1352,25.0938 1.27385,13.0281"/>
</g>
<!-- 3 -->
<g id="node4" class="node"><title>3</title>
<path fill="#1874cd" stroke="black" stroke-width="0.5" d="M-184.888,-56.2318C-184.888,-56.2318 -150.888,-56.2318 -150.888,-56.2318 -150.888,-57.5179 -150.961,-58.8029 -151.106,-60.0807 -151.252,-61.3585 -151.47,-62.627 -151.759,-63.8802 -152.049,-65.1333 -152.409,-66.369 -152.838,-67.5813 -153.267,-68.7936 -153.765,-69.9805 -154.329,-71.1364 -154.893,-72.2924 -155.522,-73.4153 -156.213,-74.5 -156.904,-75.5847 -157.656,-76.6293 -158.465,-77.6287 -159.274,-78.6282 -160.14,-79.5809 -161.057,-80.4823 -161.974,-81.3838 -162.942,-82.2324 -163.955,-83.0242 -164.969,-83.816 -166.026,-84.5496 -167.123,-85.2216 -168.22,-85.8936 -169.353,-86.5028 -170.519,-87.0463 -171.684,-87.5898 -172.88,-88.0667 -174.1,-88.4748 -175.319,-88.8829 -176.561,-89.2215 -177.819,-89.4888 -179.077,-89.7562 -180.349,-89.952 -181.629,-90.0753 -182.909,-90.1986 -184.195,-90.2491 -185.481,-90.2266 -186.767,-90.2042 -188.051,-90.1088 -189.326,-89.9409 -190.601,-89.7731 -191.865,-89.533 -193.113,-89.2219 -193.113,-89.2219 -184.888,-56.2318 -184.888,-56.2318"/>
<path fill="#98f5ff" stroke="black" stroke-width="0.5" d="M-184.888,-56.2318C-184.888,-56.2318 -193.113,-89.2219 -193.113,-89.2219 -194.073,-88.9826 -195.022,-88.7015 -195.957,-88.3795 -196.893,-88.0574 -197.813,-87.6947 -198.717,-87.2924 -199.621,-86.89 -200.506,-86.4485 -201.371,-85.9689 -202.237,-85.4893 -203.08,-84.9722 -203.9,-84.4191 -203.9,-84.4191 -184.888,-56.2318 -184.888,-56.2318"/>
<path fill="#ff3030" stroke="black" stroke-width="0.5" d="M-184.888,-56.2318C-184.888,-56.2318 -203.9,-84.4191 -203.9,-84.4191 -205.172,-83.5615 -206.384,-82.6189 -207.528,-81.5978 -208.672,-80.5766 -209.746,-79.4792 -210.742,-78.3131 -211.738,-77.1469 -212.654,-75.9147 -213.483,-74.625 -214.313,-73.3352 -215.054,-71.9907 -215.702,-70.6008 -216.351,-69.211 -216.904,-67.7788 -217.359,-66.3142 -217.813,-64.8496 -218.169,-63.356 -218.422,-61.8434 -218.675,-60.3309 -218.825,-58.803 -218.872,-57.2701 -218.919,-55.7373 -218.862,-54.203 -218.702,-52.6778 -218.541,-51.1527 -218.278,-49.6401 -217.914,-48.1505 -217.549,-46.6609 -217.084,-45.1976 -216.522,-43.7708 -215.96,-42.3439 -215.302,-40.9567 -214.553,-39.6187 -213.803,-38.2807 -212.964,-36.9949 -212.042,-35.7701 -211.119,-34.5453 -210.114,-33.3844 -209.034,-32.2953 -207.955,-31.2062 -206.802,-30.1914 -205.586,-29.2578 -204.369,-28.3242 -203.091,-27.474 -201.759,-26.7131 -200.428,-25.9521 -199.046,-25.2821 -197.625,-24.7076 -197.625,-24.7076 -184.888,-56.2318 -184.888,-56.2318"/>
<path fill="deepskyblue" stroke="black" stroke-width="0.5" d="M-184.888,-56.2318C-184.888,-56.2318 -197.625,-24.7076 -197.625,-24.7076 -196.34,-24.1887 -195.026,-23.7488 -193.688,-23.3903 -192.35,-23.0319 -190.991,-22.7555 -189.62,-22.5627 -188.248,-22.3699 -186.866,-22.2612 -185.481,-22.237 -184.096,-22.2128 -182.711,-22.2733 -181.334,-22.4181 -179.956,-22.5629 -178.589,-22.7917 -177.24,-23.1032 -175.89,-23.4148 -174.561,-23.8086 -173.259,-24.2823 -171.958,-24.756 -170.686,-25.3088 -169.452,-25.9376 -168.218,-26.5664 -167.024,-27.27 -165.875,-28.0445 -164.727,-28.8191 -163.627,-29.663 -162.582,-30.5717 -161.537,-31.4804 -160.548,-32.4521 -159.621,-33.4814 -158.694,-34.5107 -157.831,-35.5957 -157.037,-36.7302 -156.242,-37.8648 -155.518,-39.0469 -154.868,-40.2698 -154.217,-41.4927 -153.643,-42.7542 -153.146,-44.0473 -152.65,-45.3404 -152.233,-46.6626 -151.898,-48.0065 -151.563,-49.3504 -151.31,-50.7135 -151.141,-52.0883 -150.973,-53.463 -150.888,-54.8468 -150.888,-56.2318 -150.888,-56.2318 -184.888,-56.2318 -184.888,-56.2318"/>
<ellipse fill="none" stroke="black" cx="-184.888" cy="-56.2318" rx="34" ry="34"/>
</g>
<!-- 3&#45;&#45;1 -->
<g id="edge3" class="edge"><title>3&#45;&#45;1</title>
<path fill="none" stroke="black" d="M-197.315,-24.3101C-199.688,-18.2146 -201.841,-12.6847 -203.16,-9.29469"/>
</g>
<!-- 18 -->
<g id="node19" class="node"><title>18</title>
<ellipse fill="deepskyblue" stroke="black" cx="-255.74" cy="-70.4566" rx="3.5" ry="3.5"/>
</g>
<!-- 3&#45;&#45;18 -->
<g id="edge4" class="edge"><title>3&#45;&#45;18</title>
<path fill="none" stroke="black" d="M-218.239,-62.9277C-231.735,-65.6371 -245.633,-68.4275 -252.064,-69.7187"/>
</g>
<!-- 21 -->
<g id="node22" class="node"><title>21</title>
<ellipse fill="deepskyblue" stroke="black" cx="-237.597" cy="-41.103" rx="3.5" ry="3.5"/>
</g>
<!-- 3&#45;&#45;21 -->
<g id="edge5" class="edge"><title>3&#45;&#45;21</title>
<path fill="none" stroke="black" d="M-217.67,-46.8226C-224.369,-44.8997 -230.479,-43.1462 -234.118,-42.1015"/>
</g>
<!-- 25 -->
<g id="node26" class="node"><title>25</title>
<ellipse fill="deepskyblue" stroke="black" cx="-217.385" cy="38.9596" rx="3.5" ry="3.5"/>
</g>
<!-- 3&#45;&#45;25 -->
<g id="edge6" class="edge"><title>3&#45;&#45;25</title>
<path fill="none" stroke="black" d="M-195.89,-24.0043C-203.55,-1.56651 -212.952,25.9759 -216.209,35.5155"/>
</g>
<!-- 29 -->
<g id="node30" class="node"><title>29</title>
<ellipse fill="deepskyblue" stroke="black" cx="-169.83" cy="-11.6821" rx="3.5" ry="3.5"/>
</g>
<!-- 3&#45;&#45;29 -->
<g id="edge7" class="edge"><title>3&#45;&#45;29</title>
<path fill="none" stroke="black" d="M-173.945,-23.8555C-172.777,-20.4009 -171.748,-17.3576 -171.012,-15.1779"/>
</g>
<!-- 45 -->
<g id="node46" class="node"><title>45</title>
<ellipse fill="#1874cd" stroke="black" cx="-225.445" cy="-111.565" rx="3.5" ry="3.5"/>
</g>
<!-- 3&#45;&#45;45 -->
<g id="edge8" class="edge"><title>3&#45;&#45;45</title>
<path fill="none" stroke="black" d="M-205.167,-83.8983C-212.454,-93.841 -219.742,-103.784 -223.265,-108.59"/>
</g>
<!-- 121 -->
<g id="node122" class="node"><title>121</title>
<ellipse fill="black" stroke="black" cx="-260.887" cy="-97.0793" rx="3.5" ry="3.5"/>
</g>
<!-- 3&#45;&#45;121 -->
<g id="edge11" class="edge"><title>3&#45;&#45;121</title>
<path fill="none" stroke="black" d="M-214.925,-72.3758C-231.521,-81.2958 -250.238,-91.3561 -257.633,-95.3307"/>
</g>
<!-- anon_3_89_0 -->
<g id="node123" class="node"><title>anon_3_89_0</title>
<ellipse fill="white" stroke="black" cx="-285.097" cy="-50.3069" rx="2.5" ry="2.5"/>
</g>
<!-- 3&#45;&#45;anon_3_89_0 -->
<g id="edge9" class="edge"><title>3&#45;&#45;anon_3_89_0</title>
<path fill="none" stroke="black" d="M-219.094,-54.2094C-243.588,-52.7611 -273.737,-50.9785 -282.56,-50.4568"/>
</g>
<!-- 4 -->
<g id="node5" class="node"><title>4</title>
<path fill="#98f5ff" stroke="black" stroke-width="0.5" d="M28.2655,121.811C28.2655,121.811 60.2655,121.811 60.2655,121.811 60.2655,120.361 60.1668,118.912 59.9703,117.475 59.7737,116.038 59.4796,114.615 59.0901,113.218 58.7006,111.821 58.2166,110.452 57.6413,109.12 57.066,107.789 56.4009,106.498 55.6505,105.256 54.9001,104.015 54.0661,102.826 53.1544,101.698 52.2427,100.57 51.2553,99.5049 50.1991,98.5107 49.143,97.5165 48.0204,96.5952 46.8392,95.7533 45.658,94.9113 44.421,94.1507 43.1366,93.4766 41.8522,92.8025 40.5235,92.2165 39.1596,91.7227 37.7957,91.2289 36.3999,90.8284 34.9817,90.5239 33.5634,90.2195 32.1262,90.0118 30.6798,89.9024 29.2334,89.793 27.7812,89.782 26.3333,89.8696 24.8855,89.9572 23.4452,90.1431 22.0226,90.4261 20.5999,90.7091 19.1982,91.0884 17.827,91.5616 16.4558,92.0348 15.1184,92.6006 13.824,93.2552 12.5295,93.9099 11.2811,94.6517 10.0874,95.4757 10.0874,95.4757 28.2655,121.811 28.2655,121.811"/>
<path fill="deepskyblue" stroke="black" stroke-width="0.5" d="M28.2655,121.811C28.2655,121.811 10.0874,95.4757 10.0874,95.4757 9.18116,96.1012 8.30783,96.7731 7.47087,97.4887 6.63392,98.2042 5.83445,98.9625 5.07567,99.7605 4.31689,100.558 3.5998,101.395 2.92727,102.267 2.25474,103.139 1.62766,104.045 1.04854,104.981 0.469416,105.918 -0.0609795,106.884 -0.540531,107.875 -1.02008,108.866 -1.44815,109.882 -1.82303,110.917 -2.1979,111.952 -2.51909,113.006 -2.7853,114.075 -3.05151,115.143 -3.2624,116.225 -3.41711,117.315 -3.57182,118.405 -3.67016,119.503 -3.71173,120.603 -3.7533,121.704 -3.73804,122.805 -3.66602,123.904 -3.59401,125.003 -3.46532,126.097 -3.28048,127.183 -3.09564,128.268 -2.8549,129.344 -2.5592,130.404 -2.26351,131.465 -1.91327,132.51 -1.50987,133.534 -1.10647,134.559 -0.650453,135.562 -0.143641,136.539 0.363171,137.517 0.920104,138.468 1.52494,139.388 2.12977,140.308 2.78169,141.196 3.4781,142.049 4.17452,142.902 4.91449,143.719 5.69508,144.496 6.47566,145.272 7.29581,146.008 8.15226,146.7 9.00871,147.392 9.90031,148.04 10.8235,148.64 11.7467,149.24 12.7003,149.792 13.6804,150.294 14.6605,150.796 15.6659,151.247 16.6925,151.645 17.7191,152.043 18.7656,152.388 19.8277,152.679 20.8899,152.969 21.9664,153.204 23.0528,153.384 24.1392,153.563 25.2342,153.686 26.3334,153.753 27.4325,153.819 28.5343,153.829 29.6345,153.782 30.7346,153.735 31.8316,153.631 32.921,153.471 34.0104,153.311 35.0909,153.094 36.158,152.823 37.2251,152.551 38.2775,152.225 39.311,151.844 40.3444,151.464 41.3576,151.031 42.3464,150.547 43.3352,150.062 44.2984,149.527 45.232,148.943 46.1656,148.359 47.0685,147.728 47.937,147.051 48.8055,146.374 49.6385,145.652 50.4326,144.89 50.4326,144.89 28.2655,121.811 28.2655,121.811"/>
<path fill="#ff3030" stroke="black" stroke-width="0.5" d="M28.2655,121.811C28.2655,121.811 50.4326,144.89 50.4326,144.89 51.2074,144.145 51.9442,143.363 52.6403,142.544 53.3363,141.726 53.9907,140.873 54.6009,139.989 55.2112,139.105 55.7766,138.191 56.2948,137.25 56.8131,136.309 57.2837,135.342 57.7048,134.354 58.1259,133.366 58.4969,132.357 58.8165,131.331 59.1361,130.306 59.4039,129.265 59.6188,128.212 59.8336,127.159 59.9954,126.097 60.1034,125.028 60.2114,123.959 60.2655,122.885 60.2655,121.811 60.2655,121.811 28.2655,121.811 28.2655,121.811"/>
<ellipse fill="none" stroke="black" cx="28.2655" cy="121.811" rx="32" ry="32"/>
</g>
<!-- 5 -->
<g id="node6" class="node"><title>5</title>
<ellipse fill="#ff3030" stroke="black" cx="-45.717" cy="113.017" rx="18" ry="18"/>
</g>
<!-- 32 -->
<g id="node33" class="node"><title>32</title>
<ellipse fill="#ff3030" stroke="black" cx="-15.6451" cy="184.962" rx="3.5" ry="3.5"/>
</g>
<!-- 5&#45;&#45;32 -->
<g id="edge12" class="edge"><title>5&#45;&#45;32</title>
<path fill="none" stroke="black" d="M-38.7423,129.703C-31.5244,146.972 -20.7878,172.658 -17.0153,181.684"/>
</g>
<!-- 38 -->
<g id="node39" class="node"><title>38</title>
<ellipse fill="#ff3030" stroke="black" cx="-108.685" cy="148.084" rx="3.5" ry="3.5"/>
</g>
<!-- 5&#45;&#45;38 -->
<g id="edge13" class="edge"><title>5&#45;&#45;38</title>
<path fill="none" stroke="black" d="M-61.6065,121.866C-76.4713,130.144 -97.5407,141.878 -105.487,146.303"/>
</g>
<!-- 39 -->
<g id="node40" class="node"><title>39</title>
<ellipse fill="#ff3030" stroke="black" cx="-58.9607" cy="174.254" rx="3.5" ry="3.5"/>
</g>
<!-- 5&#45;&#45;39 -->
<g id="edge14" class="edge"><title>5&#45;&#45;39</title>
<path fill="none" stroke="black" d="M-49.5476,130.729C-52.5422,144.576 -56.4691,162.734 -58.1453,170.484"/>
</g>
<!-- 6&#45;&#45;0 -->
<g id="edge15" class="edge"><title>6&#45;&#45;0</title>
<path fill="none" stroke="black" d="M-12.4114,-40.9201C-2.1643,-65.7199 11.7909,-99.4942 21.052,-121.908"/>
</g>
<!-- 6&#45;&#45;3 -->
<g id="edge16" class="edge"><title>6&#45;&#45;3</title>
<path fill="none" stroke="black" d="M-59.0435,-18.7776C-86.4005,-26.9197 -124.904,-38.3791 -152.099,-46.4731"/>
</g>
<!-- 6&#45;&#45;4 -->
<g id="edge17" class="edge"><title>6&#45;&#45;4</title>
<path fill="none" stroke="black" d="M-12.4723,23.1183C-3.8032,44.1204 7.46191,71.4117 15.9481,91.9707"/>
</g>
<!-- 6&#45;&#45;5 -->
<g id="edge18" class="edge"><title>6&#45;&#45;5</title>
<path fill="none" stroke="black" d="M-31.3041,25.4258C-35.034,48.0936 -39.773,76.8939 -42.7766,95.1475"/>
</g>
<!-- 7 -->
<g id="node8" class="node"><title>7</title>
<ellipse fill="#ff3030" stroke="black" cx="20.496" cy="-3.64809" rx="9.5" ry="9.5"/>
</g>
<!-- 6&#45;&#45;7 -->
<g id="edge19" class="edge"><title>6&#45;&#45;7</title>
<path fill="none" stroke="black" d="M8.84759,-4.9591C9.57804,-4.87689 10.2881,-4.79698 10.9734,-4.71985"/>
</g>
<!-- 8 -->
<g id="node9" class="node"><title>8</title>
<ellipse fill="#ff3030" stroke="black" cx="-49.5494" cy="-77.7568" rx="6" ry="6"/>
</g>
<!-- 6&#45;&#45;8 -->
<g id="edge20" class="edge"><title>6&#45;&#45;8</title>
<path fill="none" stroke="black" d="M-37.0477,-41.6855C-41.0847,-53.3335 -45.2072,-65.2281 -47.5644,-72.0293"/>
</g>
<!-- 17 -->
<g id="node18" class="node"><title>17</title>
<ellipse fill="#ff3030" stroke="black" cx="-74.8043" cy="2.80011" rx="6" ry="6"/>
</g>
<!-- 6&#45;&#45;17 -->
<g id="edge21" class="edge"><title>6&#45;&#45;17</title>
<path fill="none" stroke="black" d="M-59.2564,-0.88399C-62.9004,-0.0205294 -66.237,0.770077 -68.877,1.39562"/>
</g>
<!-- 19 -->
<g id="node20" class="node"><title>19</title>
<path fill="#98f5ff" stroke="black" stroke-width="0.5" d="M-27.3391,-102.303C-27.3391,-102.303 -15.8391,-102.303 -15.8391,-102.303 -15.8391,-102.905 -15.8864,-103.507 -15.9807,-104.102 -16.0749,-104.697 -16.2158,-105.284 -16.4019,-105.856 -16.5881,-106.429 -16.819,-106.987 -17.0925,-107.524 -17.366,-108.06 -17.6813,-108.575 -18.0354,-109.062 -18.3895,-109.55 -18.7814,-110.009 -19.2073,-110.435 -19.6333,-110.861 -20.0922,-111.252 -20.5795,-111.606 -21.0669,-111.961 -21.5814,-112.276 -22.1182,-112.549 -22.655,-112.823 -23.2124,-113.054 -23.7854,-113.24 -24.3583,-113.426 -24.945,-113.567 -25.5401,-113.661 -26.1351,-113.755 -26.7366,-113.803 -27.3391,-113.803 -27.9415,-113.803 -28.543,-113.755 -29.1381,-113.661 -29.7331,-113.567 -30.3198,-113.426 -30.8928,-113.24 -31.4657,-113.054 -32.0232,-112.823 -32.56,-112.549 -33.0968,-112.276 -33.6112,-111.961 -34.0986,-111.606 -34.586,-111.252 -35.0448,-110.861 -35.4708,-110.435 -35.8968,-110.009 -36.2887,-109.55 -36.6428,-109.062 -36.6428,-109.062 -27.3391,-102.303 -27.3391,-102.303"/>
<path fill="deepskyblue" stroke="black" stroke-width="0.5" d="M-27.3391,-102.303C-27.3391,-102.303 -36.6428,-109.062 -36.6428,-109.062 -36.9083,-108.697 -37.1521,-108.316 -37.3728,-107.922 -37.5935,-107.528 -37.7908,-107.121 -37.9637,-106.704 -38.1366,-106.286 -38.2847,-105.859 -38.4073,-105.424 -38.5299,-104.99 -38.6268,-104.548 -38.6975,-104.102 -38.7682,-103.656 -38.8125,-103.206 -38.8302,-102.754 -38.8479,-102.303 -38.8391,-101.851 -38.8036,-101.401 -38.7682,-100.95 -38.7062,-100.502 -38.6181,-100.059 -38.53,-99.6162 -38.4158,-99.1787 -38.2762,-98.7491 -38.1366,-98.3195 -37.9718,-97.8984 -37.7827,-97.4882 -37.5936,-97.078 -37.3805,-96.6792 -37.1444,-96.2941 -36.9084,-95.9089 -36.6499,-95.538 -36.3702,-95.1832 -36.0906,-94.8285 -35.7902,-94.4905 -35.4708,-94.1711 -35.1514,-93.8516 -34.8134,-93.5513 -34.4587,-93.2716 -34.1039,-92.992 -33.733,-92.7335 -33.3478,-92.4974 -32.9626,-92.2614 -32.5639,-92.0483 -32.1537,-91.8591 -31.7434,-91.67 -31.3224,-91.5052 -30.8928,-91.3656 -30.4631,-91.226 -30.0257,-91.1119 -29.5826,-91.0238 -29.1396,-90.9356 -28.6917,-90.8737 -28.2414,-90.8382 -27.791,-90.8028 -27.339,-90.7939 -26.8876,-90.8117 -26.4362,-90.8294 -25.9863,-90.8737 -25.5401,-90.9444 -25.0939,-91.015 -24.6523,-91.1119 -24.2175,-91.2346 -23.7827,-91.3572 -23.3556,-91.5053 -22.9382,-91.6782 -22.5209,-91.851 -22.1141,-92.0484 -21.7199,-92.2691 -21.3258,-92.4898 -20.945,-92.7336 -20.5795,-92.9991 -20.2141,-93.2646 -19.8646,-93.5514 -19.5329,-93.8581 -19.2011,-94.1647 -18.8878,-94.4906 -18.5944,-94.8341 -18.301,-95.1776 -18.0281,-95.5381 -17.7772,-95.9137 -17.5262,-96.2893 -17.2976,-96.6794 -17.0925,-97.0819 -16.8874,-97.4844 -16.7062,-97.8986 -16.5499,-98.3224 -16.3935,-98.7463 -16.2623,-99.1789 -16.1568,-99.6182 -16.0514,-100.057 -15.9719,-100.503 -15.9188,-100.951 -15.8657,-101.4 -15.8391,-101.851 -15.8391,-102.303 -15.8391,-102.303 -27.3391,-102.303 -27.3391,-102.303"/>
<ellipse fill="none" stroke="black" cx="-27.3391" cy="-102.303" rx="11.5" ry="11.5"/>
</g>
<!-- 6&#45;&#45;19 -->
<g id="edge22" class="edge"><title>6&#45;&#45;19</title>
<path fill="none" stroke="black" d="M-26.2837,-43.3787C-26.5818,-60.0182 -26.9195,-78.8755 -27.1309,-90.6786"/>
</g>
<!-- 26 -->
<g id="node27" class="node"><title>26</title>
<ellipse fill="deepskyblue" stroke="black" cx="-1.52521" cy="-38.8981" rx="5" ry="5"/>
</g>
<!-- 6&#45;&#45;26 -->
<g id="edge23" class="edge"><title>6&#45;&#45;26</title>
<path fill="none" stroke="black" d="M-3.75298,-36.1245C-3.66678,-36.2319 -3.58266,-36.3366 -3.50069,-36.4386"/>
</g>
<!-- 119 -->
<g id="node120" class="node"><title>119</title>
<ellipse fill="black" stroke="black" cx="-49.7471" cy="-142.254" rx="6" ry="6"/>
</g>
<!-- 8&#45;&#45;119 -->
<g id="edge24" class="edge"><title>8&#45;&#45;119</title>
<path fill="none" stroke="black" d="M-49.5691,-84.1768C-49.6074,-96.667 -49.6914,-124.075 -49.7286,-136.237"/>
</g>
<!-- 9 -->
<g id="node10" class="node"><title>9</title>
<ellipse fill="deepskyblue" stroke="black" cx="209.855" cy="32.7852" rx="3.5" ry="3.5"/>
</g>
<!-- 15 -->
<g id="node16" class="node"><title>15</title>
<path fill="#98f5ff" stroke="black" stroke-width="0.5" d="M163.326,-23.8933C163.326,-23.8933 181.326,-23.8933 181.326,-23.8933 181.326,-24.5532 181.29,-25.2126 181.218,-25.8685 181.145,-26.5245 181.037,-27.1759 180.893,-27.8199 180.749,-28.4639 180.569,-29.0995 180.356,-29.7238 180.142,-30.3482 179.894,-30.9603 179.613,-31.5573 179.332,-32.1544 179.019,-32.7356 178.674,-33.2983 178.329,-33.861 177.953,-34.4042 177.549,-34.9256 177.145,-35.4471 176.712,-35.9459 176.252,-36.4197 175.793,-36.8936 175.308,-37.3419 174.8,-37.7626 174.291,-38.1832 173.76,-38.5756 173.209,-38.9379 172.657,-39.3002 172.086,-39.6318 171.498,-39.9314 170.91,-40.231 170.306,-40.4981 169.689,-40.7313 169.071,-40.9646 168.442,-41.1637 167.803,-41.3278 167.163,-41.4919 166.516,-41.6208 165.862,-41.7137 165.209,-41.8067 164.551,-41.8637 163.892,-41.8844 163.232,-41.9052 162.572,-41.8896 161.914,-41.8378 161.256,-41.7861 160.602,-41.6981 159.953,-41.5745 159.953,-41.5745 163.326,-23.8933 163.326,-23.8933"/>
<path fill="deepskyblue" stroke="black" stroke-width="0.5" d="M163.326,-23.8933C163.326,-23.8933 159.953,-41.5745 159.953,-41.5745 159.12,-41.4155 158.299,-41.1977 157.496,-40.9229 156.693,-40.648 155.91,-40.3167 155.154,-39.9314 154.398,-39.5462 153.67,-39.108 152.976,-38.62 152.282,-38.1321 151.623,-37.5956 151.004,-37.0148 150.386,-36.4339 149.809,-35.8099 149.278,-35.1477 148.748,-34.4854 148.265,-33.7865 147.833,-33.0561 147.401,-32.3257 147.021,-31.5656 146.696,-30.7816 146.372,-29.9976 146.103,-29.1917 145.892,-28.3697 145.681,-27.5478 145.528,-26.712 145.435,-25.8685 145.342,-25.0251 145.308,-24.1761 145.335,-23.3279 145.362,-22.4798 145.448,-21.6345 145.594,-20.7986 145.74,-19.9626 145.945,-19.1381 146.207,-18.331 146.469,-17.524 146.788,-16.7365 147.162,-15.9744 147.535,-15.2124 147.962,-14.4777 148.439,-13.7758 148.916,-13.074 149.442,-12.4067 150.013,-11.7791 150.584,-11.1515 151.199,-10.565 151.853,-10.0241 152.506,-9.48317 153.198,-8.98918 153.921,-8.5458 154.645,-8.10241 155.399,-7.71075 156.178,-7.37374 156.956,-7.03672 157.758,-6.7552 158.576,-6.53129 159.395,-6.30737 160.228,-6.14161 161.07,-6.03525 161.912,-5.9289 162.76,-5.88221 163.609,-5.89554 164.457,-5.90887 165.304,-5.98218 166.142,-6.11493 166.98,-6.24768 167.808,-6.43953 168.619,-6.68905 169.43,-6.93856 170.222,-7.24512 170.99,-7.60643 171.758,-7.96774 172.499,-8.3829 173.209,-8.84879 173.918,-9.31468 174.593,-9.83014 175.23,-10.3913 175.866,-10.9525 176.462,-11.558 177.014,-12.2033 177.565,-12.8485 178.069,-13.532 178.524,-14.2484 178.979,-14.9649 179.382,-15.7127 179.731,-16.4861 180.081,-17.2595 180.375,-18.0566 180.611,-18.8715 180.848,-19.6864 181.027,-20.517 181.147,-21.3571 181.266,-22.1972 181.326,-23.0447 181.326,-23.8933 181.326,-23.8933 163.326,-23.8933 163.326,-23.8933"/>
<ellipse fill="none" stroke="black" cx="163.326" cy="-23.8933" rx="18" ry="18"/>
</g>
<!-- 9&#45;&#45;15 -->
<g id="edge25" class="edge"><title>9&#45;&#45;15</title>
<path fill="none" stroke="black" d="M207.611,30.0514C201.802,22.9753 185.955,3.6722 174.887,-9.81009"/>
</g>
<!-- 10 -->
<g id="node11" class="node"><title>10</title>
<ellipse fill="#ff3030" stroke="black" cx="-235.211" cy="9.15539" rx="3.5" ry="3.5"/>
</g>
<!-- 10&#45;&#45;3 -->
<g id="edge26" class="edge"><title>10&#45;&#45;3</title>
<path fill="none" stroke="black" d="M-233.049,6.34579C-228.308,0.185802 -216.567,-15.0698 -205.865,-28.9752"/>
</g>
<!-- 11 -->
<g id="node12" class="node"><title>11</title>
<ellipse fill="deepskyblue" stroke="black" cx="50.4853" cy="208.782" rx="3.5" ry="3.5"/>
</g>
<!-- 11&#45;&#45;4 -->
<g id="edge27" class="edge"><title>11&#45;&#45;4</title>
<path fill="none" stroke="black" d="M49.5306,205.045C47.2379,196.072 41.2377,172.586 36.1932,152.841"/>
</g>
<!-- 12 -->
<g id="node13" class="node"><title>12</title>
<ellipse fill="deepskyblue" stroke="black" cx="221.131" cy="-6.4024" rx="3.5" ry="3.5"/>
</g>
<!-- 13 -->
<g id="node14" class="node"><title>13</title>
<ellipse fill="#ff3030" stroke="black" cx="-0.691199" cy="62.4522" rx="8" ry="8"/>
</g>
<!-- 13&#45;&#45;6 -->
<g id="edge28" class="edge"><title>13&#45;&#45;6</title>
<path fill="none" stroke="black" d="M-3.36386,54.8223C-5.98117,47.3504 -10.1525,35.4421 -14.1833,23.9351"/>
</g>
<!-- 28 -->
<g id="node29" class="node"><title>28</title>
<ellipse fill="#ff3030" stroke="black" cx="38.8843" cy="106.267" rx="3.5" ry="3.5"/>
</g>
<!-- 13&#45;&#45;28 -->
<g id="edge29" class="edge"><title>13&#45;&#45;28</title>
<path fill="none" stroke="black" d="M4.81161,68.5444C13.477,78.1381 29.9685,96.396 36.3106,103.417"/>
</g>
<!-- 14 -->
<g id="node15" class="node"><title>14</title>
<path fill="#98f5ff" stroke="black" stroke-width="0.5" d="M82.519,-17.575C82.519,-17.575 88.519,-17.575 88.519,-17.575 88.519,-17.8369 88.5018,-18.0985 88.4676,-18.3581 88.4335,-18.6178 88.3823,-18.8749 88.3145,-19.1279 88.2467,-19.3809 88.1625,-19.6291 88.0622,-19.8711 87.962,-20.113 87.8461,-20.3482 87.7151,-20.575 87.5842,-20.8018 87.4385,-21.0198 87.2791,-21.2275 87.1197,-21.4353 86.9468,-21.6324 86.7616,-21.8176 86.5764,-22.0028 86.3793,-22.1757 86.1715,-22.3351 85.9638,-22.4945 85.7458,-22.6402 85.519,-22.7711 85.2922,-22.9021 85.057,-23.018 84.8151,-23.1182 84.5731,-23.2185 84.3249,-23.3027 84.0719,-23.3705 83.8189,-23.4383 83.5618,-23.4895 83.3021,-23.5236 83.0425,-23.5578 82.7809,-23.575 82.519,-23.575 82.2571,-23.575 81.9955,-23.5578 81.7358,-23.5236 81.4762,-23.4895 81.219,-23.4383 80.9661,-23.3705 80.7131,-23.3027 80.4648,-23.2185 80.2229,-23.1182 79.9809,-23.018 79.7458,-22.9021 79.519,-22.7711 79.519,-22.7711 82.519,-17.575 82.519,-17.575"/>
<path fill="#ff3030" stroke="black" stroke-width="0.5" d="M82.519,-17.575C82.519,-17.575 79.519,-22.7711 79.519,-22.7711 79.2922,-22.6402 79.0742,-22.4945 78.8664,-22.3351 78.6586,-22.1757 78.4615,-22.0028 78.2763,-21.8176 78.0911,-21.6324 77.9183,-21.4353 77.7589,-21.2275 77.5994,-21.0198 77.4538,-20.8018 77.3228,-20.575 77.1919,-20.3482 77.0759,-20.113 76.9757,-19.8711 76.8755,-19.6291 76.7912,-19.3809 76.7234,-19.1279 76.6556,-18.8749 76.6045,-18.6178 76.5703,-18.3581 76.5361,-18.0985 76.519,-17.8369 76.519,-17.575 76.519,-17.3131 76.5361,-17.0515 76.5703,-16.7918 76.6045,-16.5322 76.6556,-16.275 76.7234,-16.0221 76.7912,-15.7691 76.8755,-15.5208 76.9757,-15.2789 77.0759,-15.0369 77.1919,-14.8018 77.3228,-14.575 77.4538,-14.3482 77.5994,-14.1302 77.7589,-13.9224 77.9183,-13.7146 78.0911,-13.5175 78.2763,-13.3323 78.4615,-13.1471 78.6586,-12.9743 78.8664,-12.8148 79.0742,-12.6554 79.2922,-12.5098 79.519,-12.3788 79.7458,-12.2479 79.9809,-12.1319 80.2229,-12.0317 80.4648,-11.9315 80.7131,-11.8472 80.9661,-11.7794 81.219,-11.7116 81.4762,-11.6605 81.7358,-11.6263 81.9955,-11.5921 82.2571,-11.575 82.519,-11.575 82.7809,-11.575 83.0425,-11.5921 83.3021,-11.6263 83.5618,-11.6605 83.8189,-11.7116 84.0719,-11.7794 84.3249,-11.8472 84.5731,-11.9315 84.8151,-12.0317 85.057,-12.1319 85.2922,-12.2479 85.519,-12.3788 85.7458,-12.5098 85.9638,-12.6554 86.1715,-12.8149 86.3793,-12.9743 86.5764,-13.1471 86.7616,-13.3323 86.9468,-13.5175 87.1197,-13.7146 87.2791,-13.9224 87.4385,-14.1302 87.5842,-14.3482 87.7151,-14.575 87.8461,-14.8018 87.962,-15.0369 88.0622,-15.2789 88.1625,-15.5208 88.2467,-15.7691 88.3145,-16.0221 88.3823,-16.275 88.4335,-16.5322 88.4676,-16.7918 88.5018,-17.0515 88.519,-17.3131 88.519,-17.575 88.519,-17.575 82.519,-17.575 82.519,-17.575"/>
<ellipse fill="none" stroke="black" cx="82.519" cy="-17.575" rx="6" ry="6"/>
</g>
<!-- 14&#45;&#45;6 -->
<g id="edge30" class="edge"><title>14&#45;&#45;6</title>
<path fill="none" stroke="black" d="M76.3926,-17.0805C63.6088,-16.0487 33.2621,-13.5995 8.96244,-11.6382"/>
</g>
<!-- 14&#45;&#45;15 -->
<g id="edge31" class="edge"><title>14&#45;&#45;15</title>
<path fill="none" stroke="black" d="M88.5926,-18.0499C100.485,-18.9797 127.253,-21.0728 145.308,-22.4845"/>
</g>
<!-- 15&#45;&#45;12 -->
<g id="edge32" class="edge"><title>15&#45;&#45;12</title>
<path fill="none" stroke="black" d="M180.67,-18.6455C193.706,-14.7009 210.498,-9.6198 217.654,-7.4547"/>
</g>
<!-- 16 -->
<g id="node17" class="node"><title>16</title>
<ellipse fill="#ff3030" stroke="black" cx="-190.621" cy="26.5796" rx="3.5" ry="3.5"/>
</g>
<!-- 16&#45;&#45;3 -->
<g id="edge33" class="edge"><title>16&#45;&#45;3</title>
<path fill="none" stroke="black" d="M-190.375,23.0213C-189.83,15.1579 -188.476,-4.40845 -187.249,-22.131"/>
</g>
<!-- 20 -->
<g id="node21" class="node"><title>20</title>
<ellipse fill="deepskyblue" stroke="black" cx="-138.577" cy="248.389" rx="3.5" ry="3.5"/>
</g>
<!-- 22 -->
<g id="node23" class="node"><title>22</title>
<ellipse fill="deepskyblue" stroke="black" cx="56.3603" cy="-221.334" rx="3.5" ry="3.5"/>
</g>
<!-- 22&#45;&#45;0 -->
<g id="edge34" class="edge"><title>22&#45;&#45;0</title>
<path fill="none" stroke="black" d="M55.1306,-217.684C52.2659,-209.181 44.9462,-187.454 39.0898,-170.07"/>
</g>
<!-- 23 -->
<g id="node24" class="node"><title>23</title>
<ellipse fill="deepskyblue" stroke="black" cx="297.913" cy="-110.933" rx="3.5" ry="3.5"/>
</g>
<!-- anon_23_15_0 -->
<g id="node124" class="node"><title>anon_23_15_0</title>
<ellipse fill="white" stroke="black" cx="256.887" cy="-93.271" rx="2.5" ry="2.5"/>
</g>
<!-- 23&#45;&#45;anon_23_15_0 -->
<g id="edge35" class="edge"><title>23&#45;&#45;anon_23_15_0</title>
<path fill="none" stroke="black" d="M294.694,-109.547C286.836,-106.164 266.789,-97.5338 259.548,-94.4163"/>
</g>
<!-- 27 -->
<g id="node28" class="node"><title>27</title>
<ellipse fill="#ff3030" stroke="black" cx="131.182" cy="-108.161" rx="5" ry="5"/>
</g>
<!-- anon_27_6_0 -->
<g id="node126" class="node"><title>anon_27_6_0</title>
<ellipse fill="white" stroke="black" cx="90.0123" cy="-75.0116" rx="2.5" ry="2.5"/>
</g>
<!-- 27&#45;&#45;anon_27_6_0 -->
<g id="edge38" class="edge"><title>27&#45;&#45;anon_27_6_0</title>
<path fill="none" stroke="black" d="M127.084,-104.862C118.461,-97.9179 98.6962,-82.0038 92.157,-76.7385"/>
</g>
<!-- 30 -->
<g id="node31" class="node"><title>30</title>
<ellipse fill="deepskyblue" stroke="black" cx="-206.266" cy="-142.074" rx="3.5" ry="3.5"/>
</g>
<!-- 30&#45;&#45;3 -->
<g id="edge41" class="edge"><title>30&#45;&#45;3</title>
<path fill="none" stroke="black" d="M-205.347,-138.386C-203.237,-129.914 -197.864,-108.336 -193.153,-89.4208"/>
</g>
<!-- 31 -->
<g id="node32" class="node"><title>31</title>
<path fill="#98f5ff" stroke="black" stroke-width="0.5" d="M-81.4273,88.4096C-81.4273,88.4096 -68.9273,88.4096 -68.9273,88.4096 -68.9273,87.7274 -68.9832,87.0464 -69.0943,86.3734 -69.2054,85.7004 -69.3714,85.0375 -69.5907,84.3916 -69.81,83.7457 -70.0818,83.1187 -70.4033,82.5171 -70.7249,81.9155 -71.0951,81.3413 -71.5104,80.8001 -71.9257,80.2589 -72.3845,79.7526 -72.8824,79.2863 -73.3803,78.82 -73.9155,78.3952 -74.4827,78.0162 -75.0499,77.6372 -75.6471,77.3053 -76.2685,77.0238 -76.8898,76.7423 -77.5332,76.5121 -78.1921,76.3355 -78.851,76.159 -79.5233,76.0366 -80.2021,75.9698 -80.881,75.9029 -81.5642,75.8917 -82.2449,75.9364 -82.9256,75.981 -83.6015,76.0812 -84.2658,76.2361 -84.9301,76.391 -85.5806,76.6001 -86.2109,76.8611 -86.8411,77.1221 -87.4489,77.4343 -88.0282,77.7946 -88.6075,78.1548 -89.1563,78.5618 -89.6692,79.0116 -90.182,79.4614 -90.6572,79.9524 -91.09,80.4797 -91.5227,81.007 -91.9116,81.5688 -92.2526,82.1596 -92.2526,82.1596 -81.4273,88.4096 -81.4273,88.4096"/>
<path fill="deepskyblue" stroke="black" stroke-width="0.5" d="M-81.4273,88.4096C-81.4273,88.4096 -92.2526,82.1596 -92.2526,82.1596 -92.4913,82.573 -92.7061,82.9998 -92.896,83.4377 -93.0859,83.8757 -93.2505,84.3242 -93.3891,84.781 -93.5277,85.2378 -93.6399,85.7022 -93.7254,86.1719 -93.8109,86.6415 -93.8693,87.1157 -93.9006,87.5921 -93.9318,88.0684 -93.9357,88.5461 -93.9123,89.0229 -93.8888,89.4997 -93.8381,89.9748 -93.7604,90.4458 -93.6826,90.9168 -93.5779,91.3829 -93.4469,91.8419 -93.3158,92.301 -93.1585,92.7521 -92.9758,93.1931 -92.7931,93.6342 -92.5853,94.0644 -92.3535,94.4816 -92.1216,94.8989 -91.866,95.3025 -91.5879,95.6906 -91.3099,96.0786 -91.0098,96.4504 -90.6892,96.8041 -90.3686,97.1578 -90.0281,97.4928 -89.6692,97.8076 -89.3102,98.1223 -88.9336,98.4163 -88.5411,98.6879 -88.1486,98.9596 -87.7408,99.2086 -87.3198,99.4336 -86.8988,99.6586 -86.4652,99.8594 -86.0213,100.035 -85.5773,100.21 -85.1237,100.36 -84.6626,100.484 -84.2015,100.607 -83.7337,100.704 -83.2615,100.774 -82.7893,100.844 -82.3134,100.887 -81.8363,100.903 -81.3592,100.919 -80.8816,100.907 -80.4058,100.868 -79.93,100.829 -79.4569,100.763 -78.9887,100.669 -78.5205,100.576 -78.058,100.456 -77.6035,100.31 -77.1491,100.164 -76.7033,99.9924 -76.2685,99.7954 -75.8337,99.5984 -75.4105,99.3766 -75.001,99.1312 -74.5916,98.8858 -74.1965,98.6171 -73.8178,98.3265 -73.4391,98.0359 -73.0773,97.7238 -72.7343,97.3919 -72.3913,97.0599 -72.0675,96.7085 -71.7647,96.3395 -71.4619,95.9705 -71.1804,95.5844 -70.9217,95.1832 -70.663,94.782 -70.4276,94.3663 -70.2164,93.9382 -70.0053,93.5101 -69.8188,93.0702 -69.658,92.6207 -69.4972,92.1713 -69.3623,91.7129 -69.2539,91.248 -69.1455,90.7831 -69.0638,90.3124 -69.0092,89.8382 -68.9547,89.3639 -68.9273,88.887 -68.9273,88.4096 -68.9273,88.4096 -81.4273,88.4096 -81.4273,88.4096"/>
<ellipse fill="none" stroke="black" cx="-81.4273" cy="88.4096" rx="12.5" ry="12.5"/>
</g>
<!-- 31&#45;&#45;6 -->
<g id="edge42" class="edge"><title>31&#45;&#45;6</title>
<path fill="none" stroke="black" d="M-75.0307,77.2534C-67.2495,63.6825 -53.8036,40.2319 -42.9078,21.2288"/>
</g>
<!-- anon_31_20_0 -->
<g id="node128" class="node"><title>anon_31_20_0</title>
<ellipse fill="white" stroke="black" cx="-104.862" cy="156.261" rx="2.5" ry="2.5"/>
</g>
<!-- 31&#45;&#45;anon_31_20_0 -->
<g id="edge43" class="edge"><title>31&#45;&#45;anon_31_20_0</title>
<path fill="none" stroke="black" d="M-85.5094,100.228C-91.1746,116.631 -101.057,145.245 -104.008,153.786"/>
</g>
<!-- 97 -->
<g id="node98" class="node"><title>97</title>
<ellipse fill="brown" stroke="black" cx="-13.3369" cy="239.823" rx="6" ry="6"/>
</g>
<!-- 32&#45;&#45;97 -->
<g id="edge46" class="edge"><title>32&#45;&#45;97</title>
<path fill="none" stroke="black" d="M-15.4936,188.561C-15.1085,197.715 -14.0879,221.973 -13.6016,233.529"/>
</g>
<!-- 33 -->
<g id="node34" class="node"><title>33</title>
<ellipse fill="deepskyblue" stroke="black" cx="-25.4673" cy="-173.751" rx="3.5" ry="3.5"/>
</g>
<!-- 33&#45;&#45;19 -->
<g id="edge47" class="edge"><title>33&#45;&#45;19</title>
<path fill="none" stroke="black" d="M-25.5679,-169.91C-25.8413,-159.475 -26.6059,-130.29 -27.0357,-113.882"/>
</g>
<!-- 34 -->
<g id="node35" class="node"><title>34</title>
<ellipse fill="#ff3030" stroke="black" cx="-163.646" cy="-145.929" rx="3.5" ry="3.5"/>
</g>
<!-- 34&#45;&#45;3 -->
<g id="edge48" class="edge"><title>34&#45;&#45;3</title>
<path fill="none" stroke="black" d="M-164.453,-142.522C-166.514,-133.818 -172.153,-110.009 -176.986,-89.5997"/>
</g>
<!-- 35 -->
<g id="node36" class="node"><title>35</title>
<ellipse fill="#ff3030" stroke="black" cx="-203.98" cy="-214.737" rx="3.5" ry="3.5"/>
</g>
<!-- anon_35_3_0 -->
<g id="node130" class="node"><title>anon_35_3_0</title>
<ellipse fill="white" stroke="black" cx="-188.54" cy="-168.276" rx="2.5" ry="2.5"/>
</g>
<!-- 35&#45;&#45;anon_35_3_0 -->
<g id="edge49" class="edge"><title>35&#45;&#45;anon_35_3_0</title>
<path fill="none" stroke="black" d="M-202.87,-211.395C-199.938,-202.573 -192.035,-178.792 -189.405,-170.878"/>
</g>
<!-- 36 -->
<g id="node37" class="node"><title>36</title>
<ellipse fill="#ff3030" stroke="black" cx="-189.324" cy="-105.214" rx="3.5" ry="3.5"/>
</g>
<!-- 36&#45;&#45;3 -->
<g id="edge51" class="edge"><title>36&#45;&#45;3</title>
<path fill="none" stroke="black" d="M-189.005,-101.692C-188.758,-98.9717 -188.39,-94.9027 -187.973,-90.2977"/>
</g>
<!-- 37 -->
<g id="node38" class="node"><title>37</title>
<ellipse fill="#ff3030" stroke="black" cx="150.162" cy="125.479" rx="3.5" ry="3.5"/>
</g>
<!-- anon_37_2_0 -->
<g id="node131" class="node"><title>anon_37_2_0</title>
<ellipse fill="white" stroke="black" cx="112.222" cy="95.2134" rx="2.5" ry="2.5"/>
</g>
<!-- 37&#45;&#45;anon_37_2_0 -->
<g id="edge52" class="edge"><title>37&#45;&#45;anon_37_2_0</title>
<path fill="none" stroke="black" d="M147.185,123.104C139.778,117.196 120.662,101.946 114.31,96.8783"/>
</g>
<!-- 40 -->
<g id="node41" class="node"><title>40</title>
<ellipse fill="deepskyblue" stroke="black" cx="-283.998" cy="-169.408" rx="3.5" ry="3.5"/>
</g>
<!-- anon_40_3_0 -->
<g id="node132" class="node"><title>anon_40_3_0</title>
<ellipse fill="white" stroke="black" cx="-251.496" cy="-134.652" rx="2.5" ry="2.5"/>
</g>
<!-- 40&#45;&#45;anon_40_3_0 -->
<g id="edge54" class="edge"><title>40&#45;&#45;anon_40_3_0</title>
<path fill="none" stroke="black" d="M-281.447,-166.681C-275.102,-159.896 -258.726,-142.383 -253.284,-136.564"/>
</g>
<!-- 41 -->
<g id="node42" class="node"><title>41</title>
<path fill="#1874cd" stroke="black" stroke-width="0.5" d="M324.662,-298.933C324.662,-298.933 370.662,-298.933 370.662,-298.933 370.662,-300.234 370.606,-301.535 370.496,-302.831 370.386,-304.128 370.221,-305.419 370.001,-306.701 369.781,-307.984 369.507,-309.256 369.18,-310.515 368.852,-311.774 368.471,-313.019 368.038,-314.246 367.605,-315.473 367.12,-316.681 366.584,-317.867 366.049,-319.053 365.463,-320.215 364.829,-321.351 364.195,-322.487 363.513,-323.596 362.785,-324.674 362.057,-325.753 361.283,-326.8 360.466,-327.812 359.65,-328.825 358.79,-329.803 357.89,-330.743 356.991,-331.683 356.051,-332.584 355.075,-333.444 354.099,-334.304 353.087,-335.123 352.041,-335.897 350.996,-336.672 349.918,-337.401 348.811,-338.084 347.703,-338.767 346.567,-339.403 345.406,-339.99 344.245,-340.577 343.059,-341.114 341.852,-341.6 340.645,-342.086 339.418,-342.521 338.175,-342.903 336.931,-343.286 335.672,-343.615 334.4,-343.89 333.128,-344.166 331.846,-344.387 330.555,-344.554 329.265,-344.721 327.968,-344.833 326.668,-344.889 325.368,-344.946 324.067,-344.948 322.767,-344.894 321.467,-344.84 320.169,-344.732 318.879,-344.568 317.588,-344.405 316.305,-344.186 315.032,-343.914 313.76,-343.642 312.5,-343.315 311.255,-342.936 310.011,-342.557 308.783,-342.125 307.575,-341.642 306.367,-341.158 305.18,-340.624 304.017,-340.04 302.854,-339.456 301.717,-338.823 300.608,-338.143 299.499,-337.462 298.419,-336.735 297.372,-335.963 296.324,-335.192 295.31,-334.376 294.332,-333.518 293.354,-332.66 292.412,-331.761 291.51,-330.823 290.608,-329.885 289.746,-328.91 288.927,-327.899 288.108,-326.888 287.332,-325.843 286.601,-324.767 285.87,-323.69 285.185,-322.583 284.549,-321.449 283.912,-320.314 283.323,-319.153 282.785,-317.968 282.247,-316.784 281.759,-315.577 281.323,-314.351 280.886,-313.125 280.503,-311.882 280.172,-310.623 279.841,-309.365 279.564,-308.093 279.341,-306.811 279.118,-305.529 278.95,-304.238 278.837,-302.942 278.723,-301.646 278.665,-300.346 278.662,-299.045 278.659,-297.743 278.711,-296.443 278.818,-295.146 278.925,-293.849 279.087,-292.558 279.304,-291.275 279.52,-289.992 279.791,-288.719 280.116,-287.459 280.44,-286.199 280.818,-284.953 281.248,-283.725 281.678,-282.497 282.161,-281.288 282.693,-280.101 283.226,-278.914 283.809,-277.75 284.44,-276.612 285.071,-275.475 285.751,-274.364 286.476,-273.284 287.202,-272.204 287.973,-271.155 288.787,-270.141 289.601,-269.126 290.458,-268.146 291.356,-267.204 292.253,-266.262 293.19,-265.358 294.164,-264.496 295.138,-263.633 296.149,-262.812 297.192,-262.035 298.236,-261.258 299.312,-260.526 300.418,-259.84 301.524,-259.155 302.658,-258.516 303.818,-257.927 304.978,-257.337 306.162,-256.797 307.368,-256.308 308.573,-255.819 309.799,-255.381 311.042,-254.996 312.285,-254.61 313.543,-254.278 314.814,-253.999 316.085,-253.721 317.367,-253.496 318.657,-253.327 319.947,-253.157 321.244,-253.042 322.544,-252.982 323.844,-252.922 325.145,-252.917 326.445,-252.968 327.745,-253.018 329.043,-253.124 330.334,-253.284 331.625,-253.445 332.909,-253.66 334.182,-253.929 335.455,-254.198 336.716,-254.521 337.961,-254.898 339.207,-255.274 340.436,-255.703 341.645,-256.183 342.854,-256.663 344.043,-257.195 345.207,-257.776 346.371,-258.357 347.51,-258.987 348.62,-259.665 349.731,-260.343 350.813,-261.067 351.862,-261.837 352.911,-262.606 353.927,-263.42 354.908,-264.275 354.908,-264.275 324.662,-298.933 324.662,-298.933"/>
<path fill="olivedrab" stroke="black" stroke-width="0.5" d="M324.662,-298.933C324.662,-298.933 354.908,-264.275 354.908,-264.275 356.14,-265.351 357.314,-266.491 358.425,-267.692 359.536,-268.893 360.582,-270.152 361.559,-271.464 362.536,-272.776 363.442,-274.139 364.274,-275.548 365.106,-276.957 365.861,-278.409 366.538,-279.898 367.215,-281.387 367.812,-282.911 368.327,-284.464 368.841,-286.017 369.273,-287.596 369.619,-289.195 369.965,-290.793 370.226,-292.41 370.4,-294.036 370.574,-295.663 370.662,-297.297 370.662,-298.933 370.662,-298.933 324.662,-298.933 324.662,-298.933"/>
<ellipse fill="none" stroke="black" cx="324.662" cy="-298.933" rx="46" ry="46"/>
</g>
<!-- 43 -->
<g id="node44" class="node"><title>43</title>
<ellipse fill="#1874cd" stroke="black" cx="413.951" cy="-305.569" rx="3.5" ry="3.5"/>
</g>
<!-- 41&#45;&#45;43 -->
<g id="edge56" class="edge"><title>41&#45;&#45;43</title>
<path fill="none" stroke="black" d="M370.614,-302.348C387.023,-303.568 403.196,-304.77 410.256,-305.295"/>
</g>
<!-- 47 -->
<g id="node48" class="node"><title>47</title>
<ellipse fill="#1874cd" stroke="black" cx="418.124" cy="-208.654" rx="3.5" ry="3.5"/>
</g>
<!-- 41&#45;&#45;47 -->
<g id="edge57" class="edge"><title>41&#45;&#45;47</title>
<path fill="none" stroke="black" d="M357.876,-266.85C380.123,-245.361 406.841,-219.553 415.368,-211.316"/>
</g>
<!-- 48 -->
<g id="node49" class="node"><title>48</title>
<ellipse fill="#1874cd" stroke="black" cx="267.657" cy="-359.535" rx="3.5" ry="3.5"/>
</g>
<!-- 41&#45;&#45;48 -->
<g id="edge58" class="edge"><title>41&#45;&#45;48</title>
<path fill="none" stroke="black" d="M292.826,-332.778C283.441,-342.755 274.544,-352.213 270.282,-356.744"/>
</g>
<!-- 52 -->
<g id="node53" class="node"><title>52</title>
<ellipse fill="#1874cd" stroke="black" cx="384.702" cy="-284.356" rx="3.5" ry="3.5"/>
</g>
<!-- 41&#45;&#45;52 -->
<g id="edge59" class="edge"><title>41&#45;&#45;52</title>
<path fill="none" stroke="black" d="M369.551,-288.034C374.166,-286.914 378.153,-285.946 380.877,-285.284"/>
</g>
<!-- 53 -->
<g id="node54" class="node"><title>53</title>
<ellipse fill="#1874cd" stroke="black" cx="262.125" cy="-298.408" rx="3.5" ry="3.5"/>
</g>
<!-- 41&#45;&#45;53 -->
<g id="edge60" class="edge"><title>41&#45;&#45;53</title>
<path fill="none" stroke="black" d="M278.556,-298.546C273.284,-298.501 268.744,-298.463 265.781,-298.438"/>
</g>
<!-- 57 -->
<g id="node58" class="node"><title>57</title>
<ellipse fill="#1874cd" stroke="black" cx="297.032" cy="-201.527" rx="3.5" ry="3.5"/>
</g>
<!-- 41&#45;&#45;57 -->
<g id="edge61" class="edge"><title>41&#45;&#45;57</title>
<path fill="none" stroke="black" d="M312.06,-254.506C306.367,-234.435 300.397,-213.389 298.058,-205.142"/>
</g>
<!-- 60 -->
<g id="node61" class="node"><title>60</title>
<ellipse fill="#1874cd" stroke="black" cx="324.011" cy="-181.053" rx="5" ry="5"/>
</g>
<!-- 41&#45;&#45;60 -->
<g id="edge62" class="edge"><title>41&#45;&#45;60</title>
<path fill="none" stroke="black" d="M324.406,-252.682C324.264,-226.881 324.102,-197.675 324.039,-186.132"/>
</g>
<!-- 62 -->
<g id="node63" class="node"><title>62</title>
<ellipse fill="#1874cd" stroke="black" cx="211.896" cy="-355.942" rx="3.5" ry="3.5"/>
</g>
<!-- 41&#45;&#45;62 -->
<g id="edge63" class="edge"><title>41&#45;&#45;62</title>
<path fill="none" stroke="black" d="M283.312,-319.837C256.66,-333.311 225.174,-349.229 215.138,-354.303"/>
</g>
<!-- 64 -->
<g id="node65" class="node"><title>64</title>
<ellipse fill="#1874cd" stroke="black" cx="341.028" cy="-375.303" rx="3.5" ry="3.5"/>
</g>
<!-- 41&#45;&#45;64 -->
<g id="edge64" class="edge"><title>41&#45;&#45;64</title>
<path fill="none" stroke="black" d="M334.371,-344.24C336.849,-355.803 339.134,-366.462 340.272,-371.772"/>
</g>
<!-- 78 -->
<g id="node79" class="node"><title>78</title>
<ellipse fill="#1874cd" stroke="black" cx="304.726" cy="-236.549" rx="5" ry="5"/>
</g>
<!-- 41&#45;&#45;78 -->
<g id="edge65" class="edge"><title>41&#45;&#45;78</title>
<path fill="none" stroke="black" d="M310.6,-254.929C308.899,-249.606 307.39,-244.886 306.328,-241.562"/>
</g>
<!-- 81 -->
<g id="node82" class="node"><title>81</title>
<ellipse fill="#1874cd" stroke="black" cx="239.347" cy="-261.868" rx="3.5" ry="3.5"/>
</g>
<!-- 41&#45;&#45;81 -->
<g id="edge66" class="edge"><title>41&#45;&#45;81</title>
<path fill="none" stroke="black" d="M282.004,-280.4C265.674,-273.306 249.345,-266.211 242.587,-263.276"/>
</g>
<!-- 83 -->
<g id="node84" class="node"><title>83</title>
<ellipse fill="#1874cd" stroke="black" cx="385.56" cy="-337.615" rx="3.5" ry="3.5"/>
</g>
<!-- 41&#45;&#45;83 -->
<g id="edge67" class="edge"><title>41&#45;&#45;83</title>
<path fill="none" stroke="black" d="M363.575,-323.65C371.593,-328.744 378.762,-333.297 382.603,-335.737"/>
</g>
<!-- 86 -->
<g id="node87" class="node"><title>86</title>
<ellipse fill="#1874cd" stroke="black" cx="376.963" cy="-375.447" rx="3.5" ry="3.5"/>
</g>
<!-- 41&#45;&#45;86 -->
<g id="edge68" class="edge"><title>41&#45;&#45;86</title>
<path fill="none" stroke="black" d="M350.812,-337.19C360.823,-351.835 370.834,-366.48 374.976,-372.541"/>
</g>
<!-- 88 -->
<g id="node89" class="node"><title>88</title>
<ellipse fill="#1874cd" stroke="black" cx="305.239" cy="-399.835" rx="5" ry="5"/>
</g>
<!-- 41&#45;&#45;88 -->
<g id="edge69" class="edge"><title>41&#45;&#45;88</title>
<path fill="none" stroke="black" d="M315.916,-344.366C312.09,-364.244 308.062,-385.17 306.239,-394.639"/>
</g>
<!-- 90 -->
<g id="node91" class="node"><title>90</title>
<ellipse fill="#1874cd" stroke="black" cx="351.64" cy="-195.202" rx="3.5" ry="3.5"/>
</g>
<!-- 41&#45;&#45;90 -->
<g id="edge70" class="edge"><title>41&#45;&#45;90</title>
<path fill="none" stroke="black" d="M336.26,-254.34C342.086,-231.936 348.394,-207.685 350.716,-198.758"/>
</g>
<!-- anon_41_91_0 -->
<g id="node133" class="node"><title>anon_41_91_0</title>
<ellipse fill="white" stroke="black" cx="415.453" cy="-375.855" rx="2.5" ry="2.5"/>
</g>
<!-- 41&#45;&#45;anon_41_91_0 -->
<g id="edge71" class="edge"><title>41&#45;&#45;anon_41_91_0</title>
<path fill="none" stroke="black" d="M359.764,-328.673C381.321,-346.937 406.146,-367.97 413.378,-374.097"/>
</g>
<!-- 42 -->
<g id="node43" class="node"><title>42</title>
<ellipse fill="#1874cd" stroke="black" cx="269.672" cy="129.458" rx="21.5" ry="21.5"/>
</g>
<!-- 80 -->
<g id="node81" class="node"><title>80</title>
<ellipse fill="#1874cd" stroke="black" cx="249.241" cy="65.6099" rx="3.5" ry="3.5"/>
</g>
<!-- 42&#45;&#45;80 -->
<g id="edge73" class="edge"><title>42&#45;&#45;80</title>
<path fill="none" stroke="black" d="M263.095,108.905C258.522,94.6144 252.831,76.8275 250.414,69.2749"/>
</g>
<!-- 87 -->
<g id="node88" class="node"><title>87</title>
<ellipse fill="#1874cd" stroke="black" cx="213.828" cy="166.527" rx="3.5" ry="3.5"/>
</g>
<!-- 42&#45;&#45;87 -->
<g id="edge74" class="edge"><title>42&#45;&#45;87</title>
<path fill="none" stroke="black" d="M251.695,141.391C239.196,149.688 223.639,160.015 217.033,164.399"/>
</g>
<!-- 44 -->
<g id="node45" class="node"><title>44</title>
<ellipse fill="#1874cd" stroke="black" cx="506.73" cy="201.222" rx="9" ry="9"/>
</g>
<!-- 46 -->
<g id="node47" class="node"><title>46</title>
<path fill="#1874cd" stroke="black" stroke-width="0.5" d="M-118.433,-301.276C-118.433,-301.276 -106.433,-301.276 -106.433,-301.276 -106.433,-301.848 -106.473,-302.418 -106.555,-302.984 -106.636,-303.55 -106.758,-304.109 -106.919,-304.657 -107.08,-305.205 -107.28,-305.741 -107.517,-306.261 -107.754,-306.781 -108.029,-307.283 -108.337,-307.764 -108.646,-308.245 -108.989,-308.703 -109.364,-309.135 -109.738,-309.566 -110.142,-309.971 -110.574,-310.345 -111.006,-310.72 -111.464,-311.062 -111.945,-311.371 -112.426,-311.68 -112.928,-311.955 -113.448,-312.192 -113.967,-312.429 -114.503,-312.629 -115.052,-312.79 -115.6,-312.951 -116.159,-313.073 -116.725,-313.154 -117.29,-313.235 -117.861,-313.276 -118.433,-313.276 -119.004,-313.276 -119.575,-313.235 -120.14,-313.154 -120.706,-313.073 -121.265,-312.951 -121.813,-312.79 -122.362,-312.629 -122.898,-312.429 -123.418,-312.192 -123.937,-311.955 -124.439,-311.68 -124.92,-311.371 -125.401,-311.062 -125.859,-310.72 -126.291,-310.345 -126.723,-309.971 -127.127,-309.566 -127.502,-309.135 -127.876,-308.703 -128.219,-308.245 -128.528,-307.764 -128.837,-307.283 -129.111,-306.781 -129.348,-306.261 -129.585,-305.741 -129.785,-305.205 -129.946,-304.657 -130.107,-304.109 -130.229,-303.55 -130.31,-302.984 -130.392,-302.418 -130.433,-301.848 -130.433,-301.276 -130.433,-300.705 -130.392,-300.134 -130.31,-299.569 -130.229,-299.003 -130.107,-298.444 -129.946,-297.896 -129.785,-297.347 -129.585,-296.811 -129.348,-296.291 -129.111,-295.772 -128.837,-295.269 -128.528,-294.789 -128.219,-294.308 -127.876,-293.85 -127.502,-293.418 -127.127,-292.986 -126.723,-292.582 -126.291,-292.207 -125.859,-291.833 -125.401,-291.49 -124.92,-291.181 -124.439,-290.872 -123.937,-290.598 -123.418,-290.361 -122.898,-290.123 -122.362,-289.923 -121.813,-289.762 -121.265,-289.601 -120.706,-289.48 -120.14,-289.398 -120.14,-289.398 -118.433,-301.276 -118.433,-301.276"/>
<path fill="olivedrab" stroke="black" stroke-width="0.5" d="M-118.433,-301.276C-118.433,-301.276 -120.14,-289.398 -120.14,-289.398 -119.716,-289.337 -119.289,-289.299 -118.861,-289.284 -118.433,-289.269 -118.004,-289.276 -117.576,-289.307 -117.149,-289.337 -116.724,-289.391 -116.302,-289.467 -115.88,-289.543 -115.463,-289.642 -115.052,-289.762 -114.641,-289.883 -114.236,-290.026 -113.84,-290.19 -113.444,-290.354 -113.058,-290.539 -112.682,-290.744 -112.305,-290.95 -111.941,-291.175 -111.589,-291.419 -111.237,-291.664 -110.898,-291.927 -110.574,-292.207 -110.25,-292.488 -109.942,-292.786 -109.65,-293.099 -109.358,-293.413 -109.083,-293.742 -108.826,-294.085 -108.569,-294.428 -108.331,-294.785 -108.112,-295.153 -107.894,-295.522 -107.695,-295.902 -107.517,-296.291 -107.339,-296.681 -107.182,-297.08 -107.047,-297.487 -106.911,-297.893 -106.798,-298.307 -106.707,-298.726 -106.616,-299.144 -106.547,-299.568 -106.501,-299.994 -106.455,-300.42 -106.433,-300.848 -106.433,-301.276 -106.433,-301.276 -118.433,-301.276 -118.433,-301.276"/>
<ellipse fill="none" stroke="black" cx="-118.433" cy="-301.276" rx="12" ry="12"/>
</g>
<!-- 49 -->
<g id="node50" class="node"><title>49</title>
<path fill="#1874cd" stroke="black" stroke-width="0.5" d="M-53.7071,-345.922C-53.7071,-345.922 -39.7071,-345.922 -39.7071,-345.922 -39.7071,-346.777 -39.7856,-347.631 -39.9415,-348.473 -40.0975,-349.314 -40.3303,-350.14 -40.637,-350.939 -40.9437,-351.738 -41.323,-352.507 -41.7701,-353.236 -42.2173,-353.966 -42.7304,-354.653 -43.3031,-355.289 -43.8757,-355.925 -44.5055,-356.507 -45.1844,-357.028 -45.8634,-357.549 -46.5887,-358.007 -47.3512,-358.396 -48.1138,-358.784 -48.9103,-359.102 -49.7309,-359.345 -50.5515,-359.588 -51.3926,-359.755 -52.2437,-359.845 -53.0948,-359.934 -53.9524,-359.945 -54.8055,-359.878 -55.6587,-359.811 -56.5039,-359.666 -57.3306,-359.444 -58.1572,-359.223 -58.9618,-358.926 -59.7343,-358.558 -60.5067,-358.189 -61.2437,-357.751 -61.9361,-357.248 -62.6285,-356.745 -63.2732,-356.179 -63.8623,-355.558 -64.4514,-354.938 -64.9824,-354.264 -65.4485,-353.546 -65.9146,-352.829 -66.3139,-352.07 -66.6414,-351.279 -66.9689,-350.488 -67.2232,-349.669 -67.4012,-348.832 -67.4012,-348.832 -53.7071,-345.922 -53.7071,-345.922"/>
<path fill="olivedrab" stroke="black" stroke-width="0.5" d="M-53.7071,-345.922C-53.7071,-345.922 -67.4012,-348.832 -67.4012,-348.832 -67.5028,-348.354 -67.5793,-347.871 -67.6304,-347.385 -67.6815,-346.899 -67.7071,-346.41 -67.7071,-345.922 -67.7071,-345.433 -67.6815,-344.944 -67.6304,-344.458 -67.5793,-343.972 -67.5028,-343.489 -67.4012,-343.011 -67.2995,-342.533 -67.1729,-342.06 -67.0219,-341.595 -66.8708,-341.13 -66.6956,-340.674 -66.4967,-340.227 -66.2979,-339.781 -66.0759,-339.345 -65.8315,-338.922 -65.5871,-338.498 -65.3207,-338.088 -65.0333,-337.693 -64.746,-337.297 -64.4382,-336.917 -64.1111,-336.554 -63.7841,-336.19 -63.4382,-335.845 -63.0749,-335.517 -62.7117,-335.19 -62.3315,-334.883 -61.9361,-334.595 -61.5406,-334.308 -61.1304,-334.042 -60.7071,-333.797 -60.2838,-333.553 -59.848,-333.331 -59.4014,-333.132 -58.9549,-332.933 -58.4982,-332.758 -58.0333,-332.607 -57.5685,-332.456 -57.096,-332.329 -56.6179,-332.227 -56.1397,-332.126 -55.6566,-332.049 -55.1705,-331.998 -54.6844,-331.947 -54.1959,-331.922 -53.7071,-331.922 -53.2183,-331.922 -52.7298,-331.947 -52.2437,-331.998 -51.7576,-332.049 -51.2745,-332.126 -50.7963,-332.227 -50.3182,-332.329 -49.8457,-332.456 -49.3809,-332.607 -48.916,-332.758 -48.4593,-332.933 -48.0128,-333.132 -47.5662,-333.331 -47.1304,-333.553 -46.7071,-333.797 -46.2838,-334.042 -45.8736,-334.308 -45.4781,-334.595 -45.0827,-334.883 -44.7025,-335.19 -44.3393,-335.517 -43.976,-335.845 -43.6301,-336.19 -43.3031,-336.554 -42.976,-336.917 -42.6682,-337.297 -42.3809,-337.693 -42.0936,-338.088 -41.8271,-338.498 -41.5827,-338.922 -41.3383,-339.345 -41.1163,-339.781 -40.9175,-340.227 -40.7187,-340.674 -40.5434,-341.13 -40.3923,-341.595 -40.2413,-342.06 -40.1147,-342.533 -40.013,-343.011 -39.9114,-343.489 -39.8349,-343.972 -39.7838,-344.458 -39.7327,-344.944 -39.7071,-345.433 -39.7071,-345.922 -39.7071,-345.922 -53.7071,-345.922 -53.7071,-345.922"/>
<ellipse fill="none" stroke="black" cx="-53.7071" cy="-345.922" rx="14" ry="14"/>
</g>
<!-- 49&#45;&#45;46 -->
<g id="edge75" class="edge"><title>49&#45;&#45;46</title>
<path fill="none" stroke="black" d="M-65.2787,-337.94C-77.4963,-329.513 -96.5698,-316.356 -108.239,-308.307"/>
</g>
<!-- 51 -->
<g id="node52" class="node"><title>51</title>
<ellipse fill="#1874cd" stroke="black" cx="9.09392" cy="-376.911" rx="6" ry="6"/>
</g>
<!-- 49&#45;&#45;51 -->
<g id="edge76" class="edge"><title>49&#45;&#45;51</title>
<path fill="none" stroke="black" d="M-40.9984,-352.193C-27.3788,-358.914 -6.38281,-369.274 3.53797,-374.17"/>
</g>
<!-- anon_49_65_0 -->
<g id="node134" class="node"><title>anon_49_65_0</title>
<ellipse fill="white" stroke="black" cx="-103.436" cy="-386.648" rx="2.5" ry="2.5"/>
</g>
<!-- 49&#45;&#45;anon_49_65_0 -->
<g id="edge77" class="edge"><title>49&#45;&#45;anon_49_65_0</title>
<path fill="none" stroke="black" d="M-64.7436,-354.96C-76.8762,-364.896 -95.4494,-380.107 -101.475,-385.042"/>
</g>
<!-- 50 -->
<g id="node51" class="node"><title>50</title>
<ellipse fill="#1874cd" stroke="black" cx="413.497" cy="182.086" rx="9" ry="9"/>
</g>
<!-- anon_50_42_0 -->
<g id="node136" class="node"><title>anon_50_42_0</title>
<ellipse fill="white" stroke="black" cx="368.398" cy="166.1" rx="2.5" ry="2.5"/>
</g>
<!-- 50&#45;&#45;anon_50_42_0 -->
<g id="edge80" class="edge"><title>50&#45;&#45;anon_50_42_0</title>
<path fill="none" stroke="black" d="M404.801,179.004C394.358,175.302 377.442,169.306 371.001,167.023"/>
</g>
<!-- anon_50_44_0 -->
<g id="node138" class="node"><title>anon_50_44_0</title>
<ellipse fill="white" stroke="black" cx="459.581" cy="194.342" rx="2.5" ry="2.5"/>
</g>
<!-- 50&#45;&#45;anon_50_44_0 -->
<g id="edge83" class="edge"><title>50&#45;&#45;anon_50_44_0</title>
<path fill="none" stroke="black" d="M422.382,184.449C433.054,187.287 450.339,191.885 456.921,193.635"/>
</g>
<!-- anon_51_67_0 -->
<g id="node139" class="node"><title>anon_51_67_0</title>
<ellipse fill="white" stroke="black" cx="53.7776" cy="-395.175" rx="2.5" ry="2.5"/>
</g>
<!-- 51&#45;&#45;anon_51_67_0 -->
<g id="edge85" class="edge"><title>51&#45;&#45;anon_51_67_0</title>
<path fill="none" stroke="black" d="M14.9355,-379.299C24.7766,-383.321 44.2678,-391.288 51.231,-394.134"/>
</g>
<!-- 54 -->
<g id="node55" class="node"><title>54</title>
<ellipse fill="#1874cd" stroke="black" cx="167.114" cy="-87.8233" rx="3.5" ry="3.5"/>
</g>
<!-- anon_54_41_0 -->
<g id="node141" class="node"><title>anon_54_41_0</title>
<ellipse fill="white" stroke="black" cx="193.865" cy="-122.846" rx="2.5" ry="2.5"/>
</g>
<!-- 54&#45;&#45;anon_54_41_0 -->
<g id="edge88" class="edge"><title>54&#45;&#45;anon_54_41_0</title>
<path fill="none" stroke="black" d="M169.583,-91.0554C174.964,-98.0999 187.631,-114.684 192.192,-120.655"/>
</g>
<!-- 55 -->
<g id="node56" class="node"><title>55</title>
<ellipse fill="#1874cd" stroke="black" cx="-194.505" cy="124.658" rx="11.5" ry="11.5"/>
</g>
<!-- 84 -->
<g id="node85" class="node"><title>84</title>
<ellipse fill="#1874cd" stroke="black" cx="-146.456" cy="158.142" rx="3.5" ry="3.5"/>
</g>
<!-- 55&#45;&#45;84 -->
<g id="edge94" class="edge"><title>55&#45;&#45;84</title>
<path fill="none" stroke="black" d="M-184.782,131.434C-173.813,139.078 -156.591,151.079 -149.581,155.964"/>
</g>
<!-- 85 -->
<g id="node86" class="node"><title>85</title>
<ellipse fill="#1874cd" stroke="black" cx="-242.582" cy="91.107" rx="3.5" ry="3.5"/>
</g>
<!-- 55&#45;&#45;85 -->
<g id="edge95" class="edge"><title>55&#45;&#45;85</title>
<path fill="none" stroke="black" d="M-204.234,117.868C-215.209,110.209 -232.442,98.1837 -239.455,93.289"/>
</g>
<!-- anon_55_70_0 -->
<g id="node144" class="node"><title>anon_55_70_0</title>
<ellipse fill="white" stroke="black" cx="-163.229" cy="79.6178" rx="2.5" ry="2.5"/>
</g>
<!-- 55&#45;&#45;anon_55_70_0 -->
<g id="edge92" class="edge"><title>55&#45;&#45;anon_55_70_0</title>
<path fill="none" stroke="black" d="M-187.872,115.106C-180.413,104.364 -168.807,87.6499 -164.717,81.7598"/>
</g>
<!-- anon_55_92_0 -->
<g id="node145" class="node"><title>anon_55_92_0</title>
<ellipse fill="white" stroke="black" cx="-226.014" cy="169.534" rx="2.5" ry="2.5"/>
</g>
<!-- 55&#45;&#45;anon_55_92_0 -->
<g id="edge96" class="edge"><title>55&#45;&#45;anon_55_92_0</title>
<path fill="none" stroke="black" d="M-201.187,134.175C-208.702,144.878 -220.395,161.531 -224.516,167.4"/>
</g>
<!-- 56 -->
<g id="node57" class="node"><title>56</title>
<ellipse fill="#1874cd" stroke="black" cx="540.025" cy="-333.21" rx="3.5" ry="3.5"/>
</g>
<!-- anon_56_41_0 -->
<g id="node146" class="node"><title>anon_56_41_0</title>
<ellipse fill="white" stroke="black" cx="495.24" cy="-323.159" rx="2.5" ry="2.5"/>
</g>
<!-- 56&#45;&#45;anon_56_41_0 -->
<g id="edge98" class="edge"><title>56&#45;&#45;anon_56_41_0</title>
<path fill="none" stroke="black" d="M536.51,-332.421C527.767,-330.459 505.202,-325.394 497.703,-323.712"/>
</g>
<!-- 58 -->
<g id="node59" class="node"><title>58</title>
<ellipse fill="#1874cd" stroke="black" cx="510.036" cy="-108.266" rx="3.5" ry="3.5"/>
</g>
<!-- anon_58_47_0 -->
<g id="node148" class="node"><title>anon_58_47_0</title>
<ellipse fill="white" stroke="black" cx="479.218" cy="-139.722" rx="2.5" ry="2.5"/>
</g>
<!-- 58&#45;&#45;anon_58_47_0 -->
<g id="edge101" class="edge"><title>58&#45;&#45;anon_58_47_0</title>
<path fill="none" stroke="black" d="M507.192,-111.169C500.993,-117.496 486.401,-132.391 481.146,-137.754"/>
</g>
<!-- 59 -->
<g id="node60" class="node"><title>59</title>
<ellipse fill="#1874cd" stroke="black" cx="555.407" cy="201.853" rx="3.5" ry="3.5"/>
</g>
<!-- 59&#45;&#45;44 -->
<g id="edge104" class="edge"><title>59&#45;&#45;44</title>
<path fill="none" stroke="black" d="M551.906,201.808C544.495,201.712 527.005,201.485 516.09,201.343"/>
</g>
<!-- 61 -->
<g id="node62" class="node"><title>61</title>
<ellipse fill="#1874cd" stroke="black" cx="158.565" cy="-272.555" rx="3.5" ry="3.5"/>
</g>
<!-- anon_61_41_0 -->
<g id="node150" class="node"><title>anon_61_41_0</title>
<ellipse fill="white" stroke="black" cx="206.585" cy="-280.433" rx="2.5" ry="2.5"/>
</g>
<!-- 61&#45;&#45;anon_61_41_0 -->
<g id="edge105" class="edge"><title>61&#45;&#45;anon_61_41_0</title>
<path fill="none" stroke="black" d="M162.333,-273.173C171.708,-274.711 195.903,-278.68 203.943,-279.999"/>
</g>
<!-- anon_62_71_0 -->
<g id="node151" class="node"><title>anon_62_71_0</title>
<ellipse fill="white" stroke="black" cx="168.3" cy="-378.225" rx="2.5" ry="2.5"/>
</g>
<!-- 62&#45;&#45;anon_62_71_0 -->
<g id="edge107" class="edge"><title>62&#45;&#45;anon_62_71_0</title>
<path fill="none" stroke="black" d="M208.761,-357.544C200.482,-361.775 178.167,-373.181 170.741,-376.977"/>
</g>
<!-- 63 -->
<g id="node64" class="node"><title>63</title>
<ellipse fill="#1874cd" stroke="black" cx="366.144" cy="-513.868" rx="3.5" ry="3.5"/>
</g>
<!-- anon_63_41_0 -->
<g id="node152" class="node"><title>anon_63_41_0</title>
<ellipse fill="white" stroke="black" cx="357.093" cy="-468.984" rx="2.5" ry="2.5"/>
</g>
<!-- 63&#45;&#45;anon_63_41_0 -->
<g id="edge109" class="edge"><title>63&#45;&#45;anon_63_41_0</title>
<path fill="none" stroke="black" d="M365.434,-510.346C363.667,-501.583 359.106,-478.968 357.591,-471.453"/>
</g>
<!-- 65 -->
<g id="node66" class="node"><title>65</title>
<ellipse fill="#1874cd" stroke="black" cx="-164.198" cy="-451.507" rx="3.5" ry="3.5"/>
</g>
<!-- 66 -->
<g id="node67" class="node"><title>66</title>
<ellipse fill="#1874cd" stroke="black" cx="-301.447" cy="54.0619" rx="3.5" ry="3.5"/>
</g>
<!-- 94 -->
<g id="node95" class="node"><title>94</title>
<ellipse fill="#1874cd" stroke="black" cx="-261.322" cy="25.9485" rx="3.5" ry="3.5"/>
</g>
<!-- 66&#45;&#45;94 -->
<g id="edge112" class="edge"><title>66&#45;&#45;94</title>
<path fill="none" stroke="black" d="M-298.561,52.0401C-291.23,46.9033 -271.935,33.3849 -264.4,28.1049"/>
</g>
<!-- 67 -->
<g id="node68" class="node"><title>67</title>
<ellipse fill="#1874cd" stroke="black" cx="125.366" cy="-440.798" rx="3.5" ry="3.5"/>
</g>
<!-- 68 -->
<g id="node69" class="node"><title>68</title>
<ellipse fill="#1874cd" stroke="black" cx="353.888" cy="-243.122" rx="3.5" ry="3.5"/>
</g>
<!-- 68&#45;&#45;41 -->
<g id="edge113" class="edge"><title>68&#45;&#45;41</title>
<path fill="none" stroke="black" d="M352.147,-246.447C350.746,-249.122 348.606,-253.208 346.126,-257.944"/>
</g>
<!-- 69 -->
<g id="node70" class="node"><title>69</title>
<ellipse fill="#1874cd" stroke="black" cx="378.822" cy="-220.233" rx="3.5" ry="3.5"/>
</g>
<!-- 69&#45;&#45;41 -->
<g id="edge114" class="edge"><title>69&#45;&#45;41</title>
<path fill="none" stroke="black" d="M376.765,-223.222C372.359,-229.624 361.545,-245.338 350.904,-260.801"/>
</g>
<!-- 70 -->
<g id="node71" class="node"><title>70</title>
<ellipse fill="#1874cd" stroke="black" cx="-136.515" cy="45.3496" rx="3.5" ry="3.5"/>
</g>
<!-- 71 -->
<g id="node72" class="node"><title>71</title>
<ellipse fill="#1874cd" stroke="black" cx="129.282" cy="-402.39" rx="3.5" ry="3.5"/>
</g>
<!-- 72 -->
<g id="node73" class="node"><title>72</title>
<ellipse fill="#1874cd" stroke="black" cx="-102" cy="-108" rx="3.5" ry="3.5"/>
</g>
<!-- 73 -->
<g id="node74" class="node"><title>73</title>
<ellipse fill="#1874cd" stroke="black" cx="236.614" cy="-321.253" rx="3.5" ry="3.5"/>
</g>
<!-- 73&#45;&#45;41 -->
<g id="edge115" class="edge"><title>73&#45;&#45;41</title>
<path fill="none" stroke="black" d="M240.397,-320.294C247.507,-318.492 263.615,-314.408 279.864,-310.289"/>
</g>
<!-- 74 -->
<g id="node75" class="node"><title>74</title>
<ellipse fill="#1874cd" stroke="black" cx="-148.465" cy="-126.018" rx="3.5" ry="3.5"/>
</g>
<!-- 74&#45;&#45;3 -->
<g id="edge116" class="edge"><title>74&#45;&#45;3</title>
<path fill="none" stroke="black" d="M-150.222,-122.652C-153.661,-116.063 -161.593,-100.864 -169.003,-86.6664"/>
</g>
<!-- 75 -->
<g id="node76" class="node"><title>75</title>
<ellipse fill="#1874cd" stroke="black" cx="-151.711" cy="-88.8089" rx="3.5" ry="3.5"/>
</g>
<!-- 75&#45;&#45;3 -->
<g id="edge117" class="edge"><title>75&#45;&#45;3</title>
<path fill="none" stroke="black" d="M-154.314,-86.2526C-155.903,-84.6927 -158.107,-82.5278 -160.612,-80.0681"/>
</g>
<!-- 76 -->
<g id="node77" class="node"><title>76</title>
<ellipse fill="#1874cd" stroke="black" cx="241.898" cy="-445.213" rx="3.5" ry="3.5"/>
</g>
<!-- anon_76_41_0 -->
<g id="node154" class="node"><title>anon_76_41_0</title>
<ellipse fill="white" stroke="black" cx="263.524" cy="-400.973" rx="2.5" ry="2.5"/>
</g>
<!-- 76&#45;&#45;anon_76_41_0 -->
<g id="edge118" class="edge"><title>76&#45;&#45;anon_76_41_0</title>
<path fill="none" stroke="black" d="M243.453,-442.031C247.56,-433.631 258.629,-410.986 262.313,-403.451"/>
</g>
<!-- 77 -->
<g id="node78" class="node"><title>77</title>
<ellipse fill="#1874cd" stroke="black" cx="108" cy="123" rx="3.5" ry="3.5"/>
</g>
<!-- 79 -->
<g id="node80" class="node"><title>79</title>
<ellipse fill="#1874cd" stroke="black" cx="129" cy="39" rx="3.5" ry="3.5"/>
</g>
<!-- 82 -->
<g id="node83" class="node"><title>82</title>
<ellipse fill="#1874cd" stroke="black" cx="-123" cy="81" rx="3.5" ry="3.5"/>
</g>
<!-- 89 -->
<g id="node90" class="node"><title>89</title>
<ellipse fill="#1874cd" stroke="black" cx="-332.276" cy="-48.9834" rx="3.5" ry="3.5"/>
</g>
<!-- 91 -->
<g id="node92" class="node"><title>91</title>
<ellipse fill="#1874cd" stroke="black" cx="449.908" cy="-410.882" rx="3.5" ry="3.5"/>
</g>
<!-- 92 -->
<g id="node93" class="node"><title>92</title>
<ellipse fill="#1874cd" stroke="black" cx="-248.698" cy="206.592" rx="3.5" ry="3.5"/>
</g>
<!-- 93 -->
<g id="node94" class="node"><title>93</title>
<ellipse fill="#1874cd" stroke="black" cx="150" cy="-150" rx="3.5" ry="3.5"/>
</g>
<!-- 94&#45;&#45;3 -->
<g id="edge120" class="edge"><title>94&#45;&#45;3</title>
<path fill="none" stroke="black" d="M-258.779,23.2142C-251.008,14.859 -226.975,-10.9806 -208.405,-30.9465"/>
</g>
<!-- 95 -->
<g id="node96" class="node"><title>95</title>
<ellipse fill="#1874cd" stroke="black" cx="304.73" cy="-350.125" rx="3.5" ry="3.5"/>
</g>
<!-- 95&#45;&#45;41 -->
<g id="edge121" class="edge"><title>95&#45;&#45;41</title>
<path fill="none" stroke="black" d="M306.037,-346.766C306.557,-345.431 307.211,-343.753 307.96,-341.829"/>
</g>
<!-- 96 -->
<g id="node97" class="node"><title>96</title>
<ellipse fill="brown" stroke="black" cx="-67.5131" cy="31.1003" rx="3.5" ry="3.5"/>
</g>
<!-- 96&#45;&#45;6 -->
<g id="edge122" class="edge"><title>96&#45;&#45;6</title>
<path fill="none" stroke="black" d="M-64.7673,28.4795C-61.7125,25.5637 -56.4524,20.5429 -50.7632,15.1126"/>
</g>
<!-- 98 -->
<g id="node99" class="node"><title>98</title>
<ellipse fill="brown" stroke="black" cx="108" cy="-150" rx="3.5" ry="3.5"/>
</g>
<!-- 99 -->
<g id="node100" class="node"><title>99</title>
<ellipse fill="brown" stroke="black" cx="82.1903" cy="34.7225" rx="3.5" ry="3.5"/>
</g>
<!-- anon_99_6_0 -->
<g id="node155" class="node"><title>anon_99_6_0</title>
<ellipse fill="white" stroke="black" cx="32.3173" cy="22.0504" rx="2.5" ry="2.5"/>
</g>
<!-- 99&#45;&#45;anon_99_6_0 -->
<g id="edge123" class="edge"><title>99&#45;&#45;anon_99_6_0</title>
<path fill="none" stroke="black" d="M78.6035,33.8111C69.1336,31.4049 43.6056,24.9186 35.1101,22.76"/>
</g>
<!-- 100 -->
<g id="node101" class="node"><title>100</title>
<ellipse fill="brown" stroke="black" cx="17.5752" cy="-91.8709" rx="8" ry="8"/>
</g>
<!-- 100&#45;&#45;6 -->
<g id="edge125" class="edge"><title>100&#45;&#45;6</title>
<path fill="none" stroke="black" d="M13.7379,-84.5028C8.52933,-74.5016 -1.09741,-56.017 -9.53141,-39.8225"/>
</g>
<!-- 102 -->
<g id="node103" class="node"><title>102</title>
<ellipse fill="brown" stroke="black" cx="68.1132" cy="-122.554" rx="3.5" ry="3.5"/>
</g>
<!-- 100&#45;&#45;102 -->
<g id="edge126" class="edge"><title>100&#45;&#45;102</title>
<path fill="none" stroke="black" d="M24.6023,-96.1373C35.6681,-102.856 56.7276,-115.641 64.8265,-120.559"/>
</g>
<!-- 105 -->
<g id="node106" class="node"><title>105</title>
<ellipse fill="brown" stroke="black" cx="14.9752" cy="-152.904" rx="3.5" ry="3.5"/>
</g>
<!-- 100&#45;&#45;105 -->
<g id="edge127" class="edge"><title>100&#45;&#45;105</title>
<path fill="none" stroke="black" d="M17.2246,-100.102C16.6535,-113.508 15.545,-139.529 15.1338,-149.183"/>
</g>
<!-- 101 -->
<g id="node102" class="node"><title>101</title>
<ellipse fill="brown" stroke="black" cx="-38.5629" cy="38.0448" rx="3.5" ry="3.5"/>
</g>
<!-- 101&#45;&#45;6 -->
<g id="edge128" class="edge"><title>101&#45;&#45;6</title>
<path fill="none" stroke="black" d="M-37.5508,34.3656C-36.8857,31.9476 -35.9428,28.5199 -34.8756,24.6399"/>
</g>
<!-- 103 -->
<g id="node104" class="node"><title>103</title>
<ellipse fill="brown" stroke="black" cx="-102" cy="-150" rx="3.5" ry="3.5"/>
</g>
<!-- 104 -->
<g id="node105" class="node"><title>104</title>
<ellipse fill="brown" stroke="black" cx="150" cy="165" rx="3.5" ry="3.5"/>
</g>
<!-- 106 -->
<g id="node107" class="node"><title>106</title>
<ellipse fill="brown" stroke="black" cx="171" cy="81" rx="3.5" ry="3.5"/>
</g>
<!-- 107 -->
<g id="node108" class="node"><title>107</title>
<ellipse fill="brown" stroke="black" cx="171" cy="39" rx="3.5" ry="3.5"/>
</g>
<!-- 108 -->
<g id="node109" class="node"><title>108</title>
<ellipse fill="brown" stroke="black" cx="192" cy="123" rx="3.5" ry="3.5"/>
</g>
<!-- 109 -->
<g id="node110" class="node"><title>109</title>
<ellipse fill="brown" stroke="black" cx="-51.532" cy="-37.1339" rx="3.5" ry="3.5"/>
</g>
<!-- 109&#45;&#45;6 -->
<g id="edge129" class="edge"><title>109&#45;&#45;6</title>
<path fill="none" stroke="black" d="M-49.1449,-34.5231C-49.0448,-34.4137 -48.9422,-34.3014 -48.837,-34.1864"/>
</g>
<!-- 110 -->
<g id="node111" class="node"><title>110</title>
<ellipse fill="olivedrab" stroke="black" cx="264.543" cy="-239.31" rx="3.5" ry="3.5"/>
</g>
<!-- 110&#45;&#45;41 -->
<g id="edge130" class="edge"><title>110&#45;&#45;41</title>
<path fill="none" stroke="black" d="M267.126,-241.872C271.666,-246.375 281.58,-256.206 291.92,-266.461"/>
</g>
<!-- 111 -->
<g id="node112" class="node"><title>111</title>
<ellipse fill="olivedrab" stroke="black" cx="-49.7699" cy="-400.114" rx="3.5" ry="3.5"/>
</g>
<!-- 111&#45;&#45;49 -->
<g id="edge131" class="edge"><title>111&#45;&#45;49</title>
<path fill="none" stroke="black" d="M-50.0282,-396.558C-50.5552,-389.305 -51.7794,-372.454 -52.6714,-360.178"/>
</g>
<!-- 112 -->
<g id="node113" class="node"><title>112</title>
<ellipse fill="olivedrab" stroke="black" cx="416.163" cy="-260.932" rx="3.5" ry="3.5"/>
</g>
<!-- 112&#45;&#45;41 -->
<g id="edge132" class="edge"><title>112&#45;&#45;41</title>
<path fill="none" stroke="black" d="M412.688,-262.375C405.049,-265.548 386.006,-273.457 367.578,-281.11"/>
</g>
<!-- 113 -->
<g id="node114" class="node"><title>113</title>
<ellipse fill="olivedrab" stroke="black" cx="-71.4413" cy="-296.986" rx="3.5" ry="3.5"/>
</g>
<!-- 113&#45;&#45;49 -->
<g id="edge133" class="edge"><title>113&#45;&#45;49</title>
<path fill="none" stroke="black" d="M-70.1659,-300.505C-67.7833,-307.08 -62.5421,-321.542 -58.6103,-332.392"/>
</g>
<!-- 114 -->
<g id="node115" class="node"><title>114</title>
<ellipse fill="olivedrab" stroke="black" cx="-4.33125" cy="-314.16" rx="3.5" ry="3.5"/>
</g>
<!-- 114&#45;&#45;49 -->
<g id="edge134" class="edge"><title>114&#45;&#45;49</title>
<path fill="none" stroke="black" d="M-7.57094,-316.244C-14.3506,-320.605 -30.3358,-330.888 -41.581,-338.121"/>
</g>
<!-- 115 -->
<g id="node116" class="node"><title>115</title>
<ellipse fill="olivedrab" stroke="black" cx="-151.586" cy="-255.646" rx="3.5" ry="3.5"/>
</g>
<!-- 115&#45;&#45;46 -->
<g id="edge135" class="edge"><title>115&#45;&#45;46</title>
<path fill="none" stroke="black" d="M-149.411,-258.64C-144.686,-265.144 -133.301,-280.812 -125.729,-291.234"/>
</g>
<!-- 116 -->
<g id="node117" class="node"><title>116</title>
<ellipse fill="olivedrab" stroke="black" cx="-30.9063" cy="-283.995" rx="3.5" ry="3.5"/>
</g>
<!-- 116&#45;&#45;49 -->
<g id="edge136" class="edge"><title>116&#45;&#45;49</title>
<path fill="none" stroke="black" d="M-32.1322,-287.325C-35.2217,-295.716 -43.4616,-318.095 -48.8175,-332.642"/>
</g>
<!-- 117 -->
<g id="node118" class="node"><title>117</title>
<ellipse fill="#98f5ff" stroke="black" cx="103.325" cy="177.816" rx="3.5" ry="3.5"/>
</g>
<!-- 117&#45;&#45;4 -->
<g id="edge137" class="edge"><title>117&#45;&#45;4</title>
<path fill="none" stroke="black" d="M100.474,175.689C92.869,170.015 71.4838,154.058 53.9457,140.972"/>
</g>
<!-- 118 -->
<g id="node119" class="node"><title>118</title>
<ellipse fill="#98f5ff" stroke="black" cx="-264.143" cy="-16.2787" rx="3.5" ry="3.5"/>
</g>
<!-- 118&#45;&#45;3 -->
<g id="edge138" class="edge"><title>118&#45;&#45;3</title>
<path fill="none" stroke="black" d="M-260.738,-17.9954C-252.916,-21.9385 -232.994,-31.9812 -215.53,-40.7849"/>
</g>
<!-- 120 -->
<g id="node121" class="node"><title>120</title>
<ellipse fill="black" stroke="black" cx="97.871" cy="-191.72" rx="3.5" ry="3.5"/>
</g>
<!-- 120&#45;&#45;0 -->
<g id="edge139" class="edge"><title>120&#45;&#45;0</title>
<path fill="none" stroke="black" d="M94.6392,-189.498C87.058,-184.287 67.6051,-170.914 52.1611,-160.297"/>
</g>
<!-- anon_3_89_0&#45;&#45;89 -->
<g id="edge10" class="edge"><title>anon_3_89_0&#45;&#45;89</title>
<path fill="none" stroke="black" d="M-287.634,-50.2357C-295.519,-50.0145 -319.621,-49.3384 -328.735,-49.0827"/>
</g>
<!-- anon_23_15_1 -->
<g id="node125" class="node"><title>anon_23_15_1</title>
<ellipse fill="white" stroke="black" cx="216.133" cy="-72.9061" rx="2.5" ry="2.5"/>
</g>
<!-- anon_23_15_0&#45;&#45;anon_23_15_1 -->
<g id="edge36" class="edge"><title>anon_23_15_0&#45;&#45;anon_23_15_1</title>
<path fill="none" stroke="black" d="M254.213,-91.9348C246.705,-88.1829 225.518,-77.5954 218.456,-74.0668"/>
</g>
<!-- anon_23_15_1&#45;&#45;15 -->
<g id="edge37" class="edge"><title>anon_23_15_1&#45;&#45;15</title>
<path fill="none" stroke="black" d="M213.864,-70.8001C207.547,-64.9368 189.385,-48.0796 176.652,-36.2613"/>
</g>
<!-- anon_27_6_1 -->
<g id="node127" class="node"><title>anon_27_6_1</title>
<ellipse fill="white" stroke="black" cx="45.6218" cy="-50.2332" rx="2.5" ry="2.5"/>
</g>
<!-- anon_27_6_0&#45;&#45;anon_27_6_1 -->
<g id="edge39" class="edge"><title>anon_27_6_0&#45;&#45;anon_27_6_1</title>
<path fill="none" stroke="black" d="M87.6256,-73.6794C79.846,-69.3368 55.2914,-55.6307 47.808,-51.4535"/>
</g>
<!-- anon_27_6_1&#45;&#45;6 -->
<g id="edge40" class="edge"><title>anon_27_6_1&#45;&#45;6</title>
<path fill="none" stroke="black" d="M43.2499,-48.8561C37.1136,-45.2933 20.105,-35.418 4.52167,-26.3702"/>
</g>
<!-- anon_31_20_1 -->
<g id="node129" class="node"><title>anon_31_20_1</title>
<ellipse fill="white" stroke="black" cx="-124.475" cy="202.597" rx="2.5" ry="2.5"/>
</g>
<!-- anon_31_20_0&#45;&#45;anon_31_20_1 -->
<g id="edge44" class="edge"><title>anon_31_20_0&#45;&#45;anon_31_20_1</title>
<path fill="none" stroke="black" d="M-105.917,158.752C-109.29,166.723 -119.804,191.561 -123.318,199.863"/>
</g>
<!-- anon_31_20_1&#45;&#45;20 -->
<g id="edge45" class="edge"><title>anon_31_20_1&#45;&#45;20</title>
<path fill="none" stroke="black" d="M-125.233,205.059C-127.59,212.713 -134.794,236.106 -137.519,244.952"/>
</g>
<!-- anon_35_3_0&#45;&#45;3 -->
<g id="edge50" class="edge"><title>anon_35_3_0&#45;&#45;3</title>
<path fill="none" stroke="black" d="M-188.45,-165.506C-188.115,-155.228 -186.915,-118.418 -186,-90.3337"/>
</g>
<!-- anon_37_2_0&#45;&#45;2 -->
<g id="edge53" class="edge"><title>anon_37_2_0&#45;&#45;2</title>
<path fill="none" stroke="black" d="M109.803,93.5883C102.646,88.7809 81.2319,74.3966 67.6517,65.2746"/>
</g>
<!-- anon_40_3_0&#45;&#45;3 -->
<g id="edge55" class="edge"><title>anon_40_3_0&#45;&#45;3</title>
<path fill="none" stroke="black" d="M-249.849,-132.714C-243.96,-125.779 -223.414,-101.59 -206.986,-82.2493"/>
</g>
<!-- anon_41_91_0&#45;&#45;91 -->
<g id="edge72" class="edge"><title>anon_41_91_0&#45;&#45;91</title>
<path fill="none" stroke="black" d="M417.305,-377.739C423.008,-383.536 440.325,-401.14 447.125,-408.053"/>
</g>
<!-- anon_49_65_1 -->
<g id="node135" class="node"><title>anon_49_65_1</title>
<ellipse fill="white" stroke="black" cx="-134.379" cy="-419.148" rx="2.5" ry="2.5"/>
</g>
<!-- anon_49_65_0&#45;&#45;anon_49_65_1 -->
<g id="edge78" class="edge"><title>anon_49_65_0&#45;&#45;anon_49_65_1</title>
<path fill="none" stroke="black" d="M-105.467,-388.78C-111.167,-394.768 -127.254,-411.664 -132.615,-417.296"/>
</g>
<!-- anon_49_65_1&#45;&#45;65 -->
<g id="edge79" class="edge"><title>anon_49_65_1&#45;&#45;65</title>
<path fill="none" stroke="black" d="M-136.335,-421.271C-141.518,-426.895 -155.609,-442.186 -161.526,-448.607"/>
</g>
<!-- anon_50_42_1 -->
<g id="node137" class="node"><title>anon_50_42_1</title>
<ellipse fill="white" stroke="black" cx="329.646" cy="150.801" rx="2.5" ry="2.5"/>
</g>
<!-- anon_50_42_0&#45;&#45;anon_50_42_1 -->
<g id="edge81" class="edge"><title>anon_50_42_0&#45;&#45;anon_50_42_1</title>
<path fill="none" stroke="black" d="M365.855,165.096C358.851,162.331 339.325,154.622 332.249,151.828"/>
</g>
<!-- anon_50_42_1&#45;&#45;42 -->
<g id="edge82" class="edge"><title>anon_50_42_1&#45;&#45;42</title>
<path fill="none" stroke="black" d="M327.069,149.884C320.746,147.634 303.976,141.666 290.186,136.758"/>
</g>
<!-- anon_50_44_0&#45;&#45;44 -->
<g id="edge84" class="edge"><title>anon_50_44_0&#45;&#45;44</title>
<path fill="none" stroke="black" d="M462.116,194.712C468.696,195.672 486.573,198.281 497.597,199.889"/>
</g>
<!-- anon_51_67_1 -->
<g id="node140" class="node"><title>anon_51_67_1</title>
<ellipse fill="white" stroke="black" cx="91.9506" cy="-413.714" rx="2.5" ry="2.5"/>
</g>
<!-- anon_51_67_0&#45;&#45;anon_51_67_1 -->
<g id="edge86" class="edge"><title>anon_51_67_0&#45;&#45;anon_51_67_1</title>
<path fill="none" stroke="black" d="M56.2822,-396.391C63.1824,-399.742 82.4165,-409.083 89.3867,-412.468"/>
</g>
<!-- anon_51_67_1&#45;&#45;67 -->
<g id="edge87" class="edge"><title>anon_51_67_1&#45;&#45;67</title>
<path fill="none" stroke="black" d="M94.143,-415.491C99.9509,-420.198 115.741,-432.997 122.371,-438.371"/>
</g>
<!-- anon_54_41_1 -->
<g id="node142" class="node"><title>anon_54_41_1</title>
<ellipse fill="white" stroke="black" cx="219.157" cy="-159.239" rx="2.5" ry="2.5"/>
</g>
<!-- anon_54_41_0&#45;&#45;anon_54_41_1 -->
<g id="edge89" class="edge"><title>anon_54_41_0&#45;&#45;anon_54_41_1</title>
<path fill="none" stroke="black" d="M195.525,-125.234C200.184,-131.939 213.333,-150.859 217.715,-157.165"/>
</g>
<!-- anon_54_41_2 -->
<g id="node143" class="node"><title>anon_54_41_2</title>
<ellipse fill="white" stroke="black" cx="245.854" cy="-197.687" rx="2.5" ry="2.5"/>
</g>
<!-- anon_54_41_1&#45;&#45;anon_54_41_2 -->
<g id="edge90" class="edge"><title>anon_54_41_1&#45;&#45;anon_54_41_2</title>
<path fill="none" stroke="black" d="M220.592,-161.306C225.185,-167.92 239.495,-188.529 244.279,-195.419"/>
</g>
<!-- anon_54_41_2&#45;&#45;41 -->
<g id="edge91" class="edge"><title>anon_54_41_2&#45;&#45;41</title>
<path fill="none" stroke="black" d="M247.5,-199.802C253.8,-207.895 276.995,-237.694 296.324,-262.526"/>
</g>
<!-- anon_55_70_0&#45;&#45;70 -->
<g id="edge93" class="edge"><title>anon_55_70_0&#45;&#45;70</title>
<path fill="none" stroke="black" d="M-161.476,77.3693C-156.833,71.4133 -144.21,55.2203 -138.91,48.4209"/>
</g>
<!-- anon_55_92_0&#45;&#45;92 -->
<g id="edge97" class="edge"><title>anon_55_92_0&#45;&#45;92</title>
<path fill="none" stroke="black" d="M-227.503,171.965C-231.445,178.406 -242.164,195.918 -246.665,203.27"/>
</g>
<!-- anon_56_41_1 -->
<g id="node147" class="node"><title>anon_56_41_1</title>
<ellipse fill="white" stroke="black" cx="448.743" cy="-315.399" rx="2.5" ry="2.5"/>
</g>
<!-- anon_56_41_0&#45;&#45;anon_56_41_1 -->
<g id="edge99" class="edge"><title>anon_56_41_0&#45;&#45;anon_56_41_1</title>
<path fill="none" stroke="black" d="M492.74,-322.742C484.742,-321.407 459.818,-317.248 451.487,-315.857"/>
</g>
<!-- anon_56_41_1&#45;&#45;41 -->
<g id="edge100" class="edge"><title>anon_56_41_1&#45;&#45;41</title>
<path fill="none" stroke="black" d="M446.152,-315.056C436.372,-313.758 400.733,-309.028 370.565,-305.025"/>
</g>
<!-- anon_58_47_1 -->
<g id="node149" class="node"><title>anon_58_47_1</title>
<ellipse fill="white" stroke="black" cx="449.343" cy="-172.277" rx="2.5" ry="2.5"/>
</g>
<!-- anon_58_47_0&#45;&#45;anon_58_47_1 -->
<g id="edge102" class="edge"><title>anon_58_47_0&#45;&#45;anon_58_47_1</title>
<path fill="none" stroke="black" d="M477.258,-141.858C471.754,-147.855 456.223,-164.781 451.046,-170.421"/>
</g>
<!-- anon_58_47_1&#45;&#45;47 -->
<g id="edge103" class="edge"><title>anon_58_47_1&#45;&#45;47</title>
<path fill="none" stroke="black" d="M447.665,-174.233C442.497,-180.254 426.807,-198.536 420.646,-205.715"/>
</g>
<!-- anon_61_41_0&#45;&#45;41 -->
<g id="edge106" class="edge"><title>anon_61_41_0&#45;&#45;41</title>
<path fill="none" stroke="black" d="M209.504,-280.89C219.199,-282.409 251.295,-287.438 279.147,-291.802"/>
</g>
<!-- anon_62_71_0&#45;&#45;71 -->
<g id="edge108" class="edge"><title>anon_62_71_0&#45;&#45;71</title>
<path fill="none" stroke="black" d="M165.74,-379.81C158.823,-384.094 139.779,-395.889 132.328,-400.504"/>
</g>
<!-- anon_63_41_1 -->
<g id="node153" class="node"><title>anon_63_41_1</title>
<ellipse fill="white" stroke="black" cx="349.231" cy="-422.224" rx="2.5" ry="2.5"/>
</g>
<!-- anon_63_41_0&#45;&#45;anon_63_41_1 -->
<g id="edge110" class="edge"><title>anon_63_41_0&#45;&#45;anon_63_41_1</title>
<path fill="none" stroke="black" d="M356.67,-466.47C355.318,-458.427 351.103,-433.362 349.694,-424.983"/>
</g>
<!-- anon_63_41_1&#45;&#45;41 -->
<g id="edge111" class="edge"><title>anon_63_41_1&#45;&#45;41</title>
<path fill="none" stroke="black" d="M348.717,-419.649C346.774,-409.897 339.674,-374.267 333.687,-344.224"/>
</g>
<!-- anon_76_41_0&#45;&#45;41 -->
<g id="edge119" class="edge"><title>anon_76_41_0&#45;&#45;41</title>
<path fill="none" stroke="black" d="M265.035,-398.451C270.037,-390.103 286.552,-362.538 300.937,-338.531"/>
</g>
<!-- anon_99_6_0&#45;&#45;6 -->
<g id="edge124" class="edge"><title>anon_99_6_0&#45;&#45;6</title>
<path fill="none" stroke="black" d="M29.8259,20.7229C25.3172,18.3206 15.3137,12.9906 5.0239,7.50809"/>
</g>
</g>
</svg>
