<?xml version="1.0" encoding="UTF-8" standalone="no"?>
<!DOCTYPE svg PUBLIC "-//W3C//DTD SVG 1.1//EN"
 "http://www.w3.org/Graphics/SVG/1.1/DTD/svg11.dtd">
<!-- Generated by graphviz version 2.38.0 (20140413.2041)
 -->
<!-- Title: %3 Pages: 1 -->
<svg width="199pt" height="191pt"
 viewBox="0.00 0.00 199.09 191.36" xmlns="http://www.w3.org/2000/svg" xmlns:xlink="http://www.w3.org/1999/xlink">
<g id="graph0" class="graph" transform="scale(1 1) rotate(0) translate(73.7416 130.826)">
<title>%3</title>
<polygon fill="white" stroke="none" points="-73.7416,60.5367 -73.7416,-130.826 125.35,-130.826 125.35,60.5367 -73.7416,60.5367"/>
<!-- 0 -->
<g id="node1" class="node"><title>0</title>
<path fill="#1874cd" stroke="black" stroke-width="0.5" d="M6.05903,-51.2598C6.05903,-51.2598 32.559,-51.2598 32.559,-51.2598 32.559,-52.2692 32.5014,-53.2778 32.3863,-54.2806 32.2712,-55.2834 32.099,-56.2788 31.8703,-57.262 31.6417,-58.2452 31.3571,-59.2144 31.0179,-60.1651 30.6787,-61.1158 30.2855,-62.0464 29.8401,-62.9522 29.3947,-63.858 28.898,-64.7377 28.3522,-65.5868 27.8065,-66.436 27.2127,-67.2532 26.5738,-68.0347 25.9348,-68.8161 25.2517,-69.5603 24.5279,-70.2638 23.804,-70.9673 23.0405,-71.6289 22.2412,-72.2452 22.2412,-72.2452 6.05903,-51.2598 6.05903,-51.2598"/>
<path fill="olivedrab" stroke="black" stroke-width="0.5" d="M6.05903,-51.2598C6.05903,-51.2598 22.2412,-72.2452 22.2412,-72.2452 21.6543,-72.6978 21.0486,-73.1256 20.4258,-73.5274 19.803,-73.9293 19.1636,-74.3048 18.5093,-74.653 17.855,-75.0012 17.1864,-75.3218 16.5053,-75.614 15.8241,-75.9062 15.131,-76.1697 14.4277,-76.4037 13.7245,-76.6378 13.0117,-76.8422 12.2913,-77.0165 11.5709,-77.1909 10.8435,-77.3349 10.1111,-77.4482 9.37861,-77.5615 8.64172,-77.6441 7.90233,-77.6956 7.16295,-77.7472 6.42173,-77.7677 5.68062,-77.7571 4.93952,-77.7465 4.19919,-77.7049 3.46158,-77.6322 2.72397,-77.5596 1.98973,-77.456 1.2608,-77.3218 0.531871,-77.1876 -0.191107,-77.0229 -0.906226,-76.8281 -1.62134,-76.6333 -2.32798,-76.4085 -3.02426,-76.1545 -3.72054,-75.9004 -4.40585,-75.6173 -5.07839,-75.3058 -5.75093,-74.9943 -6.41011,-74.6547 -7.05419,-74.2879 -7.69826,-73.9212 -8.32666,-73.5275 -8.93774,-73.1081 -9.54881,-72.6887 -10.142,-72.2438 -10.7158,-71.7746 -11.2896,-71.3054 -11.8434,-70.8124 -12.3759,-70.2968 -12.9083,-69.7812 -13.4189,-69.2434 -13.9063,-68.685 -14.3936,-68.1266 -14.8573,-67.548 -15.2962,-66.9507 -15.7351,-66.3534 -16.1487,-65.738 -16.5359,-65.106 -16.9232,-64.4741 -17.2838,-63.8262 -17.6167,-63.164 -17.9497,-62.5018 -18.2547,-61.8259 -18.531,-61.1382 -18.8073,-60.4504 -19.0546,-59.7513 -19.2723,-59.0429 -19.4899,-58.3344 -19.6778,-57.6171 -19.8354,-56.8928 -19.9929,-56.1686 -20.12,-55.438 -20.2163,-54.7031 -20.3126,-53.9682 -20.3781,-53.2296 -20.4124,-52.4893 -20.4468,-51.7489 -20.4501,-51.0074 -20.4224,-50.2667 -20.3946,-49.5261 -20.3357,-48.7869 -20.246,-48.0512 -20.1563,-47.3154 -20.0357,-46.5838 -19.8846,-45.8582 -19.7335,-45.1326 -19.5521,-44.4136 -19.3407,-43.7032 -19.1294,-42.9928 -18.8883,-42.2916 -18.6182,-41.6014 -18.348,-40.9112 -18.0491,-40.2326 -17.722,-39.5675 -17.395,-38.9023 -17.0402,-38.2512 -16.6586,-37.6158 -16.277,-36.9804 -15.8689,-36.3613 -15.4354,-35.7602 -15.0019,-35.159 -14.5433,-34.5763 -14.061,-34.0135 -13.5786,-33.4508 -13.0729,-32.9085 -12.545,-32.3882 -12.0172,-31.8678 -11.4678,-31.3699 -10.8982,-30.8956 -10.3287,-30.4213 -9.73944,-29.9712 -9.13213,-29.5463 -8.52483,-29.1214 -7.89996,-28.7222 -7.25919,-28.3497 -6.61841,-27.9772 -5.96229,-27.6317 -5.29256,-27.3142 -4.62282,-26.9967 -3.94006,-26.7075 -3.24608,-26.4472 -2.55209,-26.187 -1.84749,-25.956 -1.13414,-25.7548 -0.42079,-25.5536 0.300688,-25.3824 1.02839,-25.2417 1.75609,-25.101 2.48938,-24.9909 3.22631,-24.9117 3.96324,-24.8324 4.70317,-24.7842 5.44415,-24.767 6.18513,-24.7498 6.92651,-24.7637 7.66632,-24.8086 8.40614,-24.8536 9.14374,-24.9295 9.87719,-25.0363 10.6106,-25.1431 11.3393,-25.2806 12.0612,-25.4485 12.7831,-25.6164 13.4977,-25.8145 14.203,-26.0423 14.9083,-26.27 15.6037,-26.5273 16.2875,-26.8134 16.9712,-27.0995 17.6427,-27.4141 18.3,-27.7565 18.9574,-28.0988 19.6001,-28.4686 20.2265,-28.8649 20.8528,-29.2611 21.4623,-29.6835 22.0533,-30.1308 22.6442,-30.5782 23.2161,-31.0501 23.7675,-31.5454 24.3189,-32.0407 24.8493,-32.5589 25.3573,-33.0987 25.8652,-33.6384 26.3503,-34.1992 26.8112,-34.7796 27.2722,-35.3601 27.7085,-35.9596 28.1192,-36.5766 28.5299,-37.1936 28.9145,-37.8275 29.272,-38.4768 29.6296,-39.126 29.9597,-39.79 30.2616,-40.4669 30.5634,-41.1438 30.8368,-41.8331 31.0809,-42.533 31.3249,-43.2328 31.5395,-43.9426 31.7241,-44.6604 31.9087,-45.3782 32.0631,-46.1035 32.1869,-46.8342 32.3107,-47.565 32.4037,-48.3007 32.4658,-49.0392 32.5279,-49.7778 32.559,-50.5186 32.559,-51.2598 32.559,-51.2598 6.05903,-51.2598 6.05903,-51.2598"/>
<ellipse fill="none" stroke="black" cx="6.05903" cy="-51.2598" rx="26.5" ry="26.5"/>
</g>
<!-- 2 -->
<g id="node3" class="node"><title>2</title>
<ellipse fill="olivedrab" stroke="black" cx="64.0766" cy="8.68375" rx="9" ry="9"/>
</g>
<!-- 0&#45;&gt;2 -->
<g id="edge1" class="edge"><title>0&#45;&gt;2</title>
<path fill="none" stroke="black" d="M24.7355,-31.9633C35.9983,-20.3267 49.6513,-6.22046 57.5533,1.94393"/>
</g>
<!-- 4 -->
<g id="node5" class="node"><title>4</title>
<ellipse fill="olivedrab" stroke="black" cx="94.8012" cy="-55.954" rx="11" ry="11"/>
</g>
<!-- 0&#45;&gt;4 -->
<g id="edge2" class="edge"><title>0&#45;&gt;4</title>
<path fill="none" stroke="black" d="M32.6846,-52.6682C49.6345,-53.5648 70.7208,-54.6802 83.4521,-55.3537"/>
</g>
<!-- 5 -->
<g id="node6" class="node"><title>5</title>
<ellipse fill="olivedrab" stroke="black" cx="-66.2416" cy="-17.8969" rx="3.5" ry="3.5"/>
</g>
<!-- 0&#45;&gt;5 -->
<g id="edge3" class="edge"><title>0&#45;&gt;5</title>
<path fill="none" stroke="black" d="M-18.016,-40.1505C-34.4475,-32.5682 -54.6393,-23.2507 -62.687,-19.5371"/>
</g>
<!-- 6 -->
<g id="node7" class="node"><title>6</title>
<ellipse fill="olivedrab" stroke="black" cx="0.304442" cy="26.0725" rx="3.5" ry="3.5"/>
</g>
<!-- 0&#45;&gt;6 -->
<g id="edge4" class="edge"><title>0&#45;&gt;6</title>
<path fill="none" stroke="black" d="M4.07863,-24.6464C2.77816,-7.1703 1.20609,13.9557 0.580543,22.3621"/>
</g>
<!-- 7 -->
<g id="node8" class="node"><title>7</title>
<ellipse fill="olivedrab" stroke="black" cx="43.4287" cy="-119.976" rx="3.5" ry="3.5"/>
</g>
<!-- 0&#45;&gt;7 -->
<g id="edge5" class="edge"><title>0&#45;&gt;7</title>
<path fill="none" stroke="black" d="M18.9195,-74.9079C27.3646,-90.4368 37.5734,-109.209 41.6357,-116.679"/>
</g>
<!-- 8 -->
<g id="node9" class="node"><title>8</title>
<ellipse fill="olivedrab" stroke="black" cx="-17.5826" cy="-123.326" rx="3.5" ry="3.5"/>
</g>
<!-- 0&#45;&gt;8 -->
<g id="edge6" class="edge"><title>0&#45;&gt;8</title>
<path fill="none" stroke="black" d="M-2.20965,-76.4649C-7.53587,-92.7006 -13.9228,-112.17 -16.4622,-119.91"/>
</g>
<!-- 9 -->
<g id="node10" class="node"><title>9</title>
<ellipse fill="olivedrab" stroke="black" cx="-64.2633" cy="-79.8701" rx="3.5" ry="3.5"/>
</g>
<!-- 0&#45;&gt;9 -->
<g id="edge7" class="edge"><title>0&#45;&gt;9</title>
<path fill="none" stroke="black" d="M-18.5363,-61.2663C-31.6562,-66.6041 -46.9398,-72.8221 -56.0957,-76.5472"/>
<polygon fill="black" stroke="black" points="-56.9587,-75.0089 -60.9306,-78.5142 -55.6397,-78.2509 -56.9587,-75.0089"/>
<text text-anchor="middle" x="-50.816" y="-62.5068" font-family="monospace" font-size="8.00">K251R</text>
</g>
<!-- 1 -->
<g id="node2" class="node"><title>1</title>
<ellipse fill="olivedrab" stroke="black" cx="38.0636" cy="53.0367" rx="3.5" ry="3.5"/>
</g>
<!-- 1&#45;&gt;2 -->
<g id="edge8" class="edge"><title>1&#45;&gt;2</title>
<path fill="none" stroke="black" d="M39.9344,49.8469C43.9884,42.9347 53.6846,26.4024 59.4803,16.5206"/>
</g>
<!-- 1&#45;&gt;6 -->
<g id="edge10" class="edge"><title>1&#45;&gt;6</title>
<path fill="none" stroke="black" stroke-dasharray="5,2" d="M35.1007,50.9209C28.1465,45.9548 10.8203,33.5819 3.57284,28.4065"/>
</g>
<!-- 3 -->
<g id="node4" class="node"><title>3</title>
<ellipse fill="olivedrab" stroke="black" cx="116.35" cy="-4.34052" rx="5" ry="5"/>
</g>
<!-- 2&#45;&gt;3 -->
<g id="edge9" class="edge"><title>2&#45;&gt;3</title>
<path fill="none" stroke="black" d="M73.1819,6.41509C84.2974,3.64559 102.692,-0.937575 111.438,-3.11669"/>
</g>
<!-- 3&#45;&gt;4 -->
<g id="edge11" class="edge"><title>3&#45;&gt;4</title>
<path fill="none" stroke="black" stroke-dasharray="5,2" d="M114.361,-9.10367C110.902,-17.389 103.705,-34.6285 99.0714,-45.726"/>
</g>
</g>
</svg>
