<?xml version="1.0" encoding="UTF-8" standalone="no"?>
<!DOCTYPE svg PUBLIC "-//W3C//DTD SVG 1.1//EN"
 "http://www.w3.org/Graphics/SVG/1.1/DTD/svg11.dtd">
<!-- Generated by graphviz version 2.38.0 (20140413.2041)
 -->
<!-- Title: %3 Pages: 1 -->
<svg width="726pt" height="987pt"
 viewBox="0.00 0.00 725.54 987.09" xmlns="http://www.w3.org/2000/svg" xmlns:xlink="http://www.w3.org/1999/xlink">
<g id="graph0" class="graph" transform="scale(1 1) rotate(0) translate(235.09 730.976)">
<title>%3</title>
<polygon fill="white" stroke="none" points="-235.09,256.111 -235.09,-730.976 490.446,-730.976 490.446,256.111 -235.09,256.111"/>
<!-- 0 -->
<g id="node1" class="node"><title>0</title>
<path fill="#98f5ff" stroke="black" stroke-width="0.5" d="M-81.3933,-181.437C-81.3933,-181.437 -63.3933,-181.437 -63.3933,-181.437 -63.3933,-182.475 -63.483,-183.51 -63.6613,-184.532 -63.8397,-185.554 -64.106,-186.559 -64.4574,-187.535 -64.8088,-188.511 -65.244,-189.454 -65.7579,-190.356 -66.2719,-191.257 -66.8628,-192.112 -67.5241,-192.911 -68.1853,-193.71 -68.9144,-194.451 -69.7032,-195.125 -70.492,-195.798 -71.3376,-196.403 -72.2305,-196.931 -73.1235,-197.459 -74.0603,-197.909 -75.0307,-198.275 -76.0011,-198.642 -77.0014,-198.924 -78.0204,-199.119 -78.0204,-199.119 -81.3933,-181.437 -81.3933,-181.437"/>
<path fill="deepskyblue" stroke="black" stroke-width="0.5" d="M-81.3933,-181.437C-81.3933,-181.437 -78.0204,-199.119 -78.0204,-199.119 -78.9235,-199.291 -79.8385,-199.394 -80.7573,-199.426 -81.676,-199.459 -82.596,-199.421 -83.509,-199.313 -84.422,-199.205 -85.3253,-199.027 -86.2112,-198.781 -87.097,-198.535 -87.9626,-198.221 -88.8006,-197.843 -89.6385,-197.464 -90.4462,-197.022 -91.2165,-196.521 -91.9869,-196.019 -92.7178,-195.459 -93.4026,-194.845 -94.0874,-194.232 -94.7242,-193.567 -95.3075,-192.856 -95.8907,-192.146 -96.4187,-191.391 -96.8866,-190.6 -97.3546,-189.809 -97.7613,-188.983 -98.1031,-188.129 -98.4449,-187.276 -98.7208,-186.397 -98.9284,-185.502 -99.136,-184.606 -99.2747,-183.696 -99.3432,-182.779 -99.4117,-181.862 -99.4099,-180.942 -99.3378,-180.025 -99.2657,-179.109 -99.1234,-178.199 -98.9123,-177.304 -98.7012,-176.409 -98.4219,-175.532 -98.0767,-174.68 -97.7316,-173.828 -97.3216,-173.003 -96.8505,-172.214 -96.3794,-171.424 -95.8486,-170.672 -95.2625,-169.964 -94.6765,-169.255 -94.0371,-168.593 -93.3498,-167.982 -92.6626,-167.371 -91.9296,-166.814 -91.1572,-166.316 -90.3849,-165.817 -89.5755,-165.378 -88.7361,-165.003 -87.8967,-164.628 -87.0298,-164.318 -86.143,-164.075 -85.2562,-163.833 -84.3522,-163.658 -83.4388,-163.554 -82.5253,-163.449 -81.6053,-163.415 -80.6866,-163.451 -79.768,-163.487 -78.8534,-163.594 -77.951,-163.77 -77.0486,-163.945 -76.161,-164.19 -75.296,-164.501 -74.431,-164.813 -73.5911,-165.19 -72.7837,-165.63 -71.9764,-166.07 -71.2039,-166.571 -70.473,-167.128 -69.7422,-167.686 -69.0551,-168.299 -68.4179,-168.962 -67.7807,-169.624 -67.1952,-170.335 -66.6666,-171.087 -66.138,-171.839 -65.6677,-172.631 -65.26,-173.455 -64.8523,-174.279 -64.5083,-175.133 -64.2311,-176.01 -63.9539,-176.886 -63.7442,-177.783 -63.604,-178.691 -63.4637,-179.6 -63.3933,-180.518 -63.3933,-181.437 -63.3933,-181.437 -81.3933,-181.437 -81.3933,-181.437"/>
<ellipse fill="none" stroke="black" cx="-81.3933" cy="-181.437" rx="18" ry="18"/>
</g>
<!-- 6 -->
<g id="node7" class="node"><title>6</title>
<path fill="#ff3030" stroke="black" stroke-width="0.5" d="M-59.9244,-62.5929C-59.9244,-62.5929 -35.4244,-62.5929 -35.4244,-62.5929 -35.4244,-63.6968 -35.499,-64.7995 -35.6477,-65.8933 -35.7964,-66.9872 -36.0189,-68.0698 -36.3136,-69.1336 -36.3136,-69.1336 -59.9244,-62.5929 -59.9244,-62.5929"/>
<path fill="deepskyblue" stroke="black" stroke-width="0.5" d="M-59.9244,-62.5929C-59.9244,-62.5929 -36.3136,-69.1336 -36.3136,-69.1336 -36.5346,-69.9314 -36.7959,-70.7174 -37.0964,-71.4887 -37.397,-72.26 -37.7365,-73.0156 -38.1135,-73.7525 -38.4906,-74.4895 -38.9047,-75.2068 -39.3544,-75.9018 -39.8041,-76.5969 -40.2887,-77.2686 -40.8064,-77.9146 -40.8064,-77.9146 -59.9244,-62.5929 -59.9244,-62.5929"/>
<path fill="brown" stroke="black" stroke-width="0.5" d="M-59.9244,-62.5929C-59.9244,-62.5929 -40.8064,-77.9146 -40.8064,-77.9146 -41.254,-78.473 -41.7258,-79.0116 -42.2205,-79.5287 -42.7152,-80.0459 -43.2323,-80.5411 -43.7704,-81.013 -44.3085,-81.4849 -44.8669,-81.9329 -45.4442,-82.3559 -46.0215,-82.7789 -46.6171,-83.1764 -47.2292,-83.5472 -47.8413,-83.918 -48.4693,-84.2619 -49.1115,-84.5777 -49.7537,-84.8936 -50.4094,-85.1811 -51.0768,-85.4396 -51.7441,-85.698 -52.4225,-85.9271 -53.1099,-86.1262 -53.7974,-86.3252 -54.4932,-86.494 -55.1954,-86.6322 -55.8976,-86.7703 -56.6055,-86.8776 -57.3171,-86.9538 -58.0287,-87.0299 -58.7433,-87.0749 -59.4589,-87.0885 -60.1744,-87.1021 -60.8902,-87.0843 -61.6042,-87.0353 -62.3181,-86.9862 -63.0296,-86.9059 -63.7366,-86.7945 -64.4435,-86.6831 -65.1452,-86.5409 -65.8397,-86.3681 -66.5342,-86.1953 -67.2208,-85.9921 -67.8975,-85.7592 -68.5742,-85.5263 -69.2404,-85.2639 -69.8941,-84.9727 -70.5479,-84.6814 -71.1885,-84.3617 -71.8143,-84.0144 -72.44,-83.6671 -73.0502,-83.2925 -73.6432,-82.8918 -74.2361,-82.491 -74.8112,-82.0645 -75.3668,-81.6134 -75.9224,-81.1624 -76.458,-80.6871 -76.972,-80.1892 -77.486,-79.6912 -77.9779,-79.1709 -78.4464,-78.6299 -78.9148,-78.0888 -79.3594,-77.5275 -79.7787,-76.9476 -80.198,-76.3676 -80.5917,-75.7696 -80.9586,-75.1551 -81.3256,-74.5407 -81.6654,-73.9105 -81.9772,-73.2663 -82.289,-72.6221 -82.5724,-71.9646 -82.8266,-71.2956 -83.0808,-70.6266 -83.3056,-69.9468 -83.5003,-69.2581 -83.695,-68.5695 -83.8594,-67.8726 -83.9931,-67.1695 -84.1268,-66.4665 -84.2296,-65.7579 -84.3013,-65.0458 -84.3729,-64.3337 -84.4133,-63.6189 -84.4224,-62.9033 -84.4315,-62.1877 -84.4092,-61.472 -84.3556,-60.7583 -84.302,-60.0447 -84.2172,-59.3337 -84.1013,-58.6275 -83.9855,-57.9213 -83.8388,-57.2204 -83.6616,-56.5271 -83.4844,-55.8337 -83.2769,-55.1484 -83.0397,-54.4732 -82.8025,-53.798 -82.5359,-53.1335 -82.2405,-52.4816 -81.9452,-51.8297 -81.6214,-51.1911 -81.2701,-50.5676 -80.9188,-49.944 -80.5404,-49.3362 -80.1359,-48.7458 -79.7315,-48.1554 -79.3013,-47.583 -78.8467,-47.0303 -78.3921,-46.4776 -77.9135,-45.945 -77.4123,-45.4342 -76.9111,-44.9233 -76.3877,-44.4347 -75.8437,-43.9697 -75.2997,-43.5047 -74.7356,-43.0637 -74.153,-42.6481 -73.5704,-42.2325 -72.9698,-41.8425 -72.3531,-41.4795 -71.7364,-41.1164 -71.104,-40.7806 -70.4579,-40.4729 -69.8117,-40.1652 -69.1524,-39.886 -68.4818,-39.636 -67.8112,-39.386 -67.13,-39.1656 -66.4401,-38.9752 -65.7502,-38.7849 -65.0523,-38.6249 -64.3484,-38.4957 -63.6445,-38.3664 -62.9353,-38.2681 -62.2228,-38.201 -61.5103,-38.1338 -60.7952,-38.0979 -60.0795,-38.0934 -59.3639,-38.0889 -58.6484,-38.1157 -57.9351,-38.1738 -57.2218,-38.2319 -56.5114,-38.3212 -55.8059,-38.4415 -55.1004,-38.5619 -54.4005,-38.713 -53.7083,-38.8946 -53.016,-39.0762 -52.3321,-39.288 -51.6584,-39.5294 -50.9847,-39.7709 -50.3219,-40.0418 -49.6719,-40.3412 -49.0219,-40.6407 -48.3854,-40.9685 -47.7641,-41.3237 -47.1428,-41.679 -46.5374,-42.0612 -45.9495,-42.4694 -45.3617,-42.8777 -44.7921,-43.3114 -44.2422,-43.7695 -43.6924,-44.2276 -43.1628,-44.7096 -42.6552,-45.214 -42.1475,-45.7185 -41.6622,-46.2449 -41.2007,-46.7918 -40.7391,-47.3388 -40.3017,-47.9057 -39.8898,-48.4909 -39.4779,-49.0761 -39.0918,-49.6791 -38.7327,-50.2981 -38.3735,-50.9172 -38.0417,-51.5516 -37.7381,-52.1997 -37.4345,-52.8478 -37.1594,-53.5089 -36.9137,-54.181 -36.668,-54.8532 -36.4518,-55.5358 -36.2659,-56.2269 -36.0799,-56.9179 -35.9243,-57.6168 -35.7996,-58.3215 -35.6748,-59.0263 -35.581,-59.7361 -35.5183,-60.449 -35.4557,-61.1619 -35.4244,-61.8772 -35.4244,-62.5929 -35.4244,-62.5929 -59.9244,-62.5929 -59.9244,-62.5929"/>
<ellipse fill="none" stroke="black" cx="-59.9244" cy="-62.5929" rx="24.5" ry="24.5"/>
</g>
<!-- 0&#45;&gt;6 -->
<g id="edge1" class="edge"><title>0&#45;&gt;6</title>
<path fill="none" stroke="black" d="M-78.1792,-163.645C-74.5062,-143.313 -68.4724,-109.912 -64.355,-87.1196"/>
</g>
<!-- 22 -->
<g id="node23" class="node"><title>22</title>
<ellipse fill="deepskyblue" stroke="black" cx="-95.037" cy="-248.535" rx="2.5" ry="2.5"/>
</g>
<!-- 0&#45;&gt;22 -->
<g id="edge2" class="edge"><title>0&#45;&gt;22</title>
<path fill="none" stroke="black" d="M-85.0496,-199.418C-88.3332,-215.567 -92.8742,-237.899 -94.4616,-245.705"/>
</g>
<!-- 24 -->
<g id="node25" class="node"><title>24</title>
<ellipse fill="deepskyblue" stroke="black" cx="-136.3" cy="-231.425" rx="2.5" ry="2.5"/>
</g>
<!-- 0&#45;&gt;24 -->
<g id="edge3" class="edge"><title>0&#45;&gt;24</title>
<path fill="none" stroke="black" d="M-94.9656,-193.794C-108.43,-206.052 -127.941,-223.815 -134.25,-229.558"/>
</g>
<!-- 120 -->
<g id="node121" class="node"><title>120</title>
<ellipse fill="black" stroke="black" cx="-54.5748" cy="-250.148" rx="2.5" ry="2.5"/>
</g>
<!-- 0&#45;&gt;120 -->
<g id="edge4" class="edge"><title>0&#45;&gt;120</title>
<path fill="none" stroke="black" d="M-74.764,-198.422C-68.1873,-215.272 -58.6577,-239.687 -55.5761,-247.582"/>
</g>
<!-- 1 -->
<g id="node2" class="node"><title>1</title>
<ellipse fill="deepskyblue" stroke="black" cx="111.216" cy="-72.3281" rx="2.5" ry="2.5"/>
</g>
<!-- 3 -->
<g id="node4" class="node"><title>3</title>
<path fill="#ff3030" stroke="black" stroke-width="0.5" d="M72.2446,-72.2013C72.2446,-72.2013 96.2446,-72.2013 96.2446,-72.2013 96.2446,-73.2838 96.1713,-74.3651 96.0254,-75.4377 95.8794,-76.5104 95.661,-77.5719 95.3717,-78.615 95.0824,-79.6582 94.7229,-80.6805 94.2956,-81.6752 93.8683,-82.6698 93.3741,-83.6343 92.8166,-84.5622 92.2591,-85.4901 91.6394,-86.3792 90.9618,-87.2235 90.2842,-88.0677 89.5503,-88.8651 88.7651,-89.6103 87.9799,-90.3554 87.1451,-91.0466 86.2666,-91.6791 85.388,-92.3115 84.4677,-92.8838 83.5119,-93.392 82.5561,-93.9003 81.567,-94.3432 80.5514,-94.7179 79.5358,-95.0926 78.496,-95.3981 77.4391,-95.6324 76.3823,-95.8667 75.3108,-96.0292 74.232,-96.1189 73.1532,-96.2085 72.0696,-96.2251 70.9885,-96.1684 69.9075,-96.1118 68.8315,-95.982 67.768,-95.7801 66.7045,-95.5782 65.6558,-95.3046 64.6293,-94.9611 63.6027,-94.6176 62.6005,-94.205 61.6297,-93.7262 60.6588,-93.2475 59.7214,-92.7035 58.824,-92.0982 58.824,-92.0982 72.2446,-72.2013 72.2446,-72.2013"/>
<path fill="deepskyblue" stroke="black" stroke-width="0.5" d="M72.2446,-72.2013C72.2446,-72.2013 58.824,-92.0982 58.824,-92.0982 58.0134,-91.5515 57.237,-90.9558 56.4992,-90.3143 55.7613,-89.6729 55.0633,-88.987 54.4091,-88.2604 53.7549,-87.5339 53.1457,-86.768 52.5849,-85.9671 52.0242,-85.1663 51.5128,-84.3319 51.0538,-83.4686 50.5948,-82.6054 50.189,-81.7149 49.8387,-80.8021 49.4883,-79.8894 49.194,-78.9561 48.9575,-78.0074 48.721,-77.0588 48.5426,-76.0966 48.4235,-75.1262 48.3043,-74.1558 48.2446,-73.179 48.2446,-72.2013 48.2446,-71.2236 48.3043,-70.2468 48.4235,-69.2764 48.5426,-68.306 48.721,-67.3438 48.9575,-66.3952 49.194,-65.4465 49.4883,-64.5132 49.8387,-63.6005 50.189,-62.6877 50.5948,-61.7972 51.0538,-60.934 51.5128,-60.0707 52.0242,-59.2363 52.5849,-58.4355 53.1457,-57.6346 53.7549,-56.8687 54.4091,-56.1422 55.0633,-55.4156 55.7613,-54.7297 56.4992,-54.0883 57.237,-53.4468 58.0134,-52.8511 58.824,-52.3044 58.824,-52.3044 72.2446,-72.2013 72.2446,-72.2013"/>
<path fill="#98f5ff" stroke="black" stroke-width="0.5" d="M72.2446,-72.2013C72.2446,-72.2013 58.824,-52.3044 58.824,-52.3044 59.4028,-51.9139 59.9985,-51.5489 60.6092,-51.2104 61.2199,-50.8719 61.845,-50.5602 62.4829,-50.2762 63.1208,-49.9922 63.7708,-49.7362 64.431,-49.5089 65.0912,-49.2815 65.761,-49.0831 66.4385,-48.9142 66.4385,-48.9142 72.2446,-72.2013 72.2446,-72.2013"/>
<path fill="#1874cd" stroke="black" stroke-width="0.5" d="M72.2446,-72.2013C72.2446,-72.2013 66.4385,-48.9142 66.4385,-48.9142 67.3193,-48.6946 68.2119,-48.5251 69.112,-48.4066 70.012,-48.2881 70.9181,-48.2208 71.8257,-48.205 72.7334,-48.1891 73.6412,-48.2248 74.5449,-48.3118 75.4485,-48.3988 76.3465,-48.537 77.2345,-48.7258 78.1224,-48.9145 78.999,-49.1535 79.8599,-49.4415 80.7208,-49.7296 81.5647,-50.0663 82.3874,-50.4499 83.2102,-50.8336 84.0105,-51.2636 84.7846,-51.7379 85.5586,-52.2123 86.3051,-52.7301 87.0205,-53.289 87.7358,-53.848 88.4189,-54.447 89.0664,-55.0833 89.7139,-55.7196 90.3248,-56.3921 90.8961,-57.0976 91.4674,-57.8031 91.9982,-58.5405 92.486,-59.3061 92.9737,-60.0718 93.4177,-60.8645 93.8156,-61.6804 94.2136,-62.4963 94.5649,-63.3342 94.868,-64.1899 95.171,-65.0457 95.4253,-65.9179 95.6295,-66.8025 95.8337,-67.687 95.9875,-68.5824 96.0903,-69.4844 96.1931,-70.3864 96.2446,-71.2935 96.2446,-72.2013 96.2446,-72.2013 72.2446,-72.2013 72.2446,-72.2013"/>
<ellipse fill="none" stroke="black" cx="72.2446" cy="-72.2013" rx="24" ry="24"/>
</g>
<!-- 1&#45;&gt;3 -->
<g id="edge5" class="edge"><title>1&#45;&gt;3</title>
<path fill="none" stroke="black" d="M108.659,-72.3198C105.95,-72.311 101.378,-72.2961 96.3715,-72.2798"/>
</g>
<!-- 2 -->
<g id="node3" class="node"><title>2</title>
<ellipse fill="#ff3030" stroke="black" cx="-129.938" cy="-112.036" rx="10" ry="10"/>
</g>
<!-- 2&#45;&gt;6 -->
<g id="edge6" class="edge"><title>2&#45;&gt;6</title>
<path fill="none" stroke="black" d="M-121.631,-106.17C-111.489,-99.0079 -93.9851,-86.6466 -80.2045,-76.9147"/>
</g>
<!-- 122 -->
<g id="node123" class="node"><title>122</title>
<ellipse fill="white" stroke="black" cx="-184.067" cy="-138.693" rx="1" ry="1"/>
</g>
<!-- 2&#45;&gt;122 -->
<g id="edge7" class="edge"><title>2&#45;&gt;122</title>
<path fill="none" stroke="black" d="M-139.366,-116.679C-152.936,-123.362 -176.983,-135.204 -182.783,-138.06"/>
</g>
<!-- 3&#45;&gt;6 -->
<g id="edge8" class="edge"><title>3&#45;&gt;6</title>
<path fill="none" stroke="black" d="M48.0028,-70.439C24.3043,-68.7161 -11.5899,-66.1067 -35.3886,-64.3766"/>
</g>
<!-- 10 -->
<g id="node11" class="node"><title>10</title>
<ellipse fill="#ff3030" stroke="black" cx="81.8376" cy="-18.4837" rx="2.5" ry="2.5"/>
</g>
<!-- 3&#45;&gt;10 -->
<g id="edge9" class="edge"><title>3&#45;&gt;10</title>
<path fill="none" stroke="black" d="M76.4801,-48.4836C78.4075,-37.691 80.4574,-26.2123 81.3619,-21.1476"/>
</g>
<!-- 16 -->
<g id="node17" class="node"><title>16</title>
<ellipse fill="#ff3030" stroke="black" cx="136.616" cy="-33.7554" rx="2.5" ry="2.5"/>
</g>
<!-- 3&#45;&gt;16 -->
<g id="edge10" class="edge"><title>3&#45;&gt;16</title>
<path fill="none" stroke="black" d="M92.9666,-59.8251C108.256,-50.6935 127.516,-39.1906 134.201,-35.1981"/>
</g>
<!-- 18 -->
<g id="node19" class="node"><title>18</title>
<ellipse fill="deepskyblue" stroke="black" cx="72.0279" cy="-119.029" rx="2.5" ry="2.5"/>
</g>
<!-- 3&#45;&gt;18 -->
<g id="edge11" class="edge"><title>3&#45;&gt;18</title>
<path fill="none" stroke="black" d="M72.1324,-96.4381C72.0953,-104.472 72.0587,-112.377 72.0403,-116.362"/>
</g>
<!-- 21 -->
<g id="node22" class="node"><title>21</title>
<ellipse fill="deepskyblue" stroke="black" cx="59.1994" cy="-30.4485" rx="2.5" ry="2.5"/>
</g>
<!-- 3&#45;&gt;21 -->
<g id="edge12" class="edge"><title>3&#45;&gt;21</title>
<path fill="none" stroke="black" d="M64.9592,-48.8834C62.9982,-42.6071 61.1305,-36.6292 60.0782,-33.261"/>
</g>
<!-- 25 -->
<g id="node26" class="node"><title>25</title>
<ellipse fill="deepskyblue" stroke="black" cx="106.109" cy="-24.5552" rx="2.5" ry="2.5"/>
</g>
<!-- 3&#45;&gt;25 -->
<g id="edge13" class="edge"><title>3&#45;&gt;25</title>
<path fill="none" stroke="black" d="M86.2142,-52.5467C93.3563,-42.4981 101.224,-31.4283 104.52,-26.7913"/>
</g>
<!-- 29 -->
<g id="node30" class="node"><title>29</title>
<ellipse fill="deepskyblue" stroke="black" cx="136.214" cy="-56.8633" rx="2.5" ry="2.5"/>
</g>
<!-- 3&#45;&gt;29 -->
<g id="edge14" class="edge"><title>3&#45;&gt;29</title>
<path fill="none" stroke="black" d="M95.7011,-66.5771C110.249,-63.0888 127.337,-58.9917 133.679,-57.4711"/>
</g>
<!-- 30 -->
<g id="node31" class="node"><title>30</title>
<ellipse fill="deepskyblue" stroke="black" cx="81.3212" cy="-159.201" rx="2.5" ry="2.5"/>
</g>
<!-- 3&#45;&gt;30 -->
<g id="edge15" class="edge"><title>3&#45;&gt;30</title>
<path fill="none" stroke="black" d="M74.7729,-96.4356C77.039,-118.156 80.1429,-147.907 81.0576,-156.674"/>
</g>
<!-- 34 -->
<g id="node35" class="node"><title>34</title>
<ellipse fill="#ff3030" stroke="black" cx="118.404" cy="-134.899" rx="2.5" ry="2.5"/>
</g>
<!-- 3&#45;&gt;34 -->
<g id="edge16" class="edge"><title>3&#45;&gt;34</title>
<path fill="none" stroke="black" d="M88.2281,-90.7756C93.4143,-97.0747 99.0697,-104.246 103.89,-111.068 109.258,-118.663 114.738,-128.271 117.142,-132.599"/>
</g>
<!-- 36 -->
<g id="node37" class="node"><title>36</title>
<ellipse fill="#ff3030" stroke="black" cx="102.116" cy="-112.829" rx="2.5" ry="2.5"/>
</g>
<!-- 3&#45;&gt;36 -->
<g id="edge19" class="edge"><title>3&#45;&gt;36</title>
<path fill="none" stroke="black" d="M86.4806,-91.5633C92.1307,-99.2479 97.9147,-107.115 100.589,-110.751"/>
</g>
<!-- 45 -->
<g id="node46" class="node"><title>45</title>
<ellipse fill="#1874cd" stroke="black" cx="30.9722" cy="-99.9985" rx="2.5" ry="2.5"/>
</g>
<!-- 3&#45;&gt;45 -->
<g id="edge22" class="edge"><title>3&#45;&gt;45</title>
<path fill="none" stroke="black" d="M52.092,-85.7742C44.5619,-90.8458 36.9458,-95.9753 33.2574,-98.4594"/>
</g>
<!-- 74 -->
<g id="node75" class="node"><title>74</title>
<ellipse fill="#1874cd" stroke="black" cx="139.401" cy="-119.498" rx="2.5" ry="2.5"/>
</g>
<!-- 3&#45;&gt;74 -->
<g id="edge23" class="edge"><title>3&#45;&gt;74</title>
<path fill="none" stroke="black" d="M92.0305,-86.1361C108.435,-97.6897 130.156,-112.987 137.138,-117.904"/>
</g>
<!-- 75 -->
<g id="node76" class="node"><title>75</title>
<ellipse fill="#1874cd" stroke="black" cx="138.157" cy="-95.4548" rx="2.5" ry="2.5"/>
</g>
<!-- 3&#45;&gt;75 -->
<g id="edge24" class="edge"><title>3&#45;&gt;75</title>
<path fill="none" stroke="black" d="M94.928,-80.2038C110.121,-85.5639 128.551,-92.0659 135.412,-94.4861"/>
</g>
<!-- 94 -->
<g id="node95" class="node"><title>94</title>
<ellipse fill="#1874cd" stroke="black" cx="159.721" cy="-75.0613" rx="2.5" ry="2.5"/>
</g>
<!-- 3&#45;&gt;94 -->
<g id="edge27" class="edge"><title>3&#45;&gt;94</title>
<path fill="none" stroke="black" d="M96.542,-74.0753C101.393,-74.383 106.453,-74.6569 111.194,-74.828 128.707,-75.46 149.797,-75.219 157.09,-75.1064"/>
</g>
<!-- 118 -->
<g id="node119" class="node"><title>118</title>
<ellipse fill="#98f5ff" stroke="black" cx="68.0372" cy="2.56699" rx="2.5" ry="2.5"/>
</g>
<!-- 3&#45;&gt;118 -->
<g id="edge28" class="edge"><title>3&#45;&gt;118</title>
<path fill="none" stroke="black" d="M70.8902,-48.1326C69.8908,-30.3737 68.632,-8.00334 68.1951,-0.238816"/>
</g>
<!-- 121 -->
<g id="node122" class="node"><title>121</title>
<ellipse fill="black" stroke="black" cx="67.8372" cy="-144.548" rx="2.5" ry="2.5"/>
</g>
<!-- 3&#45;&gt;121 -->
<g id="edge29" class="edge"><title>3&#45;&gt;121</title>
<path fill="none" stroke="black" d="M70.777,-96.2917C69.7353,-113.391 68.4456,-134.561 67.9986,-141.898"/>
</g>
<!-- anon_3_35_0 -->
<g id="node126" class="node"><title>anon_3_35_0</title>
<ellipse fill="white" stroke="black" cx="130.026" cy="-6.04816" rx="1" ry="1"/>
</g>
<!-- 3&#45;&gt;anon_3_35_0 -->
<g id="edge17" class="edge"><title>3&#45;&gt;anon_3_35_0</title>
<path fill="none" stroke="black" d="M88.0336,-54.1247C103.003,-36.9863 123.926,-13.0315 128.923,-7.31059"/>
</g>
<!-- anon_3_40_0 -->
<g id="node127" class="node"><title>anon_3_40_0</title>
<ellipse fill="white" stroke="black" cx="110.609" cy="-158.108" rx="1" ry="1"/>
</g>
<!-- 3&#45;&gt;anon_3_40_0 -->
<g id="edge20" class="edge"><title>3&#45;&gt;anon_3_40_0</title>
<path fill="none" stroke="black" d="M82.1243,-94.3244C92.4257,-117.392 107.45,-151.034 110.176,-157.139"/>
</g>
<!-- anon_3_89_0 -->
<g id="node128" class="node"><title>anon_3_89_0</title>
<ellipse fill="white" stroke="black" cx="98.7106" cy="14.6487" rx="1" ry="1"/>
</g>
<!-- 3&#45;&gt;anon_3_89_0 -->
<g id="edge25" class="edge"><title>3&#45;&gt;anon_3_89_0</title>
<path fill="none" stroke="black" d="M79.337,-48.9271C86.4416,-25.6129 96.5805,7.65845 98.4191,13.6919"/>
</g>
<!-- 4 -->
<g id="node5" class="node"><title>4</title>
<path fill="#ff3030" stroke="black" stroke-width="0.5" d="M-127.383,15.9913C-127.383,15.9913 -104.883,15.9913 -104.883,15.9913 -104.883,15.236 -104.922,14.4811 -104.997,13.7296 -105.073,12.9781 -105.187,12.2308 -105.338,11.4907 -105.489,10.7507 -105.678,10.0187 -105.902,9.29751 -106.127,8.57636 -106.388,7.86698 -106.684,7.17208 -106.98,6.47717 -107.311,5.79761 -107.675,5.13599 -108.04,4.47436 -108.437,3.83151 -108.866,3.20987 -109.295,2.58823 -109.756,1.98859 -110.245,1.41323 -110.734,0.837869 -111.252,0.287519 -111.797,-0.23573 -111.797,-0.23573 -127.383,15.9913 -127.383,15.9913"/>
<path fill="deepskyblue" stroke="black" stroke-width="0.5" d="M-127.383,15.9913C-127.383,15.9913 -111.797,-0.23573 -111.797,-0.23573 -112.356,-0.772067 -112.941,-1.27922 -113.552,-1.75518 -114.163,-2.23113 -114.797,-2.67525 -115.454,-3.08575 -116.11,-3.49626 -116.788,-3.87261 -117.483,-4.2133 -118.178,-4.55399 -118.89,-4.85856 -119.617,-5.12581 -120.344,-5.39306 -121.084,-5.62262 -121.834,-5.81358 -122.584,-6.00454 -123.344,-6.15664 -124.11,-6.26928 -124.876,-6.38192 -125.647,-6.45495 -126.421,-6.48808 -127.194,-6.5212 -127.969,-6.51437 -128.742,-6.46762 -129.515,-6.42088 -130.285,-6.33427 -131.049,-6.20815 -131.813,-6.08203 -132.569,-5.91656 -133.316,-5.71241 -134.063,-5.50826 -134.799,-5.2657 -135.521,-4.98569 -136.243,-4.70568 -136.949,-4.3886 -137.639,-4.03571 -138.328,-3.68282 -138.998,-3.2946 -139.647,-2.87259 -140.296,-2.45058 -140.923,-1.99535 -141.526,-1.50871 -142.128,-1.02207 -142.704,-0.504668 -143.253,0.0414239 -143.802,0.587516 -144.322,1.16157 -144.812,1.76131 -145.302,2.36104 -145.76,2.98564 -146.185,3.63263 -146.611,4.27962 -147.002,4.94813 -147.359,5.63549 -147.715,6.32285 -148.036,7.02815 -148.319,7.74856 -148.603,8.46898 -148.849,9.20355 -149.057,9.94936 -149.265,10.6952 -149.434,11.4512 -149.564,12.2145 -149.694,12.9777 -149.785,13.7472 -149.835,14.5198 -149.886,15.2923 -149.897,16.067 -149.867,16.8407 -149.838,17.6144 -149.769,18.3861 -149.66,19.1526 -149.551,19.9192 -149.403,20.6796 -149.216,21.4309 -149.029,22.1822 -148.803,22.9233 -148.539,23.6513 -148.276,24.3793 -147.975,25.0932 -147.638,25.7901 -147.3,26.4871 -146.928,27.1662 -146.52,27.8247 -146.113,28.4832 -145.672,29.1203 -145.199,29.7333 -144.727,30.3464 -144.222,30.9347 -143.689,31.4957 -143.155,32.0568 -142.593,32.59 -142.005,33.0931 -141.416,33.5962 -140.802,34.0686 -140.165,34.5085 -140.165,34.5085 -127.383,15.9913 -127.383,15.9913"/>
<path fill="#98f5ff" stroke="black" stroke-width="0.5" d="M-127.383,15.9913C-127.383,15.9913 -140.165,34.5085 -140.165,34.5085 -139.326,35.0878 -138.448,35.6095 -137.538,36.0697 -136.628,36.53 -135.687,36.9279 -134.723,37.2606 -133.759,37.5933 -132.773,37.86 -131.773,38.059 -130.773,38.258 -129.76,38.3887 -128.742,38.4503 -127.724,38.5119 -126.703,38.5041 -125.686,38.4272 -124.669,38.3502 -123.658,38.2042 -122.661,37.9902 -121.664,37.7761 -120.682,37.4945 -119.724,37.1473 -118.765,36.8001 -117.83,36.3881 -116.927,35.9141 -116.024,35.4401 -115.154,34.9053 -114.324,34.3133 -113.493,33.7213 -112.704,33.0736 -111.961,32.3745 -111.219,31.6754 -110.524,30.9267 -109.883,30.1334 -109.242,29.3402 -108.656,28.5042 -108.128,27.6314 -107.601,26.7586 -107.133,25.8509 -106.729,24.9147 -106.324,23.9784 -105.984,23.0157 -105.71,22.0333 -105.436,21.0509 -105.229,20.0509 -105.091,19.0404 -104.953,18.0299 -104.883,17.0112 -104.883,15.9913 -104.883,15.9913 -127.383,15.9913 -127.383,15.9913"/>
<ellipse fill="none" stroke="black" cx="-127.383" cy="15.9913" rx="22.5" ry="22.5"/>
</g>
<!-- 4&#45;&gt;6 -->
<g id="edge30" class="edge"><title>4&#45;&gt;6</title>
<path fill="none" stroke="black" d="M-112.412,-1.44906C-101.621,-14.0196 -87.0743,-30.9655 -76.0316,-43.8293"/>
</g>
<!-- 11 -->
<g id="node12" class="node"><title>11</title>
<ellipse fill="deepskyblue" stroke="black" cx="-166.129" cy="4.54809" rx="2.5" ry="2.5"/>
</g>
<!-- 4&#45;&gt;11 -->
<g id="edge31" class="edge"><title>4&#45;&gt;11</title>
<path fill="none" stroke="black" d="M-149.022,9.60057C-154.846,7.8804 -160.393,6.24203 -163.519,5.31891"/>
</g>
<!-- 117 -->
<g id="node118" class="node"><title>117</title>
<ellipse fill="#98f5ff" stroke="black" cx="-206.273" cy="51.9158" rx="2.5" ry="2.5"/>
</g>
<!-- 4&#45;&gt;117 -->
<g id="edge32" class="edge"><title>4&#45;&gt;117</title>
<path fill="none" stroke="black" d="M-148.111,25.4301C-167.832,34.4108 -195.681,47.0921 -203.902,50.8358"/>
</g>
<!-- 5 -->
<g id="node6" class="node"><title>5</title>
<ellipse fill="#ff3030" stroke="black" cx="-158.313" cy="-88.4919" rx="12.5" ry="12.5"/>
</g>
<!-- 5&#45;&gt;6 -->
<g id="edge33" class="edge"><title>5&#45;&gt;6</title>
<path fill="none" stroke="black" d="M-145.852,-85.2118C-130.339,-81.1284 -103.504,-74.0646 -83.9417,-68.9151"/>
</g>
<!-- 32 -->
<g id="node33" class="node"><title>32</title>
<ellipse fill="#ff3030" stroke="black" cx="-177.652" cy="-40.2432" rx="2.5" ry="2.5"/>
</g>
<!-- 5&#45;&gt;32 -->
<g id="edge34" class="edge"><title>5&#45;&gt;32</title>
<path fill="none" stroke="black" d="M-162.994,-76.8123C-167.555,-65.4334 -174.155,-48.9679 -176.648,-42.7483"/>
</g>
<!-- 38 -->
<g id="node39" class="node"><title>38</title>
<ellipse fill="#ff3030" stroke="black" cx="-215.64" cy="-109.23" rx="2.5" ry="2.5"/>
</g>
<!-- 5&#45;&gt;38 -->
<g id="edge35" class="edge"><title>5&#45;&gt;38</title>
<path fill="none" stroke="black" d="M-170.191,-92.7889C-183.834,-97.7243 -205.311,-105.494 -212.885,-108.233"/>
</g>
<!-- 39 -->
<g id="node40" class="node"><title>39</title>
<ellipse fill="#ff3030" stroke="black" cx="-221.819" cy="-74.8136" rx="2.5" ry="2.5"/>
</g>
<!-- 5&#45;&gt;39 -->
<g id="edge36" class="edge"><title>5&#45;&gt;39</title>
<path fill="none" stroke="black" d="M-170.557,-85.8546C-185.84,-82.563 -210.965,-77.1513 -219.151,-75.3883"/>
</g>
<!-- 5&#45;&gt;122 -->
<g id="edge143" class="edge"><title>5&#45;&gt;122</title>
<path fill="none" stroke="black" stroke-dasharray="5,2" d="M-164.028,-99.6331C-170.668,-112.574 -181.031,-132.773 -183.518,-137.621"/>
</g>
<!-- 7 -->
<g id="node8" class="node"><title>7</title>
<ellipse fill="#ff3030" stroke="black" cx="-27.0096" cy="-16.2129" rx="6.5" ry="6.5"/>
</g>
<!-- 6&#45;&gt;7 -->
<g id="edge37" class="edge"><title>6&#45;&gt;7</title>
<path fill="none" stroke="black" d="M-45.5832,-42.3849C-40.1782,-34.7687 -34.4634,-26.7161 -30.8236,-21.5871"/>
</g>
<!-- 8 -->
<g id="node9" class="node"><title>8</title>
<ellipse fill="#ff3030" stroke="black" cx="-101.136" cy="-112.636" rx="4.5" ry="4.5"/>
</g>
<!-- 6&#45;&gt;8 -->
<g id="edge38" class="edge"><title>6&#45;&gt;8</title>
<path fill="none" stroke="black" d="M-75.5046,-81.5121C-83.8926,-91.6978 -93.4639,-103.32 -98.1842,-109.052"/>
</g>
<!-- 13 -->
<g id="node14" class="node"><title>13</title>
<ellipse fill="#ff3030" stroke="black" cx="-31.6253" cy="8.95984" rx="5.5" ry="5.5"/>
</g>
<!-- 6&#45;&gt;13 -->
<g id="edge39" class="edge"><title>6&#45;&gt;13</title>
<path fill="none" stroke="black" d="M-50.8146,-39.5593C-44.7393,-24.1983 -37.2382,-5.23206 -33.6819,3.75992"/>
</g>
<!-- 14 -->
<g id="node15" class="node"><title>14</title>
<path fill="#98f5ff" stroke="black" stroke-width="0.5" d="M-66.9855,38.0912C-66.9855,38.0912 -62.4855,38.0912 -62.4855,38.0912 -62.4855,37.8948 -62.4984,37.6986 -62.524,37.5038 -62.5496,37.3091 -62.588,37.1162 -62.6388,36.9265 -62.6897,36.7368 -62.7529,36.5506 -62.8281,36.3691 -62.9032,36.1877 -62.9902,36.0113 -63.0884,35.8412 -63.1866,35.6711 -63.2958,35.5076 -63.4154,35.3518 -63.535,35.196 -63.6646,35.0481 -63.8035,34.9092 -63.9424,34.7703 -64.0903,34.6407 -64.2461,34.5211 -64.4019,34.4015 -64.5654,34.2923 -64.7355,34.1941 -64.9056,34.0959 -65.082,34.0089 -65.2634,33.9338 -65.4449,33.8586 -65.6311,33.7954 -65.8208,33.7445 -66.0105,33.6937 -66.2034,33.6553 -66.3981,33.6297 -66.5929,33.6041 -66.7891,33.5912 -66.9855,33.5912 -67.1819,33.5912 -67.3781,33.6041 -67.5729,33.6297 -67.7676,33.6553 -67.9605,33.6937 -68.1502,33.7445 -68.3399,33.7954 -68.5261,33.8586 -68.7076,33.9338 -68.8891,34.0089 -69.0654,34.0959 -69.2355,34.1941 -69.2355,34.1941 -66.9855,38.0912 -66.9855,38.0912"/>
<path fill="#ff3030" stroke="black" stroke-width="0.5" d="M-66.9855,38.0912C-66.9855,38.0912 -69.2355,34.1941 -69.2355,34.1941 -69.4056,34.2923 -69.5691,34.4015 -69.7249,34.5211 -69.8808,34.6407 -70.0286,34.7703 -70.1675,34.9092 -70.3064,35.0481 -70.436,35.196 -70.5556,35.3518 -70.6752,35.5076 -70.7844,35.6711 -70.8826,35.8412 -70.9808,36.0113 -71.0678,36.1877 -71.143,36.3691 -71.2181,36.5506 -71.2813,36.7368 -71.3322,36.9265 -71.383,37.1162 -71.4214,37.3091 -71.447,37.5038 -71.4726,37.6986 -71.4855,37.8948 -71.4855,38.0912 -71.4855,38.2876 -71.4726,38.4838 -71.447,38.6786 -71.4214,38.8733 -71.383,39.0662 -71.3322,39.2559 -71.2813,39.4456 -71.2181,39.6318 -71.143,39.8133 -71.0678,39.9948 -70.9808,40.1711 -70.8826,40.3412 -70.7844,40.5113 -70.6752,40.6748 -70.5556,40.8306 -70.436,40.9865 -70.3064,41.1343 -70.1675,41.2732 -70.0286,41.4121 -69.8808,41.5417 -69.7249,41.6613 -69.5691,41.7809 -69.4056,41.8901 -69.2355,41.9883 -69.0654,42.0865 -68.8891,42.1735 -68.7076,42.2487 -68.5261,42.3238 -68.3399,42.387 -68.1502,42.4379 -67.9605,42.4887 -67.7676,42.5271 -67.5729,42.5527 -67.3781,42.5783 -67.1819,42.5912 -66.9855,42.5912 -66.7891,42.5912 -66.5929,42.5783 -66.3981,42.5527 -66.2034,42.5271 -66.0105,42.4887 -65.8208,42.4379 -65.6311,42.387 -65.4449,42.3238 -65.2634,42.2487 -65.082,42.1735 -64.9056,42.0865 -64.7355,41.9883 -64.5654,41.8901 -64.4019,41.7809 -64.2461,41.6613 -64.0903,41.5417 -63.9424,41.4121 -63.8035,41.2732 -63.6646,41.1343 -63.535,40.9865 -63.4154,40.8306 -63.2958,40.6748 -63.1866,40.5113 -63.0884,40.3412 -62.9902,40.1711 -62.9032,39.9948 -62.8281,39.8133 -62.7529,39.6318 -62.6897,39.4456 -62.6388,39.2559 -62.588,39.0662 -62.5496,38.8733 -62.524,38.6786 -62.4984,38.4838 -62.4855,38.2876 -62.4855,38.0912 -62.4855,38.0912 -66.9855,38.0912 -66.9855,38.0912"/>
<ellipse fill="none" stroke="black" cx="-66.9855" cy="38.0912" rx="4.5" ry="4.5"/>
</g>
<!-- 6&#45;&gt;14 -->
<g id="edge40" class="edge"><title>6&#45;&gt;14</title>
<path fill="none" stroke="black" d="M-61.6517,-37.9628C-63.3339,-13.9772 -65.7626,20.6532 -66.6471,33.2657"/>
</g>
<!-- 17 -->
<g id="node18" class="node"><title>17</title>
<ellipse fill="#ff3030" stroke="black" cx="-87.6451" cy="-46.6086" rx="4.5" ry="4.5"/>
</g>
<!-- 6&#45;&gt;17 -->
<g id="edge41" class="edge"><title>6&#45;&gt;17</title>
<path fill="none" stroke="black" d="M-81.2158,-50.3159C-82.03,-49.8464 -82.7957,-49.4049 -83.4951,-49.0016"/>
</g>
<!-- 19 -->
<g id="node20" class="node"><title>19</title>
<path fill="#98f5ff" stroke="black" stroke-width="0.5" d="M-87.9873,-137.606C-87.9873,-137.606 -79.9873,-137.606 -79.9873,-137.606 -79.9873,-138.025 -80.0203,-138.444 -80.0858,-138.858 -80.1514,-139.272 -80.2494,-139.68 -80.3789,-140.078 -80.5084,-140.477 -80.669,-140.865 -80.8593,-141.238 -81.0496,-141.612 -81.2689,-141.969 -81.5152,-142.309 -81.7615,-142.648 -82.0341,-142.967 -82.3305,-143.263 -82.6268,-143.559 -82.946,-143.832 -83.2851,-144.078 -83.6241,-144.325 -83.982,-144.544 -84.3554,-144.734 -84.7288,-144.925 -85.1166,-145.085 -85.5152,-145.215 -85.9138,-145.344 -86.3219,-145.442 -86.7359,-145.508 -87.1498,-145.573 -87.5682,-145.606 -87.9873,-145.606 -88.4064,-145.606 -88.8249,-145.573 -89.2388,-145.508 -89.6528,-145.442 -90.0609,-145.344 -90.4595,-145.215 -90.8581,-145.085 -91.2459,-144.925 -91.6193,-144.734 -91.9927,-144.544 -92.3506,-144.325 -92.6896,-144.078 -93.0287,-143.832 -93.3479,-143.559 -93.6442,-143.263 -93.9405,-142.967 -94.2131,-142.648 -94.4595,-142.309 -94.4595,-142.309 -87.9873,-137.606 -87.9873,-137.606"/>
<path fill="deepskyblue" stroke="black" stroke-width="0.5" d="M-87.9873,-137.606C-87.9873,-137.606 -94.4595,-142.309 -94.4595,-142.309 -94.6442,-142.054 -94.8138,-141.789 -94.9673,-141.515 -95.1209,-141.241 -95.2581,-140.958 -95.3784,-140.668 -95.4986,-140.377 -95.6017,-140.08 -95.687,-139.778 -95.7723,-139.475 -95.8397,-139.168 -95.8888,-138.858 -95.938,-138.547 -95.9688,-138.234 -95.9812,-137.92 -95.9935,-137.606 -95.9873,-137.292 -95.9627,-136.979 -95.938,-136.665 -95.8949,-136.354 -95.8336,-136.046 -95.7723,-135.737 -95.6929,-135.433 -95.5958,-135.134 -95.4987,-134.835 -95.3841,-134.542 -95.2525,-134.257 -95.1209,-133.972 -94.9727,-133.694 -94.8085,-133.426 -94.6443,-133.158 -94.4644,-132.9 -94.2699,-132.654 -94.0753,-132.407 -93.8664,-132.172 -93.6442,-131.949 -93.422,-131.727 -93.1869,-131.518 -92.9401,-131.324 -92.6933,-131.129 -92.4353,-130.949 -92.1673,-130.785 -91.8994,-130.621 -91.622,-130.473 -91.3366,-130.341 -91.0512,-130.21 -90.7583,-130.095 -90.4595,-129.998 -90.1606,-129.901 -89.8563,-129.821 -89.5481,-129.76 -89.2399,-129.699 -88.9283,-129.656 -88.615,-129.631 -88.3017,-129.606 -87.9873,-129.6 -87.6733,-129.612 -87.3593,-129.625 -87.0462,-129.656 -86.7359,-129.705 -86.4255,-129.754 -86.1183,-129.821 -85.8158,-129.907 -85.5134,-129.992 -85.2162,-130.095 -84.9259,-130.215 -84.6355,-130.335 -84.3526,-130.473 -84.0784,-130.626 -83.8042,-130.78 -83.5393,-130.949 -83.2851,-131.134 -83.0308,-131.319 -82.7877,-131.518 -82.5569,-131.732 -82.3262,-131.945 -82.1082,-132.172 -81.9041,-132.411 -81.7,-132.65 -81.5102,-132.9 -81.3356,-133.162 -81.161,-133.423 -81.002,-133.694 -80.8593,-133.974 -80.7166,-134.254 -80.5906,-134.542 -80.4818,-134.837 -80.373,-135.132 -80.2817,-135.433 -80.2084,-135.739 -80.135,-136.044 -80.0797,-136.354 -80.0428,-136.666 -80.0059,-136.978 -79.9873,-137.292 -79.9873,-137.606 -79.9873,-137.606 -87.9873,-137.606 -87.9873,-137.606"/>
<ellipse fill="none" stroke="black" cx="-87.9873" cy="-137.606" rx="8" ry="8"/>
</g>
<!-- 6&#45;&gt;19 -->
<g id="edge42" class="edge"><title>6&#45;&gt;19</title>
<path fill="none" stroke="black" d="M-68.6498,-85.9164C-74.3134,-101.055 -81.3296,-119.81 -85.1616,-130.053"/>
</g>
<!-- 26 -->
<g id="node27" class="node"><title>26</title>
<ellipse fill="deepskyblue" stroke="black" cx="-30.6068" cy="-79.7141" rx="3.5" ry="3.5"/>
</g>
<!-- 6&#45;&gt;26 -->
<g id="edge43" class="edge"><title>6&#45;&gt;26</title>
<path fill="none" stroke="black" d="M-38.618,-75.0357C-36.7708,-76.1144 -35.1023,-77.0888 -33.7722,-77.8656"/>
</g>
<!-- 31 -->
<g id="node32" class="node"><title>31</title>
<path fill="#98f5ff" stroke="black" stroke-width="0.5" d="M-87.7202,13.8791C-87.7202,13.8791 -78.7202,13.8791 -78.7202,13.8791 -78.7202,13.3879 -78.7604,12.8976 -78.8404,12.413 -78.9204,11.9284 -79.0399,11.4512 -79.1978,10.9861 -79.3557,10.521 -79.5513,10.0696 -79.7829,9.63648 -80.0144,9.20333 -80.281,8.78985 -80.58,8.4002 -80.879,8.01055 -81.2094,7.64602 -81.5678,7.31028 -81.9263,6.97453 -82.3117,6.66869 -82.72,6.39583 -83.1284,6.12296 -83.5584,5.88398 -84.0058,5.68128 -84.4532,5.47858 -84.9164,5.31284 -85.3908,5.18572 -85.8652,5.0586 -86.3492,4.97053 -86.838,4.92239 -87.3268,4.87425 -87.8187,4.8662 -88.3088,4.89832 -88.7989,4.93045 -89.2855,5.00263 -89.7638,5.11416 -90.2422,5.22569 -90.7105,5.37618 -91.1643,5.56414 -91.6181,5.75209 -92.0557,5.97687 -92.4728,6.23623 -92.8899,6.49559 -93.285,6.78866 -93.6543,7.1125 -94.0235,7.43633 -94.3657,7.78985 -94.6773,8.16951 -94.9888,8.54918 -95.2688,8.95371 -95.5144,9.37905 -95.5144,9.37905 -87.7202,13.8791 -87.7202,13.8791"/>
<path fill="deepskyblue" stroke="black" stroke-width="0.5" d="M-87.7202,13.8791C-87.7202,13.8791 -95.5144,9.37905 -95.5144,9.37905 -95.6862,9.67671 -95.8409,9.98397 -95.9776,10.2993 -96.1143,10.6147 -96.2329,10.9376 -96.3326,11.2665 -96.4324,11.5954 -96.5132,11.9297 -96.5748,12.2679 -96.6363,12.6061 -96.6784,12.9475 -96.7009,13.2904 -96.7234,13.6334 -96.7262,13.9774 -96.7093,14.3207 -96.6925,14.664 -96.6559,15.006 -96.6,15.3451 -96.544,15.6842 -96.4686,16.0199 -96.3742,16.3504 -96.2798,16.6808 -96.1666,17.0057 -96.0351,17.3232 -95.9035,17.6407 -95.7539,17.9505 -95.587,18.2509 -95.42,18.5514 -95.236,18.842 -95.0358,19.1214 -94.8356,19.4007 -94.6195,19.6684 -94.3887,19.9231 -94.1579,20.1778 -93.9127,20.419 -93.6543,20.6456 -93.3959,20.8722 -93.1247,21.0839 -92.8421,21.2795 -92.5594,21.4751 -92.2659,21.6543 -91.9627,21.8163 -91.6596,21.9784 -91.3475,22.1229 -91.0278,22.2492 -90.7082,22.3755 -90.3815,22.4834 -90.0495,22.5724 -89.7175,22.6613 -89.3807,22.7312 -89.0407,22.7816 -88.7007,22.8321 -88.3582,22.863 -88.0146,22.8742 -87.6711,22.8855 -87.3272,22.877 -86.9847,22.849 -86.6421,22.8209 -86.3014,22.7732 -85.9643,22.7061 -85.6272,22.6391 -85.2943,22.5528 -84.967,22.4476 -84.6398,22.3425 -84.3189,22.2187 -84.0058,22.0768 -83.6927,21.935 -83.388,21.7753 -83.0932,21.5986 -82.7984,21.4219 -82.514,21.2285 -82.2413,21.0192 -81.9686,20.81 -81.7082,20.5853 -81.4612,20.3463 -81.2142,20.1073 -80.9811,19.8543 -80.7631,19.5886 -80.545,19.3229 -80.3424,19.0449 -80.1561,18.7561 -79.9699,18.4672 -79.8003,18.1679 -79.6483,17.8597 -79.4963,17.5514 -79.3621,17.2347 -79.2463,16.9111 -79.1305,16.5874 -79.0333,16.2575 -78.9553,15.9227 -78.8772,15.588 -78.8184,15.2491 -78.7791,14.9076 -78.7398,14.5662 -78.7202,14.2228 -78.7202,13.8791 -78.7202,13.8791 -87.7202,13.8791 -87.7202,13.8791"/>
<ellipse fill="none" stroke="black" cx="-87.7202" cy="13.8791" rx="9" ry="9"/>
</g>
<!-- 6&#45;&gt;31 -->
<g id="edge47" class="edge"><title>6&#45;&gt;31</title>
<path fill="none" stroke="black" d="M-68.4151,-39.2333C-73.9071,-24.1235 -80.7339,-5.34171 -84.6226,5.35701"/>
</g>
<!-- 96 -->
<g id="node97" class="node"><title>96</title>
<ellipse fill="brown" stroke="black" cx="-59.8958" cy="-20.9619" rx="2.5" ry="2.5"/>
</g>
<!-- 6&#45;&gt;96 -->
<g id="edge48" class="edge"><title>6&#45;&gt;96</title>
<path fill="none" stroke="black" d="M-59.9074,-37.8948C-59.9034,-32.0119 -59.8997,-26.5579 -59.8976,-23.5035"/>
</g>
<!-- 97 -->
<g id="node98" class="node"><title>97</title>
<ellipse fill="brown" stroke="black" cx="-125.559" cy="-30.6066" rx="4.5" ry="4.5"/>
</g>
<!-- 6&#45;&gt;97 -->
<g id="edge49" class="edge"><title>6&#45;&gt;97</title>
<path fill="none" stroke="black" d="M-82.6409,-53.2023C-84.343,-52.4949 -86.0337,-51.7911 -87.6695,-51.1086 -89.0822,-50.5191 -89.4668,-50.4409 -90.8443,-49.7733 -102.244,-44.2487 -115.19,-36.7642 -121.571,-32.9911"/>
</g>
<!-- 100 -->
<g id="node101" class="node"><title>100</title>
<ellipse fill="brown" stroke="black" cx="-10.3704" cy="-120.791" rx="5.5" ry="5.5"/>
</g>
<!-- 6&#45;&gt;100 -->
<g id="edge52" class="edge"><title>6&#45;&gt;100</title>
<path fill="none" stroke="black" d="M-43.9724,-81.3276C-33.3341,-93.8216 -20.1991,-109.248 -13.9716,-116.562"/>
</g>
<!-- 101 -->
<g id="node102" class="node"><title>101</title>
<ellipse fill="brown" stroke="black" cx="-25.8975" cy="-42.8067" rx="2.5" ry="2.5"/>
</g>
<!-- 6&#45;&gt;101 -->
<g id="edge53" class="edge"><title>6&#45;&gt;101</title>
<path fill="none" stroke="black" d="M-38.5679,-50.1744C-34.295,-47.6898 -30.4139,-45.4329 -28.1039,-44.0897"/>
</g>
<!-- 109 -->
<g id="node110" class="node"><title>109</title>
<ellipse fill="brown" stroke="black" cx="-68.0196" cy="-91.7408" rx="2.5" ry="2.5"/>
</g>
<!-- 6&#45;&gt;109 -->
<g id="edge54" class="edge"><title>6&#45;&gt;109</title>
<path fill="none" stroke="black" d="M-66.5348,-86.3946C-66.8096,-87.3843 -67.0577,-88.2775 -67.2689,-89.0379"/>
</g>
<!-- anon_6_27_0 -->
<g id="node129" class="node"><title>anon_6_27_0</title>
<ellipse fill="white" stroke="black" cx="-124.773" cy="-54.9556" rx="1" ry="1"/>
</g>
<!-- 6&#45;&gt;anon_6_27_0 -->
<g id="edge44" class="edge"><title>6&#45;&gt;anon_6_27_0</title>
<path fill="none" stroke="black" d="M-84.4408,-59.7056C-100.222,-57.8469 -118.666,-55.6749 -123.541,-55.1007"/>
</g>
<!-- anon_6_99_0 -->
<g id="node131" class="node"><title>anon_6_99_0</title>
<ellipse fill="white" stroke="black" cx="-52.6721" cy="-124.9" rx="1" ry="1"/>
</g>
<!-- 6&#45;&gt;anon_6_99_0 -->
<g id="edge50" class="edge"><title>6&#45;&gt;anon_6_99_0</title>
<path fill="none" stroke="black" d="M-57.0581,-87.2182C-55.316,-102.185 -53.3289,-119.256 -52.8045,-123.762"/>
</g>
<!-- 119 -->
<g id="node120" class="node"><title>119</title>
<ellipse fill="black" stroke="black" cx="-142.564" cy="-160.514" rx="4.5" ry="4.5"/>
</g>
<!-- 8&#45;&gt;119 -->
<g id="edge55" class="edge"><title>8&#45;&gt;119</title>
<path fill="none" stroke="black" d="M-104.115,-116.079C-111.759,-124.913 -131.998,-148.302 -139.612,-157.102"/>
</g>
<!-- 9 -->
<g id="node10" class="node"><title>9</title>
<ellipse fill="deepskyblue" stroke="black" cx="-101.475" cy="148.482" rx="2.5" ry="2.5"/>
</g>
<!-- 15 -->
<g id="node16" class="node"><title>15</title>
<path fill="#98f5ff" stroke="black" stroke-width="0.5" d="M-55.3813,106.814C-55.3813,106.814 -42.8813,106.814 -42.8813,106.814 -42.8813,106.356 -42.9065,105.898 -42.9568,105.442 -43.0071,104.987 -43.0824,104.534 -43.1824,104.087 -43.2823,103.64 -43.4068,103.199 -43.5552,102.765 -43.7037,102.331 -43.8759,101.906 -44.071,101.492 -44.2661,101.077 -44.4839,100.673 -44.7233,100.283 -44.9628,99.892 -45.2235,99.5147 -45.5044,99.1526 -45.7852,98.7905 -46.0858,98.4441 -46.4047,98.1151 -46.7236,97.786 -47.0604,97.4747 -47.4135,97.1825 -47.7666,96.8904 -48.1355,96.618 -48.5185,96.3664 -48.9015,96.1148 -49.2981,95.8844 -49.7064,95.6764 -50.1147,95.4683 -50.5342,95.2829 -50.9629,95.1209 -51.3916,94.9589 -51.8288,94.8206 -52.2727,94.7067 -52.7166,94.5927 -53.1664,94.5032 -53.62,94.4387 -54.0737,94.3741 -54.5306,94.3345 -54.9887,94.3201 -55.4467,94.3057 -55.9052,94.3165 -56.362,94.3525 -56.8189,94.3884 -57.2734,94.4495 -57.7236,94.5354 -57.7236,94.5354 -55.3813,106.814 -55.3813,106.814"/>
<path fill="deepskyblue" stroke="black" stroke-width="0.5" d="M-55.3813,106.814C-55.3813,106.814 -57.7236,94.5354 -57.7236,94.5354 -58.3024,94.6458 -58.8728,94.797 -59.4303,94.9879 -59.9878,95.1788 -60.5311,95.4088 -61.0562,95.6764 -61.5813,95.9439 -62.0867,96.2482 -62.5689,96.5871 -63.051,96.9259 -63.5086,97.2985 -63.9381,97.7019 -64.3677,98.1053 -64.7682,98.5385 -65.1367,98.9984 -65.5051,99.4583 -65.8406,99.9437 -66.1406,100.451 -66.4406,100.958 -66.7043,101.486 -66.9298,102.03 -67.1553,102.575 -67.342,103.135 -67.4886,103.705 -67.6352,104.276 -67.7412,104.857 -67.8058,105.442 -67.8705,106.028 -67.8937,106.618 -67.8751,107.207 -67.8566,107.796 -67.7965,108.383 -67.6952,108.963 -67.5939,109.544 -67.4516,110.116 -67.2695,110.677 -67.0874,111.237 -66.8659,111.784 -66.6067,112.313 -66.3474,112.842 -66.0511,113.353 -65.7198,113.84 -65.3886,114.327 -65.0233,114.791 -64.6267,115.227 -64.2301,115.662 -63.8032,116.07 -63.3491,116.445 -62.8951,116.821 -62.415,117.164 -61.9125,117.472 -61.4101,117.78 -60.8865,118.052 -60.3457,118.286 -59.8048,118.52 -59.2481,118.715 -58.6797,118.871 -58.1113,119.026 -57.5326,119.142 -56.948,119.215 -56.3633,119.289 -55.7742,119.322 -55.185,119.312 -54.5957,119.303 -54.0079,119.252 -53.4259,119.16 -52.8438,119.068 -52.269,118.935 -51.7058,118.761 -51.1426,118.588 -50.5923,118.375 -50.0591,118.124 -49.5259,117.873 -49.0111,117.585 -48.5185,117.262 -48.026,116.938 -47.5569,116.58 -47.1149,116.19 -46.6729,115.801 -46.259,115.38 -45.8762,114.932 -45.4935,114.484 -45.143,114.009 -44.8272,113.512 -44.5115,113.014 -44.2313,112.495 -43.9888,111.958 -43.7463,111.421 -43.542,110.867 -43.3776,110.301 -43.2132,109.735 -43.089,109.159 -43.006,108.575 -42.923,107.992 -42.8813,107.403 -42.8813,106.814 -42.8813,106.814 -55.3813,106.814 -55.3813,106.814"/>
<ellipse fill="none" stroke="black" cx="-55.3813" cy="106.814" rx="12.5" ry="12.5"/>
</g>
<!-- 9&#45;&gt;15 -->
<g id="edge56" class="edge"><title>9&#45;&gt;15</title>
<path fill="none" stroke="black" d="M-99.4946,146.692C-93.6358,141.395 -76.1052,125.548 -64.988,115.498"/>
</g>
<!-- 11&#45;&gt;97 -->
<g id="edge144" class="edge"><title>11&#45;&gt;97</title>
<path fill="none" stroke="black" stroke-dasharray="5,2" d="M-163.948,2.65802C-157.364,-3.04666 -137.637,-20.1409 -129.321,-27.3466"/>
</g>
<!-- 12 -->
<g id="node13" class="node"><title>12</title>
<ellipse fill="deepskyblue" stroke="black" cx="-9.40938" cy="145.258" rx="2.5" ry="2.5"/>
</g>
<!-- 12&#45;&gt;15 -->
<g id="edge57" class="edge"><title>12&#45;&gt;15</title>
<path fill="none" stroke="black" d="M-11.3847,143.606C-17.1593,138.777 -34.3025,124.441 -45.4061,115.156"/>
</g>
<!-- 28 -->
<g id="node29" class="node"><title>28</title>
<ellipse fill="#ff3030" stroke="black" cx="-15.625" cy="60.223" rx="2.5" ry="2.5"/>
</g>
<!-- 13&#45;&gt;28 -->
<g id="edge58" class="edge"><title>13&#45;&gt;28</title>
<path fill="none" stroke="black" d="M-29.913,14.4459C-26.4948,25.3974 -18.9394,49.604 -16.4432,57.6015"/>
</g>
<!-- 14&#45;&gt;15 -->
<g id="edge59" class="edge"><title>14&#45;&gt;15</title>
<path fill="none" stroke="black" d="M-66.2241,42.6003C-64.4694,52.992 -60.0909,78.9226 -57.466,94.4682"/>
</g>
<!-- 123 -->
<g id="node124" class="node"><title>123</title>
<ellipse fill="white" stroke="black" cx="-106.658" cy="63.6494" rx="1" ry="1"/>
</g>
<!-- 14&#45;&gt;123 -->
<g id="edge60" class="edge"><title>14&#45;&gt;123</title>
<path fill="none" stroke="black" d="M-70.9345,40.6353C-79.7149,46.2918 -100.481,59.6696 -105.535,62.9257"/>
</g>
<!-- anon_15_23_0 -->
<g id="node132" class="node"><title>anon_15_23_0</title>
<ellipse fill="white" stroke="black" cx="-54.1115" cy="165.478" rx="1" ry="1"/>
</g>
<!-- 15&#45;&gt;anon_15_23_0 -->
<g id="edge61" class="edge"><title>15&#45;&gt;anon_15_23_0</title>
<path fill="none" stroke="black" d="M-55.1058,119.543C-54.779,134.64 -54.2628,158.486 -54.1389,164.212"/>
</g>
<!-- 33 -->
<g id="node34" class="node"><title>33</title>
<ellipse fill="deepskyblue" stroke="black" cx="-120.962" cy="-192.341" rx="2.5" ry="2.5"/>
</g>
<!-- 19&#45;&gt;33 -->
<g id="edge64" class="edge"><title>19&#45;&gt;33</title>
<path fill="none" stroke="black" d="M-92.2982,-144.762C-99.8398,-157.28 -115.061,-182.546 -119.634,-190.136"/>
</g>
<!-- 20 -->
<g id="node21" class="node"><title>20</title>
<ellipse fill="deepskyblue" stroke="black" cx="-177.349" cy="124.982" rx="2.5" ry="2.5"/>
</g>
<!-- anon_20_123_0 -->
<g id="node134" class="node"><title>anon_20_123_0</title>
<ellipse fill="white" stroke="black" cx="-142.5" cy="93.9011" rx="1" ry="1"/>
</g>
<!-- 20&#45;&gt;anon_20_123_0 -->
<g id="edge65" class="edge"><title>20&#45;&gt;anon_20_123_0</title>
<path fill="none" stroke="black" d="M-175.476,123.311C-169.142,117.662 -148.645,99.3819 -143.62,94.9"/>
</g>
<!-- 23 -->
<g id="node24" class="node"><title>23</title>
<ellipse fill="deepskyblue" stroke="black" cx="-52.9898" cy="249.611" rx="2.5" ry="2.5"/>
</g>
<!-- 27 -->
<g id="node28" class="node"><title>27</title>
<ellipse fill="#ff3030" stroke="black" cx="-227.59" cy="-31.3579" rx="3.5" ry="3.5"/>
</g>
<!-- 31&#45;&gt;123 -->
<g id="edge145" class="edge"><title>31&#45;&gt;123</title>
<path fill="none" stroke="black" stroke-dasharray="5,2" d="M-91.0189,22.5484C-95.7665,35.0255 -104.18,57.1356 -106.209,62.4682"/>
</g>
<!-- 32&#45;&gt;97 -->
<g id="edge146" class="edge"><title>32&#45;&gt;97</title>
<path fill="none" stroke="black" stroke-dasharray="5,2" d="M-175.139,-39.7784C-166.929,-38.2595 -140.806,-33.4271 -130.151,-31.456"/>
</g>
<!-- 35 -->
<g id="node36" class="node"><title>35</title>
<ellipse fill="#ff3030" stroke="black" cx="170.364" cy="18.5366" rx="2.5" ry="2.5"/>
</g>
<!-- 37 -->
<g id="node38" class="node"><title>37</title>
<ellipse fill="#ff3030" stroke="black" cx="-223.22" cy="-166.226" rx="2.5" ry="2.5"/>
</g>
<!-- 37&#45;&gt;122 -->
<g id="edge67" class="edge"><title>37&#45;&gt;122</title>
<path fill="none" stroke="black" d="M-221.115,-164.745C-213.999,-159.741 -190.971,-143.548 -185.326,-139.578"/>
</g>
<!-- 40 -->
<g id="node41" class="node"><title>40</title>
<ellipse fill="deepskyblue" stroke="black" cx="139.17" cy="-194.412" rx="2.5" ry="2.5"/>
</g>
<!-- 41 -->
<g id="node42" class="node"><title>41</title>
<path fill="#1874cd" stroke="black" stroke-width="0.5" d="M298.638,-255.694C298.638,-255.694 331.138,-255.694 331.138,-255.694 331.138,-256.613 331.099,-257.532 331.021,-258.448 330.943,-259.364 330.826,-260.276 330.671,-261.182 330.516,-262.089 330.322,-262.988 330.091,-263.877 329.859,-264.767 329.59,-265.646 329.284,-266.513 328.978,-267.38 328.635,-268.233 328.257,-269.071 327.879,-269.909 327.465,-270.73 327.017,-271.533 326.569,-272.336 326.087,-273.119 325.573,-273.881 325.058,-274.643 324.512,-275.383 323.935,-276.098 323.357,-276.814 322.75,-277.504 322.115,-278.168 321.479,-278.832 320.815,-279.469 320.126,-280.077 319.436,-280.685 318.721,-281.263 317.982,-281.81 317.243,-282.357 316.482,-282.873 315.699,-283.355 314.917,-283.838 314.115,-284.287 313.294,-284.702 312.474,-285.116 311.636,-285.496 310.783,-285.839 309.931,-286.183 309.064,-286.49 308.185,-286.76 307.306,-287.03 306.417,-287.263 305.518,-287.458 304.62,-287.652 303.713,-287.809 302.802,-287.926 301.89,-288.044 300.974,-288.123 300.055,-288.163 299.137,-288.203 298.217,-288.204 297.299,-288.167 296.38,-288.129 295.464,-288.052 294.552,-287.936 293.64,-287.821 292.733,-287.667 291.834,-287.474 290.935,-287.282 290.045,-287.051 289.166,-286.783 288.286,-286.515 287.419,-286.21 286.565,-285.869 285.712,-285.527 284.873,-285.15 284.052,-284.737 283.23,-284.325 282.427,-283.877 281.643,-283.397 280.859,-282.916 280.097,-282.402 279.357,-281.857 278.617,-281.312 277.9,-280.735 277.209,-280.129 276.518,-279.523 275.853,-278.888 275.215,-278.225 274.578,-277.563 273.969,-276.873 273.39,-276.159 272.812,-275.445 272.263,-274.707 271.747,-273.946 271.231,-273.186 270.747,-272.403 270.297,-271.602 269.847,-270.8 269.431,-269.98 269.051,-269.143 268.671,-268.306 268.326,-267.454 268.018,-266.587 267.71,-265.721 267.438,-264.843 267.205,-263.953 266.971,-263.064 266.775,-262.166 266.618,-261.26 266.46,-260.354 266.341,-259.442 266.261,-258.527 266.181,-257.611 266.14,-256.692 266.138,-255.773 266.136,-254.854 266.172,-253.935 266.248,-253.019 266.324,-252.102 266.438,-251.19 266.591,-250.283 266.744,-249.377 266.936,-248.478 267.165,-247.587 267.394,-246.697 267.661,-245.817 267.965,-244.949 268.269,-244.082 268.61,-243.228 268.986,-242.389 269.362,-241.55 269.774,-240.728 270.22,-239.924 270.666,-239.12 271.146,-238.336 271.659,-237.573 272.171,-236.81 272.716,-236.069 273.291,-235.352 273.867,-234.635 274.472,-233.943 275.106,-233.277 275.741,-232.611 276.403,-231.973 277.091,-231.364 277.779,-230.754 278.493,-230.174 279.23,-229.625 279.967,-229.076 280.728,-228.559 281.509,-228.074 282.29,-227.59 283.092,-227.139 283.911,-226.722 284.731,-226.306 285.567,-225.924 286.419,-225.578 287.271,-225.233 288.137,-224.924 289.015,-224.651 289.893,-224.379 290.782,-224.144 291.68,-223.948 292.578,-223.751 293.484,-223.592 294.396,-223.472 295.307,-223.352 296.223,-223.271 297.141,-223.229 298.06,-223.186 298.979,-223.183 299.898,-223.219 300.816,-223.254 301.733,-223.329 302.645,-223.442 303.558,-223.556 304.465,-223.708 305.364,-223.898 306.263,-224.088 307.154,-224.316 308.034,-224.582 308.914,-224.848 309.783,-225.151 310.637,-225.49 311.491,-225.83 312.331,-226.205 313.153,-226.616 313.976,-227.026 314.78,-227.472 315.565,-227.95 316.35,-228.429 317.114,-228.941 317.855,-229.485 318.597,-230.028 319.315,-230.603 320.007,-231.207 320.007,-231.207 298.638,-255.694 298.638,-255.694"/>
<path fill="olivedrab" stroke="black" stroke-width="0.5" d="M298.638,-255.694C298.638,-255.694 320.007,-231.207 320.007,-231.207 320.878,-231.967 321.708,-232.773 322.492,-233.622 323.277,-234.47 324.017,-235.359 324.707,-236.286 325.397,-237.214 326.037,-238.177 326.625,-239.172 327.212,-240.167 327.746,-241.193 328.224,-242.245 328.703,-243.297 329.125,-244.374 329.488,-245.471 329.852,-246.569 330.156,-247.684 330.401,-248.814 330.646,-249.943 330.83,-251.085 330.953,-252.234 331.076,-253.383 331.138,-254.538 331.138,-255.694 331.138,-255.694 298.638,-255.694 298.638,-255.694"/>
<ellipse fill="none" stroke="black" cx="298.638" cy="-255.694" rx="32.5" ry="32.5"/>
</g>
<!-- 43 -->
<g id="node44" class="node"><title>43</title>
<ellipse fill="#1874cd" stroke="black" cx="382.816" cy="-269.76" rx="2.5" ry="2.5"/>
</g>
<!-- 41&#45;&gt;43 -->
<g id="edge68" class="edge"><title>41&#45;&gt;43</title>
<path fill="none" stroke="black" d="M330.943,-261.092C350.23,-264.315 372.42,-268.023 380.063,-269.3"/>
</g>
<!-- 47 -->
<g id="node48" class="node"><title>47</title>
<ellipse fill="#1874cd" stroke="black" cx="193.33" cy="-243.451" rx="2.5" ry="2.5"/>
</g>
<!-- 41&#45;&gt;47 -->
<g id="edge69" class="edge"><title>41&#45;&gt;47</title>
<path fill="none" stroke="black" d="M266.183,-251.921C239.834,-248.857 205.53,-244.869 195.927,-243.753"/>
</g>
<!-- 48 -->
<g id="node49" class="node"><title>48</title>
<ellipse fill="#1874cd" stroke="black" cx="247.919" cy="-312.575" rx="2.5" ry="2.5"/>
</g>
<!-- 41&#45;&gt;48 -->
<g id="edge70" class="edge"><title>41&#45;&gt;48</title>
<path fill="none" stroke="black" d="M276.834,-280.147C265.88,-292.432 254.022,-305.73 249.657,-310.625"/>
</g>
<!-- 52 -->
<g id="node53" class="node"><title>52</title>
<ellipse fill="#1874cd" stroke="black" cx="349.438" cy="-259.08" rx="2.5" ry="2.5"/>
</g>
<!-- 41&#45;&gt;52 -->
<g id="edge71" class="edge"><title>41&#45;&gt;52</title>
<path fill="none" stroke="black" d="M331.098,-257.858C337.631,-258.293 343.488,-258.683 346.742,-258.9"/>
</g>
<!-- 53 -->
<g id="node54" class="node"><title>53</title>
<ellipse fill="#1874cd" stroke="black" cx="230.714" cy="-250.337" rx="2.5" ry="2.5"/>
</g>
<!-- 41&#45;&gt;53 -->
<g id="edge72" class="edge"><title>41&#45;&gt;53</title>
<path fill="none" stroke="black" d="M265.87,-253.11C252.571,-252.061 239.028,-250.993 233.411,-250.55"/>
</g>
<!-- 57 -->
<g id="node58" class="node"><title>57</title>
<ellipse fill="#1874cd" stroke="black" cx="293.046" cy="-184.718" rx="2.5" ry="2.5"/>
</g>
<!-- 41&#45;&gt;57 -->
<g id="edge80" class="edge"><title>41&#45;&gt;57</title>
<path fill="none" stroke="black" d="M296.071,-223.114C294.923,-208.538 293.722,-193.302 293.252,-187.334"/>
</g>
<!-- 60 -->
<g id="node61" class="node"><title>60</title>
<ellipse fill="#1874cd" stroke="black" cx="326.737" cy="-172.154" rx="3.5" ry="3.5"/>
</g>
<!-- 41&#45;&gt;60 -->
<g id="edge81" class="edge"><title>41&#45;&gt;60</title>
<path fill="none" stroke="black" d="M309.101,-224.587C315.342,-206.031 322.596,-184.466 325.471,-175.92"/>
</g>
<!-- 62 -->
<g id="node63" class="node"><title>62</title>
<ellipse fill="#1874cd" stroke="black" cx="256.62" cy="-352.137" rx="2.5" ry="2.5"/>
</g>
<!-- 41&#45;&gt;62 -->
<g id="edge84" class="edge"><title>41&#45;&gt;62</title>
<path fill="none" stroke="black" d="M285.573,-285.681C275.166,-309.568 261.709,-340.457 257.757,-349.526"/>
</g>
<!-- 64 -->
<g id="node65" class="node"><title>64</title>
<ellipse fill="#1874cd" stroke="black" cx="337.182" cy="-325.584" rx="2.5" ry="2.5"/>
</g>
<!-- 41&#45;&gt;64 -->
<g id="edge88" class="edge"><title>41&#45;&gt;64</title>
<path fill="none" stroke="black" d="M314.538,-284.525C322.999,-299.866 332.354,-316.83 335.806,-323.089"/>
</g>
<!-- 68 -->
<g id="node69" class="node"><title>68</title>
<ellipse fill="#1874cd" stroke="black" cx="333.28" cy="-214.778" rx="2.5" ry="2.5"/>
</g>
<!-- 41&#45;&gt;68 -->
<g id="edge89" class="edge"><title>41&#45;&gt;68</title>
<path fill="none" stroke="black" d="M319.986,-230.481C324.887,-224.692 329.333,-219.441 331.633,-216.724"/>
</g>
<!-- 69 -->
<g id="node70" class="node"><title>69</title>
<ellipse fill="#1874cd" stroke="black" cx="370.302" cy="-196.499" rx="2.5" ry="2.5"/>
</g>
<!-- 41&#45;&gt;69 -->
<g id="edge90" class="edge"><title>41&#45;&gt;69</title>
<path fill="none" stroke="black" d="M323.702,-234.991C340.816,-220.854 361.543,-203.734 368.162,-198.266"/>
</g>
<!-- 73 -->
<g id="node74" class="node"><title>73</title>
<ellipse fill="#1874cd" stroke="black" cx="235.225" cy="-277.36" rx="2.5" ry="2.5"/>
</g>
<!-- 41&#45;&gt;73 -->
<g id="edge91" class="edge"><title>41&#45;&gt;73</title>
<path fill="none" stroke="black" d="M267.674,-266.273C255.35,-270.484 242.876,-274.746 237.706,-276.512"/>
</g>
<!-- 78 -->
<g id="node79" class="node"><title>78</title>
<ellipse fill="#1874cd" stroke="black" cx="279.834" cy="-211.081" rx="3.5" ry="3.5"/>
</g>
<!-- 41&#45;&gt;78 -->
<g id="edge94" class="edge"><title>41&#45;&gt;78</title>
<path fill="none" stroke="black" d="M285.991,-225.689C284.078,-221.149 282.369,-217.095 281.24,-214.416"/>
</g>
<!-- 81 -->
<g id="node82" class="node"><title>81</title>
<ellipse fill="#1874cd" stroke="black" cx="241.189" cy="-224.461" rx="2.5" ry="2.5"/>
</g>
<!-- 41&#45;&gt;81 -->
<g id="edge95" class="edge"><title>41&#45;&gt;81</title>
<path fill="none" stroke="black" d="M269.913,-240.077C259.142,-234.221 248.37,-228.365 243.657,-225.803"/>
</g>
<!-- 83 -->
<g id="node84" class="node"><title>83</title>
<ellipse fill="#1874cd" stroke="black" cx="320.872" cy="-301.835" rx="2.5" ry="2.5"/>
</g>
<!-- 41&#45;&gt;83 -->
<g id="edge96" class="edge"><title>41&#45;&gt;83</title>
<path fill="none" stroke="black" d="M312.845,-285.177C315.704,-291.112 318.268,-296.431 319.692,-299.387"/>
</g>
<!-- 86 -->
<g id="node87" class="node"><title>86</title>
<ellipse fill="#1874cd" stroke="black" cx="363.154" cy="-293.258" rx="2.5" ry="2.5"/>
</g>
<!-- 41&#45;&gt;86 -->
<g id="edge97" class="edge"><title>41&#45;&gt;86</title>
<path fill="none" stroke="black" d="M326.748,-272.061C340.602,-280.127 355.494,-288.798 360.973,-291.988"/>
</g>
<!-- 88 -->
<g id="node89" class="node"><title>88</title>
<ellipse fill="#1874cd" stroke="black" cx="288.69" cy="-333.501" rx="3.5" ry="3.5"/>
</g>
<!-- 41&#45;&gt;88 -->
<g id="edge98" class="edge"><title>41&#45;&gt;88</title>
<path fill="none" stroke="black" d="M294.477,-288.241C292.389,-304.565 290.106,-322.423 289.15,-329.898"/>
</g>
<!-- 90 -->
<g id="node91" class="node"><title>90</title>
<ellipse fill="#1874cd" stroke="black" cx="350.634" cy="-180.433" rx="2.5" ry="2.5"/>
</g>
<!-- 41&#45;&gt;90 -->
<g id="edge99" class="edge"><title>41&#45;&gt;90</title>
<path fill="none" stroke="black" d="M317.116,-228.948C329.493,-211.034 344.357,-189.519 349.101,-182.653"/>
</g>
<!-- 95 -->
<g id="node96" class="node"><title>95</title>
<ellipse fill="#1874cd" stroke="black" cx="274.877" cy="-298.903" rx="2.5" ry="2.5"/>
</g>
<!-- 41&#45;&gt;95 -->
<g id="edge102" class="edge"><title>41&#45;&gt;95</title>
<path fill="none" stroke="black" d="M282.921,-284.274C280.16,-289.297 277.708,-293.755 276.257,-296.393"/>
</g>
<!-- 110 -->
<g id="node111" class="node"><title>110</title>
<ellipse fill="olivedrab" stroke="black" cx="255.787" cy="-187.141" rx="2.5" ry="2.5"/>
</g>
<!-- 41&#45;&gt;110 -->
<g id="edge103" class="edge"><title>41&#45;&gt;110</title>
<path fill="none" stroke="black" d="M281.209,-227.811C271.569,-212.39 260.811,-195.18 257.116,-189.268"/>
</g>
<!-- 112 -->
<g id="node113" class="node"><title>112</title>
<ellipse fill="olivedrab" stroke="black" cx="369.801" cy="-226.913" rx="2.5" ry="2.5"/>
</g>
<!-- 41&#45;&gt;112 -->
<g id="edge104" class="edge"><title>41&#45;&gt;112</title>
<path fill="none" stroke="black" d="M328.817,-243.488C344.273,-237.237 361.121,-230.423 367.328,-227.913"/>
</g>
<!-- anon_41_54_0 -->
<g id="node135" class="node"><title>anon_41_54_0</title>
<ellipse fill="white" stroke="black" cx="293.463" cy="-150.197" rx="1" ry="1"/>
</g>
<!-- 41&#45;&gt;anon_41_54_0 -->
<g id="edge73" class="edge"><title>41&#45;&gt;anon_41_54_0</title>
<path fill="none" stroke="black" d="M297.335,-223.191C296.822,-211.115 296.198,-197.299 295.546,-184.739 294.861,-171.54 293.815,-155.517 293.535,-151.271"/>
</g>
<!-- anon_41_56_0 -->
<g id="node138" class="node"><title>anon_41_56_0</title>
<ellipse fill="white" stroke="black" cx="401.116" cy="-234.066" rx="1" ry="1"/>
</g>
<!-- 41&#45;&gt;anon_41_56_0 -->
<g id="edge77" class="edge"><title>41&#45;&gt;anon_41_56_0</title>
<path fill="none" stroke="black" d="M330.501,-248.969C357.763,-243.216 393.608,-235.651 400.089,-234.283"/>
</g>
<!-- anon_41_61_0 -->
<g id="node140" class="node"><title>anon_41_61_0</title>
<ellipse fill="white" stroke="black" cx="226.318" cy="-190.922" rx="1" ry="1"/>
</g>
<!-- 41&#45;&gt;anon_41_61_0 -->
<g id="edge82" class="edge"><title>41&#45;&gt;anon_41_61_0</title>
<path fill="none" stroke="black" d="M274.154,-233.765C255.796,-217.323 232.94,-196.853 227.513,-191.992"/>
</g>
<!-- anon_41_63_0 -->
<g id="node141" class="node"><title>anon_41_63_0</title>
<ellipse fill="white" stroke="black" cx="379.332" cy="-320.483" rx="1" ry="1"/>
</g>
<!-- 41&#45;&gt;anon_41_63_0 -->
<g id="edge85" class="edge"><title>41&#45;&gt;anon_41_63_0</title>
<path fill="none" stroke="black" d="M324.17,-276.194C345.594,-293.396 373.491,-315.794 378.533,-319.842"/>
</g>
<!-- anon_41_76_0 -->
<g id="node143" class="node"><title>anon_41_76_0</title>
<ellipse fill="white" stroke="black" cx="214.675" cy="-304.043" rx="1" ry="1"/>
</g>
<!-- 41&#45;&gt;anon_41_76_0 -->
<g id="edge92" class="edge"><title>41&#45;&gt;anon_41_76_0</title>
<path fill="none" stroke="black" d="M270.212,-272.063C248.898,-284.336 222.363,-299.616 216.063,-303.244"/>
</g>
<!-- anon_41_91_0 -->
<g id="node144" class="node"><title>anon_41_91_0</title>
<ellipse fill="white" stroke="black" cx="319.08" cy="-351.684" rx="1" ry="1"/>
</g>
<!-- 41&#45;&gt;anon_41_91_0 -->
<g id="edge100" class="edge"><title>41&#45;&gt;anon_41_91_0</title>
<path fill="none" stroke="black" d="M305.445,-287.658C310.741,-312.527 317.419,-343.885 318.816,-350.447"/>
</g>
<!-- 42 -->
<g id="node43" class="node"><title>42</title>
<ellipse fill="#1874cd" stroke="black" cx="-1.06071" cy="-293.312" rx="15" ry="15"/>
</g>
<!-- 80 -->
<g id="node81" class="node"><title>80</title>
<ellipse fill="#1874cd" stroke="black" cx="-6.01495" cy="-233.013" rx="2.5" ry="2.5"/>
</g>
<!-- 42&#45;&gt;80 -->
<g id="edge105" class="edge"><title>42&#45;&gt;80</title>
<path fill="none" stroke="black" d="M-2.31087,-278.096C-3.50334,-263.582 -5.20332,-242.892 -5.79889,-235.643"/>
</g>
<!-- 87 -->
<g id="node88" class="node"><title>87</title>
<ellipse fill="#1874cd" stroke="black" cx="-60.7599" cy="-288.208" rx="2.5" ry="2.5"/>
</g>
<!-- 42&#45;&gt;87 -->
<g id="edge106" class="edge"><title>42&#45;&gt;87</title>
<path fill="none" stroke="black" d="M-16.1253,-292.024C-30.4947,-290.796 -50.9796,-289.044 -58.1563,-288.431"/>
</g>
<!-- anon_42_124_0 -->
<g id="node145" class="node"><title>anon_42_124_0</title>
<ellipse fill="white" stroke="black" cx="45.0404" cy="-331.205" rx="1" ry="1"/>
</g>
<!-- 42&#45;&gt;anon_42_124_0 -->
<g id="edge107" class="edge"><title>42&#45;&gt;anon_42_124_0</title>
<path fill="none" stroke="black" d="M10.5726,-302.874C22.5225,-312.696 39.9495,-327.02 44.1195,-330.448"/>
</g>
<!-- 44 -->
<g id="node45" class="node"><title>44</title>
<ellipse fill="#1874cd" stroke="black" cx="112.013" cy="-307.716" rx="6" ry="6"/>
</g>
<!-- 59 -->
<g id="node60" class="node"><title>59</title>
<ellipse fill="#1874cd" stroke="black" cx="148.516" cy="-272.912" rx="2.5" ry="2.5"/>
</g>
<!-- 44&#45;&gt;59 -->
<g id="edge109" class="edge"><title>44&#45;&gt;59</title>
<path fill="none" stroke="black" d="M116.489,-303.448C124.409,-295.897 140.602,-280.458 146.396,-274.934"/>
</g>
<!-- 124 -->
<g id="node125" class="node"><title>124</title>
<ellipse fill="white" stroke="black" cx="84.7836" cy="-351.357" rx="1" ry="1"/>
</g>
<!-- 44&#45;&gt;124 -->
<g id="edge110" class="edge"><title>44&#45;&gt;124</title>
<path fill="none" stroke="black" d="M108.674,-313.067C102.312,-323.264 88.7924,-344.932 85.512,-350.19"/>
</g>
<!-- 45&#45;&gt;100 -->
<g id="edge147" class="edge"><title>45&#45;&gt;100</title>
<path fill="none" stroke="black" stroke-dasharray="5,2" d="M28.2596,-101.363C21.4333,-104.796 3.46071,-113.835 -5.35266,-118.268"/>
</g>
<!-- 46 -->
<g id="node47" class="node"><title>46</title>
<path fill="#1874cd" stroke="black" stroke-width="0.5" d="M48.9194,-556.471C48.9194,-556.471 57.4194,-556.471 57.4194,-556.471 57.4194,-556.876 57.3905,-557.28 57.3329,-557.681 57.2753,-558.081 57.1891,-558.477 57.0751,-558.866 56.961,-559.254 56.8194,-559.634 56.6512,-560.002 56.4831,-560.37 56.2889,-560.726 56.07,-561.066 55.8512,-561.407 55.6083,-561.731 55.3432,-562.037 55.0782,-562.343 54.7916,-562.63 54.4857,-562.895 54.1798,-563.16 53.8553,-563.403 53.5148,-563.622 53.1743,-563.84 52.8186,-564.035 52.4504,-564.203 52.0822,-564.371 51.7025,-564.513 51.3141,-564.627 50.9257,-564.741 50.5297,-564.827 50.1291,-564.884 49.7284,-564.942 49.3241,-564.971 48.9194,-564.971 48.5146,-564.971 48.1104,-564.942 47.7097,-564.884 47.309,-564.827 46.913,-564.741 46.5247,-564.627 46.1363,-564.513 45.7565,-564.371 45.3883,-564.203 45.0202,-564.035 44.6644,-563.84 44.3239,-563.622 43.9834,-563.403 43.659,-563.16 43.3531,-562.895 43.0472,-562.63 42.7606,-562.343 42.4955,-562.037 42.2304,-561.731 41.9876,-561.407 41.7687,-561.066 41.5499,-560.726 41.3557,-560.37 41.1875,-560.002 41.0194,-559.634 40.8777,-559.254 40.7637,-558.866 40.6496,-558.477 40.5635,-558.081 40.5059,-557.681 40.4483,-557.28 40.4194,-556.876 40.4194,-556.471 40.4194,-556.066 40.4483,-555.662 40.5059,-555.261 40.5635,-554.861 40.6497,-554.465 40.7637,-554.076 40.8777,-553.688 41.0194,-553.308 41.1875,-552.94 41.3557,-552.572 41.5499,-552.216 41.7687,-551.876 41.9876,-551.535 42.2304,-551.211 42.4955,-550.905 42.7606,-550.599 43.0472,-550.312 43.3531,-550.047 43.659,-549.782 43.9834,-549.539 44.3239,-549.32 44.6644,-549.101 45.0202,-548.907 45.3884,-548.739 45.7565,-548.571 46.1363,-548.429 46.5247,-548.315 46.913,-548.201 47.3091,-548.115 47.7097,-548.057 47.7097,-548.057 48.9194,-556.471 48.9194,-556.471"/>
<path fill="olivedrab" stroke="black" stroke-width="0.5" d="M48.9194,-556.471C48.9194,-556.471 47.7097,-548.057 47.7097,-548.057 48.311,-547.971 48.9198,-547.949 49.5258,-547.993 50.1317,-548.036 50.7312,-548.144 51.3141,-548.315 51.897,-548.486 52.4598,-548.72 52.993,-549.011 53.5262,-549.302 54.0266,-549.649 54.4857,-550.047 54.9448,-550.445 55.3599,-550.891 55.724,-551.377 56.088,-551.863 56.3989,-552.387 56.6512,-552.94 56.9036,-553.493 57.096,-554.071 57.2251,-554.664 57.3543,-555.258 57.4194,-555.864 57.4194,-556.471 57.4194,-556.471 48.9194,-556.471 48.9194,-556.471"/>
<ellipse fill="none" stroke="black" cx="48.9194" cy="-556.471" rx="8.5" ry="8.5"/>
</g>
<!-- 49 -->
<g id="node50" class="node"><title>49</title>
<path fill="#1874cd" stroke="black" stroke-width="0.5" d="M117.681,-538.279C117.681,-538.279 127.681,-538.279 127.681,-538.279 127.681,-538.891 127.625,-539.501 127.514,-540.102 127.403,-540.703 127.236,-541.292 127.017,-541.863 126.798,-542.434 126.527,-542.983 126.208,-543.504 125.888,-544.026 125.522,-544.516 125.113,-544.971 124.704,-545.425 124.254,-545.841 123.769,-546.213 123.284,-546.585 122.766,-546.912 122.221,-547.189 121.677,-547.467 121.108,-547.694 120.522,-547.868 119.935,-548.041 119.335,-548.161 118.727,-548.225 118.119,-548.288 117.506,-548.297 116.897,-548.249 116.287,-548.201 115.684,-548.097 115.093,-547.939 114.503,-547.78 113.928,-547.568 113.376,-547.305 112.825,-547.042 112.298,-546.729 111.804,-546.37 111.309,-546.01 110.848,-545.606 110.428,-545.163 110.007,-544.72 109.628,-544.238 109.295,-543.726 108.962,-543.213 108.677,-542.671 108.443,-542.106 108.209,-541.541 108.027,-540.956 107.9,-540.358 107.9,-540.358 117.681,-538.279 117.681,-538.279"/>
<path fill="olivedrab" stroke="black" stroke-width="0.5" d="M117.681,-538.279C117.681,-538.279 107.9,-540.358 107.9,-540.358 107.755,-539.675 107.681,-538.978 107.681,-538.279 107.681,-537.581 107.755,-536.884 107.9,-536.2 108.045,-535.517 108.262,-534.85 108.546,-534.212 108.83,-533.574 109.181,-532.967 109.591,-532.402 110.002,-531.836 110.471,-531.315 110.99,-530.848 111.509,-530.38 112.076,-529.969 112.681,-529.619 113.287,-529.27 113.927,-528.985 114.591,-528.769 115.256,-528.553 115.941,-528.407 116.636,-528.334 117.331,-528.261 118.032,-528.261 118.727,-528.334 119.422,-528.407 120.107,-528.553 120.772,-528.769 121.436,-528.985 122.076,-529.27 122.681,-529.619 123.287,-529.969 123.853,-530.38 124.373,-530.848 124.892,-531.315 125.361,-531.836 125.772,-532.402 126.182,-532.967 126.533,-533.574 126.817,-534.212 127.101,-534.85 127.318,-535.517 127.463,-536.2 127.608,-536.884 127.681,-537.581 127.681,-538.279 127.681,-538.279 117.681,-538.279 117.681,-538.279"/>
<ellipse fill="none" stroke="black" cx="117.681" cy="-538.279" rx="10" ry="10"/>
</g>
<!-- 46&#45;&gt;49 -->
<g id="edge111" class="edge"><title>46&#45;&gt;49</title>
<path fill="none" stroke="black" d="M57.351,-554.24C70.1179,-550.863 94.2981,-544.466 107.848,-540.881"/>
</g>
<!-- 115 -->
<g id="node116" class="node"><title>115</title>
<ellipse fill="olivedrab" stroke="black" cx="-2.00776" cy="-570.858" rx="2.5" ry="2.5"/>
</g>
<!-- 46&#45;&gt;115 -->
<g id="edge112" class="edge"><title>46&#45;&gt;115</title>
<path fill="none" stroke="black" d="M40.5098,-558.847C28.7572,-562.167 8.03435,-568.021 0.676452,-570.1"/>
</g>
<!-- anon_47_58_0 -->
<g id="node146" class="node"><title>anon_47_58_0</title>
<ellipse fill="white" stroke="black" cx="147.316" cy="-238.361" rx="1" ry="1"/>
</g>
<!-- 47&#45;&gt;anon_47_58_0 -->
<g id="edge113" class="edge"><title>47&#45;&gt;anon_47_58_0</title>
<path fill="none" stroke="black" d="M190.589,-243.148C181.922,-242.189 155.291,-239.243 148.769,-238.522"/>
</g>
<!-- 51 -->
<g id="node52" class="node"><title>51</title>
<ellipse fill="#1874cd" stroke="black" cx="100.381" cy="-598.799" rx="4.5" ry="4.5"/>
</g>
<!-- 49&#45;&gt;51 -->
<g id="edge116" class="edge"><title>49&#45;&gt;51</title>
<path fill="none" stroke="black" d="M114.902,-548.003C111.119,-561.234 104.501,-584.385 101.697,-594.196"/>
</g>
<!-- 111 -->
<g id="node112" class="node"><title>111</title>
<ellipse fill="olivedrab" stroke="black" cx="74.9911" cy="-532.911" rx="2.5" ry="2.5"/>
</g>
<!-- 49&#45;&gt;111 -->
<g id="edge120" class="edge"><title>49&#45;&gt;111</title>
<path fill="none" stroke="black" d="M107.347,-536.98C97.4767,-535.739 83.2803,-533.954 77.5417,-533.232"/>
</g>
<!-- 113 -->
<g id="node114" class="node"><title>113</title>
<ellipse fill="olivedrab" stroke="black" cx="166.504" cy="-521.093" rx="2.5" ry="2.5"/>
</g>
<!-- 49&#45;&gt;113 -->
<g id="edge121" class="edge"><title>49&#45;&gt;113</title>
<path fill="none" stroke="black" d="M127.561,-534.801C139.153,-530.721 157.616,-524.222 164.132,-521.928"/>
</g>
<!-- 114 -->
<g id="node115" class="node"><title>114</title>
<ellipse fill="olivedrab" stroke="black" cx="137.259" cy="-577.325" rx="2.5" ry="2.5"/>
</g>
<!-- 49&#45;&gt;114 -->
<g id="edge122" class="edge"><title>49&#45;&gt;114</title>
<path fill="none" stroke="black" d="M122.222,-547.335C126.74,-556.347 133.377,-569.582 136.064,-574.941"/>
</g>
<!-- 116 -->
<g id="node117" class="node"><title>116</title>
<ellipse fill="olivedrab" stroke="black" cx="144.952" cy="-502.643" rx="2.5" ry="2.5"/>
</g>
<!-- 49&#45;&gt;116 -->
<g id="edge123" class="edge"><title>49&#45;&gt;116</title>
<path fill="none" stroke="black" d="M124.006,-530.014C130.3,-521.79 139.544,-509.71 143.287,-504.819"/>
</g>
<!-- anon_49_65_0 -->
<g id="node148" class="node"><title>anon_49_65_0</title>
<ellipse fill="white" stroke="black" cx="178.654" cy="-556.598" rx="1" ry="1"/>
</g>
<!-- 49&#45;&gt;anon_49_65_0 -->
<g id="edge117" class="edge"><title>49&#45;&gt;anon_49_65_0</title>
<path fill="none" stroke="black" d="M127.478,-541.223C142.559,-545.754 170.43,-554.128 177.162,-556.15"/>
</g>
<!-- anon_49_124_0 -->
<g id="node150" class="node"><title>anon_49_124_0</title>
<ellipse fill="white" stroke="black" cx="99.6496" cy="-479.728" rx="1" ry="1"/>
</g>
<!-- 49&#45;&gt;anon_49_124_0 -->
<g id="edge124" class="edge"><title>49&#45;&gt;anon_49_124_0</title>
<path fill="none" stroke="black" d="M114.704,-528.611C110.222,-514.059 102.058,-487.547 100.086,-481.146"/>
</g>
<!-- 50 -->
<g id="node51" class="node"><title>50</title>
<ellipse fill="#1874cd" stroke="black" cx="131.537" cy="-342.839" rx="6" ry="6"/>
</g>
<!-- 50&#45;&gt;124 -->
<g id="edge128" class="edge"><title>50&#45;&gt;124</title>
<path fill="none" stroke="black" d="M125.425,-343.952C114.336,-345.973 91.5367,-350.126 86.0101,-351.133"/>
</g>
<!-- anon_51_67_0 -->
<g id="node153" class="node"><title>anon_51_67_0</title>
<ellipse fill="white" stroke="black" cx="93.4431" cy="-644.192" rx="1" ry="1"/>
</g>
<!-- 51&#45;&gt;anon_51_67_0 -->
<g id="edge129" class="edge"><title>51&#45;&gt;anon_51_67_0</title>
<path fill="none" stroke="black" d="M99.6903,-603.317C98.1548,-613.364 94.5234,-637.123 93.6396,-642.906"/>
</g>
<!-- 54 -->
<g id="node55" class="node"><title>54</title>
<ellipse fill="#1874cd" stroke="black" cx="296.766" cy="-23.5168" rx="2.5" ry="2.5"/>
</g>
<!-- 55 -->
<g id="node56" class="node"><title>55</title>
<ellipse fill="#1874cd" stroke="black" cx="220.517" cy="89.6821" rx="8" ry="8"/>
</g>
<!-- 84 -->
<g id="node85" class="node"><title>84</title>
<ellipse fill="#1874cd" stroke="black" cx="264.587" cy="120.116" rx="2.5" ry="2.5"/>
</g>
<!-- 55&#45;&gt;84 -->
<g id="edge134" class="edge"><title>55&#45;&gt;84</title>
<path fill="none" stroke="black" d="M227.403,94.4374C237.473,101.392 255.727,113.997 262.217,118.48"/>
</g>
<!-- 85 -->
<g id="node86" class="node"><title>85</title>
<ellipse fill="#1874cd" stroke="black" cx="176.464" cy="59.1769" rx="2.5" ry="2.5"/>
</g>
<!-- 55&#45;&gt;85 -->
<g id="edge135" class="edge"><title>55&#45;&gt;85</title>
<path fill="none" stroke="black" d="M213.633,84.9157C203.567,77.9448 185.32,65.31 178.832,60.817"/>
</g>
<!-- anon_55_70_0 -->
<g id="node155" class="node"><title>anon_55_70_0</title>
<ellipse fill="white" stroke="black" cx="248.632" cy="48.8717" rx="1" ry="1"/>
</g>
<!-- 55&#45;&gt;anon_55_70_0 -->
<g id="edge132" class="edge"><title>55&#45;&gt;anon_55_70_0</title>
<path fill="none" stroke="black" d="M225.159,82.9431C232.147,72.8007 244.877,54.3216 247.95,49.8603"/>
</g>
<!-- anon_55_92_0 -->
<g id="node156" class="node"><title>anon_55_92_0</title>
<ellipse fill="white" stroke="black" cx="192.209" cy="130.353" rx="1" ry="1"/>
</g>
<!-- 55&#45;&gt;anon_55_92_0 -->
<g id="edge136" class="edge"><title>55&#45;&gt;anon_55_92_0</title>
<path fill="none" stroke="black" d="M215.842,96.3982C208.807,106.506 195.989,124.922 192.894,129.368"/>
</g>
<!-- 56 -->
<g id="node57" class="node"><title>56</title>
<ellipse fill="#1874cd" stroke="black" cx="483.946" cy="-208.436" rx="2.5" ry="2.5"/>
</g>
<!-- 58 -->
<g id="node59" class="node"><title>58</title>
<ellipse fill="#1874cd" stroke="black" cx="65.1704" cy="-223.736" rx="2.5" ry="2.5"/>
</g>
<!-- 61 -->
<g id="node62" class="node"><title>61</title>
<ellipse fill="#1874cd" stroke="black" cx="195.987" cy="-155.661" rx="2.5" ry="2.5"/>
</g>
<!-- anon_62_71_0 -->
<g id="node157" class="node"><title>anon_62_71_0</title>
<ellipse fill="white" stroke="black" cx="239.354" cy="-395.326" rx="1" ry="1"/>
</g>
<!-- 62&#45;&gt;anon_62_71_0 -->
<g id="edge138" class="edge"><title>62&#45;&gt;anon_62_71_0</title>
<path fill="none" stroke="black" d="M255.692,-354.459C252.554,-362.309 242.399,-387.71 239.909,-393.938"/>
</g>
<!-- 63 -->
<g id="node64" class="node"><title>63</title>
<ellipse fill="#1874cd" stroke="black" cx="447.111" cy="-375.239" rx="2.5" ry="2.5"/>
</g>
<!-- 65 -->
<g id="node66" class="node"><title>65</title>
<ellipse fill="#1874cd" stroke="black" cx="262.611" cy="-570.844" rx="2.5" ry="2.5"/>
</g>
<!-- 66 -->
<g id="node67" class="node"><title>66</title>
<ellipse fill="#1874cd" stroke="black" cx="205.693" cy="-77.9442" rx="2.5" ry="2.5"/>
</g>
<!-- 66&#45;&gt;94 -->
<g id="edge140" class="edge"><title>66&#45;&gt;94</title>
<path fill="none" stroke="black" d="M202.955,-77.7725C194.759,-77.2585 170.489,-75.7365 162.388,-75.2285"/>
</g>
<!-- 67 -->
<g id="node68" class="node"><title>67</title>
<ellipse fill="#1874cd" stroke="black" cx="86.7886" cy="-724.476" rx="2.5" ry="2.5"/>
</g>
<!-- 70 -->
<g id="node71" class="node"><title>70</title>
<ellipse fill="#1874cd" stroke="black" cx="273.642" cy="16.4739" rx="2.5" ry="2.5"/>
</g>
<!-- 71 -->
<g id="node72" class="node"><title>71</title>
<ellipse fill="#1874cd" stroke="black" cx="223.347" cy="-435.476" rx="2.5" ry="2.5"/>
</g>
<!-- 72 -->
<g id="node73" class="node"><title>72</title>
<ellipse fill="#1874cd" stroke="black" cx="24" cy="18" rx="2.5" ry="2.5"/>
</g>
<!-- 76 -->
<g id="node77" class="node"><title>76</title>
<ellipse fill="#1874cd" stroke="black" cx="176.261" cy="-330.592" rx="2.5" ry="2.5"/>
</g>
<!-- 77 -->
<g id="node78" class="node"><title>77</title>
<ellipse fill="#1874cd" stroke="black" cx="24" cy="60" rx="2.5" ry="2.5"/>
</g>
<!-- 79 -->
<g id="node80" class="node"><title>79</title>
<ellipse fill="#1874cd" stroke="black" cx="66" cy="60" rx="2.5" ry="2.5"/>
</g>
<!-- 82 -->
<g id="node83" class="node"><title>82</title>
<ellipse fill="#1874cd" stroke="black" cx="3" cy="102" rx="2.5" ry="2.5"/>
</g>
<!-- 89 -->
<g id="node90" class="node"><title>89</title>
<ellipse fill="#1874cd" stroke="black" cx="128.906" cy="52.3301" rx="2.5" ry="2.5"/>
</g>
<!-- 91 -->
<g id="node92" class="node"><title>91</title>
<ellipse fill="#1874cd" stroke="black" cx="331.015" cy="-396.959" rx="2.5" ry="2.5"/>
</g>
<!-- 92 -->
<g id="node93" class="node"><title>92</title>
<ellipse fill="#1874cd" stroke="black" cx="170.951" cy="165.326" rx="2.5" ry="2.5"/>
</g>
<!-- 93 -->
<g id="node94" class="node"><title>93</title>
<ellipse fill="#1874cd" stroke="black" cx="45" cy="102" rx="2.5" ry="2.5"/>
</g>
<!-- 98 -->
<g id="node99" class="node"><title>98</title>
<ellipse fill="brown" stroke="black" cx="87" cy="102" rx="2.5" ry="2.5"/>
</g>
<!-- 99 -->
<g id="node100" class="node"><title>99</title>
<ellipse fill="brown" stroke="black" cx="-53.7151" cy="-176.954" rx="2.5" ry="2.5"/>
</g>
<!-- 102 -->
<g id="node103" class="node"><title>102</title>
<ellipse fill="brown" stroke="black" cx="7.53609" cy="-174.319" rx="2.5" ry="2.5"/>
</g>
<!-- 100&#45;&gt;102 -->
<g id="edge141" class="edge"><title>100&#45;&gt;102</title>
<path fill="none" stroke="black" d="M-8.58802,-126.119C-4.83724,-137.332 3.75908,-163.029 6.60327,-171.531"/>
</g>
<!-- 105 -->
<g id="node106" class="node"><title>105</title>
<ellipse fill="brown" stroke="black" cx="-14.8239" cy="-178.229" rx="2.5" ry="2.5"/>
</g>
<!-- 100&#45;&gt;105 -->
<g id="edge142" class="edge"><title>100&#45;&gt;105</title>
<path fill="none" stroke="black" d="M-10.8137,-126.509C-11.7642,-138.767 -13.9656,-167.16 -14.6304,-175.733"/>
</g>
<!-- 103 -->
<g id="node104" class="node"><title>103</title>
<ellipse fill="brown" stroke="black" cx="-102" cy="102" rx="2.5" ry="2.5"/>
</g>
<!-- 104 -->
<g id="node105" class="node"><title>104</title>
<ellipse fill="brown" stroke="black" cx="129" cy="123" rx="2.5" ry="2.5"/>
</g>
<!-- 106 -->
<g id="node107" class="node"><title>106</title>
<ellipse fill="brown" stroke="black" cx="129" cy="81" rx="2.5" ry="2.5"/>
</g>
<!-- 107 -->
<g id="node108" class="node"><title>107</title>
<ellipse fill="brown" stroke="black" cx="45" cy="144" rx="2.5" ry="2.5"/>
</g>
<!-- 108 -->
<g id="node109" class="node"><title>108</title>
<ellipse fill="brown" stroke="black" cx="87" cy="144" rx="2.5" ry="2.5"/>
</g>
<!-- anon_3_35_0&#45;&gt;35 -->
<g id="edge18" class="edge"><title>anon_3_35_0&#45;&gt;35</title>
<path fill="none" stroke="black" d="M131.023,-5.44045C136.264,-2.24613 160.669,12.6274 168.167,17.1974"/>
</g>
<!-- anon_3_40_0&#45;&gt;40 -->
<g id="edge21" class="edge"><title>anon_3_40_0&#45;&gt;40</title>
<path fill="none" stroke="black" d="M111.315,-159.005C115.026,-163.722 132.305,-185.686 137.614,-192.435"/>
</g>
<!-- anon_3_89_0&#45;&gt;89 -->
<g id="edge26" class="edge"><title>anon_3_89_0&#45;&gt;89</title>
<path fill="none" stroke="black" d="M99.4571,15.5802C103.38,20.4761 121.648,43.273 127.261,50.2774"/>
</g>
<!-- anon_6_27_1 -->
<g id="node130" class="node"><title>anon_6_27_1</title>
<ellipse fill="white" stroke="black" cx="-176.331" cy="-47.9086" rx="1" ry="1"/>
</g>
<!-- anon_6_27_0&#45;&gt;anon_6_27_1 -->
<g id="edge45" class="edge"><title>anon_6_27_0&#45;&gt;anon_6_27_1</title>
<path fill="none" stroke="black" d="M-126.047,-54.7814C-133.243,-53.7979 -168.694,-48.9524 -175.278,-48.0525"/>
</g>
<!-- anon_6_27_1&#45;&gt;27 -->
<g id="edge46" class="edge"><title>anon_6_27_1&#45;&gt;27</title>
<path fill="none" stroke="black" d="M-177.598,-47.4994C-184.135,-45.3888 -214.129,-35.7042 -224.246,-32.4374"/>
</g>
<!-- anon_6_99_0&#45;&gt;99 -->
<g id="edge51" class="edge"><title>anon_6_99_0&#45;&gt;99</title>
<path fill="none" stroke="black" d="M-52.6978,-126.186C-52.8346,-133.012 -53.4761,-165.028 -53.6635,-174.382"/>
</g>
<!-- anon_15_23_1 -->
<g id="node133" class="node"><title>anon_15_23_1</title>
<ellipse fill="white" stroke="black" cx="-54.3955" cy="207.835" rx="1" ry="1"/>
</g>
<!-- anon_15_23_0&#45;&gt;anon_15_23_1 -->
<g id="edge62" class="edge"><title>anon_15_23_0&#45;&gt;anon_15_23_1</title>
<path fill="none" stroke="black" d="M-54.1185,166.525C-54.1567,172.232 -54.3401,199.58 -54.3854,206.328"/>
</g>
<!-- anon_15_23_1&#45;&gt;23 -->
<g id="edge63" class="edge"><title>anon_15_23_1&#45;&gt;23</title>
<path fill="none" stroke="black" d="M-54.3607,208.868C-54.1815,214.195 -53.359,238.641 -53.0815,246.887"/>
</g>
<!-- anon_20_123_0&#45;&gt;123 -->
<g id="edge66" class="edge"><title>anon_20_123_0&#45;&gt;123</title>
<path fill="none" stroke="black" d="M-141.614,93.1533C-136.785,89.0771 -113.644,69.5453 -107.934,64.7261"/>
</g>
<!-- anon_41_54_1 -->
<g id="node136" class="node"><title>anon_41_54_1</title>
<ellipse fill="white" stroke="black" cx="296.616" cy="-106.195" rx="1" ry="1"/>
</g>
<!-- anon_41_54_0&#45;&gt;anon_41_54_1 -->
<g id="edge74" class="edge"><title>anon_41_54_0&#45;&gt;anon_41_54_1</title>
<path fill="none" stroke="black" d="M293.541,-149.109C293.966,-143.18 296.002,-114.771 296.504,-107.761"/>
</g>
<!-- anon_41_54_2 -->
<g id="node137" class="node"><title>anon_41_54_2</title>
<ellipse fill="white" stroke="black" cx="298.8" cy="-64.9527" rx="1" ry="1"/>
</g>
<!-- anon_41_54_1&#45;&gt;anon_41_54_2 -->
<g id="edge75" class="edge"><title>anon_41_54_1&#45;&gt;anon_41_54_2</title>
<path fill="none" stroke="black" d="M296.67,-105.176C296.965,-99.6185 298.374,-72.9907 298.722,-66.4206"/>
</g>
<!-- anon_41_54_2&#45;&gt;54 -->
<g id="edge76" class="edge"><title>anon_41_54_2&#45;&gt;54</title>
<path fill="none" stroke="black" d="M298.749,-63.9285C298.49,-58.6444 297.3,-34.3981 296.899,-26.2196"/>
</g>
<!-- anon_41_56_1 -->
<g id="node139" class="node"><title>anon_41_56_1</title>
<ellipse fill="white" stroke="black" cx="443.139" cy="-220.985" rx="1" ry="1"/>
</g>
<!-- anon_41_56_0&#45;&gt;anon_41_56_1 -->
<g id="edge78" class="edge"><title>anon_41_56_0&#45;&gt;anon_41_56_1</title>
<path fill="none" stroke="black" d="M402.155,-233.743C407.817,-231.98 434.949,-223.534 441.643,-221.45"/>
</g>
<!-- anon_41_56_1&#45;&gt;56 -->
<g id="edge79" class="edge"><title>anon_41_56_1&#45;&gt;56</title>
<path fill="none" stroke="black" d="M444.148,-220.674C449.351,-219.074 473.229,-211.731 481.284,-209.254"/>
</g>
<!-- anon_41_61_0&#45;&gt;61 -->
<g id="edge83" class="edge"><title>anon_41_61_0&#45;&gt;61</title>
<path fill="none" stroke="black" d="M225.569,-190.05C221.628,-185.469 203.277,-164.136 197.639,-157.582"/>
</g>
<!-- anon_41_63_1 -->
<g id="node142" class="node"><title>anon_41_63_1</title>
<ellipse fill="white" stroke="black" cx="414.144" cy="-347.651" rx="1" ry="1"/>
</g>
<!-- anon_41_63_0&#45;&gt;anon_41_63_1 -->
<g id="edge86" class="edge"><title>anon_41_63_0&#45;&gt;anon_41_63_1</title>
<path fill="none" stroke="black" d="M380.192,-321.155C384.883,-324.816 407.359,-342.356 412.905,-346.684"/>
</g>
<!-- anon_41_63_1&#45;&gt;63 -->
<g id="edge87" class="edge"><title>anon_41_63_1&#45;&gt;63</title>
<path fill="none" stroke="black" d="M414.959,-348.333C419.163,-351.851 438.454,-367.994 444.961,-373.439"/>
</g>
<!-- anon_41_76_0&#45;&gt;76 -->
<g id="edge93" class="edge"><title>anon_41_76_0&#45;&gt;76</title>
<path fill="none" stroke="black" d="M213.726,-304.699C208.735,-308.149 185.494,-324.21 178.354,-329.146"/>
</g>
<!-- anon_41_91_0&#45;&gt;91 -->
<g id="edge101" class="edge"><title>anon_41_91_0&#45;&gt;91</title>
<path fill="none" stroke="black" d="M319.375,-352.804C320.925,-358.686 328.146,-386.076 330.365,-394.492"/>
</g>
<!-- anon_42_124_0&#45;&gt;124 -->
<g id="edge108" class="edge"><title>anon_42_124_0&#45;&gt;124</title>
<path fill="none" stroke="black" d="M46.0229,-331.703C51.378,-334.418 77.0379,-347.429 83.3692,-350.64"/>
</g>
<!-- anon_47_58_1 -->
<g id="node147" class="node"><title>anon_47_58_1</title>
<ellipse fill="white" stroke="black" cx="105.959" cy="-232.866" rx="1" ry="1"/>
</g>
<!-- anon_47_58_0&#45;&gt;anon_47_58_1 -->
<g id="edge114" class="edge"><title>anon_47_58_0&#45;&gt;anon_47_58_1</title>
<path fill="none" stroke="black" d="M146.294,-238.225C140.721,-237.485 114.019,-233.937 107.431,-233.062"/>
</g>
<!-- anon_47_58_1&#45;&gt;58 -->
<g id="edge115" class="edge"><title>anon_47_58_1&#45;&gt;58</title>
<path fill="none" stroke="black" d="M104.951,-232.64C99.7493,-231.476 75.8817,-226.133 67.8309,-224.331"/>
</g>
<!-- anon_49_65_1 -->
<g id="node149" class="node"><title>anon_49_65_1</title>
<ellipse fill="white" stroke="black" cx="221.254" cy="-563.212" rx="1" ry="1"/>
</g>
<!-- anon_49_65_0&#45;&gt;anon_49_65_1 -->
<g id="edge118" class="edge"><title>anon_49_65_0&#45;&gt;anon_49_65_1</title>
<path fill="none" stroke="black" d="M179.707,-556.762C185.447,-557.653 212.951,-561.923 219.738,-562.976"/>
</g>
<!-- anon_49_65_1&#45;&gt;65 -->
<g id="edge119" class="edge"><title>anon_49_65_1&#45;&gt;65</title>
<path fill="none" stroke="black" d="M222.276,-563.4C227.55,-564.374 251.751,-568.84 259.914,-570.346"/>
</g>
<!-- anon_49_124_1 -->
<g id="node151" class="node"><title>anon_49_124_1</title>
<ellipse fill="white" stroke="black" cx="91.4901" cy="-437.555" rx="1" ry="1"/>
</g>
<!-- anon_49_124_0&#45;&gt;anon_49_124_1 -->
<g id="edge125" class="edge"><title>anon_49_124_0&#45;&gt;anon_49_124_1</title>
<path fill="none" stroke="black" d="M99.4479,-478.685C98.3484,-473.003 93.0803,-445.774 91.7805,-439.056"/>
</g>
<!-- anon_49_124_2 -->
<g id="node152" class="node"><title>anon_49_124_2</title>
<ellipse fill="white" stroke="black" cx="85.8252" cy="-395.684" rx="1" ry="1"/>
</g>
<!-- anon_49_124_1&#45;&gt;anon_49_124_2 -->
<g id="edge126" class="edge"><title>anon_49_124_1&#45;&gt;anon_49_124_2</title>
<path fill="none" stroke="black" d="M91.35,-436.52C90.5867,-430.878 86.9293,-403.844 86.0268,-397.174"/>
</g>
<!-- anon_49_124_2&#45;&gt;124 -->
<g id="edge127" class="edge"><title>anon_49_124_2&#45;&gt;124</title>
<path fill="none" stroke="black" d="M85.7995,-394.588C85.6591,-388.615 84.9866,-359.996 84.8207,-352.934"/>
</g>
<!-- anon_51_67_1 -->
<g id="node154" class="node"><title>anon_51_67_1</title>
<ellipse fill="white" stroke="black" cx="87.5496" cy="-683.77" rx="1" ry="1"/>
</g>
<!-- anon_51_67_0&#45;&gt;anon_51_67_1 -->
<g id="edge130" class="edge"><title>anon_51_67_0&#45;&gt;anon_51_67_1</title>
<path fill="none" stroke="black" d="M93.247,-645.509C92.3522,-651.518 88.6612,-676.304 87.7525,-682.407"/>
</g>
<!-- anon_51_67_1&#45;&gt;67 -->
<g id="edge131" class="edge"><title>anon_51_67_1&#45;&gt;67</title>
<path fill="none" stroke="black" d="M87.5308,-684.776C87.4337,-689.967 86.9884,-713.786 86.8382,-721.821"/>
</g>
<!-- anon_55_70_0&#45;&gt;70 -->
<g id="edge133" class="edge"><title>anon_55_70_0&#45;&gt;70</title>
<path fill="none" stroke="black" d="M249.25,48.0709C252.439,43.9393 267.074,24.9817 272.01,18.5871"/>
</g>
<!-- anon_55_92_0&#45;&gt;92 -->
<g id="edge137" class="edge"><title>anon_55_92_0&#45;&gt;92</title>
<path fill="none" stroke="black" d="M191.683,131.218C188.972,135.678 176.533,156.142 172.337,163.045"/>
</g>
<!-- anon_62_71_0&#45;&gt;71 -->
<g id="edge139" class="edge"><title>anon_62_71_0&#45;&gt;71</title>
<path fill="none" stroke="black" d="M238.959,-396.319C236.917,-401.439 227.551,-424.932 224.391,-432.857"/>
</g>
</g>
</svg>
