<?xml version="1.0" encoding="UTF-8" standalone="no"?>
<!DOCTYPE svg PUBLIC "-//W3C//DTD SVG 1.1//EN"
 "http://www.w3.org/Graphics/SVG/1.1/DTD/svg11.dtd">
<!-- Generated by graphviz version 2.38.0 (20140413.2041)
 -->
<!-- Title: %3 Pages: 1 -->
<svg width="950pt" height="899pt"
 viewBox="0.00 0.00 950.15 898.53" xmlns="http://www.w3.org/2000/svg" xmlns:xlink="http://www.w3.org/1999/xlink">
<g id="graph0" class="graph" transform="scale(1 1) rotate(0) translate(327.953 643.018)">
<title>%3</title>
<polygon fill="white" stroke="none" points="-327.953,255.509 -327.953,-643.018 622.193,-643.018 622.193,255.509 -327.953,255.509"/>
<!-- 0 -->
<g id="node1" class="node"><title>0</title>
<path fill="#787878" stroke="black" stroke-width="0.5" d="M174.942,-239.921C174.942,-239.921 232.942,-239.921 232.942,-239.921 232.942,-241.381 232.887,-242.841 232.777,-244.297 232.667,-245.753 232.502,-247.204 232.282,-248.648 232.062,-250.092 231.788,-251.526 231.46,-252.949 231.132,-254.372 230.75,-255.782 230.316,-257.176 229.882,-258.57 229.395,-259.948 228.856,-261.305 228.318,-262.662 227.729,-263.999 227.089,-265.312 226.45,-266.624 225.761,-267.913 225.025,-269.174 224.289,-270.435 223.505,-271.667 222.675,-272.869 221.846,-274.071 220.971,-275.241 220.053,-276.376 219.136,-277.512 218.175,-278.613 217.174,-279.676 216.173,-280.739 215.133,-281.764 214.055,-282.749 212.976,-283.734 211.861,-284.677 210.712,-285.578 209.562,-286.478 208.379,-287.335 207.165,-288.146 205.951,-288.958 204.707,-289.723 203.435,-290.44 202.163,-291.157 200.865,-291.826 199.542,-292.446 198.22,-293.065 196.875,-293.634 195.509,-294.152 194.144,-294.67 192.76,-295.136 191.359,-295.549 189.959,-295.963 188.543,-296.323 187.115,-296.629 185.688,-296.936 184.249,-297.188 182.802,-297.386 181.355,-297.584 179.902,-297.727 178.444,-297.815 176.987,-297.903 175.526,-297.937 174.066,-297.914 172.606,-297.892 171.147,-297.815 169.693,-297.683 168.239,-297.551 166.79,-297.364 165.35,-297.122 163.91,-296.881 162.48,-296.585 161.062,-296.236 159.644,-295.886 158.24,-295.483 156.853,-295.028 155.465,-294.573 154.096,-294.065 152.747,-293.506 151.397,-292.947 150.07,-292.338 148.767,-291.679 147.464,-291.02 146.186,-290.312 144.937,-289.556 143.687,-288.801 142.466,-287.999 141.277,-287.151 140.088,-286.304 138.932,-285.411 137.81,-284.477 136.688,-283.542 135.602,-282.565 134.554,-281.548 133.506,-280.531 132.497,-279.475 131.529,-278.382 131.529,-278.382 174.942,-239.921 174.942,-239.921"/>
<path fill="palegreen" stroke="black" stroke-width="0.5" d="M174.942,-239.921C174.942,-239.921 131.529,-278.382 131.529,-278.382 129.979,-276.633 128.537,-274.792 127.209,-272.869 125.882,-270.946 124.672,-268.944 123.586,-266.875 122.5,-264.806 121.54,-262.673 120.711,-260.488 119.883,-258.303 119.187,-256.07 118.628,-253.801 118.068,-251.533 117.647,-249.232 117.365,-246.912 117.083,-244.593 116.942,-242.258 116.942,-239.921 116.942,-237.584 117.083,-235.25 117.365,-232.93 117.647,-230.61 118.068,-228.31 118.628,-226.041 119.187,-223.772 119.883,-221.539 120.711,-219.354 121.54,-217.169 122.5,-215.036 123.586,-212.967 124.672,-210.898 125.882,-208.896 127.209,-206.973 128.537,-205.05 129.979,-203.209 131.529,-201.46 133.078,-199.711 134.732,-198.057 136.481,-196.507 138.23,-194.958 140.071,-193.515 141.994,-192.188 143.918,-190.861 145.919,-189.651 147.988,-188.565 150.057,-187.479 152.19,-186.519 154.375,-185.69 156.56,-184.862 158.793,-184.166 161.062,-183.606 163.331,-183.047 165.631,-182.626 167.951,-182.344 170.271,-182.062 172.605,-181.921 174.942,-181.921 177.279,-181.921 179.614,-182.062 181.933,-182.344 184.253,-182.626 186.554,-183.047 188.822,-183.606 191.091,-184.166 193.324,-184.862 195.509,-185.69 197.694,-186.519 199.827,-187.479 201.896,-188.565 203.965,-189.651 205.967,-190.861 207.89,-192.188 209.813,-193.515 211.654,-194.958 213.403,-196.507 215.152,-198.057 216.806,-199.711 218.356,-201.46 219.905,-203.209 221.348,-205.05 222.675,-206.973 224.003,-208.896 225.213,-210.898 226.299,-212.967 227.385,-215.036 228.344,-217.169 229.173,-219.354 230.002,-221.539 230.698,-223.772 231.257,-226.041 231.816,-228.31 232.238,-230.61 232.519,-232.93 232.801,-235.25 232.942,-237.584 232.942,-239.921 232.942,-239.921 174.942,-239.921 174.942,-239.921"/>
<ellipse fill="none" stroke="black" cx="174.942" cy="-239.921" rx="58" ry="58"/>
</g>
<!-- 43 -->
<g id="node44" class="node"><title>43</title>
<ellipse fill="#787878" stroke="black" cx="87.1034" cy="-201.411" rx="5" ry="5"/>
</g>
<!-- 0&#45;&#45;43 -->
<g id="edge1" class="edge"><title>0&#45;&#45;43</title>
<path fill="none" stroke="black" d="M121.82,-216.631C109.391,-211.182 97.9919,-206.184 91.8493,-203.491"/>
</g>
<!-- 1 -->
<g id="node2" class="node"><title>1</title>
<ellipse fill="palegreen" stroke="black" cx="468.367" cy="-16.8549" rx="47" ry="47"/>
</g>
<!-- 11 -->
<g id="node12" class="node"><title>11</title>
<ellipse fill="palegreen" stroke="black" cx="593.361" cy="13.3781" rx="12.5" ry="12.5"/>
</g>
<!-- 1&#45;&#45;11 -->
<g id="edge2" class="edge"><title>1&#45;&#45;11</title>
<path fill="none" stroke="black" d="M514.2,-5.76891C538.168,0.0283548 565.664,6.67882 581.127,10.419"/>
</g>
<!-- 16 -->
<g id="node17" class="node"><title>16</title>
<ellipse fill="palegreen" stroke="black" cx="434.38" cy="101.389" rx="7" ry="7"/>
</g>
<!-- 1&#45;&#45;16 -->
<g id="edge3" class="edge"><title>1&#45;&#45;16</title>
<path fill="none" stroke="black" d="M455.324,28.5232C448.21,53.2718 440.119,81.4219 436.42,94.2918"/>
</g>
<!-- 18 -->
<g id="node19" class="node"><title>18</title>
<ellipse fill="palegreen" stroke="black" cx="473.189" cy="-145.341" rx="7" ry="7"/>
</g>
<!-- 1&#45;&#45;18 -->
<g id="edge4" class="edge"><title>1&#45;&#45;18</title>
<path fill="none" stroke="black" d="M470.135,-63.9689C471.178,-91.7578 472.394,-124.16 472.922,-138.224"/>
</g>
<!-- 23 -->
<g id="node24" class="node"><title>23</title>
<ellipse fill="palegreen" stroke="black" cx="405.47" cy="-92.2503" rx="5" ry="5"/>
</g>
<!-- 1&#45;&#45;23 -->
<g id="edge5" class="edge"><title>1&#45;&#45;23</title>
<path fill="none" stroke="black" d="M438.024,-53.2275C426.463,-67.085 414.703,-81.1816 409.003,-88.0148"/>
</g>
<!-- 26 -->
<g id="node27" class="node"><title>26</title>
<ellipse fill="palegreen" stroke="black" cx="397.399" cy="17.0587" rx="5" ry="5"/>
</g>
<!-- 1&#45;&#45;26 -->
<g id="edge6" class="edge"><title>1&#45;&#45;26</title>
<path fill="none" stroke="black" d="M425.855,3.46013C416.173,8.08715 407.217,12.3666 402.031,14.845"/>
</g>
<!-- 28 -->
<g id="node29" class="node"><title>28</title>
<ellipse fill="palegreen" stroke="black" cx="548.315" cy="57.3767" rx="5" ry="5"/>
</g>
<!-- 1&#45;&#45;28 -->
<g id="edge7" class="edge"><title>1&#45;&#45;28</title>
<path fill="none" stroke="black" d="M503.201,15.4882C519.359,30.4912 536.657,46.552 544.296,53.6447"/>
</g>
<!-- 34 -->
<g id="node35" class="node"><title>34</title>
<ellipse fill="palegreen" stroke="black" cx="511.667" cy="90.2045" rx="5" ry="5"/>
</g>
<!-- 1&#45;&#45;34 -->
<g id="edge8" class="edge"><title>1&#45;&#45;34</title>
<path fill="none" stroke="black" d="M486.104,26.9992C495.352,49.8666 505.587,75.1708 509.749,85.4629"/>
</g>
<!-- 36 -->
<g id="node37" class="node"><title>36</title>
<ellipse fill="palegreen" stroke="black" cx="469.638" cy="70.7628" rx="5" ry="5"/>
</g>
<!-- 1&#45;&#45;36 -->
<g id="edge9" class="edge"><title>1&#45;&#45;36</title>
<path fill="none" stroke="black" d="M469.05,30.2881C469.257,44.5458 469.457,58.3298 469.562,65.5525"/>
</g>
<!-- 46 -->
<g id="node47" class="node"><title>46</title>
<ellipse fill="palegreen" stroke="black" cx="518.612" cy="-92.3384" rx="5" ry="5"/>
</g>
<!-- 1&#45;&#45;46 -->
<g id="edge10" class="edge"><title>1&#45;&#45;46</title>
<path fill="none" stroke="black" d="M494.666,-56.3652C503.214,-69.2066 511.58,-81.7744 515.794,-88.1048"/>
</g>
<!-- 2 -->
<g id="node3" class="node"><title>2</title>
<path fill="olivedrab" stroke="black" stroke-width="0.5" d="M351.019,-423.358C351.019,-423.358 389.019,-423.358 389.019,-423.358 389.019,-424.421 388.974,-425.484 388.885,-426.543 388.796,-427.602 388.663,-428.657 388.485,-429.705 388.308,-430.753 388.086,-431.792 387.822,-432.822 387.557,-433.851 387.249,-434.869 386.899,-435.872 386.549,-436.876 386.157,-437.864 385.724,-438.835 385.292,-439.806 384.818,-440.758 384.305,-441.689 383.793,-442.62 383.241,-443.529 382.652,-444.414 382.063,-445.298 381.438,-446.158 380.777,-446.99 380.116,-447.823 379.42,-448.627 378.692,-449.401 377.963,-450.175 377.203,-450.918 376.412,-451.628 375.622,-452.338 374.801,-453.015 373.954,-453.657 373.107,-454.298 372.233,-454.904 371.334,-455.472 370.436,-456.04 369.515,-456.57 368.572,-457.061 367.629,-457.552 366.667,-458.004 365.686,-458.414 364.706,-458.824 363.708,-459.193 362.697,-459.52 361.686,-459.846 360.661,-460.13 359.626,-460.371 358.591,-460.612 357.546,-460.809 356.494,-460.962 355.442,-461.115 354.385,-461.224 353.324,-461.289 352.263,-461.353 351.2,-461.373 350.137,-461.348 349.075,-461.324 348.014,-461.254 346.957,-461.141 345.9,-461.027 344.849,-460.869 343.805,-460.667 342.762,-460.466 341.727,-460.22 340.704,-459.932 339.681,-459.643 338.671,-459.312 337.676,-458.939 336.681,-458.566 335.702,-458.151 334.741,-457.696 333.781,-457.24 332.84,-456.745 331.921,-456.211 331.002,-455.677 330.106,-455.104 329.235,-454.495 328.365,-453.886 327.52,-453.24 326.703,-452.56 325.886,-451.88 325.098,-451.166 324.341,-450.42 323.585,-449.674 322.859,-448.896 322.168,-448.089 321.476,-447.282 320.818,-446.446 320.197,-445.584 319.575,-444.722 318.99,-443.835 318.443,-442.923 317.895,-442.012 317.387,-441.079 316.918,-440.125 316.449,-439.171 316.02,-438.198 315.633,-437.208 315.245,-436.219 314.9,-435.213 314.597,-434.194 314.294,-433.176 314.033,-432.145 313.817,-431.104 313.6,-430.064 313.427,-429.015 313.298,-427.96 313.17,-426.905 313.085,-425.845 313.046,-424.783 313.006,-423.72 313.011,-422.657 313.06,-421.596 313.109,-420.534 313.203,-419.475 313.341,-418.421 313.479,-417.367 313.661,-416.32 313.887,-415.281 314.113,-414.242 314.383,-413.214 314.695,-412.198 315.007,-411.182 315.362,-410.18 315.758,-409.193 316.154,-408.207 316.591,-407.238 317.069,-406.288 317.546,-405.339 318.063,-404.41 318.619,-403.504 319.174,-402.597 319.767,-401.715 320.396,-400.858 321.026,-400.002 321.691,-399.172 322.389,-398.371 323.088,-397.571 323.82,-396.8 324.584,-396.06 325.347,-395.321 326.142,-394.614 326.964,-393.941 327.787,-393.268 328.638,-392.63 329.514,-392.029 330.39,-391.427 331.291,-390.863 332.215,-390.337 333.139,-389.811 334.084,-389.324 335.048,-388.877 336.013,-388.431 336.995,-388.025 337.994,-387.66 338.992,-387.296 340.006,-386.974 341.031,-386.695 342.056,-386.415 343.093,-386.179 344.138,-385.987 345.184,-385.794 346.237,-385.646 347.294,-385.541 348.352,-385.437 349.414,-385.378 350.476,-385.362 351.539,-385.347 352.602,-385.377 353.662,-385.451 354.722,-385.524 355.779,-385.643 356.829,-385.805 357.88,-385.968 358.923,-386.174 359.956,-386.424 360.989,-386.674 362.011,-386.967 363.019,-387.303 364.028,-387.639 365.022,-388.017 365.998,-388.435 366.975,-388.854 367.934,-389.314 368.872,-389.814 369.81,-390.313 370.727,-390.851 371.62,-391.428 372.513,-392.004 373.382,-392.617 374.224,-393.266 374.224,-393.266 351.019,-423.358 351.019,-423.358"/>
<path fill="#1874cd" stroke="black" stroke-width="0.5" d="M351.019,-423.358C351.019,-423.358 374.224,-393.266 374.224,-393.266 375.37,-394.15 376.465,-395.099 377.503,-396.107 378.541,-397.116 379.52,-398.183 380.436,-399.304 381.353,-400.425 382.204,-401.596 382.987,-402.814 383.769,-404.032 384.481,-405.293 385.12,-406.592 385.759,-407.891 386.323,-409.225 386.809,-410.589 387.295,-411.952 387.704,-413.342 388.031,-414.752 388.359,-416.161 388.606,-417.589 388.771,-419.027 388.936,-420.465 389.019,-421.911 389.019,-423.358 389.019,-423.358 351.019,-423.358 351.019,-423.358"/>
<ellipse fill="none" stroke="black" cx="351.019" cy="-423.358" rx="38" ry="38"/>
</g>
<!-- 24 -->
<g id="node25" class="node"><title>24</title>
<ellipse fill="olivedrab" stroke="black" cx="432.115" cy="-435.895" rx="5" ry="5"/>
</g>
<!-- 2&#45;&#45;24 -->
<g id="edge11" class="edge"><title>2&#45;&#45;24</title>
<path fill="none" stroke="black" d="M388.718,-429.186C403.774,-431.514 419.356,-433.923 427.107,-435.121"/>
</g>
<!-- 32 -->
<g id="node33" class="node"><title>32</title>
<ellipse fill="olivedrab" stroke="black" cx="279.105" cy="-476.283" rx="5" ry="5"/>
</g>
<!-- 2&#45;&#45;32 -->
<g id="edge12" class="edge"><title>2&#45;&#45;32</title>
<path fill="none" stroke="black" d="M320.103,-446.11C305.79,-456.644 290.388,-467.979 283.216,-473.257"/>
</g>
<!-- 42 -->
<g id="node43" class="node"><title>42</title>
<ellipse fill="olivedrab" stroke="black" cx="256.964" cy="-422.03" rx="5" ry="5"/>
</g>
<!-- 2&#45;&#45;42 -->
<g id="edge13" class="edge"><title>2&#45;&#45;42</title>
<path fill="none" stroke="black" d="M312.763,-422.818C293.233,-422.542 271.611,-422.237 262.02,-422.101"/>
</g>
<!-- 47 -->
<g id="node48" class="node"><title>47</title>
<ellipse fill="olivedrab" stroke="black" cx="277.152" cy="-365.002" rx="5" ry="5"/>
</g>
<!-- 2&#45;&#45;47 -->
<g id="edge14" class="edge"><title>2&#45;&#45;47</title>
<path fill="none" stroke="black" d="M320.974,-399.623C305.636,-387.505 288.655,-374.09 281.123,-368.14"/>
</g>
<!-- anon_2_55_0 -->
<g id="node63" class="node"><title>anon_2_55_0</title>
<ellipse fill="white" stroke="black" cx="376.623" cy="-512.013" rx="2.5" ry="2.5"/>
</g>
<!-- 2&#45;&#45;anon_2_55_0 -->
<g id="edge15" class="edge"><title>2&#45;&#45;anon_2_55_0</title>
<path fill="none" stroke="black" d="M361.581,-459.929C367.311,-479.771 373.66,-501.753 375.839,-509.299"/>
</g>
<!-- 3 -->
<g id="node4" class="node"><title>3</title>
<ellipse fill="#1874cd" stroke="black" cx="-297.953" cy="-228.711" rx="26" ry="26"/>
</g>
<!-- 14 -->
<g id="node15" class="node"><title>14</title>
<ellipse fill="#1874cd" stroke="black" cx="-234.047" cy="-185.494" rx="9" ry="9"/>
</g>
<!-- 3&#45;&#45;14 -->
<g id="edge19" class="edge"><title>3&#45;&#45;14</title>
<path fill="none" stroke="black" d="M-276.317,-214.08C-264.295,-205.95 -250.091,-196.344 -241.589,-190.595"/>
</g>
<!-- 4 -->
<g id="node5" class="node"><title>4</title>
<ellipse fill="palegreen" stroke="black" cx="332.252" cy="-220.154" rx="18.5" ry="18.5"/>
</g>
<!-- 4&#45;&#45;0 -->
<g id="edge20" class="edge"><title>4&#45;&#45;0</title>
<path fill="none" stroke="black" d="M313.589,-222.499C293.731,-224.995 261.312,-229.068 232.814,-232.649"/>
</g>
<!-- 5 -->
<g id="node6" class="node"><title>5</title>
<ellipse fill="#1874cd" stroke="black" cx="234.281" cy="91.4006" rx="17" ry="17"/>
</g>
<!-- 12 -->
<g id="node13" class="node"><title>12</title>
<ellipse fill="#1874cd" stroke="black" cx="306.603" cy="112.842" rx="10" ry="10"/>
</g>
<!-- 5&#45;&#45;12 -->
<g id="edge21" class="edge"><title>5&#45;&#45;12</title>
<path fill="none" stroke="black" d="M250.692,96.266C264.862,100.467 284.868,106.398 296.711,109.909"/>
</g>
<!-- anon_5_40_0 -->
<g id="node66" class="node"><title>anon_5_40_0</title>
<ellipse fill="white" stroke="black" cx="282.405" cy="49.308" rx="2.5" ry="2.5"/>
</g>
<!-- 5&#45;&#45;anon_5_40_0 -->
<g id="edge22" class="edge"><title>5&#45;&#45;anon_5_40_0</title>
<path fill="none" stroke="black" d="M247.177,80.1206C258.759,69.99 274.776,55.9805 280.375,51.083"/>
</g>
<!-- 6 -->
<g id="node7" class="node"><title>6</title>
<ellipse fill="#787878" stroke="black" cx="102.265" cy="-102.802" rx="16" ry="16"/>
</g>
<!-- 6&#45;&#45;0 -->
<g id="edge24" class="edge"><title>6&#45;&#45;0</title>
<path fill="none" stroke="black" d="M109.769,-116.96C118.691,-133.792 134.084,-162.836 147.671,-188.47"/>
</g>
<!-- 35 -->
<g id="node36" class="node"><title>35</title>
<ellipse fill="#787878" stroke="black" cx="41.3802" cy="-83.5927" rx="5" ry="5"/>
</g>
<!-- 6&#45;&#45;35 -->
<g id="edge25" class="edge"><title>6&#45;&#45;35</title>
<path fill="none" stroke="black" d="M86.9011,-97.9548C73.5146,-93.7313 54.9238,-87.8658 46.2278,-85.1221"/>
</g>
<!-- 7 -->
<g id="node8" class="node"><title>7</title>
<ellipse fill="olivedrab" stroke="black" cx="431.729" cy="-343.826" rx="15.5" ry="15.5"/>
</g>
<!-- 7&#45;&#45;2 -->
<g id="edge26" class="edge"><title>7&#45;&#45;2</title>
<path fill="none" stroke="black" d="M420.507,-354.885C409.592,-365.641 392.588,-382.396 378.133,-396.64"/>
</g>
<!-- 17 -->
<g id="node18" class="node"><title>17</title>
<ellipse fill="olivedrab" stroke="black" cx="475.247" cy="-299.193" rx="7" ry="7"/>
</g>
<!-- 7&#45;&#45;17 -->
<g id="edge27" class="edge"><title>7&#45;&#45;17</title>
<path fill="none" stroke="black" d="M442.711,-332.563C451.574,-323.473 463.629,-311.109 470.297,-304.27"/>
</g>
<!-- 8 -->
<g id="node9" class="node"><title>8</title>
<ellipse fill="#1874cd" stroke="black" cx="83.7646" cy="125.825" rx="14.5" ry="14.5"/>
</g>
<!-- anon_8_22_0 -->
<g id="node67" class="node"><title>anon_8_22_0</title>
<ellipse fill="white" stroke="black" cx="83.7435" cy="183.027" rx="2.5" ry="2.5"/>
</g>
<!-- 8&#45;&#45;anon_8_22_0 -->
<g id="edge28" class="edge"><title>8&#45;&#45;anon_8_22_0</title>
<path fill="none" stroke="black" d="M83.7591,140.556C83.7542,154.062 83.7472,173.012 83.7445,180.154"/>
</g>
<!-- anon_8_37_0 -->
<g id="node68" class="node"><title>anon_8_37_0</title>
<ellipse fill="white" stroke="black" cx="32.1688" cy="165.89" rx="2.5" ry="2.5"/>
</g>
<!-- 8&#45;&#45;anon_8_37_0 -->
<g id="edge30" class="edge"><title>8&#45;&#45;anon_8_37_0</title>
<path fill="none" stroke="black" d="M72.0567,134.916C59.4502,144.706 40.3685,159.523 34.1816,164.327"/>
</g>
<!-- 9 -->
<g id="node10" class="node"><title>9</title>
<ellipse fill="olivedrab" stroke="black" cx="513.463" cy="-256.369" rx="12.5" ry="12.5"/>
</g>
<!-- 44 -->
<g id="node45" class="node"><title>44</title>
<ellipse fill="olivedrab" stroke="black" cx="555.207" cy="-221.435" rx="5" ry="5"/>
</g>
<!-- 9&#45;&#45;44 -->
<g id="edge33" class="edge"><title>9&#45;&#45;44</title>
<path fill="none" stroke="black" d="M523.145,-248.266C532.008,-240.849 544.694,-230.233 551.128,-224.848"/>
</g>
<!-- 10 -->
<g id="node11" class="node"><title>10</title>
<ellipse fill="#1874cd" stroke="black" cx="-184.142" cy="-146.185" rx="12.5" ry="12.5"/>
</g>
<!-- 10&#45;&#45;14 -->
<g id="edge42" class="edge"><title>10&#45;&#45;14</title>
<path fill="none" stroke="black" d="M-194.241,-154.14C-203.924,-161.768 -218.301,-173.091 -226.867,-179.839"/>
</g>
<!-- anon_10_8_0 -->
<g id="node70" class="node"><title>anon_10_8_0</title>
<ellipse fill="white" stroke="black" cx="-138.577" cy="-109.77" rx="2.5" ry="2.5"/>
</g>
<!-- 10&#45;&#45;anon_10_8_0 -->
<g id="edge34" class="edge"><title>10&#45;&#45;anon_10_8_0</title>
<path fill="none" stroke="black" d="M-174.029,-138.104C-163.122,-129.387 -146.535,-116.13 -140.698,-111.466"/>
</g>
<!-- anon_10_49_0 -->
<g id="node77" class="node"><title>anon_10_49_0</title>
<ellipse fill="white" stroke="black" cx="-162.484" cy="-203.18" rx="2.5" ry="2.5"/>
</g>
<!-- 10&#45;&#45;anon_10_49_0 -->
<g id="edge43" class="edge"><title>10&#45;&#45;anon_10_49_0</title>
<path fill="none" stroke="black" d="M-179.654,-157.995C-174.5,-171.559 -166.386,-192.911 -163.525,-200.441"/>
</g>
<!-- anon_10_53_0 -->
<g id="node78" class="node"><title>anon_10_53_0</title>
<ellipse fill="white" stroke="black" cx="-235.421" cy="-113.379" rx="2.5" ry="2.5"/>
</g>
<!-- 10&#45;&#45;anon_10_53_0 -->
<g id="edge45" class="edge"><title>10&#45;&#45;anon_10_53_0</title>
<path fill="none" stroke="black" d="M-195.017,-139.228C-207.247,-131.403 -226.276,-119.229 -232.982,-114.939"/>
</g>
<!-- 13 -->
<g id="node14" class="node"><title>13</title>
<ellipse fill="#1874cd" stroke="black" cx="158.776" cy="125.077" rx="9" ry="9"/>
</g>
<!-- 13&#45;&#45;5 -->
<g id="edge47" class="edge"><title>13&#45;&#45;5</title>
<path fill="none" stroke="black" d="M167.145,121.344C179.508,115.83 202.875,105.408 218.514,98.4328"/>
</g>
<!-- 13&#45;&#45;8 -->
<g id="edge48" class="edge"><title>13&#45;&#45;8</title>
<path fill="none" stroke="black" d="M149.578,125.169C136.824,125.296 113.63,125.527 98.4614,125.678"/>
</g>
<!-- 61 -->
<g id="node62" class="node"><title>61</title>
<ellipse fill="#1874cd" stroke="black" cx="190.789" cy="143.751" rx="5" ry="5"/>
</g>
<!-- 13&#45;&#45;61 -->
<g id="edge49" class="edge"><title>13&#45;&#45;61</title>
<path fill="none" stroke="black" d="M166.854,129.789C173.078,133.42 181.441,138.298 186.455,141.223"/>
</g>
<!-- 15 -->
<g id="node16" class="node"><title>15</title>
<ellipse fill="#1874cd" stroke="black" cx="-63" cy="27" rx="9" ry="9"/>
</g>
<!-- 17&#45;&#45;9 -->
<g id="edge50" class="edge"><title>17&#45;&#45;9</title>
<path fill="none" stroke="black" d="M479.933,-293.942C486.152,-286.974 497.243,-274.545 504.958,-265.899"/>
</g>
<!-- 19 -->
<g id="node20" class="node"><title>19</title>
<ellipse fill="palegreen" stroke="black" cx="476.623" cy="-200.289" rx="7" ry="7"/>
</g>
<!-- 18&#45;&#45;19 -->
<g id="edge51" class="edge"><title>18&#45;&#45;19</title>
<path fill="none" stroke="black" d="M473.638,-152.525C474.3,-163.113 475.529,-182.788 476.185,-193.277"/>
</g>
<!-- 20 -->
<g id="node21" class="node"><title>20</title>
<ellipse fill="#1874cd" stroke="black" cx="203.757" cy="244.509" rx="7" ry="7"/>
</g>
<!-- 21 -->
<g id="node22" class="node"><title>21</title>
<ellipse fill="#1874cd" stroke="black" cx="179.864" cy="191.454" rx="7" ry="7"/>
</g>
<!-- 21&#45;&#45;13 -->
<g id="edge52" class="edge"><title>21&#45;&#45;13</title>
<path fill="none" stroke="black" d="M177.607,184.351C173.739,172.177 165.853,147.354 161.617,134.02"/>
</g>
<!-- 21&#45;&#45;20 -->
<g id="edge53" class="edge"><title>21&#45;&#45;20</title>
<path fill="none" stroke="black" d="M182.793,197.96C187.379,208.142 196.203,227.735 200.803,237.95"/>
</g>
<!-- 22 -->
<g id="node23" class="node"><title>22</title>
<ellipse fill="#1874cd" stroke="black" cx="78.6307" cy="233.239" rx="5" ry="5"/>
</g>
<!-- 25 -->
<g id="node26" class="node"><title>25</title>
<ellipse fill="#787878" stroke="black" cx="125.988" cy="-402.582" rx="5" ry="5"/>
</g>
<!-- anon_25_0_0 -->
<g id="node79" class="node"><title>anon_25_0_0</title>
<ellipse fill="white" stroke="black" cx="140.321" cy="-358.115" rx="2.5" ry="2.5"/>
</g>
<!-- 25&#45;&#45;anon_25_0_0 -->
<g id="edge54" class="edge"><title>25&#45;&#45;anon_25_0_0</title>
<path fill="none" stroke="black" d="M127.632,-397.481C130.691,-387.991 137.156,-367.935 139.473,-360.747"/>
</g>
<!-- 27 -->
<g id="node28" class="node"><title>27</title>
<ellipse fill="palegreen" stroke="black" cx="252.949" cy="-302.176" rx="5" ry="5"/>
</g>
<!-- 27&#45;&#45;0 -->
<g id="edge56" class="edge"><title>27&#45;&#45;0</title>
<path fill="none" stroke="black" d="M248.755,-298.829C243.059,-294.283 232.245,-285.653 220.615,-276.372"/>
</g>
<!-- 29 -->
<g id="node30" class="node"><title>29</title>
<ellipse fill="palegreen" stroke="black" cx="395.792" cy="64.411" rx="5" ry="5"/>
</g>
<!-- 29&#45;&#45;1 -->
<g id="edge57" class="edge"><title>29&#45;&#45;1</title>
<path fill="none" stroke="black" d="M399.292,60.4914C406.144,52.8186 421.951,35.1196 436.716,18.5863"/>
</g>
<!-- 30 -->
<g id="node31" class="node"><title>30</title>
<ellipse fill="#1874cd" stroke="black" cx="5" cy="103" rx="5" ry="5"/>
</g>
<!-- 31 -->
<g id="node32" class="node"><title>31</title>
<ellipse fill="#1874cd" stroke="black" cx="276.856" cy="145.245" rx="5" ry="5"/>
</g>
<!-- 31&#45;&#45;5 -->
<g id="edge58" class="edge"><title>31&#45;&#45;5</title>
<path fill="none" stroke="black" d="M273.515,141.02C267.477,133.384 254.506,116.979 245.128,105.118"/>
</g>
<!-- 33 -->
<g id="node34" class="node"><title>33</title>
<ellipse fill="palegreen" stroke="black" cx="86.0459" cy="-302.644" rx="5" ry="5"/>
</g>
<!-- 33&#45;&#45;0 -->
<g id="edge59" class="edge"><title>33&#45;&#45;0</title>
<path fill="none" stroke="black" d="M90.3336,-299.619C97.3394,-294.676 111.987,-284.341 127.156,-273.638"/>
</g>
<!-- 37 -->
<g id="node38" class="node"><title>37</title>
<ellipse fill="#1874cd" stroke="black" cx="-19.824" cy="246.121" rx="5" ry="5"/>
</g>
<!-- 38 -->
<g id="node39" class="node"><title>38</title>
<ellipse fill="#787878" stroke="black" cx="238.14" cy="-175.363" rx="5" ry="5"/>
</g>
<!-- 38&#45;&#45;0 -->
<g id="edge60" class="edge"><title>38&#45;&#45;0</title>
<path fill="none" stroke="black" d="M234.376,-179.208C230.337,-183.334 223.458,-190.361 215.781,-198.203"/>
</g>
<!-- 39 -->
<g id="node40" class="node"><title>39</title>
<ellipse fill="palegreen" stroke="black" cx="221.374" cy="-50.2212" rx="5" ry="5"/>
</g>
<!-- anon_39_1_0 -->
<g id="node80" class="node"><title>anon_39_1_0</title>
<ellipse fill="white" stroke="black" cx="266.11" cy="-46.6247" rx="2.5" ry="2.5"/>
</g>
<!-- 39&#45;&#45;anon_39_1_0 -->
<g id="edge61" class="edge"><title>39&#45;&#45;anon_39_1_0</title>
<path fill="none" stroke="black" d="M226.506,-49.8086C236.053,-49.0411 256.231,-47.4189 263.462,-46.8375"/>
</g>
<!-- 40 -->
<g id="node41" class="node"><title>40</title>
<ellipse fill="#1874cd" stroke="black" cx="321.635" cy="22.838" rx="5" ry="5"/>
</g>
<!-- 41 -->
<g id="node42" class="node"><title>41</title>
<ellipse fill="palegreen" stroke="black" cx="613.193" cy="-90.2728" rx="5" ry="5"/>
</g>
<!-- anon_41_1_0 -->
<g id="node83" class="node"><title>anon_41_1_0</title>
<ellipse fill="white" stroke="black" cx="570.479" cy="-68.3622" rx="2.5" ry="2.5"/>
</g>
<!-- 41&#45;&#45;anon_41_1_0 -->
<g id="edge65" class="edge"><title>41&#45;&#45;anon_41_1_0</title>
<path fill="none" stroke="black" d="M608.622,-87.9279C599.669,-83.3354 580.084,-73.2893 573.055,-69.6835"/>
</g>
<!-- 45 -->
<g id="node46" class="node"><title>45</title>
<ellipse fill="palegreen" stroke="black" cx="412.509" cy="-147.01" rx="5" ry="5"/>
</g>
<!-- anon_45_4_0 -->
<g id="node84" class="node"><title>anon_45_4_0</title>
<ellipse fill="white" stroke="black" cx="375.789" cy="-173.891" rx="2.5" ry="2.5"/>
</g>
<!-- 45&#45;&#45;anon_45_4_0 -->
<g id="edge67" class="edge"><title>45&#45;&#45;anon_45_4_0</title>
<path fill="none" stroke="black" d="M408.297,-150.094C400.46,-155.831 383.898,-167.955 377.962,-172.3"/>
</g>
<!-- 48 -->
<g id="node49" class="node"><title>48</title>
<ellipse fill="#787878" stroke="black" cx="195.014" cy="-136.667" rx="5" ry="5"/>
</g>
<!-- 48&#45;&#45;0 -->
<g id="edge69" class="edge"><title>48&#45;&#45;0</title>
<path fill="none" stroke="black" d="M194.045,-141.647C192.511,-149.543 189.351,-165.795 186.036,-182.848"/>
</g>
<!-- 49 -->
<g id="node50" class="node"><title>49</title>
<ellipse fill="#1874cd" stroke="black" cx="-154.723" cy="-250.193" rx="5" ry="5"/>
</g>
<!-- 50 -->
<g id="node51" class="node"><title>50</title>
<ellipse fill="#1874cd" stroke="black" cx="230.47" cy="27.6881" rx="5" ry="5"/>
</g>
<!-- 50&#45;&#45;5 -->
<g id="edge70" class="edge"><title>50&#45;&#45;5</title>
<path fill="none" stroke="black" d="M230.769,32.6875C231.299,41.5467 232.425,60.382 233.261,74.3425"/>
</g>
<!-- 51 -->
<g id="node52" class="node"><title>51</title>
<ellipse fill="palegreen" stroke="black" cx="53.3083" cy="-253.477" rx="5" ry="5"/>
</g>
<!-- 51&#45;&#45;0 -->
<g id="edge71" class="edge"><title>51&#45;&#45;0</title>
<path fill="none" stroke="black" d="M58.5348,-252.894C68.9478,-251.734 93.3329,-249.016 117.109,-246.366"/>
</g>
<!-- 52 -->
<g id="node53" class="node"><title>52</title>
<ellipse fill="palegreen" stroke="black" cx="377.67" cy="-270.282" rx="5" ry="5"/>
</g>
<!-- 52&#45;&#45;4 -->
<g id="edge72" class="edge"><title>52&#45;&#45;4</title>
<path fill="none" stroke="black" d="M374.106,-266.348C367.916,-259.517 354.895,-245.145 345.009,-234.234"/>
</g>
<!-- 53 -->
<g id="node54" class="node"><title>53</title>
<ellipse fill="#1874cd" stroke="black" cx="-280.112" cy="-96.1707" rx="5" ry="5"/>
</g>
<!-- 54 -->
<g id="node55" class="node"><title>54</title>
<ellipse fill="olivedrab" stroke="black" cx="331.369" cy="-342.031" rx="5" ry="5"/>
</g>
<!-- 54&#45;&#45;2 -->
<g id="edge73" class="edge"><title>54&#45;&#45;2</title>
<path fill="none" stroke="black" d="M332.658,-347.367C334.588,-355.354 338.391,-371.096 342.039,-386.19"/>
</g>
<!-- 55 -->
<g id="node56" class="node"><title>55</title>
<ellipse fill="olivedrab" stroke="black" cx="420.695" cy="-634.018" rx="5" ry="5"/>
</g>
<!-- 56 -->
<g id="node57" class="node"><title>56</title>
<ellipse fill="palegreen" stroke="black" cx="452.498" cy="-93.2975" rx="5" ry="5"/>
</g>
<!-- 56&#45;&#45;1 -->
<g id="edge74" class="edge"><title>56&#45;&#45;1</title>
<path fill="none" stroke="black" d="M453.539,-88.2819C454.683,-82.7681 456.645,-73.3214 458.772,-63.0716"/>
</g>
<!-- 57 -->
<g id="node58" class="node"><title>57</title>
<ellipse fill="#787878" stroke="black" cx="117.363" cy="-40.698" rx="5" ry="5"/>
</g>
<!-- 57&#45;&#45;6 -->
<g id="edge75" class="edge"><title>57&#45;&#45;6</title>
<path fill="none" stroke="black" d="M116.178,-45.5712C114.023,-54.4356 109.377,-73.5462 106.047,-87.2459"/>
</g>
<!-- 58 -->
<g id="node59" class="node"><title>58</title>
<ellipse fill="palegreen" stroke="black" cx="541.335" cy="-0.512351" rx="5" ry="5"/>
</g>
<!-- 58&#45;&#45;1 -->
<g id="edge76" class="edge"><title>58&#45;&#45;1</title>
<path fill="none" stroke="black" d="M536.088,-1.68767C531.121,-2.80012 523.134,-4.58881 514.359,-6.55418"/>
</g>
<!-- 59 -->
<g id="node60" class="node"><title>59</title>
<ellipse fill="#787878" stroke="black" cx="218.96" cy="-346.214" rx="5" ry="5"/>
</g>
<!-- 59&#45;&#45;0 -->
<g id="edge77" class="edge"><title>59&#45;&#45;0</title>
<path fill="none" stroke="black" d="M216.955,-341.371C213.322,-332.598 205.277,-313.172 197.189,-293.642"/>
</g>
<!-- 60 -->
<g id="node61" class="node"><title>60</title>
<ellipse fill="olivedrab" stroke="black" cx="-103" cy="103" rx="5" ry="5"/>
</g>
<!-- anon_2_55_1 -->
<g id="node64" class="node"><title>anon_2_55_1</title>
<ellipse fill="white" stroke="black" cx="387.433" cy="-553.98" rx="2.5" ry="2.5"/>
</g>
<!-- anon_2_55_0&#45;&#45;anon_2_55_1 -->
<g id="edge16" class="edge"><title>anon_2_55_0&#45;&#45;anon_2_55_1</title>
<path fill="none" stroke="black" d="M377.332,-514.766C379.286,-522.352 384.733,-543.498 386.707,-551.161"/>
</g>
<!-- anon_2_55_2 -->
<g id="node65" class="node"><title>anon_2_55_2</title>
<ellipse fill="white" stroke="black" cx="399.88" cy="-594.568" rx="2.5" ry="2.5"/>
</g>
<!-- anon_2_55_1&#45;&#45;anon_2_55_2 -->
<g id="edge17" class="edge"><title>anon_2_55_1&#45;&#45;anon_2_55_2</title>
<path fill="none" stroke="black" d="M388.25,-556.643C390.5,-563.979 396.771,-584.43 399.044,-591.842"/>
</g>
<!-- anon_2_55_2&#45;&#45;55 -->
<g id="edge18" class="edge"><title>anon_2_55_2&#45;&#45;55</title>
<path fill="none" stroke="black" d="M401.246,-597.156C404.719,-603.739 413.923,-621.182 418.307,-629.492"/>
</g>
<!-- anon_5_40_0&#45;&#45;40 -->
<g id="edge23" class="edge"><title>anon_5_40_0&#45;&#45;40</title>
<path fill="none" stroke="black" d="M284.514,47.8848C290.626,43.7613 308.451,31.7342 316.981,25.9784"/>
</g>
<!-- anon_8_22_0&#45;&#45;22 -->
<g id="edge29" class="edge"><title>anon_8_22_0&#45;&#45;22</title>
<path fill="none" stroke="black" d="M83.4686,185.727C82.6555,193.712 80.2516,217.32 79.1694,227.948"/>
</g>
<!-- anon_8_37_1 -->
<g id="node69" class="node"><title>anon_8_37_1</title>
<ellipse fill="white" stroke="black" cx="3.44243" cy="203.821" rx="2.5" ry="2.5"/>
</g>
<!-- anon_8_37_0&#45;&#45;anon_8_37_1 -->
<g id="edge31" class="edge"><title>anon_8_37_0&#45;&#45;anon_8_37_1</title>
<path fill="none" stroke="black" d="M30.6244,167.93C25.6832,174.454 10.2847,194.787 5.13745,201.583"/>
</g>
<!-- anon_8_37_1&#45;&#45;37 -->
<g id="edge32" class="edge"><title>anon_8_37_1&#45;&#45;37</title>
<path fill="none" stroke="black" d="M2.19152,206.096C-1.5085,212.822 -12.448,232.711 -17.3726,241.664"/>
</g>
<!-- anon_10_8_1 -->
<g id="node71" class="node"><title>anon_10_8_1</title>
<ellipse fill="white" stroke="black" cx="-104.008" cy="-82.8193" rx="2.5" ry="2.5"/>
</g>
<!-- anon_10_8_0&#45;&#45;anon_10_8_1 -->
<g id="edge35" class="edge"><title>anon_10_8_0&#45;&#45;anon_10_8_1</title>
<path fill="none" stroke="black" d="M-136.308,-108.002C-130.06,-103.13 -112.642,-89.5506 -106.33,-84.6295"/>
</g>
<!-- anon_10_8_2 -->
<g id="node72" class="node"><title>anon_10_8_2</title>
<ellipse fill="white" stroke="black" cx="-70.6442" cy="-55.2494" rx="2.5" ry="2.5"/>
</g>
<!-- anon_10_8_1&#45;&#45;anon_10_8_2 -->
<g id="edge36" class="edge"><title>anon_10_8_1&#45;&#45;anon_10_8_2</title>
<path fill="none" stroke="black" d="M-101.819,-81.0104C-95.7881,-76.0269 -78.9772,-62.1353 -72.8851,-57.1012"/>
</g>
<!-- anon_10_8_3 -->
<g id="node73" class="node"><title>anon_10_8_3</title>
<ellipse fill="white" stroke="black" cx="-38.8771" cy="-25.9156" rx="2.5" ry="2.5"/>
</g>
<!-- anon_10_8_2&#45;&#45;anon_10_8_3 -->
<g id="edge37" class="edge"><title>anon_10_8_2&#45;&#45;anon_10_8_3</title>
<path fill="none" stroke="black" d="M-68.5599,-53.3247C-62.8177,-48.0224 -46.8113,-33.2421 -41.0108,-27.8858"/>
</g>
<!-- anon_10_8_4 -->
<g id="node74" class="node"><title>anon_10_8_4</title>
<ellipse fill="white" stroke="black" cx="-8.31036" cy="5.05482" rx="2.5" ry="2.5"/>
</g>
<!-- anon_10_8_3&#45;&#45;anon_10_8_4 -->
<g id="edge38" class="edge"><title>anon_10_8_3&#45;&#45;anon_10_8_4</title>
<path fill="none" stroke="black" d="M-36.8715,-23.8836C-31.3463,-18.2854 -15.9447,-2.68038 -10.3634,2.97467"/>
</g>
<!-- anon_10_8_5 -->
<g id="node75" class="node"><title>anon_10_8_5</title>
<ellipse fill="white" stroke="black" cx="21.5265" cy="37.5981" rx="2.5" ry="2.5"/>
</g>
<!-- anon_10_8_4&#45;&#45;anon_10_8_5 -->
<g id="edge39" class="edge"><title>anon_10_8_4&#45;&#45;anon_10_8_5</title>
<path fill="none" stroke="black" d="M-6.35268,7.19007C-0.855672,13.1857 14.6562,30.1046 19.826,35.7433"/>
</g>
<!-- anon_10_8_6 -->
<g id="node76" class="node"><title>anon_10_8_6</title>
<ellipse fill="white" stroke="black" cx="50.4099" cy="72.3772" rx="2.5" ry="2.5"/>
</g>
<!-- anon_10_8_5&#45;&#45;anon_10_8_6 -->
<g id="edge40" class="edge"><title>anon_10_8_5&#45;&#45;anon_10_8_6</title>
<path fill="none" stroke="black" d="M23.4216,39.88C28.743,46.2876 43.7592,64.3689 48.7638,70.395"/>
</g>
<!-- anon_10_8_6&#45;&#45;8 -->
<g id="edge41" class="edge"><title>anon_10_8_6&#45;&#45;8</title>
<path fill="none" stroke="black" d="M51.8431,74.6738C55.933,81.2275 67.8833,100.377 75.9444,113.294"/>
</g>
<!-- anon_10_49_0&#45;&#45;49 -->
<g id="edge44" class="edge"><title>anon_10_49_0&#45;&#45;49</title>
<path fill="none" stroke="black" d="M-162.067,-205.708C-160.833,-213.184 -157.184,-235.289 -155.541,-245.239"/>
</g>
<!-- anon_10_53_0&#45;&#45;53 -->
<g id="edge46" class="edge"><title>anon_10_53_0&#45;&#45;53</title>
<path fill="none" stroke="black" d="M-237.824,-112.454C-244.931,-109.717 -265.944,-101.626 -275.403,-97.9838"/>
</g>
<!-- anon_25_0_0&#45;&#45;0 -->
<g id="edge55" class="edge"><title>anon_25_0_0&#45;&#45;0</title>
<path fill="none" stroke="black" d="M141.045,-355.647C143.394,-347.624 151.096,-321.332 158.565,-295.833"/>
</g>
<!-- anon_39_1_1 -->
<g id="node81" class="node"><title>anon_39_1_1</title>
<ellipse fill="white" stroke="black" cx="308.972" cy="-42.1651" rx="2.5" ry="2.5"/>
</g>
<!-- anon_39_1_0&#45;&#45;anon_39_1_1 -->
<g id="edge62" class="edge"><title>anon_39_1_0&#45;&#45;anon_39_1_1</title>
<path fill="none" stroke="black" d="M268.663,-46.3591C276.16,-45.579 298.085,-43.2979 306.043,-42.4699"/>
</g>
<!-- anon_39_1_2 -->
<g id="node82" class="node"><title>anon_39_1_2</title>
<ellipse fill="white" stroke="black" cx="353.228" cy="-36.0519" rx="2.5" ry="2.5"/>
</g>
<!-- anon_39_1_1&#45;&#45;anon_39_1_2 -->
<g id="edge63" class="edge"><title>anon_39_1_1&#45;&#45;anon_39_1_2</title>
<path fill="none" stroke="black" d="M311.608,-41.801C319.498,-40.7112 342.863,-37.4837 350.661,-36.4065"/>
</g>
<!-- anon_39_1_2&#45;&#45;1 -->
<g id="edge64" class="edge"><title>anon_39_1_2&#45;&#45;1</title>
<path fill="none" stroke="black" d="M356.074,-35.5774C365.285,-34.0416 395.235,-29.0481 421.888,-24.6043"/>
</g>
<!-- anon_41_1_0&#45;&#45;1 -->
<g id="edge66" class="edge"><title>anon_41_1_0&#45;&#45;1</title>
<path fill="none" stroke="black" d="M567.955,-67.089C559.878,-63.0147 533.821,-49.8714 510.388,-38.0511"/>
</g>
<!-- anon_45_4_0&#45;&#45;4 -->
<g id="edge68" class="edge"><title>anon_45_4_0&#45;&#45;4</title>
<path fill="none" stroke="black" d="M373.918,-175.879C369.035,-181.068 355.57,-195.377 345.256,-206.337"/>
</g>
</g>
</svg>
