<?xml version="1.0" encoding="UTF-8" standalone="no"?>
<!DOCTYPE svg PUBLIC "-//W3C//DTD SVG 1.1//EN"
 "http://www.w3.org/Graphics/SVG/1.1/DTD/svg11.dtd">
<!-- Generated by graphviz version 2.38.0 (20140413.2041)
 -->
<!-- Title: %3 Pages: 1 -->
<svg width="178pt" height="216pt"
 viewBox="0.00 0.00 178.46 215.93" xmlns="http://www.w3.org/2000/svg" xmlns:xlink="http://www.w3.org/1999/xlink">
<g id="graph0" class="graph" transform="scale(1 1) rotate(0) translate(76.5212 168.898)">
<title>%3</title>
<polygon fill="white" stroke="none" points="-76.5212,47.0272 -76.5212,-168.898 101.938,-168.898 101.938,47.0272 -76.5212,47.0272"/>
<!-- 0 -->
<g id="node1" class="node"><title>0</title>
<ellipse fill="palegreen" stroke="black" cx="3.79651" cy="-38.3436" rx="33" ry="33"/>
</g>
<!-- 1 -->
<g id="node2" class="node"><title>1</title>
<ellipse fill="palegreen" stroke="black" cx="15.1873" cy="-122.707" rx="9" ry="9"/>
</g>
<!-- 1&#45;&#45;0 -->
<g id="edge1" class="edge"><title>1&#45;&#45;0</title>
<path fill="none" stroke="black" d="M13.9683,-113.679C12.6023,-103.562 10.3084,-86.5724 8.24433,-71.2854"/>
</g>
<!-- 2 -->
<g id="node3" class="node"><title>2</title>
<ellipse fill="palegreen" stroke="black" cx="-18.9512" cy="-159.898" rx="5" ry="5"/>
</g>
<!-- 2&#45;&#45;1 -->
<g id="edge2" class="edge"><title>2&#45;&#45;1</title>
<path fill="none" stroke="black" d="M-15.553,-156.196C-9.8189,-149.949 1.85544,-137.231 9.05201,-129.391"/>
</g>
<!-- 3 -->
<g id="node4" class="node"><title>3</title>
<ellipse fill="palegreen" stroke="black" cx="-25.4025" cy="-113.147" rx="5" ry="5"/>
</g>
<!-- 3&#45;&#45;0 -->
<g id="edge3" class="edge"><title>3&#45;&#45;0</title>
<path fill="none" stroke="black" d="M-23.4867,-108.239C-20.3909,-100.308 -14.0495,-84.0624 -8.25896,-69.228"/>
</g>
<!-- 3&#45;&#45;2 -->
<g id="edge14" class="edge"><title>3&#45;&#45;2</title>
<path fill="none" stroke="black" stroke-dasharray="5,2" d="M-24.7121,-118.15C-23.4769,-127.101 -20.9018,-145.762 -19.6562,-154.789"/>
</g>
<!-- 4 -->
<g id="node5" class="node"><title>4</title>
<ellipse fill="palegreen" stroke="black" cx="92.9384" cy="-20.3333" rx="5" ry="5"/>
</g>
<!-- 4&#45;&#45;0 -->
<g id="edge4" class="edge"><title>4&#45;&#45;0</title>
<path fill="none" stroke="black" d="M87.8903,-21.3532C78.0196,-23.3475 55.4417,-27.9092 36.1639,-31.8041"/>
</g>
<!-- 5 -->
<g id="node6" class="node"><title>5</title>
<ellipse fill="palegreen" stroke="black" cx="62.7569" cy="-26.4413" rx="3.5" ry="3.5"/>
</g>
<!-- 5&#45;&#45;0 -->
<g id="edge5" class="edge"><title>5&#45;&#45;0</title>
<path fill="none" stroke="black" d="M59.2453,-27.1502C54.5349,-28.1011 45.6847,-29.8877 36.4158,-31.7588"/>
</g>
<!-- 6 -->
<g id="node7" class="node"><title>6</title>
<ellipse fill="palegreen" stroke="black" cx="-67.6821" cy="-63.2809" rx="3.5" ry="3.5"/>
</g>
<!-- 6&#45;&#45;0 -->
<g id="edge6" class="edge"><title>6&#45;&#45;0</title>
<path fill="none" stroke="black" d="M-64.2346,-62.0781C-57.4859,-59.7237 -41.9184,-54.2925 -27.3764,-49.2191"/>
</g>
<!-- 7 -->
<g id="node8" class="node"><title>7</title>
<ellipse fill="palegreen" stroke="black" cx="74.2406" cy="-24.1152" rx="3.5" ry="3.5"/>
</g>
<!-- 7&#45;&#45;0 -->
<g id="edge7" class="edge"><title>7&#45;&#45;0</title>
<path fill="none" stroke="black" d="M70.4532,-24.8801C63.8803,-26.2078 49.7615,-29.0595 36.2029,-31.7981"/>
</g>
<!-- 8 -->
<g id="node9" class="node"><title>8</title>
<ellipse fill="palegreen" stroke="black" cx="-44.4473" cy="22.0477" rx="3.5" ry="3.5"/>
</g>
<!-- 8&#45;&#45;0 -->
<g id="edge8" class="edge"><title>8&#45;&#45;0</title>
<path fill="none" stroke="black" d="M-42.1204,19.1349C-37.5278,13.3859 -26.8843,0.0624219 -17.0001,-12.3105"/>
</g>
<!-- 9 -->
<g id="node10" class="node"><title>9</title>
<ellipse fill="palegreen" stroke="black" cx="68.5154" cy="-25.275" rx="3.5" ry="3.5"/>
</g>
<!-- 9&#45;&#45;0 -->
<g id="edge9" class="edge"><title>9&#45;&#45;0</title>
<path fill="none" stroke="black" d="M65.0359,-25.9776C59.4172,-27.1122 47.797,-29.4586 36.1738,-31.8057"/>
</g>
<!-- 10 -->
<g id="node11" class="node"><title>10</title>
<ellipse fill="palegreen" stroke="black" cx="85.6037" cy="-21.8133" rx="3.5" ry="3.5"/>
</g>
<!-- 10&#45;&#45;0 -->
<g id="edge10" class="edge"><title>10&#45;&#45;0</title>
<path fill="none" stroke="black" d="M82.0886,-22.5236C74.137,-24.1303 54.0718,-28.1847 36.2464,-31.7866"/>
</g>
<!-- 11 -->
<g id="node12" class="node"><title>11</title>
<ellipse fill="palegreen" stroke="black" cx="79.936" cy="-22.9614" rx="3.5" ry="3.5"/>
</g>
<!-- 11&#45;&#45;0 -->
<g id="edge11" class="edge"><title>11&#45;&#45;0</title>
<path fill="none" stroke="black" d="M76.2637,-23.7033C68.9561,-25.1796 51.9416,-28.617 36.2349,-31.7902"/>
</g>
<!-- 12 -->
<g id="node13" class="node"><title>12</title>
<ellipse fill="palegreen" stroke="black" cx="-69.0212" cy="-15.7157" rx="3.5" ry="3.5"/>
</g>
<!-- 12&#45;&#45;0 -->
<g id="edge12" class="edge"><title>12&#45;&#45;0</title>
<path fill="none" stroke="black" d="M-65.5091,-16.8071C-58.634,-18.9435 -42.7749,-23.8717 -27.9604,-28.4752"/>
</g>
<!-- 13 -->
<g id="node14" class="node"><title>13</title>
<ellipse fill="palegreen" stroke="black" cx="-7.41091" cy="39.5272" rx="3.5" ry="3.5"/>
</g>
<!-- 13&#45;&#45;0 -->
<g id="edge13" class="edge"><title>13&#45;&#45;0</title>
<path fill="none" stroke="black" d="M-6.87035,35.7713C-5.78597,28.2368 -3.24943,10.6126 -0.921931,-5.55917"/>
</g>
</g>
</svg>
