<?xml version="1.0" encoding="UTF-8" standalone="no"?>
<!DOCTYPE svg PUBLIC "-//W3C//DTD SVG 1.1//EN"
 "http://www.w3.org/Graphics/SVG/1.1/DTD/svg11.dtd">
<!-- Generated by graphviz version 2.38.0 (20140413.2041)
 -->
<!-- Title: %3 Pages: 1 -->
<svg width="903pt" height="777pt"
 viewBox="0.00 0.00 902.68 777.26" xmlns="http://www.w3.org/2000/svg" xmlns:xlink="http://www.w3.org/1999/xlink">
<g id="graph0" class="graph" transform="scale(1 1) rotate(0) translate(339.776 521.368)">
<title>%3</title>
<polygon fill="white" stroke="none" points="-339.776,255.889 -339.776,-521.368 562.907,-521.368 562.907,255.889 -339.776,255.889"/>
<!-- 0 -->
<g id="node1" class="node"><title>0</title>
<path fill="deepskyblue" stroke="black" stroke-width="0.5" d="M30.865,-145.657C30.865,-145.657 56.365,-145.657 56.365,-145.657 56.365,-146.959 56.2652,-148.26 56.0665,-149.547 55.8678,-150.834 55.5708,-152.104 55.1781,-153.346 54.7854,-154.588 54.2981,-155.798 53.7205,-156.965 53.1429,-158.132 52.4767,-159.254 51.7278,-160.319 50.9789,-161.385 50.1495,-162.392 49.2468,-163.331 48.3441,-164.269 47.3708,-165.138 46.3354,-165.928 45.3,-166.718 44.2057,-167.428 43.0619,-168.051 41.9181,-168.674 40.7283,-169.208 39.5028,-169.649 38.2774,-170.09 37.02,-170.437 35.7416,-170.686 34.4632,-170.935 33.1676,-171.086 31.8661,-171.137 30.5647,-171.188 29.2613,-171.14 27.9673,-170.992 26.6733,-170.844 25.3925,-170.597 24.1362,-170.253 22.88,-169.909 21.6519,-169.47 20.4627,-168.939 19.2736,-168.407 18.1269,-167.786 17.0327,-167.079 15.9386,-166.373 14.9002,-165.583 13.9266,-164.718 12.953,-163.853 12.0471,-162.915 11.2169,-161.911 10.3867,-160.908 9.63462,-159.842 8.96723,-158.723 8.29984,-157.605 7.71912,-156.437 7.23017,-155.23 6.74121,-154.023 6.34546,-152.78 6.04639,-151.512 5.74732,-150.245 5.5458,-148.956 5.44362,-147.658 5.34143,-146.359 5.33887,-145.055 5.43595,-143.756 5.53304,-142.457 5.72949,-141.168 6.02359,-139.899 6.31768,-138.63 6.70854,-137.386 7.19275,-136.177 7.67696,-134.968 8.25309,-133.797 8.91608,-132.676 9.57908,-131.555 10.327,-130.487 11.1532,-129.48 11.9795,-128.473 12.8817,-127.531 13.8518,-126.662 14.822,-125.793 15.8573,-125 16.9487,-124.289 18.0401,-123.578 19.1843,-122.952 20.3714,-122.416 21.5584,-121.88 22.7848,-121.436 24.0397,-121.087 25.2946,-120.739 26.5744,-120.487 27.8678,-120.334 29.1612,-120.18 30.4644,-120.127 31.7661,-120.173 33.0677,-120.219 34.3639,-120.364 35.6432,-120.608 35.6432,-120.608 30.865,-145.657 30.865,-145.657"/>
<path fill="#98f5ff" stroke="black" stroke-width="0.5" d="M30.865,-145.657C30.865,-145.657 35.6432,-120.608 35.6432,-120.608 36.3647,-120.746 37.0798,-120.915 37.7867,-121.114 38.4936,-121.314 39.1916,-121.543 39.8786,-121.803 40.5657,-122.063 41.2412,-122.352 41.9033,-122.67 42.5653,-122.988 43.2134,-123.334 43.8456,-123.708 44.4777,-124.082 45.0935,-124.483 45.691,-124.91 46.2886,-125.337 46.8674,-125.789 47.4259,-126.266 47.9844,-126.743 48.522,-127.244 49.0373,-127.768 49.5525,-128.291 50.0449,-128.837 50.5131,-129.403 50.9813,-129.968 51.4248,-130.554 51.8423,-131.158 52.2599,-131.763 52.6512,-132.385 53.0151,-133.023 53.379,-133.661 53.7152,-134.314 54.0227,-134.981 54.3301,-135.648 54.6087,-136.328 54.8575,-137.019 55.1063,-137.71 55.3251,-138.412 55.5133,-139.121 55.7015,-139.831 55.859,-140.549 55.9853,-141.273 56.1116,-141.996 56.2065,-142.725 56.2699,-143.457 56.3333,-144.188 56.365,-144.922 56.365,-145.657 56.365,-145.657 30.865,-145.657 30.865,-145.657"/>
<ellipse fill="none" stroke="black" cx="30.865" cy="-145.657" rx="25.5" ry="25.5"/>
<text text-anchor="middle" x="30.865" y="-141.957" font-family="monospace" font-size="14.00">0</text>
</g>
<!-- 24 -->
<g id="node25" class="node"><title>24</title>
<ellipse fill="deepskyblue" stroke="black" cx="9.30034" cy="-231.572" rx="3.5" ry="3.5"/>
<text text-anchor="middle" x="9.30034" y="-227.872" font-family="monospace" font-size="14.00">24</text>
</g>
<!-- 0&#45;&gt;24 -->
<g id="edge1" class="edge"><title>0&#45;&gt;24</title>
<path fill="none" stroke="black" d="M24.6276,-170.507C19.4529,-191.123 12.5687,-218.551 10.169,-228.111"/>
</g>
<!-- 1 -->
<g id="node2" class="node"><title>1</title>
<ellipse fill="deepskyblue" stroke="black" cx="-204.51" cy="-5.82773" rx="3.5" ry="3.5"/>
<text text-anchor="middle" x="-204.51" y="-2.12773" font-family="monospace" font-size="14.00">1</text>
</g>
<!-- 2 -->
<g id="node3" class="node"><title>2</title>
<ellipse fill="#ff3030" stroke="black" cx="55.9167" cy="57.392" rx="14" ry="14"/>
<text text-anchor="middle" x="55.9167" y="61.092" font-family="monospace" font-size="14.00">2</text>
</g>
<!-- 6 -->
<g id="node7" class="node"><title>6</title>
<path fill="deepskyblue" stroke="black" stroke-width="0.5" d="M-25.6652,-8.84346C-25.6652,-8.84346 8.83478,-8.84346 8.83478,-8.84346 8.83478,-10.0091 8.7757,-11.1741 8.65777,-12.3338 8.53984,-13.4935 8.36321,-14.6464 8.12856,-15.7883 7.89391,-16.9301 7.60154,-18.0593 7.25258,-19.1715 6.90362,-20.2837 6.49851,-21.3775 6.03882,-22.4487 6.03882,-22.4487 -25.6652,-8.84346 -25.6652,-8.84346"/>
<path fill="#ff3030" stroke="black" stroke-width="0.5" d="M-25.6652,-8.84346C-25.6652,-8.84346 6.03882,-22.4487 6.03882,-22.4487 5.4258,-23.8773 4.71692,-25.2627 3.91705,-26.5956 3.11717,-27.9285 2.22812,-29.2059 1.25598,-30.4189 1.25598,-30.4189 -25.6652,-8.84346 -25.6652,-8.84346"/>
<path fill="brown" stroke="black" stroke-width="0.5" d="M-25.6652,-8.84346C-25.6652,-8.84346 1.25598,-30.4189 1.25598,-30.4189 0.625747,-31.2053 -0.0386417,-31.9637 -0.735273,-32.6919 -1.4319,-33.4201 -2.16011,-34.1175 -2.91779,-34.7819 -3.67548,-35.4464 -4.46191,-36.0774 -5.27483,-36.673 -6.08775,-37.2686 -6.92638,-37.8283 -7.78831,-38.3505 -8.65023,-38.8727 -9.53462,-39.3569 -10.4389,-39.8017 -11.3432,-40.2464 -12.2666,-40.6514 -13.2064,-41.0153 -14.1461,-41.3792 -15.1014,-41.7018 -16.0694,-41.9821 -17.0374,-42.2624 -18.0172,-42.5002 -19.0061,-42.6947 -19.9949,-42.8892 -20.9918,-43.0403 -21.9938,-43.1476 -22.9959,-43.2548 -24.0021,-43.3181 -25.0097,-43.3372 -26.0173,-43.3564 -27.0252,-43.3314 -28.0306,-43.2623 -29.036,-43.1932 -30.0379,-43.0801 -31.0334,-42.9233 -32.0289,-42.7664 -33.0171,-42.5661 -33.995,-42.3228 -34.973,-42.0795 -35.9398,-41.7934 -36.8927,-41.4654 -37.8456,-41.1375 -38.7837,-40.7679 -39.7043,-40.3578 -40.6249,-39.9477 -41.527,-39.4975 -42.4081,-39.0084 -43.2893,-38.5193 -44.1486,-37.9919 -44.9835,-37.4276 -45.8185,-36.8633 -46.6283,-36.2627 -47.4107,-35.6275 -48.1931,-34.9923 -48.9473,-34.3231 -49.6711,-33.6219 -50.3949,-32.9206 -51.0876,-32.188 -51.7473,-31.4261 -52.4069,-30.6643 -53.0329,-29.8739 -53.6233,-29.0572 -54.2138,-28.2405 -54.7682,-27.3983 -55.2849,-26.5331 -55.8016,-25.6679 -56.2802,-24.7805 -56.7192,-23.8734 -57.1583,-22.9662 -57.5574,-22.0403 -57.9153,-21.0983 -58.2733,-20.1562 -58.5898,-19.1989 -58.864,-18.2292 -59.1382,-17.2594 -59.3697,-16.2781 -59.5579,-15.2881 -59.7462,-14.298 -59.891,-13.3002 -59.9919,-12.2975 -60.0928,-11.2948 -60.1497,-10.2882 -60.1625,-9.28049 -60.1752,-8.27279 -60.1438,-7.26503 -60.0684,-6.26008 -59.9929,-5.25514 -59.8734,-4.25399 -59.7103,-3.2595 -59.5472,-2.26502 -59.3406,-1.27816 -59.0911,-0.301763 -58.8416,0.674633 -58.5494,1.63963 -58.2154,2.59044 -57.8814,3.54126 -57.5059,4.47699 -57.09,5.39493 -56.6741,6.31287 -56.2182,7.21215 -55.7235,8.09018 -55.2289,8.96821 -54.696,9.82414 -54.1264,10.6555 -53.5568,11.4869 -52.9511,12.2929 -52.311,13.0712 -51.6708,13.8496 -50.9969,14.5995 -50.2911,15.3189 -49.5853,16.0382 -48.8483,16.7263 -48.0823,17.3811 -47.3162,18.0359 -46.5219,18.6568 -45.7015,19.2421 -44.8811,19.8274 -44.0354,20.3764 -43.1669,20.8877 -42.2985,21.3989 -41.408,21.8719 -40.4981,22.3051 -39.5883,22.7384 -38.6598,23.1316 -37.7155,23.4836 -36.7712,23.8356 -35.812,24.1461 -34.8405,24.4141 -33.869,24.6821 -32.8863,24.9074 -31.895,25.0894 -30.9038,25.2714 -29.9051,25.4098 -28.9018,25.5044 -27.8985,25.5989 -26.8915,25.6495 -25.8837,25.6558 -24.876,25.6622 -23.8684,25.6245 -22.864,25.5426 -21.8596,25.4608 -20.8592,25.335 -19.8657,25.1656 -18.8723,24.9962 -17.8868,24.7833 -16.912,24.5276 -15.9372,24.272 -14.9741,23.9737 -14.0254,23.6337 -13.0767,23.2937 -12.1434,22.9122 -11.2281,22.4905 -10.3128,22.0688 -9.41641,21.6072 -8.54154,21.107 -7.66666,20.6068 -6.81412,20.0685 -5.98637,19.4937 -5.15862,18.9188 -4.35646,18.308 -3.58218,17.6629 -2.80791,17.0179 -2.06228,16.3392 -1.34742,15.6289 -0.632564,14.9185 0.0508242,14.1772 0.700778,13.407 1.35073,12.6368 1.96663,11.8386 2.54669,11.0145 3.12676,10.1904 3.67044,9.34127 4.17617,8.46958 4.68189,7.59789 5.14919,6.70446 5.57669,5.79186 6.0042,4.87926 6.39152,3.94836 6.73753,3.00185 7.08354,2.05534 7.38791,1.09413 7.64977,0.12097 7.91163,-0.852187 8.13072,-1.83635 8.30642,-2.82869 8.48212,-3.82103 8.61425,-4.82059 8.70243,-5.82449 8.79062,-6.8284 8.83478,-7.83569 8.83478,-8.84346 8.83478,-8.84346 -25.6652,-8.84346 -25.6652,-8.84346"/>
<ellipse fill="none" stroke="black" cx="-25.6652" cy="-8.84346" rx="34.5" ry="34.5"/>
<text text-anchor="middle" x="-25.6652" y="-5.14346" font-family="monospace" font-size="14.00">6</text>
</g>
<!-- 2&#45;&gt;6 -->
<g id="edge2" class="edge"><title>2&#45;&gt;6</title>
<path fill="none" stroke="black" d="M44.9142,48.4592C33.78,39.4195 16.1352,25.0938 1.27385,13.0281"/>
</g>
<!-- 3 -->
<g id="node4" class="node"><title>3</title>
<path fill="#1874cd" stroke="black" stroke-width="0.5" d="M-184.888,-56.2318C-184.888,-56.2318 -150.888,-56.2318 -150.888,-56.2318 -150.888,-57.5179 -150.961,-58.8029 -151.106,-60.0807 -151.252,-61.3585 -151.47,-62.627 -151.759,-63.8802 -152.049,-65.1333 -152.409,-66.369 -152.838,-67.5813 -153.267,-68.7936 -153.765,-69.9805 -154.329,-71.1364 -154.893,-72.2924 -155.522,-73.4153 -156.213,-74.5 -156.904,-75.5847 -157.656,-76.6293 -158.465,-77.6287 -159.274,-78.6282 -160.14,-79.5809 -161.057,-80.4823 -161.974,-81.3838 -162.942,-82.2324 -163.955,-83.0242 -164.969,-83.816 -166.026,-84.5496 -167.123,-85.2216 -168.22,-85.8936 -169.353,-86.5028 -170.519,-87.0463 -171.684,-87.5898 -172.88,-88.0667 -174.1,-88.4748 -175.319,-88.8829 -176.561,-89.2215 -177.819,-89.4888 -179.077,-89.7562 -180.349,-89.952 -181.629,-90.0753 -182.909,-90.1986 -184.195,-90.2491 -185.481,-90.2266 -186.767,-90.2042 -188.051,-90.1088 -189.326,-89.9409 -190.601,-89.7731 -191.865,-89.533 -193.113,-89.2219 -193.113,-89.2219 -184.888,-56.2318 -184.888,-56.2318"/>
<path fill="deepskyblue" stroke="black" stroke-width="0.5" d="M-184.888,-56.2318C-184.888,-56.2318 -193.113,-89.2219 -193.113,-89.2219 -194.457,-88.8868 -195.779,-88.4699 -197.072,-87.9736 -198.366,-87.4772 -199.627,-86.9023 -200.85,-86.252 -202.073,-85.6018 -203.255,-84.8774 -204.39,-84.083 -205.524,-83.2886 -206.609,-82.4255 -207.638,-81.4987 -208.668,-80.572 -209.639,-79.5831 -210.548,-78.5378 -211.457,-77.4925 -212.301,-76.3926 -213.075,-75.2444 -213.85,-74.0961 -214.553,-72.9016 -215.182,-71.6675 -215.811,-70.4334 -216.364,-69.162 -216.837,-67.8605 -217.311,-66.559 -217.705,-65.2297 -218.017,-63.8802 -218.328,-62.5306 -218.557,-61.1633 -218.702,-59.7858 -218.846,-58.4083 -218.907,-57.0233 -218.883,-55.6384 -218.859,-54.2536 -218.75,-52.8715 -218.557,-51.4999 -218.364,-50.1284 -218.088,-48.7698 -217.729,-47.432 -217.371,-46.0941 -216.931,-44.7794 -216.412,-43.4952 -215.893,-42.211 -215.296,-40.9597 -214.625,-39.7483 -213.954,-38.5369 -213.209,-37.3677 -212.395,-36.2471 -212.395,-36.2471 -184.888,-56.2318 -184.888,-56.2318"/>
<path fill="#98f5ff" stroke="black" stroke-width="0.5" d="M-184.888,-56.2318C-184.888,-56.2318 -212.395,-36.2471 -212.395,-36.2471 -211.813,-35.4469 -211.197,-34.6724 -210.548,-33.9258 -209.899,-33.1793 -209.218,-32.4614 -208.506,-31.7743 -207.795,-31.0871 -207.054,-30.4314 -206.285,-29.8089 -205.516,-29.1863 -204.721,-28.5977 -203.9,-28.0445 -203.9,-28.0445 -184.888,-56.2318 -184.888,-56.2318"/>
<path fill="#ff3030" stroke="black" stroke-width="0.5" d="M-184.888,-56.2318C-184.888,-56.2318 -203.9,-28.0445 -203.9,-28.0445 -202.629,-27.187 -201.301,-26.4164 -199.926,-25.7381 -198.55,-25.0599 -197.131,-24.4754 -195.676,-23.9888 -194.222,-23.5022 -192.736,-23.1146 -191.23,-22.8285 -189.723,-22.5425 -188.199,-22.3587 -186.667,-22.2784 -185.136,-22.1982 -183.601,-22.2216 -182.072,-22.3486 -180.544,-22.4756 -179.026,-22.7058 -177.529,-23.0378 -176.032,-23.3697 -174.559,-23.8025 -173.12,-24.3333 -171.681,-24.8641 -170.28,-25.4916 -168.926,-26.2116 -167.572,-26.9316 -166.268,-27.7423 -165.023,-28.6383 -163.779,-29.5343 -162.596,-30.5135 -161.484,-31.5691 -160.371,-32.6247 -159.332,-33.7544 -158.372,-34.9504 -157.412,-36.1464 -156.534,-37.406 -155.744,-38.7205 -154.954,-40.035 -154.254,-41.4015 -153.649,-42.8105 -153.044,-44.2196 -152.534,-45.6679 -152.124,-47.1457 -151.715,-48.6235 -151.405,-50.1273 -151.198,-51.6469 -150.992,-53.1664 -150.888,-54.6983 -150.888,-56.2318 -150.888,-56.2318 -184.888,-56.2318 -184.888,-56.2318"/>
<ellipse fill="none" stroke="black" cx="-184.888" cy="-56.2318" rx="34" ry="34"/>
<text text-anchor="middle" x="-184.888" y="-52.5318" font-family="monospace" font-size="14.00">3</text>
</g>
<!-- 3&#45;&gt;1 -->
<g id="edge3" class="edge"><title>3&#45;&gt;1</title>
<path fill="none" stroke="black" d="M-197.315,-24.3101C-199.688,-18.2146 -201.841,-12.6847 -203.16,-9.29469"/>
</g>
<!-- 18 -->
<g id="node19" class="node"><title>18</title>
<ellipse fill="deepskyblue" stroke="black" cx="-255.74" cy="-70.4566" rx="3.5" ry="3.5"/>
<text text-anchor="middle" x="-255.74" y="-66.7566" font-family="monospace" font-size="14.00">18</text>
</g>
<!-- 3&#45;&gt;18 -->
<g id="edge4" class="edge"><title>3&#45;&gt;18</title>
<path fill="none" stroke="black" d="M-218.239,-62.9277C-231.735,-65.6371 -245.633,-68.4275 -252.064,-69.7187"/>
</g>
<!-- 21 -->
<g id="node22" class="node"><title>21</title>
<ellipse fill="deepskyblue" stroke="black" cx="-237.597" cy="-41.103" rx="3.5" ry="3.5"/>
<text text-anchor="middle" x="-237.597" y="-37.403" font-family="monospace" font-size="14.00">21</text>
</g>
<!-- 3&#45;&gt;21 -->
<g id="edge5" class="edge"><title>3&#45;&gt;21</title>
<path fill="none" stroke="black" d="M-217.67,-46.8226C-224.369,-44.8997 -230.479,-43.1462 -234.118,-42.1015"/>
</g>
<!-- 25 -->
<g id="node26" class="node"><title>25</title>
<ellipse fill="deepskyblue" stroke="black" cx="-217.385" cy="38.9596" rx="3.5" ry="3.5"/>
<text text-anchor="middle" x="-217.385" y="42.6596" font-family="monospace" font-size="14.00">25</text>
</g>
<!-- 3&#45;&gt;25 -->
<g id="edge6" class="edge"><title>3&#45;&gt;25</title>
<path fill="none" stroke="black" d="M-195.89,-24.0043C-203.55,-1.56651 -212.952,25.9759 -216.209,35.5155"/>
</g>
<!-- 29 -->
<g id="node30" class="node"><title>29</title>
<ellipse fill="deepskyblue" stroke="black" cx="-169.83" cy="-11.6821" rx="3.5" ry="3.5"/>
<text text-anchor="middle" x="-169.83" y="-7.98212" font-family="monospace" font-size="14.00">29</text>
</g>
<!-- 3&#45;&gt;29 -->
<g id="edge7" class="edge"><title>3&#45;&gt;29</title>
<path fill="none" stroke="black" d="M-173.945,-23.8555C-172.777,-20.4009 -171.748,-17.3576 -171.012,-15.1779"/>
</g>
<!-- 45 -->
<g id="node46" class="node"><title>45</title>
<ellipse fill="#1874cd" stroke="black" cx="-225.445" cy="-111.565" rx="3.5" ry="3.5"/>
<text text-anchor="middle" x="-225.445" y="-107.865" font-family="monospace" font-size="14.00">45</text>
</g>
<!-- 3&#45;&gt;45 -->
<g id="edge8" class="edge"><title>3&#45;&gt;45</title>
<path fill="none" stroke="black" d="M-205.167,-83.8983C-212.454,-93.841 -219.742,-103.784 -223.265,-108.59"/>
</g>
<!-- 121 -->
<g id="node122" class="node"><title>121</title>
<ellipse fill="black" stroke="black" cx="-260.887" cy="-97.0793" rx="3.5" ry="3.5"/>
<text text-anchor="middle" x="-260.887" y="-93.3793" font-family="monospace" font-size="14.00">121</text>
</g>
<!-- 3&#45;&gt;121 -->
<g id="edge11" class="edge"><title>3&#45;&gt;121</title>
<path fill="none" stroke="black" d="M-214.925,-72.3758C-231.521,-81.2958 -250.238,-91.3561 -257.633,-95.3307"/>
</g>
<!-- anon_3_89_0 -->
<g id="node123" class="node"><title>anon_3_89_0</title>
<ellipse fill="white" stroke="black" cx="-285.097" cy="-50.3069" rx="2.5" ry="2.5"/>
</g>
<!-- 3&#45;&gt;anon_3_89_0 -->
<g id="edge9" class="edge"><title>3&#45;&gt;anon_3_89_0</title>
<path fill="none" stroke="black" d="M-219.094,-54.2094C-243.588,-52.7611 -273.737,-50.9785 -282.56,-50.4568"/>
</g>
<!-- 4 -->
<g id="node5" class="node"><title>4</title>
<path fill="deepskyblue" stroke="black" stroke-width="0.5" d="M28.2655,121.811C28.2655,121.811 60.2655,121.811 60.2655,121.811 60.2655,120.71 60.2086,119.61 60.0952,118.514 59.9817,117.419 59.8118,116.33 59.5861,115.253 59.3605,114.175 59.0793,113.109 58.7438,112.061 58.4082,111.012 58.0188,109.981 57.577,108.972 57.1352,107.964 56.6417,106.979 56.0983,106.021 55.555,105.063 54.9625,104.134 54.3234,103.237 53.6843,102.341 52.9993,101.478 52.2711,100.652 51.543,99.8256 50.7728,99.0377 49.9634,98.291 49.1541,97.5444 48.3067,96.84 47.4248,96.1807 46.5428,95.5214 45.6274,94.9081 44.6822,94.3432 43.737,93.7783 42.7633,93.2625 41.7649,92.798 40.7665,92.3335 39.7449,91.9208 38.704,91.5616 37.663,91.2024 36.6043,90.8972 35.5319,90.6471 34.4595,90.3971 33.375,90.2026 32.2825,90.0643 31.1901,89.9261 30.0912,89.8444 28.9904,89.8194 27.8895,89.7945 26.7881,89.8264 25.6905,89.915 24.593,90.0036 23.5007,90.1488 22.4181,90.35 21.3355,90.5512 20.264,90.8082 19.2079,91.1198 18.1518,91.4315 17.1124,91.7975 16.0941,92.2163 15.0757,92.6351 14.0796,93.1063 13.1098,93.6278 12.14,94.1493 11.1977,94.7205 10.2868,95.3392 9.37587,95.9578 8.49749,96.6231 7.65515,97.3323 6.81281,98.0415 6.00764,98.7938 5.24286,99.586 4.47807,100.378 3.75469,101.209 3.07559,102.076 2.39649,102.943 1.76259,103.844 1.17641,104.776 0.590233,105.709 0.052558,106.67 -0.434466,107.658 -0.921489,108.646 -1.35721,109.658 -1.7399,110.69 -2.12258,111.723 -2.45172,112.774 -2.72599,113.841 -3.00026,114.907 -3.21931,115.987 -3.38225,117.076 -3.54519,118.165 -3.65182,119.262 -3.70169,120.362 -3.75157,121.462 -3.74464,122.564 -3.68092,123.663 -3.6172,124.762 -3.49678,125.857 -3.32015,126.944 -3.32015,126.944 28.2655,121.811 28.2655,121.811"/>
<path fill="#98f5ff" stroke="black" stroke-width="0.5" d="M28.2655,121.811C28.2655,121.811 -3.32015,126.944 -3.32015,126.944 -3.08747,128.376 -2.75771,129.79 -2.33315,131.177 -1.90859,132.564 -1.39022,133.921 -0.781615,135.238 -0.173013,136.554 0.52441,137.828 1.30583,139.05 2.08725,140.272 2.95085,141.44 3.89067,142.544 4.83048,143.649 5.84434,144.689 6.92522,145.656 8.00609,146.624 9.15149,147.516 10.3535,148.328 11.5555,149.14 12.8113,149.87 14.1122,150.511 15.4132,151.153 16.7562,151.705 18.1321,152.164 19.508,152.624 20.9135,152.989 22.3389,153.258 23.7643,153.526 25.2064,153.698 26.6551,153.771 28.1038,153.844 29.5557,153.818 31.0009,153.694 32.4462,153.57 33.8813,153.348 35.2964,153.029 36.7114,152.711 38.1032,152.296 39.462,151.788 40.8209,151.281 42.1436,150.682 43.4212,149.995 44.6987,149.308 45.928,148.535 47.1006,147.681 48.2733,146.827 49.3865,145.894 50.4326,144.89 50.4326,144.89 28.2655,121.811 28.2655,121.811"/>
<path fill="#ff3030" stroke="black" stroke-width="0.5" d="M28.2655,121.811C28.2655,121.811 50.4326,144.89 50.4326,144.89 51.2074,144.145 51.9442,143.363 52.6403,142.544 53.3363,141.726 53.9907,140.873 54.6009,139.989 55.2112,139.105 55.7766,138.191 56.2948,137.25 56.8131,136.309 57.2837,135.342 57.7048,134.354 58.1259,133.366 58.4969,132.357 58.8165,131.331 59.1361,130.306 59.4039,129.265 59.6188,128.212 59.8336,127.159 59.9954,126.097 60.1034,125.028 60.2114,123.959 60.2655,122.885 60.2655,121.811 60.2655,121.811 28.2655,121.811 28.2655,121.811"/>
<ellipse fill="none" stroke="black" cx="28.2655" cy="121.811" rx="32" ry="32"/>
<text text-anchor="middle" x="28.2655" y="125.511" font-family="monospace" font-size="14.00">4</text>
</g>
<!-- 5 -->
<g id="node6" class="node"><title>5</title>
<ellipse fill="#ff3030" stroke="black" cx="-45.717" cy="113.017" rx="18" ry="18"/>
<text text-anchor="middle" x="-45.717" y="116.717" font-family="monospace" font-size="14.00">5</text>
</g>
<!-- 32 -->
<g id="node33" class="node"><title>32</title>
<ellipse fill="#ff3030" stroke="black" cx="-15.6451" cy="184.962" rx="3.5" ry="3.5"/>
<text text-anchor="middle" x="-15.6451" y="188.662" font-family="monospace" font-size="14.00">32</text>
</g>
<!-- 5&#45;&gt;32 -->
<g id="edge12" class="edge"><title>5&#45;&gt;32</title>
<path fill="none" stroke="black" d="M-38.7423,129.703C-31.5244,146.972 -20.7878,172.658 -17.0153,181.684"/>
</g>
<!-- 38 -->
<g id="node39" class="node"><title>38</title>
<ellipse fill="#ff3030" stroke="black" cx="-108.685" cy="148.084" rx="3.5" ry="3.5"/>
<text text-anchor="middle" x="-108.685" y="151.784" font-family="monospace" font-size="14.00">38</text>
</g>
<!-- 5&#45;&gt;38 -->
<g id="edge13" class="edge"><title>5&#45;&gt;38</title>
<path fill="none" stroke="black" d="M-61.6065,121.866C-76.4713,130.144 -97.5407,141.878 -105.487,146.303"/>
</g>
<!-- 39 -->
<g id="node40" class="node"><title>39</title>
<ellipse fill="#ff3030" stroke="black" cx="-58.9607" cy="174.254" rx="3.5" ry="3.5"/>
<text text-anchor="middle" x="-58.9607" y="177.954" font-family="monospace" font-size="14.00">39</text>
</g>
<!-- 5&#45;&gt;39 -->
<g id="edge14" class="edge"><title>5&#45;&gt;39</title>
<path fill="none" stroke="black" d="M-49.5476,130.729C-52.5422,144.576 -56.4691,162.734 -58.1453,170.484"/>
</g>
<!-- 6&#45;&gt;0 -->
<g id="edge15" class="edge"><title>6&#45;&gt;0</title>
<path fill="none" stroke="black" d="M-12.4114,-40.9201C-2.1643,-65.7199 11.7909,-99.4942 21.052,-121.908"/>
</g>
<!-- 6&#45;&gt;3 -->
<g id="edge16" class="edge"><title>6&#45;&gt;3</title>
<path fill="none" stroke="black" d="M-59.0435,-18.7776C-86.4005,-26.9197 -124.904,-38.3791 -152.099,-46.4731"/>
</g>
<!-- 6&#45;&gt;4 -->
<g id="edge17" class="edge"><title>6&#45;&gt;4</title>
<path fill="none" stroke="black" d="M-12.4723,23.1183C-3.8032,44.1204 7.46191,71.4117 15.9481,91.9707"/>
</g>
<!-- 6&#45;&gt;5 -->
<g id="edge18" class="edge"><title>6&#45;&gt;5</title>
<path fill="none" stroke="black" d="M-31.3041,25.4258C-35.034,48.0936 -39.773,76.8939 -42.7766,95.1475"/>
</g>
<!-- 7 -->
<g id="node8" class="node"><title>7</title>
<ellipse fill="#ff3030" stroke="black" cx="20.496" cy="-3.64809" rx="9.5" ry="9.5"/>
<text text-anchor="middle" x="20.496" y="0.0519125" font-family="monospace" font-size="14.00">7</text>
</g>
<!-- 6&#45;&gt;7 -->
<g id="edge19" class="edge"><title>6&#45;&gt;7</title>
<path fill="none" stroke="black" d="M8.84759,-4.9591C9.57804,-4.87689 10.2881,-4.79698 10.9734,-4.71985"/>
</g>
<!-- 8 -->
<g id="node9" class="node"><title>8</title>
<ellipse fill="#ff3030" stroke="black" cx="-49.5494" cy="-77.7568" rx="6" ry="6"/>
<text text-anchor="middle" x="-49.5494" y="-74.0568" font-family="monospace" font-size="14.00">8</text>
</g>
<!-- 6&#45;&gt;8 -->
<g id="edge20" class="edge"><title>6&#45;&gt;8</title>
<path fill="none" stroke="black" d="M-37.0477,-41.6855C-41.0847,-53.3335 -45.2072,-65.2281 -47.5644,-72.0293"/>
</g>
<!-- 17 -->
<g id="node18" class="node"><title>17</title>
<ellipse fill="#ff3030" stroke="black" cx="-74.8043" cy="2.80011" rx="6" ry="6"/>
<text text-anchor="middle" x="-74.8043" y="6.50011" font-family="monospace" font-size="14.00">17</text>
</g>
<!-- 6&#45;&gt;17 -->
<g id="edge21" class="edge"><title>6&#45;&gt;17</title>
<path fill="none" stroke="black" d="M-59.2564,-0.88399C-62.9004,-0.0205294 -66.237,0.770077 -68.877,1.39562"/>
</g>
<!-- 19 -->
<g id="node20" class="node"><title>19</title>
<path fill="deepskyblue" stroke="black" stroke-width="0.5" d="M-27.3391,-102.303C-27.3391,-102.303 -15.8391,-102.303 -15.8391,-102.303 -15.8391,-102.755 -15.8657,-103.206 -15.9188,-103.654 -15.9719,-104.103 -16.0514,-104.548 -16.1568,-104.987 -16.2623,-105.427 -16.3935,-105.859 -16.5499,-106.283 -16.7062,-106.707 -16.8874,-107.121 -17.0925,-107.524 -17.2976,-107.926 -17.5262,-108.316 -17.7772,-108.692 -18.0281,-109.067 -18.301,-109.428 -18.5944,-109.771 -18.8878,-110.115 -19.2011,-110.441 -19.5329,-110.747 -19.8646,-111.054 -20.2141,-111.341 -20.5795,-111.606 -20.945,-111.872 -21.3258,-112.116 -21.7199,-112.336 -22.1141,-112.557 -22.5209,-112.755 -22.9382,-112.927 -23.3556,-113.1 -23.7827,-113.248 -24.2175,-113.371 -24.6523,-113.494 -25.0939,-113.591 -25.5401,-113.661 -25.9863,-113.732 -26.4362,-113.776 -26.8876,-113.794 -27.339,-113.812 -27.791,-113.803 -28.2414,-113.767 -28.6917,-113.732 -29.1396,-113.67 -29.5826,-113.582 -30.0257,-113.494 -30.4631,-113.38 -30.8928,-113.24 -31.3224,-113.1 -31.7434,-112.936 -32.1537,-112.746 -32.5639,-112.557 -32.9626,-112.344 -33.3478,-112.108 -33.733,-111.872 -34.1039,-111.614 -34.4587,-111.334 -34.8134,-111.054 -35.1514,-110.754 -35.4708,-110.435 -35.7902,-110.115 -36.0906,-109.777 -36.3702,-109.422 -36.6499,-109.068 -36.9084,-108.697 -37.1444,-108.312 -37.3805,-107.926 -37.5936,-107.528 -37.7827,-107.117 -37.9718,-106.707 -38.1366,-106.286 -38.2762,-105.856 -38.4158,-105.427 -38.53,-104.989 -38.6181,-104.546 -38.7062,-104.103 -38.7682,-103.655 -38.8036,-103.205 -38.8391,-102.755 -38.8479,-102.303 -38.8302,-101.851 -38.8125,-101.4 -38.7682,-100.95 -38.6975,-100.504 -38.6268,-100.058 -38.5299,-99.616 -38.4073,-99.1812 -38.2847,-98.7464 -38.1366,-98.3193 -37.9637,-97.9019 -37.7908,-97.4846 -37.5935,-97.0778 -37.3728,-96.6836 -37.1521,-96.2895 -36.9083,-95.9087 -36.6428,-95.5433 -36.6428,-95.5433 -27.3391,-102.303 -27.3391,-102.303"/>
<path fill="#98f5ff" stroke="black" stroke-width="0.5" d="M-27.3391,-102.303C-27.3391,-102.303 -36.6428,-95.5433 -36.6428,-95.5433 -36.2887,-95.0559 -35.8968,-94.5971 -35.4708,-94.1711 -35.0448,-93.7451 -34.586,-93.3532 -34.0986,-92.9991 -33.6112,-92.645 -33.0968,-92.3297 -32.56,-92.0562 -32.0232,-91.7827 -31.4657,-91.5518 -30.8928,-91.3656 -30.3198,-91.1795 -29.7331,-91.0386 -29.1381,-90.9444 -28.543,-90.8501 -27.9415,-90.8028 -27.3391,-90.8028 -26.7366,-90.8028 -26.1351,-90.8501 -25.5401,-90.9444 -24.945,-91.0386 -24.3583,-91.1795 -23.7854,-91.3656 -23.2124,-91.5518 -22.655,-91.7827 -22.1182,-92.0562 -21.5814,-92.3297 -21.0669,-92.645 -20.5795,-92.9991 -20.0922,-93.3532 -19.6333,-93.7451 -19.2073,-94.1711 -18.7814,-94.5971 -18.3895,-95.0559 -18.0354,-95.5433 -17.6813,-96.0307 -17.366,-96.5451 -17.0925,-97.0819 -16.819,-97.6187 -16.5881,-98.1761 -16.4019,-98.7491 -16.2158,-99.3221 -16.0749,-99.9088 -15.9807,-100.504 -15.8864,-101.099 -15.8391,-101.7 -15.8391,-102.303 -15.8391,-102.303 -27.3391,-102.303 -27.3391,-102.303"/>
<ellipse fill="none" stroke="black" cx="-27.3391" cy="-102.303" rx="11.5" ry="11.5"/>
<text text-anchor="middle" x="-27.3391" y="-98.6028" font-family="monospace" font-size="14.00">19</text>
</g>
<!-- 6&#45;&gt;19 -->
<g id="edge22" class="edge"><title>6&#45;&gt;19</title>
<path fill="none" stroke="black" d="M-26.2837,-43.3787C-26.5818,-60.0182 -26.9195,-78.8755 -27.1309,-90.6786"/>
</g>
<!-- 26 -->
<g id="node27" class="node"><title>26</title>
<ellipse fill="deepskyblue" stroke="black" cx="-1.52521" cy="-38.8981" rx="5" ry="5"/>
<text text-anchor="middle" x="-1.52521" y="-35.1981" font-family="monospace" font-size="14.00">26</text>
</g>
<!-- 6&#45;&gt;26 -->
<g id="edge23" class="edge"><title>6&#45;&gt;26</title>
<path fill="none" stroke="black" d="M-3.75298,-36.1245C-3.66678,-36.2319 -3.58266,-36.3366 -3.50069,-36.4386"/>
</g>
<!-- 119 -->
<g id="node120" class="node"><title>119</title>
<ellipse fill="black" stroke="black" cx="-49.7471" cy="-142.254" rx="6" ry="6"/>
<text text-anchor="middle" x="-49.7471" y="-138.554" font-family="monospace" font-size="14.00">119</text>
</g>
<!-- 8&#45;&gt;119 -->
<g id="edge24" class="edge"><title>8&#45;&gt;119</title>
<path fill="none" stroke="black" d="M-49.5691,-84.1768C-49.6074,-96.667 -49.6914,-124.075 -49.7286,-136.237"/>
</g>
<!-- 9 -->
<g id="node10" class="node"><title>9</title>
<ellipse fill="deepskyblue" stroke="black" cx="209.855" cy="32.7852" rx="3.5" ry="3.5"/>
<text text-anchor="middle" x="209.855" y="36.4852" font-family="monospace" font-size="14.00">9</text>
</g>
<!-- 15 -->
<g id="node16" class="node"><title>15</title>
<path fill="deepskyblue" stroke="black" stroke-width="0.5" d="M163.326,-23.8933C163.326,-23.8933 181.326,-23.8933 181.326,-23.8933 181.326,-24.7419 181.266,-25.5894 181.147,-26.4295 181.027,-27.2697 180.848,-28.1003 180.611,-28.9152 180.375,-29.73 180.081,-30.5272 179.731,-31.3006 179.382,-32.074 178.979,-32.8217 178.524,-33.5382 178.069,-34.2547 177.565,-34.9381 177.014,-35.5834 176.462,-36.2287 175.866,-36.8341 175.23,-37.3953 174.593,-37.9565 173.918,-38.472 173.209,-38.9379 172.499,-39.4037 171.758,-39.8189 170.99,-40.1802 170.222,-40.5415 169.43,-40.8481 168.619,-41.0976 167.808,-41.3471 166.98,-41.539 166.142,-41.6717 165.304,-41.8045 164.457,-41.8778 163.609,-41.8911 162.76,-41.9044 161.912,-41.8577 161.07,-41.7514 160.228,-41.645 159.395,-41.4793 158.576,-41.2554 157.758,-41.0314 156.956,-40.7499 156.178,-40.4129 155.399,-40.0759 154.645,-39.6842 153.921,-39.2408 153.198,-38.7975 152.506,-38.3035 151.853,-37.7626 151.199,-37.2216 150.584,-36.6352 150.013,-36.0075 149.442,-35.3799 148.916,-34.7127 148.439,-34.0108 147.962,-33.309 147.535,-32.5743 147.162,-31.8122 146.788,-31.0502 146.469,-30.2627 146.207,-29.4556 145.945,-28.6486 145.74,-27.824 145.594,-26.988 145.448,-26.1521 145.362,-25.3069 145.335,-24.4587 145.308,-23.6105 145.342,-22.7616 145.435,-21.9181 145.528,-21.0746 145.681,-20.2388 145.892,-19.4169 146.103,-18.595 146.372,-17.789 146.696,-17.005 147.021,-16.221 147.401,-15.461 147.833,-14.7306 148.265,-14.0002 148.748,-13.3012 149.278,-12.6389 149.809,-11.9767 150.386,-11.3528 151.004,-10.7719 151.623,-10.191 152.282,-9.65456 152.976,-9.16662 153.67,-8.67868 154.398,-8.24045 155.154,-7.8552 155.91,-7.46995 156.693,-7.13865 157.496,-6.86378 158.299,-6.58891 159.12,-6.37116 159.953,-6.21215 159.953,-6.21215 163.326,-23.8933 163.326,-23.8933"/>
<path fill="#98f5ff" stroke="black" stroke-width="0.5" d="M163.326,-23.8933C163.326,-23.8933 159.953,-6.21215 159.953,-6.21215 160.602,-6.0885 161.256,-6.00058 161.914,-5.94881 162.572,-5.89703 163.232,-5.88147 163.892,-5.9022 164.551,-5.92293 165.209,-5.97991 165.862,-6.07289 166.516,-6.16588 167.163,-6.29471 167.803,-6.45882 168.442,-6.62293 169.071,-6.82207 169.689,-7.05533 170.306,-7.28859 170.91,-7.55561 171.498,-7.8552 172.086,-8.15479 172.657,-8.48649 173.209,-8.84879 173.76,-9.21109 174.291,-9.60345 174.8,-10.0241 175.308,-10.4447 175.793,-10.893 176.252,-11.3669 176.712,-11.8408 177.145,-12.3396 177.549,-12.861 177.953,-13.3824 178.329,-13.9257 178.674,-14.4883 179.019,-15.051 179.332,-15.6322 179.613,-16.2293 179.894,-16.8264 180.142,-17.4385 180.356,-18.0628 180.569,-18.6871 180.749,-19.3227 180.893,-19.9667 181.037,-20.6107 181.145,-21.2622 181.218,-21.9181 181.29,-22.574 181.326,-23.2334 181.326,-23.8933 181.326,-23.8933 163.326,-23.8933 163.326,-23.8933"/>
<ellipse fill="none" stroke="black" cx="163.326" cy="-23.8933" rx="18" ry="18"/>
<text text-anchor="middle" x="163.326" y="-20.1933" font-family="monospace" font-size="14.00">15</text>
</g>
<!-- 9&#45;&gt;15 -->
<g id="edge25" class="edge"><title>9&#45;&gt;15</title>
<path fill="none" stroke="black" d="M207.611,30.0514C201.802,22.9753 185.955,3.6722 174.887,-9.81009"/>
</g>
<!-- 10 -->
<g id="node11" class="node"><title>10</title>
<ellipse fill="#ff3030" stroke="black" cx="-235.211" cy="9.15539" rx="3.5" ry="3.5"/>
<text text-anchor="middle" x="-235.211" y="12.8554" font-family="monospace" font-size="14.00">10</text>
</g>
<!-- 10&#45;&gt;3 -->
<g id="edge26" class="edge"><title>10&#45;&gt;3</title>
<path fill="none" stroke="black" d="M-233.049,6.34579C-228.308,0.185802 -216.567,-15.0698 -205.865,-28.9752"/>
</g>
<!-- 11 -->
<g id="node12" class="node"><title>11</title>
<ellipse fill="deepskyblue" stroke="black" cx="50.4853" cy="208.782" rx="3.5" ry="3.5"/>
<text text-anchor="middle" x="50.4853" y="212.482" font-family="monospace" font-size="14.00">11</text>
</g>
<!-- 11&#45;&gt;4 -->
<g id="edge27" class="edge"><title>11&#45;&gt;4</title>
<path fill="none" stroke="black" d="M49.5306,205.045C47.2379,196.072 41.2377,172.586 36.1932,152.841"/>
</g>
<!-- 12 -->
<g id="node13" class="node"><title>12</title>
<ellipse fill="deepskyblue" stroke="black" cx="221.131" cy="-6.4024" rx="3.5" ry="3.5"/>
<text text-anchor="middle" x="221.131" y="-2.7024" font-family="monospace" font-size="14.00">12</text>
</g>
<!-- 13 -->
<g id="node14" class="node"><title>13</title>
<ellipse fill="#ff3030" stroke="black" cx="-0.691199" cy="62.4522" rx="8" ry="8"/>
<text text-anchor="middle" x="-0.691199" y="66.1522" font-family="monospace" font-size="14.00">13</text>
</g>
<!-- 13&#45;&gt;6 -->
<g id="edge28" class="edge"><title>13&#45;&gt;6</title>
<path fill="none" stroke="black" d="M-3.36386,54.8223C-5.98117,47.3504 -10.1525,35.4421 -14.1833,23.9351"/>
</g>
<!-- 28 -->
<g id="node29" class="node"><title>28</title>
<ellipse fill="#ff3030" stroke="black" cx="38.8843" cy="106.267" rx="3.5" ry="3.5"/>
<text text-anchor="middle" x="38.8843" y="109.967" font-family="monospace" font-size="14.00">28</text>
</g>
<!-- 13&#45;&gt;28 -->
<g id="edge29" class="edge"><title>13&#45;&gt;28</title>
<path fill="none" stroke="black" d="M4.81161,68.5444C13.477,78.1381 29.9685,96.396 36.3106,103.417"/>
</g>
<!-- 14 -->
<g id="node15" class="node"><title>14</title>
<path fill="#98f5ff" stroke="black" stroke-width="0.5" d="M82.519,-17.575C82.519,-17.575 88.519,-17.575 88.519,-17.575 88.519,-17.8369 88.5018,-18.0985 88.4676,-18.3581 88.4335,-18.6178 88.3823,-18.8749 88.3145,-19.1279 88.2467,-19.3809 88.1625,-19.6291 88.0622,-19.8711 87.962,-20.113 87.8461,-20.3482 87.7151,-20.575 87.5842,-20.8018 87.4385,-21.0198 87.2791,-21.2275 87.1197,-21.4353 86.9468,-21.6324 86.7616,-21.8176 86.5764,-22.0028 86.3793,-22.1757 86.1715,-22.3351 85.9638,-22.4945 85.7458,-22.6402 85.519,-22.7711 85.2922,-22.9021 85.057,-23.018 84.8151,-23.1182 84.5731,-23.2185 84.3249,-23.3027 84.0719,-23.3705 83.8189,-23.4383 83.5618,-23.4895 83.3021,-23.5236 83.0425,-23.5578 82.7809,-23.575 82.519,-23.575 82.2571,-23.575 81.9955,-23.5578 81.7358,-23.5236 81.4762,-23.4895 81.219,-23.4383 80.9661,-23.3705 80.7131,-23.3027 80.4648,-23.2185 80.2229,-23.1182 79.9809,-23.018 79.7458,-22.9021 79.519,-22.7711 79.519,-22.7711 82.519,-17.575 82.519,-17.575"/>
<path fill="#ff3030" stroke="black" stroke-width="0.5" d="M82.519,-17.575C82.519,-17.575 79.519,-22.7711 79.519,-22.7711 79.2922,-22.6402 79.0742,-22.4945 78.8664,-22.3351 78.6586,-22.1757 78.4615,-22.0028 78.2763,-21.8176 78.0911,-21.6324 77.9183,-21.4353 77.7589,-21.2275 77.5994,-21.0198 77.4538,-20.8018 77.3228,-20.575 77.1919,-20.3482 77.0759,-20.113 76.9757,-19.8711 76.8755,-19.6291 76.7912,-19.3809 76.7234,-19.1279 76.6556,-18.8749 76.6045,-18.6178 76.5703,-18.3581 76.5361,-18.0985 76.519,-17.8369 76.519,-17.575 76.519,-17.3131 76.5361,-17.0515 76.5703,-16.7918 76.6045,-16.5322 76.6556,-16.275 76.7234,-16.0221 76.7912,-15.7691 76.8755,-15.5208 76.9757,-15.2789 77.0759,-15.0369 77.1919,-14.8018 77.3228,-14.575 77.4538,-14.3482 77.5994,-14.1302 77.7589,-13.9224 77.9183,-13.7146 78.0911,-13.5175 78.2763,-13.3323 78.4615,-13.1471 78.6586,-12.9743 78.8664,-12.8148 79.0742,-12.6554 79.2922,-12.5098 79.519,-12.3788 79.7458,-12.2479 79.9809,-12.1319 80.2229,-12.0317 80.4648,-11.9315 80.7131,-11.8472 80.9661,-11.7794 81.219,-11.7116 81.4762,-11.6605 81.7358,-11.6263 81.9955,-11.5921 82.2571,-11.575 82.519,-11.575 82.7809,-11.575 83.0425,-11.5921 83.3021,-11.6263 83.5618,-11.6605 83.8189,-11.7116 84.0719,-11.7794 84.3249,-11.8472 84.5731,-11.9315 84.8151,-12.0317 85.057,-12.1319 85.2922,-12.2479 85.519,-12.3788 85.7458,-12.5098 85.9638,-12.6554 86.1715,-12.8149 86.3793,-12.9743 86.5764,-13.1471 86.7616,-13.3323 86.9468,-13.5175 87.1197,-13.7146 87.2791,-13.9224 87.4385,-14.1302 87.5842,-14.3482 87.7151,-14.575 87.8461,-14.8018 87.962,-15.0369 88.0622,-15.2789 88.1625,-15.5208 88.2467,-15.7691 88.3145,-16.0221 88.3823,-16.275 88.4335,-16.5322 88.4676,-16.7918 88.5018,-17.0515 88.519,-17.3131 88.519,-17.575 88.519,-17.575 82.519,-17.575 82.519,-17.575"/>
<ellipse fill="none" stroke="black" cx="82.519" cy="-17.575" rx="6" ry="6"/>
<text text-anchor="middle" x="82.519" y="-13.875" font-family="monospace" font-size="14.00">14</text>
</g>
<!-- 14&#45;&gt;6 -->
<g id="edge30" class="edge"><title>14&#45;&gt;6</title>
<path fill="none" stroke="black" d="M76.3926,-17.0805C63.6088,-16.0487 33.2621,-13.5995 8.96244,-11.6382"/>
</g>
<!-- 14&#45;&gt;15 -->
<g id="edge31" class="edge"><title>14&#45;&gt;15</title>
<path fill="none" stroke="black" d="M88.5926,-18.0499C100.485,-18.9797 127.253,-21.0728 145.308,-22.4845"/>
</g>
<!-- 15&#45;&gt;12 -->
<g id="edge32" class="edge"><title>15&#45;&gt;12</title>
<path fill="none" stroke="black" d="M180.67,-18.6455C193.706,-14.7009 210.498,-9.6198 217.654,-7.4547"/>
</g>
<!-- 16 -->
<g id="node17" class="node"><title>16</title>
<ellipse fill="#ff3030" stroke="black" cx="-190.621" cy="26.5796" rx="3.5" ry="3.5"/>
<text text-anchor="middle" x="-190.621" y="30.2796" font-family="monospace" font-size="14.00">16</text>
</g>
<!-- 16&#45;&gt;3 -->
<g id="edge33" class="edge"><title>16&#45;&gt;3</title>
<path fill="none" stroke="black" d="M-190.375,23.0213C-189.83,15.1579 -188.476,-4.40845 -187.249,-22.131"/>
</g>
<!-- 20 -->
<g id="node21" class="node"><title>20</title>
<ellipse fill="deepskyblue" stroke="black" cx="-138.577" cy="248.389" rx="3.5" ry="3.5"/>
<text text-anchor="middle" x="-138.577" y="252.089" font-family="monospace" font-size="14.00">20</text>
</g>
<!-- 22 -->
<g id="node23" class="node"><title>22</title>
<ellipse fill="deepskyblue" stroke="black" cx="56.3603" cy="-221.334" rx="3.5" ry="3.5"/>
<text text-anchor="middle" x="56.3603" y="-217.634" font-family="monospace" font-size="14.00">22</text>
</g>
<!-- 22&#45;&gt;0 -->
<g id="edge34" class="edge"><title>22&#45;&gt;0</title>
<path fill="none" stroke="black" d="M55.1306,-217.684C52.2659,-209.181 44.9462,-187.454 39.0898,-170.07"/>
</g>
<!-- 23 -->
<g id="node24" class="node"><title>23</title>
<ellipse fill="deepskyblue" stroke="black" cx="297.913" cy="-110.933" rx="3.5" ry="3.5"/>
<text text-anchor="middle" x="297.913" y="-107.233" font-family="monospace" font-size="14.00">23</text>
</g>
<!-- anon_23_15_0 -->
<g id="node124" class="node"><title>anon_23_15_0</title>
<ellipse fill="white" stroke="black" cx="256.887" cy="-93.271" rx="2.5" ry="2.5"/>
</g>
<!-- 23&#45;&gt;anon_23_15_0 -->
<g id="edge35" class="edge"><title>23&#45;&gt;anon_23_15_0</title>
<path fill="none" stroke="black" d="M294.694,-109.547C286.836,-106.164 266.789,-97.5338 259.548,-94.4163"/>
</g>
<!-- 27 -->
<g id="node28" class="node"><title>27</title>
<ellipse fill="#ff3030" stroke="black" cx="131.182" cy="-108.161" rx="5" ry="5"/>
<text text-anchor="middle" x="131.182" y="-104.461" font-family="monospace" font-size="14.00">27</text>
</g>
<!-- anon_27_6_0 -->
<g id="node126" class="node"><title>anon_27_6_0</title>
<ellipse fill="white" stroke="black" cx="90.0123" cy="-75.0116" rx="2.5" ry="2.5"/>
</g>
<!-- 27&#45;&gt;anon_27_6_0 -->
<g id="edge38" class="edge"><title>27&#45;&gt;anon_27_6_0</title>
<path fill="none" stroke="black" d="M127.084,-104.862C118.461,-97.9179 98.6962,-82.0038 92.157,-76.7385"/>
</g>
<!-- 30 -->
<g id="node31" class="node"><title>30</title>
<ellipse fill="deepskyblue" stroke="black" cx="-206.266" cy="-142.074" rx="3.5" ry="3.5"/>
<text text-anchor="middle" x="-206.266" y="-138.374" font-family="monospace" font-size="14.00">30</text>
</g>
<!-- 30&#45;&gt;3 -->
<g id="edge41" class="edge"><title>30&#45;&gt;3</title>
<path fill="none" stroke="black" d="M-205.347,-138.386C-203.237,-129.914 -197.864,-108.336 -193.153,-89.4208"/>
</g>
<!-- 31 -->
<g id="node32" class="node"><title>31</title>
<path fill="deepskyblue" stroke="black" stroke-width="0.5" d="M-81.4273,88.4096C-81.4273,88.4096 -68.9273,88.4096 -68.9273,88.4096 -68.9273,87.9322 -68.9547,87.4552 -69.0092,86.981 -69.0638,86.5068 -69.1455,86.036 -69.2539,85.5711 -69.3623,85.1062 -69.4972,84.6479 -69.658,84.1985 -69.8188,83.749 -70.0053,83.3091 -70.2164,82.881 -70.4276,82.4528 -70.663,82.0372 -70.9217,81.6359 -71.1804,81.2347 -71.4619,80.8487 -71.7647,80.4797 -72.0675,80.1107 -72.3913,79.7593 -72.7343,79.4273 -73.0773,79.0953 -73.4391,78.7833 -73.8178,78.4927 -74.1965,78.2021 -74.5916,77.9334 -75.001,77.688 -75.4105,77.4426 -75.8337,77.2208 -76.2685,77.0238 -76.7033,76.8268 -77.1491,76.6548 -77.6035,76.5088 -78.058,76.3628 -78.5205,76.2429 -78.9887,76.1498 -79.4569,76.0566 -79.93,75.9904 -80.4058,75.9514 -80.8816,75.9124 -81.3592,75.9007 -81.8363,75.9163 -82.3134,75.9319 -82.7893,75.9748 -83.2615,76.0449 -83.7337,76.1149 -84.2015,76.212 -84.6626,76.3355 -85.1237,76.4591 -85.5773,76.6089 -86.0213,76.7844 -86.4652,76.9598 -86.8988,77.1605 -87.3198,77.3856 -87.7408,77.6106 -88.1486,77.8596 -88.5411,78.1312 -88.9336,78.4029 -89.3102,78.6968 -89.6692,79.0116 -90.0281,79.3263 -90.3686,79.6614 -90.6892,80.0151 -91.0098,80.3688 -91.3099,80.7406 -91.5879,81.1286 -91.866,81.5166 -92.1216,81.9203 -92.3535,82.3375 -92.5853,82.7548 -92.7931,83.185 -92.9758,83.626 -93.1585,84.0671 -93.3158,84.5182 -93.4469,84.9772 -93.5779,85.4363 -93.6826,85.9024 -93.7604,86.3734 -93.8381,86.8444 -93.8888,87.3195 -93.9123,87.7962 -93.9357,88.273 -93.9318,88.7508 -93.9006,89.2271 -93.8693,89.7035 -93.8109,90.1776 -93.7254,90.6473 -93.6399,91.117 -93.5277,91.5813 -93.3891,92.0381 -93.2505,92.495 -93.0859,92.9435 -92.896,93.3814 -92.7061,93.8194 -92.4913,94.2462 -92.2526,94.6596 -92.2526,94.6596 -81.4273,88.4096 -81.4273,88.4096"/>
<path fill="#98f5ff" stroke="black" stroke-width="0.5" d="M-81.4273,88.4096C-81.4273,88.4096 -92.2526,94.6596 -92.2526,94.6596 -91.9116,95.2503 -91.5227,95.8122 -91.09,96.3395 -90.6572,96.8668 -90.182,97.3578 -89.6692,97.8076 -89.1563,98.2574 -88.6075,98.6644 -88.0282,99.0246 -87.4489,99.3848 -86.8411,99.697 -86.2109,99.9581 -85.5806,100.219 -84.9301,100.428 -84.2658,100.583 -83.6015,100.738 -82.9256,100.838 -82.2449,100.883 -81.5642,100.927 -80.881,100.916 -80.2021,100.849 -79.5233,100.783 -78.851,100.66 -78.1921,100.484 -77.5332,100.307 -76.8898,100.077 -76.2685,99.7954 -75.6471,99.5139 -75.0499,99.1819 -74.4827,98.803 -73.9155,98.424 -73.3803,97.9992 -72.8824,97.5329 -72.3845,97.0666 -71.9257,96.5603 -71.5104,96.0191 -71.0951,95.4779 -70.7249,94.9037 -70.4033,94.3021 -70.0818,93.7004 -69.81,93.0735 -69.5907,92.4276 -69.3714,91.7816 -69.2054,91.1188 -69.0943,90.4458 -68.9832,89.7727 -68.9273,89.0917 -68.9273,88.4096 -68.9273,88.4096 -81.4273,88.4096 -81.4273,88.4096"/>
<ellipse fill="none" stroke="black" cx="-81.4273" cy="88.4096" rx="12.5" ry="12.5"/>
<text text-anchor="middle" x="-81.4273" y="92.1096" font-family="monospace" font-size="14.00">31</text>
</g>
<!-- 31&#45;&gt;6 -->
<g id="edge42" class="edge"><title>31&#45;&gt;6</title>
<path fill="none" stroke="black" d="M-75.0307,77.2534C-67.2495,63.6825 -53.8036,40.2319 -42.9078,21.2288"/>
</g>
<!-- anon_31_20_0 -->
<g id="node128" class="node"><title>anon_31_20_0</title>
<ellipse fill="white" stroke="black" cx="-104.862" cy="156.261" rx="2.5" ry="2.5"/>
</g>
<!-- 31&#45;&gt;anon_31_20_0 -->
<g id="edge43" class="edge"><title>31&#45;&gt;anon_31_20_0</title>
<path fill="none" stroke="black" d="M-85.5094,100.228C-91.1746,116.631 -101.057,145.245 -104.008,153.786"/>
</g>
<!-- 97 -->
<g id="node98" class="node"><title>97</title>
<ellipse fill="brown" stroke="black" cx="-13.3369" cy="239.823" rx="6" ry="6"/>
<text text-anchor="middle" x="-13.3369" y="243.523" font-family="monospace" font-size="14.00">97</text>
</g>
<!-- 32&#45;&gt;97 -->
<g id="edge46" class="edge"><title>32&#45;&gt;97</title>
<path fill="none" stroke="black" d="M-15.4936,188.561C-15.1085,197.715 -14.0879,221.973 -13.6016,233.529"/>
</g>
<!-- 33 -->
<g id="node34" class="node"><title>33</title>
<ellipse fill="deepskyblue" stroke="black" cx="-25.4673" cy="-173.751" rx="3.5" ry="3.5"/>
<text text-anchor="middle" x="-25.4673" y="-170.051" font-family="monospace" font-size="14.00">33</text>
</g>
<!-- 33&#45;&gt;19 -->
<g id="edge47" class="edge"><title>33&#45;&gt;19</title>
<path fill="none" stroke="black" d="M-25.5679,-169.91C-25.8413,-159.475 -26.6059,-130.29 -27.0357,-113.882"/>
</g>
<!-- 34 -->
<g id="node35" class="node"><title>34</title>
<ellipse fill="#ff3030" stroke="black" cx="-163.646" cy="-145.929" rx="3.5" ry="3.5"/>
<text text-anchor="middle" x="-163.646" y="-142.229" font-family="monospace" font-size="14.00">34</text>
</g>
<!-- 34&#45;&gt;3 -->
<g id="edge48" class="edge"><title>34&#45;&gt;3</title>
<path fill="none" stroke="black" d="M-164.453,-142.522C-166.514,-133.818 -172.153,-110.009 -176.986,-89.5997"/>
</g>
<!-- 35 -->
<g id="node36" class="node"><title>35</title>
<ellipse fill="#ff3030" stroke="black" cx="-203.98" cy="-214.737" rx="3.5" ry="3.5"/>
<text text-anchor="middle" x="-203.98" y="-211.037" font-family="monospace" font-size="14.00">35</text>
</g>
<!-- anon_35_3_0 -->
<g id="node130" class="node"><title>anon_35_3_0</title>
<ellipse fill="white" stroke="black" cx="-188.54" cy="-168.276" rx="2.5" ry="2.5"/>
</g>
<!-- 35&#45;&gt;anon_35_3_0 -->
<g id="edge49" class="edge"><title>35&#45;&gt;anon_35_3_0</title>
<path fill="none" stroke="black" d="M-202.87,-211.395C-199.938,-202.573 -192.035,-178.792 -189.405,-170.878"/>
</g>
<!-- 36 -->
<g id="node37" class="node"><title>36</title>
<ellipse fill="#ff3030" stroke="black" cx="-189.324" cy="-105.214" rx="3.5" ry="3.5"/>
<text text-anchor="middle" x="-189.324" y="-101.514" font-family="monospace" font-size="14.00">36</text>
</g>
<!-- 36&#45;&gt;3 -->
<g id="edge51" class="edge"><title>36&#45;&gt;3</title>
<path fill="none" stroke="black" d="M-189.005,-101.692C-188.758,-98.9717 -188.39,-94.9027 -187.973,-90.2977"/>
</g>
<!-- 37 -->
<g id="node38" class="node"><title>37</title>
<ellipse fill="#ff3030" stroke="black" cx="150.162" cy="125.479" rx="3.5" ry="3.5"/>
<text text-anchor="middle" x="150.162" y="129.179" font-family="monospace" font-size="14.00">37</text>
</g>
<!-- anon_37_2_0 -->
<g id="node131" class="node"><title>anon_37_2_0</title>
<ellipse fill="white" stroke="black" cx="112.222" cy="95.2134" rx="2.5" ry="2.5"/>
</g>
<!-- 37&#45;&gt;anon_37_2_0 -->
<g id="edge52" class="edge"><title>37&#45;&gt;anon_37_2_0</title>
<path fill="none" stroke="black" d="M147.185,123.104C139.778,117.196 120.662,101.946 114.31,96.8783"/>
</g>
<!-- 40 -->
<g id="node41" class="node"><title>40</title>
<ellipse fill="deepskyblue" stroke="black" cx="-283.998" cy="-169.408" rx="3.5" ry="3.5"/>
<text text-anchor="middle" x="-283.998" y="-165.708" font-family="monospace" font-size="14.00">40</text>
</g>
<!-- anon_40_3_0 -->
<g id="node132" class="node"><title>anon_40_3_0</title>
<ellipse fill="white" stroke="black" cx="-251.496" cy="-134.652" rx="2.5" ry="2.5"/>
</g>
<!-- 40&#45;&gt;anon_40_3_0 -->
<g id="edge54" class="edge"><title>40&#45;&gt;anon_40_3_0</title>
<path fill="none" stroke="black" d="M-281.447,-166.681C-275.102,-159.896 -258.726,-142.383 -253.284,-136.564"/>
</g>
<!-- 41 -->
<g id="node42" class="node"><title>41</title>
<path fill="#1874cd" stroke="black" stroke-width="0.5" d="M324.662,-298.933C324.662,-298.933 370.662,-298.933 370.662,-298.933 370.662,-300.234 370.606,-301.535 370.496,-302.831 370.386,-304.128 370.221,-305.419 370.001,-306.701 369.781,-307.984 369.507,-309.256 369.18,-310.515 368.852,-311.774 368.471,-313.019 368.038,-314.246 367.605,-315.473 367.12,-316.681 366.584,-317.867 366.049,-319.053 365.463,-320.215 364.829,-321.351 364.195,-322.487 363.513,-323.596 362.785,-324.674 362.057,-325.753 361.283,-326.8 360.466,-327.812 359.65,-328.825 358.79,-329.803 357.89,-330.743 356.991,-331.683 356.051,-332.584 355.075,-333.444 354.099,-334.304 353.087,-335.123 352.041,-335.897 350.996,-336.672 349.918,-337.401 348.811,-338.084 347.703,-338.767 346.567,-339.403 345.406,-339.99 344.245,-340.577 343.059,-341.114 341.852,-341.6 340.645,-342.086 339.418,-342.521 338.175,-342.903 336.931,-343.286 335.672,-343.615 334.4,-343.89 333.128,-344.166 331.846,-344.387 330.555,-344.554 329.265,-344.721 327.968,-344.833 326.668,-344.889 325.368,-344.946 324.067,-344.948 322.767,-344.894 321.467,-344.84 320.169,-344.732 318.879,-344.568 317.588,-344.405 316.305,-344.186 315.032,-343.914 313.76,-343.642 312.5,-343.315 311.255,-342.936 310.011,-342.557 308.783,-342.125 307.575,-341.642 306.367,-341.158 305.18,-340.624 304.017,-340.04 302.854,-339.456 301.717,-338.823 300.608,-338.143 299.499,-337.462 298.419,-336.735 297.372,-335.963 296.324,-335.192 295.31,-334.376 294.332,-333.518 293.354,-332.66 292.412,-331.761 291.51,-330.823 290.608,-329.885 289.746,-328.91 288.927,-327.899 288.108,-326.888 287.332,-325.843 286.601,-324.767 285.87,-323.69 285.185,-322.583 284.549,-321.449 283.912,-320.314 283.323,-319.153 282.785,-317.968 282.247,-316.784 281.759,-315.577 281.323,-314.351 280.886,-313.125 280.503,-311.882 280.172,-310.623 279.841,-309.365 279.564,-308.093 279.341,-306.811 279.118,-305.529 278.95,-304.238 278.837,-302.942 278.723,-301.646 278.665,-300.346 278.662,-299.045 278.659,-297.743 278.711,-296.443 278.818,-295.146 278.925,-293.849 279.087,-292.558 279.304,-291.275 279.52,-289.992 279.791,-288.719 280.116,-287.459 280.44,-286.199 280.818,-284.953 281.248,-283.725 281.678,-282.497 282.161,-281.288 282.693,-280.101 283.226,-278.914 283.809,-277.75 284.44,-276.612 285.071,-275.475 285.751,-274.364 286.476,-273.284 287.202,-272.204 287.973,-271.155 288.787,-270.141 289.601,-269.126 290.458,-268.146 291.356,-267.204 292.253,-266.262 293.19,-265.358 294.164,-264.496 295.138,-263.633 296.149,-262.812 297.192,-262.035 298.236,-261.258 299.312,-260.526 300.418,-259.84 301.524,-259.155 302.658,-258.516 303.818,-257.927 304.978,-257.337 306.162,-256.797 307.368,-256.308 308.573,-255.819 309.799,-255.381 311.042,-254.996 312.285,-254.61 313.543,-254.278 314.814,-253.999 316.085,-253.721 317.367,-253.496 318.657,-253.327 319.947,-253.157 321.244,-253.042 322.544,-252.982 323.844,-252.922 325.145,-252.917 326.445,-252.968 327.745,-253.018 329.043,-253.124 330.334,-253.284 331.625,-253.445 332.909,-253.66 334.182,-253.929 335.455,-254.198 336.716,-254.521 337.961,-254.898 339.207,-255.274 340.436,-255.703 341.645,-256.183 342.854,-256.663 344.043,-257.195 345.207,-257.776 346.371,-258.357 347.51,-258.987 348.62,-259.665 349.731,-260.343 350.813,-261.067 351.862,-261.837 352.911,-262.606 353.927,-263.42 354.908,-264.275 354.908,-264.275 324.662,-298.933 324.662,-298.933"/>
<path fill="olivedrab" stroke="black" stroke-width="0.5" d="M324.662,-298.933C324.662,-298.933 354.908,-264.275 354.908,-264.275 356.14,-265.351 357.314,-266.491 358.425,-267.692 359.536,-268.893 360.582,-270.152 361.559,-271.464 362.536,-272.776 363.442,-274.139 364.274,-275.548 365.106,-276.957 365.861,-278.409 366.538,-279.898 367.215,-281.387 367.812,-282.911 368.327,-284.464 368.841,-286.017 369.273,-287.596 369.619,-289.195 369.965,-290.793 370.226,-292.41 370.4,-294.036 370.574,-295.663 370.662,-297.297 370.662,-298.933 370.662,-298.933 324.662,-298.933 324.662,-298.933"/>
<ellipse fill="none" stroke="black" cx="324.662" cy="-298.933" rx="46" ry="46"/>
<text text-anchor="middle" x="324.662" y="-295.233" font-family="monospace" font-size="14.00">41</text>
</g>
<!-- 43 -->
<g id="node44" class="node"><title>43</title>
<ellipse fill="#1874cd" stroke="black" cx="413.951" cy="-305.569" rx="3.5" ry="3.5"/>
<text text-anchor="middle" x="413.951" y="-301.869" font-family="monospace" font-size="14.00">43</text>
</g>
<!-- 41&#45;&gt;43 -->
<g id="edge56" class="edge"><title>41&#45;&gt;43</title>
<path fill="none" stroke="black" d="M370.614,-302.348C387.023,-303.568 403.196,-304.77 410.256,-305.295"/>
</g>
<!-- 47 -->
<g id="node48" class="node"><title>47</title>
<ellipse fill="#1874cd" stroke="black" cx="418.124" cy="-208.654" rx="3.5" ry="3.5"/>
<text text-anchor="middle" x="418.124" y="-204.954" font-family="monospace" font-size="14.00">47</text>
</g>
<!-- 41&#45;&gt;47 -->
<g id="edge57" class="edge"><title>41&#45;&gt;47</title>
<path fill="none" stroke="black" d="M357.876,-266.85C380.123,-245.361 406.841,-219.553 415.368,-211.316"/>
</g>
<!-- 48 -->
<g id="node49" class="node"><title>48</title>
<ellipse fill="#1874cd" stroke="black" cx="267.657" cy="-359.535" rx="3.5" ry="3.5"/>
<text text-anchor="middle" x="267.657" y="-355.835" font-family="monospace" font-size="14.00">48</text>
</g>
<!-- 41&#45;&gt;48 -->
<g id="edge58" class="edge"><title>41&#45;&gt;48</title>
<path fill="none" stroke="black" d="M292.826,-332.778C283.441,-342.755 274.544,-352.213 270.282,-356.744"/>
</g>
<!-- 52 -->
<g id="node53" class="node"><title>52</title>
<ellipse fill="#1874cd" stroke="black" cx="384.702" cy="-284.356" rx="3.5" ry="3.5"/>
<text text-anchor="middle" x="384.702" y="-280.656" font-family="monospace" font-size="14.00">52</text>
</g>
<!-- 41&#45;&gt;52 -->
<g id="edge59" class="edge"><title>41&#45;&gt;52</title>
<path fill="none" stroke="black" d="M369.551,-288.034C374.166,-286.914 378.153,-285.946 380.877,-285.284"/>
</g>
<!-- 53 -->
<g id="node54" class="node"><title>53</title>
<ellipse fill="#1874cd" stroke="black" cx="262.125" cy="-298.408" rx="3.5" ry="3.5"/>
<text text-anchor="middle" x="262.125" y="-294.708" font-family="monospace" font-size="14.00">53</text>
</g>
<!-- 41&#45;&gt;53 -->
<g id="edge60" class="edge"><title>41&#45;&gt;53</title>
<path fill="none" stroke="black" d="M278.556,-298.546C273.284,-298.501 268.744,-298.463 265.781,-298.438"/>
</g>
<!-- 57 -->
<g id="node58" class="node"><title>57</title>
<ellipse fill="#1874cd" stroke="black" cx="297.032" cy="-201.527" rx="3.5" ry="3.5"/>
<text text-anchor="middle" x="297.032" y="-197.827" font-family="monospace" font-size="14.00">57</text>
</g>
<!-- 41&#45;&gt;57 -->
<g id="edge61" class="edge"><title>41&#45;&gt;57</title>
<path fill="none" stroke="black" d="M312.06,-254.506C306.367,-234.435 300.397,-213.389 298.058,-205.142"/>
</g>
<!-- 60 -->
<g id="node61" class="node"><title>60</title>
<ellipse fill="#1874cd" stroke="black" cx="324.011" cy="-181.053" rx="5" ry="5"/>
<text text-anchor="middle" x="324.011" y="-177.353" font-family="monospace" font-size="14.00">60</text>
</g>
<!-- 41&#45;&gt;60 -->
<g id="edge62" class="edge"><title>41&#45;&gt;60</title>
<path fill="none" stroke="black" d="M324.406,-252.682C324.264,-226.881 324.102,-197.675 324.039,-186.132"/>
</g>
<!-- 62 -->
<g id="node63" class="node"><title>62</title>
<ellipse fill="#1874cd" stroke="black" cx="211.896" cy="-355.942" rx="3.5" ry="3.5"/>
<text text-anchor="middle" x="211.896" y="-352.242" font-family="monospace" font-size="14.00">62</text>
</g>
<!-- 41&#45;&gt;62 -->
<g id="edge63" class="edge"><title>41&#45;&gt;62</title>
<path fill="none" stroke="black" d="M283.312,-319.837C256.66,-333.311 225.174,-349.229 215.138,-354.303"/>
</g>
<!-- 64 -->
<g id="node65" class="node"><title>64</title>
<ellipse fill="#1874cd" stroke="black" cx="341.028" cy="-375.303" rx="3.5" ry="3.5"/>
<text text-anchor="middle" x="341.028" y="-371.603" font-family="monospace" font-size="14.00">64</text>
</g>
<!-- 41&#45;&gt;64 -->
<g id="edge64" class="edge"><title>41&#45;&gt;64</title>
<path fill="none" stroke="black" d="M334.371,-344.24C336.849,-355.803 339.134,-366.462 340.272,-371.772"/>
</g>
<!-- 78 -->
<g id="node79" class="node"><title>78</title>
<ellipse fill="#1874cd" stroke="black" cx="304.726" cy="-236.549" rx="5" ry="5"/>
<text text-anchor="middle" x="304.726" y="-232.849" font-family="monospace" font-size="14.00">78</text>
</g>
<!-- 41&#45;&gt;78 -->
<g id="edge65" class="edge"><title>41&#45;&gt;78</title>
<path fill="none" stroke="black" d="M310.6,-254.929C308.899,-249.606 307.39,-244.886 306.328,-241.562"/>
</g>
<!-- 81 -->
<g id="node82" class="node"><title>81</title>
<ellipse fill="#1874cd" stroke="black" cx="239.347" cy="-261.868" rx="3.5" ry="3.5"/>
<text text-anchor="middle" x="239.347" y="-258.168" font-family="monospace" font-size="14.00">81</text>
</g>
<!-- 41&#45;&gt;81 -->
<g id="edge66" class="edge"><title>41&#45;&gt;81</title>
<path fill="none" stroke="black" d="M282.004,-280.4C265.674,-273.306 249.345,-266.211 242.587,-263.276"/>
</g>
<!-- 83 -->
<g id="node84" class="node"><title>83</title>
<ellipse fill="#1874cd" stroke="black" cx="385.56" cy="-337.615" rx="3.5" ry="3.5"/>
<text text-anchor="middle" x="385.56" y="-333.915" font-family="monospace" font-size="14.00">83</text>
</g>
<!-- 41&#45;&gt;83 -->
<g id="edge67" class="edge"><title>41&#45;&gt;83</title>
<path fill="none" stroke="black" d="M363.575,-323.65C371.593,-328.744 378.762,-333.297 382.603,-335.737"/>
</g>
<!-- 86 -->
<g id="node87" class="node"><title>86</title>
<ellipse fill="#1874cd" stroke="black" cx="376.963" cy="-375.447" rx="3.5" ry="3.5"/>
<text text-anchor="middle" x="376.963" y="-371.747" font-family="monospace" font-size="14.00">86</text>
</g>
<!-- 41&#45;&gt;86 -->
<g id="edge68" class="edge"><title>41&#45;&gt;86</title>
<path fill="none" stroke="black" d="M350.812,-337.19C360.823,-351.835 370.834,-366.48 374.976,-372.541"/>
</g>
<!-- 88 -->
<g id="node89" class="node"><title>88</title>
<ellipse fill="#1874cd" stroke="black" cx="305.239" cy="-399.835" rx="5" ry="5"/>
<text text-anchor="middle" x="305.239" y="-396.135" font-family="monospace" font-size="14.00">88</text>
</g>
<!-- 41&#45;&gt;88 -->
<g id="edge69" class="edge"><title>41&#45;&gt;88</title>
<path fill="none" stroke="black" d="M315.916,-344.366C312.09,-364.244 308.062,-385.17 306.239,-394.639"/>
</g>
<!-- 90 -->
<g id="node91" class="node"><title>90</title>
<ellipse fill="#1874cd" stroke="black" cx="351.64" cy="-195.202" rx="3.5" ry="3.5"/>
<text text-anchor="middle" x="351.64" y="-191.502" font-family="monospace" font-size="14.00">90</text>
</g>
<!-- 41&#45;&gt;90 -->
<g id="edge70" class="edge"><title>41&#45;&gt;90</title>
<path fill="none" stroke="black" d="M336.26,-254.34C342.086,-231.936 348.394,-207.685 350.716,-198.758"/>
</g>
<!-- anon_41_91_0 -->
<g id="node133" class="node"><title>anon_41_91_0</title>
<ellipse fill="white" stroke="black" cx="415.453" cy="-375.855" rx="2.5" ry="2.5"/>
</g>
<!-- 41&#45;&gt;anon_41_91_0 -->
<g id="edge71" class="edge"><title>41&#45;&gt;anon_41_91_0</title>
<path fill="none" stroke="black" d="M359.764,-328.673C381.321,-346.937 406.146,-367.97 413.378,-374.097"/>
</g>
<!-- 42 -->
<g id="node43" class="node"><title>42</title>
<ellipse fill="#1874cd" stroke="black" cx="269.672" cy="129.458" rx="21.5" ry="21.5"/>
<text text-anchor="middle" x="269.672" y="133.158" font-family="monospace" font-size="14.00">42</text>
</g>
<!-- 80 -->
<g id="node81" class="node"><title>80</title>
<ellipse fill="#1874cd" stroke="black" cx="249.241" cy="65.6099" rx="3.5" ry="3.5"/>
<text text-anchor="middle" x="249.241" y="69.3099" font-family="monospace" font-size="14.00">80</text>
</g>
<!-- 42&#45;&gt;80 -->
<g id="edge73" class="edge"><title>42&#45;&gt;80</title>
<path fill="none" stroke="black" d="M263.095,108.905C258.522,94.6144 252.831,76.8275 250.414,69.2749"/>
</g>
<!-- 87 -->
<g id="node88" class="node"><title>87</title>
<ellipse fill="#1874cd" stroke="black" cx="213.828" cy="166.527" rx="3.5" ry="3.5"/>
<text text-anchor="middle" x="213.828" y="170.227" font-family="monospace" font-size="14.00">87</text>
</g>
<!-- 42&#45;&gt;87 -->
<g id="edge74" class="edge"><title>42&#45;&gt;87</title>
<path fill="none" stroke="black" d="M251.695,141.391C239.196,149.688 223.639,160.015 217.033,164.399"/>
</g>
<!-- 44 -->
<g id="node45" class="node"><title>44</title>
<ellipse fill="#1874cd" stroke="black" cx="506.73" cy="201.222" rx="9" ry="9"/>
<text text-anchor="middle" x="506.73" y="204.922" font-family="monospace" font-size="14.00">44</text>
</g>
<!-- 46 -->
<g id="node47" class="node"><title>46</title>
<path fill="#1874cd" stroke="black" stroke-width="0.5" d="M-118.433,-301.276C-118.433,-301.276 -106.433,-301.276 -106.433,-301.276 -106.433,-301.848 -106.473,-302.418 -106.555,-302.984 -106.636,-303.55 -106.758,-304.109 -106.919,-304.657 -107.08,-305.205 -107.28,-305.741 -107.517,-306.261 -107.754,-306.781 -108.029,-307.283 -108.337,-307.764 -108.646,-308.245 -108.989,-308.703 -109.364,-309.135 -109.738,-309.566 -110.142,-309.971 -110.574,-310.345 -111.006,-310.72 -111.464,-311.062 -111.945,-311.371 -112.426,-311.68 -112.928,-311.955 -113.448,-312.192 -113.967,-312.429 -114.503,-312.629 -115.052,-312.79 -115.6,-312.951 -116.159,-313.073 -116.725,-313.154 -117.29,-313.235 -117.861,-313.276 -118.433,-313.276 -119.004,-313.276 -119.575,-313.235 -120.14,-313.154 -120.706,-313.073 -121.265,-312.951 -121.813,-312.79 -122.362,-312.629 -122.898,-312.429 -123.418,-312.192 -123.937,-311.955 -124.439,-311.68 -124.92,-311.371 -125.401,-311.062 -125.859,-310.72 -126.291,-310.345 -126.723,-309.971 -127.127,-309.566 -127.502,-309.135 -127.876,-308.703 -128.219,-308.245 -128.528,-307.764 -128.837,-307.283 -129.111,-306.781 -129.348,-306.261 -129.585,-305.741 -129.785,-305.205 -129.946,-304.657 -130.107,-304.109 -130.229,-303.55 -130.31,-302.984 -130.392,-302.418 -130.433,-301.848 -130.433,-301.276 -130.433,-300.705 -130.392,-300.134 -130.31,-299.569 -130.229,-299.003 -130.107,-298.444 -129.946,-297.896 -129.785,-297.347 -129.585,-296.811 -129.348,-296.291 -129.111,-295.772 -128.837,-295.269 -128.528,-294.789 -128.219,-294.308 -127.876,-293.85 -127.502,-293.418 -127.127,-292.986 -126.723,-292.582 -126.291,-292.207 -125.859,-291.833 -125.401,-291.49 -124.92,-291.181 -124.439,-290.872 -123.937,-290.598 -123.418,-290.361 -122.898,-290.123 -122.362,-289.923 -121.813,-289.762 -121.265,-289.601 -120.706,-289.48 -120.14,-289.398 -120.14,-289.398 -118.433,-301.276 -118.433,-301.276"/>
<path fill="olivedrab" stroke="black" stroke-width="0.5" d="M-118.433,-301.276C-118.433,-301.276 -120.14,-289.398 -120.14,-289.398 -119.716,-289.337 -119.289,-289.299 -118.861,-289.284 -118.433,-289.269 -118.004,-289.276 -117.576,-289.307 -117.149,-289.337 -116.724,-289.391 -116.302,-289.467 -115.88,-289.543 -115.463,-289.642 -115.052,-289.762 -114.641,-289.883 -114.236,-290.026 -113.84,-290.19 -113.444,-290.354 -113.058,-290.539 -112.682,-290.744 -112.305,-290.95 -111.941,-291.175 -111.589,-291.419 -111.237,-291.664 -110.898,-291.927 -110.574,-292.207 -110.25,-292.488 -109.942,-292.786 -109.65,-293.099 -109.358,-293.413 -109.083,-293.742 -108.826,-294.085 -108.569,-294.428 -108.331,-294.785 -108.112,-295.153 -107.894,-295.522 -107.695,-295.902 -107.517,-296.291 -107.339,-296.681 -107.182,-297.08 -107.047,-297.487 -106.911,-297.893 -106.798,-298.307 -106.707,-298.726 -106.616,-299.144 -106.547,-299.568 -106.501,-299.994 -106.455,-300.42 -106.433,-300.848 -106.433,-301.276 -106.433,-301.276 -118.433,-301.276 -118.433,-301.276"/>
<ellipse fill="none" stroke="black" cx="-118.433" cy="-301.276" rx="12" ry="12"/>
<text text-anchor="middle" x="-118.433" y="-297.576" font-family="monospace" font-size="14.00">46</text>
</g>
<!-- 49 -->
<g id="node50" class="node"><title>49</title>
<path fill="#1874cd" stroke="black" stroke-width="0.5" d="M-53.7071,-345.922C-53.7071,-345.922 -39.7071,-345.922 -39.7071,-345.922 -39.7071,-346.777 -39.7856,-347.631 -39.9415,-348.473 -40.0975,-349.314 -40.3303,-350.14 -40.637,-350.939 -40.9437,-351.738 -41.323,-352.507 -41.7701,-353.236 -42.2173,-353.966 -42.7304,-354.653 -43.3031,-355.289 -43.8757,-355.925 -44.5055,-356.507 -45.1844,-357.028 -45.8634,-357.549 -46.5887,-358.007 -47.3512,-358.396 -48.1138,-358.784 -48.9103,-359.102 -49.7309,-359.345 -50.5515,-359.588 -51.3926,-359.755 -52.2437,-359.845 -53.0948,-359.934 -53.9524,-359.945 -54.8055,-359.878 -55.6587,-359.811 -56.5039,-359.666 -57.3306,-359.444 -58.1572,-359.223 -58.9618,-358.926 -59.7343,-358.558 -60.5067,-358.189 -61.2437,-357.751 -61.9361,-357.248 -62.6285,-356.745 -63.2732,-356.179 -63.8623,-355.558 -64.4514,-354.938 -64.9824,-354.264 -65.4485,-353.546 -65.9146,-352.829 -66.3139,-352.07 -66.6414,-351.279 -66.9689,-350.488 -67.2232,-349.669 -67.4012,-348.832 -67.4012,-348.832 -53.7071,-345.922 -53.7071,-345.922"/>
<path fill="olivedrab" stroke="black" stroke-width="0.5" d="M-53.7071,-345.922C-53.7071,-345.922 -67.4012,-348.832 -67.4012,-348.832 -67.5028,-348.354 -67.5793,-347.871 -67.6304,-347.385 -67.6815,-346.899 -67.7071,-346.41 -67.7071,-345.922 -67.7071,-345.433 -67.6815,-344.944 -67.6304,-344.458 -67.5793,-343.972 -67.5028,-343.489 -67.4012,-343.011 -67.2995,-342.533 -67.1729,-342.06 -67.0219,-341.595 -66.8708,-341.13 -66.6956,-340.674 -66.4967,-340.227 -66.2979,-339.781 -66.0759,-339.345 -65.8315,-338.922 -65.5871,-338.498 -65.3207,-338.088 -65.0333,-337.693 -64.746,-337.297 -64.4382,-336.917 -64.1111,-336.554 -63.7841,-336.19 -63.4382,-335.845 -63.0749,-335.517 -62.7117,-335.19 -62.3315,-334.883 -61.9361,-334.595 -61.5406,-334.308 -61.1304,-334.042 -60.7071,-333.797 -60.2838,-333.553 -59.848,-333.331 -59.4014,-333.132 -58.9549,-332.933 -58.4982,-332.758 -58.0333,-332.607 -57.5685,-332.456 -57.096,-332.329 -56.6179,-332.227 -56.1397,-332.126 -55.6566,-332.049 -55.1705,-331.998 -54.6844,-331.947 -54.1959,-331.922 -53.7071,-331.922 -53.2183,-331.922 -52.7298,-331.947 -52.2437,-331.998 -51.7576,-332.049 -51.2745,-332.126 -50.7963,-332.227 -50.3182,-332.329 -49.8457,-332.456 -49.3809,-332.607 -48.916,-332.758 -48.4593,-332.933 -48.0128,-333.132 -47.5662,-333.331 -47.1304,-333.553 -46.7071,-333.797 -46.2838,-334.042 -45.8736,-334.308 -45.4781,-334.595 -45.0827,-334.883 -44.7025,-335.19 -44.3393,-335.517 -43.976,-335.845 -43.6301,-336.19 -43.3031,-336.554 -42.976,-336.917 -42.6682,-337.297 -42.3809,-337.693 -42.0936,-338.088 -41.8271,-338.498 -41.5827,-338.922 -41.3383,-339.345 -41.1163,-339.781 -40.9175,-340.227 -40.7187,-340.674 -40.5434,-341.13 -40.3923,-341.595 -40.2413,-342.06 -40.1147,-342.533 -40.013,-343.011 -39.9114,-343.489 -39.8349,-343.972 -39.7838,-344.458 -39.7327,-344.944 -39.7071,-345.433 -39.7071,-345.922 -39.7071,-345.922 -53.7071,-345.922 -53.7071,-345.922"/>
<ellipse fill="none" stroke="black" cx="-53.7071" cy="-345.922" rx="14" ry="14"/>
<text text-anchor="middle" x="-53.7071" y="-342.222" font-family="monospace" font-size="14.00">49</text>
</g>
<!-- 49&#45;&gt;46 -->
<g id="edge75" class="edge"><title>49&#45;&gt;46</title>
<path fill="none" stroke="black" d="M-65.2787,-337.94C-77.4963,-329.513 -96.5698,-316.356 -108.239,-308.307"/>
</g>
<!-- 51 -->
<g id="node52" class="node"><title>51</title>
<ellipse fill="#1874cd" stroke="black" cx="9.09392" cy="-376.911" rx="6" ry="6"/>
<text text-anchor="middle" x="9.09392" y="-373.211" font-family="monospace" font-size="14.00">51</text>
</g>
<!-- 49&#45;&gt;51 -->
<g id="edge76" class="edge"><title>49&#45;&gt;51</title>
<path fill="none" stroke="black" d="M-40.9984,-352.193C-27.3788,-358.914 -6.38281,-369.274 3.53797,-374.17"/>
</g>
<!-- anon_49_65_0 -->
<g id="node134" class="node"><title>anon_49_65_0</title>
<ellipse fill="white" stroke="black" cx="-103.436" cy="-386.648" rx="2.5" ry="2.5"/>
</g>
<!-- 49&#45;&gt;anon_49_65_0 -->
<g id="edge77" class="edge"><title>49&#45;&gt;anon_49_65_0</title>
<path fill="none" stroke="black" d="M-64.7436,-354.96C-76.8762,-364.896 -95.4494,-380.107 -101.475,-385.042"/>
</g>
<!-- 50 -->
<g id="node51" class="node"><title>50</title>
<ellipse fill="#1874cd" stroke="black" cx="413.497" cy="182.086" rx="9" ry="9"/>
<text text-anchor="middle" x="413.497" y="185.786" font-family="monospace" font-size="14.00">50</text>
</g>
<!-- anon_50_42_0 -->
<g id="node136" class="node"><title>anon_50_42_0</title>
<ellipse fill="white" stroke="black" cx="368.398" cy="166.1" rx="2.5" ry="2.5"/>
</g>
<!-- 50&#45;&gt;anon_50_42_0 -->
<g id="edge80" class="edge"><title>50&#45;&gt;anon_50_42_0</title>
<path fill="none" stroke="black" d="M404.801,179.004C394.358,175.302 377.442,169.306 371.001,167.023"/>
</g>
<!-- anon_50_44_0 -->
<g id="node138" class="node"><title>anon_50_44_0</title>
<ellipse fill="white" stroke="black" cx="459.581" cy="194.342" rx="2.5" ry="2.5"/>
</g>
<!-- 50&#45;&gt;anon_50_44_0 -->
<g id="edge83" class="edge"><title>50&#45;&gt;anon_50_44_0</title>
<path fill="none" stroke="black" d="M422.382,184.449C433.054,187.287 450.339,191.885 456.921,193.635"/>
</g>
<!-- anon_51_67_0 -->
<g id="node139" class="node"><title>anon_51_67_0</title>
<ellipse fill="white" stroke="black" cx="53.7776" cy="-395.175" rx="2.5" ry="2.5"/>
</g>
<!-- 51&#45;&gt;anon_51_67_0 -->
<g id="edge85" class="edge"><title>51&#45;&gt;anon_51_67_0</title>
<path fill="none" stroke="black" d="M14.9355,-379.299C24.7766,-383.321 44.2678,-391.288 51.231,-394.134"/>
</g>
<!-- 54 -->
<g id="node55" class="node"><title>54</title>
<ellipse fill="#1874cd" stroke="black" cx="167.114" cy="-87.8233" rx="3.5" ry="3.5"/>
<text text-anchor="middle" x="167.114" y="-84.1233" font-family="monospace" font-size="14.00">54</text>
</g>
<!-- anon_54_41_0 -->
<g id="node141" class="node"><title>anon_54_41_0</title>
<ellipse fill="white" stroke="black" cx="193.865" cy="-122.846" rx="2.5" ry="2.5"/>
</g>
<!-- 54&#45;&gt;anon_54_41_0 -->
<g id="edge88" class="edge"><title>54&#45;&gt;anon_54_41_0</title>
<path fill="none" stroke="black" d="M169.583,-91.0554C174.964,-98.0999 187.631,-114.684 192.192,-120.655"/>
</g>
<!-- 55 -->
<g id="node56" class="node"><title>55</title>
<ellipse fill="#1874cd" stroke="black" cx="-194.505" cy="124.658" rx="11.5" ry="11.5"/>
<text text-anchor="middle" x="-194.505" y="128.358" font-family="monospace" font-size="14.00">55</text>
</g>
<!-- 84 -->
<g id="node85" class="node"><title>84</title>
<ellipse fill="#1874cd" stroke="black" cx="-146.456" cy="158.142" rx="3.5" ry="3.5"/>
<text text-anchor="middle" x="-146.456" y="161.842" font-family="monospace" font-size="14.00">84</text>
</g>
<!-- 55&#45;&gt;84 -->
<g id="edge94" class="edge"><title>55&#45;&gt;84</title>
<path fill="none" stroke="black" d="M-184.782,131.434C-173.813,139.078 -156.591,151.079 -149.581,155.964"/>
</g>
<!-- 85 -->
<g id="node86" class="node"><title>85</title>
<ellipse fill="#1874cd" stroke="black" cx="-242.582" cy="91.107" rx="3.5" ry="3.5"/>
<text text-anchor="middle" x="-242.582" y="94.807" font-family="monospace" font-size="14.00">85</text>
</g>
<!-- 55&#45;&gt;85 -->
<g id="edge95" class="edge"><title>55&#45;&gt;85</title>
<path fill="none" stroke="black" d="M-204.234,117.868C-215.209,110.209 -232.442,98.1837 -239.455,93.289"/>
</g>
<!-- anon_55_70_0 -->
<g id="node144" class="node"><title>anon_55_70_0</title>
<ellipse fill="white" stroke="black" cx="-163.229" cy="79.6178" rx="2.5" ry="2.5"/>
</g>
<!-- 55&#45;&gt;anon_55_70_0 -->
<g id="edge92" class="edge"><title>55&#45;&gt;anon_55_70_0</title>
<path fill="none" stroke="black" d="M-187.872,115.106C-180.413,104.364 -168.807,87.6499 -164.717,81.7598"/>
</g>
<!-- anon_55_92_0 -->
<g id="node145" class="node"><title>anon_55_92_0</title>
<ellipse fill="white" stroke="black" cx="-226.014" cy="169.534" rx="2.5" ry="2.5"/>
</g>
<!-- 55&#45;&gt;anon_55_92_0 -->
<g id="edge96" class="edge"><title>55&#45;&gt;anon_55_92_0</title>
<path fill="none" stroke="black" d="M-201.187,134.175C-208.702,144.878 -220.395,161.531 -224.516,167.4"/>
</g>
<!-- 56 -->
<g id="node57" class="node"><title>56</title>
<ellipse fill="#1874cd" stroke="black" cx="540.025" cy="-333.21" rx="3.5" ry="3.5"/>
<text text-anchor="middle" x="540.025" y="-329.51" font-family="monospace" font-size="14.00">56</text>
</g>
<!-- anon_56_41_0 -->
<g id="node146" class="node"><title>anon_56_41_0</title>
<ellipse fill="white" stroke="black" cx="495.24" cy="-323.159" rx="2.5" ry="2.5"/>
</g>
<!-- 56&#45;&gt;anon_56_41_0 -->
<g id="edge98" class="edge"><title>56&#45;&gt;anon_56_41_0</title>
<path fill="none" stroke="black" d="M536.51,-332.421C527.767,-330.459 505.202,-325.394 497.703,-323.712"/>
</g>
<!-- 58 -->
<g id="node59" class="node"><title>58</title>
<ellipse fill="#1874cd" stroke="black" cx="510.036" cy="-108.266" rx="3.5" ry="3.5"/>
<text text-anchor="middle" x="510.036" y="-104.566" font-family="monospace" font-size="14.00">58</text>
</g>
<!-- anon_58_47_0 -->
<g id="node148" class="node"><title>anon_58_47_0</title>
<ellipse fill="white" stroke="black" cx="479.218" cy="-139.722" rx="2.5" ry="2.5"/>
</g>
<!-- 58&#45;&gt;anon_58_47_0 -->
<g id="edge101" class="edge"><title>58&#45;&gt;anon_58_47_0</title>
<path fill="none" stroke="black" d="M507.192,-111.169C500.993,-117.496 486.401,-132.391 481.146,-137.754"/>
</g>
<!-- 59 -->
<g id="node60" class="node"><title>59</title>
<ellipse fill="#1874cd" stroke="black" cx="555.407" cy="201.853" rx="3.5" ry="3.5"/>
<text text-anchor="middle" x="555.407" y="205.553" font-family="monospace" font-size="14.00">59</text>
</g>
<!-- 59&#45;&gt;44 -->
<g id="edge104" class="edge"><title>59&#45;&gt;44</title>
<path fill="none" stroke="black" d="M551.906,201.808C544.495,201.712 527.005,201.485 516.09,201.343"/>
</g>
<!-- 61 -->
<g id="node62" class="node"><title>61</title>
<ellipse fill="#1874cd" stroke="black" cx="158.565" cy="-272.555" rx="3.5" ry="3.5"/>
<text text-anchor="middle" x="158.565" y="-268.855" font-family="monospace" font-size="14.00">61</text>
</g>
<!-- anon_61_41_0 -->
<g id="node150" class="node"><title>anon_61_41_0</title>
<ellipse fill="white" stroke="black" cx="206.585" cy="-280.433" rx="2.5" ry="2.5"/>
</g>
<!-- 61&#45;&gt;anon_61_41_0 -->
<g id="edge105" class="edge"><title>61&#45;&gt;anon_61_41_0</title>
<path fill="none" stroke="black" d="M162.333,-273.173C171.708,-274.711 195.903,-278.68 203.943,-279.999"/>
</g>
<!-- anon_62_71_0 -->
<g id="node151" class="node"><title>anon_62_71_0</title>
<ellipse fill="white" stroke="black" cx="168.3" cy="-378.225" rx="2.5" ry="2.5"/>
</g>
<!-- 62&#45;&gt;anon_62_71_0 -->
<g id="edge107" class="edge"><title>62&#45;&gt;anon_62_71_0</title>
<path fill="none" stroke="black" d="M208.761,-357.544C200.482,-361.775 178.167,-373.181 170.741,-376.977"/>
</g>
<!-- 63 -->
<g id="node64" class="node"><title>63</title>
<ellipse fill="#1874cd" stroke="black" cx="366.144" cy="-513.868" rx="3.5" ry="3.5"/>
<text text-anchor="middle" x="366.144" y="-510.168" font-family="monospace" font-size="14.00">63</text>
</g>
<!-- anon_63_41_0 -->
<g id="node152" class="node"><title>anon_63_41_0</title>
<ellipse fill="white" stroke="black" cx="357.093" cy="-468.984" rx="2.5" ry="2.5"/>
</g>
<!-- 63&#45;&gt;anon_63_41_0 -->
<g id="edge109" class="edge"><title>63&#45;&gt;anon_63_41_0</title>
<path fill="none" stroke="black" d="M365.434,-510.346C363.667,-501.583 359.106,-478.968 357.591,-471.453"/>
</g>
<!-- 65 -->
<g id="node66" class="node"><title>65</title>
<ellipse fill="#1874cd" stroke="black" cx="-164.198" cy="-451.507" rx="3.5" ry="3.5"/>
<text text-anchor="middle" x="-164.198" y="-447.807" font-family="monospace" font-size="14.00">65</text>
</g>
<!-- 66 -->
<g id="node67" class="node"><title>66</title>
<ellipse fill="#1874cd" stroke="black" cx="-301.447" cy="54.0619" rx="3.5" ry="3.5"/>
<text text-anchor="middle" x="-301.447" y="57.7619" font-family="monospace" font-size="14.00">66</text>
</g>
<!-- 94 -->
<g id="node95" class="node"><title>94</title>
<ellipse fill="#1874cd" stroke="black" cx="-261.322" cy="25.9485" rx="3.5" ry="3.5"/>
<text text-anchor="middle" x="-261.322" y="29.6485" font-family="monospace" font-size="14.00">94</text>
</g>
<!-- 66&#45;&gt;94 -->
<g id="edge112" class="edge"><title>66&#45;&gt;94</title>
<path fill="none" stroke="black" d="M-298.561,52.0401C-291.23,46.9033 -271.935,33.3849 -264.4,28.1049"/>
</g>
<!-- 67 -->
<g id="node68" class="node"><title>67</title>
<ellipse fill="#1874cd" stroke="black" cx="125.366" cy="-440.798" rx="3.5" ry="3.5"/>
<text text-anchor="middle" x="125.366" y="-437.098" font-family="monospace" font-size="14.00">67</text>
</g>
<!-- 68 -->
<g id="node69" class="node"><title>68</title>
<ellipse fill="#1874cd" stroke="black" cx="353.888" cy="-243.122" rx="3.5" ry="3.5"/>
<text text-anchor="middle" x="353.888" y="-239.422" font-family="monospace" font-size="14.00">68</text>
</g>
<!-- 68&#45;&gt;41 -->
<g id="edge113" class="edge"><title>68&#45;&gt;41</title>
<path fill="none" stroke="black" d="M352.147,-246.447C350.746,-249.122 348.606,-253.208 346.126,-257.944"/>
</g>
<!-- 69 -->
<g id="node70" class="node"><title>69</title>
<ellipse fill="#1874cd" stroke="black" cx="378.822" cy="-220.233" rx="3.5" ry="3.5"/>
<text text-anchor="middle" x="378.822" y="-216.533" font-family="monospace" font-size="14.00">69</text>
</g>
<!-- 69&#45;&gt;41 -->
<g id="edge114" class="edge"><title>69&#45;&gt;41</title>
<path fill="none" stroke="black" d="M376.765,-223.222C372.359,-229.624 361.545,-245.338 350.904,-260.801"/>
</g>
<!-- 70 -->
<g id="node71" class="node"><title>70</title>
<ellipse fill="#1874cd" stroke="black" cx="-136.515" cy="45.3496" rx="3.5" ry="3.5"/>
<text text-anchor="middle" x="-136.515" y="49.0496" font-family="monospace" font-size="14.00">70</text>
</g>
<!-- 71 -->
<g id="node72" class="node"><title>71</title>
<ellipse fill="#1874cd" stroke="black" cx="129.282" cy="-402.39" rx="3.5" ry="3.5"/>
<text text-anchor="middle" x="129.282" y="-398.69" font-family="monospace" font-size="14.00">71</text>
</g>
<!-- 72 -->
<g id="node73" class="node"><title>72</title>
<ellipse fill="#1874cd" stroke="black" cx="-102" cy="-108" rx="3.5" ry="3.5"/>
<text text-anchor="middle" x="-102" y="-104.3" font-family="monospace" font-size="14.00">72</text>
</g>
<!-- 73 -->
<g id="node74" class="node"><title>73</title>
<ellipse fill="#1874cd" stroke="black" cx="236.614" cy="-321.253" rx="3.5" ry="3.5"/>
<text text-anchor="middle" x="236.614" y="-317.553" font-family="monospace" font-size="14.00">73</text>
</g>
<!-- 73&#45;&gt;41 -->
<g id="edge115" class="edge"><title>73&#45;&gt;41</title>
<path fill="none" stroke="black" d="M240.397,-320.294C247.507,-318.492 263.615,-314.408 279.864,-310.289"/>
</g>
<!-- 74 -->
<g id="node75" class="node"><title>74</title>
<ellipse fill="#1874cd" stroke="black" cx="-148.465" cy="-126.018" rx="3.5" ry="3.5"/>
<text text-anchor="middle" x="-148.465" y="-122.318" font-family="monospace" font-size="14.00">74</text>
</g>
<!-- 74&#45;&gt;3 -->
<g id="edge116" class="edge"><title>74&#45;&gt;3</title>
<path fill="none" stroke="black" d="M-150.222,-122.652C-153.661,-116.063 -161.593,-100.864 -169.003,-86.6664"/>
</g>
<!-- 75 -->
<g id="node76" class="node"><title>75</title>
<ellipse fill="#1874cd" stroke="black" cx="-151.711" cy="-88.8089" rx="3.5" ry="3.5"/>
<text text-anchor="middle" x="-151.711" y="-85.1089" font-family="monospace" font-size="14.00">75</text>
</g>
<!-- 75&#45;&gt;3 -->
<g id="edge117" class="edge"><title>75&#45;&gt;3</title>
<path fill="none" stroke="black" d="M-154.314,-86.2526C-155.903,-84.6927 -158.107,-82.5278 -160.612,-80.0681"/>
</g>
<!-- 76 -->
<g id="node77" class="node"><title>76</title>
<ellipse fill="#1874cd" stroke="black" cx="241.898" cy="-445.213" rx="3.5" ry="3.5"/>
<text text-anchor="middle" x="241.898" y="-441.513" font-family="monospace" font-size="14.00">76</text>
</g>
<!-- anon_76_41_0 -->
<g id="node154" class="node"><title>anon_76_41_0</title>
<ellipse fill="white" stroke="black" cx="263.524" cy="-400.973" rx="2.5" ry="2.5"/>
</g>
<!-- 76&#45;&gt;anon_76_41_0 -->
<g id="edge118" class="edge"><title>76&#45;&gt;anon_76_41_0</title>
<path fill="none" stroke="black" d="M243.453,-442.031C247.56,-433.631 258.629,-410.986 262.313,-403.451"/>
</g>
<!-- 77 -->
<g id="node78" class="node"><title>77</title>
<ellipse fill="#1874cd" stroke="black" cx="108" cy="123" rx="3.5" ry="3.5"/>
<text text-anchor="middle" x="108" y="126.7" font-family="monospace" font-size="14.00">77</text>
</g>
<!-- 79 -->
<g id="node80" class="node"><title>79</title>
<ellipse fill="#1874cd" stroke="black" cx="129" cy="39" rx="3.5" ry="3.5"/>
<text text-anchor="middle" x="129" y="42.7" font-family="monospace" font-size="14.00">79</text>
</g>
<!-- 82 -->
<g id="node83" class="node"><title>82</title>
<ellipse fill="#1874cd" stroke="black" cx="-123" cy="81" rx="3.5" ry="3.5"/>
<text text-anchor="middle" x="-123" y="84.7" font-family="monospace" font-size="14.00">82</text>
</g>
<!-- 89 -->
<g id="node90" class="node"><title>89</title>
<ellipse fill="#1874cd" stroke="black" cx="-332.276" cy="-48.9834" rx="3.5" ry="3.5"/>
<text text-anchor="middle" x="-332.276" y="-45.2834" font-family="monospace" font-size="14.00">89</text>
</g>
<!-- 91 -->
<g id="node92" class="node"><title>91</title>
<ellipse fill="#1874cd" stroke="black" cx="449.908" cy="-410.882" rx="3.5" ry="3.5"/>
<text text-anchor="middle" x="449.908" y="-407.182" font-family="monospace" font-size="14.00">91</text>
</g>
<!-- 92 -->
<g id="node93" class="node"><title>92</title>
<ellipse fill="#1874cd" stroke="black" cx="-248.698" cy="206.592" rx="3.5" ry="3.5"/>
<text text-anchor="middle" x="-248.698" y="210.292" font-family="monospace" font-size="14.00">92</text>
</g>
<!-- 93 -->
<g id="node94" class="node"><title>93</title>
<ellipse fill="#1874cd" stroke="black" cx="150" cy="-150" rx="3.5" ry="3.5"/>
<text text-anchor="middle" x="150" y="-146.3" font-family="monospace" font-size="14.00">93</text>
</g>
<!-- 94&#45;&gt;3 -->
<g id="edge120" class="edge"><title>94&#45;&gt;3</title>
<path fill="none" stroke="black" d="M-258.779,23.2142C-251.008,14.859 -226.975,-10.9806 -208.405,-30.9465"/>
</g>
<!-- 95 -->
<g id="node96" class="node"><title>95</title>
<ellipse fill="#1874cd" stroke="black" cx="304.73" cy="-350.125" rx="3.5" ry="3.5"/>
<text text-anchor="middle" x="304.73" y="-346.425" font-family="monospace" font-size="14.00">95</text>
</g>
<!-- 95&#45;&gt;41 -->
<g id="edge121" class="edge"><title>95&#45;&gt;41</title>
<path fill="none" stroke="black" d="M306.037,-346.766C306.557,-345.431 307.211,-343.753 307.96,-341.829"/>
</g>
<!-- 96 -->
<g id="node97" class="node"><title>96</title>
<ellipse fill="brown" stroke="black" cx="-67.5131" cy="31.1003" rx="3.5" ry="3.5"/>
<text text-anchor="middle" x="-67.5131" y="34.8003" font-family="monospace" font-size="14.00">96</text>
</g>
<!-- 96&#45;&gt;6 -->
<g id="edge122" class="edge"><title>96&#45;&gt;6</title>
<path fill="none" stroke="black" d="M-64.7673,28.4795C-61.7125,25.5637 -56.4524,20.5429 -50.7632,15.1126"/>
</g>
<!-- 98 -->
<g id="node99" class="node"><title>98</title>
<ellipse fill="brown" stroke="black" cx="108" cy="-150" rx="3.5" ry="3.5"/>
<text text-anchor="middle" x="108" y="-146.3" font-family="monospace" font-size="14.00">98</text>
</g>
<!-- 99 -->
<g id="node100" class="node"><title>99</title>
<ellipse fill="brown" stroke="black" cx="82.1903" cy="34.7225" rx="3.5" ry="3.5"/>
<text text-anchor="middle" x="82.1903" y="38.4225" font-family="monospace" font-size="14.00">99</text>
</g>
<!-- anon_99_6_0 -->
<g id="node155" class="node"><title>anon_99_6_0</title>
<ellipse fill="white" stroke="black" cx="32.3173" cy="22.0504" rx="2.5" ry="2.5"/>
</g>
<!-- 99&#45;&gt;anon_99_6_0 -->
<g id="edge123" class="edge"><title>99&#45;&gt;anon_99_6_0</title>
<path fill="none" stroke="black" d="M78.6035,33.8111C69.1336,31.4049 43.6056,24.9186 35.1101,22.76"/>
</g>
<!-- 100 -->
<g id="node101" class="node"><title>100</title>
<ellipse fill="brown" stroke="black" cx="17.5752" cy="-91.8709" rx="8" ry="8"/>
<text text-anchor="middle" x="17.5752" y="-88.1709" font-family="monospace" font-size="14.00">100</text>
</g>
<!-- 100&#45;&gt;6 -->
<g id="edge125" class="edge"><title>100&#45;&gt;6</title>
<path fill="none" stroke="black" d="M13.7379,-84.5028C8.52933,-74.5016 -1.09741,-56.017 -9.53141,-39.8225"/>
</g>
<!-- 102 -->
<g id="node103" class="node"><title>102</title>
<ellipse fill="brown" stroke="black" cx="68.1132" cy="-122.554" rx="3.5" ry="3.5"/>
<text text-anchor="middle" x="68.1132" y="-118.854" font-family="monospace" font-size="14.00">102</text>
</g>
<!-- 100&#45;&gt;102 -->
<g id="edge126" class="edge"><title>100&#45;&gt;102</title>
<path fill="none" stroke="black" d="M24.6023,-96.1373C35.6681,-102.856 56.7276,-115.641 64.8265,-120.559"/>
</g>
<!-- 105 -->
<g id="node106" class="node"><title>105</title>
<ellipse fill="brown" stroke="black" cx="14.9752" cy="-152.904" rx="3.5" ry="3.5"/>
<text text-anchor="middle" x="14.9752" y="-149.204" font-family="monospace" font-size="14.00">105</text>
</g>
<!-- 100&#45;&gt;105 -->
<g id="edge127" class="edge"><title>100&#45;&gt;105</title>
<path fill="none" stroke="black" d="M17.2246,-100.102C16.6535,-113.508 15.545,-139.529 15.1338,-149.183"/>
</g>
<!-- 101 -->
<g id="node102" class="node"><title>101</title>
<ellipse fill="brown" stroke="black" cx="-38.5629" cy="38.0448" rx="3.5" ry="3.5"/>
<text text-anchor="middle" x="-38.5629" y="41.7448" font-family="monospace" font-size="14.00">101</text>
</g>
<!-- 101&#45;&gt;6 -->
<g id="edge128" class="edge"><title>101&#45;&gt;6</title>
<path fill="none" stroke="black" d="M-37.5508,34.3656C-36.8857,31.9476 -35.9428,28.5199 -34.8756,24.6399"/>
</g>
<!-- 103 -->
<g id="node104" class="node"><title>103</title>
<ellipse fill="brown" stroke="black" cx="-102" cy="-150" rx="3.5" ry="3.5"/>
<text text-anchor="middle" x="-102" y="-146.3" font-family="monospace" font-size="14.00">103</text>
</g>
<!-- 104 -->
<g id="node105" class="node"><title>104</title>
<ellipse fill="brown" stroke="black" cx="150" cy="165" rx="3.5" ry="3.5"/>
<text text-anchor="middle" x="150" y="168.7" font-family="monospace" font-size="14.00">104</text>
</g>
<!-- 106 -->
<g id="node107" class="node"><title>106</title>
<ellipse fill="brown" stroke="black" cx="171" cy="81" rx="3.5" ry="3.5"/>
<text text-anchor="middle" x="171" y="84.7" font-family="monospace" font-size="14.00">106</text>
</g>
<!-- 107 -->
<g id="node108" class="node"><title>107</title>
<ellipse fill="brown" stroke="black" cx="171" cy="39" rx="3.5" ry="3.5"/>
<text text-anchor="middle" x="171" y="42.7" font-family="monospace" font-size="14.00">107</text>
</g>
<!-- 108 -->
<g id="node109" class="node"><title>108</title>
<ellipse fill="brown" stroke="black" cx="192" cy="123" rx="3.5" ry="3.5"/>
<text text-anchor="middle" x="192" y="126.7" font-family="monospace" font-size="14.00">108</text>
</g>
<!-- 109 -->
<g id="node110" class="node"><title>109</title>
<ellipse fill="brown" stroke="black" cx="-51.532" cy="-37.1339" rx="3.5" ry="3.5"/>
<text text-anchor="middle" x="-51.532" y="-33.4339" font-family="monospace" font-size="14.00">109</text>
</g>
<!-- 109&#45;&gt;6 -->
<g id="edge129" class="edge"><title>109&#45;&gt;6</title>
<path fill="none" stroke="black" d="M-49.1449,-34.5231C-49.0448,-34.4137 -48.9422,-34.3014 -48.837,-34.1864"/>
</g>
<!-- 110 -->
<g id="node111" class="node"><title>110</title>
<ellipse fill="olivedrab" stroke="black" cx="264.543" cy="-239.31" rx="3.5" ry="3.5"/>
<text text-anchor="middle" x="264.543" y="-235.61" font-family="monospace" font-size="14.00">110</text>
</g>
<!-- 110&#45;&gt;41 -->
<g id="edge130" class="edge"><title>110&#45;&gt;41</title>
<path fill="none" stroke="black" d="M267.126,-241.872C271.666,-246.375 281.58,-256.206 291.92,-266.461"/>
</g>
<!-- 111 -->
<g id="node112" class="node"><title>111</title>
<ellipse fill="olivedrab" stroke="black" cx="-49.7699" cy="-400.114" rx="3.5" ry="3.5"/>
<text text-anchor="middle" x="-49.7699" y="-396.414" font-family="monospace" font-size="14.00">111</text>
</g>
<!-- 111&#45;&gt;49 -->
<g id="edge131" class="edge"><title>111&#45;&gt;49</title>
<path fill="none" stroke="black" d="M-50.0282,-396.558C-50.5552,-389.305 -51.7794,-372.454 -52.6714,-360.178"/>
</g>
<!-- 112 -->
<g id="node113" class="node"><title>112</title>
<ellipse fill="olivedrab" stroke="black" cx="416.163" cy="-260.932" rx="3.5" ry="3.5"/>
<text text-anchor="middle" x="416.163" y="-257.232" font-family="monospace" font-size="14.00">112</text>
</g>
<!-- 112&#45;&gt;41 -->
<g id="edge132" class="edge"><title>112&#45;&gt;41</title>
<path fill="none" stroke="black" d="M412.688,-262.375C405.049,-265.548 386.006,-273.457 367.578,-281.11"/>
</g>
<!-- 113 -->
<g id="node114" class="node"><title>113</title>
<ellipse fill="olivedrab" stroke="black" cx="-71.4413" cy="-296.986" rx="3.5" ry="3.5"/>
<text text-anchor="middle" x="-71.4413" y="-293.286" font-family="monospace" font-size="14.00">113</text>
</g>
<!-- 113&#45;&gt;49 -->
<g id="edge133" class="edge"><title>113&#45;&gt;49</title>
<path fill="none" stroke="black" d="M-70.1659,-300.505C-67.7833,-307.08 -62.5421,-321.542 -58.6103,-332.392"/>
</g>
<!-- 114 -->
<g id="node115" class="node"><title>114</title>
<ellipse fill="olivedrab" stroke="black" cx="-4.33125" cy="-314.16" rx="3.5" ry="3.5"/>
<text text-anchor="middle" x="-4.33125" y="-310.46" font-family="monospace" font-size="14.00">114</text>
</g>
<!-- 114&#45;&gt;49 -->
<g id="edge134" class="edge"><title>114&#45;&gt;49</title>
<path fill="none" stroke="black" d="M-7.57094,-316.244C-14.3506,-320.605 -30.3358,-330.888 -41.581,-338.121"/>
</g>
<!-- 115 -->
<g id="node116" class="node"><title>115</title>
<ellipse fill="olivedrab" stroke="black" cx="-151.586" cy="-255.646" rx="3.5" ry="3.5"/>
<text text-anchor="middle" x="-151.586" y="-251.946" font-family="monospace" font-size="14.00">115</text>
</g>
<!-- 115&#45;&gt;46 -->
<g id="edge135" class="edge"><title>115&#45;&gt;46</title>
<path fill="none" stroke="black" d="M-149.411,-258.64C-144.686,-265.144 -133.301,-280.812 -125.729,-291.234"/>
</g>
<!-- 116 -->
<g id="node117" class="node"><title>116</title>
<ellipse fill="olivedrab" stroke="black" cx="-30.9063" cy="-283.995" rx="3.5" ry="3.5"/>
<text text-anchor="middle" x="-30.9063" y="-280.295" font-family="monospace" font-size="14.00">116</text>
</g>
<!-- 116&#45;&gt;49 -->
<g id="edge136" class="edge"><title>116&#45;&gt;49</title>
<path fill="none" stroke="black" d="M-32.1322,-287.325C-35.2217,-295.716 -43.4616,-318.095 -48.8175,-332.642"/>
</g>
<!-- 117 -->
<g id="node118" class="node"><title>117</title>
<ellipse fill="#98f5ff" stroke="black" cx="103.325" cy="177.816" rx="3.5" ry="3.5"/>
<text text-anchor="middle" x="103.325" y="181.516" font-family="monospace" font-size="14.00">117</text>
</g>
<!-- 117&#45;&gt;4 -->
<g id="edge137" class="edge"><title>117&#45;&gt;4</title>
<path fill="none" stroke="black" d="M100.474,175.689C92.869,170.015 71.4838,154.058 53.9457,140.972"/>
</g>
<!-- 118 -->
<g id="node119" class="node"><title>118</title>
<ellipse fill="#98f5ff" stroke="black" cx="-264.143" cy="-16.2787" rx="3.5" ry="3.5"/>
<text text-anchor="middle" x="-264.143" y="-12.5787" font-family="monospace" font-size="14.00">118</text>
</g>
<!-- 118&#45;&gt;3 -->
<g id="edge138" class="edge"><title>118&#45;&gt;3</title>
<path fill="none" stroke="black" d="M-260.738,-17.9954C-252.916,-21.9385 -232.994,-31.9812 -215.53,-40.7849"/>
</g>
<!-- 120 -->
<g id="node121" class="node"><title>120</title>
<ellipse fill="black" stroke="black" cx="97.871" cy="-191.72" rx="3.5" ry="3.5"/>
<text text-anchor="middle" x="97.871" y="-188.02" font-family="monospace" font-size="14.00">120</text>
</g>
<!-- 120&#45;&gt;0 -->
<g id="edge139" class="edge"><title>120&#45;&gt;0</title>
<path fill="none" stroke="black" d="M94.6392,-189.498C87.058,-184.287 67.6051,-170.914 52.1611,-160.297"/>
</g>
<!-- anon_3_89_0&#45;&gt;89 -->
<g id="edge10" class="edge"><title>anon_3_89_0&#45;&gt;89</title>
<path fill="none" stroke="black" d="M-287.634,-50.2357C-295.519,-50.0145 -319.621,-49.3384 -328.735,-49.0827"/>
</g>
<!-- anon_23_15_1 -->
<g id="node125" class="node"><title>anon_23_15_1</title>
<ellipse fill="white" stroke="black" cx="216.133" cy="-72.9061" rx="2.5" ry="2.5"/>
</g>
<!-- anon_23_15_0&#45;&gt;anon_23_15_1 -->
<g id="edge36" class="edge"><title>anon_23_15_0&#45;&gt;anon_23_15_1</title>
<path fill="none" stroke="black" d="M254.213,-91.9348C246.705,-88.1829 225.518,-77.5954 218.456,-74.0668"/>
</g>
<!-- anon_23_15_1&#45;&gt;15 -->
<g id="edge37" class="edge"><title>anon_23_15_1&#45;&gt;15</title>
<path fill="none" stroke="black" d="M213.864,-70.8001C207.547,-64.9368 189.385,-48.0796 176.652,-36.2613"/>
</g>
<!-- anon_27_6_1 -->
<g id="node127" class="node"><title>anon_27_6_1</title>
<ellipse fill="white" stroke="black" cx="45.6218" cy="-50.2332" rx="2.5" ry="2.5"/>
</g>
<!-- anon_27_6_0&#45;&gt;anon_27_6_1 -->
<g id="edge39" class="edge"><title>anon_27_6_0&#45;&gt;anon_27_6_1</title>
<path fill="none" stroke="black" d="M87.6256,-73.6794C79.846,-69.3368 55.2914,-55.6307 47.808,-51.4535"/>
</g>
<!-- anon_27_6_1&#45;&gt;6 -->
<g id="edge40" class="edge"><title>anon_27_6_1&#45;&gt;6</title>
<path fill="none" stroke="black" d="M43.2499,-48.8561C37.1136,-45.2933 20.105,-35.418 4.52167,-26.3702"/>
</g>
<!-- anon_31_20_1 -->
<g id="node129" class="node"><title>anon_31_20_1</title>
<ellipse fill="white" stroke="black" cx="-124.475" cy="202.597" rx="2.5" ry="2.5"/>
</g>
<!-- anon_31_20_0&#45;&gt;anon_31_20_1 -->
<g id="edge44" class="edge"><title>anon_31_20_0&#45;&gt;anon_31_20_1</title>
<path fill="none" stroke="black" d="M-105.917,158.752C-109.29,166.723 -119.804,191.561 -123.318,199.863"/>
</g>
<!-- anon_31_20_1&#45;&gt;20 -->
<g id="edge45" class="edge"><title>anon_31_20_1&#45;&gt;20</title>
<path fill="none" stroke="black" d="M-125.233,205.059C-127.59,212.713 -134.794,236.106 -137.519,244.952"/>
</g>
<!-- anon_35_3_0&#45;&gt;3 -->
<g id="edge50" class="edge"><title>anon_35_3_0&#45;&gt;3</title>
<path fill="none" stroke="black" d="M-188.45,-165.506C-188.115,-155.228 -186.915,-118.418 -186,-90.3337"/>
</g>
<!-- anon_37_2_0&#45;&gt;2 -->
<g id="edge53" class="edge"><title>anon_37_2_0&#45;&gt;2</title>
<path fill="none" stroke="black" d="M109.803,93.5883C102.646,88.7809 81.2319,74.3966 67.6517,65.2746"/>
</g>
<!-- anon_40_3_0&#45;&gt;3 -->
<g id="edge55" class="edge"><title>anon_40_3_0&#45;&gt;3</title>
<path fill="none" stroke="black" d="M-249.849,-132.714C-243.96,-125.779 -223.414,-101.59 -206.986,-82.2493"/>
</g>
<!-- anon_41_91_0&#45;&gt;91 -->
<g id="edge72" class="edge"><title>anon_41_91_0&#45;&gt;91</title>
<path fill="none" stroke="black" d="M417.305,-377.739C423.008,-383.536 440.325,-401.14 447.125,-408.053"/>
</g>
<!-- anon_49_65_1 -->
<g id="node135" class="node"><title>anon_49_65_1</title>
<ellipse fill="white" stroke="black" cx="-134.379" cy="-419.148" rx="2.5" ry="2.5"/>
</g>
<!-- anon_49_65_0&#45;&gt;anon_49_65_1 -->
<g id="edge78" class="edge"><title>anon_49_65_0&#45;&gt;anon_49_65_1</title>
<path fill="none" stroke="black" d="M-105.467,-388.78C-111.167,-394.768 -127.254,-411.664 -132.615,-417.296"/>
</g>
<!-- anon_49_65_1&#45;&gt;65 -->
<g id="edge79" class="edge"><title>anon_49_65_1&#45;&gt;65</title>
<path fill="none" stroke="black" d="M-136.335,-421.271C-141.518,-426.895 -155.609,-442.186 -161.526,-448.607"/>
</g>
<!-- anon_50_42_1 -->
<g id="node137" class="node"><title>anon_50_42_1</title>
<ellipse fill="white" stroke="black" cx="329.646" cy="150.801" rx="2.5" ry="2.5"/>
</g>
<!-- anon_50_42_0&#45;&gt;anon_50_42_1 -->
<g id="edge81" class="edge"><title>anon_50_42_0&#45;&gt;anon_50_42_1</title>
<path fill="none" stroke="black" d="M365.855,165.096C358.851,162.331 339.325,154.622 332.249,151.828"/>
</g>
<!-- anon_50_42_1&#45;&gt;42 -->
<g id="edge82" class="edge"><title>anon_50_42_1&#45;&gt;42</title>
<path fill="none" stroke="black" d="M327.069,149.884C320.746,147.634 303.976,141.666 290.186,136.758"/>
</g>
<!-- anon_50_44_0&#45;&gt;44 -->
<g id="edge84" class="edge"><title>anon_50_44_0&#45;&gt;44</title>
<path fill="none" stroke="black" d="M462.116,194.712C468.696,195.672 486.573,198.281 497.597,199.889"/>
</g>
<!-- anon_51_67_1 -->
<g id="node140" class="node"><title>anon_51_67_1</title>
<ellipse fill="white" stroke="black" cx="91.9506" cy="-413.714" rx="2.5" ry="2.5"/>
</g>
<!-- anon_51_67_0&#45;&gt;anon_51_67_1 -->
<g id="edge86" class="edge"><title>anon_51_67_0&#45;&gt;anon_51_67_1</title>
<path fill="none" stroke="black" d="M56.2822,-396.391C63.1824,-399.742 82.4165,-409.083 89.3867,-412.468"/>
</g>
<!-- anon_51_67_1&#45;&gt;67 -->
<g id="edge87" class="edge"><title>anon_51_67_1&#45;&gt;67</title>
<path fill="none" stroke="black" d="M94.143,-415.491C99.9509,-420.198 115.741,-432.997 122.371,-438.371"/>
</g>
<!-- anon_54_41_1 -->
<g id="node142" class="node"><title>anon_54_41_1</title>
<ellipse fill="white" stroke="black" cx="219.157" cy="-159.239" rx="2.5" ry="2.5"/>
</g>
<!-- anon_54_41_0&#45;&gt;anon_54_41_1 -->
<g id="edge89" class="edge"><title>anon_54_41_0&#45;&gt;anon_54_41_1</title>
<path fill="none" stroke="black" d="M195.525,-125.234C200.184,-131.939 213.333,-150.859 217.715,-157.165"/>
</g>
<!-- anon_54_41_2 -->
<g id="node143" class="node"><title>anon_54_41_2</title>
<ellipse fill="white" stroke="black" cx="245.854" cy="-197.687" rx="2.5" ry="2.5"/>
</g>
<!-- anon_54_41_1&#45;&gt;anon_54_41_2 -->
<g id="edge90" class="edge"><title>anon_54_41_1&#45;&gt;anon_54_41_2</title>
<path fill="none" stroke="black" d="M220.592,-161.306C225.185,-167.92 239.495,-188.529 244.279,-195.419"/>
</g>
<!-- anon_54_41_2&#45;&gt;41 -->
<g id="edge91" class="edge"><title>anon_54_41_2&#45;&gt;41</title>
<path fill="none" stroke="black" d="M247.5,-199.802C253.8,-207.895 276.995,-237.694 296.324,-262.526"/>
</g>
<!-- anon_55_70_0&#45;&gt;70 -->
<g id="edge93" class="edge"><title>anon_55_70_0&#45;&gt;70</title>
<path fill="none" stroke="black" d="M-161.476,77.3693C-156.833,71.4133 -144.21,55.2203 -138.91,48.4209"/>
</g>
<!-- anon_55_92_0&#45;&gt;92 -->
<g id="edge97" class="edge"><title>anon_55_92_0&#45;&gt;92</title>
<path fill="none" stroke="black" d="M-227.503,171.965C-231.445,178.406 -242.164,195.918 -246.665,203.27"/>
</g>
<!-- anon_56_41_1 -->
<g id="node147" class="node"><title>anon_56_41_1</title>
<ellipse fill="white" stroke="black" cx="448.743" cy="-315.399" rx="2.5" ry="2.5"/>
</g>
<!-- anon_56_41_0&#45;&gt;anon_56_41_1 -->
<g id="edge99" class="edge"><title>anon_56_41_0&#45;&gt;anon_56_41_1</title>
<path fill="none" stroke="black" d="M492.74,-322.742C484.742,-321.407 459.818,-317.248 451.487,-315.857"/>
</g>
<!-- anon_56_41_1&#45;&gt;41 -->
<g id="edge100" class="edge"><title>anon_56_41_1&#45;&gt;41</title>
<path fill="none" stroke="black" d="M446.152,-315.056C436.372,-313.758 400.733,-309.028 370.565,-305.025"/>
</g>
<!-- anon_58_47_1 -->
<g id="node149" class="node"><title>anon_58_47_1</title>
<ellipse fill="white" stroke="black" cx="449.343" cy="-172.277" rx="2.5" ry="2.5"/>
</g>
<!-- anon_58_47_0&#45;&gt;anon_58_47_1 -->
<g id="edge102" class="edge"><title>anon_58_47_0&#45;&gt;anon_58_47_1</title>
<path fill="none" stroke="black" d="M477.258,-141.858C471.754,-147.855 456.223,-164.781 451.046,-170.421"/>
</g>
<!-- anon_58_47_1&#45;&gt;47 -->
<g id="edge103" class="edge"><title>anon_58_47_1&#45;&gt;47</title>
<path fill="none" stroke="black" d="M447.665,-174.233C442.497,-180.254 426.807,-198.536 420.646,-205.715"/>
</g>
<!-- anon_61_41_0&#45;&gt;41 -->
<g id="edge106" class="edge"><title>anon_61_41_0&#45;&gt;41</title>
<path fill="none" stroke="black" d="M209.504,-280.89C219.199,-282.409 251.295,-287.438 279.147,-291.802"/>
</g>
<!-- anon_62_71_0&#45;&gt;71 -->
<g id="edge108" class="edge"><title>anon_62_71_0&#45;&gt;71</title>
<path fill="none" stroke="black" d="M165.74,-379.81C158.823,-384.094 139.779,-395.889 132.328,-400.504"/>
</g>
<!-- anon_63_41_1 -->
<g id="node153" class="node"><title>anon_63_41_1</title>
<ellipse fill="white" stroke="black" cx="349.231" cy="-422.224" rx="2.5" ry="2.5"/>
</g>
<!-- anon_63_41_0&#45;&gt;anon_63_41_1 -->
<g id="edge110" class="edge"><title>anon_63_41_0&#45;&gt;anon_63_41_1</title>
<path fill="none" stroke="black" d="M356.67,-466.47C355.318,-458.427 351.103,-433.362 349.694,-424.983"/>
</g>
<!-- anon_63_41_1&#45;&gt;41 -->
<g id="edge111" class="edge"><title>anon_63_41_1&#45;&gt;41</title>
<path fill="none" stroke="black" d="M348.717,-419.649C346.774,-409.897 339.674,-374.267 333.687,-344.224"/>
</g>
<!-- anon_76_41_0&#45;&gt;41 -->
<g id="edge119" class="edge"><title>anon_76_41_0&#45;&gt;41</title>
<path fill="none" stroke="black" d="M265.035,-398.451C270.037,-390.103 286.552,-362.538 300.937,-338.531"/>
</g>
<!-- anon_99_6_0&#45;&gt;6 -->
<g id="edge124" class="edge"><title>anon_99_6_0&#45;&gt;6</title>
<path fill="none" stroke="black" d="M29.8259,20.7229C25.3172,18.3206 15.3137,12.9906 5.0239,7.50809"/>
</g>
</g>
</svg>
