<?xml version="1.0" encoding="UTF-8" standalone="no"?>
<!DOCTYPE svg PUBLIC "-//W3C//DTD SVG 1.1//EN"
 "http://www.w3.org/Graphics/SVG/1.1/DTD/svg11.dtd">
<!-- Generated by graphviz version 2.38.0 (20140413.2041)
 -->
<!-- Title: %3 Pages: 1 -->
<svg width="208pt" height="203pt"
 viewBox="0.00 0.00 208.37 202.61" xmlns="http://www.w3.org/2000/svg" xmlns:xlink="http://www.w3.org/1999/xlink">
<g id="graph0" class="graph" transform="scale(1 1) rotate(0) translate(87.0858 90.8121)">
<title>%3</title>
<polygon fill="white" stroke="none" points="-87.0858,111.797 -87.0858,-90.8121 121.287,-90.8121 121.287,111.797 -87.0858,111.797"/>
<!-- 0 -->
<g id="node1" class="node"><title>0</title>
<ellipse fill="#1874cd" stroke="black" cx="-23.9239" cy="46.1767" rx="21.5" ry="21.5"/>
</g>
<!-- 4 -->
<g id="node5" class="node"><title>4</title>
<ellipse fill="#1874cd" stroke="black" cx="-79.5858" cy="21.1353" rx="3.5" ry="3.5"/>
</g>
<!-- 0&#45;&#45;4 -->
<g id="edge1" class="edge"><title>0&#45;&#45;4</title>
<path fill="none" stroke="black" d="M-43.7049,37.2775C-55.704,31.8793 -69.8875,25.4984 -76.2292,22.6453"/>
</g>
<!-- 5 -->
<g id="node6" class="node"><title>5</title>
<ellipse fill="#1874cd" stroke="black" cx="-42.5258" cy="104.297" rx="3.5" ry="3.5"/>
</g>
<!-- 0&#45;&#45;5 -->
<g id="edge2" class="edge"><title>0&#45;&#45;5</title>
<path fill="none" stroke="black" d="M-30.5346,66.8313C-34.5447,79.3604 -39.2847,94.1702 -41.4041,100.792"/>
</g>
<!-- anon_0_6_0 -->
<g id="node8" class="node"><title>anon_0_6_0</title>
<ellipse fill="white" stroke="black" cx="31.5748" cy="23.2647" rx="2.5" ry="2.5"/>
</g>
<!-- 0&#45;&#45;anon_0_6_0 -->
<g id="edge3" class="edge"><title>0&#45;&#45;anon_0_6_0</title>
<path fill="none" stroke="black" d="M-3.88761,37.9049C8.53187,32.7777 23.1904,26.7261 29.0093,24.3239"/>
</g>
<!-- 1 -->
<g id="node2" class="node"><title>1</title>
<ellipse fill="#1874cd" stroke="black" cx="85.7778" cy="-36.8858" rx="9" ry="9"/>
</g>
<!-- 3 -->
<g id="node4" class="node"><title>3</title>
<ellipse fill="#1874cd" stroke="black" cx="99.679" cy="-83.3121" rx="3.5" ry="3.5"/>
</g>
<!-- 1&#45;&#45;3 -->
<g id="edge5" class="edge"><title>1&#45;&#45;3</title>
<path fill="none" stroke="black" d="M88.4581,-45.8373C91.5509,-56.1662 96.4853,-72.646 98.6285,-79.8035"/>
</g>
<!-- 6 -->
<g id="node7" class="node"><title>6</title>
<ellipse fill="white" stroke="black" cx="69.7177" cy="7.78148" rx="2.5" ry="2.5"/>
</g>
<!-- 1&#45;&#45;6 -->
<g id="edge6" class="edge"><title>1&#45;&#45;6</title>
<path fill="none" stroke="black" d="M82.6813,-28.2735C78.9623,-17.9302 72.9385,-1.17628 70.6447,5.20325"/>
</g>
<!-- 2 -->
<g id="node3" class="node"><title>2</title>
<ellipse fill="#1874cd" stroke="black" cx="108.287" cy="35.4249" rx="9" ry="9"/>
</g>
<!-- 2&#45;&#45;6 -->
<g id="edge7" class="edge"><title>2&#45;&#45;6</title>
<path fill="none" stroke="black" d="M100.85,30.095C91.9193,23.6938 77.4526,13.3252 71.944,9.37708"/>
</g>
<!-- anon_0_6_0&#45;&#45;6 -->
<g id="edge4" class="edge"><title>anon_0_6_0&#45;&#45;6</title>
<path fill="none" stroke="black" d="M34.0774,22.2488C40.9721,19.4501 60.1911,11.6486 67.1558,8.82142"/>
</g>
</g>
</svg>
