<?xml version="1.0" encoding="UTF-8" standalone="no"?>
<!DOCTYPE svg PUBLIC "-//W3C//DTD SVG 1.1//EN"
 "http://www.w3.org/Graphics/SVG/1.1/DTD/svg11.dtd">
<!-- Generated by graphviz version 2.38.0 (20140413.2041)
 -->
<!-- Title: %3 Pages: 1 -->
<svg width="169pt" height="199pt"
 viewBox="0.00 0.00 168.77 199.14" xmlns="http://www.w3.org/2000/svg" xmlns:xlink="http://www.w3.org/1999/xlink">
<g id="graph0" class="graph" transform="scale(1 1) rotate(0) translate(79.9545 99.3052)">
<title>%3</title>
<polygon fill="white" stroke="none" points="-79.9545,99.8393 -79.9545,-99.3052 88.82,-99.3052 88.82,99.8393 -79.9545,99.8393"/>
<!-- 0 -->
<g id="node1" class="node"><title>0</title>
<ellipse fill="#1874cd" stroke="black" cx="-11.3558" cy="-34.2203" rx="21.5" ry="21.5"/>
</g>
<!-- 1 -->
<g id="node2" class="node"><title>1</title>
<ellipse fill="#1874cd" stroke="black" cx="75.82" cy="86.8393" rx="9" ry="9"/>
</g>
<!-- anon_1_0_0 -->
<g id="node7" class="node"><title>anon_1_0_0</title>
<ellipse fill="white" stroke="black" cx="48.665" cy="47.692" rx="2.5" ry="2.5"/>
</g>
<!-- 1&#45;&#45;anon_1_0_0 -->
<g id="edge1" class="edge"><title>1&#45;&#45;anon_1_0_0</title>
<path fill="none" stroke="black" d="M70.5842,79.2913C64.2961,70.2263 54.1108,55.5428 50.2324,49.9516"/>
</g>
<!-- 2 -->
<g id="node3" class="node"><title>2</title>
<ellipse fill="#1874cd" stroke="black" cx="48.2747" cy="17.2361" rx="9" ry="9"/>
</g>
<!-- anon_2_1_0 -->
<g id="node9" class="node"><title>anon_2_1_0</title>
<ellipse fill="white" stroke="black" cx="35.1668" cy="62.9805" rx="2.5" ry="2.5"/>
</g>
<!-- 2&#45;&#45;anon_2_1_0 -->
<g id="edge4" class="edge"><title>2&#45;&#45;anon_2_1_0</title>
<path fill="none" stroke="black" d="M45.7474,26.0561C42.7121,36.6488 37.7955,53.8067 35.9234,60.3401"/>
</g>
<!-- anon_2_0_0 -->
<g id="node10" class="node"><title>anon_2_0_0</title>
<ellipse fill="white" stroke="black" cx="64.7889" cy="-27.4828" rx="2.5" ry="2.5"/>
</g>
<!-- 2&#45;&#45;anon_2_0_0 -->
<g id="edge9" class="edge"><title>2&#45;&#45;anon_2_0_0</title>
<path fill="none" stroke="black" stroke-dasharray="5,2" d="M51.4588,8.61385C55.2829,-1.74137 61.4771,-18.5147 63.8357,-24.9016"/>
</g>
<!-- 3 -->
<g id="node4" class="node"><title>3</title>
<ellipse fill="#1874cd" stroke="black" cx="4.88576" cy="39.3639" rx="3.5" ry="3.5"/>
</g>
<!-- 3&#45;&#45;2 -->
<g id="edge6" class="edge"><title>3&#45;&#45;2</title>
<path fill="none" stroke="black" d="M8.00618,37.7725C14.6127,34.4033 30.2026,26.4527 39.9314,21.4911"/>
</g>
<!-- 4 -->
<g id="node5" class="node"><title>4</title>
<ellipse fill="#1874cd" stroke="black" cx="-32.1269" cy="-91.8052" rx="3.5" ry="3.5"/>
</g>
<!-- 4&#45;&#45;0 -->
<g id="edge7" class="edge"><title>4&#45;&#45;0</title>
<path fill="none" stroke="black" d="M-30.8898,-88.3755C-28.5317,-81.838 -23.2284,-67.1354 -18.742,-54.6974"/>
</g>
<!-- 5 -->
<g id="node6" class="node"><title>5</title>
<ellipse fill="#1874cd" stroke="black" cx="-72.4545" cy="-38.3643" rx="3.5" ry="3.5"/>
</g>
<!-- 5&#45;&#45;0 -->
<g id="edge8" class="edge"><title>5&#45;&#45;0</title>
<path fill="none" stroke="black" d="M-68.8155,-38.1175C-61.8791,-37.647 -46.2794,-36.589 -33.0824,-35.6939"/>
</g>
<!-- anon_1_0_1 -->
<g id="node8" class="node"><title>anon_1_0_1</title>
<ellipse fill="white" stroke="black" cx="20.635" cy="17.1446" rx="2.5" ry="2.5"/>
</g>
<!-- anon_1_0_0&#45;&#45;anon_1_0_1 -->
<g id="edge2" class="edge"><title>anon_1_0_0&#45;&#45;anon_1_0_1</title>
<path fill="none" stroke="black" d="M46.8259,45.6877C41.7592,40.166 27.6358,24.7741 22.5176,19.1963"/>
</g>
<!-- anon_1_0_1&#45;&#45;0 -->
<g id="edge3" class="edge"><title>anon_1_0_1&#45;&#45;0</title>
<path fill="none" stroke="black" d="M19.2604,14.9375C15.9595,9.63769 7.32072,-4.23294 0.0580976,-15.8939"/>
</g>
<!-- anon_2_1_0&#45;&#45;1 -->
<g id="edge5" class="edge"><title>anon_2_1_0&#45;&#45;1</title>
<path fill="none" stroke="black" d="M37.3525,64.2633C43.0259,67.5929 58.4405,76.6395 67.9455,82.2179"/>
</g>
<!-- anon_2_0_1 -->
<g id="node11" class="node"><title>anon_2_0_1</title>
<ellipse fill="white" stroke="black" cx="42.0322" cy="-61.778" rx="2.5" ry="2.5"/>
</g>
<!-- anon_2_0_0&#45;&#45;anon_2_0_1 -->
<g id="edge10" class="edge"><title>anon_2_0_0&#45;&#45;anon_2_0_1</title>
<path fill="none" stroke="black" stroke-dasharray="5,2" d="M63.2957,-29.733C59.1823,-35.9322 47.7159,-53.2124 43.5607,-59.4745"/>
</g>
<!-- anon_2_0_1&#45;&#45;0 -->
<g id="edge11" class="edge"><title>anon_2_0_1&#45;&#45;0</title>
<path fill="none" stroke="black" stroke-dasharray="5,2" d="M39.7382,-60.5939C34.2695,-57.7711 20.0211,-50.4164 7.95622,-44.1887"/>
</g>
</g>
</svg>
