<?xml version="1.0" encoding="UTF-8" standalone="no"?>
<!DOCTYPE svg PUBLIC "-//W3C//DTD SVG 1.1//EN"
 "http://www.w3.org/Graphics/SVG/1.1/DTD/svg11.dtd">
<!-- Generated by graphviz version 2.38.0 (20140413.2041)
 -->
<!-- Title: %3 Pages: 1 -->
<svg width="485pt" height="616pt"
 viewBox="0.00 0.00 484.55 616.34" xmlns="http://www.w3.org/2000/svg" xmlns:xlink="http://www.w3.org/1999/xlink">
<g id="graph0" class="graph" transform="scale(1 1) rotate(0) translate(208.189 295.783)">
<title>%3</title>
<polygon fill="white" stroke="none" points="-208.189,320.553 -208.189,-295.783 276.358,-295.783 276.358,320.553 -208.189,320.553"/>
<!-- 0 -->
<g id="node1" class="node"><title>0</title>
<path fill="#98f5ff" stroke="black" stroke-width="0.5" d="M-7.74628,64.5062C-7.74628,64.5062 17.7537,64.5062 17.7537,64.5062 17.7537,63.7717 17.722,63.0376 17.6586,62.3059 17.5952,61.5742 17.5003,60.8455 17.374,60.122 17.2477,59.3985 17.0903,58.6807 16.902,57.9708 16.7138,57.2609 16.495,56.5594 16.2462,55.8684 15.9974,55.1773 15.7189,54.4974 15.4114,53.8304 15.1039,53.1634 14.7677,52.51 14.4038,51.872 14.0399,51.234 13.6486,50.6121 13.2311,50.0079 12.8135,49.4037 12.37,48.8178 11.9018,48.2519 11.4336,47.686 10.9413,47.1405 10.426,46.6171 9.91075,46.0937 9.37313,45.5928 8.81465,45.1158 8.25616,44.6388 7.67732,44.1862 7.07976,43.7592 6.48219,43.3321 5.86646,42.9311 5.23428,42.5573 4.60209,42.1834 3.95405,41.837 3.29197,41.5191 2.62989,41.2012 1.95438,40.912 1.26733,40.6524 0.580281,40.3927 -0.117662,40.1629 -0.824548,39.9636 -1.53143,39.7642 -2.2466,39.5955 -2.96806,39.4579 -2.96806,39.4579 -7.74628,64.5062 -7.74628,64.5062"/>
<path fill="deepskyblue" stroke="black" stroke-width="0.5" d="M-7.74628,64.5062C-7.74628,64.5062 -2.96806,39.4579 -2.96806,39.4579 -4.24742,39.2138 -5.5436,39.0681 -6.84522,39.0221 -8.14684,38.9761 -9.45008,39.0299 -10.7435,39.1829 -12.0369,39.336 -13.3167,39.588 -14.5716,39.9366 -15.8265,40.2852 -17.0529,40.7294 -18.2399,41.2654 -19.4269,41.8014 -20.5712,42.4275 -21.6626,43.1383 -22.7539,43.8491 -23.7893,44.6424 -24.7594,45.5114 -25.7296,46.3803 -26.6318,47.3224 -27.458,48.3292 -28.2843,49.3359 -29.0322,50.4046 -29.6952,51.5256 -30.3582,52.6467 -30.9343,53.8169 -31.4185,55.026 -31.9027,56.2351 -32.2936,57.4795 -32.5877,58.7483 -32.8818,60.017 -33.0782,61.3065 -33.1753,62.6053 -33.2724,63.9041 -33.2699,65.2085 -33.1677,66.5069 -33.0655,67.8053 -32.864,69.094 -32.5649,70.3616 -32.2658,71.6293 -31.8701,72.8721 -31.3811,74.0793 -30.8922,75.2865 -30.3114,76.4544 -29.6441,77.5728 -28.9767,78.6913 -28.2246,79.757 -27.3944,80.7605 -26.5642,81.764 -25.6583,82.7025 -24.6847,83.5676 -23.7111,84.4328 -22.6727,85.2221 -21.5785,85.9286 -20.4844,86.6351 -19.3377,87.2567 -18.1485,87.788 -16.9594,88.3193 -15.7313,88.7587 -14.475,89.1024 -13.2188,89.4461 -11.938,89.693 -10.644,89.841 -9.35002,89.989 -8.04658,90.0377 -6.74515,89.9865 -5.44373,89.9354 -4.14812,89.7846 -2.86973,89.5356 -1.59133,89.2865 -0.333898,88.9398 0.891537,88.4986 2.11697,88.0575 3.30681,87.523 4.45059,86.9001 5.59438,86.2771 6.68876,85.5674 7.72412,84.7773 8.75948,83.9871 9.73279,83.1188 10.6355,82.1799 11.5382,81.241 12.3676,80.2344 13.1165,79.1688 13.8654,78.1032 14.5316,76.9818 15.1092,75.8145 15.6868,74.6471 16.1741,73.4372 16.5668,72.1954 16.9595,70.9536 17.2566,69.6835 17.4552,68.3963 17.6539,67.1091 17.7537,65.8086 17.7537,64.5062 17.7537,64.5062 -7.74628,64.5062 -7.74628,64.5062"/>
<ellipse fill="none" stroke="black" cx="-7.74628" cy="64.5062" rx="25.5" ry="25.5"/>
<text text-anchor="middle" x="-7.74628" y="66.4062" font-family="monospace" font-size="8.00">0</text>
</g>
<!-- 22 -->
<g id="node23" class="node"><title>22</title>
<ellipse fill="deepskyblue" stroke="black" cx="-30.6724" cy="155.264" rx="3.5" ry="3.5"/>
<text text-anchor="middle" x="-30.6724" y="157.164" font-family="monospace" font-size="8.00">22</text>
</g>
<!-- 0&#45;&gt;22 -->
<g id="edge2" class="edge"><title>0&#45;&gt;22</title>
<path fill="none" stroke="black" d="M-14.011,89.3062C-19.5792,111.35 -27.2238,141.612 -29.7912,151.776"/>
</g>
<!-- 24 -->
<g id="node25" class="node"><title>24</title>
<ellipse fill="deepskyblue" stroke="black" cx="-96.0769" cy="110.267" rx="3.5" ry="3.5"/>
<text text-anchor="middle" x="-96.0769" y="112.167" font-family="monospace" font-size="8.00">24</text>
</g>
<!-- 0&#45;&gt;24 -->
<g id="edge3" class="edge"><title>0&#45;&gt;24</title>
<path fill="none" stroke="black" d="M-30.4936,76.2907C-49.4579,86.1154 -75.3739,99.5415 -88.2097,106.191"/>
<polygon fill="black" stroke="black" points="-87.6069,107.85 -92.8515,108.596 -89.2169,104.742 -87.6069,107.85"/>
<text text-anchor="middle" x="-70.3516" y="88.641" font-family="monospace" font-size="8.00">P55L</text>
</g>
<!-- 58 -->
<g id="node59" class="node"><title>58</title>
<ellipse fill="black" stroke="black" cx="-68.4501" cy="137.278" rx="3.5" ry="3.5"/>
<text text-anchor="middle" x="-68.4501" y="139.178" font-family="monospace" font-size="8.00">58</text>
</g>
<!-- 0&#45;&gt;58 -->
<g id="edge4" class="edge"><title>0&#45;&gt;58</title>
<path fill="none" stroke="black" d="M-24.3339,84.3914C-38.9371,101.898 -58.9337,125.87 -65.919,134.244"/>
</g>
<!-- 1 -->
<g id="node2" class="node"><title>1</title>
<ellipse fill="deepskyblue" stroke="black" cx="-116.5" cy="-189.762" rx="3.5" ry="3.5"/>
<text text-anchor="middle" x="-116.5" y="-187.862" font-family="monospace" font-size="8.00">1</text>
</g>
<!-- 3 -->
<g id="node4" class="node"><title>3</title>
<path fill="#1874cd" stroke="black" stroke-width="0.5" d="M-40.686,-130.785C-40.686,-130.785 -6.68602,-130.785 -6.68602,-130.785 -6.68602,-132.071 -6.75899,-133.356 -6.90458,-134.634 -7.05017,-135.912 -7.26814,-137.18 -7.55744,-138.433 -7.84674,-139.686 -8.20691,-140.922 -8.63621,-142.134 -9.06551,-143.347 -9.56325,-144.534 -10.127,-145.69 -10.6908,-146.846 -11.3197,-147.969 -12.0107,-149.053 -12.7017,-150.138 -13.4537,-151.182 -14.2631,-152.182 -15.0724,-153.181 -15.9378,-154.134 -16.8551,-155.036 -17.7724,-155.937 -18.7401,-156.786 -19.7535,-157.577 -20.767,-158.369 -21.8245,-159.103 -22.9211,-159.775 -24.0176,-160.447 -25.1514,-161.056 -26.317,-161.6 -27.4826,-162.143 -28.6781,-162.62 -29.8977,-163.028 -31.1173,-163.436 -32.3591,-163.775 -33.617,-164.042 -34.875,-164.309 -36.1471,-164.505 -37.4273,-164.629 -38.7074,-164.752 -39.9935,-164.802 -41.2794,-164.78 -42.5653,-164.757 -43.8488,-164.662 -45.1239,-164.494 -46.399,-164.326 -47.6635,-164.086 -48.9114,-163.775 -48.9114,-163.775 -40.686,-130.785 -40.686,-130.785"/>
<path fill="#98f5ff" stroke="black" stroke-width="0.5" d="M-40.686,-130.785C-40.686,-130.785 -48.9114,-163.775 -48.9114,-163.775 -49.8712,-163.536 -50.8201,-163.255 -51.7553,-162.933 -52.6906,-162.611 -53.6114,-162.248 -54.5151,-161.846 -55.4187,-161.443 -56.3044,-161.002 -57.1696,-160.522 -58.0347,-160.043 -58.8785,-159.525 -59.6986,-158.972 -59.6986,-158.972 -40.686,-130.785 -40.686,-130.785"/>
<path fill="#ff3030" stroke="black" stroke-width="0.5" d="M-40.686,-130.785C-40.686,-130.785 -59.6986,-158.972 -59.6986,-158.972 -60.97,-158.115 -62.1819,-157.172 -63.326,-156.151 -64.4701,-155.13 -65.5439,-154.032 -66.5398,-152.866 -67.5358,-151.7 -68.4517,-150.468 -69.2814,-149.178 -70.111,-147.888 -70.8524,-146.544 -71.5005,-145.154 -72.1486,-143.764 -72.7019,-142.332 -73.1567,-140.867 -73.6115,-139.403 -73.9666,-137.909 -74.2197,-136.397 -74.4728,-134.884 -74.6233,-133.356 -74.6702,-131.823 -74.717,-130.291 -74.6601,-128.756 -74.4998,-127.231 -74.3395,-125.706 -74.0762,-124.193 -73.7117,-122.704 -73.3471,-121.214 -72.8823,-119.751 -72.3202,-118.324 -71.7582,-116.897 -71.1002,-115.51 -70.3509,-114.172 -69.6016,-112.834 -68.7626,-111.548 -67.8396,-110.323 -66.9167,-109.099 -65.912,-107.938 -64.8323,-106.849 -63.7527,-105.759 -62.6006,-104.745 -61.3839,-103.811 -60.1672,-102.877 -58.8888,-102.027 -57.5574,-101.266 -56.2259,-100.505 -54.8445,-99.8353 -53.4226,-99.2608 -53.4226,-99.2608 -40.686,-130.785 -40.686,-130.785"/>
<path fill="deepskyblue" stroke="black" stroke-width="0.5" d="M-40.686,-130.785C-40.686,-130.785 -53.4226,-99.2608 -53.4226,-99.2608 -52.1384,-98.7419 -50.8237,-98.302 -49.4859,-97.9436 -48.148,-97.5851 -46.7895,-97.3087 -45.4179,-97.1159 -44.0463,-96.9232 -42.6642,-96.8144 -41.2794,-96.7902 -39.8946,-96.7661 -38.5095,-96.8265 -37.1321,-96.9713 -35.7546,-97.1161 -34.3872,-97.3449 -33.0377,-97.6565 -31.6881,-97.968 -30.3589,-98.3618 -29.0573,-98.8355 -27.7558,-99.3092 -26.4844,-99.862 -25.2503,-100.491 -24.0162,-101.12 -22.8217,-101.823 -21.6735,-102.598 -20.5252,-103.372 -19.4253,-104.216 -18.38,-105.125 -17.3347,-106.034 -16.3459,-107.005 -15.4191,-108.035 -14.4923,-109.064 -13.6293,-110.149 -12.8349,-111.283 -12.0404,-112.418 -11.3161,-113.6 -10.6658,-114.823 -10.0156,-116.046 -9.44065,-117.307 -8.94429,-118.601 -8.44793,-119.894 -8.03104,-121.216 -7.69597,-122.56 -7.36089,-123.904 -7.10825,-125.267 -6.93945,-126.641 -6.77066,-128.016 -6.68602,-129.4 -6.68602,-130.785 -6.68602,-130.785 -40.686,-130.785 -40.686,-130.785"/>
<ellipse fill="none" stroke="black" cx="-40.686" cy="-130.785" rx="34" ry="34"/>
<text text-anchor="middle" x="-40.686" y="-128.885" font-family="monospace" font-size="8.00">3</text>
</g>
<!-- 1&#45;&gt;3 -->
<g id="edge5" class="edge"><title>1&#45;&gt;3</title>
<path fill="none" stroke="black" d="M-113.621,-187.522C-106.102,-181.672 -85.2455,-165.448 -67.7523,-151.84"/>
</g>
<!-- 2 -->
<g id="node3" class="node"><title>2</title>
<ellipse fill="#ff3030" stroke="black" cx="138.039" cy="-100.215" rx="14" ry="14"/>
<text text-anchor="middle" x="138.039" y="-98.3148" font-family="monospace" font-size="8.00">2</text>
</g>
<!-- anon_2_37_0 -->
<g id="node61" class="node"><title>anon_2_37_0</title>
<ellipse fill="white" stroke="black" cx="200.978" cy="-159.129" rx="2.5" ry="2.5"/>
</g>
<!-- 2&#45;&gt;anon_2_37_0 -->
<g id="edge7" class="edge"><title>2&#45;&gt;anon_2_37_0</title>
<path fill="none" stroke="black" d="M148.432,-109.943C163.795,-124.323 191.559,-150.313 199.064,-157.338"/>
</g>
<!-- 10 -->
<g id="node11" class="node"><title>10</title>
<ellipse fill="#ff3030" stroke="black" cx="-56.0703" cy="-183.519" rx="3.5" ry="3.5"/>
<text text-anchor="middle" x="-56.0703" y="-181.619" font-family="monospace" font-size="8.00">10</text>
</g>
<!-- 3&#45;&gt;10 -->
<g id="edge10" class="edge"><title>3&#45;&gt;10</title>
<path fill="none" stroke="black" d="M-50.2542,-163.582C-52.2095,-170.285 -53.9926,-176.397 -55.055,-180.038"/>
</g>
<!-- 16 -->
<g id="node17" class="node"><title>16</title>
<ellipse fill="#ff3030" stroke="black" cx="-91.0651" cy="-113.087" rx="3.5" ry="3.5"/>
<text text-anchor="middle" x="-91.0651" y="-111.187" font-family="monospace" font-size="8.00">16</text>
</g>
<!-- 3&#45;&gt;16 -->
<g id="edge11" class="edge"><title>3&#45;&gt;16</title>
<path fill="none" stroke="black" d="M-72.8771,-119.477C-76.4495,-118.222 -79.8178,-117.038 -82.662,-116.039"/>
<polygon fill="black" stroke="black" points="-82.3642,-114.289 -87.6617,-114.283 -83.5243,-117.591 -82.3642,-114.289"/>
<text text-anchor="middle" x="-91.2696" y="-120.358" font-family="monospace" font-size="8.00">M704V</text>
</g>
<!-- 18 -->
<g id="node19" class="node"><title>18</title>
<ellipse fill="deepskyblue" stroke="black" cx="-130.513" cy="-142.119" rx="3.5" ry="3.5"/>
<text text-anchor="middle" x="-130.513" y="-140.219" font-family="monospace" font-size="8.00">18</text>
</g>
<!-- 3&#45;&gt;18 -->
<g id="edge12" class="edge"><title>3&#45;&gt;18</title>
<path fill="none" stroke="black" d="M-74.6459,-135.07C-94.7177,-137.602 -117.898,-140.527 -126.784,-141.648"/>
</g>
<!-- 21 -->
<g id="node22" class="node"><title>21</title>
<ellipse fill="deepskyblue" stroke="black" cx="-90.7192" cy="-202.449" rx="3.5" ry="3.5"/>
<text text-anchor="middle" x="-90.7192" y="-200.549" font-family="monospace" font-size="8.00">21</text>
</g>
<!-- 3&#45;&gt;21 -->
<g id="edge13" class="edge"><title>3&#45;&gt;21</title>
<path fill="none" stroke="black" d="M-60.1734,-158.697C-71.1488,-174.418 -83.6188,-192.279 -88.5493,-199.341"/>
</g>
<!-- 25 -->
<g id="node26" class="node"><title>25</title>
<ellipse fill="deepskyblue" stroke="black" cx="16.0627" cy="-216.293" rx="3.5" ry="3.5"/>
<text text-anchor="middle" x="16.0627" y="-214.393" font-family="monospace" font-size="8.00">25</text>
</g>
<!-- 3&#45;&gt;25 -->
<g id="edge14" class="edge"><title>3&#45;&gt;25</title>
<path fill="none" stroke="black" d="M-21.7895,-159.258C-8.37659,-179.468 8.22869,-204.489 13.9841,-213.161"/>
</g>
<!-- 29 -->
<g id="node30" class="node"><title>29</title>
<ellipse fill="deepskyblue" stroke="black" cx="-10.6469" cy="-171.168" rx="3.5" ry="3.5"/>
<text text-anchor="middle" x="-10.6469" y="-169.268" font-family="monospace" font-size="8.00">29</text>
</g>
<!-- 3&#45;&gt;29 -->
<g id="edge15" class="edge"><title>3&#45;&gt;29</title>
<path fill="none" stroke="black" d="M-20.1514,-158.391C-18.6664,-160.387 -17.2648,-162.271 -16.0173,-163.949"/>
<polygon fill="black" stroke="black" points="-17.1956,-165.297 -12.8072,-168.264 -14.3873,-163.208 -17.1956,-165.297"/>
<text text-anchor="middle" x="-2.08436" y="-163.77" font-family="monospace" font-size="8.00">V1303A</text>
</g>
<!-- 30 -->
<g id="node31" class="node"><title>30</title>
<ellipse fill="deepskyblue" stroke="black" cx="-127.154" cy="-110.022" rx="3.5" ry="3.5"/>
<text text-anchor="middle" x="-127.154" y="-108.122" font-family="monospace" font-size="8.00">30</text>
</g>
<!-- 3&#45;&gt;30 -->
<g id="edge16" class="edge"><title>3&#45;&gt;30</title>
<path fill="none" stroke="black" d="M-73.8695,-122.817C-93.1103,-118.196 -115.163,-112.901 -123.61,-110.873"/>
</g>
<!-- 34 -->
<g id="node35" class="node"><title>34</title>
<ellipse fill="#ff3030" stroke="black" cx="-16.8583" cy="-209.682" rx="3.5" ry="3.5"/>
<text text-anchor="middle" x="-16.8583" y="-207.782" font-family="monospace" font-size="8.00">34</text>
</g>
<!-- 3&#45;&gt;34 -->
<g id="edge17" class="edge"><title>3&#45;&gt;34</title>
<path fill="none" stroke="black" d="M-30.719,-163.787C-25.7199,-180.34 -20.2508,-198.449 -17.9618,-206.029"/>
</g>
<!-- 36 -->
<g id="node37" class="node"><title>36</title>
<ellipse fill="#ff3030" stroke="black" cx="-129.017" cy="-72.1217" rx="3.5" ry="3.5"/>
<text text-anchor="middle" x="-129.017" y="-70.2217" font-family="monospace" font-size="8.00">36</text>
</g>
<!-- 3&#45;&gt;36 -->
<g id="edge20" class="edge"><title>3&#45;&gt;36</title>
<path fill="none" stroke="black" d="M-69.1208,-111.901C-90.1012,-97.967 -116.529,-80.4152 -125.702,-74.3231"/>
</g>
<!-- 41 -->
<g id="node42" class="node"><title>41</title>
<ellipse fill="#1874cd" stroke="black" cx="-36.3979" cy="-76.3475" rx="3.5" ry="3.5"/>
<text text-anchor="middle" x="-36.3979" y="-74.4475" font-family="monospace" font-size="8.00">41</text>
</g>
<!-- 3&#45;&gt;41 -->
<g id="edge23" class="edge"><title>3&#45;&gt;41</title>
<path fill="none" stroke="black" d="M-37.9946,-96.6181C-37.4562,-89.7822 -36.967,-83.573 -36.6759,-79.8774"/>
</g>
<!-- 43 -->
<g id="node44" class="node"><title>43</title>
<ellipse fill="#1874cd" stroke="black" cx="-48.2395" cy="-221.247" rx="3.5" ry="3.5"/>
<text text-anchor="middle" x="-48.2395" y="-219.347" font-family="monospace" font-size="8.00">43</text>
</g>
<!-- 3&#45;&gt;43 -->
<g id="edge24" class="edge"><title>3&#45;&gt;43</title>
<path fill="none" stroke="black" d="M-43.5201,-164.727C-45.2281,-185.182 -47.2108,-208.927 -47.9458,-217.73"/>
</g>
<!-- 44 -->
<g id="node45" class="node"><title>44</title>
<ellipse fill="#1874cd" stroke="black" cx="-103.867" cy="-78.7017" rx="3.5" ry="3.5"/>
<text text-anchor="middle" x="-103.867" y="-76.8017" font-family="monospace" font-size="8.00">44</text>
</g>
<!-- 3&#45;&gt;44 -->
<g id="edge25" class="edge"><title>3&#45;&gt;44</title>
<path fill="none" stroke="black" d="M-67.1145,-108.999C-80.37,-98.0717 -94.8719,-86.1171 -100.941,-81.1137"/>
</g>
<!-- 46 -->
<g id="node47" class="node"><title>46</title>
<ellipse fill="#1874cd" stroke="black" cx="-147.569" cy="-170.418" rx="3.5" ry="3.5"/>
<text text-anchor="middle" x="-147.569" y="-168.518" font-family="monospace" font-size="8.00">46</text>
</g>
<!-- 3&#45;&gt;46 -->
<g id="edge28" class="edge"><title>3&#45;&gt;46</title>
<path fill="none" stroke="black" d="M-72.7545,-142.676C-98.8264,-152.344 -133.024,-165.025 -144.009,-169.098"/>
</g>
<!-- 56 -->
<g id="node57" class="node"><title>56</title>
<ellipse fill="#98f5ff" stroke="black" cx="-93.8376" cy="-157.623" rx="3.5" ry="3.5"/>
<text text-anchor="middle" x="-93.8376" y="-155.723" font-family="monospace" font-size="8.00">56</text>
</g>
<!-- 3&#45;&gt;56 -->
<g id="edge29" class="edge"><title>3&#45;&gt;56</title>
<path fill="none" stroke="black" d="M-71.2966,-146.241C-79.0503,-150.157 -86.3349,-153.835 -90.4268,-155.901"/>
</g>
<!-- 59 -->
<g id="node60" class="node"><title>59</title>
<ellipse fill="black" stroke="black" cx="15.2881" cy="-189.301" rx="3.5" ry="3.5"/>
<text text-anchor="middle" x="15.2881" y="-187.401" font-family="monospace" font-size="8.00">59</text>
</g>
<!-- 3&#45;&gt;59 -->
<g id="edge30" class="edge"><title>3&#45;&gt;59</title>
<path fill="none" stroke="black" d="M-16.948,-155.601C-5.26779,-167.812 7.4233,-181.079 12.7306,-186.628"/>
</g>
<!-- anon_3_35_0 -->
<g id="node62" class="node"><title>anon_3_35_0</title>
<ellipse fill="white" stroke="black" cx="-12.9475" cy="-245.546" rx="2.5" ry="2.5"/>
</g>
<!-- 3&#45;&gt;anon_3_35_0 -->
<g id="edge18" class="edge"><title>3&#45;&gt;anon_3_35_0</title>
<path fill="none" stroke="black" d="M-32.6629,-163.979C-25.6227,-193.106 -16.1225,-232.41 -13.5898,-242.888"/>
</g>
<!-- anon_3_40_0 -->
<g id="node63" class="node"><title>anon_3_40_0</title>
<ellipse fill="white" stroke="black" cx="-158.047" cy="-100.299" rx="2.5" ry="2.5"/>
</g>
<!-- 3&#45;&gt;anon_3_40_0 -->
<g id="edge21" class="edge"><title>3&#45;&gt;anon_3_40_0</title>
<path fill="none" stroke="black" d="M-73.6899,-122.212C-103.792,-114.392 -145.124,-103.656 -155.571,-100.942"/>
</g>
<!-- anon_3_45_0 -->
<g id="node64" class="node"><title>anon_3_45_0</title>
<ellipse fill="white" stroke="black" cx="-82.8301" cy="-235.852" rx="2.5" ry="2.5"/>
</g>
<!-- 3&#45;&gt;anon_3_45_0 -->
<g id="edge26" class="edge"><title>3&#45;&gt;anon_3_45_0</title>
<path fill="none" stroke="black" d="M-53.445,-162.594C-64.1048,-189.169 -78.1447,-224.171 -81.8826,-233.489"/>
</g>
<!-- 4 -->
<g id="node5" class="node"><title>4</title>
<path fill="#98f5ff" stroke="black" stroke-width="0.5" d="M-20.7196,19.4755C-20.7196,19.4755 11.2804,19.4755 11.2804,19.4755 11.2804,18.025 11.1818,16.5762 10.9852,15.139 10.7887,13.7019 10.4946,12.2798 10.1051,10.8825 9.7156,9.48526 9.23153,8.11611 8.65626,6.78454 8.081,5.45297 7.41586,4.16205 6.66544,2.92072 5.91503,1.67939 5.08109,0.490514 4.16938,-0.637673 3.25767,-1.76586 2.27031,-2.83075 1.21412,-3.82498 0.157935,-4.81921 -0.964631,-5.74048 -2.14581,-6.5824 -3.32698,-7.42433 -4.56404,-8.18497 -5.84842,-8.85906 -7.13279,-9.53316 -8.46151,-10.1191 -9.82539,-10.613 -11.1893,-11.1068 -12.5851,-11.5073 -14.0034,-11.8117 -15.4216,-12.1162 -16.8589,-12.3238 -18.3052,-12.4333 -19.7516,-12.5427 -21.2038,-12.5537 -22.6517,-12.4661 -24.0995,-12.3785 -25.5398,-12.1926 -26.9624,-11.9096 -28.3851,-11.6266 -29.7869,-11.2472 -31.158,-10.7741 -32.5292,-10.3009 -33.8666,-9.73505 -35.1611,-9.08043 -36.4555,-8.42582 -37.7039,-7.68395 -38.8976,-6.85995 -38.8976,-6.85995 -20.7196,19.4755 -20.7196,19.4755"/>
<path fill="#ff3030" stroke="black" stroke-width="0.5" d="M-20.7196,19.4755C-20.7196,19.4755 -38.8976,-6.85995 -38.8976,-6.85995 -39.7817,-6.2497 -40.6346,-5.5953 -41.4529,-4.89926 -42.2711,-4.20322 -43.0539,-3.46642 -43.798,-2.69165 -44.5422,-1.91688 -45.2469,-1.10513 -45.9094,-0.259473 -46.572,0.586179 -47.1915,1.46466 -47.7656,2.37262 -48.3398,3.28059 -48.8679,4.2169 -49.3479,5.17798 -49.8279,6.13906 -50.2591,7.12371 -50.6401,8.12818 -51.021,9.13264 -51.3511,10.1557 -51.6292,11.1933 -51.9072,12.231 -52.1328,13.282 -52.3052,14.3424 -52.3052,14.3424 -20.7196,19.4755 -20.7196,19.4755"/>
<path fill="deepskyblue" stroke="black" stroke-width="0.5" d="M-20.7196,19.4755C-20.7196,19.4755 -52.3052,14.3424 -52.3052,14.3424 -52.4818,15.4293 -52.6022,16.5245 -52.6659,17.6238 -52.7297,18.7231 -52.7366,19.825 -52.6867,20.925 -52.6368,22.025 -52.5302,23.1217 -52.3673,24.2107 -52.2043,25.2998 -51.9853,26.3797 -51.711,27.4461 -51.4367,28.5125 -51.1076,29.5641 -50.7249,30.5966 -50.3422,31.6291 -49.9065,32.6412 -49.4195,33.6288 -48.9325,34.6164 -48.3948,35.5781 -47.8086,36.5103 -47.2224,37.4425 -46.5885,38.3437 -45.9094,39.2105 -45.2303,40.0773 -44.5069,40.9085 -43.7422,41.7007 -42.9774,42.493 -42.1722,43.2452 -41.3299,43.9544 -40.4875,44.6636 -39.6091,45.3289 -38.6982,45.9475 -37.7873,46.5662 -36.8451,47.1374 -35.8752,47.6589 -34.9054,48.1805 -33.9093,48.6516 -32.891,49.0704 -31.8726,49.4892 -30.8333,49.8552 -29.7771,50.1669 -28.721,50.4786 -27.6495,50.7355 -26.5669,50.9367 -25.4843,51.138 -24.3921,51.2832 -23.2945,51.3718 -22.1969,51.4604 -21.0955,51.4923 -19.9946,51.4673 -18.8938,51.4424 -17.7949,51.3606 -16.7025,51.2224 -15.6101,51.0842 -14.5255,50.8896 -13.4531,50.6396 -12.3807,50.3895 -11.322,50.0843 -10.2811,49.7251 -9.24015,49.3659 -8.21848,48.9532 -7.22011,48.4887 -6.22175,48.0242 -5.24802,47.5084 -4.30283,46.9435 -3.35763,46.3786 -2.44223,45.7653 -1.56026,45.106 -0.678298,44.4467 0.169049,43.7424 0.978396,42.9957 1.78774,42.2491 2.55801,41.4611 3.28613,40.6351 4.01425,39.809 4.69924,38.946 5.33838,38.0493 5.97751,37.1526 6.56994,36.2235 7.1133,35.2658 7.65665,34.308 8.15021,33.3229 8.592,32.3143 9.03379,31.3056 9.42322,30.2749 9.75875,29.2261 10.0943,28.1773 10.3754,27.1119 10.6011,26.0341 10.8268,24.9564 10.9967,23.8677 11.1102,22.7724 11.2236,21.6771 11.2804,20.5767 11.2804,19.4755 11.2804,19.4755 -20.7196,19.4755 -20.7196,19.4755"/>
<ellipse fill="none" stroke="black" cx="-20.7196" cy="19.4755" rx="32" ry="32"/>
<text text-anchor="middle" x="-20.7196" y="21.3755" font-family="monospace" font-size="8.00">4</text>
</g>
<!-- 11 -->
<g id="node12" class="node"><title>11</title>
<ellipse fill="deepskyblue" stroke="black" cx="41.5608" cy="-78.8405" rx="3.5" ry="3.5"/>
<text text-anchor="middle" x="41.5608" y="-76.9405" font-family="monospace" font-size="8.00">11</text>
</g>
<!-- 4&#45;&gt;11 -->
<g id="edge32" class="edge"><title>4&#45;&gt;11</title>
<path fill="none" stroke="black" d="M-3.5363,-7.65002C11.8739,-31.9766 33.0337,-65.3795 39.5619,-75.685"/>
</g>
<!-- 55 -->
<g id="node56" class="node"><title>55</title>
<ellipse fill="#98f5ff" stroke="black" cx="-116.507" cy="81.2499" rx="3.5" ry="3.5"/>
<text text-anchor="middle" x="-116.507" y="83.1499" font-family="monospace" font-size="8.00">55</text>
</g>
<!-- 4&#45;&gt;55 -->
<g id="edge33" class="edge"><title>4&#45;&gt;55</title>
<path fill="none" stroke="black" d="M-47.6566,36.8475C-71.34,52.1212 -103.54,72.8872 -113.468,79.2899"/>
</g>
<!-- 5 -->
<g id="node6" class="node"><title>5</title>
<ellipse fill="#ff3030" stroke="black" cx="158.958" cy="-99.8342" rx="18" ry="18"/>
<text text-anchor="middle" x="158.958" y="-97.9342" font-family="monospace" font-size="8.00">5</text>
</g>
<!-- 32 -->
<g id="node33" class="node"><title>32</title>
<ellipse fill="#ff3030" stroke="black" cx="118.651" cy="-128.415" rx="3.5" ry="3.5"/>
<text text-anchor="middle" x="118.651" y="-126.515" font-family="monospace" font-size="8.00">32</text>
</g>
<!-- 5&#45;&gt;32 -->
<g id="edge35" class="edge"><title>5&#45;&gt;32</title>
<path fill="none" stroke="black" d="M143.949,-110.477C135.713,-116.317 126.247,-123.029 121.574,-126.343"/>
</g>
<!-- 38 -->
<g id="node39" class="node"><title>38</title>
<ellipse fill="#ff3030" stroke="black" cx="240.975" cy="-98.5613" rx="3.5" ry="3.5"/>
<text text-anchor="middle" x="240.975" y="-96.6613" font-family="monospace" font-size="8.00">38</text>
</g>
<!-- 5&#45;&gt;38 -->
<g id="edge36" class="edge"><title>5&#45;&gt;38</title>
<path fill="none" stroke="black" d="M177.16,-99.5517C196.982,-99.244 227.226,-98.7747 237.455,-98.6159"/>
</g>
<!-- 39 -->
<g id="node40" class="node"><title>39</title>
<ellipse fill="#ff3030" stroke="black" cx="181.973" cy="-183.491" rx="3.5" ry="3.5"/>
<text text-anchor="middle" x="181.973" y="-181.591" font-family="monospace" font-size="8.00">39</text>
</g>
<!-- 5&#45;&gt;39 -->
<g id="edge37" class="edge"><title>5&#45;&gt;39</title>
<path fill="none" stroke="black" d="M163.839,-117.576C169.381,-137.72 178.033,-169.17 180.964,-179.822"/>
</g>
<!-- anon_5_37_0 -->
<g id="node72" class="node"><title>anon_5_37_0</title>
<ellipse fill="white" stroke="black" cx="230.301" cy="-136.15" rx="2.5" ry="2.5"/>
</g>
<!-- 5&#45;&gt;anon_5_37_0 -->
<g id="edge71" class="edge"><title>5&#45;&gt;anon_5_37_0</title>
<path fill="none" stroke="black" stroke-dasharray="5,2" d="M175.147,-108.075C192.907,-117.116 219.962,-130.888 227.983,-134.971"/>
</g>
<!-- 6 -->
<g id="node7" class="node"><title>6</title>
<path fill="#ff3030" stroke="black" stroke-width="0.5" d="M66.9737,-36.6486C66.9737,-36.6486 101.474,-36.6486 101.474,-36.6486 101.474,-38.2031 101.369,-39.7558 101.159,-41.2961 100.95,-42.8365 100.637,-44.3609 100.222,-45.859 100.222,-45.859 66.9737,-36.6486 66.9737,-36.6486"/>
<path fill="deepskyblue" stroke="black" stroke-width="0.5" d="M66.9737,-36.6486C66.9737,-36.6486 100.222,-45.859 100.222,-45.859 99.9104,-46.9823 99.5424,-48.0892 99.1192,-49.1753 98.6959,-50.2615 98.2179,-51.3254 97.6869,-52.3632 97.156,-53.4009 96.5728,-54.4111 95.9395,-55.3897 95.3063,-56.3684 94.6239,-57.3144 93.8949,-58.224 93.8949,-58.224 66.9737,-36.6486 66.9737,-36.6486"/>
<path fill="brown" stroke="black" stroke-width="0.5" d="M66.9737,-36.6486C66.9737,-36.6486 93.8949,-58.224 93.8949,-58.224 93.2647,-59.0104 92.6003,-59.7688 91.9037,-60.497 91.207,-61.2252 90.4788,-61.9226 89.7211,-62.5871 88.9635,-63.2515 88.177,-63.8825 87.3641,-64.4781 86.5512,-65.0737 85.7126,-65.6334 84.8506,-66.1556 83.9887,-66.6778 83.1043,-67.162 82.2,-67.6068 81.2957,-68.0516 80.3723,-68.4565 79.4326,-68.8204 78.4928,-69.1844 77.5375,-69.5069 76.5695,-69.7872 75.6015,-70.0675 74.6217,-70.3053 73.6329,-70.4998 72.6441,-70.6943 71.6472,-70.8454 70.6451,-70.9527 69.6431,-71.0599 68.6368,-71.1232 67.6292,-71.1424 66.6216,-71.1615 65.6137,-71.1365 64.6083,-71.0674 63.6029,-70.9983 62.601,-70.8852 61.6055,-70.7284 60.61,-70.5716 59.6219,-70.3712 58.6439,-70.1279 57.6659,-69.8846 56.6991,-69.5985 55.7462,-69.2706 54.7933,-68.9426 53.8552,-68.573 52.9346,-68.1629 52.0141,-67.7529 51.1119,-67.3026 50.2308,-66.8136 49.3497,-66.3245 48.4904,-65.797 47.6554,-65.2327 46.8204,-64.6684 46.0106,-64.0678 45.2282,-63.4326 44.4458,-62.7974 43.6917,-62.1282 42.9679,-61.427 42.2441,-60.7258 41.5513,-59.9932 40.8917,-59.2313 40.232,-58.4694 39.6061,-57.679 39.0156,-56.8623 38.4252,-56.0456 37.8708,-55.2035 37.354,-54.3383 36.8373,-53.473 36.3587,-52.5856 35.9197,-51.6785 35.4807,-50.7714 35.0816,-49.8455 34.7236,-48.9034 34.3656,-47.9614 34.0491,-47.0041 33.775,-46.0343 33.5008,-45.0646 33.2692,-44.0832 33.081,-43.0932 32.8927,-42.1032 32.748,-41.1054 32.6471,-40.1027 32.5462,-39.1 32.4893,-38.0933 32.4765,-37.0856 32.4637,-36.0779 32.4951,-35.0702 32.5706,-34.0652 32.646,-33.0603 32.7655,-32.0591 32.9286,-31.0646 33.0917,-30.0702 33.2983,-29.0833 33.5478,-28.1069 33.7973,-27.1305 34.0895,-26.1655 34.4235,-25.2147 34.7575,-24.2639 35.133,-23.3281 35.5489,-22.4102 35.9648,-21.4923 36.4208,-20.593 36.9154,-19.715 37.4101,-18.8369 37.9429,-17.981 38.5125,-17.1496 39.0821,-16.3182 39.6878,-15.5122 40.328,-14.7339 40.9681,-13.9555 41.6421,-13.2056 42.3479,-12.4863 43.0537,-11.7669 43.7906,-11.0789 44.5567,-10.4241 45.3227,-9.76923 46.1171,-9.14829 46.9375,-8.56302 47.7579,-7.97774 48.6035,-7.4287 49.472,-6.91746 50.3405,-6.40622 51.2309,-5.93328 52.1408,-5.5 53.0507,-5.06672 53.9791,-4.67351 54.9234,-4.32151 55.8677,-3.96952 56.827,-3.65906 57.7985,-3.39104 58.7699,-3.12303 59.7527,-2.89771 60.7439,-2.71573 61.7351,-2.53375 62.7338,-2.39529 63.7371,-2.30075 64.7405,-2.2062 65.7474,-2.15567 66.7552,-2.14929 67.763,-2.1429 68.7705,-2.18068 69.7749,-2.2625 70.7794,-2.34433 71.7798,-2.47013 72.7732,-2.63954 73.7666,-2.80894 74.7522,-3.0218 75.727,-3.27749 76.7018,-3.53318 77.6649,-3.83145 78.6136,-4.17146 79.5622,-4.51147 80.4956,-4.89289 81.4109,-5.31461 82.3262,-5.73633 83.2225,-6.19795 84.0974,-6.69814 84.9723,-7.19834 85.8248,-7.73663 86.6526,-8.31147 87.4803,-8.8863 88.2825,-9.49713 89.0568,-10.1422 89.831,-10.7873 90.5767,-11.4659 91.2915,-12.1763 92.0064,-12.8866 92.6898,-13.6279 93.3397,-14.3981 93.9897,-15.1683 94.6056,-15.9666 95.1856,-16.7907 95.7657,-17.6147 96.3094,-18.4639 96.8151,-19.3356 97.3208,-20.2072 97.7881,-21.1007 98.2156,-22.0133 98.6431,-22.9259 99.0305,-23.8568 99.3765,-24.8033 99.7225,-25.7498 100.027,-26.711 100.289,-27.6842 100.551,-28.6573 100.77,-29.6415 100.945,-30.6338 101.121,-31.6262 101.253,-32.6257 101.341,-33.6296 101.43,-34.6335 101.474,-35.6408 101.474,-36.6486 101.474,-36.6486 66.9737,-36.6486 66.9737,-36.6486"/>
<ellipse fill="none" stroke="black" cx="66.9737" cy="-36.6486" rx="34.5" ry="34.5"/>
<text text-anchor="middle" x="66.9737" y="-34.7486" font-family="monospace" font-size="8.00">6</text>
</g>
<!-- 6&#45;&gt;0 -->
<g id="edge1" class="edge"><title>6&#45;&gt;0</title>
<path fill="none" stroke="black" d="M46.3584,-8.73983C35.1448,6.44093 21.3936,25.0571 10.5607,39.7225"/>
<polygon fill="black" stroke="black" points="11.9656,40.7659 7.58721,43.7479 9.15038,38.6864 11.9656,40.7659"/>
<text text-anchor="middle" x="44.4595" y="12.8913" font-family="monospace" font-size="8.00">I1868T</text>
</g>
<!-- 6&#45;&gt;2 -->
<g id="edge6" class="edge"><title>6&#45;&gt;2</title>
<path fill="none" stroke="black" d="M93.0323,-59.9573C103.245,-69.0924 114.584,-79.2351 123.326,-87.0545"/>
<polygon fill="black" stroke="black" points="122.499,-88.6627 127.393,-90.6918 124.833,-86.054 122.499,-88.6627"/>
<text text-anchor="middle" x="92.1793" y="-76.1059" font-family="monospace" font-size="8.00">A1934V</text>
</g>
<!-- 6&#45;&gt;3 -->
<g id="edge9" class="edge"><title>6&#45;&gt;3</title>
<path fill="none" stroke="black" d="M40.9123,-59.4364C25.3079,-73.0807 5.41644,-90.4736 -10.8202,-104.671"/>
<polygon fill="black" stroke="black" points="-12.2525,-103.598 -14.8646,-108.207 -9.94862,-106.233 -12.2525,-103.598"/>
<text text-anchor="middle" x="-0.95396" y="-84.6536" font-family="monospace" font-size="8.00">N1570Y</text>
</g>
<!-- 6&#45;&gt;4 -->
<g id="edge31" class="edge"><title>6&#45;&gt;4</title>
<path fill="none" stroke="black" d="M37.7731,-17.9601C29.0383,-12.3697 19.4274,-6.21871 10.5644,-0.546361"/>
<polygon fill="black" stroke="black" points="11.4354,0.973886 6.28069,2.19524 9.54869,-1.97407 11.4354,0.973886"/>
<text text-anchor="middle" x="8.16877" y="-11.8532" font-family="monospace" font-size="8.00">P1874L</text>
</g>
<!-- 6&#45;&gt;5 -->
<g id="edge34" class="edge"><title>6&#45;&gt;5</title>
<path fill="none" stroke="black" d="M95.5739,-56.2945C109.978,-66.1891 127.052,-77.9171 139.848,-86.7068"/>
<polygon fill="black" stroke="black" points="138.901,-88.1795 144.013,-89.5681 140.883,-85.2946 138.901,-88.1795"/>
<text text-anchor="middle" x="133.711" y="-74.1007" font-family="monospace" font-size="8.00">P1874S</text>
</g>
<!-- 7 -->
<g id="node8" class="node"><title>7</title>
<ellipse fill="#ff3030" stroke="black" cx="23.6247" cy="21.9328" rx="9.5" ry="9.5"/>
<text text-anchor="middle" x="23.6247" y="23.8328" font-family="monospace" font-size="8.00">7</text>
</g>
<!-- 6&#45;&gt;7 -->
<g id="edge38" class="edge"><title>6&#45;&gt;7</title>
<path fill="none" stroke="black" d="M46.3149,-8.73044C41.4765,-2.19194 36.5706,4.43796 32.5642,9.85216"/>
<polygon fill="black" stroke="black" points="33.8125,11.1072 29.4316,14.0855 30.9991,9.02524 33.8125,11.1072"/>
<text text-anchor="middle" x="31.4395" y="6.96086" font-family="monospace" font-size="8.00">K1603T</text>
</g>
<!-- 8 -->
<g id="node9" class="node"><title>8</title>
<ellipse fill="#ff3030" stroke="black" cx="93.3006" cy="-114.616" rx="6" ry="6"/>
<text text-anchor="middle" x="93.3006" y="-112.716" font-family="monospace" font-size="8.00">8</text>
</g>
<!-- 6&#45;&gt;8 -->
<g id="edge39" class="edge"><title>6&#45;&gt;8</title>
<path fill="none" stroke="black" d="M78.1387,-69.7136C82.2703,-81.9494 86.6709,-94.9817 89.6608,-103.836"/>
<polygon fill="black" stroke="black" points="88.0675,-104.588 91.3251,-108.765 91.3835,-103.468 88.0675,-104.588"/>
<text text-anchor="middle" x="67.8997" y="-89.375" font-family="monospace" font-size="8.00">L1667M</text>
</g>
<!-- 13 -->
<g id="node14" class="node"><title>13</title>
<ellipse fill="#ff3030" stroke="black" cx="145.059" cy="9.19235" rx="8" ry="8"/>
<text text-anchor="middle" x="145.059" y="11.0923" font-family="monospace" font-size="8.00">13</text>
</g>
<!-- 6&#45;&gt;13 -->
<g id="edge40" class="edge"><title>6&#45;&gt;13</title>
<path fill="none" stroke="black" d="M96.9402,-19.0564C109.802,-11.5054 124.056,-3.13768 133.687,2.51643"/>
<polygon fill="black" stroke="black" points="134.592,1.01807 138.018,5.05863 132.82,4.0364 134.592,1.01807"/>
<text text-anchor="middle" x="131.314" y="-10.87" font-family="monospace" font-size="8.00">I1940T</text>
</g>
<!-- 14 -->
<g id="node15" class="node"><title>14</title>
<path fill="#ff3030" stroke="black" stroke-width="0.5" d="M101.041,85.6245C101.041,85.6245 107.041,85.6245 107.041,85.6245 107.041,85.3626 107.024,85.101 106.99,84.8414 106.956,84.5817 106.905,84.3246 106.837,84.0716 106.769,83.8186 106.685,83.5704 106.585,83.3284 106.485,83.0865 106.369,82.8513 106.238,82.6245 106.107,82.3977 105.961,82.1797 105.802,81.972 105.642,81.7642 105.469,81.5671 105.284,81.3819 105.099,81.1967 104.902,81.0238 104.694,80.8644 104.486,80.705 104.268,80.5593 104.041,80.4284 103.815,80.2974 103.58,80.1815 103.338,80.0813 103.096,79.981 102.847,79.8968 102.594,79.829 102.341,79.7612 102.084,79.71 101.825,79.6759 101.565,79.6417 101.303,79.6245 101.041,79.6245 100.78,79.6245 100.518,79.6417 100.258,79.6759 99.9987,79.71 99.7415,79.7612 99.4886,79.829 99.2356,79.8968 98.9873,79.981 98.7454,80.0813 98.5034,80.1815 98.2683,80.2974 98.0415,80.4284 97.8147,80.5593 97.5967,80.705 97.3889,80.8644 97.1811,81.0238 96.984,81.1967 96.7988,81.3819 96.6136,81.5671 96.4408,81.7642 96.2814,81.972 96.1219,82.1797 95.9763,82.3977 95.8453,82.6245 95.7144,82.8513 95.5984,83.0865 95.4982,83.3284 95.398,83.5704 95.3137,83.8186 95.2459,84.0716 95.1781,84.3246 95.127,84.5817 95.0928,84.8414 95.0586,85.101 95.0415,85.3626 95.0415,85.6245 95.0415,85.8864 95.0586,86.148 95.0928,86.4077 95.127,86.6673 95.1781,86.9245 95.2459,87.1774 95.3137,87.4304 95.398,87.6787 95.4982,87.9206 95.5984,88.1626 95.7144,88.3977 95.8453,88.6245 95.9763,88.8513 96.1219,89.0693 96.2814,89.2771 96.4408,89.4849 96.6136,89.682 96.7988,89.8672 96.984,90.0524 97.1811,90.2252 97.3889,90.3846 97.5967,90.5441 97.8147,90.6897 98.0415,90.8207 98.0415,90.8207 101.041,85.6245 101.041,85.6245"/>
<path fill="#98f5ff" stroke="black" stroke-width="0.5" d="M101.041,85.6245C101.041,85.6245 98.0415,90.8207 98.0415,90.8207 98.2683,90.9516 98.5034,91.0676 98.7454,91.1678 98.9873,91.268 99.2356,91.3523 99.4886,91.4201 99.7415,91.4879 99.9987,91.539 100.258,91.5732 100.518,91.6074 100.78,91.6245 101.041,91.6245 101.303,91.6245 101.565,91.6074 101.825,91.5732 102.084,91.539 102.341,91.4879 102.594,91.4201 102.847,91.3523 103.096,91.268 103.338,91.1678 103.58,91.0676 103.815,90.9516 104.041,90.8207 104.268,90.6897 104.486,90.5441 104.694,90.3846 104.902,90.2252 105.099,90.0524 105.284,89.8672 105.469,89.682 105.642,89.4849 105.802,89.2771 105.961,89.0693 106.107,88.8513 106.238,88.6245 106.369,88.3977 106.485,88.1626 106.585,87.9206 106.685,87.6787 106.769,87.4304 106.837,87.1774 106.905,86.9245 106.956,86.6673 106.99,86.4077 107.024,86.148 107.041,85.8864 107.041,85.6245 107.041,85.6245 101.041,85.6245 101.041,85.6245"/>
<ellipse fill="none" stroke="black" cx="101.041" cy="85.6245" rx="6" ry="6"/>
<text text-anchor="middle" x="101.041" y="87.5245" font-family="monospace" font-size="8.00">14</text>
</g>
<!-- 6&#45;&gt;14 -->
<g id="edge41" class="edge"><title>6&#45;&gt;14</title>
<path fill="none" stroke="black" d="M76.2829,-3.23693C83.5045,22.6822 93.0762,57.0362 97.9313,74.4618"/>
<polygon fill="black" stroke="black" points="99.7305,74.3995 99.3868,79.6857 96.359,75.3389 99.7305,74.3995"/>
<text text-anchor="middle" x="73.6071" y="42.0124" font-family="monospace" font-size="8.00">T791M</text>
</g>
<!-- 17 -->
<g id="node18" class="node"><title>17</title>
<ellipse fill="#ff3030" stroke="black" cx="52.3184" cy="22.7718" rx="6" ry="6"/>
<text text-anchor="middle" x="52.3184" y="24.6718" font-family="monospace" font-size="8.00">17</text>
</g>
<!-- 6&#45;&gt;17 -->
<g id="edge42" class="edge"><title>6&#45;&gt;17</title>
<path fill="none" stroke="black" d="M58.7038,-3.11801C57.3891,2.21273 56.1155,7.37661 55.0561,11.6718"/>
<polygon fill="black" stroke="black" points="56.7384,12.1594 53.8419,16.5948 53.3402,11.3212 56.7384,12.1594"/>
<text text-anchor="middle" x="72.88" y="10.6769" font-family="monospace" font-size="8.00">N1345I</text>
</g>
<!-- 19 -->
<g id="node20" class="node"><title>19</title>
<path fill="deepskyblue" stroke="black" stroke-width="0.5" d="M39.926,66.0311C39.926,66.0311 51.426,66.0311 51.426,66.0311 51.426,65.5794 51.3994,65.1281 51.3463,64.6795 51.2932,64.2309 51.2137,63.7858 51.1083,63.3465 51.0028,62.9073 50.8716,62.4746 50.7152,62.0508 50.5589,61.627 50.3777,61.2128 50.1726,60.8103 49.9675,60.4078 49.7389,60.0177 49.4879,59.6421 49.237,59.2665 48.9641,58.906 48.6707,58.5625 48.3773,58.219 48.064,57.8931 47.7322,57.5864 47.4005,57.2798 47.051,56.993 46.6856,56.7274 46.3201,56.4619 45.9393,56.2182 45.5452,55.9974 45.151,55.7767 44.7442,55.5794 44.3269,55.4065 43.9095,55.2337 43.4824,55.0855 43.0476,54.9629 42.6128,54.8403 42.1712,54.7434 41.725,54.6727 41.2788,54.6021 40.8289,54.5577 40.3775,54.54 39.9261,54.5223 39.4741,54.5312 39.0237,54.5666 38.5734,54.602 38.1255,54.664 37.6825,54.7521 37.2394,54.8402 36.802,54.9544 36.3723,55.094 35.9427,55.2336 35.5217,55.3984 35.1114,55.5875 34.7012,55.7766 34.3025,55.9898 33.9173,56.2258 33.5321,56.4618 33.1612,56.7203 32.8064,57 32.4517,57.2797 32.1137,57.58 31.7943,57.8994 31.4749,58.2188 31.1745,58.5568 30.8949,58.9116 30.6152,59.2663 30.3567,59.6372 30.1207,60.0224 29.8846,60.4076 29.6715,60.8063 29.4824,61.2166 29.2933,61.6268 29.1285,62.0478 28.9889,62.4774 28.8493,62.9071 28.7351,63.3446 28.647,63.7876 28.5589,64.2307 28.4969,64.6785 28.4615,65.1289 28.426,65.5792 28.4172,66.0312 28.4349,66.4826 28.4526,66.934 28.4969,67.384 28.5676,67.8301 28.6383,68.2763 28.7352,68.7179 28.8578,69.1527 28.9804,69.5875 29.1285,70.0147 29.3014,70.432 29.4743,70.8494 29.6716,71.2562 29.8923,71.6503 30.113,72.0444 30.3568,72.4252 30.6223,72.7907 30.6223,72.7907 39.926,66.0311 39.926,66.0311"/>
<path fill="#98f5ff" stroke="black" stroke-width="0.5" d="M39.926,66.0311C39.926,66.0311 30.6223,72.7907 30.6223,72.7907 30.9764,73.2781 31.3683,73.7369 31.7943,74.1629 32.2203,74.5889 32.6791,74.9807 33.1665,75.3348 33.6539,75.689 34.1683,76.0042 34.7051,76.2777 35.2419,76.5512 35.7994,76.7821 36.3723,76.9683 36.9453,77.1545 37.532,77.2953 38.127,77.3896 38.7221,77.4838 39.3236,77.5311 39.926,77.5311 40.5285,77.5311 41.13,77.4838 41.725,77.3896 42.3201,77.2953 42.9068,77.1545 43.4797,76.9683 44.0527,76.7821 44.6101,76.5512 45.1469,76.2777 45.6837,76.0042 46.1982,75.6889 46.6856,75.3348 47.1729,74.9807 47.6318,74.5889 48.0578,74.1629 48.4837,73.7369 48.8756,73.2781 49.2297,72.7907 49.5838,72.3033 49.8991,71.7888 50.1726,71.252 50.4461,70.7152 50.677,70.1578 50.8632,69.5848 51.0493,69.0119 51.1902,68.4252 51.2844,67.8301 51.3787,67.2351 51.426,66.6336 51.426,66.0311 51.426,66.0311 39.926,66.0311 39.926,66.0311"/>
<ellipse fill="none" stroke="black" cx="39.926" cy="66.0311" rx="11.5" ry="11.5"/>
<text text-anchor="middle" x="39.926" y="67.9311" font-family="monospace" font-size="8.00">19</text>
</g>
<!-- 6&#45;&gt;19 -->
<g id="edge43" class="edge"><title>6&#45;&gt;19</title>
<path fill="none" stroke="black" d="M58.1173,-3.02741C53.4519,14.6834 47.9419,35.6008 44.2183,49.7368"/>
<polygon fill="black" stroke="black" points="45.8981,50.2301 42.9321,54.6194 42.5135,49.3385 45.8981,50.2301"/>
<text text-anchor="middle" x="59.1678" y="29.7547" font-family="monospace" font-size="8.00">E1597G</text>
</g>
<!-- 26 -->
<g id="node27" class="node"><title>26</title>
<ellipse fill="deepskyblue" stroke="black" cx="102.209" cy="-34.5037" rx="5" ry="5"/>
<text text-anchor="middle" x="102.209" y="-32.6037" font-family="monospace" font-size="8.00">26</text>
</g>
<!-- 6&#45;&gt;26 -->
<g id="edge44" class="edge"><title>6&#45;&gt;26</title>
<path fill="none" stroke="black" d="M101.813,-34.5278C101.877,-34.5239 101.934,-34.5204 101.984,-34.5174"/>
<polygon fill="black" stroke="black" points="97.2244,-36.5642 102.108,-34.5099 97.0091,-33.0707 97.2244,-36.5642"/>
<text text-anchor="middle" x="117.898" y="-37.1226" font-family="monospace" font-size="8.00">I1584T</text>
</g>
<!-- 31 -->
<g id="node32" class="node"><title>31</title>
<path fill="deepskyblue" stroke="black" stroke-width="0.5" d="M154.606,41.2323C154.606,41.2323 167.106,41.2323 167.106,41.2323 167.106,40.7549 167.078,40.2779 167.024,39.8037 166.969,39.3295 166.888,38.8587 166.779,38.3938 166.671,37.9289 166.536,37.4706 166.375,37.0212 166.214,36.5717 166.028,36.1318 165.817,35.7037 165.605,35.2755 165.37,34.8598 165.111,34.4586 164.853,34.0574 164.571,33.6714 164.268,33.3024 163.965,32.9334 163.642,32.582 163.299,32.25 162.956,31.918 162.594,31.606 162.215,31.3154 161.836,31.0248 161.441,30.7561 161.032,30.5107 160.623,30.2653 160.199,30.0435 159.765,29.8465 159.33,29.6495 158.884,29.4775 158.429,29.3315 157.975,29.1855 157.513,29.0656 157.044,28.9725 156.576,28.8793 156.103,28.8131 155.627,28.7741 155.151,28.7351 154.674,28.7234 154.197,28.739 153.72,28.7546 153.244,28.7975 152.772,28.8676 152.299,28.9376 151.832,29.0347 151.37,29.1582 150.909,29.2818 150.456,29.4316 150.012,29.6071 149.568,29.7825 149.134,29.9832 148.713,30.2083 148.292,30.4333 147.884,30.6823 147.492,30.9539 147.099,31.2256 146.723,31.5195 146.364,31.8343 146.005,32.149 145.664,32.4841 145.344,32.8378 145.023,33.1915 144.723,33.5633 144.445,33.9513 144.167,34.3393 143.911,34.743 143.68,35.1602 143.448,35.5775 143.24,36.0077 143.057,36.4487 142.875,36.8898 142.717,37.3409 142.586,37.7999 142.455,38.2589 142.35,38.7251 142.273,39.1961 142.195,39.6671 142.144,40.1421 142.121,40.6189 142.097,41.0957 142.101,41.5735 142.132,42.0498 142.164,42.5262 142.222,43.0003 142.308,43.47 142.393,43.9396 142.505,44.404 142.644,44.8608 142.782,45.3177 142.947,45.7662 143.137,46.2041 143.327,46.6421 143.542,47.0689 143.78,47.4823 143.78,47.4823 154.606,41.2323 154.606,41.2323"/>
<path fill="#98f5ff" stroke="black" stroke-width="0.5" d="M154.606,41.2323C154.606,41.2323 143.78,47.4823 143.78,47.4823 144.121,48.073 144.51,48.6349 144.943,49.1622 145.376,49.6895 145.851,50.1805 146.364,50.6303 146.877,51.08 147.426,51.4871 148.005,51.8473 148.584,52.2075 149.192,52.5197 149.822,52.7808 150.452,53.0418 151.103,53.2508 151.767,53.4057 152.432,53.5606 153.107,53.6609 153.788,53.7055 154.469,53.7501 155.152,53.739 155.831,53.6721 156.51,53.6052 157.182,53.4829 157.841,53.3064 158.5,53.1298 159.143,52.8996 159.765,52.6181 160.386,52.3366 160.983,52.0046 161.55,51.6257 162.117,51.2467 162.653,50.8219 163.151,50.3556 163.648,49.8893 164.107,49.383 164.523,48.8418 164.938,48.3006 165.308,47.7263 165.63,47.1247 165.951,46.5231 166.223,45.8962 166.442,45.2503 166.662,44.6043 166.828,43.9415 166.939,43.2685 167.05,42.5954 167.106,41.9144 167.106,41.2323 167.106,41.2323 154.606,41.2323 154.606,41.2323"/>
<ellipse fill="none" stroke="black" cx="154.606" cy="41.2323" rx="12.5" ry="12.5"/>
<text text-anchor="middle" x="154.606" y="43.1323" font-family="monospace" font-size="8.00">31</text>
</g>
<!-- 6&#45;&gt;31 -->
<g id="edge48" class="edge"><title>6&#45;&gt;31</title>
<path fill="none" stroke="black" d="M92.7922,-13.703C108.715,0.44757 128.475,18.0089 141.303,29.4101"/>
<polygon fill="black" stroke="black" points="142.475,28.1105 145.05,32.7401 140.15,30.7267 142.475,28.1105"/>
<text text-anchor="middle" x="117.048" y="14.2536" font-family="monospace" font-size="8.00">V1853I</text>
</g>
<!-- 47 -->
<g id="node48" class="node"><title>47</title>
<ellipse fill="brown" stroke="black" cx="31.2092" cy="-22.2637" rx="3.5" ry="3.5"/>
<text text-anchor="middle" x="31.2092" y="-20.3637" font-family="monospace" font-size="8.00">47</text>
</g>
<!-- 6&#45;&gt;47 -->
<g id="edge49" class="edge"><title>6&#45;&gt;47</title>
<path fill="none" stroke="black" d="M34.7692,-23.6955C34.6319,-23.6403 34.498,-23.5865 34.3674,-23.5339"/>
</g>
<!-- 48 -->
<g id="node49" class="node"><title>48</title>
<ellipse fill="brown" stroke="black" cx="86.1743" cy="-91.982" rx="6" ry="6"/>
<text text-anchor="middle" x="86.1743" y="-90.082" font-family="monospace" font-size="8.00">48</text>
</g>
<!-- 6&#45;&gt;48 -->
<g id="edge50" class="edge"><title>6&#45;&gt;48</title>
<path fill="none" stroke="black" d="M78.3647,-69.4758C80.5611,-75.8056 82.6279,-81.7619 84.0829,-85.955"/>
</g>
<!-- 50 -->
<g id="node51" class="node"><title>50</title>
<ellipse fill="brown" stroke="black" cx="-20.0457" cy="-30.9866" rx="8" ry="8"/>
<text text-anchor="middle" x="-20.0457" y="-29.0866" font-family="monospace" font-size="8.00">50</text>
</g>
<!-- 6&#45;&gt;50 -->
<g id="edge53" class="edge"><title>6&#45;&gt;50</title>
<path fill="none" stroke="black" d="M32.3313,-34.3946C16.2166,-33.3461 -1.59295,-32.1873 -11.7401,-31.527"/>
</g>
<!-- 51 -->
<g id="node52" class="node"><title>51</title>
<ellipse fill="brown" stroke="black" cx="92.8002" cy="4.72952" rx="3.5" ry="3.5"/>
<text text-anchor="middle" x="92.8002" y="6.62952" font-family="monospace" font-size="8.00">51</text>
</g>
<!-- 6&#45;&gt;51 -->
<g id="edge54" class="edge"><title>6&#45;&gt;51</title>
<path fill="none" stroke="black" d="M85.4685,-7.01711C87.6677,-3.49362 89.5994,-0.398629 90.9272,1.72872"/>
</g>
<!-- 54 -->
<g id="node55" class="node"><title>54</title>
<ellipse fill="brown" stroke="black" cx="81.4462" cy="30.0363" rx="3.5" ry="3.5"/>
<text text-anchor="middle" x="81.4462" y="31.9363" font-family="monospace" font-size="8.00">54</text>
</g>
<!-- 6&#45;&gt;54 -->
<g id="edge55" class="edge"><title>6&#45;&gt;54</title>
<path fill="none" stroke="black" d="M74.2948,-2.91542C76.8748,8.97269 79.4405,20.7946 80.6796,26.504"/>
</g>
<!-- anon_6_27_0 -->
<g id="node65" class="node"><title>anon_6_27_0</title>
<ellipse fill="white" stroke="black" cx="164.464" cy="-23.8469" rx="2.5" ry="2.5"/>
</g>
<!-- 6&#45;&gt;anon_6_27_0 -->
<g id="edge45" class="edge"><title>6&#45;&gt;anon_6_27_0</title>
<path fill="none" stroke="black" d="M101.345,-32.1352C124.589,-29.083 152.622,-25.402 161.571,-24.2268"/>
</g>
<!-- anon_6_49_0 -->
<g id="node67" class="node"><title>anon_6_49_0</title>
<ellipse fill="white" stroke="black" cx="143.428" cy="-49.2499" rx="2.5" ry="2.5"/>
</g>
<!-- 6&#45;&gt;anon_6_49_0 -->
<g id="edge51" class="edge"><title>6&#45;&gt;anon_6_49_0</title>
<path fill="none" stroke="black" d="M101.176,-42.2858C117.397,-44.9595 134.597,-47.7943 140.914,-48.8356"/>
</g>
<!-- 57 -->
<g id="node58" class="node"><title>57</title>
<ellipse fill="black" stroke="black" cx="128.621" cy="-172.162" rx="6" ry="6"/>
<text text-anchor="middle" x="128.621" y="-170.262" font-family="monospace" font-size="8.00">57</text>
</g>
<!-- 8&#45;&gt;57 -->
<g id="edge56" class="edge"><title>8&#45;&gt;57</title>
<path fill="none" stroke="black" d="M96.5601,-119.926C103.323,-130.945 118.803,-156.167 125.471,-167.03"/>
</g>
<!-- 9 -->
<g id="node10" class="node"><title>9</title>
<ellipse fill="deepskyblue" stroke="black" cx="145.897" cy="208.349" rx="3.5" ry="3.5"/>
<text text-anchor="middle" x="145.897" y="210.249" font-family="monospace" font-size="8.00">9</text>
</g>
<!-- 15 -->
<g id="node16" class="node"><title>15</title>
<path fill="#98f5ff" stroke="black" stroke-width="0.5" d="M87.3558,164.001C87.3558,164.001 105.356,164.001 105.356,164.001 105.356,163.341 105.32,162.681 105.247,162.025 105.175,161.369 105.066,160.718 104.922,160.074 104.778,159.43 104.599,158.794 104.385,158.17 104.172,157.546 103.924,156.934 103.643,156.337 103.362,155.739 103.048,155.158 102.703,154.596 102.359,154.033 101.983,153.49 101.579,152.968 101.174,152.447 100.741,151.948 100.282,151.474 99.8228,151 99.3379,150.552 98.8294,150.131 98.321,149.711 97.7898,149.318 97.2382,148.956 96.6867,148.594 96.1156,148.262 95.5276,147.962 94.9397,147.663 94.3357,147.396 93.7184,147.163 93.1011,146.929 92.4714,146.73 91.8322,146.566 91.1931,146.402 90.5453,146.273 89.892,146.18 89.2387,146.087 88.5808,146.03 87.9212,146.009 87.2616,145.989 86.6014,146.004 85.9435,146.056 85.2857,146.108 84.6312,146.196 83.9829,146.319 83.9829,146.319 87.3558,164.001 87.3558,164.001"/>
<path fill="deepskyblue" stroke="black" stroke-width="0.5" d="M87.3558,164.001C87.3558,164.001 83.9829,146.319 83.9829,146.319 83.1494,146.478 82.3281,146.696 81.5253,146.971 80.7225,147.246 79.9401,147.577 79.184,147.962 78.4279,148.348 77.7,148.786 77.0057,149.274 76.3114,149.762 75.6525,150.298 75.034,150.879 74.4154,151.46 73.8386,152.084 73.3081,152.746 72.7775,153.408 72.2944,154.107 71.8624,154.838 71.4305,155.568 71.0507,156.328 70.726,157.112 70.4012,157.896 70.1323,158.702 69.9213,159.524 69.7103,160.346 69.5576,161.182 69.4645,162.025 69.3714,162.869 69.338,163.718 69.3647,164.566 69.3913,165.414 69.4779,166.259 69.6238,167.095 69.7697,167.931 69.9746,168.756 70.2368,169.563 70.499,170.37 70.818,171.157 71.1913,171.919 71.5646,172.682 71.9914,173.416 72.4684,174.118 72.9453,174.82 73.4713,175.487 74.0424,176.115 74.6136,176.742 75.2283,177.329 75.8822,177.87 76.536,178.411 77.2273,178.905 77.9508,179.348 78.6744,179.791 79.4284,180.183 80.2071,180.52 80.9859,180.857 81.7876,181.139 82.6061,181.363 83.4246,181.587 84.2579,181.752 85.0998,181.859 85.9417,181.965 86.7901,182.012 87.6385,181.998 88.487,181.985 89.3335,181.912 90.1716,181.779 91.0098,181.646 91.8375,181.454 92.6485,181.205 93.4596,180.955 94.252,180.649 95.0198,180.287 95.7877,179.926 96.529,179.511 97.2382,179.045 97.9475,178.579 98.6229,178.064 99.2594,177.503 99.8959,176.941 100.492,176.336 101.043,175.691 101.594,175.045 102.099,174.362 102.554,173.645 103.008,172.929 103.412,172.181 103.761,171.408 104.11,170.634 104.404,169.837 104.641,169.022 104.878,168.208 105.057,167.377 105.176,166.537 105.296,165.697 105.356,164.849 105.356,164.001 105.356,164.001 87.3558,164.001 87.3558,164.001"/>
<ellipse fill="none" stroke="black" cx="87.3558" cy="164.001" rx="18" ry="18"/>
<text text-anchor="middle" x="87.3558" y="165.901" font-family="monospace" font-size="8.00">15</text>
</g>
<!-- 9&#45;&gt;15 -->
<g id="edge57" class="edge"><title>9&#45;&gt;15</title>
<path fill="none" stroke="black" d="M143.073,206.21C135.765,200.673 115.827,185.569 101.902,175.02"/>
</g>
<!-- 12 -->
<g id="node13" class="node"><title>12</title>
<ellipse fill="deepskyblue" stroke="black" cx="107.443" cy="219.713" rx="3.5" ry="3.5"/>
<text text-anchor="middle" x="107.443" y="221.613" font-family="monospace" font-size="8.00">12</text>
</g>
<!-- 12&#45;&gt;15 -->
<g id="edge58" class="edge"><title>12&#45;&gt;15</title>
<path fill="none" stroke="black" d="M106.247,216.395C103.797,209.602 98.0621,193.695 93.5491,181.178"/>
</g>
<!-- 28 -->
<g id="node29" class="node"><title>28</title>
<ellipse fill="#ff3030" stroke="black" cx="208.276" cy="21.5626" rx="3.5" ry="3.5"/>
<text text-anchor="middle" x="208.276" y="23.4626" font-family="monospace" font-size="8.00">28</text>
</g>
<!-- 13&#45;&gt;28 -->
<g id="edge59" class="edge"><title>13&#45;&gt;28</title>
<path fill="none" stroke="black" d="M153.065,10.759C166.887,13.4636 194.696,18.9053 204.639,20.8509"/>
</g>
<!-- 14&#45;&gt;15 -->
<g id="edge60" class="edge"><title>14&#45;&gt;15</title>
<path fill="none" stroke="black" d="M99.9676,91.7746C98.1402,102.24 94.3368,124.021 91.3822,140.942"/>
<polygon fill="black" stroke="black" points="93.0796,141.395 90.4956,146.02 89.6318,140.793 93.0796,141.395"/>
<text text-anchor="middle" x="79.6749" y="113.758" font-family="monospace" font-size="8.00">A1746S</text>
</g>
<!-- anon_14_20_0 -->
<g id="node68" class="node"><title>anon_14_20_0</title>
<ellipse fill="white" stroke="black" cx="146.935" cy="111.305" rx="2.5" ry="2.5"/>
</g>
<!-- 14&#45;&gt;anon_14_20_0 -->
<g id="edge61" class="edge"><title>14&#45;&gt;anon_14_20_0</title>
<path fill="none" stroke="black" d="M106.306,88.5704C116.289,94.1566 137.601,106.082 144.632,110.016"/>
</g>
<!-- anon_15_23_0 -->
<g id="node70" class="node"><title>anon_15_23_0</title>
<ellipse fill="white" stroke="black" cx="49.9898" cy="225.002" rx="2.5" ry="2.5"/>
</g>
<!-- 15&#45;&gt;anon_15_23_0 -->
<g id="edge64" class="edge"><title>15&#45;&gt;anon_15_23_0</title>
<path fill="none" stroke="black" d="M77.9268,179.394C68.76,194.359 55.6168,215.816 51.3696,222.75"/>
</g>
<!-- 33 -->
<g id="node34" class="node"><title>33</title>
<ellipse fill="deepskyblue" stroke="black" cx="14.5449" cy="122.013" rx="3.5" ry="3.5"/>
<text text-anchor="middle" x="14.5449" y="123.913" font-family="monospace" font-size="8.00">33</text>
</g>
<!-- 19&#45;&gt;33 -->
<g id="edge67" class="edge"><title>19&#45;&gt;33</title>
<path fill="none" stroke="black" d="M35.152,76.5608C29.2932,89.4833 19.6862,110.673 16.0251,118.748"/>
</g>
<!-- 20 -->
<g id="node21" class="node"><title>20</title>
<ellipse fill="deepskyblue" stroke="black" cx="234.771" cy="144.318" rx="3.5" ry="3.5"/>
<text text-anchor="middle" x="234.771" y="146.218" font-family="monospace" font-size="8.00">20</text>
</g>
<!-- anon_20_31_0 -->
<g id="node73" class="node"><title>anon_20_31_0</title>
<ellipse fill="white" stroke="black" cx="247.529" cy="98.6474" rx="2.5" ry="2.5"/>
</g>
<!-- 20&#45;&gt;anon_20_31_0 -->
<g id="edge74" class="edge"><title>20&#45;&gt;anon_20_31_0</title>
<path fill="none" stroke="black" stroke-dasharray="5,2" d="M235.773,140.734C238.263,131.818 244.691,108.807 246.827,101.16"/>
</g>
<!-- 23 -->
<g id="node24" class="node"><title>23</title>
<ellipse fill="deepskyblue" stroke="black" cx="35.8916" cy="313.053" rx="3.5" ry="3.5"/>
<text text-anchor="middle" x="35.8916" y="314.953" font-family="monospace" font-size="8.00">23</text>
</g>
<!-- 27 -->
<g id="node28" class="node"><title>27</title>
<ellipse fill="#ff3030" stroke="black" cx="267.358" cy="-28.9172" rx="5" ry="5"/>
<text text-anchor="middle" x="267.358" y="-27.0172" font-family="monospace" font-size="8.00">27</text>
</g>
<!-- anon_20_31_1 -->
<g id="node74" class="node"><title>anon_20_31_1</title>
<ellipse fill="white" stroke="black" cx="218.637" cy="68.0262" rx="2.5" ry="2.5"/>
</g>
<!-- 31&#45;&gt;anon_20_31_1 -->
<g id="edge76" class="edge"><title>31&#45;&gt;anon_20_31_1</title>
<path fill="none" stroke="black" stroke-dasharray="5,2" d="M166.35,46.1467C179.386,51.6016 200.039,60.2437 211.083,64.8651"/>
<polygon fill="black" stroke="black" points="211.954,63.3326 215.891,66.8771 210.603,66.5613 211.954,63.3326"/>
<text text-anchor="middle" x="172.716" y="61.9059" font-family="monospace" font-size="8.00">L1366F</text>
</g>
<!-- 35 -->
<g id="node36" class="node"><title>35</title>
<ellipse fill="#ff3030" stroke="black" cx="-6.18521" cy="-288.283" rx="3.5" ry="3.5"/>
<text text-anchor="middle" x="-6.18521" y="-286.383" font-family="monospace" font-size="8.00">35</text>
</g>
<!-- 37 -->
<g id="node38" class="node"><title>37</title>
<ellipse fill="#ff3030" stroke="black" cx="240.473" cy="-177.022" rx="3.5" ry="3.5"/>
<text text-anchor="middle" x="240.473" y="-175.122" font-family="monospace" font-size="8.00">37</text>
</g>
<!-- 40 -->
<g id="node41" class="node"><title>40</title>
<ellipse fill="deepskyblue" stroke="black" cx="-200.689" cy="-92.8847" rx="3.5" ry="3.5"/>
<text text-anchor="middle" x="-200.689" y="-90.9847" font-family="monospace" font-size="8.00">40</text>
</g>
<!-- 42 -->
<g id="node43" class="node"><title>42</title>
<ellipse fill="#1874cd" stroke="black" cx="-193.537" cy="-187.652" rx="3.5" ry="3.5"/>
<text text-anchor="middle" x="-193.537" y="-185.752" font-family="monospace" font-size="8.00">42</text>
</g>
<!-- 42&#45;&gt;46 -->
<g id="edge68" class="edge"><title>42&#45;&gt;46</title>
<path fill="none" stroke="black" d="M-190.231,-186.413C-181.832,-183.264 -159.728,-174.977 -151.095,-171.74"/>
</g>
<!-- 45 -->
<g id="node46" class="node"><title>45</title>
<ellipse fill="#1874cd" stroke="black" cx="-99.2828" cy="-275.723" rx="3.5" ry="3.5"/>
<text text-anchor="middle" x="-99.2828" y="-273.823" font-family="monospace" font-size="8.00">45</text>
</g>
<!-- 48&#45;&gt;11 -->
<g id="edge73" class="edge"><title>48&#45;&gt;11</title>
<path fill="none" stroke="black" stroke-dasharray="5,2" d="M80.3418,-90.264C72.6656,-88.0028 59.1087,-84.0095 50.2297,-81.394"/>
<polygon fill="black" stroke="black" points="50.2507,-79.5759 44.9599,-79.8417 49.2617,-82.9333 50.2507,-79.5759"/>
<text text-anchor="middle" x="57.2858" y="-79.429" font-family="monospace" font-size="8.00">P1874L</text>
</g>
<!-- 48&#45;&gt;32 -->
<g id="edge77" class="edge"><title>48&#45;&gt;32</title>
<path fill="none" stroke="black" stroke-dasharray="5,2" d="M90.4201,-96.745C96.1155,-103.134 106.258,-114.513 112.71,-121.75"/>
<polygon fill="black" stroke="black" points="111.543,-123.072 116.177,-125.64 114.156,-120.743 111.543,-123.072"/>
<text text-anchor="middle" x="85.5649" y="-102.848" font-family="monospace" font-size="8.00">P1874S</text>
</g>
<!-- 49 -->
<g id="node50" class="node"><title>49</title>
<ellipse fill="brown" stroke="black" cx="186.533" cy="-58.3474" rx="3.5" ry="3.5"/>
<text text-anchor="middle" x="186.533" y="-56.4474" font-family="monospace" font-size="8.00">49</text>
</g>
<!-- 50&#45;&gt;41 -->
<g id="edge78" class="edge"><title>50&#45;&gt;41</title>
<path fill="none" stroke="black" stroke-dasharray="5,2" d="M-22.894,-38.8879C-25.8084,-46.9724 -30.3225,-59.4945 -33.3183,-67.8047"/>
<polygon fill="black" stroke="black" points="-35.0619,-67.4815 -35.1113,-72.7787 -31.7693,-68.6685 -35.0619,-67.4815"/>
<text text-anchor="middle" x="-44.1061" y="-55.9463" font-family="monospace" font-size="8.00">N1570Y</text>
</g>
<!-- 52 -->
<g id="node53" class="node"><title>52</title>
<ellipse fill="brown" stroke="black" cx="-60.0664" cy="16.5903" rx="3.5" ry="3.5"/>
<text text-anchor="middle" x="-60.0664" y="18.4903" font-family="monospace" font-size="8.00">52</text>
</g>
<!-- 50&#45;&gt;52 -->
<g id="edge69" class="edge"><title>50&#45;&gt;52</title>
<path fill="none" stroke="black" d="M-25.2777,-24.7668C-34.0918,-14.2885 -51.5489,6.46469 -57.7855,13.8788"/>
</g>
<!-- 53 -->
<g id="node54" class="node"><title>53</title>
<ellipse fill="brown" stroke="black" cx="-73.2931" cy="-6.58602" rx="3.5" ry="3.5"/>
<text text-anchor="middle" x="-73.2931" y="-4.68602" font-family="monospace" font-size="8.00">53</text>
</g>
<!-- 50&#45;&gt;53 -->
<g id="edge70" class="edge"><title>50&#45;&gt;53</title>
<path fill="none" stroke="black" d="M-27.4495,-27.5938C-39.2229,-22.1987 -61.7332,-11.8833 -70.0772,-8.05971"/>
</g>
<!-- anon_2_37_0&#45;&gt;37 -->
<g id="edge8" class="edge"><title>anon_2_37_0&#45;&gt;37</title>
<path fill="none" stroke="black" d="M203.569,-160.303C209.308,-162.903 223.291,-169.238 232.302,-173.32"/>
<polygon fill="black" stroke="black" points="231.657,-174.949 236.933,-175.419 233.101,-171.761 231.657,-174.949"/>
<text text-anchor="middle" x="201.936" y="-169.412" font-family="monospace" font-size="8.00">P1874S</text>
</g>
<!-- anon_3_35_0&#45;&gt;35 -->
<g id="edge19" class="edge"><title>anon_3_35_0&#45;&gt;35</title>
<path fill="none" stroke="black" d="M-12.5447,-248.091C-11.396,-255.351 -8.10056,-276.178 -6.76139,-284.641"/>
</g>
<!-- anon_3_40_0&#45;&gt;40 -->
<g id="edge22" class="edge"><title>anon_3_40_0&#45;&gt;40</title>
<path fill="none" stroke="black" d="M-160.587,-99.8571C-166.642,-98.8043 -182.157,-96.1068 -192.018,-94.3924"/>
<polygon fill="black" stroke="black" points="-191.83,-92.6488 -197.056,-93.5164 -192.43,-96.0971 -191.83,-92.6488"/>
<text text-anchor="middle" x="-189.802" y="-99.7248" font-family="monospace" font-size="8.00">P940H</text>
</g>
<!-- anon_3_45_0&#45;&gt;45 -->
<g id="edge27" class="edge"><title>anon_3_45_0&#45;&gt;45</title>
<path fill="none" stroke="black" d="M-83.9096,-238.468C-86.7692,-245.398 -94.5438,-264.238 -97.8083,-272.149"/>
</g>
<!-- anon_6_27_1 -->
<g id="node66" class="node"><title>anon_6_27_1</title>
<ellipse fill="white" stroke="black" cx="221.981" cy="-27.1747" rx="2.5" ry="2.5"/>
</g>
<!-- anon_6_27_0&#45;&gt;anon_6_27_1 -->
<g id="edge46" class="edge"><title>anon_6_27_0&#45;&gt;anon_6_27_1</title>
<path fill="none" stroke="black" d="M167.238,-24.0074C177.022,-24.5735 209.84,-26.4722 219.367,-27.0235"/>
</g>
<!-- anon_6_27_1&#45;&gt;27 -->
<g id="edge47" class="edge"><title>anon_6_27_1&#45;&gt;27</title>
<path fill="none" stroke="black" d="M224.684,-27.2785C230.865,-27.5159 246.312,-28.109 256.823,-28.5126"/>
<polygon fill="black" stroke="black" points="257,-30.2706 262.064,-28.7139 257.134,-26.7732 257,-30.2706"/>
<text text-anchor="middle" x="251.753" y="-30.4955" font-family="monospace" font-size="8.00">G54C</text>
</g>
<!-- anon_6_49_0&#45;&gt;49 -->
<g id="edge52" class="edge"><title>anon_6_49_0&#45;&gt;49</title>
<path fill="none" stroke="black" d="M145.996,-49.7918C153.318,-51.3372 174.324,-55.7706 182.86,-57.5722"/>
</g>
<!-- anon_14_20_1 -->
<g id="node69" class="node"><title>anon_14_20_1</title>
<ellipse fill="white" stroke="black" cx="192.091" cy="136.601" rx="2.5" ry="2.5"/>
</g>
<!-- anon_14_20_0&#45;&gt;anon_14_20_1 -->
<g id="edge62" class="edge"><title>anon_14_20_0&#45;&gt;anon_14_20_1</title>
<path fill="none" stroke="black" d="M149.363,112.665C156.102,116.441 175.216,127.148 185.442,132.877"/>
<polygon fill="black" stroke="black" points="186.361,131.385 189.867,135.355 184.65,134.439 186.361,131.385"/>
<text text-anchor="middle" x="151.403" y="120.171" font-family="monospace" font-size="8.00">L1366F</text>
</g>
<!-- anon_14_20_1&#45;&gt;20 -->
<g id="edge63" class="edge"><title>anon_14_20_1&#45;&gt;20</title>
<path fill="none" stroke="black" d="M194.633,137.061C200.694,138.157 216.223,140.964 226.092,142.749"/>
<polygon fill="black" stroke="black" points="226.526,141.048 231.135,143.66 225.903,144.493 226.526,141.048"/>
<text text-anchor="middle" x="194.363" y="146.305" font-family="monospace" font-size="8.00">V1853I</text>
</g>
<!-- anon_15_23_1 -->
<g id="node71" class="node"><title>anon_15_23_1</title>
<ellipse fill="white" stroke="black" cx="41.0718" cy="270.763" rx="2.5" ry="2.5"/>
</g>
<!-- anon_15_23_0&#45;&gt;anon_15_23_1 -->
<g id="edge65" class="edge"><title>anon_15_23_0&#45;&gt;anon_15_23_1</title>
<path fill="none" stroke="black" d="M49.5103,227.462C48.216,234.104 44.6106,252.604 42.5556,263.149"/>
<polygon fill="black" stroke="black" points="44.2722,263.49 41.598,268.062 40.8368,262.82 44.2722,263.49"/>
<text text-anchor="middle" x="32.533" y="242.706" font-family="monospace" font-size="8.00">Q545L</text>
</g>
<!-- anon_15_23_1&#45;&gt;23 -->
<g id="edge66" class="edge"><title>anon_15_23_1&#45;&gt;23</title>
<path fill="none" stroke="black" d="M40.7632,273.281C39.892,280.394 37.4086,300.668 36.3638,309.197"/>
</g>
<!-- anon_5_37_0&#45;&gt;37 -->
<g id="edge72" class="edge"><title>anon_5_37_0&#45;&gt;37</title>
<path fill="none" stroke="black" stroke-dasharray="5,2" d="M230.968,-138.832C232.432,-144.715 235.98,-158.971 238.303,-168.304"/>
<polygon fill="black" stroke="black" points="236.656,-168.93 239.561,-173.359 240.052,-168.085 236.656,-168.93"/>
<text text-anchor="middle" x="218.636" y="-147.168" font-family="monospace" font-size="8.00">A1934V</text>
</g>
<!-- anon_20_31_1&#45;&gt;anon_20_31_0 -->
<g id="edge75" class="edge"><title>anon_20_31_1&#45;&gt;anon_20_31_0</title>
<path fill="none" stroke="black" stroke-dasharray="5,2" d="M220.533,70.0354C224.858,74.6191 235.584,85.988 242.14,92.9361"/>
<polygon fill="black" stroke="black" points="243.43,91.753 245.588,96.5908 240.884,94.155 243.43,91.753"/>
<text text-anchor="middle" x="217.836" y="78.8857" font-family="monospace" font-size="8.00">T791M</text>
</g>
</g>
</svg>
