<?xml version="1.0" encoding="UTF-8" standalone="no"?>
<!DOCTYPE svg PUBLIC "-//W3C//DTD SVG 1.1//EN"
 "http://www.w3.org/Graphics/SVG/1.1/DTD/svg11.dtd">
<!-- Generated by graphviz version 2.38.0 (20140413.2041)
 -->
<!-- Title: %3 Pages: 1 -->
<svg width="503pt" height="548pt"
 viewBox="0.00 0.00 503.24 547.89" xmlns="http://www.w3.org/2000/svg" xmlns:xlink="http://www.w3.org/1999/xlink">
<g id="graph0" class="graph" transform="scale(1 1) rotate(0) translate(240.025 326.278)">
<title>%3</title>
<polygon fill="white" stroke="none" points="-240.025,221.608 -240.025,-326.278 263.215,-326.278 263.215,221.608 -240.025,221.608"/>
<!-- 0 -->
<g id="node1" class="node"><title>0</title>
<path fill="#98f5ff" stroke="black" stroke-width="0.5" d="M153.17,-92.266C153.17,-92.266 178.67,-92.266 178.67,-92.266 178.67,-93.0005 178.638,-93.7346 178.575,-94.4663 178.511,-95.198 178.416,-95.9267 178.29,-96.6502 178.164,-97.3737 178.006,-98.0914 177.818,-98.8014 177.63,-99.5113 177.411,-100.213 177.162,-100.904 176.914,-101.595 176.635,-102.275 176.328,-102.942 176.02,-103.609 175.684,-104.262 175.32,-104.9 174.956,-105.538 174.565,-106.16 174.147,-106.764 173.73,-107.369 173.286,-107.954 172.818,-108.52 172.35,-109.086 171.857,-109.632 171.342,-110.155 170.827,-110.678 170.289,-111.179 169.731,-111.656 169.172,-112.133 168.594,-112.586 167.996,-113.013 167.398,-113.44 166.783,-113.841 166.15,-114.215 165.518,-114.589 164.87,-114.935 164.208,-115.253 163.546,-115.571 162.871,-115.86 162.184,-116.12 161.496,-116.379 160.799,-116.609 160.092,-116.809 159.385,-117.008 158.67,-117.177 157.948,-117.314 157.948,-117.314 153.17,-92.266 153.17,-92.266"/>
<path fill="deepskyblue" stroke="black" stroke-width="0.5" d="M153.17,-92.266C153.17,-92.266 157.948,-117.314 157.948,-117.314 156.669,-117.558 155.373,-117.704 154.071,-117.75 152.769,-117.796 151.466,-117.742 150.173,-117.589 148.879,-117.436 147.6,-117.184 146.345,-116.836 145.09,-116.487 143.863,-116.043 142.676,-115.507 141.489,-114.971 140.345,-114.345 139.254,-113.634 138.162,-112.923 137.127,-112.13 136.157,-111.261 135.187,-110.392 134.284,-109.45 133.458,-108.443 132.632,-107.436 131.884,-106.368 131.221,-105.247 130.558,-104.125 129.982,-102.955 129.498,-101.746 129.013,-100.537 128.623,-99.2927 128.328,-98.0239 128.034,-96.7551 127.838,-95.4657 127.741,-94.1669 127.644,-92.868 127.646,-91.5637 127.749,-90.2653 127.851,-88.9669 128.052,-87.6782 128.351,-86.4106 128.65,-85.1429 129.046,-83.9001 129.535,-82.6929 130.024,-81.4857 130.605,-80.3178 131.272,-79.1993 131.94,-78.0809 132.692,-77.0152 133.522,-76.0117 134.352,-75.0081 135.258,-74.0697 136.231,-73.2045 137.205,-72.3394 138.243,-71.5501 139.338,-70.8436 140.432,-70.1371 141.579,-69.5155 142.768,-68.9842 143.957,-68.4529 145.185,-68.0135 146.441,-67.6698 147.697,-67.3261 148.978,-67.0792 150.272,-66.9312 151.566,-66.7832 152.87,-66.7345 154.171,-66.7857 155.472,-66.8368 156.768,-66.9876 158.046,-67.2366 159.325,-67.4857 160.582,-67.8324 161.808,-68.2735 163.033,-68.7147 164.223,-69.2491 165.367,-69.8721 166.511,-70.4951 167.605,-71.2047 168.64,-71.9949 169.676,-72.7851 170.649,-73.6534 171.552,-74.5923 172.454,-75.5311 173.284,-76.5378 174.033,-77.6034 174.782,-78.6689 175.448,-79.7903 176.025,-80.9577 176.603,-82.1251 177.09,-83.335 177.483,-84.5768 177.876,-85.8186 178.173,-87.0887 178.371,-88.3759 178.57,-89.663 178.67,-90.9636 178.67,-92.266 178.67,-92.266 153.17,-92.266 153.17,-92.266"/>
<ellipse fill="none" stroke="black" cx="153.17" cy="-92.266" rx="25.5" ry="25.5"/>
<text text-anchor="middle" x="153.17" y="-89.766" font-family="monospace" font-size="10.00">0</text>
</g>
<!-- 6 -->
<g id="node7" class="node"><title>6</title>
<path fill="brown" stroke="black" stroke-width="0.5" d="M60.8647,-3.72361C60.8647,-3.72361 95.3647,-3.72361 95.3647,-3.72361 95.3647,-4.73139 95.3206,-5.73867 95.2324,-6.74258 95.1442,-7.74649 95.0121,-8.74605 94.8364,-9.73839 94.6607,-10.7307 94.4416,-11.7149 94.1797,-12.688 93.9179,-13.6612 93.6135,-14.6224 93.2675,-15.5689 92.9215,-16.5154 92.5342,-17.4463 92.1067,-18.3589 91.6791,-19.2715 91.2119,-20.165 90.7061,-21.0367 90.2004,-21.9083 89.6567,-22.7575 89.0767,-23.5816 88.4966,-24.4056 87.8807,-25.2039 87.2307,-25.9741 86.5808,-26.7443 85.8974,-27.4856 85.1825,-28.1959 84.4677,-28.9063 83.722,-29.585 82.9478,-30.23 82.1735,-30.8751 81.3713,-31.4859 80.5436,-32.0607 79.7158,-32.6356 78.8633,-33.1739 77.9884,-33.6741 77.1135,-34.1743 76.2172,-34.6359 75.3019,-35.0576 74.3866,-35.4793 73.4533,-35.8607 72.5046,-36.2007 71.5559,-36.5408 70.5928,-36.839 69.618,-37.0947 68.6432,-37.3504 67.6576,-37.5633 66.6642,-37.7327 65.6708,-37.9021 64.6704,-38.0279 63.666,-38.1097 62.6615,-38.1915 61.654,-38.2293 60.6462,-38.2229 59.6385,-38.2165 58.6315,-38.166 57.6282,-38.0715 56.6248,-37.9769 55.6261,-37.8385 54.6349,-37.6565 53.6437,-37.4745 52.661,-37.2492 51.6895,-36.9812 50.718,-36.7131 49.7587,-36.4027 48.8144,-36.0507 47.8701,-35.6987 46.9417,-35.3055 46.0318,-34.8722 45.122,-34.4389 44.2315,-33.966 43.363,-33.4547 42.4946,-32.9435 41.6489,-32.3945 40.8285,-31.8092 40.0081,-31.2239 39.2137,-30.603 38.4477,-29.9482 37.6817,-29.2933 36.9447,-28.6053 36.2389,-27.8859 35.5331,-27.1666 34.8591,-26.4167 34.219,-25.6383 33.5788,-24.86 32.9731,-24.054 32.4035,-23.2226 31.834,-22.3912 31.3011,-21.5353 30.8064,-20.6573 30.3118,-19.7792 29.8558,-18.88 29.4399,-17.962 29.024,-17.0441 28.6485,-16.1083 28.3145,-15.1575 27.9805,-14.2067 27.6884,-13.2417 27.4389,-12.2653 27.1893,-11.2889 26.9827,-10.3021 26.8196,-9.30757 26.6565,-8.31309 26.5371,-7.31194 26.4616,-6.30699 26.3861,-5.30205 26.3547,-4.29428 26.3675,-3.28659 26.3803,-2.2789 26.4372,-1.27225 26.5381,-0.269544 26.639,0.733165 26.7838,1.73097 26.972,2.721 27.1603,3.71104 27.3918,4.69235 27.666,5.66211 27.9401,6.63187 28.2567,7.58915 28.6146,8.53121 28.9726,9.47326 29.3717,10.3992 29.8107,11.3063 30.2497,12.2134 30.7283,13.1008 31.245,13.966 31.7618,14.8313 32.3162,15.6734 32.9066,16.4901 33.4971,17.3068 34.123,18.0972 34.7827,18.8591 35.4424,19.6209 36.1351,20.3536 36.8589,21.0548 37.5827,21.756 38.3368,22.4252 39.1192,23.0604 39.9016,23.6956 40.7115,24.2962 41.5464,24.8605 42.3814,25.4248 43.2407,25.9523 44.1218,26.4413 45.003,26.9304 45.9051,27.3806 46.8257,27.7907 47.7462,28.2008 48.6843,28.5704 49.6372,28.8984 50.5901,29.2263 51.557,29.5124 52.5349,29.7557 53.5129,29.999 54.501,30.1994 55.4965,30.3562 56.492,30.513 57.4939,30.6261 58.4993,30.6952 59.5047,30.7643 60.5127,30.7893 61.5202,30.7702 62.5278,30.751 63.5341,30.6877 64.5362,30.5805 65.5382,30.4732 66.5351,30.3221 67.5239,30.1276 68.5127,29.9331 69.4925,29.6953 70.4605,29.415 71.4285,29.1347 72.3838,28.8122 73.3236,28.4482 74.2633,28.0843 75.1867,27.6794 76.091,27.2346 76.9953,26.7898 77.8797,26.3056 78.7416,25.7834 79.6036,25.2612 80.4422,24.7015 81.2551,24.1059 82.068,23.5103 82.8545,22.8793 83.6122,22.2149 84.3698,21.5504 85.098,20.853 85.7947,20.1248 86.4913,19.3966 87.1557,18.6382 87.7859,17.8518 87.7859,17.8518 60.8647,-3.72361 60.8647,-3.72361"/>
<path fill="#ff3030" stroke="black" stroke-width="0.5" d="M60.8647,-3.72361C60.8647,-3.72361 87.7859,17.8518 87.7859,17.8518 88.7581,16.6388 89.6471,15.3615 90.447,14.0286 91.2469,12.6956 91.9558,11.3102 92.5688,9.88167 92.5688,9.88167 60.8647,-3.72361 60.8647,-3.72361"/>
<path fill="deepskyblue" stroke="black" stroke-width="0.5" d="M60.8647,-3.72361C60.8647,-3.72361 92.5688,9.88167 92.5688,9.88167 93.0285,8.81046 93.4336,7.71664 93.7825,6.60442 94.1315,5.4922 94.4239,4.363 94.6585,3.22119 94.8932,2.07937 95.0698,0.926392 95.1877,-0.233306 95.3057,-1.393 95.3647,-2.55794 95.3647,-3.72361 95.3647,-3.72361 60.8647,-3.72361 60.8647,-3.72361"/>
<ellipse fill="none" stroke="black" cx="60.8647" cy="-3.72361" rx="34.5" ry="34.5"/>
<text text-anchor="middle" x="60.8647" y="-1.22361" font-family="monospace" font-size="10.00">6</text>
</g>
<!-- 0&#45;&#45;6 -->
<g id="edge1" class="edge"><title>0&#45;&#45;6</title>
<path fill="none" stroke="black" d="M134.491,-74.3481C120.478,-60.9066 101.153,-42.3692 85.8172,-27.6589"/>
</g>
<!-- 22 -->
<g id="node23" class="node"><title>22</title>
<ellipse fill="deepskyblue" stroke="black" cx="178.736" cy="-158.13" rx="3.5" ry="3.5"/>
<text text-anchor="middle" x="178.736" y="-155.63" font-family="monospace" font-size="10.00">22</text>
</g>
<!-- 0&#45;&#45;22 -->
<g id="edge2" class="edge"><title>0&#45;&#45;22</title>
<path fill="none" stroke="black" d="M162.4,-116.044C168.007,-130.488 174.604,-147.485 177.389,-154.658"/>
</g>
<!-- 24 -->
<g id="node25" class="node"><title>24</title>
<ellipse fill="deepskyblue" stroke="black" cx="207.873" cy="-136.324" rx="3.5" ry="3.5"/>
<text text-anchor="middle" x="207.873" y="-133.824" font-family="monospace" font-size="10.00">24</text>
</g>
<!-- 0&#45;&#45;24 -->
<g id="edge3" class="edge"><title>0&#45;&#45;24</title>
<path fill="none" stroke="black" d="M173.229,-108.421C185.182,-118.048 199.14,-129.29 205.026,-134.03"/>
</g>
<!-- 58 -->
<g id="node59" class="node"><title>58</title>
<ellipse fill="black" stroke="black" cx="223.293" cy="-103.832" rx="3.5" ry="3.5"/>
<text text-anchor="middle" x="223.293" y="-101.332" font-family="monospace" font-size="10.00">58</text>
</g>
<!-- 0&#45;&#45;58 -->
<g id="edge4" class="edge"><title>0&#45;&#45;58</title>
<path fill="none" stroke="black" d="M178.486,-96.4418C193.864,-98.9783 211.959,-101.963 219.597,-103.223"/>
</g>
<!-- 1 -->
<g id="node2" class="node"><title>1</title>
<ellipse fill="deepskyblue" stroke="black" cx="-175.63" cy="73.9862" rx="3.5" ry="3.5"/>
<text text-anchor="middle" x="-175.63" y="76.4862" font-family="monospace" font-size="10.00">1</text>
</g>
<!-- 3 -->
<g id="node4" class="node"><title>3</title>
<path fill="#1874cd" stroke="black" stroke-width="0.5" d="M-102.578,72.2332C-102.578,72.2332 -68.5781,72.2332 -68.5781,72.2332 -68.5781,70.9472 -68.6511,69.6621 -68.7966,68.3843 -68.9422,67.1065 -69.1602,65.838 -69.4495,64.5849 -69.7388,63.3318 -70.099,62.0961 -70.5283,60.8838 -70.9576,59.6715 -71.4553,58.4845 -72.0191,57.3286 -72.5829,56.1727 -73.2118,55.0497 -73.9028,53.9651 -74.5938,52.8804 -75.3458,51.8358 -76.1551,50.8363 -76.9645,49.8369 -77.8299,48.8841 -78.7472,47.9827 -79.6645,47.0813 -80.6322,46.2327 -81.6456,45.4409 -82.659,44.6491 -83.7166,43.9154 -84.8131,43.2435 -85.9097,42.5715 -87.0435,41.9623 -88.2091,41.4188 -89.3746,40.8753 -90.5701,40.3983 -91.7897,39.9902 -93.0093,39.5822 -94.2511,39.2436 -95.5091,38.9762 -96.7671,38.7088 -98.0392,38.513 -99.3193,38.3898 -100.599,38.2665 -101.886,38.216 -103.171,38.2384 -104.457,38.2609 -105.741,38.3563 -107.016,38.5241 -108.291,38.692 -109.556,38.9321 -110.803,39.2432 -110.803,39.2432 -102.578,72.2332 -102.578,72.2332"/>
<path fill="#98f5ff" stroke="black" stroke-width="0.5" d="M-102.578,72.2332C-102.578,72.2332 -110.803,39.2432 -110.803,39.2432 -111.763,39.4825 -112.712,39.7636 -113.647,40.0856 -114.583,40.4077 -115.503,40.7704 -116.407,41.1727 -117.311,41.575 -118.196,42.0166 -119.062,42.4962 -119.927,42.9757 -120.771,43.4928 -121.591,44.046 -121.591,44.046 -102.578,72.2332 -102.578,72.2332"/>
<path fill="#ff3030" stroke="black" stroke-width="0.5" d="M-102.578,72.2332C-102.578,72.2332 -121.591,44.046 -121.591,44.046 -122.862,44.9035 -124.074,45.8461 -125.218,46.8673 -126.362,47.8885 -127.436,48.9859 -128.432,50.152 -129.428,51.3181 -130.344,52.5503 -131.173,53.8401 -132.003,55.1299 -132.744,56.4743 -133.393,57.8642 -134.041,59.2541 -134.594,60.6862 -135.049,62.1508 -135.504,63.6154 -135.859,65.1091 -136.112,66.6216 -136.365,68.1342 -136.515,69.6621 -136.562,71.1949 -136.609,72.7278 -136.552,74.262 -136.392,75.7872 -136.232,77.3124 -135.968,78.825 -135.604,80.3146 -135.239,81.8042 -134.774,83.2674 -134.212,84.6943 -133.65,86.1211 -132.992,87.5083 -132.243,88.8464 -131.494,90.1844 -130.655,91.4702 -129.732,92.695 -128.809,93.9197 -127.804,95.0806 -126.724,96.1697 -125.645,97.2589 -124.493,98.2737 -123.276,99.2073 -122.059,100.141 -120.781,100.991 -119.449,101.752 -118.118,102.513 -116.737,103.183 -115.315,103.757 -115.315,103.757 -102.578,72.2332 -102.578,72.2332"/>
<path fill="deepskyblue" stroke="black" stroke-width="0.5" d="M-102.578,72.2332C-102.578,72.2332 -115.315,103.757 -115.315,103.757 -114.03,104.276 -112.716,104.716 -111.378,105.075 -110.04,105.433 -108.682,105.71 -107.31,105.902 -105.938,106.095 -104.556,106.204 -103.171,106.228 -101.787,106.252 -100.402,106.192 -99.0241,106.047 -97.6466,105.902 -96.2793,105.673 -94.9297,105.362 -93.5802,105.05 -92.2509,104.657 -90.9494,104.183 -89.6479,103.709 -88.3765,103.156 -87.1424,102.527 -85.9083,101.899 -84.7138,101.195 -83.5655,100.421 -82.4173,99.646 -81.3174,98.802 -80.2721,97.8934 -79.2268,96.9847 -78.2379,96.013 -77.3112,94.9837 -76.3844,93.9544 -75.5213,92.8694 -74.7269,91.7348 -73.9325,90.6003 -73.2081,89.4182 -72.5579,88.1953 -71.9076,86.9723 -71.3327,85.7108 -70.8363,84.4178 -70.34,83.1247 -69.9231,81.8025 -69.588,80.4586 -69.253,79.1147 -69.0003,77.7515 -68.8315,76.3768 -68.6627,75.0021 -68.5781,73.6183 -68.5781,72.2332 -68.5781,72.2332 -102.578,72.2332 -102.578,72.2332"/>
<ellipse fill="none" stroke="black" cx="-102.578" cy="72.2332" rx="34" ry="34"/>
<text text-anchor="middle" x="-102.578" y="74.7332" font-family="monospace" font-size="10.00">3</text>
</g>
<!-- 1&#45;&#45;3 -->
<g id="edge5" class="edge"><title>1&#45;&#45;3</title>
<path fill="none" stroke="black" d="M-172.107,73.9016C-165.552,73.7443 -150.855,73.3917 -136.655,73.0509"/>
</g>
<!-- 2 -->
<g id="node3" class="node"><title>2</title>
<ellipse fill="#ff3030" stroke="black" cx="153.863" cy="-22.5923" rx="14" ry="14"/>
<text text-anchor="middle" x="153.863" y="-20.0923" font-family="monospace" font-size="10.00">2</text>
</g>
<!-- 2&#45;&#45;6 -->
<g id="edge6" class="edge"><title>2&#45;&#45;6</title>
<path fill="none" stroke="black" d="M140.141,-19.8081C128.217,-17.3889 110.442,-13.7825 94.7436,-10.5974"/>
</g>
<!-- anon_2_37_0 -->
<g id="node61" class="node"><title>anon_2_37_0</title>
<ellipse fill="white" stroke="black" cx="211.733" cy="-34.3638" rx="2.5" ry="2.5"/>
</g>
<!-- 2&#45;&#45;anon_2_37_0 -->
<g id="edge7" class="edge"><title>2&#45;&#45;anon_2_37_0</title>
<path fill="none" stroke="black" d="M167.872,-25.4418C181.787,-28.2724 202.045,-32.3932 209.153,-33.839"/>
</g>
<!-- 3&#45;&#45;6 -->
<g id="edge9" class="edge"><title>3&#45;&#45;6</title>
<path fill="none" stroke="black" d="M-71.451,57.7676C-42.461,44.295 0.533535,24.3141 29.5756,10.8174"/>
</g>
<!-- 10 -->
<g id="node11" class="node"><title>10</title>
<ellipse fill="#ff3030" stroke="black" cx="-149.742" cy="128.599" rx="3.5" ry="3.5"/>
<text text-anchor="middle" x="-149.742" y="131.099" font-family="monospace" font-size="10.00">10</text>
</g>
<!-- 3&#45;&#45;10 -->
<g id="edge10" class="edge"><title>3&#45;&#45;10</title>
<path fill="none" stroke="black" d="M-124.503,98.4359C-133.548,109.246 -142.92,120.446 -147.26,125.633"/>
</g>
<!-- 16 -->
<g id="node17" class="node"><title>16</title>
<ellipse fill="#ff3030" stroke="black" cx="-150.089" cy="12.9454" rx="3.5" ry="3.5"/>
<text text-anchor="middle" x="-150.089" y="15.4454" font-family="monospace" font-size="10.00">16</text>
</g>
<!-- 3&#45;&#45;16 -->
<g id="edge11" class="edge"><title>3&#45;&#45;16</title>
<path fill="none" stroke="black" d="M-124.109,45.3648C-133.537,33.5997 -143.437,21.2463 -147.797,15.8049"/>
</g>
<!-- 18 -->
<g id="node19" class="node"><title>18</title>
<ellipse fill="deepskyblue" stroke="black" cx="-72.6492" cy="146.223" rx="3.5" ry="3.5"/>
<text text-anchor="middle" x="-72.6492" y="148.723" font-family="monospace" font-size="10.00">18</text>
</g>
<!-- 3&#45;&#45;18 -->
<g id="edge12" class="edge"><title>3&#45;&#45;18</title>
<path fill="none" stroke="black" d="M-89.7118,104.041C-83.5013,119.394 -76.7988,135.964 -73.9982,142.888"/>
</g>
<!-- 21 -->
<g id="node22" class="node"><title>21</title>
<ellipse fill="deepskyblue" stroke="black" cx="-88.8924" cy="147.786" rx="3.5" ry="3.5"/>
<text text-anchor="middle" x="-88.8924" y="150.286" font-family="monospace" font-size="10.00">21</text>
</g>
<!-- 3&#45;&#45;21 -->
<g id="edge13" class="edge"><title>3&#45;&#45;21</title>
<path fill="none" stroke="black" d="M-96.4558,106.032C-93.7228,121.119 -90.8349,137.063 -89.5618,144.091"/>
</g>
<!-- 25 -->
<g id="node26" class="node"><title>25</title>
<ellipse fill="deepskyblue" stroke="black" cx="-133.907" cy="141.698" rx="3.5" ry="3.5"/>
<text text-anchor="middle" x="-133.907" y="144.198" font-family="monospace" font-size="10.00">25</text>
</g>
<!-- 3&#45;&#45;25 -->
<g id="edge14" class="edge"><title>3&#45;&#45;25</title>
<path fill="none" stroke="black" d="M-116.593,103.309C-122.849,117.18 -129.46,131.839 -132.375,138.301"/>
</g>
<!-- 29 -->
<g id="node30" class="node"><title>29</title>
<ellipse fill="deepskyblue" stroke="black" cx="-114.671" cy="146.641" rx="3.5" ry="3.5"/>
<text text-anchor="middle" x="-114.671" y="149.141" font-family="monospace" font-size="10.00">29</text>
</g>
<!-- 3&#45;&#45;29 -->
<g id="edge15" class="edge"><title>3&#45;&#45;29</title>
<path fill="none" stroke="black" d="M-108.058,105.954C-110.458,120.72 -112.978,136.224 -114.087,143.053"/>
</g>
<!-- 30 -->
<g id="node31" class="node"><title>30</title>
<ellipse fill="deepskyblue" stroke="black" cx="-106.442" cy="-1.20259" rx="3.5" ry="3.5"/>
<text text-anchor="middle" x="-106.442" y="1.29741" font-family="monospace" font-size="10.00">30</text>
</g>
<!-- 3&#45;&#45;30 -->
<g id="edge16" class="edge"><title>3&#45;&#45;30</title>
<path fill="none" stroke="black" d="M-104.374,38.0952C-105.115,24.0118 -105.883,9.41985 -106.239,2.66154"/>
</g>
<!-- 34 -->
<g id="node35" class="node"><title>34</title>
<ellipse fill="#ff3030" stroke="black" cx="-167.06" cy="36.7156" rx="3.5" ry="3.5"/>
<text text-anchor="middle" x="-167.06" y="39.2156" font-family="monospace" font-size="10.00">34</text>
</g>
<!-- 3&#45;&#45;34 -->
<g id="edge17" class="edge"><title>3&#45;&#45;34</title>
<path fill="none" stroke="black" d="M-132.554,55.7222C-144.92,48.9107 -157.732,41.8532 -163.667,38.5845"/>
</g>
<!-- 36 -->
<g id="node37" class="node"><title>36</title>
<ellipse fill="#ff3030" stroke="black" cx="-137.838" cy="1.79611" rx="3.5" ry="3.5"/>
<text text-anchor="middle" x="-137.838" y="4.29611" font-family="monospace" font-size="10.00">36</text>
</g>
<!-- 3&#45;&#45;36 -->
<g id="edge20" class="edge"><title>3&#45;&#45;36</title>
<path fill="none" stroke="black" d="M-117.941,41.5434C-125.216,27.0108 -133.015,11.4321 -136.27,4.9279"/>
</g>
<!-- 41 -->
<g id="node42" class="node"><title>41</title>
<ellipse fill="#1874cd" stroke="black" cx="-36.7033" cy="67.855" rx="3.5" ry="3.5"/>
<text text-anchor="middle" x="-36.7033" y="70.355" font-family="monospace" font-size="10.00">41</text>
</g>
<!-- 3&#45;&#45;41 -->
<g id="edge23" class="edge"><title>3&#45;&#45;41</title>
<path fill="none" stroke="black" d="M-68.483,69.9672C-57.181,69.216 -46.0611,68.477 -40.4547,68.1044"/>
</g>
<!-- 43 -->
<g id="node44" class="node"><title>43</title>
<ellipse fill="#1874cd" stroke="black" cx="-172.502" cy="95.8254" rx="3.5" ry="3.5"/>
<text text-anchor="middle" x="-172.502" y="98.3254" font-family="monospace" font-size="10.00">43</text>
</g>
<!-- 3&#45;&#45;43 -->
<g id="edge24" class="edge"><title>3&#45;&#45;43</title>
<path fill="none" stroke="black" d="M-135.084,83.2005C-148.494,87.7249 -162.388,92.4128 -168.823,94.584"/>
</g>
<!-- 44 -->
<g id="node45" class="node"><title>44</title>
<ellipse fill="#1874cd" stroke="black" cx="-60.0122" cy="138.554" rx="3.5" ry="3.5"/>
<text text-anchor="middle" x="-60.0122" y="141.054" font-family="monospace" font-size="10.00">44</text>
</g>
<!-- 3&#45;&#45;44 -->
<g id="edge25" class="edge"><title>3&#45;&#45;44</title>
<path fill="none" stroke="black" d="M-84.0319,101.13C-75.2497,114.813 -65.8354,129.481 -61.9048,135.605"/>
</g>
<!-- 46 -->
<g id="node47" class="node"><title>46</title>
<ellipse fill="#1874cd" stroke="black" cx="-103.319" cy="167.366" rx="3.5" ry="3.5"/>
<text text-anchor="middle" x="-103.319" y="169.866" font-family="monospace" font-size="10.00">46</text>
</g>
<!-- 3&#45;&#45;46 -->
<g id="edge28" class="edge"><title>3&#45;&#45;46</title>
<path fill="none" stroke="black" d="M-102.843,106.31C-103.014,128.276 -103.218,154.426 -103.291,163.803"/>
</g>
<!-- 56 -->
<g id="node57" class="node"><title>56</title>
<ellipse fill="#98f5ff" stroke="black" cx="-123.052" cy="-2.24547" rx="3.5" ry="3.5"/>
<text text-anchor="middle" x="-123.052" y="0.254525" font-family="monospace" font-size="10.00">56</text>
</g>
<!-- 3&#45;&#45;56 -->
<g id="edge29" class="edge"><title>3&#45;&#45;56</title>
<path fill="none" stroke="black" d="M-111.618,39.349C-115.731,24.3851 -120.106,8.47017 -122.037,1.44794"/>
</g>
<!-- 59 -->
<g id="node60" class="node"><title>59</title>
<ellipse fill="black" stroke="black" cx="-50.4367" cy="126.26" rx="3.5" ry="3.5"/>
<text text-anchor="middle" x="-50.4367" y="128.76" font-family="monospace" font-size="10.00">59</text>
</g>
<!-- 3&#45;&#45;59 -->
<g id="edge30" class="edge"><title>3&#45;&#45;59</title>
<path fill="none" stroke="black" d="M-78.9483,96.7175C-68.6014,107.439 -57.737,118.696 -52.9516,123.654"/>
</g>
<!-- anon_3_35_0 -->
<g id="node62" class="node"><title>anon_3_35_0</title>
<ellipse fill="white" stroke="black" cx="-172.916" cy="13.5347" rx="2.5" ry="2.5"/>
</g>
<!-- 3&#45;&#45;anon_3_35_0 -->
<g id="edge18" class="edge"><title>3&#45;&#45;anon_3_35_0</title>
<path fill="none" stroke="black" d="M-128.769,50.3761C-145.33,36.5556 -164.737,20.3598 -170.919,15.2008"/>
</g>
<!-- anon_3_40_0 -->
<g id="node63" class="node"><title>anon_3_40_0</title>
<ellipse fill="white" stroke="black" cx="-187.549" cy="56.2112" rx="2.5" ry="2.5"/>
</g>
<!-- 3&#45;&#45;anon_3_40_0 -->
<g id="edge21" class="edge"><title>3&#45;&#45;anon_3_40_0</title>
<path fill="none" stroke="black" d="M-136.161,65.9009C-155.458,62.2622 -177.322,58.1396 -184.842,56.7216"/>
</g>
<!-- anon_3_45_0 -->
<g id="node64" class="node"><title>anon_3_45_0</title>
<ellipse fill="white" stroke="black" cx="-169.598" cy="123.933" rx="2.5" ry="2.5"/>
</g>
<!-- 3&#45;&#45;anon_3_45_0 -->
<g id="edge26" class="edge"><title>3&#45;&#45;anon_3_45_0</title>
<path fill="none" stroke="black" d="M-129.838,93.2617C-144.914,104.891 -161.739,117.871 -167.519,122.329"/>
</g>
<!-- 4 -->
<g id="node5" class="node"><title>4</title>
<path fill="#98f5ff" stroke="black" stroke-width="0.5" d="M171.881,53.8985C171.881,53.8985 203.881,53.8985 203.881,53.8985 203.881,52.448 203.782,50.9992 203.586,49.562 203.389,48.1249 203.095,46.7028 202.706,45.3055 202.316,43.9083 201.832,42.5391 201.257,41.2076 200.682,39.876 200.016,38.5851 199.266,37.3437 198.516,36.1024 197.682,34.9135 196.77,33.7853 195.858,32.6572 194.871,31.5923 193.815,30.598 192.759,29.6038 191.636,28.6825 190.455,27.8406 189.274,26.9987 188.037,26.238 186.752,25.5639 185.468,24.8899 184.139,24.3039 182.775,23.8101 181.411,23.3162 180.015,22.9157 178.597,22.6113 177.179,22.3068 175.742,22.0992 174.295,21.9897 172.849,21.8803 171.397,21.8693 169.949,21.9569 168.501,22.0445 167.061,22.2304 165.638,22.5134 164.216,22.7964 162.814,23.1758 161.443,23.6489 160.071,24.1221 158.734,24.688 157.44,25.3426 156.145,25.9972 154.897,26.7391 153.703,27.5631 153.703,27.5631 171.881,53.8985 171.881,53.8985"/>
<path fill="deepskyblue" stroke="black" stroke-width="0.5" d="M171.881,53.8985C171.881,53.8985 153.703,27.5631 153.703,27.5631 152.797,28.1886 151.923,28.8605 151.086,29.576 150.25,30.2916 149.45,31.0499 148.691,31.8478 147.932,32.6458 147.215,33.4824 146.543,34.3543 145.87,35.2262 145.243,36.1323 144.664,37.0688 144.085,38.0054 143.555,38.9712 143.075,39.9624 142.596,40.9537 142.167,41.969 141.793,43.0044 141.418,44.0397 141.097,45.0938 140.83,46.1623 140.564,47.2307 140.353,48.3122 140.198,49.4025 140.044,50.4927 139.945,51.5902 139.904,52.6905 139.862,53.7909 139.878,54.8927 139.95,55.9914 140.022,57.0902 140.15,58.1846 140.335,59.2701 140.52,60.3556 140.761,61.4309 141.056,62.4916 141.352,63.5523 141.702,64.597 142.106,65.6216 142.509,66.6462 142.965,67.6493 143.472,68.6268 143.979,69.6044 144.536,70.5552 145.141,71.4754 145.745,72.3955 146.397,73.2838 147.094,74.1368 147.79,74.9897 148.53,75.8062 149.311,76.5828 150.091,77.3595 150.911,78.0954 151.768,78.7875 152.624,79.4796 153.516,80.127 154.439,80.7272 155.362,81.3274 156.316,81.8796 157.296,82.3814 158.276,82.8833 159.281,83.3343 160.308,83.7325 161.335,84.1307 162.381,84.4757 163.443,84.7661 164.506,85.0564 165.582,85.2918 166.668,85.4711 167.755,85.6505 168.85,85.7737 169.949,85.8402 171.048,85.9066 172.15,85.9164 173.25,85.8692 174.35,85.8221 175.447,85.7183 176.537,85.5581 177.626,85.3979 178.706,85.1815 179.774,84.91 180.841,84.6384 181.893,84.3119 182.927,83.9318 183.96,83.5517 184.973,83.1185 185.962,82.634 186.951,82.1495 187.914,81.6142 188.848,81.0304 189.781,80.4466 190.684,79.8149 191.553,79.138 192.421,78.4611 193.254,77.7398 194.048,76.977 194.048,76.977 171.881,53.8985 171.881,53.8985"/>
<path fill="#ff3030" stroke="black" stroke-width="0.5" d="M171.881,53.8985C171.881,53.8985 194.048,76.977 194.048,76.977 194.823,76.2328 195.56,75.4501 196.256,74.6318 196.952,73.8135 197.606,72.9607 198.217,72.0766 198.827,71.1925 199.392,70.2782 199.91,69.3372 200.429,68.3963 200.899,67.4298 201.32,66.4415 201.741,65.4532 202.113,64.4443 202.432,63.4186 202.752,62.393 203.019,61.3519 203.234,60.2994 203.449,59.2468 203.611,58.1841 203.719,57.1152 203.827,56.0464 203.881,54.9728 203.881,53.8985 203.881,53.8985 171.881,53.8985 171.881,53.8985"/>
<ellipse fill="none" stroke="black" cx="171.881" cy="53.8985" rx="32" ry="32"/>
<text text-anchor="middle" x="171.881" y="56.3985" font-family="monospace" font-size="10.00">4</text>
</g>
<!-- 4&#45;&#45;6 -->
<g id="edge31" class="edge"><title>4&#45;&#45;6</title>
<path fill="none" stroke="black" d="M143.292,39.0594C127.487,30.8563 107.842,20.6594 91.6945,12.2783"/>
</g>
<!-- 11 -->
<g id="node12" class="node"><title>11</title>
<ellipse fill="deepskyblue" stroke="black" cx="129.109" cy="104.717" rx="3.5" ry="3.5"/>
<text text-anchor="middle" x="129.109" y="107.217" font-family="monospace" font-size="10.00">11</text>
</g>
<!-- 4&#45;&#45;11 -->
<g id="edge32" class="edge"><title>4&#45;&#45;11</title>
<path fill="none" stroke="black" d="M151.247,78.4148C143.386,87.7552 135.389,97.2567 131.512,101.862"/>
</g>
<!-- 55 -->
<g id="node56" class="node"><title>55</title>
<ellipse fill="#98f5ff" stroke="black" cx="230.906" cy="112.015" rx="3.5" ry="3.5"/>
<text text-anchor="middle" x="230.906" y="114.515" font-family="monospace" font-size="10.00">55</text>
</g>
<!-- 4&#45;&#45;55 -->
<g id="edge33" class="edge"><title>4&#45;&#45;55</title>
<path fill="none" stroke="black" d="M194.871,76.5342C207.819,89.2828 222.53,103.767 228.346,109.494"/>
</g>
<!-- 5 -->
<g id="node6" class="node"><title>5</title>
<ellipse fill="#ff3030" stroke="black" cx="171.806" cy="24.3495" rx="18" ry="18"/>
<text text-anchor="middle" x="171.806" y="26.8495" font-family="monospace" font-size="10.00">5</text>
</g>
<!-- 5&#45;&#45;6 -->
<g id="edge34" class="edge"><title>5&#45;&#45;6</title>
<path fill="none" stroke="black" d="M153.981,19.8391C138.056,15.8093 114.293,9.79604 94.7583,4.85299"/>
</g>
<!-- 32 -->
<g id="node33" class="node"><title>32</title>
<ellipse fill="#ff3030" stroke="black" cx="159.287" cy="79.6255" rx="3.5" ry="3.5"/>
<text text-anchor="middle" x="159.287" y="82.1255" font-family="monospace" font-size="10.00">32</text>
</g>
<!-- 5&#45;&#45;32 -->
<g id="edge35" class="edge"><title>5&#45;&#45;32</title>
<path fill="none" stroke="black" d="M167.776,42.1435C165.032,54.2627 161.629,69.2867 160.099,76.0413"/>
</g>
<!-- 38 -->
<g id="node39" class="node"><title>38</title>
<ellipse fill="#ff3030" stroke="black" cx="230.306" cy="45.6692" rx="3.5" ry="3.5"/>
<text text-anchor="middle" x="230.306" y="48.1692" font-family="monospace" font-size="10.00">38</text>
</g>
<!-- 5&#45;&#45;38 -->
<g id="edge36" class="edge"><title>5&#45;&#45;38</title>
<path fill="none" stroke="black" d="M188.727,30.516C201.955,35.3368 219.3,41.6582 226.705,44.3566"/>
</g>
<!-- 39 -->
<g id="node40" class="node"><title>39</title>
<ellipse fill="#ff3030" stroke="black" cx="215.332" cy="70.6465" rx="3.5" ry="3.5"/>
<text text-anchor="middle" x="215.332" y="73.1465" font-family="monospace" font-size="10.00">39</text>
</g>
<!-- 5&#45;&#45;39 -->
<g id="edge37" class="edge"><title>5&#45;&#45;39</title>
<path fill="none" stroke="black" d="M184.162,37.4925C194.014,47.9719 207.051,61.839 212.621,67.7635"/>
</g>
<!-- anon_5_37_0 -->
<g id="node72" class="node"><title>anon_5_37_0</title>
<ellipse fill="white" stroke="black" cx="230.659" cy="7.41702" rx="2.5" ry="2.5"/>
</g>
<!-- 5&#45;&#45;anon_5_37_0 -->
<g id="edge71" class="edge"><title>5&#45;&#45;anon_5_37_0</title>
<path fill="none" stroke="black" stroke-dasharray="5,2" d="M189.146,19.3608C202.979,15.3807 221.127,10.1595 227.929,8.20255"/>
</g>
<!-- 7 -->
<g id="node8" class="node"><title>7</title>
<ellipse fill="#ff3030" stroke="black" cx="31.5575" cy="-75.2378" rx="9.5" ry="9.5"/>
<text text-anchor="middle" x="31.5575" y="-72.7378" font-family="monospace" font-size="10.00">7</text>
</g>
<!-- 6&#45;&#45;7 -->
<g id="edge38" class="edge"><title>6&#45;&#45;7</title>
<path fill="none" stroke="black" d="M47.7541,-35.7157C43.1819,-46.8725 38.4071,-58.5238 35.2368,-66.2597"/>
</g>
<!-- 8 -->
<g id="node9" class="node"><title>8</title>
<ellipse fill="#ff3030" stroke="black" cx="-6.98437" cy="-61.4056" rx="6" ry="6"/>
<text text-anchor="middle" x="-6.98437" y="-58.9056" font-family="monospace" font-size="10.00">8</text>
</g>
<!-- 6&#45;&#45;8 -->
<g id="edge39" class="edge"><title>6&#45;&#45;8</title>
<path fill="none" stroke="black" d="M34.4382,-26.1902C20.7454,-37.8311 5.33703,-50.9306 -2.24705,-57.3782"/>
</g>
<!-- 13 -->
<g id="node14" class="node"><title>13</title>
<ellipse fill="#ff3030" stroke="black" cx="77.2541" cy="75.1724" rx="8" ry="8"/>
<text text-anchor="middle" x="77.2541" y="77.6724" font-family="monospace" font-size="10.00">13</text>
</g>
<!-- 6&#45;&#45;13 -->
<g id="edge40" class="edge"><title>6&#45;&#45;13</title>
<path fill="none" stroke="black" d="M67.9104,30.1933C70.7561,43.8921 73.7905,58.4987 75.6038,67.2281"/>
</g>
<!-- 14 -->
<g id="node15" class="node"><title>14</title>
<path fill="#98f5ff" stroke="black" stroke-width="0.5" d="M17.7847,-116.202C17.7847,-116.202 23.7847,-116.202 23.7847,-116.202 23.7847,-116.464 23.7676,-116.726 23.7334,-116.985 23.6992,-117.245 23.6481,-117.502 23.5803,-117.755 23.5125,-118.008 23.4282,-118.256 23.328,-118.498 23.2278,-118.74 23.1118,-118.975 22.9809,-119.202 22.8499,-119.429 22.7043,-119.647 22.5449,-119.855 22.3854,-120.063 22.2126,-120.26 22.0274,-120.445 21.8422,-120.63 21.6451,-120.803 21.4373,-120.962 21.2295,-121.122 21.0115,-121.267 20.7847,-121.398 20.5579,-121.529 20.3228,-121.645 20.0808,-121.746 19.8389,-121.846 19.5906,-121.93 19.3376,-121.998 19.0847,-122.066 18.8275,-122.117 18.5679,-122.151 18.3082,-122.185 18.0466,-122.202 17.7847,-122.202 17.5228,-122.202 17.2612,-122.185 17.0016,-122.151 16.7419,-122.117 16.4848,-122.066 16.2318,-121.998 15.9789,-121.93 15.7306,-121.846 15.4886,-121.746 15.2467,-121.645 15.0115,-121.529 14.7847,-121.398 14.7847,-121.398 17.7847,-116.202 17.7847,-116.202"/>
<path fill="#ff3030" stroke="black" stroke-width="0.5" d="M17.7847,-116.202C17.7847,-116.202 14.7847,-121.398 14.7847,-121.398 14.5579,-121.267 14.3399,-121.122 14.1322,-120.962 13.9244,-120.803 13.7273,-120.63 13.5421,-120.445 13.3569,-120.26 13.184,-120.063 13.0246,-119.855 12.8652,-119.647 12.7195,-119.429 12.5886,-119.202 12.4576,-118.975 12.3417,-118.74 12.2415,-118.498 12.1412,-118.256 12.057,-118.008 11.9892,-117.755 11.9214,-117.502 11.8702,-117.245 11.8361,-116.985 11.8019,-116.726 11.7847,-116.464 11.7847,-116.202 11.7847,-115.94 11.8019,-115.679 11.8361,-115.419 11.8702,-115.159 11.9214,-114.902 11.9892,-114.649 12.057,-114.396 12.1412,-114.148 12.2415,-113.906 12.3417,-113.664 12.4576,-113.429 12.5886,-113.202 12.7195,-112.975 12.8652,-112.757 13.0246,-112.55 13.184,-112.342 13.3569,-112.145 13.5421,-111.96 13.7273,-111.774 13.9244,-111.602 14.1322,-111.442 14.3399,-111.283 14.5579,-111.137 14.7847,-111.006 15.0115,-110.875 15.2467,-110.759 15.4886,-110.659 15.7306,-110.559 15.9789,-110.474 16.2318,-110.407 16.4848,-110.339 16.7419,-110.288 17.0016,-110.254 17.2612,-110.219 17.5228,-110.202 17.7847,-110.202 18.0466,-110.202 18.3082,-110.219 18.5679,-110.254 18.8275,-110.288 19.0847,-110.339 19.3376,-110.407 19.5906,-110.474 19.8389,-110.559 20.0808,-110.659 20.3228,-110.759 20.5579,-110.875 20.7847,-111.006 21.0115,-111.137 21.2295,-111.283 21.4373,-111.442 21.6451,-111.602 21.8422,-111.774 22.0274,-111.96 22.2126,-112.145 22.3854,-112.342 22.5449,-112.55 22.7043,-112.757 22.8499,-112.975 22.9809,-113.202 23.1118,-113.429 23.2278,-113.664 23.328,-113.906 23.4282,-114.148 23.5125,-114.396 23.5803,-114.649 23.6481,-114.902 23.6992,-115.159 23.7334,-115.419 23.7676,-115.679 23.7847,-115.94 23.7847,-116.202 23.7847,-116.202 17.7847,-116.202 17.7847,-116.202"/>
<ellipse fill="none" stroke="black" cx="17.7847" cy="-116.202" rx="6" ry="6"/>
<text text-anchor="middle" x="17.7847" y="-113.702" font-family="monospace" font-size="10.00">14</text>
</g>
<!-- 6&#45;&#45;14 -->
<g id="edge41" class="edge"><title>6&#45;&#45;14</title>
<path fill="none" stroke="black" d="M48.5197,-35.9555C38.4749,-62.1817 25.1459,-96.9829 19.9696,-110.498"/>
</g>
<!-- 17 -->
<g id="node18" class="node"><title>17</title>
<ellipse fill="#ff3030" stroke="black" cx="12.5381" cy="-56.7771" rx="6" ry="6"/>
<text text-anchor="middle" x="12.5381" y="-54.2771" font-family="monospace" font-size="10.00">17</text>
</g>
<!-- 6&#45;&#45;17 -->
<g id="edge42" class="edge"><title>6&#45;&#45;17</title>
<path fill="none" stroke="black" d="M37.5507,-29.3179C29.6339,-38.0092 21.5953,-46.834 16.84,-52.0544"/>
</g>
<!-- 19 -->
<g id="node20" class="node"><title>19</title>
<path fill="#98f5ff" stroke="black" stroke-width="0.5" d="M104.167,75.8636C104.167,75.8636 115.667,75.8636 115.667,75.8636 115.667,75.2612 115.62,74.6597 115.526,74.0647 115.431,73.4696 115.29,72.8829 115.104,72.31 114.918,71.737 114.687,71.1795 114.414,70.6428 114.14,70.106 113.825,69.5915 113.471,69.1041 113.117,68.6167 112.725,68.1579 112.299,67.7319 111.873,67.3059 111.414,66.9141 110.927,66.56 110.439,66.2058 109.925,65.8906 109.388,65.6171 108.851,65.3436 108.294,65.1127 107.721,64.9265 107.148,64.7403 106.561,64.5995 105.966,64.5052 105.371,64.411 104.77,64.3636 104.167,64.3636 103.565,64.3636 102.963,64.411 102.368,64.5052 101.773,64.5995 101.186,64.7403 100.613,64.9265 100.04,65.1127 99.483,65.3436 98.9462,65.6171 98.4094,65.8906 97.895,66.2058 97.4076,66.56 96.9202,66.9141 96.4614,67.3059 96.0354,67.7319 95.6094,68.1579 95.2175,68.6167 94.8634,69.1041 94.8634,69.1041 104.167,75.8636 104.167,75.8636"/>
<path fill="deepskyblue" stroke="black" stroke-width="0.5" d="M104.167,75.8636C104.167,75.8636 94.8634,69.1041 94.8634,69.1041 94.5979,69.4696 94.3541,69.8504 94.1334,70.2445 93.9127,70.6386 93.7154,71.0454 93.5425,71.4628 93.3696,71.8801 93.2215,72.3073 93.0989,72.7421 92.9763,73.1769 92.8794,73.6185 92.8087,74.0647 92.738,74.5108 92.6937,74.9608 92.676,75.4122 92.6582,75.8635 92.6671,76.3156 92.7026,76.7659 92.738,77.2163 92.7999,77.6641 92.8881,78.1072 92.9762,78.5502 93.0904,78.9877 93.23,79.4173 93.3696,79.847 93.5343,80.268 93.7235,80.6782 93.9126,81.0885 94.1257,81.4872 94.3617,81.8724 94.5978,82.2575 94.8563,82.6285 95.136,82.9832 95.4156,83.338 95.716,83.676 96.0354,83.9954 96.3548,84.3148 96.6928,84.6151 97.0475,84.8948 97.4023,85.1745 97.7732,85.433 98.1584,85.669 98.5435,85.905 98.9423,86.1182 99.3525,86.3073 99.7628,86.4964 100.184,86.6612 100.613,86.8008 101.043,86.9404 101.481,87.0545 101.924,87.1427 102.367,87.2308 102.814,87.2928 103.265,87.3282 103.715,87.3636 104.167,87.3725 104.619,87.3548 105.07,87.337 105.52,87.2927 105.966,87.2221 106.412,87.1514 106.854,87.0545 107.289,86.9319 107.723,86.8093 108.151,86.6611 108.568,86.4883 108.985,86.3154 109.392,86.1181 109.786,85.8974 110.18,85.6766 110.561,85.4329 110.927,85.1673 111.292,84.9018 111.642,84.615 111.973,84.3084 112.305,84.0017 112.618,83.6758 112.912,83.3323 113.205,82.9888 113.478,82.6283 113.729,82.2527 113.98,81.8771 114.209,81.487 114.414,81.0845 114.619,80.682 114.8,80.2678 114.956,79.844 115.113,79.4202 115.244,78.9875 115.349,78.5483 115.455,78.109 115.534,77.6639 115.587,77.2153 115.64,76.7667 115.667,76.3154 115.667,75.8636 115.667,75.8636 104.167,75.8636 104.167,75.8636"/>
<ellipse fill="none" stroke="black" cx="104.167" cy="75.8636" rx="11.5" ry="11.5"/>
<text text-anchor="middle" x="104.167" y="78.3636" font-family="monospace" font-size="10.00">19</text>
</g>
<!-- 6&#45;&#45;19 -->
<g id="edge43" class="edge"><title>6&#45;&#45;19</title>
<path fill="none" stroke="black" d="M77.4827,26.8193C84.9241,40.4961 93.2052,55.7163 98.5394,65.5202"/>
</g>
<!-- 26 -->
<g id="node27" class="node"><title>26</title>
<ellipse fill="deepskyblue" stroke="black" cx="91.2066" cy="-63.9905" rx="5" ry="5"/>
<text text-anchor="middle" x="91.2066" y="-61.4905" font-family="monospace" font-size="10.00">26</text>
</g>
<!-- 6&#45;&#45;26 -->
<g id="edge44" class="edge"><title>6&#45;&#45;26</title>
<path fill="none" stroke="black" d="M76.3912,-34.5632C81.2902,-44.2939 86.1397,-53.9263 88.8948,-59.3988"/>
</g>
<!-- 31 -->
<g id="node32" class="node"><title>31</title>
<path fill="#98f5ff" stroke="black" stroke-width="0.5" d="M85.8544,-102.965C85.8544,-102.965 98.3544,-102.965 98.3544,-102.965 98.3544,-103.647 98.2985,-104.328 98.1874,-105.001 98.0763,-105.674 97.9103,-106.337 97.691,-106.983 97.4717,-107.629 97.1999,-108.256 96.8784,-108.857 96.5568,-109.459 96.1865,-110.033 95.7713,-110.574 95.356,-111.115 94.8971,-111.622 94.3993,-112.088 93.9014,-112.554 93.3662,-112.979 92.799,-113.358 92.2318,-113.737 91.6345,-114.069 91.0132,-114.35 90.3919,-114.632 89.7485,-114.862 89.0896,-115.039 88.4307,-115.215 87.7584,-115.338 87.0796,-115.404 86.4007,-115.471 85.7175,-115.483 85.0368,-115.438 84.3561,-115.393 83.6802,-115.293 83.0159,-115.138 82.3516,-114.983 81.701,-114.774 81.0708,-114.513 80.4406,-114.252 79.8328,-113.94 79.2535,-113.58 78.6742,-113.219 78.1254,-112.812 77.6125,-112.363 77.0997,-111.913 76.6245,-111.422 76.1917,-110.895 75.759,-110.367 75.3701,-109.805 75.029,-109.215 75.029,-109.215 85.8544,-102.965 85.8544,-102.965"/>
<path fill="deepskyblue" stroke="black" stroke-width="0.5" d="M85.8544,-102.965C85.8544,-102.965 75.029,-109.215 75.029,-109.215 74.7904,-108.801 74.5756,-108.374 74.3857,-107.937 74.1958,-107.499 74.0312,-107.05 73.8926,-106.593 73.754,-106.136 73.6417,-105.672 73.5563,-105.202 73.4708,-104.733 73.4123,-104.259 73.3811,-103.782 73.3499,-103.306 73.346,-102.828 73.3694,-102.351 73.3928,-101.875 73.4436,-101.399 73.5213,-100.928 73.5991,-100.457 73.7038,-99.9913 73.8348,-99.5323 73.9659,-99.0733 74.1232,-98.6221 74.3059,-98.1811 74.4886,-97.7401 74.6963,-97.3099 74.9282,-96.8926 75.1601,-96.4753 75.4157,-96.0717 75.6938,-95.6837 75.9718,-95.2957 76.2719,-94.9239 76.5925,-94.5702 76.9131,-94.2165 77.2536,-93.8814 77.6125,-93.5667 77.9714,-93.2519 78.3481,-92.958 78.7406,-92.6863 79.1331,-92.4146 79.5409,-92.1657 79.9619,-91.9406 80.3829,-91.7156 80.8165,-91.5149 81.2604,-91.3394 81.7044,-91.164 82.158,-91.0141 82.6191,-90.8906 83.0802,-90.767 83.548,-90.67 84.0202,-90.5999 84.4924,-90.5299 84.9683,-90.487 85.4454,-90.4713 85.9225,-90.4557 86.4001,-90.4674 86.8759,-90.5065 87.3516,-90.5455 87.8248,-90.6117 88.293,-90.7048 88.7612,-90.798 89.2237,-90.9178 89.6782,-91.0639 90.1326,-91.2099 90.5784,-91.3818 91.0132,-91.5789 91.448,-91.7759 91.8712,-91.9976 92.2806,-92.243 92.6901,-92.4885 93.0852,-92.7571 93.4639,-93.0477 93.8426,-93.3383 94.2044,-93.6504 94.5474,-93.9824 94.8904,-94.3144 95.2142,-94.6657 95.517,-95.0347 95.8198,-95.4037 96.1013,-95.7898 96.36,-96.191 96.6187,-96.5922 96.8541,-97.0079 97.0653,-97.436 97.2764,-97.8642 97.4628,-98.3041 97.6237,-98.7535 97.7845,-99.203 97.9194,-99.6613 98.0278,-100.126 98.1362,-100.591 98.2179,-101.062 98.2725,-101.536 98.327,-102.01 98.3544,-102.487 98.3544,-102.965 98.3544,-102.965 85.8544,-102.965 85.8544,-102.965"/>
<ellipse fill="none" stroke="black" cx="85.8544" cy="-102.965" rx="12.5" ry="12.5"/>
<text text-anchor="middle" x="85.8544" y="-100.465" font-family="monospace" font-size="10.00">31</text>
</g>
<!-- 6&#45;&#45;31 -->
<g id="edge48" class="edge"><title>6&#45;&#45;31</title>
<path fill="none" stroke="black" d="M69.3251,-37.3221C73.9694,-55.7661 79.4468,-77.5184 82.7839,-90.7709"/>
</g>
<!-- 47 -->
<g id="node48" class="node"><title>47</title>
<ellipse fill="brown" stroke="black" cx="-2.5747" cy="-31.6558" rx="3.5" ry="3.5"/>
<text text-anchor="middle" x="-2.5747" y="-29.1558" font-family="monospace" font-size="10.00">47</text>
</g>
<!-- 6&#45;&#45;47 -->
<g id="edge49" class="edge"><title>6&#45;&#45;47</title>
<path fill="none" stroke="black" d="M29.145,-17.6897C17.7457,-22.7088 6.34647,-27.7279 0.836077,-30.1541"/>
</g>
<!-- 48 -->
<g id="node49" class="node"><title>48</title>
<ellipse fill="brown" stroke="black" cx="117.048" cy="56.5059" rx="6" ry="6"/>
<text text-anchor="middle" x="117.048" y="59.0059" font-family="monospace" font-size="10.00">48</text>
</g>
<!-- 6&#45;&#45;48 -->
<g id="edge50" class="edge"><title>6&#45;&#45;48</title>
<path fill="none" stroke="black" d="M84.6915,21.8191C95.219,33.1048 106.565,45.2676 112.628,51.7672"/>
</g>
<!-- 50 -->
<g id="node51" class="node"><title>50</title>
<ellipse fill="brown" stroke="black" cx="6.7977" cy="50.6883" rx="8" ry="8"/>
<text text-anchor="middle" x="6.7977" y="53.1883" font-family="monospace" font-size="10.00">50</text>
</g>
<!-- 6&#45;&#45;50 -->
<g id="edge53" class="edge"><title>6&#45;&#45;50</title>
<path fill="none" stroke="black" d="M36.3623,20.9351C27.6449,29.7081 18.5734,38.8375 12.8164,44.6312"/>
</g>
<!-- 51 -->
<g id="node52" class="node"><title>51</title>
<ellipse fill="brown" stroke="black" cx="58.2655" cy="-70.4597" rx="3.5" ry="3.5"/>
<text text-anchor="middle" x="58.2655" y="-67.9597" font-family="monospace" font-size="10.00">51</text>
</g>
<!-- 6&#45;&#45;51 -->
<g id="edge54" class="edge"><title>6&#45;&#45;51</title>
<path fill="none" stroke="black" d="M59.5194,-38.2645C59.0735,-49.7143 58.6347,-60.9796 58.4135,-66.6593"/>
</g>
<!-- 54 -->
<g id="node55" class="node"><title>54</title>
<ellipse fill="brown" stroke="black" cx="-5.38305" cy="-9.62582" rx="3.5" ry="3.5"/>
<text text-anchor="middle" x="-5.38305" y="-7.12582" font-family="monospace" font-size="10.00">54</text>
</g>
<!-- 6&#45;&#45;54 -->
<g id="edge55" class="edge"><title>6&#45;&#45;54</title>
<path fill="none" stroke="black" d="M26.1887,-6.81301C14.9185,-7.8171 3.88841,-8.7998 -1.66739,-9.29478"/>
</g>
<!-- anon_6_27_0 -->
<g id="node65" class="node"><title>anon_6_27_0</title>
<ellipse fill="white" stroke="black" cx="62.0485" cy="82.6382" rx="2.5" ry="2.5"/>
</g>
<!-- 6&#45;&#45;anon_6_27_0 -->
<g id="edge45" class="edge"><title>6&#45;&#45;anon_6_27_0</title>
<path fill="none" stroke="black" d="M61.3394,30.9054C61.607,50.427 61.9079,72.3777 62.0113,79.923"/>
</g>
<!-- anon_6_49_0 -->
<g id="node67" class="node"><title>anon_6_49_0</title>
<ellipse fill="white" stroke="black" cx="117.209" cy="-38.9503" rx="2.5" ry="2.5"/>
</g>
<!-- 6&#45;&#45;anon_6_49_0 -->
<g id="edge51" class="edge"><title>6&#45;&#45;anon_6_49_0</title>
<path fill="none" stroke="black" d="M90.3569,-22.1623C100.581,-28.5547 110.573,-34.8018 114.93,-37.5258"/>
</g>
<!-- 57 -->
<g id="node58" class="node"><title>57</title>
<ellipse fill="black" stroke="black" cx="-42.5581" cy="-99.4076" rx="6" ry="6"/>
<text text-anchor="middle" x="-42.5581" y="-96.9076" font-family="monospace" font-size="10.00">57</text>
</g>
<!-- 8&#45;&#45;57 -->
<g id="edge56" class="edge"><title>8&#45;&#45;57</title>
<path fill="none" stroke="black" d="M-11.3464,-66.0654C-18.174,-73.359 -31.311,-87.3927 -38.1604,-94.7097"/>
</g>
<!-- 9 -->
<g id="node10" class="node"><title>9</title>
<ellipse fill="deepskyblue" stroke="black" cx="-13.7528" cy="-239.856" rx="3.5" ry="3.5"/>
<text text-anchor="middle" x="-13.7528" y="-237.356" font-family="monospace" font-size="10.00">9</text>
</g>
<!-- 15 -->
<g id="node16" class="node"><title>15</title>
<path fill="#98f5ff" stroke="black" stroke-width="0.5" d="M-27.4612,-180.409C-27.4612,-180.409 -9.46123,-180.409 -9.46123,-180.409 -9.46123,-181.069 -9.49752,-181.728 -9.56994,-182.384 -9.64235,-183.04 -9.75078,-183.691 -9.89473,-184.335 -10.0387,-184.979 -10.2179,-185.615 -10.4317,-186.239 -10.6454,-186.864 -10.8934,-187.476 -11.1743,-188.073 -11.4553,-188.67 -11.7689,-189.251 -12.1137,-189.814 -12.4585,-190.377 -12.834,-190.92 -13.2384,-191.441 -13.6429,-191.963 -14.0757,-192.461 -14.535,-192.935 -14.9942,-193.409 -15.4791,-193.858 -15.9876,-194.278 -16.4961,-194.699 -17.0273,-195.091 -17.5788,-195.453 -18.1304,-195.816 -18.7014,-196.147 -19.2894,-196.447 -19.8774,-196.747 -20.4814,-197.014 -21.0987,-197.247 -21.716,-197.48 -22.3456,-197.679 -22.9848,-197.843 -23.624,-198.008 -24.2717,-198.136 -24.925,-198.229 -25.5783,-198.322 -26.2363,-198.379 -26.8958,-198.4 -27.5554,-198.421 -28.2156,-198.405 -28.8735,-198.353 -29.5314,-198.302 -30.1859,-198.214 -30.8341,-198.09 -30.8341,-198.09 -27.4612,-180.409 -27.4612,-180.409"/>
<path fill="deepskyblue" stroke="black" stroke-width="0.5" d="M-27.4612,-180.409C-27.4612,-180.409 -30.8341,-198.09 -30.8341,-198.09 -31.6676,-197.931 -32.4889,-197.713 -33.2917,-197.438 -34.0946,-197.164 -34.877,-196.832 -35.6331,-196.447 -36.3892,-196.062 -37.1171,-195.624 -37.8113,-195.136 -38.5056,-194.648 -39.1645,-194.111 -39.7831,-193.53 -40.4017,-192.949 -40.9784,-192.326 -41.509,-191.663 -42.0396,-191.001 -42.5226,-190.302 -42.9546,-189.572 -43.3866,-188.841 -43.7663,-188.081 -44.0911,-187.297 -44.4158,-186.513 -44.6847,-185.707 -44.8957,-184.885 -45.1068,-184.063 -45.2594,-183.228 -45.3525,-182.384 -45.4456,-181.541 -45.479,-180.692 -45.4524,-179.844 -45.4257,-178.995 -45.3391,-178.15 -45.1932,-177.314 -45.0473,-176.478 -44.8425,-175.654 -44.5802,-174.847 -44.318,-174.04 -43.9991,-173.252 -43.6257,-172.49 -43.2524,-171.728 -42.8257,-170.993 -42.3487,-170.291 -41.8717,-169.59 -41.3457,-168.922 -40.7746,-168.295 -40.2035,-167.667 -39.5887,-167.081 -38.9349,-166.54 -38.281,-165.999 -37.5897,-165.505 -36.8662,-165.061 -36.1427,-164.618 -35.3887,-164.226 -34.6099,-163.889 -33.8311,-163.552 -33.0295,-163.271 -32.2109,-163.047 -31.3924,-162.823 -30.5591,-162.657 -29.7172,-162.551 -28.8753,-162.444 -28.027,-162.398 -27.1785,-162.411 -26.33,-162.424 -25.4835,-162.498 -24.6454,-162.631 -23.8073,-162.763 -22.9796,-162.955 -22.1685,-163.205 -21.3574,-163.454 -20.565,-163.761 -19.7972,-164.122 -19.0294,-164.483 -18.2881,-164.898 -17.5788,-165.364 -16.8696,-165.83 -16.1942,-166.346 -15.5576,-166.907 -14.9211,-167.468 -14.325,-168.074 -13.7739,-168.719 -13.2228,-169.364 -12.718,-170.048 -12.2633,-170.764 -11.8086,-171.481 -11.4052,-172.228 -11.056,-173.002 -10.7068,-173.775 -10.4127,-174.572 -10.1759,-175.387 -9.9392,-176.202 -9.76037,-177.033 -9.64081,-177.873 -9.52124,-178.713 -9.46123,-179.56 -9.46123,-180.409 -9.46123,-180.409 -27.4612,-180.409 -27.4612,-180.409"/>
<ellipse fill="none" stroke="black" cx="-27.4612" cy="-180.409" rx="18" ry="18"/>
<text text-anchor="middle" x="-27.4612" y="-177.909" font-family="monospace" font-size="10.00">15</text>
</g>
<!-- 9&#45;&#45;15 -->
<g id="edge57" class="edge"><title>9&#45;&#45;15</title>
<path fill="none" stroke="black" d="M-14.5692,-236.315C-16.2639,-228.966 -20.2632,-211.623 -23.3616,-198.187"/>
</g>
<!-- 11&#45;&#45;48 -->
<g id="edge73" class="edge"><title>11&#45;&#45;48</title>
<path fill="none" stroke="black" stroke-dasharray="5,2" d="M128.242,101.25C126.211,93.132 121.126,72.8065 118.568,62.5814"/>
</g>
<!-- 12 -->
<g id="node13" class="node"><title>12</title>
<ellipse fill="deepskyblue" stroke="black" cx="-85.3767" cy="-200.484" rx="3.5" ry="3.5"/>
<text text-anchor="middle" x="-85.3767" y="-197.984" font-family="monospace" font-size="10.00">12</text>
</g>
<!-- 12&#45;&#45;15 -->
<g id="edge58" class="edge"><title>12&#45;&#45;15</title>
<path fill="none" stroke="black" d="M-81.9272,-199.288C-74.7191,-196.79 -57.6413,-190.87 -44.5148,-186.32"/>
</g>
<!-- 28 -->
<g id="node29" class="node"><title>28</title>
<ellipse fill="#ff3030" stroke="black" cx="94.418" cy="124.368" rx="3.5" ry="3.5"/>
<text text-anchor="middle" x="94.418" y="126.868" font-family="monospace" font-size="10.00">28</text>
</g>
<!-- 13&#45;&#45;28 -->
<g id="edge59" class="edge"><title>13&#45;&#45;28</title>
<path fill="none" stroke="black" d="M79.936,82.8591C83.7074,93.6687 90.4251,112.923 93.1836,120.83"/>
</g>
<!-- 14&#45;&#45;15 -->
<g id="edge60" class="edge"><title>14&#45;&#45;15</title>
<path fill="none" stroke="black" d="M14.2344,-121.24C7.56791,-130.701 -7.05282,-151.448 -17.0809,-165.679"/>
</g>
<!-- anon_14_20_0 -->
<g id="node68" class="node"><title>anon_14_20_0</title>
<ellipse fill="white" stroke="black" cx="34.6394" cy="-162.374" rx="2.5" ry="2.5"/>
</g>
<!-- 14&#45;&#45;anon_14_20_0 -->
<g id="edge61" class="edge"><title>14&#45;&#45;anon_14_20_0</title>
<path fill="none" stroke="black" d="M19.8514,-121.864C23.5082,-131.881 30.9851,-152.364 33.6603,-159.692"/>
</g>
<!-- anon_15_23_0 -->
<g id="node70" class="node"><title>anon_15_23_0</title>
<ellipse fill="white" stroke="black" cx="-58.2492" cy="-238.214" rx="2.5" ry="2.5"/>
</g>
<!-- 15&#45;&#45;anon_15_23_0 -->
<g id="edge64" class="edge"><title>15&#45;&#45;anon_15_23_0</title>
<path fill="none" stroke="black" d="M-36.0374,-196.511C-43.4392,-210.408 -53.4763,-229.253 -56.98,-235.831"/>
</g>
<!-- 33 -->
<g id="node34" class="node"><title>33</title>
<ellipse fill="deepskyblue" stroke="black" cx="133.08" cy="125.399" rx="3.5" ry="3.5"/>
<text text-anchor="middle" x="133.08" y="127.899" font-family="monospace" font-size="10.00">33</text>
</g>
<!-- 19&#45;&#45;33 -->
<g id="edge67" class="edge"><title>19&#45;&#45;33</title>
<path fill="none" stroke="black" d="M110.018,85.8879C116.618,97.196 126.981,114.951 131.199,122.178"/>
</g>
<!-- 20 -->
<g id="node21" class="node"><title>20</title>
<ellipse fill="deepskyblue" stroke="black" cx="84.03" cy="-234.842" rx="3.5" ry="3.5"/>
<text text-anchor="middle" x="84.03" y="-232.342" font-family="monospace" font-size="10.00">20</text>
</g>
<!-- anon_20_31_0 -->
<g id="node73" class="node"><title>anon_20_31_0</title>
<ellipse fill="white" stroke="black" cx="111.93" cy="-201.751" rx="2.5" ry="2.5"/>
</g>
<!-- 20&#45;&#45;anon_20_31_0 -->
<g id="edge74" class="edge"><title>20&#45;&#45;anon_20_31_0</title>
<path fill="none" stroke="black" stroke-dasharray="5,2" d="M86.6048,-231.788C92.2167,-225.132 105.428,-209.463 110.185,-203.821"/>
</g>
<!-- 23 -->
<g id="node24" class="node"><title>23</title>
<ellipse fill="deepskyblue" stroke="black" cx="-93.0483" cy="-318.778" rx="3.5" ry="3.5"/>
<text text-anchor="middle" x="-93.0483" y="-316.278" font-family="monospace" font-size="10.00">23</text>
</g>
<!-- 27 -->
<g id="node28" class="node"><title>27</title>
<ellipse fill="#ff3030" stroke="black" cx="88.2698" cy="174.434" rx="5" ry="5"/>
<text text-anchor="middle" x="88.2698" y="176.934" font-family="monospace" font-size="10.00">27</text>
</g>
<!-- 32&#45;&#45;48 -->
<g id="edge77" class="edge"><title>32&#45;&#45;48</title>
<path fill="none" stroke="black" stroke-dasharray="5,2" d="M155.973,77.8114C148.738,73.8514 131.468,64.3988 122.565,59.5254"/>
</g>
<!-- 35 -->
<g id="node36" class="node"><title>35</title>
<ellipse fill="#ff3030" stroke="black" cx="-211.139" cy="-11.5963" rx="3.5" ry="3.5"/>
<text text-anchor="middle" x="-211.139" y="-9.09628" font-family="monospace" font-size="10.00">35</text>
</g>
<!-- 37 -->
<g id="node38" class="node"><title>37</title>
<ellipse fill="#ff3030" stroke="black" cx="255.715" cy="-27.0845" rx="3.5" ry="3.5"/>
<text text-anchor="middle" x="255.715" y="-24.5845" font-family="monospace" font-size="10.00">37</text>
</g>
<!-- 40 -->
<g id="node41" class="node"><title>40</title>
<ellipse fill="deepskyblue" stroke="black" cx="-232.525" cy="51.6551" rx="3.5" ry="3.5"/>
<text text-anchor="middle" x="-232.525" y="54.1551" font-family="monospace" font-size="10.00">40</text>
</g>
<!-- 41&#45;&#45;50 -->
<g id="edge78" class="edge"><title>41&#45;&#45;50</title>
<path fill="none" stroke="black" stroke-dasharray="5,2" d="M-33.2899,66.508C-26.3197,63.7574 -10.3051,57.4376 -0.760962,53.6712"/>
</g>
<!-- 42 -->
<g id="node43" class="node"><title>42</title>
<ellipse fill="#1874cd" stroke="black" cx="-107.716" cy="214.108" rx="3.5" ry="3.5"/>
<text text-anchor="middle" x="-107.716" y="216.608" font-family="monospace" font-size="10.00">42</text>
</g>
<!-- 42&#45;&#45;46 -->
<g id="edge68" class="edge"><title>42&#45;&#45;46</title>
<path fill="none" stroke="black" d="M-107.371,210.44C-106.545,201.66 -104.462,179.521 -103.65,170.889"/>
</g>
<!-- 45 -->
<g id="node46" class="node"><title>45</title>
<ellipse fill="#1874cd" stroke="black" cx="-203.408" cy="153.385" rx="3.5" ry="3.5"/>
<text text-anchor="middle" x="-203.408" y="155.885" font-family="monospace" font-size="10.00">45</text>
</g>
<!-- 49 -->
<g id="node50" class="node"><title>49</title>
<ellipse fill="brown" stroke="black" cx="153.336" cy="-62.0926" rx="3.5" ry="3.5"/>
<text text-anchor="middle" x="153.336" y="-59.5926" font-family="monospace" font-size="10.00">49</text>
</g>
<!-- 52 -->
<g id="node53" class="node"><title>52</title>
<ellipse fill="brown" stroke="black" cx="-29.4075" cy="19.3608" rx="3.5" ry="3.5"/>
<text text-anchor="middle" x="-29.4075" y="21.8608" font-family="monospace" font-size="10.00">52</text>
</g>
<!-- 50&#45;&#45;52 -->
<g id="edge69" class="edge"><title>50&#45;&#45;52</title>
<path fill="none" stroke="black" d="M0.491242,45.2315C-7.45061,38.3596 -20.7576,26.8454 -26.559,21.8255"/>
</g>
<!-- 53 -->
<g id="node54" class="node"><title>53</title>
<ellipse fill="brown" stroke="black" cx="14.87" cy="99.6833" rx="3.5" ry="3.5"/>
<text text-anchor="middle" x="14.87" y="102.183" font-family="monospace" font-size="10.00">53</text>
</g>
<!-- 50&#45;&#45;53 -->
<g id="edge70" class="edge"><title>50&#45;&#45;53</title>
<path fill="none" stroke="black" d="M8.13069,58.7789C9.92191,69.6507 13.0277,88.5014 14.3008,96.2283"/>
</g>
<!-- anon_2_37_0&#45;&#45;37 -->
<g id="edge8" class="edge"><title>anon_2_37_0&#45;&#45;37</title>
<path fill="none" stroke="black" d="M214.353,-33.9303C221.898,-32.6815 243.683,-29.0758 252.223,-27.6625"/>
</g>
<!-- anon_3_35_0&#45;&#45;35 -->
<g id="edge19" class="edge"><title>anon_3_35_0&#45;&#45;35</title>
<path fill="none" stroke="black" d="M-175.424,11.8858C-182.2,7.43047 -200.856,-4.83553 -208.156,-9.63476"/>
</g>
<!-- anon_3_40_0&#45;&#45;40 -->
<g id="edge22" class="edge"><title>anon_3_40_0&#45;&#45;40</title>
<path fill="none" stroke="black" d="M-190.228,55.9398C-197.944,55.1582 -220.221,52.9015 -228.953,52.0169"/>
</g>
<!-- anon_3_45_0&#45;&#45;45 -->
<g id="edge27" class="edge"><title>anon_3_45_0&#45;&#45;45</title>
<path fill="none" stroke="black" d="M-171.817,125.866C-177.693,130.985 -193.669,144.902 -200.378,150.745"/>
</g>
<!-- anon_6_27_1 -->
<g id="node66" class="node"><title>anon_6_27_1</title>
<ellipse fill="white" stroke="black" cx="72.4972" cy="128.786" rx="2.5" ry="2.5"/>
</g>
<!-- anon_6_27_0&#45;&#45;anon_6_27_1 -->
<g id="edge46" class="edge"><title>anon_6_27_0&#45;&#45;anon_6_27_1</title>
<path fill="none" stroke="black" d="M62.6103,85.1193C64.4075,93.0571 70.0084,117.794 71.8806,126.063"/>
</g>
<!-- anon_6_27_1&#45;&#45;27 -->
<g id="edge47" class="edge"><title>anon_6_27_1&#45;&#45;27</title>
<path fill="none" stroke="black" d="M73.3452,131.24C75.8534,138.499 83.2695,159.962 86.6079,169.624"/>
</g>
<!-- anon_6_49_0&#45;&#45;49 -->
<g id="edge52" class="edge"><title>anon_6_49_0&#45;&#45;49</title>
<path fill="none" stroke="black" d="M119.579,-40.4688C125.858,-44.4911 142.93,-55.4266 150.098,-60.0185"/>
</g>
<!-- anon_14_20_1 -->
<g id="node69" class="node"><title>anon_14_20_1</title>
<ellipse fill="white" stroke="black" cx="52.7734" cy="-203.201" rx="2.5" ry="2.5"/>
</g>
<!-- anon_14_20_0&#45;&#45;anon_14_20_1 -->
<g id="edge62" class="edge"><title>anon_14_20_0&#45;&#45;anon_14_20_1</title>
<path fill="none" stroke="black" d="M35.8292,-165.053C39.1701,-172.575 48.5979,-193.8 51.7399,-200.874"/>
</g>
<!-- anon_14_20_1&#45;&#45;20 -->
<g id="edge63" class="edge"><title>anon_14_20_1&#45;&#45;20</title>
<path fill="none" stroke="black" d="M54.8243,-205.277C60.2569,-210.777 75.0268,-225.728 81.2287,-232.006"/>
</g>
<!-- anon_15_23_1 -->
<g id="node71" class="node"><title>anon_15_23_1</title>
<ellipse fill="white" stroke="black" cx="-76.5359" cy="-278.39" rx="2.5" ry="2.5"/>
</g>
<!-- anon_15_23_0&#45;&#45;anon_15_23_1 -->
<g id="edge65" class="edge"><title>anon_15_23_0&#45;&#45;anon_15_23_1</title>
<path fill="none" stroke="black" d="M-59.449,-240.85C-62.8181,-248.252 -72.3252,-269.139 -75.4937,-276.1"/>
</g>
<!-- anon_15_23_1&#45;&#45;23 -->
<g id="edge66" class="edge"><title>anon_15_23_1&#45;&#45;23</title>
<path fill="none" stroke="black" d="M-77.6193,-281.04C-80.4893,-288.06 -88.292,-307.144 -91.5684,-315.158"/>
</g>
<!-- anon_5_37_0&#45;&#45;37 -->
<g id="edge72" class="edge"><title>anon_5_37_0&#45;&#45;37</title>
<path fill="none" stroke="black" stroke-dasharray="5,2" d="M232.303,5.15328C236.658,-0.843323 248.498,-17.1466 253.47,-23.9923"/>
</g>
<!-- anon_20_31_1 -->
<g id="node74" class="node"><title>anon_20_31_1</title>
<ellipse fill="white" stroke="black" cx="103.972" cy="-158.222" rx="2.5" ry="2.5"/>
</g>
<!-- anon_20_31_0&#45;&#45;anon_20_31_1 -->
<g id="edge75" class="edge"><title>anon_20_31_0&#45;&#45;anon_20_31_1</title>
<path fill="none" stroke="black" stroke-dasharray="5,2" d="M111.456,-199.159C110.037,-191.398 105.836,-168.417 104.434,-160.746"/>
</g>
<!-- anon_20_31_1&#45;&#45;31 -->
<g id="edge76" class="edge"><title>anon_20_31_1&#45;&#45;31</title>
<path fill="none" stroke="black" stroke-dasharray="5,2" d="M103.098,-155.557C100.751,-148.399 94.1976,-128.411 89.8795,-115.241"/>
</g>
</g>
</svg>
