<?xml version="1.0" encoding="UTF-8" standalone="no"?>
<!DOCTYPE svg PUBLIC "-//W3C//DTD SVG 1.1//EN"
 "http://www.w3.org/Graphics/SVG/1.1/DTD/svg11.dtd">
<!-- Generated by graphviz version 2.38.0 (20140413.2041)
 -->
<!-- Title: %3 Pages: 1 -->
<svg width="228pt" height="195pt"
 viewBox="0.00 0.00 228.06 195.42" xmlns="http://www.w3.org/2000/svg" xmlns:xlink="http://www.w3.org/1999/xlink">
<g id="graph0" class="graph" transform="scale(1 1) rotate(0) translate(93.0894 128.077)">
<title>%3</title>
<polygon fill="white" stroke="none" points="-93.0894,67.3472 -93.0894,-128.077 134.972,-128.077 134.972,67.3472 -93.0894,67.3472"/>
<!-- 0 -->
<g id="node1" class="node"><title>0</title>
<ellipse fill="#1874cd" stroke="black" cx="-19.5004" cy="1.42316" rx="21.5" ry="21.5"/>
<text text-anchor="middle" x="-19.5004" y="3.32316" font-family="monospace" font-size="8.00">0</text>
</g>
<!-- 4 -->
<g id="node5" class="node"><title>4</title>
<ellipse fill="#1874cd" stroke="black" cx="-65.2161" cy="55.3971" rx="3.5" ry="3.5"/>
<text text-anchor="middle" x="-65.2161" y="57.2971" font-family="monospace" font-size="8.00">4</text>
</g>
<!-- 0&#45;&gt;4 -->
<g id="edge4" class="edge"><title>0&#45;&gt;4</title>
<path fill="none" stroke="black" d="M-33.465,17.9104C-43.9683,30.311 -57.4395,46.2157 -62.8306,52.5806"/>
</g>
<!-- 5 -->
<g id="node6" class="node"><title>5</title>
<ellipse fill="#1874cd" stroke="black" cx="-85.5894" cy="-20.89" rx="3.5" ry="3.5"/>
<text text-anchor="middle" x="-85.5894" y="-18.99" font-family="monospace" font-size="8.00">5</text>
</g>
<!-- 0&#45;&gt;5 -->
<g id="edge5" class="edge"><title>0&#45;&gt;5</title>
<path fill="none" stroke="black" d="M-40.0491,-5.51455C-55.2058,-10.6318 -74.4757,-17.1378 -82.1811,-19.7393"/>
</g>
<!-- anon_0_2_0 -->
<g id="node10" class="node"><title>anon_0_2_0</title>
<ellipse fill="white" stroke="black" cx="33.6141" cy="53.6256" rx="2.5" ry="2.5"/>
</g>
<!-- 0&#45;&gt;anon_0_2_0 -->
<g id="edge9" class="edge"><title>0&#45;&gt;anon_0_2_0</title>
<path fill="none" stroke="black" stroke-dasharray="5,2" d="M-4.13746,16.5223C6.62036,27.0954 20.3779,40.6166 27.9612,48.0698"/>
<polygon fill="black" stroke="black" points="29.4637,47.0927 31.8031,51.8457 27.0103,49.589 29.4637,47.0927"/>
<text text-anchor="middle" x="-1.58811" y="29.696" font-family="monospace" font-size="8.00">G317S</text>
</g>
<!-- 1 -->
<g id="node2" class="node"><title>1</title>
<ellipse fill="#1874cd" stroke="black" cx="98.2053" cy="-75.3489" rx="9" ry="9"/>
<text text-anchor="middle" x="98.2053" y="-73.4489" font-family="monospace" font-size="8.00">1</text>
</g>
<!-- 3 -->
<g id="node4" class="node"><title>3</title>
<ellipse fill="#1874cd" stroke="black" cx="124.86" cy="-120.577" rx="3.5" ry="3.5"/>
<text text-anchor="middle" x="124.86" y="-118.677" font-family="monospace" font-size="8.00">3</text>
</g>
<!-- 1&#45;&gt;3 -->
<g id="edge8" class="edge"><title>1&#45;&gt;3</title>
<path fill="none" stroke="black" d="M102.848,-83.227C108.814,-93.3505 118.893,-110.452 123.017,-117.45"/>
</g>
<!-- anon_0_1_1 -->
<g id="node8" class="node"><title>anon_0_1_1</title>
<ellipse fill="white" stroke="black" cx="43.6927" cy="-80.239" rx="2.5" ry="2.5"/>
</g>
<!-- 1&#45;&gt;anon_0_1_1 -->
<g id="edge3" class="edge"><title>1&#45;&gt;anon_0_1_1</title>
<path fill="none" stroke="black" d="M89.2037,-76.1564C78.7859,-77.091 61.7832,-78.6162 51.7734,-79.5142"/>
<polygon fill="black" stroke="black" points="51.3895,-77.7915 46.5659,-79.9813 51.7023,-81.2775 51.3895,-77.7915"/>
<text text-anchor="middle" x="54.4885" y="-71.4353" font-family="monospace" font-size="8.00">I1940T</text>
</g>
<!-- anon_1_2_0 -->
<g id="node9" class="node"><title>anon_1_2_0</title>
<ellipse fill="white" stroke="black" cx="128.472" cy="-29.6479" rx="2.5" ry="2.5"/>
</g>
<!-- 1&#45;&gt;anon_1_2_0 -->
<g id="edge6" class="edge"><title>1&#45;&gt;anon_1_2_0</title>
<path fill="none" stroke="black" d="M103.203,-67.8023C108.987,-59.0685 118.428,-44.8142 123.985,-36.4224"/>
<polygon fill="black" stroke="black" points="125.575,-37.1917 126.877,-32.0567 122.657,-35.2591 125.575,-37.1917"/>
<text text-anchor="middle" x="100.094" y="-54.7123" font-family="monospace" font-size="8.00">G317S</text>
</g>
<!-- 2 -->
<g id="node3" class="node"><title>2</title>
<ellipse fill="#1874cd" stroke="black" cx="118.749" cy="22.85" rx="9" ry="9"/>
<text text-anchor="middle" x="118.749" y="24.75" font-family="monospace" font-size="8.00">2</text>
</g>
<!-- 2&#45;&gt;anon_1_2_0 -->
<g id="edge7" class="edge"><title>2&#45;&gt;anon_1_2_0</title>
<path fill="none" stroke="black" d="M120.442,13.7056C122.317,3.58522 125.304,-12.5435 127.058,-22.0134"/>
<polygon fill="black" stroke="black" points="125.338,-22.3383 127.97,-26.9359 128.78,-21.7008 125.338,-22.3383"/>
<text text-anchor="middle" x="107.75" y="-6.7539" font-family="monospace" font-size="8.00">S1683I</text>
</g>
<!-- anon_0_2_1 -->
<g id="node11" class="node"><title>anon_0_2_1</title>
<ellipse fill="white" stroke="black" cx="74.6921" cy="54.9057" rx="2.5" ry="2.5"/>
</g>
<!-- 2&#45;&gt;anon_0_2_1 -->
<g id="edge11" class="edge"><title>2&#45;&gt;anon_0_2_1</title>
<path fill="none" stroke="black" stroke-dasharray="5,2" d="M111.075,28.4337C102.581,34.6133 89.0461,44.4617 81.099,50.244"/>
<polygon fill="black" stroke="black" points="82.0406,51.7231 76.968,53.2498 79.9814,48.8929 82.0406,51.7231"/>
<text text-anchor="middle" x="80.0868" y="36.7389" font-family="monospace" font-size="8.00">I1940T</text>
</g>
<!-- anon_0_1_0 -->
<g id="node7" class="node"><title>anon_0_1_0</title>
<ellipse fill="white" stroke="black" cx="5.70727" cy="-53.0328" rx="2.5" ry="2.5"/>
</g>
<!-- anon_0_1_0&#45;&gt;0 -->
<g id="edge1" class="edge"><title>anon_0_1_0&#45;&gt;0</title>
<path fill="none" stroke="black" d="M4.62413,-50.6929C2.36481,-45.8121 -3.06836,-34.0749 -8.20759,-22.9726"/>
<polygon fill="black" stroke="black" points="-6.69347,-22.0775 -10.382,-18.2752 -9.86969,-23.5478 -6.69347,-22.0775"/>
<text text-anchor="middle" x="-15.2917" y="-39.4327" font-family="monospace" font-size="8.00">D466H</text>
</g>
<!-- anon_0_1_0&#45;&gt;anon_0_1_1 -->
<g id="edge2" class="edge"><title>anon_0_1_0&#45;&gt;anon_0_1_1</title>
<path fill="none" stroke="black" d="M7.74953,-54.4955C13.2625,-58.4441 28.6197,-69.4433 37.3726,-75.7124"/>
<polygon fill="black" stroke="black" points="36.3674,-77.145 41.4514,-78.6337 38.4054,-74.2995 36.3674,-77.145"/>
<text text-anchor="middle" x="6.56105" y="-67.704" font-family="monospace" font-size="8.00">S1683I</text>
</g>
<!-- anon_0_2_1&#45;&gt;anon_0_2_0 -->
<g id="edge10" class="edge"><title>anon_0_2_1&#45;&gt;anon_0_2_0</title>
<path fill="none" stroke="black" stroke-dasharray="5,2" d="M71.9968,54.8217C65.9058,54.6319 50.8835,54.1638 41.5412,53.8726"/>
<polygon fill="black" stroke="black" points="41.3162,55.6166 36.3731,53.7116 41.4253,52.1183 41.3162,55.6166"/>
<text text-anchor="middle" x="56.769" y="60.7472" font-family="monospace" font-size="8.00">D466H</text>
</g>
</g>
</svg>
