<?xml version="1.0" encoding="UTF-8" standalone="no"?>
<!DOCTYPE svg PUBLIC "-//W3C//DTD SVG 1.1//EN"
 "http://www.w3.org/Graphics/SVG/1.1/DTD/svg11.dtd">
<!-- Generated by graphviz version 2.38.0 (20140413.2041)
 -->
<!-- Title: %3 Pages: 1 -->
<svg width="176pt" height="184pt"
 viewBox="0.00 0.00 175.86 184.29" xmlns="http://www.w3.org/2000/svg" xmlns:xlink="http://www.w3.org/1999/xlink">
<g id="graph0" class="graph" transform="scale(1 1) rotate(0) translate(67.9039 113.493)">
<title>%3</title>
<polygon fill="white" stroke="none" points="-67.9039,70.7926 -67.9039,-113.493 107.959,-113.493 107.959,70.7926 -67.9039,70.7926"/>
<!-- 0 -->
<g id="node1" class="node"><title>0</title>
<path fill="#1874cd" stroke="black" stroke-width="0.5" d="M4.02402,-41.4603C4.02402,-41.4603 30.524,-41.4603 30.524,-41.4603 30.524,-42.4697 30.4664,-43.4783 30.3513,-44.4811 30.2362,-45.4839 30.064,-46.4793 29.8353,-47.4625 29.6067,-48.4456 29.3221,-49.4149 28.9829,-50.3656 28.6437,-51.3163 28.2504,-52.2468 27.8051,-53.1527 27.3597,-54.0585 26.863,-54.9381 26.3172,-55.7873 25.7715,-56.6364 25.1777,-57.4537 24.5388,-58.2351 23.8998,-59.0165 23.2167,-59.7608 22.4929,-60.4643 21.769,-61.1678 21.0055,-61.8293 20.2062,-62.4457 20.2062,-62.4457 4.02402,-41.4603 4.02402,-41.4603"/>
<path fill="olivedrab" stroke="black" stroke-width="0.5" d="M4.02402,-41.4603C4.02402,-41.4603 20.2062,-62.4457 20.2062,-62.4457 19.6192,-62.8983 19.0136,-63.3261 18.3908,-63.7279 17.768,-64.1297 17.1286,-64.5052 16.4743,-64.8535 15.82,-65.2017 15.1514,-65.5223 14.4702,-65.8145 13.7891,-66.1067 13.096,-66.3701 12.3927,-66.6042 11.6895,-66.8382 10.9767,-67.0427 10.2563,-67.217 9.53592,-67.3913 8.80853,-67.5353 8.07607,-67.6487 7.34361,-67.762 6.60671,-67.8446 5.86733,-67.8961 5.12794,-67.9477 4.38672,-67.9682 3.64562,-67.9576 2.90451,-67.947 2.16418,-67.9053 1.42657,-67.8327 0.688958,-67.76 -0.0452799,-67.6565 -0.774208,-67.5223 -1.50314,-67.3881 -2.22611,-67.2234 -2.94123,-67.0285 -3.65635,-66.8337 -4.36298,-66.609 -5.05926,-66.355 -5.75554,-66.1009 -6.44086,-65.8177 -7.1134,-65.5062 -7.78594,-65.1947 -8.44512,-64.8552 -9.08919,-64.4884 -9.73327,-64.1216 -10.3617,-63.728 -10.9727,-63.3086 -11.5838,-62.8891 -12.177,-62.4442 -12.7508,-61.975 -13.3246,-61.5059 -13.8784,-61.0128 -14.4109,-60.4972 -14.9433,-59.9816 -15.4539,-59.4439 -15.9413,-58.8855 -16.4286,-58.3271 -16.8924,-57.7485 -17.3312,-57.1512 -17.7701,-56.5539 -18.1837,-55.9385 -18.5709,-55.3065 -18.9582,-54.6745 -19.3188,-54.0266 -19.6517,-53.3644 -19.9847,-52.7022 -20.2897,-52.0264 -20.566,-51.3386 -20.8423,-50.6509 -21.0896,-49.9518 -21.3073,-49.2433 -21.525,-48.5348 -21.7128,-47.8175 -21.8704,-47.0933 -22.0279,-46.369 -22.155,-45.6385 -22.2513,-44.9036 -22.3476,-44.1687 -22.4131,-43.4301 -22.4474,-42.6897 -22.4818,-41.9493 -22.4851,-41.2078 -22.4574,-40.4672 -22.4296,-39.7265 -22.3707,-38.9874 -22.281,-38.2516 -22.1913,-37.5159 -22.0707,-36.7843 -21.9196,-36.0586 -21.7685,-35.333 -21.5871,-34.6141 -21.3757,-33.9037 -21.1644,-33.1933 -20.9233,-32.492 -20.6532,-31.8018 -20.383,-31.1116 -20.0841,-30.4331 -19.757,-29.7679 -19.43,-29.1028 -19.0752,-28.4517 -18.6936,-27.8163 -18.312,-27.1809 -17.9039,-26.5618 -17.4704,-25.9606 -17.0369,-25.3594 -16.5783,-24.7767 -16.096,-24.214 -15.6136,-23.6512 -15.1079,-23.109 -14.58,-22.5887 -14.0522,-22.0683 -13.5028,-21.5703 -12.9332,-21.0961 -12.3637,-20.6218 -11.7744,-20.1716 -11.1671,-19.7467 -10.5598,-19.3219 -9.93497,-18.9226 -9.29419,-18.5501 -8.65342,-18.1776 -7.9973,-17.8322 -7.32756,-17.5147 -6.65783,-17.1972 -5.97507,-16.908 -5.28108,-16.6477 -4.5871,-16.3874 -3.8825,-16.1564 -3.16915,-15.9552 -2.4558,-15.754 -1.73432,-15.5829 -1.00662,-15.4422 -0.278916,-15.3015 0.454368,-15.1914 1.1913,-15.1121 1.92823,-15.0329 2.66817,-14.9846 3.40915,-14.9674 4.15013,-14.9502 4.8915,-14.9641 5.63132,-15.0091 6.37113,-15.054 7.10873,-15.13 7.84218,-15.2368 8.57563,-15.3436 9.30427,-15.4811 10.0262,-15.649 10.7481,-15.8169 11.4627,-16.0149 12.168,-16.2427 12.8733,-16.4705 13.5687,-16.7278 14.2525,-17.0138 14.9362,-17.2999 15.6077,-17.6146 16.265,-17.9569 16.9224,-18.2993 17.5651,-18.6691 18.1915,-19.0653 18.8178,-19.4616 19.4273,-19.884 20.0183,-20.3313 20.6092,-20.7786 21.1811,-21.2506 21.7325,-21.7459 22.2839,-22.2412 22.8143,-22.7594 23.3223,-23.2991 23.8302,-23.8389 24.3153,-24.3997 24.7762,-24.9801 25.2372,-25.5605 25.6735,-26.16 26.0842,-26.777 26.4949,-27.394 26.8795,-28.028 27.237,-28.6772 27.5946,-29.3265 27.9247,-29.9904 28.2266,-30.6674 28.5284,-31.3443 28.8018,-32.0336 29.0458,-32.7334 29.2899,-33.4333 29.5045,-34.143 29.6891,-34.8608 29.8737,-35.5787 30.0281,-36.3039 30.1519,-37.0347 30.2756,-37.7655 30.3687,-38.5011 30.4308,-39.2397 30.4929,-39.9783 30.524,-40.7191 30.524,-41.4603 30.524,-41.4603 4.02402,-41.4603 4.02402,-41.4603"/>
<ellipse fill="none" stroke="black" cx="4.02402" cy="-41.4603" rx="26.5" ry="26.5"/>
</g>
<!-- 1 -->
<g id="node2" class="node"><title>1</title>
<ellipse fill="olivedrab" stroke="black" cx="-2.08747" cy="35.7372" rx="11" ry="11"/>
</g>
<!-- 1&#45;&#45;0 -->
<g id="edge1" class="edge"><title>1&#45;&#45;0</title>
<path fill="none" stroke="black" d="M-1.21184,24.6767C-0.399907,14.4207 0.84051,-1.24766 1.91023,-14.7598"/>
</g>
<!-- 2 -->
<g id="node3" class="node"><title>2</title>
<ellipse fill="olivedrab" stroke="black" cx="56.627" cy="12.6019" rx="9" ry="9"/>
</g>
<!-- 2&#45;&#45;0 -->
<g id="edge2" class="edge"><title>2&#45;&#45;0</title>
<path fill="none" stroke="black" d="M50.1769,5.97282C43.3731,-1.0197 32.3321,-12.3669 22.7551,-22.2097"/>
</g>
<!-- 3 -->
<g id="node4" class="node"><title>3</title>
<ellipse fill="olivedrab" stroke="black" cx="43.6204" cy="61.7926" rx="5" ry="5"/>
</g>
<!-- 3&#45;&#45;1 -->
<g id="edge3" class="edge"><title>3&#45;&#45;1</title>
<path fill="none" stroke="black" d="M39.0706,59.199C31.7545,55.0285 17.216,46.741 7.52574,41.2171"/>
</g>
<!-- 3&#45;&#45;2 -->
<g id="edge10" class="edge"><title>3&#45;&#45;2</title>
<path fill="none" stroke="black" stroke-dasharray="5,2" d="M44.9151,56.8962C47.0998,48.6338 51.5476,31.812 54.2895,21.4424"/>
</g>
<!-- 4 -->
<g id="node5" class="node"><title>4</title>
<ellipse fill="olivedrab" stroke="black" cx="-58.7524" cy="-12.3467" rx="3.5" ry="3.5"/>
</g>
<!-- 4&#45;&#45;0 -->
<g id="edge4" class="edge"><title>4&#45;&#45;0</title>
<path fill="none" stroke="black" d="M-55.3772,-13.9119C-48.7557,-16.9828 -33.5412,-24.0388 -20.1684,-30.2406"/>
</g>
<!-- 5 -->
<g id="node6" class="node"><title>5</title>
<ellipse fill="olivedrab" stroke="black" cx="100.459" cy="-9.75484" rx="3.5" ry="3.5"/>
</g>
<!-- 5&#45;&#45;2 -->
<g id="edge5" class="edge"><title>5&#45;&#45;2</title>
<path fill="none" stroke="black" d="M97.3066,-8.147C90.5541,-4.70283 74.5118,3.47962 64.7112,8.47854"/>
</g>
<!-- 6 -->
<g id="node7" class="node"><title>6</title>
<ellipse fill="olivedrab" stroke="black" cx="-20.4742" cy="-105.993" rx="3.5" ry="3.5"/>
</g>
<!-- 6&#45;&#45;0 -->
<g id="edge6" class="edge"><title>6&#45;&#45;0</title>
<path fill="none" stroke="black" d="M-19.157,-102.524C-16.573,-95.7168 -10.6356,-80.0765 -5.41696,-66.3296"/>
</g>
<!-- 7 -->
<g id="node8" class="node"><title>7</title>
<ellipse fill="olivedrab" stroke="black" cx="33.1141" cy="-104.455" rx="3.5" ry="3.5"/>
</g>
<!-- 7&#45;&#45;0 -->
<g id="edge7" class="edge"><title>7&#45;&#45;0</title>
<path fill="none" stroke="black" d="M31.5501,-101.068C28.4818,-94.4235 21.4314,-79.1561 15.2346,-65.7368"/>
</g>
<!-- 8 -->
<g id="node9" class="node"><title>8</title>
<ellipse fill="olivedrab" stroke="black" cx="73.3852" cy="-44.1903" rx="3.5" ry="3.5"/>
</g>
<!-- 8&#45;&#45;0 -->
<g id="edge8" class="edge"><title>8&#45;&#45;0</title>
<path fill="none" stroke="black" d="M69.656,-44.0435C62.3399,-43.7555 45.5295,-43.0939 30.754,-42.5124"/>
</g>
<!-- 8&#45;&#45;5 -->
<g id="edge11" class="edge"><title>8&#45;&#45;5</title>
<path fill="none" stroke="black" stroke-dasharray="5,2" d="M75.8837,-41.0124C81.1198,-34.3524 93.174,-19.0206 98.1971,-12.6316"/>
</g>
<!-- 9 -->
<g id="node10" class="node"><title>9</title>
<ellipse fill="olivedrab" stroke="black" cx="-60.4039" cy="-66.1065" rx="3.5" ry="3.5"/>
</g>
<!-- 9&#45;&#45;0 -->
<g id="edge9" class="edge"><title>9&#45;&#45;0</title>
<path fill="none" stroke="black" d="M-56.94,-64.7814C-50.1442,-62.1818 -34.5294,-56.2085 -20.8048,-50.9583"/>
</g>
</g>
</svg>
