<?xml version="1.0" encoding="UTF-8" standalone="no"?>
<!DOCTYPE svg PUBLIC "-//W3C//DTD SVG 1.1//EN"
 "http://www.w3.org/Graphics/SVG/1.1/DTD/svg11.dtd">
<!-- Generated by graphviz version 2.38.0 (20140413.2041)
 -->
<!-- Title: %3 Pages: 1 -->
<svg width="333pt" height="334pt"
 viewBox="0.00 0.00 332.65 334.29" xmlns="http://www.w3.org/2000/svg" xmlns:xlink="http://www.w3.org/1999/xlink">
<g id="graph0" class="graph" transform="scale(1 1) rotate(0) translate(188.269 201.721)">
<title>%3</title>
<polygon fill="white" stroke="none" points="-188.269,132.57 -188.269,-201.721 144.376,-201.721 144.376,132.57 -188.269,132.57"/>
<!-- 0 -->
<g id="node1" class="node"><title>0</title>
<path fill="#787878" stroke="black" stroke-width="0.5" d="M16.477,5.84296C16.477,5.84296 74.477,5.84296 74.477,5.84296 74.477,4.38275 74.4219,2.92307 74.3117,1.46702 74.2015,0.010972 74.0364,-1.4404 73.8167,-2.88398 73.597,-4.32756 73.3229,-5.76234 72.9949,-7.18523 72.6669,-8.60812 72.2852,-10.0181 71.8508,-11.4122 71.4164,-12.8063 70.9295,-14.1835 70.3911,-15.5408 69.8528,-16.8982 69.2634,-18.2347 68.6241,-19.5476 67.9849,-20.8604 67.2963,-22.1487 66.5599,-23.4096 65.8234,-24.6704 65.0396,-25.9031 64.2101,-27.1048 63.3806,-28.3065 62.506,-29.4765 61.5882,-30.6122 60.6704,-31.7479 59.7101,-32.8486 58.7092,-33.9118 57.7083,-34.9751 56.6677,-36.0001 55.5894,-36.9848 54.5112,-37.9695 53.3962,-38.9131 52.2467,-39.8137 51.0973,-40.7142 49.9142,-41.571 48.7001,-42.3823 47.486,-43.1935 46.2416,-43.9586 44.9698,-44.676 43.6979,-45.3933 42.3994,-46.0623 41.0771,-46.6817 39.7547,-47.301 38.4094,-47.8702 37.0441,-48.388 35.6788,-48.9058 34.2944,-49.3718 32.8939,-49.7851 31.4934,-50.1985 30.0778,-50.5587 28.6501,-50.8652 27.2224,-51.1717 25.7837,-51.4241 24.3369,-51.622 22.8902,-51.8199 21.4365,-51.9631 19.979,-52.0512 18.5214,-52.1394 17.0611,-52.1725 15.601,-52.1504 14.141,-52.1284 12.6823,-52.0512 11.2281,-51.919 9.77386,-51.7869 8.32516,-51.5999 6.88505,-51.3584 5.44495,-51.1169 4.01448,-50.8211 2.59671,-50.4717 1.17893,-50.1222 -0.225146,-49.7193 -1.61252,-49.2639 -2.99989,-48.8085 -4.36957,-48.3008 -5.71862,-47.7421 -7.06768,-47.1833 -8.39515,-46.5737 -9.69821,-45.9147 -11.0013,-45.2557 -12.279,-44.5478 -13.5286,-43.7924 -14.7782,-43.0369 -15.9988,-42.2346 -17.1879,-41.387 -18.377,-40.5395 -19.5336,-39.6473 -20.6553,-38.7125 -21.7771,-37.7777 -22.8631,-36.8008 -23.9111,-35.784 -24.9591,-34.7672 -25.9683,-33.7111 -26.9366,-32.6182 -26.9366,-32.6182 16.477,5.84296 16.477,5.84296"/>
<path fill="palegreen" stroke="black" stroke-width="0.5" d="M16.477,5.84296C16.477,5.84296 -26.9366,-32.6182 -26.9366,-32.6182 -28.4862,-30.8691 -29.9286,-29.0279 -31.256,-27.1048 -32.5835,-25.1817 -33.7935,-23.1801 -34.8794,-21.111 -35.9654,-19.0419 -36.9253,-16.909 -37.7539,-14.7241 -38.5826,-12.5392 -39.2784,-10.3062 -39.8376,-8.03734 -40.3968,-5.76848 -40.8184,-3.46789 -41.1001,-1.14816 -41.3818,1.17157 -41.523,3.5062 -41.523,5.84296 -41.523,8.17973 -41.3818,10.5144 -41.1001,12.8341 -40.8184,15.1538 -40.3968,17.4544 -39.8376,19.7233 -39.2784,21.9921 -38.5826,24.2251 -37.7539,26.41 -36.9253,28.595 -35.9654,30.7278 -34.8794,32.7969 -33.7935,34.866 -32.5835,36.8676 -31.256,38.7907 -29.9286,40.7138 -28.4862,42.555 -26.9366,44.3041 -25.387,46.0532 -23.7332,47.707 -21.9841,49.2566 -20.235,50.8061 -18.3939,52.2486 -16.4707,53.576 -14.5476,54.9035 -12.546,56.1135 -10.4769,57.1994 -8.40782,58.2854 -6.27498,59.2453 -4.09007,60.0739 -1.90515,60.9025 0.327845,61.5984 2.59671,62.1576 4.86557,62.7168 7.16616,63.1384 9.48589,63.4201 11.8056,63.7017 14.1403,63.843 16.477,63.843 18.8138,63.843 21.1484,63.7017 23.4681,63.4201 25.7879,63.1384 28.0885,62.7168 30.3573,62.1576 32.6262,61.5984 34.8592,60.9025 37.0441,60.0739 39.229,59.2453 41.3619,58.2854 43.431,57.1994 45.5001,56.1135 47.5017,54.9035 49.4248,53.576 51.3479,52.2486 53.189,50.8061 54.9381,49.2566 56.6872,47.707 58.3411,46.0532 59.8906,44.3041 61.4402,42.555 62.8826,40.7138 64.2101,38.7907 65.5375,36.8676 66.7475,34.866 67.8335,32.7969 68.9194,30.7278 69.8793,28.595 70.708,26.41 71.5366,24.2251 72.2324,21.9921 72.7916,19.7233 73.3509,17.4544 73.7725,15.1538 74.0541,12.8341 74.3358,10.5144 74.477,8.17973 74.477,5.84296 74.477,5.84296 16.477,5.84296 16.477,5.84296"/>
<ellipse fill="none" stroke="black" cx="16.477" cy="5.84296" rx="58" ry="58"/>
</g>
<!-- 1 -->
<g id="node2" class="node"><title>1</title>
<ellipse fill="palegreen" stroke="black" cx="65.4121" cy="-132.503" rx="18.5" ry="18.5"/>
</g>
<!-- 0&#45;&#45;1 -->
<g id="edge1" class="edge"><title>0&#45;&#45;1</title>
<path fill="none" stroke="black" d="M35.9581,-49.2324C44.2206,-72.5914 53.2753,-98.1904 59.134,-114.754"/>
</g>
<!-- 4 -->
<g id="node5" class="node"><title>4</title>
<ellipse fill="palegreen" stroke="black" cx="83.3805" cy="-192.721" rx="5" ry="5"/>
</g>
<!-- 1&#45;&#45;4 -->
<g id="edge2" class="edge"><title>1&#45;&#45;4</title>
<path fill="none" stroke="black" d="M70.7061,-150.244C74.557,-163.15 79.5028,-179.726 81.9196,-187.825"/>
</g>
<!-- 2 -->
<g id="node3" class="node"><title>2</title>
<ellipse fill="#787878" stroke="black" cx="-122.149" cy="51.1088" rx="16" ry="16"/>
</g>
<!-- 2&#45;&#45;0 -->
<g id="edge3" class="edge"><title>2&#45;&#45;0</title>
<path fill="none" stroke="black" d="M-106.784,46.0916C-90.3589,40.7283 -63.3563,31.9111 -38.805,23.8943"/>
</g>
<!-- 3 -->
<g id="node4" class="node"><title>3</title>
<ellipse fill="#787878" stroke="black" cx="-22.7966" cy="-94.7318" rx="5" ry="5"/>
</g>
<!-- 3&#45;&#45;0 -->
<g id="edge4" class="edge"><title>3&#45;&#45;0</title>
<path fill="none" stroke="black" d="M-20.9023,-89.8808C-17.8072,-81.9546 -11.3361,-65.3828 -4.63454,-48.2211"/>
</g>
<!-- 5 -->
<g id="node6" class="node"><title>5</title>
<ellipse fill="#787878" stroke="black" cx="-179.269" cy="23.9593" rx="5" ry="5"/>
</g>
<!-- 5&#45;&#45;2 -->
<g id="edge5" class="edge"><title>5&#45;&#45;2</title>
<path fill="none" stroke="black" d="M-174.399,26.274C-166.197,30.1723 -149.315,38.1966 -136.952,44.073"/>
</g>
<!-- 6 -->
<g id="node7" class="node"><title>6</title>
<ellipse fill="#787878" stroke="black" cx="-148.878" cy="108.445" rx="5" ry="5"/>
</g>
<!-- 6&#45;&#45;2 -->
<g id="edge6" class="edge"><title>6&#45;&#45;2</title>
<path fill="none" stroke="black" d="M-146.599,103.556C-142.761,95.3237 -134.861,78.3775 -129.076,65.9674"/>
</g>
<!-- 7 -->
<g id="node8" class="node"><title>7</title>
<ellipse fill="#787878" stroke="black" cx="135.376" cy="20.9781" rx="5" ry="5"/>
</g>
<!-- 7&#45;&#45;0 -->
<g id="edge7" class="edge"><title>7&#45;&#45;0</title>
<path fill="none" stroke="black" d="M130.267,20.3277C120.266,19.0546 97.0801,16.1032 74.2287,13.1944"/>
</g>
<!-- 8 -->
<g id="node9" class="node"><title>8</title>
<ellipse fill="palegreen" stroke="black" cx="-16.8656" cy="103.067" rx="5" ry="5"/>
</g>
<!-- 8&#45;&#45;0 -->
<g id="edge8" class="edge"><title>8&#45;&#45;0</title>
<path fill="none" stroke="black" d="M-15.1663,98.1123C-12.6714,90.8374 -7.74236,76.4647 -2.50309,61.1874"/>
</g>
<!-- 9 -->
<g id="node10" class="node"><title>9</title>
<ellipse fill="palegreen" stroke="black" cx="47.9664" cy="123.57" rx="5" ry="5"/>
</g>
<!-- 9&#45;&#45;0 -->
<g id="edge9" class="edge"><title>9&#45;&#45;0</title>
<path fill="none" stroke="black" d="M46.6134,118.512C43.9294,108.477 37.6597,85.037 31.53,62.1206"/>
</g>
<!-- 10 -->
<g id="node11" class="node"><title>10</title>
<ellipse fill="#787878" stroke="black" cx="104.902" cy="83.4161" rx="5" ry="5"/>
</g>
<!-- 10&#45;&#45;0 -->
<g id="edge10" class="edge"><title>10&#45;&#45;0</title>
<path fill="none" stroke="black" d="M101.102,80.0828C93.7639,73.6449 76.8793,58.8324 60.1066,44.1182"/>
</g>
<!-- 11 -->
<g id="node12" class="node"><title>11</title>
<ellipse fill="palegreen" stroke="black" cx="-73.181" cy="-56.8089" rx="5" ry="5"/>
</g>
<!-- 11&#45;&#45;0 -->
<g id="edge11" class="edge"><title>11&#45;&#45;0</title>
<path fill="none" stroke="black" d="M-68.8566,-53.7871C-61.7208,-48.8007 -46.7244,-38.3214 -31.2642,-27.518"/>
</g>
<!-- 12 -->
<g id="node13" class="node"><title>12</title>
<ellipse fill="#787878" stroke="black" cx="109.625" cy="-43.6229" rx="5" ry="5"/>
</g>
<!-- 12&#45;&#45;0 -->
<g id="edge12" class="edge"><title>12&#45;&#45;0</title>
<path fill="none" stroke="black" d="M105.132,-41.2371C98.0093,-37.4545 83.3479,-29.6686 67.9634,-21.4987"/>
</g>
</g>
</svg>
