<?xml version="1.0" encoding="UTF-8" standalone="no"?>
<!DOCTYPE svg PUBLIC "-//W3C//DTD SVG 1.1//EN"
 "http://www.w3.org/Graphics/SVG/1.1/DTD/svg11.dtd">
<!-- Generated by graphviz version 2.38.0 (20140413.2041)
 -->
<!-- Title: %3 Pages: 1 -->
<svg width="292pt" height="430pt"
 viewBox="0.00 0.00 292.18 429.59" xmlns="http://www.w3.org/2000/svg" xmlns:xlink="http://www.w3.org/1999/xlink">
<g id="graph0" class="graph" transform="scale(1 1) rotate(0) translate(98.6337 220.579)">
<title>%3</title>
<polygon fill="white" stroke="none" points="-98.6337,209.009 -98.6337,-220.579 193.542,-220.579 193.542,209.009 -98.6337,209.009"/>
<!-- 0 -->
<g id="node1" class="node"><title>0</title>
<path fill="#1874cd" stroke="black" stroke-width="0.5" d="M-43.4525,-122.288C-43.4525,-122.288 -31.4525,-122.288 -31.4525,-122.288 -31.4525,-122.86 -31.4933,-123.431 -31.5746,-123.996 -31.6559,-124.562 -31.7776,-125.121 -31.9385,-125.669 -32.0995,-126.217 -32.2995,-126.754 -32.5369,-127.273 -32.7743,-127.793 -33.0485,-128.295 -33.3574,-128.776 -33.6664,-129.257 -34.0093,-129.715 -34.3835,-130.147 -34.7577,-130.579 -35.1623,-130.983 -35.5941,-131.357 -36.026,-131.732 -36.484,-132.074 -36.9648,-132.383 -37.4455,-132.692 -37.9477,-132.967 -38.4675,-133.204 -38.9873,-133.441 -39.5234,-133.641 -40.0717,-133.802 -40.62,-133.963 -41.1791,-134.085 -41.7447,-134.166 -42.3103,-134.248 -42.881,-134.288 -43.4525,-134.288 -44.0239,-134.288 -44.5946,-134.248 -45.1602,-134.166 -45.7259,-134.085 -46.285,-133.963 -46.8333,-133.802 -47.3815,-133.641 -47.9176,-133.441 -48.4374,-133.204 -48.9572,-132.967 -49.4594,-132.692 -49.9402,-132.383 -50.4209,-132.074 -50.8789,-131.732 -51.3108,-131.357 -51.7427,-130.983 -52.1472,-130.579 -52.5215,-130.147 -52.8957,-129.715 -53.2386,-129.257 -53.5475,-128.776 -53.8565,-128.295 -54.1307,-127.793 -54.368,-127.273 -54.6054,-126.754 -54.8054,-126.217 -54.9664,-125.669 -55.1274,-125.121 -55.249,-124.562 -55.3303,-123.996 -55.4116,-123.431 -55.4525,-122.86 -55.4525,-122.288 -55.4525,-121.717 -55.4116,-121.146 -55.3303,-120.581 -55.249,-120.015 -55.1274,-119.456 -54.9664,-118.908 -54.8054,-118.359 -54.6054,-117.823 -54.368,-117.303 -54.1307,-116.784 -53.8565,-116.281 -53.5475,-115.801 -53.2386,-115.32 -52.8957,-114.862 -52.5215,-114.43 -52.1472,-113.998 -51.7427,-113.594 -51.3108,-113.219 -50.8789,-112.845 -50.4209,-112.502 -49.9402,-112.193 -49.4594,-111.884 -48.9572,-111.61 -48.4374,-111.373 -47.9176,-111.135 -47.3815,-110.935 -46.8333,-110.774 -46.285,-110.613 -45.7259,-110.492 -45.1602,-110.411 -45.1602,-110.411 -43.4525,-122.288 -43.4525,-122.288"/>
<path fill="olivedrab" stroke="black" stroke-width="0.5" d="M-43.4525,-122.288C-43.4525,-122.288 -45.1602,-110.411 -45.1602,-110.411 -44.7361,-110.35 -44.309,-110.311 -43.8808,-110.296 -43.4525,-110.281 -43.0238,-110.288 -42.5964,-110.319 -42.169,-110.35 -41.7435,-110.403 -41.3218,-110.479 -40.9001,-110.555 -40.4828,-110.654 -40.0717,-110.774 -39.6605,-110.895 -39.2561,-111.038 -38.8603,-111.202 -38.4644,-111.366 -38.0776,-111.551 -37.7015,-111.756 -37.3254,-111.962 -36.9606,-112.187 -36.6086,-112.431 -36.2566,-112.676 -35.918,-112.939 -35.5941,-113.219 -35.2703,-113.5 -34.9617,-113.798 -34.6697,-114.111 -34.3777,-114.425 -34.1028,-114.754 -33.846,-115.097 -33.5892,-115.44 -33.3509,-115.797 -33.1323,-116.165 -32.9136,-116.534 -32.7149,-116.914 -32.5369,-117.303 -32.3589,-117.693 -32.2019,-118.092 -32.0666,-118.499 -31.9312,-118.905 -31.8178,-119.319 -31.7267,-119.738 -31.6356,-120.156 -31.567,-120.58 -31.5212,-121.006 -31.4754,-121.432 -31.4525,-121.86 -31.4525,-122.288 -31.4525,-122.288 -43.4525,-122.288 -43.4525,-122.288"/>
<ellipse fill="none" stroke="black" cx="-43.4525" cy="-122.288" rx="12" ry="12"/>
</g>
<!-- 1 -->
<g id="node2" class="node"><title>1</title>
<path fill="#1874cd" stroke="black" stroke-width="0.5" d="M17.2374,-104.901C17.2374,-104.901 31.2374,-104.901 31.2374,-104.901 31.2374,-105.757 31.1589,-106.611 31.003,-107.453 30.847,-108.294 30.6142,-109.119 30.3075,-109.918 30.0008,-110.717 29.6215,-111.487 29.1744,-112.216 28.7272,-112.946 28.2141,-113.633 27.6414,-114.269 27.0688,-114.905 26.439,-115.487 25.7601,-116.008 25.0811,-116.529 24.3558,-116.987 23.5933,-117.375 22.8307,-117.764 22.0342,-118.082 21.2136,-118.325 20.393,-118.568 19.5519,-118.735 18.7008,-118.825 17.8497,-118.914 16.9921,-118.925 16.139,-118.858 15.2858,-118.791 14.4406,-118.646 13.6139,-118.424 12.7873,-118.203 11.9827,-117.906 11.2102,-117.537 10.4378,-117.169 9.70077,-116.731 9.00841,-116.228 8.31604,-115.724 7.67126,-115.159 7.08216,-114.538 6.49306,-113.917 5.96212,-113.244 5.49601,-112.526 5.02991,-111.808 4.63059,-111.049 4.30309,-110.259 3.97558,-109.468 3.72127,-108.649 3.54333,-107.812 3.54333,-107.812 17.2374,-104.901 17.2374,-104.901"/>
<path fill="olivedrab" stroke="black" stroke-width="0.5" d="M17.2374,-104.901C17.2374,-104.901 3.54333,-107.812 3.54333,-107.812 3.44171,-107.334 3.36519,-106.851 3.31409,-106.365 3.263,-105.879 3.2374,-105.39 3.2374,-104.901 3.2374,-104.412 3.263,-103.924 3.31409,-103.438 3.36519,-102.952 3.44171,-102.469 3.54333,-101.99 3.64496,-101.512 3.77156,-101.04 3.92261,-100.575 4.07366,-100.11 4.24895,-99.6535 4.44776,-99.207 4.64658,-98.7604 4.86864,-98.3246 5.11305,-97.9013 5.35745,-97.4779 5.62385,-97.0677 5.91116,-96.6723 6.19848,-96.2768 6.5063,-95.8967 6.83337,-95.5334 7.16045,-95.1702 7.50632,-94.8243 7.86957,-94.4972 8.23282,-94.1702 8.61296,-93.8623 9.00841,-93.575 9.40386,-93.2877 9.81408,-93.0213 10.2374,-92.7769 10.6607,-92.5325 11.0965,-92.3104 11.5431,-92.1116 11.9896,-91.9128 12.4463,-91.7375 12.9112,-91.5865 13.376,-91.4354 13.8485,-91.3088 14.3266,-91.2072 14.8048,-91.1056 15.2879,-91.0291 15.774,-90.978 16.2601,-90.9269 16.7486,-90.9013 17.2374,-90.9013 17.7262,-90.9013 18.2147,-90.9269 18.7008,-90.978 19.1869,-91.0291 19.67,-91.1056 20.1482,-91.2072 20.6263,-91.3088 21.0988,-91.4354 21.5636,-91.5865 22.0285,-91.7375 22.4852,-91.9128 22.9317,-92.1116 23.3783,-92.3104 23.8141,-92.5325 24.2374,-92.7769 24.6607,-93.0213 25.0709,-93.2877 25.4664,-93.575 25.8618,-93.8623 26.242,-94.1702 26.6052,-94.4972 26.9685,-94.8243 27.3144,-95.1702 27.6414,-95.5334 27.9685,-95.8967 28.2763,-96.2768 28.5636,-96.6723 28.851,-97.0677 29.1174,-97.4779 29.3618,-97.9013 29.6062,-98.3246 29.8282,-98.7604 30.027,-99.207 30.2259,-99.6535 30.4011,-100.11 30.5522,-100.575 30.7032,-101.04 30.8298,-101.512 30.9315,-101.99 31.0331,-102.469 31.1096,-102.952 31.1607,-103.438 31.2118,-103.924 31.2374,-104.412 31.2374,-104.901 31.2374,-104.901 17.2374,-104.901 17.2374,-104.901"/>
<ellipse fill="none" stroke="black" cx="17.2374" cy="-104.901" rx="14" ry="14"/>
</g>
<!-- 0&#45;&#45;1 -->
<g id="edge1" class="edge"><title>0&#45;&#45;1</title>
<path fill="none" stroke="black" d="M-31.7508,-118.936C-21.6929,-116.054 -7.1736,-111.895 3.44696,-108.852"/>
</g>
<!-- 8 -->
<g id="node9" class="node"><title>8</title>
<ellipse fill="olivedrab" stroke="black" cx="-91.1337" cy="-143.054" rx="3.5" ry="3.5"/>
</g>
<!-- 0&#45;&#45;8 -->
<g id="edge2" class="edge"><title>0&#45;&#45;8</title>
<path fill="none" stroke="black" d="M-54.5113,-127.105C-65.2956,-131.801 -81.0338,-138.655 -87.8187,-141.61"/>
</g>
<!-- 2 -->
<g id="node3" class="node"><title>2</title>
<ellipse fill="#1874cd" stroke="black" cx="63.0557" cy="-140.918" rx="6" ry="6"/>
</g>
<!-- 1&#45;&#45;2 -->
<g id="edge3" class="edge"><title>1&#45;&#45;2</title>
<path fill="none" stroke="black" d="M28.3287,-113.62C37.8631,-121.115 51.1582,-131.566 58.2119,-137.11"/>
</g>
<!-- 5 -->
<g id="node6" class="node"><title>5</title>
<ellipse fill="olivedrab" stroke="black" cx="37.5846" cy="-154.815" rx="3.5" ry="3.5"/>
</g>
<!-- 1&#45;&#45;5 -->
<g id="edge7" class="edge"><title>1&#45;&#45;5</title>
<path fill="none" stroke="black" d="M22.5834,-118.016C27.199,-129.338 33.5404,-144.894 36.2594,-151.564"/>
</g>
<!-- 6 -->
<g id="node7" class="node"><title>6</title>
<ellipse fill="olivedrab" stroke="black" cx="13.995" cy="-158.416" rx="3.5" ry="3.5"/>
</g>
<!-- 1&#45;&#45;6 -->
<g id="edge8" class="edge"><title>1&#45;&#45;6</title>
<path fill="none" stroke="black" d="M16.3855,-118.962C15.665,-130.853 14.6806,-147.1 14.2335,-154.481"/>
</g>
<!-- 7 -->
<g id="node8" class="node"><title>7</title>
<ellipse fill="olivedrab" stroke="black" cx="63.88" cy="-78.2476" rx="3.5" ry="3.5"/>
</g>
<!-- 1&#45;&#45;7 -->
<g id="edge9" class="edge"><title>1&#45;&#45;7</title>
<path fill="none" stroke="black" d="M29.4922,-97.8983C39.8567,-91.9756 54.0176,-83.8834 60.4502,-80.2075"/>
</g>
<!-- 9 -->
<g id="node10" class="node"><title>9</title>
<ellipse fill="olivedrab" stroke="black" cx="-11.1757" cy="-59.495" rx="3.5" ry="3.5"/>
</g>
<!-- 1&#45;&#45;9 -->
<g id="edge10" class="edge"><title>1&#45;&#45;9</title>
<path fill="none" stroke="black" d="M9.77218,-92.9713C3.45844,-82.8815 -5.1679,-69.096 -9.08646,-62.8339"/>
</g>
<!-- anon_1_3_0 -->
<g id="node17" class="node"><title>anon_1_3_0</title>
<ellipse fill="white" stroke="black" cx="-17.358" cy="-144.915" rx="2.5" ry="2.5"/>
</g>
<!-- 1&#45;&#45;anon_1_3_0 -->
<g id="edge4" class="edge"><title>1&#45;&#45;anon_1_3_0</title>
<path fill="none" stroke="black" d="M7.78404,-115.835C-0.378408,-125.276 -11.4974,-138.137 -15.6777,-142.972"/>
</g>
<!-- anon_1_11_0 -->
<g id="node19" class="node"><title>anon_1_11_0</title>
<ellipse fill="white" stroke="black" cx="-14.3509" cy="-60.0523" rx="2.5" ry="2.5"/>
</g>
<!-- 1&#45;&#45;anon_1_11_0 -->
<g id="edge11" class="edge"><title>1&#45;&#45;anon_1_11_0</title>
<path fill="none" stroke="black" d="M8.93795,-93.1177C1.47995,-82.5289 -8.8805,-67.8191 -12.7817,-62.2802"/>
</g>
<!-- anon_1_12_0 -->
<g id="node28" class="node"><title>anon_1_12_0</title>
<ellipse fill="white" stroke="black" cx="68.9116" cy="-92.2539" rx="2.5" ry="2.5"/>
</g>
<!-- 1&#45;&#45;anon_1_12_0 -->
<g id="edge27" class="edge"><title>1&#45;&#45;anon_1_12_0</title>
<path fill="none" stroke="black" stroke-dasharray="5,2" d="M31.0851,-101.512C43.2825,-98.5266 60.0605,-94.4202 66.3733,-92.8751"/>
</g>
<!-- anon_2_4_0 -->
<g id="node23" class="node"><title>anon_2_4_0</title>
<ellipse fill="white" stroke="black" cx="101.343" cy="-165.87" rx="2.5" ry="2.5"/>
</g>
<!-- 2&#45;&#45;anon_2_4_0 -->
<g id="edge16" class="edge"><title>2&#45;&#45;anon_2_4_0</title>
<path fill="none" stroke="black" d="M68.3793,-144.387C76.9269,-149.958 93.3456,-160.658 99.2021,-164.475"/>
</g>
<!-- 3 -->
<g id="node4" class="node"><title>3</title>
<ellipse fill="#1874cd" stroke="black" cx="-83.0725" cy="-190.63" rx="3.5" ry="3.5"/>
</g>
<!-- 4 -->
<g id="node5" class="node"><title>4</title>
<ellipse fill="#1874cd" stroke="black" cx="170.709" cy="-213.079" rx="3.5" ry="3.5"/>
</g>
<!-- 10 -->
<g id="node11" class="node"><title>10</title>
<ellipse fill="#1874cd" stroke="black" cx="126.254" cy="159.924" rx="21.5" ry="21.5"/>
</g>
<!-- 14 -->
<g id="node15" class="node"><title>14</title>
<ellipse fill="#1874cd" stroke="black" cx="170.607" cy="201.509" rx="3.5" ry="3.5"/>
</g>
<!-- 10&#45;&#45;14 -->
<g id="edge22" class="edge"><title>10&#45;&#45;14</title>
<path fill="none" stroke="black" d="M142.266,174.937C151.795,183.871 162.972,194.351 167.965,199.032"/>
</g>
<!-- 15 -->
<g id="node16" class="node"><title>15</title>
<ellipse fill="#1874cd" stroke="black" cx="186.042" cy="174.235" rx="3.5" ry="3.5"/>
</g>
<!-- 10&#45;&#45;15 -->
<g id="edge23" class="edge"><title>10&#45;&#45;15</title>
<path fill="none" stroke="black" d="M147.165,164.929C160.096,168.024 175.499,171.711 182.392,173.361"/>
</g>
<!-- anon_10_11_0 -->
<g id="node25" class="node"><title>anon_10_11_0</title>
<ellipse fill="white" stroke="black" cx="66.0499" cy="152.442" rx="2.5" ry="2.5"/>
</g>
<!-- 10&#45;&#45;anon_10_11_0 -->
<g id="edge19" class="edge"><title>10&#45;&#45;anon_10_11_0</title>
<path fill="none" stroke="black" d="M104.859,157.265C91.3398,155.585 75.2572,153.586 68.8679,152.792"/>
</g>
<!-- anon_10_12_0 -->
<g id="node32" class="node"><title>anon_10_12_0</title>
<ellipse fill="white" stroke="black" cx="152.119" cy="105.903" rx="2.5" ry="2.5"/>
</g>
<!-- 10&#45;&#45;anon_10_12_0 -->
<g id="edge32" class="edge"><title>10&#45;&#45;anon_10_12_0</title>
<path fill="none" stroke="black" stroke-dasharray="5,2" d="M135.592,140.421C141.38,128.332 148.212,114.064 150.924,108.4"/>
</g>
<!-- 11 -->
<g id="node12" class="node"><title>11</title>
<ellipse fill="#1874cd" stroke="black" cx="-4.03533" cy="99.79" rx="9" ry="9"/>
</g>
<!-- 13 -->
<g id="node14" class="node"><title>13</title>
<ellipse fill="#1874cd" stroke="black" cx="-37.9057" cy="135.056" rx="3.5" ry="3.5"/>
</g>
<!-- 11&#45;&#45;13 -->
<g id="edge26" class="edge"><title>11&#45;&#45;13</title>
<path fill="none" stroke="black" d="M-10.5659,106.59C-18.1014,114.436 -30.1243,126.954 -35.3461,132.391"/>
</g>
<!-- anon_11_12_0 -->
<g id="node27" class="node"><title>anon_11_12_0</title>
<ellipse fill="white" stroke="black" cx="39.954" cy="80.9597" rx="2.5" ry="2.5"/>
</g>
<!-- 11&#45;&#45;anon_11_12_0 -->
<g id="edge24" class="edge"><title>11&#45;&#45;anon_11_12_0</title>
<path fill="none" stroke="black" d="M4.44625,96.1594C14.6325,91.799 31.1322,84.736 37.4149,82.0466"/>
</g>
<!-- 12 -->
<g id="node13" class="node"><title>12</title>
<ellipse fill="#1874cd" stroke="black" cx="80.1776" cy="54.4359" rx="9" ry="9"/>
</g>
<!-- anon_1_3_1 -->
<g id="node18" class="node"><title>anon_1_3_1</title>
<ellipse fill="white" stroke="black" cx="-43.118" cy="-177.11" rx="2.5" ry="2.5"/>
</g>
<!-- anon_1_3_0&#45;&#45;anon_1_3_1 -->
<g id="edge5" class="edge"><title>anon_1_3_0&#45;&#45;anon_1_3_1</title>
<path fill="none" stroke="black" d="M-19.0482,-147.028C-23.7046,-152.847 -36.6842,-169.069 -41.3879,-174.947"/>
</g>
<!-- anon_1_3_1&#45;&#45;3 -->
<g id="edge6" class="edge"><title>anon_1_3_1&#45;&#45;3</title>
<path fill="none" stroke="black" d="M-45.7396,-177.997C-52.6839,-180.347 -71.5639,-186.736 -79.4916,-189.418"/>
</g>
<!-- anon_1_11_1 -->
<g id="node20" class="node"><title>anon_1_11_1</title>
<ellipse fill="white" stroke="black" cx="-32.2027" cy="-21.8021" rx="2.5" ry="2.5"/>
</g>
<!-- anon_1_11_0&#45;&#45;anon_1_11_1 -->
<g id="edge12" class="edge"><title>anon_1_11_0&#45;&#45;anon_1_11_1</title>
<path fill="none" stroke="black" d="M-15.5222,-57.5426C-18.7491,-50.6285 -27.744,-31.3555 -31.0036,-24.3712"/>
</g>
<!-- anon_1_11_2 -->
<g id="node21" class="node"><title>anon_1_11_2</title>
<ellipse fill="white" stroke="black" cx="-41.67" cy="19.02" rx="2.5" ry="2.5"/>
</g>
<!-- anon_1_11_1&#45;&#45;anon_1_11_2 -->
<g id="edge13" class="edge"><title>anon_1_11_1&#45;&#45;anon_1_11_2</title>
<path fill="none" stroke="black" d="M-32.8238,-19.1236C-34.5352,-11.7446 -39.3054,8.82425 -41.0341,16.2782"/>
</g>
<!-- anon_1_11_3 -->
<g id="node22" class="node"><title>anon_1_11_3</title>
<ellipse fill="white" stroke="black" cx="-30.3717" cy="59.2442" rx="2.5" ry="2.5"/>
</g>
<!-- anon_1_11_2&#45;&#45;anon_1_11_3 -->
<g id="edge14" class="edge"><title>anon_1_11_2&#45;&#45;anon_1_11_3</title>
<path fill="none" stroke="black" d="M-40.9287,21.6592C-38.8864,28.9301 -33.1936,49.1977 -31.1305,56.5425"/>
</g>
<!-- anon_1_11_3&#45;&#45;11 -->
<g id="edge15" class="edge"><title>anon_1_11_3&#45;&#45;11</title>
<path fill="none" stroke="black" d="M-28.9557,61.4241C-25.2804,67.0825 -15.2943,82.4564 -9.13666,91.9363"/>
</g>
<!-- anon_2_4_1 -->
<g id="node24" class="node"><title>anon_2_4_1</title>
<ellipse fill="white" stroke="black" cx="136.557" cy="-187.995" rx="2.5" ry="2.5"/>
</g>
<!-- anon_2_4_0&#45;&#45;anon_2_4_1 -->
<g id="edge17" class="edge"><title>anon_2_4_0&#45;&#45;anon_2_4_1</title>
<path fill="none" stroke="black" d="M103.653,-167.322C110.019,-171.321 127.762,-182.469 134.192,-186.509"/>
</g>
<!-- anon_2_4_1&#45;&#45;4 -->
<g id="edge18" class="edge"><title>anon_2_4_1&#45;&#45;4</title>
<path fill="none" stroke="black" d="M138.798,-189.641C144.734,-194.001 160.872,-205.854 167.648,-210.831"/>
</g>
<!-- anon_10_11_1 -->
<g id="node26" class="node"><title>anon_10_11_1</title>
<ellipse fill="white" stroke="black" cx="28.0042" cy="135.586" rx="2.5" ry="2.5"/>
</g>
<!-- anon_10_11_0&#45;&#45;anon_10_11_1 -->
<g id="edge20" class="edge"><title>anon_10_11_0&#45;&#45;anon_10_11_1</title>
<path fill="none" stroke="black" d="M63.5536,151.336C56.6765,148.289 37.5065,139.796 30.5596,136.719"/>
</g>
<!-- anon_10_11_1&#45;&#45;11 -->
<g id="edge21" class="edge"><title>anon_10_11_1&#45;&#45;11</title>
<path fill="none" stroke="black" d="M26.2816,133.662C21.8103,128.666 9.66178,115.093 2.1707,106.724"/>
</g>
<!-- anon_11_12_0&#45;&#45;12 -->
<g id="edge25" class="edge"><title>anon_11_12_0&#45;&#45;12</title>
<path fill="none" stroke="black" d="M42.1166,79.5337C47.73,75.8321 62.9817,65.775 72.3863,59.5735"/>
</g>
<!-- anon_1_12_1 -->
<g id="node29" class="node"><title>anon_1_12_1</title>
<ellipse fill="white" stroke="black" cx="100.955" cy="-66.0001" rx="2.5" ry="2.5"/>
</g>
<!-- anon_1_12_0&#45;&#45;anon_1_12_1 -->
<g id="edge28" class="edge"><title>anon_1_12_0&#45;&#45;anon_1_12_1</title>
<path fill="none" stroke="black" stroke-dasharray="5,2" d="M71.0141,-90.5313C76.8062,-85.7857 92.9517,-72.5573 98.8026,-67.7634"/>
</g>
<!-- anon_1_12_2 -->
<g id="node30" class="node"><title>anon_1_12_2</title>
<ellipse fill="white" stroke="black" cx="114.323" cy="-26.9862" rx="2.5" ry="2.5"/>
</g>
<!-- anon_1_12_1&#45;&#45;anon_1_12_2 -->
<g id="edge29" class="edge"><title>anon_1_12_1&#45;&#45;anon_1_12_2</title>
<path fill="none" stroke="black" stroke-dasharray="5,2" d="M101.832,-63.4403C104.248,-56.3882 110.984,-36.7304 113.425,-29.6066"/>
</g>
<!-- anon_1_12_3 -->
<g id="node31" class="node"><title>anon_1_12_3</title>
<ellipse fill="white" stroke="black" cx="105.222" cy="13.3969" rx="2.5" ry="2.5"/>
</g>
<!-- anon_1_12_2&#45;&#45;anon_1_12_3 -->
<g id="edge30" class="edge"><title>anon_1_12_2&#45;&#45;anon_1_12_3</title>
<path fill="none" stroke="black" stroke-dasharray="5,2" d="M113.726,-24.3366C112.081,-17.0369 107.495,3.31079 105.833,10.6846"/>
</g>
<!-- anon_1_12_3&#45;&#45;12 -->
<g id="edge31" class="edge"><title>anon_1_12_3&#45;&#45;12</title>
<path fill="none" stroke="black" stroke-dasharray="5,2" d="M103.875,15.6034C100.38,21.3306 90.884,36.8915 85.0286,46.4867"/>
</g>
<!-- anon_10_12_1 -->
<g id="node33" class="node"><title>anon_10_12_1</title>
<ellipse fill="white" stroke="black" cx="120.157" cy="80.0852" rx="2.5" ry="2.5"/>
</g>
<!-- anon_10_12_0&#45;&#45;anon_10_12_1 -->
<g id="edge33" class="edge"><title>anon_10_12_0&#45;&#45;anon_10_12_1</title>
<path fill="none" stroke="black" stroke-dasharray="5,2" d="M150.022,104.209C144.245,99.5421 128.14,86.5335 122.304,81.8193"/>
</g>
<!-- anon_10_12_1&#45;&#45;12 -->
<g id="edge34" class="edge"><title>anon_10_12_1&#45;&#45;12</title>
<path fill="none" stroke="black" stroke-dasharray="5,2" d="M118.007,78.7062C112.428,75.1267 97.269,65.4012 87.9216,59.4041"/>
</g>
</g>
</svg>
