<?xml version="1.0" encoding="UTF-8" standalone="no"?>
<!DOCTYPE svg PUBLIC "-//W3C//DTD SVG 1.1//EN"
 "http://www.w3.org/Graphics/SVG/1.1/DTD/svg11.dtd">
<!-- Generated by graphviz version 2.38.0 (20140413.2041)
 -->
<!-- Title: %3 Pages: 1 -->
<svg width="359pt" height="208pt"
 viewBox="0.00 0.00 358.65 208.02" xmlns="http://www.w3.org/2000/svg" xmlns:xlink="http://www.w3.org/1999/xlink">
<g id="graph0" class="graph" transform="scale(1 1) rotate(0) translate(126.669 129.182)">
<title>%3</title>
<polygon fill="white" stroke="none" points="-126.669,78.8372 -126.669,-129.182 231.985,-129.182 231.985,78.8372 -126.669,78.8372"/>
<!-- 0 -->
<g id="node1" class="node"><title>0</title>
<path fill="#1874cd" stroke="black" stroke-width="0.5" d="M46.4346,-59.3326C46.4346,-59.3326 58.4346,-59.3326 58.4346,-59.3326 58.4346,-59.9041 58.3938,-60.4748 58.3125,-61.0404 58.2312,-61.606 58.1095,-62.1651 57.9485,-62.7134 57.7875,-63.2617 57.5876,-63.7978 57.3502,-64.3176 57.1128,-64.8374 56.8386,-65.3396 56.5297,-65.8203 56.2207,-66.301 55.8778,-66.7591 55.5036,-67.191 55.1294,-67.6228 54.7248,-68.0274 54.293,-68.4016 53.8611,-68.7758 53.403,-69.1187 52.9223,-69.4277 52.4416,-69.7366 51.9394,-70.0108 51.4196,-70.2482 50.8998,-70.4856 50.3637,-70.6856 49.8154,-70.8465 49.2671,-71.0075 48.708,-71.1292 48.1424,-71.2105 47.5768,-71.2918 47.0061,-71.3326 46.4346,-71.3326 45.8632,-71.3326 45.2925,-71.2918 44.7268,-71.2105 44.1612,-71.1292 43.6021,-71.0075 43.0538,-70.8465 42.5055,-70.6856 41.9694,-70.4856 41.4496,-70.2482 40.9298,-70.0108 40.4277,-69.7366 39.9469,-69.4277 39.4662,-69.1187 39.0082,-68.7758 38.5763,-68.4016 38.1444,-68.0274 37.7398,-67.6228 37.3656,-67.191 36.9914,-66.7591 36.6485,-66.301 36.3396,-65.8203 36.0306,-65.3396 35.7564,-64.8374 35.519,-64.3176 35.2817,-63.7978 35.0817,-63.2617 34.9207,-62.7134 34.7597,-62.1651 34.6381,-61.606 34.5568,-61.0404 34.4754,-60.4748 34.4346,-59.9041 34.4346,-59.3326 34.4346,-58.7612 34.4754,-58.1905 34.5568,-57.6249 34.6381,-57.0592 34.7597,-56.5001 34.9207,-55.9518 35.0817,-55.4035 35.2817,-54.8675 35.519,-54.3477 35.7564,-53.8278 36.0306,-53.3257 36.3396,-52.8449 36.6485,-52.3642 36.9914,-51.9062 37.3656,-51.4743 37.7398,-51.0424 38.1444,-50.6379 38.5763,-50.2636 39.0082,-49.8894 39.4662,-49.5465 39.9469,-49.2376 40.4277,-48.9286 40.9298,-48.6544 41.4496,-48.417 41.9694,-48.1797 42.5055,-47.9797 43.0538,-47.8187 43.6021,-47.6577 44.1612,-47.5361 44.7268,-47.4548 44.7268,-47.4548 46.4346,-59.3326 46.4346,-59.3326"/>
<path fill="olivedrab" stroke="black" stroke-width="0.5" d="M46.4346,-59.3326C46.4346,-59.3326 44.7268,-47.4548 44.7268,-47.4548 45.151,-47.3938 45.5781,-47.3556 46.0063,-47.3403 46.4345,-47.325 46.8633,-47.3326 47.2907,-47.3632 47.7181,-47.3938 48.1436,-47.4472 48.5653,-47.5233 48.987,-47.5994 49.4043,-47.698 49.8154,-47.8187 50.2266,-47.9394 50.6309,-48.0821 51.0268,-48.2461 51.4227,-48.4101 51.8095,-48.5951 52.1856,-48.8005 52.5617,-49.0058 52.9265,-49.2312 53.2785,-49.4756 53.6305,-49.72 53.9691,-49.983 54.293,-50.2636 54.6168,-50.5442 54.9254,-50.842 55.2174,-51.1556 55.5093,-51.4692 55.7843,-51.7983 56.0411,-52.1413 56.2979,-52.4843 56.5361,-52.8409 56.7548,-53.2094 56.9734,-53.5779 57.1722,-53.9579 57.3502,-54.3477 57.5282,-54.7374 57.6852,-55.1365 57.8205,-55.543 57.9559,-55.9496 58.0693,-56.3631 58.1604,-56.7818 58.2515,-57.2006 58.3201,-57.6238 58.3659,-58.0499 58.4117,-58.4759 58.4346,-58.9041 58.4346,-59.3326 58.4346,-59.3326 46.4346,-59.3326 46.4346,-59.3326"/>
<ellipse fill="none" stroke="black" cx="46.4346" cy="-59.3326" rx="12" ry="12"/>
<text text-anchor="middle" x="46.4346" y="-57.4326" font-family="monospace" font-size="8.00">0</text>
</g>
<!-- 8 -->
<g id="node9" class="node"><title>8</title>
<ellipse fill="olivedrab" stroke="black" cx="50.6688" cy="-121.682" rx="3.5" ry="3.5"/>
<text text-anchor="middle" x="50.6688" y="-119.782" font-family="monospace" font-size="8.00">8</text>
</g>
<!-- 0&#45;&gt;8 -->
<g id="edge2" class="edge"><title>0&#45;&gt;8</title>
<path fill="none" stroke="black" d="M47.251,-71.3542C48.2315,-85.792 49.8197,-109.178 50.4244,-118.083"/>
</g>
<!-- 1 -->
<g id="node2" class="node"><title>1</title>
<path fill="#1874cd" stroke="black" stroke-width="0.5" d="M30.7261,0.889233C30.7261,0.889233 44.7261,0.889233 44.7261,0.889233 44.7261,0.0334241 44.6476,-0.820585 44.4917,-1.66206 44.3357,-2.50354 44.1029,-3.32895 43.7962,-4.12792 43.4896,-4.92688 43.1102,-5.69605 42.6631,-6.42575 42.2159,-7.15544 41.7028,-7.8426 41.1301,-8.4786 40.5575,-9.11459 39.9277,-9.69673 39.2488,-10.2177 38.5698,-10.7387 37.8445,-11.1963 37.082,-11.5849 36.3195,-11.9734 35.5229,-12.2912 34.7023,-12.5342 33.8818,-12.7773 33.0406,-12.9446 32.1895,-13.0341 31.3384,-13.1235 30.4809,-13.1348 29.6277,-13.0676 28.7745,-13.0005 27.9293,-12.8552 27.1027,-12.6337 26.276,-12.4122 25.4714,-12.1154 24.699,-11.747 23.9265,-11.3785 23.1895,-10.94 22.4971,-10.437 21.8048,-9.93397 21.16,-9.36851 20.5709,-8.74773 19.9818,-8.12695 19.4508,-7.45346 18.9847,-6.73571 18.5186,-6.01797 18.1193,-5.259 17.7918,-4.46833 17.4643,-3.67767 17.21,-2.85864 17.0321,-2.02153 17.0321,-2.02153 30.7261,0.889233 30.7261,0.889233"/>
<path fill="olivedrab" stroke="black" stroke-width="0.5" d="M30.7261,0.889233C30.7261,0.889233 17.0321,-2.02153 17.0321,-2.02153 16.9304,-1.54341 16.8539,-1.06029 16.8028,-0.574165 16.7517,-0.0880389 16.7261,0.40043 16.7261,0.889233 16.7261,1.37804 16.7517,1.86651 16.8028,2.35263 16.8539,2.83876 16.9304,3.32187 17.0321,3.8 17.1337,4.27812 17.2603,4.75059 17.4113,5.21547 17.5624,5.68035 17.7377,6.137 17.9365,6.58355 18.1353,7.03009 18.3574,7.46592 18.6018,7.88923 18.8462,8.31255 19.1126,8.72278 19.3999,9.11823 19.6872,9.51368 19.995,9.89381 20.3221,10.2571 20.6492,10.6203 20.995,10.9662 21.3583,11.2933 21.7215,11.6203 22.1017,11.9282 22.4971,12.2155 22.8926,12.5028 23.3028,12.7692 23.7261,13.0136 24.1494,13.258 24.5853,13.4801 25.0318,13.6789 25.4784,13.8777 25.935,14.053 26.3999,14.204 26.8648,14.3551 27.3372,14.4817 27.8154,14.5833 28.2935,14.6849 28.7766,14.7614 29.2627,14.8125 29.7488,14.8636 30.2373,14.8892 30.7261,14.8892 31.2149,14.8892 31.7034,14.8636 32.1895,14.8125 32.6756,14.7614 33.1588,14.6849 33.6369,14.5833 34.115,14.4817 34.5875,14.3551 35.0524,14.204 35.5172,14.053 35.9739,13.8777 36.4204,13.6789 36.867,13.4801 37.3028,13.258 37.7261,13.0136 38.1494,12.7692 38.5597,12.5028 38.9551,12.2155 39.3506,11.9282 39.7307,11.6203 40.0939,11.2933 40.4572,10.9662 40.8031,10.6203 41.1301,10.2571 41.4572,9.89381 41.765,9.51368 42.0524,9.11823 42.3397,8.72278 42.6061,8.31255 42.8505,7.88923 43.0949,7.46592 43.3169,7.03009 43.5158,6.58355 43.7146,6.137 43.8899,5.68035 44.0409,5.21547 44.192,4.75059 44.3186,4.27812 44.4202,3.8 44.5218,3.32187 44.5983,2.83876 44.6494,2.35263 44.7005,1.86651 44.7261,1.37804 44.7261,0.889233 44.7261,0.889233 30.7261,0.889233 30.7261,0.889233"/>
<ellipse fill="none" stroke="black" cx="30.7261" cy="0.889233" rx="14" ry="14"/>
<text text-anchor="middle" x="30.7261" y="2.78923" font-family="monospace" font-size="8.00">1</text>
</g>
<!-- 1&#45;&gt;0 -->
<g id="edge1" class="edge"><title>1&#45;&gt;0</title>
<path fill="none" stroke="black" d="M34.2906,-12.776C36.5819,-21.5603 39.5759,-33.0381 42.0176,-42.3992"/>
<polygon fill="black" stroke="black" points="40.354,-42.9551 43.3094,-47.3515 43.7407,-42.0716 40.354,-42.9551"/>
<text text-anchor="middle" x="22.1541" y="-30.1876" font-family="monospace" font-size="8.00">F1920S</text>
</g>
<!-- 2 -->
<g id="node3" class="node"><title>2</title>
<ellipse fill="#1874cd" stroke="black" cx="98.1217" cy="3.23157" rx="6" ry="6"/>
<text text-anchor="middle" x="98.1217" y="5.13157" font-family="monospace" font-size="8.00">2</text>
</g>
<!-- 1&#45;&gt;2 -->
<g id="edge3" class="edge"><title>1&#45;&gt;2</title>
<path fill="none" stroke="black" d="M45.019,1.38598C59.5474,1.89092 81.3758,2.64956 91.9471,3.01697"/>
</g>
<!-- 5 -->
<g id="node6" class="node"><title>5</title>
<ellipse fill="olivedrab" stroke="black" cx="3.13067" cy="-46.93" rx="3.5" ry="3.5"/>
<text text-anchor="middle" x="3.13067" y="-45.03" font-family="monospace" font-size="8.00">5</text>
</g>
<!-- 1&#45;&gt;5 -->
<g id="edge7" class="edge"><title>1&#45;&gt;5</title>
<path fill="none" stroke="black" d="M23.4757,-11.6747C18.3897,-20.4882 11.7584,-31.9792 7.47258,-39.406"/>
<polygon fill="black" stroke="black" points="5.91142,-38.6101 4.92798,-43.8155 8.94288,-40.3595 5.91142,-38.6101"/>
<text text-anchor="middle" x="1.97416" y="-19.1404" font-family="monospace" font-size="8.00">R537L</text>
</g>
<!-- 6 -->
<g id="node7" class="node"><title>6</title>
<ellipse fill="olivedrab" stroke="black" cx="26.6573" cy="71.3372" rx="3.5" ry="3.5"/>
<text text-anchor="middle" x="26.6573" y="73.2372" font-family="monospace" font-size="8.00">6</text>
</g>
<!-- 1&#45;&gt;6 -->
<g id="edge8" class="edge"><title>1&#45;&gt;6</title>
<path fill="none" stroke="black" d="M29.9027,15.1454C29.088,29.2512 27.866,50.4105 27.1774,62.3331"/>
<polygon fill="black" stroke="black" points="28.9064,62.7488 26.8709,67.6396 25.4122,62.547 28.9064,62.7488"/>
<text text-anchor="middle" x="12.5401" y="36.1392" font-family="monospace" font-size="8.00">H1755Y</text>
</g>
<!-- 7 -->
<g id="node8" class="node"><title>7</title>
<ellipse fill="olivedrab" stroke="black" cx="60.0646" cy="51.2576" rx="3.5" ry="3.5"/>
<text text-anchor="middle" x="60.0646" y="53.1576" font-family="monospace" font-size="8.00">7</text>
</g>
<!-- 1&#45;&gt;7 -->
<g id="edge9" class="edge"><title>1&#45;&gt;7</title>
<path fill="none" stroke="black" d="M37.8281,13.082C44.4759,24.4949 53.9789,40.8097 58.0682,47.8303"/>
</g>
<!-- 9 -->
<g id="node10" class="node"><title>9</title>
<ellipse fill="olivedrab" stroke="black" cx="-6.3445" cy="51.0372" rx="3.5" ry="3.5"/>
<text text-anchor="middle" x="-6.3445" y="52.9372" font-family="monospace" font-size="8.00">9</text>
</g>
<!-- 1&#45;&gt;9 -->
<g id="edge10" class="edge"><title>1&#45;&gt;9</title>
<path fill="none" stroke="black" d="M22.1282,12.5202C15.0432,22.1046 5.20786,35.4095 -0.85341,43.6091"/>
<polygon fill="black" stroke="black" points="0.298116,44.9953 -4.08137,47.9757 -2.51639,42.9147 0.298116,44.9953"/>
<text text-anchor="middle" x="-2.86261" y="25.4646" font-family="monospace" font-size="8.00">K251R</text>
</g>
<!-- anon_1_3_0 -->
<g id="node11" class="node"><title>anon_1_3_0</title>
<ellipse fill="white" stroke="black" cx="-33.933" cy="0.977027" rx="2.5" ry="2.5"/>
</g>
<!-- 1&#45;&gt;anon_1_3_0 -->
<g id="edge4" class="edge"><title>1&#45;&gt;anon_1_3_0</title>
<path fill="none" stroke="black" d="M16.6961,0.908283C0.947816,0.929666 -23.4383,0.962777 -31.3558,0.973528"/>
</g>
<!-- anon_2_4_0 -->
<g id="node13" class="node"><title>anon_2_4_0</title>
<ellipse fill="white" stroke="black" cx="145.601" cy="10.8238" rx="2.5" ry="2.5"/>
</g>
<!-- 2&#45;&gt;anon_2_4_0 -->
<g id="edge11" class="edge"><title>2&#45;&gt;anon_2_4_0</title>
<path fill="none" stroke="black" d="M104.329,4.22412C114.785,5.89622 135.496,9.20798 142.895,10.3911"/>
</g>
<!-- 3 -->
<g id="node4" class="node"><title>3</title>
<ellipse fill="#1874cd" stroke="black" cx="-119.169" cy="11.6773" rx="3.5" ry="3.5"/>
<text text-anchor="middle" x="-119.169" y="13.5773" font-family="monospace" font-size="8.00">3</text>
</g>
<!-- 4 -->
<g id="node5" class="node"><title>4</title>
<ellipse fill="#1874cd" stroke="black" cx="224.485" cy="38.6102" rx="3.5" ry="3.5"/>
<text text-anchor="middle" x="224.485" y="40.5102" font-family="monospace" font-size="8.00">4</text>
</g>
<!-- anon_1_3_1 -->
<g id="node12" class="node"><title>anon_1_3_1</title>
<ellipse fill="white" stroke="black" cx="-77.9832" cy="2.82059" rx="2.5" ry="2.5"/>
</g>
<!-- anon_1_3_0&#45;&gt;anon_1_3_1 -->
<g id="edge5" class="edge"><title>anon_1_3_0&#45;&gt;anon_1_3_1</title>
<path fill="none" stroke="black" d="M-36.5566,1.08683C-44.4099,1.4155 -67.6662,2.38881 -75.4285,2.71367"/>
</g>
<!-- anon_1_3_1&#45;&gt;3 -->
<g id="edge6" class="edge"><title>anon_1_3_1&#45;&gt;3</title>
<path fill="none" stroke="black" d="M-80.6855,3.40171C-87.8439,4.94106 -107.306,9.12619 -115.478,10.8835"/>
</g>
<!-- anon_2_4_1 -->
<g id="node14" class="node"><title>anon_2_4_1</title>
<ellipse fill="white" stroke="black" cx="186.474" cy="20.4659" rx="2.5" ry="2.5"/>
</g>
<!-- anon_2_4_0&#45;&gt;anon_2_4_1 -->
<g id="edge12" class="edge"><title>anon_2_4_0&#45;&gt;anon_2_4_1</title>
<path fill="none" stroke="black" d="M148.282,11.4565C155.671,13.1994 176.265,18.0577 183.729,19.8183"/>
</g>
<!-- anon_2_4_1&#45;&gt;4 -->
<g id="edge13" class="edge"><title>anon_2_4_1&#45;&gt;4</title>
<path fill="none" stroke="black" d="M188.968,21.6564C195.575,24.81 213.536,33.3839 221.078,36.984"/>
</g>
</g>
</svg>
