<?xml version="1.0" encoding="UTF-8" standalone="no"?>
<!DOCTYPE svg PUBLIC "-//W3C//DTD SVG 1.1//EN"
 "http://www.w3.org/Graphics/SVG/1.1/DTD/svg11.dtd">
<!-- Generated by graphviz version 2.38.0 (20140413.2041)
 -->
<!-- Title: %3 Pages: 1 -->
<svg width="457pt" height="625pt"
 viewBox="0.00 0.00 457.17 625.43" xmlns="http://www.w3.org/2000/svg" xmlns:xlink="http://www.w3.org/1999/xlink">
<g id="graph0" class="graph" transform="scale(1 1) rotate(0) translate(167.66 377.102)">
<title>%3</title>
<polygon fill="white" stroke="none" points="-167.66,248.325 -167.66,-377.102 289.511,-377.102 289.511,248.325 -167.66,248.325"/>
<!-- 0 -->
<g id="node1" class="node"><title>0</title>
<path fill="#ff3030" stroke="black" stroke-width="0.5" d="M78.712,-59.6567C78.712,-59.6567 113.212,-59.6567 113.212,-59.6567 113.212,-61.2112 113.107,-62.7639 112.898,-64.3042 112.688,-65.8445 112.375,-67.3689 111.96,-68.867 111.96,-68.867 78.712,-59.6567 78.712,-59.6567"/>
<path fill="deepskyblue" stroke="black" stroke-width="0.5" d="M78.712,-59.6567C78.712,-59.6567 111.96,-68.867 111.96,-68.867 111.649,-69.9904 111.281,-71.0973 110.857,-72.1834 110.434,-73.2695 109.956,-74.3335 109.425,-75.3712 108.894,-76.409 108.311,-77.4191 107.678,-78.3978 107.045,-79.3765 106.362,-80.3225 105.633,-81.2321 105.633,-81.2321 78.712,-59.6567 78.712,-59.6567"/>
<path fill="brown" stroke="black" stroke-width="0.5" d="M78.712,-59.6567C78.712,-59.6567 105.633,-81.2321 105.633,-81.2321 105.003,-82.0185 104.339,-82.7769 103.642,-83.5051 102.945,-84.2333 102.217,-84.9307 101.459,-85.5951 100.702,-86.2596 99.9153,-86.8906 99.1024,-87.4862 98.2895,-88.0818 97.4508,-88.6415 96.5889,-89.1637 95.727,-89.6859 94.8426,-90.1701 93.9383,-90.6149 93.034,-91.0596 92.1106,-91.4646 91.1708,-91.8285 90.2311,-92.1924 89.2758,-92.515 88.3078,-92.7953 87.3398,-93.0756 86.36,-93.3134 85.3712,-93.5079 84.3823,-93.7024 83.3855,-93.8535 82.3834,-93.9608 81.3814,-94.068 80.3751,-94.1313 79.3675,-94.1504 78.3599,-94.1696 77.352,-94.1446 76.3466,-94.0755 75.3412,-94.0064 74.3393,-93.8933 73.3438,-93.7365 72.3483,-93.5796 71.3601,-93.3793 70.3822,-93.136 69.4042,-92.8927 68.4374,-92.6066 67.4845,-92.2786 66.5316,-91.9507 65.5935,-91.5811 64.6729,-91.171 63.7524,-90.7609 62.8502,-90.3107 61.9691,-89.8216 61.0879,-89.3325 60.2287,-88.8051 59.3937,-88.2408 58.5587,-87.6765 57.7489,-87.0759 56.9665,-86.4407 56.1841,-85.8055 55.4299,-85.1363 54.7061,-84.4351 53.9824,-83.7338 53.2896,-83.0012 52.63,-82.2393 51.9703,-81.4775 51.3444,-80.6871 50.7539,-79.8704 50.1634,-79.0537 49.609,-78.2115 49.0923,-77.3463 48.5756,-76.4811 48.097,-75.5937 47.658,-74.6866 47.2189,-73.7794 46.8199,-72.8535 46.4619,-71.9115 46.1039,-70.9694 45.7874,-70.0121 45.5132,-69.0424 45.2391,-68.0726 45.0075,-67.0913 44.8193,-66.1013 44.631,-65.1112 44.4862,-64.1134 44.3853,-63.1107 44.2844,-62.108 44.2275,-61.1014 44.2148,-60.0937 44.202,-59.086 44.2334,-58.0782 44.3089,-57.0733 44.3843,-56.0683 44.5038,-55.0672 44.6669,-54.0727 44.83,-53.0782 45.0366,-52.0914 45.2861,-51.115 45.5356,-50.1386 45.8278,-49.1736 46.1618,-48.2228 46.4958,-47.2719 46.8713,-46.3362 47.2872,-45.4183 47.7031,-44.5003 48.1591,-43.601 48.6537,-42.723 49.1483,-41.845 49.6812,-40.9891 50.2508,-40.1577 50.8204,-39.3263 51.4261,-38.5203 52.0663,-37.742 52.7064,-36.9636 53.3803,-36.2137 54.0861,-35.4943 54.7919,-34.775 55.5289,-34.0869 56.295,-33.4321 57.061,-32.7773 57.8554,-32.1564 58.6758,-31.5711 59.4962,-30.9858 60.3418,-30.4368 61.2103,-29.9255 62.0788,-29.4143 62.9692,-28.9413 63.8791,-28.5081 64.789,-28.0748 65.7174,-27.6816 66.6617,-27.3296 67.606,-26.9776 68.5653,-26.6671 69.5367,-26.3991 70.5082,-26.1311 71.491,-25.9058 72.4822,-25.7238 73.4734,-25.5418 74.4721,-25.4034 75.4754,-25.3088 76.4787,-25.2143 77.4857,-25.1637 78.4935,-25.1574 79.5012,-25.151 80.5088,-25.1887 81.5132,-25.2706 82.5177,-25.3524 83.5181,-25.4782 84.5115,-25.6476 85.5049,-25.817 86.4904,-26.0299 87.4652,-26.2856 88.44,-26.5412 89.4032,-26.8395 90.3518,-27.1795 91.3005,-27.5195 92.2339,-27.901 93.1491,-28.3227 94.0644,-28.7444 94.9608,-29.206 95.8357,-29.7062 96.7106,-30.2064 97.5631,-30.7447 98.3909,-31.3195 99.2186,-31.8944 100.021,-32.5052 100.795,-33.1503 101.569,-33.7953 102.315,-34.474 103.03,-35.1843 103.745,-35.8947 104.428,-36.636 105.078,-37.4062 105.728,-38.1764 106.344,-38.9746 106.924,-39.7987 107.504,-40.6228 108.048,-41.4719 108.553,-42.3436 109.059,-43.2153 109.526,-44.1087 109.954,-45.0213 110.381,-45.9339 110.769,-46.8648 111.115,-47.8113 111.461,-48.7579 111.765,-49.7191 112.027,-50.6922 112.289,-51.6654 112.508,-52.6496 112.684,-53.6419 112.859,-54.6342 112.991,-55.6338 113.08,-56.6377 113.168,-57.6416 113.212,-58.6489 113.212,-59.6567 113.212,-59.6567 78.712,-59.6567 78.712,-59.6567"/>
<ellipse fill="none" stroke="black" cx="78.712" cy="-59.6567" rx="34.5" ry="34.5"/>
<text text-anchor="middle" x="78.712" y="-57.1567" font-family="Times,serif" font-size="10.00">0</text>
</g>
<!-- 1 -->
<g id="node2" class="node"><title>1</title>
<path fill="#ff3030" stroke="black" stroke-width="0.5" d="M72.5363,117.649C72.5363,117.649 106.536,117.649 106.536,117.649 106.536,116.116 106.433,114.584 106.226,113.064 106.019,111.545 105.71,110.041 105.3,108.563 104.89,107.085 104.381,105.637 103.775,104.228 103.17,102.819 102.47,101.453 101.68,100.138 100.89,98.8235 100.012,97.5639 99.0523,96.3679 98.0924,95.1719 97.0527,94.0422 95.9403,92.9866 94.8279,91.9309 93.6454,90.9518 92.4008,90.0558 91.1562,89.1598 89.8524,88.349 88.4983,87.6291 87.1442,86.9091 85.743,86.2816 84.3042,85.7508 82.8655,85.22 81.3924,84.7872 79.8952,84.4552 78.398,84.1233 76.88,83.8931 75.3517,83.7661 73.8234,83.6391 72.2883,83.6156 70.7568,83.6959 69.2254,83.7762 67.7011,83.9599 66.1944,84.246 64.6878,84.532 63.2022,84.9197 61.7479,85.4063 60.2936,85.8929 58.8739,86.4774 57.4984,87.1556 56.123,87.8339 54.7951,88.6045 53.5237,89.462 53.5237,89.462 72.5363,117.649 72.5363,117.649"/>
<path fill="deepskyblue" stroke="black" stroke-width="0.5" d="M72.5363,117.649C72.5363,117.649 53.5237,89.462 53.5237,89.462 52.3754,90.2365 51.2756,91.0805 50.2303,91.9892 49.1849,92.8979 48.1961,93.8696 47.2693,94.8989 46.3426,95.9282 45.4795,97.0131 44.6851,98.1477 43.8907,99.2823 43.1663,100.464 42.516,101.687 41.8658,102.91 41.2909,104.172 40.7945,105.465 40.2982,106.758 39.8813,108.08 39.5462,109.424 39.2111,110.768 38.9585,112.131 38.7897,113.506 38.6209,114.88 38.5363,116.264 38.5363,117.649 38.5363,119.034 38.6209,120.418 38.7897,121.793 38.9585,123.168 39.2111,124.531 39.5462,125.875 39.8813,127.219 40.2982,128.541 40.7945,129.834 41.2909,131.127 41.8658,132.388 42.516,133.611 43.1663,134.834 43.8907,136.016 44.6851,137.151 45.4795,138.285 46.3426,139.37 47.2693,140.4 48.1961,141.429 49.1849,142.401 50.2303,143.309 51.2756,144.218 52.3754,145.062 53.5237,145.837 53.5237,145.837 72.5363,117.649 72.5363,117.649"/>
<path fill="#98f5ff" stroke="black" stroke-width="0.5" d="M72.5363,117.649C72.5363,117.649 53.5237,145.837 53.5237,145.837 54.3438,146.39 55.1876,146.907 56.0527,147.386 56.9179,147.866 57.8036,148.308 58.7072,148.71 59.6109,149.112 60.5317,149.475 61.467,149.797 62.4022,150.119 63.3511,150.4 64.3109,150.639 64.3109,150.639 72.5363,117.649 72.5363,117.649"/>
<path fill="#1874cd" stroke="black" stroke-width="0.5" d="M72.5363,117.649C72.5363,117.649 64.3109,150.639 64.3109,150.639 65.5588,150.95 66.8233,151.191 68.0984,151.358 69.3734,151.526 70.657,151.622 71.9429,151.644 73.2288,151.667 74.5149,151.616 75.795,151.493 77.0752,151.37 78.3473,151.174 79.6053,150.906 80.8632,150.639 82.105,150.3 83.3246,149.892 84.5442,149.484 85.7397,149.007 86.9053,148.464 88.0709,147.92 89.2047,147.311 90.3012,146.639 91.3978,145.967 92.4553,145.233 93.4688,144.442 94.4822,143.65 95.4499,142.801 96.3672,141.9 97.2845,140.998 98.1499,140.046 98.9592,139.046 99.7686,138.047 100.521,137.002 101.212,135.917 101.903,134.833 102.531,133.71 103.095,132.554 103.659,131.398 104.157,130.211 104.586,128.999 105.015,127.786 105.376,126.551 105.665,125.298 105.954,124.045 106.172,122.776 106.318,121.498 106.463,120.22 106.536,118.935 106.536,117.649 106.536,117.649 72.5363,117.649 72.5363,117.649"/>
<ellipse fill="none" stroke="black" cx="72.5363" cy="117.649" rx="34" ry="34"/>
<text text-anchor="middle" x="72.5363" y="120.149" font-family="Times,serif" font-size="10.00">1</text>
</g>
<!-- 1&#45;&#45;0 -->
<g id="edge1" class="edge"><title>1&#45;&#45;0</title>
<path fill="none" stroke="black" d="M73.727,83.4629C74.8136,52.2673 76.4118,6.3811 77.5038,-24.9703"/>
</g>
<!-- 2 -->
<g id="node3" class="node"><title>2</title>
<path fill="#ff3030" stroke="black" stroke-width="0.5" d="M169.425,0.503425C169.425,0.503425 201.425,0.503425 201.425,0.503425 201.425,-0.570851 201.371,-1.64445 201.263,-2.71328 201.155,-3.78211 200.993,-4.84483 200.778,-5.8974 200.563,-6.94996 200.295,-7.99104 199.976,-9.01667 199.656,-10.0423 199.285,-11.0512 198.864,-12.0395 198.443,-13.0278 197.972,-13.9943 197.454,-14.9353 196.936,-15.8763 196.371,-16.7905 195.76,-17.6746 195.15,-18.5588 194.496,-19.4116 193.8,-20.2299 193.104,-21.0482 192.367,-21.8309 191.592,-22.5751 191.592,-22.5751 169.425,0.503425 169.425,0.503425"/>
<path fill="deepskyblue" stroke="black" stroke-width="0.5" d="M169.425,0.503425C169.425,0.503425 191.592,-22.5751 191.592,-22.5751 190.798,-23.3378 189.965,-24.0591 189.096,-24.736 188.228,-25.413 187.325,-26.0446 186.391,-26.6284 185.458,-27.2123 184.495,-27.7475 183.506,-28.232 182.517,-28.7166 181.504,-29.1498 180.47,-29.5298 179.437,-29.9099 178.384,-30.2364 177.317,-30.508 176.25,-30.7796 175.17,-30.9959 174.08,-31.1561 172.991,-31.3163 171.894,-31.4202 170.794,-31.4673 169.694,-31.5144 168.592,-31.5047 167.493,-31.4382 166.394,-31.3717 165.299,-31.2485 164.212,-31.0692 163.126,-30.8898 162.049,-30.6545 160.987,-30.3641 159.925,-30.0738 158.878,-29.7288 157.852,-29.3305 156.825,-28.9323 155.82,-28.4814 154.84,-27.9795 153.86,-27.4776 152.906,-26.9254 151.983,-26.3253 151.06,-25.7251 150.168,-25.0776 149.312,-24.3855 148.455,-23.6934 147.635,-22.9575 146.854,-22.1809 146.074,-21.4042 145.334,-20.5878 144.637,-19.7348 143.941,-18.8819 143.289,-17.9935 142.684,-17.0734 142.079,-16.1532 141.523,-15.2025 141.016,-14.2249 140.509,-13.2473 140.053,-12.2442 139.649,-11.2196 139.246,-10.195 138.896,-9.15029 138.6,-8.08959 138.304,-7.02889 138.064,-5.95364 137.879,-4.86812 137.694,-3.7826 137.565,-2.68826 137.493,-1.58947 137.421,-0.490687 137.406,0.611085 137.448,1.71144 137.489,2.8118 137.588,3.90928 137.742,4.99951 137.897,6.08973 138.108,7.17124 138.374,8.23972 138.64,9.3082 138.961,10.3622 139.336,11.3976 139.711,12.433 140.139,13.4483 140.619,14.4395 141.098,15.4308 141.629,16.3966 142.208,17.3331 142.787,18.2697 143.414,19.1757 144.087,20.0476 144.759,20.9195 145.476,21.7562 146.235,22.5541 146.994,23.3521 147.793,24.1104 148.63,24.826 149.467,25.5415 150.341,26.2134 151.247,26.8389 151.247,26.8389 169.425,0.503425 169.425,0.503425"/>
<path fill="#98f5ff" stroke="black" stroke-width="0.5" d="M169.425,0.503425C169.425,0.503425 151.247,26.8389 151.247,26.8389 152.441,27.6629 153.689,28.4048 154.983,29.0594 156.278,29.714 157.615,30.2799 158.986,30.753 160.358,31.2262 161.759,31.6056 163.182,31.8886 164.605,32.1715 166.045,32.3575 167.493,32.445 168.941,32.5326 170.393,32.5217 171.839,32.4122 173.286,32.3028 174.723,32.0951 176.141,31.7907 177.559,31.4862 178.955,31.0857 180.319,30.5919 181.683,30.0981 183.012,29.5121 184.296,28.838 185.58,28.1639 186.817,27.4033 187.999,26.5614 189.18,25.7194 190.302,24.7982 191.358,23.8039 192.415,22.8097 193.402,21.7448 194.314,20.6166 195.225,19.4884 196.059,18.2996 196.81,17.0582 197.56,15.8169 198.225,14.526 198.801,13.1944 199.376,11.8628 199.86,10.4937 200.249,9.09644 200.639,7.6992 200.933,6.27708 201.13,4.83994 201.326,3.4028 201.425,1.95395 201.425,0.503425 201.425,0.503425 169.425,0.503425 169.425,0.503425"/>
<ellipse fill="none" stroke="black" cx="169.425" cy="0.503425" rx="32" ry="32"/>
<text text-anchor="middle" x="169.425" y="3.00342" font-family="Times,serif" font-size="10.00">2</text>
</g>
<!-- 2&#45;&#45;0 -->
<g id="edge2" class="edge"><title>2&#45;&#45;0</title>
<path fill="none" stroke="black" d="M142.699,-17.2212C131.724,-24.4997 118.987,-32.9464 107.781,-40.3786"/>
</g>
<!-- 3 -->
<g id="node4" class="node"><title>3</title>
<path fill="deepskyblue" stroke="black" stroke-width="0.5" d="M212.47,-89.3874C212.47,-89.3874 237.97,-89.3874 237.97,-89.3874 237.97,-90.6898 237.87,-91.9903 237.671,-93.2775 237.473,-94.5647 237.176,-95.8348 236.783,-97.0766 236.39,-98.3184 235.903,-99.5283 235.325,-100.696 234.748,-101.863 234.082,-102.984 233.333,-104.05 232.584,-105.116 231.754,-106.122 230.852,-107.061 229.949,-108 228.976,-108.868 227.94,-109.658 226.905,-110.449 225.811,-111.158 224.667,-111.781 223.523,-112.404 222.333,-112.939 221.108,-113.38 219.882,-113.821 218.625,-114.168 217.346,-114.417 216.068,-114.666 214.772,-114.817 213.471,-114.868 212.17,-114.919 210.866,-114.87 209.572,-114.722 208.278,-114.574 206.997,-114.327 205.741,-113.984 204.485,-113.64 203.257,-113.2 202.068,-112.669 200.879,-112.138 199.732,-111.516 198.638,-110.81 197.543,-110.103 196.505,-109.314 195.531,-108.449 194.558,-107.584 193.652,-106.645 192.822,-105.642 191.992,-104.638 191.24,-103.572 190.572,-102.454 189.905,-101.336 189.324,-100.168 188.835,-98.9605 188.346,-97.7533 187.95,-96.5104 187.651,-95.2428 187.352,-93.9752 187.151,-92.6865 187.049,-91.3881 186.946,-90.0896 186.944,-88.7853 187.041,-87.4865 187.138,-86.1877 187.334,-84.8982 187.628,-83.6294 187.923,-82.3606 188.313,-81.1162 188.798,-79.9071 189.282,-78.6981 189.858,-77.5279 190.521,-76.4068 191.184,-75.2857 191.932,-74.2171 192.758,-73.2103 193.584,-72.2035 194.487,-71.2615 195.457,-70.3926 196.427,-69.5236 197.462,-68.7302 198.554,-68.0195 199.645,-67.3087 200.789,-66.6825 201.976,-66.1466 203.163,-65.6106 204.39,-65.1664 205.645,-64.8178 206.9,-64.4691 208.179,-64.2172 209.473,-64.0641 210.766,-63.911 212.069,-63.8573 213.371,-63.9033 214.673,-63.9493 215.969,-64.095 217.248,-64.339 217.248,-64.339 212.47,-89.3874 212.47,-89.3874"/>
<path fill="#98f5ff" stroke="black" stroke-width="0.5" d="M212.47,-89.3874C212.47,-89.3874 217.248,-64.339 217.248,-64.339 217.97,-64.4767 218.685,-64.6454 219.392,-64.8447 220.099,-65.0441 220.796,-65.2739 221.484,-65.5335 222.171,-65.7931 222.846,-66.0823 223.508,-66.4002 224.17,-66.7182 224.818,-67.0646 225.45,-67.4384 226.083,-67.8123 226.698,-68.2133 227.296,-68.6403 227.894,-69.0674 228.472,-69.52 229.031,-69.997 229.589,-70.474 230.127,-70.9749 230.642,-71.4983 231.157,-72.0217 231.65,-72.5671 232.118,-73.133 232.586,-73.699 233.03,-74.2848 233.447,-74.889 233.865,-75.4932 234.256,-76.1152 234.62,-76.7532 234.984,-77.3911 235.32,-78.0445 235.628,-78.7115 235.935,-79.3785 236.214,-80.0585 236.462,-80.7495 236.711,-81.4406 236.93,-82.142 237.118,-82.852 237.306,-83.5619 237.464,-84.2796 237.59,-85.0032 237.716,-85.7267 237.811,-86.4553 237.875,-87.1871 237.938,-87.9188 237.97,-88.6529 237.97,-89.3874 237.97,-89.3874 212.47,-89.3874 212.47,-89.3874"/>
<ellipse fill="none" stroke="black" cx="212.47" cy="-89.3874" rx="25.5" ry="25.5"/>
<text text-anchor="middle" x="212.47" y="-86.8874" font-family="Times,serif" font-size="10.00">3</text>
</g>
<!-- 3&#45;&#45;0 -->
<g id="edge3" class="edge"><title>3&#45;&#45;0</title>
<path fill="none" stroke="black" d="M187.311,-83.7952C166.197,-79.1022 135.847,-72.3562 112.596,-67.1881"/>
</g>
<!-- 4 -->
<g id="node5" class="node"><title>4</title>
<ellipse fill="#ff3030" stroke="black" cx="-50.5474" cy="-66.1733" rx="18" ry="18"/>
<text text-anchor="middle" x="-50.5474" y="-63.6733" font-family="Times,serif" font-size="10.00">4</text>
</g>
<!-- 4&#45;&#45;0 -->
<g id="edge4" class="edge"><title>4&#45;&#45;0</title>
<path fill="none" stroke="black" d="M-32.3019,-65.2535C-12.5381,-64.2571 19.4568,-62.644 44.033,-61.405"/>
</g>
<!-- 5 -->
<g id="node6" class="node"><title>5</title>
<path fill="deepskyblue" stroke="black" stroke-width="0.5" d="M1.08253,-220.291C1.08253,-220.291 19.0825,-220.291 19.0825,-220.291 19.0825,-221.14 19.0225,-221.987 18.903,-222.828 18.7834,-223.668 18.6046,-224.498 18.3678,-225.313 18.1311,-226.128 17.837,-226.925 17.4878,-227.699 17.1386,-228.472 16.7351,-229.22 16.2804,-229.936 15.8257,-230.653 15.321,-231.336 14.7698,-231.981 14.2187,-232.627 13.6227,-233.232 12.9861,-233.793 12.3496,-234.354 11.6742,-234.87 10.9649,-235.336 10.2557,-235.802 9.51438,-236.217 8.74656,-236.578 7.97874,-236.94 7.18633,-237.246 6.37526,-237.496 5.56419,-237.745 4.73649,-237.937 3.89835,-238.07 3.06022,-238.202 2.21374,-238.276 1.36527,-238.289 0.516787,-238.302 -0.331573,-238.256 -1.17346,-238.149 -2.01536,-238.043 -2.84867,-237.877 -3.66718,-237.653 -4.48569,-237.429 -5.28734,-237.148 -6.06613,-236.811 -6.84492,-236.474 -7.59891,-236.082 -8.32244,-235.639 -9.04598,-235.195 -9.73725,-234.701 -10.3911,-234.161 -11.0449,-233.62 -11.6597,-233.033 -12.2308,-232.406 -12.8019,-231.778 -13.3279,-231.111 -13.8049,-230.409 -14.2819,-229.707 -14.7086,-228.972 -15.082,-228.21 -15.4553,-227.448 -15.7743,-226.661 -16.0365,-225.854 -16.2987,-225.047 -16.5035,-224.222 -16.6494,-223.386 -16.7953,-222.55 -16.8819,-221.705 -16.9086,-220.857 -16.9352,-220.009 -16.9019,-219.16 -16.8088,-218.316 -16.7156,-217.473 -16.563,-216.637 -16.352,-215.815 -16.1409,-214.993 -15.872,-214.187 -15.5473,-213.403 -15.2226,-212.619 -14.8428,-211.859 -14.4108,-211.129 -13.9789,-210.398 -13.4958,-209.699 -12.9652,-209.037 -12.4346,-208.375 -11.8579,-207.751 -11.2393,-207.17 -10.6207,-206.589 -9.96183,-206.053 -9.26756,-205.565 -8.57329,-205.077 -7.84538,-204.638 -7.08929,-204.253 -6.3332,-203.868 -5.55081,-203.537 -4.74798,-203.262 -3.94514,-202.987 -3.12388,-202.769 -2.29033,-202.61 -2.29033,-202.61 1.08253,-220.291 1.08253,-220.291"/>
<path fill="#98f5ff" stroke="black" stroke-width="0.5" d="M1.08253,-220.291C1.08253,-220.291 -2.29033,-202.61 -2.29033,-202.61 -1.64211,-202.486 -0.987593,-202.399 -0.329726,-202.347 0.32814,-202.295 0.988356,-202.279 1.64793,-202.3 2.30751,-202.321 2.96544,-202.378 3.61876,-202.471 4.27208,-202.564 4.91979,-202.693 5.55895,-202.857 6.19812,-203.021 6.82778,-203.22 7.44508,-203.453 8.06238,-203.687 8.66639,-203.954 9.25437,-204.253 9.84234,-204.553 10.4134,-204.884 10.9649,-205.247 11.5165,-205.609 12.0477,-206.001 12.5562,-206.422 13.0646,-206.843 13.5496,-207.291 14.0088,-207.765 14.468,-208.239 14.9009,-208.738 15.3053,-209.259 15.7098,-209.78 16.0853,-210.324 16.4301,-210.886 16.7749,-211.449 17.0884,-212.03 17.3694,-212.627 17.6504,-213.224 17.8983,-213.836 18.1121,-214.461 18.3258,-215.085 18.5051,-215.721 18.649,-216.365 18.793,-217.009 18.9014,-217.66 18.9738,-218.316 19.0462,-218.972 19.0825,-219.631 19.0825,-220.291 19.0825,-220.291 1.08253,-220.291 1.08253,-220.291"/>
<ellipse fill="none" stroke="black" cx="1.08253" cy="-220.291" rx="18" ry="18"/>
<text text-anchor="middle" x="1.08253" y="-217.791" font-family="Times,serif" font-size="10.00">5</text>
</g>
<!-- 6 -->
<g id="node7" class="node"><title>6</title>
<ellipse fill="#ff3030" stroke="black" cx="20.4336" cy="-118.362" rx="14" ry="14"/>
<text text-anchor="middle" x="20.4336" y="-115.862" font-family="Times,serif" font-size="10.00">6</text>
</g>
<!-- 6&#45;&#45;0 -->
<g id="edge5" class="edge"><title>6&#45;&#45;0</title>
<path fill="none" stroke="black" d="M30.3197,-108.403C36.8796,-101.795 45.7958,-92.8138 54.188,-84.3602"/>
</g>
<!-- 7 -->
<g id="node8" class="node"><title>7</title>
<path fill="#98f5ff" stroke="black" stroke-width="0.5" d="M133.054,-149.751C133.054,-149.751 145.554,-149.751 145.554,-149.751 145.554,-150.434 145.498,-151.115 145.387,-151.788 145.276,-152.461 145.11,-153.124 144.891,-153.769 144.671,-154.415 144.4,-155.042 144.078,-155.644 143.757,-156.246 143.386,-156.82 142.971,-157.361 142.556,-157.902 142.097,-158.408 141.599,-158.875 141.101,-159.341 140.566,-159.766 139.999,-160.145 139.432,-160.524 138.834,-160.856 138.213,-161.137 137.592,-161.419 136.948,-161.649 136.289,-161.826 135.63,-162.002 134.958,-162.124 134.279,-162.191 133.6,-162.258 132.917,-162.269 132.237,-162.225 131.556,-162.18 130.88,-162.08 130.216,-161.925 129.551,-161.77 128.901,-161.561 128.271,-161.3 127.64,-161.039 127.033,-160.727 126.453,-160.367 125.874,-160.006 125.325,-159.599 124.812,-159.149 124.299,-158.7 123.824,-158.209 123.391,-157.681 122.959,-157.154 122.57,-156.592 122.229,-156.001 122.229,-156.001 133.054,-149.751 133.054,-149.751"/>
<path fill="deepskyblue" stroke="black" stroke-width="0.5" d="M133.054,-149.751C133.054,-149.751 122.229,-156.001 122.229,-156.001 121.99,-155.588 121.775,-155.161 121.585,-154.723 121.396,-154.285 121.231,-153.837 121.092,-153.38 120.954,-152.923 120.842,-152.459 120.756,-151.989 120.671,-151.52 120.612,-151.045 120.581,-150.569 120.55,-150.093 120.546,-149.615 120.569,-149.138 120.593,-148.661 120.643,-148.186 120.721,-147.715 120.799,-147.244 120.904,-146.778 121.035,-146.319 121.166,-145.86 121.323,-145.409 121.506,-144.968 121.688,-144.527 121.896,-144.097 122.128,-143.679 122.36,-143.262 122.615,-142.859 122.894,-142.471 123.172,-142.082 123.472,-141.711 123.792,-141.357 124.113,-141.003 124.453,-140.668 124.812,-140.353 125.171,-140.039 125.548,-139.745 125.94,-139.473 126.333,-139.201 126.741,-138.952 127.162,-138.727 127.583,-138.502 128.016,-138.302 128.46,-138.126 128.904,-137.951 129.358,-137.801 129.819,-137.677 130.28,-137.554 130.748,-137.457 131.22,-137.387 131.692,-137.317 132.168,-137.274 132.645,-137.258 133.122,-137.243 133.6,-137.254 134.076,-137.293 134.551,-137.332 135.025,-137.399 135.493,-137.492 135.961,-137.585 136.423,-137.705 136.878,-137.851 137.332,-137.997 137.778,-138.169 138.213,-138.366 138.648,-138.563 139.071,-138.784 139.48,-139.03 139.89,-139.275 140.285,-139.544 140.664,-139.835 141.042,-140.125 141.404,-140.437 141.747,-140.769 142.09,-141.101 142.414,-141.453 142.717,-141.822 143.02,-142.191 143.301,-142.577 143.56,-142.978 143.818,-143.379 144.054,-143.795 144.265,-144.223 144.476,-144.651 144.663,-145.091 144.823,-145.54 144.984,-145.99 145.119,-146.448 145.228,-146.913 145.336,-147.378 145.418,-147.849 145.472,-148.323 145.527,-148.797 145.554,-149.274 145.554,-149.751 145.554,-149.751 133.054,-149.751 133.054,-149.751"/>
<ellipse fill="none" stroke="black" cx="133.054" cy="-149.751" rx="12.5" ry="12.5"/>
<text text-anchor="middle" x="133.054" y="-147.251" font-family="Times,serif" font-size="10.00">7</text>
</g>
<!-- 7&#45;&#45;0 -->
<g id="edge6" class="edge"><title>7&#45;&#45;0</title>
<path fill="none" stroke="black" d="M126.391,-138.704C119.022,-126.487 106.842,-106.294 96.6374,-89.3755"/>
</g>
<!-- 8 -->
<g id="node9" class="node"><title>8</title>
<path fill="#98f5ff" stroke="black" stroke-width="0.5" d="M150.543,-113.74C150.543,-113.74 162.043,-113.74 162.043,-113.74 162.043,-114.342 161.996,-114.944 161.902,-115.539 161.807,-116.134 161.667,-116.721 161.48,-117.293 161.294,-117.866 161.063,-118.424 160.79,-118.961 160.516,-119.497 160.201,-120.012 159.847,-120.499 159.493,-120.987 159.101,-121.446 158.675,-121.872 158.249,-122.298 157.79,-122.689 157.303,-123.043 156.815,-123.398 156.301,-123.713 155.764,-123.986 155.227,-124.26 154.67,-124.491 154.097,-124.677 153.524,-124.863 152.937,-125.004 152.342,-125.098 151.747,-125.192 151.146,-125.24 150.543,-125.24 149.941,-125.24 149.339,-125.192 148.744,-125.098 148.149,-125.004 147.563,-124.863 146.99,-124.677 146.417,-124.491 145.859,-124.26 145.322,-123.986 144.786,-123.713 144.271,-123.398 143.784,-123.043 143.296,-122.689 142.838,-122.298 142.412,-121.872 141.986,-121.446 141.594,-120.987 141.24,-120.499 141.24,-120.499 150.543,-113.74 150.543,-113.74"/>
<path fill="deepskyblue" stroke="black" stroke-width="0.5" d="M150.543,-113.74C150.543,-113.74 141.24,-120.499 141.24,-120.499 140.974,-120.134 140.73,-119.753 140.51,-119.359 140.289,-118.965 140.092,-118.558 139.919,-118.141 139.746,-117.723 139.598,-117.296 139.475,-116.861 139.352,-116.427 139.256,-115.985 139.185,-115.539 139.114,-115.093 139.07,-114.643 139.052,-114.191 139.034,-113.74 139.043,-113.288 139.079,-112.838 139.114,-112.387 139.176,-111.939 139.264,-111.496 139.352,-111.053 139.467,-110.616 139.606,-110.186 139.746,-109.756 139.911,-109.335 140.1,-108.925 140.289,-108.515 140.502,-108.116 140.738,-107.731 140.974,-107.346 141.233,-106.975 141.512,-106.62 141.792,-106.265 142.092,-105.927 142.412,-105.608 142.731,-105.289 143.069,-104.988 143.424,-104.709 143.778,-104.429 144.149,-104.17 144.535,-103.934 144.92,-103.698 145.318,-103.485 145.729,-103.296 146.139,-103.107 146.56,-102.942 146.99,-102.803 147.419,-102.663 147.857,-102.549 148.3,-102.461 148.743,-102.373 149.191,-102.311 149.641,-102.275 150.091,-102.24 150.543,-102.231 150.995,-102.249 151.446,-102.266 151.896,-102.311 152.342,-102.381 152.788,-102.452 153.23,-102.549 153.665,-102.672 154.1,-102.794 154.527,-102.942 154.944,-103.115 155.362,-103.288 155.768,-103.485 156.162,-103.706 156.557,-103.927 156.937,-104.171 157.303,-104.436 157.668,-104.702 158.018,-104.988 158.35,-105.295 158.681,-105.602 158.995,-105.928 159.288,-106.271 159.581,-106.615 159.854,-106.975 160.105,-107.351 160.356,-107.726 160.585,-108.116 160.79,-108.519 160.995,-108.921 161.176,-109.336 161.333,-109.759 161.489,-110.183 161.62,-110.616 161.726,-111.055 161.831,-111.494 161.911,-111.94 161.964,-112.388 162.017,-112.837 162.043,-113.288 162.043,-113.74 162.043,-113.74 150.543,-113.74 150.543,-113.74"/>
<ellipse fill="none" stroke="black" cx="150.543" cy="-113.74" rx="11.5" ry="11.5"/>
<text text-anchor="middle" x="150.543" y="-111.24" font-family="Times,serif" font-size="10.00">8</text>
</g>
<!-- 8&#45;&#45;0 -->
<g id="edge7" class="edge"><title>8&#45;&#45;0</title>
<path fill="none" stroke="black" d="M141.153,-106.669C132.33,-100.027 118.682,-89.7511 106.394,-80.4989"/>
</g>
<!-- 9 -->
<g id="node10" class="node"><title>9</title>
<ellipse fill="#ff3030" stroke="black" cx="131.863" cy="-7.34818" rx="9.5" ry="9.5"/>
<text text-anchor="middle" x="131.863" y="-4.84818" font-family="Times,serif" font-size="10.00">9</text>
</g>
<!-- 9&#45;&#45;0 -->
<g id="edge8" class="edge"><title>9&#45;&#45;0</title>
<path fill="none" stroke="black" d="M124.914,-14.1866C119.399,-19.6144 111.336,-27.55 103.483,-35.2779"/>
</g>
<!-- 10 -->
<g id="node11" class="node"><title>10</title>
<ellipse fill="#ff3030" stroke="black" cx="161.677" cy="-32.6343" rx="8" ry="8"/>
<text text-anchor="middle" x="161.677" y="-30.1343" font-family="Times,serif" font-size="10.00">10</text>
</g>
<!-- 10&#45;&#45;0 -->
<g id="edge9" class="edge"><title>10&#45;&#45;0</title>
<path fill="none" stroke="black" d="M154.02,-35.1281C144.393,-38.2638 127.244,-43.8494 111.74,-48.8991"/>
</g>
<!-- 11 -->
<g id="node12" class="node"><title>11</title>
<ellipse fill="brown" stroke="black" cx="13.8814" cy="9.74382" rx="8" ry="8"/>
<text text-anchor="middle" x="13.8814" y="12.2438" font-family="Times,serif" font-size="10.00">11</text>
</g>
<!-- 11&#45;&#45;0 -->
<g id="edge10" class="edge"><title>11&#45;&#45;0</title>
<path fill="none" stroke="black" d="M19.4088,3.82677C27.2477,-4.56472 42.0735,-20.4356 54.9396,-34.2086"/>
</g>
<!-- 12 -->
<g id="node13" class="node"><title>12</title>
<ellipse fill="black" stroke="black" cx="213.653" cy="-60.2442" rx="6" ry="6"/>
<text text-anchor="middle" x="213.653" y="-57.7442" font-family="Times,serif" font-size="10.00">12</text>
</g>
<!-- 13 -->
<g id="node14" class="node"><title>13</title>
<ellipse fill="#ff3030" stroke="black" cx="112.626" cy="-120.309" rx="6" ry="6"/>
<text text-anchor="middle" x="112.626" y="-117.809" font-family="Times,serif" font-size="10.00">13</text>
</g>
<!-- 13&#45;&#45;0 -->
<g id="edge11" class="edge"><title>13&#45;&#45;0</title>
<path fill="none" stroke="black" d="M109.496,-114.712C106.249,-108.905 100.91,-99.3559 95.582,-89.8272"/>
</g>
<!-- 14 -->
<g id="node15" class="node"><title>14</title>
<path fill="#ff3030" stroke="black" stroke-width="0.5" d="M33.9879,-153.007C33.9879,-153.007 39.9879,-153.007 39.9879,-153.007 39.9879,-153.269 39.9707,-153.53 39.9366,-153.79 39.9024,-154.05 39.8512,-154.307 39.7835,-154.56 39.7157,-154.813 39.6314,-155.061 39.5312,-155.303 39.431,-155.545 39.315,-155.78 39.184,-156.007 39.0531,-156.234 38.9074,-156.452 38.748,-156.659 38.5886,-156.867 38.4157,-157.064 38.2305,-157.25 38.0454,-157.435 37.8482,-157.608 37.6405,-157.767 37.4327,-157.926 37.2147,-158.072 36.9879,-158.203 36.7611,-158.334 36.526,-158.45 36.284,-158.55 36.042,-158.65 35.7938,-158.735 35.5408,-158.802 35.2878,-158.87 35.0307,-158.921 34.7711,-158.956 34.5114,-158.99 34.2498,-159.007 33.9879,-159.007 33.726,-159.007 33.4644,-158.99 33.2047,-158.956 32.9451,-158.921 32.688,-158.87 32.435,-158.802 32.182,-158.735 31.9338,-158.65 31.6918,-158.55 31.4498,-158.45 31.2147,-158.334 30.9879,-158.203 30.7611,-158.072 30.5431,-157.926 30.3353,-157.767 30.1276,-157.608 29.9304,-157.435 29.7453,-157.25 29.5601,-157.064 29.3872,-156.867 29.2278,-156.659 29.0683,-156.452 28.9227,-156.234 28.7917,-156.007 28.6608,-155.78 28.5448,-155.545 28.4446,-155.303 28.3444,-155.061 28.2601,-154.813 28.1923,-154.56 28.1246,-154.307 28.0734,-154.05 28.0392,-153.79 28.005,-153.53 27.9879,-153.269 27.9879,-153.007 27.9879,-152.745 28.005,-152.483 28.0392,-152.224 28.0734,-151.964 28.1246,-151.707 28.1923,-151.454 28.2601,-151.201 28.3444,-150.953 28.4446,-150.711 28.5448,-150.469 28.6608,-150.234 28.7917,-150.007 28.9227,-149.78 29.0683,-149.562 29.2278,-149.354 29.3872,-149.147 29.5601,-148.949 29.7453,-148.764 29.9304,-148.579 30.1276,-148.406 30.3353,-148.247 30.5431,-148.087 30.7611,-147.942 30.9879,-147.811 30.9879,-147.811 33.9879,-153.007 33.9879,-153.007"/>
<path fill="#98f5ff" stroke="black" stroke-width="0.5" d="M33.9879,-153.007C33.9879,-153.007 30.9879,-147.811 30.9879,-147.811 31.2147,-147.68 31.4498,-147.564 31.6918,-147.464 31.9338,-147.363 32.182,-147.279 32.435,-147.211 32.688,-147.144 32.9451,-147.092 33.2047,-147.058 33.4644,-147.024 33.726,-147.007 33.9879,-147.007 34.2498,-147.007 34.5114,-147.024 34.7711,-147.058 35.0307,-147.092 35.2878,-147.144 35.5408,-147.211 35.7938,-147.279 36.042,-147.363 36.284,-147.464 36.526,-147.564 36.7611,-147.68 36.9879,-147.811 37.2147,-147.942 37.4327,-148.087 37.6405,-148.247 37.8482,-148.406 38.0454,-148.579 38.2305,-148.764 38.4157,-148.949 38.5886,-149.147 38.748,-149.354 38.9074,-149.562 39.0531,-149.78 39.184,-150.007 39.315,-150.234 39.431,-150.469 39.5312,-150.711 39.6314,-150.953 39.7157,-151.201 39.7835,-151.454 39.8512,-151.707 39.9024,-151.964 39.9366,-152.224 39.9707,-152.483 39.9879,-152.745 39.9879,-153.007 39.9879,-153.007 33.9879,-153.007 33.9879,-153.007"/>
<ellipse fill="none" stroke="black" cx="33.9879" cy="-153.007" rx="6" ry="6"/>
<text text-anchor="middle" x="33.9879" y="-150.507" font-family="Times,serif" font-size="10.00">14</text>
</g>
<!-- 14&#45;&#45;0 -->
<g id="edge12" class="edge"><title>14&#45;&#45;0</title>
<path fill="none" stroke="black" d="M36.6517,-147.447C41.8795,-136.535 53.8303,-111.591 63.662,-91.0697"/>
</g>
<!-- 14&#45;&#45;5 -->
<g id="edge13" class="edge"><title>14&#45;&#45;5</title>
<path fill="none" stroke="black" d="M31.1824,-158.743C26.3333,-168.659 16.2169,-189.345 9.05325,-203.993"/>
</g>
<!-- 15 -->
<g id="node16" class="node"><title>15</title>
<ellipse fill="brown" stroke="black" cx="34.9917" cy="-17.8416" rx="6" ry="6"/>
<text text-anchor="middle" x="34.9917" y="-15.3416" font-family="Times,serif" font-size="10.00">15</text>
</g>
<!-- 15&#45;&#45;0 -->
<g id="edge14" class="edge"><title>15&#45;&#45;0</title>
<path fill="none" stroke="black" d="M39.3436,-22.0039C42.7994,-25.3091 47.9399,-30.2256 53.3747,-35.4235"/>
</g>
<!-- 16 -->
<g id="node17" class="node"><title>16</title>
<ellipse fill="#ff3030" stroke="black" cx="161.531" cy="-58.6925" rx="6" ry="6"/>
<text text-anchor="middle" x="161.531" y="-56.1925" font-family="Times,serif" font-size="10.00">16</text>
</g>
<!-- 16&#45;&#45;0 -->
<g id="edge15" class="edge"><title>16&#45;&#45;0</title>
<path fill="none" stroke="black" d="M155.306,-58.765C146.353,-58.8692 129.173,-59.0692 113.349,-59.2534"/>
</g>
<!-- 16&#45;&#45;12 -->
<g id="edge16" class="edge"><title>16&#45;&#45;12</title>
<path fill="none" stroke="black" d="M167.922,-58.8828C178.035,-59.1839 197.593,-59.7661 207.533,-60.062"/>
</g>
<!-- 17 -->
<g id="node18" class="node"><title>17</title>
<ellipse fill="deepskyblue" stroke="black" cx="32.9081" cy="-9.90661" rx="5" ry="5"/>
<text text-anchor="middle" x="32.9081" y="-7.40661" font-family="Times,serif" font-size="10.00">17</text>
</g>
<!-- 17&#45;&#45;0 -->
<g id="edge17" class="edge"><title>17&#45;&#45;0</title>
<path fill="none" stroke="black" d="M36.5023,-13.8104C40.6358,-18.3001 47.7903,-26.0709 55.047,-33.9528"/>
</g>
<!-- 18 -->
<g id="node19" class="node"><title>18</title>
<ellipse fill="#ff3030" stroke="black" cx="-73.9549" cy="-150.268" rx="5" ry="5"/>
<text text-anchor="middle" x="-73.9549" y="-147.768" font-family="Times,serif" font-size="10.00">18</text>
</g>
<!-- anon_18_0_0 -->
<g id="node61" class="node"><title>anon_18_0_0</title>
<ellipse fill="white" stroke="black" cx="-34.8212" cy="-124.733" rx="2.5" ry="2.5"/>
</g>
<!-- 18&#45;&#45;anon_18_0_0 -->
<g id="edge18" class="edge"><title>18&#45;&#45;anon_18_0_0</title>
<path fill="none" stroke="black" d="M-69.7669,-147.535C-61.5643,-142.183 -43.6213,-130.475 -37.181,-126.272"/>
</g>
<!-- 19 -->
<g id="node20" class="node"><title>19</title>
<ellipse fill="#1874cd" stroke="black" cx="38.0269" cy="198.594" rx="3.5" ry="3.5"/>
<text text-anchor="middle" x="38.0269" y="201.094" font-family="Times,serif" font-size="10.00">19</text>
</g>
<!-- 19&#45;&#45;1 -->
<g id="edge21" class="edge"><title>19&#45;&#45;1</title>
<path fill="none" stroke="black" d="M39.5097,195.116C42.9156,187.127 51.5899,166.781 59.194,148.945"/>
</g>
<!-- 20 -->
<g id="node21" class="node"><title>20</title>
<ellipse fill="#ff3030" stroke="black" cx="141.956" cy="146.11" rx="3.5" ry="3.5"/>
<text text-anchor="middle" x="141.956" y="148.61" font-family="Times,serif" font-size="10.00">20</text>
</g>
<!-- 20&#45;&#45;1 -->
<g id="edge22" class="edge"><title>20&#45;&#45;1</title>
<path fill="none" stroke="black" d="M138.607,144.738C132.27,142.139 117.924,136.258 104.215,130.637"/>
</g>
<!-- 21 -->
<g id="node22" class="node"><title>21</title>
<ellipse fill="deepskyblue" stroke="black" cx="126.939" cy="169.887" rx="3.5" ry="3.5"/>
<text text-anchor="middle" x="126.939" y="172.387" font-family="Times,serif" font-size="10.00">21</text>
</g>
<!-- 21&#45;&#45;1 -->
<g id="edge23" class="edge"><title>21&#45;&#45;1</title>
<path fill="none" stroke="black" d="M124.315,167.368C119.306,162.558 107.913,151.619 97.0865,141.223"/>
</g>
<!-- 22 -->
<g id="node23" class="node"><title>22</title>
<ellipse fill="deepskyblue" stroke="black" cx="281.835" cy="-104.44" rx="3.5" ry="3.5"/>
<text text-anchor="middle" x="281.835" y="-101.94" font-family="Times,serif" font-size="10.00">22</text>
</g>
<!-- 22&#45;&#45;3 -->
<g id="edge24" class="edge"><title>22&#45;&#45;3</title>
<path fill="none" stroke="black" d="M278.106,-103.63C270.508,-101.982 252.671,-98.1109 237.506,-94.8202"/>
</g>
<!-- 23 -->
<g id="node24" class="node"><title>23</title>
<ellipse fill="brown" stroke="black" cx="-37.1303" cy="7.90143" rx="3.5" ry="3.5"/>
<text text-anchor="middle" x="-37.1303" y="10.4014" font-family="Times,serif" font-size="10.00">23</text>
</g>
<!-- 23&#45;&#45;11 -->
<g id="edge25" class="edge"><title>23&#45;&#45;11</title>
<path fill="none" stroke="black" d="M-33.4616,8.03393C-25.3289,8.32766 -5.61733,9.03958 5.63942,9.44614"/>
</g>
<!-- 24 -->
<g id="node25" class="node"><title>24</title>
<ellipse fill="#ff3030" stroke="black" cx="-105.127" cy="-36.7594" rx="3.5" ry="3.5"/>
<text text-anchor="middle" x="-105.127" y="-34.2594" font-family="Times,serif" font-size="10.00">24</text>
</g>
<!-- 24&#45;&#45;4 -->
<g id="edge26" class="edge"><title>24&#45;&#45;4</title>
<path fill="none" stroke="black" d="M-101.877,-38.5113C-95.0836,-42.1722 -78.9893,-50.8456 -66.6188,-57.5123"/>
</g>
<!-- 25 -->
<g id="node26" class="node"><title>25</title>
<ellipse fill="#ff3030" stroke="black" cx="150.672" cy="129.473" rx="3.5" ry="3.5"/>
<text text-anchor="middle" x="150.672" y="131.973" font-family="Times,serif" font-size="10.00">25</text>
</g>
<!-- 25&#45;&#45;1 -->
<g id="edge27" class="edge"><title>25&#45;&#45;1</title>
<path fill="none" stroke="black" d="M146.904,128.903C139.465,127.777 122.227,125.169 106.219,122.746"/>
</g>
<!-- 26 -->
<g id="node27" class="node"><title>26</title>
<ellipse fill="deepskyblue" stroke="black" cx="2.47673" cy="144.544" rx="3.5" ry="3.5"/>
<text text-anchor="middle" x="2.47673" y="147.044" font-family="Times,serif" font-size="10.00">26</text>
</g>
<!-- 26&#45;&#45;1 -->
<g id="edge28" class="edge"><title>26&#45;&#45;1</title>
<path fill="none" stroke="black" d="M5.85585,143.247C12.2518,140.791 26.7295,135.234 40.5658,129.922"/>
</g>
<!-- 27 -->
<g id="node28" class="node"><title>27</title>
<ellipse fill="#1874cd" stroke="black" cx="192.445" cy="186.573" rx="3.5" ry="3.5"/>
<text text-anchor="middle" x="192.445" y="189.073" font-family="Times,serif" font-size="10.00">27</text>
</g>
<!-- anon_27_1_0 -->
<g id="node63" class="node"><title>anon_27_1_0</title>
<ellipse fill="white" stroke="black" cx="153.744" cy="162.252" rx="2.5" ry="2.5"/>
</g>
<!-- 27&#45;&#45;anon_27_1_0 -->
<g id="edge29" class="edge"><title>27&#45;&#45;anon_27_1_0</title>
<path fill="none" stroke="black" d="M189.409,184.664C181.853,179.916 162.353,167.662 155.873,163.589"/>
</g>
<!-- 28 -->
<g id="node29" class="node"><title>28</title>
<ellipse fill="deepskyblue" stroke="black" cx="-51.1003" cy="181.687" rx="3.5" ry="3.5"/>
<text text-anchor="middle" x="-51.1003" y="184.187" font-family="Times,serif" font-size="10.00">28</text>
</g>
<!-- anon_28_1_0 -->
<g id="node64" class="node"><title>anon_28_1_0</title>
<ellipse fill="white" stroke="black" cx="-11.3816" cy="158.792" rx="2.5" ry="2.5"/>
</g>
<!-- 28&#45;&#45;anon_28_1_0 -->
<g id="edge31" class="edge"><title>28&#45;&#45;anon_28_1_0</title>
<path fill="none" stroke="black" d="M-47.9837,179.891C-40.2297,175.421 -20.2169,163.885 -13.5666,160.051"/>
</g>
<!-- 29 -->
<g id="node30" class="node"><title>29</title>
<ellipse fill="brown" stroke="black" cx="52.1199" cy="-120.682" rx="3.5" ry="3.5"/>
<text text-anchor="middle" x="52.1199" y="-118.182" font-family="Times,serif" font-size="10.00">29</text>
</g>
<!-- 29&#45;&#45;0 -->
<g id="edge33" class="edge"><title>29&#45;&#45;0</title>
<path fill="none" stroke="black" d="M53.5496,-117.401C55.7719,-112.301 60.2793,-101.957 64.8732,-91.4148"/>
</g>
<!-- 30 -->
<g id="node31" class="node"><title>30</title>
<ellipse fill="deepskyblue" stroke="black" cx="146.841" cy="99.3277" rx="3.5" ry="3.5"/>
<text text-anchor="middle" x="146.841" y="101.828" font-family="Times,serif" font-size="10.00">30</text>
</g>
<!-- 30&#45;&#45;1 -->
<g id="edge34" class="edge"><title>30&#45;&#45;1</title>
<path fill="none" stroke="black" d="M143.257,100.211C136.358,101.913 120.591,105.8 105.692,109.474"/>
</g>
<!-- 31 -->
<g id="node32" class="node"><title>31</title>
<ellipse fill="deepskyblue" stroke="black" cx="192.257" cy="-149.114" rx="3.5" ry="3.5"/>
<text text-anchor="middle" x="192.257" y="-146.614" font-family="Times,serif" font-size="10.00">31</text>
</g>
<!-- 31&#45;&#45;8 -->
<g id="edge35" class="edge"><title>31&#45;&#45;8</title>
<path fill="none" stroke="black" d="M189.52,-146.793C183.503,-141.69 168.9,-129.307 159.377,-121.231"/>
</g>
<!-- 32 -->
<g id="node33" class="node"><title>32</title>
<ellipse fill="#1874cd" stroke="black" cx="18.0065" cy="240.247" rx="3.5" ry="3.5"/>
<text text-anchor="middle" x="18.0065" y="242.747" font-family="Times,serif" font-size="10.00">32</text>
</g>
<!-- 32&#45;&#45;19 -->
<g id="edge36" class="edge"><title>32&#45;&#45;19</title>
<path fill="none" stroke="black" d="M19.5774,236.979C23.2646,229.307 32.4512,210.194 36.2939,202.199"/>
</g>
<!-- 33 -->
<g id="node34" class="node"><title>33</title>
<ellipse fill="deepskyblue" stroke="black" cx="35.2524" cy="180.102" rx="3.5" ry="3.5"/>
<text text-anchor="middle" x="35.2524" y="182.602" font-family="Times,serif" font-size="10.00">33</text>
</g>
<!-- 33&#45;&#45;1 -->
<g id="edge37" class="edge"><title>33&#45;&#45;1</title>
<path fill="none" stroke="black" d="M37.0506,177.089C40.3672,171.534 47.7668,159.139 54.9554,147.098"/>
</g>
<!-- 34 -->
<g id="node35" class="node"><title>34</title>
<ellipse fill="brown" stroke="black" cx="85.8975" cy="-177.693" rx="3.5" ry="3.5"/>
<text text-anchor="middle" x="85.8975" y="-175.193" font-family="Times,serif" font-size="10.00">34</text>
</g>
<!-- anon_34_0_0 -->
<g id="node65" class="node"><title>anon_34_0_0</title>
<ellipse fill="white" stroke="black" cx="82.508" cy="-133.871" rx="2.5" ry="2.5"/>
</g>
<!-- 34&#45;&#45;anon_34_0_0 -->
<g id="edge38" class="edge"><title>34&#45;&#45;anon_34_0_0</title>
<path fill="none" stroke="black" d="M85.6085,-173.956C84.9425,-165.346 83.3119,-144.265 82.7239,-136.662"/>
</g>
<!-- 35 -->
<g id="node36" class="node"><title>35</title>
<ellipse fill="#ff3030" stroke="black" cx="-160.16" cy="-72.1168" rx="3.5" ry="3.5"/>
<text text-anchor="middle" x="-160.16" y="-69.6168" font-family="Times,serif" font-size="10.00">35</text>
</g>
<!-- anon_35_4_0 -->
<g id="node66" class="node"><title>anon_35_4_0</title>
<ellipse fill="white" stroke="black" cx="-115.444" cy="-69.2836" rx="2.5" ry="2.5"/>
</g>
<!-- 35&#45;&#45;anon_35_4_0 -->
<g id="edge40" class="edge"><title>35&#45;&#45;anon_35_4_0</title>
<path fill="none" stroke="black" d="M-156.651,-71.8945C-148.086,-71.3519 -126.236,-69.9674 -118.343,-69.4673"/>
</g>
<!-- 36 -->
<g id="node37" class="node"><title>36</title>
<ellipse fill="deepskyblue" stroke="black" cx="218.985" cy="-269.003" rx="3.5" ry="3.5"/>
<text text-anchor="middle" x="218.985" y="-266.503" font-family="Times,serif" font-size="10.00">36</text>
</g>
<!-- anon_36_7_0 -->
<g id="node67" class="node"><title>anon_36_7_0</title>
<ellipse fill="white" stroke="black" cx="191.528" cy="-234.664" rx="2.5" ry="2.5"/>
</g>
<!-- 36&#45;&#45;anon_36_7_0 -->
<g id="edge42" class="edge"><title>36&#45;&#45;anon_36_7_0</title>
<path fill="none" stroke="black" d="M216.451,-265.834C210.928,-258.927 197.927,-242.667 193.246,-236.812"/>
</g>
<!-- 37 -->
<g id="node38" class="node"><title>37</title>
<ellipse fill="deepskyblue" stroke="black" cx="-41.9535" cy="-262.397" rx="3.5" ry="3.5"/>
<text text-anchor="middle" x="-41.9535" y="-259.897" font-family="Times,serif" font-size="10.00">37</text>
</g>
<!-- 37&#45;&#45;5 -->
<g id="edge45" class="edge"><title>37&#45;&#45;5</title>
<path fill="none" stroke="black" d="M-39.3903,-259.889C-34.1064,-254.72 -21.6854,-242.567 -11.9867,-233.078"/>
</g>
<!-- 38 -->
<g id="node39" class="node"><title>38</title>
<ellipse fill="deepskyblue" stroke="black" cx="263.7" cy="-138.52" rx="3.5" ry="3.5"/>
<text text-anchor="middle" x="263.7" y="-136.02" font-family="Times,serif" font-size="10.00">38</text>
</g>
<!-- 38&#45;&#45;3 -->
<g id="edge46" class="edge"><title>38&#45;&#45;3</title>
<path fill="none" stroke="black" d="M260.946,-135.879C255.335,-130.497 242.161,-117.862 230.961,-107.121"/>
</g>
<!-- 39 -->
<g id="node40" class="node"><title>39</title>
<ellipse fill="#98f5ff" stroke="black" cx="-5.78172" cy="112.097" rx="3.5" ry="3.5"/>
<text text-anchor="middle" x="-5.78172" y="114.597" font-family="Times,serif" font-size="10.00">39</text>
</g>
<!-- 39&#45;&#45;1 -->
<g id="edge47" class="edge"><title>39&#45;&#45;1</title>
<path fill="none" stroke="black" d="M-2.00429,112.365C5.3901,112.889 22.4471,114.098 38.3807,115.228"/>
</g>
<!-- 40 -->
<g id="node41" class="node"><title>40</title>
<ellipse fill="brown" stroke="black" cx="9.88079" cy="-66.5893" rx="3.5" ry="3.5"/>
<text text-anchor="middle" x="9.88079" y="-64.0893" font-family="Times,serif" font-size="10.00">40</text>
</g>
<!-- 40&#45;&#45;0 -->
<g id="edge48" class="edge"><title>40&#45;&#45;0</title>
<path fill="none" stroke="black" d="M13.5815,-66.2166C19.5571,-65.6147 31.9157,-64.3699 44.2775,-63.1249"/>
</g>
<!-- 41 -->
<g id="node42" class="node"><title>41</title>
<ellipse fill="deepskyblue" stroke="black" cx="-5.892" cy="127.321" rx="3.5" ry="3.5"/>
<text text-anchor="middle" x="-5.892" y="129.821" font-family="Times,serif" font-size="10.00">41</text>
</g>
<!-- 41&#45;&#45;1 -->
<g id="edge49" class="edge"><title>41&#45;&#45;1</title>
<path fill="none" stroke="black" d="M-2.10924,126.855C5.35675,125.934 22.6596,123.8 38.7279,121.819"/>
</g>
<!-- 42 -->
<g id="node43" class="node"><title>42</title>
<ellipse fill="black" stroke="black" cx="282.011" cy="-69.3896" rx="3.5" ry="3.5"/>
<text text-anchor="middle" x="282.011" y="-66.8896" font-family="Times,serif" font-size="10.00">42</text>
</g>
<!-- 42&#45;&#45;3 -->
<g id="edge50" class="edge"><title>42&#45;&#45;3</title>
<path fill="none" stroke="black" d="M278.273,-70.4648C270.599,-72.6715 252.507,-77.874 237.232,-82.2665"/>
</g>
<!-- 43 -->
<g id="node44" class="node"><title>43</title>
<ellipse fill="deepskyblue" stroke="black" cx="85.5918" cy="-9.12012" rx="3.5" ry="3.5"/>
<text text-anchor="middle" x="85.5918" y="-6.62012" font-family="Times,serif" font-size="10.00">43</text>
</g>
<!-- 43&#45;&#45;2 -->
<g id="edge51" class="edge"><title>43&#45;&#45;2</title>
<path fill="none" stroke="black" d="M89.194,-8.70661C97.5305,-7.74963 118.86,-5.30111 137.432,-3.16915"/>
</g>
<!-- 43&#45;&#45;15 -->
<g id="edge71" class="edge"><title>43&#45;&#45;15</title>
<path fill="none" stroke="black" stroke-dasharray="5,2" d="M81.9527,-9.74735C73.3418,-11.2316 51.6446,-14.9713 41.0293,-16.801"/>
</g>
<!-- 44 -->
<g id="node45" class="node"><title>44</title>
<ellipse fill="#ff3030" stroke="black" cx="-97.7674" cy="-104.346" rx="3.5" ry="3.5"/>
<text text-anchor="middle" x="-97.7674" y="-101.846" font-family="Times,serif" font-size="10.00">44</text>
</g>
<!-- 44&#45;&#45;4 -->
<g id="edge52" class="edge"><title>44&#45;&#45;4</title>
<path fill="none" stroke="black" d="M-94.9549,-102.072C-89.1574,-97.3857 -75.5288,-86.3683 -64.8872,-77.7656"/>
</g>
<!-- 45 -->
<g id="node46" class="node"><title>45</title>
<ellipse fill="#98f5ff" stroke="black" cx="252.573" cy="15.3978" rx="3.5" ry="3.5"/>
<text text-anchor="middle" x="252.573" y="17.8978" font-family="Times,serif" font-size="10.00">45</text>
</g>
<!-- 45&#45;&#45;2 -->
<g id="edge53" class="edge"><title>45&#45;&#45;2</title>
<path fill="none" stroke="black" d="M249.001,14.7579C240.732,13.2767 219.577,9.48713 201.156,6.18749"/>
</g>
<!-- 46 -->
<g id="node47" class="node"><title>46</title>
<ellipse fill="#1874cd" stroke="black" cx="15.9528" cy="167.673" rx="3.5" ry="3.5"/>
<text text-anchor="middle" x="15.9528" y="170.173" font-family="Times,serif" font-size="10.00">46</text>
</g>
<!-- 46&#45;&#45;1 -->
<g id="edge54" class="edge"><title>46&#45;&#45;1</title>
<path fill="none" stroke="black" d="M18.6819,165.26C23.8918,160.654 35.7409,150.179 47.0018,140.223"/>
</g>
<!-- 47 -->
<g id="node48" class="node"><title>47</title>
<ellipse fill="#ff3030" stroke="black" cx="114.491" cy="240.825" rx="3.5" ry="3.5"/>
<text text-anchor="middle" x="114.491" y="243.325" font-family="Times,serif" font-size="10.00">47</text>
</g>
<!-- anon_47_1_0 -->
<g id="node69" class="node"><title>anon_47_1_0</title>
<ellipse fill="white" stroke="black" cx="98.5336" cy="198.777" rx="2.5" ry="2.5"/>
</g>
<!-- 47&#45;&#45;anon_47_1_0 -->
<g id="edge55" class="edge"><title>47&#45;&#45;anon_47_1_0</title>
<path fill="none" stroke="black" d="M113.239,237.526C110.183,229.472 102.385,208.926 99.5683,201.504"/>
</g>
<!-- 48 -->
<g id="node49" class="node"><title>48</title>
<ellipse fill="#ff3030" stroke="black" cx="151.585" cy="114.205" rx="3.5" ry="3.5"/>
<text text-anchor="middle" x="151.585" y="116.705" font-family="Times,serif" font-size="10.00">48</text>
</g>
<!-- 48&#45;&#45;1 -->
<g id="edge57" class="edge"><title>48&#45;&#45;1</title>
<path fill="none" stroke="black" d="M147.773,114.371C140.248,114.699 122.808,115.459 106.612,116.165"/>
</g>
<!-- 49 -->
<g id="node50" class="node"><title>49</title>
<ellipse fill="#ff3030" stroke="black" cx="-13.4824" cy="-25.7034" rx="3.5" ry="3.5"/>
<text text-anchor="middle" x="-13.4824" y="-23.2034" font-family="Times,serif" font-size="10.00">49</text>
</g>
<!-- 49&#45;&#45;4 -->
<g id="edge58" class="edge"><title>49&#45;&#45;4</title>
<path fill="none" stroke="black" d="M-15.9144,-28.3588C-20.3595,-33.2122 -30.0762,-43.8215 -38.0893,-52.5708"/>
</g>
<!-- 49&#45;&#45;15 -->
<g id="edge72" class="edge"><title>49&#45;&#45;15</title>
<path fill="none" stroke="black" stroke-dasharray="5,2" d="M-9.9963,-25.138C-1.83395,-23.8142 18.6023,-20.4998 28.8831,-18.8324"/>
</g>
<!-- 50 -->
<g id="node51" class="node"><title>50</title>
<ellipse fill="black" stroke="black" cx="109.202" cy="181.396" rx="3.5" ry="3.5"/>
<text text-anchor="middle" x="109.202" y="183.896" font-family="Times,serif" font-size="10.00">50</text>
</g>
<!-- 50&#45;&#45;1 -->
<g id="edge59" class="edge"><title>50&#45;&#45;1</title>
<path fill="none" stroke="black" d="M107.434,178.321C104.144,172.601 96.7672,159.777 89.6398,147.385"/>
</g>
<!-- 51 -->
<g id="node52" class="node"><title>51</title>
<ellipse fill="#1874cd" stroke="black" cx="37.8615" cy="53.5784" rx="3.5" ry="3.5"/>
<text text-anchor="middle" x="37.8615" y="56.0784" font-family="Times,serif" font-size="10.00">51</text>
</g>
<!-- 51&#45;&#45;1 -->
<g id="edge60" class="edge"><title>51&#45;&#45;1</title>
<path fill="none" stroke="black" d="M39.5339,56.6687C42.6184,62.368 49.5002,75.084 56.1857,87.4373"/>
</g>
<!-- 51&#45;&#45;11 -->
<g id="edge73" class="edge"><title>51&#45;&#45;11</title>
<path fill="none" stroke="black" stroke-dasharray="5,2" d="M36.1369,50.426C32.3138,43.4375 23.0475,26.4992 17.7559,16.8262"/>
</g>
<!-- 52 -->
<g id="node53" class="node"><title>52</title>
<ellipse fill="deepskyblue" stroke="black" cx="136.404" cy="84.3478" rx="3.5" ry="3.5"/>
<text text-anchor="middle" x="136.404" y="86.8478" font-family="Times,serif" font-size="10.00">52</text>
</g>
<!-- 52&#45;&#45;1 -->
<g id="edge61" class="edge"><title>52&#45;&#45;1</title>
<path fill="none" stroke="black" d="M132.971,86.1382C127.167,89.1644 114.874,95.5741 102.88,101.828"/>
</g>
<!-- 53 -->
<g id="node54" class="node"><title>53</title>
<ellipse fill="#ff3030" stroke="black" cx="70.0167" cy="191.063" rx="3.5" ry="3.5"/>
<text text-anchor="middle" x="70.0167" y="193.563" font-family="Times,serif" font-size="10.00">53</text>
</g>
<!-- 53&#45;&#45;1 -->
<g id="edge62" class="edge"><title>53&#45;&#45;1</title>
<path fill="none" stroke="black" d="M70.1382,187.522C70.3643,180.935 70.8712,166.165 71.3609,151.895"/>
</g>
<!-- 54 -->
<g id="node55" class="node"><title>54</title>
<ellipse fill="brown" stroke="black" cx="142.254" cy="-77.4262" rx="3.5" ry="3.5"/>
<text text-anchor="middle" x="142.254" y="-74.9262" font-family="Times,serif" font-size="10.00">54</text>
</g>
<!-- 54&#45;&#45;0 -->
<g id="edge63" class="edge"><title>54&#45;&#45;0</title>
<path fill="none" stroke="black" d="M138.837,-76.4709C133.579,-75.0003 122.966,-72.0323 112.099,-68.9935"/>
</g>
<!-- 55 -->
<g id="node56" class="node"><title>55</title>
<ellipse fill="#ff3030" stroke="black" cx="212.505" cy="-23.1881" rx="3.5" ry="3.5"/>
<text text-anchor="middle" x="212.505" y="-20.6881" font-family="Times,serif" font-size="10.00">55</text>
</g>
<!-- 55&#45;&#45;10 -->
<g id="edge64" class="edge"><title>55&#45;&#45;10</title>
<path fill="none" stroke="black" d="M208.85,-23.8675C200.746,-25.3735 181.105,-29.0236 169.889,-31.1081"/>
</g>
<!-- 56 -->
<g id="node57" class="node"><title>56</title>
<ellipse fill="#1874cd" stroke="black" cx="0.559234" cy="97.5248" rx="3.5" ry="3.5"/>
<text text-anchor="middle" x="0.559234" y="100.025" font-family="Times,serif" font-size="10.00">56</text>
</g>
<!-- 56&#45;&#45;1 -->
<g id="edge65" class="edge"><title>56&#45;&#45;1</title>
<path fill="none" stroke="black" d="M4.03084,98.4954C10.6019,100.333 25.4758,104.491 39.6908,108.466"/>
</g>
<!-- 57 -->
<g id="node58" class="node"><title>57</title>
<ellipse fill="brown" stroke="black" cx="-32.8161" cy="29.9762" rx="3.5" ry="3.5"/>
<text text-anchor="middle" x="-32.8161" y="32.4762" font-family="Times,serif" font-size="10.00">57</text>
</g>
<!-- 57&#45;&#45;11 -->
<g id="edge66" class="edge"><title>57&#45;&#45;11</title>
<path fill="none" stroke="black" d="M-29.4578,28.5211C-22.0128,25.2955 -3.96829,17.4774 6.33646,13.0128"/>
</g>
<!-- 58 -->
<g id="node59" class="node"><title>58</title>
<ellipse fill="deepskyblue" stroke="black" cx="-5.74884" cy="-369.602" rx="3.5" ry="3.5"/>
<text text-anchor="middle" x="-5.74884" y="-367.102" font-family="Times,serif" font-size="10.00">58</text>
</g>
<!-- anon_58_5_0 -->
<g id="node70" class="node"><title>anon_58_5_0</title>
<ellipse fill="white" stroke="black" cx="2.77025" cy="-327.088" rx="2.5" ry="2.5"/>
</g>
<!-- 58&#45;&#45;anon_58_5_0 -->
<g id="edge67" class="edge"><title>58&#45;&#45;anon_58_5_0</title>
<path fill="none" stroke="black" d="M-5.0225,-365.977C-3.34863,-357.624 0.749638,-337.172 2.22764,-329.796"/>
</g>
<!-- 59 -->
<g id="node60" class="node"><title>59</title>
<ellipse fill="deepskyblue" stroke="black" cx="-58.8683" cy="-237.244" rx="3.5" ry="3.5"/>
<text text-anchor="middle" x="-58.8683" y="-234.744" font-family="Times,serif" font-size="10.00">59</text>
</g>
<!-- 59&#45;&#45;5 -->
<g id="edge70" class="edge"><title>59&#45;&#45;5</title>
<path fill="none" stroke="black" d="M-55.2976,-236.234C-47.7858,-234.11 -29.9188,-229.058 -16.2955,-225.205"/>
</g>
<!-- anon_18_0_1 -->
<g id="node62" class="node"><title>anon_18_0_1</title>
<ellipse fill="white" stroke="black" cx="2.80566" cy="-99.3679" rx="2.5" ry="2.5"/>
</g>
<!-- anon_18_0_0&#45;&#45;anon_18_0_1 -->
<g id="edge19" class="edge"><title>anon_18_0_0&#45;&#45;anon_18_0_1</title>
<path fill="none" stroke="black" d="M-32.3524,-123.068C-25.4202,-118.395 -5.85837,-105.208 0.661219,-100.813"/>
</g>
<!-- anon_18_0_1&#45;&#45;0 -->
<g id="edge20" class="edge"><title>anon_18_0_1&#45;&#45;0</title>
<path fill="none" stroke="black" d="M5.3312,-98.0466C12.071,-94.5206 31.1282,-84.5506 48.1319,-75.655"/>
</g>
<!-- anon_27_1_0&#45;&#45;1 -->
<g id="edge30" class="edge"><title>anon_27_1_0&#45;&#45;1</title>
<path fill="none" stroke="black" d="M151.401,160.965C144.172,156.994 121.543,144.565 102.368,134.034"/>
</g>
<!-- anon_28_1_0&#45;&#45;1 -->
<g id="edge32" class="edge"><title>anon_28_1_0&#45;&#45;1</title>
<path fill="none" stroke="black" d="M-8.96064,157.605C-1.48982,153.942 21.8947,142.478 41.7091,132.763"/>
</g>
<!-- anon_34_0_0&#45;&#45;0 -->
<g id="edge39" class="edge"><title>anon_34_0_0&#45;&#45;0</title>
<path fill="none" stroke="black" d="M82.3638,-131.052C82.0469,-124.857 81.2569,-109.411 80.4924,-94.4651"/>
</g>
<!-- anon_35_4_0&#45;&#45;4 -->
<g id="edge41" class="edge"><title>anon_35_4_0&#45;&#45;4</title>
<path fill="none" stroke="black" d="M-112.655,-69.15C-105.183,-68.7919 -84.2253,-67.7874 -68.711,-67.0439"/>
</g>
<!-- anon_36_7_1 -->
<g id="node68" class="node"><title>anon_36_7_1</title>
<ellipse fill="white" stroke="black" cx="165.14" cy="-198.898" rx="2.5" ry="2.5"/>
</g>
<!-- anon_36_7_0&#45;&#45;anon_36_7_1 -->
<g id="edge43" class="edge"><title>anon_36_7_0&#45;&#45;anon_36_7_1</title>
<path fill="none" stroke="black" d="M189.797,-232.317C184.935,-225.728 171.216,-207.134 166.644,-200.937"/>
</g>
<!-- anon_36_7_1&#45;&#45;7 -->
<g id="edge44" class="edge"><title>anon_36_7_1&#45;&#45;7</title>
<path fill="none" stroke="black" d="M163.761,-196.786C159.731,-190.613 147.766,-172.286 140.016,-160.416"/>
</g>
<!-- anon_47_1_0&#45;&#45;1 -->
<g id="edge56" class="edge"><title>anon_47_1_0&#45;&#45;1</title>
<path fill="none" stroke="black" d="M97.6686,196.078C95.3603,188.875 88.8333,168.506 83.0097,150.333"/>
</g>
<!-- anon_58_5_1 -->
<g id="node71" class="node"><title>anon_58_5_1</title>
<ellipse fill="white" stroke="black" cx="7.04816" cy="-283.786" rx="2.5" ry="2.5"/>
</g>
<!-- anon_58_5_0&#45;&#45;anon_58_5_1 -->
<g id="edge68" class="edge"><title>anon_58_5_0&#45;&#45;anon_58_5_1</title>
<path fill="none" stroke="black" d="M3.02505,-324.509C3.78771,-316.789 6.04622,-293.928 6.80006,-286.297"/>
</g>
<!-- anon_58_5_1&#45;&#45;5 -->
<g id="edge69" class="edge"><title>anon_58_5_1&#45;&#45;5</title>
<path fill="none" stroke="black" d="M6.79182,-281.057C6.10938,-273.794 4.20335,-253.507 2.78007,-238.359"/>
</g>
</g>
</svg>
