<?xml version="1.0" encoding="UTF-8" standalone="no"?>
<!DOCTYPE svg PUBLIC "-//W3C//DTD SVG 1.1//EN"
 "http://www.w3.org/Graphics/SVG/1.1/DTD/svg11.dtd">
<!-- Generated by graphviz version 2.38.0 (20140413.2041)
 -->
<!-- Title: %3 Pages: 1 -->
<svg width="582pt" height="594pt"
 viewBox="0.00 0.00 581.91 593.66" xmlns="http://www.w3.org/2000/svg" xmlns:xlink="http://www.w3.org/1999/xlink">
<g id="graph0" class="graph" transform="scale(1 1) rotate(0) translate(244.556 382.539)">
<title>%3</title>
<polygon fill="white" stroke="none" points="-244.556,211.118 -244.556,-382.539 337.35,-382.539 337.35,211.118 -244.556,211.118"/>
<!-- 0 -->
<g id="node1" class="node"><title>0</title>
<path fill="#98f5ff" stroke="black" stroke-width="0.5" d="M-119.701,41.1175C-119.701,41.1175 -94.201,41.1175 -94.201,41.1175 -94.201,40.383 -94.2327,39.6489 -94.2961,38.9172 -94.3595,38.1855 -94.4544,37.4568 -94.5807,36.7333 -94.707,36.0098 -94.8644,35.292 -95.0527,34.5821 -95.2409,33.8722 -95.4597,33.1707 -95.7085,32.4797 -95.9573,31.7886 -96.2358,31.1087 -96.5433,30.4417 -96.8508,29.7747 -97.187,29.1213 -97.5509,28.4833 -97.9148,27.8453 -98.3061,27.2234 -98.7237,26.6192 -99.1412,26.015 -99.5847,25.4291 -100.053,24.8632 -100.521,24.2973 -101.013,23.7519 -101.529,23.2284 -102.044,22.705 -102.582,22.2041 -103.14,21.7271 -103.699,21.2502 -104.277,20.7975 -104.875,20.3705 -105.473,19.9435 -106.088,19.5424 -106.72,19.1686 -107.353,18.7947 -108.001,18.4483 -108.663,18.1304 -109.325,17.8125 -110,17.5233 -110.687,17.2637 -111.374,17.0041 -112.072,16.7743 -112.779,16.5749 -113.486,16.3755 -114.201,16.2068 -114.923,16.0692 -114.923,16.0692 -119.701,41.1175 -119.701,41.1175"/>
<path fill="deepskyblue" stroke="black" stroke-width="0.5" d="M-119.701,41.1175C-119.701,41.1175 -114.923,16.0692 -114.923,16.0692 -116.202,15.8251 -117.498,15.6794 -118.8,15.6334 -120.102,15.5874 -121.405,15.6412 -122.698,15.7943 -123.992,15.9473 -125.271,16.1993 -126.526,16.5479 -127.781,16.8965 -129.008,17.3407 -130.195,17.8767 -131.382,18.4127 -132.526,19.0388 -133.617,19.7496 -134.709,20.4604 -135.744,21.2537 -136.714,22.1227 -137.684,22.9917 -138.586,23.9337 -139.413,24.9405 -140.239,25.9473 -140.987,27.0159 -141.65,28.1369 -142.313,29.258 -142.889,30.4282 -143.373,31.6373 -143.857,32.8464 -144.248,34.0908 -144.542,35.3596 -144.836,36.6284 -145.033,37.9178 -145.13,39.2166 -145.227,40.5154 -145.225,41.8198 -145.122,43.1182 -145.02,44.4166 -144.819,45.7053 -144.52,46.9729 -144.221,48.2406 -143.825,49.4834 -143.336,50.6906 -142.847,51.8978 -142.266,53.0657 -141.599,54.1841 -140.931,55.3026 -140.179,56.3683 -139.349,57.3718 -138.519,58.3754 -137.613,59.3138 -136.639,60.179 -135.666,61.0441 -134.627,61.8334 -133.533,62.5399 -132.439,63.2464 -131.292,63.868 -130.103,64.3993 -128.914,64.9306 -127.686,65.37 -126.43,65.7137 -125.173,66.0574 -123.893,66.3043 -122.599,66.4523 -121.305,66.6003 -120.001,66.649 -118.7,66.5978 -117.398,66.5467 -116.103,66.3959 -114.824,66.1469 -113.546,65.8978 -112.289,65.5511 -111.063,65.11 -109.838,64.6688 -108.648,64.1344 -107.504,63.5114 -106.36,62.8884 -105.266,62.1787 -104.231,61.3886 -103.195,60.5984 -102.222,59.7301 -101.319,58.7912 -100.417,57.8524 -99.5871,56.8457 -98.8382,55.7801 -98.0893,54.7145 -97.4231,53.5931 -96.8455,52.4258 -96.2679,51.2584 -95.7806,50.0485 -95.3879,48.8067 -94.9952,47.5649 -94.6982,46.2948 -94.4995,45.0076 -94.3008,43.7205 -94.201,42.4199 -94.201,41.1175 -94.201,41.1175 -119.701,41.1175 -119.701,41.1175"/>
<ellipse fill="none" stroke="black" cx="-119.701" cy="41.1175" rx="25.5" ry="25.5"/>
<text text-anchor="middle" x="-119.701" y="43.6175" font-family="monospace" font-size="10.00">0</text>
</g>
<!-- 6 -->
<g id="node7" class="node"><title>6</title>
<path fill="brown" stroke="black" stroke-width="0.5" d="M-38.6364,-70.1369C-38.6364,-70.1369 -4.1364,-70.1369 -4.1364,-70.1369 -4.1364,-71.1447 -4.18055,-72.152 -4.26874,-73.1559 -4.35693,-74.1598 -4.48906,-75.1594 -4.66475,-76.1517 -4.84045,-77.144 -5.05954,-78.1282 -5.3214,-79.1014 -5.58326,-80.0745 -5.88763,-81.0357 -6.23364,-81.9822 -6.57965,-82.9288 -6.96697,-83.8596 -7.39448,-84.7723 -7.82199,-85.6849 -8.28928,-86.5783 -8.79501,-87.45 -9.30073,-88.3217 -9.84441,-89.1708 -10.4245,-89.9949 -11.0045,-90.819 -11.6204,-91.6172 -12.2704,-92.3874 -12.9203,-93.1576 -13.6037,-93.8989 -14.3186,-94.6092 -15.0334,-95.3196 -15.7791,-95.9983 -16.5534,-96.6433 -17.3276,-97.2884 -18.1298,-97.8992 -18.9575,-98.4741 -19.7853,-99.0489 -20.6378,-99.5872 -21.5127,-100.087 -22.3876,-100.588 -23.284,-101.049 -24.1993,-101.471 -25.1145,-101.893 -26.0479,-102.274 -26.9966,-102.614 -27.9452,-102.954 -28.9084,-103.252 -29.8832,-103.508 -30.858,-103.764 -31.8435,-103.977 -32.8369,-104.146 -33.8303,-104.315 -34.8307,-104.441 -35.8352,-104.523 -36.8396,-104.605 -37.8472,-104.643 -38.8549,-104.636 -39.8627,-104.63 -40.8697,-104.579 -41.873,-104.485 -42.8763,-104.39 -43.875,-104.252 -44.8662,-104.07 -45.8574,-103.888 -46.8402,-103.662 -47.8117,-103.394 -48.7831,-103.126 -49.7424,-102.816 -50.6867,-102.464 -51.631,-102.112 -52.5594,-101.719 -53.4693,-101.286 -54.3792,-100.852 -55.2696,-100.379 -56.1381,-99.8681 -57.0066,-99.3568 -57.8522,-98.8078 -58.6726,-98.2225 -59.493,-97.6372 -60.2874,-97.0163 -61.0534,-96.3615 -61.8195,-95.7067 -62.5564,-95.0186 -63.2622,-94.2992 -63.968,-93.5799 -64.642,-92.83 -65.2821,-92.0516 -65.9223,-91.2733 -66.528,-90.4673 -67.0976,-89.6359 -67.6672,-88.8045 -68.2001,-87.9486 -68.6947,-87.0706 -69.1893,-86.1925 -69.6453,-85.2933 -70.0612,-84.3753 -70.4771,-83.4574 -70.8526,-82.5217 -71.1866,-81.5708 -71.5206,-80.62 -71.8128,-79.655 -72.0623,-78.6786 -72.3118,-77.7022 -72.5184,-76.7154 -72.6815,-75.7209 -72.8446,-74.7264 -72.9641,-73.7253 -73.0395,-72.7203 -73.115,-71.7154 -73.1464,-70.7076 -73.1336,-69.6999 -73.1209,-68.6922 -73.064,-67.6856 -72.9631,-66.6829 -72.8622,-65.6802 -72.7174,-64.6823 -72.5291,-63.6923 -72.3409,-62.7023 -72.1093,-61.721 -71.8352,-60.7512 -71.561,-59.7814 -71.2445,-58.8242 -70.8865,-57.8821 -70.5285,-56.9401 -70.1295,-56.0141 -69.6904,-55.107 -69.2514,-54.1999 -68.7728,-53.3125 -68.2561,-52.4473 -67.7394,-51.5821 -67.185,-50.7399 -66.5945,-49.9232 -66.004,-49.1065 -65.3781,-48.3161 -64.7184,-47.5542 -64.0588,-46.7924 -63.366,-46.0598 -62.6423,-45.3585 -61.9185,-44.6573 -61.1643,-43.9881 -60.3819,-43.3529 -59.5995,-42.7177 -58.7897,-42.1171 -57.9547,-41.5528 -57.1197,-40.9885 -56.2605,-40.461 -55.3793,-39.972 -54.4982,-39.4829 -53.596,-39.0327 -52.6755,-38.6226 -51.7549,-38.2125 -50.8168,-37.8429 -49.8639,-37.515 -48.911,-37.187 -47.9442,-36.9009 -46.9662,-36.6576 -45.9883,-36.4143 -45.0001,-36.2139 -44.0046,-36.0571 -43.0091,-35.9003 -42.0072,-35.7872 -41.0018,-35.7181 -39.9964,-35.649 -38.9885,-35.624 -37.9809,-35.6432 -36.9733,-35.6623 -35.967,-35.7256 -34.965,-35.8328 -33.9629,-35.9401 -32.9661,-36.0912 -31.9772,-36.2857 -30.9884,-36.4802 -30.0086,-36.718 -29.0406,-36.9983 -28.0726,-37.2786 -27.1173,-37.6012 -26.1776,-37.9651 -25.2378,-38.329 -24.3144,-38.734 -23.4101,-39.1787 -22.5058,-39.6235 -21.6214,-40.1077 -20.7595,-40.6299 -19.8976,-41.1521 -19.0589,-41.7118 -18.246,-42.3074 -17.4331,-42.903 -16.6467,-43.534 -15.889,-44.1985 -15.1313,-44.8629 -14.4031,-45.5603 -13.7064,-46.2885 -13.0098,-47.0167 -12.3454,-47.7751 -11.7152,-48.5615 -11.7152,-48.5615 -38.6364,-70.1369 -38.6364,-70.1369"/>
<path fill="#ff3030" stroke="black" stroke-width="0.5" d="M-38.6364,-70.1369C-38.6364,-70.1369 -11.7152,-48.5615 -11.7152,-48.5615 -10.7431,-49.7745 -9.854,-51.0519 -9.05413,-52.3848 -8.25425,-53.7177 -7.54538,-55.1031 -6.93235,-56.5317 -6.93235,-56.5317 -38.6364,-70.1369 -38.6364,-70.1369"/>
<path fill="deepskyblue" stroke="black" stroke-width="0.5" d="M-38.6364,-70.1369C-38.6364,-70.1369 -6.93235,-56.5317 -6.93235,-56.5317 -6.47266,-57.6029 -6.06755,-58.6967 -5.71859,-59.8089 -5.36963,-60.9211 -5.07726,-62.0503 -4.84261,-63.1921 -4.60796,-64.3339 -4.43134,-65.4869 -4.31341,-66.6466 -4.19548,-67.8063 -4.1364,-68.9713 -4.1364,-70.1369 -4.1364,-70.1369 -38.6364,-70.1369 -38.6364,-70.1369"/>
<ellipse fill="none" stroke="black" cx="-38.6364" cy="-70.1369" rx="34.5" ry="34.5"/>
<text text-anchor="middle" x="-38.6364" y="-67.6369" font-family="monospace" font-size="10.00">6</text>
</g>
<!-- 0&#45;&#45;6 -->
<g id="edge1" class="edge"><title>0&#45;&#45;6</title>
<path fill="none" stroke="black" d="M-104.643,20.4521C-91.8228,2.857 -73.2839,-22.5861 -59.1153,-42.0313"/>
</g>
<!-- 22 -->
<g id="node23" class="node"><title>22</title>
<ellipse fill="deepskyblue" stroke="black" cx="-165.595" cy="95.0906" rx="3.5" ry="3.5"/>
<text text-anchor="middle" x="-165.595" y="97.5906" font-family="monospace" font-size="10.00">22</text>
</g>
<!-- 0&#45;&#45;22 -->
<g id="edge2" class="edge"><title>0&#45;&#45;22</title>
<path fill="none" stroke="black" d="M-136.27,60.603C-146.335,72.4395 -158.178,86.3673 -163.176,92.2458"/>
</g>
<!-- 24 -->
<g id="node25" class="node"><title>24</title>
<ellipse fill="deepskyblue" stroke="black" cx="-132.941" cy="111.197" rx="3.5" ry="3.5"/>
<text text-anchor="middle" x="-132.941" y="113.697" font-family="monospace" font-size="10.00">24</text>
</g>
<!-- 0&#45;&#45;24 -->
<g id="edge3" class="edge"><title>0&#45;&#45;24</title>
<path fill="none" stroke="black" d="M-124.481,66.4177C-127.384,81.7864 -130.801,99.8705 -132.243,107.503"/>
</g>
<!-- 58 -->
<g id="node59" class="node"><title>58</title>
<ellipse fill="black" stroke="black" cx="-187.087" cy="64.6884" rx="3.5" ry="3.5"/>
<text text-anchor="middle" x="-187.087" y="67.1884" font-family="monospace" font-size="10.00">58</text>
</g>
<!-- 0&#45;&#45;58 -->
<g id="edge4" class="edge"><title>0&#45;&#45;58</title>
<path fill="none" stroke="black" d="M-144.029,49.6271C-158.807,54.7963 -176.196,60.8788 -183.536,63.446"/>
</g>
<!-- 1 -->
<g id="node2" class="node"><title>1</title>
<ellipse fill="deepskyblue" stroke="black" cx="283.872" cy="51.0153" rx="3.5" ry="3.5"/>
<text text-anchor="middle" x="283.872" y="53.5153" font-family="monospace" font-size="10.00">1</text>
</g>
<!-- 3 -->
<g id="node4" class="node"><title>3</title>
<path fill="#1874cd" stroke="black" stroke-width="0.5" d="M210.834,72.6016C210.834,72.6016 244.834,72.6016 244.834,72.6016 244.834,71.3155 244.761,70.0305 244.615,68.7527 244.47,67.4748 244.252,66.2063 243.962,64.9532 243.673,63.7001 243.313,62.4644 242.884,61.2521 242.454,60.0398 241.957,58.8529 241.393,57.6969 240.829,56.541 240.2,55.418 239.509,54.3334 238.818,53.2487 238.066,52.2041 237.257,51.2047 236.447,50.2052 235.582,49.2525 234.665,48.351 233.747,47.4496 232.78,46.601 231.766,45.8092 230.753,45.0174 229.695,44.2838 228.599,43.6118 227.502,42.9398 226.368,42.3306 225.203,41.7871 224.037,41.2436 222.842,40.7666 221.622,40.3586 220.403,39.9505 219.161,39.6119 217.903,39.3445 216.645,39.0772 215.373,38.8814 214.093,38.7581 212.812,38.6348 211.526,38.5843 210.24,38.6067 208.955,38.6292 207.671,38.7246 206.396,38.8924 205.121,39.0603 203.856,39.3004 202.608,39.6115 202.608,39.6115 210.834,72.6016 210.834,72.6016"/>
<path fill="#98f5ff" stroke="black" stroke-width="0.5" d="M210.834,72.6016C210.834,72.6016 202.608,39.6115 202.608,39.6115 201.649,39.8508 200.7,40.1319 199.764,40.4539 198.829,40.776 197.908,41.1387 197.005,41.541 196.101,41.9434 195.215,42.3849 194.35,42.8645 193.485,43.3441 192.641,43.8611 191.821,44.4143 191.821,44.4143 210.834,72.6016 210.834,72.6016"/>
<path fill="#ff3030" stroke="black" stroke-width="0.5" d="M210.834,72.6016C210.834,72.6016 191.821,44.4143 191.821,44.4143 190.55,45.2718 189.338,46.2144 188.194,47.2356 187.05,48.2568 185.976,49.3542 184.98,50.5203 183.984,51.6865 183.068,52.9186 182.238,54.2084 181.409,55.4982 180.667,56.8427 180.019,58.2325 179.371,59.6224 178.818,61.0546 178.363,62.5192 177.908,63.9837 177.553,65.4774 177.3,66.9899 177.047,68.5025 176.896,70.0304 176.85,71.5633 176.803,73.0961 176.86,74.6304 177.02,76.1555 177.18,77.6807 177.444,79.1933 177.808,80.6829 178.173,82.1725 178.638,83.6358 179.2,85.0626 179.762,86.4895 180.42,87.8767 181.169,89.2147 181.918,90.5527 182.757,91.8385 183.68,93.0633 184.603,94.288 185.608,95.4489 186.687,96.5381 187.767,97.6272 188.919,98.642 190.136,99.5756 191.353,100.509 192.631,101.359 193.962,102.12 195.294,102.881 196.675,103.551 198.097,104.126 198.097,104.126 210.834,72.6016 210.834,72.6016"/>
<path fill="deepskyblue" stroke="black" stroke-width="0.5" d="M210.834,72.6016C210.834,72.6016 198.097,104.126 198.097,104.126 199.381,104.645 200.696,105.085 202.034,105.443 203.372,105.802 204.73,106.078 206.102,106.271 207.473,106.463 208.856,106.572 210.24,106.596 211.625,106.621 213.01,106.56 214.388,106.415 215.765,106.271 217.133,106.042 218.482,105.73 219.832,105.419 221.161,105.025 222.462,104.551 223.764,104.077 225.035,103.525 226.269,102.896 227.504,102.267 228.698,101.563 229.846,100.789 230.995,100.014 232.094,99.1704 233.14,98.2617 234.185,97.353 235.174,96.3813 236.101,95.352 237.028,94.3227 237.891,93.2377 238.685,92.1032 239.479,90.9686 240.204,89.7865 240.854,88.5636 241.504,87.3407 242.079,86.0791 242.576,84.7861 243.072,83.493 243.489,82.1708 243.824,80.8269 244.159,79.483 244.412,78.1199 244.58,76.7451 244.749,75.3704 244.834,73.9866 244.834,72.6016 244.834,72.6016 210.834,72.6016 210.834,72.6016"/>
<ellipse fill="none" stroke="black" cx="210.834" cy="72.6016" rx="34" ry="34"/>
<text text-anchor="middle" x="210.834" y="75.1016" font-family="monospace" font-size="10.00">3</text>
</g>
<!-- 1&#45;&#45;3 -->
<g id="edge5" class="edge"><title>1&#45;&#45;3</title>
<path fill="none" stroke="black" d="M280.349,52.0565C273.624,54.044 258.329,58.5643 243.794,62.8603"/>
</g>
<!-- 2 -->
<g id="node3" class="node"><title>2</title>
<ellipse fill="#ff3030" stroke="black" cx="-24.3357" cy="-169.67" rx="14" ry="14"/>
<text text-anchor="middle" x="-24.3357" y="-167.17" font-family="monospace" font-size="10.00">2</text>
</g>
<!-- 2&#45;&#45;6 -->
<g id="edge6" class="edge"><title>2&#45;&#45;6</title>
<path fill="none" stroke="black" d="M-26.3847,-155.409C-28.2846,-142.186 -31.1871,-121.984 -33.6902,-104.563"/>
</g>
<!-- 10 -->
<g id="node11" class="node"><title>10</title>
<ellipse fill="#ff3030" stroke="black" cx="255.498" cy="7.21158" rx="3.5" ry="3.5"/>
<text text-anchor="middle" x="255.498" y="9.71158" font-family="monospace" font-size="10.00">10</text>
</g>
<!-- 3&#45;&#45;10 -->
<g id="edge7" class="edge"><title>3&#45;&#45;10</title>
<path fill="none" stroke="black" d="M230.034,44.4908C239.303,30.9217 249.305,16.2779 253.484,10.159"/>
</g>
<!-- 21 -->
<g id="node22" class="node"><title>21</title>
<ellipse fill="deepskyblue" stroke="black" cx="240.723" cy="-0.169633" rx="3.5" ry="3.5"/>
<text text-anchor="middle" x="240.723" y="2.33037" font-family="monospace" font-size="10.00">21</text>
</g>
<!-- 3&#45;&#45;21 -->
<g id="edge8" class="edge"><title>3&#45;&#45;21</title>
<path fill="none" stroke="black" d="M223.857,40.8947C229.898,26.187 236.364,10.4422 239.22,3.48897"/>
</g>
<!-- 25 -->
<g id="node26" class="node"><title>25</title>
<ellipse fill="deepskyblue" stroke="black" cx="234.885" cy="142.278" rx="3.5" ry="3.5"/>
<text text-anchor="middle" x="234.885" y="144.778" font-family="monospace" font-size="10.00">25</text>
</g>
<!-- 3&#45;&#45;25 -->
<g id="edge9" class="edge"><title>3&#45;&#45;25</title>
<path fill="none" stroke="black" d="M222.015,104.992C226.627,118.354 231.406,132.199 233.62,138.611"/>
</g>
<!-- 30 -->
<g id="node31" class="node"><title>30</title>
<ellipse fill="deepskyblue" stroke="black" cx="223.525" cy="-2.56667" rx="3.5" ry="3.5"/>
<text text-anchor="middle" x="223.525" y="-0.0666714" font-family="monospace" font-size="10.00">30</text>
</g>
<!-- 3&#45;&#45;30 -->
<g id="edge10" class="edge"><title>3&#45;&#45;30</title>
<path fill="none" stroke="black" d="M216.511,38.9749C219.046,23.9644 221.724,8.10252 222.904,1.10973"/>
</g>
<!-- 34 -->
<g id="node35" class="node"><title>34</title>
<ellipse fill="#ff3030" stroke="black" cx="143.5" cy="98.2792" rx="3.5" ry="3.5"/>
<text text-anchor="middle" x="143.5" y="100.779" font-family="monospace" font-size="10.00">34</text>
</g>
<!-- 3&#45;&#45;34 -->
<g id="edge11" class="edge"><title>3&#45;&#45;34</title>
<path fill="none" stroke="black" d="M178.745,84.8387C166.009,89.6956 152.971,94.6674 146.944,96.9661"/>
</g>
<!-- 36 -->
<g id="node37" class="node"><title>36</title>
<ellipse fill="#ff3030" stroke="black" cx="282.558" cy="93.6082" rx="3.5" ry="3.5"/>
<text text-anchor="middle" x="282.558" y="96.1082" font-family="monospace" font-size="10.00">36</text>
</g>
<!-- 3&#45;&#45;36 -->
<g id="edge12" class="edge"><title>3&#45;&#45;36</title>
<path fill="none" stroke="black" d="M243.757,82.2441C257.898,86.3858 272.653,90.7073 279.147,92.6091"/>
</g>
<!-- 41 -->
<g id="node42" class="node"><title>41</title>
<ellipse fill="#1874cd" stroke="black" cx="119.225" cy="17.3843" rx="3.5" ry="3.5"/>
<text text-anchor="middle" x="119.225" y="19.8843" font-family="monospace" font-size="10.00">41</text>
</g>
<!-- 3&#45;&#45;41 -->
<g id="edge13" class="edge"><title>3&#45;&#45;41</title>
<path fill="none" stroke="black" d="M181.596,54.9787C159.813,41.8489 132.253,25.2369 122.684,19.469"/>
</g>
<!-- 44 -->
<g id="node45" class="node"><title>44</title>
<ellipse fill="#1874cd" stroke="black" cx="150.196" cy="118.174" rx="3.5" ry="3.5"/>
<text text-anchor="middle" x="150.196" y="120.674" font-family="monospace" font-size="10.00">44</text>
</g>
<!-- 3&#45;&#45;44 -->
<g id="edge14" class="edge"><title>3&#45;&#45;44</title>
<path fill="none" stroke="black" d="M183.353,93.2542C171.32,102.298 158.686,111.793 153.12,115.976"/>
</g>
<!-- 46 -->
<g id="node47" class="node"><title>46</title>
<ellipse fill="#1874cd" stroke="black" cx="283.572" cy="117.755" rx="3.5" ry="3.5"/>
<text text-anchor="middle" x="283.572" y="120.255" font-family="monospace" font-size="10.00">46</text>
</g>
<!-- 3&#45;&#45;46 -->
<g id="edge15" class="edge"><title>3&#45;&#45;46</title>
<path fill="none" stroke="black" d="M240,90.7069C255.81,100.521 273.511,111.509 280.499,115.847"/>
</g>
<!-- 56 -->
<g id="node57" class="node"><title>56</title>
<ellipse fill="#98f5ff" stroke="black" cx="202.824" cy="1.09096" rx="3.5" ry="3.5"/>
<text text-anchor="middle" x="202.824" y="3.59096" font-family="monospace" font-size="10.00">56</text>
</g>
<!-- 3&#45;&#45;56 -->
<g id="edge16" class="edge"><title>3&#45;&#45;56</title>
<path fill="none" stroke="black" d="M207.016,38.5217C205.501,24.9958 203.95,11.1494 203.233,4.74786"/>
</g>
<!-- 59 -->
<g id="node60" class="node"><title>59</title>
<ellipse fill="black" stroke="black" cx="267.669" cy="20.6671" rx="3.5" ry="3.5"/>
<text text-anchor="middle" x="267.669" y="23.1671" font-family="monospace" font-size="10.00">59</text>
</g>
<!-- 3&#45;&#45;59 -->
<g id="edge17" class="edge"><title>3&#45;&#45;59</title>
<path fill="none" stroke="black" d="M236.259,49.3686C247.608,38.9977 259.602,28.0386 264.889,23.2072"/>
</g>
<!-- 4 -->
<g id="node5" class="node"><title>4</title>
<path fill="#98f5ff" stroke="black" stroke-width="0.5" d="M-160.522,-37.8659C-160.522,-37.8659 -128.522,-37.8659 -128.522,-37.8659 -128.522,-39.3164 -128.62,-40.7652 -128.817,-42.2024 -129.013,-43.6395 -129.307,-45.0616 -129.697,-46.4589 -130.086,-47.8561 -130.57,-49.2253 -131.146,-50.5569 -131.721,-51.8884 -132.386,-53.1793 -133.137,-54.4207 -133.887,-55.662 -134.721,-56.8509 -135.633,-57.9791 -136.544,-59.1073 -137.532,-60.1721 -138.588,-61.1664 -139.644,-62.1606 -140.767,-63.0819 -141.948,-63.9238 -143.129,-64.7657 -144.366,-65.5264 -145.65,-66.2005 -146.935,-66.8746 -148.263,-67.4605 -149.627,-67.9544 -150.991,-68.4482 -152.387,-68.8487 -153.805,-69.1531 -155.224,-69.4576 -156.661,-69.6652 -158.107,-69.7747 -159.554,-69.8841 -161.006,-69.8951 -162.454,-69.8075 -163.902,-69.7199 -165.342,-69.534 -166.764,-69.251 -168.187,-68.968 -169.589,-68.5886 -170.96,-68.1155 -172.331,-67.6423 -173.669,-67.0764 -174.963,-66.4218 -176.257,-65.7672 -177.506,-65.0253 -178.7,-64.2013 -178.7,-64.2013 -160.522,-37.8659 -160.522,-37.8659"/>
<path fill="deepskyblue" stroke="black" stroke-width="0.5" d="M-160.522,-37.8659C-160.522,-37.8659 -178.7,-64.2013 -178.7,-64.2013 -179.606,-63.5758 -180.479,-62.9039 -181.316,-62.1884 -182.153,-61.4728 -182.953,-60.7146 -183.711,-59.9166 -184.47,-59.1186 -185.187,-58.282 -185.86,-57.4101 -186.532,-56.5382 -187.159,-55.6321 -187.738,-54.6956 -188.318,-53.759 -188.848,-52.7932 -189.328,-51.802 -189.807,-50.8107 -190.235,-49.7954 -190.61,-48.76 -190.985,-47.7247 -191.306,-46.6706 -191.572,-45.6022 -191.839,-44.5337 -192.049,-43.4522 -192.204,-42.3619 -192.359,-41.2717 -192.457,-40.1742 -192.499,-39.0739 -192.54,-37.9735 -192.525,-36.8718 -192.453,-35.773 -192.381,-34.6742 -192.252,-33.5798 -192.067,-32.4943 -191.883,-31.4088 -191.642,-30.3335 -191.346,-29.2728 -191.051,-28.2121 -190.7,-27.1674 -190.297,-26.1428 -189.893,-25.1182 -189.437,-24.1151 -188.931,-23.1376 -188.424,-22.16 -187.867,-21.2092 -187.262,-20.2891 -186.657,-19.3689 -186.005,-18.4806 -185.309,-17.6276 -184.612,-16.7747 -183.873,-15.9582 -183.092,-15.1816 -182.311,-14.4049 -181.491,-13.669 -180.635,-12.9769 -179.778,-12.2848 -178.887,-11.6374 -177.963,-11.0372 -177.04,-10.437 -176.087,-9.88486 -175.107,-9.38297 -174.126,-8.88109 -173.121,-8.43013 -172.095,-8.03189 -171.068,-7.63366 -170.021,-7.28868 -168.959,-6.99833 -167.897,-6.70798 -166.821,-6.47265 -165.734,-6.29328 -164.648,-6.11391 -163.553,-5.99073 -162.454,-5.92425 -161.355,-5.85776 -160.253,-5.84806 -159.153,-5.89516 -158.052,-5.94227 -156.955,-6.04613 -155.866,-6.20633 -154.777,-6.36653 -153.696,-6.58286 -152.629,-6.85445 -151.562,-7.12604 -150.509,-7.45252 -149.476,-7.83261 -148.443,-8.21269 -147.429,-8.64587 -146.441,-9.1304 -145.452,-9.61494 -144.489,-10.1502 -143.555,-10.734 -142.621,-11.3179 -141.719,-11.9495 -140.85,-12.6264 -139.981,-13.3033 -139.149,-14.0246 -138.354,-14.7874 -138.354,-14.7874 -160.522,-37.8659 -160.522,-37.8659"/>
<path fill="#ff3030" stroke="black" stroke-width="0.5" d="M-160.522,-37.8659C-160.522,-37.8659 -138.354,-14.7874 -138.354,-14.7874 -137.58,-15.5316 -136.843,-16.3143 -136.147,-17.1326 -135.451,-17.9509 -134.796,-18.8037 -134.186,-19.6878 -133.576,-20.5719 -133.01,-21.4862 -132.492,-22.4272 -131.974,-23.3681 -131.503,-24.3346 -131.082,-25.3229 -130.661,-26.3112 -130.29,-27.3201 -129.97,-28.3458 -129.651,-29.3714 -129.383,-30.4125 -129.168,-31.465 -128.953,-32.5176 -128.792,-33.5803 -128.684,-34.6492 -128.576,-35.718 -128.522,-36.7916 -128.522,-37.8659 -128.522,-37.8659 -160.522,-37.8659 -160.522,-37.8659"/>
<ellipse fill="none" stroke="black" cx="-160.522" cy="-37.8659" rx="32" ry="32"/>
<text text-anchor="middle" x="-160.522" y="-35.3659" font-family="monospace" font-size="10.00">4</text>
</g>
<!-- 4&#45;&#45;6 -->
<g id="edge18" class="edge"><title>4&#45;&#45;6</title>
<path fill="none" stroke="black" d="M-129.449,-46.0927C-111.958,-50.7239 -90.1048,-56.5098 -72.2193,-61.2453"/>
</g>
<!-- 55 -->
<g id="node56" class="node"><title>55</title>
<ellipse fill="#98f5ff" stroke="black" cx="-237.056" cy="-15.4832" rx="3.5" ry="3.5"/>
<text text-anchor="middle" x="-237.056" y="-12.9832" font-family="monospace" font-size="10.00">55</text>
</g>
<!-- 4&#45;&#45;55 -->
<g id="edge19" class="edge"><title>4&#45;&#45;55</title>
<path fill="none" stroke="black" d="M-191.651,-28.762C-207.874,-24.0176 -225.871,-18.7542 -233.416,-16.5477"/>
</g>
<!-- 5 -->
<g id="node6" class="node"><title>5</title>
<ellipse fill="#ff3030" stroke="black" cx="-147.015" cy="-82.7221" rx="18" ry="18"/>
<text text-anchor="middle" x="-147.015" y="-80.2221" font-family="monospace" font-size="10.00">5</text>
</g>
<!-- 6&#45;&#45;5 -->
<g id="edge20" class="edge"><title>6&#45;&#45;5</title>
<path fill="none" stroke="black" d="M-72.928,-74.119C-91.5324,-76.2793 -113.771,-78.8617 -128.997,-80.6298"/>
</g>
<!-- 7 -->
<g id="node8" class="node"><title>7</title>
<ellipse fill="#ff3030" stroke="black" cx="36.3536" cy="-70.9749" rx="9.5" ry="9.5"/>
<text text-anchor="middle" x="36.3536" y="-68.4749" font-family="monospace" font-size="10.00">7</text>
</g>
<!-- 6&#45;&#45;7 -->
<g id="edge21" class="edge"><title>6&#45;&#45;7</title>
<path fill="none" stroke="black" d="M-3.77582,-70.5265C7.39271,-70.6513 18.8745,-70.7796 26.6796,-70.8668"/>
</g>
<!-- 8 -->
<g id="node9" class="node"><title>8</title>
<ellipse fill="#ff3030" stroke="black" cx="-98.7871" cy="-116.336" rx="6" ry="6"/>
<text text-anchor="middle" x="-98.7871" y="-113.836" font-family="monospace" font-size="10.00">8</text>
</g>
<!-- 6&#45;&#45;8 -->
<g id="edge22" class="edge"><title>6&#45;&#45;8</title>
<path fill="none" stroke="black" d="M-66.2471,-91.3435C-76.8712,-99.5034 -87.9082,-107.98 -94.0074,-112.665"/>
</g>
<!-- 13 -->
<g id="node14" class="node"><title>13</title>
<ellipse fill="#ff3030" stroke="black" cx="-87.119" cy="-6.04264" rx="8" ry="8"/>
<text text-anchor="middle" x="-87.119" y="-3.54264" font-family="monospace" font-size="10.00">13</text>
</g>
<!-- 6&#45;&#45;13 -->
<g id="edge23" class="edge"><title>6&#45;&#45;13</title>
<path fill="none" stroke="black" d="M-59.4787,-42.5832C-67.8968,-31.4544 -76.8728,-19.5881 -82.2371,-12.4965"/>
</g>
<!-- 14 -->
<g id="node15" class="node"><title>14</title>
<path fill="#98f5ff" stroke="black" stroke-width="0.5" d="M20.2976,-162C20.2976,-162 26.2976,-162 26.2976,-162 26.2976,-162.262 26.2805,-162.524 26.2463,-162.783 26.2121,-163.043 26.161,-163.3 26.0932,-163.553 26.0254,-163.806 25.9411,-164.054 25.8409,-164.296 25.7407,-164.538 25.6247,-164.773 25.4938,-165 25.3628,-165.227 25.2172,-165.445 25.0577,-165.653 24.8983,-165.86 24.7255,-166.057 24.5403,-166.243 24.3551,-166.428 24.158,-166.601 23.9502,-166.76 23.7424,-166.92 23.5244,-167.065 23.2976,-167.196 23.0708,-167.327 22.8357,-167.443 22.5937,-167.543 22.3518,-167.644 22.1035,-167.728 21.8505,-167.796 21.5976,-167.863 21.3404,-167.914 21.0808,-167.949 20.8211,-167.983 20.5595,-168 20.2976,-168 20.0357,-168 19.7741,-167.983 19.5145,-167.949 19.2548,-167.914 18.9977,-167.863 18.7447,-167.796 18.4917,-167.728 18.2435,-167.644 18.0015,-167.543 17.7596,-167.443 17.5244,-167.327 17.2976,-167.196 17.2976,-167.196 20.2976,-162 20.2976,-162"/>
<path fill="#ff3030" stroke="black" stroke-width="0.5" d="M20.2976,-162C20.2976,-162 17.2976,-167.196 17.2976,-167.196 17.0708,-167.065 16.8528,-166.92 16.6451,-166.76 16.4373,-166.601 16.2402,-166.428 16.055,-166.243 15.8698,-166.057 15.6969,-165.86 15.5375,-165.653 15.3781,-165.445 15.2324,-165.227 15.1015,-165 14.9705,-164.773 14.8546,-164.538 14.7543,-164.296 14.6541,-164.054 14.5699,-163.806 14.5021,-163.553 14.4343,-163.3 14.3831,-163.043 14.349,-162.783 14.3148,-162.524 14.2976,-162.262 14.2976,-162 14.2976,-161.738 14.3148,-161.476 14.349,-161.217 14.3831,-160.957 14.4343,-160.7 14.5021,-160.447 14.5699,-160.194 14.6541,-159.946 14.7543,-159.704 14.8546,-159.462 14.9705,-159.227 15.1015,-159 15.2324,-158.773 15.3781,-158.555 15.5375,-158.347 15.6969,-158.14 15.8698,-157.943 16.055,-157.757 16.2402,-157.572 16.4373,-157.399 16.6451,-157.24 16.8528,-157.08 17.0708,-156.935 17.2976,-156.804 17.5244,-156.673 17.7596,-156.557 18.0015,-156.457 18.2435,-156.357 18.4917,-156.272 18.7447,-156.204 18.9977,-156.137 19.2548,-156.086 19.5145,-156.051 19.7741,-156.017 20.0357,-156 20.2976,-156 20.5595,-156 20.8211,-156.017 21.0808,-156.051 21.3404,-156.086 21.5976,-156.137 21.8505,-156.204 22.1035,-156.272 22.3518,-156.357 22.5937,-156.457 22.8357,-156.557 23.0708,-156.673 23.2976,-156.804 23.5244,-156.935 23.7424,-157.08 23.9502,-157.24 24.158,-157.399 24.3551,-157.572 24.5403,-157.757 24.7255,-157.943 24.8983,-158.14 25.0577,-158.347 25.2172,-158.555 25.3628,-158.773 25.4938,-159 25.6247,-159.227 25.7407,-159.462 25.8409,-159.704 25.9411,-159.946 26.0254,-160.194 26.0932,-160.447 26.161,-160.7 26.2121,-160.957 26.2463,-161.217 26.2805,-161.476 26.2976,-161.738 26.2976,-162 26.2976,-162 20.2976,-162 20.2976,-162"/>
<ellipse fill="none" stroke="black" cx="20.2976" cy="-162" rx="6" ry="6"/>
<text text-anchor="middle" x="20.2976" y="-159.5" font-family="monospace" font-size="10.00">14</text>
</g>
<!-- 6&#45;&#45;14 -->
<g id="edge24" class="edge"><title>6&#45;&#45;14</title>
<path fill="none" stroke="black" d="M-19.9893,-99.203C-6.77016,-119.808 9.82263,-145.672 16.8743,-156.664"/>
</g>
<!-- 17 -->
<g id="node18" class="node"><title>17</title>
<ellipse fill="#ff3030" stroke="black" cx="5.83106" cy="-128.451" rx="6" ry="6"/>
<text text-anchor="middle" x="5.83106" y="-125.951" font-family="monospace" font-size="10.00">17</text>
</g>
<!-- 6&#45;&#45;17 -->
<g id="edge25" class="edge"><title>6&#45;&#45;17</title>
<path fill="none" stroke="black" d="M-17.7048,-97.5864C-10.1359,-107.512 -2.36515,-117.703 2.08289,-123.536"/>
</g>
<!-- 19 -->
<g id="node20" class="node"><title>19</title>
<path fill="#98f5ff" stroke="black" stroke-width="0.5" d="M-20.1689,15.8718C-20.1689,15.8718 -8.66887,15.8718 -8.66887,15.8718 -8.66887,15.2694 -8.71621,14.6678 -8.81046,14.0728 -8.9047,13.4778 -9.04555,12.8911 -9.23172,12.3181 -9.41789,11.7452 -9.64879,11.1877 -9.9223,10.6509 -10.1958,10.1141 -10.5111,9.59967 -10.8652,9.11228 -11.2193,8.62489 -11.6111,8.16608 -12.0371,7.74008 -12.4631,7.31409 -12.922,6.92223 -13.4093,6.56812 -13.8967,6.21401 -14.4112,5.89874 -14.948,5.62524 -15.4848,5.35173 -16.0422,5.12083 -16.6152,4.93466 -17.1881,4.7485 -17.7748,4.60764 -18.3699,4.5134 -18.9649,4.41915 -19.5664,4.37181 -20.1689,4.37181 -20.7713,4.37181 -21.3728,4.41915 -21.9679,4.5134 -22.5629,4.60764 -23.1496,4.7485 -23.7226,4.93466 -24.2955,5.12083 -24.853,5.35173 -25.3898,5.62524 -25.9265,5.89874 -26.441,6.21401 -26.9284,6.56812 -27.4158,6.92223 -27.8746,7.31409 -28.3006,7.74008 -28.7266,8.16608 -29.1185,8.62489 -29.4726,9.11228 -29.4726,9.11228 -20.1689,15.8718 -20.1689,15.8718"/>
<path fill="deepskyblue" stroke="black" stroke-width="0.5" d="M-20.1689,15.8718C-20.1689,15.8718 -29.4726,9.11228 -29.4726,9.11228 -29.7381,9.47774 -29.9818,9.85853 -30.2026,10.2527 -30.4233,10.6468 -30.6206,11.0536 -30.7935,11.471 -30.9664,11.8883 -31.1145,12.3155 -31.2371,12.7502 -31.3597,13.185 -31.4566,13.6266 -31.5273,14.0728 -31.598,14.519 -31.6423,14.9689 -31.66,15.4203 -31.6777,15.8717 -31.6689,16.3238 -31.6334,16.7741 -31.598,17.2244 -31.536,17.6723 -31.4479,18.1154 -31.3598,18.5584 -31.2456,18.9959 -31.106,19.4255 -30.9664,19.8551 -30.8016,20.2762 -30.6125,20.6864 -30.4234,21.0966 -30.2103,21.4954 -29.9742,21.8805 -29.7382,22.2657 -29.4797,22.6366 -29.2,22.9914 -28.9203,23.3461 -28.62,23.6841 -28.3006,24.0035 -27.9812,24.323 -27.6432,24.6233 -27.2885,24.903 -26.9337,25.1826 -26.5628,25.4411 -26.1776,25.6772 -25.7924,25.9132 -25.3937,26.1263 -24.9835,26.3155 -24.5732,26.5046 -24.1522,26.6694 -23.7226,26.809 -23.2929,26.9486 -22.8555,27.0627 -22.4124,27.1508 -21.9694,27.239 -21.5215,27.3009 -21.0712,27.3364 -20.6208,27.3718 -20.1688,27.3807 -19.7174,27.3629 -19.266,27.3452 -18.816,27.3009 -18.3699,27.2302 -17.9237,27.1596 -17.4821,27.0627 -17.0473,26.94 -16.6125,26.8174 -16.1854,26.6693 -15.768,26.4964 -15.3507,26.3236 -14.9439,26.1262 -14.5497,25.9055 -14.1556,25.6848 -13.7748,25.441 -13.4093,25.1755 -13.0439,24.91 -12.6944,24.6232 -12.3627,24.3165 -12.0309,24.0099 -11.7176,23.684 -11.4242,23.3405 -11.1308,22.997 -10.8579,22.6365 -10.607,22.2609 -10.356,21.8853 -10.1274,21.4952 -9.9223,21.0927 -9.71721,20.6902 -9.53602,20.276 -9.37967,19.8522 -9.22332,19.4283 -9.09207,18.9957 -8.98662,18.5564 -8.88116,18.1172 -8.80168,17.6721 -8.74858,17.2235 -8.69549,16.7749 -8.66887,16.3235 -8.66887,15.8718 -8.66887,15.8718 -20.1689,15.8718 -20.1689,15.8718"/>
<ellipse fill="none" stroke="black" cx="-20.1689" cy="15.8718" rx="11.5" ry="11.5"/>
<text text-anchor="middle" x="-20.1689" y="18.3718" font-family="monospace" font-size="10.00">19</text>
</g>
<!-- 6&#45;&#45;19 -->
<g id="edge26" class="edge"><title>6&#45;&#45;19</title>
<path fill="none" stroke="black" d="M-31.3375,-36.144C-28.2323,-21.6819 -24.8213,-5.79615 -22.5962,4.56689"/>
</g>
<!-- 26 -->
<g id="node27" class="node"><title>26</title>
<ellipse fill="deepskyblue" stroke="black" cx="30.1566" cy="-94.2611" rx="5" ry="5"/>
<text text-anchor="middle" x="30.1566" y="-91.7611" font-family="monospace" font-size="10.00">26</text>
</g>
<!-- 6&#45;&#45;26 -->
<g id="edge27" class="edge"><title>6&#45;&#45;26</title>
<path fill="none" stroke="black" d="M-5.85169,-81.6338C6.3297,-85.9055 18.7812,-90.272 25.3739,-92.5839"/>
</g>
<!-- 31 -->
<g id="node32" class="node"><title>31</title>
<path fill="#98f5ff" stroke="black" stroke-width="0.5" d="M-107.935,-147.032C-107.935,-147.032 -95.435,-147.032 -95.435,-147.032 -95.435,-147.714 -95.4908,-148.395 -95.602,-149.068 -95.7131,-149.741 -95.8791,-150.404 -96.0984,-151.05 -96.3176,-151.696 -96.5894,-152.323 -96.911,-152.925 -97.2326,-153.526 -97.6028,-154.1 -98.0181,-154.642 -98.4334,-155.183 -98.8922,-155.689 -99.3901,-156.155 -99.888,-156.622 -100.423,-157.046 -100.99,-157.425 -101.558,-157.804 -102.155,-158.136 -102.776,-158.418 -103.398,-158.699 -104.041,-158.93 -104.7,-159.106 -105.359,-159.283 -106.031,-159.405 -106.71,-159.472 -107.389,-159.539 -108.072,-159.55 -108.753,-159.505 -109.433,-159.461 -110.109,-159.36 -110.773,-159.206 -111.438,-159.051 -112.088,-158.842 -112.719,-158.581 -113.349,-158.32 -113.957,-158.007 -114.536,-157.647 -115.115,-157.287 -115.664,-156.88 -116.177,-156.43 -116.69,-155.98 -117.165,-155.489 -117.598,-154.962 -118.03,-154.435 -118.419,-153.873 -118.76,-153.282 -118.76,-153.282 -107.935,-147.032 -107.935,-147.032"/>
<path fill="deepskyblue" stroke="black" stroke-width="0.5" d="M-107.935,-147.032C-107.935,-147.032 -118.76,-153.282 -118.76,-153.282 -118.999,-152.869 -119.214,-152.442 -119.404,-152.004 -119.594,-151.566 -119.758,-151.117 -119.897,-150.661 -120.035,-150.204 -120.148,-149.739 -120.233,-149.27 -120.319,-148.8 -120.377,-148.326 -120.408,-147.85 -120.439,-147.373 -120.443,-146.896 -120.42,-146.419 -120.397,-145.942 -120.346,-145.467 -120.268,-144.996 -120.19,-144.525 -120.086,-144.059 -119.955,-143.6 -119.823,-143.141 -119.666,-142.69 -119.484,-142.249 -119.301,-141.808 -119.093,-141.377 -118.861,-140.96 -118.629,-140.543 -118.374,-140.139 -118.096,-139.751 -117.818,-139.363 -117.517,-138.991 -117.197,-138.638 -116.876,-138.284 -116.536,-137.949 -116.177,-137.634 -115.818,-137.319 -115.441,-137.025 -115.049,-136.754 -114.656,-136.482 -114.248,-136.233 -113.827,-136.008 -113.406,-135.783 -112.973,-135.582 -112.529,-135.407 -112.085,-135.231 -111.631,-135.082 -111.17,-134.958 -110.709,-134.834 -110.241,-134.737 -109.769,-134.667 -109.297,-134.597 -108.821,-134.554 -108.344,-134.539 -107.867,-134.523 -107.389,-134.535 -106.913,-134.574 -106.438,-134.613 -105.965,-134.679 -105.496,-134.772 -105.028,-134.865 -104.566,-134.985 -104.111,-135.131 -103.657,-135.277 -103.211,-135.449 -102.776,-135.646 -102.341,-135.843 -101.918,-136.065 -101.509,-136.31 -101.099,-136.556 -100.704,-136.825 -100.325,-137.115 -99.9468,-137.406 -99.585,-137.718 -99.242,-138.05 -98.8989,-138.382 -98.5752,-138.733 -98.2724,-139.102 -97.9695,-139.471 -97.6881,-139.857 -97.4294,-140.258 -97.1707,-140.66 -96.9352,-141.075 -96.7241,-141.503 -96.513,-141.932 -96.3265,-142.372 -96.1657,-142.821 -96.0049,-143.27 -95.8699,-143.729 -95.7615,-144.194 -95.6531,-144.659 -95.5715,-145.129 -95.5169,-145.604 -95.4624,-146.078 -95.435,-146.555 -95.435,-147.032 -95.435,-147.032 -107.935,-147.032 -107.935,-147.032"/>
<ellipse fill="none" stroke="black" cx="-107.935" cy="-147.032" rx="12.5" ry="12.5"/>
<text text-anchor="middle" x="-107.935" y="-144.532" font-family="monospace" font-size="10.00">31</text>
</g>
<!-- 6&#45;&#45;31 -->
<g id="edge28" class="edge"><title>6&#45;&#45;31</title>
<path fill="none" stroke="black" d="M-62.0977,-96.1701C-74.9769,-110.461 -90.1663,-127.316 -99.4203,-137.584"/>
</g>
<!-- 48 -->
<g id="node49" class="node"><title>48</title>
<ellipse fill="brown" stroke="black" cx="-50.5544" cy="15.8294" rx="6" ry="6"/>
<text text-anchor="middle" x="-50.5544" y="18.3294" font-family="monospace" font-size="10.00">48</text>
</g>
<!-- 6&#45;&#45;48 -->
<g id="edge29" class="edge"><title>6&#45;&#45;48</title>
<path fill="none" stroke="black" d="M-43.4152,-35.6665C-45.7725,-18.6634 -48.3864,0.191095 -49.7006,9.6706"/>
</g>
<!-- 50 -->
<g id="node51" class="node"><title>50</title>
<ellipse fill="brown" stroke="black" cx="68.0899" cy="-16.4801" rx="8" ry="8"/>
<text text-anchor="middle" x="68.0899" y="-13.9801" font-family="monospace" font-size="10.00">50</text>
</g>
<!-- 6&#45;&#45;50 -->
<g id="edge30" class="edge"><title>6&#45;&#45;50</title>
<path fill="none" stroke="black" d="M-7.76672,-54.6172C15.8735,-42.732 46.7228,-27.2225 60.6699,-20.2106"/>
</g>
<!-- 57 -->
<g id="node58" class="node"><title>57</title>
<ellipse fill="black" stroke="black" cx="-143.635" cy="-140.229" rx="6" ry="6"/>
<text text-anchor="middle" x="-143.635" y="-137.729" font-family="monospace" font-size="10.00">57</text>
</g>
<!-- 8&#45;&#45;57 -->
<g id="edge31" class="edge"><title>8&#45;&#45;57</title>
<path fill="none" stroke="black" d="M-104.286,-119.266C-112.894,-123.851 -129.455,-132.675 -138.09,-137.275"/>
</g>
<!-- 9 -->
<g id="node10" class="node"><title>9</title>
<ellipse fill="deepskyblue" stroke="black" cx="35.6457" cy="-288.407" rx="3.5" ry="3.5"/>
<text text-anchor="middle" x="35.6457" y="-285.907" font-family="monospace" font-size="10.00">9</text>
</g>
<!-- 11 -->
<g id="node12" class="node"><title>11</title>
<ellipse fill="deepskyblue" stroke="black" cx="-76.6907" cy="56.543" rx="3.5" ry="3.5"/>
<text text-anchor="middle" x="-76.6907" y="59.043" font-family="monospace" font-size="10.00">11</text>
</g>
<!-- 12 -->
<g id="node13" class="node"><title>12</title>
<ellipse fill="deepskyblue" stroke="black" cx="112.294" cy="-251.485" rx="3.5" ry="3.5"/>
<text text-anchor="middle" x="112.294" y="-248.985" font-family="monospace" font-size="10.00">12</text>
</g>
<!-- 15 -->
<g id="node16" class="node"><title>15</title>
<path fill="#98f5ff" stroke="black" stroke-width="0.5" d="M55.2084,-230.909C55.2084,-230.909 73.2084,-230.909 73.2084,-230.909 73.2084,-231.569 73.1721,-232.228 73.0997,-232.884 73.0273,-233.54 72.9189,-234.191 72.7749,-234.835 72.631,-235.479 72.4517,-236.115 72.238,-236.739 72.0242,-237.363 71.7763,-237.976 71.4953,-238.573 71.2143,-239.17 70.9007,-239.751 70.5559,-240.314 70.2111,-240.876 69.8357,-241.42 69.4312,-241.941 69.0267,-242.462 68.5939,-242.961 68.1347,-243.435 67.6755,-243.909 67.1905,-244.357 66.682,-244.778 66.1736,-245.199 65.6424,-245.591 65.0908,-245.953 64.5393,-246.315 63.9682,-246.647 63.3802,-246.947 62.7923,-247.246 62.1883,-247.513 61.571,-247.747 60.9537,-247.98 60.324,-248.179 59.6848,-248.343 59.0457,-248.507 58.398,-248.636 57.7446,-248.729 57.0913,-248.822 56.4334,-248.879 55.7738,-248.9 55.1142,-248.92 54.454,-248.905 53.7962,-248.853 53.1383,-248.801 52.4838,-248.713 51.8356,-248.59 51.8356,-248.59 55.2084,-230.909 55.2084,-230.909"/>
<path fill="deepskyblue" stroke="black" stroke-width="0.5" d="M55.2084,-230.909C55.2084,-230.909 51.8356,-248.59 51.8356,-248.59 51.002,-248.431 50.1807,-248.213 49.3779,-247.938 48.5751,-247.663 47.7927,-247.332 47.0366,-246.947 46.2805,-246.562 45.5526,-246.123 44.8583,-245.635 44.1641,-245.147 43.5052,-244.611 42.8866,-244.03 42.268,-243.449 41.6912,-242.825 41.1607,-242.163 40.6301,-241.501 40.147,-240.802 39.7151,-240.071 39.2831,-239.341 38.9033,-238.581 38.5786,-237.797 38.2538,-237.013 37.985,-236.207 37.7739,-235.385 37.5629,-234.563 37.4102,-233.727 37.3171,-232.884 37.224,-232.04 37.1906,-231.191 37.2173,-230.343 37.244,-229.495 37.3306,-228.65 37.4764,-227.814 37.6223,-226.978 37.8272,-226.153 38.0894,-225.346 38.3516,-224.539 38.6706,-223.752 39.0439,-222.99 39.4172,-222.228 39.844,-221.493 40.321,-220.791 40.7979,-220.089 41.3239,-219.422 41.8951,-218.794 42.4662,-218.167 43.0809,-217.58 43.7348,-217.039 44.3886,-216.499 45.0799,-216.005 45.8034,-215.561 46.527,-215.118 47.281,-214.726 48.0598,-214.389 48.8385,-214.052 49.6402,-213.771 50.4587,-213.547 51.2772,-213.323 52.1105,-213.157 52.9524,-213.051 53.7943,-212.944 54.6427,-212.898 55.4911,-212.911 56.3396,-212.924 57.1861,-212.998 58.0242,-213.13 58.8624,-213.263 59.6901,-213.455 60.5011,-213.704 61.3122,-213.954 62.1046,-214.26 62.8724,-214.622 63.6403,-214.983 64.3816,-215.398 65.0908,-215.864 65.8001,-216.33 66.4755,-216.845 67.112,-217.407 67.7486,-217.968 68.3446,-218.573 68.8957,-219.219 69.4468,-219.864 69.9516,-220.547 70.4063,-221.264 70.861,-221.98 71.2645,-222.728 71.6137,-223.501 71.9629,-224.275 72.257,-225.072 72.4937,-225.887 72.7304,-226.702 72.9093,-227.532 73.0288,-228.372 73.1484,-229.213 73.2084,-230.06 73.2084,-230.909 73.2084,-230.909 55.2084,-230.909 55.2084,-230.909"/>
<ellipse fill="none" stroke="black" cx="55.2084" cy="-230.909" rx="18" ry="18"/>
<text text-anchor="middle" x="55.2084" y="-228.409" font-family="monospace" font-size="10.00">15</text>
</g>
<!-- 15&#45;&#45;9 -->
<g id="edge32" class="edge"><title>15&#45;&#45;9</title>
<path fill="none" stroke="black" d="M49.339,-248.16C44.9272,-261.127 39.2442,-277.83 36.8227,-284.947"/>
</g>
<!-- 15&#45;&#45;12 -->
<g id="edge33" class="edge"><title>15&#45;&#45;12</title>
<path fill="none" stroke="black" d="M72.336,-237.082C85.2099,-241.723 101.793,-247.7 108.86,-250.247"/>
</g>
<!-- 15&#45;&#45;14 -->
<g id="edge34" class="edge"><title>15&#45;&#45;14</title>
<path fill="none" stroke="black" d="M46.935,-214.578C39.273,-199.455 28.3113,-177.818 23.1684,-167.667"/>
</g>
<!-- anon_15_23_0 -->
<g id="node61" class="node"><title>anon_15_23_0</title>
<ellipse fill="white" stroke="black" cx="79.9208" cy="-291.406" rx="2.5" ry="2.5"/>
</g>
<!-- 15&#45;&#45;anon_15_23_0 -->
<g id="edge35" class="edge"><title>15&#45;&#45;anon_15_23_0</title>
<path fill="none" stroke="black" d="M62.0922,-247.761C68.0333,-262.305 76.0898,-282.028 78.9021,-288.913"/>
</g>
<!-- 16 -->
<g id="node17" class="node"><title>16</title>
<ellipse fill="#ff3030" stroke="black" cx="178.358" cy="140.476" rx="3.5" ry="3.5"/>
<text text-anchor="middle" x="178.358" y="142.976" font-family="monospace" font-size="10.00">16</text>
</g>
<!-- 16&#45;&#45;3 -->
<g id="edge38" class="edge"><title>16&#45;&#45;3</title>
<path fill="none" stroke="black" d="M179.924,137.203C182.889,131.006 189.6,116.98 196.014,103.575"/>
</g>
<!-- 18 -->
<g id="node19" class="node"><title>18</title>
<ellipse fill="deepskyblue" stroke="black" cx="287.494" cy="71.8262" rx="3.5" ry="3.5"/>
<text text-anchor="middle" x="287.494" y="74.3262" font-family="monospace" font-size="10.00">18</text>
</g>
<!-- 18&#45;&#45;3 -->
<g id="edge39" class="edge"><title>18&#45;&#45;3</title>
<path fill="none" stroke="black" d="M283.796,71.8636C276.678,71.9356 260.412,72.1001 245.041,72.2556"/>
</g>
<!-- 20 -->
<g id="node21" class="node"><title>20</title>
<ellipse fill="deepskyblue" stroke="black" cx="-218.035" cy="-244.879" rx="3.5" ry="3.5"/>
<text text-anchor="middle" x="-218.035" y="-242.379" font-family="monospace" font-size="10.00">20</text>
</g>
<!-- 23 -->
<g id="node24" class="node"><title>23</title>
<ellipse fill="deepskyblue" stroke="black" cx="106.514" cy="-375.039" rx="3.5" ry="3.5"/>
<text text-anchor="middle" x="106.514" y="-372.539" font-family="monospace" font-size="10.00">23</text>
</g>
<!-- 27 -->
<g id="node28" class="node"><title>27</title>
<ellipse fill="#ff3030" stroke="black" cx="-84.6724" cy="-232.28" rx="5" ry="5"/>
<text text-anchor="middle" x="-84.6724" y="-229.78" font-family="monospace" font-size="10.00">27</text>
</g>
<!-- anon_27_6_0 -->
<g id="node63" class="node"><title>anon_27_6_0</title>
<ellipse fill="white" stroke="black" cx="-67.5211" cy="-189.349" rx="2.5" ry="2.5"/>
</g>
<!-- 27&#45;&#45;anon_27_6_0 -->
<g id="edge40" class="edge"><title>27&#45;&#45;anon_27_6_0</title>
<path fill="none" stroke="black" d="M-82.7049,-227.356C-79.0445,-218.193 -71.3086,-198.83 -68.5362,-191.891"/>
</g>
<!-- 28 -->
<g id="node29" class="node"><title>28</title>
<ellipse fill="#ff3030" stroke="black" cx="-127.919" cy="23.4624" rx="3.5" ry="3.5"/>
<text text-anchor="middle" x="-127.919" y="25.9624" font-family="monospace" font-size="10.00">28</text>
</g>
<!-- 28&#45;&#45;13 -->
<g id="edge43" class="edge"><title>28&#45;&#45;13</title>
<path fill="none" stroke="black" d="M-124.985,21.3404C-118.48,16.6365 -102.714,5.23536 -93.711,-1.27551"/>
</g>
<!-- 29 -->
<g id="node30" class="node"><title>29</title>
<ellipse fill="deepskyblue" stroke="black" cx="161.243" cy="132.067" rx="3.5" ry="3.5"/>
<text text-anchor="middle" x="161.243" y="134.567" font-family="monospace" font-size="10.00">29</text>
</g>
<!-- 29&#45;&#45;3 -->
<g id="edge44" class="edge"><title>29&#45;&#45;3</title>
<path fill="none" stroke="black" d="M163.635,129.199C168.278,123.631 178.939,110.847 188.956,98.8356"/>
</g>
<!-- anon_31_20_0 -->
<g id="node65" class="node"><title>anon_31_20_0</title>
<ellipse fill="white" stroke="black" cx="-151.058" cy="-187.197" rx="2.5" ry="2.5"/>
</g>
<!-- 31&#45;&#45;anon_31_20_0 -->
<g id="edge45" class="edge"><title>31&#45;&#45;anon_31_20_0</title>
<path fill="none" stroke="black" d="M-117.505,-155.946C-127.828,-165.56 -143.526,-180.182 -149.05,-185.327"/>
</g>
<!-- 32 -->
<g id="node33" class="node"><title>32</title>
<ellipse fill="#ff3030" stroke="black" cx="-47.2909" cy="63.8761" rx="3.5" ry="3.5"/>
<text text-anchor="middle" x="-47.2909" y="66.3761" font-family="monospace" font-size="10.00">32</text>
</g>
<!-- 33 -->
<g id="node34" class="node"><title>33</title>
<ellipse fill="deepskyblue" stroke="black" cx="-22.6932" cy="70.2243" rx="3.5" ry="3.5"/>
<text text-anchor="middle" x="-22.6932" y="72.7243" font-family="monospace" font-size="10.00">33</text>
</g>
<!-- 33&#45;&#45;19 -->
<g id="edge48" class="edge"><title>33&#45;&#45;19</title>
<path fill="none" stroke="black" d="M-22.5275,66.6581C-22.1634,58.8172 -21.2797,39.7908 -20.7034,27.382"/>
</g>
<!-- 35 -->
<g id="node36" class="node"><title>35</title>
<ellipse fill="#ff3030" stroke="black" cx="179.01" cy="203.618" rx="3.5" ry="3.5"/>
<text text-anchor="middle" x="179.01" y="206.118" font-family="monospace" font-size="10.00">35</text>
</g>
<!-- anon_35_3_0 -->
<g id="node67" class="node"><title>anon_35_3_0</title>
<ellipse fill="white" stroke="black" cx="187.977" cy="159.018" rx="2.5" ry="2.5"/>
</g>
<!-- 35&#45;&#45;anon_35_3_0 -->
<g id="edge49" class="edge"><title>35&#45;&#45;anon_35_3_0</title>
<path fill="none" stroke="black" d="M179.714,200.118C181.464,191.411 185.982,168.939 187.484,161.472"/>
</g>
<!-- 37 -->
<g id="node38" class="node"><title>37</title>
<ellipse fill="#ff3030" stroke="black" cx="-32.4377" cy="-272.407" rx="3.5" ry="3.5"/>
<text text-anchor="middle" x="-32.4377" y="-269.907" font-family="monospace" font-size="10.00">37</text>
</g>
<!-- anon_37_2_0 -->
<g id="node68" class="node"><title>anon_37_2_0</title>
<ellipse fill="white" stroke="black" cx="-25.8679" cy="-228.341" rx="2.5" ry="2.5"/>
</g>
<!-- 37&#45;&#45;anon_37_2_0 -->
<g id="edge51" class="edge"><title>37&#45;&#45;anon_37_2_0</title>
<path fill="none" stroke="black" d="M-31.8775,-268.65C-30.5867,-259.992 -27.4262,-238.793 -26.2864,-231.148"/>
</g>
<!-- 38 -->
<g id="node39" class="node"><title>38</title>
<ellipse fill="#ff3030" stroke="black" cx="-203.407" cy="-108.504" rx="3.5" ry="3.5"/>
<text text-anchor="middle" x="-203.407" y="-106.004" font-family="monospace" font-size="10.00">38</text>
</g>
<!-- 38&#45;&#45;5 -->
<g id="edge53" class="edge"><title>38&#45;&#45;5</title>
<path fill="none" stroke="black" d="M-200.049,-106.968C-193.03,-103.759 -176.401,-96.157 -163.62,-90.3136"/>
</g>
<!-- 39 -->
<g id="node40" class="node"><title>39</title>
<ellipse fill="#ff3030" stroke="black" cx="-207.926" cy="-69.8415" rx="3.5" ry="3.5"/>
<text text-anchor="middle" x="-207.926" y="-67.3415" font-family="monospace" font-size="10.00">39</text>
</g>
<!-- 39&#45;&#45;5 -->
<g id="edge54" class="edge"><title>39&#45;&#45;5</title>
<path fill="none" stroke="black" d="M-204.298,-70.6087C-196.666,-72.2226 -178.513,-76.0614 -164.671,-78.9884"/>
</g>
<!-- 40 -->
<g id="node41" class="node"><title>40</title>
<ellipse fill="deepskyblue" stroke="black" cx="329.85" cy="6.27591" rx="3.5" ry="3.5"/>
<text text-anchor="middle" x="329.85" y="8.77591" font-family="monospace" font-size="10.00">40</text>
</g>
<!-- anon_40_3_0 -->
<g id="node69" class="node"><title>anon_40_3_0</title>
<ellipse fill="white" stroke="black" cx="289.537" cy="27.1046" rx="2.5" ry="2.5"/>
</g>
<!-- 40&#45;&#45;anon_40_3_0 -->
<g id="edge55" class="edge"><title>40&#45;&#45;anon_40_3_0</title>
<path fill="none" stroke="black" d="M326.687,7.9103C318.966,11.8998 299.267,22.0776 292.151,25.754"/>
</g>
<!-- 41&#45;&#45;50 -->
<g id="edge57" class="edge"><title>41&#45;&#45;50</title>
<path fill="none" stroke="black" d="M116.18,15.3674C108.181,10.0704 86.4193,-4.34147 75.1162,-11.8269"/>
</g>
<!-- 42 -->
<g id="node43" class="node"><title>42</title>
<ellipse fill="#1874cd" stroke="black" cx="323.662" cy="139.681" rx="3.5" ry="3.5"/>
<text text-anchor="middle" x="323.662" y="142.181" font-family="monospace" font-size="10.00">42</text>
</g>
<!-- 42&#45;&#45;46 -->
<g id="edge58" class="edge"><title>42&#45;&#45;46</title>
<path fill="none" stroke="black" d="M320.516,137.96C313.133,133.922 294.737,123.861 287.042,119.653"/>
</g>
<!-- 43 -->
<g id="node44" class="node"><title>43</title>
<ellipse fill="#1874cd" stroke="black" cx="256.837" cy="131.45" rx="3.5" ry="3.5"/>
<text text-anchor="middle" x="256.837" y="133.95" font-family="monospace" font-size="10.00">43</text>
</g>
<!-- 43&#45;&#45;3 -->
<g id="edge59" class="edge"><title>43&#45;&#45;3</title>
<path fill="none" stroke="black" d="M254.619,128.611C250.419,123.239 240.912,111.078 231.827,99.4558"/>
</g>
<!-- 45 -->
<g id="node46" class="node"><title>45</title>
<ellipse fill="#1874cd" stroke="black" cx="233.421" cy="202.127" rx="3.5" ry="3.5"/>
<text text-anchor="middle" x="233.421" y="204.627" font-family="monospace" font-size="10.00">45</text>
</g>
<!-- anon_45_3_0 -->
<g id="node70" class="node"><title>anon_45_3_0</title>
<ellipse fill="white" stroke="black" cx="222.677" cy="158.29" rx="2.5" ry="2.5"/>
</g>
<!-- 45&#45;&#45;anon_45_3_0 -->
<g id="edge60" class="edge"><title>45&#45;&#45;anon_45_3_0</title>
<path fill="none" stroke="black" d="M232.578,198.687C230.52,190.291 225.27,168.87 223.374,161.132"/>
</g>
<!-- 47 -->
<g id="node48" class="node"><title>47</title>
<ellipse fill="brown" stroke="black" cx="5.88713" cy="-19.3836" rx="3.5" ry="3.5"/>
<text text-anchor="middle" x="5.88713" y="-16.8836" font-family="monospace" font-size="10.00">47</text>
</g>
<!-- 47&#45;&#45;6 -->
<g id="edge62" class="edge"><title>47&#45;&#45;6</title>
<path fill="none" stroke="black" d="M3.49336,-22.1123C-0.263642,-26.395 -7.92113,-35.1239 -15.6899,-43.9797"/>
</g>
<!-- 48&#45;&#45;11 -->
<g id="edge63" class="edge"><title>48&#45;&#45;11</title>
<path fill="none" stroke="black" d="M-53.9713,21.1519C-59.5061,29.7737 -70.2596,46.5249 -74.6994,53.441"/>
</g>
<!-- 48&#45;&#45;32 -->
<g id="edge64" class="edge"><title>48&#45;&#45;32</title>
<path fill="none" stroke="black" d="M-50.1278,22.1106C-49.4367,32.2854 -48.0939,52.0537 -47.5396,60.2155"/>
</g>
<!-- 49 -->
<g id="node50" class="node"><title>49</title>
<ellipse fill="brown" stroke="black" cx="-138.61" cy="-17.0067" rx="3.5" ry="3.5"/>
<text text-anchor="middle" x="-138.61" y="-14.5067" font-family="monospace" font-size="10.00">49</text>
</g>
<!-- anon_49_6_0 -->
<g id="node71" class="node"><title>anon_49_6_0</title>
<ellipse fill="white" stroke="black" cx="-99.2547" cy="-35.2868" rx="2.5" ry="2.5"/>
</g>
<!-- 49&#45;&#45;anon_49_6_0 -->
<g id="edge65" class="edge"><title>49&#45;&#45;anon_49_6_0</title>
<path fill="none" stroke="black" d="M-135.255,-18.5653C-127.522,-22.157 -108.589,-30.951 -101.761,-34.1225"/>
</g>
<!-- 51 -->
<g id="node52" class="node"><title>51</title>
<ellipse fill="brown" stroke="black" cx="-103.265" cy="-79.7429" rx="3.5" ry="3.5"/>
<text text-anchor="middle" x="-103.265" y="-77.2429" font-family="monospace" font-size="10.00">51</text>
</g>
<!-- 51&#45;&#45;6 -->
<g id="edge67" class="edge"><title>51&#45;&#45;6</title>
<path fill="none" stroke="black" d="M-99.7902,-79.2264C-94.494,-78.4393 -83.8579,-76.8584 -72.9199,-75.2326"/>
</g>
<!-- 52 -->
<g id="node53" class="node"><title>52</title>
<ellipse fill="brown" stroke="black" cx="107.778" cy="-43.4082" rx="3.5" ry="3.5"/>
<text text-anchor="middle" x="107.778" y="-40.9082" font-family="monospace" font-size="10.00">52</text>
</g>
<!-- 52&#45;&#45;50 -->
<g id="edge68" class="edge"><title>52&#45;&#45;50</title>
<path fill="none" stroke="black" d="M104.664,-41.2952C98.3046,-36.9805 83.6937,-27.0672 74.9861,-21.1591"/>
</g>
<!-- 53 -->
<g id="node54" class="node"><title>53</title>
<ellipse fill="brown" stroke="black" cx="94.673" cy="-57.4078" rx="3.5" ry="3.5"/>
<text text-anchor="middle" x="94.673" y="-54.9078" font-family="monospace" font-size="10.00">53</text>
</g>
<!-- 53&#45;&#45;50 -->
<g id="edge69" class="edge"><title>53&#45;&#45;50</title>
<path fill="none" stroke="black" d="M92.7612,-54.4644C88.5708,-48.0126 78.4811,-32.4786 72.5843,-23.3998"/>
</g>
<!-- 54 -->
<g id="node55" class="node"><title>54</title>
<ellipse fill="brown" stroke="black" cx="19.8641" cy="-110.843" rx="3.5" ry="3.5"/>
<text text-anchor="middle" x="19.8641" y="-108.343" font-family="monospace" font-size="10.00">54</text>
</g>
<!-- 54&#45;&#45;6 -->
<g id="edge70" class="edge"><title>54&#45;&#45;6</title>
<path fill="none" stroke="black" d="M16.7189,-108.655C11.4977,-105.022 0.54311,-97.3991 -10.2537,-89.8864"/>
</g>
<!-- anon_15_23_1 -->
<g id="node62" class="node"><title>anon_15_23_1</title>
<ellipse fill="white" stroke="black" cx="94.054" cy="-333.197" rx="2.5" ry="2.5"/>
</g>
<!-- anon_15_23_0&#45;&#45;anon_15_23_1 -->
<g id="edge36" class="edge"><title>anon_15_23_0&#45;&#45;anon_15_23_1</title>
<path fill="none" stroke="black" d="M80.8481,-294.148C83.4519,-301.848 90.7997,-323.574 93.2485,-330.815"/>
</g>
<!-- anon_15_23_1&#45;&#45;23 -->
<g id="edge37" class="edge"><title>anon_15_23_1&#45;&#45;23</title>
<path fill="none" stroke="black" d="M94.8715,-335.942C97.0372,-343.214 102.925,-362.986 105.397,-371.288"/>
</g>
<!-- anon_27_6_1 -->
<g id="node64" class="node"><title>anon_27_6_1</title>
<ellipse fill="white" stroke="black" cx="-53.6186" cy="-147.296" rx="2.5" ry="2.5"/>
</g>
<!-- anon_27_6_0&#45;&#45;anon_27_6_1 -->
<g id="edge41" class="edge"><title>anon_27_6_0&#45;&#45;anon_27_6_1</title>
<path fill="none" stroke="black" d="M-66.6089,-186.59C-64.0476,-178.843 -56.8198,-156.98 -54.411,-149.693"/>
</g>
<!-- anon_27_6_1&#45;&#45;6 -->
<g id="edge42" class="edge"><title>anon_27_6_1&#45;&#45;6</title>
<path fill="none" stroke="black" d="M-53.1201,-144.729C-51.8609,-138.244 -48.4234,-120.541 -45.2133,-104.008"/>
</g>
<!-- anon_31_20_1 -->
<g id="node66" class="node"><title>anon_31_20_1</title>
<ellipse fill="white" stroke="black" cx="-184.537" cy="-216.485" rx="2.5" ry="2.5"/>
</g>
<!-- anon_31_20_0&#45;&#45;anon_31_20_1 -->
<g id="edge46" class="edge"><title>anon_31_20_0&#45;&#45;anon_31_20_1</title>
<path fill="none" stroke="black" d="M-153.255,-189.119C-159.423,-194.514 -176.828,-209.741 -182.629,-214.815"/>
</g>
<!-- anon_31_20_1&#45;&#45;20 -->
<g id="edge47" class="edge"><title>anon_31_20_1&#45;&#45;20</title>
<path fill="none" stroke="black" d="M-186.735,-218.348C-192.557,-223.283 -208.386,-236.7 -215.032,-242.334"/>
</g>
<!-- anon_35_3_0&#45;&#45;3 -->
<g id="edge50" class="edge"><title>anon_35_3_0&#45;&#45;3</title>
<path fill="none" stroke="black" d="M188.636,156.525C190.627,148.998 196.768,125.783 202.087,105.673"/>
</g>
<!-- anon_37_2_0&#45;&#45;2 -->
<g id="edge52" class="edge"><title>anon_37_2_0&#45;&#45;2</title>
<path fill="none" stroke="black" d="M-25.8021,-225.82C-25.6153,-218.67 -25.0719,-197.861 -24.7017,-183.686"/>
</g>
<!-- anon_40_3_0&#45;&#45;3 -->
<g id="edge56" class="edge"><title>anon_40_3_0&#45;&#45;3</title>
<path fill="none" stroke="black" d="M287.267,28.4172C280.361,32.4093 258.957,44.7826 240.55,55.4234"/>
</g>
<!-- anon_45_3_0&#45;&#45;3 -->
<g id="edge61" class="edge"><title>anon_45_3_0&#45;&#45;3</title>
<path fill="none" stroke="black" d="M222.283,155.439C221.223,147.773 218.213,125.988 215.544,106.683"/>
</g>
<!-- anon_49_6_0&#45;&#45;6 -->
<g id="edge66" class="edge"><title>anon_49_6_0&#45;&#45;6</title>
<path fill="none" stroke="black" d="M-96.9524,-36.6104C-92.1082,-39.3955 -80.3406,-46.1608 -68.6348,-52.8906"/>
</g>
</g>
</svg>
