<?xml version="1.0" encoding="UTF-8" standalone="no"?>
<!DOCTYPE svg PUBLIC "-//W3C//DTD SVG 1.1//EN"
 "http://www.w3.org/Graphics/SVG/1.1/DTD/svg11.dtd">
<!-- Generated by graphviz version 2.38.0 (20140413.2041)
 -->
<!-- Title: %3 Pages: 1 -->
<svg width="734pt" height="839pt"
 viewBox="0.00 0.00 733.53 838.73" xmlns="http://www.w3.org/2000/svg" xmlns:xlink="http://www.w3.org/1999/xlink">
<g id="graph0" class="graph" transform="scale(1 1) rotate(0) translate(228.201 418.592)">
<title>%3</title>
<polygon fill="white" stroke="none" points="-228.201,420.136 -228.201,-418.592 505.33,-418.592 505.33,420.136 -228.201,420.136"/>
<!-- 0 -->
<g id="node1" class="node"><title>0</title>
<path fill="palegreen" stroke="black" stroke-width="0.5" d="M361.538,-182.805C361.538,-182.805 402.538,-182.805 402.538,-182.805 402.538,-184.457 402.438,-186.107 402.239,-187.747 402.04,-189.387 401.742,-191.013 401.346,-192.617 400.951,-194.221 400.459,-195.799 399.873,-197.344 399.288,-198.888 398.609,-200.396 397.841,-201.859 397.074,-203.321 396.218,-204.736 395.28,-206.096 394.342,-207.455 393.322,-208.757 392.227,-209.993 391.131,-211.229 389.962,-212.399 388.726,-213.494 387.489,-214.589 386.188,-215.609 384.828,-216.547 383.469,-217.486 382.054,-218.341 380.591,-219.109 379.129,-219.876 377.621,-220.555 376.076,-221.141 374.532,-221.726 372.953,-222.218 371.35,-222.614 369.746,-223.009 368.12,-223.307 366.48,-223.506 364.84,-223.705 363.19,-223.805 361.538,-223.805 359.886,-223.805 358.236,-223.705 356.596,-223.506 354.956,-223.307 353.33,-223.009 351.726,-222.614 350.122,-222.218 348.543,-221.726 346.999,-221.141 345.454,-220.555 343.947,-219.876 342.484,-219.109 341.021,-218.341 339.606,-217.486 338.247,-216.547 336.888,-215.609 335.586,-214.589 334.35,-213.494 333.113,-212.399 331.944,-211.229 330.849,-209.993 329.753,-208.757 328.734,-207.455 327.795,-206.096 326.857,-204.736 326.002,-203.321 325.234,-201.859 324.466,-200.396 323.788,-198.888 323.202,-197.344 322.616,-195.799 322.124,-194.221 321.729,-192.617 321.334,-191.013 321.036,-189.387 320.837,-187.747 320.638,-186.107 320.538,-184.457 320.538,-182.805 320.538,-181.153 320.638,-179.503 320.837,-177.863 321.036,-176.223 321.334,-174.597 321.729,-172.993 322.124,-171.389 322.616,-169.811 323.202,-168.266 323.788,-166.722 324.466,-165.214 325.234,-163.751 326.002,-162.289 326.857,-160.874 327.795,-159.514 328.734,-158.155 329.753,-156.853 330.849,-155.617 330.849,-155.617 361.538,-182.805 361.538,-182.805"/>
<path fill="#787878" stroke="black" stroke-width="0.5" d="M361.538,-182.805C361.538,-182.805 330.849,-155.617 330.849,-155.617 331.533,-154.844 332.247,-154.098 332.987,-153.379 333.728,-152.66 334.496,-151.97 335.289,-151.309 336.082,-150.648 336.9,-150.017 337.74,-149.418 338.581,-148.819 339.444,-148.252 340.327,-147.718 341.21,-147.184 342.113,-146.683 343.035,-146.218 343.956,-145.752 344.894,-145.321 345.848,-144.926 346.801,-144.531 347.77,-144.172 348.75,-143.85 349.731,-143.528 350.724,-143.243 351.726,-142.996 352.728,-142.749 353.739,-142.54 354.757,-142.37 355.775,-142.199 356.799,-142.067 357.827,-141.973 358.855,-141.88 359.886,-141.825 360.918,-141.81 361.951,-141.794 362.983,-141.817 364.013,-141.88 365.044,-141.942 366.071,-142.043 367.094,-142.183 368.117,-142.323 369.134,-142.502 370.143,-142.718 371.152,-142.935 372.153,-143.189 373.143,-143.482 374.133,-143.774 375.111,-144.103 376.077,-144.469 377.042,-144.835 377.993,-145.238 378.927,-145.675 379.862,-146.113 380.78,-146.586 381.679,-147.093 382.578,-147.6 383.458,-148.141 384.316,-148.715 385.174,-149.288 386.011,-149.894 386.823,-150.53 387.636,-151.167 388.424,-151.834 389.186,-152.53 389.948,-153.226 390.684,-153.951 391.391,-154.702 392.099,-155.454 392.778,-156.232 393.427,-157.035 394.075,-157.838 394.694,-158.665 395.28,-159.514 395.866,-160.364 396.42,-161.235 396.941,-162.126 397.462,-163.018 397.948,-163.928 398.4,-164.856 398.852,-165.785 399.269,-166.729 399.649,-167.689 400.03,-168.648 400.374,-169.622 400.681,-170.607 400.988,-171.593 401.258,-172.59 401.49,-173.595 401.722,-174.601 401.916,-175.615 402.071,-176.636 402.226,-177.656 402.343,-178.682 402.421,-179.712 402.499,-180.741 402.538,-181.773 402.538,-182.805 402.538,-182.805 361.538,-182.805 361.538,-182.805"/>
<ellipse fill="none" stroke="black" cx="361.538" cy="-182.805" rx="41" ry="41"/>
</g>
<!-- 4 -->
<g id="node5" class="node"><title>4</title>
<ellipse fill="palegreen" stroke="black" cx="416.723" cy="-71.9741" rx="13" ry="13"/>
</g>
<!-- 0&#45;&#45;4 -->
<g id="edge1" class="edge"><title>0&#45;&#45;4</title>
<path fill="none" stroke="black" d="M379.914,-145.9C390.7,-124.238 403.608,-98.3131 410.918,-83.632"/>
</g>
<!-- 23 -->
<g id="node24" class="node"><title>23</title>
<ellipse fill="palegreen" stroke="black" cx="327.061" cy="-252.731" rx="3.5" ry="3.5"/>
</g>
<!-- 0&#45;&#45;23 -->
<g id="edge2" class="edge"><title>0&#45;&#45;23</title>
<path fill="none" stroke="black" d="M343.29,-219.816C337.346,-231.871 331.562,-243.601 328.779,-249.246"/>
</g>
<!-- 43 -->
<g id="node44" class="node"><title>43</title>
<ellipse fill="#787878" stroke="black" cx="417.773" cy="-147.701" rx="3.5" ry="3.5"/>
</g>
<!-- 0&#45;&#45;43 -->
<g id="edge5" class="edge"><title>0&#45;&#45;43</title>
<path fill="none" stroke="black" d="M396.513,-160.972C404.018,-156.288 410.829,-152.036 414.624,-149.667"/>
</g>
<!-- anon_0_41_0 -->
<g id="node63" class="node"><title>anon_0_41_0</title>
<ellipse fill="white" stroke="black" cx="295.887" cy="-105.254" rx="2.5" ry="2.5"/>
</g>
<!-- 0&#45;&#45;anon_0_41_0 -->
<g id="edge3" class="edge"><title>0&#45;&#45;anon_0_41_0</title>
<path fill="none" stroke="black" d="M334.835,-151.262C319.783,-133.482 302.951,-113.598 297.609,-107.288"/>
</g>
<!-- 1 -->
<g id="node2" class="node"><title>1</title>
<ellipse fill="palegreen" stroke="black" cx="389.916" cy="177.307" rx="33" ry="33"/>
</g>
<!-- 10 -->
<g id="node11" class="node"><title>10</title>
<ellipse fill="palegreen" stroke="black" cx="492.33" cy="208.122" rx="9" ry="9"/>
</g>
<!-- 1&#45;&#45;10 -->
<g id="edge6" class="edge"><title>1&#45;&#45;10</title>
<path fill="none" stroke="black" d="M421.759,186.888C443.133,193.319 469.785,201.338 483.407,205.437"/>
</g>
<!-- 19 -->
<g id="node20" class="node"><title>19</title>
<ellipse fill="palegreen" stroke="black" cx="308.277" cy="243.222" rx="5" ry="5"/>
</g>
<!-- 1&#45;&#45;19 -->
<g id="edge7" class="edge"><title>1&#45;&#45;19</title>
<path fill="none" stroke="black" d="M364.085,198.162C345.399,213.249 321.847,232.265 312.437,239.862"/>
</g>
<!-- 20 -->
<g id="node21" class="node"><title>20</title>
<ellipse fill="palegreen" stroke="black" cx="453.085" cy="133.69" rx="5" ry="5"/>
</g>
<!-- 1&#45;&#45;20 -->
<g id="edge8" class="edge"><title>1&#45;&#45;20</title>
<path fill="none" stroke="black" d="M417.072,158.556C429.11,150.244 442.024,141.327 448.63,136.765"/>
</g>
<!-- 25 -->
<g id="node26" class="node"><title>25</title>
<ellipse fill="palegreen" stroke="black" cx="363.673" cy="120.878" rx="3.5" ry="3.5"/>
</g>
<!-- 1&#45;&#45;25 -->
<g id="edge9" class="edge"><title>1&#45;&#45;25</title>
<path fill="none" stroke="black" d="M375.873,147.11C371.583,137.886 367.426,128.947 365.246,124.26"/>
</g>
<!-- 30 -->
<g id="node31" class="node"><title>30</title>
<ellipse fill="palegreen" stroke="black" cx="348.329" cy="223.159" rx="3.5" ry="3.5"/>
</g>
<!-- 1&#45;&#45;30 -->
<g id="edge10" class="edge"><title>1&#45;&#45;30</title>
<path fill="none" stroke="black" d="M367.662,201.844C360.864,209.339 354.275,216.603 350.821,220.411"/>
</g>
<!-- 31 -->
<g id="node32" class="node"><title>31</title>
<ellipse fill="palegreen" stroke="black" cx="447.986" cy="211.788" rx="3.5" ry="3.5"/>
</g>
<!-- 1&#45;&#45;31 -->
<g id="edge11" class="edge"><title>1&#45;&#45;31</title>
<path fill="none" stroke="black" d="M418.611,194.345C429.126,200.589 439.701,206.868 444.818,209.906"/>
</g>
<!-- 32 -->
<g id="node33" class="node"><title>32</title>
<ellipse fill="palegreen" stroke="black" cx="370.656" cy="265.224" rx="3.5" ry="3.5"/>
</g>
<!-- 1&#45;&#45;32 -->
<g id="edge12" class="edge"><title>1&#45;&#45;32</title>
<path fill="none" stroke="black" d="M382.854,209.545C378.473,229.54 373.328,253.025 371.419,261.74"/>
</g>
<!-- 36 -->
<g id="node37" class="node"><title>36</title>
<ellipse fill="palegreen" stroke="black" cx="445.21" cy="253.055" rx="3.5" ry="3.5"/>
</g>
<!-- 1&#45;&#45;36 -->
<g id="edge13" class="edge"><title>1&#45;&#45;36</title>
<path fill="none" stroke="black" d="M409.567,204.226C422.231,221.576 437.346,242.281 442.963,249.977"/>
</g>
<!-- 38 -->
<g id="node39" class="node"><title>38</title>
<ellipse fill="palegreen" stroke="black" cx="408.131" cy="264.509" rx="3.5" ry="3.5"/>
</g>
<!-- 1&#45;&#45;38 -->
<g id="edge14" class="edge"><title>1&#45;&#45;38</title>
<path fill="none" stroke="black" d="M396.699,209.778C400.785,229.341 405.541,252.108 407.365,260.842"/>
</g>
<!-- 42 -->
<g id="node43" class="node"><title>42</title>
<ellipse fill="palegreen" stroke="black" cx="315.396" cy="180.693" rx="3.5" ry="3.5"/>
</g>
<!-- 1&#45;&#45;42 -->
<g id="edge15" class="edge"><title>1&#45;&#45;42</title>
<path fill="none" stroke="black" d="M356.579,178.821C341.698,179.497 325.973,180.212 319.04,180.527"/>
</g>
<!-- 47 -->
<g id="node48" class="node"><title>47</title>
<ellipse fill="palegreen" stroke="black" cx="475.343" cy="163.347" rx="3.5" ry="3.5"/>
</g>
<!-- 1&#45;&#45;47 -->
<g id="edge16" class="edge"><title>1&#45;&#45;47</title>
<path fill="none" stroke="black" d="M422.7,171.949C441.521,168.874 463.065,165.353 471.59,163.96"/>
</g>
<!-- 57 -->
<g id="node58" class="node"><title>57</title>
<ellipse fill="palegreen" stroke="black" cx="387.135" cy="91.1737" rx="3.5" ry="3.5"/>
</g>
<!-- 1&#45;&#45;57 -->
<g id="edge17" class="edge"><title>1&#45;&#45;57</title>
<path fill="none" stroke="black" d="M388.849,144.252C388.236,125.275 387.535,103.553 387.258,94.958"/>
</g>
<!-- anon_1_58_0 -->
<g id="node64" class="node"><title>anon_1_58_0</title>
<ellipse fill="white" stroke="black" cx="307.581" cy="120.362" rx="2.5" ry="2.5"/>
</g>
<!-- 1&#45;&#45;anon_1_58_0 -->
<g id="edge18" class="edge"><title>1&#45;&#45;anon_1_58_0</title>
<path fill="none" stroke="black" d="M362.5,158.345C342.291,144.368 317.087,126.936 309.704,121.83"/>
</g>
<!-- 2 -->
<g id="node3" class="node"><title>2</title>
<path fill="#1874cd" stroke="black" stroke-width="0.5" d="M81.8463,-256.786C81.8463,-256.786 108.346,-256.786 108.346,-256.786 108.346,-257.796 108.289,-258.804 108.174,-259.807 108.059,-260.81 107.886,-261.805 107.658,-262.789 107.429,-263.772 107.144,-264.741 106.805,-265.692 106.466,-266.642 106.073,-267.573 105.627,-268.479 105.182,-269.385 104.685,-270.264 104.14,-271.113 103.594,-271.963 103,-272.78 102.361,-273.561 101.722,-274.343 101.039,-275.087 100.315,-275.79 99.5913,-276.494 98.8278,-277.155 98.0285,-277.772 98.0285,-277.772 81.8463,-256.786 81.8463,-256.786"/>
<path fill="olivedrab" stroke="black" stroke-width="0.5" d="M81.8463,-256.786C81.8463,-256.786 98.0285,-277.772 98.0285,-277.772 97.4415,-278.224 96.8359,-278.652 96.2131,-279.054 95.5903,-279.456 94.9509,-279.831 94.2966,-280.18 93.6423,-280.528 92.9737,-280.848 92.2925,-281.141 91.6114,-281.433 90.9183,-281.696 90.215,-281.93 89.5118,-282.164 88.799,-282.369 88.0786,-282.543 87.3582,-282.717 86.6308,-282.861 85.8984,-282.975 85.1659,-283.088 84.429,-283.171 83.6896,-283.222 82.9502,-283.274 82.209,-283.294 81.4679,-283.284 80.7268,-283.273 79.9865,-283.231 79.2489,-283.159 78.5113,-283.086 77.777,-282.983 77.0481,-282.848 76.3192,-282.714 75.5962,-282.549 74.8811,-282.355 74.1659,-282.16 73.4593,-281.935 72.763,-281.681 72.0668,-281.427 71.3814,-281.144 70.7089,-280.832 70.0364,-280.521 69.3772,-280.181 68.7331,-279.814 68.089,-279.448 67.4606,-279.054 66.8495,-278.635 66.2385,-278.215 65.6453,-277.77 65.0715,-277.301 64.4977,-276.832 63.9439,-276.339 63.4114,-275.823 62.879,-275.308 62.3684,-274.77 61.881,-274.212 61.3937,-273.653 60.9299,-273.075 60.4911,-272.477 60.0522,-271.88 59.6386,-271.265 59.2514,-270.633 58.8641,-270.001 58.5035,-269.353 58.1706,-268.691 57.8376,-268.028 57.5326,-267.352 57.2563,-266.665 56.98,-265.977 56.7327,-265.278 56.515,-264.569 56.2973,-263.861 56.1095,-263.144 55.9519,-262.419 55.7944,-261.695 55.6673,-260.965 55.571,-260.23 55.4747,-259.495 55.4092,-258.756 55.3749,-258.016 55.3405,-257.275 55.3372,-256.534 55.3649,-255.793 55.3927,-255.053 55.4515,-254.313 55.5413,-253.578 55.631,-252.842 55.7516,-252.11 55.9027,-251.385 56.0538,-250.659 56.2352,-249.94 56.4466,-249.23 56.6579,-248.519 56.899,-247.818 57.1691,-247.128 57.4393,-246.438 57.7382,-245.759 58.0653,-245.094 58.3923,-244.429 58.7471,-243.778 59.1287,-243.142 59.5103,-242.507 59.9184,-241.888 60.3519,-241.287 60.7854,-240.686 61.2439,-240.103 61.7263,-239.54 62.2087,-238.977 62.7144,-238.435 63.2423,-237.915 63.7701,-237.394 64.3195,-236.896 64.8891,-236.422 65.4586,-235.948 66.0478,-235.498 66.6552,-235.073 67.2625,-234.648 67.8873,-234.249 68.5281,-233.876 69.1689,-233.504 69.825,-233.158 70.4947,-232.841 71.1645,-232.523 71.8472,-232.234 72.5412,-231.974 73.2352,-231.714 73.9398,-231.483 74.6531,-231.281 75.3665,-231.08 76.088,-230.909 76.8157,-230.768 77.5434,-230.628 78.2767,-230.517 79.0136,-230.438 79.7505,-230.359 80.4905,-230.311 81.2314,-230.294 81.9724,-230.276 82.7138,-230.29 83.4536,-230.335 84.1934,-230.38 84.931,-230.456 85.6645,-230.563 86.3979,-230.67 87.1266,-230.807 87.8485,-230.975 88.5704,-231.143 89.285,-231.341 89.9903,-231.569 90.6956,-231.797 91.391,-232.054 92.0748,-232.34 92.7585,-232.626 93.43,-232.941 94.0873,-233.283 94.7447,-233.625 95.3874,-233.995 96.0138,-234.391 96.6401,-234.788 97.2496,-235.21 97.8405,-235.657 98.4315,-236.105 99.0034,-236.577 99.5548,-237.072 100.106,-237.567 100.637,-238.085 101.145,-238.625 101.652,-239.165 102.138,-239.726 102.599,-240.306 103.059,-240.887 103.496,-241.486 103.907,-242.103 104.317,-242.72 104.702,-243.354 105.059,-244.003 105.417,-244.653 105.747,-245.317 106.049,-245.993 106.351,-246.67 106.624,-247.36 106.868,-248.06 107.112,-248.759 107.327,-249.469 107.511,-250.187 107.696,-250.905 107.85,-251.63 107.974,-252.361 108.098,-253.092 108.191,-253.827 108.253,-254.566 108.315,-255.304 108.346,-256.045 108.346,-256.786 108.346,-256.786 81.8463,-256.786 81.8463,-256.786"/>
<ellipse fill="none" stroke="black" cx="81.8463" cy="-256.786" rx="26.5" ry="26.5"/>
</g>
<!-- 24 -->
<g id="node25" class="node"><title>24</title>
<ellipse fill="olivedrab" stroke="black" cx="54.1892" cy="-324.121" rx="3.5" ry="3.5"/>
</g>
<!-- 2&#45;&#45;24 -->
<g id="edge22" class="edge"><title>2&#45;&#45;24</title>
<path fill="none" stroke="black" d="M71.7049,-281.477C65.6615,-296.19 58.6047,-313.371 55.6288,-320.616"/>
</g>
<!-- 33 -->
<g id="node34" class="node"><title>33</title>
<ellipse fill="olivedrab" stroke="black" cx="11.7595" cy="-293.805" rx="3.5" ry="3.5"/>
</g>
<!-- 2&#45;&#45;33 -->
<g id="edge23" class="edge"><title>2&#45;&#45;33</title>
<path fill="none" stroke="black" d="M58.1181,-269.319C42.2332,-277.709 22.8734,-287.935 15.1637,-292.007"/>
</g>
<!-- 40 -->
<g id="node41" class="node"><title>40</title>
<ellipse fill="olivedrab" stroke="black" cx="3.74561" cy="-240.705" rx="3.5" ry="3.5"/>
</g>
<!-- 2&#45;&#45;40 -->
<g id="edge24" class="edge"><title>2&#45;&#45;40</title>
<path fill="none" stroke="black" d="M55.8399,-251.431C37.9128,-247.74 15.842,-243.196 7.3285,-241.443"/>
</g>
<!-- anon_2_50_0 -->
<g id="node67" class="node"><title>anon_2_50_0</title>
<ellipse fill="white" stroke="black" cx="140.367" cy="-308.9" rx="2.5" ry="2.5"/>
</g>
<!-- 2&#45;&#45;anon_2_50_0 -->
<g id="edge25" class="edge"><title>2&#45;&#45;anon_2_50_0</title>
<path fill="none" stroke="black" d="M101.659,-274.43C115.453,-286.714 132.385,-301.792 138.249,-307.015"/>
</g>
<!-- 3 -->
<g id="node4" class="node"><title>3</title>
<ellipse fill="#1874cd" stroke="black" cx="-163.634" cy="-112.662" rx="18.5" ry="18.5"/>
</g>
<!-- 13 -->
<g id="node14" class="node"><title>13</title>
<ellipse fill="#1874cd" stroke="black" cx="-186.534" cy="-170.055" rx="6" ry="6"/>
</g>
<!-- 3&#45;&#45;13 -->
<g id="edge37" class="edge"><title>3&#45;&#45;13</title>
<path fill="none" stroke="black" d="M-170.504,-129.882C-175.195,-141.636 -181.112,-156.467 -184.283,-164.413"/>
</g>
<!-- anon_3_5_0 -->
<g id="node70" class="node"><title>anon_3_5_0</title>
<ellipse fill="white" stroke="black" cx="-138.833" cy="-60.1546" rx="2.5" ry="2.5"/>
</g>
<!-- 3&#45;&#45;anon_3_5_0 -->
<g id="edge29" class="edge"><title>3&#45;&#45;anon_3_5_0</title>
<path fill="none" stroke="black" d="M-155.65,-95.7593C-149.873,-83.5276 -142.624,-68.1809 -139.918,-62.4509"/>
</g>
<!-- anon_4_35_0 -->
<g id="node77" class="node"><title>anon_4_35_0</title>
<ellipse fill="white" stroke="black" cx="409.793" cy="-15.1529" rx="2.5" ry="2.5"/>
</g>
<!-- 4&#45;&#45;anon_4_35_0 -->
<g id="edge38" class="edge"><title>4&#45;&#45;anon_4_35_0</title>
<path fill="none" stroke="black" d="M415.116,-58.7954C413.452,-45.1571 410.978,-24.8701 410.109,-17.742"/>
</g>
<!-- 5 -->
<g id="node6" class="node"><title>5</title>
<ellipse fill="#1874cd" stroke="black" cx="33.059" cy="212.853" rx="12" ry="12"/>
</g>
<!-- 12 -->
<g id="node13" class="node"><title>12</title>
<ellipse fill="#1874cd" stroke="black" cx="78.3615" cy="216.72" rx="7" ry="7"/>
</g>
<!-- 5&#45;&#45;12 -->
<g id="edge40" class="edge"><title>5&#45;&#45;12</title>
<path fill="none" stroke="black" d="M45.4381,213.91C53.7166,214.617 64.3175,215.521 71.2207,216.111"/>
</g>
<!-- 18 -->
<g id="node19" class="node"><title>18</title>
<ellipse fill="#1874cd" stroke="black" cx="16.0217" cy="278.394" rx="5" ry="5"/>
</g>
<!-- 5&#45;&#45;18 -->
<g id="edge41" class="edge"><title>5&#45;&#45;18</title>
<path fill="none" stroke="black" d="M30.0131,224.57C26.2611,239.004 20.0528,262.887 17.3488,273.289"/>
</g>
<!-- anon_5_29_0 -->
<g id="node78" class="node"><title>anon_5_29_0</title>
<ellipse fill="white" stroke="black" cx="-19.4911" cy="225.706" rx="2.5" ry="2.5"/>
</g>
<!-- 5&#45;&#45;anon_5_29_0 -->
<g id="edge42" class="edge"><title>5&#45;&#45;anon_5_29_0</title>
<path fill="none" stroke="black" d="M21.3964,215.705C8.81757,218.782 -10.3128,223.461 -17.0444,225.107"/>
</g>
<!-- 6 -->
<g id="node7" class="node"><title>6</title>
<ellipse fill="#787878" stroke="black" cx="250.493" cy="-233.107" rx="11.5" ry="11.5"/>
</g>
<!-- 6&#45;&#45;0 -->
<g id="edge44" class="edge"><title>6&#45;&#45;0</title>
<path fill="none" stroke="black" d="M261.14,-228.284C275.471,-221.792 301.716,-209.903 323.778,-199.909"/>
</g>
<!-- 49 -->
<g id="node50" class="node"><title>49</title>
<ellipse fill="#787878" stroke="black" cx="195.34" cy="-218.214" rx="3.5" ry="3.5"/>
</g>
<!-- 6&#45;&#45;49 -->
<g id="edge45" class="edge"><title>6&#45;&#45;49</title>
<path fill="none" stroke="black" d="M239.332,-230.093C226.742,-226.693 206.973,-221.355 198.927,-219.183"/>
</g>
<!-- 7 -->
<g id="node8" class="node"><title>7</title>
<ellipse fill="olivedrab" stroke="black" cx="213.342" cy="-10.7814" rx="11" ry="11"/>
</g>
<!-- 21 -->
<g id="node22" class="node"><title>21</title>
<ellipse fill="olivedrab" stroke="black" cx="183.793" cy="-54.4589" rx="5" ry="5"/>
</g>
<!-- 7&#45;&#45;21 -->
<g id="edge46" class="edge"><title>7&#45;&#45;21</title>
<path fill="none" stroke="black" d="M207.075,-20.0443C200.841,-29.2595 191.541,-43.0065 186.802,-50.0102"/>
</g>
<!-- 8 -->
<g id="node9" class="node"><title>8</title>
<ellipse fill="#1874cd" stroke="black" cx="-81.3262" cy="404.167" rx="10" ry="10"/>
</g>
<!-- 14 -->
<g id="node15" class="node"><title>14</title>
<ellipse fill="#1874cd" stroke="black" cx="-43.0826" cy="361.701" rx="6" ry="6"/>
</g>
<!-- 8&#45;&#45;14 -->
<g id="edge47" class="edge"><title>8&#45;&#45;14</title>
<path fill="none" stroke="black" d="M-74.3117,396.378C-66.3763,387.567 -53.715,373.507 -47.2208,366.296"/>
</g>
<!-- 9 -->
<g id="node10" class="node"><title>9</title>
<ellipse fill="olivedrab" stroke="black" cx="162.226" cy="-100.886" rx="9" ry="9"/>
</g>
<!-- 11 -->
<g id="node12" class="node"><title>11</title>
<ellipse fill="#1874cd" stroke="black" cx="-201.893" cy="-219.585" rx="9" ry="9"/>
</g>
<!-- anon_11_39_0 -->
<g id="node79" class="node"><title>anon_11_39_0</title>
<ellipse fill="white" stroke="black" cx="-212.762" cy="-266.341" rx="2.5" ry="2.5"/>
</g>
<!-- 11&#45;&#45;anon_11_39_0 -->
<g id="edge48" class="edge"><title>11&#45;&#45;anon_11_39_0</title>
<path fill="none" stroke="black" d="M-203.989,-228.6C-206.506,-239.427 -210.583,-256.965 -212.135,-263.642"/>
</g>
<!-- 13&#45;&#45;11 -->
<g id="edge50" class="edge"><title>13&#45;&#45;11</title>
<path fill="none" stroke="black" d="M-188.417,-176.128C-191.109,-184.808 -196.071,-200.811 -199.165,-210.787"/>
</g>
<!-- 15 -->
<g id="node16" class="node"><title>15</title>
<ellipse fill="#1874cd" stroke="black" cx="6" cy="-6" rx="6" ry="6"/>
</g>
<!-- 16 -->
<g id="node17" class="node"><title>16</title>
<ellipse fill="#1874cd" stroke="black" cx="3.5217" cy="332.022" rx="5" ry="5"/>
</g>
<!-- 16&#45;&#45;14 -->
<g id="edge51" class="edge"><title>16&#45;&#45;14</title>
<path fill="none" stroke="black" d="M-0.77918,334.761C-9.34201,340.214 -28.4969,352.412 -37.8045,358.34"/>
</g>
<!-- 16&#45;&#45;18 -->
<g id="edge52" class="edge"><title>16&#45;&#45;18</title>
<path fill="none" stroke="black" d="M4.67527,327.073C7.04448,316.908 12.4369,293.774 14.8345,283.488"/>
</g>
<!-- 17 -->
<g id="node18" class="node"><title>17</title>
<ellipse fill="palegreen" stroke="black" cx="275.839" cy="282.697" rx="5" ry="5"/>
</g>
<!-- 19&#45;&#45;17 -->
<g id="edge53" class="edge"><title>19&#45;&#45;17</title>
<path fill="none" stroke="black" d="M305.048,247.151C298.894,254.639 285.541,270.89 279.25,278.547"/>
</g>
<!-- 21&#45;&#45;9 -->
<g id="edge54" class="edge"><title>21&#45;&#45;9</title>
<path fill="none" stroke="black" d="M181.646,-59.0802C178.023,-66.8784 170.648,-82.755 166.102,-92.542"/>
</g>
<!-- 22 -->
<g id="node23" class="node"><title>22</title>
<ellipse fill="#1874cd" stroke="black" cx="53.5057" cy="412.636" rx="3.5" ry="3.5"/>
</g>
<!-- anon_22_16_0 -->
<g id="node80" class="node"><title>anon_22_16_0</title>
<ellipse fill="white" stroke="black" cx="32.845" cy="372.412" rx="2.5" ry="2.5"/>
</g>
<!-- 22&#45;&#45;anon_22_16_0 -->
<g id="edge55" class="edge"><title>22&#45;&#45;anon_22_16_0</title>
<path fill="none" stroke="black" d="M51.8844,409.479C47.9271,401.775 37.8314,382.12 34.1846,375.02"/>
</g>
<!-- 26 -->
<g id="node27" class="node"><title>26</title>
<ellipse fill="#1874cd" stroke="black" cx="81.8364" cy="250.885" rx="3.5" ry="3.5"/>
</g>
<!-- 26&#45;&#45;5 -->
<g id="edge57" class="edge"><title>26&#45;&#45;5</title>
<path fill="none" stroke="black" d="M78.9312,248.62C71.958,243.183 54.0174,229.194 42.7505,220.41"/>
</g>
<!-- 60 -->
<g id="node61" class="node"><title>60</title>
<ellipse fill="#1874cd" stroke="black" cx="128.751" cy="267.514" rx="3.5" ry="3.5"/>
</g>
<!-- 26&#45;&#45;60 -->
<g id="edge58" class="edge"><title>26&#45;&#45;60</title>
<path fill="none" stroke="black" d="M85.2104,252.081C93.8665,255.149 116.785,263.273 125.408,266.329"/>
</g>
<!-- 27 -->
<g id="node28" class="node"><title>27</title>
<ellipse fill="#787878" stroke="black" cx="368.32" cy="-280.466" rx="3.5" ry="3.5"/>
</g>
<!-- 27&#45;&#45;0 -->
<g id="edge59" class="edge"><title>27&#45;&#45;0</title>
<path fill="none" stroke="black" d="M368.063,-276.757C367.453,-267.977 365.863,-245.08 364.405,-224.09"/>
</g>
<!-- 28 -->
<g id="node29" class="node"><title>28</title>
<ellipse fill="#1874cd" stroke="black" cx="35" cy="61" rx="3.5" ry="3.5"/>
</g>
<!-- 29 -->
<g id="node30" class="node"><title>29</title>
<ellipse fill="#1874cd" stroke="black" cx="-64.6685" cy="238.453" rx="3.5" ry="3.5"/>
</g>
<!-- 34 -->
<g id="node35" class="node"><title>34</title>
<ellipse fill="palegreen" stroke="black" cx="477.266" cy="-63.601" rx="3.5" ry="3.5"/>
</g>
<!-- 34&#45;&#45;4 -->
<g id="edge60" class="edge"><title>34&#45;&#45;4</title>
<path fill="none" stroke="black" d="M473.66,-64.0997C465.208,-65.2686 443.777,-68.2325 429.753,-70.1721"/>
</g>
<!-- 35 -->
<g id="node36" class="node"><title>35</title>
<ellipse fill="palegreen" stroke="black" cx="410.082" cy="28.9628" rx="3.5" ry="3.5"/>
</g>
<!-- 37 -->
<g id="node38" class="node"><title>37</title>
<ellipse fill="#787878" stroke="black" cx="459.62" cy="-186.728" rx="3.5" ry="3.5"/>
</g>
<!-- 37&#45;&#45;0 -->
<g id="edge61" class="edge"><title>37&#45;&#45;0</title>
<path fill="none" stroke="black" d="M455.895,-186.579C447.042,-186.225 423.898,-185.299 402.749,-184.453"/>
</g>
<!-- 39 -->
<g id="node40" class="node"><title>39</title>
<ellipse fill="#1874cd" stroke="black" cx="-219.006" cy="-308.508" rx="3.5" ry="3.5"/>
</g>
<!-- 41 -->
<g id="node42" class="node"><title>41</title>
<ellipse fill="#787878" stroke="black" cx="259.76" cy="-76.6232" rx="3.5" ry="3.5"/>
</g>
<!-- 44 -->
<g id="node45" class="node"><title>44</title>
<ellipse fill="#1874cd" stroke="black" cx="182.953" cy="154.805" rx="3.5" ry="3.5"/>
</g>
<!-- anon_44_5_0 -->
<g id="node81" class="node"><title>anon_44_5_0</title>
<ellipse fill="white" stroke="black" cx="138.355" cy="163.564" rx="2.5" ry="2.5"/>
</g>
<!-- 44&#45;&#45;anon_44_5_0 -->
<g id="edge62" class="edge"><title>44&#45;&#45;anon_44_5_0</title>
<path fill="none" stroke="black" d="M179.453,155.492C170.747,157.202 148.275,161.616 140.808,163.082"/>
</g>
<!-- 45 -->
<g id="node46" class="node"><title>45</title>
<ellipse fill="olivedrab" stroke="black" cx="125.579" cy="-190.207" rx="3.5" ry="3.5"/>
</g>
<!-- 45&#45;&#45;2 -->
<g id="edge65" class="edge"><title>45&#45;&#45;2</title>
<path fill="none" stroke="black" d="M123.47,-193.418C118.658,-200.743 106.52,-219.223 96.5857,-234.347"/>
</g>
<!-- 46 -->
<g id="node47" class="node"><title>46</title>
<ellipse fill="palegreen" stroke="black" cx="293.962" cy="-161.124" rx="3.5" ry="3.5"/>
</g>
<!-- 46&#45;&#45;0 -->
<g id="edge66" class="edge"><title>46&#45;&#45;0</title>
<path fill="none" stroke="black" d="M297.595,-162.29C302.584,-163.891 312.106,-166.946 322.308,-170.219"/>
</g>
<!-- 48 -->
<g id="node49" class="node"><title>48</title>
<ellipse fill="olivedrab" stroke="black" cx="144.488" cy="-148.187" rx="3.5" ry="3.5"/>
</g>
<!-- 48&#45;&#45;9 -->
<g id="edge67" class="edge"><title>48&#45;&#45;9</title>
<path fill="none" stroke="black" d="M145.764,-144.785C148.496,-137.498 154.988,-120.186 158.955,-109.61"/>
</g>
<!-- 48&#45;&#45;45 -->
<g id="edge68" class="edge"><title>48&#45;&#45;45</title>
<path fill="none" stroke="black" d="M143.004,-151.484C139.522,-159.223 130.845,-178.504 127.216,-186.569"/>
</g>
<!-- 50 -->
<g id="node51" class="node"><title>50</title>
<ellipse fill="olivedrab" stroke="black" cx="219.602" cy="-411.092" rx="3.5" ry="3.5"/>
</g>
<!-- 51 -->
<g id="node52" class="node"><title>51</title>
<ellipse fill="olivedrab" stroke="black" cx="67" cy="-3" rx="3.5" ry="3.5"/>
</g>
<!-- 52 -->
<g id="node53" class="node"><title>52</title>
<ellipse fill="palegreen" stroke="black" cx="446.938" cy="-233.013" rx="3.5" ry="3.5"/>
</g>
<!-- 52&#45;&#45;0 -->
<g id="edge69" class="edge"><title>52&#45;&#45;0</title>
<path fill="none" stroke="black" d="M443.695,-231.106C435.956,-226.556 415.676,-214.633 397.203,-203.773"/>
</g>
<!-- 53 -->
<g id="node54" class="node"><title>53</title>
<ellipse fill="palegreen" stroke="black" cx="468.555" cy="55.233" rx="3.5" ry="3.5"/>
</g>
<!-- anon_53_1_0 -->
<g id="node83" class="node"><title>anon_53_1_0</title>
<ellipse fill="white" stroke="black" cx="439.802" cy="92.2646" rx="2.5" ry="2.5"/>
</g>
<!-- 53&#45;&#45;anon_53_1_0 -->
<g id="edge70" class="edge"><title>53&#45;&#45;anon_53_1_0</title>
<path fill="none" stroke="black" d="M466.299,58.1388C460.686,65.3682 446.198,84.0271 441.384,90.2275"/>
</g>
<!-- 54 -->
<g id="node55" class="node"><title>54</title>
<ellipse fill="#1874cd" stroke="black" cx="46.3636" cy="168.39" rx="3.5" ry="3.5"/>
</g>
<!-- 54&#45;&#45;5 -->
<g id="edge72" class="edge"><title>54&#45;&#45;5</title>
<path fill="none" stroke="black" d="M45.3196,171.879C43.4573,178.103 39.4842,191.381 36.5633,201.142"/>
</g>
<!-- 55 -->
<g id="node56" class="node"><title>55</title>
<ellipse fill="#787878" stroke="black" cx="414.917" cy="-267.782" rx="3.5" ry="3.5"/>
</g>
<!-- 55&#45;&#45;0 -->
<g id="edge73" class="edge"><title>55&#45;&#45;0</title>
<path fill="none" stroke="black" d="M412.89,-264.555C408.015,-256.794 395.177,-236.356 383.557,-217.859"/>
</g>
<!-- 56 -->
<g id="node57" class="node"><title>56</title>
<ellipse fill="#1874cd" stroke="black" cx="-219.163" cy="-393.512" rx="3.5" ry="3.5"/>
</g>
<!-- anon_56_39_0 -->
<g id="node84" class="node"><title>anon_56_39_0</title>
<ellipse fill="white" stroke="black" cx="-221.701" cy="-351.029" rx="2.5" ry="2.5"/>
</g>
<!-- 56&#45;&#45;anon_56_39_0 -->
<g id="edge74" class="edge"><title>56&#45;&#45;anon_56_39_0</title>
<path fill="none" stroke="black" d="M-219.38,-389.89C-219.878,-381.542 -221.099,-361.105 -221.54,-353.735"/>
</g>
<!-- 58 -->
<g id="node59" class="node"><title>58</title>
<ellipse fill="palegreen" stroke="black" cx="195.563" cy="51.6629" rx="3.5" ry="3.5"/>
</g>
<!-- 59 -->
<g id="node60" class="node"><title>59</title>
<ellipse fill="olivedrab" stroke="black" cx="35.9261" cy="-200.437" rx="3.5" ry="3.5"/>
</g>
<!-- 59&#45;&#45;2 -->
<g id="edge76" class="edge"><title>59&#45;&#45;2</title>
<path fill="none" stroke="black" d="M38.1409,-203.155C42.9781,-209.09 54.8677,-223.68 65.0264,-236.146"/>
</g>
<!-- 61 -->
<g id="node62" class="node"><title>61</title>
<ellipse fill="#787878" stroke="black" cx="229.527" cy="-286.686" rx="3.5" ry="3.5"/>
</g>
<!-- 61&#45;&#45;6 -->
<g id="edge77" class="edge"><title>61&#45;&#45;6</title>
<path fill="none" stroke="black" d="M230.903,-283.17C233.964,-275.348 241.444,-256.232 246.225,-244.014"/>
</g>
<!-- anon_0_41_0&#45;&#45;41 -->
<g id="edge4" class="edge"><title>anon_0_41_0&#45;&#45;41</title>
<path fill="none" stroke="black" d="M293.517,-103.376C287.112,-98.2997 269.479,-84.3255 262.58,-78.8579"/>
</g>
<!-- anon_1_58_1 -->
<g id="node65" class="node"><title>anon_1_58_1</title>
<ellipse fill="white" stroke="black" cx="271.57" cy="92.9139" rx="2.5" ry="2.5"/>
</g>
<!-- anon_1_58_0&#45;&#45;anon_1_58_1 -->
<g id="edge19" class="edge"><title>anon_1_58_0&#45;&#45;anon_1_58_1</title>
<path fill="none" stroke="black" d="M305.218,118.561C298.584,113.504 279.862,99.2341 273.623,94.4782"/>
</g>
<!-- anon_1_58_2 -->
<g id="node66" class="node"><title>anon_1_58_2</title>
<ellipse fill="white" stroke="black" cx="235.622" cy="68.7006" rx="2.5" ry="2.5"/>
</g>
<!-- anon_1_58_1&#45;&#45;anon_1_58_2 -->
<g id="edge20" class="edge"><title>anon_1_58_1&#45;&#45;anon_1_58_2</title>
<path fill="none" stroke="black" d="M269.212,91.3252C262.714,86.9484 244.601,74.7481 238.037,70.3269"/>
</g>
<!-- anon_1_58_2&#45;&#45;58 -->
<g id="edge21" class="edge"><title>anon_1_58_2&#45;&#45;58</title>
<path fill="none" stroke="black" d="M232.994,67.5827C226.031,64.6214 207.102,56.5704 199.153,53.1898"/>
</g>
<!-- anon_2_50_1 -->
<g id="node68" class="node"><title>anon_2_50_1</title>
<ellipse fill="white" stroke="black" cx="167.5" cy="-343.243" rx="2.5" ry="2.5"/>
</g>
<!-- anon_2_50_0&#45;&#45;anon_2_50_1 -->
<g id="edge26" class="edge"><title>anon_2_50_0&#45;&#45;anon_2_50_1</title>
<path fill="none" stroke="black" d="M142.147,-311.154C147.052,-317.361 160.723,-334.665 165.678,-340.936"/>
</g>
<!-- anon_2_50_2 -->
<g id="node69" class="node"><title>anon_2_50_2</title>
<ellipse fill="white" stroke="black" cx="191.636" cy="-378.391" rx="2.5" ry="2.5"/>
</g>
<!-- anon_2_50_1&#45;&#45;anon_2_50_2 -->
<g id="edge27" class="edge"><title>anon_2_50_1&#45;&#45;anon_2_50_2</title>
<path fill="none" stroke="black" d="M169.084,-345.549C173.446,-351.902 185.608,-369.613 190.015,-376.031"/>
</g>
<!-- anon_2_50_2&#45;&#45;50 -->
<g id="edge28" class="edge"><title>anon_2_50_2&#45;&#45;50</title>
<path fill="none" stroke="black" d="M193.471,-380.537C198.332,-386.221 211.547,-401.673 217.096,-408.161"/>
</g>
<!-- anon_3_5_1 -->
<g id="node71" class="node"><title>anon_3_5_1</title>
<ellipse fill="white" stroke="black" cx="-119.572" cy="-23.0733" rx="2.5" ry="2.5"/>
</g>
<!-- anon_3_5_0&#45;&#45;anon_3_5_1 -->
<g id="edge30" class="edge"><title>anon_3_5_0&#45;&#45;anon_3_5_1</title>
<path fill="none" stroke="black" d="M-137.569,-57.7216C-134.088,-51.0188 -124.383,-32.3348 -120.866,-25.5639"/>
</g>
<!-- anon_3_5_2 -->
<g id="node72" class="node"><title>anon_3_5_2</title>
<ellipse fill="white" stroke="black" cx="-98.2198" cy="13.0533" rx="2.5" ry="2.5"/>
</g>
<!-- anon_3_5_1&#45;&#45;anon_3_5_2 -->
<g id="edge31" class="edge"><title>anon_3_5_1&#45;&#45;anon_3_5_2</title>
<path fill="none" stroke="black" d="M-118.171,-20.703C-114.312,-14.1727 -103.553,4.03031 -99.6539,10.6269"/>
</g>
<!-- anon_3_5_3 -->
<g id="node73" class="node"><title>anon_3_5_3</title>
<ellipse fill="white" stroke="black" cx="-75.3368" cy="48.572" rx="2.5" ry="2.5"/>
</g>
<!-- anon_3_5_2&#45;&#45;anon_3_5_3 -->
<g id="edge32" class="edge"><title>anon_3_5_2&#45;&#45;anon_3_5_3</title>
<path fill="none" stroke="black" d="M-96.7183,15.3838C-92.582,21.8042 -81.052,39.7009 -76.8737,46.1864"/>
</g>
<!-- anon_3_5_4 -->
<g id="node74" class="node"><title>anon_3_5_4</title>
<ellipse fill="white" stroke="black" cx="-51.753" cy="84.2047" rx="2.5" ry="2.5"/>
</g>
<!-- anon_3_5_3&#45;&#45;anon_3_5_4 -->
<g id="edge33" class="edge"><title>anon_3_5_3&#45;&#45;anon_3_5_4</title>
<path fill="none" stroke="black" d="M-73.7894,50.91C-69.5264,57.3509 -57.6433,75.3051 -53.3371,81.8114"/>
</g>
<!-- anon_3_5_5 -->
<g id="node75" class="node"><title>anon_3_5_5</title>
<ellipse fill="white" stroke="black" cx="-28.0698" cy="120.88" rx="2.5" ry="2.5"/>
</g>
<!-- anon_3_5_4&#45;&#45;anon_3_5_5 -->
<g id="edge34" class="edge"><title>anon_3_5_4&#45;&#45;anon_3_5_5</title>
<path fill="none" stroke="black" d="M-50.1991,86.6111C-45.9181,93.2405 -33.9849,111.72 -29.6605,118.417"/>
</g>
<!-- anon_3_5_6 -->
<g id="node76" class="node"><title>anon_3_5_6</title>
<ellipse fill="white" stroke="black" cx="-4.29115" cy="159.923" rx="2.5" ry="2.5"/>
</g>
<!-- anon_3_5_5&#45;&#45;anon_3_5_6 -->
<g id="edge35" class="edge"><title>anon_3_5_5&#45;&#45;anon_3_5_6</title>
<path fill="none" stroke="black" d="M-26.5096,123.442C-22.1287,130.635 -9.76646,150.933 -5.64634,157.698"/>
</g>
<!-- anon_3_5_6&#45;&#45;5 -->
<g id="edge36" class="edge"><title>anon_3_5_6&#45;&#45;5</title>
<path fill="none" stroke="black" d="M-2.68626,162.197C2.17286,169.083 16.94,190.01 25.9017,202.71"/>
</g>
<!-- anon_4_35_0&#45;&#45;35 -->
<g id="edge39" class="edge"><title>anon_4_35_0&#45;&#45;35</title>
<path fill="none" stroke="black" d="M409.81,-12.5254C409.86,-4.95719 410.003,16.8946 410.059,25.4597"/>
</g>
<!-- anon_5_29_0&#45;&#45;29 -->
<g id="edge43" class="edge"><title>anon_5_29_0&#45;&#45;29</title>
<path fill="none" stroke="black" d="M-21.92,226.391C-29.471,228.522 -52.5502,235.034 -61.2775,237.497"/>
</g>
<!-- anon_11_39_0&#45;&#45;39 -->
<g id="edge49" class="edge"><title>anon_11_39_0&#45;&#45;39</title>
<path fill="none" stroke="black" d="M-213.172,-269.108C-214.257,-276.437 -217.208,-296.362 -218.447,-304.729"/>
</g>
<!-- anon_22_16_0&#45;&#45;16 -->
<g id="edge56" class="edge"><title>anon_22_16_0&#45;&#45;16</title>
<path fill="none" stroke="black" d="M31.2684,370.24C26.6052,363.817 12.8179,344.826 6.61129,336.277"/>
</g>
<!-- anon_44_5_1 -->
<g id="node82" class="node"><title>anon_44_5_1</title>
<ellipse fill="white" stroke="black" cx="93.7655" cy="178.064" rx="2.5" ry="2.5"/>
</g>
<!-- anon_44_5_0&#45;&#45;anon_44_5_1 -->
<g id="edge63" class="edge"><title>anon_44_5_0&#45;&#45;anon_44_5_1</title>
<path fill="none" stroke="black" d="M135.957,164.344C128.288,166.838 104.386,174.61 96.3965,177.209"/>
</g>
<!-- anon_44_5_1&#45;&#45;5 -->
<g id="edge64" class="edge"><title>anon_44_5_1&#45;&#45;5</title>
<path fill="none" stroke="black" d="M91.4599,179.385C83.7497,183.804 58.527,198.258 43.8727,206.656"/>
</g>
<!-- anon_53_1_0&#45;&#45;1 -->
<g id="edge71" class="edge"><title>anon_53_1_0&#45;&#45;1</title>
<path fill="none" stroke="black" d="M438.363,94.718C433.73,102.616 418.803,128.063 406.73,148.645"/>
</g>
<!-- anon_56_39_0&#45;&#45;39 -->
<g id="edge75" class="edge"><title>anon_56_39_0&#45;&#45;39</title>
<path fill="none" stroke="black" d="M-221.541,-348.496C-221.083,-341.273 -219.77,-320.552 -219.236,-312.131"/>
</g>
</g>
</svg>
