<?xml version="1.0" encoding="UTF-8" standalone="no"?>
<!DOCTYPE svg PUBLIC "-//W3C//DTD SVG 1.1//EN"
 "http://www.w3.org/Graphics/SVG/1.1/DTD/svg11.dtd">
<!-- Generated by graphviz version 2.38.0 (20140413.2041)
 -->
<!-- Title: %3 Pages: 1 -->
<svg width="720pt" height="883pt"
 viewBox="0.00 0.00 719.58 883.01" xmlns="http://www.w3.org/2000/svg" xmlns:xlink="http://www.w3.org/1999/xlink">
<g id="graph0" class="graph" transform="scale(1 1) rotate(0) translate(244.346 578.922)">
<title>%3</title>
<polygon fill="white" stroke="none" points="-244.346,304.089 -244.346,-578.922 475.235,-578.922 475.235,304.089 -244.346,304.089"/>
<!-- 0 -->
<g id="node1" class="node"><title>0</title>
<ellipse fill="palegreen" stroke="black" cx="-113.489" cy="-344.849" rx="33" ry="33"/>
</g>
<!-- 1 -->
<g id="node2" class="node"><title>1</title>
<ellipse fill="palegreen" stroke="black" cx="-37.6217" cy="-368.456" rx="3.5" ry="3.5"/>
</g>
<!-- 0&#45;&#45;1 -->
<g id="edge1" class="edge"><title>0&#45;&#45;1</title>
<path fill="none" stroke="black" d="M-81.7541,-354.724C-65.8371,-359.677 -48.4234,-365.095 -41.1351,-367.363"/>
</g>
<!-- 3 -->
<g id="node4" class="node"><title>3</title>
<ellipse fill="palegreen" stroke="black" cx="-117.358" cy="-286.914" rx="3.5" ry="3.5"/>
</g>
<!-- 0&#45;&#45;3 -->
<g id="edge2" class="edge"><title>0&#45;&#45;3</title>
<path fill="none" stroke="black" d="M-115.695,-311.82C-116.265,-303.282 -116.803,-295.224 -117.105,-290.693"/>
</g>
<!-- 5 -->
<g id="node6" class="node"><title>5</title>
<ellipse fill="palegreen" stroke="black" cx="-159.429" cy="-389.159" rx="3.5" ry="3.5"/>
</g>
<!-- 0&#45;&#45;5 -->
<g id="edge3" class="edge"><title>0&#45;&#45;5</title>
<path fill="none" stroke="black" d="M-137.267,-367.783C-145.148,-375.385 -152.903,-382.864 -156.813,-386.635"/>
</g>
<!-- 7 -->
<g id="node8" class="node"><title>7</title>
<ellipse fill="palegreen" stroke="black" cx="-201.195" cy="-383.579" rx="5" ry="5"/>
</g>
<!-- 0&#45;&#45;7 -->
<g id="edge6" class="edge"><title>0&#45;&#45;7</title>
<path fill="none" stroke="black" d="M-144.164,-358.395C-163.528,-366.946 -186.671,-377.165 -196.456,-381.486"/>
</g>
<!-- 9 -->
<g id="node10" class="node"><title>9</title>
<ellipse fill="palegreen" stroke="black" cx="-129.788" cy="-240.062" rx="9" ry="9"/>
</g>
<!-- 0&#45;&#45;9 -->
<g id="edge7" class="edge"><title>0&#45;&#45;9</title>
<path fill="none" stroke="black" d="M-118.602,-311.982C-122,-290.134 -126.22,-263.001 -128.376,-249.14"/>
</g>
<!-- 10 -->
<g id="node11" class="node"><title>10</title>
<ellipse fill="palegreen" stroke="black" cx="-189.445" cy="-314.06" rx="3.5" ry="3.5"/>
</g>
<!-- 0&#45;&#45;10 -->
<g id="edge8" class="edge"><title>0&#45;&#45;10</title>
<path fill="none" stroke="black" d="M-144.383,-332.326C-160.484,-325.8 -178.345,-318.56 -185.833,-315.524"/>
</g>
<!-- 11 -->
<g id="node12" class="node"><title>11</title>
<ellipse fill="palegreen" stroke="black" cx="-66.3511" cy="-264.714" rx="3.5" ry="3.5"/>
</g>
<!-- 0&#45;&#45;11 -->
<g id="edge9" class="edge"><title>0&#45;&#45;11</title>
<path fill="none" stroke="black" d="M-96.7373,-316.371C-85.9406,-298.016 -73.0556,-276.112 -68.2665,-267.97"/>
</g>
<!-- 12 -->
<g id="node13" class="node"><title>12</title>
<ellipse fill="palegreen" stroke="black" cx="-174.951" cy="-265.976" rx="5" ry="5"/>
</g>
<!-- 0&#45;&#45;12 -->
<g id="edge10" class="edge"><title>0&#45;&#45;12</title>
<path fill="none" stroke="black" d="M-133.955,-318.585C-147.784,-300.839 -164.746,-279.073 -171.721,-270.121"/>
</g>
<!-- 14 -->
<g id="node15" class="node"><title>14</title>
<ellipse fill="palegreen" stroke="black" cx="-206.5" cy="-344.348" rx="3.5" ry="3.5"/>
</g>
<!-- 0&#45;&#45;14 -->
<g id="edge11" class="edge"><title>0&#45;&#45;14</title>
<path fill="none" stroke="black" d="M-146.543,-344.671C-168.056,-344.555 -193.77,-344.417 -202.993,-344.367"/>
</g>
<!-- 18 -->
<g id="node19" class="node"><title>18</title>
<ellipse fill="palegreen" stroke="black" cx="-43.0099" cy="-406.029" rx="3.5" ry="3.5"/>
</g>
<!-- 0&#45;&#45;18 -->
<g id="edge16" class="edge"><title>0&#45;&#45;18</title>
<path fill="none" stroke="black" d="M-88.4424,-366.591C-72.2995,-380.604 -53.0343,-397.327 -45.8738,-403.543"/>
</g>
<!-- 20 -->
<g id="node21" class="node"><title>20</title>
<ellipse fill="palegreen" stroke="black" cx="-83.501" cy="-407.726" rx="3.5" ry="3.5"/>
</g>
<!-- 0&#45;&#45;20 -->
<g id="edge17" class="edge"><title>0&#45;&#45;20</title>
<path fill="none" stroke="black" d="M-99.1977,-374.814C-93.5255,-386.707 -87.719,-398.882 -85.0345,-404.511"/>
</g>
<!-- 22 -->
<g id="node23" class="node"><title>22</title>
<ellipse fill="palegreen" stroke="black" cx="-55.4021" cy="-303.6" rx="3.5" ry="3.5"/>
</g>
<!-- 0&#45;&#45;22 -->
<g id="edge18" class="edge"><title>0&#45;&#45;22</title>
<path fill="none" stroke="black" d="M-86.4863,-325.674C-75.3465,-317.763 -63.8044,-309.567 -58.4586,-305.771"/>
</g>
<!-- anon_0_6_0 -->
<g id="node63" class="node"><title>anon_0_6_0</title>
<ellipse fill="white" stroke="black" cx="-14.863" cy="-324.673" rx="2.5" ry="2.5"/>
</g>
<!-- 0&#45;&#45;anon_0_6_0 -->
<g id="edge4" class="edge"><title>0&#45;&#45;anon_0_6_0</title>
<path fill="none" stroke="black" d="M-80.9219,-338.187C-56.683,-333.228 -26.319,-327.017 -17.422,-325.197"/>
</g>
<!-- anon_0_15_0 -->
<g id="node64" class="node"><title>anon_0_15_0</title>
<ellipse fill="white" stroke="black" cx="-131.682" cy="-441.107" rx="2.5" ry="2.5"/>
</g>
<!-- 0&#45;&#45;anon_0_15_0 -->
<g id="edge12" class="edge"><title>0&#45;&#45;anon_0_15_0</title>
<path fill="none" stroke="black" d="M-119.648,-377.438C-124.019,-400.563 -129.403,-429.051 -131.125,-438.161"/>
</g>
<!-- 2 -->
<g id="node3" class="node"><title>2</title>
<path fill="palegreen" stroke="black" stroke-width="0.5" d="M310.817,-370.015C310.817,-370.015 351.817,-370.015 351.817,-370.015 351.817,-371.666 351.718,-373.317 351.518,-374.957 351.319,-376.596 351.021,-378.223 350.626,-379.826 350.231,-381.43 349.739,-383.009 349.153,-384.553 348.567,-386.098 347.889,-387.606 347.121,-389.068 346.353,-390.531 345.498,-391.946 344.56,-393.305 343.621,-394.665 342.602,-395.966 341.506,-397.203 340.411,-398.439 339.242,-399.608 338.005,-400.703 336.769,-401.799 335.467,-402.819 334.108,-403.757 332.749,-404.695 331.334,-405.551 329.871,-406.318 328.408,-407.086 326.901,-407.764 325.356,-408.35 323.812,-408.936 322.233,-409.428 320.629,-409.823 319.025,-410.218 317.399,-410.516 315.759,-410.716 314.12,-410.915 312.469,-411.015 310.817,-411.015 309.165,-411.015 307.515,-410.915 305.875,-410.716 304.236,-410.516 302.609,-410.218 301.005,-409.823 299.402,-409.428 297.823,-408.936 296.279,-408.35 294.734,-407.764 293.226,-407.086 291.764,-406.318 290.301,-405.551 288.886,-404.695 287.527,-403.757 286.167,-402.819 284.866,-401.799 283.629,-400.703 282.393,-399.608 281.224,-398.439 280.128,-397.203 279.033,-395.966 278.013,-394.665 277.075,-393.305 276.137,-391.946 275.281,-390.531 274.514,-389.068 273.746,-387.606 273.067,-386.098 272.482,-384.553 271.896,-383.009 271.404,-381.43 271.009,-379.826 270.613,-378.223 270.315,-376.596 270.116,-374.957 269.917,-373.317 269.817,-371.666 269.817,-370.015 269.817,-368.363 269.917,-366.712 270.116,-365.073 270.315,-363.433 270.613,-361.806 271.009,-360.203 271.404,-358.599 271.896,-357.02 272.482,-355.476 273.067,-353.931 273.746,-352.424 274.514,-350.961 275.281,-349.498 276.137,-348.083 277.075,-346.724 278.013,-345.364 279.033,-344.063 280.128,-342.827 280.128,-342.827 310.817,-370.015 310.817,-370.015"/>
<path fill="#787878" stroke="black" stroke-width="0.5" d="M310.817,-370.015C310.817,-370.015 280.128,-342.827 280.128,-342.827 280.813,-342.054 281.526,-341.307 282.267,-340.589 283.008,-339.87 283.776,-339.179 284.569,-338.518 285.362,-337.858 286.179,-337.227 287.02,-336.628 287.86,-336.029 288.723,-335.462 289.607,-334.928 290.49,-334.393 291.393,-333.893 292.314,-333.427 293.235,-332.961 294.174,-332.53 295.127,-332.135 296.081,-331.74 297.049,-331.382 298.03,-331.06 299.011,-330.738 300.003,-330.453 301.005,-330.206 302.008,-329.959 303.019,-329.75 304.037,-329.579 305.055,-329.408 306.079,-329.276 307.107,-329.183 308.135,-329.089 309.166,-329.035 310.198,-329.019 311.23,-329.004 312.263,-329.027 313.293,-329.089 314.323,-329.152 315.351,-329.253 316.374,-329.393 317.396,-329.533 318.413,-329.711 319.422,-329.928 320.432,-330.144 321.432,-330.399 322.422,-330.691 323.412,-330.983 324.391,-331.313 325.356,-331.679 326.321,-332.045 327.272,-332.447 328.207,-332.885 329.142,-333.323 330.06,-333.796 330.959,-334.303 331.858,-334.81 332.737,-335.351 333.596,-335.924 334.454,-336.498 335.29,-337.103 336.103,-337.74 336.915,-338.377 337.704,-339.044 338.466,-339.74 339.228,-340.436 339.964,-341.16 340.671,-341.912 341.379,-342.664 342.058,-343.442 342.706,-344.244 343.355,-345.047 343.973,-345.874 344.56,-346.724 345.146,-347.573 345.7,-348.445 346.221,-349.336 346.741,-350.227 347.228,-351.138 347.68,-352.066 348.132,-352.994 348.548,-353.939 348.929,-354.898 349.31,-355.858 349.654,-356.831 349.961,-357.817 350.268,-358.802 350.538,-359.799 350.77,-360.805 351.001,-361.811 351.195,-362.825 351.351,-363.845 351.506,-364.866 351.623,-365.892 351.7,-366.921 351.778,-367.95 351.817,-368.982 351.817,-370.015 351.817,-370.015 310.817,-370.015 310.817,-370.015"/>
<ellipse fill="none" stroke="black" cx="310.817" cy="-370.015" rx="41" ry="41"/>
</g>
<!-- 4 -->
<g id="node5" class="node"><title>4</title>
<ellipse fill="palegreen" stroke="black" cx="278.816" cy="-250.608" rx="13" ry="13"/>
</g>
<!-- 2&#45;&#45;4 -->
<g id="edge19" class="edge"><title>2&#45;&#45;4</title>
<path fill="none" stroke="black" d="M300.161,-330.254C293.907,-306.916 286.421,-278.985 282.182,-263.168"/>
</g>
<!-- 13 -->
<g id="node14" class="node"><title>13</title>
<ellipse fill="palegreen" stroke="black" cx="260.49" cy="-325.163" rx="3.5" ry="3.5"/>
</g>
<!-- 2&#45;&#45;13 -->
<g id="edge20" class="edge"><title>2&#45;&#45;13</title>
<path fill="none" stroke="black" d="M280.092,-342.632C273.216,-336.504 266.923,-330.896 263.409,-327.764"/>
</g>
<!-- 17 -->
<g id="node18" class="node"><title>17</title>
<ellipse fill="palegreen" stroke="black" cx="286.535" cy="-466.264" rx="3.5" ry="3.5"/>
</g>
<!-- 2&#45;&#45;17 -->
<g id="edge21" class="edge"><title>2&#45;&#45;17</title>
<path fill="none" stroke="black" d="M300.73,-409.997C295.414,-431.07 289.556,-454.288 287.396,-462.851"/>
</g>
<!-- 19 -->
<g id="node20" class="node"><title>19</title>
<ellipse fill="palegreen" stroke="black" cx="243.841" cy="-442.868" rx="3.5" ry="3.5"/>
</g>
<!-- 2&#45;&#45;19 -->
<g id="edge22" class="edge"><title>2&#45;&#45;19</title>
<path fill="none" stroke="black" d="M282.802,-400.489C268.463,-416.085 252.749,-433.178 246.56,-439.91"/>
</g>
<!-- 23 -->
<g id="node24" class="node"><title>23</title>
<ellipse fill="#787878" stroke="black" cx="410.744" cy="-440.679" rx="11.5" ry="11.5"/>
</g>
<!-- 2&#45;&#45;23 -->
<g id="edge23" class="edge"><title>2&#45;&#45;23</title>
<path fill="none" stroke="black" d="M344.37,-393.741C364.327,-407.855 388.216,-424.747 401.197,-433.927"/>
</g>
<!-- 24 -->
<g id="node25" class="node"><title>24</title>
<ellipse fill="#787878" stroke="black" cx="213.716" cy="-355.735" rx="3.5" ry="3.5"/>
</g>
<!-- 2&#45;&#45;24 -->
<g id="edge24" class="edge"><title>2&#45;&#45;24</title>
<path fill="none" stroke="black" d="M270.2,-364.041C249.205,-360.954 226.175,-357.567 217.393,-356.275"/>
</g>
<!-- 27 -->
<g id="node28" class="node"><title>27</title>
<ellipse fill="#787878" stroke="black" cx="217.153" cy="-404.012" rx="3.5" ry="3.5"/>
</g>
<!-- 2&#45;&#45;27 -->
<g id="edge27" class="edge"><title>2&#45;&#45;27</title>
<path fill="none" stroke="black" d="M272.18,-384.039C251.62,-391.502 228.885,-399.754 220.497,-402.799"/>
</g>
<!-- 28 -->
<g id="node29" class="node"><title>28</title>
<ellipse fill="#787878" stroke="black" cx="381.02" cy="-362.101" rx="3.5" ry="3.5"/>
</g>
<!-- 2&#45;&#45;28 -->
<g id="edge28" class="edge"><title>2&#45;&#45;28</title>
<path fill="none" stroke="black" d="M351.654,-365.411C362.272,-364.215 372.17,-363.099 377.32,-362.518"/>
</g>
<!-- 29 -->
<g id="node30" class="node"><title>29</title>
<ellipse fill="#787878" stroke="black" cx="331.7" cy="-444.083" rx="3.5" ry="3.5"/>
</g>
<!-- 2&#45;&#45;29 -->
<g id="edge29" class="edge"><title>2&#45;&#45;29</title>
<path fill="none" stroke="black" d="M321.992,-409.651C325.561,-422.308 329.014,-434.558 330.675,-440.447"/>
</g>
<!-- anon_2_25_0 -->
<g id="node67" class="node"><title>anon_2_25_0</title>
<ellipse fill="white" stroke="black" cx="390.231" cy="-307.063" rx="2.5" ry="2.5"/>
</g>
<!-- 2&#45;&#45;anon_2_25_0 -->
<g id="edge25" class="edge"><title>2&#45;&#45;anon_2_25_0</title>
<path fill="none" stroke="black" d="M343.118,-344.41C361.325,-329.977 381.686,-313.837 388.147,-308.715"/>
</g>
<!-- 21 -->
<g id="node22" class="node"><title>21</title>
<ellipse fill="palegreen" stroke="black" cx="221.67" cy="-229.436" rx="3.5" ry="3.5"/>
</g>
<!-- 4&#45;&#45;21 -->
<g id="edge32" class="edge"><title>4&#45;&#45;21</title>
<path fill="none" stroke="black" d="M266.416,-246.014C253.285,-241.149 233.36,-233.767 225.271,-230.77"/>
</g>
<!-- anon_4_16_0 -->
<g id="node68" class="node"><title>anon_4_16_0</title>
<ellipse fill="white" stroke="black" cx="298.075" cy="-196.566" rx="2.5" ry="2.5"/>
</g>
<!-- 4&#45;&#45;anon_4_16_0 -->
<g id="edge30" class="edge"><title>4&#45;&#45;anon_4_16_0</title>
<path fill="none" stroke="black" d="M283.186,-238.345C287.803,-225.39 294.747,-205.906 297.188,-199.055"/>
</g>
<!-- 6 -->
<g id="node7" class="node"><title>6</title>
<ellipse fill="palegreen" stroke="black" cx="30.5979" cy="-315.159" rx="3.5" ry="3.5"/>
</g>
<!-- 8 -->
<g id="node9" class="node"><title>8</title>
<ellipse fill="palegreen" stroke="black" cx="-176.47" cy="-214.796" rx="5" ry="5"/>
</g>
<!-- 8&#45;&#45;9 -->
<g id="edge33" class="edge"><title>8&#45;&#45;9</title>
<path fill="none" stroke="black" d="M-171.824,-217.311C-163.89,-221.605 -147.642,-230.399 -137.833,-235.708"/>
</g>
<!-- 8&#45;&#45;12 -->
<g id="edge78" class="edge"><title>8&#45;&#45;12</title>
<path fill="none" stroke="black" stroke-dasharray="5,2" d="M-176.319,-219.891C-176.028,-229.701 -175.393,-251.108 -175.102,-260.902"/>
</g>
<!-- 15 -->
<g id="node16" class="node"><title>15</title>
<ellipse fill="palegreen" stroke="black" cx="-142.465" cy="-571.422" rx="3.5" ry="3.5"/>
</g>
<!-- 16 -->
<g id="node17" class="node"><title>16</title>
<ellipse fill="palegreen" stroke="black" cx="308.715" cy="-153.69" rx="3.5" ry="3.5"/>
</g>
<!-- 26 -->
<g id="node27" class="node"><title>26</title>
<ellipse fill="#787878" stroke="black" cx="467.735" cy="-435.969" rx="3.5" ry="3.5"/>
</g>
<!-- 23&#45;&#45;26 -->
<g id="edge34" class="edge"><title>23&#45;&#45;26</title>
<path fill="none" stroke="black" d="M422.277,-439.725C435.287,-438.65 455.714,-436.962 464.029,-436.275"/>
</g>
<!-- 30 -->
<g id="node31" class="node"><title>30</title>
<ellipse fill="#787878" stroke="black" cx="421.66" cy="-497.084" rx="3.5" ry="3.5"/>
</g>
<!-- 23&#45;&#45;30 -->
<g id="edge35" class="edge"><title>23&#45;&#45;30</title>
<path fill="none" stroke="black" d="M412.953,-452.093C415.445,-464.969 419.358,-485.187 420.95,-493.415"/>
</g>
<!-- 25 -->
<g id="node26" class="node"><title>25</title>
<ellipse fill="#787878" stroke="black" cx="431.081" cy="-285.665" rx="3.5" ry="3.5"/>
</g>
<!-- 31 -->
<g id="node32" class="node"><title>31</title>
<ellipse fill="#1874cd" stroke="black" cx="-212.125" cy="95.5738" rx="18.5" ry="18.5"/>
</g>
<!-- 44 -->
<g id="node45" class="node"><title>44</title>
<ellipse fill="#1874cd" stroke="black" cx="-145.206" cy="147.674" rx="6" ry="6"/>
</g>
<!-- 31&#45;&#45;44 -->
<g id="edge44" class="edge"><title>31&#45;&#45;44</title>
<path fill="none" stroke="black" d="M-197.273,107.137C-182.179,118.888 -159.677,136.408 -149.958,143.974"/>
</g>
<!-- anon_31_37_0 -->
<g id="node69" class="node"><title>anon_31_37_0</title>
<ellipse fill="white" stroke="black" cx="-227.07" cy="20.2186" rx="2.5" ry="2.5"/>
</g>
<!-- 31&#45;&#45;anon_31_37_0 -->
<g id="edge36" class="edge"><title>31&#45;&#45;anon_31_37_0</title>
<path fill="none" stroke="black" d="M-215.743,77.3324C-219.406,58.8639 -224.77,31.8157 -226.506,23.0635"/>
</g>
<!-- anon_31_45_0 -->
<g id="node76" class="node"><title>anon_31_45_0</title>
<ellipse fill="white" stroke="black" cx="-237.846" cy="155.049" rx="2.5" ry="2.5"/>
</g>
<!-- 31&#45;&#45;anon_31_45_0 -->
<g id="edge45" class="edge"><title>31&#45;&#45;anon_31_45_0</title>
<path fill="none" stroke="black" d="M-219.565,112.776C-225.737,127.048 -233.948,146.035 -236.81,152.653"/>
</g>
<!-- 32 -->
<g id="node33" class="node"><title>32</title>
<ellipse fill="#1874cd" stroke="black" cx="-106.586" cy="296.589" rx="3.5" ry="3.5"/>
</g>
<!-- anon_32_33_0 -->
<g id="node77" class="node"><title>anon_32_33_0</title>
<ellipse fill="white" stroke="black" cx="-102.498" cy="251.263" rx="2.5" ry="2.5"/>
</g>
<!-- 32&#45;&#45;anon_32_33_0 -->
<g id="edge47" class="edge"><title>32&#45;&#45;anon_32_33_0</title>
<path fill="none" stroke="black" d="M-106.266,293.032C-105.467,284.183 -103.407,261.346 -102.723,253.756"/>
</g>
<!-- 33 -->
<g id="node34" class="node"><title>33</title>
<ellipse fill="#1874cd" stroke="black" cx="-104.253" cy="196.995" rx="9" ry="9"/>
</g>
<!-- 33&#45;&#45;44 -->
<g id="edge49" class="edge"><title>33&#45;&#45;44</title>
<path fill="none" stroke="black" d="M-110.295,189.718C-118.839,179.428 -134.204,160.923 -141.353,152.314"/>
</g>
<!-- anon_33_34_0 -->
<g id="node85" class="node"><title>anon_33_34_0</title>
<ellipse fill="white" stroke="black" cx="-40.8284" cy="193.944" rx="2.5" ry="2.5"/>
</g>
<!-- 33&#45;&#45;anon_33_34_0 -->
<g id="edge79" class="edge"><title>33&#45;&#45;anon_33_34_0</title>
<path fill="none" stroke="black" stroke-dasharray="5,2" d="M-95.1654,196.558C-80.6423,195.859 -52.9093,194.525 -43.8051,194.087"/>
</g>
<!-- anon_33_45_0 -->
<g id="node92" class="node"><title>anon_33_45_0</title>
<ellipse fill="white" stroke="black" cx="-160.473" cy="213.145" rx="2.5" ry="2.5"/>
</g>
<!-- 33&#45;&#45;anon_33_45_0 -->
<g id="edge87" class="edge"><title>33&#45;&#45;anon_33_45_0</title>
<path fill="none" stroke="black" stroke-dasharray="5,2" d="M-113.037,199.519C-126.131,203.28 -150.069,210.157 -157.911,212.409"/>
</g>
<!-- 34 -->
<g id="node35" class="node"><title>34</title>
<ellipse fill="#1874cd" stroke="black" cx="133.536" cy="-94.8579" rx="10" ry="10"/>
</g>
<!-- 46 -->
<g id="node47" class="node"><title>46</title>
<ellipse fill="#1874cd" stroke="black" cx="64.7182" cy="-111.236" rx="6" ry="6"/>
</g>
<!-- 34&#45;&#45;46 -->
<g id="edge52" class="edge"><title>34&#45;&#45;46</title>
<path fill="none" stroke="black" d="M123.676,-97.2045C109.256,-100.636 82.8331,-106.925 70.8802,-109.769"/>
</g>
<!-- anon_34_36_0 -->
<g id="node78" class="node"><title>anon_34_36_0</title>
<ellipse fill="white" stroke="black" cx="142.554" cy="-148.193" rx="2.5" ry="2.5"/>
</g>
<!-- 34&#45;&#45;anon_34_36_0 -->
<g id="edge50" class="edge"><title>34&#45;&#45;anon_34_36_0</title>
<path fill="none" stroke="black" d="M135.275,-105.141C137.404,-117.734 140.879,-138.284 142.107,-145.548"/>
</g>
<!-- anon_34_48_0 -->
<g id="node79" class="node"><title>anon_34_48_0</title>
<ellipse fill="white" stroke="black" cx="185.306" cy="-133.878" rx="2.5" ry="2.5"/>
</g>
<!-- 34&#45;&#45;anon_34_48_0 -->
<g id="edge53" class="edge"><title>34&#45;&#45;anon_34_48_0</title>
<path fill="none" stroke="black" d="M141.625,-100.955C153.683,-110.043 175.726,-126.657 182.947,-132.1"/>
</g>
<!-- anon_34_50_0 -->
<g id="node81" class="node"><title>anon_34_50_0</title>
<ellipse fill="white" stroke="black" cx="188.385" cy="-82.8578" rx="2.5" ry="2.5"/>
</g>
<!-- 34&#45;&#45;anon_34_50_0 -->
<g id="edge56" class="edge"><title>34&#45;&#45;anon_34_50_0</title>
<path fill="none" stroke="black" d="M143.342,-92.7125C156.16,-89.908 177.884,-85.1552 185.58,-83.4714"/>
</g>
<!-- 35 -->
<g id="node36" class="node"><title>35</title>
<ellipse fill="#1874cd" stroke="black" cx="36" cy="24" rx="6" ry="6"/>
</g>
<!-- 36 -->
<g id="node37" class="node"><title>36</title>
<ellipse fill="#1874cd" stroke="black" cx="127.317" cy="-198.27" rx="3.5" ry="3.5"/>
</g>
<!-- anon_36_37_0 -->
<g id="node93" class="node"><title>anon_36_37_0</title>
<ellipse fill="white" stroke="black" cx="77.547" cy="-205.519" rx="2.5" ry="2.5"/>
</g>
<!-- 36&#45;&#45;anon_36_37_0 -->
<g id="edge89" class="edge"><title>36&#45;&#45;anon_36_37_0</title>
<path fill="none" stroke="black" stroke-dasharray="5,2" d="M123.738,-198.792C114.287,-200.168 88.812,-203.878 80.334,-205.113"/>
</g>
<!-- anon_36_48_0 -->
<g id="node94" class="node"><title>anon_36_48_0</title>
<ellipse fill="white" stroke="black" cx="152.069" cy="-247.176" rx="2.5" ry="2.5"/>
</g>
<!-- 36&#45;&#45;anon_36_48_0 -->
<g id="edge91" class="edge"><title>36&#45;&#45;anon_36_48_0</title>
<path fill="none" stroke="black" stroke-dasharray="5,2" d="M128.941,-201.479C133.587,-210.659 146.858,-236.88 150.892,-244.85"/>
</g>
<!-- 37 -->
<g id="node38" class="node"><title>37</title>
<ellipse fill="#1874cd" stroke="black" cx="32.9392" cy="-183.762" rx="12" ry="12"/>
</g>
<!-- 41 -->
<g id="node42" class="node"><title>41</title>
<ellipse fill="#1874cd" stroke="black" cx="3.23001" cy="-161.432" rx="3.5" ry="3.5"/>
</g>
<!-- 37&#45;&#45;41 -->
<g id="edge58" class="edge"><title>37&#45;&#45;41</title>
<path fill="none" stroke="black" d="M23.2113,-176.45C17.2545,-171.973 10.044,-166.554 6.11919,-163.604"/>
</g>
<!-- 42 -->
<g id="node43" class="node"><title>42</title>
<ellipse fill="#1874cd" stroke="black" cx="10.3793" cy="-248.149" rx="7" ry="7"/>
</g>
<!-- 37&#45;&#45;42 -->
<g id="edge59" class="edge"><title>37&#45;&#45;42</title>
<path fill="none" stroke="black" d="M28.906,-195.273C24.1913,-208.729 16.5476,-230.545 12.7199,-241.469"/>
</g>
<!-- 43 -->
<g id="node44" class="node"><title>43</title>
<ellipse fill="#1874cd" stroke="black" cx="70.8352" cy="-152.303" rx="5" ry="5"/>
</g>
<!-- 37&#45;&#45;43 -->
<g id="edge60" class="edge"><title>37&#45;&#45;43</title>
<path fill="none" stroke="black" d="M42.502,-175.823C50.3955,-169.271 61.1963,-160.305 66.9136,-155.558"/>
</g>
<!-- 37&#45;&#45;46 -->
<g id="edge61" class="edge"><title>37&#45;&#45;46</title>
<path fill="none" stroke="black" d="M37.7658,-172.747C44.6417,-157.055 57.0045,-128.84 62.2535,-116.861"/>
</g>
<!-- 47 -->
<g id="node48" class="node"><title>47</title>
<ellipse fill="#1874cd" stroke="black" cx="-2.90862" cy="-224.928" rx="3.5" ry="3.5"/>
</g>
<!-- 37&#45;&#45;47 -->
<g id="edge62" class="edge"><title>37&#45;&#45;47</title>
<path fill="none" stroke="black" d="M24.9834,-192.898C16.8976,-202.183 4.8434,-216.026 -0.36285,-222.005"/>
</g>
<!-- anon_37_48_0 -->
<g id="node96" class="node"><title>anon_37_48_0</title>
<ellipse fill="white" stroke="black" cx="66.5119" cy="-238.689" rx="2.5" ry="2.5"/>
</g>
<!-- 37&#45;&#45;anon_37_48_0 -->
<g id="edge94" class="edge"><title>37&#45;&#45;anon_37_48_0</title>
<path fill="none" stroke="black" stroke-dasharray="5,2" d="M39.254,-194.093C47.3077,-207.27 60.7157,-229.206 65.0868,-236.357"/>
</g>
<!-- 38 -->
<g id="node39" class="node"><title>38</title>
<ellipse fill="#1874cd" stroke="black" cx="25.5917" cy="-121.555" rx="3.5" ry="3.5"/>
</g>
<!-- 38&#45;&#45;41 -->
<g id="edge63" class="edge"><title>38&#45;&#45;41</title>
<path fill="none" stroke="black" d="M23.8371,-124.684C19.7186,-132.028 9.45771,-150.326 5.16563,-157.98"/>
</g>
<!-- 38&#45;&#45;46 -->
<g id="edge97" class="edge"><title>38&#45;&#45;46</title>
<path fill="none" stroke="black" stroke-dasharray="5,2" d="M29.2025,-120.603C35.9374,-118.826 50.477,-114.992 58.7118,-112.82"/>
</g>
<!-- 39 -->
<g id="node40" class="node"><title>39</title>
<ellipse fill="#1874cd" stroke="black" cx="63" cy="-33" rx="3.5" ry="3.5"/>
</g>
<!-- 40 -->
<g id="node41" class="node"><title>40</title>
<path fill="olivedrab" stroke="black" stroke-width="0.5" d="M313.684,99.0149C313.684,99.0149 340.184,99.0149 340.184,99.0149 340.184,98.2737 340.153,97.5329 340.091,96.7943 340.029,96.0557 339.936,95.3201 339.812,94.5893 339.688,93.8585 339.534,93.1333 339.349,92.4155 339.164,91.6976 338.95,90.9879 338.706,90.288 338.462,89.5882 338.188,88.8989 337.886,88.222 337.585,87.5451 337.254,86.8811 336.897,86.2319 336.539,85.5826 336.155,84.9487 335.744,84.3316 335.333,83.7146 334.897,83.1151 334.436,82.5347 333.975,81.9543 333.49,81.3935 332.982,80.8537 332.474,80.314 331.944,79.7958 331.392,79.3005 330.841,78.8052 330.269,78.3333 329.678,77.8859 329.087,77.4386 328.478,77.0162 327.851,76.62 327.225,76.2237 326.582,75.8539 325.925,75.5115 325.268,75.1692 324.596,74.8545 323.912,74.5685 323.229,74.2824 322.533,74.0251 321.828,73.7973 321.123,73.5696 320.408,73.3715 319.686,73.2036 318.964,73.0357 318.235,72.8982 317.502,72.7914 316.769,72.6846 316.031,72.6086 315.291,72.5637 314.551,72.5187 313.81,72.5048 313.069,72.522 312.328,72.5392 311.588,72.5875 310.851,72.6667 310.114,72.746 309.381,72.8561 308.653,72.9968 307.926,73.1375 307.204,73.3087 306.491,73.5098 305.777,73.711 305.073,73.9421 304.379,74.2023 303.685,74.4626 303.002,74.7518 302.332,75.0693 301.663,75.3868 301.006,75.7323 300.366,76.1048 299.725,76.4773 299.1,76.8765 298.493,77.3013 297.885,77.7262 297.296,78.1764 296.727,78.6507 296.157,79.125 295.608,79.6229 295.08,80.1433 294.552,80.6636 294.046,81.2059 293.564,81.7686 293.082,82.3313 292.623,82.9141 292.189,83.5152 291.756,84.1164 291.348,84.7355 290.966,85.3709 290.585,86.0063 290.23,86.6574 289.903,87.3225 289.576,87.9877 289.277,88.6662 289.007,89.3564 288.737,90.0466 288.495,90.7479 288.284,91.4583 288.073,92.1687 287.891,92.8876 287.74,93.6133 287.589,94.3389 287.469,95.0705 287.379,95.8062 287.289,96.542 287.23,97.2811 287.203,98.0218 287.175,98.7624 287.178,99.5039 287.212,100.244 287.247,100.985 287.312,101.723 287.409,102.458 287.505,103.193 287.632,103.924 287.789,104.648 287.947,105.372 288.135,106.089 288.353,106.798 288.57,107.506 288.818,108.205 289.094,108.893 289.37,109.581 289.675,110.257 290.008,110.919 290.341,111.581 290.702,112.229 291.089,112.861 291.476,113.493 291.89,114.109 292.329,114.706 292.768,115.303 293.231,115.882 293.719,116.44 294.206,116.999 294.717,117.536 295.249,118.052 295.781,118.567 296.335,119.06 296.909,119.53 297.483,119.999 298.076,120.444 298.687,120.863 299.298,121.283 299.927,121.676 300.571,122.043 301.215,122.41 301.874,122.749 302.546,123.061 303.219,123.372 303.904,123.656 304.601,123.91 305.297,124.164 306.004,124.388 306.719,124.583 307.434,124.778 308.157,124.943 308.886,125.077 309.615,125.211 310.349,125.315 311.086,125.387 311.824,125.46 312.564,125.502 313.305,125.512 314.047,125.523 314.788,125.502 315.527,125.451 316.267,125.399 317.003,125.317 317.736,125.203 318.468,125.09 319.196,124.946 319.916,124.772 320.637,124.597 321.349,124.393 322.053,124.159 322.756,123.925 323.449,123.661 324.13,123.369 324.811,123.077 325.48,122.756 326.134,122.408 326.788,122.06 327.428,121.684 328.051,121.283 328.673,120.881 329.279,120.453 329.866,120 329.866,120 313.684,99.0149 313.684,99.0149"/>
<path fill="#1874cd" stroke="black" stroke-width="0.5" d="M313.684,99.0149C313.684,99.0149 329.866,120 329.866,120 330.665,119.384 331.429,118.722 332.153,118.019 332.877,117.315 333.56,116.571 334.199,115.79 334.838,115.008 335.431,114.191 335.977,113.342 336.523,112.493 337.02,111.613 337.465,110.707 337.91,109.801 338.304,108.871 338.643,107.92 338.982,106.97 339.267,106 339.495,105.017 339.724,104.034 339.896,103.038 340.011,102.036 340.126,101.033 340.184,100.024 340.184,99.0149 340.184,99.0149 313.684,99.0149 313.684,99.0149"/>
<ellipse fill="none" stroke="black" cx="313.684" cy="99.0149" rx="26.5" ry="26.5"/>
</g>
<!-- 52 -->
<g id="node53" class="node"><title>52</title>
<ellipse fill="olivedrab" stroke="black" cx="231.11" cy="124.983" rx="9" ry="9"/>
</g>
<!-- 40&#45;&#45;52 -->
<g id="edge64" class="edge"><title>40&#45;&#45;52</title>
<path fill="none" stroke="black" d="M288.01,107.089C271.534,112.27 251.169,118.675 239.813,122.246"/>
</g>
<!-- 55 -->
<g id="node56" class="node"><title>55</title>
<ellipse fill="olivedrab" stroke="black" cx="228.258" cy="61.9718" rx="11" ry="11"/>
</g>
<!-- 40&#45;&#45;55 -->
<g id="edge65" class="edge"><title>40&#45;&#45;55</title>
<path fill="none" stroke="black" d="M288.975,88.3005C272.221,81.0355 250.943,71.8089 238.538,66.4297"/>
</g>
<!-- 56 -->
<g id="node57" class="node"><title>56</title>
<ellipse fill="olivedrab" stroke="black" cx="282.999" cy="33.4991" rx="3.5" ry="3.5"/>
</g>
<!-- 40&#45;&#45;56 -->
<g id="edge66" class="edge"><title>40&#45;&#45;56</title>
<path fill="none" stroke="black" d="M302.432,74.9913C295.727,60.6755 287.898,43.9588 284.596,36.9093"/>
</g>
<!-- 57 -->
<g id="node58" class="node"><title>57</title>
<ellipse fill="olivedrab" stroke="black" cx="275" cy="164.647" rx="3.5" ry="3.5"/>
</g>
<!-- 40&#45;&#45;57 -->
<g id="edge67" class="edge"><title>40&#45;&#45;57</title>
<path fill="none" stroke="black" d="M300.154,121.97C291.439,136.756 280.988,154.487 276.833,161.536"/>
</g>
<!-- 58 -->
<g id="node59" class="node"><title>58</title>
<ellipse fill="olivedrab" stroke="black" cx="386.735" cy="105.2" rx="3.5" ry="3.5"/>
</g>
<!-- 40&#45;&#45;58 -->
<g id="edge68" class="edge"><title>40&#45;&#45;58</title>
<path fill="none" stroke="black" d="M340.471,101.283C356.433,102.634 375.072,104.212 382.933,104.878"/>
</g>
<!-- 60 -->
<g id="node61" class="node"><title>60</title>
<ellipse fill="olivedrab" stroke="black" cx="376.875" cy="149.664" rx="3.5" ry="3.5"/>
</g>
<!-- 40&#45;&#45;60 -->
<g id="edge73" class="edge"><title>40&#45;&#45;60</title>
<path fill="none" stroke="black" d="M334.375,115.599C348.773,127.139 366.614,141.439 373.73,147.143"/>
</g>
<!-- 61 -->
<g id="node62" class="node"><title>61</title>
<ellipse fill="olivedrab" stroke="black" cx="338.244" cy="174.9" rx="3.5" ry="3.5"/>
</g>
<!-- 40&#45;&#45;61 -->
<g id="edge74" class="edge"><title>40&#45;&#45;61</title>
<path fill="none" stroke="black" d="M321.862,124.283C327.444,141.53 334.303,162.722 337.037,171.169"/>
</g>
<!-- anon_40_59_0 -->
<g id="node82" class="node"><title>anon_40_59_0</title>
<ellipse fill="white" stroke="black" cx="357.067" cy="31.7487" rx="2.5" ry="2.5"/>
</g>
<!-- 40&#45;&#45;anon_40_59_0 -->
<g id="edge69" class="edge"><title>40&#45;&#45;anon_40_59_0</title>
<path fill="none" stroke="black" d="M328.13,76.6162C338.383,60.7174 351.078,41.0346 355.478,34.2125"/>
</g>
<!-- 49 -->
<g id="node50" class="node"><title>49</title>
<ellipse fill="#1874cd" stroke="black" cx="101.64" cy="-99.8868" rx="5" ry="5"/>
</g>
<!-- 43&#45;&#45;49 -->
<g id="edge75" class="edge"><title>43&#45;&#45;49</title>
<path fill="none" stroke="black" d="M73.4616,-147.834C79.2814,-137.931 93.2064,-114.237 99.02,-104.344"/>
</g>
<!-- anon_44_46_0 -->
<g id="node98" class="node"><title>anon_44_46_0</title>
<ellipse fill="white" stroke="black" cx="-130.205" cy="111.829" rx="2.5" ry="2.5"/>
</g>
<!-- 44&#45;&#45;anon_44_46_0 -->
<g id="edge98" class="edge"><title>44&#45;&#45;anon_44_46_0</title>
<path fill="none" stroke="black" stroke-dasharray="5,2" d="M-142.862,142.073C-139.566,134.197 -133.694,120.168 -131.283,114.407"/>
</g>
<!-- 45 -->
<g id="node46" class="node"><title>45</title>
<ellipse fill="#1874cd" stroke="black" cx="-208.84" cy="196.356" rx="3.5" ry="3.5"/>
</g>
<!-- 46&#45;&#45;49 -->
<g id="edge106" class="edge"><title>46&#45;&#45;49</title>
<path fill="none" stroke="black" stroke-dasharray="5,2" d="M70.4872,-109.462C77.6263,-107.268 89.6736,-103.565 96.506,-101.465"/>
</g>
<!-- 48 -->
<g id="node49" class="node"><title>48</title>
<ellipse fill="#1874cd" stroke="black" cx="174.499" cy="-228.626" rx="3.5" ry="3.5"/>
</g>
<!-- anon_49_50_0 -->
<g id="node105" class="node"><title>anon_49_50_0</title>
<ellipse fill="white" stroke="black" cx="153.255" cy="-69.0583" rx="2.5" ry="2.5"/>
</g>
<!-- 49&#45;&#45;anon_49_50_0 -->
<g id="edge107" class="edge"><title>49&#45;&#45;anon_49_50_0</title>
<path fill="none" stroke="black" stroke-dasharray="5,2" d="M106.04,-97.2584C116.572,-90.968 142.944,-75.2166 150.929,-70.4479"/>
</g>
<!-- 50 -->
<g id="node51" class="node"><title>50</title>
<ellipse fill="#1874cd" stroke="black" cx="206.561" cy="-55.5189" rx="3.5" ry="3.5"/>
</g>
<!-- 51 -->
<g id="node52" class="node"><title>51</title>
<ellipse fill="olivedrab" stroke="black" cx="230.053" cy="176.364" rx="3.5" ry="3.5"/>
</g>
<!-- 51&#45;&#45;52 -->
<g id="edge76" class="edge"><title>51&#45;&#45;52</title>
<path fill="none" stroke="black" d="M230.129,172.668C230.294,164.661 230.688,145.509 230.923,134.062"/>
</g>
<!-- 51&#45;&#45;57 -->
<g id="edge109" class="edge"><title>51&#45;&#45;57</title>
<path fill="none" stroke="black" stroke-dasharray="5,2" d="M233.58,175.444C242.024,173.243 263.312,167.694 271.613,165.53"/>
</g>
<!-- 54 -->
<g id="node55" class="node"><title>54</title>
<ellipse fill="olivedrab" stroke="black" cx="184.599" cy="96.3112" rx="5" ry="5"/>
</g>
<!-- 52&#45;&#45;54 -->
<g id="edge77" class="edge"><title>52&#45;&#45;54</title>
<path fill="none" stroke="black" d="M223.43,120.249C213.625,114.205 196.985,103.946 189.056,99.0588"/>
</g>
<!-- 53 -->
<g id="node54" class="node"><title>53</title>
<ellipse fill="olivedrab" stroke="black" cx="-57" cy="-63" rx="3.5" ry="3.5"/>
</g>
<!-- 54&#45;&#45;55 -->
<g id="edge110" class="edge"><title>54&#45;&#45;55</title>
<path fill="none" stroke="black" stroke-dasharray="5,2" d="M188.628,93.1422C195.637,87.6298 210.219,76.16 219.606,68.7767"/>
</g>
<!-- 59 -->
<g id="node60" class="node"><title>59</title>
<ellipse fill="olivedrab" stroke="black" cx="417.845" cy="-81.6852" rx="3.5" ry="3.5"/>
</g>
<!-- anon_0_6_0&#45;&#45;6 -->
<g id="edge5" class="edge"><title>anon_0_6_0&#45;&#45;6</title>
<path fill="none" stroke="black" d="M-12.1553,-324.107C-4.3564,-322.474 18.1617,-317.761 26.9879,-315.914"/>
</g>
<!-- anon_0_15_1 -->
<g id="node65" class="node"><title>anon_0_15_1</title>
<ellipse fill="white" stroke="black" cx="-140.974" cy="-485.243" rx="2.5" ry="2.5"/>
</g>
<!-- anon_0_15_0&#45;&#45;anon_0_15_1 -->
<g id="edge13" class="edge"><title>anon_0_15_0&#45;&#45;anon_0_15_1</title>
<path fill="none" stroke="black" d="M-132.235,-443.736C-133.892,-451.605 -138.797,-474.906 -140.435,-482.684"/>
</g>
<!-- anon_0_15_2 -->
<g id="node66" class="node"><title>anon_0_15_2</title>
<ellipse fill="white" stroke="black" cx="-146.103" cy="-528.128" rx="2.5" ry="2.5"/>
</g>
<!-- anon_0_15_1&#45;&#45;anon_0_15_2 -->
<g id="edge14" class="edge"><title>anon_0_15_1&#45;&#45;anon_0_15_2</title>
<path fill="none" stroke="black" d="M-141.279,-487.797C-142.194,-495.443 -144.901,-518.084 -145.805,-525.64"/>
</g>
<!-- anon_0_15_2&#45;&#45;15 -->
<g id="edge15" class="edge"><title>anon_0_15_2&#45;&#45;15</title>
<path fill="none" stroke="black" d="M-145.886,-530.706C-145.268,-538.061 -143.495,-559.159 -142.775,-567.733"/>
</g>
<!-- anon_2_25_0&#45;&#45;25 -->
<g id="edge26" class="edge"><title>anon_2_25_0&#45;&#45;25</title>
<path fill="none" stroke="black" d="M392.911,-305.659C400.153,-301.866 420.092,-291.422 427.893,-287.336"/>
</g>
<!-- anon_4_16_0&#45;&#45;16 -->
<g id="edge31" class="edge"><title>anon_4_16_0&#45;&#45;16</title>
<path fill="none" stroke="black" d="M298.709,-194.012C300.534,-186.657 305.804,-165.419 307.87,-157.095"/>
</g>
<!-- anon_31_37_1 -->
<g id="node70" class="node"><title>anon_31_37_1</title>
<ellipse fill="white" stroke="black" cx="-219.403" cy="-30.8775" rx="2.5" ry="2.5"/>
</g>
<!-- anon_31_37_0&#45;&#45;anon_31_37_1 -->
<g id="edge37" class="edge"><title>anon_31_37_0&#45;&#45;anon_31_37_1</title>
<path fill="none" stroke="black" d="M-226.658,17.4714C-225.314,8.51657 -221.073,-19.7472 -219.78,-28.3611"/>
</g>
<!-- anon_31_37_2 -->
<g id="node71" class="node"><title>anon_31_37_2</title>
<ellipse fill="white" stroke="black" cx="-199.424" cy="-78.5092" rx="2.5" ry="2.5"/>
</g>
<!-- anon_31_37_1&#45;&#45;anon_31_37_2 -->
<g id="edge38" class="edge"><title>anon_31_37_1&#45;&#45;anon_31_37_2</title>
<path fill="none" stroke="black" d="M-218.328,-33.4384C-214.827,-41.7861 -203.776,-68.1336 -200.407,-76.1634"/>
</g>
<!-- anon_31_37_3 -->
<g id="node72" class="node"><title>anon_31_37_3</title>
<ellipse fill="white" stroke="black" cx="-169.261" cy="-119.982" rx="2.5" ry="2.5"/>
</g>
<!-- anon_31_37_2&#45;&#45;anon_31_37_3 -->
<g id="edge39" class="edge"><title>anon_31_37_2&#45;&#45;anon_31_37_3</title>
<path fill="none" stroke="black" d="M-197.802,-80.739C-192.516,-88.0074 -175.832,-110.948 -170.747,-117.94"/>
</g>
<!-- anon_31_37_4 -->
<g id="node73" class="node"><title>anon_31_37_4</title>
<ellipse fill="white" stroke="black" cx="-130.781" cy="-152.887" rx="2.5" ry="2.5"/>
</g>
<!-- anon_31_37_3&#45;&#45;anon_31_37_4 -->
<g id="edge40" class="edge"><title>anon_31_37_3&#45;&#45;anon_31_37_4</title>
<path fill="none" stroke="black" d="M-167.192,-121.752C-160.573,-127.411 -139.947,-145.049 -133.052,-150.945"/>
</g>
<!-- anon_31_37_5 -->
<g id="node74" class="node"><title>anon_31_37_5</title>
<ellipse fill="white" stroke="black" cx="-85.9032" cy="-174.365" rx="2.5" ry="2.5"/>
</g>
<!-- anon_31_37_4&#45;&#45;anon_31_37_5 -->
<g id="edge41" class="edge"><title>anon_31_37_4&#45;&#45;anon_31_37_5</title>
<path fill="none" stroke="black" d="M-128.368,-154.041C-120.649,-157.736 -96.5925,-169.249 -88.5512,-173.098"/>
</g>
<!-- anon_31_37_6 -->
<g id="node75" class="node"><title>anon_31_37_6</title>
<ellipse fill="white" stroke="black" cx="-36.9311" cy="-181.952" rx="2.5" ry="2.5"/>
</g>
<!-- anon_31_37_5&#45;&#45;anon_31_37_6 -->
<g id="edge42" class="edge"><title>anon_31_37_5&#45;&#45;anon_31_37_6</title>
<path fill="none" stroke="black" d="M-83.2702,-174.773C-74.8465,-176.078 -48.5956,-180.145 -39.8207,-181.505"/>
</g>
<!-- anon_31_37_6&#45;&#45;37 -->
<g id="edge43" class="edge"><title>anon_31_37_6&#45;&#45;37</title>
<path fill="none" stroke="black" d="M-34.2774,-182.021C-25.3535,-182.252 3.95354,-183.011 20.7762,-183.447"/>
</g>
<!-- anon_31_45_0&#45;&#45;45 -->
<g id="edge46" class="edge"><title>anon_31_45_0&#45;&#45;45</title>
<path fill="none" stroke="black" d="M-236.287,157.269C-231.392,164.241 -216.332,185.687 -210.857,193.484"/>
</g>
<!-- anon_32_33_0&#45;&#45;33 -->
<g id="edge48" class="edge"><title>anon_32_33_0&#45;&#45;33</title>
<path fill="none" stroke="black" d="M-102.582,248.646C-102.826,241.108 -103.538,219.082 -103.95,206.359"/>
</g>
<!-- anon_34_36_0&#45;&#45;36 -->
<g id="edge51" class="edge"><title>anon_34_36_0&#45;&#45;36</title>
<path fill="none" stroke="black" d="M141.819,-150.608C139.346,-158.736 131.318,-185.12 128.395,-194.729"/>
</g>
<!-- anon_34_48_1 -->
<g id="node80" class="node"><title>anon_34_48_1</title>
<ellipse fill="white" stroke="black" cx="200.465" cy="-181.579" rx="2.5" ry="2.5"/>
</g>
<!-- anon_34_48_0&#45;&#45;anon_34_48_1 -->
<g id="edge54" class="edge"><title>anon_34_48_0&#45;&#45;anon_34_48_1</title>
<path fill="none" stroke="black" d="M186.121,-136.442C188.729,-144.648 196.854,-170.217 199.571,-178.764"/>
</g>
<!-- anon_34_48_1&#45;&#45;48 -->
<g id="edge55" class="edge"><title>anon_34_48_1&#45;&#45;48</title>
<path fill="none" stroke="black" d="M199.213,-183.848C194.998,-191.484 181.318,-216.272 176.335,-225.299"/>
</g>
<!-- anon_34_50_0&#45;&#45;50 -->
<g id="edge57" class="edge"><title>anon_34_50_0&#45;&#45;50</title>
<path fill="none" stroke="black" d="M189.811,-80.7125C193.025,-75.8789 200.839,-64.1243 204.546,-58.5491"/>
</g>
<!-- anon_40_59_1 -->
<g id="node83" class="node"><title>anon_40_59_1</title>
<ellipse fill="white" stroke="black" cx="382.471" cy="-4.19573" rx="2.5" ry="2.5"/>
</g>
<!-- anon_40_59_0&#45;&#45;anon_40_59_1 -->
<g id="edge70" class="edge"><title>anon_40_59_0&#45;&#45;anon_40_59_1</title>
<path fill="none" stroke="black" d="M358.733,29.3903C363.414,22.7681 376.621,4.08091 381.023,-2.14718"/>
</g>
<!-- anon_40_59_2 -->
<g id="node84" class="node"><title>anon_40_59_2</title>
<ellipse fill="white" stroke="black" cx="405.06" cy="-40.4218" rx="2.5" ry="2.5"/>
</g>
<!-- anon_40_59_1&#45;&#45;anon_40_59_2 -->
<g id="edge71" class="edge"><title>anon_40_59_1&#45;&#45;anon_40_59_2</title>
<path fill="none" stroke="black" d="M383.953,-6.57263C388.036,-13.1208 399.418,-31.374 403.543,-37.9887"/>
</g>
<!-- anon_40_59_2&#45;&#45;59 -->
<g id="edge72" class="edge"><title>anon_40_59_2&#45;&#45;59</title>
<path fill="none" stroke="black" d="M405.899,-43.1292C408.121,-50.3011 414.162,-69.7996 416.699,-77.987"/>
</g>
<!-- anon_33_34_1 -->
<g id="node86" class="node"><title>anon_33_34_1</title>
<ellipse fill="white" stroke="black" cx="9.68227" cy="180.559" rx="2.5" ry="2.5"/>
</g>
<!-- anon_33_34_0&#45;&#45;anon_33_34_1 -->
<g id="edge80" class="edge"><title>anon_33_34_0&#45;&#45;anon_33_34_1</title>
<path fill="none" stroke="black" stroke-dasharray="5,2" d="M-38.3922,193.298C-29.879,191.043 -1.50693,183.524 7.1515,181.23"/>
</g>
<!-- anon_33_34_2 -->
<g id="node87" class="node"><title>anon_33_34_2</title>
<ellipse fill="white" stroke="black" cx="54.7288" cy="154.352" rx="2.5" ry="2.5"/>
</g>
<!-- anon_33_34_1&#45;&#45;anon_33_34_2 -->
<g id="edge81" class="edge"><title>anon_33_34_1&#45;&#45;anon_33_34_2</title>
<path fill="none" stroke="black" stroke-dasharray="5,2" d="M11.855,179.295C19.4472,174.878 44.75,160.158 52.4718,155.665"/>
</g>
<!-- anon_33_34_3 -->
<g id="node88" class="node"><title>anon_33_34_3</title>
<ellipse fill="white" stroke="black" cx="92.0465" cy="118.215" rx="2.5" ry="2.5"/>
</g>
<!-- anon_33_34_2&#45;&#45;anon_33_34_3 -->
<g id="edge82" class="edge"><title>anon_33_34_2&#45;&#45;anon_33_34_3</title>
<path fill="none" stroke="black" stroke-dasharray="5,2" d="M56.7352,152.409C63.2753,146.076 83.9176,126.087 90.2087,119.995"/>
</g>
<!-- anon_33_34_4 -->
<g id="node89" class="node"><title>anon_33_34_4</title>
<ellipse fill="white" stroke="black" cx="119.714" cy="74.6672" rx="2.5" ry="2.5"/>
</g>
<!-- anon_33_34_3&#45;&#45;anon_33_34_4 -->
<g id="edge83" class="edge"><title>anon_33_34_3&#45;&#45;anon_33_34_4</title>
<path fill="none" stroke="black" stroke-dasharray="5,2" d="M93.5341,115.874C98.383,108.242 113.688,84.1533 118.352,76.8119"/>
</g>
<!-- anon_33_34_5 -->
<g id="node90" class="node"><title>anon_33_34_5</title>
<ellipse fill="white" stroke="black" cx="135.154" cy="25.9011" rx="2.5" ry="2.5"/>
</g>
<!-- anon_33_34_4&#45;&#45;anon_33_34_5 -->
<g id="edge84" class="edge"><title>anon_33_34_4&#45;&#45;anon_33_34_5</title>
<path fill="none" stroke="black" stroke-dasharray="5,2" d="M120.545,72.0453C123.25,63.4988 131.791,36.5238 134.394,28.3028"/>
</g>
<!-- anon_33_34_6 -->
<g id="node91" class="node"><title>anon_33_34_6</title>
<ellipse fill="white" stroke="black" cx="136.192" cy="-25.6626" rx="2.5" ry="2.5"/>
</g>
<!-- anon_33_34_5&#45;&#45;anon_33_34_6 -->
<g id="edge85" class="edge"><title>anon_33_34_5&#45;&#45;anon_33_34_6</title>
<path fill="none" stroke="black" stroke-dasharray="5,2" d="M135.21,23.1288C135.392,14.092 135.966,-14.4305 136.141,-23.1231"/>
</g>
<!-- anon_33_34_6&#45;&#45;34 -->
<g id="edge86" class="edge"><title>anon_33_34_6&#45;&#45;34</title>
<path fill="none" stroke="black" stroke-dasharray="5,2" d="M136.091,-28.2906C135.739,-37.4739 134.55,-68.4531 133.926,-84.7083"/>
</g>
<!-- anon_33_45_0&#45;&#45;45 -->
<g id="edge88" class="edge"><title>anon_33_45_0&#45;&#45;45</title>
<path fill="none" stroke="black" stroke-dasharray="5,2" d="M-163.074,212.243C-171.236,209.409 -196.348,200.692 -205.478,197.523"/>
</g>
<!-- anon_36_37_0&#45;&#45;37 -->
<g id="edge90" class="edge"><title>anon_36_37_0&#45;&#45;37</title>
<path fill="none" stroke="black" stroke-dasharray="5,2" d="M75.1487,-204.349C69.3578,-201.524 54.3174,-194.189 43.8515,-189.084"/>
</g>
<!-- anon_36_48_1 -->
<g id="node95" class="node"><title>anon_36_48_1</title>
<ellipse fill="white" stroke="black" cx="190.708" cy="-267.096" rx="2.5" ry="2.5"/>
</g>
<!-- anon_36_48_0&#45;&#45;anon_36_48_1 -->
<g id="edge92" class="edge"><title>anon_36_48_0&#45;&#45;anon_36_48_1</title>
<path fill="none" stroke="black" stroke-dasharray="5,2" d="M154.604,-248.483C161.588,-252.084 181.057,-262.121 188.113,-265.758"/>
</g>
<!-- anon_36_48_1&#45;&#45;48 -->
<g id="edge93" class="edge"><title>anon_36_48_1&#45;&#45;48</title>
<path fill="none" stroke="black" stroke-dasharray="5,2" d="M189.644,-264.572C186.827,-257.886 179.168,-239.707 175.952,-232.074"/>
</g>
<!-- anon_37_48_1 -->
<g id="node97" class="node"><title>anon_37_48_1</title>
<ellipse fill="white" stroke="black" cx="115.247" cy="-254.228" rx="2.5" ry="2.5"/>
</g>
<!-- anon_37_48_0&#45;&#45;anon_37_48_1 -->
<g id="edge95" class="edge"><title>anon_37_48_0&#45;&#45;anon_37_48_1</title>
<path fill="none" stroke="black" stroke-dasharray="5,2" d="M69.1321,-239.524C77.6732,-242.247 104.631,-250.843 112.847,-253.462"/>
</g>
<!-- anon_37_48_1&#45;&#45;48 -->
<g id="edge96" class="edge"><title>anon_37_48_1&#45;&#45;48</title>
<path fill="none" stroke="black" stroke-dasharray="5,2" d="M117.793,-253.127C127.274,-249.031 160.53,-234.662 171.187,-230.057"/>
</g>
<!-- anon_44_46_1 -->
<g id="node99" class="node"><title>anon_44_46_1</title>
<ellipse fill="white" stroke="black" cx="-104.384" cy="82.1777" rx="2.5" ry="2.5"/>
</g>
<!-- anon_44_46_0&#45;&#45;anon_44_46_1 -->
<g id="edge99" class="edge"><title>anon_44_46_0&#45;&#45;anon_44_46_1</title>
<path fill="none" stroke="black" stroke-dasharray="5,2" d="M-128.51,109.884C-123.843,104.524 -110.833,89.5835 -106.119,84.1693"/>
</g>
<!-- anon_44_46_2 -->
<g id="node100" class="node"><title>anon_44_46_2</title>
<ellipse fill="white" stroke="black" cx="-73.7725" cy="55.5309" rx="2.5" ry="2.5"/>
</g>
<!-- anon_44_46_1&#45;&#45;anon_44_46_2 -->
<g id="edge100" class="edge"><title>anon_44_46_1&#45;&#45;anon_44_46_2</title>
<path fill="none" stroke="black" stroke-dasharray="5,2" d="M-102.376,80.4293C-96.8425,75.6127 -81.4181,62.1862 -75.8285,57.3206"/>
</g>
<!-- anon_44_46_3 -->
<g id="node101" class="node"><title>anon_44_46_3</title>
<ellipse fill="white" stroke="black" cx="-44.039" cy="27.1036" rx="2.5" ry="2.5"/>
</g>
<!-- anon_44_46_2&#45;&#45;anon_44_46_3 -->
<g id="edge101" class="edge"><title>anon_44_46_2&#45;&#45;anon_44_46_3</title>
<path fill="none" stroke="black" stroke-dasharray="5,2" d="M-71.8216,53.6657C-66.447,48.5272 -51.4653,34.2036 -46.0361,29.013"/>
</g>
<!-- anon_44_46_4 -->
<g id="node102" class="node"><title>anon_44_46_4</title>
<ellipse fill="white" stroke="black" cx="-18.2622" cy="-5.36694" rx="2.5" ry="2.5"/>
</g>
<!-- anon_44_46_3&#45;&#45;anon_44_46_4 -->
<g id="edge102" class="edge"><title>anon_44_46_3&#45;&#45;anon_44_46_4</title>
<path fill="none" stroke="black" stroke-dasharray="5,2" d="M-42.3477,24.9731C-37.6883,19.1038 -24.7003,2.74293 -19.9935,-3.18604"/>
</g>
<!-- anon_44_46_5 -->
<g id="node103" class="node"><title>anon_44_46_5</title>
<ellipse fill="white" stroke="black" cx="8.22541" cy="-37.9117" rx="2.5" ry="2.5"/>
</g>
<!-- anon_44_46_4&#45;&#45;anon_44_46_5 -->
<g id="edge103" class="edge"><title>anon_44_46_4&#45;&#45;anon_44_46_5</title>
<path fill="none" stroke="black" stroke-dasharray="5,2" d="M-16.5243,-7.5023C-11.7364,-13.3851 1.60984,-29.7833 6.44635,-35.7258"/>
</g>
<!-- anon_44_46_6 -->
<g id="node104" class="node"><title>anon_44_46_6</title>
<ellipse fill="white" stroke="black" cx="36.9623" cy="-69.8323" rx="2.5" ry="2.5"/>
</g>
<!-- anon_44_46_5&#45;&#45;anon_44_46_6 -->
<g id="edge104" class="edge"><title>anon_44_46_5&#45;&#45;anon_44_46_6</title>
<path fill="none" stroke="black" stroke-dasharray="5,2" d="M10.1109,-40.0061C15.3054,-45.7761 29.7849,-61.8598 35.0321,-67.6883"/>
</g>
<!-- anon_44_46_6&#45;&#45;46 -->
<g id="edge105" class="edge"><title>anon_44_46_6&#45;&#45;46</title>
<path fill="none" stroke="black" stroke-dasharray="5,2" d="M38.4545,-72.0583C42.7334,-78.4411 55.128,-96.93 61.2345,-106.039"/>
</g>
<!-- anon_49_50_0&#45;&#45;50 -->
<g id="edge108" class="edge"><title>anon_49_50_0&#45;&#45;50</title>
<path fill="none" stroke="black" stroke-dasharray="5,2" d="M155.826,-68.4053C164.561,-66.1867 193.105,-58.9366 203.081,-56.4027"/>
</g>
</g>
</svg>
