<?xml version="1.0" encoding="UTF-8" standalone="no"?>
<!DOCTYPE svg PUBLIC "-//W3C//DTD SVG 1.1//EN"
 "http://www.w3.org/Graphics/SVG/1.1/DTD/svg11.dtd">
<!-- Generated by graphviz version 2.38.0 (20140413.2041)
 -->
<!-- Title: %3 Pages: 1 -->
<svg width="377pt" height="403pt"
 viewBox="0.00 0.00 376.63 403.12" xmlns="http://www.w3.org/2000/svg" xmlns:xlink="http://www.w3.org/1999/xlink">
<g id="graph0" class="graph" transform="scale(1 1) rotate(0) translate(120.011 154.877)">
<title>%3</title>
<polygon fill="white" stroke="none" points="-120.011,248.248 -120.011,-154.877 256.619,-154.877 256.619,248.248 -120.011,248.248"/>
<!-- 0 -->
<g id="node1" class="node"><title>0</title>
<path fill="olivedrab" stroke="black" stroke-width="0.5" d="M-0.454721,-76.2617C-0.454721,-76.2617 11.5453,-76.2617 11.5453,-76.2617 11.5453,-76.6902 11.5223,-77.1184 11.4765,-77.5444 11.4307,-77.9705 11.3621,-78.3937 11.271,-78.8125 11.18,-79.2312 11.0665,-79.6447 10.9312,-80.0513 10.7959,-80.4578 10.6389,-80.8569 10.4609,-81.2467 10.2829,-81.6364 10.0841,-82.0164 9.86545,-82.3849 9.6468,-82.7534 9.40856,-83.11 9.15177,-83.453 8.89498,-83.796 8.62,-84.1251 8.32801,-84.4387 8.03602,-84.7523 7.72745,-85.0501 7.40361,-85.3307 7.07977,-85.6113 6.74113,-85.8743 6.38915,-86.1187 6.03717,-86.3631 5.67235,-86.5885 5.29627,-86.7938 4.92018,-86.9992 4.53336,-87.1842 4.13748,-87.3482 3.7416,-87.5122 3.33721,-87.6549 2.92607,-87.7756 2.51492,-87.8963 2.09761,-87.9949 1.67592,-88.071 1.25422,-88.1471 0.828758,-88.2005 0.401348,-88.2311 -0.0260612,-88.2617 -0.454802,-88.2693 -0.88303,-88.254 -1.31126,-88.2387 -1.73836,-88.2005 -2.1625,-88.1395 -2.1625,-88.1395 -0.454721,-76.2617 -0.454721,-76.2617"/>
<path fill="#1874cd" stroke="black" stroke-width="0.5" d="M-0.454721,-76.2617C-0.454721,-76.2617 -2.1625,-88.1395 -2.1625,-88.1395 -2.72812,-88.0582 -3.28722,-87.9366 -3.83551,-87.7756 -4.38381,-87.6146 -4.9199,-87.4146 -5.4397,-87.1773 -5.9595,-86.9399 -6.46168,-86.6657 -6.94241,-86.3567 -7.42314,-86.0478 -7.88118,-85.7049 -8.31305,-85.3307 -8.74492,-84.9565 -9.1495,-84.5519 -9.52372,-84.12 -9.89793,-83.6881 -10.2408,-83.2301 -10.5498,-82.7494 -10.8587,-82.2686 -11.1329,-81.7665 -11.3703,-81.2467 -11.6077,-80.7268 -11.8076,-80.1908 -11.9686,-79.6425 -12.1296,-79.0942 -12.2513,-78.5351 -12.3326,-77.9694 -12.4139,-77.4038 -12.4547,-76.8331 -12.4547,-76.2617 -12.4547,-75.6902 -12.4139,-75.1195 -12.3326,-74.5539 -12.2513,-73.9883 -12.1296,-73.4292 -11.9686,-72.8809 -11.8076,-72.3326 -11.6077,-71.7965 -11.3703,-71.2767 -11.1329,-70.7569 -10.8587,-70.2547 -10.5498,-69.774 -10.2408,-69.2933 -9.89793,-68.8352 -9.52372,-68.4033 -9.1495,-67.9715 -8.74492,-67.5669 -8.31305,-67.1927 -7.88118,-66.8185 -7.42314,-66.4756 -6.94241,-66.1666 -6.46168,-65.8577 -5.9595,-65.5835 -5.4397,-65.3461 -4.9199,-65.1087 -4.38381,-64.9087 -3.83551,-64.7478 -3.28722,-64.5868 -2.72812,-64.4651 -2.1625,-64.3838 -1.59687,-64.3025 -1.02616,-64.2617 -0.454721,-64.2617 0.11672,-64.2617 0.687432,-64.3025 1.25306,-64.3838 1.81868,-64.4651 2.37778,-64.5868 2.92607,-64.7478 3.47436,-64.9087 4.01046,-65.1087 4.53026,-65.3461 5.05006,-65.5835 5.55224,-65.8577 6.03297,-66.1666 6.5137,-66.4756 6.97174,-66.8185 7.40361,-67.1927 7.83547,-67.5669 8.24006,-67.9715 8.61427,-68.4033 8.98849,-68.8352 9.33138,-69.2933 9.64032,-69.774 9.94927,-70.2547 10.2235,-70.7569 10.4609,-71.2767 10.6982,-71.7965 10.8982,-72.3326 11.0592,-72.8809 11.2202,-73.4292 11.3418,-73.9883 11.4231,-74.5539 11.5045,-75.1195 11.5453,-75.6902 11.5453,-76.2617 11.5453,-76.2617 -0.454721,-76.2617 -0.454721,-76.2617"/>
<ellipse fill="none" stroke="black" cx="-0.454721" cy="-76.2617" rx="12" ry="12"/>
</g>
<!-- 1 -->
<g id="node2" class="node"><title>1</title>
<path fill="olivedrab" stroke="black" stroke-width="0.5" d="M21.8634,-17.6321C21.8634,-17.6321 35.8634,-17.6321 35.8634,-17.6321 35.8634,-18.1209 35.8378,-18.6094 35.7867,-19.0955 35.7356,-19.5816 35.6591,-20.0647 35.5575,-20.5429 35.4559,-21.021 35.3293,-21.4934 35.1782,-21.9583 35.0272,-22.4232 34.8519,-22.8799 34.6531,-23.3264 34.4542,-23.7729 34.2322,-24.2088 33.9878,-24.6321 33.7434,-25.0554 33.477,-25.4656 33.1897,-25.8611 32.9023,-26.2565 32.5945,-26.6367 32.2675,-26.9999 31.9404,-27.3632 31.5945,-27.709 31.2313,-28.0361 30.868,-28.3632 30.4879,-28.671 30.0924,-28.9583 29.697,-29.2456 29.2867,-29.512 28.8634,-29.7564 28.4401,-30.0008 28.0043,-30.2229 27.5577,-30.4217 27.1112,-30.6205 26.6545,-30.7958 26.1897,-30.9469 25.7248,-31.0979 25.2523,-31.2245 24.7742,-31.3262 24.2961,-31.4278 23.8129,-31.5043 23.3268,-31.5554 22.8407,-31.6065 22.3522,-31.6321 21.8634,-31.6321 21.3746,-31.6321 20.8862,-31.6065 20.4,-31.5554 19.9139,-31.5043 19.4308,-31.4278 18.9527,-31.3262 18.4745,-31.2245 18.0021,-31.0979 17.5372,-30.9469 17.0723,-30.7958 16.6157,-30.6205 16.1691,-30.4217 15.7226,-30.2229 15.2867,-30.0008 14.8634,-29.7564 14.4401,-29.512 14.0299,-29.2456 13.6344,-28.9583 13.239,-28.671 12.8588,-28.3632 12.4956,-28.0361 12.1323,-27.709 11.7865,-27.3632 11.4594,-26.9999 11.1323,-26.6367 10.8245,-26.2565 10.5372,-25.8611 10.2499,-25.4656 9.98347,-25.0554 9.73907,-24.6321 9.49467,-24.2088 9.2726,-23.7729 9.07379,-23.3264 8.87497,-22.8799 8.69968,-22.4232 8.54863,-21.9583 8.39758,-21.4934 8.27098,-21.021 8.16936,-20.5429 8.06773,-20.0647 7.99121,-19.5816 7.94012,-19.0955 7.88902,-18.6094 7.86342,-18.1209 7.86342,-17.6321 7.86342,-17.1433 7.88902,-16.6548 7.94012,-16.1687 7.99121,-15.6826 8.06773,-15.1994 8.16936,-14.7213 8.16936,-14.7213 21.8634,-17.6321 21.8634,-17.6321"/>
<path fill="#1874cd" stroke="black" stroke-width="0.5" d="M21.8634,-17.6321C21.8634,-17.6321 8.16936,-14.7213 8.16936,-14.7213 8.34729,-13.8842 8.60161,-13.0652 8.92911,-12.2745 9.25662,-11.4839 9.65593,-10.7249 10.122,-10.0071 10.5881,-9.2894 11.1191,-8.61591 11.7082,-7.99513 12.2973,-7.37434 12.9421,-6.80888 13.6344,-6.30585 14.3268,-5.80282 15.0638,-5.36433 15.8363,-4.9959 16.6087,-4.62746 17.4133,-4.33063 18.24,-4.10913 19.0666,-3.88763 19.9118,-3.74239 20.765,-3.67525 21.6182,-3.6081 22.4757,-3.61933 23.3268,-3.70878 24.1779,-3.79824 25.0191,-3.96555 25.8396,-4.20861 26.6602,-4.45168 27.4568,-4.76947 28.2193,-5.158 28.9818,-5.54653 29.7071,-6.00416 30.3861,-6.52514 31.065,-7.04613 31.6948,-7.62827 32.2675,-8.26426 32.8401,-8.90025 33.3532,-9.58741 33.8004,-10.3171 34.2475,-11.0468 34.6269,-11.816 34.9335,-12.6149 35.2402,-13.4139 35.473,-14.2393 35.629,-15.0808 35.785,-15.9223 35.8634,-16.7763 35.8634,-17.6321 35.8634,-17.6321 21.8634,-17.6321 21.8634,-17.6321"/>
<ellipse fill="none" stroke="black" cx="21.8634" cy="-17.6321" rx="14" ry="14"/>
</g>
<!-- 0&#45;&#45;1 -->
<g id="edge1" class="edge"><title>0&#45;&#45;1</title>
<path fill="none" stroke="black" d="M3.84844,-64.9573C7.54714,-55.2408 12.8865,-41.2144 16.7921,-30.9544"/>
</g>
<!-- 8 -->
<g id="node9" class="node"><title>8</title>
<ellipse fill="olivedrab" stroke="black" cx="-19.8437" cy="-124.348" rx="3.5" ry="3.5"/>
</g>
<!-- 0&#45;&#45;8 -->
<g id="edge2" class="edge"><title>0&#45;&#45;8</title>
<path fill="none" stroke="black" d="M-4.95167,-87.4145C-9.33694,-98.2903 -15.7367,-114.162 -18.4957,-121.005"/>
</g>
<!-- 2 -->
<g id="node3" class="node"><title>2</title>
<ellipse fill="#1874cd" stroke="black" cx="56.9231" cy="-63.292" rx="6" ry="6"/>
</g>
<!-- 1&#45;&#45;2 -->
<g id="edge3" class="edge"><title>1&#45;&#45;2</title>
<path fill="none" stroke="black" d="M30.7105,-29.154C37.8509,-38.4534 47.5628,-51.1017 52.9355,-58.0987"/>
</g>
<!-- 5 -->
<g id="node6" class="node"><title>5</title>
<ellipse fill="olivedrab" stroke="black" cx="74.1835" cy="-5.86712" rx="3.5" ry="3.5"/>
</g>
<!-- 1&#45;&#45;5 -->
<g id="edge7" class="edge"><title>1&#45;&#45;5</title>
<path fill="none" stroke="black" d="M35.6099,-14.541C47.2361,-11.9267 63.1206,-8.35478 70.3363,-6.73223"/>
</g>
<!-- 6 -->
<g id="node7" class="node"><title>6</title>
<ellipse fill="olivedrab" stroke="black" cx="-28.6786" cy="0.768127" rx="3.5" ry="3.5"/>
</g>
<!-- 1&#45;&#45;6 -->
<g id="edge8" class="edge"><title>1&#45;&#45;6</title>
<path fill="none" stroke="black" d="M8.58411,-12.7977C-2.8809,-8.62372 -18.6328,-2.88911 -25.3867,-0.430294"/>
</g>
<!-- 7 -->
<g id="node8" class="node"><title>7</title>
<ellipse fill="olivedrab" stroke="black" cx="-12.8212" cy="23.5028" rx="3.5" ry="3.5"/>
</g>
<!-- 1&#45;&#45;7 -->
<g id="edge9" class="edge"><title>1&#45;&#45;7</title>
<path fill="none" stroke="black" d="M12.7504,-6.82439C4.88253,2.5067 -5.92727,15.3268 -10.5622,20.8236"/>
</g>
<!-- 9 -->
<g id="node10" class="node"><title>9</title>
<ellipse fill="olivedrab" stroke="black" cx="71.7312" cy="-37.4005" rx="3.5" ry="3.5"/>
</g>
<!-- 1&#45;&#45;9 -->
<g id="edge10" class="edge"><title>1&#45;&#45;9</title>
<path fill="none" stroke="black" d="M34.9656,-22.826C46.0468,-27.2188 61.1869,-33.2205 68.0643,-35.9468"/>
</g>
<!-- anon_1_3_0 -->
<g id="node18" class="node"><title>anon_1_3_0</title>
<ellipse fill="white" stroke="black" cx="-29.2931" cy="-32.7089" rx="2.5" ry="2.5"/>
</g>
<!-- 1&#45;&#45;anon_1_3_0 -->
<g id="edge4" class="edge"><title>1&#45;&#45;anon_1_3_0</title>
<path fill="none" stroke="black" d="M8.42264,-21.5934C-3.65544,-25.153 -20.434,-30.098 -26.7519,-31.96"/>
</g>
<!-- anon_1_16_0 -->
<g id="node20" class="node"><title>anon_1_16_0</title>
<ellipse fill="white" stroke="black" cx="40.103" cy="33.2912" rx="2.5" ry="2.5"/>
</g>
<!-- 1&#45;&#45;anon_1_16_0 -->
<g id="edge11" class="edge"><title>1&#45;&#45;anon_1_16_0</title>
<path fill="none" stroke="black" d="M26.6557,-4.25259C30.962,7.77041 36.9443,24.4724 39.1969,30.7616"/>
</g>
<!-- anon_2_4_0 -->
<g id="node23" class="node"><title>anon_2_4_0</title>
<ellipse fill="white" stroke="black" cx="88.5625" cy="-95.8749" rx="2.5" ry="2.5"/>
</g>
<!-- 2&#45;&#45;anon_2_4_0 -->
<g id="edge15" class="edge"><title>2&#45;&#45;anon_2_4_0</title>
<path fill="none" stroke="black" d="M61.3224,-67.8225C68.386,-75.0967 81.954,-89.0693 86.7936,-94.0533"/>
</g>
<!-- 3 -->
<g id="node4" class="node"><title>3</title>
<ellipse fill="#1874cd" stroke="black" cx="-112.511" cy="-39.5382" rx="3.5" ry="3.5"/>
</g>
<!-- 4 -->
<g id="node5" class="node"><title>4</title>
<ellipse fill="#1874cd" stroke="black" cx="154.27" cy="-147.377" rx="3.5" ry="3.5"/>
</g>
<!-- 10 -->
<g id="node11" class="node"><title>10</title>
<ellipse fill="#1874cd" stroke="black" cx="192.36" cy="162.786" rx="21.5" ry="21.5"/>
</g>
<!-- 14 -->
<g id="node15" class="node"><title>14</title>
<ellipse fill="#1874cd" stroke="black" cx="249.119" cy="140.002" rx="3.5" ry="3.5"/>
</g>
<!-- 10&#45;&#45;14 -->
<g id="edge18" class="edge"><title>10&#45;&#45;14</title>
<path fill="none" stroke="black" d="M212.531,154.689C224.767,149.778 239.23,143.972 245.696,141.376"/>
</g>
<!-- 15 -->
<g id="node16" class="node"><title>15</title>
<ellipse fill="#1874cd" stroke="black" cx="233.904" cy="207.405" rx="3.5" ry="3.5"/>
</g>
<!-- 10&#45;&#45;15 -->
<g id="edge19" class="edge"><title>10&#45;&#45;15</title>
<path fill="none" stroke="black" d="M207.358,178.895C216.283,188.48 226.753,199.724 231.43,204.747"/>
</g>
<!-- anon_10_16_0 -->
<g id="node25" class="node"><title>anon_10_16_0</title>
<ellipse fill="white" stroke="black" cx="132.365" cy="155.842" rx="2.5" ry="2.5"/>
</g>
<!-- 10&#45;&#45;anon_10_16_0 -->
<g id="edge20" class="edge"><title>10&#45;&#45;anon_10_16_0</title>
<path fill="none" stroke="black" d="M170.7,160.279C157.275,158.725 141.428,156.891 135.138,156.163"/>
</g>
<!-- 11 -->
<g id="node12" class="node"><title>11</title>
<ellipse fill="#1874cd" stroke="black" cx="84.7776" cy="194.564" rx="9" ry="9"/>
</g>
<!-- 13 -->
<g id="node14" class="node"><title>13</title>
<ellipse fill="#1874cd" stroke="black" cx="69.5074" cy="240.748" rx="3.5" ry="3.5"/>
</g>
<!-- 11&#45;&#45;13 -->
<g id="edge22" class="edge"><title>11&#45;&#45;13</title>
<path fill="none" stroke="black" d="M81.8333,203.469C78.436,213.744 73.0156,230.138 70.6614,237.258"/>
</g>
<!-- 16 -->
<g id="node17" class="node"><title>16</title>
<ellipse fill="white" stroke="black" cx="91.7736" cy="147.324" rx="2.5" ry="2.5"/>
</g>
<!-- 11&#45;&#45;16 -->
<g id="edge23" class="edge"><title>11&#45;&#45;16</title>
<path fill="none" stroke="black" d="M86.1265,185.456C87.7465,174.517 90.3706,156.798 91.3698,150.051"/>
</g>
<!-- 12 -->
<g id="node13" class="node"><title>12</title>
<ellipse fill="#1874cd" stroke="black" cx="54.1074" cy="176.3" rx="9" ry="9"/>
</g>
<!-- 12&#45;&#45;16 -->
<g id="edge24" class="edge"><title>12&#45;&#45;16</title>
<path fill="none" stroke="black" d="M61.3698,170.714C70.0919,164.004 84.2198,153.135 89.5994,148.997"/>
</g>
<!-- anon_1_3_1 -->
<g id="node19" class="node"><title>anon_1_3_1</title>
<ellipse fill="white" stroke="black" cx="-70.2395" cy="-38.723" rx="2.5" ry="2.5"/>
</g>
<!-- anon_1_3_0&#45;&#45;anon_1_3_1 -->
<g id="edge5" class="edge"><title>anon_1_3_0&#45;&#45;anon_1_3_1</title>
<path fill="none" stroke="black" d="M-31.9797,-33.1035C-39.3812,-34.1906 -60.0127,-37.2209 -67.4893,-38.3191"/>
</g>
<!-- anon_1_3_1&#45;&#45;3 -->
<g id="edge6" class="edge"><title>anon_1_3_1&#45;&#45;3</title>
<path fill="none" stroke="black" d="M-72.7572,-38.7716C-79.8669,-38.9087 -100.132,-39.2994 -108.657,-39.4638"/>
</g>
<!-- anon_1_16_1 -->
<g id="node21" class="node"><title>anon_1_16_1</title>
<ellipse fill="white" stroke="black" cx="55.75" cy="72.119" rx="2.5" ry="2.5"/>
</g>
<!-- anon_1_16_0&#45;&#45;anon_1_16_1 -->
<g id="edge12" class="edge"><title>anon_1_16_0&#45;&#45;anon_1_16_1</title>
<path fill="none" stroke="black" d="M41.1297,35.8388C43.958,42.8573 51.842,62.4213 54.699,69.5111"/>
</g>
<!-- anon_1_16_2 -->
<g id="node22" class="node"><title>anon_1_16_2</title>
<ellipse fill="white" stroke="black" cx="73.391" cy="109.93" rx="2.5" ry="2.5"/>
</g>
<!-- anon_1_16_1&#45;&#45;anon_1_16_2 -->
<g id="edge13" class="edge"><title>anon_1_16_1&#45;&#45;anon_1_16_2</title>
<path fill="none" stroke="black" d="M56.9075,74.5999C60.0962,81.4346 68.985,100.486 72.2061,107.39"/>
</g>
<!-- anon_1_16_2&#45;&#45;16 -->
<g id="edge14" class="edge"><title>anon_1_16_2&#45;&#45;16</title>
<path fill="none" stroke="black" d="M74.5971,112.384C77.92,119.143 87.1823,137.985 90.5389,144.812"/>
</g>
<!-- anon_2_4_1 -->
<g id="node24" class="node"><title>anon_2_4_1</title>
<ellipse fill="white" stroke="black" cx="119.775" cy="-123" rx="2.5" ry="2.5"/>
</g>
<!-- anon_2_4_0&#45;&#45;anon_2_4_1 -->
<g id="edge16" class="edge"><title>anon_2_4_0&#45;&#45;anon_2_4_1</title>
<path fill="none" stroke="black" d="M90.6104,-97.6547C96.2524,-102.558 111.979,-116.226 117.679,-121.179"/>
</g>
<!-- anon_2_4_1&#45;&#45;4 -->
<g id="edge17" class="edge"><title>anon_2_4_1&#45;&#45;4</title>
<path fill="none" stroke="black" d="M122.038,-124.6C128.034,-128.837 144.334,-140.355 151.178,-145.192"/>
</g>
<!-- anon_10_16_0&#45;&#45;16 -->
<g id="edge21" class="edge"><title>anon_10_16_0&#45;&#45;16</title>
<path fill="none" stroke="black" d="M129.702,155.283C122.364,153.743 101.912,149.451 94.4999,147.896"/>
</g>
</g>
</svg>
