<?xml version="1.0" encoding="UTF-8" standalone="no"?>
<!DOCTYPE svg PUBLIC "-//W3C//DTD SVG 1.1//EN"
 "http://www.w3.org/Graphics/SVG/1.1/DTD/svg11.dtd">
<!-- Generated by graphviz version 2.38.0 (20140413.2041)
 -->
<!-- Title: %3 Pages: 1 -->
<svg width="208pt" height="274pt"
 viewBox="0.00 0.00 208.39 274.10" xmlns="http://www.w3.org/2000/svg" xmlns:xlink="http://www.w3.org/1999/xlink">
<g id="graph0" class="graph" transform="scale(1 1) rotate(0) translate(114.63 146.039)">
<title>%3</title>
<polygon fill="white" stroke="none" points="-114.63,128.065 -114.63,-146.039 93.7595,-146.039 93.7595,128.065 -114.63,128.065"/>
<!-- 0 -->
<g id="node1" class="node"><title>0</title>
<path fill="palegreen" stroke="black" stroke-width="0.5" d="M6.85306,-3.37593C6.85306,-3.37593 35.8531,-3.37593 35.8531,-3.37593 35.8531,-4.54431 35.7825,-5.71163 35.6416,-6.87149 35.5008,-8.03136 35.29,-9.18165 35.0104,-10.3161 34.7308,-11.4505 34.3829,-12.567 33.9685,-13.6595 33.5542,-14.7519 33.0743,-15.8183 32.5313,-16.8529 31.9883,-17.8875 31.3833,-18.8882 30.7196,-19.8498 30.0559,-20.8114 29.3347,-21.7319 28.5599,-22.6065 27.7851,-23.481 26.9582,-24.308 26.0836,-25.0827 25.2091,-25.8575 24.2885,-26.5787 23.3269,-27.2425 22.3654,-27.9062 21.3646,-28.5112 20.33,-29.0542 19.2955,-29.5971 18.2291,-30.0771 17.1366,-30.4914 16.0441,-30.9057 14.9276,-31.2536 13.7932,-31.5332 12.6588,-31.8129 11.5085,-32.0237 10.3486,-32.1645 9.18876,-32.3053 8.02145,-32.3759 6.85306,-32.3759 5.68468,-32.3759 4.51736,-32.3053 3.3575,-32.1645 2.19764,-32.0237 1.04734,-31.8129 -0.0870912,-31.5332 -1.22152,-31.2536 -2.33802,-30.9057 -3.43048,-30.4914 -4.52294,-30.0771 -5.58936,-29.5971 -6.62391,-29.0542 -7.65846,-28.5112 -8.65925,-27.9062 -9.62081,-27.2425 -10.5824,-26.5787 -11.5029,-25.8575 -12.3775,-25.0827 -13.252,-24.308 -14.079,-23.481 -14.8537,-22.6065 -15.6285,-21.7319 -16.3498,-20.8114 -17.0135,-19.8498 -17.6772,-18.8882 -18.2822,-17.8875 -18.8252,-16.8529 -19.3681,-15.8183 -19.8481,-14.7519 -20.2624,-13.6595 -20.6767,-12.567 -21.0246,-11.4505 -21.3042,-10.3161 -21.5839,-9.18165 -21.7947,-8.03135 -21.9355,-6.87149 -22.0763,-5.71163 -22.1469,-4.54431 -22.1469,-3.37593 -22.1469,-2.20754 -22.0763,-1.04023 -21.9355,0.119638 -21.7947,1.2795 -21.5839,2.4298 -21.3042,3.56423 -21.0246,4.69866 -20.6767,5.81516 -20.2624,6.90762 -19.8481,8.00007 -19.3681,9.06649 -18.8252,10.101 -18.2822,11.1356 -17.6772,12.1364 -17.0135,13.098 -16.3497,14.0595 -15.6285,14.9801 -14.8537,15.8546 -14.8537,15.8546 6.85306,-3.37593 6.85306,-3.37593"/>
<path fill="#787878" stroke="black" stroke-width="0.5" d="M6.85306,-3.37593C6.85306,-3.37593 -14.8537,15.8546 -14.8537,15.8546 -13.8851,16.948 -12.8352,17.9666 -11.7131,18.9018 -10.591,19.837 -9.39979,20.686 -8.14973,21.4417 -6.89966,22.1974 -5.59429,22.8576 -4.24475,23.4166 -2.89521,23.9756 -1.50537,24.4318 -0.0870863,24.7814 1.3312,25.131 2.77387,25.3729 4.2286,25.5051 5.68333,25.6373 7.14598,25.6594 8.60404,25.5712 10.0621,25.483 11.5114,25.2847 12.9396,24.9782 14.3678,24.6716 15.7708,24.2575 17.1366,23.7395 18.5024,23.2216 19.8271,22.6011 21.0995,21.8835 22.3718,21.1659 23.5881,20.3532 24.7379,19.4524 25.8878,18.5515 26.9679,17.5651 27.9692,16.5015 28.9704,15.4378 29.8898,14.3001 30.7196,13.0979 31.5494,11.8958 32.2872,10.6327 32.9266,9.31933 33.5661,8.00601 34.1054,6.64625 34.54,5.25166 34.9745,3.85707 35.3031,2.43164 35.5229,0.987541 35.7427,-0.456558 35.8531,-1.9152 35.8531,-3.37593 35.8531,-3.37593 6.85306,-3.37593 6.85306,-3.37593"/>
<ellipse fill="none" stroke="black" cx="6.85306" cy="-3.37593" rx="29" ry="29"/>
</g>
<!-- 1 -->
<g id="node2" class="node"><title>1</title>
<ellipse fill="palegreen" stroke="black" cx="44.5376" cy="-90.9194" rx="9" ry="9"/>
</g>
<!-- 0&#45;&gt;1 -->
<g id="edge1" class="edge"><title>0&#45;&gt;1</title>
<path fill="none" stroke="black" d="M18.3644,-30.1175C26.0701,-48.0183 35.7138,-70.421 40.875,-82.4109"/>
</g>
<!-- 2 -->
<g id="node3" class="node"><title>2</title>
<ellipse fill="palegreen" stroke="black" cx="20.2156" cy="64.9666" rx="2.5" ry="2.5"/>
</g>
<!-- 0&#45;&gt;2 -->
<g id="edge2" class="edge"><title>0&#45;&gt;2</title>
<path fill="none" stroke="black" d="M12.4425,25.2115C15.3032,39.8424 18.4384,55.8771 19.6731,62.1922"/>
</g>
<!-- 3 -->
<g id="node4" class="node"><title>3</title>
<ellipse fill="palegreen" stroke="black" cx="-59.696" cy="-54.7279" rx="2.5" ry="2.5"/>
</g>
<!-- 0&#45;&gt;3 -->
<g id="edge3" class="edge"><title>0&#45;&gt;3</title>
<path fill="none" stroke="black" d="M-16.4226,-21.3364C-29.5834,-31.4918 -45.045,-43.4226 -53.462,-49.9175"/>
<polygon fill="black" stroke="black" points="-54.8194,-48.7545 -57.7088,-53.1945 -52.6812,-51.5254 -54.8194,-48.7545"/>
<text text-anchor="middle" x="-53.0284" y="-39.8367" font-family="monospace" font-size="8.00">F1529L</text>
</g>
<!-- 4 -->
<g id="node5" class="node"><title>4</title>
<ellipse fill="palegreen" stroke="black" cx="-16.0216" cy="-71.2927" rx="2.5" ry="2.5"/>
</g>
<!-- 0&#45;&gt;4 -->
<g id="edge4" class="edge"><title>0&#45;&gt;4</title>
<path fill="none" stroke="black" d="M-2.45094,-31.0003C-7.49753,-45.984 -13.1186,-62.6735 -15.194,-68.8354"/>
</g>
<!-- 6 -->
<g id="node7" class="node"><title>6</title>
<ellipse fill="#787878" stroke="black" cx="-56.3566" cy="69.2413" rx="8" ry="8"/>
</g>
<!-- 0&#45;&gt;6 -->
<g id="edge5" class="edge"><title>0&#45;&gt;6</title>
<path fill="none" stroke="black" d="M-12.4554,18.8062C-25.8161,34.1554 -42.6502,53.495 -51.0626,63.1594"/>
</g>
<!-- 7 -->
<g id="node8" class="node"><title>7</title>
<ellipse fill="#787878" stroke="black" cx="74.7346" cy="-31.8406" rx="2.5" ry="2.5"/>
</g>
<!-- 0&#45;&gt;7 -->
<g id="edge6" class="edge"><title>0&#45;&gt;7</title>
<path fill="none" stroke="black" d="M33.6816,-14.6259C48.8016,-20.9661 65.8931,-28.1331 72.2127,-30.7831"/>
</g>
<!-- 9 -->
<g id="node10" class="node"><title>9</title>
<ellipse fill="#787878" stroke="black" cx="65.5599" cy="55.7218" rx="2.5" ry="2.5"/>
</g>
<!-- 0&#45;&gt;9 -->
<g id="edge7" class="edge"><title>0&#45;&gt;9</title>
<path fill="none" stroke="black" d="M27.3859,17.2936C41.141,31.1403 57.7449,47.8547 63.4877,53.6359"/>
</g>
<!-- 10 -->
<g id="node11" class="node"><title>10</title>
<ellipse fill="#787878" stroke="black" cx="87.2595" cy="13.0386" rx="2.5" ry="2.5"/>
</g>
<!-- 0&#45;&gt;10 -->
<g id="edge8" class="edge"><title>0&#45;&gt;10</title>
<path fill="none" stroke="black" d="M35.4278,2.45742C54.2055,6.2908 76.6865,10.8801 84.4567,12.4664"/>
</g>
<!-- 11 -->
<g id="node12" class="node"><title>11</title>
<ellipse fill="#787878" stroke="black" cx="-66.0527" cy="-8.85673" rx="2.5" ry="2.5"/>
</g>
<!-- 0&#45;&gt;11 -->
<g id="edge9" class="edge"><title>0&#45;&gt;11</title>
<path fill="none" stroke="black" d="M-22.3804,-5.5736C-38.5434,-6.78868 -56.6789,-8.15205 -63.3796,-8.65578"/>
</g>
<!-- 5 -->
<g id="node6" class="node"><title>5</title>
<ellipse fill="palegreen" stroke="black" cx="60.0343" cy="-139.539" rx="2.5" ry="2.5"/>
</g>
<!-- 1&#45;&gt;5 -->
<g id="edge10" class="edge"><title>1&#45;&gt;5</title>
<path fill="none" stroke="black" d="M47.3799,-99.837C51.0149,-111.241 57.0969,-130.323 59.2498,-137.078"/>
</g>
<!-- 8 -->
<g id="node9" class="node"><title>8</title>
<ellipse fill="#787878" stroke="black" cx="-108.13" cy="76.0185" rx="2.5" ry="2.5"/>
</g>
<!-- 6&#45;&gt;8 -->
<g id="edge11" class="edge"><title>6&#45;&gt;8</title>
<path fill="none" stroke="black" d="M-64.4462,70.3002C-76.2773,71.8489 -97.721,74.6559 -105.347,75.6541"/>
</g>
<!-- 12 -->
<g id="node13" class="node"><title>12</title>
<ellipse fill="#787878" stroke="black" cx="-52.9375" cy="121.565" rx="2.5" ry="2.5"/>
</g>
<!-- 6&#45;&gt;12 -->
<g id="edge12" class="edge"><title>6&#45;&gt;12</title>
<path fill="none" stroke="black" d="M-55.8224,77.417C-55.0411,89.3738 -53.6249,111.046 -53.1213,118.752"/>
</g>
</g>
</svg>
