<?xml version="1.0" encoding="UTF-8" standalone="no"?>
<!DOCTYPE svg PUBLIC "-//W3C//DTD SVG 1.1//EN"
 "http://www.w3.org/Graphics/SVG/1.1/DTD/svg11.dtd">
<!-- Generated by graphviz version 2.38.0 (20140413.2041)
 -->
<!-- Title: %3 Pages: 1 -->
<svg width="438pt" height="357pt"
 viewBox="0.00 0.00 437.78 356.82" xmlns="http://www.w3.org/2000/svg" xmlns:xlink="http://www.w3.org/1999/xlink">
<g id="graph0" class="graph" transform="scale(1 1) rotate(0) translate(202.825 182.637)">
<title>%3</title>
<polygon fill="white" stroke="none" points="-202.825,174.186 -202.825,-182.637 234.958,-182.637 234.958,174.186 -202.825,174.186"/>
<!-- 0 -->
<g id="node1" class="node"><title>0</title>
<path fill="#1874cd" stroke="black" stroke-width="0.5" d="M-6.04599,-3.1206C-6.04599,-3.1206 26.454,-3.1206 26.454,-3.1206 26.454,-4.03986 26.415,-4.95871 26.3371,-5.87467 26.2592,-6.79063 26.1425,-7.70287 25.9872,-8.60893 25.832,-9.51499 25.6384,-10.4141 25.4069,-11.3037 25.1755,-12.1934 24.9064,-13.0728 24.6004,-13.9396 24.2943,-14.8064 23.9517,-15.6599 23.5733,-16.4977 23.1949,-17.3355 22.7812,-18.1568 22.3332,-18.9595 21.8852,-19.7622 21.4033,-20.5456 20.8889,-21.3074 20.3745,-22.0693 19.828,-22.809 19.2509,-23.5245 18.6737,-24.24 18.0665,-24.9307 17.4308,-25.5948 16.7952,-26.2588 16.1316,-26.8956 15.4419,-27.5034 14.7522,-28.1112 14.0371,-28.6894 13.2984,-29.2366 12.5597,-29.7837 11.7981,-30.2993 11.0157,-30.7819 10.2333,-31.2645 9.43082,-31.7137 8.61034,-32.1282 7.78986,-32.5428 6.95216,-32.9223 6.0995,-33.2659 5.24684,-33.6094 4.37998,-33.9166 3.50128,-34.1867 2.62258,-34.4567 1.73281,-34.6893 0.834382,-34.884 -0.0640459,-35.0786 -0.970326,-35.235 -1.88201,-35.3527 -2.7937,-35.4705 -3.70998,-35.5496 -4.62836,-35.5897 -5.54675,-35.6298 -6.46643,-35.6309 -7.38491,-35.593 -8.3034,-35.5551 -9.21986,-35.4783 -10.1318,-35.3627 -11.0438,-35.2472 -11.9505,-35.093 -12.8494,-34.9005 -13.7483,-34.7081 -14.6386,-34.4776 -15.5179,-34.2097 -16.3973,-33.9418 -17.2649,-33.6367 -18.1184,-33.2952 -18.9719,-32.9538 -19.8105,-32.5762 -20.632,-32.1637 -21.4535,-31.7511 -22.2571,-31.3039 -23.0406,-30.8232 -23.8242,-30.3425 -24.587,-29.8288 -25.327,-29.2834 -26.0671,-28.738 -26.7836,-28.1615 -27.4747,-27.5554 -28.1659,-26.9493 -28.831,-26.3141 -29.4683,-25.6516 -30.1056,-24.9891 -30.7145,-24.2999 -31.2933,-23.5858 -31.8722,-22.8716 -32.4205,-22.1333 -32.9367,-21.3727 -33.453,-20.6121 -33.9368,-19.8299 -34.3867,-19.0283 -34.8367,-18.2267 -35.2524,-17.4063 -35.6328,-16.5694 -36.0132,-15.7326 -36.3579,-14.88 -36.666,-14.0139 -36.9741,-13.1478 -37.2454,-12.269 -37.479,-11.3799 -37.7126,-10.4908 -37.9084,-9.59224 -38.0658,-8.68656 -38.2233,-7.78088 -38.3422,-6.86893 -38.4223,-5.95316 -38.5024,-5.03739 -38.5437,-4.11864 -38.5459,-3.19938 -38.5481,-2.28012 -38.5114,-1.36118 -38.4357,-0.445034 -38.36,0.47111 -38.2455,1.38363 -38.0924,2.29006 -37.9394,3.1965 -37.748,4.09603 -37.5187,4.98624 -37.2894,5.87645 -37.0224,6.75652 -36.7185,7.62409 -36.4146,8.49167 -36.074,9.34595 -35.6976,10.1847 -35.3213,11.0234 -34.9095,11.8457 -34.4635,12.6495 -34.0174,13.4533 -33.5375,14.2378 -33.0249,15.0009 -32.5123,15.764 -31.9676,16.505 -31.3922,17.2219 -30.8168,17.9388 -30.2113,18.631 -29.5772,19.2966 -28.9432,19.9622 -28.2811,20.6006 -27.5929,21.21 -26.9047,21.8195 -26.191,22.3995 -25.4536,22.9484 -24.7163,23.4974 -23.956,24.0148 -23.1747,24.4993 -22.3935,24.9837 -21.5921,25.4349 -20.7726,25.8514 -19.9531,26.2679 -19.1163,26.6495 -18.2645,26.9951 -17.4127,27.3407 -16.5466,27.65 -15.6685,27.9222 -14.7905,28.1944 -13.9013,28.4292 -13.0033,28.626 -12.1054,28.8228 -11.1995,28.9814 -10.2881,29.1014 -9.37669,29.2213 -8.46061,29.3026 -7.54232,29.3449 -6.62403,29.3873 -5.70436,29.3906 -4.78579,29.355 -3.86722,29.3193 -2.95057,29.2447 -2.03832,29.1314 -1.12607,29.018 -0.219047,28.866 0.680313,28.6757 1.57967,28.4855 2.47056,28.2572 3.35056,27.9914 4.23056,27.7256 5.0989,27.4226 5.95321,27.0832 6.80753,26.7438 7.64706,26.3683 8.46954,25.9577 9.29202,25.5472 10.0967,25.1019 10.8814,24.6231 11.6662,24.1443 12.4302,23.6324 13.1716,23.0888 13.9129,22.5453 14.6308,21.9705 15.3235,21.3661 15.3235,21.3661 -6.04599,-3.1206 -6.04599,-3.1206"/>
<path fill="olivedrab" stroke="black" stroke-width="0.5" d="M-6.04599,-3.1206C-6.04599,-3.1206 15.3235,21.3661 15.3235,21.3661 16.1942,20.6061 17.0239,19.8003 17.8088,18.952 18.5937,18.1037 19.3328,17.2141 20.023,16.2871 20.7132,15.36 21.3534,14.3968 21.9409,13.4015 22.5285,12.4063 23.0625,11.3804 23.5408,10.3282 24.0191,9.2761 24.4409,8.19919 24.8044,7.1021 25.1679,6.00502 25.4727,4.88932 25.7174,3.75977 25.962,2.63022 26.1463,1.48843 26.2693,0.339248 26.3924,-0.80993 26.454,-1.96485 26.454,-3.1206 26.454,-3.1206 -6.04599,-3.1206 -6.04599,-3.1206"/>
<ellipse fill="none" stroke="black" cx="-6.04599" cy="-3.1206" rx="32.5" ry="32.5"/>
</g>
<!-- 1 -->
<g id="node2" class="node"><title>1</title>
<ellipse fill="#1874cd" stroke="black" cx="65.4616" cy="6.57708" rx="2.5" ry="2.5"/>
</g>
<!-- 0&#45;&gt;1 -->
<g id="edge1" class="edge"><title>0&#45;&gt;1</title>
<path fill="none" stroke="black" d="M26.3602,1.27425C41.1415,3.27885 56.6926,5.38785 62.7889,6.21462"/>
</g>
<!-- 2 -->
<g id="node3" class="node"><title>2</title>
<ellipse fill="#1874cd" stroke="black" cx="101.48" cy="0.00503618" rx="2.5" ry="2.5"/>
</g>
<!-- 0&#45;&gt;2 -->
<g id="edge2" class="edge"><title>0&#45;&gt;2</title>
<path fill="none" stroke="black" d="M26.5073,-2.17432C53.4574,-1.39092 88.8755,-0.36137 98.7965,-0.0729826"/>
</g>
<!-- 3 -->
<g id="node4" class="node"><title>3</title>
<ellipse fill="#1874cd" stroke="black" cx="-57.9147" cy="-59.1711" rx="2.5" ry="2.5"/>
</g>
<!-- 0&#45;&gt;3 -->
<g id="edge3" class="edge"><title>0&#45;&gt;3</title>
<path fill="none" stroke="black" d="M-28.344,-27.2163C-39.5466,-39.3221 -51.6727,-52.4259 -56.1367,-57.2498"/>
</g>
<!-- 4 -->
<g id="node5" class="node"><title>4</title>
<ellipse fill="#1874cd" stroke="black" cx="40.9193" cy="-9.92723" rx="2.5" ry="2.5"/>
</g>
<!-- 0&#45;&gt;4 -->
<g id="edge4" class="edge"><title>0&#45;&gt;4</title>
<path fill="none" stroke="black" d="M26.3167,-7.81088C31.4011,-8.54776 35.8341,-9.19024 38.4439,-9.56848"/>
</g>
<!-- 5 -->
<g id="node6" class="node"><title>5</title>
<ellipse fill="#1874cd" stroke="black" cx="-79.0776" cy="4.7714" rx="2.5" ry="2.5"/>
</g>
<!-- 0&#45;&gt;5 -->
<g id="edge5" class="edge"><title>0&#45;&gt;5</title>
<path fill="none" stroke="black" d="M-38.7169,0.409906C-53.9083,2.05154 -69.9974,3.79016 -76.3094,4.47226"/>
</g>
<!-- 7 -->
<g id="node8" class="node"><title>7</title>
<ellipse fill="#1874cd" stroke="black" cx="66.7028" cy="36.8687" rx="2.5" ry="2.5"/>
</g>
<!-- 0&#45;&gt;7 -->
<g id="edge9" class="edge"><title>0&#45;&gt;7</title>
<path fill="none" stroke="black" d="M22.7063,12.6842C39.2281,21.7661 57.9465,32.0555 64.3851,35.5947"/>
</g>
<!-- 11 -->
<g id="node12" class="node"><title>11</title>
<ellipse fill="#1874cd" stroke="black" cx="-108.756" cy="20.8662" rx="2.5" ry="2.5"/>
</g>
<!-- 0&#45;&gt;11 -->
<g id="edge13" class="edge"><title>0&#45;&gt;11</title>
<path fill="none" stroke="black" d="M-37.7006,4.27195C-63.3997,10.2737 -96.8568,18.0872 -106.223,20.2745"/>
</g>
<!-- 13 -->
<g id="node14" class="node"><title>13</title>
<ellipse fill="#1874cd" stroke="black" cx="73.2428" cy="-36.812" rx="2.5" ry="2.5"/>
</g>
<!-- 0&#45;&gt;13 -->
<g id="edge17" class="edge"><title>0&#45;&gt;13</title>
<path fill="none" stroke="black" d="M23.9297,-15.8579C42.1729,-23.6098 63.3253,-32.5979 70.616,-35.6959"/>
</g>
<!-- 14 -->
<g id="node15" class="node"><title>14</title>
<ellipse fill="#1874cd" stroke="black" cx="-13.7566" cy="-96.1853" rx="2.5" ry="2.5"/>
</g>
<!-- 0&#45;&gt;14 -->
<g id="edge18" class="edge"><title>0&#45;&gt;14</title>
<path fill="none" stroke="black" d="M-8.7428,-35.6701C-10.2964,-54.4221 -12.1268,-76.5139 -13.0886,-88.123"/>
<polygon fill="black" stroke="black" points="-14.8575,-88.2789 -13.5264,-93.4064 -11.3694,-88.568 -14.8575,-88.2789"/>
<text text-anchor="middle" x="-24.6738" y="-58.6112" font-family="monospace" font-size="8.00">A586T</text>
</g>
<!-- 15 -->
<g id="node16" class="node"><title>15</title>
<ellipse fill="#1874cd" stroke="black" cx="7.36597" cy="52.2948" rx="2.5" ry="2.5"/>
</g>
<!-- 0&#45;&gt;15 -->
<g id="edge19" class="edge"><title>0&#45;&gt;15</title>
<path fill="none" stroke="black" d="M1.60025,28.4721C3.76509,37.4167 5.79655,45.8103 6.76801,49.8241"/>
</g>
<!-- 17 -->
<g id="node18" class="node"><title>17</title>
<ellipse fill="#1874cd" stroke="black" cx="-86.1006" cy="-52.4062" rx="2.5" ry="2.5"/>
</g>
<!-- 0&#45;&gt;17 -->
<g id="edge20" class="edge"><title>0&#45;&gt;17</title>
<path fill="none" stroke="black" d="M-34.0452,-20.3583C-53.1628,-32.1281 -76.316,-46.3823 -83.7101,-50.9346"/>
</g>
<!-- 19 -->
<g id="node20" class="node"><title>19</title>
<ellipse fill="#1874cd" stroke="black" cx="-96.9856" cy="-26.2296" rx="3.5" ry="3.5"/>
</g>
<!-- 0&#45;&gt;19 -->
<g id="edge23" class="edge"><title>0&#45;&gt;19</title>
<path fill="none" stroke="black" d="M-37.597,-11.1381C-58.7326,-16.509 -84.3085,-23.0081 -93.4928,-25.342"/>
</g>
<!-- 20 -->
<g id="node21" class="node"><title>20</title>
<ellipse fill="#1874cd" stroke="black" cx="-52.8408" cy="28.2092" rx="2.5" ry="2.5"/>
</g>
<!-- 0&#45;&gt;20 -->
<g id="edge24" class="edge"><title>0&#45;&gt;20</title>
<path fill="none" stroke="black" d="M-33.2667,15.1041C-40.3442,19.8425 -46.9419,24.2598 -50.3744,26.5579"/>
</g>
<!-- 21 -->
<g id="node22" class="node"><title>21</title>
<ellipse fill="#1874cd" stroke="black" cx="-67.5107" cy="52.479" rx="2.5" ry="2.5"/>
</g>
<!-- 0&#45;&gt;21 -->
<g id="edge25" class="edge"><title>0&#45;&gt;21</title>
<path fill="none" stroke="black" d="M-30.3385,18.8538C-44.2976,31.4809 -60.1126,45.7868 -65.5525,50.7076"/>
</g>
<!-- 22 -->
<g id="node23" class="node"><title>22</title>
<ellipse fill="#1874cd" stroke="black" cx="14.6478" cy="-49.7278" rx="2.5" ry="2.5"/>
</g>
<!-- 0&#45;&gt;22 -->
<g id="edge26" class="edge"><title>0&#45;&gt;22</title>
<path fill="none" stroke="black" d="M7.17685,-32.9015C9.83837,-38.8959 12.2241,-44.2691 13.5498,-47.2549"/>
</g>
<!-- 23 -->
<g id="node24" class="node"><title>23</title>
<ellipse fill="#1874cd" stroke="black" cx="15.4212" cy="-83.8782" rx="3.5" ry="3.5"/>
</g>
<!-- 0&#45;&gt;23 -->
<g id="edge27" class="edge"><title>0&#45;&gt;23</title>
<path fill="none" stroke="black" d="M2.31525,-34.5749C7.02434,-52.29 12.3747,-72.4176 14.4902,-80.3758"/>
</g>
<!-- 24 -->
<g id="node25" class="node"><title>24</title>
<ellipse fill="#1874cd" stroke="black" cx="-25.8051" cy="-70.297" rx="2.5" ry="2.5"/>
</g>
<!-- 0&#45;&gt;24 -->
<g id="edge28" class="edge"><title>0&#45;&gt;24</title>
<path fill="none" stroke="black" d="M-15.2314,-34.3488C-19.2626,-48.0541 -23.4487,-62.2859 -25.0872,-67.8565"/>
</g>
<!-- 26 -->
<g id="node27" class="node"><title>26</title>
<ellipse fill="#1874cd" stroke="black" cx="56.2458" cy="-56.1038" rx="2.5" ry="2.5"/>
</g>
<!-- 0&#45;&gt;26 -->
<g id="edge31" class="edge"><title>0&#45;&gt;26</title>
<path fill="none" stroke="black" d="M18.9315,-24.3656C30.3721,-34.0966 42.9693,-44.8113 50.2102,-50.9702"/>
<polygon fill="black" stroke="black" points="49.3448,-52.5315 54.2873,-54.438 51.6125,-49.8655 49.3448,-52.5315"/>
<text text-anchor="middle" x="50.1583" y="-42.0434" font-family="monospace" font-size="8.00">A837V</text>
</g>
<!-- 27 -->
<g id="node28" class="node"><title>27</title>
<ellipse fill="olivedrab" stroke="black" cx="-51.9778" cy="-22.6425" rx="2.5" ry="2.5"/>
</g>
<!-- 0&#45;&gt;27 -->
<g id="edge32" class="edge"><title>0&#45;&gt;27</title>
<path fill="none" stroke="black" d="M-36.1707,-15.9242C-41.8522,-18.339 -46.8843,-20.4777 -49.6725,-21.6627"/>
</g>
<!-- 28 -->
<g id="node29" class="node"><title>28</title>
<ellipse fill="olivedrab" stroke="black" cx="-25.2521" cy="59.3637" rx="2.5" ry="2.5"/>
</g>
<!-- 0&#45;&gt;28 -->
<g id="edge33" class="edge"><title>0&#45;&gt;28</title>
<path fill="none" stroke="black" d="M-15.649,28.1216C-19.2502,39.8374 -22.8513,51.5532 -24.4268,56.6788"/>
</g>
<!-- anon_0_6_0 -->
<g id="node30" class="node"><title>anon_0_6_0</title>
<ellipse fill="white" stroke="black" cx="-50.8743" cy="87.9461" rx="1" ry="1"/>
</g>
<!-- 0&#45;&gt;anon_0_6_0 -->
<g id="edge6" class="edge"><title>0&#45;&gt;anon_0_6_0</title>
<path fill="none" stroke="black" d="M-20.4767,26.1947C-31.9433,49.4887 -46.6165,79.2966 -50.1056,86.3846"/>
</g>
<!-- anon_0_10_0 -->
<g id="node32" class="node"><title>anon_0_10_0</title>
<ellipse fill="white" stroke="black" cx="50.4667" cy="78.9549" rx="1" ry="1"/>
</g>
<!-- 0&#45;&gt;anon_0_10_0 -->
<g id="edge11" class="edge"><title>0&#45;&gt;anon_0_10_0</title>
<path fill="none" stroke="black" d="M12.4584,23.754C26.8797,44.6986 45.1639,71.2534 49.5096,77.5648"/>
</g>
<!-- anon_0_12_0 -->
<g id="node33" class="node"><title>anon_0_12_0</title>
<ellipse fill="white" stroke="black" cx="45.0977" cy="-94.4957" rx="1" ry="1"/>
</g>
<!-- 0&#45;&gt;anon_0_12_0 -->
<g id="edge14" class="edge"><title>0&#45;&gt;anon_0_12_0</title>
<path fill="none" stroke="black" d="M9.85584,-31.5314C23.4617,-55.84 41.3507,-87.8012 44.5853,-93.5802"/>
</g>
<!-- anon_0_18_0 -->
<g id="node35" class="node"><title>anon_0_18_0</title>
<ellipse fill="white" stroke="black" cx="-59.6898" cy="-91.9307" rx="1" ry="1"/>
</g>
<!-- 0&#45;&gt;anon_0_18_0 -->
<g id="edge21" class="edge"><title>0&#45;&gt;anon_0_18_0</title>
<path fill="none" stroke="black" d="M-23.0192,-31.2207C-37.2618,-54.8 -55.8068,-85.5023 -59.1588,-91.0517"/>
</g>
<!-- anon_0_25_0 -->
<g id="node36" class="node"><title>anon_0_25_0</title>
<ellipse fill="white" stroke="black" cx="5.23248" cy="92.4792" rx="1" ry="1"/>
</g>
<!-- 0&#45;&gt;anon_0_25_0 -->
<g id="edge29" class="edge"><title>0&#45;&gt;anon_0_25_0</title>
<path fill="none" stroke="black" d="M-2.22762,29.2451C0.63536,53.5126 4.19976,83.7256 5.04613,90.8997"/>
</g>
<!-- anon_2_8_0 -->
<g id="node37" class="node"><title>anon_2_8_0</title>
<ellipse fill="white" stroke="black" cx="146.53" cy="2.88446" rx="1" ry="1"/>
</g>
<!-- 2&#45;&gt;anon_2_8_0 -->
<g id="edge34" class="edge"><title>2&#45;&gt;anon_2_8_0</title>
<path fill="none" stroke="black" d="M104.164,0.176534C112.65,0.718934 138.722,2.38539 145.107,2.79353"/>
</g>
<!-- 6 -->
<g id="node7" class="node"><title>6</title>
<ellipse fill="#1874cd" stroke="black" cx="-87.3746" cy="167.686" rx="2.5" ry="2.5"/>
</g>
<!-- 8 -->
<g id="node9" class="node"><title>8</title>
<ellipse fill="#1874cd" stroke="black" cx="228.458" cy="9.83981" rx="2.5" ry="2.5"/>
</g>
<!-- 9 -->
<g id="node10" class="node"><title>9</title>
<ellipse fill="#1874cd" stroke="black" cx="43.6575" cy="52.2816" rx="3.5" ry="3.5"/>
</g>
<!-- 9&#45;&gt;0 -->
<g id="edge10" class="edge"><title>9&#45;&gt;0</title>
<path fill="none" stroke="black" d="M41.2602,49.6094C37.1516,45.0298 28.3425,35.2106 19.4267,25.2726"/>
<polygon fill="black" stroke="black" points="17.9176,26.2111 15.8813,21.3207 20.5229,23.8738 17.9176,26.2111"/>
<text text-anchor="middle" x="15.2845" y="42.1033" font-family="monospace" font-size="8.00">R254K</text>
</g>
<!-- 10 -->
<g id="node11" class="node"><title>10</title>
<ellipse fill="#1874cd" stroke="black" cx="79.8508" cy="115.145" rx="2.5" ry="2.5"/>
</g>
<!-- anon_11_16_0 -->
<g id="node39" class="node"><title>anon_11_16_0</title>
<ellipse fill="white" stroke="black" cx="-154.16" cy="24.1891" rx="1" ry="1"/>
</g>
<!-- 11&#45;&gt;anon_11_16_0 -->
<g id="edge37" class="edge"><title>11&#45;&gt;anon_11_16_0</title>
<path fill="none" stroke="black" d="M-111.461,21.0641C-120.013,21.69 -146.29,23.6131 -152.726,24.0841"/>
</g>
<!-- 12 -->
<g id="node13" class="node"><title>12</title>
<ellipse fill="#1874cd" stroke="black" cx="73.9947" cy="-176.137" rx="2.5" ry="2.5"/>
</g>
<!-- 16 -->
<g id="node17" class="node"><title>16</title>
<ellipse fill="#1874cd" stroke="black" cx="-196.325" cy="28.9869" rx="2.5" ry="2.5"/>
</g>
<!-- 18 -->
<g id="node19" class="node"><title>18</title>
<ellipse fill="#1874cd" stroke="black" cx="-85.5082" cy="-129.472" rx="2.5" ry="2.5"/>
</g>
<!-- 25 -->
<g id="node26" class="node"><title>25</title>
<ellipse fill="#1874cd" stroke="black" cx="14.4423" cy="139.144" rx="2.5" ry="2.5"/>
</g>
<!-- anon_0_6_1 -->
<g id="node31" class="node"><title>anon_0_6_1</title>
<ellipse fill="white" stroke="black" cx="-70.9915" cy="127.642" rx="1" ry="1"/>
</g>
<!-- anon_0_6_0&#45;&gt;anon_0_6_1 -->
<g id="edge7" class="edge"><title>anon_0_6_0&#45;&gt;anon_0_6_1</title>
<path fill="none" stroke="black" d="M-51.3716,88.9274C-54.0822,94.2761 -67.0708,119.906 -70.2756,126.229"/>
</g>
<!-- anon_0_6_1&#45;&gt;6 -->
<g id="edge8" class="edge"><title>anon_0_6_1&#45;&gt;6</title>
<path fill="none" stroke="black" d="M-71.3965,128.632C-73.4858,133.738 -83.0723,157.17 -86.3059,165.074"/>
</g>
<!-- anon_0_10_0&#45;&gt;10 -->
<g id="edge12" class="edge"><title>anon_0_10_0&#45;&gt;10</title>
<path fill="none" stroke="black" d="M51.1931,79.8495C55.011,84.5518 72.788,106.447 78.2501,113.174"/>
</g>
<!-- anon_0_12_1 -->
<g id="node34" class="node"><title>anon_0_12_1</title>
<ellipse fill="white" stroke="black" cx="60.3584" cy="-135.71" rx="1" ry="1"/>
</g>
<!-- anon_0_12_0&#45;&gt;anon_0_12_1 -->
<g id="edge15" class="edge"><title>anon_0_12_0&#45;&gt;anon_0_12_1</title>
<path fill="none" stroke="black" d="M45.4749,-95.5145C47.5312,-101.068 57.3842,-127.677 59.8153,-134.243"/>
</g>
<!-- anon_0_12_1&#45;&gt;12 -->
<g id="edge16" class="edge"><title>anon_0_12_1&#45;&gt;12</title>
<path fill="none" stroke="black" d="M60.6955,-136.709C62.4345,-141.865 70.4138,-165.521 73.1053,-173.5"/>
</g>
<!-- anon_0_18_0&#45;&gt;18 -->
<g id="edge22" class="edge"><title>anon_0_18_0&#45;&gt;18</title>
<path fill="none" stroke="black" d="M-60.328,-92.8587C-63.6204,-97.6462 -78.7281,-119.614 -83.8241,-127.024"/>
</g>
<!-- anon_0_25_0&#45;&gt;25 -->
<g id="edge30" class="edge"><title>anon_0_25_0&#45;&gt;25</title>
<path fill="none" stroke="black" d="M5.46014,93.6328C6.65678,99.696 12.2286,127.928 13.9406,136.602"/>
</g>
<!-- anon_2_8_1 -->
<g id="node38" class="node"><title>anon_2_8_1</title>
<ellipse fill="white" stroke="black" cx="187.37" cy="5.63259" rx="1" ry="1"/>
</g>
<!-- anon_2_8_0&#45;&gt;anon_2_8_1 -->
<g id="edge35" class="edge"><title>anon_2_8_0&#45;&gt;anon_2_8_1</title>
<path fill="none" stroke="black" d="M147.539,2.95239C153.042,3.32268 179.411,5.09699 185.917,5.53479"/>
</g>
<!-- anon_2_8_1&#45;&gt;8 -->
<g id="edge36" class="edge"><title>anon_2_8_1&#45;&gt;8</title>
<path fill="none" stroke="black" d="M188.386,5.73659C193.626,6.27312 217.668,8.73498 225.778,9.56539"/>
</g>
<!-- anon_11_16_0&#45;&gt;16 -->
<g id="edge38" class="edge"><title>anon_11_16_0&#45;&gt;16</title>
<path fill="none" stroke="black" d="M-155.202,24.3077C-160.579,24.9195 -185.252,27.727 -193.574,28.674"/>
</g>
</g>
</svg>
