<?xml version="1.0" encoding="UTF-8" standalone="no"?>
<!DOCTYPE svg PUBLIC "-//W3C//DTD SVG 1.1//EN"
 "http://www.w3.org/Graphics/SVG/1.1/DTD/svg11.dtd">
<!-- Generated by graphviz version 2.38.0 (20140413.2041)
 -->
<!-- Title: %3 Pages: 1 -->
<svg width="564pt" height="564pt"
 viewBox="0.00 0.00 564.11 563.71" xmlns="http://www.w3.org/2000/svg" xmlns:xlink="http://www.w3.org/1999/xlink">
<g id="graph0" class="graph" transform="scale(1 1) rotate(0) translate(124.005 379.698)">
<title>%3</title>
<polygon fill="white" stroke="none" points="-124.005,184.015 -124.005,-379.698 440.109,-379.698 440.109,184.015 -124.005,184.015"/>
<!-- 0 -->
<g id="node1" class="node"><title>0</title>
<ellipse fill="palegreen" stroke="black" cx="-37.8843" cy="61.8404" rx="23.5" ry="23.5"/>
</g>
<!-- 1 -->
<g id="node2" class="node"><title>1</title>
<ellipse fill="palegreen" stroke="black" cx="27.3499" cy="42.1901" rx="2.5" ry="2.5"/>
</g>
<!-- 0&#45;&gt;1 -->
<g id="edge1" class="edge"><title>0&#45;&gt;1</title>
<path fill="none" stroke="black" d="M-15.0686,54.9677C-0.0779991,50.4521 17.9575,45.0194 24.6659,42.9986"/>
</g>
<!-- 3 -->
<g id="node4" class="node"><title>3</title>
<ellipse fill="palegreen" stroke="black" cx="-44.0019" cy="110.331" rx="2.5" ry="2.5"/>
</g>
<!-- 0&#45;&gt;3 -->
<g id="edge2" class="edge"><title>0&#45;&gt;3</title>
<path fill="none" stroke="black" d="M-40.8356,85.2335C-41.96,94.1459 -43.1038,103.212 -43.6582,107.607"/>
</g>
<!-- 5 -->
<g id="node6" class="node"><title>5</title>
<ellipse fill="palegreen" stroke="black" cx="-76.2374" cy="22.9095" rx="2.5" ry="2.5"/>
</g>
<!-- 0&#45;&gt;5 -->
<g id="edge3" class="edge"><title>0&#45;&gt;5</title>
<path fill="none" stroke="black" d="M-54.8182,44.6514C-62.5239,36.8296 -70.7193,28.5107 -74.3355,24.8401"/>
</g>
<!-- 7 -->
<g id="node8" class="node"><title>7</title>
<ellipse fill="palegreen" stroke="black" cx="-111.416" cy="27.8584" rx="3.5" ry="3.5"/>
</g>
<!-- 0&#45;&gt;7 -->
<g id="edge6" class="edge"><title>0&#45;&gt;7</title>
<path fill="none" stroke="black" d="M-59.5486,51.8285C-76.8329,43.8407 -99.5067,33.3622 -108.005,29.4349"/>
</g>
<!-- 9 -->
<g id="node10" class="node"><title>9</title>
<ellipse fill="palegreen" stroke="black" cx="-51.033" cy="150.272" rx="6" ry="6"/>
</g>
<!-- 0&#45;&gt;9 -->
<g id="edge7" class="edge"><title>0&#45;&gt;9</title>
<path fill="none" stroke="black" d="M-42.3019,84.9812C-43.7502,92.9943 -45.2957,102.045 -46.5019,110.339 -48.229,122.215 -49.6807,136.159 -50.4475,144.031"/>
</g>
<!-- 10 -->
<g id="node11" class="node"><title>10</title>
<ellipse fill="palegreen" stroke="black" cx="-103.781" cy="87.6717" rx="2.5" ry="2.5"/>
</g>
<!-- 0&#45;&gt;10 -->
<g id="edge8" class="edge"><title>0&#45;&gt;10</title>
<path fill="none" stroke="black" d="M-59.8269,70.4419C-75.4019,76.5473 -94.6839,84.1058 -101.367,86.7255"/>
</g>
<!-- 11 -->
<g id="node12" class="node"><title>11</title>
<ellipse fill="palegreen" stroke="black" cx="1.64149" cy="130.104" rx="2.5" ry="2.5"/>
</g>
<!-- 0&#45;&gt;11 -->
<g id="edge9" class="edge"><title>0&#45;&gt;11</title>
<path fill="none" stroke="black" d="M-26.0253,82.3218C-16.3838,98.9733 -3.73739,120.814 0.324986,127.83"/>
</g>
<!-- 12 -->
<g id="node13" class="node"><title>12</title>
<ellipse fill="palegreen" stroke="black" cx="-90.6451" cy="128.513" rx="3.5" ry="3.5"/>
</g>
<!-- 0&#45;&gt;12 -->
<g id="edge10" class="edge"><title>0&#45;&gt;12</title>
<path fill="none" stroke="black" d="M-52.5811,80.4124C-65.2655,96.4413 -82.4659,118.177 -88.4701,125.764"/>
</g>
<!-- 14 -->
<g id="node15" class="node"><title>14</title>
<ellipse fill="palegreen" stroke="black" cx="-117.125" cy="61.0384" rx="2.5" ry="2.5"/>
</g>
<!-- 0&#45;&gt;14 -->
<g id="edge11" class="edge"><title>0&#45;&gt;14</title>
<path fill="none" stroke="black" d="M-61.6592,61.5998C-80.9884,61.4041 -106.342,61.1475 -114.486,61.0651"/>
</g>
<!-- 18 -->
<g id="node19" class="node"><title>18</title>
<ellipse fill="palegreen" stroke="black" cx="22.1204" cy="10.2925" rx="2.5" ry="2.5"/>
</g>
<!-- 0&#45;&gt;18 -->
<g id="edge16" class="edge"><title>0&#45;&gt;18</title>
<path fill="none" stroke="black" d="M-19.8809,46.3743C-5.244,33.8003 13.9547,17.3074 20.1218,12.0094"/>
</g>
<!-- 20 -->
<g id="node21" class="node"><title>20</title>
<ellipse fill="palegreen" stroke="black" cx="-12.129" cy="7.88865" rx="2.5" ry="2.5"/>
</g>
<!-- 0&#45;&gt;20 -->
<g id="edge17" class="edge"><title>0&#45;&gt;20</title>
<path fill="none" stroke="black" d="M-27.7052,40.5173C-22.0809,28.7357 -15.7376,15.4479 -13.2316,10.1982"/>
</g>
<!-- 22 -->
<g id="node23" class="node"><title>22</title>
<ellipse fill="palegreen" stroke="black" cx="11.2362" cy="97.502" rx="2.5" ry="2.5"/>
</g>
<!-- 0&#45;&gt;22 -->
<g id="edge18" class="edge"><title>0&#45;&gt;22</title>
<path fill="none" stroke="black" d="M-18.7524,75.7303C-7.97721,83.5531 4.26535,92.4412 9.10586,95.9554"/>
</g>
<!-- anon_0_6_0 -->
<g id="node63" class="node"><title>anon_0_6_0</title>
<ellipse fill="white" stroke="black" cx="44.9725" cy="79.5802" rx="1" ry="1"/>
</g>
<!-- 0&#45;&gt;anon_0_6_0 -->
<g id="edge4" class="edge"><title>0&#45;&gt;anon_0_6_0</title>
<path fill="none" stroke="black" d="M-14.8041,66.7819C6.64797,71.3749 36.3253,77.7288 43.4095,79.2456"/>
</g>
<!-- anon_0_15_0 -->
<g id="node64" class="node"><title>anon_0_15_0</title>
<ellipse fill="white" stroke="black" cx="-52.5014" cy="-19.6125" rx="1" ry="1"/>
</g>
<!-- 0&#45;&gt;anon_0_15_0 -->
<g id="edge12" class="edge"><title>0&#45;&gt;anon_0_15_0</title>
<path fill="none" stroke="black" d="M-42.1122,38.2809C-45.8896,17.2317 -51.0108,-11.306 -52.2321,-18.1116"/>
</g>
<!-- 2 -->
<g id="node3" class="node"><title>2</title>
<path fill="palegreen" stroke="black" stroke-width="0.5" d="M83.7722,-190.974C83.7722,-190.974 112.772,-190.974 112.772,-190.974 112.772,-192.142 112.702,-193.309 112.561,-194.469 112.42,-195.629 112.209,-196.779 111.93,-197.914 111.65,-199.048 111.302,-200.165 110.888,-201.257 110.473,-202.35 109.993,-203.416 109.45,-204.451 108.907,-205.485 108.302,-206.486 107.639,-207.447 106.975,-208.409 106.254,-209.33 105.479,-210.204 104.704,-211.079 103.877,-211.906 103.003,-212.68 102.128,-213.455 101.208,-214.176 100.246,-214.84 99.2845,-215.504 98.2837,-216.109 97.2492,-216.652 96.2146,-217.195 95.1482,-217.675 94.0557,-218.089 92.9633,-218.503 91.8468,-218.851 90.7124,-219.131 89.5779,-219.411 88.4276,-219.621 87.2678,-219.762 86.1079,-219.903 84.9406,-219.974 83.7722,-219.974 82.6038,-219.974 81.4365,-219.903 80.2766,-219.762 79.1168,-219.621 77.9665,-219.411 76.832,-219.131 75.6976,-218.851 74.5811,-218.503 73.4887,-218.089 72.3962,-217.675 71.3298,-217.195 70.2952,-216.652 69.2607,-216.109 68.2599,-215.504 67.2983,-214.84 66.3368,-214.176 65.4162,-213.455 64.5416,-212.68 63.6671,-211.906 62.8402,-211.079 62.0654,-210.204 61.2906,-209.33 60.5694,-208.409 59.9057,-207.447 59.242,-206.486 58.637,-205.485 58.094,-204.451 57.551,-203.416 57.071,-202.35 56.6567,-201.257 56.2424,-200.165 55.8945,-199.048 55.6149,-197.914 55.3353,-196.779 55.1245,-195.629 54.9836,-194.469 54.8428,-193.309 54.7722,-192.142 54.7722,-190.974 54.7722,-189.805 54.8428,-188.638 54.9836,-187.478 55.1245,-186.318 55.3353,-185.168 55.6149,-184.033 55.8945,-182.899 56.2424,-181.783 56.6567,-180.69 57.071,-179.598 57.551,-178.531 58.094,-177.497 58.637,-176.462 59.242,-175.461 59.9057,-174.5 60.5694,-173.538 61.2906,-172.618 62.0654,-171.743 62.0654,-171.743 83.7722,-190.974 83.7722,-190.974"/>
<path fill="#787878" stroke="black" stroke-width="0.5" d="M83.7722,-190.974C83.7722,-190.974 62.0654,-171.743 62.0654,-171.743 63.034,-170.65 64.0839,-169.631 65.206,-168.696 66.3282,-167.761 67.5193,-166.912 68.7694,-166.156 70.0195,-165.4 71.3248,-164.74 72.6744,-164.181 74.0239,-163.622 75.4138,-163.166 76.8321,-162.816 78.2503,-162.467 79.693,-162.225 81.1477,-162.093 82.6025,-161.96 84.0651,-161.938 85.5232,-162.027 86.9812,-162.115 88.4306,-162.313 89.8588,-162.62 91.287,-162.926 92.6899,-163.34 94.0557,-163.858 95.4216,-164.376 96.7463,-164.997 98.0186,-165.714 99.2909,-166.432 100.507,-167.244 101.657,-168.145 102.807,-169.046 103.887,-170.033 104.888,-171.096 105.89,-172.16 106.809,-173.298 107.639,-174.5 108.469,-175.702 109.206,-176.965 109.846,-178.278 110.485,-179.592 111.025,-180.951 111.459,-182.346 111.894,-183.741 112.222,-185.166 112.442,-186.61 112.662,-188.054 112.772,-189.513 112.772,-190.974 112.772,-190.974 83.7722,-190.974 83.7722,-190.974"/>
<ellipse fill="none" stroke="black" cx="83.7722" cy="-190.974" rx="29" ry="29"/>
</g>
<!-- 4 -->
<g id="node5" class="node"><title>4</title>
<ellipse fill="palegreen" stroke="black" cx="60.4027" cy="-92.0309" rx="9" ry="9"/>
</g>
<!-- 2&#45;&gt;4 -->
<g id="edge19" class="edge"><title>2&#45;&gt;4</title>
<path fill="none" stroke="black" d="M77.0754,-162.621C72.1659,-141.835 65.8102,-114.925 62.546,-101.105"/>
</g>
<!-- 13 -->
<g id="node14" class="node"><title>13</title>
<ellipse fill="palegreen" stroke="black" cx="42.2636" cy="-151.877" rx="2.5" ry="2.5"/>
</g>
<!-- 2&#45;&gt;13 -->
<g id="edge20" class="edge"><title>2&#45;&gt;13</title>
<path fill="none" stroke="black" d="M62.5315,-170.967C55.1913,-164.053 47.9322,-157.216 44.4296,-153.917"/>
</g>
<!-- 17 -->
<g id="node18" class="node"><title>17</title>
<ellipse fill="palegreen" stroke="black" cx="62.0024" cy="-271.188" rx="2.5" ry="2.5"/>
</g>
<!-- 2&#45;&gt;17 -->
<g id="edge21" class="edge"><title>2&#45;&gt;17</title>
<path fill="none" stroke="black" d="M76.1582,-219.029C71.0575,-237.823 64.9004,-260.51 62.7709,-268.357"/>
</g>
<!-- 19 -->
<g id="node20" class="node"><title>19</title>
<ellipse fill="palegreen" stroke="black" cx="26.4031" cy="-250.885" rx="2.5" ry="2.5"/>
</g>
<!-- 2&#45;&gt;19 -->
<g id="edge22" class="edge"><title>2&#45;&gt;19</title>
<path fill="none" stroke="black" d="M63.7073,-211.928C50.2656,-225.965 34.04,-242.91 28.428,-248.77"/>
</g>
<!-- 23 -->
<g id="node24" class="node"><title>23</title>
<ellipse fill="#787878" stroke="black" cx="164.447" cy="-252.066" rx="8" ry="8"/>
</g>
<!-- 2&#45;&gt;23 -->
<g id="edge23" class="edge"><title>2&#45;&gt;23</title>
<path fill="none" stroke="black" d="M107.107,-208.644C124.418,-221.753 146.844,-238.736 157.813,-247.042"/>
</g>
<!-- 24 -->
<g id="node25" class="node"><title>24</title>
<ellipse fill="#787878" stroke="black" cx="2.89942" cy="-177.09" rx="2.5" ry="2.5"/>
</g>
<!-- 2&#45;&gt;24 -->
<g id="edge24" class="edge"><title>2&#45;&gt;24</title>
<path fill="none" stroke="black" d="M55.0318,-186.04C36.1451,-182.798 13.5338,-178.916 5.71851,-177.574"/>
</g>
<!-- 27 -->
<g id="node28" class="node"><title>27</title>
<ellipse fill="#787878" stroke="black" cx="4.66268" cy="-217.745" rx="2.5" ry="2.5"/>
</g>
<!-- 2&#45;&gt;27 -->
<g id="edge27" class="edge"><title>2&#45;&gt;27</title>
<path fill="none" stroke="black" d="M56.1035,-200.337C37.5681,-206.609 15.1937,-214.181 7.45499,-216.8"/>
</g>
<!-- 28 -->
<g id="node29" class="node"><title>28</title>
<ellipse fill="#787878" stroke="black" cx="143.585" cy="-185.582" rx="2.5" ry="2.5"/>
</g>
<!-- 2&#45;&gt;28 -->
<g id="edge28" class="edge"><title>2&#45;&gt;28</title>
<path fill="none" stroke="black" d="M112.978,-188.341C124.365,-187.314 135.888,-186.275 140.938,-185.82"/>
</g>
<!-- 29 -->
<g id="node30" class="node"><title>29</title>
<ellipse fill="#787878" stroke="black" cx="100.431" cy="-252.523" rx="2.5" ry="2.5"/>
</g>
<!-- 2&#45;&gt;29 -->
<g id="edge29" class="edge"><title>2&#45;&gt;29</title>
<path fill="none" stroke="black" d="M91.419,-219.226C94.7719,-231.614 98.2734,-244.551 99.7305,-249.935"/>
</g>
<!-- anon_2_25_0 -->
<g id="node67" class="node"><title>anon_2_25_0</title>
<ellipse fill="white" stroke="black" cx="150.61" cy="-140.202" rx="1" ry="1"/>
</g>
<!-- 2&#45;&gt;anon_2_25_0 -->
<g id="edge25" class="edge"><title>2&#45;&gt;anon_2_25_0</title>
<path fill="none" stroke="black" d="M107.149,-173.216C124.014,-160.405 144.64,-144.737 149.533,-141.02"/>
</g>
<!-- 21 -->
<g id="node22" class="node"><title>21</title>
<ellipse fill="palegreen" stroke="black" cx="8.98862" cy="-70.1256" rx="2.5" ry="2.5"/>
</g>
<!-- 4&#45;&gt;21 -->
<g id="edge32" class="edge"><title>4&#45;&gt;21</title>
<path fill="none" stroke="black" d="M51.9127,-88.4137C40.0477,-83.3586 19.1267,-74.445 11.6985,-71.2802"/>
</g>
<!-- anon_4_16_0 -->
<g id="node68" class="node"><title>anon_4_16_0</title>
<ellipse fill="white" stroke="black" cx="78.2804" cy="-43.4355" rx="1" ry="1"/>
</g>
<!-- 4&#45;&gt;anon_4_16_0 -->
<g id="edge30" class="edge"><title>4&#45;&gt;anon_4_16_0</title>
<path fill="none" stroke="black" d="M63.5167,-83.5663C67.9986,-71.3837 75.9406,-49.7955 77.8561,-44.5888"/>
</g>
<!-- 6 -->
<g id="node7" class="node"><title>6</title>
<ellipse fill="palegreen" stroke="black" cx="88.1105" cy="88.9853" rx="2.5" ry="2.5"/>
</g>
<!-- 8 -->
<g id="node9" class="node"><title>8</title>
<ellipse fill="palegreen" stroke="black" cx="-92.6072" cy="176.515" rx="3.5" ry="3.5"/>
</g>
<!-- 8&#45;&gt;9 -->
<g id="edge33" class="edge"><title>8&#45;&gt;9</title>
<path fill="none" stroke="black" d="M-89.6173,174.628C-82.6168,170.209 -65.0895,159.145 -56.2721,153.579"/>
</g>
<!-- 8&#45;&gt;12 -->
<g id="edge70" class="edge"><title>8&#45;&gt;12</title>
<path fill="none" stroke="black" stroke-dasharray="5,2" d="M-92.4533,172.749C-92.0847,163.731 -91.1553,140.995 -90.793,132.131"/>
</g>
<!-- 15 -->
<g id="node16" class="node"><title>15</title>
<ellipse fill="palegreen" stroke="black" cx="-60.3529" cy="-141.751" rx="2.5" ry="2.5"/>
</g>
<!-- 16 -->
<g id="node17" class="node"><title>16</title>
<ellipse fill="palegreen" stroke="black" cx="88.4014" cy="-2.93544" rx="2.5" ry="2.5"/>
</g>
<!-- 26 -->
<g id="node27" class="node"><title>26</title>
<ellipse fill="#787878" stroke="black" cx="217.015" cy="-250.881" rx="2.5" ry="2.5"/>
</g>
<!-- 23&#45;&gt;26 -->
<g id="edge34" class="edge"><title>23&#45;&gt;26</title>
<path fill="none" stroke="black" d="M172.661,-251.881C184.674,-251.61 206.446,-251.119 214.189,-250.944"/>
</g>
<!-- 30 -->
<g id="node31" class="node"><title>30</title>
<ellipse fill="#787878" stroke="black" cx="173.544" cy="-304.274" rx="2.5" ry="2.5"/>
</g>
<!-- 23&#45;&gt;30 -->
<g id="edge35" class="edge"><title>23&#45;&gt;30</title>
<path fill="none" stroke="black" d="M165.869,-260.224C167.948,-272.154 171.715,-293.778 173.055,-301.467"/>
</g>
<!-- 25 -->
<g id="node26" class="node"><title>25</title>
<ellipse fill="#787878" stroke="black" cx="190.291" cy="-121.187" rx="2.5" ry="2.5"/>
</g>
<!-- 31 -->
<g id="node32" class="node"><title>31</title>
<ellipse fill="#1874cd" stroke="black" cx="-107.005" cy="-351.451" rx="13" ry="13"/>
</g>
<!-- 44 -->
<g id="node45" class="node"><title>44</title>
<ellipse fill="#1874cd" stroke="black" cx="-105.87" cy="-291.163" rx="4.5" ry="4.5"/>
</g>
<!-- 31&#45;&gt;44 -->
<g id="edge36" class="edge"><title>31&#45;&gt;44</title>
<path fill="none" stroke="black" d="M-106.758,-338.369C-106.506,-324.932 -106.126,-304.751 -105.957,-295.764"/>
</g>
<!-- anon_31_45_0 -->
<g id="node69" class="node"><title>anon_31_45_0</title>
<ellipse fill="white" stroke="black" cx="-55.1015" cy="-373.264" rx="1" ry="1"/>
</g>
<!-- 31&#45;&gt;anon_31_45_0 -->
<g id="edge37" class="edge"><title>31&#45;&gt;anon_31_45_0</title>
<path fill="none" stroke="black" d="M-94.9665,-356.51C-81.5504,-362.149 -61.0908,-370.747 -56.1855,-372.809"/>
</g>
<!-- 32 -->
<g id="node33" class="node"><title>32</title>
<ellipse fill="#1874cd" stroke="black" cx="-43.2548" cy="-182.808" rx="2.5" ry="2.5"/>
</g>
<!-- anon_32_33_0 -->
<g id="node70" class="node"><title>anon_32_33_0</title>
<ellipse fill="white" stroke="black" cx="-51.9424" cy="-222.304" rx="1" ry="1"/>
</g>
<!-- 32&#45;&gt;anon_32_33_0 -->
<g id="edge39" class="edge"><title>32&#45;&gt;anon_32_33_0</title>
<path fill="none" stroke="black" d="M-43.8248,-185.4C-45.516,-193.088 -50.4626,-215.577 -51.6728,-221.079"/>
</g>
<!-- 33 -->
<g id="node34" class="node"><title>33</title>
<ellipse fill="#1874cd" stroke="black" cx="-57.5782" cy="-268.359" rx="6" ry="6"/>
</g>
<!-- 33&#45;&gt;44 -->
<g id="edge41" class="edge"><title>33&#45;&gt;44</title>
<path fill="none" stroke="black" d="M-63.118,-270.975C-72.9288,-275.607 -93.1382,-285.15 -101.792,-289.237"/>
</g>
<!-- anon_33_45_0 -->
<g id="node78" class="node"><title>anon_33_45_0</title>
<ellipse fill="white" stroke="black" cx="-21.4348" cy="-301.618" rx="1" ry="1"/>
</g>
<!-- 33&#45;&gt;anon_33_45_0 -->
<g id="edge71" class="edge"><title>33&#45;&gt;anon_33_45_0</title>
<path fill="none" stroke="black" stroke-dasharray="5,2" d="M-53.1464,-272.437C-44.7014,-280.208 -26.756,-296.721 -22.4016,-300.728"/>
</g>
<!-- 34 -->
<g id="node35" class="node"><title>34</title>
<ellipse fill="#1874cd" stroke="black" cx="208.895" cy="-7.69469" rx="7" ry="7"/>
</g>
<!-- 46 -->
<g id="node47" class="node"><title>46</title>
<ellipse fill="#1874cd" stroke="black" cx="221.128" cy="51.3295" rx="4.5" ry="4.5"/>
</g>
<!-- 34&#45;&gt;46 -->
<g id="edge44" class="edge"><title>34&#45;&gt;46</title>
<path fill="none" stroke="black" d="M210.395,-0.457166C212.947,11.8562 218.062,36.538 220.178,46.7471"/>
</g>
<!-- anon_34_36_0 -->
<g id="node71" class="node"><title>anon_34_36_0</title>
<ellipse fill="white" stroke="black" cx="259.547" cy="-19.8488" rx="1" ry="1"/>
</g>
<!-- 34&#45;&gt;anon_34_36_0 -->
<g id="edge42" class="edge"><title>34&#45;&gt;anon_34_36_0</title>
<path fill="none" stroke="black" d="M215.938,-9.38467C228.116,-12.3068 252.37,-18.1268 258.244,-19.5361"/>
</g>
<!-- anon_34_48_0 -->
<g id="node72" class="node"><title>anon_34_48_0</title>
<ellipse fill="white" stroke="black" cx="207.386" cy="-62.0471" rx="1" ry="1"/>
</g>
<!-- 34&#45;&gt;anon_34_48_0 -->
<g id="edge45" class="edge"><title>34&#45;&gt;anon_34_48_0</title>
<path fill="none" stroke="black" d="M208.698,-14.8003C208.34,-27.6916 207.604,-54.1965 207.425,-60.6213"/>
</g>
<!-- anon_34_50_0 -->
<g id="node74" class="node"><title>anon_34_50_0</title>
<ellipse fill="white" stroke="black" cx="156.165" cy="-9.53084" rx="1" ry="1"/>
</g>
<!-- 34&#45;&gt;anon_34_50_0 -->
<g id="edge48" class="edge"><title>34&#45;&gt;anon_34_50_0</title>
<path fill="none" stroke="black" d="M201.563,-7.95C188.885,-8.39146 163.635,-9.27069 157.521,-9.48361"/>
</g>
<!-- 35 -->
<g id="node36" class="node"><title>35</title>
<ellipse fill="#1874cd" stroke="black" cx="45" cy="-45" rx="4.5" ry="4.5"/>
</g>
<!-- 36 -->
<g id="node37" class="node"><title>36</title>
<ellipse fill="#1874cd" stroke="black" cx="314.764" cy="-13.9253" rx="2.5" ry="2.5"/>
</g>
<!-- anon_36_37_0 -->
<g id="node79" class="node"><title>anon_36_37_0</title>
<ellipse fill="white" stroke="black" cx="323.464" cy="32.6308" rx="1" ry="1"/>
</g>
<!-- 36&#45;&gt;anon_36_37_0 -->
<g id="edge73" class="edge"><title>36&#45;&gt;anon_36_37_0</title>
<path fill="none" stroke="black" stroke-dasharray="5,2" d="M315.232,-11.4222C316.813,-2.96082 321.93,24.4212 323.184,31.1345"/>
</g>
<!-- anon_36_48_0 -->
<g id="node80" class="node"><title>anon_36_48_0</title>
<ellipse fill="white" stroke="black" cx="343.838" cy="-52.4845" rx="1" ry="1"/>
</g>
<!-- 36&#45;&gt;anon_36_48_0 -->
<g id="edge75" class="edge"><title>36&#45;&gt;anon_36_48_0</title>
<path fill="none" stroke="black" stroke-dasharray="5,2" d="M316.328,-15.9984C321.611,-23.0064 338.711,-45.6851 342.903,-51.2452"/>
</g>
<!-- 37 -->
<g id="node38" class="node"><title>37</title>
<ellipse fill="#1874cd" stroke="black" cx="280.583" cy="63.283" rx="8.5" ry="8.5"/>
</g>
<!-- 41 -->
<g id="node42" class="node"><title>41</title>
<ellipse fill="#1874cd" stroke="black" cx="266.376" cy="113.177" rx="2.5" ry="2.5"/>
</g>
<!-- 37&#45;&gt;41 -->
<g id="edge50" class="edge"><title>37&#45;&gt;41</title>
<path fill="none" stroke="black" d="M278.237,71.5219C274.958,83.0361 269.177,103.338 267.125,110.547"/>
</g>
<!-- 42 -->
<g id="node43" class="node"><title>42</title>
<ellipse fill="#1874cd" stroke="black" cx="311.979" cy="115.177" rx="5" ry="5"/>
</g>
<!-- 37&#45;&gt;42 -->
<g id="edge51" class="edge"><title>37&#45;&gt;42</title>
<path fill="none" stroke="black" d="M285.215,70.94C291.902,81.9919 304.038,102.051 309.36,110.847"/>
</g>
<!-- 43 -->
<g id="node44" class="node"><title>43</title>
<ellipse fill="#1874cd" stroke="black" cx="226.956" cy="85.1991" rx="3.5" ry="3.5"/>
</g>
<!-- 37&#45;&gt;43 -->
<g id="edge52" class="edge"><title>37&#45;&gt;43</title>
<path fill="none" stroke="black" d="M272.67,66.5168C260.783,71.3748 238.812,80.3538 230.377,83.8011"/>
</g>
<!-- 37&#45;&gt;46 -->
<g id="edge53" class="edge"><title>37&#45;&gt;46</title>
<path fill="none" stroke="black" d="M272.064,61.5703C259.349,59.0139 235.832,54.2858 225.829,52.2746"/>
</g>
<!-- 47 -->
<g id="node48" class="node"><title>47</title>
<ellipse fill="#1874cd" stroke="black" cx="332.009" cy="86.6176" rx="2.5" ry="2.5"/>
</g>
<!-- 37&#45;&gt;47 -->
<g id="edge54" class="edge"><title>37&#45;&gt;47</title>
<path fill="none" stroke="black" d="M288.618,66.929C300.596,72.3639 322.493,82.2995 329.666,85.5543"/>
</g>
<!-- anon_37_48_0 -->
<g id="node82" class="node"><title>anon_37_48_0</title>
<ellipse fill="white" stroke="black" cx="290.826" cy="12.7879" rx="1" ry="1"/>
</g>
<!-- 37&#45;&gt;anon_37_48_0 -->
<g id="edge78" class="edge"><title>37&#45;&gt;anon_37_48_0</title>
<path fill="none" stroke="black" stroke-dasharray="5,2" d="M282.274,54.9447C284.82,42.3955 289.458,19.5311 290.578,14.0111"/>
</g>
<!-- 38 -->
<g id="node39" class="node"><title>38</title>
<ellipse fill="#1874cd" stroke="black" cx="221.204" cy="108.768" rx="2.5" ry="2.5"/>
</g>
<!-- 38&#45;&gt;41 -->
<g id="edge55" class="edge"><title>38&#45;&gt;41</title>
<path fill="none" stroke="black" d="M223.895,109.031C231.948,109.817 255.796,112.144 263.756,112.921"/>
</g>
<!-- 38&#45;&gt;46 -->
<g id="edge81" class="edge"><title>38&#45;&gt;46</title>
<path fill="none" stroke="black" stroke-dasharray="5,2" d="M221.201,105.998C221.188,96.8548 221.149,67.5685 221.134,56.0482"/>
</g>
<!-- 39 -->
<g id="node40" class="node"><title>39</title>
<ellipse fill="#1874cd" stroke="black" cx="3" cy="-43" rx="2.5" ry="2.5"/>
</g>
<!-- 40 -->
<g id="node41" class="node"><title>40</title>
<path fill="#1874cd" stroke="black" stroke-width="0.5" d="M336.799,-210.864C336.799,-210.864 355.799,-210.864 355.799,-210.864 355.799,-211.588 355.757,-212.311 355.675,-213.03 355.592,-213.749 355.469,-214.462 355.305,-215.167 355.141,-215.872 354.937,-216.567 354.694,-217.249 354.451,-217.93 354.169,-218.598 353.849,-219.247 353.53,-219.897 353.174,-220.527 352.783,-221.136 352.391,-221.745 351.966,-222.331 351.507,-222.891 351.049,-223.451 350.56,-223.985 350.041,-224.489 349.522,-224.994 348.974,-225.468 348.401,-225.91 348.401,-225.91 336.799,-210.864 336.799,-210.864"/>
<path fill="olivedrab" stroke="black" stroke-width="0.5" d="M336.799,-210.864C336.799,-210.864 348.401,-225.91 348.401,-225.91 347.559,-226.559 346.664,-227.137 345.725,-227.636 344.787,-228.136 343.808,-228.556 342.799,-228.892 341.79,-229.227 340.755,-229.478 339.704,-229.64 338.653,-229.803 337.591,-229.877 336.527,-229.862 335.464,-229.847 334.404,-229.742 333.358,-229.55 332.313,-229.357 331.285,-229.077 330.286,-228.713 329.287,-228.348 328.321,-227.901 327.397,-227.375 326.473,-226.848 325.595,-226.246 324.771,-225.573 323.948,-224.899 323.183,-224.158 322.484,-223.357 321.785,-222.556 321.154,-221.698 320.599,-220.791 320.043,-219.885 319.564,-218.933 319.168,-217.946 318.772,-216.96 318.459,-215.942 318.233,-214.903 318.007,-213.864 317.868,-212.807 317.819,-211.745 317.77,-210.683 317.81,-209.619 317.938,-208.563 318.067,-207.508 318.284,-206.465 318.588,-205.446 318.891,-204.427 319.279,-203.435 319.748,-202.481 320.217,-201.526 320.766,-200.613 321.388,-199.751 322.01,-198.888 322.703,-198.08 323.46,-197.333 324.217,-196.587 325.036,-195.905 325.907,-195.296 326.778,-194.686 327.699,-194.151 328.66,-193.695 329.621,-193.24 330.618,-192.866 331.641,-192.577 332.665,-192.289 333.711,-192.086 334.768,-191.973 335.825,-191.859 336.89,-191.834 337.951,-191.899 339.012,-191.963 340.066,-192.117 341.102,-192.358 342.138,-192.598 343.151,-192.926 344.132,-193.336 345.113,-193.747 346.058,-194.239 346.956,-194.807 347.855,-195.376 348.704,-196.018 349.495,-196.729 350.286,-197.44 351.016,-198.215 351.678,-199.048 352.339,-199.881 352.929,-200.767 353.442,-201.699 353.955,-202.63 354.389,-203.603 354.739,-204.607 355.089,-205.611 355.354,-206.642 355.532,-207.691 355.709,-208.739 355.799,-209.801 355.799,-210.864 355.799,-210.864 336.799,-210.864 336.799,-210.864"/>
<ellipse fill="none" stroke="black" cx="336.799" cy="-210.864" rx="19" ry="19"/>
</g>
<!-- 52 -->
<g id="node53" class="node"><title>52</title>
<ellipse fill="olivedrab" stroke="black" cx="265.545" cy="-189.965" rx="6" ry="6"/>
</g>
<!-- 40&#45;&gt;52 -->
<g id="edge56" class="edge"><title>40&#45;&gt;52</title>
<path fill="none" stroke="black" d="M318.449,-205.482C302.945,-200.935 281.681,-194.698 271.478,-191.705"/>
</g>
<!-- 55 -->
<g id="node56" class="node"><title>55</title>
<ellipse fill="olivedrab" stroke="black" cx="265.704" cy="-244.762" rx="7.5" ry="7.5"/>
</g>
<!-- 40&#45;&gt;55 -->
<g id="edge57" class="edge"><title>40&#45;&gt;55</title>
<path fill="none" stroke="black" d="M319.589,-219.07C304.466,-226.28 283.245,-236.399 272.505,-241.52"/>
</g>
<!-- 56 -->
<g id="node57" class="node"><title>56</title>
<ellipse fill="olivedrab" stroke="black" cx="312.326" cy="-268.348" rx="2.5" ry="2.5"/>
</g>
<!-- 40&#45;&gt;56 -->
<g id="edge58" class="edge"><title>40&#45;&gt;56</title>
<path fill="none" stroke="black" d="M329.323,-228.423C323.588,-241.895 316.2,-259.249 313.435,-265.743"/>
</g>
<!-- 57 -->
<g id="node58" class="node"><title>57</title>
<ellipse fill="olivedrab" stroke="black" cx="303.263" cy="-153.665" rx="2.5" ry="2.5"/>
</g>
<!-- 40&#45;&gt;57 -->
<g id="edge59" class="edge"><title>40&#45;&gt;57</title>
<path fill="none" stroke="black" d="M327.099,-194.319C319.051,-180.594 308.345,-162.334 304.614,-155.969"/>
</g>
<!-- 58 -->
<g id="node59" class="node"><title>58</title>
<ellipse fill="olivedrab" stroke="black" cx="399.963" cy="-205.024" rx="2.5" ry="2.5"/>
</g>
<!-- 40&#45;&gt;58 -->
<g id="edge60" class="edge"><title>40&#45;&gt;58</title>
<path fill="none" stroke="black" d="M355.75,-209.112C370.576,-207.741 389.849,-205.959 397.067,-205.292"/>
</g>
<!-- 60 -->
<g id="node61" class="node"><title>60</title>
<ellipse fill="olivedrab" stroke="black" cx="391.031" cy="-166.389" rx="2.5" ry="2.5"/>
</g>
<!-- 40&#45;&gt;60 -->
<g id="edge65" class="edge"><title>40&#45;&gt;60</title>
<path fill="none" stroke="black" d="M351.618,-198.711C364.665,-188.012 382.529,-173.361 388.77,-168.243"/>
</g>
<!-- 61 -->
<g id="node62" class="node"><title>61</title>
<ellipse fill="olivedrab" stroke="black" cx="357.058" cy="-145.147" rx="2.5" ry="2.5"/>
</g>
<!-- 40&#45;&gt;61 -->
<g id="edge66" class="edge"><title>40&#45;&gt;61</title>
<path fill="none" stroke="black" d="M342.442,-192.558C347.313,-176.759 353.918,-155.334 356.223,-147.856"/>
</g>
<!-- anon_40_59_0 -->
<g id="node75" class="node"><title>anon_40_59_0</title>
<ellipse fill="white" stroke="black" cx="375.485" cy="-267.793" rx="1" ry="1"/>
</g>
<!-- 40&#45;&gt;anon_40_59_0 -->
<g id="edge61" class="edge"><title>40&#45;&gt;anon_40_59_0</title>
<path fill="none" stroke="black" d="M347.575,-226.722C357.591,-241.461 371.447,-261.852 374.755,-266.719"/>
</g>
<!-- 49 -->
<g id="node50" class="node"><title>49</title>
<ellipse fill="#1874cd" stroke="black" cx="177.568" cy="74.099" rx="3.5" ry="3.5"/>
</g>
<!-- 43&#45;&gt;49 -->
<g id="edge67" class="edge"><title>43&#45;&gt;49</title>
<path fill="none" stroke="black" d="M223.404,84.4008C214.292,82.3528 190.165,76.9301 181.088,74.89"/>
</g>
<!-- 45 -->
<g id="node46" class="node"><title>45</title>
<ellipse fill="#1874cd" stroke="black" cx="-21.8134" cy="-345.033" rx="2.5" ry="2.5"/>
</g>
<!-- 46&#45;&gt;49 -->
<g id="edge82" class="edge"><title>46&#45;&gt;49</title>
<path fill="none" stroke="black" stroke-dasharray="5,2" d="M217.108,53.4308C208.515,57.9226 188.509,68.3801 180.736,72.4431"/>
</g>
<!-- 48 -->
<g id="node49" class="node"><title>48</title>
<ellipse fill="#1874cd" stroke="black" cx="284.844" cy="-84.2467" rx="2.5" ry="2.5"/>
</g>
<!-- anon_49_50_0 -->
<g id="node84" class="node"><title>anon_49_50_0</title>
<ellipse fill="white" stroke="black" cx="133.115" cy="63.5132" rx="1" ry="1"/>
</g>
<!-- 49&#45;&gt;anon_49_50_0 -->
<g id="edge83" class="edge"><title>49&#45;&gt;anon_49_50_0</title>
<path fill="none" stroke="black" stroke-dasharray="5,2" d="M174.08,73.2683C164.91,71.0848 140.424,65.2537 134.445,63.83"/>
</g>
<!-- 50 -->
<g id="node51" class="node"><title>50</title>
<ellipse fill="#1874cd" stroke="black" cx="122.198" cy="19.1505" rx="2.5" ry="2.5"/>
</g>
<!-- 51 -->
<g id="node52" class="node"><title>51</title>
<ellipse fill="olivedrab" stroke="black" cx="260.508" cy="-142.251" rx="2.5" ry="2.5"/>
</g>
<!-- 51&#45;&gt;52 -->
<g id="edge68" class="edge"><title>51&#45;&gt;52</title>
<path fill="none" stroke="black" d="M260.779,-144.816C261.555,-152.172 263.805,-173.479 264.913,-183.976"/>
</g>
<!-- 51&#45;&gt;57 -->
<g id="edge85" class="edge"><title>51&#45;&gt;57</title>
<path fill="none" stroke="black" stroke-dasharray="5,2" d="M263.054,-142.931C270.677,-144.965 293.249,-150.991 300.783,-153.003"/>
</g>
<!-- 54 -->
<g id="node55" class="node"><title>54</title>
<ellipse fill="olivedrab" stroke="black" cx="223.163" cy="-217.391" rx="3.5" ry="3.5"/>
</g>
<!-- 52&#45;&gt;54 -->
<g id="edge69" class="edge"><title>52&#45;&gt;54</title>
<path fill="none" stroke="black" d="M260.348,-193.328C251.507,-199.05 233.784,-210.518 226.453,-215.262"/>
</g>
<!-- 53 -->
<g id="node54" class="node"><title>53</title>
<ellipse fill="olivedrab" stroke="black" cx="63" cy="37" rx="2.5" ry="2.5"/>
</g>
<!-- 54&#45;&gt;55 -->
<g id="edge86" class="edge"><title>54&#45;&gt;55</title>
<path fill="none" stroke="black" stroke-dasharray="5,2" d="M226.223,-219.359C233.081,-223.772 249.814,-234.538 259.145,-240.542"/>
</g>
<!-- 59 -->
<g id="node60" class="node"><title>59</title>
<ellipse fill="olivedrab" stroke="black" cx="433.609" cy="-373.198" rx="2.5" ry="2.5"/>
</g>
<!-- anon_0_6_0&#45;&gt;6 -->
<g id="edge5" class="edge"><title>anon_0_6_0&#45;&gt;6</title>
<path fill="none" stroke="black" d="M46.0388,79.8127C51.54,81.0121 76.7822,86.5154 85.2968,88.3718"/>
</g>
<!-- anon_0_15_1 -->
<g id="node65" class="node"><title>anon_0_15_1</title>
<ellipse fill="white" stroke="black" cx="-60.8738" cy="-61.0527" rx="1" ry="1"/>
</g>
<!-- anon_0_15_0&#45;&gt;anon_0_15_1 -->
<g id="edge13" class="edge"><title>anon_0_15_0&#45;&gt;anon_0_15_1</title>
<path fill="none" stroke="black" d="M-52.7084,-20.6369C-53.8365,-26.2206 -59.242,-52.9762 -60.5758,-59.5778"/>
</g>
<!-- anon_0_15_2 -->
<g id="node66" class="node"><title>anon_0_15_2</title>
<ellipse fill="white" stroke="black" cx="-64.8429" cy="-101.077" rx="1" ry="1"/>
</g>
<!-- anon_0_15_1&#45;&gt;anon_0_15_2 -->
<g id="edge14" class="edge"><title>anon_0_15_1&#45;&gt;anon_0_15_2</title>
<path fill="none" stroke="black" d="M-61.0058,-62.3843C-61.6084,-68.461 -64.0942,-93.5273 -64.7062,-99.699"/>
</g>
<!-- anon_0_15_2&#45;&gt;15 -->
<g id="edge15" class="edge"><title>anon_0_15_2&#45;&gt;15</title>
<path fill="none" stroke="black" d="M-64.7319,-102.082C-64.1593,-107.269 -61.532,-131.069 -60.6458,-139.098"/>
</g>
<!-- anon_2_25_0&#45;&gt;25 -->
<g id="edge26" class="edge"><title>anon_2_25_0&#45;&gt;25</title>
<path fill="none" stroke="black" d="M151.591,-139.732C156.651,-137.307 179.871,-126.18 187.703,-122.427"/>
</g>
<!-- anon_4_16_0&#45;&gt;16 -->
<g id="edge31" class="edge"><title>anon_4_16_0&#45;&gt;16</title>
<path fill="none" stroke="black" d="M78.5306,-42.4344C79.8213,-37.2696 85.7436,-13.571 87.7412,-5.57714"/>
</g>
<!-- anon_31_45_0&#45;&gt;45 -->
<g id="edge38" class="edge"><title>anon_31_45_0&#45;&gt;45</title>
<path fill="none" stroke="black" d="M-54.2786,-372.566C-50.0336,-368.966 -30.555,-352.447 -23.9847,-346.875"/>
</g>
<!-- anon_32_33_0&#45;&gt;33 -->
<g id="edge40" class="edge"><title>anon_32_33_0&#45;&gt;33</title>
<path fill="none" stroke="black" d="M-52.0817,-223.443C-52.7326,-228.762 -55.499,-251.367 -56.8415,-262.338"/>
</g>
<!-- anon_34_36_0&#45;&gt;36 -->
<g id="edge43" class="edge"><title>anon_34_36_0&#45;&gt;36</title>
<path fill="none" stroke="black" d="M260.912,-19.7024C268.153,-18.9256 302.113,-15.2825 312.036,-14.218"/>
</g>
<!-- anon_34_48_1 -->
<g id="node73" class="node"><title>anon_34_48_1</title>
<ellipse fill="white" stroke="black" cx="238.898" cy="-93.3406" rx="1" ry="1"/>
</g>
<!-- anon_34_48_0&#45;&gt;anon_34_48_1 -->
<g id="edge46" class="edge"><title>anon_34_48_0&#45;&gt;anon_34_48_1</title>
<path fill="none" stroke="black" d="M208.165,-62.8207C212.411,-67.0372 232.757,-87.2416 237.777,-92.2268"/>
</g>
<!-- anon_34_48_1&#45;&gt;48 -->
<g id="edge47" class="edge"><title>anon_34_48_1&#45;&gt;48</title>
<path fill="none" stroke="black" d="M240.034,-93.1158C246.004,-91.9342 273.801,-86.4325 282.341,-84.7421"/>
</g>
<!-- anon_34_50_0&#45;&gt;50 -->
<g id="edge49" class="edge"><title>anon_34_50_0&#45;&gt;50</title>
<path fill="none" stroke="black" d="M155.325,-8.82186C150.993,-5.16429 131.118,11.6186 124.413,17.2797"/>
</g>
<!-- anon_40_59_1 -->
<g id="node76" class="node"><title>anon_40_59_1</title>
<ellipse fill="white" stroke="black" cx="399.988" cy="-300.895" rx="1" ry="1"/>
</g>
<!-- anon_40_59_0&#45;&gt;anon_40_59_1 -->
<g id="edge62" class="edge"><title>anon_40_59_0&#45;&gt;anon_40_59_1</title>
<path fill="none" stroke="black" d="M376.091,-268.611C379.392,-273.072 395.212,-294.444 399.116,-299.717"/>
</g>
<!-- anon_40_59_2 -->
<g id="node77" class="node"><title>anon_40_59_2</title>
<ellipse fill="white" stroke="black" cx="421.558" cy="-334.309" rx="1" ry="1"/>
</g>
<!-- anon_40_59_1&#45;&gt;anon_40_59_2 -->
<g id="edge63" class="edge"><title>anon_40_59_1&#45;&gt;anon_40_59_2</title>
<path fill="none" stroke="black" d="M400.915,-302.331C404.527,-307.927 417.623,-328.213 420.84,-333.197"/>
</g>
<!-- anon_40_59_2&#45;&gt;59 -->
<g id="edge64" class="edge"><title>anon_40_59_2&#45;&gt;59</title>
<path fill="none" stroke="black" d="M421.856,-335.27C423.393,-340.229 430.445,-362.986 432.823,-370.662"/>
</g>
<!-- anon_33_45_0&#45;&gt;45 -->
<g id="edge72" class="edge"><title>anon_33_45_0&#45;&gt;45</title>
<path fill="none" stroke="black" stroke-dasharray="5,2" d="M-21.4442,-302.691C-21.4925,-308.228 -21.714,-333.632 -21.7887,-342.201"/>
</g>
<!-- anon_36_37_0&#45;&gt;37 -->
<g id="edge74" class="edge"><title>anon_36_37_0&#45;&gt;37</title>
<path fill="none" stroke="black" stroke-dasharray="5,2" d="M322.404,33.3885C317.657,36.7811 298.129,50.7404 287.52,58.3241"/>
</g>
<!-- anon_36_48_1 -->
<g id="node81" class="node"><title>anon_36_48_1</title>
<ellipse fill="white" stroke="black" cx="328.537" cy="-93.5381" rx="1" ry="1"/>
</g>
<!-- anon_36_48_0&#45;&gt;anon_36_48_1 -->
<g id="edge76" class="edge"><title>anon_36_48_0&#45;&gt;anon_36_48_1</title>
<path fill="none" stroke="black" stroke-dasharray="5,2" d="M343.459,-53.4993C341.398,-59.031 331.519,-85.5369 329.081,-92.077"/>
</g>
<!-- anon_36_48_1&#45;&gt;48 -->
<g id="edge77" class="edge"><title>anon_36_48_1&#45;&gt;48</title>
<path fill="none" stroke="black" stroke-dasharray="5,2" d="M327.457,-93.3084C321.885,-92.1236 296.318,-86.6867 287.694,-84.8528"/>
</g>
<!-- anon_37_48_1 -->
<g id="node83" class="node"><title>anon_37_48_1</title>
<ellipse fill="white" stroke="black" cx="293.721" cy="-37.0753" rx="1" ry="1"/>
</g>
<!-- anon_37_48_0&#45;&gt;anon_37_48_1 -->
<g id="edge79" class="edge"><title>anon_37_48_0&#45;&gt;anon_37_48_1</title>
<path fill="none" stroke="black" stroke-dasharray="5,2" d="M290.898,11.5553C291.302,4.59666 293.292,-29.6893 293.662,-36.0567"/>
</g>
<!-- anon_37_48_1&#45;&gt;48 -->
<g id="edge80" class="edge"><title>anon_37_48_1&#45;&gt;48</title>
<path fill="none" stroke="black" stroke-dasharray="5,2" d="M293.502,-38.2414C292.348,-44.3704 286.978,-72.9086 285.328,-81.6771"/>
</g>
<!-- anon_49_50_0&#45;&gt;50 -->
<g id="edge84" class="edge"><title>anon_49_50_0&#45;&gt;50</title>
<path fill="none" stroke="black" stroke-dasharray="5,2" d="M132.845,62.4166C131.453,56.7592 125.065,30.8004 122.91,22.0442"/>
</g>
</g>
</svg>
