<?xml version="1.0" encoding="UTF-8" standalone="no"?>
<!DOCTYPE svg PUBLIC "-//W3C//DTD SVG 1.1//EN"
 "http://www.w3.org/Graphics/SVG/1.1/DTD/svg11.dtd">
<!-- Generated by graphviz version 2.38.0 (20140413.2041)
 -->
<!-- Title: %3 Pages: 1 -->
<svg width="159pt" height="181pt"
 viewBox="0.00 0.00 158.52 181.10" xmlns="http://www.w3.org/2000/svg" xmlns:xlink="http://www.w3.org/1999/xlink">
<g id="graph0" class="graph" transform="scale(1 1) rotate(0) translate(81.4934 85.2127)">
<title>%3</title>
<polygon fill="white" stroke="none" points="-81.4934,95.8923 -81.4934,-85.2127 77.0239,-85.2127 77.0239,95.8923 -81.4934,95.8923"/>
<!-- 0 -->
<g id="node1" class="node"><title>0</title>
<ellipse fill="#1874cd" stroke="black" cx="-18.4445" cy="21.558" rx="12" ry="12"/>
</g>
<!-- 1 -->
<g id="node2" class="node"><title>1</title>
<ellipse fill="#1874cd" stroke="black" cx="63.0239" cy="-71.2127" rx="10" ry="10"/>
</g>
<!-- 2 -->
<g id="node3" class="node"><title>2</title>
<ellipse fill="#1874cd" stroke="black" cx="-24.9876" cy="84.8923" rx="7" ry="7"/>
</g>
<!-- 2&#45;&#45;0 -->
<g id="edge1" class="edge"><title>2&#45;&#45;0</title>
<path fill="none" stroke="black" d="M-24.237,77.627C-23.136,66.9697 -21.0684,46.9563 -19.7245,33.9481"/>
</g>
<!-- 3 -->
<g id="node4" class="node"><title>3</title>
<ellipse fill="#1874cd" stroke="black" cx="22.9175" cy="-27.5319" rx="6" ry="6"/>
</g>
<!-- 3&#45;&#45;0 -->
<g id="edge2" class="edge"><title>3&#45;&#45;0</title>
<path fill="none" stroke="black" d="M18.8003,-22.6455C11.9346,-14.497 -1.95985,1.99344 -10.701,12.3678"/>
</g>
<!-- 3&#45;&#45;1 -->
<g id="edge3" class="edge"><title>3&#45;&#45;1</title>
<path fill="none" stroke="black" d="M27.2096,-32.2065C34.161,-39.7775 47.9386,-54.783 56.2317,-63.8152"/>
</g>
<!-- 4 -->
<g id="node5" class="node"><title>4</title>
<ellipse fill="#1874cd" stroke="black" cx="-51.1557" cy="-30.0319" rx="5" ry="5"/>
</g>
<!-- 4&#45;&#45;0 -->
<g id="edge4" class="edge"><title>4&#45;&#45;0</title>
<path fill="none" stroke="black" d="M-48.3668,-25.6334C-43.2373,-17.5436 -32.1787,-0.102608 -25.037,11.1607"/>
</g>
<!-- 5 -->
<g id="node6" class="node"><title>5</title>
<ellipse fill="#1874cd" stroke="black" cx="-15.5711" cy="-64.0141" rx="5" ry="5"/>
</g>
<!-- 5&#45;&#45;3 -->
<g id="edge5" class="edge"><title>5&#45;&#45;3</title>
<path fill="none" stroke="black" d="M-11.74,-60.3826C-4.59065,-53.606 10.7491,-39.0659 18.3939,-31.8196"/>
</g>
<!-- 5&#45;&#45;4 -->
<g id="edge9" class="edge"><title>5&#45;&#45;4</title>
<path fill="none" stroke="black" stroke-dasharray="5,2" d="M-19.3793,-60.3774C-26.2642,-53.8025 -40.696,-40.0206 -47.4815,-33.5406"/>
</g>
<!-- 6 -->
<g id="node7" class="node"><title>6</title>
<ellipse fill="#1874cd" stroke="black" cx="-73.9934" cy="38.6506" rx="3.5" ry="3.5"/>
</g>
<!-- 6&#45;&#45;0 -->
<g id="edge6" class="edge"><title>6&#45;&#45;0</title>
<path fill="none" stroke="black" d="M-70.3486,37.5291C-62.3352,35.0633 -42.89,29.08 -30.208,25.1777"/>
</g>
<!-- 7 -->
<g id="node8" class="node"><title>7</title>
<ellipse fill="#1874cd" stroke="black" cx="62.1793" cy="5.0548" rx="3.5" ry="3.5"/>
</g>
<!-- 7&#45;&#45;3 -->
<g id="edge7" class="edge"><title>7&#45;&#45;3</title>
<path fill="none" stroke="black" d="M59.3557,2.71125C52.6743,-2.83425 35.8389,-16.8073 27.6022,-23.6436"/>
</g>
<!-- 8 -->
<g id="node9" class="node"><title>8</title>
<ellipse fill="#1874cd" stroke="black" cx="36.0315" cy="42.6349" rx="3.5" ry="3.5"/>
</g>
<!-- 8&#45;&#45;0 -->
<g id="edge8" class="edge"><title>8&#45;&#45;0</title>
<path fill="none" stroke="black" d="M32.4572,41.252C24.5985,38.2114 5.52883,30.8333 -6.90819,26.0214"/>
</g>
<!-- 8&#45;&#45;7 -->
<g id="edge10" class="edge"><title>8&#45;&#45;7</title>
<path fill="none" stroke="black" stroke-dasharray="5,2" d="M38.0833,39.686C42.899,32.7648 54.8972,15.5208 59.916,8.3077"/>
</g>
</g>
</svg>
