<?xml version="1.0" encoding="UTF-8" standalone="no"?>
<!DOCTYPE svg PUBLIC "-//W3C//DTD SVG 1.1//EN"
 "http://www.w3.org/Graphics/SVG/1.1/DTD/svg11.dtd">
<!-- Generated by graphviz version 2.38.0 (20140413.2041)
 -->
<!-- Title: %3 Pages: 1 -->
<svg width="490pt" height="320pt"
 viewBox="0.00 0.00 490.17 319.64" xmlns="http://www.w3.org/2000/svg" xmlns:xlink="http://www.w3.org/1999/xlink">
<g id="graph0" class="graph" transform="scale(1 1) rotate(0) translate(218.876 182.792)">
<title>%3</title>
<polygon fill="white" stroke="none" points="-218.876,136.843 -218.876,-182.792 271.289,-182.792 271.289,136.843 -218.876,136.843"/>
<!-- 0 -->
<g id="node1" class="node"><title>0</title>
<path fill="#1874cd" stroke="black" stroke-width="0.5" d="M-89.814,80.6739C-89.814,80.6739 -81.314,80.6739 -81.314,80.6739 -81.314,80.2691 -81.3429,79.8648 -81.4005,79.4642 -81.4581,79.0635 -81.5442,78.6675 -81.6583,78.2791 -81.7723,77.8908 -81.914,77.511 -82.0821,77.1428 -82.2502,76.7746 -82.4445,76.4189 -82.6633,76.0784 -82.8822,75.7379 -83.125,75.4134 -83.3901,75.1075 -83.6552,74.8016 -83.9417,74.5151 -84.2477,74.25 -84.5536,73.9849 -84.878,73.742 -85.2185,73.5232 -85.559,73.3044 -85.9148,73.1101 -86.2829,72.942 -86.6511,72.7738 -87.0309,72.6322 -87.4192,72.5182 -87.8076,72.4041 -88.2036,72.318 -88.6043,72.2604 -89.0049,72.2028 -89.4092,72.1739 -89.814,72.1739 -90.2187,72.1739 -90.623,72.2028 -91.0236,72.2604 -91.4243,72.318 -91.8203,72.4041 -92.2087,72.5182 -92.5971,72.6322 -92.9768,72.7738 -93.345,72.942 -93.7132,73.1101 -94.0689,73.3044 -94.4094,73.5232 -94.7499,73.742 -95.0744,73.9849 -95.3803,74.25 -95.6862,74.5151 -95.9728,74.8016 -96.2378,75.1075 -96.5029,75.4135 -96.7458,75.7379 -96.9646,76.0784 -97.1835,76.4189 -97.3777,76.7746 -97.5458,77.1428 -97.714,77.511 -97.8556,77.8908 -97.9697,78.2791 -98.0837,78.6675 -98.1698,79.0635 -98.2275,79.4642 -98.2851,79.8648 -98.314,80.2691 -98.314,80.6739 -98.314,81.0786 -98.2851,81.4829 -98.2275,81.8835 -98.1698,82.2842 -98.0837,82.6802 -97.9697,83.0686 -97.8556,83.457 -97.714,83.8367 -97.5458,84.2049 -97.3777,84.5731 -97.1835,84.9288 -96.9646,85.2693 -96.7458,85.6098 -96.5029,85.9343 -96.2378,86.2402 -95.9728,86.5461 -95.6862,86.8327 -95.3803,87.0977 -95.0744,87.3628 -94.7499,87.6057 -94.4094,87.8245 -94.0689,88.0434 -93.7132,88.2376 -93.345,88.4057 -92.9768,88.5739 -92.5971,88.7155 -92.2087,88.8296 -91.8203,88.9436 -91.4243,89.0297 -91.0236,89.0873 -91.0236,89.0873 -89.814,80.6739 -89.814,80.6739"/>
<path fill="olivedrab" stroke="black" stroke-width="0.5" d="M-89.814,80.6739C-89.814,80.6739 -91.0236,89.0873 -91.0236,89.0873 -90.4224,89.1738 -89.8135,89.1955 -89.2076,89.1522 -88.6017,89.1089 -88.0021,89.0007 -87.4192,88.8296 -86.8364,88.6584 -86.2735,88.4253 -85.7404,88.1341 -85.2072,87.843 -84.7068,87.4955 -84.2477,87.0977 -83.7886,86.6999 -83.3734,86.254 -83.0094,85.7677 -82.6453,85.2814 -82.3345,84.7575 -82.0821,84.2049 -81.8297,83.6523 -81.6374,83.0743 -81.5082,82.4807 -81.3791,81.8871 -81.314,81.2813 -81.314,80.6739 -81.314,80.6739 -89.814,80.6739 -89.814,80.6739"/>
<ellipse fill="none" stroke="black" cx="-89.814" cy="80.6739" rx="8.5" ry="8.5"/>
</g>
<!-- 8 -->
<g id="node9" class="node"><title>8</title>
<ellipse fill="olivedrab" stroke="black" cx="-105.366" cy="130.343" rx="2.5" ry="2.5"/>
</g>
<!-- 0&#45;&gt;8 -->
<g id="edge2" class="edge"><title>0&#45;&gt;8</title>
<path fill="none" stroke="black" d="M-92.382,88.8757C-95.9709,100.338 -102.299,120.549 -104.546,127.725"/>
</g>
<!-- 1 -->
<g id="node2" class="node"><title>1</title>
<path fill="olivedrab" stroke="black" stroke-width="0.5" d="M-70.8396,6.2567C-70.8396,6.2567 -60.8396,6.2567 -60.8396,6.2567 -60.8396,5.55793 -60.9128,4.86108 -61.0581,4.17759 -61.2034,3.49409 -61.4199,2.82769 -61.7041,2.18934 -61.9883,1.55098 -62.3387,0.944165 -62.7494,0.378849 -63.1601,-0.186467 -63.629,-0.707179 -64.1483,-1.17475 -64.6676,-1.64231 -65.2344,-2.05417 -65.8396,-2.40355 -66.4447,-2.75294 -67.0848,-3.03793 -67.7494,-3.25386 -68.414,-3.46979 -69.0994,-3.61548 -69.7943,-3.68852 -70.4892,-3.76156 -71.1899,-3.76156 -71.8849,-3.68852 -72.5798,-3.61548 -73.2652,-3.46979 -73.9298,-3.25386 -74.5943,-3.03793 -75.2344,-2.75294 -75.8396,-2.40355 -76.4447,-2.05417 -77.0116,-1.64231 -77.5309,-1.17475 -78.0502,-0.707178 -78.519,-0.186466 -78.9298,0.378851 -79.3405,0.944167 -79.6908,1.55098 -79.975,2.18934 -80.2593,2.82769 -80.4758,3.49409 -80.6211,4.17759 -80.7663,4.86109 -80.8396,5.55793 -80.8396,6.2567 -80.8396,6.95547 -80.7663,7.65232 -80.6211,8.33582 -80.6211,8.33582 -70.8396,6.2567 -70.8396,6.2567"/>
<path fill="#1874cd" stroke="black" stroke-width="0.5" d="M-70.8396,6.2567C-70.8396,6.2567 -80.6211,8.33582 -80.6211,8.33582 -80.494,8.93375 -80.3123,9.51878 -80.0784,10.0835 -79.8444,10.6483 -79.5592,11.1904 -79.2263,11.7031 -78.8934,12.2158 -78.5141,12.6968 -78.0933,13.1402 -77.6725,13.5837 -77.212,13.9876 -76.7174,14.3469 -76.2229,14.7062 -75.6964,15.0194 -75.1447,15.2826 -74.593,15.5457 -74.0182,15.7577 -73.4278,15.916 -72.8373,16.0742 -72.2336,16.1779 -71.6242,16.2259 -71.0148,16.2738 -70.4022,16.2658 -69.7943,16.2019 -69.1864,16.138 -68.5856,16.0185 -67.9994,15.8449 -67.4133,15.6713 -66.8443,15.4443 -66.2997,15.1668 -65.755,14.8892 -65.2369,14.5624 -64.752,14.1902 -64.267,13.8181 -63.8172,13.4023 -63.4081,12.948 -62.9991,12.4937 -62.6326,12.0029 -62.3132,11.4817 -61.9938,10.9605 -61.7228,10.4111 -61.5038,9.84038 -61.2847,9.26969 -61.1184,8.68011 -61.007,8.07906 -60.8956,7.478 -60.8396,6.86799 -60.8396,6.2567 -60.8396,6.2567 -70.8396,6.2567 -70.8396,6.2567"/>
<ellipse fill="none" stroke="black" cx="-70.8396" cy="6.2567" rx="10" ry="10"/>
</g>
<!-- 1&#45;&gt;0 -->
<g id="edge1" class="edge"><title>1&#45;&gt;0</title>
<path fill="none" stroke="black" d="M-73.3202,15.9854C-76.6483,29.0384 -82.5757,52.2855 -86.3448,67.0678"/>
<polygon fill="black" stroke="black" points="-84.6958,67.6838 -87.6269,72.0964 -88.0873,66.819 -84.6958,67.6838"/>
<text text-anchor="middle" x="-96.4456" y="50.3315" font-family="monospace" font-size="8.00">F1920S</text>
</g>
<!-- 2 -->
<g id="node3" class="node"><title>2</title>
<ellipse fill="#1874cd" stroke="black" cx="-79.5858" cy="-59.6579" rx="4.5" ry="4.5"/>
</g>
<!-- 1&#45;&gt;2 -->
<g id="edge3" class="edge"><title>1&#45;&gt;2</title>
<path fill="none" stroke="black" d="M-72.168,-3.7543C-74.0986,-18.3041 -77.601,-44.6992 -78.9926,-55.1872"/>
</g>
<!-- 5 -->
<g id="node6" class="node"><title>5</title>
<ellipse fill="olivedrab" stroke="black" cx="-93.5902" cy="-26.892" rx="2.5" ry="2.5"/>
</g>
<!-- 1&#45;&gt;5 -->
<g id="edge7" class="edge"><title>1&#45;&gt;5</title>
<path fill="none" stroke="black" d="M-76.5805,-2.10811C-80.3716,-7.63188 -85.2797,-14.7832 -88.8486,-19.9833"/>
<polygon fill="black" stroke="black" points="-90.4937,-19.2877 -91.8802,-24.4005 -87.608,-21.2682 -90.4937,-19.2877"/>
<text text-anchor="middle" x="-97.6997" y="-15.8095" font-family="monospace" font-size="8.00">R537L</text>
</g>
<!-- 6 -->
<g id="node7" class="node"><title>6</title>
<ellipse fill="olivedrab" stroke="black" cx="-102.675" cy="38.511" rx="2.5" ry="2.5"/>
</g>
<!-- 1&#45;&gt;6 -->
<g id="edge8" class="edge"><title>1&#45;&gt;6</title>
<path fill="none" stroke="black" d="M-77.9049,13.415C-83.6294,19.2148 -91.5936,27.2837 -96.931,32.6913"/>
<polygon fill="black" stroke="black" points="-95.9318,34.1702 -100.69,36.4994 -98.4228,31.7115 -95.9318,34.1702"/>
<text text-anchor="middle" x="-105.452" y="22.5137" font-family="monospace" font-size="8.00">H1755Y</text>
</g>
<!-- 7 -->
<g id="node8" class="node"><title>7</title>
<ellipse fill="olivedrab" stroke="black" cx="-39.4976" cy="30.6528" rx="2.5" ry="2.5"/>
</g>
<!-- 1&#45;&gt;7 -->
<g id="edge9" class="edge"><title>1&#45;&gt;7</title>
<path fill="none" stroke="black" d="M-62.9307,12.4129C-55.9671,17.8332 -46.2678,25.383 -41.8534,28.8191"/>
</g>
<!-- 9 -->
<g id="node10" class="node"><title>9</title>
<ellipse fill="olivedrab" stroke="black" cx="-55.884" cy="57.7638" rx="2.5" ry="2.5"/>
</g>
<!-- 1&#45;&gt;9 -->
<g id="edge10" class="edge"><title>1&#45;&gt;9</title>
<path fill="none" stroke="black" d="M-67.956,16.1878C-65.0594,26.1636 -60.6613,41.3108 -58.05,50.3043"/>
<polygon fill="black" stroke="black" points="-56.3394,49.9199 -56.6257,55.2096 -59.7006,50.8959 -56.3394,49.9199"/>
<text text-anchor="middle" x="-75.8944" y="32.7419" font-family="monospace" font-size="8.00">K251R</text>
</g>
<!-- anon_1_3_0 -->
<g id="node18" class="node"><title>anon_1_3_0</title>
<ellipse fill="white" stroke="black" cx="-129.927" cy="8.07146" rx="1" ry="1"/>
</g>
<!-- 1&#45;&gt;anon_1_3_0 -->
<g id="edge4" class="edge"><title>1&#45;&gt;anon_1_3_0</title>
<path fill="none" stroke="black" d="M-80.8629,6.56455C-95.6135,7.01759 -122.115,7.83153 -128.51,8.02794"/>
</g>
<!-- anon_1_16_0 -->
<g id="node20" class="node"><title>anon_1_16_0</title>
<ellipse fill="white" stroke="black" cx="-11.1708" cy="-5.43433" rx="1" ry="1"/>
</g>
<!-- 1&#45;&gt;anon_1_16_0 -->
<g id="edge11" class="edge"><title>1&#45;&gt;anon_1_16_0</title>
<path fill="none" stroke="black" d="M-60.9865,4.32617C-46.1573,1.42066 -19.139,-3.87309 -12.6162,-5.15113"/>
</g>
<!-- anon_2_4_0 -->
<g id="node23" class="node"><title>anon_2_4_0</title>
<ellipse fill="white" stroke="black" cx="-98.3907" cy="-102.732" rx="1" ry="1"/>
</g>
<!-- 2&#45;&gt;anon_2_4_0 -->
<g id="edge15" class="edge"><title>2&#45;&gt;anon_2_4_0</title>
<path fill="none" stroke="black" d="M-81.4577,-63.9454C-85.6196,-73.4787 -95.4625,-96.0247 -97.8582,-101.512"/>
</g>
<!-- 3 -->
<g id="node4" class="node"><title>3</title>
<ellipse fill="#1874cd" stroke="black" cx="-212.376" cy="24.7389" rx="2.5" ry="2.5"/>
</g>
<!-- 4 -->
<g id="node5" class="node"><title>4</title>
<ellipse fill="#1874cd" stroke="black" cx="-134.927" cy="-176.292" rx="2.5" ry="2.5"/>
</g>
<!-- 10 -->
<g id="node11" class="node"><title>10</title>
<ellipse fill="#1874cd" stroke="black" cx="208.136" cy="50.8316" rx="15" ry="15"/>
</g>
<!-- 14 -->
<g id="node15" class="node"><title>14</title>
<ellipse fill="#1874cd" stroke="black" cx="264.789" cy="31.1624" rx="2.5" ry="2.5"/>
</g>
<!-- 10&#45;&gt;14 -->
<g id="edge18" class="edge"><title>10&#45;&gt;14</title>
<path fill="none" stroke="black" d="M222.432,45.8682C236.068,41.1339 255.508,34.3847 262.319,32.0202"/>
</g>
<!-- 15 -->
<g id="node16" class="node"><title>15</title>
<ellipse fill="#1874cd" stroke="black" cx="231.828" cy="106.735" rx="2.5" ry="2.5"/>
</g>
<!-- 10&#45;&gt;15 -->
<g id="edge19" class="edge"><title>10&#45;&gt;15</title>
<path fill="none" stroke="black" d="M213.993,64.6504C219.693,78.1009 227.905,97.4765 230.784,104.27"/>
</g>
<!-- 11 -->
<g id="node12" class="node"><title>11</title>
<ellipse fill="#1874cd" stroke="black" cx="139.356" cy="-46.3206" rx="6" ry="6"/>
</g>
<!-- 13 -->
<g id="node14" class="node"><title>13</title>
<ellipse fill="#1874cd" stroke="black" cx="165.578" cy="-88.2214" rx="2.5" ry="2.5"/>
</g>
<!-- 11&#45;&gt;13 -->
<g id="edge22" class="edge"><title>11&#45;&gt;13</title>
<path fill="none" stroke="black" d="M142.571,-51.4584C148.26,-60.5493 159.892,-79.1368 164.054,-85.7875"/>
</g>
<!-- 12 -->
<g id="node13" class="node"><title>12</title>
<ellipse fill="#1874cd" stroke="black" cx="120.338" cy="49.9501" rx="6" ry="6"/>
</g>
<!-- 16 -->
<g id="node17" class="node"><title>16</title>
<ellipse fill="white" stroke="black" cx="117.983" cy="0.809319" rx="1" ry="1"/>
</g>
<!-- 16&#45;&gt;11 -->
<g id="edge23" class="edge"><title>16&#45;&gt;11</title>
<path fill="none" stroke="black" d="M118.511,-0.355696C120.716,-5.21773 129.322,-24.1942 134.762,-36.1919"/>
<polygon fill="black" stroke="black" points="133.214,-37.0142 136.873,-40.8451 136.401,-35.5686 133.214,-37.0142"/>
<text text-anchor="middle" x="111.659" y="-23.1285" font-family="monospace" font-size="8.00">S1683I</text>
</g>
<!-- 16&#45;&gt;12 -->
<g id="edge24" class="edge"><title>16&#45;&gt;12</title>
<path fill="none" stroke="black" d="M118.041,2.02404C118.28,6.997 119.197,26.1315 119.797,38.667"/>
<polygon fill="black" stroke="black" points="121.556,38.8095 120.047,43.8876 118.06,38.9771 121.556,38.8095"/>
<text text-anchor="middle" x="105.54" y="20.2754" font-family="monospace" font-size="8.00">G317S</text>
</g>
<!-- anon_10_16_0 -->
<g id="node25" class="node"><title>anon_10_16_0</title>
<ellipse fill="white" stroke="black" cx="157.456" cy="18.6788" rx="1" ry="1"/>
</g>
<!-- 16&#45;&gt;anon_10_16_0 -->
<g id="edge21" class="edge"><title>16&#45;&gt;anon_10_16_0</title>
<path fill="none" stroke="black" d="M118.959,1.25104C123.363,3.24498 141.598,11.4998 151.307,15.8952"/>
<polygon fill="black" stroke="black" points="152.217,14.3864 156.051,18.0428 150.774,17.5749 152.217,14.3864"/>
<text text-anchor="middle" x="153.359" y="6.98088" font-family="monospace" font-size="8.00">I1940T</text>
</g>
<!-- anon_1_3_1 -->
<g id="node19" class="node"><title>anon_1_3_1</title>
<ellipse fill="white" stroke="black" cx="-171.629" cy="15.3904" rx="1" ry="1"/>
</g>
<!-- anon_1_3_0&#45;&gt;anon_1_3_1 -->
<g id="edge5" class="edge"><title>anon_1_3_0&#45;&gt;anon_1_3_1</title>
<path fill="none" stroke="black" d="M-130.957,8.25238C-136.577,9.23855 -163.501,13.964 -170.145,15.1299"/>
</g>
<!-- anon_1_3_1&#45;&gt;3 -->
<g id="edge6" class="edge"><title>anon_1_3_1&#45;&gt;3</title>
<path fill="none" stroke="black" d="M-172.636,15.6215C-177.833,16.8137 -201.676,22.284 -209.718,24.1292"/>
</g>
<!-- anon_1_16_1 -->
<g id="node21" class="node"><title>anon_1_16_1</title>
<ellipse fill="white" stroke="black" cx="31.9909" cy="-3.59249" rx="1" ry="1"/>
</g>
<!-- anon_1_16_0&#45;&gt;anon_1_16_1 -->
<g id="edge12" class="edge"><title>anon_1_16_0&#45;&gt;anon_1_16_1</title>
<path fill="none" stroke="black" d="M-10.1039,-5.3888C-4.28813,-5.14062 23.5789,-3.95145 30.4548,-3.65804"/>
</g>
<!-- anon_1_16_2 -->
<g id="node22" class="node"><title>anon_1_16_2</title>
<ellipse fill="white" stroke="black" cx="74.2211" cy="-1.86958" rx="1" ry="1"/>
</g>
<!-- anon_1_16_1&#45;&gt;anon_1_16_2 -->
<g id="edge13" class="edge"><title>anon_1_16_1&#45;&gt;anon_1_16_2</title>
<path fill="none" stroke="black" d="M33.0348,-3.5499C38.725,-3.31775 65.9906,-2.20537 72.7181,-1.9309"/>
</g>
<!-- anon_1_16_2&#45;&gt;16 -->
<g id="edge14" class="edge"><title>anon_1_16_2&#45;&gt;16</title>
<path fill="none" stroke="black" d="M75.3028,-1.80336C81.1994,-1.4424 109.454,0.287213 116.426,0.713976"/>
</g>
<!-- anon_2_4_1 -->
<g id="node24" class="node"><title>anon_2_4_1</title>
<ellipse fill="white" stroke="black" cx="-116.003" cy="-139.556" rx="1" ry="1"/>
</g>
<!-- anon_2_4_0&#45;&gt;anon_2_4_1 -->
<g id="edge16" class="edge"><title>anon_2_4_0&#45;&gt;anon_2_4_1</title>
<path fill="none" stroke="black" d="M-98.826,-103.642C-101.199,-108.604 -112.571,-132.379 -115.376,-138.245"/>
</g>
<!-- anon_2_4_1&#45;&gt;4 -->
<g id="edge17" class="edge"><title>anon_2_4_1&#45;&gt;4</title>
<path fill="none" stroke="black" d="M-116.471,-140.464C-118.884,-145.149 -129.957,-166.645 -133.693,-173.896"/>
</g>
<!-- anon_10_16_0&#45;&gt;10 -->
<g id="edge20" class="edge"><title>anon_10_16_0&#45;&gt;10</title>
<path fill="none" stroke="black" d="M158.335,19.2368C162.175,21.6729 177.845,31.6143 190.596,39.7036"/>
<polygon fill="black" stroke="black" points="191.85,38.4265 195.134,42.5828 189.975,41.3819 191.85,38.4265"/>
<text text-anchor="middle" x="163.206" y="28.2918" font-family="monospace" font-size="8.00">D466H</text>
</g>
</g>
</svg>
