<?xml version="1.0" encoding="UTF-8" standalone="no"?>
<!DOCTYPE svg PUBLIC "-//W3C//DTD SVG 1.1//EN"
 "http://www.w3.org/Graphics/SVG/1.1/DTD/svg11.dtd">
<!-- Generated by graphviz version 2.38.0 (20140413.2041)
 -->
<!-- Title: %3 Pages: 1 -->
<svg width="230pt" height="194pt"
 viewBox="0.00 0.00 230.41 194.15" xmlns="http://www.w3.org/2000/svg" xmlns:xlink="http://www.w3.org/1999/xlink">
<g id="graph0" class="graph" transform="scale(1 1) rotate(0) translate(111.931 106.343)">
<title>%3</title>
<polygon fill="white" stroke="none" points="-111.931,87.8089 -111.931,-106.343 118.479,-106.343 118.479,87.8089 -111.931,87.8089"/>
<!-- 0 -->
<g id="node1" class="node"><title>0</title>
<ellipse fill="#1874cd" stroke="black" cx="-46.5337" cy="-41.213" rx="15" ry="15"/>
</g>
<!-- 4 -->
<g id="node5" class="node"><title>4</title>
<ellipse fill="#1874cd" stroke="black" cx="-39.5008" cy="-99.8425" rx="2.5" ry="2.5"/>
</g>
<!-- 0&#45;&gt;4 -->
<g id="edge1" class="edge"><title>0&#45;&gt;4</title>
<path fill="none" stroke="black" d="M-44.7225,-56.3115C-43.0295,-70.4259 -40.6405,-90.3417 -39.8042,-97.3139"/>
</g>
<!-- 5 -->
<g id="node6" class="node"><title>5</title>
<ellipse fill="#1874cd" stroke="black" cx="-105.431" cy="-36.3169" rx="2.5" ry="2.5"/>
</g>
<!-- 0&#45;&gt;5 -->
<g id="edge2" class="edge"><title>0&#45;&gt;5</title>
<path fill="none" stroke="black" d="M-61.7012,-39.9521C-75.8801,-38.7734 -95.8868,-37.1103 -102.891,-36.528"/>
</g>
<!-- 1 -->
<g id="node2" class="node"><title>1</title>
<ellipse fill="#1874cd" stroke="black" cx="65.9605" cy="31.5747" rx="6" ry="6"/>
</g>
<!-- 3 -->
<g id="node4" class="node"><title>3</title>
<ellipse fill="#1874cd" stroke="black" cx="111.979" cy="35.3386" rx="2.5" ry="2.5"/>
</g>
<!-- 1&#45;&gt;3 -->
<g id="edge5" class="edge"><title>1&#45;&gt;3</title>
<path fill="none" stroke="black" d="M71.9767,32.0667C82.1118,32.8957 102.185,34.5375 109.357,35.1241"/>
</g>
<!-- 2 -->
<g id="node3" class="node"><title>2</title>
<ellipse fill="#1874cd" stroke="black" cx="2.6481" cy="77.8089" rx="6" ry="6"/>
</g>
<!-- 6 -->
<g id="node7" class="node"><title>6</title>
<ellipse fill="white" stroke="black" cx="18.5936" cy="32.3319" rx="1" ry="1"/>
</g>
<!-- 6&#45;&gt;1 -->
<g id="edge6" class="edge"><title>6&#45;&gt;1</title>
<path fill="none" stroke="black" d="M19.7645,32.3132C24.5085,32.2374 42.6229,31.9478 54.709,31.7545"/>
<polygon fill="black" stroke="black" points="54.7408,30.0039 59.7681,31.6737 54.7968,33.5035 54.7408,30.0039"/>
<text text-anchor="middle" x="23.9174" y="29.391" font-family="monospace" font-size="8.00">S1683I</text>
</g>
<!-- 6&#45;&gt;2 -->
<g id="edge7" class="edge"><title>6&#45;&gt;2</title>
<path fill="none" stroke="black" d="M18.1994,33.4561C16.6024,38.0108 10.5044,55.4024 6.43581,67.0063"/>
<polygon fill="black" stroke="black" points="8.03858,67.7243 4.7327,71.8636 4.73572,66.5662 8.03858,67.7243"/>
<text text-anchor="middle" x="-2.08481" y="50.2049" font-family="monospace" font-size="8.00">G317S</text>
</g>
<!-- anon_0_6_0 -->
<g id="node8" class="node"><title>anon_0_6_0</title>
<ellipse fill="white" stroke="black" cx="-7.71593" cy="0.318248" rx="1" ry="1"/>
</g>
<!-- 6&#45;&gt;anon_0_6_0 -->
<g id="edge4" class="edge"><title>6&#45;&gt;anon_0_6_0</title>
<path fill="none" stroke="black" d="M17.9432,31.5406C15.0629,28.0358 3.30908,13.7336 -3.24543,5.75799"/>
<polygon fill="black" stroke="black" points="-4.95695,6.43166 -6.77956,1.45763 -2.25291,4.20942 -4.95695,6.43166"/>
<text text-anchor="middle" x="-10.4203" y="13.8965" font-family="monospace" font-size="8.00">I1940T</text>
</g>
<!-- anon_0_6_0&#45;&gt;0 -->
<g id="edge3" class="edge"><title>anon_0_6_0&#45;&gt;0</title>
<path fill="none" stroke="black" d="M-8.67548,-0.708371C-11.9737,-4.23712 -23.1577,-16.2029 -32.5213,-26.2211"/>
<polygon fill="black" stroke="black" points="-33.9955,-25.2355 -36.1312,-30.0834 -31.4385,-27.6255 -33.9955,-25.2355"/>
<text text-anchor="middle" x="-35.6713" y="-17.7476" font-family="monospace" font-size="8.00">D466H</text>
</g>
</g>
</svg>
