<?xml version="1.0" encoding="UTF-8" standalone="no"?>
<!DOCTYPE svg PUBLIC "-//W3C//DTD SVG 1.1//EN"
 "http://www.w3.org/Graphics/SVG/1.1/DTD/svg11.dtd">
<!-- Generated by graphviz version 2.38.0 (20140413.2041)
 -->
<!-- Title: %3 Pages: 1 -->
<svg width="447pt" height="513pt"
 viewBox="0.00 0.00 447.28 512.76" xmlns="http://www.w3.org/2000/svg" xmlns:xlink="http://www.w3.org/1999/xlink">
<g id="graph0" class="graph" transform="scale(1 1) rotate(0) translate(206.09 203.648)">
<title>%3</title>
<polygon fill="white" stroke="none" points="-206.09,309.111 -206.09,-203.648 241.193,-203.648 241.193,309.111 -206.09,309.111"/>
<!-- 0 -->
<g id="node1" class="node"><title>0</title>
<path fill="#98f5ff" stroke="black" stroke-width="0.5" d="M-52.3933,-128.437C-52.3933,-128.437 -34.3933,-128.437 -34.3933,-128.437 -34.3933,-129.475 -34.483,-130.51 -34.6613,-131.532 -34.8397,-132.554 -35.106,-133.559 -35.4574,-134.535 -35.8088,-135.511 -36.244,-136.454 -36.7579,-137.356 -37.2719,-138.257 -37.8628,-139.112 -38.5241,-139.911 -39.1853,-140.71 -39.9144,-141.451 -40.7032,-142.125 -41.492,-142.798 -42.3376,-143.403 -43.2305,-143.931 -44.1235,-144.459 -45.0603,-144.909 -46.0307,-145.275 -47.0011,-145.642 -48.0014,-145.924 -49.0204,-146.119 -49.0204,-146.119 -52.3933,-128.437 -52.3933,-128.437"/>
<path fill="deepskyblue" stroke="black" stroke-width="0.5" d="M-52.3933,-128.437C-52.3933,-128.437 -49.0204,-146.119 -49.0204,-146.119 -49.9235,-146.291 -50.8385,-146.394 -51.7573,-146.426 -52.676,-146.459 -53.596,-146.421 -54.509,-146.313 -55.422,-146.205 -56.3253,-146.027 -57.2112,-145.781 -58.097,-145.535 -58.9626,-145.221 -59.8006,-144.843 -60.6385,-144.464 -61.4462,-144.022 -62.2165,-143.521 -62.9869,-143.019 -63.7178,-142.459 -64.4026,-141.845 -65.0874,-141.232 -65.7242,-140.567 -66.3075,-139.856 -66.8907,-139.146 -67.4187,-138.391 -67.8866,-137.6 -68.3546,-136.809 -68.7613,-135.983 -69.1031,-135.129 -69.4449,-134.276 -69.7208,-133.397 -69.9284,-132.502 -70.136,-131.606 -70.2747,-130.696 -70.3432,-129.779 -70.4117,-128.862 -70.4099,-127.942 -70.3378,-127.025 -70.2657,-126.109 -70.1234,-125.199 -69.9123,-124.304 -69.7012,-123.409 -69.4219,-122.532 -69.0767,-121.68 -68.7316,-120.828 -68.3216,-120.003 -67.8505,-119.214 -67.3794,-118.424 -66.8486,-117.672 -66.2625,-116.964 -65.6765,-116.255 -65.0371,-115.593 -64.3498,-114.982 -63.6626,-114.371 -62.9296,-113.814 -62.1572,-113.316 -61.3849,-112.817 -60.5755,-112.378 -59.7361,-112.003 -58.8967,-111.628 -58.0298,-111.318 -57.143,-111.075 -56.2562,-110.833 -55.3522,-110.658 -54.4388,-110.554 -53.5253,-110.449 -52.6053,-110.415 -51.6866,-110.451 -50.768,-110.487 -49.8534,-110.594 -48.951,-110.77 -48.0486,-110.945 -47.161,-111.19 -46.296,-111.501 -45.431,-111.813 -44.5911,-112.19 -43.7837,-112.63 -42.9764,-113.07 -42.2039,-113.571 -41.473,-114.128 -40.7422,-114.686 -40.0551,-115.299 -39.4179,-115.962 -38.7807,-116.624 -38.1952,-117.335 -37.6666,-118.087 -37.138,-118.839 -36.6677,-119.631 -36.26,-120.455 -35.8523,-121.279 -35.5083,-122.133 -35.2311,-123.01 -34.9539,-123.886 -34.7442,-124.783 -34.604,-125.691 -34.4637,-126.6 -34.3933,-127.518 -34.3933,-128.437 -34.3933,-128.437 -52.3933,-128.437 -52.3933,-128.437"/>
<ellipse fill="none" stroke="black" cx="-52.3933" cy="-128.437" rx="18" ry="18"/>
<text text-anchor="middle" x="-52.3933" y="-126.537" font-family="monospace" font-size="8.00">0</text>
</g>
<!-- 22 -->
<g id="node23" class="node"><title>22</title>
<ellipse fill="deepskyblue" stroke="black" cx="-66.037" cy="-195.535" rx="2.5" ry="2.5"/>
<text text-anchor="middle" x="-66.037" y="-193.635" font-family="monospace" font-size="8.00">22</text>
</g>
<!-- 0&#45;&gt;22 -->
<g id="edge2" class="edge"><title>0&#45;&gt;22</title>
<path fill="none" stroke="black" d="M-56.0496,-146.418C-59.3332,-162.567 -63.8742,-184.899 -65.4616,-192.705"/>
</g>
<!-- 24 -->
<g id="node25" class="node"><title>24</title>
<ellipse fill="deepskyblue" stroke="black" cx="-107.3" cy="-178.425" rx="2.5" ry="2.5"/>
<text text-anchor="middle" x="-107.3" y="-176.525" font-family="monospace" font-size="8.00">24</text>
</g>
<!-- 0&#45;&gt;24 -->
<g id="edge3" class="edge"><title>0&#45;&gt;24</title>
<path fill="none" stroke="black" d="M-65.9656,-140.794C-77.3265,-151.137 -92.9913,-165.398 -101.399,-173.053"/>
<polygon fill="black" stroke="black" points="-102.73,-171.898 -105.25,-176.558 -100.374,-174.486 -102.73,-171.898"/>
<text text-anchor="middle" x="-96.3874" y="-161.076" font-family="monospace" font-size="8.00">P55L</text>
</g>
<!-- 58 -->
<g id="node59" class="node"><title>58</title>
<ellipse fill="black" stroke="black" cx="-25.5748" cy="-197.148" rx="2.5" ry="2.5"/>
<text text-anchor="middle" x="-25.5748" y="-195.248" font-family="monospace" font-size="8.00">58</text>
</g>
<!-- 0&#45;&gt;58 -->
<g id="edge4" class="edge"><title>0&#45;&gt;58</title>
<path fill="none" stroke="black" d="M-45.764,-145.422C-39.1873,-162.272 -29.6577,-186.687 -26.5761,-194.582"/>
</g>
<!-- 1 -->
<g id="node2" class="node"><title>1</title>
<ellipse fill="deepskyblue" stroke="black" cx="140.216" cy="-19.3281" rx="2.5" ry="2.5"/>
<text text-anchor="middle" x="140.216" y="-17.4281" font-family="monospace" font-size="8.00">1</text>
</g>
<!-- 3 -->
<g id="node4" class="node"><title>3</title>
<path fill="#98f5ff" stroke="black" stroke-width="0.5" d="M101.245,-19.2013C101.245,-19.2013 125.245,-19.2013 125.245,-19.2013 125.245,-19.8995 125.214,-20.5975 125.153,-21.293 125.092,-21.9886 125.001,-22.6812 124.88,-23.3689 124.759,-24.0565 124.608,-24.7385 124.427,-25.413 124.246,-26.0874 124.036,-26.7537 123.797,-27.4098 123.797,-27.4098 101.245,-19.2013 101.245,-19.2013"/>
<path fill="deepskyblue" stroke="black" stroke-width="0.5" d="M101.245,-19.2013C101.245,-19.2013 123.797,-27.4098 123.797,-27.4098 123.463,-28.3285 123.073,-29.2259 122.629,-30.0971 122.185,-30.9682 121.688,-31.8114 121.141,-32.6219 120.595,-33.4325 119.999,-34.2088 119.358,-34.9467 118.716,-35.6846 118.03,-36.3826 117.304,-37.0368 116.577,-37.691 115.811,-38.3002 115.01,-38.861 114.21,-39.4217 113.375,-39.933 112.512,-40.392 111.649,-40.851 110.758,-41.2569 109.845,-41.6072 108.933,-41.9576 107.999,-42.2519 107.051,-42.4884 106.102,-42.7249 105.14,-42.9033 104.169,-43.0224 103.199,-43.1416 102.222,-43.2013 101.245,-43.2013 100.267,-43.2013 99.2901,-43.1416 98.3197,-43.0224 97.3493,-42.9033 96.3871,-42.7249 95.4385,-42.4884 94.4898,-42.2519 93.5565,-41.9576 92.6438,-41.6072 91.731,-41.2569 90.8405,-40.851 89.9773,-40.392 89.114,-39.933 88.2796,-39.4217 87.4787,-38.8609 86.6779,-38.3002 85.912,-37.691 85.1854,-37.0368 85.1854,-37.0368 101.245,-19.2013 101.245,-19.2013"/>
<path fill="#ff3030" stroke="black" stroke-width="0.5" d="M101.245,-19.2013C101.245,-19.2013 85.1854,-37.0368 85.1854,-37.0368 84.381,-36.3124 83.6264,-35.5345 82.927,-34.7083 82.2276,-33.8821 81.5848,-33.0095 81.0032,-32.0965 80.4216,-31.1835 79.9024,-30.2322 79.4491,-29.2491 78.9959,-28.2661 78.6098,-27.2534 78.2933,-26.2182 77.9768,-25.183 77.7307,-24.1276 77.5567,-23.0591 77.3827,-21.9907 77.2811,-20.9117 77.2528,-19.8295 77.2245,-18.7474 77.2694,-17.6646 77.3872,-16.5885 77.5051,-15.5124 77.6956,-14.4455 77.9575,-13.3952 78.2194,-12.3448 78.552,-11.3134 78.9532,-10.3079 79.3543,-9.30247 79.823,-8.32531 80.356,-7.38313 80.8891,-6.44096 81.4853,-5.53593 82.1405,-4.67424 82.7958,-3.81256 83.5086,-2.99619 84.274,-2.23074 85.0395,-1.46528 85.8558,-0.752492 86.7175,-0.0972515 87.5792,0.557989 88.4842,1.15418 89.4264,1.68724 90.3686,2.22029 91.3458,2.68899 92.3512,3.09013 93.3567,3.49126 94.3881,3.82391 95.4385,4.0858 95.4385,4.0858 101.245,-19.2013 101.245,-19.2013"/>
<path fill="#1874cd" stroke="black" stroke-width="0.5" d="M101.245,-19.2013C101.245,-19.2013 95.4385,4.0858 95.4385,4.0858 96.3193,4.30542 97.2119,4.47488 98.112,4.59338 99.012,4.71187 99.9181,4.7792 100.826,4.79504 101.733,4.81089 102.641,4.77522 103.545,4.68821 104.449,4.6012 105.346,4.46299 106.234,4.27424 107.122,4.0855 107.999,3.84652 108.86,3.55847 109.721,3.27041 110.565,2.93374 111.387,2.55008 112.21,2.16643 113.011,1.73639 113.785,1.26206 114.559,0.78773 115.305,0.269862 116.02,-0.289044 116.736,-0.847951 117.419,-1.447 118.066,-2.08329 118.714,-2.71959 119.325,-3.39211 119.896,-4.09761 120.467,-4.80312 120.998,-5.54047 121.486,-6.30611 121.974,-7.07175 122.418,-7.86446 122.816,-8.68039 123.214,-9.49633 123.565,-10.3342 123.868,-11.1899 124.171,-12.0457 124.425,-12.9179 124.629,-13.8025 124.834,-14.687 124.988,-15.5824 125.09,-16.4844 125.193,-17.3864 125.245,-18.2935 125.245,-19.2013 125.245,-19.2013 101.245,-19.2013 101.245,-19.2013"/>
<ellipse fill="none" stroke="black" cx="101.245" cy="-19.2013" rx="24" ry="24"/>
<text text-anchor="middle" x="101.245" y="-17.3013" font-family="monospace" font-size="8.00">3</text>
</g>
<!-- 1&#45;&gt;3 -->
<g id="edge5" class="edge"><title>1&#45;&gt;3</title>
<path fill="none" stroke="black" d="M137.659,-19.3198C134.95,-19.311 130.378,-19.2961 125.371,-19.2798"/>
</g>
<!-- 2 -->
<g id="node3" class="node"><title>2</title>
<ellipse fill="#ff3030" stroke="black" cx="-100.938" cy="-59.0363" rx="10" ry="10"/>
<text text-anchor="middle" x="-100.938" y="-57.1363" font-family="monospace" font-size="8.00">2</text>
</g>
<!-- 60 -->
<g id="node61" class="node"><title>60</title>
<ellipse fill="white" stroke="black" cx="-155.067" cy="-85.6927" rx="1" ry="1"/>
<text text-anchor="middle" x="-155.067" y="-83.7927" font-family="monospace" font-size="8.00">60</text>
</g>
<!-- 2&#45;&gt;60 -->
<g id="edge7" class="edge"><title>2&#45;&gt;60</title>
<path fill="none" stroke="black" d="M-110.366,-63.6795C-121.498,-69.1613 -139.68,-78.1149 -149.056,-82.7322"/>
<polygon fill="black" stroke="black" points="-150.07,-81.2811 -153.783,-85.0601 -148.524,-84.421 -150.07,-81.2811"/>
<text text-anchor="middle" x="-148.361" y="-77.111" font-family="monospace" font-size="8.00">P1874S</text>
</g>
<!-- 10 -->
<g id="node11" class="node"><title>10</title>
<ellipse fill="#ff3030" stroke="black" cx="110.838" cy="34.5163" rx="2.5" ry="2.5"/>
<text text-anchor="middle" x="110.838" y="36.4163" font-family="monospace" font-size="8.00">10</text>
</g>
<!-- 3&#45;&gt;10 -->
<g id="edge9" class="edge"><title>3&#45;&gt;10</title>
<path fill="none" stroke="black" d="M105.48,4.51639C107.408,15.309 109.457,26.7877 110.362,31.8524"/>
</g>
<!-- 16 -->
<g id="node17" class="node"><title>16</title>
<ellipse fill="#ff3030" stroke="black" cx="165.616" cy="19.2446" rx="2.5" ry="2.5"/>
<text text-anchor="middle" x="165.616" y="21.1446" font-family="monospace" font-size="8.00">16</text>
</g>
<!-- 3&#45;&gt;16 -->
<g id="edge10" class="edge"><title>3&#45;&gt;16</title>
<path fill="none" stroke="black" d="M121.967,-6.82514C134.628,0.737024 150.013,9.92531 158.723,15.1278"/>
<polygon fill="black" stroke="black" points="159.805,13.7356 163.201,17.8019 158.011,16.7405 159.805,13.7356"/>
<text text-anchor="middle" x="128.936" y="11.8003" font-family="monospace" font-size="8.00">M704V</text>
</g>
<!-- 18 -->
<g id="node19" class="node"><title>18</title>
<ellipse fill="deepskyblue" stroke="black" cx="101.028" cy="-66.029" rx="2.5" ry="2.5"/>
<text text-anchor="middle" x="101.028" y="-64.129" font-family="monospace" font-size="8.00">18</text>
</g>
<!-- 3&#45;&gt;18 -->
<g id="edge11" class="edge"><title>3&#45;&gt;18</title>
<path fill="none" stroke="black" d="M101.132,-43.4381C101.095,-51.4722 101.059,-59.377 101.04,-63.3623"/>
</g>
<!-- 21 -->
<g id="node22" class="node"><title>21</title>
<ellipse fill="deepskyblue" stroke="black" cx="88.1994" cy="22.5515" rx="2.5" ry="2.5"/>
<text text-anchor="middle" x="88.1994" y="24.4515" font-family="monospace" font-size="8.00">21</text>
</g>
<!-- 3&#45;&gt;21 -->
<g id="edge12" class="edge"><title>3&#45;&gt;21</title>
<path fill="none" stroke="black" d="M93.9592,4.11657C91.9982,10.3929 90.1305,16.3708 89.0782,19.739"/>
</g>
<!-- 25 -->
<g id="node26" class="node"><title>25</title>
<ellipse fill="deepskyblue" stroke="black" cx="135.109" cy="28.4448" rx="2.5" ry="2.5"/>
<text text-anchor="middle" x="135.109" y="30.3448" font-family="monospace" font-size="8.00">25</text>
</g>
<!-- 3&#45;&gt;25 -->
<g id="edge13" class="edge"><title>3&#45;&gt;25</title>
<path fill="none" stroke="black" d="M115.214,0.453282C122.356,10.5019 130.224,21.5717 133.52,26.2087"/>
</g>
<!-- 29 -->
<g id="node30" class="node"><title>29</title>
<ellipse fill="deepskyblue" stroke="black" cx="165.214" cy="-3.86334" rx="2.5" ry="2.5"/>
<text text-anchor="middle" x="165.214" y="-1.96334" font-family="monospace" font-size="8.00">29</text>
</g>
<!-- 3&#45;&gt;29 -->
<g id="edge14" class="edge"><title>3&#45;&gt;29</title>
<path fill="none" stroke="black" d="M124.701,-13.5771C136.294,-10.7974 149.5,-7.631 157.596,-5.68992"/>
<polygon fill="black" stroke="black" points="158.225,-7.33876 162.679,-4.4711 157.409,-3.93522 158.225,-7.33876"/>
<text text-anchor="middle" x="159.535" y="-11.6612" font-family="monospace" font-size="8.00">V1303A</text>
</g>
<!-- 30 -->
<g id="node31" class="node"><title>30</title>
<ellipse fill="deepskyblue" stroke="black" cx="110.321" cy="-106.201" rx="2.5" ry="2.5"/>
<text text-anchor="middle" x="110.321" y="-104.301" font-family="monospace" font-size="8.00">30</text>
</g>
<!-- 3&#45;&gt;30 -->
<g id="edge15" class="edge"><title>3&#45;&gt;30</title>
<path fill="none" stroke="black" d="M103.773,-43.4356C106.039,-65.1559 109.143,-94.907 110.058,-103.674"/>
</g>
<!-- 34 -->
<g id="node35" class="node"><title>34</title>
<ellipse fill="#ff3030" stroke="black" cx="147.404" cy="-81.8989" rx="2.5" ry="2.5"/>
<text text-anchor="middle" x="147.404" y="-79.9989" font-family="monospace" font-size="8.00">34</text>
</g>
<!-- 3&#45;&gt;34 -->
<g id="edge16" class="edge"><title>3&#45;&gt;34</title>
<path fill="none" stroke="black" d="M117.228,-37.7756C122.414,-44.0747 128.07,-51.2457 132.89,-58.0677 138.258,-65.6634 143.738,-75.2706 146.142,-79.5995"/>
</g>
<!-- 36 -->
<g id="node37" class="node"><title>36</title>
<ellipse fill="#ff3030" stroke="black" cx="131.116" cy="-59.8291" rx="2.5" ry="2.5"/>
<text text-anchor="middle" x="131.116" y="-57.9291" font-family="monospace" font-size="8.00">36</text>
</g>
<!-- 3&#45;&gt;36 -->
<g id="edge19" class="edge"><title>3&#45;&gt;36</title>
<path fill="none" stroke="black" d="M115.481,-38.5633C121.131,-46.2479 126.915,-54.1145 129.589,-57.7515"/>
</g>
<!-- 41 -->
<g id="node42" class="node"><title>41</title>
<ellipse fill="#1874cd" stroke="black" cx="59.9722" cy="-46.9985" rx="2.5" ry="2.5"/>
<text text-anchor="middle" x="59.9722" y="-45.0985" font-family="monospace" font-size="8.00">41</text>
</g>
<!-- 3&#45;&gt;41 -->
<g id="edge22" class="edge"><title>3&#45;&gt;41</title>
<path fill="none" stroke="black" d="M81.092,-32.7742C73.5619,-37.8458 65.9458,-42.9753 62.2574,-45.4594"/>
</g>
<!-- 43 -->
<g id="node44" class="node"><title>43</title>
<ellipse fill="#1874cd" stroke="black" cx="168.401" cy="-66.4983" rx="2.5" ry="2.5"/>
<text text-anchor="middle" x="168.401" y="-64.5983" font-family="monospace" font-size="8.00">43</text>
</g>
<!-- 3&#45;&gt;43 -->
<g id="edge23" class="edge"><title>3&#45;&gt;43</title>
<path fill="none" stroke="black" d="M121.03,-33.1361C137.435,-44.6897 159.156,-59.9871 166.138,-64.9043"/>
</g>
<!-- 44 -->
<g id="node45" class="node"><title>44</title>
<ellipse fill="#1874cd" stroke="black" cx="167.157" cy="-42.4548" rx="2.5" ry="2.5"/>
<text text-anchor="middle" x="167.157" y="-40.5548" font-family="monospace" font-size="8.00">44</text>
</g>
<!-- 3&#45;&gt;44 -->
<g id="edge24" class="edge"><title>3&#45;&gt;44</title>
<path fill="none" stroke="black" d="M123.928,-27.2038C139.121,-32.5639 157.551,-39.0659 164.412,-41.4861"/>
</g>
<!-- 46 -->
<g id="node47" class="node"><title>46</title>
<ellipse fill="#1874cd" stroke="black" cx="188.721" cy="-22.0613" rx="2.5" ry="2.5"/>
<text text-anchor="middle" x="188.721" y="-20.1613" font-family="monospace" font-size="8.00">46</text>
</g>
<!-- 3&#45;&gt;46 -->
<g id="edge27" class="edge"><title>3&#45;&gt;46</title>
<path fill="none" stroke="black" d="M125.542,-21.0753C130.393,-21.383 135.453,-21.6569 140.194,-21.828 157.707,-22.46 178.797,-22.219 186.09,-22.1064"/>
</g>
<!-- 56 -->
<g id="node57" class="node"><title>56</title>
<ellipse fill="#98f5ff" stroke="black" cx="97.0372" cy="55.567" rx="2.5" ry="2.5"/>
<text text-anchor="middle" x="97.0372" y="57.467" font-family="monospace" font-size="8.00">56</text>
</g>
<!-- 3&#45;&gt;56 -->
<g id="edge28" class="edge"><title>3&#45;&gt;56</title>
<path fill="none" stroke="black" d="M99.8902,4.86741C98.8908,22.6263 97.632,44.9967 97.1951,52.7612"/>
</g>
<!-- 59 -->
<g id="node60" class="node"><title>59</title>
<ellipse fill="black" stroke="black" cx="96.8372" cy="-91.5479" rx="2.5" ry="2.5"/>
<text text-anchor="middle" x="96.8372" y="-89.6479" font-family="monospace" font-size="8.00">59</text>
</g>
<!-- 3&#45;&gt;59 -->
<g id="edge29" class="edge"><title>3&#45;&gt;59</title>
<path fill="none" stroke="black" d="M99.777,-43.2917C98.7353,-60.3913 97.4456,-81.5607 96.9986,-88.8981"/>
</g>
<!-- anon_3_35_0 -->
<g id="node63" class="node"><title>anon_3_35_0</title>
<ellipse fill="white" stroke="black" cx="159.026" cy="46.9518" rx="1" ry="1"/>
</g>
<!-- 3&#45;&gt;anon_3_35_0 -->
<g id="edge17" class="edge"><title>3&#45;&gt;anon_3_35_0</title>
<path fill="none" stroke="black" d="M117.034,-1.12467C132.003,16.0137 152.926,39.9685 157.923,45.6894"/>
</g>
<!-- anon_3_40_0 -->
<g id="node64" class="node"><title>anon_3_40_0</title>
<ellipse fill="white" stroke="black" cx="139.609" cy="-105.108" rx="1" ry="1"/>
</g>
<!-- 3&#45;&gt;anon_3_40_0 -->
<g id="edge20" class="edge"><title>3&#45;&gt;anon_3_40_0</title>
<path fill="none" stroke="black" d="M111.124,-41.3244C121.426,-64.3916 136.45,-98.0342 139.176,-104.139"/>
</g>
<!-- anon_3_45_0 -->
<g id="node65" class="node"><title>anon_3_45_0</title>
<ellipse fill="white" stroke="black" cx="127.711" cy="67.6487" rx="1" ry="1"/>
</g>
<!-- 3&#45;&gt;anon_3_45_0 -->
<g id="edge25" class="edge"><title>3&#45;&gt;anon_3_45_0</title>
<path fill="none" stroke="black" d="M108.337,4.07291C115.442,27.3871 125.58,60.6585 127.419,66.6919"/>
</g>
<!-- 4 -->
<g id="node5" class="node"><title>4</title>
<path fill="#98f5ff" stroke="black" stroke-width="0.5" d="M-98.3835,68.9913C-98.3835,68.9913 -75.8835,68.9913 -75.8835,68.9913 -75.8835,67.9714 -75.9528,66.9527 -76.091,65.9422 -76.2292,64.9317 -76.436,63.9318 -76.7099,62.9494 -76.9838,61.9669 -77.3241,61.0042 -77.7286,60.068 -78.1331,59.1317 -78.6008,58.224 -79.1284,57.3512 -79.656,56.4784 -80.2424,55.6425 -80.8834,54.8492 -81.5245,54.056 -82.2187,53.3072 -82.9614,52.6082 -83.704,51.9091 -84.4933,51.2613 -85.3238,50.6693 -86.1543,50.0774 -87.0241,49.5425 -87.9272,49.0686 -88.8303,48.5946 -89.7645,48.1826 -90.7235,47.8354 -91.6825,47.4881 -92.664,47.2065 -93.6611,46.9925 -94.6583,46.7784 -95.6689,46.6324 -96.6859,46.5555 -97.7029,46.4785 -98.7239,46.4708 -99.742,46.5324 -100.76,46.594 -101.773,46.7247 -102.773,46.9237 -103.773,47.1226 -104.759,47.3894 -105.723,47.7221 -106.687,48.0548 -107.628,48.4526 -108.538,48.9129 -109.448,49.3732 -110.326,49.8948 -111.165,50.4742 -111.165,50.4742 -98.3835,68.9913 -98.3835,68.9913"/>
<path fill="deepskyblue" stroke="black" stroke-width="0.5" d="M-98.3835,68.9913C-98.3835,68.9913 -111.165,50.4742 -111.165,50.4742 -111.802,50.914 -112.416,51.3864 -113.005,51.8896 -113.593,52.3927 -114.155,52.9258 -114.689,53.4869 -115.222,54.048 -115.727,54.6362 -116.199,55.2493 -116.672,55.8624 -117.113,56.4994 -117.52,57.1579 -117.928,57.8165 -118.3,58.4955 -118.638,59.1925 -118.975,59.8895 -119.276,60.6034 -119.539,61.3314 -119.803,62.0594 -120.029,62.8005 -120.216,63.5517 -120.403,64.303 -120.551,65.0635 -120.66,65.83 -120.769,66.5966 -120.838,67.3682 -120.867,68.1419 -120.897,68.9156 -120.886,69.6903 -120.835,70.4629 -120.785,71.2355 -120.694,72.0049 -120.564,72.7682 -120.434,73.5314 -120.265,74.2875 -120.057,75.0333 -119.849,75.7791 -119.603,76.5137 -119.319,77.2341 -119.036,77.9545 -118.715,78.6598 -118.359,79.3472 -118.002,80.0345 -117.611,80.703 -117.185,81.35 -116.76,81.997 -116.302,82.6216 -115.812,83.2213 -115.322,83.8211 -114.802,84.3951 -114.253,84.9412 -113.704,85.4873 -113.128,86.0047 -112.526,86.4914 -111.923,86.978 -111.296,87.4332 -110.647,87.8552 -109.998,88.2773 -109.328,88.6655 -108.639,89.0184 -107.949,89.3712 -107.243,89.6883 -106.521,89.9683 -105.799,90.2483 -105.063,90.4909 -104.316,90.6951 -103.569,90.8992 -102.813,91.0647 -102.049,91.1908 -101.285,91.3169 -100.515,91.4035 -99.742,91.4503 -98.9692,91.497 -98.1944,91.5038 -97.4209,91.4707 -96.6474,91.4376 -95.8761,91.3646 -95.11,91.2519 -94.344,91.1393 -93.5844,90.9872 -92.834,90.7962 -92.0837,90.6053 -91.3438,90.3757 -90.6171,90.1085 -89.8904,89.8412 -89.1781,89.5366 -88.4828,89.1959 -87.7875,88.8553 -87.1103,88.4789 -86.4539,88.0684 -85.7974,87.6579 -85.1626,87.2138 -84.5519,86.7378 -83.9413,86.2619 -83.3556,85.7547 -82.7972,85.2184 -82.7972,85.2184 -98.3835,68.9913 -98.3835,68.9913"/>
<path fill="#ff3030" stroke="black" stroke-width="0.5" d="M-98.3835,68.9913C-98.3835,68.9913 -82.7972,85.2184 -82.7972,85.2184 -82.2524,84.6951 -81.7343,84.1448 -81.2449,83.5694 -80.7555,82.9941 -80.2954,82.3944 -79.8663,81.7728 -79.4372,81.1511 -79.0397,80.5083 -78.6753,79.8467 -78.3109,79.185 -77.98,78.5055 -77.6839,77.8106 -77.3879,77.1157 -77.127,76.4063 -76.9022,75.6851 -76.6775,74.964 -76.4893,74.232 -76.3382,73.4919 -76.1871,72.7518 -76.0734,72.0046 -75.9974,71.2531 -75.9215,70.5015 -75.8835,69.7467 -75.8835,68.9913 -75.8835,68.9913 -98.3835,68.9913 -98.3835,68.9913"/>
<ellipse fill="none" stroke="black" cx="-98.3835" cy="68.9913" rx="22.5" ry="22.5"/>
<text text-anchor="middle" x="-98.3835" y="70.8913" font-family="monospace" font-size="8.00">4</text>
</g>
<!-- 11 -->
<g id="node12" class="node"><title>11</title>
<ellipse fill="deepskyblue" stroke="black" cx="-137.129" cy="57.5481" rx="2.5" ry="2.5"/>
<text text-anchor="middle" x="-137.129" y="59.4481" font-family="monospace" font-size="8.00">11</text>
</g>
<!-- 4&#45;&gt;11 -->
<g id="edge31" class="edge"><title>4&#45;&gt;11</title>
<path fill="none" stroke="black" d="M-120.022,62.6006C-125.846,60.8804 -131.393,59.242 -134.519,58.3189"/>
</g>
<!-- 55 -->
<g id="node56" class="node"><title>55</title>
<ellipse fill="#98f5ff" stroke="black" cx="-177.273" cy="104.916" rx="2.5" ry="2.5"/>
<text text-anchor="middle" x="-177.273" y="106.816" font-family="monospace" font-size="8.00">55</text>
</g>
<!-- 4&#45;&gt;55 -->
<g id="edge32" class="edge"><title>4&#45;&gt;55</title>
<path fill="none" stroke="black" d="M-119.111,78.4301C-138.832,87.4108 -166.681,100.092 -174.902,103.836"/>
</g>
<!-- 5 -->
<g id="node6" class="node"><title>5</title>
<ellipse fill="#ff3030" stroke="black" cx="-129.313" cy="-35.4919" rx="12.5" ry="12.5"/>
<text text-anchor="middle" x="-129.313" y="-33.5919" font-family="monospace" font-size="8.00">5</text>
</g>
<!-- 32 -->
<g id="node33" class="node"><title>32</title>
<ellipse fill="#ff3030" stroke="black" cx="-148.652" cy="12.7568" rx="2.5" ry="2.5"/>
<text text-anchor="middle" x="-148.652" y="14.6568" font-family="monospace" font-size="8.00">32</text>
</g>
<!-- 5&#45;&gt;32 -->
<g id="edge34" class="edge"><title>5&#45;&gt;32</title>
<path fill="none" stroke="black" d="M-133.994,-23.8123C-138.555,-12.4334 -145.155,4.03207 -147.648,10.2517"/>
</g>
<!-- 38 -->
<g id="node39" class="node"><title>38</title>
<ellipse fill="#ff3030" stroke="black" cx="-186.64" cy="-56.2302" rx="2.5" ry="2.5"/>
<text text-anchor="middle" x="-186.64" y="-54.3302" font-family="monospace" font-size="8.00">38</text>
</g>
<!-- 5&#45;&gt;38 -->
<g id="edge35" class="edge"><title>5&#45;&gt;38</title>
<path fill="none" stroke="black" d="M-141.191,-39.7889C-154.834,-44.7243 -176.311,-52.4935 -183.885,-55.2334"/>
</g>
<!-- 39 -->
<g id="node40" class="node"><title>39</title>
<ellipse fill="#ff3030" stroke="black" cx="-192.819" cy="-21.8136" rx="2.5" ry="2.5"/>
<text text-anchor="middle" x="-192.819" y="-19.9136" font-family="monospace" font-size="8.00">39</text>
</g>
<!-- 5&#45;&gt;39 -->
<g id="edge36" class="edge"><title>5&#45;&gt;39</title>
<path fill="none" stroke="black" d="M-141.557,-32.8546C-156.84,-29.563 -181.965,-24.1513 -190.151,-22.3883"/>
</g>
<!-- 5&#45;&gt;60 -->
<g id="edge71" class="edge"><title>5&#45;&gt;60</title>
<path fill="none" stroke="black" stroke-dasharray="5,2" d="M-135.028,-46.6331C-140.319,-56.9454 -147.974,-71.8668 -152.124,-79.9562"/>
<polygon fill="black" stroke="black" points="-153.792,-79.3734 -154.518,-84.621 -150.678,-80.9711 -153.792,-79.3734"/>
<text text-anchor="middle" x="-160.87" y="-68.4158" font-family="monospace" font-size="8.00">A1934V</text>
</g>
<!-- 6 -->
<g id="node7" class="node"><title>6</title>
<path fill="deepskyblue" stroke="black" stroke-width="0.5" d="M-30.9244,-9.59291C-30.9244,-9.59291 -6.42436,-9.59291 -6.42436,-9.59291 -6.42436,-10.4207 -6.46632,-11.248 -6.55007,-12.0715 -6.63381,-12.8951 -6.75924,-13.7139 -6.92588,-14.5247 -7.09252,-15.3356 -7.30014,-16.1375 -7.54795,-16.9273 -7.79576,-17.7171 -8.08345,-18.4939 -8.4099,-19.2546 -8.4099,-19.2546 -30.9244,-9.59291 -30.9244,-9.59291"/>
<path fill="#ff3030" stroke="black" stroke-width="0.5" d="M-30.9244,-9.59291C-30.9244,-9.59291 -8.4099,-19.2546 -8.4099,-19.2546 -8.84523,-20.2691 -9.34864,-21.253 -9.91666,-22.1995 -10.4847,-23.1461 -11.116,-24.0532 -11.8064,-24.9146 -11.8064,-24.9146 -30.9244,-9.59291 -30.9244,-9.59291"/>
<path fill="brown" stroke="black" stroke-width="0.5" d="M-30.9244,-9.59291C-30.9244,-9.59291 -11.8064,-24.9146 -11.8064,-24.9146 -12.254,-25.473 -12.7258,-26.0116 -13.2205,-26.5287 -13.7152,-27.0459 -14.2323,-27.5411 -14.7704,-28.013 -15.3085,-28.4849 -15.8669,-28.9329 -16.4442,-29.3559 -17.0215,-29.7789 -17.6171,-30.1764 -18.2292,-30.5472 -18.8413,-30.918 -19.4693,-31.2619 -20.1115,-31.5777 -20.7537,-31.8936 -21.4094,-32.1811 -22.0768,-32.4396 -22.7441,-32.698 -23.4225,-32.9271 -24.1099,-33.1262 -24.7974,-33.3252 -25.4932,-33.494 -26.1954,-33.6322 -26.8976,-33.7703 -27.6055,-33.8776 -28.3171,-33.9538 -29.0287,-34.0299 -29.7433,-34.0749 -30.4589,-34.0885 -31.1744,-34.1021 -31.8902,-34.0843 -32.6042,-34.0353 -33.3181,-33.9862 -34.0296,-33.9059 -34.7366,-33.7945 -35.4435,-33.6831 -36.1452,-33.5409 -36.8397,-33.3681 -37.5342,-33.1953 -38.2208,-32.9921 -38.8975,-32.7592 -39.5742,-32.5263 -40.2404,-32.2639 -40.8941,-31.9727 -41.5479,-31.6814 -42.1885,-31.3617 -42.8143,-31.0144 -43.44,-30.6671 -44.0502,-30.2925 -44.6432,-29.8918 -45.2361,-29.491 -45.8112,-29.0645 -46.3668,-28.6134 -46.9224,-28.1624 -47.458,-27.6871 -47.972,-27.1892 -48.486,-26.6912 -48.9779,-26.1709 -49.4464,-25.6299 -49.9148,-25.0888 -50.3594,-24.5275 -50.7787,-23.9476 -51.198,-23.3676 -51.5917,-22.7696 -51.9586,-22.1551 -52.3256,-21.5407 -52.6654,-20.9105 -52.9772,-20.2663 -53.289,-19.6221 -53.5724,-18.9646 -53.8266,-18.2956 -54.0808,-17.6266 -54.3056,-16.9468 -54.5003,-16.2581 -54.695,-15.5695 -54.8594,-14.8726 -54.9931,-14.1695 -55.1268,-13.4665 -55.2296,-12.7579 -55.3013,-12.0458 -55.3729,-11.3337 -55.4133,-10.6189 -55.4224,-9.90326 -55.4315,-9.18765 -55.4092,-8.47199 -55.3556,-7.75834 -55.302,-7.04468 -55.2172,-6.33372 -55.1013,-5.62749 -54.9855,-4.92126 -54.8388,-4.22045 -54.6616,-3.52707 -54.4844,-2.83368 -54.2769,-2.1484 -54.0397,-1.47318 -53.8025,-0.797961 -53.5359,-0.133459 -53.2405,0.518413 -52.9452,1.17029 -52.6214,1.8089 -52.2701,2.43243 -51.9188,3.05596 -51.5404,3.66379 -51.1359,4.25419 -50.7315,4.84458 -50.3013,5.41697 -49.8467,5.96971 -49.3921,6.52245 -48.9135,7.055 -48.4123,7.56584 -47.9111,8.07667 -47.3877,8.5653 -46.8437,9.03032 -46.2997,9.49533 -45.7356,9.93629 -45.153,10.3519 -44.5704,10.7675 -43.9698,11.1575 -43.3531,11.5205 -42.7364,11.8836 -42.104,12.2194 -41.4579,12.5271 -40.8117,12.8348 -40.1524,13.114 -39.4818,13.364 -38.8112,13.614 -38.13,13.8344 -37.4401,14.0248 -36.7502,14.2151 -36.0523,14.3751 -35.3484,14.5043 -34.6445,14.6336 -33.9353,14.7319 -33.2228,14.799 -32.5103,14.8662 -31.7952,14.9021 -31.0795,14.9066 -30.3639,14.9111 -29.6484,14.8843 -28.9351,14.8262 -28.2218,14.7681 -27.5114,14.6788 -26.8059,14.5585 -26.1004,14.4381 -25.4005,14.287 -24.7083,14.1054 -24.016,13.9238 -23.3321,13.712 -22.6584,13.4706 -21.9847,13.2291 -21.3219,12.9582 -20.6719,12.6588 -20.0219,12.3593 -19.3854,12.0315 -18.7641,11.6763 -18.1428,11.321 -17.5374,10.9388 -16.9495,10.5306 -16.3617,10.1223 -15.7921,9.68857 -15.2422,9.23048 -14.6924,8.77239 -14.1628,8.29043 -13.6552,7.78598 -13.1475,7.28154 -12.6622,6.75509 -12.2007,6.20816 -11.7391,5.66122 -11.3017,5.09433 -10.8898,4.50911 -10.4779,3.92388 -10.0918,3.32089 -9.73265,2.70186 -9.37351,2.08283 -9.04167,1.44837 -8.73807,0.800289 -8.43448,0.15221 -8.15943,-0.50886 -7.91371,-1.18102 -7.66799,-1.85318 -7.45185,-2.53578 -7.26589,-3.22686 -7.07993,-3.91795 -6.92434,-4.61685 -6.79957,-5.32155 -6.6748,-6.02625 -6.58097,-6.73609 -6.51835,-7.449 -6.45572,-8.16192 -6.42436,-8.87724 -6.42436,-9.59291 -6.42436,-9.59291 -30.9244,-9.59291 -30.9244,-9.59291"/>
<ellipse fill="none" stroke="black" cx="-30.9244" cy="-9.59291" rx="24.5" ry="24.5"/>
<text text-anchor="middle" x="-30.9244" y="-7.69291" font-family="monospace" font-size="8.00">6</text>
</g>
<!-- 6&#45;&gt;0 -->
<g id="edge1" class="edge"><title>6&#45;&gt;0</title>
<path fill="none" stroke="black" d="M-35.3207,-33.9296C-39.1206,-54.9645 -44.5714,-85.1379 -48.2847,-105.694"/>
<polygon fill="black" stroke="black" points="-50.0225,-105.47 -49.1893,-110.701 -46.5783,-106.092 -50.0225,-105.47"/>
<text text-anchor="middle" x="-26.2665" y="-74.9792" font-family="monospace" font-size="8.00">I1868T</text>
</g>
<!-- 6&#45;&gt;2 -->
<g id="edge6" class="edge"><title>6&#45;&gt;2</title>
<path fill="none" stroke="black" d="M-51.1752,-23.894C-63.19,-32.3788 -78.0434,-42.8683 -88.3801,-50.168"/>
<polygon fill="black" stroke="black" points="-89.4374,-48.7723 -92.5122,-53.0861 -87.4184,-51.6313 -89.4374,-48.7723"/>
<text text-anchor="middle" x="-87.9278" y="-41.1495" font-family="monospace" font-size="8.00">A1934V</text>
</g>
<!-- 6&#45;&gt;3 -->
<g id="edge8" class="edge"><title>6&#45;&gt;3</title>
<path fill="none" stroke="black" d="M-6.37415,-11.3777C15.8351,-12.9922 48.5695,-15.3719 72.0993,-17.0825"/>
<polygon fill="black" stroke="black" points="72.1577,-18.8413 77.2715,-17.4585 72.4116,-15.3505 72.1577,-18.8413"/>
<text text-anchor="middle" x="19.6272" y="-17.0311" font-family="monospace" font-size="8.00">N1570Y</text>
</g>
<!-- 6&#45;&gt;4 -->
<g id="edge30" class="edge"><title>6&#45;&gt;4</title>
<path fill="none" stroke="black" d="M-46.9112,9.03046C-56.9227,20.6929 -69.8494,35.7516 -80.2438,47.8602"/>
<polygon fill="black" stroke="black" points="-79.0793,49.1903 -83.6639,51.8443 -81.735,46.9105 -79.0793,49.1903"/>
<text text-anchor="middle" x="-81.3321" y="36.8892" font-family="monospace" font-size="8.00">P1874L</text>
</g>
<!-- 6&#45;&gt;5 -->
<g id="edge33" class="edge"><title>6&#45;&gt;5</title>
<path fill="none" stroke="black" d="M-54.7414,-15.8623C-72.4205,-20.5161 -96.1209,-26.7548 -112.014,-30.9384"/>
<polygon fill="black" stroke="black" points="-112.695,-29.3079 -117.085,-32.2731 -111.804,-32.6926 -112.695,-29.3079"/>
<text text-anchor="middle" x="-77.9422" y="-17.6754" font-family="monospace" font-size="8.00">P1874S</text>
</g>
<!-- 7 -->
<g id="node8" class="node"><title>7</title>
<ellipse fill="#ff3030" stroke="black" cx="1.99037" cy="36.7871" rx="6.5" ry="6.5"/>
<text text-anchor="middle" x="1.99037" y="38.6871" font-family="monospace" font-size="8.00">7</text>
</g>
<!-- 6&#45;&gt;7 -->
<g id="edge37" class="edge"><title>6&#45;&gt;7</title>
<path fill="none" stroke="black" d="M-16.5832,10.6151C-12.5294,16.3273 -8.30145,22.2849 -4.90525,27.0705"/>
<polygon fill="black" stroke="black" points="-3.29019,26.3225 -1.82356,31.4129 -6.14448,28.3481 -3.29019,26.3225"/>
<text text-anchor="middle" x="-25.3888" y="27.1528" font-family="monospace" font-size="8.00">K1603T</text>
</g>
<!-- 8 -->
<g id="node9" class="node"><title>8</title>
<ellipse fill="#ff3030" stroke="black" cx="-72.1356" cy="-59.6361" rx="4.5" ry="4.5"/>
<text text-anchor="middle" x="-72.1356" y="-57.7361" font-family="monospace" font-size="8.00">8</text>
</g>
<!-- 6&#45;&gt;8 -->
<g id="edge38" class="edge"><title>6&#45;&gt;8</title>
<path fill="none" stroke="black" d="M-46.5046,-28.5121C-53.1888,-36.6288 -60.6244,-45.6579 -65.7579,-51.8916"/>
<polygon fill="black" stroke="black" points="-67.3566,-51.08 -69.1842,-56.0522 -64.6548,-53.305 -67.3566,-51.08"/>
<text text-anchor="middle" x="-41.6456" y="-44.6408" font-family="monospace" font-size="8.00">L1667M</text>
</g>
<!-- 13 -->
<g id="node14" class="node"><title>13</title>
<ellipse fill="#ff3030" stroke="black" cx="-2.6253" cy="61.9598" rx="5.5" ry="5.5"/>
<text text-anchor="middle" x="-2.6253" y="63.8598" font-family="monospace" font-size="8.00">13</text>
</g>
<!-- 6&#45;&gt;13 -->
<g id="edge39" class="edge"><title>6&#45;&gt;13</title>
<path fill="none" stroke="black" d="M-21.8146,13.4407C-16.6886,26.4016 -10.5475,41.929 -6.61733,51.8662"/>
<polygon fill="black" stroke="black" points="-4.89347,51.4667 -4.68186,56.7599 -8.14817,52.754 -4.89347,51.4667"/>
<text text-anchor="middle" x="-29.2692" y="41.4472" font-family="monospace" font-size="8.00">I1940T</text>
</g>
<!-- 14 -->
<g id="node15" class="node"><title>14</title>
<path fill="#98f5ff" stroke="black" stroke-width="0.5" d="M-37.9855,91.0912C-37.9855,91.0912 -33.4855,91.0912 -33.4855,91.0912 -33.4855,90.8948 -33.4984,90.6986 -33.524,90.5038 -33.5496,90.3091 -33.588,90.1162 -33.6388,89.9265 -33.6897,89.7368 -33.7529,89.5506 -33.8281,89.3691 -33.9032,89.1877 -33.9902,89.0113 -34.0884,88.8412 -34.1866,88.6711 -34.2958,88.5076 -34.4154,88.3518 -34.535,88.196 -34.6646,88.0481 -34.8035,87.9092 -34.9424,87.7703 -35.0903,87.6407 -35.2461,87.5211 -35.4019,87.4015 -35.5654,87.2923 -35.7355,87.1941 -35.9056,87.0959 -36.082,87.0089 -36.2634,86.9338 -36.4449,86.8586 -36.6311,86.7954 -36.8208,86.7445 -37.0105,86.6937 -37.2034,86.6553 -37.3981,86.6297 -37.5929,86.6041 -37.7891,86.5912 -37.9855,86.5912 -38.1819,86.5912 -38.3781,86.6041 -38.5729,86.6297 -38.7676,86.6553 -38.9605,86.6937 -39.1502,86.7445 -39.3399,86.7954 -39.5261,86.8586 -39.7076,86.9338 -39.8891,87.0089 -40.0654,87.0959 -40.2355,87.1941 -40.2355,87.1941 -37.9855,91.0912 -37.9855,91.0912"/>
<path fill="#ff3030" stroke="black" stroke-width="0.5" d="M-37.9855,91.0912C-37.9855,91.0912 -40.2355,87.1941 -40.2355,87.1941 -40.4056,87.2923 -40.5691,87.4015 -40.7249,87.5211 -40.8808,87.6407 -41.0286,87.7703 -41.1675,87.9092 -41.3064,88.0481 -41.436,88.196 -41.5556,88.3518 -41.6752,88.5076 -41.7844,88.6711 -41.8826,88.8412 -41.9808,89.0113 -42.0678,89.1877 -42.143,89.3691 -42.2181,89.5506 -42.2813,89.7368 -42.3322,89.9265 -42.383,90.1162 -42.4214,90.3091 -42.447,90.5038 -42.4726,90.6986 -42.4855,90.8948 -42.4855,91.0912 -42.4855,91.2876 -42.4726,91.4838 -42.447,91.6786 -42.4214,91.8733 -42.383,92.0662 -42.3322,92.2559 -42.2813,92.4456 -42.2181,92.6318 -42.143,92.8133 -42.0678,92.9948 -41.9808,93.1711 -41.8826,93.3412 -41.7844,93.5113 -41.6752,93.6748 -41.5556,93.8306 -41.436,93.9865 -41.3064,94.1343 -41.1675,94.2732 -41.0286,94.4121 -40.8808,94.5417 -40.7249,94.6613 -40.5691,94.7809 -40.4056,94.8901 -40.2355,94.9883 -40.0654,95.0865 -39.8891,95.1735 -39.7076,95.2487 -39.5261,95.3238 -39.3399,95.387 -39.1502,95.4379 -38.9605,95.4887 -38.7676,95.5271 -38.5729,95.5527 -38.3781,95.5783 -38.1819,95.5912 -37.9855,95.5912 -37.7891,95.5912 -37.5929,95.5783 -37.3981,95.5527 -37.2034,95.5271 -37.0105,95.4887 -36.8208,95.4379 -36.6311,95.387 -36.4449,95.3238 -36.2634,95.2487 -36.082,95.1735 -35.9056,95.0865 -35.7355,94.9883 -35.5654,94.8901 -35.4019,94.7809 -35.2461,94.6613 -35.0903,94.5417 -34.9424,94.4121 -34.8035,94.2732 -34.6646,94.1343 -34.535,93.9865 -34.4154,93.8306 -34.2958,93.6748 -34.1866,93.5113 -34.0884,93.3412 -33.9902,93.1711 -33.9032,92.9948 -33.8281,92.8133 -33.7529,92.6318 -33.6897,92.4456 -33.6388,92.2559 -33.588,92.0662 -33.5496,91.8733 -33.524,91.6786 -33.4984,91.4838 -33.4855,91.2876 -33.4855,91.0912 -33.4855,91.0912 -37.9855,91.0912 -37.9855,91.0912"/>
<ellipse fill="none" stroke="black" cx="-37.9855" cy="91.0912" rx="4.5" ry="4.5"/>
<text text-anchor="middle" x="-37.9855" y="92.9912" font-family="monospace" font-size="8.00">14</text>
</g>
<!-- 6&#45;&gt;14 -->
<g id="edge40" class="edge"><title>6&#45;&gt;14</title>
<path fill="none" stroke="black" d="M-32.6517,15.0372C-34.1367,36.212 -36.2036,65.6829 -37.2762,80.9771"/>
<polygon fill="black" stroke="black" points="-35.5515,81.4005 -37.6471,86.2657 -39.0429,81.1555 -35.5515,81.4005"/>
<text text-anchor="middle" x="-21.6578" y="57.1709" font-family="monospace" font-size="8.00">T791M</text>
</g>
<!-- 17 -->
<g id="node18" class="node"><title>17</title>
<ellipse fill="#ff3030" stroke="black" cx="-58.6451" cy="6.39136" rx="4.5" ry="4.5"/>
<text text-anchor="middle" x="-58.6451" y="8.29136" font-family="monospace" font-size="8.00">17</text>
</g>
<!-- 6&#45;&gt;17 -->
<g id="edge41" class="edge"><title>6&#45;&gt;17</title>
<path fill="none" stroke="black" d="M-52.2158,2.68407C-52.3175,2.74276 -52.4186,2.80101 -52.5188,2.8588"/>
<polygon fill="black" stroke="black" points="-49.2893,3.01666 -54.4951,3.99835 -51.0377,-0.0154108 -49.2893,3.01666"/>
<text text-anchor="middle" x="-68.3679" y="0.171771" font-family="monospace" font-size="8.00">N1345I</text>
</g>
<!-- 19 -->
<g id="node20" class="node"><title>19</title>
<path fill="#98f5ff" stroke="black" stroke-width="0.5" d="M-58.9873,-84.6063C-58.9873,-84.6063 -50.9873,-84.6063 -50.9873,-84.6063 -50.9873,-85.0254 -51.0203,-85.4438 -51.0858,-85.8577 -51.1514,-86.2717 -51.2494,-86.6798 -51.3789,-87.0784 -51.5084,-87.477 -51.669,-87.8648 -51.8593,-88.2382 -52.0496,-88.6116 -52.2689,-88.9695 -52.5152,-89.3085 -52.7615,-89.6476 -53.0341,-89.9668 -53.3305,-90.2631 -53.6268,-90.5595 -53.946,-90.8321 -54.2851,-91.0784 -54.6241,-91.3247 -54.982,-91.544 -55.3554,-91.7343 -55.7288,-91.9246 -56.1166,-92.0852 -56.5152,-92.2147 -56.9138,-92.3442 -57.3219,-92.4422 -57.7359,-92.5078 -58.1498,-92.5733 -58.5682,-92.6063 -58.9873,-92.6063 -59.4064,-92.6063 -59.8249,-92.5733 -60.2388,-92.5078 -60.6528,-92.4422 -61.0609,-92.3442 -61.4595,-92.2147 -61.8581,-92.0852 -62.2459,-91.9246 -62.6193,-91.7343 -62.9927,-91.544 -63.3506,-91.3247 -63.6896,-91.0784 -64.0287,-90.8321 -64.3479,-90.5595 -64.6442,-90.2631 -64.9405,-89.9668 -65.2131,-89.6476 -65.4595,-89.3085 -65.4595,-89.3085 -58.9873,-84.6063 -58.9873,-84.6063"/>
<path fill="deepskyblue" stroke="black" stroke-width="0.5" d="M-58.9873,-84.6063C-58.9873,-84.6063 -65.4595,-89.3085 -65.4595,-89.3085 -65.6442,-89.0543 -65.8138,-88.7894 -65.9673,-88.5152 -66.1209,-88.241 -66.2581,-87.9581 -66.3784,-87.6677 -66.4986,-87.3774 -66.6017,-87.0802 -66.687,-86.7778 -66.7723,-86.4753 -66.8397,-86.1681 -66.8888,-85.8577 -66.938,-85.5474 -66.9688,-85.2343 -66.9812,-84.9203 -66.9935,-84.6063 -66.9873,-84.2919 -66.9627,-83.9786 -66.938,-83.6653 -66.8949,-83.3538 -66.8336,-83.0455 -66.7723,-82.7373 -66.6929,-82.433 -66.5958,-82.1341 -66.4987,-81.8353 -66.3841,-81.5424 -66.2525,-81.257 -66.1209,-80.9716 -65.9727,-80.6942 -65.8085,-80.4263 -65.6443,-80.1583 -65.4644,-79.9003 -65.2699,-79.6535 -65.0753,-79.4067 -64.8664,-79.1716 -64.6442,-78.9494 -64.422,-78.7272 -64.1869,-78.5183 -63.9401,-78.3237 -63.6933,-78.1292 -63.4353,-77.9493 -63.1673,-77.7851 -62.8994,-77.6209 -62.622,-77.4727 -62.3366,-77.3411 -62.0512,-77.2096 -61.7583,-77.0949 -61.4595,-76.9978 -61.1606,-76.9007 -60.8563,-76.8213 -60.5481,-76.76 -60.2399,-76.6987 -59.9283,-76.6556 -59.615,-76.6309 -59.3017,-76.6063 -58.9873,-76.6001 -58.6733,-76.6124 -58.3593,-76.6248 -58.0462,-76.6556 -57.7359,-76.7048 -57.4255,-76.7539 -57.1183,-76.8213 -56.8158,-76.9066 -56.5134,-76.9919 -56.2162,-77.095 -55.9259,-77.2152 -55.6355,-77.3355 -55.3526,-77.4727 -55.0784,-77.6263 -54.8042,-77.7798 -54.5393,-77.9494 -54.2851,-78.1341 -54.0308,-78.3188 -53.7877,-78.5184 -53.5569,-78.7317 -53.3262,-78.945 -53.1082,-79.1717 -52.9041,-79.4107 -52.7,-79.6496 -52.5102,-79.9004 -52.3356,-80.1617 -52.161,-80.423 -52.002,-80.6943 -51.8593,-80.9743 -51.7166,-81.2543 -51.5906,-81.5425 -51.4818,-81.8373 -51.373,-82.1322 -51.2817,-82.4331 -51.2084,-82.7387 -51.135,-83.0443 -51.0797,-83.3539 -51.0428,-83.666 -51.0059,-83.978 -50.9873,-84.292 -50.9873,-84.6063 -50.9873,-84.6063 -58.9873,-84.6063 -58.9873,-84.6063"/>
<ellipse fill="none" stroke="black" cx="-58.9873" cy="-84.6063" rx="8" ry="8"/>
<text text-anchor="middle" x="-58.9873" y="-82.7063" font-family="monospace" font-size="8.00">19</text>
</g>
<!-- 6&#45;&gt;19 -->
<g id="edge42" class="edge"><title>6&#45;&gt;19</title>
<path fill="none" stroke="black" d="M-39.6498,-32.9164C-44.517,-45.9265 -50.383,-61.6066 -54.3687,-72.2604"/>
<polygon fill="black" stroke="black" points="-56.0486,-71.7567 -56.1616,-77.0529 -52.7705,-72.9831 -56.0486,-71.7567"/>
<text text-anchor="middle" x="-31.9407" y="-57.6782" font-family="monospace" font-size="8.00">E1597G</text>
</g>
<!-- 26 -->
<g id="node27" class="node"><title>26</title>
<ellipse fill="deepskyblue" stroke="black" cx="-1.60685" cy="-26.7141" rx="3.5" ry="3.5"/>
<text text-anchor="middle" x="-1.60685" y="-24.8141" font-family="monospace" font-size="8.00">26</text>
</g>
<!-- 6&#45;&gt;26 -->
<g id="edge43" class="edge"><title>6&#45;&gt;26</title>
<path fill="none" stroke="black" d="M-9.61799,-22.0357C-9.50254,-22.1031 -9.38779,-22.1701 -9.27378,-22.2367"/>
<polygon fill="black" stroke="black" points="-9.9724,-23.8552 -4.77219,-24.8656 -8.20733,-20.8329 -9.9724,-23.8552"/>
<text text-anchor="middle" x="6.64057" y="-24.7867" font-family="monospace" font-size="8.00">I1584T</text>
</g>
<!-- 31 -->
<g id="node32" class="node"><title>31</title>
<path fill="#98f5ff" stroke="black" stroke-width="0.5" d="M-58.7202,66.8791C-58.7202,66.8791 -49.7202,66.8791 -49.7202,66.8791 -49.7202,66.3879 -49.7604,65.8976 -49.8404,65.413 -49.9204,64.9284 -50.0399,64.4512 -50.1978,63.9861 -50.3557,63.521 -50.5513,63.0696 -50.7829,62.6365 -51.0144,62.2033 -51.281,61.7899 -51.58,61.4002 -51.879,61.0105 -52.2094,60.646 -52.5678,60.3103 -52.9263,59.9745 -53.3117,59.6687 -53.72,59.3958 -54.1284,59.123 -54.5584,58.884 -55.0058,58.6813 -55.4532,58.4786 -55.9164,58.3128 -56.3908,58.1857 -56.8652,58.0586 -57.3492,57.9705 -57.838,57.9224 -58.3268,57.8743 -58.8187,57.8662 -59.3088,57.8983 -59.7989,57.9304 -60.2855,58.0026 -60.7638,58.1142 -61.2422,58.2257 -61.7105,58.3762 -62.1643,58.5641 -62.6181,58.7521 -63.0557,58.9769 -63.4728,59.2362 -63.8899,59.4956 -64.285,59.7887 -64.6543,60.1125 -65.0235,60.4363 -65.3657,60.7899 -65.6773,61.1695 -65.9888,61.5492 -66.2688,61.9537 -66.5144,62.3791 -66.5144,62.3791 -58.7202,66.8791 -58.7202,66.8791"/>
<path fill="deepskyblue" stroke="black" stroke-width="0.5" d="M-58.7202,66.8791C-58.7202,66.8791 -66.5144,62.3791 -66.5144,62.3791 -66.6862,62.6767 -66.8409,62.984 -66.9776,63.2993 -67.1143,63.6147 -67.2329,63.9376 -67.3326,64.2665 -67.4324,64.5954 -67.5132,64.9297 -67.5748,65.2679 -67.6363,65.6061 -67.6784,65.9475 -67.7009,66.2904 -67.7234,66.6334 -67.7262,66.9774 -67.7093,67.3207 -67.6925,67.664 -67.6559,68.006 -67.6,68.3451 -67.544,68.6842 -67.4686,69.0199 -67.3742,69.3504 -67.2798,69.6808 -67.1666,70.0057 -67.0351,70.3232 -66.9035,70.6407 -66.7539,70.9505 -66.587,71.2509 -66.42,71.5514 -66.236,71.842 -66.0358,72.1214 -65.8356,72.4007 -65.6195,72.6684 -65.3887,72.9231 -65.1579,73.1778 -64.9127,73.419 -64.6543,73.6456 -64.3959,73.8722 -64.1247,74.0839 -63.8421,74.2795 -63.5594,74.4751 -63.2659,74.6543 -62.9627,74.8163 -62.6596,74.9784 -62.3475,75.1229 -62.0278,75.2492 -61.7082,75.3755 -61.3815,75.4834 -61.0495,75.5724 -60.7175,75.6613 -60.3807,75.7312 -60.0407,75.7816 -59.7007,75.8321 -59.3582,75.863 -59.0146,75.8742 -58.6711,75.8855 -58.3272,75.877 -57.9847,75.849 -57.6421,75.8209 -57.3014,75.7732 -56.9643,75.7061 -56.6272,75.6391 -56.2943,75.5528 -55.967,75.4476 -55.6398,75.3425 -55.3189,75.2187 -55.0058,75.0768 -54.6927,74.935 -54.388,74.7753 -54.0932,74.5986 -53.7984,74.4219 -53.514,74.2285 -53.2413,74.0192 -52.9686,73.81 -52.7082,73.5853 -52.4612,73.3463 -52.2142,73.1073 -51.9811,72.8543 -51.7631,72.5886 -51.545,72.3229 -51.3424,72.0449 -51.1561,71.7561 -50.9699,71.4672 -50.8003,71.1679 -50.6483,70.8597 -50.4963,70.5514 -50.3621,70.2347 -50.2463,69.9111 -50.1305,69.5874 -50.0333,69.2575 -49.9553,68.9227 -49.8772,68.588 -49.8184,68.2491 -49.7791,67.9076 -49.7398,67.5662 -49.7202,67.2228 -49.7202,66.8791 -49.7202,66.8791 -58.7202,66.8791 -58.7202,66.8791"/>
<ellipse fill="none" stroke="black" cx="-58.7202" cy="66.8791" rx="9" ry="9"/>
<text text-anchor="middle" x="-58.7202" y="68.7791" font-family="monospace" font-size="8.00">31</text>
</g>
<!-- 6&#45;&gt;31 -->
<g id="edge47" class="edge"><title>6&#45;&gt;31</title>
<path fill="none" stroke="black" d="M-39.4151,13.7667C-44.1348,26.7517 -49.8402,42.4485 -53.8196,53.3966"/>
<polygon fill="black" stroke="black" points="-52.2698,54.2556 -55.6226,58.357 -55.5592,53.06 -52.2698,54.2556"/>
<text text-anchor="middle" x="-63.5992" y="42.6831" font-family="monospace" font-size="8.00">V1853I</text>
</g>
<!-- 47 -->
<g id="node48" class="node"><title>47</title>
<ellipse fill="brown" stroke="black" cx="-30.8958" cy="32.0381" rx="2.5" ry="2.5"/>
<text text-anchor="middle" x="-30.8958" y="33.9381" font-family="monospace" font-size="8.00">47</text>
</g>
<!-- 6&#45;&gt;47 -->
<g id="edge48" class="edge"><title>6&#45;&gt;47</title>
<path fill="none" stroke="black" d="M-30.9074,15.1052C-30.9034,20.9881 -30.8997,26.4421 -30.8976,29.4965"/>
</g>
<!-- 48 -->
<g id="node49" class="node"><title>48</title>
<ellipse fill="brown" stroke="black" cx="-96.5592" cy="22.3934" rx="4.5" ry="4.5"/>
<text text-anchor="middle" x="-96.5592" y="24.2934" font-family="monospace" font-size="8.00">48</text>
</g>
<!-- 6&#45;&gt;48 -->
<g id="edge49" class="edge"><title>6&#45;&gt;48</title>
<path fill="none" stroke="black" d="M-53.6409,-0.202304C-55.343,0.505088 -57.0337,1.20889 -58.6695,1.89142 -60.0822,2.48086 -60.4668,2.55906 -61.8443,3.22665 -73.2436,8.75128 -86.1902,16.2358 -92.5709,20.0089"/>
</g>
<!-- 50 -->
<g id="node51" class="node"><title>50</title>
<ellipse fill="brown" stroke="black" cx="18.6296" cy="-67.7912" rx="5.5" ry="5.5"/>
<text text-anchor="middle" x="18.6296" y="-65.8912" font-family="monospace" font-size="8.00">50</text>
</g>
<!-- 6&#45;&gt;50 -->
<g id="edge52" class="edge"><title>6&#45;&gt;50</title>
<path fill="none" stroke="black" d="M-14.9724,-28.3276C-4.33413,-40.8216 8.80095,-56.248 15.0284,-63.5618"/>
</g>
<!-- 51 -->
<g id="node52" class="node"><title>51</title>
<ellipse fill="brown" stroke="black" cx="3.10248" cy="10.1933" rx="2.5" ry="2.5"/>
<text text-anchor="middle" x="3.10248" y="12.0933" font-family="monospace" font-size="8.00">51</text>
</g>
<!-- 6&#45;&gt;51 -->
<g id="edge53" class="edge"><title>6&#45;&gt;51</title>
<path fill="none" stroke="black" d="M-9.56786,2.82564C-5.29504,5.31024 -1.41389,7.56708 0.896101,8.91031"/>
</g>
<!-- 54 -->
<g id="node55" class="node"><title>54</title>
<ellipse fill="brown" stroke="black" cx="-39.0196" cy="-38.7408" rx="2.5" ry="2.5"/>
<text text-anchor="middle" x="-39.0196" y="-36.8408" font-family="monospace" font-size="8.00">54</text>
</g>
<!-- 6&#45;&gt;54 -->
<g id="edge54" class="edge"><title>6&#45;&gt;54</title>
<path fill="none" stroke="black" d="M-37.5348,-33.3946C-37.8096,-34.3843 -38.0577,-35.2775 -38.2689,-36.0379"/>
</g>
<!-- anon_6_27_0 -->
<g id="node66" class="node"><title>anon_6_27_0</title>
<ellipse fill="white" stroke="black" cx="-95.7729" cy="-1.95559" rx="1" ry="1"/>
</g>
<!-- 6&#45;&gt;anon_6_27_0 -->
<g id="edge44" class="edge"><title>6&#45;&gt;anon_6_27_0</title>
<path fill="none" stroke="black" d="M-55.4408,-6.70557C-71.2224,-4.84695 -89.6657,-2.67485 -94.5408,-2.1007"/>
</g>
<!-- anon_6_49_0 -->
<g id="node68" class="node"><title>anon_6_49_0</title>
<ellipse fill="white" stroke="black" cx="-23.6721" cy="-71.8996" rx="1" ry="1"/>
</g>
<!-- 6&#45;&gt;anon_6_49_0 -->
<g id="edge50" class="edge"><title>6&#45;&gt;anon_6_49_0</title>
<path fill="none" stroke="black" d="M-28.0581,-34.2182C-26.316,-49.1849 -24.3289,-66.2563 -23.8045,-70.7616"/>
</g>
<!-- 57 -->
<g id="node58" class="node"><title>57</title>
<ellipse fill="black" stroke="black" cx="-113.564" cy="-107.514" rx="4.5" ry="4.5"/>
<text text-anchor="middle" x="-113.564" y="-105.614" font-family="monospace" font-size="8.00">57</text>
</g>
<!-- 8&#45;&gt;57 -->
<g id="edge55" class="edge"><title>8&#45;&gt;57</title>
<path fill="none" stroke="black" d="M-75.115,-63.0794C-82.7589,-71.9132 -102.998,-95.3024 -110.612,-104.102"/>
</g>
<!-- 9 -->
<g id="node10" class="node"><title>9</title>
<ellipse fill="deepskyblue" stroke="black" cx="-72.4752" cy="201.482" rx="2.5" ry="2.5"/>
<text text-anchor="middle" x="-72.4752" y="203.382" font-family="monospace" font-size="8.00">9</text>
</g>
<!-- 15 -->
<g id="node16" class="node"><title>15</title>
<path fill="#98f5ff" stroke="black" stroke-width="0.5" d="M-26.3813,159.814C-26.3813,159.814 -13.8813,159.814 -13.8813,159.814 -13.8813,159.356 -13.9065,158.898 -13.9568,158.442 -14.0071,157.987 -14.0824,157.534 -14.1824,157.087 -14.2823,156.64 -14.4068,156.199 -14.5552,155.765 -14.7037,155.331 -14.8759,154.906 -15.071,154.492 -15.2661,154.077 -15.4839,153.673 -15.7233,153.283 -15.9628,152.892 -16.2235,152.515 -16.5044,152.153 -16.7852,151.791 -17.0858,151.444 -17.4047,151.115 -17.7236,150.786 -18.0604,150.475 -18.4135,150.183 -18.7666,149.89 -19.1355,149.618 -19.5185,149.366 -19.9015,149.115 -20.2981,148.884 -20.7064,148.676 -21.1147,148.468 -21.5342,148.283 -21.9629,148.121 -22.3916,147.959 -22.8288,147.821 -23.2727,147.707 -23.7166,147.593 -24.1664,147.503 -24.62,147.439 -25.0737,147.374 -25.5306,147.335 -25.9887,147.32 -26.4467,147.306 -26.9052,147.317 -27.362,147.352 -27.8189,147.388 -28.2734,147.45 -28.7236,147.535 -28.7236,147.535 -26.3813,159.814 -26.3813,159.814"/>
<path fill="deepskyblue" stroke="black" stroke-width="0.5" d="M-26.3813,159.814C-26.3813,159.814 -28.7236,147.535 -28.7236,147.535 -29.3024,147.646 -29.8728,147.797 -30.4303,147.988 -30.9878,148.179 -31.5311,148.409 -32.0562,148.676 -32.5813,148.944 -33.0867,149.248 -33.5689,149.587 -34.051,149.926 -34.5086,150.298 -34.9381,150.702 -35.3677,151.105 -35.7682,151.539 -36.1367,151.998 -36.5051,152.458 -36.8406,152.944 -37.1406,153.451 -37.4406,153.958 -37.7043,154.486 -37.9298,155.03 -38.1553,155.575 -38.342,156.135 -38.4886,156.705 -38.6352,157.276 -38.7412,157.857 -38.8058,158.442 -38.8705,159.028 -38.8937,159.618 -38.8751,160.207 -38.8566,160.796 -38.7965,161.383 -38.6952,161.963 -38.5939,162.544 -38.4516,163.116 -38.2695,163.677 -38.0874,164.237 -37.8659,164.784 -37.6067,165.313 -37.3474,165.842 -37.0511,166.353 -36.7198,166.84 -36.3886,167.327 -36.0233,167.791 -35.6267,168.227 -35.2301,168.662 -34.8032,169.07 -34.3491,169.445 -33.8951,169.821 -33.415,170.164 -32.9125,170.472 -32.4101,170.78 -31.8865,171.052 -31.3457,171.286 -30.8048,171.52 -30.2481,171.715 -29.6797,171.871 -29.1113,172.026 -28.5326,172.142 -27.948,172.215 -27.3633,172.289 -26.7742,172.322 -26.185,172.312 -25.5957,172.303 -25.0079,172.252 -24.4259,172.16 -23.8438,172.068 -23.269,171.935 -22.7058,171.761 -22.1426,171.588 -21.5923,171.375 -21.0591,171.124 -20.5259,170.873 -20.0111,170.585 -19.5185,170.262 -19.026,169.938 -18.5569,169.58 -18.1149,169.19 -17.6729,168.801 -17.259,168.38 -16.8762,167.932 -16.4935,167.484 -16.143,167.009 -15.8272,166.512 -15.5115,166.014 -15.2313,165.495 -14.9888,164.958 -14.7463,164.421 -14.542,163.867 -14.3776,163.301 -14.2132,162.735 -14.089,162.159 -14.006,161.575 -13.923,160.992 -13.8813,160.403 -13.8813,159.814 -13.8813,159.814 -26.3813,159.814 -26.3813,159.814"/>
<ellipse fill="none" stroke="black" cx="-26.3813" cy="159.814" rx="12.5" ry="12.5"/>
<text text-anchor="middle" x="-26.3813" y="161.714" font-family="monospace" font-size="8.00">15</text>
</g>
<!-- 9&#45;&gt;15 -->
<g id="edge56" class="edge"><title>9&#45;&gt;15</title>
<path fill="none" stroke="black" d="M-70.4946,199.692C-64.6358,194.395 -47.1052,178.548 -35.988,168.498"/>
</g>
<!-- 12 -->
<g id="node13" class="node"><title>12</title>
<ellipse fill="deepskyblue" stroke="black" cx="19.5906" cy="198.258" rx="2.5" ry="2.5"/>
<text text-anchor="middle" x="19.5906" y="200.158" font-family="monospace" font-size="8.00">12</text>
</g>
<!-- 12&#45;&gt;15 -->
<g id="edge57" class="edge"><title>12&#45;&gt;15</title>
<path fill="none" stroke="black" d="M17.6153,196.606C11.8407,191.777 -5.30248,177.441 -16.4061,168.156"/>
</g>
<!-- 28 -->
<g id="node29" class="node"><title>28</title>
<ellipse fill="#ff3030" stroke="black" cx="13.375" cy="113.223" rx="2.5" ry="2.5"/>
<text text-anchor="middle" x="13.375" y="115.123" font-family="monospace" font-size="8.00">28</text>
</g>
<!-- 13&#45;&gt;28 -->
<g id="edge58" class="edge"><title>13&#45;&gt;28</title>
<path fill="none" stroke="black" d="M-0.912982,67.4459C2.50522,78.3974 10.0606,102.604 12.5568,110.601"/>
</g>
<!-- 14&#45;&gt;15 -->
<g id="edge59" class="edge"><title>14&#45;&gt;15</title>
<path fill="none" stroke="black" d="M-37.2241,95.6003C-35.6476,104.937 -31.9532,126.816 -29.3154,142.437"/>
<polygon fill="black" stroke="black" points="-27.573,142.247 -28.466,147.468 -31.0241,142.829 -27.573,142.247"/>
<text text-anchor="middle" x="-48.8406" y="118.961" font-family="monospace" font-size="8.00">A1746S</text>
</g>
<!-- 61 -->
<g id="node62" class="node"><title>61</title>
<ellipse fill="white" stroke="black" cx="-77.6582" cy="116.649" rx="1" ry="1"/>
<text text-anchor="middle" x="-77.6582" y="118.549" font-family="monospace" font-size="8.00">61</text>
</g>
<!-- 14&#45;&gt;61 -->
<g id="edge60" class="edge"><title>14&#45;&gt;61</title>
<path fill="none" stroke="black" d="M-41.9345,93.6353C-49.0686,98.2312 -64.1148,107.924 -72.2173,113.144"/>
<polygon fill="black" stroke="black" points="-71.3837,114.689 -76.5347,115.926 -73.2792,111.747 -71.3837,114.689"/>
<text text-anchor="middle" x="-75.3705" y="102.268" font-family="monospace" font-size="8.00">V1853I</text>
</g>
<!-- anon_15_23_0 -->
<g id="node69" class="node"><title>anon_15_23_0</title>
<ellipse fill="white" stroke="black" cx="-25.1115" cy="218.478" rx="1" ry="1"/>
</g>
<!-- 15&#45;&gt;anon_15_23_0 -->
<g id="edge61" class="edge"><title>15&#45;&gt;anon_15_23_0</title>
<path fill="none" stroke="black" d="M-26.1058,172.543C-25.779,187.64 -25.2628,211.486 -25.1389,217.212"/>
</g>
<!-- 33 -->
<g id="node34" class="node"><title>33</title>
<ellipse fill="deepskyblue" stroke="black" cx="-91.962" cy="-139.341" rx="2.5" ry="2.5"/>
<text text-anchor="middle" x="-91.962" y="-137.441" font-family="monospace" font-size="8.00">33</text>
</g>
<!-- 19&#45;&gt;33 -->
<g id="edge64" class="edge"><title>19&#45;&gt;33</title>
<path fill="none" stroke="black" d="M-63.2982,-91.7618C-70.8398,-104.28 -86.0611,-129.546 -90.6336,-137.136"/>
</g>
<!-- 20 -->
<g id="node21" class="node"><title>20</title>
<ellipse fill="deepskyblue" stroke="black" cx="-148.349" cy="177.982" rx="2.5" ry="2.5"/>
<text text-anchor="middle" x="-148.349" y="179.882" font-family="monospace" font-size="8.00">20</text>
</g>
<!-- anon_20_61_0 -->
<g id="node71" class="node"><title>anon_20_61_0</title>
<ellipse fill="white" stroke="black" cx="-113.5" cy="146.901" rx="1" ry="1"/>
</g>
<!-- 20&#45;&gt;anon_20_61_0 -->
<g id="edge65" class="edge"><title>20&#45;&gt;anon_20_61_0</title>
<path fill="none" stroke="black" d="M-146.476,176.311C-140.142,170.662 -119.645,152.382 -114.62,147.9"/>
</g>
<!-- 23 -->
<g id="node24" class="node"><title>23</title>
<ellipse fill="deepskyblue" stroke="black" cx="-23.9898" cy="302.611" rx="2.5" ry="2.5"/>
<text text-anchor="middle" x="-23.9898" y="304.511" font-family="monospace" font-size="8.00">23</text>
</g>
<!-- 27 -->
<g id="node28" class="node"><title>27</title>
<ellipse fill="#ff3030" stroke="black" cx="-198.59" cy="21.6421" rx="3.5" ry="3.5"/>
<text text-anchor="middle" x="-198.59" y="23.5421" font-family="monospace" font-size="8.00">27</text>
</g>
<!-- 31&#45;&gt;61 -->
<g id="edge73" class="edge"><title>31&#45;&gt;61</title>
<path fill="none" stroke="black" stroke-dasharray="5,2" d="M-62.0189,75.5484C-65.8393,85.5885 -72.0331,101.866 -75.3641,110.62"/>
<polygon fill="black" stroke="black" points="-73.7949,111.417 -77.2087,115.468 -77.0661,110.173 -73.7949,111.417"/>
<text text-anchor="middle" x="-56.0598" y="92.7663" font-family="monospace" font-size="8.00">T791M</text>
</g>
<!-- 35 -->
<g id="node36" class="node"><title>35</title>
<ellipse fill="#ff3030" stroke="black" cx="199.364" cy="71.5366" rx="2.5" ry="2.5"/>
<text text-anchor="middle" x="199.364" y="73.4366" font-family="monospace" font-size="8.00">35</text>
</g>
<!-- 37 -->
<g id="node38" class="node"><title>37</title>
<ellipse fill="#ff3030" stroke="black" cx="-194.22" cy="-113.226" rx="2.5" ry="2.5"/>
<text text-anchor="middle" x="-194.22" y="-111.326" font-family="monospace" font-size="8.00">37</text>
</g>
<!-- 37&#45;&gt;60 -->
<g id="edge67" class="edge"><title>37&#45;&gt;60</title>
<path fill="none" stroke="black" d="M-192.115,-111.745C-184.999,-106.741 -161.971,-90.5478 -156.326,-86.5776"/>
</g>
<!-- 40 -->
<g id="node41" class="node"><title>40</title>
<ellipse fill="deepskyblue" stroke="black" cx="168.17" cy="-141.412" rx="2.5" ry="2.5"/>
<text text-anchor="middle" x="168.17" y="-139.512" font-family="monospace" font-size="8.00">40</text>
</g>
<!-- 42 -->
<g id="node43" class="node"><title>42</title>
<ellipse fill="#1874cd" stroke="black" cx="234.693" cy="-24.9442" rx="2.5" ry="2.5"/>
<text text-anchor="middle" x="234.693" y="-23.0442" font-family="monospace" font-size="8.00">42</text>
</g>
<!-- 42&#45;&gt;46 -->
<g id="edge68" class="edge"><title>42&#45;&gt;46</title>
<path fill="none" stroke="black" d="M231.955,-24.7725C223.759,-24.2585 199.489,-22.7365 191.388,-22.2285"/>
</g>
<!-- 45 -->
<g id="node46" class="node"><title>45</title>
<ellipse fill="#1874cd" stroke="black" cx="157.906" cy="105.33" rx="2.5" ry="2.5"/>
<text text-anchor="middle" x="157.906" y="107.23" font-family="monospace" font-size="8.00">45</text>
</g>
<!-- 48&#45;&gt;11 -->
<g id="edge72" class="edge"><title>48&#45;&gt;11</title>
<path fill="none" stroke="black" stroke-dasharray="5,2" d="M-100.018,25.3907C-106.873,31.3309 -122.267,44.6699 -130.92,52.168"/>
<polygon fill="black" stroke="black" points="-130.012,53.6968 -134.937,55.6487 -132.304,51.0517 -130.012,53.6968"/>
<text text-anchor="middle" x="-133.517" y="37.9536" font-family="monospace" font-size="8.00">P1874L</text>
</g>
<!-- 48&#45;&gt;32 -->
<g id="edge74" class="edge"><title>48&#45;&gt;32</title>
<path fill="none" stroke="black" stroke-dasharray="5,2" d="M-101.001,21.5718C-109.803,19.9435 -129.569,16.287 -140.68,14.2315"/>
<polygon fill="black" stroke="black" points="-141.239,15.9078 -145.837,13.2774 -140.602,12.4662 -141.239,15.9078"/>
<text text-anchor="middle" x="-139.469" y="23.8153" font-family="monospace" font-size="8.00">P1874S</text>
</g>
<!-- 49 -->
<g id="node50" class="node"><title>49</title>
<ellipse fill="brown" stroke="black" cx="-24.7151" cy="-123.954" rx="2.5" ry="2.5"/>
<text text-anchor="middle" x="-24.7151" y="-122.054" font-family="monospace" font-size="8.00">49</text>
</g>
<!-- 50&#45;&gt;41 -->
<g id="edge75" class="edge"><title>50&#45;&gt;41</title>
<path fill="none" stroke="black" stroke-dasharray="5,2" d="M23.699,-65.2416C30.9869,-61.5762 44.4606,-54.7998 52.7768,-50.6173"/>
<polygon fill="black" stroke="black" points="53.8902,-52.0163 57.5708,-48.2063 52.3176,-48.8895 53.8902,-52.0163"/>
<text text-anchor="middle" x="24.3496" y="-50.4674" font-family="monospace" font-size="8.00">N1570Y</text>
</g>
<!-- 52 -->
<g id="node53" class="node"><title>52</title>
<ellipse fill="brown" stroke="black" cx="36.5361" cy="-121.319" rx="2.5" ry="2.5"/>
<text text-anchor="middle" x="36.5361" y="-119.419" font-family="monospace" font-size="8.00">52</text>
</g>
<!-- 50&#45;&gt;52 -->
<g id="edge69" class="edge"><title>50&#45;&gt;52</title>
<path fill="none" stroke="black" d="M20.412,-73.1194C24.1628,-84.3316 32.7591,-110.029 35.6033,-118.531"/>
</g>
<!-- 53 -->
<g id="node54" class="node"><title>53</title>
<ellipse fill="brown" stroke="black" cx="14.1761" cy="-125.229" rx="2.5" ry="2.5"/>
<text text-anchor="middle" x="14.1761" y="-123.329" font-family="monospace" font-size="8.00">53</text>
</g>
<!-- 50&#45;&gt;53 -->
<g id="edge70" class="edge"><title>50&#45;&gt;53</title>
<path fill="none" stroke="black" d="M18.1863,-73.5085C17.2358,-85.7667 15.0344,-114.16 14.3696,-122.733"/>
</g>
<!-- 61&#45;&gt;anon_20_61_0 -->
<g id="edge66" class="edge"><title>61&#45;&gt;anon_20_61_0</title>
<path fill="none" stroke="black" d="M-78.5441,117.397C-82.5435,120.773 -99.1009,134.748 -107.917,142.189"/>
<polygon fill="black" stroke="black" points="-107.275,143.937 -112.225,145.824 -109.532,141.262 -107.275,143.937"/>
<text text-anchor="middle" x="-111.252" y="128.899" font-family="monospace" font-size="8.00">L1366F</text>
</g>
<!-- anon_3_35_0&#45;&gt;35 -->
<g id="edge18" class="edge"><title>anon_3_35_0&#45;&gt;35</title>
<path fill="none" stroke="black" d="M160.023,47.5596C165.264,50.7539 189.669,65.6274 197.167,70.1974"/>
</g>
<!-- anon_3_40_0&#45;&gt;40 -->
<g id="edge21" class="edge"><title>anon_3_40_0&#45;&gt;40</title>
<path fill="none" stroke="black" d="M140.315,-106.005C143.446,-109.985 156.236,-126.243 163.346,-135.281"/>
<polygon fill="black" stroke="black" points="162.147,-136.587 166.614,-139.435 164.898,-134.423 162.147,-136.587"/>
<text text-anchor="middle" x="139.828" y="-125.147" font-family="monospace" font-size="8.00">P940H</text>
</g>
<!-- anon_3_45_0&#45;&gt;45 -->
<g id="edge26" class="edge"><title>anon_3_45_0&#45;&gt;45</title>
<path fill="none" stroke="black" d="M128.457,68.5802C132.38,73.4761 150.648,96.273 156.261,103.277"/>
</g>
<!-- anon_6_27_1 -->
<g id="node67" class="node"><title>anon_6_27_1</title>
<ellipse fill="white" stroke="black" cx="-147.331" cy="5.09144" rx="1" ry="1"/>
</g>
<!-- anon_6_27_0&#45;&gt;anon_6_27_1 -->
<g id="edge45" class="edge"><title>anon_6_27_0&#45;&gt;anon_6_27_1</title>
<path fill="none" stroke="black" d="M-97.0474,-1.78139C-104.243,-0.797944 -139.694,4.04759 -146.278,4.94748"/>
</g>
<!-- anon_6_27_1&#45;&gt;27 -->
<g id="edge46" class="edge"><title>anon_6_27_1&#45;&gt;27</title>
<path fill="none" stroke="black" d="M-148.598,5.50056C-154.267,7.33086 -177.575,14.8569 -190.265,18.9541"/>
<polygon fill="black" stroke="black" points="-189.95,20.6915 -195.246,20.5626 -191.026,17.3608 -189.95,20.6915"/>
<text text-anchor="middle" x="-182.827" y="10.4008" font-family="monospace" font-size="8.00">G54C</text>
</g>
<!-- anon_6_49_0&#45;&gt;49 -->
<g id="edge51" class="edge"><title>anon_6_49_0&#45;&gt;49</title>
<path fill="none" stroke="black" d="M-23.6978,-73.1864C-23.8346,-80.0125 -24.4761,-112.028 -24.6635,-121.382"/>
</g>
<!-- anon_15_23_1 -->
<g id="node70" class="node"><title>anon_15_23_1</title>
<ellipse fill="white" stroke="black" cx="-25.3955" cy="260.835" rx="1" ry="1"/>
</g>
<!-- anon_15_23_0&#45;&gt;anon_15_23_1 -->
<g id="edge62" class="edge"><title>anon_15_23_0&#45;&gt;anon_15_23_1</title>
<path fill="none" stroke="black" d="M-25.1185,219.525C-25.1502,224.251 -25.2814,243.818 -25.3512,254.237"/>
<polygon fill="black" stroke="black" points="-23.6018,254.339 -25.3854,259.328 -27.1017,254.316 -23.6018,254.339"/>
<text text-anchor="middle" x="-38.7509" y="236.67" font-family="monospace" font-size="8.00">Q545L</text>
</g>
<!-- anon_15_23_1&#45;&gt;23 -->
<g id="edge63" class="edge"><title>anon_15_23_1&#45;&gt;23</title>
<path fill="none" stroke="black" d="M-25.3607,261.868C-25.1815,267.195 -24.359,291.641 -24.0815,299.887"/>
</g>
</g>
</svg>
