<?xml version="1.0" encoding="UTF-8" standalone="no"?>
<!DOCTYPE svg PUBLIC "-//W3C//DTD SVG 1.1//EN"
 "http://www.w3.org/Graphics/SVG/1.1/DTD/svg11.dtd">
<!-- Generated by graphviz version 2.38.0 (20140413.2041)
 -->
<!-- Title: %3 Pages: 1 -->
<svg width="468pt" height="579pt"
 viewBox="0.00 0.00 467.69 579.03" xmlns="http://www.w3.org/2000/svg" xmlns:xlink="http://www.w3.org/1999/xlink">
<g id="graph0" class="graph" transform="scale(1 1) rotate(0) translate(236.218 334.306)">
<title>%3</title>
<polygon fill="white" stroke="none" points="-236.218,244.719 -236.218,-334.306 231.477,-334.306 231.477,244.719 -236.218,244.719"/>
<!-- 0 -->
<g id="node1" class="node"><title>0</title>
<path fill="#98f5ff" stroke="black" stroke-width="0.5" d="M-134.764,-72.3107C-134.764,-72.3107 -109.264,-72.3107 -109.264,-72.3107 -109.264,-73.0451 -109.296,-73.7793 -109.359,-74.511 -109.422,-75.2427 -109.517,-75.9713 -109.644,-76.6949 -109.77,-77.4184 -109.927,-78.1361 -110.116,-78.8461 -110.304,-79.556 -110.523,-80.2575 -110.771,-80.9485 -111.02,-81.6395 -111.299,-82.3195 -111.606,-82.9865 -111.914,-83.6535 -112.25,-84.3069 -112.614,-84.9449 -112.978,-85.5829 -113.369,-86.2048 -113.787,-86.809 -114.204,-87.4132 -114.648,-87.9991 -115.116,-88.565 -115.584,-89.1309 -116.076,-89.6763 -116.592,-90.1997 -117.107,-90.7231 -117.644,-91.224 -118.203,-91.701 -118.761,-92.178 -119.34,-92.6307 -119.938,-93.0577 -120.535,-93.4847 -121.151,-93.8857 -121.783,-94.2596 -122.416,-94.6335 -123.064,-94.9799 -123.726,-95.2978 -124.388,-95.6157 -125.063,-95.9049 -125.75,-96.1645 -126.437,-96.4241 -127.135,-96.6539 -127.842,-96.8533 -128.549,-97.0526 -129.264,-97.2214 -129.986,-97.359 -129.986,-97.359 -134.764,-72.3107 -134.764,-72.3107"/>
<path fill="deepskyblue" stroke="black" stroke-width="0.5" d="M-134.764,-72.3107C-134.764,-72.3107 -129.986,-97.359 -129.986,-97.359 -131.265,-97.6031 -132.561,-97.7487 -133.863,-97.7948 -135.164,-97.8408 -136.468,-97.787 -137.761,-97.6339 -139.055,-97.4808 -140.334,-97.2289 -141.589,-96.8803 -142.844,-96.5317 -144.07,-96.0874 -145.258,-95.5515 -146.445,-95.0155 -147.589,-94.3894 -148.68,-93.6786 -149.772,-92.9678 -150.807,-92.1744 -151.777,-91.3055 -152.747,-90.4365 -153.649,-89.4945 -154.476,-88.4877 -155.302,-87.4809 -156.05,-86.4123 -156.713,-85.2912 -157.376,-84.1702 -157.952,-83 -158.436,-81.7909 -158.92,-80.5818 -159.311,-79.3374 -159.605,-78.0686 -159.899,-76.7998 -160.096,-75.5104 -160.193,-74.2115 -160.29,-72.9127 -160.287,-71.6084 -160.185,-70.31 -160.083,-69.0116 -159.882,-67.7229 -159.583,-66.4552 -159.283,-65.1876 -158.888,-63.9448 -158.399,-62.7376 -157.91,-61.5304 -157.329,-60.3625 -156.662,-59.244 -155.994,-58.1256 -155.242,-57.0599 -154.412,-56.0564 -153.582,-55.0528 -152.676,-54.1144 -151.702,-53.2492 -150.729,-52.3841 -149.69,-51.5948 -148.596,-50.8883 -147.502,-50.1818 -146.355,-49.5602 -145.166,-49.0289 -143.977,-48.4976 -142.749,-48.0581 -141.493,-47.7145 -140.236,-47.3708 -138.956,-47.1239 -137.662,-46.9759 -136.368,-46.8279 -135.064,-46.7792 -133.763,-46.8303 -132.461,-46.8815 -131.166,-47.0322 -129.887,-47.2813 -128.609,-47.5304 -127.352,-47.877 -126.126,-48.3182 -124.901,-48.7594 -123.711,-49.2938 -122.567,-49.9168 -121.423,-50.5398 -120.329,-51.2494 -119.294,-52.0396 -118.258,-52.8298 -117.285,-53.6981 -116.382,-54.637 -115.479,-55.5758 -114.65,-56.5825 -113.901,-57.648 -113.152,-58.7136 -112.486,-59.835 -111.908,-61.0024 -111.331,-62.1698 -110.844,-63.3797 -110.451,-64.6215 -110.058,-65.8633 -109.761,-67.1333 -109.562,-68.4205 -109.364,-69.7077 -109.264,-71.0082 -109.264,-72.3107 -109.264,-72.3107 -134.764,-72.3107 -134.764,-72.3107"/>
<ellipse fill="none" stroke="black" cx="-134.764" cy="-72.3107" rx="25.5" ry="25.5"/>
<text text-anchor="middle" x="-134.764" y="-70.4107" font-family="monospace" font-size="8.00">0</text>
</g>
<!-- 22 -->
<g id="node23" class="node"><title>22</title>
<ellipse fill="deepskyblue" stroke="black" cx="-225.591" cy="-96.8134" rx="3.5" ry="3.5"/>
<text text-anchor="middle" x="-225.591" y="-94.9134" font-family="monospace" font-size="8.00">22</text>
</g>
<!-- 0&#45;&gt;22 -->
<g id="edge2" class="edge"><title>0&#45;&gt;22</title>
<path fill="none" stroke="black" d="M-159.583,-79.0061C-181.643,-84.9573 -211.928,-93.1276 -222.1,-95.8716"/>
</g>
<!-- 24 -->
<g id="node25" class="node"><title>24</title>
<ellipse fill="deepskyblue" stroke="black" cx="-209.719" cy="-139.598" rx="3.5" ry="3.5"/>
<text text-anchor="middle" x="-209.719" y="-137.698" font-family="monospace" font-size="8.00">24</text>
</g>
<!-- 0&#45;&gt;24 -->
<g id="edge3" class="edge"><title>0&#45;&gt;24</title>
<path fill="none" stroke="black" d="M-154.067,-89.6389C-170.159,-104.085 -192.151,-123.827 -203.043,-133.605"/>
<polygon fill="black" stroke="black" points="-204.43,-132.499 -206.982,-137.141 -202.092,-135.103 -204.43,-132.499"/>
<text text-anchor="middle" x="-189.555" y="-114.222" font-family="monospace" font-size="8.00">P55L</text>
</g>
<!-- 58 -->
<g id="node59" class="node"><title>58</title>
<ellipse fill="black" stroke="black" cx="-228.718" cy="-49.8443" rx="3.5" ry="3.5"/>
<text text-anchor="middle" x="-228.718" y="-47.9443" font-family="monospace" font-size="8.00">58</text>
</g>
<!-- 0&#45;&gt;58 -->
<g id="edge4" class="edge"><title>0&#45;&gt;58</title>
<path fill="none" stroke="black" d="M-159.942,-66.2901C-182.771,-60.8311 -214.426,-53.2617 -225.065,-50.7177"/>
</g>
<!-- 1 -->
<g id="node2" class="node"><title>1</title>
<ellipse fill="deepskyblue" stroke="black" cx="96.0766" cy="-255.328" rx="3.5" ry="3.5"/>
<text text-anchor="middle" x="96.0766" y="-253.428" font-family="monospace" font-size="8.00">1</text>
</g>
<!-- 3 -->
<g id="node4" class="node"><title>3</title>
<path fill="#1874cd" stroke="black" stroke-width="0.5" d="M61.1737,-169.311C61.1737,-169.311 95.1737,-169.311 95.1737,-169.311 95.1737,-170.597 95.1008,-171.882 94.9552,-173.16 94.8096,-174.438 94.5916,-175.706 94.3023,-176.96 94.013,-178.213 93.6529,-179.448 93.2236,-180.661 92.7943,-181.873 92.2965,-183.06 91.7327,-184.216 91.169,-185.372 90.5401,-186.495 89.8491,-187.579 89.1581,-188.664 88.4061,-189.709 87.5967,-190.708 86.7874,-191.708 85.922,-192.66 85.0047,-193.562 84.0874,-194.463 83.1197,-195.312 82.1062,-196.104 81.0928,-196.895 80.0353,-197.629 78.9387,-198.301 77.8421,-198.973 76.7083,-199.582 75.5428,-200.126 74.3772,-200.669 73.1817,-201.146 71.9621,-201.554 70.7425,-201.962 69.5007,-202.301 68.2427,-202.568 66.9848,-202.836 65.7127,-203.031 64.4325,-203.155 63.1524,-203.278 61.8662,-203.329 60.5804,-203.306 59.2945,-203.284 58.0109,-203.188 56.7359,-203.02 55.4608,-202.852 54.1963,-202.612 52.9484,-202.301 52.9484,-202.301 61.1737,-169.311 61.1737,-169.311"/>
<path fill="#98f5ff" stroke="black" stroke-width="0.5" d="M61.1737,-169.311C61.1737,-169.311 52.9484,-202.301 52.9484,-202.301 51.9886,-202.062 51.0397,-201.781 50.1044,-201.459 49.1691,-201.137 48.2484,-200.774 47.3447,-200.372 46.441,-199.969 45.5554,-199.528 44.6902,-199.048 43.8251,-198.569 42.9813,-198.052 42.1612,-197.499 42.1612,-197.499 61.1737,-169.311 61.1737,-169.311"/>
<path fill="#ff3030" stroke="black" stroke-width="0.5" d="M61.1737,-169.311C61.1737,-169.311 42.1612,-197.499 42.1612,-197.499 40.8898,-196.641 39.6779,-195.698 38.5338,-194.677 37.3896,-193.656 36.3159,-192.559 35.3199,-191.392 34.324,-190.226 33.408,-188.994 32.5784,-187.704 31.7488,-186.415 31.0074,-185.07 30.3593,-183.68 29.7112,-182.29 29.1578,-180.858 28.7031,-179.394 28.2483,-177.929 27.8931,-176.435 27.64,-174.923 27.3869,-173.41 27.2364,-171.882 27.1896,-170.35 27.1428,-168.817 27.1997,-167.282 27.36,-165.757 27.5203,-164.232 27.7836,-162.72 28.1481,-161.23 28.5126,-159.74 28.9775,-158.277 29.5396,-156.85 30.1016,-155.423 30.7596,-154.036 31.5089,-152.698 32.2582,-151.36 33.0972,-150.074 34.0201,-148.85 34.9431,-147.625 35.9478,-146.464 37.0275,-145.375 38.1071,-144.286 39.2592,-143.271 40.4759,-142.337 41.6925,-141.404 42.971,-140.553 44.3024,-139.792 45.6338,-139.031 47.0152,-138.361 48.4371,-137.787 48.4371,-137.787 61.1737,-169.311 61.1737,-169.311"/>
<path fill="deepskyblue" stroke="black" stroke-width="0.5" d="M61.1737,-169.311C61.1737,-169.311 48.4371,-137.787 48.4371,-137.787 49.7213,-137.268 51.036,-136.828 52.3739,-136.47 53.7118,-136.111 55.0703,-135.835 56.4419,-135.642 57.8134,-135.449 59.1955,-135.341 60.5804,-135.316 61.9652,-135.292 63.3503,-135.353 64.7277,-135.497 66.1052,-135.642 67.4725,-135.871 68.8221,-136.183 70.1716,-136.494 71.5009,-136.888 72.8024,-137.362 74.104,-137.835 75.3753,-138.388 76.6094,-139.017 77.8435,-139.646 79.038,-140.349 80.1863,-141.124 81.3346,-141.898 82.4344,-142.742 83.4798,-143.651 84.5251,-144.56 85.5139,-145.532 86.4407,-146.561 87.3675,-147.59 88.2305,-148.675 89.0249,-149.81 89.8194,-150.944 90.5437,-152.126 91.194,-153.349 91.8442,-154.572 92.4191,-155.834 92.9155,-157.127 93.4118,-158.42 93.8287,-159.742 94.1638,-161.086 94.4989,-162.43 94.7515,-163.793 94.9203,-165.168 95.0891,-166.542 95.1737,-167.926 95.1737,-169.311 95.1737,-169.311 61.1737,-169.311 61.1737,-169.311"/>
<ellipse fill="none" stroke="black" cx="61.1737" cy="-169.311" rx="34" ry="34"/>
<text text-anchor="middle" x="61.1737" y="-167.411" font-family="monospace" font-size="8.00">3</text>
</g>
<!-- 1&#45;&gt;3 -->
<g id="edge5" class="edge"><title>1&#45;&gt;3</title>
<path fill="none" stroke="black" d="M94.751,-252.061C91.3391,-243.653 81.9628,-220.545 73.9829,-200.879"/>
</g>
<!-- 2 -->
<g id="node3" class="node"><title>2</title>
<ellipse fill="#ff3030" stroke="black" cx="68.1264" cy="15.3643" rx="14" ry="14"/>
<text text-anchor="middle" x="68.1264" y="17.2643" font-family="monospace" font-size="8.00">2</text>
</g>
<!-- 60 -->
<g id="node61" class="node"><title>60</title>
<ellipse fill="white" stroke="black" cx="130.482" cy="61.583" rx="2.5" ry="2.5"/>
<text text-anchor="middle" x="130.482" y="63.483" font-family="monospace" font-size="8.00">60</text>
</g>
<!-- 2&#45;&gt;60 -->
<g id="edge7" class="edge"><title>2&#45;&gt;60</title>
<path fill="none" stroke="black" d="M79.5633,23.8415C92.616,33.5164 113.511,49.004 124.013,56.7881"/>
<polygon fill="black" stroke="black" points="125.278,55.5479 128.253,59.9312 123.194,58.3597 125.278,55.5479"/>
<text text-anchor="middle" x="117.788" y="37.7148" font-family="monospace" font-size="8.00">P1874S</text>
</g>
<!-- 10 -->
<g id="node11" class="node"><title>10</title>
<ellipse fill="#ff3030" stroke="black" cx="121.753" cy="-160.859" rx="3.5" ry="3.5"/>
<text text-anchor="middle" x="121.753" y="-158.959" font-family="monospace" font-size="8.00">10</text>
</g>
<!-- 3&#45;&gt;10 -->
<g id="edge9" class="edge"><title>3&#45;&gt;10</title>
<path fill="none" stroke="black" d="M95.006,-164.591C104.329,-163.29 113.199,-162.053 118.015,-161.381"/>
</g>
<!-- 16 -->
<g id="node17" class="node"><title>16</title>
<ellipse fill="#ff3030" stroke="black" cx="149.253" cy="-127.277" rx="3.5" ry="3.5"/>
<text text-anchor="middle" x="149.253" y="-125.377" font-family="monospace" font-size="8.00">16</text>
</g>
<!-- 3&#45;&gt;16 -->
<g id="edge10" class="edge"><title>3&#45;&gt;16</title>
<path fill="none" stroke="black" d="M91.9795,-154.61C109.544,-146.227 130.204,-136.368 141.279,-131.082"/>
<polygon fill="black" stroke="black" points="142.132,-132.615 145.891,-128.882 140.624,-129.456 142.132,-132.615"/>
<text text-anchor="middle" x="130.129" y="-145.446" font-family="monospace" font-size="8.00">M704V</text>
</g>
<!-- 18 -->
<g id="node19" class="node"><title>18</title>
<ellipse fill="deepskyblue" stroke="black" cx="113.517" cy="-205.14" rx="3.5" ry="3.5"/>
<text text-anchor="middle" x="113.517" y="-203.24" font-family="monospace" font-size="8.00">18</text>
</g>
<!-- 3&#45;&gt;18 -->
<g id="edge11" class="edge"><title>3&#45;&gt;18</title>
<path fill="none" stroke="black" d="M89.4904,-188.694C97.9695,-194.498 106.146,-200.095 110.429,-203.026"/>
</g>
<!-- 21 -->
<g id="node22" class="node"><title>21</title>
<ellipse fill="deepskyblue" stroke="black" cx="31.2615" cy="-219.407" rx="3.5" ry="3.5"/>
<text text-anchor="middle" x="31.2615" y="-217.507" font-family="monospace" font-size="8.00">21</text>
</g>
<!-- 3&#45;&gt;21 -->
<g id="edge12" class="edge"><title>3&#45;&gt;21</title>
<path fill="none" stroke="black" d="M43.6007,-198.742C39.3278,-205.898 35.349,-212.561 33.1185,-216.297"/>
</g>
<!-- 25 -->
<g id="node26" class="node"><title>25</title>
<ellipse fill="deepskyblue" stroke="black" cx="0.972395" cy="-196.964" rx="3.5" ry="3.5"/>
<text text-anchor="middle" x="0.972395" y="-195.064" font-family="monospace" font-size="8.00">25</text>
</g>
<!-- 3&#45;&gt;25 -->
<g id="edge13" class="edge"><title>3&#45;&gt;25</title>
<path fill="none" stroke="black" d="M30.015,-183.623C19.6865,-188.368 9.52421,-193.035 4.40067,-195.389"/>
</g>
<!-- 29 -->
<g id="node30" class="node"><title>29</title>
<ellipse fill="deepskyblue" stroke="black" cx="73.6078" cy="-229.537" rx="3.5" ry="3.5"/>
<text text-anchor="middle" x="73.6078" y="-227.637" font-family="monospace" font-size="8.00">29</text>
</g>
<!-- 3&#45;&gt;29 -->
<g id="edge14" class="edge"><title>3&#45;&gt;29</title>
<path fill="none" stroke="black" d="M68.1179,-202.946C69.4933,-209.608 70.8206,-216.036 71.8255,-220.904"/>
<polygon fill="black" stroke="black" points="70.1157,-221.278 72.8406,-225.82 73.5434,-220.57 70.1157,-221.278"/>
<text text-anchor="middle" x="53.9717" y="-214.525" font-family="monospace" font-size="8.00">V1303A</text>
</g>
<!-- 30 -->
<g id="node31" class="node"><title>30</title>
<ellipse fill="deepskyblue" stroke="black" cx="-1.79498" cy="-235.468" rx="3.5" ry="3.5"/>
<text text-anchor="middle" x="-1.79498" y="-233.568" font-family="monospace" font-size="8.00">30</text>
</g>
<!-- 3&#45;&gt;30 -->
<g id="edge15" class="edge"><title>3&#45;&gt;30</title>
<path fill="none" stroke="black" d="M37.7265,-193.945C23.4601,-208.934 6.83426,-226.401 0.668627,-232.879"/>
</g>
<!-- 34 -->
<g id="node35" class="node"><title>34</title>
<ellipse fill="#ff3030" stroke="black" cx="39.2932" cy="-254.078" rx="3.5" ry="3.5"/>
<text text-anchor="middle" x="39.2932" y="-252.178" font-family="monospace" font-size="8.00">34</text>
</g>
<!-- 3&#45;&gt;34 -->
<g id="edge16" class="edge"><title>3&#45;&gt;34</title>
<path fill="none" stroke="black" d="M52.6515,-202.327C47.8518,-220.921 42.3984,-242.048 40.2422,-250.401"/>
</g>
<!-- 36 -->
<g id="node37" class="node"><title>36</title>
<ellipse fill="#ff3030" stroke="black" cx="120.383" cy="-240.2" rx="3.5" ry="3.5"/>
<text text-anchor="middle" x="120.383" y="-238.3" font-family="monospace" font-size="8.00">36</text>
</g>
<!-- 3&#45;&gt;36 -->
<g id="edge19" class="edge"><title>3&#45;&gt;36</title>
<path fill="none" stroke="black" d="M83.2213,-195.708C96.636,-211.768 112.269,-230.485 118.067,-237.426"/>
</g>
<!-- 41 -->
<g id="node42" class="node"><title>41</title>
<ellipse fill="#1874cd" stroke="black" cx="77.2396" cy="-110.189" rx="3.5" ry="3.5"/>
<text text-anchor="middle" x="77.2396" y="-108.289" font-family="monospace" font-size="8.00">41</text>
</g>
<!-- 3&#45;&gt;41 -->
<g id="edge22" class="edge"><title>3&#45;&gt;41</title>
<path fill="none" stroke="black" d="M70.1461,-136.293C72.6187,-127.194 74.9708,-118.538 76.2482,-113.837"/>
</g>
<!-- 43 -->
<g id="node44" class="node"><title>43</title>
<ellipse fill="#1874cd" stroke="black" cx="57.1804" cy="-152.499" rx="3.5" ry="3.5"/>
<text text-anchor="middle" x="57.1804" y="-150.599" font-family="monospace" font-size="8.00">43</text>
</g>
<!-- 3&#45;&gt;43 -->
<g id="edge23" class="edge"><title>3&#45;&gt;43</title>
<path fill="none" stroke="black" d="M57.1918,-152.547C57.188,-152.531 57.1852,-152.519 57.1833,-152.511"/>
</g>
<!-- 44 -->
<g id="node45" class="node"><title>44</title>
<ellipse fill="#1874cd" stroke="black" cx="-21.8895" cy="-219.651" rx="3.5" ry="3.5"/>
<text text-anchor="middle" x="-21.8895" y="-217.751" font-family="monospace" font-size="8.00">44</text>
</g>
<!-- 3&#45;&gt;44 -->
<g id="edge24" class="edge"><title>3&#45;&gt;44</title>
<path fill="none" stroke="black" d="M31.6549,-187.201C12.4431,-198.844 -10.5209,-212.761 -18.7583,-217.753"/>
</g>
<!-- 46 -->
<g id="node47" class="node"><title>46</title>
<ellipse fill="#1874cd" stroke="black" cx="66.9712" cy="-277.957" rx="3.5" ry="3.5"/>
<text text-anchor="middle" x="66.9712" y="-276.057" font-family="monospace" font-size="8.00">46</text>
</g>
<!-- 3&#45;&gt;46 -->
<g id="edge27" class="edge"><title>3&#45;&gt;46</title>
<path fill="none" stroke="black" d="M62.9922,-203.389C64.4001,-229.775 66.2049,-263.597 66.7837,-274.444"/>
</g>
<!-- 56 -->
<g id="node57" class="node"><title>56</title>
<ellipse fill="#98f5ff" stroke="black" cx="148.712" cy="-191.154" rx="3.5" ry="3.5"/>
<text text-anchor="middle" x="148.712" y="-189.254" font-family="monospace" font-size="8.00">56</text>
</g>
<!-- 3&#45;&gt;56 -->
<g id="edge28" class="edge"><title>3&#45;&gt;56</title>
<path fill="none" stroke="black" d="M94.268,-177.569C113.828,-182.45 136.418,-188.087 145.077,-190.247"/>
</g>
<!-- 59 -->
<g id="node60" class="node"><title>59</title>
<ellipse fill="black" stroke="black" cx="151.424" cy="-151.125" rx="3.5" ry="3.5"/>
<text text-anchor="middle" x="151.424" y="-149.225" font-family="monospace" font-size="8.00">59</text>
</g>
<!-- 3&#45;&gt;59 -->
<g id="edge29" class="edge"><title>3&#45;&gt;59</title>
<path fill="none" stroke="black" d="M94.5232,-162.591C115.01,-158.462 138.979,-153.632 147.871,-151.841"/>
</g>
<!-- anon_3_35_0 -->
<g id="node63" class="node"><title>anon_3_35_0</title>
<ellipse fill="white" stroke="black" cx="0.0595829" cy="-267.312" rx="2.5" ry="2.5"/>
</g>
<!-- 3&#45;&gt;anon_3_35_0 -->
<g id="edge17" class="edge"><title>3&#45;&gt;anon_3_35_0</title>
<path fill="none" stroke="black" d="M43.168,-198.185C27.6759,-223.027 6.97419,-256.224 1.45819,-265.069"/>
</g>
<!-- anon_3_40_0 -->
<g id="node64" class="node"><title>anon_3_40_0</title>
<ellipse fill="white" stroke="black" cx="180.63" cy="-162.972" rx="2.5" ry="2.5"/>
</g>
<!-- 3&#45;&gt;anon_3_40_0 -->
<g id="edge20" class="edge"><title>3&#45;&gt;anon_3_40_0</title>
<path fill="none" stroke="black" d="M95.405,-167.495C125.74,-165.885 166.877,-163.702 177.847,-163.12"/>
</g>
<!-- anon_3_45_0 -->
<g id="node65" class="node"><title>anon_3_45_0</title>
<ellipse fill="white" stroke="black" cx="155.808" cy="-227.98" rx="2.5" ry="2.5"/>
</g>
<!-- 3&#45;&gt;anon_3_45_0 -->
<g id="edge25" class="edge"><title>3&#45;&gt;anon_3_45_0</title>
<path fill="none" stroke="black" d="M90.0814,-187.233C113.563,-201.79 144.211,-220.791 153.216,-226.373"/>
</g>
<!-- 4 -->
<g id="node5" class="node"><title>4</title>
<path fill="#98f5ff" stroke="black" stroke-width="0.5" d="M-96.8681,36.091C-96.8681,36.091 -64.8681,36.091 -64.8681,36.091 -64.8681,34.6404 -64.9668,33.1916 -65.1633,31.7544 -65.3599,30.3173 -65.654,28.8952 -66.0435,27.4979 -66.433,26.1007 -66.917,24.7315 -67.4923,23.4 -68.0676,22.0684 -68.7327,20.7775 -69.4831,19.5362 -70.2335,18.2948 -71.0675,17.1059 -71.9792,15.9778 -72.8909,14.8496 -73.8783,13.7847 -74.9345,12.7905 -75.9906,11.7962 -77.1132,10.875 -78.2944,10.033 -79.4756,9.1911 -80.7126,8.43046 -81.997,7.75637 -83.2814,7.08228 -84.6101,6.49629 -85.974,6.00247 -87.3378,5.50865 -88.7337,5.10814 -90.1519,4.8037 -91.5702,4.49926 -93.0074,4.29161 -94.4538,4.18217 -95.9002,4.07273 -97.3524,4.06176 -98.8003,4.14934 -100.248,4.23692 -101.688,4.42285 -103.111,4.70583 -104.534,4.98882 -105.935,5.3682 -107.307,5.84137 -108.678,6.31453 -110.015,6.88038 -111.31,7.535 -112.604,8.18962 -113.852,8.93149 -115.046,9.75548 -115.046,9.75548 -96.8681,36.091 -96.8681,36.091"/>
<path fill="#ff3030" stroke="black" stroke-width="0.5" d="M-96.8681,36.091C-96.8681,36.091 -115.046,9.75548 -115.046,9.75548 -115.93,10.3657 -116.783,11.0201 -117.601,11.7162 -118.42,12.4122 -119.202,13.149 -119.947,13.9238 -120.691,14.6986 -121.395,15.5103 -122.058,16.356 -122.721,17.2016 -123.34,18.0801 -123.914,18.9881 -124.488,19.896 -125.016,20.8323 -125.496,21.7934 -125.976,22.7545 -126.408,23.7391 -126.789,24.7436 -127.17,25.7481 -127.5,26.7711 -127.778,27.8088 -128.056,28.8464 -128.281,29.8974 -128.454,30.9578 -128.454,30.9578 -96.8681,36.091 -96.8681,36.091"/>
<path fill="deepskyblue" stroke="black" stroke-width="0.5" d="M-96.8681,36.091C-96.8681,36.091 -128.454,30.9578 -128.454,30.9578 -128.63,32.0447 -128.751,33.14 -128.815,34.2393 -128.878,35.3386 -128.885,36.4404 -128.835,37.5404 -128.785,38.6404 -128.679,39.7372 -128.516,40.8262 -128.353,41.9152 -128.134,42.9951 -127.86,44.0615 -127.585,45.128 -127.256,46.1795 -126.873,47.212 -126.491,48.2445 -126.055,49.2566 -125.568,50.2442 -125.081,51.2318 -124.543,52.1936 -123.957,53.1257 -123.371,54.0579 -122.737,54.9592 -122.058,55.826 -121.379,56.6928 -120.656,57.5239 -119.891,58.3162 -119.126,59.1084 -118.321,59.8606 -117.478,60.5698 -116.636,61.279 -115.758,61.9443 -114.847,62.563 -113.936,63.1816 -112.994,63.7529 -112.024,64.2744 -111.054,64.7959 -110.058,65.267 -109.04,65.6858 -108.021,66.1047 -106.982,66.4707 -105.926,66.7823 -104.87,67.094 -103.798,67.351 -102.716,67.5522 -101.633,67.7534 -100.541,67.8986 -99.4431,67.9872 -98.3455,68.0758 -97.2441,68.1077 -96.1432,68.0827 -95.0424,68.0578 -93.9435,67.9761 -92.8511,67.8378 -91.7586,67.6996 -90.6741,67.5051 -89.6017,67.255 -88.5293,67.005 -87.4706,66.6998 -86.4296,66.3406 -85.3887,65.9814 -84.3671,65.5687 -83.3687,65.1041 -82.3703,64.6396 -81.3966,64.1239 -80.4514,63.559 -79.5062,62.994 -78.5908,62.3807 -77.7088,61.7214 -76.8269,61.0622 -75.9795,60.3578 -75.1702,59.6111 -74.3608,58.8645 -73.5906,58.0766 -72.8625,57.2505 -72.1343,56.4245 -71.4493,55.5614 -70.8102,54.6647 -70.1711,53.768 -69.5786,52.839 -69.0353,51.8812 -68.4919,50.9235 -67.9984,49.9383 -67.5566,48.9297 -67.1148,47.921 -66.7254,46.8903 -66.3898,45.8415 -66.0543,44.7927 -65.7731,43.7273 -65.5475,42.6496 -65.3218,41.5718 -65.1519,40.4831 -65.0384,39.3878 -64.925,38.2925 -64.8681,37.1921 -64.8681,36.091 -64.8681,36.091 -96.8681,36.091 -96.8681,36.091"/>
<ellipse fill="none" stroke="black" cx="-96.8681" cy="36.091" rx="32" ry="32"/>
<text text-anchor="middle" x="-96.8681" y="37.991" font-family="monospace" font-size="8.00">4</text>
</g>
<!-- 11 -->
<g id="node12" class="node"><title>11</title>
<ellipse fill="deepskyblue" stroke="black" cx="-22.2566" cy="86.4665" rx="3.5" ry="3.5"/>
<text text-anchor="middle" x="-22.2566" y="88.3665" font-family="monospace" font-size="8.00">11</text>
</g>
<!-- 4&#45;&gt;11 -->
<g id="edge31" class="edge"><title>4&#45;&gt;11</title>
<path fill="none" stroke="black" d="M-69.9317,54.2777C-52.9012,65.7762 -32.7389,79.3891 -25.2507,84.445"/>
</g>
<!-- 55 -->
<g id="node56" class="node"><title>55</title>
<ellipse fill="#98f5ff" stroke="black" cx="-201.799" cy="53.9577" rx="3.5" ry="3.5"/>
<text text-anchor="middle" x="-201.799" y="55.8577" font-family="monospace" font-size="8.00">55</text>
</g>
<!-- 4&#45;&gt;55 -->
<g id="edge32" class="edge"><title>4&#45;&gt;55</title>
<path fill="none" stroke="black" d="M-128.636,41.5001C-154.211,45.8549 -187.602,51.5404 -198.325,53.3661"/>
</g>
<!-- 5 -->
<g id="node6" class="node"><title>5</title>
<ellipse fill="#ff3030" stroke="black" cx="63.7551" cy="47.1004" rx="18" ry="18"/>
<text text-anchor="middle" x="63.7551" y="49.0004" font-family="monospace" font-size="8.00">5</text>
</g>
<!-- 32 -->
<g id="node33" class="node"><title>32</title>
<ellipse fill="#ff3030" stroke="black" cx="38.6663" cy="87.7589" rx="3.5" ry="3.5"/>
<text text-anchor="middle" x="38.6663" y="89.6589" font-family="monospace" font-size="8.00">32</text>
</g>
<!-- 5&#45;&gt;32 -->
<g id="edge34" class="edge"><title>5&#45;&gt;32</title>
<path fill="none" stroke="black" d="M54.1269,62.7037C49.1521,70.7657 43.5296,79.8774 40.6297,84.577"/>
</g>
<!-- 38 -->
<g id="node39" class="node"><title>38</title>
<ellipse fill="#ff3030" stroke="black" cx="119.565" cy="106.112" rx="3.5" ry="3.5"/>
<text text-anchor="middle" x="119.565" y="108.012" font-family="monospace" font-size="8.00">38</text>
</g>
<!-- 5&#45;&gt;38 -->
<g id="edge35" class="edge"><title>5&#45;&gt;38</title>
<path fill="none" stroke="black" d="M76.1411,60.1969C89.5002,74.3223 109.817,95.8048 116.966,103.364"/>
</g>
<!-- 39 -->
<g id="node40" class="node"><title>39</title>
<ellipse fill="#ff3030" stroke="black" cx="88.0712" cy="126.866" rx="3.5" ry="3.5"/>
<text text-anchor="middle" x="88.0712" y="128.766" font-family="monospace" font-size="8.00">39</text>
</g>
<!-- 5&#45;&gt;39 -->
<g id="edge36" class="edge"><title>5&#45;&gt;39</title>
<path fill="none" stroke="black" d="M69.0314,64.4084C74.8979,83.6527 83.9518,113.353 87.0162,123.405"/>
</g>
<!-- 5&#45;&gt;60 -->
<g id="edge71" class="edge"><title>5&#45;&gt;60</title>
<path fill="none" stroke="black" stroke-dasharray="5,2" d="M81.6366,50.9815C95.0611,53.8952 112.782,57.7415 122.771,59.9095"/>
<polygon fill="black" stroke="black" points="123.153,58.2015 127.668,60.9723 122.41,61.6218 123.153,58.2015"/>
<text text-anchor="middle" x="118.204" y="52.8455" font-family="monospace" font-size="8.00">A1934V</text>
</g>
<!-- 6 -->
<g id="node7" class="node"><title>6</title>
<path fill="#ff3030" stroke="black" stroke-width="0.5" d="M-11.7342,-38.3178C-11.7342,-38.3178 22.7658,-38.3178 22.7658,-38.3178 22.7658,-39.8723 22.6607,-41.425 22.4513,-42.9654 22.2419,-44.5057 21.9286,-46.0301 21.5136,-47.5282 21.5136,-47.5282 -11.7342,-38.3178 -11.7342,-38.3178"/>
<path fill="deepskyblue" stroke="black" stroke-width="0.5" d="M-11.7342,-38.3178C-11.7342,-38.3178 21.5136,-47.5282 21.5136,-47.5282 21.2024,-48.6516 20.8345,-49.7584 20.4112,-50.8446 19.988,-51.9307 19.5099,-52.9947 18.979,-54.0324 18.448,-55.0701 17.8648,-56.0803 17.2316,-57.059 16.5984,-58.0377 15.916,-58.9836 15.187,-59.8932 15.187,-59.8932 -11.7342,-38.3178 -11.7342,-38.3178"/>
<path fill="brown" stroke="black" stroke-width="0.5" d="M-11.7342,-38.3178C-11.7342,-38.3178 15.187,-59.8932 15.187,-59.8932 14.5567,-60.6796 13.8923,-61.438 13.1957,-62.1662 12.4991,-62.8945 11.7709,-63.5918 11.0132,-64.2563 10.2555,-64.9208 9.46907,-65.5517 8.65615,-66.1473 7.84323,-66.7429 7.0046,-67.3027 6.14268,-67.8249 5.28075,-68.3471 4.39636,-68.8312 3.49205,-69.276 2.58774,-69.7208 1.66437,-70.1257 0.724603,-70.4897 -0.215162,-70.8536 -1.17042,-71.1762 -2.13843,-71.4565 -3.10643,-71.7368 -4.08626,-71.9745 -5.07508,-72.169 -6.0639,-72.3636 -7.06077,-72.5147 -8.06282,-72.6219 -9.06487,-72.7292 -10.0711,-72.7924 -11.0787,-72.8116 -12.0863,-72.8307 -13.0943,-72.8057 -14.0997,-72.7366 -15.1051,-72.6675 -16.107,-72.5544 -17.1024,-72.3976 -18.0979,-72.2408 -19.0861,-72.0404 -20.0641,-71.7971 -21.042,-71.5538 -22.0088,-71.2678 -22.9617,-70.9398 -23.9147,-70.6118 -24.8527,-70.2423 -25.7733,-69.8322 -26.6939,-69.4221 -27.596,-68.9718 -28.4772,-68.4828 -29.3583,-67.9937 -30.2176,-67.4663 -31.0526,-66.9019 -31.8875,-66.3376 -32.6974,-65.737 -33.4797,-65.1018 -34.2621,-64.4666 -35.0163,-63.7974 -35.7401,-63.0962 -36.4639,-62.395 -37.1566,-61.6624 -37.8163,-60.9005 -38.4759,-60.1386 -39.1019,-59.3482 -39.6923,-58.5315 -40.2828,-57.7149 -40.8372,-56.8727 -41.3539,-56.0075 -41.8707,-55.1423 -42.3492,-54.2548 -42.7883,-53.3477 -43.2273,-52.4406 -43.6264,-51.5147 -43.9843,-50.5726 -44.3423,-49.6306 -44.6588,-48.6733 -44.933,-47.7035 -45.2072,-46.7338 -45.4387,-45.7525 -45.627,-44.7624 -45.8152,-43.7724 -45.96,-42.7746 -46.0609,-41.7719 -46.1618,-40.7692 -46.2187,-39.7625 -46.2315,-38.7548 -46.2442,-37.7471 -46.2128,-36.7394 -46.1374,-35.7344 -46.0619,-34.7295 -45.9425,-33.7283 -45.7793,-32.7339 -45.6162,-31.7394 -45.4096,-30.7525 -45.1601,-29.7761 -44.9106,-28.7997 -44.6184,-27.8347 -44.2844,-26.8839 -43.9505,-25.9331 -43.575,-24.9974 -43.159,-24.0794 -42.7431,-23.1615 -42.2872,-22.2622 -41.7925,-21.3842 -41.2979,-20.5061 -40.765,-19.6502 -40.1954,-18.8188 -39.6259,-17.9875 -39.0201,-17.1814 -38.38,-16.4031 -37.7398,-15.6248 -37.0659,-14.8748 -36.3601,-14.1555 -35.6543,-13.4362 -34.9173,-12.7481 -34.1513,-12.0933 -33.3852,-11.4385 -32.5909,-10.8175 -31.7705,-10.2322 -30.9501,-9.64696 -30.1044,-9.09792 -29.2359,-8.58668 -28.3675,-8.07544 -27.477,-7.6025 -26.5671,-7.16922 -25.6573,-6.73594 -24.7288,-6.34273 -23.7845,-5.99074 -22.8402,-5.63874 -21.881,-5.32828 -20.9095,-5.06027 -19.938,-4.79225 -18.9553,-4.56693 -17.9641,-4.38495 -16.9729,-4.20297 -15.9742,-4.06451 -14.9708,-3.96997 -13.9675,-3.87543 -12.9605,-3.82489 -11.9528,-3.81851 -10.945,-3.81212 -9.93746,-3.8499 -8.93301,-3.93173 -7.92857,-4.01355 -6.92819,-4.13935 -5.93476,-4.30876 -4.94133,-4.47816 -3.9558,-4.69102 -2.981,-4.94671 -2.0062,-5.2024 -1.04308,-5.50067 -0.0943958,-5.84068 0.854287,-6.18069 1.78762,-6.56211 2.70291,-6.98383 3.6182,-7.40555 4.51457,-7.86717 5.38945,-8.36736 6.26432,-8.86756 7.11686,-9.40585 7.94461,-9.98069 8.77236,-10.5555 9.57453,-11.1663 10.3488,-11.8114 11.1231,-12.4565 11.8687,-13.1352 12.5836,-13.8455 13.2984,-14.5558 13.9818,-15.2972 14.6318,-16.0673 15.2817,-16.8375 15.8976,-17.6358 16.4777,-18.4599 17.0577,-19.284 17.6014,-20.1331 18.1072,-21.0048 18.6129,-21.8765 19.0802,-22.7699 19.5077,-23.6825 19.9352,-24.5951 20.3225,-25.526 20.6685,-26.4725 21.0145,-27.419 21.3189,-28.3802 21.5808,-29.3534 21.8426,-30.3265 22.0617,-31.3107 22.2374,-32.303 22.4131,-33.2954 22.5452,-34.2949 22.6334,-35.2988 22.7216,-36.3028 22.7658,-37.31 22.7658,-38.3178 22.7658,-38.3178 -11.7342,-38.3178 -11.7342,-38.3178"/>
<ellipse fill="none" stroke="black" cx="-11.7342" cy="-38.3178" rx="34.5" ry="34.5"/>
<text text-anchor="middle" x="-11.7342" y="-36.4178" font-family="monospace" font-size="8.00">6</text>
</g>
<!-- 6&#45;&gt;0 -->
<g id="edge1" class="edge"><title>6&#45;&gt;0</title>
<path fill="none" stroke="black" d="M-45.0278,-47.5168C-63.7617,-52.6929 -86.9538,-59.1008 -105.067,-64.1055"/>
<polygon fill="black" stroke="black" points="-105.68,-62.4592 -110.033,-65.4777 -104.748,-65.8328 -105.68,-62.4592"/>
<text text-anchor="middle" x="-91.0475" y="-58.4112" font-family="monospace" font-size="8.00">I1868T</text>
</g>
<!-- 6&#45;&gt;2 -->
<g id="edge6" class="edge"><title>6&#45;&gt;2</title>
<path fill="none" stroke="black" d="M17.0973,-18.9374C28.8755,-11.0201 42.0532,-2.16204 52.0667,4.56899"/>
<polygon fill="black" stroke="black" points="53.2551,3.25914 56.4284,7.50093 51.3025,6.16389 53.2551,3.25914"/>
<text text-anchor="middle" x="42.582" y="-0.784184" font-family="monospace" font-size="8.00">A1934V</text>
</g>
<!-- 6&#45;&gt;3 -->
<g id="edge8" class="edge"><title>6&#45;&gt;3</title>
<path fill="none" stroke="black" d="M5.17557,-68.6996C16.2041,-88.5145 30.6209,-114.417 42.0644,-134.978"/>
<polygon fill="black" stroke="black" points="40.6462,-136.028 44.607,-139.546 43.7044,-134.326 40.6462,-136.028"/>
<text text-anchor="middle" x="7.61997" y="-104.439" font-family="monospace" font-size="8.00">N1570Y</text>
</g>
<!-- 6&#45;&gt;4 -->
<g id="edge30" class="edge"><title>6&#45;&gt;4</title>
<path fill="none" stroke="black" d="M-37.7398,-15.5884C-47.5823,-6.9859 -58.8243,2.83985 -68.8443,11.5976"/>
<polygon fill="black" stroke="black" points="-67.8474,13.0505 -72.7638,15.0233 -70.1508,10.4152 -67.8474,13.0505"/>
<text text-anchor="middle" x="-69.2921" y="-4.59543" font-family="monospace" font-size="8.00">P1874L</text>
</g>
<!-- 6&#45;&gt;5 -->
<g id="edge33" class="edge"><title>6&#45;&gt;5</title>
<path fill="none" stroke="black" d="M11.3253,-12.2254C23.3236,1.35107 37.6675,17.5816 48.3169,29.6316"/>
<polygon fill="black" stroke="black" points="49.7782,28.6424 51.778,33.5479 47.1556,30.9602 49.7782,28.6424"/>
<text text-anchor="middle" x="13.8211" y="15.1031" font-family="monospace" font-size="8.00">P1874S</text>
</g>
<!-- 7 -->
<g id="node8" class="node"><title>7</title>
<ellipse fill="#ff3030" stroke="black" cx="-43.3916" cy="-91.4167" rx="9.5" ry="9.5"/>
<text text-anchor="middle" x="-43.3916" y="-89.5167" font-family="monospace" font-size="8.00">7</text>
</g>
<!-- 6&#45;&gt;7 -->
<g id="edge37" class="edge"><title>6&#45;&gt;7</title>
<path fill="none" stroke="black" d="M-29.4141,-67.9722C-31.5704,-71.589 -33.6803,-75.1279 -35.5806,-78.3154"/>
<polygon fill="black" stroke="black" points="-37.3136,-77.8049 -38.371,-82.9957 -34.3074,-79.5972 -37.3136,-77.8049"/>
<text text-anchor="middle" x="-48.4973" y="-75.7438" font-family="monospace" font-size="8.00">K1603T</text>
</g>
<!-- 8 -->
<g id="node9" class="node"><title>8</title>
<ellipse fill="#ff3030" stroke="black" cx="65.1273" cy="-7.36903" rx="6" ry="6"/>
<text text-anchor="middle" x="65.1273" y="-5.46903" font-family="monospace" font-size="8.00">8</text>
</g>
<!-- 6&#45;&gt;8 -->
<g id="edge38" class="edge"><title>6&#45;&gt;8</title>
<path fill="none" stroke="black" d="M20.4166,-25.3721C32.6805,-20.4339 45.8214,-15.1427 54.66,-11.5838"/>
<polygon fill="black" stroke="black" points="55.5765,-13.1013 59.5609,-9.61036 54.2691,-9.85464 55.5765,-13.1013"/>
<text text-anchor="middle" x="53.5383" y="-21.0779" font-family="monospace" font-size="8.00">L1667M</text>
</g>
<!-- 13 -->
<g id="node14" class="node"><title>13</title>
<ellipse fill="#ff3030" stroke="black" cx="-71.8747" cy="-114.894" rx="8" ry="8"/>
<text text-anchor="middle" x="-71.8747" y="-112.994" font-family="monospace" font-size="8.00">13</text>
</g>
<!-- 6&#45;&gt;13 -->
<g id="edge39" class="edge"><title>6&#45;&gt;13</title>
<path fill="none" stroke="black" d="M-33.1069,-65.5315C-43.6469,-78.952 -55.7469,-94.3588 -63.5858,-104.34"/>
<polygon fill="black" stroke="black" points="-65.1547,-103.504 -66.8667,-108.518 -62.4021,-105.666 -65.1547,-103.504"/>
<text text-anchor="middle" x="-64.3463" y="-87.5358" font-family="monospace" font-size="8.00">I1940T</text>
</g>
<!-- 14 -->
<g id="node15" class="node"><title>14</title>
<path fill="#ff3030" stroke="black" stroke-width="0.5" d="M-63.3046,67.8106C-63.3046,67.8106 -57.3046,67.8106 -57.3046,67.8106 -57.3046,67.5487 -57.3218,67.2871 -57.356,67.0274 -57.3901,66.7678 -57.4413,66.5106 -57.5091,66.2577 -57.5769,66.0047 -57.6611,65.7564 -57.7614,65.5145 -57.8616,65.2725 -57.9775,65.0374 -58.1085,64.8106 -58.2394,64.5838 -58.3851,64.3658 -58.5445,64.158 -58.7039,63.9502 -58.8768,63.7531 -59.062,63.5679 -59.2472,63.3827 -59.4443,63.2099 -59.6521,63.0504 -59.8598,62.891 -60.0778,62.7454 -60.3046,62.6144 -60.5314,62.4835 -60.7666,62.3675 -61.0085,62.2673 -61.2505,62.1671 -61.4988,62.0828 -61.7517,62.015 -62.0047,61.9472 -62.2618,61.8961 -62.5215,61.8619 -62.7811,61.8277 -63.0427,61.8106 -63.3046,61.8106 -63.5665,61.8106 -63.8281,61.8277 -64.0878,61.8619 -64.3474,61.8961 -64.6046,61.9472 -64.8575,62.015 -65.1105,62.0828 -65.3588,62.1671 -65.6007,62.2673 -65.8427,62.3675 -66.0778,62.4835 -66.3046,62.6144 -66.5314,62.7454 -66.7494,62.891 -66.9572,63.0504 -67.165,63.2099 -67.3621,63.3827 -67.5473,63.5679 -67.7325,63.7531 -67.9053,63.9502 -68.0648,64.158 -68.2242,64.3658 -68.3698,64.5838 -68.5008,64.8106 -68.6317,65.0374 -68.7477,65.2725 -68.8479,65.5145 -68.9481,65.7564 -69.0324,66.0047 -69.1002,66.2577 -69.168,66.5106 -69.2191,66.7678 -69.2533,67.0274 -69.2875,67.2871 -69.3046,67.5487 -69.3046,67.8106 -69.3046,68.0725 -69.2875,68.3341 -69.2533,68.5937 -69.2191,68.8534 -69.168,69.1105 -69.1002,69.3635 -69.0324,69.6165 -68.9481,69.8647 -68.8479,70.1067 -68.7477,70.3486 -68.6317,70.5838 -68.5008,70.8106 -68.3698,71.0374 -68.2242,71.2554 -68.0648,71.4631 -67.9053,71.6709 -67.7325,71.868 -67.5473,72.0532 -67.3621,72.2384 -67.165,72.4113 -66.9572,72.5707 -66.7494,72.7301 -66.5314,72.8758 -66.3046,73.0067 -66.3046,73.0067 -63.3046,67.8106 -63.3046,67.8106"/>
<path fill="#98f5ff" stroke="black" stroke-width="0.5" d="M-63.3046,67.8106C-63.3046,67.8106 -66.3046,73.0067 -66.3046,73.0067 -66.0778,73.1377 -65.8427,73.2536 -65.6007,73.3538 -65.3588,73.4541 -65.1105,73.5383 -64.8575,73.6061 -64.6046,73.6739 -64.3474,73.7251 -64.0878,73.7592 -63.8281,73.7934 -63.5665,73.8106 -63.3046,73.8106 -63.0427,73.8106 -62.7811,73.7934 -62.5215,73.7592 -62.2618,73.7251 -62.0047,73.6739 -61.7517,73.6061 -61.4988,73.5383 -61.2505,73.4541 -61.0085,73.3538 -60.7666,73.2536 -60.5314,73.1377 -60.3046,73.0067 -60.0778,72.8758 -59.8598,72.7301 -59.6521,72.5707 -59.4443,72.4113 -59.2472,72.2384 -59.062,72.0532 -58.8768,71.868 -58.7039,71.6709 -58.5445,71.4631 -58.3851,71.2554 -58.2394,71.0374 -58.1085,70.8106 -57.9775,70.5838 -57.8616,70.3486 -57.7614,70.1067 -57.6611,69.8647 -57.5769,69.6164 -57.5091,69.3635 -57.4413,69.1105 -57.3901,68.8534 -57.356,68.5937 -57.3218,68.3341 -57.3046,68.0725 -57.3046,67.8106 -57.3046,67.8106 -63.3046,67.8106 -63.3046,67.8106"/>
<ellipse fill="none" stroke="black" cx="-63.3046" cy="67.8106" rx="6" ry="6"/>
<text text-anchor="middle" x="-63.3046" y="69.7106" font-family="monospace" font-size="8.00">14</text>
</g>
<!-- 6&#45;&gt;14 -->
<g id="edge40" class="edge"><title>6&#45;&gt;14</title>
<path fill="none" stroke="black" d="M-26.9281,-7.04981C-37.5126,14.7324 -50.979,42.4453 -58.1925,57.2901"/>
<polygon fill="black" stroke="black" points="-56.7909,58.4099 -60.5502,62.1422 -59.9389,56.8801 -56.7909,58.4099"/>
<text text-anchor="middle" x="-29.0603" y="31.5201" font-family="monospace" font-size="8.00">T791M</text>
</g>
<!-- 17 -->
<g id="node18" class="node"><title>17</title>
<ellipse fill="#ff3030" stroke="black" cx="-46.1704" cy="-5.49374" rx="6" ry="6"/>
<text text-anchor="middle" x="-46.1704" y="-3.59374" font-family="monospace" font-size="8.00">17</text>
</g>
<!-- 6&#45;&gt;17 -->
<g id="edge41" class="edge"><title>6&#45;&gt;17</title>
<path fill="none" stroke="black" d="M-36.7605,-14.4631C-37.1048,-14.1349 -37.4437,-13.8119 -37.7766,-13.4945"/>
<polygon fill="black" stroke="black" points="-36.877,-11.9344 -41.7037,-9.75126 -39.2919,-14.4678 -36.877,-11.9344"/>
<text text-anchor="middle" x="-53.2686" y="-16.5788" font-family="monospace" font-size="8.00">N1345I</text>
</g>
<!-- 19 -->
<g id="node20" class="node"><title>19</title>
<path fill="deepskyblue" stroke="black" stroke-width="0.5" d="M-113.161,-39.5257C-113.161,-39.5257 -101.661,-39.5257 -101.661,-39.5257 -101.661,-39.9774 -101.687,-40.4288 -101.741,-40.8774 -101.794,-41.326 -101.873,-41.771 -101.979,-42.2103 -102.084,-42.6495 -102.215,-43.0822 -102.372,-43.506 -102.528,-43.9298 -102.709,-44.3441 -102.914,-44.7466 -103.119,-45.1491 -103.348,-45.5391 -103.599,-45.9147 -103.85,-46.2903 -104.123,-46.6508 -104.416,-46.9943 -104.71,-47.3378 -105.023,-47.6637 -105.355,-47.9704 -105.686,-48.277 -106.036,-48.5638 -106.401,-48.8294 -106.767,-49.0949 -107.148,-49.3387 -107.542,-49.5594 -107.936,-49.7801 -108.343,-49.9774 -108.76,-50.1503 -109.177,-50.3232 -109.604,-50.4713 -110.039,-50.5939 -110.474,-50.7165 -110.916,-50.8134 -111.362,-50.8841 -111.808,-50.9548 -112.258,-50.9991 -112.709,-51.0168 -113.161,-51.0345 -113.613,-51.0257 -114.063,-50.9902 -114.513,-50.9548 -114.961,-50.8928 -115.404,-50.8047 -115.847,-50.7166 -116.285,-50.6024 -116.715,-50.4628 -117.144,-50.3232 -117.565,-50.1584 -117.975,-49.9693 -118.386,-49.7802 -118.784,-49.5671 -119.17,-49.331 -119.555,-49.095 -119.926,-48.8365 -120.28,-48.5568 -120.635,-48.2772 -120.973,-47.9768 -121.293,-47.6574 -121.612,-47.338 -121.912,-47 -122.192,-46.6453 -122.472,-46.2905 -122.73,-45.9196 -122.966,-45.5344 -123.202,-45.1492 -123.415,-44.7505 -123.604,-44.3403 -123.794,-43.93 -123.958,-43.509 -124.098,-43.0794 -124.238,-42.6497 -124.352,-42.2123 -124.44,-41.7692 -124.528,-41.3262 -124.59,-40.8783 -124.625,-40.428 -124.661,-39.9776 -124.67,-39.5256 -124.652,-39.0742 -124.634,-38.6228 -124.59,-38.1728 -124.519,-37.7267 -124.449,-37.2805 -124.352,-36.8389 -124.229,-36.4041 -124.106,-35.9693 -123.958,-35.5422 -123.785,-35.1248 -123.613,-34.7075 -123.415,-34.3007 -123.195,-33.9065 -122.974,-33.5124 -122.73,-33.1316 -122.465,-32.7661 -122.465,-32.7661 -113.161,-39.5257 -113.161,-39.5257"/>
<path fill="#98f5ff" stroke="black" stroke-width="0.5" d="M-113.161,-39.5257C-113.161,-39.5257 -122.465,-32.7661 -122.465,-32.7661 -122.11,-32.2788 -121.719,-31.8199 -121.293,-31.3939 -120.867,-30.968 -120.408,-30.5761 -119.92,-30.222 -119.433,-29.8679 -118.919,-29.5526 -118.382,-29.2791 -117.845,-29.0056 -117.287,-28.7747 -116.715,-28.5885 -116.142,-28.4024 -115.555,-28.2615 -114.96,-28.1673 -114.365,-28.073 -113.763,-28.0257 -113.161,-28.0257 -112.558,-28.0257 -111.957,-28.073 -111.362,-28.1673 -110.767,-28.2615 -110.18,-28.4024 -109.607,-28.5885 -109.034,-28.7747 -108.477,-29.0056 -107.94,-29.2791 -107.403,-29.5526 -106.889,-29.8679 -106.401,-30.222 -105.914,-30.5761 -105.455,-30.968 -105.029,-31.3939 -104.603,-31.8199 -104.211,-32.2788 -103.857,-32.7661 -103.503,-33.2535 -103.188,-33.768 -102.914,-34.3048 -102.641,-34.8416 -102.41,-35.399 -102.224,-35.972 -102.038,-36.5449 -101.897,-37.1316 -101.802,-37.7267 -101.708,-38.3217 -101.661,-38.9232 -101.661,-39.5257 -101.661,-39.5257 -113.161,-39.5257 -113.161,-39.5257"/>
<ellipse fill="none" stroke="black" cx="-113.161" cy="-39.5257" rx="11.5" ry="11.5"/>
<text text-anchor="middle" x="-113.161" y="-37.6257" font-family="monospace" font-size="8.00">19</text>
</g>
<!-- 6&#45;&gt;19 -->
<g id="edge42" class="edge"><title>6&#45;&gt;19</title>
<path fill="none" stroke="black" d="M-46.3558,-38.7301C-63.1758,-38.9304 -82.6305,-39.1621 -96.1915,-39.3236"/>
<polygon fill="black" stroke="black" points="-96.2817,-37.5744 -101.26,-39.384 -96.2399,-41.0742 -96.2817,-37.5744"/>
<text text-anchor="middle" x="-63.2737" y="-32.6269" font-family="monospace" font-size="8.00">E1597G</text>
</g>
<!-- 26 -->
<g id="node27" class="node"><title>26</title>
<ellipse fill="deepskyblue" stroke="black" cx="3.73527" cy="-0.528274" rx="5" ry="5"/>
<text text-anchor="middle" x="3.73527" y="1.37173" font-family="monospace" font-size="8.00">26</text>
</g>
<!-- 6&#45;&gt;26 -->
<g id="edge43" class="edge"><title>6&#45;&gt;26</title>
<path fill="none" stroke="black" d="M1.45269,-6.10425C1.51716,-5.94678 1.58059,-5.79181 1.64295,-5.63947"/>
<polygon fill="black" stroke="black" points="1.55149,-10.481 1.82678,-5.19043 -1.68768,-9.1546 1.55149,-10.481"/>
<text text-anchor="middle" x="-14.4522" y="0.528138" font-family="monospace" font-size="8.00">I1584T</text>
</g>
<!-- 31 -->
<g id="node32" class="node"><title>31</title>
<path fill="deepskyblue" stroke="black" stroke-width="0.5" d="M-25.75,55.746C-25.75,55.746 -13.25,55.746 -13.25,55.746 -13.25,55.2686 -13.2774,54.7916 -13.3319,54.3174 -13.3865,53.8431 -13.4682,53.3724 -13.5766,52.9075 -13.685,52.4426 -13.8199,51.9843 -13.9807,51.5348 -14.1416,51.0854 -14.328,50.6455 -14.5391,50.2173 -14.7503,49.7892 -14.9857,49.3735 -15.2444,48.9723 -15.5031,48.5711 -15.7846,48.1851 -16.0874,47.816 -16.3902,47.447 -16.714,47.0957 -17.057,46.7637 -17.4,46.4317 -17.7618,46.1196 -18.1405,45.829 -18.5192,45.5384 -18.9143,45.2698 -19.3237,45.0243 -19.7332,44.7789 -20.1564,44.5572 -20.5912,44.3602 -21.026,44.1631 -21.4718,43.9912 -21.9262,43.8452 -22.3807,43.6991 -22.8432,43.5793 -23.3114,43.4861 -23.7796,43.393 -24.2527,43.3268 -24.7285,43.2878 -25.2043,43.2488 -25.6819,43.237 -26.159,43.2526 -26.6361,43.2683 -27.112,43.3112 -27.5842,43.3812 -28.0564,43.4513 -28.5242,43.5483 -28.9853,43.6719 -29.4464,43.7954 -29.9,43.9453 -30.344,44.1207 -30.7879,44.2962 -31.2215,44.4969 -31.6425,44.7219 -32.0635,44.947 -32.4713,45.1959 -32.8638,45.4676 -33.2563,45.7393 -33.6329,46.0332 -33.9919,46.348 -34.3508,46.6627 -34.6913,46.9978 -35.0119,47.3515 -35.3325,47.7052 -35.6326,48.077 -35.9106,48.465 -36.1887,48.853 -36.4443,49.2566 -36.6762,49.6739 -36.908,50.0912 -37.1158,50.5214 -37.2985,50.9624 -37.4812,51.4034 -37.6385,51.8546 -37.7696,52.3136 -37.9006,52.7726 -38.0053,53.2388 -38.0831,53.7098 -38.1608,54.1808 -38.2116,54.6558 -38.235,55.1326 -38.2584,55.6094 -38.2545,56.0871 -38.2233,56.5635 -38.192,57.0398 -38.1336,57.514 -38.0481,57.9837 -37.9626,58.4533 -37.8504,58.9177 -37.7118,59.3745 -37.5732,59.8313 -37.4086,60.2798 -37.2187,60.7178 -37.0288,61.1558 -36.814,61.5825 -36.5753,61.996 -36.5753,61.996 -25.75,55.746 -25.75,55.746"/>
<path fill="#98f5ff" stroke="black" stroke-width="0.5" d="M-25.75,55.746C-25.75,55.746 -36.5753,61.996 -36.5753,61.996 -36.2343,62.5867 -35.8454,63.1486 -35.4127,63.6759 -34.9799,64.2032 -34.5047,64.6942 -33.9919,65.144 -33.479,65.5937 -32.9302,66.0008 -32.3509,66.361 -31.7716,66.7212 -31.1638,67.0334 -30.5336,67.2945 -29.9034,67.5555 -29.2528,67.7645 -28.5885,67.9194 -27.9242,68.0743 -27.2483,68.1746 -26.5676,68.2192 -25.8869,68.2638 -25.2037,68.2526 -24.5248,68.1858 -23.846,68.1189 -23.1737,67.9966 -22.5148,67.82 -21.8559,67.6435 -21.2125,67.4133 -20.5912,67.1318 -19.9698,66.8502 -19.3726,66.5183 -18.8054,66.1393 -18.2382,65.7603 -17.703,65.3356 -17.2051,64.8693 -16.7073,64.4029 -16.2484,63.8967 -15.8331,63.3555 -15.4178,62.8143 -15.0476,62.24 -14.726,61.6384 -14.4045,61.0368 -14.1327,60.4099 -13.9134,59.7639 -13.6941,59.118 -13.5281,58.4552 -13.417,57.7821 -13.3059,57.1091 -13.25,56.4281 -13.25,55.746 -13.25,55.746 -25.75,55.746 -25.75,55.746"/>
<ellipse fill="none" stroke="black" cx="-25.75" cy="55.746" rx="12.5" ry="12.5"/>
<text text-anchor="middle" x="-25.75" y="57.646" font-family="monospace" font-size="8.00">31</text>
</g>
<!-- 6&#45;&gt;31 -->
<g id="edge47" class="edge"><title>6&#45;&gt;31</title>
<path fill="none" stroke="black" d="M-16.8339,-4.09254C-18.9516,10.12 -21.321,26.0215 -23.0847,37.8581"/>
<polygon fill="black" stroke="black" points="-21.3815,38.3023 -23.8493,42.9898 -24.8432,37.7864 -21.3815,38.3023"/>
<text text-anchor="middle" x="-35.9593" y="14.2828" font-family="monospace" font-size="8.00">V1853I</text>
</g>
<!-- 47 -->
<g id="node48" class="node"><title>47</title>
<ellipse fill="brown" stroke="black" cx="-12.1751" cy="-80.2376" rx="3.5" ry="3.5"/>
<text text-anchor="middle" x="-12.1751" y="-78.3376" font-family="monospace" font-size="8.00">47</text>
</g>
<!-- 6&#45;&gt;47 -->
<g id="edge48" class="edge"><title>6&#45;&gt;47</title>
<path fill="none" stroke="black" d="M-12.0983,-72.9357C-12.1126,-74.2933 -12.1255,-75.5154 -12.1364,-76.5542"/>
</g>
<!-- 48 -->
<g id="node49" class="node"><title>48</title>
<ellipse fill="brown" stroke="black" cx="8.43719" cy="50.5383" rx="6" ry="6"/>
<text text-anchor="middle" x="8.43719" y="52.4383" font-family="monospace" font-size="8.00">48</text>
</g>
<!-- 6&#45;&gt;48 -->
<g id="edge49" class="edge"><title>6&#45;&gt;48</title>
<path fill="none" stroke="black" d="M-4.05074,-4.47163C0.090979,13.7729 4.80655,34.5452 7.07572,44.541"/>
</g>
<!-- 50 -->
<g id="node51" class="node"><title>50</title>
<ellipse fill="brown" stroke="black" cx="73.5715" cy="-62.2794" rx="8" ry="8"/>
<text text-anchor="middle" x="73.5715" y="-60.3794" font-family="monospace" font-size="8.00">50</text>
</g>
<!-- 6&#45;&gt;50 -->
<g id="edge52" class="edge"><title>6&#45;&gt;50</title>
<path fill="none" stroke="black" d="M21.4915,-47.6506C37.5845,-52.171 55.5623,-57.2208 65.6276,-60.0481"/>
</g>
<!-- 51 -->
<g id="node52" class="node"><title>51</title>
<ellipse fill="brown" stroke="black" cx="23.8221" cy="-43.7625" rx="3.5" ry="3.5"/>
<text text-anchor="middle" x="23.8221" y="-41.8625" font-family="monospace" font-size="8.00">51</text>
</g>
<!-- 6&#45;&gt;51 -->
<g id="edge53" class="edge"><title>6&#45;&gt;51</title>
<path fill="none" stroke="black" d="M22.9432,-43.6279C23.2264,-43.6713 23.4461,-43.7049 23.5951,-43.7277"/>
</g>
<!-- 54 -->
<g id="node55" class="node"><title>54</title>
<ellipse fill="brown" stroke="black" cx="-55.3191" cy="-50.6454" rx="3.5" ry="3.5"/>
<text text-anchor="middle" x="-55.3191" y="-48.7454" font-family="monospace" font-size="8.00">54</text>
</g>
<!-- 6&#45;&gt;54 -->
<g id="edge54" class="edge"><title>6&#45;&gt;54</title>
<path fill="none" stroke="black" d="M-45.2103,-47.7862C-47.7708,-48.5104 -50.0257,-49.1482 -51.7524,-49.6366"/>
</g>
<!-- anon_6_27_0 -->
<g id="node66" class="node"><title>anon_6_27_0</title>
<ellipse fill="white" stroke="black" cx="-93.3698" cy="-93.176" rx="2.5" ry="2.5"/>
</g>
<!-- 6&#45;&gt;anon_6_27_0 -->
<g id="edge44" class="edge"><title>6&#45;&gt;anon_6_27_0</title>
<path fill="none" stroke="black" d="M-40.7458,-57.8132C-60.1772,-70.8709 -83.5144,-86.5533 -90.9626,-91.5583"/>
</g>
<!-- anon_6_49_0 -->
<g id="node68" class="node"><title>anon_6_49_0</title>
<ellipse fill="white" stroke="black" cx="-88.4661" cy="-13.1763" rx="2.5" ry="2.5"/>
</g>
<!-- 6&#45;&gt;anon_6_49_0 -->
<g id="edge50" class="edge"><title>6&#45;&gt;anon_6_49_0</title>
<path fill="none" stroke="black" d="M-44.7208,-27.5096C-61.2933,-22.0795 -79.2321,-16.2018 -85.8359,-14.0381"/>
</g>
<!-- 57 -->
<g id="node58" class="node"><title>57</title>
<ellipse fill="black" stroke="black" cx="126.921" cy="24.1262" rx="6" ry="6"/>
<text text-anchor="middle" x="126.921" y="26.0262" font-family="monospace" font-size="8.00">57</text>
</g>
<!-- 8&#45;&gt;57 -->
<g id="edge55" class="edge"><title>8&#45;&gt;57</title>
<path fill="none" stroke="black" d="M70.8299,-4.46249C82.6616,1.56795 109.745,15.372 121.41,21.3174"/>
</g>
<!-- 9 -->
<g id="node10" class="node"><title>9</title>
<ellipse fill="deepskyblue" stroke="black" cx="-102.029" cy="188.358" rx="3.5" ry="3.5"/>
<text text-anchor="middle" x="-102.029" y="190.258" font-family="monospace" font-size="8.00">9</text>
</g>
<!-- 15 -->
<g id="node16" class="node"><title>15</title>
<path fill="#98f5ff" stroke="black" stroke-width="0.5" d="M-120.509,119.53C-120.509,119.53 -102.509,119.53 -102.509,119.53 -102.509,118.87 -102.546,118.21 -102.618,117.555 -102.691,116.899 -102.799,116.247 -102.943,115.603 -103.087,114.959 -103.266,114.324 -103.48,113.699 -103.694,113.075 -103.942,112.463 -104.223,111.866 -104.504,111.269 -104.817,110.687 -105.162,110.125 -105.507,109.562 -105.882,109.019 -106.287,108.497 -106.691,107.976 -107.124,107.477 -107.583,107.003 -108.042,106.529 -108.527,106.081 -109.036,105.661 -109.544,105.24 -110.075,104.848 -110.627,104.485 -111.179,104.123 -111.75,103.791 -112.338,103.492 -112.926,103.192 -113.53,102.925 -114.147,102.692 -114.764,102.459 -115.394,102.259 -116.033,102.095 -116.672,101.931 -117.32,101.802 -117.973,101.709 -118.627,101.616 -119.284,101.559 -119.944,101.539 -120.604,101.518 -121.264,101.534 -121.922,101.585 -122.58,101.637 -123.234,101.725 -123.882,101.849 -123.882,101.849 -120.509,119.53 -120.509,119.53"/>
<path fill="deepskyblue" stroke="black" stroke-width="0.5" d="M-120.509,119.53C-120.509,119.53 -123.882,101.849 -123.882,101.849 -124.716,102.008 -125.537,102.225 -126.34,102.5 -127.143,102.775 -127.925,103.106 -128.681,103.492 -129.437,103.877 -130.165,104.315 -130.86,104.803 -131.554,105.291 -132.213,105.827 -132.831,106.408 -133.45,106.989 -134.027,107.613 -134.557,108.275 -135.088,108.938 -135.571,109.637 -136.003,110.367 -136.435,111.097 -136.815,111.858 -137.139,112.641 -137.464,113.425 -137.733,114.231 -137.944,115.053 -138.155,115.875 -138.308,116.711 -138.401,117.555 -138.494,118.398 -138.527,119.247 -138.501,120.095 -138.474,120.943 -138.387,121.789 -138.241,122.625 -138.096,123.46 -137.891,124.285 -137.628,125.092 -137.366,125.899 -137.047,126.687 -136.674,127.449 -136.301,128.211 -135.874,128.945 -135.397,129.647 -134.92,130.349 -134.394,131.016 -133.823,131.644 -133.252,132.272 -132.637,132.858 -131.983,133.399 -131.329,133.94 -130.638,134.434 -129.914,134.877 -129.191,135.321 -128.437,135.712 -127.658,136.049 -126.879,136.386 -126.078,136.668 -125.259,136.892 -124.441,137.116 -123.607,137.282 -122.765,137.388 -121.924,137.494 -121.075,137.541 -120.227,137.528 -119.378,137.514 -118.532,137.441 -117.694,137.308 -116.855,137.175 -116.028,136.984 -115.217,136.734 -114.406,136.485 -113.613,136.178 -112.845,135.817 -112.078,135.455 -111.336,135.04 -110.627,134.574 -109.918,134.108 -109.242,133.593 -108.606,133.032 -107.969,132.471 -107.373,131.865 -106.822,131.22 -106.271,130.575 -105.766,129.891 -105.312,129.175 -104.857,128.458 -104.453,127.71 -104.104,126.937 -103.755,126.164 -103.461,125.367 -103.224,124.552 -102.987,123.737 -102.809,122.906 -102.689,122.066 -102.569,121.226 -102.509,120.378 -102.509,119.53 -102.509,119.53 -120.509,119.53 -120.509,119.53"/>
<ellipse fill="none" stroke="black" cx="-120.509" cy="119.53" rx="18" ry="18"/>
<text text-anchor="middle" x="-120.509" y="121.43" font-family="monospace" font-size="8.00">15</text>
</g>
<!-- 9&#45;&gt;15 -->
<g id="edge56" class="edge"><title>9&#45;&gt;15</title>
<path fill="none" stroke="black" d="M-103.023,184.657C-105.392,175.834 -111.498,153.093 -115.825,136.976"/>
</g>
<!-- 12 -->
<g id="node13" class="node"><title>12</title>
<ellipse fill="deepskyblue" stroke="black" cx="-190.154" cy="117.177" rx="3.5" ry="3.5"/>
<text text-anchor="middle" x="-190.154" y="119.077" font-family="monospace" font-size="8.00">12</text>
</g>
<!-- 12&#45;&gt;15 -->
<g id="edge57" class="edge"><title>12&#45;&gt;15</title>
<path fill="none" stroke="black" d="M-186.41,117.303C-177.594,117.601 -155.052,118.363 -138.785,118.912"/>
</g>
<!-- 28 -->
<g id="node29" class="node"><title>28</title>
<ellipse fill="#ff3030" stroke="black" cx="-117.37" cy="-157.806" rx="3.5" ry="3.5"/>
<text text-anchor="middle" x="-117.37" y="-155.906" font-family="monospace" font-size="8.00">28</text>
</g>
<!-- 13&#45;&gt;28 -->
<g id="edge58" class="edge"><title>13&#45;&gt;28</title>
<path fill="none" stroke="black" d="M-77.8225,-120.504C-87.8423,-129.955 -107.688,-148.673 -114.777,-155.36"/>
</g>
<!-- 14&#45;&gt;15 -->
<g id="edge59" class="edge"><title>14&#45;&gt;15</title>
<path fill="none" stroke="black" d="M-67.7934,71.8689C-75.2712,78.6296 -90.6649,92.5472 -102.896,103.606"/>
<polygon fill="black" stroke="black" points="-102.025,105.177 -106.907,107.232 -104.372,102.581 -102.025,105.177"/>
<text text-anchor="middle" x="-101.345" y="85.1373" font-family="monospace" font-size="8.00">A1746S</text>
</g>
<!-- 61 -->
<g id="node62" class="node"><title>61</title>
<ellipse fill="white" stroke="black" cx="-36.3874" cy="115.52" rx="2.5" ry="2.5"/>
<text text-anchor="middle" x="-36.3874" y="117.42" font-family="monospace" font-size="8.00">61</text>
</g>
<!-- 14&#45;&gt;61 -->
<g id="edge60" class="edge"><title>14&#45;&gt;61</title>
<path fill="none" stroke="black" d="M-60.2169,73.2835C-55.2767,82.0398 -45.6061,99.1804 -40.2276,108.714"/>
<polygon fill="black" stroke="black" points="-38.6712,107.911 -37.7384,113.126 -41.7195,109.631 -38.6712,107.911"/>
<text text-anchor="middle" x="-66.2222" y="88.3985" font-family="monospace" font-size="8.00">V1853I</text>
</g>
<!-- anon_15_23_0 -->
<g id="node69" class="node"><title>anon_15_23_0</title>
<ellipse fill="white" stroke="black" cx="-161.414" cy="169.15" rx="2.5" ry="2.5"/>
</g>
<!-- 15&#45;&gt;anon_15_23_0 -->
<g id="edge61" class="edge"><title>15&#45;&gt;anon_15_23_0</title>
<path fill="none" stroke="black" d="M-132.122,133.616C-141.947,145.536 -155.144,161.544 -159.747,167.128"/>
</g>
<!-- 33 -->
<g id="node34" class="node"><title>33</title>
<ellipse fill="deepskyblue" stroke="black" cx="-179.827" cy="-34.6833" rx="3.5" ry="3.5"/>
<text text-anchor="middle" x="-179.827" y="-32.7833" font-family="monospace" font-size="8.00">33</text>
</g>
<!-- 19&#45;&gt;33 -->
<g id="edge64" class="edge"><title>19&#45;&gt;33</title>
<path fill="none" stroke="black" d="M-124.773,-38.6822C-140.143,-37.5658 -166.425,-35.6568 -176.106,-34.9536"/>
</g>
<!-- 20 -->
<g id="node21" class="node"><title>20</title>
<ellipse fill="deepskyblue" stroke="black" cx="-0.136322" cy="208.591" rx="3.5" ry="3.5"/>
<text text-anchor="middle" x="-0.136322" y="210.491" font-family="monospace" font-size="8.00">20</text>
</g>
<!-- anon_20_61_0 -->
<g id="node71" class="node"><title>anon_20_61_0</title>
<ellipse fill="white" stroke="black" cx="-17.1757" cy="162.551" rx="2.5" ry="2.5"/>
</g>
<!-- 20&#45;&gt;anon_20_61_0 -->
<g id="edge65" class="edge"><title>20&#45;&gt;anon_20_61_0</title>
<path fill="none" stroke="black" d="M-1.36175,205.28C-4.59721,196.538 -13.319,172.972 -16.2215,165.129"/>
</g>
<!-- 23 -->
<g id="node24" class="node"><title>23</title>
<ellipse fill="deepskyblue" stroke="black" cx="-216.06" cy="237.219" rx="3.5" ry="3.5"/>
<text text-anchor="middle" x="-216.06" y="239.119" font-family="monospace" font-size="8.00">23</text>
</g>
<!-- 27 -->
<g id="node28" class="node"><title>27</title>
<ellipse fill="#ff3030" stroke="black" cx="-175.106" cy="-154.473" rx="5" ry="5"/>
<text text-anchor="middle" x="-175.106" y="-152.573" font-family="monospace" font-size="8.00">27</text>
</g>
<!-- 31&#45;&gt;61 -->
<g id="edge73" class="edge"><title>31&#45;&gt;61</title>
<path fill="none" stroke="black" stroke-dasharray="5,2" d="M-27.9541,68.1312C-30.0703,80.0228 -33.2023,97.6219 -34.994,107.69"/>
<polygon fill="black" stroke="black" points="-33.2771,108.031 -35.8762,112.647 -36.723,107.418 -33.2771,108.031"/>
<text text-anchor="middle" x="-38.224" y="94.3105" font-family="monospace" font-size="8.00">T791M</text>
</g>
<!-- 35 -->
<g id="node36" class="node"><title>35</title>
<ellipse fill="#ff3030" stroke="black" cx="-19.7099" cy="-305.925" rx="3.5" ry="3.5"/>
<text text-anchor="middle" x="-19.7099" y="-304.025" font-family="monospace" font-size="8.00">35</text>
</g>
<!-- 37 -->
<g id="node38" class="node"><title>37</title>
<ellipse fill="#ff3030" stroke="black" cx="175.262" cy="88.656" rx="3.5" ry="3.5"/>
<text text-anchor="middle" x="175.262" y="90.556" font-family="monospace" font-size="8.00">37</text>
</g>
<!-- 37&#45;&gt;60 -->
<g id="edge67" class="edge"><title>37&#45;&gt;60</title>
<path fill="none" stroke="black" d="M172.041,86.709C163.538,81.5683 140.617,67.7107 132.989,63.099"/>
</g>
<!-- 40 -->
<g id="node41" class="node"><title>40</title>
<ellipse fill="deepskyblue" stroke="black" cx="223.977" cy="-164.957" rx="3.5" ry="3.5"/>
<text text-anchor="middle" x="223.977" y="-163.057" font-family="monospace" font-size="8.00">40</text>
</g>
<!-- 42 -->
<g id="node43" class="node"><title>42</title>
<ellipse fill="#1874cd" stroke="black" cx="70.8035" cy="-326.806" rx="3.5" ry="3.5"/>
<text text-anchor="middle" x="70.8035" y="-324.906" font-family="monospace" font-size="8.00">42</text>
</g>
<!-- 42&#45;&gt;46 -->
<g id="edge68" class="edge"><title>42&#45;&gt;46</title>
<path fill="none" stroke="black" d="M70.5279,-323.293C69.8276,-314.367 67.9848,-290.878 67.2651,-281.704"/>
</g>
<!-- 45 -->
<g id="node46" class="node"><title>45</title>
<ellipse fill="#1874cd" stroke="black" cx="191.611" cy="-252.249" rx="3.5" ry="3.5"/>
<text text-anchor="middle" x="191.611" y="-250.349" font-family="monospace" font-size="8.00">45</text>
</g>
<!-- 48&#45;&gt;11 -->
<g id="edge72" class="edge"><title>48&#45;&gt;11</title>
<path fill="none" stroke="black" stroke-dasharray="5,2" d="M4.42451,55.2353C-0.958252,61.536 -10.544,72.7565 -16.6413,79.8935"/>
<polygon fill="black" stroke="black" points="-15.3397,81.0642 -19.9181,83.7291 -18.0009,78.7908 -15.3397,81.0642"/>
<text text-anchor="middle" x="9.89162" y="64.9644" font-family="monospace" font-size="8.00">P1874L</text>
</g>
<!-- 48&#45;&gt;32 -->
<g id="edge74" class="edge"><title>48&#45;&gt;32</title>
<path fill="none" stroke="black" stroke-dasharray="5,2" d="M12.3891,55.4043C17.6904,61.9316 27.131,73.5557 33.136,80.9495"/>
<polygon fill="black" stroke="black" points="34.5694,79.9386 36.3632,84.9231 31.8525,82.1451 34.5694,79.9386"/>
<text text-anchor="middle" x="6.76254" y="74.5769" font-family="monospace" font-size="8.00">P1874S</text>
</g>
<!-- 49 -->
<g id="node50" class="node"><title>49</title>
<ellipse fill="brown" stroke="black" cx="-130.452" cy="-0.5079" rx="3.5" ry="3.5"/>
<text text-anchor="middle" x="-130.452" y="1.3921" font-family="monospace" font-size="8.00">49</text>
</g>
<!-- 50&#45;&gt;41 -->
<g id="edge75" class="edge"><title>50&#45;&gt;41</title>
<path fill="none" stroke="black" stroke-dasharray="5,2" d="M74.2105,-70.6246C74.8642,-79.1633 75.8768,-92.3888 76.5488,-101.166"/>
<polygon fill="black" stroke="black" points="74.8243,-101.567 76.951,-106.419 78.3141,-101.3 74.8243,-101.567"/>
<text text-anchor="middle" x="59.3796" y="-88.4952" font-family="monospace" font-size="8.00">N1570Y</text>
</g>
<!-- 52 -->
<g id="node53" class="node"><title>52</title>
<ellipse fill="brown" stroke="black" cx="133.037" cy="-53.8874" rx="3.5" ry="3.5"/>
<text text-anchor="middle" x="133.037" y="-51.9874" font-family="monospace" font-size="8.00">52</text>
</g>
<!-- 50&#45;&gt;52 -->
<g id="edge69" class="edge"><title>50&#45;&gt;52</title>
<path fill="none" stroke="black" d="M81.84,-61.1126C94.9882,-59.257 120.127,-55.7093 129.446,-54.3943"/>
</g>
<!-- 53 -->
<g id="node54" class="node"><title>53</title>
<ellipse fill="brown" stroke="black" cx="125.34" cy="-29.5583" rx="3.5" ry="3.5"/>
<text text-anchor="middle" x="125.34" y="-27.6583" font-family="monospace" font-size="8.00">53</text>
</g>
<!-- 50&#45;&gt;53 -->
<g id="edge70" class="edge"><title>50&#45;&gt;53</title>
<path fill="none" stroke="black" d="M80.3394,-58.0017C91.6311,-50.8646 113.889,-36.7961 122.153,-31.5728"/>
</g>
<!-- 61&#45;&gt;anon_20_61_0 -->
<g id="edge66" class="edge"><title>61&#45;&gt;anon_20_61_0</title>
<path fill="none" stroke="black" d="M-35.3545,118.049C-32.5137,125.003 -24.5043,144.61 -20.1253,155.33"/>
<polygon fill="black" stroke="black" points="-18.3927,154.944 -18.1219,160.235 -21.6328,156.268 -18.3927,154.944"/>
<text text-anchor="middle" x="-43.7399" y="134.09" font-family="monospace" font-size="8.00">L1366F</text>
</g>
<!-- anon_3_35_0&#45;&gt;35 -->
<g id="edge18" class="edge"><title>anon_3_35_0&#45;&gt;35</title>
<path fill="none" stroke="black" d="M-1.23755,-269.845C-4.67363,-276.556 -14.0155,-294.802 -17.9381,-302.464"/>
</g>
<!-- anon_3_40_0&#45;&gt;40 -->
<g id="edge21" class="edge"><title>anon_3_40_0&#45;&gt;40</title>
<path fill="none" stroke="black" d="M183.211,-163.09C189.367,-163.372 205.138,-164.094 215.162,-164.554"/>
<polygon fill="black" stroke="black" points="215.208,-166.307 220.283,-164.788 215.369,-162.811 215.208,-166.307"/>
<text text-anchor="middle" x="205.937" y="-157.422" font-family="monospace" font-size="8.00">P940H</text>
</g>
<!-- anon_3_45_0&#45;&gt;45 -->
<g id="edge26" class="edge"><title>anon_3_45_0&#45;&gt;45</title>
<path fill="none" stroke="black" d="M158.157,-229.572C164.38,-233.791 181.298,-245.258 188.402,-250.074"/>
</g>
<!-- anon_6_27_1 -->
<g id="node67" class="node"><title>anon_6_27_1</title>
<ellipse fill="white" stroke="black" cx="-139.456" cy="-125.883" rx="2.5" ry="2.5"/>
</g>
<!-- anon_6_27_0&#45;&gt;anon_6_27_1 -->
<g id="edge45" class="edge"><title>anon_6_27_0&#45;&gt;anon_6_27_1</title>
<path fill="none" stroke="black" d="M-95.5927,-94.7535C-103.36,-100.266 -129.247,-118.638 -137.147,-124.244"/>
</g>
<!-- anon_6_27_1&#45;&gt;27 -->
<g id="edge46" class="edge"><title>anon_6_27_1&#45;&gt;27</title>
<path fill="none" stroke="black" d="M-141.795,-127.759C-146.814,-131.784 -158.82,-141.413 -166.961,-147.941"/>
<polygon fill="black" stroke="black" points="-168.211,-146.7 -171.017,-151.194 -166.021,-149.431 -168.211,-146.7"/>
<text text-anchor="middle" x="-165.378" y="-140.45" font-family="monospace" font-size="8.00">G54C</text>
</g>
<!-- anon_6_49_0&#45;&gt;49 -->
<g id="edge51" class="edge"><title>anon_6_49_0&#45;&gt;49</title>
<path fill="none" stroke="black" d="M-91.2209,-12.3451C-98.5185,-10.1432 -118.359,-4.15692 -126.689,-1.64328"/>
</g>
<!-- anon_15_23_1 -->
<g id="node70" class="node"><title>anon_15_23_1</title>
<ellipse fill="white" stroke="black" cx="-189.816" cy="203.867" rx="2.5" ry="2.5"/>
</g>
<!-- anon_15_23_0&#45;&gt;anon_15_23_1 -->
<g id="edge62" class="edge"><title>anon_15_23_0&#45;&gt;anon_15_23_1</title>
<path fill="none" stroke="black" d="M-163.278,171.428C-167.611,176.725 -178.482,190.013 -184.886,197.84"/>
<polygon fill="black" stroke="black" points="-183.677,199.126 -188.198,201.888 -186.386,196.91 -183.677,199.126"/>
<text text-anchor="middle" x="-187.582" y="182.034" font-family="monospace" font-size="8.00">Q545L</text>
</g>
<!-- anon_15_23_1&#45;&gt;23 -->
<g id="edge63" class="edge"><title>anon_15_23_1&#45;&gt;23</title>
<path fill="none" stroke="black" d="M-191.538,206.055C-196.1,211.852 -208.501,227.612 -213.708,234.23"/>
</g>
</g>
</svg>
