<?xml version="1.0" encoding="UTF-8" standalone="no"?>
<!DOCTYPE svg PUBLIC "-//W3C//DTD SVG 1.1//EN"
 "http://www.w3.org/Graphics/SVG/1.1/DTD/svg11.dtd">
<!-- Generated by graphviz version 2.38.0 (20140413.2041)
 -->
<!-- Title: %3 Pages: 1 -->
<svg width="198pt" height="218pt"
 viewBox="0.00 0.00 197.94 217.55" xmlns="http://www.w3.org/2000/svg" xmlns:xlink="http://www.w3.org/1999/xlink">
<g id="graph0" class="graph" transform="scale(1 1) rotate(0) translate(77.9732 184.922)">
<title>%3</title>
<polygon fill="white" stroke="none" points="-77.9732,32.6273 -77.9732,-184.922 119.967,-184.922 119.967,32.6273 -77.9732,32.6273"/>
<!-- 0 -->
<g id="node1" class="node"><title>0</title>
<path fill="palegreen" stroke="black" stroke-width="0.5" d="M34.2544,-96.273C34.2544,-96.273 75.2544,-96.273 75.2544,-96.273 75.2544,-97.9249 75.1546,-99.5752 74.9555,-101.215 74.7564,-102.855 74.4584,-104.481 74.0631,-106.085 73.6677,-107.689 73.1759,-109.267 72.5901,-110.812 72.0044,-112.356 71.3258,-113.864 70.5581,-115.327 69.7905,-116.789 68.9351,-118.204 67.9968,-119.564 67.0584,-120.923 66.0388,-122.225 64.9434,-123.461 63.848,-124.698 62.6789,-125.867 61.4425,-126.962 60.206,-128.057 58.9045,-129.077 57.5451,-130.015 56.1856,-130.954 54.7707,-131.809 53.3081,-132.577 51.8454,-133.344 50.3377,-134.023 48.7932,-134.609 47.2487,-135.194 45.6702,-135.686 44.0664,-136.082 42.4625,-136.477 40.8363,-136.775 39.1964,-136.974 37.5566,-137.173 35.9063,-137.273 34.2544,-137.273 32.6026,-137.273 30.9522,-137.173 29.3124,-136.974 27.6726,-136.775 26.0463,-136.477 24.4425,-136.082 22.8386,-135.686 21.2601,-135.194 19.7156,-134.609 18.1711,-134.023 16.6634,-133.344 15.2008,-132.577 13.7381,-131.809 12.3232,-130.954 10.9638,-130.015 9.60434,-129.077 8.30284,-128.057 7.06641,-126.962 5.82998,-125.867 4.66088,-124.698 3.5655,-123.461 2.47012,-122.225 1.45046,-120.923 0.512101,-119.564 -0.426258,-118.204 -1.2816,-116.789 -2.04926,-115.327 -2.81691,-113.864 -3.49547,-112.356 -4.08123,-110.812 -4.66698,-109.267 -5.15886,-107.689 -5.55417,-106.085 -5.94949,-104.481 -6.24751,-102.855 -6.44662,-101.215 -6.64573,-99.5752 -6.74556,-97.9249 -6.74556,-96.273 -6.74556,-94.6212 -6.64573,-92.9708 -6.44662,-91.331 -6.24751,-89.6912 -5.94949,-88.065 -5.55417,-86.4611 -5.15886,-84.8572 -4.66698,-83.2787 -4.08122,-81.7342 -3.49547,-80.1897 -2.81691,-78.682 -2.04925,-77.2194 -1.2816,-75.7567 -0.426253,-74.3418 0.512107,-72.9824 1.45047,-71.6229 2.47012,-70.3214 3.56551,-69.085 3.56551,-69.085 34.2544,-96.273 34.2544,-96.273"/>
<path fill="#787878" stroke="black" stroke-width="0.5" d="M34.2544,-96.273C34.2544,-96.273 3.56551,-69.085 3.56551,-69.085 4.24999,-68.3124 4.96341,-67.5659 5.70424,-66.8471 6.44507,-66.1283 7.21277,-65.4378 8.00572,-64.7769 8.79867,-64.1161 9.61629,-63.4854 10.4568,-62.8863 11.2974,-62.2872 12.1602,-61.72 13.0436,-61.186 13.9269,-60.652 14.8302,-60.1516 15.7513,-59.6857 16.6724,-59.2199 17.6108,-58.789 18.5644,-58.394 19.5181,-57.999 20.4863,-57.6401 21.467,-57.3182 22.4477,-56.9962 23.4403,-56.7115 24.4425,-56.4644 25.4447,-56.2174 26.4559,-56.0083 27.4739,-55.8376 28.4919,-55.6669 29.516,-55.5347 30.544,-55.4413 31.572,-55.3479 32.6031,-55.2933 33.6352,-55.2777 34.6673,-55.2621 35.6996,-55.2855 36.73,-55.3478 37.7603,-55.4102 38.7879,-55.5114 39.8106,-55.6513 40.8333,-55.7911 41.8503,-55.9696 42.8596,-56.1862 43.8688,-56.4029 44.8695,-56.6576 45.8595,-56.9497 46.8495,-57.2419 47.8281,-57.5714 48.7932,-57.9374 49.7584,-58.3034 50.7094,-58.7058 51.6441,-59.1436 52.5789,-59.5814 53.4968,-60.0543 54.3959,-60.5614 55.295,-61.0685 56.1746,-61.6093 57.0328,-62.1828 57.8911,-62.7563 58.7274,-63.3619 59.5399,-63.9985 60.3525,-64.6351 61.1407,-65.3022 61.9029,-65.9982 62.6651,-66.6943 63.4007,-67.4189 64.1082,-68.1705 64.8157,-68.9221 65.4946,-69.7002 66.1434,-70.503 66.7922,-71.3058 67.4104,-72.1329 67.9968,-72.9824 68.5831,-73.8319 69.1372,-74.7032 69.6578,-75.5945 70.1784,-76.4859 70.6652,-77.3965 71.1171,-78.3246 71.5689,-79.2526 71.9856,-80.1974 72.3662,-81.1569 72.7467,-82.1164 73.0909,-83.0899 73.398,-84.0754 73.7051,-85.0609 73.9748,-86.0576 74.2067,-87.0635 74.4386,-88.0693 74.6324,-89.0835 74.7877,-90.104 74.943,-91.1245 75.0597,-92.1504 75.1376,-93.1797 75.2155,-94.209 75.2544,-95.2408 75.2544,-96.273 75.2544,-96.273 34.2544,-96.273 34.2544,-96.273"/>
<ellipse fill="none" stroke="black" cx="34.2544" cy="-96.273" rx="41" ry="41"/>
</g>
<!-- 1 -->
<g id="node2" class="node"><title>1</title>
<ellipse fill="palegreen" stroke="black" cx="-20.5948" cy="-23.2419" rx="13" ry="13"/>
</g>
<!-- 1&#45;&#45;0 -->
<g id="edge1" class="edge"><title>1&#45;&#45;0</title>
<path fill="none" stroke="black" d="M-12.7362,-33.7055C-6.87115,-41.5148 1.48519,-52.6412 9.52881,-63.3511"/>
</g>
<!-- 2 -->
<g id="node3" class="node"><title>2</title>
<ellipse fill="#787878" stroke="black" cx="-19.3196" cy="-24.9385" rx="11.5" ry="11.5"/>
</g>
<!-- 2&#45;&#45;0 -->
<g id="edge2" class="edge"><title>2&#45;&#45;0</title>
<path fill="none" stroke="black" d="M-12.3157,-34.2642C-6.69983,-41.7418 1.53715,-52.7095 9.52811,-63.3496"/>
</g>
<!-- 3 -->
<g id="node4" class="node"><title>3</title>
<ellipse fill="palegreen" stroke="black" cx="36.8571" cy="-177.422" rx="3.5" ry="3.5"/>
</g>
<!-- 3&#45;&#45;0 -->
<g id="edge3" class="edge"><title>3&#45;&#45;0</title>
<path fill="none" stroke="black" d="M36.7316,-173.508C36.5143,-166.733 36.0459,-152.128 35.5743,-137.423"/>
</g>
<!-- 4 -->
<g id="node5" class="node"><title>4</title>
<ellipse fill="#787878" stroke="black" cx="83.0644" cy="-161.136" rx="3.5" ry="3.5"/>
</g>
<!-- 4&#45;&#45;0 -->
<g id="edge4" class="edge"><title>4&#45;&#45;0</title>
<path fill="none" stroke="black" d="M80.7102,-158.008C76.635,-152.592 67.8507,-140.919 59.0058,-129.165"/>
</g>
<!-- 5 -->
<g id="node6" class="node"><title>5</title>
<ellipse fill="#787878" stroke="black" cx="89.3669" cy="-36.6537" rx="3.5" ry="3.5"/>
</g>
<!-- 5&#45;&#45;0 -->
<g id="edge5" class="edge"><title>5&#45;&#45;0</title>
<path fill="none" stroke="black" d="M86.7087,-39.5293C82.1073,-44.507 72.1888,-55.2366 62.2017,-66.0404"/>
</g>
<!-- 6 -->
<g id="node7" class="node"><title>6</title>
<ellipse fill="palegreen" stroke="black" cx="-8.43022" cy="-165.363" rx="3.5" ry="3.5"/>
</g>
<!-- 6&#45;&#45;0 -->
<g id="edge6" class="edge"><title>6&#45;&#45;0</title>
<path fill="none" stroke="black" d="M-6.37145,-162.03C-2.80767,-156.262 4.87427,-143.828 12.6093,-131.308"/>
</g>
<!-- 7 -->
<g id="node8" class="node"><title>7</title>
<ellipse fill="#787878" stroke="black" cx="111.522" cy="-121.204" rx="3.5" ry="3.5"/>
</g>
<!-- 7&#45;&#45;0 -->
<g id="edge7" class="edge"><title>7&#45;&#45;0</title>
<path fill="none" stroke="black" d="M107.795,-120.002C101.344,-117.92 87.4381,-113.433 73.4363,-108.916"/>
</g>
<!-- 8 -->
<g id="node9" class="node"><title>8</title>
<ellipse fill="#787878" stroke="black" cx="-38.3368" cy="-132.639" rx="3.5" ry="3.5"/>
</g>
<!-- 8&#45;&#45;0 -->
<g id="edge8" class="edge"><title>8&#45;&#45;0</title>
<path fill="none" stroke="black" d="M-34.8355,-130.885C-28.7748,-127.849 -15.7106,-121.304 -2.55621,-114.714"/>
</g>
<!-- 9 -->
<g id="node10" class="node"><title>9</title>
<ellipse fill="#787878" stroke="black" cx="-8.31019" cy="25.1273" rx="3.5" ry="3.5"/>
</g>
<!-- 9&#45;&#45;2 -->
<g id="edge9" class="edge"><title>9&#45;&#45;2</title>
<path fill="none" stroke="black" d="M-9.10196,21.5267C-10.6994,14.2622 -14.3667,-2.41521 -16.8446,-13.6832"/>
</g>
<!-- 10 -->
<g id="node11" class="node"><title>10</title>
<ellipse fill="palegreen" stroke="black" cx="-52.3421" cy="19.0198" rx="3.5" ry="3.5"/>
</g>
<!-- 10&#45;&#45;1 -->
<g id="edge10" class="edge"><title>10&#45;&#45;1</title>
<path fill="none" stroke="black" d="M-50.0589,15.9805C-45.623,10.0755 -35.6522,-3.19755 -28.5394,-12.6661"/>
</g>
<!-- 11 -->
<g id="node12" class="node"><title>11</title>
<ellipse fill="palegreen" stroke="black" cx="112.467" cy="-74.4095" rx="3.5" ry="3.5"/>
</g>
<!-- 11&#45;&#45;0 -->
<g id="edge11" class="edge"><title>11&#45;&#45;0</title>
<path fill="none" stroke="black" d="M108.695,-75.464C102.165,-77.2895 88.0887,-81.2242 73.9156,-85.1862"/>
</g>
<!-- 12 -->
<g id="node13" class="node"><title>12</title>
<ellipse fill="#787878" stroke="black" cx="-70.4732" cy="-21.613" rx="3.5" ry="3.5"/>
</g>
<!-- 12&#45;&#45;2 -->
<g id="edge12" class="edge"><title>12&#45;&#45;2</title>
<path fill="none" stroke="black" d="M-66.7943,-21.8521C-59.372,-22.3347 -42.3322,-23.4424 -30.8194,-24.1909"/>
</g>
</g>
</svg>
