<?xml version="1.0" encoding="UTF-8" standalone="no"?>
<!DOCTYPE svg PUBLIC "-//W3C//DTD SVG 1.1//EN"
 "http://www.w3.org/Graphics/SVG/1.1/DTD/svg11.dtd">
<!-- Generated by graphviz version 2.38.0 (20140413.2041)
 -->
<!-- Title: %3 Pages: 1 -->
<svg width="308pt" height="374pt"
 viewBox="0.00 0.00 307.96 373.52" xmlns="http://www.w3.org/2000/svg" xmlns:xlink="http://www.w3.org/1999/xlink">
<g id="graph0" class="graph" transform="scale(1 1) rotate(0) translate(149.549 181.284)">
<title>%3</title>
<polygon fill="white" stroke="none" points="-149.549,192.241 -149.549,-181.284 158.416,-181.284 158.416,192.241 -149.549,192.241"/>
<!-- 0 -->
<g id="node1" class="node"><title>0</title>
<path fill="#1874cd" stroke="black" stroke-width="0.5" d="M2.04779,8.5876C2.04779,8.5876 48.0478,8.5876 48.0478,8.5876 48.0478,7.28649 47.9926,5.98597 47.8823,4.68953 47.7721,3.3931 47.6069,2.10193 47.3871,0.819508 47.1674,-0.462918 46.8934,-1.73544 46.5658,-2.99464 46.2382,-4.25383 45.8573,-5.49856 45.4242,-6.72546 44.991,-7.95236 44.506,-9.16034 43.9705,-10.3461 43.435,-11.5319 42.8494,-12.6944 42.2153,-13.8306 41.5812,-14.9667 40.8991,-16.0754 40.171,-17.1538 39.443,-18.2321 38.6694,-19.279 37.8526,-20.2918 37.0357,-21.3045 36.1763,-22.2821 35.2765,-23.222 34.3768,-24.1619 33.4376,-25.0632 32.4614,-25.9234 31.4853,-26.7837 30.4731,-27.6021 29.4276,-28.3765 28.382,-29.151 27.3041,-29.8807 26.1967,-30.5638 25.0893,-31.2468 23.9534,-31.8826 22.7921,-32.4693 21.6308,-33.0561 20.4452,-33.5933 19.2383,-34.0795 18.0315,-34.5658 16.8046,-35.0006 15.5609,-35.3828 14.3172,-35.765 13.0578,-36.0943 11.7862,-36.3698 10.5145,-36.6452 9.23181,-36.8666 7.94143,-37.0333 6.65104,-37.2 5.35416,-37.3119 4.05428,-37.3686 2.75441,-37.4254 1.45271,-37.4269 0.152706,-37.3733 -1.1473,-37.3197 -2.44445,-37.211 -3.73524,-37.0474 -5.02603,-36.8839 -6.30929,-36.6656 -7.58158,-36.3932 -8.85386,-36.1209 -10.114,-35.7946 -11.3586,-35.4154 -12.6033,-35.0362 -13.8313,-34.6044 -15.0393,-34.1211 -16.2473,-33.6378 -17.4343,-33.1034 -18.597,-32.5195 -19.7597,-31.9356 -20.8971,-31.3026 -22.0062,-30.6222 -23.1152,-29.9418 -24.1949,-29.2147 -25.2423,-28.4428 -26.2897,-27.6709 -27.3039,-26.8549 -28.2821,-25.997 -29.2603,-25.1391 -30.2017,-24.2401 -31.1037,-23.3024 -32.0058,-22.3648 -32.8676,-21.3892 -33.6869,-20.3785 -34.5062,-19.3677 -35.2822,-18.3226 -36.013,-17.2461 -36.7437,-16.1695 -37.4284,-15.0625 -38.0652,-13.9279 -38.7021,-12.7933 -39.2905,-11.6322 -39.8289,-10.4477 -40.3673,-9.2632 -40.8552,-8.05641 -41.2913,-6.83056 -41.7274,-5.60471 -42.1113,-4.36091 -42.442,-3.10251 -42.7726,-1.84412 -43.0498,-0.572261 -43.2726,0.709628 -43.4954,1.99152 -43.6638,3.28228 -43.7772,4.57844 -43.8906,5.8746 -43.9489,7.17499 -43.9521,8.4761 -43.9552,9.77721 -43.9032,11.0779 -43.7961,12.3746 -43.6889,13.6713 -43.5269,14.9628 -43.3103,16.2458 -43.0936,17.5287 -42.8227,18.8019 -42.4981,20.0619 -42.1736,21.3219 -41.7957,22.5675 -41.3656,23.7955 -40.9354,25.0234 -40.4534,26.2326 -39.9207,27.4197 -39.388,28.6067 -38.8052,29.7707 -38.1739,30.9084 -37.5426,32.046 -36.8632,33.1564 -36.1377,34.2365 -35.4123,35.3166 -34.6413,36.3654 -33.8269,37.3801 -33.0125,38.3948 -32.1554,39.3745 -31.258,40.3166 -30.3605,41.2586 -29.4235,42.1622 -28.4494,43.0248 -27.4754,43.8874 -26.4652,44.7083 -25.4215,45.4853 -24.3778,46.2622 -23.3017,46.9946 -22.196,47.6803 -21.0902,48.3661 -19.9559,49.0046 -18.796,49.5941 -17.6361,50.1837 -16.4518,50.7238 -15.2461,51.213 -14.0405,51.7021 -12.8146,52.1399 -11.5718,52.5251 -10.329,52.9104 -9.07048,53.2427 -7.79953,53.5212 -6.52858,53.7998 -5.24639,54.0242 -3.95641,54.1941 -2.66643,54.3639 -1.36982,54.4789 -0.0700888,54.5388 1.22964,54.5987 2.53133,54.6035 3.83147,54.553 5.1316,54.5026 6.42901,54.397 7.72019,54.2365 9.01137,54.0761 10.2952,53.8609 11.5681,53.5916 12.841,53.3224 14.102,52.9992 15.3475,52.623 16.5931,52.2468 17.8221,51.818 19.0313,51.3376 20.2405,50.8572 21.4287,50.3257 22.5929,49.7446 23.757,49.1635 24.8959,48.5333 26.0066,47.8556 27.1173,47.1779 28.1988,46.4534 29.248,45.6841 30.2973,44.9147 31.3135,44.1012 32.2938,43.2457 32.2938,43.2457 2.04779,8.5876 2.04779,8.5876"/>
<path fill="olivedrab" stroke="black" stroke-width="0.5" d="M2.04779,8.5876C2.04779,8.5876 32.2938,43.2457 32.2938,43.2457 33.5263,42.1701 34.7005,41.0295 35.8115,39.8288 36.9225,38.6281 37.9686,37.369 38.9455,36.0569 39.9223,34.7448 40.8285,33.3815 41.6601,31.9728 42.4917,30.5641 43.2476,29.1121 43.9245,27.6229 44.6014,26.1337 45.1984,24.6095 45.713,23.0567 46.2275,21.5039 46.6588,19.9247 47.0052,18.326 47.3515,16.7272 47.6122,15.1112 47.7864,13.4846 47.9605,11.8581 48.0478,10.2234 48.0478,8.5876 48.0478,8.5876 2.04779,8.5876 2.04779,8.5876"/>
<ellipse fill="none" stroke="black" cx="2.04779" cy="8.5876" rx="46" ry="46"/>
</g>
<!-- 1 -->
<g id="node2" class="node"><title>1</title>
<ellipse fill="#1874cd" stroke="black" cx="41.829" cy="-69.0007" rx="3.5" ry="3.5"/>
</g>
<!-- 0&#45;&#45;1 -->
<g id="edge1" class="edge"><title>0&#45;&#45;1</title>
<path fill="none" stroke="black" d="M23.1032,-32.4785C30.1108,-46.1459 36.9249,-59.436 40.0505,-65.532"/>
</g>
<!-- 2 -->
<g id="node3" class="node"><title>2</title>
<ellipse fill="#1874cd" stroke="black" cx="-60.6159" cy="84.125" rx="3.5" ry="3.5"/>
</g>
<!-- 0&#45;&#45;2 -->
<g id="edge2" class="edge"><title>0&#45;&#45;2</title>
<path fill="none" stroke="black" d="M-27.4491,44.1444C-40.1468,59.4507 -53.2477,75.2432 -58.3718,81.4199"/>
</g>
<!-- 3 -->
<g id="node4" class="node"><title>3</title>
<ellipse fill="#1874cd" stroke="black" cx="-84.4689" cy="-3.61451" rx="3.5" ry="3.5"/>
</g>
<!-- 0&#45;&#45;3 -->
<g id="edge3" class="edge"><title>0&#45;&#45;3</title>
<path fill="none" stroke="black" d="M-43.744,2.12924C-58.9841,-0.020196 -73.8036,-2.11029 -80.6011,-3.069"/>
</g>
<!-- 4 -->
<g id="node5" class="node"><title>4</title>
<ellipse fill="#1874cd" stroke="black" cx="-80.0696" cy="-21.8969" rx="3.5" ry="3.5"/>
</g>
<!-- 0&#45;&#45;4 -->
<g id="edge4" class="edge"><title>0&#45;&#45;4</title>
<path fill="none" stroke="black" d="M-41.4155,-7.54732C-55.8807,-12.9173 -69.9465,-18.1389 -76.3984,-20.5341"/>
</g>
<!-- 5 -->
<g id="node6" class="node"><title>5</title>
<ellipse fill="#1874cd" stroke="black" cx="22.3138" cy="-76.0383" rx="3.5" ry="3.5"/>
</g>
<!-- 0&#45;&#45;5 -->
<g id="edge5" class="edge"><title>0&#45;&#45;5</title>
<path fill="none" stroke="black" d="M12.7742,-36.2034C16.3441,-51.1105 19.8155,-65.606 21.4078,-72.255"/>
</g>
<!-- 7 -->
<g id="node8" class="node"><title>7</title>
<ellipse fill="#1874cd" stroke="black" cx="53.2178" cy="78.973" rx="3.5" ry="3.5"/>
</g>
<!-- 0&#45;&#45;7 -->
<g id="edge9" class="edge"><title>0&#45;&#45;7</title>
<path fill="none" stroke="black" d="M29.1312,45.8413C38.1449,58.2399 46.9098,70.2962 50.9302,75.8263"/>
</g>
<!-- 9 -->
<g id="node10" class="node"><title>9</title>
<ellipse fill="#1874cd" stroke="black" cx="-72.6305" cy="56.6842" rx="5" ry="5"/>
</g>
<!-- 0&#45;&#45;9 -->
<g id="edge10" class="edge"><title>0&#45;&#45;9</title>
<path fill="none" stroke="black" d="M-37.0411,33.7628C-49.4631,41.7633 -61.6264,49.5971 -68.0154,53.7119"/>
</g>
<!-- 11 -->
<g id="node12" class="node"><title>11</title>
<ellipse fill="#1874cd" stroke="black" cx="-0.521845" cy="-87.0318" rx="3.5" ry="3.5"/>
</g>
<!-- 0&#45;&#45;11 -->
<g id="edge13" class="edge"><title>0&#45;&#45;11</title>
<path fill="none" stroke="black" d="M0.808135,-37.5416C0.305039,-56.2624 -0.207301,-75.3273 -0.419824,-83.2355"/>
</g>
<!-- 13 -->
<g id="node14" class="node"><title>13</title>
<ellipse fill="#1874cd" stroke="black" cx="88.7535" cy="0.904232" rx="3.5" ry="3.5"/>
</g>
<!-- 0&#45;&#45;13 -->
<g id="edge17" class="edge"><title>0&#45;&#45;13</title>
<path fill="none" stroke="black" d="M47.9395,4.52093C63.213,3.16749 78.0648,1.8514 84.8772,1.24773"/>
</g>
<!-- 14 -->
<g id="node15" class="node"><title>14</title>
<ellipse fill="#1874cd" stroke="black" cx="-17.7565" cy="93.7381" rx="3.5" ry="3.5"/>
</g>
<!-- 0&#45;&#45;14 -->
<g id="edge18" class="edge"><title>0&#45;&#45;14</title>
<path fill="none" stroke="black" d="M-8.43426,53.6562C-11.9228,68.6558 -15.3151,83.2412 -16.8711,89.9313"/>
</g>
<!-- 15 -->
<g id="node16" class="node"><title>15</title>
<ellipse fill="#1874cd" stroke="black" cx="84.1729" cy="-20.0578" rx="3.5" ry="3.5"/>
</g>
<!-- 0&#45;&#45;15 -->
<g id="edge19" class="edge"><title>0&#45;&#45;15</title>
<path fill="none" stroke="black" d="M45.5151,-6.57388C59.9817,-11.6198 74.0489,-16.5265 80.5014,-18.7771"/>
</g>
<!-- 17 -->
<g id="node18" class="node"><title>17</title>
<ellipse fill="#1874cd" stroke="black" cx="-37.5716" cy="85.9845" rx="3.5" ry="3.5"/>
</g>
<!-- 0&#45;&#45;17 -->
<g id="edge20" class="edge"><title>0&#45;&#45;17</title>
<path fill="none" stroke="black" d="M-18.9221,49.5524C-25.9011,63.186 -32.6875,76.4433 -35.8004,82.5243"/>
</g>
<!-- 19 -->
<g id="node20" class="node"><title>19</title>
<ellipse fill="#1874cd" stroke="black" cx="-61.751" cy="-53.6669" rx="5" ry="5"/>
</g>
<!-- 0&#45;&#45;19 -->
<g id="edge23" class="edge"><title>0&#45;&#45;19</title>
<path fill="none" stroke="black" d="M-30.9729,-23.6337C-41.9186,-34.3146 -52.6882,-44.8234 -58.1179,-50.1217"/>
</g>
<!-- 20 -->
<g id="node21" class="node"><title>20</title>
<ellipse fill="#1874cd" stroke="black" cx="-80.3206" cy="37.2416" rx="3.5" ry="3.5"/>
</g>
<!-- 0&#45;&#45;20 -->
<g id="edge24" class="edge"><title>0&#45;&#45;20</title>
<path fill="none" stroke="black" d="M-41.5483,23.7537C-56.0577,28.8012 -70.1666,33.7093 -76.6382,35.9606"/>
</g>
<!-- 21 -->
<g id="node22" class="node"><title>21</title>
<ellipse fill="#1874cd" stroke="black" cx="-22.3854" cy="-74.8401" rx="3.5" ry="3.5"/>
</g>
<!-- 0&#45;&#45;21 -->
<g id="edge25" class="edge"><title>0&#45;&#45;21</title>
<path fill="none" stroke="black" d="M-10.8843,-35.5692C-15.1883,-50.2652 -19.3734,-64.5555 -21.2931,-71.1103"/>
</g>
<!-- 22 -->
<g id="node23" class="node"><title>22</title>
<ellipse fill="#1874cd" stroke="black" cx="18.1591" cy="94.7362" rx="3.5" ry="3.5"/>
</g>
<!-- 0&#45;&#45;22 -->
<g id="edge26" class="edge"><title>0&#45;&#45;22</title>
<path fill="none" stroke="black" d="M10.5281,53.9324C13.4392,69.4982 16.2761,84.6674 17.5126,91.2792"/>
</g>
<!-- 23 -->
<g id="node24" class="node"><title>23</title>
<ellipse fill="#1874cd" stroke="black" cx="82.8393" cy="45.3449" rx="5" ry="5"/>
</g>
<!-- 0&#45;&#45;23 -->
<g id="edge27" class="edge"><title>0&#45;&#45;23</title>
<path fill="none" stroke="black" d="M44.3365,27.8275C57.7755,33.9418 70.9345,39.9286 77.8464,43.0733"/>
</g>
<!-- 24 -->
<g id="node25" class="node"><title>24</title>
<ellipse fill="#1874cd" stroke="black" cx="-72.1022" cy="-37.8999" rx="3.5" ry="3.5"/>
</g>
<!-- 0&#45;&#45;24 -->
<g id="edge28" class="edge"><title>0&#45;&#45;24</title>
<path fill="none" stroke="black" d="M-37.1985,-16.0174C-50.2602,-24.2063 -62.9613,-32.1691 -68.7872,-35.8216"/>
</g>
<!-- 26 -->
<g id="node27" class="node"><title>26</title>
<ellipse fill="#1874cd" stroke="black" cx="35.5067" cy="89.4202" rx="3.5" ry="3.5"/>
</g>
<!-- 0&#45;&#45;26 -->
<g id="edge31" class="edge"><title>0&#45;&#45;26</title>
<path fill="none" stroke="black" d="M19.757,51.3708C25.6509,65.6097 31.382,79.4555 34.0109,85.8064"/>
</g>
<!-- 27 -->
<g id="node28" class="node"><title>27</title>
<ellipse fill="olivedrab" stroke="black" cx="0.512392" cy="96.1985" rx="3.5" ry="3.5"/>
</g>
<!-- 0&#45;&#45;27 -->
<g id="edge32" class="edge"><title>0&#45;&#45;27</title>
<path fill="none" stroke="black" d="M1.23962,54.7021C0.962201,70.5321 0.691845,85.9588 0.574005,92.6828"/>
</g>
<!-- 28 -->
<g id="node29" class="node"><title>28</title>
<ellipse fill="olivedrab" stroke="black" cx="58.9235" cy="-57.2835" rx="3.5" ry="3.5"/>
</g>
<!-- 0&#45;&#45;28 -->
<g id="edge33" class="edge"><title>0&#45;&#45;28</title>
<path fill="none" stroke="black" d="M32.1511,-26.2768C42.1699,-37.8802 51.9121,-49.1632 56.3808,-54.3386"/>
</g>
<!-- anon_0_6_0 -->
<g id="node30" class="node"><title>anon_0_6_0</title>
<ellipse fill="white" stroke="black" cx="70.6679" cy="73.6864" rx="2.5" ry="2.5"/>
</g>
<!-- 0&#45;&#45;anon_0_6_0 -->
<g id="edge6" class="edge"><title>0&#45;&#45;anon_0_6_0</title>
<path fill="none" stroke="black" d="M35.5538,40.3742C49.4344,53.5425 63.4906,66.8774 68.6282,71.7514"/>
</g>
<!-- anon_0_10_0 -->
<g id="node32" class="node"><title>anon_0_10_0</title>
<ellipse fill="white" stroke="black" cx="91.5487" cy="22.2581" rx="2.5" ry="2.5"/>
</g>
<!-- 0&#45;&#45;anon_0_10_0 -->
<g id="edge11" class="edge"><title>0&#45;&#45;anon_0_10_0</title>
<path fill="none" stroke="black" d="M47.5848,15.543C65.2037,18.2341 82.66,20.9004 89.0246,21.8725"/>
</g>
<!-- anon_0_12_0 -->
<g id="node33" class="node"><title>anon_0_12_0</title>
<ellipse fill="white" stroke="black" cx="79.9351" cy="-44.4174" rx="2.5" ry="2.5"/>
</g>
<!-- 0&#45;&#45;anon_0_12_0 -->
<g id="edge14" class="edge"><title>0&#45;&#45;anon_0_12_0</title>
<path fill="none" stroke="black" d="M40.0788,-17.2938C55.834,-28.0158 71.7885,-38.8734 77.6199,-42.8419"/>
</g>
<!-- anon_0_18_0 -->
<g id="node35" class="node"><title>anon_0_18_0</title>
<ellipse fill="white" stroke="black" cx="-89.0315" cy="12.8918" rx="2.5" ry="2.5"/>
</g>
<!-- 0&#45;&#45;anon_0_18_0 -->
<g id="edge21" class="edge"><title>0&#45;&#45;anon_0_18_0</title>
<path fill="none" stroke="black" d="M-44.0255,10.7649C-62.0274,11.6156 -79.918,12.4611 -86.4434,12.7695"/>
</g>
<!-- anon_0_25_0 -->
<g id="node36" class="node"><title>anon_0_25_0</title>
<ellipse fill="white" stroke="black" cx="-49.9363" cy="-66.0027" rx="2.5" ry="2.5"/>
</g>
<!-- 0&#45;&#45;anon_0_25_0 -->
<g id="edge29" class="edge"><title>0&#45;&#45;anon_0_25_0</title>
<path fill="none" stroke="black" d="M-24.5534,-29.5816C-34.7453,-44.2056 -44.8122,-58.6503 -48.4814,-63.9151"/>
</g>
<!-- anon_2_8_0 -->
<g id="node37" class="node"><title>anon_2_8_0</title>
<ellipse fill="white" stroke="black" cx="-88.5033" cy="118.667" rx="2.5" ry="2.5"/>
</g>
<!-- 2&#45;&#45;anon_2_8_0 -->
<g id="edge34" class="edge"><title>2&#45;&#45;anon_2_8_0</title>
<path fill="none" stroke="black" d="M-63.1894,87.3127C-68.7988,94.2605 -82.004,110.617 -86.7588,116.506"/>
</g>
<!-- 6 -->
<g id="node7" class="node"><title>6</title>
<ellipse fill="#1874cd" stroke="black" cx="130.454" cy="135.118" rx="3.5" ry="3.5"/>
</g>
<!-- 8 -->
<g id="node9" class="node"><title>8</title>
<ellipse fill="#1874cd" stroke="black" cx="-142.049" cy="184.741" rx="3.5" ry="3.5"/>
</g>
<!-- 10 -->
<g id="node11" class="node"><title>10</title>
<ellipse fill="#1874cd" stroke="black" cx="134.268" cy="27.9619" rx="3.5" ry="3.5"/>
</g>
<!-- anon_11_16_0 -->
<g id="node39" class="node"><title>anon_11_16_0</title>
<ellipse fill="white" stroke="black" cx="-1.92669" cy="-130.887" rx="2.5" ry="2.5"/>
</g>
<!-- 11&#45;&#45;anon_11_16_0 -->
<g id="edge37" class="edge"><title>11&#45;&#45;anon_11_16_0</title>
<path fill="none" stroke="black" d="M-0.641621,-90.7709C-0.917652,-99.3877 -1.59348,-120.485 -1.83721,-128.093"/>
</g>
<!-- 12 -->
<g id="node13" class="node"><title>12</title>
<ellipse fill="#1874cd" stroke="black" cx="150.916" cy="-92.348" rx="3.5" ry="3.5"/>
</g>
<!-- 16 -->
<g id="node17" class="node"><title>16</title>
<ellipse fill="#1874cd" stroke="black" cx="-3.75331" cy="-173.784" rx="3.5" ry="3.5"/>
</g>
<!-- 18 -->
<g id="node19" class="node"><title>18</title>
<ellipse fill="#1874cd" stroke="black" cx="-132.185" cy="12.1798" rx="3.5" ry="3.5"/>
</g>
<!-- 25 -->
<g id="node26" class="node"><title>25</title>
<ellipse fill="#1874cd" stroke="black" cx="-77.3728" cy="-99.3074" rx="3.5" ry="3.5"/>
</g>
<!-- anon_0_6_1 -->
<g id="node31" class="node"><title>anon_0_6_1</title>
<ellipse fill="white" stroke="black" cx="100.518" cy="104.307" rx="2.5" ry="2.5"/>
</g>
<!-- anon_0_6_0&#45;&#45;anon_0_6_1 -->
<g id="edge7" class="edge"><title>anon_0_6_0&#45;&#45;anon_0_6_1</title>
<path fill="none" stroke="black" d="M72.6265,75.6955C78.0222,81.2304 93.0629,96.6589 98.5134,102.25"/>
</g>
<!-- anon_0_6_1&#45;&#45;6 -->
<g id="edge8" class="edge"><title>anon_0_6_1&#45;&#45;6</title>
<path fill="none" stroke="black" d="M102.483,106.328C107.686,111.684 121.831,126.243 127.771,132.357"/>
</g>
<!-- anon_0_10_0&#45;&#45;10 -->
<g id="edge12" class="edge"><title>anon_0_10_0&#45;&#45;10</title>
<path fill="none" stroke="black" d="M94.093,22.5978C101.35,23.5667 122.168,26.3464 130.628,27.4759"/>
</g>
<!-- anon_0_12_1 -->
<g id="node34" class="node"><title>anon_0_12_1</title>
<ellipse fill="white" stroke="black" cx="115.278" cy="-68.3964" rx="2.5" ry="2.5"/>
</g>
<!-- anon_0_12_0&#45;&#45;anon_0_12_1 -->
<g id="edge15" class="edge"><title>anon_0_12_0&#45;&#45;anon_0_12_1</title>
<path fill="none" stroke="black" d="M82.2541,-45.9907C88.6427,-50.3252 106.451,-62.4074 112.905,-66.7859"/>
</g>
<!-- anon_0_12_1&#45;&#45;12 -->
<g id="edge16" class="edge"><title>anon_0_12_1&#45;&#45;12</title>
<path fill="none" stroke="black" d="M117.617,-69.968C123.811,-74.1309 140.651,-85.4489 147.722,-90.2013"/>
</g>
<!-- anon_0_18_0&#45;&#45;18 -->
<g id="edge22" class="edge"><title>anon_0_18_0&#45;&#45;18</title>
<path fill="none" stroke="black" d="M-91.6017,12.8494C-98.9322,12.7284 -119.962,12.3814 -128.508,12.2404"/>
</g>
<!-- anon_0_25_0&#45;&#45;25 -->
<g id="edge30" class="edge"><title>anon_0_25_0&#45;&#45;25</title>
<path fill="none" stroke="black" d="M-51.7365,-68.1879C-56.5051,-73.9765 -69.4699,-89.7143 -74.9138,-96.3225"/>
</g>
<!-- anon_2_8_1 -->
<g id="node38" class="node"><title>anon_2_8_1</title>
<ellipse fill="white" stroke="black" cx="-115.113" cy="151.579" rx="2.5" ry="2.5"/>
</g>
<!-- anon_2_8_0&#45;&#45;anon_2_8_1 -->
<g id="edge35" class="edge"><title>anon_2_8_0&#45;&#45;anon_2_8_1</title>
<path fill="none" stroke="black" d="M-90.2492,120.826C-95.0591,126.775 -108.467,143.359 -113.325,149.369"/>
</g>
<!-- anon_2_8_1&#45;&#45;8 -->
<g id="edge36" class="edge"><title>anon_2_8_1&#45;&#45;8</title>
<path fill="none" stroke="black" d="M-116.88,153.755C-121.562,159.519 -134.29,175.189 -139.635,181.769"/>
</g>
<!-- anon_11_16_0&#45;&#45;16 -->
<g id="edge38" class="edge"><title>anon_11_16_0&#45;&#45;16</title>
<path fill="none" stroke="black" d="M-2.03548,-133.442C-2.34577,-140.729 -3.23594,-161.634 -3.59767,-170.129"/>
</g>
</g>
</svg>
