<?xml version="1.0" encoding="UTF-8" standalone="no"?>
<!DOCTYPE svg PUBLIC "-//W3C//DTD SVG 1.1//EN"
 "http://www.w3.org/Graphics/SVG/1.1/DTD/svg11.dtd">
<!-- Generated by graphviz version 2.38.0 (20140413.2041)
 -->
<!-- Title: %3 Pages: 1 -->
<svg width="168pt" height="135pt"
 viewBox="0.00 0.00 168.36 135.12" xmlns="http://www.w3.org/2000/svg" xmlns:xlink="http://www.w3.org/1999/xlink">
<g id="graph0" class="graph" transform="scale(1 1) rotate(0) translate(58.9921 173.854)">
<title>%3</title>
<polygon fill="white" stroke="none" points="-58.9921,-38.7348 -58.9921,-173.854 109.373,-173.854 109.373,-38.7348 -58.9921,-38.7348"/>
<!-- 0 -->
<g id="node1" class="node"><title>0</title>
<ellipse fill="#1874cd" stroke="black" cx="25.1862" cy="-106.275" rx="11.5" ry="11.5"/>
</g>
<!-- 2 -->
<g id="node3" class="node"><title>2</title>
<ellipse fill="#1874cd" stroke="black" cx="-10.9433" cy="-60.2179" rx="3.5" ry="3.5"/>
</g>
<!-- 0&#45;&gt;2 -->
<g id="edge3" class="edge"><title>0&#45;&gt;2</title>
<path fill="none" stroke="black" d="M17.8749,-96.9545C9.6271,-86.4405 -3.32274,-69.9324 -8.59363,-63.2132"/>
</g>
<!-- 3 -->
<g id="node4" class="node"><title>3</title>
<ellipse fill="#1874cd" stroke="black" cx="61.2818" cy="-152.432" rx="3.5" ry="3.5"/>
</g>
<!-- 0&#45;&gt;3 -->
<g id="edge4" class="edge"><title>0&#45;&gt;3</title>
<path fill="none" stroke="black" d="M32.4907,-115.616C40.7307,-126.153 53.6684,-142.697 58.9343,-149.431"/>
</g>
<!-- anon_0_1_0 -->
<g id="node6" class="node"><title>anon_0_1_0</title>
<ellipse fill="white" stroke="black" cx="68.6994" cy="-72.2186" rx="2.5" ry="2.5"/>
</g>
<!-- 0&#45;&gt;anon_0_1_0 -->
<g id="edge1" class="edge"><title>0&#45;&gt;anon_0_1_0</title>
<path fill="none" stroke="black" d="M34.4143,-99.0524C44.7923,-90.9299 60.9396,-78.292 66.63,-73.8383"/>
</g>
<!-- anon_0_4_0 -->
<g id="node7" class="node"><title>anon_0_4_0</title>
<ellipse fill="white" stroke="black" cx="-18.3174" cy="-140.373" rx="2.5" ry="2.5"/>
</g>
<!-- 0&#45;&gt;anon_0_4_0 -->
<g id="edge5" class="edge"><title>0&#45;&gt;anon_0_4_0</title>
<path fill="none" stroke="black" d="M15.9602,-113.506C5.58454,-121.639 -10.5592,-134.292 -16.2484,-138.751"/>
</g>
<!-- 1 -->
<g id="node2" class="node"><title>1</title>
<ellipse fill="#1874cd" stroke="black" cx="101.873" cy="-46.2348" rx="3.5" ry="3.5"/>
</g>
<!-- 4 -->
<g id="node5" class="node"><title>4</title>
<ellipse fill="#1874cd" stroke="black" cx="-51.4921" cy="-166.354" rx="3.5" ry="3.5"/>
</g>
<!-- anon_0_1_0&#45;&gt;1 -->
<g id="edge2" class="edge"><title>anon_0_1_0&#45;&gt;1</title>
<path fill="none" stroke="black" d="M70.876,-70.5137C76.6417,-65.9976 92.3173,-53.7192 98.8994,-48.5636"/>
</g>
<!-- anon_0_4_0&#45;&gt;4 -->
<g id="edge6" class="edge"><title>anon_0_4_0&#45;&gt;4</title>
<path fill="none" stroke="black" d="M-20.4941,-142.077C-26.2601,-146.593 -41.9364,-158.871 -48.5189,-164.026"/>
</g>
</g>
</svg>
