<?xml version="1.0" encoding="UTF-8" standalone="no"?>
<!DOCTYPE svg PUBLIC "-//W3C//DTD SVG 1.1//EN"
 "http://www.w3.org/Graphics/SVG/1.1/DTD/svg11.dtd">
<!-- Generated by graphviz version 2.38.0 (20140413.2041)
 -->
<!-- Title: %3 Pages: 1 -->
<svg width="787pt" height="699pt"
 viewBox="0.00 0.00 786.81 699.48" xmlns="http://www.w3.org/2000/svg" xmlns:xlink="http://www.w3.org/1999/xlink">
<g id="graph0" class="graph" transform="scale(1 1) rotate(0) translate(206.62 463.737)">
<title>%3</title>
<polygon fill="white" stroke="none" points="-206.62,235.743 -206.62,-463.737 580.193,-463.737 580.193,235.743 -206.62,235.743"/>
<!-- 0 -->
<g id="node1" class="node"><title>0</title>
<ellipse fill="grey" stroke="black" cx="-64.0578" cy="-0.921109" rx="58" ry="58"/>
</g>
<!-- 43 -->
<g id="node44" class="node"><title>43</title>
<ellipse fill="grey" stroke="black" cx="-151.897" cy="37.5893" rx="5" ry="5"/>
</g>
<!-- 0&#45;&#45;43 -->
<g id="edge1" class="edge"><title>0&#45;&#45;43</title>
<path fill="none" stroke="black" d="M-117.18,22.369C-129.609,27.818 -141.008,32.8156 -147.151,35.5086"/>
</g>
<!-- 1 -->
<g id="node2" class="node"><title>1</title>
<ellipse fill="grey" stroke="black" cx="426.367" cy="-240.855" rx="47" ry="47"/>
</g>
<!-- 11 -->
<g id="node12" class="node"><title>11</title>
<ellipse fill="grey" stroke="black" cx="551.361" cy="-210.622" rx="12.5" ry="12.5"/>
</g>
<!-- 1&#45;&#45;11 -->
<g id="edge2" class="edge"><title>1&#45;&#45;11</title>
<path fill="none" stroke="black" d="M472.2,-229.769C496.168,-223.972 523.664,-217.321 539.127,-213.581"/>
</g>
<!-- 16 -->
<g id="node17" class="node"><title>16</title>
<ellipse fill="grey" stroke="black" cx="392.38" cy="-122.611" rx="7" ry="7"/>
</g>
<!-- 1&#45;&#45;16 -->
<g id="edge3" class="edge"><title>1&#45;&#45;16</title>
<path fill="none" stroke="black" d="M413.324,-195.477C406.21,-170.728 398.119,-142.578 394.42,-129.708"/>
</g>
<!-- 18 -->
<g id="node19" class="node"><title>18</title>
<ellipse fill="grey" stroke="black" cx="431.189" cy="-369.341" rx="7" ry="7"/>
</g>
<!-- 1&#45;&#45;18 -->
<g id="edge4" class="edge"><title>1&#45;&#45;18</title>
<path fill="none" stroke="black" d="M428.135,-287.969C429.178,-315.758 430.394,-348.16 430.922,-362.224"/>
</g>
<!-- 23 -->
<g id="node24" class="node"><title>23</title>
<ellipse fill="grey" stroke="black" cx="363.47" cy="-316.25" rx="5" ry="5"/>
</g>
<!-- 1&#45;&#45;23 -->
<g id="edge5" class="edge"><title>1&#45;&#45;23</title>
<path fill="none" stroke="black" d="M396.024,-277.228C384.463,-291.085 372.703,-305.182 367.003,-312.015"/>
</g>
<!-- 26 -->
<g id="node27" class="node"><title>26</title>
<ellipse fill="grey" stroke="black" cx="355.399" cy="-206.941" rx="5" ry="5"/>
</g>
<!-- 1&#45;&#45;26 -->
<g id="edge6" class="edge"><title>1&#45;&#45;26</title>
<path fill="none" stroke="black" d="M383.855,-220.54C374.173,-215.913 365.217,-211.633 360.031,-209.155"/>
</g>
<!-- 28 -->
<g id="node29" class="node"><title>28</title>
<ellipse fill="grey" stroke="black" cx="506.315" cy="-166.623" rx="5" ry="5"/>
</g>
<!-- 1&#45;&#45;28 -->
<g id="edge7" class="edge"><title>1&#45;&#45;28</title>
<path fill="none" stroke="black" d="M461.201,-208.512C477.359,-193.509 494.657,-177.448 502.296,-170.355"/>
</g>
<!-- 34 -->
<g id="node35" class="node"><title>34</title>
<ellipse fill="grey" stroke="black" cx="469.667" cy="-133.795" rx="5" ry="5"/>
</g>
<!-- 1&#45;&#45;34 -->
<g id="edge8" class="edge"><title>1&#45;&#45;34</title>
<path fill="none" stroke="black" d="M444.104,-197.001C453.352,-174.133 463.587,-148.829 467.749,-138.537"/>
</g>
<!-- 36 -->
<g id="node37" class="node"><title>36</title>
<ellipse fill="grey" stroke="black" cx="427.638" cy="-153.237" rx="5" ry="5"/>
</g>
<!-- 1&#45;&#45;36 -->
<g id="edge9" class="edge"><title>1&#45;&#45;36</title>
<path fill="none" stroke="black" d="M427.05,-193.712C427.257,-179.454 427.457,-165.67 427.562,-158.448"/>
</g>
<!-- 46 -->
<g id="node47" class="node"><title>46</title>
<ellipse fill="grey" stroke="black" cx="476.612" cy="-316.338" rx="5" ry="5"/>
</g>
<!-- 1&#45;&#45;46 -->
<g id="edge10" class="edge"><title>1&#45;&#45;46</title>
<path fill="none" stroke="black" d="M452.666,-280.365C461.214,-293.207 469.58,-305.774 473.794,-312.105"/>
</g>
<!-- 2 -->
<g id="node3" class="node"><title>2</title>
<ellipse fill="grey" stroke="black" cx="99.0189" cy="-207.358" rx="38" ry="38"/>
</g>
<!-- 24 -->
<g id="node25" class="node"><title>24</title>
<ellipse fill="grey" stroke="black" cx="180.115" cy="-219.895" rx="5" ry="5"/>
</g>
<!-- 2&#45;&#45;24 -->
<g id="edge11" class="edge"><title>2&#45;&#45;24</title>
<path fill="none" stroke="black" d="M136.718,-213.186C151.774,-215.514 167.356,-217.923 175.107,-219.121"/>
</g>
<!-- 32 -->
<g id="node33" class="node"><title>32</title>
<ellipse fill="grey" stroke="black" cx="27.1047" cy="-260.283" rx="5" ry="5"/>
</g>
<!-- 2&#45;&#45;32 -->
<g id="edge12" class="edge"><title>2&#45;&#45;32</title>
<path fill="none" stroke="black" d="M68.1034,-230.11C53.7896,-240.644 38.3883,-251.979 31.2163,-257.257"/>
</g>
<!-- 42 -->
<g id="node43" class="node"><title>42</title>
<ellipse fill="grey" stroke="black" cx="4.96361" cy="-206.03" rx="5" ry="5"/>
</g>
<!-- 2&#45;&#45;42 -->
<g id="edge13" class="edge"><title>2&#45;&#45;42</title>
<path fill="none" stroke="black" d="M60.763,-206.818C41.2332,-206.542 19.611,-206.237 10.0204,-206.101"/>
</g>
<!-- 47 -->
<g id="node48" class="node"><title>47</title>
<ellipse fill="grey" stroke="black" cx="25.1515" cy="-149.002" rx="5" ry="5"/>
</g>
<!-- 2&#45;&#45;47 -->
<g id="edge14" class="edge"><title>2&#45;&#45;47</title>
<path fill="none" stroke="black" d="M68.9742,-183.623C53.6363,-171.505 36.655,-158.09 29.1229,-152.14"/>
</g>
<!-- anon_2_55_0 -->
<g id="node63" class="node"><title>anon_2_55_0</title>
<ellipse fill="white" stroke="black" cx="124.623" cy="-296.013" rx="2.5" ry="2.5"/>
</g>
<!-- 2&#45;&#45;anon_2_55_0 -->
<g id="edge15" class="edge"><title>2&#45;&#45;anon_2_55_0</title>
<path fill="none" stroke="black" d="M109.581,-243.929C115.311,-263.771 121.66,-285.753 123.839,-293.299"/>
</g>
<!-- 3 -->
<g id="node4" class="node"><title>3</title>
<ellipse fill="grey" stroke="black" cx="-147.693" cy="-287.357" rx="26" ry="26"/>
</g>
<!-- 14 -->
<g id="node15" class="node"><title>14</title>
<ellipse fill="grey" stroke="black" cx="-83.2963" cy="-322.649" rx="9" ry="9"/>
</g>
<!-- 3&#45;&#45;14 -->
<g id="edge19" class="edge"><title>3&#45;&#45;14</title>
<path fill="none" stroke="black" d="M-124.808,-299.899C-113.095,-306.318 -99.5828,-313.723 -91.2391,-318.296"/>
</g>
<!-- 4 -->
<g id="node5" class="node"><title>4</title>
<ellipse fill="grey" stroke="black" cx="93.2524" cy="18.8458" rx="18.5" ry="18.5"/>
</g>
<!-- 4&#45;&#45;0 -->
<g id="edge20" class="edge"><title>4&#45;&#45;0</title>
<path fill="none" stroke="black" d="M74.5891,16.5006C54.7308,14.0053 22.3116,9.93167 -6.18635,6.35075"/>
</g>
<!-- 5 -->
<g id="node6" class="node"><title>5</title>
<ellipse fill="grey" stroke="black" cx="389.899" cy="164.377" rx="17" ry="17"/>
</g>
<!-- 12 -->
<g id="node13" class="node"><title>12</title>
<ellipse fill="grey" stroke="black" cx="324.184" cy="208.717" rx="10" ry="10"/>
</g>
<!-- 5&#45;&#45;12 -->
<g id="edge21" class="edge"><title>5&#45;&#45;12</title>
<path fill="none" stroke="black" d="M375.639,173.998C362.503,182.862 343.452,195.716 332.596,203.041"/>
</g>
<!-- anon_5_40_0 -->
<g id="node66" class="node"><title>anon_5_40_0</title>
<ellipse fill="white" stroke="black" cx="455.73" cy="170.276" rx="2.5" ry="2.5"/>
</g>
<!-- 5&#45;&#45;anon_5_40_0 -->
<g id="edge22" class="edge"><title>5&#45;&#45;anon_5_40_0</title>
<path fill="none" stroke="black" d="M406.852,165.896C422.7,167.316 445.062,169.32 452.891,170.022"/>
</g>
<!-- 6 -->
<g id="node7" class="node"><title>6</title>
<ellipse fill="grey" stroke="black" cx="-136.735" cy="136.198" rx="16" ry="16"/>
</g>
<!-- 6&#45;&#45;0 -->
<g id="edge24" class="edge"><title>6&#45;&#45;0</title>
<path fill="none" stroke="black" d="M-129.231,122.04C-120.309,105.208 -104.916,76.1644 -91.3285,50.5301"/>
</g>
<!-- 35 -->
<g id="node36" class="node"><title>35</title>
<ellipse fill="grey" stroke="black" cx="-197.62" cy="155.407" rx="5" ry="5"/>
</g>
<!-- 6&#45;&#45;35 -->
<g id="edge25" class="edge"><title>6&#45;&#45;35</title>
<path fill="none" stroke="black" d="M-152.099,141.045C-165.485,145.269 -184.076,151.134 -192.772,153.878"/>
</g>
<!-- 7 -->
<g id="node8" class="node"><title>7</title>
<ellipse fill="grey" stroke="black" cx="179.729" cy="-127.826" rx="15.5" ry="15.5"/>
</g>
<!-- 7&#45;&#45;2 -->
<g id="edge26" class="edge"><title>7&#45;&#45;2</title>
<path fill="none" stroke="black" d="M168.507,-138.885C157.592,-149.641 140.588,-166.396 126.133,-180.64"/>
</g>
<!-- 17 -->
<g id="node18" class="node"><title>17</title>
<ellipse fill="grey" stroke="black" cx="223.247" cy="-83.1931" rx="7" ry="7"/>
</g>
<!-- 7&#45;&#45;17 -->
<g id="edge27" class="edge"><title>7&#45;&#45;17</title>
<path fill="none" stroke="black" d="M190.711,-116.563C199.574,-107.473 211.629,-95.1093 218.297,-88.2696"/>
</g>
<!-- 8 -->
<g id="node9" class="node"><title>8</title>
<ellipse fill="grey" stroke="black" cx="388.61" cy="24.2038" rx="14.5" ry="14.5"/>
</g>
<!-- anon_8_22_0 -->
<g id="node67" class="node"><title>anon_8_22_0</title>
<ellipse fill="white" stroke="black" cx="446.273" cy="4.32017" rx="2.5" ry="2.5"/>
</g>
<!-- 8&#45;&#45;anon_8_22_0 -->
<g id="edge28" class="edge"><title>8&#45;&#45;anon_8_22_0</title>
<path fill="none" stroke="black" d="M402.568,19.3905C416.434,14.6093 436.62,7.64876 443.702,5.20667"/>
</g>
<!-- anon_8_37_0 -->
<g id="node68" class="node"><title>anon_8_37_0</title>
<ellipse fill="white" stroke="black" cx="362.011" cy="-30.6358" rx="2.5" ry="2.5"/>
</g>
<!-- 8&#45;&#45;anon_8_37_0 -->
<g id="edge30" class="edge"><title>8&#45;&#45;anon_8_37_0</title>
<path fill="none" stroke="black" d="M382.171,10.9286C375.775,-2.25816 366.464,-21.4554 363.197,-28.1908"/>
</g>
<!-- 9 -->
<g id="node10" class="node"><title>9</title>
<ellipse fill="grey" stroke="black" cx="261.463" cy="-40.3686" rx="12.5" ry="12.5"/>
</g>
<!-- 44 -->
<g id="node45" class="node"><title>44</title>
<ellipse fill="grey" stroke="black" cx="303.207" cy="-5.43465" rx="5" ry="5"/>
</g>
<!-- 9&#45;&#45;44 -->
<g id="edge33" class="edge"><title>9&#45;&#45;44</title>
<path fill="none" stroke="black" d="M271.145,-32.2663C280.008,-24.8489 292.694,-14.2327 299.128,-8.84787"/>
</g>
<!-- 10 -->
<g id="node11" class="node"><title>10</title>
<ellipse fill="grey" stroke="black" cx="-28.0514" cy="-354.132" rx="12.5" ry="12.5"/>
</g>
<!-- 10&#45;&#45;14 -->
<g id="edge34" class="edge"><title>10&#45;&#45;14</title>
<path fill="none" stroke="black" d="M-38.966,-347.912C-49.6575,-341.819 -65.6981,-332.678 -75.2688,-327.224"/>
</g>
<!-- anon_10_49_0 -->
<g id="node70" class="node"><title>anon_10_49_0</title>
<ellipse fill="white" stroke="black" cx="-28.3267" cy="-409.929" rx="2.5" ry="2.5"/>
</g>
<!-- 10&#45;&#45;anon_10_49_0 -->
<g id="edge35" class="edge"><title>10&#45;&#45;anon_10_49_0</title>
<path fill="none" stroke="black" d="M-28.1138,-366.793C-28.1798,-380.169 -28.2791,-400.286 -28.314,-407.359"/>
</g>
<!-- anon_10_53_0 -->
<g id="node71" class="node"><title>anon_10_53_0</title>
<ellipse fill="white" stroke="black" cx="19.5857" cy="-325.103" rx="2.5" ry="2.5"/>
</g>
<!-- 10&#45;&#45;anon_10_53_0 -->
<g id="edge37" class="edge"><title>10&#45;&#45;anon_10_53_0</title>
<path fill="none" stroke="black" d="M-17.0028,-347.399C-5.56887,-340.432 11.439,-330.067 17.415,-326.425"/>
</g>
<!-- 13 -->
<g id="node14" class="node"><title>13</title>
<ellipse fill="grey" stroke="black" cx="360.468" cy="90.3423" rx="9" ry="9"/>
</g>
<!-- 13&#45;&#45;5 -->
<g id="edge39" class="edge"><title>13&#45;&#45;5</title>
<path fill="none" stroke="black" d="M363.844,98.835C368.646,110.913 377.533,133.271 383.579,148.48"/>
</g>
<!-- 13&#45;&#45;8 -->
<g id="edge40" class="edge"><title>13&#45;&#45;8</title>
<path fill="none" stroke="black" d="M364.032,81.9658C368.765,70.8427 377.182,51.0602 382.83,37.7875"/>
</g>
<!-- 61 -->
<g id="node62" class="node"><title>61</title>
<ellipse fill="grey" stroke="black" cx="322.97" cy="115.879" rx="5" ry="5"/>
</g>
<!-- 13&#45;&#45;61 -->
<g id="edge41" class="edge"><title>13&#45;&#45;61</title>
<path fill="none" stroke="black" d="M352.88,95.5101C345.176,100.757 333.519,108.696 327.276,112.947"/>
</g>
<!-- 15 -->
<g id="node16" class="node"><title>15</title>
<ellipse fill="grey" stroke="black" cx="67" cy="-67" rx="9" ry="9"/>
</g>
<!-- 17&#45;&#45;9 -->
<g id="edge42" class="edge"><title>17&#45;&#45;9</title>
<path fill="none" stroke="black" d="M227.933,-77.942C234.152,-70.9735 245.243,-58.5455 252.958,-49.8993"/>
</g>
<!-- 19 -->
<g id="node20" class="node"><title>19</title>
<ellipse fill="grey" stroke="black" cx="434.623" cy="-424.289" rx="7" ry="7"/>
</g>
<!-- 18&#45;&#45;19 -->
<g id="edge43" class="edge"><title>18&#45;&#45;19</title>
<path fill="none" stroke="black" d="M431.638,-376.525C432.3,-387.113 433.529,-406.788 434.185,-417.277"/>
</g>
<!-- 20 -->
<g id="node21" class="node"><title>20</title>
<ellipse fill="grey" stroke="black" cx="238.882" cy="82.5031" rx="7" ry="7"/>
</g>
<!-- 21 -->
<g id="node22" class="node"><title>21</title>
<ellipse fill="grey" stroke="black" cx="295.398" cy="78.3902" rx="7" ry="7"/>
</g>
<!-- 21&#45;&#45;13 -->
<g id="edge44" class="edge"><title>21&#45;&#45;13</title>
<path fill="none" stroke="black" d="M302.361,79.6693C314.164,81.8372 338.096,86.2331 351.266,88.6521"/>
</g>
<!-- 21&#45;&#45;20 -->
<g id="edge45" class="edge"><title>21&#45;&#45;20</title>
<path fill="none" stroke="black" d="M288.009,78.9279C277.118,79.7205 256.882,81.1931 246.093,81.9783"/>
</g>
<!-- 22 -->
<g id="node23" class="node"><title>22</title>
<ellipse fill="grey" stroke="black" cx="486.87" cy="-18.8304" rx="5" ry="5"/>
</g>
<!-- 25 -->
<g id="node26" class="node"><title>25</title>
<ellipse fill="grey" stroke="black" cx="-113.012" cy="-163.582" rx="5" ry="5"/>
</g>
<!-- anon_25_0_0 -->
<g id="node72" class="node"><title>anon_25_0_0</title>
<ellipse fill="white" stroke="black" cx="-98.6786" cy="-119.115" rx="2.5" ry="2.5"/>
</g>
<!-- 25&#45;&#45;anon_25_0_0 -->
<g id="edge46" class="edge"><title>25&#45;&#45;anon_25_0_0</title>
<path fill="none" stroke="black" d="M-111.368,-158.481C-108.309,-148.991 -101.844,-128.935 -99.527,-121.747"/>
</g>
<!-- 27 -->
<g id="node28" class="node"><title>27</title>
<ellipse fill="grey" stroke="black" cx="13.9492" cy="-63.1762" rx="5" ry="5"/>
</g>
<!-- 27&#45;&#45;0 -->
<g id="edge48" class="edge"><title>27&#45;&#45;0</title>
<path fill="none" stroke="black" d="M9.75524,-59.8291C4.05892,-55.283 -6.75519,-46.6526 -18.3846,-37.3715"/>
</g>
<!-- 29 -->
<g id="node30" class="node"><title>29</title>
<ellipse fill="grey" stroke="black" cx="353.792" cy="-159.589" rx="5" ry="5"/>
</g>
<!-- 29&#45;&#45;1 -->
<g id="edge49" class="edge"><title>29&#45;&#45;1</title>
<path fill="none" stroke="black" d="M357.292,-163.509C364.144,-171.181 379.951,-188.88 394.716,-205.414"/>
</g>
<!-- 30 -->
<g id="node31" class="node"><title>30</title>
<ellipse fill="grey" stroke="black" cx="63" cy="82" rx="5" ry="5"/>
</g>
<!-- 31 -->
<g id="node32" class="node"><title>31</title>
<ellipse fill="grey" stroke="black" cx="418.088" cy="221.063" rx="5" ry="5"/>
</g>
<!-- 31&#45;&#45;5 -->
<g id="edge50" class="edge"><title>31&#45;&#45;5</title>
<path fill="none" stroke="black" d="M415.685,216.23C411.744,208.305 403.741,192.212 397.69,180.045"/>
</g>
<!-- 33 -->
<g id="node34" class="node"><title>33</title>
<ellipse fill="grey" stroke="black" cx="-152.954" cy="-63.6441" rx="5" ry="5"/>
</g>
<!-- 33&#45;&#45;0 -->
<g id="edge51" class="edge"><title>33&#45;&#45;0</title>
<path fill="none" stroke="black" d="M-148.666,-60.6188C-141.661,-55.6757 -127.013,-45.3407 -111.844,-34.6379"/>
</g>
<!-- 37 -->
<g id="node38" class="node"><title>37</title>
<ellipse fill="grey" stroke="black" cx="327.669" cy="-112.349" rx="5" ry="5"/>
</g>
<!-- 38 -->
<g id="node39" class="node"><title>38</title>
<ellipse fill="grey" stroke="black" cx="-0.860243" cy="63.637" rx="5" ry="5"/>
</g>
<!-- 38&#45;&#45;0 -->
<g id="edge52" class="edge"><title>38&#45;&#45;0</title>
<path fill="none" stroke="black" d="M-4.62428,59.7919C-8.66334,55.6659 -15.5424,48.6388 -23.2192,40.7967"/>
</g>
<!-- 39 -->
<g id="node40" class="node"><title>39</title>
<ellipse fill="grey" stroke="black" cx="179.374" cy="-274.221" rx="5" ry="5"/>
</g>
<!-- anon_39_1_0 -->
<g id="node73" class="node"><title>anon_39_1_0</title>
<ellipse fill="white" stroke="black" cx="224.11" cy="-270.625" rx="2.5" ry="2.5"/>
</g>
<!-- 39&#45;&#45;anon_39_1_0 -->
<g id="edge53" class="edge"><title>39&#45;&#45;anon_39_1_0</title>
<path fill="none" stroke="black" d="M184.506,-273.809C194.053,-273.041 214.231,-271.419 221.462,-270.838"/>
</g>
<!-- 40 -->
<g id="node41" class="node"><title>40</title>
<ellipse fill="grey" stroke="black" cx="498.844" cy="190.667" rx="5" ry="5"/>
</g>
<!-- 41 -->
<g id="node42" class="node"><title>41</title>
<ellipse fill="grey" stroke="black" cx="571.193" cy="-314.273" rx="5" ry="5"/>
</g>
<!-- anon_41_1_0 -->
<g id="node76" class="node"><title>anon_41_1_0</title>
<ellipse fill="white" stroke="black" cx="528.479" cy="-292.362" rx="2.5" ry="2.5"/>
</g>
<!-- 41&#45;&#45;anon_41_1_0 -->
<g id="edge57" class="edge"><title>41&#45;&#45;anon_41_1_0</title>
<path fill="none" stroke="black" d="M566.622,-311.928C557.669,-307.335 538.084,-297.289 531.055,-293.683"/>
</g>
<!-- 45 -->
<g id="node46" class="node"><title>45</title>
<ellipse fill="grey" stroke="black" cx="173.509" cy="91.9901" rx="5" ry="5"/>
</g>
<!-- anon_45_4_0 -->
<g id="node77" class="node"><title>anon_45_4_0</title>
<ellipse fill="white" stroke="black" cx="136.789" cy="65.1086" rx="2.5" ry="2.5"/>
</g>
<!-- 45&#45;&#45;anon_45_4_0 -->
<g id="edge59" class="edge"><title>45&#45;&#45;anon_45_4_0</title>
<path fill="none" stroke="black" d="M169.297,88.9064C161.46,83.1695 144.898,71.0448 138.962,66.6997"/>
</g>
<!-- 48 -->
<g id="node49" class="node"><title>48</title>
<ellipse fill="grey" stroke="black" cx="-43.9864" cy="102.333" rx="5" ry="5"/>
</g>
<!-- 48&#45;&#45;0 -->
<g id="edge61" class="edge"><title>48&#45;&#45;0</title>
<path fill="none" stroke="black" d="M-44.9545,97.3531C-46.4893,89.4574 -49.6486,73.2052 -52.9636,56.1516"/>
</g>
<!-- 49 -->
<g id="node50" class="node"><title>49</title>
<ellipse fill="grey" stroke="black" cx="-28.849" cy="-454.737" rx="5" ry="5"/>
</g>
<!-- 50 -->
<g id="node51" class="node"><title>50</title>
<ellipse fill="grey" stroke="black" cx="368.789" cy="226.743" rx="5" ry="5"/>
</g>
<!-- 50&#45;&#45;5 -->
<g id="edge62" class="edge"><title>50&#45;&#45;5</title>
<path fill="none" stroke="black" d="M370.446,221.849C373.42,213.062 379.787,194.25 384.43,180.534"/>
</g>
<!-- 51 -->
<g id="node52" class="node"><title>51</title>
<ellipse fill="grey" stroke="black" cx="-185.692" cy="-14.4767" rx="5" ry="5"/>
</g>
<!-- 51&#45;&#45;0 -->
<g id="edge63" class="edge"><title>51&#45;&#45;0</title>
<path fill="none" stroke="black" d="M-180.465,-13.8942C-170.052,-12.7338 -145.667,-10.0161 -121.891,-7.36643"/>
</g>
<!-- 52 -->
<g id="node53" class="node"><title>52</title>
<ellipse fill="grey" stroke="black" cx="138.67" cy="-31.2819" rx="5" ry="5"/>
</g>
<!-- 52&#45;&#45;4 -->
<g id="edge64" class="edge"><title>52&#45;&#45;4</title>
<path fill="none" stroke="black" d="M135.106,-27.3484C128.916,-20.5167 115.895,-6.14471 106.009,4.76572"/>
</g>
<!-- 53 -->
<g id="node54" class="node"><title>53</title>
<ellipse fill="grey" stroke="black" cx="58.631" cy="-303.092" rx="5" ry="5"/>
</g>
<!-- 54 -->
<g id="node55" class="node"><title>54</title>
<ellipse fill="grey" stroke="black" cx="79.3691" cy="-126.031" rx="5" ry="5"/>
</g>
<!-- 54&#45;&#45;2 -->
<g id="edge65" class="edge"><title>54&#45;&#45;2</title>
<path fill="none" stroke="black" d="M80.6584,-131.367C82.588,-139.354 86.3915,-155.096 90.0386,-170.19"/>
</g>
<!-- 55 -->
<g id="node56" class="node"><title>55</title>
<ellipse fill="grey" stroke="black" cx="168.695" cy="-418.018" rx="5" ry="5"/>
</g>
<!-- 56 -->
<g id="node57" class="node"><title>56</title>
<ellipse fill="grey" stroke="black" cx="410.498" cy="-317.297" rx="5" ry="5"/>
</g>
<!-- 56&#45;&#45;1 -->
<g id="edge66" class="edge"><title>56&#45;&#45;1</title>
<path fill="none" stroke="black" d="M411.539,-312.282C412.683,-306.768 414.645,-297.321 416.772,-287.072"/>
</g>
<!-- 57 -->
<g id="node58" class="node"><title>57</title>
<ellipse fill="grey" stroke="black" cx="-121.637" cy="198.302" rx="5" ry="5"/>
</g>
<!-- 57&#45;&#45;6 -->
<g id="edge67" class="edge"><title>57&#45;&#45;6</title>
<path fill="none" stroke="black" d="M-122.822,193.429C-124.977,184.564 -129.623,165.454 -132.953,151.754"/>
</g>
<!-- 58 -->
<g id="node59" class="node"><title>58</title>
<ellipse fill="grey" stroke="black" cx="499.335" cy="-224.512" rx="5" ry="5"/>
</g>
<!-- 58&#45;&#45;1 -->
<g id="edge68" class="edge"><title>58&#45;&#45;1</title>
<path fill="none" stroke="black" d="M494.088,-225.688C489.121,-226.8 481.134,-228.589 472.359,-230.554"/>
</g>
<!-- 59 -->
<g id="node60" class="node"><title>59</title>
<ellipse fill="grey" stroke="black" cx="-20.0395" cy="-107.214" rx="5" ry="5"/>
</g>
<!-- 59&#45;&#45;0 -->
<g id="edge69" class="edge"><title>59&#45;&#45;0</title>
<path fill="none" stroke="black" d="M-22.0453,-102.371C-25.6782,-93.5983 -33.7231,-74.1717 -41.8109,-54.6418"/>
</g>
<!-- 60 -->
<g id="node61" class="node"><title>60</title>
<ellipse fill="grey" stroke="black" cx="5" cy="111" rx="5" ry="5"/>
</g>
<!-- anon_2_55_1 -->
<g id="node64" class="node"><title>anon_2_55_1</title>
<ellipse fill="white" stroke="black" cx="135.433" cy="-337.98" rx="2.5" ry="2.5"/>
</g>
<!-- anon_2_55_0&#45;&#45;anon_2_55_1 -->
<g id="edge16" class="edge"><title>anon_2_55_0&#45;&#45;anon_2_55_1</title>
<path fill="none" stroke="black" d="M125.332,-298.766C127.286,-306.352 132.733,-327.498 134.707,-335.161"/>
</g>
<!-- anon_2_55_2 -->
<g id="node65" class="node"><title>anon_2_55_2</title>
<ellipse fill="white" stroke="black" cx="147.88" cy="-378.568" rx="2.5" ry="2.5"/>
</g>
<!-- anon_2_55_1&#45;&#45;anon_2_55_2 -->
<g id="edge17" class="edge"><title>anon_2_55_1&#45;&#45;anon_2_55_2</title>
<path fill="none" stroke="black" d="M136.25,-340.643C138.5,-347.979 144.771,-368.43 147.044,-375.842"/>
</g>
<!-- anon_2_55_2&#45;&#45;55 -->
<g id="edge18" class="edge"><title>anon_2_55_2&#45;&#45;55</title>
<path fill="none" stroke="black" d="M149.246,-381.156C152.719,-387.739 161.923,-405.182 166.307,-413.492"/>
</g>
<!-- anon_5_40_0&#45;&#45;40 -->
<g id="edge23" class="edge"><title>anon_5_40_0&#45;&#45;40</title>
<path fill="none" stroke="black" d="M458.048,171.373C464.905,174.615 485.176,184.203 494.302,188.519"/>
</g>
<!-- anon_8_22_0&#45;&#45;22 -->
<g id="edge29" class="edge"><title>anon_8_22_0&#45;&#45;22</title>
<path fill="none" stroke="black" d="M448.456,3.0755C454.846,-0.568521 473.611,-11.2697 482.326,-16.2393"/>
</g>
<!-- anon_8_37_1 -->
<g id="node69" class="node"><title>anon_8_37_1</title>
<ellipse fill="white" stroke="black" cx="347.315" cy="-71.6674" rx="2.5" ry="2.5"/>
</g>
<!-- anon_8_37_0&#45;&#45;anon_8_37_1 -->
<g id="edge31" class="edge"><title>anon_8_37_0&#45;&#45;anon_8_37_1</title>
<path fill="none" stroke="black" d="M361.047,-33.328C358.39,-40.7448 350.986,-61.4193 348.303,-68.9115"/>
</g>
<!-- anon_8_37_1&#45;&#45;37 -->
<g id="edge32" class="edge"><title>anon_8_37_1&#45;&#45;37</title>
<path fill="none" stroke="black" d="M346.026,-74.3367C342.748,-81.1246 334.061,-99.1126 329.923,-107.682"/>
</g>
<!-- anon_10_49_0&#45;&#45;49 -->
<g id="edge36" class="edge"><title>anon_10_49_0&#45;&#45;49</title>
<path fill="none" stroke="black" d="M-28.3578,-412.598C-28.4421,-419.833 -28.6762,-439.919 -28.788,-449.509"/>
</g>
<!-- anon_10_53_0&#45;&#45;53 -->
<g id="edge38" class="edge"><title>anon_10_53_0&#45;&#45;53</title>
<path fill="none" stroke="black" d="M22.1475,-323.659C28.6625,-319.986 45.927,-310.254 54.152,-305.617"/>
</g>
<!-- anon_25_0_0&#45;&#45;0 -->
<g id="edge47" class="edge"><title>anon_25_0_0&#45;&#45;0</title>
<path fill="none" stroke="black" d="M-97.9554,-116.647C-95.6056,-108.624 -87.9042,-82.332 -80.4351,-56.8328"/>
</g>
<!-- anon_39_1_1 -->
<g id="node74" class="node"><title>anon_39_1_1</title>
<ellipse fill="white" stroke="black" cx="266.972" cy="-266.165" rx="2.5" ry="2.5"/>
</g>
<!-- anon_39_1_0&#45;&#45;anon_39_1_1 -->
<g id="edge54" class="edge"><title>anon_39_1_0&#45;&#45;anon_39_1_1</title>
<path fill="none" stroke="black" d="M226.663,-270.359C234.16,-269.579 256.085,-267.298 264.043,-266.47"/>
</g>
<!-- anon_39_1_2 -->
<g id="node75" class="node"><title>anon_39_1_2</title>
<ellipse fill="white" stroke="black" cx="311.228" cy="-260.052" rx="2.5" ry="2.5"/>
</g>
<!-- anon_39_1_1&#45;&#45;anon_39_1_2 -->
<g id="edge55" class="edge"><title>anon_39_1_1&#45;&#45;anon_39_1_2</title>
<path fill="none" stroke="black" d="M269.608,-265.801C277.498,-264.711 300.863,-261.484 308.661,-260.406"/>
</g>
<!-- anon_39_1_2&#45;&#45;1 -->
<g id="edge56" class="edge"><title>anon_39_1_2&#45;&#45;1</title>
<path fill="none" stroke="black" d="M314.074,-259.577C323.285,-258.042 353.235,-253.048 379.888,-248.604"/>
</g>
<!-- anon_41_1_0&#45;&#45;1 -->
<g id="edge58" class="edge"><title>anon_41_1_0&#45;&#45;1</title>
<path fill="none" stroke="black" d="M525.955,-291.089C517.878,-287.015 491.821,-273.871 468.388,-262.051"/>
</g>
<!-- anon_45_4_0&#45;&#45;4 -->
<g id="edge60" class="edge"><title>anon_45_4_0&#45;&#45;4</title>
<path fill="none" stroke="black" d="M134.918,63.1208C130.035,57.9323 116.57,43.6234 106.256,32.6635"/>
</g>
</g>
</svg>
