<?xml version="1.0" encoding="UTF-8" standalone="no"?>
<!DOCTYPE svg PUBLIC "-//W3C//DTD SVG 1.1//EN"
 "http://www.w3.org/Graphics/SVG/1.1/DTD/svg11.dtd">
<!-- Generated by graphviz version 2.38.0 (20140413.2041)
 -->
<!-- Title: %3 Pages: 1 -->
<svg width="286pt" height="216pt"
 viewBox="0.00 0.00 285.59 216.29" xmlns="http://www.w3.org/2000/svg" xmlns:xlink="http://www.w3.org/1999/xlink">
<g id="graph0" class="graph" transform="scale(1 1) rotate(0) translate(46.9349 125.788)">
<title>%3</title>
<polygon fill="white" stroke="none" points="-46.9349,90.4977 -46.9349,-125.788 238.655,-125.788 238.655,90.4977 -46.9349,90.4977"/>
<!-- 0 -->
<g id="node1" class="node"><title>0</title>
<path fill="olivedrab" stroke="black" stroke-width="0.5" d="M-2.03054,-82.4615C-2.03054,-82.4615 9.96946,-82.4615 9.96946,-82.4615 9.96946,-82.89 9.94651,-83.3182 9.9007,-83.7443 9.8549,-84.1703 9.78631,-84.5936 9.69522,-85.0123 9.60414,-85.431 9.49069,-85.8446 9.35537,-86.2511 9.22005,-86.6577 9.06305,-87.0567 8.88504,-87.4465 8.70704,-87.8363 8.50828,-88.2163 8.28963,-88.5848 8.07098,-88.9533 7.83275,-89.3098 7.57595,-89.6529 7.31916,-89.9959 7.04418,-90.3249 6.75219,-90.6386 6.46021,-90.9522 6.15163,-91.2499 5.82779,-91.5305 5.50395,-91.8111 5.16531,-92.0742 4.81333,-92.3186 4.46135,-92.563 4.09653,-92.7883 3.72045,-92.9937 3.34436,-93.199 2.95754,-93.3841 2.56166,-93.5481 2.16578,-93.7121 1.76139,-93.8547 1.35025,-93.9755 0.939106,-94.0962 0.521791,-94.1948 0.100098,-94.2709 -0.321595,-94.347 -0.747061,-94.4004 -1.17447,-94.431 -1.60188,-94.4615 -2.03062,-94.4692 -2.45885,-94.4539 -2.88708,-94.4386 -3.31418,-94.4004 -3.73832,-94.3394 -3.73832,-94.3394 -2.03054,-82.4615 -2.03054,-82.4615"/>
<path fill="#1874cd" stroke="black" stroke-width="0.5" d="M-2.03054,-82.4615C-2.03054,-82.4615 -3.73832,-94.3394 -3.73832,-94.3394 -4.30394,-94.2581 -4.86304,-94.1364 -5.41133,-93.9755 -5.95963,-93.8145 -6.49572,-93.6145 -7.01552,-93.3771 -7.53532,-93.1397 -8.0375,-92.8655 -8.51823,-92.5566 -8.99896,-92.2476 -9.457,-91.9047 -9.88887,-91.5305 -10.3207,-91.1563 -10.7253,-90.7517 -11.0995,-90.3199 -11.4737,-89.888 -11.8166,-89.43 -12.1256,-88.9492 -12.4345,-88.4685 -12.7087,-87.9663 -12.9461,-87.4465 -13.1835,-86.9267 -13.3835,-86.3906 -13.5445,-85.8423 -13.7054,-85.294 -13.8271,-84.7349 -13.9084,-84.1693 -13.9897,-83.6037 -14.0305,-83.033 -14.0305,-82.4615 -14.0305,-81.8901 -13.9897,-81.3194 -13.9084,-80.7538 -13.8271,-80.1881 -13.7054,-79.629 -13.5445,-79.0807 -13.3835,-78.5325 -13.1835,-77.9964 -12.9461,-77.4766 -12.7087,-76.9568 -12.4345,-76.4546 -12.1256,-75.9738 -11.8166,-75.4931 -11.4737,-75.0351 -11.0995,-74.6032 -10.7253,-74.1713 -10.3207,-73.7668 -9.88887,-73.3925 -9.457,-73.0183 -8.99896,-72.6754 -8.51823,-72.3665 -8.0375,-72.0575 -7.53532,-71.7833 -7.01552,-71.546 -6.49572,-71.3086 -5.95962,-71.1086 -5.41133,-70.9476 -4.86304,-70.7866 -4.30394,-70.665 -3.73832,-70.5837 -3.17269,-70.5024 -2.60198,-70.4615 -2.03054,-70.4615 -1.4591,-70.4615 -0.888387,-70.5024 -0.322762,-70.5837 0.242863,-70.665 0.801957,-70.7866 1.35025,-70.9476 1.89854,-71.1086 2.43464,-71.3086 2.95444,-71.546 3.47424,-71.7833 3.97642,-72.0576 4.45715,-72.3665 4.93788,-72.6754 5.39592,-73.0183 5.82779,-73.3925 6.25966,-73.7668 6.66424,-74.1713 7.03845,-74.6032 7.41267,-75.0351 7.75556,-75.4931 8.0645,-75.9738 8.37345,-76.4546 8.64766,-76.9568 8.88504,-77.4766 9.12243,-77.9964 9.32238,-78.5325 9.48338,-79.0807 9.64437,-79.629 9.76599,-80.1881 9.84732,-80.7538 9.92864,-81.3194 9.96946,-81.8901 9.96946,-82.4615 9.96946,-82.4615 -2.03054,-82.4615 -2.03054,-82.4615"/>
<ellipse fill="none" stroke="black" cx="-2.03054" cy="-82.4615" rx="12" ry="12"/>
</g>
<!-- 1 -->
<g id="node2" class="node"><title>1</title>
<path fill="olivedrab" stroke="black" stroke-width="0.5" d="M45.6992,-41.8088C45.6992,-41.8088 59.6992,-41.8088 59.6992,-41.8088 59.6992,-42.2976 59.6736,-42.7861 59.6225,-43.2722 59.5714,-43.7583 59.4949,-44.2415 59.3932,-44.7196 59.2916,-45.1977 59.165,-45.6702 59.014,-46.1351 58.8629,-46.5999 58.6876,-47.0566 58.4888,-47.5031 58.29,-47.9497 58.0679,-48.3855 57.8235,-48.8088 57.5791,-49.2321 57.3127,-49.6424 57.0254,-50.0378 56.7381,-50.4333 56.4303,-50.8134 56.1032,-51.1767 55.7761,-51.5399 55.4302,-51.8858 55.067,-52.2129 54.7037,-52.5399 54.3236,-52.8478 53.9282,-53.1351 53.5327,-53.4224 53.1225,-53.6888 52.6992,-53.9332 52.2759,-54.1776 51.84,-54.3996 51.3935,-54.5985 50.9469,-54.7973 50.4903,-54.9726 50.0254,-55.1236 49.5605,-55.2747 49.0881,-55.4013 48.6099,-55.5029 48.1318,-55.6045 47.6487,-55.681 47.1626,-55.7321 46.6764,-55.7832 46.188,-55.8088 45.6992,-55.8088 45.2104,-55.8088 44.7219,-55.7832 44.2358,-55.7321 43.7496,-55.681 43.2665,-55.6045 42.7884,-55.5029 42.3103,-55.4013 41.8378,-55.2747 41.3729,-55.1236 40.908,-54.9726 40.4514,-54.7973 40.0049,-54.5985 39.5583,-54.3996 39.1225,-54.1776 38.6992,-53.9332 38.2758,-53.6888 37.8656,-53.4224 37.4702,-53.1351 37.0747,-52.8477 36.6946,-52.5399 36.3313,-52.2128 35.9681,-51.8858 35.6222,-51.5399 35.2951,-51.1767 34.9681,-50.8134 34.6602,-50.4333 34.3729,-50.0378 34.0856,-49.6424 33.8192,-49.2321 33.5748,-48.8088 33.3304,-48.3855 33.1083,-47.9497 32.9095,-47.5031 32.7107,-47.0566 32.5354,-46.5999 32.3844,-46.1351 32.2333,-45.6702 32.1067,-45.1977 32.0051,-44.7196 31.9035,-44.2415 31.827,-43.7583 31.7759,-43.2722 31.7248,-42.7861 31.6992,-42.2976 31.6992,-41.8088 31.6992,-41.32 31.7248,-40.8315 31.7759,-40.3454 31.827,-39.8593 31.9035,-39.3762 32.0051,-38.8981 32.0051,-38.8981 45.6992,-41.8088 45.6992,-41.8088"/>
<path fill="#1874cd" stroke="black" stroke-width="0.5" d="M45.6992,-41.8088C45.6992,-41.8088 32.0051,-38.8981 32.0051,-38.8981 32.183,-38.0609 32.4374,-37.2419 32.7649,-36.4513 33.0924,-35.6606 33.4917,-34.9016 33.9578,-34.1839 34.4239,-33.4661 34.9548,-32.7926 35.5439,-32.1719 36.133,-31.5511 36.7778,-30.9856 37.4702,-30.4826 38.1625,-29.9796 38.8996,-29.5411 39.672,-29.1726 40.4445,-28.8042 41.2491,-28.5074 42.0757,-28.2859 42.9024,-28.0644 43.7476,-27.9191 44.6007,-27.852 45.4539,-27.7848 46.3114,-27.7961 47.1626,-27.8855 48.0137,-27.975 48.8548,-28.1423 49.6754,-28.3853 50.4959,-28.6284 51.2925,-28.9462 52.055,-29.3347 52.8176,-29.7233 53.5429,-30.1809 54.2218,-30.7019 54.9008,-31.2229 55.5305,-31.805 56.1032,-32.441 56.6758,-33.077 57.189,-33.7641 57.6361,-34.4938 58.0833,-35.2235 58.4626,-35.9927 58.7693,-36.7917 59.076,-37.5906 59.3088,-38.416 59.4647,-39.2575 59.6207,-40.099 59.6992,-40.953 59.6992,-41.8088 59.6992,-41.8088 45.6992,-41.8088 45.6992,-41.8088"/>
<ellipse fill="none" stroke="black" cx="45.6992" cy="-41.8088" rx="14" ry="14"/>
</g>
<!-- 0&#45;&#45;1 -->
<g id="edge1" class="edge"><title>0&#45;&#45;1</title>
<path fill="none" stroke="black" d="M7.17223,-74.6233C15.0823,-67.8861 26.5011,-58.1604 34.8536,-51.0463"/>
</g>
<!-- 8 -->
<g id="node9" class="node"><title>8</title>
<ellipse fill="olivedrab" stroke="black" cx="-39.4349" cy="-118.288" rx="3.5" ry="3.5"/>
</g>
<!-- 0&#45;&#45;8 -->
<g id="edge2" class="edge"><title>0&#45;&#45;8</title>
<path fill="none" stroke="black" d="M-10.7059,-90.7708C-19.1657,-98.8737 -31.5119,-110.699 -36.8344,-115.797"/>
</g>
<!-- 2 -->
<g id="node3" class="node"><title>2</title>
<ellipse fill="#1874cd" stroke="black" cx="102.718" cy="-43.0416" rx="6" ry="6"/>
</g>
<!-- 1&#45;&#45;2 -->
<g id="edge3" class="edge"><title>1&#45;&#45;2</title>
<path fill="none" stroke="black" d="M59.7938,-42.1136C71.5342,-42.3674 87.7004,-42.7169 96.4618,-42.9064"/>
</g>
<!-- 5 -->
<g id="node6" class="node"><title>5</title>
<ellipse fill="olivedrab" stroke="black" cx="38.7499" cy="-95.1149" rx="3.5" ry="3.5"/>
</g>
<!-- 1&#45;&#45;5 -->
<g id="edge7" class="edge"><title>1&#45;&#45;5</title>
<path fill="none" stroke="black" d="M43.8733,-55.8144C42.2969,-67.9064 40.1311,-84.5197 39.2025,-91.643"/>
</g>
<!-- 6 -->
<g id="node7" class="node"><title>6</title>
<ellipse fill="olivedrab" stroke="black" cx="-7.64016" cy="-35.3164" rx="3.5" ry="3.5"/>
</g>
<!-- 1&#45;&#45;6 -->
<g id="edge8" class="edge"><title>1&#45;&#45;6</title>
<path fill="none" stroke="black" d="M31.6849,-40.103C19.8322,-38.6603 3.63823,-36.6892 -3.71799,-35.7938"/>
</g>
<!-- 7 -->
<g id="node8" class="node"><title>7</title>
<ellipse fill="olivedrab" stroke="black" cx="73.2373" cy="4.31389" rx="3.5" ry="3.5"/>
</g>
<!-- 1&#45;&#45;7 -->
<g id="edge9" class="edge"><title>1&#45;&#45;7</title>
<path fill="none" stroke="black" d="M52.9345,-29.6906C59.0538,-19.4416 67.4145,-5.43857 71.2124,0.922379"/>
</g>
<!-- 9 -->
<g id="node10" class="node"><title>9</title>
<ellipse fill="olivedrab" stroke="black" cx="72.6274" cy="-88.3326" rx="3.5" ry="3.5"/>
</g>
<!-- 1&#45;&#45;9 -->
<g id="edge10" class="edge"><title>1&#45;&#45;9</title>
<path fill="none" stroke="black" d="M52.7742,-54.0324C58.8827,-64.5859 67.2751,-79.0855 70.8735,-85.3025"/>
</g>
<!-- anon_1_3_0 -->
<g id="node11" class="node"><title>anon_1_3_0</title>
<ellipse fill="white" stroke="black" cx="23.2055" cy="6.32677" rx="2.5" ry="2.5"/>
</g>
<!-- 1&#45;&#45;anon_1_3_0 -->
<g id="edge4" class="edge"><title>1&#45;&#45;anon_1_3_0</title>
<path fill="none" stroke="black" d="M39.6713,-28.9094C34.3618,-17.5473 27.0584,-1.91822 24.3105,3.96228"/>
</g>
<!-- anon_2_4_0 -->
<g id="node13" class="node"><title>anon_2_4_0</title>
<ellipse fill="white" stroke="black" cx="147.798" cy="-44.6131" rx="2.5" ry="2.5"/>
</g>
<!-- 2&#45;&#45;anon_2_4_0 -->
<g id="edge11" class="edge"><title>2&#45;&#45;anon_2_4_0</title>
<path fill="none" stroke="black" d="M108.987,-43.2601C119.051,-43.611 138.382,-44.2849 145.277,-44.5253"/>
</g>
<!-- 3 -->
<g id="node4" class="node"><title>3</title>
<ellipse fill="#1874cd" stroke="black" cx="-9.91173" cy="82.9977" rx="3.5" ry="3.5"/>
</g>
<!-- 4 -->
<g id="node5" class="node"><title>4</title>
<ellipse fill="#1874cd" stroke="black" cx="231.155" cy="-45.949" rx="3.5" ry="3.5"/>
</g>
<!-- anon_1_3_1 -->
<g id="node12" class="node"><title>anon_1_3_1</title>
<ellipse fill="white" stroke="black" cx="6.1643" cy="43.9445" rx="2.5" ry="2.5"/>
</g>
<!-- anon_1_3_0&#45;&#45;anon_1_3_1 -->
<g id="edge5" class="edge"><title>anon_1_3_0&#45;&#45;anon_1_3_1</title>
<path fill="none" stroke="black" d="M22.0874,8.79497C19.0071,15.5947 10.4205,34.5491 7.30888,41.4179"/>
</g>
<!-- anon_1_3_1&#45;&#45;3 -->
<g id="edge6" class="edge"><title>anon_1_3_1&#45;&#45;3</title>
<path fill="none" stroke="black" d="M5.1095,46.5069C2.31537,53.2946 -5.28116,71.7488 -8.47095,79.4976"/>
</g>
<!-- anon_2_4_1 -->
<g id="node14" class="node"><title>anon_2_4_1</title>
<ellipse fill="white" stroke="black" cx="188.977" cy="-45.7648" rx="2.5" ry="2.5"/>
</g>
<!-- anon_2_4_0&#45;&#45;anon_2_4_1 -->
<g id="edge12" class="edge"><title>anon_2_4_0&#45;&#45;anon_2_4_1</title>
<path fill="none" stroke="black" d="M150.5,-44.6887C157.943,-44.8969 178.692,-45.4772 186.211,-45.6875"/>
</g>
<!-- anon_2_4_1&#45;&#45;4 -->
<g id="edge13" class="edge"><title>anon_2_4_1&#45;&#45;4</title>
<path fill="none" stroke="black" d="M191.745,-45.7769C199.075,-45.8089 219.006,-45.896 227.375,-45.9325"/>
</g>
</g>
</svg>
