<?xml version="1.0" encoding="UTF-8" standalone="no"?>
<!DOCTYPE svg PUBLIC "-//W3C//DTD SVG 1.1//EN"
 "http://www.w3.org/Graphics/SVG/1.1/DTD/svg11.dtd">
<!-- Generated by graphviz version 2.38.0 (20140413.2041)
 -->
<!-- Title: %3 Pages: 1 -->
<svg width="178pt" height="184pt"
 viewBox="0.00 0.00 177.87 183.57" xmlns="http://www.w3.org/2000/svg" xmlns:xlink="http://www.w3.org/1999/xlink">
<g id="graph0" class="graph" transform="scale(1 1) rotate(0) translate(129.751 123.622)">
<title>%3</title>
<polygon fill="white" stroke="none" points="-129.751,59.9497 -129.751,-123.622 48.1213,-123.622 48.1213,59.9497 -129.751,59.9497"/>
<!-- 0 -->
<g id="node1" class="node"><title>0</title>
<path fill="olivedrab" stroke="black" stroke-width="0.5" d="M-54.9018,-15.4778C-54.9018,-15.4778 -28.4018,-15.4778 -28.4018,-15.4778 -28.4018,-16.219 -28.4329,-16.9598 -28.495,-17.6984 -28.5571,-18.4369 -28.6502,-19.1726 -28.774,-19.9034 -28.8978,-20.6341 -29.0521,-21.3594 -29.2367,-22.0772 -29.4213,-22.795 -29.6359,-23.5048 -29.88,-24.2046 -30.1241,-24.9045 -30.3974,-25.5938 -30.6993,-26.2707 -31.0011,-26.9476 -31.3313,-27.6116 -31.6888,-28.2608 -32.0463,-28.9101 -32.431,-29.544 -32.8416,-30.161 -33.2523,-30.778 -33.6887,-31.3775 -34.1496,-31.958 -34.6106,-32.5384 -35.0956,-33.0992 -35.6036,-33.6389 -36.1115,-34.1787 -36.6419,-34.6969 -37.1933,-35.1922 -37.7447,-35.6875 -38.3166,-36.1594 -38.9076,-36.6068 -39.4985,-37.0541 -40.108,-37.4765 -40.7344,-37.8727 -41.3607,-38.269 -42.0035,-38.6388 -42.6608,-38.9811 -43.3182,-39.3235 -43.9896,-39.6381 -44.6734,-39.9242 -45.3571,-40.2103 -46.0526,-40.4676 -46.7579,-40.6953 -47.4632,-40.9231 -48.1777,-41.1212 -48.8997,-41.2891 -49.6216,-41.457 -50.3502,-41.5945 -51.0837,-41.7013 -51.8171,-41.8081 -52.5547,-41.884 -53.2945,-41.929 -54.0343,-41.9739 -54.7757,-41.9878 -55.5167,-41.9706 -56.2577,-41.9534 -56.9976,-41.9052 -57.7345,-41.8259 -58.4715,-41.7467 -59.2048,-41.6366 -59.9325,-41.4959 -60.6602,-41.3552 -61.3816,-41.184 -62.095,-40.9828 -62.8083,-40.7816 -63.5129,-40.5506 -64.2069,-40.2904 -64.9009,-40.0301 -65.5837,-39.7409 -66.2534,-39.4234 -66.9231,-39.1059 -67.5793,-38.7604 -68.22,-38.3879 -68.8608,-38.0154 -69.4857,-37.6162 -70.093,-37.1913 -70.7003,-36.7664 -71.2895,-36.3163 -71.8591,-35.842 -72.4286,-35.3677 -72.9781,-34.8698 -73.5059,-34.3494 -74.0337,-33.8291 -74.5395,-33.2868 -75.0218,-32.7241 -75.5042,-32.1613 -75.9627,-31.5786 -76.3962,-30.9774 -76.8297,-30.3763 -77.2378,-29.7572 -77.6195,-29.1218 -78.0011,-28.4864 -78.3559,-27.8353 -78.6829,-27.1701 -79.0099,-26.505 -79.3089,-25.8264 -79.579,-25.1362 -79.8492,-24.446 -80.0902,-23.7448 -80.3016,-23.0344 -80.5129,-22.324 -80.6944,-21.605 -80.8455,-20.8794 -80.9965,-20.1538 -81.1171,-19.4222 -81.2068,-18.6864 -81.2966,-17.9507 -81.3554,-17.2115 -81.3832,-16.4709 -81.411,-15.7302 -81.4077,-14.9887 -81.3733,-14.2483 -81.3389,-13.508 -81.2735,-12.7694 -81.1772,-12.0345 -81.0809,-11.2996 -80.9538,-10.569 -80.7962,-9.84479 -80.6387,-9.12055 -80.4508,-8.40324 -80.2331,-7.69474 -80.0154,-6.98625 -79.7681,-6.2872 -79.4918,-5.59945 -79.2155,-4.91169 -78.9105,-4.23582 -78.5776,-3.57363 -78.2446,-2.91145 -77.884,-2.26352 -77.4968,-1.63156 -77.1095,-0.999599 -76.6959,-0.384165 -76.257,0.21312 -75.8182,0.810406 -75.3545,1.38902 -74.8671,1.94743 -74.3797,2.50584 -73.8692,3.04355 -73.3367,3.55916 -72.8043,4.07477 -72.2504,4.56781 -71.6766,5.03698 -71.1029,5.50616 -70.5097,5.95106 -69.8986,6.3705 -69.2875,6.78995 -68.6591,7.18357 -68.015,7.55033 -67.371,7.9171 -66.7118,8.25668 -66.0392,8.56818 -65.3667,8.87968 -64.6814,9.16283 -63.9851,9.41689 -63.2888,9.67094 -62.5822,9.89566 -61.8671,10.0905 -61.152,10.2853 -60.429,10.45 -59.7,10.5842 -58.9711,10.7184 -58.2369,10.822 -57.4993,10.8946 -56.7617,10.9673 -56.0213,11.0089 -55.2802,11.0195 -54.5391,11.0301 -53.7979,11.0096 -53.0585,10.958 -52.3191,10.9065 -51.5822,10.8239 -50.8498,10.7106 -50.1173,10.5973 -49.3899,10.4533 -48.6695,10.2789 -47.9491,10.1046 -47.2364,9.90018 -46.5331,9.66611 -45.8299,9.43205 -45.1368,9.16858 -44.4556,8.87641 -43.7744,8.58424 -43.1058,8.26362 -42.4515,7.9154 -41.7973,7.56718 -41.1579,7.19166 -40.5351,6.78984 -39.9123,6.38801 -39.3066,5.96024 -38.7196,5.50764 -38.7196,5.50764 -54.9018,-15.4778 -54.9018,-15.4778"/>
<path fill="#1874cd" stroke="black" stroke-width="0.5" d="M-54.9018,-15.4778C-54.9018,-15.4778 -38.7196,5.50764 -38.7196,5.50764 -37.9203,4.89125 -37.1568,4.2297 -36.433,3.52622 -35.7091,2.82274 -35.026,2.07847 -34.3871,1.29706 -33.7481,0.515644 -33.1543,-0.301638 -32.6086,-1.15079 -32.0629,-1.99995 -31.5661,-2.87959 -31.1208,-3.78541 -30.6754,-4.69124 -30.2821,-5.62177 -29.9429,-6.57246 -29.6037,-7.52315 -29.3191,-8.49245 -29.0905,-9.47561 -28.8619,-10.4588 -28.6896,-11.4542 -28.5746,-12.457 -28.4595,-13.4598 -28.4018,-14.4684 -28.4018,-15.4778 -28.4018,-15.4778 -54.9018,-15.4778 -54.9018,-15.4778"/>
<ellipse fill="none" stroke="black" cx="-54.9018" cy="-15.4778" rx="26.5" ry="26.5"/>
</g>
<!-- 2 -->
<g id="node3" class="node"><title>2</title>
<ellipse fill="olivedrab" stroke="black" cx="-11.6345" cy="-77.2683" rx="9" ry="9"/>
</g>
<!-- 0&#45;&#45;2 -->
<g id="edge1" class="edge"><title>0&#45;&#45;2</title>
<path fill="none" stroke="black" d="M-39.5255,-37.4368C-31.6557,-48.6758 -22.5771,-61.641 -16.9711,-69.6471"/>
</g>
<!-- 4 -->
<g id="node5" class="node"><title>4</title>
<ellipse fill="olivedrab" stroke="black" cx="22.0687" cy="-23.9434" rx="11" ry="11"/>
</g>
<!-- 0&#45;&#45;4 -->
<g id="edge2" class="edge"><title>0&#45;&#45;4</title>
<path fill="none" stroke="black" d="M-28.4129,-18.3911C-15.0192,-19.8643 0.528345,-21.5743 10.7915,-22.703"/>
</g>
<!-- 5 -->
<g id="node6" class="node"><title>5</title>
<ellipse fill="olivedrab" stroke="black" cx="-122.251" cy="-32.1734" rx="3.5" ry="3.5"/>
</g>
<!-- 0&#45;&#45;5 -->
<g id="edge3" class="edge"><title>0&#45;&#45;5</title>
<path fill="none" stroke="black" d="M-80.7482,-21.885C-94.9928,-25.4162 -111.216,-29.4378 -118.437,-31.2279"/>
</g>
<!-- 6 -->
<g id="node7" class="node"><title>6</title>
<ellipse fill="olivedrab" stroke="black" cx="-70.5966" cy="-83.0916" rx="3.5" ry="3.5"/>
</g>
<!-- 0&#45;&#45;6 -->
<g id="edge4" class="edge"><title>0&#45;&#45;6</title>
<path fill="none" stroke="black" d="M-60.9249,-41.4257C-64.2444,-55.7262 -68.025,-72.013 -69.7078,-79.2626"/>
</g>
<!-- 7 -->
<g id="node8" class="node"><title>7</title>
<ellipse fill="olivedrab" stroke="black" cx="-14.4541" cy="40.6632" rx="3.5" ry="3.5"/>
</g>
<!-- 0&#45;&#45;7 -->
<g id="edge5" class="edge"><title>0&#45;&#45;7</title>
<path fill="none" stroke="black" d="M-39.3793,6.06722C-30.8245,17.9412 -21.0815,31.4645 -16.7446,37.4839"/>
</g>
<!-- 8 -->
<g id="node9" class="node"><title>8</title>
<ellipse fill="olivedrab" stroke="black" cx="-66.9068" cy="52.4497" rx="3.5" ry="3.5"/>
</g>
<!-- 0&#45;&#45;8 -->
<g id="edge6" class="edge"><title>0&#45;&#45;8</title>
<path fill="none" stroke="black" d="M-59.5776,10.9793C-62.1057,25.284 -64.9644,41.4588 -66.2357,48.6521"/>
</g>
<!-- 9 -->
<g id="node10" class="node"><title>9</title>
<ellipse fill="olivedrab" stroke="black" cx="-113.651" cy="20.7629" rx="3.5" ry="3.5"/>
</g>
<!-- 0&#45;&#45;9 -->
<g id="edge7" class="edge"><title>0&#45;&#45;9</title>
<path fill="none" stroke="black" d="M-77.7838,-1.36241C-90.1556,6.26943 -104.145,14.899 -110.366,18.7368"/>
</g>
<!-- 1 -->
<g id="node2" class="node"><title>1</title>
<ellipse fill="olivedrab" stroke="black" cx="-41.8224" cy="-116.122" rx="3.5" ry="3.5"/>
</g>
<!-- 1&#45;&#45;2 -->
<g id="edge8" class="edge"><title>1&#45;&#45;2</title>
<path fill="none" stroke="black" d="M-39.4536,-113.073C-34.7278,-106.991 -24.0108,-93.1973 -17.3436,-84.6163"/>
</g>
<!-- 1&#45;&#45;6 -->
<g id="edge10" class="edge"><title>1&#45;&#45;6</title>
<path fill="none" stroke="black" stroke-dasharray="5,2" d="M-44.4779,-113.074C-50.0429,-106.685 -62.8542,-91.9792 -68.1928,-85.8509"/>
</g>
<!-- 3 -->
<g id="node4" class="node"><title>3</title>
<ellipse fill="olivedrab" stroke="black" cx="39.1213" cy="-73.7168" rx="5" ry="5"/>
</g>
<!-- 2&#45;&#45;3 -->
<g id="edge9" class="edge"><title>2&#45;&#45;3</title>
<path fill="none" stroke="black" d="M-2.32508,-76.6169C8.32106,-75.872 25.3763,-74.6786 33.9073,-74.0816"/>
</g>
<!-- 3&#45;&#45;4 -->
<g id="edge11" class="edge"><title>3&#45;&#45;4</title>
<path fill="none" stroke="black" stroke-dasharray="5,2" d="M37.4238,-68.7623C34.6944,-60.7955 29.2704,-44.9639 25.6552,-34.4116"/>
</g>
</g>
</svg>
