<?xml version="1.0" encoding="UTF-8" standalone="no"?>
<!DOCTYPE svg PUBLIC "-//W3C//DTD SVG 1.1//EN"
 "http://www.w3.org/Graphics/SVG/1.1/DTD/svg11.dtd">
<!-- Generated by graphviz version 2.38.0 (20140413.2041)
 -->
<!-- Title: %3 Pages: 1 -->
<svg width="308pt" height="374pt"
 viewBox="0.00 0.00 307.96 373.52" xmlns="http://www.w3.org/2000/svg" xmlns:xlink="http://www.w3.org/1999/xlink">
<g id="graph0" class="graph" transform="scale(1 1) rotate(0) translate(149.549 181.284)">
<title>%3</title>
<polygon fill="white" stroke="none" points="-149.549,192.241 -149.549,-181.284 158.416,-181.284 158.416,192.241 -149.549,192.241"/>
<!-- 0 -->
<g id="node1" class="node"><title>0</title>
<path fill="olivedrab" stroke="black" stroke-width="0.5" d="M2.04779,8.5876C2.04779,8.5876 48.0478,8.5876 48.0478,8.5876 48.0478,6.95178 47.9605,5.31712 47.7864,3.69059 47.6122,2.06406 47.3515,0.447975 47.0052,-1.15077 46.6588,-2.74952 46.2275,-4.32866 45.713,-5.88145 45.1984,-7.43425 44.6014,-8.95849 43.9245,-10.4477 43.2476,-11.9369 42.4917,-13.3889 41.6601,-14.7976 40.8285,-16.2062 39.9223,-17.5696 38.9455,-18.8817 37.9686,-20.1938 36.9225,-21.4529 35.8115,-22.6536 34.7005,-23.8543 33.5263,-24.9949 32.2938,-26.0704 32.2938,-26.0704 2.04779,8.5876 2.04779,8.5876"/>
<path fill="#1874cd" stroke="black" stroke-width="0.5" d="M2.04779,8.5876C2.04779,8.5876 32.2938,-26.0704 32.2938,-26.0704 31.3135,-26.926 30.2973,-27.7395 29.248,-28.5088 28.1988,-29.2782 27.1173,-30.0027 26.0066,-30.6804 24.8959,-31.3581 23.757,-31.9883 22.5928,-32.5694 21.4287,-33.1505 20.2405,-33.682 19.0313,-34.1624 17.8221,-34.6428 16.5931,-35.0716 15.3475,-35.4478 14.102,-35.824 12.841,-36.1472 11.5681,-36.4164 10.2952,-36.6857 9.01137,-36.9009 7.72018,-37.0613 6.429,-37.2218 5.13159,-37.3273 3.83146,-37.3778 2.53133,-37.4283 1.22964,-37.4235 -0.0700925,-37.3636 -1.36982,-37.3037 -2.66643,-37.1887 -3.95641,-37.0189 -5.24639,-36.849 -6.52859,-36.6245 -7.79953,-36.346 -9.07048,-36.0675 -10.329,-35.7352 -11.5718,-35.3499 -12.8146,-34.9647 -14.0405,-34.5269 -15.2461,-34.0377 -16.4518,-33.5486 -17.6361,-33.0085 -18.796,-32.4189 -19.9559,-31.8294 -21.0902,-31.1908 -22.196,-30.5051 -23.3017,-29.8194 -24.3778,-29.087 -25.4215,-28.3101 -26.4652,-27.5331 -27.4754,-26.7122 -28.4494,-25.8496 -29.4235,-24.987 -30.3605,-24.0834 -31.258,-23.1414 -32.1554,-22.1993 -33.0125,-21.2196 -33.8269,-20.2049 -34.6413,-19.1902 -35.4123,-18.1413 -36.1377,-17.0613 -36.8632,-15.9812 -37.5426,-14.8708 -38.1739,-13.7331 -38.8052,-12.5955 -39.388,-11.4315 -39.9207,-10.2444 -40.4534,-9.05736 -40.9354,-7.84822 -41.3656,-6.62027 -41.7957,-5.39232 -42.1736,-4.14667 -42.4981,-2.88669 -42.8227,-1.62671 -43.0936,-0.353519 -43.3103,0.929435 -43.5269,2.21239 -43.6889,3.50396 -43.7961,4.80065 -43.9032,6.09735 -43.9552,7.398 -43.9521,8.69911 -43.9489,10.0002 -43.8906,11.3006 -43.7772,12.5968 -43.6638,13.8929 -43.4954,15.1837 -43.2726,16.4656 -43.0498,17.7475 -42.7726,19.0193 -42.442,20.2777 -42.1113,21.5361 -41.7274,22.7799 -41.2913,24.0058 -40.8552,25.2316 -40.3673,26.4384 -39.8289,27.6229 -39.2905,28.8074 -38.7021,29.9685 -38.0652,31.1031 -37.4284,32.2377 -36.7437,33.3448 -36.013,34.4213 -35.2822,35.4979 -34.5062,36.5429 -33.6869,37.5537 -32.8676,38.5644 -32.0058,39.54 -31.1037,40.4777 -30.2017,41.4154 -29.2603,42.3144 -28.2821,43.1722 -27.3039,44.0301 -26.2897,44.8461 -25.2423,45.618 -24.1949,46.3899 -23.1152,47.117 -22.0062,47.7974 -20.8971,48.4778 -19.7597,49.1108 -18.597,49.6947 -17.4343,50.2786 -16.2473,50.813 -15.0393,51.2963 -13.8313,51.7796 -12.6033,52.2114 -11.3586,52.5906 -10.114,52.9698 -8.85386,53.2961 -7.58158,53.5684 -6.30929,53.8408 -5.02603,54.0591 -3.73524,54.2226 -2.44445,54.3862 -1.1473,54.4949 0.152707,54.5486 1.45271,54.6022 2.75441,54.6006 4.05428,54.5438 5.35416,54.4871 6.65104,54.3752 7.94143,54.2085 9.23181,54.0418 10.5145,53.8204 11.7862,53.545 13.0578,53.2695 14.3172,52.9402 15.5609,52.558 16.8046,52.1758 18.0315,51.741 19.2383,51.2548 20.4452,50.7685 21.6308,50.2313 22.7921,49.6445 23.9534,49.0578 25.0893,48.422 26.1967,47.739 27.3041,47.0559 28.382,46.3262 29.4276,45.5518 30.4731,44.7773 31.4853,43.9589 32.4614,43.0986 33.4376,42.2384 34.3768,41.3371 35.2765,40.3972 36.1763,39.4573 37.0357,38.4797 37.8526,37.467 38.6694,36.4542 39.443,35.4073 40.171,34.329 40.8991,33.2506 41.5812,32.1419 42.2153,31.0058 42.8494,29.8696 43.435,28.7071 43.9705,27.5213 44.506,26.3355 44.991,25.1276 45.4242,23.9007 45.8573,22.6738 46.2382,21.429 46.5658,20.1698 46.8934,18.9107 47.1674,17.6381 47.3871,16.3557 47.6069,15.0733 47.7721,13.7821 47.8823,12.4857 47.9926,11.1892 48.0478,9.88872 48.0478,8.5876 48.0478,8.5876 2.04779,8.5876 2.04779,8.5876"/>
<ellipse fill="none" stroke="black" cx="2.04779" cy="8.5876" rx="46" ry="46"/>
</g>
<!-- 1 -->
<g id="node2" class="node"><title>1</title>
<ellipse fill="#1874cd" stroke="black" cx="41.829" cy="-69.0007" rx="3.5" ry="3.5"/>
</g>
<!-- 0&#45;&#45;1 -->
<g id="edge1" class="edge"><title>0&#45;&#45;1</title>
<path fill="none" stroke="black" d="M23.1032,-32.4785C30.1108,-46.1459 36.9249,-59.436 40.0505,-65.532"/>
</g>
<!-- 2 -->
<g id="node3" class="node"><title>2</title>
<ellipse fill="#1874cd" stroke="black" cx="-60.6159" cy="84.125" rx="3.5" ry="3.5"/>
</g>
<!-- 0&#45;&#45;2 -->
<g id="edge2" class="edge"><title>0&#45;&#45;2</title>
<path fill="none" stroke="black" d="M-27.4491,44.1444C-40.1468,59.4507 -53.2477,75.2432 -58.3718,81.4199"/>
</g>
<!-- 3 -->
<g id="node4" class="node"><title>3</title>
<ellipse fill="#1874cd" stroke="black" cx="-84.4689" cy="-3.61451" rx="3.5" ry="3.5"/>
</g>
<!-- 0&#45;&#45;3 -->
<g id="edge3" class="edge"><title>0&#45;&#45;3</title>
<path fill="none" stroke="black" d="M-43.744,2.12924C-58.9841,-0.020196 -73.8036,-2.11029 -80.6011,-3.069"/>
</g>
<!-- 4 -->
<g id="node5" class="node"><title>4</title>
<ellipse fill="#1874cd" stroke="black" cx="-80.0696" cy="-21.8969" rx="3.5" ry="3.5"/>
</g>
<!-- 0&#45;&#45;4 -->
<g id="edge4" class="edge"><title>0&#45;&#45;4</title>
<path fill="none" stroke="black" d="M-41.4155,-7.54732C-55.8807,-12.9173 -69.9465,-18.1389 -76.3984,-20.5341"/>
</g>
<!-- 5 -->
<g id="node6" class="node"><title>5</title>
<ellipse fill="#1874cd" stroke="black" cx="22.3138" cy="-76.0383" rx="3.5" ry="3.5"/>
</g>
<!-- 0&#45;&#45;5 -->
<g id="edge5" class="edge"><title>0&#45;&#45;5</title>
<path fill="none" stroke="black" d="M12.7742,-36.2034C16.3441,-51.1105 19.8155,-65.606 21.4078,-72.255"/>
</g>
<!-- 7 -->
<g id="node8" class="node"><title>7</title>
<ellipse fill="#1874cd" stroke="black" cx="53.2178" cy="78.973" rx="3.5" ry="3.5"/>
</g>
<!-- 0&#45;&#45;7 -->
<g id="edge9" class="edge"><title>0&#45;&#45;7</title>
<path fill="none" stroke="black" d="M29.1312,45.8413C38.1449,58.2399 46.9098,70.2962 50.9302,75.8263"/>
</g>
<!-- 9 -->
<g id="node10" class="node"><title>9</title>
<ellipse fill="#1874cd" stroke="black" cx="-72.6305" cy="56.6842" rx="5" ry="5"/>
</g>
<!-- 0&#45;&#45;9 -->
<g id="edge10" class="edge"><title>0&#45;&#45;9</title>
<path fill="none" stroke="black" d="M-37.0411,33.7628C-49.4631,41.7633 -61.6264,49.5971 -68.0154,53.7119"/>
</g>
<!-- 11 -->
<g id="node12" class="node"><title>11</title>
<ellipse fill="#1874cd" stroke="black" cx="-0.521845" cy="-87.0318" rx="3.5" ry="3.5"/>
</g>
<!-- 0&#45;&#45;11 -->
<g id="edge13" class="edge"><title>0&#45;&#45;11</title>
<path fill="none" stroke="black" d="M0.808135,-37.5416C0.305039,-56.2624 -0.207301,-75.3273 -0.419824,-83.2355"/>
</g>
<!-- 13 -->
<g id="node14" class="node"><title>13</title>
<ellipse fill="#1874cd" stroke="black" cx="88.7535" cy="0.904232" rx="3.5" ry="3.5"/>
</g>
<!-- 0&#45;&#45;13 -->
<g id="edge17" class="edge"><title>0&#45;&#45;13</title>
<path fill="none" stroke="black" d="M47.9395,4.52093C63.213,3.16749 78.0648,1.8514 84.8772,1.24773"/>
</g>
<!-- 14 -->
<g id="node15" class="node"><title>14</title>
<ellipse fill="#1874cd" stroke="black" cx="-17.7565" cy="93.7381" rx="3.5" ry="3.5"/>
</g>
<!-- 0&#45;&#45;14 -->
<g id="edge18" class="edge"><title>0&#45;&#45;14</title>
<path fill="none" stroke="black" d="M-8.43426,53.6562C-11.9228,68.6558 -15.3151,83.2412 -16.8711,89.9313"/>
</g>
<!-- 15 -->
<g id="node16" class="node"><title>15</title>
<ellipse fill="#1874cd" stroke="black" cx="84.1729" cy="-20.0578" rx="3.5" ry="3.5"/>
</g>
<!-- 0&#45;&#45;15 -->
<g id="edge19" class="edge"><title>0&#45;&#45;15</title>
<path fill="none" stroke="black" d="M45.5151,-6.57388C59.9817,-11.6198 74.0489,-16.5265 80.5014,-18.7771"/>
</g>
<!-- 17 -->
<g id="node18" class="node"><title>17</title>
<ellipse fill="#1874cd" stroke="black" cx="-37.5716" cy="85.9845" rx="3.5" ry="3.5"/>
</g>
<!-- 0&#45;&#45;17 -->
<g id="edge20" class="edge"><title>0&#45;&#45;17</title>
<path fill="none" stroke="black" d="M-18.9221,49.5524C-25.9011,63.186 -32.6875,76.4433 -35.8004,82.5243"/>
</g>
<!-- 19 -->
<g id="node20" class="node"><title>19</title>
<ellipse fill="#1874cd" stroke="black" cx="-61.751" cy="-53.6669" rx="5" ry="5"/>
</g>
<!-- 0&#45;&#45;19 -->
<g id="edge23" class="edge"><title>0&#45;&#45;19</title>
<path fill="none" stroke="black" d="M-30.9729,-23.6337C-41.9186,-34.3146 -52.6882,-44.8234 -58.1179,-50.1217"/>
</g>
<!-- 20 -->
<g id="node21" class="node"><title>20</title>
<ellipse fill="#1874cd" stroke="black" cx="-80.3206" cy="37.2416" rx="3.5" ry="3.5"/>
</g>
<!-- 0&#45;&#45;20 -->
<g id="edge24" class="edge"><title>0&#45;&#45;20</title>
<path fill="none" stroke="black" d="M-41.5483,23.7537C-56.0577,28.8012 -70.1666,33.7093 -76.6382,35.9606"/>
</g>
<!-- 21 -->
<g id="node22" class="node"><title>21</title>
<ellipse fill="#1874cd" stroke="black" cx="-22.3854" cy="-74.8401" rx="3.5" ry="3.5"/>
</g>
<!-- 0&#45;&#45;21 -->
<g id="edge25" class="edge"><title>0&#45;&#45;21</title>
<path fill="none" stroke="black" d="M-10.8843,-35.5692C-15.1883,-50.2652 -19.3734,-64.5555 -21.2931,-71.1103"/>
</g>
<!-- 22 -->
<g id="node23" class="node"><title>22</title>
<ellipse fill="#1874cd" stroke="black" cx="18.1591" cy="94.7362" rx="3.5" ry="3.5"/>
</g>
<!-- 0&#45;&#45;22 -->
<g id="edge26" class="edge"><title>0&#45;&#45;22</title>
<path fill="none" stroke="black" d="M10.5281,53.9324C13.4392,69.4982 16.2761,84.6674 17.5126,91.2792"/>
</g>
<!-- 23 -->
<g id="node24" class="node"><title>23</title>
<ellipse fill="#1874cd" stroke="black" cx="82.8393" cy="45.3449" rx="5" ry="5"/>
</g>
<!-- 0&#45;&#45;23 -->
<g id="edge27" class="edge"><title>0&#45;&#45;23</title>
<path fill="none" stroke="black" d="M44.3365,27.8275C57.7755,33.9418 70.9345,39.9286 77.8464,43.0733"/>
</g>
<!-- 24 -->
<g id="node25" class="node"><title>24</title>
<ellipse fill="#1874cd" stroke="black" cx="-72.1022" cy="-37.8999" rx="3.5" ry="3.5"/>
</g>
<!-- 0&#45;&#45;24 -->
<g id="edge28" class="edge"><title>0&#45;&#45;24</title>
<path fill="none" stroke="black" d="M-37.1985,-16.0174C-50.2602,-24.2063 -62.9613,-32.1691 -68.7872,-35.8216"/>
</g>
<!-- 26 -->
<g id="node27" class="node"><title>26</title>
<ellipse fill="#1874cd" stroke="black" cx="35.5067" cy="89.4202" rx="3.5" ry="3.5"/>
</g>
<!-- 0&#45;&#45;26 -->
<g id="edge31" class="edge"><title>0&#45;&#45;26</title>
<path fill="none" stroke="black" d="M19.757,51.3708C25.6509,65.6097 31.382,79.4555 34.0109,85.8064"/>
</g>
<!-- 27 -->
<g id="node28" class="node"><title>27</title>
<ellipse fill="olivedrab" stroke="black" cx="0.512392" cy="96.1985" rx="3.5" ry="3.5"/>
</g>
<!-- 0&#45;&#45;27 -->
<g id="edge32" class="edge"><title>0&#45;&#45;27</title>
<path fill="none" stroke="black" d="M1.23962,54.7021C0.962201,70.5321 0.691845,85.9588 0.574005,92.6828"/>
</g>
<!-- 28 -->
<g id="node29" class="node"><title>28</title>
<ellipse fill="olivedrab" stroke="black" cx="58.9235" cy="-57.2835" rx="3.5" ry="3.5"/>
</g>
<!-- 0&#45;&#45;28 -->
<g id="edge33" class="edge"><title>0&#45;&#45;28</title>
<path fill="none" stroke="black" d="M32.1511,-26.2768C42.1699,-37.8802 51.9121,-49.1632 56.3808,-54.3386"/>
</g>
<!-- anon_0_6_0 -->
<g id="node30" class="node"><title>anon_0_6_0</title>
<ellipse fill="white" stroke="black" cx="70.6679" cy="73.6864" rx="2.5" ry="2.5"/>
</g>
<!-- 0&#45;&#45;anon_0_6_0 -->
<g id="edge6" class="edge"><title>0&#45;&#45;anon_0_6_0</title>
<path fill="none" stroke="black" d="M35.5538,40.3742C49.4344,53.5425 63.4906,66.8774 68.6282,71.7514"/>
</g>
<!-- anon_0_10_0 -->
<g id="node32" class="node"><title>anon_0_10_0</title>
<ellipse fill="white" stroke="black" cx="91.5487" cy="22.2581" rx="2.5" ry="2.5"/>
</g>
<!-- 0&#45;&#45;anon_0_10_0 -->
<g id="edge11" class="edge"><title>0&#45;&#45;anon_0_10_0</title>
<path fill="none" stroke="black" d="M47.5848,15.543C65.2037,18.2341 82.66,20.9004 89.0246,21.8725"/>
</g>
<!-- anon_0_12_0 -->
<g id="node33" class="node"><title>anon_0_12_0</title>
<ellipse fill="white" stroke="black" cx="79.9351" cy="-44.4174" rx="2.5" ry="2.5"/>
</g>
<!-- 0&#45;&#45;anon_0_12_0 -->
<g id="edge14" class="edge"><title>0&#45;&#45;anon_0_12_0</title>
<path fill="none" stroke="black" d="M40.0788,-17.2938C55.834,-28.0158 71.7885,-38.8734 77.6199,-42.8419"/>
</g>
<!-- anon_0_18_0 -->
<g id="node35" class="node"><title>anon_0_18_0</title>
<ellipse fill="white" stroke="black" cx="-89.0315" cy="12.8918" rx="2.5" ry="2.5"/>
</g>
<!-- 0&#45;&#45;anon_0_18_0 -->
<g id="edge21" class="edge"><title>0&#45;&#45;anon_0_18_0</title>
<path fill="none" stroke="black" d="M-44.0255,10.7649C-62.0274,11.6156 -79.918,12.4611 -86.4434,12.7695"/>
</g>
<!-- anon_0_25_0 -->
<g id="node36" class="node"><title>anon_0_25_0</title>
<ellipse fill="white" stroke="black" cx="-49.9363" cy="-66.0027" rx="2.5" ry="2.5"/>
</g>
<!-- 0&#45;&#45;anon_0_25_0 -->
<g id="edge29" class="edge"><title>0&#45;&#45;anon_0_25_0</title>
<path fill="none" stroke="black" d="M-24.5534,-29.5816C-34.7453,-44.2056 -44.8122,-58.6503 -48.4814,-63.9151"/>
</g>
<!-- anon_2_8_0 -->
<g id="node37" class="node"><title>anon_2_8_0</title>
<ellipse fill="white" stroke="black" cx="-88.5033" cy="118.667" rx="2.5" ry="2.5"/>
</g>
<!-- 2&#45;&#45;anon_2_8_0 -->
<g id="edge34" class="edge"><title>2&#45;&#45;anon_2_8_0</title>
<path fill="none" stroke="black" d="M-63.1894,87.3127C-68.7988,94.2605 -82.004,110.617 -86.7588,116.506"/>
</g>
<!-- 6 -->
<g id="node7" class="node"><title>6</title>
<ellipse fill="#1874cd" stroke="black" cx="130.454" cy="135.118" rx="3.5" ry="3.5"/>
</g>
<!-- 8 -->
<g id="node9" class="node"><title>8</title>
<ellipse fill="#1874cd" stroke="black" cx="-142.049" cy="184.741" rx="3.5" ry="3.5"/>
</g>
<!-- 10 -->
<g id="node11" class="node"><title>10</title>
<ellipse fill="#1874cd" stroke="black" cx="134.268" cy="27.9619" rx="3.5" ry="3.5"/>
</g>
<!-- anon_11_16_0 -->
<g id="node39" class="node"><title>anon_11_16_0</title>
<ellipse fill="white" stroke="black" cx="-1.92669" cy="-130.887" rx="2.5" ry="2.5"/>
</g>
<!-- 11&#45;&#45;anon_11_16_0 -->
<g id="edge37" class="edge"><title>11&#45;&#45;anon_11_16_0</title>
<path fill="none" stroke="black" d="M-0.641621,-90.7709C-0.917652,-99.3877 -1.59348,-120.485 -1.83721,-128.093"/>
</g>
<!-- 12 -->
<g id="node13" class="node"><title>12</title>
<ellipse fill="#1874cd" stroke="black" cx="150.916" cy="-92.348" rx="3.5" ry="3.5"/>
</g>
<!-- 16 -->
<g id="node17" class="node"><title>16</title>
<ellipse fill="#1874cd" stroke="black" cx="-3.75331" cy="-173.784" rx="3.5" ry="3.5"/>
</g>
<!-- 18 -->
<g id="node19" class="node"><title>18</title>
<ellipse fill="#1874cd" stroke="black" cx="-132.185" cy="12.1798" rx="3.5" ry="3.5"/>
</g>
<!-- 25 -->
<g id="node26" class="node"><title>25</title>
<ellipse fill="#1874cd" stroke="black" cx="-77.3728" cy="-99.3074" rx="3.5" ry="3.5"/>
</g>
<!-- anon_0_6_1 -->
<g id="node31" class="node"><title>anon_0_6_1</title>
<ellipse fill="white" stroke="black" cx="100.518" cy="104.307" rx="2.5" ry="2.5"/>
</g>
<!-- anon_0_6_0&#45;&#45;anon_0_6_1 -->
<g id="edge7" class="edge"><title>anon_0_6_0&#45;&#45;anon_0_6_1</title>
<path fill="none" stroke="black" d="M72.6265,75.6955C78.0222,81.2304 93.0629,96.6589 98.5134,102.25"/>
</g>
<!-- anon_0_6_1&#45;&#45;6 -->
<g id="edge8" class="edge"><title>anon_0_6_1&#45;&#45;6</title>
<path fill="none" stroke="black" d="M102.483,106.328C107.686,111.684 121.831,126.243 127.771,132.357"/>
</g>
<!-- anon_0_10_0&#45;&#45;10 -->
<g id="edge12" class="edge"><title>anon_0_10_0&#45;&#45;10</title>
<path fill="none" stroke="black" d="M94.093,22.5978C101.35,23.5667 122.168,26.3464 130.628,27.4759"/>
</g>
<!-- anon_0_12_1 -->
<g id="node34" class="node"><title>anon_0_12_1</title>
<ellipse fill="white" stroke="black" cx="115.278" cy="-68.3964" rx="2.5" ry="2.5"/>
</g>
<!-- anon_0_12_0&#45;&#45;anon_0_12_1 -->
<g id="edge15" class="edge"><title>anon_0_12_0&#45;&#45;anon_0_12_1</title>
<path fill="none" stroke="black" d="M82.2541,-45.9907C88.6427,-50.3252 106.451,-62.4074 112.905,-66.7859"/>
</g>
<!-- anon_0_12_1&#45;&#45;12 -->
<g id="edge16" class="edge"><title>anon_0_12_1&#45;&#45;12</title>
<path fill="none" stroke="black" d="M117.617,-69.968C123.811,-74.1309 140.651,-85.4489 147.722,-90.2013"/>
</g>
<!-- anon_0_18_0&#45;&#45;18 -->
<g id="edge22" class="edge"><title>anon_0_18_0&#45;&#45;18</title>
<path fill="none" stroke="black" d="M-91.6017,12.8494C-98.9322,12.7284 -119.962,12.3814 -128.508,12.2404"/>
</g>
<!-- anon_0_25_0&#45;&#45;25 -->
<g id="edge30" class="edge"><title>anon_0_25_0&#45;&#45;25</title>
<path fill="none" stroke="black" d="M-51.7365,-68.1879C-56.5051,-73.9765 -69.4699,-89.7143 -74.9138,-96.3225"/>
</g>
<!-- anon_2_8_1 -->
<g id="node38" class="node"><title>anon_2_8_1</title>
<ellipse fill="white" stroke="black" cx="-115.113" cy="151.579" rx="2.5" ry="2.5"/>
</g>
<!-- anon_2_8_0&#45;&#45;anon_2_8_1 -->
<g id="edge35" class="edge"><title>anon_2_8_0&#45;&#45;anon_2_8_1</title>
<path fill="none" stroke="black" d="M-90.2492,120.826C-95.0591,126.775 -108.467,143.359 -113.325,149.369"/>
</g>
<!-- anon_2_8_1&#45;&#45;8 -->
<g id="edge36" class="edge"><title>anon_2_8_1&#45;&#45;8</title>
<path fill="none" stroke="black" d="M-116.88,153.755C-121.562,159.519 -134.29,175.189 -139.635,181.769"/>
</g>
<!-- anon_11_16_0&#45;&#45;16 -->
<g id="edge38" class="edge"><title>anon_11_16_0&#45;&#45;16</title>
<path fill="none" stroke="black" d="M-2.03548,-133.442C-2.34577,-140.729 -3.23594,-161.634 -3.59767,-170.129"/>
</g>
</g>
</svg>
