<?xml version="1.0" encoding="UTF-8" standalone="no"?>
<!DOCTYPE svg PUBLIC "-//W3C//DTD SVG 1.1//EN"
 "http://www.w3.org/Graphics/SVG/1.1/DTD/svg11.dtd">
<!-- Generated by graphviz version 2.38.0 (20140413.2041)
 -->
<!-- Title: %3 Pages: 1 -->
<svg width="239pt" height="195pt"
 viewBox="0.00 0.00 239.01 195.35" xmlns="http://www.w3.org/2000/svg" xmlns:xlink="http://www.w3.org/1999/xlink">
<g id="graph0" class="graph" transform="scale(1 1) rotate(0) translate(111.829 106.503)">
<title>%3</title>
<polygon fill="white" stroke="none" points="-111.829,88.8427 -111.829,-106.503 127.178,-106.503 127.178,88.8427 -111.829,88.8427"/>
<!-- 0 -->
<g id="node1" class="node"><title>0</title>
<ellipse fill="#1874cd" stroke="black" cx="-46.456" cy="-39.4153" rx="15" ry="15"/>
</g>
<!-- 4 -->
<g id="node5" class="node"><title>4</title>
<ellipse fill="#1874cd" stroke="black" cx="-54.1915" cy="-100.003" rx="2.5" ry="2.5"/>
</g>
<!-- 0&#45;&gt;4 -->
<g id="edge4" class="edge"><title>0&#45;&gt;4</title>
<path fill="none" stroke="black" d="M-48.3682,-54.392C-50.2293,-68.9697 -52.9104,-89.9691 -53.8504,-97.3314"/>
</g>
<!-- 5 -->
<g id="node6" class="node"><title>5</title>
<ellipse fill="#1874cd" stroke="black" cx="-105.329" cy="-52.968" rx="2.5" ry="2.5"/>
</g>
<!-- 0&#45;&gt;5 -->
<g id="edge5" class="edge"><title>0&#45;&gt;5</title>
<path fill="none" stroke="black" d="M-61.312,-42.8352C-75.4825,-46.0973 -95.6837,-50.7477 -102.761,-52.3769"/>
</g>
<!-- anon_0_2_0 -->
<g id="node10" class="node"><title>anon_0_2_0</title>
<ellipse fill="white" stroke="black" cx="-61.0462" cy="20.8612" rx="1" ry="1"/>
</g>
<!-- 0&#45;&gt;anon_0_2_0 -->
<g id="edge9" class="edge"><title>0&#45;&gt;anon_0_2_0</title>
<path fill="none" stroke="black" stroke-dasharray="5,2" d="M-49.9879,-24.824C-53.0282,-12.2635 -57.2694,5.25811 -59.5131,14.5276"/>
<polygon fill="black" stroke="black" points="-57.8709,15.1819 -60.7481,19.6299 -61.2726,14.3585 -57.8709,15.1819"/>
<text text-anchor="middle" x="-68.8706" y="-5.18633" font-family="monospace" font-size="8.00">G317S</text>
</g>
<!-- 1 -->
<g id="node2" class="node"><title>1</title>
<ellipse fill="#1874cd" stroke="black" cx="71.725" cy="19.8344" rx="6" ry="6"/>
</g>
<!-- 3 -->
<g id="node4" class="node"><title>3</title>
<ellipse fill="#1874cd" stroke="black" cx="120.678" cy="21.3622" rx="2.5" ry="2.5"/>
</g>
<!-- 1&#45;&gt;3 -->
<g id="edge8" class="edge"><title>1&#45;&gt;3</title>
<path fill="none" stroke="black" d="M77.7276,20.0218C88.3484,20.3533 110.064,21.031 117.834,21.2735"/>
</g>
<!-- anon_0_1_1 -->
<g id="node8" class="node"><title>anon_0_1_1</title>
<ellipse fill="white" stroke="black" cx="51.3271" cy="-25.6311" rx="1" ry="1"/>
</g>
<!-- 1&#45;&gt;anon_0_1_1 -->
<g id="edge3" class="edge"><title>1&#45;&gt;anon_0_1_1</title>
<path fill="none" stroke="black" d="M69.2238,14.2595C65.3515,5.62825 57.9395,-10.8924 53.9781,-19.7222"/>
<polygon fill="black" stroke="black" points="52.3228,-19.1367 51.8727,-24.415 55.5161,-20.5694 52.3228,-19.1367"/>
<text text-anchor="middle" x="44.5735" y="-7.62157" font-family="monospace" font-size="8.00">I1940T</text>
</g>
<!-- anon_1_2_0 -->
<g id="node9" class="node"><title>anon_1_2_0</title>
<ellipse fill="white" stroke="black" cx="48.8457" cy="64.4479" rx="1" ry="1"/>
</g>
<!-- 1&#45;&gt;anon_1_2_0 -->
<g id="edge6" class="edge"><title>1&#45;&gt;anon_1_2_0</title>
<path fill="none" stroke="black" d="M68.9195,25.3049C64.5761,33.7744 56.2625,49.9855 51.8191,58.6498"/>
<polygon fill="black" stroke="black" points="53.2965,59.6042 49.4576,63.2546 50.1821,58.007 53.2965,59.6042"/>
<text text-anchor="middle" x="45.7169" y="41.6246" font-family="monospace" font-size="8.00">G317S</text>
</g>
<!-- 2 -->
<g id="node3" class="node"><title>2</title>
<ellipse fill="#1874cd" stroke="black" cx="2.15816" cy="78.8427" rx="6" ry="6"/>
</g>
<!-- 2&#45;&gt;anon_1_2_0 -->
<g id="edge7" class="edge"><title>2&#45;&gt;anon_1_2_0</title>
<path fill="none" stroke="black" d="M8.26174,76.9608C17.1723,74.2135 33.6548,69.1316 42.629,66.3647"/>
<polygon fill="black" stroke="black" points="42.3272,64.6265 47.6209,64.8256 43.3585,67.9711 42.3272,64.6265"/>
<text text-anchor="middle" x="12.0983" y="68.2448" font-family="monospace" font-size="8.00">S1683I</text>
</g>
<!-- anon_0_2_1 -->
<g id="node11" class="node"><title>anon_0_2_1</title>
<ellipse fill="white" stroke="black" cx="-42.4822" cy="58.7672" rx="1" ry="1"/>
</g>
<!-- 2&#45;&gt;anon_0_2_1 -->
<g id="edge11" class="edge"><title>2&#45;&gt;anon_0_2_1</title>
<path fill="none" stroke="black" stroke-dasharray="5,2" d="M-3.31562,76.381C-11.7902,72.5699 -28.011,65.2751 -36.6806,61.3762"/>
<polygon fill="black" stroke="black" points="-37.4459,62.951 -41.2882,59.3041 -36.0103,59.7589 -37.4459,62.951"/>
<text text-anchor="middle" x="-38.2467" y="74.2674" font-family="monospace" font-size="8.00">I1940T</text>
</g>
<!-- anon_0_1_0 -->
<g id="node7" class="node"><title>anon_0_1_0</title>
<ellipse fill="white" stroke="black" cx="14.7707" cy="-46.0983" rx="1" ry="1"/>
</g>
<!-- anon_0_1_0&#45;&gt;0 -->
<g id="edge1" class="edge"><title>anon_0_1_0&#45;&gt;0</title>
<path fill="none" stroke="black" d="M13.708,-45.9823C8.97142,-45.4653 -10.6659,-43.3218 -26.2347,-41.6224"/>
<polygon fill="black" stroke="black" points="-26.1708,-39.8691 -31.3312,-41.0662 -26.5506,-43.3485 -26.1708,-39.8691"/>
<text text-anchor="middle" x="4.74631" y="-37.1305" font-family="monospace" font-size="8.00">D466H</text>
</g>
<!-- anon_0_1_0&#45;&gt;anon_0_1_1 -->
<g id="edge2" class="edge"><title>anon_0_1_0&#45;&gt;anon_0_1_1</title>
<path fill="none" stroke="black" d="M15.6743,-45.5923C19.7534,-43.3085 36.6408,-33.8536 45.6327,-28.8193"/>
<polygon fill="black" stroke="black" points="46.5182,-30.3292 50.026,-26.3595 44.8083,-27.2752 46.5182,-30.3292"/>
<text text-anchor="middle" x="48.7151" y="-38.6516" font-family="monospace" font-size="8.00">S1683I</text>
</g>
<!-- anon_0_2_1&#45;&gt;anon_0_2_0 -->
<g id="edge10" class="edge"><title>anon_0_2_1&#45;&gt;anon_0_2_0</title>
<path fill="none" stroke="black" stroke-dasharray="5,2" d="M-42.9411,57.8302C-45.0125,53.6005 -53.5882,36.0897 -58.1545,26.7658"/>
<polygon fill="black" stroke="black" points="-59.7579,27.4705 -60.3855,22.2103 -56.6146,25.931 -59.7579,27.4705"/>
<text text-anchor="middle" x="-65.0947" y="37.5603" font-family="monospace" font-size="8.00">D466H</text>
</g>
</g>
</svg>
