<?xml version="1.0" encoding="UTF-8" standalone="no"?>
<!DOCTYPE svg PUBLIC "-//W3C//DTD SVG 1.1//EN"
 "http://www.w3.org/Graphics/SVG/1.1/DTD/svg11.dtd">
<!-- Generated by graphviz version 2.38.0 (20140413.2041)
 -->
<!-- Title: %3 Pages: 1 -->
<svg width="531pt" height="512pt"
 viewBox="0.00 0.00 531.42 512.50" xmlns="http://www.w3.org/2000/svg" xmlns:xlink="http://www.w3.org/1999/xlink">
<g id="graph0" class="graph" transform="scale(1 1) rotate(0) translate(183.296 278.033)">
<title>%3</title>
<polygon fill="white" stroke="none" points="-183.296,234.463 -183.296,-278.033 348.119,-278.033 348.119,234.463 -183.296,234.463"/>
<!-- 0 -->
<g id="node1" class="node"><title>0</title>
<path fill="deepskyblue" stroke="black" stroke-width="0.5" d="M61.6196,-195.216C61.6196,-195.216 87.1196,-195.216 87.1196,-195.216 87.1196,-196.519 87.0198,-197.819 86.8211,-199.106 86.6225,-200.393 86.3254,-201.664 85.9327,-202.905 85.54,-204.147 85.0527,-205.357 84.4751,-206.524 83.8975,-207.692 83.2313,-208.813 82.4824,-209.879 81.7335,-210.944 80.9041,-211.951 80.0014,-212.89 79.0987,-213.829 78.1254,-214.697 77.09,-215.487 76.0547,-216.277 74.9603,-216.987 73.8165,-217.61 72.6727,-218.233 71.4829,-218.767 70.2574,-219.209 69.032,-219.65 67.7746,-219.996 66.4962,-220.246 65.2178,-220.495 63.9222,-220.645 62.6208,-220.696 61.3193,-220.748 60.0159,-220.699 58.7219,-220.551 57.4279,-220.403 56.1471,-220.156 54.8909,-219.812 53.6346,-219.469 52.4065,-219.029 51.2174,-218.498 50.0282,-217.967 48.8815,-217.345 47.7874,-216.639 46.6932,-215.932 45.6548,-215.143 44.6812,-214.278 43.7076,-213.412 42.8017,-212.474 41.9715,-211.47 41.1413,-210.467 40.3892,-209.401 39.7218,-208.283 39.0545,-207.164 38.4737,-205.996 37.9848,-204.789 37.4958,-203.582 37.1001,-202.339 36.801,-201.072 36.5019,-199.804 36.3004,-198.515 36.1982,-197.217 36.096,-195.918 36.0935,-194.614 36.1906,-193.315 36.2877,-192.016 36.4841,-190.727 36.7782,-189.458 37.0723,-188.189 37.4632,-186.945 37.9474,-185.736 38.4316,-184.527 39.0077,-183.357 39.6707,-182.236 40.3337,-181.115 41.0816,-180.046 41.9079,-179.039 42.7341,-178.032 43.6363,-177.09 44.6065,-176.221 45.5766,-175.352 46.612,-174.559 47.7033,-173.848 48.7947,-173.137 49.939,-172.511 51.126,-171.975 52.313,-171.439 53.5394,-170.995 54.7943,-170.647 56.0492,-170.298 57.329,-170.046 58.6224,-169.893 59.9158,-169.74 61.2191,-169.686 62.5207,-169.732 63.8223,-169.778 65.1185,-169.924 66.3978,-170.168 66.3978,-170.168 61.6196,-195.216 61.6196,-195.216"/>
<path fill="#98f5ff" stroke="black" stroke-width="0.5" d="M61.6196,-195.216C61.6196,-195.216 66.3978,-170.168 66.3978,-170.168 67.1193,-170.305 67.8345,-170.474 68.5414,-170.674 69.2482,-170.873 69.9462,-171.103 70.6332,-171.362 71.3203,-171.622 71.9958,-171.911 72.6579,-172.229 73.32,-172.547 73.968,-172.893 74.6002,-173.267 75.2324,-173.641 75.8481,-174.042 76.4457,-174.469 77.0432,-174.896 77.6221,-175.349 78.1805,-175.826 78.739,-176.303 79.2767,-176.804 79.7919,-177.327 80.3072,-177.851 80.7995,-178.396 81.2677,-178.962 81.7359,-179.528 82.1794,-180.114 82.597,-180.718 83.0145,-181.322 83.4058,-181.944 83.7697,-182.582 84.1336,-183.22 84.4698,-183.873 84.7773,-184.54 85.0848,-185.207 85.3633,-185.887 85.6121,-186.578 85.8609,-187.269 86.0797,-187.971 86.2679,-188.681 86.4562,-189.391 86.6136,-190.108 86.7399,-190.832 86.8662,-191.555 86.9611,-192.284 87.0245,-193.016 87.0879,-193.748 87.1196,-194.482 87.1196,-195.216 87.1196,-195.216 61.6196,-195.216 61.6196,-195.216"/>
<ellipse fill="none" stroke="black" cx="61.6196" cy="-195.216" rx="25.5" ry="25.5"/>
<text text-anchor="middle" x="61.6196" y="-192.716" font-family="Times,serif" font-size="10.00">0</text>
</g>
<!-- 6 -->
<g id="node7" class="node"><title>6</title>
<path fill="deepskyblue" stroke="black" stroke-width="0.5" d="M8.37286,-79.7395C8.37286,-79.7395 42.8729,-79.7395 42.8729,-79.7395 42.8729,-80.9052 42.8138,-82.0701 42.6958,-83.2298 42.5779,-84.3895 42.4013,-85.5425 42.1666,-86.6843 41.932,-87.8261 41.6396,-88.9553 41.2907,-90.0675 40.9417,-91.1797 40.5366,-92.2736 40.0769,-93.3448 40.0769,-93.3448 8.37286,-79.7395 8.37286,-79.7395"/>
<path fill="#ff3030" stroke="black" stroke-width="0.5" d="M8.37286,-79.7395C8.37286,-79.7395 40.0769,-93.3448 40.0769,-93.3448 39.4639,-94.7733 38.755,-96.1587 37.9551,-97.4917 37.1553,-98.8246 36.2662,-100.102 35.2941,-101.315 35.2941,-101.315 8.37286,-79.7395 8.37286,-79.7395"/>
<path fill="brown" stroke="black" stroke-width="0.5" d="M8.37286,-79.7395C8.37286,-79.7395 35.2941,-101.315 35.2941,-101.315 34.6638,-102.101 33.9994,-102.86 33.3028,-103.588 32.6062,-104.316 31.878,-105.013 31.1203,-105.678 30.3626,-106.342 29.5762,-106.973 28.7632,-107.569 27.9503,-108.165 27.1117,-108.724 26.2498,-109.247 25.3878,-109.769 24.5035,-110.253 23.5991,-110.698 22.6948,-111.142 21.7715,-111.547 20.8317,-111.911 19.8919,-112.275 18.9367,-112.598 17.9687,-112.878 17.0007,-113.158 16.0208,-113.396 15.032,-113.591 14.0432,-113.785 13.0463,-113.936 12.0443,-114.044 11.0422,-114.151 10.036,-114.214 9.02837,-114.233 8.02078,-114.252 7.01284,-114.227 6.00744,-114.158 5.00203,-114.089 4.00014,-113.976 3.00465,-113.819 2.00915,-113.662 1.021,-113.462 0.0430435,-113.219 -0.934913,-112.975 -1.90174,-112.689 -2.85465,-112.361 -3.80757,-112.033 -4.74565,-111.664 -5.66621,-111.254 -6.58677,-110.844 -7.48892,-110.394 -8.37006,-109.904 -9.2512,-109.415 -10.1105,-108.888 -10.9455,-108.324 -11.7804,-107.759 -12.5903,-107.159 -13.3726,-106.524 -14.155,-105.888 -14.9092,-105.219 -15.633,-104.518 -16.3568,-103.817 -17.0495,-103.084 -17.7092,-102.322 -18.3688,-101.56 -18.9948,-100.77 -19.5852,-99.9532 -20.1757,-99.1365 -20.7301,-98.2944 -21.2468,-97.4292 -21.7636,-96.5639 -22.2421,-95.6765 -22.6812,-94.7694 -23.1202,-93.8623 -23.5193,-92.9364 -23.8772,-91.9943 -24.2352,-91.0523 -24.5517,-90.095 -24.8259,-89.1252 -25.1001,-88.1555 -25.3316,-87.1741 -25.5199,-86.1841 -25.7081,-85.1941 -25.8529,-84.1963 -25.9538,-83.1936 -26.0547,-82.1909 -26.1116,-81.1842 -26.1244,-80.1765 -26.1371,-79.1688 -26.1057,-78.1611 -26.0303,-77.1561 -25.9548,-76.1512 -25.8354,-75.15 -25.6723,-74.1555 -25.5091,-73.1611 -25.3025,-72.1742 -25.053,-71.1978 -24.8035,-70.2214 -24.5113,-69.2564 -24.1773,-68.3056 -23.8434,-67.3548 -23.4679,-66.419 -23.0519,-65.5011 -22.636,-64.5832 -22.1801,-63.6839 -21.6855,-62.8059 -21.1908,-61.9278 -20.6579,-61.0719 -20.0883,-60.2405 -19.5188,-59.4091 -18.913,-58.6031 -18.2729,-57.8248 -17.6327,-57.0464 -16.9588,-56.2965 -16.253,-55.5772 -15.5472,-54.8578 -14.8102,-54.1698 -14.0442,-53.5149 -13.2781,-52.8601 -12.4838,-52.2392 -11.6634,-51.6539 -10.843,-51.0686 -9.99732,-50.5196 -9.12885,-50.0084 -8.26038,-49.4971 -7.36993,-49.0242 -6.46005,-48.5909 -5.55018,-48.1576 -4.62175,-47.7644 -3.67745,-47.4124 -2.73315,-47.0604 -1.77388,-46.75 -0.802405,-46.4819 0.169074,-46.2139 1.15183,-45.9886 2.14304,-45.8066 3.13424,-45.6246 4.13294,-45.4862 5.13627,-45.3916 6.1396,-45.2971 7.14659,-45.2466 8.15434,-45.2402 9.16209,-45.2338 10.1696,-45.2716 11.1741,-45.3534 12.1785,-45.4352 13.1789,-45.561 14.1723,-45.7304 15.1658,-45.8998 16.1513,-46.1127 17.1261,-46.3684 18.1009,-46.6241 19.064,-46.9224 20.0127,-47.2624 20.9614,-47.6024 21.8947,-47.9838 22.81,-48.4055 23.7253,-48.8272 24.6217,-49.2888 25.4965,-49.789 26.3714,-50.2892 27.224,-50.8275 28.0517,-51.4024 28.8795,-51.9772 29.6816,-52.588 30.4559,-53.2331 31.2302,-53.8782 31.9758,-54.5568 32.6907,-55.2672 33.4055,-55.9775 34.0889,-56.7188 34.7389,-57.489 35.3888,-58.2592 36.0047,-59.0575 36.5848,-59.8816 37.1648,-60.7056 37.7085,-61.5548 38.2142,-62.4264 38.72,-63.2981 39.1873,-64.1916 39.6148,-65.1042 40.0423,-66.0168 40.4296,-66.9477 40.7756,-67.8942 41.1216,-68.8407 41.426,-69.8019 41.6879,-70.7751 41.9497,-71.7482 42.1688,-72.7324 42.3445,-73.7247 42.5202,-74.7171 42.6523,-75.7166 42.7405,-76.7205 42.8287,-77.7244 42.8729,-78.7317 42.8729,-79.7395 42.8729,-79.7395 8.37286,-79.7395 8.37286,-79.7395"/>
<ellipse fill="none" stroke="black" cx="8.37286" cy="-79.7395" rx="34.5" ry="34.5"/>
<text text-anchor="middle" x="8.37286" y="-77.2395" font-family="Times,serif" font-size="10.00">6</text>
</g>
<!-- 0&#45;&#45;6 -->
<g id="edge1" class="edge"><title>0&#45;&#45;6</title>
<path fill="none" stroke="black" d="M50.8443,-171.848C42.8218,-154.449 31.7807,-130.504 22.9668,-111.389"/>
</g>
<!-- 22 -->
<g id="node23" class="node"><title>22</title>
<ellipse fill="deepskyblue" stroke="black" cx="118.854" cy="-237.299" rx="3.5" ry="3.5"/>
<text text-anchor="middle" x="118.854" y="-234.799" font-family="Times,serif" font-size="10.00">22</text>
</g>
<!-- 0&#45;&#45;22 -->
<g id="edge2" class="edge"><title>0&#45;&#45;22</title>
<path fill="none" stroke="black" d="M82.2825,-210.409C94.8342,-219.638 109.604,-230.497 115.837,-235.081"/>
</g>
<!-- 24 -->
<g id="node25" class="node"><title>24</title>
<ellipse fill="deepskyblue" stroke="black" cx="46.9543" cy="-265.198" rx="3.5" ry="3.5"/>
<text text-anchor="middle" x="46.9543" y="-262.698" font-family="Times,serif" font-size="10.00">24</text>
</g>
<!-- 0&#45;&#45;24 -->
<g id="edge3" class="edge"><title>0&#45;&#45;24</title>
<path fill="none" stroke="black" d="M56.3251,-220.481C53.1089,-235.829 49.3245,-253.888 47.7273,-261.51"/>
</g>
<!-- 58 -->
<g id="node59" class="node"><title>58</title>
<ellipse fill="black" stroke="black" cx="86.2883" cy="-261.002" rx="3.5" ry="3.5"/>
<text text-anchor="middle" x="86.2883" y="-258.502" font-family="Times,serif" font-size="10.00">58</text>
</g>
<!-- 0&#45;&#45;58 -->
<g id="edge4" class="edge"><title>0&#45;&#45;58</title>
<path fill="none" stroke="black" d="M70.6652,-219.339C76.0556,-233.713 82.3499,-250.499 85.0043,-257.577"/>
</g>
<!-- 1 -->
<g id="node2" class="node"><title>1</title>
<ellipse fill="deepskyblue" stroke="black" cx="-79.8628" cy="104.208" rx="3.5" ry="3.5"/>
<text text-anchor="middle" x="-79.8628" y="106.708" font-family="Times,serif" font-size="10.00">1</text>
</g>
<!-- 3 -->
<g id="node4" class="node"><title>3</title>
<path fill="deepskyblue" stroke="black" stroke-width="0.5" d="M0.27873,99.7387C0.27873,99.7387 34.2787,99.7387 34.2787,99.7387 34.2787,98.3536 34.1941,96.9699 34.0253,95.5951 33.8565,94.2204 33.6039,92.8573 33.2688,91.5134 32.9337,90.1694 32.5168,88.8473 32.0205,87.5542 31.5241,86.2611 30.9492,84.9996 30.2989,83.7767 29.6487,82.5537 28.9243,81.3717 28.1299,80.2371 27.3355,79.1025 26.4724,78.0176 25.5457,76.9883 24.6189,75.959 23.6301,74.9873 22.5847,74.0786 21.5394,73.1699 20.4396,72.3259 19.2913,71.5514 18.143,70.7769 16.9485,70.0733 15.7144,69.4445 14.4803,68.8157 13.2089,68.2629 11.9074,67.7892 10.6059,67.3154 9.27662,66.9217 7.92706,66.6101 6.5775,66.2985 5.21017,66.0697 3.8327,65.925 2.45522,65.7802 1.07019,65.7197 -0.314654,65.7439 -1.6995,65.7681 -3.08158,65.8768 -4.45316,66.0696 -5.82474,66.2624 -7.18326,66.5387 -8.52112,66.8972 -9.85898,67.2557 -11.1737,67.6956 -12.4579,68.2145 -12.4579,68.2145 0.27873,99.7387 0.27873,99.7387"/>
<path fill="#ff3030" stroke="black" stroke-width="0.5" d="M0.27873,99.7387C0.27873,99.7387 -12.4579,68.2145 -12.4579,68.2145 -13.8798,68.7889 -15.2612,69.459 -16.5926,70.2199 -17.9241,70.9809 -19.2025,71.8311 -20.4192,72.7647 -21.6358,73.6983 -22.7879,74.7131 -23.8676,75.8022 -24.9472,76.8913 -25.952,78.0522 -26.8749,79.277 -27.7978,80.5018 -28.6368,81.7876 -29.3861,83.1256 -30.1355,84.4636 -30.7934,85.8508 -31.3555,87.2777 -31.9175,88.7045 -32.3824,90.1678 -32.7469,91.6574 -33.1114,93.147 -33.3747,94.6596 -33.535,96.1847 -33.6953,97.7099 -33.7522,99.2442 -33.7054,100.777 -33.6586,102.31 -33.5081,103.838 -33.255,105.35 -33.0019,106.863 -32.6467,108.357 -32.1919,109.821 -31.7372,111.286 -31.1838,112.718 -30.5357,114.108 -29.8876,115.498 -29.1462,116.842 -28.3166,118.132 -27.487,119.422 -26.571,120.654 -25.5751,121.82 -24.5791,122.986 -23.5054,124.083 -22.3612,125.105 -21.2171,126.126 -20.0052,127.068 -18.7338,127.926 -18.7338,127.926 0.27873,99.7387 0.27873,99.7387"/>
<path fill="#98f5ff" stroke="black" stroke-width="0.5" d="M0.27873,99.7387C0.27873,99.7387 -18.7338,127.926 -18.7338,127.926 -17.9138,128.479 -17.0699,128.996 -16.2048,129.476 -15.3396,129.955 -14.454,130.397 -13.5503,130.799 -12.6467,131.202 -11.7259,131.564 -10.7906,131.886 -9.8553,132.208 -8.9064,132.489 -7.94661,132.729 -7.94661,132.729 0.27873,99.7387 0.27873,99.7387"/>
<path fill="#1874cd" stroke="black" stroke-width="0.5" d="M0.27873,99.7387C0.27873,99.7387 -7.94661,132.729 -7.94661,132.729 -6.69874,133.04 -5.43422,133.28 -4.15916,133.448 -2.88409,133.616 -1.60052,133.711 -0.314648,133.734 0.971227,133.756 2.25734,133.705 3.53749,133.582 4.81764,133.459 6.08976,133.263 7.34773,132.996 8.6057,132.728 9.84748,132.39 11.0671,131.982 12.2867,131.574 13.4822,131.097 14.6478,130.553 15.8133,130.01 16.9471,129.4 18.0437,128.728 19.1402,128.056 20.1978,127.323 21.2112,126.531 22.2247,125.739 23.1924,124.891 24.1096,123.989 25.0269,123.088 25.8923,122.135 26.7017,121.136 27.511,120.136 28.263,119.092 28.954,118.007 29.645,116.922 30.274,115.799 30.8377,114.643 31.4015,113.487 31.8992,112.3 32.3285,111.088 32.7578,109.876 33.118,108.64 33.4073,107.387 33.6966,106.134 33.9146,104.865 34.0602,103.588 34.2058,102.31 34.2787,101.025 34.2787,99.7387 34.2787,99.7387 0.27873,99.7387 0.27873,99.7387"/>
<ellipse fill="none" stroke="black" cx="0.27873" cy="99.7387" rx="34" ry="34"/>
<text text-anchor="middle" x="0.27873" y="102.239" font-family="Times,serif" font-size="10.00">3</text>
</g>
<!-- 1&#45;&#45;3 -->
<g id="edge5" class="edge"><title>1&#45;&#45;3</title>
<path fill="none" stroke="black" d="M-75.9974,103.992C-68.3058,103.563 -50.397,102.565 -33.8647,101.643"/>
</g>
<!-- 2 -->
<g id="node3" class="node"><title>2</title>
<ellipse fill="#ff3030" stroke="black" cx="-72.8701" cy="-132.868" rx="14" ry="14"/>
<text text-anchor="middle" x="-72.8701" y="-130.368" font-family="Times,serif" font-size="10.00">2</text>
</g>
<!-- 2&#45;&#45;6 -->
<g id="edge6" class="edge"><title>2&#45;&#45;6</title>
<path fill="none" stroke="black" d="M-60.8824,-125.029C-50.2891,-118.101 -34.4098,-107.717 -20.5278,-98.6389"/>
</g>
<!-- 60 -->
<g id="node61" class="node"><title>60</title>
<ellipse fill="white" stroke="black" cx="-120.824" cy="-168.002" rx="2.5" ry="2.5"/>
<text text-anchor="middle" x="-120.824" y="-165.502" font-family="Times,serif" font-size="10.00">60</text>
</g>
<!-- 2&#45;&#45;60 -->
<g id="edge7" class="edge"><title>2&#45;&#45;60</title>
<path fill="none" stroke="black" d="M-84.4785,-141.373C-96.0096,-149.822 -112.797,-162.121 -118.686,-166.436"/>
</g>
<!-- 3&#45;&#45;6 -->
<g id="edge8" class="edge"><title>3&#45;&#45;6</title>
<path fill="none" stroke="black" d="M1.82023,65.5578C3.2513,33.8252 5.3715,-13.1877 6.80953,-45.0745"/>
</g>
<!-- 10 -->
<g id="node11" class="node"><title>10</title>
<ellipse fill="#ff3030" stroke="black" cx="59.7464" cy="142.984" rx="3.5" ry="3.5"/>
<text text-anchor="middle" x="59.7464" y="145.484" font-family="Times,serif" font-size="10.00">10</text>
</g>
<!-- 3&#45;&#45;10 -->
<g id="edge9" class="edge"><title>3&#45;&#45;10</title>
<path fill="none" stroke="black" d="M27.9235,119.842C39.328,128.136 51.1445,136.729 56.6173,140.708"/>
</g>
<!-- 16 -->
<g id="node17" class="node"><title>16</title>
<ellipse fill="#ff3030" stroke="black" cx="9.85656" cy="173.074" rx="3.5" ry="3.5"/>
<text text-anchor="middle" x="9.85656" y="175.574" font-family="Times,serif" font-size="10.00">16</text>
</g>
<!-- 3&#45;&#45;16 -->
<g id="edge10" class="edge"><title>3&#45;&#45;16</title>
<path fill="none" stroke="black" d="M4.73117,133.83C6.56798,147.894 8.47113,162.466 9.35258,169.215"/>
</g>
<!-- 18 -->
<g id="node19" class="node"><title>18</title>
<ellipse fill="deepskyblue" stroke="black" cx="66.2248" cy="70.8287" rx="3.5" ry="3.5"/>
<text text-anchor="middle" x="66.2248" y="73.3287" font-family="Times,serif" font-size="10.00">18</text>
</g>
<!-- 3&#45;&#45;18 -->
<g id="edge11" class="edge"><title>3&#45;&#45;18</title>
<path fill="none" stroke="black" d="M31.7066,85.9611C44.1801,80.4929 56.949,74.8951 62.8524,72.3071"/>
</g>
<!-- 21 -->
<g id="node22" class="node"><title>21</title>
<ellipse fill="deepskyblue" stroke="black" cx="-27.9118" cy="166.846" rx="3.5" ry="3.5"/>
<text text-anchor="middle" x="-27.9118" y="169.346" font-family="Times,serif" font-size="10.00">21</text>
</g>
<!-- 3&#45;&#45;21 -->
<g id="edge12" class="edge"><title>3&#45;&#45;21</title>
<path fill="none" stroke="black" d="M-12.9911,131.328C-18.3606,144.11 -23.8905,157.274 -26.4494,163.365"/>
</g>
<!-- 25 -->
<g id="node26" class="node"><title>25</title>
<ellipse fill="deepskyblue" stroke="black" cx="-60.9467" cy="144.461" rx="3.5" ry="3.5"/>
<text text-anchor="middle" x="-60.9467" y="146.961" font-family="Times,serif" font-size="10.00">25</text>
</g>
<!-- 3&#45;&#45;25 -->
<g id="edge13" class="edge"><title>3&#45;&#45;25</title>
<path fill="none" stroke="black" d="M-27.4678,120.006C-39.6174,128.881 -52.3745,138.2 -57.9937,142.304"/>
</g>
<!-- 29 -->
<g id="node30" class="node"><title>29</title>
<ellipse fill="deepskyblue" stroke="black" cx="31.9559" cy="164.863" rx="3.5" ry="3.5"/>
<text text-anchor="middle" x="31.9559" y="167.363" font-family="Times,serif" font-size="10.00">29</text>
</g>
<!-- 3&#45;&#45;29 -->
<g id="edge14" class="edge"><title>3&#45;&#45;29</title>
<path fill="none" stroke="black" d="M15.1898,130.394C21.2234,142.799 27.4373,155.573 30.3126,161.485"/>
</g>
<!-- 30 -->
<g id="node31" class="node"><title>30</title>
<ellipse fill="deepskyblue" stroke="black" cx="79.2347" cy="101.747" rx="3.5" ry="3.5"/>
<text text-anchor="middle" x="79.2347" y="104.247" font-family="Times,serif" font-size="10.00">30</text>
</g>
<!-- 3&#45;&#45;30 -->
<g id="edge15" class="edge"><title>3&#45;&#45;30</title>
<path fill="none" stroke="black" d="M34.6803,100.614C50.9705,101.028 68.4333,101.472 75.7242,101.658"/>
</g>
<!-- 34 -->
<g id="node35" class="node"><title>34</title>
<ellipse fill="#ff3030" stroke="black" cx="-77.9735" cy="88.9525" rx="3.5" ry="3.5"/>
<text text-anchor="middle" x="-77.9735" y="91.4525" font-family="Times,serif" font-size="10.00">34</text>
</g>
<!-- 3&#45;&#45;34 -->
<g id="edge16" class="edge"><title>3&#45;&#45;34</title>
<path fill="none" stroke="black" d="M-33.8162,95.0391C-49.9612,92.8137 -67.2684,90.4281 -74.4943,89.4321"/>
</g>
<!-- 36 -->
<g id="node37" class="node"><title>36</title>
<ellipse fill="#ff3030" stroke="black" cx="75.7222" cy="86.104" rx="3.5" ry="3.5"/>
<text text-anchor="middle" x="75.7222" y="88.604" font-family="Times,serif" font-size="10.00">36</text>
</g>
<!-- 3&#45;&#45;36 -->
<g id="edge19" class="edge"><title>3&#45;&#45;36</title>
<path fill="none" stroke="black" d="M34.0286,93.6392C49.094,90.9164 65.0139,88.0393 72.0323,86.7708"/>
</g>
<!-- 41 -->
<g id="node42" class="node"><title>41</title>
<ellipse fill="#1874cd" stroke="black" cx="-26.0792" cy="34.1852" rx="3.5" ry="3.5"/>
<text text-anchor="middle" x="-26.0792" y="36.6852" font-family="Times,serif" font-size="10.00">41</text>
</g>
<!-- 3&#45;&#45;41 -->
<g id="edge22" class="edge"><title>3&#45;&#45;41</title>
<path fill="none" stroke="black" d="M-12.437,68.1141C-17.3869,55.8035 -22.424,43.276 -24.7507,37.4894"/>
</g>
<!-- 43 -->
<g id="node44" class="node"><title>43</title>
<ellipse fill="#1874cd" stroke="black" cx="-69.4784" cy="75.0231" rx="3.5" ry="3.5"/>
<text text-anchor="middle" x="-69.4784" y="77.5231" font-family="Times,serif" font-size="10.00">43</text>
</g>
<!-- 3&#45;&#45;43 -->
<g id="edge23" class="edge"><title>3&#45;&#45;43</title>
<path fill="none" stroke="black" d="M-32.1492,88.2492C-45.5271,83.5093 -59.3881,78.5982 -65.8078,76.3236"/>
</g>
<!-- 44 -->
<g id="node45" class="node"><title>44</title>
<ellipse fill="#1874cd" stroke="black" cx="73.9489" cy="117.952" rx="3.5" ry="3.5"/>
<text text-anchor="middle" x="73.9489" y="120.452" font-family="Times,serif" font-size="10.00">44</text>
</g>
<!-- 3&#45;&#45;44 -->
<g id="edge24" class="edge"><title>3&#45;&#45;44</title>
<path fill="none" stroke="black" d="M33.665,107.993C48.2842,111.607 63.6343,115.402 70.3957,117.074"/>
</g>
<!-- 46 -->
<g id="node47" class="node"><title>46</title>
<ellipse fill="#1874cd" stroke="black" cx="51.3486" cy="173.776" rx="3.5" ry="3.5"/>
<text text-anchor="middle" x="51.3486" y="176.276" font-family="Times,serif" font-size="10.00">46</text>
</g>
<!-- 3&#45;&#45;46 -->
<g id="edge27" class="edge"><title>3&#45;&#45;46</title>
<path fill="none" stroke="black" d="M19.586,127.729C30.8846,144.109 43.9154,163 49.0758,170.481"/>
</g>
<!-- 56 -->
<g id="node57" class="node"><title>56</title>
<ellipse fill="#98f5ff" stroke="black" cx="-48.1625" cy="159.016" rx="3.5" ry="3.5"/>
<text text-anchor="middle" x="-48.1625" y="161.516" font-family="Times,serif" font-size="10.00">56</text>
</g>
<!-- 3&#45;&#45;56 -->
<g id="edge28" class="edge"><title>3&#45;&#45;56</title>
<path fill="none" stroke="black" d="M-21.3916,126.257C-31.0649,138.094 -41.2869,150.603 -45.7933,156.117"/>
</g>
<!-- 59 -->
<g id="node60" class="node"><title>59</title>
<ellipse fill="black" stroke="black" cx="-72.7014" cy="120.412" rx="3.5" ry="3.5"/>
<text text-anchor="middle" x="-72.7014" y="122.912" font-family="Times,serif" font-size="10.00">59</text>
</g>
<!-- 3&#45;&#45;59 -->
<g id="edge29" class="edge"><title>3&#45;&#45;59</title>
<path fill="none" stroke="black" d="M-32.7949,109.107C-47.2771,113.21 -62.4834,117.517 -69.1815,119.415"/>
</g>
<!-- anon_3_35_0 -->
<g id="node63" class="node"><title>anon_3_35_0</title>
<ellipse fill="white" stroke="black" cx="-86.0085" cy="138.834" rx="2.5" ry="2.5"/>
</g>
<!-- 3&#45;&#45;anon_3_35_0 -->
<g id="edge17" class="edge"><title>3&#45;&#45;anon_3_35_0</title>
<path fill="none" stroke="black" d="M-30.8729,113.853C-51.3408,123.127 -75.7202,134.173 -83.496,137.696"/>
</g>
<!-- anon_3_40_0 -->
<g id="node64" class="node"><title>anon_3_40_0</title>
<ellipse fill="white" stroke="black" cx="-18.4072" cy="183.863" rx="2.5" ry="2.5"/>
</g>
<!-- 3&#45;&#45;anon_3_40_0 -->
<g id="edge20" class="edge"><title>3&#45;&#45;anon_3_40_0</title>
<path fill="none" stroke="black" d="M-7.10646,132.987C-11.3502,152.092 -16.1581,173.737 -17.8119,181.183"/>
</g>
<!-- anon_3_45_0 -->
<g id="node65" class="node"><title>anon_3_45_0</title>
<ellipse fill="white" stroke="black" cx="84.2308" cy="139.83" rx="2.5" ry="2.5"/>
</g>
<!-- 3&#45;&#45;anon_3_45_0 -->
<g id="edge25" class="edge"><title>3&#45;&#45;anon_3_45_0</title>
<path fill="none" stroke="black" d="M31.0627,114.44C50.9045,123.915 74.3456,135.109 81.8173,138.678"/>
</g>
<!-- 4 -->
<g id="node5" class="node"><title>4</title>
<path fill="deepskyblue" stroke="black" stroke-width="0.5" d="M-37.5472,-191.949C-37.5472,-191.949 -5.54716,-191.949 -5.54716,-191.949 -5.54716,-193.05 -5.60399,-194.15 -5.71744,-195.245 -5.83089,-196.341 -6.00079,-197.429 -6.22648,-198.507 -6.45216,-199.585 -6.73333,-200.65 -7.06885,-201.699 -7.40438,-202.748 -7.79381,-203.779 -8.2356,-204.787 -8.67739,-205.796 -9.17095,-206.781 -9.7143,-207.739 -10.2577,-208.697 -10.8501,-209.626 -11.4892,-210.522 -12.1284,-211.419 -12.8134,-212.282 -13.5415,-213.108 -14.2696,-213.934 -15.0399,-214.722 -15.8492,-215.469 -16.6586,-216.215 -17.5059,-216.92 -18.3879,-217.579 -19.2698,-218.238 -20.1852,-218.852 -21.1304,-219.417 -22.0756,-219.982 -23.0493,-220.497 -24.0477,-220.962 -25.0461,-221.426 -26.0678,-221.839 -27.1087,-222.198 -28.1496,-222.557 -29.2083,-222.863 -30.2807,-223.113 -31.3531,-223.363 -32.4377,-223.557 -33.5301,-223.695 -34.6225,-223.834 -35.7214,-223.915 -36.8222,-223.94 -37.9231,-223.965 -39.0245,-223.933 -40.1221,-223.845 -41.2197,-223.756 -42.3119,-223.611 -43.3945,-223.41 -44.4771,-223.209 -45.5486,-222.952 -46.6047,-222.64 -47.6609,-222.328 -48.7002,-221.962 -49.7186,-221.543 -50.7369,-221.125 -51.733,-220.654 -52.7028,-220.132 -53.6727,-219.611 -54.6149,-219.039 -55.5258,-218.421 -56.4367,-217.802 -57.3151,-217.137 -58.1575,-216.427 -58.9998,-215.718 -59.805,-214.966 -60.5698,-214.174 -61.3345,-213.382 -62.0579,-212.55 -62.737,-211.684 -63.4161,-210.817 -64.05,-209.916 -64.6362,-208.983 -65.2224,-208.051 -65.7601,-207.089 -66.2471,-206.102 -66.7341,-205.114 -67.1698,-204.102 -67.5525,-203.07 -67.9352,-202.037 -68.2643,-200.986 -68.5386,-199.919 -68.8129,-198.853 -69.0319,-197.773 -69.1949,-196.684 -69.3578,-195.595 -69.4644,-194.498 -69.5143,-193.398 -69.5642,-192.298 -69.5573,-191.196 -69.4935,-190.097 -69.4298,-188.998 -69.3094,-187.902 -69.1328,-186.815 -69.1328,-186.815 -37.5472,-191.949 -37.5472,-191.949"/>
<path fill="#ff3030" stroke="black" stroke-width="0.5" d="M-37.5472,-191.949C-37.5472,-191.949 -69.1328,-186.815 -69.1328,-186.815 -68.9604,-185.755 -68.7348,-184.704 -68.4568,-183.666 -68.1787,-182.629 -67.8486,-181.606 -67.4677,-180.601 -67.0867,-179.597 -66.6554,-178.612 -66.1755,-177.651 -65.6955,-176.69 -65.1674,-175.754 -64.5932,-174.846 -64.0191,-173.938 -63.3996,-173.059 -62.737,-172.214 -62.0745,-171.368 -61.3698,-170.556 -60.6256,-169.781 -59.8815,-169.007 -59.0987,-168.27 -58.2804,-167.574 -57.4622,-166.878 -56.6093,-166.223 -55.7252,-165.613 -55.7252,-165.613 -37.5472,-191.949 -37.5472,-191.949"/>
<path fill="#98f5ff" stroke="black" stroke-width="0.5" d="M-37.5472,-191.949C-37.5472,-191.949 -55.7252,-165.613 -55.7252,-165.613 -54.5315,-164.789 -53.2831,-164.047 -51.9887,-163.393 -50.6942,-162.738 -49.3568,-162.172 -47.9856,-161.699 -46.6145,-161.226 -45.2127,-160.846 -43.79,-160.563 -42.3674,-160.28 -40.9271,-160.095 -39.4793,-160.007 -38.0314,-159.919 -36.5792,-159.93 -35.1328,-160.04 -33.6865,-160.149 -32.2492,-160.357 -30.831,-160.661 -29.4127,-160.966 -28.0169,-161.366 -26.653,-161.86 -25.2891,-162.354 -23.9604,-162.94 -22.676,-163.614 -21.3916,-164.288 -20.1546,-165.049 -18.9734,-165.891 -17.7922,-166.733 -16.6697,-167.654 -15.6135,-168.648 -14.5573,-169.642 -13.5699,-170.707 -12.6582,-171.835 -11.7465,-172.964 -10.9126,-174.152 -10.1622,-175.394 -9.41174,-176.635 -8.7466,-177.926 -8.17133,-179.258 -7.59607,-180.589 -7.112,-181.958 -6.72249,-183.356 -6.33298,-184.753 -6.03892,-186.175 -5.84235,-187.612 -5.64578,-189.049 -5.54716,-190.498 -5.54716,-191.949 -5.54716,-191.949 -37.5472,-191.949 -37.5472,-191.949"/>
<ellipse fill="none" stroke="black" cx="-37.5472" cy="-191.949" rx="32" ry="32"/>
<text text-anchor="middle" x="-37.5472" y="-189.449" font-family="Times,serif" font-size="10.00">4</text>
</g>
<!-- 4&#45;&#45;6 -->
<g id="edge30" class="edge"><title>4&#45;&#45;6</title>
<path fill="none" stroke="black" d="M-25.362,-162.173C-19.0382,-146.721 -11.3042,-127.822 -4.83741,-112.02"/>
</g>
<!-- 11 -->
<g id="node12" class="node"><title>11</title>
<ellipse fill="deepskyblue" stroke="black" cx="29.7525" cy="-199.751" rx="3.5" ry="3.5"/>
<text text-anchor="middle" x="29.7525" y="-197.251" font-family="Times,serif" font-size="10.00">11</text>
</g>
<!-- 4&#45;&#45;11 -->
<g id="edge31" class="edge"><title>4&#45;&#45;11</title>
<path fill="none" stroke="black" d="M-5.47416,-195.667C6.98447,-197.111 19.732,-198.589 25.9169,-199.306"/>
</g>
<!-- 55 -->
<g id="node56" class="node"><title>55</title>
<ellipse fill="#98f5ff" stroke="black" cx="-57.2691" cy="-270.533" rx="3.5" ry="3.5"/>
<text text-anchor="middle" x="-57.2691" y="-268.033" font-family="Times,serif" font-size="10.00">55</text>
</g>
<!-- 4&#45;&#45;55 -->
<g id="edge32" class="edge"><title>4&#45;&#45;55</title>
<path fill="none" stroke="black" d="M-45.3418,-223.007C-49.5624,-239.824 -54.3118,-258.749 -56.3062,-266.696"/>
</g>
<!-- 5 -->
<g id="node6" class="node"><title>5</title>
<ellipse fill="#ff3030" stroke="black" cx="-61.3926" cy="-166.844" rx="18" ry="18"/>
<text text-anchor="middle" x="-61.3926" y="-164.344" font-family="Times,serif" font-size="10.00">5</text>
</g>
<!-- 5&#45;&#45;6 -->
<g id="edge33" class="edge"><title>5&#45;&#45;6</title>
<path fill="none" stroke="black" d="M-49.8723,-152.46C-39.9646,-140.09 -25.4033,-121.91 -13.3189,-106.822"/>
</g>
<!-- 32 -->
<g id="node33" class="node"><title>32</title>
<ellipse fill="#ff3030" stroke="black" cx="-13.5983" cy="-198.184" rx="3.5" ry="3.5"/>
<text text-anchor="middle" x="-13.5983" y="-195.684" font-family="Times,serif" font-size="10.00">32</text>
</g>
<!-- 5&#45;&#45;32 -->
<g id="edge34" class="edge"><title>5&#45;&#45;32</title>
<path fill="none" stroke="black" d="M-46.2702,-176.76C-35.7685,-183.646 -22.6414,-192.254 -16.7342,-196.128"/>
</g>
<!-- 38 -->
<g id="node39" class="node"><title>38</title>
<ellipse fill="#ff3030" stroke="black" cx="-74.6598" cy="-228.088" rx="3.5" ry="3.5"/>
<text text-anchor="middle" x="-74.6598" y="-225.588" font-family="Times,serif" font-size="10.00">38</text>
</g>
<!-- 5&#45;&#45;38 -->
<g id="edge35" class="edge"><title>5&#45;&#45;38</title>
<path fill="none" stroke="black" d="M-65.23,-184.558C-68.23,-198.406 -72.1638,-216.566 -73.843,-224.317"/>
</g>
<!-- 39 -->
<g id="node40" class="node"><title>39</title>
<ellipse fill="#ff3030" stroke="black" cx="-104.228" cy="-212.378" rx="3.5" ry="3.5"/>
<text text-anchor="middle" x="-104.228" y="-209.878" font-family="Times,serif" font-size="10.00">39</text>
</g>
<!-- 5&#45;&#45;39 -->
<g id="edge36" class="edge"><title>5&#45;&#45;39</title>
<path fill="none" stroke="black" d="M-74.013,-180.259C-83.6869,-190.543 -96.2591,-203.907 -101.621,-209.606"/>
</g>
<!-- 5&#45;&#45;60 -->
<g id="edge71" class="edge"><title>5&#45;&#45;60</title>
<path fill="none" stroke="black" stroke-dasharray="5,2" d="M-79.547,-167.198C-93.4746,-167.469 -111.417,-167.819 -118.131,-167.95"/>
</g>
<!-- 7 -->
<g id="node8" class="node"><title>7</title>
<ellipse fill="#ff3030" stroke="black" cx="-50.2361" cy="-43.6977" rx="9.5" ry="9.5"/>
<text text-anchor="middle" x="-50.2361" y="-41.1977" font-family="Times,serif" font-size="10.00">7</text>
</g>
<!-- 6&#45;&#45;7 -->
<g id="edge37" class="edge"><title>6&#45;&#45;7</title>
<path fill="none" stroke="black" d="M-21.2751,-61.5074C-28.7706,-56.898 -36.2363,-52.307 -41.71,-48.9409"/>
</g>
<!-- 8 -->
<g id="node9" class="node"><title>8</title>
<ellipse fill="#ff3030" stroke="black" cx="-61.8753" cy="-107.329" rx="6" ry="6"/>
<text text-anchor="middle" x="-61.8753" y="-104.829" font-family="Times,serif" font-size="10.00">8</text>
</g>
<!-- 6&#45;&#45;8 -->
<g id="edge38" class="edge"><title>6&#45;&#45;8</title>
<path fill="none" stroke="black" d="M-23.8728,-92.4037C-36.1361,-97.2199 -48.8705,-102.221 -56.0425,-105.038"/>
</g>
<!-- 13 -->
<g id="node14" class="node"><title>13</title>
<ellipse fill="#ff3030" stroke="black" cx="62.0181" cy="-138.159" rx="8" ry="8"/>
<text text-anchor="middle" x="62.0181" y="-135.659" font-family="Times,serif" font-size="10.00">13</text>
</g>
<!-- 6&#45;&#45;13 -->
<g id="edge39" class="edge"><title>6&#45;&#45;13</title>
<path fill="none" stroke="black" d="M31.7464,-105.193C40.7816,-115.032 50.3477,-125.45 56.2517,-131.879"/>
</g>
<!-- 14 -->
<g id="node15" class="node"><title>14</title>
<path fill="#ff3030" stroke="black" stroke-width="0.5" d="M125.9,-82.541C125.9,-82.541 131.9,-82.541 131.9,-82.541 131.9,-82.8029 131.882,-83.0645 131.848,-83.3242 131.814,-83.5838 131.763,-83.841 131.695,-84.094 131.627,-84.3469 131.543,-84.5952 131.443,-84.8371 131.343,-85.0791 131.227,-85.3142 131.096,-85.541 130.965,-85.7678 130.819,-85.9858 130.66,-86.1936 130.5,-86.4014 130.327,-86.5985 130.142,-86.7837 129.957,-86.9689 129.76,-87.1417 129.552,-87.3012 129.344,-87.4606 129.126,-87.6062 128.9,-87.7372 128.673,-87.8681 128.438,-87.9841 128.196,-88.0843 127.954,-88.1845 127.705,-88.2688 127.452,-88.3366 127.199,-88.4044 126.942,-88.4555 126.683,-88.4897 126.423,-88.5239 126.161,-88.541 125.9,-88.541 125.638,-88.541 125.376,-88.5239 125.116,-88.4897 124.857,-88.4555 124.6,-88.4044 124.347,-88.3366 124.094,-88.2688 123.845,-88.1845 123.603,-88.0843 123.361,-87.9841 123.126,-87.8681 122.9,-87.7372 122.673,-87.6062 122.455,-87.4606 122.247,-87.3012 122.039,-87.1417 121.842,-86.9689 121.657,-86.7837 121.472,-86.5985 121.299,-86.4014 121.139,-86.1936 120.98,-85.9858 120.834,-85.7678 120.703,-85.541 120.572,-85.3142 120.456,-85.0791 120.356,-84.8371 120.256,-84.5952 120.172,-84.3469 120.104,-84.094 120.036,-83.841 119.985,-83.5838 119.951,-83.3242 119.917,-83.0645 119.9,-82.8029 119.9,-82.541 119.9,-82.2791 119.917,-82.0175 119.951,-81.7579 119.985,-81.4982 120.036,-81.2411 120.104,-80.9881 120.172,-80.7352 120.256,-80.4869 120.356,-80.2449 120.456,-80.003 120.572,-79.7678 120.703,-79.541 120.834,-79.3142 120.98,-79.0962 121.139,-78.8885 121.299,-78.6807 121.472,-78.4836 121.657,-78.2984 121.842,-78.1132 122.039,-77.9403 122.247,-77.7809 122.455,-77.6215 122.673,-77.4758 122.9,-77.3449 122.9,-77.3449 125.9,-82.541 125.9,-82.541"/>
<path fill="#98f5ff" stroke="black" stroke-width="0.5" d="M125.9,-82.541C125.9,-82.541 122.9,-77.3449 122.9,-77.3449 123.126,-77.2139 123.361,-77.098 123.603,-76.9978 123.845,-76.8975 124.094,-76.8133 124.347,-76.7455 124.6,-76.6777 124.857,-76.6266 125.116,-76.5924 125.376,-76.5582 125.638,-76.541 125.9,-76.541 126.161,-76.541 126.423,-76.5582 126.683,-76.5924 126.942,-76.6266 127.199,-76.6777 127.452,-76.7455 127.705,-76.8133 127.954,-76.8975 128.196,-76.9978 128.438,-77.098 128.673,-77.2139 128.9,-77.3449 129.126,-77.4758 129.344,-77.6215 129.552,-77.7809 129.76,-77.9403 129.957,-78.1132 130.142,-78.2984 130.327,-78.4836 130.5,-78.6807 130.66,-78.8885 130.819,-79.0962 130.965,-79.3142 131.096,-79.541 131.227,-79.7678 131.343,-80.003 131.443,-80.2449 131.543,-80.4869 131.627,-80.7352 131.695,-80.9881 131.763,-81.2411 131.814,-81.4982 131.848,-81.7579 131.882,-82.0175 131.9,-82.2791 131.9,-82.541 131.9,-82.541 125.9,-82.541 125.9,-82.541"/>
<ellipse fill="none" stroke="black" cx="125.9" cy="-82.541" rx="6" ry="6"/>
<text text-anchor="middle" x="125.9" y="-80.041" font-family="Times,serif" font-size="10.00">14</text>
</g>
<!-- 6&#45;&#45;14 -->
<g id="edge40" class="edge"><title>6&#45;&#45;14</title>
<path fill="none" stroke="black" d="M42.9991,-80.5649C70.083,-81.2105 105.447,-82.0535 119.622,-82.3914"/>
</g>
<!-- 17 -->
<g id="node18" class="node"><title>17</title>
<ellipse fill="#ff3030" stroke="black" cx="65.3266" cy="-30.0553" rx="6" ry="6"/>
<text text-anchor="middle" x="65.3266" y="-27.5553" font-family="Times,serif" font-size="10.00">17</text>
</g>
<!-- 6&#45;&#45;17 -->
<g id="edge41" class="edge"><title>6&#45;&#45;17</title>
<path fill="none" stroke="black" d="M34.5161,-56.9332C44.5755,-48.1578 55.0259,-39.0412 60.801,-34.0033"/>
</g>
<!-- 19 -->
<g id="node20" class="node"><title>19</title>
<path fill="deepskyblue" stroke="black" stroke-width="0.5" d="M-85.3427,-60.0037C-85.3427,-60.0037 -73.8427,-60.0037 -73.8427,-60.0037 -73.8427,-60.4555 -73.8693,-60.9068 -73.9224,-61.3554 -73.9755,-61.804 -74.055,-62.2491 -74.1604,-62.6884 -74.2659,-63.1276 -74.3971,-63.5603 -74.5535,-63.9841 -74.7098,-64.4079 -74.891,-64.8221 -75.0961,-65.2246 -75.3012,-65.6271 -75.5298,-66.0172 -75.7808,-66.3928 -76.0318,-66.7684 -76.3046,-67.1289 -76.598,-67.4724 -76.8914,-67.8159 -77.2048,-68.1418 -77.5365,-68.4484 -77.8682,-68.7551 -78.2177,-69.0419 -78.5832,-69.3074 -78.9486,-69.5729 -79.3294,-69.8167 -79.7235,-70.0374 -80.1177,-70.2582 -80.5245,-70.4555 -80.9418,-70.6283 -81.3592,-70.8012 -81.7864,-70.9493 -82.2211,-71.072 -82.6559,-71.1946 -83.0975,-71.2915 -83.5437,-71.3621 -83.9899,-71.4328 -84.4398,-71.4771 -84.8912,-71.4949 -85.3426,-71.5126 -85.7946,-71.5037 -86.245,-71.4683 -86.6953,-71.4328 -87.1432,-71.3709 -87.5862,-71.2828 -88.0293,-71.1946 -88.4668,-71.0805 -88.8964,-70.9409 -89.326,-70.8013 -89.747,-70.6365 -90.1573,-70.4474 -90.5675,-70.2583 -90.9663,-70.0451 -91.3514,-69.8091 -91.7366,-69.5731 -92.1075,-69.3145 -92.4623,-69.0349 -92.817,-68.7552 -93.155,-68.4549 -93.4744,-68.1355 -93.7938,-67.816 -94.0942,-67.4781 -94.3738,-67.1233 -94.6535,-66.7686 -94.912,-66.3976 -95.1481,-66.0125 -95.3841,-65.6273 -95.5972,-65.2286 -95.7863,-64.8183 -95.9755,-64.4081 -96.1402,-63.987 -96.2798,-63.5574 -96.4194,-63.1278 -96.5336,-62.6903 -96.6217,-62.2473 -96.7098,-61.8042 -96.7718,-61.3563 -96.8072,-60.906 -96.8427,-60.4557 -96.8516,-60.0036 -96.8338,-59.5522 -96.8161,-59.1009 -96.7718,-58.6509 -96.7011,-58.2047 -96.6304,-57.7586 -96.5335,-57.3169 -96.4109,-56.8822 -96.2883,-56.4474 -96.1402,-56.0202 -95.9673,-55.6029 -95.7944,-55.1855 -95.5971,-54.7787 -95.3764,-54.3846 -95.1557,-53.9904 -94.9119,-53.6097 -94.6464,-53.2442 -94.6464,-53.2442 -85.3427,-60.0037 -85.3427,-60.0037"/>
<path fill="#98f5ff" stroke="black" stroke-width="0.5" d="M-85.3427,-60.0037C-85.3427,-60.0037 -94.6464,-53.2442 -94.6464,-53.2442 -94.2923,-52.7568 -93.9004,-52.298 -93.4744,-51.872 -93.0484,-51.446 -92.5896,-51.0541 -92.1022,-50.7 -91.6148,-50.3459 -91.1004,-50.0307 -90.5636,-49.7572 -90.0268,-49.4836 -89.4693,-49.2527 -88.8964,-49.0666 -88.3234,-48.8804 -87.7367,-48.7396 -87.1417,-48.6453 -86.5467,-48.5511 -85.9451,-48.5037 -85.3427,-48.5037 -84.7402,-48.5037 -84.1387,-48.5511 -83.5437,-48.6453 -82.9487,-48.7396 -82.362,-48.8804 -81.789,-49.0666 -81.216,-49.2527 -80.6586,-49.4836 -80.1218,-49.7572 -79.585,-50.0307 -79.0705,-50.3459 -78.5832,-50.7 -78.0958,-51.0541 -77.637,-51.446 -77.211,-51.872 -76.785,-52.298 -76.3931,-52.7568 -76.039,-53.2442 -75.6849,-53.7316 -75.3696,-54.2461 -75.0961,-54.7828 -74.8226,-55.3196 -74.5917,-55.8771 -74.4055,-56.45 -74.2194,-57.023 -74.0785,-57.6097 -73.9843,-58.2047 -73.89,-58.7998 -73.8427,-59.4013 -73.8427,-60.0037 -73.8427,-60.0037 -85.3427,-60.0037 -85.3427,-60.0037"/>
<ellipse fill="none" stroke="black" cx="-85.3427" cy="-60.0037" rx="11.5" ry="11.5"/>
<text text-anchor="middle" x="-85.3427" y="-57.5037" font-family="Times,serif" font-size="10.00">19</text>
</g>
<!-- 6&#45;&#45;19 -->
<g id="edge42" class="edge"><title>6&#45;&#45;19</title>
<path fill="none" stroke="black" d="M-25.4606,-72.6144C-42.4476,-69.0371 -61.9153,-64.9373 -73.9216,-62.4089"/>
</g>
<!-- 26 -->
<g id="node27" class="node"><title>26</title>
<ellipse fill="deepskyblue" stroke="black" cx="72.7824" cy="-49.7778" rx="5" ry="5"/>
<text text-anchor="middle" x="72.7824" y="-47.2778" font-family="Times,serif" font-size="10.00">26</text>
</g>
<!-- 6&#45;&#45;26 -->
<g id="edge43" class="edge"><title>6&#45;&#45;26</title>
<path fill="none" stroke="black" d="M39.8229,-65.1097C50.808,-59.9997 61.9103,-54.8352 68.0135,-51.9962"/>
</g>
<!-- 31 -->
<g id="node32" class="node"><title>31</title>
<path fill="deepskyblue" stroke="black" stroke-width="0.5" d="M106.904,-51.2176C106.904,-51.2176 119.404,-51.2176 119.404,-51.2176 119.404,-51.695 119.377,-52.1719 119.322,-52.6462 119.268,-53.1204 119.186,-53.5912 119.078,-54.0561 118.969,-54.521 118.834,-54.9793 118.674,-55.4287 118.513,-55.8782 118.326,-56.3181 118.115,-56.7462 117.904,-57.1743 117.669,-57.59 117.41,-57.9912 117.151,-58.3924 116.87,-58.7785 116.567,-59.1475 116.264,-59.5165 115.94,-59.8679 115.597,-60.1999 115.254,-60.5319 114.892,-60.8439 114.514,-61.1345 114.135,-61.4251 113.74,-61.6938 113.331,-61.9392 112.921,-62.1846 112.498,-62.4064 112.063,-62.6034 111.628,-62.8004 111.183,-62.9724 110.728,-63.1184 110.274,-63.2644 109.811,-63.3843 109.343,-63.4774 108.875,-63.5705 108.402,-63.6368 107.926,-63.6758 107.45,-63.7148 106.972,-63.7265 106.495,-63.7109 106.018,-63.6953 105.542,-63.6524 105.07,-63.5823 104.598,-63.5123 104.13,-63.4152 103.669,-63.2917 103.208,-63.1681 102.754,-63.0183 102.31,-62.8428 101.866,-62.6674 101.433,-62.4666 101.012,-62.2416 100.591,-62.0166 100.183,-61.7676 99.7905,-61.496 99.398,-61.2243 99.0213,-60.9303 98.6624,-60.6156 98.3035,-60.3008 97.9629,-59.9658 97.6423,-59.6121 97.3218,-59.2584 97.0217,-58.8866 96.7437,-58.4986 96.4656,-58.1105 96.21,-57.7069 95.9781,-57.2896 95.7462,-56.8724 95.5384,-56.4422 95.3557,-56.0011 95.1731,-55.5601 95.0158,-55.109 94.8847,-54.65 94.7536,-54.1909 94.649,-53.7248 94.5712,-53.2538 94.4934,-52.7828 94.4427,-52.3077 94.4193,-51.8309 94.3959,-51.3542 94.3998,-50.8764 94.431,-50.4001 94.4622,-49.9237 94.5207,-49.4495 94.6062,-48.9799 94.6916,-48.5102 94.8039,-48.0459 94.9425,-47.589 95.0811,-47.1322 95.2457,-46.6837 95.4356,-46.2457 95.6254,-45.8078 95.8402,-45.381 96.0789,-44.9676 96.0789,-44.9676 106.904,-51.2176 106.904,-51.2176"/>
<path fill="#98f5ff" stroke="black" stroke-width="0.5" d="M106.904,-51.2176C106.904,-51.2176 96.0789,-44.9676 96.0789,-44.9676 96.42,-44.3768 96.8089,-43.815 97.2416,-43.2877 97.6744,-42.7604 98.1495,-42.2694 98.6624,-41.8196 99.1753,-41.3698 99.7241,-40.9628 100.303,-40.6026 100.883,-40.2424 101.49,-39.9302 102.121,-39.6691 102.751,-39.4081 103.401,-39.199 104.066,-39.0441 104.73,-38.8892 105.406,-38.789 106.087,-38.7444 106.767,-38.6997 107.451,-38.7109 108.129,-38.7778 108.808,-38.8447 109.481,-38.967 110.139,-39.1435 110.798,-39.3201 111.442,-39.5503 112.063,-39.8318 112.684,-40.1133 113.282,-40.4452 113.849,-40.8242 114.416,-41.2032 114.951,-41.628 115.449,-42.0943 115.947,-42.5606 116.406,-43.0669 116.821,-43.6081 117.236,-44.1493 117.607,-44.7235 117.928,-45.3251 118.25,-45.9267 118.522,-46.5537 118.741,-47.1996 118.96,-47.8456 119.126,-48.5084 119.237,-49.1814 119.348,-49.8544 119.404,-50.5354 119.404,-51.2176 119.404,-51.2176 106.904,-51.2176 106.904,-51.2176"/>
<ellipse fill="none" stroke="black" cx="106.904" cy="-51.2176" rx="12.5" ry="12.5"/>
<text text-anchor="middle" x="106.904" y="-48.7176" font-family="Times,serif" font-size="10.00">31</text>
</g>
<!-- 6&#45;&#45;31 -->
<g id="edge47" class="edge"><title>6&#45;&#45;31</title>
<path fill="none" stroke="black" d="M41.7311,-70.0833C60.0432,-64.7825 81.64,-58.5308 94.7977,-54.7221"/>
</g>
<!-- 47 -->
<g id="node48" class="node"><title>47</title>
<ellipse fill="brown" stroke="black" cx="74.864" cy="-79.6278" rx="3.5" ry="3.5"/>
<text text-anchor="middle" x="74.864" y="-77.1278" font-family="Times,serif" font-size="10.00">47</text>
</g>
<!-- 6&#45;&#45;47 -->
<g id="edge48" class="edge"><title>6&#45;&#45;47</title>
<path fill="none" stroke="black" d="M43.1763,-79.681C54.4879,-79.662 65.5585,-79.6434 71.1347,-79.6341"/>
</g>
<!-- 48 -->
<g id="node49" class="node"><title>48</title>
<ellipse fill="brown" stroke="black" cx="9.07495" cy="-156.509" rx="6" ry="6"/>
<text text-anchor="middle" x="9.07495" y="-154.009" font-family="Times,serif" font-size="10.00">48</text>
</g>
<!-- 6&#45;&#45;48 -->
<g id="edge49" class="edge"><title>6&#45;&#45;48</title>
<path fill="none" stroke="black" d="M8.69104,-114.53C8.81585,-128.178 8.94625,-142.436 9.01839,-150.324"/>
</g>
<!-- 50 -->
<g id="node51" class="node"><title>50</title>
<ellipse fill="brown" stroke="black" cx="-48.7239" cy="-9.53639" rx="8" ry="8"/>
<text text-anchor="middle" x="-48.7239" y="-7.03639" font-family="Times,serif" font-size="10.00">50</text>
</g>
<!-- 6&#45;&#45;50 -->
<g id="edge52" class="edge"><title>6&#45;&#45;50</title>
<path fill="none" stroke="black" d="M-13.5389,-52.7979C-24.483,-39.3417 -36.8045,-24.1918 -43.5752,-15.867"/>
</g>
<!-- 51 -->
<g id="node52" class="node"><title>51</title>
<ellipse fill="brown" stroke="black" cx="16.8383" cy="-15.6457" rx="3.5" ry="3.5"/>
<text text-anchor="middle" x="16.8383" y="-13.1457" font-family="Times,serif" font-size="10.00">51</text>
</g>
<!-- 6&#45;&#45;51 -->
<g id="edge53" class="edge"><title>6&#45;&#45;51</title>
<path fill="none" stroke="black" d="M12.903,-45.441C14.3181,-34.7262 15.6888,-24.3487 16.3779,-19.1315"/>
</g>
<!-- 54 -->
<g id="node55" class="node"><title>54</title>
<ellipse fill="brown" stroke="black" cx="44.972" cy="-22.1372" rx="3.5" ry="3.5"/>
<text text-anchor="middle" x="44.972" y="-19.6372" font-family="Times,serif" font-size="10.00">54</text>
</g>
<!-- 6&#45;&#45;54 -->
<g id="edge54" class="edge"><title>6&#45;&#45;54</title>
<path fill="none" stroke="black" d="M26.8869,-50.6009C33.4115,-40.3319 39.8998,-30.1202 43.0334,-25.1884"/>
</g>
<!-- anon_6_27_0 -->
<g id="node66" class="node"><title>anon_6_27_0</title>
<ellipse fill="white" stroke="black" cx="-79.0262" cy="-82.8619" rx="2.5" ry="2.5"/>
</g>
<!-- 6&#45;&#45;anon_6_27_0 -->
<g id="edge44" class="edge"><title>6&#45;&#45;anon_6_27_0</title>
<path fill="none" stroke="black" d="M-26.1695,-80.9735C-46.0185,-81.6827 -68.5065,-82.4861 -76.2417,-82.7624"/>
</g>
<!-- anon_6_49_0 -->
<g id="node68" class="node"><title>anon_6_49_0</title>
<ellipse fill="white" stroke="black" cx="72.9041" cy="-110.99" rx="2.5" ry="2.5"/>
</g>
<!-- 6&#45;&#45;anon_6_49_0 -->
<g id="edge50" class="edge"><title>6&#45;&#45;anon_6_49_0</title>
<path fill="none" stroke="black" d="M39.5043,-94.8154C52.1385,-100.934 65.0049,-107.164 70.342,-109.749"/>
</g>
<!-- 57 -->
<g id="node58" class="node"><title>57</title>
<ellipse fill="black" stroke="black" cx="-111.767" cy="-124.667" rx="6" ry="6"/>
<text text-anchor="middle" x="-111.767" y="-122.167" font-family="Times,serif" font-size="10.00">57</text>
</g>
<!-- 8&#45;&#45;57 -->
<g id="edge55" class="edge"><title>8&#45;&#45;57</title>
<path fill="none" stroke="black" d="M-67.5985,-109.318C-77.1199,-112.627 -96.1216,-119.23 -105.801,-122.594"/>
</g>
<!-- 9 -->
<g id="node10" class="node"><title>9</title>
<ellipse fill="deepskyblue" stroke="black" cx="221.651" cy="-168.504" rx="3.5" ry="3.5"/>
<text text-anchor="middle" x="221.651" y="-166.004" font-family="Times,serif" font-size="10.00">9</text>
</g>
<!-- 15 -->
<g id="node16" class="node"><title>15</title>
<path fill="deepskyblue" stroke="black" stroke-width="0.5" d="M196.937,-112.28C196.937,-112.28 214.937,-112.28 214.937,-112.28 214.937,-113.129 214.877,-113.977 214.758,-114.817 214.638,-115.657 214.459,-116.487 214.223,-117.302 213.986,-118.117 213.692,-118.914 213.343,-119.688 212.993,-120.461 212.59,-121.209 212.135,-121.925 211.68,-122.642 211.176,-123.325 210.625,-123.971 210.073,-124.616 209.477,-125.221 208.841,-125.782 208.204,-126.344 207.529,-126.859 206.82,-127.325 206.11,-127.791 205.369,-128.206 204.601,-128.567 203.833,-128.929 203.041,-129.235 202.23,-129.485 201.419,-129.734 200.591,-129.926 199.753,-130.059 198.915,-130.192 198.068,-130.265 197.22,-130.278 196.372,-130.292 195.523,-130.245 194.681,-130.139 193.839,-130.032 193.006,-129.866 192.188,-129.642 191.369,-129.419 190.567,-129.137 189.789,-128.8 189.01,-128.463 188.256,-128.071 187.532,-127.628 186.809,-127.185 186.117,-126.691 185.464,-126.15 184.81,-125.609 184.195,-125.022 183.624,-124.395 183.053,-123.767 182.527,-123.1 182.05,-122.398 181.573,-121.696 181.146,-120.961 180.773,-120.199 180.399,-119.437 180.08,-118.65 179.818,-117.843 179.556,-117.036 179.351,-116.211 179.205,-115.375 179.059,-114.539 178.973,-113.694 178.946,-112.846 178.92,-111.998 178.953,-111.149 179.046,-110.305 179.139,-109.462 179.292,-108.626 179.503,-107.804 179.714,-106.982 179.983,-106.176 180.307,-105.392 180.632,-104.608 181.012,-103.848 181.444,-103.118 181.876,-102.387 182.359,-101.688 182.89,-101.026 183.42,-100.364 183.997,-99.7399 184.615,-99.159 185.234,-98.5781 185.893,-98.0417 186.587,-97.5537 187.281,-97.0658 188.009,-96.6276 188.765,-96.2423 189.522,-95.8571 190.304,-95.5258 191.107,-95.2509 191.91,-94.976 192.731,-94.7583 193.564,-94.5993 193.564,-94.5993 196.937,-112.28 196.937,-112.28"/>
<path fill="#98f5ff" stroke="black" stroke-width="0.5" d="M196.937,-112.28C196.937,-112.28 193.564,-94.5993 193.564,-94.5993 194.213,-94.4756 194.867,-94.3877 195.525,-94.3359 196.183,-94.2842 196.843,-94.2686 197.503,-94.2893 198.162,-94.3101 198.82,-94.367 199.474,-94.46 200.127,-94.553 200.775,-94.6818 201.414,-94.8459 202.053,-95.0101 202.683,-95.2092 203.3,-95.4425 203.917,-95.6757 204.521,-95.9427 205.109,-96.2423 205.697,-96.5419 206.268,-96.8736 206.82,-97.2359 207.371,-97.5982 207.902,-97.9906 208.411,-98.4112 208.919,-98.8318 209.404,-99.2801 209.864,-99.754 210.323,-100.228 210.756,-100.727 211.16,-101.248 211.565,-101.77 211.94,-102.313 212.285,-102.875 212.63,-103.438 212.943,-104.019 213.224,-104.616 213.505,-105.214 213.753,-105.826 213.967,-106.45 214.181,-107.074 214.36,-107.71 214.504,-108.354 214.648,-108.998 214.756,-109.649 214.829,-110.305 214.901,-110.961 214.937,-111.621 214.937,-112.28 214.937,-112.28 196.937,-112.28 196.937,-112.28"/>
<ellipse fill="none" stroke="black" cx="196.937" cy="-112.28" rx="18" ry="18"/>
<text text-anchor="middle" x="196.937" y="-109.78" font-family="Times,serif" font-size="10.00">15</text>
</g>
<!-- 9&#45;&#45;15 -->
<g id="edge56" class="edge"><title>9&#45;&#45;15</title>
<path fill="none" stroke="black" d="M220.179,-165.156C217.103,-158.158 209.816,-141.579 204.214,-128.836"/>
</g>
<!-- 11&#45;&#45;48 -->
<g id="edge72" class="edge"><title>11&#45;&#45;48</title>
<path fill="none" stroke="black" stroke-dasharray="5,2" d="M28.13,-196.358C24.5883,-188.951 16.1341,-171.272 11.7755,-162.157"/>
</g>
<!-- 12 -->
<g id="node13" class="node"><title>12</title>
<ellipse fill="deepskyblue" stroke="black" cx="252.861" cy="-86.8677" rx="3.5" ry="3.5"/>
<text text-anchor="middle" x="252.861" y="-84.3677" font-family="Times,serif" font-size="10.00">12</text>
</g>
<!-- 12&#45;&#45;15 -->
<g id="edge57" class="edge"><title>12&#45;&#45;15</title>
<path fill="none" stroke="black" d="M249.53,-88.3813C242.57,-91.5441 226.079,-99.0377 213.404,-104.798"/>
</g>
<!-- 28 -->
<g id="node29" class="node"><title>28</title>
<ellipse fill="#ff3030" stroke="black" cx="98.8012" cy="-172.788" rx="3.5" ry="3.5"/>
<text text-anchor="middle" x="98.8012" y="-170.288" font-family="Times,serif" font-size="10.00">28</text>
</g>
<!-- 13&#45;&#45;28 -->
<g id="edge58" class="edge"><title>13&#45;&#45;28</title>
<path fill="none" stroke="black" d="M68.0921,-143.877C76.2541,-151.561 90.4063,-164.884 96.2074,-170.346"/>
</g>
<!-- 14&#45;&#45;15 -->
<g id="edge59" class="edge"><title>14&#45;&#45;15</title>
<path fill="none" stroke="black" d="M131.474,-84.8746C141.809,-89.2016 164.323,-98.6269 180.046,-105.209"/>
</g>
<!-- 61 -->
<g id="node62" class="node"><title>61</title>
<ellipse fill="white" stroke="black" cx="161.975" cy="-49.6142" rx="2.5" ry="2.5"/>
<text text-anchor="middle" x="161.975" y="-47.1142" font-family="Times,serif" font-size="10.00">61</text>
</g>
<!-- 14&#45;&#45;61 -->
<g id="edge60" class="edge"><title>14&#45;&#45;61</title>
<path fill="none" stroke="black" d="M130.616,-78.2364C138.561,-70.9847 154.297,-56.6219 159.919,-51.4908"/>
</g>
<!-- anon_15_23_0 -->
<g id="node69" class="node"><title>anon_15_23_0</title>
<ellipse fill="white" stroke="black" cx="257.602" cy="-134.419" rx="2.5" ry="2.5"/>
</g>
<!-- 15&#45;&#45;anon_15_23_0 -->
<g id="edge61" class="edge"><title>15&#45;&#45;anon_15_23_0</title>
<path fill="none" stroke="black" d="M214.159,-118.565C228.731,-123.883 248.303,-131.025 255.13,-133.516"/>
</g>
<!-- 33 -->
<g id="node34" class="node"><title>33</title>
<ellipse fill="deepskyblue" stroke="black" cx="-142.465" cy="-55.6268" rx="3.5" ry="3.5"/>
<text text-anchor="middle" x="-142.465" y="-53.1268" font-family="Times,serif" font-size="10.00">33</text>
</g>
<!-- 19&#45;&#45;33 -->
<g id="edge64" class="edge"><title>19&#45;&#45;33</title>
<path fill="none" stroke="black" d="M-96.9022,-59.118C-109.942,-58.1188 -130.416,-56.55 -138.75,-55.9115"/>
</g>
<!-- 20 -->
<g id="node21" class="node"><title>20</title>
<ellipse fill="deepskyblue" stroke="black" cx="244.729" cy="-13.1808" rx="3.5" ry="3.5"/>
<text text-anchor="middle" x="244.729" y="-10.6808" font-family="Times,serif" font-size="10.00">20</text>
</g>
<!-- anon_20_61_0 -->
<g id="node71" class="node"><title>anon_20_61_0</title>
<ellipse fill="white" stroke="black" cx="203.2" cy="-30.3957" rx="2.5" ry="2.5"/>
</g>
<!-- 20&#45;&#45;anon_20_61_0 -->
<g id="edge65" class="edge"><title>20&#45;&#45;anon_20_61_0</title>
<path fill="none" stroke="black" d="M241.471,-14.5316C233.516,-17.8289 213.223,-26.2409 205.893,-29.2794"/>
</g>
<!-- 23 -->
<g id="node24" class="node"><title>23</title>
<ellipse fill="deepskyblue" stroke="black" cx="340.619" cy="-161.426" rx="3.5" ry="3.5"/>
<text text-anchor="middle" x="340.619" y="-158.926" font-family="Times,serif" font-size="10.00">23</text>
</g>
<!-- 27 -->
<g id="node28" class="node"><title>27</title>
<ellipse fill="#ff3030" stroke="black" cx="-174.296" cy="-93.3167" rx="5" ry="5"/>
<text text-anchor="middle" x="-174.296" y="-90.8167" font-family="Times,serif" font-size="10.00">27</text>
</g>
<!-- 31&#45;&#45;61 -->
<g id="edge73" class="edge"><title>31&#45;&#45;61</title>
<path fill="none" stroke="black" stroke-dasharray="5,2" d="M119.401,-50.8538C132.602,-50.4694 152.457,-49.8913 159.438,-49.6881"/>
</g>
<!-- 32&#45;&#45;48 -->
<g id="edge74" class="edge"><title>32&#45;&#45;48</title>
<path fill="none" stroke="black" stroke-dasharray="5,2" d="M-11.8191,-194.914C-7.93565,-187.776 1.33449,-170.737 6.11374,-161.952"/>
</g>
<!-- 35 -->
<g id="node36" class="node"><title>35</title>
<ellipse fill="#ff3030" stroke="black" cx="-126.325" cy="160.849" rx="3.5" ry="3.5"/>
<text text-anchor="middle" x="-126.325" y="163.349" font-family="Times,serif" font-size="10.00">35</text>
</g>
<!-- 37 -->
<g id="node38" class="node"><title>37</title>
<ellipse fill="#ff3030" stroke="black" cx="-161.198" cy="-189.42" rx="3.5" ry="3.5"/>
<text text-anchor="middle" x="-161.198" y="-186.92" font-family="Times,serif" font-size="10.00">37</text>
</g>
<!-- 37&#45;&#45;60 -->
<g id="edge67" class="edge"><title>37&#45;&#45;60</title>
<path fill="none" stroke="black" d="M-158.03,-187.739C-150.148,-183.558 -129.805,-172.767 -123.045,-169.181"/>
</g>
<!-- 40 -->
<g id="node41" class="node"><title>40</title>
<ellipse fill="deepskyblue" stroke="black" cx="-31.4636" cy="226.963" rx="3.5" ry="3.5"/>
<text text-anchor="middle" x="-31.4636" y="229.463" font-family="Times,serif" font-size="10.00">40</text>
</g>
<!-- 41&#45;&#45;50 -->
<g id="edge75" class="edge"><title>41&#45;&#45;50</title>
<path fill="none" stroke="black" stroke-dasharray="5,2" d="M-27.7078,31.0409C-31.2774,24.1487 -39.8722,7.55416 -44.8953,-2.14435"/>
</g>
<!-- 42 -->
<g id="node43" class="node"><title>42</title>
<ellipse fill="#1874cd" stroke="black" cx="74.6917" cy="214.106" rx="3.5" ry="3.5"/>
<text text-anchor="middle" x="74.6917" y="216.606" font-family="Times,serif" font-size="10.00">42</text>
</g>
<!-- 42&#45;&#45;46 -->
<g id="edge68" class="edge"><title>42&#45;&#45;46</title>
<path fill="none" stroke="black" d="M72.86,210.941C68.4749,203.365 57.4186,184.263 53.1079,176.816"/>
</g>
<!-- 45 -->
<g id="node46" class="node"><title>45</title>
<ellipse fill="#1874cd" stroke="black" cx="123.112" cy="164.356" rx="3.5" ry="3.5"/>
<text text-anchor="middle" x="123.112" y="166.856" font-family="Times,serif" font-size="10.00">45</text>
</g>
<!-- 49 -->
<g id="node50" class="node"><title>49</title>
<ellipse fill="brown" stroke="black" cx="110.985" cy="-132.795" rx="3.5" ry="3.5"/>
<text text-anchor="middle" x="110.985" y="-130.295" font-family="Times,serif" font-size="10.00">49</text>
</g>
<!-- 52 -->
<g id="node53" class="node"><title>52</title>
<ellipse fill="brown" stroke="black" cx="-99.8098" cy="-10.356" rx="3.5" ry="3.5"/>
<text text-anchor="middle" x="-99.8098" y="-7.85604" font-family="Times,serif" font-size="10.00">52</text>
</g>
<!-- 50&#45;&#45;52 -->
<g id="edge69" class="edge"><title>50&#45;&#45;52</title>
<path fill="none" stroke="black" d="M-57.1597,-9.67174C-68.4955,-9.85362 -88.1507,-10.169 -96.2074,-10.2982"/>
</g>
<!-- 53 -->
<g id="node54" class="node"><title>53</title>
<ellipse fill="brown" stroke="black" cx="-95.4007" cy="10.5272" rx="3.5" ry="3.5"/>
<text text-anchor="middle" x="-95.4007" y="13.0272" font-family="Times,serif" font-size="10.00">53</text>
</g>
<!-- 50&#45;&#45;53 -->
<g id="edge70" class="edge"><title>50&#45;&#45;53</title>
<path fill="none" stroke="black" d="M-56.4316,-6.2233C-66.789,-1.77124 -84.7478,5.94818 -92.1091,9.11239"/>
</g>
<!-- anon_3_35_0&#45;&#45;35 -->
<g id="edge18" class="edge"><title>anon_3_35_0&#45;&#45;35</title>
<path fill="none" stroke="black" d="M-88.6537,140.279C-95.8011,144.181 -115.479,154.926 -123.178,159.131"/>
</g>
<!-- anon_3_40_0&#45;&#45;40 -->
<g id="edge21" class="edge"><title>anon_3_40_0&#45;&#45;40</title>
<path fill="none" stroke="black" d="M-19.1849,186.43C-21.4247,193.824 -27.8919,215.173 -30.4268,223.541"/>
</g>
<!-- anon_3_45_0&#45;&#45;45 -->
<g id="edge26" class="edge"><title>anon_3_45_0&#45;&#45;45</title>
<path fill="none" stroke="black" d="M86.7819,141.439C93.6749,145.787 112.652,157.758 120.077,162.442"/>
</g>
<!-- anon_6_27_1 -->
<g id="node67" class="node"><title>anon_6_27_1</title>
<ellipse fill="white" stroke="black" cx="-126.391" cy="-87.4343" rx="2.5" ry="2.5"/>
</g>
<!-- anon_6_27_0&#45;&#45;anon_6_27_1 -->
<g id="edge45" class="edge"><title>anon_6_27_0&#45;&#45;anon_6_27_1</title>
<path fill="none" stroke="black" d="M-81.5727,-83.1077C-89.72,-83.8942 -115.109,-86.3452 -123.596,-87.1645"/>
</g>
<!-- anon_6_27_1&#45;&#45;27 -->
<g id="edge46" class="edge"><title>anon_6_27_1&#45;&#45;27</title>
<path fill="none" stroke="black" d="M-128.967,-87.7505C-136.585,-88.686 -159.109,-91.4518 -169.249,-92.6969"/>
</g>
<!-- anon_6_49_0&#45;&#45;49 -->
<g id="edge51" class="edge"><title>anon_6_49_0&#45;&#45;49</title>
<path fill="none" stroke="black" d="M75.4026,-112.42C82.0214,-116.21 100.016,-126.514 107.572,-130.841"/>
</g>
<!-- anon_15_23_1 -->
<g id="node70" class="node"><title>anon_15_23_1</title>
<ellipse fill="white" stroke="black" cx="299.18" cy="-148.278" rx="2.5" ry="2.5"/>
</g>
<!-- anon_15_23_0&#45;&#45;anon_15_23_1 -->
<g id="edge62" class="edge"><title>anon_15_23_0&#45;&#45;anon_15_23_1</title>
<path fill="none" stroke="black" d="M260.33,-135.328C267.846,-137.833 288.795,-144.816 296.387,-147.347"/>
</g>
<!-- anon_15_23_1&#45;&#45;23 -->
<g id="edge63" class="edge"><title>anon_15_23_1&#45;&#45;23</title>
<path fill="none" stroke="black" d="M301.899,-149.14C309.101,-151.425 328.683,-157.638 336.905,-160.247"/>
</g>
<!-- anon_20_61_0&#45;&#45;61 -->
<g id="edge66" class="edge"><title>anon_20_61_0&#45;&#45;61</title>
<path fill="none" stroke="black" d="M200.495,-31.6567C192.9,-35.1974 171.468,-45.1889 164.325,-48.5189"/>
</g>
</g>
</svg>
