<?xml version="1.0" encoding="UTF-8" standalone="no"?>
<!DOCTYPE svg PUBLIC "-//W3C//DTD SVG 1.1//EN"
 "http://www.w3.org/Graphics/SVG/1.1/DTD/svg11.dtd">
<!-- Generated by graphviz version 2.38.0 (20140413.2041)
 -->
<!-- Title: %3 Pages: 1 -->
<svg width="208pt" height="347pt"
 viewBox="0.00 0.00 207.97 347.20" xmlns="http://www.w3.org/2000/svg" xmlns:xlink="http://www.w3.org/1999/xlink">
<g id="graph0" class="graph" transform="scale(1 1) rotate(0) translate(83.9295 240.681)">
<title>%3</title>
<polygon fill="white" stroke="none" points="-83.9295,106.52 -83.9295,-240.681 124.044,-240.681 124.044,106.52 -83.9295,106.52"/>
<!-- 0 -->
<g id="node1" class="node"><title>0</title>
<path fill="palegreen" stroke="black" stroke-width="0.5" d="M20.1652,-61.3232C20.1652,-61.3232 61.1652,-61.3232 61.1652,-61.3232 61.1652,-62.9751 61.0654,-64.6254 60.8663,-66.2652 60.6672,-67.905 60.3692,-69.5313 59.9738,-71.1352 59.5785,-72.739 59.0866,-74.3175 58.5009,-75.862 57.9151,-77.4065 57.2366,-78.9142 56.4689,-80.3769 55.7013,-81.8395 54.8459,-83.2544 53.9076,-84.6139 52.9692,-85.9733 51.9495,-87.2748 50.8542,-88.5113 49.7588,-89.7477 48.5897,-90.9168 47.3533,-92.0122 46.1168,-93.1076 44.8153,-94.1272 43.4559,-95.0656 42.0964,-96.0039 40.6815,-96.8593 39.2189,-97.6269 37.7562,-98.3946 36.2485,-99.0731 34.704,-99.6589 33.1595,-100.245 31.581,-100.737 29.9772,-101.132 28.3733,-101.527 26.747,-101.825 25.1072,-102.024 23.4674,-102.223 21.8171,-102.323 20.1652,-102.323 18.5134,-102.323 16.863,-102.223 15.2232,-102.024 13.5834,-101.825 11.9571,-101.527 10.3533,-101.132 8.74943,-100.737 7.17093,-100.245 5.62643,-99.6589 4.08192,-99.0731 2.57422,-98.3946 1.11158,-97.6269 -0.351067,-96.8593 -1.76598,-96.0039 -3.12543,-95.0656 -4.48488,-94.1272 -5.78637,-93.1076 -7.0228,-92.0122 -8.25923,-90.9168 -9.42833,-89.7477 -10.5237,-88.5113 -11.6191,-87.2748 -12.6388,-85.9733 -13.5771,-84.6139 -14.5155,-83.2544 -15.3708,-81.8395 -16.1385,-80.3769 -16.9061,-78.9142 -17.5847,-77.4065 -18.1704,-75.862 -18.7562,-74.3175 -19.2481,-72.739 -19.6434,-71.1352 -20.0387,-69.5313 -20.3367,-67.905 -20.5358,-66.2652 -20.7349,-64.6254 -20.8348,-62.9751 -20.8348,-61.3232 -20.8348,-59.6714 -20.7349,-58.021 -20.5358,-56.3812 -20.3367,-54.7414 -20.0387,-53.1151 -19.6434,-51.5113 -19.2481,-49.9074 -18.7562,-48.3289 -18.1704,-46.7844 -17.5847,-45.2399 -16.9061,-43.7322 -16.1385,-42.2696 -15.3708,-40.8069 -14.5155,-39.392 -13.5771,-38.0326 -12.6387,-36.6731 -11.6191,-35.3716 -10.5237,-34.1352 -10.5237,-34.1352 20.1652,-61.3232 20.1652,-61.3232"/>
<path fill="#787878" stroke="black" stroke-width="0.5" d="M20.1652,-61.3232C20.1652,-61.3232 -10.5237,-34.1352 -10.5237,-34.1352 -9.83922,-33.3626 -9.1258,-32.6161 -8.38498,-31.8973 -7.64415,-31.1785 -6.87644,-30.488 -6.08349,-29.8271 -5.29055,-29.1663 -4.47293,-28.5356 -3.63238,-27.9365 -2.79184,-27.3374 -1.92897,-26.7702 -1.04562,-26.2362 -0.162266,-25.7022 0.740936,-25.2017 1.66206,-24.7359 2.58318,-24.2701 3.52157,-23.8392 4.47521,-23.4442 5.42886,-23.0492 6.39708,-22.6903 7.3778,-22.3684 8.35853,-22.0464 9.35107,-21.7616 10.3533,-21.5146 11.3555,-21.2676 12.3667,-21.0585 13.3847,-20.8878 14.4027,-20.7171 15.4268,-20.5849 16.4548,-20.4915 17.4828,-20.3981 18.5139,-20.3435 19.546,-20.3279 20.5781,-20.3123 21.6104,-20.3357 22.6408,-20.398 23.6711,-20.4604 24.6987,-20.5616 25.7214,-20.7015 26.7441,-20.8413 27.7611,-21.0198 28.7704,-21.2364 29.7796,-21.4531 30.7803,-21.7078 31.7703,-21.9999 32.7603,-22.2921 33.7389,-22.6215 34.704,-22.9876 35.6692,-23.3536 36.6201,-23.7559 37.5549,-24.1937 38.4897,-24.6315 39.4076,-25.1045 40.3067,-25.6116 41.2057,-26.1187 42.0854,-26.6595 42.9436,-27.233 43.8019,-27.8064 44.6382,-28.4121 45.4507,-29.0487 46.2632,-29.6853 47.0515,-30.3523 47.8137,-31.0484 48.5759,-31.7445 49.3115,-32.4691 50.019,-33.2207 50.7265,-33.9723 51.4054,-34.7504 52.0542,-35.5532 52.703,-36.356 53.3212,-37.1831 53.9076,-38.0326 54.4939,-38.8821 55.048,-39.7534 55.5686,-40.6447 56.0892,-41.536 56.576,-42.4467 57.0278,-43.3748 57.4797,-44.3028 57.8964,-45.2476 58.2769,-46.2071 58.6575,-47.1666 59.0017,-48.1401 59.3088,-49.1256 59.6159,-50.1111 59.8856,-51.1078 60.1175,-52.1137 60.3494,-53.1195 60.5431,-54.1337 60.6985,-55.1542 60.8538,-56.1747 60.9705,-57.2006 61.0484,-58.2299 61.1262,-59.2592 61.1652,-60.291 61.1652,-61.3232 61.1652,-61.3232 20.1652,-61.3232 20.1652,-61.3232"/>
<ellipse fill="none" stroke="black" cx="20.1652" cy="-61.3232" rx="41" ry="41"/>
<text text-anchor="middle" x="20.1652" y="-59.4232" font-family="monospace" font-size="8.00">0</text>
</g>
<!-- 1 -->
<g id="node2" class="node"><title>1</title>
<ellipse fill="palegreen" stroke="black" cx="15.396" cy="-177.405" rx="13" ry="13"/>
<text text-anchor="middle" x="15.396" y="-175.505" font-family="monospace" font-size="8.00">1</text>
</g>
<!-- 0&#45;&gt;1 -->
<g id="edge1" class="edge"><title>0&#45;&gt;1</title>
<path fill="none" stroke="black" d="M18.4703,-102.576C17.5815,-124.211 16.5527,-149.251 15.9392,-164.184"/>
</g>
<!-- 2 -->
<g id="node3" class="node"><title>2</title>
<ellipse fill="palegreen" stroke="black" cx="75.0885" cy="-128.008" rx="3.5" ry="3.5"/>
<text text-anchor="middle" x="75.0885" y="-126.108" font-family="monospace" font-size="8.00">2</text>
</g>
<!-- 0&#45;&gt;2 -->
<g id="edge2" class="edge"><title>0&#45;&gt;2</title>
<path fill="none" stroke="black" d="M46.34,-93.1031C56.9496,-105.985 67.8159,-119.178 72.5859,-124.969"/>
</g>
<!-- 3 -->
<g id="node4" class="node"><title>3</title>
<ellipse fill="palegreen" stroke="black" cx="116.544" cy="-90.891" rx="3.5" ry="3.5"/>
<text text-anchor="middle" x="116.544" y="-88.991" font-family="monospace" font-size="8.00">3</text>
</g>
<!-- 0&#45;&gt;3 -->
<g id="edge3" class="edge"><title>0&#45;&gt;3</title>
<path fill="none" stroke="black" d="M59.366,-73.3496C77.4728,-78.9045 97.3348,-84.998 108.232,-88.3411"/>
<polygon fill="black" stroke="black" points="107.763,-90.0277 113.057,-89.8212 108.79,-86.6816 107.763,-90.0277"/>
<text text-anchor="middle" x="99.799" y="-74.4453" font-family="monospace" font-size="8.00">F1529L</text>
</g>
<!-- 4 -->
<g id="node5" class="node"><title>4</title>
<ellipse fill="palegreen" stroke="black" cx="-70.4791" cy="-21.7701" rx="3.5" ry="3.5"/>
<text text-anchor="middle" x="-70.4791" y="-19.8701" font-family="monospace" font-size="8.00">4</text>
</g>
<!-- 0&#45;&gt;4 -->
<g id="edge4" class="edge"><title>0&#45;&gt;4</title>
<path fill="none" stroke="black" d="M-17.4887,-44.8927C-37.3344,-36.233 -59.2004,-26.6916 -67.2647,-23.1727"/>
</g>
<!-- 6 -->
<g id="node7" class="node"><title>6</title>
<ellipse fill="#787878" stroke="black" cx="62.1649" cy="46.957" rx="11.5" ry="11.5"/>
<text text-anchor="middle" x="62.1649" y="48.857" font-family="monospace" font-size="8.00">6</text>
</g>
<!-- 0&#45;&gt;6 -->
<g id="edge5" class="edge"><title>0&#45;&gt;6</title>
<path fill="none" stroke="black" d="M35.091,-22.8428C43.2018,-1.93215 52.6353,22.3885 57.9528,36.0976"/>
</g>
<!-- 7 -->
<g id="node8" class="node"><title>7</title>
<ellipse fill="#787878" stroke="black" cx="-41.4854" cy="-121.632" rx="3.5" ry="3.5"/>
<text text-anchor="middle" x="-41.4854" y="-119.732" font-family="monospace" font-size="8.00">7</text>
</g>
<!-- 0&#45;&gt;7 -->
<g id="edge6" class="edge"><title>0&#45;&gt;7</title>
<path fill="none" stroke="black" d="M-9.2156,-90.0645C-21.1247,-101.714 -33.3219,-113.646 -38.6762,-118.884"/>
</g>
<!-- 9 -->
<g id="node10" class="node"><title>9</title>
<ellipse fill="#787878" stroke="black" cx="102.733" cy="-37.7027" rx="3.5" ry="3.5"/>
<text text-anchor="middle" x="102.733" y="-35.8027" font-family="monospace" font-size="8.00">9</text>
</g>
<!-- 0&#45;&gt;9 -->
<g id="edge7" class="edge"><title>0&#45;&gt;9</title>
<path fill="none" stroke="black" d="M59.9978,-49.9281C75.8333,-45.3979 91.9539,-40.7862 99.0244,-38.7635"/>
</g>
<!-- 10 -->
<g id="node11" class="node"><title>10</title>
<ellipse fill="#787878" stroke="black" cx="-26.1181" cy="10.3631" rx="3.5" ry="3.5"/>
<text text-anchor="middle" x="-26.1181" y="12.2631" font-family="monospace" font-size="8.00">10</text>
</g>
<!-- 0&#45;&gt;10 -->
<g id="edge8" class="edge"><title>0&#45;&gt;10</title>
<path fill="none" stroke="black" d="M-2.16301,-26.7399C-11.0397,-12.9913 -20.0761,1.00487 -24.0395,7.14365"/>
</g>
<!-- 11 -->
<g id="node12" class="node"><title>11</title>
<ellipse fill="#787878" stroke="black" cx="-76.4295" cy="-78.3008" rx="3.5" ry="3.5"/>
<text text-anchor="middle" x="-76.4295" y="-76.4008" font-family="monospace" font-size="8.00">11</text>
</g>
<!-- 0&#45;&gt;11 -->
<g id="edge9" class="edge"><title>0&#45;&gt;11</title>
<path fill="none" stroke="black" d="M-20.24,-68.4249C-41.126,-72.0958 -64.036,-76.1225 -72.7718,-77.6579"/>
</g>
<!-- 5 -->
<g id="node6" class="node"><title>5</title>
<ellipse fill="palegreen" stroke="black" cx="13.9221" cy="-233.181" rx="3.5" ry="3.5"/>
<text text-anchor="middle" x="13.9221" y="-231.281" font-family="monospace" font-size="8.00">5</text>
</g>
<!-- 1&#45;&gt;5 -->
<g id="edge10" class="edge"><title>1&#45;&gt;5</title>
<path fill="none" stroke="black" d="M15.0467,-190.623C14.713,-203.251 14.2311,-221.489 14.0235,-229.344"/>
</g>
<!-- 8 -->
<g id="node9" class="node"><title>8</title>
<ellipse fill="#787878" stroke="black" cx="113.708" cy="70.9735" rx="3.5" ry="3.5"/>
<text text-anchor="middle" x="113.708" y="72.8735" font-family="monospace" font-size="8.00">8</text>
</g>
<!-- 6&#45;&gt;8 -->
<g id="edge11" class="edge"><title>6&#45;&gt;8</title>
<path fill="none" stroke="black" d="M72.5954,51.8171C84.3618,57.2996 102.836,65.9078 110.356,69.4116"/>
</g>
<!-- 12 -->
<g id="node13" class="node"><title>12</title>
<ellipse fill="#787878" stroke="black" cx="39.5812" cy="99.0198" rx="3.5" ry="3.5"/>
<text text-anchor="middle" x="39.5812" y="100.92" font-family="monospace" font-size="8.00">12</text>
</g>
<!-- 6&#45;&gt;12 -->
<g id="edge12" class="edge"><title>6&#45;&gt;12</title>
<path fill="none" stroke="black" d="M57.4856,57.7444C52.3177,69.6581 44.2967,88.1491 41.0348,95.6689"/>
</g>
</g>
</svg>
