<?xml version="1.0" encoding="UTF-8" standalone="no"?>
<!DOCTYPE svg PUBLIC "-//W3C//DTD SVG 1.1//EN"
 "http://www.w3.org/Graphics/SVG/1.1/DTD/svg11.dtd">
<!-- Generated by graphviz version 2.38.0 (20140413.2041)
 -->
<!-- Title: %3 Pages: 1 -->
<svg width="368pt" height="324pt"
 viewBox="0.00 0.00 368.42 323.66" xmlns="http://www.w3.org/2000/svg" xmlns:xlink="http://www.w3.org/1999/xlink">
<g id="graph0" class="graph" transform="scale(1 1) rotate(0) translate(120.691 255.562)">
<title>%3</title>
<polygon fill="white" stroke="none" points="-120.691,68.0959 -120.691,-255.562 247.731,-255.562 247.731,68.0959 -120.691,68.0959"/>
<!-- 0 -->
<g id="node1" class="node"><title>0</title>
<path fill="#1874cd" stroke="black" stroke-width="0.5" d="M67.4533,-66.6956C67.4533,-66.6956 113.453,-66.6956 113.453,-66.6956 113.453,-67.9967 113.398,-69.2973 113.288,-70.5937 113.178,-71.8901 113.012,-73.1813 112.793,-74.4637 112.573,-75.7462 112.299,-77.0187 111.971,-78.2779 111.644,-79.5371 111.263,-80.7818 110.83,-82.0087 110.397,-83.2356 109.912,-84.4436 109.376,-85.6294 108.84,-86.8151 108.255,-87.9777 107.621,-89.1138 106.987,-90.2499 106.305,-91.3587 105.577,-92.437 104.848,-93.5153 104.075,-94.5622 103.258,-95.575 102.441,-96.5877 101.582,-97.5654 100.682,-98.5052 99.7823,-99.4451 98.8431,-100.346 97.8669,-101.207 96.8908,-102.067 95.8786,-102.885 94.833,-103.66 93.7875,-104.434 92.7096,-105.164 91.6022,-105.847 90.4948,-106.53 89.3589,-107.166 88.1976,-107.753 87.0363,-108.339 85.8507,-108.877 84.6438,-109.363 83.437,-109.849 82.21,-110.284 80.9663,-110.666 79.7226,-111.048 78.4633,-111.378 77.1916,-111.653 75.92,-111.928 74.6373,-112.15 73.3469,-112.317 72.0565,-112.483 70.7596,-112.595 69.4598,-112.652 68.1599,-112.709 66.8582,-112.71 65.5582,-112.657 64.2582,-112.603 62.961,-112.494 61.6702,-112.331 60.3795,-112.167 59.0962,-111.949 57.8239,-111.676 56.5516,-111.404 55.2915,-111.078 54.0468,-110.699 52.8022,-110.319 51.5742,-109.888 50.3662,-109.404 49.1582,-108.921 47.9712,-108.387 46.8085,-107.803 45.6458,-107.219 44.5084,-106.586 43.3993,-105.905 42.2903,-105.225 41.2106,-104.498 40.1632,-103.726 39.1158,-102.954 38.1016,-102.138 37.1234,-101.28 36.1451,-100.422 35.2037,-99.5234 34.3017,-98.5857 33.3997,-97.648 32.5379,-96.6725 31.7186,-95.6617 30.8993,-94.6509 30.1232,-93.6059 29.3925,-92.5293 28.6618,-91.4528 27.9771,-90.3457 27.3403,-89.2111 26.7034,-88.0765 26.115,-86.9154 25.5766,-85.7309 25.0382,-84.5464 24.5502,-83.3396 24.1141,-82.1138 23.678,-80.8879 23.2941,-79.6441 22.9635,-78.3857 22.6328,-77.1274 22.3557,-75.8555 22.1329,-74.5736 21.9101,-73.2917 21.7417,-72.001 21.6283,-70.7048 21.5149,-69.4086 21.4566,-68.1082 21.4534,-66.8071 21.4503,-65.506 21.5023,-64.2054 21.6094,-62.9087 21.7165,-61.612 21.8786,-60.3204 22.0952,-59.0375 22.3118,-57.7545 22.5828,-56.4813 22.9073,-55.2213 23.2319,-53.9613 23.6097,-52.7157 24.0399,-51.4878 24.4701,-50.2598 24.9521,-49.0507 25.4848,-47.8636 26.0174,-46.6765 26.6002,-45.5126 27.2316,-44.3749 27.8629,-43.2372 28.5423,-42.1268 29.2677,-41.0468 29.9932,-39.9667 30.7642,-38.9179 31.5786,-37.9031 32.393,-36.8884 33.2501,-35.9087 34.1475,-34.9667 35.045,-34.0246 35.982,-33.1211 36.9561,-32.2584 37.9301,-31.3958 38.9403,-30.5749 39.984,-29.798 41.0276,-29.021 42.1038,-28.2886 43.2095,-27.6029 44.3153,-26.9172 45.4496,-26.2787 46.6095,-25.6891 47.7693,-25.0995 48.9537,-24.5594 50.1594,-24.0703 51.365,-23.5811 52.5909,-23.1433 53.8337,-22.7581 55.0764,-22.3729 56.335,-22.0405 57.6059,-21.762 58.8769,-21.4835 60.1591,-21.259 61.4491,-21.0892 62.7391,-20.9193 64.0357,-20.8043 65.3354,-20.7444 66.6351,-20.6845 67.9368,-20.6798 69.2369,-20.7302 70.5371,-20.7807 71.8345,-20.8863 73.1257,-21.0467 74.4168,-21.2072 75.7006,-21.4223 76.9736,-21.6916 78.2465,-21.9609 79.5075,-22.284 80.753,-22.6602 81.9986,-23.0364 83.2276,-23.4653 84.4368,-23.9456 85.6459,-24.426 86.8342,-24.9575 87.9983,-25.5386 89.1625,-26.1197 90.3014,-26.75 91.4121,-27.4276 92.5228,-28.1053 93.6042,-28.8298 94.6535,-29.5992 95.7028,-30.3685 96.719,-31.1821 97.6993,-32.0376 97.6993,-32.0376 67.4533,-66.6956 67.4533,-66.6956"/>
<path fill="olivedrab" stroke="black" stroke-width="0.5" d="M67.4533,-66.6956C67.4533,-66.6956 97.6993,-32.0376 97.6993,-32.0376 98.9317,-33.1132 100.106,-34.2537 101.217,-35.4544 102.328,-36.6551 103.374,-37.9142 104.351,-39.2263 105.328,-40.5385 106.234,-41.9018 107.066,-43.3104 107.897,-44.7191 108.653,-46.1711 109.33,-47.6603 110.007,-49.1495 110.604,-50.6738 111.118,-52.2266 111.633,-53.7794 112.064,-55.3585 112.411,-56.9573 112.757,-58.556 113.018,-60.1721 113.192,-61.7986 113.366,-63.4251 113.453,-65.0598 113.453,-66.6956 113.453,-66.6956 67.4533,-66.6956 67.4533,-66.6956"/>
<ellipse fill="none" stroke="black" cx="67.4533" cy="-66.6956" rx="46" ry="46"/>
</g>
<!-- 1 -->
<g id="node2" class="node"><title>1</title>
<ellipse fill="#1874cd" stroke="black" cx="20.5403" cy="9.53304" rx="5" ry="5"/>
</g>
<!-- 1&#45;&#45;0 -->
<g id="edge1" class="edge"><title>1&#45;&#45;0</title>
<path fill="none" stroke="black" d="M23.3345,4.99287C27.3585,-1.54573 35.1798,-14.2546 43.1337,-27.1788"/>
</g>
<!-- 2 -->
<g id="node3" class="node"><title>2</title>
<ellipse fill="#1874cd" stroke="black" cx="144.594" cy="-22.9158" rx="5" ry="5"/>
</g>
<!-- 2&#45;&#45;0 -->
<g id="edge2" class="edge"><title>2&#45;&#45;0</title>
<path fill="none" stroke="black" d="M140,-25.5233C133.448,-29.2417 120.774,-36.4348 107.828,-43.7819"/>
</g>
<!-- 3 -->
<g id="node4" class="node"><title>3</title>
<ellipse fill="#1874cd" stroke="black" cx="58.8719" cy="22.3232" rx="5" ry="5"/>
</g>
<!-- 3&#45;&#45;0 -->
<g id="edge3" class="edge"><title>3&#45;&#45;0</title>
<path fill="none" stroke="black" d="M59.3579,17.2821C60.0883,9.70538 61.5414,-5.36879 63.0175,-20.6808"/>
</g>
<!-- 4 -->
<g id="node5" class="node"><title>4</title>
<ellipse fill="#1874cd" stroke="black" cx="236.829" cy="-6.47791" rx="3.5" ry="3.5"/>
</g>
<!-- anon_4_0_0 -->
<g id="node30" class="node"><title>anon_4_0_0</title>
<ellipse fill="white" stroke="black" cx="197.007" cy="-22.5481" rx="2.5" ry="2.5"/>
</g>
<!-- 4&#45;&#45;anon_4_0_0 -->
<g id="edge4" class="edge"><title>4&#45;&#45;anon_4_0_0</title>
<path fill="none" stroke="black" d="M233.433,-7.84804C225.609,-11.0056 206.452,-18.7365 199.543,-21.5245"/>
</g>
<!-- 5 -->
<g id="node6" class="node"><title>5</title>
<ellipse fill="#1874cd" stroke="black" cx="-8.17141" cy="-110.677" rx="3.5" ry="3.5"/>
</g>
<!-- 5&#45;&#45;0 -->
<g id="edge7" class="edge"><title>5&#45;&#45;0</title>
<path fill="none" stroke="black" d="M-4.92191,-108.787C0.958573,-105.368 14.0059,-97.7795 27.4265,-89.9743"/>
</g>
<!-- 6 -->
<g id="node7" class="node"><title>6</title>
<ellipse fill="#1874cd" stroke="black" cx="18.7289" cy="-138.685" rx="3.5" ry="3.5"/>
</g>
<!-- 6&#45;&#45;0 -->
<g id="edge8" class="edge"><title>6&#45;&#45;0</title>
<path fill="none" stroke="black" d="M20.8226,-135.592C24.6113,-129.994 33.0176,-117.574 41.6644,-104.798"/>
</g>
<!-- 7 -->
<g id="node8" class="node"><title>7</title>
<ellipse fill="#1874cd" stroke="black" cx="2.91993" cy="-125.592" rx="3.5" ry="3.5"/>
</g>
<!-- 7&#45;&#45;0 -->
<g id="edge9" class="edge"><title>7&#45;&#45;0</title>
<path fill="none" stroke="black" d="M5.69285,-123.061C10.7109,-118.481 21.8446,-108.32 33.2969,-97.8682"/>
</g>
<!-- 8 -->
<g id="node9" class="node"><title>8</title>
<ellipse fill="#1874cd" stroke="black" cx="22.9099" cy="60.5959" rx="3.5" ry="3.5"/>
</g>
<!-- anon_8_0_0 -->
<g id="node32" class="node"><title>anon_8_0_0</title>
<ellipse fill="white" stroke="black" cx="37.5176" cy="19.9215" rx="2.5" ry="2.5"/>
</g>
<!-- 8&#45;&#45;anon_8_0_0 -->
<g id="edge10" class="edge"><title>8&#45;&#45;anon_8_0_0</title>
<path fill="none" stroke="black" d="M24.1553,57.128C27.0255,49.1361 34.0529,29.5689 36.5872,22.5122"/>
</g>
<!-- 9 -->
<g id="node10" class="node"><title>9</title>
<ellipse fill="#1874cd" stroke="black" cx="95.9768" cy="15.8891" rx="3.5" ry="3.5"/>
</g>
<!-- 9&#45;&#45;0 -->
<g id="edge12" class="edge"><title>9&#45;&#45;0</title>
<path fill="none" stroke="black" d="M94.7512,12.3405C92.5333,5.91882 87.6122,-8.3293 82.5503,-22.985"/>
</g>
<!-- 10 -->
<g id="node11" class="node"><title>10</title>
<ellipse fill="#1874cd" stroke="black" cx="55.7142" cy="-248.062" rx="3.5" ry="3.5"/>
</g>
<!-- 11 -->
<g id="node12" class="node"><title>11</title>
<ellipse fill="#1874cd" stroke="black" cx="151.822" cy="-88.0154" rx="3.5" ry="3.5"/>
</g>
<!-- 11&#45;&#45;0 -->
<g id="edge13" class="edge"><title>11&#45;&#45;0</title>
<path fill="none" stroke="black" d="M148.197,-87.0993C141.637,-85.4415 127.081,-81.7633 112.108,-77.9798"/>
</g>
<!-- 12 -->
<g id="node13" class="node"><title>12</title>
<ellipse fill="#1874cd" stroke="black" cx="77.3819" cy="20.3006" rx="3.5" ry="3.5"/>
</g>
<!-- 12&#45;&#45;0 -->
<g id="edge14" class="edge"><title>12&#45;&#45;0</title>
<path fill="none" stroke="black" d="M76.9552,16.5625C76.1832,9.79775 74.4703,-5.21147 72.7083,-20.6501"/>
</g>
<!-- 13 -->
<g id="node14" class="node"><title>13</title>
<ellipse fill="#1874cd" stroke="black" cx="6.08052" cy="-184.808" rx="3.5" ry="3.5"/>
</g>
<!-- anon_13_0_0 -->
<g id="node33" class="node"><title>anon_13_0_0</title>
<ellipse fill="white" stroke="black" cx="29.3989" cy="-148.575" rx="2.5" ry="2.5"/>
</g>
<!-- 13&#45;&#45;anon_13_0_0 -->
<g id="edge15" class="edge"><title>13&#45;&#45;anon_13_0_0</title>
<path fill="none" stroke="black" d="M8.23246,-181.464C12.9228,-174.176 23.9645,-157.019 27.9403,-150.842"/>
</g>
<!-- 14 -->
<g id="node15" class="node"><title>14</title>
<ellipse fill="#1874cd" stroke="black" cx="7.26383" cy="-2.82617" rx="3.5" ry="3.5"/>
</g>
<!-- 14&#45;&#45;0 -->
<g id="edge17" class="edge"><title>14&#45;&#45;0</title>
<path fill="none" stroke="black" d="M9.8501,-5.57056C14.5754,-10.5847 25.1149,-21.7687 35.9043,-33.2177"/>
</g>
<!-- 15 -->
<g id="node16" class="node"><title>15</title>
<ellipse fill="#1874cd" stroke="black" cx="140.69" cy="-131.071" rx="3.5" ry="3.5"/>
</g>
<!-- 15&#45;&#45;0 -->
<g id="edge18" class="edge"><title>15&#45;&#45;0</title>
<path fill="none" stroke="black" d="M137.908,-128.626C131.847,-123.298 116.812,-110.083 102.182,-97.222"/>
</g>
<!-- 16 -->
<g id="node17" class="node"><title>16</title>
<ellipse fill="#1874cd" stroke="black" cx="132.295" cy="50.9607" rx="3.5" ry="3.5"/>
</g>
<!-- anon_16_0_0 -->
<g id="node34" class="node"><title>anon_16_0_0</title>
<ellipse fill="white" stroke="black" cx="113.006" cy="12.3375" rx="2.5" ry="2.5"/>
</g>
<!-- 16&#45;&#45;anon_16_0_0 -->
<g id="edge19" class="edge"><title>16&#45;&#45;anon_16_0_0</title>
<path fill="none" stroke="black" d="M130.515,47.3963C126.635,39.6276 117.502,21.3387 114.213,14.7535"/>
</g>
<!-- 17 -->
<g id="node18" class="node"><title>17</title>
<ellipse fill="#1874cd" stroke="black" cx="63.0115" cy="-161.614" rx="3.5" ry="3.5"/>
</g>
<!-- 17&#45;&#45;0 -->
<g id="edge21" class="edge"><title>17&#45;&#45;0</title>
<path fill="none" stroke="black" d="M63.1802,-158.009C63.5415,-150.288 64.4284,-131.336 65.3011,-112.686"/>
</g>
<!-- anon_17_10_0 -->
<g id="node35" class="node"><title>anon_17_10_0</title>
<ellipse fill="white" stroke="black" cx="60.0024" cy="-205.34" rx="2.5" ry="2.5"/>
</g>
<!-- 17&#45;&#45;anon_17_10_0 -->
<g id="edge22" class="edge"><title>17&#45;&#45;anon_17_10_0</title>
<path fill="none" stroke="black" d="M62.755,-165.342C62.1637,-173.934 60.7162,-194.969 60.1941,-202.555"/>
</g>
<!-- 18 -->
<g id="node19" class="node"><title>18</title>
<ellipse fill="#1874cd" stroke="black" cx="154.472" cy="-67.4953" rx="3.5" ry="3.5"/>
</g>
<!-- 18&#45;&#45;0 -->
<g id="edge24" class="edge"><title>18&#45;&#45;0</title>
<path fill="none" stroke="black" d="M150.733,-67.4609C143.967,-67.3987 128.954,-67.2608 113.511,-67.1189"/>
</g>
<!-- 19 -->
<g id="node20" class="node"><title>19</title>
<ellipse fill="#1874cd" stroke="black" cx="110.263" cy="-142.163" rx="3.5" ry="3.5"/>
</g>
<!-- 19&#45;&#45;0 -->
<g id="edge25" class="edge"><title>19&#45;&#45;0</title>
<path fill="none" stroke="black" d="M108.424,-138.921C105.127,-133.109 97.8506,-120.282 90.3308,-107.026"/>
</g>
<!-- 20 -->
<g id="node21" class="node"><title>20</title>
<ellipse fill="#1874cd" stroke="black" cx="-4.2189" cy="-15.9585" rx="3.5" ry="3.5"/>
</g>
<!-- 20&#45;&#45;0 -->
<g id="edge26" class="edge"><title>20&#45;&#45;0</title>
<path fill="none" stroke="black" d="M-1.13924,-18.1386C4.48749,-22.1218 17.0377,-31.0062 29.8855,-40.1012"/>
</g>
<!-- 21 -->
<g id="node22" class="node"><title>21</title>
<ellipse fill="#1874cd" stroke="black" cx="-113.191" cy="-68.5066" rx="3.5" ry="3.5"/>
</g>
<!-- anon_21_0_0 -->
<g id="node36" class="node"><title>anon_21_0_0</title>
<ellipse fill="white" stroke="black" cx="-70.2387" cy="-68.9058" rx="2.5" ry="2.5"/>
</g>
<!-- 21&#45;&#45;anon_21_0_0 -->
<g id="edge27" class="edge"><title>21&#45;&#45;anon_21_0_0</title>
<path fill="none" stroke="black" d="M-109.529,-68.5407C-101.09,-68.6191 -80.4264,-68.8111 -72.9745,-68.8804"/>
</g>
<!-- 22 -->
<g id="node23" class="node"><title>22</title>
<ellipse fill="olivedrab" stroke="black" cx="130.635" cy="-6.6565" rx="3.5" ry="3.5"/>
</g>
<!-- 22&#45;&#45;0 -->
<g id="edge30" class="edge"><title>22&#45;&#45;0</title>
<path fill="none" stroke="black" d="M127.92,-9.2363C123.007,-13.9049 112.107,-24.2633 100.894,-34.918"/>
</g>
<!-- 23 -->
<g id="node24" class="node"><title>23</title>
<ellipse fill="olivedrab" stroke="black" cx="143.041" cy="-109.009" rx="3.5" ry="3.5"/>
</g>
<!-- 23&#45;&#45;0 -->
<g id="edge31" class="edge"><title>23&#45;&#45;0</title>
<path fill="none" stroke="black" d="M139.793,-107.191C133.972,-103.932 121.125,-96.7405 107.847,-89.3079"/>
</g>
<!-- 24 -->
<g id="node25" class="node"><title>24</title>
<ellipse fill="#1874cd" stroke="black" cx="-18.3461" cy="-50.732" rx="3.5" ry="3.5"/>
</g>
<!-- 24&#45;&#45;0 -->
<g id="edge32" class="edge"><title>24&#45;&#45;0</title>
<path fill="none" stroke="black" d="M-14.6594,-51.418C-7.98779,-52.6593 6.81495,-55.4134 22.0412,-58.2464"/>
</g>
<!-- 25 -->
<g id="node26" class="node"><title>25</title>
<ellipse fill="#1874cd" stroke="black" cx="89.3308" cy="-150.671" rx="3.5" ry="3.5"/>
</g>
<!-- 25&#45;&#45;0 -->
<g id="edge33" class="edge"><title>25&#45;&#45;0</title>
<path fill="none" stroke="black" d="M88.3907,-147.063C86.7059,-140.596 82.9875,-126.323 79.1446,-111.572"/>
</g>
<!-- 26 -->
<g id="node27" class="node"><title>26</title>
<ellipse fill="#1874cd" stroke="black" cx="-12.869" cy="-31.5702" rx="3.5" ry="3.5"/>
</g>
<!-- 26&#45;&#45;0 -->
<g id="edge34" class="edge"><title>26&#45;&#45;0</title>
<path fill="none" stroke="black" d="M-9.41766,-33.0795C-3.1719,-35.8108 10.6859,-41.8709 24.9401,-48.1044"/>
</g>
<!-- 27 -->
<g id="node28" class="node"><title>27</title>
<ellipse fill="#1874cd" stroke="black" cx="-15.8117" cy="-93.0524" rx="3.5" ry="3.5"/>
</g>
<!-- 27&#45;&#45;0 -->
<g id="edge35" class="edge"><title>27&#45;&#45;0</title>
<path fill="none" stroke="black" d="M-12.2339,-91.9199C-5.7593,-89.8704 8.60618,-85.3231 23.3826,-80.6458"/>
</g>
<!-- 28 -->
<g id="node29" class="node"><title>28</title>
<ellipse fill="#1874cd" stroke="black" cx="240.231" cy="-213.705" rx="3.5" ry="3.5"/>
</g>
<!-- anon_28_15_0 -->
<g id="node38" class="node"><title>anon_28_15_0</title>
<ellipse fill="white" stroke="black" cx="207.277" cy="-186.503" rx="2.5" ry="2.5"/>
</g>
<!-- 28&#45;&#45;anon_28_15_0 -->
<g id="edge36" class="edge"><title>28&#45;&#45;anon_28_15_0</title>
<path fill="none" stroke="black" d="M237.19,-211.195C230.562,-205.723 214.957,-192.842 209.339,-188.204"/>
</g>
<!-- anon_4_0_1 -->
<g id="node31" class="node"><title>anon_4_0_1</title>
<ellipse fill="white" stroke="black" cx="157.036" cy="-37.6063" rx="2.5" ry="2.5"/>
</g>
<!-- anon_4_0_0&#45;&#45;anon_4_0_1 -->
<g id="edge5" class="edge"><title>anon_4_0_0&#45;&#45;anon_4_0_1</title>
<path fill="none" stroke="black" d="M194.384,-23.5361C187.159,-26.258 167.019,-33.8453 159.721,-36.5949"/>
</g>
<!-- anon_4_0_1&#45;&#45;0 -->
<g id="edge6" class="edge"><title>anon_4_0_1&#45;&#45;0</title>
<path fill="none" stroke="black" d="M154.452,-38.4455C147.854,-40.588 129.628,-46.5064 111.552,-52.376"/>
</g>
<!-- anon_8_0_0&#45;&#45;0 -->
<g id="edge11" class="edge"><title>anon_8_0_0&#45;&#45;0</title>
<path fill="none" stroke="black" d="M38.3812,17.4226C40.5478,11.1538 46.4661,-5.97033 52.4019,-23.1452"/>
</g>
<!-- anon_13_0_0&#45;&#45;0 -->
<g id="edge16" class="edge"><title>anon_13_0_0&#45;&#45;0</title>
<path fill="none" stroke="black" d="M30.4968,-146.213C33.2022,-140.392 40.5094,-124.669 47.9192,-108.726"/>
</g>
<!-- anon_16_0_0&#45;&#45;0 -->
<g id="edge20" class="edge"><title>anon_16_0_0&#45;&#45;0</title>
<path fill="none" stroke="black" d="M111.692,10.0574C108.425,4.38815 99.5485,-11.0115 90.5968,-26.5424"/>
</g>
<!-- anon_17_10_0&#45;&#45;10 -->
<g id="edge23" class="edge"><title>anon_17_10_0&#45;&#45;10</title>
<path fill="none" stroke="black" d="M59.747,-207.884C59.0186,-215.142 56.9288,-235.961 56.0795,-244.422"/>
</g>
<!-- anon_21_0_1 -->
<g id="node37" class="node"><title>anon_21_0_1</title>
<ellipse fill="white" stroke="black" cx="-27.4554" cy="-68.9381" rx="2.5" ry="2.5"/>
</g>
<!-- anon_21_0_0&#45;&#45;anon_21_0_1 -->
<g id="edge28" class="edge"><title>anon_21_0_0&#45;&#45;anon_21_0_1</title>
<path fill="none" stroke="black" d="M-67.6905,-68.9078C-60.207,-68.9134 -38.3228,-68.9299 -30.3793,-68.9359"/>
</g>
<!-- anon_21_0_1&#45;&#45;0 -->
<g id="edge29" class="edge"><title>anon_21_0_1&#45;&#45;0</title>
<path fill="none" stroke="black" d="M-24.7174,-68.8734C-17.6662,-68.7068 1.91957,-68.244 21.2326,-67.7877"/>
</g>
<!-- anon_28_15_1 -->
<g id="node39" class="node"><title>anon_28_15_1</title>
<ellipse fill="white" stroke="black" cx="174.684" cy="-159.516" rx="2.5" ry="2.5"/>
</g>
<!-- anon_28_15_0&#45;&#45;anon_28_15_1 -->
<g id="edge37" class="edge"><title>anon_28_15_0&#45;&#45;anon_28_15_1</title>
<path fill="none" stroke="black" d="M205.139,-184.732C199.247,-179.854 182.825,-166.256 176.874,-161.328"/>
</g>
<!-- anon_28_15_1&#45;&#45;15 -->
<g id="edge38" class="edge"><title>anon_28_15_1&#45;&#45;15</title>
<path fill="none" stroke="black" d="M172.454,-157.65C166.545,-152.706 150.482,-139.264 143.737,-133.62"/>
</g>
</g>
</svg>
