<?xml version="1.0" encoding="UTF-8" standalone="no"?>
<!DOCTYPE svg PUBLIC "-//W3C//DTD SVG 1.1//EN"
 "http://www.w3.org/Graphics/SVG/1.1/DTD/svg11.dtd">
<!-- Generated by graphviz version 2.38.0 (20140413.2041)
 -->
<!-- Title: %3 Pages: 1 -->
<svg width="584pt" height="601pt"
 viewBox="0.00 0.00 584.01 601.34" xmlns="http://www.w3.org/2000/svg" xmlns:xlink="http://www.w3.org/1999/xlink">
<g id="graph0" class="graph" transform="scale(1 1) rotate(0) translate(273.83 380.429)">
<title>%3</title>
<polygon fill="white" stroke="none" points="-273.83,220.914 -273.83,-380.429 310.176,-380.429 310.176,220.914 -273.83,220.914"/>
<!-- 0 -->
<g id="node1" class="node"><title>0</title>
<path fill="#ff3030" stroke="black" stroke-width="0.5" d="M-21.2582,-55.586C-21.2582,-55.586 13.2418,-55.586 13.2418,-55.586 13.2418,-57.1405 13.1368,-58.6932 12.9274,-60.2335 12.7179,-61.7739 12.4047,-63.2983 11.9897,-64.7964 11.9897,-64.7964 -21.2582,-55.586 -21.2582,-55.586"/>
<path fill="deepskyblue" stroke="black" stroke-width="0.5" d="M-21.2582,-55.586C-21.2582,-55.586 11.9897,-64.7964 11.9897,-64.7964 11.6785,-65.9197 11.3105,-67.0266 10.8873,-68.1127 10.464,-69.1989 9.98601,-70.2628 9.45505,-71.3006 8.92409,-72.3383 8.34088,-73.3485 7.70766,-74.3271 7.07443,-75.3058 6.39202,-76.2518 5.66303,-77.1614 5.66303,-77.1614 -21.2582,-55.586 -21.2582,-55.586"/>
<path fill="brown" stroke="black" stroke-width="0.5" d="M-21.2582,-55.586C-21.2582,-55.586 5.66303,-77.1614 5.66303,-77.1614 5.0328,-77.9478 4.36841,-78.7062 3.67178,-79.4344 2.97514,-80.1626 2.24694,-80.86 1.48926,-81.5245 0.731573,-82.1889 -0.0548611,-82.8199 -0.867783,-83.4155 -1.68071,-84.0111 -2.51933,-84.5708 -3.38126,-85.093 -4.24318,-85.6152 -5.12757,-86.0994 -6.03189,-86.5442 -6.9362,-86.989 -7.85957,-87.3939 -8.79933,-87.7578 -9.7391,-88.1218 -10.6944,-88.4443 -11.6624,-88.7246 -12.6304,-89.005 -13.6102,-89.2427 -14.599,-89.4372 -15.5878,-89.6317 -16.5847,-89.7828 -17.5868,-89.8901 -18.5888,-89.9973 -19.5951,-90.0606 -20.6027,-90.0798 -21.6102,-90.0989 -22.6182,-90.0739 -23.6236,-90.0048 -24.629,-89.9357 -25.6309,-89.8226 -26.6264,-89.6658 -27.6219,-89.509 -28.61,-89.3086 -29.588,-89.0653 -30.5659,-88.822 -31.5328,-88.5359 -32.4857,-88.208 -33.4386,-87.88 -34.3767,-87.5104 -35.2972,-87.1004 -36.2178,-86.6903 -37.12,-86.24 -38.0011,-85.751 -38.8822,-85.2619 -39.7415,-84.7344 -40.5765,-84.1701 -41.4115,-83.6058 -42.2213,-83.0052 -43.0037,-82.37 -43.7861,-81.7348 -44.5402,-81.0656 -45.264,-80.3644 -45.9878,-79.6632 -46.6805,-78.9306 -47.3402,-78.1687 -47.9999,-77.4068 -48.6258,-76.6164 -49.2163,-75.7997 -49.8067,-74.983 -50.3611,-74.1409 -50.8779,-73.2757 -51.3946,-72.4104 -51.8732,-71.523 -52.3122,-70.6159 -52.7512,-69.7088 -53.1503,-68.7829 -53.5083,-67.8408 -53.8663,-66.8988 -54.1828,-65.9415 -54.4569,-64.9717 -54.7311,-64.002 -54.9626,-63.0206 -55.1509,-62.0306 -55.3392,-61.0406 -55.4839,-60.0428 -55.5848,-59.0401 -55.6857,-58.0374 -55.7426,-57.0307 -55.7554,-56.023 -55.7682,-55.0153 -55.7368,-54.0076 -55.6613,-53.0026 -55.5859,-51.9977 -55.4664,-50.9965 -55.3033,-50.002 -55.1402,-49.0076 -54.9336,-48.0207 -54.6841,-47.0443 -54.4345,-46.0679 -54.1424,-45.1029 -53.8084,-44.1521 -53.4744,-43.2013 -53.0989,-42.2655 -52.683,-41.3476 -52.2671,-40.4297 -51.8111,-39.5304 -51.3165,-38.6524 -50.8218,-37.7743 -50.289,-36.9184 -49.7194,-36.087 -49.1498,-35.2556 -48.5441,-34.4496 -47.9039,-33.6713 -47.2638,-32.8929 -46.5898,-32.143 -45.884,-31.4237 -45.1782,-30.7043 -44.4412,-30.0163 -43.6752,-29.3615 -42.9092,-28.7066 -42.1148,-28.0857 -41.2944,-27.5004 -40.474,-26.9151 -39.6283,-26.3661 -38.7599,-25.8549 -37.8914,-25.3436 -37.001,-24.8707 -36.0911,-24.4374 -35.1812,-24.0041 -34.2528,-23.6109 -33.3085,-23.2589 -32.3642,-22.9069 -31.4049,-22.5965 -30.4334,-22.3284 -29.462,-22.0604 -28.4792,-21.8351 -27.488,-21.6531 -26.4968,-21.4712 -25.4981,-21.3327 -24.4948,-21.2381 -23.4914,-21.1436 -22.4844,-21.0931 -21.4767,-21.0867 -20.4689,-21.0803 -19.4614,-21.1181 -18.4569,-21.1999 -17.4525,-21.2817 -16.4521,-21.4075 -15.4587,-21.5769 -14.4653,-21.7463 -13.4797,-21.9592 -12.5049,-22.2149 -11.5301,-22.4706 -10.567,-22.7689 -9.61833,-23.1089 -8.66965,-23.4489 -7.73632,-23.8303 -6.82103,-24.252 -5.90574,-24.6737 -5.00937,-25.1354 -4.13449,-25.6355 -3.25961,-26.1357 -2.40707,-26.674 -1.57932,-27.2489 -0.751575,-27.8237 0.0505907,-28.4345 0.824864,-29.0796 1.59914,-29.7247 2.34477,-30.4033 3.05963,-31.1137 3.77448,-31.824 4.45787,-32.5653 5.10783,-33.3355 5.75778,-34.1057 6.37368,-34.904 6.95374,-35.7281 7.53381,-36.5521 8.07749,-37.4013 8.58322,-38.273 9.08894,-39.1446 9.55623,-40.0381 9.98374,-40.9507 10.4113,-41.8633 10.7986,-42.7942 11.1446,-43.7407 11.4906,-44.6872 11.795,-45.6484 12.0568,-46.6216 12.3187,-47.5947 12.5378,-48.5789 12.7135,-49.5712 12.8892,-50.5636 13.0213,-51.5631 13.1095,-52.567 13.1977,-53.5709 13.2418,-54.5782 13.2418,-55.586 13.2418,-55.586 -21.2582,-55.586 -21.2582,-55.586"/>
<ellipse fill="none" stroke="black" cx="-21.2582" cy="-55.586" rx="34.5" ry="34.5"/>
<text text-anchor="middle" x="-21.2582" y="-53.086" font-family="Times,serif" font-size="10.00">0</text>
</g>
<!-- 1 -->
<g id="node2" class="node"><title>1</title>
<path fill="#ff3030" stroke="black" stroke-width="0.5" d="M79.5294,87.0499C79.5294,87.0499 113.529,87.0499 113.529,87.0499 113.529,85.5164 113.426,83.9846 113.219,82.465 113.012,80.9455 112.703,79.4416 112.293,77.9638 111.883,76.486 111.374,75.0377 110.768,73.6287 110.163,72.2196 109.463,70.8532 108.673,69.5386 107.883,68.2241 107.005,66.9645 106.045,65.7685 105.086,64.5725 104.046,63.4429 102.933,62.3872 101.821,61.3316 100.638,60.3524 99.3939,59.4564 98.1493,58.5604 96.8455,57.7497 95.4914,57.0297 94.1374,56.3098 92.7361,55.6822 91.2974,55.1514 89.8586,54.6206 88.3855,54.1878 86.8883,53.8559 85.3911,53.524 83.8732,53.2937 82.3449,53.1667 80.8166,53.0397 79.2814,53.0163 77.75,53.0965 76.2185,53.1768 74.6942,53.3606 73.1876,53.6466 71.6809,53.9327 70.1953,54.3203 68.741,54.8069 67.2867,55.2935 65.867,55.878 64.4916,56.5563 63.1162,57.2346 61.7882,58.0051 60.5168,58.8627 60.5168,58.8627 79.5294,87.0499 79.5294,87.0499"/>
<path fill="deepskyblue" stroke="black" stroke-width="0.5" d="M79.5294,87.0499C79.5294,87.0499 60.5168,58.8627 60.5168,58.8627 59.3686,59.6372 58.2687,60.4811 57.2234,61.3898 56.1781,62.2985 55.1892,63.2702 54.2625,64.2995 53.3357,65.3288 52.4727,66.4138 51.6782,67.5483 50.8838,68.6829 50.1594,69.865 49.5092,71.0879 48.8589,72.3108 48.284,73.5724 47.7877,74.8654 47.2913,76.1585 46.8744,77.4807 46.5393,78.8246 46.2043,80.1685 45.9516,81.5317 45.7828,82.9064 45.614,84.2811 45.5294,85.6649 45.5294,87.0499 45.5294,88.435 45.614,89.8188 45.7828,91.1935 45.9516,92.5682 46.2043,93.9314 46.5393,95.2753 46.8744,96.6192 47.2913,97.9414 47.7877,99.2345 48.284,100.528 48.8589,101.789 49.5092,103.012 50.1594,104.235 50.8838,105.417 51.6782,106.552 52.4727,107.686 53.3357,108.771 54.2625,109.8 55.1893,110.83 56.1781,111.801 57.2234,112.71 58.2687,113.619 59.3686,114.463 60.5168,115.237 60.5168,115.237 79.5294,87.0499 79.5294,87.0499"/>
<path fill="#98f5ff" stroke="black" stroke-width="0.5" d="M79.5294,87.0499C79.5294,87.0499 60.5168,115.237 60.5168,115.237 61.3369,115.79 62.1807,116.307 63.0459,116.787 63.911,117.267 64.7967,117.708 65.7003,118.11 66.604,118.513 67.5248,118.876 68.4601,119.198 69.3954,119.52 70.3443,119.801 71.3041,120.04 71.3041,120.04 79.5294,87.0499 79.5294,87.0499"/>
<path fill="#1874cd" stroke="black" stroke-width="0.5" d="M79.5294,87.0499C79.5294,87.0499 71.3041,120.04 71.3041,120.04 72.5519,120.351 73.8164,120.591 75.0915,120.759 76.3666,120.927 77.6501,121.022 78.936,121.045 80.2219,121.067 81.508,121.017 82.7881,120.893 84.0683,120.77 85.3404,120.574 86.5984,120.307 87.8564,120.04 89.0981,119.701 90.3178,119.293 91.5374,118.885 92.7328,118.408 93.8984,117.864 95.064,117.321 96.1978,116.712 97.2943,116.04 98.3909,115.368 99.4484,114.634 100.462,113.842 101.475,113.051 102.443,112.202 103.36,111.3 104.278,110.399 105.143,109.446 105.952,108.447 106.762,107.447 107.514,106.403 108.205,105.318 108.896,104.233 109.525,103.11 110.088,101.955 110.652,100.799 111.15,99.6117 111.579,98.3994 112.009,97.1871 112.369,95.9514 112.658,94.6983 112.947,93.4452 113.165,92.1767 113.311,90.8989 113.456,89.6211 113.529,88.336 113.529,87.0499 113.529,87.0499 79.5294,87.0499 79.5294,87.0499"/>
<ellipse fill="none" stroke="black" cx="79.5294" cy="87.0499" rx="34" ry="34"/>
<text text-anchor="middle" x="79.5294" y="89.5499" font-family="Times,serif" font-size="10.00">1</text>
</g>
<!-- 0&#45;&#45;1 -->
<g id="edge1" class="edge"><title>0&#45;&#45;1</title>
<path fill="none" stroke="black" d="M-1.3458,-27.4057C16.3236,-2.39969 42.0014,33.9399 59.6584,58.9282"/>
</g>
<!-- 40 -->
<g id="node41" class="node"><title>40</title>
<ellipse fill="brown" stroke="black" cx="-16.4986" cy="9.01771" rx="3.5" ry="3.5"/>
<text text-anchor="middle" x="-16.4986" y="11.5177" font-family="Times,serif" font-size="10.00">40</text>
</g>
<!-- 0&#45;&#45;40 -->
<g id="edge5" class="edge"><title>0&#45;&#45;40</title>
<path fill="none" stroke="black" d="M-18.7112,-21.0146C-17.9155,-10.2146 -17.1449,0.245439 -16.7575,5.50421"/>
</g>
<!-- anon_0_18_0 -->
<g id="node61" class="node"><title>anon_0_18_0</title>
<ellipse fill="white" stroke="black" cx="-93.2396" cy="-82.2014" rx="2.5" ry="2.5"/>
</g>
<!-- 0&#45;&#45;anon_0_18_0 -->
<g id="edge2" class="edge"><title>0&#45;&#45;anon_0_18_0</title>
<path fill="none" stroke="black" d="M-53.8792,-67.6477C-68.7584,-73.1494 -84.4125,-78.9375 -90.5492,-81.2066"/>
</g>
<!-- 33 -->
<g id="node34" class="node"><title>33</title>
<ellipse fill="deepskyblue" stroke="black" cx="10.0599" cy="116.934" rx="3.5" ry="3.5"/>
<text text-anchor="middle" x="10.0599" y="119.434" font-family="Times,serif" font-size="10.00">33</text>
</g>
<!-- 1&#45;&#45;33 -->
<g id="edge6" class="edge"><title>1&#45;&#45;33</title>
<path fill="none" stroke="black" d="M48.0468,100.593C34.2612,106.523 19.7864,112.75 13.4105,115.493"/>
</g>
<!-- 39 -->
<g id="node40" class="node"><title>39</title>
<ellipse fill="#98f5ff" stroke="black" cx="87.9402" cy="18.8171" rx="3.5" ry="3.5"/>
<text text-anchor="middle" x="87.9402" y="21.3171" font-family="Times,serif" font-size="10.00">39</text>
</g>
<!-- 1&#45;&#45;39 -->
<g id="edge7" class="edge"><title>1&#45;&#45;39</title>
<path fill="none" stroke="black" d="M83.7348,52.9335C85.2461,40.6729 86.7574,28.4123 87.488,22.4856"/>
</g>
<!-- 41 -->
<g id="node42" class="node"><title>41</title>
<ellipse fill="deepskyblue" stroke="black" cx="149.182" cy="52.1666" rx="3.5" ry="3.5"/>
<text text-anchor="middle" x="149.182" y="54.6666" font-family="Times,serif" font-size="10.00">41</text>
</g>
<!-- 1&#45;&#45;41 -->
<g id="edge8" class="edge"><title>1&#45;&#45;41</title>
<path fill="none" stroke="black" d="M110.283,71.6481C124.277,64.6395 139.161,57.1855 145.728,53.8965"/>
</g>
<!-- 51 -->
<g id="node52" class="node"><title>51</title>
<ellipse fill="#1874cd" stroke="black" cx="177.152" cy="90.4213" rx="3.5" ry="3.5"/>
<text text-anchor="middle" x="177.152" y="92.9213" font-family="Times,serif" font-size="10.00">51</text>
</g>
<!-- 1&#45;&#45;51 -->
<g id="edge9" class="edge"><title>1&#45;&#45;51</title>
<path fill="none" stroke="black" d="M113.673,88.2291C136.326,89.0114 163.626,89.9542 173.426,90.2926"/>
</g>
<!-- 52 -->
<g id="node53" class="node"><title>52</title>
<ellipse fill="deepskyblue" stroke="black" cx="130.568" cy="138.478" rx="3.5" ry="3.5"/>
<text text-anchor="middle" x="130.568" y="140.978" font-family="Times,serif" font-size="10.00">52</text>
</g>
<!-- 1&#45;&#45;52 -->
<g id="edge10" class="edge"><title>1&#45;&#45;52</title>
<path fill="none" stroke="black" d="M103.554,111.258C113.276,121.054 123.288,131.142 127.92,135.81"/>
</g>
<!-- 53 -->
<g id="node54" class="node"><title>53</title>
<ellipse fill="#ff3030" stroke="black" cx="7.0171" cy="99.4061" rx="3.5" ry="3.5"/>
<text text-anchor="middle" x="7.0171" y="101.906" font-family="Times,serif" font-size="10.00">53</text>
</g>
<!-- 1&#45;&#45;53 -->
<g id="edge11" class="edge"><title>1&#45;&#45;53</title>
<path fill="none" stroke="black" d="M45.8206,92.7939C31.9144,95.1636 17.506,97.6188 10.8326,98.7559"/>
</g>
<!-- 56 -->
<g id="node57" class="node"><title>56</title>
<ellipse fill="#1874cd" stroke="black" cx="151.656" cy="98.2871" rx="3.5" ry="3.5"/>
<text text-anchor="middle" x="151.656" y="100.787" font-family="Times,serif" font-size="10.00">56</text>
</g>
<!-- 1&#45;&#45;56 -->
<g id="edge12" class="edge"><title>1&#45;&#45;56</title>
<path fill="none" stroke="black" d="M113.481,92.3395C127.219,94.4799 141.368,96.6842 147.915,97.7042"/>
</g>
<!-- 2 -->
<g id="node3" class="node"><title>2</title>
<path fill="#ff3030" stroke="black" stroke-width="0.5" d="M254.604,-317.367C254.604,-317.367 286.604,-317.367 286.604,-317.367 286.604,-318.441 286.55,-319.515 286.442,-320.584 286.334,-321.652 286.172,-322.715 285.957,-323.768 285.742,-324.82 285.474,-325.861 285.155,-326.887 284.835,-327.913 284.464,-328.921 284.043,-329.91 283.622,-330.898 283.151,-331.865 282.633,-332.806 282.115,-333.747 281.549,-334.661 280.939,-335.545 280.329,-336.429 279.675,-337.282 278.978,-338.1 278.282,-338.918 277.546,-339.701 276.771,-340.445 276.771,-340.445 254.604,-317.367 254.604,-317.367"/>
<path fill="deepskyblue" stroke="black" stroke-width="0.5" d="M254.604,-317.367C254.604,-317.367 276.771,-340.445 276.771,-340.445 275.977,-341.208 275.144,-341.929 274.275,-342.606 273.407,-343.283 272.504,-343.915 271.57,-344.499 270.637,-345.083 269.673,-345.618 268.685,-346.102 267.696,-346.587 266.683,-347.02 265.649,-347.4 264.616,-347.78 263.563,-348.107 262.496,-348.378 261.429,-348.65 260.349,-348.866 259.259,-349.026 258.17,-349.187 257.073,-349.29 255.973,-349.338 254.873,-349.385 253.771,-349.375 252.672,-349.308 251.572,-349.242 250.477,-349.119 249.391,-348.939 248.305,-348.76 247.228,-348.525 246.166,-348.234 245.104,-347.944 244.057,-347.599 243.031,-347.201 242.004,-346.803 240.999,-346.352 240.019,-345.85 239.038,-345.348 238.085,-344.796 237.162,-344.196 236.239,-343.595 235.347,-342.948 234.49,-342.256 233.634,-341.564 232.814,-340.828 232.033,-340.051 231.253,-339.275 230.513,-338.458 229.816,-337.605 229.12,-336.752 228.468,-335.864 227.863,-334.944 227.258,-334.024 226.701,-333.073 226.195,-332.095 225.688,-331.118 225.232,-330.114 224.828,-329.09 224.425,-328.065 224.075,-327.021 223.779,-325.96 223.483,-324.899 223.243,-323.824 223.058,-322.738 222.873,-321.653 222.744,-320.559 222.672,-319.46 222.6,-318.361 222.585,-317.259 222.627,-316.159 222.668,-315.058 222.766,-313.961 222.921,-312.871 223.076,-311.781 223.287,-310.699 223.553,-309.631 223.819,-308.562 224.14,-307.508 224.515,-306.473 224.89,-305.437 225.318,-304.422 225.798,-303.431 226.277,-302.44 226.808,-301.474 227.387,-300.537 227.966,-299.601 228.593,-298.695 229.266,-297.823 229.938,-296.951 230.655,-296.114 231.414,-295.316 232.173,-294.518 232.972,-293.76 233.809,-293.044 234.646,-292.329 235.519,-291.657 236.426,-291.031 236.426,-291.031 254.604,-317.367 254.604,-317.367"/>
<path fill="#98f5ff" stroke="black" stroke-width="0.5" d="M254.604,-317.367C254.604,-317.367 236.426,-291.031 236.426,-291.031 237.619,-290.207 238.868,-289.466 240.162,-288.811 241.457,-288.156 242.794,-287.59 244.165,-287.117 245.536,-286.644 246.938,-286.265 248.361,-285.982 249.783,-285.699 251.224,-285.513 252.672,-285.425 254.119,-285.338 255.572,-285.349 257.018,-285.458 258.464,-285.568 259.902,-285.775 261.32,-286.08 262.738,-286.384 264.134,-286.785 265.498,-287.278 266.862,-287.772 268.19,-288.358 269.475,-289.032 270.759,-289.706 271.996,-290.467 273.177,-291.309 274.359,-292.151 275.481,-293.072 276.537,-294.066 277.594,-295.061 278.581,-296.125 279.493,-297.254 280.404,-298.382 281.238,-299.571 281.989,-300.812 282.739,-302.053 283.404,-303.344 283.98,-304.676 284.555,-306.007 285.039,-307.377 285.428,-308.774 285.818,-310.171 286.112,-311.593 286.309,-313.03 286.505,-314.467 286.604,-315.916 286.604,-317.367 286.604,-317.367 254.604,-317.367 254.604,-317.367"/>
<ellipse fill="none" stroke="black" cx="254.604" cy="-317.367" rx="32" ry="32"/>
<text text-anchor="middle" x="254.604" y="-314.867" font-family="Times,serif" font-size="10.00">2</text>
</g>
<!-- 43 -->
<g id="node44" class="node"><title>43</title>
<ellipse fill="deepskyblue" stroke="black" cx="203.517" cy="-261.014" rx="3.5" ry="3.5"/>
<text text-anchor="middle" x="203.517" y="-258.514" font-family="Times,serif" font-size="10.00">43</text>
</g>
<!-- 2&#45;&#45;43 -->
<g id="edge13" class="edge"><title>2&#45;&#45;43</title>
<path fill="none" stroke="black" d="M232.938,-293.468C222.496,-281.949 211.168,-269.453 206.156,-263.925"/>
</g>
<!-- 45 -->
<g id="node46" class="node"><title>45</title>
<ellipse fill="#98f5ff" stroke="black" cx="302.676" cy="-372.929" rx="3.5" ry="3.5"/>
<text text-anchor="middle" x="302.676" y="-370.429" font-family="Times,serif" font-size="10.00">45</text>
</g>
<!-- 2&#45;&#45;45 -->
<g id="edge14" class="edge"><title>2&#45;&#45;45</title>
<path fill="none" stroke="black" d="M275.549,-341.576C285.265,-352.805 295.666,-364.827 300.259,-370.136"/>
</g>
<!-- 3 -->
<g id="node4" class="node"><title>3</title>
<path fill="deepskyblue" stroke="black" stroke-width="0.5" d="M-141.756,6.29566C-141.756,6.29566 -116.256,6.29566 -116.256,6.29566 -116.256,4.99322 -116.356,3.6927 -116.555,2.40551 -116.754,1.11832 -117.051,-0.151752 -117.443,-1.39356 -117.836,-2.63537 -118.323,-3.84527 -118.901,-5.01263 -119.478,-6.18 -120.145,-7.30139 -120.894,-8.36698 -121.642,-9.43256 -122.472,-10.4392 -123.375,-11.3781 -124.277,-12.3169 -125.251,-13.1853 -126.286,-13.9754 -127.321,-14.7656 -128.416,-15.4753 -129.559,-16.0982 -130.703,-16.7212 -131.893,-17.2556 -133.119,-17.6968 -134.344,-18.138 -135.601,-18.4846 -136.88,-18.7337 -138.158,-18.9828 -139.454,-19.1336 -140.755,-19.1847 -142.057,-19.2358 -143.36,-19.1872 -144.654,-19.0392 -145.948,-18.8912 -147.229,-18.6442 -148.485,-18.3006 -149.741,-17.9569 -150.969,-17.5175 -152.159,-16.9862 -153.348,-16.4549 -154.494,-15.8332 -155.589,-15.1267 -156.683,-14.4202 -157.721,-13.631 -158.695,-12.7658 -159.668,-11.9007 -160.574,-10.9622 -161.404,-9.95866 -162.235,-8.95512 -162.987,-7.88944 -163.654,-6.771 -164.322,-5.65255 -164.902,-4.48461 -165.391,-3.27744 -165.88,-2.07028 -166.276,-0.827418 -166.575,0.440213 -166.874,1.70784 -167.076,2.99653 -167.178,4.29495 -167.28,5.59336 -167.282,6.8977 -167.185,8.19651 -167.088,9.49532 -166.892,10.7848 -166.598,12.0536 -166.304,13.3224 -165.913,14.5668 -165.429,15.7759 -164.944,16.9849 -164.368,18.1551 -163.705,19.2762 -163.042,20.3973 -162.294,21.4659 -161.468,22.4727 -160.642,23.4795 -159.74,24.4215 -158.77,25.2905 -157.799,26.1594 -156.764,26.9528 -155.673,27.6636 -154.581,28.3743 -153.437,29.0005 -152.25,29.5364 -151.063,30.0724 -149.837,30.5166 -148.582,30.8653 -147.327,31.2139 -146.047,31.4658 -144.754,31.6189 -143.46,31.772 -142.157,31.8258 -140.855,31.7797 -139.554,31.7337 -138.258,31.588 -136.978,31.344 -136.978,31.344 -141.756,6.29566 -141.756,6.29566"/>
<path fill="#98f5ff" stroke="black" stroke-width="0.5" d="M-141.756,6.29566C-141.756,6.29566 -136.978,31.344 -136.978,31.344 -136.257,31.2064 -135.542,31.0376 -134.835,30.8383 -134.128,30.6389 -133.43,30.4091 -132.743,30.1495 -132.056,29.8899 -131.38,29.6007 -130.718,29.2828 -130.056,28.9648 -129.408,28.6184 -128.776,28.2446 -128.144,27.8707 -127.528,27.4697 -126.93,27.0427 -126.333,26.6156 -125.754,26.163 -125.195,25.686 -124.637,25.209 -124.099,24.7081 -123.584,24.1847 -123.069,23.6613 -122.576,23.1159 -122.108,22.55 -121.64,21.9841 -121.197,21.3982 -120.779,20.794 -120.361,20.1898 -119.97,19.5678 -119.606,18.9299 -119.242,18.2919 -118.906,17.6385 -118.599,16.9715 -118.291,16.3045 -118.013,15.6245 -117.764,14.9335 -117.515,14.2424 -117.296,13.541 -117.108,12.831 -116.92,12.1211 -116.762,11.4034 -116.636,10.6798 -116.51,9.95632 -116.415,9.22768 -116.351,8.49596 -116.288,7.76424 -116.256,7.03012 -116.256,6.29566 -116.256,6.29566 -141.756,6.29566 -141.756,6.29566"/>
<ellipse fill="none" stroke="black" cx="-141.756" cy="6.29566" rx="25.5" ry="25.5"/>
<text text-anchor="middle" x="-141.756" y="8.79566" font-family="Times,serif" font-size="10.00">3</text>
</g>
<!-- 3&#45;&#45;0 -->
<g id="edge15" class="edge"><title>3&#45;&#45;0</title>
<path fill="none" stroke="black" d="M-118.808,-5.48947C-99.9615,-15.168 -73.0871,-28.9693 -52.3164,-39.6361"/>
</g>
<!-- 22 -->
<g id="node23" class="node"><title>22</title>
<ellipse fill="deepskyblue" stroke="black" cx="-204.9" cy="38.1225" rx="3.5" ry="3.5"/>
<text text-anchor="middle" x="-204.9" y="40.6225" font-family="Times,serif" font-size="10.00">22</text>
</g>
<!-- 3&#45;&#45;22 -->
<g id="edge16" class="edge"><title>3&#45;&#45;22</title>
<path fill="none" stroke="black" d="M-164.553,17.7859C-178.4,24.7656 -194.694,32.9786 -201.572,36.445"/>
</g>
<!-- 38 -->
<g id="node39" class="node"><title>38</title>
<ellipse fill="deepskyblue" stroke="black" cx="-212.401" cy="2.28918" rx="3.5" ry="3.5"/>
<text text-anchor="middle" x="-212.401" y="4.78918" font-family="Times,serif" font-size="10.00">38</text>
</g>
<!-- 3&#45;&#45;38 -->
<g id="edge17" class="edge"><title>3&#45;&#45;38</title>
<path fill="none" stroke="black" d="M-167.261,4.84922C-182.754,3.97059 -200.984,2.93671 -208.678,2.50035"/>
</g>
<!-- 42 -->
<g id="node43" class="node"><title>42</title>
<ellipse fill="black" stroke="black" cx="-183.183" cy="64.5436" rx="3.5" ry="3.5"/>
<text text-anchor="middle" x="-183.183" y="67.0436" font-family="Times,serif" font-size="10.00">42</text>
</g>
<!-- 3&#45;&#45;42 -->
<g id="edge18" class="edge"><title>3&#45;&#45;42</title>
<path fill="none" stroke="black" d="M-156.712,27.3245C-165.797,40.0985 -176.488,55.1295 -181,61.4735"/>
</g>
<!-- 4 -->
<g id="node5" class="node"><title>4</title>
<ellipse fill="#ff3030" stroke="black" cx="71.7728" cy="-154.955" rx="18" ry="18"/>
<text text-anchor="middle" x="71.7728" y="-152.455" font-family="Times,serif" font-size="10.00">4</text>
</g>
<!-- 4&#45;&#45;0 -->
<g id="edge19" class="edge"><title>4&#45;&#45;0</title>
<path fill="none" stroke="black" d="M59.2262,-141.554C44.744,-126.085 20.6025,-100.299 2.52977,-80.9947"/>
</g>
<!-- 24 -->
<g id="node25" class="node"><title>24</title>
<ellipse fill="#ff3030" stroke="black" cx="51.156" cy="-210.857" rx="3.5" ry="3.5"/>
<text text-anchor="middle" x="51.156" y="-208.357" font-family="Times,serif" font-size="10.00">24</text>
</g>
<!-- 4&#45;&#45;24 -->
<g id="edge20" class="edge"><title>4&#45;&#45;24</title>
<path fill="none" stroke="black" d="M65.4751,-172.031C60.8331,-184.618 54.9056,-200.69 52.3821,-207.533"/>
</g>
<!-- 5 -->
<g id="node6" class="node"><title>5</title>
<path fill="deepskyblue" stroke="black" stroke-width="0.5" d="M-141.397,-182.885C-141.397,-182.885 -123.397,-182.885 -123.397,-182.885 -123.397,-183.734 -123.457,-184.581 -123.576,-185.422 -123.696,-186.262 -123.875,-187.092 -124.111,-187.907 -124.348,-188.722 -124.642,-189.519 -124.991,-190.293 -125.341,-191.066 -125.744,-191.814 -126.199,-192.53 -126.653,-193.247 -127.158,-193.93 -127.709,-194.575 -128.26,-195.221 -128.857,-195.826 -129.493,-196.387 -130.13,-196.949 -130.805,-197.464 -131.514,-197.93 -132.224,-198.396 -132.965,-198.811 -133.733,-199.172 -134.5,-199.534 -135.293,-199.84 -136.104,-200.09 -136.915,-200.339 -137.743,-200.531 -138.581,-200.664 -139.419,-200.796 -140.265,-200.87 -141.114,-200.883 -141.962,-200.896 -142.811,-200.85 -143.653,-200.743 -144.495,-200.637 -145.328,-200.471 -146.146,-200.247 -146.965,-200.023 -147.767,-199.742 -148.545,-199.405 -149.324,-199.068 -150.078,-198.676 -150.802,-198.233 -151.525,-197.789 -152.216,-197.295 -152.87,-196.755 -153.524,-196.214 -154.139,-195.627 -154.71,-195 -155.281,-194.372 -155.807,-193.705 -156.284,-193.003 -156.761,-192.301 -157.188,-191.566 -157.561,-190.804 -157.935,-190.042 -158.253,-189.255 -158.516,-188.448 -158.778,-187.641 -158.983,-186.816 -159.129,-185.98 -159.275,-185.144 -159.361,-184.299 -159.388,-183.451 -159.414,-182.603 -159.381,-181.754 -159.288,-180.91 -159.195,-180.067 -159.042,-179.231 -158.831,-178.409 -158.62,-177.587 -158.351,-176.781 -158.027,-175.997 -157.702,-175.213 -157.322,-174.453 -156.89,-173.723 -156.458,-172.992 -155.975,-172.293 -155.444,-171.631 -154.914,-170.969 -154.337,-170.345 -153.719,-169.764 -153.1,-169.183 -152.441,-168.647 -151.747,-168.159 -151.053,-167.671 -150.325,-167.232 -149.569,-166.847 -148.812,-166.462 -148.03,-166.131 -147.227,-165.856 -146.424,-165.581 -145.603,-165.363 -144.77,-165.204 -144.77,-165.204 -141.397,-182.885 -141.397,-182.885"/>
<path fill="#98f5ff" stroke="black" stroke-width="0.5" d="M-141.397,-182.885C-141.397,-182.885 -144.77,-165.204 -144.77,-165.204 -144.121,-165.081 -143.467,-164.993 -142.809,-164.941 -142.151,-164.889 -141.491,-164.873 -140.831,-164.894 -140.172,-164.915 -139.514,-164.972 -138.86,-165.065 -138.207,-165.158 -137.559,-165.287 -136.92,-165.451 -136.281,-165.615 -135.651,-165.814 -135.034,-166.047 -134.417,-166.281 -133.813,-166.548 -133.225,-166.847 -132.637,-167.147 -132.066,-167.479 -131.514,-167.841 -130.963,-168.203 -130.432,-168.595 -129.923,-169.016 -129.415,-169.437 -128.93,-169.885 -128.47,-170.359 -128.011,-170.833 -127.578,-171.332 -127.174,-171.853 -126.769,-172.374 -126.394,-172.918 -126.049,-173.48 -125.704,-174.043 -125.391,-174.624 -125.11,-175.221 -124.829,-175.818 -124.581,-176.431 -124.367,-177.055 -124.153,-177.679 -123.974,-178.315 -123.83,-178.959 -123.686,-179.603 -123.578,-180.254 -123.505,-180.91 -123.433,-181.566 -123.397,-182.225 -123.397,-182.885 -123.397,-182.885 -141.397,-182.885 -141.397,-182.885"/>
<ellipse fill="none" stroke="black" cx="-141.397" cy="-182.885" rx="18" ry="18"/>
<text text-anchor="middle" x="-141.397" y="-180.385" font-family="Times,serif" font-size="10.00">5</text>
</g>
<!-- 37 -->
<g id="node38" class="node"><title>37</title>
<ellipse fill="deepskyblue" stroke="black" cx="-201.316" cy="-172.749" rx="3.5" ry="3.5"/>
<text text-anchor="middle" x="-201.316" y="-170.249" font-family="Times,serif" font-size="10.00">37</text>
</g>
<!-- 5&#45;&#45;37 -->
<g id="edge21" class="edge"><title>5&#45;&#45;37</title>
<path fill="none" stroke="black" d="M-159.375,-179.844C-172.888,-177.558 -190.294,-174.614 -197.711,-173.359"/>
</g>
<!-- 6 -->
<g id="node7" class="node"><title>6</title>
<ellipse fill="#ff3030" stroke="black" cx="9.30381" cy="-134.349" rx="14" ry="14"/>
<text text-anchor="middle" x="9.30381" y="-131.849" font-family="Times,serif" font-size="10.00">6</text>
</g>
<!-- 6&#45;&#45;0 -->
<g id="edge22" class="edge"><title>6&#45;&#45;0</title>
<path fill="none" stroke="black" d="M4.11939,-120.988C0.611164,-111.947 -4.18217,-99.5935 -8.65859,-88.0571"/>
</g>
<!-- 7 -->
<g id="node8" class="node"><title>7</title>
<path fill="#98f5ff" stroke="black" stroke-width="0.5" d="M-92.5493,-28.1455C-92.5493,-28.1455 -80.0493,-28.1455 -80.0493,-28.1455 -80.0493,-28.8277 -80.1052,-29.5087 -80.2163,-30.1817 -80.3274,-30.8548 -80.4934,-31.5176 -80.7127,-32.1635 -80.932,-32.8095 -81.2037,-33.4364 -81.5253,-34.038 -81.8469,-34.6396 -82.2171,-35.2139 -82.6324,-35.7551 -83.0477,-36.2962 -83.5065,-36.8025 -84.0044,-37.2688 -84.5023,-37.7351 -85.0375,-38.1599 -85.6047,-38.5389 -86.1719,-38.9179 -86.7691,-39.2498 -87.3905,-39.5313 -88.0118,-39.8129 -88.6552,-40.0431 -89.3141,-40.2196 -89.973,-40.3962 -90.6452,-40.5185 -91.3241,-40.5853 -92.003,-40.6522 -92.6862,-40.6634 -93.3669,-40.6188 -94.0475,-40.5742 -94.7234,-40.4739 -95.3878,-40.319 -96.0521,-40.1641 -96.7026,-39.9551 -97.3329,-39.694 -97.9631,-39.433 -98.5709,-39.1208 -99.1502,-38.7606 -99.7294,-38.4003 -100.278,-37.9933 -100.791,-37.5435 -101.304,-37.0938 -101.779,-36.6028 -102.212,-36.0755 -102.645,-35.5481 -103.034,-34.9863 -103.375,-34.3955 -103.375,-34.3955 -92.5493,-28.1455 -92.5493,-28.1455"/>
<path fill="deepskyblue" stroke="black" stroke-width="0.5" d="M-92.5493,-28.1455C-92.5493,-28.1455 -103.375,-34.3955 -103.375,-34.3955 -103.613,-33.9821 -103.828,-33.5554 -104.018,-33.1174 -104.208,-32.6794 -104.372,-32.2309 -104.511,-31.7741 -104.65,-31.3173 -104.762,-30.8529 -104.847,-30.3832 -104.933,-29.9136 -104.991,-29.4394 -105.023,-28.9631 -105.054,-28.4867 -105.058,-28.009 -105.034,-27.5322 -105.011,-27.0554 -104.96,-26.5803 -104.882,-26.1093 -104.805,-25.6384 -104.7,-25.1722 -104.569,-24.7132 -104.438,-24.2542 -104.28,-23.803 -104.098,-23.362 -103.915,-22.921 -103.707,-22.4908 -103.475,-22.0735 -103.244,-21.6562 -102.988,-21.2526 -102.71,-20.8646 -102.432,-20.4765 -102.132,-20.1048 -101.811,-19.751 -101.491,-19.3973 -101.15,-19.0623 -100.791,-18.7475 -100.432,-18.4328 -100.056,-18.1389 -99.6631,-17.8672 -99.2705,-17.5955 -98.8628,-17.3466 -98.4418,-17.1215 -98.0208,-16.8965 -97.5872,-16.6958 -97.1433,-16.5203 -96.6993,-16.3449 -96.2457,-16.195 -95.7846,-16.0715 -95.3235,-15.9479 -94.8557,-15.8509 -94.3834,-15.7808 -93.9112,-15.7108 -93.4354,-15.6678 -92.9583,-15.6522 -92.4812,-15.6366 -92.0036,-15.6483 -91.5278,-15.6873 -91.052,-15.7264 -90.5789,-15.7926 -90.1107,-15.8857 -89.6425,-15.9789 -89.18,-16.0987 -88.7255,-16.2448 -88.271,-16.3908 -87.8253,-16.5627 -87.3905,-16.7597 -86.9557,-16.9568 -86.5325,-17.1785 -86.123,-17.4239 -85.7136,-17.6693 -85.3185,-17.938 -84.9398,-18.2286 -84.5611,-18.5192 -84.1993,-18.8313 -83.8563,-19.1633 -83.5133,-19.4952 -83.1895,-19.8466 -82.8867,-20.2156 -82.5838,-20.5846 -82.3024,-20.9707 -82.0437,-21.3719 -81.785,-21.7731 -81.5495,-22.1888 -81.3384,-22.6169 -81.1273,-23.0451 -80.9408,-23.4849 -80.78,-23.9344 -80.6192,-24.3839 -80.4843,-24.8422 -80.3759,-25.3071 -80.2675,-25.772 -80.1858,-26.2427 -80.1312,-26.7169 -80.0767,-27.1912 -80.0493,-27.6682 -80.0493,-28.1455 -80.0493,-28.1455 -92.5493,-28.1455 -92.5493,-28.1455"/>
<ellipse fill="none" stroke="black" cx="-92.5493" cy="-28.1455" rx="12.5" ry="12.5"/>
<text text-anchor="middle" x="-92.5493" y="-25.6455" font-family="Times,serif" font-size="10.00">7</text>
</g>
<!-- 7&#45;&#45;0 -->
<g id="edge23" class="edge"><title>7&#45;&#45;0</title>
<path fill="none" stroke="black" d="M-80.777,-32.6768C-73.342,-35.5386 -63.3423,-39.3875 -53.6639,-43.1128"/>
</g>
<!-- 8 -->
<g id="node9" class="node"><title>8</title>
<path fill="#98f5ff" stroke="black" stroke-width="0.5" d="M-107.476,-52.4768C-107.476,-52.4768 -95.976,-52.4768 -95.976,-52.4768 -95.976,-53.0792 -96.0233,-53.6807 -96.1176,-54.2758 -96.2118,-54.8708 -96.3527,-55.4575 -96.5389,-56.0305 -96.725,-56.6034 -96.9559,-57.1609 -97.2294,-57.6976 -97.5029,-58.2344 -97.8182,-58.7489 -98.1723,-59.2363 -98.5264,-59.7237 -98.9183,-60.1825 -99.3443,-60.6085 -99.7703,-61.0345 -100.229,-61.4263 -100.716,-61.7805 -101.204,-62.1346 -101.718,-62.4498 -102.255,-62.7233 -102.792,-62.9968 -103.349,-63.2277 -103.922,-63.4139 -104.495,-63.6001 -105.082,-63.7409 -105.677,-63.8352 -106.272,-63.9294 -106.874,-63.9768 -107.476,-63.9768 -108.078,-63.9768 -108.68,-63.9294 -109.275,-63.8352 -109.87,-63.7409 -110.457,-63.6001 -111.03,-63.4139 -111.603,-63.2277 -112.16,-62.9968 -112.697,-62.7233 -113.234,-62.4498 -113.748,-62.1346 -114.236,-61.7805 -114.723,-61.4263 -115.182,-61.0345 -115.608,-60.6085 -116.034,-60.1825 -116.426,-59.7237 -116.78,-59.2363 -116.78,-59.2363 -107.476,-52.4768 -107.476,-52.4768"/>
<path fill="deepskyblue" stroke="black" stroke-width="0.5" d="M-107.476,-52.4768C-107.476,-52.4768 -116.78,-59.2363 -116.78,-59.2363 -117.045,-58.8708 -117.289,-58.49 -117.51,-58.0959 -117.73,-57.7018 -117.928,-57.295 -118.101,-56.8776 -118.273,-56.4603 -118.422,-56.0331 -118.544,-55.5983 -118.667,-55.1635 -118.764,-54.7219 -118.834,-54.2758 -118.905,-53.8296 -118.949,-53.3796 -118.967,-52.9282 -118.985,-52.4769 -118.976,-52.0248 -118.941,-51.5745 -118.905,-51.1241 -118.843,-50.6763 -118.755,-50.2332 -118.667,-49.7902 -118.553,-49.3527 -118.413,-48.9231 -118.274,-48.4934 -118.109,-48.0724 -117.92,-47.6622 -117.731,-47.2519 -117.517,-46.8532 -117.281,-46.468 -117.045,-46.0829 -116.787,-45.7119 -116.507,-45.3572 -116.227,-45.0024 -115.927,-44.6645 -115.608,-44.345 -115.288,-44.0256 -114.95,-43.7253 -114.596,-43.4456 -114.241,-43.1659 -113.87,-42.9074 -113.485,-42.6714 -113.1,-42.4354 -112.701,-42.2222 -112.291,-42.0331 -111.88,-41.844 -111.459,-41.6792 -111.03,-41.5396 -110.6,-41.4 -110.163,-41.2859 -109.72,-41.1977 -109.276,-41.1096 -108.829,-41.0476 -108.378,-41.0122 -107.928,-40.9768 -107.476,-40.9679 -107.025,-40.9856 -106.573,-41.0034 -106.123,-41.0477 -105.677,-41.1183 -105.231,-41.189 -104.789,-41.2859 -104.354,-41.4085 -103.92,-41.5311 -103.492,-41.6793 -103.075,-41.8521 -102.658,-42.025 -102.251,-42.2223 -101.857,-42.4431 -101.463,-42.6638 -101.082,-42.9075 -100.716,-43.1731 -100.351,-43.4386 -100.002,-43.7254 -99.6698,-44.032 -99.3381,-44.3387 -99.0247,-44.6646 -98.7313,-45.0081 -98.438,-45.3516 -98.1651,-45.7121 -97.9141,-46.0877 -97.6631,-46.4633 -97.4345,-46.8534 -97.2294,-47.2559 -97.0244,-47.6584 -96.8432,-48.0726 -96.6868,-48.4964 -96.5305,-48.9202 -96.3992,-49.3529 -96.2938,-49.7921 -96.1883,-50.2314 -96.1088,-50.6765 -96.0557,-51.1251 -96.0026,-51.5737 -95.976,-52.025 -95.976,-52.4768 -95.976,-52.4768 -107.476,-52.4768 -107.476,-52.4768"/>
<ellipse fill="none" stroke="black" cx="-107.476" cy="-52.4768" rx="11.5" ry="11.5"/>
<text text-anchor="middle" x="-107.476" y="-49.9768" font-family="Times,serif" font-size="10.00">8</text>
</g>
<!-- 8&#45;&#45;0 -->
<g id="edge24" class="edge"><title>8&#45;&#45;0</title>
<path fill="none" stroke="black" d="M-95.8483,-52.8961C-85.5523,-53.2674 -69.9882,-53.8287 -55.7365,-54.3426"/>
</g>
<!-- 9 -->
<g id="node10" class="node"><title>9</title>
<ellipse fill="#ff3030" stroke="black" cx="-45.5338" cy="-125.251" rx="9.5" ry="9.5"/>
<text text-anchor="middle" x="-45.5338" y="-122.751" font-family="Times,serif" font-size="10.00">9</text>
</g>
<!-- 9&#45;&#45;0 -->
<g id="edge25" class="edge"><title>9&#45;&#45;0</title>
<path fill="none" stroke="black" d="M-42.3602,-116.144C-39.8669,-108.988 -36.2335,-98.5614 -32.6818,-88.369"/>
</g>
<!-- 10 -->
<g id="node11" class="node"><title>10</title>
<ellipse fill="#ff3030" stroke="black" cx="-63.297" cy="16.124" rx="8" ry="8"/>
<text text-anchor="middle" x="-63.297" y="18.624" font-family="Times,serif" font-size="10.00">10</text>
</g>
<!-- 10&#45;&#45;0 -->
<g id="edge26" class="edge"><title>10&#45;&#45;0</title>
<path fill="none" stroke="black" d="M-59.1124,8.98603C-54.3358,0.838003 -46.2118,-13.02 -38.7117,-25.8137"/>
</g>
<!-- 11 -->
<g id="node12" class="node"><title>11</title>
<ellipse fill="brown" stroke="black" cx="231.184" cy="96.2267" rx="8" ry="8"/>
<text text-anchor="middle" x="231.184" y="98.7267" font-family="Times,serif" font-size="10.00">11</text>
</g>
<!-- 23 -->
<g id="node24" class="node"><title>23</title>
<ellipse fill="brown" stroke="black" cx="279.38" cy="82.1392" rx="3.5" ry="3.5"/>
<text text-anchor="middle" x="279.38" y="84.6392" font-family="Times,serif" font-size="10.00">23</text>
</g>
<!-- 11&#45;&#45;23 -->
<g id="edge27" class="edge"><title>11&#45;&#45;23</title>
<path fill="none" stroke="black" d="M239.142,93.9004C249.837,90.7745 268.38,85.3544 275.981,83.1326"/>
</g>
<!-- 11&#45;&#45;51 -->
<g id="edge28" class="edge"><title>11&#45;&#45;51</title>
<path fill="none" stroke="black" d="M223.211,95.3701C211.352,94.0958 189.531,91.7513 180.853,90.8189"/>
</g>
<!-- 57 -->
<g id="node58" class="node"><title>57</title>
<ellipse fill="brown" stroke="black" cx="271.124" cy="126.438" rx="3.5" ry="3.5"/>
<text text-anchor="middle" x="271.124" y="128.938" font-family="Times,serif" font-size="10.00">57</text>
</g>
<!-- 11&#45;&#45;57 -->
<g id="edge29" class="edge"><title>11&#45;&#45;57</title>
<path fill="none" stroke="black" d="M237.779,101.215C246.642,107.919 262.009,119.543 268.307,124.307"/>
</g>
<!-- 12 -->
<g id="node13" class="node"><title>12</title>
<ellipse fill="black" stroke="black" cx="-119.47" cy="30.359" rx="6" ry="6"/>
<text text-anchor="middle" x="-119.47" y="32.859" font-family="Times,serif" font-size="10.00">12</text>
</g>
<!-- 16 -->
<g id="node17" class="node"><title>16</title>
<ellipse fill="#ff3030" stroke="black" cx="-79.0485" cy="-1.45852" rx="6" ry="6"/>
<text text-anchor="middle" x="-79.0485" y="1.04148" font-family="Times,serif" font-size="10.00">16</text>
</g>
<!-- 12&#45;&#45;16 -->
<g id="edge30" class="edge"><title>12&#45;&#45;16</title>
<path fill="none" stroke="black" d="M-114.514,26.4575C-106.756,20.3509 -91.8285,8.60106 -84.0456,2.47484"/>
</g>
<!-- 13 -->
<g id="node14" class="node"><title>13</title>
<ellipse fill="#ff3030" stroke="black" cx="-15.9399" cy="-127.074" rx="6" ry="6"/>
<text text-anchor="middle" x="-15.9399" y="-124.574" font-family="Times,serif" font-size="10.00">13</text>
</g>
<!-- 13&#45;&#45;0 -->
<g id="edge31" class="edge"><title>13&#45;&#45;0</title>
<path fill="none" stroke="black" d="M-16.3933,-120.979C-16.9108,-114.023 -17.7994,-102.079 -18.6767,-90.2863"/>
</g>
<!-- 14 -->
<g id="node15" class="node"><title>14</title>
<path fill="#ff3030" stroke="black" stroke-width="0.5" d="M-78.49,-144.684C-78.49,-144.684 -72.49,-144.684 -72.49,-144.684 -72.49,-144.946 -72.5072,-145.208 -72.5414,-145.468 -72.5756,-145.727 -72.6267,-145.984 -72.6945,-146.237 -72.7623,-146.49 -72.8465,-146.739 -72.9468,-146.98 -73.047,-147.222 -73.1629,-147.458 -73.2939,-147.684 -73.4248,-147.911 -73.5705,-148.129 -73.7299,-148.337 -73.8893,-148.545 -74.0622,-148.742 -74.2474,-148.927 -74.4326,-149.112 -74.6297,-149.285 -74.8375,-149.445 -75.0452,-149.604 -75.2632,-149.75 -75.49,-149.881 -75.7168,-150.011 -75.952,-150.127 -76.1939,-150.228 -76.4359,-150.328 -76.6842,-150.412 -76.9371,-150.48 -77.1901,-150.548 -77.4472,-150.599 -77.7069,-150.633 -77.9665,-150.667 -78.2281,-150.684 -78.49,-150.684 -78.7519,-150.684 -79.0135,-150.667 -79.2732,-150.633 -79.5328,-150.599 -79.79,-150.548 -80.043,-150.48 -80.2959,-150.412 -80.5442,-150.328 -80.7861,-150.228 -81.0281,-150.127 -81.2632,-150.011 -81.49,-149.881 -81.7168,-149.75 -81.9348,-149.604 -82.1426,-149.445 -82.3504,-149.285 -82.5475,-149.112 -82.7327,-148.927 -82.9179,-148.742 -83.0907,-148.545 -83.2502,-148.337 -83.4096,-148.129 -83.5552,-147.911 -83.6862,-147.684 -83.8171,-147.458 -83.9331,-147.222 -84.0333,-146.98 -84.1335,-146.739 -84.2178,-146.49 -84.2856,-146.237 -84.3534,-145.984 -84.4045,-145.727 -84.4387,-145.468 -84.4729,-145.208 -84.49,-144.946 -84.49,-144.684 -84.49,-144.422 -84.4729,-144.161 -84.4387,-143.901 -84.4045,-143.642 -84.3534,-143.384 -84.2856,-143.131 -84.2178,-142.878 -84.1335,-142.63 -84.0333,-142.388 -83.9331,-142.146 -83.8171,-141.911 -83.6862,-141.684 -83.5552,-141.458 -83.4096,-141.24 -83.2502,-141.032 -83.0907,-140.824 -82.9179,-140.627 -82.7327,-140.442 -82.5475,-140.257 -82.3504,-140.084 -82.1426,-139.924 -81.9348,-139.765 -81.7168,-139.619 -81.49,-139.488 -81.49,-139.488 -78.49,-144.684 -78.49,-144.684"/>
<path fill="#98f5ff" stroke="black" stroke-width="0.5" d="M-78.49,-144.684C-78.49,-144.684 -81.49,-139.488 -81.49,-139.488 -81.2632,-139.357 -81.0281,-139.241 -80.7861,-139.141 -80.5442,-139.041 -80.2959,-138.957 -80.043,-138.889 -79.79,-138.821 -79.5328,-138.77 -79.2732,-138.736 -79.0135,-138.702 -78.7519,-138.684 -78.49,-138.684 -78.2281,-138.684 -77.9665,-138.702 -77.7069,-138.736 -77.4472,-138.77 -77.1901,-138.821 -76.9371,-138.889 -76.6842,-138.957 -76.4359,-139.041 -76.1939,-139.141 -75.952,-139.241 -75.7168,-139.357 -75.49,-139.488 -75.2632,-139.619 -75.0452,-139.765 -74.8375,-139.924 -74.6297,-140.084 -74.4326,-140.257 -74.2474,-140.442 -74.0622,-140.627 -73.8893,-140.824 -73.7299,-141.032 -73.5705,-141.24 -73.4248,-141.458 -73.2939,-141.684 -73.1629,-141.911 -73.047,-142.146 -72.9468,-142.388 -72.8465,-142.63 -72.7623,-142.878 -72.6945,-143.131 -72.6267,-143.384 -72.5756,-143.642 -72.5414,-143.901 -72.5072,-144.161 -72.49,-144.422 -72.49,-144.684 -72.49,-144.684 -78.49,-144.684 -78.49,-144.684"/>
<ellipse fill="none" stroke="black" cx="-78.49" cy="-144.684" rx="6" ry="6"/>
<text text-anchor="middle" x="-78.49" y="-142.184" font-family="Times,serif" font-size="10.00">14</text>
</g>
<!-- 14&#45;&#45;0 -->
<g id="edge32" class="edge"><title>14&#45;&#45;0</title>
<path fill="none" stroke="black" d="M-75.0813,-139.378C-68.2952,-128.813 -52.6566,-104.467 -39.9757,-84.7255"/>
</g>
<!-- 14&#45;&#45;5 -->
<g id="edge33" class="edge"><title>14&#45;&#45;5</title>
<path fill="none" stroke="black" d="M-83.8534,-147.941C-93.0642,-153.535 -112.216,-165.165 -125.895,-173.472"/>
</g>
<!-- 15 -->
<g id="node16" class="node"><title>15</title>
<ellipse fill="brown" stroke="black" cx="168.261" cy="-226.606" rx="6" ry="6"/>
<text text-anchor="middle" x="168.261" y="-224.106" font-family="Times,serif" font-size="10.00">15</text>
</g>
<!-- 16&#45;&#45;0 -->
<g id="edge34" class="edge"><title>16&#45;&#45;0</title>
<path fill="none" stroke="black" d="M-74.5138,-5.70582C-68.4471,-11.388 -57.2228,-21.9009 -46.6374,-31.8154"/>
</g>
<!-- 17 -->
<g id="node18" class="node"><title>17</title>
<ellipse fill="deepskyblue" stroke="black" cx="42.1482" cy="-89.3293" rx="5" ry="5"/>
<text text-anchor="middle" x="42.1482" y="-86.8293" font-family="Times,serif" font-size="10.00">17</text>
</g>
<!-- 17&#45;&#45;0 -->
<g id="edge35" class="edge"><title>17&#45;&#45;0</title>
<path fill="none" stroke="black" d="M37.5881,-86.9026C31.5683,-83.699 20.4446,-77.7792 9.4757,-71.9418"/>
</g>
<!-- 18 -->
<g id="node19" class="node"><title>18</title>
<ellipse fill="#ff3030" stroke="black" cx="-182.37" cy="-94.9085" rx="5" ry="5"/>
<text text-anchor="middle" x="-182.37" y="-92.4085" font-family="Times,serif" font-size="10.00">18</text>
</g>
<!-- 19 -->
<g id="node20" class="node"><title>19</title>
<ellipse fill="#1874cd" stroke="black" cx="17.549" cy="152.949" rx="3.5" ry="3.5"/>
<text text-anchor="middle" x="17.549" y="155.449" font-family="Times,serif" font-size="10.00">19</text>
</g>
<!-- 19&#45;&#45;1 -->
<g id="edge36" class="edge"><title>19&#45;&#45;1</title>
<path fill="none" stroke="black" d="M20.2122,150.117C26.422,143.515 42.383,126.545 56.1856,111.87"/>
</g>
<!-- 20 -->
<g id="node21" class="node"><title>20</title>
<ellipse fill="#ff3030" stroke="black" cx="144.847" cy="121.665" rx="3.5" ry="3.5"/>
<text text-anchor="middle" x="144.847" y="124.165" font-family="Times,serif" font-size="10.00">20</text>
</g>
<!-- 20&#45;&#45;1 -->
<g id="edge37" class="edge"><title>20&#45;&#45;1</title>
<path fill="none" stroke="black" d="M141.697,119.996C135.785,116.863 122.466,109.804 109.667,103.022"/>
</g>
<!-- 21 -->
<g id="node22" class="node"><title>21</title>
<ellipse fill="deepskyblue" stroke="black" cx="129.222" cy="28.4563" rx="3.5" ry="3.5"/>
<text text-anchor="middle" x="129.222" y="30.9563" font-family="Times,serif" font-size="10.00">21</text>
</g>
<!-- 21&#45;&#45;1 -->
<g id="edge38" class="edge"><title>21&#45;&#45;1</title>
<path fill="none" stroke="black" d="M126.825,31.2824C122.211,36.7231 111.667,49.1558 101.703,60.9046"/>
</g>
<!-- 25 -->
<g id="node26" class="node"><title>25</title>
<ellipse fill="#ff3030" stroke="black" cx="141.172" cy="38.7443" rx="3.5" ry="3.5"/>
<text text-anchor="middle" x="141.172" y="41.2443" font-family="Times,serif" font-size="10.00">25</text>
</g>
<!-- 25&#45;&#45;1 -->
<g id="edge39" class="edge"><title>25&#45;&#45;1</title>
<path fill="none" stroke="black" d="M138.199,41.0742C132.379,45.635 118.954,56.1555 106.413,65.9832"/>
</g>
<!-- 26 -->
<g id="node27" class="node"><title>26</title>
<ellipse fill="deepskyblue" stroke="black" cx="65.0277" cy="156.504" rx="3.5" ry="3.5"/>
<text text-anchor="middle" x="65.0277" y="159.004" font-family="Times,serif" font-size="10.00">26</text>
</g>
<!-- 26&#45;&#45;1 -->
<g id="edge40" class="edge"><title>26&#45;&#45;1</title>
<path fill="none" stroke="black" d="M65.8073,152.77C67.1134,146.515 69.8666,133.328 72.5666,120.397"/>
</g>
<!-- 27 -->
<g id="node28" class="node"><title>27</title>
<ellipse fill="#1874cd" stroke="black" cx="30.5188" cy="208.177" rx="3.5" ry="3.5"/>
<text text-anchor="middle" x="30.5188" y="210.677" font-family="Times,serif" font-size="10.00">27</text>
</g>
<!-- anon_27_1_0 -->
<g id="node63" class="node"><title>anon_27_1_0</title>
<ellipse fill="white" stroke="black" cx="45.0059" cy="165.181" rx="2.5" ry="2.5"/>
</g>
<!-- 27&#45;&#45;anon_27_1_0 -->
<g id="edge41" class="edge"><title>27&#45;&#45;anon_27_1_0</title>
<path fill="none" stroke="black" d="M31.6556,204.803C34.4304,196.568 41.5095,175.558 44.0665,167.969"/>
</g>
<!-- 28 -->
<g id="node29" class="node"><title>28</title>
<ellipse fill="deepskyblue" stroke="black" cx="144.476" cy="194.736" rx="3.5" ry="3.5"/>
<text text-anchor="middle" x="144.476" y="197.236" font-family="Times,serif" font-size="10.00">28</text>
</g>
<!-- anon_28_1_0 -->
<g id="node64" class="node"><title>anon_28_1_0</title>
<ellipse fill="white" stroke="black" cx="119.993" cy="157.486" rx="2.5" ry="2.5"/>
</g>
<!-- 28&#45;&#45;anon_28_1_0 -->
<g id="edge43" class="edge"><title>28&#45;&#45;anon_28_1_0</title>
<path fill="none" stroke="black" d="M142.217,191.298C137.292,183.806 125.699,166.167 121.524,159.816"/>
</g>
<!-- 29 -->
<g id="node30" class="node"><title>29</title>
<ellipse fill="brown" stroke="black" cx="45.1264" cy="-41.8406" rx="3.5" ry="3.5"/>
<text text-anchor="middle" x="45.1264" y="-39.3406" font-family="Times,serif" font-size="10.00">29</text>
</g>
<!-- 29&#45;&#45;0 -->
<g id="edge45" class="edge"><title>29&#45;&#45;0</title>
<path fill="none" stroke="black" d="M41.5573,-42.5796C35.9017,-43.7506 24.3182,-46.1491 12.6209,-48.5711"/>
</g>
<!-- 30 -->
<g id="node31" class="node"><title>30</title>
<ellipse fill="deepskyblue" stroke="black" cx="113.112" cy="21.369" rx="3.5" ry="3.5"/>
<text text-anchor="middle" x="113.112" y="23.869" font-family="Times,serif" font-size="10.00">30</text>
</g>
<!-- 30&#45;&#45;1 -->
<g id="edge46" class="edge"><title>30&#45;&#45;1</title>
<path fill="none" stroke="black" d="M111.492,24.537C108.453,30.482 101.605,43.8746 95.0245,56.7448"/>
</g>
<!-- 31 -->
<g id="node32" class="node"><title>31</title>
<ellipse fill="deepskyblue" stroke="black" cx="-161.451" cy="-47.4273" rx="3.5" ry="3.5"/>
<text text-anchor="middle" x="-161.451" y="-44.9273" font-family="Times,serif" font-size="10.00">31</text>
</g>
<!-- 31&#45;&#45;8 -->
<g id="edge47" class="edge"><title>31&#45;&#45;8</title>
<path fill="none" stroke="black" d="M-157.909,-47.7586C-150.217,-48.4783 -131.682,-50.2122 -119.354,-51.3655"/>
</g>
<!-- 32 -->
<g id="node33" class="node"><title>32</title>
<ellipse fill="#1874cd" stroke="black" cx="-10.7477" cy="190.285" rx="3.5" ry="3.5"/>
<text text-anchor="middle" x="-10.7477" y="192.785" font-family="Times,serif" font-size="10.00">32</text>
</g>
<!-- 32&#45;&#45;19 -->
<g id="edge48" class="edge"><title>32&#45;&#45;19</title>
<path fill="none" stroke="black" d="M-8.52729,187.355C-3.2116,180.342 10.1909,162.658 15.4163,155.763"/>
</g>
<!-- 34 -->
<g id="node35" class="node"><title>34</title>
<ellipse fill="brown" stroke="black" cx="93.2775" cy="-92.927" rx="3.5" ry="3.5"/>
<text text-anchor="middle" x="93.2775" y="-90.427" font-family="Times,serif" font-size="10.00">34</text>
</g>
<!-- anon_34_0_0 -->
<g id="node65" class="node"><title>anon_34_0_0</title>
<ellipse fill="white" stroke="black" cx="53.835" cy="-73.708" rx="2.5" ry="2.5"/>
</g>
<!-- 34&#45;&#45;anon_34_0_0 -->
<g id="edge49" class="edge"><title>34&#45;&#45;anon_34_0_0</title>
<path fill="none" stroke="black" d="M89.9146,-91.2884C82.1648,-87.5121 63.1902,-78.2665 56.3472,-74.9321"/>
</g>
<!-- 35 -->
<g id="node36" class="node"><title>35</title>
<ellipse fill="#ff3030" stroke="black" cx="88.2133" cy="-259.328" rx="3.5" ry="3.5"/>
<text text-anchor="middle" x="88.2133" y="-256.828" font-family="Times,serif" font-size="10.00">35</text>
</g>
<!-- anon_35_4_0 -->
<g id="node66" class="node"><title>anon_35_4_0</title>
<ellipse fill="white" stroke="black" cx="82.5004" cy="-215.623" rx="2.5" ry="2.5"/>
</g>
<!-- 35&#45;&#45;anon_35_4_0 -->
<g id="edge51" class="edge"><title>35&#45;&#45;anon_35_4_0</title>
<path fill="none" stroke="black" d="M87.7263,-255.602C86.6038,-247.015 83.8554,-225.989 82.8643,-218.407"/>
</g>
<!-- 36 -->
<g id="node37" class="node"><title>36</title>
<ellipse fill="deepskyblue" stroke="black" cx="-67.1295" cy="-281.166" rx="3.5" ry="3.5"/>
<text text-anchor="middle" x="-67.1295" y="-278.666" font-family="Times,serif" font-size="10.00">36</text>
</g>
<!-- anon_36_14_0 -->
<g id="node67" class="node"><title>anon_36_14_0</title>
<ellipse fill="white" stroke="black" cx="-66.8604" cy="-237.074" rx="2.5" ry="2.5"/>
</g>
<!-- 36&#45;&#45;anon_36_14_0 -->
<g id="edge53" class="edge"><title>36&#45;&#45;anon_36_14_0</title>
<path fill="none" stroke="black" d="M-67.1065,-277.406C-67.0537,-268.743 -66.9242,-247.532 -66.8775,-239.882"/>
</g>
<!-- 43&#45;&#45;15 -->
<g id="edge56" class="edge"><title>43&#45;&#45;15</title>
<path fill="none" stroke="black" d="M200.751,-258.314C194.647,-252.357 179.986,-238.049 172.628,-230.869"/>
</g>
<!-- 44 -->
<g id="node45" class="node"><title>44</title>
<ellipse fill="#ff3030" stroke="black" cx="131.823" cy="-152.826" rx="3.5" ry="3.5"/>
<text text-anchor="middle" x="131.823" y="-150.326" font-family="Times,serif" font-size="10.00">44</text>
</g>
<!-- 44&#45;&#45;4 -->
<g id="edge57" class="edge"><title>44&#45;&#45;4</title>
<path fill="none" stroke="black" d="M128.246,-152.953C120.873,-153.215 103.542,-153.829 90.0088,-154.309"/>
</g>
<!-- 46 -->
<g id="node47" class="node"><title>46</title>
<ellipse fill="#1874cd" stroke="black" cx="21.3521" cy="131.906" rx="3.5" ry="3.5"/>
<text text-anchor="middle" x="21.3521" y="134.406" font-family="Times,serif" font-size="10.00">46</text>
</g>
<!-- 46&#45;&#45;1 -->
<g id="edge58" class="edge"><title>46&#45;&#45;1</title>
<path fill="none" stroke="black" d="M24.1581,129.742C29.3786,125.717 41.0825,116.693 52.3915,107.974"/>
</g>
<!-- 47 -->
<g id="node48" class="node"><title>47</title>
<ellipse fill="#ff3030" stroke="black" cx="90.9128" cy="213.414" rx="3.5" ry="3.5"/>
<text text-anchor="middle" x="90.9128" y="215.914" font-family="Times,serif" font-size="10.00">47</text>
</g>
<!-- anon_47_1_0 -->
<g id="node69" class="node"><title>anon_47_1_0</title>
<ellipse fill="white" stroke="black" cx="87.4972" cy="168.673" rx="2.5" ry="2.5"/>
</g>
<!-- 47&#45;&#45;anon_47_1_0 -->
<g id="edge59" class="edge"><title>47&#45;&#45;anon_47_1_0</title>
<path fill="none" stroke="black" d="M90.6448,209.903C89.9906,201.333 88.3216,179.471 87.7187,171.574"/>
</g>
<!-- 48 -->
<g id="node49" class="node"><title>48</title>
<ellipse fill="#ff3030" stroke="black" cx="152.917" cy="69.3797" rx="3.5" ry="3.5"/>
<text text-anchor="middle" x="152.917" y="71.8797" font-family="Times,serif" font-size="10.00">48</text>
</g>
<!-- 48&#45;&#45;1 -->
<g id="edge61" class="edge"><title>48&#45;&#45;1</title>
<path fill="none" stroke="black" d="M149.377,70.2319C142.62,71.8589 127.252,75.5592 112.647,79.0759"/>
</g>
<!-- 49 -->
<g id="node50" class="node"><title>49</title>
<ellipse fill="#ff3030" stroke="black" cx="128.782" cy="-194.012" rx="3.5" ry="3.5"/>
<text text-anchor="middle" x="128.782" y="-191.512" font-family="Times,serif" font-size="10.00">49</text>
</g>
<!-- 49&#45;&#45;4 -->
<g id="edge62" class="edge"><title>49&#45;&#45;4</title>
<path fill="none" stroke="black" d="M125.717,-191.912C118.501,-186.969 100.048,-174.327 86.7327,-165.204"/>
</g>
<!-- 49&#45;&#45;15 -->
<g id="edge63" class="edge"><title>49&#45;&#45;15</title>
<path fill="none" stroke="black" d="M131.621,-196.356C138.34,-201.903 155.268,-215.879 163.55,-222.717"/>
</g>
<!-- 50 -->
<g id="node51" class="node"><title>50</title>
<ellipse fill="black" stroke="black" cx="11.2438" cy="75.9772" rx="3.5" ry="3.5"/>
<text text-anchor="middle" x="11.2438" y="78.4772" font-family="Times,serif" font-size="10.00">50</text>
</g>
<!-- 50&#45;&#45;1 -->
<g id="edge64" class="edge"><title>50&#45;&#45;1</title>
<path fill="none" stroke="black" d="M14.9152,76.5725C20.8989,77.5428 33.3338,79.5592 45.7117,81.5663"/>
</g>
<!-- 54 -->
<g id="node55" class="node"><title>54</title>
<ellipse fill="brown" stroke="black" cx="24.2382" cy="-107.827" rx="3.5" ry="3.5"/>
<text text-anchor="middle" x="24.2382" y="-105.327" font-family="Times,serif" font-size="10.00">54</text>
</g>
<!-- 54&#45;&#45;0 -->
<g id="edge65" class="edge"><title>54&#45;&#45;0</title>
<path fill="none" stroke="black" d="M21.7921,-105.018C17.8423,-100.483 9.67345,-91.1029 1.50249,-81.7207"/>
</g>
<!-- 55 -->
<g id="node56" class="node"><title>55</title>
<ellipse fill="#ff3030" stroke="black" cx="-97.8651" cy="53.2256" rx="3.5" ry="3.5"/>
<text text-anchor="middle" x="-97.8651" y="55.7256" font-family="Times,serif" font-size="10.00">55</text>
</g>
<!-- 55&#45;&#45;10 -->
<g id="edge66" class="edge"><title>55&#45;&#45;10</title>
<path fill="none" stroke="black" d="M-95.1526,50.3143C-89.4864,44.2329 -76.2989,30.0788 -68.7887,22.0183"/>
</g>
<!-- 58 -->
<g id="node59" class="node"><title>58</title>
<ellipse fill="deepskyblue" stroke="black" cx="-266.33" cy="-265.934" rx="3.5" ry="3.5"/>
<text text-anchor="middle" x="-266.33" y="-263.434" font-family="Times,serif" font-size="10.00">58</text>
</g>
<!-- anon_58_5_0 -->
<g id="node70" class="node"><title>anon_58_5_0</title>
<ellipse fill="white" stroke="black" cx="-230.307" cy="-242.002" rx="2.5" ry="2.5"/>
</g>
<!-- 58&#45;&#45;anon_58_5_0 -->
<g id="edge67" class="edge"><title>58&#45;&#45;anon_58_5_0</title>
<path fill="none" stroke="black" d="M-263.005,-263.725C-255.76,-258.912 -238.702,-247.58 -232.561,-243.5"/>
</g>
<!-- 59 -->
<g id="node60" class="node"><title>59</title>
<ellipse fill="deepskyblue" stroke="black" cx="-147.092" cy="-243.116" rx="3.5" ry="3.5"/>
<text text-anchor="middle" x="-147.092" y="-240.616" font-family="Times,serif" font-size="10.00">59</text>
</g>
<!-- 59&#45;&#45;5 -->
<g id="edge70" class="edge"><title>59&#45;&#45;5</title>
<path fill="none" stroke="black" d="M-146.752,-239.528C-146.048,-232.083 -144.387,-214.511 -143.1,-200.898"/>
</g>
<!-- anon_0_18_1 -->
<g id="node62" class="node"><title>anon_0_18_1</title>
<ellipse fill="white" stroke="black" cx="-136.442" cy="-90.4645" rx="2.5" ry="2.5"/>
</g>
<!-- anon_0_18_0&#45;&#45;anon_0_18_1 -->
<g id="edge3" class="edge"><title>anon_0_18_0&#45;&#45;anon_0_18_1</title>
<path fill="none" stroke="black" d="M-95.8127,-82.6935C-103.515,-84.1667 -126.323,-88.5292 -133.936,-89.9853"/>
</g>
<!-- anon_0_18_1&#45;&#45;18 -->
<g id="edge4" class="edge"><title>anon_0_18_1&#45;&#45;18</title>
<path fill="none" stroke="black" d="M-139.177,-90.7292C-146.67,-91.4542 -167.612,-93.4804 -177.316,-94.4194"/>
</g>
<!-- anon_27_1_0&#45;&#45;1 -->
<g id="edge42" class="edge"><title>anon_27_1_0&#45;&#45;1</title>
<path fill="none" stroke="black" d="M46.1546,162.581C49.22,155.644 57.8875,136.028 65.6211,118.526"/>
</g>
<!-- anon_28_1_0&#45;&#45;1 -->
<g id="edge44" class="edge"><title>anon_28_1_0&#45;&#45;1</title>
<path fill="none" stroke="black" d="M118.646,155.142C115.163,149.079 105.509,132.274 96.6637,116.877"/>
</g>
<!-- anon_34_0_0&#45;&#45;0 -->
<g id="edge50" class="edge"><title>anon_34_0_0&#45;&#45;0</title>
<path fill="none" stroke="black" d="M51.3365,-73.105C45.127,-71.6065 28.3488,-67.5575 12.4855,-63.7292"/>
</g>
<!-- anon_35_4_0&#45;&#45;4 -->
<g id="edge52" class="edge"><title>anon_35_4_0&#45;&#45;4</title>
<path fill="none" stroke="black" d="M82.0395,-213.016C80.8283,-206.167 77.474,-187.197 74.9262,-172.788"/>
</g>
<!-- anon_36_14_1 -->
<g id="node68" class="node"><title>anon_36_14_1</title>
<ellipse fill="white" stroke="black" cx="-69.9634" cy="-193.006" rx="2.5" ry="2.5"/>
</g>
<!-- anon_36_14_0&#45;&#45;anon_36_14_1 -->
<g id="edge54" class="edge"><title>anon_36_14_0&#45;&#45;anon_36_14_1</title>
<path fill="none" stroke="black" d="M-67.0452,-234.449C-67.5984,-226.593 -69.2366,-203.327 -69.7834,-195.562"/>
</g>
<!-- anon_36_14_1&#45;&#45;14 -->
<g id="edge55" class="edge"><title>anon_36_14_1&#45;&#45;14</title>
<path fill="none" stroke="black" d="M-70.4218,-190.408C-71.7363,-182.959 -75.5439,-161.381 -77.4198,-150.749"/>
</g>
<!-- anon_47_1_0&#45;&#45;1 -->
<g id="edge60" class="edge"><title>anon_47_1_0&#45;&#45;1</title>
<path fill="none" stroke="black" d="M87.2321,165.957C86.5409,158.876 84.6152,139.149 82.8623,121.193"/>
</g>
<!-- anon_58_5_1 -->
<g id="node71" class="node"><title>anon_58_5_1</title>
<ellipse fill="white" stroke="black" cx="-194.041" cy="-218.147" rx="2.5" ry="2.5"/>
</g>
<!-- anon_58_5_0&#45;&#45;anon_58_5_1 -->
<g id="edge68" class="edge"><title>anon_58_5_0&#45;&#45;anon_58_5_1</title>
<path fill="none" stroke="black" d="M-227.928,-240.437C-221.372,-236.125 -203.099,-224.105 -196.477,-219.749"/>
</g>
<!-- anon_58_5_1&#45;&#45;5 -->
<g id="edge69" class="edge"><title>anon_58_5_1&#45;&#45;5</title>
<path fill="none" stroke="black" d="M-191.779,-216.631C-185.796,-212.624 -169.156,-201.479 -156.624,-193.084"/>
</g>
</g>
</svg>
