<?xml version="1.0" encoding="UTF-8" standalone="no"?>
<!DOCTYPE svg PUBLIC "-//W3C//DTD SVG 1.1//EN"
 "http://www.w3.org/Graphics/SVG/1.1/DTD/svg11.dtd">
<!-- Generated by graphviz version 2.38.0 (20140413.2041)
 -->
<!-- Title: %3 Pages: 1 -->
<svg width="898pt" height="865pt"
 viewBox="0.00 0.00 898.08 865.22" xmlns="http://www.w3.org/2000/svg" xmlns:xlink="http://www.w3.org/1999/xlink">
<g id="graph0" class="graph" transform="scale(1 1) rotate(0) translate(268.344 549.016)">
<title>%3</title>
<polygon fill="white" stroke="none" points="-268.344,316.205 -268.344,-549.016 629.731,-549.016 629.731,316.205 -268.344,316.205"/>
<!-- 0 -->
<g id="node1" class="node"><title>0</title>
<path fill="#98f5ff" stroke="black" stroke-width="0.5" d="M-96.2019,-192.929C-96.2019,-192.929 -70.7019,-192.929 -70.7019,-192.929 -70.7019,-193.663 -70.7337,-194.397 -70.7971,-195.129 -70.8604,-195.861 -70.9554,-196.589 -71.0817,-197.313 -71.2079,-198.037 -71.3654,-198.754 -71.5536,-199.464 -71.7419,-200.174 -71.9607,-200.876 -72.2095,-201.567 -72.4583,-202.258 -72.7368,-202.938 -73.0443,-203.605 -73.3518,-204.272 -73.6879,-204.925 -74.0518,-205.563 -74.4157,-206.201 -74.807,-206.823 -75.2246,-207.427 -75.6422,-208.031 -76.0857,-208.617 -76.5539,-209.183 -77.022,-209.749 -77.5144,-210.294 -78.0297,-210.818 -78.5449,-211.341 -79.0825,-211.842 -79.641,-212.319 -80.1995,-212.796 -80.7783,-213.249 -81.3759,-213.676 -81.9735,-214.103 -82.5892,-214.504 -83.2214,-214.878 -83.8536,-215.252 -84.5016,-215.598 -85.1637,-215.916 -85.8258,-216.234 -86.5013,-216.523 -87.1883,-216.783 -87.8754,-217.042 -88.5733,-217.272 -89.2802,-217.471 -89.9871,-217.671 -90.7023,-217.839 -91.4237,-217.977 -91.4237,-217.977 -96.2019,-192.929 -96.2019,-192.929"/>
<path fill="deepskyblue" stroke="black" stroke-width="0.5" d="M-96.2019,-192.929C-96.2019,-192.929 -91.4237,-217.977 -91.4237,-217.977 -92.7031,-218.221 -93.9993,-218.367 -95.3009,-218.413 -96.6025,-218.459 -97.9057,-218.405 -99.1992,-218.252 -100.493,-218.099 -101.772,-217.847 -103.027,-217.498 -104.282,-217.15 -105.509,-216.706 -106.696,-216.17 -107.883,-215.634 -109.027,-215.007 -110.118,-214.297 -111.21,-213.586 -112.245,-212.793 -113.215,-211.924 -114.185,-211.055 -115.087,-210.113 -115.914,-209.106 -116.74,-208.099 -117.488,-207.03 -118.151,-205.909 -118.814,-204.788 -119.39,-203.618 -119.874,-202.409 -120.358,-201.2 -120.749,-199.956 -121.043,-198.687 -121.337,-197.418 -121.534,-196.128 -121.631,-194.83 -121.728,-193.531 -121.726,-192.227 -121.623,-190.928 -121.521,-189.63 -121.32,-188.341 -121.021,-187.073 -120.721,-185.806 -120.326,-184.563 -119.837,-183.356 -119.348,-182.149 -118.767,-180.981 -118.1,-179.862 -117.432,-178.744 -116.68,-177.678 -115.85,-176.674 -115.02,-175.671 -114.114,-174.732 -113.14,-173.867 -112.167,-173.002 -111.128,-172.213 -110.034,-171.506 -108.94,-170.8 -107.793,-170.178 -106.604,-169.647 -105.415,-169.116 -104.187,-168.676 -102.931,-168.333 -101.674,-167.989 -100.394,-167.742 -99.0997,-167.594 -97.8057,-167.446 -96.5023,-167.397 -95.2008,-167.448 -93.8994,-167.5 -92.6038,-167.65 -91.3254,-167.899 -90.047,-168.149 -88.7896,-168.495 -87.5641,-168.936 -86.3387,-169.378 -85.1489,-169.912 -84.0051,-170.535 -82.8613,-171.158 -81.7669,-171.868 -80.7315,-172.658 -79.6962,-173.448 -78.7229,-174.316 -77.8202,-175.255 -76.9175,-176.194 -76.088,-177.201 -75.3391,-178.266 -74.5902,-179.332 -73.9241,-180.453 -73.3465,-181.621 -72.7689,-182.788 -72.2816,-183.998 -71.8889,-185.24 -71.4961,-186.481 -71.1991,-187.751 -71.0004,-189.039 -70.8017,-190.326 -70.7019,-191.626 -70.7019,-192.929 -70.7019,-192.929 -96.2019,-192.929 -96.2019,-192.929"/>
<ellipse fill="none" stroke="black" cx="-96.2019" cy="-192.929" rx="25.5" ry="25.5"/>
</g>
<!-- 6 -->
<g id="node7" class="node"><title>6</title>
<path fill="#ff3030" stroke="black" stroke-width="0.5" d="M-70.6498,-44.2243C-70.6498,-44.2243 -36.1498,-44.2243 -36.1498,-44.2243 -36.1498,-45.7788 -36.2549,-47.3315 -36.4643,-48.8719 -36.6737,-50.4122 -36.987,-51.9366 -37.402,-53.4347 -37.402,-53.4347 -70.6498,-44.2243 -70.6498,-44.2243"/>
<path fill="deepskyblue" stroke="black" stroke-width="0.5" d="M-70.6498,-44.2243C-70.6498,-44.2243 -37.402,-53.4347 -37.402,-53.4347 -37.7132,-54.558 -38.0811,-55.6649 -38.5044,-56.751 -38.9276,-57.8372 -39.4057,-58.9011 -39.9366,-59.9389 -40.4676,-60.9766 -41.0508,-61.9868 -41.684,-62.9655 -42.3172,-63.9441 -42.9997,-64.8901 -43.7286,-65.7997 -43.7286,-65.7997 -70.6498,-44.2243 -70.6498,-44.2243"/>
<path fill="brown" stroke="black" stroke-width="0.5" d="M-70.6498,-44.2243C-70.6498,-44.2243 -43.7286,-65.7997 -43.7286,-65.7997 -44.3589,-66.5861 -45.0233,-67.3445 -45.7199,-68.0727 -46.4165,-68.801 -47.1447,-69.4983 -47.9024,-70.1628 -48.6601,-70.8272 -49.4465,-71.4582 -50.2595,-72.0538 -51.0724,-72.6494 -51.911,-73.2092 -52.7729,-73.7314 -53.6349,-74.2536 -54.5192,-74.7377 -55.4236,-75.1825 -56.3279,-75.6273 -57.2512,-76.0322 -58.191,-76.3961 -59.1308,-76.7601 -60.086,-77.0827 -61.054,-77.363 -62.022,-77.6433 -63.0019,-77.881 -63.9907,-78.0755 -64.9795,-78.2701 -65.9764,-78.4212 -66.9784,-78.5284 -67.9805,-78.6356 -68.9867,-78.6989 -69.9943,-78.7181 -71.0019,-78.7372 -72.0099,-78.7122 -73.0153,-78.6431 -74.0207,-78.574 -75.0226,-78.4609 -76.0181,-78.3041 -77.0136,-78.1473 -78.0017,-77.9469 -78.9797,-77.7036 -79.9576,-77.4603 -80.9244,-77.1742 -81.8774,-76.8463 -82.8303,-76.5183 -83.7684,-76.1488 -84.6889,-75.7387 -85.6095,-75.3286 -86.5116,-74.8783 -87.3928,-74.3893 -88.2739,-73.9002 -89.1332,-73.3727 -89.9682,-72.8084 -90.8031,-72.2441 -91.613,-71.6435 -92.3953,-71.0083 -93.1777,-70.3731 -93.9319,-69.7039 -94.6557,-69.0027 -95.3795,-68.3015 -96.0722,-67.5689 -96.7319,-66.807 -97.3915,-66.0451 -98.0175,-65.2547 -98.608,-64.438 -99.1984,-63.6213 -99.7528,-62.7792 -100.27,-61.914 -100.786,-61.0488 -101.265,-60.1613 -101.704,-59.2542 -102.143,-58.3471 -102.542,-57.4212 -102.9,-56.4791 -103.258,-55.5371 -103.574,-54.5798 -103.849,-53.61 -104.123,-52.6403 -104.354,-51.659 -104.543,-50.6689 -104.731,-49.6789 -104.876,-48.6811 -104.977,-47.6784 -105.077,-46.6757 -105.134,-45.669 -105.147,-44.6613 -105.16,-43.6536 -105.128,-42.6459 -105.053,-41.6409 -104.978,-40.636 -104.858,-39.6348 -104.695,-38.6403 -104.532,-37.6459 -104.325,-36.659 -104.076,-35.6826 -103.826,-34.7062 -103.534,-33.7412 -103.2,-32.7904 -102.866,-31.8396 -102.491,-30.9039 -102.075,-29.9859 -101.659,-29.068 -101.203,-28.1687 -100.708,-27.2907 -100.214,-26.4126 -99.6806,-25.5567 -99.111,-24.7253 -98.5415,-23.894 -97.9357,-23.0879 -97.2956,-22.3096 -96.6554,-21.5313 -95.9815,-20.7813 -95.2757,-20.062 -94.5699,-19.3427 -93.8329,-18.6546 -93.0669,-17.9998 -92.3008,-17.3449 -91.5065,-16.724 -90.6861,-16.1387 -89.8657,-15.5535 -89.02,-15.0044 -88.1516,-14.4932 -87.2831,-13.9819 -86.3926,-13.509 -85.4828,-13.0757 -84.5729,-12.6424 -83.6445,-12.2492 -82.7002,-11.8972 -81.7559,-11.5452 -80.7966,-11.2348 -79.8251,-10.9668 -78.8536,-10.6987 -77.8709,-10.4734 -76.8797,-10.2914 -75.8885,-10.1095 -74.8898,-9.971 -73.8864,-9.87646 -72.8831,-9.78192 -71.8761,-9.73138 -70.8684,-9.725 -69.8606,-9.71861 -68.8531,-9.75639 -67.8486,-9.83822 -66.8442,-9.92004 -65.8438,-10.0458 -64.8504,-10.2152 -63.8569,-10.3847 -62.8714,-10.5975 -61.8966,-10.8532 -60.9218,-11.1089 -59.9587,-11.4072 -59.01,-11.7472 -58.0613,-12.0872 -57.128,-12.4686 -56.2127,-12.8903 -55.2974,-13.312 -54.401,-13.7737 -53.5262,-14.2739 -52.6513,-14.7741 -51.7987,-15.3123 -50.971,-15.8872 -50.1432,-16.462 -49.3411,-17.0728 -48.5668,-17.7179 -47.7925,-18.363 -47.0469,-19.0416 -46.332,-19.752 -45.6172,-20.4623 -44.9338,-21.2037 -44.2838,-21.9738 -43.6339,-22.744 -43.018,-23.5423 -42.4379,-24.3664 -41.8579,-25.1905 -41.3142,-26.0396 -40.8085,-26.9113 -40.3027,-27.783 -39.8354,-28.6764 -39.4079,-29.589 -38.9804,-30.5016 -38.5931,-31.4325 -38.2471,-32.379 -37.9011,-33.3255 -37.5967,-34.2867 -37.3349,-35.2599 -37.073,-36.233 -36.8539,-37.2172 -36.6782,-38.2095 -36.5025,-39.2019 -36.3704,-40.2014 -36.2822,-41.2053 -36.194,-42.2092 -36.1498,-43.2165 -36.1498,-44.2243 -36.1498,-44.2243 -70.6498,-44.2243 -70.6498,-44.2243"/>
<ellipse fill="none" stroke="black" cx="-70.6498" cy="-44.2243" rx="34.5" ry="34.5"/>
</g>
<!-- 0&#45;&gt;6 -->
<g id="edge1" class="edge"><title>0&#45;&gt;6</title>
<path fill="none" stroke="black" d="M-91.8674,-167.703C-87.6385,-143.093 -81.1763,-105.485 -76.4947,-78.2396"/>
</g>
<!-- 22 -->
<g id="node23" class="node"><title>22</title>
<ellipse fill="deepskyblue" stroke="black" cx="-115.043" cy="-267.218" rx="3.5" ry="3.5"/>
</g>
<!-- 0&#45;&gt;22 -->
<g id="edge2" class="edge"><title>0&#45;&gt;22</title>
<path fill="none" stroke="black" d="M-102.476,-217.666C-106.758,-234.55 -112.019,-255.297 -114.116,-263.566"/>
</g>
<!-- 24 -->
<g id="node25" class="node"><title>24</title>
<ellipse fill="deepskyblue" stroke="black" cx="-162.98" cy="-245.886" rx="3.5" ry="3.5"/>
</g>
<!-- 0&#45;&gt;24 -->
<g id="edge3" class="edge"><title>0&#45;&gt;24</title>
<path fill="none" stroke="black" d="M-116.237,-208.818C-131.912,-221.248 -152.287,-237.407 -159.918,-243.458"/>
</g>
<!-- 120 -->
<g id="node121" class="node"><title>120</title>
<ellipse fill="black" stroke="black" cx="-66.7222" cy="-269.135" rx="3.5" ry="3.5"/>
</g>
<!-- 0&#45;&gt;120 -->
<g id="edge4" class="edge"><title>0&#45;&gt;120</title>
<path fill="none" stroke="black" d="M-86.8744,-217.041C-79.992,-234.832 -71.2816,-257.349 -68.0269,-265.762"/>
</g>
<!-- 1 -->
<g id="node2" class="node"><title>1</title>
<ellipse fill="deepskyblue" stroke="black" cx="136.681" cy="-59.5516" rx="3.5" ry="3.5"/>
</g>
<!-- 3 -->
<g id="node4" class="node"><title>3</title>
<path fill="#1874cd" stroke="black" stroke-width="0.5" d="M92.1792,-62.0342C92.1792,-62.0342 126.179,-62.0342 126.179,-62.0342 126.179,-63.3203 126.106,-64.6053 125.961,-65.8831 125.815,-67.1609 125.597,-68.4295 125.308,-69.6826 125.018,-70.9357 124.658,-72.1714 124.229,-73.3837 123.8,-74.596 123.302,-75.7829 122.738,-76.9388 122.174,-78.0948 121.546,-79.2178 120.855,-80.3024 120.164,-81.3871 119.412,-82.4317 118.602,-83.4311 117.793,-84.4306 116.927,-85.3833 116.01,-86.2847 115.093,-87.1862 114.125,-88.0348 113.112,-88.8266 112.098,-89.6184 111.041,-90.352 109.944,-91.024 108.848,-91.696 107.714,-92.3052 106.548,-92.8487 105.383,-93.3922 104.187,-93.8692 102.968,-94.2772 101.748,-94.6853 100.506,-95.0239 99.2482,-95.2912 97.9902,-95.5586 96.7181,-95.7544 95.438,-95.8777 94.1578,-96.001 92.8717,-96.0515 91.5858,-96.029 90.2999,-96.0066 89.0164,-95.9112 87.7413,-95.7433 86.4662,-95.5755 85.2017,-95.3354 83.9539,-95.0243 83.9539,-95.0243 92.1792,-62.0342 92.1792,-62.0342"/>
<path fill="#98f5ff" stroke="black" stroke-width="0.5" d="M92.1792,-62.0342C92.1792,-62.0342 83.9539,-95.0243 83.9539,-95.0243 82.9941,-94.785 82.0452,-94.5039 81.1099,-94.1819 80.1746,-93.8598 79.2538,-93.4971 78.3502,-93.0948 77.4465,-92.6924 76.5608,-92.2509 75.6957,-91.7713 74.8305,-91.2917 73.9867,-90.7746 73.1666,-90.2215 73.1666,-90.2215 92.1792,-62.0342 92.1792,-62.0342"/>
<path fill="#ff3030" stroke="black" stroke-width="0.5" d="M92.1792,-62.0342C92.1792,-62.0342 73.1666,-90.2215 73.1666,-90.2215 71.8953,-89.3639 70.6833,-88.4213 69.5392,-87.4002 68.3951,-86.379 67.3214,-85.2816 66.3254,-84.1155 65.3294,-82.9493 64.4135,-81.7171 63.5839,-80.4274 62.7543,-79.1376 62.0128,-77.7931 61.3647,-76.4032 60.7166,-75.0134 60.1633,-73.5812 59.7085,-72.1166 59.2538,-70.652 58.8986,-69.1584 58.6455,-67.6458 58.3924,-66.1333 58.2419,-64.6054 58.1951,-63.0725 58.1482,-61.5397 58.2052,-60.0054 58.3655,-58.4803 58.5258,-56.9551 58.7891,-55.4425 59.1536,-53.9529 59.5181,-52.4633 59.983,-51 60.545,-49.5732 61.1071,-48.1463 61.765,-46.7591 62.5143,-45.4211 63.2637,-44.0831 64.1027,-42.7973 65.0256,-41.5725 65.9485,-40.3478 66.9532,-39.1868 68.0329,-38.0977 69.1126,-37.0086 70.2647,-35.9938 71.4813,-35.0602 72.698,-34.1266 73.9764,-33.2764 75.3078,-32.5155 76.6393,-31.7545 78.0207,-31.0845 79.4426,-30.51 79.4426,-30.51 92.1792,-62.0342 92.1792,-62.0342"/>
<path fill="deepskyblue" stroke="black" stroke-width="0.5" d="M92.1792,-62.0342C92.1792,-62.0342 79.4426,-30.51 79.4426,-30.51 80.7268,-29.9911 82.0415,-29.5512 83.3794,-29.1927 84.7172,-28.8343 86.0757,-28.5579 87.4473,-28.3651 88.8189,-28.1723 90.201,-28.0636 91.5858,-28.0394 92.9707,-28.0152 94.3557,-28.0757 95.7332,-28.2205 97.1106,-28.3653 98.478,-28.5941 99.8275,-28.9056 101.177,-29.2172 102.506,-29.611 103.808,-30.0847 105.109,-30.5584 106.381,-31.1112 107.615,-31.74 108.849,-32.3688 110.043,-33.0724 111.192,-33.8469 112.34,-34.6215 113.44,-35.4654 114.485,-36.3741 115.531,-37.2828 116.519,-38.2545 117.446,-39.2838 118.373,-40.3131 119.236,-41.3981 120.03,-42.5326 120.825,-43.6672 121.549,-44.8493 122.199,-46.0722 122.85,-47.2951 123.425,-48.5567 123.921,-49.8497 124.417,-51.1428 124.834,-52.465 125.169,-53.8089 125.504,-55.1528 125.757,-56.5159 125.926,-57.8907 126.095,-59.2654 126.179,-60.6492 126.179,-62.0342 126.179,-62.0342 92.1792,-62.0342 92.1792,-62.0342"/>
<ellipse fill="none" stroke="black" cx="92.1792" cy="-62.0342" rx="34" ry="34"/>
</g>
<!-- 1&#45;&gt;3 -->
<g id="edge5" class="edge"><title>1&#45;&gt;3</title>
<path fill="none" stroke="black" d="M132.887,-59.7633C131.121,-59.8618 128.839,-59.9891 126.258,-60.1331"/>
</g>
<!-- 2 -->
<g id="node3" class="node"><title>2</title>
<ellipse fill="#ff3030" stroke="black" cx="-157.263" cy="-103.47" rx="14" ry="14"/>
</g>
<!-- 2&#45;&gt;6 -->
<g id="edge6" class="edge"><title>2&#45;&gt;6</title>
<path fill="none" stroke="black" d="M-145.582,-95.4798C-133.761,-87.3941 -115.028,-74.5802 -99.2502,-63.7877"/>
</g>
<!-- 122 -->
<g id="node123" class="node"><title>122</title>
<ellipse fill="white" stroke="black" cx="-219.524" cy="-126.884" rx="2.5" ry="2.5"/>
</g>
<!-- 2&#45;&gt;122 -->
<g id="edge7" class="edge"><title>2&#45;&gt;122</title>
<path fill="none" stroke="black" d="M-170.467,-108.436C-185.602,-114.127 -209.312,-123.044 -217.016,-125.941"/>
</g>
<!-- 3&#45;&gt;6 -->
<g id="edge8" class="edge"><title>3&#45;&gt;6</title>
<path fill="none" stroke="black" d="M58.0449,-58.3007C30.3481,-55.2713 -8.52068,-51.0199 -36.2805,-47.9836"/>
</g>
<!-- 10 -->
<g id="node11" class="node"><title>10</title>
<ellipse fill="#ff3030" stroke="black" cx="105.575" cy="6.65313" rx="3.5" ry="3.5"/>
</g>
<!-- 3&#45;&gt;10 -->
<g id="edge9" class="edge"><title>3&#45;&gt;10</title>
<path fill="none" stroke="black" d="M98.7203,-28.4954C101.164,-15.9634 103.636,-3.28835 104.834,2.85005"/>
</g>
<!-- 16 -->
<g id="node17" class="node"><title>16</title>
<ellipse fill="#ff3030" stroke="black" cx="168.333" cy="-20.053" rx="3.5" ry="3.5"/>
</g>
<!-- 3&#45;&gt;16 -->
<g id="edge10" class="edge"><title>3&#45;&gt;16</title>
<path fill="none" stroke="black" d="M122.277,-45.4421C138.907,-36.2746 157.663,-25.935 165.073,-21.8502"/>
</g>
<!-- 18 -->
<g id="node19" class="node"><title>18</title>
<ellipse fill="deepskyblue" stroke="black" cx="87.7217" cy="-116.72" rx="3.5" ry="3.5"/>
</g>
<!-- 3&#45;&gt;18 -->
<g id="edge11" class="edge"><title>3&#45;&gt;18</title>
<path fill="none" stroke="black" d="M89.4069,-96.0458C88.8404,-102.996 88.3237,-109.335 88.0159,-113.111"/>
</g>
<!-- 21 -->
<g id="node22" class="node"><title>21</title>
<ellipse fill="deepskyblue" stroke="black" cx="78.9997" cy="-13.0924" rx="3.5" ry="3.5"/>
</g>
<!-- 3&#45;&gt;21 -->
<g id="edge12" class="edge"><title>3&#45;&gt;21</title>
<path fill="none" stroke="black" d="M83.3152,-29.1178C81.9741,-24.1379 80.7763,-19.6899 79.9849,-16.751"/>
</g>
<!-- 25 -->
<g id="node26" class="node"><title>25</title>
<ellipse fill="deepskyblue" stroke="black" cx="132.12" cy="-8.06462" rx="3.5" ry="3.5"/>
</g>
<!-- 3&#45;&gt;25 -->
<g id="edge13" class="edge"><title>3&#45;&gt;25</title>
<path fill="none" stroke="black" d="M112.618,-34.417C119.681,-24.8732 126.665,-15.4349 130.036,-10.8808"/>
</g>
<!-- 29 -->
<g id="node30" class="node"><title>29</title>
<ellipse fill="deepskyblue" stroke="black" cx="170.132" cy="-47.5261" rx="3.5" ry="3.5"/>
</g>
<!-- 3&#45;&gt;29 -->
<g id="edge14" class="edge"><title>3&#45;&gt;29</title>
<path fill="none" stroke="black" d="M125.691,-55.7973C141.866,-52.7867 159.324,-49.5376 166.618,-48.18"/>
</g>
<!-- 30 -->
<g id="node31" class="node"><title>30</title>
<ellipse fill="deepskyblue" stroke="black" cx="97.8026" cy="-164.775" rx="3.5" ry="3.5"/>
</g>
<!-- 3&#45;&gt;30 -->
<g id="edge15" class="edge"><title>3&#45;&gt;30</title>
<path fill="none" stroke="black" d="M94.0517,-96.2455C95.3809,-120.529 97.0263,-150.592 97.5967,-161.012"/>
</g>
<!-- 34 -->
<g id="node35" class="node"><title>34</title>
<ellipse fill="#ff3030" stroke="black" cx="143.283" cy="-137.739" rx="3.5" ry="3.5"/>
</g>
<!-- 3&#45;&gt;34 -->
<g id="edge16" class="edge"><title>3&#45;&gt;34</title>
<path fill="none" stroke="black" d="M111.208,-90.2238C122.787,-107.376 136.28,-127.364 141.284,-134.777"/>
</g>
<!-- 36 -->
<g id="node37" class="node"><title>36</title>
<ellipse fill="#ff3030" stroke="black" cx="122.8" cy="-113.007" rx="3.5" ry="3.5"/>
</g>
<!-- 3&#45;&gt;36 -->
<g id="edge19" class="edge"><title>3&#45;&gt;36</title>
<path fill="none" stroke="black" d="M109.814,-91.39C114.281,-98.8259 118.478,-105.812 120.835,-109.736"/>
</g>
<!-- 45 -->
<g id="node46" class="node"><title>45</title>
<ellipse fill="#1874cd" stroke="black" cx="37.6386" cy="-84.977" rx="3.5" ry="3.5"/>
</g>
<!-- 3&#45;&gt;45 -->
<g id="edge22" class="edge"><title>3&#45;&gt;45</title>
<path fill="none" stroke="black" d="M60.7687,-75.2472C52.8123,-78.594 45.3374,-81.7384 41.1385,-83.5047"/>
</g>
<!-- 74 -->
<g id="node75" class="node"><title>74</title>
<ellipse fill="#1874cd" stroke="black" cx="168.756" cy="-120.31" rx="3.5" ry="3.5"/>
</g>
<!-- 3&#45;&gt;74 -->
<g id="edge23" class="edge"><title>3&#45;&gt;74</title>
<path fill="none" stroke="black" d="M119.393,-82.7441C136.932,-96.0919 157.864,-112.021 165.644,-117.942"/>
</g>
<!-- 75 -->
<g id="node76" class="node"><title>75</title>
<ellipse fill="#1874cd" stroke="black" cx="163.344" cy="-91.8856" rx="3.5" ry="3.5"/>
</g>
<!-- 3&#45;&gt;75 -->
<g id="edge24" class="edge"><title>3&#45;&gt;75</title>
<path fill="none" stroke="black" d="M123.6,-75.2144C137.898,-81.212 153.105,-87.5908 159.815,-90.4053"/>
</g>
<!-- 94 -->
<g id="node95" class="node"><title>94</title>
<ellipse fill="#1874cd" stroke="black" cx="194.27" cy="-72.9575" rx="3.5" ry="3.5"/>
</g>
<!-- 3&#45;&gt;94 -->
<g id="edge27" class="edge"><title>3&#45;&gt;94</title>
<path fill="none" stroke="black" d="M126.174,-65.6715C150.304,-68.2533 180.177,-71.4496 190.531,-72.5574"/>
</g>
<!-- 118 -->
<g id="node119" class="node"><title>118</title>
<ellipse fill="#98f5ff" stroke="black" cx="87.838" cy="26.0462" rx="3.5" ry="3.5"/>
</g>
<!-- 3&#45;&gt;118 -->
<g id="edge28" class="edge"><title>3&#45;&gt;118</title>
<path fill="none" stroke="black" d="M90.5008,-27.98C89.5369,-8.42248 88.4362,13.9086 88.0148,22.4593"/>
</g>
<!-- 121 -->
<g id="node122" class="node"><title>121</title>
<ellipse fill="black" stroke="black" cx="82.7612" cy="-147.175" rx="3.5" ry="3.5"/>
</g>
<!-- 3&#45;&gt;121 -->
<g id="edge29" class="edge"><title>3&#45;&gt;121</title>
<path fill="none" stroke="black" d="M88.4028,-96.1738C86.3558,-114.679 84.0639,-135.399 83.1591,-143.578"/>
</g>
<!-- anon_3_35_0 -->
<g id="node126" class="node"><title>anon_3_35_0</title>
<ellipse fill="white" stroke="black" cx="127.398" cy="40.6372" rx="2.5" ry="2.5"/>
</g>
<!-- 3&#45;&gt;anon_3_35_0 -->
<g id="edge17" class="edge"><title>3&#45;&gt;anon_3_35_0</title>
<path fill="none" stroke="black" d="M103.226,-29.83C112.021,-4.18935 123.366,28.882 126.54,38.1351"/>
</g>
<!-- anon_3_40_0 -->
<g id="node127" class="node"><title>anon_3_40_0</title>
<ellipse fill="white" stroke="black" cx="132.781" cy="-166.428" rx="2.5" ry="2.5"/>
</g>
<!-- 3&#45;&gt;anon_3_40_0 -->
<g id="edge20" class="edge"><title>3&#45;&gt;anon_3_40_0</title>
<path fill="none" stroke="black" d="M104.582,-93.9229C114.843,-120.306 128.293,-154.89 131.873,-164.095"/>
</g>
<!-- anon_3_89_0 -->
<g id="node128" class="node"><title>anon_3_89_0</title>
<ellipse fill="white" stroke="black" cx="165.003" cy="12.8844" rx="2.5" ry="2.5"/>
</g>
<!-- 3&#45;&gt;anon_3_89_0 -->
<g id="edge25" class="edge"><title>3&#45;&gt;anon_3_89_0</title>
<path fill="none" stroke="black" d="M116.024,-37.5031C133.944,-19.0676 156.493,4.12957 163.102,10.9286"/>
</g>
<!-- 4 -->
<g id="node5" class="node"><title>4</title>
<path fill="#98f5ff" stroke="black" stroke-width="0.5" d="M-155.513,56.4775C-155.513,56.4775 -123.513,56.4775 -123.513,56.4775 -123.513,55.027 -123.611,53.5781 -123.808,52.141 -124.005,50.7038 -124.299,49.2817 -124.688,47.8845 -125.078,46.4872 -125.562,45.1181 -126.137,43.7865 -126.712,42.4549 -127.377,41.164 -128.128,39.9227 -128.878,38.6814 -129.712,37.4925 -130.624,36.3643 -131.536,35.2361 -132.523,34.1712 -133.579,33.177 -134.635,32.1828 -135.758,31.2615 -136.939,30.4196 -138.12,29.5776 -139.357,28.817 -140.642,28.1429 -141.926,27.4688 -143.255,26.8828 -144.619,26.389 -145.982,25.8952 -147.378,25.4947 -148.797,25.1902 -150.215,24.8858 -151.652,24.6781 -153.098,24.5687 -154.545,24.4593 -155.997,24.4483 -157.445,24.5359 -158.893,24.6235 -160.333,24.8094 -161.756,25.0924 -163.178,25.3753 -164.58,25.7547 -165.951,26.2279 -167.322,26.7011 -168.66,27.2669 -169.954,27.9215 -171.249,28.5761 -172.497,29.318 -173.691,30.142 -173.691,30.142 -155.513,56.4775 -155.513,56.4775"/>
<path fill="#ff3030" stroke="black" stroke-width="0.5" d="M-155.513,56.4775C-155.513,56.4775 -173.691,30.142 -173.691,30.142 -174.575,30.7523 -175.428,31.4067 -176.246,32.1027 -177.064,32.7987 -177.847,33.5355 -178.591,34.3103 -179.335,35.0851 -180.04,35.8968 -180.703,36.7425 -181.365,37.5881 -181.985,38.4666 -182.559,39.3746 -183.133,40.2826 -183.661,41.2189 -184.141,42.1799 -184.621,43.141 -185.052,44.1257 -185.433,45.1301 -185.814,46.1346 -186.144,47.1576 -186.422,48.1953 -186.7,49.233 -186.926,50.284 -187.098,51.3443 -187.098,51.3443 -155.513,56.4775 -155.513,56.4775"/>
<path fill="deepskyblue" stroke="black" stroke-width="0.5" d="M-155.513,56.4775C-155.513,56.4775 -187.098,51.3443 -187.098,51.3443 -187.275,52.4312 -187.395,53.5265 -187.459,54.6258 -187.523,55.7251 -187.53,56.827 -187.48,57.927 -187.43,59.027 -187.323,60.1237 -187.16,61.2127 -186.998,62.3017 -186.779,63.3816 -186.504,64.4481 -186.23,65.5145 -185.901,66.5661 -185.518,67.5986 -185.135,68.6311 -184.7,69.6431 -184.213,70.6307 -183.726,71.6183 -183.188,72.5801 -182.602,73.5123 -182.016,74.4444 -181.382,75.3457 -180.703,76.2125 -180.024,77.0793 -179.3,77.9105 -178.535,78.7027 -177.771,79.4949 -176.965,80.2471 -176.123,80.9564 -175.281,81.6656 -174.402,82.3308 -173.491,82.9495 -172.581,83.5682 -171.638,84.1394 -170.668,84.6609 -169.699,85.1824 -168.703,85.6535 -167.684,86.0724 -166.666,86.4912 -165.626,86.8572 -164.57,87.1689 -163.514,87.4805 -162.443,87.7375 -161.36,87.9387 -160.278,88.1399 -159.185,88.2851 -158.088,88.3737 -156.99,88.4623 -155.889,88.4942 -154.788,88.4693 -153.687,88.4443 -152.588,88.3626 -151.496,88.2244 -150.403,88.0861 -149.319,87.8916 -148.246,87.6416 -147.174,87.3915 -146.115,87.0863 -145.074,86.7271 -144.033,86.3679 -143.012,85.9552 -142.013,85.4907 -141.015,85.0262 -140.041,84.5104 -139.096,83.9455 -138.151,83.3806 -137.235,82.7673 -136.353,82.108 -135.472,81.4487 -134.624,80.7443 -133.815,79.9977 -133.005,79.251 -132.235,78.4631 -131.507,77.6371 -130.779,76.811 -130.094,75.9479 -129.455,75.0512 -128.816,74.1546 -128.223,73.2255 -127.68,72.2678 -127.137,71.31 -126.643,70.3248 -126.201,69.3162 -125.759,68.3076 -125.37,67.2768 -125.034,66.228 -124.699,65.1793 -124.418,64.1139 -124.192,63.0361 -123.966,61.9583 -123.797,60.8696 -123.683,59.7743 -123.57,58.679 -123.513,57.5786 -123.513,56.4775 -123.513,56.4775 -155.513,56.4775 -155.513,56.4775"/>
<ellipse fill="none" stroke="black" cx="-155.513" cy="56.4775" rx="32" ry="32"/>
</g>
<!-- 4&#45;&gt;6 -->
<g id="edge30" class="edge"><title>4&#45;&gt;6</title>
<path fill="none" stroke="black" d="M-134.753,31.8431C-122.093,16.8203 -105.915,-2.37748 -92.9787,-17.728"/>
</g>
<!-- 11 -->
<g id="node12" class="node"><title>11</title>
<ellipse fill="deepskyblue" stroke="black" cx="-190.564" cy="31.3311" rx="3.5" ry="3.5"/>
</g>
<!-- 4&#45;&gt;11 -->
<g id="edge31" class="edge"><title>4&#45;&gt;11</title>
<path fill="none" stroke="black" d="M-181.719,37.6766C-183.937,36.0849 -185.908,34.6714 -187.422,33.5848"/>
</g>
<!-- 117 -->
<g id="node118" class="node"><title>117</title>
<ellipse fill="#98f5ff" stroke="black" cx="-247.382" cy="94.6159" rx="3.5" ry="3.5"/>
</g>
<!-- 4&#45;&gt;117 -->
<g id="edge32" class="edge"><title>4&#45;&gt;117</title>
<path fill="none" stroke="black" d="M-185.087,68.7547C-206.907,77.8133 -234.394,89.2241 -243.935,93.1847"/>
</g>
<!-- 5 -->
<g id="node6" class="node"><title>5</title>
<ellipse fill="#ff3030" stroke="black" cx="-191.221" cy="-69.8546" rx="18" ry="18"/>
</g>
<!-- 5&#45;&gt;6 -->
<g id="edge33" class="edge"><title>5&#45;&gt;6</title>
<path fill="none" stroke="black" d="M-173.431,-66.0728C-155.351,-62.2295 -126.897,-56.1809 -104.506,-51.4213"/>
</g>
<!-- 32 -->
<g id="node33" class="node"><title>32</title>
<ellipse fill="#ff3030" stroke="black" cx="-201.33" cy="-15.4179" rx="3.5" ry="3.5"/>
</g>
<!-- 5&#45;&gt;32 -->
<g id="edge34" class="edge"><title>5&#45;&gt;32</title>
<path fill="none" stroke="black" d="M-194.531,-52.03C-196.743,-40.123 -199.461,-25.4822 -200.682,-18.9059"/>
</g>
<!-- 38 -->
<g id="node39" class="node"><title>38</title>
<ellipse fill="#ff3030" stroke="black" cx="-257.538" cy="-87.7945" rx="3.5" ry="3.5"/>
</g>
<!-- 5&#45;&gt;38 -->
<g id="edge35" class="edge"><title>5&#45;&gt;38</title>
<path fill="none" stroke="black" d="M-208.645,-74.5681C-223.996,-78.7207 -245.203,-84.4576 -253.747,-86.7688"/>
</g>
<!-- 39 -->
<g id="node40" class="node"><title>39</title>
<ellipse fill="#ff3030" stroke="black" cx="-260.844" cy="-31.6623" rx="3.5" ry="3.5"/>
</g>
<!-- 5&#45;&gt;39 -->
<g id="edge36" class="edge"><title>5&#45;&gt;39</title>
<path fill="none" stroke="black" d="M-207.02,-61.1882C-223.71,-52.0327 -248.811,-38.2632 -257.637,-33.4215"/>
</g>
<!-- 5&#45;&gt;122 -->
<g id="edge143" class="edge"><title>5&#45;&gt;122</title>
<path fill="none" stroke="black" stroke-dasharray="5,2" d="M-199.256,-86.0444C-206.055,-99.7435 -215.185,-118.142 -218.37,-124.56"/>
</g>
<!-- 7 -->
<g id="node8" class="node"><title>7</title>
<ellipse fill="#ff3030" stroke="black" cx="-27.7694" cy="8.8319" rx="9.5" ry="9.5"/>
</g>
<!-- 6&#45;&gt;7 -->
<g id="edge37" class="edge"><title>6&#45;&gt;7</title>
<path fill="none" stroke="black" d="M-48.9584,-17.3853C-43.4743,-10.5999 -38.0122,-3.8416 -34.0075,1.11352"/>
</g>
<!-- 8 -->
<g id="node9" class="node"><title>8</title>
<ellipse fill="#ff3030" stroke="black" cx="-118.788" cy="-106.302" rx="6" ry="6"/>
</g>
<!-- 6&#45;&gt;8 -->
<g id="edge38" class="edge"><title>6&#45;&gt;8</title>
<path fill="none" stroke="black" d="M-91.9042,-71.6331C-100.568,-82.8062 -109.726,-94.6155 -114.803,-101.162"/>
</g>
<!-- 13 -->
<g id="node14" class="node"><title>13</title>
<ellipse fill="#ff3030" stroke="black" cx="-31.9693" cy="38.9776" rx="8" ry="8"/>
</g>
<!-- 6&#45;&gt;13 -->
<g id="edge39" class="edge"><title>6&#45;&gt;13</title>
<path fill="none" stroke="black" d="M-56.0264,-12.7692C-48.4957,3.42919 -39.949,21.8133 -35.3427,31.7214"/>
</g>
<!-- 14 -->
<g id="node15" class="node"><title>14</title>
<path fill="#ff3030" stroke="black" stroke-width="0.5" d="M-75.6051,75.4061C-75.6051,75.4061 -69.6051,75.4061 -69.6051,75.4061 -69.6051,75.1442 -69.6223,74.8826 -69.6565,74.6229 -69.6906,74.3633 -69.7418,74.1061 -69.8096,73.8532 -69.8774,73.6002 -69.9616,73.3519 -70.0618,73.11 -70.1621,72.868 -70.278,72.6329 -70.409,72.4061 -70.5399,72.1793 -70.6856,71.9613 -70.845,71.7535 -71.0044,71.5457 -71.1773,71.3486 -71.3625,71.1634 -71.5477,70.9783 -71.7448,70.8054 -71.9526,70.646 -72.1603,70.4865 -72.3783,70.3409 -72.6051,70.2099 -72.8319,70.079 -73.0671,69.963 -73.309,69.8628 -73.551,69.7626 -73.7992,69.6783 -74.0522,69.6105 -74.3052,69.5428 -74.5623,69.4916 -74.822,69.4574 -75.0816,69.4232 -75.3432,69.4061 -75.6051,69.4061 -75.867,69.4061 -76.1286,69.4232 -76.3883,69.4574 -76.6479,69.4916 -76.9051,69.5428 -77.158,69.6105 -77.411,69.6783 -77.6593,69.7626 -77.9012,69.8628 -78.1432,69.963 -78.3783,70.079 -78.6051,70.2099 -78.8319,70.3409 -79.0499,70.4865 -79.2577,70.646 -79.4655,70.8054 -79.6626,70.9783 -79.8478,71.1634 -80.033,71.3486 -80.2058,71.5457 -80.3652,71.7535 -80.5247,71.9613 -80.6703,72.1793 -80.8013,72.4061 -80.9322,72.6329 -81.0482,72.868 -81.1484,73.11 -81.2486,73.3519 -81.3329,73.6002 -81.4007,73.8532 -81.4685,74.1061 -81.5196,74.3633 -81.5538,74.6229 -81.588,74.8826 -81.6051,75.1442 -81.6051,75.4061 -81.6051,75.668 -81.588,75.9296 -81.5538,76.1892 -81.5196,76.4489 -81.4685,76.706 -81.4007,76.959 -81.3329,77.212 -81.2486,77.4602 -81.1484,77.7022 -81.0482,77.9441 -80.9322,78.1793 -80.8013,78.4061 -80.6703,78.6329 -80.5247,78.8509 -80.3652,79.0587 -80.2058,79.2664 -80.0329,79.4635 -79.8478,79.6487 -79.6626,79.8339 -79.4655,80.0068 -79.2577,80.1662 -79.0499,80.3256 -78.8319,80.4713 -78.6051,80.6022 -78.6051,80.6022 -75.6051,75.4061 -75.6051,75.4061"/>
<path fill="#98f5ff" stroke="black" stroke-width="0.5" d="M-75.6051,75.4061C-75.6051,75.4061 -78.6051,80.6022 -78.6051,80.6022 -78.3783,80.7332 -78.1432,80.8491 -77.9012,80.9494 -77.6593,81.0496 -77.411,81.1339 -77.158,81.2016 -76.9051,81.2694 -76.6479,81.3206 -76.3883,81.3548 -76.1286,81.3889 -75.867,81.4061 -75.6051,81.4061 -75.3432,81.4061 -75.0816,81.3889 -74.822,81.3548 -74.5623,81.3206 -74.3052,81.2694 -74.0522,81.2016 -73.7992,81.1339 -73.551,81.0496 -73.309,80.9494 -73.0671,80.8491 -72.8319,80.7332 -72.6051,80.6022 -72.3783,80.4713 -72.1603,80.3256 -71.9526,80.1662 -71.7448,80.0068 -71.5477,79.8339 -71.3625,79.6487 -71.1773,79.4635 -71.0044,79.2664 -70.845,79.0587 -70.6856,78.8509 -70.5399,78.6329 -70.409,78.4061 -70.278,78.1793 -70.1621,77.9441 -70.0618,77.7022 -69.9616,77.4602 -69.8774,77.212 -69.8096,76.959 -69.7418,76.706 -69.6906,76.4489 -69.6565,76.1892 -69.6223,75.9296 -69.6051,75.668 -69.6051,75.4061 -69.6051,75.4061 -75.6051,75.4061 -75.6051,75.4061"/>
<ellipse fill="none" stroke="black" cx="-75.6051" cy="75.4061" rx="6" ry="6"/>
</g>
<!-- 6&#45;&gt;14 -->
<g id="edge40" class="edge"><title>6&#45;&gt;14</title>
<path fill="none" stroke="black" d="M-72.0831,-9.62224C-73.2379,18.2564 -74.7632,55.0794 -75.3552,69.3736"/>
</g>
<!-- 17 -->
<g id="node18" class="node"><title>17</title>
<ellipse fill="#ff3030" stroke="black" cx="-99.2946" cy="-14.7939" rx="6" ry="6"/>
</g>
<!-- 6&#45;&gt;17 -->
<g id="edge41" class="edge"><title>6&#45;&gt;17</title>
<path fill="none" stroke="black" d="M-94.8189,-19.3924C-94.9867,-19.2199 -95.151,-19.0511 -95.3117,-18.8861"/>
</g>
<!-- 19 -->
<g id="node20" class="node"><title>19</title>
<path fill="deepskyblue" stroke="black" stroke-width="0.5" d="M-105.223,-136.795C-105.223,-136.795 -93.7226,-136.795 -93.7226,-136.795 -93.7226,-137.246 -93.7492,-137.698 -93.8023,-138.146 -93.8554,-138.595 -93.9349,-139.04 -94.0403,-139.479 -94.1458,-139.919 -94.277,-140.351 -94.4334,-140.775 -94.5897,-141.199 -94.7709,-141.613 -94.976,-142.016 -95.1811,-142.418 -95.4097,-142.808 -95.6607,-143.184 -95.9117,-143.559 -96.1845,-143.92 -96.4779,-144.263 -96.7713,-144.607 -97.0847,-144.933 -97.4164,-145.239 -97.7481,-145.546 -98.0976,-145.833 -98.4631,-146.098 -98.8285,-146.364 -99.2093,-146.608 -99.6035,-146.828 -99.9976,-147.049 -100.404,-147.246 -100.822,-147.419 -101.239,-147.592 -101.666,-147.74 -102.101,-147.863 -102.536,-147.986 -102.977,-148.082 -103.424,-148.153 -103.87,-148.224 -104.32,-148.268 -104.771,-148.286 -105.222,-148.304 -105.675,-148.295 -106.125,-148.259 -106.575,-148.224 -107.023,-148.162 -107.466,-148.074 -107.909,-147.986 -108.347,-147.871 -108.776,-147.732 -109.206,-147.592 -109.627,-147.427 -110.037,-147.238 -110.447,-147.049 -110.846,-146.836 -111.231,-146.6 -111.616,-146.364 -111.987,-146.105 -112.342,-145.826 -112.697,-145.546 -113.035,-145.246 -113.354,-144.926 -113.674,-144.607 -113.974,-144.269 -114.254,-143.914 -114.533,-143.56 -114.792,-143.189 -115.028,-142.803 -115.264,-142.418 -115.477,-142.02 -115.666,-141.609 -115.855,-141.199 -116.02,-140.778 -116.16,-140.348 -116.299,-139.919 -116.413,-139.481 -116.502,-139.038 -116.59,-138.595 -116.652,-138.147 -116.687,-137.697 -116.723,-137.247 -116.731,-136.795 -116.714,-136.343 -116.696,-135.892 -116.652,-135.442 -116.581,-134.996 -116.51,-134.55 -116.413,-134.108 -116.291,-133.673 -116.168,-133.238 -116.02,-132.811 -115.847,-132.394 -115.674,-131.976 -115.477,-131.57 -115.256,-131.176 -115.036,-130.781 -114.792,-130.401 -114.526,-130.035 -114.526,-130.035 -105.223,-136.795 -105.223,-136.795"/>
<path fill="#98f5ff" stroke="black" stroke-width="0.5" d="M-105.223,-136.795C-105.223,-136.795 -114.526,-130.035 -114.526,-130.035 -114.172,-129.548 -113.78,-129.089 -113.354,-128.663 -112.928,-128.237 -112.47,-127.845 -111.982,-127.491 -111.495,-127.137 -110.98,-126.822 -110.443,-126.548 -109.907,-126.275 -109.349,-126.044 -108.776,-125.858 -108.203,-125.671 -107.617,-125.531 -107.022,-125.436 -106.427,-125.342 -105.825,-125.295 -105.223,-125.295 -104.62,-125.295 -104.019,-125.342 -103.424,-125.436 -102.829,-125.531 -102.242,-125.671 -101.669,-125.858 -101.096,-126.044 -100.538,-126.275 -100.002,-126.548 -99.4649,-126.822 -98.9505,-127.137 -98.4631,-127.491 -97.9757,-127.845 -97.5169,-128.237 -97.0909,-128.663 -96.6649,-129.089 -96.273,-129.548 -95.9189,-130.035 -95.5648,-130.523 -95.2495,-131.037 -94.976,-131.574 -94.7025,-132.111 -94.4716,-132.668 -94.2854,-133.241 -94.0993,-133.814 -93.9584,-134.401 -93.8642,-134.996 -93.7699,-135.591 -93.7226,-136.192 -93.7226,-136.795 -93.7226,-136.795 -105.223,-136.795 -105.223,-136.795"/>
<ellipse fill="none" stroke="black" cx="-105.223" cy="-136.795" rx="11.5" ry="11.5"/>
</g>
<!-- 6&#45;&gt;19 -->
<g id="edge42" class="edge"><title>6&#45;&gt;19</title>
<path fill="none" stroke="black" d="M-82.7417,-76.6009C-89.1286,-93.7022 -96.5585,-113.596 -101.074,-125.686"/>
</g>
<!-- 26 -->
<g id="node27" class="node"><title>26</title>
<ellipse fill="deepskyblue" stroke="black" cx="-40.662" cy="-69.7981" rx="5" ry="5"/>
</g>
<!-- 6&#45;&gt;26 -->
<g id="edge43" class="edge"><title>6&#45;&gt;26</title>
<path fill="none" stroke="black" d="M-44.3391,-66.6622C-44.1989,-66.7817 -44.062,-66.8985 -43.9283,-67.0125"/>
</g>
<!-- 31 -->
<g id="node32" class="node"><title>31</title>
<path fill="deepskyblue" stroke="black" stroke-width="0.5" d="M-101.631,47.8678C-101.631,47.8678 -89.1309,47.8678 -89.1309,47.8678 -89.1309,47.3904 -89.1583,46.9135 -89.2128,46.4392 -89.2674,45.965 -89.3491,45.4942 -89.4575,45.0293 -89.5659,44.5644 -89.7008,44.1061 -89.8616,43.6567 -90.0224,43.2072 -90.2089,42.7673 -90.42,42.3392 -90.6311,41.9111 -90.8666,41.4954 -91.1253,41.0942 -91.384,40.693 -91.6654,40.3069 -91.9683,39.9379 -92.2711,39.5689 -92.5949,39.2175 -92.9379,38.8855 -93.2809,38.5535 -93.6427,38.2415 -94.0214,37.9509 -94.4001,37.6603 -94.7952,37.3916 -95.2046,37.1462 -95.6141,36.9008 -96.0373,36.679 -96.4721,36.482 -96.9069,36.285 -97.3526,36.113 -97.8071,35.967 -98.2616,35.821 -98.7241,35.7011 -99.1923,35.608 -99.6605,35.5149 -100.134,35.4486 -100.609,35.4096 -101.085,35.3706 -101.563,35.3589 -102.04,35.3745 -102.517,35.3901 -102.993,35.433 -103.465,35.5031 -103.937,35.5731 -104.405,35.6702 -104.866,35.7937 -105.327,35.9173 -105.781,36.0671 -106.225,36.2426 -106.669,36.418 -107.102,36.6188 -107.523,36.8438 -107.944,37.0688 -108.352,37.3178 -108.745,37.5894 -109.137,37.8611 -109.514,38.1551 -109.873,38.4698 -110.232,38.7846 -110.572,39.1196 -110.893,39.4733 -111.213,39.827 -111.513,40.1988 -111.791,40.5868 -112.07,40.9749 -112.325,41.3785 -112.557,41.7958 -112.789,42.213 -112.997,42.6432 -113.179,43.0843 -113.362,43.5253 -113.519,43.9764 -113.65,44.4354 -113.782,44.8945 -113.886,45.3606 -113.964,45.8316 -114.042,46.3026 -114.092,46.7777 -114.116,47.2545 -114.139,47.7312 -114.135,48.209 -114.104,48.6853 -114.073,49.1617 -114.014,49.6359 -113.929,50.1055 -113.844,50.5752 -113.731,51.0395 -113.593,51.4964 -113.454,51.9532 -113.289,52.4017 -113.1,52.8397 -112.91,53.2776 -112.695,53.7044 -112.456,54.1178 -112.456,54.1178 -101.631,47.8678 -101.631,47.8678"/>
<path fill="#98f5ff" stroke="black" stroke-width="0.5" d="M-101.631,47.8678C-101.631,47.8678 -112.456,54.1178 -112.456,54.1178 -112.115,54.7086 -111.726,55.2704 -111.294,55.7977 -110.861,56.325 -110.386,56.816 -109.873,57.2658 -109.36,57.7156 -108.811,58.1226 -108.232,58.4828 -107.652,58.843 -107.045,59.1552 -106.414,59.4163 -105.784,59.6773 -105.134,59.8864 -104.469,60.0413 -103.805,60.1962 -103.129,60.2964 -102.448,60.341 -101.768,60.3857 -101.085,60.3745 -100.406,60.3076 -99.7268,60.2407 -99.0546,60.1184 -98.3957,59.9419 -97.7368,59.7653 -97.0934,59.5351 -96.4721,59.2536 -95.8507,58.9721 -95.2535,58.6402 -94.6863,58.2612 -94.1191,57.8822 -93.5839,57.4574 -93.086,56.9911 -92.5881,56.5248 -92.1293,56.0185 -91.714,55.4773 -91.2987,54.9361 -90.9285,54.3619 -90.6069,53.7603 -90.2853,53.1587 -90.0136,52.5317 -89.7943,51.8858 -89.575,51.2398 -89.409,50.577 -89.2979,49.904 -89.1868,49.231 -89.1309,48.55 -89.1309,47.8678 -89.1309,47.8678 -101.631,47.8678 -101.631,47.8678"/>
<ellipse fill="none" stroke="black" cx="-101.631" cy="47.8678" rx="12.5" ry="12.5"/>
</g>
<!-- 6&#45;&gt;31 -->
<g id="edge47" class="edge"><title>6&#45;&gt;31</title>
<path fill="none" stroke="black" d="M-81.6598,-11.4968C-87.1558,4.84013 -93.4751,23.6243 -97.5079,35.6119"/>
</g>
<!-- 96 -->
<g id="node97" class="node"><title>96</title>
<ellipse fill="brown" stroke="black" cx="-66.3865" cy="5.24891" rx="3.5" ry="3.5"/>
</g>
<!-- 6&#45;&gt;96 -->
<g id="edge48" class="edge"><title>6&#45;&gt;96</title>
<path fill="none" stroke="black" d="M-67.6656,-9.59469C-67.285,-5.17763 -66.9478,-1.26444 -66.7152,1.43363"/>
</g>
<!-- 97 -->
<g id="node98" class="node"><title>97</title>
<ellipse fill="brown" stroke="black" cx="-147.792" cy="-5.57219" rx="6" ry="6"/>
</g>
<!-- 6&#45;&gt;97 -->
<g id="edge49" class="edge"><title>6&#45;&gt;97</title>
<path fill="none" stroke="black" d="M-101.582,-28.7257C-116.84,-21.0808 -133.759,-12.6035 -142.265,-8.34129"/>
</g>
<!-- 100 -->
<g id="node101" class="node"><title>100</title>
<ellipse fill="brown" stroke="black" cx="-7.85976" cy="-107.398" rx="8" ry="8"/>
</g>
<!-- 6&#45;&gt;100 -->
<g id="edge52" class="edge"><title>6&#45;&gt;100</title>
<path fill="none" stroke="black" d="M-46.1938,-68.8297C-34.3483,-80.7474 -21.1156,-94.0609 -13.707,-101.515"/>
</g>
<!-- 101 -->
<g id="node102" class="node"><title>101</title>
<ellipse fill="brown" stroke="black" cx="-28.9655" cy="-23.5666" rx="3.5" ry="3.5"/>
</g>
<!-- 6&#45;&gt;101 -->
<g id="edge53" class="edge"><title>6&#45;&gt;101</title>
<path fill="none" stroke="black" d="M-39.4842,-28.7794C-36.6573,-27.3785 -34.1694,-26.1456 -32.3238,-25.2309"/>
</g>
<!-- 109 -->
<g id="node110" class="node"><title>109</title>
<ellipse fill="brown" stroke="black" cx="-85.2048" cy="-75.875" rx="3.5" ry="3.5"/>
</g>
<!-- 6&#45;&gt;109 -->
<g id="edge54" class="edge"><title>6&#45;&gt;109</title>
<path fill="none" stroke="black" d="M-85.1631,-75.7842C-85.1768,-75.8141 -85.1873,-75.8368 -85.1943,-75.852"/>
</g>
<!-- anon_6_27_0 -->
<g id="node129" class="node"><title>anon_6_27_0</title>
<ellipse fill="white" stroke="black" cx="-145.798" cy="-41.803" rx="2.5" ry="2.5"/>
</g>
<!-- 6&#45;&gt;anon_6_27_0 -->
<g id="edge44" class="edge"><title>6&#45;&gt;anon_6_27_0</title>
<path fill="none" stroke="black" d="M-105.145,-43.1129C-120.578,-42.6156 -136.71,-42.0959 -143.029,-41.8923"/>
</g>
<!-- anon_6_99_0 -->
<g id="node131" class="node"><title>anon_6_99_0</title>
<ellipse fill="white" stroke="black" cx="-63.7" cy="-118.652" rx="2.5" ry="2.5"/>
</g>
<!-- 6&#45;&gt;anon_6_99_0 -->
<g id="edge50" class="edge"><title>6&#45;&gt;anon_6_99_0</title>
<path fill="none" stroke="black" d="M-67.4191,-78.8236C-66.0012,-94.0083 -64.5288,-109.776 -63.9525,-115.948"/>
</g>
<!-- 119 -->
<g id="node120" class="node"><title>119</title>
<ellipse fill="black" stroke="black" cx="-162.415" cy="-157.178" rx="6" ry="6"/>
</g>
<!-- 8&#45;&gt;119 -->
<g id="edge55" class="edge"><title>8&#45;&gt;119</title>
<path fill="none" stroke="black" d="M-122.814,-110.997C-131.083,-120.64 -149.903,-142.588 -158.271,-152.346"/>
</g>
<!-- 9 -->
<g id="node10" class="node"><title>9</title>
<ellipse fill="deepskyblue" stroke="black" cx="-111.693" cy="199.65" rx="3.5" ry="3.5"/>
</g>
<!-- 15 -->
<g id="node16" class="node"><title>15</title>
<path fill="#98f5ff" stroke="black" stroke-width="0.5" d="M-60.1514,152.546C-60.1514,152.546 -42.1514,152.546 -42.1514,152.546 -42.1514,151.887 -42.1877,151.227 -42.2601,150.571 -42.3325,149.915 -42.4409,149.264 -42.5849,148.62 -42.7288,147.976 -42.9081,147.34 -43.1218,146.716 -43.3356,146.092 -43.5835,145.479 -43.8645,144.882 -44.1455,144.285 -44.4591,143.704 -44.8039,143.141 -45.1486,142.579 -45.5241,142.035 -45.9286,141.514 -46.333,140.993 -46.7659,140.494 -47.2251,140.02 -47.6843,139.546 -48.1693,139.098 -48.6777,138.677 -49.1862,138.257 -49.7174,137.864 -50.269,137.502 -50.8205,137.14 -51.3916,136.808 -51.9795,136.508 -52.5675,136.209 -53.1715,135.942 -53.7888,135.708 -54.4061,135.475 -55.0358,135.276 -55.675,135.112 -56.3141,134.948 -56.9618,134.819 -57.6152,134.726 -58.2685,134.633 -58.9264,134.576 -59.586,134.555 -60.2456,134.535 -60.9058,134.55 -61.5636,134.602 -62.2215,134.654 -62.876,134.742 -63.5242,134.865 -63.5242,134.865 -60.1514,152.546 -60.1514,152.546"/>
<path fill="deepskyblue" stroke="black" stroke-width="0.5" d="M-60.1514,152.546C-60.1514,152.546 -63.5242,134.865 -63.5242,134.865 -64.3578,135.024 -65.1791,135.242 -65.9819,135.517 -66.7847,135.792 -67.5671,136.123 -68.3232,136.508 -69.0793,136.894 -69.8072,137.332 -70.5015,137.82 -71.1957,138.308 -71.8546,138.844 -72.4732,139.425 -73.0918,140.006 -73.6686,140.63 -74.1991,141.292 -74.7297,141.954 -75.2128,142.653 -75.6447,143.384 -76.0767,144.114 -76.4565,144.874 -76.7812,145.658 -77.1059,146.442 -77.3748,147.248 -77.5859,148.07 -77.7969,148.892 -77.9496,149.728 -78.0427,150.571 -78.1358,151.415 -78.1691,152.264 -78.1425,153.112 -78.1158,153.96 -78.0292,154.805 -77.8833,155.641 -77.7374,156.477 -77.5326,157.302 -77.2704,158.109 -77.0082,158.916 -76.6892,159.703 -76.3159,160.465 -75.9425,161.227 -75.5158,161.962 -75.0388,162.664 -74.5618,163.366 -74.0358,164.033 -73.4647,164.661 -72.8936,165.288 -72.2789,165.875 -71.625,166.416 -70.9712,166.957 -70.2799,167.451 -69.5563,167.894 -68.8328,168.337 -68.0788,168.729 -67.3,169.066 -66.5212,169.403 -65.7196,169.685 -64.9011,169.908 -64.0826,170.132 -63.2493,170.298 -62.4074,170.404 -61.5655,170.511 -60.7171,170.558 -59.8686,170.544 -59.0202,170.531 -58.1737,170.458 -57.3356,170.325 -56.4974,170.192 -55.6697,170 -54.8586,169.751 -54.0476,169.501 -53.2552,169.195 -52.4873,168.833 -51.7195,168.472 -50.9782,168.057 -50.269,167.591 -49.5597,167.125 -48.8843,166.61 -48.2478,166.048 -47.6112,165.487 -47.0152,164.882 -46.4641,164.236 -45.913,163.591 -45.4082,162.908 -44.9535,162.191 -44.4988,161.475 -44.0953,160.727 -43.7461,159.954 -43.3969,159.18 -43.1028,158.383 -42.8661,157.568 -42.6293,156.753 -42.4505,155.923 -42.3309,155.083 -42.2114,154.243 -42.1514,153.395 -42.1514,152.546 -42.1514,152.546 -60.1514,152.546 -60.1514,152.546"/>
<ellipse fill="none" stroke="black" cx="-60.1514" cy="152.546" rx="18" ry="18"/>
</g>
<!-- 9&#45;&gt;15 -->
<g id="edge56" class="edge"><title>9&#45;&gt;15</title>
<path fill="none" stroke="black" d="M-108.922,197.117C-102.398,191.155 -85.715,175.909 -73.6766,164.907"/>
</g>
<!-- 11&#45;&gt;97 -->
<g id="edge144" class="edge"><title>11&#45;&gt;97</title>
<path fill="none" stroke="black" stroke-dasharray="5,2" d="M-187.757,28.9098C-180.546,22.6881 -161.313,6.09387 -152.42,-1.57905"/>
</g>
<!-- 12 -->
<g id="node13" class="node"><title>12</title>
<ellipse fill="deepskyblue" stroke="black" cx="-7.32339" cy="193.159" rx="3.5" ry="3.5"/>
</g>
<!-- 12&#45;&gt;15 -->
<g id="edge57" class="edge"><title>12&#45;&gt;15</title>
<path fill="none" stroke="black" d="M-10.1637,190.975C-16.7645,185.901 -33.5132,173.025 -45.8118,163.57"/>
</g>
<!-- 28 -->
<g id="node29" class="node"><title>28</title>
<ellipse fill="#ff3030" stroke="black" cx="-11.9288" cy="92.0806" rx="3.5" ry="3.5"/>
</g>
<!-- 13&#45;&gt;28 -->
<g id="edge58" class="edge"><title>13&#45;&gt;28</title>
<path fill="none" stroke="black" d="M-29.0122,46.8132C-24.57,58.5842 -16.3594,80.3404 -13.2072,88.6932"/>
</g>
<!-- 14&#45;&gt;15 -->
<g id="edge59" class="edge"><title>14&#45;&gt;15</title>
<path fill="none" stroke="black" d="M-74.3925,81.4592C-72.1156,92.8249 -67.1219,117.752 -63.6968,134.849"/>
</g>
<!-- 123 -->
<g id="node124" class="node"><title>123</title>
<ellipse fill="white" stroke="black" cx="-118.003" cy="102.474" rx="2.5" ry="2.5"/>
</g>
<!-- 14&#45;&gt;123 -->
<g id="edge60" class="edge"><title>14&#45;&gt;123</title>
<path fill="none" stroke="black" d="M-80.8039,78.7251C-90.0025,84.5977 -108.81,96.6051 -115.54,100.901"/>
</g>
<!-- anon_15_23_0 -->
<g id="node132" class="node"><title>anon_15_23_0</title>
<ellipse fill="white" stroke="black" cx="-57.9802" cy="219.153" rx="2.5" ry="2.5"/>
</g>
<!-- 15&#45;&gt;anon_15_23_0 -->
<g id="edge61" class="edge"><title>15&#45;&gt;anon_15_23_0</title>
<path fill="none" stroke="black" d="M-59.5581,170.747C-59.0358,186.77 -58.3206,208.711 -58.0707,216.375"/>
</g>
<!-- 33 -->
<g id="node34" class="node"><title>33</title>
<ellipse fill="deepskyblue" stroke="black" cx="-141.341" cy="-195.025" rx="3.5" ry="3.5"/>
</g>
<!-- 19&#45;&gt;33 -->
<g id="edge64" class="edge"><title>19&#45;&gt;33</title>
<path fill="none" stroke="black" d="M-111.35,-146.673C-119.722,-160.171 -134.288,-183.654 -139.456,-191.986"/>
</g>
<!-- 20 -->
<g id="node21" class="node"><title>20</title>
<ellipse fill="deepskyblue" stroke="black" cx="-191.639" cy="168.676" rx="3.5" ry="3.5"/>
</g>
<!-- anon_20_123_0 -->
<g id="node134" class="node"><title>anon_20_123_0</title>
<ellipse fill="white" stroke="black" cx="-155.526" cy="135.169" rx="2.5" ry="2.5"/>
</g>
<!-- 20&#45;&gt;anon_20_123_0 -->
<g id="edge65" class="edge"><title>20&#45;&gt;anon_20_123_0</title>
<path fill="none" stroke="black" d="M-188.806,166.047C-181.756,159.505 -163.56,142.622 -157.513,137.012"/>
</g>
<!-- 23 -->
<g id="node24" class="node"><title>23</title>
<ellipse fill="deepskyblue" stroke="black" cx="-58.3328" cy="308.705" rx="3.5" ry="3.5"/>
</g>
<!-- 27 -->
<g id="node28" class="node"><title>27</title>
<ellipse fill="#ff3030" stroke="black" cx="-256.855" cy="-40.2568" rx="5" ry="5"/>
</g>
<!-- 31&#45;&gt;123 -->
<g id="edge145" class="edge"><title>31&#45;&gt;123</title>
<path fill="none" stroke="black" stroke-dasharray="5,2" d="M-105.264,59.9866C-109.183,73.0576 -115.143,92.9363 -117.24,99.9313"/>
</g>
<!-- 32&#45;&gt;97 -->
<g id="edge146" class="edge"><title>32&#45;&gt;97</title>
<path fill="none" stroke="black" stroke-dasharray="5,2" d="M-197.817,-14.7719C-188.884,-13.1291 -165.211,-8.77565 -153.933,-6.70162"/>
</g>
<!-- 35 -->
<g id="node36" class="node"><title>35</title>
<ellipse fill="#ff3030" stroke="black" cx="158.828" cy="79.8627" rx="3.5" ry="3.5"/>
</g>
<!-- 37 -->
<g id="node38" class="node"><title>37</title>
<ellipse fill="#ff3030" stroke="black" cx="-260.813" cy="-154.803" rx="3.5" ry="3.5"/>
</g>
<!-- 37&#45;&gt;122 -->
<g id="edge67" class="edge"><title>37&#45;&gt;122</title>
<path fill="none" stroke="black" d="M-257.844,-152.795C-250.003,-147.494 -228.869,-133.203 -221.836,-128.447"/>
</g>
<!-- 40 -->
<g id="node41" class="node"><title>40</title>
<ellipse fill="deepskyblue" stroke="black" cx="159.942" cy="-206.52" rx="3.5" ry="3.5"/>
</g>
<!-- 41 -->
<g id="node42" class="node"><title>41</title>
<path fill="#1874cd" stroke="black" stroke-width="0.5" d="M283.514,-338.518C283.514,-338.518 329.514,-338.518 329.514,-338.518 329.514,-339.819 329.458,-341.12 329.348,-342.416 329.238,-343.713 329.073,-345.004 328.853,-346.286 328.633,-347.569 328.359,-348.841 328.032,-350.101 327.704,-351.36 327.323,-352.605 326.89,-353.831 326.457,-355.058 325.972,-356.266 325.436,-357.452 324.901,-358.638 324.315,-359.8 323.681,-360.937 323.047,-362.073 322.365,-363.181 321.637,-364.26 320.909,-365.338 320.135,-366.385 319.318,-367.398 318.502,-368.41 317.642,-369.388 316.742,-370.328 315.843,-371.268 314.903,-372.169 313.927,-373.029 312.951,-373.89 311.939,-374.708 310.893,-375.483 309.848,-376.257 308.77,-376.987 307.663,-377.67 306.555,-378.353 305.419,-378.989 304.258,-379.575 303.097,-380.162 301.911,-380.699 300.704,-381.186 299.497,-381.672 298.27,-382.107 297.027,-382.489 295.783,-382.871 294.524,-383.2 293.252,-383.476 291.98,-383.751 290.698,-383.973 289.407,-384.139 288.117,-384.306 286.82,-384.418 285.52,-384.475 284.22,-384.531 282.919,-384.533 281.619,-384.479 280.319,-384.426 279.021,-384.317 277.731,-384.153 276.44,-383.99 275.157,-383.772 273.884,-383.499 272.612,-383.227 271.352,-382.901 270.107,-382.521 268.863,-382.142 267.635,-381.71 266.427,-381.227 265.219,-380.744 264.032,-380.209 262.869,-379.625 261.706,-379.042 260.569,-378.409 259.46,-377.728 258.351,-377.048 257.271,-376.321 256.224,-375.549 255.176,-374.777 254.162,-373.961 253.184,-373.103 252.206,-372.245 251.264,-371.346 250.362,-370.408 249.46,-369.471 248.598,-368.495 247.779,-367.484 246.96,-366.474 246.184,-365.429 245.453,-364.352 244.722,-363.276 244.038,-362.168 243.401,-361.034 242.764,-359.899 242.175,-358.738 241.637,-357.554 241.099,-356.369 240.611,-355.162 240.175,-353.937 239.738,-352.711 239.355,-351.467 239.024,-350.208 238.693,-348.95 238.416,-347.678 238.193,-346.396 237.97,-345.114 237.802,-343.824 237.689,-342.528 237.575,-341.231 237.517,-339.931 237.514,-338.63 237.511,-337.329 237.563,-336.028 237.67,-334.731 237.777,-333.435 237.939,-332.143 238.156,-330.86 238.372,-329.577 238.643,-328.304 238.968,-327.044 239.292,-325.784 239.67,-324.538 240.1,-323.311 240.53,-322.083 241.013,-320.873 241.545,-319.686 242.078,-318.499 242.661,-317.335 243.292,-316.198 243.923,-315.06 244.603,-313.95 245.328,-312.87 246.054,-311.789 246.825,-310.741 247.639,-309.726 248.453,-308.711 249.31,-307.731 250.208,-306.789 251.105,-305.847 252.042,-304.944 253.016,-304.081 253.99,-303.219 255.001,-302.398 256.044,-301.621 257.088,-300.844 258.164,-300.111 259.27,-299.426 260.376,-298.74 261.51,-298.101 262.67,-297.512 263.83,-296.922 265.014,-296.382 266.22,-295.893 267.425,-295.404 268.651,-294.966 269.894,-294.581 271.137,-294.196 272.395,-293.863 273.666,-293.585 274.937,-293.306 276.219,-293.082 277.509,-292.912 278.799,-292.742 280.096,-292.627 281.396,-292.567 282.696,-292.507 283.997,-292.503 285.297,-292.553 286.597,-292.603 287.895,-292.709 289.186,-292.869 290.477,-293.03 291.761,-293.245 293.034,-293.514 294.307,-293.784 295.568,-294.107 296.813,-294.483 298.059,-294.859 299.288,-295.288 300.497,-295.768 301.706,-296.249 302.895,-296.78 304.059,-297.361 305.223,-297.942 306.362,-298.573 307.472,-299.25 308.583,-299.928 309.665,-300.653 310.714,-301.422 311.763,-302.191 312.779,-303.005 313.76,-303.86 313.76,-303.86 283.514,-338.518 283.514,-338.518"/>
<path fill="olivedrab" stroke="black" stroke-width="0.5" d="M283.514,-338.518C283.514,-338.518 313.76,-303.86 313.76,-303.86 314.992,-304.936 316.166,-306.076 317.277,-307.277 318.388,-308.478 319.434,-309.737 320.411,-311.049 321.388,-312.361 322.294,-313.725 323.126,-315.133 323.958,-316.542 324.713,-317.994 325.39,-319.483 326.067,-320.972 326.664,-322.497 327.179,-324.049 327.693,-325.602 328.125,-327.181 328.471,-328.78 328.817,-330.379 329.078,-331.995 329.252,-333.621 329.426,-335.248 329.514,-336.883 329.514,-338.518 329.514,-338.518 283.514,-338.518 283.514,-338.518"/>
<ellipse fill="none" stroke="black" cx="283.514" cy="-338.518" rx="46" ry="46"/>
</g>
<!-- 43 -->
<g id="node44" class="node"><title>43</title>
<ellipse fill="#1874cd" stroke="black" cx="384.011" cy="-353.531" rx="3.5" ry="3.5"/>
</g>
<!-- 41&#45;&gt;43 -->
<g id="edge68" class="edge"><title>41&#45;&gt;43</title>
<path fill="none" stroke="black" d="M329.057,-345.322C349.831,-348.425 371.687,-351.69 380.254,-352.97"/>
</g>
<!-- 47 -->
<g id="node48" class="node"><title>47</title>
<ellipse fill="#1874cd" stroke="black" cx="173.394" cy="-273.109" rx="3.5" ry="3.5"/>
</g>
<!-- 41&#45;&gt;47 -->
<g id="edge69" class="edge"><title>41&#45;&gt;47</title>
<path fill="none" stroke="black" d="M243.758,-314.904C217.637,-299.388 186.524,-280.908 176.6,-275.013"/>
</g>
<!-- 48 -->
<g id="node49" class="node"><title>48</title>
<ellipse fill="#1874cd" stroke="black" cx="224.99" cy="-405.69" rx="3.5" ry="3.5"/>
</g>
<!-- 41&#45;&gt;48 -->
<g id="edge70" class="edge"><title>41&#45;&gt;48</title>
<path fill="none" stroke="black" d="M253.223,-373.285C242.513,-385.578 231.987,-397.659 227.393,-402.932"/>
</g>
<!-- 52 -->
<g id="node53" class="node"><title>52</title>
<ellipse fill="#1874cd" stroke="black" cx="344.463" cy="-339.482" rx="3.5" ry="3.5"/>
</g>
<!-- 41&#45;&gt;52 -->
<g id="edge71" class="edge"><title>41&#45;&gt;52</title>
<path fill="none" stroke="black" d="M329.709,-339.249C334.225,-339.32 338.106,-339.381 340.753,-339.423"/>
</g>
<!-- 53 -->
<g id="node54" class="node"><title>53</title>
<ellipse fill="#1874cd" stroke="black" cx="209.025" cy="-324.8" rx="3.5" ry="3.5"/>
</g>
<!-- 41&#45;&gt;53 -->
<g id="edge72" class="edge"><title>41&#45;&gt;53</title>
<path fill="none" stroke="black" d="M238.037,-330.143C227.375,-328.18 217.66,-326.391 212.63,-325.464"/>
</g>
<!-- 57 -->
<g id="node58" class="node"><title>57</title>
<ellipse fill="#1874cd" stroke="black" cx="263.313" cy="-249.319" rx="3.5" ry="3.5"/>
</g>
<!-- 41&#45;&gt;57 -->
<g id="edge80" class="edge"><title>41&#45;&gt;57</title>
<path fill="none" stroke="black" d="M273.295,-293.396C269.537,-276.803 265.801,-260.307 264.168,-253.095"/>
</g>
<!-- 60 -->
<g id="node61" class="node"><title>60</title>
<ellipse fill="#1874cd" stroke="black" cx="313.726" cy="-241.999" rx="5" ry="5"/>
</g>
<!-- 41&#45;&gt;60 -->
<g id="edge81" class="edge"><title>41&#45;&gt;60</title>
<path fill="none" stroke="black" d="M297.294,-294.495C303.208,-275.602 309.395,-255.836 312.192,-246.9"/>
</g>
<!-- 62 -->
<g id="node63" class="node"><title>62</title>
<ellipse fill="#1874cd" stroke="black" cx="232.487" cy="-454.707" rx="3.5" ry="3.5"/>
</g>
<!-- 41&#45;&gt;62 -->
<g id="edge84" class="edge"><title>41&#45;&gt;62</title>
<path fill="none" stroke="black" d="M264.948,-380.794C252.865,-408.305 238.533,-440.94 233.963,-451.345"/>
</g>
<!-- 64 -->
<g id="node65" class="node"><title>64</title>
<ellipse fill="#1874cd" stroke="black" cx="327.456" cy="-421.921" rx="3.5" ry="3.5"/>
</g>
<!-- 41&#45;&gt;64 -->
<g id="edge88" class="edge"><title>41&#45;&gt;64</title>
<path fill="none" stroke="black" d="M304.97,-379.242C313.51,-395.451 322.154,-411.858 325.736,-418.658"/>
</g>
<!-- 68 -->
<g id="node69" class="node"><title>68</title>
<ellipse fill="#1874cd" stroke="black" cx="322.694" cy="-287.709" rx="3.5" ry="3.5"/>
</g>
<!-- 41&#45;&gt;68 -->
<g id="edge89" class="edge"><title>41&#45;&gt;68</title>
<path fill="none" stroke="black" d="M311.78,-301.862C315.256,-297.355 318.275,-293.44 320.251,-290.877"/>
</g>
<!-- 69 -->
<g id="node70" class="node"><title>69</title>
<ellipse fill="#1874cd" stroke="black" cx="369.455" cy="-266.748" rx="3.5" ry="3.5"/>
</g>
<!-- 41&#45;&gt;69 -->
<g id="edge90" class="edge"><title>41&#45;&gt;69</title>
<path fill="none" stroke="black" d="M318.966,-308.912C337.831,-293.158 358.691,-275.737 366.387,-269.31"/>
</g>
<!-- 73 -->
<g id="node74" class="node"><title>73</title>
<ellipse fill="#1874cd" stroke="black" cx="212.261" cy="-362.031" rx="3.5" ry="3.5"/>
</g>
<!-- 41&#45;&gt;73 -->
<g id="edge91" class="edge"><title>41&#45;&gt;73</title>
<path fill="none" stroke="black" d="M239.606,-353.008C229.525,-356.334 220.381,-359.352 215.65,-360.913"/>
</g>
<!-- 78 -->
<g id="node79" class="node"><title>78</title>
<ellipse fill="#1874cd" stroke="black" cx="264.101" cy="-282.33" rx="5" ry="5"/>
</g>
<!-- 41&#45;&gt;78 -->
<g id="edge94" class="edge"><title>41&#45;&gt;78</title>
<path fill="none" stroke="black" d="M268.409,-294.8C267.391,-291.853 266.489,-289.242 265.777,-287.181"/>
</g>
<!-- 81 -->
<g id="node82" class="node"><title>81</title>
<ellipse fill="#1874cd" stroke="black" cx="216.015" cy="-291.031" rx="3.5" ry="3.5"/>
</g>
<!-- 41&#45;&gt;81 -->
<g id="edge95" class="edge"><title>41&#45;&gt;81</title>
<path fill="none" stroke="black" d="M245.818,-311.998C234.705,-304.18 224.171,-296.768 219.124,-293.218"/>
</g>
<!-- 83 -->
<g id="node84" class="node"><title>83</title>
<ellipse fill="#1874cd" stroke="black" cx="316.362" cy="-390.672" rx="3.5" ry="3.5"/>
</g>
<!-- 41&#45;&gt;83 -->
<g id="edge96" class="edge"><title>41&#45;&gt;83</title>
<path fill="none" stroke="black" d="M308.073,-377.511C310.598,-381.52 312.78,-384.983 314.27,-387.35"/>
</g>
<!-- 86 -->
<g id="node87" class="node"><title>86</title>
<ellipse fill="#1874cd" stroke="black" cx="363.595" cy="-382.539" rx="3.5" ry="3.5"/>
</g>
<!-- 41&#45;&gt;86 -->
<g id="edge97" class="edge"><title>41&#45;&gt;86</title>
<path fill="none" stroke="black" d="M324.024,-360.787C338.921,-368.976 353.731,-377.117 360.205,-380.676"/>
</g>
<!-- 88 -->
<g id="node89" class="node"><title>88</title>
<ellipse fill="#1874cd" stroke="black" cx="273.23" cy="-432.485" rx="5" ry="5"/>
</g>
<!-- 41&#45;&gt;88 -->
<g id="edge98" class="edge"><title>41&#45;&gt;88</title>
<path fill="none" stroke="black" d="M278.492,-384.401C276.616,-401.545 274.718,-418.885 273.799,-427.282"/>
</g>
<!-- 90 -->
<g id="node91" class="node"><title>90</title>
<ellipse fill="#1874cd" stroke="black" cx="345.293" cy="-248.192" rx="3.5" ry="3.5"/>
</g>
<!-- 41&#45;&gt;90 -->
<g id="edge99" class="edge"><title>41&#45;&gt;90</title>
<path fill="none" stroke="black" d="M309.535,-300.474C322.989,-280.803 337.708,-259.283 343.132,-251.353"/>
</g>
<!-- 95 -->
<g id="node96" class="node"><title>95</title>
<ellipse fill="#1874cd" stroke="black" cx="258.854" cy="-391.394" rx="3.5" ry="3.5"/>
</g>
<!-- 41&#45;&gt;95 -->
<g id="edge102" class="edge"><title>41&#45;&gt;95</title>
<path fill="none" stroke="black" d="M263.963,-380.438C262.56,-383.447 261.35,-386.042 260.46,-387.951"/>
</g>
<!-- 110 -->
<g id="node111" class="node"><title>110</title>
<ellipse fill="olivedrab" stroke="black" cx="226.34" cy="-253.178" rx="3.5" ry="3.5"/>
</g>
<!-- 41&#45;&gt;110 -->
<g id="edge103" class="edge"><title>41&#45;&gt;110</title>
<path fill="none" stroke="black" d="M257.603,-299.843C245.785,-282.203 233.351,-263.643 228.477,-256.368"/>
</g>
<!-- 112 -->
<g id="node113" class="node"><title>112</title>
<ellipse fill="olivedrab" stroke="black" cx="368.725" cy="-302.282" rx="3.5" ry="3.5"/>
</g>
<!-- 41&#45;&gt;112 -->
<g id="edge104" class="edge"><title>41&#45;&gt;112</title>
<path fill="none" stroke="black" d="M326.119,-320.4C342.429,-313.465 358.739,-306.529 365.488,-303.659"/>
</g>
<!-- anon_41_54_0 -->
<g id="node135" class="node"><title>anon_41_54_0</title>
<ellipse fill="white" stroke="black" cx="284.503" cy="-210.181" rx="2.5" ry="2.5"/>
</g>
<!-- 41&#45;&gt;anon_41_54_0 -->
<g id="edge73" class="edge"><title>41&#45;&gt;anon_41_54_0</title>
<path fill="none" stroke="black" d="M283.871,-292.186C284.114,-260.595 284.406,-222.738 284.483,-212.716"/>
</g>
<!-- anon_41_56_0 -->
<g id="node138" class="node"><title>anon_41_56_0</title>
<ellipse fill="white" stroke="black" cx="408.435" cy="-312.105" rx="2.5" ry="2.5"/>
</g>
<!-- 41&#45;&gt;anon_41_56_0 -->
<g id="edge77" class="edge"><title>41&#45;&gt;anon_41_56_0</title>
<path fill="none" stroke="black" d="M328.613,-328.983C359.364,-322.481 396.212,-314.69 405.968,-312.627"/>
</g>
<!-- anon_41_61_0 -->
<g id="node140" class="node"><title>anon_41_61_0</title>
<ellipse fill="white" stroke="black" cx="167.359" cy="-347.162" rx="2.5" ry="2.5"/>
</g>
<!-- 41&#45;&gt;anon_41_61_0 -->
<g id="edge82" class="edge"><title>41&#45;&gt;anon_41_61_0</title>
<path fill="none" stroke="black" d="M237.606,-341.935C210.212,-343.973 179.035,-346.293 169.961,-346.968"/>
</g>
<!-- anon_41_63_0 -->
<g id="node141" class="node"><title>anon_41_63_0</title>
<ellipse fill="white" stroke="black" cx="381.617" cy="-417.419" rx="2.5" ry="2.5"/>
</g>
<!-- 41&#45;&gt;anon_41_63_0 -->
<g id="edge85" class="edge"><title>41&#45;&gt;anon_41_63_0</title>
<path fill="none" stroke="black" d="M319.487,-367.45C343.11,-386.45 371.1,-408.961 379.271,-415.532"/>
</g>
<!-- anon_41_76_0 -->
<g id="node143" class="node"><title>anon_41_76_0</title>
<ellipse fill="white" stroke="black" cx="182.662" cy="-400.264" rx="2.5" ry="2.5"/>
</g>
<!-- 41&#45;&gt;anon_41_76_0 -->
<g id="edge92" class="edge"><title>41&#45;&gt;anon_41_76_0</title>
<path fill="none" stroke="black" d="M244.233,-362.567C220.34,-377.196 192.933,-393.975 184.952,-398.862"/>
</g>
<!-- anon_41_91_0 -->
<g id="node144" class="node"><title>anon_41_91_0</title>
<ellipse fill="white" stroke="black" cx="309.633" cy="-455.327" rx="2.5" ry="2.5"/>
</g>
<!-- 41&#45;&gt;anon_41_91_0 -->
<g id="edge100" class="edge"><title>41&#45;&gt;anon_41_91_0</title>
<path fill="none" stroke="black" d="M293.612,-383.68C299.814,-411.414 306.956,-443.353 309.036,-452.657"/>
</g>
<!-- 42 -->
<g id="node43" class="node"><title>42</title>
<ellipse fill="#1874cd" stroke="black" cx="335.155" cy="215.52" rx="21.5" ry="21.5"/>
</g>
<!-- 80 -->
<g id="node81" class="node"><title>80</title>
<ellipse fill="#1874cd" stroke="black" cx="330.425" cy="284.206" rx="3.5" ry="3.5"/>
</g>
<!-- 42&#45;&gt;80 -->
<g id="edge105" class="edge"><title>42&#45;&gt;80</title>
<path fill="none" stroke="black" d="M333.658,237.252C332.576,252.973 331.211,272.788 330.666,280.705"/>
</g>
<!-- 87 -->
<g id="node88" class="node"><title>87</title>
<ellipse fill="#1874cd" stroke="black" cx="267.403" cy="222.5" rx="3.5" ry="3.5"/>
</g>
<!-- 42&#45;&gt;87 -->
<g id="edge106" class="edge"><title>42&#45;&gt;87</title>
<path fill="none" stroke="black" d="M313.718,217.728C298.521,219.294 279.446,221.259 271.339,222.094"/>
</g>
<!-- anon_42_124_0 -->
<g id="node145" class="node"><title>anon_42_124_0</title>
<ellipse fill="white" stroke="black" cx="387.63" cy="171.237" rx="2.5" ry="2.5"/>
</g>
<!-- 42&#45;&gt;anon_42_124_0 -->
<g id="edge107" class="edge"><title>42&#45;&gt;anon_42_124_0</title>
<path fill="none" stroke="black" d="M351.759,201.508C364.25,190.968 380.124,177.572 385.637,172.919"/>
</g>
<!-- 44 -->
<g id="node45" class="node"><title>44</title>
<ellipse fill="#1874cd" stroke="black" cx="459.82" cy="196.846" rx="9" ry="9"/>
</g>
<!-- 59 -->
<g id="node60" class="node"><title>59</title>
<ellipse fill="#1874cd" stroke="black" cx="499.412" cy="234.261" rx="3.5" ry="3.5"/>
</g>
<!-- 44&#45;&gt;59 -->
<g id="edge109" class="edge"><title>44&#45;&gt;59</title>
<path fill="none" stroke="black" d="M466.717,203.363C475.579,211.738 490.55,225.886 496.675,231.675"/>
</g>
<!-- 124 -->
<g id="node125" class="node"><title>124</title>
<ellipse fill="white" stroke="black" cx="430.132" cy="149.265" rx="2.5" ry="2.5"/>
</g>
<!-- 44&#45;&gt;124 -->
<g id="edge110" class="edge"><title>44&#45;&gt;124</title>
<path fill="none" stroke="black" d="M454.918,188.989C447.935,177.797 435.519,157.899 431.458,151.39"/>
</g>
<!-- 45&#45;&gt;100 -->
<g id="edge147" class="edge"><title>45&#45;&gt;100</title>
<path fill="none" stroke="black" stroke-dasharray="5,2" d="M34.3664,-86.5894C27.1127,-90.1639 9.53153,-98.8276 -0.508591,-103.775"/>
</g>
<!-- 46 -->
<g id="node47" class="node"><title>46</title>
<path fill="#1874cd" stroke="black" stroke-width="0.5" d="M385.074,-73.7723C385.074,-73.7723 397.074,-73.7723 397.074,-73.7723 397.074,-74.3438 397.033,-74.9145 396.952,-75.4801 396.87,-76.0457 396.749,-76.6048 396.588,-77.1531 396.427,-77.7014 396.227,-78.2375 395.99,-78.7573 395.752,-79.2771 395.478,-79.7793 395.169,-80.26 394.86,-80.7407 394.517,-81.1988 394.143,-81.6307 393.769,-82.0625 393.364,-82.4671 392.932,-82.8413 392.5,-83.2155 392.042,-83.5584 391.562,-83.8674 391.081,-84.1763 390.579,-84.4505 390.059,-84.6879 389.539,-84.9253 389.003,-85.1253 388.455,-85.2862 387.906,-85.4472 387.347,-85.5689 386.782,-85.6502 386.216,-85.7315 385.645,-85.7723 385.074,-85.7723 384.503,-85.7723 383.932,-85.7315 383.366,-85.6502 382.801,-85.5689 382.241,-85.4472 381.693,-85.2862 381.145,-85.1253 380.609,-84.9253 380.089,-84.6879 379.569,-84.4505 379.067,-84.1763 378.586,-83.8674 378.106,-83.5584 377.647,-83.2155 377.216,-82.8413 376.784,-82.4671 376.379,-82.0625 376.005,-81.6307 375.631,-81.1988 375.288,-80.7407 374.979,-80.26 374.67,-79.7793 374.396,-79.2771 374.158,-78.7573 373.921,-78.2375 373.721,-77.7014 373.56,-77.1531 373.399,-76.6048 373.277,-76.0457 373.196,-75.4801 373.115,-74.9145 373.074,-74.3438 373.074,-73.7723 373.074,-73.2009 373.115,-72.6302 373.196,-72.0646 373.277,-71.4989 373.399,-70.9398 373.56,-70.3915 373.721,-69.8432 373.921,-69.3071 374.158,-68.7873 374.396,-68.2675 374.67,-67.7654 374.979,-67.2846 375.288,-66.8039 375.631,-66.3459 376.005,-65.914 376.379,-65.4821 376.784,-65.0775 377.216,-64.7033 377.647,-64.3291 378.106,-63.9862 378.586,-63.6773 379.067,-63.3683 379.569,-63.0941 380.089,-62.8567 380.609,-62.6194 381.145,-62.4194 381.693,-62.2584 382.241,-62.0974 382.801,-61.9758 383.366,-61.8945 383.366,-61.8945 385.074,-73.7723 385.074,-73.7723"/>
<path fill="olivedrab" stroke="black" stroke-width="0.5" d="M385.074,-73.7723C385.074,-73.7723 383.366,-61.8945 383.366,-61.8945 383.79,-61.8335 384.217,-61.7953 384.646,-61.78 385.074,-61.7647 385.503,-61.7723 385.93,-61.8029 386.357,-61.8335 386.783,-61.8869 387.205,-61.963 387.626,-62.0391 388.044,-62.1377 388.455,-62.2584 388.866,-62.3791 389.27,-62.5218 389.666,-62.6858 390.062,-62.8498 390.449,-63.0348 390.825,-63.2402 391.201,-63.4455 391.566,-63.6709 391.918,-63.9153 392.27,-64.1597 392.608,-64.4227 392.932,-64.7033 393.256,-64.9839 393.565,-65.2817 393.857,-65.5953 394.149,-65.9089 394.424,-66.238 394.68,-66.581 394.937,-66.924 395.175,-67.2806 395.394,-67.6491 395.613,-68.0176 395.812,-68.3976 395.99,-68.7873 396.168,-69.1771 396.325,-69.5762 396.46,-69.9827 396.595,-70.3893 396.709,-70.8028 396.8,-71.2215 396.891,-71.6403 396.959,-72.0635 397.005,-72.4896 397.051,-72.9156 397.074,-73.3438 397.074,-73.7723 397.074,-73.7723 385.074,-73.7723 385.074,-73.7723"/>
<ellipse fill="none" stroke="black" cx="385.074" cy="-73.7723" rx="12" ry="12"/>
</g>
<!-- 49 -->
<g id="node50" class="node"><title>49</title>
<path fill="#1874cd" stroke="black" stroke-width="0.5" d="M464.298,-54.1574C464.298,-54.1574 478.298,-54.1574 478.298,-54.1574 478.298,-55.0132 478.22,-55.8672 478.064,-56.7087 477.908,-57.5501 477.675,-58.3755 477.368,-59.1745 477.062,-59.9735 476.682,-60.7426 476.235,-61.4723 475.788,-62.202 475.275,-62.8892 474.702,-63.5252 474.13,-64.1612 473.5,-64.7433 472.821,-65.2643 472.142,-65.7853 471.417,-66.2429 470.654,-66.6315 469.892,-67.02 469.095,-67.3378 468.274,-67.5808 467.454,-67.8239 466.613,-67.9912 465.762,-68.0807 464.91,-68.1701 464.053,-68.1813 463.2,-68.1142 462.347,-68.0471 461.501,-67.9018 460.675,-67.6803 459.848,-67.4588 459.043,-67.162 458.271,-66.7936 457.499,-66.4251 456.762,-65.9866 456.069,-65.4836 455.377,-64.9806 454.732,-64.4151 454.143,-63.7943 453.554,-63.1735 453.023,-62.5 452.557,-61.7823 452.091,-61.0646 451.691,-60.3056 451.364,-59.5149 451.036,-58.7243 450.782,-57.9052 450.604,-57.0681 450.604,-57.0681 464.298,-54.1574 464.298,-54.1574"/>
<path fill="olivedrab" stroke="black" stroke-width="0.5" d="M464.298,-54.1574C464.298,-54.1574 450.604,-57.0681 450.604,-57.0681 450.503,-56.59 450.426,-56.1069 450.375,-55.6208 450.324,-55.1346 450.298,-54.6462 450.298,-54.1574 450.298,-53.6686 450.324,-53.1801 450.375,-52.694 450.426,-52.2078 450.503,-51.7247 450.604,-51.2466 450.706,-50.7685 450.832,-50.296 450.983,-49.8311 451.134,-49.3662 451.31,-48.9096 451.509,-48.463 451.707,-48.0165 451.929,-47.5807 452.174,-47.1574 452.418,-46.734 452.685,-46.3238 452.972,-45.9284 453.259,-45.5329 453.567,-45.1528 453.894,-44.7895 454.221,-44.4263 454.567,-44.0804 454.93,-43.7533 455.294,-43.4263 455.674,-43.1184 456.069,-42.8311 456.465,-42.5438 456.875,-42.2774 457.298,-42.033 457.722,-41.7886 458.157,-41.5665 458.604,-41.3677 459.05,-41.1689 459.507,-40.9936 459.972,-40.8426 460.437,-40.6915 460.909,-40.5649 461.387,-40.4633 461.866,-40.3617 462.349,-40.2851 462.835,-40.2341 463.321,-40.183 463.809,-40.1574 464.298,-40.1574 464.787,-40.1574 465.275,-40.183 465.762,-40.2341 466.248,-40.2851 466.731,-40.3617 467.209,-40.4633 467.687,-40.5649 468.16,-40.6915 468.624,-40.8426 469.089,-40.9936 469.546,-41.1689 469.993,-41.3677 470.439,-41.5665 470.875,-41.7886 471.298,-42.033 471.722,-42.2774 472.132,-42.5438 472.527,-42.8311 472.923,-43.1184 473.303,-43.4263 473.666,-43.7533 474.029,-44.0804 474.375,-44.4263 474.702,-44.7895 475.029,-45.1528 475.337,-45.5329 475.624,-45.9284 475.912,-46.3238 476.178,-46.734 476.423,-47.1574 476.667,-47.5807 476.889,-48.0165 477.088,-48.463 477.287,-48.9096 477.462,-49.3662 477.613,-49.8311 477.764,-50.296 477.891,-50.7685 477.992,-51.2466 478.094,-51.7247 478.17,-52.2078 478.222,-52.694 478.273,-53.1801 478.298,-53.6686 478.298,-54.1574 478.298,-54.1574 464.298,-54.1574 464.298,-54.1574"/>
<ellipse fill="none" stroke="black" cx="464.298" cy="-54.1574" rx="14" ry="14"/>
</g>
<!-- 46&#45;&gt;49 -->
<g id="edge111" class="edge"><title>46&#45;&gt;49</title>
<path fill="none" stroke="black" d="M396.764,-70.8781C411.14,-67.3187 435.499,-61.2877 450.699,-57.5244"/>
</g>
<!-- 115 -->
<g id="node116" class="node"><title>115</title>
<ellipse fill="olivedrab" stroke="black" cx="329.569" cy="-89.885" rx="3.5" ry="3.5"/>
</g>
<!-- 46&#45;&gt;115 -->
<g id="edge112" class="edge"><title>46&#45;&gt;115</title>
<path fill="none" stroke="black" d="M373.303,-77.1894C360.574,-80.8845 341.041,-86.5548 333.105,-88.8587"/>
</g>
<!-- anon_47_58_0 -->
<g id="node146" class="node"><title>anon_47_58_0</title>
<ellipse fill="white" stroke="black" cx="131.422" cy="-248.983" rx="2.5" ry="2.5"/>
</g>
<!-- 47&#45;&gt;anon_47_58_0 -->
<g id="edge113" class="edge"><title>47&#45;&gt;anon_47_58_0</title>
<path fill="none" stroke="black" d="M170.1,-271.216C161.907,-266.506 140.759,-254.35 133.731,-250.31"/>
</g>
<!-- 51 -->
<g id="node52" class="node"><title>51</title>
<ellipse fill="#1874cd" stroke="black" cx="444.704" cy="-121.93" rx="6" ry="6"/>
</g>
<!-- 49&#45;&gt;51 -->
<g id="edge116" class="edge"><title>49&#45;&gt;51</title>
<path fill="none" stroke="black" d="M460.333,-67.8721C456.084,-82.5698 449.533,-105.228 446.437,-115.934"/>
</g>
<!-- 111 -->
<g id="node112" class="node"><title>111</title>
<ellipse fill="olivedrab" stroke="black" cx="417.27" cy="-49.8043" rx="3.5" ry="3.5"/>
</g>
<!-- 49&#45;&gt;111 -->
<g id="edge120" class="edge"><title>49&#45;&gt;111</title>
<path fill="none" stroke="black" d="M450.188,-52.8513C440.015,-51.9097 427.031,-50.7078 420.851,-50.1357"/>
</g>
<!-- 113 -->
<g id="node114" class="node"><title>113</title>
<ellipse fill="olivedrab" stroke="black" cx="517.704" cy="-36.6373" rx="3.5" ry="3.5"/>
</g>
<!-- 49&#45;&gt;113 -->
<g id="edge121" class="edge"><title>49&#45;&gt;113</title>
<path fill="none" stroke="black" d="M477.775,-49.7363C489.888,-45.7626 506.858,-40.1952 514.148,-37.8038"/>
</g>
<!-- 114 -->
<g id="node115" class="node"><title>114</title>
<ellipse fill="olivedrab" stroke="black" cx="485.218" cy="-97.2983" rx="3.5" ry="3.5"/>
</g>
<!-- 49&#45;&gt;114 -->
<g id="edge122" class="edge"><title>49&#45;&gt;114</title>
<path fill="none" stroke="black" d="M470.462,-66.8677C474.993,-76.213 480.827,-88.2438 483.606,-93.9758"/>
</g>
<!-- 116 -->
<g id="node117" class="node"><title>116</title>
<ellipse fill="olivedrab" stroke="black" cx="495.128" cy="-14.9787" rx="3.5" ry="3.5"/>
</g>
<!-- 49&#45;&gt;116 -->
<g id="edge123" class="edge"><title>49&#45;&gt;116</title>
<path fill="none" stroke="black" d="M473.05,-43.0351C479.886,-34.348 488.887,-22.9098 492.96,-17.7337"/>
</g>
<!-- anon_49_65_0 -->
<g id="node148" class="node"><title>anon_49_65_0</title>
<ellipse fill="white" stroke="black" cx="532.789" cy="-75.0172" rx="2.5" ry="2.5"/>
</g>
<!-- 49&#45;&gt;anon_49_65_0 -->
<g id="edge117" class="edge"><title>49&#45;&gt;anon_49_65_0</title>
<path fill="none" stroke="black" d="M477.83,-58.2786C494.359,-63.3129 521.202,-71.4883 529.941,-74.1499"/>
</g>
<!-- anon_49_124_0 -->
<g id="node150" class="node"><title>anon_49_124_0</title>
<ellipse fill="white" stroke="black" cx="444.475" cy="11.2556" rx="2.5" ry="2.5"/>
</g>
<!-- 49&#45;&gt;anon_49_124_0 -->
<g id="edge124" class="edge"><title>49&#45;&gt;anon_49_124_0</title>
<path fill="none" stroke="black" d="M460.191,-40.6038C455.382,-24.737 447.76,0.415128 445.282,8.59245"/>
</g>
<!-- 50 -->
<g id="node51" class="node"><title>50</title>
<ellipse fill="#1874cd" stroke="black" cx="481.447" cy="158.347" rx="9" ry="9"/>
</g>
<!-- 50&#45;&gt;124 -->
<g id="edge128" class="edge"><title>50&#45;&gt;124</title>
<path fill="none" stroke="black" d="M472.509,156.765C460.563,154.651 440.054,151.021 432.783,149.734"/>
</g>
<!-- anon_51_67_0 -->
<g id="node153" class="node"><title>anon_51_67_0</title>
<ellipse fill="white" stroke="black" cx="437.47" cy="-170.79" rx="2.5" ry="2.5"/>
</g>
<!-- 51&#45;&gt;anon_51_67_0 -->
<g id="edge129" class="edge"><title>51&#45;&gt;anon_51_67_0</title>
<path fill="none" stroke="black" d="M443.817,-127.921C442.247,-138.522 439.039,-160.197 437.89,-167.952"/>
</g>
<!-- 54 -->
<g id="node55" class="node"><title>54</title>
<ellipse fill="#1874cd" stroke="black" cx="298.207" cy="-75.7059" rx="3.5" ry="3.5"/>
</g>
<!-- 55 -->
<g id="node56" class="node"><title>55</title>
<ellipse fill="#1874cd" stroke="black" cx="33.4948" cy="-325.342" rx="11.5" ry="11.5"/>
</g>
<!-- 84 -->
<g id="node85" class="node"><title>84</title>
<ellipse fill="#1874cd" stroke="black" cx="81.5438" cy="-291.858" rx="3.5" ry="3.5"/>
</g>
<!-- 55&#45;&gt;84 -->
<g id="edge134" class="edge"><title>55&#45;&gt;84</title>
<path fill="none" stroke="black" d="M43.2182,-318.566C54.187,-310.922 71.4091,-298.921 78.4189,-294.036"/>
</g>
<!-- 85 -->
<g id="node86" class="node"><title>85</title>
<ellipse fill="#1874cd" stroke="black" cx="-14.5822" cy="-358.893" rx="3.5" ry="3.5"/>
</g>
<!-- 55&#45;&gt;85 -->
<g id="edge135" class="edge"><title>55&#45;&gt;85</title>
<path fill="none" stroke="black" d="M23.7657,-332.132C12.7905,-339.791 -4.44162,-351.816 -11.4555,-356.711"/>
</g>
<!-- anon_55_70_0 -->
<g id="node155" class="node"><title>anon_55_70_0</title>
<ellipse fill="white" stroke="black" cx="64.771" cy="-370.382" rx="2.5" ry="2.5"/>
</g>
<!-- 55&#45;&gt;anon_55_70_0 -->
<g id="edge132" class="edge"><title>55&#45;&gt;anon_55_70_0</title>
<path fill="none" stroke="black" d="M40.1276,-334.894C47.5871,-345.636 59.1934,-362.35 63.2835,-368.24"/>
</g>
<!-- anon_55_92_0 -->
<g id="node156" class="node"><title>anon_55_92_0</title>
<ellipse fill="white" stroke="black" cx="1.98575" cy="-280.466" rx="2.5" ry="2.5"/>
</g>
<!-- 55&#45;&gt;anon_55_92_0 -->
<g id="edge136" class="edge"><title>55&#45;&gt;anon_55_92_0</title>
<path fill="none" stroke="black" d="M26.8125,-315.825C19.2975,-305.122 7.60486,-288.469 3.4843,-282.6"/>
</g>
<!-- 56 -->
<g id="node57" class="node"><title>56</title>
<ellipse fill="#1874cd" stroke="black" cx="497.007" cy="-286.812" rx="3.5" ry="3.5"/>
</g>
<!-- 58 -->
<g id="node59" class="node"><title>58</title>
<ellipse fill="#1874cd" stroke="black" cx="51.1321" cy="-210.451" rx="3.5" ry="3.5"/>
</g>
<!-- 61 -->
<g id="node62" class="node"><title>61</title>
<ellipse fill="#1874cd" stroke="black" cx="118.447" cy="-356.108" rx="3.5" ry="3.5"/>
</g>
<!-- anon_62_71_0 -->
<g id="node157" class="node"><title>anon_62_71_0</title>
<ellipse fill="white" stroke="black" cx="213.096" cy="-499.651" rx="2.5" ry="2.5"/>
</g>
<!-- 62&#45;&gt;anon_62_71_0 -->
<g id="edge138" class="edge"><title>62&#45;&gt;anon_62_71_0</title>
<path fill="none" stroke="black" d="M231.093,-457.939C227.411,-466.473 217.485,-489.478 214.182,-497.134"/>
</g>
<!-- 63 -->
<g id="node64" class="node"><title>63</title>
<ellipse fill="#1874cd" stroke="black" cx="453.716" cy="-475.386" rx="3.5" ry="3.5"/>
</g>
<!-- 65 -->
<g id="node66" class="node"><title>65</title>
<ellipse fill="#1874cd" stroke="black" cx="622.231" cy="-90.3243" rx="3.5" ry="3.5"/>
</g>
<!-- 66 -->
<g id="node67" class="node"><title>66</title>
<ellipse fill="#1874cd" stroke="black" cx="242.015" cy="-78.1938" rx="3.5" ry="3.5"/>
</g>
<!-- 66&#45;&gt;94 -->
<g id="edge140" class="edge"><title>66&#45;&gt;94</title>
<path fill="none" stroke="black" d="M238.269,-77.7829C229.299,-76.7992 206.686,-74.3191 197.869,-73.3521"/>
</g>
<!-- 67 -->
<g id="node68" class="node"><title>67</title>
<ellipse fill="#1874cd" stroke="black" cx="430.864" cy="-256.645" rx="3.5" ry="3.5"/>
</g>
<!-- 70 -->
<g id="node71" class="node"><title>70</title>
<ellipse fill="#1874cd" stroke="black" cx="91.4847" cy="-404.65" rx="3.5" ry="3.5"/>
</g>
<!-- 71 -->
<g id="node72" class="node"><title>71</title>
<ellipse fill="#1874cd" stroke="black" cx="194.429" cy="-541.516" rx="3.5" ry="3.5"/>
</g>
<!-- 72 -->
<g id="node73" class="node"><title>72</title>
<ellipse fill="#1874cd" stroke="black" cx="27" cy="21" rx="3.5" ry="3.5"/>
</g>
<!-- 76 -->
<g id="node77" class="node"><title>76</title>
<ellipse fill="#1874cd" stroke="black" cx="140.559" cy="-426.708" rx="3.5" ry="3.5"/>
</g>
<!-- 77 -->
<g id="node78" class="node"><title>77</title>
<ellipse fill="#1874cd" stroke="black" cx="27" cy="-27" rx="3.5" ry="3.5"/>
</g>
<!-- 79 -->
<g id="node80" class="node"><title>79</title>
<ellipse fill="#1874cd" stroke="black" cx="27" cy="69" rx="3.5" ry="3.5"/>
</g>
<!-- 82 -->
<g id="node83" class="node"><title>82</title>
<ellipse fill="#1874cd" stroke="black" cx="75" cy="69" rx="3.5" ry="3.5"/>
</g>
<!-- 89 -->
<g id="node90" class="node"><title>89</title>
<ellipse fill="#1874cd" stroke="black" cx="207.457" cy="38.0605" rx="3.5" ry="3.5"/>
</g>
<!-- 91 -->
<g id="node92" class="node"><title>91</title>
<ellipse fill="#1874cd" stroke="black" cx="321.671" cy="-502.759" rx="3.5" ry="3.5"/>
</g>
<!-- 92 -->
<g id="node93" class="node"><title>92</title>
<ellipse fill="#1874cd" stroke="black" cx="-20.6978" cy="-243.408" rx="3.5" ry="3.5"/>
</g>
<!-- 93 -->
<g id="node94" class="node"><title>93</title>
<ellipse fill="#1874cd" stroke="black" cx="27" cy="117" rx="3.5" ry="3.5"/>
</g>
<!-- 98 -->
<g id="node99" class="node"><title>98</title>
<ellipse fill="brown" stroke="black" cx="75" cy="117" rx="3.5" ry="3.5"/>
</g>
<!-- 99 -->
<g id="node100" class="node"><title>99</title>
<ellipse fill="brown" stroke="black" cx="-65.1998" cy="-171.996" rx="3.5" ry="3.5"/>
</g>
<!-- 102 -->
<g id="node103" class="node"><title>102</title>
<ellipse fill="brown" stroke="black" cx="8.94621" cy="-162.82" rx="3.5" ry="3.5"/>
</g>
<!-- 100&#45;&gt;102 -->
<g id="edge141" class="edge"><title>100&#45;&gt;102</title>
<path fill="none" stroke="black" d="M-5.52296,-115.104C-1.84314,-127.239 5.16003,-150.334 7.85324,-159.216"/>
</g>
<!-- 105 -->
<g id="node106" class="node"><title>105</title>
<ellipse fill="brown" stroke="black" cx="-15.579" cy="-168.013" rx="3.5" ry="3.5"/>
</g>
<!-- 100&#45;&gt;105 -->
<g id="edge142" class="edge"><title>100&#45;&gt;105</title>
<path fill="none" stroke="black" d="M-8.90081,-115.573C-10.5963,-128.886 -13.8874,-154.73 -15.1083,-164.317"/>
</g>
<!-- 103 -->
<g id="node104" class="node"><title>103</title>
<ellipse fill="brown" stroke="black" cx="123" cy="117" rx="3.5" ry="3.5"/>
</g>
<!-- 104 -->
<g id="node105" class="node"><title>104</title>
<ellipse fill="brown" stroke="black" cx="51" cy="-147" rx="3.5" ry="3.5"/>
</g>
<!-- 106 -->
<g id="node107" class="node"><title>106</title>
<ellipse fill="brown" stroke="black" cx="51" cy="165" rx="3.5" ry="3.5"/>
</g>
<!-- 107 -->
<g id="node108" class="node"><title>107</title>
<ellipse fill="brown" stroke="black" cx="99" cy="165" rx="3.5" ry="3.5"/>
</g>
<!-- 108 -->
<g id="node109" class="node"><title>108</title>
<ellipse fill="brown" stroke="black" cx="147" cy="165" rx="3.5" ry="3.5"/>
</g>
<!-- anon_3_35_0&#45;&gt;35 -->
<g id="edge18" class="edge"><title>anon_3_35_0&#45;&gt;35</title>
<path fill="none" stroke="black" d="M129.088,42.7462C134.29,49.2387 150.087,68.9532 156.289,76.6943"/>
</g>
<!-- anon_3_40_0&#45;&gt;40 -->
<g id="edge21" class="edge"><title>anon_3_40_0&#45;&gt;40</title>
<path fill="none" stroke="black" d="M134.241,-168.583C138.737,-175.219 152.388,-195.37 157.748,-203.282"/>
</g>
<!-- anon_3_89_0&#45;&gt;89 -->
<g id="edge26" class="edge"><title>anon_3_89_0&#45;&gt;89</title>
<path fill="none" stroke="black" d="M167.286,14.238C174.381,18.446 196.069,31.3074 204.271,36.1708"/>
</g>
<!-- anon_6_27_1 -->
<g id="node130" class="node"><title>anon_6_27_1</title>
<ellipse fill="white" stroke="black" cx="-200.618" cy="-38.781" rx="2.5" ry="2.5"/>
</g>
<!-- anon_6_27_0&#45;&gt;anon_6_27_1 -->
<g id="edge45" class="edge"><title>anon_6_27_0&#45;&gt;anon_6_27_1</title>
<path fill="none" stroke="black" d="M-148.442,-41.6573C-157.681,-41.1479 -188.474,-39.4505 -197.871,-38.9325"/>
</g>
<!-- anon_6_27_1&#45;&gt;27 -->
<g id="edge46" class="edge"><title>anon_6_27_1&#45;&gt;27</title>
<path fill="none" stroke="black" d="M-203.33,-38.8522C-212.107,-39.0825 -239.839,-39.8103 -251.552,-40.1176"/>
</g>
<!-- anon_6_99_0&#45;&gt;99 -->
<g id="edge51" class="edge"><title>anon_6_99_0&#45;&gt;99</title>
<path fill="none" stroke="black" d="M-63.7723,-121.225C-64.0157,-129.883 -64.806,-157.989 -65.0937,-168.224"/>
</g>
<!-- anon_15_23_1 -->
<g id="node133" class="node"><title>anon_15_23_1</title>
<ellipse fill="white" stroke="black" cx="-58.7833" cy="264.402" rx="2.5" ry="2.5"/>
</g>
<!-- anon_15_23_0&#45;&gt;anon_15_23_1 -->
<g id="edge62" class="edge"><title>anon_15_23_0&#45;&gt;anon_15_23_1</title>
<path fill="none" stroke="black" d="M-58.028,221.848C-58.1712,229.915 -58.5952,253.804 -58.7367,261.777"/>
</g>
<!-- anon_15_23_1&#45;&gt;23 -->
<g id="edge63" class="edge"><title>anon_15_23_1&#45;&gt;23</title>
<path fill="none" stroke="black" d="M-58.7565,267.04C-58.6792,274.641 -58.4561,296.586 -58.3686,305.187"/>
</g>
<!-- anon_20_123_0&#45;&gt;123 -->
<g id="edge66" class="edge"><title>anon_20_123_0&#45;&gt;123</title>
<path fill="none" stroke="black" d="M-153.509,133.411C-147.055,127.787 -126.94,110.261 -120.217,104.403"/>
</g>
<!-- anon_41_54_1 -->
<g id="node136" class="node"><title>anon_41_54_1</title>
<ellipse fill="white" stroke="black" cx="290.403" cy="-163.728" rx="2.5" ry="2.5"/>
</g>
<!-- anon_41_54_0&#45;&gt;anon_41_54_1 -->
<g id="edge74" class="edge"><title>anon_41_54_0&#45;&gt;anon_41_54_1</title>
<path fill="none" stroke="black" d="M284.82,-207.684C285.835,-199.693 288.997,-174.792 290.054,-166.469"/>
</g>
<!-- anon_41_54_2 -->
<g id="node137" class="node"><title>anon_41_54_2</title>
<ellipse fill="white" stroke="black" cx="296.289" cy="-119.771" rx="2.5" ry="2.5"/>
</g>
<!-- anon_41_54_1&#45;&gt;anon_41_54_2 -->
<g id="edge75" class="edge"><title>anon_41_54_1&#45;&gt;anon_41_54_2</title>
<path fill="none" stroke="black" d="M290.753,-161.109C291.803,-153.273 294.91,-130.066 295.947,-122.32"/>
</g>
<!-- anon_41_54_2&#45;&gt;54 -->
<g id="edge76" class="edge"><title>anon_41_54_2&#45;&gt;54</title>
<path fill="none" stroke="black" d="M296.403,-117.146C296.732,-109.587 297.683,-87.7602 298.055,-79.2051"/>
</g>
<!-- anon_41_56_1 -->
<g id="node139" class="node"><title>anon_41_56_1</title>
<ellipse fill="white" stroke="black" cx="453.414" cy="-299.153" rx="2.5" ry="2.5"/>
</g>
<!-- anon_41_56_0&#45;&gt;anon_41_56_1 -->
<g id="edge78" class="edge"><title>anon_41_56_0&#45;&gt;anon_41_56_1</title>
<path fill="none" stroke="black" d="M410.853,-311.409C418.59,-309.181 442.701,-302.238 450.76,-299.918"/>
</g>
<!-- anon_41_56_1&#45;&gt;56 -->
<g id="edge79" class="edge"><title>anon_41_56_1&#45;&gt;56</title>
<path fill="none" stroke="black" d="M456.011,-298.418C463.489,-296.301 485.082,-290.188 493.545,-287.792"/>
</g>
<!-- anon_41_61_0&#45;&gt;61 -->
<g id="edge83" class="edge"><title>anon_41_61_0&#45;&gt;61</title>
<path fill="none" stroke="black" d="M164.729,-347.643C156.554,-349.138 131.567,-353.708 122.118,-355.437"/>
</g>
<!-- anon_41_63_1 -->
<g id="node142" class="node"><title>anon_41_63_1</title>
<ellipse fill="white" stroke="black" cx="418.692" cy="-446.251" rx="2.5" ry="2.5"/>
</g>
<!-- anon_41_63_0&#45;&gt;anon_41_63_1 -->
<g id="edge86" class="edge"><title>anon_41_63_0&#45;&gt;anon_41_63_1</title>
<path fill="none" stroke="black" d="M383.61,-418.969C389.988,-423.928 409.861,-439.383 416.505,-444.55"/>
</g>
<!-- anon_41_63_1&#45;&gt;63 -->
<g id="edge87" class="edge"><title>anon_41_63_1&#45;&gt;63</title>
<path fill="none" stroke="black" d="M420.99,-448.162C427.199,-453.328 444.294,-467.548 450.982,-473.112"/>
</g>
<!-- anon_41_76_0&#45;&gt;76 -->
<g id="edge93" class="edge"><title>anon_41_76_0&#45;&gt;76</title>
<path fill="none" stroke="black" d="M180.398,-401.685C173.361,-406.105 151.852,-419.615 143.719,-424.724"/>
</g>
<!-- anon_41_91_0&#45;&gt;91 -->
<g id="edge101" class="edge"><title>anon_41_91_0&#45;&gt;91</title>
<path fill="none" stroke="black" d="M310.28,-457.877C312.292,-465.805 318.442,-490.036 320.768,-499.199"/>
</g>
<!-- anon_42_124_0&#45;&gt;124 -->
<g id="edge108" class="edge"><title>anon_42_124_0&#45;&gt;124</title>
<path fill="none" stroke="black" d="M389.915,170.056C397.226,166.276 420.009,154.498 427.624,150.561"/>
</g>
<!-- anon_47_58_1 -->
<g id="node147" class="node"><title>anon_47_58_1</title>
<ellipse fill="white" stroke="black" cx="91.0032" cy="-229.891" rx="2.5" ry="2.5"/>
</g>
<!-- anon_47_58_0&#45;&gt;anon_47_58_1 -->
<g id="edge114" class="edge"><title>anon_47_58_0&#45;&gt;anon_47_58_1</title>
<path fill="none" stroke="black" d="M128.77,-247.731C121.324,-244.213 100.31,-234.287 93.3068,-230.979"/>
</g>
<!-- anon_47_58_1&#45;&gt;58 -->
<g id="edge115" class="edge"><title>anon_47_58_1&#45;&gt;58</title>
<path fill="none" stroke="black" d="M88.3872,-228.615C81.4573,-225.237 62.6167,-216.051 54.7055,-212.194"/>
</g>
<!-- anon_49_65_1 -->
<g id="node149" class="node"><title>anon_49_65_1</title>
<ellipse fill="white" stroke="black" cx="578.382" cy="-82.0812" rx="2.5" ry="2.5"/>
</g>
<!-- anon_49_65_0&#45;&gt;anon_49_65_1 -->
<g id="edge118" class="edge"><title>anon_49_65_0&#45;&gt;anon_49_65_1</title>
<path fill="none" stroke="black" d="M535.504,-75.4379C543.633,-76.6973 567.704,-80.4267 575.738,-81.6715"/>
</g>
<!-- anon_49_65_1&#45;&gt;65 -->
<g id="edge119" class="edge"><title>anon_49_65_1&#45;&gt;65</title>
<path fill="none" stroke="black" d="M580.994,-82.5722C588.516,-83.9863 610.236,-88.0694 618.749,-89.6698"/>
</g>
<!-- anon_49_124_1 -->
<g id="node151" class="node"><title>anon_49_124_1</title>
<ellipse fill="white" stroke="black" cx="436.235" cy="56.5907" rx="2.5" ry="2.5"/>
</g>
<!-- anon_49_124_0&#45;&gt;anon_49_124_1 -->
<g id="edge125" class="edge"><title>anon_49_124_0&#45;&gt;anon_49_124_1</title>
<path fill="none" stroke="black" d="M443.984,13.9558C442.515,22.0381 438.165,45.9727 436.713,53.9615"/>
</g>
<!-- anon_49_124_2 -->
<g id="node152" class="node"><title>anon_49_124_2</title>
<ellipse fill="white" stroke="black" cx="430.721" cy="101.674" rx="2.5" ry="2.5"/>
</g>
<!-- anon_49_124_1&#45;&gt;anon_49_124_2 -->
<g id="edge126" class="edge"><title>anon_49_124_1&#45;&gt;anon_49_124_2</title>
<path fill="none" stroke="black" d="M435.906,59.2759C434.923,67.3132 432.012,91.1147 431.041,99.0591"/>
</g>
<!-- anon_49_124_2&#45;&gt;124 -->
<g id="edge127" class="edge"><title>anon_49_124_2&#45;&gt;124</title>
<path fill="none" stroke="black" d="M430.689,104.232C430.588,112.418 430.272,137.929 430.167,146.457"/>
</g>
<!-- anon_51_67_1 -->
<g id="node154" class="node"><title>anon_51_67_1</title>
<ellipse fill="white" stroke="black" cx="431.444" cy="-213.381" rx="2.5" ry="2.5"/>
</g>
<!-- anon_51_67_0&#45;&gt;anon_51_67_1 -->
<g id="edge130" class="edge"><title>anon_51_67_0&#45;&gt;anon_51_67_1</title>
<path fill="none" stroke="black" d="M437.111,-173.327C436.057,-180.777 432.975,-202.562 431.856,-210.47"/>
</g>
<!-- anon_51_67_1&#45;&gt;67 -->
<g id="edge131" class="edge"><title>anon_51_67_1&#45;&gt;67</title>
<path fill="none" stroke="black" d="M431.409,-215.958C431.311,-223.307 431.028,-244.391 430.913,-252.958"/>
</g>
<!-- anon_55_70_0&#45;&gt;70 -->
<g id="edge133" class="edge"><title>anon_55_70_0&#45;&gt;70</title>
<path fill="none" stroke="black" d="M66.5237,-372.631C71.1668,-378.587 83.79,-394.78 89.0905,-401.579"/>
</g>
<!-- anon_55_92_0&#45;&gt;92 -->
<g id="edge137" class="edge"><title>anon_55_92_0&#45;&gt;92</title>
<path fill="none" stroke="black" d="M0.497422,-278.035C-3.44513,-271.594 -14.164,-254.082 -18.6648,-246.73"/>
</g>
<!-- anon_62_71_0&#45;&gt;71 -->
<g id="edge139" class="edge"><title>anon_62_71_0&#45;&gt;71</title>
<path fill="none" stroke="black" d="M211.871,-502.398C208.562,-509.82 199.451,-530.254 195.886,-538.249"/>
</g>
</g>
</svg>
