<?xml version="1.0" encoding="UTF-8" standalone="no"?>
<!DOCTYPE svg PUBLIC "-//W3C//DTD SVG 1.1//EN"
 "http://www.w3.org/Graphics/SVG/1.1/DTD/svg11.dtd">
<!-- Generated by graphviz version 2.38.0 (20140413.2041)
 -->
<!-- Title: %3 Pages: 1 -->
<svg width="286pt" height="216pt"
 viewBox="0.00 0.00 285.59 216.29" xmlns="http://www.w3.org/2000/svg" xmlns:xlink="http://www.w3.org/1999/xlink">
<g id="graph0" class="graph" transform="scale(1 1) rotate(0) translate(46.9349 125.788)">
<title>%3</title>
<polygon fill="white" stroke="none" points="-46.9349,90.4977 -46.9349,-125.788 238.655,-125.788 238.655,90.4977 -46.9349,90.4977"/>
<!-- 0 -->
<g id="node1" class="node"><title>0</title>
<path fill="#1874cd" stroke="black" stroke-width="0.5" d="M-2.03054,-82.4615C-2.03054,-82.4615 9.96946,-82.4615 9.96946,-82.4615 9.96946,-83.033 9.92864,-83.6037 9.84732,-84.1693 9.76599,-84.7349 9.64437,-85.294 9.48338,-85.8423 9.32238,-86.3906 9.12243,-86.9267 8.88504,-87.4465 8.64766,-87.9663 8.37345,-88.4685 8.0645,-88.9492 7.75556,-89.43 7.41267,-89.888 7.03845,-90.3199 6.66424,-90.7517 6.25965,-91.1563 5.82779,-91.5305 5.39592,-91.9047 4.93788,-92.2476 4.45715,-92.5566 3.97642,-92.8655 3.47424,-93.1397 2.95444,-93.3771 2.43464,-93.6145 1.89854,-93.8145 1.35025,-93.9755 0.801956,-94.1364 0.242862,-94.2581 -0.322763,-94.3394 -0.888387,-94.4207 -1.4591,-94.4615 -2.03054,-94.4615 -2.60198,-94.4615 -3.17269,-94.4207 -3.73832,-94.3394 -4.30394,-94.2581 -4.86304,-94.1364 -5.41133,-93.9755 -5.95963,-93.8145 -6.49572,-93.6145 -7.01552,-93.3771 -7.53532,-93.1397 -8.0375,-92.8655 -8.51823,-92.5566 -8.99896,-92.2476 -9.457,-91.9047 -9.88887,-91.5305 -10.3207,-91.1563 -10.7253,-90.7517 -11.0995,-90.3199 -11.4738,-89.888 -11.8166,-89.43 -12.1256,-88.9492 -12.4345,-88.4685 -12.7087,-87.9663 -12.9461,-87.4465 -13.1835,-86.9267 -13.3835,-86.3906 -13.5445,-85.8423 -13.7054,-85.294 -13.8271,-84.7349 -13.9084,-84.1693 -13.9897,-83.6037 -14.0305,-83.033 -14.0305,-82.4615 -14.0305,-81.8901 -13.9897,-81.3194 -13.9084,-80.7538 -13.8271,-80.1881 -13.7054,-79.629 -13.5445,-79.0807 -13.3835,-78.5325 -13.1835,-77.9964 -12.9461,-77.4766 -12.7087,-76.9568 -12.4345,-76.4546 -12.1256,-75.9738 -11.8166,-75.4931 -11.4737,-75.0351 -11.0995,-74.6032 -10.7253,-74.1713 -10.3207,-73.7668 -9.88887,-73.3925 -9.457,-73.0183 -8.99896,-72.6754 -8.51823,-72.3665 -8.0375,-72.0575 -7.53532,-71.7833 -7.01552,-71.546 -6.49572,-71.3086 -5.95962,-71.1086 -5.41133,-70.9476 -4.86304,-70.7866 -4.30394,-70.665 -3.73832,-70.5837 -3.73832,-70.5837 -2.03054,-82.4615 -2.03054,-82.4615"/>
<path fill="olivedrab" stroke="black" stroke-width="0.5" d="M-2.03054,-82.4615C-2.03054,-82.4615 -3.73832,-70.5837 -3.73832,-70.5837 -3.31418,-70.5227 -2.88708,-70.4845 -2.45885,-70.4692 -2.03062,-70.4539 -1.60188,-70.4615 -1.17447,-70.4921 -0.747059,-70.5227 -0.321594,-70.5761 0.100099,-70.6522 0.521792,-70.7283 0.939108,-70.8269 1.35025,-70.9476 1.7614,-71.0683 2.16578,-71.211 2.56166,-71.375 2.95755,-71.539 3.34436,-71.724 3.72045,-71.9294 4.09654,-72.1347 4.46135,-72.3601 4.81333,-72.6045 5.16531,-72.8489 5.50395,-73.1119 5.82779,-73.3925 6.15163,-73.6732 6.46021,-73.9709 6.75219,-74.2845 7.04418,-74.5981 7.31916,-74.9272 7.57596,-75.2702 7.83275,-75.6132 8.07098,-75.9698 8.28963,-76.3383 8.50828,-76.7068 8.70704,-77.0868 8.88504,-77.4766 9.06305,-77.8663 9.22005,-78.2654 9.35537,-78.6719 9.49069,-79.0785 9.60414,-79.492 9.69522,-79.9108 9.78631,-80.3295 9.8549,-80.7527 9.9007,-81.1788 9.94651,-81.6048 9.96946,-82.033 9.96946,-82.4615 9.96946,-82.4615 -2.03054,-82.4615 -2.03054,-82.4615"/>
<ellipse fill="none" stroke="black" cx="-2.03054" cy="-82.4615" rx="12" ry="12"/>
</g>
<!-- 1 -->
<g id="node2" class="node"><title>1</title>
<path fill="#1874cd" stroke="black" stroke-width="0.5" d="M45.6992,-41.8088C45.6992,-41.8088 59.6992,-41.8088 59.6992,-41.8088 59.6992,-42.6646 59.6207,-43.5186 59.4647,-44.3601 59.3088,-45.2016 59.076,-46.027 58.7693,-46.826 58.4626,-47.6249 58.0833,-48.3941 57.6361,-49.1238 57.189,-49.8535 56.6758,-50.5407 56.1032,-51.1767 55.5305,-51.8126 54.9008,-52.3948 54.2218,-52.9158 53.5429,-53.4368 52.8176,-53.8944 52.055,-54.2829 51.2925,-54.6714 50.4959,-54.9892 49.6754,-55.2323 48.8548,-55.4754 48.0137,-55.6427 47.1626,-55.7321 46.3114,-55.8216 45.4539,-55.8328 44.6007,-55.7657 43.7476,-55.6985 42.9023,-55.5533 42.0757,-55.3318 41.2491,-55.1103 40.4445,-54.8135 39.672,-54.445 38.8996,-54.0766 38.1625,-53.6381 37.4702,-53.1351 36.7778,-52.632 36.133,-52.0666 35.5439,-51.4458 34.9548,-50.825 34.4239,-50.1515 33.9578,-49.4338 33.4917,-48.716 33.0924,-47.9571 32.7649,-47.1664 32.4373,-46.3757 32.183,-45.5567 32.0051,-44.7196 32.0051,-44.7196 45.6992,-41.8088 45.6992,-41.8088"/>
<path fill="olivedrab" stroke="black" stroke-width="0.5" d="M45.6992,-41.8088C45.6992,-41.8088 32.0051,-44.7196 32.0051,-44.7196 31.9035,-44.2415 31.827,-43.7583 31.7759,-43.2722 31.7248,-42.7861 31.6992,-42.2976 31.6992,-41.8088 31.6992,-41.32 31.7248,-40.8316 31.7759,-40.3454 31.827,-39.8593 31.9035,-39.3762 32.0051,-38.8981 32.1067,-38.4199 32.2333,-37.9475 32.3844,-37.4826 32.5354,-37.0177 32.7107,-36.5611 32.9095,-36.1145 33.1083,-35.668 33.3304,-35.2321 33.5748,-34.8088 33.8192,-34.3855 34.0856,-33.9753 34.3729,-33.5798 34.6602,-33.1844 34.9681,-32.8042 35.2951,-32.441 35.6222,-32.0777 35.9681,-31.7319 36.3313,-31.4048 36.6946,-31.0777 37.0747,-30.7699 37.4702,-30.4826 37.8656,-30.1953 38.2759,-29.9289 38.6992,-29.6845 39.1225,-29.4401 39.5583,-29.218 40.0049,-29.0192 40.4514,-28.8204 40.908,-28.6451 41.3729,-28.494 41.8378,-28.343 42.3103,-28.2164 42.7884,-28.1148 43.2665,-28.0131 43.7496,-27.9366 44.2358,-27.8855 44.7219,-27.8344 45.2104,-27.8088 45.6992,-27.8088 46.188,-27.8088 46.6764,-27.8344 47.1626,-27.8855 47.6487,-27.9366 48.1318,-28.0131 48.6099,-28.1148 49.0881,-28.2164 49.5605,-28.343 50.0254,-28.494 50.4903,-28.6451 50.9469,-28.8204 51.3935,-29.0192 51.84,-29.218 52.2759,-29.4401 52.6992,-29.6845 53.1225,-29.9289 53.5327,-30.1953 53.9282,-30.4826 54.3236,-30.7699 54.7037,-31.0777 55.067,-31.4048 55.4302,-31.7319 55.7761,-32.0777 56.1032,-32.441 56.4303,-32.8042 56.7381,-33.1844 57.0254,-33.5798 57.3127,-33.9753 57.5791,-34.3855 57.8235,-34.8088 58.0679,-35.2321 58.29,-35.668 58.4888,-36.1145 58.6876,-36.5611 58.8629,-37.0177 59.014,-37.4826 59.165,-37.9475 59.2916,-38.4199 59.3932,-38.8981 59.4949,-39.3762 59.5714,-39.8593 59.6225,-40.3454 59.6736,-40.8316 59.6992,-41.32 59.6992,-41.8088 59.6992,-41.8088 45.6992,-41.8088 45.6992,-41.8088"/>
<ellipse fill="none" stroke="black" cx="45.6992" cy="-41.8088" rx="14" ry="14"/>
</g>
<!-- 0&#45;&#45;1 -->
<g id="edge1" class="edge"><title>0&#45;&#45;1</title>
<path fill="none" stroke="black" d="M7.17223,-74.6233C15.0823,-67.8861 26.5011,-58.1604 34.8536,-51.0463"/>
</g>
<!-- 8 -->
<g id="node9" class="node"><title>8</title>
<ellipse fill="olivedrab" stroke="black" cx="-39.4349" cy="-118.288" rx="3.5" ry="3.5"/>
</g>
<!-- 0&#45;&#45;8 -->
<g id="edge2" class="edge"><title>0&#45;&#45;8</title>
<path fill="none" stroke="black" d="M-10.7059,-90.7708C-19.1657,-98.8737 -31.5119,-110.699 -36.8344,-115.797"/>
</g>
<!-- 2 -->
<g id="node3" class="node"><title>2</title>
<ellipse fill="#1874cd" stroke="black" cx="102.718" cy="-43.0416" rx="6" ry="6"/>
</g>
<!-- 1&#45;&#45;2 -->
<g id="edge3" class="edge"><title>1&#45;&#45;2</title>
<path fill="none" stroke="black" d="M59.7938,-42.1136C71.5342,-42.3674 87.7004,-42.7169 96.4618,-42.9064"/>
</g>
<!-- 5 -->
<g id="node6" class="node"><title>5</title>
<ellipse fill="olivedrab" stroke="black" cx="38.7499" cy="-95.1149" rx="3.5" ry="3.5"/>
</g>
<!-- 1&#45;&#45;5 -->
<g id="edge7" class="edge"><title>1&#45;&#45;5</title>
<path fill="none" stroke="black" d="M43.8733,-55.8144C42.2969,-67.9064 40.1311,-84.5197 39.2025,-91.643"/>
</g>
<!-- 6 -->
<g id="node7" class="node"><title>6</title>
<ellipse fill="olivedrab" stroke="black" cx="-7.64016" cy="-35.3164" rx="3.5" ry="3.5"/>
</g>
<!-- 1&#45;&#45;6 -->
<g id="edge8" class="edge"><title>1&#45;&#45;6</title>
<path fill="none" stroke="black" d="M31.6849,-40.103C19.8322,-38.6603 3.63823,-36.6892 -3.71799,-35.7938"/>
</g>
<!-- 7 -->
<g id="node8" class="node"><title>7</title>
<ellipse fill="olivedrab" stroke="black" cx="73.2373" cy="4.31389" rx="3.5" ry="3.5"/>
</g>
<!-- 1&#45;&#45;7 -->
<g id="edge9" class="edge"><title>1&#45;&#45;7</title>
<path fill="none" stroke="black" d="M52.9345,-29.6906C59.0538,-19.4416 67.4145,-5.43857 71.2124,0.922379"/>
</g>
<!-- 9 -->
<g id="node10" class="node"><title>9</title>
<ellipse fill="olivedrab" stroke="black" cx="72.6274" cy="-88.3326" rx="3.5" ry="3.5"/>
</g>
<!-- 1&#45;&#45;9 -->
<g id="edge10" class="edge"><title>1&#45;&#45;9</title>
<path fill="none" stroke="black" d="M52.7742,-54.0324C58.8827,-64.5859 67.2751,-79.0855 70.8735,-85.3025"/>
</g>
<!-- anon_1_3_0 -->
<g id="node11" class="node"><title>anon_1_3_0</title>
<ellipse fill="white" stroke="black" cx="23.2055" cy="6.32677" rx="2.5" ry="2.5"/>
</g>
<!-- 1&#45;&#45;anon_1_3_0 -->
<g id="edge4" class="edge"><title>1&#45;&#45;anon_1_3_0</title>
<path fill="none" stroke="black" d="M39.6713,-28.9094C34.3618,-17.5473 27.0584,-1.91822 24.3105,3.96228"/>
</g>
<!-- anon_2_4_0 -->
<g id="node13" class="node"><title>anon_2_4_0</title>
<ellipse fill="white" stroke="black" cx="147.798" cy="-44.6131" rx="2.5" ry="2.5"/>
</g>
<!-- 2&#45;&#45;anon_2_4_0 -->
<g id="edge11" class="edge"><title>2&#45;&#45;anon_2_4_0</title>
<path fill="none" stroke="black" d="M108.987,-43.2601C119.051,-43.611 138.382,-44.2849 145.277,-44.5253"/>
</g>
<!-- 3 -->
<g id="node4" class="node"><title>3</title>
<ellipse fill="#1874cd" stroke="black" cx="-9.91173" cy="82.9977" rx="3.5" ry="3.5"/>
</g>
<!-- 4 -->
<g id="node5" class="node"><title>4</title>
<ellipse fill="#1874cd" stroke="black" cx="231.155" cy="-45.949" rx="3.5" ry="3.5"/>
</g>
<!-- anon_1_3_1 -->
<g id="node12" class="node"><title>anon_1_3_1</title>
<ellipse fill="white" stroke="black" cx="6.1643" cy="43.9445" rx="2.5" ry="2.5"/>
</g>
<!-- anon_1_3_0&#45;&#45;anon_1_3_1 -->
<g id="edge5" class="edge"><title>anon_1_3_0&#45;&#45;anon_1_3_1</title>
<path fill="none" stroke="black" d="M22.0874,8.79497C19.0071,15.5947 10.4205,34.5491 7.30888,41.4179"/>
</g>
<!-- anon_1_3_1&#45;&#45;3 -->
<g id="edge6" class="edge"><title>anon_1_3_1&#45;&#45;3</title>
<path fill="none" stroke="black" d="M5.1095,46.5069C2.31537,53.2946 -5.28116,71.7488 -8.47095,79.4976"/>
</g>
<!-- anon_2_4_1 -->
<g id="node14" class="node"><title>anon_2_4_1</title>
<ellipse fill="white" stroke="black" cx="188.977" cy="-45.7648" rx="2.5" ry="2.5"/>
</g>
<!-- anon_2_4_0&#45;&#45;anon_2_4_1 -->
<g id="edge12" class="edge"><title>anon_2_4_0&#45;&#45;anon_2_4_1</title>
<path fill="none" stroke="black" d="M150.5,-44.6887C157.943,-44.8969 178.692,-45.4772 186.211,-45.6875"/>
</g>
<!-- anon_2_4_1&#45;&#45;4 -->
<g id="edge13" class="edge"><title>anon_2_4_1&#45;&#45;4</title>
<path fill="none" stroke="black" d="M191.745,-45.7769C199.075,-45.8089 219.006,-45.896 227.375,-45.9325"/>
</g>
</g>
</svg>
