<?xml version="1.0" encoding="UTF-8" standalone="no"?>
<!DOCTYPE svg PUBLIC "-//W3C//DTD SVG 1.1//EN"
 "http://www.w3.org/Graphics/SVG/1.1/DTD/svg11.dtd">
<!-- Generated by graphviz version 2.38.0 (20140413.2041)
 -->
<!-- Title: %3 Pages: 1 -->
<svg width="656pt" height="773pt"
 viewBox="0.00 0.00 656.35 773.45" xmlns="http://www.w3.org/2000/svg" xmlns:xlink="http://www.w3.org/1999/xlink">
<g id="graph0" class="graph" transform="scale(1 1) rotate(0) translate(220.245 499.774)">
<title>%3</title>
<polygon fill="white" stroke="none" points="-220.245,273.677 -220.245,-499.774 436.109,-499.774 436.109,273.677 -220.245,273.677"/>
<!-- 0 -->
<g id="node1" class="node"><title>0</title>
<ellipse fill="palegreen" stroke="black" cx="271.116" cy="70.8404" rx="23.5" ry="23.5"/>
</g>
<!-- 1 -->
<g id="node2" class="node"><title>1</title>
<ellipse fill="palegreen" stroke="black" cx="336.35" cy="51.1901" rx="2.5" ry="2.5"/>
</g>
<!-- 0&#45;&gt;1 -->
<g id="edge1" class="edge"><title>0&#45;&gt;1</title>
<path fill="none" stroke="black" d="M293.931,63.9677C308.922,59.4521 326.958,54.0194 333.666,51.9986"/>
</g>
<!-- 3 -->
<g id="node4" class="node"><title>3</title>
<ellipse fill="palegreen" stroke="black" cx="264.998" cy="119.331" rx="2.5" ry="2.5"/>
</g>
<!-- 0&#45;&gt;3 -->
<g id="edge2" class="edge"><title>0&#45;&gt;3</title>
<path fill="none" stroke="black" d="M268.164,94.2335C267.04,103.146 265.896,112.212 265.342,116.607"/>
</g>
<!-- 5 -->
<g id="node6" class="node"><title>5</title>
<ellipse fill="palegreen" stroke="black" cx="232.763" cy="31.9095" rx="2.5" ry="2.5"/>
</g>
<!-- 0&#45;&gt;5 -->
<g id="edge3" class="edge"><title>0&#45;&gt;5</title>
<path fill="none" stroke="black" d="M254.182,53.6514C246.476,45.8296 238.281,37.5107 234.665,33.8401"/>
</g>
<!-- 7 -->
<g id="node8" class="node"><title>7</title>
<ellipse fill="palegreen" stroke="black" cx="197.584" cy="36.8584" rx="3.5" ry="3.5"/>
</g>
<!-- 0&#45;&gt;7 -->
<g id="edge6" class="edge"><title>0&#45;&gt;7</title>
<path fill="none" stroke="black" d="M249.451,60.8285C232.167,52.8407 209.493,42.3622 200.995,38.4349"/>
</g>
<!-- 9 -->
<g id="node10" class="node"><title>9</title>
<ellipse fill="palegreen" stroke="black" cx="257.967" cy="159.272" rx="6" ry="6"/>
</g>
<!-- 0&#45;&gt;9 -->
<g id="edge7" class="edge"><title>0&#45;&gt;9</title>
<path fill="none" stroke="black" d="M266.698,93.9812C265.25,101.994 263.704,111.045 262.498,119.339 260.771,131.215 259.319,145.159 258.553,153.031"/>
</g>
<!-- 10 -->
<g id="node11" class="node"><title>10</title>
<ellipse fill="palegreen" stroke="black" cx="205.219" cy="96.6717" rx="2.5" ry="2.5"/>
</g>
<!-- 0&#45;&gt;10 -->
<g id="edge8" class="edge"><title>0&#45;&gt;10</title>
<path fill="none" stroke="black" d="M249.173,79.4419C233.598,85.5473 214.316,93.1058 207.633,95.7255"/>
</g>
<!-- 11 -->
<g id="node12" class="node"><title>11</title>
<ellipse fill="palegreen" stroke="black" cx="310.641" cy="139.104" rx="2.5" ry="2.5"/>
</g>
<!-- 0&#45;&gt;11 -->
<g id="edge9" class="edge"><title>0&#45;&gt;11</title>
<path fill="none" stroke="black" d="M282.975,91.3218C292.616,107.973 305.263,129.814 309.325,136.83"/>
</g>
<!-- 12 -->
<g id="node13" class="node"><title>12</title>
<ellipse fill="palegreen" stroke="black" cx="218.355" cy="137.513" rx="3.5" ry="3.5"/>
</g>
<!-- 0&#45;&gt;12 -->
<g id="edge10" class="edge"><title>0&#45;&gt;12</title>
<path fill="none" stroke="black" d="M256.419,89.4124C243.735,105.441 226.534,127.177 220.53,134.764"/>
</g>
<!-- 14 -->
<g id="node15" class="node"><title>14</title>
<ellipse fill="palegreen" stroke="black" cx="191.875" cy="70.0384" rx="2.5" ry="2.5"/>
</g>
<!-- 0&#45;&gt;14 -->
<g id="edge11" class="edge"><title>0&#45;&gt;14</title>
<path fill="none" stroke="black" d="M247.341,70.5998C228.012,70.4041 202.658,70.1475 194.514,70.0651"/>
</g>
<!-- 18 -->
<g id="node19" class="node"><title>18</title>
<ellipse fill="palegreen" stroke="black" cx="331.12" cy="19.2925" rx="2.5" ry="2.5"/>
</g>
<!-- 0&#45;&gt;18 -->
<g id="edge16" class="edge"><title>0&#45;&gt;18</title>
<path fill="none" stroke="black" d="M289.119,55.3743C303.756,42.8003 322.955,26.3074 329.122,21.0094"/>
</g>
<!-- 20 -->
<g id="node21" class="node"><title>20</title>
<ellipse fill="palegreen" stroke="black" cx="296.871" cy="16.8886" rx="2.5" ry="2.5"/>
</g>
<!-- 0&#45;&gt;20 -->
<g id="edge17" class="edge"><title>0&#45;&gt;20</title>
<path fill="none" stroke="black" d="M281.295,49.5173C286.919,37.7357 293.262,24.4479 295.768,19.1982"/>
</g>
<!-- 22 -->
<g id="node23" class="node"><title>22</title>
<ellipse fill="palegreen" stroke="black" cx="320.236" cy="106.502" rx="2.5" ry="2.5"/>
</g>
<!-- 0&#45;&gt;22 -->
<g id="edge18" class="edge"><title>0&#45;&gt;22</title>
<path fill="none" stroke="black" d="M290.248,84.7303C301.023,92.5531 313.265,101.441 318.106,104.955"/>
</g>
<!-- anon_0_6_0 -->
<g id="node63" class="node"><title>anon_0_6_0</title>
<ellipse fill="white" stroke="black" cx="353.972" cy="88.5802" rx="1" ry="1"/>
</g>
<!-- 0&#45;&gt;anon_0_6_0 -->
<g id="edge4" class="edge"><title>0&#45;&gt;anon_0_6_0</title>
<path fill="none" stroke="black" d="M294.196,75.7819C315.648,80.3749 345.325,86.7288 352.409,88.2456"/>
</g>
<!-- anon_0_15_0 -->
<g id="node64" class="node"><title>anon_0_15_0</title>
<ellipse fill="white" stroke="black" cx="256.499" cy="-10.6125" rx="1" ry="1"/>
</g>
<!-- 0&#45;&gt;anon_0_15_0 -->
<g id="edge12" class="edge"><title>0&#45;&gt;anon_0_15_0</title>
<path fill="none" stroke="black" d="M266.888,47.2809C263.11,26.2317 257.989,-2.30603 256.768,-9.11158"/>
</g>
<!-- 2 -->
<g id="node3" class="node"><title>2</title>
<path fill="palegreen" stroke="black" stroke-width="0.5" d="M-105.228,-379.974C-105.228,-379.974 -76.2278,-379.974 -76.2278,-379.974 -76.2278,-381.142 -76.2984,-382.309 -76.4392,-383.469 -76.5801,-384.629 -76.7909,-385.779 -77.0705,-386.914 -77.3501,-388.048 -77.698,-389.165 -78.1123,-390.257 -78.5266,-391.35 -79.0066,-392.416 -79.5496,-393.451 -80.0925,-394.485 -80.6975,-395.486 -81.3613,-396.447 -82.025,-397.409 -82.7462,-398.33 -83.521,-399.204 -84.2958,-400.079 -85.1227,-400.906 -85.9972,-401.68 -86.8718,-402.455 -87.7924,-403.176 -88.7539,-403.84 -89.7155,-404.504 -90.7163,-405.109 -91.7508,-405.652 -92.7854,-406.195 -93.8518,-406.675 -94.9443,-407.089 -96.0367,-407.503 -97.1532,-407.851 -98.2876,-408.131 -99.4221,-408.411 -100.572,-408.621 -101.732,-408.762 -102.892,-408.903 -104.059,-408.974 -105.228,-408.974 -106.396,-408.974 -107.563,-408.903 -108.723,-408.762 -109.883,-408.621 -111.034,-408.411 -112.168,-408.131 -113.302,-407.851 -114.419,-407.503 -115.511,-407.089 -116.604,-406.675 -117.67,-406.195 -118.705,-405.652 -119.739,-405.109 -120.74,-404.504 -121.702,-403.84 -122.663,-403.176 -123.584,-402.455 -124.458,-401.68 -125.333,-400.906 -126.16,-400.079 -126.935,-399.204 -127.709,-398.33 -128.431,-397.409 -129.094,-396.447 -129.758,-395.486 -130.363,-394.485 -130.906,-393.451 -131.449,-392.416 -131.929,-391.35 -132.343,-390.257 -132.758,-389.165 -133.105,-388.048 -133.385,-386.914 -133.665,-385.779 -133.876,-384.629 -134.016,-383.469 -134.157,-382.309 -134.228,-381.142 -134.228,-379.974 -134.228,-378.805 -134.157,-377.638 -134.016,-376.478 -133.876,-375.318 -133.665,-374.168 -133.385,-373.033 -133.105,-371.899 -132.758,-370.783 -132.343,-369.69 -131.929,-368.598 -131.449,-367.531 -130.906,-366.497 -130.363,-365.462 -129.758,-364.461 -129.094,-363.5 -128.431,-362.538 -127.709,-361.618 -126.935,-360.743 -126.935,-360.743 -105.228,-379.974 -105.228,-379.974"/>
<path fill="#787878" stroke="black" stroke-width="0.5" d="M-105.228,-379.974C-105.228,-379.974 -126.935,-360.743 -126.935,-360.743 -125.966,-359.65 -124.916,-358.631 -123.794,-357.696 -122.672,-356.761 -121.481,-355.912 -120.231,-355.156 -118.981,-354.4 -117.675,-353.74 -116.326,-353.181 -114.976,-352.622 -113.586,-352.166 -112.168,-351.816 -110.75,-351.467 -109.307,-351.225 -107.852,-351.093 -106.398,-350.96 -104.935,-350.938 -103.477,-351.027 -102.019,-351.115 -100.569,-351.313 -99.1412,-351.62 -97.713,-351.926 -96.3101,-352.34 -94.9443,-352.858 -93.5784,-353.376 -92.2537,-353.997 -90.9814,-354.714 -89.7091,-355.432 -88.4928,-356.244 -87.3429,-357.145 -86.1931,-358.046 -85.1129,-359.033 -84.1117,-360.096 -83.1105,-361.16 -82.1911,-362.298 -81.3613,-363.5 -80.5315,-364.702 -79.7937,-365.965 -79.1542,-367.278 -78.5148,-368.592 -77.9755,-369.951 -77.5409,-371.346 -77.1063,-372.741 -76.7777,-374.166 -76.558,-375.61 -76.3382,-377.054 -76.2278,-378.513 -76.2278,-379.974 -76.2278,-379.974 -105.228,-379.974 -105.228,-379.974"/>
<ellipse fill="none" stroke="black" cx="-105.228" cy="-379.974" rx="29" ry="29"/>
</g>
<!-- 4 -->
<g id="node5" class="node"><title>4</title>
<ellipse fill="palegreen" stroke="black" cx="-128.597" cy="-281.031" rx="9" ry="9"/>
</g>
<!-- 2&#45;&gt;4 -->
<g id="edge19" class="edge"><title>2&#45;&gt;4</title>
<path fill="none" stroke="black" d="M-111.925,-351.621C-116.834,-330.835 -123.19,-303.925 -126.454,-290.105"/>
</g>
<!-- 13 -->
<g id="node14" class="node"><title>13</title>
<ellipse fill="palegreen" stroke="black" cx="-146.736" cy="-340.877" rx="2.5" ry="2.5"/>
</g>
<!-- 2&#45;&gt;13 -->
<g id="edge20" class="edge"><title>2&#45;&gt;13</title>
<path fill="none" stroke="black" d="M-126.468,-359.967C-133.809,-353.053 -141.068,-346.216 -144.57,-342.917"/>
</g>
<!-- 17 -->
<g id="node18" class="node"><title>17</title>
<ellipse fill="palegreen" stroke="black" cx="-126.998" cy="-460.188" rx="2.5" ry="2.5"/>
</g>
<!-- 2&#45;&gt;17 -->
<g id="edge21" class="edge"><title>2&#45;&gt;17</title>
<path fill="none" stroke="black" d="M-112.842,-408.029C-117.942,-426.823 -124.1,-449.51 -126.229,-457.357"/>
</g>
<!-- 19 -->
<g id="node20" class="node"><title>19</title>
<ellipse fill="palegreen" stroke="black" cx="-162.597" cy="-439.885" rx="2.5" ry="2.5"/>
</g>
<!-- 2&#45;&gt;19 -->
<g id="edge22" class="edge"><title>2&#45;&gt;19</title>
<path fill="none" stroke="black" d="M-125.293,-400.928C-138.734,-414.965 -154.96,-431.91 -160.572,-437.77"/>
</g>
<!-- 23 -->
<g id="node24" class="node"><title>23</title>
<ellipse fill="#787878" stroke="black" cx="-24.5525" cy="-441.066" rx="8" ry="8"/>
</g>
<!-- 2&#45;&gt;23 -->
<g id="edge23" class="edge"><title>2&#45;&gt;23</title>
<path fill="none" stroke="black" d="M-81.8932,-397.644C-64.5817,-410.753 -42.1562,-427.736 -31.1867,-436.042"/>
</g>
<!-- 24 -->
<g id="node25" class="node"><title>24</title>
<ellipse fill="#787878" stroke="black" cx="-186.101" cy="-366.09" rx="2.5" ry="2.5"/>
</g>
<!-- 2&#45;&gt;24 -->
<g id="edge24" class="edge"><title>2&#45;&gt;24</title>
<path fill="none" stroke="black" d="M-133.968,-375.04C-152.855,-371.798 -175.466,-367.916 -183.281,-366.574"/>
</g>
<!-- 27 -->
<g id="node28" class="node"><title>27</title>
<ellipse fill="#787878" stroke="black" cx="-184.337" cy="-406.745" rx="2.5" ry="2.5"/>
</g>
<!-- 2&#45;&gt;27 -->
<g id="edge27" class="edge"><title>2&#45;&gt;27</title>
<path fill="none" stroke="black" d="M-132.896,-389.337C-151.432,-395.609 -173.806,-403.181 -181.545,-405.8"/>
</g>
<!-- 28 -->
<g id="node29" class="node"><title>28</title>
<ellipse fill="#787878" stroke="black" cx="-45.4151" cy="-374.582" rx="2.5" ry="2.5"/>
</g>
<!-- 2&#45;&gt;28 -->
<g id="edge28" class="edge"><title>2&#45;&gt;28</title>
<path fill="none" stroke="black" d="M-76.0223,-377.341C-64.635,-376.314 -53.1121,-375.275 -48.0623,-374.82"/>
</g>
<!-- 29 -->
<g id="node30" class="node"><title>29</title>
<ellipse fill="#787878" stroke="black" cx="-88.569" cy="-441.523" rx="2.5" ry="2.5"/>
</g>
<!-- 2&#45;&gt;29 -->
<g id="edge29" class="edge"><title>2&#45;&gt;29</title>
<path fill="none" stroke="black" d="M-97.581,-408.226C-94.2281,-420.614 -90.7266,-433.551 -89.2695,-438.935"/>
</g>
<!-- anon_2_25_0 -->
<g id="node67" class="node"><title>anon_2_25_0</title>
<ellipse fill="white" stroke="black" cx="-38.3901" cy="-329.202" rx="1" ry="1"/>
</g>
<!-- 2&#45;&gt;anon_2_25_0 -->
<g id="edge25" class="edge"><title>2&#45;&gt;anon_2_25_0</title>
<path fill="none" stroke="black" d="M-81.8512,-362.216C-64.9864,-349.405 -44.3601,-333.737 -39.4671,-330.02"/>
</g>
<!-- 21 -->
<g id="node22" class="node"><title>21</title>
<ellipse fill="palegreen" stroke="black" cx="-180.011" cy="-259.126" rx="2.5" ry="2.5"/>
</g>
<!-- 4&#45;&gt;21 -->
<g id="edge32" class="edge"><title>4&#45;&gt;21</title>
<path fill="none" stroke="black" d="M-137.087,-277.414C-148.952,-272.359 -169.873,-263.445 -177.302,-260.28"/>
</g>
<!-- anon_4_16_0 -->
<g id="node68" class="node"><title>anon_4_16_0</title>
<ellipse fill="white" stroke="black" cx="-110.72" cy="-232.435" rx="1" ry="1"/>
</g>
<!-- 4&#45;&gt;anon_4_16_0 -->
<g id="edge30" class="edge"><title>4&#45;&gt;anon_4_16_0</title>
<path fill="none" stroke="black" d="M-125.483,-272.566C-121.001,-260.384 -113.059,-238.796 -111.144,-233.589"/>
</g>
<!-- 6 -->
<g id="node7" class="node"><title>6</title>
<ellipse fill="palegreen" stroke="black" cx="397.111" cy="97.9853" rx="2.5" ry="2.5"/>
</g>
<!-- 8 -->
<g id="node9" class="node"><title>8</title>
<ellipse fill="palegreen" stroke="black" cx="216.393" cy="185.515" rx="3.5" ry="3.5"/>
</g>
<!-- 8&#45;&gt;9 -->
<g id="edge33" class="edge"><title>8&#45;&gt;9</title>
<path fill="none" stroke="black" d="M219.383,183.628C226.383,179.209 243.91,168.145 252.728,162.579"/>
</g>
<!-- 8&#45;&gt;12 -->
<g id="edge78" class="edge"><title>8&#45;&gt;12</title>
<path fill="none" stroke="black" stroke-dasharray="5,2" d="M216.547,181.749C216.915,172.731 217.845,149.995 218.207,141.131"/>
</g>
<!-- 15 -->
<g id="node16" class="node"><title>15</title>
<ellipse fill="palegreen" stroke="black" cx="248.647" cy="-132.751" rx="2.5" ry="2.5"/>
</g>
<!-- 16 -->
<g id="node17" class="node"><title>16</title>
<ellipse fill="palegreen" stroke="black" cx="-100.599" cy="-191.935" rx="2.5" ry="2.5"/>
</g>
<!-- 26 -->
<g id="node27" class="node"><title>26</title>
<ellipse fill="#787878" stroke="black" cx="28.0151" cy="-439.881" rx="2.5" ry="2.5"/>
</g>
<!-- 23&#45;&gt;26 -->
<g id="edge34" class="edge"><title>23&#45;&gt;26</title>
<path fill="none" stroke="black" d="M-16.3388,-440.881C-4.32632,-440.61 17.4464,-440.119 25.1888,-439.944"/>
</g>
<!-- 30 -->
<g id="node31" class="node"><title>30</title>
<ellipse fill="#787878" stroke="black" cx="-15.4559" cy="-493.274" rx="2.5" ry="2.5"/>
</g>
<!-- 23&#45;&gt;30 -->
<g id="edge35" class="edge"><title>23&#45;&gt;30</title>
<path fill="none" stroke="black" d="M-23.1312,-449.224C-21.0524,-461.154 -17.2848,-482.778 -15.945,-490.467"/>
</g>
<!-- 25 -->
<g id="node26" class="node"><title>25</title>
<ellipse fill="#787878" stroke="black" cx="1.29103" cy="-310.187" rx="2.5" ry="2.5"/>
</g>
<!-- 31 -->
<g id="node32" class="node"><title>31</title>
<ellipse fill="#1874cd" stroke="black" cx="-187.969" cy="81.003" rx="13" ry="13"/>
</g>
<!-- 44 -->
<g id="node45" class="node"><title>44</title>
<ellipse fill="#1874cd" stroke="black" cx="-130.972" cy="128.655" rx="4.5" ry="4.5"/>
</g>
<!-- 31&#45;&gt;44 -->
<g id="edge44" class="edge"><title>31&#45;&gt;44</title>
<path fill="none" stroke="black" d="M-177.779,89.5221C-164.843,100.337 -143.179,118.449 -134.615,125.609"/>
</g>
<!-- anon_31_37_0 -->
<g id="node69" class="node"><title>anon_31_37_0</title>
<ellipse fill="white" stroke="black" cx="-200.263" cy="15.1331" rx="1" ry="1"/>
</g>
<!-- 31&#45;&gt;anon_31_37_0 -->
<g id="edge36" class="edge"><title>31&#45;&gt;anon_31_37_0</title>
<path fill="none" stroke="black" d="M-190.398,67.9892C-193.533,51.1923 -198.735,23.322 -199.986,16.6169"/>
</g>
<!-- anon_31_45_0 -->
<g id="node76" class="node"><title>anon_31_45_0</title>
<ellipse fill="white" stroke="black" cx="-215.245" cy="130.853" rx="1" ry="1"/>
</g>
<!-- 31&#45;&gt;anon_31_45_0 -->
<g id="edge45" class="edge"><title>31&#45;&gt;anon_31_45_0</title>
<path fill="none" stroke="black" d="M-194.295,92.5649C-201.346,105.45 -212.098,125.101 -214.676,129.812"/>
</g>
<!-- 32 -->
<g id="node33" class="node"><title>32</title>
<ellipse fill="#1874cd" stroke="black" cx="-98.4973" cy="267.177" rx="2.5" ry="2.5"/>
</g>
<!-- anon_32_33_0 -->
<g id="node77" class="node"><title>anon_32_33_0</title>
<ellipse fill="white" stroke="black" cx="-93.5145" cy="224.56" rx="1" ry="1"/>
</g>
<!-- 32&#45;&gt;anon_32_33_0 -->
<g id="edge47" class="edge"><title>32&#45;&gt;anon_32_33_0</title>
<path fill="none" stroke="black" d="M-98.2005,264.639C-97.2619,256.611 -94.3781,231.947 -93.6718,225.906"/>
</g>
<!-- 33 -->
<g id="node34" class="node"><title>33</title>
<ellipse fill="#1874cd" stroke="black" cx="-93.9816" cy="174.831" rx="6" ry="6"/>
</g>
<!-- 33&#45;&gt;44 -->
<g id="edge49" class="edge"><title>33&#45;&gt;44</title>
<path fill="none" stroke="black" d="M-97.9402,169.89C-105.395,160.583 -121.363,140.65 -127.992,132.375"/>
</g>
<!-- anon_33_34_0 -->
<g id="node85" class="node"><title>anon_33_34_0</title>
<ellipse fill="white" stroke="black" cx="-35.8371" cy="173.658" rx="1" ry="1"/>
</g>
<!-- 33&#45;&gt;anon_33_34_0 -->
<g id="edge79" class="edge"><title>33&#45;&gt;anon_33_34_0</title>
<path fill="none" stroke="black" stroke-dasharray="5,2" d="M-87.7591,174.706C-74.4,174.436 -43.6516,173.815 -37.0852,173.683"/>
</g>
<!-- anon_33_45_0 -->
<g id="node92" class="node"><title>anon_33_45_0</title>
<ellipse fill="white" stroke="black" cx="-145.363" cy="188.942" rx="1" ry="1"/>
</g>
<!-- 33&#45;&gt;anon_33_45_0 -->
<g id="edge87" class="edge"><title>33&#45;&gt;anon_33_45_0</title>
<path fill="none" stroke="black" stroke-dasharray="5,2" d="M-99.8757,176.45C-111.685,179.693 -137.654,186.825 -143.962,188.557"/>
</g>
<!-- 34 -->
<g id="node35" class="node"><title>34</title>
<ellipse fill="#1874cd" stroke="black" cx="132.417" cy="-89.9173" rx="7" ry="7"/>
</g>
<!-- 46 -->
<g id="node47" class="node"><title>46</title>
<ellipse fill="#1874cd" stroke="black" cx="70.2231" cy="-106.752" rx="4.5" ry="4.5"/>
</g>
<!-- 34&#45;&gt;46 -->
<g id="edge52" class="edge"><title>34&#45;&gt;46</title>
<path fill="none" stroke="black" d="M125.515,-92.3092C119.837,-94.2329 111.561,-96.9375 104.226,-98.9502 93.7125,-101.835 81.1731,-104.52 74.6544,-105.86"/>
</g>
<!-- anon_34_36_0 -->
<g id="node78" class="node"><title>anon_34_36_0</title>
<ellipse fill="white" stroke="black" cx="142.064" cy="-138.246" rx="1" ry="1"/>
</g>
<!-- 34&#45;&gt;anon_34_36_0 -->
<g id="edge50" class="edge"><title>34&#45;&gt;anon_34_36_0</title>
<path fill="none" stroke="black" d="M133.841,-97.0484C136.188,-108.812 140.723,-131.531 141.82,-137.028"/>
</g>
<!-- anon_34_48_0 -->
<g id="node79" class="node"><title>anon_34_48_0</title>
<ellipse fill="white" stroke="black" cx="180.046" cy="-124.37" rx="1" ry="1"/>
</g>
<!-- 34&#45;&gt;anon_34_48_0 -->
<g id="edge53" class="edge"><title>34&#45;&gt;anon_34_48_0</title>
<path fill="none" stroke="black" d="M138.257,-94.1419C149.386,-102.192 173.034,-119.298 178.772,-123.449"/>
</g>
<!-- anon_34_50_0 -->
<g id="node81" class="node"><title>anon_34_50_0</title>
<ellipse fill="white" stroke="black" cx="182.008" cy="-77.4551" rx="1" ry="1"/>
</g>
<!-- 34&#45;&gt;anon_34_50_0 -->
<g id="edge56" class="edge"><title>34&#45;&gt;anon_34_50_0</title>
<path fill="none" stroke="black" d="M139.312,-88.1845C151.235,-85.1882 174.982,-79.2207 180.732,-77.7757"/>
</g>
<!-- 35 -->
<g id="node36" class="node"><title>35</title>
<ellipse fill="#1874cd" stroke="black" cx="32" cy="49" rx="4.5" ry="4.5"/>
</g>
<!-- 36 -->
<g id="node37" class="node"><title>36</title>
<ellipse fill="#1874cd" stroke="black" cx="128.551" cy="-185.768" rx="2.5" ry="2.5"/>
</g>
<!-- anon_36_37_0 -->
<g id="node93" class="node"><title>anon_36_37_0</title>
<ellipse fill="white" stroke="black" cx="81.7238" cy="-192.415" rx="1" ry="1"/>
</g>
<!-- 36&#45;&gt;anon_36_37_0 -->
<g id="edge89" class="edge"><title>36&#45;&gt;anon_36_37_0</title>
<path fill="none" stroke="black" stroke-dasharray="5,2" d="M126.033,-186.126C117.522,-187.334 89.9811,-191.243 83.2287,-192.201"/>
</g>
<!-- anon_36_48_0 -->
<g id="node94" class="node"><title>anon_36_48_0</title>
<ellipse fill="white" stroke="black" cx="151.996" cy="-232.005" rx="1" ry="1"/>
</g>
<!-- 36&#45;&gt;anon_36_48_0 -->
<g id="edge91" class="edge"><title>36&#45;&gt;anon_36_48_0</title>
<path fill="none" stroke="black" stroke-dasharray="5,2" d="M129.681,-187.998C133.779,-196.08 147.79,-223.711 151.229,-230.492"/>
</g>
<!-- 37 -->
<g id="node38" class="node"><title>37</title>
<ellipse fill="#1874cd" stroke="black" cx="41.5958" cy="-172.281" rx="8.5" ry="8.5"/>
</g>
<!-- 41 -->
<g id="node42" class="node"><title>41</title>
<ellipse fill="#1874cd" stroke="black" cx="13.1316" cy="-153.927" rx="2.5" ry="2.5"/>
</g>
<!-- 37&#45;&gt;41 -->
<g id="edge58" class="edge"><title>37&#45;&gt;41</title>
<path fill="none" stroke="black" d="M34.4131,-167.65C28.0889,-163.572 19.2801,-157.892 15.271,-155.307"/>
</g>
<!-- 42 -->
<g id="node43" class="node"><title>42</title>
<ellipse fill="#1874cd" stroke="black" cx="22.2249" cy="-230.204" rx="5" ry="5"/>
</g>
<!-- 37&#45;&gt;42 -->
<g id="edge59" class="edge"><title>37&#45;&gt;42</title>
<path fill="none" stroke="black" d="M38.7375,-180.828C34.6121,-193.164 27.1243,-215.554 23.8411,-225.372"/>
</g>
<!-- 43 -->
<g id="node44" class="node"><title>43</title>
<ellipse fill="#1874cd" stroke="black" cx="75.7047" cy="-144.529" rx="3.5" ry="3.5"/>
</g>
<!-- 37&#45;&gt;43 -->
<g id="edge60" class="edge"><title>37&#45;&gt;43</title>
<path fill="none" stroke="black" d="M48.4982,-166.665C55.9733,-160.583 67.5394,-151.172 72.8553,-146.847"/>
</g>
<!-- 37&#45;&gt;46 -->
<g id="edge61" class="edge"><title>37&#45;&gt;46</title>
<path fill="none" stroke="black" d="M45.106,-164.246C51.1976,-150.302 63.5303,-122.072 68.2891,-111.179"/>
</g>
<!-- 47 -->
<g id="node48" class="node"><title>47</title>
<ellipse fill="#1874cd" stroke="black" cx="8.56666" cy="-210.374" rx="2.5" ry="2.5"/>
</g>
<!-- 37&#45;&gt;47 -->
<g id="edge62" class="edge"><title>37&#45;&gt;47</title>
<path fill="none" stroke="black" d="M35.8425,-178.916C28.1538,-187.784 14.9529,-203.008 10.2729,-208.406"/>
</g>
<!-- anon_37_48_0 -->
<g id="node96" class="node"><title>anon_37_48_0</title>
<ellipse fill="white" stroke="black" cx="71.5342" cy="-221.908" rx="1" ry="1"/>
</g>
<!-- 37&#45;&gt;anon_37_48_0 -->
<g id="edge94" class="edge"><title>37&#45;&gt;anon_37_48_0</title>
<path fill="none" stroke="black" stroke-dasharray="5,2" d="M46.0133,-179.604C53.3002,-191.683 67.3744,-215.013 70.7791,-220.657"/>
</g>
<!-- 38 -->
<g id="node39" class="node"><title>38</title>
<ellipse fill="#1874cd" stroke="black" cx="33.5651" cy="-115.399" rx="2.5" ry="2.5"/>
</g>
<!-- 38&#45;&gt;41 -->
<g id="edge63" class="edge"><title>38&#45;&gt;41</title>
<path fill="none" stroke="black" d="M32.2244,-117.927C28.5309,-124.891 18.2351,-144.304 14.504,-151.339"/>
</g>
<!-- 38&#45;&gt;46 -->
<g id="edge97" class="edge"><title>38&#45;&gt;46</title>
<path fill="none" stroke="black" stroke-dasharray="5,2" d="M36.4416,-114.721C42.7879,-113.223 58.0316,-109.628 65.6821,-107.823"/>
</g>
<!-- 39 -->
<g id="node40" class="node"><title>39</title>
<ellipse fill="#1874cd" stroke="black" cx="57" cy="-3" rx="2.5" ry="2.5"/>
</g>
<!-- 40 -->
<g id="node41" class="node"><title>40</title>
<path fill="#1874cd" stroke="black" stroke-width="0.5" d="M332.799,-286.864C332.799,-286.864 351.799,-286.864 351.799,-286.864 351.799,-287.588 351.757,-288.311 351.675,-289.03 351.592,-289.749 351.469,-290.462 351.305,-291.167 351.141,-291.872 350.937,-292.567 350.694,-293.249 350.451,-293.93 350.169,-294.598 349.849,-295.247 349.53,-295.897 349.174,-296.527 348.783,-297.136 348.391,-297.745 347.966,-298.331 347.507,-298.891 347.049,-299.451 346.56,-299.985 346.041,-300.489 345.522,-300.994 344.974,-301.468 344.401,-301.91 344.401,-301.91 332.799,-286.864 332.799,-286.864"/>
<path fill="olivedrab" stroke="black" stroke-width="0.5" d="M332.799,-286.864C332.799,-286.864 344.401,-301.91 344.401,-301.91 343.559,-302.559 342.664,-303.137 341.725,-303.636 340.787,-304.136 339.808,-304.556 338.799,-304.892 337.79,-305.227 336.755,-305.478 335.704,-305.64 334.653,-305.803 333.591,-305.877 332.527,-305.862 331.464,-305.847 330.404,-305.742 329.358,-305.55 328.313,-305.357 327.285,-305.077 326.286,-304.713 325.287,-304.348 324.321,-303.901 323.397,-303.375 322.473,-302.848 321.595,-302.246 320.771,-301.573 319.948,-300.899 319.183,-300.158 318.484,-299.357 317.785,-298.556 317.154,-297.698 316.599,-296.791 316.043,-295.885 315.564,-294.933 315.168,-293.946 314.772,-292.96 314.459,-291.942 314.233,-290.903 314.007,-289.864 313.868,-288.807 313.819,-287.745 313.77,-286.683 313.81,-285.619 313.938,-284.563 314.067,-283.508 314.284,-282.465 314.588,-281.446 314.891,-280.427 315.279,-279.435 315.748,-278.481 316.217,-277.526 316.766,-276.613 317.388,-275.751 318.01,-274.888 318.703,-274.08 319.46,-273.333 320.217,-272.587 321.036,-271.905 321.907,-271.296 322.778,-270.686 323.699,-270.151 324.66,-269.695 325.621,-269.24 326.618,-268.866 327.641,-268.577 328.665,-268.289 329.711,-268.086 330.768,-267.973 331.825,-267.859 332.89,-267.834 333.951,-267.899 335.012,-267.963 336.066,-268.117 337.102,-268.358 338.138,-268.598 339.151,-268.926 340.132,-269.336 341.113,-269.747 342.058,-270.239 342.956,-270.807 343.855,-271.376 344.704,-272.018 345.495,-272.729 346.286,-273.44 347.016,-274.215 347.678,-275.048 348.339,-275.881 348.929,-276.767 349.442,-277.699 349.955,-278.63 350.389,-279.603 350.739,-280.607 351.089,-281.611 351.354,-282.642 351.532,-283.691 351.709,-284.739 351.799,-285.801 351.799,-286.864 351.799,-286.864 332.799,-286.864 332.799,-286.864"/>
<ellipse fill="none" stroke="black" cx="332.799" cy="-286.864" rx="19" ry="19"/>
</g>
<!-- 52 -->
<g id="node53" class="node"><title>52</title>
<ellipse fill="olivedrab" stroke="black" cx="261.545" cy="-265.965" rx="6" ry="6"/>
</g>
<!-- 40&#45;&gt;52 -->
<g id="edge64" class="edge"><title>40&#45;&gt;52</title>
<path fill="none" stroke="black" d="M314.449,-281.482C298.945,-276.935 277.681,-270.698 267.478,-267.705"/>
</g>
<!-- 55 -->
<g id="node56" class="node"><title>55</title>
<ellipse fill="olivedrab" stroke="black" cx="261.704" cy="-320.762" rx="7.5" ry="7.5"/>
</g>
<!-- 40&#45;&gt;55 -->
<g id="edge65" class="edge"><title>40&#45;&gt;55</title>
<path fill="none" stroke="black" d="M315.589,-295.07C300.466,-302.28 279.245,-312.399 268.505,-317.52"/>
</g>
<!-- 56 -->
<g id="node57" class="node"><title>56</title>
<ellipse fill="olivedrab" stroke="black" cx="308.326" cy="-344.348" rx="2.5" ry="2.5"/>
</g>
<!-- 40&#45;&gt;56 -->
<g id="edge66" class="edge"><title>40&#45;&gt;56</title>
<path fill="none" stroke="black" d="M325.323,-304.423C319.588,-317.895 312.2,-335.249 309.435,-341.743"/>
</g>
<!-- 57 -->
<g id="node58" class="node"><title>57</title>
<ellipse fill="olivedrab" stroke="black" cx="299.263" cy="-229.665" rx="2.5" ry="2.5"/>
</g>
<!-- 40&#45;&gt;57 -->
<g id="edge67" class="edge"><title>40&#45;&gt;57</title>
<path fill="none" stroke="black" d="M323.099,-270.319C315.051,-256.594 304.345,-238.334 300.614,-231.969"/>
</g>
<!-- 58 -->
<g id="node59" class="node"><title>58</title>
<ellipse fill="olivedrab" stroke="black" cx="395.963" cy="-281.024" rx="2.5" ry="2.5"/>
</g>
<!-- 40&#45;&gt;58 -->
<g id="edge68" class="edge"><title>40&#45;&gt;58</title>
<path fill="none" stroke="black" d="M351.75,-285.112C366.576,-283.741 385.849,-281.959 393.067,-281.292"/>
</g>
<!-- 60 -->
<g id="node61" class="node"><title>60</title>
<ellipse fill="olivedrab" stroke="black" cx="387.031" cy="-242.389" rx="2.5" ry="2.5"/>
</g>
<!-- 40&#45;&gt;60 -->
<g id="edge73" class="edge"><title>40&#45;&gt;60</title>
<path fill="none" stroke="black" d="M347.618,-274.711C360.665,-264.012 378.529,-249.361 384.77,-244.243"/>
</g>
<!-- 61 -->
<g id="node62" class="node"><title>61</title>
<ellipse fill="olivedrab" stroke="black" cx="353.058" cy="-221.147" rx="2.5" ry="2.5"/>
</g>
<!-- 40&#45;&gt;61 -->
<g id="edge74" class="edge"><title>40&#45;&gt;61</title>
<path fill="none" stroke="black" d="M338.442,-268.558C343.313,-252.759 349.918,-231.334 352.223,-223.856"/>
</g>
<!-- anon_40_59_0 -->
<g id="node82" class="node"><title>anon_40_59_0</title>
<ellipse fill="white" stroke="black" cx="371.485" cy="-343.793" rx="1" ry="1"/>
</g>
<!-- 40&#45;&gt;anon_40_59_0 -->
<g id="edge69" class="edge"><title>40&#45;&gt;anon_40_59_0</title>
<path fill="none" stroke="black" d="M343.575,-302.722C353.591,-317.461 367.447,-337.852 370.755,-342.719"/>
</g>
<!-- 49 -->
<g id="node50" class="node"><title>49</title>
<ellipse fill="#1874cd" stroke="black" cx="104.248" cy="-95.4503" rx="3.5" ry="3.5"/>
</g>
<!-- 43&#45;&gt;49 -->
<g id="edge75" class="edge"><title>43&#45;&gt;49</title>
<path fill="none" stroke="black" d="M77.5775,-141.308C82.737,-132.437 97.119,-107.708 102.331,-98.7467"/>
</g>
<!-- anon_44_46_0 -->
<g id="node98" class="node"><title>anon_44_46_0</title>
<ellipse fill="white" stroke="black" cx="-114.335" cy="96.9102" rx="1" ry="1"/>
</g>
<!-- 44&#45;&gt;anon_44_46_0 -->
<g id="edge98" class="edge"><title>44&#45;&gt;anon_44_46_0</title>
<path fill="none" stroke="black" stroke-dasharray="5,2" d="M-128.797,124.505C-124.921,117.11 -117.026,102.046 -114.882,97.9551"/>
</g>
<!-- 45 -->
<g id="node46" class="node"><title>45</title>
<ellipse fill="#1874cd" stroke="black" cx="-190.443" cy="171.522" rx="2.5" ry="2.5"/>
</g>
<!-- 46&#45;&gt;49 -->
<g id="edge106" class="edge"><title>46&#45;&gt;49</title>
<path fill="none" stroke="black" stroke-dasharray="5,2" d="M74.6712,-105.274C81.5884,-102.977 94.7667,-98.5995 100.924,-96.5545"/>
</g>
<!-- 48 -->
<g id="node49" class="node"><title>48</title>
<ellipse fill="#1874cd" stroke="black" cx="172.051" cy="-212.907" rx="2.5" ry="2.5"/>
</g>
<!-- anon_49_50_0 -->
<g id="node105" class="node"><title>anon_49_50_0</title>
<ellipse fill="white" stroke="black" cx="152.446" cy="-65.969" rx="1" ry="1"/>
</g>
<!-- 49&#45;&gt;anon_49_50_0 -->
<g id="edge107" class="edge"><title>49&#45;&gt;anon_49_50_0</title>
<path fill="none" stroke="black" stroke-dasharray="5,2" d="M107.41,-93.516C117.128,-87.5721 146.219,-69.7775 151.589,-66.4932"/>
</g>
<!-- 50 -->
<g id="node51" class="node"><title>50</title>
<ellipse fill="#1874cd" stroke="black" cx="202.729" cy="-53.8821" rx="2.5" ry="2.5"/>
</g>
<!-- 51 -->
<g id="node52" class="node"><title>51</title>
<ellipse fill="olivedrab" stroke="black" cx="256.508" cy="-218.251" rx="2.5" ry="2.5"/>
</g>
<!-- 51&#45;&gt;52 -->
<g id="edge76" class="edge"><title>51&#45;&gt;52</title>
<path fill="none" stroke="black" d="M256.779,-220.816C257.555,-228.172 259.805,-249.479 260.913,-259.976"/>
</g>
<!-- 51&#45;&gt;57 -->
<g id="edge109" class="edge"><title>51&#45;&gt;57</title>
<path fill="none" stroke="black" stroke-dasharray="5,2" d="M259.054,-218.931C266.677,-220.965 289.249,-226.991 296.783,-229.003"/>
</g>
<!-- 54 -->
<g id="node55" class="node"><title>54</title>
<ellipse fill="olivedrab" stroke="black" cx="219.163" cy="-293.391" rx="3.5" ry="3.5"/>
</g>
<!-- 52&#45;&gt;54 -->
<g id="edge77" class="edge"><title>52&#45;&gt;54</title>
<path fill="none" stroke="black" d="M256.348,-269.328C247.507,-275.05 229.784,-286.518 222.453,-291.262"/>
</g>
<!-- 53 -->
<g id="node54" class="node"><title>53</title>
<ellipse fill="olivedrab" stroke="black" cx="-24" cy="-57" rx="2.5" ry="2.5"/>
</g>
<!-- 54&#45;&gt;55 -->
<g id="edge110" class="edge"><title>54&#45;&gt;55</title>
<path fill="none" stroke="black" stroke-dasharray="5,2" d="M222.223,-295.359C229.081,-299.772 245.814,-310.538 255.145,-316.542"/>
</g>
<!-- 59 -->
<g id="node60" class="node"><title>59</title>
<ellipse fill="olivedrab" stroke="black" cx="429.609" cy="-449.198" rx="2.5" ry="2.5"/>
</g>
<!-- anon_0_6_0&#45;&gt;6 -->
<g id="edge5" class="edge"><title>anon_0_6_0&#45;&gt;6</title>
<path fill="none" stroke="black" d="M355.039,88.8127C360.54,90.0121 385.782,95.5154 394.297,97.3718"/>
</g>
<!-- anon_0_15_1 -->
<g id="node65" class="node"><title>anon_0_15_1</title>
<ellipse fill="white" stroke="black" cx="248.126" cy="-52.0527" rx="1" ry="1"/>
</g>
<!-- anon_0_15_0&#45;&gt;anon_0_15_1 -->
<g id="edge13" class="edge"><title>anon_0_15_0&#45;&gt;anon_0_15_1</title>
<path fill="none" stroke="black" d="M256.292,-11.6369C255.164,-17.2206 249.758,-43.9762 248.424,-50.5778"/>
</g>
<!-- anon_0_15_2 -->
<g id="node66" class="node"><title>anon_0_15_2</title>
<ellipse fill="white" stroke="black" cx="244.157" cy="-92.0767" rx="1" ry="1"/>
</g>
<!-- anon_0_15_1&#45;&gt;anon_0_15_2 -->
<g id="edge14" class="edge"><title>anon_0_15_1&#45;&gt;anon_0_15_2</title>
<path fill="none" stroke="black" d="M247.994,-53.3843C247.392,-59.461 244.906,-84.5273 244.294,-90.699"/>
</g>
<!-- anon_0_15_2&#45;&gt;15 -->
<g id="edge15" class="edge"><title>anon_0_15_2&#45;&gt;15</title>
<path fill="none" stroke="black" d="M244.268,-93.0821C244.841,-98.269 247.468,-122.069 248.354,-130.098"/>
</g>
<!-- anon_2_25_0&#45;&gt;25 -->
<g id="edge26" class="edge"><title>anon_2_25_0&#45;&gt;25</title>
<path fill="none" stroke="black" d="M-37.4093,-328.732C-32.3489,-326.307 -9.12946,-315.18 -1.29726,-311.427"/>
</g>
<!-- anon_4_16_0&#45;&gt;16 -->
<g id="edge31" class="edge"><title>anon_4_16_0&#45;&gt;16</title>
<path fill="none" stroke="black" d="M-110.469,-231.434C-109.179,-226.27 -103.256,-202.571 -101.259,-194.577"/>
</g>
<!-- anon_31_37_1 -->
<g id="node70" class="node"><title>anon_31_37_1</title>
<ellipse fill="white" stroke="black" cx="-192.861" cy="-32.4361" rx="1" ry="1"/>
</g>
<!-- anon_31_37_0&#45;&gt;anon_31_37_1 -->
<g id="edge37" class="edge"><title>anon_31_37_0&#45;&gt;anon_31_37_1</title>
<path fill="none" stroke="black" d="M-200.08,13.9572C-199.065,7.43317 -194.132,-24.2697 -193.065,-31.1266"/>
</g>
<!-- anon_31_37_2 -->
<g id="node71" class="node"><title>anon_31_37_2</title>
<ellipse fill="white" stroke="black" cx="-173.859" cy="-76.6374" rx="1" ry="1"/>
</g>
<!-- anon_31_37_1&#45;&gt;anon_31_37_2 -->
<g id="edge38" class="edge"><title>anon_31_37_1&#45;&gt;anon_31_37_2</title>
<path fill="none" stroke="black" d="M-192.391,-33.5287C-189.831,-39.4845 -177.562,-68.0227 -174.535,-75.0642"/>
</g>
<!-- anon_31_37_3 -->
<g id="node72" class="node"><title>anon_31_37_3</title>
<ellipse fill="white" stroke="black" cx="-145.372" cy="-114.97" rx="1" ry="1"/>
</g>
<!-- anon_31_37_2&#45;&gt;anon_31_37_3 -->
<g id="edge39" class="edge"><title>anon_31_37_2&#45;&gt;anon_31_37_3</title>
<path fill="none" stroke="black" d="M-173.155,-77.5849C-169.316,-82.75 -150.924,-107.499 -146.386,-113.606"/>
</g>
<!-- anon_31_37_4 -->
<g id="node73" class="node"><title>anon_31_37_4</title>
<ellipse fill="white" stroke="black" cx="-109.211" cy="-145.204" rx="1" ry="1"/>
</g>
<!-- anon_31_37_3&#45;&gt;anon_31_37_4 -->
<g id="edge40" class="edge"><title>anon_31_37_3&#45;&gt;anon_31_37_4</title>
<path fill="none" stroke="black" d="M-144.478,-115.718C-139.606,-119.791 -116.259,-139.312 -110.498,-144.128"/>
</g>
<!-- anon_31_37_5 -->
<g id="node74" class="node"><title>anon_31_37_5</title>
<ellipse fill="white" stroke="black" cx="-67.2052" cy="-164.663" rx="1" ry="1"/>
</g>
<!-- anon_31_37_4&#45;&gt;anon_31_37_5 -->
<g id="edge41" class="edge"><title>anon_31_37_4&#45;&gt;anon_31_37_5</title>
<path fill="none" stroke="black" d="M-108.173,-145.686C-102.513,-148.307 -75.392,-160.871 -68.7002,-163.971"/>
</g>
<!-- anon_31_37_6 -->
<g id="node75" class="node"><title>anon_31_37_6</title>
<ellipse fill="white" stroke="black" cx="-21.5111" cy="-171.067" rx="1" ry="1"/>
</g>
<!-- anon_31_37_5&#45;&gt;anon_31_37_6 -->
<g id="edge42" class="edge"><title>anon_31_37_5&#45;&gt;anon_31_37_6</title>
<path fill="none" stroke="black" d="M-66.0757,-164.822C-59.8088,-165.7 -29.3556,-169.967 -22.769,-170.89"/>
</g>
<!-- anon_31_37_6&#45;&gt;37 -->
<g id="edge43" class="edge"><title>anon_31_37_6&#45;&gt;37</title>
<path fill="none" stroke="black" d="M-20.4158,-171.088C-14.1308,-171.209 17.6082,-171.82 33.0849,-172.117"/>
</g>
<!-- anon_31_45_0&#45;&gt;45 -->
<g id="edge46" class="edge"><title>anon_31_45_0&#45;&gt;45</title>
<path fill="none" stroke="black" d="M-214.632,131.858C-211.41,137.142 -196.404,161.746 -191.794,169.306"/>
</g>
<!-- anon_32_33_0&#45;&gt;33 -->
<g id="edge48" class="edge"><title>anon_32_33_0&#45;&gt;33</title>
<path fill="none" stroke="black" d="M-93.526,223.331C-93.5805,217.528 -93.8141,192.668 -93.924,180.966"/>
</g>
<!-- anon_34_36_0&#45;&gt;36 -->
<g id="edge51" class="edge"><title>anon_34_36_0&#45;&gt;36</title>
<path fill="none" stroke="black" d="M141.73,-139.421C139.974,-145.596 131.799,-174.346 129.287,-183.18"/>
</g>
<!-- anon_34_48_1 -->
<g id="node80" class="node"><title>anon_34_48_1</title>
<ellipse fill="white" stroke="black" cx="195.85" cy="-168.218" rx="1" ry="1"/>
</g>
<!-- anon_34_48_0&#45;&gt;anon_34_48_1 -->
<g id="edge54" class="edge"><title>anon_34_48_0&#45;&gt;anon_34_48_1</title>
<path fill="none" stroke="black" d="M180.437,-125.454C182.566,-131.362 192.77,-159.673 195.287,-166.658"/>
</g>
<!-- anon_34_48_1&#45;&gt;48 -->
<g id="edge55" class="edge"><title>anon_34_48_1&#45;&gt;48</title>
<path fill="none" stroke="black" d="M195.261,-169.323C192.169,-175.13 177.771,-202.166 173.348,-210.473"/>
</g>
<!-- anon_34_50_0&#45;&gt;50 -->
<g id="edge57" class="edge"><title>anon_34_50_0&#45;&gt;50</title>
<path fill="none" stroke="black" d="M182.898,-76.4422C186.059,-72.8467 196.775,-60.6556 200.998,-55.8514"/>
</g>
<!-- anon_40_59_1 -->
<g id="node83" class="node"><title>anon_40_59_1</title>
<ellipse fill="white" stroke="black" cx="395.988" cy="-376.895" rx="1" ry="1"/>
</g>
<!-- anon_40_59_0&#45;&gt;anon_40_59_1 -->
<g id="edge70" class="edge"><title>anon_40_59_0&#45;&gt;anon_40_59_1</title>
<path fill="none" stroke="black" d="M372.091,-344.611C375.392,-349.072 391.212,-370.444 395.116,-375.717"/>
</g>
<!-- anon_40_59_2 -->
<g id="node84" class="node"><title>anon_40_59_2</title>
<ellipse fill="white" stroke="black" cx="417.558" cy="-410.309" rx="1" ry="1"/>
</g>
<!-- anon_40_59_1&#45;&gt;anon_40_59_2 -->
<g id="edge71" class="edge"><title>anon_40_59_1&#45;&gt;anon_40_59_2</title>
<path fill="none" stroke="black" d="M396.915,-378.331C400.527,-383.927 413.623,-404.213 416.84,-409.197"/>
</g>
<!-- anon_40_59_2&#45;&gt;59 -->
<g id="edge72" class="edge"><title>anon_40_59_2&#45;&gt;59</title>
<path fill="none" stroke="black" d="M417.856,-411.27C419.393,-416.229 426.445,-438.986 428.823,-446.662"/>
</g>
<!-- anon_33_34_1 -->
<g id="node86" class="node"><title>anon_33_34_1</title>
<ellipse fill="white" stroke="black" cx="11.6432" cy="162.417" rx="1" ry="1"/>
</g>
<!-- anon_33_34_0&#45;&gt;anon_33_34_1 -->
<g id="edge80" class="edge"><title>anon_33_34_0&#45;&gt;anon_33_34_1</title>
<path fill="none" stroke="black" stroke-dasharray="5,2" d="M-34.6635,173.38C-28.1516,171.838 3.49206,164.347 10.3362,162.726"/>
</g>
<!-- anon_33_34_2 -->
<g id="node87" class="node"><title>anon_33_34_2</title>
<ellipse fill="white" stroke="black" cx="54.2708" cy="138.951" rx="1" ry="1"/>
</g>
<!-- anon_33_34_1&#45;&gt;anon_33_34_2 -->
<g id="edge81" class="edge"><title>anon_33_34_1&#45;&gt;anon_33_34_2</title>
<path fill="none" stroke="black" stroke-dasharray="5,2" d="M12.6969,161.837C18.4407,158.675 45.9629,143.524 52.7537,139.786"/>
</g>
<!-- anon_33_34_3 -->
<g id="node88" class="node"><title>anon_33_34_3</title>
<ellipse fill="white" stroke="black" cx="89.8443" cy="105.998" rx="1" ry="1"/>
</g>
<!-- anon_33_34_2&#45;&gt;anon_33_34_3 -->
<g id="edge82" class="edge"><title>anon_33_34_2&#45;&gt;anon_33_34_3</title>
<path fill="none" stroke="black" stroke-dasharray="5,2" d="M55.1502,138.136C59.9434,133.696 82.9112,112.421 88.5782,107.171"/>
</g>
<!-- anon_33_34_4 -->
<g id="node89" class="node"><title>anon_33_34_4</title>
<ellipse fill="white" stroke="black" cx="116.505" cy="65.9116" rx="1" ry="1"/>
</g>
<!-- anon_33_34_3&#45;&gt;anon_33_34_4 -->
<g id="edge83" class="edge"><title>anon_33_34_3&#45;&gt;anon_33_34_4</title>
<path fill="none" stroke="black" stroke-dasharray="5,2" d="M90.5033,105.007C94.0956,99.606 111.309,73.7243 115.556,67.3383"/>
</g>
<!-- anon_33_34_5 -->
<g id="node90" class="node"><title>anon_33_34_5</title>
<ellipse fill="white" stroke="black" cx="131.759" cy="20.7097" rx="1" ry="1"/>
</g>
<!-- anon_33_34_4&#45;&gt;anon_33_34_5 -->
<g id="edge84" class="edge"><title>anon_33_34_4&#45;&gt;anon_33_34_5</title>
<path fill="none" stroke="black" stroke-dasharray="5,2" d="M116.882,64.7942C118.974,58.5948 129.14,28.4697 131.339,21.954"/>
</g>
<!-- anon_33_34_6 -->
<g id="node91" class="node"><title>anon_33_34_6</title>
<ellipse fill="white" stroke="black" cx="133.5" cy="-27.35" rx="1" ry="1"/>
</g>
<!-- anon_33_34_5&#45;&gt;anon_33_34_6 -->
<g id="edge85" class="edge"><title>anon_33_34_5&#45;&gt;anon_33_34_6</title>
<path fill="none" stroke="black" stroke-dasharray="5,2" d="M131.802,19.5217C132.041,12.9304 133.201,-19.0994 133.452,-26.0271"/>
</g>
<!-- anon_33_34_6&#45;&gt;34 -->
<g id="edge86" class="edge"><title>anon_33_34_6&#45;&gt;34</title>
<path fill="none" stroke="black" stroke-dasharray="5,2" d="M133.481,-28.436C133.37,-34.8619 132.794,-68.1262 132.539,-82.8692"/>
</g>
<!-- anon_33_45_0&#45;&gt;45 -->
<g id="edge88" class="edge"><title>anon_33_45_0&#45;&gt;45</title>
<path fill="none" stroke="black" stroke-dasharray="5,2" d="M-146.477,188.511C-152.334,186.248 -179.607,175.709 -187.987,172.47"/>
</g>
<!-- anon_36_37_0&#45;&gt;37 -->
<g id="edge90" class="edge"><title>anon_36_37_0&#45;&gt;37</title>
<path fill="none" stroke="black" stroke-dasharray="5,2" d="M80.7318,-191.917C76.4835,-189.786 59.5787,-181.304 49.4281,-176.211"/>
</g>
<!-- anon_36_48_1 -->
<g id="node95" class="node"><title>anon_36_48_1</title>
<ellipse fill="white" stroke="black" cx="188.195" cy="-249.116" rx="1" ry="1"/>
</g>
<!-- anon_36_48_0&#45;&gt;anon_36_48_1 -->
<g id="edge92" class="edge"><title>anon_36_48_0&#45;&gt;anon_36_48_1</title>
<path fill="none" stroke="black" stroke-dasharray="5,2" d="M153.551,-232.74C159.614,-235.606 181.591,-245.994 186.991,-248.547"/>
</g>
<!-- anon_36_48_1&#45;&gt;48 -->
<g id="edge93" class="edge"><title>anon_36_48_1&#45;&gt;48</title>
<path fill="none" stroke="black" stroke-dasharray="5,2" d="M187.502,-247.56C184.991,-241.929 176.36,-222.572 173.212,-215.511"/>
</g>
<!-- anon_37_48_1 -->
<g id="node97" class="node"><title>anon_37_48_1</title>
<ellipse fill="white" stroke="black" cx="116.444" cy="-237.15" rx="1" ry="1"/>
</g>
<!-- anon_37_48_0&#45;&gt;anon_37_48_1 -->
<g id="edge95" class="edge"><title>anon_37_48_0&#45;&gt;anon_37_48_1</title>
<path fill="none" stroke="black" stroke-dasharray="5,2" d="M72.6443,-222.285C78.8037,-224.375 108.735,-234.533 115.208,-236.73"/>
</g>
<!-- anon_37_48_1&#45;&gt;48 -->
<g id="edge96" class="edge"><title>anon_37_48_1&#45;&gt;48</title>
<path fill="none" stroke="black" stroke-dasharray="5,2" d="M117.41,-236.729C123.813,-233.937 160.202,-218.073 169.755,-213.908"/>
</g>
<!-- anon_44_46_1 -->
<g id="node99" class="node"><title>anon_44_46_1</title>
<ellipse fill="white" stroke="black" cx="-89.1552" cy="70.5191" rx="1" ry="1"/>
</g>
<!-- anon_44_46_0&#45;&gt;anon_44_46_1 -->
<g id="edge99" class="edge"><title>anon_44_46_0&#45;&gt;anon_44_46_1</title>
<path fill="none" stroke="black" stroke-dasharray="5,2" d="M-113.253,95.7762C-109.036,91.3562 -93.7488,75.3337 -89.993,71.3972"/>
</g>
<!-- anon_44_46_2 -->
<g id="node100" class="node"><title>anon_44_46_2</title>
<ellipse fill="white" stroke="black" cx="-59.6617" cy="47.0359" rx="1" ry="1"/>
</g>
<!-- anon_44_46_1&#45;&gt;anon_44_46_2 -->
<g id="edge100" class="edge"><title>anon_44_46_1&#45;&gt;anon_44_46_2</title>
<path fill="none" stroke="black" stroke-dasharray="5,2" d="M-87.8879,69.51C-82.9483,65.5771 -65.0423,51.32 -60.643,47.8172"/>
</g>
<!-- anon_44_46_3 -->
<g id="node101" class="node"><title>anon_44_46_3</title>
<ellipse fill="white" stroke="black" cx="-31.2655" cy="21.4657" rx="1" ry="1"/>
</g>
<!-- anon_44_46_2&#45;&gt;anon_44_46_3 -->
<g id="edge101" class="edge"><title>anon_44_46_2&#45;&gt;anon_44_46_3</title>
<path fill="none" stroke="black" stroke-dasharray="5,2" d="M-58.4415,45.9372C-53.6857,41.6547 -36.446,26.1306 -32.2103,22.3165"/>
</g>
<!-- anon_44_46_4 -->
<g id="node102" class="node"><title>anon_44_46_4</title>
<ellipse fill="white" stroke="black" cx="-7.05281" cy="-8.47767" rx="1" ry="1"/>
</g>
<!-- anon_44_46_3&#45;&gt;anon_44_46_4 -->
<g id="edge102" class="edge"><title>anon_44_46_3&#45;&gt;anon_44_46_4</title>
<path fill="none" stroke="black" stroke-dasharray="5,2" d="M-30.2251,20.1791C-26.17,15.1642 -11.47,-3.01497 -7.85841,-7.4814"/>
</g>
<!-- anon_44_46_5 -->
<g id="node103" class="node"><title>anon_44_46_5</title>
<ellipse fill="white" stroke="black" cx="17.4694" cy="-38.7849" rx="1" ry="1"/>
</g>
<!-- anon_44_46_4&#45;&gt;anon_44_46_5 -->
<g id="edge103" class="edge"><title>anon_44_46_4&#45;&gt;anon_44_46_5</title>
<path fill="none" stroke="black" stroke-dasharray="5,2" d="M-5.99912,-9.77993C-1.89213,-14.8558 12.9957,-33.2559 16.6535,-37.7766"/>
</g>
<!-- anon_44_46_6 -->
<g id="node104" class="node"><title>anon_44_46_6</title>
<ellipse fill="white" stroke="black" cx="44.2681" cy="-68.4175" rx="1" ry="1"/>
</g>
<!-- anon_44_46_5&#45;&gt;anon_44_46_6 -->
<g id="edge104" class="edge"><title>anon_44_46_5&#45;&gt;anon_44_46_6</title>
<path fill="none" stroke="black" stroke-dasharray="5,2" d="M18.6209,-40.0582C23.1092,-45.0211 39.3791,-63.0115 43.3765,-67.4316"/>
</g>
<!-- anon_44_46_6&#45;&gt;46 -->
<g id="edge105" class="edge"><title>anon_44_46_6&#45;&gt;46</title>
<path fill="none" stroke="black" stroke-dasharray="5,2" d="M44.9097,-69.3651C48.0322,-73.9769 61.7259,-94.2017 67.5674,-102.829"/>
</g>
<!-- anon_49_50_0&#45;&gt;50 -->
<g id="edge108" class="edge"><title>anon_49_50_0&#45;&gt;50</title>
<path fill="none" stroke="black" stroke-dasharray="5,2" d="M153.689,-65.6702C160.222,-64.0998 190.643,-56.7873 199.99,-54.5405"/>
</g>
</g>
</svg>
