<?xml version="1.0" encoding="UTF-8" standalone="no"?>
<!DOCTYPE svg PUBLIC "-//W3C//DTD SVG 1.1//EN"
 "http://www.w3.org/Graphics/SVG/1.1/DTD/svg11.dtd">
<!-- Generated by graphviz version 2.38.0 (20140413.2041)
 -->
<!-- Title: %3 Pages: 1 -->
<svg width="582pt" height="594pt"
 viewBox="0.00 0.00 581.91 593.66" xmlns="http://www.w3.org/2000/svg" xmlns:xlink="http://www.w3.org/1999/xlink">
<g id="graph0" class="graph" transform="scale(1 1) rotate(0) translate(244.556 382.539)">
<title>%3</title>
<polygon fill="white" stroke="none" points="-244.556,211.118 -244.556,-382.539 337.35,-382.539 337.35,211.118 -244.556,211.118"/>
<!-- 0 -->
<g id="node1" class="node"><title>0</title>
<path fill="deepskyblue" stroke="black" stroke-width="0.5" d="M-119.701,41.1175C-119.701,41.1175 -94.201,41.1175 -94.201,41.1175 -94.201,39.8151 -94.3008,38.5145 -94.4995,37.2274 -94.6982,35.9402 -94.9952,34.6701 -95.3879,33.4283 -95.7806,32.1865 -96.2679,30.9766 -96.8455,29.8092 -97.4231,28.6418 -98.0893,27.5204 -98.8382,26.4549 -99.5871,25.3893 -100.417,24.3826 -101.319,23.4438 -102.222,22.5049 -103.195,21.6366 -104.231,20.8464 -105.266,20.0563 -106.36,19.3466 -107.504,18.7236 -108.648,18.1006 -109.838,17.5662 -111.063,17.125 -112.289,16.6839 -113.546,16.3372 -114.824,16.0881 -116.103,15.8391 -117.398,15.6883 -118.7,15.6372 -120.001,15.586 -121.305,15.6347 -122.599,15.7827 -123.893,15.9307 -125.173,16.1776 -126.43,16.5213 -127.686,16.865 -128.914,17.3044 -130.103,17.8357 -131.292,18.367 -132.439,18.9886 -133.533,19.6951 -134.627,20.4016 -135.666,21.1909 -136.639,22.056 -137.613,22.9212 -138.519,23.8596 -139.349,24.8632 -140.179,25.8667 -140.931,26.9324 -141.599,28.0508 -142.266,29.1693 -142.847,30.3372 -143.336,31.5444 -143.825,32.7516 -144.221,33.9944 -144.52,35.2621 -144.819,36.5297 -145.02,37.8184 -145.122,39.1168 -145.225,40.4152 -145.227,41.7195 -145.13,43.0184 -145.033,44.3172 -144.836,45.6066 -144.542,46.8754 -144.248,48.1442 -143.857,49.3886 -143.373,50.5977 -142.889,51.8068 -142.313,52.977 -141.65,54.0981 -140.987,55.2191 -140.239,56.2877 -139.413,57.2945 -138.586,58.3013 -137.684,59.2433 -136.714,60.1123 -135.744,60.9813 -134.709,61.7746 -133.617,62.4854 -132.526,63.1962 -131.382,63.8223 -130.195,64.3583 -129.008,64.8942 -127.781,65.3385 -126.526,65.6871 -125.271,66.0357 -123.992,66.2877 -122.698,66.4407 -121.405,66.5938 -120.102,66.6476 -118.8,66.6016 -117.498,66.5556 -116.202,66.4099 -114.923,66.1658 -114.923,66.1658 -119.701,41.1175 -119.701,41.1175"/>
<path fill="#98f5ff" stroke="black" stroke-width="0.5" d="M-119.701,41.1175C-119.701,41.1175 -114.923,66.1658 -114.923,66.1658 -114.201,66.0282 -113.486,65.8595 -112.779,65.6601 -112.072,65.4607 -111.374,65.2309 -110.687,64.9713 -110,64.7117 -109.325,64.4225 -108.663,64.1046 -108.001,63.7867 -107.353,63.4403 -106.72,63.0664 -106.088,62.6925 -105.473,62.2915 -104.875,61.8645 -104.277,61.4375 -103.699,60.9848 -103.14,60.5079 -102.582,60.0309 -102.044,59.53 -101.529,59.0066 -101.013,58.4831 -100.521,57.9377 -100.053,57.3718 -99.5847,56.8059 -99.1412,56.22 -98.7237,55.6158 -98.3061,55.0116 -97.9148,54.3897 -97.5509,53.7517 -97.187,53.1137 -96.8508,52.4603 -96.5433,51.7933 -96.2358,51.1263 -95.9573,50.4464 -95.7085,49.7553 -95.4597,49.0643 -95.2409,48.3628 -95.0527,47.6529 -94.8644,46.9429 -94.707,46.2252 -94.5807,45.5017 -94.4544,44.7782 -94.3595,44.0495 -94.2961,43.3178 -94.2327,42.5861 -94.201,41.852 -94.201,41.1175 -94.201,41.1175 -119.701,41.1175 -119.701,41.1175"/>
<ellipse fill="none" stroke="black" cx="-119.701" cy="41.1175" rx="25.5" ry="25.5"/>
<text text-anchor="middle" x="-119.701" y="43.6175" font-family="Times,serif" font-size="10.00">0</text>
</g>
<!-- 6 -->
<g id="node7" class="node"><title>6</title>
<path fill="deepskyblue" stroke="black" stroke-width="0.5" d="M-38.6364,-70.1369C-38.6364,-70.1369 -4.1364,-70.1369 -4.1364,-70.1369 -4.1364,-71.3026 -4.19548,-72.4675 -4.31341,-73.6272 -4.43134,-74.7869 -4.60796,-75.9399 -4.84261,-77.0817 -5.07726,-78.2235 -5.36963,-79.3527 -5.71859,-80.465 -6.06755,-81.5772 -6.47266,-82.671 -6.93235,-83.7422 -6.93235,-83.7422 -38.6364,-70.1369 -38.6364,-70.1369"/>
<path fill="brown" stroke="black" stroke-width="0.5" d="M-38.6364,-70.1369C-38.6364,-70.1369 -6.93235,-83.7422 -6.93235,-83.7422 -7.32977,-84.6683 -7.76758,-85.5765 -8.24452,-86.4643 -8.72145,-87.3521 -9.23706,-88.2185 -9.78985,-89.0612 -10.3426,-89.9038 -10.9321,-90.7218 -11.5565,-91.5128 -12.1809,-92.3039 -12.8397,-93.0671 -13.5309,-93.8005 -14.2221,-94.5338 -14.9452,-95.2366 -15.6979,-95.9066 -16.4507,-96.5767 -17.2324,-97.2134 -18.0409,-97.815 -18.8494,-98.4166 -19.6839,-98.9825 -20.5419,-99.5111 -21.4,-100.04 -22.2808,-100.53 -23.1818,-100.982 -24.0828,-101.433 -25.0031,-101.845 -25.9402,-102.216 -26.8772,-102.587 -27.8301,-102.916 -28.796,-103.204 -29.7619,-103.491 -30.7399,-103.736 -31.7273,-103.938 -32.7146,-104.14 -33.7104,-104.298 -34.7116,-104.413 -35.7128,-104.528 -36.7186,-104.598 -37.726,-104.625 -38.7334,-104.652 -39.7415,-104.634 -40.7474,-104.572 -41.7533,-104.511 -42.756,-104.405 -43.7526,-104.255 -44.7493,-104.106 -45.7389,-103.913 -46.7186,-103.677 -47.6983,-103.441 -48.6672,-103.162 -49.6225,-102.841 -50.5779,-102.52 -51.5186,-102.157 -52.4422,-101.754 -53.3658,-101.351 -54.2712,-100.907 -55.156,-100.425 -56.0407,-99.9422 -56.9039,-99.4212 -57.743,-98.863 -58.5821,-98.3049 -59.3963,-97.7103 -60.1834,-97.0809 -60.9704,-96.4515 -61.7295,-95.7879 -62.4585,-95.092 -63.1875,-94.3962 -63.8856,-93.6687 -64.5508,-92.9117 -65.2161,-92.1548 -65.8479,-91.369 -66.4444,-90.5567 -67.0408,-89.7444 -67.6014,-88.9064 -68.1246,-88.045 -68.6477,-87.1836 -69.1328,-86.2997 -69.5785,-85.3959 -70.0242,-84.492 -70.4301,-83.5691 -70.7951,-82.6297 -71.16,-81.6903 -71.4836,-80.7354 -71.7649,-79.7677 -72.0462,-78.8 -72.285,-77.8204 -72.4806,-76.8318 -72.6761,-75.8432 -72.8283,-74.8465 -72.9366,-73.8446 -73.0449,-72.8426 -73.1092,-71.8364 -73.1295,-70.8289 -73.1497,-69.8213 -73.1257,-68.8133 -73.0577,-67.8078 -72.9897,-66.8024 -72.8776,-65.8004 -72.7218,-64.8047 -72.5661,-63.809 -72.3668,-62.8207 -72.1245,-61.8425 -71.8822,-60.8643 -71.5972,-59.8971 -71.2702,-58.9439 -70.9432,-57.9906 -70.5747,-57.0521 -70.1656,-56.1311 -69.7564,-55.2101 -69.3072,-54.3075 -68.819,-53.4259 -68.3309,-52.5442 -67.8043,-51.6844 -67.2409,-50.8488 -66.6775,-50.0132 -66.0777,-49.2028 -65.4433,-48.4197 -64.809,-47.6367 -64.1406,-46.8818 -63.4401,-46.1573 -62.7397,-45.4327 -62.0078,-44.7392 -61.2466,-44.0788 -60.4854,-43.4183 -59.6957,-42.7915 -58.8796,-42.2002 -58.0636,-41.6089 -57.222,-41.0536 -56.3573,-40.5359 -55.4927,-40.0183 -54.6057,-39.5388 -53.6991,-39.0988 -52.7924,-38.6588 -51.8669,-38.2587 -50.9253,-37.8998 -49.9836,-37.5408 -49.0266,-37.2233 -48.0572,-36.9481 -47.0877,-36.6729 -46.1066,-36.4403 -45.1168,-36.251 -44.127,-36.0617 -43.1293,-35.9159 -42.1267,-35.8139 -41.1241,-35.712 -40.1175,-35.654 -39.1098,-35.6402 -38.1022,-35.6263 -37.0944,-35.6567 -36.0893,-35.7311 -35.0843,-35.8055 -34.083,-35.9239 -33.0884,-36.0859 -32.0937,-36.248 -31.1067,-36.4536 -30.13,-36.7021 -29.1533,-36.9505 -28.188,-37.2417 -27.2369,-37.5747 -26.2857,-37.9077 -25.3496,-38.2822 -24.4312,-38.6971 -23.5128,-39.1121 -22.613,-39.567 -21.7345,-40.0608 -20.856,-40.5545 -19.9995,-41.0865 -19.1675,-41.6552 -18.3355,-42.2239 -17.5288,-42.8287 -16.7498,-43.4681 -15.9708,-44.1074 -15.2202,-44.7805 -14.5001,-45.4856 -13.78,-46.1906 -13.0912,-46.9269 -12.4355,-47.6922 -11.7799,-48.4576 -11.1581,-49.2513 -10.572,-50.0711 -9.98585,-50.8908 -9.43591,-51.7359 -8.92376,-52.6038 -8.4116,-53.4718 -7.93772,-54.3617 -7.50348,-55.2711 -7.06924,-56.1806 -6.67505,-57.1086 -6.32206,-58.0525 -5.96906,-58.9964 -5.6576,-59.9554 -5.38855,-60.9266 -5.38855,-60.9266 -38.6364,-70.1369 -38.6364,-70.1369"/>
<path fill="#ff3030" stroke="black" stroke-width="0.5" d="M-38.6364,-70.1369C-38.6364,-70.1369 -5.38855,-60.9266 -5.38855,-60.9266 -4.97355,-62.4246 -4.66028,-63.9491 -4.45087,-65.4894 -4.24146,-67.0297 -4.1364,-68.5824 -4.1364,-70.1369 -4.1364,-70.1369 -38.6364,-70.1369 -38.6364,-70.1369"/>
<ellipse fill="none" stroke="black" cx="-38.6364" cy="-70.1369" rx="34.5" ry="34.5"/>
<text text-anchor="middle" x="-38.6364" y="-67.6369" font-family="Times,serif" font-size="10.00">6</text>
</g>
<!-- 0&#45;&#45;6 -->
<g id="edge1" class="edge"><title>0&#45;&#45;6</title>
<path fill="none" stroke="black" d="M-104.643,20.4521C-91.8228,2.857 -73.2839,-22.5861 -59.1153,-42.0313"/>
</g>
<!-- 22 -->
<g id="node23" class="node"><title>22</title>
<ellipse fill="deepskyblue" stroke="black" cx="-165.595" cy="95.0906" rx="3.5" ry="3.5"/>
<text text-anchor="middle" x="-165.595" y="97.5906" font-family="Times,serif" font-size="10.00">22</text>
</g>
<!-- 0&#45;&#45;22 -->
<g id="edge2" class="edge"><title>0&#45;&#45;22</title>
<path fill="none" stroke="black" d="M-136.27,60.603C-146.335,72.4395 -158.178,86.3673 -163.176,92.2458"/>
</g>
<!-- 24 -->
<g id="node25" class="node"><title>24</title>
<ellipse fill="deepskyblue" stroke="black" cx="-132.941" cy="111.197" rx="3.5" ry="3.5"/>
<text text-anchor="middle" x="-132.941" y="113.697" font-family="Times,serif" font-size="10.00">24</text>
</g>
<!-- 0&#45;&#45;24 -->
<g id="edge3" class="edge"><title>0&#45;&#45;24</title>
<path fill="none" stroke="black" d="M-124.481,66.4177C-127.384,81.7864 -130.801,99.8705 -132.243,107.503"/>
</g>
<!-- 58 -->
<g id="node59" class="node"><title>58</title>
<ellipse fill="black" stroke="black" cx="-187.087" cy="64.6884" rx="3.5" ry="3.5"/>
<text text-anchor="middle" x="-187.087" y="67.1884" font-family="Times,serif" font-size="10.00">58</text>
</g>
<!-- 0&#45;&#45;58 -->
<g id="edge4" class="edge"><title>0&#45;&#45;58</title>
<path fill="none" stroke="black" d="M-144.029,49.6271C-158.807,54.7963 -176.196,60.8788 -183.536,63.446"/>
</g>
<!-- 1 -->
<g id="node2" class="node"><title>1</title>
<ellipse fill="deepskyblue" stroke="black" cx="283.872" cy="51.0153" rx="3.5" ry="3.5"/>
<text text-anchor="middle" x="283.872" y="53.5153" font-family="Times,serif" font-size="10.00">1</text>
</g>
<!-- 3 -->
<g id="node4" class="node"><title>3</title>
<path fill="deepskyblue" stroke="black" stroke-width="0.5" d="M210.834,72.6016C210.834,72.6016 244.834,72.6016 244.834,72.6016 244.834,71.2165 244.749,69.8327 244.58,68.458 244.412,67.0833 244.159,65.7201 243.824,64.3762 243.489,63.0323 243.072,61.7101 242.576,60.4171 242.079,59.124 241.504,57.8625 240.854,56.6395 240.204,55.4166 239.479,54.2345 238.685,53.1 237.891,51.9654 237.028,50.8804 236.101,49.8511 235.174,48.8218 234.185,47.8501 233.14,46.9414 232.094,46.0328 230.995,45.1888 229.846,44.4143 228.698,43.6398 227.504,42.9361 226.269,42.3073 225.035,41.6785 223.764,41.1257 222.462,40.652 221.161,40.1783 219.832,39.7845 218.482,39.473 217.133,39.1614 215.765,38.9326 214.388,38.7878 213.01,38.643 211.625,38.5826 210.24,38.6067 208.856,38.6309 207.473,38.7397 206.102,38.9324 204.73,39.1252 203.372,39.4016 202.034,39.7601 200.696,40.1186 199.381,40.5585 198.097,41.0773 198.097,41.0773 210.834,72.6016 210.834,72.6016"/>
<path fill="#98f5ff" stroke="black" stroke-width="0.5" d="M210.834,72.6016C210.834,72.6016 198.097,41.0773 198.097,41.0773 197.18,41.4479 196.279,41.8583 195.398,42.3073 194.517,42.7564 193.655,43.2437 192.817,43.7679 191.978,44.2921 191.162,44.8527 190.372,45.448 189.582,46.0433 188.818,46.6727 188.083,47.3346 188.083,47.3346 210.834,72.6016 210.834,72.6016"/>
<path fill="#ff3030" stroke="black" stroke-width="0.5" d="M210.834,72.6016C210.834,72.6016 188.083,47.3346 188.083,47.3346 186.944,48.3608 185.875,49.4629 184.884,50.6333 183.893,51.8038 182.982,53.04 182.158,54.3334 181.334,55.6268 180.599,56.9744 179.957,58.3671 179.315,59.7598 178.768,61.1944 178.319,62.6609 177.871,64.1275 177.522,65.6227 177.276,67.1363 177.029,68.6499 176.886,70.1785 176.845,71.7115 176.805,73.2446 176.869,74.7786 177.036,76.303 177.203,77.8275 177.473,79.3389 177.844,80.8269 178.215,82.3149 178.686,83.7761 179.254,85.2005 179.823,86.6249 180.487,88.0092 181.242,89.344 181.997,90.6787 182.841,91.9608 183.77,93.1816 184.698,94.4023 185.708,95.5588 186.792,96.6432 187.877,97.7276 189.033,98.7374 190.254,99.6656 191.475,100.594 192.757,101.438 194.091,102.194 195.426,102.949 196.81,103.613 198.235,104.181 199.659,104.749 201.12,105.221 202.608,105.592 202.608,105.592 210.834,72.6016 210.834,72.6016"/>
<path fill="#1874cd" stroke="black" stroke-width="0.5" d="M210.834,72.6016C210.834,72.6016 202.608,105.592 202.608,105.592 203.856,105.903 205.121,106.143 206.396,106.311 207.671,106.479 208.955,106.574 210.24,106.596 211.526,106.619 212.812,106.568 214.093,106.445 215.373,106.322 216.645,106.126 217.903,105.859 219.161,105.591 220.403,105.253 221.622,104.845 222.842,104.436 224.037,103.96 225.203,103.416 226.368,102.873 227.502,102.263 228.599,101.591 229.695,100.919 230.753,100.186 231.766,99.3939 232.78,98.6021 233.747,97.7535 234.665,96.8521 235.582,95.9507 236.447,94.9979 237.257,93.9985 238.066,92.999 238.818,91.9544 239.509,90.8697 240.2,89.7851 240.829,88.6621 241.393,87.5062 241.957,86.3503 242.454,85.1633 242.884,83.951 243.313,82.7387 243.673,81.503 243.962,80.2499 244.252,78.9968 244.47,77.7283 244.615,76.4505 244.761,75.1727 244.834,73.8876 244.834,72.6016 244.834,72.6016 210.834,72.6016 210.834,72.6016"/>
<ellipse fill="none" stroke="black" cx="210.834" cy="72.6016" rx="34" ry="34"/>
<text text-anchor="middle" x="210.834" y="75.1016" font-family="Times,serif" font-size="10.00">3</text>
</g>
<!-- 1&#45;&#45;3 -->
<g id="edge5" class="edge"><title>1&#45;&#45;3</title>
<path fill="none" stroke="black" d="M280.349,52.0565C273.624,54.044 258.329,58.5643 243.794,62.8603"/>
</g>
<!-- 2 -->
<g id="node3" class="node"><title>2</title>
<ellipse fill="#ff3030" stroke="black" cx="-24.3357" cy="-169.67" rx="14" ry="14"/>
<text text-anchor="middle" x="-24.3357" y="-167.17" font-family="Times,serif" font-size="10.00">2</text>
</g>
<!-- 2&#45;&#45;6 -->
<g id="edge6" class="edge"><title>2&#45;&#45;6</title>
<path fill="none" stroke="black" d="M-26.3847,-155.409C-28.2846,-142.186 -31.1871,-121.984 -33.6902,-104.563"/>
</g>
<!-- 10 -->
<g id="node11" class="node"><title>10</title>
<ellipse fill="#ff3030" stroke="black" cx="255.498" cy="7.21158" rx="3.5" ry="3.5"/>
<text text-anchor="middle" x="255.498" y="9.71158" font-family="Times,serif" font-size="10.00">10</text>
</g>
<!-- 3&#45;&#45;10 -->
<g id="edge7" class="edge"><title>3&#45;&#45;10</title>
<path fill="none" stroke="black" d="M230.034,44.4908C239.303,30.9217 249.305,16.2779 253.484,10.159"/>
</g>
<!-- 21 -->
<g id="node22" class="node"><title>21</title>
<ellipse fill="deepskyblue" stroke="black" cx="240.723" cy="-0.169633" rx="3.5" ry="3.5"/>
<text text-anchor="middle" x="240.723" y="2.33037" font-family="Times,serif" font-size="10.00">21</text>
</g>
<!-- 3&#45;&#45;21 -->
<g id="edge8" class="edge"><title>3&#45;&#45;21</title>
<path fill="none" stroke="black" d="M223.857,40.8947C229.898,26.187 236.364,10.4422 239.22,3.48897"/>
</g>
<!-- 25 -->
<g id="node26" class="node"><title>25</title>
<ellipse fill="deepskyblue" stroke="black" cx="234.885" cy="142.278" rx="3.5" ry="3.5"/>
<text text-anchor="middle" x="234.885" y="144.778" font-family="Times,serif" font-size="10.00">25</text>
</g>
<!-- 3&#45;&#45;25 -->
<g id="edge9" class="edge"><title>3&#45;&#45;25</title>
<path fill="none" stroke="black" d="M222.015,104.992C226.627,118.354 231.406,132.199 233.62,138.611"/>
</g>
<!-- 30 -->
<g id="node31" class="node"><title>30</title>
<ellipse fill="deepskyblue" stroke="black" cx="223.525" cy="-2.56667" rx="3.5" ry="3.5"/>
<text text-anchor="middle" x="223.525" y="-0.0666714" font-family="Times,serif" font-size="10.00">30</text>
</g>
<!-- 3&#45;&#45;30 -->
<g id="edge10" class="edge"><title>3&#45;&#45;30</title>
<path fill="none" stroke="black" d="M216.511,38.9749C219.046,23.9644 221.724,8.10252 222.904,1.10973"/>
</g>
<!-- 34 -->
<g id="node35" class="node"><title>34</title>
<ellipse fill="#ff3030" stroke="black" cx="143.5" cy="98.2792" rx="3.5" ry="3.5"/>
<text text-anchor="middle" x="143.5" y="100.779" font-family="Times,serif" font-size="10.00">34</text>
</g>
<!-- 3&#45;&#45;34 -->
<g id="edge11" class="edge"><title>3&#45;&#45;34</title>
<path fill="none" stroke="black" d="M178.745,84.8387C166.009,89.6956 152.971,94.6674 146.944,96.9661"/>
</g>
<!-- 36 -->
<g id="node37" class="node"><title>36</title>
<ellipse fill="#ff3030" stroke="black" cx="282.558" cy="93.6082" rx="3.5" ry="3.5"/>
<text text-anchor="middle" x="282.558" y="96.1082" font-family="Times,serif" font-size="10.00">36</text>
</g>
<!-- 3&#45;&#45;36 -->
<g id="edge12" class="edge"><title>3&#45;&#45;36</title>
<path fill="none" stroke="black" d="M243.757,82.2441C257.898,86.3858 272.653,90.7073 279.147,92.6091"/>
</g>
<!-- 41 -->
<g id="node42" class="node"><title>41</title>
<ellipse fill="#1874cd" stroke="black" cx="119.225" cy="17.3843" rx="3.5" ry="3.5"/>
<text text-anchor="middle" x="119.225" y="19.8843" font-family="Times,serif" font-size="10.00">41</text>
</g>
<!-- 3&#45;&#45;41 -->
<g id="edge13" class="edge"><title>3&#45;&#45;41</title>
<path fill="none" stroke="black" d="M181.596,54.9787C159.813,41.8489 132.253,25.2369 122.684,19.469"/>
</g>
<!-- 44 -->
<g id="node45" class="node"><title>44</title>
<ellipse fill="#1874cd" stroke="black" cx="150.196" cy="118.174" rx="3.5" ry="3.5"/>
<text text-anchor="middle" x="150.196" y="120.674" font-family="Times,serif" font-size="10.00">44</text>
</g>
<!-- 3&#45;&#45;44 -->
<g id="edge14" class="edge"><title>3&#45;&#45;44</title>
<path fill="none" stroke="black" d="M183.353,93.2542C171.32,102.298 158.686,111.793 153.12,115.976"/>
</g>
<!-- 46 -->
<g id="node47" class="node"><title>46</title>
<ellipse fill="#1874cd" stroke="black" cx="283.572" cy="117.755" rx="3.5" ry="3.5"/>
<text text-anchor="middle" x="283.572" y="120.255" font-family="Times,serif" font-size="10.00">46</text>
</g>
<!-- 3&#45;&#45;46 -->
<g id="edge15" class="edge"><title>3&#45;&#45;46</title>
<path fill="none" stroke="black" d="M240,90.7069C255.81,100.521 273.511,111.509 280.499,115.847"/>
</g>
<!-- 56 -->
<g id="node57" class="node"><title>56</title>
<ellipse fill="#98f5ff" stroke="black" cx="202.824" cy="1.09096" rx="3.5" ry="3.5"/>
<text text-anchor="middle" x="202.824" y="3.59096" font-family="Times,serif" font-size="10.00">56</text>
</g>
<!-- 3&#45;&#45;56 -->
<g id="edge16" class="edge"><title>3&#45;&#45;56</title>
<path fill="none" stroke="black" d="M207.016,38.5217C205.501,24.9958 203.95,11.1494 203.233,4.74786"/>
</g>
<!-- 59 -->
<g id="node60" class="node"><title>59</title>
<ellipse fill="black" stroke="black" cx="267.669" cy="20.6671" rx="3.5" ry="3.5"/>
<text text-anchor="middle" x="267.669" y="23.1671" font-family="Times,serif" font-size="10.00">59</text>
</g>
<!-- 3&#45;&#45;59 -->
<g id="edge17" class="edge"><title>3&#45;&#45;59</title>
<path fill="none" stroke="black" d="M236.259,49.3686C247.608,38.9977 259.602,28.0386 264.889,23.2072"/>
</g>
<!-- 4 -->
<g id="node5" class="node"><title>4</title>
<path fill="deepskyblue" stroke="black" stroke-width="0.5" d="M-160.522,-37.8659C-160.522,-37.8659 -128.522,-37.8659 -128.522,-37.8659 -128.522,-38.967 -128.578,-40.0674 -128.692,-41.1627 -128.805,-42.258 -128.975,-43.3467 -129.201,-44.4245 -129.427,-45.5022 -129.708,-46.5676 -130.043,-47.6164 -130.379,-48.6652 -130.768,-49.696 -131.21,-50.7046 -131.652,-51.7132 -132.145,-52.6984 -132.689,-53.6561 -133.232,-54.6139 -133.824,-55.5429 -134.464,-56.4396 -135.103,-57.3363 -135.788,-58.1994 -136.516,-59.0254 -137.244,-59.8515 -138.014,-60.6394 -138.824,-61.386 -139.633,-62.1327 -140.48,-62.8371 -141.362,-63.4963 -142.244,-64.1556 -143.16,-64.769 -144.105,-65.3339 -145.05,-65.8988 -146.024,-66.4145 -147.022,-66.8791 -148.02,-67.3436 -149.042,-67.7563 -150.083,-68.1155 -151.124,-68.4747 -152.183,-68.7799 -153.255,-69.0299 -154.327,-69.28 -155.412,-69.4745 -156.504,-69.6127 -157.597,-69.751 -158.696,-69.8327 -159.797,-69.8577 -160.897,-69.8826 -161.999,-69.8507 -163.096,-69.7621 -164.194,-69.6735 -165.286,-69.5283 -166.369,-69.3271 -167.452,-69.1259 -168.523,-68.8689 -169.579,-68.5572 -170.635,-68.2456 -171.675,-67.8796 -172.693,-67.4607 -173.711,-67.0419 -174.707,-66.5708 -175.677,-66.0493 -176.647,-65.5278 -177.589,-64.9565 -178.5,-64.3379 -179.411,-63.7192 -180.29,-63.054 -181.132,-62.3447 -181.974,-61.6355 -182.779,-60.8833 -183.544,-60.0911 -184.309,-59.2988 -185.032,-58.4677 -185.711,-57.6009 -186.391,-56.7341 -187.024,-55.8328 -187.611,-54.9006 -188.197,-53.9685 -188.734,-53.0067 -189.221,-52.0191 -189.708,-51.0315 -190.144,-50.0195 -190.527,-48.9869 -190.91,-47.9544 -191.239,-46.9029 -191.513,-45.8364 -191.787,-44.77 -192.006,-43.6901 -192.169,-42.6011 -192.332,-41.5121 -192.439,-40.4154 -192.489,-39.3153 -192.539,-38.2153 -192.532,-37.1135 -192.468,-36.0142 -192.404,-34.9149 -192.284,-33.8196 -192.107,-32.7327 -192.107,-32.7327 -160.522,-37.8659 -160.522,-37.8659"/>
<path fill="#98f5ff" stroke="black" stroke-width="0.5" d="M-160.522,-37.8659C-160.522,-37.8659 -192.107,-32.7327 -192.107,-32.7327 -191.874,-31.301 -191.545,-29.8867 -191.12,-28.4997 -190.696,-27.1127 -190.177,-25.7562 -189.569,-24.4395 -188.96,-23.1228 -188.263,-21.8491 -187.481,-20.627 -186.7,-19.405 -185.836,-18.2375 -184.896,-17.1326 -183.957,-16.0277 -182.943,-14.988 -181.862,-14.0207 -180.781,-13.0533 -179.636,-12.1606 -178.434,-11.3487 -177.232,-10.5368 -175.976,-9.80749 -174.675,-9.16594 -173.374,-8.52439 -172.031,-7.97203 -170.655,-7.5127 -169.279,-7.05337 -167.874,-6.68811 -166.448,-6.41947 -165.023,-6.15082 -163.581,-5.97941 -162.132,-5.90641 -160.683,-5.83342 -159.231,-5.859 -157.786,-5.983 -156.341,-6.107 -154.906,-6.32911 -153.491,-6.64782 -152.076,-6.96652 -150.684,-7.38107 -149.325,-7.8886 -147.966,-8.39613 -146.643,-8.99546 -145.366,-9.68245 -144.088,-10.3694 -142.859,-11.1425 -141.686,-11.9963 -140.514,-12.8501 -139.4,-13.7826 -138.354,-14.7874 -138.354,-14.7874 -160.522,-37.8659 -160.522,-37.8659"/>
<path fill="#ff3030" stroke="black" stroke-width="0.5" d="M-160.522,-37.8659C-160.522,-37.8659 -138.354,-14.7874 -138.354,-14.7874 -137.58,-15.5316 -136.843,-16.3143 -136.147,-17.1326 -135.451,-17.9509 -134.796,-18.8037 -134.186,-19.6878 -133.576,-20.5719 -133.01,-21.4862 -132.492,-22.4272 -131.974,-23.3681 -131.503,-24.3346 -131.082,-25.3229 -130.661,-26.3112 -130.29,-27.3201 -129.97,-28.3458 -129.651,-29.3714 -129.383,-30.4125 -129.168,-31.465 -128.953,-32.5176 -128.792,-33.5803 -128.684,-34.6492 -128.576,-35.718 -128.522,-36.7916 -128.522,-37.8659 -128.522,-37.8659 -160.522,-37.8659 -160.522,-37.8659"/>
<ellipse fill="none" stroke="black" cx="-160.522" cy="-37.8659" rx="32" ry="32"/>
<text text-anchor="middle" x="-160.522" y="-35.3659" font-family="Times,serif" font-size="10.00">4</text>
</g>
<!-- 4&#45;&#45;6 -->
<g id="edge18" class="edge"><title>4&#45;&#45;6</title>
<path fill="none" stroke="black" d="M-129.449,-46.0927C-111.958,-50.7239 -90.1048,-56.5098 -72.2193,-61.2453"/>
</g>
<!-- 55 -->
<g id="node56" class="node"><title>55</title>
<ellipse fill="#98f5ff" stroke="black" cx="-237.056" cy="-15.4832" rx="3.5" ry="3.5"/>
<text text-anchor="middle" x="-237.056" y="-12.9832" font-family="Times,serif" font-size="10.00">55</text>
</g>
<!-- 4&#45;&#45;55 -->
<g id="edge19" class="edge"><title>4&#45;&#45;55</title>
<path fill="none" stroke="black" d="M-191.651,-28.762C-207.874,-24.0176 -225.871,-18.7542 -233.416,-16.5477"/>
</g>
<!-- 5 -->
<g id="node6" class="node"><title>5</title>
<ellipse fill="#ff3030" stroke="black" cx="-147.015" cy="-82.7221" rx="18" ry="18"/>
<text text-anchor="middle" x="-147.015" y="-80.2221" font-family="Times,serif" font-size="10.00">5</text>
</g>
<!-- 6&#45;&#45;5 -->
<g id="edge20" class="edge"><title>6&#45;&#45;5</title>
<path fill="none" stroke="black" d="M-72.928,-74.119C-91.5324,-76.2793 -113.771,-78.8617 -128.997,-80.6298"/>
</g>
<!-- 7 -->
<g id="node8" class="node"><title>7</title>
<ellipse fill="#ff3030" stroke="black" cx="36.3536" cy="-70.9749" rx="9.5" ry="9.5"/>
<text text-anchor="middle" x="36.3536" y="-68.4749" font-family="Times,serif" font-size="10.00">7</text>
</g>
<!-- 6&#45;&#45;7 -->
<g id="edge21" class="edge"><title>6&#45;&#45;7</title>
<path fill="none" stroke="black" d="M-3.77582,-70.5265C7.39271,-70.6513 18.8745,-70.7796 26.6796,-70.8668"/>
</g>
<!-- 8 -->
<g id="node9" class="node"><title>8</title>
<ellipse fill="#ff3030" stroke="black" cx="-98.7871" cy="-116.336" rx="6" ry="6"/>
<text text-anchor="middle" x="-98.7871" y="-113.836" font-family="Times,serif" font-size="10.00">8</text>
</g>
<!-- 6&#45;&#45;8 -->
<g id="edge22" class="edge"><title>6&#45;&#45;8</title>
<path fill="none" stroke="black" d="M-66.2471,-91.3435C-76.8712,-99.5034 -87.9082,-107.98 -94.0074,-112.665"/>
</g>
<!-- 13 -->
<g id="node14" class="node"><title>13</title>
<ellipse fill="#ff3030" stroke="black" cx="-87.119" cy="-6.04264" rx="8" ry="8"/>
<text text-anchor="middle" x="-87.119" y="-3.54264" font-family="Times,serif" font-size="10.00">13</text>
</g>
<!-- 6&#45;&#45;13 -->
<g id="edge23" class="edge"><title>6&#45;&#45;13</title>
<path fill="none" stroke="black" d="M-59.4787,-42.5832C-67.8968,-31.4544 -76.8728,-19.5881 -82.2371,-12.4965"/>
</g>
<!-- 14 -->
<g id="node15" class="node"><title>14</title>
<path fill="#98f5ff" stroke="black" stroke-width="0.5" d="M20.2976,-162C20.2976,-162 26.2976,-162 26.2976,-162 26.2976,-162.262 26.2805,-162.524 26.2463,-162.783 26.2121,-163.043 26.161,-163.3 26.0932,-163.553 26.0254,-163.806 25.9411,-164.054 25.8409,-164.296 25.7407,-164.538 25.6247,-164.773 25.4938,-165 25.3628,-165.227 25.2172,-165.445 25.0577,-165.653 24.8983,-165.86 24.7255,-166.057 24.5403,-166.243 24.3551,-166.428 24.158,-166.601 23.9502,-166.76 23.7424,-166.92 23.5244,-167.065 23.2976,-167.196 23.0708,-167.327 22.8357,-167.443 22.5937,-167.543 22.3518,-167.644 22.1035,-167.728 21.8505,-167.796 21.5976,-167.863 21.3404,-167.914 21.0808,-167.949 20.8211,-167.983 20.5595,-168 20.2976,-168 20.0357,-168 19.7741,-167.983 19.5145,-167.949 19.2548,-167.914 18.9977,-167.863 18.7447,-167.796 18.4917,-167.728 18.2435,-167.644 18.0015,-167.543 17.7596,-167.443 17.5244,-167.327 17.2976,-167.196 17.2976,-167.196 20.2976,-162 20.2976,-162"/>
<path fill="#ff3030" stroke="black" stroke-width="0.5" d="M20.2976,-162C20.2976,-162 17.2976,-167.196 17.2976,-167.196 17.0708,-167.065 16.8528,-166.92 16.6451,-166.76 16.4373,-166.601 16.2402,-166.428 16.055,-166.243 15.8698,-166.057 15.6969,-165.86 15.5375,-165.653 15.3781,-165.445 15.2324,-165.227 15.1015,-165 14.9705,-164.773 14.8546,-164.538 14.7543,-164.296 14.6541,-164.054 14.5699,-163.806 14.5021,-163.553 14.4343,-163.3 14.3831,-163.043 14.349,-162.783 14.3148,-162.524 14.2976,-162.262 14.2976,-162 14.2976,-161.738 14.3148,-161.476 14.349,-161.217 14.3831,-160.957 14.4343,-160.7 14.5021,-160.447 14.5699,-160.194 14.6541,-159.946 14.7543,-159.704 14.8546,-159.462 14.9705,-159.227 15.1015,-159 15.2324,-158.773 15.3781,-158.555 15.5375,-158.347 15.6969,-158.14 15.8698,-157.943 16.055,-157.757 16.2402,-157.572 16.4373,-157.399 16.6451,-157.24 16.8528,-157.08 17.0708,-156.935 17.2976,-156.804 17.5244,-156.673 17.7596,-156.557 18.0015,-156.457 18.2435,-156.357 18.4917,-156.272 18.7447,-156.204 18.9977,-156.137 19.2548,-156.086 19.5145,-156.051 19.7741,-156.017 20.0357,-156 20.2976,-156 20.5595,-156 20.8211,-156.017 21.0808,-156.051 21.3404,-156.086 21.5976,-156.137 21.8505,-156.204 22.1035,-156.272 22.3518,-156.357 22.5937,-156.457 22.8357,-156.557 23.0708,-156.673 23.2976,-156.804 23.5244,-156.935 23.7424,-157.08 23.9502,-157.24 24.158,-157.399 24.3551,-157.572 24.5403,-157.757 24.7255,-157.943 24.8983,-158.14 25.0577,-158.347 25.2172,-158.555 25.3628,-158.773 25.4938,-159 25.6247,-159.227 25.7407,-159.462 25.8409,-159.704 25.9411,-159.946 26.0254,-160.194 26.0932,-160.447 26.161,-160.7 26.2121,-160.957 26.2463,-161.217 26.2805,-161.476 26.2976,-161.738 26.2976,-162 26.2976,-162 20.2976,-162 20.2976,-162"/>
<ellipse fill="none" stroke="black" cx="20.2976" cy="-162" rx="6" ry="6"/>
<text text-anchor="middle" x="20.2976" y="-159.5" font-family="Times,serif" font-size="10.00">14</text>
</g>
<!-- 6&#45;&#45;14 -->
<g id="edge24" class="edge"><title>6&#45;&#45;14</title>
<path fill="none" stroke="black" d="M-19.9893,-99.203C-6.77016,-119.808 9.82263,-145.672 16.8743,-156.664"/>
</g>
<!-- 17 -->
<g id="node18" class="node"><title>17</title>
<ellipse fill="#ff3030" stroke="black" cx="5.83106" cy="-128.451" rx="6" ry="6"/>
<text text-anchor="middle" x="5.83106" y="-125.951" font-family="Times,serif" font-size="10.00">17</text>
</g>
<!-- 6&#45;&#45;17 -->
<g id="edge25" class="edge"><title>6&#45;&#45;17</title>
<path fill="none" stroke="black" d="M-17.7048,-97.5864C-10.1359,-107.512 -2.36515,-117.703 2.08289,-123.536"/>
</g>
<!-- 19 -->
<g id="node20" class="node"><title>19</title>
<path fill="deepskyblue" stroke="black" stroke-width="0.5" d="M-20.1689,15.8718C-20.1689,15.8718 -8.66887,15.8718 -8.66887,15.8718 -8.66887,15.4201 -8.69549,14.9687 -8.74858,14.5201 -8.80168,14.0715 -8.88116,13.6264 -8.98662,13.1872 -9.09207,12.7479 -9.22332,12.3153 -9.37967,11.8915 -9.53602,11.4677 -9.71721,11.0534 -9.9223,10.6509 -10.1274,10.2484 -10.356,9.85836 -10.607,9.48275 -10.8579,9.10715 -11.1308,8.74666 -11.4242,8.40316 -11.7176,8.05966 -12.0309,7.73374 -12.3627,7.4271 -12.6944,7.12047 -13.0439,6.83364 -13.4093,6.56812 -13.7748,6.30259 -14.1556,6.05884 -14.5497,5.83811 -14.9439,5.61738 -15.3507,5.42007 -15.768,5.2472 -16.1854,5.07433 -16.6125,4.9262 -17.0473,4.80358 -17.4821,4.68096 -17.9237,4.58406 -18.3699,4.5134 -18.816,4.44273 -19.266,4.39841 -19.7174,4.38068 -20.1688,4.36294 -20.6208,4.37182 -21.0712,4.40726 -21.5215,4.44271 -21.9694,4.50465 -22.4124,4.59278 -22.8555,4.68091 -23.2929,4.79507 -23.7226,4.93466 -24.1522,5.07426 -24.5732,5.23904 -24.9835,5.42817 -25.3937,5.61729 -25.7924,5.83042 -26.1776,6.06645 -26.5628,6.30248 -26.9337,6.561 -27.2885,6.84067 -27.6432,7.12033 -27.9812,7.42066 -28.3006,7.74009 -28.62,8.05951 -28.9204,8.39748 -29.2,8.75223 -29.4797,9.10699 -29.7382,9.47791 -29.9742,9.86308 -30.2103,10.2482 -30.4234,10.647 -30.6125,11.0572 -30.8016,11.4675 -30.9664,11.8885 -31.106,12.3181 -31.2456,12.7477 -31.3598,13.1852 -31.4479,13.6283 -31.536,14.0713 -31.598,14.5192 -31.6334,14.9695 -31.6689,15.4199 -31.6777,15.8719 -31.66,16.3233 -31.6423,16.7747 -31.598,17.2246 -31.5273,17.6708 -31.4566,18.117 -31.3597,18.5586 -31.2371,18.9934 -31.1145,19.4282 -30.9664,19.8553 -30.7935,20.2727 -30.6206,20.69 -30.4233,21.0968 -30.2026,21.491 -29.9818,21.8851 -29.7381,22.2659 -29.4726,22.6313 -29.4726,22.6313 -20.1689,15.8718 -20.1689,15.8718"/>
<path fill="#98f5ff" stroke="black" stroke-width="0.5" d="M-20.1689,15.8718C-20.1689,15.8718 -29.4726,22.6313 -29.4726,22.6313 -29.1185,23.1187 -28.7266,23.5775 -28.3006,24.0035 -27.8746,24.4295 -27.4158,24.8214 -26.9284,25.1755 -26.441,25.5296 -25.9265,25.8449 -25.3898,26.1184 -24.853,26.3919 -24.2955,26.6228 -23.7226,26.809 -23.1496,26.9951 -22.5629,27.136 -21.9679,27.2302 -21.3728,27.3245 -20.7713,27.3718 -20.1689,27.3718 -19.5664,27.3718 -18.9649,27.3245 -18.3699,27.2302 -17.7748,27.136 -17.1881,26.9951 -16.6152,26.809 -16.0422,26.6228 -15.4848,26.3919 -14.948,26.1184 -14.4112,25.8449 -13.8967,25.5296 -13.4093,25.1755 -12.9219,24.8214 -12.4631,24.4295 -12.0371,24.0035 -11.6111,23.5775 -11.2193,23.1187 -10.8652,22.6313 -10.5111,22.144 -10.1958,21.6295 -9.9223,21.0927 -9.64879,20.5559 -9.41789,19.9985 -9.23172,19.4255 -9.04555,18.8525 -8.9047,18.2658 -8.81045,17.6708 -8.71621,17.0758 -8.66887,16.4743 -8.66887,15.8718 -8.66887,15.8718 -20.1689,15.8718 -20.1689,15.8718"/>
<ellipse fill="none" stroke="black" cx="-20.1689" cy="15.8718" rx="11.5" ry="11.5"/>
<text text-anchor="middle" x="-20.1689" y="18.3718" font-family="Times,serif" font-size="10.00">19</text>
</g>
<!-- 6&#45;&#45;19 -->
<g id="edge26" class="edge"><title>6&#45;&#45;19</title>
<path fill="none" stroke="black" d="M-31.3375,-36.144C-28.2323,-21.6819 -24.8213,-5.79615 -22.5962,4.56689"/>
</g>
<!-- 26 -->
<g id="node27" class="node"><title>26</title>
<ellipse fill="deepskyblue" stroke="black" cx="30.1566" cy="-94.2611" rx="5" ry="5"/>
<text text-anchor="middle" x="30.1566" y="-91.7611" font-family="Times,serif" font-size="10.00">26</text>
</g>
<!-- 6&#45;&#45;26 -->
<g id="edge27" class="edge"><title>6&#45;&#45;26</title>
<path fill="none" stroke="black" d="M-5.85169,-81.6338C6.3297,-85.9055 18.7812,-90.272 25.3739,-92.5839"/>
</g>
<!-- 31 -->
<g id="node32" class="node"><title>31</title>
<path fill="deepskyblue" stroke="black" stroke-width="0.5" d="M-107.935,-147.032C-107.935,-147.032 -95.435,-147.032 -95.435,-147.032 -95.435,-147.509 -95.4624,-147.986 -95.5169,-148.461 -95.5715,-148.935 -95.6531,-149.406 -95.7615,-149.871 -95.8699,-150.335 -96.0049,-150.794 -96.1657,-151.243 -96.3265,-151.693 -96.513,-152.133 -96.7241,-152.561 -96.9352,-152.989 -97.1707,-153.405 -97.4294,-153.806 -97.6881,-154.207 -97.9695,-154.593 -98.2724,-154.962 -98.5752,-155.331 -98.8989,-155.682 -99.242,-156.014 -99.585,-156.346 -99.9468,-156.658 -100.325,-156.949 -100.704,-157.24 -101.099,-157.508 -101.509,-157.754 -101.918,-157.999 -102.341,-158.221 -102.776,-158.418 -103.211,-158.615 -103.657,-158.787 -104.111,-158.933 -104.566,-159.079 -105.028,-159.199 -105.496,-159.292 -105.965,-159.385 -106.438,-159.451 -106.913,-159.49 -107.389,-159.529 -107.867,-159.541 -108.344,-159.525 -108.821,-159.51 -109.297,-159.467 -109.769,-159.397 -110.241,-159.327 -110.709,-159.23 -111.17,-159.106 -111.631,-158.983 -112.085,-158.833 -112.529,-158.657 -112.973,-158.482 -113.406,-158.281 -113.827,-158.056 -114.248,-157.831 -114.656,-157.582 -115.049,-157.31 -115.441,-157.039 -115.818,-156.745 -116.177,-156.43 -116.536,-156.115 -116.876,-155.78 -117.197,-155.427 -117.517,-155.073 -117.818,-154.701 -118.096,-154.313 -118.374,-153.925 -118.629,-153.521 -118.861,-153.104 -119.093,-152.687 -119.301,-152.257 -119.484,-151.816 -119.666,-151.375 -119.823,-150.923 -119.955,-150.464 -120.086,-150.005 -120.19,-149.539 -120.268,-149.068 -120.346,-148.597 -120.397,-148.122 -120.42,-147.645 -120.443,-147.169 -120.439,-146.691 -120.408,-146.215 -120.377,-145.738 -120.319,-145.264 -120.233,-144.794 -120.148,-144.325 -120.035,-143.86 -119.897,-143.404 -119.758,-142.947 -119.594,-142.498 -119.404,-142.06 -119.214,-141.622 -118.999,-141.196 -118.76,-140.782 -118.76,-140.782 -107.935,-147.032 -107.935,-147.032"/>
<path fill="#98f5ff" stroke="black" stroke-width="0.5" d="M-107.935,-147.032C-107.935,-147.032 -118.76,-140.782 -118.76,-140.782 -118.419,-140.191 -118.03,-139.629 -117.598,-139.102 -117.165,-138.575 -116.69,-138.084 -116.177,-137.634 -115.664,-137.184 -115.115,-136.777 -114.536,-136.417 -113.957,-136.057 -113.349,-135.745 -112.719,-135.484 -112.088,-135.223 -111.438,-135.014 -110.773,-134.859 -110.109,-134.704 -109.433,-134.603 -108.753,-134.559 -108.072,-134.514 -107.389,-134.525 -106.71,-134.592 -106.031,-134.659 -105.359,-134.781 -104.7,-134.958 -104.041,-135.135 -103.398,-135.365 -102.776,-135.646 -102.155,-135.928 -101.558,-136.26 -100.99,-136.639 -100.423,-137.018 -99.888,-137.442 -99.3901,-137.909 -98.8922,-138.375 -98.4334,-138.881 -98.0181,-139.423 -97.6028,-139.964 -97.2326,-140.538 -96.911,-141.14 -96.5894,-141.741 -96.3176,-142.368 -96.0984,-143.014 -95.8791,-143.66 -95.7131,-144.323 -95.602,-144.996 -95.4908,-145.669 -95.435,-146.35 -95.435,-147.032 -95.435,-147.032 -107.935,-147.032 -107.935,-147.032"/>
<ellipse fill="none" stroke="black" cx="-107.935" cy="-147.032" rx="12.5" ry="12.5"/>
<text text-anchor="middle" x="-107.935" y="-144.532" font-family="Times,serif" font-size="10.00">31</text>
</g>
<!-- 6&#45;&#45;31 -->
<g id="edge28" class="edge"><title>6&#45;&#45;31</title>
<path fill="none" stroke="black" d="M-62.0977,-96.1701C-74.9769,-110.461 -90.1663,-127.316 -99.4203,-137.584"/>
</g>
<!-- 48 -->
<g id="node49" class="node"><title>48</title>
<ellipse fill="brown" stroke="black" cx="-50.5544" cy="15.8294" rx="6" ry="6"/>
<text text-anchor="middle" x="-50.5544" y="18.3294" font-family="Times,serif" font-size="10.00">48</text>
</g>
<!-- 6&#45;&#45;48 -->
<g id="edge29" class="edge"><title>6&#45;&#45;48</title>
<path fill="none" stroke="black" d="M-43.4152,-35.6665C-45.7725,-18.6634 -48.3864,0.191095 -49.7006,9.6706"/>
</g>
<!-- 50 -->
<g id="node51" class="node"><title>50</title>
<ellipse fill="brown" stroke="black" cx="68.0899" cy="-16.4801" rx="8" ry="8"/>
<text text-anchor="middle" x="68.0899" y="-13.9801" font-family="Times,serif" font-size="10.00">50</text>
</g>
<!-- 6&#45;&#45;50 -->
<g id="edge30" class="edge"><title>6&#45;&#45;50</title>
<path fill="none" stroke="black" d="M-7.76672,-54.6172C15.8735,-42.732 46.7228,-27.2225 60.6699,-20.2106"/>
</g>
<!-- 57 -->
<g id="node58" class="node"><title>57</title>
<ellipse fill="black" stroke="black" cx="-143.635" cy="-140.229" rx="6" ry="6"/>
<text text-anchor="middle" x="-143.635" y="-137.729" font-family="Times,serif" font-size="10.00">57</text>
</g>
<!-- 8&#45;&#45;57 -->
<g id="edge31" class="edge"><title>8&#45;&#45;57</title>
<path fill="none" stroke="black" d="M-104.286,-119.266C-112.894,-123.851 -129.455,-132.675 -138.09,-137.275"/>
</g>
<!-- 9 -->
<g id="node10" class="node"><title>9</title>
<ellipse fill="deepskyblue" stroke="black" cx="35.6457" cy="-288.407" rx="3.5" ry="3.5"/>
<text text-anchor="middle" x="35.6457" y="-285.907" font-family="Times,serif" font-size="10.00">9</text>
</g>
<!-- 11 -->
<g id="node12" class="node"><title>11</title>
<ellipse fill="deepskyblue" stroke="black" cx="-76.6907" cy="56.543" rx="3.5" ry="3.5"/>
<text text-anchor="middle" x="-76.6907" y="59.043" font-family="Times,serif" font-size="10.00">11</text>
</g>
<!-- 12 -->
<g id="node13" class="node"><title>12</title>
<ellipse fill="deepskyblue" stroke="black" cx="112.294" cy="-251.485" rx="3.5" ry="3.5"/>
<text text-anchor="middle" x="112.294" y="-248.985" font-family="Times,serif" font-size="10.00">12</text>
</g>
<!-- 15 -->
<g id="node16" class="node"><title>15</title>
<path fill="deepskyblue" stroke="black" stroke-width="0.5" d="M55.2084,-230.909C55.2084,-230.909 73.2084,-230.909 73.2084,-230.909 73.2084,-231.757 73.1484,-232.605 73.0288,-233.445 72.9093,-234.285 72.7304,-235.116 72.4937,-235.93 72.257,-236.745 71.9629,-237.543 71.6137,-238.316 71.2645,-239.089 70.861,-239.837 70.4063,-240.554 69.9516,-241.27 69.4468,-241.953 68.8957,-242.599 68.3446,-243.244 67.7486,-243.849 67.112,-244.411 66.4755,-244.972 65.8001,-245.487 65.0908,-245.953 64.3816,-246.419 63.6403,-246.834 62.8724,-247.196 62.1046,-247.557 61.3122,-247.863 60.5011,-248.113 59.6901,-248.362 58.8624,-248.554 58.0242,-248.687 57.1861,-248.82 56.3396,-248.893 55.4911,-248.906 54.6427,-248.92 53.7943,-248.873 52.9524,-248.767 52.1105,-248.66 51.2772,-248.495 50.4587,-248.271 49.6402,-248.047 48.8385,-247.765 48.0598,-247.428 47.281,-247.091 46.527,-246.7 45.8034,-246.256 45.0799,-245.813 44.3886,-245.319 43.7348,-244.778 43.0809,-244.237 42.4662,-243.651 41.8951,-243.023 41.3239,-242.395 40.7979,-241.728 40.321,-241.026 39.844,-240.324 39.4172,-239.59 39.0439,-238.828 38.6706,-238.066 38.3516,-237.278 38.0894,-236.471 37.8272,-235.664 37.6223,-234.839 37.4764,-234.003 37.3306,-233.167 37.244,-232.322 37.2173,-231.474 37.1906,-230.626 37.224,-229.777 37.3171,-228.933 37.4102,-228.09 37.5629,-227.254 37.7739,-226.432 37.985,-225.61 38.2538,-224.804 38.5786,-224.02 38.9033,-223.236 39.2831,-222.476 39.7151,-221.746 40.147,-221.015 40.6301,-220.317 41.1607,-219.654 41.6912,-218.992 42.268,-218.368 42.8866,-217.787 43.5052,-217.206 44.1641,-216.67 44.8583,-216.182 45.5526,-215.694 46.2805,-215.256 47.0366,-214.871 47.7927,-214.485 48.5751,-214.154 49.3779,-213.879 50.1807,-213.604 51.002,-213.386 51.8356,-213.227 51.8356,-213.227 55.2084,-230.909 55.2084,-230.909"/>
<path fill="#98f5ff" stroke="black" stroke-width="0.5" d="M55.2084,-230.909C55.2084,-230.909 51.8356,-213.227 51.8356,-213.227 52.4838,-213.104 53.1383,-213.016 53.7962,-212.964 54.454,-212.912 55.1142,-212.897 55.7738,-212.918 56.4334,-212.938 57.0913,-212.995 57.7446,-213.088 58.398,-213.181 59.0457,-213.31 59.6848,-213.474 60.324,-213.638 60.9537,-213.837 61.571,-214.071 62.1883,-214.304 62.7923,-214.571 63.3802,-214.871 63.9682,-215.17 64.5393,-215.502 65.0908,-215.864 65.6424,-216.226 66.1736,-216.619 66.682,-217.039 67.1905,-217.46 67.6755,-217.908 68.1347,-218.382 68.5939,-218.856 69.0267,-219.355 69.4312,-219.876 69.8357,-220.398 70.2111,-220.941 70.5559,-221.504 70.9007,-222.066 71.2143,-222.648 71.4953,-223.245 71.7763,-223.842 72.0242,-224.454 72.238,-225.078 72.4517,-225.702 72.631,-226.338 72.7749,-226.982 72.9189,-227.626 73.0273,-228.278 73.0997,-228.933 73.1721,-229.589 73.2084,-230.249 73.2084,-230.909 73.2084,-230.909 55.2084,-230.909 55.2084,-230.909"/>
<ellipse fill="none" stroke="black" cx="55.2084" cy="-230.909" rx="18" ry="18"/>
<text text-anchor="middle" x="55.2084" y="-228.409" font-family="Times,serif" font-size="10.00">15</text>
</g>
<!-- 15&#45;&#45;9 -->
<g id="edge32" class="edge"><title>15&#45;&#45;9</title>
<path fill="none" stroke="black" d="M49.339,-248.16C44.9272,-261.127 39.2442,-277.83 36.8227,-284.947"/>
</g>
<!-- 15&#45;&#45;12 -->
<g id="edge33" class="edge"><title>15&#45;&#45;12</title>
<path fill="none" stroke="black" d="M72.336,-237.082C85.2099,-241.723 101.793,-247.7 108.86,-250.247"/>
</g>
<!-- 15&#45;&#45;14 -->
<g id="edge34" class="edge"><title>15&#45;&#45;14</title>
<path fill="none" stroke="black" d="M46.935,-214.578C39.273,-199.455 28.3113,-177.818 23.1684,-167.667"/>
</g>
<!-- anon_15_23_0 -->
<g id="node61" class="node"><title>anon_15_23_0</title>
<ellipse fill="white" stroke="black" cx="79.9208" cy="-291.406" rx="2.5" ry="2.5"/>
</g>
<!-- 15&#45;&#45;anon_15_23_0 -->
<g id="edge35" class="edge"><title>15&#45;&#45;anon_15_23_0</title>
<path fill="none" stroke="black" d="M62.0922,-247.761C68.0333,-262.305 76.0898,-282.028 78.9021,-288.913"/>
</g>
<!-- 16 -->
<g id="node17" class="node"><title>16</title>
<ellipse fill="#ff3030" stroke="black" cx="178.358" cy="140.476" rx="3.5" ry="3.5"/>
<text text-anchor="middle" x="178.358" y="142.976" font-family="Times,serif" font-size="10.00">16</text>
</g>
<!-- 16&#45;&#45;3 -->
<g id="edge38" class="edge"><title>16&#45;&#45;3</title>
<path fill="none" stroke="black" d="M179.924,137.203C182.889,131.006 189.6,116.98 196.014,103.575"/>
</g>
<!-- 18 -->
<g id="node19" class="node"><title>18</title>
<ellipse fill="deepskyblue" stroke="black" cx="287.494" cy="71.8262" rx="3.5" ry="3.5"/>
<text text-anchor="middle" x="287.494" y="74.3262" font-family="Times,serif" font-size="10.00">18</text>
</g>
<!-- 18&#45;&#45;3 -->
<g id="edge39" class="edge"><title>18&#45;&#45;3</title>
<path fill="none" stroke="black" d="M283.796,71.8636C276.678,71.9356 260.412,72.1001 245.041,72.2556"/>
</g>
<!-- 20 -->
<g id="node21" class="node"><title>20</title>
<ellipse fill="deepskyblue" stroke="black" cx="-218.035" cy="-244.879" rx="3.5" ry="3.5"/>
<text text-anchor="middle" x="-218.035" y="-242.379" font-family="Times,serif" font-size="10.00">20</text>
</g>
<!-- 23 -->
<g id="node24" class="node"><title>23</title>
<ellipse fill="deepskyblue" stroke="black" cx="106.514" cy="-375.039" rx="3.5" ry="3.5"/>
<text text-anchor="middle" x="106.514" y="-372.539" font-family="Times,serif" font-size="10.00">23</text>
</g>
<!-- 27 -->
<g id="node28" class="node"><title>27</title>
<ellipse fill="#ff3030" stroke="black" cx="-84.6724" cy="-232.28" rx="5" ry="5"/>
<text text-anchor="middle" x="-84.6724" y="-229.78" font-family="Times,serif" font-size="10.00">27</text>
</g>
<!-- anon_27_6_0 -->
<g id="node63" class="node"><title>anon_27_6_0</title>
<ellipse fill="white" stroke="black" cx="-67.5211" cy="-189.349" rx="2.5" ry="2.5"/>
</g>
<!-- 27&#45;&#45;anon_27_6_0 -->
<g id="edge40" class="edge"><title>27&#45;&#45;anon_27_6_0</title>
<path fill="none" stroke="black" d="M-82.7049,-227.356C-79.0445,-218.193 -71.3086,-198.83 -68.5362,-191.891"/>
</g>
<!-- 28 -->
<g id="node29" class="node"><title>28</title>
<ellipse fill="#ff3030" stroke="black" cx="-127.919" cy="23.4624" rx="3.5" ry="3.5"/>
<text text-anchor="middle" x="-127.919" y="25.9624" font-family="Times,serif" font-size="10.00">28</text>
</g>
<!-- 28&#45;&#45;13 -->
<g id="edge43" class="edge"><title>28&#45;&#45;13</title>
<path fill="none" stroke="black" d="M-124.985,21.3404C-118.48,16.6365 -102.714,5.23536 -93.711,-1.27551"/>
</g>
<!-- 29 -->
<g id="node30" class="node"><title>29</title>
<ellipse fill="deepskyblue" stroke="black" cx="161.243" cy="132.067" rx="3.5" ry="3.5"/>
<text text-anchor="middle" x="161.243" y="134.567" font-family="Times,serif" font-size="10.00">29</text>
</g>
<!-- 29&#45;&#45;3 -->
<g id="edge44" class="edge"><title>29&#45;&#45;3</title>
<path fill="none" stroke="black" d="M163.635,129.199C168.278,123.631 178.939,110.847 188.956,98.8356"/>
</g>
<!-- anon_31_20_0 -->
<g id="node65" class="node"><title>anon_31_20_0</title>
<ellipse fill="white" stroke="black" cx="-151.058" cy="-187.197" rx="2.5" ry="2.5"/>
</g>
<!-- 31&#45;&#45;anon_31_20_0 -->
<g id="edge45" class="edge"><title>31&#45;&#45;anon_31_20_0</title>
<path fill="none" stroke="black" d="M-117.505,-155.946C-127.828,-165.56 -143.526,-180.182 -149.05,-185.327"/>
</g>
<!-- 32 -->
<g id="node33" class="node"><title>32</title>
<ellipse fill="#ff3030" stroke="black" cx="-47.2909" cy="63.8761" rx="3.5" ry="3.5"/>
<text text-anchor="middle" x="-47.2909" y="66.3761" font-family="Times,serif" font-size="10.00">32</text>
</g>
<!-- 33 -->
<g id="node34" class="node"><title>33</title>
<ellipse fill="deepskyblue" stroke="black" cx="-22.6932" cy="70.2243" rx="3.5" ry="3.5"/>
<text text-anchor="middle" x="-22.6932" y="72.7243" font-family="Times,serif" font-size="10.00">33</text>
</g>
<!-- 33&#45;&#45;19 -->
<g id="edge48" class="edge"><title>33&#45;&#45;19</title>
<path fill="none" stroke="black" d="M-22.5275,66.6581C-22.1634,58.8172 -21.2797,39.7908 -20.7034,27.382"/>
</g>
<!-- 35 -->
<g id="node36" class="node"><title>35</title>
<ellipse fill="#ff3030" stroke="black" cx="179.01" cy="203.618" rx="3.5" ry="3.5"/>
<text text-anchor="middle" x="179.01" y="206.118" font-family="Times,serif" font-size="10.00">35</text>
</g>
<!-- anon_35_3_0 -->
<g id="node67" class="node"><title>anon_35_3_0</title>
<ellipse fill="white" stroke="black" cx="187.977" cy="159.018" rx="2.5" ry="2.5"/>
</g>
<!-- 35&#45;&#45;anon_35_3_0 -->
<g id="edge49" class="edge"><title>35&#45;&#45;anon_35_3_0</title>
<path fill="none" stroke="black" d="M179.714,200.118C181.464,191.411 185.982,168.939 187.484,161.472"/>
</g>
<!-- 37 -->
<g id="node38" class="node"><title>37</title>
<ellipse fill="#ff3030" stroke="black" cx="-32.4377" cy="-272.407" rx="3.5" ry="3.5"/>
<text text-anchor="middle" x="-32.4377" y="-269.907" font-family="Times,serif" font-size="10.00">37</text>
</g>
<!-- anon_37_2_0 -->
<g id="node68" class="node"><title>anon_37_2_0</title>
<ellipse fill="white" stroke="black" cx="-25.8679" cy="-228.341" rx="2.5" ry="2.5"/>
</g>
<!-- 37&#45;&#45;anon_37_2_0 -->
<g id="edge51" class="edge"><title>37&#45;&#45;anon_37_2_0</title>
<path fill="none" stroke="black" d="M-31.8775,-268.65C-30.5867,-259.992 -27.4262,-238.793 -26.2864,-231.148"/>
</g>
<!-- 38 -->
<g id="node39" class="node"><title>38</title>
<ellipse fill="#ff3030" stroke="black" cx="-203.407" cy="-108.504" rx="3.5" ry="3.5"/>
<text text-anchor="middle" x="-203.407" y="-106.004" font-family="Times,serif" font-size="10.00">38</text>
</g>
<!-- 38&#45;&#45;5 -->
<g id="edge53" class="edge"><title>38&#45;&#45;5</title>
<path fill="none" stroke="black" d="M-200.049,-106.968C-193.03,-103.759 -176.401,-96.157 -163.62,-90.3136"/>
</g>
<!-- 39 -->
<g id="node40" class="node"><title>39</title>
<ellipse fill="#ff3030" stroke="black" cx="-207.926" cy="-69.8415" rx="3.5" ry="3.5"/>
<text text-anchor="middle" x="-207.926" y="-67.3415" font-family="Times,serif" font-size="10.00">39</text>
</g>
<!-- 39&#45;&#45;5 -->
<g id="edge54" class="edge"><title>39&#45;&#45;5</title>
<path fill="none" stroke="black" d="M-204.298,-70.6087C-196.666,-72.2226 -178.513,-76.0614 -164.671,-78.9884"/>
</g>
<!-- 40 -->
<g id="node41" class="node"><title>40</title>
<ellipse fill="deepskyblue" stroke="black" cx="329.85" cy="6.27591" rx="3.5" ry="3.5"/>
<text text-anchor="middle" x="329.85" y="8.77591" font-family="Times,serif" font-size="10.00">40</text>
</g>
<!-- anon_40_3_0 -->
<g id="node69" class="node"><title>anon_40_3_0</title>
<ellipse fill="white" stroke="black" cx="289.537" cy="27.1046" rx="2.5" ry="2.5"/>
</g>
<!-- 40&#45;&#45;anon_40_3_0 -->
<g id="edge55" class="edge"><title>40&#45;&#45;anon_40_3_0</title>
<path fill="none" stroke="black" d="M326.687,7.9103C318.966,11.8998 299.267,22.0776 292.151,25.754"/>
</g>
<!-- 41&#45;&#45;50 -->
<g id="edge57" class="edge"><title>41&#45;&#45;50</title>
<path fill="none" stroke="black" d="M116.18,15.3674C108.181,10.0704 86.4193,-4.34147 75.1162,-11.8269"/>
</g>
<!-- 42 -->
<g id="node43" class="node"><title>42</title>
<ellipse fill="#1874cd" stroke="black" cx="323.662" cy="139.681" rx="3.5" ry="3.5"/>
<text text-anchor="middle" x="323.662" y="142.181" font-family="Times,serif" font-size="10.00">42</text>
</g>
<!-- 42&#45;&#45;46 -->
<g id="edge58" class="edge"><title>42&#45;&#45;46</title>
<path fill="none" stroke="black" d="M320.516,137.96C313.133,133.922 294.737,123.861 287.042,119.653"/>
</g>
<!-- 43 -->
<g id="node44" class="node"><title>43</title>
<ellipse fill="#1874cd" stroke="black" cx="256.837" cy="131.45" rx="3.5" ry="3.5"/>
<text text-anchor="middle" x="256.837" y="133.95" font-family="Times,serif" font-size="10.00">43</text>
</g>
<!-- 43&#45;&#45;3 -->
<g id="edge59" class="edge"><title>43&#45;&#45;3</title>
<path fill="none" stroke="black" d="M254.619,128.611C250.419,123.239 240.912,111.078 231.827,99.4558"/>
</g>
<!-- 45 -->
<g id="node46" class="node"><title>45</title>
<ellipse fill="#1874cd" stroke="black" cx="233.421" cy="202.127" rx="3.5" ry="3.5"/>
<text text-anchor="middle" x="233.421" y="204.627" font-family="Times,serif" font-size="10.00">45</text>
</g>
<!-- anon_45_3_0 -->
<g id="node70" class="node"><title>anon_45_3_0</title>
<ellipse fill="white" stroke="black" cx="222.677" cy="158.29" rx="2.5" ry="2.5"/>
</g>
<!-- 45&#45;&#45;anon_45_3_0 -->
<g id="edge60" class="edge"><title>45&#45;&#45;anon_45_3_0</title>
<path fill="none" stroke="black" d="M232.578,198.687C230.52,190.291 225.27,168.87 223.374,161.132"/>
</g>
<!-- 47 -->
<g id="node48" class="node"><title>47</title>
<ellipse fill="brown" stroke="black" cx="5.88713" cy="-19.3836" rx="3.5" ry="3.5"/>
<text text-anchor="middle" x="5.88713" y="-16.8836" font-family="Times,serif" font-size="10.00">47</text>
</g>
<!-- 47&#45;&#45;6 -->
<g id="edge62" class="edge"><title>47&#45;&#45;6</title>
<path fill="none" stroke="black" d="M3.49336,-22.1123C-0.263642,-26.395 -7.92113,-35.1239 -15.6899,-43.9797"/>
</g>
<!-- 48&#45;&#45;11 -->
<g id="edge63" class="edge"><title>48&#45;&#45;11</title>
<path fill="none" stroke="black" d="M-53.9713,21.1519C-59.5061,29.7737 -70.2596,46.5249 -74.6994,53.441"/>
</g>
<!-- 48&#45;&#45;32 -->
<g id="edge64" class="edge"><title>48&#45;&#45;32</title>
<path fill="none" stroke="black" d="M-50.1278,22.1106C-49.4367,32.2854 -48.0939,52.0537 -47.5396,60.2155"/>
</g>
<!-- 49 -->
<g id="node50" class="node"><title>49</title>
<ellipse fill="brown" stroke="black" cx="-138.61" cy="-17.0067" rx="3.5" ry="3.5"/>
<text text-anchor="middle" x="-138.61" y="-14.5067" font-family="Times,serif" font-size="10.00">49</text>
</g>
<!-- anon_49_6_0 -->
<g id="node71" class="node"><title>anon_49_6_0</title>
<ellipse fill="white" stroke="black" cx="-99.2547" cy="-35.2868" rx="2.5" ry="2.5"/>
</g>
<!-- 49&#45;&#45;anon_49_6_0 -->
<g id="edge65" class="edge"><title>49&#45;&#45;anon_49_6_0</title>
<path fill="none" stroke="black" d="M-135.255,-18.5653C-127.522,-22.157 -108.589,-30.951 -101.761,-34.1225"/>
</g>
<!-- 51 -->
<g id="node52" class="node"><title>51</title>
<ellipse fill="brown" stroke="black" cx="-103.265" cy="-79.7429" rx="3.5" ry="3.5"/>
<text text-anchor="middle" x="-103.265" y="-77.2429" font-family="Times,serif" font-size="10.00">51</text>
</g>
<!-- 51&#45;&#45;6 -->
<g id="edge67" class="edge"><title>51&#45;&#45;6</title>
<path fill="none" stroke="black" d="M-99.7902,-79.2264C-94.494,-78.4393 -83.8579,-76.8584 -72.9199,-75.2326"/>
</g>
<!-- 52 -->
<g id="node53" class="node"><title>52</title>
<ellipse fill="brown" stroke="black" cx="107.778" cy="-43.4082" rx="3.5" ry="3.5"/>
<text text-anchor="middle" x="107.778" y="-40.9082" font-family="Times,serif" font-size="10.00">52</text>
</g>
<!-- 52&#45;&#45;50 -->
<g id="edge68" class="edge"><title>52&#45;&#45;50</title>
<path fill="none" stroke="black" d="M104.664,-41.2952C98.3046,-36.9805 83.6937,-27.0672 74.9861,-21.1591"/>
</g>
<!-- 53 -->
<g id="node54" class="node"><title>53</title>
<ellipse fill="brown" stroke="black" cx="94.673" cy="-57.4078" rx="3.5" ry="3.5"/>
<text text-anchor="middle" x="94.673" y="-54.9078" font-family="Times,serif" font-size="10.00">53</text>
</g>
<!-- 53&#45;&#45;50 -->
<g id="edge69" class="edge"><title>53&#45;&#45;50</title>
<path fill="none" stroke="black" d="M92.7612,-54.4644C88.5708,-48.0126 78.4811,-32.4786 72.5843,-23.3998"/>
</g>
<!-- 54 -->
<g id="node55" class="node"><title>54</title>
<ellipse fill="brown" stroke="black" cx="19.8641" cy="-110.843" rx="3.5" ry="3.5"/>
<text text-anchor="middle" x="19.8641" y="-108.343" font-family="Times,serif" font-size="10.00">54</text>
</g>
<!-- 54&#45;&#45;6 -->
<g id="edge70" class="edge"><title>54&#45;&#45;6</title>
<path fill="none" stroke="black" d="M16.7189,-108.655C11.4977,-105.022 0.54311,-97.3991 -10.2537,-89.8864"/>
</g>
<!-- anon_15_23_1 -->
<g id="node62" class="node"><title>anon_15_23_1</title>
<ellipse fill="white" stroke="black" cx="94.054" cy="-333.197" rx="2.5" ry="2.5"/>
</g>
<!-- anon_15_23_0&#45;&#45;anon_15_23_1 -->
<g id="edge36" class="edge"><title>anon_15_23_0&#45;&#45;anon_15_23_1</title>
<path fill="none" stroke="black" d="M80.8481,-294.148C83.4519,-301.848 90.7997,-323.574 93.2485,-330.815"/>
</g>
<!-- anon_15_23_1&#45;&#45;23 -->
<g id="edge37" class="edge"><title>anon_15_23_1&#45;&#45;23</title>
<path fill="none" stroke="black" d="M94.8715,-335.942C97.0372,-343.214 102.925,-362.986 105.397,-371.288"/>
</g>
<!-- anon_27_6_1 -->
<g id="node64" class="node"><title>anon_27_6_1</title>
<ellipse fill="white" stroke="black" cx="-53.6186" cy="-147.296" rx="2.5" ry="2.5"/>
</g>
<!-- anon_27_6_0&#45;&#45;anon_27_6_1 -->
<g id="edge41" class="edge"><title>anon_27_6_0&#45;&#45;anon_27_6_1</title>
<path fill="none" stroke="black" d="M-66.6089,-186.59C-64.0476,-178.843 -56.8198,-156.98 -54.411,-149.693"/>
</g>
<!-- anon_27_6_1&#45;&#45;6 -->
<g id="edge42" class="edge"><title>anon_27_6_1&#45;&#45;6</title>
<path fill="none" stroke="black" d="M-53.1201,-144.729C-51.8609,-138.244 -48.4234,-120.541 -45.2133,-104.008"/>
</g>
<!-- anon_31_20_1 -->
<g id="node66" class="node"><title>anon_31_20_1</title>
<ellipse fill="white" stroke="black" cx="-184.537" cy="-216.485" rx="2.5" ry="2.5"/>
</g>
<!-- anon_31_20_0&#45;&#45;anon_31_20_1 -->
<g id="edge46" class="edge"><title>anon_31_20_0&#45;&#45;anon_31_20_1</title>
<path fill="none" stroke="black" d="M-153.255,-189.119C-159.423,-194.514 -176.828,-209.741 -182.629,-214.815"/>
</g>
<!-- anon_31_20_1&#45;&#45;20 -->
<g id="edge47" class="edge"><title>anon_31_20_1&#45;&#45;20</title>
<path fill="none" stroke="black" d="M-186.735,-218.348C-192.557,-223.283 -208.386,-236.7 -215.032,-242.334"/>
</g>
<!-- anon_35_3_0&#45;&#45;3 -->
<g id="edge50" class="edge"><title>anon_35_3_0&#45;&#45;3</title>
<path fill="none" stroke="black" d="M188.636,156.525C190.627,148.998 196.768,125.783 202.087,105.673"/>
</g>
<!-- anon_37_2_0&#45;&#45;2 -->
<g id="edge52" class="edge"><title>anon_37_2_0&#45;&#45;2</title>
<path fill="none" stroke="black" d="M-25.8021,-225.82C-25.6153,-218.67 -25.0719,-197.861 -24.7017,-183.686"/>
</g>
<!-- anon_40_3_0&#45;&#45;3 -->
<g id="edge56" class="edge"><title>anon_40_3_0&#45;&#45;3</title>
<path fill="none" stroke="black" d="M287.267,28.4172C280.361,32.4093 258.957,44.7826 240.55,55.4234"/>
</g>
<!-- anon_45_3_0&#45;&#45;3 -->
<g id="edge61" class="edge"><title>anon_45_3_0&#45;&#45;3</title>
<path fill="none" stroke="black" d="M222.283,155.439C221.223,147.773 218.213,125.988 215.544,106.683"/>
</g>
<!-- anon_49_6_0&#45;&#45;6 -->
<g id="edge66" class="edge"><title>anon_49_6_0&#45;&#45;6</title>
<path fill="none" stroke="black" d="M-96.9524,-36.6104C-92.1082,-39.3955 -80.3406,-46.1608 -68.6348,-52.8906"/>
</g>
</g>
</svg>
