<?xml version="1.0" encoding="UTF-8" standalone="no"?>
<!DOCTYPE svg PUBLIC "-//W3C//DTD SVG 1.1//EN"
 "http://www.w3.org/Graphics/SVG/1.1/DTD/svg11.dtd">
<!-- Generated by graphviz version 2.38.0 (20140413.2041)
 -->
<!-- Title: %3 Pages: 1 -->
<svg width="144pt" height="147pt"
 viewBox="0.00 0.00 144.32 146.61" xmlns="http://www.w3.org/2000/svg" xmlns:xlink="http://www.w3.org/1999/xlink">
<g id="graph0" class="graph" transform="scale(1 1) rotate(0) translate(72.878 99.3212)">
<title>%3</title>
<polygon fill="white" stroke="none" points="-72.878,47.2889 -72.878,-99.3212 71.4462,-99.3212 71.4462,47.2889 -72.878,47.2889"/>
<!-- 0 -->
<g id="node1" class="node"><title>0</title>
<ellipse fill="#1874cd" stroke="black" cx="-0.714527" cy="-26.0149" rx="11.5" ry="11.5"/>
</g>
<!-- 2 -->
<g id="node3" class="node"><title>2</title>
<ellipse fill="#1874cd" stroke="black" cx="35.7636" cy="9.82201" rx="3.5" ry="3.5"/>
</g>
<!-- 0&#45;&#45;2 -->
<g id="edge3" class="edge"><title>0&#45;&#45;2</title>
<path fill="none" stroke="black" d="M7.74598,-17.7031C15.9964,-9.59778 28.0368,2.23099 33.2275,7.33048"/>
</g>
<!-- 3 -->
<g id="node4" class="node"><title>3</title>
<ellipse fill="#1874cd" stroke="black" cx="-37.1887" cy="-61.8559" rx="3.5" ry="3.5"/>
</g>
<!-- 0&#45;&#45;3 -->
<g id="edge4" class="edge"><title>0&#45;&#45;3</title>
<path fill="none" stroke="black" d="M-9.17411,-34.3277C-17.4236,-42.4339 -29.4627,-54.264 -34.6529,-59.3641"/>
</g>
<!-- anon_0_1_0 -->
<g id="node6" class="node"><title>anon_0_1_0</title>
<ellipse fill="white" stroke="black" cx="34.3857" cy="-61.7382" rx="2.5" ry="2.5"/>
</g>
<!-- 0&#45;&#45;anon_0_1_0 -->
<g id="edge1" class="edge"><title>0&#45;&#45;anon_0_1_0</title>
<path fill="none" stroke="black" d="M7.4264,-34.3004C15.6892,-42.7098 27.9026,-55.14 32.5234,-59.8428"/>
</g>
<!-- anon_0_4_0 -->
<g id="node7" class="node"><title>anon_0_4_0</title>
<ellipse fill="white" stroke="black" cx="-35.8172" cy="9.70615" rx="2.5" ry="2.5"/>
</g>
<!-- 0&#45;&#45;anon_0_4_0 -->
<g id="edge5" class="edge"><title>0&#45;&#45;anon_0_4_0</title>
<path fill="none" stroke="black" d="M-8.85601,-17.73C-17.1194,-9.32109 -29.3336,3.10834 -33.9547,7.81085"/>
</g>
<!-- 1 -->
<g id="node2" class="node"><title>1</title>
<ellipse fill="#1874cd" stroke="black" cx="63.9462" cy="-91.8212" rx="3.5" ry="3.5"/>
</g>
<!-- 4 -->
<g id="node5" class="node"><title>4</title>
<ellipse fill="#1874cd" stroke="black" cx="-65.378" cy="39.7889" rx="3.5" ry="3.5"/>
</g>
<!-- anon_0_1_0&#45;&#45;1 -->
<g id="edge2" class="edge"><title>anon_0_1_0&#45;&#45;1</title>
<path fill="none" stroke="black" d="M36.3253,-63.712C41.4631,-68.9407 55.4316,-83.1561 61.2969,-89.1251"/>
</g>
<!-- anon_0_4_0&#45;&#45;4 -->
<g id="edge6" class="edge"><title>anon_0_4_0&#45;&#45;4</title>
<path fill="none" stroke="black" d="M-37.7568,11.68C-42.8946,16.9086 -56.8633,31.1238 -62.7287,37.0928"/>
</g>
</g>
</svg>
