<?xml version="1.0" encoding="UTF-8" standalone="no"?>
<!DOCTYPE svg PUBLIC "-//W3C//DTD SVG 1.1//EN"
 "http://www.w3.org/Graphics/SVG/1.1/DTD/svg11.dtd">
<!-- Generated by graphviz version 2.38.0 (20140413.2041)
 -->
<!-- Title: %3 Pages: 1 -->
<svg width="444pt" height="452pt"
 viewBox="0.00 0.00 444.00 451.72" xmlns="http://www.w3.org/2000/svg" xmlns:xlink="http://www.w3.org/1999/xlink">
<g id="graph0" class="graph" transform="scale(1 1) rotate(0) translate(204.987 216.574)">
<title>%3</title>
<polygon fill="white" stroke="none" points="-204.987,235.151 -204.987,-216.574 239.013,-216.574 239.013,235.151 -204.987,235.151"/>
<!-- 0 -->
<g id="node1" class="node"><title>0</title>
<path fill="#1874cd" stroke="black" stroke-width="0.5" d="M89.1265,-10.6425C89.1265,-10.6425 101.126,-10.6425 101.126,-10.6425 101.126,-11.214 101.086,-11.7847 101.004,-12.3503 100.923,-12.9159 100.801,-13.475 100.64,-14.0233 100.479,-14.5716 100.279,-15.1077 100.042,-15.6275 99.8047,-16.1473 99.5305,-16.6495 99.2215,-17.1302 98.9126,-17.611 98.5697,-18.069 98.1955,-18.5009 97.8213,-18.9327 97.4167,-19.3373 96.9848,-19.7115 96.5529,-20.0858 96.0949,-20.4286 95.6142,-20.7376 95.1334,-21.0465 94.6313,-21.3207 94.1115,-21.5581 93.5917,-21.7955 93.0556,-21.9955 92.5073,-22.1565 91.959,-22.3175 91.3999,-22.4391 90.8343,-22.5204 90.2686,-22.6017 89.6979,-22.6425 89.1265,-22.6425 88.555,-22.6425 87.9843,-22.6017 87.4187,-22.5204 86.8531,-22.4391 86.294,-22.3175 85.7457,-22.1565 85.1974,-21.9955 84.6613,-21.7955 84.1415,-21.5581 83.6217,-21.3207 83.1195,-21.0465 82.6388,-20.7376 82.1581,-20.4286 81.7,-20.0858 81.2682,-19.7115 80.8363,-19.3373 80.4317,-18.9327 80.0575,-18.5009 79.6833,-18.069 79.3404,-17.611 79.0314,-17.1302 78.7225,-16.6495 78.4483,-16.1473 78.2109,-15.6275 77.9735,-15.1077 77.7736,-14.5716 77.6126,-14.0233 77.4516,-13.475 77.3299,-12.9159 77.2486,-12.3503 77.1673,-11.7847 77.1265,-11.214 77.1265,-10.6425 77.1265,-10.0711 77.1673,-9.50039 77.2486,-8.93476 77.3299,-8.36914 77.4516,-7.81005 77.6126,-7.26175 77.7736,-6.71346 77.9735,-6.17736 78.2109,-5.65756 78.4483,-5.13776 78.7225,-4.63558 79.0314,-4.15485 79.3404,-3.67413 79.6833,-3.21608 80.0575,-2.78421 80.4317,-2.35235 80.8363,-1.94776 81.2682,-1.57355 81.7,-1.19933 82.1581,-0.856445 82.6388,-0.5475 83.1195,-0.238556 83.6217,0.035656 84.1415,0.273041 84.6613,0.510426 85.1974,0.710379 85.7457,0.871373 86.294,1.03237 86.8531,1.15399 87.4187,1.23531 87.4187,1.23531 89.1265,-10.6425 89.1265,-10.6425"/>
<path fill="olivedrab" stroke="black" stroke-width="0.5" d="M89.1265,-10.6425C89.1265,-10.6425 87.4187,1.23531 87.4187,1.23531 87.8428,1.2963 88.2699,1.33452 88.6982,1.34981 89.1264,1.3651 89.5551,1.35745 89.9826,1.32688 90.41,1.29631 90.8354,1.24287 91.2571,1.16679 91.6788,1.09071 92.0961,0.992095 92.5073,0.871372 92.9184,0.750649 93.3228,0.607991 93.7187,0.444011 94.1146,0.28003 94.5014,0.0949629 94.8775,-0.110396 95.2536,-0.315755 95.6184,-0.541111 95.9704,-0.785495 96.3223,-1.02988 96.661,-1.29294 96.9848,-1.57355 97.3087,-1.85416 97.6172,-2.15191 97.9092,-2.46553 98.2012,-2.77915 98.4762,-3.10818 98.733,-3.45121 98.9898,-3.79424 99.228,-4.15079 99.4467,-4.5193 99.6653,-4.88782 99.8641,-5.26779 100.042,-5.65756 100.22,-6.04734 100.377,-6.44638 100.512,-6.85295 100.648,-7.25952 100.761,-7.67305 100.852,-8.09176 100.943,-8.51047 101.012,-8.93376 101.058,-9.3598 101.104,-9.78585 101.126,-10.214 101.126,-10.6425 101.126,-10.6425 89.1265,-10.6425 89.1265,-10.6425"/>
<ellipse fill="none" stroke="black" cx="89.1265" cy="-10.6425" rx="12" ry="12"/>
</g>
<!-- 8 -->
<g id="node9" class="node"><title>8</title>
<ellipse fill="olivedrab" stroke="black" cx="118.608" cy="45.2958" rx="3.5" ry="3.5"/>
</g>
<!-- 0&#45;&gt;8 -->
<g id="edge2" class="edge"><title>0&#45;&gt;8</title>
<path fill="none" stroke="black" d="M94.8107,0.142933C101.637,13.0962 112.695,34.0777 116.906,42.067"/>
</g>
<!-- 1 -->
<g id="node2" class="node"><title>1</title>
<path fill="#1874cd" stroke="black" stroke-width="0.5" d="M53.3095,-61.4431C53.3095,-61.4431 67.3095,-61.4431 67.3095,-61.4431 67.3095,-62.2989 67.2311,-63.1529 67.0751,-63.9944 66.9191,-64.8359 66.6864,-65.6613 66.3797,-66.4603 66.073,-67.2592 65.6937,-68.0284 65.2465,-68.7581 64.7993,-69.4878 64.2862,-70.1749 63.7136,-70.8109 63.1409,-71.4469 62.5112,-72.0291 61.8322,-72.5501 61.1532,-73.071 60.4279,-73.5287 59.6654,-73.9172 58.9029,-74.3057 58.1063,-74.6235 57.2858,-74.8666 56.4652,-75.1096 55.6241,-75.277 54.7729,-75.3664 53.9218,-75.4559 53.0643,-75.4671 52.2111,-75.3999 51.3579,-75.3328 50.5127,-75.1876 49.6861,-74.9661 48.8594,-74.7446 48.0548,-74.4477 47.2824,-74.0793 46.5099,-73.7109 45.7729,-73.2724 45.0805,-72.7693 44.3882,-72.2663 43.7434,-71.7009 43.1543,-71.0801 42.5652,-70.4593 42.0343,-69.7858 41.5681,-69.0681 41.102,-68.3503 40.7027,-67.5913 40.3752,-66.8007 40.0477,-66.01 39.7934,-65.191 39.6155,-64.3539 39.6155,-64.3539 53.3095,-61.4431 53.3095,-61.4431"/>
<path fill="olivedrab" stroke="black" stroke-width="0.5" d="M53.3095,-61.4431C53.3095,-61.4431 39.6155,-64.3539 39.6155,-64.3539 39.5138,-63.8757 39.4373,-63.3926 39.3862,-62.9065 39.3351,-62.4204 39.3095,-61.9319 39.3095,-61.4431 39.3095,-60.9543 39.3351,-60.4658 39.3862,-59.9797 39.4373,-59.4936 39.5138,-59.0105 39.6155,-58.5323 39.7171,-58.0542 39.8437,-57.5817 39.9947,-57.1169 40.1458,-56.652 40.3211,-56.1953 40.5199,-55.7488 40.7187,-55.3022 40.9408,-54.8664 41.1852,-54.4431 41.4296,-54.0198 41.696,-53.6096 41.9833,-53.2141 42.2706,-52.8187 42.5784,-52.4385 42.9055,-52.0753 43.2326,-51.712 43.5785,-51.3662 43.9417,-51.0391 44.305,-50.712 44.6851,-50.4042 45.0805,-50.1169 45.476,-49.8296 45.8862,-49.5632 46.3095,-49.3188 46.7329,-49.0743 47.1687,-48.8523 47.6152,-48.6535 48.0618,-48.4547 48.5184,-48.2794 48.9833,-48.1283 49.4482,-47.9773 49.9207,-47.8507 50.3988,-47.749 50.8769,-47.6474 51.36,-47.5709 51.8461,-47.5198 52.3323,-47.4687 52.8207,-47.4431 53.3095,-47.4431 53.7983,-47.4431 54.2868,-47.4687 54.7729,-47.5198 55.2591,-47.5709 55.7422,-47.6474 56.2203,-47.749 56.6984,-47.8507 57.1709,-47.9773 57.6358,-48.1283 58.1007,-48.2794 58.5573,-48.4547 59.0039,-48.6535 59.4504,-48.8523 59.8862,-49.0743 60.3095,-49.3188 60.7329,-49.5632 61.1431,-49.8296 61.5385,-50.1169 61.934,-50.4042 62.3141,-50.712 62.6774,-51.0391 63.0406,-51.3662 63.3865,-51.712 63.7136,-52.0753 64.0406,-52.4385 64.3485,-52.8187 64.6358,-53.2141 64.9231,-53.6096 65.1895,-54.0198 65.4339,-54.4431 65.6783,-54.8664 65.9004,-55.3022 66.0992,-55.7488 66.298,-56.1953 66.4733,-56.652 66.6243,-57.1169 66.7754,-57.5817 66.902,-58.0542 67.0036,-58.5323 67.1052,-59.0105 67.1818,-59.4936 67.2328,-59.9797 67.2839,-60.4658 67.3095,-60.9543 67.3095,-61.4431 67.3095,-61.4431 53.3095,-61.4431 53.3095,-61.4431"/>
<ellipse fill="none" stroke="black" cx="53.3095" cy="-61.4431" rx="14" ry="14"/>
</g>
<!-- 1&#45;&gt;0 -->
<g id="edge1" class="edge"><title>1&#45;&gt;0</title>
<path fill="none" stroke="black" d="M61.437,-49.9157C66.6614,-42.5057 73.4878,-32.8235 79.0553,-24.9269"/>
<polygon fill="black" stroke="black" points="80.5498,-25.8442 82.0007,-20.7493 77.6892,-23.8274 80.5498,-25.8442"/>
<text text-anchor="middle" x="54.2461" y="-31.0213" font-family="monospace" font-size="8.00">F1920S</text>
</g>
<!-- 2 -->
<g id="node3" class="node"><title>2</title>
<ellipse fill="#1874cd" stroke="black" cx="123.727" cy="-57.1205" rx="6" ry="6"/>
</g>
<!-- 1&#45;&gt;2 -->
<g id="edge3" class="edge"><title>1&#45;&gt;2</title>
<path fill="none" stroke="black" d="M67.5596,-60.5684C82.831,-59.6309 106.373,-58.1858 117.497,-57.5029"/>
</g>
<!-- 5 -->
<g id="node6" class="node"><title>5</title>
<ellipse fill="olivedrab" stroke="black" cx="53.0478" cy="-18.9084" rx="3.5" ry="3.5"/>
</g>
<!-- 1&#45;&gt;5 -->
<g id="edge7" class="edge"><title>1&#45;&gt;5</title>
<path fill="none" stroke="black" d="M53.2209,-47.0428C53.1817,-40.6711 53.1369,-33.3782 53.1026,-27.8143"/>
<polygon fill="black" stroke="black" points="54.8512,-27.57 53.0704,-22.5809 51.3513,-27.5916 54.8512,-27.57"/>
<text text-anchor="middle" x="39.6618" y="-40.0286" font-family="monospace" font-size="8.00">R537L</text>
</g>
<!-- 6 -->
<g id="node7" class="node"><title>6</title>
<ellipse fill="olivedrab" stroke="black" cx="53.0184" cy="-105.413" rx="3.5" ry="3.5"/>
</g>
<!-- 1&#45;&gt;6 -->
<g id="edge8" class="edge"><title>1&#45;&gt;6</title>
<path fill="none" stroke="black" d="M53.2142,-75.8404C53.1684,-82.7531 53.1151,-90.8064 53.0757,-96.7619"/>
<polygon fill="black" stroke="black" points="51.3249,-96.8867 53.0417,-101.898 54.8248,-96.9099 51.3249,-96.8867"/>
<text text-anchor="middle" x="37.145" y="-88.9012" font-family="monospace" font-size="8.00">H1755Y</text>
</g>
<!-- 7 -->
<g id="node8" class="node"><title>7</title>
<ellipse fill="olivedrab" stroke="black" cx="11.3129" cy="-114.22" rx="3.5" ry="3.5"/>
</g>
<!-- 1&#45;&gt;7 -->
<g id="edge9" class="edge"><title>1&#45;&gt;7</title>
<path fill="none" stroke="black" d="M44.4031,-72.6358C34.5795,-84.9811 19.3996,-104.058 13.6382,-111.298"/>
</g>
<!-- 9 -->
<g id="node10" class="node"><title>9</title>
<ellipse fill="olivedrab" stroke="black" cx="-3.26568" cy="-85.7774" rx="3.5" ry="3.5"/>
</g>
<!-- 1&#45;&gt;9 -->
<g id="edge10" class="edge"><title>1&#45;&gt;9</title>
<path fill="none" stroke="black" d="M40.1878,-67.0871C29.2731,-71.7818 14.0813,-78.3161 4.85428,-82.2849"/>
<polygon fill="black" stroke="black" points="4.08985,-80.7086 0.188191,-84.2919 5.47283,-83.9238 4.08985,-80.7086"/>
<text text-anchor="middle" x="9.02106" y="-68.286" font-family="monospace" font-size="8.00">K251R</text>
</g>
<!-- anon_1_3_0 -->
<g id="node18" class="node"><title>anon_1_3_0</title>
<ellipse fill="white" stroke="black" cx="78.9793" cy="-124.728" rx="2.5" ry="2.5"/>
</g>
<!-- 1&#45;&gt;anon_1_3_0 -->
<g id="edge4" class="edge"><title>1&#45;&gt;anon_1_3_0</title>
<path fill="none" stroke="black" d="M58.6283,-74.5558C64.8548,-89.9063 74.7252,-114.24 77.9342,-122.151"/>
</g>
<!-- anon_1_16_0 -->
<g id="node20" class="node"><title>anon_1_16_0</title>
<ellipse fill="white" stroke="black" cx="-5.85111" cy="-26.5722" rx="2.5" ry="2.5"/>
</g>
<!-- 1&#45;&gt;anon_1_16_0 -->
<g id="edge11" class="edge"><title>1&#45;&gt;anon_1_16_0</title>
<path fill="none" stroke="black" d="M41.0514,-54.2178C26.7012,-45.7595 3.95321,-32.3512 -3.44251,-27.9919"/>
</g>
<!-- anon_2_4_0 -->
<g id="node23" class="node"><title>anon_2_4_0</title>
<ellipse fill="white" stroke="black" cx="170.722" cy="-39.1309" rx="2.5" ry="2.5"/>
</g>
<!-- 2&#45;&gt;anon_2_4_0 -->
<g id="edge15" class="edge"><title>2&#45;&gt;anon_2_4_0</title>
<path fill="none" stroke="black" d="M129.49,-54.9146C139.686,-51.0116 160.533,-43.0313 167.993,-40.1759"/>
</g>
<!-- 3 -->
<g id="node4" class="node"><title>3</title>
<ellipse fill="#1874cd" stroke="black" cx="59.4076" cy="-209.074" rx="3.5" ry="3.5"/>
</g>
<!-- 4 -->
<g id="node5" class="node"><title>4</title>
<ellipse fill="#1874cd" stroke="black" cx="231.513" cy="22.0299" rx="3.5" ry="3.5"/>
</g>
<!-- 10 -->
<g id="node11" class="node"><title>10</title>
<ellipse fill="#1874cd" stroke="black" cx="-83.8934" cy="175.449" rx="21.5" ry="21.5"/>
</g>
<!-- 14 -->
<g id="node15" class="node"><title>14</title>
<ellipse fill="#1874cd" stroke="black" cx="-26.1642" cy="218.632" rx="3.5" ry="3.5"/>
</g>
<!-- 10&#45;&gt;14 -->
<g id="edge18" class="edge"><title>10&#45;&gt;14</title>
<path fill="none" stroke="black" d="M-66.5728,188.405C-53.288,198.343 -36.0973,211.202 -29.212,216.352"/>
</g>
<!-- 15 -->
<g id="node16" class="node"><title>15</title>
<ellipse fill="#1874cd" stroke="black" cx="-109.721" cy="227.651" rx="3.5" ry="3.5"/>
</g>
<!-- 10&#45;&gt;15 -->
<g id="edge19" class="edge"><title>10&#45;&gt;15</title>
<path fill="none" stroke="black" d="M-93.5106,194.887C-98.9032,205.787 -105.118,218.347 -108.039,224.251"/>
</g>
<!-- 11 -->
<g id="node12" class="node"><title>11</title>
<ellipse fill="#1874cd" stroke="black" cx="-148.193" cy="56.1982" rx="9" ry="9"/>
</g>
<!-- 13 -->
<g id="node14" class="node"><title>13</title>
<ellipse fill="#1874cd" stroke="black" cx="-197.487" cy="38.0797" rx="3.5" ry="3.5"/>
</g>
<!-- 11&#45;&gt;13 -->
<g id="edge22" class="edge"><title>11&#45;&gt;13</title>
<path fill="none" stroke="black" d="M-156.78,53.0422C-167.813,48.9867 -186.452,42.1355 -194.079,39.3322"/>
</g>
<!-- 12 -->
<g id="node13" class="node"><title>12</title>
<ellipse fill="#1874cd" stroke="black" cx="-69.068" cy="100.494" rx="9" ry="9"/>
</g>
<!-- 16 -->
<g id="node17" class="node"><title>16</title>
<ellipse fill="white" stroke="black" cx="-101.786" cy="66.2371" rx="2.5" ry="2.5"/>
</g>
<!-- 16&#45;&gt;11 -->
<g id="edge23" class="edge"><title>16&#45;&gt;11</title>
<path fill="none" stroke="black" d="M-104.281,65.6973C-109.846,64.4934 -123.624,61.5129 -134.276,59.2088"/>
<polygon fill="black" stroke="black" points="-134.687,60.9104 -139.204,58.1427 -133.947,57.4895 -134.687,60.9104"/>
<text text-anchor="middle" x="-103.278" y="59.8531" font-family="monospace" font-size="8.00">S1683I</text>
</g>
<!-- 16&#45;&gt;12 -->
<g id="edge24" class="edge"><title>16&#45;&gt;12</title>
<path fill="none" stroke="black" d="M-100.026,68.0789C-96.1026,72.1873 -86.389,82.358 -78.8797,90.2207"/>
<polygon fill="black" stroke="black" points="-77.5932,89.0339 -75.4054,93.8585 -80.1243,91.4513 -77.5932,89.0339"/>
<text text-anchor="middle" x="-102.953" y="76.5498" font-family="monospace" font-size="8.00">G317S</text>
</g>
<!-- anon_10_16_0 -->
<g id="node25" class="node"><title>anon_10_16_0</title>
<ellipse fill="white" stroke="black" cx="-105.922" cy="119.605" rx="2.5" ry="2.5"/>
</g>
<!-- 16&#45;&gt;anon_10_16_0 -->
<g id="edge21" class="edge"><title>16&#45;&gt;anon_10_16_0</title>
<path fill="none" stroke="black" d="M-101.985,68.8111C-102.579,76.4708 -104.352,99.346 -105.303,111.618"/>
<polygon fill="black" stroke="black" points="-103.583,112.082 -105.715,116.931 -107.073,111.811 -103.583,112.082"/>
<text text-anchor="middle" x="-119.644" y="87.6143" font-family="monospace" font-size="8.00">I1940T</text>
</g>
<!-- anon_1_3_1 -->
<g id="node19" class="node"><title>anon_1_3_1</title>
<ellipse fill="white" stroke="black" cx="75.3514" cy="-170.068" rx="2.5" ry="2.5"/>
</g>
<!-- anon_1_3_0&#45;&gt;anon_1_3_1 -->
<g id="edge5" class="edge"><title>anon_1_3_0&#45;&gt;anon_1_3_1</title>
<path fill="none" stroke="black" d="M78.7632,-127.428C78.1164,-135.512 76.2011,-159.449 75.5618,-167.439"/>
</g>
<!-- anon_1_3_1&#45;&gt;3 -->
<g id="edge6" class="edge"><title>anon_1_3_1&#45;&gt;3</title>
<path fill="none" stroke="black" d="M74.3053,-172.627C71.5341,-179.407 64.0001,-197.838 60.8366,-205.578"/>
</g>
<!-- anon_1_16_1 -->
<g id="node21" class="node"><title>anon_1_16_1</title>
<ellipse fill="white" stroke="black" cx="-44.2377" cy="-0.945057" rx="2.5" ry="2.5"/>
</g>
<!-- anon_1_16_0&#45;&gt;anon_1_16_1 -->
<g id="edge12" class="edge"><title>anon_1_16_0&#45;&gt;anon_1_16_1</title>
<path fill="none" stroke="black" d="M-8.36977,-24.8908C-15.4419,-20.1693 -35.3987,-6.84602 -42.05,-2.40561"/>
</g>
<!-- anon_1_16_2 -->
<g id="node22" class="node"><title>anon_1_16_2</title>
<ellipse fill="white" stroke="black" cx="-76.4081" cy="33.7913" rx="2.5" ry="2.5"/>
</g>
<!-- anon_1_16_1&#45;&gt;anon_1_16_2 -->
<g id="edge13" class="edge"><title>anon_1_16_1&#45;&gt;anon_1_16_2</title>
<path fill="none" stroke="black" d="M-45.9673,0.922519C-51.501,6.89752 -68.7455,25.5175 -74.5099,31.7416"/>
</g>
<!-- anon_1_16_2&#45;&gt;16 -->
<g id="edge14" class="edge"><title>anon_1_16_2&#45;&gt;16</title>
<path fill="none" stroke="black" d="M-78.0732,35.9201C-82.6604,41.785 -95.4472,58.1334 -100.081,64.0578"/>
</g>
<!-- anon_2_4_1 -->
<g id="node24" class="node"><title>anon_2_4_1</title>
<ellipse fill="white" stroke="black" cx="205.465" cy="-11.1019" rx="2.5" ry="2.5"/>
</g>
<!-- anon_2_4_0&#45;&gt;anon_2_4_1 -->
<g id="edge16" class="edge"><title>anon_2_4_0&#45;&gt;anon_2_4_1</title>
<path fill="none" stroke="black" d="M173.002,-37.2919C179.403,-32.1279 197.465,-17.5559 203.485,-12.6993"/>
</g>
<!-- anon_2_4_1&#45;&gt;4 -->
<g id="edge17" class="edge"><title>anon_2_4_1&#45;&gt;4</title>
<path fill="none" stroke="black" d="M207.174,-8.928C211.701,-3.16947 224.01,12.4865 229.179,19.0605"/>
</g>
<!-- anon_10_16_0&#45;&gt;10 -->
<g id="edge20" class="edge"><title>anon_10_16_0&#45;&gt;10</title>
<path fill="none" stroke="black" d="M-104.975,122.005C-103.001,127.01 -98.253,139.046 -93.7619,150.432"/>
<polygon fill="black" stroke="black" points="-92.0686,149.955 -91.8618,155.249 -95.3245,151.24 -92.0686,149.955"/>
<text text-anchor="middle" x="-112.869" y="133.618" font-family="monospace" font-size="8.00">D466H</text>
</g>
</g>
</svg>
