<?xml version="1.0" encoding="UTF-8" standalone="no"?>
<!DOCTYPE svg PUBLIC "-//W3C//DTD SVG 1.1//EN"
 "http://www.w3.org/Graphics/SVG/1.1/DTD/svg11.dtd">
<!-- Generated by graphviz version 2.38.0 (20140413.2041)
 -->
<!-- Title: %3 Pages: 1 -->
<svg width="251pt" height="213pt"
 viewBox="0.00 0.00 250.63 213.42" xmlns="http://www.w3.org/2000/svg" xmlns:xlink="http://www.w3.org/1999/xlink">
<g id="graph0" class="graph" transform="scale(1 1) rotate(0) translate(99.767 138.463)">
<title>%3</title>
<polygon fill="white" stroke="none" points="-99.767,74.9576 -99.767,-138.463 150.867,-138.463 150.867,74.9576 -99.767,74.9576"/>
<!-- 0 -->
<g id="node1" class="node"><title>0</title>
<ellipse fill="#1874cd" stroke="black" cx="-25.1037" cy="-63.1337" rx="21.5" ry="21.5"/>
</g>
<!-- 4 -->
<g id="node5" class="node"><title>4</title>
<ellipse fill="#1874cd" stroke="black" cx="-92.267" cy="-58.8947" rx="3.5" ry="3.5"/>
</g>
<!-- 0&#45;&gt;4 -->
<g id="edge1" class="edge"><title>0&#45;&gt;4</title>
<path fill="none" stroke="black" d="M-46.7243,-61.7691C-61.7566,-60.8204 -80.467,-59.6395 -88.4117,-59.138"/>
</g>
<!-- 5 -->
<g id="node6" class="node"><title>5</title>
<ellipse fill="#1874cd" stroke="black" cx="-17.8195" cy="-130.963" rx="3.5" ry="3.5"/>
</g>
<!-- 0&#45;&gt;5 -->
<g id="edge2" class="edge"><title>0&#45;&gt;5</title>
<path fill="none" stroke="black" d="M-22.799,-84.5952C-21.1651,-99.8095 -19.1142,-118.907 -18.2426,-127.023"/>
</g>
<!-- 1 -->
<g id="node2" class="node"><title>1</title>
<ellipse fill="#1874cd" stroke="black" cx="93.5542" cy="12.618" rx="9" ry="9"/>
</g>
<!-- 3 -->
<g id="node4" class="node"><title>3</title>
<ellipse fill="#1874cd" stroke="black" cx="143.367" cy="3.93678" rx="3.5" ry="3.5"/>
</g>
<!-- 1&#45;&gt;3 -->
<g id="edge5" class="edge"><title>1&#45;&gt;3</title>
<path fill="none" stroke="black" d="M102.691,11.0257C113.701,9.10693 131.695,5.97088 139.525,4.60626"/>
</g>
<!-- 2 -->
<g id="node3" class="node"><title>2</title>
<ellipse fill="#1874cd" stroke="black" cx="31.8742" cy="61.9576" rx="9" ry="9"/>
</g>
<!-- 6 -->
<g id="node7" class="node"><title>6</title>
<ellipse fill="white" stroke="black" cx="46.3187" cy="16.7908" rx="2.5" ry="2.5"/>
</g>
<!-- 6&#45;&gt;1 -->
<g id="edge6" class="edge"><title>6&#45;&gt;1</title>
<path fill="none" stroke="black" d="M48.8583,16.5664C54.5233,16.066 68.5472,14.8271 79.3887,13.8694"/>
<polygon fill="black" stroke="black" points="79.2701,12.1231 84.4047,13.4263 79.5781,15.6096 79.2701,12.1231"/>
<text text-anchor="middle" x="64.1235" y="21.6179" font-family="monospace" font-size="8.00">S1683I</text>
</g>
<!-- 6&#45;&gt;2 -->
<g id="edge7" class="edge"><title>6&#45;&gt;2</title>
<path fill="none" stroke="black" d="M45.5421,19.2192C43.8098,24.636 39.5213,38.0458 36.206,48.4125"/>
<polygon fill="black" stroke="black" points="37.862,48.9795 34.6721,53.2088 34.5284,47.9133 37.862,48.9795"/>
<text text-anchor="middle" x="27.3741" y="31.2158" font-family="monospace" font-size="8.00">G317S</text>
</g>
<!-- anon_0_6_0 -->
<g id="node8" class="node"><title>anon_0_6_0</title>
<ellipse fill="white" stroke="black" cx="15.0165" cy="-18.625" rx="2.5" ry="2.5"/>
</g>
<!-- 6&#45;&gt;anon_0_6_0 -->
<g id="edge4" class="edge"><title>6&#45;&gt;anon_0_6_0</title>
<path fill="none" stroke="black" d="M44.6358,14.8867C40.0928,9.74667 27.4376,-4.57161 20.2247,-12.7324"/>
<polygon fill="black" stroke="black" points="18.8635,-11.6299 16.8635,-16.5353 21.486,-13.9478 18.8635,-11.6299"/>
<text text-anchor="middle" x="16.4302" y="-1.52286" font-family="monospace" font-size="8.00">I1940T</text>
</g>
<!-- anon_0_6_0&#45;&gt;0 -->
<g id="edge3" class="edge"><title>anon_0_6_0&#45;&gt;0</title>
<path fill="none" stroke="black" d="M13.2926,-20.5375C9.72291,-24.4976 1.17525,-33.9802 -6.95109,-42.9955"/>
<polygon fill="black" stroke="black" points="-8.3444,-41.9274 -10.3923,-46.813 -5.74467,-44.2708 -8.3444,-41.9274"/>
<text text-anchor="middle" x="-10.3293" y="-34.3665" font-family="monospace" font-size="8.00">D466H</text>
</g>
</g>
</svg>
