<?xml version="1.0" encoding="UTF-8" standalone="no"?>
<!DOCTYPE svg PUBLIC "-//W3C//DTD SVG 1.1//EN"
 "http://www.w3.org/Graphics/SVG/1.1/DTD/svg11.dtd">
<!-- Generated by graphviz version 2.38.0 (20140413.2041)
 -->
<!-- Title: %3 Pages: 1 -->
<svg width="635pt" height="460pt"
 viewBox="0.00 0.00 634.71 459.84" xmlns="http://www.w3.org/2000/svg" xmlns:xlink="http://www.w3.org/1999/xlink">
<g id="graph0" class="graph" transform="scale(1 1) rotate(0) translate(372.957 285.606)">
<title>%3</title>
<polygon fill="white" stroke="none" points="-372.957,174.236 -372.957,-285.606 261.748,-285.606 261.748,174.236 -372.957,174.236"/>
<!-- 0 -->
<g id="node1" class="node"><title>0</title>
<path fill="deepskyblue" stroke="black" stroke-width="0.5" d="M-125.711,44.7415C-125.711,44.7415 -100.211,44.7415 -100.211,44.7415 -100.211,43.4391 -100.311,42.1386 -100.51,40.8514 -100.708,39.5642 -101.006,38.2941 -101.398,37.0523 -101.791,35.8105 -102.278,34.6006 -102.856,33.4332 -103.433,32.2659 -104.1,31.1445 -104.849,30.0789 -105.597,29.0133 -106.427,28.0067 -107.33,27.0678 -108.232,26.1289 -109.206,25.2606 -110.241,24.4704 -111.276,23.6803 -112.371,22.9706 -113.514,22.3476 -114.658,21.7247 -115.848,21.1902 -117.074,20.7491 -118.299,20.3079 -119.556,19.9612 -120.835,19.7121 -122.113,19.4631 -123.409,19.3123 -124.71,19.2612 -126.012,19.21 -127.315,19.2587 -128.609,19.4067 -129.903,19.5547 -131.184,19.8016 -132.44,20.1453 -133.696,20.489 -134.924,20.9284 -136.114,21.4597 -137.303,21.991 -138.449,22.6126 -139.544,23.3191 -140.638,24.0256 -141.676,24.8149 -142.65,25.6801 -143.623,26.5452 -144.529,27.4837 -145.359,28.4872 -146.19,29.4907 -146.942,30.5564 -147.609,31.6749 -148.276,32.7933 -148.857,33.9612 -149.346,35.1684 -149.835,36.3756 -150.231,37.6184 -150.53,38.8861 -150.829,40.1537 -151.031,41.4424 -151.133,42.7408 -151.235,44.0392 -151.237,45.3436 -151.14,46.6424 -151.043,47.9412 -150.847,49.2306 -150.553,50.4994 -150.259,51.7682 -149.868,53.0126 -149.384,54.2217 -148.899,55.4308 -148.323,56.601 -147.66,57.7221 -146.997,58.8431 -146.249,59.9117 -145.423,60.9185 -144.597,61.9253 -143.695,62.8674 -142.724,63.7363 -141.754,64.6053 -140.719,65.3986 -139.628,66.1094 -138.536,66.8202 -137.392,67.4463 -136.205,67.9823 -135.018,68.5183 -133.792,68.9625 -132.537,69.3111 -131.282,69.6597 -130.002,69.9117 -128.709,70.0648 -127.415,70.2178 -126.112,70.2716 -124.81,70.2256 -123.509,70.1796 -122.212,70.0339 -120.933,69.7898 -120.933,69.7898 -125.711,44.7415 -125.711,44.7415"/>
<path fill="#98f5ff" stroke="black" stroke-width="0.5" d="M-125.711,44.7415C-125.711,44.7415 -120.933,69.7898 -120.933,69.7898 -120.212,69.6522 -119.496,69.4835 -118.79,69.2841 -118.083,69.0848 -117.385,68.855 -116.698,68.5953 -116.011,68.3357 -115.335,68.0466 -114.673,67.7286 -114.011,67.4107 -113.363,67.0643 -112.731,66.6904 -112.099,66.3166 -111.483,65.9156 -110.885,65.4885 -110.288,65.0615 -109.709,64.6089 -109.15,64.1319 -108.592,63.6549 -108.054,63.154 -107.539,62.6306 -107.024,62.1072 -106.531,61.5617 -106.063,60.9958 -105.595,60.4299 -105.152,59.844 -104.734,59.2398 -104.316,58.6356 -103.925,58.0137 -103.561,57.3757 -103.197,56.7377 -102.861,56.0843 -102.554,55.4173 -102.246,54.7503 -101.968,54.0704 -101.719,53.3793 -101.47,52.6883 -101.251,51.9868 -101.063,51.2769 -100.875,50.567 -100.717,49.8492 -100.591,49.1257 -100.465,48.4022 -100.37,47.6735 -100.306,46.9418 -100.243,46.2101 -100.211,45.476 -100.211,44.7415 -100.211,44.7415 -125.711,44.7415 -125.711,44.7415"/>
<ellipse fill="none" stroke="black" cx="-125.711" cy="44.7415" rx="25.5" ry="25.5"/>
<text text-anchor="middle" x="-125.711" y="46.6415" font-family="monospace" font-size="8.00">0</text>
</g>
<!-- 22 -->
<g id="node23" class="node"><title>22</title>
<ellipse fill="deepskyblue" stroke="black" cx="-217.16" cy="73.1164" rx="3.5" ry="3.5"/>
</g>
<!-- 0&#45;&gt;22 -->
<g id="edge2" class="edge"><title>0&#45;&gt;22</title>
<path fill="none" stroke="black" d="M-150.218,52.3455C-172.439,59.2402 -203.25,68.8003 -213.605,72.0133"/>
</g>
<!-- 24 -->
<g id="node25" class="node"><title>24</title>
<ellipse fill="deepskyblue" stroke="black" cx="-188.611" cy="110.675" rx="3.5" ry="3.5"/>
</g>
<!-- 0&#45;&gt;24 -->
<g id="edge3" class="edge"><title>0&#45;&gt;24</title>
<path fill="none" stroke="black" d="M-143.568,63.4591C-156.67,77.1936 -173.67,95.014 -182.571,104.344"/>
<polygon fill="black" stroke="black" points="-181.33,105.578 -186.047,107.988 -183.862,103.163 -181.33,105.578"/>
<text text-anchor="middle" x="-174.069" y="81.3016" font-family="monospace" font-size="8.00">P55L</text>
</g>
<!-- 58 -->
<g id="node59" class="node"><title>58</title>
<ellipse fill="black" stroke="black" cx="-151.082" cy="137.299" rx="3.5" ry="3.5"/>
</g>
<!-- 0&#45;&gt;58 -->
<g id="edge4" class="edge"><title>0&#45;&gt;58</title>
<path fill="none" stroke="black" d="M-132.51,69.5453C-138.675,92.0355 -147.223,123.22 -150.096,133.701"/>
</g>
<!-- 1 -->
<g id="node2" class="node"><title>1</title>
<ellipse fill="deepskyblue" stroke="black" cx="167.134" cy="-98.0116" rx="3.5" ry="3.5"/>
</g>
<!-- 3 -->
<g id="node4" class="node"><title>3</title>
<path fill="#1874cd" stroke="black" stroke-width="0.5" d="M97.8323,-56.4132C97.8323,-56.4132 131.832,-56.4132 131.832,-56.4132 131.832,-57.6993 131.759,-58.9843 131.614,-60.2621 131.468,-61.5399 131.25,-62.8085 130.961,-64.0616 130.672,-65.3147 130.311,-66.5504 129.882,-67.7627 129.453,-68.975 128.955,-70.1619 128.391,-71.3178 127.828,-72.4738 127.199,-73.5967 126.508,-74.6814 125.817,-75.7661 125.065,-76.8107 124.255,-77.8101 123.446,-78.8096 122.581,-79.7623 121.663,-80.6637 120.746,-81.5652 119.778,-82.4138 118.765,-83.2056 117.751,-83.9974 116.694,-84.731 115.597,-85.403 114.501,-86.075 113.367,-86.6842 112.201,-87.2277 111.036,-87.7712 109.84,-88.2482 108.621,-88.6562 107.401,-89.0643 106.159,-89.4029 104.901,-89.6702 103.643,-89.9376 102.371,-90.1334 101.091,-90.2567 99.8109,-90.38 98.5248,-90.4305 97.2389,-90.408 95.953,-90.3856 94.6695,-90.2902 93.3944,-90.1223 92.1193,-89.9545 90.8548,-89.7144 89.607,-89.4033 89.607,-89.4033 97.8323,-56.4132 97.8323,-56.4132"/>
<path fill="deepskyblue" stroke="black" stroke-width="0.5" d="M97.8323,-56.4132C97.8323,-56.4132 89.607,-89.4033 89.607,-89.4033 88.263,-89.0682 86.9409,-88.6513 85.6478,-88.155 84.3547,-87.6586 83.0932,-87.0837 81.8703,-86.4334 80.6473,-85.7832 79.4653,-85.0588 78.3307,-84.2644 77.1961,-83.47 76.1112,-82.6069 75.0819,-81.6801 74.0526,-80.7534 73.0809,-79.7645 72.1722,-78.7192 71.2635,-77.6739 70.4195,-76.574 69.645,-75.4258 68.8705,-74.2775 68.1669,-73.083 67.5381,-71.8489 66.9093,-70.6148 66.3565,-69.3434 65.8828,-68.0419 65.409,-66.7404 65.0153,-65.4111 64.7037,-64.0616 64.3922,-62.712 64.1633,-61.3447 64.0186,-59.9672 63.8738,-58.5897 63.8133,-57.2047 63.8375,-55.8198 63.8617,-54.435 63.9704,-53.0529 64.1632,-51.6813 64.356,-50.3098 64.6323,-48.9512 64.9908,-47.6134 65.3493,-46.2755 65.7892,-44.9608 66.3081,-43.6766 66.8269,-42.3924 67.4237,-41.1411 68.0952,-39.9297 68.7667,-38.7183 69.5116,-37.5491 70.3257,-36.4285 70.3257,-36.4285 97.8323,-56.4132 97.8323,-56.4132"/>
<path fill="#98f5ff" stroke="black" stroke-width="0.5" d="M97.8323,-56.4132C97.8323,-56.4132 70.3257,-36.4285 70.3257,-36.4285 70.9072,-35.6283 71.5232,-34.8538 72.1722,-34.1072 72.8211,-33.3607 73.5024,-32.6428 74.2139,-31.9557 74.9255,-31.2685 75.6667,-30.6128 76.4354,-29.9903 77.2041,-29.3677 77.9997,-28.7791 78.8197,-28.2259 78.8197,-28.2259 97.8323,-56.4132 97.8323,-56.4132"/>
<path fill="#ff3030" stroke="black" stroke-width="0.5" d="M97.8323,-56.4132C97.8323,-56.4132 78.8197,-28.2259 78.8197,-28.2259 80.0911,-27.3684 81.4191,-26.5978 82.7945,-25.9195 84.1699,-25.2413 85.5896,-24.6568 87.0439,-24.1702 88.4983,-23.6836 89.9838,-23.296 91.4905,-23.0099 92.9971,-22.7239 94.5214,-22.5401 96.0529,-22.4598 97.5843,-22.3796 99.1195,-22.403 100.648,-22.53 102.176,-22.657 103.694,-22.8872 105.191,-23.2192 106.688,-23.5511 108.162,-23.9839 109.6,-24.5147 111.039,-25.0455 112.44,-25.673 113.794,-26.393 115.148,-27.113 116.452,-27.9237 117.697,-28.8197 118.941,-29.7157 120.124,-30.6949 121.236,-31.7505 122.349,-32.8061 123.388,-33.9358 124.348,-35.1318 125.308,-36.3278 126.186,-37.5874 126.976,-38.9019 127.766,-40.2165 128.466,-41.5829 129.071,-42.9919 129.677,-44.401 130.186,-45.8493 130.596,-47.3271 131.006,-48.8049 131.315,-50.3087 131.522,-51.8283 131.729,-53.3478 131.832,-54.8797 131.832,-56.4132 131.832,-56.4132 97.8323,-56.4132 97.8323,-56.4132"/>
<ellipse fill="none" stroke="black" cx="97.8323" cy="-56.4132" rx="34" ry="34"/>
<text text-anchor="middle" x="97.8323" y="-54.5132" font-family="monospace" font-size="8.00">3</text>
</g>
<!-- 1&#45;&gt;3 -->
<g id="edge5" class="edge"><title>1&#45;&gt;3</title>
<path fill="none" stroke="black" d="M163.791,-96.0052C157.086,-91.9803 141.401,-82.5655 127.009,-73.9266"/>
</g>
<!-- 2 -->
<g id="node3" class="node"><title>2</title>
<ellipse fill="#ff3030" stroke="black" cx="-82.8923" cy="45.5868" rx="14" ry="14"/>
<text text-anchor="middle" x="-82.8923" y="47.4868" font-family="monospace" font-size="8.00">2</text>
</g>
<!-- 60 -->
<g id="node61" class="node"><title>60</title>
<ellipse fill="white" stroke="black" cx="-97.1322" cy="116.188" rx="2.5" ry="2.5"/>
</g>
<!-- 2&#45;&gt;60 -->
<g id="edge7" class="edge"><title>2&#45;&gt;60</title>
<path fill="none" stroke="black" d="M-85.7056,59.5353C-88.6322,74.045 -93.1136,96.264 -95.5016,108.103"/>
<polygon fill="black" stroke="black" points="-93.836,108.697 -96.5401,113.253 -97.2669,108.005 -93.836,108.697"/>
<text text-anchor="middle" x="-106.604" y="81.2193" font-family="monospace" font-size="8.00">P1874S</text>
</g>
<!-- 10 -->
<g id="node11" class="node"><title>10</title>
<ellipse fill="#ff3030" stroke="black" cx="184.831" cy="-18.4606" rx="3.5" ry="3.5"/>
</g>
<!-- 3&#45;&gt;10 -->
<g id="edge9" class="edge"><title>3&#45;&gt;10</title>
<path fill="none" stroke="black" d="M129.241,-42.7115C149.293,-33.9636 173.07,-23.5914 181.592,-19.8734"/>
</g>
<!-- 16 -->
<g id="node17" class="node"><title>16</title>
<ellipse fill="#ff3030" stroke="black" cx="121.388" cy="3.69447" rx="3.5" ry="3.5"/>
</g>
<!-- 3&#45;&gt;16 -->
<g id="edge10" class="edge"><title>3&#45;&gt;16</title>
<path fill="none" stroke="black" d="M110.3,-24.5993C113.217,-17.1545 116.078,-9.85424 118.163,-4.53421"/>
<polygon fill="black" stroke="black" points="119.892,-4.91933 120.087,0.374511 116.633,-3.64225 119.892,-4.91933"/>
<text text-anchor="middle" x="100.731" y="-8.16676" font-family="monospace" font-size="8.00">M704V</text>
</g>
<!-- 18 -->
<g id="node19" class="node"><title>18</title>
<ellipse fill="deepskyblue" stroke="black" cx="165.093" cy="-60.8511" rx="3.5" ry="3.5"/>
</g>
<!-- 3&#45;&gt;18 -->
<g id="edge11" class="edge"><title>3&#45;&gt;18</title>
<path fill="none" stroke="black" d="M131.857,-58.6582C143.848,-59.4493 155.772,-60.2361 161.531,-60.6161"/>
</g>
<!-- 21 -->
<g id="node22" class="node"><title>21</title>
<ellipse fill="deepskyblue" stroke="black" cx="143.788" cy="-29.8967" rx="3.5" ry="3.5"/>
</g>
<!-- 3&#45;&gt;21 -->
<g id="edge12" class="edge"><title>3&#45;&gt;21</title>
<path fill="none" stroke="black" d="M127.456,-39.3201C132.736,-36.2737 137.504,-33.5228 140.506,-31.7904"/>
</g>
<!-- 25 -->
<g id="node26" class="node"><title>25</title>
<ellipse fill="deepskyblue" stroke="black" cx="196.639" cy="-73.4773" rx="3.5" ry="3.5"/>
</g>
<!-- 3&#45;&gt;25 -->
<g id="edge13" class="edge"><title>3&#45;&gt;25</title>
<path fill="none" stroke="black" d="M131.559,-62.238C154.816,-66.2545 183.243,-71.1639 193.086,-72.8637"/>
</g>
<!-- 29 -->
<g id="node30" class="node"><title>29</title>
<ellipse fill="deepskyblue" stroke="black" cx="93.7053" cy="-119.579" rx="3.5" ry="3.5"/>
</g>
<!-- 3&#45;&gt;29 -->
<g id="edge14" class="edge"><title>3&#45;&gt;29</title>
<path fill="none" stroke="black" d="M95.5997,-90.5846C95.1088,-98.0989 94.6307,-105.417 94.2776,-110.821"/>
<polygon fill="black" stroke="black" points="92.5286,-110.749 93.9489,-115.852 96.0212,-110.977 92.5286,-110.749"/>
<text text-anchor="middle" x="78.9387" y="-103.303" font-family="monospace" font-size="8.00">V1303A</text>
</g>
<!-- 30 -->
<g id="node31" class="node"><title>30</title>
<ellipse fill="deepskyblue" stroke="black" cx="124.275" cy="-100.492" rx="3.5" ry="3.5"/>
</g>
<!-- 3&#45;&gt;30 -->
<g id="edge15" class="edge"><title>3&#45;&gt;30</title>
<path fill="none" stroke="black" d="M115.616,-86.0589C118.307,-90.5439 120.71,-94.55 122.298,-97.1968"/>
</g>
<!-- 34 -->
<g id="node35" class="node"><title>34</title>
<ellipse fill="#ff3030" stroke="black" cx="141.12" cy="37.4477" rx="3.5" ry="3.5"/>
</g>
<!-- 3&#45;&gt;34 -->
<g id="edge16" class="edge"><title>3&#45;&gt;34</title>
<path fill="none" stroke="black" d="M112.126,-25.4195C122.371,-3.20609 135.108,24.4127 139.525,33.9888"/>
</g>
<!-- 36 -->
<g id="node37" class="node"><title>36</title>
<ellipse fill="#ff3030" stroke="black" cx="99.7761" cy="-155.357" rx="3.5" ry="3.5"/>
</g>
<!-- 3&#45;&gt;36 -->
<g id="edge19" class="edge"><title>3&#45;&gt;36</title>
<path fill="none" stroke="black" d="M98.5012,-90.464C98.9581,-113.718 99.5142,-142.024 99.7066,-151.821"/>
</g>
<!-- 41 -->
<g id="node42" class="node"><title>41</title>
<ellipse fill="#1874cd" stroke="black" cx="63.122" cy="-14.9206" rx="3.5" ry="3.5"/>
</g>
<!-- 3&#45;&gt;41 -->
<g id="edge22" class="edge"><title>3&#45;&gt;41</title>
<path fill="none" stroke="black" d="M75.6532,-29.9004C71.6142,-25.0721 67.9537,-20.6965 65.6463,-17.9381"/>
</g>
<!-- 43 -->
<g id="node44" class="node"><title>43</title>
<ellipse fill="#1874cd" stroke="black" cx="155.369" cy="-130.77" rx="3.5" ry="3.5"/>
</g>
<!-- 3&#45;&gt;43 -->
<g id="edge23" class="edge"><title>3&#45;&gt;43</title>
<path fill="none" stroke="black" d="M118.93,-83.6789C132.016,-100.59 147.385,-120.453 153.089,-127.824"/>
</g>
<!-- 44 -->
<g id="node45" class="node"><title>44</title>
<ellipse fill="#1874cd" stroke="black" cx="165.556" cy="5.18942" rx="3.5" ry="3.5"/>
</g>
<!-- 3&#45;&gt;44 -->
<g id="edge24" class="edge"><title>3&#45;&gt;44</title>
<path fill="none" stroke="black" d="M123.05,-33.4747C138.394,-19.5178 156.275,-3.25262 162.907,2.77926"/>
</g>
<!-- 46 -->
<g id="node47" class="node"><title>46</title>
<ellipse fill="#1874cd" stroke="black" cx="147.365" cy="-166.859" rx="3.5" ry="3.5"/>
</g>
<!-- 3&#45;&gt;46 -->
<g id="edge27" class="edge"><title>3&#45;&gt;46</title>
<path fill="none" stroke="black" d="M111.762,-87.4724C124.009,-114.78 140.66,-151.907 145.794,-163.355"/>
</g>
<!-- 56 -->
<g id="node57" class="node"><title>56</title>
<ellipse fill="#98f5ff" stroke="black" cx="121.814" cy="-144.114" rx="3.5" ry="3.5"/>
</g>
<!-- 3&#45;&gt;56 -->
<g id="edge28" class="edge"><title>3&#45;&gt;56</title>
<path fill="none" stroke="black" d="M106.899,-89.5691C112.311,-109.36 118.569,-132.246 120.888,-140.726"/>
</g>
<!-- 59 -->
<g id="node60" class="node"><title>59</title>
<ellipse fill="black" stroke="black" cx="117.738" cy="37.8778" rx="3.5" ry="3.5"/>
</g>
<!-- 3&#45;&gt;59 -->
<g id="edge29" class="edge"><title>3&#45;&gt;59</title>
<path fill="none" stroke="black" d="M104.906,-22.9043C109.51,-1.09566 115.013,24.9724 116.987,34.3233"/>
</g>
<!-- anon_3_35_0 -->
<g id="node63" class="node"><title>anon_3_35_0</title>
<ellipse fill="white" stroke="black" cx="175.196" cy="38.0153" rx="2.5" ry="2.5"/>
</g>
<!-- 3&#45;&gt;anon_3_35_0 -->
<g id="edge17" class="edge"><title>3&#45;&gt;anon_3_35_0</title>
<path fill="none" stroke="black" d="M119.383,-30.1096C139.234,-5.87985 166.628,27.5573 173.555,36.0117"/>
</g>
<!-- anon_3_40_0 -->
<g id="node64" class="node"><title>anon_3_40_0</title>
<ellipse fill="white" stroke="black" cx="197.208" cy="-119.682" rx="2.5" ry="2.5"/>
</g>
<!-- 3&#45;&gt;anon_3_40_0 -->
<g id="edge20" class="edge"><title>3&#45;&gt;anon_3_40_0</title>
<path fill="none" stroke="black" d="M126.576,-74.7132C151.798,-90.7712 185.833,-112.44 194.907,-118.217"/>
</g>
<!-- anon_3_45_0 -->
<g id="node65" class="node"><title>anon_3_45_0</title>
<ellipse fill="white" stroke="black" cx="212.63" cy="-34.9361" rx="2.5" ry="2.5"/>
</g>
<!-- 3&#45;&gt;anon_3_45_0 -->
<g id="edge25" class="edge"><title>3&#45;&gt;anon_3_45_0</title>
<path fill="none" stroke="black" d="M131.345,-50.1434C160.464,-44.6956 199.566,-37.3802 209.987,-35.4305"/>
</g>
<!-- 4 -->
<g id="node5" class="node"><title>4</title>
<path fill="deepskyblue" stroke="black" stroke-width="0.5" d="M2.6744,-131.532C2.6744,-131.532 34.6744,-131.532 34.6744,-131.532 34.6744,-132.633 34.6176,-133.734 34.5041,-134.829 34.3907,-135.924 34.2208,-137.013 33.9951,-138.091 33.7694,-139.169 33.4882,-140.234 33.1527,-141.283 32.8172,-142.332 32.4277,-143.362 31.986,-144.371 31.5442,-145.38 31.0506,-146.365 30.5073,-147.322 29.9639,-148.28 29.3715,-149.209 28.7323,-150.106 28.0932,-151.003 27.4082,-151.866 26.6801,-152.692 25.952,-153.518 25.1817,-154.306 24.3724,-155.052 23.563,-155.799 22.7157,-156.503 21.8337,-157.163 20.9517,-157.822 20.0363,-158.435 19.0911,-159 18.1459,-159.565 17.1722,-160.081 16.1738,-160.545 15.1755,-161.01 14.1538,-161.423 13.1129,-161.782 12.072,-162.141 11.0132,-162.446 9.94084,-162.696 8.86846,-162.946 7.78389,-163.141 6.69146,-163.279 5.59902,-163.417 4.50018,-163.499 3.39932,-163.524 2.29846,-163.549 1.19704,-163.517 0.0994712,-163.428 -0.998102,-163.34 -2.09037,-163.195 -3.17298,-162.993 -4.25558,-162.792 -5.32708,-162.535 -6.38319,-162.224 -7.4393,-161.912 -8.47863,-161.546 -9.49701,-161.127 -10.5154,-160.708 -11.5115,-160.237 -12.4813,-159.716 -13.4511,-159.194 -14.3933,-158.623 -15.3043,-158.004 -16.2152,-157.386 -17.0936,-156.72 -17.9359,-156.011 -18.7782,-155.302 -19.5834,-154.55 -20.3482,-153.757 -21.113,-152.965 -21.8364,-152.134 -22.5155,-151.267 -23.1946,-150.4 -23.8285,-149.499 -24.4146,-148.567 -25.0008,-147.635 -25.5385,-146.673 -26.0255,-145.685 -26.5126,-144.698 -26.9483,-143.686 -27.331,-142.653 -27.7136,-141.621 -28.0428,-140.569 -28.3171,-139.503 -28.5913,-138.436 -28.8104,-137.356 -28.9733,-136.267 -29.1363,-135.178 -29.2429,-134.082 -29.2928,-132.982 -29.3426,-131.882 -29.3357,-130.78 -29.272,-129.681 -29.2083,-128.581 -29.0878,-127.486 -28.9112,-126.399 -28.9112,-126.399 2.6744,-131.532 2.6744,-131.532"/>
<path fill="#98f5ff" stroke="black" stroke-width="0.5" d="M2.6744,-131.532C2.6744,-131.532 -28.9112,-126.399 -28.9112,-126.399 -28.6785,-124.967 -28.3488,-123.553 -27.9242,-122.166 -27.4997,-120.779 -26.9813,-119.423 -26.3727,-118.106 -25.7641,-116.789 -25.0667,-115.515 -24.2852,-114.293 -23.5038,-113.071 -22.6402,-111.904 -21.7004,-110.799 -20.7606,-109.694 -19.7467,-108.654 -18.6658,-107.687 -17.585,-106.72 -16.4396,-105.827 -15.2376,-105.015 -14.0356,-104.203 -12.7798,-103.474 -11.4788,-102.832 -10.1779,-102.191 -8.83485,-101.638 -7.45897,-101.179 -6.0831,-100.72 -4.67758,-100.354 -3.25215,-100.086 -1.82672,-99.8172 -0.384676,-99.6458 1.06401,-99.5728 2.5127,-99.4998 3.96467,-99.5253 5.40988,-99.6493 6.8551,-99.7733 8.29021,-99.9955 9.70529,-100.314 11.1204,-100.633 12.5121,-101.047 13.871,-101.555 15.2298,-102.062 16.5526,-102.662 17.8301,-103.349 19.1076,-104.036 20.3369,-104.809 21.5096,-105.663 22.6822,-106.516 23.7955,-107.449 24.8416,-108.454 24.8416,-108.454 2.6744,-131.532 2.6744,-131.532"/>
<path fill="#ff3030" stroke="black" stroke-width="0.5" d="M2.6744,-131.532C2.6744,-131.532 24.8416,-108.454 24.8416,-108.454 25.6164,-109.198 26.3532,-109.981 27.0492,-110.799 27.7452,-111.617 28.3996,-112.47 29.0099,-113.354 29.6201,-114.238 30.1855,-115.153 30.7038,-116.094 31.2221,-117.034 31.6927,-118.001 32.1137,-118.989 32.5348,-119.978 32.9059,-120.986 33.2255,-122.012 33.5451,-123.038 33.8128,-124.079 34.0277,-125.131 34.2426,-126.184 34.4043,-127.247 34.5123,-128.316 34.6203,-129.384 34.6744,-130.458 34.6744,-131.532 34.6744,-131.532 2.6744,-131.532 2.6744,-131.532"/>
<ellipse fill="none" stroke="black" cx="2.6744" cy="-131.532" rx="32" ry="32"/>
<text text-anchor="middle" x="2.6744" y="-129.632" font-family="monospace" font-size="8.00">4</text>
</g>
<!-- 11 -->
<g id="node12" class="node"><title>11</title>
<ellipse fill="deepskyblue" stroke="black" cx="-1.73622" cy="-20.6355" rx="3.5" ry="3.5"/>
</g>
<!-- 4&#45;&gt;11 -->
<g id="edge31" class="edge"><title>4&#45;&gt;11</title>
<path fill="none" stroke="black" d="M1.39867,-99.4563C0.319932,-72.3335 -1.12202,-36.0783 -1.58583,-24.4168"/>
</g>
<!-- 55 -->
<g id="node56" class="node"><title>55</title>
<ellipse fill="#98f5ff" stroke="black" cx="3.77198" cy="-256.672" rx="3.5" ry="3.5"/>
</g>
<!-- 4&#45;&gt;55 -->
<g id="edge32" class="edge"><title>4&#45;&gt;55</title>
<path fill="none" stroke="black" d="M2.95705,-163.759C3.23145,-195.043 3.62296,-239.681 3.73861,-252.867"/>
</g>
<!-- 5 -->
<g id="node6" class="node"><title>5</title>
<ellipse fill="#ff3030" stroke="black" cx="-55.8797" cy="67.4559" rx="18" ry="18"/>
<text text-anchor="middle" x="-55.8797" y="69.3559" font-family="monospace" font-size="8.00">5</text>
</g>
<!-- 32 -->
<g id="node33" class="node"><title>32</title>
<ellipse fill="#ff3030" stroke="black" cx="-20.1551" cy="66.3097" rx="3.5" ry="3.5"/>
</g>
<!-- 5&#45;&gt;32 -->
<g id="edge34" class="edge"><title>5&#45;&gt;32</title>
<path fill="none" stroke="black" d="M-37.5988,66.8694C-32.38,66.7019 -27.209,66.536 -23.8688,66.4289"/>
</g>
<!-- 38 -->
<g id="node39" class="node"><title>38</title>
<ellipse fill="#ff3030" stroke="black" cx="-54.901" cy="146.12" rx="3.5" ry="3.5"/>
</g>
<!-- 5&#45;&gt;38 -->
<g id="edge35" class="edge"><title>5&#45;&gt;38</title>
<path fill="none" stroke="black" d="M-55.6527,85.7007C-55.4178,104.582 -55.0684,132.667 -54.9456,142.535"/>
</g>
<!-- 39 -->
<g id="node40" class="node"><title>39</title>
<ellipse fill="#ff3030" stroke="black" cx="-19.0135" cy="144.106" rx="3.5" ry="3.5"/>
</g>
<!-- 5&#45;&gt;39 -->
<g id="edge36" class="edge"><title>5&#45;&gt;39</title>
<path fill="none" stroke="black" d="M-48.0614,83.7113C-39.1842,102.168 -25.3245,130.984 -20.6303,140.744"/>
</g>
<!-- 5&#45;&gt;60 -->
<g id="edge71" class="edge"><title>5&#45;&gt;60</title>
<path fill="none" stroke="black" stroke-dasharray="5,2" d="M-67.5907,81.2902C-75.642,90.8013 -85.9374,102.963 -92.0052,110.131"/>
<polygon fill="black" stroke="black" points="-90.8848,111.516 -95.4511,114.202 -93.5562,109.255 -90.8848,111.516"/>
<text text-anchor="middle" x="-95.798" y="93.1108" font-family="monospace" font-size="8.00">A1934V</text>
</g>
<!-- 6 -->
<g id="node7" class="node"><title>6</title>
<path fill="deepskyblue" stroke="black" stroke-width="0.5" d="M-42.65,-35.0523C-42.65,-35.0523 -8.15,-35.0523 -8.15,-35.0523 -8.15,-36.218 -8.20908,-37.3829 -8.32701,-38.5426 -8.44494,-39.7023 -8.62157,-40.8553 -8.85622,-41.9971 -9.09086,-43.1389 -9.38323,-44.2681 -9.73219,-45.3803 -10.0812,-46.4925 -10.4863,-47.5864 -10.946,-48.6576 -10.946,-48.6576 -42.65,-35.0523 -42.65,-35.0523"/>
<path fill="#ff3030" stroke="black" stroke-width="0.5" d="M-42.65,-35.0523C-42.65,-35.0523 -10.946,-48.6576 -10.946,-48.6576 -11.559,-50.0861 -12.2679,-51.4715 -13.0677,-52.8044 -13.8676,-54.1374 -14.7567,-55.4147 -15.7288,-56.6277 -15.7288,-56.6277 -42.65,-35.0523 -42.65,-35.0523"/>
<path fill="brown" stroke="black" stroke-width="0.5" d="M-42.65,-35.0523C-42.65,-35.0523 -15.7288,-56.6277 -15.7288,-56.6277 -16.359,-57.4141 -17.0234,-58.1725 -17.72,-58.9007 -18.4167,-59.6289 -19.1449,-60.3263 -19.9026,-60.9908 -20.6603,-61.6552 -21.4467,-62.2862 -22.2596,-62.8818 -23.0725,-63.4774 -23.9112,-64.0371 -24.7731,-64.5593 -25.635,-65.0815 -26.5194,-65.5657 -27.4237,-66.0105 -28.328,-66.4553 -29.2514,-66.8602 -30.1912,-67.2241 -31.1309,-67.5881 -32.0862,-67.9106 -33.0542,-68.1909 -34.0222,-68.4712 -35.002,-68.709 -35.9908,-68.9035 -36.9797,-69.098 -37.9765,-69.2491 -38.9786,-69.3564 -39.9806,-69.4636 -40.9869,-69.5269 -41.9945,-69.5461 -43.0021,-69.5652 -44.01,-69.5402 -45.0154,-69.4711 -46.0208,-69.402 -47.0227,-69.2889 -48.0182,-69.1321 -49.0137,-68.9753 -50.0019,-68.7749 -50.9798,-68.5316 -51.9578,-68.2883 -52.9246,-68.0022 -53.8775,-67.6743 -54.8304,-67.3463 -55.7685,-66.9767 -56.6891,-66.5666 -57.6096,-66.1566 -58.5118,-65.7063 -59.3929,-65.2172 -60.2741,-64.7282 -61.1333,-64.2007 -61.9683,-63.6364 -62.8033,-63.0721 -63.6131,-62.4715 -64.3955,-61.8363 -65.1779,-61.2011 -65.9321,-60.5319 -66.6559,-59.8307 -67.3796,-59.1295 -68.0724,-58.3969 -68.732,-57.635 -69.3917,-56.8731 -70.0176,-56.0827 -70.6081,-55.266 -71.1986,-54.4493 -71.753,-53.6072 -72.2697,-52.742 -72.7864,-51.8767 -73.265,-50.9893 -73.704,-50.0822 -74.1431,-49.1751 -74.5421,-48.2492 -74.9001,-47.3071 -75.2581,-46.3651 -75.5746,-45.4078 -75.8488,-44.438 -76.1229,-43.4683 -76.3545,-42.4869 -76.5427,-41.4969 -76.731,-40.5069 -76.8758,-39.5091 -76.9767,-38.5064 -77.0776,-37.5037 -77.1345,-36.497 -77.1472,-35.4893 -77.16,-34.4816 -77.1286,-33.4739 -77.0531,-32.4689 -76.9777,-31.464 -76.8582,-30.4628 -76.6951,-29.4683 -76.532,-28.4738 -76.3254,-27.487 -76.0759,-26.5106 -75.8264,-25.5342 -75.5342,-24.5692 -75.2002,-23.6184 -74.8662,-22.6676 -74.4907,-21.7318 -74.0748,-20.8139 -73.6589,-19.896 -73.203,-18.9967 -72.7083,-18.1186 -72.2137,-17.2406 -71.6808,-16.3847 -71.1112,-15.5533 -70.5416,-14.7219 -69.9359,-13.9159 -69.2957,-13.1376 -68.6556,-12.3592 -67.9817,-11.6093 -67.2759,-10.89 -66.5701,-10.1706 -65.8331,-9.48257 -65.067,-8.82775 -64.301,-8.17293 -63.5066,-7.55199 -62.6862,-6.96671 -61.8658,-6.38144 -61.0202,-5.83239 -60.1517,-5.32115 -59.2832,-4.80992 -58.3928,-4.33698 -57.4829,-3.9037 -56.573,-3.47041 -55.6446,-3.07721 -54.7003,-2.72521 -53.756,-2.37321 -52.7967,-2.06276 -51.8253,-1.79474 -50.8538,-1.52672 -49.871,-1.3014 -48.8798,-1.11942 -47.8886,-0.937446 -46.8899,-0.798986 -45.8866,-0.704443 -44.8833,-0.609899 -43.8763,-0.559364 -42.8685,-0.552981 -41.8608,-0.546598 -40.8532,-0.584373 -39.8488,-0.6662 -38.8443,-0.748026 -37.8439,-0.873823 -36.8505,-1.04323 -35.8571,-1.21264 -34.8716,-1.42549 -33.8968,-1.68118 -32.922,-1.93687 -31.9588,-2.23515 -31.0102,-2.57516 -30.0615,-2.91517 -29.1281,-3.29658 -28.2129,-3.7183 -27.2976,-4.14002 -26.4012,-4.60164 -25.5263,-5.10184 -24.6514,-5.60204 -23.7989,-6.14033 -22.9711,-6.71516 -22.1434,-7.28999 -21.3412,-7.90082 -20.567,-8.54589 -19.7927,-9.19095 -19.0471,-9.86963 -18.3322,-10.58 -17.6173,-11.2903 -16.934,-12.0316 -16.284,-12.8018 -15.634,-13.572 -15.0181,-14.3703 -14.4381,-15.1944 -13.858,-16.0184 -13.3143,-16.8676 -12.8086,-17.7392 -12.3029,-18.6109 -11.8356,-19.5044 -11.4081,-20.417 -10.9806,-21.3296 -10.5933,-22.2605 -10.2472,-23.207 -9.90123,-24.1535 -9.59686,-25.1147 -9.335,-26.0879 -9.07314,-27.061 -8.85405,-28.0452 -8.67836,-29.0375 -8.50266,-30.0299 -8.37053,-31.0294 -8.28234,-32.0333 -8.19416,-33.0372 -8.15,-34.0445 -8.15,-35.0523 -8.15,-35.0523 -42.65,-35.0523 -42.65,-35.0523"/>
<ellipse fill="none" stroke="black" cx="-42.65" cy="-35.0523" rx="34.5" ry="34.5"/>
<text text-anchor="middle" x="-42.65" y="-33.1523" font-family="monospace" font-size="8.00">6</text>
</g>
<!-- 6&#45;&gt;0 -->
<g id="edge1" class="edge"><title>6&#45;&gt;0</title>
<path fill="none" stroke="black" d="M-67.5711,-11.1115C-78.9911,-0.14075 -92.4173,12.7572 -103.489,23.393"/>
<polygon fill="black" stroke="black" points="-102.329,24.7053 -107.147,26.9072 -104.753,22.1812 -102.329,24.7053"/>
<text text-anchor="middle" x="-101.53" y="3.54075" font-family="monospace" font-size="8.00">I1868T</text>
</g>
<!-- 6&#45;&gt;2 -->
<g id="edge6" class="edge"><title>6&#45;&gt;2</title>
<path fill="none" stroke="black" d="M-58.0936,-4.10573C-63.5296,6.78713 -69.4478,18.6462 -74.139,28.0466"/>
<polygon fill="black" stroke="black" points="-72.6727,29.0277 -76.4713,32.7201 -75.8044,27.4648 -72.6727,29.0277"/>
<text text-anchor="middle" x="-82.1163" y="18.3704" font-family="monospace" font-size="8.00">A1934V</text>
</g>
<!-- 6&#45;&gt;3 -->
<g id="edge8" class="edge"><title>6&#45;&gt;3</title>
<path fill="none" stroke="black" d="M-8.28416,-40.2778C12.0201,-43.3651 37.7913,-47.2837 58.8521,-50.4861"/>
<polygon fill="black" stroke="black" points="58.615,-52.2201 63.8213,-51.2417 59.1412,-48.7599 58.615,-52.2201"/>
<text text-anchor="middle" x="9.28396" y="-47.9819" font-family="monospace" font-size="8.00">N1570Y</text>
</g>
<!-- 6&#45;&gt;4 -->
<g id="edge30" class="edge"><title>6&#45;&gt;4</title>
<path fill="none" stroke="black" d="M-27.9345,-66.3766C-23.2272,-76.3967 -17.9962,-87.5317 -13.2095,-97.7208"/>
<polygon fill="black" stroke="black" points="-14.755,-98.547 -11.045,-102.328 -11.5871,-97.0587 -14.755,-98.547"/>
<text text-anchor="middle" x="-4.572" y="-84.6487" font-family="monospace" font-size="8.00">P1874L</text>
</g>
<!-- 6&#45;&gt;5 -->
<g id="edge33" class="edge"><title>6&#45;&gt;5</title>
<path fill="none" stroke="black" d="M-47.0921,-0.633367C-49.0007,14.1547 -51.1807,31.0462 -52.8919,44.3054"/>
<polygon fill="black" stroke="black" points="-51.1712,44.6454 -53.5469,49.3802 -54.6424,44.1973 -51.1712,44.6454"/>
<text text-anchor="middle" x="-65.992" y="28.236" font-family="monospace" font-size="8.00">P1874S</text>
</g>
<!-- 7 -->
<g id="node8" class="node"><title>7</title>
<ellipse fill="#ff3030" stroke="black" cx="-117.934" cy="-69.3935" rx="9.5" ry="9.5"/>
<text text-anchor="middle" x="-117.934" y="-67.4935" font-family="monospace" font-size="8.00">7</text>
</g>
<!-- 6&#45;&gt;7 -->
<g id="edge37" class="edge"><title>6&#45;&gt;7</title>
<path fill="none" stroke="black" d="M-74.1411,-49.4171C-84.6852,-54.2268 -95.8911,-59.3384 -104.328,-63.1869"/>
<polygon fill="black" stroke="black" points="-105.37,-61.7386 -109.192,-65.4059 -103.917,-64.9229 -105.37,-61.7386"/>
<text text-anchor="middle" x="-105.235" y="-49.902" font-family="monospace" font-size="8.00">K1603T</text>
</g>
<!-- 8 -->
<g id="node9" class="node"><title>8</title>
<ellipse fill="#ff3030" stroke="black" cx="-45.6665" cy="-143.39" rx="6" ry="6"/>
<text text-anchor="middle" x="-45.6665" y="-141.49" font-family="monospace" font-size="8.00">8</text>
</g>
<!-- 6&#45;&gt;8 -->
<g id="edge38" class="edge"><title>6&#45;&gt;8</title>
<path fill="none" stroke="black" d="M-43.6127,-69.6288C-44.2094,-91.0587 -44.9377,-117.217 -45.3471,-131.921"/>
<polygon fill="black" stroke="black" points="-47.1023,-132.087 -45.4923,-137.134 -43.6037,-132.184 -47.1023,-132.087"/>
<text text-anchor="middle" x="-60.4799" y="-103.375" font-family="monospace" font-size="8.00">L1667M</text>
</g>
<!-- 13 -->
<g id="node14" class="node"><title>13</title>
<ellipse fill="#ff3030" stroke="black" cx="-73.4458" cy="-137.791" rx="8" ry="8"/>
<text text-anchor="middle" x="-73.4458" y="-135.891" font-family="monospace" font-size="8.00">13</text>
</g>
<!-- 6&#45;&gt;13 -->
<g id="edge39" class="edge"><title>6&#45;&gt;13</title>
<path fill="none" stroke="black" d="M-52.5635,-68.1248C-58.3379,-87.389 -65.296,-110.602 -69.5437,-124.773"/>
<polygon fill="black" stroke="black" points="-71.3234,-124.615 -71.0828,-129.907 -67.9708,-125.62 -71.3234,-124.615"/>
<text text-anchor="middle" x="-77.0536" y="-90.0487" font-family="monospace" font-size="8.00">I1940T</text>
</g>
<!-- 14 -->
<g id="node15" class="node"><title>14</title>
<path fill="#98f5ff" stroke="black" stroke-width="0.5" d="M-142.122,-124.212C-142.122,-124.212 -136.122,-124.212 -136.122,-124.212 -136.122,-124.473 -136.139,-124.735 -136.174,-124.995 -136.208,-125.254 -136.259,-125.512 -136.327,-125.764 -136.395,-126.017 -136.479,-126.266 -136.579,-126.508 -136.679,-126.75 -136.795,-126.985 -136.926,-127.212 -137.057,-127.438 -137.203,-127.656 -137.362,-127.864 -137.522,-128.072 -137.694,-128.269 -137.88,-128.454 -138.065,-128.639 -138.262,-128.812 -138.47,-128.972 -138.678,-129.131 -138.896,-129.277 -139.122,-129.408 -139.349,-129.539 -139.584,-129.655 -139.826,-129.755 -140.068,-129.855 -140.316,-129.939 -140.569,-130.007 -140.822,-130.075 -141.08,-130.126 -141.339,-130.16 -141.599,-130.194 -141.86,-130.212 -142.122,-130.212 -142.384,-130.212 -142.646,-130.194 -142.905,-130.16 -143.165,-130.126 -143.422,-130.075 -143.675,-130.007 -143.928,-129.939 -144.176,-129.855 -144.418,-129.755 -144.66,-129.655 -144.896,-129.539 -145.122,-129.408 -145.122,-129.408 -142.122,-124.212 -142.122,-124.212"/>
<path fill="#ff3030" stroke="black" stroke-width="0.5" d="M-142.122,-124.212C-142.122,-124.212 -145.122,-129.408 -145.122,-129.408 -145.349,-129.277 -145.567,-129.131 -145.775,-128.972 -145.983,-128.812 -146.18,-128.639 -146.365,-128.454 -146.55,-128.269 -146.723,-128.072 -146.882,-127.864 -147.042,-127.656 -147.188,-127.438 -147.318,-127.212 -147.449,-126.985 -147.565,-126.75 -147.666,-126.508 -147.766,-126.266 -147.85,-126.017 -147.918,-125.764 -147.986,-125.512 -148.037,-125.254 -148.071,-124.995 -148.105,-124.735 -148.122,-124.473 -148.122,-124.212 -148.122,-123.95 -148.105,-123.688 -148.071,-123.428 -148.037,-123.169 -147.986,-122.912 -147.918,-122.659 -147.85,-122.406 -147.766,-122.157 -147.666,-121.915 -147.565,-121.673 -147.449,-121.438 -147.318,-121.212 -147.188,-120.985 -147.042,-120.767 -146.882,-120.559 -146.723,-120.351 -146.55,-120.154 -146.365,-119.969 -146.18,-119.784 -145.983,-119.611 -145.775,-119.451 -145.567,-119.292 -145.349,-119.146 -145.122,-119.015 -144.896,-118.884 -144.66,-118.769 -144.418,-118.668 -144.176,-118.568 -143.928,-118.484 -143.675,-118.416 -143.422,-118.348 -143.165,-118.297 -142.905,-118.263 -142.646,-118.229 -142.384,-118.212 -142.122,-118.212 -141.86,-118.212 -141.599,-118.229 -141.339,-118.263 -141.08,-118.297 -140.822,-118.348 -140.569,-118.416 -140.316,-118.484 -140.068,-118.568 -139.826,-118.668 -139.584,-118.769 -139.349,-118.884 -139.122,-119.015 -138.896,-119.146 -138.678,-119.292 -138.47,-119.451 -138.262,-119.611 -138.065,-119.784 -137.88,-119.969 -137.694,-120.154 -137.522,-120.351 -137.362,-120.559 -137.203,-120.767 -137.057,-120.985 -136.926,-121.212 -136.795,-121.438 -136.679,-121.674 -136.579,-121.915 -136.479,-122.157 -136.395,-122.406 -136.327,-122.659 -136.259,-122.912 -136.208,-123.169 -136.174,-123.428 -136.139,-123.688 -136.122,-123.95 -136.122,-124.212 -136.122,-124.212 -142.122,-124.212 -142.122,-124.212"/>
<ellipse fill="none" stroke="black" cx="-142.122" cy="-124.212" rx="6" ry="6"/>
<text text-anchor="middle" x="-142.122" y="-122.312" font-family="monospace" font-size="8.00">14</text>
</g>
<!-- 6&#45;&gt;14 -->
<g id="edge40" class="edge"><title>6&#45;&gt;14</title>
<path fill="none" stroke="black" d="M-68.5255,-58.2451C-90.0188,-77.51 -119.303,-103.758 -133.585,-116.56"/>
<polygon fill="black" stroke="black" points="-134.955,-115.438 -137.511,-120.078 -132.619,-118.044 -134.955,-115.438"/>
<text text-anchor="middle" x="-114.555" y="-90.0023" font-family="monospace" font-size="8.00">T791M</text>
</g>
<!-- 17 -->
<g id="node18" class="node"><title>17</title>
<ellipse fill="#ff3030" stroke="black" cx="-76.9988" cy="0.705987" rx="6" ry="6"/>
<text text-anchor="middle" x="-76.9988" y="2.60599" font-family="monospace" font-size="8.00">17</text>
</g>
<!-- 6&#45;&gt;17 -->
<g id="edge41" class="edge"><title>6&#45;&gt;17</title>
<path fill="none" stroke="black" d="M-66.8788,-9.82927C-67.5449,-9.13587 -68.1938,-8.4603 -68.8205,-7.80791"/>
<polygon fill="black" stroke="black" points="-67.8527,-6.28917 -72.5786,-3.89558 -70.3769,-8.71381 -67.8527,-6.28917"/>
<text text-anchor="middle" x="-83.8496" y="-11.4186" font-family="monospace" font-size="8.00">N1345I</text>
</g>
<!-- 19 -->
<g id="node20" class="node"><title>19</title>
<path fill="deepskyblue" stroke="black" stroke-width="0.5" d="M-133.816,-0.123872C-133.816,-0.123872 -122.316,-0.123872 -122.316,-0.123872 -122.316,-0.575606 -122.342,-1.02695 -122.396,-1.47555 -122.449,-1.92416 -122.528,-2.36924 -122.634,-2.80849 -122.739,-3.24775 -122.87,-3.6804 -123.027,-4.10422 -123.183,-4.52803 -123.364,-4.94226 -123.569,-5.34476 -123.774,-5.74726 -124.003,-6.13733 -124.254,-6.51293 -124.505,-6.88853 -124.778,-7.24902 -125.071,-7.59252 -125.365,-7.93603 -125.678,-8.26194 -126.01,-8.56858 -126.341,-8.87522 -126.691,-9.16204 -127.056,-9.42757 -127.422,-9.69309 -127.803,-9.93685 -128.197,-10.1576 -128.591,-10.3783 -128.998,-10.5756 -129.415,-10.7485 -129.832,-10.9214 -130.259,-11.0695 -130.694,-11.1921 -131.129,-11.3147 -131.571,-11.4116 -132.017,-11.4823 -132.463,-11.553 -132.913,-11.5973 -133.364,-11.615 -133.816,-11.6327 -134.268,-11.6239 -134.718,-11.5884 -135.168,-11.553 -135.616,-11.491 -136.059,-11.4029 -136.502,-11.3148 -136.94,-11.2006 -137.37,-11.061 -137.799,-10.9214 -138.22,-10.7566 -138.63,-10.5675 -139.041,-10.3784 -139.439,-10.1653 -139.825,-9.92923 -140.21,-9.6932 -140.581,-9.43468 -140.935,-9.15502 -141.29,-8.87535 -141.628,-8.57502 -141.948,-8.2556 -142.267,-7.93617 -142.567,-7.59821 -142.847,-7.24345 -143.127,-6.8887 -143.385,-6.51777 -143.621,-6.1326 -143.857,-5.74744 -144.07,-5.3487 -144.259,-4.93846 -144.449,-4.52822 -144.613,-4.10719 -144.753,-3.67757 -144.893,-3.24794 -145.007,-2.81046 -145.095,-2.36741 -145.183,-1.92435 -145.245,-1.47649 -145.28,-1.02615 -145.316,-0.575808 -145.325,-0.123769 -145.307,0.327618 -145.289,0.779004 -145.245,1.22895 -145.174,1.67513 -145.104,2.1213 -145.007,2.56292 -144.884,2.99769 -144.761,3.43247 -144.613,3.85964 -144.44,4.27699 -144.268,4.69434 -144.07,5.10114 -143.85,5.49527 -143.629,5.88941 -143.385,6.2702 -143.12,6.63566 -143.12,6.63566 -133.816,-0.123872 -133.816,-0.123872"/>
<path fill="#98f5ff" stroke="black" stroke-width="0.5" d="M-133.816,-0.123872C-133.816,-0.123872 -143.12,6.63566 -143.12,6.63566 -142.765,7.12305 -142.374,7.58186 -141.948,8.00786 -141.522,8.43385 -141.063,8.82571 -140.575,9.17982 -140.088,9.53393 -139.574,9.8492 -139.037,10.1227 -138.5,10.3962 -137.942,10.6271 -137.37,10.8133 -136.797,10.9994 -136.21,11.1403 -135.615,11.2345 -135.02,11.3288 -134.418,11.3761 -133.816,11.3761 -133.213,11.3761 -132.612,11.3288 -132.017,11.2345 -131.422,11.1403 -130.835,10.9994 -130.262,10.8133 -129.689,10.6271 -129.132,10.3962 -128.595,10.1227 -128.058,9.8492 -127.544,9.53393 -127.056,9.17982 -126.569,8.82571 -126.11,8.43385 -125.684,8.00786 -125.258,7.58186 -124.866,7.12305 -124.512,6.63566 -124.158,6.14827 -123.843,5.6338 -123.569,5.09702 -123.296,4.56023 -123.065,4.00279 -122.879,3.42982 -122.693,2.85686 -122.552,2.27016 -122.457,1.67512 -122.363,1.08009 -122.316,0.478576 -122.316,-0.123872 -122.316,-0.123872 -133.816,-0.123872 -133.816,-0.123872"/>
<ellipse fill="none" stroke="black" cx="-133.816" cy="-0.123872" rx="11.5" ry="11.5"/>
<text text-anchor="middle" x="-133.816" y="1.77613" font-family="monospace" font-size="8.00">19</text>
</g>
<!-- 6&#45;&gt;19 -->
<g id="edge42" class="edge"><title>6&#45;&gt;19</title>
<path fill="none" stroke="black" d="M-75.0484,-22.6395C-89.7367,-17.0119 -106.424,-10.6187 -118.253,-6.08643"/>
<polygon fill="black" stroke="black" points="-117.71,-4.42037 -123.006,-4.26562 -118.963,-7.68871 -117.71,-4.42037"/>
<text text-anchor="middle" x="-112.651" y="-16.963" font-family="monospace" font-size="8.00">E1597G</text>
</g>
<!-- 26 -->
<g id="node27" class="node"><title>26</title>
<ellipse fill="deepskyblue" stroke="black" cx="-50.279" cy="-83.0024" rx="5" ry="5"/>
<text text-anchor="middle" x="-50.279" y="-81.1024" font-family="monospace" font-size="8.00">26</text>
</g>
<!-- 6&#45;&gt;26 -->
<g id="edge43" class="edge"><title>6&#45;&gt;26</title>
<path fill="none" stroke="black" d="M-48.0724,-69.1332C-48.2762,-70.4146 -48.4726,-71.6488 -48.6585,-72.8169"/>
<polygon fill="black" stroke="black" points="-50.4285,-72.8049 -49.4859,-78.0178 -46.972,-73.3549 -50.4285,-72.8049"/>
<text text-anchor="middle" x="-32.3654" y="-73.5751" font-family="monospace" font-size="8.00">I1584T</text>
</g>
<!-- 31 -->
<g id="node32" class="node"><title>31</title>
<path fill="deepskyblue" stroke="black" stroke-width="0.5" d="M-108.002,-133.865C-108.002,-133.865 -95.5021,-133.865 -95.5021,-133.865 -95.5021,-134.343 -95.5294,-134.82 -95.584,-135.294 -95.6385,-135.768 -95.7202,-136.239 -95.8286,-136.704 -95.937,-137.169 -96.072,-137.627 -96.2328,-138.076 -96.3936,-138.526 -96.58,-138.966 -96.7912,-139.394 -97.0023,-139.822 -97.2378,-140.238 -97.4965,-140.639 -97.7552,-141.04 -98.0366,-141.426 -98.3395,-141.795 -98.6423,-142.164 -98.966,-142.516 -99.3091,-142.848 -99.6521,-143.18 -100.014,-143.492 -100.393,-143.782 -100.771,-144.073 -101.166,-144.341 -101.576,-144.587 -101.985,-144.832 -102.408,-145.054 -102.843,-145.251 -103.278,-145.448 -103.724,-145.62 -104.178,-145.766 -104.633,-145.912 -105.095,-146.032 -105.563,-146.125 -106.032,-146.218 -106.505,-146.284 -106.981,-146.323 -107.456,-146.362 -107.934,-146.374 -108.411,-146.359 -108.888,-146.343 -109.364,-146.3 -109.836,-146.23 -110.308,-146.16 -110.776,-146.063 -111.237,-145.939 -111.698,-145.816 -112.152,-145.666 -112.596,-145.491 -113.04,-145.315 -113.474,-145.114 -113.895,-144.889 -114.316,-144.664 -114.723,-144.415 -115.116,-144.144 -115.508,-143.872 -115.885,-143.578 -116.244,-143.263 -116.603,-142.949 -116.943,-142.613 -117.264,-142.26 -117.585,-141.906 -117.885,-141.534 -118.163,-141.146 -118.441,-140.758 -118.696,-140.355 -118.928,-139.937 -119.16,-139.52 -119.368,-139.09 -119.551,-138.649 -119.733,-138.208 -119.891,-137.757 -120.022,-137.298 -120.153,-136.839 -120.257,-136.372 -120.335,-135.901 -120.413,-135.43 -120.464,-134.955 -120.487,-134.479 -120.51,-134.002 -120.507,-133.524 -120.475,-133.048 -120.444,-132.571 -120.386,-132.097 -120.3,-131.628 -120.215,-131.158 -120.102,-130.694 -119.964,-130.237 -119.825,-129.78 -119.661,-129.331 -119.471,-128.893 -119.281,-128.455 -119.066,-128.029 -118.827,-127.615 -118.827,-127.615 -108.002,-133.865 -108.002,-133.865"/>
<path fill="#98f5ff" stroke="black" stroke-width="0.5" d="M-108.002,-133.865C-108.002,-133.865 -118.827,-127.615 -118.827,-127.615 -118.486,-127.025 -118.097,-126.463 -117.665,-125.935 -117.232,-125.408 -116.757,-124.917 -116.244,-124.467 -115.731,-124.018 -115.182,-123.61 -114.603,-123.25 -114.024,-122.89 -113.416,-122.578 -112.786,-122.317 -112.155,-122.056 -111.505,-121.847 -110.841,-121.692 -110.176,-121.537 -109.5,-121.437 -108.82,-121.392 -108.139,-121.347 -107.456,-121.359 -106.777,-121.425 -106.098,-121.492 -105.426,-121.615 -104.767,-121.791 -104.108,-121.968 -103.465,-122.198 -102.843,-122.479 -102.222,-122.761 -101.625,-123.093 -101.057,-123.472 -100.49,-123.851 -99.9551,-124.276 -99.4572,-124.742 -98.9593,-125.208 -98.5004,-125.715 -98.0852,-126.256 -97.6699,-126.797 -97.2996,-127.371 -96.9781,-127.973 -96.6565,-128.574 -96.3847,-129.201 -96.1655,-129.847 -95.9462,-130.493 -95.7802,-131.156 -95.669,-131.829 -95.5579,-132.502 -95.5021,-133.183 -95.5021,-133.865 -95.5021,-133.865 -108.002,-133.865 -108.002,-133.865"/>
<ellipse fill="none" stroke="black" cx="-108.002" cy="-133.865" rx="12.5" ry="12.5"/>
<text text-anchor="middle" x="-108.002" y="-131.965" font-family="monospace" font-size="8.00">31</text>
</g>
<!-- 6&#45;&gt;31 -->
<g id="edge47" class="edge"><title>6&#45;&gt;31</title>
<path fill="none" stroke="black" d="M-61.7282,-63.8987C-73.6099,-81.864 -88.4112,-104.244 -98.0272,-118.783"/>
<polygon fill="black" stroke="black" points="-99.5374,-117.894 -100.836,-123.03 -96.6181,-119.825 -99.5374,-117.894"/>
<text text-anchor="middle" x="-63.8777" y="-93.9409" font-family="monospace" font-size="8.00">V1853I</text>
</g>
<!-- 47 -->
<g id="node48" class="node"><title>47</title>
<ellipse fill="brown" stroke="black" cx="-91.2168" cy="-31.5478" rx="3.5" ry="3.5"/>
</g>
<!-- 6&#45;&gt;47 -->
<g id="edge48" class="edge"><title>6&#45;&gt;47</title>
<path fill="none" stroke="black" d="M-77.1693,-32.5614C-81.3718,-32.2582 -85.0738,-31.991 -87.6209,-31.8072"/>
</g>
<!-- 48 -->
<g id="node49" class="node"><title>48</title>
<ellipse fill="brown" stroke="black" cx="-25.7213" cy="19.0257" rx="6" ry="6"/>
<text text-anchor="middle" x="-25.7213" y="20.9257" font-family="monospace" font-size="8.00">48</text>
</g>
<!-- 6&#45;&gt;48 -->
<g id="edge49" class="edge"><title>6&#45;&gt;48</title>
<path fill="none" stroke="black" d="M-32.3148,-2.0371C-30.4975,3.76833 -28.8013,9.18687 -27.5844,13.074"/>
</g>
<!-- 50 -->
<g id="node51" class="node"><title>50</title>
<ellipse fill="brown" stroke="black" cx="22.909" cy="11.5468" rx="8" ry="8"/>
<text text-anchor="middle" x="22.909" y="13.4468" font-family="monospace" font-size="8.00">50</text>
</g>
<!-- 6&#45;&gt;50 -->
<g id="edge52" class="edge"><title>6&#45;&gt;50</title>
<path fill="none" stroke="black" d="M-14.4666,-15.0196C-3.08353,-6.92857 9.05393,1.6987 16.3076,6.85458"/>
</g>
<!-- 51 -->
<g id="node52" class="node"><title>51</title>
<ellipse fill="brown" stroke="black" cx="-14.458" cy="-71.282" rx="3.5" ry="3.5"/>
</g>
<!-- 6&#45;&gt;51 -->
<g id="edge53" class="edge"><title>6&#45;&gt;51</title>
<path fill="none" stroke="black" d="M-21.2825,-62.5118C-19.4394,-64.8804 -17.8246,-66.9554 -16.6292,-68.4917"/>
</g>
<!-- 54 -->
<g id="node55" class="node"><title>54</title>
<ellipse fill="brown" stroke="black" cx="-82.9112" cy="-70.6585" rx="3.5" ry="3.5"/>
</g>
<!-- 6&#45;&gt;54 -->
<g id="edge54" class="edge"><title>6&#45;&gt;54</title>
<path fill="none" stroke="black" d="M-68.8298,-58.2052C-73.3956,-62.2432 -77.5038,-65.8763 -80.0881,-68.1619"/>
</g>
<!-- anon_6_27_0 -->
<g id="node66" class="node"><title>anon_6_27_0</title>
<ellipse fill="white" stroke="black" cx="-139.726" cy="-38.8975" rx="2.5" ry="2.5"/>
</g>
<!-- 6&#45;&gt;anon_6_27_0 -->
<g id="edge44" class="edge"><title>6&#45;&gt;anon_6_27_0</title>
<path fill="none" stroke="black" d="M-77.1485,-36.4188C-100.255,-37.334 -128.006,-38.4333 -136.863,-38.7841"/>
</g>
<!-- anon_6_49_0 -->
<g id="node68" class="node"><title>anon_6_49_0</title>
<ellipse fill="white" stroke="black" cx="-23.7137" cy="-128.458" rx="2.5" ry="2.5"/>
</g>
<!-- 6&#45;&gt;anon_6_49_0 -->
<g id="edge50" class="edge"><title>6&#45;&gt;anon_6_49_0</title>
<path fill="none" stroke="black" d="M-35.76,-69.0382C-31.2762,-91.155 -25.9575,-117.391 -24.2616,-125.756"/>
</g>
<!-- 57 -->
<g id="node58" class="node"><title>57</title>
<ellipse fill="black" stroke="black" cx="-40.8675" cy="-210.756" rx="6" ry="6"/>
<text text-anchor="middle" x="-40.8675" y="-208.856" font-family="monospace" font-size="8.00">57</text>
</g>
<!-- 8&#45;&gt;57 -->
<g id="edge55" class="edge"><title>8&#45;&gt;57</title>
<path fill="none" stroke="black" d="M-45.2236,-149.607C-44.3047,-162.505 -42.2014,-192.032 -41.2955,-204.748"/>
</g>
<!-- 9 -->
<g id="node10" class="node"><title>9</title>
<ellipse fill="deepskyblue" stroke="black" cx="-227.847" cy="-221.518" rx="3.5" ry="3.5"/>
</g>
<!-- 15 -->
<g id="node16" class="node"><title>15</title>
<path fill="deepskyblue" stroke="black" stroke-width="0.5" d="M-213.057,-147.523C-213.057,-147.523 -195.057,-147.523 -195.057,-147.523 -195.057,-148.372 -195.117,-149.219 -195.236,-150.06 -195.356,-150.9 -195.535,-151.73 -195.771,-152.545 -196.008,-153.36 -196.302,-154.157 -196.651,-154.931 -197.001,-155.704 -197.404,-156.452 -197.859,-157.168 -198.314,-157.885 -198.818,-158.568 -199.369,-159.213 -199.921,-159.859 -200.517,-160.464 -201.153,-161.025 -201.79,-161.587 -202.465,-162.102 -203.174,-162.568 -203.884,-163.034 -204.625,-163.449 -205.393,-163.81 -206.161,-164.172 -206.953,-164.478 -207.764,-164.728 -208.575,-164.977 -209.403,-165.169 -210.241,-165.302 -211.079,-165.434 -211.926,-165.508 -212.774,-165.521 -213.622,-165.534 -214.471,-165.488 -215.313,-165.381 -216.155,-165.275 -216.988,-165.109 -217.806,-164.885 -218.625,-164.661 -219.427,-164.38 -220.205,-164.043 -220.984,-163.706 -221.738,-163.314 -222.462,-162.871 -223.185,-162.427 -223.877,-161.933 -224.53,-161.393 -225.184,-160.852 -225.799,-160.265 -226.37,-159.638 -226.941,-159.01 -227.467,-158.343 -227.944,-157.641 -228.421,-156.939 -228.848,-156.204 -229.221,-155.442 -229.595,-154.68 -229.914,-153.893 -230.176,-153.086 -230.438,-152.279 -230.643,-151.454 -230.789,-150.618 -230.935,-149.782 -231.021,-148.937 -231.048,-148.089 -231.074,-147.241 -231.041,-146.392 -230.948,-145.548 -230.855,-144.705 -230.702,-143.869 -230.491,-143.047 -230.28,-142.225 -230.011,-141.419 -229.687,-140.635 -229.362,-139.851 -228.982,-139.091 -228.55,-138.361 -228.118,-137.63 -227.635,-136.931 -227.104,-136.269 -226.574,-135.607 -225.997,-134.983 -225.379,-134.402 -224.76,-133.821 -224.101,-133.285 -223.407,-132.797 -222.713,-132.309 -221.985,-131.87 -221.229,-131.485 -220.472,-131.1 -219.69,-130.769 -218.887,-130.494 -218.084,-130.219 -217.263,-130.001 -216.43,-129.842 -216.43,-129.842 -213.057,-147.523 -213.057,-147.523"/>
<path fill="#98f5ff" stroke="black" stroke-width="0.5" d="M-213.057,-147.523C-213.057,-147.523 -216.43,-129.842 -216.43,-129.842 -215.781,-129.718 -215.127,-129.631 -214.469,-129.579 -213.811,-129.527 -213.151,-129.511 -212.491,-129.532 -211.832,-129.553 -211.174,-129.61 -210.521,-129.703 -209.867,-129.796 -209.219,-129.925 -208.58,-130.089 -207.941,-130.253 -207.311,-130.452 -206.694,-130.685 -206.077,-130.919 -205.473,-131.186 -204.885,-131.485 -204.297,-131.785 -203.726,-132.116 -203.174,-132.479 -202.623,-132.841 -202.092,-133.233 -201.583,-133.654 -201.075,-134.075 -200.59,-134.523 -200.13,-134.997 -199.671,-135.471 -199.238,-135.97 -198.834,-136.491 -198.429,-137.012 -198.054,-137.556 -197.709,-138.118 -197.364,-138.681 -197.051,-139.262 -196.77,-139.859 -196.489,-140.456 -196.241,-141.068 -196.027,-141.693 -195.813,-142.317 -195.634,-142.953 -195.49,-143.597 -195.346,-144.241 -195.238,-144.892 -195.165,-145.548 -195.093,-146.204 -195.057,-146.863 -195.057,-147.523 -195.057,-147.523 -213.057,-147.523 -213.057,-147.523"/>
<ellipse fill="none" stroke="black" cx="-213.057" cy="-147.523" rx="18" ry="18"/>
<text text-anchor="middle" x="-213.057" y="-145.623" font-family="monospace" font-size="8.00">15</text>
</g>
<!-- 9&#45;&gt;15 -->
<g id="edge56" class="edge"><title>9&#45;&gt;15</title>
<path fill="none" stroke="black" d="M-227.133,-217.949C-225.264,-208.595 -220.123,-182.878 -216.6,-165.253"/>
</g>
<!-- 12 -->
<g id="node13" class="node"><title>12</title>
<ellipse fill="deepskyblue" stroke="black" cx="-254.014" cy="-190.713" rx="3.5" ry="3.5"/>
</g>
<!-- 12&#45;&gt;15 -->
<g id="edge57" class="edge"><title>12&#45;&gt;15</title>
<path fill="none" stroke="black" d="M-251.575,-188.141C-246.546,-182.838 -234.725,-170.373 -225.495,-160.639"/>
</g>
<!-- 28 -->
<g id="node29" class="node"><title>28</title>
<ellipse fill="#ff3030" stroke="black" cx="-79.8319" cy="-202.886" rx="3.5" ry="3.5"/>
</g>
<!-- 13&#45;&gt;28 -->
<g id="edge58" class="edge"><title>13&#45;&gt;28</title>
<path fill="none" stroke="black" d="M-74.2288,-145.773C-75.6277,-160.032 -78.5019,-189.33 -79.4897,-199.398"/>
</g>
<!-- 14&#45;&gt;15 -->
<g id="edge59" class="edge"><title>14&#45;&gt;15</title>
<path fill="none" stroke="black" d="M-148.17,-126.199C-157.562,-129.286 -176.119,-135.384 -190.991,-140.272"/>
<polygon fill="black" stroke="black" points="-191.67,-138.653 -195.874,-141.876 -190.578,-141.978 -191.67,-138.653"/>
<text text-anchor="middle" x="-153.58" y="-135.835" font-family="monospace" font-size="8.00">A1746S</text>
</g>
<!-- 61 -->
<g id="node62" class="node"><title>61</title>
<ellipse fill="white" stroke="black" cx="-141.102" cy="-178.799" rx="2.5" ry="2.5"/>
</g>
<!-- 14&#45;&gt;61 -->
<g id="edge60" class="edge"><title>14&#45;&gt;61</title>
<path fill="none" stroke="black" d="M-142.005,-130.473C-141.818,-140.492 -141.451,-160.104 -141.247,-171.011"/>
<polygon fill="black" stroke="black" points="-142.996,-171.093 -141.153,-176.059 -139.497,-171.027 -142.996,-171.093"/>
<text text-anchor="middle" x="-157.626" y="-153.342" font-family="monospace" font-size="8.00">V1853I</text>
</g>
<!-- anon_15_23_0 -->
<g id="node69" class="node"><title>anon_15_23_0</title>
<ellipse fill="white" stroke="black" cx="-280.207" cy="-133.807" rx="2.5" ry="2.5"/>
</g>
<!-- 15&#45;&gt;anon_15_23_0 -->
<g id="edge61" class="edge"><title>15&#45;&gt;anon_15_23_0</title>
<path fill="none" stroke="black" d="M-230.7,-143.92C-246.865,-140.618 -269.445,-136.006 -277.344,-134.392"/>
</g>
<!-- 33 -->
<g id="node34" class="node"><title>33</title>
<ellipse fill="deepskyblue" stroke="black" cx="-190.222" cy="29.2841" rx="3.5" ry="3.5"/>
</g>
<!-- 19&#45;&gt;33 -->
<g id="edge64" class="edge"><title>19&#45;&gt;33</title>
<path fill="none" stroke="black" d="M-144.162,5.27C-157.138,12.0353 -178.682,23.2676 -186.899,27.5515"/>
</g>
<!-- 20 -->
<g id="node21" class="node"><title>20</title>
<ellipse fill="deepskyblue" stroke="black" cx="-155.216" cy="-278.106" rx="3.5" ry="3.5"/>
</g>
<!-- anon_20_61_0 -->
<g id="node71" class="node"><title>anon_20_61_0</title>
<ellipse fill="white" stroke="black" cx="-147.186" cy="-229.431" rx="2.5" ry="2.5"/>
</g>
<!-- 20&#45;&gt;anon_20_61_0 -->
<g id="edge65" class="edge"><title>20&#45;&gt;anon_20_61_0</title>
<path fill="none" stroke="black" d="M-154.638,-274.605C-153.113,-265.363 -149.003,-240.448 -147.635,-232.157"/>
</g>
<!-- 23 -->
<g id="node24" class="node"><title>23</title>
<ellipse fill="deepskyblue" stroke="black" cx="-365.457" cy="-155.346" rx="3.5" ry="3.5"/>
</g>
<!-- 27 -->
<g id="node28" class="node"><title>27</title>
<ellipse fill="#ff3030" stroke="black" cx="-233.578" cy="-19.0811" rx="5" ry="5"/>
<text text-anchor="middle" x="-233.578" y="-17.1811" font-family="monospace" font-size="8.00">27</text>
</g>
<!-- 31&#45;&gt;61 -->
<g id="edge73" class="edge"><title>31&#45;&gt;61</title>
<path fill="none" stroke="black" stroke-dasharray="5,2" d="M-115.679,-144.287C-122.134,-153.05 -131.146,-165.283 -136.526,-172.586"/>
<polygon fill="black" stroke="black" points="-138.037,-171.688 -139.594,-176.751 -135.219,-173.764 -138.037,-171.688"/>
<text text-anchor="middle" x="-112.602" y="-161.037" font-family="monospace" font-size="8.00">T791M</text>
</g>
<!-- 35 -->
<g id="node36" class="node"><title>35</title>
<ellipse fill="#ff3030" stroke="black" cx="202.406" cy="71.2669" rx="3.5" ry="3.5"/>
</g>
<!-- 37 -->
<g id="node38" class="node"><title>37</title>
<ellipse fill="#ff3030" stroke="black" cx="-109.716" cy="166.736" rx="3.5" ry="3.5"/>
</g>
<!-- 37&#45;&gt;60 -->
<g id="edge67" class="edge"><title>37&#45;&gt;60</title>
<path fill="none" stroke="black" d="M-108.811,163.101C-106.422,153.503 -99.9804,127.629 -97.8368,119.018"/>
</g>
<!-- 40 -->
<g id="node41" class="node"><title>40</title>
<ellipse fill="deepskyblue" stroke="black" cx="233.337" cy="-142.851" rx="3.5" ry="3.5"/>
</g>
<!-- 42 -->
<g id="node43" class="node"><title>42</title>
<ellipse fill="#1874cd" stroke="black" cx="173.157" cy="-209.833" rx="3.5" ry="3.5"/>
</g>
<!-- 42&#45;&gt;46 -->
<g id="edge68" class="edge"><title>42&#45;&gt;46</title>
<path fill="none" stroke="black" d="M171.302,-206.743C166.59,-198.891 154.188,-178.226 149.344,-170.155"/>
</g>
<!-- 45 -->
<g id="node46" class="node"><title>45</title>
<ellipse fill="#1874cd" stroke="black" cx="254.248" cy="-24.5705" rx="3.5" ry="3.5"/>
</g>
<!-- 48&#45;&gt;11 -->
<g id="edge72" class="edge"><title>48&#45;&gt;11</title>
<path fill="none" stroke="black" stroke-dasharray="5,2" d="M-22.5857,13.8407C-18.4588,7.01655 -11.1703,-5.03555 -6.39678,-12.9289"/>
<polygon fill="black" stroke="black" points="-7.64853,-14.2409 -3.56362,-17.6138 -4.65359,-12.4297 -7.64853,-14.2409"/>
<text text-anchor="middle" x="-30.4912" y="6.85589" font-family="monospace" font-size="8.00">P1874L</text>
</g>
<!-- 48&#45;&gt;32 -->
<g id="edge74" class="edge"><title>48&#45;&gt;32</title>
<path fill="none" stroke="black" stroke-dasharray="5,2" d="M-24.9936,25.2073C-24.0175,33.4994 -22.2791,48.2664 -21.1734,57.6592"/>
<polygon fill="black" stroke="black" points="-19.4258,57.5368 -20.5791,62.7072 -22.9018,57.9461 -19.4258,57.5368"/>
<text text-anchor="middle" x="-39.0835" y="38.8332" font-family="monospace" font-size="8.00">P1874S</text>
</g>
<!-- 49 -->
<g id="node50" class="node"><title>49</title>
<ellipse fill="brown" stroke="black" cx="-17.1745" cy="-171.757" rx="3.5" ry="3.5"/>
</g>
<!-- 50&#45;&gt;41 -->
<g id="edge75" class="edge"><title>50&#45;&gt;41</title>
<path fill="none" stroke="black" stroke-dasharray="5,2" d="M29.9136,6.93654C37.0806,2.21931 48.1816,-5.08713 55.5487,-9.93601"/>
<polygon fill="black" stroke="black" points="54.8195,-11.5511 59.9582,-12.8383 56.7438,-8.62752 54.8195,-11.5511"/>
<text text-anchor="middle" x="26.7311" y="-4.09974" font-family="monospace" font-size="8.00">N1570Y</text>
</g>
<!-- 52 -->
<g id="node53" class="node"><title>52</title>
<ellipse fill="brown" stroke="black" cx="22.2737" cy="73.2178" rx="3.5" ry="3.5"/>
</g>
<!-- 50&#45;&gt;52 -->
<g id="edge69" class="edge"><title>50&#45;&gt;52</title>
<path fill="none" stroke="black" d="M22.8259,19.6092C22.686,33.1915 22.4089,60.0926 22.3099,69.703"/>
</g>
<!-- 53 -->
<g id="node54" class="node"><title>53</title>
<ellipse fill="brown" stroke="black" cx="47.365" cy="66.1348" rx="3.5" ry="3.5"/>
</g>
<!-- 50&#45;&gt;53 -->
<g id="edge70" class="edge"><title>50&#45;&gt;53</title>
<path fill="none" stroke="black" d="M26.3095,19.137C31.7169,31.2068 42.0557,54.2838 45.888,62.8379"/>
</g>
<!-- 61&#45;&gt;anon_20_61_0 -->
<g id="edge66" class="edge"><title>61&#45;&gt;anon_20_61_0</title>
<path fill="none" stroke="black" d="M-141.429,-181.521C-142.329,-189.008 -144.865,-210.117 -146.252,-221.658"/>
<polygon fill="black" stroke="black" points="-148.027,-221.765 -146.886,-226.938 -144.552,-222.182 -148.027,-221.765"/>
<text text-anchor="middle" x="-159.84" y="-204.189" font-family="monospace" font-size="8.00">L1366F</text>
</g>
<!-- anon_3_35_0&#45;&gt;35 -->
<g id="edge18" class="edge"><title>anon_3_35_0&#45;&gt;35</title>
<path fill="none" stroke="black" d="M176.982,40.197C181.711,45.9764 194.568,61.6891 199.967,68.2868"/>
</g>
<!-- anon_3_40_0&#45;&gt;40 -->
<g id="edge21" class="edge"><title>anon_3_40_0&#45;&gt;40</title>
<path fill="none" stroke="black" d="M199.578,-121.202C204.778,-124.537 217.38,-132.618 225.63,-137.909"/>
<polygon fill="black" stroke="black" points="224.945,-139.549 230.099,-140.775 226.834,-136.602 224.945,-139.549"/>
<text text-anchor="middle" x="199.104" y="-132.155" font-family="monospace" font-size="8.00">P940H</text>
</g>
<!-- anon_3_45_0&#45;&gt;45 -->
<g id="edge26" class="edge"><title>anon_3_45_0&#45;&gt;45</title>
<path fill="none" stroke="black" d="M215.361,-34.256C222.594,-32.4544 242.26,-27.5562 250.518,-25.4995"/>
</g>
<!-- anon_6_27_1 -->
<g id="node67" class="node"><title>anon_6_27_1</title>
<ellipse fill="white" stroke="black" cx="-190.422" cy="-30.4641" rx="2.5" ry="2.5"/>
</g>
<!-- anon_6_27_0&#45;&gt;anon_6_27_1 -->
<g id="edge45" class="edge"><title>anon_6_27_0&#45;&gt;anon_6_27_1</title>
<path fill="none" stroke="black" d="M-142.451,-38.4441C-151.336,-36.9661 -179.379,-32.3012 -187.925,-30.8795"/>
</g>
<!-- anon_6_27_1&#45;&gt;27 -->
<g id="edge46" class="edge"><title>anon_6_27_1&#45;&gt;27</title>
<path fill="none" stroke="black" d="M-192.992,-29.7862C-198.871,-28.2354 -213.562,-24.3605 -223.558,-21.7239"/>
<polygon fill="black" stroke="black" points="-223.262,-19.9924 -228.543,-20.4092 -224.154,-23.3766 -223.262,-19.9924"/>
<text text-anchor="middle" x="-219.275" y="-28.3551" font-family="monospace" font-size="8.00">G54C</text>
</g>
<!-- anon_6_49_0&#45;&gt;49 -->
<g id="edge51" class="edge"><title>anon_6_49_0&#45;&gt;49</title>
<path fill="none" stroke="black" d="M-23.3242,-131.037C-22.2134,-138.392 -19.0267,-159.493 -17.7317,-168.068"/>
</g>
<!-- anon_15_23_1 -->
<g id="node70" class="node"><title>anon_15_23_1</title>
<ellipse fill="white" stroke="black" cx="-324.951" cy="-142.724" rx="2.5" ry="2.5"/>
</g>
<!-- anon_15_23_0&#45;&gt;anon_15_23_1 -->
<g id="edge62" class="edge"><title>anon_15_23_0&#45;&gt;anon_15_23_1</title>
<path fill="none" stroke="black" d="M-282.872,-134.338C-289.541,-135.667 -307.142,-139.175 -317.343,-141.208"/>
<polygon fill="black" stroke="black" points="-317.795,-139.513 -322.356,-142.207 -317.11,-142.946 -317.795,-139.513"/>
<text text-anchor="middle" x="-313.608" y="-131.373" font-family="monospace" font-size="8.00">Q545L</text>
</g>
<!-- anon_15_23_1&#45;&gt;23 -->
<g id="edge63" class="edge"><title>anon_15_23_1&#45;&gt;23</title>
<path fill="none" stroke="black" d="M-327.609,-143.552C-334.649,-145.746 -353.79,-151.71 -361.827,-154.215"/>
</g>
</g>
</svg>
