<?xml version="1.0" encoding="UTF-8" standalone="no"?>
<!DOCTYPE svg PUBLIC "-//W3C//DTD SVG 1.1//EN"
 "http://www.w3.org/Graphics/SVG/1.1/DTD/svg11.dtd">
<!-- Generated by graphviz version 2.38.0 (20140413.2041)
 -->
<!-- Title: %3 Pages: 1 -->
<svg width="467pt" height="608pt"
 viewBox="0.00 0.00 467.02 608.22" xmlns="http://www.w3.org/2000/svg" xmlns:xlink="http://www.w3.org/1999/xlink">
<g id="graph0" class="graph" transform="scale(1 1) rotate(0) translate(262.346 295.758)">
<title>%3</title>
<polygon fill="white" stroke="none" points="-262.346,312.459 -262.346,-295.758 204.671,-295.758 204.671,312.459 -262.346,312.459"/>
<!-- 0 -->
<g id="node1" class="node"><title>0</title>
<path fill="#98f5ff" stroke="black" stroke-width="0.5" d="M7.98144,-173.207C7.98144,-173.207 25.9814,-173.207 25.9814,-173.207 25.9814,-174.244 25.8918,-175.28 25.7134,-176.302 25.5351,-177.324 25.2687,-178.328 24.9173,-179.304 24.5659,-180.28 24.1308,-181.224 23.6168,-182.125 23.1028,-183.026 22.5119,-183.881 21.8507,-184.681 21.1894,-185.48 20.4603,-186.221 19.6715,-186.894 18.8827,-187.568 18.0371,-188.172 17.1442,-188.7 16.2513,-189.228 15.3144,-189.678 14.344,-190.045 13.3736,-190.412 12.3733,-190.694 11.3543,-190.888 11.3543,-190.888 7.98144,-173.207 7.98144,-173.207"/>
<path fill="deepskyblue" stroke="black" stroke-width="0.5" d="M7.98144,-173.207C7.98144,-173.207 11.3543,-190.888 11.3543,-190.888 10.4512,-191.06 9.53627,-191.163 8.61748,-191.196 7.69869,-191.228 6.77876,-191.19 5.86576,-191.082 4.95277,-190.974 4.0494,-190.796 3.16358,-190.55 2.27776,-190.304 1.41209,-189.991 0.574179,-189.612 -0.263733,-189.234 -1.07143,-188.792 -1.84182,-188.29 -2.61221,-187.788 -3.34302,-187.228 -4.02785,-186.615 -4.71268,-186.002 -5.34951,-185.337 -5.93275,-184.626 -6.51599,-183.915 -7.04392,-183.161 -7.51192,-182.37 -7.97991,-181.578 -8.38659,-180.752 -8.72839,-179.899 -9.07018,-179.045 -9.34609,-178.167 -9.55368,-177.271 -9.76128,-176.376 -9.89995,-175.466 -9.96848,-174.549 -10.037,-173.632 -10.0352,-172.711 -9.96307,-171.795 -9.89094,-170.878 -9.7487,-169.968 -9.53759,-169.074 -9.32648,-168.179 -9.04712,-167.302 -8.70198,-166.449 -8.35684,-165.597 -7.94692,-164.773 -7.47582,-163.983 -7.00472,-163.194 -6.47383,-162.442 -5.8878,-161.733 -5.30178,-161.025 -4.66234,-160.362 -3.97511,-159.752 -3.28787,-159.141 -2.55486,-158.584 -1.78251,-158.085 -1.01016,-157.587 -0.200732,-157.148 0.638659,-156.773 1.47805,-156.398 2.34494,-156.088 3.23172,-155.845 4.1185,-155.602 5.02257,-155.428 5.93598,-155.324 6.84939,-155.219 7.76946,-155.185 8.68811,-155.221 9.60677,-155.257 10.5213,-155.363 11.4237,-155.539 12.3261,-155.715 13.2137,-155.96 14.0787,-156.271 14.9437,-156.583 15.7836,-156.96 16.591,-157.399 17.3984,-157.839 18.1709,-158.34 18.9017,-158.898 19.6326,-159.456 20.3196,-160.069 20.9568,-160.731 21.594,-161.394 22.1795,-162.105 22.7081,-162.857 23.2368,-163.609 23.707,-164.401 24.1147,-165.225 24.5224,-166.049 24.8664,-166.903 25.1436,-167.779 25.4208,-168.656 25.6305,-169.552 25.7707,-170.461 25.911,-171.37 25.9814,-172.288 25.9814,-173.207 25.9814,-173.207 7.98144,-173.207 7.98144,-173.207"/>
<ellipse fill="none" stroke="black" cx="7.98144" cy="-173.207" rx="18" ry="18"/>
<text text-anchor="middle" x="7.98144" y="-171.307" font-family="monospace" font-size="8.00">0</text>
</g>
<!-- 22 -->
<g id="node23" class="node"><title>22</title>
<ellipse fill="deepskyblue" stroke="black" cx="3.14909" cy="-240.562" rx="2.5" ry="2.5"/>
<text text-anchor="middle" x="3.14909" y="-238.662" font-family="monospace" font-size="8.00">22</text>
</g>
<!-- 0&#45;&gt;22 -->
<g id="edge2" class="edge"><title>0&#45;&gt;22</title>
<path fill="none" stroke="black" d="M6.68646,-191.257C5.52344,-207.467 3.91511,-229.885 3.35287,-237.722"/>
</g>
<!-- 24 -->
<g id="node25" class="node"><title>24</title>
<ellipse fill="deepskyblue" stroke="black" cx="-42.8624" cy="-233.321" rx="2.5" ry="2.5"/>
<text text-anchor="middle" x="-42.8624" y="-231.421" font-family="monospace" font-size="8.00">24</text>
</g>
<!-- 0&#45;&gt;24 -->
<g id="edge3" class="edge"><title>0&#45;&gt;24</title>
<path fill="none" stroke="black" d="M-2.81697,-187.769C-5.3155,-191.023 -7.99884,-194.429 -10.5776,-197.535 -19.6099,-208.416 -30.7867,-220.526 -37.3402,-227.501"/>
<polygon fill="black" stroke="black" points="-38.8922,-226.595 -41.0555,-231.431 -36.3488,-229 -38.8922,-226.595"/>
<text text-anchor="middle" x="-32.5138" y="-212.815" font-family="monospace" font-size="8.00">P55L</text>
</g>
<!-- 58 -->
<g id="node59" class="node"><title>58</title>
<ellipse fill="black" stroke="black" cx="47.8546" cy="-225.385" rx="2.5" ry="2.5"/>
<text text-anchor="middle" x="47.8546" y="-223.485" font-family="monospace" font-size="8.00">58</text>
</g>
<!-- 0&#45;&gt;58 -->
<g id="edge4" class="edge"><title>0&#45;&gt;58</title>
<path fill="none" stroke="black" d="M19.0883,-187.741C28.6743,-200.286 41.6733,-217.296 46.2109,-223.234"/>
</g>
<!-- 1 -->
<g id="node2" class="node"><title>1</title>
<ellipse fill="deepskyblue" stroke="black" cx="33.908" cy="195.873" rx="2.5" ry="2.5"/>
<text text-anchor="middle" x="33.908" y="197.773" font-family="monospace" font-size="8.00">1</text>
</g>
<!-- 3 -->
<g id="node4" class="node"><title>3</title>
<path fill="#98f5ff" stroke="black" stroke-width="0.5" d="M-11.1791,177.374C-11.1791,177.374 12.8209,177.374 12.8209,177.374 12.8209,176.676 12.7904,175.978 12.7296,175.283 12.6687,174.587 12.5775,173.895 12.4563,173.207 12.335,172.519 12.1838,171.837 12.0031,171.163 11.8224,170.488 11.6123,169.822 11.3735,169.166 11.3735,169.166 -11.1791,177.374 -11.1791,177.374"/>
<path fill="deepskyblue" stroke="black" stroke-width="0.5" d="M-11.1791,177.374C-11.1791,177.374 11.3735,169.166 11.3735,169.166 11.0391,168.247 10.6489,167.35 10.205,166.479 9.76118,165.608 9.2645,164.764 8.71778,163.954 8.17107,163.143 7.57533,162.367 6.93391,161.629 6.29249,160.891 5.60658,160.193 4.88002,159.539 4.15345,158.885 3.38759,158.276 2.58672,157.715 1.78584,157.154 0.951448,156.643 0.0882002,156.184 -0.775047,155.725 -1.66554,155.319 -2.57829,154.968 -3.49104,154.618 -4.42435,154.324 -5.37299,154.087 -6.32164,153.851 -7.28385,153.672 -8.25425,153.553 -9.22465,153.434 -10.2014,153.374 -11.1791,153.374 -12.1568,153.374 -13.1336,153.434 -14.104,153.553 -15.0744,153.672 -16.0366,153.851 -16.9852,154.087 -17.9339,154.324 -18.8672,154.618 -19.7799,154.968 -20.6927,155.319 -21.5832,155.725 -22.4464,156.184 -23.3097,156.643 -24.1441,157.154 -24.945,157.715 -25.7458,158.276 -26.5117,158.885 -27.2383,159.539 -27.2383,159.539 -11.1791,177.374 -11.1791,177.374"/>
<path fill="#ff3030" stroke="black" stroke-width="0.5" d="M-11.1791,177.374C-11.1791,177.374 -27.2383,159.539 -27.2383,159.539 -28.0427,160.263 -28.7973,161.041 -29.4967,161.867 -30.1961,162.694 -30.8389,163.566 -31.4205,164.479 -32.0021,165.392 -32.5213,166.344 -32.9746,167.327 -33.4278,168.31 -33.8139,169.322 -34.1304,170.358 -34.4469,171.393 -34.693,172.448 -34.867,173.517 -35.041,174.585 -35.1426,175.664 -35.1709,176.746 -35.1992,177.828 -35.1543,178.911 -35.0365,179.987 -34.9186,181.063 -34.7281,182.13 -34.4662,183.181 -34.2043,184.231 -33.8717,185.262 -33.4705,186.268 -33.0694,187.273 -32.6007,188.25 -32.0677,189.193 -31.5346,190.135 -30.9384,191.04 -30.2832,191.901 -29.6279,192.763 -28.9151,193.58 -28.1497,194.345 -27.3842,195.11 -26.5679,195.823 -25.7062,196.478 -24.8445,197.134 -23.9395,197.73 -22.9973,198.263 -22.0551,198.796 -21.0779,199.265 -20.0725,199.666 -19.067,200.067 -18.0356,200.4 -16.9852,200.662 -16.9852,200.662 -11.1791,177.374 -11.1791,177.374"/>
<path fill="#1874cd" stroke="black" stroke-width="0.5" d="M-11.1791,177.374C-11.1791,177.374 -16.9852,200.662 -16.9852,200.662 -16.1044,200.881 -15.2118,201.051 -14.3117,201.169 -13.4117,201.288 -12.5056,201.355 -11.598,201.371 -10.6903,201.387 -9.78245,201.351 -8.87882,201.264 -7.97518,201.177 -7.07721,201.039 -6.18923,200.85 -5.30126,200.661 -4.4247,200.422 -3.5638,200.134 -2.7029,199.846 -1.85904,199.509 -1.03628,199.126 -0.213517,198.742 0.586811,198.312 1.36085,197.838 2.13489,197.363 2.88139,196.846 3.59676,196.287 4.31213,195.728 4.99521,195.129 5.64271,194.492 6.29021,193.856 6.90108,193.184 7.47239,192.478 8.04369,191.773 8.57451,191.035 9.06228,190.27 9.55005,189.504 9.99398,188.711 10.3919,187.895 10.7899,187.079 11.1412,186.242 11.4443,185.386 11.7473,184.53 12.0016,183.658 12.2058,182.773 12.41,181.889 12.5638,180.993 12.6666,180.091 12.7694,179.189 12.8209,178.282 12.8209,177.374 12.8209,177.374 -11.1791,177.374 -11.1791,177.374"/>
<ellipse fill="none" stroke="black" cx="-11.1791" cy="177.374" rx="24" ry="24"/>
<text text-anchor="middle" x="-11.1791" y="179.274" font-family="monospace" font-size="8.00">3</text>
</g>
<!-- 1&#45;&gt;3 -->
<g id="edge5" class="edge"><title>1&#45;&gt;3</title>
<path fill="none" stroke="black" d="M31.4839,194.878C27.5331,193.257 19.3226,189.889 11.1498,186.536"/>
</g>
<!-- 2 -->
<g id="node3" class="node"><title>2</title>
<ellipse fill="#ff3030" stroke="black" cx="87.7237" cy="-82.0662" rx="10" ry="10"/>
<text text-anchor="middle" x="87.7237" y="-80.1662" font-family="monospace" font-size="8.00">2</text>
</g>
<!-- anon_37_2_0 -->
<g id="node68" class="node"><title>anon_37_2_0</title>
<ellipse fill="white" stroke="black" cx="151.069" cy="-78.5026" rx="1" ry="1"/>
</g>
<!-- 2&#45;&gt;anon_37_2_0 -->
<g id="edge52" class="edge"><title>2&#45;&gt;anon_37_2_0</title>
<path fill="none" stroke="black" d="M97.9012,-81.4937C110.999,-80.7569 133.381,-79.4977 144.459,-78.8745"/>
<polygon fill="black" stroke="black" points="144.625,-80.618 149.519,-78.5898 144.428,-77.1235 144.625,-80.618"/>
<text text-anchor="middle" x="139.951" y="-82.6282" font-family="monospace" font-size="8.00">P1874S</text>
</g>
<!-- 10 -->
<g id="node11" class="node"><title>10</title>
<ellipse fill="#ff3030" stroke="black" cx="-34.1279" cy="241.932" rx="2.5" ry="2.5"/>
<text text-anchor="middle" x="-34.1279" y="243.832" font-family="monospace" font-size="8.00">10</text>
</g>
<!-- 3&#45;&gt;10 -->
<g id="edge7" class="edge"><title>3&#45;&gt;10</title>
<path fill="none" stroke="black" d="M-19.3346,200.317C-24.5909,215.104 -30.8638,232.75 -33.1953,239.309"/>
</g>
<!-- 16 -->
<g id="node17" class="node"><title>16</title>
<ellipse fill="#ff3030" stroke="black" cx="24.3853" cy="234.285" rx="2.5" ry="2.5"/>
<text text-anchor="middle" x="24.3853" y="236.185" font-family="monospace" font-size="8.00">16</text>
</g>
<!-- 3&#45;&gt;16 -->
<g id="edge38" class="edge"><title>3&#45;&gt;16</title>
<path fill="none" stroke="black" d="M1.66045,197.92C8.12929,208.272 15.5461,220.14 20.0984,227.425"/>
<polygon fill="black" stroke="black" points="21.7924,226.834 22.9581,232.001 18.8243,228.689 21.7924,226.834"/>
<text text-anchor="middle" x="-1.29883" y="212.188" font-family="monospace" font-size="8.00">M704V</text>
</g>
<!-- 21 -->
<g id="node22" class="node"><title>21</title>
<ellipse fill="deepskyblue" stroke="black" cx="-60.9856" cy="191.844" rx="2.5" ry="2.5"/>
<text text-anchor="middle" x="-60.9856" y="193.744" font-family="monospace" font-size="8.00">21</text>
</g>
<!-- 3&#45;&gt;21 -->
<g id="edge8" class="edge"><title>3&#45;&gt;21</title>
<path fill="none" stroke="black" d="M-34.3326,184.101C-43.8844,186.876 -53.7811,189.751 -58.3648,191.083"/>
</g>
<!-- 25 -->
<g id="node26" class="node"><title>25</title>
<ellipse fill="deepskyblue" stroke="black" cx="-5.27699" cy="225.986" rx="2.5" ry="2.5"/>
<text text-anchor="middle" x="-5.27699" y="227.886" font-family="monospace" font-size="8.00">25</text>
</g>
<!-- 3&#45;&gt;25 -->
<g id="edge9" class="edge"><title>3&#45;&gt;25</title>
<path fill="none" stroke="black" d="M-8.26264,201.395C-7.19388,210.198 -6.11907,219.05 -5.59903,223.334"/>
</g>
<!-- 29 -->
<g id="node30" class="node"><title>29</title>
<ellipse fill="deepskyblue" stroke="black" cx="63.8231" cy="207.218" rx="2.5" ry="2.5"/>
<text text-anchor="middle" x="63.8231" y="209.118" font-family="monospace" font-size="8.00">29</text>
</g>
<!-- 3&#45;&gt;29 -->
<g id="edge44" class="edge"><title>3&#45;&gt;29</title>
<path fill="none" stroke="black" d="M11.9322,184.928C19.5718,187.608 28.059,190.785 35.6604,194.09 42.9327,197.252 51.1392,201.111 56.8092,203.824"/>
<polygon fill="black" stroke="black" points="57.7606,202.34 61.5051,206.087 56.2411,205.493 57.7606,202.34"/>
<text text-anchor="middle" x="53.0341" y="192.09" font-family="monospace" font-size="8.00">V1303A</text>
</g>
<!-- 30 -->
<g id="node31" class="node"><title>30</title>
<ellipse fill="deepskyblue" stroke="black" cx="16.0821" cy="151.82" rx="2.5" ry="2.5"/>
<text text-anchor="middle" x="16.0821" y="153.72" font-family="monospace" font-size="8.00">30</text>
</g>
<!-- 3&#45;&gt;30 -->
<g id="edge10" class="edge"><title>3&#45;&gt;30</title>
<path fill="none" stroke="black" d="M6.54742,160.758C9.63899,157.86 12.4207,155.252 14.1705,153.612"/>
</g>
<!-- 34 -->
<g id="node35" class="node"><title>34</title>
<ellipse fill="#ff3030" stroke="black" cx="45.9363" cy="158.139" rx="2.5" ry="2.5"/>
<text text-anchor="middle" x="45.9363" y="160.039" font-family="monospace" font-size="8.00">34</text>
</g>
<!-- 3&#45;&gt;34 -->
<g id="edge11" class="edge"><title>3&#45;&gt;34</title>
<path fill="none" stroke="black" d="M11.7228,169.661C24.1368,165.48 38.0362,160.799 43.5231,158.951"/>
</g>
<!-- 36 -->
<g id="node37" class="node"><title>36</title>
<ellipse fill="#ff3030" stroke="black" cx="-44.6735" cy="153.139" rx="2.5" ry="2.5"/>
<text text-anchor="middle" x="-44.6735" y="155.039" font-family="monospace" font-size="8.00">36</text>
</g>
<!-- 3&#45;&gt;36 -->
<g id="edge12" class="edge"><title>3&#45;&gt;36</title>
<path fill="none" stroke="black" d="M-30.6629,163.276C-35.4985,159.777 -40.0212,156.505 -42.5592,154.669"/>
</g>
<!-- 41 -->
<g id="node42" class="node"><title>41</title>
<ellipse fill="#1874cd" stroke="black" cx="-8.92271" cy="88.0054" rx="2.5" ry="2.5"/>
<text text-anchor="middle" x="-8.92271" y="89.9054" font-family="monospace" font-size="8.00">41</text>
</g>
<!-- 3&#45;&gt;41 -->
<g id="edge13" class="edge"><title>3&#45;&gt;41</title>
<path fill="none" stroke="black" d="M-10.5625,152.954C-9.99885,130.628 -9.21896,99.7393 -8.98901,90.6317"/>
</g>
<!-- 44 -->
<g id="node45" class="node"><title>44</title>
<ellipse fill="#1874cd" stroke="black" cx="78.5973" cy="186.976" rx="2.5" ry="2.5"/>
<text text-anchor="middle" x="78.5973" y="188.876" font-family="monospace" font-size="8.00">44</text>
</g>
<!-- 3&#45;&gt;44 -->
<g id="edge14" class="edge"><title>3&#45;&gt;44</title>
<path fill="none" stroke="black" d="M12.8793,179.948C35.317,182.347 66.6766,185.701 75.9287,186.691"/>
</g>
<!-- 46 -->
<g id="node47" class="node"><title>46</title>
<ellipse fill="#1874cd" stroke="black" cx="-5.19545" cy="260.717" rx="2.5" ry="2.5"/>
<text text-anchor="middle" x="-5.19545" y="262.617" font-family="monospace" font-size="8.00">46</text>
</g>
<!-- 3&#45;&gt;46 -->
<g id="edge15" class="edge"><title>3&#45;&gt;46</title>
<path fill="none" stroke="black" d="M-9.50394,201.611C-8.96019,209.398 -8.34944,218.06 -7.77698,225.993 -6.90683,238.052 -5.82065,252.462 -5.38709,258.19"/>
</g>
<!-- 56 -->
<g id="node57" class="node"><title>56</title>
<ellipse fill="#98f5ff" stroke="black" cx="-52.5171" cy="225.174" rx="2.5" ry="2.5"/>
<text text-anchor="middle" x="-52.5171" y="227.074" font-family="monospace" font-size="8.00">56</text>
</g>
<!-- 3&#45;&gt;56 -->
<g id="edge16" class="edge"><title>3&#45;&gt;56</title>
<path fill="none" stroke="black" d="M-27.0432,195.718C-36.1507,206.25 -46.5758,218.304 -50.7009,223.074"/>
</g>
<!-- 59 -->
<g id="node60" class="node"><title>59</title>
<ellipse fill="black" stroke="black" cx="-72.4589" cy="151.384" rx="2.5" ry="2.5"/>
<text text-anchor="middle" x="-72.4589" y="153.284" font-family="monospace" font-size="8.00">59</text>
</g>
<!-- 3&#45;&gt;59 -->
<g id="edge17" class="edge"><title>3&#45;&gt;59</title>
<path fill="none" stroke="black" d="M-33.3025,167.991C-47.29,162.059 -63.8496,155.036 -69.9999,152.427"/>
</g>
<!-- anon_40_3_0 -->
<g id="node69" class="node"><title>anon_40_3_0</title>
<ellipse fill="white" stroke="black" cx="-101.564" cy="191.778" rx="1" ry="1"/>
</g>
<!-- 3&#45;&gt;anon_40_3_0 -->
<g id="edge56" class="edge"><title>3&#45;&gt;anon_40_3_0</title>
<path fill="none" stroke="black" d="M-34.9267,181.159C-55.214,184.392 -83.0072,188.821 -95.2907,190.779"/>
<polygon fill="black" stroke="black" points="-95.3437,192.559 -100.557,191.618 -95.8946,189.103 -95.3437,192.559"/>
<text text-anchor="middle" x="-81.8682" y="183.888" font-family="monospace" font-size="8.00">P940H</text>
</g>
<!-- 4 -->
<g id="node5" class="node"><title>4</title>
<path fill="#98f5ff" stroke="black" stroke-width="0.5" d="M103.117,-30.8123C103.117,-30.8123 125.617,-30.8123 125.617,-30.8123 125.617,-31.8322 125.548,-32.8509 125.41,-33.8614 125.272,-34.8719 125.065,-35.8718 124.791,-36.8542 124.517,-37.8367 124.177,-38.7993 123.772,-39.7356 123.368,-40.6719 122.9,-41.5795 122.372,-42.4524 121.845,-43.3252 121.258,-44.1611 120.617,-44.9543 119.976,-45.7476 119.282,-46.4964 118.539,-47.1954 117.797,-47.8945 117.007,-48.5423 116.177,-49.1342 115.346,-49.7262 114.477,-50.261 113.574,-50.735 112.67,-51.209 111.736,-51.621 110.777,-51.9682 109.818,-52.3154 108.837,-52.5971 107.84,-52.8111 106.842,-53.0252 105.832,-53.1712 104.815,-53.2481 103.798,-53.3251 102.777,-53.3328 101.759,-53.2712 100.741,-53.2096 99.728,-53.0789 98.7277,-52.8799 97.7274,-52.6809 96.7418,-52.4142 95.7777,-52.0815 94.8136,-51.7488 93.8732,-51.3509 92.9631,-50.8907 92.053,-50.4304 91.1752,-49.9088 90.3358,-49.3294 90.3358,-49.3294 103.117,-30.8123 103.117,-30.8123"/>
<path fill="deepskyblue" stroke="black" stroke-width="0.5" d="M103.117,-30.8123C103.117,-30.8123 90.3358,-49.3294 90.3358,-49.3294 89.6986,-48.8896 89.0846,-48.4172 88.4961,-47.914 87.9076,-47.4109 87.3455,-46.8777 86.812,-46.3167 86.2784,-45.7556 85.7742,-45.1673 85.3014,-44.5543 84.8285,-43.9412 84.3876,-43.3042 83.9804,-42.6456 83.5732,-41.9871 83.2002,-41.308 82.8631,-40.6111 82.5259,-39.9141 82.2249,-39.2002 81.9613,-38.4722 81.6977,-37.7442 81.4719,-37.0031 81.2847,-36.2518 81.0975,-35.5006 80.9492,-34.7401 80.8405,-33.9736 80.7317,-33.207 80.6625,-32.4353 80.6333,-31.6616 80.6041,-30.8879 80.6148,-30.1133 80.6654,-29.3407 80.7161,-28.5681 80.8066,-27.7986 80.9365,-27.0354 81.0665,-26.2721 81.2358,-25.5161 81.4437,-24.7703 81.6516,-24.0245 81.8979,-23.2899 82.1815,-22.5695 82.4651,-21.8491 82.7858,-21.1438 83.1421,-20.4564 83.4985,-19.7691 83.8901,-19.1005 84.3153,-18.4536 84.7406,-17.8066 85.199,-17.182 85.6887,-16.5822 86.1783,-15.9825 86.6986,-15.4084 87.2475,-14.8624 87.7963,-14.3163 88.373,-13.7989 88.9752,-13.3122 89.5774,-12.8256 90.2043,-12.3703 90.8534,-11.9483 91.5025,-11.5263 92.173,-11.1381 92.8621,-10.7852 93.5513,-10.4323 94.2582,-10.1153 94.98,-9.83524 95.7019,-9.55523 96.4377,-9.31267 97.1845,-9.10852 97.9313,-8.90437 98.6882,-8.7389 99.4521,-8.61278 100.216,-8.48666 100.986,-8.40005 101.759,-8.3533 102.532,-8.30656 103.306,-8.29973 104.08,-8.33285 104.853,-8.36598 105.625,-8.439 106.391,-8.55164 107.157,-8.66429 107.916,-8.81639 108.667,-9.00735 109.417,-9.19831 110.157,-9.42787 110.884,-9.69512 111.61,-9.96237 112.323,-10.2669 113.018,-10.6076 113.713,-10.9483 114.39,-11.3247 115.047,-11.7352 115.703,-12.1457 116.338,-12.5898 116.949,-13.0658 117.559,-13.5417 118.145,-14.0489 118.704,-14.5852 118.704,-14.5852 103.117,-30.8123 103.117,-30.8123"/>
<path fill="#ff3030" stroke="black" stroke-width="0.5" d="M103.117,-30.8123C103.117,-30.8123 118.704,-14.5852 118.704,-14.5852 119.248,-15.1084 119.766,-15.6588 120.256,-16.2342 120.745,-16.8095 121.205,-17.4092 121.634,-18.0308 122.063,-18.6524 122.461,-19.2953 122.825,-19.9569 123.19,-20.6185 123.521,-21.2981 123.817,-21.993 124.113,-22.6879 124.374,-23.3973 124.598,-24.1184 124.823,-24.8396 125.011,-25.5716 125.163,-26.3117 125.314,-27.0518 125.427,-27.799 125.503,-28.5505 125.579,-29.302 125.617,-30.0569 125.617,-30.8123 125.617,-30.8123 103.117,-30.8123 103.117,-30.8123"/>
<ellipse fill="none" stroke="black" cx="103.117" cy="-30.8123" rx="22.5" ry="22.5"/>
<text text-anchor="middle" x="103.117" y="-28.9123" font-family="monospace" font-size="8.00">4</text>
</g>
<!-- 55 -->
<g id="node56" class="node"><title>55</title>
<ellipse fill="#98f5ff" stroke="black" cx="184.941" cy="-17.5775" rx="2.5" ry="2.5"/>
<text text-anchor="middle" x="184.941" y="-15.6775" font-family="monospace" font-size="8.00">55</text>
</g>
<!-- 4&#45;&gt;55 -->
<g id="edge19" class="edge"><title>4&#45;&gt;55</title>
<path fill="none" stroke="black" d="M125.476,-27.1958C145.539,-23.9507 173.153,-19.4842 182.053,-18.0447"/>
</g>
<!-- 5 -->
<g id="node6" class="node"><title>5</title>
<ellipse fill="#ff3030" stroke="black" cx="-72.7751" cy="-131.937" rx="12.5" ry="12.5"/>
<text text-anchor="middle" x="-72.7751" y="-130.037" font-family="monospace" font-size="8.00">5</text>
</g>
<!-- 6 -->
<g id="node7" class="node"><title>6</title>
<path fill="deepskyblue" stroke="black" stroke-width="0.5" d="M-4.34387,-65.7468C-4.34387,-65.7468 20.1561,-65.7468 20.1561,-65.7468 20.1561,-66.5746 20.1142,-67.4019 20.0304,-68.2255 19.9467,-69.049 19.8213,-69.8678 19.6546,-70.6787 19.488,-71.4895 19.2804,-72.2914 19.0325,-73.0812 18.7847,-73.8711 18.497,-74.6478 18.1706,-75.4086 18.1706,-75.4086 -4.34387,-65.7468 -4.34387,-65.7468"/>
<path fill="#ff3030" stroke="black" stroke-width="0.5" d="M-4.34387,-65.7468C-4.34387,-65.7468 18.1706,-75.4086 18.1706,-75.4086 17.7353,-76.423 17.2319,-77.4069 16.6638,-78.3535 16.0958,-79.3 15.4645,-80.2071 14.7741,-81.0685 14.7741,-81.0685 -4.34387,-65.7468 -4.34387,-65.7468"/>
<path fill="brown" stroke="black" stroke-width="0.5" d="M-4.34387,-65.7468C-4.34387,-65.7468 14.7741,-81.0685 14.7741,-81.0685 14.3265,-81.627 13.8547,-82.1655 13.36,-82.6827 12.8653,-83.1998 12.3482,-83.695 11.8101,-84.1669 11.272,-84.6388 10.7136,-85.0869 10.1363,-85.5098 9.55897,-85.9328 8.96343,-86.3303 8.35133,-86.7011 7.73924,-87.072 7.1112,-87.4158 6.469,-87.7317 5.82681,-88.0475 5.17109,-88.3351 4.50372,-88.5935 3.83635,-88.852 3.15798,-89.081 2.47055,-89.2801 1.78313,-89.4791 1.08731,-89.648 0.385103,-89.7861 -0.317103,-89.9243 -1.02502,-90.0316 -1.73662,-90.1077 -2.44823,-90.1839 -3.16282,-90.2288 -3.87836,-90.2424 -4.59389,-90.256 -5.30968,-90.2383 -6.02366,-90.1892 -6.73764,-90.1401 -7.44913,-90.0598 -8.15607,-89.9484 -8.86302,-89.8371 -9.56475,-89.6948 -10.2592,-89.522 -10.9537,-89.3492 -11.6403,-89.1461 -12.317,-88.9132 -12.9937,-88.6803 -13.6599,-88.4178 -14.3136,-88.1266 -14.9674,-87.8354 -15.608,-87.5156 -16.2338,-87.1683 -16.8595,-86.821 -17.4697,-86.4465 -18.0627,-86.0457 -18.6556,-85.645 -19.2307,-85.2185 -19.7863,-84.7674 -20.3419,-84.3163 -20.8775,-83.8411 -21.3915,-83.3431 -21.9055,-82.8451 -22.3974,-82.3249 -22.8659,-81.7838 -23.3343,-81.2428 -23.7789,-80.6815 -24.1982,-80.1015 -24.6175,-79.5216 -25.0112,-78.9235 -25.3781,-78.3091 -25.7451,-77.6946 -26.0849,-77.0644 -26.3967,-76.4203 -26.7085,-75.7761 -26.9919,-75.1185 -27.2461,-74.4495 -27.5003,-73.7806 -27.7251,-73.1007 -27.9198,-72.4121 -28.1145,-71.7234 -28.2789,-71.0265 -28.4126,-70.3235 -28.5463,-69.6204 -28.6491,-68.9118 -28.7208,-68.1997 -28.7924,-67.4877 -28.8328,-66.7728 -28.8419,-66.0572 -28.851,-65.3416 -28.8287,-64.6259 -28.7751,-63.9123 -28.7215,-63.1986 -28.6367,-62.4877 -28.5208,-61.7814 -28.405,-61.0752 -28.2583,-60.3744 -28.0811,-59.681 -27.9039,-58.9876 -27.6964,-58.3023 -27.4592,-57.6271 -27.222,-56.9519 -26.9554,-56.2874 -26.66,-55.6355 -26.3647,-54.9836 -26.0409,-54.345 -25.6896,-53.7215 -25.3384,-53.098 -24.9599,-52.4901 -24.5554,-51.8997 -24.151,-51.3094 -23.7208,-50.737 -23.2662,-50.1842 -22.8116,-49.6315 -22.333,-49.0989 -21.8318,-48.5881 -21.3306,-48.0773 -20.8072,-47.5886 -20.2632,-47.1236 -19.7192,-46.6586 -19.1551,-46.2176 -18.5725,-45.802 -17.9899,-45.3864 -17.3894,-44.9965 -16.7726,-44.6334 -16.1559,-44.2704 -15.5235,-43.9345 -14.8774,-43.6268 -14.2312,-43.3191 -13.5719,-43.0399 -12.9013,-42.7899 -12.2307,-42.54 -11.5495,-42.3195 -10.8596,-42.1292 -10.1697,-41.9388 -9.47184,-41.7788 -8.76794,-41.6496 -8.06404,-41.5204 -7.35482,-41.422 -6.64231,-41.3549 -5.9298,-41.2878 -5.21469,-41.2519 -4.49904,-41.2473 -3.7834,-41.2428 -3.06789,-41.2696 -2.35459,-41.3277 -1.64129,-41.3858 -0.930875,-41.4752 -0.225395,-41.5955 0.480086,-41.7158 1.17996,-41.8669 1.8722,-42.0485 2.56445,-42.2301 3.24841,-42.4419 3.92211,-42.6834 4.59581,-42.9248 5.25861,-43.1957 5.9086,-43.4952 6.55859,-43.7947 7.19514,-44.1225 7.81643,-44.4777 8.43772,-44.8329 9.04315,-45.2152 9.63097,-45.6234 10.2188,-46.0316 10.7884,-46.4654 11.3383,-46.9235 11.8881,-47.3815 12.4176,-47.8635 12.9253,-48.368 13.4329,-48.8724 13.9183,-49.3988 14.3798,-49.9458 14.8414,-50.4927 15.2788,-51.0596 15.6907,-51.6448 16.1026,-52.2301 16.4887,-52.833 16.8478,-53.4521 17.207,-54.0711 17.5388,-54.7056 17.8424,-55.3536 18.146,-56.0017 18.4211,-56.6628 18.6668,-57.335 18.9125,-58.0071 19.1287,-58.6897 19.3146,-59.3808 19.5006,-60.0719 19.6562,-60.7708 19.7809,-61.4755 19.9057,-62.1802 19.9995,-62.89 20.0622,-63.6029 20.1248,-64.3159 20.1561,-65.0312 20.1561,-65.7468 20.1561,-65.7468 -4.34387,-65.7468 -4.34387,-65.7468"/>
<ellipse fill="none" stroke="black" cx="-4.34387" cy="-65.7468" rx="24.5" ry="24.5"/>
<text text-anchor="middle" x="-4.34387" y="-63.8468" font-family="monospace" font-size="8.00">6</text>
</g>
<!-- 6&#45;&gt;0 -->
<g id="edge1" class="edge"><title>6&#45;&gt;0</title>
<path fill="none" stroke="black" d="M1.40475,-89.6466C4.43538,-103.63 7.77866,-121.682 9.02925,-137.952 9.31961,-141.73 9.4084,-145.741 9.37609,-149.652"/>
<polygon fill="black" stroke="black" points="7.62145,-149.855 9.26454,-154.892 11.1207,-149.93 7.62145,-149.855"/>
<text text-anchor="middle" x="-8.73757" y="-115.561" font-family="monospace" font-size="8.00">I1868T</text>
</g>
<!-- 6&#45;&gt;2 -->
<g id="edge6" class="edge"><title>6&#45;&gt;2</title>
<path fill="none" stroke="black" d="M19.8458,-70.0346C36.4018,-72.9692 57.8651,-76.7737 72.1801,-79.3111"/>
<polygon fill="black" stroke="black" points="72.2461,-81.1 77.4748,-80.2496 72.857,-77.6537 72.2461,-81.1"/>
<text text-anchor="middle" x="56.5793" y="-68.7277" font-family="monospace" font-size="8.00">A1934V</text>
</g>
<!-- 6&#45;&gt;4 -->
<g id="edge18" class="edge"><title>6&#45;&gt;4</title>
<path fill="none" stroke="black" d="M18.9736,-58.1666C36.0137,-52.627 59.1388,-45.1092 76.834,-39.3567"/>
<polygon fill="black" stroke="black" points="77.4575,-40.9942 81.6715,-37.7841 76.3753,-37.6657 77.4575,-40.9942"/>
<text text-anchor="middle" x="58.5062" y="-41.5156" font-family="monospace" font-size="8.00">P1874L</text>
</g>
<!-- 6&#45;&gt;5 -->
<g id="edge20" class="edge"><title>6&#45;&gt;5</title>
<path fill="none" stroke="black" d="M-21.9666,-82.7924C-33.8172,-94.2549 -49.1717,-109.107 -59.886,-119.47"/>
<polygon fill="black" stroke="black" points="-61.231,-118.336 -63.6083,-123.07 -58.7977,-120.852 -61.231,-118.336"/>
<text text-anchor="middle" x="-58.9101" y="-105.65" font-family="monospace" font-size="8.00">P1874S</text>
</g>
<!-- 7 -->
<g id="node8" class="node"><title>7</title>
<ellipse fill="#ff3030" stroke="black" cx="15.5533" cy="-23.2342" rx="6.5" ry="6.5"/>
<text text-anchor="middle" x="15.5533" y="-21.3342" font-family="monospace" font-size="8.00">7</text>
</g>
<!-- 6&#45;&gt;7 -->
<g id="edge21" class="edge"><title>6&#45;&gt;7</title>
<path fill="none" stroke="black" d="M6.07088,-43.4944C7.62231,-40.1796 9.15859,-36.8972 10.5284,-33.9705"/>
<polygon fill="black" stroke="black" points="12.2469,-34.4269 12.7814,-29.1565 9.07688,-32.9433 12.2469,-34.4269"/>
<text text-anchor="middle" x="-6.52782" y="-29.8271" font-family="monospace" font-size="8.00">K1603T</text>
</g>
<!-- 8 -->
<g id="node9" class="node"><title>8</title>
<ellipse fill="#ff3030" stroke="black" cx="-33.3692" cy="-120.395" rx="4.5" ry="4.5"/>
<text text-anchor="middle" x="-33.3692" y="-118.495" font-family="monospace" font-size="8.00">8</text>
</g>
<!-- 6&#45;&gt;8 -->
<g id="edge22" class="edge"><title>6&#45;&gt;8</title>
<path fill="none" stroke="black" d="M-15.9823,-87.6594C-20.4181,-96.011 -25.227,-105.065 -28.6607,-111.53"/>
<polygon fill="black" stroke="black" points="-30.3832,-111.042 -31.1831,-116.279 -27.2921,-112.684 -30.3832,-111.042"/>
<text text-anchor="middle" x="-39.7119" y="-95.8125" font-family="monospace" font-size="8.00">L1667M</text>
</g>
<!-- 13 -->
<g id="node14" class="node"><title>13</title>
<ellipse fill="#ff3030" stroke="black" cx="57.9191" cy="-22.7148" rx="5.5" ry="5.5"/>
<text text-anchor="middle" x="57.9191" y="-20.8148" font-family="monospace" font-size="8.00">13</text>
</g>
<!-- 6&#45;&gt;13 -->
<g id="edge23" class="edge"><title>6&#45;&gt;13</title>
<path fill="none" stroke="black" d="M16.0433,-51.6565C27.1752,-43.9629 40.3961,-34.8255 48.9612,-28.9059"/>
<polygon fill="black" stroke="black" points="50.0795,-30.2603 53.1977,-25.9779 48.0895,-27.3811 50.0795,-30.2603"/>
<text text-anchor="middle" x="50.5422" y="-32.4713" font-family="monospace" font-size="8.00">I1940T</text>
</g>
<!-- 14 -->
<g id="node15" class="node"><title>14</title>
<path fill="#98f5ff" stroke="black" stroke-width="0.5" d="M69.0027,-125.741C69.0027,-125.741 73.5027,-125.741 73.5027,-125.741 73.5027,-125.938 73.4898,-126.134 73.4642,-126.329 73.4385,-126.524 73.4002,-126.716 73.3493,-126.906 73.2985,-127.096 73.2353,-127.282 73.1601,-127.463 73.0849,-127.645 72.998,-127.821 72.8998,-127.991 72.8016,-128.162 72.6923,-128.325 72.5727,-128.481 72.4532,-128.637 72.3235,-128.784 72.1846,-128.923 72.0457,-129.062 71.8979,-129.192 71.7421,-129.311 71.5862,-129.431 71.4228,-129.54 71.2527,-129.639 71.0825,-129.737 70.9062,-129.824 70.7247,-129.899 70.5433,-129.974 70.3571,-130.037 70.1673,-130.088 69.9776,-130.139 69.7848,-130.177 69.59,-130.203 69.3953,-130.229 69.1991,-130.241 69.0027,-130.241 68.8062,-130.241 68.61,-130.229 68.4153,-130.203 68.2205,-130.177 68.0277,-130.139 67.838,-130.088 67.6482,-130.037 67.462,-129.974 67.2806,-129.899 67.0991,-129.824 66.9228,-129.737 66.7527,-129.639 66.7527,-129.639 69.0027,-125.741 69.0027,-125.741"/>
<path fill="#ff3030" stroke="black" stroke-width="0.5" d="M69.0027,-125.741C69.0027,-125.741 66.7527,-129.639 66.7527,-129.639 66.5825,-129.54 66.4191,-129.431 66.2632,-129.311 66.1074,-129.192 65.9596,-129.062 65.8207,-128.923 65.6818,-128.784 65.5521,-128.637 65.4326,-128.481 65.313,-128.325 65.2037,-128.162 65.1055,-127.991 65.0073,-127.821 64.9204,-127.645 64.8452,-127.463 64.77,-127.282 64.7068,-127.096 64.656,-126.906 64.6051,-126.716 64.5668,-126.524 64.5411,-126.329 64.5155,-126.134 64.5027,-125.938 64.5027,-125.741 64.5027,-125.545 64.5155,-125.349 64.5411,-125.154 64.5668,-124.959 64.6051,-124.766 64.656,-124.577 64.7068,-124.387 64.77,-124.201 64.8452,-124.019 64.9204,-123.838 65.0073,-123.662 65.1055,-123.491 65.2037,-123.321 65.313,-123.158 65.4326,-123.002 65.5521,-122.846 65.6818,-122.698 65.8207,-122.559 65.9596,-122.421 66.1074,-122.291 66.2632,-122.171 66.4191,-122.052 66.5825,-121.942 66.7527,-121.844 66.9228,-121.746 67.0991,-121.659 67.2806,-121.584 67.462,-121.509 67.6482,-121.446 67.838,-121.395 68.0277,-121.344 68.2205,-121.306 68.4153,-121.28 68.61,-121.254 68.8062,-121.241 69.0027,-121.241 69.1991,-121.241 69.3953,-121.254 69.59,-121.28 69.7848,-121.306 69.9776,-121.344 70.1673,-121.395 70.3571,-121.446 70.5433,-121.509 70.7247,-121.584 70.9062,-121.659 71.0825,-121.746 71.2527,-121.844 71.4228,-121.942 71.5862,-122.052 71.7421,-122.171 71.8979,-122.291 72.0457,-122.421 72.1846,-122.559 72.3235,-122.698 72.4532,-122.846 72.5727,-123.002 72.6923,-123.158 72.8016,-123.321 72.8998,-123.491 72.998,-123.662 73.0849,-123.838 73.1601,-124.019 73.2353,-124.201 73.2985,-124.387 73.3493,-124.577 73.4002,-124.766 73.4385,-124.959 73.4642,-125.154 73.4898,-125.349 73.5027,-125.545 73.5027,-125.741 73.5027,-125.741 69.0027,-125.741 69.0027,-125.741"/>
<ellipse fill="none" stroke="black" cx="69.0027" cy="-125.741" rx="4.5" ry="4.5"/>
<text text-anchor="middle" x="69.0027" y="-123.841" font-family="monospace" font-size="8.00">14</text>
</g>
<!-- 6&#45;&gt;14 -->
<g id="edge24" class="edge"><title>6&#45;&gt;14</title>
<path fill="none" stroke="black" d="M14.9271,-81.5097C30.0796,-93.9039 50.3919,-110.519 61.3016,-119.442"/>
<polygon fill="black" stroke="black" points="60.3809,-120.95 65.3591,-122.761 62.5969,-118.241 60.3809,-120.95"/>
<text text-anchor="middle" x="53.5957" y="-104.697" font-family="monospace" font-size="8.00">T791M</text>
</g>
<!-- 17 -->
<g id="node18" class="node"><title>17</title>
<ellipse fill="#ff3030" stroke="black" cx="-41.6425" cy="-47.2296" rx="4.5" ry="4.5"/>
<text text-anchor="middle" x="-41.6425" y="-45.3296" font-family="monospace" font-size="8.00">17</text>
</g>
<!-- 6&#45;&gt;17 -->
<g id="edge25" class="edge"><title>6&#45;&gt;17</title>
<path fill="none" stroke="black" d="M-26.4717,-54.7613C-28.7384,-53.6359 -30.9341,-52.5459 -32.9182,-51.5609"/>
<polygon fill="black" stroke="black" points="-32.3232,-49.9025 -37.5799,-49.2465 -33.8796,-53.0374 -32.3232,-49.9025"/>
<text text-anchor="middle" x="-48.1645" y="-54.535" font-family="monospace" font-size="8.00">N1345I</text>
</g>
<!-- 19 -->
<g id="node20" class="node"><title>19</title>
<path fill="#98f5ff" stroke="black" stroke-width="0.5" d="M1.02941,-137.9C1.02941,-137.9 9.02941,-137.9 9.02941,-137.9 9.02941,-138.319 8.99648,-138.738 8.93092,-139.152 8.86536,-139.566 8.76737,-139.974 8.63787,-140.372 8.50836,-140.771 8.34773,-141.159 8.15747,-141.532 7.9672,-141.906 7.74789,-142.263 7.50155,-142.603 7.25521,-142.942 6.98261,-143.261 6.68627,-143.557 6.38992,-143.853 6.07075,-144.126 5.7317,-144.372 5.39264,-144.619 5.03475,-144.838 4.66134,-145.028 4.28792,-145.219 3.90013,-145.379 3.50155,-145.509 3.10297,-145.638 2.69482,-145.736 2.28089,-145.802 1.86696,-145.867 1.44851,-145.9 1.02941,-145.9 0.61032,-145.9 0.191873,-145.867 -0.222062,-145.802 -0.635996,-145.736 -1.04414,-145.638 -1.44272,-145.509 -1.8413,-145.379 -2.22909,-145.219 -2.60251,-145.028 -2.97593,-144.838 -3.33381,-144.619 -3.67287,-144.372 -4.01192,-144.126 -4.3311,-143.853 -4.62744,-143.557 -4.92378,-143.261 -5.19638,-142.942 -5.44272,-142.603 -5.44272,-142.603 1.02941,-137.9 1.02941,-137.9"/>
<path fill="deepskyblue" stroke="black" stroke-width="0.5" d="M1.02941,-137.9C1.02941,-137.9 -5.44272,-142.603 -5.44272,-142.603 -5.62743,-142.348 -5.797,-142.083 -5.95055,-141.809 -6.1041,-141.535 -6.24136,-141.252 -6.36162,-140.962 -6.48188,-140.671 -6.58493,-140.374 -6.67023,-140.072 -6.75553,-139.769 -6.82293,-139.462 -6.87209,-139.152 -6.92125,-138.841 -6.95208,-138.528 -6.96442,-138.214 -6.97676,-137.9 -6.97058,-137.586 -6.94592,-137.273 -6.92127,-136.959 -6.87818,-136.648 -6.81687,-136.34 -6.75556,-136.031 -6.67615,-135.727 -6.57904,-135.428 -6.48193,-135.129 -6.3673,-134.836 -6.23573,-134.551 -6.10417,-134.266 -5.9559,-133.988 -5.79171,-133.72 -5.62751,-133.452 -5.44767,-133.194 -5.25312,-132.948 -5.05857,-132.701 -4.84965,-132.466 -4.62744,-132.243 -4.40523,-132.021 -4.17012,-131.812 -3.92334,-131.618 -3.67655,-131.423 -3.41852,-131.243 -3.15057,-131.079 -2.88263,-130.915 -2.60525,-130.767 -2.31986,-130.635 -2.03448,-130.504 -1.74159,-130.389 -1.44272,-130.292 -1.14385,-130.195 -0.83952,-130.115 -0.531308,-130.054 -0.223097,-129.993 0.0884601,-129.95 0.401741,-129.925 0.715023,-129.9 1.02948,-129.894 1.34349,-129.906 1.6575,-129.919 1.97051,-129.95 2.28089,-129.999 2.59127,-130.048 2.89849,-130.115 3.20094,-130.201 3.50339,-130.286 3.80055,-130.389 4.09088,-130.509 4.38121,-130.629 4.6642,-130.767 4.93838,-130.92 5.21257,-131.074 5.47746,-131.243 5.7317,-131.428 5.98593,-131.613 6.22906,-131.812 6.45982,-132.026 6.69058,-132.239 6.90857,-132.466 7.11266,-132.705 7.31675,-132.944 7.50658,-133.194 7.68117,-133.456 7.85576,-133.717 8.0148,-133.988 8.15747,-134.268 8.30013,-134.548 8.42618,-134.836 8.53494,-135.131 8.64371,-135.426 8.73501,-135.727 8.80837,-136.033 8.88173,-136.338 8.93703,-136.648 8.97396,-136.96 9.0109,-137.272 9.02941,-137.586 9.02941,-137.9 9.02941,-137.9 1.02941,-137.9 1.02941,-137.9"/>
<ellipse fill="none" stroke="black" cx="1.02941" cy="-137.9" rx="8" ry="8"/>
<text text-anchor="middle" x="1.02941" y="-136" font-family="monospace" font-size="8.00">19</text>
</g>
<!-- 6&#45;&gt;19 -->
<g id="edge26" class="edge"><title>6&#45;&gt;19</title>
<path fill="none" stroke="black" d="M-4.6157,-90.3509C-4.54191,-93.2211 -4.41957,-96.1057 -4.23023,-98.8585 -3.63936,-107.449 -2.35744,-117.034 -1.20715,-124.556"/>
<polygon fill="black" stroke="black" points="-2.87829,-125.192 -0.366804,-129.856 0.578525,-124.644 -2.87829,-125.192"/>
<text text-anchor="middle" x="4.82479" y="-103.632" font-family="monospace" font-size="8.00">E1597G</text>
</g>
<!-- 26 -->
<g id="node27" class="node"><title>26</title>
<ellipse fill="deepskyblue" stroke="black" cx="31.4142" cy="-102.898" rx="3.5" ry="3.5"/>
<text text-anchor="middle" x="31.4142" y="-100.998" font-family="monospace" font-size="8.00">26</text>
</g>
<!-- 6&#45;&gt;26 -->
<g id="edge27" class="edge"><title>6&#45;&gt;26</title>
<path fill="none" stroke="black" d="M12.6974,-83.4522C17.2483,-88.1805 21.8718,-92.9842 25.385,-96.6343"/>
<polygon fill="black" stroke="black" points="24.1999,-97.9266 28.9281,-100.316 26.7217,-95.4995 24.1999,-97.9266"/>
<text text-anchor="middle" x="36.6329" y="-85.297" font-family="monospace" font-size="8.00">I1584T</text>
</g>
<!-- 31 -->
<g id="node32" class="node"><title>31</title>
<path fill="#98f5ff" stroke="black" stroke-width="0.5" d="M-98.8698,-66.8164C-98.8698,-66.8164 -89.8698,-66.8164 -89.8698,-66.8164 -89.8698,-67.3076 -89.91,-67.7979 -89.99,-68.2825 -90.0701,-68.7671 -90.1896,-69.2443 -90.3475,-69.7094 -90.5053,-70.1745 -90.701,-70.6259 -90.9325,-71.059 -91.1641,-71.4922 -91.4307,-71.9056 -91.7297,-72.2953 -92.0286,-72.6849 -92.359,-73.0495 -92.7175,-73.3852 -93.076,-73.721 -93.4613,-74.0268 -93.8697,-74.2997 -94.2781,-74.5725 -94.7081,-74.8115 -95.1555,-75.0142 -95.6028,-75.2169 -96.0661,-75.3826 -96.5405,-75.5098 -97.0149,-75.6369 -97.4989,-75.725 -97.9877,-75.7731 -98.4765,-75.8212 -98.9684,-75.8293 -99.4585,-75.7972 -99.9486,-75.765 -100.435,-75.6929 -100.914,-75.5813 -101.392,-75.4698 -101.86,-75.3193 -102.314,-75.1314 -102.768,-74.9434 -103.205,-74.7186 -103.622,-74.4593 -104.04,-74.1999 -104.435,-73.9068 -104.804,-73.583 -105.173,-73.2592 -105.515,-72.9056 -105.827,-72.526 -106.139,-72.1463 -106.418,-71.7418 -106.664,-71.3164 -106.664,-71.3164 -98.8698,-66.8164 -98.8698,-66.8164"/>
<path fill="deepskyblue" stroke="black" stroke-width="0.5" d="M-98.8698,-66.8164C-98.8698,-66.8164 -106.664,-71.3164 -106.664,-71.3164 -106.836,-71.0188 -106.991,-70.7115 -107.127,-70.3962 -107.264,-70.0808 -107.383,-69.7579 -107.482,-69.429 -107.582,-69.1001 -107.663,-68.7657 -107.724,-68.4276 -107.786,-68.0894 -107.828,-67.748 -107.851,-67.4051 -107.873,-67.0621 -107.876,-66.7181 -107.859,-66.3748 -107.842,-66.0315 -107.806,-65.6895 -107.75,-65.3504 -107.694,-65.0113 -107.618,-64.6756 -107.524,-64.3451 -107.43,-64.0146 -107.316,-63.6898 -107.185,-63.3723 -107.053,-63.0547 -106.904,-62.745 -106.737,-62.4446 -106.57,-62.1441 -106.386,-61.8535 -106.185,-61.5741 -105.985,-61.2948 -105.769,-61.0271 -105.538,-60.7724 -105.308,-60.5177 -105.062,-60.2765 -104.804,-60.0499 -104.546,-59.8233 -104.274,-59.6116 -103.992,-59.416 -103.709,-59.2204 -103.416,-59.0412 -103.112,-58.8791 -102.809,-58.7171 -102.497,-58.5726 -102.177,-58.4463 -101.858,-58.32 -101.531,-58.2121 -101.199,-58.1231 -100.867,-58.0341 -100.53,-57.9643 -100.19,-57.9138 -99.8504,-57.8634 -99.5078,-57.8325 -99.1643,-57.8213 -98.8208,-57.81 -98.4769,-57.8185 -98.1343,-57.8465 -97.7918,-57.8746 -97.4511,-57.9223 -97.114,-57.9894 -96.7769,-58.0564 -96.4439,-58.1427 -96.1167,-58.2479 -95.7895,-58.353 -95.4685,-58.4768 -95.1555,-58.6187 -94.8424,-58.7605 -94.5377,-58.9202 -94.2429,-59.0969 -93.9481,-59.2736 -93.6637,-59.467 -93.391,-59.6763 -93.1183,-59.8855 -92.8578,-60.1102 -92.6109,-60.3492 -92.3639,-60.5882 -92.1308,-60.8412 -91.9127,-61.1069 -91.6947,-61.3726 -91.4921,-61.6505 -91.3058,-61.9394 -91.1196,-62.2283 -90.95,-62.5276 -90.798,-62.8358 -90.646,-63.1441 -90.5117,-63.4608 -90.3959,-63.7844 -90.2802,-64.108 -90.183,-64.438 -90.1049,-64.7727 -90.0269,-65.1075 -89.9681,-65.4464 -89.9288,-65.7879 -89.8895,-66.1293 -89.8698,-66.4727 -89.8698,-66.8164 -89.8698,-66.8164 -98.8698,-66.8164 -98.8698,-66.8164"/>
<ellipse fill="none" stroke="black" cx="-98.8698" cy="-66.8164" rx="9" ry="9"/>
<text text-anchor="middle" x="-98.8698" y="-64.9164" font-family="monospace" font-size="8.00">31</text>
</g>
<!-- 6&#45;&gt;31 -->
<g id="edge28" class="edge"><title>6&#45;&gt;31</title>
<path fill="none" stroke="black" d="M-29.1795,-66.0279C-46.757,-66.2268 -69.7222,-66.4866 -84.3883,-66.6526"/>
<polygon fill="black" stroke="black" points="-84.7782,-64.9068 -89.758,-66.7133 -84.7385,-68.4066 -84.7782,-64.9068"/>
<text text-anchor="middle" x="-43.2472" y="-68.9681" font-family="monospace" font-size="8.00">V1853I</text>
</g>
<!-- 48 -->
<g id="node49" class="node"><title>48</title>
<ellipse fill="brown" stroke="black" cx="-76.0349" cy="-34.4644" rx="4.5" ry="4.5"/>
<text text-anchor="middle" x="-76.0349" y="-32.5644" font-family="monospace" font-size="8.00">48</text>
</g>
<!-- 6&#45;&gt;48 -->
<g id="edge29" class="edge"><title>6&#45;&gt;48</title>
<path fill="none" stroke="black" d="M-27.7142,-57.5506C-33.3865,-55.3801 -39.3869,-52.93 -44.8416,-50.3943 -54.7671,-45.7804 -66.1564,-39.7793 -72.0439,-36.6228"/>
</g>
<!-- 50 -->
<g id="node51" class="node"><title>50</title>
<ellipse fill="brown" stroke="black" cx="-7.41975" cy="32.4906" rx="5.5" ry="5.5"/>
<text text-anchor="middle" x="-7.41975" y="34.3906" font-family="monospace" font-size="8.00">50</text>
</g>
<!-- 6&#45;&gt;50 -->
<g id="edge30" class="edge"><title>6&#45;&gt;50</title>
<path fill="none" stroke="black" d="M-5.11211,-41.2108C-5.82387,-18.4786 -6.83197,13.7183 -7.23896,26.7167"/>
</g>
<!-- anon_27_6_1 -->
<g id="node64" class="node"><title>anon_27_6_1</title>
<ellipse fill="white" stroke="black" cx="-67.4004" cy="-90.0544" rx="1" ry="1"/>
</g>
<!-- 6&#45;&gt;anon_27_6_1 -->
<g id="edge42" class="edge"><title>6&#45;&gt;anon_27_6_1</title>
<path fill="none" stroke="black" d="M-27.4657,-74.66C-39.7679,-79.4024 -53.9122,-84.8548 -61.6313,-87.8304"/>
<polygon fill="black" stroke="black" points="-62.3867,-86.2461 -66.4226,-89.6774 -61.1278,-89.5118 -62.3867,-86.2461"/>
<text text-anchor="middle" x="-57.8316" y="-84.7253" font-family="monospace" font-size="8.00">G54C</text>
</g>
<!-- 57 -->
<g id="node58" class="node"><title>57</title>
<ellipse fill="black" stroke="black" cx="-59.746" cy="-172.6" rx="4.5" ry="4.5"/>
<text text-anchor="middle" x="-59.746" y="-170.7" font-family="monospace" font-size="8.00">57</text>
</g>
<!-- 8&#45;&gt;57 -->
<g id="edge31" class="edge"><title>8&#45;&gt;57</title>
<path fill="none" stroke="black" d="M-35.4389,-124.491C-40.3454,-134.202 -52.6429,-158.541 -57.6126,-168.377"/>
</g>
<!-- 9 -->
<g id="node10" class="node"><title>9</title>
<ellipse fill="deepskyblue" stroke="black" cx="192.964" cy="-148.262" rx="2.5" ry="2.5"/>
<text text-anchor="middle" x="192.964" y="-146.362" font-family="monospace" font-size="8.00">9</text>
</g>
<!-- 11 -->
<g id="node12" class="node"><title>11</title>
<ellipse fill="deepskyblue" stroke="black" cx="-129.707" cy="-41.1608" rx="2.5" ry="2.5"/>
<text text-anchor="middle" x="-129.707" y="-39.2608" font-family="monospace" font-size="8.00">11</text>
</g>
<!-- 12 -->
<g id="node13" class="node"><title>12</title>
<ellipse fill="deepskyblue" stroke="black" cx="179.51" cy="-180.821" rx="2.5" ry="2.5"/>
<text text-anchor="middle" x="179.51" y="-178.921" font-family="monospace" font-size="8.00">12</text>
</g>
<!-- 15 -->
<g id="node16" class="node"><title>15</title>
<path fill="#98f5ff" stroke="black" stroke-width="0.5" d="M127.703,-164.763C127.703,-164.763 140.203,-164.763 140.203,-164.763 140.203,-165.222 140.178,-165.68 140.128,-166.135 140.077,-166.59 140.002,-167.043 139.902,-167.49 139.802,-167.937 139.678,-168.379 139.529,-168.812 139.381,-169.246 139.209,-169.671 139.013,-170.086 138.818,-170.5 138.6,-170.904 138.361,-171.295 138.122,-171.685 137.861,-172.063 137.58,-172.425 137.299,-172.787 136.999,-173.133 136.68,-173.462 136.361,-173.791 136.024,-174.103 135.671,-174.395 135.318,-174.687 134.949,-174.959 134.566,-175.211 134.183,-175.463 133.786,-175.693 133.378,-175.901 132.97,-176.109 132.55,-176.294 132.121,-176.456 131.693,-176.618 131.256,-176.757 130.812,-176.871 130.368,-176.985 129.918,-177.074 129.464,-177.139 129.011,-177.203 128.554,-177.243 128.096,-177.257 127.638,-177.272 127.179,-177.261 126.722,-177.225 126.265,-177.189 125.811,-177.128 125.361,-177.042 125.361,-177.042 127.703,-164.763 127.703,-164.763"/>
<path fill="deepskyblue" stroke="black" stroke-width="0.5" d="M127.703,-164.763C127.703,-164.763 125.361,-177.042 125.361,-177.042 124.782,-176.931 124.212,-176.78 123.654,-176.589 123.097,-176.399 122.553,-176.168 122.028,-175.901 121.503,-175.633 120.998,-175.329 120.515,-174.99 120.033,-174.651 119.576,-174.279 119.146,-173.875 118.717,-173.472 118.316,-173.039 117.948,-172.579 117.579,-172.119 117.244,-171.634 116.944,-171.126 116.644,-170.619 116.38,-170.091 116.155,-169.547 115.929,-169.002 115.742,-168.443 115.596,-167.872 115.449,-167.301 115.343,-166.721 115.279,-166.135 115.214,-165.549 115.191,-164.96 115.209,-164.371 115.228,-163.782 115.288,-163.195 115.389,-162.614 115.491,-162.034 115.633,-161.461 115.815,-160.901 115.997,-160.34 116.218,-159.793 116.478,-159.264 116.737,-158.735 117.033,-158.225 117.365,-157.737 117.696,-157.25 118.061,-156.787 118.458,-156.351 118.854,-155.915 119.281,-155.508 119.735,-155.132 120.189,-154.756 120.669,-154.413 121.172,-154.105 121.674,-153.797 122.198,-153.525 122.739,-153.291 123.28,-153.057 123.836,-152.862 124.405,-152.706 124.973,-152.551 125.552,-152.436 126.136,-152.362 126.721,-152.288 127.31,-152.256 127.899,-152.265 128.489,-152.274 129.076,-152.325 129.658,-152.417 130.241,-152.509 130.815,-152.643 131.379,-152.816 131.942,-152.989 132.492,-153.202 133.025,-153.453 133.559,-153.704 134.073,-153.992 134.566,-154.316 135.058,-154.639 135.527,-154.997 135.969,-155.387 136.411,-155.777 136.825,-156.197 137.208,-156.645 137.591,-157.093 137.941,-157.568 138.257,-158.065 138.573,-158.563 138.853,-159.082 139.096,-159.619 139.338,-160.156 139.542,-160.71 139.707,-161.276 139.871,-161.842 139.995,-162.419 140.078,-163.002 140.161,-163.585 140.203,-164.174 140.203,-164.763 140.203,-164.763 127.703,-164.763 127.703,-164.763"/>
<ellipse fill="none" stroke="black" cx="127.703" cy="-164.763" rx="12.5" ry="12.5"/>
<text text-anchor="middle" x="127.703" y="-162.863" font-family="monospace" font-size="8.00">15</text>
</g>
<!-- 14&#45;&gt;15 -->
<g id="edge34" class="edge"><title>14&#45;&gt;15</title>
<path fill="none" stroke="black" d="M72.8541,-128.302C80.8289,-133.603 99.5172,-146.026 112.861,-154.897"/>
<polygon fill="black" stroke="black" points="112.025,-156.443 117.158,-157.753 113.963,-153.528 112.025,-156.443"/>
<text text-anchor="middle" x="79.0287" y="-145.643" font-family="monospace" font-size="8.00">A1746S</text>
</g>
<!-- 15&#45;&gt;9 -->
<g id="edge32" class="edge"><title>15&#45;&gt;9</title>
<path fill="none" stroke="black" d="M139.978,-161.659C155.634,-157.701 181.697,-151.111 190.194,-148.962"/>
</g>
<!-- 15&#45;&gt;12 -->
<g id="edge33" class="edge"><title>15&#45;&gt;12</title>
<path fill="none" stroke="black" d="M139.719,-168.488C151.915,-172.268 169.941,-177.855 176.761,-179.969"/>
</g>
<!-- anon_15_23_0 -->
<g id="node61" class="node"><title>anon_15_23_0</title>
<ellipse fill="white" stroke="black" cx="142.748" cy="-224.174" rx="1" ry="1"/>
</g>
<!-- 15&#45;&gt;anon_15_23_0 -->
<g id="edge35" class="edge"><title>15&#45;&gt;anon_15_23_0</title>
<path fill="none" stroke="black" d="M130.82,-177.073C134.676,-192.3 140.916,-216.941 142.416,-222.863"/>
</g>
<!-- 18 -->
<g id="node19" class="node"><title>18</title>
<ellipse fill="deepskyblue" stroke="black" cx="-89.643" cy="165.937" rx="2.5" ry="2.5"/>
<text text-anchor="middle" x="-89.643" y="167.837" font-family="monospace" font-size="8.00">18</text>
</g>
<!-- 18&#45;&gt;3 -->
<g id="edge39" class="edge"><title>18&#45;&gt;3</title>
<path fill="none" stroke="black" d="M-87.0323,166.317C-79.0018,167.488 -54.0543,171.124 -34.9405,173.911"/>
</g>
<!-- 20 -->
<g id="node21" class="node"><title>20</title>
<ellipse fill="deepskyblue" stroke="black" cx="-248.288" cy="-98.8879" rx="2.5" ry="2.5"/>
<text text-anchor="middle" x="-248.288" y="-96.9879" font-family="monospace" font-size="8.00">20</text>
</g>
<!-- 23 -->
<g id="node24" class="node"><title>23</title>
<ellipse fill="deepskyblue" stroke="black" cx="196.111" cy="-289.258" rx="2.5" ry="2.5"/>
<text text-anchor="middle" x="196.111" y="-287.358" font-family="monospace" font-size="8.00">23</text>
</g>
<!-- 27 -->
<g id="node28" class="node"><title>27</title>
<ellipse fill="#ff3030" stroke="black" cx="-157.883" cy="-139.61" rx="3.5" ry="3.5"/>
<text text-anchor="middle" x="-157.883" y="-137.71" font-family="monospace" font-size="8.00">27</text>
</g>
<!-- anon_27_6_0 -->
<g id="node63" class="node"><title>anon_27_6_0</title>
<ellipse fill="white" stroke="black" cx="-113.134" cy="-112.841" rx="1" ry="1"/>
</g>
<!-- 27&#45;&gt;anon_27_6_0 -->
<g id="edge40" class="edge"><title>27&#45;&gt;anon_27_6_0</title>
<path fill="none" stroke="black" d="M-154.665,-137.684C-145.687,-132.314 -120.623,-117.321 -114.498,-113.656"/>
</g>
<!-- 28 -->
<g id="node29" class="node"><title>28</title>
<ellipse fill="#ff3030" stroke="black" cx="112.616" cy="-2.88162" rx="2.5" ry="2.5"/>
<text text-anchor="middle" x="112.616" y="-0.981619" font-family="monospace" font-size="8.00">28</text>
</g>
<!-- 28&#45;&gt;13 -->
<g id="edge43" class="edge"><title>28&#45;&gt;13</title>
<path fill="none" stroke="black" d="M109.978,-3.83821C101.527,-6.90238 75.0069,-16.5187 63.4235,-20.7188"/>
</g>
<!-- anon_31_20_0 -->
<g id="node65" class="node"><title>anon_31_20_0</title>
<ellipse fill="white" stroke="black" cx="-162.106" cy="-74.6902" rx="1" ry="1"/>
</g>
<!-- 31&#45;&gt;anon_31_20_0 -->
<g id="edge45" class="edge"><title>31&#45;&gt;anon_31_20_0</title>
<path fill="none" stroke="black" d="M-107.93,-67.9446C-123.503,-69.8836 -154.31,-73.7195 -160.863,-74.5354"/>
</g>
<!-- 32 -->
<g id="node33" class="node"><title>32</title>
<ellipse fill="#ff3030" stroke="black" cx="-118.644" cy="-8.80796" rx="2.5" ry="2.5"/>
<text text-anchor="middle" x="-118.644" y="-6.90796" font-family="monospace" font-size="8.00">32</text>
</g>
<!-- 33 -->
<g id="node34" class="node"><title>33</title>
<ellipse fill="deepskyblue" stroke="black" cx="-12.3319" cy="-195.754" rx="2.5" ry="2.5"/>
<text text-anchor="middle" x="-12.3319" y="-193.854" font-family="monospace" font-size="8.00">33</text>
</g>
<!-- 33&#45;&gt;19 -->
<g id="edge48" class="edge"><title>33&#45;&gt;19</title>
<path fill="none" stroke="black" d="M-12.2335,-193.079C-12.0376,-188.816 -11.4833,-180.237 -10.0183,-173.117 -8.02967,-163.451 -4.43568,-152.671 -1.88743,-145.614"/>
</g>
<!-- 35 -->
<g id="node36" class="node"><title>35</title>
<ellipse fill="#ff3030" stroke="black" cx="95.1053" cy="261.258" rx="2.5" ry="2.5"/>
<text text-anchor="middle" x="95.1053" y="263.158" font-family="monospace" font-size="8.00">35</text>
</g>
<!-- anon_35_3_0 -->
<g id="node67" class="node"><title>anon_35_3_0</title>
<ellipse fill="white" stroke="black" cx="57.1329" cy="235.346" rx="1" ry="1"/>
</g>
<!-- 35&#45;&gt;anon_35_3_0 -->
<g id="edge49" class="edge"><title>35&#45;&gt;anon_35_3_0</title>
<path fill="none" stroke="black" d="M92.6139,259.558C85.222,254.514 63.6008,239.76 58.311,236.15"/>
</g>
<!-- 37 -->
<g id="node38" class="node"><title>37</title>
<ellipse fill="#ff3030" stroke="black" cx="198.171" cy="-75.3817" rx="2.5" ry="2.5"/>
<text text-anchor="middle" x="198.171" y="-73.4817" font-family="monospace" font-size="8.00">37</text>
</g>
<!-- 37&#45;&gt;anon_37_2_0 -->
<g id="edge51" class="edge"><title>37&#45;&gt;anon_37_2_0</title>
<path fill="none" stroke="black" d="M195.639,-75.5494C187.078,-76.1167 159.375,-77.9523 152.583,-78.4023"/>
</g>
<!-- 38 -->
<g id="node39" class="node"><title>38</title>
<ellipse fill="#ff3030" stroke="black" cx="-101.564" cy="-192.197" rx="2.5" ry="2.5"/>
<text text-anchor="middle" x="-101.564" y="-190.297" font-family="monospace" font-size="8.00">38</text>
</g>
<!-- 38&#45;&gt;5 -->
<g id="edge53" class="edge"><title>38&#45;&gt;5</title>
<path fill="none" stroke="black" d="M-100.47,-189.909C-96.8755,-182.384 -85.2535,-158.057 -78.2588,-143.415"/>
</g>
<!-- 39 -->
<g id="node40" class="node"><title>39</title>
<ellipse fill="#ff3030" stroke="black" cx="-132.566" cy="-158.919" rx="2.5" ry="2.5"/>
<text text-anchor="middle" x="-132.566" y="-157.019" font-family="monospace" font-size="8.00">39</text>
</g>
<!-- 39&#45;&gt;5 -->
<g id="edge54" class="edge"><title>39&#45;&gt;5</title>
<path fill="none" stroke="black" d="M-129.997,-157.76C-122.218,-154.25 -98.5786,-143.582 -84.2326,-137.107"/>
</g>
<!-- 40 -->
<g id="node41" class="node"><title>40</title>
<ellipse fill="deepskyblue" stroke="black" cx="-145.873" cy="207.907" rx="2.5" ry="2.5"/>
<text text-anchor="middle" x="-145.873" y="209.807" font-family="monospace" font-size="8.00">40</text>
</g>
<!-- 40&#45;&gt;anon_40_3_0 -->
<g id="edge55" class="edge"><title>40&#45;&gt;anon_40_3_0</title>
<path fill="none" stroke="black" d="M-143.491,207.04C-135.438,204.108 -109.378,194.623 -102.988,192.297"/>
</g>
<!-- 42 -->
<g id="node43" class="node"><title>42</title>
<ellipse fill="#1874cd" stroke="black" cx="-4.30392" cy="305.959" rx="2.5" ry="2.5"/>
<text text-anchor="middle" x="-4.30392" y="307.859" font-family="monospace" font-size="8.00">42</text>
</g>
<!-- 42&#45;&gt;46 -->
<g id="edge58" class="edge"><title>42&#45;&gt;46</title>
<path fill="none" stroke="black" d="M-4.35702,303.264C-4.51596,295.199 -4.98665,271.313 -5.14375,263.34"/>
</g>
<!-- 43 -->
<g id="node44" class="node"><title>43</title>
<ellipse fill="#1874cd" stroke="black" cx="70.3834" cy="164.458" rx="2.5" ry="2.5"/>
<text text-anchor="middle" x="70.3834" y="166.358" font-family="monospace" font-size="8.00">43</text>
</g>
<!-- 43&#45;&gt;3 -->
<g id="edge59" class="edge"><title>43&#45;&gt;3</title>
<path fill="none" stroke="black" d="M67.6696,164.887C59.2114,166.227 32.6992,170.426 12.7343,173.587"/>
</g>
<!-- 45 -->
<g id="node46" class="node"><title>45</title>
<ellipse fill="#1874cd" stroke="black" cx="-113.472" cy="259.991" rx="2.5" ry="2.5"/>
<text text-anchor="middle" x="-113.472" y="261.891" font-family="monospace" font-size="8.00">45</text>
</g>
<!-- anon_45_3_0 -->
<g id="node70" class="node"><title>anon_45_3_0</title>
<ellipse fill="white" stroke="black" cx="-80.5619" cy="227.92" rx="1" ry="1"/>
</g>
<!-- 45&#45;&gt;anon_45_3_0 -->
<g id="edge60" class="edge"><title>45&#45;&gt;anon_45_3_0</title>
<path fill="none" stroke="black" d="M-111.312,257.887C-104.906,251.644 -86.1674,233.383 -81.5829,228.915"/>
</g>
<!-- 47 -->
<g id="node48" class="node"><title>47</title>
<ellipse fill="brown" stroke="black" cx="-20.9603" cy="-27.361" rx="2.5" ry="2.5"/>
<text text-anchor="middle" x="-20.9603" y="-25.461" font-family="monospace" font-size="8.00">47</text>
</g>
<!-- 47&#45;&gt;6 -->
<g id="edge62" class="edge"><title>47&#45;&gt;6</title>
<path fill="none" stroke="black" d="M-19.87,-29.8796C-18.6282,-32.7484 -16.4685,-37.7375 -14.1478,-43.0986"/>
</g>
<!-- 48&#45;&gt;11 -->
<g id="edge63" class="edge"><title>48&#45;&gt;11</title>
<path fill="none" stroke="black" d="M-80.611,-35.0353C-89.7641,-36.1773 -110.424,-38.7549 -121.809,-40.1754"/>
<polygon fill="black" stroke="black" points="-122.063,-38.4434 -126.807,-40.799 -121.629,-41.9165 -122.063,-38.4434"/>
<text text-anchor="middle" x="-120.008" y="-31.5544" font-family="monospace" font-size="8.00">P1874L</text>
</g>
<!-- 48&#45;&gt;32 -->
<g id="edge64" class="edge"><title>48&#45;&gt;32</title>
<path fill="none" stroke="black" d="M-79.9671,-32.0967C-87.2692,-27.6998 -102.996,-18.23 -111.984,-12.8179"/>
<polygon fill="black" stroke="black" points="-111.197,-11.2493 -116.383,-10.1692 -113.002,-14.2477 -111.197,-11.2493"/>
<text text-anchor="middle" x="-114.149" y="-14.7485" font-family="monospace" font-size="8.00">P1874S</text>
</g>
<!-- 49 -->
<g id="node50" class="node"><title>49</title>
<ellipse fill="brown" stroke="black" cx="107.103" cy="-63.6902" rx="2.5" ry="2.5"/>
<text text-anchor="middle" x="107.103" y="-61.7902" font-family="monospace" font-size="8.00">49</text>
</g>
<!-- anon_49_6_0 -->
<g id="node71" class="node"><title>anon_49_6_0</title>
<ellipse fill="white" stroke="black" cx="57.5984" cy="-61.0041" rx="1" ry="1"/>
</g>
<!-- 49&#45;&gt;anon_49_6_0 -->
<g id="edge65" class="edge"><title>49&#45;&gt;anon_49_6_0</title>
<path fill="none" stroke="black" d="M104.441,-63.5458C95.4439,-63.0576 66.3278,-61.4778 59.1894,-61.0904"/>
</g>
<!-- 50&#45;&gt;41 -->
<g id="edge57" class="edge"><title>50&#45;&gt;41</title>
<path fill="none" stroke="black" d="M-7.56935,38.0165C-7.83498,47.828 -8.39014,68.3341 -8.70054,79.7993"/>
<polygon fill="black" stroke="black" points="-6.95964,80.1626 -8.84441,85.1134 -10.4584,80.0679 -6.95964,80.1626"/>
<text text-anchor="middle" x="-24.2072" y="58.9779" font-family="monospace" font-size="8.00">N1570Y</text>
</g>
<!-- 51 -->
<g id="node52" class="node"><title>51</title>
<ellipse fill="brown" stroke="black" cx="28.6484" cy="-63.6705" rx="2.5" ry="2.5"/>
<text text-anchor="middle" x="28.6484" y="-61.7705" font-family="monospace" font-size="8.00">51</text>
</g>
<!-- 51&#45;&gt;6 -->
<g id="edge67" class="edge"><title>51&#45;&gt;6</title>
<path fill="none" stroke="black" d="M26.0596,-63.8334C24.6013,-63.9252 22.621,-64.0498 20.3657,-64.1918"/>
</g>
<!-- 52 -->
<g id="node53" class="node"><title>52</title>
<ellipse fill="brown" stroke="black" cx="34.8111" cy="45.2739" rx="2.5" ry="2.5"/>
<text text-anchor="middle" x="34.8111" y="47.1739" font-family="monospace" font-size="8.00">52</text>
</g>
<!-- 52&#45;&gt;50 -->
<g id="edge68" class="edge"><title>52&#45;&gt;50</title>
<path fill="none" stroke="black" d="M32.2959,44.5126C25.6193,42.4915 7.33003,36.9554 -1.91505,34.1569"/>
</g>
<!-- 53 -->
<g id="node54" class="node"><title>53</title>
<ellipse fill="brown" stroke="black" cx="-50.9424" cy="41.2665" rx="2.5" ry="2.5"/>
<text text-anchor="middle" x="-50.9424" y="43.1665" font-family="monospace" font-size="8.00">53</text>
</g>
<!-- 53&#45;&gt;50 -->
<g id="edge69" class="edge"><title>53&#45;&gt;50</title>
<path fill="none" stroke="black" d="M-48.3502,40.7438C-41.4694,39.3564 -22.6207,35.5557 -13.0928,33.6345"/>
</g>
<!-- 54 -->
<g id="node55" class="node"><title>54</title>
<ellipse fill="brown" stroke="black" cx="-1.73031" cy="-98.8779" rx="2.5" ry="2.5"/>
<text text-anchor="middle" x="-1.73031" y="-96.9779" font-family="monospace" font-size="8.00">54</text>
</g>
<!-- 54&#45;&gt;6 -->
<g id="edge70" class="edge"><title>54&#45;&gt;6</title>
<path fill="none" stroke="black" d="M-1.93539,-96.2781C-2.05573,-94.7527 -2.22093,-92.6584 -2.40889,-90.2758"/>
</g>
<!-- anon_15_23_1 -->
<g id="node62" class="node"><title>anon_15_23_1</title>
<ellipse fill="white" stroke="black" cx="167.329" cy="-258.631" rx="1" ry="1"/>
</g>
<!-- anon_15_23_0&#45;&gt;anon_15_23_1 -->
<g id="edge36" class="edge"><title>anon_15_23_0&#45;&gt;anon_15_23_1</title>
<path fill="none" stroke="black" d="M143.355,-225.025C146.098,-228.87 157.454,-244.788 163.5,-253.263"/>
<polygon fill="black" stroke="black" points="162.126,-254.35 166.454,-257.405 164.975,-252.318 162.126,-254.35"/>
<text text-anchor="middle" x="141.314" y="-243.688" font-family="monospace" font-size="8.00">Q545L</text>
</g>
<!-- anon_15_23_1&#45;&gt;23 -->
<g id="edge37" class="edge"><title>anon_15_23_1&#45;&gt;23</title>
<path fill="none" stroke="black" d="M168.04,-259.388C171.711,-263.294 188.553,-281.215 194.234,-287.261"/>
</g>
<!-- anon_27_6_0&#45;&gt;anon_27_6_1 -->
<g id="edge41" class="edge"><title>anon_27_6_0&#45;&gt;anon_27_6_1</title>
<path fill="none" stroke="black" d="M-112.004,-112.277C-105.621,-109.097 -74.1748,-93.4296 -68.3347,-90.5199"/>
</g>
<!-- anon_31_20_1 -->
<g id="node66" class="node"><title>anon_31_20_1</title>
<ellipse fill="white" stroke="black" cx="-206.345" cy="-84.6422" rx="1" ry="1"/>
</g>
<!-- anon_31_20_0&#45;&gt;anon_31_20_1 -->
<g id="edge46" class="edge"><title>anon_31_20_0&#45;&gt;anon_31_20_1</title>
<path fill="none" stroke="black" d="M-163.2,-74.9362C-168.183,-76.0572 -188.959,-80.7311 -199.759,-83.1607"/>
<polygon fill="black" stroke="black" points="-200.277,-81.4832 -204.771,-84.288 -199.508,-84.8979 -200.277,-81.4832"/>
<text text-anchor="middle" x="-197.572" y="-73.2317" font-family="monospace" font-size="8.00">T791M</text>
</g>
<!-- anon_31_20_1&#45;&gt;20 -->
<g id="edge47" class="edge"><title>anon_31_20_1&#45;&gt;20</title>
<path fill="none" stroke="black" d="M-207.382,-84.9943C-211.895,-86.5272 -230.073,-92.7011 -240.616,-96.282"/>
<polygon fill="black" stroke="black" points="-241.381,-94.6936 -245.552,-97.9587 -240.255,-98.0077 -241.381,-94.6936"/>
<text text-anchor="middle" x="-242.346" y="-85.0354" font-family="monospace" font-size="8.00">L1366F</text>
</g>
<!-- anon_35_3_0&#45;&gt;3 -->
<g id="edge50" class="edge"><title>anon_35_3_0&#45;&gt;3</title>
<path fill="none" stroke="black" d="M56.3658,234.695C51.5872,230.64 25.5104,208.51 7.19464,192.967"/>
</g>
<!-- anon_45_3_0&#45;&gt;3 -->
<g id="edge61" class="edge"><title>anon_45_3_0&#45;&gt;3</title>
<path fill="none" stroke="black" d="M-79.5811,227.205C-74.3104,223.366 -48.9085,204.86 -30.5983,191.521"/>
</g>
<!-- anon_49_6_0&#45;&gt;6 -->
<g id="edge66" class="edge"><title>anon_49_6_0&#45;&gt;6</title>
<path fill="none" stroke="black" d="M56.4924,-60.958C52.6442,-60.8089 39.4841,-60.3924 28.66,-61.1705 25.8905,-61.3696 22.9993,-61.6549 20.1293,-61.9872"/>
</g>
</g>
</svg>
