<?xml version="1.0" encoding="UTF-8" standalone="no"?>
<!DOCTYPE svg PUBLIC "-//W3C//DTD SVG 1.1//EN"
 "http://www.w3.org/Graphics/SVG/1.1/DTD/svg11.dtd">
<!-- Generated by graphviz version 2.38.0 (20140413.2041)
 -->
<!-- Title: %3 Pages: 1 -->
<svg width="653pt" height="783pt"
 viewBox="0.00 0.00 653.00 782.67" xmlns="http://www.w3.org/2000/svg" xmlns:xlink="http://www.w3.org/1999/xlink">
<g id="graph0" class="graph" transform="scale(1 1) rotate(0) translate(219.674 538.975)">
<title>%3</title>
<polygon fill="white" stroke="none" points="-219.674,243.697 -219.674,-538.975 433.33,-538.975 433.33,243.697 -219.674,243.697"/>
<!-- 0 -->
<g id="node1" class="node"><title>0</title>
<path fill="palegreen" stroke="black" stroke-width="0.5" d="M217.538,-190.805C217.538,-190.805 258.538,-190.805 258.538,-190.805 258.538,-192.457 258.438,-194.107 258.239,-195.747 258.04,-197.387 257.742,-199.013 257.346,-200.617 256.951,-202.221 256.459,-203.799 255.873,-205.344 255.288,-206.888 254.609,-208.396 253.841,-209.859 253.074,-211.321 252.218,-212.736 251.28,-214.096 250.342,-215.455 249.322,-216.757 248.227,-217.993 247.131,-219.229 245.962,-220.399 244.726,-221.494 243.489,-222.589 242.188,-223.609 240.828,-224.547 239.469,-225.486 238.054,-226.341 236.591,-227.109 235.129,-227.876 233.621,-228.555 232.076,-229.141 230.532,-229.726 228.953,-230.218 227.35,-230.614 225.746,-231.009 224.12,-231.307 222.48,-231.506 220.84,-231.705 219.19,-231.805 217.538,-231.805 215.886,-231.805 214.236,-231.705 212.596,-231.506 210.956,-231.307 209.33,-231.009 207.726,-230.614 206.122,-230.218 204.543,-229.726 202.999,-229.141 201.454,-228.555 199.947,-227.876 198.484,-227.109 197.021,-226.341 195.606,-225.486 194.247,-224.547 192.888,-223.609 191.586,-222.589 190.35,-221.494 189.113,-220.399 187.944,-219.229 186.849,-217.993 185.753,-216.757 184.734,-215.455 183.795,-214.096 182.857,-212.736 182.002,-211.321 181.234,-209.859 180.466,-208.396 179.788,-206.888 179.202,-205.344 178.616,-203.799 178.124,-202.221 177.729,-200.617 177.334,-199.013 177.036,-197.387 176.837,-195.747 176.638,-194.107 176.538,-192.457 176.538,-190.805 176.538,-189.153 176.638,-187.503 176.837,-185.863 177.036,-184.223 177.334,-182.597 177.729,-180.993 178.124,-179.389 178.616,-177.811 179.202,-176.266 179.788,-174.722 180.466,-173.214 181.234,-171.751 182.002,-170.289 182.857,-168.874 183.795,-167.514 184.734,-166.155 185.753,-164.853 186.849,-163.617 186.849,-163.617 217.538,-190.805 217.538,-190.805"/>
<path fill="#787878" stroke="black" stroke-width="0.5" d="M217.538,-190.805C217.538,-190.805 186.849,-163.617 186.849,-163.617 187.533,-162.844 188.247,-162.098 188.987,-161.379 189.728,-160.66 190.496,-159.97 191.289,-159.309 192.082,-158.648 192.9,-158.017 193.74,-157.418 194.581,-156.819 195.444,-156.252 196.327,-155.718 197.21,-155.184 198.113,-154.683 199.035,-154.218 199.956,-153.752 200.894,-153.321 201.848,-152.926 202.801,-152.531 203.77,-152.172 204.75,-151.85 205.731,-151.528 206.724,-151.243 207.726,-150.996 208.728,-150.749 209.739,-150.54 210.757,-150.37 211.775,-150.199 212.799,-150.067 213.827,-149.973 214.855,-149.88 215.886,-149.825 216.918,-149.81 217.951,-149.794 218.983,-149.817 220.013,-149.88 221.044,-149.942 222.071,-150.043 223.094,-150.183 224.117,-150.323 225.134,-150.502 226.143,-150.718 227.152,-150.935 228.153,-151.189 229.143,-151.482 230.133,-151.774 231.111,-152.103 232.077,-152.469 233.042,-152.835 233.993,-153.238 234.927,-153.675 235.862,-154.113 236.78,-154.586 237.679,-155.093 238.578,-155.6 239.458,-156.141 240.316,-156.715 241.174,-157.288 242.011,-157.894 242.823,-158.53 243.636,-159.167 244.424,-159.834 245.186,-160.53 245.948,-161.226 246.684,-161.951 247.391,-162.702 248.099,-163.454 248.778,-164.232 249.427,-165.035 250.075,-165.838 250.694,-166.665 251.28,-167.514 251.866,-168.364 252.42,-169.235 252.941,-170.126 253.462,-171.018 253.948,-171.928 254.4,-172.856 254.852,-173.785 255.269,-174.729 255.649,-175.689 256.03,-176.648 256.374,-177.622 256.681,-178.607 256.988,-179.593 257.258,-180.59 257.49,-181.595 257.722,-182.601 257.916,-183.615 258.071,-184.636 258.226,-185.656 258.343,-186.682 258.421,-187.712 258.499,-188.741 258.538,-189.773 258.538,-190.805 258.538,-190.805 217.538,-190.805 217.538,-190.805"/>
<ellipse fill="none" stroke="black" cx="217.538" cy="-190.805" rx="41" ry="41"/>
</g>
<!-- 4 -->
<g id="node5" class="node"><title>4</title>
<ellipse fill="palegreen" stroke="black" cx="272.723" cy="-79.9741" rx="13" ry="13"/>
</g>
<!-- 0&#45;&#45;4 -->
<g id="edge1" class="edge"><title>0&#45;&#45;4</title>
<path fill="none" stroke="black" d="M235.914,-153.9C246.7,-132.238 259.608,-106.313 266.918,-91.632"/>
</g>
<!-- 23 -->
<g id="node24" class="node"><title>23</title>
<ellipse fill="palegreen" stroke="black" cx="183.061" cy="-260.731" rx="3.5" ry="3.5"/>
</g>
<!-- 0&#45;&#45;23 -->
<g id="edge2" class="edge"><title>0&#45;&#45;23</title>
<path fill="none" stroke="black" d="M199.29,-227.816C193.346,-239.871 187.562,-251.601 184.779,-257.246"/>
</g>
<!-- 43 -->
<g id="node44" class="node"><title>43</title>
<ellipse fill="#787878" stroke="black" cx="273.773" cy="-155.701" rx="3.5" ry="3.5"/>
</g>
<!-- 0&#45;&#45;43 -->
<g id="edge5" class="edge"><title>0&#45;&#45;43</title>
<path fill="none" stroke="black" d="M252.513,-168.972C260.018,-164.288 266.829,-160.036 270.624,-157.667"/>
</g>
<!-- anon_0_41_0 -->
<g id="node63" class="node"><title>anon_0_41_0</title>
<ellipse fill="white" stroke="black" cx="151.887" cy="-113.254" rx="2.5" ry="2.5"/>
</g>
<!-- 0&#45;&#45;anon_0_41_0 -->
<g id="edge3" class="edge"><title>0&#45;&#45;anon_0_41_0</title>
<path fill="none" stroke="black" d="M190.835,-159.262C175.783,-141.482 158.951,-121.598 153.609,-115.288"/>
</g>
<!-- 1 -->
<g id="node2" class="node"><title>1</title>
<ellipse fill="palegreen" stroke="black" cx="317.916" cy="129.307" rx="33" ry="33"/>
</g>
<!-- 10 -->
<g id="node11" class="node"><title>10</title>
<ellipse fill="palegreen" stroke="black" cx="420.33" cy="160.122" rx="9" ry="9"/>
</g>
<!-- 1&#45;&#45;10 -->
<g id="edge6" class="edge"><title>1&#45;&#45;10</title>
<path fill="none" stroke="black" d="M349.759,138.888C371.133,145.319 397.785,153.338 411.407,157.437"/>
</g>
<!-- 19 -->
<g id="node20" class="node"><title>19</title>
<ellipse fill="palegreen" stroke="black" cx="236.277" cy="195.222" rx="5" ry="5"/>
</g>
<!-- 1&#45;&#45;19 -->
<g id="edge7" class="edge"><title>1&#45;&#45;19</title>
<path fill="none" stroke="black" d="M292.085,150.162C273.399,165.249 249.847,184.265 240.437,191.862"/>
</g>
<!-- 20 -->
<g id="node21" class="node"><title>20</title>
<ellipse fill="palegreen" stroke="black" cx="381.085" cy="85.6896" rx="5" ry="5"/>
</g>
<!-- 1&#45;&#45;20 -->
<g id="edge8" class="edge"><title>1&#45;&#45;20</title>
<path fill="none" stroke="black" d="M345.072,110.556C357.11,102.244 370.024,93.327 376.63,88.7653"/>
</g>
<!-- 25 -->
<g id="node26" class="node"><title>25</title>
<ellipse fill="palegreen" stroke="black" cx="291.673" cy="72.8781" rx="3.5" ry="3.5"/>
</g>
<!-- 1&#45;&#45;25 -->
<g id="edge9" class="edge"><title>1&#45;&#45;25</title>
<path fill="none" stroke="black" d="M303.873,99.11C299.583,89.8863 295.426,80.9465 293.246,76.2599"/>
</g>
<!-- 30 -->
<g id="node31" class="node"><title>30</title>
<ellipse fill="palegreen" stroke="black" cx="276.329" cy="175.159" rx="3.5" ry="3.5"/>
</g>
<!-- 1&#45;&#45;30 -->
<g id="edge10" class="edge"><title>1&#45;&#45;30</title>
<path fill="none" stroke="black" d="M295.662,153.844C288.864,161.339 282.275,168.603 278.821,172.411"/>
</g>
<!-- 31 -->
<g id="node32" class="node"><title>31</title>
<ellipse fill="palegreen" stroke="black" cx="375.986" cy="163.788" rx="3.5" ry="3.5"/>
</g>
<!-- 1&#45;&#45;31 -->
<g id="edge11" class="edge"><title>1&#45;&#45;31</title>
<path fill="none" stroke="black" d="M346.611,146.345C357.126,152.589 367.701,158.868 372.818,161.906"/>
</g>
<!-- 32 -->
<g id="node33" class="node"><title>32</title>
<ellipse fill="palegreen" stroke="black" cx="298.656" cy="217.224" rx="3.5" ry="3.5"/>
</g>
<!-- 1&#45;&#45;32 -->
<g id="edge12" class="edge"><title>1&#45;&#45;32</title>
<path fill="none" stroke="black" d="M310.854,161.545C306.473,181.54 301.328,205.025 299.419,213.74"/>
</g>
<!-- 36 -->
<g id="node37" class="node"><title>36</title>
<ellipse fill="palegreen" stroke="black" cx="373.21" cy="205.055" rx="3.5" ry="3.5"/>
</g>
<!-- 1&#45;&#45;36 -->
<g id="edge13" class="edge"><title>1&#45;&#45;36</title>
<path fill="none" stroke="black" d="M337.567,156.226C350.231,173.576 365.346,194.281 370.963,201.977"/>
</g>
<!-- 38 -->
<g id="node39" class="node"><title>38</title>
<ellipse fill="palegreen" stroke="black" cx="336.131" cy="216.509" rx="3.5" ry="3.5"/>
</g>
<!-- 1&#45;&#45;38 -->
<g id="edge14" class="edge"><title>1&#45;&#45;38</title>
<path fill="none" stroke="black" d="M324.699,161.778C328.785,181.341 333.541,204.108 335.365,212.842"/>
</g>
<!-- 42 -->
<g id="node43" class="node"><title>42</title>
<ellipse fill="palegreen" stroke="black" cx="243.396" cy="132.693" rx="3.5" ry="3.5"/>
</g>
<!-- 1&#45;&#45;42 -->
<g id="edge15" class="edge"><title>1&#45;&#45;42</title>
<path fill="none" stroke="black" d="M284.579,130.821C269.698,131.497 253.973,132.212 247.04,132.527"/>
</g>
<!-- 47 -->
<g id="node48" class="node"><title>47</title>
<ellipse fill="palegreen" stroke="black" cx="403.343" cy="115.347" rx="3.5" ry="3.5"/>
</g>
<!-- 1&#45;&#45;47 -->
<g id="edge16" class="edge"><title>1&#45;&#45;47</title>
<path fill="none" stroke="black" d="M350.7,123.949C369.521,120.874 391.065,117.353 399.59,115.96"/>
</g>
<!-- 57 -->
<g id="node58" class="node"><title>57</title>
<ellipse fill="palegreen" stroke="black" cx="315.135" cy="43.1737" rx="3.5" ry="3.5"/>
</g>
<!-- 1&#45;&#45;57 -->
<g id="edge17" class="edge"><title>1&#45;&#45;57</title>
<path fill="none" stroke="black" d="M316.849,96.2517C316.236,77.2752 315.535,55.5533 315.258,46.958"/>
</g>
<!-- anon_1_58_0 -->
<g id="node64" class="node"><title>anon_1_58_0</title>
<ellipse fill="white" stroke="black" cx="235.581" cy="72.3618" rx="2.5" ry="2.5"/>
</g>
<!-- 1&#45;&#45;anon_1_58_0 -->
<g id="edge18" class="edge"><title>1&#45;&#45;anon_1_58_0</title>
<path fill="none" stroke="black" d="M290.5,110.345C270.291,96.3678 245.087,78.9363 237.704,73.8302"/>
</g>
<!-- 2 -->
<g id="node3" class="node"><title>2</title>
<path fill="#1874cd" stroke="black" stroke-width="0.5" d="M-38.1537,-40.7864C-38.1537,-40.7864 -11.6537,-40.7864 -11.6537,-40.7864 -11.6537,-41.7958 -11.7114,-42.8044 -11.8264,-43.8072 -11.9415,-44.81 -12.1137,-45.8054 -12.3424,-46.7886 -12.571,-47.7717 -12.8556,-48.741 -13.1948,-49.6917 -13.534,-50.6424 -13.9273,-51.5729 -14.3726,-52.4788 -14.818,-53.3846 -15.3147,-54.2642 -15.8605,-55.1134 -16.4062,-55.9625 -17,-56.7798 -17.6389,-57.5612 -18.2779,-58.3426 -18.961,-59.0869 -19.6848,-59.7904 -20.4087,-60.4939 -21.1722,-61.1554 -21.9715,-61.7718 -21.9715,-61.7718 -38.1537,-40.7864 -38.1537,-40.7864"/>
<path fill="olivedrab" stroke="black" stroke-width="0.5" d="M-38.1537,-40.7864C-38.1537,-40.7864 -21.9715,-61.7718 -21.9715,-61.7718 -22.5585,-62.2244 -23.1641,-62.6522 -23.7869,-63.054 -24.4097,-63.4558 -25.0491,-63.8313 -25.7034,-64.1796 -26.3577,-64.5278 -27.0263,-64.8484 -27.7075,-65.1406 -28.3886,-65.4328 -29.0817,-65.6962 -29.785,-65.9303 -30.4882,-66.1643 -31.201,-66.3688 -31.9214,-66.5431 -32.6418,-66.7174 -33.3692,-66.8614 -34.1016,-66.9748 -34.8341,-67.0881 -35.571,-67.1707 -36.3104,-67.2222 -37.0498,-67.2738 -37.791,-67.2943 -38.5321,-67.2837 -39.2732,-67.2731 -40.0135,-67.2314 -40.7511,-67.1588 -41.4887,-67.0861 -42.223,-66.9826 -42.9519,-66.8484 -43.6808,-66.7142 -44.4038,-66.5495 -45.1189,-66.3546 -45.8341,-66.1598 -46.5407,-65.9351 -47.237,-65.6811 -47.9332,-65.427 -48.6186,-65.1438 -49.2911,-64.8323 -49.9636,-64.5208 -50.6228,-64.1813 -51.2669,-63.8145 -51.911,-63.4477 -52.5394,-63.0541 -53.1505,-62.6347 -53.7615,-62.2152 -54.3547,-61.7703 -54.9285,-61.3011 -55.5023,-60.832 -56.0561,-60.3389 -56.5886,-59.8233 -57.121,-59.3077 -57.6316,-58.77 -58.119,-58.2116 -58.6063,-57.6532 -59.0701,-57.0746 -59.5089,-56.4773 -59.9478,-55.88 -60.3614,-55.2646 -60.7486,-54.6326 -61.1359,-54.0006 -61.4965,-53.3527 -61.8294,-52.6905 -62.1624,-52.0283 -62.4674,-51.3525 -62.7437,-50.6647 -63.02,-49.977 -63.2673,-49.2779 -63.485,-48.5694 -63.7027,-47.8609 -63.8905,-47.1436 -64.0481,-46.4194 -64.2056,-45.6951 -64.3327,-44.9646 -64.429,-44.2297 -64.5253,-43.4948 -64.5908,-42.7562 -64.6251,-42.0158 -64.6595,-41.2754 -64.6628,-40.5339 -64.6351,-39.7933 -64.6073,-39.0526 -64.5485,-38.3135 -64.4587,-37.5777 -64.369,-36.842 -64.2484,-36.1104 -64.0973,-35.3847 -63.9462,-34.6591 -63.7648,-33.9402 -63.5534,-33.2298 -63.3421,-32.5194 -63.101,-31.8181 -62.8309,-31.1279 -62.5607,-30.4377 -62.2618,-29.7592 -61.9347,-29.094 -61.6077,-28.4289 -61.2529,-27.7778 -60.8713,-27.1424 -60.4897,-26.507 -60.0816,-25.8879 -59.6481,-25.2867 -59.2146,-24.6855 -58.7561,-24.1028 -58.2737,-23.5401 -57.7913,-22.9773 -57.2856,-22.4351 -56.7577,-21.9148 -56.2299,-21.3944 -55.6805,-20.8964 -55.1109,-20.4222 -54.5414,-19.9479 -53.9522,-19.4977 -53.3448,-19.0728 -52.7375,-18.648 -52.1127,-18.2487 -51.4719,-17.8762 -50.8311,-17.5037 -50.175,-17.1583 -49.5053,-16.8408 -48.8355,-16.5233 -48.1528,-16.2341 -47.4588,-15.9738 -46.7648,-15.7135 -46.0602,-15.4825 -45.3469,-15.2813 -44.6335,-15.0801 -43.912,-14.909 -43.1843,-14.7683 -42.4566,-14.6276 -41.7233,-14.5175 -40.9864,-14.4382 -40.2495,-14.359 -39.5095,-14.3107 -38.7686,-14.2935 -38.0276,-14.2763 -37.2862,-14.2902 -36.5464,-14.3352 -35.8066,-14.3801 -35.069,-14.4561 -34.3355,-14.5629 -33.6021,-14.6697 -32.8734,-14.8072 -32.1515,-14.9751 -31.4296,-15.143 -30.715,-15.341 -30.0097,-15.5688 -29.3044,-15.7966 -28.609,-16.0539 -27.9252,-16.3399 -27.2415,-16.626 -26.57,-16.9407 -25.9127,-17.283 -25.2553,-17.6254 -24.6126,-17.9952 -23.9862,-18.3914 -23.3599,-18.7877 -22.7504,-19.2101 -22.1595,-19.6574 -21.5685,-20.1047 -20.9966,-20.5767 -20.4452,-21.072 -19.8938,-21.5673 -19.3634,-22.0855 -18.8555,-22.6252 -18.3475,-23.165 -17.8624,-23.7258 -17.4015,-24.3062 -16.9406,-24.8866 -16.5042,-25.4861 -16.0935,-26.1031 -15.6828,-26.7201 -15.2982,-27.3541 -14.9407,-28.0033 -14.5831,-28.6526 -14.253,-29.3165 -13.9511,-29.9935 -13.6493,-30.6704 -13.3759,-31.3597 -13.1319,-32.0595 -12.8878,-32.7594 -12.6732,-33.4691 -12.4886,-34.1869 -12.304,-34.9048 -12.1496,-35.63 -12.0258,-36.3608 -11.9021,-37.0916 -11.809,-37.8272 -11.7469,-38.5658 -11.6848,-39.3044 -11.6537,-40.0452 -11.6537,-40.7864 -11.6537,-40.7864 -38.1537,-40.7864 -38.1537,-40.7864"/>
<ellipse fill="none" stroke="black" cx="-38.1537" cy="-40.7864" rx="26.5" ry="26.5"/>
</g>
<!-- 24 -->
<g id="node25" class="node"><title>24</title>
<ellipse fill="olivedrab" stroke="black" cx="-65.8108" cy="-108.121" rx="3.5" ry="3.5"/>
</g>
<!-- 2&#45;&#45;24 -->
<g id="edge22" class="edge"><title>2&#45;&#45;24</title>
<path fill="none" stroke="black" d="M-48.2951,-65.4769C-54.3385,-80.1901 -61.3953,-97.3708 -64.3712,-104.616"/>
</g>
<!-- 33 -->
<g id="node34" class="node"><title>33</title>
<ellipse fill="olivedrab" stroke="black" cx="-108.24" cy="-77.805" rx="3.5" ry="3.5"/>
</g>
<!-- 2&#45;&#45;33 -->
<g id="edge23" class="edge"><title>2&#45;&#45;33</title>
<path fill="none" stroke="black" d="M-61.8819,-53.3192C-77.7668,-61.7093 -97.1266,-71.9348 -104.836,-76.007"/>
</g>
<!-- 40 -->
<g id="node41" class="node"><title>40</title>
<ellipse fill="olivedrab" stroke="black" cx="-116.254" cy="-24.7049" rx="3.5" ry="3.5"/>
</g>
<!-- 2&#45;&#45;40 -->
<g id="edge24" class="edge"><title>2&#45;&#45;40</title>
<path fill="none" stroke="black" d="M-64.1601,-35.4315C-82.0872,-31.7402 -104.158,-27.1956 -112.671,-25.4426"/>
</g>
<!-- anon_2_50_0 -->
<g id="node67" class="node"><title>anon_2_50_0</title>
<ellipse fill="white" stroke="black" cx="20.3666" cy="-92.9005" rx="2.5" ry="2.5"/>
</g>
<!-- 2&#45;&#45;anon_2_50_0 -->
<g id="edge25" class="edge"><title>2&#45;&#45;anon_2_50_0</title>
<path fill="none" stroke="black" d="M-18.3414,-58.4298C-4.54743,-70.7138 12.3847,-85.7923 18.2493,-91.0149"/>
</g>
<!-- 3 -->
<g id="node4" class="node"><title>3</title>
<ellipse fill="#1874cd" stroke="black" cx="-197.005" cy="29.3556" rx="18.5" ry="18.5"/>
</g>
<!-- 13 -->
<g id="node14" class="node"><title>13</title>
<ellipse fill="#1874cd" stroke="black" cx="-174.834" cy="-27.3424" rx="6" ry="6"/>
</g>
<!-- 3&#45;&#45;13 -->
<g id="edge29" class="edge"><title>3&#45;&#45;13</title>
<path fill="none" stroke="black" d="M-190.232,12.0362C-185.75,0.572978 -180.152,-13.7408 -177.092,-21.5675"/>
</g>
<!-- anon_4_35_0 -->
<g id="node70" class="node"><title>anon_4_35_0</title>
<ellipse fill="white" stroke="black" cx="265.793" cy="-23.1529" rx="2.5" ry="2.5"/>
</g>
<!-- 4&#45;&#45;anon_4_35_0 -->
<g id="edge30" class="edge"><title>4&#45;&#45;anon_4_35_0</title>
<path fill="none" stroke="black" d="M271.116,-66.7954C269.452,-53.1571 266.978,-32.8701 266.109,-25.742"/>
</g>
<!-- 5 -->
<g id="node6" class="node"><title>5</title>
<ellipse fill="#1874cd" stroke="black" cx="-100.571" cy="-318.804" rx="12" ry="12"/>
</g>
<!-- 12 -->
<g id="node13" class="node"><title>12</title>
<ellipse fill="#1874cd" stroke="black" cx="-125.786" cy="-255.726" rx="7" ry="7"/>
</g>
<!-- 5&#45;&#45;12 -->
<g id="edge32" class="edge"><title>5&#45;&#45;12</title>
<path fill="none" stroke="black" d="M-105.079,-307.527C-110.349,-294.345 -118.892,-272.972 -123.17,-262.27"/>
</g>
<!-- 18 -->
<g id="node19" class="node"><title>18</title>
<ellipse fill="#1874cd" stroke="black" cx="-107.33" cy="-383.116" rx="5" ry="5"/>
</g>
<!-- 5&#45;&#45;18 -->
<g id="edge33" class="edge"><title>5&#45;&#45;18</title>
<path fill="none" stroke="black" d="M-101.842,-330.901C-103.326,-345.018 -105.713,-367.725 -106.782,-377.896"/>
</g>
<!-- anon_5_29_0 -->
<g id="node71" class="node"><title>anon_5_29_0</title>
<ellipse fill="white" stroke="black" cx="-74.053" cy="-265.015" rx="2.5" ry="2.5"/>
</g>
<!-- 5&#45;&#45;anon_5_29_0 -->
<g id="edge34" class="edge"><title>5&#45;&#45;anon_5_29_0</title>
<path fill="none" stroke="black" d="M-95.2048,-307.919C-88.909,-295.149 -78.8804,-274.807 -75.341,-267.627"/>
</g>
<!-- 6 -->
<g id="node7" class="node"><title>6</title>
<ellipse fill="#787878" stroke="black" cx="106.493" cy="-241.107" rx="11.5" ry="11.5"/>
</g>
<!-- 6&#45;&#45;0 -->
<g id="edge36" class="edge"><title>6&#45;&#45;0</title>
<path fill="none" stroke="black" d="M117.14,-236.284C131.471,-229.792 157.716,-217.903 179.778,-207.909"/>
</g>
<!-- 49 -->
<g id="node50" class="node"><title>49</title>
<ellipse fill="#787878" stroke="black" cx="51.3405" cy="-226.214" rx="3.5" ry="3.5"/>
</g>
<!-- 6&#45;&#45;49 -->
<g id="edge37" class="edge"><title>6&#45;&#45;49</title>
<path fill="none" stroke="black" d="M95.3319,-238.093C82.7415,-234.693 62.9734,-229.355 54.9273,-227.183"/>
</g>
<!-- 7 -->
<g id="node8" class="node"><title>7</title>
<ellipse fill="olivedrab" stroke="black" cx="93.342" cy="205.219" rx="11" ry="11"/>
</g>
<!-- 21 -->
<g id="node22" class="node"><title>21</title>
<ellipse fill="olivedrab" stroke="black" cx="63.7927" cy="161.541" rx="5" ry="5"/>
</g>
<!-- 7&#45;&#45;21 -->
<g id="edge38" class="edge"><title>7&#45;&#45;21</title>
<path fill="none" stroke="black" d="M87.0754,195.956C80.841,186.741 71.5406,172.994 66.8023,165.99"/>
</g>
<!-- 8 -->
<g id="node9" class="node"><title>8</title>
<ellipse fill="#1874cd" stroke="black" cx="-49.8669" cy="-524.975" rx="10" ry="10"/>
</g>
<!-- 14 -->
<g id="node15" class="node"><title>14</title>
<ellipse fill="#1874cd" stroke="black" cx="-78.9037" cy="-476.678" rx="6" ry="6"/>
</g>
<!-- 8&#45;&#45;14 -->
<g id="edge39" class="edge"><title>8&#45;&#45;14</title>
<path fill="none" stroke="black" d="M-55.1927,-516.116C-61.2178,-506.095 -70.8309,-490.105 -75.7617,-481.904"/>
</g>
<!-- 9 -->
<g id="node10" class="node"><title>9</title>
<ellipse fill="olivedrab" stroke="black" cx="42.2262" cy="115.114" rx="9" ry="9"/>
</g>
<!-- 11 -->
<g id="node12" class="node"><title>11</title>
<ellipse fill="#1874cd" stroke="black" cx="-162.854" cy="-77.2082" rx="9" ry="9"/>
</g>
<!-- anon_11_39_0 -->
<g id="node72" class="node"><title>anon_11_39_0</title>
<ellipse fill="white" stroke="black" cx="-157.645" cy="-124.454" rx="2.5" ry="2.5"/>
</g>
<!-- 11&#45;&#45;anon_11_39_0 -->
<g id="edge40" class="edge"><title>11&#45;&#45;anon_11_39_0</title>
<path fill="none" stroke="black" d="M-161.85,-86.3176C-160.644,-97.258 -158.69,-114.979 -157.946,-121.727"/>
</g>
<!-- 13&#45;&#45;11 -->
<g id="edge42" class="edge"><title>13&#45;&#45;11</title>
<path fill="none" stroke="black" d="M-173.365,-33.4569C-171.265,-42.1953 -167.395,-58.3066 -164.982,-68.3506"/>
</g>
<!-- 15 -->
<g id="node16" class="node"><title>15</title>
<ellipse fill="#1874cd" stroke="black" cx="30" cy="-30" rx="6" ry="6"/>
</g>
<!-- 16 -->
<g id="node17" class="node"><title>16</title>
<ellipse fill="#1874cd" stroke="black" cx="-115.264" cy="-436.27" rx="5" ry="5"/>
</g>
<!-- 16&#45;&#45;14 -->
<g id="edge43" class="edge"><title>16&#45;&#45;14</title>
<path fill="none" stroke="black" d="M-111.908,-439.999C-105.227,-447.423 -90.2832,-464.031 -83.0216,-472.101"/>
</g>
<!-- 16&#45;&#45;18 -->
<g id="edge44" class="edge"><title>16&#45;&#45;18</title>
<path fill="none" stroke="black" d="M-114.474,-430.979C-112.938,-420.686 -109.566,-398.098 -108.07,-388.075"/>
</g>
<!-- 17 -->
<g id="node18" class="node"><title>17</title>
<ellipse fill="palegreen" stroke="black" cx="203.839" cy="234.697" rx="5" ry="5"/>
</g>
<!-- 19&#45;&#45;17 -->
<g id="edge45" class="edge"><title>19&#45;&#45;17</title>
<path fill="none" stroke="black" d="M233.048,199.151C226.894,206.639 213.541,222.89 207.25,230.547"/>
</g>
<!-- 21&#45;&#45;9 -->
<g id="edge46" class="edge"><title>21&#45;&#45;9</title>
<path fill="none" stroke="black" d="M61.6459,156.92C58.0235,149.122 50.6484,133.245 46.1021,123.458"/>
</g>
<!-- 22 -->
<g id="node23" class="node"><title>22</title>
<ellipse fill="#1874cd" stroke="black" cx="-191.014" cy="-492.376" rx="3.5" ry="3.5"/>
</g>
<!-- anon_22_16_0 -->
<g id="node73" class="node"><title>anon_22_16_0</title>
<ellipse fill="white" stroke="black" cx="-157.012" cy="-463.059" rx="2.5" ry="2.5"/>
</g>
<!-- 22&#45;&#45;anon_22_16_0 -->
<g id="edge47" class="edge"><title>22&#45;&#45;anon_22_16_0</title>
<path fill="none" stroke="black" d="M-188.346,-490.075C-181.833,-484.46 -165.218,-470.134 -159.217,-464.96"/>
</g>
<!-- 26 -->
<g id="node27" class="node"><title>26</title>
<ellipse fill="#1874cd" stroke="black" cx="-166.821" cy="-318.822" rx="3.5" ry="3.5"/>
</g>
<!-- 26&#45;&#45;5 -->
<g id="edge49" class="edge"><title>26&#45;&#45;5</title>
<path fill="none" stroke="black" d="M-163.259,-318.821C-153.853,-318.818 -128.012,-318.811 -112.602,-318.807"/>
</g>
<!-- 60 -->
<g id="node61" class="node"><title>60</title>
<ellipse fill="#1874cd" stroke="black" cx="-212.174" cy="-300.02" rx="3.5" ry="3.5"/>
</g>
<!-- 26&#45;&#45;60 -->
<g id="edge50" class="edge"><title>26&#45;&#45;60</title>
<path fill="none" stroke="black" d="M-170.083,-317.469C-178.37,-314.034 -200.178,-304.994 -208.696,-301.463"/>
</g>
<!-- 27 -->
<g id="node28" class="node"><title>27</title>
<ellipse fill="#787878" stroke="black" cx="224.32" cy="-288.466" rx="3.5" ry="3.5"/>
</g>
<!-- 27&#45;&#45;0 -->
<g id="edge51" class="edge"><title>27&#45;&#45;0</title>
<path fill="none" stroke="black" d="M224.063,-284.757C223.453,-275.977 221.863,-253.08 220.405,-232.09"/>
</g>
<!-- 28 -->
<g id="node29" class="node"><title>28</title>
<ellipse fill="#1874cd" stroke="black" cx="-45" cy="45" rx="3.5" ry="3.5"/>
</g>
<!-- 29 -->
<g id="node30" class="node"><title>29</title>
<ellipse fill="#1874cd" stroke="black" cx="-62.5905" cy="-219.123" rx="3.5" ry="3.5"/>
</g>
<!-- 34 -->
<g id="node35" class="node"><title>34</title>
<ellipse fill="palegreen" stroke="black" cx="333.266" cy="-71.601" rx="3.5" ry="3.5"/>
</g>
<!-- 34&#45;&#45;4 -->
<g id="edge52" class="edge"><title>34&#45;&#45;4</title>
<path fill="none" stroke="black" d="M329.66,-72.0997C321.208,-73.2686 299.777,-76.2325 285.753,-78.1721"/>
</g>
<!-- 35 -->
<g id="node36" class="node"><title>35</title>
<ellipse fill="palegreen" stroke="black" cx="266.082" cy="20.9628" rx="3.5" ry="3.5"/>
</g>
<!-- 37 -->
<g id="node38" class="node"><title>37</title>
<ellipse fill="#787878" stroke="black" cx="315.62" cy="-194.728" rx="3.5" ry="3.5"/>
</g>
<!-- 37&#45;&#45;0 -->
<g id="edge53" class="edge"><title>37&#45;&#45;0</title>
<path fill="none" stroke="black" d="M311.895,-194.579C303.042,-194.225 279.898,-193.299 258.749,-192.453"/>
</g>
<!-- 39 -->
<g id="node40" class="node"><title>39</title>
<ellipse fill="#1874cd" stroke="black" cx="-157.715" cy="-166.696" rx="3.5" ry="3.5"/>
</g>
<!-- 41 -->
<g id="node42" class="node"><title>41</title>
<ellipse fill="#787878" stroke="black" cx="115.76" cy="-84.6232" rx="3.5" ry="3.5"/>
</g>
<!-- 44 -->
<g id="node45" class="node"><title>44</title>
<ellipse fill="#1874cd" stroke="black" cx="48.1965" cy="-307.985" rx="3.5" ry="3.5"/>
</g>
<!-- anon_44_5_0 -->
<g id="node74" class="node"><title>anon_44_5_0</title>
<ellipse fill="white" stroke="black" cx="4.54341" cy="-318.069" rx="2.5" ry="2.5"/>
</g>
<!-- 44&#45;&#45;anon_44_5_0 -->
<g id="edge54" class="edge"><title>44&#45;&#45;anon_44_5_0</title>
<path fill="none" stroke="black" d="M44.7711,-308.776C36.4098,-310.708 15.0791,-315.635 7.37397,-317.415"/>
</g>
<!-- 45 -->
<g id="node46" class="node"><title>45</title>
<ellipse fill="olivedrab" stroke="black" cx="5.57937" cy="25.7935" rx="3.5" ry="3.5"/>
</g>
<!-- 45&#45;&#45;2 -->
<g id="edge57" class="edge"><title>45&#45;&#45;2</title>
<path fill="none" stroke="black" d="M3.47004,22.5822C-1.3415,15.257 -13.4798,-3.2225 -23.4143,-18.347"/>
</g>
<!-- 46 -->
<g id="node47" class="node"><title>46</title>
<ellipse fill="palegreen" stroke="black" cx="149.962" cy="-169.124" rx="3.5" ry="3.5"/>
</g>
<!-- 46&#45;&#45;0 -->
<g id="edge58" class="edge"><title>46&#45;&#45;0</title>
<path fill="none" stroke="black" d="M153.595,-170.29C158.584,-171.891 168.106,-174.946 178.308,-178.219"/>
</g>
<!-- 48 -->
<g id="node49" class="node"><title>48</title>
<ellipse fill="olivedrab" stroke="black" cx="24.4879" cy="67.8133" rx="3.5" ry="3.5"/>
</g>
<!-- 48&#45;&#45;9 -->
<g id="edge59" class="edge"><title>48&#45;&#45;9</title>
<path fill="none" stroke="black" d="M25.7636,71.215C28.4963,78.502 34.9884,95.8139 38.9547,106.39"/>
</g>
<!-- 48&#45;&#45;45 -->
<g id="edge60" class="edge"><title>48&#45;&#45;45</title>
<path fill="none" stroke="black" d="M23.0042,64.516C19.5218,56.7772 10.8454,37.4959 7.21608,29.4307"/>
</g>
<!-- 50 -->
<g id="node51" class="node"><title>50</title>
<ellipse fill="olivedrab" stroke="black" cx="99.6025" cy="-195.092" rx="3.5" ry="3.5"/>
</g>
<!-- 51 -->
<g id="node52" class="node"><title>51</title>
<ellipse fill="olivedrab" stroke="black" cx="75" cy="45" rx="3.5" ry="3.5"/>
</g>
<!-- 52 -->
<g id="node53" class="node"><title>52</title>
<ellipse fill="palegreen" stroke="black" cx="302.938" cy="-241.013" rx="3.5" ry="3.5"/>
</g>
<!-- 52&#45;&#45;0 -->
<g id="edge61" class="edge"><title>52&#45;&#45;0</title>
<path fill="none" stroke="black" d="M299.695,-239.106C291.956,-234.556 271.676,-222.633 253.203,-211.773"/>
</g>
<!-- 53 -->
<g id="node54" class="node"><title>53</title>
<ellipse fill="palegreen" stroke="black" cx="396.555" cy="7.23303" rx="3.5" ry="3.5"/>
</g>
<!-- anon_53_1_0 -->
<g id="node76" class="node"><title>anon_53_1_0</title>
<ellipse fill="white" stroke="black" cx="367.802" cy="44.2646" rx="2.5" ry="2.5"/>
</g>
<!-- 53&#45;&#45;anon_53_1_0 -->
<g id="edge62" class="edge"><title>53&#45;&#45;anon_53_1_0</title>
<path fill="none" stroke="black" d="M394.299,10.1388C388.686,17.3682 374.198,36.0271 369.384,42.2275"/>
</g>
<!-- 54 -->
<g id="node55" class="node"><title>54</title>
<ellipse fill="#1874cd" stroke="black" cx="-138.574" cy="-292.749" rx="3.5" ry="3.5"/>
</g>
<!-- 54&#45;&#45;5 -->
<g id="edge64" class="edge"><title>54&#45;&#45;5</title>
<path fill="none" stroke="black" d="M-135.592,-294.794C-130.273,-298.44 -118.924,-306.221 -110.581,-311.941"/>
</g>
<!-- 55 -->
<g id="node56" class="node"><title>55</title>
<ellipse fill="#787878" stroke="black" cx="270.917" cy="-275.782" rx="3.5" ry="3.5"/>
</g>
<!-- 55&#45;&#45;0 -->
<g id="edge65" class="edge"><title>55&#45;&#45;0</title>
<path fill="none" stroke="black" d="M268.89,-272.555C264.015,-264.794 251.177,-244.356 239.557,-225.859"/>
</g>
<!-- 56 -->
<g id="node57" class="node"><title>56</title>
<ellipse fill="#1874cd" stroke="black" cx="-157.671" cy="-250.85" rx="3.5" ry="3.5"/>
</g>
<!-- anon_56_39_0 -->
<g id="node77" class="node"><title>anon_56_39_0</title>
<ellipse fill="white" stroke="black" cx="-161.277" cy="-208.805" rx="2.5" ry="2.5"/>
</g>
<!-- 56&#45;&#45;anon_56_39_0 -->
<g id="edge66" class="edge"><title>56&#45;&#45;anon_56_39_0</title>
<path fill="none" stroke="black" d="M-157.978,-247.265C-158.687,-239.004 -160.421,-218.778 -161.047,-211.483"/>
</g>
<!-- 58 -->
<g id="node59" class="node"><title>58</title>
<ellipse fill="palegreen" stroke="black" cx="123.563" cy="3.66286" rx="3.5" ry="3.5"/>
</g>
<!-- 59 -->
<g id="node60" class="node"><title>59</title>
<ellipse fill="olivedrab" stroke="black" cx="-84.0739" cy="15.5632" rx="3.5" ry="3.5"/>
</g>
<!-- 59&#45;&#45;2 -->
<g id="edge68" class="edge"><title>59&#45;&#45;2</title>
<path fill="none" stroke="black" d="M-81.8591,12.8454C-77.0219,6.90955 -65.1323,-7.68037 -54.9736,-20.1463"/>
</g>
<!-- 61 -->
<g id="node62" class="node"><title>61</title>
<ellipse fill="#787878" stroke="black" cx="85.5271" cy="-294.686" rx="3.5" ry="3.5"/>
</g>
<!-- 61&#45;&#45;6 -->
<g id="edge69" class="edge"><title>61&#45;&#45;6</title>
<path fill="none" stroke="black" d="M86.9027,-291.17C89.9637,-283.348 97.4439,-264.232 102.225,-252.014"/>
</g>
<!-- anon_0_41_0&#45;&#45;41 -->
<g id="edge4" class="edge"><title>anon_0_41_0&#45;&#45;41</title>
<path fill="none" stroke="black" d="M149.517,-111.376C143.112,-106.3 125.479,-92.3255 118.58,-86.8579"/>
</g>
<!-- anon_1_58_1 -->
<g id="node65" class="node"><title>anon_1_58_1</title>
<ellipse fill="white" stroke="black" cx="199.57" cy="44.9139" rx="2.5" ry="2.5"/>
</g>
<!-- anon_1_58_0&#45;&#45;anon_1_58_1 -->
<g id="edge19" class="edge"><title>anon_1_58_0&#45;&#45;anon_1_58_1</title>
<path fill="none" stroke="black" d="M233.218,70.5608C226.584,65.504 207.862,51.2341 201.623,46.4782"/>
</g>
<!-- anon_1_58_2 -->
<g id="node66" class="node"><title>anon_1_58_2</title>
<ellipse fill="white" stroke="black" cx="163.622" cy="20.7006" rx="2.5" ry="2.5"/>
</g>
<!-- anon_1_58_1&#45;&#45;anon_1_58_2 -->
<g id="edge20" class="edge"><title>anon_1_58_1&#45;&#45;anon_1_58_2</title>
<path fill="none" stroke="black" d="M197.212,43.3252C190.714,38.9484 172.601,26.7481 166.037,22.3269"/>
</g>
<!-- anon_1_58_2&#45;&#45;58 -->
<g id="edge21" class="edge"><title>anon_1_58_2&#45;&#45;58</title>
<path fill="none" stroke="black" d="M160.994,19.5827C154.031,16.6214 135.102,8.57043 127.153,5.18984"/>
</g>
<!-- anon_2_50_1 -->
<g id="node68" class="node"><title>anon_2_50_1</title>
<ellipse fill="white" stroke="black" cx="47.5001" cy="-127.243" rx="2.5" ry="2.5"/>
</g>
<!-- anon_2_50_0&#45;&#45;anon_2_50_1 -->
<g id="edge26" class="edge"><title>anon_2_50_0&#45;&#45;anon_2_50_1</title>
<path fill="none" stroke="black" d="M22.1469,-95.1538C27.0515,-101.361 40.7232,-118.665 45.6776,-124.936"/>
</g>
<!-- anon_2_50_2 -->
<g id="node69" class="node"><title>anon_2_50_2</title>
<ellipse fill="white" stroke="black" cx="71.6359" cy="-162.391" rx="2.5" ry="2.5"/>
</g>
<!-- anon_2_50_1&#45;&#45;anon_2_50_2 -->
<g id="edge27" class="edge"><title>anon_2_50_1&#45;&#45;anon_2_50_2</title>
<path fill="none" stroke="black" d="M49.0837,-129.549C53.4465,-135.902 65.6077,-153.613 70.0148,-160.031"/>
</g>
<!-- anon_2_50_2&#45;&#45;50 -->
<g id="edge28" class="edge"><title>anon_2_50_2&#45;&#45;50</title>
<path fill="none" stroke="black" d="M73.4709,-164.537C78.3316,-170.221 91.5469,-185.673 97.096,-192.161"/>
</g>
<!-- anon_4_35_0&#45;&#45;35 -->
<g id="edge31" class="edge"><title>anon_4_35_0&#45;&#45;35</title>
<path fill="none" stroke="black" d="M265.81,-20.5254C265.86,-12.9572 266.003,8.89462 266.059,17.4597"/>
</g>
<!-- anon_5_29_0&#45;&#45;29 -->
<g id="edge35" class="edge"><title>anon_5_29_0&#45;&#45;29</title>
<path fill="none" stroke="black" d="M-73.4367,-262.548C-71.5209,-254.877 -65.6652,-231.433 -63.4509,-222.568"/>
</g>
<!-- anon_11_39_0&#45;&#45;39 -->
<g id="edge41" class="edge"><title>anon_11_39_0&#45;&#45;39</title>
<path fill="none" stroke="black" d="M-157.65,-126.97C-157.661,-134.074 -157.695,-154.325 -157.709,-162.844"/>
</g>
<!-- anon_22_16_0&#45;&#45;16 -->
<g id="edge48" class="edge"><title>anon_22_16_0&#45;&#45;16</title>
<path fill="none" stroke="black" d="M-154.767,-461.618C-148.128,-457.358 -128.499,-444.763 -119.662,-439.093"/>
</g>
<!-- anon_44_5_1 -->
<g id="node75" class="node"><title>anon_44_5_1</title>
<ellipse fill="white" stroke="black" cx="-40.779" cy="-323.213" rx="2.5" ry="2.5"/>
</g>
<!-- anon_44_5_0&#45;&#45;anon_44_5_1 -->
<g id="edge55" class="edge"><title>anon_44_5_0&#45;&#45;anon_44_5_1</title>
<path fill="none" stroke="black" d="M1.84401,-318.376C-6.23606,-319.293 -30.164,-322.008 -38.1505,-322.915"/>
</g>
<!-- anon_44_5_1&#45;&#45;5 -->
<g id="edge56" class="edge"><title>anon_44_5_1&#45;&#45;5</title>
<path fill="none" stroke="black" d="M-43.3482,-323.024C-50.9928,-322.46 -73.9565,-320.767 -88.3631,-319.704"/>
</g>
<!-- anon_53_1_0&#45;&#45;1 -->
<g id="edge63" class="edge"><title>anon_53_1_0&#45;&#45;1</title>
<path fill="none" stroke="black" d="M366.363,46.718C361.73,54.6157 346.803,80.0625 334.73,100.645"/>
</g>
<!-- anon_56_39_0&#45;&#45;39 -->
<g id="edge67" class="edge"><title>anon_56_39_0&#45;&#45;39</title>
<path fill="none" stroke="black" d="M-161.043,-206.043C-160.424,-198.724 -158.741,-178.825 -158.034,-170.47"/>
</g>
</g>
</svg>
