<?xml version="1.0" encoding="UTF-8" standalone="no"?>
<!DOCTYPE svg PUBLIC "-//W3C//DTD SVG 1.1//EN"
 "http://www.w3.org/Graphics/SVG/1.1/DTD/svg11.dtd">
<!-- Generated by graphviz version 2.38.0 (20140413.2041)
 -->
<!-- Title: %3 Pages: 1 -->
<svg width="223pt" height="231pt"
 viewBox="0.00 0.00 223.16 230.80" xmlns="http://www.w3.org/2000/svg" xmlns:xlink="http://www.w3.org/1999/xlink">
<g id="graph0" class="graph" transform="scale(1 1) rotate(0) translate(48.5306 177.637)">
<title>%3</title>
<polygon fill="white" stroke="none" points="-48.5306,53.1657 -48.5306,-177.637 174.628,-177.637 174.628,53.1657 -48.5306,53.1657"/>
<!-- 0 -->
<g id="node1" class="node"><title>0</title>
<path fill="palegreen" stroke="black" stroke-width="0.5" d="M36.8944,-90.1055C36.8944,-90.1055 77.8944,-90.1055 77.8944,-90.1055 77.8944,-91.7574 77.7946,-93.4077 77.5955,-95.0475 77.3964,-96.6874 77.0983,-98.3136 76.703,-99.9175 76.3077,-101.521 75.8158,-103.1 75.2301,-104.644 74.6443,-106.189 73.9658,-107.697 73.1981,-109.159 72.4305,-110.622 71.5751,-112.037 70.6367,-113.396 69.6984,-114.756 68.6787,-116.057 67.5834,-117.294 66.488,-118.53 65.3189,-119.699 64.0824,-120.794 62.846,-121.89 61.5445,-122.91 60.1851,-123.848 58.8256,-124.786 57.4107,-125.642 55.9481,-126.409 54.4854,-127.177 52.9777,-127.855 51.4332,-128.441 49.8887,-129.027 48.3102,-129.519 46.7064,-129.914 45.1025,-130.309 43.4762,-130.607 41.8364,-130.807 40.1966,-131.006 38.5463,-131.106 36.8944,-131.106 35.2426,-131.106 33.5922,-131.006 31.9524,-130.807 30.3126,-130.607 28.6863,-130.309 27.0825,-129.914 25.4786,-129.519 23.9001,-129.027 22.3556,-128.441 20.8111,-127.855 19.3034,-127.177 17.8408,-126.409 16.3781,-125.642 14.9632,-124.786 13.6038,-123.848 12.2443,-122.91 10.9428,-121.89 9.70638,-120.794 8.46995,-119.699 7.30085,-118.53 6.20547,-117.294 5.11009,-116.057 4.09043,-114.756 3.15207,-113.396 2.21371,-112.037 1.35837,-110.622 0.590712,-109.159 -0.176942,-107.697 -0.855502,-106.189 -1.44126,-104.644 -2.02701,-103.1 -2.51889,-101.521 -2.91421,-99.9175 -3.30952,-98.3136 -3.60755,-96.6873 -3.80665,-95.0475 -4.00576,-93.4077 -4.10559,-91.7574 -4.10559,-90.1055 -4.10559,-88.4537 -4.00576,-86.8033 -3.80665,-85.1635 -3.60754,-83.5237 -3.30952,-81.8974 -2.9142,-80.2936 -2.51889,-78.6897 -2.02701,-77.1112 -1.44125,-75.5667 -0.855499,-74.0222 -0.176938,-72.5145 0.590716,-71.0519 1.35837,-69.5892 2.21372,-68.1743 3.15208,-66.8149 4.09043,-65.4554 5.11009,-64.1539 6.20547,-62.9175 6.20547,-62.9175 36.8944,-90.1055 36.8944,-90.1055"/>
<path fill="#787878" stroke="black" stroke-width="0.5" d="M36.8944,-90.1055C36.8944,-90.1055 6.20547,-62.9175 6.20547,-62.9175 6.88996,-62.1449 7.60338,-61.3984 8.34421,-60.6796 9.08503,-59.9608 9.85274,-59.2703 10.6457,-58.6094 11.4386,-57.9486 12.2563,-57.3179 13.0968,-56.7188 13.9373,-56.1197 14.8002,-55.5525 15.6836,-55.0185 16.5669,-54.4845 17.4701,-53.984 18.3912,-53.5182 19.3124,-53.0524 20.2508,-52.6215 21.2044,-52.2265 22.158,-51.8315 23.1263,-51.4726 24.107,-51.1507 25.0877,-50.8287 26.0803,-50.544 27.0825,-50.2969 28.0847,-50.0499 29.0959,-49.8408 30.1139,-49.6701 31.1319,-49.4994 32.156,-49.3672 33.184,-49.2738 34.2119,-49.1804 35.2431,-49.1258 36.2752,-49.1102 37.3073,-49.0946 38.3396,-49.118 39.3699,-49.1803 40.4003,-49.2427 41.4279,-49.3439 42.4506,-49.4838 43.4733,-49.6236 44.4903,-49.8021 45.4995,-50.0187 46.5088,-50.2354 47.5094,-50.4901 48.4995,-50.7822 49.4895,-51.0744 50.4681,-51.4038 51.4332,-51.7699 52.3984,-52.1359 53.3493,-52.5383 54.2841,-52.9761 55.2189,-53.4139 56.1368,-53.8868 57.0359,-54.3939 57.9349,-54.901 58.8145,-55.4418 59.6728,-56.0153 60.531,-56.5888 61.3673,-57.1944 62.1799,-57.831 62.9924,-58.4676 63.7806,-59.1347 64.5428,-59.8307 65.305,-60.5268 66.0407,-61.2514 66.7482,-62.003 67.4557,-62.7546 68.1346,-63.5327 68.7834,-64.3355 69.4321,-65.1383 70.0504,-65.9654 70.6367,-66.8149 71.2231,-67.6644 71.7772,-68.5357 72.2978,-69.427 72.8184,-70.3184 73.3052,-71.229 73.757,-72.1571 74.2089,-73.0851 74.6256,-74.0299 75.0061,-74.9894 75.3867,-75.9489 75.7309,-76.9224 76.038,-77.9079 76.3451,-78.8934 76.6148,-79.8901 76.8467,-80.896 77.0785,-81.9018 77.2723,-82.916 77.4276,-83.9365 77.583,-84.957 77.6997,-85.9829 77.7776,-87.0122 77.8554,-88.0415 77.8944,-89.0733 77.8944,-90.1055 77.8944,-90.1055 36.8944,-90.1055 36.8944,-90.1055"/>
<ellipse fill="none" stroke="black" cx="36.8944" cy="-90.1055" rx="41" ry="41"/>
</g>
<!-- 1 -->
<g id="node2" class="node"><title>1</title>
<ellipse fill="palegreen" stroke="black" cx="119.799" cy="-128.558" rx="13" ry="13"/>
</g>
<!-- 0&#45;&#45;1 -->
<g id="edge1" class="edge"><title>0&#45;&#45;1</title>
<path fill="none" stroke="black" d="M74.4656,-107.532C86.4615,-113.096 98.8949,-118.863 107.7,-122.946"/>
</g>
<!-- 2 -->
<g id="node3" class="node"><title>2</title>
<ellipse fill="palegreen" stroke="black" cx="-41.0306" cy="-67.3003" rx="3.5" ry="3.5"/>
</g>
<!-- 0&#45;&#45;2 -->
<g id="edge2" class="edge"><title>0&#45;&#45;2</title>
<path fill="none" stroke="black" d="M-2.52466,-78.5693C-16.7186,-74.4154 -30.8317,-70.2851 -37.3278,-68.3839"/>
</g>
<!-- 3 -->
<g id="node4" class="node"><title>3</title>
<ellipse fill="palegreen" stroke="black" cx="-17.0759" cy="-150.778" rx="3.5" ry="3.5"/>
</g>
<!-- 0&#45;&#45;3 -->
<g id="edge3" class="edge"><title>0&#45;&#45;3</title>
<path fill="none" stroke="black" d="M9.59304,-120.798C-0.237557,-131.849 -10.0122,-142.838 -14.5113,-147.895"/>
</g>
<!-- 4 -->
<g id="node5" class="node"><title>4</title>
<ellipse fill="palegreen" stroke="black" cx="-16.2038" cy="-28.8399" rx="3.5" ry="3.5"/>
</g>
<!-- 0&#45;&#45;4 -->
<g id="edge4" class="edge"><title>0&#45;&#45;4</title>
<path fill="none" stroke="black" d="M10.0342,-59.1137C0.362408,-47.9543 -9.25429,-36.8584 -13.6808,-31.7511"/>
</g>
<!-- 6 -->
<g id="node7" class="node"><title>6</title>
<ellipse fill="#787878" stroke="black" cx="59.1284" cy="-2.71586" rx="11.5" ry="11.5"/>
</g>
<!-- 0&#45;&#45;6 -->
<g id="edge5" class="edge"><title>0&#45;&#45;6</title>
<path fill="none" stroke="black" d="M47.0354,-50.2467C50.3797,-37.102 53.8428,-23.4908 56.2013,-14.2206"/>
</g>
<!-- 7 -->
<g id="node8" class="node"><title>7</title>
<ellipse fill="#787878" stroke="black" cx="23.2441" cy="-170.137" rx="3.5" ry="3.5"/>
</g>
<!-- 0&#45;&#45;7 -->
<g id="edge6" class="edge"><title>0&#45;&#45;7</title>
<path fill="none" stroke="black" d="M29.9893,-130.59C27.5029,-145.168 25.0307,-159.662 23.8927,-166.334"/>
</g>
<!-- 9 -->
<g id="node10" class="node"><title>9</title>
<ellipse fill="#787878" stroke="black" cx="-41.0106" cy="-113.068" rx="3.5" ry="3.5"/>
</g>
<!-- 0&#45;&#45;9 -->
<g id="edge7" class="edge"><title>0&#45;&#45;9</title>
<path fill="none" stroke="black" d="M-2.51457,-101.721C-16.7048,-105.904 -30.8143,-110.062 -37.3088,-111.977"/>
</g>
<!-- 10 -->
<g id="node11" class="node"><title>10</title>
<ellipse fill="#787878" stroke="black" cx="113.469" cy="-63.8283" rx="3.5" ry="3.5"/>
</g>
<!-- 0&#45;&#45;10 -->
<g id="edge8" class="edge"><title>0&#45;&#45;10</title>
<path fill="none" stroke="black" d="M76.0791,-76.659C89.9148,-71.9112 103.594,-67.217 109.885,-65.0582"/>
</g>
<!-- 11 -->
<g id="node12" class="node"><title>11</title>
<ellipse fill="#787878" stroke="black" cx="69.4695" cy="-164.345" rx="3.5" ry="3.5"/>
</g>
<!-- 0&#45;&#45;11 -->
<g id="edge9" class="edge"><title>0&#45;&#45;11</title>
<path fill="none" stroke="black" d="M53.3728,-127.66C59.3063,-141.183 65.206,-154.628 67.9216,-160.817"/>
</g>
<!-- 5 -->
<g id="node6" class="node"><title>5</title>
<ellipse fill="palegreen" stroke="black" cx="167.128" cy="-151.983" rx="3.5" ry="3.5"/>
</g>
<!-- 1&#45;&#45;5 -->
<g id="edge10" class="edge"><title>1&#45;&#45;5</title>
<path fill="none" stroke="black" d="M131.742,-134.469C142.477,-139.782 157.517,-147.226 163.977,-150.424"/>
</g>
<!-- 8 -->
<g id="node9" class="node"><title>8</title>
<ellipse fill="#787878" stroke="black" cx="95.7975" cy="33.0389" rx="3.5" ry="3.5"/>
</g>
<!-- 6&#45;&#45;8 -->
<g id="edge11" class="edge"><title>6&#45;&#45;8</title>
<path fill="none" stroke="black" d="M67.6332,5.57688C75.9268,13.6637 88.0302,25.4653 93.2481,30.5531"/>
</g>
<!-- 12 -->
<g id="node13" class="node"><title>12</title>
<ellipse fill="#787878" stroke="black" cx="42.3315" cy="45.6657" rx="3.5" ry="3.5"/>
</g>
<!-- 6&#45;&#45;12 -->
<g id="edge12" class="edge"><title>6&#45;&#45;12</title>
<path fill="none" stroke="black" d="M55.2326,8.50544C51.4336,19.4481 45.8895,35.4174 43.4993,42.302"/>
</g>
</g>
</svg>
