<?xml version="1.0" encoding="UTF-8" standalone="no"?>
<!DOCTYPE svg PUBLIC "-//W3C//DTD SVG 1.1//EN"
 "http://www.w3.org/Graphics/SVG/1.1/DTD/svg11.dtd">
<!-- Generated by graphviz version 2.38.0 (20140413.2041)
 -->
<!-- Title: %3 Pages: 1 -->
<svg width="610pt" height="608pt"
 viewBox="0.00 0.00 609.76 607.51" xmlns="http://www.w3.org/2000/svg" xmlns:xlink="http://www.w3.org/1999/xlink">
<g id="graph0" class="graph" transform="scale(1 1) rotate(0) translate(338.047 365.498)">
<title>%3</title>
<polygon fill="white" stroke="none" points="-338.047,242.016 -338.047,-365.498 271.716,-365.498 271.716,242.016 -338.047,242.016"/>
<!-- 0 -->
<g id="node1" class="node"><title>0</title>
<path fill="deepskyblue" stroke="black" stroke-width="0.5" d="M17.8352,82.1774C17.8352,82.1774 43.3352,82.1774 43.3352,82.1774 43.3352,80.875 43.2354,79.5745 43.0367,78.2873 42.838,77.0001 42.541,75.73 42.1483,74.4882 41.7555,73.2464 41.2682,72.0365 40.6907,70.8691 40.1131,69.7018 39.4469,68.5804 38.698,67.5148 37.9491,66.4492 37.1197,65.4426 36.217,64.5037 35.3143,63.5648 34.3409,62.6965 33.3056,61.9064 32.2702,61.1162 31.1758,60.4065 30.0321,59.7835 28.8883,59.1606 27.6984,58.6262 26.473,58.185 25.2476,57.7438 23.9901,57.3971 22.7117,57.1481 21.4333,56.899 20.1377,56.7482 18.8363,56.6971 17.5349,56.646 16.2314,56.6946 14.9375,56.8426 13.6435,56.9906 12.3627,57.2375 11.1064,57.5812 9.85015,57.9249 8.62206,58.3643 7.43292,58.8956 6.24378,59.4269 5.09709,60.0486 4.00293,60.755 2.90876,61.4615 1.87033,62.2508 0.89675,63.116 -0.0768299,63.9811 -0.982699,64.9196 -1.8129,65.9231 -2.6431,66.9267 -3.3952,67.9923 -4.06259,69.1108 -4.72998,70.2292 -5.3107,71.3972 -5.79966,72.6043 -6.28861,73.8115 -6.68436,75.0544 -6.98343,76.322 -7.2825,77.5896 -7.48402,78.8783 -7.58621,80.1767 -7.68839,81.4751 -7.69096,82.7795 -7.59387,84.0783 -7.49678,85.3771 -7.30033,86.6666 -7.00624,87.9354 -6.71215,89.2042 -6.32128,90.4486 -5.83707,91.6576 -5.35286,92.8667 -4.77673,94.0369 -4.11374,95.158 -3.45075,96.279 -2.70284,97.3477 -1.87658,98.3545 -1.05033,99.3613 -0.148153,100.303 0.822022,101.172 1.7922,102.041 2.82752,102.835 3.9189,103.545 5.01029,104.256 6.15452,104.882 7.34157,105.418 8.52861,105.954 9.75497,106.398 11.0099,106.747 12.2648,107.096 13.5446,107.348 14.838,107.501 16.1314,107.654 17.4346,107.708 18.7362,107.662 20.0379,107.615 21.334,107.47 22.6134,107.226 22.6134,107.226 17.8352,82.1774 17.8352,82.1774"/>
<path fill="#98f5ff" stroke="black" stroke-width="0.5" d="M17.8352,82.1774C17.8352,82.1774 22.6134,107.226 22.6134,107.226 23.3349,107.088 24.05,106.919 24.7569,106.72 25.4638,106.521 26.1617,106.291 26.8488,106.031 27.5358,105.772 28.2113,105.482 28.8734,105.165 29.5355,104.847 30.1836,104.5 30.8157,104.126 31.4479,103.752 32.0637,103.351 32.6612,102.924 33.2588,102.497 33.8376,102.045 34.3961,101.568 34.9546,101.091 35.4922,100.59 36.0075,100.066 36.5227,99.5431 37.0151,98.9977 37.4833,98.4317 37.9514,97.8658 38.3949,97.28 38.8125,96.6758 39.2301,96.0716 39.6214,95.4496 39.9853,94.8116 40.3492,94.1737 40.6853,93.5203 40.9928,92.8533 41.3003,92.1863 41.5789,91.5063 41.8276,90.8152 42.0764,90.1242 42.2953,89.4227 42.4835,88.7128 42.6717,88.0029 42.8292,87.2851 42.9555,86.5616 43.0817,85.8381 43.1767,85.1095 43.2401,84.3777 43.3035,83.646 43.3352,82.9119 43.3352,82.1774 43.3352,82.1774 17.8352,82.1774 17.8352,82.1774"/>
<ellipse fill="none" stroke="black" cx="17.8352" cy="82.1774" rx="25.5" ry="25.5"/>
<text text-anchor="middle" x="17.8352" y="84.0774" font-family="monospace" font-size="8.00">0</text>
</g>
<!-- 22 -->
<g id="node23" class="node"><title>22</title>
<ellipse fill="deepskyblue" stroke="black" cx="-57.7134" cy="148.116" rx="3.5" ry="3.5"/>
<text text-anchor="middle" x="-57.7134" y="150.016" font-family="monospace" font-size="8.00">22</text>
</g>
<!-- 0&#45;&gt;22 -->
<g id="edge2" class="edge"><title>0&#45;&gt;22</title>
<path fill="none" stroke="black" d="M-1.62046,99.1583C-20.1576,115.337 -46.4607,138.295 -54.9547,145.708"/>
</g>
<!-- 24 -->
<g id="node25" class="node"><title>24</title>
<ellipse fill="deepskyblue" stroke="black" cx="-14.0367" cy="165.852" rx="3.5" ry="3.5"/>
<text text-anchor="middle" x="-14.0367" y="167.752" font-family="monospace" font-size="8.00">24</text>
</g>
<!-- 0&#45;&gt;24 -->
<g id="edge3" class="edge"><title>0&#45;&gt;24</title>
<path fill="none" stroke="black" d="M8.61652,106.38C2.04399,123.635 -6.39449,145.788 -10.8888,157.587"/>
<polygon fill="black" stroke="black" points="-9.33752,158.431 -12.7527,162.481 -12.6083,157.186 -9.33752,158.431"/>
<text text-anchor="middle" x="-12.1361" y="129.383" font-family="monospace" font-size="8.00">P55L</text>
</g>
<!-- 58 -->
<g id="node59" class="node"><title>58</title>
<ellipse fill="black" stroke="black" cx="33.9746" cy="166.313" rx="3.5" ry="3.5"/>
<text text-anchor="middle" x="33.9746" y="168.213" font-family="monospace" font-size="8.00">58</text>
</g>
<!-- 0&#45;&gt;58 -->
<g id="edge4" class="edge"><title>0&#45;&gt;58</title>
<path fill="none" stroke="black" d="M22.6775,107.421C26.503,127.363 31.4869,153.345 33.2879,162.733"/>
</g>
<!-- 1 -->
<g id="node2" class="node"><title>1</title>
<ellipse fill="deepskyblue" stroke="black" cx="-142.449" cy="-281.517" rx="3.5" ry="3.5"/>
<text text-anchor="middle" x="-142.449" y="-279.617" font-family="monospace" font-size="8.00">1</text>
</g>
<!-- 3 -->
<g id="node4" class="node"><title>3</title>
<path fill="#1874cd" stroke="black" stroke-width="0.5" d="M-197.457,-199.458C-197.457,-199.458 -163.457,-199.458 -163.457,-199.458 -163.457,-200.744 -163.53,-202.029 -163.675,-203.307 -163.821,-204.585 -164.039,-205.853 -164.328,-207.107 -164.617,-208.36 -164.977,-209.595 -165.407,-210.808 -165.836,-212.02 -166.334,-213.207 -166.898,-214.363 -167.461,-215.519 -168.09,-216.642 -168.781,-217.726 -169.472,-218.811 -170.224,-219.856 -171.034,-220.855 -171.843,-221.855 -172.708,-222.807 -173.626,-223.709 -174.543,-224.61 -175.511,-225.459 -176.524,-226.251 -177.538,-227.042 -178.595,-227.776 -179.692,-228.448 -180.788,-229.12 -181.922,-229.729 -183.088,-230.273 -184.253,-230.816 -185.449,-231.293 -186.668,-231.701 -187.888,-232.109 -189.13,-232.448 -190.388,-232.715 -191.646,-232.983 -192.918,-233.178 -194.198,-233.302 -195.478,-233.425 -196.764,-233.476 -198.05,-233.453 -199.336,-233.431 -200.619,-233.335 -201.894,-233.167 -203.17,-233 -204.434,-232.759 -205.682,-232.448 -205.682,-232.448 -197.457,-199.458 -197.457,-199.458"/>
<path fill="deepskyblue" stroke="black" stroke-width="0.5" d="M-197.457,-199.458C-197.457,-199.458 -205.682,-232.448 -205.682,-232.448 -207.026,-232.113 -208.348,-231.696 -209.641,-231.2 -210.934,-230.704 -212.196,-230.129 -213.419,-229.478 -214.642,-228.828 -215.824,-228.104 -216.958,-227.309 -218.093,-226.515 -219.178,-225.652 -220.207,-224.725 -221.236,-223.798 -222.208,-222.81 -223.117,-221.764 -224.025,-220.719 -224.869,-219.619 -225.644,-218.471 -226.418,-217.323 -227.122,-216.128 -227.751,-214.894 -228.38,-213.66 -228.932,-212.388 -229.406,-211.087 -229.88,-209.785 -230.274,-208.456 -230.585,-207.107 -230.897,-205.757 -231.126,-204.39 -231.27,-203.012 -231.415,-201.635 -231.476,-200.25 -231.451,-198.865 -231.427,-197.48 -231.318,-196.098 -231.126,-194.726 -230.933,-193.355 -230.657,-191.996 -230.298,-190.658 -229.94,-189.321 -229.5,-188.006 -228.981,-186.722 -228.462,-185.437 -227.865,-184.186 -227.194,-182.975 -226.522,-181.763 -225.777,-180.594 -224.963,-179.474 -224.963,-179.474 -197.457,-199.458 -197.457,-199.458"/>
<path fill="#98f5ff" stroke="black" stroke-width="0.5" d="M-197.457,-199.458C-197.457,-199.458 -224.963,-179.474 -224.963,-179.474 -224.382,-178.673 -223.766,-177.899 -223.117,-177.152 -222.468,-176.406 -221.787,-175.688 -221.075,-175.001 -220.363,-174.314 -219.622,-173.658 -218.853,-173.035 -218.085,-172.413 -217.289,-171.824 -216.469,-171.271 -216.469,-171.271 -197.457,-199.458 -197.457,-199.458"/>
<path fill="#ff3030" stroke="black" stroke-width="0.5" d="M-197.457,-199.458C-197.457,-199.458 -216.469,-171.271 -216.469,-171.271 -215.198,-170.413 -213.87,-169.643 -212.494,-168.965 -211.119,-168.286 -209.699,-167.702 -208.245,-167.215 -206.791,-166.729 -205.305,-166.341 -203.798,-166.055 -202.292,-165.769 -200.767,-165.585 -199.236,-165.505 -197.705,-165.425 -196.169,-165.448 -194.641,-165.575 -193.113,-165.702 -191.595,-165.932 -190.098,-166.264 -188.6,-166.596 -187.127,-167.029 -185.689,-167.56 -184.25,-168.091 -182.849,-168.718 -181.495,-169.438 -180.14,-170.158 -178.837,-170.969 -177.592,-171.865 -176.347,-172.761 -175.165,-173.74 -174.053,-174.796 -172.94,-175.851 -171.9,-176.981 -170.941,-178.177 -169.981,-179.373 -169.103,-180.632 -168.313,-181.947 -167.523,-183.261 -166.823,-184.628 -166.218,-186.037 -165.612,-187.446 -165.103,-188.894 -164.693,-190.372 -164.283,-191.85 -163.974,-193.354 -163.767,-194.873 -163.56,-196.393 -163.457,-197.925 -163.457,-199.458 -163.457,-199.458 -197.457,-199.458 -197.457,-199.458"/>
<ellipse fill="none" stroke="black" cx="-197.457" cy="-199.458" rx="34" ry="34"/>
<text text-anchor="middle" x="-197.457" y="-197.558" font-family="monospace" font-size="8.00">3</text>
</g>
<!-- 1&#45;&gt;3 -->
<g id="edge5" class="edge"><title>1&#45;&gt;3</title>
<path fill="none" stroke="black" d="M-144.538,-278.4C-150.072,-270.145 -165.564,-247.035 -178.365,-227.939"/>
</g>
<!-- 2 -->
<g id="node3" class="node"><title>2</title>
<ellipse fill="#ff3030" stroke="black" cx="139.794" cy="-38.1577" rx="14" ry="14"/>
<text text-anchor="middle" x="139.794" y="-36.2577" font-family="monospace" font-size="8.00">2</text>
</g>
<!-- anon_37_2_0 -->
<g id="node68" class="node"><title>anon_37_2_0</title>
<ellipse fill="white" stroke="black" cx="215.287" cy="-50.1318" rx="2.5" ry="2.5"/>
</g>
<!-- 2&#45;&gt;anon_37_2_0 -->
<g id="edge52" class="edge"><title>2&#45;&gt;anon_37_2_0</title>
<path fill="none" stroke="black" d="M153.641,-40.3539C169.444,-42.8605 194.741,-46.8729 207.455,-48.8896"/>
<polygon fill="black" stroke="black" points="207.376,-50.6489 212.589,-49.7039 207.925,-47.1922 207.376,-50.6489"/>
<text text-anchor="middle" x="196.548" y="-47.2218" font-family="monospace" font-size="8.00">P1874S</text>
</g>
<!-- 10 -->
<g id="node11" class="node"><title>10</title>
<ellipse fill="#ff3030" stroke="black" cx="-236.25" cy="-109.288" rx="3.5" ry="3.5"/>
<text text-anchor="middle" x="-236.25" y="-107.388" font-family="monospace" font-size="8.00">10</text>
</g>
<!-- 3&#45;&gt;10 -->
<g id="edge7" class="edge"><title>3&#45;&gt;10</title>
<path fill="none" stroke="black" d="M-210.916,-168.174C-219.932,-147.217 -230.842,-121.858 -234.76,-112.751"/>
</g>
<!-- 16 -->
<g id="node17" class="node"><title>16</title>
<ellipse fill="#ff3030" stroke="black" cx="-239.299" cy="-150.129" rx="3.5" ry="3.5"/>
<text text-anchor="middle" x="-239.299" y="-148.229" font-family="monospace" font-size="8.00">16</text>
</g>
<!-- 3&#45;&gt;16 -->
<g id="edge38" class="edge"><title>3&#45;&gt;16</title>
<path fill="none" stroke="black" d="M-219.603,-173.349C-224.786,-167.239 -229.868,-161.248 -233.571,-156.882"/>
<polygon fill="black" stroke="black" points="-232.419,-155.535 -236.988,-152.853 -235.088,-157.799 -232.419,-155.535"/>
<text text-anchor="middle" x="-240.087" y="-158.716" font-family="monospace" font-size="8.00">M704V</text>
</g>
<!-- 21 -->
<g id="node22" class="node"><title>21</title>
<ellipse fill="deepskyblue" stroke="black" cx="-150.634" cy="-204.029" rx="3.5" ry="3.5"/>
<text text-anchor="middle" x="-150.634" y="-202.129" font-family="monospace" font-size="8.00">21</text>
</g>
<!-- 3&#45;&gt;21 -->
<g id="edge8" class="edge"><title>3&#45;&gt;21</title>
<path fill="none" stroke="black" d="M-163.429,-202.78C-159.798,-203.135 -156.599,-203.447 -154.308,-203.671"/>
</g>
<!-- 25 -->
<g id="node26" class="node"><title>25</title>
<ellipse fill="deepskyblue" stroke="black" cx="-172.207" cy="-251.22" rx="3.5" ry="3.5"/>
<text text-anchor="middle" x="-172.207" y="-249.32" font-family="monospace" font-size="8.00">25</text>
</g>
<!-- 3&#45;&gt;25 -->
<g id="edge9" class="edge"><title>3&#45;&gt;25</title>
<path fill="none" stroke="black" d="M-182.477,-230.166C-178.909,-237.481 -175.601,-244.262 -173.749,-248.06"/>
</g>
<!-- 29 -->
<g id="node30" class="node"><title>29</title>
<ellipse fill="deepskyblue" stroke="black" cx="-131.354" cy="-236.063" rx="3.5" ry="3.5"/>
<text text-anchor="middle" x="-131.354" y="-234.163" font-family="monospace" font-size="8.00">29</text>
</g>
<!-- 3&#45;&gt;29 -->
<g id="edge44" class="edge"><title>3&#45;&gt;29</title>
<path fill="none" stroke="black" d="M-167.5,-216.047C-157.047,-221.835 -146.177,-227.854 -139.123,-231.761"/>
<polygon fill="black" stroke="black" points="-139.764,-233.406 -134.542,-234.297 -138.068,-230.344 -139.764,-233.406"/>
<text text-anchor="middle" x="-137.311" y="-226.504" font-family="monospace" font-size="8.00">V1303A</text>
</g>
<!-- 30 -->
<g id="node31" class="node"><title>30</title>
<ellipse fill="deepskyblue" stroke="black" cx="-241.63" cy="-271.614" rx="3.5" ry="3.5"/>
<text text-anchor="middle" x="-241.63" y="-269.714" font-family="monospace" font-size="8.00">30</text>
</g>
<!-- 3&#45;&gt;30 -->
<g id="edge10" class="edge"><title>3&#45;&gt;30</title>
<path fill="none" stroke="black" d="M-215.424,-228.807C-224.978,-244.414 -235.599,-261.763 -239.788,-268.606"/>
</g>
<!-- 34 -->
<g id="node35" class="node"><title>34</title>
<ellipse fill="#ff3030" stroke="black" cx="-271.902" cy="-163.229" rx="3.5" ry="3.5"/>
<text text-anchor="middle" x="-271.902" y="-161.329" font-family="monospace" font-size="8.00">34</text>
</g>
<!-- 3&#45;&gt;34 -->
<g id="edge11" class="edge"><title>3&#45;&gt;34</title>
<path fill="none" stroke="black" d="M-228.166,-184.513C-243.867,-176.873 -261.163,-168.455 -268.408,-164.93"/>
</g>
<!-- 36 -->
<g id="node37" class="node"><title>36</title>
<ellipse fill="#ff3030" stroke="black" cx="-188.526" cy="-151.535" rx="3.5" ry="3.5"/>
<text text-anchor="middle" x="-188.526" y="-149.635" font-family="monospace" font-size="8.00">36</text>
</g>
<!-- 3&#45;&gt;36 -->
<g id="edge12" class="edge"><title>3&#45;&gt;36</title>
<path fill="none" stroke="black" d="M-191.205,-165.913C-190.408,-161.634 -189.701,-157.844 -189.214,-155.23"/>
</g>
<!-- 41 -->
<g id="node42" class="node"><title>41</title>
<ellipse fill="#1874cd" stroke="black" cx="-97.3694" cy="-139.093" rx="3.5" ry="3.5"/>
<text text-anchor="middle" x="-97.3694" y="-137.193" font-family="monospace" font-size="8.00">41</text>
</g>
<!-- 3&#45;&gt;41 -->
<g id="edge13" class="edge"><title>3&#45;&gt;41</title>
<path fill="none" stroke="black" d="M-168.238,-181.836C-143.543,-166.941 -110.612,-147.08 -100.472,-140.964"/>
</g>
<!-- 44 -->
<g id="node45" class="node"><title>44</title>
<ellipse fill="#1874cd" stroke="black" cx="-247.675" cy="-212.38" rx="3.5" ry="3.5"/>
<text text-anchor="middle" x="-247.675" y="-210.48" font-family="monospace" font-size="8.00">44</text>
</g>
<!-- 3&#45;&gt;44 -->
<g id="edge14" class="edge"><title>3&#45;&gt;44</title>
<path fill="none" stroke="black" d="M-230.392,-207.933C-236.013,-209.379 -241.051,-210.676 -244.218,-211.491"/>
</g>
<!-- 46 -->
<g id="node47" class="node"><title>46</title>
<ellipse fill="#1874cd" stroke="black" cx="-165.843" cy="-309.131" rx="3.5" ry="3.5"/>
<text text-anchor="middle" x="-165.843" y="-307.231" font-family="monospace" font-size="8.00">46</text>
</g>
<!-- 3&#45;&gt;46 -->
<g id="edge15" class="edge"><title>3&#45;&gt;46</title>
<path fill="none" stroke="black" d="M-187.972,-232.364C-180.26,-259.116 -170.146,-294.206 -166.896,-305.478"/>
</g>
<!-- 56 -->
<g id="node57" class="node"><title>56</title>
<ellipse fill="#98f5ff" stroke="black" cx="-196.033" cy="-289.621" rx="3.5" ry="3.5"/>
<text text-anchor="middle" x="-196.033" y="-287.721" font-family="monospace" font-size="8.00">56</text>
</g>
<!-- 3&#45;&gt;56 -->
<g id="edge16" class="edge"><title>3&#45;&gt;56</title>
<path fill="none" stroke="black" d="M-196.918,-233.545C-196.6,-253.692 -196.233,-276.959 -196.092,-285.878"/>
</g>
<!-- 59 -->
<g id="node60" class="node"><title>59</title>
<ellipse fill="black" stroke="black" cx="-120.166" cy="-266.174" rx="3.5" ry="3.5"/>
<text text-anchor="middle" x="-120.166" y="-264.274" font-family="monospace" font-size="8.00">59</text>
</g>
<!-- 3&#45;&gt;59 -->
<g id="edge17" class="edge"><title>3&#45;&gt;59</title>
<path fill="none" stroke="black" d="M-171.289,-222.045C-153.071,-237.771 -130.708,-257.074 -122.962,-263.76"/>
</g>
<!-- anon_40_3_0 -->
<g id="node69" class="node"><title>anon_40_3_0</title>
<ellipse fill="white" stroke="black" cx="-274.474" cy="-123.492" rx="2.5" ry="2.5"/>
</g>
<!-- 3&#45;&gt;anon_40_3_0 -->
<g id="edge56" class="edge"><title>3&#45;&gt;anon_40_3_0</title>
<path fill="none" stroke="black" d="M-221.825,-175.422C-238.335,-159.138 -258.871,-138.881 -268.703,-129.184"/>
<polygon fill="black" stroke="black" points="-267.625,-127.789 -272.414,-125.524 -270.083,-130.281 -267.625,-127.789"/>
<text text-anchor="middle" x="-258.764" y="-145.903" font-family="monospace" font-size="8.00">P940H</text>
</g>
<!-- 4 -->
<g id="node5" class="node"><title>4</title>
<path fill="deepskyblue" stroke="black" stroke-width="0.5" d="M157.47,-3.84937C157.47,-3.84937 189.47,-3.84937 189.47,-3.84937 189.47,-4.95052 189.413,-6.05093 189.299,-7.14621 189.186,-8.2415 189.016,-9.3302 188.79,-10.408 188.565,-11.4857 188.283,-12.5511 187.948,-13.5999 187.612,-14.6487 187.223,-15.6795 186.781,-16.6881 186.339,-17.6967 185.846,-18.6819 185.302,-19.6396 184.759,-20.5974 184.167,-21.5264 183.528,-22.4231 182.888,-23.3198 182.203,-24.1829 181.475,-25.0089 180.747,-25.835 179.977,-26.6229 179.168,-27.3696 178.358,-28.1162 177.511,-28.8206 176.629,-29.4799 175.747,-30.1391 174.832,-30.7525 173.886,-31.3174 172.941,-31.8823 171.967,-32.398 170.969,-32.8626 169.971,-33.3271 168.949,-33.7398 167.908,-34.099 166.867,-34.4582 165.808,-34.7634 164.736,-35.0134 163.664,-35.2635 162.579,-35.458 161.487,-35.5962 160.394,-35.7345 159.295,-35.8162 158.194,-35.8412 157.094,-35.8661 155.992,-35.8342 154.895,-35.7456 153.797,-35.657 152.705,-35.5118 151.622,-35.3106 150.54,-35.1094 149.468,-34.8524 148.412,-34.5407 147.356,-34.2291 146.317,-33.8631 145.298,-33.4443 144.28,-33.0254 143.284,-32.5543 142.314,-32.0328 141.344,-31.5113 140.402,-30.94 139.491,-30.3214 138.58,-29.7027 137.702,-29.0375 136.859,-28.3282 136.017,-27.619 135.212,-26.8668 134.447,-26.0746 133.682,-25.2824 132.959,-24.4512 132.28,-23.5844 131.601,-22.7176 130.967,-21.8163 130.381,-20.8841 129.794,-19.952 129.257,-18.9902 128.77,-18.0026 128.283,-17.015 127.847,-16.003 127.464,-14.9705 127.082,-13.9379 126.752,-12.8864 126.478,-11.8199 126.204,-10.7535 125.985,-9.67361 125.822,-8.58458 125.659,-7.49556 125.552,-6.39886 125.502,-5.29884 125.453,-4.19883 125.459,-3.09697 125.523,-1.99767 125.587,-0.898374 125.707,0.196904 125.884,1.28379 125.884,1.28379 157.47,-3.84937 157.47,-3.84937"/>
<path fill="#98f5ff" stroke="black" stroke-width="0.5" d="M157.47,-3.84937C157.47,-3.84937 125.884,1.28379 125.884,1.28379 126.117,2.71553 126.446,4.12979 126.871,5.51679 127.296,6.90379 127.814,8.26032 128.423,9.57699 129.031,10.8937 129.729,12.1674 130.51,13.3895 131.291,14.6115 132.155,15.779 133.095,16.8839 134.035,17.9888 135.048,19.0285 136.129,19.9958 137.21,20.9632 138.356,21.8559 139.558,22.6678 140.76,23.4797 142.015,24.209 143.316,24.8506 144.617,25.4921 145.96,26.0445 147.336,26.5038 148.712,26.9631 150.118,27.3284 151.543,27.597 152.968,27.8657 154.411,28.0371 155.859,28.1101 157.308,28.1831 158.76,28.1575 160.205,28.0335 161.65,27.9095 163.085,27.6874 164.5,27.3687 165.916,27.05 167.307,26.6354 168.666,26.1279 170.025,25.6204 171.348,25.021 172.625,24.334 173.903,23.6471 175.132,22.874 176.305,22.0202 177.477,21.1664 178.591,20.2339 179.637,19.2291 179.637,19.2291 157.47,-3.84937 157.47,-3.84937"/>
<path fill="#ff3030" stroke="black" stroke-width="0.5" d="M157.47,-3.84937C157.47,-3.84937 179.637,19.2291 179.637,19.2291 180.412,18.4849 181.148,17.7022 181.844,16.8839 182.54,16.0656 183.195,15.2128 183.805,14.3287 184.415,13.4446 184.981,12.5303 185.499,11.5893 186.017,10.6484 186.488,9.68187 186.909,8.69356 187.33,7.70525 187.701,6.69636 188.021,5.67072 188.34,4.64509 188.608,3.60401 188.823,2.55145 189.038,1.49888 189.2,0.436166 189.307,-0.632668 189.415,-1.7015 189.47,-2.7751 189.47,-3.84937 189.47,-3.84937 157.47,-3.84937 157.47,-3.84937"/>
<ellipse fill="none" stroke="black" cx="157.47" cy="-3.84937" rx="32" ry="32"/>
<text text-anchor="middle" x="157.47" y="-1.94937" font-family="monospace" font-size="8.00">4</text>
</g>
<!-- 55 -->
<g id="node56" class="node"><title>55</title>
<ellipse fill="#98f5ff" stroke="black" cx="257.384" cy="2.27636" rx="3.5" ry="3.5"/>
<text text-anchor="middle" x="257.384" y="4.17636" font-family="monospace" font-size="8.00">55</text>
</g>
<!-- 4&#45;&gt;55 -->
<g id="edge19" class="edge"><title>4&#45;&gt;55</title>
<path fill="none" stroke="black" d="M189.633,-1.87743C213.365,-0.422451 243.259,1.41034 253.635,2.04648"/>
</g>
<!-- 5 -->
<g id="node6" class="node"><title>5</title>
<ellipse fill="#ff3030" stroke="black" cx="-31.4355" cy="43.7571" rx="18" ry="18"/>
<text text-anchor="middle" x="-31.4355" y="45.6571" font-family="monospace" font-size="8.00">5</text>
</g>
<!-- 6 -->
<g id="node7" class="node"><title>6</title>
<path fill="deepskyblue" stroke="black" stroke-width="0.5" d="M48.4564,-24.54C48.4564,-24.54 82.9564,-24.54 82.9564,-24.54 82.9564,-25.7057 82.8973,-26.8706 82.7794,-28.0303 82.6614,-29.19 82.4848,-30.343 82.2502,-31.4848 82.0155,-32.6266 81.7232,-33.7558 81.3742,-34.868 81.0252,-35.9803 80.6201,-37.0741 80.1604,-38.1453 80.1604,-38.1453 48.4564,-24.54 48.4564,-24.54"/>
<path fill="#ff3030" stroke="black" stroke-width="0.5" d="M48.4564,-24.54C48.4564,-24.54 80.1604,-38.1453 80.1604,-38.1453 79.5474,-39.5738 78.8385,-40.9593 78.0387,-42.2922 77.2388,-43.6251 76.3497,-44.9024 75.3776,-46.1154 75.3776,-46.1154 48.4564,-24.54 48.4564,-24.54"/>
<path fill="brown" stroke="black" stroke-width="0.5" d="M48.4564,-24.54C48.4564,-24.54 75.3776,-46.1154 75.3776,-46.1154 74.7474,-46.9018 74.083,-47.6602 73.3863,-48.3884 72.6897,-49.1167 71.9615,-49.814 71.2038,-50.4785 70.4461,-51.143 69.6597,-51.7739 68.8468,-52.3695 68.0339,-52.9651 67.1952,-53.5249 66.3333,-54.0471 65.4714,-54.5693 64.587,-55.0534 63.6827,-55.4982 62.7784,-55.943 61.855,-56.3479 60.9152,-56.7118 59.9755,-57.0758 59.0202,-57.3984 58.0522,-57.6787 57.0842,-57.959 56.1044,-58.1967 55.1155,-58.3912 54.1267,-58.5858 53.1299,-58.7369 52.1278,-58.8441 51.1258,-58.9513 50.1195,-59.0146 49.1119,-59.0338 48.1043,-59.0529 47.0964,-59.0279 46.091,-58.9588 45.0856,-58.8897 44.0837,-58.7766 43.0882,-58.6198 42.0927,-58.463 41.1045,-58.2626 40.1266,-58.0193 39.1486,-57.776 38.1818,-57.4899 37.2289,-57.162 36.276,-56.834 35.3379,-56.4645 34.4173,-56.0544 33.4968,-55.6443 32.5946,-55.194 31.7135,-54.705 30.8323,-54.2159 29.973,-53.6884 29.1381,-53.1241 28.3031,-52.5598 27.4933,-51.9592 26.7109,-51.324 25.9285,-50.6888 25.1743,-50.0196 24.4505,-49.3184 23.7267,-48.6172 23.034,-47.8846 22.3744,-47.1227 21.7147,-46.3608 21.0887,-45.5704 20.4983,-44.7537 19.9078,-43.937 19.3534,-43.0949 18.8367,-42.2297 18.32,-41.3645 17.8414,-40.477 17.4024,-39.5699 16.9633,-38.6628 16.5643,-37.7369 16.2063,-36.7948 15.8483,-35.8528 15.5318,-34.8955 15.2576,-33.9257 14.9835,-32.956 14.7519,-31.9747 14.5637,-30.9846 14.3754,-29.9946 14.2306,-28.9968 14.1297,-27.9941 14.0288,-26.9914 13.9719,-25.9847 13.9592,-24.977 13.9464,-23.9693 13.9778,-22.9616 14.0532,-21.9566 14.1287,-20.9517 14.2482,-19.9505 14.4113,-18.956 14.5744,-17.9616 14.781,-16.9747 15.0305,-15.9983 15.28,-15.0219 15.5722,-14.0569 15.9062,-13.1061 16.2402,-12.1553 16.6157,-11.2196 17.0316,-10.3016 17.4475,-9.38367 17.9034,-8.48439 18.3981,-7.60637 18.8927,-6.72834 19.4256,-5.87241 19.9952,-5.04103 20.5648,-4.20966 21.1705,-3.40364 21.8106,-2.6253 22.4508,-1.84695 23.1247,-1.09703 23.8305,-0.377694 24.5363,0.341647 25.2733,1.02972 26.0394,1.68454 26.8054,2.33935 27.5998,2.96029 28.4202,3.54557 29.2406,4.13084 30.0862,4.67989 30.9547,5.19113 31.8232,5.70237 32.7136,6.17531 33.6235,6.60859 34.5334,7.04187 35.4618,7.43507 36.4061,7.78707 37.3504,8.13907 38.3096,8.44953 39.2811,8.71754 40.2526,8.98556 41.2354,9.21088 42.2266,9.39286 43.2178,9.57484 44.2165,9.7133 45.2198,9.80784 46.2231,9.90238 47.2301,9.95292 48.2379,9.9593 49.2456,9.96568 50.2532,9.92791 51.2576,9.84608 52.2621,9.76426 53.2624,9.63846 54.2559,9.46905 55.2493,9.29964 56.2348,9.08679 57.2096,8.8311 58.1844,8.57541 59.1475,8.27713 60.0962,7.93712 61.0449,7.59712 61.9782,7.2157 62.8935,6.79398 63.8088,6.37226 64.7052,5.91064 65.5801,5.41044 66.4549,4.91025 67.3075,4.37196 68.1352,3.79712 68.963,3.22229 69.7652,2.61146 70.5394,1.9664 71.3137,1.32133 72.0593,0.642655 72.7742,-0.0676873 73.489,-0.778029 74.1724,-1.51935 74.8224,-2.28952 75.4723,-3.0597 76.0882,-3.85798 76.6683,-4.68207 77.2484,-5.50616 77.792,-6.35527 78.2978,-7.22696 78.8035,-8.09865 79.2708,-8.99209 79.6983,-9.90469 80.1258,-10.8173 80.5131,-11.7482 80.8591,-12.6947 81.2052,-13.6412 81.5095,-14.6024 81.7714,-15.5756 82.0332,-16.5487 82.2523,-17.5329 82.428,-18.5252 82.6037,-19.5176 82.7359,-20.5171 82.824,-21.521 82.9122,-22.5249 82.9564,-23.5322 82.9564,-24.54 82.9564,-24.54 48.4564,-24.54 48.4564,-24.54"/>
<ellipse fill="none" stroke="black" cx="48.4564" cy="-24.54" rx="34.5" ry="34.5"/>
<text text-anchor="middle" x="48.4564" y="-22.64" font-family="monospace" font-size="8.00">6</text>
</g>
<!-- 6&#45;&gt;0 -->
<g id="edge1" class="edge"><title>6&#45;&gt;0</title>
<path fill="none" stroke="black" d="M38.9355,8.64108C34.9013,22.7004 30.2383,38.9516 26.3233,52.5955"/>
<polygon fill="black" stroke="black" points="27.9786,53.1719 24.9174,57.4953 24.6144,52.2066 27.9786,53.1719"/>
<text text-anchor="middle" x="48.6294" y="28.0183" font-family="monospace" font-size="8.00">I1868T</text>
</g>
<!-- 6&#45;&gt;2 -->
<g id="edge6" class="edge"><title>6&#45;&gt;2</title>
<path fill="none" stroke="black" d="M82.7271,-29.6495C95.6036,-31.5692 109.772,-33.6816 120.769,-35.3212"/>
<polygon fill="black" stroke="black" points="120.691,-37.0788 125.894,-36.0853 121.207,-33.617 120.691,-37.0788"/>
<text text-anchor="middle" x="109.748" y="-26.0854" font-family="monospace" font-size="8.00">A1934V</text>
</g>
<!-- 6&#45;&gt;4 -->
<g id="edge18" class="edge"><title>6&#45;&gt;4</title>
<path fill="none" stroke="black" d="M82.6497,-18.0501C94.779,-15.748 108.474,-13.1487 120.801,-10.809"/>
<polygon fill="black" stroke="black" points="121.406,-12.4755 125.992,-9.82376 120.754,-9.03689 121.406,-12.4755"/>
<text text-anchor="middle" x="109.726" y="-8.02955" font-family="monospace" font-size="8.00">P1874L</text>
</g>
<!-- 6&#45;&gt;5 -->
<g id="edge20" class="edge"><title>6&#45;&gt;5</title>
<path fill="none" stroke="black" d="M21.8535,-1.79806C10.1524,8.20489 -3.27448,19.6831 -13.7232,28.6154"/>
<polygon fill="black" stroke="black" points="-12.7781,30.1097 -17.7158,32.0285 -15.0524,27.4493 -12.7781,30.1097"/>
<text text-anchor="middle" x="-11.9348" y="10.8087" font-family="monospace" font-size="8.00">P1874S</text>
</g>
<!-- 7 -->
<g id="node8" class="node"><title>7</title>
<ellipse fill="#ff3030" stroke="black" cx="4.81151" cy="-32.0783" rx="9.5" ry="9.5"/>
<text text-anchor="middle" x="4.81151" y="-30.1783" font-family="monospace" font-size="8.00">7</text>
</g>
<!-- 6&#45;&gt;7 -->
<g id="edge21" class="edge"><title>6&#45;&gt;7</title>
<path fill="none" stroke="black" d="M14.0675,-30.4796C13.9829,-30.4942 13.8988,-30.5087 13.8151,-30.5232"/>
<polygon fill="black" stroke="black" points="18.1936,-27.9893 13.565,-30.5664 18.7905,-31.4383 18.1936,-27.9893"/>
<text text-anchor="middle" x="-2.05874" y="-24.1014" font-family="monospace" font-size="8.00">K1603T</text>
</g>
<!-- 8 -->
<g id="node9" class="node"><title>8</title>
<ellipse fill="#ff3030" stroke="black" cx="42.0837" cy="-129.301" rx="6" ry="6"/>
<text text-anchor="middle" x="42.0837" y="-127.401" font-family="monospace" font-size="8.00">8</text>
</g>
<!-- 6&#45;&gt;8 -->
<g id="edge22" class="edge"><title>6&#45;&gt;8</title>
<path fill="none" stroke="black" d="M46.3521,-59.133C45.1212,-79.3667 43.646,-103.619 42.7916,-117.664"/>
<polygon fill="black" stroke="black" points="41.0229,-117.919 42.466,-123.016 44.5164,-118.132 41.0229,-117.919"/>
<text text-anchor="middle" x="28.5718" y="-81.9983" font-family="monospace" font-size="8.00">L1667M</text>
</g>
<!-- 13 -->
<g id="node14" class="node"><title>13</title>
<ellipse fill="#ff3030" stroke="black" cx="17.0479" cy="35.2005" rx="8" ry="8"/>
<text text-anchor="middle" x="17.0479" y="37.1005" font-family="monospace" font-size="8.00">13</text>
</g>
<!-- 6&#45;&gt;13 -->
<g id="edge23" class="edge"><title>6&#45;&gt;13</title>
<path fill="none" stroke="black" d="M32.3841,6.03028C29.124,12.2311 25.8851,18.3916 23.2297,23.4423"/>
<polygon fill="black" stroke="black" points="24.6655,24.4721 20.7897,28.0833 21.5676,22.8433 24.6655,24.4721"/>
<text text-anchor="middle" x="11.8069" y="21.1363" font-family="monospace" font-size="8.00">I1940T</text>
</g>
<!-- 14 -->
<g id="node15" class="node"><title>14</title>
<path fill="#98f5ff" stroke="black" stroke-width="0.5" d="M115.499,38.5735C115.499,38.5735 121.499,38.5735 121.499,38.5735 121.499,38.3117 121.482,38.05 121.448,37.7904 121.413,37.5307 121.362,37.2736 121.294,37.0206 121.227,36.7677 121.142,36.5194 121.042,36.2774 120.942,36.0355 120.826,35.8004 120.695,35.5735 120.564,35.3467 120.418,35.1288 120.259,34.921 120.1,34.7132 119.927,34.5161 119.742,34.3309 119.556,34.1457 119.359,33.9729 119.151,33.8134 118.944,33.654 118.726,33.5083 118.499,33.3774 118.272,33.2464 118.037,33.1305 117.795,33.0303 117.553,32.93 117.305,32.8458 117.052,32.778 116.799,32.7102 116.542,32.6591 116.282,32.6249 116.022,32.5907 115.761,32.5735 115.499,32.5735 115.237,32.5735 114.975,32.5907 114.716,32.6249 114.456,32.6591 114.199,32.7102 113.946,32.778 113.693,32.8458 113.445,32.93 113.203,33.0303 112.961,33.1305 112.726,33.2464 112.499,33.3774 112.499,33.3774 115.499,38.5735 115.499,38.5735"/>
<path fill="#ff3030" stroke="black" stroke-width="0.5" d="M115.499,38.5735C115.499,38.5735 112.499,33.3774 112.499,33.3774 112.272,33.5083 112.054,33.654 111.846,33.8134 111.639,33.9729 111.441,34.1457 111.256,34.3309 111.071,34.5161 110.898,34.7132 110.739,34.921 110.579,35.1288 110.434,35.3467 110.303,35.5735 110.172,35.8004 110.056,36.0355 109.956,36.2774 109.855,36.5194 109.771,36.7677 109.703,37.0206 109.636,37.2736 109.584,37.5307 109.55,37.7904 109.516,38.05 109.499,38.3117 109.499,38.5735 109.499,38.8354 109.516,39.0971 109.55,39.3567 109.584,39.6164 109.636,39.8735 109.703,40.1265 109.771,40.3794 109.855,40.6277 109.956,40.8696 110.056,41.1116 110.172,41.3467 110.303,41.5735 110.434,41.8004 110.579,42.0183 110.739,42.2261 110.898,42.4339 111.071,42.631 111.256,42.8162 111.441,43.0014 111.639,43.1742 111.846,43.3337 112.054,43.4931 112.272,43.6388 112.499,43.7697 112.726,43.9006 112.961,44.0166 113.203,44.1168 113.445,44.217 113.693,44.3013 113.946,44.3691 114.199,44.4369 114.456,44.488 114.716,44.5222 114.975,44.5564 115.237,44.5735 115.499,44.5735 115.761,44.5735 116.022,44.5564 116.282,44.5222 116.542,44.488 116.799,44.4369 117.052,44.3691 117.305,44.3013 117.553,44.217 117.795,44.1168 118.037,44.0166 118.272,43.9006 118.499,43.7697 118.726,43.6388 118.944,43.4931 119.151,43.3337 119.359,43.1742 119.556,43.0014 119.742,42.8162 119.927,42.631 120.1,42.4339 120.259,42.2261 120.418,42.0183 120.564,41.8004 120.695,41.5735 120.826,41.3467 120.942,41.1116 121.042,40.8696 121.142,40.6277 121.227,40.3794 121.294,40.1265 121.362,39.8735 121.413,39.6164 121.448,39.3567 121.482,39.0971 121.499,38.8354 121.499,38.5735 121.499,38.5735 115.499,38.5735 115.499,38.5735"/>
<ellipse fill="none" stroke="black" cx="115.499" cy="38.5735" rx="6" ry="6"/>
<text text-anchor="middle" x="115.499" y="40.4735" font-family="monospace" font-size="8.00">14</text>
</g>
<!-- 6&#45;&gt;14 -->
<g id="edge24" class="edge"><title>6&#45;&gt;14</title>
<path fill="none" stroke="black" d="M73.8023,-0.679478C85.529,10.36 98.6774,22.7378 107.017,30.5888"/>
<polygon fill="black" stroke="black" points="108.256,29.3521 110.698,34.0536 105.857,31.9005 108.256,29.3521"/>
<text text-anchor="middle" x="103.91" y="12.3547" font-family="monospace" font-size="8.00">T791M</text>
</g>
<!-- 17 -->
<g id="node18" class="node"><title>17</title>
<ellipse fill="#ff3030" stroke="black" cx="87.4242" cy="-8.4604" rx="6" ry="6"/>
<text text-anchor="middle" x="87.4242" y="-6.5604" font-family="monospace" font-size="8.00">17</text>
</g>
<!-- 6&#45;&gt;17 -->
<g id="edge25" class="edge"><title>6&#45;&gt;17</title>
<path fill="none" stroke="black" d="M80.6365,-11.2613C80.7312,-11.2222 80.8251,-11.1834 80.9183,-11.145"/>
<polygon fill="black" stroke="black" points="77.7827,-14.3324 81.7371,-10.8071 76.4475,-11.097 77.7827,-14.3324"/>
<text text-anchor="middle" x="96.7774" y="-13.8031" font-family="monospace" font-size="8.00">N1345I</text>
</g>
<!-- 19 -->
<g id="node20" class="node"><title>19</title>
<path fill="deepskyblue" stroke="black" stroke-width="0.5" d="M71.4316,44.1029C71.4316,44.1029 82.9316,44.1029 82.9316,44.1029 82.9316,43.6512 82.905,43.1998 82.8519,42.7512 82.7988,42.3026 82.7193,41.8575 82.6139,41.4183 82.5084,40.979 82.3772,40.5464 82.2208,40.1225 82.0645,39.6987 81.8833,39.2845 81.6782,38.882 81.4731,38.4795 81.2445,38.0894 80.9935,37.7138 80.7425,37.3382 80.4697,36.9777 80.1763,36.6342 79.8829,36.2907 79.5695,35.9648 79.2378,35.6582 78.9061,35.3515 78.5566,35.0647 78.1911,34.7992 77.8257,34.5337 77.4449,34.2899 77.0507,34.0692 76.6566,33.8485 76.2498,33.6511 75.8325,33.4783 75.4151,33.3054 74.9879,33.1573 74.5532,33.0347 74.1184,32.912 73.6768,32.8151 73.2306,32.7445 72.7844,32.6738 72.3345,32.6295 71.8831,32.6118 71.4317,32.594 70.9797,32.6029 70.5293,32.6383 70.079,32.6738 69.6311,32.7357 69.1881,32.8239 68.745,32.912 68.3075,33.0261 67.8779,33.1657 67.4483,33.3053 67.0273,33.4701 66.617,33.6592 66.2068,33.8484 65.808,34.0615 65.4229,34.2975 65.0377,34.5336 64.6668,34.7921 64.312,35.0717 63.9573,35.3514 63.6193,35.6517 63.2999,35.9712 62.9805,36.2906 62.6801,36.6286 62.4005,36.9833 62.1208,37.3381 61.8623,37.709 61.6262,38.0942 61.3902,38.4793 61.1771,38.8781 60.988,39.2883 60.7988,39.6985 60.634,40.1196 60.4945,40.5492 60.3549,40.9788 60.2407,41.4163 60.1526,41.8594 60.0644,42.3024 60.0025,42.7503 59.9671,43.2006 59.9316,43.651 59.9227,44.103 59.9405,44.5544 59.9582,45.0058 60.0025,45.4557 60.0732,45.9019 60.1439,46.3481 60.2407,46.7897 60.3634,47.2245 60.486,47.6592 60.6341,48.0864 60.807,48.5037 60.9799,48.9211 61.1772,49.3279 61.3979,49.722 61.6186,50.1162 61.8624,50.497 62.1279,50.8624 62.1279,50.8624 71.4316,44.1029 71.4316,44.1029"/>
<path fill="#98f5ff" stroke="black" stroke-width="0.5" d="M71.4316,44.1029C71.4316,44.1029 62.1279,50.8624 62.1279,50.8624 62.482,51.3498 62.8739,51.8086 63.2999,52.2346 63.7259,52.6606 64.1847,53.0525 64.6721,53.4066 65.1595,53.7607 65.6739,54.076 66.2107,54.3495 66.7475,54.623 67.3049,54.8539 67.8779,55.04 68.4509,55.2262 69.0376,55.3671 69.6326,55.4613 70.2276,55.5555 70.8292,55.6029 71.4316,55.6029 72.0341,55.6029 72.6356,55.5555 73.2306,55.4613 73.8256,55.3671 74.4123,55.2262 74.9853,55.04 75.5583,54.8539 76.1157,54.623 76.6525,54.3495 77.1893,54.076 77.7037,53.7607 78.1911,53.4066 78.6785,53.0525 79.1373,52.6606 79.5633,52.2346 79.9893,51.8086 80.3812,51.3498 80.7353,50.8624 81.0894,50.375 81.4047,49.8606 81.6782,49.3238 81.9517,48.787 82.1826,48.2295 82.3688,47.6566 82.5549,47.0836 82.6958,46.4969 82.79,45.9019 82.8843,45.3069 82.9316,44.7053 82.9316,44.1029 82.9316,44.1029 71.4316,44.1029 71.4316,44.1029"/>
<ellipse fill="none" stroke="black" cx="71.4316" cy="44.1029" rx="11.5" ry="11.5"/>
<text text-anchor="middle" x="71.4316" y="46.0029" font-family="monospace" font-size="8.00">19</text>
</g>
<!-- 6&#45;&gt;19 -->
<g id="edge26" class="edge"><title>6&#45;&gt;19</title>
<path fill="none" stroke="black" d="M59.5402,8.57505C61.7893,15.2947 64.0591,22.076 66.0041,27.8871"/>
<polygon fill="black" stroke="black" points="67.7616,27.6245 67.6891,32.9214 64.4425,28.7355 67.7616,27.6245"/>
<text text-anchor="middle" x="46.7721" y="15.6311" font-family="monospace" font-size="8.00">E1597G</text>
</g>
<!-- 26 -->
<g id="node27" class="node"><title>26</title>
<ellipse fill="deepskyblue" stroke="black" cx="79.858" cy="-51.3998" rx="5" ry="5"/>
<text text-anchor="middle" x="79.858" y="-49.4998" font-family="monospace" font-size="8.00">26</text>
</g>
<!-- 6&#45;&gt;26 -->
<g id="edge27" class="edge"><title>6&#45;&gt;26</title>
<path fill="none" stroke="black" d="M74.9515,-47.2029C75.0435,-47.2816 75.1345,-47.3595 75.2246,-47.4365"/>
<polygon fill="black" stroke="black" points="71.0702,-46.1859 76.0075,-48.1062 73.3454,-43.5261 71.0702,-46.1859"/>
<text text-anchor="middle" x="91.088" y="-40.9197" font-family="monospace" font-size="8.00">I1584T</text>
</g>
<!-- 31 -->
<g id="node32" class="node"><title>31</title>
<path fill="deepskyblue" stroke="black" stroke-width="0.5" d="M129.462,-129.08C129.462,-129.08 141.962,-129.08 141.962,-129.08 141.962,-129.558 141.934,-130.035 141.88,-130.509 141.825,-130.983 141.743,-131.454 141.635,-131.919 141.527,-132.384 141.392,-132.842 141.231,-133.291 141.07,-133.741 140.884,-134.181 140.672,-134.609 140.461,-135.037 140.226,-135.453 139.967,-135.854 139.709,-136.255 139.427,-136.641 139.124,-137.01 138.821,-137.379 138.498,-137.731 138.155,-138.063 137.812,-138.395 137.45,-138.707 137.071,-138.997 136.692,-139.288 136.297,-139.557 135.888,-139.802 135.478,-140.047 135.055,-140.269 134.62,-140.466 134.186,-140.663 133.74,-140.835 133.285,-140.981 132.831,-141.127 132.368,-141.247 131.9,-141.34 131.432,-141.433 130.959,-141.499 130.483,-141.539 130.007,-141.578 129.53,-141.589 129.053,-141.574 128.575,-141.558 128.1,-141.515 127.627,-141.445 127.155,-141.375 126.687,-141.278 126.226,-141.154 125.765,-141.031 125.312,-140.881 124.868,-140.706 124.424,-140.53 123.99,-140.329 123.569,-140.104 123.148,-139.879 122.74,-139.63 122.348,-139.359 121.955,-139.087 121.579,-138.793 121.22,-138.478 120.861,-138.164 120.52,-137.829 120.2,-137.475 119.879,-137.121 119.579,-136.749 119.301,-136.361 119.023,-135.973 118.767,-135.57 118.535,-135.152 118.304,-134.735 118.096,-134.305 117.913,-133.864 117.73,-133.423 117.573,-132.972 117.442,-132.513 117.311,-132.054 117.206,-131.588 117.129,-131.117 117.051,-130.646 117,-130.17 116.977,-129.694 116.953,-129.217 116.957,-128.739 116.988,-128.263 117.02,-127.786 117.078,-127.312 117.164,-126.843 117.249,-126.373 117.361,-125.909 117.5,-125.452 117.638,-124.995 117.803,-124.546 117.993,-124.108 118.183,-123.67 118.398,-123.244 118.636,-122.83 118.636,-122.83 129.462,-129.08 129.462,-129.08"/>
<path fill="#98f5ff" stroke="black" stroke-width="0.5" d="M129.462,-129.08C129.462,-129.08 118.636,-122.83 118.636,-122.83 118.977,-122.24 119.366,-121.678 119.799,-121.15 120.232,-120.623 120.707,-120.132 121.22,-119.682 121.733,-119.233 122.281,-118.826 122.861,-118.465 123.44,-118.105 124.048,-117.793 124.678,-117.532 125.308,-117.271 125.959,-117.062 126.623,-116.907 127.287,-116.752 127.963,-116.652 128.644,-116.607 129.325,-116.562 130.008,-116.574 130.687,-116.641 131.366,-116.707 132.038,-116.83 132.697,-117.006 133.356,-117.183 133.999,-117.413 134.62,-117.695 135.242,-117.976 135.839,-118.308 136.406,-118.687 136.973,-119.066 137.509,-119.491 138.006,-119.957 138.504,-120.423 138.963,-120.93 139.379,-121.471 139.794,-122.012 140.164,-122.586 140.486,-123.188 140.807,-123.789 141.079,-124.416 141.298,-125.062 141.517,-125.708 141.684,-126.371 141.795,-127.044 141.906,-127.717 141.962,-128.398 141.962,-129.08 141.962,-129.08 129.462,-129.08 129.462,-129.08"/>
<ellipse fill="none" stroke="black" cx="129.462" cy="-129.08" rx="12.5" ry="12.5"/>
<text text-anchor="middle" x="129.462" y="-127.18" font-family="monospace" font-size="8.00">31</text>
</g>
<!-- 6&#45;&gt;31 -->
<g id="edge28" class="edge"><title>6&#45;&gt;31</title>
<path fill="none" stroke="black" d="M69.7395,-52.0067C85.336,-72.1346 105.882,-98.6503 118.359,-114.752"/>
<polygon fill="black" stroke="black" points="117.207,-116.123 121.653,-119.003 119.974,-113.979 117.207,-116.123"/>
<text text-anchor="middle" x="78.0492" y="-76.9793" font-family="monospace" font-size="8.00">V1853I</text>
</g>
<!-- 48 -->
<g id="node49" class="node"><title>48</title>
<ellipse fill="brown" stroke="black" cx="84.1301" cy="-140.147" rx="6" ry="6"/>
<text text-anchor="middle" x="84.1301" y="-138.247" font-family="monospace" font-size="8.00">48</text>
</g>
<!-- 6&#45;&gt;48 -->
<g id="edge29" class="edge"><title>6&#45;&gt;48</title>
<path fill="none" stroke="black" d="M58.679,-57.6684C66.997,-84.6241 78.0345,-120.393 82.3209,-134.284"/>
</g>
<!-- 50 -->
<g id="node51" class="node"><title>50</title>
<ellipse fill="brown" stroke="black" cx="-59.7204" cy="-105.509" rx="8" ry="8"/>
<text text-anchor="middle" x="-59.7204" y="-103.609" font-family="monospace" font-size="8.00">50</text>
</g>
<!-- 6&#45;&gt;50 -->
<g id="edge30" class="edge"><title>6&#45;&gt;50</title>
<path fill="none" stroke="black" d="M20.5982,-45.3916C-4.19205,-63.9468 -38.6819,-89.7621 -53.0376,-100.507"/>
</g>
<!-- anon_27_6_1 -->
<g id="node64" class="node"><title>anon_27_6_1</title>
<ellipse fill="white" stroke="black" cx="125.536" cy="-74.4684" rx="2.5" ry="2.5"/>
</g>
<!-- 6&#45;&gt;anon_27_6_1 -->
<g id="edge42" class="edge"><title>6&#45;&gt;anon_27_6_1</title>
<path fill="none" stroke="black" d="M77.5971,-43.4158C92.7075,-53.2035 109.871,-64.3211 119.004,-70.2368"/>
<polygon fill="black" stroke="black" points="118.229,-71.8199 123.377,-73.0694 120.132,-68.8823 118.229,-71.8199"/>
<text text-anchor="middle" x="109.3" y="-59.4263" font-family="monospace" font-size="8.00">G54C</text>
</g>
<!-- 57 -->
<g id="node58" class="node"><title>57</title>
<ellipse fill="black" stroke="black" cx="54.5949" cy="-190.689" rx="6" ry="6"/>
<text text-anchor="middle" x="54.5949" y="-188.789" font-family="monospace" font-size="8.00">57</text>
</g>
<!-- 8&#45;&gt;57 -->
<g id="edge31" class="edge"><title>8&#45;&gt;57</title>
<path fill="none" stroke="black" d="M43.329,-135.411C45.7272,-147.178 50.9604,-172.856 53.3545,-184.603"/>
</g>
<!-- 9 -->
<g id="node10" class="node"><title>9</title>
<ellipse fill="deepskyblue" stroke="black" cx="223.489" cy="99.0047" rx="3.5" ry="3.5"/>
<text text-anchor="middle" x="223.489" y="100.905" font-family="monospace" font-size="8.00">9</text>
</g>
<!-- 11 -->
<g id="node12" class="node"><title>11</title>
<ellipse fill="deepskyblue" stroke="black" cx="86.4942" cy="-187.334" rx="3.5" ry="3.5"/>
<text text-anchor="middle" x="86.4942" y="-185.434" font-family="monospace" font-size="8.00">11</text>
</g>
<!-- 12 -->
<g id="node13" class="node"><title>12</title>
<ellipse fill="deepskyblue" stroke="black" cx="144.745" cy="160.295" rx="3.5" ry="3.5"/>
<text text-anchor="middle" x="144.745" y="162.195" font-family="monospace" font-size="8.00">12</text>
</g>
<!-- 15 -->
<g id="node16" class="node"><title>15</title>
<path fill="deepskyblue" stroke="black" stroke-width="0.5" d="M164.021,103.833C164.021,103.833 182.021,103.833 182.021,103.833 182.021,102.984 181.961,102.137 181.842,101.296 181.722,100.456 181.543,99.6257 181.306,98.8108 181.07,97.9959 180.776,97.1988 180.426,96.4254 180.077,95.652 179.674,94.9042 179.219,94.1877 178.764,93.4712 178.26,92.7878 177.708,92.1425 177.157,91.4973 176.561,90.8918 175.925,90.3306 175.288,89.7694 174.613,89.254 173.904,88.7881 173.194,88.3222 172.453,87.907 171.685,87.5457 170.917,87.1844 170.125,86.8779 169.314,86.6283 168.503,86.3788 167.675,86.187 166.837,86.0542 165.999,85.9215 165.152,85.8482 164.304,85.8348 163.455,85.8215 162.607,85.8682 161.765,85.9745 160.923,86.0809 160.09,86.2467 159.271,86.4706 158.453,86.6945 157.651,86.976 156.873,87.313 156.094,87.65 155.34,88.0417 154.616,88.4851 153.893,88.9285 153.201,89.4225 152.548,89.9634 151.894,90.5043 151.279,91.0907 150.708,91.7184 150.137,92.346 149.611,93.0133 149.134,93.7151 148.657,94.417 148.23,95.1517 147.857,95.9137 147.483,96.6758 147.164,97.4633 146.902,98.2703 146.64,99.0774 146.435,99.9019 146.289,100.738 146.143,101.574 146.057,102.419 146.03,103.267 146.003,104.115 146.037,104.964 146.13,105.808 146.223,106.651 146.376,107.487 146.587,108.309 146.798,109.131 147.067,109.937 147.391,110.721 147.716,111.505 148.096,112.265 148.528,112.995 148.96,113.726 149.443,114.425 149.973,115.087 150.504,115.749 151.081,116.373 151.699,116.954 152.318,117.535 152.977,118.071 153.671,118.559 154.365,119.047 155.093,119.485 155.849,119.871 156.605,120.256 157.388,120.587 158.191,120.862 158.994,121.137 159.815,121.355 160.648,121.514 160.648,121.514 164.021,103.833 164.021,103.833"/>
<path fill="#98f5ff" stroke="black" stroke-width="0.5" d="M164.021,103.833C164.021,103.833 160.648,121.514 160.648,121.514 161.297,121.637 161.951,121.725 162.609,121.777 163.267,121.829 163.927,121.844 164.587,121.824 165.246,121.803 165.904,121.746 166.557,121.653 167.211,121.56 167.858,121.431 168.498,121.267 169.137,121.103 169.766,120.904 170.384,120.671 171.001,120.437 171.605,120.17 172.193,119.871 172.781,119.571 173.352,119.239 173.904,118.877 174.455,118.515 174.986,118.122 175.495,117.702 176.003,117.281 176.488,116.833 176.947,116.359 177.407,115.885 177.84,115.386 178.244,114.865 178.648,114.344 179.024,113.8 179.369,113.238 179.714,112.675 180.027,112.094 180.308,111.497 180.589,110.9 180.837,110.287 181.051,109.663 181.264,109.039 181.444,108.403 181.588,107.759 181.732,107.115 181.84,106.464 181.912,105.808 181.985,105.152 182.021,104.493 182.021,103.833 182.021,103.833 164.021,103.833 164.021,103.833"/>
<ellipse fill="none" stroke="black" cx="164.021" cy="103.833" rx="18" ry="18"/>
<text text-anchor="middle" x="164.021" y="105.733" font-family="monospace" font-size="8.00">15</text>
</g>
<!-- 14&#45;&gt;15 -->
<g id="edge34" class="edge"><title>14&#45;&gt;15</title>
<path fill="none" stroke="black" d="M119.306,43.6943C125.826,52.4625 139.439,70.7711 149.942,84.8969"/>
<polygon fill="black" stroke="black" points="151.511,84.0746 153.09,89.1313 148.702,86.163 151.511,84.0746"/>
<text text-anchor="middle" x="118.624" y="61.6956" font-family="monospace" font-size="8.00">A1746S</text>
</g>
<!-- 15&#45;&gt;9 -->
<g id="edge32" class="edge"><title>15&#45;&gt;9</title>
<path fill="none" stroke="black" d="M182.187,102.358C195.576,101.271 212.674,99.8828 219.953,99.2918"/>
</g>
<!-- 15&#45;&gt;12 -->
<g id="edge33" class="edge"><title>15&#45;&gt;12</title>
<path fill="none" stroke="black" d="M158.133,121.08C153.793,133.793 148.25,150.026 145.891,156.937"/>
</g>
<!-- anon_15_23_0 -->
<g id="node61" class="node"><title>anon_15_23_0</title>
<ellipse fill="white" stroke="black" cx="199.73" cy="157.276" rx="2.5" ry="2.5"/>
</g>
<!-- 15&#45;&gt;anon_15_23_0 -->
<g id="edge35" class="edge"><title>15&#45;&gt;anon_15_23_0</title>
<path fill="none" stroke="black" d="M174.158,119.004C182.736,131.842 194.256,149.084 198.274,155.098"/>
</g>
<!-- 18 -->
<g id="node19" class="node"><title>18</title>
<ellipse fill="deepskyblue" stroke="black" cx="-215.467" cy="-270.481" rx="3.5" ry="3.5"/>
<text text-anchor="middle" x="-215.467" y="-268.581" font-family="monospace" font-size="8.00">18</text>
</g>
<!-- 18&#45;&gt;3 -->
<g id="edge39" class="edge"><title>18&#45;&gt;3</title>
<path fill="none" stroke="black" d="M-214.598,-267.055C-212.982,-260.682 -209.359,-246.394 -205.858,-232.588"/>
</g>
<!-- 20 -->
<g id="node21" class="node"><title>20</title>
<ellipse fill="deepskyblue" stroke="black" cx="236.812" cy="-248.673" rx="3.5" ry="3.5"/>
<text text-anchor="middle" x="236.812" y="-246.773" font-family="monospace" font-size="8.00">20</text>
</g>
<!-- 23 -->
<g id="node24" class="node"><title>23</title>
<ellipse fill="deepskyblue" stroke="black" cx="239.401" cy="234.516" rx="3.5" ry="3.5"/>
<text text-anchor="middle" x="239.401" y="236.416" font-family="monospace" font-size="8.00">23</text>
</g>
<!-- 27 -->
<g id="node28" class="node"><title>27</title>
<ellipse fill="#ff3030" stroke="black" cx="221.208" cy="-119.26" rx="5" ry="5"/>
<text text-anchor="middle" x="221.208" y="-117.36" font-family="monospace" font-size="8.00">27</text>
</g>
<!-- anon_27_6_0 -->
<g id="node63" class="node"><title>anon_27_6_0</title>
<ellipse fill="white" stroke="black" cx="173.592" cy="-94.9896" rx="2.5" ry="2.5"/>
</g>
<!-- 27&#45;&gt;anon_27_6_0 -->
<g id="edge40" class="edge"><title>27&#45;&gt;anon_27_6_0</title>
<path fill="none" stroke="black" d="M216.468,-116.844C206.495,-111.761 183.636,-100.109 176.073,-96.254"/>
</g>
<!-- 28 -->
<g id="node29" class="node"><title>28</title>
<ellipse fill="#ff3030" stroke="black" cx="-2.78008" cy="80.624" rx="3.5" ry="3.5"/>
<text text-anchor="middle" x="-2.78008" y="82.524" font-family="monospace" font-size="8.00">28</text>
</g>
<!-- 28&#45;&gt;13 -->
<g id="edge43" class="edge"><title>28&#45;&gt;13</title>
<path fill="none" stroke="black" d="M-1.3541,77.3573C1.80704,70.1155 9.46883,52.5632 13.8443,42.5396"/>
</g>
<!-- anon_31_20_0 -->
<g id="node65" class="node"><title>anon_31_20_0</title>
<ellipse fill="white" stroke="black" cx="173.343" cy="-183.354" rx="2.5" ry="2.5"/>
</g>
<!-- 31&#45;&gt;anon_31_20_0 -->
<g id="edge45" class="edge"><title>31&#45;&gt;anon_31_20_0</title>
<path fill="none" stroke="black" d="M137.51,-139.035C148.001,-152.01 165.69,-173.889 171.461,-181.026"/>
</g>
<!-- 32 -->
<g id="node33" class="node"><title>32</title>
<ellipse fill="#ff3030" stroke="black" cx="120.073" cy="-170.721" rx="3.5" ry="3.5"/>
<text text-anchor="middle" x="120.073" y="-168.821" font-family="monospace" font-size="8.00">32</text>
</g>
<!-- 33 -->
<g id="node34" class="node"><title>33</title>
<ellipse fill="deepskyblue" stroke="black" cx="84.4412" cy="95.0399" rx="3.5" ry="3.5"/>
<text text-anchor="middle" x="84.4412" y="96.9399" font-family="monospace" font-size="8.00">33</text>
</g>
<!-- 33&#45;&gt;19 -->
<g id="edge48" class="edge"><title>33&#45;&gt;19</title>
<path fill="none" stroke="black" d="M83.5056,91.3766C81.6179,83.9858 77.2843,67.0181 74.3563,55.554"/>
</g>
<!-- 35 -->
<g id="node36" class="node"><title>35</title>
<ellipse fill="#ff3030" stroke="black" cx="-302.161" cy="-277.068" rx="3.5" ry="3.5"/>
<text text-anchor="middle" x="-302.161" y="-275.168" font-family="monospace" font-size="8.00">35</text>
</g>
<!-- anon_35_3_0 -->
<g id="node67" class="node"><title>anon_35_3_0</title>
<ellipse fill="white" stroke="black" cx="-261.132" cy="-243.648" rx="2.5" ry="2.5"/>
</g>
<!-- 35&#45;&gt;anon_35_3_0 -->
<g id="edge49" class="edge"><title>35&#45;&gt;anon_35_3_0</title>
<path fill="none" stroke="black" d="M-299.21,-274.665C-291.42,-268.319 -270.419,-251.213 -263.43,-245.52"/>
</g>
<!-- 37 -->
<g id="node38" class="node"><title>37</title>
<ellipse fill="#ff3030" stroke="black" cx="264.216" cy="-62.5718" rx="3.5" ry="3.5"/>
<text text-anchor="middle" x="264.216" y="-60.6718" font-family="monospace" font-size="8.00">37</text>
</g>
<!-- 37&#45;&gt;anon_37_2_0 -->
<g id="edge51" class="edge"><title>37&#45;&gt;anon_37_2_0</title>
<path fill="none" stroke="black" d="M260.697,-61.6771C251.407,-59.315 226.361,-52.9475 218.027,-50.8284"/>
</g>
<!-- 38 -->
<g id="node39" class="node"><title>38</title>
<ellipse fill="#ff3030" stroke="black" cx="-84.9018" cy="74.8108" rx="3.5" ry="3.5"/>
<text text-anchor="middle" x="-84.9018" y="76.7108" font-family="monospace" font-size="8.00">38</text>
</g>
<!-- 38&#45;&gt;5 -->
<g id="edge53" class="edge"><title>38&#45;&gt;5</title>
<path fill="none" stroke="black" d="M-81.7174,72.9613C-75.063,69.0963 -59.2971,59.9394 -47.179,52.901"/>
</g>
<!-- 39 -->
<g id="node40" class="node"><title>39</title>
<ellipse fill="#ff3030" stroke="black" cx="-57.5758" cy="99.4173" rx="3.5" ry="3.5"/>
<text text-anchor="middle" x="-57.5758" y="101.317" font-family="monospace" font-size="8.00">39</text>
</g>
<!-- 39&#45;&gt;5 -->
<g id="edge54" class="edge"><title>39&#45;&gt;5</title>
<path fill="none" stroke="black" d="M-56.0189,96.1022C-52.7655,89.1748 -45.0574,72.7619 -39.1327,60.1466"/>
</g>
<!-- 40 -->
<g id="node41" class="node"><title>40</title>
<ellipse fill="deepskyblue" stroke="black" cx="-316.53" cy="-99.4424" rx="3.5" ry="3.5"/>
<text text-anchor="middle" x="-316.53" y="-97.5424" font-family="monospace" font-size="8.00">40</text>
</g>
<!-- 40&#45;&gt;anon_40_3_0 -->
<g id="edge55" class="edge"><title>40&#45;&gt;anon_40_3_0</title>
<path fill="none" stroke="black" d="M-313.23,-101.329C-305.019,-106.024 -283.829,-118.142 -276.787,-122.169"/>
</g>
<!-- 42 -->
<g id="node43" class="node"><title>42</title>
<ellipse fill="#1874cd" stroke="black" cx="-163.332" cy="-357.998" rx="3.5" ry="3.5"/>
<text text-anchor="middle" x="-163.332" y="-356.098" font-family="monospace" font-size="8.00">42</text>
</g>
<!-- 42&#45;&gt;46 -->
<g id="edge58" class="edge"><title>42&#45;&gt;46</title>
<path fill="none" stroke="black" d="M-163.513,-354.484C-163.972,-345.555 -165.179,-322.057 -165.651,-312.879"/>
</g>
<!-- 43 -->
<g id="node44" class="node"><title>43</title>
<ellipse fill="#1874cd" stroke="black" cx="-210.66" cy="-126.314" rx="3.5" ry="3.5"/>
<text text-anchor="middle" x="-210.66" y="-124.414" font-family="monospace" font-size="8.00">43</text>
</g>
<!-- 43&#45;&gt;3 -->
<g id="edge59" class="edge"><title>43&#45;&gt;3</title>
<path fill="none" stroke="black" d="M-210.023,-129.842C-208.828,-136.462 -206.136,-151.377 -203.548,-165.709"/>
</g>
<!-- 45 -->
<g id="node46" class="node"><title>45</title>
<ellipse fill="#1874cd" stroke="black" cx="-330.547" cy="-192.889" rx="3.5" ry="3.5"/>
<text text-anchor="middle" x="-330.547" y="-190.989" font-family="monospace" font-size="8.00">45</text>
</g>
<!-- anon_45_3_0 -->
<g id="node70" class="node"><title>anon_45_3_0</title>
<ellipse fill="white" stroke="black" cx="-275.97" cy="-196.184" rx="2.5" ry="2.5"/>
</g>
<!-- 45&#45;&gt;anon_45_3_0 -->
<g id="edge60" class="edge"><title>45&#45;&gt;anon_45_3_0</title>
<path fill="none" stroke="black" d="M-326.966,-193.105C-316.721,-193.723 -287.46,-195.49 -278.565,-196.027"/>
</g>
<!-- 47 -->
<g id="node48" class="node"><title>47</title>
<ellipse fill="brown" stroke="black" cx="67.4774" cy="-92.6389" rx="3.5" ry="3.5"/>
<text text-anchor="middle" x="67.4774" y="-90.7389" font-family="monospace" font-size="8.00">47</text>
</g>
<!-- 47&#45;&gt;6 -->
<g id="edge62" class="edge"><title>47&#45;&gt;6</title>
<path fill="none" stroke="black" d="M66.4547,-88.9776C64.7725,-82.955 61.2599,-70.3791 57.7805,-57.9224"/>
</g>
<!-- 48&#45;&gt;11 -->
<g id="edge63" class="edge"><title>48&#45;&gt;11</title>
<path fill="none" stroke="black" d="M84.4392,-146.316C84.8538,-154.591 85.5921,-169.328 86.0617,-178.702"/>
<polygon fill="black" stroke="black" points="84.316,-178.833 86.3141,-183.739 87.8116,-178.658 84.316,-178.833"/>
<text text-anchor="middle" x="69.2505" y="-165.109" font-family="monospace" font-size="8.00">P1874L</text>
</g>
<!-- 48&#45;&gt;32 -->
<g id="edge64" class="edge"><title>48&#45;&gt;32</title>
<path fill="none" stroke="black" d="M88.829,-144.144C95.1323,-149.506 106.357,-159.054 113.497,-165.128"/>
<polygon fill="black" stroke="black" points="112.392,-166.485 117.335,-168.392 114.66,-163.819 112.392,-166.485"/>
<text text-anchor="middle" x="117.163" y="-157.236" font-family="monospace" font-size="8.00">P1874S</text>
</g>
<!-- 49 -->
<g id="node50" class="node"><title>49</title>
<ellipse fill="brown" stroke="black" cx="-62.3964" cy="20.2756" rx="3.5" ry="3.5"/>
<text text-anchor="middle" x="-62.3964" y="22.1756" font-family="monospace" font-size="8.00">49</text>
</g>
<!-- anon_49_6_0 -->
<g id="node71" class="node"><title>anon_49_6_0</title>
<ellipse fill="white" stroke="black" cx="-21.4528" cy="-8.00843" rx="2.5" ry="2.5"/>
</g>
<!-- 49&#45;&gt;anon_49_6_0 -->
<g id="edge65" class="edge"><title>49&#45;&gt;anon_49_6_0</title>
<path fill="none" stroke="black" d="M-59.4518,18.2415C-51.6774,12.8709 -30.72,-1.60662 -23.7455,-6.4246"/>
</g>
<!-- 50&#45;&gt;41 -->
<g id="edge57" class="edge"><title>50&#45;&gt;41</title>
<path fill="none" stroke="black" d="M-65.9373,-111.055C-72.8557,-117.226 -83.9787,-127.148 -90.9699,-133.384"/>
<polygon fill="black" stroke="black" points="-92.1481,-132.09 -94.7145,-136.725 -89.8183,-134.702 -92.1481,-132.09"/>
<text text-anchor="middle" x="-94.4536" y="-124.82" font-family="monospace" font-size="8.00">N1570Y</text>
</g>
<!-- 51 -->
<g id="node52" class="node"><title>51</title>
<ellipse fill="brown" stroke="black" cx="27.331" cy="-92.7675" rx="3.5" ry="3.5"/>
<text text-anchor="middle" x="27.331" y="-90.8675" font-family="monospace" font-size="8.00">51</text>
</g>
<!-- 51&#45;&gt;6 -->
<g id="edge67" class="edge"><title>51&#45;&gt;6</title>
<path fill="none" stroke="black" d="M28.4668,-89.0993C30.3522,-83.01 34.3081,-70.234 38.207,-57.642"/>
</g>
<!-- 52 -->
<g id="node53" class="node"><title>52</title>
<ellipse fill="brown" stroke="black" cx="-82.1092" cy="-63.1158" rx="3.5" ry="3.5"/>
<text text-anchor="middle" x="-82.1092" y="-61.2158" font-family="monospace" font-size="8.00">52</text>
</g>
<!-- 52&#45;&gt;50 -->
<g id="edge68" class="edge"><title>52&#45;&gt;50</title>
<path fill="none" stroke="black" d="M-80.3523,-66.4424C-76.765,-73.235 -68.5227,-88.8418 -63.6106,-98.1429"/>
</g>
<!-- 53 -->
<g id="node54" class="node"><title>53</title>
<ellipse fill="brown" stroke="black" cx="-97.2143" cy="-75.8935" rx="3.5" ry="3.5"/>
<text text-anchor="middle" x="-97.2143" y="-73.9935" font-family="monospace" font-size="8.00">53</text>
</g>
<!-- 53&#45;&gt;50 -->
<g id="edge69" class="edge"><title>53&#45;&gt;50</title>
<path fill="none" stroke="black" d="M-94.2722,-78.2174C-88.2646,-82.9627 -74.4615,-93.8655 -66.2353,-100.363"/>
</g>
<!-- 54 -->
<g id="node55" class="node"><title>54</title>
<ellipse fill="brown" stroke="black" cx="1.19443" cy="-76.5009" rx="3.5" ry="3.5"/>
<text text-anchor="middle" x="1.19443" y="-74.6009" font-family="monospace" font-size="8.00">54</text>
</g>
<!-- 54&#45;&gt;6 -->
<g id="edge70" class="edge"><title>54&#45;&gt;6</title>
<path fill="none" stroke="black" d="M3.73544,-73.7072C7.8769,-69.154 16.4834,-59.6919 25.0504,-50.2731"/>
</g>
<!-- anon_15_23_1 -->
<g id="node62" class="node"><title>anon_15_23_1</title>
<ellipse fill="white" stroke="black" cx="220.173" cy="196.78" rx="2.5" ry="2.5"/>
</g>
<!-- anon_15_23_0&#45;&gt;anon_15_23_1 -->
<g id="edge36" class="edge"><title>anon_15_23_0&#45;&gt;anon_15_23_1</title>
<path fill="none" stroke="black" d="M201.071,159.868C204.19,165.895 212.015,181.016 216.624,189.923"/>
<polygon fill="black" stroke="black" points="218.264,189.284 219.008,194.529 215.155,190.892 218.264,189.284"/>
<text text-anchor="middle" x="195.347" y="172.295" font-family="monospace" font-size="8.00">Q545L</text>
</g>
<!-- anon_15_23_1&#45;&gt;23 -->
<g id="edge37" class="edge"><title>anon_15_23_1&#45;&gt;23</title>
<path fill="none" stroke="black" d="M221.434,199.256C224.776,205.815 233.863,223.647 237.678,231.134"/>
</g>
<!-- anon_27_6_0&#45;&gt;anon_27_6_1 -->
<g id="edge41" class="edge"><title>anon_27_6_0&#45;&gt;anon_27_6_1</title>
<path fill="none" stroke="black" d="M171.274,-93.9998C163.175,-90.5411 136.182,-79.0143 127.944,-75.4966"/>
</g>
<!-- anon_31_20_1 -->
<g id="node66" class="node"><title>anon_31_20_1</title>
<ellipse fill="white" stroke="black" cx="205.983" cy="-219.072" rx="2.5" ry="2.5"/>
</g>
<!-- anon_31_20_0&#45;&gt;anon_31_20_1 -->
<g id="edge46" class="edge"><title>anon_31_20_0&#45;&gt;anon_31_20_1</title>
<path fill="none" stroke="black" d="M175.098,-185.275C179.835,-190.458 193.031,-204.899 200.552,-213.129"/>
<polygon fill="black" stroke="black" points="199.392,-214.454 204.057,-216.964 201.976,-212.093 199.392,-214.454"/>
<text text-anchor="middle" x="174.325" y="-201.802" font-family="monospace" font-size="8.00">T791M</text>
</g>
<!-- anon_31_20_1&#45;&gt;20 -->
<g id="edge47" class="edge"><title>anon_31_20_1&#45;&gt;20</title>
<path fill="none" stroke="black" d="M208.006,-221.014C212.443,-225.275 223.196,-235.6 230.236,-242.359"/>
<polygon fill="black" stroke="black" points="229.231,-243.819 234.049,-246.02 231.655,-241.295 229.231,-243.819"/>
<text text-anchor="middle" x="203.121" y="-234.286" font-family="monospace" font-size="8.00">L1366F</text>
</g>
<!-- anon_35_3_0&#45;&gt;3 -->
<g id="edge50" class="edge"><title>anon_35_3_0&#45;&gt;3</title>
<path fill="none" stroke="black" d="M-259.014,-242.178C-253.662,-238.464 -239.052,-228.325 -225.409,-218.857"/>
</g>
<!-- anon_45_3_0&#45;&gt;3 -->
<g id="edge61" class="edge"><title>anon_45_3_0&#45;&gt;3</title>
<path fill="none" stroke="black" d="M-273.358,-196.293C-266.706,-196.57 -248.453,-197.332 -231.515,-198.038"/>
</g>
<!-- anon_49_6_0&#45;&gt;6 -->
<g id="edge66" class="edge"><title>anon_49_6_0&#45;&gt;6</title>
<path fill="none" stroke="black" d="M-18.7977,-8.6363C-13.1111,-9.98101 0.84753,-13.2818 14.5833,-16.53"/>
</g>
</g>
</svg>
