<?xml version="1.0" encoding="UTF-8" standalone="no"?>
<!DOCTYPE svg PUBLIC "-//W3C//DTD SVG 1.1//EN"
 "http://www.w3.org/Graphics/SVG/1.1/DTD/svg11.dtd">
<!-- Generated by graphviz version 2.38.0 (20140413.2041)
 -->
<!-- Title: %3 Pages: 1 -->
<svg width="384pt" height="397pt"
 viewBox="0.00 0.00 383.82 396.58" xmlns="http://www.w3.org/2000/svg" xmlns:xlink="http://www.w3.org/1999/xlink">
<g id="graph0" class="graph" transform="scale(1 1) rotate(0) translate(181.751 204.678)">
<title>%3</title>
<polygon fill="white" stroke="none" points="-181.751,191.898 -181.751,-204.678 202.072,-204.678 202.072,191.898 -181.751,191.898"/>
<!-- 0 -->
<g id="node1" class="node"><title>0</title>
<path fill="#1874cd" stroke="black" stroke-width="0.5" d="M-10.1074,2.74802C-10.1074,2.74802 35.8926,2.74802 35.8926,2.74802 35.8926,1.44691 35.8374,0.146386 35.7271,-1.15005 35.6169,-2.44648 35.4516,-3.73765 35.2319,-5.02007 35.0122,-6.3025 34.7382,-7.57502 34.4106,-8.83422 34.083,-10.0934 33.7021,-11.3381 33.269,-12.565 32.8358,-13.7919 32.3508,-14.9999 31.8153,-16.1857 31.2797,-17.3715 30.6941,-18.534 30.06,-19.6702 29.4259,-20.8063 28.7439,-21.915 28.0158,-22.9933 27.2877,-24.0717 26.5142,-25.1186 25.6974,-26.1313 24.8805,-27.1441 24.0211,-28.1217 23.1213,-29.0616 22.2216,-30.0015 21.2824,-30.9027 20.3062,-31.763 19.3301,-32.6232 18.3179,-33.4417 17.2723,-34.2161 16.2268,-34.9906 15.1489,-35.7203 14.0415,-36.4033 12.9341,-37.0864 11.7982,-37.7222 10.6369,-38.3089 9.47563,-38.8957 8.28996,-39.4329 7.08311,-39.9191 5.87627,-40.4054 4.64934,-40.8402 3.40564,-41.2224 2.16193,-41.6046 0.902573,-41.9339 -0.369048,-42.2093 -1.64067,-42.4848 -2.9234,-42.7062 -4.21379,-42.8729 -5.50418,-43.0396 -6.80106,-43.1514 -8.10093,-43.2082 -9.40081,-43.2649 -10.7025,-43.2665 -12.0025,-43.2129 -13.3025,-43.1593 -14.5997,-43.0506 -15.8905,-42.887 -17.1812,-42.7234 -18.4645,-42.5052 -19.7368,-42.2328 -21.0091,-41.9604 -22.2692,-41.6342 -23.5139,-41.255 -24.7585,-40.8758 -25.9865,-40.444 -27.1945,-39.9607 -28.4025,-39.4774 -29.5895,-38.943 -30.7522,-38.3591 -31.9149,-37.7751 -33.0523,-37.1421 -34.1614,-36.4618 -35.2704,-35.7814 -36.3501,-35.0543 -37.3975,-34.2824 -38.4449,-33.5105 -39.4591,-32.6945 -40.4373,-31.8366 -41.4156,-30.9787 -42.357,-30.0797 -43.259,-29.142 -44.161,-28.2043 -45.0228,-27.2288 -45.8421,-26.218 -46.6614,-25.2073 -47.4375,-24.1622 -48.1682,-23.0857 -48.8989,-22.0091 -49.5836,-20.9021 -50.2204,-19.7675 -50.8573,-18.6329 -51.4457,-17.4718 -51.9841,-16.2873 -52.5225,-15.1028 -53.0105,-13.896 -53.4466,-12.6701 -53.8827,-11.4443 -54.2666,-10.2005 -54.5972,-8.94209 -54.9279,-7.6837 -55.205,-6.41184 -55.4278,-5.12995 -55.6506,-3.84806 -55.819,-2.5573 -55.9324,-1.26114 -56.0458,0.0350241 -56.1041,1.33541 -56.1073,2.63652 -56.1104,3.93763 -56.0584,5.23828 -55.9513,6.53498 -55.8442,7.83168 -55.6821,9.12324 -55.4655,10.4062 -55.2489,11.6892 -54.9779,12.9623 -54.6534,14.2223 -54.3288,15.4823 -53.9509,16.728 -53.5208,17.9559 -53.0906,19.1838 -52.6086,20.393 -52.0759,21.5801 -51.5432,22.7672 -50.9605,23.9311 -50.3291,25.0688 -49.6978,26.2064 -49.0184,27.3168 -48.293,28.3969 -47.5675,29.477 -46.7965,30.5258 -45.9821,31.5405 -45.1677,32.5552 -44.3106,33.5349 -43.4132,34.477 -42.5157,35.419 -41.5787,36.3226 -40.6046,37.1852 -39.6306,38.0478 -38.6204,38.8687 -37.5767,39.6457 -36.5331,40.4227 -35.4569,41.155 -34.3512,41.8407 -33.2454,42.5265 -32.1111,43.165 -30.9512,43.7546 -29.7914,44.3441 -28.607,44.8842 -27.4013,45.3734 -26.1957,45.8625 -24.9698,46.3003 -23.727,46.6856 -22.4843,47.0708 -21.2257,47.4031 -19.9547,47.6816 -18.6838,47.9602 -17.4016,48.1847 -16.1116,48.3545 -14.8216,48.5243 -13.525,48.6393 -12.2253,48.6992 -10.9256,48.7591 -9.62389,48.7639 -8.32375,48.7134 -7.02362,48.663 -5.72621,48.5574 -4.43503,48.3969 -3.14385,48.2365 -1.86005,48.0213 -0.587114,47.7521 0.685827,47.4828 1.94677,47.1596 3.19231,46.7834 4.43786,46.4072 5.66688,45.9784 6.87606,45.498 8.08525,45.0176 9.27351,44.4862 10.4376,43.905 11.6018,43.3239 12.7407,42.6937 13.8514,42.016 14.9621,41.3383 16.0435,40.6138 17.0928,39.8445 18.1421,39.0751 19.1583,38.2616 20.1386,37.4061 20.1386,37.4061 -10.1074,2.74802 -10.1074,2.74802"/>
<path fill="olivedrab" stroke="black" stroke-width="0.5" d="M-10.1074,2.74802C-10.1074,2.74802 20.1386,37.4061 20.1386,37.4061 21.3711,36.3305 22.5453,35.1899 23.6563,33.9892 24.7673,32.7885 25.8134,31.5294 26.7902,30.2173 27.7671,28.9052 28.6733,27.5419 29.5049,26.1332 30.3365,24.7245 31.0924,23.2725 31.7693,21.7833 32.4462,20.2941 33.0432,18.7699 33.5577,17.2171 34.0723,15.6643 34.5036,14.0851 34.8499,12.4864 35.1962,10.8877 35.457,9.27157 35.6312,7.64504 35.8053,6.01851 35.8926,4.38385 35.8926,2.74802 35.8926,2.74802 -10.1074,2.74802 -10.1074,2.74802"/>
<ellipse fill="none" stroke="black" cx="-10.1074" cy="2.74802" rx="46" ry="46"/>
</g>
<!-- 1 -->
<g id="node2" class="node"><title>1</title>
<ellipse fill="#1874cd" stroke="black" cx="2.11043" cy="57.1857" rx="3.5" ry="3.5"/>
</g>
<!-- 0&#45;&gt;1 -->
<g id="edge1" class="edge"><title>0&#45;&gt;1</title>
<path fill="none" stroke="black" d="M-0.0177545,47.7034C0.496614,49.9952 0.944292,51.9899 1.29458,53.5506"/>
</g>
<!-- 2 -->
<g id="node3" class="node"><title>2</title>
<ellipse fill="#1874cd" stroke="black" cx="79.9672" cy="-89.9542" rx="3.5" ry="3.5"/>
</g>
<!-- 0&#45;&gt;2 -->
<g id="edge2" class="edge"><title>0&#45;&gt;2</title>
<path fill="none" stroke="black" d="M22.1572,-30.4578C43.5608,-52.4858 69.1603,-78.832 77.3278,-87.2378"/>
</g>
<!-- 3 -->
<g id="node4" class="node"><title>3</title>
<ellipse fill="#1874cd" stroke="black" cx="58.7544" cy="18.0871" rx="3.5" ry="3.5"/>
</g>
<!-- 0&#45;&gt;3 -->
<g id="edge3" class="edge"><title>0&#45;&gt;3</title>
<path fill="none" stroke="black" d="M35.0561,12.8082C43.574,14.7056 51.1181,16.3861 55.2983,17.3172"/>
</g>
<!-- 4 -->
<g id="node5" class="node"><title>4</title>
<ellipse fill="#1874cd" stroke="black" cx="0.829927" cy="98.1821" rx="3.5" ry="3.5"/>
</g>
<!-- 0&#45;&gt;4 -->
<g id="edge4" class="edge"><title>0&#45;&gt;4</title>
<path fill="none" stroke="black" d="M-4.86299,48.5084C-2.71388,67.2605 -0.518512,86.4163 0.392513,94.3655"/>
</g>
<!-- 5 -->
<g id="node6" class="node"><title>5</title>
<ellipse fill="#1874cd" stroke="black" cx="85.678" cy="-35.2054" rx="3.5" ry="3.5"/>
</g>
<!-- 0&#45;&gt;5 -->
<g id="edge5" class="edge"><title>0&#45;&gt;5</title>
<path fill="none" stroke="black" d="M32.7424,-14.2305C52.6669,-22.1253 73.7687,-30.4865 82.0473,-33.7668"/>
</g>
<!-- 7 -->
<g id="node8" class="node"><title>7</title>
<ellipse fill="#1874cd" stroke="black" cx="-79.8599" cy="-68.239" rx="3.5" ry="3.5"/>
</g>
<!-- 0&#45;&gt;7 -->
<g id="edge9" class="edge"><title>0&#45;&gt;7</title>
<path fill="none" stroke="black" d="M-42.5332,-30.2517C-56.764,-44.7344 -71.5416,-59.7735 -77.3258,-65.6601"/>
</g>
<!-- 11 -->
<g id="node12" class="node"><title>11</title>
<ellipse fill="#1874cd" stroke="black" cx="111.694" cy="43.7639" rx="3.5" ry="3.5"/>
</g>
<!-- 0&#45;&gt;11 -->
<g id="edge13" class="edge"><title>0&#45;&gt;11</title>
<path fill="none" stroke="black" d="M33.5218,17.4398C62.4645,27.1861 97.0809,38.8429 108.125,42.562"/>
</g>
<!-- 13 -->
<g id="node14" class="node"><title>13</title>
<ellipse fill="#1874cd" stroke="black" cx="-102.61" cy="-9.63981" rx="3.5" ry="3.5"/>
</g>
<!-- 0&#45;&gt;13 -->
<g id="edge17" class="edge"><title>0&#45;&gt;13</title>
<path fill="none" stroke="black" d="M-55.8165,-3.37331C-73.6592,-5.7628 -91.6095,-8.16669 -99.0436,-9.16226"/>
</g>
<!-- 14 -->
<g id="node15" class="node"><title>14</title>
<ellipse fill="#1874cd" stroke="black" cx="1.53094" cy="-104.864" rx="3.5" ry="3.5"/>
</g>
<!-- 0&#45;&gt;14 -->
<g id="edge18" class="edge"><title>0&#45;&gt;14</title>
<path fill="none" stroke="black" d="M-5.13795,-43.2013C-2.99139,-63.0491 -0.687185,-84.3546 0.572259,-95.9998"/>
<polygon fill="black" stroke="black" points="-1.1483,-96.3673 1.12927,-101.15 2.33141,-95.9909 -1.1483,-96.3673"/>
<text text-anchor="middle" x="-15.7828" y="-72.2006" font-family="monospace" font-size="8.00">A586T</text>
</g>
<!-- 15 -->
<g id="node16" class="node"><title>15</title>
<ellipse fill="#1874cd" stroke="black" cx="92.5566" cy="-3.01204" rx="3.5" ry="3.5"/>
</g>
<!-- 0&#45;&gt;15 -->
<g id="edge19" class="edge"><title>0&#45;&gt;15</title>
<path fill="none" stroke="black" d="M36.1189,0.15445C57.6207,-1.05192 80.3292,-2.32601 88.9526,-2.80983"/>
</g>
<!-- 17 -->
<g id="node18" class="node"><title>17</title>
<ellipse fill="#1874cd" stroke="black" cx="-35.1621" cy="-78.1207" rx="3.5" ry="3.5"/>
</g>
<!-- 0&#45;&gt;17 -->
<g id="edge20" class="edge"><title>0&#45;&gt;17</title>
<path fill="none" stroke="black" d="M-23.8077,-41.4721C-28.1032,-55.3368 -32.2132,-68.6026 -34.0936,-74.6717"/>
</g>
<!-- 19 -->
<g id="node20" class="node"><title>19</title>
<ellipse fill="#1874cd" stroke="black" cx="74.2206" cy="68.5392" rx="5" ry="5"/>
</g>
<!-- 0&#45;&gt;19 -->
<g id="edge23" class="edge"><title>0&#45;&gt;19</title>
<path fill="none" stroke="black" d="M26.6348,31.4136C43.6783,44.7106 61.9236,58.9453 69.981,65.2315"/>
</g>
<!-- 20 -->
<g id="node21" class="node"><title>20</title>
<ellipse fill="#1874cd" stroke="black" cx="2.81921" cy="-59.3654" rx="3.5" ry="3.5"/>
</g>
<!-- 0&#45;&gt;20 -->
<g id="edge24" class="edge"><title>0&#45;&gt;20</title>
<path fill="none" stroke="black" d="M-0.713051,-42.3926C0.414647,-47.8113 1.39131,-52.5042 2.03005,-55.5734"/>
</g>
<!-- 21 -->
<g id="node22" class="node"><title>21</title>
<ellipse fill="#1874cd" stroke="black" cx="48.4541" cy="-35.9948" rx="3.5" ry="3.5"/>
</g>
<!-- 0&#45;&gt;21 -->
<g id="edge25" class="edge"><title>0&#45;&gt;21</title>
<path fill="none" stroke="black" d="M28.3006,-22.6617C35.5443,-27.454 41.9601,-31.6985 45.5149,-34.0503"/>
</g>
<!-- 22 -->
<g id="node23" class="node"><title>22</title>
<ellipse fill="#1874cd" stroke="black" cx="-51.8306" cy="66.293" rx="3.5" ry="3.5"/>
</g>
<!-- 0&#45;&gt;22 -->
<g id="edge26" class="edge"><title>0&#45;&gt;22</title>
<path fill="none" stroke="black" d="M-35.5799,41.5429C-41.552,50.6386 -46.9935,58.926 -49.8112,63.2174"/>
</g>
<!-- 23 -->
<g id="node24" class="node"><title>23</title>
<ellipse fill="#1874cd" stroke="black" cx="-30.4678" cy="109.759" rx="5" ry="5"/>
</g>
<!-- 0&#45;&gt;23 -->
<g id="edge27" class="edge"><title>0&#45;&gt;23</title>
<path fill="none" stroke="black" d="M-18.742,48.1304C-22.9473,70.2327 -27.5128,94.2284 -29.4776,104.555"/>
</g>
<!-- 24 -->
<g id="node25" class="node"><title>24</title>
<ellipse fill="#1874cd" stroke="black" cx="-94.4806" cy="56.4297" rx="3.5" ry="3.5"/>
</g>
<!-- 0&#45;&gt;24 -->
<g id="edge28" class="edge"><title>0&#45;&gt;24</title>
<path fill="none" stroke="black" d="M-49.33,27.703C-66.5436,38.655 -84.4187,50.0279 -91.4154,54.4794"/>
</g>
<!-- 26 -->
<g id="node27" class="node"><title>26</title>
<ellipse fill="#1874cd" stroke="black" cx="-64.4957" cy="-33.2964" rx="3.5" ry="3.5"/>
</g>
<!-- 0&#45;&gt;26 -->
<g id="edge31" class="edge"><title>0&#45;&gt;26</title>
<path fill="none" stroke="black" d="M-48.4716,-22.6768C-51.6444,-24.7795 -54.5717,-26.7195 -57.0322,-28.3501"/>
<polygon fill="black" stroke="black" points="-58.1553,-26.995 -61.3564,-31.2159 -56.2218,-29.9125 -58.1553,-26.995"/>
<text text-anchor="middle" x="-66.2519" y="-19.1135" font-family="monospace" font-size="8.00">A837V</text>
</g>
<!-- 27 -->
<g id="node28" class="node"><title>27</title>
<ellipse fill="olivedrab" stroke="black" cx="-75.4397" cy="22.0543" rx="3.5" ry="3.5"/>
</g>
<!-- 0&#45;&gt;27 -->
<g id="edge32" class="edge"><title>0&#45;&gt;27</title>
<path fill="none" stroke="black" d="M-54.4086,15.8394C-61.6907,17.9913 -68.0855,19.881 -71.8575,20.9957"/>
</g>
<!-- 28 -->
<g id="node29" class="node"><title>28</title>
<ellipse fill="olivedrab" stroke="black" cx="33.5135" cy="-83.919" rx="3.5" ry="3.5"/>
</g>
<!-- 0&#45;&gt;28 -->
<g id="edge33" class="edge"><title>0&#45;&gt;28</title>
<path fill="none" stroke="black" d="M10.681,-38.5549C19.2828,-55.6452 28.0971,-73.1576 31.7562,-80.4277"/>
</g>
<!-- anon_0_6_0 -->
<g id="node30" class="node"><title>anon_0_6_0</title>
<ellipse fill="white" stroke="black" cx="-79.6339" cy="107.496" rx="2.5" ry="2.5"/>
</g>
<!-- 0&#45;&gt;anon_0_6_0 -->
<g id="edge6" class="edge"><title>0&#45;&gt;anon_0_6_0</title>
<path fill="none" stroke="black" d="M-35.6017,41.1576C-52.3441,66.3816 -72.1808,96.2676 -77.9711,104.991"/>
</g>
<!-- anon_0_10_0 -->
<g id="node32" class="node"><title>anon_0_10_0</title>
<ellipse fill="white" stroke="black" cx="36.3061" cy="120.444" rx="2.5" ry="2.5"/>
</g>
<!-- 0&#45;&gt;anon_0_10_0 -->
<g id="edge11" class="edge"><title>0&#45;&gt;anon_0_10_0</title>
<path fill="none" stroke="black" d="M6.78022,45.5719C18.0811,74.2289 31.5461,108.374 35.2946,117.879"/>
</g>
<!-- anon_0_12_0 -->
<g id="node33" class="node"><title>anon_0_12_0</title>
<ellipse fill="white" stroke="black" cx="-56.4739" cy="-115.613" rx="2.5" ry="2.5"/>
</g>
<!-- 0&#45;&gt;anon_0_12_0 -->
<g id="edge14" class="edge"><title>0&#45;&gt;anon_0_12_0</title>
<path fill="none" stroke="black" d="M-26.9779,-40.3178C-38.2674,-69.1367 -51.7187,-103.474 -55.4634,-113.033"/>
</g>
<!-- anon_0_18_0 -->
<g id="node35" class="node"><title>anon_0_18_0</title>
<ellipse fill="white" stroke="black" cx="-124.041" cy="-49.2155" rx="2.5" ry="2.5"/>
</g>
<!-- 0&#45;&gt;anon_0_18_0 -->
<g id="edge21" class="edge"><title>0&#45;&gt;anon_0_18_0</title>
<path fill="none" stroke="black" d="M-52.2083,-16.4536C-79.8461,-29.0589 -112.503,-43.9534 -121.589,-48.0974"/>
</g>
<!-- anon_0_25_0 -->
<g id="node36" class="node"><title>anon_0_25_0</title>
<ellipse fill="white" stroke="black" cx="-132.64" cy="26.9107" rx="2.5" ry="2.5"/>
</g>
<!-- 0&#45;&gt;anon_0_25_0 -->
<g id="edge29" class="edge"><title>0&#45;&gt;anon_0_25_0</title>
<path fill="none" stroke="black" d="M-55.3861,11.6767C-85.1099,17.538 -120.232,24.4638 -130.004,26.3908"/>
</g>
<!-- anon_2_8_0 -->
<g id="node37" class="node"><title>anon_2_8_0</title>
<ellipse fill="white" stroke="black" cx="112.846" cy="-124.538" rx="2.5" ry="2.5"/>
</g>
<!-- 2&#45;&gt;anon_2_8_0 -->
<g id="edge34" class="edge"><title>2&#45;&gt;anon_2_8_0</title>
<path fill="none" stroke="black" d="M82.5471,-92.6679C88.9657,-99.4194 105.532,-116.845 111.037,-122.635"/>
</g>
<!-- 6 -->
<g id="node7" class="node"><title>6</title>
<ellipse fill="#1874cd" stroke="black" cx="-126.03" cy="184.398" rx="3.5" ry="3.5"/>
</g>
<!-- 8 -->
<g id="node9" class="node"><title>8</title>
<ellipse fill="#1874cd" stroke="black" cx="172.631" cy="-187.304" rx="3.5" ry="3.5"/>
</g>
<!-- 9 -->
<g id="node10" class="node"><title>9</title>
<ellipse fill="#1874cd" stroke="black" cx="43.8657" cy="71.0406" rx="5" ry="5"/>
</g>
<!-- 9&#45;&gt;0 -->
<g id="edge10" class="edge"><title>9&#45;&gt;0</title>
<path fill="none" stroke="black" d="M40.6511,66.9731C36.6842,61.9538 29.5098,52.876 21.7803,43.0958"/>
<polygon fill="black" stroke="black" points="20.4064,44.1797 18.6791,39.1718 23.1524,42.0095 20.4064,44.1797"/>
<text text-anchor="middle" x="44.7157" y="61.4345" font-family="monospace" font-size="8.00">R254K</text>
</g>
<!-- 10 -->
<g id="node11" class="node"><title>10</title>
<ellipse fill="#1874cd" stroke="black" cx="50.2399" cy="160.376" rx="3.5" ry="3.5"/>
</g>
<!-- anon_11_16_0 -->
<g id="node39" class="node"><title>anon_11_16_0</title>
<ellipse fill="white" stroke="black" cx="156.362" cy="63.7673" rx="2.5" ry="2.5"/>
</g>
<!-- 11&#45;&gt;anon_11_16_0 -->
<g id="edge37" class="edge"><title>11&#45;&gt;anon_11_16_0</title>
<path fill="none" stroke="black" d="M114.907,45.2025C123.388,49.0008 146.252,59.2397 153.861,62.6472"/>
</g>
<!-- 12 -->
<g id="node13" class="node"><title>12</title>
<ellipse fill="#1874cd" stroke="black" cx="-93.8786" cy="-197.178" rx="3.5" ry="3.5"/>
</g>
<!-- 16 -->
<g id="node17" class="node"><title>16</title>
<ellipse fill="#1874cd" stroke="black" cx="194.572" cy="81.7323" rx="3.5" ry="3.5"/>
</g>
<!-- 18 -->
<g id="node19" class="node"><title>18</title>
<ellipse fill="#1874cd" stroke="black" cx="-163.008" cy="-65.6917" rx="3.5" ry="3.5"/>
</g>
<!-- 25 -->
<g id="node26" class="node"><title>25</title>
<ellipse fill="#1874cd" stroke="black" cx="-174.251" cy="34.5483" rx="3.5" ry="3.5"/>
</g>
<!-- anon_0_6_1 -->
<g id="node31" class="node"><title>anon_0_6_1</title>
<ellipse fill="white" stroke="black" cx="-103.986" cy="148.39" rx="2.5" ry="2.5"/>
</g>
<!-- anon_0_6_0&#45;&gt;anon_0_6_1 -->
<g id="edge7" class="edge"><title>anon_0_6_0&#45;&gt;anon_0_6_1</title>
<path fill="none" stroke="black" d="M-80.9431,109.695C-85.1319,116.729 -98.1855,138.65 -102.549,145.977"/>
</g>
<!-- anon_0_6_1&#45;&gt;6 -->
<g id="edge8" class="edge"><title>anon_0_6_1&#45;&gt;6</title>
<path fill="none" stroke="black" d="M-105.432,150.752C-109.264,157.011 -119.68,174.026 -124.054,181.171"/>
</g>
<!-- anon_0_10_0&#45;&gt;10 -->
<g id="edge12" class="edge"><title>anon_0_10_0&#45;&gt;10</title>
<path fill="none" stroke="black" d="M37.2203,123.064C39.6421,130.005 46.2264,148.874 48.9911,156.797"/>
</g>
<!-- anon_0_12_1 -->
<g id="node34" class="node"><title>anon_0_12_1</title>
<ellipse fill="white" stroke="black" cx="-75.6647" cy="-159.084" rx="2.5" ry="2.5"/>
</g>
<!-- anon_0_12_0&#45;&gt;anon_0_12_1 -->
<g id="edge15" class="edge"><title>anon_0_12_0&#45;&gt;anon_0_12_1</title>
<path fill="none" stroke="black" d="M-57.5057,-117.95C-60.8067,-125.428 -71.0937,-148.73 -74.5323,-156.519"/>
</g>
<!-- anon_0_12_1&#45;&gt;12 -->
<g id="edge16" class="edge"><title>anon_0_12_1&#45;&gt;12</title>
<path fill="none" stroke="black" d="M-76.8597,-161.583C-80.0254,-168.204 -88.6322,-186.206 -92.2462,-193.764"/>
</g>
<!-- anon_0_18_0&#45;&gt;18 -->
<g id="edge22" class="edge"><title>anon_0_18_0&#45;&gt;18</title>
<path fill="none" stroke="black" d="M-126.598,-50.2966C-133.37,-53.1602 -151.784,-60.9459 -159.516,-64.215"/>
</g>
<!-- anon_0_25_0&#45;&gt;25 -->
<g id="edge30" class="edge"><title>anon_0_25_0&#45;&gt;25</title>
<path fill="none" stroke="black" d="M-135.371,27.4118C-142.603,28.7393 -162.266,32.3484 -170.522,33.8638"/>
</g>
<!-- anon_2_8_1 -->
<g id="node38" class="node"><title>anon_2_8_1</title>
<ellipse fill="white" stroke="black" cx="143.516" cy="-156.785" rx="2.5" ry="2.5"/>
</g>
<!-- anon_2_8_0&#45;&gt;anon_2_8_1 -->
<g id="edge35" class="edge"><title>anon_2_8_0&#45;&gt;anon_2_8_1</title>
<path fill="none" stroke="black" d="M114.858,-126.654C120.508,-132.595 136.453,-149.36 141.768,-154.947"/>
</g>
<!-- anon_2_8_1&#45;&gt;8 -->
<g id="edge36" class="edge"><title>anon_2_8_1&#45;&gt;8</title>
<path fill="none" stroke="black" d="M145.426,-158.788C150.486,-164.092 164.244,-178.513 170.021,-184.569"/>
</g>
<!-- anon_11_16_0&#45;&gt;16 -->
<g id="edge38" class="edge"><title>anon_11_16_0&#45;&gt;16</title>
<path fill="none" stroke="black" d="M158.869,64.946C165.51,68.0685 183.566,76.5576 191.147,80.1222"/>
</g>
</g>
</svg>
