<?xml version="1.0" encoding="UTF-8" standalone="no"?>
<!DOCTYPE svg PUBLIC "-//W3C//DTD SVG 1.1//EN"
 "http://www.w3.org/Graphics/SVG/1.1/DTD/svg11.dtd">
<!-- Generated by graphviz version 2.38.0 (20140413.2041)
 -->
<!-- Title: %3 Pages: 1 -->
<svg width="731pt" height="660pt"
 viewBox="0.00 0.00 731.40 659.77" xmlns="http://www.w3.org/2000/svg" xmlns:xlink="http://www.w3.org/1999/xlink">
<g id="graph0" class="graph" transform="scale(1 1) rotate(0) translate(210.824 471.564)">
<title>%3</title>
<polygon fill="white" stroke="none" points="-210.824,188.204 -210.824,-471.564 520.579,-471.564 520.579,188.204 -210.824,188.204"/>
<!-- 0 -->
<g id="node1" class="node"><title>0</title>
<ellipse fill="palegreen" stroke="black" cx="-41.4892" cy="49.1508" rx="33" ry="33"/>
</g>
<!-- 1 -->
<g id="node2" class="node"><title>1</title>
<ellipse fill="palegreen" stroke="black" cx="34.3783" cy="25.5436" rx="3.5" ry="3.5"/>
</g>
<!-- 0&#45;&gt;1 -->
<g id="edge1" class="edge"><title>0&#45;&gt;1</title>
<path fill="none" stroke="black" d="M-9.75414,39.276C6.16293,34.3232 23.5766,28.9047 30.8649,26.6369"/>
</g>
<!-- 3 -->
<g id="node4" class="node"><title>3</title>
<ellipse fill="palegreen" stroke="black" cx="-45.3578" cy="107.086" rx="3.5" ry="3.5"/>
</g>
<!-- 0&#45;&gt;3 -->
<g id="edge2" class="edge"><title>0&#45;&gt;3</title>
<path fill="none" stroke="black" d="M-43.6947,82.1801C-44.2648,90.7183 -44.8029,98.7762 -45.1055,103.307"/>
</g>
<!-- 5 -->
<g id="node6" class="node"><title>5</title>
<ellipse fill="palegreen" stroke="black" cx="-87.4292" cy="4.84144" rx="3.5" ry="3.5"/>
</g>
<!-- 0&#45;&gt;5 -->
<g id="edge3" class="edge"><title>0&#45;&gt;5</title>
<path fill="none" stroke="black" d="M-65.2666,26.2174C-73.1484,18.6154 -80.9032,11.1357 -84.813,7.36472"/>
</g>
<!-- 7 -->
<g id="node8" class="node"><title>7</title>
<ellipse fill="palegreen" stroke="black" cx="-129.195" cy="10.4212" rx="5" ry="5"/>
</g>
<!-- 0&#45;&gt;7 -->
<g id="edge6" class="edge"><title>0&#45;&gt;7</title>
<path fill="none" stroke="black" d="M-72.1644,35.6051C-91.5284,27.0542 -114.671,16.8345 -124.456,12.5138"/>
</g>
<!-- 9 -->
<g id="node10" class="node"><title>9</title>
<ellipse fill="palegreen" stroke="black" cx="-57.7883" cy="153.938" rx="9" ry="9"/>
</g>
<!-- 0&#45;&gt;9 -->
<g id="edge7" class="edge"><title>0&#45;&gt;9</title>
<path fill="none" stroke="black" d="M-46.6016,82.0185C-49.9999,103.866 -54.2204,130.999 -56.3764,144.86"/>
</g>
<!-- 10 -->
<g id="node11" class="node"><title>10</title>
<ellipse fill="palegreen" stroke="black" cx="-117.445" cy="79.9398" rx="3.5" ry="3.5"/>
</g>
<!-- 0&#45;&gt;10 -->
<g id="edge8" class="edge"><title>0&#45;&gt;10</title>
<path fill="none" stroke="black" d="M-72.3834,61.6739C-88.4836,68.2002 -106.345,75.4402 -113.833,78.4755"/>
</g>
<!-- 11 -->
<g id="node12" class="node"><title>11</title>
<ellipse fill="palegreen" stroke="black" cx="5.64891" cy="129.286" rx="3.5" ry="3.5"/>
</g>
<!-- 0&#45;&gt;11 -->
<g id="edge9" class="edge"><title>0&#45;&gt;11</title>
<path fill="none" stroke="black" d="M-24.7373,77.6292C-13.9406,95.9838 -1.0556,117.888 3.73346,126.03"/>
</g>
<!-- 12 -->
<g id="node13" class="node"><title>12</title>
<ellipse fill="palegreen" stroke="black" cx="-102.951" cy="128.024" rx="5" ry="5"/>
</g>
<!-- 0&#45;&gt;12 -->
<g id="edge10" class="edge"><title>0&#45;&gt;12</title>
<path fill="none" stroke="black" d="M-61.9552,75.4146C-75.7838,93.1606 -92.7455,114.927 -99.7214,123.879"/>
</g>
<!-- 14 -->
<g id="node15" class="node"><title>14</title>
<ellipse fill="palegreen" stroke="black" cx="-134.5" cy="49.6518" rx="3.5" ry="3.5"/>
</g>
<!-- 0&#45;&gt;14 -->
<g id="edge11" class="edge"><title>0&#45;&gt;14</title>
<path fill="none" stroke="black" d="M-74.5431,49.3288C-96.0555,49.4447 -121.77,49.5832 -130.993,49.6329"/>
</g>
<!-- 18 -->
<g id="node19" class="node"><title>18</title>
<ellipse fill="palegreen" stroke="black" cx="28.9901" cy="-12.0286" rx="3.5" ry="3.5"/>
</g>
<!-- 0&#45;&gt;18 -->
<g id="edge16" class="edge"><title>0&#45;&gt;18</title>
<path fill="none" stroke="black" d="M-16.4424,27.409C-0.299464,13.3961 18.9657,-3.32701 26.1262,-9.54262"/>
</g>
<!-- 20 -->
<g id="node21" class="node"><title>20</title>
<ellipse fill="palegreen" stroke="black" cx="-11.501" cy="-13.7261" rx="3.5" ry="3.5"/>
</g>
<!-- 0&#45;&gt;20 -->
<g id="edge17" class="edge"><title>0&#45;&gt;20</title>
<path fill="none" stroke="black" d="M-27.1977,19.1856C-21.5255,7.29263 -15.719,-4.88203 -13.0345,-10.5107"/>
</g>
<!-- 22 -->
<g id="node23" class="node"><title>22</title>
<ellipse fill="palegreen" stroke="black" cx="16.5979" cy="90.4" rx="3.5" ry="3.5"/>
</g>
<!-- 0&#45;&gt;22 -->
<g id="edge18" class="edge"><title>0&#45;&gt;22</title>
<path fill="none" stroke="black" d="M-14.4863,68.3263C-3.3465,76.237 8.19561,84.4333 13.5414,88.2295"/>
</g>
<!-- anon_0_6_0 -->
<g id="node63" class="node"><title>anon_0_6_0</title>
<ellipse fill="white" stroke="black" cx="57.137" cy="69.3268" rx="2.5" ry="2.5"/>
</g>
<!-- 0&#45;&gt;anon_0_6_0 -->
<g id="edge4" class="edge"><title>0&#45;&gt;anon_0_6_0</title>
<path fill="none" stroke="black" d="M-8.92193,55.8131C15.317,60.7717 45.681,66.9833 54.578,68.8033"/>
</g>
<!-- anon_0_15_0 -->
<g id="node64" class="node"><title>anon_0_15_0</title>
<ellipse fill="white" stroke="black" cx="-59.6818" cy="-47.1073" rx="2.5" ry="2.5"/>
</g>
<!-- 0&#45;&gt;anon_0_15_0 -->
<g id="edge12" class="edge"><title>0&#45;&gt;anon_0_15_0</title>
<path fill="none" stroke="black" d="M-47.6483,16.5622C-52.019,-6.56336 -57.4032,-35.0512 -59.1249,-44.1607"/>
</g>
<!-- 2 -->
<g id="node3" class="node"><title>2</title>
<path fill="#787878" stroke="black" stroke-width="0.5" d="M100.817,-220.015C100.817,-220.015 141.817,-220.015 141.817,-220.015 141.817,-221.047 141.778,-222.079 141.7,-223.108 141.623,-224.137 141.506,-225.163 141.351,-226.184 141.195,-227.204 141.001,-228.218 140.77,-229.224 140.538,-230.23 140.268,-231.227 139.961,-232.212 139.654,-233.198 139.31,-234.171 138.929,-235.131 138.548,-236.09 138.132,-237.035 137.68,-237.963 137.228,-238.891 136.741,-239.802 136.221,-240.693 135.7,-241.584 135.146,-242.456 134.56,-243.305 133.973,-244.155 133.355,-244.982 132.706,-245.785 132.058,-246.587 131.379,-247.365 130.671,-248.117 129.964,-248.869 129.228,-249.593 128.466,-250.289 127.704,-250.985 126.915,-251.652 126.103,-252.289 125.29,-252.926 124.454,-253.531 123.596,-254.105 122.737,-254.678 121.858,-255.219 120.959,-255.726 120.06,-256.233 119.142,-256.706 118.207,-257.144 117.272,-257.582 116.321,-257.984 115.356,-258.35 114.391,-258.716 113.412,-259.046 112.422,-259.338 111.432,-259.63 110.432,-259.885 109.422,-260.101 108.413,-260.318 107.396,-260.496 106.374,-260.636 105.351,-260.776 104.323,-260.877 103.293,-260.94 102.263,-261.002 101.23,-261.025 100.198,-261.01 99.166,-260.994 98.1349,-260.94 97.1069,-260.846 96.0789,-260.753 95.0548,-260.621 94.0368,-260.45 93.0188,-260.279 92.0076,-260.07 91.0054,-259.823 90.0032,-259.576 89.0106,-259.291 88.0299,-258.969 87.0492,-258.647 86.081,-258.289 85.1273,-257.894 84.1737,-257.499 83.2353,-257.068 82.3142,-256.602 81.3931,-256.136 80.4898,-255.636 79.6065,-255.102 78.7231,-254.568 77.8603,-254 77.0197,-253.401 76.1792,-252.802 75.3616,-252.171 74.5686,-251.511 73.7757,-250.85 73.008,-250.159 72.2671,-249.44 71.5263,-248.722 70.8129,-247.975 70.1284,-247.203 70.1284,-247.203 100.817,-220.015 100.817,-220.015"/>
<path fill="palegreen" stroke="black" stroke-width="0.5" d="M100.817,-220.015C100.817,-220.015 70.1284,-247.203 70.1284,-247.203 69.033,-245.966 68.0134,-244.665 67.075,-243.305 66.1367,-241.946 65.2813,-240.531 64.5137,-239.068 63.746,-237.606 63.0674,-236.098 62.4817,-234.553 61.8959,-233.009 61.404,-231.43 61.0087,-229.826 60.6134,-228.223 60.3154,-226.596 60.1163,-224.957 59.9172,-223.317 59.8174,-221.666 59.8174,-220.015 59.8174,-218.363 59.9172,-216.712 60.1163,-215.073 60.3154,-213.433 60.6134,-211.806 61.0087,-210.203 61.4041,-208.599 61.8959,-207.02 62.4817,-205.476 63.0674,-203.931 63.746,-202.424 64.5137,-200.961 65.2813,-199.498 66.1367,-198.083 67.075,-196.724 68.0134,-195.364 69.033,-194.063 70.1284,-192.827 71.2238,-191.59 72.3929,-190.421 73.6293,-189.326 74.8658,-188.23 76.1672,-187.211 77.5267,-186.272 78.8861,-185.334 80.3011,-184.478 81.7637,-183.711 83.2263,-182.943 84.734,-182.265 86.2786,-181.679 87.8231,-181.093 89.4016,-180.601 91.0054,-180.206 92.6093,-179.811 94.2355,-179.513 95.8753,-179.313 97.5152,-179.114 99.1655,-179.015 100.817,-179.015 102.469,-179.015 104.12,-179.114 105.759,-179.313 107.399,-179.513 109.025,-179.811 110.629,-180.206 112.233,-180.601 113.812,-181.093 115.356,-181.679 116.901,-182.265 118.408,-182.943 119.871,-183.711 121.334,-184.478 122.749,-185.334 124.108,-186.272 125.467,-187.211 126.769,-188.23 128.005,-189.326 129.242,-190.421 130.411,-191.59 131.506,-192.827 132.602,-194.063 133.621,-195.364 134.56,-196.724 135.498,-198.083 136.353,-199.498 137.121,-200.961 137.889,-202.424 138.567,-203.931 139.153,-205.476 139.739,-207.02 140.231,-208.599 140.626,-210.203 141.021,-211.806 141.319,-213.433 141.518,-215.073 141.718,-216.712 141.817,-218.363 141.817,-220.015 141.817,-220.015 100.817,-220.015 100.817,-220.015"/>
<ellipse fill="none" stroke="black" cx="100.817" cy="-220.015" rx="41" ry="41"/>
</g>
<!-- 4 -->
<g id="node5" class="node"><title>4</title>
<ellipse fill="palegreen" stroke="black" cx="68.8161" cy="-100.608" rx="13" ry="13"/>
</g>
<!-- 2&#45;&gt;4 -->
<g id="edge19" class="edge"><title>2&#45;&gt;4</title>
<path fill="none" stroke="black" d="M90.1614,-180.254C83.9068,-156.916 76.4212,-128.985 72.1822,-113.168"/>
</g>
<!-- 13 -->
<g id="node14" class="node"><title>13</title>
<ellipse fill="palegreen" stroke="black" cx="50.4904" cy="-175.163" rx="3.5" ry="3.5"/>
</g>
<!-- 2&#45;&gt;13 -->
<g id="edge20" class="edge"><title>2&#45;&gt;13</title>
<path fill="none" stroke="black" d="M70.0922,-192.632C63.216,-186.504 56.923,-180.896 53.4091,-177.764"/>
</g>
<!-- 17 -->
<g id="node18" class="node"><title>17</title>
<ellipse fill="palegreen" stroke="black" cx="76.5347" cy="-316.264" rx="3.5" ry="3.5"/>
</g>
<!-- 2&#45;&gt;17 -->
<g id="edge21" class="edge"><title>2&#45;&gt;17</title>
<path fill="none" stroke="black" d="M90.7303,-259.997C85.4138,-281.07 79.5561,-304.288 77.3958,-312.851"/>
</g>
<!-- 19 -->
<g id="node20" class="node"><title>19</title>
<ellipse fill="palegreen" stroke="black" cx="33.8414" cy="-292.868" rx="3.5" ry="3.5"/>
</g>
<!-- 2&#45;&gt;19 -->
<g id="edge22" class="edge"><title>2&#45;&gt;19</title>
<path fill="none" stroke="black" d="M72.8016,-250.489C58.4632,-266.085 42.7491,-283.178 36.5603,-289.91"/>
</g>
<!-- 23 -->
<g id="node24" class="node"><title>23</title>
<ellipse fill="#787878" stroke="black" cx="200.744" cy="-290.679" rx="11.5" ry="11.5"/>
</g>
<!-- 2&#45;&gt;23 -->
<g id="edge23" class="edge"><title>2&#45;&gt;23</title>
<path fill="none" stroke="black" d="M134.37,-243.741C154.327,-257.855 178.216,-274.747 191.197,-283.927"/>
</g>
<!-- 24 -->
<g id="node25" class="node"><title>24</title>
<ellipse fill="#787878" stroke="black" cx="3.71644" cy="-205.735" rx="3.5" ry="3.5"/>
</g>
<!-- 2&#45;&gt;24 -->
<g id="edge24" class="edge"><title>2&#45;&gt;24</title>
<path fill="none" stroke="black" d="M60.2004,-214.041C39.2049,-210.954 16.1749,-207.567 7.39331,-206.275"/>
</g>
<!-- 27 -->
<g id="node28" class="node"><title>27</title>
<ellipse fill="#787878" stroke="black" cx="7.15289" cy="-254.012" rx="3.5" ry="3.5"/>
</g>
<!-- 2&#45;&gt;27 -->
<g id="edge27" class="edge"><title>2&#45;&gt;27</title>
<path fill="none" stroke="black" d="M62.1797,-234.039C41.6195,-241.502 18.8846,-249.754 10.4968,-252.799"/>
</g>
<!-- 28 -->
<g id="node29" class="node"><title>28</title>
<ellipse fill="#787878" stroke="black" cx="171.02" cy="-212.101" rx="3.5" ry="3.5"/>
</g>
<!-- 2&#45;&gt;28 -->
<g id="edge28" class="edge"><title>2&#45;&gt;28</title>
<path fill="none" stroke="black" d="M141.654,-215.411C152.272,-214.215 162.17,-213.099 167.32,-212.518"/>
</g>
<!-- 29 -->
<g id="node30" class="node"><title>29</title>
<ellipse fill="#787878" stroke="black" cx="121.7" cy="-294.083" rx="3.5" ry="3.5"/>
</g>
<!-- 2&#45;&gt;29 -->
<g id="edge29" class="edge"><title>2&#45;&gt;29</title>
<path fill="none" stroke="black" d="M111.992,-259.651C115.561,-272.308 119.014,-284.558 120.675,-290.447"/>
</g>
<!-- anon_2_25_0 -->
<g id="node67" class="node"><title>anon_2_25_0</title>
<ellipse fill="white" stroke="black" cx="180.231" cy="-157.063" rx="2.5" ry="2.5"/>
</g>
<!-- 2&#45;&gt;anon_2_25_0 -->
<g id="edge25" class="edge"><title>2&#45;&gt;anon_2_25_0</title>
<path fill="none" stroke="black" d="M133.118,-194.41C151.325,-179.977 171.686,-163.837 178.147,-158.715"/>
</g>
<!-- 21 -->
<g id="node22" class="node"><title>21</title>
<ellipse fill="palegreen" stroke="black" cx="11.6695" cy="-79.4358" rx="3.5" ry="3.5"/>
</g>
<!-- 4&#45;&gt;21 -->
<g id="edge32" class="edge"><title>4&#45;&gt;21</title>
<path fill="none" stroke="black" d="M56.4161,-96.0142C43.2855,-91.1493 23.3603,-83.7671 15.2714,-80.7702"/>
</g>
<!-- anon_4_16_0 -->
<g id="node68" class="node"><title>anon_4_16_0</title>
<ellipse fill="white" stroke="black" cx="88.0754" cy="-46.5657" rx="2.5" ry="2.5"/>
</g>
<!-- 4&#45;&gt;anon_4_16_0 -->
<g id="edge30" class="edge"><title>4&#45;&gt;anon_4_16_0</title>
<path fill="none" stroke="black" d="M73.1863,-88.3452C77.8032,-75.39 84.7467,-55.906 87.1883,-49.0549"/>
</g>
<!-- 6 -->
<g id="node7" class="node"><title>6</title>
<ellipse fill="palegreen" stroke="black" cx="102.598" cy="78.8413" rx="3.5" ry="3.5"/>
</g>
<!-- 8 -->
<g id="node9" class="node"><title>8</title>
<ellipse fill="palegreen" stroke="black" cx="-104.47" cy="179.204" rx="5" ry="5"/>
</g>
<!-- 8&#45;&gt;9 -->
<g id="edge33" class="edge"><title>8&#45;&gt;9</title>
<path fill="none" stroke="black" d="M-99.8237,176.689C-91.8904,172.395 -75.642,163.601 -65.8332,158.292"/>
</g>
<!-- 8&#45;&gt;12 -->
<g id="edge70" class="edge"><title>8&#45;&gt;12</title>
<path fill="none" stroke="black" stroke-dasharray="5,2" d="M-104.319,174.109C-104.028,164.299 -103.393,142.892 -103.102,133.098"/>
</g>
<!-- 15 -->
<g id="node16" class="node"><title>15</title>
<ellipse fill="palegreen" stroke="black" cx="-70.465" cy="-177.422" rx="3.5" ry="3.5"/>
</g>
<!-- 16 -->
<g id="node17" class="node"><title>16</title>
<ellipse fill="palegreen" stroke="black" cx="98.715" cy="-3.68979" rx="3.5" ry="3.5"/>
</g>
<!-- 26 -->
<g id="node27" class="node"><title>26</title>
<ellipse fill="#787878" stroke="black" cx="257.735" cy="-285.969" rx="3.5" ry="3.5"/>
</g>
<!-- 23&#45;&gt;26 -->
<g id="edge34" class="edge"><title>23&#45;&gt;26</title>
<path fill="none" stroke="black" d="M212.277,-289.725C225.287,-288.65 245.714,-286.962 254.029,-286.275"/>
</g>
<!-- 30 -->
<g id="node31" class="node"><title>30</title>
<ellipse fill="#787878" stroke="black" cx="211.66" cy="-347.084" rx="3.5" ry="3.5"/>
</g>
<!-- 23&#45;&gt;30 -->
<g id="edge35" class="edge"><title>23&#45;&gt;30</title>
<path fill="none" stroke="black" d="M202.953,-302.093C205.445,-314.969 209.358,-335.187 210.95,-343.415"/>
</g>
<!-- 25 -->
<g id="node26" class="node"><title>25</title>
<ellipse fill="#787878" stroke="black" cx="221.081" cy="-135.665" rx="3.5" ry="3.5"/>
</g>
<!-- 31 -->
<g id="node32" class="node"><title>31</title>
<ellipse fill="#1874cd" stroke="black" cx="-188.324" cy="-395.547" rx="18.5" ry="18.5"/>
</g>
<!-- 44 -->
<g id="node45" class="node"><title>44</title>
<ellipse fill="#1874cd" stroke="black" cx="-187.333" cy="-327.015" rx="6" ry="6"/>
</g>
<!-- 31&#45;&gt;44 -->
<g id="edge36" class="edge"><title>31&#45;&gt;44</title>
<path fill="none" stroke="black" d="M-188.053,-376.82C-187.842,-362.236 -187.563,-342.887 -187.422,-333.157"/>
</g>
<!-- anon_31_45_0 -->
<g id="node69" class="node"><title>anon_31_45_0</title>
<ellipse fill="white" stroke="black" cx="-128.064" cy="-417.245" rx="2.5" ry="2.5"/>
</g>
<!-- 31&#45;&gt;anon_31_45_0 -->
<g id="edge37" class="edge"><title>31&#45;&gt;anon_31_45_0</title>
<path fill="none" stroke="black" d="M-170.894,-401.823C-156.434,-407.03 -137.197,-413.957 -130.491,-416.371"/>
</g>
<!-- 32 -->
<g id="node33" class="node"><title>32</title>
<ellipse fill="#1874cd" stroke="black" cx="-117.566" cy="-210.947" rx="3.5" ry="3.5"/>
</g>
<!-- anon_32_33_0 -->
<g id="node70" class="node"><title>anon_32_33_0</title>
<ellipse fill="white" stroke="black" cx="-127.359" cy="-252.793" rx="2.5" ry="2.5"/>
</g>
<!-- 32&#45;&gt;anon_32_33_0 -->
<g id="edge39" class="edge"><title>32&#45;&gt;anon_32_33_0</title>
<path fill="none" stroke="black" d="M-118.401,-214.514C-120.325,-222.737 -125.036,-242.868 -126.735,-250.128"/>
</g>
<!-- 33 -->
<g id="node34" class="node"><title>33</title>
<ellipse fill="#1874cd" stroke="black" cx="-134.042" cy="-303.079" rx="9" ry="9"/>
</g>
<!-- 33&#45;&gt;44 -->
<g id="edge41" class="edge"><title>33&#45;&gt;44</title>
<path fill="none" stroke="black" d="M-142.368,-306.819C-153.376,-311.763 -172.466,-320.337 -181.831,-324.544"/>
</g>
<!-- anon_33_45_0 -->
<g id="node78" class="node"><title>anon_33_45_0</title>
<ellipse fill="white" stroke="black" cx="-94.8921" cy="-339.713" rx="2.5" ry="2.5"/>
</g>
<!-- 33&#45;&gt;anon_33_45_0 -->
<g id="edge71" class="edge"><title>33&#45;&gt;anon_33_45_0</title>
<path fill="none" stroke="black" stroke-dasharray="5,2" d="M-127.222,-309.461C-118.109,-317.988 -102.462,-332.63 -96.9145,-337.821"/>
</g>
<!-- 34 -->
<g id="node35" class="node"><title>34</title>
<ellipse fill="#1874cd" stroke="black" cx="368.836" cy="-359.743" rx="10" ry="10"/>
</g>
<!-- 46 -->
<g id="node47" class="node"><title>46</title>
<ellipse fill="#1874cd" stroke="black" cx="388.343" cy="-296.434" rx="6" ry="6"/>
</g>
<!-- 34&#45;&gt;46 -->
<g id="edge44" class="edge"><title>34&#45;&gt;46</title>
<path fill="none" stroke="black" d="M371.798,-350.127C375.891,-336.845 383.151,-313.283 386.526,-302.333"/>
</g>
<!-- anon_34_36_0 -->
<g id="node71" class="node"><title>anon_34_36_0</title>
<ellipse fill="white" stroke="black" cx="423.494" cy="-378.053" rx="2.5" ry="2.5"/>
</g>
<!-- 34&#45;&gt;anon_34_36_0 -->
<g id="edge42" class="edge"><title>34&#45;&gt;anon_34_36_0</title>
<path fill="none" stroke="black" d="M378.356,-362.932C391.325,-367.276 413.769,-374.795 421.101,-377.251"/>
</g>
<!-- anon_34_48_0 -->
<g id="node72" class="node"><title>anon_34_48_0</title>
<ellipse fill="white" stroke="black" cx="361.226" cy="-419.09" rx="2.5" ry="2.5"/>
</g>
<!-- 34&#45;&gt;anon_34_48_0 -->
<g id="edge45" class="edge"><title>34&#45;&gt;anon_34_48_0</title>
<path fill="none" stroke="black" d="M367.545,-369.81C365.747,-383.832 362.593,-408.426 361.562,-416.466"/>
</g>
<!-- anon_34_50_0 -->
<g id="node74" class="node"><title>anon_34_50_0</title>
<ellipse fill="white" stroke="black" cx="310.895" cy="-355.195" rx="2.5" ry="2.5"/>
</g>
<!-- 34&#45;&gt;anon_34_50_0 -->
<g id="edge48" class="edge"><title>34&#45;&gt;anon_34_50_0</title>
<path fill="none" stroke="black" d="M358.743,-358.951C344.996,-357.872 321.204,-356.004 313.431,-355.394"/>
</g>
<!-- 35 -->
<g id="node36" class="node"><title>35</title>
<ellipse fill="#1874cd" stroke="black" cx="-17" cy="-98" rx="6" ry="6"/>
</g>
<!-- 36 -->
<g id="node37" class="node"><title>36</title>
<ellipse fill="#1874cd" stroke="black" cx="482.329" cy="-378.541" rx="3.5" ry="3.5"/>
</g>
<!-- anon_36_37_0 -->
<g id="node79" class="node"><title>anon_36_37_0</title>
<ellipse fill="white" stroke="black" cx="497.399" cy="-330.675" rx="2.5" ry="2.5"/>
</g>
<!-- 36&#45;&gt;anon_36_37_0 -->
<g id="edge73" class="edge"><title>36&#45;&gt;anon_36_37_0</title>
<path fill="none" stroke="black" stroke-dasharray="5,2" d="M483.413,-375.099C486.275,-366.01 493.988,-341.509 496.555,-333.356"/>
</g>
<!-- anon_36_48_0 -->
<g id="node80" class="node"><title>anon_36_48_0</title>
<ellipse fill="white" stroke="black" cx="508.183" cy="-422.831" rx="2.5" ry="2.5"/>
</g>
<!-- 36&#45;&gt;anon_36_48_0 -->
<g id="edge75" class="edge"><title>36&#45;&gt;anon_36_48_0</title>
<path fill="none" stroke="black" stroke-dasharray="5,2" d="M484.189,-381.726C489.098,-390.136 502.331,-412.806 506.735,-420.351"/>
</g>
<!-- 37 -->
<g id="node38" class="node"><title>37</title>
<ellipse fill="#1874cd" stroke="black" cx="454.482" cy="-291.214" rx="12" ry="12"/>
</g>
<!-- 41 -->
<g id="node42" class="node"><title>41</title>
<ellipse fill="#1874cd" stroke="black" cx="444.217" cy="-236.082" rx="3.5" ry="3.5"/>
</g>
<!-- 37&#45;&gt;41 -->
<g id="edge50" class="edge"><title>37&#45;&gt;41</title>
<path fill="none" stroke="black" d="M452.254,-279.251C449.896,-266.583 446.317,-247.36 444.864,-239.557"/>
</g>
<!-- 42 -->
<g id="node43" class="node"><title>42</title>
<ellipse fill="#1874cd" stroke="black" cx="495.643" cy="-237.129" rx="7" ry="7"/>
</g>
<!-- 37&#45;&gt;42 -->
<g id="edge51" class="edge"><title>37&#45;&gt;42</title>
<path fill="none" stroke="black" d="M462.031,-281.294C470.572,-270.071 484.199,-252.166 491.189,-242.981"/>
</g>
<!-- 43 -->
<g id="node44" class="node"><title>43</title>
<ellipse fill="#1874cd" stroke="black" cx="396.718" cy="-260.952" rx="5" ry="5"/>
</g>
<!-- 37&#45;&gt;43 -->
<g id="edge52" class="edge"><title>37&#45;&gt;43</title>
<path fill="none" stroke="black" d="M443.617,-285.522C430.937,-278.879 410.542,-268.194 401.407,-263.408"/>
</g>
<!-- 37&#45;&gt;46 -->
<g id="edge53" class="edge"><title>37&#45;&gt;46</title>
<path fill="none" stroke="black" d="M442.351,-292.171C428.18,-293.29 405.294,-295.096 394.436,-295.953"/>
</g>
<!-- 47 -->
<g id="node48" class="node"><title>47</title>
<ellipse fill="#1874cd" stroke="black" cx="513.079" cy="-271.769" rx="3.5" ry="3.5"/>
</g>
<!-- 37&#45;&gt;47 -->
<g id="edge54" class="edge"><title>37&#45;&gt;47</title>
<path fill="none" stroke="black" d="M466.059,-287.372C479.667,-282.856 501.445,-275.629 509.731,-272.879"/>
</g>
<!-- anon_37_48_0 -->
<g id="node82" class="node"><title>anon_37_48_0</title>
<ellipse fill="white" stroke="black" cx="459.098" cy="-348.507" rx="2.5" ry="2.5"/>
</g>
<!-- 37&#45;&gt;anon_37_48_0 -->
<g id="edge78" class="edge"><title>37&#45;&gt;anon_37_48_0</title>
<path fill="none" stroke="black" stroke-dasharray="5,2" d="M455.461,-303.364C456.562,-317.029 458.275,-338.29 458.879,-345.783"/>
</g>
<!-- 38 -->
<g id="node39" class="node"><title>38</title>
<ellipse fill="#1874cd" stroke="black" cx="396.983" cy="-235.815" rx="3.5" ry="3.5"/>
</g>
<!-- 38&#45;&gt;41 -->
<g id="edge55" class="edge"><title>38&#45;&gt;41</title>
<path fill="none" stroke="black" d="M400.689,-235.836C409.562,-235.886 431.934,-236.012 440.657,-236.062"/>
</g>
<!-- 38&#45;&gt;46 -->
<g id="edge81" class="edge"><title>38&#45;&gt;46</title>
<path fill="none" stroke="black" stroke-dasharray="5,2" d="M396.468,-239.425C395.044,-249.417 391.038,-277.526 389.238,-290.154"/>
</g>
<!-- 39 -->
<g id="node40" class="node"><title>39</title>
<ellipse fill="#1874cd" stroke="black" cx="72" cy="112" rx="3.5" ry="3.5"/>
</g>
<!-- 40 -->
<g id="node41" class="node"><title>40</title>
<path fill="#1874cd" stroke="black" stroke-width="0.5" d="M271.684,57.0149C271.684,57.0149 298.184,57.0149 298.184,57.0149 298.184,56.0055 298.126,54.9969 298.011,53.9941 297.896,52.9913 297.724,51.9959 297.495,51.0127 297.267,50.0296 296.982,49.0603 296.643,48.1096 296.304,47.1589 295.91,46.2284 295.465,45.3225 295.02,44.4167 294.523,43.5371 293.977,42.6879 293.431,41.8388 292.838,41.0215 292.199,40.2401 291.56,39.4587 290.877,38.7144 290.153,38.0109 289.429,37.3074 288.665,36.6459 287.866,36.0295 287.866,36.0295 271.684,57.0149 271.684,57.0149"/>
<path fill="olivedrab" stroke="black" stroke-width="0.5" d="M271.684,57.0149C271.684,57.0149 287.866,36.0295 287.866,36.0295 287.279,35.5769 286.673,35.1491 286.051,34.7473 285.428,34.3455 284.788,33.97 284.134,33.6217 283.48,33.2735 282.811,32.9529 282.13,32.6607 281.449,32.3685 280.756,32.1051 280.053,31.871 279.349,31.637 278.637,31.4325 277.916,31.2582 277.196,31.0839 276.468,30.9399 275.736,30.8265 275.003,30.7132 274.267,30.6306 273.527,30.5791 272.788,30.5275 272.047,30.507 271.305,30.5176 270.564,30.5282 269.824,30.5699 269.086,30.6425 268.349,30.7152 267.615,30.8187 266.886,30.9529 266.157,31.0871 265.434,31.2518 264.719,31.4467 264.004,31.6415 263.297,31.8662 262.601,32.1202 261.904,32.3743 261.219,32.6575 260.546,32.969 259.874,33.2805 259.215,33.62 258.571,33.9868 257.927,34.3536 257.298,34.7472 256.687,35.1666 256.076,35.5861 255.483,36.031 254.909,36.5002 254.335,36.9693 253.781,37.4624 253.249,37.978 252.717,38.4936 252.206,39.0313 251.719,39.5897 251.231,40.1481 250.768,40.7267 250.329,41.324 249.89,41.9213 249.476,42.5367 249.089,43.1687 248.702,43.8007 248.341,44.4486 248.008,45.1108 247.675,45.773 247.37,46.4488 247.094,47.1366 246.818,47.8243 246.57,48.5234 246.353,49.2319 246.135,49.9404 245.947,50.6577 245.789,51.3819 245.632,52.1062 245.505,52.8367 245.409,53.5716 245.312,54.3065 245.247,55.0451 245.212,55.7855 245.178,56.5259 245.175,57.2674 245.203,58.008 245.23,58.7487 245.289,59.4878 245.379,60.2236 245.469,60.9593 245.589,61.6909 245.74,62.4166 245.891,63.1422 246.073,63.8611 246.284,64.5715 246.495,65.2819 246.737,65.9832 247.007,66.6734 247.277,67.3636 247.576,68.0421 247.903,68.7073 248.23,69.3724 248.585,70.0235 248.966,70.6589 249.348,71.2943 249.756,71.9134 250.189,72.5146 250.623,73.1158 251.082,73.6985 251.564,74.2612 252.046,74.824 252.552,75.3662 253.08,75.8865 253.608,76.4069 254.157,76.9049 254.727,77.3791 255.296,77.8534 255.885,78.3036 256.493,78.7285 257.1,79.1533 257.725,79.5526 258.366,79.9251 259.006,80.2976 259.663,80.643 260.332,80.9605 261.002,81.278 261.685,81.5672 262.379,81.8275 263.073,82.0878 263.777,82.3188 264.491,82.52 265.204,82.7212 265.926,82.8923 266.653,83.033 267.381,83.1737 268.114,83.2838 268.851,83.3631 269.588,83.4423 270.328,83.4906 271.069,83.5078 271.81,83.525 272.551,83.5111 273.291,83.4661 274.031,83.4212 274.769,83.3452 275.502,83.2384 276.235,83.1316 276.964,82.9941 277.686,82.8262 278.408,82.6583 279.123,82.4603 279.828,82.2325 280.533,82.0047 281.229,81.7474 281.912,81.4614 282.596,81.1753 283.268,80.8606 283.925,80.5183 284.582,80.1759 285.225,79.8061 285.851,79.4098 286.478,79.0136 287.087,78.5912 287.678,78.1439 288.269,77.6966 288.841,77.2246 289.392,76.7293 289.944,76.234 290.474,75.7158 290.982,75.1761 291.49,74.6363 291.975,74.0755 292.436,73.4951 292.897,72.9147 293.333,72.3152 293.744,71.6982 294.155,71.0812 294.539,70.4472 294.897,69.798 295.254,69.1487 295.585,68.4848 295.886,67.8078 296.188,67.1309 296.462,66.4416 296.706,65.7418 296.95,65.0419 297.164,64.3322 297.349,63.6144 297.534,62.8965 297.688,62.1713 297.812,61.4405 297.936,60.7097 298.029,59.9741 298.091,59.2355 298.153,58.4969 298.184,57.7561 298.184,57.0149 298.184,57.0149 271.684,57.0149 271.684,57.0149"/>
<ellipse fill="none" stroke="black" cx="271.684" cy="57.0149" rx="26.5" ry="26.5"/>
</g>
<!-- 52 -->
<g id="node53" class="node"><title>52</title>
<ellipse fill="olivedrab" stroke="black" cx="189.11" cy="82.9832" rx="9" ry="9"/>
</g>
<!-- 40&#45;&gt;52 -->
<g id="edge56" class="edge"><title>40&#45;&gt;52</title>
<path fill="none" stroke="black" d="M246.01,65.0891C229.534,70.2704 209.169,76.675 197.813,80.2464"/>
</g>
<!-- 55 -->
<g id="node56" class="node"><title>55</title>
<ellipse fill="olivedrab" stroke="black" cx="186.258" cy="19.9718" rx="11" ry="11"/>
</g>
<!-- 40&#45;&gt;55 -->
<g id="edge57" class="edge"><title>40&#45;&gt;55</title>
<path fill="none" stroke="black" d="M246.975,46.3005C230.221,39.0355 208.943,29.8089 196.538,24.4297"/>
</g>
<!-- 56 -->
<g id="node57" class="node"><title>56</title>
<ellipse fill="olivedrab" stroke="black" cx="240.999" cy="-8.50086" rx="3.5" ry="3.5"/>
</g>
<!-- 40&#45;&gt;56 -->
<g id="edge58" class="edge"><title>40&#45;&gt;56</title>
<path fill="none" stroke="black" d="M260.432,32.9913C253.727,18.6755 245.898,1.95882 242.596,-5.09073"/>
</g>
<!-- 57 -->
<g id="node58" class="node"><title>57</title>
<ellipse fill="olivedrab" stroke="black" cx="233" cy="122.647" rx="3.5" ry="3.5"/>
</g>
<!-- 40&#45;&gt;57 -->
<g id="edge59" class="edge"><title>40&#45;&gt;57</title>
<path fill="none" stroke="black" d="M258.154,79.9697C249.439,94.7559 238.988,112.487 234.833,119.536"/>
</g>
<!-- 58 -->
<g id="node59" class="node"><title>58</title>
<ellipse fill="olivedrab" stroke="black" cx="344.735" cy="63.1999" rx="3.5" ry="3.5"/>
</g>
<!-- 40&#45;&gt;58 -->
<g id="edge60" class="edge"><title>40&#45;&gt;58</title>
<path fill="none" stroke="black" d="M298.471,59.2829C314.433,60.6343 333.072,62.2125 340.933,62.878"/>
</g>
<!-- 60 -->
<g id="node61" class="node"><title>60</title>
<ellipse fill="olivedrab" stroke="black" cx="334.875" cy="107.664" rx="3.5" ry="3.5"/>
</g>
<!-- 40&#45;&gt;60 -->
<g id="edge65" class="edge"><title>40&#45;&gt;60</title>
<path fill="none" stroke="black" d="M292.375,73.5992C306.773,85.1393 324.614,99.4392 331.73,105.143"/>
</g>
<!-- 61 -->
<g id="node62" class="node"><title>61</title>
<ellipse fill="olivedrab" stroke="black" cx="296.244" cy="132.9" rx="3.5" ry="3.5"/>
</g>
<!-- 40&#45;&gt;61 -->
<g id="edge66" class="edge"><title>40&#45;&gt;61</title>
<path fill="none" stroke="black" d="M279.862,82.2835C285.444,99.5295 292.303,120.722 295.037,129.169"/>
</g>
<!-- anon_40_59_0 -->
<g id="node75" class="node"><title>anon_40_59_0</title>
<ellipse fill="white" stroke="black" cx="315.067" cy="-10.2513" rx="2.5" ry="2.5"/>
</g>
<!-- 40&#45;&gt;anon_40_59_0 -->
<g id="edge61" class="edge"><title>40&#45;&gt;anon_40_59_0</title>
<path fill="none" stroke="black" d="M286.13,34.6162C296.383,18.7174 309.078,-0.965381 313.478,-7.78749"/>
</g>
<!-- 49 -->
<g id="node50" class="node"><title>49</title>
<ellipse fill="#1874cd" stroke="black" cx="343.91" cy="-267.549" rx="5" ry="5"/>
</g>
<!-- 43&#45;&gt;49 -->
<g id="edge67" class="edge"><title>43&#45;&gt;49</title>
<path fill="none" stroke="black" d="M391.462,-261.609C381.339,-262.873 359.251,-265.632 349.145,-266.895"/>
</g>
<!-- 45 -->
<g id="node46" class="node"><title>45</title>
<ellipse fill="#1874cd" stroke="black" cx="-94.4208" cy="-385.66" rx="3.5" ry="3.5"/>
</g>
<!-- 46&#45;&gt;49 -->
<g id="edge82" class="edge"><title>46&#45;&gt;49</title>
<path fill="none" stroke="black" stroke-dasharray="5,2" d="M383.246,-293.12C374.493,-287.43 356.743,-275.891 348.415,-270.477"/>
</g>
<!-- 48 -->
<g id="node49" class="node"><title>48</title>
<ellipse fill="#1874cd" stroke="black" cx="441.541" cy="-450.827" rx="3.5" ry="3.5"/>
</g>
<!-- anon_49_50_0 -->
<g id="node84" class="node"><title>anon_49_50_0</title>
<ellipse fill="white" stroke="black" cx="295.59" cy="-274.613" rx="2.5" ry="2.5"/>
</g>
<!-- 49&#45;&gt;anon_49_50_0 -->
<g id="edge83" class="edge"><title>49&#45;&gt;anon_49_50_0</title>
<path fill="none" stroke="black" stroke-dasharray="5,2" d="M338.739,-268.305C328.611,-269.786 306.456,-273.025 298.504,-274.187"/>
</g>
<!-- 50 -->
<g id="node51" class="node"><title>50</title>
<ellipse fill="#1874cd" stroke="black" cx="279.215" cy="-320.215" rx="3.5" ry="3.5"/>
</g>
<!-- 51 -->
<g id="node52" class="node"><title>51</title>
<ellipse fill="olivedrab" stroke="black" cx="188.053" cy="134.364" rx="3.5" ry="3.5"/>
</g>
<!-- 51&#45;&gt;52 -->
<g id="edge68" class="edge"><title>51&#45;&gt;52</title>
<path fill="none" stroke="black" d="M188.129,130.668C188.294,122.661 188.688,103.509 188.923,92.0618"/>
</g>
<!-- 51&#45;&gt;57 -->
<g id="edge85" class="edge"><title>51&#45;&gt;57</title>
<path fill="none" stroke="black" stroke-dasharray="5,2" d="M191.58,133.444C200.024,131.243 221.312,125.694 229.613,123.53"/>
</g>
<!-- 54 -->
<g id="node55" class="node"><title>54</title>
<ellipse fill="olivedrab" stroke="black" cx="142.599" cy="54.3112" rx="5" ry="5"/>
</g>
<!-- 52&#45;&gt;54 -->
<g id="edge69" class="edge"><title>52&#45;&gt;54</title>
<path fill="none" stroke="black" d="M181.43,78.2486C171.625,72.2045 154.985,61.9464 147.056,57.0588"/>
</g>
<!-- 53 -->
<g id="node54" class="node"><title>53</title>
<ellipse fill="olivedrab" stroke="black" cx="118" cy="112" rx="3.5" ry="3.5"/>
</g>
<!-- 54&#45;&gt;55 -->
<g id="edge86" class="edge"><title>54&#45;&gt;55</title>
<path fill="none" stroke="black" stroke-dasharray="5,2" d="M146.628,51.1422C153.637,45.6298 168.219,34.16 177.606,26.7767"/>
</g>
<!-- 59 -->
<g id="node60" class="node"><title>59</title>
<ellipse fill="olivedrab" stroke="black" cx="375.845" cy="-123.685" rx="3.5" ry="3.5"/>
</g>
<!-- anon_0_6_0&#45;&gt;6 -->
<g id="edge5" class="edge"><title>anon_0_6_0&#45;&gt;6</title>
<path fill="none" stroke="black" d="M59.8447,69.8935C67.6436,71.5257 90.1617,76.2386 98.9879,78.0858"/>
</g>
<!-- anon_0_15_1 -->
<g id="node65" class="node"><title>anon_0_15_1</title>
<ellipse fill="white" stroke="black" cx="-68.9738" cy="-91.2433" rx="2.5" ry="2.5"/>
</g>
<!-- anon_0_15_0&#45;&gt;anon_0_15_1 -->
<g id="edge13" class="edge"><title>anon_0_15_0&#45;&gt;anon_0_15_1</title>
<path fill="none" stroke="black" d="M-60.2352,-49.736C-61.8918,-57.6046 -66.7975,-80.9061 -68.4349,-88.6836"/>
</g>
<!-- anon_0_15_2 -->
<g id="node66" class="node"><title>anon_0_15_2</title>
<ellipse fill="white" stroke="black" cx="-74.1025" cy="-134.128" rx="2.5" ry="2.5"/>
</g>
<!-- anon_0_15_1&#45;&gt;anon_0_15_2 -->
<g id="edge14" class="edge"><title>anon_0_15_1&#45;&gt;anon_0_15_2</title>
<path fill="none" stroke="black" d="M-69.2793,-93.7975C-70.1936,-101.443 -72.9013,-124.084 -73.8051,-131.64"/>
</g>
<!-- anon_0_15_2&#45;&gt;15 -->
<g id="edge15" class="edge"><title>anon_0_15_2&#45;&gt;15</title>
<path fill="none" stroke="black" d="M-73.8859,-136.706C-73.268,-144.061 -71.4953,-165.159 -70.775,-173.733"/>
</g>
<!-- anon_2_25_0&#45;&gt;25 -->
<g id="edge26" class="edge"><title>anon_2_25_0&#45;&gt;25</title>
<path fill="none" stroke="black" d="M182.911,-155.659C190.153,-151.866 210.092,-141.422 217.893,-137.336"/>
</g>
<!-- anon_4_16_0&#45;&gt;16 -->
<g id="edge31" class="edge"><title>anon_4_16_0&#45;&gt;16</title>
<path fill="none" stroke="black" d="M88.7091,-44.012C90.5343,-36.6565 95.8044,-15.4188 97.8701,-7.09451"/>
</g>
<!-- anon_31_45_0&#45;&gt;45 -->
<g id="edge38" class="edge"><title>anon_31_45_0&#45;&gt;45</title>
<path fill="none" stroke="black" d="M-125.857,-415.173C-119.892,-409.573 -103.472,-394.157 -97.0467,-388.125"/>
</g>
<!-- anon_32_33_0&#45;&gt;33 -->
<g id="edge40" class="edge"><title>anon_32_33_0&#45;&gt;33</title>
<path fill="none" stroke="black" d="M-127.718,-255.497C-128.672,-262.678 -131.303,-282.475 -132.855,-294.147"/>
</g>
<!-- anon_34_36_0&#45;&gt;36 -->
<g id="edge43" class="edge"><title>anon_34_36_0&#45;&gt;36</title>
<path fill="none" stroke="black" d="M426.022,-378.074C435.348,-378.151 467.843,-378.421 478.737,-378.511"/>
</g>
<!-- anon_34_48_1 -->
<g id="node73" class="node"><title>anon_34_48_1</title>
<ellipse fill="white" stroke="black" cx="392.101" cy="-455.455" rx="2.5" ry="2.5"/>
</g>
<!-- anon_34_48_0&#45;&gt;anon_34_48_1 -->
<g id="edge46" class="edge"><title>anon_34_48_0&#45;&gt;anon_34_48_1</title>
<path fill="none" stroke="black" d="M362.886,-421.045C368.197,-427.3 384.747,-446.793 390.279,-453.309"/>
</g>
<!-- anon_34_48_1&#45;&gt;48 -->
<g id="edge47" class="edge"><title>anon_34_48_1&#45;&gt;48</title>
<path fill="none" stroke="black" d="M394.759,-455.206C403.023,-454.433 428.279,-452.068 437.83,-451.174"/>
</g>
<!-- anon_34_50_0&#45;&gt;50 -->
<g id="edge49" class="edge"><title>anon_34_50_0&#45;&gt;50</title>
<path fill="none" stroke="black" d="M309.192,-353.315C303.948,-347.525 288.026,-329.944 281.774,-323.041"/>
</g>
<!-- anon_40_59_1 -->
<g id="node76" class="node"><title>anon_40_59_1</title>
<ellipse fill="white" stroke="black" cx="340.471" cy="-46.1957" rx="2.5" ry="2.5"/>
</g>
<!-- anon_40_59_0&#45;&gt;anon_40_59_1 -->
<g id="edge62" class="edge"><title>anon_40_59_0&#45;&gt;anon_40_59_1</title>
<path fill="none" stroke="black" d="M316.733,-12.6097C321.414,-19.2319 334.621,-37.9191 339.023,-44.1472"/>
</g>
<!-- anon_40_59_2 -->
<g id="node77" class="node"><title>anon_40_59_2</title>
<ellipse fill="white" stroke="black" cx="363.06" cy="-82.4218" rx="2.5" ry="2.5"/>
</g>
<!-- anon_40_59_1&#45;&gt;anon_40_59_2 -->
<g id="edge63" class="edge"><title>anon_40_59_1&#45;&gt;anon_40_59_2</title>
<path fill="none" stroke="black" d="M341.953,-48.5726C346.036,-55.1208 357.418,-73.374 361.543,-79.9887"/>
</g>
<!-- anon_40_59_2&#45;&gt;59 -->
<g id="edge64" class="edge"><title>anon_40_59_2&#45;&gt;59</title>
<path fill="none" stroke="black" d="M363.899,-85.1292C366.121,-92.3011 372.162,-111.8 374.699,-119.987"/>
</g>
<!-- anon_33_45_0&#45;&gt;45 -->
<g id="edge72" class="edge"><title>anon_33_45_0&#45;&gt;45</title>
<path fill="none" stroke="black" stroke-dasharray="5,2" d="M-94.864,-342.45C-94.7832,-350.332 -94.5497,-373.091 -94.4582,-382.012"/>
</g>
<!-- anon_36_37_0&#45;&gt;37 -->
<g id="edge74" class="edge"><title>anon_36_37_0&#45;&gt;37</title>
<path fill="none" stroke="black" stroke-dasharray="5,2" d="M495.555,-328.98C490.1,-323.964 473.777,-308.956 463.426,-299.438"/>
</g>
<!-- anon_36_48_1 -->
<g id="node81" class="node"><title>anon_36_48_1</title>
<ellipse fill="white" stroke="black" cx="486.905" cy="-465.064" rx="2.5" ry="2.5"/>
</g>
<!-- anon_36_48_0&#45;&gt;anon_36_48_1 -->
<g id="edge76" class="edge"><title>anon_36_48_0&#45;&gt;anon_36_48_1</title>
<path fill="none" stroke="black" stroke-dasharray="5,2" d="M507.039,-425.101C503.379,-432.366 491.973,-455.004 488.16,-462.572"/>
</g>
<!-- anon_36_48_1&#45;&gt;48 -->
<g id="edge77" class="edge"><title>anon_36_48_1&#45;&gt;48</title>
<path fill="none" stroke="black" stroke-dasharray="5,2" d="M484.466,-464.298C476.884,-461.919 453.709,-454.646 444.946,-451.895"/>
</g>
<!-- anon_37_48_1 -->
<g id="node83" class="node"><title>anon_37_48_1</title>
<ellipse fill="white" stroke="black" cx="455.814" cy="-402.248" rx="2.5" ry="2.5"/>
</g>
<!-- anon_37_48_0&#45;&gt;anon_37_48_1 -->
<g id="edge79" class="edge"><title>anon_37_48_0&#45;&gt;anon_37_48_1</title>
<path fill="none" stroke="black" stroke-dasharray="5,2" d="M458.94,-351.1C458.386,-360.157 456.541,-390.344 455.978,-399.556"/>
</g>
<!-- anon_37_48_1&#45;&gt;48 -->
<g id="edge80" class="edge"><title>anon_37_48_1&#45;&gt;48</title>
<path fill="none" stroke="black" stroke-dasharray="5,2" d="M455.046,-404.86C452.637,-413.058 445.227,-438.28 442.533,-447.449"/>
</g>
<!-- anon_49_50_0&#45;&gt;50 -->
<g id="edge84" class="edge"><title>anon_49_50_0&#45;&gt;50</title>
<path fill="none" stroke="black" stroke-dasharray="5,2" d="M294.71,-277.065C291.973,-284.687 283.608,-307.983 280.445,-316.792"/>
</g>
</g>
</svg>
