<?xml version="1.0" encoding="UTF-8" standalone="no"?>
<!DOCTYPE svg PUBLIC "-//W3C//DTD SVG 1.1//EN"
 "http://www.w3.org/Graphics/SVG/1.1/DTD/svg11.dtd">
<!-- Generated by graphviz version 2.38.0 (20140413.2041)
 -->
<!-- Title: %3 Pages: 1 -->
<svg width="635pt" height="460pt"
 viewBox="0.00 0.00 634.71 459.84" xmlns="http://www.w3.org/2000/svg" xmlns:xlink="http://www.w3.org/1999/xlink">
<g id="graph0" class="graph" transform="scale(1 1) rotate(0) translate(372.957 285.606)">
<title>%3</title>
<polygon fill="white" stroke="none" points="-372.957,174.236 -372.957,-285.606 261.748,-285.606 261.748,174.236 -372.957,174.236"/>
<!-- 0 -->
<g id="node1" class="node"><title>0</title>
<path fill="#98f5ff" stroke="black" stroke-width="0.5" d="M-125.711,44.7415C-125.711,44.7415 -100.211,44.7415 -100.211,44.7415 -100.211,44.0071 -100.243,43.2729 -100.306,42.5412 -100.37,41.8095 -100.465,41.0808 -100.591,40.3573 -100.717,39.6338 -100.875,38.9161 -101.063,38.2061 -101.251,37.4962 -101.47,36.7947 -101.719,36.1037 -101.968,35.4127 -102.246,34.7327 -102.554,34.0657 -102.861,33.3987 -103.197,32.7453 -103.561,32.1073 -103.925,31.4693 -104.316,30.8474 -104.734,30.2432 -105.152,29.639 -105.595,29.0531 -106.063,28.4872 -106.531,27.9213 -107.024,27.3759 -107.539,26.8525 -108.054,26.3291 -108.592,25.8282 -109.15,25.3512 -109.709,24.8742 -110.288,24.4215 -110.885,23.9945 -111.483,23.5675 -112.099,23.1665 -112.731,22.7926 -113.363,22.4187 -114.011,22.0723 -114.673,21.7544 -115.335,21.4365 -116.011,21.1473 -116.698,20.8877 -117.385,20.6281 -118.083,20.3983 -118.79,20.1989 -119.496,19.9995 -120.212,19.8308 -120.933,19.6932 -120.933,19.6932 -125.711,44.7415 -125.711,44.7415"/>
<path fill="deepskyblue" stroke="black" stroke-width="0.5" d="M-125.711,44.7415C-125.711,44.7415 -120.933,19.6932 -120.933,19.6932 -122.212,19.4491 -123.509,19.3035 -124.81,19.2574 -126.112,19.2114 -127.415,19.2652 -128.709,19.4183 -130.002,19.5714 -131.282,19.8233 -132.537,20.1719 -133.792,20.5205 -135.018,20.9648 -136.205,21.5007 -137.392,22.0367 -138.536,22.6628 -139.628,23.3736 -140.719,24.0844 -141.754,24.8778 -142.724,25.7467 -143.695,26.6157 -144.597,27.5577 -145.423,28.5645 -146.249,29.5713 -146.997,30.6399 -147.66,31.761 -148.323,32.882 -148.899,34.0522 -149.384,35.2613 -149.868,36.4704 -150.259,37.7148 -150.553,38.9836 -150.847,40.2524 -151.043,41.5418 -151.14,42.8407 -151.237,44.1395 -151.235,45.4438 -151.133,46.7422 -151.031,48.0406 -150.829,49.3293 -150.53,50.597 -150.231,51.8646 -149.835,53.1074 -149.346,54.3146 -148.857,55.5218 -148.276,56.6897 -147.609,57.8082 -146.942,58.9266 -146.19,59.9923 -145.359,60.9958 -144.529,61.9994 -143.623,62.9378 -142.65,63.803 -141.676,64.6681 -140.638,65.4574 -139.544,66.1639 -138.449,66.8704 -137.303,67.492 -136.114,68.0233 -134.924,68.5546 -133.696,68.9941 -132.44,69.3377 -131.184,69.6814 -129.903,69.9283 -128.609,70.0763 -127.315,70.2243 -126.012,70.273 -124.71,70.2219 -123.409,70.1707 -122.113,70.02 -120.835,69.7709 -119.556,69.5218 -118.299,69.1752 -117.074,68.734 -115.848,68.2928 -114.658,67.7584 -113.514,67.1354 -112.371,66.5124 -111.276,65.8028 -110.241,65.0126 -109.206,64.2224 -108.232,63.3541 -107.33,62.4152 -106.427,61.4764 -105.597,60.4697 -104.849,59.4041 -104.1,58.3386 -103.433,57.2172 -102.856,56.0498 -102.278,54.8824 -101.791,53.6725 -101.398,52.4307 -101.006,51.1889 -100.708,49.9188 -100.51,48.6317 -100.311,47.3445 -100.211,46.0439 -100.211,44.7415 -100.211,44.7415 -125.711,44.7415 -125.711,44.7415"/>
<ellipse fill="none" stroke="black" cx="-125.711" cy="44.7415" rx="25.5" ry="25.5"/>
<text text-anchor="middle" x="-125.711" y="46.6415" font-family="monospace" font-size="8.00">0</text>
</g>
<!-- 22 -->
<g id="node23" class="node"><title>22</title>
<ellipse fill="deepskyblue" stroke="black" cx="-217.16" cy="73.1164" rx="3.5" ry="3.5"/>
</g>
<!-- 0&#45;&gt;22 -->
<g id="edge2" class="edge"><title>0&#45;&gt;22</title>
<path fill="none" stroke="black" d="M-150.218,52.3455C-172.439,59.2402 -203.25,68.8003 -213.605,72.0133"/>
</g>
<!-- 24 -->
<g id="node25" class="node"><title>24</title>
<ellipse fill="deepskyblue" stroke="black" cx="-188.611" cy="110.675" rx="3.5" ry="3.5"/>
</g>
<!-- 0&#45;&gt;24 -->
<g id="edge3" class="edge"><title>0&#45;&gt;24</title>
<path fill="none" stroke="black" d="M-143.568,63.4591C-156.67,77.1936 -173.67,95.014 -182.571,104.344"/>
<polygon fill="black" stroke="black" points="-181.33,105.578 -186.047,107.988 -183.862,103.163 -181.33,105.578"/>
<text text-anchor="middle" x="-174.069" y="81.3016" font-family="monospace" font-size="8.00">P55L</text>
</g>
<!-- 58 -->
<g id="node59" class="node"><title>58</title>
<ellipse fill="black" stroke="black" cx="-151.082" cy="137.299" rx="3.5" ry="3.5"/>
</g>
<!-- 0&#45;&gt;58 -->
<g id="edge4" class="edge"><title>0&#45;&gt;58</title>
<path fill="none" stroke="black" d="M-132.51,69.5453C-138.675,92.0355 -147.223,123.22 -150.096,133.701"/>
</g>
<!-- 1 -->
<g id="node2" class="node"><title>1</title>
<ellipse fill="deepskyblue" stroke="black" cx="167.134" cy="-98.0116" rx="3.5" ry="3.5"/>
</g>
<!-- 3 -->
<g id="node4" class="node"><title>3</title>
<path fill="#1874cd" stroke="black" stroke-width="0.5" d="M97.8323,-56.4132C97.8323,-56.4132 131.832,-56.4132 131.832,-56.4132 131.832,-57.6993 131.759,-58.9843 131.614,-60.2621 131.468,-61.5399 131.25,-62.8085 130.961,-64.0616 130.672,-65.3147 130.311,-66.5504 129.882,-67.7627 129.453,-68.975 128.955,-70.1619 128.391,-71.3178 127.828,-72.4738 127.199,-73.5967 126.508,-74.6814 125.817,-75.7661 125.065,-76.8107 124.255,-77.8101 123.446,-78.8096 122.581,-79.7623 121.663,-80.6637 120.746,-81.5652 119.778,-82.4138 118.765,-83.2056 117.751,-83.9974 116.694,-84.731 115.597,-85.403 114.501,-86.075 113.367,-86.6842 112.201,-87.2277 111.036,-87.7712 109.84,-88.2482 108.621,-88.6562 107.401,-89.0643 106.159,-89.4029 104.901,-89.6702 103.643,-89.9376 102.371,-90.1334 101.091,-90.2567 99.8109,-90.38 98.5248,-90.4305 97.2389,-90.408 95.953,-90.3856 94.6695,-90.2902 93.3944,-90.1223 92.1193,-89.9545 90.8548,-89.7144 89.607,-89.4033 89.607,-89.4033 97.8323,-56.4132 97.8323,-56.4132"/>
<path fill="#98f5ff" stroke="black" stroke-width="0.5" d="M97.8323,-56.4132C97.8323,-56.4132 89.607,-89.4033 89.607,-89.4033 88.6472,-89.164 87.6983,-88.8829 86.763,-88.5609 85.8277,-88.2388 84.9069,-87.8761 84.0033,-87.4738 83.0996,-87.0714 82.2139,-86.6299 81.3488,-86.1503 80.4836,-85.6707 79.6398,-85.1536 78.8197,-84.6005 78.8197,-84.6005 97.8323,-56.4132 97.8323,-56.4132"/>
<path fill="#ff3030" stroke="black" stroke-width="0.5" d="M97.8323,-56.4132C97.8323,-56.4132 78.8197,-84.6005 78.8197,-84.6005 77.5484,-83.7429 76.3365,-82.8003 75.1923,-81.7792 74.0482,-80.758 72.9745,-79.6606 71.9785,-78.4945 70.9825,-77.3283 70.0666,-76.0961 69.237,-74.8064 68.4074,-73.5166 67.6659,-72.1721 67.0178,-70.7822 66.3697,-69.3924 65.8164,-67.9602 65.3616,-66.4956 64.9069,-65.031 64.5517,-63.5374 64.2986,-62.0248 64.0455,-60.5123 63.895,-58.9844 63.8482,-57.4515 63.8013,-55.9187 63.8583,-54.3844 64.0186,-52.8593 64.1789,-51.3341 64.4422,-49.8215 64.8067,-48.3319 65.1712,-46.8423 65.6361,-45.379 66.1981,-43.9522 66.7602,-42.5253 67.4181,-41.1381 68.1674,-39.8001 68.9168,-38.4621 69.7558,-37.1763 70.6787,-35.9515 71.6016,-34.7267 72.6064,-33.5658 73.686,-32.4767 74.7657,-31.3876 75.9178,-30.3728 77.1344,-29.4392 78.3511,-28.5056 79.6295,-27.6554 80.9609,-26.8945 82.2924,-26.1335 83.6738,-25.4635 85.0957,-24.889 85.0957,-24.889 97.8323,-56.4132 97.8323,-56.4132"/>
<path fill="deepskyblue" stroke="black" stroke-width="0.5" d="M97.8323,-56.4132C97.8323,-56.4132 85.0957,-24.889 85.0957,-24.889 86.3799,-24.3701 87.6946,-23.9302 89.0325,-23.5717 90.3703,-23.2133 91.7288,-22.9369 93.1004,-22.7441 94.472,-22.5513 95.8541,-22.4426 97.2389,-22.4184 98.6238,-22.3942 100.009,-22.4547 101.386,-22.5995 102.764,-22.7443 104.131,-22.9731 105.481,-23.2846 106.83,-23.5962 108.159,-23.99 109.461,-24.4637 110.763,-24.9374 112.034,-25.4902 113.268,-26.119 114.502,-26.7478 115.697,-27.4514 116.845,-28.2259 117.993,-29.0005 119.093,-29.8444 120.138,-30.7531 121.184,-31.6618 122.172,-32.6335 123.099,-33.6628 124.026,-34.6921 124.889,-35.7771 125.683,-36.9116 126.478,-38.0462 127.202,-39.2283 127.853,-40.4512 128.503,-41.6741 129.078,-42.9357 129.574,-44.2287 130.07,-45.5218 130.487,-46.844 130.822,-48.1879 131.157,-49.5318 131.41,-50.8949 131.579,-52.2697 131.748,-53.6444 131.832,-55.0282 131.832,-56.4132 131.832,-56.4132 97.8323,-56.4132 97.8323,-56.4132"/>
<ellipse fill="none" stroke="black" cx="97.8323" cy="-56.4132" rx="34" ry="34"/>
<text text-anchor="middle" x="97.8323" y="-54.5132" font-family="monospace" font-size="8.00">3</text>
</g>
<!-- 1&#45;&gt;3 -->
<g id="edge5" class="edge"><title>1&#45;&gt;3</title>
<path fill="none" stroke="black" d="M163.791,-96.0052C157.086,-91.9803 141.401,-82.5655 127.009,-73.9266"/>
</g>
<!-- 2 -->
<g id="node3" class="node"><title>2</title>
<ellipse fill="#ff3030" stroke="black" cx="-82.8923" cy="45.5868" rx="14" ry="14"/>
<text text-anchor="middle" x="-82.8923" y="47.4868" font-family="monospace" font-size="8.00">2</text>
</g>
<!-- 60 -->
<g id="node61" class="node"><title>60</title>
<ellipse fill="white" stroke="black" cx="-97.1322" cy="116.188" rx="2.5" ry="2.5"/>
</g>
<!-- 2&#45;&gt;60 -->
<g id="edge7" class="edge"><title>2&#45;&gt;60</title>
<path fill="none" stroke="black" d="M-85.7056,59.5353C-88.6322,74.045 -93.1136,96.264 -95.5016,108.103"/>
<polygon fill="black" stroke="black" points="-93.836,108.697 -96.5401,113.253 -97.2669,108.005 -93.836,108.697"/>
<text text-anchor="middle" x="-106.604" y="81.2193" font-family="monospace" font-size="8.00">P1874S</text>
</g>
<!-- 10 -->
<g id="node11" class="node"><title>10</title>
<ellipse fill="#ff3030" stroke="black" cx="184.831" cy="-18.4606" rx="3.5" ry="3.5"/>
</g>
<!-- 3&#45;&gt;10 -->
<g id="edge9" class="edge"><title>3&#45;&gt;10</title>
<path fill="none" stroke="black" d="M129.241,-42.7115C149.293,-33.9636 173.07,-23.5914 181.592,-19.8734"/>
</g>
<!-- 16 -->
<g id="node17" class="node"><title>16</title>
<ellipse fill="#ff3030" stroke="black" cx="121.388" cy="3.69447" rx="3.5" ry="3.5"/>
</g>
<!-- 3&#45;&gt;16 -->
<g id="edge10" class="edge"><title>3&#45;&gt;16</title>
<path fill="none" stroke="black" d="M110.3,-24.5993C113.217,-17.1545 116.078,-9.85424 118.163,-4.53421"/>
<polygon fill="black" stroke="black" points="119.892,-4.91933 120.087,0.374511 116.633,-3.64225 119.892,-4.91933"/>
<text text-anchor="middle" x="100.731" y="-8.16676" font-family="monospace" font-size="8.00">M704V</text>
</g>
<!-- 18 -->
<g id="node19" class="node"><title>18</title>
<ellipse fill="deepskyblue" stroke="black" cx="165.093" cy="-60.8511" rx="3.5" ry="3.5"/>
</g>
<!-- 3&#45;&gt;18 -->
<g id="edge11" class="edge"><title>3&#45;&gt;18</title>
<path fill="none" stroke="black" d="M131.857,-58.6582C143.848,-59.4493 155.772,-60.2361 161.531,-60.6161"/>
</g>
<!-- 21 -->
<g id="node22" class="node"><title>21</title>
<ellipse fill="deepskyblue" stroke="black" cx="143.788" cy="-29.8967" rx="3.5" ry="3.5"/>
</g>
<!-- 3&#45;&gt;21 -->
<g id="edge12" class="edge"><title>3&#45;&gt;21</title>
<path fill="none" stroke="black" d="M127.456,-39.3201C132.736,-36.2737 137.504,-33.5228 140.506,-31.7904"/>
</g>
<!-- 25 -->
<g id="node26" class="node"><title>25</title>
<ellipse fill="deepskyblue" stroke="black" cx="196.639" cy="-73.4773" rx="3.5" ry="3.5"/>
</g>
<!-- 3&#45;&gt;25 -->
<g id="edge13" class="edge"><title>3&#45;&gt;25</title>
<path fill="none" stroke="black" d="M131.559,-62.238C154.816,-66.2545 183.243,-71.1639 193.086,-72.8637"/>
</g>
<!-- 29 -->
<g id="node30" class="node"><title>29</title>
<ellipse fill="deepskyblue" stroke="black" cx="93.7053" cy="-119.579" rx="3.5" ry="3.5"/>
</g>
<!-- 3&#45;&gt;29 -->
<g id="edge14" class="edge"><title>3&#45;&gt;29</title>
<path fill="none" stroke="black" d="M95.5997,-90.5846C95.1088,-98.0989 94.6307,-105.417 94.2776,-110.821"/>
<polygon fill="black" stroke="black" points="92.5286,-110.749 93.9489,-115.852 96.0212,-110.977 92.5286,-110.749"/>
<text text-anchor="middle" x="78.9387" y="-103.303" font-family="monospace" font-size="8.00">V1303A</text>
</g>
<!-- 30 -->
<g id="node31" class="node"><title>30</title>
<ellipse fill="deepskyblue" stroke="black" cx="124.275" cy="-100.492" rx="3.5" ry="3.5"/>
</g>
<!-- 3&#45;&gt;30 -->
<g id="edge15" class="edge"><title>3&#45;&gt;30</title>
<path fill="none" stroke="black" d="M115.616,-86.0589C118.307,-90.5439 120.71,-94.55 122.298,-97.1968"/>
</g>
<!-- 34 -->
<g id="node35" class="node"><title>34</title>
<ellipse fill="#ff3030" stroke="black" cx="141.12" cy="37.4477" rx="3.5" ry="3.5"/>
</g>
<!-- 3&#45;&gt;34 -->
<g id="edge16" class="edge"><title>3&#45;&gt;34</title>
<path fill="none" stroke="black" d="M112.126,-25.4195C122.371,-3.20609 135.108,24.4127 139.525,33.9888"/>
</g>
<!-- 36 -->
<g id="node37" class="node"><title>36</title>
<ellipse fill="#ff3030" stroke="black" cx="99.7761" cy="-155.357" rx="3.5" ry="3.5"/>
</g>
<!-- 3&#45;&gt;36 -->
<g id="edge19" class="edge"><title>3&#45;&gt;36</title>
<path fill="none" stroke="black" d="M98.5012,-90.464C98.9581,-113.718 99.5142,-142.024 99.7066,-151.821"/>
</g>
<!-- 41 -->
<g id="node42" class="node"><title>41</title>
<ellipse fill="#1874cd" stroke="black" cx="63.122" cy="-14.9206" rx="3.5" ry="3.5"/>
</g>
<!-- 3&#45;&gt;41 -->
<g id="edge22" class="edge"><title>3&#45;&gt;41</title>
<path fill="none" stroke="black" d="M75.6532,-29.9004C71.6142,-25.0721 67.9537,-20.6965 65.6463,-17.9381"/>
</g>
<!-- 43 -->
<g id="node44" class="node"><title>43</title>
<ellipse fill="#1874cd" stroke="black" cx="155.369" cy="-130.77" rx="3.5" ry="3.5"/>
</g>
<!-- 3&#45;&gt;43 -->
<g id="edge23" class="edge"><title>3&#45;&gt;43</title>
<path fill="none" stroke="black" d="M118.93,-83.6789C132.016,-100.59 147.385,-120.453 153.089,-127.824"/>
</g>
<!-- 44 -->
<g id="node45" class="node"><title>44</title>
<ellipse fill="#1874cd" stroke="black" cx="165.556" cy="5.18942" rx="3.5" ry="3.5"/>
</g>
<!-- 3&#45;&gt;44 -->
<g id="edge24" class="edge"><title>3&#45;&gt;44</title>
<path fill="none" stroke="black" d="M123.05,-33.4747C138.394,-19.5178 156.275,-3.25262 162.907,2.77926"/>
</g>
<!-- 46 -->
<g id="node47" class="node"><title>46</title>
<ellipse fill="#1874cd" stroke="black" cx="147.365" cy="-166.859" rx="3.5" ry="3.5"/>
</g>
<!-- 3&#45;&gt;46 -->
<g id="edge27" class="edge"><title>3&#45;&gt;46</title>
<path fill="none" stroke="black" d="M111.762,-87.4724C124.009,-114.78 140.66,-151.907 145.794,-163.355"/>
</g>
<!-- 56 -->
<g id="node57" class="node"><title>56</title>
<ellipse fill="#98f5ff" stroke="black" cx="121.814" cy="-144.114" rx="3.5" ry="3.5"/>
</g>
<!-- 3&#45;&gt;56 -->
<g id="edge28" class="edge"><title>3&#45;&gt;56</title>
<path fill="none" stroke="black" d="M106.899,-89.5691C112.311,-109.36 118.569,-132.246 120.888,-140.726"/>
</g>
<!-- 59 -->
<g id="node60" class="node"><title>59</title>
<ellipse fill="black" stroke="black" cx="117.738" cy="37.8778" rx="3.5" ry="3.5"/>
</g>
<!-- 3&#45;&gt;59 -->
<g id="edge29" class="edge"><title>3&#45;&gt;59</title>
<path fill="none" stroke="black" d="M104.906,-22.9043C109.51,-1.09566 115.013,24.9724 116.987,34.3233"/>
</g>
<!-- anon_3_35_0 -->
<g id="node63" class="node"><title>anon_3_35_0</title>
<ellipse fill="white" stroke="black" cx="175.196" cy="38.0153" rx="2.5" ry="2.5"/>
</g>
<!-- 3&#45;&gt;anon_3_35_0 -->
<g id="edge17" class="edge"><title>3&#45;&gt;anon_3_35_0</title>
<path fill="none" stroke="black" d="M119.383,-30.1096C139.234,-5.87985 166.628,27.5573 173.555,36.0117"/>
</g>
<!-- anon_3_40_0 -->
<g id="node64" class="node"><title>anon_3_40_0</title>
<ellipse fill="white" stroke="black" cx="197.208" cy="-119.682" rx="2.5" ry="2.5"/>
</g>
<!-- 3&#45;&gt;anon_3_40_0 -->
<g id="edge20" class="edge"><title>3&#45;&gt;anon_3_40_0</title>
<path fill="none" stroke="black" d="M126.576,-74.7132C151.798,-90.7712 185.833,-112.44 194.907,-118.217"/>
</g>
<!-- anon_3_45_0 -->
<g id="node65" class="node"><title>anon_3_45_0</title>
<ellipse fill="white" stroke="black" cx="212.63" cy="-34.9361" rx="2.5" ry="2.5"/>
</g>
<!-- 3&#45;&gt;anon_3_45_0 -->
<g id="edge25" class="edge"><title>3&#45;&gt;anon_3_45_0</title>
<path fill="none" stroke="black" d="M131.345,-50.1434C160.464,-44.6956 199.566,-37.3802 209.987,-35.4305"/>
</g>
<!-- 4 -->
<g id="node5" class="node"><title>4</title>
<path fill="#98f5ff" stroke="black" stroke-width="0.5" d="M2.6744,-131.532C2.6744,-131.532 34.6744,-131.532 34.6744,-131.532 34.6744,-132.983 34.5758,-134.432 34.3792,-135.869 34.1826,-137.306 33.8886,-138.728 33.4991,-140.125 33.1096,-141.522 32.6255,-142.892 32.0502,-144.223 31.475,-145.555 30.8098,-146.846 30.0594,-148.087 29.309,-149.328 28.475,-150.517 27.5633,-151.645 26.6516,-152.774 25.6643,-153.838 24.6081,-154.833 23.5519,-155.827 22.4293,-156.748 21.2482,-157.59 20.067,-158.432 18.8299,-159.193 17.5455,-159.867 16.2612,-160.541 14.9324,-161.127 13.5686,-161.621 12.2047,-162.115 10.8088,-162.515 9.3906,-162.819 7.97238,-163.124 6.5351,-163.332 5.08871,-163.441 3.64232,-163.55 2.19017,-163.561 0.742288,-163.474 -0.70559,-163.386 -2.14584,-163.2 -3.56849,-162.917 -4.99114,-162.634 -6.39291,-162.255 -7.76409,-161.782 -9.13527,-161.309 -10.4727,-160.743 -11.7671,-160.088 -13.0615,-159.434 -14.3099,-158.692 -15.5037,-157.868 -15.5037,-157.868 2.6744,-131.532 2.6744,-131.532"/>
<path fill="#ff3030" stroke="black" stroke-width="0.5" d="M2.6744,-131.532C2.6744,-131.532 -15.5037,-157.868 -15.5037,-157.868 -16.3878,-157.257 -17.2406,-156.603 -18.0589,-155.907 -18.8772,-155.211 -19.6599,-154.474 -20.4041,-153.699 -21.1483,-152.925 -21.8529,-152.113 -22.5155,-151.267 -23.178,-150.422 -23.7975,-149.543 -24.3717,-148.635 -24.9458,-147.727 -25.4739,-146.791 -25.9539,-145.83 -26.4339,-144.869 -26.8652,-143.884 -27.2461,-142.88 -27.6271,-141.875 -27.9572,-140.852 -28.2352,-139.814 -28.5133,-138.777 -28.7389,-137.726 -28.9112,-136.665 -28.9112,-136.665 2.6744,-131.532 2.6744,-131.532"/>
<path fill="deepskyblue" stroke="black" stroke-width="0.5" d="M2.6744,-131.532C2.6744,-131.532 -28.9112,-136.665 -28.9112,-136.665 -29.0878,-135.578 -29.2083,-134.483 -29.272,-133.384 -29.3357,-132.285 -29.3426,-131.183 -29.2928,-130.083 -29.2429,-128.983 -29.1363,-127.886 -28.9733,-126.797 -28.8104,-125.708 -28.5913,-124.628 -28.3171,-123.562 -28.0428,-122.495 -27.7136,-121.444 -27.331,-120.411 -26.9483,-119.379 -26.5125,-118.367 -26.0255,-117.379 -25.5385,-116.391 -25.0008,-115.43 -24.4146,-114.497 -23.8285,-113.565 -23.1946,-112.664 -22.5155,-111.797 -21.8364,-110.93 -21.113,-110.099 -20.3482,-109.307 -19.5834,-108.515 -18.7782,-107.763 -17.9359,-107.053 -17.0936,-106.344 -16.2152,-105.679 -15.3043,-105.06 -14.3933,-104.442 -13.4511,-103.87 -12.4813,-103.349 -11.5115,-102.827 -10.5154,-102.356 -9.49701,-101.937 -8.47862,-101.519 -7.4393,-101.153 -6.38319,-100.841 -5.32708,-100.529 -4.25558,-100.272 -3.17297,-100.071 -2.09037,-99.8698 -0.998101,-99.7246 0.0994727,-99.636 1.19705,-99.5474 2.29846,-99.5155 3.39932,-99.5404 4.50019,-99.5654 5.59903,-99.6471 6.69146,-99.7853 7.78389,-99.9236 8.86846,-100.118 9.94084,-100.368 11.0132,-100.618 12.072,-100.923 13.1129,-101.283 14.1538,-101.642 15.1755,-102.054 16.1738,-102.519 17.1722,-102.984 18.1459,-103.499 19.0911,-104.064 20.0363,-104.629 20.9517,-105.242 21.8337,-105.902 22.7157,-106.561 23.563,-107.265 24.3724,-108.012 25.1817,-108.759 25.952,-109.547 26.6801,-110.373 27.4082,-111.199 28.0932,-112.062 28.7323,-112.958 29.3715,-113.855 29.9639,-114.784 30.5073,-115.742 31.0506,-116.7 31.5442,-117.685 31.986,-118.693 32.4277,-119.702 32.8172,-120.733 33.1527,-121.782 33.4882,-122.83 33.7694,-123.896 33.9951,-124.974 34.2208,-126.051 34.3907,-127.14 34.5041,-128.235 34.6176,-129.331 34.6744,-130.431 34.6744,-131.532 34.6744,-131.532 2.6744,-131.532 2.6744,-131.532"/>
<ellipse fill="none" stroke="black" cx="2.6744" cy="-131.532" rx="32" ry="32"/>
<text text-anchor="middle" x="2.6744" y="-129.632" font-family="monospace" font-size="8.00">4</text>
</g>
<!-- 11 -->
<g id="node12" class="node"><title>11</title>
<ellipse fill="deepskyblue" stroke="black" cx="-1.73622" cy="-20.6355" rx="3.5" ry="3.5"/>
</g>
<!-- 4&#45;&gt;11 -->
<g id="edge31" class="edge"><title>4&#45;&gt;11</title>
<path fill="none" stroke="black" d="M1.39867,-99.4563C0.319932,-72.3335 -1.12202,-36.0783 -1.58583,-24.4168"/>
</g>
<!-- 55 -->
<g id="node56" class="node"><title>55</title>
<ellipse fill="#98f5ff" stroke="black" cx="3.77198" cy="-256.672" rx="3.5" ry="3.5"/>
</g>
<!-- 4&#45;&gt;55 -->
<g id="edge32" class="edge"><title>4&#45;&gt;55</title>
<path fill="none" stroke="black" d="M2.95705,-163.759C3.23145,-195.043 3.62296,-239.681 3.73861,-252.867"/>
</g>
<!-- 5 -->
<g id="node6" class="node"><title>5</title>
<ellipse fill="#ff3030" stroke="black" cx="-55.8797" cy="67.4559" rx="18" ry="18"/>
<text text-anchor="middle" x="-55.8797" y="69.3559" font-family="monospace" font-size="8.00">5</text>
</g>
<!-- 32 -->
<g id="node33" class="node"><title>32</title>
<ellipse fill="#ff3030" stroke="black" cx="-20.1551" cy="66.3097" rx="3.5" ry="3.5"/>
</g>
<!-- 5&#45;&gt;32 -->
<g id="edge34" class="edge"><title>5&#45;&gt;32</title>
<path fill="none" stroke="black" d="M-37.5988,66.8694C-32.38,66.7019 -27.209,66.536 -23.8688,66.4289"/>
</g>
<!-- 38 -->
<g id="node39" class="node"><title>38</title>
<ellipse fill="#ff3030" stroke="black" cx="-54.901" cy="146.12" rx="3.5" ry="3.5"/>
</g>
<!-- 5&#45;&gt;38 -->
<g id="edge35" class="edge"><title>5&#45;&gt;38</title>
<path fill="none" stroke="black" d="M-55.6527,85.7007C-55.4178,104.582 -55.0684,132.667 -54.9456,142.535"/>
</g>
<!-- 39 -->
<g id="node40" class="node"><title>39</title>
<ellipse fill="#ff3030" stroke="black" cx="-19.0135" cy="144.106" rx="3.5" ry="3.5"/>
</g>
<!-- 5&#45;&gt;39 -->
<g id="edge36" class="edge"><title>5&#45;&gt;39</title>
<path fill="none" stroke="black" d="M-48.0614,83.7113C-39.1842,102.168 -25.3245,130.984 -20.6303,140.744"/>
</g>
<!-- 5&#45;&gt;60 -->
<g id="edge71" class="edge"><title>5&#45;&gt;60</title>
<path fill="none" stroke="black" stroke-dasharray="5,2" d="M-67.5907,81.2902C-75.642,90.8013 -85.9374,102.963 -92.0052,110.131"/>
<polygon fill="black" stroke="black" points="-90.8848,111.516 -95.4511,114.202 -93.5562,109.255 -90.8848,111.516"/>
<text text-anchor="middle" x="-95.798" y="93.1108" font-family="monospace" font-size="8.00">A1934V</text>
</g>
<!-- 6 -->
<g id="node7" class="node"><title>6</title>
<path fill="#ff3030" stroke="black" stroke-width="0.5" d="M-42.65,-35.0523C-42.65,-35.0523 -8.15,-35.0523 -8.15,-35.0523 -8.15,-36.6068 -8.25506,-38.1595 -8.46447,-39.6998 -8.67388,-41.2402 -8.98715,-42.7646 -9.40215,-44.2627 -9.40215,-44.2627 -42.65,-35.0523 -42.65,-35.0523"/>
<path fill="deepskyblue" stroke="black" stroke-width="0.5" d="M-42.65,-35.0523C-42.65,-35.0523 -9.40215,-44.2627 -9.40215,-44.2627 -9.71335,-45.386 -10.0813,-46.4929 -10.5045,-47.579 -10.9278,-48.6652 -11.4058,-49.7291 -11.9368,-50.7669 -12.4677,-51.8046 -13.0509,-52.8147 -13.6842,-53.7934 -14.3174,-54.7721 -14.9998,-55.7181 -15.7288,-56.6277 -15.7288,-56.6277 -42.65,-35.0523 -42.65,-35.0523"/>
<path fill="brown" stroke="black" stroke-width="0.5" d="M-42.65,-35.0523C-42.65,-35.0523 -15.7288,-56.6277 -15.7288,-56.6277 -16.359,-57.4141 -17.0234,-58.1725 -17.72,-58.9007 -18.4167,-59.6289 -19.1449,-60.3263 -19.9026,-60.9908 -20.6603,-61.6552 -21.4467,-62.2862 -22.2596,-62.8818 -23.0725,-63.4774 -23.9112,-64.0371 -24.7731,-64.5593 -25.635,-65.0815 -26.5194,-65.5657 -27.4237,-66.0105 -28.328,-66.4553 -29.2514,-66.8602 -30.1912,-67.2241 -31.1309,-67.5881 -32.0862,-67.9106 -33.0542,-68.1909 -34.0222,-68.4712 -35.002,-68.709 -35.9908,-68.9035 -36.9797,-69.098 -37.9765,-69.2491 -38.9786,-69.3564 -39.9806,-69.4636 -40.9869,-69.5269 -41.9945,-69.5461 -43.0021,-69.5652 -44.01,-69.5402 -45.0154,-69.4711 -46.0208,-69.402 -47.0227,-69.2889 -48.0182,-69.1321 -49.0137,-68.9753 -50.0019,-68.7749 -50.9798,-68.5316 -51.9578,-68.2883 -52.9246,-68.0022 -53.8775,-67.6743 -54.8304,-67.3463 -55.7685,-66.9767 -56.6891,-66.5666 -57.6096,-66.1566 -58.5118,-65.7063 -59.3929,-65.2172 -60.2741,-64.7282 -61.1333,-64.2007 -61.9683,-63.6364 -62.8033,-63.0721 -63.6131,-62.4715 -64.3955,-61.8363 -65.1779,-61.2011 -65.9321,-60.5319 -66.6559,-59.8307 -67.3796,-59.1295 -68.0724,-58.3969 -68.732,-57.635 -69.3917,-56.8731 -70.0176,-56.0827 -70.6081,-55.266 -71.1986,-54.4493 -71.753,-53.6072 -72.2697,-52.742 -72.7864,-51.8767 -73.265,-50.9893 -73.704,-50.0822 -74.1431,-49.1751 -74.5421,-48.2492 -74.9001,-47.3071 -75.2581,-46.3651 -75.5746,-45.4078 -75.8488,-44.438 -76.1229,-43.4683 -76.3545,-42.4869 -76.5427,-41.4969 -76.731,-40.5069 -76.8758,-39.5091 -76.9767,-38.5064 -77.0776,-37.5037 -77.1345,-36.497 -77.1472,-35.4893 -77.16,-34.4816 -77.1286,-33.4739 -77.0531,-32.4689 -76.9777,-31.464 -76.8582,-30.4628 -76.6951,-29.4683 -76.532,-28.4738 -76.3254,-27.487 -76.0759,-26.5106 -75.8264,-25.5342 -75.5342,-24.5692 -75.2002,-23.6184 -74.8662,-22.6676 -74.4907,-21.7318 -74.0748,-20.8139 -73.6589,-19.896 -73.203,-18.9967 -72.7083,-18.1186 -72.2137,-17.2406 -71.6808,-16.3847 -71.1112,-15.5533 -70.5416,-14.7219 -69.9359,-13.9159 -69.2957,-13.1376 -68.6556,-12.3592 -67.9817,-11.6093 -67.2759,-10.89 -66.5701,-10.1706 -65.8331,-9.48257 -65.067,-8.82775 -64.301,-8.17293 -63.5066,-7.55199 -62.6862,-6.96671 -61.8658,-6.38144 -61.0202,-5.83239 -60.1517,-5.32115 -59.2832,-4.80992 -58.3928,-4.33698 -57.4829,-3.9037 -56.573,-3.47041 -55.6446,-3.07721 -54.7003,-2.72521 -53.756,-2.37321 -52.7967,-2.06276 -51.8253,-1.79474 -50.8538,-1.52672 -49.871,-1.3014 -48.8798,-1.11942 -47.8886,-0.937446 -46.8899,-0.798986 -45.8866,-0.704443 -44.8833,-0.609899 -43.8763,-0.559364 -42.8685,-0.552981 -41.8608,-0.546598 -40.8532,-0.584373 -39.8488,-0.6662 -38.8443,-0.748026 -37.8439,-0.873823 -36.8505,-1.04323 -35.8571,-1.21264 -34.8716,-1.42549 -33.8968,-1.68118 -32.922,-1.93687 -31.9588,-2.23515 -31.0102,-2.57516 -30.0615,-2.91517 -29.1281,-3.29658 -28.2129,-3.7183 -27.2976,-4.14002 -26.4012,-4.60164 -25.5263,-5.10184 -24.6514,-5.60204 -23.7989,-6.14033 -22.9711,-6.71516 -22.1434,-7.28999 -21.3412,-7.90082 -20.567,-8.54589 -19.7927,-9.19095 -19.0471,-9.86963 -18.3322,-10.58 -17.6173,-11.2903 -16.934,-12.0316 -16.284,-12.8018 -15.634,-13.572 -15.0181,-14.3703 -14.4381,-15.1944 -13.858,-16.0184 -13.3143,-16.8676 -12.8086,-17.7392 -12.3029,-18.6109 -11.8356,-19.5044 -11.4081,-20.417 -10.9806,-21.3296 -10.5933,-22.2605 -10.2472,-23.207 -9.90123,-24.1535 -9.59686,-25.1147 -9.335,-26.0879 -9.07314,-27.061 -8.85405,-28.0452 -8.67836,-29.0375 -8.50266,-30.0299 -8.37053,-31.0294 -8.28234,-32.0333 -8.19416,-33.0372 -8.15,-34.0445 -8.15,-35.0523 -8.15,-35.0523 -42.65,-35.0523 -42.65,-35.0523"/>
<ellipse fill="none" stroke="black" cx="-42.65" cy="-35.0523" rx="34.5" ry="34.5"/>
<text text-anchor="middle" x="-42.65" y="-33.1523" font-family="monospace" font-size="8.00">6</text>
</g>
<!-- 6&#45;&gt;0 -->
<g id="edge1" class="edge"><title>6&#45;&gt;0</title>
<path fill="none" stroke="black" d="M-67.5711,-11.1115C-78.9911,-0.14075 -92.4173,12.7572 -103.489,23.393"/>
<polygon fill="black" stroke="black" points="-102.329,24.7053 -107.147,26.9072 -104.753,22.1812 -102.329,24.7053"/>
<text text-anchor="middle" x="-101.53" y="3.54075" font-family="monospace" font-size="8.00">I1868T</text>
</g>
<!-- 6&#45;&gt;2 -->
<g id="edge6" class="edge"><title>6&#45;&gt;2</title>
<path fill="none" stroke="black" d="M-58.0936,-4.10573C-63.5296,6.78713 -69.4478,18.6462 -74.139,28.0466"/>
<polygon fill="black" stroke="black" points="-72.6727,29.0277 -76.4713,32.7201 -75.8044,27.4648 -72.6727,29.0277"/>
<text text-anchor="middle" x="-82.1163" y="18.3704" font-family="monospace" font-size="8.00">A1934V</text>
</g>
<!-- 6&#45;&gt;3 -->
<g id="edge8" class="edge"><title>6&#45;&gt;3</title>
<path fill="none" stroke="black" d="M-8.28416,-40.2778C12.0201,-43.3651 37.7913,-47.2837 58.8521,-50.4861"/>
<polygon fill="black" stroke="black" points="58.615,-52.2201 63.8213,-51.2417 59.1412,-48.7599 58.615,-52.2201"/>
<text text-anchor="middle" x="9.28396" y="-47.9819" font-family="monospace" font-size="8.00">N1570Y</text>
</g>
<!-- 6&#45;&gt;4 -->
<g id="edge30" class="edge"><title>6&#45;&gt;4</title>
<path fill="none" stroke="black" d="M-27.9345,-66.3766C-23.2272,-76.3967 -17.9962,-87.5317 -13.2095,-97.7208"/>
<polygon fill="black" stroke="black" points="-14.755,-98.547 -11.045,-102.328 -11.5871,-97.0587 -14.755,-98.547"/>
<text text-anchor="middle" x="-4.572" y="-84.6487" font-family="monospace" font-size="8.00">P1874L</text>
</g>
<!-- 6&#45;&gt;5 -->
<g id="edge33" class="edge"><title>6&#45;&gt;5</title>
<path fill="none" stroke="black" d="M-47.0921,-0.633367C-49.0007,14.1547 -51.1807,31.0462 -52.8919,44.3054"/>
<polygon fill="black" stroke="black" points="-51.1712,44.6454 -53.5469,49.3802 -54.6424,44.1973 -51.1712,44.6454"/>
<text text-anchor="middle" x="-65.992" y="28.236" font-family="monospace" font-size="8.00">P1874S</text>
</g>
<!-- 7 -->
<g id="node8" class="node"><title>7</title>
<ellipse fill="#ff3030" stroke="black" cx="-117.934" cy="-69.3935" rx="9.5" ry="9.5"/>
<text text-anchor="middle" x="-117.934" y="-67.4935" font-family="monospace" font-size="8.00">7</text>
</g>
<!-- 6&#45;&gt;7 -->
<g id="edge37" class="edge"><title>6&#45;&gt;7</title>
<path fill="none" stroke="black" d="M-74.1411,-49.4171C-84.6852,-54.2268 -95.8911,-59.3384 -104.328,-63.1869"/>
<polygon fill="black" stroke="black" points="-105.37,-61.7386 -109.192,-65.4059 -103.917,-64.9229 -105.37,-61.7386"/>
<text text-anchor="middle" x="-105.235" y="-49.902" font-family="monospace" font-size="8.00">K1603T</text>
</g>
<!-- 8 -->
<g id="node9" class="node"><title>8</title>
<ellipse fill="#ff3030" stroke="black" cx="-45.6665" cy="-143.39" rx="6" ry="6"/>
<text text-anchor="middle" x="-45.6665" y="-141.49" font-family="monospace" font-size="8.00">8</text>
</g>
<!-- 6&#45;&gt;8 -->
<g id="edge38" class="edge"><title>6&#45;&gt;8</title>
<path fill="none" stroke="black" d="M-43.6127,-69.6288C-44.2094,-91.0587 -44.9377,-117.217 -45.3471,-131.921"/>
<polygon fill="black" stroke="black" points="-47.1023,-132.087 -45.4923,-137.134 -43.6037,-132.184 -47.1023,-132.087"/>
<text text-anchor="middle" x="-60.4799" y="-103.375" font-family="monospace" font-size="8.00">L1667M</text>
</g>
<!-- 13 -->
<g id="node14" class="node"><title>13</title>
<ellipse fill="#ff3030" stroke="black" cx="-73.4458" cy="-137.791" rx="8" ry="8"/>
<text text-anchor="middle" x="-73.4458" y="-135.891" font-family="monospace" font-size="8.00">13</text>
</g>
<!-- 6&#45;&gt;13 -->
<g id="edge39" class="edge"><title>6&#45;&gt;13</title>
<path fill="none" stroke="black" d="M-52.5635,-68.1248C-58.3379,-87.389 -65.296,-110.602 -69.5437,-124.773"/>
<polygon fill="black" stroke="black" points="-71.3234,-124.615 -71.0828,-129.907 -67.9708,-125.62 -71.3234,-124.615"/>
<text text-anchor="middle" x="-77.0536" y="-90.0487" font-family="monospace" font-size="8.00">I1940T</text>
</g>
<!-- 14 -->
<g id="node15" class="node"><title>14</title>
<path fill="#ff3030" stroke="black" stroke-width="0.5" d="M-142.122,-124.212C-142.122,-124.212 -136.122,-124.212 -136.122,-124.212 -136.122,-124.473 -136.139,-124.735 -136.174,-124.995 -136.208,-125.254 -136.259,-125.512 -136.327,-125.764 -136.395,-126.017 -136.479,-126.266 -136.579,-126.508 -136.679,-126.75 -136.795,-126.985 -136.926,-127.212 -137.057,-127.438 -137.203,-127.656 -137.362,-127.864 -137.522,-128.072 -137.694,-128.269 -137.88,-128.454 -138.065,-128.639 -138.262,-128.812 -138.47,-128.972 -138.678,-129.131 -138.896,-129.277 -139.122,-129.408 -139.349,-129.539 -139.584,-129.655 -139.826,-129.755 -140.068,-129.855 -140.316,-129.939 -140.569,-130.007 -140.822,-130.075 -141.08,-130.126 -141.339,-130.16 -141.599,-130.194 -141.86,-130.212 -142.122,-130.212 -142.384,-130.212 -142.646,-130.194 -142.905,-130.16 -143.165,-130.126 -143.422,-130.075 -143.675,-130.007 -143.928,-129.939 -144.176,-129.855 -144.418,-129.755 -144.66,-129.655 -144.896,-129.539 -145.122,-129.408 -145.349,-129.277 -145.567,-129.131 -145.775,-128.972 -145.983,-128.812 -146.18,-128.639 -146.365,-128.454 -146.55,-128.269 -146.723,-128.072 -146.882,-127.864 -147.042,-127.656 -147.188,-127.438 -147.318,-127.212 -147.449,-126.985 -147.565,-126.75 -147.666,-126.508 -147.766,-126.266 -147.85,-126.017 -147.918,-125.764 -147.986,-125.512 -148.037,-125.254 -148.071,-124.995 -148.105,-124.735 -148.122,-124.473 -148.122,-124.212 -148.122,-123.95 -148.105,-123.688 -148.071,-123.428 -148.037,-123.169 -147.986,-122.912 -147.918,-122.659 -147.85,-122.406 -147.766,-122.157 -147.666,-121.915 -147.565,-121.673 -147.449,-121.438 -147.318,-121.212 -147.188,-120.985 -147.042,-120.767 -146.882,-120.559 -146.723,-120.351 -146.55,-120.154 -146.365,-119.969 -146.18,-119.784 -145.983,-119.611 -145.775,-119.451 -145.567,-119.292 -145.349,-119.146 -145.122,-119.015 -145.122,-119.015 -142.122,-124.212 -142.122,-124.212"/>
<path fill="#98f5ff" stroke="black" stroke-width="0.5" d="M-142.122,-124.212C-142.122,-124.212 -145.122,-119.015 -145.122,-119.015 -144.896,-118.884 -144.66,-118.769 -144.418,-118.668 -144.176,-118.568 -143.928,-118.484 -143.675,-118.416 -143.422,-118.348 -143.165,-118.297 -142.905,-118.263 -142.646,-118.229 -142.384,-118.212 -142.122,-118.212 -141.86,-118.212 -141.599,-118.229 -141.339,-118.263 -141.08,-118.297 -140.822,-118.348 -140.569,-118.416 -140.316,-118.484 -140.068,-118.568 -139.826,-118.668 -139.584,-118.769 -139.349,-118.884 -139.122,-119.015 -138.896,-119.146 -138.678,-119.292 -138.47,-119.451 -138.262,-119.611 -138.065,-119.784 -137.88,-119.969 -137.694,-120.154 -137.522,-120.351 -137.362,-120.559 -137.203,-120.767 -137.057,-120.985 -136.926,-121.212 -136.795,-121.438 -136.679,-121.674 -136.579,-121.915 -136.479,-122.157 -136.395,-122.406 -136.327,-122.659 -136.259,-122.912 -136.208,-123.169 -136.174,-123.428 -136.139,-123.688 -136.122,-123.95 -136.122,-124.212 -136.122,-124.212 -142.122,-124.212 -142.122,-124.212"/>
<ellipse fill="none" stroke="black" cx="-142.122" cy="-124.212" rx="6" ry="6"/>
<text text-anchor="middle" x="-142.122" y="-122.312" font-family="monospace" font-size="8.00">14</text>
</g>
<!-- 6&#45;&gt;14 -->
<g id="edge40" class="edge"><title>6&#45;&gt;14</title>
<path fill="none" stroke="black" d="M-68.5255,-58.2451C-90.0188,-77.51 -119.303,-103.758 -133.585,-116.56"/>
<polygon fill="black" stroke="black" points="-134.955,-115.438 -137.511,-120.078 -132.619,-118.044 -134.955,-115.438"/>
<text text-anchor="middle" x="-114.555" y="-90.0023" font-family="monospace" font-size="8.00">T791M</text>
</g>
<!-- 17 -->
<g id="node18" class="node"><title>17</title>
<ellipse fill="#ff3030" stroke="black" cx="-76.9988" cy="0.705987" rx="6" ry="6"/>
<text text-anchor="middle" x="-76.9988" y="2.60599" font-family="monospace" font-size="8.00">17</text>
</g>
<!-- 6&#45;&gt;17 -->
<g id="edge41" class="edge"><title>6&#45;&gt;17</title>
<path fill="none" stroke="black" d="M-66.8788,-9.82927C-67.5449,-9.13587 -68.1938,-8.4603 -68.8205,-7.80791"/>
<polygon fill="black" stroke="black" points="-67.8527,-6.28917 -72.5786,-3.89558 -70.3769,-8.71381 -67.8527,-6.28917"/>
<text text-anchor="middle" x="-83.8496" y="-11.4186" font-family="monospace" font-size="8.00">N1345I</text>
</g>
<!-- 19 -->
<g id="node20" class="node"><title>19</title>
<path fill="deepskyblue" stroke="black" stroke-width="0.5" d="M-133.816,-0.123872C-133.816,-0.123872 -122.316,-0.123872 -122.316,-0.123872 -122.316,-0.575606 -122.342,-1.02695 -122.396,-1.47555 -122.449,-1.92416 -122.528,-2.36924 -122.634,-2.80849 -122.739,-3.24775 -122.87,-3.6804 -123.027,-4.10422 -123.183,-4.52803 -123.364,-4.94226 -123.569,-5.34476 -123.774,-5.74726 -124.003,-6.13733 -124.254,-6.51293 -124.505,-6.88853 -124.778,-7.24902 -125.071,-7.59252 -125.365,-7.93603 -125.678,-8.26194 -126.01,-8.56858 -126.341,-8.87522 -126.691,-9.16204 -127.056,-9.42757 -127.422,-9.69309 -127.803,-9.93685 -128.197,-10.1576 -128.591,-10.3783 -128.998,-10.5756 -129.415,-10.7485 -129.832,-10.9214 -130.259,-11.0695 -130.694,-11.1921 -131.129,-11.3147 -131.571,-11.4116 -132.017,-11.4823 -132.463,-11.553 -132.913,-11.5973 -133.364,-11.615 -133.816,-11.6327 -134.268,-11.6239 -134.718,-11.5884 -135.168,-11.553 -135.616,-11.491 -136.059,-11.4029 -136.502,-11.3148 -136.94,-11.2006 -137.37,-11.061 -137.799,-10.9214 -138.22,-10.7566 -138.63,-10.5675 -139.041,-10.3784 -139.439,-10.1653 -139.825,-9.92923 -140.21,-9.6932 -140.581,-9.43468 -140.935,-9.15502 -141.29,-8.87535 -141.628,-8.57502 -141.948,-8.2556 -142.267,-7.93617 -142.567,-7.59821 -142.847,-7.24345 -143.127,-6.8887 -143.385,-6.51777 -143.621,-6.1326 -143.857,-5.74744 -144.07,-5.3487 -144.259,-4.93846 -144.449,-4.52822 -144.613,-4.10719 -144.753,-3.67757 -144.893,-3.24794 -145.007,-2.81046 -145.095,-2.36741 -145.183,-1.92435 -145.245,-1.47649 -145.28,-1.02615 -145.316,-0.575808 -145.325,-0.123769 -145.307,0.327618 -145.289,0.779004 -145.245,1.22895 -145.174,1.67513 -145.104,2.1213 -145.007,2.56292 -144.884,2.99769 -144.761,3.43247 -144.613,3.85964 -144.44,4.27699 -144.268,4.69434 -144.07,5.10114 -143.85,5.49527 -143.629,5.88941 -143.385,6.2702 -143.12,6.63566 -143.12,6.63566 -133.816,-0.123872 -133.816,-0.123872"/>
<path fill="#98f5ff" stroke="black" stroke-width="0.5" d="M-133.816,-0.123872C-133.816,-0.123872 -143.12,6.63566 -143.12,6.63566 -142.765,7.12305 -142.374,7.58186 -141.948,8.00786 -141.522,8.43385 -141.063,8.82571 -140.575,9.17982 -140.088,9.53393 -139.574,9.8492 -139.037,10.1227 -138.5,10.3962 -137.942,10.6271 -137.37,10.8133 -136.797,10.9994 -136.21,11.1403 -135.615,11.2345 -135.02,11.3288 -134.418,11.3761 -133.816,11.3761 -133.213,11.3761 -132.612,11.3288 -132.017,11.2345 -131.422,11.1403 -130.835,10.9994 -130.262,10.8133 -129.689,10.6271 -129.132,10.3962 -128.595,10.1227 -128.058,9.8492 -127.544,9.53393 -127.056,9.17982 -126.569,8.82571 -126.11,8.43385 -125.684,8.00786 -125.258,7.58186 -124.866,7.12305 -124.512,6.63566 -124.158,6.14827 -123.843,5.6338 -123.569,5.09702 -123.296,4.56023 -123.065,4.00279 -122.879,3.42982 -122.693,2.85686 -122.552,2.27016 -122.457,1.67512 -122.363,1.08009 -122.316,0.478576 -122.316,-0.123872 -122.316,-0.123872 -133.816,-0.123872 -133.816,-0.123872"/>
<ellipse fill="none" stroke="black" cx="-133.816" cy="-0.123872" rx="11.5" ry="11.5"/>
<text text-anchor="middle" x="-133.816" y="1.77613" font-family="monospace" font-size="8.00">19</text>
</g>
<!-- 6&#45;&gt;19 -->
<g id="edge42" class="edge"><title>6&#45;&gt;19</title>
<path fill="none" stroke="black" d="M-75.0484,-22.6395C-89.7367,-17.0119 -106.424,-10.6187 -118.253,-6.08643"/>
<polygon fill="black" stroke="black" points="-117.71,-4.42037 -123.006,-4.26562 -118.963,-7.68871 -117.71,-4.42037"/>
<text text-anchor="middle" x="-112.651" y="-16.963" font-family="monospace" font-size="8.00">E1597G</text>
</g>
<!-- 26 -->
<g id="node27" class="node"><title>26</title>
<ellipse fill="deepskyblue" stroke="black" cx="-50.279" cy="-83.0024" rx="5" ry="5"/>
<text text-anchor="middle" x="-50.279" y="-81.1024" font-family="monospace" font-size="8.00">26</text>
</g>
<!-- 6&#45;&gt;26 -->
<g id="edge43" class="edge"><title>6&#45;&gt;26</title>
<path fill="none" stroke="black" d="M-48.0724,-69.1332C-48.2762,-70.4146 -48.4726,-71.6488 -48.6585,-72.8169"/>
<polygon fill="black" stroke="black" points="-50.4285,-72.8049 -49.4859,-78.0178 -46.972,-73.3549 -50.4285,-72.8049"/>
<text text-anchor="middle" x="-32.3654" y="-73.5751" font-family="monospace" font-size="8.00">I1584T</text>
</g>
<!-- 31 -->
<g id="node32" class="node"><title>31</title>
<path fill="deepskyblue" stroke="black" stroke-width="0.5" d="M-108.002,-133.865C-108.002,-133.865 -95.5021,-133.865 -95.5021,-133.865 -95.5021,-134.343 -95.5294,-134.82 -95.584,-135.294 -95.6385,-135.768 -95.7202,-136.239 -95.8286,-136.704 -95.937,-137.169 -96.072,-137.627 -96.2328,-138.076 -96.3936,-138.526 -96.58,-138.966 -96.7912,-139.394 -97.0023,-139.822 -97.2378,-140.238 -97.4965,-140.639 -97.7552,-141.04 -98.0366,-141.426 -98.3395,-141.795 -98.6423,-142.164 -98.966,-142.516 -99.3091,-142.848 -99.6521,-143.18 -100.014,-143.492 -100.393,-143.782 -100.771,-144.073 -101.166,-144.341 -101.576,-144.587 -101.985,-144.832 -102.408,-145.054 -102.843,-145.251 -103.278,-145.448 -103.724,-145.62 -104.178,-145.766 -104.633,-145.912 -105.095,-146.032 -105.563,-146.125 -106.032,-146.218 -106.505,-146.284 -106.981,-146.323 -107.456,-146.362 -107.934,-146.374 -108.411,-146.359 -108.888,-146.343 -109.364,-146.3 -109.836,-146.23 -110.308,-146.16 -110.776,-146.063 -111.237,-145.939 -111.698,-145.816 -112.152,-145.666 -112.596,-145.491 -113.04,-145.315 -113.474,-145.114 -113.895,-144.889 -114.316,-144.664 -114.723,-144.415 -115.116,-144.144 -115.508,-143.872 -115.885,-143.578 -116.244,-143.263 -116.603,-142.949 -116.943,-142.613 -117.264,-142.26 -117.585,-141.906 -117.885,-141.534 -118.163,-141.146 -118.441,-140.758 -118.696,-140.355 -118.928,-139.937 -119.16,-139.52 -119.368,-139.09 -119.551,-138.649 -119.733,-138.208 -119.891,-137.757 -120.022,-137.298 -120.153,-136.839 -120.257,-136.372 -120.335,-135.901 -120.413,-135.43 -120.464,-134.955 -120.487,-134.479 -120.51,-134.002 -120.507,-133.524 -120.475,-133.048 -120.444,-132.571 -120.386,-132.097 -120.3,-131.628 -120.215,-131.158 -120.102,-130.694 -119.964,-130.237 -119.825,-129.78 -119.661,-129.331 -119.471,-128.893 -119.281,-128.455 -119.066,-128.029 -118.827,-127.615 -118.827,-127.615 -108.002,-133.865 -108.002,-133.865"/>
<path fill="#98f5ff" stroke="black" stroke-width="0.5" d="M-108.002,-133.865C-108.002,-133.865 -118.827,-127.615 -118.827,-127.615 -118.486,-127.025 -118.097,-126.463 -117.665,-125.935 -117.232,-125.408 -116.757,-124.917 -116.244,-124.467 -115.731,-124.018 -115.182,-123.61 -114.603,-123.25 -114.024,-122.89 -113.416,-122.578 -112.786,-122.317 -112.155,-122.056 -111.505,-121.847 -110.841,-121.692 -110.176,-121.537 -109.5,-121.437 -108.82,-121.392 -108.139,-121.347 -107.456,-121.359 -106.777,-121.425 -106.098,-121.492 -105.426,-121.615 -104.767,-121.791 -104.108,-121.968 -103.465,-122.198 -102.843,-122.479 -102.222,-122.761 -101.625,-123.093 -101.057,-123.472 -100.49,-123.851 -99.9551,-124.276 -99.4572,-124.742 -98.9593,-125.208 -98.5004,-125.715 -98.0852,-126.256 -97.6699,-126.797 -97.2996,-127.371 -96.9781,-127.973 -96.6565,-128.574 -96.3847,-129.201 -96.1655,-129.847 -95.9462,-130.493 -95.7802,-131.156 -95.669,-131.829 -95.5579,-132.502 -95.5021,-133.183 -95.5021,-133.865 -95.5021,-133.865 -108.002,-133.865 -108.002,-133.865"/>
<ellipse fill="none" stroke="black" cx="-108.002" cy="-133.865" rx="12.5" ry="12.5"/>
<text text-anchor="middle" x="-108.002" y="-131.965" font-family="monospace" font-size="8.00">31</text>
</g>
<!-- 6&#45;&gt;31 -->
<g id="edge47" class="edge"><title>6&#45;&gt;31</title>
<path fill="none" stroke="black" d="M-61.7282,-63.8987C-73.6099,-81.864 -88.4112,-104.244 -98.0272,-118.783"/>
<polygon fill="black" stroke="black" points="-99.5374,-117.894 -100.836,-123.03 -96.6181,-119.825 -99.5374,-117.894"/>
<text text-anchor="middle" x="-63.8777" y="-93.9409" font-family="monospace" font-size="8.00">V1853I</text>
</g>
<!-- 47 -->
<g id="node48" class="node"><title>47</title>
<ellipse fill="brown" stroke="black" cx="-91.2168" cy="-31.5478" rx="3.5" ry="3.5"/>
</g>
<!-- 6&#45;&gt;47 -->
<g id="edge48" class="edge"><title>6&#45;&gt;47</title>
<path fill="none" stroke="black" d="M-77.1693,-32.5614C-81.3718,-32.2582 -85.0738,-31.991 -87.6209,-31.8072"/>
</g>
<!-- 48 -->
<g id="node49" class="node"><title>48</title>
<ellipse fill="brown" stroke="black" cx="-25.7213" cy="19.0257" rx="6" ry="6"/>
<text text-anchor="middle" x="-25.7213" y="20.9257" font-family="monospace" font-size="8.00">48</text>
</g>
<!-- 6&#45;&gt;48 -->
<g id="edge49" class="edge"><title>6&#45;&gt;48</title>
<path fill="none" stroke="black" d="M-32.3148,-2.0371C-30.4975,3.76833 -28.8013,9.18687 -27.5844,13.074"/>
</g>
<!-- 50 -->
<g id="node51" class="node"><title>50</title>
<ellipse fill="brown" stroke="black" cx="22.909" cy="11.5468" rx="8" ry="8"/>
<text text-anchor="middle" x="22.909" y="13.4468" font-family="monospace" font-size="8.00">50</text>
</g>
<!-- 6&#45;&gt;50 -->
<g id="edge52" class="edge"><title>6&#45;&gt;50</title>
<path fill="none" stroke="black" d="M-14.4666,-15.0196C-3.08353,-6.92857 9.05393,1.6987 16.3076,6.85458"/>
</g>
<!-- 51 -->
<g id="node52" class="node"><title>51</title>
<ellipse fill="brown" stroke="black" cx="-14.458" cy="-71.282" rx="3.5" ry="3.5"/>
</g>
<!-- 6&#45;&gt;51 -->
<g id="edge53" class="edge"><title>6&#45;&gt;51</title>
<path fill="none" stroke="black" d="M-21.2825,-62.5118C-19.4394,-64.8804 -17.8246,-66.9554 -16.6292,-68.4917"/>
</g>
<!-- 54 -->
<g id="node55" class="node"><title>54</title>
<ellipse fill="brown" stroke="black" cx="-82.9112" cy="-70.6585" rx="3.5" ry="3.5"/>
</g>
<!-- 6&#45;&gt;54 -->
<g id="edge54" class="edge"><title>6&#45;&gt;54</title>
<path fill="none" stroke="black" d="M-68.8298,-58.2052C-73.3956,-62.2432 -77.5038,-65.8763 -80.0881,-68.1619"/>
</g>
<!-- anon_6_27_0 -->
<g id="node66" class="node"><title>anon_6_27_0</title>
<ellipse fill="white" stroke="black" cx="-139.726" cy="-38.8975" rx="2.5" ry="2.5"/>
</g>
<!-- 6&#45;&gt;anon_6_27_0 -->
<g id="edge44" class="edge"><title>6&#45;&gt;anon_6_27_0</title>
<path fill="none" stroke="black" d="M-77.1485,-36.4188C-100.255,-37.334 -128.006,-38.4333 -136.863,-38.7841"/>
</g>
<!-- anon_6_49_0 -->
<g id="node68" class="node"><title>anon_6_49_0</title>
<ellipse fill="white" stroke="black" cx="-23.7137" cy="-128.458" rx="2.5" ry="2.5"/>
</g>
<!-- 6&#45;&gt;anon_6_49_0 -->
<g id="edge50" class="edge"><title>6&#45;&gt;anon_6_49_0</title>
<path fill="none" stroke="black" d="M-35.76,-69.0382C-31.2762,-91.155 -25.9575,-117.391 -24.2616,-125.756"/>
</g>
<!-- 57 -->
<g id="node58" class="node"><title>57</title>
<ellipse fill="black" stroke="black" cx="-40.8675" cy="-210.756" rx="6" ry="6"/>
<text text-anchor="middle" x="-40.8675" y="-208.856" font-family="monospace" font-size="8.00">57</text>
</g>
<!-- 8&#45;&gt;57 -->
<g id="edge55" class="edge"><title>8&#45;&gt;57</title>
<path fill="none" stroke="black" d="M-45.2236,-149.607C-44.3047,-162.505 -42.2014,-192.032 -41.2955,-204.748"/>
</g>
<!-- 9 -->
<g id="node10" class="node"><title>9</title>
<ellipse fill="deepskyblue" stroke="black" cx="-227.847" cy="-221.518" rx="3.5" ry="3.5"/>
</g>
<!-- 15 -->
<g id="node16" class="node"><title>15</title>
<path fill="#98f5ff" stroke="black" stroke-width="0.5" d="M-213.057,-147.523C-213.057,-147.523 -195.057,-147.523 -195.057,-147.523 -195.057,-148.183 -195.093,-148.843 -195.165,-149.499 -195.238,-150.154 -195.346,-150.806 -195.49,-151.45 -195.634,-152.094 -195.813,-152.73 -196.027,-153.354 -196.241,-153.978 -196.489,-154.59 -196.77,-155.187 -197.051,-155.784 -197.364,-156.366 -197.709,-156.928 -198.054,-157.491 -198.429,-158.034 -198.834,-158.556 -199.238,-159.077 -199.671,-159.576 -200.13,-160.05 -200.59,-160.524 -201.075,-160.972 -201.583,-161.393 -202.092,-161.813 -202.623,-162.206 -203.174,-162.568 -203.726,-162.93 -204.297,-163.262 -204.885,-163.561 -205.473,-163.861 -206.077,-164.128 -206.694,-164.361 -207.311,-164.595 -207.941,-164.794 -208.58,-164.958 -209.219,-165.122 -209.867,-165.251 -210.521,-165.344 -211.174,-165.437 -211.832,-165.494 -212.491,-165.514 -213.151,-165.535 -213.811,-165.52 -214.469,-165.468 -215.127,-165.416 -215.781,-165.328 -216.43,-165.204 -216.43,-165.204 -213.057,-147.523 -213.057,-147.523"/>
<path fill="deepskyblue" stroke="black" stroke-width="0.5" d="M-213.057,-147.523C-213.057,-147.523 -216.43,-165.204 -216.43,-165.204 -217.263,-165.045 -218.084,-164.828 -218.887,-164.553 -219.69,-164.278 -220.472,-163.947 -221.229,-163.561 -221.985,-163.176 -222.713,-162.738 -223.407,-162.25 -224.101,-161.762 -224.76,-161.226 -225.379,-160.645 -225.997,-160.064 -226.574,-159.44 -227.104,-158.778 -227.635,-158.115 -228.118,-157.416 -228.55,-156.686 -228.982,-155.956 -229.362,-155.196 -229.687,-154.412 -230.011,-153.628 -230.28,-152.822 -230.491,-152 -230.702,-151.178 -230.855,-150.342 -230.948,-149.499 -231.041,-148.655 -231.074,-147.806 -231.048,-146.958 -231.021,-146.11 -230.935,-145.265 -230.789,-144.429 -230.643,-143.593 -230.438,-142.768 -230.176,-141.961 -229.914,-141.154 -229.595,-140.366 -229.221,-139.604 -228.848,-138.842 -228.421,-138.108 -227.944,-137.406 -227.467,-136.704 -226.941,-136.037 -226.37,-135.409 -225.799,-134.781 -225.184,-134.195 -224.53,-133.654 -223.877,-133.113 -223.185,-132.619 -222.462,-132.176 -221.738,-131.732 -220.984,-131.341 -220.205,-131.004 -219.427,-130.667 -218.625,-130.385 -217.806,-130.161 -216.988,-129.937 -216.155,-129.772 -215.313,-129.665 -214.471,-129.559 -213.622,-129.512 -212.774,-129.526 -211.926,-129.539 -211.079,-129.612 -210.241,-129.745 -209.403,-129.878 -208.575,-130.07 -207.764,-130.319 -206.953,-130.569 -206.161,-130.875 -205.393,-131.236 -204.625,-131.598 -203.884,-132.013 -203.174,-132.479 -202.465,-132.945 -201.79,-133.46 -201.153,-134.021 -200.517,-134.583 -199.921,-135.188 -199.369,-135.833 -198.818,-136.479 -198.314,-137.162 -197.859,-137.878 -197.404,-138.595 -197.001,-139.343 -196.651,-140.116 -196.302,-140.889 -196.008,-141.687 -195.771,-142.501 -195.535,-143.316 -195.356,-144.147 -195.236,-144.987 -195.117,-145.827 -195.057,-146.675 -195.057,-147.523 -195.057,-147.523 -213.057,-147.523 -213.057,-147.523"/>
<ellipse fill="none" stroke="black" cx="-213.057" cy="-147.523" rx="18" ry="18"/>
<text text-anchor="middle" x="-213.057" y="-145.623" font-family="monospace" font-size="8.00">15</text>
</g>
<!-- 9&#45;&gt;15 -->
<g id="edge56" class="edge"><title>9&#45;&gt;15</title>
<path fill="none" stroke="black" d="M-227.133,-217.949C-225.264,-208.595 -220.123,-182.878 -216.6,-165.253"/>
</g>
<!-- 12 -->
<g id="node13" class="node"><title>12</title>
<ellipse fill="deepskyblue" stroke="black" cx="-254.014" cy="-190.713" rx="3.5" ry="3.5"/>
</g>
<!-- 12&#45;&gt;15 -->
<g id="edge57" class="edge"><title>12&#45;&gt;15</title>
<path fill="none" stroke="black" d="M-251.575,-188.141C-246.546,-182.838 -234.725,-170.373 -225.495,-160.639"/>
</g>
<!-- 28 -->
<g id="node29" class="node"><title>28</title>
<ellipse fill="#ff3030" stroke="black" cx="-79.8319" cy="-202.886" rx="3.5" ry="3.5"/>
</g>
<!-- 13&#45;&gt;28 -->
<g id="edge58" class="edge"><title>13&#45;&gt;28</title>
<path fill="none" stroke="black" d="M-74.2288,-145.773C-75.6277,-160.032 -78.5019,-189.33 -79.4897,-199.398"/>
</g>
<!-- 14&#45;&gt;15 -->
<g id="edge59" class="edge"><title>14&#45;&gt;15</title>
<path fill="none" stroke="black" d="M-148.17,-126.199C-157.562,-129.286 -176.119,-135.384 -190.991,-140.272"/>
<polygon fill="black" stroke="black" points="-191.67,-138.653 -195.874,-141.876 -190.578,-141.978 -191.67,-138.653"/>
<text text-anchor="middle" x="-153.58" y="-135.835" font-family="monospace" font-size="8.00">A1746S</text>
</g>
<!-- 61 -->
<g id="node62" class="node"><title>61</title>
<ellipse fill="white" stroke="black" cx="-141.102" cy="-178.799" rx="2.5" ry="2.5"/>
</g>
<!-- 14&#45;&gt;61 -->
<g id="edge60" class="edge"><title>14&#45;&gt;61</title>
<path fill="none" stroke="black" d="M-142.005,-130.473C-141.818,-140.492 -141.451,-160.104 -141.247,-171.011"/>
<polygon fill="black" stroke="black" points="-142.996,-171.093 -141.153,-176.059 -139.497,-171.027 -142.996,-171.093"/>
<text text-anchor="middle" x="-157.626" y="-153.342" font-family="monospace" font-size="8.00">V1853I</text>
</g>
<!-- anon_15_23_0 -->
<g id="node69" class="node"><title>anon_15_23_0</title>
<ellipse fill="white" stroke="black" cx="-280.207" cy="-133.807" rx="2.5" ry="2.5"/>
</g>
<!-- 15&#45;&gt;anon_15_23_0 -->
<g id="edge61" class="edge"><title>15&#45;&gt;anon_15_23_0</title>
<path fill="none" stroke="black" d="M-230.7,-143.92C-246.865,-140.618 -269.445,-136.006 -277.344,-134.392"/>
</g>
<!-- 33 -->
<g id="node34" class="node"><title>33</title>
<ellipse fill="deepskyblue" stroke="black" cx="-190.222" cy="29.2841" rx="3.5" ry="3.5"/>
</g>
<!-- 19&#45;&gt;33 -->
<g id="edge64" class="edge"><title>19&#45;&gt;33</title>
<path fill="none" stroke="black" d="M-144.162,5.27C-157.138,12.0353 -178.682,23.2676 -186.899,27.5515"/>
</g>
<!-- 20 -->
<g id="node21" class="node"><title>20</title>
<ellipse fill="deepskyblue" stroke="black" cx="-155.216" cy="-278.106" rx="3.5" ry="3.5"/>
</g>
<!-- anon_20_61_0 -->
<g id="node71" class="node"><title>anon_20_61_0</title>
<ellipse fill="white" stroke="black" cx="-147.186" cy="-229.431" rx="2.5" ry="2.5"/>
</g>
<!-- 20&#45;&gt;anon_20_61_0 -->
<g id="edge65" class="edge"><title>20&#45;&gt;anon_20_61_0</title>
<path fill="none" stroke="black" d="M-154.638,-274.605C-153.113,-265.363 -149.003,-240.448 -147.635,-232.157"/>
</g>
<!-- 23 -->
<g id="node24" class="node"><title>23</title>
<ellipse fill="deepskyblue" stroke="black" cx="-365.457" cy="-155.346" rx="3.5" ry="3.5"/>
</g>
<!-- 27 -->
<g id="node28" class="node"><title>27</title>
<ellipse fill="#ff3030" stroke="black" cx="-233.578" cy="-19.0811" rx="5" ry="5"/>
<text text-anchor="middle" x="-233.578" y="-17.1811" font-family="monospace" font-size="8.00">27</text>
</g>
<!-- 31&#45;&gt;61 -->
<g id="edge73" class="edge"><title>31&#45;&gt;61</title>
<path fill="none" stroke="black" stroke-dasharray="5,2" d="M-115.679,-144.287C-122.134,-153.05 -131.146,-165.283 -136.526,-172.586"/>
<polygon fill="black" stroke="black" points="-138.037,-171.688 -139.594,-176.751 -135.219,-173.764 -138.037,-171.688"/>
<text text-anchor="middle" x="-112.602" y="-161.037" font-family="monospace" font-size="8.00">T791M</text>
</g>
<!-- 35 -->
<g id="node36" class="node"><title>35</title>
<ellipse fill="#ff3030" stroke="black" cx="202.406" cy="71.2669" rx="3.5" ry="3.5"/>
</g>
<!-- 37 -->
<g id="node38" class="node"><title>37</title>
<ellipse fill="#ff3030" stroke="black" cx="-109.716" cy="166.736" rx="3.5" ry="3.5"/>
</g>
<!-- 37&#45;&gt;60 -->
<g id="edge67" class="edge"><title>37&#45;&gt;60</title>
<path fill="none" stroke="black" d="M-108.811,163.101C-106.422,153.503 -99.9804,127.629 -97.8368,119.018"/>
</g>
<!-- 40 -->
<g id="node41" class="node"><title>40</title>
<ellipse fill="deepskyblue" stroke="black" cx="233.337" cy="-142.851" rx="3.5" ry="3.5"/>
</g>
<!-- 42 -->
<g id="node43" class="node"><title>42</title>
<ellipse fill="#1874cd" stroke="black" cx="173.157" cy="-209.833" rx="3.5" ry="3.5"/>
</g>
<!-- 42&#45;&gt;46 -->
<g id="edge68" class="edge"><title>42&#45;&gt;46</title>
<path fill="none" stroke="black" d="M171.302,-206.743C166.59,-198.891 154.188,-178.226 149.344,-170.155"/>
</g>
<!-- 45 -->
<g id="node46" class="node"><title>45</title>
<ellipse fill="#1874cd" stroke="black" cx="254.248" cy="-24.5705" rx="3.5" ry="3.5"/>
</g>
<!-- 48&#45;&gt;11 -->
<g id="edge72" class="edge"><title>48&#45;&gt;11</title>
<path fill="none" stroke="black" stroke-dasharray="5,2" d="M-22.5857,13.8407C-18.4588,7.01655 -11.1703,-5.03555 -6.39678,-12.9289"/>
<polygon fill="black" stroke="black" points="-7.64853,-14.2409 -3.56362,-17.6138 -4.65359,-12.4297 -7.64853,-14.2409"/>
<text text-anchor="middle" x="-30.4912" y="6.85589" font-family="monospace" font-size="8.00">P1874L</text>
</g>
<!-- 48&#45;&gt;32 -->
<g id="edge74" class="edge"><title>48&#45;&gt;32</title>
<path fill="none" stroke="black" stroke-dasharray="5,2" d="M-24.9936,25.2073C-24.0175,33.4994 -22.2791,48.2664 -21.1734,57.6592"/>
<polygon fill="black" stroke="black" points="-19.4258,57.5368 -20.5791,62.7072 -22.9018,57.9461 -19.4258,57.5368"/>
<text text-anchor="middle" x="-39.0835" y="38.8332" font-family="monospace" font-size="8.00">P1874S</text>
</g>
<!-- 49 -->
<g id="node50" class="node"><title>49</title>
<ellipse fill="brown" stroke="black" cx="-17.1745" cy="-171.757" rx="3.5" ry="3.5"/>
</g>
<!-- 50&#45;&gt;41 -->
<g id="edge75" class="edge"><title>50&#45;&gt;41</title>
<path fill="none" stroke="black" stroke-dasharray="5,2" d="M29.9136,6.93654C37.0806,2.21931 48.1816,-5.08713 55.5487,-9.93601"/>
<polygon fill="black" stroke="black" points="54.8195,-11.5511 59.9582,-12.8383 56.7438,-8.62752 54.8195,-11.5511"/>
<text text-anchor="middle" x="26.7311" y="-4.09974" font-family="monospace" font-size="8.00">N1570Y</text>
</g>
<!-- 52 -->
<g id="node53" class="node"><title>52</title>
<ellipse fill="brown" stroke="black" cx="22.2737" cy="73.2178" rx="3.5" ry="3.5"/>
</g>
<!-- 50&#45;&gt;52 -->
<g id="edge69" class="edge"><title>50&#45;&gt;52</title>
<path fill="none" stroke="black" d="M22.8259,19.6092C22.686,33.1915 22.4089,60.0926 22.3099,69.703"/>
</g>
<!-- 53 -->
<g id="node54" class="node"><title>53</title>
<ellipse fill="brown" stroke="black" cx="47.365" cy="66.1348" rx="3.5" ry="3.5"/>
</g>
<!-- 50&#45;&gt;53 -->
<g id="edge70" class="edge"><title>50&#45;&gt;53</title>
<path fill="none" stroke="black" d="M26.3095,19.137C31.7169,31.2068 42.0557,54.2838 45.888,62.8379"/>
</g>
<!-- 61&#45;&gt;anon_20_61_0 -->
<g id="edge66" class="edge"><title>61&#45;&gt;anon_20_61_0</title>
<path fill="none" stroke="black" d="M-141.429,-181.521C-142.329,-189.008 -144.865,-210.117 -146.252,-221.658"/>
<polygon fill="black" stroke="black" points="-148.027,-221.765 -146.886,-226.938 -144.552,-222.182 -148.027,-221.765"/>
<text text-anchor="middle" x="-159.84" y="-204.189" font-family="monospace" font-size="8.00">L1366F</text>
</g>
<!-- anon_3_35_0&#45;&gt;35 -->
<g id="edge18" class="edge"><title>anon_3_35_0&#45;&gt;35</title>
<path fill="none" stroke="black" d="M176.982,40.197C181.711,45.9764 194.568,61.6891 199.967,68.2868"/>
</g>
<!-- anon_3_40_0&#45;&gt;40 -->
<g id="edge21" class="edge"><title>anon_3_40_0&#45;&gt;40</title>
<path fill="none" stroke="black" d="M199.578,-121.202C204.778,-124.537 217.38,-132.618 225.63,-137.909"/>
<polygon fill="black" stroke="black" points="224.945,-139.549 230.099,-140.775 226.834,-136.602 224.945,-139.549"/>
<text text-anchor="middle" x="199.104" y="-132.155" font-family="monospace" font-size="8.00">P940H</text>
</g>
<!-- anon_3_45_0&#45;&gt;45 -->
<g id="edge26" class="edge"><title>anon_3_45_0&#45;&gt;45</title>
<path fill="none" stroke="black" d="M215.361,-34.256C222.594,-32.4544 242.26,-27.5562 250.518,-25.4995"/>
</g>
<!-- anon_6_27_1 -->
<g id="node67" class="node"><title>anon_6_27_1</title>
<ellipse fill="white" stroke="black" cx="-190.422" cy="-30.4641" rx="2.5" ry="2.5"/>
</g>
<!-- anon_6_27_0&#45;&gt;anon_6_27_1 -->
<g id="edge45" class="edge"><title>anon_6_27_0&#45;&gt;anon_6_27_1</title>
<path fill="none" stroke="black" d="M-142.451,-38.4441C-151.336,-36.9661 -179.379,-32.3012 -187.925,-30.8795"/>
</g>
<!-- anon_6_27_1&#45;&gt;27 -->
<g id="edge46" class="edge"><title>anon_6_27_1&#45;&gt;27</title>
<path fill="none" stroke="black" d="M-192.992,-29.7862C-198.871,-28.2354 -213.562,-24.3605 -223.558,-21.7239"/>
<polygon fill="black" stroke="black" points="-223.262,-19.9924 -228.543,-20.4092 -224.154,-23.3766 -223.262,-19.9924"/>
<text text-anchor="middle" x="-219.275" y="-28.3551" font-family="monospace" font-size="8.00">G54C</text>
</g>
<!-- anon_6_49_0&#45;&gt;49 -->
<g id="edge51" class="edge"><title>anon_6_49_0&#45;&gt;49</title>
<path fill="none" stroke="black" d="M-23.3242,-131.037C-22.2134,-138.392 -19.0267,-159.493 -17.7317,-168.068"/>
</g>
<!-- anon_15_23_1 -->
<g id="node70" class="node"><title>anon_15_23_1</title>
<ellipse fill="white" stroke="black" cx="-324.951" cy="-142.724" rx="2.5" ry="2.5"/>
</g>
<!-- anon_15_23_0&#45;&gt;anon_15_23_1 -->
<g id="edge62" class="edge"><title>anon_15_23_0&#45;&gt;anon_15_23_1</title>
<path fill="none" stroke="black" d="M-282.872,-134.338C-289.541,-135.667 -307.142,-139.175 -317.343,-141.208"/>
<polygon fill="black" stroke="black" points="-317.795,-139.513 -322.356,-142.207 -317.11,-142.946 -317.795,-139.513"/>
<text text-anchor="middle" x="-313.608" y="-131.373" font-family="monospace" font-size="8.00">Q545L</text>
</g>
<!-- anon_15_23_1&#45;&gt;23 -->
<g id="edge63" class="edge"><title>anon_15_23_1&#45;&gt;23</title>
<path fill="none" stroke="black" d="M-327.609,-143.552C-334.649,-145.746 -353.79,-151.71 -361.827,-154.215"/>
</g>
</g>
</svg>
