<?xml version="1.0" encoding="UTF-8" standalone="no"?>
<!DOCTYPE svg PUBLIC "-//W3C//DTD SVG 1.1//EN"
 "http://www.w3.org/Graphics/SVG/1.1/DTD/svg11.dtd">
<!-- Generated by graphviz version 2.38.0 (20140413.2041)
 -->
<!-- Title: %3 Pages: 1 -->
<svg width="152pt" height="177pt"
 viewBox="0.00 0.00 152.09 177.23" xmlns="http://www.w3.org/2000/svg" xmlns:xlink="http://www.w3.org/1999/xlink">
<g id="graph0" class="graph" transform="scale(1 1) rotate(0) translate(85.6462 73.1614)">
<title>%3</title>
<polygon fill="white" stroke="none" points="-85.6462,104.07 -85.6462,-73.1614 66.4389,-73.1614 66.4389,104.07 -85.6462,104.07"/>
<!-- 0 -->
<g id="node1" class="node"><title>0</title>
<ellipse fill="grey" stroke="black" cx="-58.6462" cy="-46.1614" rx="23" ry="23"/>
<text text-anchor="middle" x="-58.6462" y="-42.4614" font-family="Times,serif" font-size="14.00">0</text>
</g>
<!-- 3 -->
<g id="node4" class="node"><title>3</title>
<ellipse fill="white" stroke="black" cx="0.298975" cy="-14.6727" rx="2.5" ry="2.5"/>
<text text-anchor="middle" x="0.298975" y="-10.9727" font-family="Times,serif" font-size="14.00">3</text>
</g>
<!-- 0&#45;&#45;3 -->
<g id="edge1" class="edge"><title>0&#45;&#45;3</title>
<path fill="none" stroke="black" d="M-38.03,-35.1482C-24.4847,-27.9122 -8.18795,-19.2065 -2.12627,-15.9683"/>
</g>
<!-- 1 -->
<g id="node2" class="node"><title>1</title>
<ellipse fill="grey" stroke="black" cx="46.4389" cy="-51.5953" rx="16" ry="16"/>
<text text-anchor="middle" x="46.4389" y="-47.8953" font-family="Times,serif" font-size="14.00">1</text>
</g>
<!-- 1&#45;&#45;3 -->
<g id="edge2" class="edge"><title>1&#45;&#45;3</title>
<path fill="none" stroke="black" d="M33.831,-41.506C22.9447,-32.7945 8.11529,-20.9276 2.53999,-16.4661"/>
</g>
<!-- 2 -->
<g id="node3" class="node"><title>2</title>
<ellipse fill="grey" stroke="black" cx="7.90921" cy="84.0701" rx="16" ry="16"/>
<text text-anchor="middle" x="7.90921" y="87.7701" font-family="Times,serif" font-size="14.00">2</text>
</g>
<!-- anon_2_3_0 -->
<g id="node5" class="node"><title>anon_2_3_0</title>
<ellipse fill="white" stroke="black" cx="3.99911" cy="28.3594" rx="2.5" ry="2.5"/>
</g>
<!-- 2&#45;&#45;anon_2_3_0 -->
<g id="edge3" class="edge"><title>2&#45;&#45;anon_2_3_0</title>
<path fill="none" stroke="black" d="M6.77825,67.9562C5.85802,54.8448 4.63962,37.4853 4.18262,30.974"/>
</g>
<!-- anon_2_3_0&#45;&#45;3 -->
<g id="edge4" class="edge"><title>anon_2_3_0&#45;&#45;3</title>
<path fill="none" stroke="black" d="M3.77873,25.7964C3.11907,18.1246 1.16559,-4.59415 0.513564,-12.1771"/>
</g>
</g>
</svg>
