<?xml version="1.0" encoding="UTF-8" standalone="no"?>
<!DOCTYPE svg PUBLIC "-//W3C//DTD SVG 1.1//EN"
 "http://www.w3.org/Graphics/SVG/1.1/DTD/svg11.dtd">
<!-- Generated by graphviz version 2.38.0 (20140413.2041)
 -->
<!-- Title: %3 Pages: 1 -->
<svg width="164pt" height="229pt"
 viewBox="0.00 0.00 164.39 229.11" xmlns="http://www.w3.org/2000/svg" xmlns:xlink="http://www.w3.org/1999/xlink">
<g id="graph0" class="graph" transform="scale(1 1) rotate(0) translate(76.5742 102.702)">
<title>%3</title>
<polygon fill="white" stroke="none" points="-76.5742,126.41 -76.5742,-102.702 87.8128,-102.702 87.8128,126.41 -76.5742,126.41"/>
<!-- 0 -->
<g id="node1" class="node"><title>0</title>
<ellipse fill="grey" stroke="black" cx="-49.5742" cy="-14.0886" rx="23" ry="23"/>
<text text-anchor="middle" x="-49.5742" y="-10.3886" font-family="Times,serif" font-size="14.00">0</text>
</g>
<!-- 4 -->
<g id="node5" class="node"><title>4</title>
<ellipse fill="white" stroke="black" cx="41.1536" cy="33.9573" rx="2.5" ry="2.5"/>
<text text-anchor="middle" x="41.1536" y="37.6573" font-family="Times,serif" font-size="14.00">4</text>
</g>
<!-- 0&#45;&#45;4 -->
<g id="edge1" class="edge"><title>0&#45;&#45;4</title>
<path fill="none" stroke="black" d="M-28.9866,-3.18626C-5.98245,8.99588 29.2837,27.6715 38.7473,32.6831"/>
</g>
<!-- 5 -->
<g id="node6" class="node"><title>5</title>
<ellipse fill="white" stroke="black" cx="15.361" cy="-58.0153" rx="2.5" ry="2.5"/>
<text text-anchor="middle" x="15.361" y="-54.3153" font-family="Times,serif" font-size="14.00">5</text>
</g>
<!-- 0&#45;&#45;5 -->
<g id="edge2" class="edge"><title>0&#45;&#45;5</title>
<path fill="none" stroke="black" d="M-30.4427,-27.0305C-14.5806,-37.7607 6.42164,-51.9681 13.1726,-56.5349"/>
</g>
<!-- 6 -->
<g id="node7" class="node"><title>6</title>
<ellipse fill="white" stroke="black" cx="-31.1696" cy="19.3479" rx="2.5" ry="2.5"/>
<text text-anchor="middle" x="-31.1696" y="23.0479" font-family="Times,serif" font-size="14.00">6</text>
</g>
<!-- 0&#45;&#45;6 -->
<g id="edge3" class="edge"><title>0&#45;&#45;6</title>
<path fill="none" stroke="black" d="M-38.4436,6.13289C-36.0211,10.5339 -33.7853,14.5957 -32.4492,17.0233"/>
</g>
<!-- 1 -->
<g id="node2" class="node"><title>1</title>
<ellipse fill="grey" stroke="black" cx="67.8128" cy="-22.1213" rx="16" ry="16"/>
<text text-anchor="middle" x="67.8128" y="-18.4213" font-family="Times,serif" font-size="14.00">1</text>
</g>
<!-- 1&#45;&#45;4 -->
<g id="edge4" class="edge"><title>1&#45;&#45;4</title>
<path fill="none" stroke="black" d="M60.8084,-7.38729C54.3908,6.11251 45.4266,24.9691 42.2906,31.5657"/>
</g>
<!-- 1&#45;&#45;5 -->
<g id="edge10" class="edge"><title>1&#45;&#45;5</title>
<path fill="none" stroke="black" stroke-dasharray="5,2" d="M54.577,-31.1789C41.952,-39.8184 23.9539,-52.1349 17.6485,-56.4499"/>
</g>
<!-- 7 -->
<g id="node8" class="node"><title>7</title>
<ellipse fill="white" stroke="black" cx="18.2736" cy="0.702473" rx="2.5" ry="2.5"/>
<text text-anchor="middle" x="18.2736" y="4.40247" font-family="Times,serif" font-size="14.00">7</text>
</g>
<!-- 1&#45;&#45;7 -->
<g id="edge5" class="edge"><title>1&#45;&#45;7</title>
<path fill="none" stroke="black" d="M53.2174,-15.3969C41.5727,-10.0319 26.2971,-2.99413 20.5718,-0.356371"/>
</g>
<!-- 2 -->
<g id="node3" class="node"><title>2</title>
<ellipse fill="grey" stroke="black" cx="2.89261" cy="106.41" rx="16" ry="16"/>
<text text-anchor="middle" x="2.89261" y="110.11" font-family="Times,serif" font-size="14.00">2</text>
</g>
<!-- 8 -->
<g id="node9" class="node"><title>8</title>
<ellipse fill="white" stroke="black" cx="3.58406" cy="46.5568" rx="2.5" ry="2.5"/>
<text text-anchor="middle" x="3.58406" y="50.2568" font-family="Times,serif" font-size="14.00">8</text>
</g>
<!-- 2&#45;&#45;8 -->
<g id="edge6" class="edge"><title>2&#45;&#45;8</title>
<path fill="none" stroke="black" d="M3.07791,90.3703C3.24432,75.9653 3.47445,56.0447 3.5549,49.0808"/>
</g>
<!-- 3 -->
<g id="node4" class="node"><title>3</title>
<ellipse fill="grey" stroke="black" cx="-53.6022" cy="-82.7024" rx="16" ry="16"/>
<text text-anchor="middle" x="-53.6022" y="-79.0024" font-family="Times,serif" font-size="14.00">3</text>
</g>
<!-- 9 -->
<g id="node10" class="node"><title>9</title>
<ellipse fill="white" stroke="black" cx="-14.7317" cy="-30.0467" rx="2.5" ry="2.5"/>
<text text-anchor="middle" x="-14.7317" y="-26.3467" font-family="Times,serif" font-size="14.00">9</text>
</g>
<!-- 3&#45;&#45;9 -->
<g id="edge7" class="edge"><title>3&#45;&#45;9</title>
<path fill="none" stroke="black" d="M-43.9938,-69.6864C-34.6413,-57.0172 -21.1691,-38.767 -16.4458,-32.3686"/>
</g>
<!-- 4&#45;&#45;8 -->
<g id="edge8" class="edge"><title>4&#45;&#45;8</title>
<path fill="none" stroke="black" d="M38.6886,34.784C31.8975,37.0615 12.9675,43.4099 6.10744,45.7105"/>
</g>
<!-- 5&#45;&#45;9 -->
<g id="edge9" class="edge"><title>5&#45;&#45;9</title>
<path fill="none" stroke="black" d="M13.3865,-56.1802C7.94697,-51.1246 -7.21573,-37.0321 -12.7105,-31.9252"/>
</g>
<!-- 6&#45;&#45;8 -->
<g id="edge11" class="edge"><title>6&#45;&#45;8</title>
<path fill="none" stroke="black" stroke-dasharray="5,2" d="M-28.8893,21.1331C-22.4865,26.146 -4.41838,40.2916 1.60337,45.0061"/>
</g>
<!-- 6&#45;&#45;9 -->
<g id="edge12" class="edge"><title>6&#45;&#45;9</title>
<path fill="none" stroke="black" stroke-dasharray="5,2" d="M-30.3768,16.9655C-27.6063,8.64042 -18.373,-19.1047 -15.5553,-27.5718"/>
</g>
<!-- 7&#45;&#45;8 -->
<g id="edge13" class="edge"><title>7&#45;&#45;8</title>
<path fill="none" stroke="black" stroke-dasharray="5,2" d="M17.4838,3.1678C14.9571,11.0552 7.08292,35.6349 4.45082,43.8511"/>
</g>
<!-- 7&#45;&#45;9 -->
<g id="edge14" class="edge"><title>7&#45;&#45;9</title>
<path fill="none" stroke="black" stroke-dasharray="5,2" d="M16.108,-1.31507C10.0273,-6.98015 -7.13184,-22.9663 -12.8507,-28.2942"/>
</g>
</g>
</svg>
