<?xml version="1.0" encoding="UTF-8" standalone="no"?>
<!DOCTYPE svg PUBLIC "-//W3C//DTD SVG 1.1//EN"
 "http://www.w3.org/Graphics/SVG/1.1/DTD/svg11.dtd">
<!-- Generated by graphviz version 2.38.0 (20140413.2041)
 -->
<!-- Title: %3 Pages: 1 -->
<svg width="235pt" height="237pt"
 viewBox="0.00 0.00 235.34 237.00" xmlns="http://www.w3.org/2000/svg" xmlns:xlink="http://www.w3.org/1999/xlink">
<g id="graph0" class="graph" transform="scale(1 1) rotate(0) translate(119.718 119.912)">
<title>%3</title>
<polygon fill="white" stroke="none" points="-119.718,117.089 -119.718,-119.912 115.624,-119.912 115.624,117.089 -119.718,117.089"/>
<!-- 0 -->
<g id="node1" class="node"><title>0</title>
<ellipse fill="grey" stroke="black" cx="-69.8428" cy="-74.5201" rx="23" ry="23"/>
<text text-anchor="middle" x="-69.8428" y="-70.8201" font-family="monospace" font-size="14.00">0</text>
</g>
<!-- anon_0_1_0 -->
<g id="node4" class="node"><title>anon_0_1_0</title>
<ellipse fill="white" stroke="black" cx="8.79492" cy="-101.412" rx="14.5" ry="14.5"/>
</g>
<!-- 0&#45;&#45;anon_0_1_0 -->
<g id="edge1" class="edge"><title>0&#45;&#45;anon_0_1_0</title>
<path fill="none" stroke="black" d="M-47.9378,-82.011C-34.304,-86.6733 -17.1697,-92.5328 -5.31782,-96.5858"/>
</g>
<!-- anon_0_2_0 -->
<g id="node5" class="node"><title>anon_0_2_0</title>
<ellipse fill="white" stroke="black" cx="-101.218" cy="2.37349" rx="14.5" ry="14.5"/>
</g>
<!-- 0&#45;&#45;anon_0_2_0 -->
<g id="edge3" class="edge"><title>0&#45;&#45;anon_0_2_0</title>
<path fill="none" stroke="black" d="M-78.5824,-53.101C-84.022,-39.7696 -90.8582,-23.0153 -95.5869,-11.4262"/>
</g>
<!-- 1 -->
<g id="node2" class="node"><title>1</title>
<ellipse fill="grey" stroke="black" cx="74.7545" cy="-66.6915" rx="16" ry="16"/>
<text text-anchor="middle" x="74.7545" y="-62.9915" font-family="monospace" font-size="14.00">1</text>
</g>
<!-- anon_1_2_0 -->
<g id="node7" class="node"><title>anon_1_2_0</title>
<ellipse fill="white" stroke="black" cx="97.1236" cy="4.42215" rx="14.5" ry="14.5"/>
</g>
<!-- 1&#45;&#45;anon_1_2_0 -->
<g id="edge6" class="edge"><title>1&#45;&#45;anon_1_2_0</title>
<path fill="none" stroke="black" stroke-dasharray="5,2" d="M79.6083,-51.2609C83.5145,-38.8426 88.9569,-21.5405 92.7342,-9.53217"/>
</g>
<!-- 2 -->
<g id="node3" class="node"><title>2</title>
<ellipse fill="grey" stroke="black" cx="-3.3974" cy="97.0892" rx="16" ry="16"/>
<text text-anchor="middle" x="-3.3974" y="100.789" font-family="monospace" font-size="14.00">2</text>
</g>
<!-- anon_0_1_0&#45;&#45;1 -->
<g id="edge2" class="edge"><title>anon_0_1_0&#45;&#45;1</title>
<path fill="none" stroke="black" d="M21.8264,-94.5523C32.9395,-88.7025 48.8932,-80.3046 60.3762,-74.2601"/>
</g>
<!-- anon_0_2_1 -->
<g id="node6" class="node"><title>anon_0_2_1</title>
<ellipse fill="white" stroke="black" cx="-72.4053" cy="68.7687" rx="14.5" ry="14.5"/>
</g>
<!-- anon_0_2_0&#45;&#45;anon_0_2_1 -->
<g id="edge4" class="edge"><title>anon_0_2_0&#45;&#45;anon_0_2_1</title>
<path fill="none" stroke="black" d="M-95.387,15.8096C-90.3882,27.3288 -83.2235,43.8392 -78.2272,55.3527"/>
</g>
<!-- anon_0_2_1&#45;&#45;2 -->
<g id="edge5" class="edge"><title>anon_0_2_1&#45;&#45;2</title>
<path fill="none" stroke="black" d="M-58.7716,74.3639C-47.1449,79.1355 -30.4539,85.9853 -18.4402,90.9157"/>
</g>
<!-- anon_1_2_1 -->
<g id="node8" class="node"><title>anon_1_2_1</title>
<ellipse fill="white" stroke="black" cx="66.19" cy="69.9699" rx="14.5" ry="14.5"/>
</g>
<!-- anon_1_2_0&#45;&#45;anon_1_2_1 -->
<g id="edge7" class="edge"><title>anon_1_2_0&#45;&#45;anon_1_2_1</title>
<path fill="none" stroke="black" stroke-dasharray="5,2" d="M90.8637,17.6867C85.4969,29.059 77.8047,45.3585 72.4406,56.7251"/>
</g>
<!-- anon_1_2_1&#45;&#45;2 -->
<g id="edge8" class="edge"><title>anon_1_2_1&#45;&#45;2</title>
<path fill="none" stroke="black" stroke-dasharray="5,2" d="M52.4418,75.3278C40.7175,79.897 23.8863,86.4563 11.7718,91.1775"/>
</g>
</g>
</svg>
