<?xml version="1.0" encoding="UTF-8" standalone="no"?>
<!DOCTYPE svg PUBLIC "-//W3C//DTD SVG 1.1//EN"
 "http://www.w3.org/Graphics/SVG/1.1/DTD/svg11.dtd">
<!-- Generated by graphviz version 2.38.0 (20140413.2041)
 -->
<!-- Title: %3 Pages: 1 -->
<svg width="271pt" height="377pt"
 viewBox="0.00 0.00 270.62 376.80" xmlns="http://www.w3.org/2000/svg" xmlns:xlink="http://www.w3.org/1999/xlink">
<g id="graph0" class="graph" transform="scale(1 1) rotate(0) translate(137.737 188.161)">
<title>%3</title>
<polygon fill="white" stroke="none" points="-137.737,188.635 -137.737,-188.161 132.879,-188.161 132.879,188.635 -137.737,188.635"/>
<!-- 0 -->
<g id="node1" class="node"><title>0</title>
<ellipse fill="grey" stroke="black" cx="-79.3028" cy="-15.0944" rx="23" ry="23"/>
<text text-anchor="middle" x="-79.3028" y="-11.3944" font-family="monospace" font-size="14.00">0</text>
</g>
<!-- anon_0_1_0 -->
<g id="node5" class="node"><title>anon_0_1_0</title>
<ellipse fill="white" stroke="black" cx="3.40853" cy="0.778701" rx="14.5" ry="14.5"/>
</g>
<!-- 0&#45;&gt;anon_0_1_0 -->
<g id="edge1" class="edge"><title>0&#45;&gt;anon_0_1_0</title>
<path fill="none" stroke="black" d="M-56.7016,-10.757C-43.9786,-8.31534 -28.2511,-5.29709 -16.0751,-2.96039"/>
<polygon fill="black" stroke="black" points="-15.6739,-4.66541 -11.0933,-2.00434 -16.3336,-1.22814 -15.6739,-4.66541"/>
<text text-anchor="middle" x="-40.8883" y="-10.6587" font-family="monospace" font-size="14.00">A</text>
</g>
<!-- anon_0_2_0 -->
<g id="node6" class="node"><title>anon_0_2_0</title>
<ellipse fill="white" stroke="black" cx="-119.237" cy="59.7449" rx="14.5" ry="14.5"/>
</g>
<!-- 0&#45;&gt;anon_0_2_0 -->
<g id="edge3" class="edge"><title>0&#45;&gt;anon_0_2_0</title>
<path fill="none" stroke="black" d="M-90.2149,5.35578C-96.3577,16.8678 -103.951,31.0985 -109.83,42.1156"/>
<polygon fill="black" stroke="black" points="-108.337,43.0358 -112.235,46.6232 -111.425,41.3881 -108.337,43.0358"/>
<text text-anchor="middle" x="-104.522" y="19.9357" font-family="monospace" font-size="14.00">A</text>
</g>
<!-- anon_0_3_0 -->
<g id="node8" class="node"><title>anon_0_3_0</title>
<ellipse fill="white" stroke="black" cx="-88.7052" cy="-99.391" rx="14.5" ry="14.5"/>
</g>
<!-- 0&#45;&gt;anon_0_3_0 -->
<g id="edge6" class="edge"><title>0&#45;&gt;anon_0_3_0</title>
<path fill="none" stroke="black" d="M-81.8721,-38.1288C-83.3184,-51.0956 -85.1062,-67.1246 -86.4904,-79.534"/>
<polygon fill="black" stroke="black" points="-88.2416,-79.448 -87.0567,-84.6112 -84.7631,-79.8361 -88.2416,-79.448"/>
<text text-anchor="middle" x="-88.6812" y="-62.6314" font-family="monospace" font-size="14.00">B</text>
</g>
<!-- 1 -->
<g id="node2" class="node"><title>1</title>
<ellipse fill="grey" stroke="black" cx="77.8915" cy="14.8618" rx="16" ry="16"/>
<text text-anchor="middle" x="77.8915" y="18.5618" font-family="monospace" font-size="14.00">1</text>
</g>
<!-- 2 -->
<g id="node3" class="node"><title>2</title>
<ellipse fill="grey" stroke="black" cx="-30.7042" cy="168.635" rx="16" ry="16"/>
<text text-anchor="middle" x="-30.7042" y="172.335" font-family="monospace" font-size="14.00">2</text>
</g>
<!-- 3 -->
<g id="node4" class="node"><title>3</title>
<ellipse fill="grey" stroke="black" cx="33.5611" cy="-168.161" rx="16" ry="16"/>
<text text-anchor="middle" x="33.5611" y="-164.461" font-family="monospace" font-size="14.00">3</text>
</g>
<!-- anon_0_1_0&#45;&gt;1 -->
<g id="edge2" class="edge"><title>anon_0_1_0&#45;&gt;1</title>
<path fill="none" stroke="black" d="M17.7696,3.49406C28.8663,5.5922 44.388,8.52701 56.8804,10.8891"/>
<polygon fill="black" stroke="black" points="57.4394,9.21365 62.0272,11.8622 56.7891,12.6527 57.4394,9.21365"/>
<text text-anchor="middle" x="32.825" y="3.39156" font-family="monospace" font-size="14.00">B</text>
</g>
<!-- anon_0_2_1 -->
<g id="node7" class="node"><title>anon_0_2_1</title>
<ellipse fill="white" stroke="black" cx="-97.9819" cy="130.973" rx="14.5" ry="14.5"/>
</g>
<!-- anon_0_2_0&#45;&gt;anon_0_2_1 -->
<g id="edge4" class="edge"><title>anon_0_2_0&#45;&gt;anon_0_2_1</title>
<path fill="none" stroke="black" d="M-115.037,73.8173C-111.777,84.7437 -107.223,100.003 -103.641,112.007"/>
<polygon fill="black" stroke="black" points="-101.925,111.638 -102.172,116.93 -105.279,112.639 -101.925,111.638"/>
<text text-anchor="middle" x="-113.839" y="89.1122" font-family="monospace" font-size="14.00">C</text>
</g>
<!-- anon_0_2_1&#45;&gt;2 -->
<g id="edge5" class="edge"><title>anon_0_2_1&#45;&gt;2</title>
<path fill="none" stroke="black" d="M-85.3275,138.057C-75.1121,143.776 -60.5979,151.901 -49.0983,158.338"/>
<polygon fill="black" stroke="black" points="-48.2034,156.833 -44.6953,160.803 -49.913,159.888 -48.2034,156.833"/>
<text text-anchor="middle" x="-71.7129" y="144.398" font-family="monospace" font-size="14.00">D</text>
</g>
<!-- anon_0_3_1 -->
<g id="node9" class="node"><title>anon_0_3_1</title>
<ellipse fill="white" stroke="black" cx="-42.8478" cy="-157.875" rx="14.5" ry="14.5"/>
</g>
<!-- anon_0_3_0&#45;&gt;anon_0_3_1 -->
<g id="edge7" class="edge"><title>anon_0_3_0&#45;&gt;anon_0_3_1</title>
<path fill="none" stroke="black" d="M-79.6453,-110.946C-72.6108,-119.917 -62.7865,-132.446 -55.0584,-142.302"/>
<polygon fill="black" stroke="black" points="-56.3513,-143.49 -51.8889,-146.345 -53.597,-141.33 -56.3513,-143.49"/>
<text text-anchor="middle" x="-71.8518" y="-130.424" font-family="monospace" font-size="14.00">C</text>
</g>
<!-- anon_0_3_1&#45;&gt;3 -->
<g id="edge8" class="edge"><title>anon_0_3_1&#45;&gt;3</title>
<path fill="none" stroke="black" d="M-28.4759,-159.81C-16.874,-161.372 -0.389941,-163.591 12.6705,-165.349"/>
<polygon fill="black" stroke="black" points="12.4823,-167.089 17.6711,-166.022 12.9493,-163.621 12.4823,-167.089"/>
<text text-anchor="middle" x="-12.4027" y="-166.38" font-family="monospace" font-size="14.00">E</text>
</g>
<!-- anon_1_2_0 -->
<g id="node10" class="node"><title>anon_1_2_0</title>
<ellipse fill="white" stroke="black" cx="87.1689" cy="90.8695" rx="14.5" ry="14.5"/>
</g>
<!-- anon_1_2_0&#45;&gt;1 -->
<g id="edge9" class="edge"><title>anon_1_2_0&#45;&gt;1</title>
<path fill="none" stroke="black" stroke-dasharray="5,2" d="M85.3801,76.2144C83.9887,64.815 82.0388,48.8397 80.4775,36.0484"/>
<polygon fill="black" stroke="black" points="78.7037,35.9591 79.8349,30.7839 82.1779,35.535 78.7037,35.9591"/>
<text text-anchor="middle" x="78.4288" y="52.3314" font-family="monospace" font-size="14.00">B</text>
</g>
<!-- anon_1_2_1 -->
<g id="node11" class="node"><title>anon_1_2_1</title>
<ellipse fill="white" stroke="black" cx="44.7309" cy="152.207" rx="14.5" ry="14.5"/>
</g>
<!-- anon_1_2_0&#45;&gt;anon_1_2_1 -->
<g id="edge10" class="edge"><title>anon_1_2_0&#45;&gt;anon_1_2_1</title>
<path fill="none" stroke="black" stroke-dasharray="5,2" d="M78.7845,102.988C72.2746,112.397 63.1829,125.537 56.031,135.874"/>
<polygon fill="black" stroke="black" points="57.3819,136.997 53.0979,140.114 54.5036,135.006 57.3819,136.997"/>
<text text-anchor="middle" x="62.9078" y="115.631" font-family="monospace" font-size="14.00">C</text>
</g>
<!-- anon_1_2_1&#45;&gt;2 -->
<g id="edge11" class="edge"><title>anon_1_2_1&#45;&gt;2</title>
<path fill="none" stroke="black" stroke-dasharray="5,2" d="M30.5421,155.297C19.0881,157.791 2.81411,161.335 -10.0799,164.143"/>
<polygon fill="black" stroke="black" points="-9.75886,165.864 -15.0168,165.219 -10.5037,162.445 -9.75886,165.864"/>
<text text-anchor="middle" x="5.73113" y="155.92" font-family="monospace" font-size="14.00">D</text>
</g>
<!-- anon_1_3_0 -->
<g id="node12" class="node"><title>anon_1_3_0</title>
<ellipse fill="white" stroke="black" cx="114.379" cy="-52.4368" rx="14.5" ry="14.5"/>
</g>
<!-- anon_1_3_0&#45;&gt;1 -->
<g id="edge12" class="edge"><title>anon_1_3_0&#45;&gt;1</title>
<path fill="none" stroke="black" stroke-dasharray="5,2" d="M107.344,-39.4609C101.908,-29.4346 94.304,-15.4101 88.1842,-4.12259"/>
<polygon fill="black" stroke="black" points="89.5846,-3.03373 85.663,0.527703 86.5077,-4.70195 89.5846,-3.03373"/>
<text text-anchor="middle" x="93.264" y="-25.5918" font-family="monospace" font-size="14.00">A</text>
</g>
<!-- anon_1_3_1 -->
<g id="node13" class="node"><title>anon_1_3_1</title>
<ellipse fill="white" stroke="black" cx="97.6391" cy="-125.111" rx="14.5" ry="14.5"/>
</g>
<!-- anon_1_3_0&#45;&gt;anon_1_3_1 -->
<g id="edge13" class="edge"><title>anon_1_3_0&#45;&gt;anon_1_3_1</title>
<path fill="none" stroke="black" stroke-dasharray="5,2" d="M111.072,-66.7948C108.504,-77.943 104.917,-93.5123 102.096,-105.76"/>
<polygon fill="black" stroke="black" points="100.356,-105.517 100.939,-110.783 103.767,-106.303 100.356,-105.517"/>
<text text-anchor="middle" x="102.084" y="-90.0773" font-family="monospace" font-size="14.00">C</text>
</g>
<!-- anon_1_3_1&#45;&gt;3 -->
<g id="edge14" class="edge"><title>anon_1_3_1&#45;&gt;3</title>
<path fill="none" stroke="black" stroke-dasharray="5,2" d="M85.5865,-133.208C75.8569,-139.745 62.033,-149.033 51.0803,-156.391"/>
<polygon fill="black" stroke="black" points="50.0611,-154.968 46.8867,-159.209 52.013,-157.873 50.0611,-154.968"/>
<text text-anchor="middle" x="63.8334" y="-148.6" font-family="monospace" font-size="14.00">E</text>
</g>
</g>
</svg>
