<?xml version="1.0" encoding="UTF-8" standalone="no"?>
<!DOCTYPE svg PUBLIC "-//W3C//DTD SVG 1.1//EN"
 "http://www.w3.org/Graphics/SVG/1.1/DTD/svg11.dtd">
<!-- Generated by graphviz version 2.38.0 (20140413.2041)
 -->
<!-- Title: %3 Pages: 1 -->
<svg width="187pt" height="291pt"
 viewBox="0.00 0.00 186.99 290.70" xmlns="http://www.w3.org/2000/svg" xmlns:xlink="http://www.w3.org/1999/xlink">
<g id="graph0" class="graph" transform="scale(1 1) rotate(0) translate(86.6322 123.883)">
<title>%3</title>
<polygon fill="white" stroke="none" points="-86.6322,166.814 -86.6322,-123.883 100.358,-123.883 100.358,166.814 -86.6322,166.814"/>
<!-- 0 -->
<g id="node1" class="node"><title>0</title>
<ellipse fill="grey" stroke="black" cx="-59.6322" cy="-31.1016" rx="23" ry="23"/>
<text text-anchor="middle" x="-59.6322" y="-27.4016" font-family="monospace" font-size="14.00">0</text>
</g>
<!-- 4 -->
<g id="node5" class="node"><title>4</title>
<ellipse fill="white" stroke="black" cx="19.1023" cy="16.7785" rx="14.5" ry="14.5"/>
<text text-anchor="middle" x="19.1023" y="20.4785" font-family="monospace" font-size="14.00">4</text>
</g>
<!-- 0&#45;&#45;4 -->
<g id="edge1" class="edge"><title>0&#45;&#45;4</title>
<path fill="none" stroke="black" d="M-39.7642,-19.0195C-25.1864,-10.1544 -5.83611,1.61294 6.62659,9.19179"/>
</g>
<!-- 5 -->
<g id="node6" class="node"><title>5</title>
<ellipse fill="white" stroke="black" cx="21.6507" cy="-84.9531" rx="14.5" ry="14.5"/>
<text text-anchor="middle" x="21.6507" y="-81.2531" font-family="monospace" font-size="14.00">5</text>
</g>
<!-- 0&#45;&#45;5 -->
<g id="edge2" class="edge"><title>0&#45;&#45;5</title>
<path fill="none" stroke="black" d="M-40.3693,-43.8637C-24.9709,-54.0654 -3.84866,-68.0593 9.34425,-76.7998"/>
</g>
<!-- 6 -->
<g id="node7" class="node"><title>6</title>
<ellipse fill="white" stroke="black" cx="-56.6195" cy="33.8955" rx="14.5" ry="14.5"/>
<text text-anchor="middle" x="-56.6195" y="37.5955" font-family="monospace" font-size="14.00">6</text>
</g>
<!-- 0&#45;&#45;6 -->
<g id="edge3" class="edge"><title>0&#45;&#45;6</title>
<path fill="none" stroke="black" d="M-58.5615,-8.00307C-58.1421,1.04605 -57.6733,11.159 -57.3015,19.1822"/>
</g>
<!-- 1 -->
<g id="node2" class="node"><title>1</title>
<ellipse fill="grey" stroke="black" cx="80.3577" cy="-37.455" rx="16" ry="16"/>
<text text-anchor="middle" x="80.3577" y="-33.755" font-family="monospace" font-size="14.00">1</text>
</g>
<!-- 1&#45;&#45;4 -->
<g id="edge4" class="edge"><title>1&#45;&#45;4</title>
<path fill="none" stroke="black" d="M68.2556,-26.7402C57.2377,-16.9853 41.0966,-2.69445 30.3531,6.81747"/>
</g>
<!-- 1&#45;&#45;5 -->
<g id="edge10" class="edge"><title>1&#45;&#45;5</title>
<path fill="none" stroke="black" stroke-dasharray="5,2" d="M67.9074,-47.5281C57.6754,-55.8065 43.2866,-67.4481 33.2844,-75.5406"/>
</g>
<!-- 7 -->
<g id="node8" class="node"><title>7</title>
<ellipse fill="white" stroke="black" cx="56.0188" cy="19.1092" rx="14.5" ry="14.5"/>
<text text-anchor="middle" x="56.0188" y="22.8092" font-family="monospace" font-size="14.00">7</text>
</g>
<!-- 1&#45;&#45;7 -->
<g id="edge5" class="edge"><title>1&#45;&#45;7</title>
<path fill="none" stroke="black" d="M73.9629,-22.5934C70.1883,-13.8211 65.4488,-2.80638 61.7887,5.69977"/>
</g>
<!-- 2 -->
<g id="node3" class="node"><title>2</title>
<ellipse fill="grey" stroke="black" cx="13.1244" cy="146.814" rx="16" ry="16"/>
<text text-anchor="middle" x="13.1244" y="150.514" font-family="monospace" font-size="14.00">2</text>
</g>
<!-- 8 -->
<g id="node9" class="node"><title>8</title>
<ellipse fill="white" stroke="black" cx="6.64998" cy="76.923" rx="14.5" ry="14.5"/>
<text text-anchor="middle" x="6.64998" y="80.623" font-family="monospace" font-size="14.00">8</text>
</g>
<!-- 2&#45;&#45;8 -->
<g id="edge6" class="edge"><title>2&#45;&#45;8</title>
<path fill="none" stroke="black" d="M11.6227,130.604C10.532,118.829 9.06793,103.025 8.01117,91.6171"/>
</g>
<!-- 3 -->
<g id="node4" class="node"><title>3</title>
<ellipse fill="grey" stroke="black" cx="-66.2228" cy="-103.883" rx="16" ry="16"/>
<text text-anchor="middle" x="-66.2228" y="-100.183" font-family="monospace" font-size="14.00">3</text>
</g>
<!-- 9 -->
<g id="node10" class="node"><title>9</title>
<ellipse fill="white" stroke="black" cx="-14.4294" cy="-36.1274" rx="14.5" ry="14.5"/>
<text text-anchor="middle" x="-14.4294" y="-32.4274" font-family="monospace" font-size="14.00">9</text>
</g>
<!-- 3&#45;&#45;9 -->
<g id="edge7" class="edge"><title>3&#45;&#45;9</title>
<path fill="none" stroke="black" d="M-56.4808,-91.139C-46.9866,-78.7186 -32.6689,-59.9883 -23.4345,-47.9078"/>
</g>
<!-- 4&#45;&#45;8 -->
<g id="edge8" class="edge"><title>4&#45;&#45;8</title>
<path fill="none" stroke="black" d="M16.1513,31.032C14.195,40.4805 11.6358,52.8417 9.66633,62.3541"/>
</g>
<!-- 5&#45;&#45;9 -->
<g id="edge9" class="edge"><title>5&#45;&#45;9</title>
<path fill="none" stroke="black" d="M12.9167,-73.1337C7.24403,-65.4571 -0.119247,-55.4927 -5.77587,-47.8379"/>
</g>
<!-- 6&#45;&#45;8 -->
<g id="edge11" class="edge"><title>6&#45;&#45;8</title>
<path fill="none" stroke="black" stroke-dasharray="5,2" d="M-44.4205,42.1917C-33.2169,49.8109 -16.7033,61.0412 -5.51155,68.6524"/>
</g>
<!-- 6&#45;&#45;9 -->
<g id="edge12" class="edge"><title>6&#45;&#45;9</title>
<path fill="none" stroke="black" stroke-dasharray="5,2" d="M-49.0767,21.3768C-41.4922,8.78866 -29.8542,-10.5269 -22.1923,-23.2433"/>
</g>
<!-- 7&#45;&#45;8 -->
<g id="edge13" class="edge"><title>7&#45;&#45;8</title>
<path fill="none" stroke="black" stroke-dasharray="5,2" d="M46.5,30.2563C37.7579,40.4938 24.8724,55.5835 16.1396,65.8102"/>
</g>
<!-- 7&#45;&#45;9 -->
<g id="edge14" class="edge"><title>7&#45;&#45;9</title>
<path fill="none" stroke="black" stroke-dasharray="5,2" d="M44.3857,9.98797C31.2546,-0.307759 10.0285,-16.9506 -3.01282,-27.1759"/>
</g>
</g>
</svg>
