<?xml version="1.0" encoding="UTF-8" standalone="no"?>
<!DOCTYPE svg PUBLIC "-//W3C//DTD SVG 1.1//EN"
 "http://www.w3.org/Graphics/SVG/1.1/DTD/svg11.dtd">
<!-- Generated by graphviz version 2.38.0 (20140413.2041)
 -->
<!-- Title: %3 Pages: 1 -->
<svg width="169pt" height="179pt"
 viewBox="0.00 0.00 169.20 179.17" xmlns="http://www.w3.org/2000/svg" xmlns:xlink="http://www.w3.org/1999/xlink">
<g id="graph0" class="graph" transform="scale(1 1) rotate(0) translate(86.1071 87.1522)">
<title>%3</title>
<polygon fill="white" stroke="none" points="-86.1071,92.0213 -86.1071,-87.1522 83.0942,-87.1522 83.0942,92.0213 -86.1071,92.0213"/>
<!-- 0 -->
<g id="node1" class="node"><title>0</title>
<ellipse fill="grey" stroke="black" cx="-56.2796" cy="-59.2245" rx="23" ry="23"/>
<text text-anchor="middle" x="-56.2796" y="-55.5245" font-family="Times,serif" font-size="14.00">0</text>
</g>
<!-- anon_0_1_0 -->
<g id="node4" class="node"><title>anon_0_1_0</title>
<ellipse fill="white" stroke="black" cx="10.5911" cy="-80.6522" rx="2.5" ry="2.5"/>
</g>
<!-- 0&#45;&#45;anon_0_1_0 -->
<g id="edge1" class="edge"><title>0&#45;&#45;anon_0_1_0</title>
<path fill="none" stroke="black" d="M-34.0126,-66.3596C-18.2073,-71.4242 1.3598,-77.6942 8.1418,-79.8674"/>
</g>
<!-- anon_0_2_0 -->
<g id="node5" class="node"><title>anon_0_2_0</title>
<ellipse fill="white" stroke="black" cx="-79.6071" cy="6.64931" rx="2.5" ry="2.5"/>
</g>
<!-- 0&#45;&#45;anon_0_2_0 -->
<g id="edge3" class="edge"><title>0&#45;&#45;anon_0_2_0</title>
<path fill="none" stroke="black" d="M-64.0473,-37.2895C-69.5609,-21.7198 -76.3868,-2.44436 -78.7527,4.23653"/>
</g>
<!-- 1 -->
<g id="node2" class="node"><title>1</title>
<ellipse fill="grey" stroke="black" cx="63.0942" cy="-48.5455" rx="16" ry="16"/>
<text text-anchor="middle" x="63.0942" y="-44.8455" font-family="Times,serif" font-size="14.00">1</text>
</g>
<!-- anon_1_2_0 -->
<g id="node7" class="node"><title>anon_1_2_0</title>
<ellipse fill="white" stroke="black" cx="74.8477" cy="11.7128" rx="2.5" ry="2.5"/>
</g>
<!-- 1&#45;&#45;anon_1_2_0 -->
<g id="edge6" class="edge"><title>1&#45;&#45;anon_1_2_0</title>
<path fill="none" stroke="black" stroke-dasharray="5,2" d="M66.1823,-32.7133C69.0117,-18.2074 72.9638,2.05456 74.3464,9.14281"/>
</g>
<!-- 2 -->
<g id="node3" class="node"><title>2</title>
<ellipse fill="grey" stroke="black" cx="-4.73429" cy="72.0213" rx="16" ry="16"/>
<text text-anchor="middle" x="-4.73429" y="75.7213" font-family="Times,serif" font-size="14.00">2</text>
</g>
<!-- anon_0_1_0&#45;&#45;1 -->
<g id="edge2" class="edge"><title>anon_0_1_0&#45;&#45;1</title>
<path fill="none" stroke="black" d="M12.8471,-79.2727C19.0495,-75.4798 36.736,-64.6641 49.3682,-56.9392"/>
</g>
<!-- anon_0_2_1 -->
<g id="node6" class="node"><title>anon_0_2_1</title>
<ellipse fill="white" stroke="black" cx="-61.0419" cy="47.2264" rx="2.5" ry="2.5"/>
</g>
<!-- anon_0_2_0&#45;&#45;anon_0_2_1 -->
<g id="edge4" class="edge"><title>anon_0_2_0&#45;&#45;anon_0_2_1</title>
<path fill="none" stroke="black" d="M-78.389,9.31169C-74.9686,16.7874 -65.3168,37.883 -62.1,44.9138"/>
</g>
<!-- anon_0_2_1&#45;&#45;2 -->
<g id="edge5" class="edge"><title>anon_0_2_1&#45;&#45;2</title>
<path fill="none" stroke="black" d="M-58.6224,48.2918C-51.9706,51.2209 -33.0025,59.5734 -19.4549,65.5391"/>
</g>
<!-- anon_1_2_1 -->
<g id="node8" class="node"><title>anon_1_2_1</title>
<ellipse fill="white" stroke="black" cx="53.1299" cy="50.8125" rx="2.5" ry="2.5"/>
</g>
<!-- anon_1_2_0&#45;&#45;anon_1_2_1 -->
<g id="edge7" class="edge"><title>anon_1_2_0&#45;&#45;anon_1_2_1</title>
<path fill="none" stroke="black" stroke-dasharray="5,2" d="M73.4227,14.2782C69.4215,21.4818 58.1306,41.8093 54.3676,48.5841"/>
</g>
<!-- anon_1_2_1&#45;&#45;2 -->
<g id="edge8" class="edge"><title>anon_1_2_1&#45;&#45;2</title>
<path fill="none" stroke="black" stroke-dasharray="5,2" d="M50.6435,51.7238C43.8078,54.2293 24.3154,61.3738 10.3933,66.4766"/>
</g>
</g>
</svg>
