<?xml version="1.0" encoding="UTF-8" standalone="no"?>
<!DOCTYPE svg PUBLIC "-//W3C//DTD SVG 1.1//EN"
 "http://www.w3.org/Graphics/SVG/1.1/DTD/svg11.dtd">
<!-- Generated by graphviz version 2.38.0 (20140413.2041)
 -->
<!-- Title: %3 Pages: 1 -->
<svg width="187pt" height="291pt"
 viewBox="0.00 0.00 186.99 290.70" xmlns="http://www.w3.org/2000/svg" xmlns:xlink="http://www.w3.org/1999/xlink">
<g id="graph0" class="graph" transform="scale(1 1) rotate(0) translate(86.6322 123.883)">
<title>%3</title>
<polygon fill="white" stroke="none" points="-86.6322,166.814 -86.6322,-123.883 100.358,-123.883 100.358,166.814 -86.6322,166.814"/>
<!-- 0 -->
<g id="node1" class="node"><title>0</title>
<ellipse fill="grey" stroke="black" cx="-59.6322" cy="-31.1016" rx="23" ry="23"/>
<text text-anchor="middle" x="-59.6322" y="-27.4016" font-family="monospace" font-size="14.00">0</text>
</g>
<!-- 4 -->
<g id="node5" class="node"><title>4</title>
<ellipse fill="white" stroke="black" cx="19.1023" cy="16.7785" rx="14.5" ry="14.5"/>
<text text-anchor="middle" x="19.1023" y="20.4785" font-family="monospace" font-size="14.00">4</text>
</g>
<!-- 0&#45;&gt;4 -->
<g id="edge1" class="edge"><title>0&#45;&gt;4</title>
<path fill="none" stroke="black" d="M-39.7642,-19.0195C-26.7808,-11.124 -10.0119,-0.926439 2.30534,6.56394"/>
<polygon fill="black" stroke="black" points="3.2638,5.09856 6.62659,9.19179 1.4452,8.08903 3.2638,5.09856"/>
<text text-anchor="middle" x="-23.2294" y="-10.0278" font-family="monospace" font-size="14.00">A</text>
</g>
<!-- 5 -->
<g id="node6" class="node"><title>5</title>
<ellipse fill="white" stroke="black" cx="21.6507" cy="-84.9531" rx="14.5" ry="14.5"/>
<text text-anchor="middle" x="21.6507" y="-81.2531" font-family="monospace" font-size="14.00">5</text>
</g>
<!-- 0&#45;&gt;5 -->
<g id="edge2" class="edge"><title>0&#45;&gt;5</title>
<path fill="none" stroke="black" d="M-40.3693,-43.8637C-26.5348,-53.0293 -8.08008,-65.2559 5.09346,-73.9836"/>
<polygon fill="black" stroke="black" points="4.20947,-75.4971 9.34425,-76.7998 6.14256,-72.5794 4.20947,-75.4971"/>
<text text-anchor="middle" x="-22.1379" y="-62.7236" font-family="monospace" font-size="14.00">B</text>
</g>
<!-- 6 -->
<g id="node7" class="node"><title>6</title>
<ellipse fill="white" stroke="black" cx="-56.6195" cy="33.8955" rx="14.5" ry="14.5"/>
<text text-anchor="middle" x="-56.6195" y="37.5955" font-family="monospace" font-size="14.00">6</text>
</g>
<!-- 0&#45;&gt;6 -->
<g id="edge3" class="edge"><title>0&#45;&gt;6</title>
<path fill="none" stroke="black" d="M-58.5615,-8.00307C-58.2273,-0.792051 -57.8617,7.09454 -57.5388,14.0608"/>
<polygon fill="black" stroke="black" points="-55.7849,14.1065 -57.3015,19.1822 -59.2812,14.2686 -55.7849,14.1065"/>
<text text-anchor="middle" x="-62.5502" y="14.2289" font-family="monospace" font-size="14.00">C</text>
</g>
<!-- 1 -->
<g id="node2" class="node"><title>1</title>
<ellipse fill="grey" stroke="black" cx="80.3577" cy="-37.455" rx="16" ry="16"/>
<text text-anchor="middle" x="80.3577" y="-33.755" font-family="monospace" font-size="14.00">1</text>
</g>
<!-- 7 -->
<g id="node8" class="node"><title>7</title>
<ellipse fill="white" stroke="black" cx="56.0188" cy="19.1092" rx="14.5" ry="14.5"/>
<text text-anchor="middle" x="56.0188" y="22.8092" font-family="monospace" font-size="14.00">7</text>
</g>
<!-- 1&#45;&gt;7 -->
<g id="edge5" class="edge"><title>1&#45;&gt;7</title>
<path fill="none" stroke="black" d="M73.9629,-22.5934C70.896,-15.4659 67.1922,-6.85807 63.9479,0.681802"/>
<polygon fill="black" stroke="black" points="65.3725,1.79861 61.7887,5.69977 62.1575,0.415189 65.3725,1.79861"/>
<text text-anchor="middle" x="64.4554" y="0.244199" font-family="monospace" font-size="14.00">C</text>
</g>
<!-- 2 -->
<g id="node3" class="node"><title>2</title>
<ellipse fill="grey" stroke="black" cx="13.1244" cy="146.814" rx="16" ry="16"/>
<text text-anchor="middle" x="13.1244" y="150.514" font-family="monospace" font-size="14.00">2</text>
</g>
<!-- 3 -->
<g id="node4" class="node"><title>3</title>
<ellipse fill="grey" stroke="black" cx="-66.2228" cy="-103.883" rx="16" ry="16"/>
<text text-anchor="middle" x="-66.2228" y="-100.183" font-family="monospace" font-size="14.00">3</text>
</g>
<!-- 4&#45;&gt;1 -->
<g id="edge4" class="edge"><title>4&#45;&gt;1</title>
<path fill="none" stroke="black" d="M30.0535,7.08268C39.6159,-1.38354 53.6159,-13.7787 64.4201,-23.3444"/>
<polygon fill="black" stroke="black" points="63.3382,-24.7238 68.2419,-26.728 65.6583,-22.1033 63.3382,-24.7238"/>
<text text-anchor="middle" x="42.7368" y="-11.9308" font-family="monospace" font-size="14.00">B</text>
</g>
<!-- 8 -->
<g id="node9" class="node"><title>8</title>
<ellipse fill="white" stroke="black" cx="6.64998" cy="76.923" rx="14.5" ry="14.5"/>
<text text-anchor="middle" x="6.64998" y="80.623" font-family="monospace" font-size="14.00">8</text>
</g>
<!-- 4&#45;&gt;8 -->
<g id="edge8" class="edge"><title>4&#45;&gt;8</title>
<path fill="none" stroke="black" d="M16.1513,31.032C14.5313,38.8565 12.4977,48.6786 10.728,57.2261"/>
<polygon fill="black" stroke="black" points="12.3938,57.8128 9.66633,62.3541 8.96645,57.1032 12.3938,57.8128"/>
<text text-anchor="middle" x="8.93967" y="55.329" font-family="monospace" font-size="14.00">C</text>
</g>
<!-- 5&#45;&gt;1 -->
<g id="edge10" class="edge"><title>5&#45;&gt;1</title>
<path fill="none" stroke="black" stroke-dasharray="5,2" d="M32.97,-75.795C41.7164,-68.7185 53.9504,-58.8203 63.7969,-50.8538"/>
<polygon fill="black" stroke="black" points="65.0672,-52.0771 67.8535,-47.5717 62.8657,-49.3562 65.0672,-52.0771"/>
<text text-anchor="middle" x="43.8835" y="-67.1244" font-family="monospace" font-size="14.00">A</text>
</g>
<!-- 9 -->
<g id="node10" class="node"><title>9</title>
<ellipse fill="white" stroke="black" cx="-14.4294" cy="-36.1274" rx="14.5" ry="14.5"/>
<text text-anchor="middle" x="-14.4294" y="-32.4274" font-family="monospace" font-size="14.00">9</text>
</g>
<!-- 5&#45;&gt;9 -->
<g id="edge9" class="edge"><title>5&#45;&gt;9</title>
<path fill="none" stroke="black" d="M12.9167,-73.1337C8.21902,-66.7765 2.36194,-58.8504 -2.72518,-51.9662"/>
<polygon fill="black" stroke="black" points="-1.39689,-50.8191 -5.77587,-47.8379 -4.21175,-52.8991 -1.39689,-50.8191"/>
<text text-anchor="middle" x="0.595778" y="-66.35" font-family="monospace" font-size="14.00">C</text>
</g>
<!-- 6&#45;&gt;8 -->
<g id="edge11" class="edge"><title>6&#45;&gt;8</title>
<path fill="none" stroke="black" stroke-dasharray="5,2" d="M-44.4205,42.1917C-34.5298,48.918 -20.5007,58.4587 -9.64829,65.8391"/>
<polygon fill="black" stroke="black" points="-8.66195,64.3935 -5.51155,68.6524 -10.6302,67.2877 -8.66195,64.3935"/>
<text text-anchor="middle" x="-31.5344" y="50.2154" font-family="monospace" font-size="14.00">A</text>
</g>
<!-- 6&#45;&gt;9 -->
<g id="edge12" class="edge"><title>6&#45;&gt;9</title>
<path fill="none" stroke="black" stroke-dasharray="5,2" d="M-49.0767,21.3768C-42.3217,10.1655 -32.3515,-6.38208 -24.8386,-18.8513"/>
<polygon fill="black" stroke="black" points="-26.2717,-19.8638 -22.1923,-23.2433 -23.2738,-18.0574 -26.2717,-19.8638"/>
<text text-anchor="middle" x="-41.4577" y="12.4627" font-family="monospace" font-size="14.00">B</text>
</g>
<!-- 8&#45;&gt;2 -->
<g id="edge6" class="edge"><title>8&#45;&gt;2</title>
<path fill="none" stroke="black" d="M7.99148,91.4045C8.90182,101.232 10.121,114.393 11.1427,125.422"/>
<polygon fill="black" stroke="black" points="12.9074,125.501 11.6262,130.641 9.42235,125.824 12.9074,125.501"/>
<text text-anchor="middle" x="5.06708" y="104.613" font-family="monospace" font-size="14.00">D</text>
</g>
<!-- 8&#45;&gt;7 -->
<g id="edge13" class="edge"><title>8&#45;&gt;7</title>
<path fill="none" stroke="black" stroke-dasharray="5,2" d="M16.1688,65.7759C23.8181,56.8181 34.6397,44.1453 43.076,34.266"/>
<polygon fill="black" stroke="black" points="41.9515,32.8879 46.5292,30.222 44.6131,35.1608 41.9515,32.8879"/>
<text text-anchor="middle" x="25.1224" y="46.221" font-family="monospace" font-size="14.00">B</text>
</g>
<!-- 9&#45;&gt;3 -->
<g id="edge7" class="edge"><title>9&#45;&gt;3</title>
<path fill="none" stroke="black" d="M-23.4512,-47.9296C-31.608,-58.6003 -43.7209,-74.4465 -52.9762,-86.5543"/>
<polygon fill="black" stroke="black" points="-54.5979,-85.7942 -56.2442,-90.8294 -51.8173,-87.9198 -54.5979,-85.7942"/>
<text text-anchor="middle" x="-42.7137" y="-71.0419" font-family="monospace" font-size="14.00">E</text>
</g>
<!-- 9&#45;&gt;7 -->
<g id="edge14" class="edge"><title>9&#45;&gt;7</title>
<path fill="none" stroke="black" stroke-dasharray="5,2" d="M-2.79635,-27.0062C9.00111,-17.7561 27.3328,-3.38275 40.3924,6.85694"/>
<polygon fill="black" stroke="black" points="41.7472,5.69538 44.6022,10.1577 39.5876,8.44971 41.7472,5.69538"/>
<text text-anchor="middle" x="14.298" y="-13.8746" font-family="monospace" font-size="14.00">A</text>
</g>
</g>
</svg>
