<?xml version="1.0" encoding="UTF-8" standalone="no"?>
<!DOCTYPE svg PUBLIC "-//W3C//DTD SVG 1.1//EN"
 "http://www.w3.org/Graphics/SVG/1.1/DTD/svg11.dtd">
<!-- Generated by graphviz version 2.38.0 (20140413.2041)
 -->
<!-- Title: %3 Pages: 1 -->
<svg width="173pt" height="222pt"
 viewBox="0.00 0.00 173.13 221.63" xmlns="http://www.w3.org/2000/svg" xmlns:xlink="http://www.w3.org/1999/xlink">
<g id="graph0" class="graph" transform="scale(1 1) rotate(0) translate(98.8193 90.2375)">
<title>%3</title>
<polygon fill="white" stroke="none" points="-98.8193,131.388 -98.8193,-90.2375 74.3087,-90.2375 74.3087,131.388 -98.8193,131.388"/>
<!-- 0 -->
<g id="node1" class="node"><title>0</title>
<ellipse fill="grey" stroke="black" cx="-71.8193" cy="-60.5074" rx="23" ry="23"/>
<text text-anchor="middle" x="-71.8193" y="-56.8074" font-family="Times,serif" font-size="14.00">0</text>
</g>
<!-- 3 -->
<g id="node4" class="node"><title>3</title>
<ellipse fill="white" stroke="black" cx="-0.973596" cy="-24.5749" rx="14.5" ry="14.5"/>
<text text-anchor="middle" x="-0.973596" y="-20.8749" font-family="Times,serif" font-size="14.00">3</text>
</g>
<!-- 0&#45;&#45;3 -->
<g id="edge1" class="edge"><title>0&#45;&#45;3</title>
<path fill="none" stroke="black" d="M-50.9465,-49.9208C-39.0282,-43.876 -24.4502,-36.4821 -14.1227,-31.2441"/>
</g>
<!-- 1 -->
<g id="node2" class="node"><title>1</title>
<ellipse fill="grey" stroke="black" cx="54.3087" cy="-70.2375" rx="16" ry="16"/>
<text text-anchor="middle" x="54.3087" y="-66.5375" font-family="Times,serif" font-size="14.00">1</text>
</g>
<!-- 1&#45;&#45;3 -->
<g id="edge2" class="edge"><title>1&#45;&#45;3</title>
<path fill="none" stroke="black" d="M41.7643,-59.8759C32.3347,-52.0872 19.5239,-41.5056 10.393,-33.9636"/>
</g>
<!-- 2 -->
<g id="node3" class="node"><title>2</title>
<ellipse fill="grey" stroke="black" cx="11.9479" cy="111.388" rx="16" ry="16"/>
<text text-anchor="middle" x="11.9479" y="115.088" font-family="Times,serif" font-size="14.00">2</text>
</g>
<!-- anon_2_3_0 -->
<g id="node5" class="node"><title>anon_2_3_0</title>
<ellipse fill="white" stroke="black" cx="6.5363" cy="43.9318" rx="14.5" ry="14.5"/>
</g>
<!-- 2&#45;&#45;anon_2_3_0 -->
<g id="edge3" class="edge"><title>2&#45;&#45;anon_2_3_0</title>
<path fill="none" stroke="black" d="M10.6655,95.4018C9.76529,84.1812 8.57132,69.2984 7.69889,58.4235"/>
</g>
<!-- anon_2_3_0&#45;&#45;3 -->
<g id="edge4" class="edge"><title>anon_2_3_0&#45;&#45;3</title>
<path fill="none" stroke="black" d="M4.94364,29.4033C3.66919,17.7774 1.89061,1.55293 0.616764,-10.0674"/>
</g>
</g>
</svg>
