<?xml version="1.0" encoding="UTF-8" standalone="no"?>
<!DOCTYPE svg PUBLIC "-//W3C//DTD SVG 1.1//EN"
 "http://www.w3.org/Graphics/SVG/1.1/DTD/svg11.dtd">
<!-- Generated by graphviz version 2.38.0 (20140413.2041)
 -->
<!-- Title: %3 Pages: 1 -->
<svg width="271pt" height="377pt"
 viewBox="0.00 0.00 270.62 376.80" xmlns="http://www.w3.org/2000/svg" xmlns:xlink="http://www.w3.org/1999/xlink">
<g id="graph0" class="graph" transform="scale(1 1) rotate(0) translate(137.737 188.161)">
<title>%3</title>
<polygon fill="white" stroke="none" points="-137.737,188.635 -137.737,-188.161 132.879,-188.161 132.879,188.635 -137.737,188.635"/>
<!-- 0 -->
<g id="node1" class="node"><title>0</title>
<ellipse fill="grey" stroke="black" cx="-79.3028" cy="-15.0944" rx="23" ry="23"/>
<text text-anchor="middle" x="-79.3028" y="-11.3944" font-family="monospace" font-size="14.00">0</text>
</g>
<!-- anon_0_1_0 -->
<g id="node5" class="node"><title>anon_0_1_0</title>
<ellipse fill="white" stroke="black" cx="3.40853" cy="0.778701" rx="14.5" ry="14.5"/>
</g>
<!-- 0&#45;&#45;anon_0_1_0 -->
<g id="edge1" class="edge"><title>0&#45;&#45;anon_0_1_0</title>
<path fill="none" stroke="black" d="M-56.7016,-10.757C-42.1611,-7.96653 -23.6962,-4.42296 -11.0933,-2.00434"/>
</g>
<!-- anon_0_2_0 -->
<g id="node6" class="node"><title>anon_0_2_0</title>
<ellipse fill="white" stroke="black" cx="-119.237" cy="59.7449" rx="14.5" ry="14.5"/>
</g>
<!-- 0&#45;&#45;anon_0_2_0 -->
<g id="edge3" class="edge"><title>0&#45;&#45;anon_0_2_0</title>
<path fill="none" stroke="black" d="M-90.2149,5.35578C-97.2353,18.5124 -106.15,35.2198 -112.235,46.6232"/>
</g>
<!-- anon_0_3_0 -->
<g id="node8" class="node"><title>anon_0_3_0</title>
<ellipse fill="white" stroke="black" cx="-88.7052" cy="-99.391" rx="14.5" ry="14.5"/>
</g>
<!-- 0&#45;&#45;anon_0_3_0 -->
<g id="edge6" class="edge"><title>0&#45;&#45;anon_0_3_0</title>
<path fill="none" stroke="black" d="M-81.8721,-38.1288C-83.525,-52.948 -85.624,-71.7668 -87.0567,-84.6112"/>
</g>
<!-- 1 -->
<g id="node2" class="node"><title>1</title>
<ellipse fill="grey" stroke="black" cx="77.8915" cy="14.8618" rx="16" ry="16"/>
<text text-anchor="middle" x="77.8915" y="18.5618" font-family="monospace" font-size="14.00">1</text>
</g>
<!-- anon_1_2_0 -->
<g id="node10" class="node"><title>anon_1_2_0</title>
<ellipse fill="white" stroke="black" cx="87.1689" cy="90.8695" rx="14.5" ry="14.5"/>
</g>
<!-- 1&#45;&#45;anon_1_2_0 -->
<g id="edge9" class="edge"><title>1&#45;&#45;anon_1_2_0</title>
<path fill="none" stroke="black" stroke-dasharray="5,2" d="M79.859,30.981C81.4972,44.4027 83.8098,63.3487 85.3925,76.3156"/>
</g>
<!-- anon_1_3_0 -->
<g id="node12" class="node"><title>anon_1_3_0</title>
<ellipse fill="white" stroke="black" cx="114.379" cy="-52.4368" rx="14.5" ry="14.5"/>
</g>
<!-- 1&#45;&#45;anon_1_3_0 -->
<g id="edge12" class="edge"><title>1&#45;&#45;anon_1_3_0</title>
<path fill="none" stroke="black" stroke-dasharray="5,2" d="M85.6295,0.589481C92.0725,-11.2943 101.168,-28.0694 107.392,-39.5505"/>
</g>
<!-- 2 -->
<g id="node3" class="node"><title>2</title>
<ellipse fill="grey" stroke="black" cx="-30.7042" cy="168.635" rx="16" ry="16"/>
<text text-anchor="middle" x="-30.7042" y="172.335" font-family="monospace" font-size="14.00">2</text>
</g>
<!-- 3 -->
<g id="node4" class="node"><title>3</title>
<ellipse fill="grey" stroke="black" cx="33.5611" cy="-168.161" rx="16" ry="16"/>
<text text-anchor="middle" x="33.5611" y="-164.461" font-family="monospace" font-size="14.00">3</text>
</g>
<!-- anon_0_1_0&#45;&#45;1 -->
<g id="edge2" class="edge"><title>anon_0_1_0&#45;&#45;1</title>
<path fill="none" stroke="black" d="M17.7696,3.49406C30.4515,5.89194 48.913,9.3826 62.0272,11.8622"/>
</g>
<!-- anon_0_2_1 -->
<g id="node7" class="node"><title>anon_0_2_1</title>
<ellipse fill="white" stroke="black" cx="-97.9819" cy="130.973" rx="14.5" ry="14.5"/>
</g>
<!-- anon_0_2_0&#45;&#45;anon_0_2_1 -->
<g id="edge4" class="edge"><title>anon_0_2_0&#45;&#45;anon_0_2_1</title>
<path fill="none" stroke="black" d="M-115.037,73.8173C-111.311,86.3046 -105.896,104.452 -102.172,116.93"/>
</g>
<!-- anon_0_2_1&#45;&#45;2 -->
<g id="edge5" class="edge"><title>anon_0_2_1&#45;&#45;2</title>
<path fill="none" stroke="black" d="M-85.3275,138.057C-73.7561,144.535 -56.6689,154.1 -44.6953,160.803"/>
</g>
<!-- anon_0_3_1 -->
<g id="node9" class="node"><title>anon_0_3_1</title>
<ellipse fill="white" stroke="black" cx="-42.8478" cy="-157.875" rx="14.5" ry="14.5"/>
</g>
<!-- anon_0_3_0&#45;&#45;anon_0_3_1 -->
<g id="edge7" class="edge"><title>anon_0_3_0&#45;&#45;anon_0_3_1</title>
<path fill="none" stroke="black" d="M-79.6453,-110.946C-71.6058,-121.199 -59.9227,-136.099 -51.8889,-146.345"/>
</g>
<!-- anon_0_3_1&#45;&#45;3 -->
<g id="edge8" class="edge"><title>anon_0_3_1&#45;&#45;3</title>
<path fill="none" stroke="black" d="M-28.4759,-159.81C-15.3339,-161.579 4.07239,-164.192 17.6711,-166.022"/>
</g>
<!-- anon_1_2_1 -->
<g id="node11" class="node"><title>anon_1_2_1</title>
<ellipse fill="white" stroke="black" cx="44.7309" cy="152.207" rx="14.5" ry="14.5"/>
</g>
<!-- anon_1_2_0&#45;&#45;anon_1_2_1 -->
<g id="edge10" class="edge"><title>anon_1_2_0&#45;&#45;anon_1_2_1</title>
<path fill="none" stroke="black" stroke-dasharray="5,2" d="M78.7845,102.988C71.3446,113.741 60.5326,129.368 53.0979,140.114"/>
</g>
<!-- anon_1_2_1&#45;&#45;2 -->
<g id="edge11" class="edge"><title>anon_1_2_1&#45;&#45;2</title>
<path fill="none" stroke="black" stroke-dasharray="5,2" d="M30.5421,155.297C17.5677,158.122 -1.59135,162.295 -15.0168,165.219"/>
</g>
<!-- anon_1_3_1 -->
<g id="node13" class="node"><title>anon_1_3_1</title>
<ellipse fill="white" stroke="black" cx="97.6391" cy="-125.111" rx="14.5" ry="14.5"/>
</g>
<!-- anon_1_3_0&#45;&#45;anon_1_3_1 -->
<g id="edge13" class="edge"><title>anon_1_3_0&#45;&#45;anon_1_3_1</title>
<path fill="none" stroke="black" stroke-dasharray="5,2" d="M111.072,-66.7948C108.137,-79.5356 103.872,-98.0509 100.939,-110.783"/>
</g>
<!-- anon_1_3_1&#45;&#45;3 -->
<g id="edge14" class="edge"><title>anon_1_3_1&#45;&#45;3</title>
<path fill="none" stroke="black" stroke-dasharray="5,2" d="M85.5865,-133.208C74.5654,-140.613 58.2908,-151.547 46.8867,-159.209"/>
</g>
</g>
</svg>
