<?xml version="1.0" encoding="UTF-8" standalone="no"?>
<!DOCTYPE svg PUBLIC "-//W3C//DTD SVG 1.1//EN"
 "http://www.w3.org/Graphics/SVG/1.1/DTD/svg11.dtd">
<!-- Generated by graphviz version 2.38.0 (20140413.2041)
 -->
<!-- Title: %3 Pages: 1 -->
<svg width="188pt" height="296pt"
 viewBox="0.00 0.00 188.21 296.34" xmlns="http://www.w3.org/2000/svg" xmlns:xlink="http://www.w3.org/1999/xlink">
<g id="graph0" class="graph" transform="scale(1 1) rotate(0) translate(95.9767 148.03)">
<title>%3</title>
<polygon fill="white" stroke="none" points="-95.9767,148.311 -95.9767,-148.03 92.2366,-148.03 92.2366,148.311 -95.9767,148.311"/>
<!-- 0 -->
<g id="node1" class="node"><title>0</title>
<ellipse fill="grey" stroke="black" cx="-67.2045" cy="-6.96247" rx="23" ry="23"/>
<text text-anchor="middle" x="-67.2045" y="-3.26247" font-family="Times,serif" font-size="14.00">0</text>
</g>
<!-- anon_0_1_0 -->
<g id="node5" class="node"><title>anon_0_1_0</title>
<ellipse fill="white" stroke="black" cx="2.96668" cy="0.415719" rx="2.5" ry="2.5"/>
</g>
<!-- 0&#45;&#45;anon_0_1_0 -->
<g id="edge1" class="edge"><title>0&#45;&#45;anon_0_1_0</title>
<path fill="none" stroke="black" d="M-44.2278,-4.54658C-27.6001,-2.79825 -6.83669,-0.615062 0.365027,0.142167"/>
</g>
<!-- anon_0_2_0 -->
<g id="node6" class="node"><title>anon_0_2_0</title>
<ellipse fill="white" stroke="black" cx="-89.4767" cy="60.8175" rx="2.5" ry="2.5"/>
</g>
<!-- 0&#45;&#45;anon_0_2_0 -->
<g id="edge3" class="edge"><title>0&#45;&#45;anon_0_2_0</title>
<path fill="none" stroke="black" d="M-74.4972,15.2312C-79.7748,31.2923 -86.3651,51.3482 -88.6509,58.3045"/>
</g>
<!-- anon_0_3_0 -->
<g id="node8" class="node"><title>anon_0_3_0</title>
<ellipse fill="white" stroke="black" cx="-74.7974" cy="-77.8518" rx="2.5" ry="2.5"/>
</g>
<!-- 0&#45;&#45;anon_0_3_0 -->
<g id="edge6" class="edge"><title>0&#45;&#45;anon_0_3_0</title>
<path fill="none" stroke="black" d="M-69.6907,-30.1743C-71.4899,-46.9722 -73.7367,-67.9481 -74.5159,-75.2235"/>
</g>
<!-- 1 -->
<g id="node2" class="node"><title>1</title>
<ellipse fill="grey" stroke="black" cx="64.8466" cy="6.75169" rx="16" ry="16"/>
<text text-anchor="middle" x="64.8466" y="10.4517" font-family="Times,serif" font-size="14.00">1</text>
</g>
<!-- anon_1_2_0 -->
<g id="node10" class="node"><title>anon_1_2_0</title>
<ellipse fill="white" stroke="black" cx="73.2169" cy="69.2911" rx="2.5" ry="2.5"/>
</g>
<!-- 1&#45;&#45;anon_1_2_0 -->
<g id="edge9" class="edge"><title>1&#45;&#45;anon_1_2_0</title>
<path fill="none" stroke="black" stroke-dasharray="5,2" d="M67.0021,22.8571C69.0172,37.9127 71.8605,59.1566 72.8559,66.5938"/>
</g>
<!-- anon_1_3_0 -->
<g id="node12" class="node"><title>anon_1_3_0</title>
<ellipse fill="white" stroke="black" cx="85.7366" cy="-52.7426" rx="2.5" ry="2.5"/>
</g>
<!-- 1&#45;&#45;anon_1_3_0 -->
<g id="edge12" class="edge"><title>1&#45;&#45;anon_1_3_0</title>
<path fill="none" stroke="black" stroke-dasharray="5,2" d="M70.2263,-8.56958C75.2553,-22.8921 82.3514,-43.1017 84.8356,-50.1767"/>
</g>
<!-- 2 -->
<g id="node3" class="node"><title>2</title>
<ellipse fill="grey" stroke="black" cx="-11.7997" cy="128.311" rx="16" ry="16"/>
<text text-anchor="middle" x="-11.7997" y="132.011" font-family="Times,serif" font-size="14.00">2</text>
</g>
<!-- 3 -->
<g id="node4" class="node"><title>3</title>
<ellipse fill="grey" stroke="black" cx="14.8944" cy="-128.03" rx="16" ry="16"/>
<text text-anchor="middle" x="14.8944" y="-124.33" font-family="Times,serif" font-size="14.00">3</text>
</g>
<!-- anon_0_1_0&#45;&#45;1 -->
<g id="edge2" class="edge"><title>anon_0_1_0&#45;&#45;1</title>
<path fill="none" stroke="black" d="M5.62558,0.687967C12.9357,1.43646 33.7809,3.57083 48.6692,5.09527"/>
</g>
<!-- anon_0_2_1 -->
<g id="node7" class="node"><title>anon_0_2_1</title>
<ellipse fill="white" stroke="black" cx="-70.3267" cy="102.38" rx="2.5" ry="2.5"/>
</g>
<!-- anon_0_2_0&#45;&#45;anon_0_2_1 -->
<g id="edge4" class="edge"><title>anon_0_2_0&#45;&#45;anon_0_2_1</title>
<path fill="none" stroke="black" d="M-88.2202,63.5445C-84.6921,71.2019 -74.7362,92.81 -71.4181,100.012"/>
</g>
<!-- anon_0_2_1&#45;&#45;2 -->
<g id="edge5" class="edge"><title>anon_0_2_1&#45;&#45;2</title>
<path fill="none" stroke="black" d="M-67.8119,103.495C-60.8104,106.597 -40.681,115.515 -26.5685,121.767"/>
</g>
<!-- anon_0_3_1 -->
<g id="node9" class="node"><title>anon_0_3_1</title>
<ellipse fill="white" stroke="black" cx="-47.7566" cy="-114.749" rx="2.5" ry="2.5"/>
</g>
<!-- anon_0_3_0&#45;&#45;anon_0_3_1 -->
<g id="edge7" class="edge"><title>anon_0_3_0&#45;&#45;anon_0_3_1</title>
<path fill="none" stroke="black" d="M-73.0232,-80.2727C-68.0413,-87.0706 -53.9831,-106.253 -49.2977,-112.647"/>
</g>
<!-- anon_0_3_1&#45;&#45;3 -->
<g id="edge8" class="edge"><title>anon_0_3_1&#45;&#45;3</title>
<path fill="none" stroke="black" d="M-45.0646,-115.32C-37.5697,-116.909 -16.022,-121.476 -0.915127,-124.678"/>
</g>
<!-- anon_1_2_1 -->
<g id="node11" class="node"><title>anon_1_2_1</title>
<ellipse fill="white" stroke="black" cx="49.1767" cy="108.459" rx="2.5" ry="2.5"/>
</g>
<!-- anon_1_2_0&#45;&#45;anon_1_2_1 -->
<g id="edge10" class="edge"><title>anon_1_2_0&#45;&#45;anon_1_2_1</title>
<path fill="none" stroke="black" stroke-dasharray="5,2" d="M71.6395,71.861C67.2105,79.0772 54.7123,99.4404 50.5468,106.227"/>
</g>
<!-- anon_1_2_1&#45;&#45;2 -->
<g id="edge11" class="edge"><title>anon_1_2_1&#45;&#45;2</title>
<path fill="none" stroke="black" stroke-dasharray="5,2" d="M46.5566,109.312C39.2621,111.687 18.2903,118.515 3.58721,123.301"/>
</g>
<!-- anon_1_3_1 -->
<g id="node13" class="node"><title>anon_1_3_1</title>
<ellipse fill="white" stroke="black" cx="70.5239" cy="-96.0904" rx="2.5" ry="2.5"/>
</g>
<!-- anon_1_3_0&#45;&#45;anon_1_3_1 -->
<g id="edge13" class="edge"><title>anon_1_3_0&#45;&#45;anon_1_3_1</title>
<path fill="none" stroke="black" stroke-dasharray="5,2" d="M84.8305,-55.3244C82.1184,-63.0525 74.0869,-85.9379 71.4062,-93.5765"/>
</g>
<!-- anon_1_3_1&#45;&#45;3 -->
<g id="edge14" class="edge"><title>anon_1_3_1&#45;&#45;3</title>
<path fill="none" stroke="black" stroke-dasharray="5,2" d="M68.1336,-97.4628C61.4787,-101.284 42.3458,-112.269 28.932,-119.97"/>
</g>
</g>
</svg>
