<?xml version="1.0" encoding="UTF-8" standalone="no"?>
<!DOCTYPE svg PUBLIC "-//W3C//DTD SVG 1.1//EN"
 "http://www.w3.org/Graphics/SVG/1.1/DTD/svg11.dtd">
<!-- Generated by graphviz version 2.38.0 (20140413.2041)
 -->
<!-- Title: %3 Pages: 1 -->
<svg width="322pt" height="340pt"
 viewBox="0.00 0.00 322.02 340.16" xmlns="http://www.w3.org/2000/svg" xmlns:xlink="http://www.w3.org/1999/xlink">
<g id="graph0" class="graph" transform="scale(1 1) rotate(0) translate(146.428 289.718)">
<title>%3</title>
<polygon fill="white" stroke="none" points="-146.428,50.4391 -146.428,-289.718 175.588,-289.718 175.588,50.4391 -146.428,50.4391"/>
<!-- 0 -->
<g id="node1" class="node"><title>0</title>
<ellipse fill="#1874cd" stroke="black" cx="-93.0795" cy="-238.648" rx="14.5" ry="14.5"/>
</g>
<!-- 9 -->
<g id="node10" class="node"><title>9</title>
<ellipse fill="#1874cd" stroke="black" cx="-42.6695" cy="-261.724" rx="2.5" ry="2.5"/>
</g>
<!-- 0&#45;&gt;9 -->
<g id="edge1" class="edge"><title>0&#45;&gt;9</title>
<path fill="none" stroke="black" d="M-79.8349,-244.711C-67.933,-250.159 -51.3993,-257.728 -45.1736,-260.578"/>
</g>
<!-- 10 -->
<g id="node11" class="node"><title>10</title>
<ellipse fill="#1874cd" stroke="black" cx="-108.328" cy="-283.218" rx="2.5" ry="2.5"/>
</g>
<!-- 0&#45;&gt;10 -->
<g id="edge2" class="edge"><title>0&#45;&gt;10</title>
<path fill="none" stroke="black" d="M-97.9041,-252.75C-101.324,-262.748 -105.617,-275.296 -107.442,-280.629"/>
</g>
<!-- 12 -->
<g id="node13" class="node"><title>12</title>
<ellipse fill="#1874cd" stroke="black" cx="-139.928" cy="-211.002" rx="2.5" ry="2.5"/>
</g>
<!-- 0&#45;&gt;12 -->
<g id="edge3" class="edge"><title>0&#45;&gt;12</title>
<path fill="none" stroke="black" d="M-105.881,-231.094C-116.934,-224.571 -131.992,-215.685 -137.652,-212.345"/>
</g>
<!-- 1 -->
<g id="node2" class="node"><title>1</title>
<ellipse fill="#1874cd" stroke="black" cx="42.188" cy="-16.5053" rx="12" ry="12"/>
</g>
<!-- 3 -->
<g id="node4" class="node"><title>3</title>
<ellipse fill="#1874cd" stroke="black" cx="26.0294" cy="-75.2887" rx="2.5" ry="2.5"/>
</g>
<!-- 1&#45;&gt;3 -->
<g id="edge4" class="edge"><title>1&#45;&gt;3</title>
<path fill="none" stroke="black" d="M38.9956,-28.119C35.0958,-42.3058 28.7629,-65.3443 26.7012,-72.8447"/>
</g>
<!-- 6 -->
<g id="node7" class="node"><title>6</title>
<ellipse fill="#1874cd" stroke="black" cx="86.9622" cy="-11.5642" rx="3.5" ry="3.5"/>
</g>
<!-- 1&#45;&gt;6 -->
<g id="edge5" class="edge"><title>1&#45;&gt;6</title>
<path fill="none" stroke="black" d="M54.4228,-15.1551C61.8765,-14.3325 71.2352,-13.2997 78.0003,-12.5532"/>
<polygon fill="black" stroke="black" points="78.5772,-14.2502 83.355,-11.9623 78.1932,-10.7713 78.5772,-14.2502"/>
<text text-anchor="middle" x="89.2115" y="-17.2541" font-family="monospace" font-size="12.00">S2076T</text>
</g>
<!-- 13 -->
<g id="node14" class="node"><title>13</title>
<ellipse fill="#1874cd" stroke="black" cx="107.916" cy="-37.2692" rx="3.5" ry="3.5"/>
</g>
<!-- 1&#45;&gt;13 -->
<g id="edge6" class="edge"><title>1&#45;&gt;13</title>
<path fill="none" stroke="black" d="M53.6369,-20.1221C68.9374,-24.9556 95.2071,-33.2545 104.52,-36.1966"/>
</g>
<!-- 14 -->
<g id="node15" class="node"><title>14</title>
<ellipse fill="#1874cd" stroke="black" cx="11.0002" cy="-14.961" rx="2.5" ry="2.5"/>
</g>
<!-- 1&#45;&gt;14 -->
<g id="edge7" class="edge"><title>1&#45;&gt;14</title>
<path fill="none" stroke="black" d="M29.8618,-15.8949C23.8685,-15.5981 17.2009,-15.268 13.619,-15.0906"/>
</g>
<!-- 16 -->
<g id="node17" class="node"><title>16</title>
<ellipse fill="#1874cd" stroke="black" cx="46.8138" cy="43.9391" rx="2.5" ry="2.5"/>
</g>
<!-- 1&#45;&gt;16 -->
<g id="edge8" class="edge"><title>1&#45;&gt;16</title>
<path fill="none" stroke="black" d="M43.1241,-4.27344C44.0422,7.72259 45.4153,25.6642 46.2018,35.9411"/>
<polygon fill="black" stroke="black" points="47.9524,35.8843 46.5892,41.0033 44.4626,36.1514 47.9524,35.8843"/>
<text text-anchor="middle" x="21.6629" y="12.4338" font-family="monospace" font-size="12.00">L1617F</text>
</g>
<!-- 17 -->
<g id="node18" class="node"><title>17</title>
<ellipse fill="white" stroke="black" cx="-22.8937" cy="-5.84752" rx="1" ry="1"/>
</g>
<!-- 1&#45;&gt;17 -->
<g id="edge9" class="edge"><title>1&#45;&gt;17</title>
<path fill="none" stroke="black" d="M30.251,-14.5505C13.811,-11.8583 -14.5479,-7.21422 -21.3808,-6.09528"/>
</g>
<!-- 2 -->
<g id="node3" class="node"><title>2</title>
<ellipse fill="#1874cd" stroke="black" cx="87.0964" cy="-73.3103" rx="3.5" ry="3.5"/>
</g>
<!-- 2&#45;&gt;6 -->
<g id="edge10" class="edge"><title>2&#45;&gt;6</title>
<path fill="none" stroke="black" d="M87.0884,-69.6327C87.0645,-58.6246 86.9937,-26.0258 86.97,-15.1451"/>
</g>
<!-- 4 -->
<g id="node5" class="node"><title>4</title>
<ellipse fill="#1874cd" stroke="black" cx="-49.6303" cy="-42.6574" rx="2.5" ry="2.5"/>
</g>
<!-- 4&#45;&gt;17 -->
<g id="edge11" class="edge"><title>4&#45;&gt;17</title>
<path fill="none" stroke="black" d="M-47.876,-40.2422C-42.6714,-33.0767 -27.4478,-12.1174 -23.7232,-6.98953"/>
</g>
<!-- 5 -->
<g id="node6" class="node"><title>5</title>
<ellipse fill="#1874cd" stroke="black" cx="140.65" cy="-64.9446" rx="2.5" ry="2.5"/>
</g>
<!-- 7 -->
<g id="node8" class="node"><title>7</title>
<ellipse fill="#1874cd" stroke="black" cx="169.088" cy="-98.4863" rx="2.5" ry="2.5"/>
</g>
<!-- 5&#45;&gt;7 -->
<g id="edge12" class="edge"><title>5&#45;&gt;7</title>
<path fill="none" stroke="black" d="M142.516,-67.1454C147.755,-73.325 162.54,-90.763 167.468,-96.5747"/>
</g>
<!-- 11 -->
<g id="node12" class="node"><title>11</title>
<ellipse fill="#1874cd" stroke="black" cx="118.625" cy="25.3896" rx="2.5" ry="2.5"/>
</g>
<!-- 6&#45;&gt;11 -->
<g id="edge14" class="edge"><title>6&#45;&gt;11</title>
<path fill="none" stroke="black" d="M89.4468,-8.66447C95.6282,-1.45025 111.582,17.1694 116.884,23.3568"/>
</g>
<!-- 8 -->
<g id="node9" class="node"><title>8</title>
<ellipse fill="#1874cd" stroke="black" cx="130.569" cy="-274.869" rx="2.5" ry="2.5"/>
</g>
<!-- 13&#45;&gt;2 -->
<g id="edge18" class="edge"><title>13&#45;&gt;2</title>
<path fill="none" stroke="black" stroke-dasharray="5,2" d="M105.994,-40.5953C102.788,-46.1456 96.258,-57.4503 91.78,-65.2023"/>
<polygon fill="black" stroke="black" points="90.0595,-64.6822 89.0738,-69.8872 93.0902,-66.433 90.0595,-64.6822"/>
<text text-anchor="middle" x="75.8872" y="-56.2988" font-family="monospace" font-size="12.00">S2076T</text>
</g>
<!-- 13&#45;&gt;5 -->
<g id="edge13" class="edge"><title>13&#45;&gt;5</title>
<path fill="none" stroke="black" d="M110.937,-39.8233C116.286,-44.3462 127.522,-53.8455 134.541,-59.7797"/>
<polygon fill="black" stroke="black" points="133.654,-61.3216 138.602,-63.2134 135.914,-58.6488 133.654,-61.3216"/>
<text text-anchor="middle" x="145.739" y="-53.2015" font-family="monospace" font-size="12.00">N1570Y</text>
</g>
<!-- 15 -->
<g id="node16" class="node"><title>15</title>
<ellipse fill="#1874cd" stroke="black" cx="-130.904" cy="29.9298" rx="2.5" ry="2.5"/>
</g>
<!-- anon_15_17_0 -->
<g id="node19" class="node"><title>anon_15_17_0</title>
<ellipse fill="white" stroke="black" cx="-90.1141" cy="32.9261" rx="1" ry="1"/>
</g>
<!-- 15&#45;&gt;anon_15_17_0 -->
<g id="edge15" class="edge"><title>15&#45;&gt;anon_15_17_0</title>
<path fill="none" stroke="black" d="M-128.227,30.1264C-120.287,30.7096 -97.0618,32.4157 -91.3796,32.8331"/>
</g>
<!-- anon_15_17_1 -->
<g id="node20" class="node"><title>anon_15_17_1</title>
<ellipse fill="white" stroke="black" cx="-51.489" cy="20.1457" rx="1" ry="1"/>
</g>
<!-- anon_15_17_0&#45;&gt;anon_15_17_1 -->
<g id="edge16" class="edge"><title>anon_15_17_0&#45;&gt;anon_15_17_1</title>
<path fill="none" stroke="black" d="M-89.1593,32.6101C-83.9549,30.8881 -59.0169,22.6365 -52.8637,20.6005"/>
</g>
<!-- anon_15_17_1&#45;&gt;17 -->
<g id="edge17" class="edge"><title>anon_15_17_1&#45;&gt;17</title>
<path fill="none" stroke="black" d="M-50.2603,19.0288C-45.4712,14.6754 -28.1105,-1.10547 -23.8451,-4.98268"/>
</g>
</g>
</svg>
