<?xml version="1.0" encoding="UTF-8" standalone="no"?>
<!DOCTYPE svg PUBLIC "-//W3C//DTD SVG 1.1//EN"
 "http://www.w3.org/Graphics/SVG/1.1/DTD/svg11.dtd">
<!-- Generated by graphviz version 2.38.0 (20140413.2041)
 -->
<!-- Title: %3 Pages: 1 -->
<svg width="274pt" height="199pt"
 viewBox="0.00 0.00 274.41 199.17" xmlns="http://www.w3.org/2000/svg" xmlns:xlink="http://www.w3.org/1999/xlink">
<g id="graph0" class="graph" transform="scale(1 1) rotate(0) translate(148.135 131.18)">
<title>%3</title>
<polygon fill="white" stroke="none" points="-148.135,67.9877 -148.135,-131.18 126.279,-131.18 126.279,67.9877 -148.135,67.9877"/>
<!-- 0 -->
<g id="node1" class="node"><title>0</title>
<ellipse fill="#ff3030" stroke="black" cx="3.12335" cy="-123.68" rx="3.5" ry="3.5"/>
</g>
<!-- 1 -->
<g id="node2" class="node"><title>1</title>
<ellipse fill="#ff3030" stroke="black" cx="24.6059" cy="-83.5948" rx="5.5" ry="5.5"/>
</g>
<!-- 0&#45;&gt;1 -->
<g id="edge1" class="edge"><title>0&#45;&gt;1</title>
<path fill="none" stroke="black" d="M4.80905,-120.535C8.52815,-113.595 17.4614,-96.9261 21.9448,-88.5604"/>
</g>
<!-- anon_1_10_0 -->
<g id="node9" class="node"><title>anon_1_10_0</title>
<ellipse fill="white" stroke="black" cx="34.9605" cy="-41.9473" rx="1" ry="1"/>
</g>
<!-- 1&#45;&gt;anon_1_10_0 -->
<g id="edge2" class="edge"><title>1&#45;&gt;anon_1_10_0</title>
<path fill="none" stroke="black" d="M25.9596,-78.1502C28.4155,-68.2722 33.4649,-47.9629 34.6888,-43.0399"/>
</g>
<!-- 2 -->
<g id="node3" class="node"><title>2</title>
<ellipse fill="#ff3030" stroke="black" cx="-112.055" cy="-26.0151" rx="2.5" ry="2.5"/>
</g>
<!-- 3 -->
<g id="node4" class="node"><title>3</title>
<ellipse fill="#ff3030" stroke="black" cx="-77.2268" cy="3.20498" rx="2.5" ry="2.5"/>
</g>
<!-- 2&#45;&gt;3 -->
<g id="edge4" class="edge"><title>2&#45;&gt;3</title>
<path fill="none" stroke="black" d="M-109.77,-24.0979C-103.353,-18.7145 -85.2465,-3.52329 -79.2118,1.53966"/>
</g>
<!-- 5 -->
<g id="node6" class="node"><title>5</title>
<ellipse fill="#ff3030" stroke="black" cx="-67.0454" cy="-42.9676" rx="2.5" ry="2.5"/>
</g>
<!-- 3&#45;&gt;5 -->
<g id="edge7" class="edge"><title>3&#45;&gt;5</title>
<path fill="none" stroke="black" d="M-76.6794,0.722538C-74.9281,-7.21961 -69.4705,-31.9699 -67.6462,-40.2432"/>
</g>
<!-- anon_3_4_0 -->
<g id="node10" class="node"><title>anon_3_4_0</title>
<ellipse fill="white" stroke="black" cx="-108.362" cy="36.1533" rx="1" ry="1"/>
</g>
<!-- 3&#45;&gt;anon_3_4_0 -->
<g id="edge5" class="edge"><title>3&#45;&gt;anon_3_4_0</title>
<path fill="none" stroke="black" d="M-79.2697,5.36681C-85.3307,11.7807 -103.059,30.5412 -107.396,35.1311"/>
</g>
<!-- anon_3_6_0 -->
<g id="node11" class="node"><title>anon_3_6_0</title>
<ellipse fill="white" stroke="black" cx="-36.3467" cy="19.9963" rx="1" ry="1"/>
</g>
<!-- 3&#45;&gt;anon_3_6_0 -->
<g id="edge8" class="edge"><title>3&#45;&gt;anon_3_6_0</title>
<path fill="none" stroke="black" d="M-74.5446,4.3067C-66.5867,7.57537 -43.3098,17.1362 -37.615,19.4754"/>
</g>
<!-- 4 -->
<g id="node5" class="node"><title>4</title>
<ellipse fill="#ff3030" stroke="black" cx="-141.635" cy="61.4877" rx="2.5" ry="2.5"/>
</g>
<!-- 6 -->
<g id="node7" class="node"><title>6</title>
<ellipse fill="#ff3030" stroke="black" cx="117.779" cy="53.6848" rx="4.5" ry="4.5"/>
</g>
<!-- 10 -->
<g id="node8" class="node"><title>10</title>
<ellipse fill="#ff3030" stroke="black" cx="41.3103" cy="-2.77775" rx="2.5" ry="2.5"/>
</g>
<!-- anon_1_10_0&#45;&gt;10 -->
<g id="edge3" class="edge"><title>anon_1_10_0&#45;&gt;10</title>
<path fill="none" stroke="black" d="M35.1718,-40.6441C36.0842,-35.0157 39.6951,-12.7409 40.9095,-5.25025"/>
</g>
<!-- anon_3_4_0&#45;&gt;4 -->
<g id="edge6" class="edge"><title>anon_3_4_0&#45;&gt;4</title>
<path fill="none" stroke="black" d="M-109.185,36.7795C-113.428,40.0103 -132.897,54.8348 -139.465,59.8353"/>
</g>
<!-- anon_3_6_1 -->
<g id="node12" class="node"><title>anon_3_6_1</title>
<ellipse fill="white" stroke="black" cx="1.41063" cy="32.6884" rx="1" ry="1"/>
</g>
<!-- anon_3_6_0&#45;&gt;anon_3_6_1 -->
<g id="edge9" class="edge"><title>anon_3_6_0&#45;&gt;anon_3_6_1</title>
<path fill="none" stroke="black" d="M-35.0904,20.4186C-29.3579,22.3456 -5.71117,30.2944 0.110937,32.2515"/>
</g>
<!-- anon_3_6_2 -->
<g id="node13" class="node"><title>anon_3_6_2</title>
<ellipse fill="white" stroke="black" cx="37.7532" cy="46.985" rx="1" ry="1"/>
</g>
<!-- anon_3_6_1&#45;&gt;anon_3_6_2 -->
<g id="edge10" class="edge"><title>anon_3_6_1&#45;&gt;anon_3_6_2</title>
<path fill="none" stroke="black" d="M2.97222,33.3027C9.0589,35.6971 31.1231,44.3768 36.544,46.5093"/>
</g>
<!-- anon_3_6_3 -->
<g id="node14" class="node"><title>anon_3_6_3</title>
<ellipse fill="white" stroke="black" cx="75.7283" cy="54.7821" rx="1" ry="1"/>
</g>
<!-- anon_3_6_2&#45;&gt;anon_3_6_3 -->
<g id="edge11" class="edge"><title>anon_3_6_2&#45;&gt;anon_3_6_3</title>
<path fill="none" stroke="black" d="M39.0167,47.2444C44.7823,48.4282 68.5655,53.3114 74.4212,54.5138"/>
</g>
<!-- anon_3_6_3&#45;&gt;6 -->
<g id="edge12" class="edge"><title>anon_3_6_3&#45;&gt;6</title>
<path fill="none" stroke="black" d="M76.7678,54.755C81.7762,54.6243 103.571,54.0556 113.189,53.8046"/>
</g>
</g>
</svg>
