<?xml version="1.0" encoding="UTF-8" standalone="no"?>
<!DOCTYPE svg PUBLIC "-//W3C//DTD SVG 1.1//EN"
 "http://www.w3.org/Graphics/SVG/1.1/DTD/svg11.dtd">
<!-- Generated by graphviz version 2.38.0 (20140413.2041)
 -->
<!-- Title: %3 Pages: 1 -->
<svg width="123pt" height="207pt"
 viewBox="0.00 0.00 123.36 207.46" xmlns="http://www.w3.org/2000/svg" xmlns:xlink="http://www.w3.org/1999/xlink">
<g id="graph0" class="graph" transform="scale(1 1) rotate(0) translate(48.5496 140.18)">
<title>%3</title>
<polygon fill="white" stroke="none" points="-48.5496,67.2827 -48.5496,-140.18 74.8103,-140.18 74.8103,67.2827 -48.5496,67.2827"/>
<!-- 0 -->
<g id="node1" class="node"><title>0</title>
<ellipse fill="#ff3030" stroke="black" cx="30.1233" cy="-132.68" rx="3.5" ry="3.5"/>
</g>
<!-- 1 -->
<g id="node2" class="node"><title>1</title>
<ellipse fill="#ff3030" stroke="black" cx="51.6059" cy="-92.5948" rx="5.5" ry="5.5"/>
</g>
<!-- 0&#45;&gt;1 -->
<g id="edge1" class="edge"><title>0&#45;&gt;1</title>
<path fill="none" stroke="black" d="M31.809,-129.535C35.5282,-122.595 44.4614,-105.926 48.9448,-97.5604"/>
</g>
<!-- anon_1_10_0 -->
<g id="node9" class="node"><title>anon_1_10_0</title>
<ellipse fill="white" stroke="black" cx="61.9605" cy="-50.9473" rx="1" ry="1"/>
</g>
<!-- 1&#45;&gt;anon_1_10_0 -->
<g id="edge2" class="edge"><title>1&#45;&gt;anon_1_10_0</title>
<path fill="none" stroke="black" d="M52.9596,-87.1502C55.4155,-77.2722 60.4649,-56.9629 61.6888,-52.0399"/>
</g>
<!-- 2 -->
<g id="node3" class="node"><title>2</title>
<ellipse fill="#ff3030" stroke="black" cx="-42.0496" cy="-27.8659" rx="2.5" ry="2.5"/>
</g>
<!-- 3 -->
<g id="node4" class="node"><title>3</title>
<ellipse fill="#ff3030" stroke="black" cx="1.14025" cy="-17.4252" rx="2.5" ry="2.5"/>
</g>
<!-- 2&#45;&gt;3 -->
<g id="edge4" class="edge"><title>2&#45;&gt;3</title>
<path fill="none" stroke="black" d="M-39.4773,-27.2441C-31.7774,-25.3827 -8.9753,-19.8705 -1.36455,-18.0307"/>
</g>
<!-- 5 -->
<g id="node6" class="node"><title>5</title>
<ellipse fill="#ff3030" stroke="black" cx="28.0603" cy="-52.7601" rx="2.5" ry="2.5"/>
</g>
<!-- 3&#45;&gt;5 -->
<g id="edge7" class="edge"><title>3&#45;&gt;5</title>
<path fill="none" stroke="black" d="M2.90655,-19.7436C7.86619,-26.2536 21.8617,-44.6238 26.5261,-50.7463"/>
</g>
<!-- anon_3_4_0 -->
<g id="node10" class="node"><title>anon_3_4_0</title>
<ellipse fill="white" stroke="black" cx="15.4914" cy="22.2686" rx="1" ry="1"/>
</g>
<!-- 3&#45;&gt;anon_3_4_0 -->
<g id="edge5" class="edge"><title>3&#45;&gt;anon_3_4_0</title>
<path fill="none" stroke="black" d="M2.08187,-14.8208C4.87552,-7.09384 13.0469,15.5075 15.0461,21.0371"/>
</g>
<!-- 4 -->
<g id="node5" class="node"><title>4</title>
<ellipse fill="#ff3030" stroke="black" cx="27.3577" cy="60.7827" rx="2.5" ry="2.5"/>
</g>
<!-- 6 -->
<g id="node7" class="node"><title>6</title>
<ellipse fill="#ff3030" stroke="black" cx="-13" cy="13" rx="4.5" ry="4.5"/>
</g>
<!-- 10 -->
<g id="node8" class="node"><title>10</title>
<ellipse fill="#ff3030" stroke="black" cx="68.3103" cy="-11.7778" rx="2.5" ry="2.5"/>
</g>
<!-- anon_1_10_0&#45;&gt;10 -->
<g id="edge3" class="edge"><title>anon_1_10_0&#45;&gt;10</title>
<path fill="none" stroke="black" d="M62.1718,-49.6441C63.0842,-44.0157 66.6951,-21.7409 67.9095,-14.2503"/>
</g>
<!-- anon_3_4_0&#45;&gt;4 -->
<g id="edge6" class="edge"><title>anon_3_4_0&#45;&gt;4</title>
<path fill="none" stroke="black" d="M15.8862,23.55C17.5913,29.0842 24.3394,50.9862 26.6086,58.3516"/>
</g>
</g>
</svg>
