<?xml version="1.0" encoding="UTF-8" standalone="no"?>
<!DOCTYPE svg PUBLIC "-//W3C//DTD SVG 1.1//EN"
 "http://www.w3.org/Graphics/SVG/1.1/DTD/svg11.dtd">
<!-- Generated by graphviz version 2.38.0 (20140413.2041)
 -->
<!-- Title: %3 Pages: 1 -->
<svg width="274pt" height="198pt"
 viewBox="0.00 0.00 274.41 198.17" xmlns="http://www.w3.org/2000/svg" xmlns:xlink="http://www.w3.org/1999/xlink">
<g id="graph0" class="graph" transform="scale(1 1) rotate(0) translate(148.135 131.18)">
<title>%3</title>
<polygon fill="white" stroke="none" points="-148.135,66.9877 -148.135,-131.18 126.279,-131.18 126.279,66.9877 -148.135,66.9877"/>
<!-- 0 -->
<g id="node1" class="node"><title>0</title>
<ellipse fill="#ff3030" stroke="black" cx="3.12335" cy="-123.68" rx="3.5" ry="3.5"/>
</g>
<!-- 1 -->
<g id="node2" class="node"><title>1</title>
<ellipse fill="#ff3030" stroke="black" cx="24.6059" cy="-83.5948" rx="5.5" ry="5.5"/>
</g>
<!-- 0&#45;&gt;1 -->
<g id="edge1" class="edge"><title>0&#45;&gt;1</title>
<path fill="none" stroke="black" d="M4.80905,-120.535C8.52815,-113.595 17.4614,-96.9261 21.9448,-88.5604"/>
</g>
<!-- anon_1_10_0 -->
<g id="node13" class="node"><title>anon_1_10_0</title>
<ellipse fill="white" stroke="black" cx="34.9605" cy="-41.9473" rx="1" ry="1"/>
</g>
<!-- 1&#45;&gt;anon_1_10_0 -->
<g id="edge2" class="edge"><title>1&#45;&gt;anon_1_10_0</title>
<path fill="none" stroke="black" d="M25.9596,-78.1502C28.4155,-68.2722 33.4649,-47.9629 34.6888,-43.0399"/>
</g>
<!-- 2 -->
<g id="node3" class="node"><title>2</title>
<ellipse fill="#ff3030" stroke="black" cx="-112.055" cy="-27.0151" rx="2.5" ry="2.5"/>
</g>
<!-- 3 -->
<g id="node4" class="node"><title>3</title>
<ellipse fill="#ff3030" stroke="black" cx="-77.2268" cy="2.20498" rx="2.5" ry="2.5"/>
</g>
<!-- 2&#45;&gt;3 -->
<g id="edge4" class="edge"><title>2&#45;&gt;3</title>
<path fill="none" stroke="black" d="M-109.77,-25.0979C-103.353,-19.7145 -85.2465,-4.52329 -79.2118,0.539657"/>
</g>
<!-- 5 -->
<g id="node6" class="node"><title>5</title>
<ellipse fill="#ff3030" stroke="black" cx="-67.0454" cy="-43.9676" rx="2.5" ry="2.5"/>
</g>
<!-- 3&#45;&gt;5 -->
<g id="edge7" class="edge"><title>3&#45;&gt;5</title>
<path fill="none" stroke="black" d="M-76.6794,-0.277462C-74.9281,-8.21961 -69.4705,-32.9699 -67.6462,-41.2432"/>
</g>
<!-- anon_3_4_0 -->
<g id="node14" class="node"><title>anon_3_4_0</title>
<ellipse fill="white" stroke="black" cx="-108.362" cy="35.1533" rx="1" ry="1"/>
</g>
<!-- 3&#45;&gt;anon_3_4_0 -->
<g id="edge5" class="edge"><title>3&#45;&gt;anon_3_4_0</title>
<path fill="none" stroke="black" d="M-79.2697,4.36681C-85.3307,10.7807 -103.059,29.5412 -107.396,34.1311"/>
</g>
<!-- anon_3_6_0 -->
<g id="node15" class="node"><title>anon_3_6_0</title>
<ellipse fill="white" stroke="black" cx="-36.3467" cy="18.9963" rx="1" ry="1"/>
</g>
<!-- 3&#45;&gt;anon_3_6_0 -->
<g id="edge8" class="edge"><title>3&#45;&gt;anon_3_6_0</title>
<path fill="none" stroke="black" d="M-74.5446,3.3067C-66.5867,6.57537 -43.3098,16.1362 -37.615,18.4754"/>
</g>
<!-- 4 -->
<g id="node5" class="node"><title>4</title>
<ellipse fill="#ff3030" stroke="black" cx="-141.635" cy="60.4877" rx="2.5" ry="2.5"/>
</g>
<!-- 6 -->
<g id="node7" class="node"><title>6</title>
<ellipse fill="#ff3030" stroke="black" cx="117.779" cy="52.6848" rx="4.5" ry="4.5"/>
</g>
<!-- 7 -->
<g id="node8" class="node"><title>7</title>
<ellipse fill="#ff3030" stroke="black" cx="3" cy="-3" rx="2.5" ry="2.5"/>
</g>
<!-- 8 -->
<g id="node9" class="node"><title>8</title>
<ellipse fill="#ff3030" stroke="black" cx="30" cy="24" rx="2.5" ry="2.5"/>
</g>
<!-- 9 -->
<g id="node10" class="node"><title>9</title>
<ellipse fill="#ff3030" stroke="black" cx="3" cy="-30" rx="2.5" ry="2.5"/>
</g>
<!-- 10 -->
<g id="node11" class="node"><title>10</title>
<ellipse fill="#ff3030" stroke="black" cx="41.3103" cy="-2.77775" rx="2.5" ry="2.5"/>
</g>
<!-- 11 -->
<g id="node12" class="node"><title>11</title>
<ellipse fill="#ff3030" stroke="black" cx="-24" cy="-30" rx="2.5" ry="2.5"/>
</g>
<!-- anon_1_10_0&#45;&gt;10 -->
<g id="edge3" class="edge"><title>anon_1_10_0&#45;&gt;10</title>
<path fill="none" stroke="black" d="M35.1718,-40.6441C36.0842,-35.0157 39.6951,-12.7409 40.9095,-5.25025"/>
</g>
<!-- anon_3_4_0&#45;&gt;4 -->
<g id="edge6" class="edge"><title>anon_3_4_0&#45;&gt;4</title>
<path fill="none" stroke="black" d="M-109.185,35.7795C-113.428,39.0103 -132.897,53.8348 -139.465,58.8353"/>
</g>
<!-- anon_3_6_1 -->
<g id="node16" class="node"><title>anon_3_6_1</title>
<ellipse fill="white" stroke="black" cx="1.41063" cy="31.6884" rx="1" ry="1"/>
</g>
<!-- anon_3_6_0&#45;&gt;anon_3_6_1 -->
<g id="edge9" class="edge"><title>anon_3_6_0&#45;&gt;anon_3_6_1</title>
<path fill="none" stroke="black" d="M-35.0904,19.4186C-29.3579,21.3456 -5.71117,29.2944 0.110937,31.2515"/>
</g>
<!-- anon_3_6_2 -->
<g id="node17" class="node"><title>anon_3_6_2</title>
<ellipse fill="white" stroke="black" cx="37.7532" cy="45.985" rx="1" ry="1"/>
</g>
<!-- anon_3_6_1&#45;&gt;anon_3_6_2 -->
<g id="edge10" class="edge"><title>anon_3_6_1&#45;&gt;anon_3_6_2</title>
<path fill="none" stroke="black" d="M2.97222,32.3027C9.0589,34.6971 31.1231,43.3768 36.544,45.5093"/>
</g>
<!-- anon_3_6_3 -->
<g id="node18" class="node"><title>anon_3_6_3</title>
<ellipse fill="white" stroke="black" cx="75.7283" cy="53.7821" rx="1" ry="1"/>
</g>
<!-- anon_3_6_2&#45;&gt;anon_3_6_3 -->
<g id="edge11" class="edge"><title>anon_3_6_2&#45;&gt;anon_3_6_3</title>
<path fill="none" stroke="black" d="M39.0167,46.2444C44.7823,47.4282 68.5655,52.3114 74.4212,53.5138"/>
</g>
<!-- anon_3_6_3&#45;&gt;6 -->
<g id="edge12" class="edge"><title>anon_3_6_3&#45;&gt;6</title>
<path fill="none" stroke="black" d="M76.7678,53.755C81.7762,53.6243 103.571,53.0556 113.189,52.8046"/>
</g>
</g>
</svg>
