<?xml version="1.0" encoding="UTF-8" standalone="no"?>
<!DOCTYPE svg PUBLIC "-//W3C//DTD SVG 1.1//EN"
 "http://www.w3.org/Graphics/SVG/1.1/DTD/svg11.dtd">
<!-- Generated by graphviz version 2.38.0 (20140413.2041)
 -->
<!-- Title: %3 Pages: 1 -->
<svg width="97pt" height="138pt"
 viewBox="0.00 0.00 96.79 137.96" xmlns="http://www.w3.org/2000/svg" xmlns:xlink="http://www.w3.org/1999/xlink">
<g id="graph0" class="graph" transform="scale(1 1) rotate(0) translate(33.7709 74.2616)">
<title>%3</title>
<polygon fill="white" stroke="none" points="-33.7709,63.6939 -33.7709,-74.2616 63.0144,-74.2616 63.0144,63.6939 -33.7709,63.6939"/>
<!-- 0 -->
<g id="node1" class="node"><title>0</title>
<ellipse fill="#787878" stroke="black" cx="6.0496" cy="15.2469" rx="9" ry="9"/>
</g>
<!-- 1 -->
<g id="node2" class="node"><title>1</title>
<ellipse fill="#787878" stroke="black" cx="56.5144" cy="26.2081" rx="2.5" ry="2.5"/>
</g>
<!-- 0&#45;&gt;1 -->
<g id="edge1" class="edge"><title>0&#45;&gt;1</title>
<path fill="none" stroke="black" d="M15.3056,17.2573C27.1427,19.8284 46.9487,24.1304 53.9599,25.6533"/>
</g>
<!-- 2 -->
<g id="node3" class="node"><title>2</title>
<ellipse fill="#787878" stroke="black" cx="-24.0745" cy="57.1939" rx="2.5" ry="2.5"/>
</g>
<!-- 0&#45;&gt;2 -->
<g id="edge2" class="edge"><title>0&#45;&gt;2</title>
<path fill="none" stroke="black" d="M0.524369,22.9406C-6.5416,32.7798 -18.3645,49.2429 -22.5497,55.0706"/>
</g>
<!-- anon_0_3_0 -->
<g id="node5" class="node"><title>anon_0_3_0</title>
<ellipse fill="white" stroke="black" cx="-11.2185" cy="-30.8873" rx="1" ry="1"/>
</g>
<!-- 0&#45;&gt;anon_0_3_0 -->
<g id="edge3" class="edge"><title>0&#45;&gt;anon_0_3_0</title>
<path fill="none" stroke="black" d="M2.88236,6.78515C-1.47966,-4.86859 -9.00414,-24.9713 -10.8171,-29.8149"/>
</g>
<!-- 3 -->
<g id="node4" class="node"><title>3</title>
<ellipse fill="#787878" stroke="black" cx="-27.2709" cy="-67.7616" rx="2.5" ry="2.5"/>
</g>
<!-- anon_0_3_0&#45;&gt;3 -->
<g id="edge4" class="edge"><title>anon_0_3_0&#45;&gt;3</title>
<path fill="none" stroke="black" d="M-11.9083,-32.4718C-14.4047,-38.2064 -22.9862,-57.9191 -26.1165,-65.1097"/>
</g>
</g>
</svg>
