<?xml version="1.0" encoding="UTF-8" standalone="no"?>
<!DOCTYPE svg PUBLIC "-//W3C//DTD SVG 1.1//EN"
 "http://www.w3.org/Graphics/SVG/1.1/DTD/svg11.dtd">
<!-- Generated by graphviz version 2.38.0 (20140413.2041)
 -->
<!-- Title: %3 Pages: 1 -->
<svg width="606pt" height="620pt"
 viewBox="0.00 0.00 605.86 619.72" xmlns="http://www.w3.org/2000/svg" xmlns:xlink="http://www.w3.org/1999/xlink">
<g id="graph0" class="graph" transform="scale(1 1) rotate(0) translate(204.079 365.744)">
<title>%3</title>
<polygon fill="white" stroke="none" points="-204.079,253.977 -204.079,-365.744 401.782,-365.744 401.782,253.977 -204.079,253.977"/>
<!-- 0 -->
<g id="node1" class="node"><title>0</title>
<ellipse fill="deepskyblue" stroke="black" cx="-190.591" cy="36.7112" rx="2.5" ry="2.5"/>
</g>
<!-- 3 -->
<g id="node4" class="node"><title>3</title>
<path fill="#98f5ff" stroke="black" stroke-width="0.5" d="M-119.047,-10.156C-119.047,-10.156 -94.0466,-10.156 -94.0466,-10.156 -94.0466,-11.5203 -94.1582,-12.8823 -94.3805,-14.2284 -94.6027,-15.5745 -94.9348,-16.9001 -95.3733,-18.192 -95.3733,-18.192 -119.047,-10.156 -119.047,-10.156"/>
<path fill="#ff3030" stroke="black" stroke-width="0.5" d="M-119.047,-10.156C-119.047,-10.156 -95.3733,-18.192 -95.3733,-18.192 -95.7241,-19.2253 -96.1421,-20.2346 -96.6247,-21.2132 -97.1074,-22.1919 -97.6536,-23.138 -98.2598,-24.0453 -98.8661,-24.9526 -99.5311,-25.8193 -100.251,-26.6397 -100.97,-27.4601 -101.742,-28.2325 -102.563,-28.952 -103.383,-29.6715 -104.25,-30.3365 -105.157,-30.9428 -106.065,-31.549 -107.011,-32.0952 -107.989,-32.5779 -108.968,-33.0605 -109.977,-33.4785 -111.011,-33.8293 -112.044,-34.18 -113.099,-34.4628 -114.169,-34.6757 -115.24,-34.8886 -116.323,-35.0311 -117.411,-35.1025 -118.5,-35.1739 -119.593,-35.1739 -120.682,-35.1025 -121.771,-35.0311 -122.854,-34.8886 -123.924,-34.6757 -124.994,-34.4628 -126.049,-34.18 -127.083,-33.8293 -128.116,-33.4785 -129.125,-33.0605 -130.104,-32.5779 -131.082,-32.0952 -132.029,-31.549 -132.936,-30.9428 -133.843,-30.3365 -134.71,-29.6715 -135.53,-28.952 -136.351,-28.2325 -137.123,-27.4601 -137.843,-26.6397 -137.843,-26.6397 -119.047,-10.156 -119.047,-10.156"/>
<path fill="#1874cd" stroke="black" stroke-width="0.5" d="M-119.047,-10.156C-119.047,-10.156 -137.843,-26.6397 -137.843,-26.6397 -138.427,-25.9732 -138.976,-25.276 -139.486,-24.5512 -139.997,-23.8264 -140.468,-23.075 -140.899,-22.3001 -141.329,-21.5252 -141.719,-20.728 -142.065,-19.9118 -142.41,-19.0955 -142.713,-18.2615 -142.97,-17.4131 -143.227,-16.5648 -143.439,-15.7034 -143.605,-14.8325 -143.771,-13.9617 -143.89,-13.0826 -143.963,-12.1991 -144.035,-11.3155 -144.061,-10.4287 -144.039,-9.5425 -144.017,-8.65626 -143.948,-7.7718 -143.833,-6.89288 -143.717,-6.01395 -143.555,-5.1418 -143.346,-4.28013 -143.138,-3.41845 -142.884,-2.56847 -142.585,-1.73378 -142.287,-0.899096 -141.944,-0.0808855 -141.558,0.717381 -141.173,1.51565 -140.745,2.29284 -140.277,3.04567 -139.808,3.79849 -139.301,4.52588 -138.755,5.22476 -138.21,5.92364 -137.628,6.59301 -137.011,7.23004 -136.395,7.86706 -135.745,8.47085 -135.064,9.03883 -134.383,9.60682 -133.673,10.1382 -132.936,10.6307 -132.936,10.6307 -119.047,-10.156 -119.047,-10.156"/>
<path fill="deepskyblue" stroke="black" stroke-width="0.5" d="M-119.047,-10.156C-119.047,-10.156 -132.936,10.6307 -132.936,10.6307 -132,11.2559 -131.023,11.8172 -130.012,12.3108 -129.001,12.8044 -127.957,13.2292 -126.889,13.5822 -125.82,13.9352 -124.729,14.2156 -123.623,14.4216 -122.516,14.6276 -121.397,14.7586 -120.273,14.8139 -119.149,14.8691 -118.023,14.8483 -116.902,14.7518 -115.78,14.6552 -114.667,14.4831 -113.569,14.2365 -112.471,13.99 -111.391,13.6695 -110.336,13.2774 -109.281,12.8854 -108.254,12.4225 -107.262,11.892 -106.269,11.3615 -105.314,10.7646 -104.402,10.1054 -103.49,9.44617 -102.623,8.72612 -101.808,7.95014 -100.993,7.17417 -100.231,6.34405 -99.5281,5.46545 -98.8249,4.58685 -98.1819,3.66178 -97.6033,2.69654 -97.0248,1.73129 -96.5121,0.72809 -96.0687,-0.306232 -95.6253,-1.34055 -95.2523,-2.40363 -94.9522,-3.48821 -94.652,-4.5728 -94.4254,-5.67641 -94.274,-6.79151 -94.1225,-7.90662 -94.0466,-9.03069 -94.0466,-10.156 -94.0466,-10.156 -119.047,-10.156 -119.047,-10.156"/>
<ellipse fill="none" stroke="black" cx="-119.047" cy="-10.156" rx="25" ry="25"/>
</g>
<!-- 0&#45;&gt;3 -->
<g id="edge1" class="edge"><title>0&#45;&gt;3</title>
<path fill="none" stroke="black" d="M-188.21,35.1518C-180.791,30.2916 -157.535,15.0572 -140.023,3.58506"/>
</g>
<!-- 1 -->
<g id="node2" class="node"><title>1</title>
<path fill="#98f5ff" stroke="black" stroke-width="0.5" d="M114.616,18.8331C114.616,18.8331 132.116,18.8331 132.116,18.8331 132.116,17.7824 132.022,16.7339 131.834,15.7003 131.646,14.6666 131.365,13.652 130.995,12.6687 130.625,11.6854 130.167,10.7374 129.627,9.83628 129.087,8.93512 128.466,8.08444 127.774,7.29453 127.081,6.50462 126.318,5.7787 125.496,5.12556 124.673,4.47242 123.792,3.89472 122.866,3.39946 121.939,2.90419 120.97,2.49337 119.97,2.17198 118.969,1.85059 117.942,1.61993 116.901,1.48279 116.901,1.48279 114.616,18.8331 114.616,18.8331"/>
<path fill="deepskyblue" stroke="black" stroke-width="0.5" d="M114.616,18.8331C114.616,18.8331 116.901,1.48279 116.901,1.48279 116.025,1.3675 115.142,1.31868 114.259,1.33674 113.375,1.35481 112.495,1.43971 111.625,1.59072 110.754,1.74173 109.897,1.95842 109.059,2.23893 108.222,2.51944 107.406,2.86296 106.621,3.26655 105.835,3.67014 105.081,4.13264 104.365,4.65008 103.649,5.16752 102.973,5.73842 102.344,6.35789 101.714,6.97735 101.132,7.64361 100.603,8.35093 100.074,9.05826 99.5992,9.80463 99.1828,10.5836 98.7664,11.3626 98.4096,12.1721 98.1155,13.005 97.8213,13.8378 97.5906,14.6918 97.4254,15.5595 97.2601,16.4273 97.1608,17.3062 97.1283,18.189 97.0958,19.0717 97.1302,19.9556 97.2311,20.8331 97.3321,21.7106 97.4993,22.5793 97.7314,23.4315 97.9635,24.2838 98.2598,25.1173 98.6178,25.9248 98.9757,26.7323 99.3943,27.5116 99.8699,28.2559 100.346,29.0003 100.877,29.7075 101.459,30.3716 102.042,31.0357 102.674,31.6548 103.349,32.2235 104.025,32.7922 104.743,33.3089 105.497,33.7692 106.251,34.2295 107.039,34.6321 107.853,34.9734 108.668,35.3148 109.507,35.594 110.364,35.8086 111.221,36.0233 112.093,36.1727 112.972,36.2557 113.852,36.3387 114.736,36.3549 115.618,36.3044 116.5,36.2538 117.377,36.1366 118.241,35.9536 119.105,35.7707 119.954,35.5226 120.781,35.2114 121.608,34.9003 122.409,34.527 123.18,34.0948 123.95,33.6625 124.687,33.1726 125.383,32.6291 126.079,32.0857 126.734,31.4903 127.34,30.8481 127.946,30.2059 128.503,29.5187 129.006,28.7923 129.509,28.066 129.956,27.3027 130.343,26.5089 130.731,25.7151 131.057,24.893 131.321,24.0499 131.584,23.2067 131.783,22.3449 131.916,21.4717 132.05,20.5984 132.116,19.7164 132.116,18.8331 132.116,18.8331 114.616,18.8331 114.616,18.8331"/>
<ellipse fill="none" stroke="black" cx="114.616" cy="18.8331" rx="17.5" ry="17.5"/>
</g>
<!-- 12 -->
<g id="node13" class="node"><title>12</title>
<ellipse fill="deepskyblue" stroke="black" cx="170.477" cy="62.9423" rx="2.5" ry="2.5"/>
</g>
<!-- 1&#45;&gt;12 -->
<g id="edge3" class="edge"><title>1&#45;&gt;12</title>
<path fill="none" stroke="black" d="M128.425,29.7365C142.123,40.5534 161.972,56.227 168.391,61.2953"/>
</g>
<!-- 19 -->
<g id="node20" class="node"><title>19</title>
<ellipse fill="deepskyblue" stroke="black" cx="158.883" cy="-36.369" rx="2.5" ry="2.5"/>
</g>
<!-- 1&#45;&gt;19 -->
<g id="edge4" class="edge"><title>1&#45;&gt;19</title>
<path fill="none" stroke="black" d="M125.787,4.90326C136.647,-8.6392 152.217,-28.0561 157.249,-34.3306"/>
</g>
<!-- 23 -->
<g id="node24" class="node"><title>23</title>
<ellipse fill="deepskyblue" stroke="black" cx="179.27" cy="29.3725" rx="2.5" ry="2.5"/>
</g>
<!-- 1&#45;&gt;23 -->
<g id="edge5" class="edge"><title>1&#45;&gt;23</title>
<path fill="none" stroke="black" d="M131.942,21.6575C147.503,24.194 169.021,27.7018 176.544,28.9281"/>
</g>
<!-- 24 -->
<g id="node25" class="node"><title>24</title>
<ellipse fill="deepskyblue" stroke="black" cx="175.375" cy="-6.70083" rx="2.5" ry="2.5"/>
</g>
<!-- 1&#45;&gt;24 -->
<g id="edge6" class="edge"><title>1&#45;&gt;24</title>
<path fill="none" stroke="black" d="M130.899,11.9905C145.522,5.84516 165.744,-2.6532 172.813,-5.62403"/>
</g>
<!-- 2 -->
<g id="node3" class="node"><title>2</title>
<ellipse fill="#ff3030" stroke="black" cx="52.8243" cy="-32.7916" rx="9" ry="9"/>
</g>
<!-- 33 -->
<g id="node33" class="node"><title>33</title>
<ellipse fill="#ff3030" stroke="black" cx="14.8205" cy="-74.4227" rx="2.5" ry="2.5"/>
</g>
<!-- 2&#45;&gt;33 -->
<g id="edge10" class="edge"><title>2&#45;&gt;33</title>
<path fill="none" stroke="black" d="M46.5487,-39.6661C37.6098,-49.4582 21.717,-66.8679 16.5179,-72.5632"/>
</g>
<!-- anon_2_16_0 -->
<g id="node92" class="node"><title>anon_2_16_0</title>
<ellipse fill="white" stroke="black" cx="100.009" cy="-72.3567" rx="1" ry="1"/>
</g>
<!-- 2&#45;&gt;anon_2_16_0 -->
<g id="edge8" class="edge"><title>2&#45;&gt;anon_2_16_0</title>
<path fill="none" stroke="black" d="M59.7865,-38.6296C71.2711,-48.2595 93.4529,-66.8594 98.8189,-71.3589"/>
</g>
<!-- 9 -->
<g id="node10" class="node"><title>9</title>
<ellipse fill="#ff3030" stroke="black" cx="-74.464" cy="-53.5262" rx="2.5" ry="2.5"/>
</g>
<!-- 3&#45;&gt;9 -->
<g id="edge12" class="edge"><title>3&#45;&gt;9</title>
<path fill="none" stroke="black" d="M-100.913,-27.7963C-91.2702,-37.177 -80.5511,-47.6046 -76.3229,-51.7178"/>
</g>
<!-- 10 -->
<g id="node11" class="node"><title>10</title>
<ellipse fill="#ff3030" stroke="black" cx="-168.988" cy="53.9846" rx="2.5" ry="2.5"/>
</g>
<!-- 3&#45;&gt;10 -->
<g id="edge13" class="edge"><title>3&#45;&gt;10</title>
<path fill="none" stroke="black" d="M-134.574,9.78686C-146.715,25.3793 -162.348,45.4572 -167.363,51.8983"/>
</g>
<!-- 27 -->
<g id="node27" class="node"><title>27</title>
<ellipse fill="deepskyblue" stroke="black" cx="-139.298" cy="-92.5918" rx="2.5" ry="2.5"/>
</g>
<!-- 3&#45;&gt;27 -->
<g id="edge14" class="edge"><title>3&#45;&gt;27</title>
<path fill="none" stroke="black" d="M-125.013,-34.4436C-129.96,-54.5807 -136.51,-81.2433 -138.615,-89.8136"/>
</g>
<!-- 46 -->
<g id="node41" class="node"><title>46</title>
<ellipse fill="#1874cd" stroke="black" cx="-178.605" cy="-64.2568" rx="2.5" ry="2.5"/>
</g>
<!-- 3&#45;&gt;46 -->
<g id="edge15" class="edge"><title>3&#45;&gt;46</title>
<path fill="none" stroke="black" d="M-137.565,-26.9773C-149.555,-37.8686 -164.401,-51.3545 -172.547,-58.754"/>
<polygon fill="black" stroke="black" points="-174.143,-57.8398 -176.668,-62.4971 -171.79,-60.4306 -174.143,-57.8398"/>
<text text-anchor="middle" x="-178.08" y="-48.5042" font-family="monospace" font-size="14.00">I829L</text>
</g>
<!-- 77 -->
<g id="node65" class="node"><title>77</title>
<ellipse fill="#1874cd" stroke="black" cx="-182.022" cy="-34.8028" rx="2.5" ry="2.5"/>
</g>
<!-- 3&#45;&gt;77 -->
<g id="edge16" class="edge"><title>3&#45;&gt;77</title>
<path fill="none" stroke="black" d="M-142.496,-19.3336C-156.764,-24.9176 -173.392,-31.4252 -179.558,-33.8385"/>
</g>
<!-- 78 -->
<g id="node66" class="node"><title>78</title>
<ellipse fill="#1874cd" stroke="black" cx="-197.579" cy="-9.08143" rx="2.5" ry="2.5"/>
</g>
<!-- 3&#45;&gt;78 -->
<g id="edge17" class="edge"><title>3&#45;&gt;78</title>
<path fill="none" stroke="black" d="M-144.327,-9.8101C-162.98,-9.55486 -186.476,-9.23335 -194.632,-9.12175"/>
</g>
<!-- 95 -->
<g id="node78" class="node"><title>95</title>
<ellipse fill="#1874cd" stroke="black" cx="-152.036" cy="-70.4126" rx="2.5" ry="2.5"/>
</g>
<!-- 3&#45;&gt;95 -->
<g id="edge18" class="edge"><title>3&#45;&gt;95</title>
<path fill="none" stroke="black" d="M-131.143,-32.2512C-138.646,-45.9552 -147.458,-62.0513 -150.728,-68.0249"/>
</g>
<!-- 122 -->
<g id="node91" class="node"><title>122</title>
<ellipse fill="#98f5ff" stroke="black" cx="-175.707" cy="12.5449" rx="2.5" ry="2.5"/>
</g>
<!-- 3&#45;&gt;122 -->
<g id="edge19" class="edge"><title>3&#45;&gt;122</title>
<path fill="none" stroke="black" d="M-142.42,-0.791642C-154.613,4.09369 -168.071,9.48565 -173.376,11.6109"/>
</g>
<!-- 4 -->
<g id="node5" class="node"><title>4</title>
<ellipse fill="#ff3030" stroke="black" cx="78.051" cy="102.472" rx="12" ry="12"/>
</g>
<!-- 34 -->
<g id="node34" class="node"><title>34</title>
<ellipse fill="#ff3030" stroke="black" cx="131.383" cy="128.477" rx="2.5" ry="2.5"/>
</g>
<!-- 4&#45;&gt;34 -->
<g id="edge21" class="edge"><title>4&#45;&gt;34</title>
<path fill="none" stroke="black" d="M88.8435,107.735C101.505,113.908 121.674,123.743 128.792,127.214"/>
</g>
<!-- 38 -->
<g id="node36" class="node"><title>38</title>
<ellipse fill="#ff3030" stroke="black" cx="137.822" cy="96.6194" rx="2.5" ry="2.5"/>
</g>
<!-- 4&#45;&gt;38 -->
<g id="edge22" class="edge"><title>4&#45;&gt;38</title>
<path fill="none" stroke="black" d="M90.1465,101.288C104.337,99.8983 126.941,97.6849 134.919,96.9037"/>
</g>
<!-- 40 -->
<g id="node37" class="node"><title>40</title>
<ellipse fill="#ff3030" stroke="black" cx="108.87" cy="153.701" rx="2.5" ry="2.5"/>
</g>
<!-- 4&#45;&gt;40 -->
<g id="edge23" class="edge"><title>4&#45;&gt;40</title>
<path fill="none" stroke="black" d="M84.2877,112.839C91.6045,125.002 103.26,144.376 107.373,151.213"/>
</g>
<!-- 41 -->
<g id="node38" class="node"><title>41</title>
<ellipse fill="#ff3030" stroke="black" cx="79.8848" cy="166.985" rx="2.5" ry="2.5"/>
</g>
<!-- 4&#45;&gt;41 -->
<g id="edge24" class="edge"><title>4&#45;&gt;41</title>
<path fill="none" stroke="black" d="M78.396,114.607C78.8359,130.082 79.5682,155.847 79.807,164.247"/>
</g>
<!-- 5 -->
<g id="node6" class="node"><title>5</title>
<path fill="deepskyblue" stroke="black" stroke-width="0.5" d="M51.4316,-61.8145C51.4316,-61.8145 73.9316,-61.8145 73.9316,-61.8145 73.9316,-62.5988 73.8906,-63.3826 73.8088,-64.1626 73.7269,-64.9426 73.6044,-65.7178 73.4415,-66.4851 73.2787,-67.2523 73.0759,-68.0105 72.834,-68.7565 72.592,-69.5025 72.3111,-70.2354 71.9926,-70.9521 71.6741,-71.6688 71.3183,-72.3684 70.9268,-73.048 70.5352,-73.7275 70.1084,-74.3861 69.648,-75.0211 69.1876,-75.6561 68.6944,-76.2666 68.1703,-76.8501 67.6462,-77.4335 67.0919,-77.9892 66.5098,-78.5148 65.9277,-79.0404 65.3184,-79.5352 64.6846,-79.9972 64.0508,-80.4591 63.3933,-80.8876 62.7147,-81.2809 62.0362,-81.6742 61.3375,-82.0318 60.6216,-82.3521 59.9057,-82.6725 59.1736,-82.9552 58.4282,-83.1991 57.6827,-83.443 56.9251,-83.6477 56.1583,-83.8125 55.3915,-83.9772 54.6166,-84.1018 53.8368,-84.1856 53.057,-84.2694 52.2733,-84.3125 51.489,-84.3145 50.7047,-84.3165 49.9208,-84.2774 49.1406,-84.1976 48.3604,-84.1177 47.5849,-83.9971 46.8172,-83.8363 46.0496,-83.6754 45.2909,-83.4745 44.5443,-83.2345 43.7976,-82.9944 43.064,-82.7154 42.3465,-82.3987 41.629,-82.0821 40.9285,-81.7281 40.248,-81.3382 39.5674,-80.9484 38.9077,-80.5232 38.2715,-80.0645 37.6354,-79.6058 37.0236,-79.1141 36.4388,-78.5915 35.854,-78.0689 35.2969,-77.516 34.7699,-76.9352 34.2428,-76.3544 33.7464,-75.7465 33.2829,-75.1138 32.8193,-74.4812 32.3891,-73.8248 31.9941,-73.1472 31.599,-72.4697 31.2397,-71.7719 30.9175,-71.0569 30.5953,-70.3418 30.3108,-69.6103 30.065,-68.8656 29.8192,-68.1208 29.6125,-67.3636 29.4458,-66.5972 29.2791,-65.8309 29.1526,-65.0563 29.0668,-64.2767 28.9809,-63.4971 28.9359,-62.7136 28.9319,-61.9293 28.9279,-61.145 28.9649,-60.361 29.0428,-59.5806 29.1207,-58.8002 29.2393,-58.0243 29.3982,-57.2563 29.3982,-57.2563 51.4316,-61.8145 51.4316,-61.8145"/>
<path fill="#ff3030" stroke="black" stroke-width="0.5" d="M51.4316,-61.8145C51.4316,-61.8145 29.3982,-57.2563 29.3982,-57.2563 29.5377,-56.582 29.7081,-55.9144 29.9088,-55.2557 30.1096,-54.597 30.3404,-53.9478 30.6007,-53.3103 30.861,-52.6727 31.1504,-52.0475 31.468,-51.4365 31.7856,-50.8255 32.1311,-50.2294 32.5034,-49.6501 32.8757,-49.0708 33.2744,-48.5089 33.6983,-47.9662 34.1221,-47.4234 34.5706,-46.9004 35.0424,-46.3988 35.5142,-45.8972 36.0088,-45.4176 36.5246,-44.9613 37.0404,-44.5051 37.5769,-44.0728 38.1323,-43.6658 38.1323,-43.6658 51.4316,-61.8145 51.4316,-61.8145"/>
<path fill="#98f5ff" stroke="black" stroke-width="0.5" d="M51.4316,-61.8145C51.4316,-61.8145 38.1323,-43.6658 38.1323,-43.6658 38.9657,-43.0551 39.8401,-42.5025 40.7494,-42.012 41.6587,-41.5215 42.6007,-41.0942 43.5687,-40.7332 44.5367,-40.3721 45.5284,-40.0782 46.5369,-39.8534 47.5453,-39.6286 48.568,-39.4736 49.5977,-39.3894 50.6274,-39.3052 51.6617,-39.292 52.6932,-39.3499 53.7248,-39.4078 54.7511,-39.5368 55.7649,-39.7357 56.7787,-39.9347 57.7776,-40.2033 58.7545,-40.5395 59.7314,-40.8758 60.684,-41.2789 61.6055,-41.7461 62.527,-42.2132 63.4152,-42.7433 64.2639,-43.3326 65.1126,-43.9218 65.9196,-44.5688 66.6794,-45.2689 67.4391,-45.9691 68.1497,-46.7207 68.8062,-47.5185 69.4626,-48.3163 70.0633,-49.1584 70.604,-50.0387 71.1448,-50.9191 71.6242,-51.8357 72.039,-52.7819 72.4537,-53.7282 72.8028,-54.7018 73.0838,-55.6961 73.3647,-56.6903 73.5768,-57.7027 73.7187,-58.7261 73.8605,-59.7494 73.9316,-60.7814 73.9316,-61.8145 73.9316,-61.8145 51.4316,-61.8145 51.4316,-61.8145"/>
<ellipse fill="none" stroke="black" cx="51.4316" cy="-61.8145" rx="22.5" ry="22.5"/>
</g>
<!-- 11 -->
<g id="node12" class="node"><title>11</title>
<ellipse fill="deepskyblue" stroke="black" cx="-10.6848" cy="-86.2773" rx="2.5" ry="2.5"/>
</g>
<!-- 5&#45;&gt;11 -->
<g id="edge26" class="edge"><title>5&#45;&gt;11</title>
<path fill="none" stroke="black" d="M30.4018,-70.0965C16.0418,-75.7518 -1.52236,-82.6689 -8.0653,-85.2457"/>
</g>
<!-- 121 -->
<g id="node90" class="node"><title>121</title>
<ellipse fill="#98f5ff" stroke="black" cx="92.7205" cy="-130.658" rx="2.5" ry="2.5"/>
</g>
<!-- 5&#45;&gt;121 -->
<g id="edge27" class="edge"><title>5&#45;&gt;121</title>
<path fill="none" stroke="black" d="M63.1529,-81.3582C73.2617,-98.2132 86.905,-120.962 91.2962,-128.283"/>
</g>
<!-- 6 -->
<g id="node7" class="node"><title>6</title>
<path fill="#ff3030" stroke="black" stroke-width="0.5" d="M-0.105813,33.2562C-0.105813,33.2562 23.8942,33.2562 23.8942,33.2562 23.8942,32.2785 23.8344,31.3018 23.7153,30.3314 23.5961,29.361 23.4178,28.3987 23.1813,27.4501 22.9448,26.5014 22.6505,25.5681 22.3001,24.6554 21.9497,23.7426 21.5439,22.8521 21.0849,21.9889 21.0849,21.9889 -0.105813,33.2562 -0.105813,33.2562"/>
<path fill="brown" stroke="black" stroke-width="0.5" d="M-0.105813,33.2562C-0.105813,33.2562 21.0849,21.9889 21.0849,21.9889 20.7612,21.3801 20.4114,20.7855 20.0365,20.2068 19.6616,19.6282 19.262,19.0659 18.8386,18.5216 18.4153,17.9774 17.9687,17.4516 17.5001,16.9458 17.0316,16.44 16.5414,15.9546 16.031,15.491 15.5206,15.0274 14.9905,14.586 14.4421,14.168 13.8937,13.7501 13.3275,13.3559 12.7452,12.9867 12.1629,12.6175 11.5649,12.2736 10.9529,11.9559 10.341,11.6382 9.71561,11.347 9.07859,11.0831 8.44156,10.8192 7.79346,10.583 7.13609,10.3749 6.47872,10.1668 5.81268,9.98721 5.13984,9.8365 4.467,9.6858 3.78798,9.56416 3.10467,9.47192 2.42135,9.37969 1.73438,9.31694 1.04566,9.28386 0.356945,9.25078 -0.332879,9.24739 -1.02189,9.27371 -1.7109,9.30003 -2.39845,9.35603 -3.08264,9.44155 -3.76683,9.52707 -4.44701,9.64204 -5.1213,9.78613 -5.79559,9.93023 -6.46335,10.1033 -7.12273,10.3049 -7.78212,10.5065 -8.43251,10.7364 -9.07209,10.994 -9.71168,11.2516 -10.3399,11.5367 -10.9549,11.8483 -11.5699,12.16 -12.1713,12.4981 -12.7572,12.8616 -13.3431,13.225 -13.9131,13.6136 -14.4656,14.0261 -15.0181,14.4387 -15.5525,14.8748 -16.0674,15.3334 -16.5823,15.792 -17.0773,16.2725 -17.5508,16.7737 -18.0243,17.2749 -18.4761,17.7963 -18.9047,18.3364 -19.3333,18.8765 -19.7385,19.4348 -20.1191,20.0097 -20.4996,20.5847 -20.8553,21.1758 -21.1849,21.7814 -21.5146,22.387 -21.818,23.0065 -22.0943,23.6382 -22.3706,24.27 -22.6196,24.9133 -22.8405,25.5665 -23.0615,26.2196 -23.2541,26.882 -23.418,27.5518 -23.5819,28.2215 -23.7169,28.898 -23.8225,29.5794 -23.9281,30.2608 -24.0043,30.9464 -24.0509,31.6343 -24.0975,32.3222 -24.1145,33.0119 -24.1017,33.7013 -24.0889,34.3906 -24.0464,35.0792 -23.9743,35.7649 -23.9023,36.4506 -23.8007,37.1329 -23.6698,37.8099 -23.539,38.4869 -23.3791,39.158 -23.1905,39.8212 -23.0019,40.4844 -22.7848,41.1392 -22.5398,41.7837 -22.2948,42.4282 -22.0221,43.0619 -21.7226,43.6829 -21.423,44.3039 -21.0968,44.9118 -20.7449,45.5047 -20.393,46.0977 -20.0158,46.6752 -19.6141,47.2357 -19.2125,47.7962 -18.7869,48.339 -18.3385,48.8629 -17.8902,49.3867 -17.4194,49.8909 -16.9276,50.3742 -16.4358,50.8575 -15.9234,51.3194 -15.3919,51.7585 -14.8603,52.1977 -14.3101,52.6138 -13.7427,53.0055 -13.1753,53.3973 -12.5913,53.7645 -11.9923,54.106 -11.3933,54.4475 -10.7798,54.763 -10.1536,55.0517 -9.52747,55.3403 -8.88915,55.6019 -8.24045,55.8356 -7.59175,56.0693 -6.93329,56.2749 -6.26688,56.4519 -5.60048,56.6289 -4.92675,56.7771 -4.24759,56.8961 -3.56842,57.0151 -2.88444,57.1048 -2.19755,57.1649 -1.51067,57.225 -0.821507,57.2555 -0.131995,57.2562 0.557516,57.257 1.24674,57.228 1.93376,57.1694 2.62077,57.1108 3.30495,57.0226 3.98437,56.9051 4.6638,56.7876 5.33784,56.6409 6.00463,56.4653 6.67142,56.2898 7.33034,56.0856 7.97954,55.8533 8.62875,55.621 9.26764,55.3608 9.89444,55.0735 10.5212,54.7862 11.1354,54.472 11.7351,54.1319 12.3349,53.7917 12.9197,53.4258 13.4879,53.0352 14.0562,52.6447 14.6073,52.2299 15.1399,51.7919 15.6724,51.3538 16.1858,50.8931 16.6786,50.4109 17.1715,49.9287 17.6433,49.4255 18.0928,48.9026 18.5423,48.3798 18.9691,47.8378 19.372,47.2782 19.7748,46.7186 20.1534,46.1419 20.5065,45.5497 20.8597,44.9576 21.1872,44.3504 21.4881,43.73 21.7891,43.1097 22.0631,42.4766 22.3095,41.8326 22.5559,41.1886 22.7744,40.5343 22.9645,39.8715 22.9645,39.8715 -0.105813,33.2562 -0.105813,33.2562"/>
<path fill="deepskyblue" stroke="black" stroke-width="0.5" d="M-0.105813,33.2562C-0.105813,33.2562 22.9645,39.8715 22.9645,39.8715 23.2725,38.7973 23.5051,37.703 23.6606,36.5964 23.8161,35.4898 23.8942,34.3737 23.8942,33.2562 23.8942,33.2562 -0.105813,33.2562 -0.105813,33.2562"/>
<ellipse fill="none" stroke="black" cx="-0.105813" cy="33.2562" rx="24" ry="24"/>
</g>
<!-- 6&#45;&gt;1 -->
<g id="edge2" class="edge"><title>6&#45;&gt;1</title>
<path fill="none" stroke="black" d="M23.9437,30.2327C43.9679,27.7152 72.2804,24.1557 91.9191,21.6866"/>
<polygon fill="black" stroke="black" points="91.7848,19.9398 96.9641,21.0524 92.2214,23.4125 91.7848,19.9398"/>
<text text-anchor="middle" x="85.6134" y="21.8225" font-family="monospace" font-size="14.00">I1868T</text>
</g>
<!-- 6&#45;&gt;2 -->
<g id="edge7" class="edge"><title>6&#45;&gt;2</title>
<path fill="none" stroke="black" d="M14.9202,14.5062C24.3338,2.75975 36.1383,-11.9703 44.0505,-21.8435"/>
<polygon fill="black" stroke="black" points="42.6925,-22.9473 47.1849,-25.7546 45.4237,-20.7585 42.6925,-22.9473"/>
<text text-anchor="middle" x="6.00537" y="5.63471" font-family="monospace" font-size="14.00">A1934V</text>
</g>
<!-- 6&#45;&gt;3 -->
<g id="edge11" class="edge"><title>6&#45;&gt;3</title>
<path fill="none" stroke="black" d="M-22.7576,24.9885C-41.9765,17.9738 -69.6533,7.87205 -90.4065,0.297336"/>
<polygon fill="black" stroke="black" points="-91.1594,1.88551 -95.2563,-1.47281 -89.9593,-1.40234 -91.1594,1.88551"/>
<text text-anchor="middle" x="-58.802" y="23.0327" font-family="monospace" font-size="14.00">N1570Y</text>
</g>
<!-- 6&#45;&gt;4 -->
<g id="edge20" class="edge"><title>6&#45;&gt;4</title>
<path fill="none" stroke="black" d="M18.0214,49.3098C32.4065,62.0493 52.1692,79.5512 65.0243,90.9358"/>
<polygon fill="black" stroke="black" points="66.1956,89.6354 68.7785,94.2605 63.8751,92.2556 66.1956,89.6354"/>
<text text-anchor="middle" x="68.2688" y="82.869" font-family="monospace" font-size="14.00">P1874S</text>
</g>
<!-- 6&#45;&gt;5 -->
<g id="edge25" class="edge"><title>6&#45;&gt;5</title>
<path fill="none" stroke="black" d="M11.332,12.1569C19.2332,-2.41834 29.7701,-21.8557 38.0599,-37.1477"/>
<polygon fill="black" stroke="black" points="36.6336,-38.1888 40.555,-41.7505 39.7106,-36.5208 36.6336,-38.1888"/>
<text text-anchor="middle" x="0.861098" y="-18.4447" font-family="monospace" font-size="14.00">P1874L</text>
</g>
<!-- 7 -->
<g id="node8" class="node"><title>7</title>
<ellipse fill="#ff3030" stroke="black" cx="20.0775" cy="79.6777" rx="6.5" ry="6.5"/>
</g>
<!-- 6&#45;&gt;7 -->
<g id="edge28" class="edge"><title>6&#45;&gt;7</title>
<path fill="none" stroke="black" d="M9.51296,55.3793C11.569,60.1081 13.6512,64.8973 15.4174,68.9594"/>
<polygon fill="black" stroke="black" points="17.0708,68.3734 17.4596,73.6565 13.861,69.7689 17.0708,68.3734"/>
<text text-anchor="middle" x="-11.5021" y="75.7446" font-family="monospace" font-size="14.00">K1603T</text>
</g>
<!-- 14 -->
<g id="node15" class="node"><title>14</title>
<ellipse fill="#ff3030" stroke="black" cx="-70.2777" cy="75.9525" rx="5" ry="5"/>
</g>
<!-- 6&#45;&gt;14 -->
<g id="edge29" class="edge"><title>6&#45;&gt;14</title>
<path fill="none" stroke="black" d="M-20.7802,45.8356C-34.2603,54.0376 -51.1756,64.3298 -61.3346,70.5111"/>
<polygon fill="black" stroke="black" points="-60.5533,72.0841 -65.7344,73.1881 -62.3726,69.0941 -60.5533,72.0841"/>
<text text-anchor="middle" x="-68.3102" y="55.744" font-family="monospace" font-size="14.00">I1940T</text>
</g>
<!-- 15 -->
<g id="node16" class="node"><title>15</title>
<path fill="#ff3030" stroke="black" stroke-width="0.5" d="M-37.6494,117.298C-37.6494,117.298 -33.1494,117.298 -33.1494,117.298 -33.1494,117.101 -33.1623,116.905 -33.1879,116.71 -33.2135,116.516 -33.2519,116.323 -33.3027,116.133 -33.3536,115.943 -33.4168,115.757 -33.4919,115.576 -33.5671,115.394 -33.6541,115.218 -33.7523,115.048 -33.8505,114.878 -33.9597,114.714 -34.0793,114.558 -34.1989,114.403 -34.3285,114.255 -34.4674,114.116 -34.6063,113.977 -34.7541,113.847 -34.91,113.728 -35.0658,113.608 -35.2293,113.499 -35.3994,113.401 -35.5695,113.302 -35.7459,113.216 -35.9273,113.14 -36.1088,113.065 -36.295,113.002 -36.4847,112.951 -36.6744,112.9 -36.8673,112.862 -37.062,112.836 -37.2568,112.811 -37.453,112.798 -37.6494,112.798 -37.8458,112.798 -38.042,112.811 -38.2368,112.836 -38.4315,112.862 -38.6244,112.9 -38.8141,112.951 -39.0038,113.002 -39.19,113.065 -39.3715,113.14 -39.5529,113.216 -39.7293,113.302 -39.8994,113.401 -40.0695,113.499 -40.233,113.608 -40.3888,113.728 -40.5447,113.847 -40.6925,113.977 -40.8314,114.116 -40.9703,114.255 -41.0999,114.403 -41.2195,114.558 -41.3391,114.714 -41.4483,114.878 -41.5465,115.048 -41.6447,115.218 -41.7317,115.394 -41.8069,115.576 -41.882,115.757 -41.9452,115.943 -41.9961,116.133 -42.0469,116.323 -42.0853,116.516 -42.1109,116.71 -42.1365,116.905 -42.1494,117.101 -42.1494,117.298 -42.1494,117.494 -42.1365,117.69 -42.1109,117.885 -42.0853,118.08 -42.0469,118.273 -41.9961,118.462 -41.9452,118.652 -41.882,118.838 -41.8069,119.02 -41.7317,119.201 -41.6447,119.378 -41.5465,119.548 -41.4483,119.718 -41.3391,119.881 -41.2195,120.037 -41.0999,120.193 -40.9703,120.341 -40.8314,120.48 -40.6925,120.619 -40.5447,120.748 -40.3888,120.868 -40.233,120.987 -40.0695,121.097 -39.8994,121.195 -39.8994,121.195 -37.6494,117.298 -37.6494,117.298"/>
<path fill="#98f5ff" stroke="black" stroke-width="0.5" d="M-37.6494,117.298C-37.6494,117.298 -39.8994,121.195 -39.8994,121.195 -39.7293,121.293 -39.5529,121.38 -39.3715,121.455 -39.19,121.53 -39.0038,121.594 -38.8141,121.644 -38.6244,121.695 -38.4315,121.734 -38.2368,121.759 -38.042,121.785 -37.8458,121.798 -37.6494,121.798 -37.453,121.798 -37.2568,121.785 -37.062,121.759 -36.8673,121.734 -36.6744,121.695 -36.4847,121.644 -36.295,121.594 -36.1088,121.53 -35.9273,121.455 -35.7459,121.38 -35.5695,121.293 -35.3994,121.195 -35.2293,121.097 -35.0658,120.987 -34.91,120.868 -34.7541,120.748 -34.6063,120.619 -34.4674,120.48 -34.3285,120.341 -34.1989,120.193 -34.0793,120.037 -33.9597,119.881 -33.8505,119.718 -33.7523,119.548 -33.6541,119.378 -33.5671,119.201 -33.4919,119.02 -33.4168,118.838 -33.3536,118.652 -33.3027,118.462 -33.2519,118.273 -33.2135,118.08 -33.1879,117.885 -33.1623,117.69 -33.1494,117.494 -33.1494,117.298 -33.1494,117.298 -37.6494,117.298 -37.6494,117.298"/>
<ellipse fill="none" stroke="black" cx="-37.6494" cy="117.298" rx="4.5" ry="4.5"/>
</g>
<!-- 6&#45;&gt;15 -->
<g id="edge30" class="edge"><title>6&#45;&gt;15</title>
<path fill="none" stroke="black" d="M-9.96995,55.3372C-17.726,72.6991 -28.1232,95.9733 -33.7075,108.474"/>
<polygon fill="black" stroke="black" points="-32.1471,109.272 -35.7844,113.123 -35.3428,107.844 -32.1471,109.272"/>
<text text-anchor="middle" x="-43.8529" y="95.3758" font-family="monospace" font-size="14.00">T791M</text>
</g>
<!-- 18 -->
<g id="node19" class="node"><title>18</title>
<ellipse fill="#ff3030" stroke="black" cx="-38.793" cy="5.61756" rx="4.5" ry="4.5"/>
</g>
<!-- 6&#45;&gt;18 -->
<g id="edge31" class="edge"><title>6&#45;&gt;18</title>
<path fill="none" stroke="black" d="M-19.9027,19.113C-23.7091,16.3937 -27.4921,13.6911 -30.6617,11.4267"/>
<polygon fill="black" stroke="black" points="-32.0016,12.6202 -35.0528,8.28964 -29.967,9.77226 -32.0016,12.6202"/>
<text text-anchor="middle" x="-52.5285" y="9.86505" font-family="monospace" font-size="14.00">N1345I</text>
</g>
<!-- 20 -->
<g id="node21" class="node"><title>20</title>
<path fill="deepskyblue" stroke="black" stroke-width="0.5" d="M14.6839,117.725C14.6839,117.725 22.1839,117.725 22.1839,117.725 22.1839,117.179 22.1243,116.635 22.0062,116.102 21.888,115.569 21.712,115.05 21.4813,114.556 21.2505,114.061 20.9664,113.593 20.6341,113.16 20.3017,112.726 19.9231,112.331 19.5048,111.98 19.0866,111.629 18.6313,111.325 18.1471,111.073 17.6628,110.821 17.1524,110.622 16.6251,110.481 16.0977,110.34 15.5565,110.256 15.0111,110.232 14.4657,110.209 13.9192,110.244 13.3816,110.339 12.8439,110.434 12.3182,110.587 11.8138,110.796 11.3094,111.005 10.8293,111.269 10.3821,111.582 9.9349,111.895 9.5232,112.256 9.15436,112.658 8.78552,113.061 8.46173,113.502 8.18875,113.975 7.91577,114.448 7.69524,114.949 7.53106,115.47 7.36689,115.991 7.26006,116.528 7.21248,117.072 7.1649,117.616 7.17684,118.163 7.24811,118.704 7.31937,119.246 7.44952,119.777 7.63625,120.29 7.63625,120.29 14.6839,117.725 14.6839,117.725"/>
<path fill="#98f5ff" stroke="black" stroke-width="0.5" d="M14.6839,117.725C14.6839,117.725 7.63625,120.29 7.63625,120.29 7.78558,120.701 7.97045,121.097 8.18875,121.475 8.40706,121.853 8.65796,122.212 8.93861,122.546 9.21926,122.881 9.52857,123.19 9.86304,123.471 10.1975,123.751 10.5558,124.002 10.9339,124.22 11.3121,124.439 11.7085,124.624 12.1188,124.773 12.5291,124.922 12.9516,125.036 13.3816,125.111 13.8116,125.187 14.2473,125.225 14.6839,125.225 15.1206,125.225 15.5563,125.187 15.9863,125.111 16.4163,125.036 16.8388,124.922 17.2491,124.773 17.6594,124.624 18.0558,124.439 18.4339,124.22 18.8121,124.002 19.1704,123.751 19.5048,123.471 19.8393,123.19 20.1486,122.881 20.4293,122.546 20.7099,122.212 20.9608,121.853 21.1791,121.475 21.3974,121.097 21.5823,120.701 21.7316,120.29 21.881,119.88 21.9942,119.458 22.07,119.028 22.1458,118.598 22.1839,118.162 22.1839,117.725 22.1839,117.725 14.6839,117.725 14.6839,117.725"/>
<ellipse fill="none" stroke="black" cx="14.6839" cy="117.725" rx="7.5" ry="7.5"/>
</g>
<!-- 6&#45;&gt;20 -->
<g id="edge32" class="edge"><title>6&#45;&gt;20</title>
<path fill="none" stroke="black" d="M4.09278,57.2357C6.81812,72.801 10.2607,92.4626 12.4676,105.067"/>
<polygon fill="black" stroke="black" points="14.249,105.095 13.3876,110.322 10.8015,105.698 14.249,105.095"/>
<text text-anchor="middle" x="8.75075" y="95.0389" font-family="monospace" font-size="14.00">E1597G</text>
</g>
<!-- 22 -->
<g id="node23" class="node"><title>22</title>
<path fill="#98f5ff" stroke="black" stroke-width="0.5" d="M66.5608,35.0596C66.5608,35.0596 75.5608,35.0596 75.5608,35.0596 75.5608,34.6063 75.5265,34.1536 75.4583,33.7055 75.3901,33.2573 75.2881,32.8149 75.1533,32.3821 75.0184,31.9493 74.851,31.5273 74.6526,31.1197 74.4541,30.7122 74.2251,30.3201 73.9676,29.9471 73.7101,29.574 73.4248,29.2209 73.114,28.8908 72.8033,28.5607 72.4681,28.2546 72.1112,27.975 71.7544,27.6954 71.3769,27.4432 70.9821,27.2205 70.5872,26.9978 70.1761,26.8053 69.7522,26.6445 69.3283,26.4837 68.8929,26.3553 68.4497,26.2601 68.0065,26.165 67.5567,26.1034 67.1042,26.0761 66.6517,26.0487 66.1977,26.0556 65.7463,26.0966 65.2948,26.1376 64.8471,26.2127 64.4069,26.3212 63.9668,26.4297 63.5354,26.5713 63.1166,26.7447 62.6978,26.9182 62.2927,27.1231 61.9047,27.3576 61.5168,27.5921 61.1471,27.8556 60.7988,28.1459 60.4506,28.4361 60.1248,28.7522 59.8242,29.0915 59.8242,29.0915 66.5608,35.0596 66.5608,35.0596"/>
<path fill="deepskyblue" stroke="black" stroke-width="0.5" d="M66.5608,35.0596C66.5608,35.0596 59.8242,29.0915 59.8242,29.0915 59.5837,29.363 59.3599,29.6487 59.1539,29.9471 58.9479,30.2455 58.7602,30.5561 58.5917,30.8771 58.4231,31.1982 58.2742,31.5292 58.1456,31.8682 58.017,32.2072 57.9091,32.5537 57.8223,32.9058 57.7355,33.2579 57.6701,33.6149 57.6264,33.9748 57.5827,34.3348 57.5608,34.697 57.5608,35.0596 57.5608,35.4223 57.5827,35.7845 57.6264,36.1445 57.6701,36.5044 57.7355,36.8614 57.8223,37.2135 57.9091,37.5656 58.017,37.9121 58.1456,38.2511 58.2742,38.5901 58.4231,38.9211 58.5917,39.2422 58.7602,39.5632 58.9479,39.8738 59.1539,40.1722 59.3599,40.4706 59.5837,40.7563 59.8242,41.0278 60.0646,41.2992 60.3212,41.5558 60.5927,41.7962 60.8641,42.0367 61.1498,42.2605 61.4482,42.4665 61.7466,42.6725 62.0572,42.8602 62.3783,43.0288 62.6993,43.1973 63.0303,43.3462 63.3693,43.4748 63.7084,43.6034 64.0549,43.7113 64.4069,43.7981 64.759,43.8849 65.116,43.9503 65.4759,43.994 65.8359,44.0377 66.1982,44.0596 66.5608,44.0596 66.9234,44.0596 67.2856,44.0377 67.6456,43.994 68.0056,43.9503 68.3625,43.8849 68.7146,43.7981 69.0667,43.7113 69.4132,43.6034 69.7522,43.4748 70.0912,43.3462 70.4222,43.1973 70.7433,43.0288 71.0643,42.8602 71.3749,42.6725 71.6733,42.4665 71.9718,42.2605 72.2575,42.0367 72.5289,41.7962 72.8003,41.5558 73.0569,41.2992 73.2974,41.0278 73.5378,40.7563 73.7616,40.4706 73.9676,40.1722 74.1736,39.8738 74.3614,39.5632 74.5299,39.2422 74.6984,38.9211 74.8473,38.5901 74.9759,38.2511 75.1045,37.9121 75.2125,37.5656 75.2992,37.2135 75.386,36.8614 75.4514,36.5044 75.4951,36.1445 75.5389,35.7845 75.5608,35.4223 75.5608,35.0596 75.5608,35.0596 66.5608,35.0596 66.5608,35.0596"/>
<ellipse fill="none" stroke="black" cx="66.5608" cy="35.0596" rx="9" ry="9"/>
</g>
<!-- 6&#45;&gt;22 -->
<g id="edge33" class="edge"><title>6&#45;&gt;22</title>
<path fill="none" stroke="black" d="M23.9624,33.9073C33.417,34.1631 43.952,34.448 52.1797,34.6706"/>
<polygon fill="black" stroke="black" points="52.5148,32.929 57.4657,34.8136 52.4201,36.4277 52.5148,32.929"/>
<text text-anchor="middle" x="65.7889" y="45.5625" font-family="monospace" font-size="14.00">V1853I</text>
</g>
<!-- 26 -->
<g id="node26" class="node"><title>26</title>
<ellipse fill="deepskyblue" stroke="black" cx="-14.4386" cy="73.0155" rx="2.5" ry="2.5"/>
</g>
<!-- 6&#45;&gt;26 -->
<g id="edge34" class="edge"><title>6&#45;&gt;26</title>
<path fill="none" stroke="black" d="M-8.27701,55.9232C-9.53118,59.4023 -10.7435,62.7652 -11.7561,65.5742"/>
<polygon fill="black" stroke="black" points="-10.1617,66.3119 -13.5037,70.4221 -13.4543,65.1249 -10.1617,66.3119"/>
<text text-anchor="middle" x="6.14219" y="59.2824" font-family="monospace" font-size="14.00">P55L</text>
</g>
<!-- 31 -->
<g id="node31" class="node"><title>31</title>
<ellipse fill="deepskyblue" stroke="black" cx="-39.3241" cy="52.5492" rx="2.5" ry="2.5"/>
</g>
<!-- 6&#45;&gt;31 -->
<g id="edge35" class="edge"><title>6&#45;&gt;31</title>
<path fill="none" stroke="black" d="M-22.0082,44.0309C-25.5086,45.7528 -28.9101,47.4262 -31.7584,48.8274"/>
<polygon fill="black" stroke="black" points="-31.4233,50.6128 -36.6823,51.2496 -32.9683,47.4722 -31.4233,50.6128"/>
<text text-anchor="middle" x="-54.234" y="43.7855" font-family="monospace" font-size="14.00">V1303A</text>
</g>
<!-- 97 -->
<g id="node80" class="node"><title>97</title>
<ellipse fill="brown" stroke="black" cx="-52.3886" cy="28.3792" rx="2.5" ry="2.5"/>
</g>
<!-- 6&#45;&gt;97 -->
<g id="edge38" class="edge"><title>6&#45;&gt;97</title>
<path fill="none" stroke="black" d="M-24.1049,31.0175C-34.1984,30.076 -44.7206,29.0945 -49.5984,28.6395"/>
</g>
<!-- 98 -->
<g id="node81" class="node"><title>98</title>
<ellipse fill="brown" stroke="black" cx="-27.6198" cy="-51.8675" rx="4.5" ry="4.5"/>
</g>
<!-- 6&#45;&gt;98 -->
<g id="edge39" class="edge"><title>6&#45;&gt;98</title>
<path fill="none" stroke="black" d="M-7.62412,9.99578C-14.0521,-9.89142 -22.7856,-36.9114 -26.1841,-47.4256"/>
</g>
<!-- 103 -->
<g id="node82" class="node"><title>103</title>
<ellipse fill="brown" stroke="black" cx="45.0438" cy="60.7896" rx="5.5" ry="5.5"/>
</g>
<!-- 6&#45;&gt;103 -->
<g id="edge40" class="edge"><title>6&#45;&gt;103</title>
<path fill="none" stroke="black" d="M20.619,45.8947C27.8517,50.3054 35.3394,54.8716 40.0856,57.7659"/>
</g>
<!-- 104 -->
<g id="node83" class="node"><title>104</title>
<ellipse fill="brown" stroke="black" cx="39.6005" cy="22.7972" rx="2.5" ry="2.5"/>
</g>
<!-- 6&#45;&gt;104 -->
<g id="edge41" class="edge"><title>6&#45;&gt;104</title>
<path fill="none" stroke="black" d="M23.4504,27.0513C29.0614,25.5733 34.2632,24.2031 37.1765,23.4357"/>
</g>
<!-- anon_6_44_0 -->
<g id="node93" class="node"><title>anon_6_44_0</title>
<ellipse fill="white" stroke="black" cx="10.2796" cy="-6.41232" rx="1" ry="1"/>
</g>
<!-- 6&#45;&gt;anon_6_44_0 -->
<g id="edge36" class="edge"><title>6&#45;&gt;anon_6_44_0</title>
<path fill="none" stroke="black" d="M6.05543,9.72239C7.73266,3.31596 9.27012,-2.5566 9.93402,-5.09248"/>
</g>
<!-- 8 -->
<g id="node9" class="node"><title>8</title>
<ellipse fill="deepskyblue" stroke="black" cx="-41.9191" cy="247.477" rx="2.5" ry="2.5"/>
</g>
<!-- 13 -->
<g id="node14" class="node"><title>13</title>
<path fill="#98f5ff" stroke="black" stroke-width="0.5" d="M-34.5861,187.452C-34.5861,187.452 -21.5861,187.452 -21.5861,187.452 -21.5861,186.994 -21.6104,186.536 -21.6587,186.08 -21.7071,185.624 -21.7795,185.172 -21.8757,184.724 -21.9718,184.276 -22.0917,183.833 -22.2346,183.398 -22.3775,182.962 -22.5433,182.535 -22.7314,182.117 -22.9195,181.699 -23.1295,181.291 -23.3607,180.895 -23.5918,180.5 -23.8437,180.117 -24.1153,179.747 -24.3868,179.378 -24.6778,179.024 -24.9868,178.685 -25.2958,178.347 -25.6225,178.025 -25.9655,177.721 -26.3085,177.418 -26.6674,177.132 -27.0405,176.866 -27.4137,176.6 -27.8007,176.354 -28.1998,176.129 -28.599,175.904 -29.0097,175.7 -29.4304,175.518 -29.8511,175.336 -30.2811,175.177 -30.7186,175.041 -31.1561,174.904 -31.6005,174.791 -32.0499,174.702 -32.4994,174.612 -32.9533,174.547 -33.4096,174.505 -33.866,174.464 -34.3243,174.447 -34.7825,174.454 -35.2407,174.46 -35.6982,174.492 -36.1531,174.547 -36.1531,174.547 -34.5861,187.452 -34.5861,187.452"/>
<path fill="deepskyblue" stroke="black" stroke-width="0.5" d="M-34.5861,187.452C-34.5861,187.452 -36.1531,174.547 -36.1531,174.547 -36.7706,174.622 -37.3819,174.741 -37.9824,174.904 -38.5828,175.066 -39.1708,175.271 -39.7418,175.518 -40.3129,175.765 -40.8655,176.052 -41.3953,176.378 -41.9252,176.704 -42.431,177.067 -42.9089,177.465 -43.3867,177.864 -43.8354,178.296 -44.2514,178.758 -44.6674,179.221 -45.0496,179.712 -45.3952,180.23 -45.7408,180.747 -46.0488,181.288 -46.3169,181.85 -46.585,182.411 -46.8124,182.991 -46.9975,183.585 -47.1825,184.178 -47.3247,184.785 -47.423,185.399 -47.5212,186.013 -47.5752,186.634 -47.5846,187.256 -47.594,187.878 -47.5588,188.5 -47.4791,189.116 -47.3995,189.733 -47.2757,190.344 -47.1086,190.943 -46.9416,191.542 -46.7318,192.129 -46.4808,192.698 -46.2298,193.267 -45.9382,193.817 -45.6084,194.345 -45.2786,194.872 -44.9114,195.375 -44.5096,195.85 -44.1077,196.325 -43.6723,196.77 -43.2067,197.183 -42.7411,197.595 -42.2465,197.974 -41.7267,198.315 -41.2069,198.657 -40.6632,198.961 -40.0999,199.225 -39.5366,199.489 -38.9551,199.712 -38.3598,199.892 -37.7646,200.073 -37.1571,200.21 -36.5422,200.304 -35.9272,200.398 -35.3063,200.447 -34.6843,200.452 -34.0623,200.456 -33.4407,200.416 -32.8244,200.332 -32.2081,200.248 -31.5987,200.119 -31.0007,199.948 -30.4028,199.776 -29.818,199.562 -29.2508,199.307 -28.6835,199.051 -28.1353,198.756 -27.6104,198.422 -27.0855,198.088 -26.5853,197.717 -26.1135,197.312 -25.6417,196.906 -25.1996,196.468 -24.7907,195.999 -24.3817,195.53 -24.0069,195.033 -23.6692,194.51 -23.3314,193.988 -23.0316,193.442 -22.7721,192.877 -22.5125,192.312 -22.2938,191.728 -22.1178,191.132 -21.9417,190.535 -21.8087,189.927 -21.7197,189.311 -21.6308,188.695 -21.5861,188.074 -21.5861,187.452 -21.5861,187.452 -34.5861,187.452 -34.5861,187.452"/>
<ellipse fill="none" stroke="black" cx="-34.5861" cy="187.452" rx="13" ry="13"/>
</g>
<!-- 8&#45;&gt;13 -->
<g id="edge42" class="edge"><title>8&#45;&gt;13</title>
<path fill="none" stroke="black" d="M-41.604,244.898C-40.6829,237.358 -37.9484,214.975 -36.1773,200.477"/>
</g>
<!-- 17 -->
<g id="node18" class="node"><title>17</title>
<ellipse fill="#ff3030" stroke="black" cx="-118.626" cy="89.4158" rx="2.5" ry="2.5"/>
</g>
<!-- 14&#45;&gt;17 -->
<g id="edge44" class="edge"><title>14&#45;&gt;17</title>
<path fill="none" stroke="black" d="M-75.4518,77.3934C-84.086,79.7977 -101.456,84.6346 -111.329,87.384"/>
<polygon fill="black" stroke="black" points="-110.867,89.0718 -116.153,88.7273 -111.806,85.7001 -110.867,89.0718"/>
<text text-anchor="middle" x="-117.049" y="79.3291" font-family="monospace" font-size="14.00">M704V</text>
</g>
<!-- 29 -->
<g id="node29" class="node"><title>29</title>
<ellipse fill="#ff3030" stroke="black" cx="-98.4968" cy="120.662" rx="2.5" ry="2.5"/>
</g>
<!-- 14&#45;&gt;29 -->
<g id="edge45" class="edge"><title>14&#45;&gt;29</title>
<path fill="none" stroke="black" d="M-73.0867,80.4029C-78.9975,89.768 -92.5445,111.231 -97.0267,118.333"/>
</g>
<!-- 15&#45;&gt;13 -->
<g id="edge43" class="edge"><title>15&#45;&gt;13</title>
<path fill="none" stroke="black" d="M-37.4484,121.901C-37.037,131.322 -36.0793,153.255 -35.3848,169.161"/>
<polygon fill="black" stroke="black" points="-33.6304,169.226 -35.1605,174.298 -37.127,169.379 -33.6304,169.226"/>
<text text-anchor="middle" x="-61.3073" y="144.234" font-family="monospace" font-size="14.00">A1746S</text>
</g>
<!-- anon_15_21_0 -->
<g id="node94" class="node"><title>anon_15_21_0</title>
<ellipse fill="white" stroke="black" cx="-74.6614" cy="150.948" rx="1" ry="1"/>
</g>
<!-- 15&#45;&gt;anon_15_21_0 -->
<g id="edge46" class="edge"><title>15&#45;&gt;anon_15_21_0</title>
<path fill="none" stroke="black" d="M-41.0651,120.403C-49.0824,127.692 -68.7916,145.611 -73.5936,149.977"/>
</g>
<!-- 16 -->
<g id="node17" class="node"><title>16</title>
<ellipse fill="#ff3030" stroke="black" cx="135.545" cy="-103.273" rx="2.5" ry="2.5"/>
</g>
<!-- 32 -->
<g id="node32" class="node"><title>32</title>
<ellipse fill="deepskyblue" stroke="black" cx="42.6723" cy="165.697" rx="2.5" ry="2.5"/>
</g>
<!-- 20&#45;&gt;32 -->
<g id="edge48" class="edge"><title>20&#45;&gt;32</title>
<path fill="none" stroke="black" d="M18.5756,124.396C24.9443,135.311 37.2902,156.472 41.3459,163.423"/>
</g>
<!-- 35 -->
<g id="node35" class="node"><title>35</title>
<ellipse fill="deepskyblue" stroke="black" cx="2.98145" cy="172.279" rx="2.5" ry="2.5"/>
</g>
<!-- 20&#45;&gt;35 -->
<g id="edge49" class="edge"><title>20&#45;&gt;35</title>
<path fill="none" stroke="black" d="M13.0568,125.311C10.3939,137.724 5.23185,161.788 3.53606,169.693"/>
</g>
<!-- 21 -->
<g id="node22" class="node"><title>21</title>
<ellipse fill="deepskyblue" stroke="black" cx="-106.906" cy="185.43" rx="2.5" ry="2.5"/>
</g>
<!-- 28 -->
<g id="node28" class="node"><title>28</title>
<ellipse fill="#ff3030" stroke="black" cx="-147.32" cy="-159.036" rx="2.5" ry="2.5"/>
</g>
<!-- 30 -->
<g id="node30" class="node"><title>30</title>
<ellipse fill="#ff3030" stroke="black" cx="-106.68" cy="-152.964" rx="2.5" ry="2.5"/>
</g>
<!-- 28&#45;&gt;30 -->
<g id="edge50" class="edge"><title>28&#45;&gt;30</title>
<path fill="none" stroke="black" d="M-144.654,-158.638C-138.627,-157.737 -123.765,-155.517 -114.523,-154.136"/>
<polygon fill="black" stroke="black" points="-114.096,-155.842 -109.41,-153.372 -114.613,-152.38 -114.096,-155.842"/>
<text text-anchor="middle" x="-152.065" y="-144.81" font-family="monospace" font-size="14.00">N1570Y</text>
</g>
<!-- 44 -->
<g id="node39" class="node"><title>44</title>
<ellipse fill="deepskyblue" stroke="black" cx="28.0487" cy="-45.7979" rx="2.5" ry="2.5"/>
</g>
<!-- 45 -->
<g id="node40" class="node"><title>45</title>
<path fill="olivedrab" stroke="black" stroke-width="0.5" d="M217.662,-218.98C217.662,-218.98 250.662,-218.98 250.662,-218.98 250.662,-220.163 250.598,-221.345 250.471,-222.521 250.344,-223.697 250.154,-224.866 249.902,-226.022 249.649,-227.178 249.335,-228.319 248.96,-229.441 248.585,-230.563 248.15,-231.664 247.657,-232.739 247.163,-233.815 246.612,-234.863 246.007,-235.879 245.401,-236.895 244.741,-237.878 244.029,-238.823 243.318,-239.768 242.556,-240.675 241.748,-241.538 240.939,-242.402 240.084,-243.221 239.187,-243.993 239.187,-243.993 217.662,-218.98 217.662,-218.98"/>
<path fill="#1874cd" stroke="black" stroke-width="0.5" d="M217.662,-218.98C217.662,-218.98 239.187,-243.993 239.187,-243.993 238.481,-244.601 237.749,-245.179 236.993,-245.725 236.238,-246.271 235.459,-246.785 234.66,-247.265 233.861,-247.745 233.042,-248.191 232.206,-248.602 231.369,-249.013 230.515,-249.388 229.646,-249.727 228.778,-250.065 227.895,-250.367 227.001,-250.631 226.107,-250.894 225.202,-251.12 224.289,-251.307 223.376,-251.495 222.455,-251.643 221.529,-251.752 220.603,-251.862 219.673,-251.932 218.742,-251.962 217.81,-251.993 216.877,-251.984 215.946,-251.935 215.016,-251.887 214.087,-251.799 213.164,-251.672 212.24,-251.545 211.322,-251.378 210.413,-251.174 209.503,-250.969 208.603,-250.726 207.714,-250.445 206.825,-250.164 205.949,-249.845 205.087,-249.49 204.225,-249.135 203.379,-248.743 202.55,-248.316 201.721,-247.889 200.911,-247.427 200.121,-246.932 199.332,-246.436 198.563,-245.908 197.819,-245.347 197.074,-244.787 196.353,-244.195 195.658,-243.573 194.963,-242.951 194.295,-242.301 193.656,-241.623 193.016,-240.944 192.405,-240.239 191.826,-239.51 191.246,-238.78 190.697,-238.026 190.181,-237.249 189.665,-236.473 189.182,-235.675 188.733,-234.858 188.285,-234.041 187.871,-233.205 187.493,-232.353 187.115,-231.5 186.774,-230.633 186.47,-229.751 186.165,-228.87 185.898,-227.977 185.67,-227.073 185.441,-226.169 185.251,-225.256 185.1,-224.336 184.948,-223.416 184.836,-222.491 184.763,-221.561 184.69,-220.632 184.657,-219.7 184.663,-218.768 184.669,-217.835 184.714,-216.904 184.799,-215.976 184.884,-215.047 185.008,-214.123 185.171,-213.205 185.334,-212.287 185.536,-211.377 185.776,-210.476 186.017,-209.575 186.295,-208.685 186.611,-207.808 186.926,-206.931 187.279,-206.067 187.667,-205.22 188.056,-204.373 188.481,-203.542 188.94,-202.731 189.399,-201.919 189.892,-201.128 190.418,-200.358 190.944,-199.589 191.502,-198.842 192.092,-198.119 192.681,-197.397 193.3,-196.7 193.949,-196.03 194.597,-195.36 195.273,-194.718 195.976,-194.106 196.679,-193.493 197.407,-192.91 198.159,-192.359 198.911,-191.809 199.686,-191.29 200.482,-190.804 201.278,-190.319 202.094,-189.868 202.928,-189.451 203.762,-189.035 204.614,-188.655 205.48,-188.31 206.347,-187.966 207.227,-187.659 208.12,-187.39 209.012,-187.12 209.915,-186.888 210.827,-186.695 211.739,-186.502 212.659,-186.348 213.584,-186.233 214.509,-186.117 215.439,-186.042 216.37,-186.005 217.302,-185.969 218.234,-185.972 219.166,-186.014 220.097,-186.056 221.026,-186.138 221.95,-186.26 222.875,-186.381 223.793,-186.541 224.704,-186.74 225.615,-186.939 226.517,-187.176 227.407,-187.452 228.298,-187.727 229.177,-188.04 230.041,-188.389 230.905,-188.739 231.754,-189.125 232.585,-189.547 233.417,-189.968 234.23,-190.425 235.023,-190.915 235.815,-191.406 236.587,-191.93 237.336,-192.485 238.084,-193.041 238.809,-193.628 239.507,-194.245 240.206,-194.863 240.878,-195.509 241.522,-196.183 242.166,-196.857 242.781,-197.558 243.366,-198.284 243.951,-199.01 244.504,-199.761 245.025,-200.534 245.546,-201.307 246.034,-202.102 246.488,-202.916 246.942,-203.73 247.361,-204.563 247.744,-205.413 248.128,-206.263 248.475,-207.129 248.785,-208.008 249.095,-208.887 249.367,-209.779 249.602,-210.681 249.836,-211.583 250.032,-212.495 250.189,-213.414 250.346,-214.333 250.465,-215.258 250.544,-216.187 250.622,-217.116 250.662,-218.048 250.662,-218.98 250.662,-218.98 217.662,-218.98 217.662,-218.98"/>
<ellipse fill="none" stroke="black" cx="217.662" cy="-218.98" rx="33" ry="33"/>
</g>
<!-- 50 -->
<g id="node45" class="node"><title>50</title>
<ellipse fill="#1874cd" stroke="black" cx="276.914" cy="-231.56" rx="2.5" ry="2.5"/>
</g>
<!-- 45&#45;&gt;50 -->
<g id="edge51" class="edge"><title>45&#45;&gt;50</title>
<path fill="none" stroke="black" d="M250.062,-225.859C260.22,-228.016 269.94,-230.08 274.387,-231.024"/>
</g>
<!-- 51 -->
<g id="node46" class="node"><title>51</title>
<ellipse fill="#1874cd" stroke="black" cx="185.086" cy="-128.363" rx="2.5" ry="2.5"/>
</g>
<!-- 45&#45;&gt;51 -->
<g id="edge52" class="edge"><title>45&#45;&gt;51</title>
<path fill="none" stroke="black" d="M206.451,-187.795C198.648,-166.088 189.117,-139.576 186.071,-131.103"/>
</g>
<!-- 57 -->
<g id="node52" class="node"><title>57</title>
<ellipse fill="#1874cd" stroke="black" cx="172.117" cy="-293.148" rx="2.5" ry="2.5"/>
</g>
<!-- 45&#45;&gt;57 -->
<g id="edge53" class="edge"><title>45&#45;&gt;57</title>
<path fill="none" stroke="black" d="M200.183,-247.443C189.748,-264.437 177.742,-283.988 173.607,-290.722"/>
</g>
<!-- 61 -->
<g id="node55" class="node"><title>61</title>
<ellipse fill="#1874cd" stroke="black" cx="168.102" cy="-251.347" rx="2.5" ry="2.5"/>
</g>
<!-- 45&#45;&gt;61 -->
<g id="edge54" class="edge"><title>45&#45;&gt;61</title>
<path fill="none" stroke="black" d="M189.984,-237.056C181.825,-242.385 174.09,-247.436 170.385,-249.856"/>
</g>
<!-- 66 -->
<g id="node57" class="node"><title>66</title>
<ellipse fill="#1874cd" stroke="black" cx="132.836" cy="-183.921" rx="2.5" ry="2.5"/>
</g>
<!-- 45&#45;&gt;66 -->
<g id="edge55" class="edge"><title>45&#45;&gt;66</title>
<path fill="none" stroke="black" d="M187.038,-206.323C166.917,-198.006 142.95,-188.101 135.306,-184.942"/>
</g>
<!-- 70 -->
<g id="node59" class="node"><title>70</title>
<ellipse fill="#1874cd" stroke="black" cx="293.117" cy="-174.6" rx="2.5" ry="2.5"/>
</g>
<!-- 45&#45;&gt;70 -->
<g id="edge56" class="edge"><title>45&#45;&gt;70</title>
<path fill="none" stroke="black" d="M246.188,-202.202C263.55,-191.991 283.679,-180.151 290.617,-176.07"/>
</g>
<!-- 72 -->
<g id="node61" class="node"><title>72</title>
<ellipse fill="#1874cd" stroke="black" cx="156.919" cy="-159.133" rx="2.5" ry="2.5"/>
</g>
<!-- 45&#45;&gt;72 -->
<g id="edge57" class="edge"><title>45&#45;&gt;72</title>
<path fill="none" stroke="black" d="M194.003,-195.67C180.145,-182.017 164.325,-166.43 158.879,-161.065"/>
</g>
<!-- 74 -->
<g id="node62" class="node"><title>74</title>
<ellipse fill="#1874cd" stroke="black" cx="239.597" cy="-127.927" rx="2.5" ry="2.5"/>
</g>
<!-- 45&#45;&gt;74 -->
<g id="edge58" class="edge"><title>45&#45;&gt;74</title>
<path fill="none" stroke="black" d="M225.395,-186.878C230.625,-165.169 236.932,-138.988 238.946,-130.629"/>
</g>
<!-- 80 -->
<g id="node68" class="node"><title>80</title>
<ellipse fill="#1874cd" stroke="black" cx="127.295" cy="-220.144" rx="2.5" ry="2.5"/>
</g>
<!-- 45&#45;&gt;80 -->
<g id="edge60" class="edge"><title>45&#45;&gt;80</title>
<path fill="none" stroke="black" d="M184.526,-219.407C163.168,-219.682 137.936,-220.007 129.893,-220.11"/>
</g>
<!-- 81 -->
<g id="node69" class="node"><title>81</title>
<ellipse fill="#1874cd" stroke="black" cx="311.948" cy="-208.001" rx="3.5" ry="3.5"/>
</g>
<!-- 45&#45;&gt;81 -->
<g id="edge61" class="edge"><title>45&#45;&gt;81</title>
<path fill="none" stroke="black" d="M250.639,-215.14C272.517,-212.592 298.884,-209.522 308.349,-208.42"/>
</g>
<!-- 88 -->
<g id="node74" class="node"><title>88</title>
<ellipse fill="#1874cd" stroke="black" cx="249.049" cy="-284.978" rx="3.5" ry="3.5"/>
</g>
<!-- 45&#45;&gt;88 -->
<g id="edge64" class="edge"><title>45&#45;&gt;88</title>
<path fill="none" stroke="black" d="M231.886,-248.889C238.115,-261.986 244.654,-275.738 247.535,-281.795"/>
</g>
<!-- 93 -->
<g id="node77" class="node"><title>93</title>
<ellipse fill="#1874cd" stroke="black" cx="300.61" cy="-273.936" rx="2.5" ry="2.5"/>
</g>
<!-- 45&#45;&gt;93 -->
<g id="edge65" class="edge"><title>45&#45;&gt;93</title>
<path fill="none" stroke="black" d="M245.283,-237.279C265.642,-250.768 291.034,-267.591 298.471,-272.519"/>
</g>
<!-- 96 -->
<g id="node79" class="node"><title>96</title>
<ellipse fill="#1874cd" stroke="black" cx="272.837" cy="-146.871" rx="2.5" ry="2.5"/>
</g>
<!-- 45&#45;&gt;96 -->
<g id="edge66" class="edge"><title>45&#45;&gt;96</title>
<path fill="none" stroke="black" d="M237.894,-192.538C248.693,-178.425 261.115,-162.191 267.854,-153.383"/>
<polygon fill="black" stroke="black" points="269.603,-153.978 271.251,-148.944 266.823,-151.851 269.603,-153.978"/>
<text text-anchor="middle" x="233.644" y="-174.447" font-family="monospace" font-size="14.00">A837V</text>
</g>
<!-- 116 -->
<g id="node85" class="node"><title>116</title>
<ellipse fill="olivedrab" stroke="black" cx="132.102" cy="-264.265" rx="2.5" ry="2.5"/>
</g>
<!-- 45&#45;&gt;116 -->
<g id="edge67" class="edge"><title>45&#45;&gt;116</title>
<path fill="none" stroke="black" d="M188.217,-234.565C167.722,-245.413 142.689,-258.662 134.689,-262.896"/>
</g>
<!-- anon_45_83_0 -->
<g id="node95" class="node"><title>anon_45_83_0</title>
<ellipse fill="white" stroke="black" cx="215.305" cy="-315.046" rx="1" ry="1"/>
</g>
<!-- 45&#45;&gt;anon_45_83_0 -->
<g id="edge62" class="edge"><title>45&#45;&gt;anon_45_83_0</title>
<path fill="none" stroke="black" d="M216.851,-252.04C216.254,-276.355 215.518,-306.358 215.343,-313.479"/>
</g>
<!-- 47 -->
<g id="node42" class="node"><title>47</title>
<ellipse fill="#1874cd" stroke="black" cx="233.94" cy="101.376" rx="15" ry="15"/>
</g>
<!-- 82 -->
<g id="node70" class="node"><title>82</title>
<ellipse fill="#1874cd" stroke="black" cx="229.379" cy="40.1807" rx="2.5" ry="2.5"/>
</g>
<!-- 47&#45;&gt;82 -->
<g id="edge70" class="edge"><title>47&#45;&gt;82</title>
<path fill="none" stroke="black" d="M232.813,86.2488C231.715,71.525 230.134,50.3152 229.58,42.8792"/>
</g>
<!-- 87 -->
<g id="node73" class="node"><title>87</title>
<ellipse fill="#1874cd" stroke="black" cx="177.073" cy="88.8061" rx="2.5" ry="2.5"/>
</g>
<!-- 47&#45;&gt;87 -->
<g id="edge71" class="edge"><title>47&#45;&gt;87</title>
<path fill="none" stroke="black" d="M218.999,98.0731C205.573,95.1054 186.921,90.9828 179.898,89.4305"/>
</g>
<!-- 90 -->
<g id="node75" class="node"><title>90</title>
<ellipse fill="#1874cd" stroke="black" cx="204.642" cy="155.25" rx="2.5" ry="2.5"/>
</g>
<!-- 47&#45;&gt;90 -->
<g id="edge72" class="edge"><title>47&#45;&gt;90</title>
<path fill="none" stroke="black" d="M226.698,114.693C219.649,127.656 209.494,146.328 205.934,152.875"/>
</g>
<!-- 48 -->
<g id="node43" class="node"><title>48</title>
<ellipse fill="#1874cd" stroke="black" cx="336.675" cy="121.931" rx="6" ry="6"/>
</g>
<!-- 53 -->
<g id="node48" class="node"><title>53</title>
<ellipse fill="#1874cd" stroke="black" cx="362.238" cy="168.788" rx="6" ry="6"/>
</g>
<!-- 48&#45;&gt;53 -->
<g id="edge73" class="edge"><title>48&#45;&gt;53</title>
<path fill="none" stroke="black" d="M339.608,127.306C343.807,135.003 351.604,149.296 356.857,158.925"/>
<polygon fill="black" stroke="black" points="358.481,158.248 359.34,163.475 355.409,159.924 358.481,158.248"/>
<text text-anchor="middle" x="328.311" y="141.293" font-family="monospace" font-size="14.00">G317S</text>
</g>
<!-- 64 -->
<g id="node56" class="node"><title>64</title>
<ellipse fill="#1874cd" stroke="black" cx="373.721" cy="89.8478" rx="2.5" ry="2.5"/>
</g>
<!-- 48&#45;&gt;64 -->
<g id="edge74" class="edge"><title>48&#45;&gt;64</title>
<path fill="none" stroke="black" d="M341.218,117.997C349.255,111.036 365.689,96.8038 371.569,91.7114"/>
</g>
<!-- anon_47_48_0 -->
<g id="node96" class="node"><title>anon_47_48_0</title>
<ellipse fill="white" stroke="black" cx="290.331" cy="113.821" rx="1" ry="1"/>
</g>
<!-- 48&#45;&gt;anon_47_48_0 -->
<g id="edge69" class="edge"><title>48&#45;&gt;anon_47_48_0</title>
<path fill="none" stroke="black" d="M330.617,120.871C321.772,119.323 305.41,116.46 296.502,114.901"/>
<polygon fill="black" stroke="black" points="296.17,116.619 291.547,114.034 296.774,113.172 296.17,116.619"/>
<text text-anchor="middle" x="285.926" y="113.625" font-family="monospace" font-size="14.00">I1940T</text>
</g>
<!-- 49 -->
<g id="node44" class="node"><title>49</title>
<ellipse fill="#1874cd" stroke="black" cx="249.032" cy="-82.5566" rx="2.5" ry="2.5"/>
</g>
<!-- 56 -->
<g id="node51" class="node"><title>56</title>
<path fill="olivedrab" stroke="black" stroke-width="0.5" d="M274.776,-36.8898C274.776,-36.8898 282.776,-36.8898 282.776,-36.8898 282.776,-37.204 282.757,-37.518 282.72,-37.8301 282.683,-38.1422 282.628,-38.4518 282.555,-38.7574 282.481,-39.0629 282.39,-39.3639 282.281,-39.6587 282.172,-39.9536 282.046,-40.2417 281.904,-40.5217 281.761,-40.8017 281.602,-41.0731 281.427,-41.3344 281.253,-41.5956 281.063,-41.8464 280.859,-42.0854 280.655,-42.3243 280.437,-42.5511 280.206,-42.7644 279.975,-42.9777 279.732,-43.1772 279.478,-43.3619 279.224,-43.5466 278.959,-43.7162 278.685,-43.8698 278.41,-44.0233 278.127,-44.1606 277.837,-44.2808 277.547,-44.4011 277.25,-44.5041 276.947,-44.5894 276.645,-44.6747 276.338,-44.7421 276.027,-44.7913 275.717,-44.8405 275.404,-44.8713 275.09,-44.8836 274.776,-44.896 274.461,-44.8898 274.148,-44.8651 273.835,-44.8405 273.523,-44.7974 273.215,-44.7361 272.907,-44.6748 272.602,-44.5953 272.304,-44.4982 272.304,-44.4982 274.776,-36.8898 274.776,-36.8898"/>
<path fill="#1874cd" stroke="black" stroke-width="0.5" d="M274.776,-36.8898C274.776,-36.8898 272.304,-44.4982 272.304,-44.4982 271.955,-44.3849 271.614,-44.2478 271.284,-44.0878 270.954,-43.9278 270.636,-43.7453 270.331,-43.5415 270.026,-43.3378 269.736,-43.1134 269.462,-42.8699 269.188,-42.6263 268.931,-42.3642 268.692,-42.0854 268.454,-41.8066 268.236,-41.5117 268.038,-41.2029 267.84,-40.8941 267.664,-40.572 267.511,-40.2391 267.357,-39.9061 267.227,-39.5629 267.12,-39.2121 267.014,-38.8612 266.932,-38.5034 266.874,-38.1413 266.817,-37.7791 266.784,-37.4135 266.777,-37.0469 266.77,-36.6803 266.788,-36.3136 266.831,-35.9495 266.874,-35.5854 266.942,-35.2246 267.035,-34.8699 267.127,-34.5151 267.244,-34.1671 267.385,-33.8283 267.525,-33.4896 267.688,-33.1609 267.874,-32.8445 268.059,-32.5282 268.266,-32.225 268.493,-31.937 268.72,-31.6491 268.967,-31.3771 269.231,-31.123 269.495,-30.8688 269.777,-30.6332 270.073,-30.4177 270.37,-30.2021 270.681,-30.0073 271.004,-29.8344 271.328,-29.6616 271.663,-29.5112 272.007,-29.3843 272.351,-29.2573 272.703,-29.1542 273.061,-29.0757 273.419,-28.9971 273.782,-28.9432 274.148,-28.9144 274.514,-28.8857 274.881,-28.8821 275.247,-28.9037 275.613,-28.9252 275.977,-28.972 276.336,-29.0435 276.696,-29.115 277.05,-29.2112 277.397,-29.3313 277.743,-29.4515 278.081,-29.5953 278.408,-29.7617 278.734,-29.9282 279.049,-30.1169 279.35,-30.3266 279.651,-30.5362 279.937,-30.7663 280.206,-31.0152 280.475,-31.2641 280.727,-31.5312 280.96,-31.8146 281.192,-32.0981 281.405,-32.3972 281.597,-32.7098 281.788,-33.0224 281.958,-33.3479 282.105,-33.6838 282.252,-34.0197 282.376,-34.3654 282.475,-34.7183 282.575,-35.0712 282.65,-35.4305 282.7,-35.7937 282.75,-36.1569 282.776,-36.5231 282.776,-36.8898 282.776,-36.8898 274.776,-36.8898 274.776,-36.8898"/>
<ellipse fill="none" stroke="black" cx="274.776" cy="-36.8898" rx="8" ry="8"/>
</g>
<!-- 49&#45;&gt;56 -->
<g id="edge75" class="edge"><title>49&#45;&gt;56</title>
<path fill="none" stroke="black" d="M250.274,-80.354C253.93,-73.8688 264.772,-54.6365 270.734,-44.0598"/>
</g>
<!-- 52 -->
<g id="node47" class="node"><title>52</title>
<path fill="olivedrab" stroke="black" stroke-width="0.5" d="M339.229,-14.9418C339.229,-14.9418 349.229,-14.9418 349.229,-14.9418 349.229,-15.6406 349.156,-16.3374 349.011,-17.0209 348.866,-17.7044 348.649,-18.3708 348.365,-19.0092 348.081,-19.6475 347.73,-20.2543 347.32,-20.8197 346.909,-21.385 346.44,-21.9057 345.921,-22.3733 345.401,-22.8408 344.835,-23.2527 344.229,-23.6021 343.624,-23.9514 342.984,-24.2364 342.32,-24.4524 341.655,-24.6683 340.97,-24.814 340.275,-24.887 339.58,-24.9601 338.879,-24.9601 338.184,-24.887 337.489,-24.814 336.804,-24.6683 336.139,-24.4524 335.475,-24.2364 334.835,-23.9514 334.229,-23.6021 333.624,-23.2527 333.057,-22.8408 332.538,-22.3732 332.019,-21.9057 331.55,-21.385 331.139,-20.8197 330.729,-20.2543 330.378,-19.6475 330.094,-19.0092 329.81,-18.3708 329.593,-17.7044 329.448,-17.0209 329.303,-16.3374 329.229,-15.6406 329.229,-14.9418 329.229,-14.243 329.303,-13.5462 329.448,-12.8627 329.448,-12.8627 339.229,-14.9418 339.229,-14.9418"/>
<path fill="#1874cd" stroke="black" stroke-width="0.5" d="M339.229,-14.9418C339.229,-14.9418 329.448,-12.8627 329.448,-12.8627 329.575,-12.2647 329.757,-11.6797 329.991,-11.115 330.225,-10.5502 330.51,-10.0081 330.843,-9.49541 331.176,-8.98274 331.555,-8.50167 331.976,-8.05826 332.397,-7.61484 332.857,-7.21094 333.352,-6.85163 333.846,-6.49232 334.373,-6.17912 334.924,-5.91595 335.476,-5.65278 336.051,-5.44076 336.641,-5.28254 337.232,-5.12433 337.835,-5.02059 338.445,-4.97263 339.054,-4.92467 339.667,-4.93269 340.275,-4.99658 340.883,-5.06048 341.484,-5.17999 342.07,-5.35361 342.656,-5.52722 343.225,-5.75422 343.769,-6.03174 344.314,-6.30926 344.832,-6.63614 345.317,-7.00827 345.802,-7.3804 346.252,-7.79622 346.661,-8.2505 347.07,-8.70478 347.436,-9.1956 347.756,-9.71682 348.075,-10.238 348.346,-10.7874 348.565,-11.3581 348.784,-11.9288 348.951,-12.5184 349.062,-13.1194 349.173,-13.7205 349.229,-14.3305 349.229,-14.9418 349.229,-14.9418 339.229,-14.9418 339.229,-14.9418"/>
<ellipse fill="none" stroke="black" cx="339.229" cy="-14.9418" rx="10" ry="10"/>
</g>
<!-- 54 -->
<g id="node49" class="node"><title>54</title>
<ellipse fill="#1874cd" stroke="black" cx="339.774" cy="45.9884" rx="4.5" ry="4.5"/>
</g>
<!-- 52&#45;&gt;54 -->
<g id="edge76" class="edge"><title>52&#45;&gt;54</title>
<path fill="none" stroke="black" d="M339.319,-4.88042C339.439,8.5046 339.645,31.6147 339.733,41.3994"/>
</g>
<!-- 52&#45;&gt;56 -->
<g id="edge77" class="edge"><title>52&#45;&gt;56</title>
<path fill="none" stroke="black" d="M329.719,-18.1803C318.566,-21.9782 300.027,-28.291 287.608,-32.5201"/>
<polygon fill="black" stroke="black" points="286.868,-30.9233 282.699,-34.1917 287.996,-34.2365 286.868,-30.9233"/>
<text text-anchor="middle" x="280.935" y="-15.0792" font-family="monospace" font-size="14.00">F1920S</text>
</g>
<!-- 67 -->
<g id="node58" class="node"><title>67</title>
<ellipse fill="#1874cd" stroke="black" cx="376.519" cy="-58.0967" rx="2.5" ry="2.5"/>
</g>
<!-- 52&#45;&gt;67 -->
<g id="edge78" class="edge"><title>52&#45;&gt;67</title>
<path fill="none" stroke="black" d="M346.069,-22.8571C354.816,-32.9796 369.451,-49.9167 374.632,-55.9122"/>
</g>
<!-- 115 -->
<g id="node84" class="node"><title>115</title>
<ellipse fill="olivedrab" stroke="black" cx="335.696" cy="-68.4501" rx="2.5" ry="2.5"/>
</g>
<!-- 52&#45;&gt;115 -->
<g id="edge79" class="edge"><title>52&#45;&gt;115</title>
<path fill="none" stroke="black" d="M338.548,-25.2587C337.864,-35.6221 336.825,-51.3578 336.208,-60.7008"/>
<polygon fill="black" stroke="black" points="334.455,-60.6921 335.872,-65.7966 337.947,-60.9228 334.455,-60.6921"/>
<text text-anchor="middle" x="316.234" y="-48.9571" font-family="monospace" font-size="14.00">R537L</text>
</g>
<!-- 117 -->
<g id="node86" class="node"><title>117</title>
<ellipse fill="olivedrab" stroke="black" cx="303.422" cy="23.1368" rx="2.5" ry="2.5"/>
</g>
<!-- 52&#45;&gt;117 -->
<g id="edge80" class="edge"><title>52&#45;&gt;117</title>
<path fill="none" stroke="black" d="M332.325,-7.59986C325.456,-0.295101 315.06,10.7603 308.787,17.4309"/>
<polygon fill="black" stroke="black" points="309.897,18.8048 305.197,21.2485 307.348,16.4071 309.897,18.8048"/>
<text text-anchor="middle" x="293.747" y="3.03918" font-family="monospace" font-size="14.00">H1755Y</text>
</g>
<!-- 118 -->
<g id="node87" class="node"><title>118</title>
<ellipse fill="olivedrab" stroke="black" cx="395.282" cy="-17.8368" rx="2.5" ry="2.5"/>
</g>
<!-- 52&#45;&gt;118 -->
<g id="edge81" class="edge"><title>52&#45;&gt;118</title>
<path fill="none" stroke="black" d="M349.251,-15.4594C362.35,-16.136 384.551,-17.2826 392.416,-17.6888"/>
</g>
<!-- 120 -->
<g id="node89" class="node"><title>120</title>
<ellipse fill="olivedrab" stroke="black" cx="379.232" cy="23.7625" rx="2.5" ry="2.5"/>
</g>
<!-- 52&#45;&gt;120 -->
<g id="edge82" class="edge"><title>52&#45;&gt;120</title>
<path fill="none" stroke="black" d="M346.566,-7.84283C354.337,-0.324641 366.439,11.385 373.526,18.2419"/>
<polygon fill="black" stroke="black" points="374.83,17.0689 377.207,21.8033 372.396,19.5842 374.83,17.0689"/>
<text text-anchor="middle" x="340.673" y="17.9731" font-family="monospace" font-size="14.00">K251R</text>
</g>
<!-- 55 -->
<g id="node50" class="node"><title>55</title>
<ellipse fill="#1874cd" stroke="black" cx="-36.0171" cy="-110.015" rx="2.5" ry="2.5"/>
</g>
<!-- 91 -->
<g id="node76" class="node"><title>91</title>
<ellipse fill="#1874cd" stroke="black" cx="-5.11686" cy="-148.603" rx="2.5" ry="2.5"/>
</g>
<!-- 55&#45;&gt;91 -->
<g id="edge85" class="edge"><title>55&#45;&gt;91</title>
<path fill="none" stroke="black" d="M-34.3558,-112.09C-29.0406,-118.727 -12.4769,-139.412 -6.94014,-146.326"/>
</g>
<!-- 55&#45;&gt;98 -->
<g id="edge86" class="edge"><title>55&#45;&gt;98</title>
<path fill="none" stroke="black" d="M-35.6563,-107.516C-34.3629,-98.5604 -29.9473,-67.9841 -28.2717,-56.3819"/>
</g>
<!-- anon_55_76_0 -->
<g id="node97" class="node"><title>anon_55_76_0</title>
<ellipse fill="white" stroke="black" cx="-52.6575" cy="-152.806" rx="1" ry="1"/>
</g>
<!-- 55&#45;&gt;anon_55_76_0 -->
<g id="edge83" class="edge"><title>55&#45;&gt;anon_55_76_0</title>
<path fill="none" stroke="black" d="M-37.0082,-112.564C-40.1428,-120.624 -49.7734,-145.39 -52.132,-151.455"/>
</g>
<!-- 119 -->
<g id="node88" class="node"><title>119</title>
<ellipse fill="olivedrab" stroke="black" cx="227.038" cy="-14.1159" rx="2.5" ry="2.5"/>
</g>
<!-- 56&#45;&gt;119 -->
<g id="edge87" class="edge"><title>56&#45;&gt;119</title>
<path fill="none" stroke="black" d="M267.317,-33.3314C256.408,-28.1272 236.636,-18.6946 229.605,-15.3403"/>
</g>
<!-- 58 -->
<g id="node53" class="node"><title>58</title>
<ellipse fill="#1874cd" stroke="black" cx="340.678" cy="-295.594" rx="2.5" ry="2.5"/>
</g>
<!-- 58&#45;&gt;93 -->
<g id="edge88" class="edge"><title>58&#45;&gt;93</title>
<path fill="none" stroke="black" d="M338.049,-294.173C330.667,-290.183 309.836,-278.923 302.894,-275.171"/>
</g>
<!-- 59 -->
<g id="node54" class="node"><title>59</title>
<ellipse fill="#1874cd" stroke="black" cx="58.9955" cy="-174.45" rx="8.5" ry="8.5"/>
</g>
<!-- 71 -->
<g id="node60" class="node"><title>71</title>
<ellipse fill="#1874cd" stroke="black" cx="58.2477" cy="-127.282" rx="2.5" ry="2.5"/>
</g>
<!-- 59&#45;&gt;71 -->
<g id="edge89" class="edge"><title>59&#45;&gt;71</title>
<path fill="none" stroke="black" d="M58.8583,-165.799C58.6863,-154.948 58.4007,-136.932 58.2918,-130.061"/>
</g>
<!-- anon_59_85_0 -->
<g id="node98" class="node"><title>anon_59_85_0</title>
<ellipse fill="white" stroke="black" cx="69.2079" cy="-219.013" rx="1" ry="1"/>
</g>
<!-- 59&#45;&gt;anon_59_85_0 -->
<g id="edge90" class="edge"><title>59&#45;&gt;anon_59_85_0</title>
<path fill="none" stroke="black" d="M60.9645,-183.042C63.5612,-194.373 67.925,-213.415 68.9754,-217.999"/>
</g>
<!-- 75 -->
<g id="node63" class="node"><title>75</title>
<ellipse fill="#1874cd" stroke="black" cx="-53.8885" cy="-241.556" rx="2.5" ry="2.5"/>
</g>
<!-- 76 -->
<g id="node64" class="node"><title>76</title>
<ellipse fill="#1874cd" stroke="black" cx="-54.4395" cy="-197.572" rx="2.5" ry="2.5"/>
</g>
<!-- 75&#45;&gt;76 -->
<g id="edge92" class="edge"><title>75&#45;&gt;76</title>
<path fill="none" stroke="black" d="M-53.9213,-238.937C-54.0195,-231.095 -54.3105,-207.874 -54.4075,-200.123"/>
</g>
<!-- 79 -->
<g id="node67" class="node"><title>79</title>
<ellipse fill="#1874cd" stroke="black" cx="210.694" cy="-156.94" rx="2.5" ry="2.5"/>
</g>
<!-- 79&#45;&gt;45 -->
<g id="edge59" class="edge"><title>79&#45;&gt;45</title>
<path fill="none" stroke="black" d="M210.993,-159.606C211.45,-163.676 212.378,-171.932 213.399,-181.026"/>
<polygon fill="black" stroke="black" points="211.677,-181.37 213.974,-186.143 215.155,-180.979 211.677,-181.37"/>
<text text-anchor="middle" x="191.481" y="-161.648" font-family="monospace" font-size="14.00">R254K</text>
</g>
<!-- 83 -->
<g id="node71" class="node"><title>83</title>
<ellipse fill="#1874cd" stroke="black" cx="215.133" cy="-359.244" rx="2.5" ry="2.5"/>
</g>
<!-- 85 -->
<g id="node72" class="node"><title>85</title>
<ellipse fill="#1874cd" stroke="black" cx="85.5489" cy="-255.255" rx="2.5" ry="2.5"/>
</g>
<!-- 98&#45;&gt;9 -->
<g id="edge93" class="edge"><title>98&#45;&gt;9</title>
<path fill="none" stroke="black" stroke-dasharray="5,2" d="M-32.2826,-52.0326C-40.255,-52.3149 -56.5957,-52.8935 -66.4341,-53.2418"/>
<polygon fill="black" stroke="black" points="-66.6517,-51.4984 -71.5866,-53.4243 -66.5278,-54.9962 -66.6517,-51.4984"/>
<text text-anchor="middle" x="-76.6271" y="-41.5176" font-family="monospace" font-size="14.00">N1570Y</text>
</g>
<!-- 98&#45;&gt;11 -->
<g id="edge94" class="edge"><title>98&#45;&gt;11</title>
<path fill="none" stroke="black" stroke-dasharray="5,2" d="M-25.5432,-56.0868C-22.7279,-61.8072 -17.6592,-72.1062 -14.234,-79.0658"/>
<polygon fill="black" stroke="black" points="-15.6069,-80.2393 -11.8289,-83.9527 -12.4667,-78.6938 -15.6069,-80.2393"/>
<text text-anchor="middle" x="-43.768" y="-73.6533" font-family="monospace" font-size="14.00">P1874L</text>
</g>
<!-- 98&#45;&gt;33 -->
<g id="edge95" class="edge"><title>98&#45;&gt;33</title>
<path fill="none" stroke="black" stroke-dasharray="5,2" d="M-23.3953,-54.1127C-16.0335,-58.0251 -0.795779,-66.1233 8.05306,-70.8261"/>
<polygon fill="black" stroke="black" points="7.37306,-72.4465 12.6096,-73.2477 9.01564,-69.3558 7.37306,-72.4465"/>
<text text-anchor="middle" x="-5.48643" y="-52.4304" font-family="monospace" font-size="14.00">A1934V</text>
</g>
<!-- anon_2_16_0&#45;&gt;16 -->
<g id="edge9" class="edge"><title>anon_2_16_0&#45;&gt;16</title>
<path fill="none" stroke="black" d="M100.887,-73.1209C105.505,-77.1379 127.003,-95.8418 133.609,-101.589"/>
</g>
<!-- anon_6_44_0&#45;&gt;44 -->
<g id="edge37" class="edge"><title>anon_6_44_0&#45;&gt;44</title>
<path fill="none" stroke="black" d="M10.7188,-7.3859C12.6307,-11.6237 20.3317,-28.6931 24.7983,-38.5933"/>
<polygon fill="black" stroke="black" points="23.2383,-39.391 26.8897,-43.2289 26.4286,-37.9516 23.2383,-39.391"/>
<text text-anchor="middle" x="39.753" y="-13.9937" font-family="monospace" font-size="14.00">P940H</text>
</g>
<!-- anon_15_21_0&#45;&gt;21 -->
<g id="edge47" class="edge"><title>anon_15_21_0&#45;&gt;21</title>
<path fill="none" stroke="black" d="M-75.4585,151.8C-78.9934,155.581 -93.4337,171.023 -101.46,179.607"/>
<polygon fill="black" stroke="black" points="-100.457,181.095 -105.15,183.552 -103.013,178.705 -100.457,181.095"/>
<text text-anchor="middle" x="-115.15" y="163.712" font-family="monospace" font-size="14.00">L1366F</text>
</g>
<!-- anon_45_83_0&#45;&gt;83 -->
<g id="edge63" class="edge"><title>anon_45_83_0&#45;&gt;83</title>
<path fill="none" stroke="black" d="M215.3,-316.139C215.278,-321.775 215.178,-347.637 215.144,-356.361"/>
</g>
<!-- anon_47_48_0&#45;&gt;47 -->
<g id="edge68" class="edge"><title>anon_47_48_0&#45;&gt;47</title>
<path fill="none" stroke="black" d="M289.352,113.605C285.106,112.668 267.856,108.861 253.717,105.74"/>
<polygon fill="black" stroke="black" points="253.183,107.415 248.678,104.628 253.938,103.997 253.183,107.415"/>
<text text-anchor="middle" x="248.083" y="120.331" font-family="monospace" font-size="14.00">D466H</text>
</g>
<!-- anon_55_76_0&#45;&gt;76 -->
<g id="edge84" class="edge"><title>anon_55_76_0&#45;&gt;76</title>
<path fill="none" stroke="black" d="M-52.7016,-153.913C-52.9288,-159.622 -53.9715,-185.817 -54.3233,-194.653"/>
</g>
<!-- anon_59_85_0&#45;&gt;85 -->
<g id="edge91" class="edge"><title>anon_59_85_0&#45;&gt;85</title>
<path fill="none" stroke="black" d="M69.9101,-220.57C72.4514,-226.207 81.1871,-245.581 84.3737,-252.649"/>
</g>
</g>
</svg>
