<?xml version="1.0" encoding="UTF-8" standalone="no"?>
<!DOCTYPE svg PUBLIC "-//W3C//DTD SVG 1.1//EN"
 "http://www.w3.org/Graphics/SVG/1.1/DTD/svg11.dtd">
<!-- Generated by graphviz version 2.38.0 (20140413.2041)
 -->
<!-- Title: %3 Pages: 1 -->
<svg width="606pt" height="620pt"
 viewBox="0.00 0.00 605.86 619.72" xmlns="http://www.w3.org/2000/svg" xmlns:xlink="http://www.w3.org/1999/xlink">
<g id="graph0" class="graph" transform="scale(1 1) rotate(0) translate(204.079 365.744)">
<title>%3</title>
<polygon fill="white" stroke="none" points="-204.079,253.977 -204.079,-365.744 401.782,-365.744 401.782,253.977 -204.079,253.977"/>
<!-- 0 -->
<g id="node1" class="node"><title>0</title>
<ellipse fill="deepskyblue" stroke="black" cx="-190.591" cy="36.7112" rx="2.5" ry="2.5"/>
</g>
<!-- 3 -->
<g id="node4" class="node"><title>3</title>
<path fill="#1874cd" stroke="black" stroke-width="0.5" d="M-119.047,-10.156C-119.047,-10.156 -94.0466,-10.156 -94.0466,-10.156 -94.0466,-11.0425 -94.0937,-11.9284 -94.1878,-12.8099 -94.2819,-13.6914 -94.4229,-14.5673 -94.61,-15.4338 -94.7972,-16.3003 -95.0303,-17.1563 -95.3084,-17.9981 -95.5864,-18.8398 -95.9091,-19.6662 -96.275,-20.4737 -96.6408,-21.2812 -97.0494,-22.0687 -97.4989,-22.8327 -97.9484,-23.5968 -98.4383,-24.3365 -98.9664,-25.0485 -99.4945,-25.7606 -100.06,-26.444 -100.661,-27.096 -101.261,-27.748 -101.896,-28.3675 -102.563,-28.952 -103.229,-29.5365 -103.927,-30.0852 -104.651,-30.5957 -105.376,-31.1061 -106.128,-31.5777 -106.902,-32.0083 -107.677,-32.4389 -108.475,-32.828 -109.291,-33.174 -110.107,-33.5199 -110.941,-33.8222 -111.789,-34.0795 -112.638,-34.3369 -113.499,-34.5489 -114.37,-34.7147 -115.241,-34.8806 -116.12,-35 -117.004,-35.0724 -117.887,-35.1449 -118.774,-35.1703 -119.66,-35.1485 -120.546,-35.1267 -121.431,-35.0579 -122.31,-34.9422 -122.31,-34.9422 -119.047,-10.156 -119.047,-10.156"/>
<path fill="#98f5ff" stroke="black" stroke-width="0.5" d="M-119.047,-10.156C-119.047,-10.156 -122.31,-34.9422 -122.31,-34.9422 -123.662,-34.7641 -124.998,-34.4756 -126.304,-34.0795 -127.609,-33.6835 -128.88,-33.1813 -130.104,-32.5779 -130.104,-32.5779 -119.047,-10.156 -119.047,-10.156"/>
<path fill="deepskyblue" stroke="black" stroke-width="0.5" d="M-119.047,-10.156C-119.047,-10.156 -130.104,-32.5779 -130.104,-32.5779 -131.113,-32.0801 -132.088,-31.5148 -133.021,-30.8858 -133.954,-30.2568 -134.843,-29.5654 -135.683,-28.8165 -136.523,-28.0677 -137.312,-27.2629 -138.043,-26.4078 -138.775,-25.5527 -139.448,-24.6491 -140.058,-23.7033 -140.668,-22.7575 -141.213,-21.7716 -141.69,-20.7524 -142.167,-19.7331 -142.574,-18.6828 -142.91,-17.6086 -143.245,-16.5344 -143.508,-15.4388 -143.696,-14.3293 -143.884,-13.2197 -143.996,-12.0988 -144.033,-10.974 -144.07,-9.84926 -144.031,-8.72332 -143.916,-7.60385 -143.801,-6.48438 -143.611,-5.37395 -143.346,-4.28013 -143.082,-3.18631 -142.744,-2.11159 -142.334,-1.06332 -141.925,-0.0150433 -141.445,1.0044 -140.899,1.98805 -140.352,2.97171 -139.74,3.91733 -139.066,4.81847 -138.392,5.7196 -137.657,6.5742 -136.868,7.37642 -136.079,8.17865 -135.237,8.92667 -134.347,9.61538 -133.457,10.3041 -132.521,10.9319 -131.547,11.4946 -131.547,11.4946 -119.047,-10.156 -119.047,-10.156"/>
<path fill="#ff3030" stroke="black" stroke-width="0.5" d="M-119.047,-10.156C-119.047,-10.156 -131.547,11.4946 -131.547,11.4946 -130.602,12.0402 -129.622,12.5234 -128.614,12.941 -127.605,13.3585 -126.571,13.7097 -125.517,13.9921 -124.463,14.2745 -123.392,14.4877 -122.31,14.6301 -121.228,14.7725 -120.138,14.844 -119.047,14.844 -117.955,14.844 -116.865,14.7725 -115.783,14.6301 -114.702,14.4877 -113.63,14.2745 -112.576,13.9921 -111.522,13.7097 -110.488,13.3585 -109.479,12.941 -108.471,12.5234 -107.492,12.0402 -106.547,11.4946 -105.602,10.949 -104.693,10.3421 -103.828,9.6778 -102.962,9.01351 -102.141,8.29325 -101.369,7.52164 -100.597,6.75003 -99.877,5.92873 -99.2127,5.063 -98.5484,4.19728 -97.9415,3.28899 -97.3959,2.34397 -96.8503,1.39894 -96.3672,0.419209 -95.9496,-0.588947 -95.532,-1.5971 -95.1808,-2.63152 -94.8984,-3.68556 -94.616,-4.73959 -94.4029,-5.81099 -94.2604,-6.89288 -94.118,-7.97476 -94.0466,-9.06481 -94.0466,-10.156 -94.0466,-10.156 -119.047,-10.156 -119.047,-10.156"/>
<ellipse fill="none" stroke="black" cx="-119.047" cy="-10.156" rx="25" ry="25"/>
</g>
<!-- 0&#45;&gt;3 -->
<g id="edge1" class="edge"><title>0&#45;&gt;3</title>
<path fill="none" stroke="black" d="M-188.21,35.1518C-180.791,30.2916 -157.535,15.0572 -140.023,3.58506"/>
</g>
<!-- 1 -->
<g id="node2" class="node"><title>1</title>
<path fill="#98f5ff" stroke="black" stroke-width="0.5" d="M114.616,18.8331C114.616,18.8331 132.116,18.8331 132.116,18.8331 132.116,17.7824 132.022,16.7339 131.834,15.7003 131.646,14.6666 131.365,13.652 130.995,12.6687 130.625,11.6854 130.167,10.7374 129.627,9.83628 129.087,8.93512 128.466,8.08444 127.774,7.29453 127.081,6.50462 126.318,5.7787 125.496,5.12556 124.673,4.47242 123.792,3.89472 122.866,3.39946 121.939,2.90419 120.97,2.49337 119.97,2.17198 118.969,1.85059 117.942,1.61993 116.901,1.48279 116.901,1.48279 114.616,18.8331 114.616,18.8331"/>
<path fill="deepskyblue" stroke="black" stroke-width="0.5" d="M114.616,18.8331C114.616,18.8331 116.901,1.48279 116.901,1.48279 116.025,1.3675 115.142,1.31868 114.259,1.33674 113.375,1.35481 112.495,1.43971 111.625,1.59072 110.754,1.74173 109.897,1.95842 109.059,2.23893 108.222,2.51944 107.406,2.86296 106.621,3.26655 105.835,3.67014 105.081,4.13264 104.365,4.65008 103.649,5.16752 102.973,5.73842 102.344,6.35789 101.714,6.97735 101.132,7.64361 100.603,8.35093 100.074,9.05826 99.5992,9.80463 99.1828,10.5836 98.7664,11.3626 98.4096,12.1721 98.1155,13.005 97.8213,13.8378 97.5906,14.6918 97.4254,15.5595 97.2601,16.4273 97.1608,17.3062 97.1283,18.189 97.0958,19.0717 97.1302,19.9556 97.2311,20.8331 97.3321,21.7106 97.4993,22.5793 97.7314,23.4315 97.9635,24.2838 98.2598,25.1173 98.6178,25.9248 98.9757,26.7323 99.3943,27.5116 99.8699,28.2559 100.346,29.0003 100.877,29.7075 101.459,30.3716 102.042,31.0357 102.674,31.6548 103.349,32.2235 104.025,32.7922 104.743,33.3089 105.497,33.7692 106.251,34.2295 107.039,34.6321 107.853,34.9734 108.668,35.3148 109.507,35.594 110.364,35.8086 111.221,36.0233 112.093,36.1727 112.972,36.2557 113.852,36.3387 114.736,36.3549 115.618,36.3044 116.5,36.2538 117.377,36.1366 118.241,35.9536 119.105,35.7707 119.954,35.5226 120.781,35.2114 121.608,34.9003 122.409,34.527 123.18,34.0948 123.95,33.6625 124.687,33.1726 125.383,32.6291 126.079,32.0857 126.734,31.4903 127.34,30.8481 127.946,30.2059 128.503,29.5187 129.006,28.7923 129.509,28.066 129.956,27.3027 130.343,26.5089 130.731,25.7151 131.057,24.893 131.321,24.0499 131.584,23.2067 131.783,22.3449 131.916,21.4717 132.05,20.5984 132.116,19.7164 132.116,18.8331 132.116,18.8331 114.616,18.8331 114.616,18.8331"/>
<ellipse fill="none" stroke="black" cx="114.616" cy="18.8331" rx="17.5" ry="17.5"/>
</g>
<!-- 12 -->
<g id="node13" class="node"><title>12</title>
<ellipse fill="deepskyblue" stroke="black" cx="170.477" cy="62.9423" rx="2.5" ry="2.5"/>
</g>
<!-- 1&#45;&gt;12 -->
<g id="edge3" class="edge"><title>1&#45;&gt;12</title>
<path fill="none" stroke="black" d="M128.425,29.7365C142.123,40.5534 161.972,56.227 168.391,61.2953"/>
</g>
<!-- 19 -->
<g id="node20" class="node"><title>19</title>
<ellipse fill="deepskyblue" stroke="black" cx="158.883" cy="-36.369" rx="2.5" ry="2.5"/>
</g>
<!-- 1&#45;&gt;19 -->
<g id="edge4" class="edge"><title>1&#45;&gt;19</title>
<path fill="none" stroke="black" d="M125.787,4.90326C136.647,-8.6392 152.217,-28.0561 157.249,-34.3306"/>
</g>
<!-- 23 -->
<g id="node24" class="node"><title>23</title>
<ellipse fill="deepskyblue" stroke="black" cx="179.27" cy="29.3725" rx="2.5" ry="2.5"/>
</g>
<!-- 1&#45;&gt;23 -->
<g id="edge5" class="edge"><title>1&#45;&gt;23</title>
<path fill="none" stroke="black" d="M131.942,21.6575C147.503,24.194 169.021,27.7018 176.544,28.9281"/>
</g>
<!-- 24 -->
<g id="node25" class="node"><title>24</title>
<ellipse fill="deepskyblue" stroke="black" cx="175.375" cy="-6.70083" rx="2.5" ry="2.5"/>
</g>
<!-- 1&#45;&gt;24 -->
<g id="edge6" class="edge"><title>1&#45;&gt;24</title>
<path fill="none" stroke="black" d="M130.899,11.9905C145.522,5.84516 165.744,-2.6532 172.813,-5.62403"/>
</g>
<!-- 2 -->
<g id="node3" class="node"><title>2</title>
<ellipse fill="#ff3030" stroke="black" cx="52.8243" cy="-32.7916" rx="9" ry="9"/>
</g>
<!-- 33 -->
<g id="node33" class="node"><title>33</title>
<ellipse fill="#ff3030" stroke="black" cx="14.8205" cy="-74.4227" rx="2.5" ry="2.5"/>
</g>
<!-- 2&#45;&gt;33 -->
<g id="edge10" class="edge"><title>2&#45;&gt;33</title>
<path fill="none" stroke="black" d="M46.5487,-39.6661C37.6098,-49.4582 21.717,-66.8679 16.5179,-72.5632"/>
</g>
<!-- anon_2_16_0 -->
<g id="node92" class="node"><title>anon_2_16_0</title>
<ellipse fill="white" stroke="black" cx="100.009" cy="-72.3567" rx="1" ry="1"/>
</g>
<!-- 2&#45;&gt;anon_2_16_0 -->
<g id="edge8" class="edge"><title>2&#45;&gt;anon_2_16_0</title>
<path fill="none" stroke="black" d="M59.7865,-38.6296C71.2711,-48.2595 93.4529,-66.8594 98.8189,-71.3589"/>
</g>
<!-- 9 -->
<g id="node10" class="node"><title>9</title>
<ellipse fill="#ff3030" stroke="black" cx="-74.464" cy="-53.5262" rx="2.5" ry="2.5"/>
</g>
<!-- 3&#45;&gt;9 -->
<g id="edge12" class="edge"><title>3&#45;&gt;9</title>
<path fill="none" stroke="black" d="M-100.913,-27.7963C-91.2702,-37.177 -80.5511,-47.6046 -76.3229,-51.7178"/>
</g>
<!-- 10 -->
<g id="node11" class="node"><title>10</title>
<ellipse fill="#ff3030" stroke="black" cx="-168.988" cy="53.9846" rx="2.5" ry="2.5"/>
</g>
<!-- 3&#45;&gt;10 -->
<g id="edge13" class="edge"><title>3&#45;&gt;10</title>
<path fill="none" stroke="black" d="M-134.574,9.78686C-146.715,25.3793 -162.348,45.4572 -167.363,51.8983"/>
</g>
<!-- 27 -->
<g id="node27" class="node"><title>27</title>
<ellipse fill="deepskyblue" stroke="black" cx="-139.298" cy="-92.5918" rx="2.5" ry="2.5"/>
</g>
<!-- 3&#45;&gt;27 -->
<g id="edge14" class="edge"><title>3&#45;&gt;27</title>
<path fill="none" stroke="black" d="M-125.013,-34.4436C-129.96,-54.5807 -136.51,-81.2433 -138.615,-89.8136"/>
</g>
<!-- 46 -->
<g id="node41" class="node"><title>46</title>
<ellipse fill="#1874cd" stroke="black" cx="-178.605" cy="-64.2568" rx="2.5" ry="2.5"/>
</g>
<!-- 3&#45;&gt;46 -->
<g id="edge15" class="edge"><title>3&#45;&gt;46</title>
<path fill="none" stroke="black" d="M-137.565,-26.9773C-149.555,-37.8686 -164.401,-51.3545 -172.547,-58.754"/>
<polygon fill="black" stroke="black" points="-174.143,-57.8398 -176.668,-62.4971 -171.79,-60.4306 -174.143,-57.8398"/>
<text text-anchor="middle" x="-178.08" y="-48.5042" font-family="monospace" font-size="14.00">I829L</text>
</g>
<!-- 77 -->
<g id="node65" class="node"><title>77</title>
<ellipse fill="#1874cd" stroke="black" cx="-182.022" cy="-34.8028" rx="2.5" ry="2.5"/>
</g>
<!-- 3&#45;&gt;77 -->
<g id="edge16" class="edge"><title>3&#45;&gt;77</title>
<path fill="none" stroke="black" d="M-142.496,-19.3336C-156.764,-24.9176 -173.392,-31.4252 -179.558,-33.8385"/>
</g>
<!-- 78 -->
<g id="node66" class="node"><title>78</title>
<ellipse fill="#1874cd" stroke="black" cx="-197.579" cy="-9.08143" rx="2.5" ry="2.5"/>
</g>
<!-- 3&#45;&gt;78 -->
<g id="edge17" class="edge"><title>3&#45;&gt;78</title>
<path fill="none" stroke="black" d="M-144.327,-9.8101C-162.98,-9.55486 -186.476,-9.23335 -194.632,-9.12175"/>
</g>
<!-- 95 -->
<g id="node78" class="node"><title>95</title>
<ellipse fill="#1874cd" stroke="black" cx="-152.036" cy="-70.4126" rx="2.5" ry="2.5"/>
</g>
<!-- 3&#45;&gt;95 -->
<g id="edge18" class="edge"><title>3&#45;&gt;95</title>
<path fill="none" stroke="black" d="M-131.143,-32.2512C-138.646,-45.9552 -147.458,-62.0513 -150.728,-68.0249"/>
</g>
<!-- 122 -->
<g id="node91" class="node"><title>122</title>
<ellipse fill="#98f5ff" stroke="black" cx="-175.707" cy="12.5449" rx="2.5" ry="2.5"/>
</g>
<!-- 3&#45;&gt;122 -->
<g id="edge19" class="edge"><title>3&#45;&gt;122</title>
<path fill="none" stroke="black" d="M-142.42,-0.791642C-154.613,4.09369 -168.071,9.48565 -173.376,11.6109"/>
</g>
<!-- 4 -->
<g id="node5" class="node"><title>4</title>
<ellipse fill="#ff3030" stroke="black" cx="78.051" cy="102.472" rx="12" ry="12"/>
</g>
<!-- 34 -->
<g id="node34" class="node"><title>34</title>
<ellipse fill="#ff3030" stroke="black" cx="131.383" cy="128.477" rx="2.5" ry="2.5"/>
</g>
<!-- 4&#45;&gt;34 -->
<g id="edge21" class="edge"><title>4&#45;&gt;34</title>
<path fill="none" stroke="black" d="M88.8435,107.735C101.505,113.908 121.674,123.743 128.792,127.214"/>
</g>
<!-- 38 -->
<g id="node36" class="node"><title>38</title>
<ellipse fill="#ff3030" stroke="black" cx="137.822" cy="96.6194" rx="2.5" ry="2.5"/>
</g>
<!-- 4&#45;&gt;38 -->
<g id="edge22" class="edge"><title>4&#45;&gt;38</title>
<path fill="none" stroke="black" d="M90.1465,101.288C104.337,99.8983 126.941,97.6849 134.919,96.9037"/>
</g>
<!-- 40 -->
<g id="node37" class="node"><title>40</title>
<ellipse fill="#ff3030" stroke="black" cx="108.87" cy="153.701" rx="2.5" ry="2.5"/>
</g>
<!-- 4&#45;&gt;40 -->
<g id="edge23" class="edge"><title>4&#45;&gt;40</title>
<path fill="none" stroke="black" d="M84.2877,112.839C91.6045,125.002 103.26,144.376 107.373,151.213"/>
</g>
<!-- 41 -->
<g id="node38" class="node"><title>41</title>
<ellipse fill="#ff3030" stroke="black" cx="79.8848" cy="166.985" rx="2.5" ry="2.5"/>
</g>
<!-- 4&#45;&gt;41 -->
<g id="edge24" class="edge"><title>4&#45;&gt;41</title>
<path fill="none" stroke="black" d="M78.396,114.607C78.8359,130.082 79.5682,155.847 79.807,164.247"/>
</g>
<!-- 5 -->
<g id="node6" class="node"><title>5</title>
<path fill="#98f5ff" stroke="black" stroke-width="0.5" d="M51.4316,-61.8145C51.4316,-61.8145 73.9316,-61.8145 73.9316,-61.8145 73.9316,-62.8477 73.8605,-63.8796 73.7187,-64.903 73.5768,-65.9264 73.3647,-66.9388 73.0838,-67.933 72.8028,-68.9272 72.4537,-69.9009 72.039,-70.8471 71.6242,-71.7934 71.1448,-72.7099 70.604,-73.5903 70.0633,-74.4707 69.4626,-75.3127 68.8062,-76.1105 68.1497,-76.9083 67.4391,-77.66 66.6794,-78.3601 65.9196,-79.0603 65.1126,-79.7073 64.2639,-80.2965 63.4152,-80.8857 62.527,-81.4158 61.6055,-81.883 60.684,-82.3501 59.7314,-82.7533 58.7545,-83.0895 57.7776,-83.4258 56.7787,-83.6943 55.7649,-83.8933 54.7511,-84.0923 53.7248,-84.2212 52.6932,-84.2791 51.6617,-84.3371 50.6274,-84.3239 49.5977,-84.2397 48.568,-84.1554 47.5453,-84.0004 46.5369,-83.7757 45.5284,-83.5509 44.5367,-83.2569 43.5687,-82.8959 42.6007,-82.5348 41.6587,-82.1075 40.7494,-81.617 39.8401,-81.1265 38.9657,-80.574 38.1323,-79.9633 38.1323,-79.9633 51.4316,-61.8145 51.4316,-61.8145"/>
<path fill="deepskyblue" stroke="black" stroke-width="0.5" d="M51.4316,-61.8145C51.4316,-61.8145 38.1323,-79.9633 38.1323,-79.9633 37.4997,-79.4997 36.8917,-79.0034 36.3109,-78.4763 35.7301,-77.9492 35.1773,-77.3921 34.6547,-76.8073 34.1321,-76.2225 33.6404,-75.6108 33.1817,-74.9746 32.7229,-74.3385 32.2978,-73.6788 31.9079,-72.9982 31.5181,-72.3177 31.1641,-71.6172 30.8474,-70.8997 30.5307,-70.1821 30.2518,-69.4485 30.0117,-68.7019 29.7716,-67.9552 29.5707,-67.1965 29.4099,-66.4289 29.249,-65.6613 29.1284,-64.8858 29.0486,-64.1055 28.9687,-63.3253 28.9297,-62.5414 28.9317,-61.7571 28.9337,-60.9728 28.9767,-60.1892 29.0606,-59.4094 29.1444,-58.6296 29.2689,-57.8547 29.4337,-57.0879 29.5985,-56.3211 29.8032,-55.5634 30.0471,-54.818 30.291,-54.0726 30.5737,-53.3404 30.894,-52.6245 31.2144,-51.9086 31.5719,-51.21 31.9652,-50.5314 32.3585,-49.8529 32.787,-49.1953 33.249,-48.5615 33.711,-47.9277 34.2058,-47.3185 34.7314,-46.7364 35.257,-46.1542 35.8126,-45.6 36.3961,-45.0759 36.9796,-44.5518 37.5901,-44.0585 38.225,-43.5982 38.86,-43.1378 39.5186,-42.711 40.1982,-42.3194 40.8778,-41.9278 41.5773,-41.572 42.294,-41.2535 43.0108,-40.935 43.7436,-40.6542 44.4897,-40.4122 45.2357,-40.1702 45.9939,-39.9674 46.7611,-39.8046 47.5283,-39.6418 48.3035,-39.5192 49.0836,-39.4374 49.8636,-39.3555 50.6473,-39.3145 51.4316,-39.3145 52.2159,-39.3145 52.9997,-39.3555 53.7797,-39.4374 54.5597,-39.5192 55.335,-39.6418 56.1022,-39.8046 56.8694,-39.9674 57.6276,-40.1702 58.3736,-40.4122 59.1196,-40.6542 59.8525,-40.935 60.5692,-41.2535 61.2859,-41.5721 61.9855,-41.9278 62.6651,-42.3194 63.3446,-42.711 64.0032,-43.1378 64.6382,-43.5982 65.2732,-44.0585 65.8837,-44.5518 66.4672,-45.0759 67.0506,-45.6 67.6063,-46.1542 68.1319,-46.7364 68.1319,-46.7364 51.4316,-61.8145 51.4316,-61.8145"/>
<path fill="#ff3030" stroke="black" stroke-width="0.5" d="M51.4316,-61.8145C51.4316,-61.8145 68.1319,-46.7364 68.1319,-46.7364 68.5934,-47.2475 69.0311,-47.7795 69.4438,-48.3308 69.8565,-48.882 70.2436,-49.452 70.604,-50.0387 70.9644,-50.6255 71.2977,-51.2285 71.6028,-51.8459 71.9079,-52.4632 72.1845,-53.0943 72.4317,-53.737 72.6789,-54.3797 72.8965,-55.0334 73.0838,-55.6961 73.271,-56.3587 73.4278,-57.0297 73.5535,-57.7067 73.6792,-58.3837 73.7738,-59.0662 73.8369,-59.7519 73.9,-60.4376 73.9316,-61.1259 73.9316,-61.8145 73.9316,-61.8145 51.4316,-61.8145 51.4316,-61.8145"/>
<ellipse fill="none" stroke="black" cx="51.4316" cy="-61.8145" rx="22.5" ry="22.5"/>
</g>
<!-- 11 -->
<g id="node12" class="node"><title>11</title>
<ellipse fill="deepskyblue" stroke="black" cx="-10.6848" cy="-86.2773" rx="2.5" ry="2.5"/>
</g>
<!-- 5&#45;&gt;11 -->
<g id="edge26" class="edge"><title>5&#45;&gt;11</title>
<path fill="none" stroke="black" d="M30.4018,-70.0965C16.0418,-75.7518 -1.52236,-82.6689 -8.0653,-85.2457"/>
</g>
<!-- 121 -->
<g id="node90" class="node"><title>121</title>
<ellipse fill="#98f5ff" stroke="black" cx="92.7205" cy="-130.658" rx="2.5" ry="2.5"/>
</g>
<!-- 5&#45;&gt;121 -->
<g id="edge27" class="edge"><title>5&#45;&gt;121</title>
<path fill="none" stroke="black" d="M63.1529,-81.3582C73.2617,-98.2132 86.905,-120.962 91.2962,-128.283"/>
</g>
<!-- 6 -->
<g id="node7" class="node"><title>6</title>
<path fill="deepskyblue" stroke="black" stroke-width="0.5" d="M-0.105813,33.2562C-0.105813,33.2562 23.8942,33.2562 23.8942,33.2562 23.8942,32.1388 23.8161,31.0227 23.6606,29.9161 23.5051,28.8095 23.2725,27.7151 22.9645,26.6409 22.9645,26.6409 -0.105813,33.2562 -0.105813,33.2562"/>
<path fill="brown" stroke="black" stroke-width="0.5" d="M-0.105813,33.2562C-0.105813,33.2562 22.9645,26.6409 22.9645,26.6409 22.7744,25.9781 22.5559,25.3238 22.3095,24.6798 22.0631,24.0359 21.7891,23.4028 21.4881,22.7824 21.1872,22.162 20.8597,21.5549 20.5065,20.9627 20.1534,20.3705 19.7748,19.7938 19.372,19.2342 18.9691,18.6746 18.5423,18.1327 18.0928,17.6098 17.6433,17.087 17.1715,16.5838 16.6786,16.1015 16.1858,15.6193 15.6724,15.1586 15.1399,14.7206 14.6073,14.2826 14.0562,13.8677 13.4879,13.4772 12.9197,13.0866 12.3349,12.7208 11.7351,12.3806 11.1354,12.0404 10.5213,11.7262 9.89445,11.4389 9.26764,11.1516 8.62875,10.8915 7.97954,10.6592 7.33034,10.4269 6.67142,10.2227 6.00463,10.0471 5.33784,9.87157 4.6638,9.72483 3.98437,9.60732 3.30495,9.48981 2.62078,9.40164 1.93376,9.34304 1.24674,9.28444 0.557519,9.25548 -0.131992,9.25623 -0.821504,9.25699 -1.51066,9.28745 -2.19755,9.34755 -2.88444,9.40764 -3.56842,9.49731 -4.24758,9.6163 -4.92675,9.73529 -5.60047,9.8835 -6.26688,10.0605 -6.93328,10.2375 -7.59175,10.4431 -8.24045,10.6769 -8.88915,10.9106 -9.52747,11.1721 -10.1536,11.4608 -10.7798,11.7495 -11.3933,12.065 -11.9923,12.4065 -12.5913,12.748 -13.1753,13.1151 -13.7427,13.5069 -14.3101,13.8987 -14.8603,14.3147 -15.3919,14.7539 -15.9234,15.1931 -16.4358,15.6549 -16.9276,16.1382 -17.4194,16.6215 -17.8902,17.1257 -18.3385,17.6496 -18.7869,18.1734 -19.2125,18.7163 -19.6141,19.2768 -20.0158,19.8372 -20.393,20.4147 -20.7449,21.0077 -21.0968,21.6006 -21.423,22.2085 -21.7226,22.8295 -22.0221,23.4506 -22.2948,24.0842 -22.5398,24.7288 -22.7848,25.3733 -23.0019,26.0281 -23.1905,26.6913 -23.3791,27.3545 -23.539,28.0255 -23.6698,28.7025 -23.8007,29.3795 -23.9023,30.0618 -23.9743,30.7475 -24.0464,31.4333 -24.0889,32.1218 -24.1017,32.8112 -24.1145,33.5006 -24.0975,34.1902 -24.0509,34.8781 -24.0043,35.5661 -23.9281,36.2517 -23.8225,36.9331 -23.7169,37.6144 -23.5819,38.2909 -23.418,38.9607 -23.2541,39.6304 -23.0615,40.2928 -22.8405,40.946 -22.6196,41.5991 -22.3706,42.2425 -22.0943,42.8742 -21.818,43.5059 -21.5146,44.1254 -21.1849,44.731 -20.8553,45.3366 -20.4996,45.9277 -20.1191,46.5027 -19.7385,47.0777 -19.3333,47.636 -18.9047,48.1761 -18.4761,48.7162 -18.0243,49.2375 -17.5508,49.7387 -17.0773,50.2399 -16.5823,50.7204 -16.0674,51.179 -15.5525,51.6376 -15.0181,52.0738 -14.4656,52.4863 -13.9131,52.8989 -13.3431,53.2874 -12.7572,53.6509 -12.1713,54.0144 -11.5699,54.3524 -10.9549,54.6641 -10.3399,54.9758 -9.71168,55.2608 -9.07209,55.5184 -8.43251,55.776 -7.78212,56.0059 -7.12274,56.2075 -6.46335,56.4091 -5.79559,56.5822 -5.1213,56.7263 -4.44701,56.8704 -3.76683,56.9854 -3.08264,57.0709 -2.39846,57.1564 -1.7109,57.2124 -1.02189,57.2387 -0.332882,57.265 0.356942,57.2617 1.04566,57.2286 1.73438,57.1955 2.42135,57.1328 3.10466,57.0405 3.78798,56.9483 4.467,56.8266 5.13984,56.6759 5.81268,56.5252 6.47871,56.3456 7.13609,56.1375 7.79346,55.9295 8.44156,55.6932 9.07859,55.4293 9.71561,55.1655 10.341,54.8743 10.9529,54.5566 11.5649,54.2388 12.1628,53.8949 12.7452,53.5257 13.3275,53.1565 13.8937,52.7624 14.4421,52.3444 14.9905,51.9265 15.5206,51.4851 16.031,51.0215 16.5414,50.5579 17.0316,50.0725 17.5001,49.5667 17.9687,49.0608 18.4153,48.5351 18.8386,47.9908 19.262,47.4465 19.6616,46.8843 20.0365,46.3056 20.4114,45.7269 20.7612,45.1323 21.0849,44.5235 21.0849,44.5235 -0.105813,33.2562 -0.105813,33.2562"/>
<path fill="#ff3030" stroke="black" stroke-width="0.5" d="M-0.105813,33.2562C-0.105813,33.2562 21.0849,44.5235 21.0849,44.5235 21.5439,43.6603 21.9497,42.7698 22.3001,41.8571 22.6505,40.9443 22.9448,40.011 23.1813,39.0623 23.4178,38.1137 23.5961,37.1515 23.7153,36.1811 23.8344,35.2107 23.8942,34.2339 23.8942,33.2562 23.8942,33.2562 -0.105813,33.2562 -0.105813,33.2562"/>
<ellipse fill="none" stroke="black" cx="-0.105813" cy="33.2562" rx="24" ry="24"/>
</g>
<!-- 6&#45;&gt;1 -->
<g id="edge2" class="edge"><title>6&#45;&gt;1</title>
<path fill="none" stroke="black" d="M23.9437,30.2327C43.9679,27.7152 72.2804,24.1557 91.9191,21.6866"/>
<polygon fill="black" stroke="black" points="91.7848,19.9398 96.9641,21.0524 92.2214,23.4125 91.7848,19.9398"/>
<text text-anchor="middle" x="85.6134" y="21.8225" font-family="monospace" font-size="14.00">I1868T</text>
</g>
<!-- 6&#45;&gt;2 -->
<g id="edge7" class="edge"><title>6&#45;&gt;2</title>
<path fill="none" stroke="black" d="M14.9202,14.5062C24.3338,2.75975 36.1383,-11.9703 44.0505,-21.8435"/>
<polygon fill="black" stroke="black" points="42.6925,-22.9473 47.1849,-25.7546 45.4237,-20.7585 42.6925,-22.9473"/>
<text text-anchor="middle" x="6.00537" y="5.63471" font-family="monospace" font-size="14.00">A1934V</text>
</g>
<!-- 6&#45;&gt;3 -->
<g id="edge11" class="edge"><title>6&#45;&gt;3</title>
<path fill="none" stroke="black" d="M-22.7576,24.9885C-41.9765,17.9738 -69.6533,7.87205 -90.4065,0.297336"/>
<polygon fill="black" stroke="black" points="-91.1594,1.88551 -95.2563,-1.47281 -89.9593,-1.40234 -91.1594,1.88551"/>
<text text-anchor="middle" x="-58.802" y="23.0327" font-family="monospace" font-size="14.00">N1570Y</text>
</g>
<!-- 6&#45;&gt;4 -->
<g id="edge20" class="edge"><title>6&#45;&gt;4</title>
<path fill="none" stroke="black" d="M18.0214,49.3098C32.4065,62.0493 52.1692,79.5512 65.0243,90.9358"/>
<polygon fill="black" stroke="black" points="66.1956,89.6354 68.7785,94.2605 63.8751,92.2556 66.1956,89.6354"/>
<text text-anchor="middle" x="68.2688" y="82.869" font-family="monospace" font-size="14.00">P1874S</text>
</g>
<!-- 6&#45;&gt;5 -->
<g id="edge25" class="edge"><title>6&#45;&gt;5</title>
<path fill="none" stroke="black" d="M11.332,12.1569C19.2332,-2.41834 29.7701,-21.8557 38.0599,-37.1477"/>
<polygon fill="black" stroke="black" points="36.6336,-38.1888 40.555,-41.7505 39.7106,-36.5208 36.6336,-38.1888"/>
<text text-anchor="middle" x="0.861098" y="-18.4447" font-family="monospace" font-size="14.00">P1874L</text>
</g>
<!-- 7 -->
<g id="node8" class="node"><title>7</title>
<ellipse fill="#ff3030" stroke="black" cx="20.0775" cy="79.6777" rx="6.5" ry="6.5"/>
</g>
<!-- 6&#45;&gt;7 -->
<g id="edge28" class="edge"><title>6&#45;&gt;7</title>
<path fill="none" stroke="black" d="M9.51296,55.3793C11.569,60.1081 13.6512,64.8973 15.4174,68.9594"/>
<polygon fill="black" stroke="black" points="17.0708,68.3734 17.4596,73.6565 13.861,69.7689 17.0708,68.3734"/>
<text text-anchor="middle" x="-11.5021" y="75.7446" font-family="monospace" font-size="14.00">K1603T</text>
</g>
<!-- 14 -->
<g id="node15" class="node"><title>14</title>
<ellipse fill="#ff3030" stroke="black" cx="-70.2777" cy="75.9525" rx="5" ry="5"/>
</g>
<!-- 6&#45;&gt;14 -->
<g id="edge29" class="edge"><title>6&#45;&gt;14</title>
<path fill="none" stroke="black" d="M-20.7802,45.8356C-34.2603,54.0376 -51.1756,64.3298 -61.3346,70.5111"/>
<polygon fill="black" stroke="black" points="-60.5533,72.0841 -65.7344,73.1881 -62.3726,69.0941 -60.5533,72.0841"/>
<text text-anchor="middle" x="-68.3102" y="55.744" font-family="monospace" font-size="14.00">I1940T</text>
</g>
<!-- 15 -->
<g id="node16" class="node"><title>15</title>
<path fill="#98f5ff" stroke="black" stroke-width="0.5" d="M-37.6494,117.298C-37.6494,117.298 -33.1494,117.298 -33.1494,117.298 -33.1494,117.101 -33.1623,116.905 -33.1879,116.71 -33.2135,116.516 -33.2519,116.323 -33.3027,116.133 -33.3536,115.943 -33.4168,115.757 -33.4919,115.576 -33.5671,115.394 -33.6541,115.218 -33.7523,115.048 -33.8505,114.878 -33.9597,114.714 -34.0793,114.558 -34.1989,114.403 -34.3285,114.255 -34.4674,114.116 -34.6063,113.977 -34.7541,113.847 -34.91,113.728 -35.0658,113.608 -35.2293,113.499 -35.3994,113.401 -35.5695,113.302 -35.7459,113.216 -35.9273,113.14 -36.1088,113.065 -36.295,113.002 -36.4847,112.951 -36.6744,112.9 -36.8673,112.862 -37.062,112.836 -37.2568,112.811 -37.453,112.798 -37.6494,112.798 -37.8458,112.798 -38.042,112.811 -38.2368,112.836 -38.4315,112.862 -38.6244,112.9 -38.8141,112.951 -39.0038,113.002 -39.19,113.065 -39.3715,113.14 -39.5529,113.216 -39.7293,113.302 -39.8994,113.401 -39.8994,113.401 -37.6494,117.298 -37.6494,117.298"/>
<path fill="#ff3030" stroke="black" stroke-width="0.5" d="M-37.6494,117.298C-37.6494,117.298 -39.8994,113.401 -39.8994,113.401 -40.0695,113.499 -40.233,113.608 -40.3888,113.728 -40.5447,113.847 -40.6925,113.977 -40.8314,114.116 -40.9703,114.255 -41.0999,114.403 -41.2195,114.558 -41.3391,114.714 -41.4483,114.878 -41.5465,115.048 -41.6447,115.218 -41.7317,115.394 -41.8069,115.576 -41.882,115.757 -41.9452,115.943 -41.9961,116.133 -42.0469,116.323 -42.0853,116.516 -42.1109,116.71 -42.1365,116.905 -42.1494,117.101 -42.1494,117.298 -42.1494,117.494 -42.1365,117.69 -42.1109,117.885 -42.0853,118.08 -42.0469,118.273 -41.9961,118.462 -41.9452,118.652 -41.882,118.838 -41.8069,119.02 -41.7317,119.201 -41.6447,119.378 -41.5465,119.548 -41.4483,119.718 -41.3391,119.881 -41.2195,120.037 -41.0999,120.193 -40.9703,120.341 -40.8314,120.48 -40.6925,120.619 -40.5447,120.748 -40.3888,120.868 -40.233,120.987 -40.0695,121.097 -39.8994,121.195 -39.7293,121.293 -39.5529,121.38 -39.3715,121.455 -39.19,121.53 -39.0038,121.594 -38.8141,121.644 -38.6244,121.695 -38.4315,121.734 -38.2368,121.759 -38.042,121.785 -37.8458,121.798 -37.6494,121.798 -37.453,121.798 -37.2568,121.785 -37.062,121.759 -36.8673,121.734 -36.6744,121.695 -36.4847,121.644 -36.295,121.594 -36.1088,121.53 -35.9273,121.455 -35.7459,121.38 -35.5695,121.293 -35.3994,121.195 -35.2293,121.097 -35.0658,120.987 -34.91,120.868 -34.7541,120.748 -34.6063,120.619 -34.4674,120.48 -34.3285,120.341 -34.1989,120.193 -34.0793,120.037 -33.9597,119.881 -33.8505,119.718 -33.7523,119.548 -33.6541,119.378 -33.5671,119.201 -33.4919,119.02 -33.4168,118.838 -33.3536,118.652 -33.3027,118.462 -33.2519,118.273 -33.2135,118.08 -33.1879,117.885 -33.1623,117.69 -33.1494,117.494 -33.1494,117.298 -33.1494,117.298 -37.6494,117.298 -37.6494,117.298"/>
<ellipse fill="none" stroke="black" cx="-37.6494" cy="117.298" rx="4.5" ry="4.5"/>
</g>
<!-- 6&#45;&gt;15 -->
<g id="edge30" class="edge"><title>6&#45;&gt;15</title>
<path fill="none" stroke="black" d="M-9.96995,55.3372C-17.726,72.6991 -28.1232,95.9733 -33.7075,108.474"/>
<polygon fill="black" stroke="black" points="-32.1471,109.272 -35.7844,113.123 -35.3428,107.844 -32.1471,109.272"/>
<text text-anchor="middle" x="-43.8529" y="95.3758" font-family="monospace" font-size="14.00">T791M</text>
</g>
<!-- 18 -->
<g id="node19" class="node"><title>18</title>
<ellipse fill="#ff3030" stroke="black" cx="-38.793" cy="5.61756" rx="4.5" ry="4.5"/>
</g>
<!-- 6&#45;&gt;18 -->
<g id="edge31" class="edge"><title>6&#45;&gt;18</title>
<path fill="none" stroke="black" d="M-19.9027,19.113C-23.7091,16.3937 -27.4921,13.6911 -30.6617,11.4267"/>
<polygon fill="black" stroke="black" points="-32.0016,12.6202 -35.0528,8.28964 -29.967,9.77226 -32.0016,12.6202"/>
<text text-anchor="middle" x="-52.5285" y="9.86505" font-family="monospace" font-size="14.00">N1345I</text>
</g>
<!-- 20 -->
<g id="node21" class="node"><title>20</title>
<path fill="#98f5ff" stroke="black" stroke-width="0.5" d="M14.6839,117.725C14.6839,117.725 22.1839,117.725 22.1839,117.725 22.1839,117.289 22.1458,116.853 22.07,116.423 21.9942,115.993 21.881,115.57 21.7316,115.16 21.5823,114.75 21.3974,114.353 21.1791,113.975 20.9608,113.597 20.7099,113.239 20.4293,112.904 20.1486,112.57 19.8393,112.261 19.5048,111.98 19.1704,111.699 18.8121,111.448 18.4339,111.23 18.0558,111.012 17.6594,110.827 17.2491,110.678 16.8388,110.528 16.4163,110.415 15.9863,110.339 15.5563,110.263 15.1206,110.225 14.6839,110.225 14.2473,110.225 13.8116,110.263 13.3816,110.339 12.9516,110.415 12.5291,110.528 12.1188,110.678 11.7085,110.827 11.3121,111.012 10.9339,111.23 10.5558,111.448 10.1975,111.699 9.86303,111.98 9.52857,112.261 9.21926,112.57 8.93861,112.904 8.65796,113.239 8.40706,113.597 8.18875,113.975 7.97045,114.353 7.78558,114.75 7.63625,115.16 7.63625,115.16 14.6839,117.725 14.6839,117.725"/>
<path fill="deepskyblue" stroke="black" stroke-width="0.5" d="M14.6839,117.725C14.6839,117.725 7.63625,115.16 7.63625,115.16 7.44952,115.673 7.31937,116.205 7.24811,116.746 7.17684,117.288 7.1649,117.835 7.21248,118.379 7.26007,118.923 7.36689,119.46 7.53106,119.981 7.69524,120.501 7.91577,121.002 8.18875,121.475 8.46173,121.948 8.78552,122.39 9.15436,122.792 9.5232,123.195 9.9349,123.556 10.3821,123.869 10.8293,124.182 11.3094,124.445 11.8138,124.654 12.3182,124.863 12.8439,125.017 13.3816,125.111 13.9192,125.206 14.4657,125.242 15.0111,125.218 15.5565,125.194 16.0977,125.111 16.6251,124.97 17.1524,124.828 17.6628,124.63 18.1471,124.378 18.6313,124.126 19.0866,123.822 19.5048,123.471 19.9231,123.12 20.3017,122.724 20.6341,122.291 20.9664,121.858 21.2505,121.39 21.4813,120.895 21.712,120.4 21.888,119.882 22.0062,119.349 22.1243,118.816 22.1839,118.271 22.1839,117.725 22.1839,117.725 14.6839,117.725 14.6839,117.725"/>
<ellipse fill="none" stroke="black" cx="14.6839" cy="117.725" rx="7.5" ry="7.5"/>
</g>
<!-- 6&#45;&gt;20 -->
<g id="edge32" class="edge"><title>6&#45;&gt;20</title>
<path fill="none" stroke="black" d="M4.09278,57.2357C6.81812,72.801 10.2607,92.4626 12.4676,105.067"/>
<polygon fill="black" stroke="black" points="14.249,105.095 13.3876,110.322 10.8015,105.698 14.249,105.095"/>
<text text-anchor="middle" x="8.75075" y="95.0389" font-family="monospace" font-size="14.00">E1597G</text>
</g>
<!-- 22 -->
<g id="node23" class="node"><title>22</title>
<path fill="#98f5ff" stroke="black" stroke-width="0.5" d="M66.5608,35.0596C66.5608,35.0596 75.5608,35.0596 75.5608,35.0596 75.5608,34.6063 75.5265,34.1536 75.4583,33.7055 75.3901,33.2573 75.2881,32.8149 75.1533,32.3821 75.0184,31.9493 74.851,31.5273 74.6526,31.1197 74.4541,30.7122 74.2251,30.3201 73.9676,29.9471 73.7101,29.574 73.4248,29.2209 73.114,28.8908 72.8033,28.5607 72.4681,28.2546 72.1112,27.975 71.7544,27.6954 71.3769,27.4432 70.9821,27.2205 70.5872,26.9978 70.1761,26.8053 69.7522,26.6445 69.3283,26.4837 68.8929,26.3553 68.4497,26.2601 68.0065,26.165 67.5567,26.1034 67.1042,26.0761 66.6517,26.0487 66.1977,26.0556 65.7463,26.0966 65.2948,26.1376 64.8471,26.2127 64.4069,26.3212 63.9668,26.4297 63.5354,26.5713 63.1166,26.7447 62.6978,26.9182 62.2927,27.1231 61.9047,27.3576 61.5168,27.5921 61.1471,27.8556 60.7988,28.1459 60.4506,28.4361 60.1248,28.7522 59.8242,29.0915 59.8242,29.0915 66.5608,35.0596 66.5608,35.0596"/>
<path fill="deepskyblue" stroke="black" stroke-width="0.5" d="M66.5608,35.0596C66.5608,35.0596 59.8242,29.0915 59.8242,29.0915 59.5837,29.363 59.3599,29.6487 59.1539,29.9471 58.9479,30.2455 58.7602,30.5561 58.5917,30.8771 58.4231,31.1982 58.2742,31.5292 58.1456,31.8682 58.017,32.2072 57.9091,32.5537 57.8223,32.9058 57.7355,33.2579 57.6701,33.6149 57.6264,33.9748 57.5827,34.3348 57.5608,34.697 57.5608,35.0596 57.5608,35.4223 57.5827,35.7845 57.6264,36.1445 57.6701,36.5044 57.7355,36.8614 57.8223,37.2135 57.9091,37.5656 58.017,37.9121 58.1456,38.2511 58.2742,38.5901 58.4231,38.9211 58.5917,39.2422 58.7602,39.5632 58.9479,39.8738 59.1539,40.1722 59.3599,40.4706 59.5837,40.7563 59.8242,41.0278 60.0646,41.2992 60.3212,41.5558 60.5927,41.7962 60.8641,42.0367 61.1498,42.2605 61.4482,42.4665 61.7466,42.6725 62.0572,42.8602 62.3783,43.0288 62.6993,43.1973 63.0303,43.3462 63.3693,43.4748 63.7084,43.6034 64.0549,43.7113 64.4069,43.7981 64.759,43.8849 65.116,43.9503 65.4759,43.994 65.8359,44.0377 66.1982,44.0596 66.5608,44.0596 66.9234,44.0596 67.2856,44.0377 67.6456,43.994 68.0056,43.9503 68.3625,43.8849 68.7146,43.7981 69.0667,43.7113 69.4132,43.6034 69.7522,43.4748 70.0912,43.3462 70.4222,43.1973 70.7433,43.0288 71.0643,42.8602 71.3749,42.6725 71.6733,42.4665 71.9718,42.2605 72.2575,42.0367 72.5289,41.7962 72.8003,41.5558 73.0569,41.2992 73.2974,41.0278 73.5378,40.7563 73.7616,40.4706 73.9676,40.1722 74.1736,39.8738 74.3614,39.5632 74.5299,39.2422 74.6984,38.9211 74.8473,38.5901 74.9759,38.2511 75.1045,37.9121 75.2125,37.5656 75.2992,37.2135 75.386,36.8614 75.4514,36.5044 75.4951,36.1445 75.5389,35.7845 75.5608,35.4223 75.5608,35.0596 75.5608,35.0596 66.5608,35.0596 66.5608,35.0596"/>
<ellipse fill="none" stroke="black" cx="66.5608" cy="35.0596" rx="9" ry="9"/>
</g>
<!-- 6&#45;&gt;22 -->
<g id="edge33" class="edge"><title>6&#45;&gt;22</title>
<path fill="none" stroke="black" d="M23.9624,33.9073C33.417,34.1631 43.952,34.448 52.1797,34.6706"/>
<polygon fill="black" stroke="black" points="52.5148,32.929 57.4657,34.8136 52.4201,36.4277 52.5148,32.929"/>
<text text-anchor="middle" x="65.7889" y="45.5625" font-family="monospace" font-size="14.00">V1853I</text>
</g>
<!-- 26 -->
<g id="node26" class="node"><title>26</title>
<ellipse fill="deepskyblue" stroke="black" cx="-14.4386" cy="73.0155" rx="2.5" ry="2.5"/>
</g>
<!-- 6&#45;&gt;26 -->
<g id="edge34" class="edge"><title>6&#45;&gt;26</title>
<path fill="none" stroke="black" d="M-8.27701,55.9232C-9.53118,59.4023 -10.7435,62.7652 -11.7561,65.5742"/>
<polygon fill="black" stroke="black" points="-10.1617,66.3119 -13.5037,70.4221 -13.4543,65.1249 -10.1617,66.3119"/>
<text text-anchor="middle" x="6.14219" y="59.2824" font-family="monospace" font-size="14.00">P55L</text>
</g>
<!-- 31 -->
<g id="node31" class="node"><title>31</title>
<ellipse fill="deepskyblue" stroke="black" cx="-39.3241" cy="52.5492" rx="2.5" ry="2.5"/>
</g>
<!-- 6&#45;&gt;31 -->
<g id="edge35" class="edge"><title>6&#45;&gt;31</title>
<path fill="none" stroke="black" d="M-22.0082,44.0309C-25.5086,45.7528 -28.9101,47.4262 -31.7584,48.8274"/>
<polygon fill="black" stroke="black" points="-31.4233,50.6128 -36.6823,51.2496 -32.9683,47.4722 -31.4233,50.6128"/>
<text text-anchor="middle" x="-54.234" y="43.7855" font-family="monospace" font-size="14.00">V1303A</text>
</g>
<!-- 97 -->
<g id="node80" class="node"><title>97</title>
<ellipse fill="brown" stroke="black" cx="-52.3886" cy="28.3792" rx="2.5" ry="2.5"/>
</g>
<!-- 6&#45;&gt;97 -->
<g id="edge38" class="edge"><title>6&#45;&gt;97</title>
<path fill="none" stroke="black" d="M-24.1049,31.0175C-34.1984,30.076 -44.7206,29.0945 -49.5984,28.6395"/>
</g>
<!-- 98 -->
<g id="node81" class="node"><title>98</title>
<ellipse fill="brown" stroke="black" cx="-27.6198" cy="-51.8675" rx="4.5" ry="4.5"/>
</g>
<!-- 6&#45;&gt;98 -->
<g id="edge39" class="edge"><title>6&#45;&gt;98</title>
<path fill="none" stroke="black" d="M-7.62412,9.99578C-14.0521,-9.89142 -22.7856,-36.9114 -26.1841,-47.4256"/>
</g>
<!-- 103 -->
<g id="node82" class="node"><title>103</title>
<ellipse fill="brown" stroke="black" cx="45.0438" cy="60.7896" rx="5.5" ry="5.5"/>
</g>
<!-- 6&#45;&gt;103 -->
<g id="edge40" class="edge"><title>6&#45;&gt;103</title>
<path fill="none" stroke="black" d="M20.619,45.8947C27.8517,50.3054 35.3394,54.8716 40.0856,57.7659"/>
</g>
<!-- 104 -->
<g id="node83" class="node"><title>104</title>
<ellipse fill="brown" stroke="black" cx="39.6005" cy="22.7972" rx="2.5" ry="2.5"/>
</g>
<!-- 6&#45;&gt;104 -->
<g id="edge41" class="edge"><title>6&#45;&gt;104</title>
<path fill="none" stroke="black" d="M23.4504,27.0513C29.0614,25.5733 34.2632,24.2031 37.1765,23.4357"/>
</g>
<!-- anon_6_44_0 -->
<g id="node93" class="node"><title>anon_6_44_0</title>
<ellipse fill="white" stroke="black" cx="10.2796" cy="-6.41232" rx="1" ry="1"/>
</g>
<!-- 6&#45;&gt;anon_6_44_0 -->
<g id="edge36" class="edge"><title>6&#45;&gt;anon_6_44_0</title>
<path fill="none" stroke="black" d="M6.05543,9.72239C7.73266,3.31596 9.27012,-2.5566 9.93402,-5.09248"/>
</g>
<!-- 8 -->
<g id="node9" class="node"><title>8</title>
<ellipse fill="deepskyblue" stroke="black" cx="-41.9191" cy="247.477" rx="2.5" ry="2.5"/>
</g>
<!-- 13 -->
<g id="node14" class="node"><title>13</title>
<path fill="#98f5ff" stroke="black" stroke-width="0.5" d="M-34.5861,187.452C-34.5861,187.452 -21.5861,187.452 -21.5861,187.452 -21.5861,186.994 -21.6104,186.536 -21.6587,186.08 -21.7071,185.624 -21.7795,185.172 -21.8757,184.724 -21.9718,184.276 -22.0917,183.833 -22.2346,183.398 -22.3775,182.962 -22.5433,182.535 -22.7314,182.117 -22.9195,181.699 -23.1295,181.291 -23.3607,180.895 -23.5918,180.5 -23.8437,180.117 -24.1153,179.747 -24.3868,179.378 -24.6778,179.024 -24.9868,178.685 -25.2958,178.347 -25.6225,178.025 -25.9655,177.721 -26.3085,177.418 -26.6674,177.132 -27.0405,176.866 -27.4137,176.6 -27.8007,176.354 -28.1998,176.129 -28.599,175.904 -29.0097,175.7 -29.4304,175.518 -29.8511,175.336 -30.2811,175.177 -30.7186,175.041 -31.1561,174.904 -31.6005,174.791 -32.0499,174.702 -32.4994,174.612 -32.9533,174.547 -33.4096,174.505 -33.866,174.464 -34.3243,174.447 -34.7825,174.454 -35.2407,174.46 -35.6982,174.492 -36.1531,174.547 -36.1531,174.547 -34.5861,187.452 -34.5861,187.452"/>
<path fill="deepskyblue" stroke="black" stroke-width="0.5" d="M-34.5861,187.452C-34.5861,187.452 -36.1531,174.547 -36.1531,174.547 -36.7706,174.622 -37.3819,174.741 -37.9824,174.904 -38.5828,175.066 -39.1708,175.271 -39.7418,175.518 -40.3129,175.765 -40.8655,176.052 -41.3953,176.378 -41.9252,176.704 -42.431,177.067 -42.9089,177.465 -43.3867,177.864 -43.8354,178.296 -44.2514,178.758 -44.6674,179.221 -45.0496,179.712 -45.3952,180.23 -45.7408,180.747 -46.0488,181.288 -46.3169,181.85 -46.585,182.411 -46.8124,182.991 -46.9975,183.585 -47.1825,184.178 -47.3247,184.785 -47.423,185.399 -47.5212,186.013 -47.5752,186.634 -47.5846,187.256 -47.594,187.878 -47.5588,188.5 -47.4791,189.116 -47.3995,189.733 -47.2757,190.344 -47.1086,190.943 -46.9416,191.542 -46.7318,192.129 -46.4808,192.698 -46.2298,193.267 -45.9382,193.817 -45.6084,194.345 -45.2786,194.872 -44.9114,195.375 -44.5096,195.85 -44.1077,196.325 -43.6723,196.77 -43.2067,197.183 -42.7411,197.595 -42.2465,197.974 -41.7267,198.315 -41.2069,198.657 -40.6632,198.961 -40.0999,199.225 -39.5366,199.489 -38.9551,199.712 -38.3598,199.892 -37.7646,200.073 -37.1571,200.21 -36.5422,200.304 -35.9272,200.398 -35.3063,200.447 -34.6843,200.452 -34.0623,200.456 -33.4407,200.416 -32.8244,200.332 -32.2081,200.248 -31.5987,200.119 -31.0007,199.948 -30.4028,199.776 -29.818,199.562 -29.2508,199.307 -28.6835,199.051 -28.1353,198.756 -27.6104,198.422 -27.0855,198.088 -26.5853,197.717 -26.1135,197.312 -25.6417,196.906 -25.1996,196.468 -24.7907,195.999 -24.3817,195.53 -24.0069,195.033 -23.6692,194.51 -23.3314,193.988 -23.0316,193.442 -22.7721,192.877 -22.5125,192.312 -22.2938,191.728 -22.1178,191.132 -21.9417,190.535 -21.8087,189.927 -21.7197,189.311 -21.6308,188.695 -21.5861,188.074 -21.5861,187.452 -21.5861,187.452 -34.5861,187.452 -34.5861,187.452"/>
<ellipse fill="none" stroke="black" cx="-34.5861" cy="187.452" rx="13" ry="13"/>
</g>
<!-- 8&#45;&gt;13 -->
<g id="edge42" class="edge"><title>8&#45;&gt;13</title>
<path fill="none" stroke="black" d="M-41.604,244.898C-40.6829,237.358 -37.9484,214.975 -36.1773,200.477"/>
</g>
<!-- 17 -->
<g id="node18" class="node"><title>17</title>
<ellipse fill="#ff3030" stroke="black" cx="-118.626" cy="89.4158" rx="2.5" ry="2.5"/>
</g>
<!-- 14&#45;&gt;17 -->
<g id="edge44" class="edge"><title>14&#45;&gt;17</title>
<path fill="none" stroke="black" d="M-75.4518,77.3934C-84.086,79.7977 -101.456,84.6346 -111.329,87.384"/>
<polygon fill="black" stroke="black" points="-110.867,89.0718 -116.153,88.7273 -111.806,85.7001 -110.867,89.0718"/>
<text text-anchor="middle" x="-117.049" y="79.3291" font-family="monospace" font-size="14.00">M704V</text>
</g>
<!-- 29 -->
<g id="node29" class="node"><title>29</title>
<ellipse fill="#ff3030" stroke="black" cx="-98.4968" cy="120.662" rx="2.5" ry="2.5"/>
</g>
<!-- 14&#45;&gt;29 -->
<g id="edge45" class="edge"><title>14&#45;&gt;29</title>
<path fill="none" stroke="black" d="M-73.0867,80.4029C-78.9975,89.768 -92.5445,111.231 -97.0267,118.333"/>
</g>
<!-- 15&#45;&gt;13 -->
<g id="edge43" class="edge"><title>15&#45;&gt;13</title>
<path fill="none" stroke="black" d="M-37.4484,121.901C-37.037,131.322 -36.0793,153.255 -35.3848,169.161"/>
<polygon fill="black" stroke="black" points="-33.6304,169.226 -35.1605,174.298 -37.127,169.379 -33.6304,169.226"/>
<text text-anchor="middle" x="-61.3073" y="144.234" font-family="monospace" font-size="14.00">A1746S</text>
</g>
<!-- anon_15_21_0 -->
<g id="node94" class="node"><title>anon_15_21_0</title>
<ellipse fill="white" stroke="black" cx="-74.6614" cy="150.948" rx="1" ry="1"/>
</g>
<!-- 15&#45;&gt;anon_15_21_0 -->
<g id="edge46" class="edge"><title>15&#45;&gt;anon_15_21_0</title>
<path fill="none" stroke="black" d="M-41.0651,120.403C-49.0824,127.692 -68.7916,145.611 -73.5936,149.977"/>
</g>
<!-- 16 -->
<g id="node17" class="node"><title>16</title>
<ellipse fill="#ff3030" stroke="black" cx="135.545" cy="-103.273" rx="2.5" ry="2.5"/>
</g>
<!-- 32 -->
<g id="node32" class="node"><title>32</title>
<ellipse fill="deepskyblue" stroke="black" cx="42.6723" cy="165.697" rx="2.5" ry="2.5"/>
</g>
<!-- 20&#45;&gt;32 -->
<g id="edge48" class="edge"><title>20&#45;&gt;32</title>
<path fill="none" stroke="black" d="M18.5756,124.396C24.9443,135.311 37.2902,156.472 41.3459,163.423"/>
</g>
<!-- 35 -->
<g id="node35" class="node"><title>35</title>
<ellipse fill="deepskyblue" stroke="black" cx="2.98145" cy="172.279" rx="2.5" ry="2.5"/>
</g>
<!-- 20&#45;&gt;35 -->
<g id="edge49" class="edge"><title>20&#45;&gt;35</title>
<path fill="none" stroke="black" d="M13.0568,125.311C10.3939,137.724 5.23185,161.788 3.53606,169.693"/>
</g>
<!-- 21 -->
<g id="node22" class="node"><title>21</title>
<ellipse fill="deepskyblue" stroke="black" cx="-106.906" cy="185.43" rx="2.5" ry="2.5"/>
</g>
<!-- 28 -->
<g id="node28" class="node"><title>28</title>
<ellipse fill="#ff3030" stroke="black" cx="-147.32" cy="-159.036" rx="2.5" ry="2.5"/>
</g>
<!-- 30 -->
<g id="node30" class="node"><title>30</title>
<ellipse fill="#ff3030" stroke="black" cx="-106.68" cy="-152.964" rx="2.5" ry="2.5"/>
</g>
<!-- 28&#45;&gt;30 -->
<g id="edge50" class="edge"><title>28&#45;&gt;30</title>
<path fill="none" stroke="black" d="M-144.654,-158.638C-138.627,-157.737 -123.765,-155.517 -114.523,-154.136"/>
<polygon fill="black" stroke="black" points="-114.096,-155.842 -109.41,-153.372 -114.613,-152.38 -114.096,-155.842"/>
<text text-anchor="middle" x="-152.065" y="-144.81" font-family="monospace" font-size="14.00">N1570Y</text>
</g>
<!-- 44 -->
<g id="node39" class="node"><title>44</title>
<ellipse fill="deepskyblue" stroke="black" cx="28.0487" cy="-45.7979" rx="2.5" ry="2.5"/>
</g>
<!-- 45 -->
<g id="node40" class="node"><title>45</title>
<path fill="#1874cd" stroke="black" stroke-width="0.5" d="M217.662,-218.98C217.662,-218.98 250.662,-218.98 250.662,-218.98 250.662,-219.912 250.622,-220.844 250.544,-221.773 250.465,-222.701 250.346,-223.627 250.189,-224.545 250.032,-225.464 249.836,-226.376 249.602,-227.278 249.367,-228.181 249.095,-229.073 248.785,-229.952 248.475,-230.831 248.128,-231.697 247.744,-232.546 247.361,-233.396 246.942,-234.229 246.488,-235.044 246.034,-235.858 245.546,-236.653 245.025,-237.426 244.504,-238.199 243.951,-238.949 243.366,-239.675 242.781,-240.401 242.166,-241.102 241.522,-241.776 240.878,-242.45 240.206,-243.097 239.507,-243.714 238.809,-244.331 238.084,-244.918 237.336,-245.474 236.587,-246.03 235.815,-246.554 235.023,-247.044 234.23,-247.534 233.417,-247.991 232.585,-248.413 231.754,-248.834 230.905,-249.22 230.041,-249.57 229.177,-249.92 228.298,-250.233 227.407,-250.508 226.517,-250.783 225.615,-251.021 224.704,-251.22 223.793,-251.419 222.875,-251.579 221.95,-251.7 221.026,-251.821 220.097,-251.903 219.166,-251.945 218.234,-251.988 217.302,-251.991 216.37,-251.954 215.439,-251.918 214.509,-251.842 213.584,-251.727 212.659,-251.612 211.739,-251.457 210.827,-251.264 209.915,-251.071 209.012,-250.84 208.12,-250.57 207.227,-250.3 206.347,-249.993 205.48,-249.649 204.614,-249.305 203.762,-248.924 202.928,-248.508 202.094,-248.092 201.278,-247.64 200.482,-247.155 199.686,-246.67 198.911,-246.151 198.159,-245.6 197.407,-245.049 196.679,-244.467 195.976,-243.854 195.273,-243.241 194.597,-242.599 193.949,-241.929 193.3,-241.259 192.681,-240.562 192.092,-239.84 191.502,-239.118 190.944,-238.371 190.418,-237.601 189.892,-236.832 189.399,-236.04 188.94,-235.229 188.481,-234.417 188.056,-233.587 187.667,-232.739 187.279,-231.892 186.926,-231.029 186.611,-230.152 186.295,-229.274 186.017,-228.384 185.776,-227.484 185.536,-226.583 185.334,-225.672 185.171,-224.754 185.008,-223.837 184.884,-222.912 184.799,-221.984 184.714,-221.056 184.669,-220.124 184.663,-219.192 184.657,-218.26 184.69,-217.328 184.763,-216.398 184.836,-215.469 184.948,-214.543 185.1,-213.623 185.251,-212.703 185.441,-211.79 185.67,-210.887 185.898,-209.983 186.165,-209.089 186.47,-208.208 186.774,-207.327 187.115,-206.459 187.493,-205.607 187.871,-204.755 188.285,-203.919 188.733,-203.101 189.182,-202.284 189.665,-201.486 190.181,-200.71 190.697,-199.934 191.246,-199.18 191.826,-198.45 192.405,-197.72 193.016,-197.015 193.656,-196.337 194.295,-195.659 194.963,-195.008 195.658,-194.386 196.353,-193.765 197.074,-193.173 197.819,-192.612 198.563,-192.052 199.332,-191.523 200.121,-191.028 200.911,-190.532 201.721,-190.07 202.55,-189.643 203.379,-189.216 204.225,-188.825 205.087,-188.47 205.949,-188.114 206.825,-187.796 207.714,-187.515 208.603,-187.234 209.503,-186.991 210.413,-186.786 211.322,-186.581 212.24,-186.415 213.164,-186.288 214.087,-186.161 215.016,-186.073 215.946,-186.024 216.877,-185.976 217.81,-185.967 218.742,-185.997 219.673,-186.028 220.603,-186.098 221.529,-186.207 222.455,-186.316 223.376,-186.465 224.289,-186.652 225.202,-186.839 226.107,-187.065 227.001,-187.329 227.895,-187.593 228.778,-187.894 229.646,-188.233 230.515,-188.571 231.369,-188.947 232.206,-189.357 233.042,-189.768 233.861,-190.214 234.66,-190.695 235.459,-191.175 236.238,-191.689 236.993,-192.235 237.749,-192.781 238.481,-193.359 239.187,-193.967 239.187,-193.967 217.662,-218.98 217.662,-218.98"/>
<path fill="olivedrab" stroke="black" stroke-width="0.5" d="M217.662,-218.98C217.662,-218.98 239.187,-193.967 239.187,-193.967 240.084,-194.738 240.939,-195.558 241.748,-196.421 242.556,-197.285 243.318,-198.191 244.029,-199.136 244.741,-200.082 245.401,-201.064 246.007,-202.081 246.612,-203.097 247.163,-204.145 247.656,-205.22 248.15,-206.295 248.585,-207.396 248.96,-208.518 249.335,-209.64 249.649,-210.782 249.902,-211.938 250.154,-213.093 250.344,-214.262 250.471,-215.438 250.598,-216.614 250.662,-217.797 250.662,-218.98 250.662,-218.98 217.662,-218.98 217.662,-218.98"/>
<ellipse fill="none" stroke="black" cx="217.662" cy="-218.98" rx="33" ry="33"/>
</g>
<!-- 50 -->
<g id="node45" class="node"><title>50</title>
<ellipse fill="#1874cd" stroke="black" cx="276.914" cy="-231.56" rx="2.5" ry="2.5"/>
</g>
<!-- 45&#45;&gt;50 -->
<g id="edge51" class="edge"><title>45&#45;&gt;50</title>
<path fill="none" stroke="black" d="M250.062,-225.859C260.22,-228.016 269.94,-230.08 274.387,-231.024"/>
</g>
<!-- 51 -->
<g id="node46" class="node"><title>51</title>
<ellipse fill="#1874cd" stroke="black" cx="185.086" cy="-128.363" rx="2.5" ry="2.5"/>
</g>
<!-- 45&#45;&gt;51 -->
<g id="edge52" class="edge"><title>45&#45;&gt;51</title>
<path fill="none" stroke="black" d="M206.451,-187.795C198.648,-166.088 189.117,-139.576 186.071,-131.103"/>
</g>
<!-- 57 -->
<g id="node52" class="node"><title>57</title>
<ellipse fill="#1874cd" stroke="black" cx="172.117" cy="-293.148" rx="2.5" ry="2.5"/>
</g>
<!-- 45&#45;&gt;57 -->
<g id="edge53" class="edge"><title>45&#45;&gt;57</title>
<path fill="none" stroke="black" d="M200.183,-247.443C189.748,-264.437 177.742,-283.988 173.607,-290.722"/>
</g>
<!-- 61 -->
<g id="node55" class="node"><title>61</title>
<ellipse fill="#1874cd" stroke="black" cx="168.102" cy="-251.347" rx="2.5" ry="2.5"/>
</g>
<!-- 45&#45;&gt;61 -->
<g id="edge54" class="edge"><title>45&#45;&gt;61</title>
<path fill="none" stroke="black" d="M189.984,-237.056C181.825,-242.385 174.09,-247.436 170.385,-249.856"/>
</g>
<!-- 66 -->
<g id="node57" class="node"><title>66</title>
<ellipse fill="#1874cd" stroke="black" cx="132.836" cy="-183.921" rx="2.5" ry="2.5"/>
</g>
<!-- 45&#45;&gt;66 -->
<g id="edge55" class="edge"><title>45&#45;&gt;66</title>
<path fill="none" stroke="black" d="M187.038,-206.323C166.917,-198.006 142.95,-188.101 135.306,-184.942"/>
</g>
<!-- 70 -->
<g id="node59" class="node"><title>70</title>
<ellipse fill="#1874cd" stroke="black" cx="293.117" cy="-174.6" rx="2.5" ry="2.5"/>
</g>
<!-- 45&#45;&gt;70 -->
<g id="edge56" class="edge"><title>45&#45;&gt;70</title>
<path fill="none" stroke="black" d="M246.188,-202.202C263.55,-191.991 283.679,-180.151 290.617,-176.07"/>
</g>
<!-- 72 -->
<g id="node61" class="node"><title>72</title>
<ellipse fill="#1874cd" stroke="black" cx="156.919" cy="-159.133" rx="2.5" ry="2.5"/>
</g>
<!-- 45&#45;&gt;72 -->
<g id="edge57" class="edge"><title>45&#45;&gt;72</title>
<path fill="none" stroke="black" d="M194.003,-195.67C180.145,-182.017 164.325,-166.43 158.879,-161.065"/>
</g>
<!-- 74 -->
<g id="node62" class="node"><title>74</title>
<ellipse fill="#1874cd" stroke="black" cx="239.597" cy="-127.927" rx="2.5" ry="2.5"/>
</g>
<!-- 45&#45;&gt;74 -->
<g id="edge58" class="edge"><title>45&#45;&gt;74</title>
<path fill="none" stroke="black" d="M225.395,-186.878C230.625,-165.169 236.932,-138.988 238.946,-130.629"/>
</g>
<!-- 80 -->
<g id="node68" class="node"><title>80</title>
<ellipse fill="#1874cd" stroke="black" cx="127.295" cy="-220.144" rx="2.5" ry="2.5"/>
</g>
<!-- 45&#45;&gt;80 -->
<g id="edge60" class="edge"><title>45&#45;&gt;80</title>
<path fill="none" stroke="black" d="M184.526,-219.407C163.168,-219.682 137.936,-220.007 129.893,-220.11"/>
</g>
<!-- 81 -->
<g id="node69" class="node"><title>81</title>
<ellipse fill="#1874cd" stroke="black" cx="311.948" cy="-208.001" rx="3.5" ry="3.5"/>
</g>
<!-- 45&#45;&gt;81 -->
<g id="edge61" class="edge"><title>45&#45;&gt;81</title>
<path fill="none" stroke="black" d="M250.639,-215.14C272.517,-212.592 298.884,-209.522 308.349,-208.42"/>
</g>
<!-- 88 -->
<g id="node74" class="node"><title>88</title>
<ellipse fill="#1874cd" stroke="black" cx="249.049" cy="-284.978" rx="3.5" ry="3.5"/>
</g>
<!-- 45&#45;&gt;88 -->
<g id="edge64" class="edge"><title>45&#45;&gt;88</title>
<path fill="none" stroke="black" d="M231.886,-248.889C238.115,-261.986 244.654,-275.738 247.535,-281.795"/>
</g>
<!-- 93 -->
<g id="node77" class="node"><title>93</title>
<ellipse fill="#1874cd" stroke="black" cx="300.61" cy="-273.936" rx="2.5" ry="2.5"/>
</g>
<!-- 45&#45;&gt;93 -->
<g id="edge65" class="edge"><title>45&#45;&gt;93</title>
<path fill="none" stroke="black" d="M245.283,-237.279C265.642,-250.768 291.034,-267.591 298.471,-272.519"/>
</g>
<!-- 96 -->
<g id="node79" class="node"><title>96</title>
<ellipse fill="#1874cd" stroke="black" cx="272.837" cy="-146.871" rx="2.5" ry="2.5"/>
</g>
<!-- 45&#45;&gt;96 -->
<g id="edge66" class="edge"><title>45&#45;&gt;96</title>
<path fill="none" stroke="black" d="M237.894,-192.538C248.693,-178.425 261.115,-162.191 267.854,-153.383"/>
<polygon fill="black" stroke="black" points="269.603,-153.978 271.251,-148.944 266.823,-151.851 269.603,-153.978"/>
<text text-anchor="middle" x="233.644" y="-174.447" font-family="monospace" font-size="14.00">A837V</text>
</g>
<!-- 116 -->
<g id="node85" class="node"><title>116</title>
<ellipse fill="olivedrab" stroke="black" cx="132.102" cy="-264.265" rx="2.5" ry="2.5"/>
</g>
<!-- 45&#45;&gt;116 -->
<g id="edge67" class="edge"><title>45&#45;&gt;116</title>
<path fill="none" stroke="black" d="M188.217,-234.565C167.722,-245.413 142.689,-258.662 134.689,-262.896"/>
</g>
<!-- anon_45_83_0 -->
<g id="node95" class="node"><title>anon_45_83_0</title>
<ellipse fill="white" stroke="black" cx="215.305" cy="-315.046" rx="1" ry="1"/>
</g>
<!-- 45&#45;&gt;anon_45_83_0 -->
<g id="edge62" class="edge"><title>45&#45;&gt;anon_45_83_0</title>
<path fill="none" stroke="black" d="M216.851,-252.04C216.254,-276.355 215.518,-306.358 215.343,-313.479"/>
</g>
<!-- 47 -->
<g id="node42" class="node"><title>47</title>
<ellipse fill="#1874cd" stroke="black" cx="233.94" cy="101.376" rx="15" ry="15"/>
</g>
<!-- 82 -->
<g id="node70" class="node"><title>82</title>
<ellipse fill="#1874cd" stroke="black" cx="229.379" cy="40.1807" rx="2.5" ry="2.5"/>
</g>
<!-- 47&#45;&gt;82 -->
<g id="edge70" class="edge"><title>47&#45;&gt;82</title>
<path fill="none" stroke="black" d="M232.813,86.2488C231.715,71.525 230.134,50.3152 229.58,42.8792"/>
</g>
<!-- 87 -->
<g id="node73" class="node"><title>87</title>
<ellipse fill="#1874cd" stroke="black" cx="177.073" cy="88.8061" rx="2.5" ry="2.5"/>
</g>
<!-- 47&#45;&gt;87 -->
<g id="edge71" class="edge"><title>47&#45;&gt;87</title>
<path fill="none" stroke="black" d="M218.999,98.0731C205.573,95.1054 186.921,90.9828 179.898,89.4305"/>
</g>
<!-- 90 -->
<g id="node75" class="node"><title>90</title>
<ellipse fill="#1874cd" stroke="black" cx="204.642" cy="155.25" rx="2.5" ry="2.5"/>
</g>
<!-- 47&#45;&gt;90 -->
<g id="edge72" class="edge"><title>47&#45;&gt;90</title>
<path fill="none" stroke="black" d="M226.698,114.693C219.649,127.656 209.494,146.328 205.934,152.875"/>
</g>
<!-- 48 -->
<g id="node43" class="node"><title>48</title>
<ellipse fill="#1874cd" stroke="black" cx="336.675" cy="121.931" rx="6" ry="6"/>
</g>
<!-- 53 -->
<g id="node48" class="node"><title>53</title>
<ellipse fill="#1874cd" stroke="black" cx="362.238" cy="168.788" rx="6" ry="6"/>
</g>
<!-- 48&#45;&gt;53 -->
<g id="edge73" class="edge"><title>48&#45;&gt;53</title>
<path fill="none" stroke="black" d="M339.608,127.306C343.807,135.003 351.604,149.296 356.857,158.925"/>
<polygon fill="black" stroke="black" points="358.481,158.248 359.34,163.475 355.409,159.924 358.481,158.248"/>
<text text-anchor="middle" x="328.311" y="141.293" font-family="monospace" font-size="14.00">G317S</text>
</g>
<!-- 64 -->
<g id="node56" class="node"><title>64</title>
<ellipse fill="#1874cd" stroke="black" cx="373.721" cy="89.8478" rx="2.5" ry="2.5"/>
</g>
<!-- 48&#45;&gt;64 -->
<g id="edge74" class="edge"><title>48&#45;&gt;64</title>
<path fill="none" stroke="black" d="M341.218,117.997C349.255,111.036 365.689,96.8038 371.569,91.7114"/>
</g>
<!-- anon_47_48_0 -->
<g id="node96" class="node"><title>anon_47_48_0</title>
<ellipse fill="white" stroke="black" cx="290.331" cy="113.821" rx="1" ry="1"/>
</g>
<!-- 48&#45;&gt;anon_47_48_0 -->
<g id="edge69" class="edge"><title>48&#45;&gt;anon_47_48_0</title>
<path fill="none" stroke="black" d="M330.617,120.871C321.772,119.323 305.41,116.46 296.502,114.901"/>
<polygon fill="black" stroke="black" points="296.17,116.619 291.547,114.034 296.774,113.172 296.17,116.619"/>
<text text-anchor="middle" x="285.926" y="113.625" font-family="monospace" font-size="14.00">I1940T</text>
</g>
<!-- 49 -->
<g id="node44" class="node"><title>49</title>
<ellipse fill="#1874cd" stroke="black" cx="249.032" cy="-82.5566" rx="2.5" ry="2.5"/>
</g>
<!-- 56 -->
<g id="node51" class="node"><title>56</title>
<path fill="#1874cd" stroke="black" stroke-width="0.5" d="M274.776,-36.8898C274.776,-36.8898 282.776,-36.8898 282.776,-36.8898 282.776,-37.2565 282.75,-37.6227 282.7,-37.9859 282.65,-38.3491 282.575,-38.7084 282.475,-39.0613 282.376,-39.4142 282.252,-39.7598 282.105,-40.0958 281.958,-40.4317 281.788,-40.7571 281.597,-41.0698 281.405,-41.3824 281.192,-41.6815 280.96,-41.9649 280.727,-42.2484 280.475,-42.5155 280.206,-42.7644 279.937,-43.0133 279.651,-43.2433 279.35,-43.453 279.049,-43.6627 278.734,-43.8514 278.408,-44.0178 278.081,-44.1843 277.743,-44.3281 277.397,-44.4482 277.05,-44.5684 276.696,-44.6645 276.336,-44.7361 275.977,-44.8076 275.613,-44.8543 275.247,-44.8759 274.881,-44.8975 274.514,-44.8939 274.148,-44.8651 273.782,-44.8364 273.419,-44.7825 273.061,-44.7039 272.703,-44.6253 272.351,-44.5222 272.007,-44.3953 271.663,-44.2684 271.328,-44.118 271.004,-43.9452 270.681,-43.7723 270.37,-43.5774 270.073,-43.3619 269.777,-43.1464 269.495,-42.9107 269.231,-42.6566 268.967,-42.4025 268.72,-42.1305 268.493,-41.8425 268.266,-41.5546 268.059,-41.2514 267.874,-40.935 267.688,-40.6187 267.525,-40.29 267.385,-39.9513 267.244,-39.6125 267.127,-39.2645 267.035,-38.9097 266.942,-38.5549 266.874,-38.1942 266.831,-37.8301 266.788,-37.466 266.77,-37.0993 266.777,-36.7327 266.784,-36.3661 266.817,-36.0005 266.874,-35.6383 266.932,-35.2762 267.014,-34.9184 267.12,-34.5675 267.227,-34.2166 267.357,-33.8735 267.511,-33.5405 267.664,-33.2075 267.84,-32.8855 268.038,-32.5767 268.236,-32.2679 268.454,-31.973 268.692,-31.6942 268.931,-31.4154 269.188,-31.1533 269.462,-30.9097 269.736,-30.6662 270.026,-30.4417 270.331,-30.238 270.636,-30.0343 270.954,-29.8518 271.284,-29.6918 271.614,-29.5318 271.955,-29.3946 272.304,-29.2813 272.304,-29.2813 274.776,-36.8898 274.776,-36.8898"/>
<path fill="olivedrab" stroke="black" stroke-width="0.5" d="M274.776,-36.8898C274.776,-36.8898 272.304,-29.2813 272.304,-29.2813 272.602,-29.1842 272.907,-29.1048 273.215,-29.0435 273.523,-28.9822 273.835,-28.9391 274.148,-28.9144 274.461,-28.8898 274.776,-28.8836 275.09,-28.896 275.404,-28.9083 275.717,-28.9391 276.027,-28.9883 276.338,-29.0374 276.645,-29.1048 276.947,-29.1901 277.25,-29.2754 277.547,-29.3785 277.837,-29.4988 278.127,-29.619 278.41,-29.7563 278.685,-29.9098 278.959,-30.0634 279.224,-30.2329 279.478,-30.4177 279.732,-30.6024 279.975,-30.8019 280.206,-31.0152 280.437,-31.2285 280.655,-31.4552 280.859,-31.6942 281.063,-31.9332 281.253,-32.1839 281.427,-32.4452 281.602,-32.7065 281.761,-32.9779 281.904,-33.2579 282.046,-33.5379 282.172,-33.826 282.281,-34.1209 282.39,-34.4157 282.481,-34.7167 282.555,-35.0222 282.628,-35.3278 282.683,-35.6374 282.72,-35.9495 282.757,-36.2616 282.776,-36.5755 282.776,-36.8898 282.776,-36.8898 274.776,-36.8898 274.776,-36.8898"/>
<ellipse fill="none" stroke="black" cx="274.776" cy="-36.8898" rx="8" ry="8"/>
</g>
<!-- 49&#45;&gt;56 -->
<g id="edge75" class="edge"><title>49&#45;&gt;56</title>
<path fill="none" stroke="black" d="M250.274,-80.354C253.93,-73.8688 264.772,-54.6365 270.734,-44.0598"/>
</g>
<!-- 52 -->
<g id="node47" class="node"><title>52</title>
<path fill="#1874cd" stroke="black" stroke-width="0.5" d="M339.229,-14.9418C339.229,-14.9418 349.229,-14.9418 349.229,-14.9418 349.229,-15.5531 349.173,-16.1631 349.062,-16.7642 348.951,-17.3652 348.784,-17.9548 348.565,-18.5255 348.346,-19.0962 348.075,-19.6456 347.756,-20.1668 347.436,-20.688 347.07,-21.1788 346.661,-21.6331 346.252,-22.0874 345.802,-22.5032 345.317,-22.8753 344.832,-23.2475 344.314,-23.5743 343.769,-23.8519 343.225,-24.1294 342.656,-24.3564 342.07,-24.53 341.484,-24.7036 340.883,-24.8231 340.275,-24.887 339.667,-24.9509 339.054,-24.9589 338.445,-24.911 337.835,-24.863 337.232,-24.7593 336.641,-24.6011 336.051,-24.4428 335.476,-24.2308 334.924,-23.9677 334.373,-23.7045 333.846,-23.3913 333.352,-23.032 332.857,-22.6727 332.397,-22.2688 331.976,-21.8253 331.555,-21.3819 331.176,-20.9009 330.843,-20.3882 330.51,-19.8755 330.225,-19.3334 329.991,-18.7686 329.757,-18.2039 329.575,-17.6189 329.448,-17.0209 329.448,-17.0209 339.229,-14.9418 339.229,-14.9418"/>
<path fill="olivedrab" stroke="black" stroke-width="0.5" d="M339.229,-14.9418C339.229,-14.9418 329.448,-17.0209 329.448,-17.0209 329.303,-16.3374 329.229,-15.6406 329.229,-14.9418 329.229,-14.243 329.303,-13.5462 329.448,-12.8627 329.593,-12.1792 329.81,-11.5128 330.094,-10.8744 330.378,-10.2361 330.729,-9.62927 331.139,-9.06395 331.55,-8.49863 332.019,-7.97792 332.538,-7.51035 333.057,-7.04279 333.624,-6.63093 334.229,-6.28155 334.835,-5.93216 335.475,-5.64717 336.139,-5.43124 336.804,-5.21531 337.489,-5.06962 338.184,-4.99658 338.879,-4.92354 339.58,-4.92354 340.275,-4.99658 340.97,-5.06962 341.655,-5.21531 342.32,-5.43124 342.984,-5.64717 343.624,-5.93216 344.229,-6.28155 344.835,-6.63093 345.401,-7.04279 345.921,-7.51035 346.44,-7.97792 346.909,-8.49863 347.32,-9.06395 347.73,-9.62927 348.081,-10.2361 348.365,-10.8744 348.649,-11.5128 348.866,-12.1792 349.011,-12.8627 349.156,-13.5462 349.229,-14.243 349.229,-14.9418 349.229,-14.9418 339.229,-14.9418 339.229,-14.9418"/>
<ellipse fill="none" stroke="black" cx="339.229" cy="-14.9418" rx="10" ry="10"/>
</g>
<!-- 54 -->
<g id="node49" class="node"><title>54</title>
<ellipse fill="#1874cd" stroke="black" cx="339.774" cy="45.9884" rx="4.5" ry="4.5"/>
</g>
<!-- 52&#45;&gt;54 -->
<g id="edge76" class="edge"><title>52&#45;&gt;54</title>
<path fill="none" stroke="black" d="M339.319,-4.88042C339.439,8.5046 339.645,31.6147 339.733,41.3994"/>
</g>
<!-- 52&#45;&gt;56 -->
<g id="edge77" class="edge"><title>52&#45;&gt;56</title>
<path fill="none" stroke="black" d="M329.719,-18.1803C318.566,-21.9782 300.027,-28.291 287.608,-32.5201"/>
<polygon fill="black" stroke="black" points="286.868,-30.9233 282.699,-34.1917 287.996,-34.2365 286.868,-30.9233"/>
<text text-anchor="middle" x="280.935" y="-15.0792" font-family="monospace" font-size="14.00">F1920S</text>
</g>
<!-- 67 -->
<g id="node58" class="node"><title>67</title>
<ellipse fill="#1874cd" stroke="black" cx="376.519" cy="-58.0967" rx="2.5" ry="2.5"/>
</g>
<!-- 52&#45;&gt;67 -->
<g id="edge78" class="edge"><title>52&#45;&gt;67</title>
<path fill="none" stroke="black" d="M346.069,-22.8571C354.816,-32.9796 369.451,-49.9167 374.632,-55.9122"/>
</g>
<!-- 115 -->
<g id="node84" class="node"><title>115</title>
<ellipse fill="olivedrab" stroke="black" cx="335.696" cy="-68.4501" rx="2.5" ry="2.5"/>
</g>
<!-- 52&#45;&gt;115 -->
<g id="edge79" class="edge"><title>52&#45;&gt;115</title>
<path fill="none" stroke="black" d="M338.548,-25.2587C337.864,-35.6221 336.825,-51.3578 336.208,-60.7008"/>
<polygon fill="black" stroke="black" points="334.455,-60.6921 335.872,-65.7966 337.947,-60.9228 334.455,-60.6921"/>
<text text-anchor="middle" x="316.234" y="-48.9571" font-family="monospace" font-size="14.00">R537L</text>
</g>
<!-- 117 -->
<g id="node86" class="node"><title>117</title>
<ellipse fill="olivedrab" stroke="black" cx="303.422" cy="23.1368" rx="2.5" ry="2.5"/>
</g>
<!-- 52&#45;&gt;117 -->
<g id="edge80" class="edge"><title>52&#45;&gt;117</title>
<path fill="none" stroke="black" d="M332.325,-7.59986C325.456,-0.295101 315.06,10.7603 308.787,17.4309"/>
<polygon fill="black" stroke="black" points="309.897,18.8048 305.197,21.2485 307.348,16.4071 309.897,18.8048"/>
<text text-anchor="middle" x="293.747" y="3.03918" font-family="monospace" font-size="14.00">H1755Y</text>
</g>
<!-- 118 -->
<g id="node87" class="node"><title>118</title>
<ellipse fill="olivedrab" stroke="black" cx="395.282" cy="-17.8368" rx="2.5" ry="2.5"/>
</g>
<!-- 52&#45;&gt;118 -->
<g id="edge81" class="edge"><title>52&#45;&gt;118</title>
<path fill="none" stroke="black" d="M349.251,-15.4594C362.35,-16.136 384.551,-17.2826 392.416,-17.6888"/>
</g>
<!-- 120 -->
<g id="node89" class="node"><title>120</title>
<ellipse fill="olivedrab" stroke="black" cx="379.232" cy="23.7625" rx="2.5" ry="2.5"/>
</g>
<!-- 52&#45;&gt;120 -->
<g id="edge82" class="edge"><title>52&#45;&gt;120</title>
<path fill="none" stroke="black" d="M346.566,-7.84283C354.337,-0.324641 366.439,11.385 373.526,18.2419"/>
<polygon fill="black" stroke="black" points="374.83,17.0689 377.207,21.8033 372.396,19.5842 374.83,17.0689"/>
<text text-anchor="middle" x="340.673" y="17.9731" font-family="monospace" font-size="14.00">K251R</text>
</g>
<!-- 55 -->
<g id="node50" class="node"><title>55</title>
<ellipse fill="#1874cd" stroke="black" cx="-36.0171" cy="-110.015" rx="2.5" ry="2.5"/>
</g>
<!-- 91 -->
<g id="node76" class="node"><title>91</title>
<ellipse fill="#1874cd" stroke="black" cx="-5.11686" cy="-148.603" rx="2.5" ry="2.5"/>
</g>
<!-- 55&#45;&gt;91 -->
<g id="edge85" class="edge"><title>55&#45;&gt;91</title>
<path fill="none" stroke="black" d="M-34.3558,-112.09C-29.0406,-118.727 -12.4769,-139.412 -6.94014,-146.326"/>
</g>
<!-- 55&#45;&gt;98 -->
<g id="edge86" class="edge"><title>55&#45;&gt;98</title>
<path fill="none" stroke="black" d="M-35.6563,-107.516C-34.3629,-98.5604 -29.9473,-67.9841 -28.2717,-56.3819"/>
</g>
<!-- anon_55_76_0 -->
<g id="node97" class="node"><title>anon_55_76_0</title>
<ellipse fill="white" stroke="black" cx="-52.6575" cy="-152.806" rx="1" ry="1"/>
</g>
<!-- 55&#45;&gt;anon_55_76_0 -->
<g id="edge83" class="edge"><title>55&#45;&gt;anon_55_76_0</title>
<path fill="none" stroke="black" d="M-37.0082,-112.564C-40.1428,-120.624 -49.7734,-145.39 -52.132,-151.455"/>
</g>
<!-- 119 -->
<g id="node88" class="node"><title>119</title>
<ellipse fill="olivedrab" stroke="black" cx="227.038" cy="-14.1159" rx="2.5" ry="2.5"/>
</g>
<!-- 56&#45;&gt;119 -->
<g id="edge87" class="edge"><title>56&#45;&gt;119</title>
<path fill="none" stroke="black" d="M267.317,-33.3314C256.408,-28.1272 236.636,-18.6946 229.605,-15.3403"/>
</g>
<!-- 58 -->
<g id="node53" class="node"><title>58</title>
<ellipse fill="#1874cd" stroke="black" cx="340.678" cy="-295.594" rx="2.5" ry="2.5"/>
</g>
<!-- 58&#45;&gt;93 -->
<g id="edge88" class="edge"><title>58&#45;&gt;93</title>
<path fill="none" stroke="black" d="M338.049,-294.173C330.667,-290.183 309.836,-278.923 302.894,-275.171"/>
</g>
<!-- 59 -->
<g id="node54" class="node"><title>59</title>
<ellipse fill="#1874cd" stroke="black" cx="58.9955" cy="-174.45" rx="8.5" ry="8.5"/>
</g>
<!-- 71 -->
<g id="node60" class="node"><title>71</title>
<ellipse fill="#1874cd" stroke="black" cx="58.2477" cy="-127.282" rx="2.5" ry="2.5"/>
</g>
<!-- 59&#45;&gt;71 -->
<g id="edge89" class="edge"><title>59&#45;&gt;71</title>
<path fill="none" stroke="black" d="M58.8583,-165.799C58.6863,-154.948 58.4007,-136.932 58.2918,-130.061"/>
</g>
<!-- anon_59_85_0 -->
<g id="node98" class="node"><title>anon_59_85_0</title>
<ellipse fill="white" stroke="black" cx="69.2079" cy="-219.013" rx="1" ry="1"/>
</g>
<!-- 59&#45;&gt;anon_59_85_0 -->
<g id="edge90" class="edge"><title>59&#45;&gt;anon_59_85_0</title>
<path fill="none" stroke="black" d="M60.9645,-183.042C63.5612,-194.373 67.925,-213.415 68.9754,-217.999"/>
</g>
<!-- 75 -->
<g id="node63" class="node"><title>75</title>
<ellipse fill="#1874cd" stroke="black" cx="-53.8885" cy="-241.556" rx="2.5" ry="2.5"/>
</g>
<!-- 76 -->
<g id="node64" class="node"><title>76</title>
<ellipse fill="#1874cd" stroke="black" cx="-54.4395" cy="-197.572" rx="2.5" ry="2.5"/>
</g>
<!-- 75&#45;&gt;76 -->
<g id="edge92" class="edge"><title>75&#45;&gt;76</title>
<path fill="none" stroke="black" d="M-53.9213,-238.937C-54.0195,-231.095 -54.3105,-207.874 -54.4075,-200.123"/>
</g>
<!-- 79 -->
<g id="node67" class="node"><title>79</title>
<ellipse fill="#1874cd" stroke="black" cx="210.694" cy="-156.94" rx="2.5" ry="2.5"/>
</g>
<!-- 79&#45;&gt;45 -->
<g id="edge59" class="edge"><title>79&#45;&gt;45</title>
<path fill="none" stroke="black" d="M210.993,-159.606C211.45,-163.676 212.378,-171.932 213.399,-181.026"/>
<polygon fill="black" stroke="black" points="211.677,-181.37 213.974,-186.143 215.155,-180.979 211.677,-181.37"/>
<text text-anchor="middle" x="191.481" y="-161.648" font-family="monospace" font-size="14.00">R254K</text>
</g>
<!-- 83 -->
<g id="node71" class="node"><title>83</title>
<ellipse fill="#1874cd" stroke="black" cx="215.133" cy="-359.244" rx="2.5" ry="2.5"/>
</g>
<!-- 85 -->
<g id="node72" class="node"><title>85</title>
<ellipse fill="#1874cd" stroke="black" cx="85.5489" cy="-255.255" rx="2.5" ry="2.5"/>
</g>
<!-- 98&#45;&gt;9 -->
<g id="edge93" class="edge"><title>98&#45;&gt;9</title>
<path fill="none" stroke="black" stroke-dasharray="5,2" d="M-32.2826,-52.0326C-40.255,-52.3149 -56.5957,-52.8935 -66.4341,-53.2418"/>
<polygon fill="black" stroke="black" points="-66.6517,-51.4984 -71.5866,-53.4243 -66.5278,-54.9962 -66.6517,-51.4984"/>
<text text-anchor="middle" x="-76.6271" y="-41.5176" font-family="monospace" font-size="14.00">N1570Y</text>
</g>
<!-- 98&#45;&gt;11 -->
<g id="edge94" class="edge"><title>98&#45;&gt;11</title>
<path fill="none" stroke="black" stroke-dasharray="5,2" d="M-25.5432,-56.0868C-22.7279,-61.8072 -17.6592,-72.1062 -14.234,-79.0658"/>
<polygon fill="black" stroke="black" points="-15.6069,-80.2393 -11.8289,-83.9527 -12.4667,-78.6938 -15.6069,-80.2393"/>
<text text-anchor="middle" x="-43.768" y="-73.6533" font-family="monospace" font-size="14.00">P1874L</text>
</g>
<!-- 98&#45;&gt;33 -->
<g id="edge95" class="edge"><title>98&#45;&gt;33</title>
<path fill="none" stroke="black" stroke-dasharray="5,2" d="M-23.3953,-54.1127C-16.0335,-58.0251 -0.795779,-66.1233 8.05306,-70.8261"/>
<polygon fill="black" stroke="black" points="7.37306,-72.4465 12.6096,-73.2477 9.01564,-69.3558 7.37306,-72.4465"/>
<text text-anchor="middle" x="-5.48643" y="-52.4304" font-family="monospace" font-size="14.00">A1934V</text>
</g>
<!-- anon_2_16_0&#45;&gt;16 -->
<g id="edge9" class="edge"><title>anon_2_16_0&#45;&gt;16</title>
<path fill="none" stroke="black" d="M100.887,-73.1209C105.505,-77.1379 127.003,-95.8418 133.609,-101.589"/>
</g>
<!-- anon_6_44_0&#45;&gt;44 -->
<g id="edge37" class="edge"><title>anon_6_44_0&#45;&gt;44</title>
<path fill="none" stroke="black" d="M10.7188,-7.3859C12.6307,-11.6237 20.3317,-28.6931 24.7983,-38.5933"/>
<polygon fill="black" stroke="black" points="23.2383,-39.391 26.8897,-43.2289 26.4286,-37.9516 23.2383,-39.391"/>
<text text-anchor="middle" x="39.753" y="-13.9937" font-family="monospace" font-size="14.00">P940H</text>
</g>
<!-- anon_15_21_0&#45;&gt;21 -->
<g id="edge47" class="edge"><title>anon_15_21_0&#45;&gt;21</title>
<path fill="none" stroke="black" d="M-75.4585,151.8C-78.9934,155.581 -93.4337,171.023 -101.46,179.607"/>
<polygon fill="black" stroke="black" points="-100.457,181.095 -105.15,183.552 -103.013,178.705 -100.457,181.095"/>
<text text-anchor="middle" x="-115.15" y="163.712" font-family="monospace" font-size="14.00">L1366F</text>
</g>
<!-- anon_45_83_0&#45;&gt;83 -->
<g id="edge63" class="edge"><title>anon_45_83_0&#45;&gt;83</title>
<path fill="none" stroke="black" d="M215.3,-316.139C215.278,-321.775 215.178,-347.637 215.144,-356.361"/>
</g>
<!-- anon_47_48_0&#45;&gt;47 -->
<g id="edge68" class="edge"><title>anon_47_48_0&#45;&gt;47</title>
<path fill="none" stroke="black" d="M289.352,113.605C285.106,112.668 267.856,108.861 253.717,105.74"/>
<polygon fill="black" stroke="black" points="253.183,107.415 248.678,104.628 253.938,103.997 253.183,107.415"/>
<text text-anchor="middle" x="248.083" y="120.331" font-family="monospace" font-size="14.00">D466H</text>
</g>
<!-- anon_55_76_0&#45;&gt;76 -->
<g id="edge84" class="edge"><title>anon_55_76_0&#45;&gt;76</title>
<path fill="none" stroke="black" d="M-52.7016,-153.913C-52.9288,-159.622 -53.9715,-185.817 -54.3233,-194.653"/>
</g>
<!-- anon_59_85_0&#45;&gt;85 -->
<g id="edge91" class="edge"><title>anon_59_85_0&#45;&gt;85</title>
<path fill="none" stroke="black" d="M69.9101,-220.57C72.4514,-226.207 81.1871,-245.581 84.3737,-252.649"/>
</g>
</g>
</svg>
