<?xml version="1.0" encoding="UTF-8" standalone="no"?>
<!DOCTYPE svg PUBLIC "-//W3C//DTD SVG 1.1//EN"
 "http://www.w3.org/Graphics/SVG/1.1/DTD/svg11.dtd">
<!-- Generated by graphviz version 2.38.0 (20140413.2041)
 -->
<!-- Title: %3 Pages: 1 -->
<svg width="345pt" height="357pt"
 viewBox="0.00 0.00 345.15 357.26" xmlns="http://www.w3.org/2000/svg" xmlns:xlink="http://www.w3.org/1999/xlink">
<g id="graph0" class="graph" transform="scale(1 1) rotate(0) translate(117.998 181.718)">
<title>%3</title>
<polygon fill="white" stroke="none" points="-117.998,175.541 -117.998,-181.718 227.149,-181.718 227.149,175.541 -117.998,175.541"/>
<!-- 0 -->
<g id="node1" class="node"><title>0</title>
<path fill="olivedrab" stroke="black" stroke-width="0.5" d="M46.6879,13.4039C46.6879,13.4039 79.1879,13.4039 79.1879,13.4039 79.1879,12.2482 79.1263,11.0932 79.0032,9.94406 78.8802,8.79488 78.6959,7.65308 78.4513,6.52353 78.2066,5.39398 77.9018,4.27828 77.5383,3.1812 77.1748,2.08412 76.753,1.00721 76.2747,-0.0449436 75.7965,-1.09709 75.2624,-2.12298 74.6749,-3.11824 74.0873,-4.11349 73.4471,-5.0767 72.7569,-6.00375 72.0668,-6.9308 71.3276,-7.82038 70.5427,-8.66869 69.7578,-9.517 68.9281,-10.3228 68.0574,-11.0828 68.0574,-11.0828 46.6879,13.4039 46.6879,13.4039"/>
<path fill="#1874cd" stroke="black" stroke-width="0.5" d="M46.6879,13.4039C46.6879,13.4039 68.0574,-11.0828 68.0574,-11.0828 67.3648,-11.6872 66.6468,-12.262 65.9055,-12.8055 65.1642,-13.3491 64.4001,-13.861 63.6154,-14.3398 62.8306,-14.8186 62.0259,-15.2639 61.2035,-15.6744 60.381,-16.085 59.5414,-16.4605 58.6871,-16.7999 57.8328,-17.1393 56.9645,-17.4423 56.0845,-17.7081 55.2045,-17.9738 54.3136,-18.2022 53.4142,-18.3924 52.5149,-18.5827 51.6078,-18.7347 50.6956,-18.8481 49.7833,-18.9614 48.8667,-19.036 47.9481,-19.0717 47.0295,-19.1073 46.1099,-19.104 45.1916,-19.0616 44.2733,-19.0193 43.3572,-18.938 42.4458,-18.8181 41.5344,-18.6981 40.6285,-18.5395 39.7306,-18.3427 38.8326,-18.1459 37.9434,-17.9111 37.0654,-17.6389 36.1873,-17.3667 35.3212,-17.0574 34.4694,-16.7118 33.6176,-16.3662 32.7808,-15.9846 31.9613,-15.5681 31.1418,-15.1516 30.3404,-14.7004 29.5592,-14.2159 28.778,-13.7315 28.0176,-13.214 27.2803,-12.6651 26.5429,-12.1162 25.8292,-11.5362 25.141,-10.9267 24.4528,-10.3173 23.7908,-9.67888 23.1567,-9.0133 22.5226,-8.34771 21.9171,-7.65553 21.3417,-6.93861 20.7663,-6.22169 20.2216,-5.48068 19.709,-4.71758 19.1964,-3.95448 18.7165,-3.16998 18.2704,-2.36619 17.8244,-1.5624 17.4126,-0.740045 17.0363,0.0986534 16.6599,0.937351 16.3193,1.79164 16.0154,2.65921 15.7115,3.52678 15.4446,4.40686 15.2152,5.29707 14.9859,6.18727 14.7945,7.08681 14.6415,7.99324 14.4884,8.89968 14.3739,9.8122 14.2982,10.7283 14.2226,11.6445 14.1858,12.5634 14.188,13.4827 14.1902,14.4019 14.2315,15.3207 14.3116,16.2365 14.3917,17.1522 14.5106,18.0642 14.6681,18.9699 14.8255,19.8755 15.0213,20.7741 15.2549,21.6632 15.4885,22.5523 15.7598,23.4311 16.0679,24.2972 16.376,25.1633 16.7207,26.0159 17.1011,26.8528 17.4815,27.6896 17.8973,28.51 18.3472,29.3116 18.7972,30.1132 19.2809,30.8954 19.7972,31.656 20.3134,32.4166 20.8617,33.1549 21.4406,33.8691 22.0195,34.5832 22.6283,35.2724 23.2656,35.9349 23.9029,36.5974 24.568,37.2326 25.2592,37.8387 25.9503,38.4448 26.6669,39.0213 27.4069,39.5667 28.1469,40.1121 28.9097,40.6258 29.6933,41.1065 30.4769,41.5872 31.2805,42.0344 32.1019,42.447 32.9234,42.8595 33.7621,43.2371 34.6155,43.5785 35.469,43.92 36.3366,44.2251 37.216,44.493 38.0953,44.7609 38.9857,44.9914 39.8846,45.1838 40.7835,45.3763 41.6901,45.5305 42.6021,45.646 43.5141,45.7616 44.4305,45.8384 45.349,45.8763 46.2675,45.9142 47.1872,45.9131 48.1056,45.873 49.0239,45.8329 49.9402,45.7538 50.8519,45.6361 51.7636,45.5183 52.6699,45.3619 53.5683,45.1673 54.4667,44.9726 55.3565,44.74 56.2352,44.47 57.1139,44.1999 57.9808,43.8927 58.8334,43.5492 59.6861,43.2056 60.5238,42.8261 61.3443,42.4115 62.1647,41.997 62.9673,41.5478 63.7497,41.0652 64.5321,40.5826 65.2936,40.067 66.0323,39.5199 66.771,38.9727 67.4862,38.3945 68.1758,37.7867 68.8655,37.1789 69.5291,36.5421 70.1648,35.8781 70.8004,35.214 71.4077,34.5233 71.9848,33.8078 72.5619,33.0923 73.1084,32.3526 73.6228,31.5907 74.1372,30.8289 74.6191,30.0455 75.0671,29.2428 75.5151,28.4401 75.9289,27.6188 76.3072,26.781 76.6856,25.9432 77.0283,25.0898 77.3343,24.2229 77.6403,23.3561 77.9094,22.4767 78.1409,21.587 78.3723,20.6974 78.5659,19.7983 78.7212,18.8922 78.8764,17.9862 78.9931,17.0739 79.071,16.158 79.1489,15.242 79.1879,14.3232 79.1879,13.4039 79.1879,13.4039 46.6879,13.4039 46.6879,13.4039"/>
<ellipse fill="none" stroke="black" cx="46.6879" cy="13.4039" rx="32.5" ry="32.5"/>
</g>
<!-- 1 -->
<g id="node2" class="node"><title>1</title>
<ellipse fill="#1874cd" stroke="black" cx="39.4939" cy="-41.5492" rx="2.5" ry="2.5"/>
</g>
<!-- 0&#45;&gt;1 -->
<g id="edge1" class="edge"><title>0&#45;&gt;1</title>
<path fill="none" stroke="black" d="M42.4615,-18.8804C41.3605,-27.291 40.3407,-35.0813 39.8322,-38.9655"/>
</g>
<!-- 2 -->
<g id="node3" class="node"><title>2</title>
<ellipse fill="#1874cd" stroke="black" cx="127.489" cy="83.5765" rx="2.5" ry="2.5"/>
</g>
<!-- 0&#45;&gt;2 -->
<g id="edge2" class="edge"><title>0&#45;&gt;2</title>
<path fill="none" stroke="black" d="M71.3699,34.8393C91.4191,52.2513 117.587,74.9773 125.275,81.6541"/>
</g>
<!-- 3 -->
<g id="node4" class="node"><title>3</title>
<ellipse fill="#1874cd" stroke="black" cx="56.7218" cy="72.5487" rx="2.5" ry="2.5"/>
</g>
<!-- 0&#45;&gt;3 -->
<g id="edge3" class="edge"><title>0&#45;&gt;3</title>
<path fill="none" stroke="black" d="M52.1746,45.7451C53.8949,55.8853 55.5408,65.5874 56.2939,70.0262"/>
</g>
<!-- 4 -->
<g id="node5" class="node"><title>4</title>
<ellipse fill="#1874cd" stroke="black" cx="14.6256" cy="50.9714" rx="2.5" ry="2.5"/>
</g>
<!-- 0&#45;&gt;4 -->
<g id="edge4" class="edge"><title>0&#45;&gt;4</title>
<path fill="none" stroke="black" d="M25.4805,38.2528C21.7539,42.6192 18.4454,46.4958 16.488,48.7893"/>
</g>
<!-- 5 -->
<g id="node6" class="node"><title>5</title>
<ellipse fill="#1874cd" stroke="black" cx="-2.80484" cy="-51.1897" rx="2.5" ry="2.5"/>
</g>
<!-- 0&#45;&gt;5 -->
<g id="edge5" class="edge"><title>0&#45;&gt;5</title>
<path fill="none" stroke="black" d="M26.8425,-12.4966C15.655,-27.0976 3.0753,-43.5154 -1.24876,-49.1588"/>
</g>
<!-- 7 -->
<g id="node8" class="node"><title>7</title>
<ellipse fill="#1874cd" stroke="black" cx="71.4636" cy="-60.3896" rx="2.5" ry="2.5"/>
</g>
<!-- 0&#45;&gt;7 -->
<g id="edge9" class="edge"><title>0&#45;&gt;7</title>
<path fill="none" stroke="black" d="M57.0515,-17.4636C62.4616,-33.5775 68.4012,-51.2683 70.5909,-57.7903"/>
</g>
<!-- 11 -->
<g id="node12" class="node"><title>11</title>
<ellipse fill="#1874cd" stroke="black" cx="141.761" cy="-36.537" rx="2.5" ry="2.5"/>
</g>
<!-- 0&#45;&gt;11 -->
<g id="edge13" class="edge"><title>0&#45;&gt;11</title>
<path fill="none" stroke="black" d="M75.4709,-1.71555C99.0811,-14.1178 130.042,-30.3812 139.141,-35.1607"/>
</g>
<!-- 13 -->
<g id="node14" class="node"><title>13</title>
<ellipse fill="#1874cd" stroke="black" cx="-33.4074" cy="-6.50223" rx="2.5" ry="2.5"/>
</g>
<!-- 0&#45;&gt;13 -->
<g id="edge17" class="edge"><title>0&#45;&gt;13</title>
<path fill="none" stroke="black" d="M15.0321,5.53647C-3.15815,1.01564 -23.7669,-4.10627 -30.8557,-5.86804"/>
</g>
<!-- 14 -->
<g id="node15" class="node"><title>14</title>
<ellipse fill="#1874cd" stroke="black" cx="127.361" cy="40.3474" rx="2.5" ry="2.5"/>
</g>
<!-- 0&#45;&gt;14 -->
<g id="edge18" class="edge"><title>0&#45;&gt;14</title>
<path fill="none" stroke="black" d="M77.6474,23.7439C92.9548,28.8564 110.17,34.6058 119.795,37.8206"/>
<polygon fill="black" stroke="black" points="120.534,36.2224 124.722,39.4662 119.425,39.5421 120.534,36.2224"/>
<text text-anchor="middle" x="98.7211" y="40.3822" font-family="monospace" font-size="12.00">A586T</text>
</g>
<!-- 15 -->
<g id="node16" class="node"><title>15</title>
<ellipse fill="#1874cd" stroke="black" cx="1.15951" cy="-14.4106" rx="2.5" ry="2.5"/>
</g>
<!-- 0&#45;&gt;15 -->
<g id="edge19" class="edge"><title>0&#45;&gt;15</title>
<path fill="none" stroke="black" d="M18.8923,-3.57716C12.3755,-7.55846 6.4378,-11.186 3.36313,-13.0644"/>
</g>
<!-- 17 -->
<g id="node18" class="node"><title>17</title>
<ellipse fill="#1874cd" stroke="black" cx="116.115" cy="-11.3281" rx="2.5" ry="2.5"/>
</g>
<!-- 0&#45;&gt;17 -->
<g id="edge20" class="edge"><title>0&#45;&gt;17</title>
<path fill="none" stroke="black" d="M77.3417,2.48411C91.8719,-2.69194 107.364,-8.21069 113.447,-10.3775"/>
</g>
<!-- 19 -->
<g id="node20" class="node"><title>19</title>
<ellipse fill="#1874cd" stroke="black" cx="102.687" cy="-60.0347" rx="3.5" ry="3.5"/>
</g>
<!-- 0&#45;&gt;19 -->
<g id="edge23" class="edge"><title>0&#45;&gt;19</title>
<path fill="none" stroke="black" d="M66.5889,-12.6946C79.4152,-29.5153 94.7224,-49.5894 100.412,-57.0505"/>
</g>
<!-- 20 -->
<g id="node21" class="node"><title>20</title>
<ellipse fill="#1874cd" stroke="black" cx="96.6934" cy="25.5544" rx="2.5" ry="2.5"/>
</g>
<!-- 0&#45;&gt;20 -->
<g id="edge24" class="edge"><title>0&#45;&gt;20</title>
<path fill="none" stroke="black" d="M78.3571,21.099C84.8697,22.6814 90.7313,24.1057 93.9916,24.8979"/>
</g>
<!-- 21 -->
<g id="node22" class="node"><title>21</title>
<ellipse fill="#1874cd" stroke="black" cx="18.4646" cy="-68.8434" rx="2.5" ry="2.5"/>
</g>
<!-- 0&#45;&gt;21 -->
<g id="edge25" class="edge"><title>0&#45;&gt;21</title>
<path fill="none" stroke="black" d="M36.0179,-17.6903C29.5241,-36.6142 21.9948,-58.5558 19.3996,-66.1187"/>
</g>
<!-- 22 -->
<g id="node23" class="node"><title>22</title>
<ellipse fill="#1874cd" stroke="black" cx="86.6154" cy="-27.6758" rx="2.5" ry="2.5"/>
</g>
<!-- 0&#45;&gt;22 -->
<g id="edge26" class="edge"><title>0&#45;&gt;22</title>
<path fill="none" stroke="black" d="M69.4508,-10.0159C75.8956,-16.6466 81.9432,-22.8688 84.8353,-25.8443"/>
</g>
<!-- 23 -->
<g id="node24" class="node"><title>23</title>
<ellipse fill="#1874cd" stroke="black" cx="77.5417" cy="97.5762" rx="3.5" ry="3.5"/>
</g>
<!-- 0&#45;&gt;23 -->
<g id="edge27" class="edge"><title>0&#45;&gt;23</title>
<path fill="none" stroke="black" d="M58.0015,44.2686C65.0185,63.4117 73.2604,85.8964 76.3191,94.2409"/>
</g>
<!-- 24 -->
<g id="node25" class="node"><title>24</title>
<ellipse fill="#1874cd" stroke="black" cx="92.7723" cy="64.2648" rx="2.5" ry="2.5"/>
</g>
<!-- 0&#45;&gt;24 -->
<g id="edge28" class="edge"><title>0&#45;&gt;24</title>
<path fill="none" stroke="black" d="M68.6504,37.6427C77.5525,47.4675 86.6701,57.5301 90.6724,61.9473"/>
</g>
<!-- 26 -->
<g id="node27" class="node"><title>26</title>
<ellipse fill="#1874cd" stroke="black" cx="-17.9768" cy="57.126" rx="2.5" ry="2.5"/>
</g>
<!-- 0&#45;&gt;26 -->
<g id="edge31" class="edge"><title>0&#45;&gt;26</title>
<path fill="none" stroke="black" d="M19.6389,31.6927C8.16604,39.4499 -4.21909,47.8239 -11.5257,52.7641"/>
<polygon fill="black" stroke="black" points="-10.5768,54.235 -15.6991,55.5859 -12.5372,51.3356 -10.5768,54.235"/>
<text text-anchor="middle" x="-14.9434" y="38.8284" font-family="monospace" font-size="12.00">A837V</text>
</g>
<!-- 27 -->
<g id="node28" class="node"><title>27</title>
<ellipse fill="olivedrab" stroke="black" cx="137.179" cy="13.0019" rx="2.5" ry="2.5"/>
</g>
<!-- 0&#45;&gt;27 -->
<g id="edge32" class="edge"><title>0&#45;&gt;27</title>
<path fill="none" stroke="black" d="M79.3572,13.2588C100.822,13.1634 126.389,13.0498 134.544,13.0136"/>
</g>
<!-- 28 -->
<g id="node29" class="node"><title>28</title>
<ellipse fill="olivedrab" stroke="black" cx="21.501" cy="86.1151" rx="2.5" ry="2.5"/>
</g>
<!-- 0&#45;&gt;28 -->
<g id="edge33" class="edge"><title>0&#45;&gt;28</title>
<path fill="none" stroke="black" d="M36.0064,44.24C30.5361,60.032 24.573,77.2466 22.3762,83.5885"/>
</g>
<!-- anon_0_6_0 -->
<g id="node30" class="node"><title>anon_0_6_0</title>
<ellipse fill="white" stroke="black" cx="-39.3336" cy="-43.9285" rx="1" ry="1"/>
</g>
<!-- 0&#45;&gt;anon_0_6_0 -->
<g id="edge6" class="edge"><title>0&#45;&gt;anon_0_6_0</title>
<path fill="none" stroke="black" d="M19.4702,-4.73642C-3.36881,-19.9583 -33.1071,-39.7785 -38.4822,-43.361"/>
</g>
<!-- anon_0_10_0 -->
<g id="node32" class="node"><title>anon_0_10_0</title>
<ellipse fill="white" stroke="black" cx="39.3838" cy="116.128" rx="1" ry="1"/>
</g>
<!-- 0&#45;&gt;anon_0_10_0 -->
<g id="edge11" class="edge"><title>0&#45;&gt;anon_0_10_0</title>
<path fill="none" stroke="black" d="M44.3768,45.9066C42.4376,73.1802 39.9125,108.693 39.4561,115.112"/>
</g>
<!-- anon_0_12_0 -->
<g id="node33" class="node"><title>anon_0_12_0</title>
<ellipse fill="white" stroke="black" cx="52.6195" cy="-90.6856" rx="1" ry="1"/>
</g>
<!-- 0&#45;&gt;anon_0_12_0 -->
<g id="edge14" class="edge"><title>0&#45;&gt;anon_0_12_0</title>
<path fill="none" stroke="black" d="M48.5484,-19.2451C50.1249,-46.9093 52.1876,-83.1055 52.5605,-89.6491"/>
</g>
<!-- anon_0_18_0 -->
<g id="node35" class="node"><title>anon_0_18_0</title>
<ellipse fill="white" stroke="black" cx="-53.672" cy="38.0986" rx="1" ry="1"/>
</g>
<!-- 0&#45;&gt;anon_0_18_0 -->
<g id="edge21" class="edge"><title>0&#45;&gt;anon_0_18_0</title>
<path fill="none" stroke="black" d="M14.9334,21.2175C-11.7124,27.774 -46.4076,36.3111 -52.6787,37.8542"/>
</g>
<!-- anon_0_25_0 -->
<g id="node36" class="node"><title>anon_0_25_0</title>
<ellipse fill="white" stroke="black" cx="-18.7078" cy="93.4837" rx="1" ry="1"/>
</g>
<!-- 0&#45;&gt;anon_0_25_0 -->
<g id="edge29" class="edge"><title>0&#45;&gt;anon_0_25_0</title>
<path fill="none" stroke="black" d="M25.9963,38.7416C8.63355,60.0031 -13.9742,87.6872 -18.0606,92.6911"/>
</g>
<!-- anon_2_8_0 -->
<g id="node37" class="node"><title>anon_2_8_0</title>
<ellipse fill="white" stroke="black" cx="161.621" cy="113.379" rx="1" ry="1"/>
</g>
<!-- 2&#45;&gt;anon_2_8_0 -->
<g id="edge34" class="edge"><title>2&#45;&gt;anon_2_8_0</title>
<path fill="none" stroke="black" d="M129.728,85.532C136.372,91.3336 155.807,108.303 160.562,112.455"/>
</g>
<!-- 6 -->
<g id="node7" class="node"><title>6</title>
<ellipse fill="#1874cd" stroke="black" cx="-111.498" cy="-88.0811" rx="2.5" ry="2.5"/>
</g>
<!-- 8 -->
<g id="node9" class="node"><title>8</title>
<ellipse fill="#1874cd" stroke="black" cx="220.649" cy="169.041" rx="2.5" ry="2.5"/>
</g>
<!-- 9 -->
<g id="node10" class="node"><title>9</title>
<ellipse fill="#1874cd" stroke="black" cx="-24.9189" cy="21.5913" rx="3.5" ry="3.5"/>
</g>
<!-- 9&#45;&gt;0 -->
<g id="edge10" class="edge"><title>9&#45;&gt;0</title>
<path fill="none" stroke="black" d="M-21.069,21.1511C-15.1719,20.4768 -3.29965,19.1194 8.88264,17.7265"/>
<polygon fill="black" stroke="black" points="8.93962,15.9587 14.1061,17.1293 9.33728,19.436 8.93962,15.9587"/>
<text text-anchor="middle" x="-25.0932" y="16.0388" font-family="monospace" font-size="12.00">R254K</text>
</g>
<!-- 10 -->
<g id="node11" class="node"><title>10</title>
<ellipse fill="#1874cd" stroke="black" cx="34.3533" cy="156.285" rx="2.5" ry="2.5"/>
</g>
<!-- anon_11_16_0 -->
<g id="node39" class="node"><title>anon_11_16_0</title>
<ellipse fill="white" stroke="black" cx="182.44" cy="-58.3104" rx="1" ry="1"/>
</g>
<!-- 11&#45;&gt;anon_11_16_0 -->
<g id="edge37" class="edge"><title>11&#45;&gt;anon_11_16_0</title>
<path fill="none" stroke="black" d="M144.43,-37.9657C152.349,-42.2042 175.511,-54.6018 181.178,-57.6349"/>
</g>
<!-- 12 -->
<g id="node13" class="node"><title>12</title>
<ellipse fill="#1874cd" stroke="black" cx="57.3102" cy="-175.218" rx="2.5" ry="2.5"/>
</g>
<!-- 16 -->
<g id="node17" class="node"><title>16</title>
<ellipse fill="#1874cd" stroke="black" cx="217.382" cy="-77.8182" rx="2.5" ry="2.5"/>
</g>
<!-- 18 -->
<g id="node19" class="node"><title>18</title>
<ellipse fill="#1874cd" stroke="black" cx="-92.6864" cy="48.745" rx="2.5" ry="2.5"/>
</g>
<!-- 25 -->
<g id="node26" class="node"><title>25</title>
<ellipse fill="#1874cd" stroke="black" cx="-45.0625" cy="124.238" rx="2.5" ry="2.5"/>
</g>
<!-- anon_0_6_1 -->
<g id="node31" class="node"><title>anon_0_6_1</title>
<ellipse fill="white" stroke="black" cx="-77.1171" cy="-67.5668" rx="1" ry="1"/>
</g>
<!-- anon_0_6_0&#45;&gt;anon_0_6_1 -->
<g id="edge7" class="edge"><title>anon_0_6_0&#45;&gt;anon_0_6_1</title>
<path fill="none" stroke="black" d="M-40.2676,-44.5128C-45.3587,-47.6979 -69.7532,-62.9598 -75.7723,-66.7255"/>
</g>
<!-- anon_0_6_1&#45;&gt;6 -->
<g id="edge8" class="edge"><title>anon_0_6_1&#45;&gt;6</title>
<path fill="none" stroke="black" d="M-78.5944,-68.4483C-83.9412,-71.6386 -102.321,-82.6054 -109.026,-86.6057"/>
</g>
<!-- anon_0_10_0&#45;&gt;10 -->
<g id="edge12" class="edge"><title>anon_0_10_0&#45;&gt;10</title>
<path fill="none" stroke="black" d="M39.2594,117.121C38.6179,122.242 35.6744,145.74 34.6815,153.666"/>
</g>
<!-- anon_0_12_1 -->
<g id="node34" class="node"><title>anon_0_12_1</title>
<ellipse fill="white" stroke="black" cx="55.2315" cy="-135.222" rx="1" ry="1"/>
</g>
<!-- anon_0_12_0&#45;&gt;anon_0_12_1 -->
<g id="edge15" class="edge"><title>anon_0_12_0&#45;&gt;anon_0_12_1</title>
<path fill="none" stroke="black" d="M52.6841,-91.7866C53.036,-97.7876 54.7225,-126.542 55.1386,-133.637"/>
</g>
<!-- anon_0_12_1&#45;&gt;12 -->
<g id="edge16" class="edge"><title>anon_0_12_1&#45;&gt;12</title>
<path fill="none" stroke="black" d="M55.3007,-136.553C55.5994,-142.3 56.7815,-165.045 57.179,-172.693"/>
</g>
<!-- anon_0_18_0&#45;&gt;18 -->
<g id="edge22" class="edge"><title>anon_0_18_0&#45;&gt;18</title>
<path fill="none" stroke="black" d="M-54.9701,38.4528C-60.5762,39.9826 -82.7627,46.037 -90.2237,48.0729"/>
</g>
<!-- anon_0_25_0&#45;&gt;25 -->
<g id="edge30" class="edge"><title>anon_0_25_0&#45;&gt;25</title>
<path fill="none" stroke="black" d="M-19.3593,94.2439C-22.7201,98.1658 -38.1416,116.162 -43.3435,122.232"/>
</g>
<!-- anon_2_8_1 -->
<g id="node38" class="node"><title>anon_2_8_1</title>
<ellipse fill="white" stroke="black" cx="191.826" cy="141.527" rx="1" ry="1"/>
</g>
<!-- anon_2_8_0&#45;&gt;anon_2_8_1 -->
<g id="edge35" class="edge"><title>anon_2_8_0&#45;&gt;anon_2_8_1</title>
<path fill="none" stroke="black" d="M162.367,114.075C166.437,117.868 185.939,136.041 190.751,140.526"/>
</g>
<!-- anon_2_8_1&#45;&gt;8 -->
<g id="edge36" class="edge"><title>anon_2_8_1&#45;&gt;8</title>
<path fill="none" stroke="black" d="M193.064,142.71C197.547,146.989 212.956,161.697 218.576,167.063"/>
</g>
<!-- anon_11_16_0&#45;&gt;16 -->
<g id="edge38" class="edge"><title>anon_11_16_0&#45;&gt;16</title>
<path fill="none" stroke="black" d="M183.942,-59.1487C189.376,-62.1825 208.055,-72.6111 214.869,-76.4152"/>
</g>
</g>
</svg>
