<?xml version="1.0" encoding="UTF-8" standalone="no"?>
<!DOCTYPE svg PUBLIC "-//W3C//DTD SVG 1.1//EN"
 "http://www.w3.org/Graphics/SVG/1.1/DTD/svg11.dtd">
<!-- Generated by graphviz version 2.38.0 (20140413.2041)
 -->
<!-- Title: %3 Pages: 1 -->
<svg width="589pt" height="605pt"
 viewBox="0.00 0.00 589.30 604.72" xmlns="http://www.w3.org/2000/svg" xmlns:xlink="http://www.w3.org/1999/xlink">
<g id="graph0" class="graph" transform="scale(1 1) rotate(0) translate(204.079 340.744)">
<title>%3</title>
<polygon fill="white" stroke="none" points="-204.079,263.977 -204.079,-340.744 385.221,-340.744 385.221,263.977 -204.079,263.977"/>
<!-- 0 -->
<g id="node1" class="node"><title>0</title>
<ellipse fill="deepskyblue" stroke="black" cx="-190.591" cy="46.7112" rx="2.5" ry="2.5"/>
</g>
<!-- 3 -->
<g id="node4" class="node"><title>3</title>
<path fill="#1874cd" stroke="black" stroke-width="0.5" d="M-119.047,-0.156032C-119.047,-0.156032 -94.0466,-0.156032 -94.0466,-0.156032 -94.0466,-1.04254 -94.0937,-1.92842 -94.1878,-2.80992 -94.2819,-3.69142 -94.4229,-4.56729 -94.61,-5.43382 -94.7972,-6.30035 -95.0303,-7.15631 -95.3084,-7.99808 -95.5864,-8.83984 -95.9091,-9.66622 -96.275,-10.4737 -96.6408,-11.2812 -97.0494,-12.0687 -97.4989,-12.8327 -97.9484,-13.5968 -98.4383,-14.3365 -98.9664,-15.0485 -99.4945,-15.7606 -100.06,-16.444 -100.661,-17.096 -101.261,-17.748 -101.896,-18.3675 -102.563,-18.952 -103.229,-19.5365 -103.927,-20.0852 -104.651,-20.5957 -105.376,-21.1061 -106.128,-21.5777 -106.902,-22.0083 -107.677,-22.4389 -108.475,-22.828 -109.291,-23.174 -110.107,-23.5199 -110.941,-23.8222 -111.789,-24.0795 -112.638,-24.3369 -113.499,-24.5489 -114.37,-24.7147 -115.241,-24.8806 -116.12,-25 -117.004,-25.0724 -117.887,-25.1449 -118.774,-25.1703 -119.66,-25.1485 -120.546,-25.1267 -121.431,-25.0579 -122.31,-24.9422 -122.31,-24.9422 -119.047,-0.156032 -119.047,-0.156032"/>
<path fill="deepskyblue" stroke="black" stroke-width="0.5" d="M-119.047,-0.156032C-119.047,-0.156032 -122.31,-24.9422 -122.31,-24.9422 -123.425,-24.7953 -124.53,-24.5732 -125.616,-24.2775 -126.702,-23.9818 -127.766,-23.6131 -128.802,-23.174 -129.838,-22.7348 -130.844,-22.2262 -131.811,-21.6516 -132.779,-21.0771 -133.707,-20.4378 -134.588,-19.7382 -135.47,-19.0386 -136.303,-18.2803 -137.082,-17.4685 -137.861,-16.6566 -138.585,-15.7931 -139.248,-14.8837 -139.911,-13.9744 -140.512,-13.0213 -141.046,-12.031 -141.581,-11.0408 -142.048,-10.0155 -142.444,-8.96228 -142.841,-7.90906 -143.165,-6.83028 -143.417,-5.7333 -143.668,-4.63631 -143.844,-3.52363 -143.945,-2.40283 -144.047,-1.28204 -144.072,-0.155698 -144.021,0.968509 -143.971,2.09272 -143.844,3.21222 -143.643,4.31939 -143.441,5.42656 -143.165,6.51886 -142.817,7.58884 -142.468,8.65883 -142.048,9.70405 -141.558,10.7174 -141.069,11.7307 -140.511,12.7098 -139.89,13.6481 -139.269,14.5863 -138.585,15.4815 -137.843,16.3276 -137.843,16.3276 -119.047,-0.156032 -119.047,-0.156032"/>
<path fill="#98f5ff" stroke="black" stroke-width="0.5" d="M-119.047,-0.156032C-119.047,-0.156032 -137.843,16.3276 -137.843,16.3276 -136.943,17.3533 -135.961,18.3037 -134.906,19.1692 -133.852,20.0347 -132.728,20.8125 -131.547,21.4946 -131.547,21.4946 -119.047,-0.156032 -119.047,-0.156032"/>
<path fill="#ff3030" stroke="black" stroke-width="0.5" d="M-119.047,-0.156032C-119.047,-0.156032 -131.547,21.4946 -131.547,21.4946 -130.602,22.0402 -129.622,22.5234 -128.614,22.941 -127.605,23.3585 -126.571,23.7097 -125.517,23.9921 -124.463,24.2745 -123.392,24.4877 -122.31,24.6301 -121.228,24.7725 -120.138,24.844 -119.047,24.844 -117.955,24.844 -116.865,24.7725 -115.783,24.6301 -114.702,24.4877 -113.63,24.2745 -112.576,23.9921 -111.522,23.7097 -110.488,23.3585 -109.479,22.941 -108.471,22.5234 -107.492,22.0402 -106.547,21.4946 -105.602,20.949 -104.693,20.3421 -103.828,19.6778 -102.962,19.0135 -102.141,18.2932 -101.369,17.5216 -100.597,16.75 -99.877,15.9287 -99.2127,15.063 -98.5484,14.1973 -97.9415,13.289 -97.3959,12.344 -96.8503,11.3989 -96.3672,10.4192 -95.9496,9.41105 -95.532,8.4029 -95.1808,7.36848 -94.8984,6.31444 -94.616,5.26041 -94.4029,4.18901 -94.2604,3.10712 -94.118,2.02524 -94.0466,0.935188 -94.0466,-0.156032 -94.0466,-0.156032 -119.047,-0.156032 -119.047,-0.156032"/>
<ellipse fill="none" stroke="black" cx="-119.047" cy="-0.156032" rx="25" ry="25"/>
</g>
<!-- 0&#45;&gt;3 -->
<g id="edge1" class="edge"><title>0&#45;&gt;3</title>
<path fill="none" stroke="black" d="M-188.21,45.1518C-180.791,40.2916 -157.535,25.0572 -140.023,13.5851"/>
</g>
<!-- 1 -->
<g id="node2" class="node"><title>1</title>
<path fill="deepskyblue" stroke="black" stroke-width="0.5" d="M114.616,28.8331C114.616,28.8331 132.116,28.8331 132.116,28.8331 132.116,27.9498 132.05,27.0677 131.916,26.1945 131.783,25.3213 131.584,24.4594 131.321,23.6163 131.057,22.7731 130.731,21.9511 130.343,21.1573 129.956,20.3635 129.509,19.6001 129.006,18.8738 128.503,18.1475 127.946,17.4603 127.34,16.8181 126.734,16.1758 126.079,15.5805 125.383,15.037 124.687,14.4936 123.95,14.0036 123.18,13.5714 122.409,13.1392 121.608,12.7659 120.781,12.4547 119.954,12.1436 119.105,11.8955 118.241,11.7125 117.377,11.5296 116.5,11.4123 115.618,11.3618 114.736,11.3112 113.852,11.3275 112.972,11.4105 112.093,11.4935 111.221,11.6429 110.364,11.8575 109.507,12.0722 108.668,12.3514 107.853,12.6927 107.039,13.0341 106.251,13.4366 105.497,13.8969 104.743,14.3572 104.025,14.8739 103.349,15.4427 102.674,16.0114 102.042,16.6304 101.459,17.2945 100.877,17.9586 100.346,18.6659 99.8699,19.4102 99.3943,20.1545 98.9757,20.9338 98.6178,21.7414 98.2598,22.5489 97.9635,23.3824 97.7314,24.2346 97.4993,25.0869 97.3321,25.9555 97.2311,26.8331 97.1302,27.7106 97.0958,28.5945 97.1283,29.4772 97.1608,30.3599 97.2601,31.2389 97.4254,32.1066 97.5906,32.9743 97.8213,33.8283 98.1155,34.6612 98.4096,35.4941 98.7664,36.3035 99.1828,37.0825 99.5992,37.8615 100.074,38.6079 100.603,39.3152 101.132,40.0226 101.714,40.6888 102.344,41.3083 102.973,41.9277 103.649,42.4986 104.365,43.0161 105.081,43.5335 105.835,43.996 106.621,44.3996 107.406,44.8032 108.222,45.1467 109.059,45.4272 109.897,45.7077 110.754,45.9244 111.625,46.0754 112.495,46.2265 113.375,46.3114 114.259,46.3294 115.142,46.3475 116.025,46.2987 116.901,46.1834 116.901,46.1834 114.616,28.8331 114.616,28.8331"/>
<path fill="#98f5ff" stroke="black" stroke-width="0.5" d="M114.616,28.8331C114.616,28.8331 116.901,46.1834 116.901,46.1834 117.942,46.0462 118.969,45.8156 119.97,45.4942 120.97,45.1728 121.939,44.762 122.866,44.2667 123.792,43.7714 124.673,43.1937 125.496,42.5406 126.318,41.8875 127.081,41.1615 127.774,40.3716 128.466,39.5817 129.087,38.731 129.627,37.8299 130.167,36.9287 130.625,35.9807 130.995,34.9975 131.365,34.0142 131.646,32.9995 131.834,31.9659 132.022,30.9322 132.116,29.8837 132.116,28.8331 132.116,28.8331 114.616,28.8331 114.616,28.8331"/>
<ellipse fill="none" stroke="black" cx="114.616" cy="28.8331" rx="17.5" ry="17.5"/>
</g>
<!-- 12 -->
<g id="node13" class="node"><title>12</title>
<ellipse fill="deepskyblue" stroke="black" cx="170.477" cy="72.9423" rx="2.5" ry="2.5"/>
</g>
<!-- 1&#45;&gt;12 -->
<g id="edge3" class="edge"><title>1&#45;&gt;12</title>
<path fill="none" stroke="black" d="M128.425,39.7365C142.123,50.5534 161.972,66.227 168.391,71.2953"/>
</g>
<!-- 19 -->
<g id="node20" class="node"><title>19</title>
<ellipse fill="deepskyblue" stroke="black" cx="158.883" cy="-26.369" rx="2.5" ry="2.5"/>
</g>
<!-- 1&#45;&gt;19 -->
<g id="edge4" class="edge"><title>1&#45;&gt;19</title>
<path fill="none" stroke="black" d="M125.787,14.9033C136.647,1.3608 152.217,-18.0561 157.249,-24.3306"/>
</g>
<!-- 23 -->
<g id="node24" class="node"><title>23</title>
<ellipse fill="deepskyblue" stroke="black" cx="179.27" cy="39.3725" rx="2.5" ry="2.5"/>
</g>
<!-- 1&#45;&gt;23 -->
<g id="edge5" class="edge"><title>1&#45;&gt;23</title>
<path fill="none" stroke="black" d="M131.942,31.6575C147.503,34.194 169.021,37.7018 176.544,38.9281"/>
</g>
<!-- 24 -->
<g id="node25" class="node"><title>24</title>
<ellipse fill="deepskyblue" stroke="black" cx="175.375" cy="3.29917" rx="2.5" ry="2.5"/>
</g>
<!-- 1&#45;&gt;24 -->
<g id="edge6" class="edge"><title>1&#45;&gt;24</title>
<path fill="none" stroke="black" d="M130.899,21.9905C145.522,15.8452 165.744,7.3468 172.813,4.37597"/>
</g>
<!-- 2 -->
<g id="node3" class="node"><title>2</title>
<ellipse fill="#ff3030" stroke="black" cx="52.8243" cy="-22.7916" rx="9" ry="9"/>
</g>
<!-- 33 -->
<g id="node34" class="node"><title>33</title>
<ellipse fill="#ff3030" stroke="black" cx="14.8205" cy="-64.4227" rx="2.5" ry="2.5"/>
</g>
<!-- 2&#45;&gt;33 -->
<g id="edge10" class="edge"><title>2&#45;&gt;33</title>
<path fill="none" stroke="black" d="M46.5487,-29.6661C37.6098,-39.4582 21.717,-56.8679 16.5179,-62.5632"/>
</g>
<!-- anon_2_16_0 -->
<g id="node124" class="node"><title>anon_2_16_0</title>
<ellipse fill="white" stroke="black" cx="100.009" cy="-62.3567" rx="1" ry="1"/>
</g>
<!-- 2&#45;&gt;anon_2_16_0 -->
<g id="edge8" class="edge"><title>2&#45;&gt;anon_2_16_0</title>
<path fill="none" stroke="black" d="M59.7865,-28.6296C71.2711,-38.2595 93.4529,-56.8594 98.8189,-61.3589"/>
</g>
<!-- 9 -->
<g id="node10" class="node"><title>9</title>
<ellipse fill="#ff3030" stroke="black" cx="-74.464" cy="-43.5262" rx="2.5" ry="2.5"/>
</g>
<!-- 3&#45;&gt;9 -->
<g id="edge12" class="edge"><title>3&#45;&gt;9</title>
<path fill="none" stroke="black" d="M-100.913,-17.7963C-91.2702,-27.177 -80.5511,-37.6046 -76.3229,-41.7178"/>
</g>
<!-- 10 -->
<g id="node11" class="node"><title>10</title>
<ellipse fill="#ff3030" stroke="black" cx="-168.988" cy="63.9846" rx="2.5" ry="2.5"/>
</g>
<!-- 3&#45;&gt;10 -->
<g id="edge13" class="edge"><title>3&#45;&gt;10</title>
<path fill="none" stroke="black" d="M-134.574,19.7869C-146.715,35.3793 -162.348,55.4572 -167.363,61.8983"/>
</g>
<!-- 27 -->
<g id="node28" class="node"><title>27</title>
<ellipse fill="deepskyblue" stroke="black" cx="-139.298" cy="-82.5918" rx="2.5" ry="2.5"/>
</g>
<!-- 3&#45;&gt;27 -->
<g id="edge14" class="edge"><title>3&#45;&gt;27</title>
<path fill="none" stroke="black" d="M-125.013,-24.4436C-129.96,-44.5807 -136.51,-71.2433 -138.615,-79.8136"/>
</g>
<!-- 46 -->
<g id="node47" class="node"><title>46</title>
<ellipse fill="#1874cd" stroke="black" cx="-178.605" cy="-54.2568" rx="2.5" ry="2.5"/>
</g>
<!-- 3&#45;&gt;46 -->
<g id="edge15" class="edge"><title>3&#45;&gt;46</title>
<path fill="none" stroke="black" d="M-137.565,-16.9773C-149.555,-27.8686 -164.401,-41.3545 -172.547,-48.754"/>
<polygon fill="black" stroke="black" points="-174.143,-47.8398 -176.668,-52.4971 -171.79,-50.4306 -174.143,-47.8398"/>
<text text-anchor="middle" x="-178.08" y="-38.5042" font-family="monospace" font-size="14.00">I829L</text>
</g>
<!-- 77 -->
<g id="node78" class="node"><title>77</title>
<ellipse fill="#1874cd" stroke="black" cx="-182.022" cy="-24.8028" rx="2.5" ry="2.5"/>
</g>
<!-- 3&#45;&gt;77 -->
<g id="edge16" class="edge"><title>3&#45;&gt;77</title>
<path fill="none" stroke="black" d="M-142.496,-9.33357C-156.764,-14.9176 -173.392,-21.4252 -179.558,-23.8385"/>
</g>
<!-- 78 -->
<g id="node79" class="node"><title>78</title>
<ellipse fill="#1874cd" stroke="black" cx="-197.579" cy="0.918575" rx="2.5" ry="2.5"/>
</g>
<!-- 3&#45;&gt;78 -->
<g id="edge17" class="edge"><title>3&#45;&gt;78</title>
<path fill="none" stroke="black" d="M-144.327,0.189895C-162.98,0.445135 -186.476,0.766653 -194.632,0.878248"/>
</g>
<!-- 95 -->
<g id="node96" class="node"><title>95</title>
<ellipse fill="#1874cd" stroke="black" cx="-152.036" cy="-60.4126" rx="2.5" ry="2.5"/>
</g>
<!-- 3&#45;&gt;95 -->
<g id="edge18" class="edge"><title>3&#45;&gt;95</title>
<path fill="none" stroke="black" d="M-131.143,-22.2512C-138.646,-35.9552 -147.458,-52.0513 -150.728,-58.0249"/>
</g>
<!-- 122 -->
<g id="node123" class="node"><title>122</title>
<ellipse fill="#98f5ff" stroke="black" cx="-175.707" cy="22.5449" rx="2.5" ry="2.5"/>
</g>
<!-- 3&#45;&gt;122 -->
<g id="edge19" class="edge"><title>3&#45;&gt;122</title>
<path fill="none" stroke="black" d="M-142.42,9.20836C-154.613,14.0937 -168.071,19.4857 -173.376,21.6109"/>
</g>
<!-- 4 -->
<g id="node5" class="node"><title>4</title>
<ellipse fill="#ff3030" stroke="black" cx="78.051" cy="112.472" rx="12" ry="12"/>
</g>
<!-- 34 -->
<g id="node35" class="node"><title>34</title>
<ellipse fill="#ff3030" stroke="black" cx="131.383" cy="138.477" rx="2.5" ry="2.5"/>
</g>
<!-- 4&#45;&gt;34 -->
<g id="edge21" class="edge"><title>4&#45;&gt;34</title>
<path fill="none" stroke="black" d="M88.8435,117.735C101.505,123.908 121.674,133.743 128.792,137.214"/>
</g>
<!-- 38 -->
<g id="node39" class="node"><title>38</title>
<ellipse fill="#ff3030" stroke="black" cx="137.822" cy="106.619" rx="2.5" ry="2.5"/>
</g>
<!-- 4&#45;&gt;38 -->
<g id="edge22" class="edge"><title>4&#45;&gt;38</title>
<path fill="none" stroke="black" d="M90.1465,111.288C104.337,109.898 126.941,107.685 134.919,106.904"/>
</g>
<!-- 40 -->
<g id="node41" class="node"><title>40</title>
<ellipse fill="#ff3030" stroke="black" cx="108.87" cy="163.701" rx="2.5" ry="2.5"/>
</g>
<!-- 4&#45;&gt;40 -->
<g id="edge23" class="edge"><title>4&#45;&gt;40</title>
<path fill="none" stroke="black" d="M84.2877,122.839C91.6045,135.002 103.26,154.376 107.373,161.213"/>
</g>
<!-- 41 -->
<g id="node42" class="node"><title>41</title>
<ellipse fill="#ff3030" stroke="black" cx="79.8848" cy="176.985" rx="2.5" ry="2.5"/>
</g>
<!-- 4&#45;&gt;41 -->
<g id="edge24" class="edge"><title>4&#45;&gt;41</title>
<path fill="none" stroke="black" d="M78.396,124.607C78.8359,140.082 79.5682,165.847 79.807,174.247"/>
</g>
<!-- 5 -->
<g id="node6" class="node"><title>5</title>
<path fill="deepskyblue" stroke="black" stroke-width="0.5" d="M51.4316,-51.8145C51.4316,-51.8145 73.9316,-51.8145 73.9316,-51.8145 73.9316,-52.5988 73.8906,-53.3826 73.8088,-54.1626 73.7269,-54.9426 73.6044,-55.7178 73.4415,-56.4851 73.2787,-57.2523 73.0759,-58.0105 72.834,-58.7565 72.592,-59.5025 72.3111,-60.2354 71.9926,-60.9521 71.6741,-61.6688 71.3183,-62.3684 70.9268,-63.048 70.5352,-63.7275 70.1084,-64.3861 69.648,-65.0211 69.1876,-65.6561 68.6944,-66.2666 68.1703,-66.8501 67.6462,-67.4335 67.0919,-67.9892 66.5098,-68.5148 65.9277,-69.0404 65.3184,-69.5352 64.6846,-69.9972 64.0508,-70.4591 63.3933,-70.8876 62.7147,-71.2809 62.0362,-71.6742 61.3375,-72.0318 60.6216,-72.3521 59.9057,-72.6725 59.1736,-72.9552 58.4282,-73.1991 57.6827,-73.443 56.9251,-73.6477 56.1583,-73.8125 55.3915,-73.9772 54.6166,-74.1018 53.8368,-74.1856 53.057,-74.2694 52.2733,-74.3125 51.489,-74.3145 50.7047,-74.3165 49.9208,-74.2774 49.1406,-74.1976 48.3604,-74.1177 47.5849,-73.9971 46.8172,-73.8363 46.0496,-73.6754 45.2909,-73.4745 44.5443,-73.2345 43.7976,-72.9944 43.064,-72.7154 42.3465,-72.3987 41.629,-72.0821 40.9285,-71.7281 40.248,-71.3382 39.5674,-70.9484 38.9077,-70.5232 38.2715,-70.0645 37.6354,-69.6058 37.0236,-69.1141 36.4388,-68.5915 35.854,-68.0689 35.2969,-67.516 34.7699,-66.9352 34.2428,-66.3544 33.7464,-65.7465 33.2829,-65.1138 32.8193,-64.4812 32.3891,-63.8248 31.9941,-63.1472 31.599,-62.4697 31.2397,-61.7719 30.9175,-61.0569 30.5953,-60.3418 30.3108,-59.6103 30.065,-58.8656 29.8192,-58.1208 29.6125,-57.3636 29.4458,-56.5972 29.2791,-55.8309 29.1526,-55.0563 29.0668,-54.2767 28.9809,-53.4971 28.9359,-52.7136 28.9319,-51.9293 28.9279,-51.145 28.9649,-50.361 29.0428,-49.5806 29.1207,-48.8002 29.2393,-48.0243 29.3982,-47.2563 29.3982,-47.2563 51.4316,-51.8145 51.4316,-51.8145"/>
<path fill="#98f5ff" stroke="black" stroke-width="0.5" d="M51.4316,-51.8145C51.4316,-51.8145 29.3982,-47.2563 29.3982,-47.2563 29.6075,-46.2446 29.8862,-45.2485 30.2324,-44.275 30.5786,-43.3016 30.9915,-42.3532 31.468,-41.4365 31.9445,-40.5198 32.4837,-39.637 33.0815,-38.7944 33.6794,-37.9518 34.3346,-37.1514 35.0424,-36.3988 35.7503,-35.6463 36.5091,-34.9434 37.3136,-34.2951 38.118,-33.6468 38.9662,-33.0547 39.852,-32.523 40.7379,-31.9913 41.6593,-31.5212 42.6097,-31.1161 43.5601,-30.7111 44.5373,-30.3719 45.5344,-30.1011 46.5314,-29.8303 47.5459,-29.6285 48.5707,-29.4972 49.5954,-29.3658 50.628,-29.3052 51.6611,-29.3157 52.6942,-29.3262 53.7254,-29.4079 54.7473,-29.5602 55.7691,-29.7124 56.7793,-29.9349 57.7706,-30.2259 58.7619,-30.517 59.732,-30.876 60.674,-31.3004 61.6159,-31.7248 62.5276,-32.2136 63.4024,-32.7632 64.2772,-33.3129 65.1131,-33.9222 65.9041,-34.5867 66.6952,-35.2513 67.4395,-35.9695 68.1319,-36.7364 68.1319,-36.7364 51.4316,-51.8145 51.4316,-51.8145"/>
<path fill="#ff3030" stroke="black" stroke-width="0.5" d="M51.4316,-51.8145C51.4316,-51.8145 68.1319,-36.7364 68.1319,-36.7364 68.5934,-37.2475 69.0311,-37.7795 69.4438,-38.3308 69.8565,-38.882 70.2436,-39.452 70.604,-40.0387 70.9644,-40.6255 71.2977,-41.2285 71.6028,-41.8459 71.9079,-42.4632 72.1845,-43.0943 72.4317,-43.737 72.6789,-44.3797 72.8965,-45.0334 73.0838,-45.6961 73.271,-46.3587 73.4278,-47.0297 73.5535,-47.7067 73.6792,-48.3837 73.7738,-49.0662 73.8369,-49.7519 73.9,-50.4376 73.9316,-51.1259 73.9316,-51.8145 73.9316,-51.8145 51.4316,-51.8145 51.4316,-51.8145"/>
<ellipse fill="none" stroke="black" cx="51.4316" cy="-51.8145" rx="22.5" ry="22.5"/>
</g>
<!-- 11 -->
<g id="node12" class="node"><title>11</title>
<ellipse fill="deepskyblue" stroke="black" cx="-10.6848" cy="-76.2773" rx="2.5" ry="2.5"/>
</g>
<!-- 5&#45;&gt;11 -->
<g id="edge26" class="edge"><title>5&#45;&gt;11</title>
<path fill="none" stroke="black" d="M30.4018,-60.0965C16.0418,-65.7518 -1.52236,-72.6689 -8.0653,-75.2457"/>
</g>
<!-- 121 -->
<g id="node122" class="node"><title>121</title>
<ellipse fill="#98f5ff" stroke="black" cx="92.7205" cy="-120.658" rx="2.5" ry="2.5"/>
</g>
<!-- 5&#45;&gt;121 -->
<g id="edge27" class="edge"><title>5&#45;&gt;121</title>
<path fill="none" stroke="black" d="M63.1529,-71.3582C73.2617,-88.2132 86.905,-110.962 91.2962,-118.283"/>
</g>
<!-- 6 -->
<g id="node7" class="node"><title>6</title>
<path fill="deepskyblue" stroke="black" stroke-width="0.5" d="M-0.105813,43.2562C-0.105813,43.2562 23.8942,43.2562 23.8942,43.2562 23.8942,42.1388 23.8161,41.0227 23.6606,39.9161 23.5051,38.8095 23.2725,37.7151 22.9645,36.6409 22.9645,36.6409 -0.105813,43.2562 -0.105813,43.2562"/>
<path fill="brown" stroke="black" stroke-width="0.5" d="M-0.105813,43.2562C-0.105813,43.2562 22.9645,36.6409 22.9645,36.6409 22.7744,35.9781 22.5559,35.3238 22.3095,34.6798 22.0631,34.0359 21.7891,33.4028 21.4881,32.7824 21.1872,32.162 20.8597,31.5549 20.5065,30.9627 20.1534,30.3705 19.7748,29.7938 19.372,29.2342 18.9691,28.6746 18.5423,28.1327 18.0928,27.6098 17.6433,27.087 17.1715,26.5838 16.6786,26.1015 16.1858,25.6193 15.6724,25.1586 15.1399,24.7206 14.6073,24.2826 14.0562,23.8677 13.4879,23.4772 12.9197,23.0866 12.3349,22.7208 11.7351,22.3806 11.1354,22.0404 10.5213,21.7262 9.89445,21.4389 9.26764,21.1516 8.62875,20.8915 7.97954,20.6592 7.33034,20.4269 6.67142,20.2227 6.00463,20.0471 5.33784,19.8716 4.6638,19.7248 3.98437,19.6073 3.30495,19.4898 2.62078,19.4016 1.93376,19.343 1.24674,19.2844 0.557519,19.2555 -0.131992,19.2562 -0.821504,19.257 -1.51066,19.2875 -2.19755,19.3475 -2.88444,19.4076 -3.56842,19.4973 -4.24758,19.6163 -4.92675,19.7353 -5.60047,19.8835 -6.26688,20.0605 -6.93328,20.2375 -7.59175,20.4431 -8.24045,20.6769 -8.88915,20.9106 -9.52747,21.1721 -10.1536,21.4608 -10.7798,21.7495 -11.3933,22.065 -11.9923,22.4065 -12.5913,22.748 -13.1753,23.1151 -13.7427,23.5069 -14.3101,23.8987 -14.8603,24.3147 -15.3919,24.7539 -15.9234,25.1931 -16.4358,25.6549 -16.9276,26.1382 -17.4194,26.6215 -17.8902,27.1257 -18.3385,27.6496 -18.7869,28.1734 -19.2125,28.7163 -19.6141,29.2768 -20.0158,29.8372 -20.393,30.4147 -20.7449,31.0077 -21.0968,31.6006 -21.423,32.2085 -21.7226,32.8295 -22.0221,33.4506 -22.2948,34.0842 -22.5398,34.7288 -22.7848,35.3733 -23.0019,36.0281 -23.1905,36.6913 -23.3791,37.3545 -23.539,38.0255 -23.6698,38.7025 -23.8007,39.3795 -23.9023,40.0618 -23.9743,40.7475 -24.0464,41.4333 -24.0889,42.1218 -24.1017,42.8112 -24.1145,43.5006 -24.0975,44.1902 -24.0509,44.8781 -24.0043,45.5661 -23.9281,46.2517 -23.8225,46.9331 -23.7169,47.6144 -23.5819,48.2909 -23.418,48.9607 -23.2541,49.6304 -23.0615,50.2928 -22.8405,50.946 -22.6196,51.5991 -22.3706,52.2425 -22.0943,52.8742 -21.818,53.5059 -21.5146,54.1254 -21.1849,54.731 -20.8553,55.3366 -20.4996,55.9277 -20.1191,56.5027 -19.7385,57.0777 -19.3333,57.636 -18.9047,58.1761 -18.4761,58.7162 -18.0243,59.2375 -17.5508,59.7387 -17.0773,60.2399 -16.5823,60.7204 -16.0674,61.179 -15.5525,61.6376 -15.0181,62.0738 -14.4656,62.4863 -13.9131,62.8989 -13.3431,63.2874 -12.7572,63.6509 -12.1713,64.0144 -11.5699,64.3524 -10.9549,64.6641 -10.3399,64.9758 -9.71168,65.2608 -9.07209,65.5184 -8.43251,65.776 -7.78212,66.0059 -7.12274,66.2075 -6.46335,66.4091 -5.79559,66.5822 -5.1213,66.7263 -4.44701,66.8704 -3.76683,66.9854 -3.08264,67.0709 -2.39846,67.1564 -1.7109,67.2124 -1.02189,67.2387 -0.332882,67.265 0.356942,67.2617 1.04566,67.2286 1.73438,67.1955 2.42135,67.1328 3.10466,67.0405 3.78798,66.9483 4.467,66.8266 5.13984,66.6759 5.81268,66.5252 6.47871,66.3456 7.13609,66.1375 7.79346,65.9295 8.44156,65.6932 9.07859,65.4293 9.71561,65.1655 10.341,64.8743 10.9529,64.5566 11.5649,64.2388 12.1628,63.8949 12.7452,63.5257 13.3275,63.1565 13.8937,62.7624 14.4421,62.3444 14.9905,61.9265 15.5206,61.4851 16.031,61.0215 16.5414,60.5579 17.0316,60.0725 17.5001,59.5667 17.9687,59.0608 18.4153,58.5351 18.8386,57.9908 19.262,57.4465 19.6616,56.8843 20.0365,56.3056 20.4114,55.7269 20.7612,55.1323 21.0849,54.5235 21.0849,54.5235 -0.105813,43.2562 -0.105813,43.2562"/>
<path fill="#ff3030" stroke="black" stroke-width="0.5" d="M-0.105813,43.2562C-0.105813,43.2562 21.0849,54.5235 21.0849,54.5235 21.5439,53.6603 21.9497,52.7698 22.3001,51.8571 22.6505,50.9443 22.9448,50.011 23.1813,49.0623 23.4178,48.1137 23.5961,47.1515 23.7153,46.1811 23.8344,45.2107 23.8942,44.2339 23.8942,43.2562 23.8942,43.2562 -0.105813,43.2562 -0.105813,43.2562"/>
<ellipse fill="none" stroke="black" cx="-0.105813" cy="43.2562" rx="24" ry="24"/>
</g>
<!-- 6&#45;&gt;1 -->
<g id="edge2" class="edge"><title>6&#45;&gt;1</title>
<path fill="none" stroke="black" d="M23.9437,40.2327C43.9679,37.7152 72.2804,34.1557 91.9191,31.6866"/>
<polygon fill="black" stroke="black" points="91.7848,29.9398 96.9641,31.0524 92.2214,33.4125 91.7848,29.9398"/>
<text text-anchor="middle" x="85.6134" y="31.8225" font-family="monospace" font-size="14.00">I1868T</text>
</g>
<!-- 6&#45;&gt;2 -->
<g id="edge7" class="edge"><title>6&#45;&gt;2</title>
<path fill="none" stroke="black" d="M14.9202,24.5062C24.3338,12.7598 36.1383,-1.97026 44.0505,-11.8435"/>
<polygon fill="black" stroke="black" points="42.6925,-12.9473 47.1849,-15.7546 45.4237,-10.7585 42.6925,-12.9473"/>
<text text-anchor="middle" x="6.00537" y="15.6347" font-family="monospace" font-size="14.00">A1934V</text>
</g>
<!-- 6&#45;&gt;3 -->
<g id="edge11" class="edge"><title>6&#45;&gt;3</title>
<path fill="none" stroke="black" d="M-22.7576,34.9885C-41.9765,27.9738 -69.6533,17.872 -90.4065,10.2973"/>
<polygon fill="black" stroke="black" points="-91.1594,11.8855 -95.2563,8.52719 -89.9593,8.59766 -91.1594,11.8855"/>
<text text-anchor="middle" x="-58.802" y="33.0327" font-family="monospace" font-size="14.00">N1570Y</text>
</g>
<!-- 6&#45;&gt;4 -->
<g id="edge20" class="edge"><title>6&#45;&gt;4</title>
<path fill="none" stroke="black" d="M18.0214,59.3098C32.4065,72.0493 52.1692,89.5512 65.0243,100.936"/>
<polygon fill="black" stroke="black" points="66.1956,99.6354 68.7785,104.261 63.8751,102.256 66.1956,99.6354"/>
<text text-anchor="middle" x="68.2688" y="92.869" font-family="monospace" font-size="14.00">P1874S</text>
</g>
<!-- 6&#45;&gt;5 -->
<g id="edge25" class="edge"><title>6&#45;&gt;5</title>
<path fill="none" stroke="black" d="M11.332,22.1569C19.2332,7.58166 29.7701,-11.8557 38.0599,-27.1477"/>
<polygon fill="black" stroke="black" points="36.6336,-28.1888 40.555,-31.7505 39.7106,-26.5208 36.6336,-28.1888"/>
<text text-anchor="middle" x="0.861098" y="-8.44474" font-family="monospace" font-size="14.00">P1874L</text>
</g>
<!-- 7 -->
<g id="node8" class="node"><title>7</title>
<ellipse fill="#ff3030" stroke="black" cx="20.0775" cy="89.6777" rx="6.5" ry="6.5"/>
</g>
<!-- 6&#45;&gt;7 -->
<g id="edge28" class="edge"><title>6&#45;&gt;7</title>
<path fill="none" stroke="black" d="M9.51296,65.3793C11.569,70.1081 13.6512,74.8973 15.4174,78.9594"/>
<polygon fill="black" stroke="black" points="17.0708,78.3734 17.4596,83.6565 13.861,79.7689 17.0708,78.3734"/>
<text text-anchor="middle" x="-11.5021" y="85.7446" font-family="monospace" font-size="14.00">K1603T</text>
</g>
<!-- 14 -->
<g id="node15" class="node"><title>14</title>
<ellipse fill="#ff3030" stroke="black" cx="-70.2777" cy="85.9525" rx="5" ry="5"/>
</g>
<!-- 6&#45;&gt;14 -->
<g id="edge29" class="edge"><title>6&#45;&gt;14</title>
<path fill="none" stroke="black" d="M-20.7802,55.8356C-34.2603,64.0376 -51.1756,74.3298 -61.3346,80.5111"/>
<polygon fill="black" stroke="black" points="-60.5533,82.0841 -65.7344,83.1881 -62.3726,79.0941 -60.5533,82.0841"/>
<text text-anchor="middle" x="-68.3102" y="65.744" font-family="monospace" font-size="14.00">I1940T</text>
</g>
<!-- 15 -->
<g id="node16" class="node"><title>15</title>
<path fill="#98f5ff" stroke="black" stroke-width="0.5" d="M-37.6494,127.298C-37.6494,127.298 -33.1494,127.298 -33.1494,127.298 -33.1494,127.101 -33.1623,126.905 -33.1879,126.71 -33.2135,126.516 -33.2519,126.323 -33.3027,126.133 -33.3536,125.943 -33.4168,125.757 -33.4919,125.576 -33.5671,125.394 -33.6541,125.218 -33.7523,125.048 -33.8505,124.878 -33.9597,124.714 -34.0793,124.558 -34.1989,124.403 -34.3285,124.255 -34.4674,124.116 -34.6063,123.977 -34.7541,123.847 -34.91,123.728 -35.0658,123.608 -35.2293,123.499 -35.3994,123.401 -35.5695,123.302 -35.7459,123.216 -35.9273,123.14 -36.1088,123.065 -36.295,123.002 -36.4847,122.951 -36.6744,122.9 -36.8673,122.862 -37.062,122.836 -37.2568,122.811 -37.453,122.798 -37.6494,122.798 -37.8458,122.798 -38.042,122.811 -38.2368,122.836 -38.4315,122.862 -38.6244,122.9 -38.8141,122.951 -39.0038,123.002 -39.19,123.065 -39.3715,123.14 -39.5529,123.216 -39.7293,123.302 -39.8994,123.401 -39.8994,123.401 -37.6494,127.298 -37.6494,127.298"/>
<path fill="#ff3030" stroke="black" stroke-width="0.5" d="M-37.6494,127.298C-37.6494,127.298 -39.8994,123.401 -39.8994,123.401 -40.0695,123.499 -40.233,123.608 -40.3888,123.728 -40.5447,123.847 -40.6925,123.977 -40.8314,124.116 -40.9703,124.255 -41.0999,124.403 -41.2195,124.558 -41.3391,124.714 -41.4483,124.878 -41.5465,125.048 -41.6447,125.218 -41.7317,125.394 -41.8069,125.576 -41.882,125.757 -41.9452,125.943 -41.9961,126.133 -42.0469,126.323 -42.0853,126.516 -42.1109,126.71 -42.1365,126.905 -42.1494,127.101 -42.1494,127.298 -42.1494,127.494 -42.1365,127.69 -42.1109,127.885 -42.0853,128.08 -42.0469,128.273 -41.9961,128.462 -41.9452,128.652 -41.882,128.838 -41.8069,129.02 -41.7317,129.201 -41.6447,129.378 -41.5465,129.548 -41.4483,129.718 -41.3391,129.881 -41.2195,130.037 -41.0999,130.193 -40.9703,130.341 -40.8314,130.48 -40.6925,130.619 -40.5447,130.748 -40.3888,130.868 -40.233,130.987 -40.0695,131.097 -39.8994,131.195 -39.7293,131.293 -39.5529,131.38 -39.3715,131.455 -39.19,131.53 -39.0038,131.594 -38.8141,131.644 -38.6244,131.695 -38.4315,131.734 -38.2368,131.759 -38.042,131.785 -37.8458,131.798 -37.6494,131.798 -37.453,131.798 -37.2568,131.785 -37.062,131.759 -36.8673,131.734 -36.6744,131.695 -36.4847,131.644 -36.295,131.594 -36.1088,131.53 -35.9273,131.455 -35.7459,131.38 -35.5695,131.293 -35.3994,131.195 -35.2293,131.097 -35.0658,130.987 -34.91,130.868 -34.7541,130.748 -34.6063,130.619 -34.4674,130.48 -34.3285,130.341 -34.1989,130.193 -34.0793,130.037 -33.9597,129.881 -33.8505,129.718 -33.7523,129.548 -33.6541,129.378 -33.5671,129.201 -33.4919,129.02 -33.4168,128.838 -33.3536,128.652 -33.3027,128.462 -33.2519,128.273 -33.2135,128.08 -33.1879,127.885 -33.1623,127.69 -33.1494,127.494 -33.1494,127.298 -33.1494,127.298 -37.6494,127.298 -37.6494,127.298"/>
<ellipse fill="none" stroke="black" cx="-37.6494" cy="127.298" rx="4.5" ry="4.5"/>
</g>
<!-- 6&#45;&gt;15 -->
<g id="edge30" class="edge"><title>6&#45;&gt;15</title>
<path fill="none" stroke="black" d="M-9.96995,65.3372C-17.726,82.6991 -28.1232,105.973 -33.7075,118.474"/>
<polygon fill="black" stroke="black" points="-32.1471,119.272 -35.7844,123.123 -35.3428,117.844 -32.1471,119.272"/>
<text text-anchor="middle" x="-43.8529" y="105.376" font-family="monospace" font-size="14.00">T791M</text>
</g>
<!-- 18 -->
<g id="node19" class="node"><title>18</title>
<ellipse fill="#ff3030" stroke="black" cx="-38.793" cy="15.6176" rx="4.5" ry="4.5"/>
</g>
<!-- 6&#45;&gt;18 -->
<g id="edge31" class="edge"><title>6&#45;&gt;18</title>
<path fill="none" stroke="black" d="M-19.9027,29.113C-23.7091,26.3937 -27.4921,23.6911 -30.6617,21.4267"/>
<polygon fill="black" stroke="black" points="-32.0016,22.6202 -35.0528,18.2896 -29.967,19.7723 -32.0016,22.6202"/>
<text text-anchor="middle" x="-52.5285" y="19.8651" font-family="monospace" font-size="14.00">N1345I</text>
</g>
<!-- 20 -->
<g id="node21" class="node"><title>20</title>
<path fill="deepskyblue" stroke="black" stroke-width="0.5" d="M14.6839,127.725C14.6839,127.725 22.1839,127.725 22.1839,127.725 22.1839,127.179 22.1243,126.635 22.0062,126.102 21.888,125.569 21.712,125.05 21.4813,124.556 21.2505,124.061 20.9664,123.593 20.6341,123.16 20.3017,122.726 19.9231,122.331 19.5048,121.98 19.0866,121.629 18.6313,121.325 18.1471,121.073 17.6628,120.821 17.1524,120.622 16.6251,120.481 16.0977,120.34 15.5565,120.256 15.0111,120.232 14.4657,120.209 13.9192,120.244 13.3816,120.339 12.8439,120.434 12.3182,120.587 11.8138,120.796 11.3094,121.005 10.8293,121.269 10.3821,121.582 9.9349,121.895 9.5232,122.256 9.15436,122.658 8.78552,123.061 8.46173,123.502 8.18875,123.975 7.91577,124.448 7.69524,124.949 7.53106,125.47 7.36689,125.991 7.26006,126.528 7.21248,127.072 7.1649,127.616 7.17684,128.163 7.24811,128.704 7.31937,129.246 7.44952,129.777 7.63625,130.29 7.63625,130.29 14.6839,127.725 14.6839,127.725"/>
<path fill="#98f5ff" stroke="black" stroke-width="0.5" d="M14.6839,127.725C14.6839,127.725 7.63625,130.29 7.63625,130.29 7.78558,130.701 7.97045,131.097 8.18875,131.475 8.40706,131.853 8.65796,132.212 8.93861,132.546 9.21926,132.881 9.52857,133.19 9.86304,133.471 10.1975,133.751 10.5558,134.002 10.9339,134.22 11.3121,134.439 11.7085,134.624 12.1188,134.773 12.5291,134.922 12.9516,135.036 13.3816,135.111 13.8116,135.187 14.2473,135.225 14.6839,135.225 15.1206,135.225 15.5563,135.187 15.9863,135.111 16.4163,135.036 16.8388,134.922 17.2491,134.773 17.6594,134.624 18.0558,134.439 18.4339,134.22 18.8121,134.002 19.1704,133.751 19.5048,133.471 19.8393,133.19 20.1486,132.881 20.4293,132.546 20.7099,132.212 20.9608,131.853 21.1791,131.475 21.3974,131.097 21.5823,130.701 21.7316,130.29 21.881,129.88 21.9942,129.458 22.07,129.028 22.1458,128.598 22.1839,128.162 22.1839,127.725 22.1839,127.725 14.6839,127.725 14.6839,127.725"/>
<ellipse fill="none" stroke="black" cx="14.6839" cy="127.725" rx="7.5" ry="7.5"/>
</g>
<!-- 6&#45;&gt;20 -->
<g id="edge32" class="edge"><title>6&#45;&gt;20</title>
<path fill="none" stroke="black" d="M4.09278,67.2357C6.81812,82.801 10.2607,102.463 12.4676,115.067"/>
<polygon fill="black" stroke="black" points="14.249,115.095 13.3876,120.322 10.8015,115.698 14.249,115.095"/>
<text text-anchor="middle" x="8.75075" y="105.039" font-family="monospace" font-size="14.00">E1597G</text>
</g>
<!-- 22 -->
<g id="node23" class="node"><title>22</title>
<path fill="deepskyblue" stroke="black" stroke-width="0.5" d="M66.5608,45.0596C66.5608,45.0596 75.5608,45.0596 75.5608,45.0596 75.5608,44.697 75.5389,44.3348 75.4951,43.9748 75.4514,43.6149 75.386,43.2579 75.2992,42.9058 75.2125,42.5537 75.1045,42.2072 74.9759,41.8682 74.8473,41.5292 74.6984,41.1982 74.5299,40.8771 74.3614,40.5561 74.1736,40.2455 73.9676,39.9471 73.7616,39.6487 73.5378,39.363 73.2974,39.0915 73.0569,38.8201 72.8003,38.5635 72.5289,38.3231 72.2575,38.0826 71.9718,37.8588 71.6733,37.6528 71.3749,37.4468 71.0643,37.2591 70.7433,37.0905 70.4222,36.922 70.0912,36.7731 69.7522,36.6445 69.4132,36.5159 69.0667,36.4079 68.7146,36.3212 68.3625,36.2344 68.0056,36.169 67.6456,36.1253 67.2856,36.0816 66.9234,36.0596 66.5608,36.0596 66.1982,36.0596 65.8359,36.0816 65.4759,36.1253 65.116,36.169 64.759,36.2344 64.4069,36.3212 64.0549,36.4079 63.7084,36.5159 63.3693,36.6445 63.0303,36.7731 62.6993,36.922 62.3783,37.0905 62.0572,37.2591 61.7466,37.4468 61.4482,37.6528 61.1498,37.8588 60.8641,38.0826 60.5927,38.3231 60.3212,38.5635 60.0646,38.8201 59.8242,39.0915 59.5837,39.363 59.3599,39.6487 59.1539,39.9471 58.9479,40.2455 58.7602,40.5561 58.5917,40.8771 58.4231,41.1982 58.2742,41.5292 58.1456,41.8682 58.017,42.2072 57.9091,42.5537 57.8223,42.9058 57.7355,43.2579 57.6701,43.6149 57.6264,43.9748 57.5827,44.3348 57.5608,44.697 57.5608,45.0596 57.5608,45.4223 57.5827,45.7845 57.6264,46.1445 57.6701,46.5044 57.7355,46.8614 57.8223,47.2135 57.9091,47.5656 58.017,47.9121 58.1456,48.2511 58.2742,48.5901 58.4232,48.9211 58.5917,49.2422 58.7602,49.5632 58.9479,49.8738 59.1539,50.1722 59.3599,50.4706 59.5837,50.7563 59.8242,51.0278 59.8242,51.0278 66.5608,45.0596 66.5608,45.0596"/>
<path fill="#98f5ff" stroke="black" stroke-width="0.5" d="M66.5608,45.0596C66.5608,45.0596 59.8242,51.0278 59.8242,51.0278 60.1248,51.3671 60.4506,51.6832 60.7988,51.9734 61.1471,52.2637 61.5168,52.5272 61.9047,52.7617 62.2927,52.9962 62.6978,53.2011 63.1166,53.3746 63.5354,53.548 63.9668,53.6896 64.4069,53.7981 64.8471,53.9066 65.2948,53.9817 65.7463,54.0227 66.1977,54.0637 66.6517,54.0706 67.1042,54.0432 67.5567,54.0159 68.0065,53.9543 68.4497,53.8592 68.8929,53.764 69.3283,53.6355 69.7522,53.4748 70.1761,53.314 70.5872,53.1215 70.9821,52.8988 71.3769,52.6761 71.7544,52.4239 72.1112,52.1443 72.4681,51.8647 72.8033,51.5586 73.114,51.2285 73.4248,50.8984 73.7101,50.5453 73.9676,50.1722 74.2251,49.7991 74.4541,49.4071 74.6526,48.9996 74.851,48.592 75.0184,48.17 75.1533,47.7372 75.2881,47.3044 75.3901,46.862 75.4583,46.4138 75.5265,45.9657 75.5608,45.513 75.5608,45.0596 75.5608,45.0596 66.5608,45.0596 66.5608,45.0596"/>
<ellipse fill="none" stroke="black" cx="66.5608" cy="45.0596" rx="9" ry="9"/>
</g>
<!-- 6&#45;&gt;22 -->
<g id="edge33" class="edge"><title>6&#45;&gt;22</title>
<path fill="none" stroke="black" d="M23.9624,43.9073C33.417,44.1631 43.952,44.448 52.1797,44.6706"/>
<polygon fill="black" stroke="black" points="52.5148,42.929 57.4657,44.8136 52.4201,46.4277 52.5148,42.929"/>
<text text-anchor="middle" x="65.7889" y="55.5625" font-family="monospace" font-size="14.00">V1853I</text>
</g>
<!-- 26 -->
<g id="node27" class="node"><title>26</title>
<ellipse fill="deepskyblue" stroke="black" cx="-14.4386" cy="83.0155" rx="2.5" ry="2.5"/>
</g>
<!-- 6&#45;&gt;26 -->
<g id="edge34" class="edge"><title>6&#45;&gt;26</title>
<path fill="none" stroke="black" d="M-8.27701,65.9232C-9.53118,69.4023 -10.7435,72.7652 -11.7561,75.5742"/>
<polygon fill="black" stroke="black" points="-10.1617,76.3119 -13.5037,80.4221 -13.4543,75.1249 -10.1617,76.3119"/>
<text text-anchor="middle" x="-27.8578" y="69.2824" font-family="monospace" font-size="14.00">P55L</text>
</g>
<!-- 31 -->
<g id="node32" class="node"><title>31</title>
<ellipse fill="deepskyblue" stroke="black" cx="-39.3241" cy="62.5492" rx="2.5" ry="2.5"/>
</g>
<!-- 6&#45;&gt;31 -->
<g id="edge35" class="edge"><title>6&#45;&gt;31</title>
<path fill="none" stroke="black" d="M-22.0082,54.0309C-25.5086,55.7528 -28.9101,57.4262 -31.7584,58.8274"/>
<polygon fill="black" stroke="black" points="-31.4233,60.6128 -36.6823,61.2496 -32.9683,57.4722 -31.4233,60.6128"/>
<text text-anchor="middle" x="-54.234" y="53.7855" font-family="monospace" font-size="14.00">V1303A</text>
</g>
<!-- 97 -->
<g id="node98" class="node"><title>97</title>
<ellipse fill="brown" stroke="black" cx="-52.3886" cy="38.3792" rx="2.5" ry="2.5"/>
</g>
<!-- 6&#45;&gt;97 -->
<g id="edge38" class="edge"><title>6&#45;&gt;97</title>
<path fill="none" stroke="black" d="M-24.1049,41.0175C-34.1984,40.076 -44.7206,39.0945 -49.5984,38.6395"/>
</g>
<!-- 98 -->
<g id="node99" class="node"><title>98</title>
<ellipse fill="brown" stroke="black" cx="-27.6198" cy="-41.8675" rx="4.5" ry="4.5"/>
</g>
<!-- 6&#45;&gt;98 -->
<g id="edge39" class="edge"><title>6&#45;&gt;98</title>
<path fill="none" stroke="black" d="M-7.62412,19.9958C-14.0521,0.108585 -22.7856,-26.9114 -26.1841,-37.4256"/>
</g>
<!-- 103 -->
<g id="node104" class="node"><title>103</title>
<ellipse fill="brown" stroke="black" cx="45.0438" cy="70.7896" rx="5.5" ry="5.5"/>
</g>
<!-- 6&#45;&gt;103 -->
<g id="edge40" class="edge"><title>6&#45;&gt;103</title>
<path fill="none" stroke="black" d="M20.619,55.8947C27.8517,60.3054 35.3394,64.8716 40.0856,67.7659"/>
</g>
<!-- 104 -->
<g id="node105" class="node"><title>104</title>
<ellipse fill="brown" stroke="black" cx="39.6005" cy="32.7972" rx="2.5" ry="2.5"/>
</g>
<!-- 6&#45;&gt;104 -->
<g id="edge41" class="edge"><title>6&#45;&gt;104</title>
<path fill="none" stroke="black" d="M23.4504,37.0513C29.0614,35.5733 34.2632,34.2031 37.1765,33.4357"/>
</g>
<!-- anon_6_44_0 -->
<g id="node125" class="node"><title>anon_6_44_0</title>
<ellipse fill="white" stroke="black" cx="10.2796" cy="3.58768" rx="1" ry="1"/>
</g>
<!-- 6&#45;&gt;anon_6_44_0 -->
<g id="edge36" class="edge"><title>6&#45;&gt;anon_6_44_0</title>
<path fill="none" stroke="black" d="M6.05543,19.7224C7.73266,13.316 9.27012,7.4434 9.93402,4.90752"/>
</g>
<!-- 8 -->
<g id="node9" class="node"><title>8</title>
<ellipse fill="deepskyblue" stroke="black" cx="-41.9191" cy="257.477" rx="2.5" ry="2.5"/>
</g>
<!-- 13 -->
<g id="node14" class="node"><title>13</title>
<path fill="deepskyblue" stroke="black" stroke-width="0.5" d="M-34.5861,197.452C-34.5861,197.452 -21.5861,197.452 -21.5861,197.452 -21.5861,196.83 -21.6308,196.209 -21.7197,195.593 -21.8087,194.977 -21.9417,194.369 -22.1178,193.772 -22.2938,193.176 -22.5125,192.593 -22.7721,192.027 -23.0316,191.462 -23.3314,190.916 -23.6692,190.394 -24.0069,189.871 -24.3817,189.374 -24.7907,188.905 -25.1996,188.436 -25.6417,187.998 -26.1135,187.592 -26.5853,187.187 -27.0855,186.816 -27.6104,186.482 -28.1353,186.148 -28.6835,185.853 -29.2508,185.597 -29.818,185.342 -30.4028,185.128 -31.0007,184.956 -31.5987,184.785 -32.2081,184.656 -32.8244,184.572 -33.4407,184.488 -34.0623,184.448 -34.6843,184.452 -35.3063,184.457 -35.9272,184.506 -36.5422,184.6 -37.1571,184.694 -37.7646,184.831 -38.3598,185.012 -38.9551,185.192 -39.5366,185.415 -40.0999,185.679 -40.6632,185.943 -41.2069,186.247 -41.7267,186.589 -42.2465,186.93 -42.7411,187.309 -43.2067,187.721 -43.6723,188.134 -44.1077,188.579 -44.5096,189.054 -44.9114,189.529 -45.2786,190.032 -45.6084,190.559 -45.9382,191.087 -46.2298,191.637 -46.4808,192.206 -46.7318,192.776 -46.9416,193.362 -47.1086,193.961 -47.2757,194.56 -47.3995,195.171 -47.4791,195.788 -47.5588,196.405 -47.594,197.026 -47.5846,197.648 -47.5752,198.27 -47.5212,198.891 -47.423,199.505 -47.3247,200.119 -47.1825,200.726 -46.9975,201.32 -46.8124,201.913 -46.585,202.493 -46.3169,203.055 -46.0488,203.616 -45.7408,204.157 -45.3952,204.674 -45.0496,205.192 -44.6674,205.683 -44.2514,206.146 -43.8354,206.608 -43.3867,207.04 -42.9089,207.439 -42.431,207.837 -41.9252,208.2 -41.3953,208.526 -40.8655,208.852 -40.3129,209.139 -39.7418,209.386 -39.1708,209.633 -38.5828,209.838 -37.9824,210.001 -37.3819,210.163 -36.7706,210.282 -36.1531,210.357 -36.1531,210.357 -34.5861,197.452 -34.5861,197.452"/>
<path fill="#98f5ff" stroke="black" stroke-width="0.5" d="M-34.5861,197.452C-34.5861,197.452 -36.1531,210.357 -36.1531,210.357 -35.6982,210.413 -35.2407,210.444 -34.7825,210.451 -34.3243,210.457 -33.866,210.44 -33.4096,210.399 -32.9533,210.357 -32.4994,210.292 -32.0499,210.202 -31.6005,210.113 -31.1561,210 -30.7186,209.863 -30.2811,209.727 -29.8511,209.568 -29.4304,209.386 -29.0097,209.204 -28.599,209 -28.1998,208.775 -27.8007,208.55 -27.4137,208.304 -27.0405,208.038 -26.6674,207.772 -26.3085,207.487 -25.9655,207.183 -25.6225,206.879 -25.2958,206.557 -24.9868,206.219 -24.6778,205.88 -24.3868,205.526 -24.1153,205.157 -23.8437,204.788 -23.5918,204.404 -23.3607,204.009 -23.1295,203.613 -22.9195,203.205 -22.7314,202.787 -22.5433,202.37 -22.3775,201.942 -22.2346,201.507 -22.0917,201.071 -21.9718,200.629 -21.8757,200.181 -21.7795,199.732 -21.7071,199.28 -21.6587,198.824 -21.6104,198.368 -21.5861,197.91 -21.5861,197.452 -21.5861,197.452 -34.5861,197.452 -34.5861,197.452"/>
<ellipse fill="none" stroke="black" cx="-34.5861" cy="197.452" rx="13" ry="13"/>
</g>
<!-- 8&#45;&gt;13 -->
<g id="edge42" class="edge"><title>8&#45;&gt;13</title>
<path fill="none" stroke="black" d="M-41.604,254.898C-40.6829,247.358 -37.9484,224.975 -36.1773,210.477"/>
</g>
<!-- 17 -->
<g id="node18" class="node"><title>17</title>
<ellipse fill="#ff3030" stroke="black" cx="-118.626" cy="99.4158" rx="2.5" ry="2.5"/>
</g>
<!-- 14&#45;&gt;17 -->
<g id="edge44" class="edge"><title>14&#45;&gt;17</title>
<path fill="none" stroke="black" d="M-75.4518,87.3934C-84.086,89.7977 -101.456,94.6346 -111.329,97.384"/>
<polygon fill="black" stroke="black" points="-110.867,99.0718 -116.153,98.7273 -111.806,95.7001 -110.867,99.0718"/>
<text text-anchor="middle" x="-117.049" y="89.3291" font-family="monospace" font-size="14.00">M704V</text>
</g>
<!-- 29 -->
<g id="node30" class="node"><title>29</title>
<ellipse fill="#ff3030" stroke="black" cx="-98.4968" cy="130.662" rx="2.5" ry="2.5"/>
</g>
<!-- 14&#45;&gt;29 -->
<g id="edge45" class="edge"><title>14&#45;&gt;29</title>
<path fill="none" stroke="black" d="M-73.0867,90.4029C-78.9975,99.768 -92.5445,121.231 -97.0267,128.333"/>
</g>
<!-- 15&#45;&gt;13 -->
<g id="edge43" class="edge"><title>15&#45;&gt;13</title>
<path fill="none" stroke="black" d="M-37.4484,131.901C-37.037,141.322 -36.0793,163.255 -35.3848,179.161"/>
<polygon fill="black" stroke="black" points="-33.6304,179.226 -35.1605,184.298 -37.127,179.379 -33.6304,179.226"/>
<text text-anchor="middle" x="-61.3073" y="154.234" font-family="monospace" font-size="14.00">A1746S</text>
</g>
<!-- anon_15_21_0 -->
<g id="node126" class="node"><title>anon_15_21_0</title>
<ellipse fill="white" stroke="black" cx="-74.6614" cy="160.948" rx="1" ry="1"/>
</g>
<!-- 15&#45;&gt;anon_15_21_0 -->
<g id="edge46" class="edge"><title>15&#45;&gt;anon_15_21_0</title>
<path fill="none" stroke="black" d="M-41.0651,130.403C-49.0824,137.692 -68.7916,155.611 -73.5936,159.977"/>
</g>
<!-- 16 -->
<g id="node17" class="node"><title>16</title>
<ellipse fill="#ff3030" stroke="black" cx="135.545" cy="-93.2728" rx="2.5" ry="2.5"/>
</g>
<!-- 32 -->
<g id="node33" class="node"><title>32</title>
<ellipse fill="deepskyblue" stroke="black" cx="42.6723" cy="175.697" rx="2.5" ry="2.5"/>
</g>
<!-- 20&#45;&gt;32 -->
<g id="edge48" class="edge"><title>20&#45;&gt;32</title>
<path fill="none" stroke="black" d="M18.5756,134.396C24.9443,145.311 37.2902,166.472 41.3459,173.423"/>
</g>
<!-- 35 -->
<g id="node36" class="node"><title>35</title>
<ellipse fill="deepskyblue" stroke="black" cx="2.98145" cy="182.279" rx="2.5" ry="2.5"/>
</g>
<!-- 20&#45;&gt;35 -->
<g id="edge49" class="edge"><title>20&#45;&gt;35</title>
<path fill="none" stroke="black" d="M13.0568,135.311C10.3939,147.724 5.23185,171.788 3.53606,179.693"/>
</g>
<!-- 21 -->
<g id="node22" class="node"><title>21</title>
<ellipse fill="deepskyblue" stroke="black" cx="-106.906" cy="195.43" rx="2.5" ry="2.5"/>
</g>
<!-- 25 -->
<g id="node26" class="node"><title>25</title>
<ellipse fill="deepskyblue" stroke="black" cx="-37" cy="-13" rx="2.5" ry="2.5"/>
</g>
<!-- 28 -->
<g id="node29" class="node"><title>28</title>
<ellipse fill="#ff3030" stroke="black" cx="-87.32" cy="-79.0359" rx="2.5" ry="2.5"/>
</g>
<!-- 30 -->
<g id="node31" class="node"><title>30</title>
<ellipse fill="#ff3030" stroke="black" cx="-46.68" cy="-72.9641" rx="2.5" ry="2.5"/>
</g>
<!-- 28&#45;&gt;30 -->
<g id="edge50" class="edge"><title>28&#45;&gt;30</title>
<path fill="none" stroke="black" d="M-84.6535,-78.6375C-78.6275,-77.7372 -63.7653,-75.5167 -54.5225,-74.1358"/>
<polygon fill="black" stroke="black" points="-54.0961,-75.8416 -49.4096,-73.3719 -54.6133,-72.38 -54.0961,-75.8416"/>
<text text-anchor="middle" x="-92.0646" y="-64.8097" font-family="monospace" font-size="14.00">N1570Y</text>
</g>
<!-- 36 -->
<g id="node37" class="node"><title>36</title>
<ellipse fill="#ff3030" stroke="black" cx="-67" cy="-13" rx="2.5" ry="2.5"/>
</g>
<!-- 37 -->
<g id="node38" class="node"><title>37</title>
<ellipse fill="#ff3030" stroke="black" cx="-87" cy="57" rx="2.5" ry="2.5"/>
</g>
<!-- 39 -->
<g id="node40" class="node"><title>39</title>
<ellipse fill="#ff3030" stroke="black" cx="103" cy="77" rx="2.5" ry="2.5"/>
</g>
<!-- 42 -->
<g id="node43" class="node"><title>42</title>
<ellipse fill="#ff3030" stroke="black" cx="103" cy="-13" rx="2.5" ry="2.5"/>
</g>
<!-- 43 -->
<g id="node44" class="node"><title>43</title>
<ellipse fill="#ff3030" stroke="black" cx="103" cy="-93" rx="2.5" ry="2.5"/>
</g>
<!-- 44 -->
<g id="node45" class="node"><title>44</title>
<ellipse fill="deepskyblue" stroke="black" cx="28.0487" cy="-35.7979" rx="2.5" ry="2.5"/>
</g>
<!-- 45 -->
<g id="node46" class="node"><title>45</title>
<path fill="#1874cd" stroke="black" stroke-width="0.5" d="M192.662,-193.98C192.662,-193.98 225.662,-193.98 225.662,-193.98 225.662,-194.912 225.622,-195.844 225.544,-196.773 225.465,-197.701 225.346,-198.627 225.189,-199.545 225.032,-200.464 224.836,-201.376 224.602,-202.278 224.367,-203.181 224.095,-204.073 223.785,-204.952 223.475,-205.831 223.128,-206.697 222.744,-207.546 222.361,-208.396 221.942,-209.229 221.488,-210.044 221.034,-210.858 220.546,-211.653 220.025,-212.426 219.504,-213.199 218.951,-213.949 218.366,-214.675 217.781,-215.401 217.166,-216.102 216.522,-216.776 215.878,-217.45 215.206,-218.097 214.507,-218.714 213.809,-219.331 213.084,-219.918 212.336,-220.474 211.587,-221.03 210.815,-221.554 210.023,-222.044 209.23,-222.534 208.417,-222.991 207.585,-223.413 206.754,-223.834 205.905,-224.22 205.041,-224.57 204.177,-224.92 203.298,-225.233 202.407,-225.508 201.517,-225.783 200.615,-226.021 199.704,-226.22 198.793,-226.419 197.875,-226.579 196.95,-226.7 196.026,-226.821 195.097,-226.903 194.166,-226.945 193.234,-226.988 192.302,-226.991 191.37,-226.954 190.439,-226.918 189.509,-226.842 188.584,-226.727 187.659,-226.612 186.739,-226.457 185.827,-226.264 184.915,-226.071 184.012,-225.84 183.12,-225.57 182.227,-225.3 181.347,-224.993 180.48,-224.649 179.614,-224.305 178.762,-223.924 177.928,-223.508 177.094,-223.092 176.278,-222.64 175.482,-222.155 174.686,-221.67 173.911,-221.151 173.159,-220.6 172.407,-220.049 171.679,-219.467 170.976,-218.854 170.273,-218.241 169.597,-217.599 168.949,-216.929 168.3,-216.259 167.681,-215.562 167.092,-214.84 166.502,-214.118 165.944,-213.371 165.418,-212.601 164.892,-211.832 164.399,-211.04 163.94,-210.229 163.481,-209.417 163.056,-208.587 162.667,-207.739 162.279,-206.892 161.926,-206.029 161.611,-205.152 161.295,-204.274 161.017,-203.384 160.776,-202.484 160.536,-201.583 160.334,-200.672 160.171,-199.754 160.008,-198.837 159.884,-197.912 159.799,-196.984 159.714,-196.056 159.669,-195.124 159.663,-194.192 159.657,-193.26 159.69,-192.328 159.763,-191.398 159.836,-190.469 159.948,-189.543 160.1,-188.623 160.251,-187.703 160.441,-186.79 160.67,-185.887 160.898,-184.983 161.165,-184.089 161.47,-183.208 161.774,-182.327 162.115,-181.459 162.493,-180.607 162.871,-179.755 163.285,-178.919 163.733,-178.101 164.182,-177.284 164.665,-176.486 165.181,-175.71 165.697,-174.934 166.246,-174.18 166.826,-173.45 167.405,-172.72 168.016,-172.015 168.656,-171.337 169.295,-170.659 169.963,-170.008 170.658,-169.386 171.353,-168.765 172.074,-168.173 172.819,-167.612 173.563,-167.052 174.332,-166.523 175.121,-166.028 175.911,-165.532 176.721,-165.07 177.55,-164.643 178.379,-164.216 179.225,-163.825 180.087,-163.47 180.949,-163.114 181.825,-162.796 182.714,-162.515 183.603,-162.234 184.503,-161.991 185.413,-161.786 186.322,-161.581 187.24,-161.415 188.164,-161.288 189.087,-161.161 190.016,-161.073 190.946,-161.024 191.877,-160.976 192.81,-160.967 193.742,-160.997 194.673,-161.028 195.603,-161.098 196.529,-161.207 197.455,-161.316 198.376,-161.465 199.289,-161.652 200.202,-161.839 201.107,-162.065 202.001,-162.329 202.895,-162.593 203.778,-162.894 204.646,-163.233 205.515,-163.571 206.369,-163.947 207.206,-164.357 208.042,-164.768 208.861,-165.214 209.66,-165.695 210.459,-166.175 211.238,-166.689 211.993,-167.235 212.749,-167.781 213.481,-168.359 214.187,-168.967 214.187,-168.967 192.662,-193.98 192.662,-193.98"/>
<path fill="olivedrab" stroke="black" stroke-width="0.5" d="M192.662,-193.98C192.662,-193.98 214.187,-168.967 214.187,-168.967 215.084,-169.738 215.939,-170.558 216.748,-171.421 217.556,-172.285 218.318,-173.191 219.029,-174.136 219.741,-175.082 220.401,-176.064 221.007,-177.081 221.612,-178.097 222.163,-179.145 222.656,-180.22 223.15,-181.295 223.585,-182.396 223.96,-183.518 224.335,-184.64 224.649,-185.782 224.902,-186.938 225.154,-188.093 225.344,-189.262 225.471,-190.438 225.598,-191.614 225.662,-192.797 225.662,-193.98 225.662,-193.98 192.662,-193.98 192.662,-193.98"/>
<ellipse fill="none" stroke="black" cx="192.662" cy="-193.98" rx="33" ry="33"/>
</g>
<!-- 50 -->
<g id="node51" class="node"><title>50</title>
<ellipse fill="#1874cd" stroke="black" cx="251.914" cy="-206.56" rx="2.5" ry="2.5"/>
</g>
<!-- 45&#45;&gt;50 -->
<g id="edge51" class="edge"><title>45&#45;&gt;50</title>
<path fill="none" stroke="black" d="M225.062,-200.859C235.22,-203.016 244.94,-205.08 249.387,-206.024"/>
</g>
<!-- 51 -->
<g id="node52" class="node"><title>51</title>
<ellipse fill="#1874cd" stroke="black" cx="160.086" cy="-103.363" rx="2.5" ry="2.5"/>
</g>
<!-- 45&#45;&gt;51 -->
<g id="edge52" class="edge"><title>45&#45;&gt;51</title>
<path fill="none" stroke="black" d="M181.451,-162.795C173.648,-141.088 164.117,-114.576 161.071,-106.103"/>
</g>
<!-- 57 -->
<g id="node58" class="node"><title>57</title>
<ellipse fill="#1874cd" stroke="black" cx="147.117" cy="-268.148" rx="2.5" ry="2.5"/>
</g>
<!-- 45&#45;&gt;57 -->
<g id="edge53" class="edge"><title>45&#45;&gt;57</title>
<path fill="none" stroke="black" d="M175.183,-222.443C164.748,-239.437 152.742,-258.988 148.607,-265.722"/>
</g>
<!-- 61 -->
<g id="node62" class="node"><title>61</title>
<ellipse fill="#1874cd" stroke="black" cx="143.102" cy="-226.347" rx="2.5" ry="2.5"/>
</g>
<!-- 45&#45;&gt;61 -->
<g id="edge54" class="edge"><title>45&#45;&gt;61</title>
<path fill="none" stroke="black" d="M164.984,-212.056C156.825,-217.385 149.09,-222.436 145.385,-224.856"/>
</g>
<!-- 66 -->
<g id="node67" class="node"><title>66</title>
<ellipse fill="#1874cd" stroke="black" cx="107.836" cy="-158.921" rx="2.5" ry="2.5"/>
</g>
<!-- 45&#45;&gt;66 -->
<g id="edge55" class="edge"><title>45&#45;&gt;66</title>
<path fill="none" stroke="black" d="M162.038,-181.323C141.917,-173.006 117.95,-163.101 110.306,-159.942"/>
</g>
<!-- 70 -->
<g id="node71" class="node"><title>70</title>
<ellipse fill="#1874cd" stroke="black" cx="268.117" cy="-149.6" rx="2.5" ry="2.5"/>
</g>
<!-- 45&#45;&gt;70 -->
<g id="edge56" class="edge"><title>45&#45;&gt;70</title>
<path fill="none" stroke="black" d="M221.188,-177.202C238.55,-166.991 258.679,-155.151 265.617,-151.07"/>
</g>
<!-- 72 -->
<g id="node73" class="node"><title>72</title>
<ellipse fill="#1874cd" stroke="black" cx="131.919" cy="-134.133" rx="2.5" ry="2.5"/>
</g>
<!-- 45&#45;&gt;72 -->
<g id="edge57" class="edge"><title>45&#45;&gt;72</title>
<path fill="none" stroke="black" d="M169.003,-170.67C155.145,-157.017 139.325,-141.43 133.879,-136.065"/>
</g>
<!-- 74 -->
<g id="node75" class="node"><title>74</title>
<ellipse fill="#1874cd" stroke="black" cx="214.597" cy="-102.927" rx="2.5" ry="2.5"/>
</g>
<!-- 45&#45;&gt;74 -->
<g id="edge58" class="edge"><title>45&#45;&gt;74</title>
<path fill="none" stroke="black" d="M200.395,-161.878C205.625,-140.169 211.932,-113.988 213.946,-105.629"/>
</g>
<!-- 80 -->
<g id="node81" class="node"><title>80</title>
<ellipse fill="#1874cd" stroke="black" cx="102.295" cy="-195.144" rx="2.5" ry="2.5"/>
</g>
<!-- 45&#45;&gt;80 -->
<g id="edge60" class="edge"><title>45&#45;&gt;80</title>
<path fill="none" stroke="black" d="M159.526,-194.407C138.168,-194.682 112.936,-195.007 104.893,-195.11"/>
</g>
<!-- 81 -->
<g id="node82" class="node"><title>81</title>
<ellipse fill="#1874cd" stroke="black" cx="286.948" cy="-183.001" rx="3.5" ry="3.5"/>
</g>
<!-- 45&#45;&gt;81 -->
<g id="edge61" class="edge"><title>45&#45;&gt;81</title>
<path fill="none" stroke="black" d="M225.639,-190.14C247.517,-187.592 273.884,-184.522 283.349,-183.42"/>
</g>
<!-- 88 -->
<g id="node89" class="node"><title>88</title>
<ellipse fill="#1874cd" stroke="black" cx="224.049" cy="-259.978" rx="3.5" ry="3.5"/>
</g>
<!-- 45&#45;&gt;88 -->
<g id="edge64" class="edge"><title>45&#45;&gt;88</title>
<path fill="none" stroke="black" d="M206.886,-223.889C213.115,-236.986 219.654,-250.738 222.535,-256.795"/>
</g>
<!-- 93 -->
<g id="node94" class="node"><title>93</title>
<ellipse fill="#1874cd" stroke="black" cx="275.61" cy="-248.936" rx="2.5" ry="2.5"/>
</g>
<!-- 45&#45;&gt;93 -->
<g id="edge65" class="edge"><title>45&#45;&gt;93</title>
<path fill="none" stroke="black" d="M220.283,-212.279C240.642,-225.768 266.034,-242.591 273.471,-247.519"/>
</g>
<!-- 96 -->
<g id="node97" class="node"><title>96</title>
<ellipse fill="#1874cd" stroke="black" cx="247.837" cy="-121.871" rx="2.5" ry="2.5"/>
</g>
<!-- 45&#45;&gt;96 -->
<g id="edge66" class="edge"><title>45&#45;&gt;96</title>
<path fill="none" stroke="black" d="M212.894,-167.538C223.693,-153.425 236.115,-137.191 242.854,-128.383"/>
<polygon fill="black" stroke="black" points="244.603,-128.978 246.251,-123.944 241.823,-126.851 244.603,-128.978"/>
<text text-anchor="middle" x="208.644" y="-149.447" font-family="monospace" font-size="14.00">A837V</text>
</g>
<!-- 116 -->
<g id="node117" class="node"><title>116</title>
<ellipse fill="olivedrab" stroke="black" cx="107.102" cy="-239.265" rx="2.5" ry="2.5"/>
</g>
<!-- 45&#45;&gt;116 -->
<g id="edge67" class="edge"><title>45&#45;&gt;116</title>
<path fill="none" stroke="black" d="M163.217,-209.565C142.722,-220.413 117.689,-233.662 109.689,-237.896"/>
</g>
<!-- anon_45_83_0 -->
<g id="node127" class="node"><title>anon_45_83_0</title>
<ellipse fill="white" stroke="black" cx="190.305" cy="-290.046" rx="1" ry="1"/>
</g>
<!-- 45&#45;&gt;anon_45_83_0 -->
<g id="edge62" class="edge"><title>45&#45;&gt;anon_45_83_0</title>
<path fill="none" stroke="black" d="M191.851,-227.04C191.254,-251.355 190.518,-281.358 190.343,-288.479"/>
</g>
<!-- 47 -->
<g id="node48" class="node"><title>47</title>
<ellipse fill="#1874cd" stroke="black" cx="238.94" cy="-13.6244" rx="15" ry="15"/>
</g>
<!-- 82 -->
<g id="node83" class="node"><title>82</title>
<ellipse fill="#1874cd" stroke="black" cx="234.379" cy="-74.8193" rx="2.5" ry="2.5"/>
</g>
<!-- 47&#45;&gt;82 -->
<g id="edge70" class="edge"><title>47&#45;&gt;82</title>
<path fill="none" stroke="black" d="M237.813,-28.7512C236.715,-43.475 235.134,-64.6848 234.58,-72.1208"/>
</g>
<!-- 87 -->
<g id="node88" class="node"><title>87</title>
<ellipse fill="#1874cd" stroke="black" cx="182.073" cy="-26.1939" rx="2.5" ry="2.5"/>
</g>
<!-- 47&#45;&gt;87 -->
<g id="edge71" class="edge"><title>47&#45;&gt;87</title>
<path fill="none" stroke="black" d="M223.999,-16.9269C210.573,-19.8946 191.921,-24.0172 184.898,-25.5695"/>
</g>
<!-- 90 -->
<g id="node91" class="node"><title>90</title>
<ellipse fill="#1874cd" stroke="black" cx="209.642" cy="40.2505" rx="2.5" ry="2.5"/>
</g>
<!-- 47&#45;&gt;90 -->
<g id="edge72" class="edge"><title>47&#45;&gt;90</title>
<path fill="none" stroke="black" d="M231.698,-0.307004C224.649,12.6555 214.494,31.3282 210.934,37.8748"/>
</g>
<!-- 48 -->
<g id="node49" class="node"><title>48</title>
<ellipse fill="#1874cd" stroke="black" cx="341.675" cy="6.93094" rx="6" ry="6"/>
</g>
<!-- 53 -->
<g id="node54" class="node"><title>53</title>
<ellipse fill="#1874cd" stroke="black" cx="367.238" cy="53.7876" rx="6" ry="6"/>
</g>
<!-- 48&#45;&gt;53 -->
<g id="edge73" class="edge"><title>48&#45;&gt;53</title>
<path fill="none" stroke="black" d="M344.608,12.306C348.807,20.0028 356.604,34.2957 361.857,43.9247"/>
<polygon fill="black" stroke="black" points="363.481,43.2478 364.34,48.4753 360.409,44.9241 363.481,43.2478"/>
<text text-anchor="middle" x="333.311" y="26.2933" font-family="monospace" font-size="14.00">G317S</text>
</g>
<!-- 64 -->
<g id="node65" class="node"><title>64</title>
<ellipse fill="#1874cd" stroke="black" cx="378.721" cy="-25.1522" rx="2.5" ry="2.5"/>
</g>
<!-- 48&#45;&gt;64 -->
<g id="edge74" class="edge"><title>48&#45;&gt;64</title>
<path fill="none" stroke="black" d="M346.218,2.99691C354.255,-3.96389 370.689,-18.1962 376.569,-23.2886"/>
</g>
<!-- anon_47_48_0 -->
<g id="node128" class="node"><title>anon_47_48_0</title>
<ellipse fill="white" stroke="black" cx="295.331" cy="-1.17921" rx="1" ry="1"/>
</g>
<!-- 48&#45;&gt;anon_47_48_0 -->
<g id="edge69" class="edge"><title>48&#45;&gt;anon_47_48_0</title>
<path fill="none" stroke="black" d="M335.617,5.87068C326.772,4.32281 310.41,1.45961 301.502,-0.0992996"/>
<polygon fill="black" stroke="black" points="301.17,1.61933 296.547,-0.966453 301.774,-1.82828 301.17,1.61933"/>
<text text-anchor="middle" x="290.926" y="-1.37515" font-family="monospace" font-size="14.00">I1940T</text>
</g>
<!-- 49 -->
<g id="node50" class="node"><title>49</title>
<ellipse fill="#1874cd" stroke="black" cx="-75.9675" cy="-312.557" rx="2.5" ry="2.5"/>
</g>
<!-- 56 -->
<g id="node57" class="node"><title>56</title>
<path fill="#1874cd" stroke="black" stroke-width="0.5" d="M-50.2243,-266.89C-50.2243,-266.89 -42.2243,-266.89 -42.2243,-266.89 -42.2243,-267.256 -42.2496,-267.623 -42.2998,-267.986 -42.35,-268.349 -42.4252,-268.708 -42.5247,-269.061 -42.6242,-269.414 -42.7479,-269.76 -42.8948,-270.096 -43.0418,-270.432 -43.2116,-270.757 -43.4032,-271.07 -43.5948,-271.382 -43.8077,-271.682 -44.0403,-271.965 -44.2729,-272.248 -44.5247,-272.515 -44.7939,-272.764 -45.0632,-273.013 -45.3492,-273.243 -45.65,-273.453 -45.9509,-273.663 -46.2657,-273.851 -46.5924,-274.018 -46.9191,-274.184 -47.2569,-274.328 -47.6033,-274.448 -47.9497,-274.568 -48.304,-274.665 -48.6636,-274.736 -49.0232,-274.808 -49.3874,-274.854 -49.7534,-274.876 -50.1194,-274.897 -50.4865,-274.894 -50.852,-274.865 -51.2176,-274.836 -51.5807,-274.782 -51.9388,-274.704 -52.297,-274.625 -52.6493,-274.522 -52.9933,-274.395 -53.3373,-274.268 -53.6722,-274.118 -53.9955,-273.945 -54.3189,-273.772 -54.63,-273.577 -54.9266,-273.362 -55.2233,-273.146 -55.5047,-272.911 -55.769,-272.657 -56.0334,-272.402 -56.2799,-272.13 -56.5069,-271.843 -56.7339,-271.555 -56.9408,-271.251 -57.1262,-270.935 -57.3116,-270.619 -57.4751,-270.29 -57.6154,-269.951 -57.7557,-269.613 -57.8726,-269.265 -57.9651,-268.91 -58.0577,-268.555 -58.1258,-268.194 -58.1689,-267.83 -58.212,-267.466 -58.23,-267.099 -58.2228,-266.733 -58.2156,-266.366 -58.1832,-266 -58.1259,-265.638 -58.0685,-265.276 -57.9863,-264.918 -57.8799,-264.568 -57.7734,-264.217 -57.643,-263.873 -57.4895,-263.541 -57.336,-263.208 -57.1598,-262.885 -56.9621,-262.577 -56.7644,-262.268 -56.5457,-261.973 -56.3076,-261.694 -56.0695,-261.415 -55.8124,-261.153 -55.5384,-260.91 -55.2643,-260.666 -54.9738,-260.442 -54.6689,-260.238 -54.364,-260.034 -54.0455,-259.852 -53.7156,-259.692 -53.3857,-259.532 -53.0452,-259.395 -52.6965,-259.281 -52.6965,-259.281 -50.2243,-266.89 -50.2243,-266.89"/>
<path fill="olivedrab" stroke="black" stroke-width="0.5" d="M-50.2243,-266.89C-50.2243,-266.89 -52.6965,-259.281 -52.6965,-259.281 -52.3976,-259.184 -52.0933,-259.105 -51.7851,-259.044 -51.4769,-258.982 -51.1653,-258.939 -50.852,-258.914 -50.5387,-258.89 -50.2243,-258.884 -49.9103,-258.896 -49.5963,-258.908 -49.2833,-258.939 -48.9729,-258.988 -48.6625,-259.037 -48.3553,-259.105 -48.0528,-259.19 -47.7504,-259.275 -47.4532,-259.378 -47.1629,-259.499 -46.8725,-259.619 -46.5896,-259.756 -46.3154,-259.91 -46.0412,-260.063 -45.7763,-260.233 -45.5221,-260.418 -45.2678,-260.602 -45.0247,-260.802 -44.7939,-261.015 -44.5632,-261.229 -44.3452,-261.455 -44.1411,-261.694 -43.937,-261.933 -43.7472,-262.184 -43.5726,-262.445 -43.398,-262.707 -43.239,-262.978 -43.0963,-263.258 -42.9536,-263.538 -42.8276,-263.826 -42.7188,-264.121 -42.61,-264.416 -42.5187,-264.717 -42.4454,-265.022 -42.372,-265.328 -42.3167,-265.637 -42.2798,-265.949 -42.2429,-266.262 -42.2243,-266.576 -42.2243,-266.89 -42.2243,-266.89 -50.2243,-266.89 -50.2243,-266.89"/>
<ellipse fill="none" stroke="black" cx="-50.2243" cy="-266.89" rx="8" ry="8"/>
</g>
<!-- 49&#45;&gt;56 -->
<g id="edge75" class="edge"><title>49&#45;&gt;56</title>
<path fill="none" stroke="black" d="M-74.7259,-310.354C-71.07,-303.869 -60.2285,-284.637 -54.2662,-274.06"/>
</g>
<!-- 52 -->
<g id="node53" class="node"><title>52</title>
<path fill="#1874cd" stroke="black" stroke-width="0.5" d="M14.2295,-244.942C14.2295,-244.942 24.2295,-244.942 24.2295,-244.942 24.2295,-245.553 24.1734,-246.163 24.062,-246.764 23.9506,-247.365 23.7843,-247.955 23.5653,-248.525 23.3462,-249.096 23.0753,-249.646 22.7559,-250.167 22.4365,-250.688 22.07,-251.179 21.6609,-251.633 21.2519,-252.087 20.8021,-252.503 20.3171,-252.875 19.8321,-253.247 19.314,-253.574 18.7694,-253.852 18.2247,-254.129 17.6557,-254.356 17.0696,-254.53 16.4835,-254.704 15.8827,-254.823 15.2748,-254.887 14.6668,-254.951 14.0543,-254.959 13.4449,-254.911 12.8355,-254.863 12.2317,-254.759 11.6413,-254.601 11.0508,-254.443 10.4761,-254.231 9.92436,-253.968 9.37262,-253.704 8.84617,-253.391 8.35162,-253.032 7.85707,-252.673 7.39652,-252.269 6.97573,-251.825 6.55494,-251.382 6.1757,-250.901 5.84277,-250.388 5.50983,-249.876 5.22461,-249.333 4.99068,-248.769 4.75675,-248.204 4.57509,-247.619 4.448,-247.021 4.448,-247.021 14.2295,-244.942 14.2295,-244.942"/>
<path fill="olivedrab" stroke="black" stroke-width="0.5" d="M14.2295,-244.942C14.2295,-244.942 4.448,-247.021 4.448,-247.021 4.30271,-246.337 4.22947,-245.641 4.22947,-244.942 4.22947,-244.243 4.30271,-243.546 4.448,-242.863 4.59328,-242.179 4.8098,-241.513 5.09402,-240.874 5.37823,-240.236 5.72858,-239.629 6.1393,-239.064 6.55003,-238.499 7.01888,-237.978 7.53817,-237.51 8.05745,-237.043 8.62432,-236.631 9.22947,-236.282 9.83463,-235.932 10.4747,-235.647 11.1393,-235.431 11.8039,-235.215 12.4892,-235.07 13.1842,-234.997 13.8791,-234.924 14.5798,-234.924 15.2748,-234.997 15.9697,-235.07 16.6551,-235.215 17.3196,-235.431 17.9842,-235.647 18.6243,-235.932 19.2295,-236.282 19.8346,-236.631 20.4015,-237.043 20.9208,-237.51 21.4401,-237.978 21.9089,-238.499 22.3196,-239.064 22.7304,-239.629 23.0807,-240.236 23.3649,-240.874 23.6491,-241.513 23.8657,-242.179 24.0109,-242.863 24.1562,-243.546 24.2295,-244.243 24.2295,-244.942 24.2295,-244.942 14.2295,-244.942 14.2295,-244.942"/>
<ellipse fill="none" stroke="black" cx="14.2295" cy="-244.942" rx="10" ry="10"/>
</g>
<!-- 54 -->
<g id="node55" class="node"><title>54</title>
<ellipse fill="#1874cd" stroke="black" cx="14.7736" cy="-184.012" rx="4.5" ry="4.5"/>
</g>
<!-- 52&#45;&gt;54 -->
<g id="edge76" class="edge"><title>52&#45;&gt;54</title>
<path fill="none" stroke="black" d="M14.3193,-234.88C14.4389,-221.495 14.6453,-198.385 14.7326,-188.601"/>
</g>
<!-- 52&#45;&gt;56 -->
<g id="edge77" class="edge"><title>52&#45;&gt;56</title>
<path fill="none" stroke="black" d="M4.71909,-248.18C-6.43395,-251.978 -24.9726,-258.291 -37.3922,-262.52"/>
<polygon fill="black" stroke="black" points="-38.1319,-260.923 -42.3009,-264.192 -37.0036,-264.236 -38.1319,-260.923"/>
<text text-anchor="middle" x="-44.0646" y="-245.079" font-family="monospace" font-size="14.00">F1920S</text>
</g>
<!-- 67 -->
<g id="node68" class="node"><title>67</title>
<ellipse fill="#1874cd" stroke="black" cx="51.5194" cy="-288.097" rx="2.5" ry="2.5"/>
</g>
<!-- 52&#45;&gt;67 -->
<g id="edge78" class="edge"><title>52&#45;&gt;67</title>
<path fill="none" stroke="black" d="M21.069,-252.857C29.8158,-262.98 44.4511,-279.917 49.6318,-285.912"/>
</g>
<!-- 115 -->
<g id="node116" class="node"><title>115</title>
<ellipse fill="olivedrab" stroke="black" cx="10.6963" cy="-298.45" rx="2.5" ry="2.5"/>
</g>
<!-- 52&#45;&gt;115 -->
<g id="edge79" class="edge"><title>52&#45;&gt;115</title>
<path fill="none" stroke="black" d="M13.5483,-255.259C12.864,-265.622 11.8249,-281.358 11.208,-290.701"/>
<polygon fill="black" stroke="black" points="9.45488,-290.692 10.8716,-295.797 12.9473,-290.923 9.45488,-290.692"/>
<text text-anchor="middle" x="-8.76563" y="-278.957" font-family="monospace" font-size="14.00">R537L</text>
</g>
<!-- 117 -->
<g id="node118" class="node"><title>117</title>
<ellipse fill="olivedrab" stroke="black" cx="-21.5785" cy="-206.863" rx="2.5" ry="2.5"/>
</g>
<!-- 52&#45;&gt;117 -->
<g id="edge80" class="edge"><title>52&#45;&gt;117</title>
<path fill="none" stroke="black" d="M7.32534,-237.6C0.456168,-230.295 -9.94001,-219.24 -16.2128,-212.569"/>
<polygon fill="black" stroke="black" points="-15.1026,-211.195 -19.8028,-208.752 -17.6523,-213.593 -15.1026,-211.195"/>
<text text-anchor="middle" x="18.7473" y="-211.961" font-family="monospace" font-size="14.00">H1755Y</text>
</g>
<!-- 118 -->
<g id="node119" class="node"><title>118</title>
<ellipse fill="olivedrab" stroke="black" cx="70.282" cy="-247.837" rx="2.5" ry="2.5"/>
</g>
<!-- 52&#45;&gt;118 -->
<g id="edge81" class="edge"><title>52&#45;&gt;118</title>
<path fill="none" stroke="black" d="M24.2505,-245.459C37.3502,-246.136 59.5509,-247.283 67.4156,-247.689"/>
</g>
<!-- 120 -->
<g id="node121" class="node"><title>120</title>
<ellipse fill="olivedrab" stroke="black" cx="54.2316" cy="-206.237" rx="2.5" ry="2.5"/>
</g>
<!-- 52&#45;&gt;120 -->
<g id="edge82" class="edge"><title>52&#45;&gt;120</title>
<path fill="none" stroke="black" d="M21.5665,-237.843C29.3368,-230.325 41.439,-218.615 48.5259,-211.758"/>
<polygon fill="black" stroke="black" points="49.8302,-212.931 52.2067,-208.197 47.3965,-210.416 49.8302,-212.931"/>
<text text-anchor="middle" x="57.6725" y="-227.027" font-family="monospace" font-size="14.00">K251R</text>
</g>
<!-- 55 -->
<g id="node56" class="node"><title>55</title>
<ellipse fill="#1874cd" stroke="black" cx="-36.0171" cy="-100.015" rx="2.5" ry="2.5"/>
</g>
<!-- 91 -->
<g id="node92" class="node"><title>91</title>
<ellipse fill="#1874cd" stroke="black" cx="-5.11686" cy="-138.603" rx="2.5" ry="2.5"/>
</g>
<!-- 55&#45;&gt;91 -->
<g id="edge85" class="edge"><title>55&#45;&gt;91</title>
<path fill="none" stroke="black" d="M-34.3558,-102.09C-29.0406,-108.727 -12.4769,-129.412 -6.94014,-136.326"/>
</g>
<!-- 55&#45;&gt;98 -->
<g id="edge86" class="edge"><title>55&#45;&gt;98</title>
<path fill="none" stroke="black" d="M-35.6563,-97.5164C-34.3629,-88.5604 -29.9473,-57.9841 -28.2717,-46.3819"/>
</g>
<!-- anon_55_76_0 -->
<g id="node129" class="node"><title>anon_55_76_0</title>
<ellipse fill="white" stroke="black" cx="-52.6575" cy="-142.806" rx="1" ry="1"/>
</g>
<!-- 55&#45;&gt;anon_55_76_0 -->
<g id="edge83" class="edge"><title>55&#45;&gt;anon_55_76_0</title>
<path fill="none" stroke="black" d="M-37.0082,-102.564C-40.1428,-110.624 -49.7734,-135.39 -52.132,-141.455"/>
</g>
<!-- 119 -->
<g id="node120" class="node"><title>119</title>
<ellipse fill="olivedrab" stroke="black" cx="-97.9621" cy="-244.116" rx="2.5" ry="2.5"/>
</g>
<!-- 56&#45;&gt;119 -->
<g id="edge87" class="edge"><title>56&#45;&gt;119</title>
<path fill="none" stroke="black" d="M-57.6834,-263.331C-68.5922,-258.127 -88.3644,-248.695 -95.3955,-245.34"/>
</g>
<!-- 58 -->
<g id="node59" class="node"><title>58</title>
<ellipse fill="#1874cd" stroke="black" cx="315.678" cy="-270.594" rx="2.5" ry="2.5"/>
</g>
<!-- 58&#45;&gt;93 -->
<g id="edge88" class="edge"><title>58&#45;&gt;93</title>
<path fill="none" stroke="black" d="M313.049,-269.173C305.667,-265.183 284.836,-253.923 277.894,-250.171"/>
</g>
<!-- 59 -->
<g id="node60" class="node"><title>59</title>
<ellipse fill="#1874cd" stroke="black" cx="-131.005" cy="-199.45" rx="8.5" ry="8.5"/>
</g>
<!-- 71 -->
<g id="node72" class="node"><title>71</title>
<ellipse fill="#1874cd" stroke="black" cx="-131.752" cy="-152.282" rx="2.5" ry="2.5"/>
</g>
<!-- 59&#45;&gt;71 -->
<g id="edge89" class="edge"><title>59&#45;&gt;71</title>
<path fill="none" stroke="black" d="M-131.142,-190.799C-131.314,-179.948 -131.599,-161.932 -131.708,-155.061"/>
</g>
<!-- anon_59_85_0 -->
<g id="node130" class="node"><title>anon_59_85_0</title>
<ellipse fill="white" stroke="black" cx="-120.792" cy="-244.013" rx="1" ry="1"/>
</g>
<!-- 59&#45;&gt;anon_59_85_0 -->
<g id="edge90" class="edge"><title>59&#45;&gt;anon_59_85_0</title>
<path fill="none" stroke="black" d="M-129.035,-208.042C-126.439,-219.373 -122.075,-238.415 -121.025,-242.999"/>
</g>
<!-- 60 -->
<g id="node61" class="node"><title>60</title>
<ellipse fill="#1874cd" stroke="black" cx="53" cy="-103" rx="2.5" ry="2.5"/>
</g>
<!-- 62 -->
<g id="node63" class="node"><title>62</title>
<ellipse fill="#1874cd" stroke="black" cx="23" cy="-103" rx="2.5" ry="2.5"/>
</g>
<!-- 63 -->
<g id="node64" class="node"><title>63</title>
<ellipse fill="#1874cd" stroke="black" cx="-7" cy="-103" rx="2.5" ry="2.5"/>
</g>
<!-- 65 -->
<g id="node66" class="node"><title>65</title>
<ellipse fill="#1874cd" stroke="black" cx="-67" cy="-103" rx="2.5" ry="2.5"/>
</g>
<!-- 68 -->
<g id="node69" class="node"><title>68</title>
<ellipse fill="#1874cd" stroke="black" cx="-97" cy="-103" rx="2.5" ry="2.5"/>
</g>
<!-- 69 -->
<g id="node70" class="node"><title>69</title>
<ellipse fill="#1874cd" stroke="black" cx="123" cy="-43" rx="2.5" ry="2.5"/>
</g>
<!-- 73 -->
<g id="node74" class="node"><title>73</title>
<ellipse fill="#1874cd" stroke="black" cx="-117" cy="57" rx="2.5" ry="2.5"/>
</g>
<!-- 75 -->
<g id="node76" class="node"><title>75</title>
<ellipse fill="#1874cd" stroke="black" cx="-53.8885" cy="-231.556" rx="2.5" ry="2.5"/>
</g>
<!-- 76 -->
<g id="node77" class="node"><title>76</title>
<ellipse fill="#1874cd" stroke="black" cx="-54.4395" cy="-187.572" rx="2.5" ry="2.5"/>
</g>
<!-- 75&#45;&gt;76 -->
<g id="edge92" class="edge"><title>75&#45;&gt;76</title>
<path fill="none" stroke="black" d="M-53.9213,-228.937C-54.0195,-221.095 -54.3105,-197.874 -54.4075,-190.123"/>
</g>
<!-- 79 -->
<g id="node80" class="node"><title>79</title>
<ellipse fill="#1874cd" stroke="black" cx="185.694" cy="-131.94" rx="2.5" ry="2.5"/>
</g>
<!-- 79&#45;&gt;45 -->
<g id="edge59" class="edge"><title>79&#45;&gt;45</title>
<path fill="none" stroke="black" d="M185.993,-134.606C186.45,-138.676 187.378,-146.932 188.399,-156.026"/>
<polygon fill="black" stroke="black" points="186.677,-156.37 188.974,-161.143 190.155,-155.979 186.677,-156.37"/>
<text text-anchor="middle" x="166.481" y="-136.648" font-family="monospace" font-size="14.00">R254K</text>
</g>
<!-- 83 -->
<g id="node84" class="node"><title>83</title>
<ellipse fill="#1874cd" stroke="black" cx="190.133" cy="-334.244" rx="2.5" ry="2.5"/>
</g>
<!-- 84 -->
<g id="node85" class="node"><title>84</title>
<ellipse fill="#1874cd" stroke="black" cx="-67" cy="117" rx="2.5" ry="2.5"/>
</g>
<!-- 85 -->
<g id="node86" class="node"><title>85</title>
<ellipse fill="#1874cd" stroke="black" cx="-104.451" cy="-280.255" rx="2.5" ry="2.5"/>
</g>
<!-- 86 -->
<g id="node87" class="node"><title>86</title>
<ellipse fill="#1874cd" stroke="black" cx="133" cy="77" rx="2.5" ry="2.5"/>
</g>
<!-- 89 -->
<g id="node90" class="node"><title>89</title>
<ellipse fill="#1874cd" stroke="black" cx="63" cy="-133" rx="2.5" ry="2.5"/>
</g>
<!-- 92 -->
<g id="node93" class="node"><title>92</title>
<ellipse fill="#1874cd" stroke="black" cx="33" cy="-133" rx="2.5" ry="2.5"/>
</g>
<!-- 94 -->
<g id="node95" class="node"><title>94</title>
<ellipse fill="#1874cd" stroke="black" cx="-87" cy="-133" rx="2.5" ry="2.5"/>
</g>
<!-- 98&#45;&gt;9 -->
<g id="edge93" class="edge"><title>98&#45;&gt;9</title>
<path fill="none" stroke="black" stroke-dasharray="5,2" d="M-32.2826,-42.0326C-40.255,-42.3149 -56.5957,-42.8935 -66.4341,-43.2418"/>
<polygon fill="black" stroke="black" points="-66.6517,-41.4984 -71.5866,-43.4243 -66.5278,-44.9962 -66.6517,-41.4984"/>
<text text-anchor="middle" x="-76.6271" y="-31.5176" font-family="monospace" font-size="14.00">N1570Y</text>
</g>
<!-- 98&#45;&gt;11 -->
<g id="edge94" class="edge"><title>98&#45;&gt;11</title>
<path fill="none" stroke="black" stroke-dasharray="5,2" d="M-25.5432,-46.0868C-22.7279,-51.8072 -17.6592,-62.1062 -14.234,-69.0658"/>
<polygon fill="black" stroke="black" points="-15.6069,-70.2393 -11.8289,-73.9527 -12.4667,-68.6938 -15.6069,-70.2393"/>
<text text-anchor="middle" x="-6.26797" y="-48.6533" font-family="monospace" font-size="14.00">P1874L</text>
</g>
<!-- 98&#45;&gt;33 -->
<g id="edge95" class="edge"><title>98&#45;&gt;33</title>
<path fill="none" stroke="black" stroke-dasharray="5,2" d="M-23.3953,-44.1127C-16.0335,-48.0251 -0.795779,-56.1233 8.05306,-60.8261"/>
<polygon fill="black" stroke="black" points="7.37306,-62.4465 12.6096,-63.2477 9.01564,-59.3558 7.37306,-62.4465"/>
<text text-anchor="middle" x="-30.4864" y="-57.4304" font-family="monospace" font-size="14.00">A1934V</text>
</g>
<!-- 99 -->
<g id="node100" class="node"><title>99</title>
<ellipse fill="brown" stroke="black" cx="-127" cy="-123" rx="2.5" ry="2.5"/>
</g>
<!-- 100 -->
<g id="node101" class="node"><title>100</title>
<ellipse fill="brown" stroke="black" cx="-127" cy="127" rx="2.5" ry="2.5"/>
</g>
<!-- 101 -->
<g id="node102" class="node"><title>101</title>
<ellipse fill="brown" stroke="black" cx="153" cy="-53" rx="2.5" ry="2.5"/>
</g>
<!-- 102 -->
<g id="node103" class="node"><title>102</title>
<ellipse fill="brown" stroke="black" cx="-147" cy="97" rx="2.5" ry="2.5"/>
</g>
<!-- 105 -->
<g id="node106" class="node"><title>105</title>
<ellipse fill="brown" stroke="black" cx="163" cy="157" rx="2.5" ry="2.5"/>
</g>
<!-- 106 -->
<g id="node107" class="node"><title>106</title>
<ellipse fill="brown" stroke="black" cx="163" cy="127" rx="2.5" ry="2.5"/>
</g>
<!-- 107 -->
<g id="node108" class="node"><title>107</title>
<ellipse fill="brown" stroke="black" cx="73" cy="-163" rx="2.5" ry="2.5"/>
</g>
<!-- 108 -->
<g id="node109" class="node"><title>108</title>
<ellipse fill="brown" stroke="black" cx="43" cy="-163" rx="2.5" ry="2.5"/>
</g>
<!-- 109 -->
<g id="node110" class="node"><title>109</title>
<ellipse fill="brown" stroke="black" cx="-17" cy="-163" rx="2.5" ry="2.5"/>
</g>
<!-- 110 -->
<g id="node111" class="node"><title>110</title>
<ellipse fill="brown" stroke="black" cx="-87" cy="-163" rx="2.5" ry="2.5"/>
</g>
<!-- 111 -->
<g id="node112" class="node"><title>111</title>
<ellipse fill="brown" stroke="black" cx="-157" cy="-123" rx="2.5" ry="2.5"/>
</g>
<!-- 112 -->
<g id="node113" class="node"><title>112</title>
<ellipse fill="brown" stroke="black" cx="-157" cy="127" rx="2.5" ry="2.5"/>
</g>
<!-- 113 -->
<g id="node114" class="node"><title>113</title>
<ellipse fill="brown" stroke="black" cx="-157" cy="157" rx="2.5" ry="2.5"/>
</g>
<!-- 114 -->
<g id="node115" class="node"><title>114</title>
<ellipse fill="brown" stroke="black" cx="-127" cy="157" rx="2.5" ry="2.5"/>
</g>
<!-- anon_2_16_0&#45;&gt;16 -->
<g id="edge9" class="edge"><title>anon_2_16_0&#45;&gt;16</title>
<path fill="none" stroke="black" d="M100.887,-63.1209C105.505,-67.1379 127.003,-85.8418 133.609,-91.5887"/>
</g>
<!-- anon_6_44_0&#45;&gt;44 -->
<g id="edge37" class="edge"><title>anon_6_44_0&#45;&gt;44</title>
<path fill="none" stroke="black" d="M10.7188,2.6141C12.6307,-1.62375 20.3317,-18.6931 24.7983,-28.5933"/>
<polygon fill="black" stroke="black" points="23.2383,-29.391 26.8897,-33.2289 26.4286,-27.9516 23.2383,-29.391"/>
<text text-anchor="middle" x="39.753" y="-3.99374" font-family="monospace" font-size="14.00">P940H</text>
</g>
<!-- anon_15_21_0&#45;&gt;21 -->
<g id="edge47" class="edge"><title>anon_15_21_0&#45;&gt;21</title>
<path fill="none" stroke="black" d="M-75.4585,161.8C-78.9934,165.581 -93.4337,181.023 -101.46,189.607"/>
<polygon fill="black" stroke="black" points="-100.457,191.095 -105.15,193.552 -103.013,188.705 -100.457,191.095"/>
<text text-anchor="middle" x="-115.15" y="173.712" font-family="monospace" font-size="14.00">L1366F</text>
</g>
<!-- anon_45_83_0&#45;&gt;83 -->
<g id="edge63" class="edge"><title>anon_45_83_0&#45;&gt;83</title>
<path fill="none" stroke="black" d="M190.3,-291.139C190.278,-296.775 190.178,-322.637 190.144,-331.361"/>
</g>
<!-- anon_47_48_0&#45;&gt;47 -->
<g id="edge68" class="edge"><title>anon_47_48_0&#45;&gt;47</title>
<path fill="none" stroke="black" d="M294.352,-1.39522C290.106,-2.33237 272.856,-6.13927 258.717,-9.25981"/>
<polygon fill="black" stroke="black" points="258.183,-7.58534 253.678,-10.3718 258.938,-11.0031 258.183,-7.58534"/>
<text text-anchor="middle" x="253.083" y="5.33136" font-family="monospace" font-size="14.00">D466H</text>
</g>
<!-- anon_55_76_0&#45;&gt;76 -->
<g id="edge84" class="edge"><title>anon_55_76_0&#45;&gt;76</title>
<path fill="none" stroke="black" d="M-52.7016,-143.913C-52.9288,-149.622 -53.9715,-175.817 -54.3233,-184.653"/>
</g>
<!-- anon_59_85_0&#45;&gt;85 -->
<g id="edge91" class="edge"><title>anon_59_85_0&#45;&gt;85</title>
<path fill="none" stroke="black" d="M-120.09,-245.57C-117.549,-251.207 -108.813,-270.581 -105.626,-277.649"/>
</g>
</g>
</svg>
