<?xml version="1.0" encoding="UTF-8" standalone="no"?>
<!DOCTYPE svg PUBLIC "-//W3C//DTD SVG 1.1//EN"
 "http://www.w3.org/Graphics/SVG/1.1/DTD/svg11.dtd">
<!-- Generated by graphviz version 2.38.0 (20140413.2041)
 -->
<!-- Title: %3 Pages: 1 -->
<svg width="115pt" height="183pt"
 viewBox="0.00 0.00 114.80 183.42" xmlns="http://www.w3.org/2000/svg" xmlns:xlink="http://www.w3.org/1999/xlink">
<g id="graph0" class="graph" transform="scale(1 1) rotate(0) translate(9.49381 146.196)">
<title>%3</title>
<polygon fill="white" stroke="none" points="-9.49381,37.2199 -9.49381,-146.196 105.307,-146.196 105.307,37.2199 -9.49381,37.2199"/>
<!-- 0 -->
<g id="node1" class="node"><title>0</title>
<ellipse fill="#1874cd" stroke="black" cx="47.9021" cy="-54.4849" rx="8" ry="8"/>
</g>
<!-- 2 -->
<g id="node3" class="node"><title>2</title>
<ellipse fill="#1874cd" stroke="black" cx="-2.99381" cy="-37.8141" rx="2.5" ry="2.5"/>
</g>
<!-- 0&#45;&gt;2 -->
<g id="edge3" class="edge"><title>0&#45;&gt;2</title>
<path fill="none" stroke="black" d="M39.9496,-51.8801C28.3191,-48.0706 7.23879,-41.1658 -0.257431,-38.7104"/>
</g>
<!-- 3 -->
<g id="node4" class="node"><title>3</title>
<ellipse fill="#1874cd" stroke="black" cx="98.8069" cy="-71.1795" rx="2.5" ry="2.5"/>
</g>
<!-- 0&#45;&gt;3 -->
<g id="edge4" class="edge"><title>0&#45;&gt;3</title>
<path fill="none" stroke="black" d="M55.8559,-57.0935C67.4885,-60.9084 88.5725,-67.8231 96.07,-70.282"/>
</g>
<!-- anon_0_1_0 -->
<g id="node6" class="node"><title>anon_0_1_0</title>
<ellipse fill="white" stroke="black" cx="63.448" cy="-7.07001" rx="1" ry="1"/>
</g>
<!-- 0&#45;&gt;anon_0_1_0 -->
<g id="edge1" class="edge"><title>0&#45;&gt;anon_0_1_0</title>
<path fill="none" stroke="black" d="M50.4692,-46.6553C54.3327,-34.8715 61.372,-13.4019 63.0714,-8.21858"/>
</g>
<!-- anon_0_4_0 -->
<g id="node7" class="node"><title>anon_0_4_0</title>
<ellipse fill="white" stroke="black" cx="32.3648" cy="-101.907" rx="1" ry="1"/>
</g>
<!-- 0&#45;&gt;anon_0_4_0 -->
<g id="edge5" class="edge"><title>0&#45;&gt;anon_0_4_0</title>
<path fill="none" stroke="black" d="M45.3364,-62.3158C41.475,-74.1015 34.4397,-95.5746 32.7412,-100.759"/>
</g>
<!-- 1 -->
<g id="node2" class="node"><title>1</title>
<ellipse fill="#1874cd" stroke="black" cx="75.8333" cy="30.7199" rx="2.5" ry="2.5"/>
</g>
<!-- 4 -->
<g id="node5" class="node"><title>4</title>
<ellipse fill="#1874cd" stroke="black" cx="19.9791" cy="-139.696" rx="2.5" ry="2.5"/>
</g>
<!-- anon_0_1_0&#45;&gt;1 -->
<g id="edge2" class="edge"><title>anon_0_1_0&#45;&gt;1</title>
<path fill="none" stroke="black" d="M63.8601,-5.81267C65.6398,-0.382549 72.683,21.1076 75.0515,28.3345"/>
</g>
<!-- anon_0_4_0&#45;&gt;4 -->
<g id="edge6" class="edge"><title>anon_0_4_0&#45;&gt;4</title>
<path fill="none" stroke="black" d="M31.9527,-103.165C30.173,-108.595 23.1295,-130.084 20.7609,-137.311"/>
</g>
</g>
</svg>
