<?xml version="1.0" encoding="UTF-8" standalone="no"?>
<!DOCTYPE svg PUBLIC "-//W3C//DTD SVG 1.1//EN"
 "http://www.w3.org/Graphics/SVG/1.1/DTD/svg11.dtd">
<!-- Generated by graphviz version 2.38.0 (20140413.2041)
 -->
<!-- Title: %3 Pages: 1 -->
<svg width="269pt" height="211pt"
 viewBox="0.00 0.00 268.56 210.56" xmlns="http://www.w3.org/2000/svg" xmlns:xlink="http://www.w3.org/1999/xlink">
<g id="graph0" class="graph" transform="scale(1 1) rotate(0) translate(76.3118 137.593)">
<title>%3</title>
<polygon fill="white" stroke="none" points="-76.3118,72.9705 -76.3118,-137.593 192.249,-137.593 192.249,72.9705 -76.3118,72.9705"/>
<!-- 0 -->
<g id="node1" class="node"><title>0</title>
<path fill="olivedrab" stroke="black" stroke-width="0.5" d="M65.3983,15.4347C65.3983,15.4347 73.8983,15.4347 73.8983,15.4347 73.8983,14.8272 73.8331,14.2215 73.704,13.6279 73.5749,13.0343 73.3825,12.4563 73.1301,11.9037 72.8778,11.3511 72.5669,10.8271 72.2029,10.3408 71.8388,9.85453 71.4237,9.40864 70.9646,9.01083 70.5055,8.61301 70.005,8.26556 69.4719,7.97443 68.9387,7.68329 68.3759,7.45015 67.793,7.27901 67.2101,7.10786 66.6106,6.99969 66.0046,6.95635 65.3987,6.91302 64.7899,6.93476 64.1886,7.02121 64.1886,7.02121 65.3983,15.4347 65.3983,15.4347"/>
<path fill="#1874cd" stroke="black" stroke-width="0.5" d="M65.3983,15.4347C65.3983,15.4347 64.1886,7.02121 64.1886,7.02121 63.7879,7.07882 63.3919,7.16497 63.0035,7.27901 62.6152,7.39304 62.2354,7.53468 61.8672,7.70283 61.499,7.87097 61.1433,8.06521 60.8028,8.28404 60.4623,8.50288 60.1378,8.74576 59.8319,9.01083 59.526,9.27589 59.2395,9.56248 58.9744,9.86838 58.7093,10.1743 58.4664,10.4987 58.2476,10.8393 58.0288,11.1798 57.8345,11.5355 57.6664,11.9037 57.4982,12.2719 57.3566,12.6516 57.2426,13.04 57.1285,13.4283 57.0424,13.8244 56.9848,14.225 56.9272,14.6257 56.8983,15.0299 56.8983,15.4347 56.8983,15.8395 56.9272,16.2437 56.9848,16.6444 57.0424,17.045 57.1285,17.441 57.2426,17.8294 57.3566,18.2178 57.4982,18.5975 57.6664,18.9657 57.8345,19.3339 58.0288,19.6896 58.2476,20.0301 58.4664,20.3707 58.7093,20.6951 58.9744,21.001 59.2395,21.3069 59.526,21.5935 59.8319,21.8586 60.1379,22.1236 60.4623,22.3665 60.8028,22.5854 61.1433,22.8042 61.499,22.9984 61.8672,23.1666 62.2354,23.3347 62.6152,23.4764 63.0035,23.5904 63.3919,23.7044 63.7879,23.7906 64.1886,23.8482 64.5892,23.9058 64.9935,23.9347 65.3983,23.9347 65.803,23.9347 66.2073,23.9058 66.6079,23.8482 67.0086,23.7906 67.4046,23.7044 67.793,23.5904 68.1814,23.4764 68.5611,23.3347 68.9293,23.1666 69.2975,22.9984 69.6532,22.8042 69.9937,22.5854 70.3342,22.3665 70.6587,22.1236 70.9646,21.8586 71.2705,21.5935 71.5571,21.3069 71.8221,21.001 72.0872,20.6951 72.3301,20.3707 72.5489,20.0301 72.7678,19.6896 72.962,19.3339 73.1301,18.9657 73.2983,18.5975 73.4399,18.2178 73.554,17.8294 73.668,17.441 73.7541,17.045 73.8117,16.6444 73.8693,16.2437 73.8983,15.8395 73.8983,15.4347 73.8983,15.4347 65.3983,15.4347 65.3983,15.4347"/>
<ellipse fill="none" stroke="black" cx="65.3983" cy="15.4347" rx="8.5" ry="8.5"/>
</g>
<!-- 8 -->
<g id="node9" class="node"><title>8</title>
<ellipse fill="olivedrab" stroke="black" cx="87.6504" cy="66.4705" rx="2.5" ry="2.5"/>
</g>
<!-- 0&#45;&gt;8 -->
<g id="edge2" class="edge"><title>0&#45;&gt;8</title>
<path fill="none" stroke="black" d="M68.8752,23.409C74.0579,35.2958 83.5326,57.0263 86.6364,64.145"/>
</g>
<!-- 1 -->
<g id="node2" class="node"><title>1</title>
<path fill="olivedrab" stroke="black" stroke-width="0.5" d="M29.6669,-28.1462C29.6669,-28.1462 39.6669,-28.1462 39.6669,-28.1462 39.6669,-28.845 39.5937,-29.5418 39.4484,-30.2253 39.3031,-30.9088 39.0866,-31.5752 38.8024,-32.2136 38.5182,-32.8519 38.1678,-33.4587 37.7571,-34.0241 37.3464,-34.5894 36.8775,-35.1101 36.3582,-35.5777 35.8389,-36.0452 35.2721,-36.4571 34.6669,-36.8065 34.0618,-37.1558 33.4217,-37.4408 32.7571,-37.6568 32.0925,-37.8727 31.4071,-38.0184 30.7122,-38.0914 30.0173,-38.1645 29.3166,-38.1645 28.6216,-38.0914 27.9267,-38.0184 27.2413,-37.8727 26.5767,-37.6568 25.9122,-37.4408 25.2721,-37.1558 24.6669,-36.8065 24.0618,-36.4571 23.4949,-36.0452 22.9756,-35.5777 22.4563,-35.1101 21.9875,-34.5894 21.5767,-34.0241 21.166,-33.4587 20.8157,-32.8519 20.5315,-32.2136 20.2472,-31.5752 20.0307,-30.9088 19.8854,-30.2253 19.7402,-29.5418 19.6669,-28.845 19.6669,-28.1462 19.6669,-27.4474 19.7402,-26.7506 19.8854,-26.0671 19.8854,-26.0671 29.6669,-28.1462 29.6669,-28.1462"/>
<path fill="#1874cd" stroke="black" stroke-width="0.5" d="M29.6669,-28.1462C29.6669,-28.1462 19.8854,-26.0671 19.8854,-26.0671 20.0125,-25.4692 20.1942,-24.8841 20.4281,-24.3194 20.662,-23.7546 20.9473,-23.2125 21.2802,-22.6998 21.6131,-22.1871 21.9924,-21.7061 22.4132,-21.2627 22.834,-20.8192 23.2945,-20.4153 23.7891,-20.056 24.2836,-19.6967 24.8101,-19.3835 25.3618,-19.1204 25.9135,-18.8572 26.4883,-18.6452 27.0787,-18.4869 27.6692,-18.3287 28.2729,-18.225 28.8823,-18.177 29.4917,-18.1291 30.1043,-18.1371 30.7122,-18.201 31.3201,-18.2649 31.9209,-18.3844 32.5071,-18.558 33.0932,-18.7316 33.6622,-18.9586 34.2068,-19.2361 34.7515,-19.5137 35.2696,-19.8405 35.7545,-20.2127 36.2395,-20.5848 36.6893,-21.0006 37.0984,-21.4549 37.5074,-21.9092 37.8739,-22.4 38.1933,-22.9212 38.5127,-23.4424 38.7836,-23.9918 39.0027,-24.5625 39.2218,-25.1332 39.3881,-25.7228 39.4995,-26.3239 39.6109,-26.9249 39.6669,-27.5349 39.6669,-28.1462 39.6669,-28.1462 29.6669,-28.1462 29.6669,-28.1462"/>
<ellipse fill="none" stroke="black" cx="29.6669" cy="-28.1462" rx="10" ry="10"/>
</g>
<!-- 1&#45;&gt;0 -->
<g id="edge1" class="edge"><title>1&#45;&gt;0</title>
<path fill="none" stroke="black" d="M36.2206,-20.1528C41.9323,-13.1863 50.2645,-3.02369 56.564,4.6597"/>
<polygon fill="black" stroke="black" points="58.0082,3.66101 59.825,8.63715 55.3016,5.88013 58.0082,3.66101"/>
<text text-anchor="middle" x="69.3923" y="-11.1465" font-family="monospace" font-size="12.00">F1920S</text>
</g>
<!-- 2 -->
<g id="node3" class="node"><title>2</title>
<ellipse fill="#1874cd" stroke="black" cx="85.3244" cy="-55.8823" rx="4.5" ry="4.5"/>
</g>
<!-- 1&#45;&gt;2 -->
<g id="edge3" class="edge"><title>1&#45;&gt;2</title>
<path fill="none" stroke="black" d="M38.8576,-32.7263C51.0843,-38.8193 72.1945,-49.3392 81.1325,-53.7933"/>
</g>
<!-- 5 -->
<g id="node6" class="node"><title>5</title>
<ellipse fill="olivedrab" stroke="black" cx="-24.7678" cy="-22.0502" rx="2.5" ry="2.5"/>
</g>
<!-- 1&#45;&gt;5 -->
<g id="edge7" class="edge"><title>1&#45;&gt;5</title>
<path fill="none" stroke="black" d="M19.6827,-27.0281C9.10898,-25.844 -7.3597,-23.9997 -17.0034,-22.9197"/>
<polygon fill="black" stroke="black" points="-16.8486,-21.1762 -22.0124,-22.3587 -17.2382,-24.6544 -16.8486,-21.1762"/>
<text text-anchor="middle" x="-17.6604" y="-28.3739" font-family="monospace" font-size="12.00">R537L</text>
</g>
<!-- 6 -->
<g id="node7" class="node"><title>6</title>
<ellipse fill="olivedrab" stroke="black" cx="24.0442" cy="22.5913" rx="2.5" ry="2.5"/>
</g>
<!-- 1&#45;&gt;6 -->
<g id="edge8" class="edge"><title>1&#45;&gt;6</title>
<path fill="none" stroke="black" d="M28.5291,-17.8787C27.4653,-8.27967 25.899,5.85464 24.9268,14.6274"/>
<polygon fill="black" stroke="black" points="26.6523,14.9459 24.3621,19.7227 23.1736,14.5603 26.6523,14.9459"/>
<text text-anchor="middle" x="3.72794" y="-5.02564" font-family="monospace" font-size="12.00">H1755Y</text>
</g>
<!-- 7 -->
<g id="node8" class="node"><title>7</title>
<ellipse fill="olivedrab" stroke="black" cx="-12.3968" cy="12.2919" rx="2.5" ry="2.5"/>
</g>
<!-- 1&#45;&gt;7 -->
<g id="edge9" class="edge"><title>1&#45;&gt;7</title>
<path fill="none" stroke="black" d="M22.34,-21.1024C12.3598,-11.5079 -4.91289,5.09722 -10.5556,10.5218"/>
</g>
<!-- 9 -->
<g id="node10" class="node"><title>9</title>
<ellipse fill="olivedrab" stroke="black" cx="36.7115" cy="-77.0867" rx="2.5" ry="2.5"/>
</g>
<!-- 1&#45;&gt;9 -->
<g id="edge10" class="edge"><title>1&#45;&gt;9</title>
<path fill="none" stroke="black" d="M31.0925,-38.0501C32.4125,-47.2201 34.3501,-60.681 35.5705,-69.1594"/>
<polygon fill="black" stroke="black" points="33.8686,-69.62 36.3133,-74.3197 37.3329,-69.1213 33.8686,-69.62"/>
<text text-anchor="middle" x="14.3315" y="-57.0047" font-family="monospace" font-size="12.00">K251R</text>
</g>
<!-- anon_1_3_0 -->
<g id="node11" class="node"><title>anon_1_3_0</title>
<ellipse fill="white" stroke="black" cx="-12.7749" cy="-72.57" rx="1" ry="1"/>
</g>
<!-- 1&#45;&gt;anon_1_3_0 -->
<g id="edge4" class="edge"><title>1&#45;&gt;anon_1_3_0</title>
<path fill="none" stroke="black" d="M22.6585,-35.4819C12.1107,-46.5223 -7.10713,-66.6375 -11.7468,-71.4938"/>
</g>
<!-- anon_2_4_0 -->
<g id="node13" class="node"><title>anon_2_4_0</title>
<ellipse fill="white" stroke="black" cx="123.957" cy="-79.3683" rx="1" ry="1"/>
</g>
<!-- 2&#45;&gt;anon_2_4_0 -->
<g id="edge11" class="edge"><title>2&#45;&gt;anon_2_4_0</title>
<path fill="none" stroke="black" d="M89.1699,-58.2201C97.7202,-63.418 117.942,-75.7111 122.863,-78.7032"/>
</g>
<!-- 3 -->
<g id="node4" class="node"><title>3</title>
<ellipse fill="#1874cd" stroke="black" cx="-69.8118" cy="-131.093" rx="2.5" ry="2.5"/>
</g>
<!-- 4 -->
<g id="node5" class="node"><title>4</title>
<ellipse fill="#1874cd" stroke="black" cx="185.749" cy="-128.713" rx="2.5" ry="2.5"/>
</g>
<!-- anon_1_3_1 -->
<g id="node12" class="node"><title>anon_1_3_1</title>
<ellipse fill="white" stroke="black" cx="-43.1688" cy="-101.556" rx="1" ry="1"/>
</g>
<!-- anon_1_3_0&#45;&gt;anon_1_3_1 -->
<g id="edge5" class="edge"><title>anon_1_3_0&#45;&gt;anon_1_3_1</title>
<path fill="none" stroke="black" d="M-13.5262,-73.2865C-17.6215,-77.1922 -37.2451,-95.9069 -42.0871,-100.525"/>
</g>
<!-- anon_1_3_1&#45;&gt;3 -->
<g id="edge6" class="edge"><title>anon_1_3_1&#45;&gt;3</title>
<path fill="none" stroke="black" d="M-44.3136,-102.825C-48.4571,-107.419 -62.7002,-123.209 -67.8957,-128.969"/>
</g>
<!-- anon_2_4_1 -->
<g id="node14" class="node"><title>anon_2_4_1</title>
<ellipse fill="white" stroke="black" cx="156.648" cy="-101.749" rx="1" ry="1"/>
</g>
<!-- anon_2_4_0&#45;&gt;anon_2_4_1 -->
<g id="edge12" class="edge"><title>anon_2_4_0&#45;&gt;anon_2_4_1</title>
<path fill="none" stroke="black" d="M125.362,-80.3299C130.837,-84.0783 150.684,-97.6661 155.561,-101.004"/>
</g>
<!-- anon_2_4_1&#45;&gt;4 -->
<g id="edge13" class="edge"><title>anon_2_4_1&#45;&gt;4</title>
<path fill="none" stroke="black" d="M157.899,-102.908C162.424,-107.101 177.981,-121.516 183.656,-126.774"/>
</g>
</g>
</svg>
