<?xml version="1.0" encoding="UTF-8" standalone="no"?>
<!DOCTYPE svg PUBLIC "-//W3C//DTD SVG 1.1//EN"
 "http://www.w3.org/Graphics/SVG/1.1/DTD/svg11.dtd">
<!-- Generated by graphviz version 2.38.0 (20140413.2041)
 -->
<!-- Title: %3 Pages: 1 -->
<svg width="235pt" height="175pt"
 viewBox="0.00 0.00 234.77 174.52" xmlns="http://www.w3.org/2000/svg" xmlns:xlink="http://www.w3.org/1999/xlink">
<g id="graph0" class="graph" transform="scale(1 1) rotate(0) translate(117.21 71.7184)">
<title>%3</title>
<polygon fill="white" stroke="none" points="-117.21,102.805 -117.21,-71.7184 117.565,-71.7184 117.565,102.805 -117.21,102.805"/>
<!-- 0 -->
<g id="node1" class="node"><title>0</title>
<ellipse fill="#1874cd" stroke="black" cx="-54.1284" cy="36.9799" rx="15" ry="15"/>
</g>
<!-- 4 -->
<g id="node5" class="node"><title>4</title>
<ellipse fill="#1874cd" stroke="black" cx="-62.064" cy="96.3047" rx="2.5" ry="2.5"/>
</g>
<!-- 0&#45;&gt;4 -->
<g id="edge1" class="edge"><title>0&#45;&gt;4</title>
<path fill="none" stroke="black" d="M-56.1309,51.95C-58.041,66.2293 -60.7639,86.5857 -61.7179,93.7174"/>
</g>
<!-- 5 -->
<g id="node6" class="node"><title>5</title>
<ellipse fill="#1874cd" stroke="black" cx="-110.71" cy="19.1584" rx="2.5" ry="2.5"/>
</g>
<!-- 0&#45;&gt;5 -->
<g id="edge2" class="edge"><title>0&#45;&gt;5</title>
<path fill="none" stroke="black" d="M-68.6997,32.3904C-82.3211,28.1001 -101.541,22.0463 -108.27,19.927"/>
</g>
<!-- 1 -->
<g id="node2" class="node"><title>1</title>
<ellipse fill="#1874cd" stroke="black" cx="67.0465" cy="-4.70232" rx="6" ry="6"/>
</g>
<!-- 3 -->
<g id="node4" class="node"><title>3</title>
<ellipse fill="#1874cd" stroke="black" cx="111.065" cy="10.9923" rx="2.5" ry="2.5"/>
</g>
<!-- 1&#45;&gt;3 -->
<g id="edge5" class="edge"><title>1&#45;&gt;3</title>
<path fill="none" stroke="black" d="M72.8011,-2.65053C82.4956,0.80601 101.696,7.65205 108.556,10.0978"/>
</g>
<!-- 2 -->
<g id="node3" class="node"><title>2</title>
<ellipse fill="#1874cd" stroke="black" cx="21.5574" cy="-61.7184" rx="6" ry="6"/>
</g>
<!-- 6 -->
<g id="node7" class="node"><title>6</title>
<ellipse fill="white" stroke="black" cx="25.1939" cy="-17.9518" rx="1" ry="1"/>
</g>
<!-- 6&#45;&gt;1 -->
<g id="edge6" class="edge"><title>6&#45;&gt;1</title>
<path fill="none" stroke="black" d="M26.2285,-17.6243C30.3392,-16.323 45.8114,-11.4249 56.4797,-8.04754"/>
<polygon fill="black" stroke="black" points="57.0214,-9.7117 61.2601,-6.53418 55.965,-6.37492 57.0214,-9.7117"/>
<text text-anchor="middle" x="64.3541" y="-16.2359" font-family="monospace" font-size="12.00">S1683I</text>
</g>
<!-- 6&#45;&gt;2 -->
<g id="edge7" class="edge"><title>6&#45;&gt;2</title>
<path fill="none" stroke="black" d="M25.104,-19.0337C24.7468,-23.3324 23.4025,-39.5121 22.4755,-50.6683"/>
<polygon fill="black" stroke="black" points="20.7303,-50.5396 22.0602,-55.6673 24.2183,-50.8294 20.7303,-50.5396"/>
<text text-anchor="middle" x="4.78978" y="-38.251" font-family="monospace" font-size="12.00">G317S</text>
</g>
<!-- anon_0_6_0 -->
<g id="node8" class="node"><title>anon_0_6_0</title>
<ellipse fill="white" stroke="black" cx="-10.2796" cy="7.52104" rx="1" ry="1"/>
</g>
<!-- 6&#45;&gt;anon_0_6_0 -->
<g id="edge4" class="edge"><title>6&#45;&gt;anon_0_6_0</title>
<path fill="none" stroke="black" d="M24.317,-17.3222C20.3588,-14.4798 3.97165,-2.71251 -4.75388,3.55314"/>
<polygon fill="black" stroke="black" points="-3.93492,5.1195 -9.01705,6.61445 -5.97642,2.27653 -3.93492,5.1195"/>
<text text-anchor="middle" x="-13.2184" y="-10.2845" font-family="monospace" font-size="12.00">I1940T</text>
</g>
<!-- anon_0_6_0&#45;&gt;0 -->
<g id="edge3" class="edge"><title>anon_0_6_0&#45;&gt;0</title>
<path fill="none" stroke="black" d="M-11.3635,8.24924C-14.9639,10.6681 -26.8831,18.6757 -37.2263,25.6245"/>
<polygon fill="black" stroke="black" points="-36.4074,27.1827 -41.5337,28.5184 -38.3593,24.2774 -36.4074,27.1827"/>
<text text-anchor="middle" x="-43.2949" y="13.5369" font-family="monospace" font-size="12.00">D466H</text>
</g>
</g>
</svg>
