<?xml version="1.0" encoding="UTF-8" standalone="no"?>
<!DOCTYPE svg PUBLIC "-//W3C//DTD SVG 1.1//EN"
 "http://www.w3.org/Graphics/SVG/1.1/DTD/svg11.dtd">
<!-- Generated by graphviz version 2.38.0 (20140413.2041)
 -->
<!-- Title: %3 Pages: 1 -->
<svg width="589pt" height="605pt"
 viewBox="0.00 0.00 589.30 604.72" xmlns="http://www.w3.org/2000/svg" xmlns:xlink="http://www.w3.org/1999/xlink">
<g id="graph0" class="graph" transform="scale(1 1) rotate(0) translate(204.079 340.744)">
<title>%3</title>
<polygon fill="white" stroke="none" points="-204.079,263.977 -204.079,-340.744 385.221,-340.744 385.221,263.977 -204.079,263.977"/>
<!-- 0 -->
<g id="node1" class="node"><title>0</title>
<ellipse fill="deepskyblue" stroke="black" cx="-190.591" cy="46.7112" rx="2.5" ry="2.5"/>
</g>
<!-- 3 -->
<g id="node4" class="node"><title>3</title>
<path fill="#98f5ff" stroke="black" stroke-width="0.5" d="M-119.047,-0.156032C-119.047,-0.156032 -94.0466,-0.156032 -94.0466,-0.156032 -94.0466,-1.52033 -94.1582,-2.88234 -94.3805,-4.22842 -94.6027,-5.57449 -94.9348,-6.90012 -95.3733,-8.19202 -95.3733,-8.19202 -119.047,-0.156032 -119.047,-0.156032"/>
<path fill="#ff3030" stroke="black" stroke-width="0.5" d="M-119.047,-0.156032C-119.047,-0.156032 -95.3733,-8.19202 -95.3733,-8.19202 -95.7241,-9.22533 -96.1421,-10.2346 -96.6247,-11.2132 -97.1074,-12.1919 -97.6536,-13.138 -98.2598,-14.0453 -98.8661,-14.9526 -99.5311,-15.8193 -100.251,-16.6397 -100.97,-17.4601 -101.742,-18.2325 -102.563,-18.952 -103.383,-19.6715 -104.25,-20.3365 -105.157,-20.9428 -106.065,-21.549 -107.011,-22.0952 -107.989,-22.5779 -108.968,-23.0605 -109.977,-23.4785 -111.011,-23.8293 -112.044,-24.18 -113.099,-24.4628 -114.169,-24.6757 -115.24,-24.8886 -116.323,-25.0311 -117.411,-25.1025 -118.5,-25.1739 -119.593,-25.1739 -120.682,-25.1025 -121.771,-25.0311 -122.854,-24.8886 -123.924,-24.6757 -124.994,-24.4628 -126.049,-24.18 -127.083,-23.8293 -128.116,-23.4785 -129.125,-23.0605 -130.104,-22.5779 -131.082,-22.0952 -132.029,-21.549 -132.936,-20.9428 -133.843,-20.3365 -134.71,-19.6715 -135.53,-18.952 -136.351,-18.2325 -137.123,-17.4601 -137.843,-16.6397 -137.843,-16.6397 -119.047,-0.156032 -119.047,-0.156032"/>
<path fill="#1874cd" stroke="black" stroke-width="0.5" d="M-119.047,-0.156032C-119.047,-0.156032 -137.843,-16.6397 -137.843,-16.6397 -138.427,-15.9732 -138.976,-15.276 -139.486,-14.5512 -139.997,-13.8264 -140.468,-13.075 -140.899,-12.3001 -141.329,-11.5252 -141.719,-10.728 -142.065,-9.91176 -142.41,-9.09553 -142.713,-8.26148 -142.97,-7.41315 -143.227,-6.56481 -143.439,-5.70339 -143.605,-4.83253 -143.771,-3.96167 -143.89,-3.0826 -143.963,-2.19906 -144.035,-1.31551 -144.061,-0.428741 -144.039,0.457501 -144.017,1.34374 -143.948,2.2282 -143.833,3.10712 -143.717,3.98605 -143.555,4.8582 -143.346,5.71987 -143.138,6.58155 -142.884,7.43153 -142.585,8.26622 -142.287,9.1009 -141.944,9.91911 -141.558,10.7174 -141.173,11.5156 -140.745,12.2928 -140.277,13.0457 -139.808,13.7985 -139.301,14.5259 -138.755,15.2248 -138.21,15.9236 -137.628,16.593 -137.011,17.23 -136.395,17.8671 -135.745,18.4709 -135.064,19.0388 -134.383,19.6068 -133.673,20.1382 -132.936,20.6307 -132.936,20.6307 -119.047,-0.156032 -119.047,-0.156032"/>
<path fill="deepskyblue" stroke="black" stroke-width="0.5" d="M-119.047,-0.156032C-119.047,-0.156032 -132.936,20.6307 -132.936,20.6307 -132,21.2559 -131.023,21.8172 -130.012,22.3108 -129.001,22.8044 -127.957,23.2292 -126.889,23.5822 -125.82,23.9352 -124.729,24.2156 -123.623,24.4216 -122.516,24.6276 -121.397,24.7586 -120.273,24.8139 -119.149,24.8691 -118.023,24.8483 -116.902,24.7518 -115.78,24.6552 -114.667,24.4831 -113.569,24.2365 -112.471,23.99 -111.391,23.6695 -110.336,23.2774 -109.281,22.8854 -108.254,22.4225 -107.262,21.892 -106.269,21.3615 -105.314,20.7646 -104.402,20.1054 -103.49,19.4462 -102.623,18.7261 -101.808,17.9501 -100.993,17.1742 -100.231,16.3441 -99.5281,15.4655 -98.8249,14.5869 -98.1819,13.6618 -97.6033,12.6965 -97.0248,11.7313 -96.5121,10.7281 -96.0687,9.69377 -95.6253,8.65945 -95.2523,7.59637 -94.9522,6.51179 -94.652,5.4272 -94.4254,4.32359 -94.274,3.20849 -94.1225,2.09338 -94.0466,0.969314 -94.0466,-0.156032 -94.0466,-0.156032 -119.047,-0.156032 -119.047,-0.156032"/>
<ellipse fill="none" stroke="black" cx="-119.047" cy="-0.156032" rx="25" ry="25"/>
</g>
<!-- 0&#45;&gt;3 -->
<g id="edge1" class="edge"><title>0&#45;&gt;3</title>
<path fill="none" stroke="black" d="M-188.21,45.1518C-180.791,40.2916 -157.535,25.0572 -140.023,13.5851"/>
</g>
<!-- 1 -->
<g id="node2" class="node"><title>1</title>
<path fill="#98f5ff" stroke="black" stroke-width="0.5" d="M114.616,28.8331C114.616,28.8331 132.116,28.8331 132.116,28.8331 132.116,27.7824 132.022,26.7339 131.834,25.7003 131.646,24.6666 131.365,23.652 130.995,22.6687 130.625,21.6854 130.167,20.7374 129.627,19.8363 129.087,18.9351 128.466,18.0844 127.774,17.2945 127.081,16.5046 126.318,15.7787 125.496,15.1256 124.673,14.4724 123.792,13.8947 122.866,13.3995 121.939,12.9042 120.97,12.4934 119.97,12.172 118.969,11.8506 117.942,11.6199 116.901,11.4828 116.901,11.4828 114.616,28.8331 114.616,28.8331"/>
<path fill="deepskyblue" stroke="black" stroke-width="0.5" d="M114.616,28.8331C114.616,28.8331 116.901,11.4828 116.901,11.4828 116.025,11.3675 115.142,11.3187 114.259,11.3367 113.375,11.3548 112.495,11.4397 111.625,11.5907 110.754,11.7417 109.897,11.9584 109.059,12.2389 108.222,12.5194 107.406,12.863 106.621,13.2665 105.835,13.6701 105.081,14.1326 104.365,14.6501 103.649,15.1675 102.973,15.7384 102.344,16.3579 101.714,16.9774 101.132,17.6436 100.603,18.3509 100.074,19.0583 99.5992,19.8046 99.1828,20.5836 98.7664,21.3626 98.4096,22.1721 98.1155,23.005 97.8213,23.8378 97.5906,24.6918 97.4254,25.5595 97.2601,26.4273 97.1608,27.3062 97.1283,28.189 97.0958,29.0717 97.1302,29.9556 97.2311,30.8331 97.3321,31.7106 97.4993,32.5793 97.7314,33.4315 97.9635,34.2838 98.2598,35.1173 98.6178,35.9248 98.9757,36.7323 99.3943,37.5116 99.8699,38.2559 100.346,39.0003 100.877,39.7075 101.459,40.3716 102.042,41.0357 102.674,41.6548 103.349,42.2235 104.025,42.7922 104.743,43.3089 105.497,43.7692 106.251,44.2295 107.039,44.6321 107.853,44.9734 108.668,45.3148 109.507,45.594 110.364,45.8086 111.221,46.0233 112.093,46.1727 112.972,46.2557 113.852,46.3387 114.736,46.3549 115.618,46.3044 116.5,46.2538 117.377,46.1366 118.241,45.9536 119.105,45.7707 119.954,45.5226 120.781,45.2114 121.608,44.9003 122.409,44.527 123.18,44.0948 123.95,43.6625 124.687,43.1726 125.383,42.6291 126.079,42.0857 126.734,41.4903 127.34,40.8481 127.946,40.2059 128.503,39.5187 129.006,38.7923 129.509,38.066 129.956,37.3027 130.343,36.5089 130.731,35.7151 131.057,34.893 131.321,34.0499 131.584,33.2067 131.783,32.3449 131.916,31.4717 132.05,30.5984 132.116,29.7164 132.116,28.8331 132.116,28.8331 114.616,28.8331 114.616,28.8331"/>
<ellipse fill="none" stroke="black" cx="114.616" cy="28.8331" rx="17.5" ry="17.5"/>
</g>
<!-- 12 -->
<g id="node13" class="node"><title>12</title>
<ellipse fill="deepskyblue" stroke="black" cx="170.477" cy="72.9423" rx="2.5" ry="2.5"/>
</g>
<!-- 1&#45;&gt;12 -->
<g id="edge3" class="edge"><title>1&#45;&gt;12</title>
<path fill="none" stroke="black" d="M128.425,39.7365C142.123,50.5534 161.972,66.227 168.391,71.2953"/>
</g>
<!-- 19 -->
<g id="node20" class="node"><title>19</title>
<ellipse fill="deepskyblue" stroke="black" cx="158.883" cy="-26.369" rx="2.5" ry="2.5"/>
</g>
<!-- 1&#45;&gt;19 -->
<g id="edge4" class="edge"><title>1&#45;&gt;19</title>
<path fill="none" stroke="black" d="M125.787,14.9033C136.647,1.3608 152.217,-18.0561 157.249,-24.3306"/>
</g>
<!-- 23 -->
<g id="node24" class="node"><title>23</title>
<ellipse fill="deepskyblue" stroke="black" cx="179.27" cy="39.3725" rx="2.5" ry="2.5"/>
</g>
<!-- 1&#45;&gt;23 -->
<g id="edge5" class="edge"><title>1&#45;&gt;23</title>
<path fill="none" stroke="black" d="M131.942,31.6575C147.503,34.194 169.021,37.7018 176.544,38.9281"/>
</g>
<!-- 24 -->
<g id="node25" class="node"><title>24</title>
<ellipse fill="deepskyblue" stroke="black" cx="175.375" cy="3.29917" rx="2.5" ry="2.5"/>
</g>
<!-- 1&#45;&gt;24 -->
<g id="edge6" class="edge"><title>1&#45;&gt;24</title>
<path fill="none" stroke="black" d="M130.899,21.9905C145.522,15.8452 165.744,7.3468 172.813,4.37597"/>
</g>
<!-- 2 -->
<g id="node3" class="node"><title>2</title>
<ellipse fill="#ff3030" stroke="black" cx="52.8243" cy="-22.7916" rx="9" ry="9"/>
</g>
<!-- 33 -->
<g id="node34" class="node"><title>33</title>
<ellipse fill="#ff3030" stroke="black" cx="14.8205" cy="-64.4227" rx="2.5" ry="2.5"/>
</g>
<!-- 2&#45;&gt;33 -->
<g id="edge10" class="edge"><title>2&#45;&gt;33</title>
<path fill="none" stroke="black" d="M46.5487,-29.6661C37.6098,-39.4582 21.717,-56.8679 16.5179,-62.5632"/>
</g>
<!-- anon_2_16_0 -->
<g id="node124" class="node"><title>anon_2_16_0</title>
<ellipse fill="white" stroke="black" cx="100.009" cy="-62.3567" rx="1" ry="1"/>
</g>
<!-- 2&#45;&gt;anon_2_16_0 -->
<g id="edge8" class="edge"><title>2&#45;&gt;anon_2_16_0</title>
<path fill="none" stroke="black" d="M59.7865,-28.6296C71.2711,-38.2595 93.4529,-56.8594 98.8189,-61.3589"/>
</g>
<!-- 9 -->
<g id="node10" class="node"><title>9</title>
<ellipse fill="#ff3030" stroke="black" cx="-74.464" cy="-43.5262" rx="2.5" ry="2.5"/>
</g>
<!-- 3&#45;&gt;9 -->
<g id="edge12" class="edge"><title>3&#45;&gt;9</title>
<path fill="none" stroke="black" d="M-100.913,-17.7963C-91.2702,-27.177 -80.5511,-37.6046 -76.3229,-41.7178"/>
</g>
<!-- 10 -->
<g id="node11" class="node"><title>10</title>
<ellipse fill="#ff3030" stroke="black" cx="-168.988" cy="63.9846" rx="2.5" ry="2.5"/>
</g>
<!-- 3&#45;&gt;10 -->
<g id="edge13" class="edge"><title>3&#45;&gt;10</title>
<path fill="none" stroke="black" d="M-134.574,19.7869C-146.715,35.3793 -162.348,55.4572 -167.363,61.8983"/>
</g>
<!-- 27 -->
<g id="node28" class="node"><title>27</title>
<ellipse fill="deepskyblue" stroke="black" cx="-139.298" cy="-82.5918" rx="2.5" ry="2.5"/>
</g>
<!-- 3&#45;&gt;27 -->
<g id="edge14" class="edge"><title>3&#45;&gt;27</title>
<path fill="none" stroke="black" d="M-125.013,-24.4436C-129.96,-44.5807 -136.51,-71.2433 -138.615,-79.8136"/>
</g>
<!-- 46 -->
<g id="node47" class="node"><title>46</title>
<ellipse fill="#1874cd" stroke="black" cx="-178.605" cy="-54.2568" rx="2.5" ry="2.5"/>
</g>
<!-- 3&#45;&gt;46 -->
<g id="edge15" class="edge"><title>3&#45;&gt;46</title>
<path fill="none" stroke="black" d="M-137.565,-16.9773C-149.555,-27.8686 -164.401,-41.3545 -172.547,-48.754"/>
<polygon fill="black" stroke="black" points="-174.143,-47.8398 -176.668,-52.4971 -171.79,-50.4306 -174.143,-47.8398"/>
<text text-anchor="middle" x="-178.08" y="-38.5042" font-family="monospace" font-size="14.00">I829L</text>
</g>
<!-- 77 -->
<g id="node78" class="node"><title>77</title>
<ellipse fill="#1874cd" stroke="black" cx="-182.022" cy="-24.8028" rx="2.5" ry="2.5"/>
</g>
<!-- 3&#45;&gt;77 -->
<g id="edge16" class="edge"><title>3&#45;&gt;77</title>
<path fill="none" stroke="black" d="M-142.496,-9.33357C-156.764,-14.9176 -173.392,-21.4252 -179.558,-23.8385"/>
</g>
<!-- 78 -->
<g id="node79" class="node"><title>78</title>
<ellipse fill="#1874cd" stroke="black" cx="-197.579" cy="0.918575" rx="2.5" ry="2.5"/>
</g>
<!-- 3&#45;&gt;78 -->
<g id="edge17" class="edge"><title>3&#45;&gt;78</title>
<path fill="none" stroke="black" d="M-144.327,0.189895C-162.98,0.445135 -186.476,0.766653 -194.632,0.878248"/>
</g>
<!-- 95 -->
<g id="node96" class="node"><title>95</title>
<ellipse fill="#1874cd" stroke="black" cx="-152.036" cy="-60.4126" rx="2.5" ry="2.5"/>
</g>
<!-- 3&#45;&gt;95 -->
<g id="edge18" class="edge"><title>3&#45;&gt;95</title>
<path fill="none" stroke="black" d="M-131.143,-22.2512C-138.646,-35.9552 -147.458,-52.0513 -150.728,-58.0249"/>
</g>
<!-- 122 -->
<g id="node123" class="node"><title>122</title>
<ellipse fill="#98f5ff" stroke="black" cx="-175.707" cy="22.5449" rx="2.5" ry="2.5"/>
</g>
<!-- 3&#45;&gt;122 -->
<g id="edge19" class="edge"><title>3&#45;&gt;122</title>
<path fill="none" stroke="black" d="M-142.42,9.20836C-154.613,14.0937 -168.071,19.4857 -173.376,21.6109"/>
</g>
<!-- 4 -->
<g id="node5" class="node"><title>4</title>
<ellipse fill="#ff3030" stroke="black" cx="78.051" cy="112.472" rx="12" ry="12"/>
</g>
<!-- 34 -->
<g id="node35" class="node"><title>34</title>
<ellipse fill="#ff3030" stroke="black" cx="131.383" cy="138.477" rx="2.5" ry="2.5"/>
</g>
<!-- 4&#45;&gt;34 -->
<g id="edge21" class="edge"><title>4&#45;&gt;34</title>
<path fill="none" stroke="black" d="M88.8435,117.735C101.505,123.908 121.674,133.743 128.792,137.214"/>
</g>
<!-- 38 -->
<g id="node39" class="node"><title>38</title>
<ellipse fill="#ff3030" stroke="black" cx="137.822" cy="106.619" rx="2.5" ry="2.5"/>
</g>
<!-- 4&#45;&gt;38 -->
<g id="edge22" class="edge"><title>4&#45;&gt;38</title>
<path fill="none" stroke="black" d="M90.1465,111.288C104.337,109.898 126.941,107.685 134.919,106.904"/>
</g>
<!-- 40 -->
<g id="node41" class="node"><title>40</title>
<ellipse fill="#ff3030" stroke="black" cx="108.87" cy="163.701" rx="2.5" ry="2.5"/>
</g>
<!-- 4&#45;&gt;40 -->
<g id="edge23" class="edge"><title>4&#45;&gt;40</title>
<path fill="none" stroke="black" d="M84.2877,122.839C91.6045,135.002 103.26,154.376 107.373,161.213"/>
</g>
<!-- 41 -->
<g id="node42" class="node"><title>41</title>
<ellipse fill="#ff3030" stroke="black" cx="79.8848" cy="176.985" rx="2.5" ry="2.5"/>
</g>
<!-- 4&#45;&gt;41 -->
<g id="edge24" class="edge"><title>4&#45;&gt;41</title>
<path fill="none" stroke="black" d="M78.396,124.607C78.8359,140.082 79.5682,165.847 79.807,174.247"/>
</g>
<!-- 5 -->
<g id="node6" class="node"><title>5</title>
<path fill="#98f5ff" stroke="black" stroke-width="0.5" d="M51.4316,-51.8145C51.4316,-51.8145 73.9316,-51.8145 73.9316,-51.8145 73.9316,-52.8477 73.8605,-53.8796 73.7187,-54.903 73.5768,-55.9264 73.3647,-56.9388 73.0838,-57.933 72.8028,-58.9272 72.4537,-59.9009 72.039,-60.8471 71.6242,-61.7934 71.1448,-62.7099 70.604,-63.5903 70.0633,-64.4707 69.4626,-65.3127 68.8062,-66.1105 68.1497,-66.9083 67.4391,-67.66 66.6794,-68.3601 65.9196,-69.0603 65.1126,-69.7073 64.2639,-70.2965 63.4152,-70.8857 62.527,-71.4158 61.6055,-71.883 60.684,-72.3501 59.7314,-72.7533 58.7545,-73.0895 57.7776,-73.4258 56.7787,-73.6943 55.7649,-73.8933 54.7511,-74.0923 53.7248,-74.2212 52.6932,-74.2791 51.6617,-74.3371 50.6274,-74.3239 49.5977,-74.2397 48.568,-74.1554 47.5453,-74.0004 46.5369,-73.7757 45.5284,-73.5509 44.5367,-73.2569 43.5687,-72.8959 42.6007,-72.5348 41.6587,-72.1075 40.7494,-71.617 39.8401,-71.1265 38.9657,-70.574 38.1323,-69.9633 38.1323,-69.9633 51.4316,-51.8145 51.4316,-51.8145"/>
<path fill="deepskyblue" stroke="black" stroke-width="0.5" d="M51.4316,-51.8145C51.4316,-51.8145 38.1323,-69.9633 38.1323,-69.9633 37.4997,-69.4997 36.8917,-69.0034 36.3109,-68.4763 35.7301,-67.9492 35.1773,-67.3921 34.6547,-66.8073 34.1321,-66.2225 33.6404,-65.6108 33.1817,-64.9746 32.7229,-64.3385 32.2978,-63.6788 31.9079,-62.9982 31.5181,-62.3177 31.1641,-61.6172 30.8474,-60.8997 30.5307,-60.1821 30.2518,-59.4485 30.0117,-58.7019 29.7716,-57.9552 29.5707,-57.1965 29.4099,-56.4289 29.249,-55.6613 29.1284,-54.8858 29.0486,-54.1055 28.9687,-53.3253 28.9297,-52.5414 28.9317,-51.7571 28.9337,-50.9728 28.9767,-50.1892 29.0606,-49.4094 29.1444,-48.6296 29.2689,-47.8547 29.4337,-47.0879 29.5985,-46.3211 29.8032,-45.5634 30.0471,-44.818 30.291,-44.0726 30.5737,-43.3404 30.894,-42.6245 31.2144,-41.9086 31.5719,-41.21 31.9652,-40.5314 32.3585,-39.8529 32.787,-39.1953 33.249,-38.5615 33.711,-37.9277 34.2058,-37.3185 34.7314,-36.7364 35.257,-36.1542 35.8126,-35.6 36.3961,-35.0759 36.9796,-34.5518 37.5901,-34.0585 38.225,-33.5982 38.86,-33.1378 39.5186,-32.711 40.1982,-32.3194 40.8778,-31.9278 41.5773,-31.572 42.294,-31.2535 43.0108,-30.935 43.7436,-30.6542 44.4897,-30.4122 45.2357,-30.1702 45.9939,-29.9674 46.7611,-29.8046 47.5283,-29.6418 48.3035,-29.5192 49.0836,-29.4374 49.8636,-29.3555 50.6473,-29.3145 51.4316,-29.3145 52.2159,-29.3145 52.9997,-29.3555 53.7797,-29.4374 54.5597,-29.5192 55.335,-29.6418 56.1022,-29.8046 56.8694,-29.9674 57.6276,-30.1702 58.3736,-30.4122 59.1196,-30.6542 59.8525,-30.935 60.5692,-31.2535 61.2859,-31.5721 61.9855,-31.9278 62.6651,-32.3194 63.3446,-32.711 64.0032,-33.1378 64.6382,-33.5982 65.2732,-34.0585 65.8837,-34.5518 66.4672,-35.0759 67.0506,-35.6 67.6063,-36.1542 68.1319,-36.7364 68.1319,-36.7364 51.4316,-51.8145 51.4316,-51.8145"/>
<path fill="#ff3030" stroke="black" stroke-width="0.5" d="M51.4316,-51.8145C51.4316,-51.8145 68.1319,-36.7364 68.1319,-36.7364 68.5934,-37.2475 69.0311,-37.7795 69.4438,-38.3308 69.8565,-38.882 70.2436,-39.452 70.604,-40.0387 70.9644,-40.6255 71.2977,-41.2285 71.6028,-41.8459 71.9079,-42.4632 72.1845,-43.0943 72.4317,-43.737 72.6789,-44.3797 72.8965,-45.0334 73.0838,-45.6961 73.271,-46.3587 73.4278,-47.0297 73.5535,-47.7067 73.6792,-48.3837 73.7738,-49.0662 73.8369,-49.7519 73.9,-50.4376 73.9316,-51.1259 73.9316,-51.8145 73.9316,-51.8145 51.4316,-51.8145 51.4316,-51.8145"/>
<ellipse fill="none" stroke="black" cx="51.4316" cy="-51.8145" rx="22.5" ry="22.5"/>
</g>
<!-- 11 -->
<g id="node12" class="node"><title>11</title>
<ellipse fill="deepskyblue" stroke="black" cx="-10.6848" cy="-76.2773" rx="2.5" ry="2.5"/>
</g>
<!-- 5&#45;&gt;11 -->
<g id="edge26" class="edge"><title>5&#45;&gt;11</title>
<path fill="none" stroke="black" d="M30.4018,-60.0965C16.0418,-65.7518 -1.52236,-72.6689 -8.0653,-75.2457"/>
</g>
<!-- 121 -->
<g id="node122" class="node"><title>121</title>
<ellipse fill="#98f5ff" stroke="black" cx="92.7205" cy="-120.658" rx="2.5" ry="2.5"/>
</g>
<!-- 5&#45;&gt;121 -->
<g id="edge27" class="edge"><title>5&#45;&gt;121</title>
<path fill="none" stroke="black" d="M63.1529,-71.3582C73.2617,-88.2132 86.905,-110.962 91.2962,-118.283"/>
</g>
<!-- 6 -->
<g id="node7" class="node"><title>6</title>
<path fill="deepskyblue" stroke="black" stroke-width="0.5" d="M-0.105813,43.2562C-0.105813,43.2562 23.8942,43.2562 23.8942,43.2562 23.8942,42.1388 23.8161,41.0227 23.6606,39.9161 23.5051,38.8095 23.2725,37.7151 22.9645,36.6409 22.9645,36.6409 -0.105813,43.2562 -0.105813,43.2562"/>
<path fill="#ff3030" stroke="black" stroke-width="0.5" d="M-0.105813,43.2562C-0.105813,43.2562 22.9645,36.6409 22.9645,36.6409 22.695,35.7011 22.3683,34.7786 21.9863,33.8787 21.6043,32.9787 21.1676,32.1029 20.6788,31.2562 20.19,30.4095 19.6498,29.5935 19.0614,28.8127 18.4731,28.0318 17.8375,27.2877 17.1583,26.5844 17.1583,26.5844 -0.105813,43.2562 -0.105813,43.2562"/>
<path fill="brown" stroke="black" stroke-width="0.5" d="M-0.105813,43.2562C-0.105813,43.2562 17.1583,26.5844 17.1583,26.5844 16.6794,26.0884 16.1792,25.6133 15.6594,25.1604 15.1395,24.7074 14.6003,24.2771 14.0434,23.8706 13.4864,23.4641 12.9122,23.0818 12.3224,22.7248 11.7325,22.3677 11.1275,22.0362 10.5091,21.7313 9.89071,21.4263 9.25945,21.1481 8.61709,20.8975 7.97474,20.6469 7.32188,20.4241 6.66033,20.2297 5.99879,20.0353 5.32918,19.8696 4.65336,19.7328 3.97754,19.5961 3.29614,19.4885 2.61106,19.4105 1.92598,19.3324 1.23786,19.2839 0.548604,19.2651 -0.140652,19.2463 -0.830397,19.2573 -1.51871,19.2978 -2.20703,19.3384 -2.89328,19.4087 -3.57554,19.5084 -4.25781,19.608 -4.93547,19.7371 -5.60662,19.8951 -6.27778,20.0532 -6.94181,20.24 -7.59688,20.4553 -8.25194,20.6705 -8.89743,20.9138 -9.53154,21.1846 -10.1656,21.4554 -10.7878,21.7534 -11.3962,22.0778 -12.0047,22.4022 -12.5989,22.7526 -13.1772,23.1281 -13.7554,23.5037 -14.3172,23.9039 -14.8611,24.3279 -15.4049,24.7518 -15.9301,25.1989 -16.4354,25.6681 -16.9407,26.1372 -17.4256,26.6279 -17.8886,27.1388 -18.3517,27.6497 -18.7925,28.1803 -19.2099,28.7292 -19.6272,29.278 -20.0207,29.8446 -20.3893,30.4273 -20.7579,31.0101 -21.1012,31.6084 -21.4182,32.2207 -21.7352,32.833 -22.0258,33.4587 -22.2889,34.096 -22.5521,34.7333 -22.7877,35.3817 -22.995,36.0393 -23.2024,36.6969 -23.3813,37.3631 -23.5312,38.0361 -23.6812,38.7091 -23.8021,39.3883 -23.8936,40.0717 -23.9851,40.7551 -24.0471,41.4421 -24.0794,42.1309 -24.1117,42.8196 -24.1144,43.5095 -24.0873,44.1985 -24.0602,44.8874 -24.0035,45.5749 -23.9172,46.259 -23.831,46.9431 -23.7152,47.6232 -23.5704,48.2973 -23.4256,48.9714 -23.2518,49.639 -23.0495,50.2982 -22.8471,50.9573 -22.6165,51.6075 -22.3582,52.2468 -22.0999,52.8861 -21.8142,53.514 -21.5018,54.1287 -21.1895,54.7434 -20.8508,55.3443 -20.4867,55.9298 -20.1226,56.5154 -19.7334,57.085 -19.3202,57.637 -18.9071,58.189 -18.4703,58.723 -18.0112,59.2374 -17.5521,59.7518 -17.071,60.2462 -16.5693,60.7192 -16.0676,61.1922 -15.5457,61.6433 -15.0052,62.0714 -14.4646,62.4994 -13.9059,62.904 -13.3305,63.2839 -12.7551,63.6639 -12.1636,64.0188 -11.5576,64.3478 -10.9517,64.6768 -10.3318,64.9796 -9.69979,65.2552 -9.06777,65.5308 -8.42416,65.7791 -7.77076,65.9993 -7.11736,66.2195 -6.45477,66.4115 -5.78484,66.5746 -5.11491,66.7378 -4.43826,66.872 -3.75677,66.9769 -3.07529,67.0818 -2.3896,67.1573 -1.70161,67.2031 -1.01363,67.249 -0.323983,67.2651 0.365396,67.2516 1.05477,67.2381 1.74325,67.1948 2.42891,67.122 3.11456,67.0492 3.79676,66.9468 4.4736,66.8153 5.15045,66.6837 5.82131,66.523 6.48431,66.3337 7.14732,66.1444 7.80186,65.9266 8.44612,65.6809 9.09037,65.4352 9.72373,65.1618 10.3444,64.8616 10.9652,64.5614 11.5727,64.2345 12.1652,63.882 12.7578,63.5294 13.3349,63.1515 13.8949,62.7493 14.455,62.347 14.9974,61.9209 15.5207,61.4719 16.044,61.023 16.5478,60.5517 17.0305,60.0594 17.5133,59.567 17.9746,59.0541 18.4132,58.5221 18.8518,57.9901 19.2672,57.4394 19.6584,56.8715 20.0495,56.3037 20.4161,55.7193 20.7569,55.1199 21.0977,54.5205 21.4126,53.9068 21.7006,53.2803 21.9886,52.6538 22.2494,52.0152 22.4824,51.3662 22.7154,50.7173 22.9203,50.0586 23.0966,49.392 23.2729,48.7254 23.4204,48.0515 23.5386,47.3722 23.6569,46.6929 23.7458,46.0088 23.8051,45.3219 23.8645,44.6349 23.8942,43.9457 23.8942,43.2562 23.8942,43.2562 -0.105813,43.2562 -0.105813,43.2562"/>
<ellipse fill="none" stroke="black" cx="-0.105813" cy="43.2562" rx="24" ry="24"/>
</g>
<!-- 6&#45;&gt;1 -->
<g id="edge2" class="edge"><title>6&#45;&gt;1</title>
<path fill="none" stroke="black" d="M23.9437,40.2327C43.9679,37.7152 72.2804,34.1557 91.9191,31.6866"/>
<polygon fill="black" stroke="black" points="91.7848,29.9398 96.9641,31.0524 92.2214,33.4125 91.7848,29.9398"/>
<text text-anchor="middle" x="85.6134" y="31.8225" font-family="monospace" font-size="14.00">I1868T</text>
</g>
<!-- 6&#45;&gt;2 -->
<g id="edge7" class="edge"><title>6&#45;&gt;2</title>
<path fill="none" stroke="black" d="M14.9202,24.5062C24.3338,12.7598 36.1383,-1.97026 44.0505,-11.8435"/>
<polygon fill="black" stroke="black" points="42.6925,-12.9473 47.1849,-15.7546 45.4237,-10.7585 42.6925,-12.9473"/>
<text text-anchor="middle" x="6.00537" y="15.6347" font-family="monospace" font-size="14.00">A1934V</text>
</g>
<!-- 6&#45;&gt;3 -->
<g id="edge11" class="edge"><title>6&#45;&gt;3</title>
<path fill="none" stroke="black" d="M-22.7576,34.9885C-41.9765,27.9738 -69.6533,17.872 -90.4065,10.2973"/>
<polygon fill="black" stroke="black" points="-91.1594,11.8855 -95.2563,8.52719 -89.9593,8.59766 -91.1594,11.8855"/>
<text text-anchor="middle" x="-58.802" y="33.0327" font-family="monospace" font-size="14.00">N1570Y</text>
</g>
<!-- 6&#45;&gt;4 -->
<g id="edge20" class="edge"><title>6&#45;&gt;4</title>
<path fill="none" stroke="black" d="M18.0214,59.3098C32.4065,72.0493 52.1692,89.5512 65.0243,100.936"/>
<polygon fill="black" stroke="black" points="66.1956,99.6354 68.7785,104.261 63.8751,102.256 66.1956,99.6354"/>
<text text-anchor="middle" x="68.2688" y="92.869" font-family="monospace" font-size="14.00">P1874S</text>
</g>
<!-- 6&#45;&gt;5 -->
<g id="edge25" class="edge"><title>6&#45;&gt;5</title>
<path fill="none" stroke="black" d="M11.332,22.1569C19.2332,7.58166 29.7701,-11.8557 38.0599,-27.1477"/>
<polygon fill="black" stroke="black" points="36.6336,-28.1888 40.555,-31.7505 39.7106,-26.5208 36.6336,-28.1888"/>
<text text-anchor="middle" x="0.861098" y="-8.44474" font-family="monospace" font-size="14.00">P1874L</text>
</g>
<!-- 7 -->
<g id="node8" class="node"><title>7</title>
<ellipse fill="#ff3030" stroke="black" cx="20.0775" cy="89.6777" rx="6.5" ry="6.5"/>
</g>
<!-- 6&#45;&gt;7 -->
<g id="edge28" class="edge"><title>6&#45;&gt;7</title>
<path fill="none" stroke="black" d="M9.51296,65.3793C11.569,70.1081 13.6512,74.8973 15.4174,78.9594"/>
<polygon fill="black" stroke="black" points="17.0708,78.3734 17.4596,83.6565 13.861,79.7689 17.0708,78.3734"/>
<text text-anchor="middle" x="-11.5021" y="85.7446" font-family="monospace" font-size="14.00">K1603T</text>
</g>
<!-- 14 -->
<g id="node15" class="node"><title>14</title>
<ellipse fill="#ff3030" stroke="black" cx="-70.2777" cy="85.9525" rx="5" ry="5"/>
</g>
<!-- 6&#45;&gt;14 -->
<g id="edge29" class="edge"><title>6&#45;&gt;14</title>
<path fill="none" stroke="black" d="M-20.7802,55.8356C-34.2603,64.0376 -51.1756,74.3298 -61.3346,80.5111"/>
<polygon fill="black" stroke="black" points="-60.5533,82.0841 -65.7344,83.1881 -62.3726,79.0941 -60.5533,82.0841"/>
<text text-anchor="middle" x="-68.3102" y="65.744" font-family="monospace" font-size="14.00">I1940T</text>
</g>
<!-- 15 -->
<g id="node16" class="node"><title>15</title>
<path fill="#98f5ff" stroke="black" stroke-width="0.5" d="M-37.6494,127.298C-37.6494,127.298 -33.1494,127.298 -33.1494,127.298 -33.1494,127.101 -33.1623,126.905 -33.1879,126.71 -33.2135,126.516 -33.2519,126.323 -33.3027,126.133 -33.3536,125.943 -33.4168,125.757 -33.4919,125.576 -33.5671,125.394 -33.6541,125.218 -33.7523,125.048 -33.8505,124.878 -33.9597,124.714 -34.0793,124.558 -34.1989,124.403 -34.3285,124.255 -34.4674,124.116 -34.6063,123.977 -34.7541,123.847 -34.91,123.728 -35.0658,123.608 -35.2293,123.499 -35.3994,123.401 -35.5695,123.302 -35.7459,123.216 -35.9273,123.14 -36.1088,123.065 -36.295,123.002 -36.4847,122.951 -36.6744,122.9 -36.8673,122.862 -37.062,122.836 -37.2568,122.811 -37.453,122.798 -37.6494,122.798 -37.8458,122.798 -38.042,122.811 -38.2368,122.836 -38.4315,122.862 -38.6244,122.9 -38.8141,122.951 -39.0038,123.002 -39.19,123.065 -39.3715,123.14 -39.5529,123.216 -39.7293,123.302 -39.8994,123.401 -39.8994,123.401 -37.6494,127.298 -37.6494,127.298"/>
<path fill="#ff3030" stroke="black" stroke-width="0.5" d="M-37.6494,127.298C-37.6494,127.298 -39.8994,123.401 -39.8994,123.401 -40.0695,123.499 -40.233,123.608 -40.3888,123.728 -40.5447,123.847 -40.6925,123.977 -40.8314,124.116 -40.9703,124.255 -41.0999,124.403 -41.2195,124.558 -41.3391,124.714 -41.4483,124.878 -41.5465,125.048 -41.6447,125.218 -41.7317,125.394 -41.8069,125.576 -41.882,125.757 -41.9452,125.943 -41.9961,126.133 -42.0469,126.323 -42.0853,126.516 -42.1109,126.71 -42.1365,126.905 -42.1494,127.101 -42.1494,127.298 -42.1494,127.494 -42.1365,127.69 -42.1109,127.885 -42.0853,128.08 -42.0469,128.273 -41.9961,128.462 -41.9452,128.652 -41.882,128.838 -41.8069,129.02 -41.7317,129.201 -41.6447,129.378 -41.5465,129.548 -41.4483,129.718 -41.3391,129.881 -41.2195,130.037 -41.0999,130.193 -40.9703,130.341 -40.8314,130.48 -40.6925,130.619 -40.5447,130.748 -40.3888,130.868 -40.233,130.987 -40.0695,131.097 -39.8994,131.195 -39.7293,131.293 -39.5529,131.38 -39.3715,131.455 -39.19,131.53 -39.0038,131.594 -38.8141,131.644 -38.6244,131.695 -38.4315,131.734 -38.2368,131.759 -38.042,131.785 -37.8458,131.798 -37.6494,131.798 -37.453,131.798 -37.2568,131.785 -37.062,131.759 -36.8673,131.734 -36.6744,131.695 -36.4847,131.644 -36.295,131.594 -36.1088,131.53 -35.9273,131.455 -35.7459,131.38 -35.5695,131.293 -35.3994,131.195 -35.2293,131.097 -35.0658,130.987 -34.91,130.868 -34.7541,130.748 -34.6063,130.619 -34.4674,130.48 -34.3285,130.341 -34.1989,130.193 -34.0793,130.037 -33.9597,129.881 -33.8505,129.718 -33.7523,129.548 -33.6541,129.378 -33.5671,129.201 -33.4919,129.02 -33.4168,128.838 -33.3536,128.652 -33.3027,128.462 -33.2519,128.273 -33.2135,128.08 -33.1879,127.885 -33.1623,127.69 -33.1494,127.494 -33.1494,127.298 -33.1494,127.298 -37.6494,127.298 -37.6494,127.298"/>
<ellipse fill="none" stroke="black" cx="-37.6494" cy="127.298" rx="4.5" ry="4.5"/>
</g>
<!-- 6&#45;&gt;15 -->
<g id="edge30" class="edge"><title>6&#45;&gt;15</title>
<path fill="none" stroke="black" d="M-9.96995,65.3372C-17.726,82.6991 -28.1232,105.973 -33.7075,118.474"/>
<polygon fill="black" stroke="black" points="-32.1471,119.272 -35.7844,123.123 -35.3428,117.844 -32.1471,119.272"/>
<text text-anchor="middle" x="-43.8529" y="105.376" font-family="monospace" font-size="14.00">T791M</text>
</g>
<!-- 18 -->
<g id="node19" class="node"><title>18</title>
<ellipse fill="#ff3030" stroke="black" cx="-38.793" cy="15.6176" rx="4.5" ry="4.5"/>
</g>
<!-- 6&#45;&gt;18 -->
<g id="edge31" class="edge"><title>6&#45;&gt;18</title>
<path fill="none" stroke="black" d="M-19.9027,29.113C-23.7091,26.3937 -27.4921,23.6911 -30.6617,21.4267"/>
<polygon fill="black" stroke="black" points="-32.0016,22.6202 -35.0528,18.2896 -29.967,19.7723 -32.0016,22.6202"/>
<text text-anchor="middle" x="-52.5285" y="19.8651" font-family="monospace" font-size="14.00">N1345I</text>
</g>
<!-- 20 -->
<g id="node21" class="node"><title>20</title>
<path fill="#98f5ff" stroke="black" stroke-width="0.5" d="M14.6839,127.725C14.6839,127.725 22.1839,127.725 22.1839,127.725 22.1839,127.289 22.1458,126.853 22.07,126.423 21.9942,125.993 21.881,125.57 21.7316,125.16 21.5823,124.75 21.3974,124.353 21.1791,123.975 20.9608,123.597 20.7099,123.239 20.4293,122.904 20.1486,122.57 19.8393,122.261 19.5048,121.98 19.1704,121.699 18.8121,121.448 18.4339,121.23 18.0558,121.012 17.6594,120.827 17.2491,120.678 16.8388,120.528 16.4163,120.415 15.9863,120.339 15.5563,120.263 15.1206,120.225 14.6839,120.225 14.2473,120.225 13.8116,120.263 13.3816,120.339 12.9516,120.415 12.5291,120.528 12.1188,120.678 11.7085,120.827 11.3121,121.012 10.9339,121.23 10.5558,121.448 10.1975,121.699 9.86303,121.98 9.52857,122.261 9.21926,122.57 8.93861,122.904 8.65796,123.239 8.40706,123.597 8.18875,123.975 7.97045,124.353 7.78558,124.75 7.63625,125.16 7.63625,125.16 14.6839,127.725 14.6839,127.725"/>
<path fill="deepskyblue" stroke="black" stroke-width="0.5" d="M14.6839,127.725C14.6839,127.725 7.63625,125.16 7.63625,125.16 7.44952,125.673 7.31937,126.205 7.24811,126.746 7.17684,127.288 7.1649,127.835 7.21248,128.379 7.26007,128.923 7.36689,129.46 7.53106,129.981 7.69524,130.501 7.91577,131.002 8.18875,131.475 8.46173,131.948 8.78552,132.39 9.15436,132.792 9.5232,133.195 9.9349,133.556 10.3821,133.869 10.8293,134.182 11.3094,134.445 11.8138,134.654 12.3182,134.863 12.8439,135.017 13.3816,135.111 13.9192,135.206 14.4657,135.242 15.0111,135.218 15.5565,135.194 16.0977,135.111 16.6251,134.97 17.1524,134.828 17.6628,134.63 18.1471,134.378 18.6313,134.126 19.0866,133.822 19.5048,133.471 19.9231,133.12 20.3017,132.724 20.6341,132.291 20.9664,131.858 21.2505,131.39 21.4813,130.895 21.712,130.4 21.888,129.882 22.0062,129.349 22.1243,128.816 22.1839,128.271 22.1839,127.725 22.1839,127.725 14.6839,127.725 14.6839,127.725"/>
<ellipse fill="none" stroke="black" cx="14.6839" cy="127.725" rx="7.5" ry="7.5"/>
</g>
<!-- 6&#45;&gt;20 -->
<g id="edge32" class="edge"><title>6&#45;&gt;20</title>
<path fill="none" stroke="black" d="M4.09278,67.2357C6.81812,82.801 10.2607,102.463 12.4676,115.067"/>
<polygon fill="black" stroke="black" points="14.249,115.095 13.3876,120.322 10.8015,115.698 14.249,115.095"/>
<text text-anchor="middle" x="8.75075" y="105.039" font-family="monospace" font-size="14.00">E1597G</text>
</g>
<!-- 22 -->
<g id="node23" class="node"><title>22</title>
<path fill="#98f5ff" stroke="black" stroke-width="0.5" d="M66.5608,45.0596C66.5608,45.0596 75.5608,45.0596 75.5608,45.0596 75.5608,44.6063 75.5265,44.1536 75.4583,43.7055 75.3901,43.2573 75.2881,42.8149 75.1533,42.3821 75.0184,41.9493 74.851,41.5273 74.6526,41.1197 74.4541,40.7122 74.2251,40.3201 73.9676,39.9471 73.7101,39.574 73.4248,39.2209 73.114,38.8908 72.8033,38.5607 72.4681,38.2546 72.1112,37.975 71.7544,37.6954 71.3769,37.4432 70.9821,37.2205 70.5872,36.9978 70.1761,36.8053 69.7522,36.6445 69.3283,36.4837 68.8929,36.3553 68.4497,36.2601 68.0065,36.165 67.5567,36.1034 67.1042,36.0761 66.6517,36.0487 66.1977,36.0556 65.7463,36.0966 65.2948,36.1376 64.8471,36.2127 64.4069,36.3212 63.9668,36.4297 63.5354,36.5713 63.1166,36.7447 62.6978,36.9182 62.2927,37.1231 61.9047,37.3576 61.5168,37.5921 61.1471,37.8556 60.7988,38.1459 60.4506,38.4361 60.1248,38.7522 59.8242,39.0915 59.8242,39.0915 66.5608,45.0596 66.5608,45.0596"/>
<path fill="deepskyblue" stroke="black" stroke-width="0.5" d="M66.5608,45.0596C66.5608,45.0596 59.8242,39.0915 59.8242,39.0915 59.5837,39.363 59.3599,39.6487 59.1539,39.9471 58.9479,40.2455 58.7602,40.5561 58.5917,40.8771 58.4231,41.1982 58.2742,41.5292 58.1456,41.8682 58.017,42.2072 57.9091,42.5537 57.8223,42.9058 57.7355,43.2579 57.6701,43.6149 57.6264,43.9748 57.5827,44.3348 57.5608,44.697 57.5608,45.0596 57.5608,45.4223 57.5827,45.7845 57.6264,46.1445 57.6701,46.5044 57.7355,46.8614 57.8223,47.2135 57.9091,47.5656 58.017,47.9121 58.1456,48.2511 58.2742,48.5901 58.4231,48.9211 58.5917,49.2422 58.7602,49.5632 58.9479,49.8738 59.1539,50.1722 59.3599,50.4706 59.5837,50.7563 59.8242,51.0278 60.0646,51.2992 60.3212,51.5558 60.5927,51.7962 60.8641,52.0367 61.1498,52.2605 61.4482,52.4665 61.7466,52.6725 62.0572,52.8602 62.3783,53.0288 62.6993,53.1973 63.0303,53.3462 63.3693,53.4748 63.7084,53.6034 64.0549,53.7113 64.4069,53.7981 64.759,53.8849 65.116,53.9503 65.4759,53.994 65.8359,54.0377 66.1982,54.0596 66.5608,54.0596 66.9234,54.0596 67.2856,54.0377 67.6456,53.994 68.0056,53.9503 68.3625,53.8849 68.7146,53.7981 69.0667,53.7113 69.4132,53.6034 69.7522,53.4748 70.0912,53.3462 70.4222,53.1973 70.7433,53.0288 71.0643,52.8602 71.3749,52.6725 71.6733,52.4665 71.9718,52.2605 72.2575,52.0367 72.5289,51.7962 72.8003,51.5558 73.0569,51.2992 73.2974,51.0278 73.5378,50.7563 73.7616,50.4706 73.9676,50.1722 74.1736,49.8738 74.3614,49.5632 74.5299,49.2422 74.6984,48.9211 74.8473,48.5901 74.9759,48.2511 75.1045,47.9121 75.2125,47.5656 75.2992,47.2135 75.386,46.8614 75.4514,46.5044 75.4951,46.1445 75.5389,45.7845 75.5608,45.4223 75.5608,45.0596 75.5608,45.0596 66.5608,45.0596 66.5608,45.0596"/>
<ellipse fill="none" stroke="black" cx="66.5608" cy="45.0596" rx="9" ry="9"/>
</g>
<!-- 6&#45;&gt;22 -->
<g id="edge33" class="edge"><title>6&#45;&gt;22</title>
<path fill="none" stroke="black" d="M23.9624,43.9073C33.417,44.1631 43.952,44.448 52.1797,44.6706"/>
<polygon fill="black" stroke="black" points="52.5148,42.929 57.4657,44.8136 52.4201,46.4277 52.5148,42.929"/>
<text text-anchor="middle" x="65.7889" y="55.5625" font-family="monospace" font-size="14.00">V1853I</text>
</g>
<!-- 26 -->
<g id="node27" class="node"><title>26</title>
<ellipse fill="deepskyblue" stroke="black" cx="-14.4386" cy="83.0155" rx="2.5" ry="2.5"/>
</g>
<!-- 6&#45;&gt;26 -->
<g id="edge34" class="edge"><title>6&#45;&gt;26</title>
<path fill="none" stroke="black" d="M-8.27701,65.9232C-9.53118,69.4023 -10.7435,72.7652 -11.7561,75.5742"/>
<polygon fill="black" stroke="black" points="-10.1617,76.3119 -13.5037,80.4221 -13.4543,75.1249 -10.1617,76.3119"/>
<text text-anchor="middle" x="-27.8578" y="69.2824" font-family="monospace" font-size="14.00">P55L</text>
</g>
<!-- 31 -->
<g id="node32" class="node"><title>31</title>
<ellipse fill="deepskyblue" stroke="black" cx="-39.3241" cy="62.5492" rx="2.5" ry="2.5"/>
</g>
<!-- 6&#45;&gt;31 -->
<g id="edge35" class="edge"><title>6&#45;&gt;31</title>
<path fill="none" stroke="black" d="M-22.0082,54.0309C-25.5086,55.7528 -28.9101,57.4262 -31.7584,58.8274"/>
<polygon fill="black" stroke="black" points="-31.4233,60.6128 -36.6823,61.2496 -32.9683,57.4722 -31.4233,60.6128"/>
<text text-anchor="middle" x="-54.234" y="53.7855" font-family="monospace" font-size="14.00">V1303A</text>
</g>
<!-- 97 -->
<g id="node98" class="node"><title>97</title>
<ellipse fill="brown" stroke="black" cx="-52.3886" cy="38.3792" rx="2.5" ry="2.5"/>
</g>
<!-- 6&#45;&gt;97 -->
<g id="edge38" class="edge"><title>6&#45;&gt;97</title>
<path fill="none" stroke="black" d="M-24.1049,41.0175C-34.1984,40.076 -44.7206,39.0945 -49.5984,38.6395"/>
</g>
<!-- 98 -->
<g id="node99" class="node"><title>98</title>
<ellipse fill="brown" stroke="black" cx="-27.6198" cy="-41.8675" rx="4.5" ry="4.5"/>
</g>
<!-- 6&#45;&gt;98 -->
<g id="edge39" class="edge"><title>6&#45;&gt;98</title>
<path fill="none" stroke="black" d="M-7.62412,19.9958C-14.0521,0.108585 -22.7856,-26.9114 -26.1841,-37.4256"/>
</g>
<!-- 103 -->
<g id="node104" class="node"><title>103</title>
<ellipse fill="brown" stroke="black" cx="45.0438" cy="70.7896" rx="5.5" ry="5.5"/>
</g>
<!-- 6&#45;&gt;103 -->
<g id="edge40" class="edge"><title>6&#45;&gt;103</title>
<path fill="none" stroke="black" d="M20.619,55.8947C27.8517,60.3054 35.3394,64.8716 40.0856,67.7659"/>
</g>
<!-- 104 -->
<g id="node105" class="node"><title>104</title>
<ellipse fill="brown" stroke="black" cx="39.6005" cy="32.7972" rx="2.5" ry="2.5"/>
</g>
<!-- 6&#45;&gt;104 -->
<g id="edge41" class="edge"><title>6&#45;&gt;104</title>
<path fill="none" stroke="black" d="M23.4504,37.0513C29.0614,35.5733 34.2632,34.2031 37.1765,33.4357"/>
</g>
<!-- anon_6_44_0 -->
<g id="node125" class="node"><title>anon_6_44_0</title>
<ellipse fill="white" stroke="black" cx="10.2796" cy="3.58768" rx="1" ry="1"/>
</g>
<!-- 6&#45;&gt;anon_6_44_0 -->
<g id="edge36" class="edge"><title>6&#45;&gt;anon_6_44_0</title>
<path fill="none" stroke="black" d="M6.05543,19.7224C7.73266,13.316 9.27012,7.4434 9.93402,4.90752"/>
</g>
<!-- 8 -->
<g id="node9" class="node"><title>8</title>
<ellipse fill="deepskyblue" stroke="black" cx="-41.9191" cy="257.477" rx="2.5" ry="2.5"/>
</g>
<!-- 13 -->
<g id="node14" class="node"><title>13</title>
<path fill="#98f5ff" stroke="black" stroke-width="0.5" d="M-34.5861,197.452C-34.5861,197.452 -21.5861,197.452 -21.5861,197.452 -21.5861,196.994 -21.6104,196.536 -21.6587,196.08 -21.7071,195.624 -21.7795,195.172 -21.8757,194.724 -21.9718,194.276 -22.0917,193.833 -22.2346,193.398 -22.3775,192.962 -22.5433,192.535 -22.7314,192.117 -22.9195,191.699 -23.1295,191.291 -23.3607,190.895 -23.5918,190.5 -23.8437,190.117 -24.1153,189.747 -24.3868,189.378 -24.6778,189.024 -24.9868,188.685 -25.2958,188.347 -25.6225,188.025 -25.9655,187.721 -26.3085,187.418 -26.6674,187.132 -27.0405,186.866 -27.4137,186.6 -27.8007,186.354 -28.1998,186.129 -28.599,185.904 -29.0097,185.7 -29.4304,185.518 -29.8511,185.336 -30.2811,185.177 -30.7186,185.041 -31.1561,184.904 -31.6005,184.791 -32.0499,184.702 -32.4994,184.612 -32.9533,184.547 -33.4096,184.505 -33.866,184.464 -34.3243,184.447 -34.7825,184.454 -35.2407,184.46 -35.6982,184.492 -36.1531,184.547 -36.1531,184.547 -34.5861,197.452 -34.5861,197.452"/>
<path fill="deepskyblue" stroke="black" stroke-width="0.5" d="M-34.5861,197.452C-34.5861,197.452 -36.1531,184.547 -36.1531,184.547 -36.7706,184.622 -37.3819,184.741 -37.9824,184.904 -38.5828,185.066 -39.1708,185.271 -39.7418,185.518 -40.3129,185.765 -40.8655,186.052 -41.3953,186.378 -41.9252,186.704 -42.431,187.067 -42.9089,187.465 -43.3867,187.864 -43.8354,188.296 -44.2514,188.758 -44.6674,189.221 -45.0496,189.712 -45.3952,190.23 -45.7408,190.747 -46.0488,191.288 -46.3169,191.85 -46.585,192.411 -46.8124,192.991 -46.9975,193.585 -47.1825,194.178 -47.3247,194.785 -47.423,195.399 -47.5212,196.013 -47.5752,196.634 -47.5846,197.256 -47.594,197.878 -47.5588,198.5 -47.4791,199.116 -47.3995,199.733 -47.2757,200.344 -47.1086,200.943 -46.9416,201.542 -46.7318,202.129 -46.4808,202.698 -46.2298,203.267 -45.9382,203.817 -45.6084,204.345 -45.2786,204.872 -44.9114,205.375 -44.5096,205.85 -44.1077,206.325 -43.6723,206.77 -43.2067,207.183 -42.7411,207.595 -42.2465,207.974 -41.7267,208.315 -41.2069,208.657 -40.6632,208.961 -40.0999,209.225 -39.5366,209.489 -38.9551,209.712 -38.3598,209.892 -37.7646,210.073 -37.1571,210.21 -36.5422,210.304 -35.9272,210.398 -35.3063,210.447 -34.6843,210.452 -34.0623,210.456 -33.4407,210.416 -32.8244,210.332 -32.2081,210.248 -31.5987,210.119 -31.0007,209.948 -30.4028,209.776 -29.818,209.562 -29.2508,209.307 -28.6835,209.051 -28.1353,208.756 -27.6104,208.422 -27.0855,208.088 -26.5853,207.717 -26.1135,207.312 -25.6417,206.906 -25.1996,206.468 -24.7907,205.999 -24.3817,205.53 -24.0069,205.033 -23.6692,204.51 -23.3314,203.988 -23.0316,203.442 -22.7721,202.877 -22.5125,202.312 -22.2938,201.728 -22.1178,201.132 -21.9417,200.535 -21.8087,199.927 -21.7197,199.311 -21.6308,198.695 -21.5861,198.074 -21.5861,197.452 -21.5861,197.452 -34.5861,197.452 -34.5861,197.452"/>
<ellipse fill="none" stroke="black" cx="-34.5861" cy="197.452" rx="13" ry="13"/>
</g>
<!-- 8&#45;&gt;13 -->
<g id="edge42" class="edge"><title>8&#45;&gt;13</title>
<path fill="none" stroke="black" d="M-41.604,254.898C-40.6829,247.358 -37.9484,224.975 -36.1773,210.477"/>
</g>
<!-- 17 -->
<g id="node18" class="node"><title>17</title>
<ellipse fill="#ff3030" stroke="black" cx="-118.626" cy="99.4158" rx="2.5" ry="2.5"/>
</g>
<!-- 14&#45;&gt;17 -->
<g id="edge44" class="edge"><title>14&#45;&gt;17</title>
<path fill="none" stroke="black" d="M-75.4518,87.3934C-84.086,89.7977 -101.456,94.6346 -111.329,97.384"/>
<polygon fill="black" stroke="black" points="-110.867,99.0718 -116.153,98.7273 -111.806,95.7001 -110.867,99.0718"/>
<text text-anchor="middle" x="-117.049" y="89.3291" font-family="monospace" font-size="14.00">M704V</text>
</g>
<!-- 29 -->
<g id="node30" class="node"><title>29</title>
<ellipse fill="#ff3030" stroke="black" cx="-98.4968" cy="130.662" rx="2.5" ry="2.5"/>
</g>
<!-- 14&#45;&gt;29 -->
<g id="edge45" class="edge"><title>14&#45;&gt;29</title>
<path fill="none" stroke="black" d="M-73.0867,90.4029C-78.9975,99.768 -92.5445,121.231 -97.0267,128.333"/>
</g>
<!-- 15&#45;&gt;13 -->
<g id="edge43" class="edge"><title>15&#45;&gt;13</title>
<path fill="none" stroke="black" d="M-37.4484,131.901C-37.037,141.322 -36.0793,163.255 -35.3848,179.161"/>
<polygon fill="black" stroke="black" points="-33.6304,179.226 -35.1605,184.298 -37.127,179.379 -33.6304,179.226"/>
<text text-anchor="middle" x="-61.3073" y="154.234" font-family="monospace" font-size="14.00">A1746S</text>
</g>
<!-- anon_15_21_0 -->
<g id="node126" class="node"><title>anon_15_21_0</title>
<ellipse fill="white" stroke="black" cx="-74.6614" cy="160.948" rx="1" ry="1"/>
</g>
<!-- 15&#45;&gt;anon_15_21_0 -->
<g id="edge46" class="edge"><title>15&#45;&gt;anon_15_21_0</title>
<path fill="none" stroke="black" d="M-41.0651,130.403C-49.0824,137.692 -68.7916,155.611 -73.5936,159.977"/>
</g>
<!-- 16 -->
<g id="node17" class="node"><title>16</title>
<ellipse fill="#ff3030" stroke="black" cx="135.545" cy="-93.2728" rx="2.5" ry="2.5"/>
</g>
<!-- 32 -->
<g id="node33" class="node"><title>32</title>
<ellipse fill="deepskyblue" stroke="black" cx="42.6723" cy="175.697" rx="2.5" ry="2.5"/>
</g>
<!-- 20&#45;&gt;32 -->
<g id="edge48" class="edge"><title>20&#45;&gt;32</title>
<path fill="none" stroke="black" d="M18.5756,134.396C24.9443,145.311 37.2902,166.472 41.3459,173.423"/>
</g>
<!-- 35 -->
<g id="node36" class="node"><title>35</title>
<ellipse fill="deepskyblue" stroke="black" cx="2.98145" cy="182.279" rx="2.5" ry="2.5"/>
</g>
<!-- 20&#45;&gt;35 -->
<g id="edge49" class="edge"><title>20&#45;&gt;35</title>
<path fill="none" stroke="black" d="M13.0568,135.311C10.3939,147.724 5.23185,171.788 3.53606,179.693"/>
</g>
<!-- 21 -->
<g id="node22" class="node"><title>21</title>
<ellipse fill="deepskyblue" stroke="black" cx="-106.906" cy="195.43" rx="2.5" ry="2.5"/>
</g>
<!-- 25 -->
<g id="node26" class="node"><title>25</title>
<ellipse fill="deepskyblue" stroke="black" cx="-37" cy="-13" rx="2.5" ry="2.5"/>
</g>
<!-- 28 -->
<g id="node29" class="node"><title>28</title>
<ellipse fill="#ff3030" stroke="black" cx="-87.32" cy="-79.0359" rx="2.5" ry="2.5"/>
</g>
<!-- 30 -->
<g id="node31" class="node"><title>30</title>
<ellipse fill="#ff3030" stroke="black" cx="-46.68" cy="-72.9641" rx="2.5" ry="2.5"/>
</g>
<!-- 28&#45;&gt;30 -->
<g id="edge50" class="edge"><title>28&#45;&gt;30</title>
<path fill="none" stroke="black" d="M-84.6535,-78.6375C-78.6275,-77.7372 -63.7653,-75.5167 -54.5225,-74.1358"/>
<polygon fill="black" stroke="black" points="-54.0961,-75.8416 -49.4096,-73.3719 -54.6133,-72.38 -54.0961,-75.8416"/>
<text text-anchor="middle" x="-92.0646" y="-64.8097" font-family="monospace" font-size="14.00">N1570Y</text>
</g>
<!-- 36 -->
<g id="node37" class="node"><title>36</title>
<ellipse fill="#ff3030" stroke="black" cx="-67" cy="-13" rx="2.5" ry="2.5"/>
</g>
<!-- 37 -->
<g id="node38" class="node"><title>37</title>
<ellipse fill="#ff3030" stroke="black" cx="-87" cy="57" rx="2.5" ry="2.5"/>
</g>
<!-- 39 -->
<g id="node40" class="node"><title>39</title>
<ellipse fill="#ff3030" stroke="black" cx="103" cy="77" rx="2.5" ry="2.5"/>
</g>
<!-- 42 -->
<g id="node43" class="node"><title>42</title>
<ellipse fill="#ff3030" stroke="black" cx="103" cy="-13" rx="2.5" ry="2.5"/>
</g>
<!-- 43 -->
<g id="node44" class="node"><title>43</title>
<ellipse fill="#ff3030" stroke="black" cx="103" cy="-93" rx="2.5" ry="2.5"/>
</g>
<!-- 44 -->
<g id="node45" class="node"><title>44</title>
<ellipse fill="deepskyblue" stroke="black" cx="28.0487" cy="-35.7979" rx="2.5" ry="2.5"/>
</g>
<!-- 45 -->
<g id="node46" class="node"><title>45</title>
<path fill="olivedrab" stroke="black" stroke-width="0.5" d="M192.662,-193.98C192.662,-193.98 225.662,-193.98 225.662,-193.98 225.662,-195.163 225.598,-196.345 225.471,-197.521 225.344,-198.697 225.154,-199.866 224.902,-201.022 224.649,-202.178 224.335,-203.319 223.96,-204.441 223.585,-205.563 223.15,-206.664 222.657,-207.739 222.163,-208.815 221.612,-209.863 221.007,-210.879 220.401,-211.895 219.741,-212.878 219.029,-213.823 218.318,-214.768 217.556,-215.675 216.748,-216.538 215.939,-217.402 215.084,-218.221 214.187,-218.993 214.187,-218.993 192.662,-193.98 192.662,-193.98"/>
<path fill="#1874cd" stroke="black" stroke-width="0.5" d="M192.662,-193.98C192.662,-193.98 214.187,-218.993 214.187,-218.993 213.481,-219.601 212.749,-220.179 211.993,-220.725 211.238,-221.271 210.459,-221.785 209.66,-222.265 208.861,-222.745 208.042,-223.191 207.206,-223.602 206.369,-224.013 205.515,-224.388 204.646,-224.727 203.778,-225.065 202.895,-225.367 202.001,-225.631 201.107,-225.894 200.202,-226.12 199.289,-226.307 198.376,-226.495 197.455,-226.643 196.529,-226.752 195.603,-226.862 194.673,-226.932 193.742,-226.962 192.81,-226.993 191.877,-226.984 190.946,-226.935 190.016,-226.887 189.087,-226.799 188.164,-226.672 187.24,-226.545 186.322,-226.378 185.413,-226.174 184.503,-225.969 183.603,-225.726 182.714,-225.445 181.825,-225.164 180.949,-224.845 180.087,-224.49 179.225,-224.135 178.379,-223.743 177.55,-223.316 176.721,-222.889 175.911,-222.427 175.121,-221.932 174.332,-221.436 173.563,-220.908 172.819,-220.347 172.074,-219.787 171.353,-219.195 170.658,-218.573 169.963,-217.951 169.295,-217.301 168.656,-216.623 168.016,-215.944 167.405,-215.239 166.826,-214.51 166.246,-213.78 165.697,-213.026 165.181,-212.249 164.665,-211.473 164.182,-210.675 163.733,-209.858 163.285,-209.041 162.871,-208.205 162.493,-207.353 162.115,-206.5 161.774,-205.633 161.47,-204.751 161.165,-203.87 160.898,-202.977 160.67,-202.073 160.441,-201.169 160.251,-200.256 160.1,-199.336 159.948,-198.416 159.836,-197.491 159.763,-196.561 159.69,-195.632 159.657,-194.7 159.663,-193.768 159.669,-192.835 159.714,-191.904 159.799,-190.976 159.884,-190.047 160.008,-189.123 160.171,-188.205 160.334,-187.287 160.536,-186.377 160.776,-185.476 161.017,-184.575 161.295,-183.685 161.611,-182.808 161.926,-181.931 162.279,-181.067 162.667,-180.22 163.056,-179.373 163.481,-178.542 163.94,-177.731 164.399,-176.919 164.892,-176.128 165.418,-175.358 165.944,-174.589 166.502,-173.842 167.092,-173.119 167.681,-172.397 168.3,-171.7 168.949,-171.03 169.597,-170.36 170.273,-169.718 170.976,-169.106 171.679,-168.493 172.407,-167.91 173.159,-167.359 173.911,-166.809 174.686,-166.29 175.482,-165.804 176.278,-165.319 177.094,-164.868 177.928,-164.451 178.762,-164.035 179.614,-163.655 180.48,-163.31 181.347,-162.966 182.227,-162.659 183.12,-162.39 184.012,-162.12 184.915,-161.888 185.827,-161.695 186.739,-161.502 187.659,-161.348 188.584,-161.233 189.509,-161.117 190.439,-161.042 191.37,-161.005 192.302,-160.969 193.234,-160.972 194.166,-161.014 195.097,-161.056 196.026,-161.138 196.95,-161.26 197.875,-161.381 198.793,-161.541 199.704,-161.74 200.615,-161.939 201.517,-162.176 202.407,-162.452 203.298,-162.727 204.177,-163.04 205.041,-163.389 205.905,-163.739 206.754,-164.125 207.585,-164.547 208.417,-164.968 209.23,-165.425 210.023,-165.915 210.815,-166.406 211.587,-166.93 212.336,-167.485 213.084,-168.041 213.809,-168.628 214.507,-169.245 215.206,-169.863 215.878,-170.509 216.522,-171.183 217.166,-171.857 217.781,-172.558 218.366,-173.284 218.951,-174.01 219.504,-174.761 220.025,-175.534 220.546,-176.307 221.034,-177.102 221.488,-177.916 221.942,-178.73 222.361,-179.563 222.744,-180.413 223.128,-181.263 223.475,-182.129 223.785,-183.008 224.095,-183.887 224.367,-184.779 224.602,-185.681 224.836,-186.583 225.032,-187.495 225.189,-188.414 225.346,-189.333 225.465,-190.258 225.544,-191.187 225.622,-192.116 225.662,-193.048 225.662,-193.98 225.662,-193.98 192.662,-193.98 192.662,-193.98"/>
<ellipse fill="none" stroke="black" cx="192.662" cy="-193.98" rx="33" ry="33"/>
</g>
<!-- 50 -->
<g id="node51" class="node"><title>50</title>
<ellipse fill="#1874cd" stroke="black" cx="251.914" cy="-206.56" rx="2.5" ry="2.5"/>
</g>
<!-- 45&#45;&gt;50 -->
<g id="edge51" class="edge"><title>45&#45;&gt;50</title>
<path fill="none" stroke="black" d="M225.062,-200.859C235.22,-203.016 244.94,-205.08 249.387,-206.024"/>
</g>
<!-- 51 -->
<g id="node52" class="node"><title>51</title>
<ellipse fill="#1874cd" stroke="black" cx="160.086" cy="-103.363" rx="2.5" ry="2.5"/>
</g>
<!-- 45&#45;&gt;51 -->
<g id="edge52" class="edge"><title>45&#45;&gt;51</title>
<path fill="none" stroke="black" d="M181.451,-162.795C173.648,-141.088 164.117,-114.576 161.071,-106.103"/>
</g>
<!-- 57 -->
<g id="node58" class="node"><title>57</title>
<ellipse fill="#1874cd" stroke="black" cx="147.117" cy="-268.148" rx="2.5" ry="2.5"/>
</g>
<!-- 45&#45;&gt;57 -->
<g id="edge53" class="edge"><title>45&#45;&gt;57</title>
<path fill="none" stroke="black" d="M175.183,-222.443C164.748,-239.437 152.742,-258.988 148.607,-265.722"/>
</g>
<!-- 61 -->
<g id="node62" class="node"><title>61</title>
<ellipse fill="#1874cd" stroke="black" cx="143.102" cy="-226.347" rx="2.5" ry="2.5"/>
</g>
<!-- 45&#45;&gt;61 -->
<g id="edge54" class="edge"><title>45&#45;&gt;61</title>
<path fill="none" stroke="black" d="M164.984,-212.056C156.825,-217.385 149.09,-222.436 145.385,-224.856"/>
</g>
<!-- 66 -->
<g id="node67" class="node"><title>66</title>
<ellipse fill="#1874cd" stroke="black" cx="107.836" cy="-158.921" rx="2.5" ry="2.5"/>
</g>
<!-- 45&#45;&gt;66 -->
<g id="edge55" class="edge"><title>45&#45;&gt;66</title>
<path fill="none" stroke="black" d="M162.038,-181.323C141.917,-173.006 117.95,-163.101 110.306,-159.942"/>
</g>
<!-- 70 -->
<g id="node71" class="node"><title>70</title>
<ellipse fill="#1874cd" stroke="black" cx="268.117" cy="-149.6" rx="2.5" ry="2.5"/>
</g>
<!-- 45&#45;&gt;70 -->
<g id="edge56" class="edge"><title>45&#45;&gt;70</title>
<path fill="none" stroke="black" d="M221.188,-177.202C238.55,-166.991 258.679,-155.151 265.617,-151.07"/>
</g>
<!-- 72 -->
<g id="node73" class="node"><title>72</title>
<ellipse fill="#1874cd" stroke="black" cx="131.919" cy="-134.133" rx="2.5" ry="2.5"/>
</g>
<!-- 45&#45;&gt;72 -->
<g id="edge57" class="edge"><title>45&#45;&gt;72</title>
<path fill="none" stroke="black" d="M169.003,-170.67C155.145,-157.017 139.325,-141.43 133.879,-136.065"/>
</g>
<!-- 74 -->
<g id="node75" class="node"><title>74</title>
<ellipse fill="#1874cd" stroke="black" cx="214.597" cy="-102.927" rx="2.5" ry="2.5"/>
</g>
<!-- 45&#45;&gt;74 -->
<g id="edge58" class="edge"><title>45&#45;&gt;74</title>
<path fill="none" stroke="black" d="M200.395,-161.878C205.625,-140.169 211.932,-113.988 213.946,-105.629"/>
</g>
<!-- 80 -->
<g id="node81" class="node"><title>80</title>
<ellipse fill="#1874cd" stroke="black" cx="102.295" cy="-195.144" rx="2.5" ry="2.5"/>
</g>
<!-- 45&#45;&gt;80 -->
<g id="edge60" class="edge"><title>45&#45;&gt;80</title>
<path fill="none" stroke="black" d="M159.526,-194.407C138.168,-194.682 112.936,-195.007 104.893,-195.11"/>
</g>
<!-- 81 -->
<g id="node82" class="node"><title>81</title>
<ellipse fill="#1874cd" stroke="black" cx="286.948" cy="-183.001" rx="3.5" ry="3.5"/>
</g>
<!-- 45&#45;&gt;81 -->
<g id="edge61" class="edge"><title>45&#45;&gt;81</title>
<path fill="none" stroke="black" d="M225.639,-190.14C247.517,-187.592 273.884,-184.522 283.349,-183.42"/>
</g>
<!-- 88 -->
<g id="node89" class="node"><title>88</title>
<ellipse fill="#1874cd" stroke="black" cx="224.049" cy="-259.978" rx="3.5" ry="3.5"/>
</g>
<!-- 45&#45;&gt;88 -->
<g id="edge64" class="edge"><title>45&#45;&gt;88</title>
<path fill="none" stroke="black" d="M206.886,-223.889C213.115,-236.986 219.654,-250.738 222.535,-256.795"/>
</g>
<!-- 93 -->
<g id="node94" class="node"><title>93</title>
<ellipse fill="#1874cd" stroke="black" cx="275.61" cy="-248.936" rx="2.5" ry="2.5"/>
</g>
<!-- 45&#45;&gt;93 -->
<g id="edge65" class="edge"><title>45&#45;&gt;93</title>
<path fill="none" stroke="black" d="M220.283,-212.279C240.642,-225.768 266.034,-242.591 273.471,-247.519"/>
</g>
<!-- 96 -->
<g id="node97" class="node"><title>96</title>
<ellipse fill="#1874cd" stroke="black" cx="247.837" cy="-121.871" rx="2.5" ry="2.5"/>
</g>
<!-- 45&#45;&gt;96 -->
<g id="edge66" class="edge"><title>45&#45;&gt;96</title>
<path fill="none" stroke="black" d="M212.894,-167.538C223.693,-153.425 236.115,-137.191 242.854,-128.383"/>
<polygon fill="black" stroke="black" points="244.603,-128.978 246.251,-123.944 241.823,-126.851 244.603,-128.978"/>
<text text-anchor="middle" x="208.644" y="-149.447" font-family="monospace" font-size="14.00">A837V</text>
</g>
<!-- 116 -->
<g id="node117" class="node"><title>116</title>
<ellipse fill="olivedrab" stroke="black" cx="107.102" cy="-239.265" rx="2.5" ry="2.5"/>
</g>
<!-- 45&#45;&gt;116 -->
<g id="edge67" class="edge"><title>45&#45;&gt;116</title>
<path fill="none" stroke="black" d="M163.217,-209.565C142.722,-220.413 117.689,-233.662 109.689,-237.896"/>
</g>
<!-- anon_45_83_0 -->
<g id="node127" class="node"><title>anon_45_83_0</title>
<ellipse fill="white" stroke="black" cx="190.305" cy="-290.046" rx="1" ry="1"/>
</g>
<!-- 45&#45;&gt;anon_45_83_0 -->
<g id="edge62" class="edge"><title>45&#45;&gt;anon_45_83_0</title>
<path fill="none" stroke="black" d="M191.851,-227.04C191.254,-251.355 190.518,-281.358 190.343,-288.479"/>
</g>
<!-- 47 -->
<g id="node48" class="node"><title>47</title>
<ellipse fill="#1874cd" stroke="black" cx="238.94" cy="-13.6244" rx="15" ry="15"/>
</g>
<!-- 82 -->
<g id="node83" class="node"><title>82</title>
<ellipse fill="#1874cd" stroke="black" cx="234.379" cy="-74.8193" rx="2.5" ry="2.5"/>
</g>
<!-- 47&#45;&gt;82 -->
<g id="edge70" class="edge"><title>47&#45;&gt;82</title>
<path fill="none" stroke="black" d="M237.813,-28.7512C236.715,-43.475 235.134,-64.6848 234.58,-72.1208"/>
</g>
<!-- 87 -->
<g id="node88" class="node"><title>87</title>
<ellipse fill="#1874cd" stroke="black" cx="182.073" cy="-26.1939" rx="2.5" ry="2.5"/>
</g>
<!-- 47&#45;&gt;87 -->
<g id="edge71" class="edge"><title>47&#45;&gt;87</title>
<path fill="none" stroke="black" d="M223.999,-16.9269C210.573,-19.8946 191.921,-24.0172 184.898,-25.5695"/>
</g>
<!-- 90 -->
<g id="node91" class="node"><title>90</title>
<ellipse fill="#1874cd" stroke="black" cx="209.642" cy="40.2505" rx="2.5" ry="2.5"/>
</g>
<!-- 47&#45;&gt;90 -->
<g id="edge72" class="edge"><title>47&#45;&gt;90</title>
<path fill="none" stroke="black" d="M231.698,-0.307004C224.649,12.6555 214.494,31.3282 210.934,37.8748"/>
</g>
<!-- 48 -->
<g id="node49" class="node"><title>48</title>
<ellipse fill="#1874cd" stroke="black" cx="341.675" cy="6.93094" rx="6" ry="6"/>
</g>
<!-- 53 -->
<g id="node54" class="node"><title>53</title>
<ellipse fill="#1874cd" stroke="black" cx="367.238" cy="53.7876" rx="6" ry="6"/>
</g>
<!-- 48&#45;&gt;53 -->
<g id="edge73" class="edge"><title>48&#45;&gt;53</title>
<path fill="none" stroke="black" d="M344.608,12.306C348.807,20.0028 356.604,34.2957 361.857,43.9247"/>
<polygon fill="black" stroke="black" points="363.481,43.2478 364.34,48.4753 360.409,44.9241 363.481,43.2478"/>
<text text-anchor="middle" x="333.311" y="26.2933" font-family="monospace" font-size="14.00">G317S</text>
</g>
<!-- 64 -->
<g id="node65" class="node"><title>64</title>
<ellipse fill="#1874cd" stroke="black" cx="378.721" cy="-25.1522" rx="2.5" ry="2.5"/>
</g>
<!-- 48&#45;&gt;64 -->
<g id="edge74" class="edge"><title>48&#45;&gt;64</title>
<path fill="none" stroke="black" d="M346.218,2.99691C354.255,-3.96389 370.689,-18.1962 376.569,-23.2886"/>
</g>
<!-- anon_47_48_0 -->
<g id="node128" class="node"><title>anon_47_48_0</title>
<ellipse fill="white" stroke="black" cx="295.331" cy="-1.17921" rx="1" ry="1"/>
</g>
<!-- 48&#45;&gt;anon_47_48_0 -->
<g id="edge69" class="edge"><title>48&#45;&gt;anon_47_48_0</title>
<path fill="none" stroke="black" d="M335.617,5.87068C326.772,4.32281 310.41,1.45961 301.502,-0.0992996"/>
<polygon fill="black" stroke="black" points="301.17,1.61933 296.547,-0.966453 301.774,-1.82828 301.17,1.61933"/>
<text text-anchor="middle" x="290.926" y="-1.37515" font-family="monospace" font-size="14.00">I1940T</text>
</g>
<!-- 49 -->
<g id="node50" class="node"><title>49</title>
<ellipse fill="#1874cd" stroke="black" cx="-75.9675" cy="-312.557" rx="2.5" ry="2.5"/>
</g>
<!-- 56 -->
<g id="node57" class="node"><title>56</title>
<path fill="olivedrab" stroke="black" stroke-width="0.5" d="M-50.2243,-266.89C-50.2243,-266.89 -42.2243,-266.89 -42.2243,-266.89 -42.2243,-267.204 -42.2429,-267.518 -42.2798,-267.83 -42.3167,-268.142 -42.372,-268.452 -42.4454,-268.757 -42.5187,-269.063 -42.61,-269.364 -42.7188,-269.659 -42.8276,-269.954 -42.9536,-270.242 -43.0963,-270.522 -43.239,-270.802 -43.398,-271.073 -43.5726,-271.334 -43.7472,-271.596 -43.937,-271.846 -44.1411,-272.085 -44.3452,-272.324 -44.5632,-272.551 -44.7939,-272.764 -45.0247,-272.978 -45.2678,-273.177 -45.5221,-273.362 -45.7763,-273.547 -46.0412,-273.716 -46.3154,-273.87 -46.5896,-274.023 -46.8725,-274.161 -47.1629,-274.281 -47.4532,-274.401 -47.7504,-274.504 -48.0528,-274.589 -48.3553,-274.675 -48.6625,-274.742 -48.9729,-274.791 -49.2833,-274.84 -49.5963,-274.871 -49.9103,-274.884 -50.2243,-274.896 -50.5387,-274.89 -50.852,-274.865 -51.1653,-274.84 -51.4769,-274.797 -51.7851,-274.736 -52.0933,-274.675 -52.3976,-274.595 -52.6965,-274.498 -52.6965,-274.498 -50.2243,-266.89 -50.2243,-266.89"/>
<path fill="#1874cd" stroke="black" stroke-width="0.5" d="M-50.2243,-266.89C-50.2243,-266.89 -52.6965,-274.498 -52.6965,-274.498 -53.0452,-274.385 -53.3857,-274.248 -53.7156,-274.088 -54.0455,-273.928 -54.364,-273.745 -54.6689,-273.542 -54.9738,-273.338 -55.2643,-273.113 -55.5384,-272.87 -55.8124,-272.626 -56.0695,-272.364 -56.3076,-272.085 -56.5457,-271.807 -56.7644,-271.512 -56.9621,-271.203 -57.1598,-270.894 -57.336,-270.572 -57.4895,-270.239 -57.643,-269.906 -57.7734,-269.563 -57.8799,-269.212 -57.9863,-268.861 -58.0685,-268.503 -58.1259,-268.141 -58.1832,-267.779 -58.2156,-267.413 -58.2228,-267.047 -58.23,-266.68 -58.212,-266.314 -58.1689,-265.949 -58.1258,-265.585 -58.0577,-265.225 -57.9651,-264.87 -57.8726,-264.515 -57.7557,-264.167 -57.6154,-263.828 -57.4751,-263.49 -57.3116,-263.161 -57.1262,-262.845 -56.9408,-262.528 -56.7339,-262.225 -56.5069,-261.937 -56.2799,-261.649 -56.0334,-261.377 -55.769,-261.123 -55.5047,-260.869 -55.2233,-260.633 -54.9266,-260.418 -54.63,-260.202 -54.3189,-260.007 -53.9955,-259.834 -53.6722,-259.662 -53.3373,-259.511 -52.9933,-259.384 -52.6493,-259.257 -52.297,-259.154 -51.9388,-259.076 -51.5807,-258.997 -51.2176,-258.943 -50.852,-258.914 -50.4865,-258.886 -50.1194,-258.882 -49.7534,-258.904 -49.3874,-258.925 -49.0232,-258.972 -48.6636,-259.044 -48.304,-259.115 -47.9497,-259.211 -47.6033,-259.331 -47.2569,-259.451 -46.9191,-259.595 -46.5924,-259.762 -46.2657,-259.928 -45.9509,-260.117 -45.65,-260.327 -45.3492,-260.536 -45.0632,-260.766 -44.7939,-261.015 -44.5247,-261.264 -44.2729,-261.531 -44.0403,-261.815 -43.8077,-262.098 -43.5948,-262.397 -43.4032,-262.71 -43.2116,-263.022 -43.0418,-263.348 -42.8948,-263.684 -42.7479,-264.02 -42.6242,-264.365 -42.5247,-264.718 -42.4252,-265.071 -42.35,-265.43 -42.2998,-265.794 -42.2496,-266.157 -42.2243,-266.523 -42.2243,-266.89 -42.2243,-266.89 -50.2243,-266.89 -50.2243,-266.89"/>
<ellipse fill="none" stroke="black" cx="-50.2243" cy="-266.89" rx="8" ry="8"/>
</g>
<!-- 49&#45;&gt;56 -->
<g id="edge75" class="edge"><title>49&#45;&gt;56</title>
<path fill="none" stroke="black" d="M-74.7259,-310.354C-71.07,-303.869 -60.2285,-284.637 -54.2662,-274.06"/>
</g>
<!-- 52 -->
<g id="node53" class="node"><title>52</title>
<path fill="olivedrab" stroke="black" stroke-width="0.5" d="M14.2295,-244.942C14.2295,-244.942 24.2295,-244.942 24.2295,-244.942 24.2295,-245.641 24.1562,-246.337 24.0109,-247.021 23.8657,-247.704 23.6491,-248.371 23.3649,-249.009 23.0807,-249.648 22.7304,-250.254 22.3196,-250.82 21.9089,-251.385 21.4401,-251.906 20.9208,-252.373 20.4015,-252.841 19.8346,-253.253 19.2295,-253.602 18.6243,-253.951 17.9842,-254.236 17.3196,-254.452 16.6551,-254.668 15.9697,-254.814 15.2748,-254.887 14.5798,-254.96 13.8791,-254.96 13.1842,-254.887 12.4892,-254.814 11.8039,-254.668 11.1393,-254.452 10.4747,-254.236 9.83462,-253.951 9.22947,-253.602 8.62432,-253.253 8.05745,-252.841 7.53817,-252.373 7.01888,-251.906 6.55003,-251.385 6.1393,-250.82 5.72858,-250.254 5.37823,-249.648 5.09402,-249.009 4.8098,-248.371 4.59328,-247.704 4.448,-247.021 4.30271,-246.337 4.22947,-245.641 4.22947,-244.942 4.22947,-244.243 4.30272,-243.546 4.448,-242.863 4.448,-242.863 14.2295,-244.942 14.2295,-244.942"/>
<path fill="#1874cd" stroke="black" stroke-width="0.5" d="M14.2295,-244.942C14.2295,-244.942 4.448,-242.863 4.448,-242.863 4.57509,-242.265 4.75675,-241.68 4.99068,-241.115 5.22461,-240.55 5.50983,-240.008 5.84277,-239.495 6.1757,-238.983 6.55494,-238.502 6.97573,-238.058 7.39652,-237.615 7.85708,-237.211 8.35162,-236.852 8.84617,-236.492 9.37262,-236.179 9.92436,-235.916 10.4761,-235.653 11.0508,-235.441 11.6413,-235.283 12.2317,-235.124 12.8355,-235.021 13.4449,-234.973 14.0543,-234.925 14.6668,-234.933 15.2748,-234.997 15.8827,-235.06 16.4835,-235.18 17.0696,-235.354 17.6557,-235.527 18.2247,-235.754 18.7694,-236.032 19.314,-236.309 19.8321,-236.636 20.3171,-237.008 20.8021,-237.38 21.2519,-237.796 21.6609,-238.25 22.07,-238.705 22.4365,-239.196 22.7559,-239.717 23.0753,-240.238 23.3462,-240.787 23.5653,-241.358 23.7843,-241.929 23.9506,-242.518 24.062,-243.119 24.1734,-243.721 24.2295,-244.331 24.2295,-244.942 24.2295,-244.942 14.2295,-244.942 14.2295,-244.942"/>
<ellipse fill="none" stroke="black" cx="14.2295" cy="-244.942" rx="10" ry="10"/>
</g>
<!-- 54 -->
<g id="node55" class="node"><title>54</title>
<ellipse fill="#1874cd" stroke="black" cx="14.7736" cy="-184.012" rx="4.5" ry="4.5"/>
</g>
<!-- 52&#45;&gt;54 -->
<g id="edge76" class="edge"><title>52&#45;&gt;54</title>
<path fill="none" stroke="black" d="M14.3193,-234.88C14.4389,-221.495 14.6453,-198.385 14.7326,-188.601"/>
</g>
<!-- 52&#45;&gt;56 -->
<g id="edge77" class="edge"><title>52&#45;&gt;56</title>
<path fill="none" stroke="black" d="M4.71909,-248.18C-6.43395,-251.978 -24.9726,-258.291 -37.3922,-262.52"/>
<polygon fill="black" stroke="black" points="-38.1319,-260.923 -42.3009,-264.192 -37.0036,-264.236 -38.1319,-260.923"/>
<text text-anchor="middle" x="-44.0646" y="-245.079" font-family="monospace" font-size="14.00">F1920S</text>
</g>
<!-- 67 -->
<g id="node68" class="node"><title>67</title>
<ellipse fill="#1874cd" stroke="black" cx="51.5194" cy="-288.097" rx="2.5" ry="2.5"/>
</g>
<!-- 52&#45;&gt;67 -->
<g id="edge78" class="edge"><title>52&#45;&gt;67</title>
<path fill="none" stroke="black" d="M21.069,-252.857C29.8158,-262.98 44.4511,-279.917 49.6318,-285.912"/>
</g>
<!-- 115 -->
<g id="node116" class="node"><title>115</title>
<ellipse fill="olivedrab" stroke="black" cx="10.6963" cy="-298.45" rx="2.5" ry="2.5"/>
</g>
<!-- 52&#45;&gt;115 -->
<g id="edge79" class="edge"><title>52&#45;&gt;115</title>
<path fill="none" stroke="black" d="M13.5483,-255.259C12.864,-265.622 11.8249,-281.358 11.208,-290.701"/>
<polygon fill="black" stroke="black" points="9.45488,-290.692 10.8716,-295.797 12.9473,-290.923 9.45488,-290.692"/>
<text text-anchor="middle" x="-8.76563" y="-278.957" font-family="monospace" font-size="14.00">R537L</text>
</g>
<!-- 117 -->
<g id="node118" class="node"><title>117</title>
<ellipse fill="olivedrab" stroke="black" cx="-21.5785" cy="-206.863" rx="2.5" ry="2.5"/>
</g>
<!-- 52&#45;&gt;117 -->
<g id="edge80" class="edge"><title>52&#45;&gt;117</title>
<path fill="none" stroke="black" d="M7.32534,-237.6C0.456168,-230.295 -9.94001,-219.24 -16.2128,-212.569"/>
<polygon fill="black" stroke="black" points="-15.1026,-211.195 -19.8028,-208.752 -17.6523,-213.593 -15.1026,-211.195"/>
<text text-anchor="middle" x="18.7473" y="-211.961" font-family="monospace" font-size="14.00">H1755Y</text>
</g>
<!-- 118 -->
<g id="node119" class="node"><title>118</title>
<ellipse fill="olivedrab" stroke="black" cx="70.282" cy="-247.837" rx="2.5" ry="2.5"/>
</g>
<!-- 52&#45;&gt;118 -->
<g id="edge81" class="edge"><title>52&#45;&gt;118</title>
<path fill="none" stroke="black" d="M24.2505,-245.459C37.3502,-246.136 59.5509,-247.283 67.4156,-247.689"/>
</g>
<!-- 120 -->
<g id="node121" class="node"><title>120</title>
<ellipse fill="olivedrab" stroke="black" cx="54.2316" cy="-206.237" rx="2.5" ry="2.5"/>
</g>
<!-- 52&#45;&gt;120 -->
<g id="edge82" class="edge"><title>52&#45;&gt;120</title>
<path fill="none" stroke="black" d="M21.5665,-237.843C29.3368,-230.325 41.439,-218.615 48.5259,-211.758"/>
<polygon fill="black" stroke="black" points="49.8302,-212.931 52.2067,-208.197 47.3965,-210.416 49.8302,-212.931"/>
<text text-anchor="middle" x="57.6725" y="-227.027" font-family="monospace" font-size="14.00">K251R</text>
</g>
<!-- 55 -->
<g id="node56" class="node"><title>55</title>
<ellipse fill="#1874cd" stroke="black" cx="-36.0171" cy="-100.015" rx="2.5" ry="2.5"/>
</g>
<!-- 91 -->
<g id="node92" class="node"><title>91</title>
<ellipse fill="#1874cd" stroke="black" cx="-5.11686" cy="-138.603" rx="2.5" ry="2.5"/>
</g>
<!-- 55&#45;&gt;91 -->
<g id="edge85" class="edge"><title>55&#45;&gt;91</title>
<path fill="none" stroke="black" d="M-34.3558,-102.09C-29.0406,-108.727 -12.4769,-129.412 -6.94014,-136.326"/>
</g>
<!-- 55&#45;&gt;98 -->
<g id="edge86" class="edge"><title>55&#45;&gt;98</title>
<path fill="none" stroke="black" d="M-35.6563,-97.5164C-34.3629,-88.5604 -29.9473,-57.9841 -28.2717,-46.3819"/>
</g>
<!-- anon_55_76_0 -->
<g id="node129" class="node"><title>anon_55_76_0</title>
<ellipse fill="white" stroke="black" cx="-52.6575" cy="-142.806" rx="1" ry="1"/>
</g>
<!-- 55&#45;&gt;anon_55_76_0 -->
<g id="edge83" class="edge"><title>55&#45;&gt;anon_55_76_0</title>
<path fill="none" stroke="black" d="M-37.0082,-102.564C-40.1428,-110.624 -49.7734,-135.39 -52.132,-141.455"/>
</g>
<!-- 119 -->
<g id="node120" class="node"><title>119</title>
<ellipse fill="olivedrab" stroke="black" cx="-97.9621" cy="-244.116" rx="2.5" ry="2.5"/>
</g>
<!-- 56&#45;&gt;119 -->
<g id="edge87" class="edge"><title>56&#45;&gt;119</title>
<path fill="none" stroke="black" d="M-57.6834,-263.331C-68.5922,-258.127 -88.3644,-248.695 -95.3955,-245.34"/>
</g>
<!-- 58 -->
<g id="node59" class="node"><title>58</title>
<ellipse fill="#1874cd" stroke="black" cx="315.678" cy="-270.594" rx="2.5" ry="2.5"/>
</g>
<!-- 58&#45;&gt;93 -->
<g id="edge88" class="edge"><title>58&#45;&gt;93</title>
<path fill="none" stroke="black" d="M313.049,-269.173C305.667,-265.183 284.836,-253.923 277.894,-250.171"/>
</g>
<!-- 59 -->
<g id="node60" class="node"><title>59</title>
<ellipse fill="#1874cd" stroke="black" cx="-131.005" cy="-199.45" rx="8.5" ry="8.5"/>
</g>
<!-- 71 -->
<g id="node72" class="node"><title>71</title>
<ellipse fill="#1874cd" stroke="black" cx="-131.752" cy="-152.282" rx="2.5" ry="2.5"/>
</g>
<!-- 59&#45;&gt;71 -->
<g id="edge89" class="edge"><title>59&#45;&gt;71</title>
<path fill="none" stroke="black" d="M-131.142,-190.799C-131.314,-179.948 -131.599,-161.932 -131.708,-155.061"/>
</g>
<!-- anon_59_85_0 -->
<g id="node130" class="node"><title>anon_59_85_0</title>
<ellipse fill="white" stroke="black" cx="-120.792" cy="-244.013" rx="1" ry="1"/>
</g>
<!-- 59&#45;&gt;anon_59_85_0 -->
<g id="edge90" class="edge"><title>59&#45;&gt;anon_59_85_0</title>
<path fill="none" stroke="black" d="M-129.035,-208.042C-126.439,-219.373 -122.075,-238.415 -121.025,-242.999"/>
</g>
<!-- 60 -->
<g id="node61" class="node"><title>60</title>
<ellipse fill="#1874cd" stroke="black" cx="53" cy="-103" rx="2.5" ry="2.5"/>
</g>
<!-- 62 -->
<g id="node63" class="node"><title>62</title>
<ellipse fill="#1874cd" stroke="black" cx="23" cy="-103" rx="2.5" ry="2.5"/>
</g>
<!-- 63 -->
<g id="node64" class="node"><title>63</title>
<ellipse fill="#1874cd" stroke="black" cx="-7" cy="-103" rx="2.5" ry="2.5"/>
</g>
<!-- 65 -->
<g id="node66" class="node"><title>65</title>
<ellipse fill="#1874cd" stroke="black" cx="-67" cy="-103" rx="2.5" ry="2.5"/>
</g>
<!-- 68 -->
<g id="node69" class="node"><title>68</title>
<ellipse fill="#1874cd" stroke="black" cx="-97" cy="-103" rx="2.5" ry="2.5"/>
</g>
<!-- 69 -->
<g id="node70" class="node"><title>69</title>
<ellipse fill="#1874cd" stroke="black" cx="123" cy="-43" rx="2.5" ry="2.5"/>
</g>
<!-- 73 -->
<g id="node74" class="node"><title>73</title>
<ellipse fill="#1874cd" stroke="black" cx="-117" cy="57" rx="2.5" ry="2.5"/>
</g>
<!-- 75 -->
<g id="node76" class="node"><title>75</title>
<ellipse fill="#1874cd" stroke="black" cx="-53.8885" cy="-231.556" rx="2.5" ry="2.5"/>
</g>
<!-- 76 -->
<g id="node77" class="node"><title>76</title>
<ellipse fill="#1874cd" stroke="black" cx="-54.4395" cy="-187.572" rx="2.5" ry="2.5"/>
</g>
<!-- 75&#45;&gt;76 -->
<g id="edge92" class="edge"><title>75&#45;&gt;76</title>
<path fill="none" stroke="black" d="M-53.9213,-228.937C-54.0195,-221.095 -54.3105,-197.874 -54.4075,-190.123"/>
</g>
<!-- 79 -->
<g id="node80" class="node"><title>79</title>
<ellipse fill="#1874cd" stroke="black" cx="185.694" cy="-131.94" rx="2.5" ry="2.5"/>
</g>
<!-- 79&#45;&gt;45 -->
<g id="edge59" class="edge"><title>79&#45;&gt;45</title>
<path fill="none" stroke="black" d="M185.993,-134.606C186.45,-138.676 187.378,-146.932 188.399,-156.026"/>
<polygon fill="black" stroke="black" points="186.677,-156.37 188.974,-161.143 190.155,-155.979 186.677,-156.37"/>
<text text-anchor="middle" x="166.481" y="-136.648" font-family="monospace" font-size="14.00">R254K</text>
</g>
<!-- 83 -->
<g id="node84" class="node"><title>83</title>
<ellipse fill="#1874cd" stroke="black" cx="190.133" cy="-334.244" rx="2.5" ry="2.5"/>
</g>
<!-- 84 -->
<g id="node85" class="node"><title>84</title>
<ellipse fill="#1874cd" stroke="black" cx="-67" cy="117" rx="2.5" ry="2.5"/>
</g>
<!-- 85 -->
<g id="node86" class="node"><title>85</title>
<ellipse fill="#1874cd" stroke="black" cx="-104.451" cy="-280.255" rx="2.5" ry="2.5"/>
</g>
<!-- 86 -->
<g id="node87" class="node"><title>86</title>
<ellipse fill="#1874cd" stroke="black" cx="133" cy="77" rx="2.5" ry="2.5"/>
</g>
<!-- 89 -->
<g id="node90" class="node"><title>89</title>
<ellipse fill="#1874cd" stroke="black" cx="63" cy="-133" rx="2.5" ry="2.5"/>
</g>
<!-- 92 -->
<g id="node93" class="node"><title>92</title>
<ellipse fill="#1874cd" stroke="black" cx="33" cy="-133" rx="2.5" ry="2.5"/>
</g>
<!-- 94 -->
<g id="node95" class="node"><title>94</title>
<ellipse fill="#1874cd" stroke="black" cx="-87" cy="-133" rx="2.5" ry="2.5"/>
</g>
<!-- 98&#45;&gt;9 -->
<g id="edge93" class="edge"><title>98&#45;&gt;9</title>
<path fill="none" stroke="black" stroke-dasharray="5,2" d="M-32.2826,-42.0326C-40.255,-42.3149 -56.5957,-42.8935 -66.4341,-43.2418"/>
<polygon fill="black" stroke="black" points="-66.6517,-41.4984 -71.5866,-43.4243 -66.5278,-44.9962 -66.6517,-41.4984"/>
<text text-anchor="middle" x="-76.6271" y="-31.5176" font-family="monospace" font-size="14.00">N1570Y</text>
</g>
<!-- 98&#45;&gt;11 -->
<g id="edge94" class="edge"><title>98&#45;&gt;11</title>
<path fill="none" stroke="black" stroke-dasharray="5,2" d="M-25.5432,-46.0868C-22.7279,-51.8072 -17.6592,-62.1062 -14.234,-69.0658"/>
<polygon fill="black" stroke="black" points="-15.6069,-70.2393 -11.8289,-73.9527 -12.4667,-68.6938 -15.6069,-70.2393"/>
<text text-anchor="middle" x="-6.26797" y="-48.6533" font-family="monospace" font-size="14.00">P1874L</text>
</g>
<!-- 98&#45;&gt;33 -->
<g id="edge95" class="edge"><title>98&#45;&gt;33</title>
<path fill="none" stroke="black" stroke-dasharray="5,2" d="M-23.3953,-44.1127C-16.0335,-48.0251 -0.795779,-56.1233 8.05306,-60.8261"/>
<polygon fill="black" stroke="black" points="7.37306,-62.4465 12.6096,-63.2477 9.01564,-59.3558 7.37306,-62.4465"/>
<text text-anchor="middle" x="-30.4864" y="-57.4304" font-family="monospace" font-size="14.00">A1934V</text>
</g>
<!-- 99 -->
<g id="node100" class="node"><title>99</title>
<ellipse fill="brown" stroke="black" cx="-127" cy="-123" rx="2.5" ry="2.5"/>
</g>
<!-- 100 -->
<g id="node101" class="node"><title>100</title>
<ellipse fill="brown" stroke="black" cx="-127" cy="127" rx="2.5" ry="2.5"/>
</g>
<!-- 101 -->
<g id="node102" class="node"><title>101</title>
<ellipse fill="brown" stroke="black" cx="153" cy="-53" rx="2.5" ry="2.5"/>
</g>
<!-- 102 -->
<g id="node103" class="node"><title>102</title>
<ellipse fill="brown" stroke="black" cx="-147" cy="97" rx="2.5" ry="2.5"/>
</g>
<!-- 105 -->
<g id="node106" class="node"><title>105</title>
<ellipse fill="brown" stroke="black" cx="163" cy="157" rx="2.5" ry="2.5"/>
</g>
<!-- 106 -->
<g id="node107" class="node"><title>106</title>
<ellipse fill="brown" stroke="black" cx="163" cy="127" rx="2.5" ry="2.5"/>
</g>
<!-- 107 -->
<g id="node108" class="node"><title>107</title>
<ellipse fill="brown" stroke="black" cx="73" cy="-163" rx="2.5" ry="2.5"/>
</g>
<!-- 108 -->
<g id="node109" class="node"><title>108</title>
<ellipse fill="brown" stroke="black" cx="43" cy="-163" rx="2.5" ry="2.5"/>
</g>
<!-- 109 -->
<g id="node110" class="node"><title>109</title>
<ellipse fill="brown" stroke="black" cx="-17" cy="-163" rx="2.5" ry="2.5"/>
</g>
<!-- 110 -->
<g id="node111" class="node"><title>110</title>
<ellipse fill="brown" stroke="black" cx="-87" cy="-163" rx="2.5" ry="2.5"/>
</g>
<!-- 111 -->
<g id="node112" class="node"><title>111</title>
<ellipse fill="brown" stroke="black" cx="-157" cy="-123" rx="2.5" ry="2.5"/>
</g>
<!-- 112 -->
<g id="node113" class="node"><title>112</title>
<ellipse fill="brown" stroke="black" cx="-157" cy="127" rx="2.5" ry="2.5"/>
</g>
<!-- 113 -->
<g id="node114" class="node"><title>113</title>
<ellipse fill="brown" stroke="black" cx="-157" cy="157" rx="2.5" ry="2.5"/>
</g>
<!-- 114 -->
<g id="node115" class="node"><title>114</title>
<ellipse fill="brown" stroke="black" cx="-127" cy="157" rx="2.5" ry="2.5"/>
</g>
<!-- anon_2_16_0&#45;&gt;16 -->
<g id="edge9" class="edge"><title>anon_2_16_0&#45;&gt;16</title>
<path fill="none" stroke="black" d="M100.887,-63.1209C105.505,-67.1379 127.003,-85.8418 133.609,-91.5887"/>
</g>
<!-- anon_6_44_0&#45;&gt;44 -->
<g id="edge37" class="edge"><title>anon_6_44_0&#45;&gt;44</title>
<path fill="none" stroke="black" d="M10.7188,2.6141C12.6307,-1.62375 20.3317,-18.6931 24.7983,-28.5933"/>
<polygon fill="black" stroke="black" points="23.2383,-29.391 26.8897,-33.2289 26.4286,-27.9516 23.2383,-29.391"/>
<text text-anchor="middle" x="39.753" y="-3.99374" font-family="monospace" font-size="14.00">P940H</text>
</g>
<!-- anon_15_21_0&#45;&gt;21 -->
<g id="edge47" class="edge"><title>anon_15_21_0&#45;&gt;21</title>
<path fill="none" stroke="black" d="M-75.4585,161.8C-78.9934,165.581 -93.4337,181.023 -101.46,189.607"/>
<polygon fill="black" stroke="black" points="-100.457,191.095 -105.15,193.552 -103.013,188.705 -100.457,191.095"/>
<text text-anchor="middle" x="-115.15" y="173.712" font-family="monospace" font-size="14.00">L1366F</text>
</g>
<!-- anon_45_83_0&#45;&gt;83 -->
<g id="edge63" class="edge"><title>anon_45_83_0&#45;&gt;83</title>
<path fill="none" stroke="black" d="M190.3,-291.139C190.278,-296.775 190.178,-322.637 190.144,-331.361"/>
</g>
<!-- anon_47_48_0&#45;&gt;47 -->
<g id="edge68" class="edge"><title>anon_47_48_0&#45;&gt;47</title>
<path fill="none" stroke="black" d="M294.352,-1.39522C290.106,-2.33237 272.856,-6.13927 258.717,-9.25981"/>
<polygon fill="black" stroke="black" points="258.183,-7.58534 253.678,-10.3718 258.938,-11.0031 258.183,-7.58534"/>
<text text-anchor="middle" x="253.083" y="5.33136" font-family="monospace" font-size="14.00">D466H</text>
</g>
<!-- anon_55_76_0&#45;&gt;76 -->
<g id="edge84" class="edge"><title>anon_55_76_0&#45;&gt;76</title>
<path fill="none" stroke="black" d="M-52.7016,-143.913C-52.9288,-149.622 -53.9715,-175.817 -54.3233,-184.653"/>
</g>
<!-- anon_59_85_0&#45;&gt;85 -->
<g id="edge91" class="edge"><title>anon_59_85_0&#45;&gt;85</title>
<path fill="none" stroke="black" d="M-120.09,-245.57C-117.549,-251.207 -108.813,-270.581 -105.626,-277.649"/>
</g>
</g>
</svg>
