<?xml version="1.0" encoding="UTF-8" standalone="no"?>
<!DOCTYPE svg PUBLIC "-//W3C//DTD SVG 1.1//EN"
 "http://www.w3.org/Graphics/SVG/1.1/DTD/svg11.dtd">
<!-- Generated by graphviz version 2.38.0 (20140413.2041)
 -->
<!-- Title: %3 Pages: 1 -->
<svg width="383pt" height="554pt"
 viewBox="0.00 0.00 383.10 553.80" xmlns="http://www.w3.org/2000/svg" xmlns:xlink="http://www.w3.org/1999/xlink">
<g id="graph0" class="graph" transform="scale(1 1) rotate(0) translate(145.491 297.293)">
<title>%3</title>
<polygon fill="white" stroke="none" points="-145.491,256.511 -145.491,-297.293 237.613,-297.293 237.613,256.511 -145.491,256.511"/>
<!-- 0 -->
<g id="node1" class="node"><title>0</title>
<path fill="deepskyblue" stroke="black" stroke-width="0.5" d="M-47.8174,-9.64709C-47.8174,-9.64709 -29.8174,-9.64709 -29.8174,-9.64709 -29.8174,-10.5665 -29.8878,-11.4845 -30.0281,-12.3931 -30.1684,-13.3017 -30.378,-14.1982 -30.6552,-15.0748 -30.9325,-15.9513 -31.2764,-16.8054 -31.6841,-17.6294 -32.0918,-18.4534 -32.5621,-19.245 -33.0907,-19.9972 -33.6194,-20.7494 -34.2048,-21.4599 -34.842,-22.1227 -35.4792,-22.7854 -36.1663,-23.3983 -36.8971,-23.9561 -37.628,-24.5139 -38.4005,-25.0148 -39.2079,-25.4545 -40.0152,-25.8943 -40.8551,-26.2715 -41.7201,-26.5829 -42.5851,-26.8944 -43.4727,-27.1391 -44.3751,-27.3149 -45.2775,-27.4907 -46.1921,-27.5971 -47.1107,-27.6332 -48.0294,-27.6693 -48.9495,-27.635 -49.8629,-27.5305 -50.7763,-27.426 -51.6803,-27.2517 -52.5671,-27.0091 -53.4539,-26.7665 -54.3208,-26.4564 -55.1602,-26.0813 -55.9996,-25.7063 -56.809,-25.2675 -57.5814,-24.7688 -58.3537,-24.2701 -59.0867,-23.7129 -59.774,-23.1022 -60.4612,-22.4916 -61.1006,-21.8291 -61.6867,-21.1207 -62.2727,-20.4123 -62.8036,-19.6601 -63.2747,-18.8706 -63.7458,-18.0811 -64.1557,-17.2567 -64.5008,-16.4046 -64.846,-15.5525 -65.1253,-14.6751 -65.3364,-13.7803 -65.5475,-12.8855 -65.6898,-11.9759 -65.7619,-11.0594 -65.8341,-10.1428 -65.8359,-9.22212 -65.7673,-8.30531 -65.6988,-7.3885 -65.5601,-6.47829 -65.3525,-5.58267 -65.1449,-4.68705 -64.869,-3.80865 -64.5272,-2.95518 -64.1854,-2.10172 -63.7788,-1.27569 -63.3108,-0.484351 -62.8428,0.306985 -62.3148,1.0613 -61.7316,1.77198 -61.1484,2.48266 -60.5115,3.14761 -59.8267,3.761 -59.1419,4.37438 -58.4111,4.9344 -57.6407,5.43613 -56.8703,5.93786 -56.0626,6.37983 -55.2247,6.75816 -54.3868,7.1365 -53.5211,7.45008 -52.6353,7.69615 -51.7495,7.94223 -50.8461,8.12008 -49.9331,8.22814 -49.0201,8.3362 -48.1002,8.37415 -47.1814,8.34166 -46.2626,8.30918 -45.3476,8.20635 -44.4446,8.03408 -44.4446,8.03408 -47.8174,-9.64709 -47.8174,-9.64709"/>
<path fill="#98f5ff" stroke="black" stroke-width="0.5" d="M-47.8174,-9.64709C-47.8174,-9.64709 -44.4446,8.03408 -44.4446,8.03408 -43.4256,7.83969 -42.4253,7.55758 -41.4549,7.1909 -40.4845,6.82422 -39.5476,6.37433 -38.6547,5.84626 -37.7618,5.3182 -36.9162,4.71393 -36.1273,4.04021 -35.3385,3.3665 -34.6094,2.62585 -33.9482,1.82654 -33.2869,1.02723 -32.696,0.172255 -32.182,-0.728837 -31.6681,-1.62993 -31.233,-2.57377 -30.8816,-3.54981 -30.5302,-4.52585 -30.2638,-5.53045 -30.0854,-6.55237 -29.9071,-7.57429 -29.8174,-8.60972 -29.8174,-9.64709 -29.8174,-9.64709 -47.8174,-9.64709 -47.8174,-9.64709"/>
<ellipse fill="none" stroke="black" cx="-47.8174" cy="-9.64709" rx="18" ry="18"/>
</g>
<!-- 22 -->
<g id="node23" class="node"><title>22</title>
<ellipse fill="deepskyblue" stroke="black" cx="-137.002" cy="-12.2645" rx="2.5" ry="2.5"/>
</g>
<!-- 0&#45;&gt;22 -->
<g id="edge2" class="edge"><title>0&#45;&gt;22</title>
<path fill="none" stroke="black" d="M-65.8653,-10.1768C-88.0572,-10.8281 -124.039,-11.8841 -134.232,-12.1832"/>
</g>
<!-- 24 -->
<g id="node25" class="node"><title>24</title>
<ellipse fill="deepskyblue" stroke="black" cx="-107.303" cy="52.3874" rx="2.5" ry="2.5"/>
</g>
<!-- 0&#45;&gt;24 -->
<g id="edge3" class="edge"><title>0&#45;&gt;24</title>
<path fill="none" stroke="black" d="M-60.4327,3.50882C-73.2091,16.8326 -92.3816,36.8267 -101.75,46.5968"/>
<polygon fill="black" stroke="black" points="-100.583,47.9079 -105.307,50.3056 -103.109,45.4855 -100.583,47.9079"/>
<text text-anchor="middle" x="-96.5915" y="21.6528" font-family="monospace" font-size="12.00">P55L</text>
</g>
<!-- 58 -->
<g id="node59" class="node"><title>58</title>
<ellipse fill="black" stroke="black" cx="-127.722" cy="21.4665" rx="2.5" ry="2.5"/>
</g>
<!-- 0&#45;&gt;58 -->
<g id="edge4" class="edge"><title>0&#45;&gt;58</title>
<path fill="none" stroke="black" d="M-64.7631,-3.0487C-84.5534,4.65736 -115.769,16.8122 -125.04,20.4224"/>
</g>
<!-- 1 -->
<g id="node2" class="node"><title>1</title>
<ellipse fill="deepskyblue" stroke="black" cx="10.4132" cy="-226.669" rx="2.5" ry="2.5"/>
</g>
<!-- 3 -->
<g id="node4" class="node"><title>3</title>
<path fill="deepskyblue" stroke="black" stroke-width="0.5" d="M9.18658,-152.072C9.18658,-152.072 33.1866,-152.072 33.1866,-152.072 33.1866,-153.049 33.1268,-154.026 33.0077,-154.996 32.8885,-155.967 32.7102,-156.929 32.4737,-157.878 32.2372,-158.826 31.9429,-159.76 31.5925,-160.672 31.2421,-161.585 30.8363,-162.476 30.3773,-163.339 29.9183,-164.202 29.407,-165.037 28.8462,-165.837 28.2855,-166.638 27.6763,-167.404 27.0221,-168.131 26.3679,-168.857 25.6699,-169.543 24.932,-170.185 24.1941,-170.826 23.4178,-171.422 22.6072,-171.969 21.7967,-172.515 20.9535,-173.012 20.0824,-173.456 19.2112,-173.9 18.3138,-174.29 17.3951,-174.624 16.4763,-174.959 15.538,-175.237 14.5854,-175.456 13.6328,-175.676 12.6676,-175.838 11.6953,-175.94 10.7229,-176.042 9.74526,-176.085 8.76773,-176.068 7.79019,-176.051 6.8146,-175.974 5.84643,-175.838 4.87826,-175.702 3.9193,-175.507 2.97493,-175.254 2.03055,-175.001 1.10252,-174.69 0.196025,-174.324 0.196025,-174.324 9.18658,-152.072 9.18658,-152.072"/>
<path fill="#ff3030" stroke="black" stroke-width="0.5" d="M9.18658,-152.072C9.18658,-152.072 0.196025,-174.324 0.196025,-174.324 -0.807667,-173.918 -1.78277,-173.446 -2.72261,-172.908 -3.66245,-172.371 -4.56487,-171.771 -5.42369,-171.112 -6.28251,-170.453 -7.09576,-169.737 -7.85787,-168.968 -8.61997,-168.199 -9.32919,-167.38 -9.98067,-166.515 -10.6321,-165.651 -11.2244,-164.743 -11.7533,-163.799 -12.2823,-162.854 -12.7467,-161.875 -13.1434,-160.868 -13.5402,-159.86 -13.8683,-158.828 -14.1256,-157.776 -14.3829,-156.725 -14.5688,-155.657 -14.6819,-154.58 -14.7951,-153.504 -14.8353,-152.421 -14.8022,-151.339 -14.7692,-150.257 -14.6629,-149.178 -14.4843,-148.11 -14.3056,-147.043 -14.0549,-145.988 -13.7339,-144.955 -13.4129,-143.921 -13.0223,-142.91 -12.5648,-141.929 -12.1073,-140.948 -11.584,-139.999 -10.9984,-139.088 -10.4127,-138.178 -9.76619,-137.308 -9.06316,-136.485 -8.36012,-135.662 -7.60219,-134.887 -6.79457,-134.166 -5.98695,-133.445 -5.13149,-132.78 -4.23404,-132.175 -4.23404,-132.175 9.18658,-152.072 9.18658,-152.072"/>
<path fill="#98f5ff" stroke="black" stroke-width="0.5" d="M9.18658,-152.072C9.18658,-152.072 -4.23404,-132.175 -4.23404,-132.175 -3.65517,-131.784 -3.05954,-131.419 -2.44884,-131.081 -1.83815,-130.742 -1.21297,-130.431 -0.575092,-130.147 0.0627843,-129.863 0.712751,-129.606 1.37295,-129.379 2.03315,-129.152 2.70296,-128.953 3.38046,-128.785 3.38046,-128.785 9.18658,-152.072 9.18658,-152.072"/>
<path fill="#1874cd" stroke="black" stroke-width="0.5" d="M9.18658,-152.072C9.18658,-152.072 3.38046,-128.785 3.38046,-128.785 4.26131,-128.565 5.15391,-128.395 6.05396,-128.277 6.95401,-128.158 7.86005,-128.091 8.76773,-128.075 9.67541,-128.059 10.5833,-128.095 11.4869,-128.182 12.3905,-128.269 13.2885,-128.407 14.1765,-128.596 15.0644,-128.785 15.941,-129.024 16.8019,-129.312 17.6628,-129.6 18.5067,-129.937 19.3294,-130.32 20.1522,-130.704 20.9525,-131.134 21.7266,-131.608 22.5006,-132.083 23.2471,-132.6 23.9625,-133.159 24.6778,-133.718 25.3609,-134.317 26.0084,-134.954 26.6559,-135.59 27.2668,-136.262 27.8381,-136.968 28.4094,-137.673 28.9402,-138.411 29.428,-139.176 29.9157,-139.942 30.3597,-140.735 30.7576,-141.551 31.1556,-142.367 31.5069,-143.204 31.81,-144.06 32.113,-144.916 32.3673,-145.788 32.5715,-146.673 32.7757,-147.557 32.9295,-148.453 33.0323,-149.355 33.1351,-150.257 33.1866,-151.164 33.1866,-152.072 33.1866,-152.072 9.18658,-152.072 9.18658,-152.072"/>
<ellipse fill="none" stroke="black" cx="9.18658" cy="-152.072" rx="24" ry="24"/>
</g>
<!-- 1&#45;&gt;3 -->
<g id="edge5" class="edge"><title>1&#45;&gt;3</title>
<path fill="none" stroke="black" d="M10.3666,-223.836C10.2389,-216.065 9.873,-193.816 9.58219,-176.13"/>
</g>
<!-- 2 -->
<g id="node3" class="node"><title>2</title>
<ellipse fill="#ff3030" stroke="black" cx="92.4528" cy="11.7709" rx="10" ry="10"/>
</g>
<!-- 60 -->
<g id="node61" class="node"><title>60</title>
<ellipse fill="white" stroke="black" cx="151.338" cy="52.8775" rx="1" ry="1"/>
</g>
<!-- 2&#45;&gt;60 -->
<g id="edge7" class="edge"><title>2&#45;&gt;60</title>
<path fill="none" stroke="black" d="M100.89,17.6605C113.34,26.3518 136.246,42.3425 146.339,49.3879"/>
<polygon fill="black" stroke="black" points="147.382,47.9816 150.48,52.2786 145.378,50.8515 147.382,47.9816"/>
<text text-anchor="middle" x="146.614" y="43.1242" font-family="monospace" font-size="12.00">P1874S</text>
</g>
<!-- 10 -->
<g id="node11" class="node"><title>10</title>
<ellipse fill="#ff3030" stroke="black" cx="-57.6799" cy="-198.68" rx="2.5" ry="2.5"/>
</g>
<!-- 3&#45;&gt;10 -->
<g id="edge9" class="edge"><title>3&#45;&gt;10</title>
<path fill="none" stroke="black" d="M-10.5139,-165.803C-26.8478,-177.189 -48.4747,-192.263 -55.4264,-197.109"/>
</g>
<!-- 16 -->
<g id="node17" class="node"><title>16</title>
<ellipse fill="#ff3030" stroke="black" cx="-26.6416" cy="-179.535" rx="2.5" ry="2.5"/>
</g>
<!-- 3&#45;&gt;16 -->
<g id="edge10" class="edge"><title>3&#45;&gt;16</title>
<path fill="none" stroke="black" d="M-9.98615,-166.768C-13.6464,-169.574 -17.2362,-172.326 -20.1404,-174.552"/>
<polygon fill="black" stroke="black" points="-21.5907,-173.459 -24.4944,-177.889 -19.4614,-176.236 -21.5907,-173.459"/>
<text text-anchor="middle" x="-34.0633" y="-161.06" font-family="monospace" font-size="12.00">M704V</text>
</g>
<!-- 18 -->
<g id="node19" class="node"><title>18</title>
<ellipse fill="deepskyblue" stroke="black" cx="44.855" cy="-223.212" rx="2.5" ry="2.5"/>
</g>
<!-- 3&#45;&gt;18 -->
<g id="edge11" class="edge"><title>3&#45;&gt;18</title>
<path fill="none" stroke="black" d="M20.0821,-173.803C28.7686,-191.128 40.0571,-213.643 43.6809,-220.871"/>
</g>
<!-- 21 -->
<g id="node22" class="node"><title>21</title>
<ellipse fill="deepskyblue" stroke="black" cx="-14.3522" cy="-237.481" rx="2.5" ry="2.5"/>
</g>
<!-- 3&#45;&gt;21 -->
<g id="edge12" class="edge"><title>3&#45;&gt;21</title>
<path fill="none" stroke="black" d="M2.75452,-175.41C-3.1259,-196.747 -11.2616,-226.267 -13.6604,-234.971"/>
</g>
<!-- 25 -->
<g id="node26" class="node"><title>25</title>
<ellipse fill="deepskyblue" stroke="black" cx="-25.8591" cy="-212.091" rx="2.5" ry="2.5"/>
</g>
<!-- 3&#45;&gt;25 -->
<g id="edge13" class="edge"><title>3&#45;&gt;25</title>
<path fill="none" stroke="black" d="M-3.07069,-173.064C-11.124,-186.856 -20.8132,-203.45 -24.4172,-209.622"/>
</g>
<!-- 29 -->
<g id="node30" class="node"><title>29</title>
<ellipse fill="deepskyblue" stroke="black" cx="-79.7943" cy="-149.481" rx="2.5" ry="2.5"/>
</g>
<!-- 3&#45;&gt;29 -->
<g id="edge14" class="edge"><title>3&#45;&gt;29</title>
<path fill="none" stroke="black" d="M-15.1278,-151.364C-34.231,-150.808 -59.6303,-150.068 -72.1513,-149.704"/>
<polygon fill="black" stroke="black" points="-72.1306,-147.954 -77.1795,-149.557 -72.2325,-151.452 -72.1306,-147.954"/>
<text text-anchor="middle" x="-66.6396" y="-140.934" font-family="monospace" font-size="12.00">V1303A</text>
</g>
<!-- 30 -->
<g id="node31" class="node"><title>30</title>
<ellipse fill="deepskyblue" stroke="black" cx="84.8287" cy="-189.347" rx="2.5" ry="2.5"/>
</g>
<!-- 3&#45;&gt;30 -->
<g id="edge15" class="edge"><title>3&#45;&gt;30</title>
<path fill="none" stroke="black" d="M31.0654,-162.853C49.5657,-171.97 74.2953,-184.157 82.2495,-188.077"/>
</g>
<!-- 34 -->
<g id="node35" class="node"><title>34</title>
<ellipse fill="#ff3030" stroke="black" cx="-62.3727" cy="-134.841" rx="2.5" ry="2.5"/>
</g>
<!-- 3&#45;&gt;34 -->
<g id="edge16" class="edge"><title>3&#45;&gt;34</title>
<path fill="none" stroke="black" d="M-14.2446,-146.43C-31.2012,-142.346 -52.3754,-137.248 -59.7195,-135.479"/>
</g>
<!-- 36 -->
<g id="node37" class="node"><title>36</title>
<ellipse fill="#ff3030" stroke="black" cx="-59.4665" cy="-167.91" rx="2.5" ry="2.5"/>
</g>
<!-- 3&#45;&gt;36 -->
<g id="edge19" class="edge"><title>3&#45;&gt;36</title>
<path fill="none" stroke="black" d="M-14.4399,-157.522C-30.5752,-161.245 -50.2152,-165.776 -57.013,-167.344"/>
</g>
<!-- 41 -->
<g id="node42" class="node"><title>41</title>
<ellipse fill="#1874cd" stroke="black" cx="52.543" cy="-138.74" rx="2.5" ry="2.5"/>
</g>
<!-- 3&#45;&gt;41 -->
<g id="edge22" class="edge"><title>3&#45;&gt;41</title>
<path fill="none" stroke="black" d="M32.1344,-145.015C39.2842,-142.817 46.2493,-140.675 49.9043,-139.551"/>
</g>
<!-- 43 -->
<g id="node44" class="node"><title>43</title>
<ellipse fill="#1874cd" stroke="black" cx="50.5117" cy="-183.507" rx="2.5" ry="2.5"/>
</g>
<!-- 3&#45;&gt;43 -->
<g id="edge23" class="edge"><title>3&#45;&gt;43</title>
<path fill="none" stroke="black" d="M28.3974,-166.685C36.3226,-172.713 44.5341,-178.96 48.3372,-181.853"/>
</g>
<!-- 44 -->
<g id="node45" class="node"><title>44</title>
<ellipse fill="#1874cd" stroke="black" cx="15.5758" cy="-197.028" rx="2.5" ry="2.5"/>
</g>
<!-- 3&#45;&gt;44 -->
<g id="edge24" class="edge"><title>3&#45;&gt;44</title>
<path fill="none" stroke="black" d="M12.5683,-175.866C13.6219,-183.28 14.6483,-190.502 15.1869,-194.292"/>
</g>
<!-- 46 -->
<g id="node47" class="node"><title>46</title>
<ellipse fill="#1874cd" stroke="black" cx="-51.4918" cy="-230.654" rx="2.5" ry="2.5"/>
</g>
<!-- 3&#45;&gt;46 -->
<g id="edge27" class="edge"><title>3&#45;&gt;46</title>
<path fill="none" stroke="black" d="M-5.50195,-171.094C-20.9345,-191.08 -43.807,-220.701 -49.9347,-228.637"/>
</g>
<!-- 56 -->
<g id="node57" class="node"><title>56</title>
<ellipse fill="#98f5ff" stroke="black" cx="68.1069" cy="-203.81" rx="2.5" ry="2.5"/>
</g>
<!-- 3&#45;&gt;56 -->
<g id="edge28" class="edge"><title>3&#45;&gt;56</title>
<path fill="none" stroke="black" d="M27.5064,-168.158C41.8298,-180.736 60.2736,-196.932 66.1905,-202.127"/>
</g>
<!-- 59 -->
<g id="node60" class="node"><title>59</title>
<ellipse fill="black" stroke="black" cx="-36.377" cy="-142.129" rx="2.5" ry="2.5"/>
</g>
<!-- 3&#45;&gt;59 -->
<g id="edge29" class="edge"><title>3&#45;&gt;59</title>
<path fill="none" stroke="black" d="M-14.396,-146.926C-22.2132,-145.22 -29.9045,-143.542 -33.7823,-142.695"/>
</g>
<!-- anon_3_35_0 -->
<g id="node63" class="node"><title>anon_3_35_0</title>
<ellipse fill="white" stroke="black" cx="26.9117" cy="-250.878" rx="1" ry="1"/>
</g>
<!-- 3&#45;&gt;anon_3_35_0 -->
<g id="edge17" class="edge"><title>3&#45;&gt;anon_3_35_0</title>
<path fill="none" stroke="black" d="M13.4322,-175.738C18.1844,-202.229 25.3938,-242.416 26.7038,-249.719"/>
</g>
<!-- anon_3_40_0 -->
<g id="node64" class="node"><title>anon_3_40_0</title>
<ellipse fill="white" stroke="black" cx="-87.6452" cy="-183.618" rx="1" ry="1"/>
</g>
<!-- 3&#45;&gt;anon_3_40_0 -->
<g id="edge20" class="edge"><title>3&#45;&gt;anon_3_40_0</title>
<path fill="none" stroke="black" d="M-13.7612,-159.548C-39.7112,-168.002 -79.3069,-180.901 -86.5031,-183.246"/>
</g>
<!-- anon_3_45_0 -->
<g id="node65" class="node"><title>anon_3_45_0</title>
<ellipse fill="white" stroke="black" cx="79.7741" cy="-228.295" rx="1" ry="1"/>
</g>
<!-- 3&#45;&gt;anon_3_45_0 -->
<g id="edge25" class="edge"><title>3&#45;&gt;anon_3_45_0</title>
<path fill="none" stroke="black" d="M25.5582,-169.75C44.4556,-190.157 73.6284,-221.659 78.9322,-227.386"/>
</g>
<!-- 4 -->
<g id="node5" class="node"><title>4</title>
<path fill="deepskyblue" stroke="black" stroke-width="0.5" d="M131.616,-18.342C131.616,-18.342 154.116,-18.342 154.116,-18.342 154.116,-19.1163 154.076,-19.89 153.996,-20.6601 153.916,-21.4302 153.797,-22.1957 153.638,-22.9535 153.48,-23.7113 153.282,-24.4604 153.046,-25.1979 152.81,-25.9353 152.536,-26.66 152.226,-27.3692 151.915,-28.0784 151.568,-28.7711 151.186,-29.4445 150.804,-30.118 150.387,-30.7712 149.938,-31.4017 149.488,-32.0322 149.007,-32.639 148.495,-33.2198 147.983,-33.8006 147.441,-34.3547 146.872,-34.8796 146.303,-35.4046 145.707,-35.8999 145.087,-36.3634 144.467,-36.827 143.823,-37.2582 143.159,-37.6554 142.494,-38.0527 141.81,-38.4153 141.108,-38.7419 140.406,-39.0685 139.687,-39.3587 138.955,-39.6113 138.224,-39.8638 137.479,-40.0784 136.725,-40.2542 135.971,-40.4301 135.208,-40.5668 134.44,-40.664 133.672,-40.7612 132.9,-40.8187 132.126,-40.8362 131.352,-40.8538 130.577,-40.8314 129.805,-40.769 129.034,-40.7067 128.266,-40.6047 127.504,-40.4632 126.743,-40.3217 125.99,-40.141 125.247,-39.9219 124.505,-39.7027 123.774,-39.4454 123.058,-39.1509 122.342,-38.8564 121.641,-38.5252 120.959,-38.1585 120.278,-37.7918 119.615,-37.3901 118.975,-36.9551 118.334,-36.5201 117.716,-36.0524 117.124,-35.5537 116.532,-35.055 115.966,-34.5261 115.428,-33.9691 114.89,-33.4121 114.382,-32.8277 113.904,-32.2182 113.427,-31.6087 112.981,-30.975 112.569,-30.3196 112.157,-29.6642 111.779,-28.9879 111.436,-28.2935 111.094,-27.5991 110.787,-26.8875 110.518,-26.1615 110.249,-25.4355 110.018,-24.6962 109.825,-23.9463 109.632,-23.1965 109.478,-22.4372 109.364,-21.6715 109.249,-20.9057 109.174,-20.1346 109.139,-19.3612 109.104,-18.5877 109.109,-17.813 109.154,-17.04 109.198,-16.2671 109.283,-15.497 109.407,-14.7328 109.407,-14.7328 131.616,-18.342 131.616,-18.342"/>
<path fill="#ff3030" stroke="black" stroke-width="0.5" d="M131.616,-18.342C131.616,-18.342 109.407,-14.7328 109.407,-14.7328 109.528,-13.9872 109.687,-13.2482 109.883,-12.5186 110.078,-11.789 110.31,-11.0697 110.578,-10.3634 110.846,-9.65714 111.149,-8.96481 111.487,-8.28904 111.824,-7.61328 112.195,-6.95494 112.599,-6.31653 113.003,-5.67811 113.438,-5.06043 113.904,-4.46584 114.37,-3.87124 114.866,-3.30047 115.389,-2.75571 115.912,-2.21095 116.462,-1.69289 117.038,-1.20348 117.613,-0.71408 118.213,-0.253961 118.834,0.175127 118.834,0.175127 131.616,-18.342 131.616,-18.342"/>
<path fill="#98f5ff" stroke="black" stroke-width="0.5" d="M131.616,-18.342C131.616,-18.342 118.834,0.175127 118.834,0.175127 119.674,0.754496 120.552,1.27612 121.462,1.7364 122.372,2.19668 123.312,2.59454 124.276,2.92724 125.24,3.25993 126.226,3.52669 127.226,3.72566 128.227,3.92463 129.239,4.05536 130.257,4.11694 131.275,4.17852 132.296,4.17081 133.313,4.09386 134.33,4.01691 135.341,3.8709 136.338,3.65685 137.335,3.44279 138.317,3.16118 139.276,2.81396 140.235,2.46674 141.169,2.05472 142.072,1.58075 142.975,1.10678 143.845,0.571953 144.676,-0.0200271 145.506,-0.612007 146.295,-1.25977 147.038,-1.95884 147.781,-2.65791 148.475,-3.40666 149.116,-4.19992 149.757,-4.99317 150.343,-5.8291 150.871,-6.70191 151.399,-7.57472 151.866,-8.4824 152.271,-9.41866 152.675,-10.3549 153.016,-11.3176 153.289,-12.3 153.563,-13.2825 153.77,-14.2824 153.908,-15.2929 154.046,-16.3034 154.116,-17.3221 154.116,-18.342 154.116,-18.342 131.616,-18.342 131.616,-18.342"/>
<ellipse fill="none" stroke="black" cx="131.616" cy="-18.342" rx="22.5" ry="22.5"/>
</g>
<!-- 11 -->
<g id="node12" class="node"><title>11</title>
<ellipse fill="deepskyblue" stroke="black" cx="121.393" cy="44.2583" rx="2.5" ry="2.5"/>
</g>
<!-- 4&#45;&gt;11 -->
<g id="edge31" class="edge"><title>4&#45;&gt;11</title>
<path fill="none" stroke="black" d="M127.983,3.90478C125.642,18.2431 122.847,35.3546 121.809,41.7146"/>
</g>
<!-- 55 -->
<g id="node56" class="node"><title>55</title>
<ellipse fill="#98f5ff" stroke="black" cx="231.113" cy="-20.319" rx="2.5" ry="2.5"/>
</g>
<!-- 4&#45;&gt;55 -->
<g id="edge32" class="edge"><title>4&#45;&gt;55</title>
<path fill="none" stroke="black" d="M154.193,-18.7906C179.421,-19.2919 218.096,-20.0604 228.474,-20.2666"/>
</g>
<!-- 5 -->
<g id="node6" class="node"><title>5</title>
<ellipse fill="#ff3030" stroke="black" cx="116.514" cy="2.64554" rx="12.5" ry="12.5"/>
</g>
<!-- 32 -->
<g id="node33" class="node"><title>32</title>
<ellipse fill="#ff3030" stroke="black" cx="102.256" cy="65.1842" rx="2.5" ry="2.5"/>
</g>
<!-- 5&#45;&gt;32 -->
<g id="edge34" class="edge"><title>5&#45;&gt;32</title>
<path fill="none" stroke="black" d="M113.697,15.0012C110.256,30.0943 104.668,54.6045 102.849,62.584"/>
</g>
<!-- 38 -->
<g id="node39" class="node"><title>38</title>
<ellipse fill="#ff3030" stroke="black" cx="193.793" cy="-3.92554" rx="2.5" ry="2.5"/>
</g>
<!-- 5&#45;&gt;38 -->
<g id="edge35" class="edge"><title>5&#45;&gt;38</title>
<path fill="none" stroke="black" d="M129.275,1.56046C147.966,-0.0288711 181.61,-2.88959 191.186,-3.70385"/>
</g>
<!-- 39 -->
<g id="node40" class="node"><title>39</title>
<ellipse fill="#ff3030" stroke="black" cx="186.549" cy="28.5994" rx="2.5" ry="2.5"/>
</g>
<!-- 5&#45;&gt;39 -->
<g id="edge36" class="edge"><title>5&#45;&gt;39</title>
<path fill="none" stroke="black" d="M128.395,7.04825C145.254,13.296 175.064,24.3432 183.968,27.6429"/>
</g>
<!-- 5&#45;&gt;60 -->
<g id="edge71" class="edge"><title>5&#45;&gt;60</title>
<path fill="none" stroke="black" stroke-dasharray="5,2" d="M123.899,13.2985C131.167,23.7813 141.969,39.3634 147.607,47.4959"/>
<polygon fill="black" stroke="black" points="149.168,46.6755 150.578,51.7817 146.291,48.6696 149.168,46.6755"/>
<text text-anchor="middle" x="158.753" y="26.9972" font-family="monospace" font-size="12.00">A1934V</text>
</g>
<!-- 6 -->
<g id="node7" class="node"><title>6</title>
<path fill="deepskyblue" stroke="black" stroke-width="0.5" d="M42.7474,-42.8228C42.7474,-42.8228 67.2474,-42.8228 67.2474,-42.8228 67.2474,-43.6506 67.2054,-44.4779 67.1217,-45.3014 67.0379,-46.125 66.9125,-46.9437 66.7459,-47.7546 66.5792,-48.5655 66.3716,-49.3673 66.1238,-50.1572 65.876,-50.947 65.5883,-51.7238 65.2619,-52.4845 65.2619,-52.4845 42.7474,-42.8228 42.7474,-42.8228"/>
<path fill="#ff3030" stroke="black" stroke-width="0.5" d="M42.7474,-42.8228C42.7474,-42.8228 65.2619,-52.4845 65.2619,-52.4845 64.8265,-53.499 64.3231,-54.4828 63.7551,-55.4294 63.1871,-56.376 62.5557,-57.283 61.8653,-58.1445 61.8653,-58.1445 42.7474,-42.8228 42.7474,-42.8228"/>
<path fill="brown" stroke="black" stroke-width="0.5" d="M42.7474,-42.8228C42.7474,-42.8228 61.8653,-58.1445 61.8653,-58.1445 61.4178,-58.7029 60.946,-59.2415 60.4513,-59.7586 59.9566,-60.2758 59.4394,-60.771 58.9014,-61.2429 58.3633,-61.7147 57.8048,-62.1628 57.2275,-62.5858 56.6502,-63.0087 56.0547,-63.4062 55.4426,-63.7771 54.8305,-64.1479 54.2025,-64.4917 53.5603,-64.8076 52.9181,-65.1234 52.2623,-65.411 51.595,-65.6695 50.9276,-65.9279 50.2492,-66.157 49.5618,-66.356 48.8744,-66.5551 48.1786,-66.7239 47.4764,-66.8621 46.7742,-67.0002 46.0662,-67.1075 45.3546,-67.1837 44.643,-67.2598 43.9284,-67.3048 43.2129,-67.3184 42.4974,-67.332 41.7816,-67.3142 41.0676,-67.2651 40.3536,-67.2161 39.6421,-67.1357 38.9352,-67.0244 38.2282,-66.913 37.5265,-66.7707 36.832,-66.5979 36.1375,-66.4252 35.4509,-66.222 34.7742,-65.9891 34.0975,-65.7562 33.4313,-65.4938 32.7776,-65.2025 32.1239,-64.9113 31.4832,-64.5916 30.8575,-64.2443 30.2318,-63.897 29.6215,-63.5224 29.0286,-63.1217 28.4356,-62.7209 27.8605,-62.2944 27.3049,-61.8433 26.7493,-61.3922 26.2138,-60.917 25.6998,-60.419 25.1858,-59.9211 24.6938,-59.4008 24.2254,-58.8598 23.7569,-58.3187 23.3124,-57.7574 22.8931,-57.1775 22.4738,-56.5975 22.0801,-55.9994 21.7131,-55.385 21.3462,-54.7706 21.0063,-54.1404 20.6945,-53.4962 20.3828,-52.852 20.0994,-52.1945 19.8451,-51.5255 19.5909,-50.8565 19.3662,-50.1767 19.1715,-49.488 18.9768,-48.7993 18.8123,-48.1025 18.6786,-47.3994 18.545,-46.6963 18.4421,-45.9877 18.3705,-45.2757 18.2988,-44.5636 18.2584,-43.8487 18.2494,-43.1331 18.2403,-42.4175 18.2626,-41.7019 18.3162,-40.9882 18.3698,-40.2746 18.4546,-39.5636 18.5704,-38.8574 18.6863,-38.1511 18.833,-37.4503 19.0102,-36.7569 19.1874,-36.0636 19.3948,-35.3783 19.632,-34.7031 19.8692,-34.0278 20.1359,-33.3633 20.4312,-32.7115 20.7266,-32.0596 21.0504,-31.421 21.4016,-30.7974 21.7529,-30.1739 22.1313,-29.5661 22.5358,-28.9757 22.9403,-28.3853 23.3705,-27.8129 23.8251,-27.2602 24.2797,-26.7074 24.7582,-26.1749 25.2595,-25.664 25.7607,-25.1532 26.2841,-24.6646 26.828,-24.1996 27.372,-23.7345 27.9362,-23.2936 28.5188,-22.878 29.1014,-22.4623 29.7019,-22.0724 30.3186,-21.7094 30.9354,-21.3463 31.5677,-21.0105 32.2139,-20.7028 32.86,-20.3951 33.5193,-20.1158 34.1899,-19.8659 34.8605,-19.6159 35.5417,-19.3954 36.2316,-19.2051 36.9215,-19.0148 37.6194,-18.8548 38.3233,-18.7255 39.0272,-18.5963 39.7364,-18.498 40.4489,-18.4308 41.1615,-18.3637 41.8766,-18.3278 42.5922,-18.3233 43.3079,-18.3187 44.0234,-18.3456 44.7367,-18.4037 45.45,-18.4618 46.1604,-18.5511 46.8659,-18.6714 47.5713,-18.7917 48.2712,-18.9429 48.9635,-19.1245 49.6557,-19.306 50.3397,-19.5179 51.0134,-19.7593 51.6871,-20.0008 52.3499,-20.2716 52.9999,-20.5711 53.6498,-20.8706 54.2864,-21.1984 54.9077,-21.5536 55.529,-21.9088 56.1344,-22.2911 56.7222,-22.6993 57.3101,-23.1075 57.8797,-23.5413 58.4295,-23.9994 58.9794,-24.4575 59.5089,-24.9394 60.0166,-25.4439 60.5242,-25.9483 61.0095,-26.4748 61.4711,-27.0217 61.9326,-27.5687 62.37,-28.1355 62.7819,-28.7208 63.1939,-29.306 63.58,-29.909 63.9391,-30.528 64.2982,-31.147 64.6301,-31.7815 64.9337,-32.4296 65.2373,-33.0777 65.5123,-33.7387 65.758,-34.4109 66.0038,-35.0831 66.2199,-35.7657 66.4059,-36.4567 66.5918,-37.1478 66.7474,-37.8467 66.8722,-38.5514 66.997,-39.2561 67.0908,-39.966 67.1534,-40.6789 67.216,-41.3918 67.2474,-42.1071 67.2474,-42.8228 67.2474,-42.8228 42.7474,-42.8228 42.7474,-42.8228"/>
<ellipse fill="none" stroke="black" cx="42.7474" cy="-42.8228" rx="24.5" ry="24.5"/>
</g>
<!-- 6&#45;&gt;0 -->
<g id="edge1" class="edge"><title>6&#45;&gt;0</title>
<path fill="none" stroke="black" d="M19.4247,-34.2792C5.42152,-29.1496 -12.2784,-22.6657 -26.0034,-17.638"/>
<polygon fill="black" stroke="black" points="-25.569,-15.9335 -30.8659,-15.8568 -26.7729,-19.2199 -25.569,-15.9335"/>
<text text-anchor="middle" x="-3.28934" y="-16.3586" font-family="monospace" font-size="12.00">I1868T</text>
</g>
<!-- 6&#45;&gt;2 -->
<g id="edge6" class="edge"><title>6&#45;&gt;2</title>
<path fill="none" stroke="black" d="M59.2986,-24.6439C66.8283,-16.3736 75.5066,-6.84182 82.0953,0.394883"/>
<polygon fill="black" stroke="black" points="83.448,-0.718798 85.5202,4.15657 80.86,1.63752 83.448,-0.718798"/>
<text text-anchor="middle" x="82.1969" y="-2.52449" font-family="monospace" font-size="12.00">A1934V</text>
</g>
<!-- 6&#45;&gt;3 -->
<g id="edge8" class="edge"><title>6&#45;&gt;3</title>
<path fill="none" stroke="black" d="M35.5478,-66.2594C30.3366,-83.2229 23.2717,-106.221 17.7674,-124.139"/>
<polygon fill="black" stroke="black" points="16.0546,-123.755 16.2591,-129.049 19.4003,-124.783 16.0546,-123.755"/>
<text text-anchor="middle" x="3.65757" y="-98.5992" font-family="monospace" font-size="12.00">N1570Y</text>
</g>
<!-- 6&#45;&gt;4 -->
<g id="edge30" class="edge"><title>6&#45;&gt;4</title>
<path fill="none" stroke="black" d="M66.5625,-36.2624C78.3491,-33.0155 92.6229,-29.0835 104.793,-25.7308"/>
<polygon fill="black" stroke="black" points="105.512,-27.3483 109.867,-24.3331 104.582,-23.9739 105.512,-27.3483"/>
<text text-anchor="middle" x="85.678" y="-21.3966" font-family="monospace" font-size="12.00">P1874L</text>
</g>
<!-- 6&#45;&gt;5 -->
<g id="edge33" class="edge"><title>6&#45;&gt;5</title>
<path fill="none" stroke="black" d="M63.6886,-29.915C75.6153,-22.5637 90.2958,-13.5149 101.151,-6.82385"/>
<polygon fill="black" stroke="black" points="102.212,-8.22578 105.55,-4.11243 100.375,-5.24629 102.212,-8.22578"/>
<text text-anchor="middle" x="59.4199" y="-8.76943" font-family="monospace" font-size="12.00">P1874S</text>
</g>
<!-- 7 -->
<g id="node8" class="node"><title>7</title>
<ellipse fill="#ff3030" stroke="black" cx="-11.8319" cy="-53.8205" rx="6.5" ry="6.5"/>
</g>
<!-- 6&#45;&gt;7 -->
<g id="edge37" class="edge"><title>6&#45;&gt;7</title>
<path fill="none" stroke="black" d="M18.6492,-47.6786C12.1383,-48.9905 5.38167,-50.352 -0.110714,-51.4587"/>
<polygon fill="black" stroke="black" points="-0.569966,-49.766 -5.12575,-52.4692 0.121443,-53.197 -0.569966,-49.766"/>
<text text-anchor="middle" x="-13.7307" y="-39.9686" font-family="monospace" font-size="12.00">K1603T</text>
</g>
<!-- 8 -->
<g id="node9" class="node"><title>8</title>
<ellipse fill="#ff3030" stroke="black" cx="-17.6413" cy="-1.60547" rx="4.5" ry="4.5"/>
</g>
<!-- 6&#45;&gt;8 -->
<g id="edge38" class="edge"><title>6&#45;&gt;8</title>
<path fill="none" stroke="black" d="M22.3025,-28.8685C11.4214,-21.4418 -1.35194,-12.7235 -9.46957,-7.18297"/>
<polygon fill="black" stroke="black" points="-8.74741,-5.55711 -13.8637,-4.18379 -10.7205,-8.44796 -8.74741,-5.55711"/>
<text text-anchor="middle" x="17.9165" y="-8.42572" font-family="monospace" font-size="12.00">L1667M</text>
</g>
<!-- 13 -->
<g id="node14" class="node"><title>13</title>
<ellipse fill="#ff3030" stroke="black" cx="107.774" cy="-76.4614" rx="5.5" ry="5.5"/>
</g>
<!-- 6&#45;&gt;13 -->
<g id="edge39" class="edge"><title>6&#45;&gt;13</title>
<path fill="none" stroke="black" d="M64.7624,-54.2113C75.991,-60.0199 89.0909,-66.7965 97.8564,-71.3309"/>
<polygon fill="black" stroke="black" points="97.4535,-73.0928 102.699,-73.8358 99.0617,-69.9841 97.4535,-73.0928"/>
<text text-anchor="middle" x="92.8094" y="-53.1711" font-family="monospace" font-size="12.00">I1940T</text>
</g>
<!-- 14 -->
<g id="node15" class="node"><title>14</title>
<path fill="#ff3030" stroke="black" stroke-width="0.5" d="M20.9819,55.3461C20.9819,55.3461 25.4819,55.3461 25.4819,55.3461 25.4819,55.1497 25.4691,54.9534 25.4434,54.7587 25.4178,54.564 25.3794,54.3711 25.3286,54.1814 25.2778,53.9917 25.2145,53.8055 25.1394,53.624 25.0642,53.4425 24.9772,53.2662 24.879,53.0961 24.7808,52.926 24.6716,52.7625 24.552,52.6066 24.4324,52.4508 24.3028,52.303 24.1639,52.1641 24.025,52.0252 23.8772,51.8956 23.7214,51.776 23.5655,51.6564 23.402,51.5472 23.2319,51.449 23.0618,51.3507 22.8855,51.2638 22.704,51.1886 22.5225,51.1134 22.3363,51.0502 22.1466,50.9994 21.9569,50.9486 21.764,50.9102 21.5693,50.8846 21.3746,50.8589 21.1783,50.8461 20.9819,50.8461 20.7855,50.8461 20.5893,50.8589 20.3946,50.8846 20.1998,50.9102 20.007,50.9486 19.8172,50.9994 19.6275,51.0502 19.4413,51.1134 19.2598,51.1886 19.0784,51.2638 18.902,51.3507 18.7319,51.449 18.5618,51.5472 18.3983,51.6564 18.2425,51.776 18.0867,51.8956 17.9388,52.0252 17.7999,52.1641 17.6611,52.303 17.5314,52.4508 17.4118,52.6066 17.2923,52.7625 17.183,52.926 17.0848,53.0961 16.9866,53.2662 16.8996,53.4425 16.8245,53.624 16.7493,53.8055 16.6861,53.9917 16.6353,54.1814 16.5844,54.3711 16.5461,54.564 16.5204,54.7587 16.4948,54.9534 16.4819,55.1497 16.4819,55.3461 16.4819,55.5425 16.4948,55.7387 16.5204,55.9334 16.5461,56.1282 16.5844,56.321 16.6353,56.5108 16.6861,56.7005 16.7493,56.8867 16.8245,57.0681 16.8996,57.2496 16.9866,57.426 17.0848,57.5961 17.183,57.7662 17.2923,57.9297 17.4118,58.0855 17.5314,58.2413 17.6611,58.3892 17.7999,58.5281 17.9388,58.6669 18.0867,58.7966 18.2425,58.9162 18.3983,59.0357 18.5618,59.145 18.7319,59.2432 18.7319,59.2432 20.9819,55.3461 20.9819,55.3461"/>
<path fill="#98f5ff" stroke="black" stroke-width="0.5" d="M20.9819,55.3461C20.9819,55.3461 18.7319,59.2432 18.7319,59.2432 18.902,59.3414 19.0784,59.4284 19.2598,59.5035 19.4413,59.5787 19.6275,59.6419 19.8172,59.6927 20.007,59.7436 20.1998,59.7819 20.3946,59.8076 20.5893,59.8332 20.7855,59.8461 20.9819,59.8461 21.1783,59.8461 21.3746,59.8332 21.5693,59.8076 21.764,59.7819 21.9569,59.7436 22.1466,59.6927 22.3363,59.6419 22.5225,59.5787 22.704,59.5035 22.8855,59.4284 23.0618,59.3414 23.2319,59.2432 23.402,59.145 23.5655,59.0357 23.7214,58.9162 23.8772,58.7966 24.025,58.6669 24.1639,58.5281 24.3028,58.3892 24.4324,58.2413 24.552,58.0855 24.6716,57.9297 24.7808,57.7662 24.879,57.5961 24.9772,57.426 25.0642,57.2496 25.1394,57.0681 25.2145,56.8867 25.2778,56.7005 25.3286,56.5108 25.3794,56.321 25.4178,56.1282 25.4434,55.9334 25.4691,55.7387 25.4819,55.5425 25.4819,55.3461 25.4819,55.3461 20.9819,55.3461 20.9819,55.3461"/>
<ellipse fill="none" stroke="black" cx="20.9819" cy="55.3461" rx="4.5" ry="4.5"/>
</g>
<!-- 6&#45;&gt;14 -->
<g id="edge40" class="edge"><title>6&#45;&gt;14</title>
<path fill="none" stroke="black" d="M37.423,-18.808C32.8455,1.83785 26.4746,30.5725 23.1683,45.4846"/>
<polygon fill="black" stroke="black" points="24.8159,46.1385 22.0251,50.6412 21.3989,45.3809 24.8159,46.1385"/>
<text text-anchor="middle" x="49.2957" y="9.93833" font-family="monospace" font-size="12.00">T791M</text>
</g>
<!-- 17 -->
<g id="node18" class="node"><title>17</title>
<ellipse fill="#ff3030" stroke="black" cx="12.1621" cy="-67.2736" rx="4.5" ry="4.5"/>
</g>
<!-- 6&#45;&gt;17 -->
<g id="edge41" class="edge"><title>6&#45;&gt;17</title>
<path fill="none" stroke="black" d="M23.5509,-58.169C22.2907,-59.1765 21.0684,-60.1536 19.9215,-61.0705"/>
<polygon fill="black" stroke="black" points="18.7635,-59.7557 15.9508,-64.2448 20.949,-62.4895 18.7635,-59.7557"/>
<text text-anchor="middle" x="-1.2638" y="-63.0198" font-family="monospace" font-size="12.00">N1345I</text>
</g>
<!-- 19 -->
<g id="node20" class="node"><title>19</title>
<path fill="deepskyblue" stroke="black" stroke-width="0.5" d="M127.249,-65.1488C127.249,-65.1488 135.249,-65.1488 135.249,-65.1488 135.249,-65.463 135.23,-65.777 135.193,-66.0891 135.157,-66.4011 135.101,-66.7108 135.028,-67.0163 134.955,-67.3219 134.863,-67.6229 134.754,-67.9177 134.646,-68.2125 134.52,-68.5007 134.377,-68.7807 134.234,-69.0607 134.075,-69.332 133.901,-69.5933 133.726,-69.8546 133.536,-70.1054 133.332,-70.3444 133.128,-70.5833 132.91,-70.81 132.679,-71.0233 132.449,-71.2367 132.205,-71.4362 131.951,-71.6209 131.697,-71.8056 131.432,-71.9752 131.158,-72.1287 130.884,-72.2823 130.601,-72.4195 130.31,-72.5398 130.02,-72.6601 129.723,-72.7631 129.42,-72.8484 129.118,-72.9337 128.811,-73.0011 128.5,-73.0503 128.19,-73.0994 127.877,-73.1303 127.563,-73.1426 127.249,-73.1549 126.935,-73.1488 126.621,-73.1241 126.308,-73.0994 125.996,-73.0564 125.688,-72.995 125.38,-72.9337 125.076,-72.8543 124.777,-72.7572 124.478,-72.6601 124.185,-72.5455 123.9,-72.4139 123.614,-72.2823 123.337,-72.1341 123.069,-71.9699 122.801,-71.8057 122.543,-71.6259 122.296,-71.4313 122.049,-71.2368 121.814,-71.0278 121.592,-70.8056 121.37,-70.5834 121.161,-70.3483 120.966,-70.1015 120.772,-69.8547 120.592,-69.5967 120.428,-69.3288 120.264,-69.0608 120.115,-68.7834 119.984,-68.498 119.852,-68.2127 119.738,-67.9198 119.64,-67.6209 119.543,-67.322 119.464,-67.0177 119.403,-66.7095 119.341,-66.4013 119.298,-66.0897 119.274,-65.7764 119.249,-65.4632 119.243,-65.1487 119.255,-64.8347 119.267,-64.5207 119.298,-64.2077 119.347,-63.8973 119.397,-63.5869 119.464,-63.2797 119.549,-62.9772 119.635,-62.6748 119.738,-62.3776 119.858,-62.0873 119.978,-61.797 120.115,-61.514 120.269,-61.2398 120.422,-60.9656 120.592,-60.7007 120.777,-60.4465 120.777,-60.4465 127.249,-65.1488 127.249,-65.1488"/>
<path fill="#98f5ff" stroke="black" stroke-width="0.5" d="M127.249,-65.1488C127.249,-65.1488 120.777,-60.4465 120.777,-60.4465 121.023,-60.1074 121.296,-59.7883 121.592,-59.4919 121.888,-59.1956 122.208,-58.923 122.547,-58.6766 122.886,-58.4303 123.244,-58.211 123.617,-58.0207 123.99,-57.8304 124.378,-57.6698 124.777,-57.5403 125.175,-57.4108 125.583,-57.3128 125.997,-57.2473 126.411,-57.1817 126.83,-57.1488 127.249,-57.1488 127.668,-57.1488 128.086,-57.1817 128.5,-57.2473 128.914,-57.3128 129.322,-57.4108 129.721,-57.5403 130.12,-57.6698 130.507,-57.8304 130.881,-58.0207 131.254,-58.211 131.612,-58.4303 131.951,-58.6766 132.29,-58.923 132.609,-59.1956 132.906,-59.4919 133.202,-59.7883 133.475,-60.1074 133.721,-60.4465 133.967,-60.7855 134.187,-61.1434 134.377,-61.5168 134.567,-61.8903 134.728,-62.278 134.857,-62.6766 134.987,-63.0752 135.085,-63.4834 135.15,-63.8973 135.216,-64.3112 135.249,-64.7297 135.249,-65.1488 135.249,-65.1488 127.249,-65.1488 127.249,-65.1488"/>
<ellipse fill="none" stroke="black" cx="127.249" cy="-65.1488" rx="8" ry="8"/>
</g>
<!-- 6&#45;&gt;19 -->
<g id="edge42" class="edge"><title>6&#45;&gt;19</title>
<path fill="none" stroke="black" d="M66.7361,-49.1608C82.2769,-53.2668 101.899,-58.4512 114.512,-61.7835"/>
<polygon fill="black" stroke="black" points="114.174,-63.5043 119.455,-63.0897 115.068,-60.1204 114.174,-63.5043"/>
<text text-anchor="middle" x="113.624" y="-45.8721" font-family="monospace" font-size="12.00">E1597G</text>
</g>
<!-- 26 -->
<g id="node27" class="node"><title>26</title>
<ellipse fill="deepskyblue" stroke="black" cx="51.531" cy="-6.39785" rx="3.5" ry="3.5"/>
</g>
<!-- 6&#45;&gt;26 -->
<g id="edge43" class="edge"><title>6&#45;&gt;26</title>
<path fill="none" stroke="black" d="M48.5573,-18.7297C48.8635,-17.4596 49.1595,-16.2322 49.4382,-15.0763"/>
<polygon fill="black" stroke="black" points="51.1857,-15.2945 50.6567,-10.0236 47.7832,-14.474 51.1857,-15.2945"/>
<text text-anchor="middle" x="25.9978" y="-7.30296" font-family="monospace" font-size="12.00">I1584T</text>
</g>
<!-- 31 -->
<g id="node32" class="node"><title>31</title>
<path fill="deepskyblue" stroke="black" stroke-width="0.5" d="M-3.12411,31.7471C-3.12411,31.7471 5.87589,31.7471 5.87589,31.7471 5.87589,31.4034 5.8562,31.0599 5.81692,30.7185 5.77764,30.377 5.71883,30.0381 5.64078,29.7034 5.56274,29.3686 5.46558,29.0387 5.34979,28.7151 5.234,28.3914 5.09976,28.0747 4.94775,27.7665 4.79573,27.4582 4.62618,27.1589 4.43993,26.87 4.25368,26.5812 4.05103,26.3032 3.83299,26.0375 3.61494,25.7718 3.38186,25.5189 3.13488,25.2798 2.8879,25.0408 2.62742,24.8161 2.35474,24.6069 2.08206,24.3976 1.79762,24.2042 1.50282,24.0275 1.20801,23.8508 0.903324,23.6911 0.590255,23.5493 0.277186,23.4074 -0.0437515,23.2836 -0.370981,23.1785 -0.69821,23.0734 -1.03119,22.987 -1.3683,22.92 -1.7054,22.8529 -2.04606,22.8053 -2.38862,22.7772 -2.73117,22.7491 -3.07506,22.7406 -3.41858,22.7519 -3.7621,22.7631 -4.1047,22.794 -4.44468,22.8445 -4.78467,22.8949 -5.12149,22.9648 -5.45348,23.0537 -5.78547,23.1427 -6.1121,23.2506 -6.43175,23.3769 -6.7514,23.5032 -7.06356,23.6477 -7.36668,23.8098 -7.6698,23.9718 -7.96339,24.151 -8.24601,24.3466 -8.52863,24.5422 -8.79981,24.7539 -9.05822,24.9805 -9.31663,25.2071 -9.56185,25.4484 -9.79267,25.703 -10.0235,25.9577 -10.2395,26.2254 -10.4397,26.5048 -10.6399,26.7841 -10.824,27.0748 -10.9909,27.3752 -11.1579,27.6756 -11.3075,27.9854 -11.439,28.3029 -11.5706,28.6205 -11.6838,28.9453 -11.7782,29.2758 -11.8725,29.6063 -11.9479,29.9419 -12.0039,30.281 -12.0599,30.6201 -12.0964,30.9622 -12.1133,31.3055 -12.1301,31.6487 -12.1273,31.9927 -12.1048,32.3357 -12.0824,32.6787 -12.0403,33.0201 -11.9787,33.3582 -11.9172,33.6964 -11.8363,34.0307 -11.7366,34.3596 -11.6368,34.6885 -11.5183,35.0114 -11.3816,35.3268 -11.2449,35.6421 -11.0902,35.9494 -10.9183,36.2471 -10.9183,36.2471 -3.12411,31.7471 -3.12411,31.7471"/>
<path fill="#98f5ff" stroke="black" stroke-width="0.5" d="M-3.12411,31.7471C-3.12411,31.7471 -10.9183,36.2471 -10.9183,36.2471 -10.6728,36.6724 -10.3928,37.0769 -10.0812,37.4566 -9.76962,37.8363 -9.42749,38.1898 -9.05822,38.5136 -8.68896,38.8375 -8.2938,39.1305 -7.87672,39.3899 -7.45964,39.6492 -7.02202,39.874 -6.56826,40.062 -6.1145,40.2499 -5.64611,40.4004 -5.1678,40.512 -4.68948,40.6235 -4.20283,40.6957 -3.71274,40.7278 -3.22264,40.7599 -2.73074,40.7519 -2.24195,40.7037 -1.75317,40.6556 -1.26915,40.5675 -0.794737,40.4404 -0.320325,40.3133 0.142886,40.1475 0.590255,39.9448 1.03762,39.7421 1.46765,39.5032 1.87602,39.2303 2.2844,38.9574 2.66975,38.6516 3.02822,38.3158 3.38669,37.9801 3.71708,37.6156 4.01607,37.2259 4.31506,36.8363 4.58166,36.4228 4.81318,35.9896 5.04471,35.5565 5.24039,35.1051 5.39826,34.64 5.55614,34.1749 5.67568,33.6977 5.75568,33.2131 5.83569,32.7285 5.87589,32.2382 5.87589,31.7471 5.87589,31.7471 -3.12411,31.7471 -3.12411,31.7471"/>
<ellipse fill="none" stroke="black" cx="-3.12411" cy="31.7471" rx="9" ry="9"/>
</g>
<!-- 6&#45;&gt;31 -->
<g id="edge47" class="edge"><title>6&#45;&gt;31</title>
<path fill="none" stroke="black" d="M29.7252,-21.6535C21.567,-8.39141 11.3367,8.23919 4.47959,19.3863"/>
<polygon fill="black" stroke="black" points="5.87358,20.4603 1.76321,23.8021 2.89245,18.6264 5.87358,20.4603"/>
<text text-anchor="middle" x="-5.89763" y="8.46639" font-family="monospace" font-size="12.00">V1853I</text>
</g>
<!-- 47 -->
<g id="node48" class="node"><title>47</title>
<ellipse fill="brown" stroke="black" cx="51.8959" cy="-70.1741" rx="2.5" ry="2.5"/>
</g>
<!-- 6&#45;&gt;47 -->
<g id="edge48" class="edge"><title>6&#45;&gt;47</title>
<path fill="none" stroke="black" d="M50.6238,-66.371C50.7681,-66.8024 50.903,-67.2057 51.027,-67.5763"/>
</g>
<!-- 48 -->
<g id="node49" class="node"><title>48</title>
<ellipse fill="brown" stroke="black" cx="80.192" cy="27.8291" rx="4.5" ry="4.5"/>
</g>
<!-- 6&#45;&gt;48 -->
<g id="edge49" class="edge"><title>6&#45;&gt;48</title>
<path fill="none" stroke="black" d="M54.3898,-20.8554C62.8056,-4.97629 73.4595,15.1259 77.9912,23.6765"/>
</g>
<!-- 50 -->
<g id="node51" class="node"><title>50</title>
<ellipse fill="brown" stroke="black" cx="83.1552" cy="-106.684" rx="5.5" ry="5.5"/>
</g>
<!-- 6&#45;&gt;50 -->
<g id="edge52" class="edge"><title>6&#45;&gt;50</title>
<path fill="none" stroke="black" d="M55.9784,-63.7333C64.5407,-77.2652 75.0073,-93.8069 80.0911,-101.841"/>
</g>
<!-- 51 -->
<g id="node52" class="node"><title>51</title>
<ellipse fill="brown" stroke="black" cx="8.067" cy="-27.3776" rx="2.5" ry="2.5"/>
</g>
<!-- 6&#45;&gt;51 -->
<g id="edge53" class="edge"><title>6&#45;&gt;51</title>
<path fill="none" stroke="black" d="M20.1965,-32.7796C16.2636,-31.028 12.7249,-29.452 10.4988,-28.4606"/>
</g>
<!-- 54 -->
<g id="node55" class="node"><title>54</title>
<ellipse fill="brown" stroke="black" cx="27.2808" cy="0.724815" rx="2.5" ry="2.5"/>
</g>
<!-- 6&#45;&gt;54 -->
<g id="edge54" class="edge"><title>6&#45;&gt;54</title>
<path fill="none" stroke="black" d="M34.4708,-19.5191C31.9426,-12.4009 29.4923,-5.50182 28.2078,-1.88502"/>
</g>
<!-- anon_6_27_0 -->
<g id="node66" class="node"><title>anon_6_27_0</title>
<ellipse fill="white" stroke="black" cx="-39.794" cy="-43.0769" rx="1" ry="1"/>
</g>
<!-- 6&#45;&gt;anon_6_27_0 -->
<g id="edge44" class="edge"><title>6&#45;&gt;anon_6_27_0</title>
<path fill="none" stroke="black" d="M17.9823,-42.899C-3.29169,-42.9645 -31.5712,-43.0516 -38.3086,-43.0723"/>
</g>
<!-- anon_6_49_0 -->
<g id="node68" class="node"><title>anon_6_49_0</title>
<ellipse fill="white" stroke="black" cx="104.212" cy="-42.6509" rx="1" ry="1"/>
</g>
<!-- 6&#45;&gt;anon_6_49_0 -->
<g id="edge50" class="edge"><title>6&#45;&gt;anon_6_49_0</title>
<path fill="none" stroke="black" d="M67.3932,-42.7539C82.0884,-42.7128 98.7177,-42.6663 103.104,-42.654"/>
</g>
<!-- 57 -->
<g id="node58" class="node"><title>57</title>
<ellipse fill="black" stroke="black" cx="-66.7872" cy="30.0522" rx="4.5" ry="4.5"/>
</g>
<!-- 8&#45;&gt;57 -->
<g id="edge55" class="edge"><title>8&#45;&gt;57</title>
<path fill="none" stroke="black" d="M-21.4977,0.878658C-30.6396,6.76743 -53.5526,21.527 -62.8122,27.4917"/>
</g>
<!-- 9 -->
<g id="node10" class="node"><title>9</title>
<ellipse fill="deepskyblue" stroke="black" cx="18.8147" cy="172.655" rx="2.5" ry="2.5"/>
</g>
<!-- 15 -->
<g id="node16" class="node"><title>15</title>
<path fill="deepskyblue" stroke="black" stroke-width="0.5" d="M33.4698,121.809C33.4698,121.809 45.9698,121.809 45.9698,121.809 45.9698,121.22 45.9281,120.631 45.8451,120.048 45.762,119.464 45.6378,118.888 45.4734,118.322 45.309,117.756 45.1048,117.202 44.8623,116.665 44.6198,116.128 44.3396,115.609 44.0239,115.111 43.7081,114.614 43.3576,114.139 42.9748,113.691 42.5921,113.243 42.1782,112.822 41.7362,112.433 41.2941,112.043 40.8251,111.685 40.3325,111.362 39.84,111.038 39.3252,110.75 38.792,110.499 38.2588,110.248 37.7085,110.035 37.1453,109.862 36.582,109.688 36.0072,109.555 35.4252,109.463 34.8432,109.371 34.2553,109.32 33.6661,109.311 33.0769,109.301 32.4877,109.334 31.9031,109.408 31.3185,109.482 30.7398,109.597 30.1713,109.752 29.6029,109.908 29.0462,110.103 28.5054,110.337 27.9646,110.571 27.441,110.843 26.9385,111.151 26.4361,111.459 25.956,111.802 25.502,112.178 25.0479,112.553 24.621,112.961 24.2244,113.396 23.8278,113.832 23.4625,114.296 23.1313,114.783 22.8,115.27 22.5037,115.781 22.2444,116.31 21.9852,116.839 21.7637,117.386 21.5816,117.946 21.3995,118.507 21.2572,119.079 21.1559,119.66 21.0546,120.241 20.9944,120.827 20.9759,121.416 20.9574,122.005 20.9806,122.595 21.0453,123.181 21.1099,123.767 21.2159,124.347 21.3625,124.918 21.509,125.489 21.6958,126.048 21.9213,126.593 22.1468,127.137 22.4105,127.665 22.7105,128.172 23.0105,128.679 23.3459,129.165 23.7144,129.625 24.0828,130.085 24.4833,130.518 24.9129,130.921 25.3425,131.325 25.8001,131.697 26.2822,132.036 26.7643,132.375 27.2698,132.679 27.7949,132.947 28.3199,133.214 28.8633,133.444 29.4208,133.635 29.9783,133.826 30.5486,133.977 31.1275,134.088 31.1275,134.088 33.4698,121.809 33.4698,121.809"/>
<path fill="#98f5ff" stroke="black" stroke-width="0.5" d="M33.4698,121.809C33.4698,121.809 31.1275,134.088 31.1275,134.088 31.5776,134.174 32.0322,134.235 32.489,134.271 32.9459,134.307 33.4044,134.317 33.8624,134.303 34.3204,134.289 34.7773,134.249 35.231,134.184 35.6847,134.12 36.1345,134.03 36.5784,133.916 37.0223,133.802 37.4595,133.664 37.8882,133.502 38.3169,133.34 38.7363,133.155 39.1446,132.947 39.553,132.739 39.9495,132.508 40.3325,132.257 40.7156,132.005 41.0845,131.733 41.4376,131.441 41.7907,131.148 42.1274,130.837 42.4463,130.508 42.7653,130.179 43.0658,129.833 43.3467,129.47 43.6276,129.108 43.8883,128.731 44.1278,128.34 44.3672,127.95 44.585,127.546 44.7801,127.131 44.9752,126.717 45.1474,126.292 45.2958,125.858 45.4443,125.425 45.5688,124.983 45.6687,124.536 45.7687,124.089 45.844,123.636 45.8943,123.181 45.9446,122.725 45.9698,122.267 45.9698,121.809 45.9698,121.809 33.4698,121.809 33.4698,121.809"/>
<ellipse fill="none" stroke="black" cx="33.4698" cy="121.809" rx="12.5" ry="12.5"/>
</g>
<!-- 9&#45;&gt;15 -->
<g id="edge56" class="edge"><title>9&#45;&gt;15</title>
<path fill="none" stroke="black" d="M19.5216,170.203C21.3741,163.776 26.4676,146.104 29.9584,133.992"/>
</g>
<!-- 12 -->
<g id="node13" class="node"><title>12</title>
<ellipse fill="deepskyblue" stroke="black" cx="-16.2894" cy="164.735" rx="2.5" ry="2.5"/>
</g>
<!-- 12&#45;&gt;15 -->
<g id="edge57" class="edge"><title>12&#45;&gt;15</title>
<path fill="none" stroke="black" d="M-14.1513,162.89C-7.67779,157.306 11.9955,140.334 23.9346,130.035"/>
</g>
<!-- 28 -->
<g id="node29" class="node"><title>28</title>
<ellipse fill="#ff3030" stroke="black" cx="172.933" cy="-94.9259" rx="2.5" ry="2.5"/>
</g>
<!-- 13&#45;&gt;28 -->
<g id="edge58" class="edge"><title>13&#45;&gt;28</title>
<path fill="none" stroke="black" d="M113.329,-78.0356C126.748,-81.8381 160.535,-91.4126 170.27,-94.1712"/>
</g>
<!-- 14&#45;&gt;15 -->
<g id="edge59" class="edge"><title>14&#45;&gt;15</title>
<path fill="none" stroke="black" d="M21.88,60.1259C23.5835,69.192 27.3619,89.3018 30.1436,104.107"/>
<polygon fill="black" stroke="black" points="31.9142,104.054 31.1177,109.291 28.4744,104.7 31.9142,104.054"/>
<text text-anchor="middle" x="3.01183" y="78.7163" font-family="monospace" font-size="12.00">A1746S</text>
</g>
<!-- 61 -->
<g id="node62" class="node"><title>61</title>
<ellipse fill="white" stroke="black" cx="-22.0561" cy="78.7069" rx="1" ry="1"/>
</g>
<!-- 14&#45;&gt;61 -->
<g id="edge60" class="edge"><title>14&#45;&gt;61</title>
<path fill="none" stroke="black" d="M17.0102,57.5019C9.43553,61.6134 -7.11424,70.5966 -16.0492,75.4464"/>
<polygon fill="black" stroke="black" points="-15.5852,77.1857 -20.8144,78.033 -17.2549,74.1096 -15.5852,77.1857"/>
<text text-anchor="middle" x="-22.5195" y="63.0742" font-family="monospace" font-size="12.00">V1853I</text>
</g>
<!-- anon_15_23_0 -->
<g id="node69" class="node"><title>anon_15_23_0</title>
<ellipse fill="white" stroke="black" cx="72.0715" cy="170.068" rx="1" ry="1"/>
</g>
<!-- 15&#45;&gt;anon_15_23_0 -->
<g id="edge61" class="edge"><title>15&#45;&gt;anon_15_23_0</title>
<path fill="none" stroke="black" d="M41.2814,131.575C51.151,143.914 67.3225,164.131 71.2111,168.993"/>
</g>
<!-- 33 -->
<g id="node34" class="node"><title>33</title>
<ellipse fill="deepskyblue" stroke="black" cx="193.887" cy="-75.5384" rx="2.5" ry="2.5"/>
</g>
<!-- 19&#45;&gt;33 -->
<g id="edge64" class="edge"><title>19&#45;&gt;33</title>
<path fill="none" stroke="black" d="M135.155,-66.3814C150.187,-68.725 182.208,-73.7174 191.383,-75.1479"/>
</g>
<!-- 20 -->
<g id="node21" class="node"><title>20</title>
<ellipse fill="deepskyblue" stroke="black" cx="-94.5703" cy="137.895" rx="2.5" ry="2.5"/>
</g>
<!-- anon_20_61_0 -->
<g id="node71" class="node"><title>anon_20_61_0</title>
<ellipse fill="white" stroke="black" cx="-58.8684" cy="107.826" rx="1" ry="1"/>
</g>
<!-- 20&#45;&gt;anon_20_61_0 -->
<g id="edge65" class="edge"><title>20&#45;&gt;anon_20_61_0</title>
<path fill="none" stroke="black" d="M-92.6508,136.279C-86.1621,130.814 -65.164,113.128 -60.0159,108.792"/>
</g>
<!-- 23 -->
<g id="node24" class="node"><title>23</title>
<ellipse fill="deepskyblue" stroke="black" cx="93.5326" cy="250.011" rx="2.5" ry="2.5"/>
</g>
<!-- 27 -->
<g id="node28" class="node"><title>27</title>
<ellipse fill="#ff3030" stroke="black" cx="-133.972" cy="-37.9838" rx="3.5" ry="3.5"/>
</g>
<!-- 31&#45;&gt;61 -->
<g id="edge73" class="edge"><title>31&#45;&gt;61</title>
<path fill="none" stroke="black" stroke-dasharray="5,2" d="M-6.59652,40.3602C-10.4074,49.813 -16.42,64.7269 -19.7112,72.8906"/>
<polygon fill="black" stroke="black" points="-18.1233,73.6323 -21.6159,77.6153 -21.3694,72.3236 -18.1233,73.6323"/>
<text text-anchor="middle" x="-32.1538" y="53.2254" font-family="monospace" font-size="12.00">T791M</text>
</g>
<!-- 35 -->
<g id="node36" class="node"><title>35</title>
<ellipse fill="#ff3030" stroke="black" cx="33.662" cy="-290.793" rx="2.5" ry="2.5"/>
</g>
<!-- 37 -->
<g id="node38" class="node"><title>37</title>
<ellipse fill="#ff3030" stroke="black" cx="189.837" cy="82.818" rx="2.5" ry="2.5"/>
</g>
<!-- 37&#45;&gt;60 -->
<g id="edge67" class="edge"><title>37&#45;&gt;60</title>
<path fill="none" stroke="black" d="M187.767,81.2083C180.77,75.7667 158.127,58.1572 152.575,53.8398"/>
</g>
<!-- 40 -->
<g id="node41" class="node"><title>40</title>
<ellipse fill="deepskyblue" stroke="black" cx="-125.609" cy="-198.011" rx="2.5" ry="2.5"/>
</g>
<!-- 42 -->
<g id="node43" class="node"><title>42</title>
<ellipse fill="#1874cd" stroke="black" cx="-80.6104" cy="-267.566" rx="2.5" ry="2.5"/>
</g>
<!-- 42&#45;&gt;46 -->
<g id="edge68" class="edge"><title>42&#45;&gt;46</title>
<path fill="none" stroke="black" d="M-79.0449,-265.581C-74.0362,-259.232 -58.4275,-239.446 -53.2099,-232.832"/>
</g>
<!-- 45 -->
<g id="node46" class="node"><title>45</title>
<ellipse fill="#1874cd" stroke="black" cx="105.777" cy="-259.495" rx="2.5" ry="2.5"/>
</g>
<!-- 48&#45;&gt;11 -->
<g id="edge72" class="edge"><title>48&#45;&gt;11</title>
<path fill="none" stroke="black" stroke-dasharray="5,2" d="M84.6013,29.5873C91.618,32.3852 105.405,37.8827 113.965,41.2962"/>
<polygon fill="black" stroke="black" points="114.913,39.79 118.909,43.2676 113.616,43.0411 114.913,39.79"/>
<text text-anchor="middle" x="76.2831" y="45.0417" font-family="monospace" font-size="12.00">P1874L</text>
</g>
<!-- 48&#45;&gt;32 -->
<g id="edge74" class="edge"><title>48&#45;&gt;32</title>
<path fill="none" stroke="black" stroke-dasharray="5,2" d="M82.5532,31.8267C86.3108,38.1884 93.6937,50.6881 98.2779,58.4492"/>
<polygon fill="black" stroke="black" points="99.8893,57.7365 100.925,62.9316 96.8757,59.5165 99.8893,57.7365"/>
<text text-anchor="middle" x="113.416" y="54.738" font-family="monospace" font-size="12.00">P1874S</text>
</g>
<!-- 49 -->
<g id="node50" class="node"><title>49</title>
<ellipse fill="brown" stroke="black" cx="145.857" cy="-43.8394" rx="2.5" ry="2.5"/>
</g>
<!-- 50&#45;&gt;41 -->
<g id="edge75" class="edge"><title>50&#45;&gt;41</title>
<path fill="none" stroke="black" stroke-dasharray="5,2" d="M79.1532,-110.875C73.6753,-116.611 63.8331,-126.917 57.7761,-133.26"/>
<polygon fill="black" stroke="black" points="56.4753,-132.088 54.2877,-136.913 59.0065,-134.506 56.4753,-132.088"/>
<text text-anchor="middle" x="45.4646" y="-112.467" font-family="monospace" font-size="12.00">N1570Y</text>
</g>
<!-- 52 -->
<g id="node53" class="node"><title>52</title>
<ellipse fill="brown" stroke="black" cx="141.313" cy="-122.984" rx="2.5" ry="2.5"/>
</g>
<!-- 50&#45;&gt;52 -->
<g id="edge69" class="edge"><title>50&#45;&gt;52</title>
<path fill="none" stroke="black" d="M88.5223,-108.188C100.67,-111.593 129.901,-119.785 138.739,-122.262"/>
</g>
<!-- 53 -->
<g id="node54" class="node"><title>53</title>
<ellipse fill="brown" stroke="black" cx="128.928" cy="-142.23" rx="2.5" ry="2.5"/>
</g>
<!-- 50&#45;&gt;53 -->
<g id="edge70" class="edge"><title>50&#45;&gt;53</title>
<path fill="none" stroke="black" d="M87.7114,-110.222C97.48,-117.808 120.107,-135.379 126.939,-140.685"/>
</g>
<!-- 61&#45;&gt;anon_20_61_0 -->
<g id="edge66" class="edge"><title>61&#45;&gt;anon_20_61_0</title>
<path fill="none" stroke="black" d="M-22.966,79.4267C-27.1124,82.7065 -44.4013,96.3821 -53.3883,103.491"/>
<polygon fill="black" stroke="black" points="-52.5511,105.06 -57.5583,106.789 -54.7224,102.315 -52.5511,105.06"/>
<text text-anchor="middle" x="-61.1772" y="88.0587" font-family="monospace" font-size="12.00">L1366F</text>
</g>
<!-- anon_3_35_0&#45;&gt;35 -->
<g id="edge18" class="edge"><title>anon_3_35_0&#45;&gt;35</title>
<path fill="none" stroke="black" d="M27.0786,-251.864C27.9394,-256.955 31.8894,-280.311 33.2217,-288.189"/>
</g>
<!-- anon_3_40_0&#45;&gt;40 -->
<g id="edge21" class="edge"><title>anon_3_40_0&#45;&gt;40</title>
<path fill="none" stroke="black" d="M-88.5836,-183.973C-92.6306,-185.508 -108.818,-191.645 -118.397,-195.277"/>
<polygon fill="black" stroke="black" points="-119.078,-193.663 -123.132,-197.072 -117.837,-196.936 -119.078,-193.663"/>
<text text-anchor="middle" x="-122.491" y="-180.025" font-family="monospace" font-size="12.00">P940H</text>
</g>
<!-- anon_3_45_0&#45;&gt;45 -->
<g id="edge26" class="edge"><title>anon_3_45_0&#45;&gt;45</title>
<path fill="none" stroke="black" d="M80.4169,-229.067C83.7328,-233.045 98.9481,-251.302 104.08,-257.46"/>
</g>
<!-- anon_6_27_1 -->
<g id="node67" class="node"><title>anon_6_27_1</title>
<ellipse fill="white" stroke="black" cx="-91.8157" cy="-38.7715" rx="1" ry="1"/>
</g>
<!-- anon_6_27_0&#45;&gt;anon_6_27_1 -->
<g id="edge45" class="edge"><title>anon_6_27_0&#45;&gt;anon_6_27_1</title>
<path fill="none" stroke="black" d="M-41.0799,-42.9705C-48.3398,-42.3696 -84.1099,-39.4092 -90.753,-38.8594"/>
</g>
<!-- anon_6_27_1&#45;&gt;27 -->
<g id="edge46" class="edge"><title>anon_6_27_1&#45;&gt;27</title>
<path fill="none" stroke="black" d="M-92.8578,-38.752C-97.2226,-38.6704 -114.305,-38.3513 -125.03,-38.1509"/>
<polygon fill="black" stroke="black" points="-125.181,-36.3979 -130.213,-38.054 -125.246,-39.8972 -125.181,-36.3979"/>
<text text-anchor="middle" x="-108.944" y="-28.8514" font-family="monospace" font-size="12.00">G54C</text>
</g>
<!-- anon_6_49_0&#45;&gt;49 -->
<g id="edge51" class="edge"><title>anon_6_49_0&#45;&gt;49</title>
<path fill="none" stroke="black" d="M105.241,-42.6803C110.552,-42.8318 134.921,-43.5273 143.141,-43.7619"/>
</g>
<!-- anon_15_23_1 -->
<g id="node70" class="node"><title>anon_15_23_1</title>
<ellipse fill="white" stroke="black" cx="84.9494" cy="211.007" rx="1" ry="1"/>
</g>
<!-- anon_15_23_0&#45;&gt;anon_15_23_1 -->
<g id="edge62" class="edge"><title>anon_15_23_0&#45;&gt;anon_15_23_1</title>
<path fill="none" stroke="black" d="M72.3898,171.08C73.8268,175.648 79.7758,194.56 82.9434,204.63"/>
<polygon fill="black" stroke="black" points="84.66,204.255 84.4911,209.55 81.3213,205.305 84.66,204.255"/>
<text text-anchor="middle" x="58.6666" y="184.455" font-family="monospace" font-size="12.00">Q545L</text>
</g>
<!-- anon_15_23_1&#45;&gt;23 -->
<g id="edge63" class="edge"><title>anon_15_23_1&#45;&gt;23</title>
<path fill="none" stroke="black" d="M85.235,212.304C86.4683,217.909 91.3494,240.09 92.9908,247.549"/>
</g>
</g>
</svg>
