<?xml version="1.0" encoding="UTF-8" standalone="no"?>
<!DOCTYPE svg PUBLIC "-//W3C//DTD SVG 1.1//EN"
 "http://www.w3.org/Graphics/SVG/1.1/DTD/svg11.dtd">
<!-- Generated by graphviz version 2.38.0 (20140413.2041)
 -->
<!-- Title: %3 Pages: 1 -->
<svg width="151pt" height="170pt"
 viewBox="0.00 0.00 151.15 169.87" xmlns="http://www.w3.org/2000/svg" xmlns:xlink="http://www.w3.org/1999/xlink">
<g id="graph0" class="graph" transform="scale(1 1) rotate(0) translate(37.0435 111.833)">
<title>%3</title>
<polygon fill="white" stroke="none" points="-37.0435,58.0397 -37.0435,-111.833 114.109,-111.833 114.109,58.0397 -37.0435,58.0397"/>
<!-- 0 -->
<g id="node1" class="node"><title>0</title>
<path fill="olivedrab" stroke="black" stroke-width="0.5" d="M39.9278,-41.9585C39.9278,-41.9585 58.9278,-41.9585 58.9278,-41.9585 58.9278,-43.0218 58.8385,-44.0832 58.6609,-45.1315 58.4834,-46.1799 58.2181,-47.2115 57.8679,-48.2155 57.5178,-49.2195 57.084,-50.1923 56.5711,-51.1237 56.0581,-52.0551 55.468,-52.9418 54.8067,-53.7745 54.1454,-54.6071 53.4155,-55.3828 52.6244,-56.0934 51.8334,-56.8039 50.9841,-57.4468 50.0856,-58.0152 49.187,-58.5837 48.2423,-59.0757 47.2614,-59.4861 46.2805,-59.8965 45.2669,-60.2239 44.2312,-60.4647 43.1955,-60.7055 42.1415,-60.859 41.0802,-60.9235 40.0188,-60.988 38.954,-60.9633 37.8968,-60.8496 36.8396,-60.736 35.7938,-60.5337 34.7704,-60.2451 33.747,-59.9565 32.7497,-59.5825 31.7889,-59.127 30.8281,-58.6715 29.9072,-58.1362 29.036,-57.5267 28.1647,-56.9172 27.3462,-56.2356 26.589,-55.4891 25.8318,-54.7426 25.1386,-53.9339 24.5167,-53.0715 23.8948,-52.209 23.3463,-51.2959 22.8772,-50.3417 22.408,-49.3875 22.0198,-48.3956 21.7166,-47.3764 21.4134,-46.3573 21.1963,-45.3145 21.0676,-44.259 20.9388,-43.2036 20.8989,-42.1392 20.9482,-41.077 20.9976,-40.0149 21.136,-38.9587 21.362,-37.9197 21.588,-36.8807 21.9008,-35.8626 22.2972,-34.8759 22.6935,-33.8893 23.172,-32.9376 23.7276,-32.031 24.2832,-31.1244 24.9139,-30.266 25.613,-29.4649 26.3122,-28.6639 27.0774,-27.9229 27.9005,-27.2498 28.7237,-26.5767 29.6019,-25.9739 30.5258,-25.4478 31.4498,-24.9216 32.4163,-24.4739 33.4152,-24.1095 34.4141,-23.745 35.4418,-23.4651 36.4875,-23.2725 37.5332,-23.08 38.5933,-22.9756 39.6565,-22.9604 40.7196,-22.9452 41.7822,-23.0193 42.833,-23.1819 43.8838,-23.3445 44.9191,-23.595 45.928,-23.9308 46.9368,-24.2666 47.9157,-24.6865 48.8544,-25.186 49.793,-25.6856 50.6881,-26.263 51.5301,-26.9123 51.5301,-26.9123 39.9278,-41.9585 39.9278,-41.9585"/>
<path fill="#1874cd" stroke="black" stroke-width="0.5" d="M39.9278,-41.9585C39.9278,-41.9585 51.5301,-26.9123 51.5301,-26.9123 52.1032,-27.3543 52.6506,-27.8286 53.1696,-28.333 53.6886,-28.8374 54.1783,-29.371 54.6365,-29.9312 55.0946,-30.4915 55.5203,-31.0775 55.9116,-31.6863 56.3029,-32.2951 56.659,-32.9258 56.9783,-33.5753 57.2977,-34.2247 57.5796,-34.8919 57.8228,-35.5735 58.066,-36.2552 58.2701,-36.9501 58.434,-37.655 58.5979,-38.3599 58.7214,-39.0736 58.8039,-39.7926 58.8864,-40.5116 58.9278,-41.2348 58.9278,-41.9585 58.9278,-41.9585 39.9278,-41.9585 39.9278,-41.9585"/>
<ellipse fill="none" stroke="black" cx="39.9278" cy="-41.9585" rx="19" ry="19"/>
</g>
<!-- 2 -->
<g id="node3" class="node"><title>2</title>
<ellipse fill="olivedrab" stroke="black" cx="27.7627" cy="28.7184" rx="6" ry="6"/>
</g>
<!-- 0&#45;&gt;2 -->
<g id="edge1" class="edge"><title>0&#45;&gt;2</title>
<path fill="none" stroke="black" d="M36.6678,-23.0184C34.0496,-7.80751 30.5351,12.6116 28.8088,22.641"/>
</g>
<!-- 4 -->
<g id="node5" class="node"><title>4</title>
<ellipse fill="olivedrab" stroke="black" cx="-25.5161" cy="-4.40001" rx="7.5" ry="7.5"/>
</g>
<!-- 0&#45;&gt;4 -->
<g id="edge2" class="edge"><title>0&#45;&gt;4</title>
<path fill="none" stroke="black" d="M23.4135,-32.4809C9.78187,-24.6577 -8.87035,-13.9531 -18.7437,-8.28675"/>
</g>
<!-- 5 -->
<g id="node6" class="node"><title>5</title>
<ellipse fill="olivedrab" stroke="black" cx="22.0289" cy="-105.333" rx="2.5" ry="2.5"/>
</g>
<!-- 0&#45;&gt;5 -->
<g id="edge3" class="edge"><title>0&#45;&gt;5</title>
<path fill="none" stroke="black" d="M34.7507,-60.2889C30.4556,-75.4962 24.7417,-95.7275 22.75,-102.78"/>
</g>
<!-- 6 -->
<g id="node7" class="node"><title>6</title>
<ellipse fill="olivedrab" stroke="black" cx="83.5605" cy="9.46896" rx="2.5" ry="2.5"/>
</g>
<!-- 0&#45;&gt;6 -->
<g id="edge4" class="edge"><title>0&#45;&gt;6</title>
<path fill="none" stroke="black" d="M52.3144,-27.359C62.7955,-15.0056 76.8721,1.58574 81.7824,7.37319"/>
</g>
<!-- 7 -->
<g id="node8" class="node"><title>7</title>
<ellipse fill="olivedrab" stroke="black" cx="76.2266" cy="-96.9868" rx="2.5" ry="2.5"/>
</g>
<!-- 0&#45;&gt;7 -->
<g id="edge5" class="edge"><title>0&#45;&gt;7</title>
<path fill="none" stroke="black" d="M50.4269,-57.875C59.1372,-71.0797 70.7251,-88.6467 74.7643,-94.7701"/>
</g>
<!-- 8 -->
<g id="node9" class="node"><title>8</title>
<ellipse fill="olivedrab" stroke="black" cx="107.609" cy="-53.7969" rx="2.5" ry="2.5"/>
</g>
<!-- 0&#45;&gt;8 -->
<g id="edge6" class="edge"><title>0&#45;&gt;8</title>
<path fill="none" stroke="black" d="M58.7808,-45.2561C75.0522,-48.1023 97.1169,-51.9617 104.819,-53.3089"/>
</g>
<!-- 9 -->
<g id="node10" class="node"><title>9</title>
<ellipse fill="olivedrab" stroke="black" cx="-19.9559" cy="-73.5309" rx="2.5" ry="2.5"/>
</g>
<!-- 0&#45;&gt;9 -->
<g id="edge7" class="edge"><title>0&#45;&gt;9</title>
<path fill="none" stroke="black" d="M22.9277,-50.9214C11.0153,-57.2019 -4.28119,-65.2667 -13.0147,-69.8713"/>
<polygon fill="black" stroke="black" points="-13.9088,-68.3643 -17.5156,-72.2442 -12.2764,-71.4603 -13.9088,-68.3643"/>
<text text-anchor="middle" x="-14.0435" y="-50.7963" font-family="monospace" font-size="12.00">K251R</text>
</g>
<!-- 1 -->
<g id="node2" class="node"><title>1</title>
<ellipse fill="olivedrab" stroke="black" cx="69.8733" cy="51.5397" rx="2.5" ry="2.5"/>
</g>
<!-- 1&#45;&gt;2 -->
<g id="edge8" class="edge"><title>1&#45;&gt;2</title>
<path fill="none" stroke="black" d="M67.6092,50.3128C61.1175,46.7946 42.3128,36.6037 33.0481,31.5828"/>
</g>
<!-- 1&#45;&gt;6 -->
<g id="edge10" class="edge"><title>1&#45;&gt;6</title>
<path fill="none" stroke="black" stroke-dasharray="5,2" d="M70.7713,48.7793C73.293,41.0284 80.4089,19.1563 82.7804,11.8667"/>
</g>
<!-- 3 -->
<g id="node4" class="node"><title>3</title>
<ellipse fill="olivedrab" stroke="black" cx="-18.8308" cy="46.0751" rx="3.5" ry="3.5"/>
</g>
<!-- 2&#45;&gt;3 -->
<g id="edge9" class="edge"><title>2&#45;&gt;3</title>
<path fill="none" stroke="black" d="M22.0494,30.8467C12.3293,34.4676 -7.15442,41.7255 -15.2134,44.7276"/>
</g>
<!-- 3&#45;&gt;4 -->
<g id="edge11" class="edge"><title>3&#45;&gt;4</title>
<path fill="none" stroke="black" stroke-dasharray="5,2" d="M-19.3116,42.445C-20.3894,34.3074 -23.019,14.4538 -24.4853,3.383"/>
</g>
</g>
</svg>
