<?xml version="1.0" encoding="UTF-8" standalone="no"?>
<!DOCTYPE svg PUBLIC "-//W3C//DTD SVG 1.1//EN"
 "http://www.w3.org/Graphics/SVG/1.1/DTD/svg11.dtd">
<!-- Generated by graphviz version 2.38.0 (20140413.2041)
 -->
<!-- Title: %3 Pages: 1 -->
<svg width="168pt" height="192pt"
 viewBox="0.00 0.00 168.07 192.15" xmlns="http://www.w3.org/2000/svg" xmlns:xlink="http://www.w3.org/1999/xlink">
<g id="graph0" class="graph" transform="scale(1 1) rotate(0) translate(77.4701 136.487)">
<title>%3</title>
<polygon fill="white" stroke="none" points="-77.4701,55.6677 -77.4701,-136.487 90.5963,-136.487 90.5963,55.6677 -77.4701,55.6677"/>
<!-- 0 -->
<g id="node1" class="node"><title>0</title>
<ellipse fill="palegreen" stroke="black" cx="2.48834" cy="-57.8394" rx="23.5" ry="23.5"/>
</g>
<!-- 1 -->
<g id="node2" class="node"><title>1</title>
<ellipse fill="palegreen" stroke="black" cx="67.9079" cy="-44.4623" rx="2.5" ry="2.5"/>
</g>
<!-- 0&#45;&gt;1 -->
<g id="edge1" class="edge"><title>0&#45;&gt;1</title>
<path fill="none" stroke="black" d="M25.737,-53.0855C40.721,-50.0215 58.6032,-46.3649 65.2496,-45.0059"/>
</g>
<!-- 2 -->
<g id="node3" class="node"><title>2</title>
<ellipse fill="palegreen" stroke="black" cx="-13.1258" cy="-129.987" rx="2.5" ry="2.5"/>
</g>
<!-- 0&#45;&gt;2 -->
<g id="edge2" class="edge"><title>0&#45;&gt;2</title>
<path fill="none" stroke="black" d="M-2.53801,-81.0645C-6.24666,-98.2009 -10.9183,-119.787 -12.5398,-127.28"/>
</g>
<!-- 3 -->
<g id="node4" class="node"><title>3</title>
<ellipse fill="palegreen" stroke="black" cx="24.3817" cy="-129.641" rx="2.5" ry="2.5"/>
</g>
<!-- 0&#45;&gt;3 -->
<g id="edge3" class="edge"><title>0&#45;&gt;3</title>
<path fill="none" stroke="black" d="M9.41553,-80.5579C14.627,-97.6494 21.2498,-119.37 23.5502,-126.914"/>
</g>
<!-- 4 -->
<g id="node5" class="node"><title>4</title>
<ellipse fill="palegreen" stroke="black" cx="80.3146" cy="-79.7177" rx="3.5" ry="3.5"/>
</g>
<!-- 0&#45;&gt;4 -->
<g id="edge4" class="edge"><title>0&#45;&gt;4</title>
<path fill="none" stroke="black" d="M25.4179,-64.2853C40.9961,-68.6646 60.7109,-74.2068 71.7747,-77.317"/>
<polygon fill="black" stroke="black" points="71.417,-79.0342 76.7041,-78.7027 72.3643,-75.6648 71.417,-79.0342"/>
<text text-anchor="middle" x="67.5963" y="-61.2011" font-family="monospace" font-size="12.00">I492N</text>
</g>
<!-- 6 -->
<g id="node7" class="node"><title>6</title>
<ellipse fill="palegreen" stroke="black" cx="18.6212" cy="24.2383" rx="6" ry="6"/>
</g>
<!-- 0&#45;&gt;6 -->
<g id="edge5" class="edge"><title>0&#45;&gt;6</title>
<path fill="none" stroke="black" d="M7.06821,-34.5388C10.6081,-16.529 15.2573,7.12441 17.4193,18.1237"/>
</g>
<!-- 7 -->
<g id="node8" class="node"><title>7</title>
<ellipse fill="palegreen" stroke="black" cx="-67.7707" cy="-82.4605" rx="2.5" ry="2.5"/>
</g>
<!-- 0&#45;&gt;7 -->
<g id="edge6" class="edge"><title>0&#45;&gt;7</title>
<path fill="none" stroke="black" d="M-19.7421,-65.6297C-36.4663,-71.4904 -57.7201,-78.9384 -65.1023,-81.5254"/>
</g>
<!-- 8 -->
<g id="node9" class="node"><title>8</title>
<ellipse fill="palegreen" stroke="black" cx="-70.9701" cy="-45.5682" rx="2.5" ry="2.5"/>
</g>
<!-- 0&#45;&gt;8 -->
<g id="edge7" class="edge"><title>0&#45;&gt;8</title>
<path fill="none" stroke="black" d="M-20.7544,-53.9567C-38.2402,-51.0357 -60.4618,-47.3236 -68.1802,-46.0342"/>
</g>
<!-- 9 -->
<g id="node10" class="node"><title>9</title>
<ellipse fill="palegreen" stroke="black" cx="55.5038" cy="1.16481" rx="3.5" ry="3.5"/>
</g>
<!-- 0&#45;&gt;9 -->
<g id="edge8" class="edge"><title>0&#45;&gt;9</title>
<path fill="none" stroke="black" d="M18.3947,-40.1362C30.8388,-26.2865 47.0147,-8.2832 53.0728,-1.54081"/>
</g>
<!-- 10 -->
<g id="node11" class="node"><title>10</title>
<ellipse fill="palegreen" stroke="black" cx="-24.9246" cy="4.16563" rx="2.5" ry="2.5"/>
</g>
<!-- 0&#45;&gt;10 -->
<g id="edge9" class="edge"><title>0&#45;&gt;10</title>
<path fill="none" stroke="black" d="M-7.09938,-36.153C-13.3988,-21.9046 -20.9777,-4.76184 -23.7968,1.61449"/>
</g>
<!-- 11 -->
<g id="node12" class="node"><title>11</title>
<ellipse fill="palegreen" stroke="black" cx="-46.5781" cy="-113.332" rx="2.5" ry="2.5"/>
</g>
<!-- 0&#45;&gt;11 -->
<g id="edge10" class="edge"><title>0&#45;&gt;11</title>
<path fill="none" stroke="black" d="M-13.3067,-75.703C-22.9578,-86.6182 -34.6843,-99.8804 -41.324,-107.39"/>
<polygon fill="black" stroke="black" points="-42.7358,-106.344 -44.7368,-111.249 -40.1137,-108.663 -42.7358,-106.344"/>
<text text-anchor="middle" x="-46.3154" y="-94.9464" font-family="monospace" font-size="12.00">M925L</text>
</g>
<!-- 12 -->
<g id="node13" class="node"><title>12</title>
<ellipse fill="palegreen" stroke="black" cx="-58.0337" cy="-10.1477" rx="2.5" ry="2.5"/>
</g>
<!-- 0&#45;&gt;12 -->
<g id="edge11" class="edge"><title>0&#45;&gt;12</title>
<path fill="none" stroke="black" d="M-15.9991,-43.2712C-30.7384,-31.6565 -49.8927,-16.5628 -56.0415,-11.7175"/>
</g>
<!-- 13 -->
<g id="node14" class="node"><title>13</title>
<ellipse fill="palegreen" stroke="black" cx="54.5987" cy="-108.677" rx="2.5" ry="2.5"/>
</g>
<!-- 0&#45;&gt;13 -->
<g id="edge12" class="edge"><title>0&#45;&gt;13</title>
<path fill="none" stroke="black" d="M19.5512,-74.4856C31.8992,-86.532 47.3185,-101.575 52.6667,-106.792"/>
</g>
<!-- 5 -->
<g id="node6" class="node"><title>5</title>
<ellipse fill="palegreen" stroke="black" cx="60.6529" cy="48.1677" rx="3.5" ry="3.5"/>
</g>
<!-- 5&#45;&gt;6 -->
<g id="edge13" class="edge"><title>5&#45;&gt;6</title>
<path fill="none" stroke="black" d="M57.3548,46.29C50.1556,42.1913 32.9705,32.4076 24.1107,27.3636"/>
</g>
<!-- 5&#45;&gt;9 -->
<g id="edge14" class="edge"><title>5&#45;&gt;9</title>
<path fill="none" stroke="black" stroke-dasharray="5,2" d="M60.2489,44.4794C59.2816,35.6497 56.8427,13.3871 55.8919,4.70729"/>
</g>
</g>
</svg>
