<?xml version="1.0" encoding="UTF-8" standalone="no"?>
<!DOCTYPE svg PUBLIC "-//W3C//DTD SVG 1.1//EN"
 "http://www.w3.org/Graphics/SVG/1.1/DTD/svg11.dtd">
<!-- Generated by graphviz version 2.38.0 (20140413.2041)
 -->
<!-- Title: %3 Pages: 1 -->
<svg width="476pt" height="477pt"
 viewBox="0.00 0.00 475.69 476.57" xmlns="http://www.w3.org/2000/svg" xmlns:xlink="http://www.w3.org/1999/xlink">
<g id="graph0" class="graph" transform="scale(1 1) rotate(0) translate(183.991 310.129)">
<title>%3</title>
<polygon fill="white" stroke="none" points="-183.991,166.438 -183.991,-310.129 291.703,-310.129 291.703,166.438 -183.991,166.438"/>
<!-- 0 -->
<g id="node1" class="node"><title>0</title>
<ellipse fill="palegreen" stroke="black" cx="92.4955" cy="-170.776" rx="2.5" ry="2.5"/>
</g>
<!-- 1 -->
<g id="node2" class="node"><title>1</title>
<ellipse fill="palegreen" stroke="black" cx="169.136" cy="-178.003" rx="23.5" ry="23.5"/>
</g>
<!-- 0&#45;&gt;1 -->
<g id="edge1" class="edge"><title>0&#45;&gt;1</title>
<path fill="none" stroke="black" d="M95.0455,-171.017C102.837,-171.751 126.935,-174.023 145.555,-175.779"/>
</g>
<!-- 3 -->
<g id="node4" class="node"><title>3</title>
<ellipse fill="palegreen" stroke="black" cx="195.277" cy="-129.325" rx="2.5" ry="2.5"/>
</g>
<!-- 1&#45;&gt;3 -->
<g id="edge2" class="edge"><title>1&#45;&gt;3</title>
<path fill="none" stroke="black" d="M180.374,-157.076C185.688,-147.181 191.414,-136.519 193.945,-131.806"/>
</g>
<!-- 5 -->
<g id="node6" class="node"><title>5</title>
<ellipse fill="palegreen" stroke="black" cx="147.396" cy="-248.677" rx="2.5" ry="2.5"/>
</g>
<!-- 1&#45;&gt;5 -->
<g id="edge3" class="edge"><title>1&#45;&gt;5</title>
<path fill="none" stroke="black" d="M162.137,-200.753C156.974,-217.54 150.469,-238.685 148.212,-246.025"/>
</g>
<!-- 7 -->
<g id="node8" class="node"><title>7</title>
<ellipse fill="palegreen" stroke="black" cx="115.963" cy="-234.582" rx="3.5" ry="3.5"/>
</g>
<!-- 1&#45;&gt;7 -->
<g id="edge6" class="edge"><title>1&#45;&gt;7</title>
<path fill="none" stroke="black" d="M152.893,-195.286C142.379,-206.473 129.308,-220.381 121.872,-228.294"/>
<polygon fill="black" stroke="black" points="120.521,-227.176 118.372,-232.018 123.072,-229.573 120.521,-227.176"/>
<text text-anchor="middle" x="114.713" y="-217.367" font-family="monospace" font-size="14.00">I492N</text>
</g>
<!-- 9 -->
<g id="node10" class="node"><title>9</title>
<ellipse fill="palegreen" stroke="black" cx="174.68" cy="-90.4558" rx="6" ry="6"/>
</g>
<!-- 1&#45;&gt;9 -->
<g id="edge7" class="edge"><title>1&#45;&gt;9</title>
<path fill="none" stroke="black" d="M170.621,-154.542C171.866,-134.89 173.555,-108.219 174.3,-96.4538"/>
</g>
<!-- 10 -->
<g id="node11" class="node"><title>10</title>
<ellipse fill="palegreen" stroke="black" cx="111.199" cy="-143.379" rx="2.5" ry="2.5"/>
</g>
<!-- 1&#45;&gt;10 -->
<g id="edge8" class="edge"><title>1&#45;&gt;10</title>
<path fill="none" stroke="black" d="M148.872,-165.893C135.559,-157.937 119.541,-148.364 113.583,-144.804"/>
</g>
<!-- 11 -->
<g id="node12" class="node"><title>11</title>
<ellipse fill="palegreen" stroke="black" cx="232.779" cy="-126.836" rx="2.5" ry="2.5"/>
</g>
<!-- 1&#45;&gt;11 -->
<g id="edge9" class="edge"><title>1&#45;&gt;11</title>
<path fill="none" stroke="black" d="M187.544,-163.203C203.11,-150.689 223.917,-133.961 230.609,-128.58"/>
</g>
<!-- 12 -->
<g id="node13" class="node"><title>12</title>
<ellipse fill="palegreen" stroke="black" cx="133.179" cy="-104.448" rx="3.5" ry="3.5"/>
</g>
<!-- 1&#45;&gt;12 -->
<g id="edge10" class="edge"><title>1&#45;&gt;12</title>
<path fill="none" stroke="black" d="M158.736,-156.728C150.19,-139.247 138.85,-116.047 134.745,-107.652"/>
</g>
<!-- 14 -->
<g id="node15" class="node"><title>14</title>
<ellipse fill="palegreen" stroke="black" cx="100.109" cy="-204.234" rx="2.5" ry="2.5"/>
</g>
<!-- 1&#45;&gt;14 -->
<g id="edge11" class="edge"><title>1&#45;&gt;14</title>
<path fill="none" stroke="black" d="M146.915,-186.447C130.52,-192.677 109.867,-200.525 102.699,-203.25"/>
</g>
<!-- 18 -->
<g id="node18" class="node"><title>18</title>
<ellipse fill="palegreen" stroke="black" cx="237.137" cy="-164.281" rx="2.5" ry="2.5"/>
</g>
<!-- 1&#45;&gt;18 -->
<g id="edge12" class="edge"><title>1&#45;&gt;18</title>
<path fill="none" stroke="black" d="M192.538,-173.28C205.274,-170.71 220.214,-167.696 229.165,-165.89"/>
<polygon fill="black" stroke="black" points="229.749,-167.557 234.304,-164.852 229.057,-164.126 229.749,-167.557"/>
<text text-anchor="middle" x="234.473" y="-172.856" font-family="monospace" font-size="14.00">M925L</text>
</g>
<!-- 20 -->
<g id="node20" class="node"><title>20</title>
<ellipse fill="palegreen" stroke="black" cx="207.157" cy="-230.184" rx="2.5" ry="2.5"/>
</g>
<!-- 1&#45;&gt;20 -->
<g id="edge13" class="edge"><title>1&#45;&gt;20</title>
<path fill="none" stroke="black" d="M183.078,-197.137C191.725,-209.004 201.881,-222.943 205.651,-228.116"/>
</g>
<!-- 22 -->
<g id="node22" class="node"><title>22</title>
<ellipse fill="palegreen" stroke="black" cx="181.882" cy="-253.274" rx="2.5" ry="2.5"/>
</g>
<!-- 1&#45;&gt;22 -->
<g id="edge14" class="edge"><title>1&#45;&gt;22</title>
<path fill="none" stroke="black" d="M173.099,-201.406C176.139,-219.359 180.037,-242.379 181.392,-250.38"/>
</g>
<!-- anon_1_6_0 -->
<g id="node56" class="node"><title>anon_1_6_0</title>
<ellipse fill="white" stroke="black" cx="244.548" cy="-207.832" rx="1" ry="1"/>
</g>
<!-- 1&#45;&gt;anon_1_6_0 -->
<g id="edge4" class="edge"><title>1&#45;&gt;anon_1_6_0</title>
<path fill="none" stroke="black" d="M191.354,-186.791C210.818,-194.49 236.946,-204.825 243.174,-207.289"/>
</g>
<!-- 2 -->
<g id="node3" class="node"><title>2</title>
<path fill="#787878" stroke="black" stroke-width="0.5" d="M-28.3275,-13.0535C-28.3275,-13.0535 0.672538,-13.0535 0.672538,-13.0535 0.672538,-14.5321 0.559458,-16.0085 0.334287,-17.4698 0.109116,-18.9312 -0.227487,-20.3732 -0.672577,-21.7832 -1.11767,-23.1932 -1.66994,-24.5671 -2.32456,-25.8928 -2.97919,-27.2186 -3.73425,-28.4924 -4.58314,-29.703 -5.43203,-30.9136 -6.37226,-32.0576 -7.39561,-33.1248 -8.41896,-34.192 -9.52244,-35.1794 -10.6964,-36.0784 -11.8703,-36.9773 -13.1113,-37.7851 -14.4084,-38.4948 -15.7056,-39.2045 -17.0551,-39.8139 -18.4452,-40.3178 -19.8353,-40.8216 -21.2619,-41.2184 -22.7125,-41.5047 -24.1631,-41.791 -25.6335,-41.9659 -27.1108,-42.0279 -28.588,-42.09 -30.0679,-42.0389 -31.5374,-41.8753 -33.0069,-41.7116 -34.4617,-41.4358 -35.8892,-41.0503 -37.3166,-40.6647 -38.7125,-40.1706 -40.0646,-39.5722 -41.4166,-38.9737 -42.721,-38.2728 -43.9661,-37.4754 -45.2113,-36.6781 -46.3937,-35.7867 -47.5029,-34.809 -48.6121,-33.8313 -49.6449,-32.7702 -50.5923,-31.6351 -50.5923,-31.6351 -28.3275,-13.0535 -28.3275,-13.0535"/>
<path fill="palegreen" stroke="black" stroke-width="0.5" d="M-28.3275,-13.0535C-28.3275,-13.0535 -50.5923,-31.6351 -50.5923,-31.6351 -51.3353,-30.7449 -52.0241,-29.8109 -52.6552,-28.8383 -53.2863,-27.8656 -53.8585,-26.856 -54.3687,-25.8148 -54.8789,-24.7737 -55.3263,-23.7028 -55.7083,-22.6081 -56.0903,-21.5134 -56.4063,-20.3968 -56.6546,-19.2642 -56.9029,-18.1316 -57.0831,-16.9852 -57.1941,-15.8311 -57.3052,-14.677 -57.3469,-13.5172 -57.3191,-12.3581 -57.2913,-11.199 -57.194,-10.0425 -57.0278,-8.89506 -56.8615,-7.74758 -56.6266,-6.61111 -56.3243,-5.49176 -56.0219,-4.37241 -55.6527,-3.2722 -55.2187,-2.19705 -54.7846,-1.1219 -54.2865,-0.0737551 -53.7269,0.94175 -53.1674,1.95726 -52.5474,2.93829 -51.8704,3.87957 -51.1934,4.82085 -50.4606,5.72068 -49.6758,6.57422 -48.8911,7.42776 -48.0559,8.23346 -47.1747,8.987 -46.2935,9.74054 -45.3679,10.4405 -44.4028,11.0833 -43.4378,11.726 -42.4351,12.3102 -41.4002,12.8329 -40.3652,13.3556 -39.2998,13.8157 -38.2097,14.2108 -37.1197,14.6059 -36.0069,14.9353 -34.8774,15.1972 -33.7479,15.459 -32.6037,15.6529 -31.451,15.7778 -30.2983,15.9027 -29.1391,15.9583 -27.9797,15.9444 -26.8204,15.9305 -25.6629,15.8471 -24.5135,15.6946 -23.3641,15.5421 -22.2249,15.3209 -21.102,15.032 -19.9791,14.7431 -18.8745,14.3871 -17.7943,13.966 -16.714,13.5449 -15.6599,13.0593 -14.6378,12.512 -13.6157,11.9647 -12.6273,11.3565 -11.6779,10.6908 -10.7286,10.0252 -9.82004,9.30317 -8.95715,8.52872 -8.09427,7.75427 -7.27861,6.92876 -6.51456,6.05665 -5.75051,5.18455 -5.03945,4.2674 -4.38521,3.31016 -3.73097,2.35291 -3.13472,1.35729 -2.59969,0.328663 -2.06465,-0.699968 -1.59179,-1.75976 -1.18364,-2.84501 -0.775491,-3.93025 -0.432794,-5.039 -0.157394,-6.16528 0.118005,-7.29156 0.325612,-8.43334 0.464307,-9.58447 0.603003,-10.7356 0.672538,-11.894 0.672538,-13.0535 0.672538,-13.0535 -28.3275,-13.0535 -28.3275,-13.0535"/>
<ellipse fill="none" stroke="black" cx="-28.3275" cy="-13.0535" rx="29" ry="29"/>
</g>
<!-- 4 -->
<g id="node5" class="node"><title>4</title>
<ellipse fill="palegreen" stroke="black" cx="10.8104" cy="81.9301" rx="9" ry="9"/>
</g>
<!-- 2&#45;&gt;4 -->
<g id="edge15" class="edge"><title>2&#45;&gt;4</title>
<path fill="none" stroke="black" d="M-17.2168,13.9109C-8.90023,34.0944 1.94019,60.4029 7.38007,73.6049"/>
</g>
<!-- 13 -->
<g id="node14" class="node"><title>13</title>
<ellipse fill="palegreen" stroke="black" cx="-47.5742" cy="43.7753" rx="2.5" ry="2.5"/>
</g>
<!-- 2&#45;&gt;13 -->
<g id="edge16" class="edge"><title>2&#45;&gt;13</title>
<path fill="none" stroke="black" d="M-37.7253,14.695C-41.3895,25.5143 -45.0974,36.4623 -46.7223,41.2601"/>
</g>
<!-- 17 -->
<g id="node17" class="node"><title>17</title>
<ellipse fill="palegreen" stroke="black" cx="-1.22536" cy="-69.4652" rx="2.5" ry="2.5"/>
</g>
<!-- 2&#45;&gt;17 -->
<g id="edge17" class="edge"><title>2&#45;&gt;17</title>
<path fill="none" stroke="black" d="M-15.7285,-39.2776C-11.6645,-47.7367 -7.48564,-56.4348 -4.66388,-62.3081"/>
<polygon fill="black" stroke="black" points="-6.09168,-63.3775 -2.34898,-67.1265 -2.93688,-61.8617 -6.09168,-63.3775"/>
<text text-anchor="middle" x="-34.0234" y="-57.0339" font-family="monospace" font-size="14.00">F1529L</text>
</g>
<!-- 19 -->
<g id="node19" class="node"><title>19</title>
<ellipse fill="palegreen" stroke="black" cx="-87.3247" cy="-56.4247" rx="2.5" ry="2.5"/>
</g>
<!-- 2&#45;&gt;19 -->
<g id="edge18" class="edge"><title>2&#45;&gt;19</title>
<path fill="none" stroke="black" d="M-51.984,-30.4443C-65.0635,-40.0596 -79.7393,-50.8483 -85.1616,-54.8345"/>
</g>
<!-- 23 -->
<g id="node23" class="node"><title>23</title>
<ellipse fill="#787878" stroke="black" cx="61.2642" cy="-59.8501" rx="8" ry="8"/>
</g>
<!-- 2&#45;&gt;23 -->
<g id="edge19" class="edge"><title>2&#45;&gt;23</title>
<path fill="none" stroke="black" d="M-2.41383,-26.589C16.8109,-36.6307 41.7149,-49.6388 53.8969,-56.0019"/>
</g>
<!-- 27 -->
<g id="node27" class="node"><title>27</title>
<ellipse fill="#787878" stroke="black" cx="-104.835" cy="-21.8149" rx="2.5" ry="2.5"/>
</g>
<!-- 2&#45;&gt;27 -->
<g id="edge24" class="edge"><title>2&#45;&gt;27</title>
<path fill="none" stroke="black" d="M-57.2517,-16.3658C-74.855,-18.3817 -95.2654,-20.719 -102.3,-21.5247"/>
</g>
<!-- 28 -->
<g id="node28" class="node"><title>28</title>
<ellipse fill="#787878" stroke="black" cx="32.4312" cy="5.97154" rx="2.5" ry="2.5"/>
</g>
<!-- 2&#45;&gt;28 -->
<g id="edge25" class="edge"><title>2&#45;&gt;28</title>
<path fill="none" stroke="black" d="M-0.437705,-4.32051C11.7912,-0.491345 24.5617,3.50742 29.8762,5.17151"/>
</g>
<!-- anon_2_24_0 -->
<g id="node57" class="node"><title>anon_2_24_0</title>
<ellipse fill="white" stroke="black" cx="-52.9227" cy="-94.7565" rx="1" ry="1"/>
</g>
<!-- 2&#45;&gt;anon_2_24_0 -->
<g id="edge20" class="edge"><title>2&#45;&gt;anon_2_24_0</title>
<path fill="none" stroke="black" d="M-36.7917,-41.171C-43.017,-61.8506 -50.6983,-87.3673 -52.5214,-93.4234"/>
</g>
<!-- anon_2_26_0 -->
<g id="node58" class="node"><title>anon_2_26_0</title>
<ellipse fill="white" stroke="black" cx="-102.581" cy="31.0489" rx="1" ry="1"/>
</g>
<!-- 2&#45;&gt;anon_2_26_0 -->
<g id="edge22" class="edge"><title>2&#45;&gt;anon_2_26_0</title>
<path fill="none" stroke="black" d="M-53.4664,1.87759C-72.3154,13.0727 -95.7823,27.0107 -101.354,30.3203"/>
</g>
<!-- 21 -->
<g id="node21" class="node"><title>21</title>
<ellipse fill="palegreen" stroke="black" cx="-17.1085" cy="129.477" rx="2.5" ry="2.5"/>
</g>
<!-- 4&#45;&gt;21 -->
<g id="edge28" class="edge"><title>4&#45;&gt;21</title>
<path fill="none" stroke="black" d="M6.2002,89.7815C-0.242728,100.754 -11.6033,120.102 -15.637,126.971"/>
</g>
<!-- anon_4_16_0 -->
<g id="node59" class="node"><title>anon_4_16_0</title>
<ellipse fill="white" stroke="black" cx="54.4031" cy="110.369" rx="1" ry="1"/>
</g>
<!-- 4&#45;&gt;anon_4_16_0 -->
<g id="edge26" class="edge"><title>4&#45;&gt;anon_4_16_0</title>
<path fill="none" stroke="black" d="M18.4037,86.8838C29.3321,94.0132 48.6978,106.647 53.3685,109.694"/>
</g>
<!-- 6 -->
<g id="node7" class="node"><title>6</title>
<ellipse fill="palegreen" stroke="black" cx="285.203" cy="-224.703" rx="2.5" ry="2.5"/>
</g>
<!-- 8 -->
<g id="node9" class="node"><title>8</title>
<ellipse fill="palegreen" stroke="black" cx="139.859" cy="-57.0114" rx="3.5" ry="3.5"/>
</g>
<!-- 8&#45;&gt;9 -->
<g id="edge29" class="edge"><title>8&#45;&gt;9</title>
<path fill="none" stroke="black" d="M142.592,-59.6357C148.492,-65.3025 162.487,-78.7449 169.893,-85.8581"/>
</g>
<!-- 8&#45;&gt;12 -->
<g id="edge54" class="edge"><title>8&#45;&gt;12</title>
<path fill="none" stroke="black" stroke-dasharray="5,2" d="M139.335,-60.7337C138.08,-69.645 134.917,-92.1131 133.683,-100.873"/>
</g>
<!-- 16 -->
<g id="node16" class="node"><title>16</title>
<ellipse fill="palegreen" stroke="black" cx="81.9304" cy="141.824" rx="2.5" ry="2.5"/>
</g>
<!-- 25 -->
<g id="node25" class="node"><title>25</title>
<ellipse fill="#787878" stroke="black" cx="112.749" cy="-51.7534" rx="2.5" ry="2.5"/>
</g>
<!-- 23&#45;&gt;25 -->
<g id="edge30" class="edge"><title>23&#45;&gt;25</title>
<path fill="none" stroke="black" d="M69.3087,-58.585C81.0737,-56.7347 102.398,-53.3812 109.981,-52.1887"/>
</g>
<!-- 29 -->
<g id="node29" class="node"><title>29</title>
<ellipse fill="#787878" stroke="black" cx="80.1242" cy="-109.402" rx="2.5" ry="2.5"/>
</g>
<!-- 23&#45;&gt;29 -->
<g id="edge31" class="edge"><title>23&#45;&gt;29</title>
<path fill="none" stroke="black" d="M64.2111,-67.5925C68.5209,-78.9159 76.3324,-99.4394 79.1102,-106.738"/>
</g>
<!-- 24 -->
<g id="node24" class="node"><title>24</title>
<ellipse fill="#787878" stroke="black" cx="-70.8228" cy="-134.168" rx="2.5" ry="2.5"/>
</g>
<!-- 26 -->
<g id="node26" class="node"><title>26</title>
<ellipse fill="#787878" stroke="black" cx="-141.99" cy="49.291" rx="2.5" ry="2.5"/>
</g>
<!-- 30 -->
<g id="node30" class="node"><title>30</title>
<ellipse fill="#1874cd" stroke="black" cx="-142.09" cy="107.007" rx="14.5" ry="14.5"/>
</g>
<!-- 40 -->
<g id="node38" class="node"><title>40</title>
<ellipse fill="#1874cd" stroke="black" cx="-86.0626" cy="98.3032" rx="2.5" ry="2.5"/>
</g>
<!-- 30&#45;&gt;40 -->
<g id="edge32" class="edge"><title>30&#45;&gt;40</title>
<path fill="none" stroke="black" d="M-127.662,104.766C-114.433,102.711 -95.8718,99.8271 -88.877,98.7404"/>
</g>
<!-- 43 -->
<g id="node41" class="node"><title>43</title>
<ellipse fill="#1874cd" stroke="black" cx="-162.356" cy="159.938" rx="2.5" ry="2.5"/>
</g>
<!-- 30&#45;&gt;43 -->
<g id="edge33" class="edge"><title>30&#45;&gt;43</title>
<path fill="none" stroke="black" d="M-147.309,120.638C-152.094,133.136 -158.808,150.671 -161.338,157.28"/>
</g>
<!-- 47 -->
<g id="node44" class="node"><title>47</title>
<ellipse fill="#1874cd" stroke="black" cx="-177.491" cy="62.751" rx="2.5" ry="2.5"/>
</g>
<!-- 30&#45;&gt;47 -->
<g id="edge34" class="edge"><title>30&#45;&gt;47</title>
<path fill="none" stroke="black" d="M-151.391,95.3796C-159.75,84.9306 -171.361,70.4153 -175.733,64.9495"/>
</g>
<!-- 32 -->
<g id="node31" class="node"><title>32</title>
<ellipse fill="#1874cd" stroke="black" cx="-75.0964" cy="-246.863" rx="12" ry="12"/>
</g>
<!-- 38 -->
<g id="node36" class="node"><title>38</title>
<ellipse fill="#1874cd" stroke="black" cx="-117.822" cy="-205.908" rx="2.5" ry="2.5"/>
</g>
<!-- 32&#45;&gt;38 -->
<g id="edge35" class="edge"><title>32&#45;&gt;38</title>
<path fill="none" stroke="black" d="M-84.1573,-238.178C-94.3473,-228.41 -110.202,-213.212 -115.79,-207.856"/>
</g>
<!-- 39 -->
<g id="node37" class="node"><title>39</title>
<ellipse fill="#1874cd" stroke="black" cx="-68.6384" cy="-303.629" rx="2.5" ry="2.5"/>
</g>
<!-- 32&#45;&gt;39 -->
<g id="edge36" class="edge"><title>32&#45;&gt;39</title>
<path fill="none" stroke="black" d="M-73.7269,-258.902C-72.1866,-272.44 -69.7901,-293.505 -68.9456,-300.929"/>
</g>
<!-- 41 -->
<g id="node39" class="node"><title>41</title>
<ellipse fill="#1874cd" stroke="black" cx="-14.8184" cy="-237.707" rx="3.5" ry="3.5"/>
</g>
<!-- 32&#45;&gt;41 -->
<g id="edge37" class="edge"><title>32&#45;&gt;41</title>
<path fill="none" stroke="black" d="M-63.1874,-245.054C-51.4919,-243.278 -33.9298,-240.61 -23.4968,-239.025"/>
<polygon fill="black" stroke="black" points="-23.1971,-240.75 -18.5167,-238.269 -23.7228,-237.289 -23.1971,-240.75"/>
<text text-anchor="middle" x="-15.8614" y="-245.463" font-family="monospace" font-size="14.00">S2076T</text>
</g>
<!-- 44 -->
<g id="node42" class="node"><title>44</title>
<ellipse fill="#1874cd" stroke="black" cx="-61.3912" cy="-188.439" rx="4.5" ry="4.5"/>
</g>
<!-- 32&#45;&gt;44 -->
<g id="edge38" class="edge"><title>32&#45;&gt;44</title>
<path fill="none" stroke="black" d="M-72.323,-235.04C-69.2881,-222.103 -64.5751,-202.012 -62.4702,-193.039"/>
</g>
<!-- 45 -->
<g id="node43" class="node"><title>45</title>
<ellipse fill="#1874cd" stroke="black" cx="-123.33" cy="-278.163" rx="2.5" ry="2.5"/>
</g>
<!-- 32&#45;&gt;45 -->
<g id="edge39" class="edge"><title>32&#45;&gt;45</title>
<path fill="none" stroke="black" d="M-85.3255,-253.501C-94.6723,-259.566 -108.241,-268.371 -116.384,-273.655"/>
<polygon fill="black" stroke="black" points="-117.794,-272.484 -121.036,-276.674 -115.889,-275.42 -117.794,-272.484"/>
<text text-anchor="middle" x="-127.87" y="-253.686" font-family="monospace" font-size="14.00">L1617F</text>
</g>
<!-- 33 -->
<g id="node32" class="node"><title>33</title>
<ellipse fill="#1874cd" stroke="black" cx="38.6744" cy="29.7627" rx="2.5" ry="2.5"/>
</g>
<!-- anon_33_36_0 -->
<g id="node60" class="node"><title>anon_33_36_0</title>
<ellipse fill="white" stroke="black" cx="78.0862" cy="35.1074" rx="1" ry="1"/>
</g>
<!-- 33&#45;&gt;anon_33_36_0 -->
<g id="edge40" class="edge"><title>33&#45;&gt;anon_33_36_0</title>
<path fill="none" stroke="black" d="M41.2603,30.1134C48.9324,31.1538 71.3732,34.197 76.8635,34.9416"/>
</g>
<!-- 35 -->
<g id="node33" class="node"><title>35</title>
<ellipse fill="#1874cd" stroke="black" cx="-100.926" cy="-164.742" rx="2.5" ry="2.5"/>
</g>
<!-- 35&#45;&gt;38 -->
<g id="edge42" class="edge"><title>35&#45;&gt;38</title>
<path fill="none" stroke="black" d="M-102.034,-167.443C-105.147,-175.027 -113.931,-196.429 -116.859,-203.562"/>
</g>
<!-- 35&#45;&gt;44 -->
<g id="edge55" class="edge"><title>35&#45;&gt;44</title>
<path fill="none" stroke="black" stroke-dasharray="5,2" d="M-98.3318,-166.297C-91.5978,-170.333 -73.5213,-181.168 -65.4179,-186.025"/>
</g>
<!-- 36 -->
<g id="node34" class="node"><title>36</title>
<ellipse fill="#1874cd" stroke="black" cx="117.239" cy="28.1299" rx="2.5" ry="2.5"/>
</g>
<!-- 37 -->
<g id="node35" class="node"><title>37</title>
<path fill="olivedrab" stroke="black" stroke-width="0.5" d="M213.157,76.6138C213.157,76.6138 231.657,76.6138 231.657,76.6138 231.657,75.5818 231.571,74.5515 231.399,73.5339 231.227,72.5163 230.97,71.5148 230.632,70.54 230.293,69.5651 229.873,68.6203 229.376,67.7155 228.88,66.8107 228.309,65.949 227.669,65.1395 227.029,64.3299 226.322,63.5753 225.556,62.8837 224.79,62.192 223.967,61.5656 223.097,61.0111 222.227,60.4566 221.311,59.9759 220.361,59.574 219.41,59.1721 218.428,58.8505 217.423,58.6125 216.419,58.3745 215.397,58.2209 214.367,58.1534 213.337,58.0859 212.303,58.1047 211.277,58.2096 210.25,58.3145 209.234,58.5051 208.239,58.7795 207.244,59.0538 206.274,59.411 205.339,59.8471 204.403,60.2833 203.506,60.7969 202.656,61.3827 201.807,61.9685 201.008,62.6244 200.267,63.3435 199.527,64.0625 198.848,64.8423 198.238,65.6746 197.628,66.5069 197.088,67.3888 196.625,68.311 196.162,69.2333 195.776,70.1927 195.473,71.1792 195.17,72.1657 194.95,73.1759 194.815,74.1991 194.681,75.2223 194.632,76.255 194.669,77.2864 194.707,78.3177 194.831,79.3441 195.039,80.3548 195.248,81.3656 195.541,82.3571 195.915,83.3189 196.289,84.2808 196.743,85.2097 197.272,86.0959 197.801,86.982 198.403,87.8224 199.072,88.6081 199.741,89.3939 200.475,90.1223 201.265,90.7856 202.056,91.449 202.901,92.0451 203.791,92.5676 204.681,93.0901 205.613,93.5372 206.578,93.9043 207.542,94.2713 208.536,94.557 209.548,94.7583 210.56,94.9597 211.587,95.076 212.619,95.106 213.651,95.136 214.683,95.0796 215.705,94.9375 216.727,94.7954 217.736,94.5679 218.72,94.2576 219.704,93.9472 220.661,93.5551 221.58,93.0852 222.499,92.6153 223.377,92.0694 224.204,91.4531 224.204,91.4531 213.157,76.6138 213.157,76.6138"/>
<path fill="#1874cd" stroke="black" stroke-width="0.5" d="M213.157,76.6138C213.157,76.6138 224.204,91.4531 224.204,91.4531 224.78,91.0245 225.33,90.5628 225.853,90.0702 226.375,89.5777 226.868,89.0552 227.329,88.5054 227.79,87.9556 228.219,87.3794 228.614,86.7797 229.008,86.1801 229.367,85.558 229.689,84.9166 230.011,84.2752 230.296,83.6156 230.541,82.9412 230.787,82.2667 230.993,81.5786 231.158,80.8802 231.324,80.1818 231.449,79.4744 231.532,78.7615 231.615,78.0487 231.657,77.3315 231.657,76.6138 231.657,76.6138 213.157,76.6138 213.157,76.6138"/>
<ellipse fill="none" stroke="black" cx="213.157" cy="76.6138" rx="18.5" ry="18.5"/>
</g>
<!-- 50 -->
<g id="node47" class="node"><title>50</title>
<ellipse fill="olivedrab" stroke="black" cx="226.249" cy="3.39775" rx="6" ry="6"/>
</g>
<!-- 37&#45;&gt;50 -->
<g id="edge43" class="edge"><title>37&#45;&gt;50</title>
<path fill="none" stroke="black" d="M216.461,58.1383C219.309,42.21 223.253,20.1544 225.147,9.56128"/>
</g>
<!-- 54 -->
<g id="node50" class="node"><title>54</title>
<ellipse fill="olivedrab" stroke="black" cx="278.421" cy="65.9185" rx="2.5" ry="2.5"/>
</g>
<!-- 37&#45;&gt;54 -->
<g id="edge44" class="edge"><title>37&#45;&gt;54</title>
<path fill="none" stroke="black" d="M231.685,73.5776C247.362,71.0084 268.417,67.558 275.762,66.3544"/>
</g>
<!-- 55 -->
<g id="node51" class="node"><title>55</title>
<ellipse fill="olivedrab" stroke="black" cx="165.988" cy="21.4554" rx="7.5" ry="7.5"/>
</g>
<!-- 37&#45;&gt;55 -->
<g id="edge45" class="edge"><title>37&#45;&gt;55</title>
<path fill="none" stroke="black" d="M201.01,62.4091C191.292,51.0456 178.157,35.685 171.054,27.3796"/>
</g>
<!-- 56 -->
<g id="node52" class="node"><title>56</title>
<ellipse fill="olivedrab" stroke="black" cx="146.045" cy="85.0681" rx="2.5" ry="2.5"/>
</g>
<!-- 37&#45;&gt;56 -->
<g id="edge46" class="edge"><title>37&#45;&gt;56</title>
<path fill="none" stroke="black" d="M194.462,78.9688C178.328,81.0013 156.449,83.7575 148.811,84.7196"/>
</g>
<!-- 57 -->
<g id="node53" class="node"><title>57</title>
<ellipse fill="olivedrab" stroke="black" cx="268.755" cy="114.398" rx="2.5" ry="2.5"/>
</g>
<!-- 37&#45;&gt;57 -->
<g id="edge47" class="edge"><title>37&#45;&gt;57</title>
<path fill="none" stroke="black" d="M228.644,87.1388C242.011,96.2225 260.136,108.54 266.464,112.84"/>
</g>
<!-- 59 -->
<g id="node54" class="node"><title>59</title>
<ellipse fill="olivedrab" stroke="black" cx="171.953" cy="128.896" rx="2.5" ry="2.5"/>
</g>
<!-- 37&#45;&gt;59 -->
<g id="edge48" class="edge"><title>37&#45;&gt;59</title>
<path fill="none" stroke="black" d="M201.679,91.1772C191.774,103.746 178.341,120.791 173.652,126.741"/>
</g>
<!-- 60 -->
<g id="node55" class="node"><title>60</title>
<ellipse fill="olivedrab" stroke="black" cx="223.656" cy="141.628" rx="2.5" ry="2.5"/>
</g>
<!-- 37&#45;&gt;60 -->
<g id="edge49" class="edge"><title>37&#45;&gt;60</title>
<path fill="none" stroke="black" d="M216.138,95.0703C218.206,107.881 220.858,124.297 222.396,133.822"/>
<polygon fill="black" stroke="black" points="224.159,133.763 223.228,138.978 220.704,134.321 224.159,133.763"/>
<text text-anchor="middle" x="198.674" y="113.166" font-family="monospace" font-size="14.00">K251R</text>
</g>
<!-- 48 -->
<g id="node45" class="node"><title>48</title>
<ellipse fill="#1874cd" stroke="black" cx="-13.9761" cy="-189.071" rx="3.5" ry="3.5"/>
</g>
<!-- 41&#45;&gt;48 -->
<g id="edge50" class="edge"><title>41&#45;&gt;48</title>
<path fill="none" stroke="black" d="M-14.7523,-233.89C-14.5941,-224.754 -14.1951,-201.718 -14.0396,-192.736"/>
</g>
<!-- 49 -->
<g id="node46" class="node"><title>49</title>
<ellipse fill="#1874cd" stroke="black" cx="26.9976" cy="-255.479" rx="2.5" ry="2.5"/>
</g>
<!-- 41&#45;&gt;49 -->
<g id="edge51" class="edge"><title>41&#45;&gt;49</title>
<path fill="none" stroke="black" d="M-11.5372,-239.101C-3.52775,-242.506 16.9054,-251.19 24.2862,-254.327"/>
</g>
<!-- 42 -->
<g id="node40" class="node"><title>42</title>
<ellipse fill="#1874cd" stroke="black" cx="75" cy="69" rx="3.5" ry="3.5"/>
</g>
<!-- 44&#45;&gt;48 -->
<g id="edge56" class="edge"><title>44&#45;&gt;48</title>
<path fill="none" stroke="black" stroke-dasharray="5,2" d="M-56.6715,-188.502C-48.7608,-188.607 -32.71,-188.821 -22.6995,-188.954"/>
<polygon fill="black" stroke="black" points="-22.6335,-190.705 -17.6106,-189.022 -22.5868,-187.206 -22.6335,-190.705"/>
<text text-anchor="middle" x="-11.9397" y="-177.565" font-family="monospace" font-size="14.00">S2076T</text>
</g>
<!-- 51 -->
<g id="node48" class="node"><title>51</title>
<ellipse fill="olivedrab" stroke="black" cx="262.092" cy="-32.1682" rx="3.5" ry="3.5"/>
</g>
<!-- 50&#45;&gt;51 -->
<g id="edge52" class="edge"><title>50&#45;&gt;51</title>
<path fill="none" stroke="black" d="M230.644,-0.963334C238.122,-8.38297 253.11,-23.2554 259.31,-29.407"/>
</g>
<!-- 53 -->
<g id="node49" class="node"><title>53</title>
<ellipse fill="olivedrab" stroke="black" cx="183.682" cy="-25.2069" rx="3.5" ry="3.5"/>
</g>
<!-- 50&#45;&gt;53 -->
<g id="edge53" class="edge"><title>50&#45;&gt;53</title>
<path fill="none" stroke="black" d="M221.03,-0.109739C212.15,-6.07713 194.35,-18.0385 186.987,-22.9861"/>
</g>
<!-- 53&#45;&gt;55 -->
<g id="edge57" class="edge"><title>53&#45;&gt;55</title>
<path fill="none" stroke="black" stroke-dasharray="5,2" d="M182.41,-21.851C179.557,-14.3281 172.597,4.02572 168.716,14.2603"/>
</g>
<!-- anon_1_6_0&#45;&gt;6 -->
<g id="edge5" class="edge"><title>anon_1_6_0&#45;&gt;6</title>
<path fill="none" stroke="black" d="M245.553,-208.249C250.737,-210.4 274.526,-220.272 282.551,-223.602"/>
</g>
<!-- anon_2_24_0&#45;&gt;24 -->
<g id="edge21" class="edge"><title>anon_2_24_0&#45;&gt;24</title>
<path fill="none" stroke="black" d="M-53.3652,-95.7308C-55.6479,-100.757 -66.1222,-123.818 -69.6553,-131.597"/>
</g>
<!-- anon_2_26_0&#45;&gt;26 -->
<g id="edge23" class="edge"><title>anon_2_26_0&#45;&gt;26</title>
<path fill="none" stroke="black" d="M-103.555,31.4999C-108.581,33.8262 -131.641,44.5005 -139.42,48.1011"/>
</g>
<!-- anon_4_16_0&#45;&gt;16 -->
<g id="edge27" class="edge"><title>anon_4_16_0&#45;&gt;16</title>
<path fill="none" stroke="black" d="M55.0835,111.147C58.5939,115.158 74.7016,133.564 80.1349,139.773"/>
</g>
<!-- anon_33_36_0&#45;&gt;36 -->
<g id="edge41" class="edge"><title>anon_33_36_0&#45;&gt;36</title>
<path fill="none" stroke="black" d="M79.3889,34.8753C85.0149,33.8726 107.28,29.9047 114.768,28.5703"/>
</g>
</g>
</svg>
