<?xml version="1.0" encoding="UTF-8" standalone="no"?>
<!DOCTYPE svg PUBLIC "-//W3C//DTD SVG 1.1//EN"
 "http://www.w3.org/Graphics/SVG/1.1/DTD/svg11.dtd">
<!-- Generated by graphviz version 2.38.0 (20140413.2041)
 -->
<!-- Title: %3 Pages: 1 -->
<svg width="476pt" height="477pt"
 viewBox="0.00 0.00 475.69 476.57" xmlns="http://www.w3.org/2000/svg" xmlns:xlink="http://www.w3.org/1999/xlink">
<g id="graph0" class="graph" transform="scale(1 1) rotate(0) translate(183.991 310.129)">
<title>%3</title>
<polygon fill="white" stroke="none" points="-183.991,166.438 -183.991,-310.129 291.703,-310.129 291.703,166.438 -183.991,166.438"/>
<!-- 0 -->
<g id="node1" class="node"><title>0</title>
<ellipse fill="palegreen" stroke="black" cx="92.4955" cy="-170.776" rx="2.5" ry="2.5"/>
</g>
<!-- 1 -->
<g id="node2" class="node"><title>1</title>
<ellipse fill="palegreen" stroke="black" cx="169.136" cy="-178.003" rx="23.5" ry="23.5"/>
</g>
<!-- 0&#45;&gt;1 -->
<g id="edge1" class="edge"><title>0&#45;&gt;1</title>
<path fill="none" stroke="black" d="M95.0455,-171.017C102.837,-171.751 126.935,-174.023 145.555,-175.779"/>
</g>
<!-- 3 -->
<g id="node4" class="node"><title>3</title>
<ellipse fill="palegreen" stroke="black" cx="195.277" cy="-129.325" rx="2.5" ry="2.5"/>
</g>
<!-- 1&#45;&gt;3 -->
<g id="edge2" class="edge"><title>1&#45;&gt;3</title>
<path fill="none" stroke="black" d="M180.374,-157.076C185.688,-147.181 191.414,-136.519 193.945,-131.806"/>
</g>
<!-- 5 -->
<g id="node6" class="node"><title>5</title>
<ellipse fill="palegreen" stroke="black" cx="147.396" cy="-248.677" rx="2.5" ry="2.5"/>
</g>
<!-- 1&#45;&gt;5 -->
<g id="edge3" class="edge"><title>1&#45;&gt;5</title>
<path fill="none" stroke="black" d="M162.137,-200.753C156.974,-217.54 150.469,-238.685 148.212,-246.025"/>
</g>
<!-- 7 -->
<g id="node8" class="node"><title>7</title>
<ellipse fill="palegreen" stroke="black" cx="115.963" cy="-234.582" rx="3.5" ry="3.5"/>
</g>
<!-- 1&#45;&gt;7 -->
<g id="edge6" class="edge"><title>1&#45;&gt;7</title>
<path fill="none" stroke="black" d="M152.893,-195.286C142.379,-206.473 129.308,-220.381 121.872,-228.294"/>
<polygon fill="black" stroke="black" points="120.521,-227.176 118.372,-232.018 123.072,-229.573 120.521,-227.176"/>
<text text-anchor="middle" x="114.713" y="-217.367" font-family="monospace" font-size="14.00">I492N</text>
</g>
<!-- 9 -->
<g id="node10" class="node"><title>9</title>
<ellipse fill="palegreen" stroke="black" cx="174.68" cy="-90.4558" rx="6" ry="6"/>
</g>
<!-- 1&#45;&gt;9 -->
<g id="edge7" class="edge"><title>1&#45;&gt;9</title>
<path fill="none" stroke="black" d="M170.621,-154.542C171.866,-134.89 173.555,-108.219 174.3,-96.4538"/>
</g>
<!-- 10 -->
<g id="node11" class="node"><title>10</title>
<ellipse fill="palegreen" stroke="black" cx="111.199" cy="-143.379" rx="2.5" ry="2.5"/>
</g>
<!-- 1&#45;&gt;10 -->
<g id="edge8" class="edge"><title>1&#45;&gt;10</title>
<path fill="none" stroke="black" d="M148.872,-165.893C135.559,-157.937 119.541,-148.364 113.583,-144.804"/>
</g>
<!-- 11 -->
<g id="node12" class="node"><title>11</title>
<ellipse fill="palegreen" stroke="black" cx="232.779" cy="-126.836" rx="2.5" ry="2.5"/>
</g>
<!-- 1&#45;&gt;11 -->
<g id="edge9" class="edge"><title>1&#45;&gt;11</title>
<path fill="none" stroke="black" d="M187.544,-163.203C203.11,-150.689 223.917,-133.961 230.609,-128.58"/>
</g>
<!-- 12 -->
<g id="node13" class="node"><title>12</title>
<ellipse fill="palegreen" stroke="black" cx="133.179" cy="-104.448" rx="3.5" ry="3.5"/>
</g>
<!-- 1&#45;&gt;12 -->
<g id="edge10" class="edge"><title>1&#45;&gt;12</title>
<path fill="none" stroke="black" d="M158.736,-156.728C150.19,-139.247 138.85,-116.047 134.745,-107.652"/>
</g>
<!-- 14 -->
<g id="node15" class="node"><title>14</title>
<ellipse fill="palegreen" stroke="black" cx="100.109" cy="-204.234" rx="2.5" ry="2.5"/>
</g>
<!-- 1&#45;&gt;14 -->
<g id="edge11" class="edge"><title>1&#45;&gt;14</title>
<path fill="none" stroke="black" d="M146.915,-186.447C130.52,-192.677 109.867,-200.525 102.699,-203.25"/>
</g>
<!-- 18 -->
<g id="node18" class="node"><title>18</title>
<ellipse fill="palegreen" stroke="black" cx="237.137" cy="-164.281" rx="2.5" ry="2.5"/>
</g>
<!-- 1&#45;&gt;18 -->
<g id="edge12" class="edge"><title>1&#45;&gt;18</title>
<path fill="none" stroke="black" d="M192.538,-173.28C205.274,-170.71 220.214,-167.696 229.165,-165.89"/>
<polygon fill="black" stroke="black" points="229.749,-167.557 234.304,-164.852 229.057,-164.126 229.749,-167.557"/>
<text text-anchor="middle" x="234.473" y="-172.856" font-family="monospace" font-size="14.00">M925L</text>
</g>
<!-- 20 -->
<g id="node20" class="node"><title>20</title>
<ellipse fill="palegreen" stroke="black" cx="207.157" cy="-230.184" rx="2.5" ry="2.5"/>
</g>
<!-- 1&#45;&gt;20 -->
<g id="edge13" class="edge"><title>1&#45;&gt;20</title>
<path fill="none" stroke="black" d="M183.078,-197.137C191.725,-209.004 201.881,-222.943 205.651,-228.116"/>
</g>
<!-- 22 -->
<g id="node22" class="node"><title>22</title>
<ellipse fill="palegreen" stroke="black" cx="181.882" cy="-253.274" rx="2.5" ry="2.5"/>
</g>
<!-- 1&#45;&gt;22 -->
<g id="edge14" class="edge"><title>1&#45;&gt;22</title>
<path fill="none" stroke="black" d="M173.099,-201.406C176.139,-219.359 180.037,-242.379 181.392,-250.38"/>
</g>
<!-- anon_1_6_0 -->
<g id="node56" class="node"><title>anon_1_6_0</title>
<ellipse fill="white" stroke="black" cx="244.548" cy="-207.832" rx="1" ry="1"/>
</g>
<!-- 1&#45;&gt;anon_1_6_0 -->
<g id="edge4" class="edge"><title>1&#45;&gt;anon_1_6_0</title>
<path fill="none" stroke="black" d="M191.354,-186.791C210.818,-194.49 236.946,-204.825 243.174,-207.289"/>
</g>
<!-- 2 -->
<g id="node3" class="node"><title>2</title>
<path fill="palegreen" stroke="black" stroke-width="0.5" d="M-28.3275,-13.0535C-28.3275,-13.0535 0.672538,-13.0535 0.672538,-13.0535 0.672538,-14.2129 0.603003,-15.3714 0.464307,-16.5225 0.325612,-17.6736 0.118005,-18.8154 -0.157394,-19.9417 -0.432794,-21.068 -0.775491,-22.1767 -1.18364,-23.2619 -1.59179,-24.3472 -2.06465,-25.407 -2.59969,-26.4356 -3.13472,-27.4643 -3.73097,-28.4599 -4.38521,-29.4171 -5.03945,-30.3744 -5.75051,-31.2915 -6.51456,-32.1636 -7.27861,-33.0357 -8.09427,-33.8612 -8.95715,-34.6357 -9.82004,-35.4101 -10.7286,-36.1321 -11.6779,-36.7978 -12.6273,-37.4635 -13.6157,-38.0716 -14.6378,-38.6189 -15.6599,-39.1663 -16.714,-39.6518 -17.7943,-40.0729 -18.8745,-40.4941 -19.9791,-40.85 -21.102,-41.1389 -22.2249,-41.4278 -23.3641,-41.6491 -24.5135,-41.8016 -25.6629,-41.9541 -26.8204,-42.0375 -27.9797,-42.0514 -29.1391,-42.0653 -30.2983,-42.0097 -31.451,-41.8848 -32.6037,-41.7599 -33.7479,-41.566 -34.8774,-41.3041 -36.0069,-41.0422 -37.1197,-40.7129 -38.2097,-40.3178 -39.2998,-39.9226 -40.3652,-39.4625 -41.4002,-38.9399 -42.4351,-38.4172 -43.4378,-37.8329 -44.4028,-37.1902 -45.3679,-36.5475 -46.2935,-35.8475 -47.1747,-35.094 -48.0559,-34.3404 -48.8911,-33.5347 -49.6758,-32.6812 -50.4606,-31.8276 -51.1934,-30.9278 -51.8704,-29.9865 -52.5474,-29.0452 -53.1674,-28.0642 -53.7269,-27.0487 -54.2865,-26.0332 -54.7846,-24.9851 -55.2187,-23.9099 -55.6527,-22.8348 -56.0219,-21.7345 -56.3243,-20.6152 -56.6266,-19.4958 -56.8615,-18.3594 -57.0278,-17.2119 -57.194,-16.0644 -57.2913,-14.908 -57.3191,-13.7489 -57.3469,-12.5898 -57.3052,-11.43 -57.1941,-10.2759 -57.0831,-9.12175 -56.9029,-7.97532 -56.6546,-6.84276 -56.4063,-5.7102 -56.0903,-4.59356 -55.7083,-3.49883 -55.3263,-2.40411 -54.8789,-1.33329 -54.3687,-0.292121 -53.8585,0.749044 -53.2863,1.75867 -52.6552,2.73133 -52.0241,3.70399 -51.3353,4.63792 -50.5923,5.5281 -50.5923,5.5281 -28.3275,-13.0535 -28.3275,-13.0535"/>
<path fill="#787878" stroke="black" stroke-width="0.5" d="M-28.3275,-13.0535C-28.3275,-13.0535 -50.5923,5.5281 -50.5923,5.5281 -49.6449,6.66329 -48.6121,7.72437 -47.5029,8.70204 -46.3937,9.67972 -45.2113,10.5711 -43.9661,11.3685 -42.721,12.1658 -41.4166,12.8668 -40.0646,13.4652 -38.7125,14.0636 -37.3166,14.5578 -35.8892,14.9433 -34.4617,15.3289 -33.0069,15.6047 -31.5374,15.7683 -30.0679,15.932 -28.588,15.983 -27.1108,15.921 -25.6335,15.859 -24.1631,15.684 -22.7125,15.3977 -21.2619,15.1115 -19.8353,14.7147 -18.4452,14.2108 -17.0551,13.7069 -15.7056,13.0975 -14.4084,12.3878 -13.1113,11.6782 -11.8703,10.8703 -10.6964,9.9714 -9.52244,9.07246 -8.41896,8.08506 -7.39561,7.01784 -6.37226,5.95061 -5.43203,4.80668 -4.58314,3.59606 -3.73425,2.38544 -2.97919,1.11166 -2.32456,-0.214113 -1.66994,-1.53989 -1.11767,-2.91379 -0.672577,-4.3238 -0.227487,-5.7338 0.109116,-7.17579 0.334287,-8.63713 0.559458,-10.0985 0.672538,-11.5749 0.672538,-13.0535 0.672538,-13.0535 -28.3275,-13.0535 -28.3275,-13.0535"/>
<ellipse fill="none" stroke="black" cx="-28.3275" cy="-13.0535" rx="29" ry="29"/>
</g>
<!-- 4 -->
<g id="node5" class="node"><title>4</title>
<ellipse fill="palegreen" stroke="black" cx="10.8104" cy="81.9301" rx="9" ry="9"/>
</g>
<!-- 2&#45;&gt;4 -->
<g id="edge15" class="edge"><title>2&#45;&gt;4</title>
<path fill="none" stroke="black" d="M-17.2168,13.9109C-8.90023,34.0944 1.94019,60.4029 7.38007,73.6049"/>
</g>
<!-- 13 -->
<g id="node14" class="node"><title>13</title>
<ellipse fill="palegreen" stroke="black" cx="-47.5742" cy="43.7753" rx="2.5" ry="2.5"/>
</g>
<!-- 2&#45;&gt;13 -->
<g id="edge16" class="edge"><title>2&#45;&gt;13</title>
<path fill="none" stroke="black" d="M-37.7253,14.695C-41.3895,25.5143 -45.0974,36.4623 -46.7223,41.2601"/>
</g>
<!-- 17 -->
<g id="node17" class="node"><title>17</title>
<ellipse fill="palegreen" stroke="black" cx="-1.22536" cy="-69.4652" rx="2.5" ry="2.5"/>
</g>
<!-- 2&#45;&gt;17 -->
<g id="edge17" class="edge"><title>2&#45;&gt;17</title>
<path fill="none" stroke="black" d="M-15.7285,-39.2776C-11.6645,-47.7367 -7.48564,-56.4348 -4.66388,-62.3081"/>
<polygon fill="black" stroke="black" points="-6.09168,-63.3775 -2.34898,-67.1265 -2.93688,-61.8617 -6.09168,-63.3775"/>
<text text-anchor="middle" x="-34.0234" y="-57.0339" font-family="monospace" font-size="14.00">F1529L</text>
</g>
<!-- 19 -->
<g id="node19" class="node"><title>19</title>
<ellipse fill="palegreen" stroke="black" cx="-87.3247" cy="-56.4247" rx="2.5" ry="2.5"/>
</g>
<!-- 2&#45;&gt;19 -->
<g id="edge18" class="edge"><title>2&#45;&gt;19</title>
<path fill="none" stroke="black" d="M-51.984,-30.4443C-65.0635,-40.0596 -79.7393,-50.8483 -85.1616,-54.8345"/>
</g>
<!-- 23 -->
<g id="node23" class="node"><title>23</title>
<ellipse fill="#787878" stroke="black" cx="61.2642" cy="-59.8501" rx="8" ry="8"/>
</g>
<!-- 2&#45;&gt;23 -->
<g id="edge19" class="edge"><title>2&#45;&gt;23</title>
<path fill="none" stroke="black" d="M-2.41383,-26.589C16.8109,-36.6307 41.7149,-49.6388 53.8969,-56.0019"/>
</g>
<!-- 27 -->
<g id="node27" class="node"><title>27</title>
<ellipse fill="#787878" stroke="black" cx="-104.835" cy="-21.8149" rx="2.5" ry="2.5"/>
</g>
<!-- 2&#45;&gt;27 -->
<g id="edge24" class="edge"><title>2&#45;&gt;27</title>
<path fill="none" stroke="black" d="M-57.2517,-16.3658C-74.855,-18.3817 -95.2654,-20.719 -102.3,-21.5247"/>
</g>
<!-- 28 -->
<g id="node28" class="node"><title>28</title>
<ellipse fill="#787878" stroke="black" cx="32.4312" cy="5.97154" rx="2.5" ry="2.5"/>
</g>
<!-- 2&#45;&gt;28 -->
<g id="edge25" class="edge"><title>2&#45;&gt;28</title>
<path fill="none" stroke="black" d="M-0.437705,-4.32051C11.7912,-0.491345 24.5617,3.50742 29.8762,5.17151"/>
</g>
<!-- anon_2_24_0 -->
<g id="node57" class="node"><title>anon_2_24_0</title>
<ellipse fill="white" stroke="black" cx="-52.9227" cy="-94.7565" rx="1" ry="1"/>
</g>
<!-- 2&#45;&gt;anon_2_24_0 -->
<g id="edge20" class="edge"><title>2&#45;&gt;anon_2_24_0</title>
<path fill="none" stroke="black" d="M-36.7917,-41.171C-43.017,-61.8506 -50.6983,-87.3673 -52.5214,-93.4234"/>
</g>
<!-- anon_2_26_0 -->
<g id="node58" class="node"><title>anon_2_26_0</title>
<ellipse fill="white" stroke="black" cx="-102.581" cy="31.0489" rx="1" ry="1"/>
</g>
<!-- 2&#45;&gt;anon_2_26_0 -->
<g id="edge22" class="edge"><title>2&#45;&gt;anon_2_26_0</title>
<path fill="none" stroke="black" d="M-53.4664,1.87759C-72.3154,13.0727 -95.7823,27.0107 -101.354,30.3203"/>
</g>
<!-- 21 -->
<g id="node21" class="node"><title>21</title>
<ellipse fill="palegreen" stroke="black" cx="-17.1085" cy="129.477" rx="2.5" ry="2.5"/>
</g>
<!-- 4&#45;&gt;21 -->
<g id="edge28" class="edge"><title>4&#45;&gt;21</title>
<path fill="none" stroke="black" d="M6.2002,89.7815C-0.242728,100.754 -11.6033,120.102 -15.637,126.971"/>
</g>
<!-- anon_4_16_0 -->
<g id="node59" class="node"><title>anon_4_16_0</title>
<ellipse fill="white" stroke="black" cx="54.4031" cy="110.369" rx="1" ry="1"/>
</g>
<!-- 4&#45;&gt;anon_4_16_0 -->
<g id="edge26" class="edge"><title>4&#45;&gt;anon_4_16_0</title>
<path fill="none" stroke="black" d="M18.4037,86.8838C29.3321,94.0132 48.6978,106.647 53.3685,109.694"/>
</g>
<!-- 6 -->
<g id="node7" class="node"><title>6</title>
<ellipse fill="palegreen" stroke="black" cx="285.203" cy="-224.703" rx="2.5" ry="2.5"/>
</g>
<!-- 8 -->
<g id="node9" class="node"><title>8</title>
<ellipse fill="palegreen" stroke="black" cx="139.859" cy="-57.0114" rx="3.5" ry="3.5"/>
</g>
<!-- 8&#45;&gt;9 -->
<g id="edge29" class="edge"><title>8&#45;&gt;9</title>
<path fill="none" stroke="black" d="M142.592,-59.6357C148.492,-65.3025 162.487,-78.7449 169.893,-85.8581"/>
</g>
<!-- 8&#45;&gt;12 -->
<g id="edge54" class="edge"><title>8&#45;&gt;12</title>
<path fill="none" stroke="black" stroke-dasharray="5,2" d="M139.335,-60.7337C138.08,-69.645 134.917,-92.1131 133.683,-100.873"/>
</g>
<!-- 16 -->
<g id="node16" class="node"><title>16</title>
<ellipse fill="palegreen" stroke="black" cx="81.9304" cy="141.824" rx="2.5" ry="2.5"/>
</g>
<!-- 25 -->
<g id="node25" class="node"><title>25</title>
<ellipse fill="#787878" stroke="black" cx="112.749" cy="-51.7534" rx="2.5" ry="2.5"/>
</g>
<!-- 23&#45;&gt;25 -->
<g id="edge30" class="edge"><title>23&#45;&gt;25</title>
<path fill="none" stroke="black" d="M69.3087,-58.585C81.0737,-56.7347 102.398,-53.3812 109.981,-52.1887"/>
</g>
<!-- 29 -->
<g id="node29" class="node"><title>29</title>
<ellipse fill="#787878" stroke="black" cx="80.1242" cy="-109.402" rx="2.5" ry="2.5"/>
</g>
<!-- 23&#45;&gt;29 -->
<g id="edge31" class="edge"><title>23&#45;&gt;29</title>
<path fill="none" stroke="black" d="M64.2111,-67.5925C68.5209,-78.9159 76.3324,-99.4394 79.1102,-106.738"/>
</g>
<!-- 24 -->
<g id="node24" class="node"><title>24</title>
<ellipse fill="#787878" stroke="black" cx="-70.8228" cy="-134.168" rx="2.5" ry="2.5"/>
</g>
<!-- 26 -->
<g id="node26" class="node"><title>26</title>
<ellipse fill="#787878" stroke="black" cx="-141.99" cy="49.291" rx="2.5" ry="2.5"/>
</g>
<!-- 30 -->
<g id="node30" class="node"><title>30</title>
<ellipse fill="#1874cd" stroke="black" cx="-142.09" cy="107.007" rx="14.5" ry="14.5"/>
</g>
<!-- 40 -->
<g id="node38" class="node"><title>40</title>
<ellipse fill="#1874cd" stroke="black" cx="-86.0626" cy="98.3032" rx="2.5" ry="2.5"/>
</g>
<!-- 30&#45;&gt;40 -->
<g id="edge32" class="edge"><title>30&#45;&gt;40</title>
<path fill="none" stroke="black" d="M-127.662,104.766C-114.433,102.711 -95.8718,99.8271 -88.877,98.7404"/>
</g>
<!-- 43 -->
<g id="node41" class="node"><title>43</title>
<ellipse fill="#1874cd" stroke="black" cx="-162.356" cy="159.938" rx="2.5" ry="2.5"/>
</g>
<!-- 30&#45;&gt;43 -->
<g id="edge33" class="edge"><title>30&#45;&gt;43</title>
<path fill="none" stroke="black" d="M-147.309,120.638C-152.094,133.136 -158.808,150.671 -161.338,157.28"/>
</g>
<!-- 47 -->
<g id="node44" class="node"><title>47</title>
<ellipse fill="#1874cd" stroke="black" cx="-177.491" cy="62.751" rx="2.5" ry="2.5"/>
</g>
<!-- 30&#45;&gt;47 -->
<g id="edge34" class="edge"><title>30&#45;&gt;47</title>
<path fill="none" stroke="black" d="M-151.391,95.3796C-159.75,84.9306 -171.361,70.4153 -175.733,64.9495"/>
</g>
<!-- 32 -->
<g id="node31" class="node"><title>32</title>
<ellipse fill="#1874cd" stroke="black" cx="-75.0964" cy="-246.863" rx="12" ry="12"/>
</g>
<!-- 38 -->
<g id="node36" class="node"><title>38</title>
<ellipse fill="#1874cd" stroke="black" cx="-117.822" cy="-205.908" rx="2.5" ry="2.5"/>
</g>
<!-- 32&#45;&gt;38 -->
<g id="edge35" class="edge"><title>32&#45;&gt;38</title>
<path fill="none" stroke="black" d="M-84.1573,-238.178C-94.3473,-228.41 -110.202,-213.212 -115.79,-207.856"/>
</g>
<!-- 39 -->
<g id="node37" class="node"><title>39</title>
<ellipse fill="#1874cd" stroke="black" cx="-68.6384" cy="-303.629" rx="2.5" ry="2.5"/>
</g>
<!-- 32&#45;&gt;39 -->
<g id="edge36" class="edge"><title>32&#45;&gt;39</title>
<path fill="none" stroke="black" d="M-73.7269,-258.902C-72.1866,-272.44 -69.7901,-293.505 -68.9456,-300.929"/>
</g>
<!-- 41 -->
<g id="node39" class="node"><title>41</title>
<ellipse fill="#1874cd" stroke="black" cx="-14.8184" cy="-237.707" rx="3.5" ry="3.5"/>
</g>
<!-- 32&#45;&gt;41 -->
<g id="edge37" class="edge"><title>32&#45;&gt;41</title>
<path fill="none" stroke="black" d="M-63.1874,-245.054C-51.4919,-243.278 -33.9298,-240.61 -23.4968,-239.025"/>
<polygon fill="black" stroke="black" points="-23.1971,-240.75 -18.5167,-238.269 -23.7228,-237.289 -23.1971,-240.75"/>
<text text-anchor="middle" x="-15.8614" y="-245.463" font-family="monospace" font-size="14.00">S2076T</text>
</g>
<!-- 44 -->
<g id="node42" class="node"><title>44</title>
<ellipse fill="#1874cd" stroke="black" cx="-61.3912" cy="-188.439" rx="4.5" ry="4.5"/>
</g>
<!-- 32&#45;&gt;44 -->
<g id="edge38" class="edge"><title>32&#45;&gt;44</title>
<path fill="none" stroke="black" d="M-72.323,-235.04C-69.2881,-222.103 -64.5751,-202.012 -62.4702,-193.039"/>
</g>
<!-- 45 -->
<g id="node43" class="node"><title>45</title>
<ellipse fill="#1874cd" stroke="black" cx="-123.33" cy="-278.163" rx="2.5" ry="2.5"/>
</g>
<!-- 32&#45;&gt;45 -->
<g id="edge39" class="edge"><title>32&#45;&gt;45</title>
<path fill="none" stroke="black" d="M-85.3255,-253.501C-94.6723,-259.566 -108.241,-268.371 -116.384,-273.655"/>
<polygon fill="black" stroke="black" points="-117.794,-272.484 -121.036,-276.674 -115.889,-275.42 -117.794,-272.484"/>
<text text-anchor="middle" x="-127.87" y="-253.686" font-family="monospace" font-size="14.00">L1617F</text>
</g>
<!-- 33 -->
<g id="node32" class="node"><title>33</title>
<ellipse fill="#1874cd" stroke="black" cx="38.6744" cy="29.7627" rx="2.5" ry="2.5"/>
</g>
<!-- anon_33_36_0 -->
<g id="node60" class="node"><title>anon_33_36_0</title>
<ellipse fill="white" stroke="black" cx="78.0862" cy="35.1074" rx="1" ry="1"/>
</g>
<!-- 33&#45;&gt;anon_33_36_0 -->
<g id="edge40" class="edge"><title>33&#45;&gt;anon_33_36_0</title>
<path fill="none" stroke="black" d="M41.2603,30.1134C48.9324,31.1538 71.3732,34.197 76.8635,34.9416"/>
</g>
<!-- 35 -->
<g id="node33" class="node"><title>35</title>
<ellipse fill="#1874cd" stroke="black" cx="-100.926" cy="-164.742" rx="2.5" ry="2.5"/>
</g>
<!-- 35&#45;&gt;38 -->
<g id="edge42" class="edge"><title>35&#45;&gt;38</title>
<path fill="none" stroke="black" d="M-102.034,-167.443C-105.147,-175.027 -113.931,-196.429 -116.859,-203.562"/>
</g>
<!-- 35&#45;&gt;44 -->
<g id="edge55" class="edge"><title>35&#45;&gt;44</title>
<path fill="none" stroke="black" stroke-dasharray="5,2" d="M-98.3318,-166.297C-91.5978,-170.333 -73.5213,-181.168 -65.4179,-186.025"/>
</g>
<!-- 36 -->
<g id="node34" class="node"><title>36</title>
<ellipse fill="#1874cd" stroke="black" cx="117.239" cy="28.1299" rx="2.5" ry="2.5"/>
</g>
<!-- 37 -->
<g id="node35" class="node"><title>37</title>
<path fill="#1874cd" stroke="black" stroke-width="0.5" d="M213.157,76.6138C213.157,76.6138 231.657,76.6138 231.657,76.6138 231.657,75.8961 231.615,75.179 231.532,74.4661 231.449,73.7532 231.324,73.0458 231.158,72.3474 230.993,71.649 230.787,70.9609 230.541,70.2864 230.296,69.612 230.011,68.9524 229.689,68.311 229.367,67.6696 229.008,67.0476 228.614,66.4479 228.219,65.8483 227.79,65.2721 227.329,64.7222 226.868,64.1724 226.375,63.6499 225.853,63.1574 225.33,62.6649 224.78,62.2031 224.204,61.7745 224.204,61.7745 213.157,76.6138 213.157,76.6138"/>
<path fill="olivedrab" stroke="black" stroke-width="0.5" d="M213.157,76.6138C213.157,76.6138 224.204,61.7745 224.204,61.7745 223.377,61.1582 222.499,60.6123 221.58,60.1424 220.661,59.6726 219.704,59.2804 218.72,58.9701 217.736,58.6597 216.727,58.4323 215.705,58.2901 214.683,58.148 213.651,58.0916 212.619,58.1216 211.587,58.1517 210.56,58.2679 209.548,58.4693 208.536,58.6706 207.542,58.9563 206.578,59.3234 205.613,59.6904 204.681,60.1375 203.791,60.66 202.901,61.1825 202.056,61.7786 201.265,62.442 200.475,63.1054 199.741,63.8338 199.072,64.6195 198.403,65.4052 197.801,66.2456 197.272,67.1318 196.743,68.018 196.289,68.9468 195.915,69.9087 195.541,70.8706 195.248,71.8621 195.039,72.8728 194.831,73.8835 194.707,74.9099 194.669,75.9413 194.632,76.9726 194.681,78.0053 194.815,79.0286 194.95,80.0518 195.17,81.0619 195.473,82.0484 195.776,83.0349 196.162,83.9943 196.625,84.9166 197.088,85.8389 197.628,86.7208 198.238,87.553 198.848,88.3853 199.527,89.1651 200.267,89.8842 201.008,90.6032 201.807,91.2591 202.656,91.8449 203.506,92.4307 204.403,92.9444 205.339,93.3805 206.274,93.8167 207.244,94.1738 208.239,94.4482 209.234,94.7225 210.25,94.9131 211.277,95.018 212.303,95.1229 213.337,95.1417 214.367,95.0742 215.397,95.0067 216.419,94.8532 217.423,94.6151 218.428,94.3771 219.41,94.0555 220.361,93.6537 221.311,93.2518 222.227,92.7711 223.097,92.2166 223.967,91.662 224.79,91.0357 225.556,90.344 226.322,89.6523 227.029,88.8977 227.669,88.0882 228.309,87.2786 228.88,86.4169 229.376,85.5121 229.873,84.6073 230.293,83.6625 230.632,82.6877 230.97,81.7129 231.227,80.7114 231.399,79.6937 231.571,78.6761 231.657,77.6459 231.657,76.6138 231.657,76.6138 213.157,76.6138 213.157,76.6138"/>
<ellipse fill="none" stroke="black" cx="213.157" cy="76.6138" rx="18.5" ry="18.5"/>
</g>
<!-- 50 -->
<g id="node47" class="node"><title>50</title>
<ellipse fill="olivedrab" stroke="black" cx="226.249" cy="3.39775" rx="6" ry="6"/>
</g>
<!-- 37&#45;&gt;50 -->
<g id="edge43" class="edge"><title>37&#45;&gt;50</title>
<path fill="none" stroke="black" d="M216.461,58.1383C219.309,42.21 223.253,20.1544 225.147,9.56128"/>
</g>
<!-- 54 -->
<g id="node50" class="node"><title>54</title>
<ellipse fill="olivedrab" stroke="black" cx="278.421" cy="65.9185" rx="2.5" ry="2.5"/>
</g>
<!-- 37&#45;&gt;54 -->
<g id="edge44" class="edge"><title>37&#45;&gt;54</title>
<path fill="none" stroke="black" d="M231.685,73.5776C247.362,71.0084 268.417,67.558 275.762,66.3544"/>
</g>
<!-- 55 -->
<g id="node51" class="node"><title>55</title>
<ellipse fill="olivedrab" stroke="black" cx="165.988" cy="21.4554" rx="7.5" ry="7.5"/>
</g>
<!-- 37&#45;&gt;55 -->
<g id="edge45" class="edge"><title>37&#45;&gt;55</title>
<path fill="none" stroke="black" d="M201.01,62.4091C191.292,51.0456 178.157,35.685 171.054,27.3796"/>
</g>
<!-- 56 -->
<g id="node52" class="node"><title>56</title>
<ellipse fill="olivedrab" stroke="black" cx="146.045" cy="85.0681" rx="2.5" ry="2.5"/>
</g>
<!-- 37&#45;&gt;56 -->
<g id="edge46" class="edge"><title>37&#45;&gt;56</title>
<path fill="none" stroke="black" d="M194.462,78.9688C178.328,81.0013 156.449,83.7575 148.811,84.7196"/>
</g>
<!-- 57 -->
<g id="node53" class="node"><title>57</title>
<ellipse fill="olivedrab" stroke="black" cx="268.755" cy="114.398" rx="2.5" ry="2.5"/>
</g>
<!-- 37&#45;&gt;57 -->
<g id="edge47" class="edge"><title>37&#45;&gt;57</title>
<path fill="none" stroke="black" d="M228.644,87.1388C242.011,96.2225 260.136,108.54 266.464,112.84"/>
</g>
<!-- 59 -->
<g id="node54" class="node"><title>59</title>
<ellipse fill="olivedrab" stroke="black" cx="171.953" cy="128.896" rx="2.5" ry="2.5"/>
</g>
<!-- 37&#45;&gt;59 -->
<g id="edge48" class="edge"><title>37&#45;&gt;59</title>
<path fill="none" stroke="black" d="M201.679,91.1772C191.774,103.746 178.341,120.791 173.652,126.741"/>
</g>
<!-- 60 -->
<g id="node55" class="node"><title>60</title>
<ellipse fill="olivedrab" stroke="black" cx="223.656" cy="141.628" rx="2.5" ry="2.5"/>
</g>
<!-- 37&#45;&gt;60 -->
<g id="edge49" class="edge"><title>37&#45;&gt;60</title>
<path fill="none" stroke="black" d="M216.138,95.0703C218.206,107.881 220.858,124.297 222.396,133.822"/>
<polygon fill="black" stroke="black" points="224.159,133.763 223.228,138.978 220.704,134.321 224.159,133.763"/>
<text text-anchor="middle" x="198.674" y="113.166" font-family="monospace" font-size="14.00">K251R</text>
</g>
<!-- 48 -->
<g id="node45" class="node"><title>48</title>
<ellipse fill="#1874cd" stroke="black" cx="-13.9761" cy="-189.071" rx="3.5" ry="3.5"/>
</g>
<!-- 41&#45;&gt;48 -->
<g id="edge50" class="edge"><title>41&#45;&gt;48</title>
<path fill="none" stroke="black" d="M-14.7523,-233.89C-14.5941,-224.754 -14.1951,-201.718 -14.0396,-192.736"/>
</g>
<!-- 49 -->
<g id="node46" class="node"><title>49</title>
<ellipse fill="#1874cd" stroke="black" cx="26.9976" cy="-255.479" rx="2.5" ry="2.5"/>
</g>
<!-- 41&#45;&gt;49 -->
<g id="edge51" class="edge"><title>41&#45;&gt;49</title>
<path fill="none" stroke="black" d="M-11.5372,-239.101C-3.52775,-242.506 16.9054,-251.19 24.2862,-254.327"/>
</g>
<!-- 42 -->
<g id="node40" class="node"><title>42</title>
<ellipse fill="#1874cd" stroke="black" cx="75" cy="69" rx="3.5" ry="3.5"/>
</g>
<!-- 44&#45;&gt;48 -->
<g id="edge56" class="edge"><title>44&#45;&gt;48</title>
<path fill="none" stroke="black" stroke-dasharray="5,2" d="M-56.6715,-188.502C-48.7608,-188.607 -32.71,-188.821 -22.6995,-188.954"/>
<polygon fill="black" stroke="black" points="-22.6335,-190.705 -17.6106,-189.022 -22.5868,-187.206 -22.6335,-190.705"/>
<text text-anchor="middle" x="-11.9397" y="-177.565" font-family="monospace" font-size="14.00">S2076T</text>
</g>
<!-- 51 -->
<g id="node48" class="node"><title>51</title>
<ellipse fill="olivedrab" stroke="black" cx="262.092" cy="-32.1682" rx="3.5" ry="3.5"/>
</g>
<!-- 50&#45;&gt;51 -->
<g id="edge52" class="edge"><title>50&#45;&gt;51</title>
<path fill="none" stroke="black" d="M230.644,-0.963334C238.122,-8.38297 253.11,-23.2554 259.31,-29.407"/>
</g>
<!-- 53 -->
<g id="node49" class="node"><title>53</title>
<ellipse fill="olivedrab" stroke="black" cx="183.682" cy="-25.2069" rx="3.5" ry="3.5"/>
</g>
<!-- 50&#45;&gt;53 -->
<g id="edge53" class="edge"><title>50&#45;&gt;53</title>
<path fill="none" stroke="black" d="M221.03,-0.109739C212.15,-6.07713 194.35,-18.0385 186.987,-22.9861"/>
</g>
<!-- 53&#45;&gt;55 -->
<g id="edge57" class="edge"><title>53&#45;&gt;55</title>
<path fill="none" stroke="black" stroke-dasharray="5,2" d="M182.41,-21.851C179.557,-14.3281 172.597,4.02572 168.716,14.2603"/>
</g>
<!-- anon_1_6_0&#45;&gt;6 -->
<g id="edge5" class="edge"><title>anon_1_6_0&#45;&gt;6</title>
<path fill="none" stroke="black" d="M245.553,-208.249C250.737,-210.4 274.526,-220.272 282.551,-223.602"/>
</g>
<!-- anon_2_24_0&#45;&gt;24 -->
<g id="edge21" class="edge"><title>anon_2_24_0&#45;&gt;24</title>
<path fill="none" stroke="black" d="M-53.3652,-95.7308C-55.6479,-100.757 -66.1222,-123.818 -69.6553,-131.597"/>
</g>
<!-- anon_2_26_0&#45;&gt;26 -->
<g id="edge23" class="edge"><title>anon_2_26_0&#45;&gt;26</title>
<path fill="none" stroke="black" d="M-103.555,31.4999C-108.581,33.8262 -131.641,44.5005 -139.42,48.1011"/>
</g>
<!-- anon_4_16_0&#45;&gt;16 -->
<g id="edge27" class="edge"><title>anon_4_16_0&#45;&gt;16</title>
<path fill="none" stroke="black" d="M55.0835,111.147C58.5939,115.158 74.7016,133.564 80.1349,139.773"/>
</g>
<!-- anon_33_36_0&#45;&gt;36 -->
<g id="edge41" class="edge"><title>anon_33_36_0&#45;&gt;36</title>
<path fill="none" stroke="black" d="M79.3889,34.8753C85.0149,33.8726 107.28,29.9047 114.768,28.5703"/>
</g>
</g>
</svg>
