<?xml version="1.0" encoding="UTF-8" standalone="no"?>
<!DOCTYPE svg PUBLIC "-//W3C//DTD SVG 1.1//EN"
 "http://www.w3.org/Graphics/SVG/1.1/DTD/svg11.dtd">
<!-- Generated by graphviz version 2.38.0 (20140413.2041)
 -->
<!-- Title: %3 Pages: 1 -->
<svg width="177pt" height="170pt"
 viewBox="0.00 0.00 177.42 169.53" xmlns="http://www.w3.org/2000/svg" xmlns:xlink="http://www.w3.org/1999/xlink">
<g id="graph0" class="graph" transform="scale(1 1) rotate(0) translate(59.6539 74.6594)">
<title>%3</title>
<polygon fill="white" stroke="none" points="-59.6539,94.8664 -59.6539,-74.6594 117.763,-74.6594 117.763,94.8664 -59.6539,94.8664"/>
<!-- 0 -->
<g id="node1" class="node"><title>0</title>
<ellipse fill="#1874cd" stroke="black" cx="-19.8295" cy="-63.6594" rx="7" ry="7"/>
</g>
<!-- 6 -->
<g id="node7" class="node"><title>6</title>
<ellipse fill="#1874cd" stroke="black" cx="9.84056" cy="-18.7936" rx="4.5" ry="4.5"/>
</g>
<!-- 0&#45;&gt;6 -->
<g id="edge1" class="edge"><title>0&#45;&gt;6</title>
<path fill="none" stroke="black" d="M-15.9507,-57.794C-9.79318,-48.4829 2.054,-30.5681 7.26912,-22.682"/>
</g>
<!-- 1 -->
<g id="node2" class="node"><title>1</title>
<ellipse fill="#1874cd" stroke="black" cx="42.6088" cy="29.0996" rx="8.5" ry="8.5"/>
</g>
<!-- 3 -->
<g id="node4" class="node"><title>3</title>
<ellipse fill="#1874cd" stroke="black" cx="75.8972" cy="-13.119" rx="2.5" ry="2.5"/>
</g>
<!-- 1&#45;&gt;3 -->
<g id="edge2" class="edge"><title>1&#45;&gt;3</title>
<path fill="none" stroke="black" d="M48.1057,22.1281C55.7878,12.3852 69.3332,-4.79408 74.1427,-10.8938"/>
</g>
<!-- 4 -->
<g id="node5" class="node"><title>4</title>
<ellipse fill="#1874cd" stroke="black" cx="44.4059" cy="85.8664" rx="5" ry="5"/>
</g>
<!-- 1&#45;&gt;4 -->
<g id="edge3" class="edge"><title>1&#45;&gt;4</title>
<path fill="none" stroke="black" d="M42.8896,37.9694C43.2124,48.1662 43.7414,64.8754 44.0815,75.6192"/>
<polygon fill="black" stroke="black" points="45.8309,75.5747 44.2401,80.6276 42.3327,75.6855 45.8309,75.5747"/>
<text text-anchor="middle" x="20.4856" y="53.3943" font-family="monospace" font-size="12.00">V1681I</text>
</g>
<!-- 5 -->
<g id="node6" class="node"><title>5</title>
<ellipse fill="#1874cd" stroke="black" cx="-9.78641" cy="46.461" rx="3.5" ry="3.5"/>
</g>
<!-- 1&#45;&gt;5 -->
<g id="edge4" class="edge"><title>1&#45;&gt;5</title>
<path fill="none" stroke="black" d="M34.4221,31.8123C24.7083,35.031 8.59139,40.3715 -1.26621,43.6378"/>
<polygon fill="black" stroke="black" points="-0.721579,45.3009 -6.01827,45.2125 -1.82251,41.9785 -0.721579,45.3009"/>
<text text-anchor="middle" x="-6.42207" y="34.3251" font-family="monospace" font-size="12.00">S2076T</text>
</g>
<!-- 1&#45;&gt;6 -->
<g id="edge5" class="edge"><title>1&#45;&gt;6</title>
<path fill="none" stroke="black" d="M37.7737,22.0328C30.795,11.8329 18.1286,-6.68011 12.5745,-14.7978"/>
</g>
<!-- 7 -->
<g id="node8" class="node"><title>7</title>
<ellipse fill="#1874cd" stroke="black" cx="92.082" cy="49.3027" rx="2.5" ry="2.5"/>
</g>
<!-- 1&#45;&gt;7 -->
<g id="edge6" class="edge"><title>1&#45;&gt;7</title>
<path fill="none" stroke="black" d="M50.7783,32.4357C60.2331,36.2967 75.6639,42.5981 84.7484,46.3079"/>
<polygon fill="black" stroke="black" points="85.5072,44.7274 89.4745,48.2378 84.1839,47.9676 85.5072,44.7274"/>
<text text-anchor="middle" x="90.7634" y="35.9718" font-family="monospace" font-size="12.00">L1617F</text>
</g>
<!-- 2 -->
<g id="node3" class="node"><title>2</title>
<ellipse fill="#1874cd" stroke="black" cx="48.6624" cy="-47.2015" rx="2.5" ry="2.5"/>
</g>
<!-- 2&#45;&gt;3 -->
<g id="edge7" class="edge"><title>2&#45;&gt;3</title>
<path fill="none" stroke="black" d="M50.4494,-44.9652C55.3723,-38.8045 69.095,-21.6315 74.068,-15.4081"/>
</g>
<!-- 2&#45;&gt;6 -->
<g id="edge9" class="edge"><title>2&#45;&gt;6</title>
<path fill="none" stroke="black" stroke-dasharray="5,2" d="M46.5752,-45.6741C40.4014,-41.1565 22.1481,-27.7996 13.9309,-21.7868"/>
</g>
<!-- 8 -->
<g id="node9" class="node"><title>8</title>
<ellipse fill="#1874cd" stroke="black" cx="-32.6578" cy="6.56854" rx="3.5" ry="3.5"/>
</g>
<!-- 5&#45;&gt;8 -->
<g id="edge8" class="edge"><title>5&#45;&gt;8</title>
<path fill="none" stroke="black" d="M-11.5811,43.3307C-15.7934,35.9836 -26.2882,17.6785 -30.6781,10.0216"/>
</g>
<!-- 6&#45;&gt;8 -->
<g id="edge10" class="edge"><title>6&#45;&gt;8</title>
<path fill="none" stroke="black" stroke-dasharray="5,2" d="M5.91859,-16.4531C-1.15524,-12.2316 -16.156,-3.27939 -25.2263,2.13357"/>
<polygon fill="black" stroke="black" points="-24.3768,3.66452 -29.5672,4.72413 -26.1705,0.659027 -24.3768,3.66452"/>
<text text-anchor="middle" x="-32.6539" y="-10.5598" font-family="monospace" font-size="12.00">S2076T</text>
</g>
</g>
</svg>
