<?xml version="1.0" encoding="UTF-8" standalone="no"?>
<!DOCTYPE svg PUBLIC "-//W3C//DTD SVG 1.1//EN"
 "http://www.w3.org/Graphics/SVG/1.1/DTD/svg11.dtd">
<!-- Generated by graphviz version 2.38.0 (20140413.2041)
 -->
<!-- Title: %3 Pages: 1 -->
<svg width="271pt" height="179pt"
 viewBox="0.00 0.00 270.89 179.03" xmlns="http://www.w3.org/2000/svg" xmlns:xlink="http://www.w3.org/1999/xlink">
<g id="graph0" class="graph" transform="scale(1 1) rotate(0) translate(159.378 132.233)">
<title>%3</title>
<polygon fill="white" stroke="none" points="-159.378,46.8006 -159.378,-132.233 111.515,-132.233 111.515,46.8006 -159.378,46.8006"/>
<!-- 0 -->
<g id="node1" class="node"><title>0</title>
<path fill="palegreen" stroke="black" stroke-width="0.5" d="M-34.1048,-45.4392C-34.1048,-45.4392 -5.10476,-45.4392 -5.10476,-45.4392 -5.10476,-46.6076 -5.17536,-47.7749 -5.3162,-48.9348 -5.45703,-50.0947 -5.66783,-51.245 -5.94744,-52.3794 -6.22706,-53.5138 -6.57497,-54.6303 -6.98928,-55.7228 -7.4036,-56.8152 -7.88356,-57.8817 -8.42653,-58.9162 -8.96951,-59.9508 -9.57451,-60.9516 -10.2382,-61.9131 -10.9019,-62.8747 -11.6232,-63.7953 -12.3979,-64.6698 -13.1727,-65.5443 -13.9997,-66.3713 -14.8742,-67.1461 -15.7487,-67.9208 -16.6693,-68.6421 -17.6309,-69.3058 -18.5924,-69.9695 -19.5932,-70.5745 -20.6278,-71.1175 -21.6623,-71.6604 -22.7288,-72.1404 -23.8212,-72.5547 -24.9137,-72.969 -26.0302,-73.3169 -27.1646,-73.5966 -28.299,-73.8762 -29.4493,-74.087 -30.6092,-74.2278 -31.7691,-74.3686 -32.9364,-74.4392 -34.1048,-74.4392 -35.2731,-74.4392 -36.4405,-74.3686 -37.6003,-74.2278 -38.7602,-74.087 -39.9105,-73.8762 -41.0449,-73.5966 -42.1793,-73.3169 -43.2958,-72.969 -44.3883,-72.5547 -45.4808,-72.1404 -46.5472,-71.6604 -47.5817,-71.1175 -48.6163,-70.5745 -49.6171,-69.9695 -50.5786,-69.3058 -51.5402,-68.6421 -52.4608,-67.9208 -53.3353,-67.1461 -54.2099,-66.3713 -55.0368,-65.5443 -55.8116,-64.6698 -56.5863,-63.7952 -57.3076,-62.8747 -57.9713,-61.9131 -58.635,-60.9516 -59.24,-59.9508 -59.783,-58.9162 -60.326,-57.8817 -60.8059,-56.8152 -61.2202,-55.7228 -61.6345,-54.6303 -61.9825,-53.5138 -62.2621,-52.3794 -62.5417,-51.245 -62.7525,-50.0947 -62.8933,-48.9348 -63.0341,-47.7749 -63.1048,-46.6076 -63.1048,-45.4392 -63.1048,-44.2709 -63.0341,-43.1035 -62.8933,-41.9437 -62.7525,-40.7838 -62.5417,-39.6335 -62.2621,-38.4991 -61.9825,-37.3647 -61.6345,-36.2482 -61.2202,-35.1557 -60.8059,-34.0632 -60.326,-32.9968 -59.783,-31.9623 -59.24,-30.9277 -58.635,-29.9269 -57.9713,-28.9654 -57.3076,-28.0038 -56.5863,-27.0832 -55.8116,-26.2087 -55.8116,-26.2087 -34.1048,-45.4392 -34.1048,-45.4392"/>
<path fill="#787878" stroke="black" stroke-width="0.5" d="M-34.1048,-45.4392C-34.1048,-45.4392 -55.8116,-26.2087 -55.8116,-26.2087 -54.8429,-25.1153 -53.7931,-24.0967 -52.6709,-23.1615 -51.5488,-22.2263 -50.3576,-21.3773 -49.1075,-20.6216 -47.8575,-19.8659 -46.5521,-19.2057 -45.2026,-18.6467 -43.853,-18.0877 -42.4632,-17.6315 -41.0449,-17.2819 -39.6266,-16.9324 -38.184,-16.6904 -36.7292,-16.5582 -35.2745,-16.426 -33.8118,-16.404 -32.3538,-16.4922 -30.8957,-16.5803 -29.4464,-16.7786 -28.0182,-17.0852 -26.59,-17.3917 -25.187,-17.8058 -23.8212,-18.3238 -22.4554,-18.8418 -21.1307,-19.4622 -19.8584,-20.1798 -18.5861,-20.8974 -17.3698,-21.7101 -16.2199,-22.6109 -15.07,-23.5118 -13.9899,-24.4982 -12.9887,-25.5618 -11.9874,-26.6255 -11.068,-27.7632 -10.2382,-28.9654 -9.40843,-30.1675 -8.67066,-31.4307 -8.0312,-32.744 -7.39174,-34.0573 -6.85242,-35.4171 -6.41785,-36.8117 -5.98328,-38.2062 -5.6547,-39.6317 -5.43491,-41.0758 -5.21512,-42.5199 -5.10476,-43.9785 -5.10476,-45.4392 -5.10476,-45.4392 -34.1048,-45.4392 -34.1048,-45.4392"/>
<ellipse fill="none" stroke="black" cx="-34.1048" cy="-45.4392" rx="29" ry="29"/>
</g>
<!-- 1 -->
<g id="node2" class="node"><title>1</title>
<ellipse fill="palegreen" stroke="black" cx="-111.872" cy="9.99381" rx="9" ry="9"/>
</g>
<!-- 0&#45;&gt;1 -->
<g id="edge1" class="edge"><title>0&#45;&gt;1</title>
<path fill="none" stroke="black" d="M-57.86,-28.5063C-73.7617,-17.1714 -93.6627,-2.98586 -104.314,4.60619"/>
</g>
<!-- 2 -->
<g id="node3" class="node"><title>2</title>
<ellipse fill="palegreen" stroke="black" cx="-3.87075" cy="33.3317" rx="2.5" ry="2.5"/>
</g>
<!-- 0&#45;&gt;2 -->
<g id="edge2" class="edge"><title>0&#45;&gt;2</title>
<path fill="none" stroke="black" d="M-23.6999,-18.3308C-16.4575,0.538563 -7.61166,23.5852 -4.78486,30.95"/>
</g>
<!-- 3 -->
<g id="node4" class="node"><title>3</title>
<ellipse fill="palegreen" stroke="black" cx="-94.7397" cy="-100.79" rx="2.5" ry="2.5"/>
</g>
<!-- 0&#45;&gt;3 -->
<g id="edge3" class="edge"><title>0&#45;&gt;3</title>
<path fill="none" stroke="black" d="M-55.6531,-65.1097C-67.3797,-75.8144 -81.0214,-88.2673 -88.6921,-95.2695"/>
<polygon fill="black" stroke="black" points="-90.1131,-94.1972 -92.6261,-98.8607 -87.7534,-96.7822 -90.1131,-94.1972"/>
<text text-anchor="middle" x="-95.1726" y="-83.5896" font-family="monospace" font-size="12.00">F1529L</text>
</g>
<!-- 4 -->
<g id="node5" class="node"><title>4</title>
<ellipse fill="palegreen" stroke="black" cx="24.097" cy="-3.58636" rx="2.5" ry="2.5"/>
</g>
<!-- 0&#45;&gt;4 -->
<g id="edge4" class="edge"><title>0&#45;&gt;4</title>
<path fill="none" stroke="black" d="M-10.4319,-28.4161C2.40853,-19.1825 16.7107,-8.89783 21.9912,-5.10065"/>
</g>
<!-- 6 -->
<g id="node7" class="node"><title>6</title>
<ellipse fill="#787878" stroke="black" cx="58.0133" cy="-72.7907" rx="8" ry="8"/>
</g>
<!-- 0&#45;&gt;6 -->
<g id="edge5" class="edge"><title>0&#45;&gt;6</title>
<path fill="none" stroke="black" d="M-6.21631,-53.7198C13.271,-59.5059 37.9264,-66.8265 50.2536,-70.4867"/>
</g>
<!-- 7 -->
<g id="node8" class="node"><title>7</title>
<ellipse fill="#787878" stroke="black" cx="-106.024" cy="-55.4985" rx="2.5" ry="2.5"/>
</g>
<!-- 0&#45;&gt;7 -->
<g id="edge6" class="edge"><title>0&#45;&gt;7</title>
<path fill="none" stroke="black" d="M-62.9425,-49.4727C-78.8866,-51.7028 -96.7767,-54.2051 -103.387,-55.1296"/>
</g>
<!-- 9 -->
<g id="node10" class="node"><title>9</title>
<ellipse fill="#787878" stroke="black" cx="-54.0266" cy="-125.733" rx="2.5" ry="2.5"/>
</g>
<!-- 0&#45;&gt;9 -->
<g id="edge7" class="edge"><title>0&#45;&gt;9</title>
<path fill="none" stroke="black" d="M-41.1846,-73.974C-45.837,-92.7255 -51.407,-115.175 -53.3322,-122.934"/>
</g>
<!-- 10 -->
<g id="node11" class="node"><title>10</title>
<ellipse fill="#787878" stroke="black" cx="-49.8785" cy="25.5305" rx="2.5" ry="2.5"/>
</g>
<!-- 0&#45;&gt;10 -->
<g id="edge8" class="edge"><title>0&#45;&gt;10</title>
<path fill="none" stroke="black" d="M-40.4297,-16.982C-43.9267,-1.24829 -47.8504,16.4057 -49.3002,22.9284"/>
</g>
<!-- 11 -->
<g id="node12" class="node"><title>11</title>
<ellipse fill="#787878" stroke="black" cx="-9.80906" cy="-112.558" rx="2.5" ry="2.5"/>
</g>
<!-- 0&#45;&gt;11 -->
<g id="edge9" class="edge"><title>0&#45;&gt;11</title>
<path fill="none" stroke="black" d="M-24.2228,-72.7389C-18.8627,-87.5465 -12.8924,-104.04 -10.6881,-110.129"/>
</g>
<!-- 5 -->
<g id="node6" class="node"><title>5</title>
<ellipse fill="palegreen" stroke="black" cx="-152.878" cy="40.3006" rx="2.5" ry="2.5"/>
</g>
<!-- 1&#45;&gt;5 -->
<g id="edge10" class="edge"><title>1&#45;&gt;5</title>
<path fill="none" stroke="black" d="M-119.393,15.5525C-129.012,22.6614 -145.106,34.556 -150.803,38.7665"/>
</g>
<!-- 8 -->
<g id="node9" class="node"><title>8</title>
<ellipse fill="#787878" stroke="black" cx="84.1054" cy="-118.04" rx="2.5" ry="2.5"/>
</g>
<!-- 6&#45;&gt;8 -->
<g id="edge11" class="edge"><title>6&#45;&gt;8</title>
<path fill="none" stroke="black" d="M62.0902,-79.8609C68.0526,-90.2011 78.8596,-108.943 82.7025,-115.607"/>
</g>
<!-- 12 -->
<g id="node13" class="node"><title>12</title>
<ellipse fill="#787878" stroke="black" cx="105.015" cy="-49.6439" rx="2.5" ry="2.5"/>
</g>
<!-- 6&#45;&gt;12 -->
<g id="edge12" class="edge"><title>6&#45;&gt;12</title>
<path fill="none" stroke="black" d="M65.3573,-69.174C76.0979,-63.8846 95.5652,-54.2976 102.488,-50.8884"/>
</g>
</g>
</svg>
