<?xml version="1.0" encoding="UTF-8" standalone="no"?>
<!DOCTYPE svg PUBLIC "-//W3C//DTD SVG 1.1//EN"
 "http://www.w3.org/Graphics/SVG/1.1/DTD/svg11.dtd">
<!-- Generated by graphviz version 2.38.0 (20140413.2041)
 -->
<!-- Title: %3 Pages: 1 -->
<svg width="466pt" height="452pt"
 viewBox="0.00 0.00 465.69 451.57" xmlns="http://www.w3.org/2000/svg" xmlns:xlink="http://www.w3.org/1999/xlink">
<g id="graph0" class="graph" transform="scale(1 1) rotate(0) translate(185.991 291.129)">
<title>%3</title>
<polygon fill="white" stroke="none" points="-185.991,160.438 -185.991,-291.129 279.703,-291.129 279.703,160.438 -185.991,160.438"/>
<!-- 0 -->
<g id="node1" class="node"><title>0</title>
<ellipse fill="palegreen" stroke="black" cx="80.4955" cy="-194.776" rx="2.5" ry="2.5"/>
</g>
<!-- 1 -->
<g id="node2" class="node"><title>1</title>
<ellipse fill="palegreen" stroke="black" cx="157.136" cy="-202.003" rx="23.5" ry="23.5"/>
</g>
<!-- 0&#45;&gt;1 -->
<g id="edge1" class="edge"><title>0&#45;&gt;1</title>
<path fill="none" stroke="black" d="M83.0455,-195.017C90.8374,-195.751 114.935,-198.023 133.555,-199.779"/>
</g>
<!-- 3 -->
<g id="node4" class="node"><title>3</title>
<ellipse fill="palegreen" stroke="black" cx="183.277" cy="-153.325" rx="2.5" ry="2.5"/>
</g>
<!-- 1&#45;&gt;3 -->
<g id="edge2" class="edge"><title>1&#45;&gt;3</title>
<path fill="none" stroke="black" d="M168.374,-181.076C173.688,-171.181 179.414,-160.519 181.945,-155.806"/>
</g>
<!-- 5 -->
<g id="node6" class="node"><title>5</title>
<ellipse fill="palegreen" stroke="black" cx="135.396" cy="-272.677" rx="2.5" ry="2.5"/>
</g>
<!-- 1&#45;&gt;5 -->
<g id="edge3" class="edge"><title>1&#45;&gt;5</title>
<path fill="none" stroke="black" d="M150.137,-224.753C144.974,-241.54 138.469,-262.685 136.212,-270.025"/>
</g>
<!-- 7 -->
<g id="node8" class="node"><title>7</title>
<ellipse fill="palegreen" stroke="black" cx="103.963" cy="-258.582" rx="3.5" ry="3.5"/>
</g>
<!-- 1&#45;&gt;7 -->
<g id="edge6" class="edge"><title>1&#45;&gt;7</title>
<path fill="none" stroke="black" d="M140.893,-219.286C130.379,-230.473 117.308,-244.381 109.872,-252.294"/>
<polygon fill="black" stroke="black" points="108.521,-251.176 106.372,-256.018 111.072,-253.573 108.521,-251.176"/>
<text text-anchor="middle" x="102.713" y="-241.367" font-family="monospace" font-size="14.00">I492N</text>
</g>
<!-- 9 -->
<g id="node10" class="node"><title>9</title>
<ellipse fill="palegreen" stroke="black" cx="162.68" cy="-114.456" rx="6" ry="6"/>
</g>
<!-- 1&#45;&gt;9 -->
<g id="edge7" class="edge"><title>1&#45;&gt;9</title>
<path fill="none" stroke="black" d="M158.621,-178.542C159.866,-158.89 161.555,-132.219 162.3,-120.454"/>
</g>
<!-- 10 -->
<g id="node11" class="node"><title>10</title>
<ellipse fill="palegreen" stroke="black" cx="99.1994" cy="-167.379" rx="2.5" ry="2.5"/>
</g>
<!-- 1&#45;&gt;10 -->
<g id="edge8" class="edge"><title>1&#45;&gt;10</title>
<path fill="none" stroke="black" d="M136.872,-189.893C123.559,-181.937 107.541,-172.364 101.583,-168.804"/>
</g>
<!-- 11 -->
<g id="node12" class="node"><title>11</title>
<ellipse fill="palegreen" stroke="black" cx="220.779" cy="-150.836" rx="2.5" ry="2.5"/>
</g>
<!-- 1&#45;&gt;11 -->
<g id="edge9" class="edge"><title>1&#45;&gt;11</title>
<path fill="none" stroke="black" d="M175.544,-187.203C191.11,-174.689 211.917,-157.961 218.609,-152.58"/>
</g>
<!-- 12 -->
<g id="node13" class="node"><title>12</title>
<ellipse fill="palegreen" stroke="black" cx="121.179" cy="-128.448" rx="3.5" ry="3.5"/>
</g>
<!-- 1&#45;&gt;12 -->
<g id="edge10" class="edge"><title>1&#45;&gt;12</title>
<path fill="none" stroke="black" d="M146.736,-180.728C138.19,-163.247 126.85,-140.047 122.745,-131.652"/>
</g>
<!-- 14 -->
<g id="node15" class="node"><title>14</title>
<ellipse fill="palegreen" stroke="black" cx="88.1086" cy="-228.234" rx="2.5" ry="2.5"/>
</g>
<!-- 1&#45;&gt;14 -->
<g id="edge11" class="edge"><title>1&#45;&gt;14</title>
<path fill="none" stroke="black" d="M134.915,-210.447C118.52,-216.677 97.8672,-224.525 90.6989,-227.25"/>
</g>
<!-- 18 -->
<g id="node19" class="node"><title>18</title>
<ellipse fill="palegreen" stroke="black" cx="225.137" cy="-188.281" rx="2.5" ry="2.5"/>
</g>
<!-- 1&#45;&gt;18 -->
<g id="edge12" class="edge"><title>1&#45;&gt;18</title>
<path fill="none" stroke="black" d="M180.538,-197.28C193.274,-194.71 208.214,-191.696 217.165,-189.89"/>
<polygon fill="black" stroke="black" points="217.749,-191.557 222.304,-188.852 217.057,-188.126 217.749,-191.557"/>
<text text-anchor="middle" x="222.473" y="-196.856" font-family="monospace" font-size="14.00">M925L</text>
</g>
<!-- 20 -->
<g id="node21" class="node"><title>20</title>
<ellipse fill="palegreen" stroke="black" cx="195.157" cy="-254.184" rx="2.5" ry="2.5"/>
</g>
<!-- 1&#45;&gt;20 -->
<g id="edge13" class="edge"><title>1&#45;&gt;20</title>
<path fill="none" stroke="black" d="M171.078,-221.137C179.725,-233.004 189.881,-246.943 193.651,-252.116"/>
</g>
<!-- 22 -->
<g id="node23" class="node"><title>22</title>
<ellipse fill="palegreen" stroke="black" cx="169.882" cy="-277.274" rx="2.5" ry="2.5"/>
</g>
<!-- 1&#45;&gt;22 -->
<g id="edge14" class="edge"><title>1&#45;&gt;22</title>
<path fill="none" stroke="black" d="M161.099,-225.406C164.139,-243.359 168.037,-266.379 169.392,-274.38"/>
</g>
<!-- anon_1_6_0 -->
<g id="node62" class="node"><title>anon_1_6_0</title>
<ellipse fill="white" stroke="black" cx="232.548" cy="-231.832" rx="1" ry="1"/>
</g>
<!-- 1&#45;&gt;anon_1_6_0 -->
<g id="edge4" class="edge"><title>1&#45;&gt;anon_1_6_0</title>
<path fill="none" stroke="black" d="M179.354,-210.791C198.818,-218.49 224.946,-228.825 231.174,-231.289"/>
</g>
<!-- 2 -->
<g id="node3" class="node"><title>2</title>
<path fill="palegreen" stroke="black" stroke-width="0.5" d="M-27.3275,-14.0535C-27.3275,-14.0535 1.67254,-14.0535 1.67254,-14.0535 1.67254,-15.2129 1.603,-16.3714 1.46431,-17.5225 1.32561,-18.6736 1.11801,-19.8154 0.842606,-20.9417 0.567206,-22.068 0.224509,-23.1767 -0.183639,-24.2619 -0.591787,-25.3472 -1.06465,-26.407 -1.59969,-27.4356 -2.13472,-28.4643 -2.73097,-29.4599 -3.38521,-30.4171 -4.03945,-31.3744 -4.75051,-32.2915 -5.51456,-33.1636 -6.27861,-34.0357 -7.09427,-34.8612 -7.95715,-35.6357 -8.82004,-36.4101 -9.72859,-37.1321 -10.6779,-37.7978 -11.6273,-38.4635 -12.6157,-39.0716 -13.6378,-39.6189 -14.6599,-40.1663 -15.714,-40.6518 -16.7943,-41.0729 -17.8745,-41.4941 -18.9791,-41.85 -20.102,-42.1389 -21.2249,-42.4278 -22.3641,-42.6491 -23.5135,-42.8016 -24.6629,-42.9541 -25.8204,-43.0375 -26.9797,-43.0514 -28.1391,-43.0653 -29.2983,-43.0097 -30.451,-42.8848 -31.6037,-42.7599 -32.7479,-42.566 -33.8774,-42.3041 -35.0069,-42.0422 -36.1197,-41.7129 -37.2097,-41.3178 -38.2998,-40.9226 -39.3652,-40.4625 -40.4002,-39.9399 -41.4351,-39.4172 -42.4378,-38.8329 -43.4028,-38.1902 -44.3679,-37.5475 -45.2935,-36.8475 -46.1747,-36.094 -47.0559,-35.3404 -47.8911,-34.5347 -48.6758,-33.6812 -49.4606,-32.8276 -50.1934,-31.9278 -50.8704,-30.9865 -51.5474,-30.0452 -52.1674,-29.0642 -52.7269,-28.0487 -53.2865,-27.0332 -53.7846,-25.9851 -54.2187,-24.9099 -54.6527,-23.8348 -55.0219,-22.7345 -55.3243,-21.6152 -55.6266,-20.4958 -55.8615,-19.3594 -56.0278,-18.2119 -56.194,-17.0644 -56.2913,-15.908 -56.3191,-14.7489 -56.3469,-13.5898 -56.3052,-12.43 -56.1941,-11.2759 -56.0831,-10.1217 -55.9029,-8.97532 -55.6546,-7.84276 -55.4063,-6.7102 -55.0903,-5.59356 -54.7083,-4.49883 -54.3263,-3.40411 -53.8789,-2.33329 -53.3687,-1.29212 -52.8585,-0.250956 -52.2863,0.758674 -51.6552,1.73133 -51.0241,2.70399 -50.3353,3.63792 -49.5923,4.5281 -49.5923,4.5281 -27.3275,-14.0535 -27.3275,-14.0535"/>
<path fill="#787878" stroke="black" stroke-width="0.5" d="M-27.3275,-14.0535C-27.3275,-14.0535 -49.5923,4.5281 -49.5923,4.5281 -48.6449,5.66329 -47.6121,6.72437 -46.5029,7.70204 -45.3937,8.67972 -44.2113,9.57113 -42.9661,10.3685 -41.721,11.1658 -40.4166,11.8668 -39.0646,12.4652 -37.7125,13.0636 -36.3166,13.5578 -34.8892,13.9433 -33.4617,14.3289 -32.0069,14.6047 -30.5374,14.7683 -29.0679,14.932 -27.588,14.983 -26.1108,14.921 -24.6335,14.859 -23.1631,14.684 -21.7125,14.3977 -20.2619,14.1115 -18.8353,13.7147 -17.4452,13.2108 -16.0551,12.7069 -14.7056,12.0975 -13.4084,11.3878 -12.1113,10.6782 -10.8703,9.87033 -9.69638,8.9714 -8.52244,8.07246 -7.41896,7.08506 -6.39561,6.01784 -5.37226,4.95061 -4.43203,3.80668 -3.58314,2.59606 -2.73425,1.38544 -1.97919,0.111664 -1.32456,-1.21411 -0.669939,-2.53989 -0.117666,-3.91379 0.327423,-5.3238 0.772513,-6.7338 1.10912,-8.17579 1.33429,-9.63713 1.55946,-11.0985 1.67254,-12.5749 1.67254,-14.0535 1.67254,-14.0535 -27.3275,-14.0535 -27.3275,-14.0535"/>
<ellipse fill="none" stroke="black" cx="-27.3275" cy="-14.0535" rx="29" ry="29"/>
</g>
<!-- 4 -->
<g id="node5" class="node"><title>4</title>
<ellipse fill="palegreen" stroke="black" cx="11.8104" cy="80.9301" rx="9" ry="9"/>
</g>
<!-- 2&#45;&gt;4 -->
<g id="edge15" class="edge"><title>2&#45;&gt;4</title>
<path fill="none" stroke="black" d="M-16.2168,12.9109C-7.90023,33.0944 2.94019,59.4029 8.38007,72.6049"/>
</g>
<!-- 13 -->
<g id="node14" class="node"><title>13</title>
<ellipse fill="palegreen" stroke="black" cx="-46.5742" cy="42.7753" rx="2.5" ry="2.5"/>
</g>
<!-- 2&#45;&gt;13 -->
<g id="edge16" class="edge"><title>2&#45;&gt;13</title>
<path fill="none" stroke="black" d="M-36.7253,13.695C-40.3895,24.5143 -44.0974,35.4623 -45.7223,40.2601"/>
</g>
<!-- 17 -->
<g id="node18" class="node"><title>17</title>
<ellipse fill="palegreen" stroke="black" cx="-0.225361" cy="-70.4652" rx="2.5" ry="2.5"/>
</g>
<!-- 2&#45;&gt;17 -->
<g id="edge17" class="edge"><title>2&#45;&gt;17</title>
<path fill="none" stroke="black" d="M-14.7285,-40.2776C-10.6645,-48.7367 -6.48564,-57.4348 -3.66388,-63.3081"/>
<polygon fill="black" stroke="black" points="-5.09168,-64.3775 -1.34898,-68.1265 -1.93688,-62.8617 -5.09168,-64.3775"/>
<text text-anchor="middle" x="-33.0234" y="-58.0339" font-family="monospace" font-size="14.00">F1529L</text>
</g>
<!-- 19 -->
<g id="node20" class="node"><title>19</title>
<ellipse fill="palegreen" stroke="black" cx="-86.3247" cy="-57.4247" rx="2.5" ry="2.5"/>
</g>
<!-- 2&#45;&gt;19 -->
<g id="edge18" class="edge"><title>2&#45;&gt;19</title>
<path fill="none" stroke="black" d="M-50.984,-31.4443C-64.0635,-41.0596 -78.7393,-51.8483 -84.1616,-55.8345"/>
</g>
<!-- 23 -->
<g id="node24" class="node"><title>23</title>
<ellipse fill="#787878" stroke="black" cx="62.2642" cy="-60.8501" rx="8" ry="8"/>
</g>
<!-- 2&#45;&gt;23 -->
<g id="edge19" class="edge"><title>2&#45;&gt;23</title>
<path fill="none" stroke="black" d="M-1.41383,-27.589C17.8109,-37.6307 42.7149,-50.6388 54.8969,-57.0019"/>
</g>
<!-- 27 -->
<g id="node28" class="node"><title>27</title>
<ellipse fill="#787878" stroke="black" cx="-103.835" cy="-22.8149" rx="2.5" ry="2.5"/>
</g>
<!-- 2&#45;&gt;27 -->
<g id="edge24" class="edge"><title>2&#45;&gt;27</title>
<path fill="none" stroke="black" d="M-56.2517,-17.3658C-73.855,-19.3817 -94.2654,-21.719 -101.3,-22.5247"/>
</g>
<!-- 28 -->
<g id="node29" class="node"><title>28</title>
<ellipse fill="#787878" stroke="black" cx="33.4312" cy="4.97154" rx="2.5" ry="2.5"/>
</g>
<!-- 2&#45;&gt;28 -->
<g id="edge25" class="edge"><title>2&#45;&gt;28</title>
<path fill="none" stroke="black" d="M0.562295,-5.32051C12.7912,-1.49135 25.5617,2.50742 30.8762,4.17151"/>
</g>
<!-- anon_2_24_0 -->
<g id="node63" class="node"><title>anon_2_24_0</title>
<ellipse fill="white" stroke="black" cx="-51.9227" cy="-95.7565" rx="1" ry="1"/>
</g>
<!-- 2&#45;&gt;anon_2_24_0 -->
<g id="edge20" class="edge"><title>2&#45;&gt;anon_2_24_0</title>
<path fill="none" stroke="black" d="M-35.7917,-42.171C-42.017,-62.8506 -49.6983,-88.3673 -51.5214,-94.4234"/>
</g>
<!-- anon_2_26_0 -->
<g id="node64" class="node"><title>anon_2_26_0</title>
<ellipse fill="white" stroke="black" cx="-101.581" cy="30.0489" rx="1" ry="1"/>
</g>
<!-- 2&#45;&gt;anon_2_26_0 -->
<g id="edge22" class="edge"><title>2&#45;&gt;anon_2_26_0</title>
<path fill="none" stroke="black" d="M-52.4664,0.877588C-71.3154,12.0727 -94.7823,26.0107 -100.354,29.3203"/>
</g>
<!-- 21 -->
<g id="node22" class="node"><title>21</title>
<ellipse fill="palegreen" stroke="black" cx="-16.1085" cy="128.477" rx="2.5" ry="2.5"/>
</g>
<!-- 4&#45;&gt;21 -->
<g id="edge28" class="edge"><title>4&#45;&gt;21</title>
<path fill="none" stroke="black" d="M7.2002,88.7815C0.757272,99.7542 -10.6033,119.102 -14.637,125.971"/>
</g>
<!-- anon_4_16_0 -->
<g id="node65" class="node"><title>anon_4_16_0</title>
<ellipse fill="white" stroke="black" cx="55.4031" cy="109.369" rx="1" ry="1"/>
</g>
<!-- 4&#45;&gt;anon_4_16_0 -->
<g id="edge26" class="edge"><title>4&#45;&gt;anon_4_16_0</title>
<path fill="none" stroke="black" d="M19.4037,85.8838C30.3321,93.0132 49.6978,105.647 54.3685,108.694"/>
</g>
<!-- 6 -->
<g id="node7" class="node"><title>6</title>
<ellipse fill="palegreen" stroke="black" cx="273.203" cy="-248.703" rx="2.5" ry="2.5"/>
</g>
<!-- 8 -->
<g id="node9" class="node"><title>8</title>
<ellipse fill="palegreen" stroke="black" cx="127.859" cy="-81.0114" rx="3.5" ry="3.5"/>
</g>
<!-- 8&#45;&gt;9 -->
<g id="edge29" class="edge"><title>8&#45;&gt;9</title>
<path fill="none" stroke="black" d="M130.592,-83.6357C136.492,-89.3025 150.487,-102.745 157.893,-109.858"/>
</g>
<!-- 8&#45;&gt;12 -->
<g id="edge54" class="edge"><title>8&#45;&gt;12</title>
<path fill="none" stroke="black" stroke-dasharray="5,2" d="M127.335,-84.7337C126.08,-93.645 122.917,-116.113 121.683,-124.873"/>
</g>
<!-- 15 -->
<g id="node16" class="node"><title>15</title>
<ellipse fill="palegreen" stroke="black" cx="55" cy="49" rx="2.5" ry="2.5"/>
</g>
<!-- 16 -->
<g id="node17" class="node"><title>16</title>
<ellipse fill="palegreen" stroke="black" cx="82.9304" cy="140.824" rx="2.5" ry="2.5"/>
</g>
<!-- 25 -->
<g id="node26" class="node"><title>25</title>
<ellipse fill="#787878" stroke="black" cx="113.749" cy="-52.7534" rx="2.5" ry="2.5"/>
</g>
<!-- 23&#45;&gt;25 -->
<g id="edge30" class="edge"><title>23&#45;&gt;25</title>
<path fill="none" stroke="black" d="M70.3087,-59.585C82.0737,-57.7347 103.398,-54.3812 110.981,-53.1887"/>
</g>
<!-- 29 -->
<g id="node30" class="node"><title>29</title>
<ellipse fill="#787878" stroke="black" cx="81.1242" cy="-110.402" rx="2.5" ry="2.5"/>
</g>
<!-- 23&#45;&gt;29 -->
<g id="edge31" class="edge"><title>23&#45;&gt;29</title>
<path fill="none" stroke="black" d="M65.2111,-68.5925C69.5209,-79.9159 77.3324,-100.439 80.1102,-107.738"/>
</g>
<!-- 24 -->
<g id="node25" class="node"><title>24</title>
<ellipse fill="#787878" stroke="black" cx="-69.8228" cy="-135.168" rx="2.5" ry="2.5"/>
</g>
<!-- 26 -->
<g id="node27" class="node"><title>26</title>
<ellipse fill="#787878" stroke="black" cx="-140.99" cy="48.291" rx="2.5" ry="2.5"/>
</g>
<!-- 30 -->
<g id="node31" class="node"><title>30</title>
<ellipse fill="#1874cd" stroke="black" cx="-144.09" cy="101.007" rx="14.5" ry="14.5"/>
</g>
<!-- 40 -->
<g id="node41" class="node"><title>40</title>
<ellipse fill="#1874cd" stroke="black" cx="-88.0626" cy="92.3032" rx="2.5" ry="2.5"/>
</g>
<!-- 30&#45;&gt;40 -->
<g id="edge32" class="edge"><title>30&#45;&gt;40</title>
<path fill="none" stroke="black" d="M-129.662,98.7659C-116.433,96.7107 -97.8718,93.8271 -90.877,92.7404"/>
</g>
<!-- 43 -->
<g id="node44" class="node"><title>43</title>
<ellipse fill="#1874cd" stroke="black" cx="-164.356" cy="153.938" rx="2.5" ry="2.5"/>
</g>
<!-- 30&#45;&gt;43 -->
<g id="edge33" class="edge"><title>30&#45;&gt;43</title>
<path fill="none" stroke="black" d="M-149.309,114.638C-154.094,127.136 -160.808,144.671 -163.338,151.28"/>
</g>
<!-- 47 -->
<g id="node48" class="node"><title>47</title>
<ellipse fill="#1874cd" stroke="black" cx="-179.491" cy="56.751" rx="2.5" ry="2.5"/>
</g>
<!-- 30&#45;&gt;47 -->
<g id="edge34" class="edge"><title>30&#45;&gt;47</title>
<path fill="none" stroke="black" d="M-153.391,89.3796C-161.75,78.9306 -173.361,64.4153 -177.733,58.9495"/>
</g>
<!-- 31 -->
<g id="node32" class="node"><title>31</title>
<ellipse fill="#1874cd" stroke="black" cx="68" cy="10" rx="2.5" ry="2.5"/>
</g>
<!-- 32 -->
<g id="node33" class="node"><title>32</title>
<ellipse fill="#1874cd" stroke="black" cx="-79.0964" cy="-227.863" rx="12" ry="12"/>
</g>
<!-- 38 -->
<g id="node39" class="node"><title>38</title>
<ellipse fill="#1874cd" stroke="black" cx="-121.822" cy="-186.908" rx="2.5" ry="2.5"/>
</g>
<!-- 32&#45;&gt;38 -->
<g id="edge35" class="edge"><title>32&#45;&gt;38</title>
<path fill="none" stroke="black" d="M-88.1573,-219.178C-98.3473,-209.41 -114.202,-194.212 -119.79,-188.856"/>
</g>
<!-- 39 -->
<g id="node40" class="node"><title>39</title>
<ellipse fill="#1874cd" stroke="black" cx="-72.6384" cy="-284.629" rx="2.5" ry="2.5"/>
</g>
<!-- 32&#45;&gt;39 -->
<g id="edge36" class="edge"><title>32&#45;&gt;39</title>
<path fill="none" stroke="black" d="M-77.7269,-239.902C-76.1866,-253.44 -73.7901,-274.505 -72.9456,-281.929"/>
</g>
<!-- 41 -->
<g id="node42" class="node"><title>41</title>
<ellipse fill="#1874cd" stroke="black" cx="-18.8184" cy="-218.707" rx="3.5" ry="3.5"/>
</g>
<!-- 32&#45;&gt;41 -->
<g id="edge37" class="edge"><title>32&#45;&gt;41</title>
<path fill="none" stroke="black" d="M-67.1874,-226.054C-55.4919,-224.278 -37.9298,-221.61 -27.4968,-220.025"/>
<polygon fill="black" stroke="black" points="-27.1971,-221.75 -22.5167,-219.269 -27.7228,-218.289 -27.1971,-221.75"/>
<text text-anchor="middle" x="-19.8614" y="-226.463" font-family="monospace" font-size="14.00">S2076T</text>
</g>
<!-- 44 -->
<g id="node45" class="node"><title>44</title>
<ellipse fill="#1874cd" stroke="black" cx="-65.3912" cy="-169.439" rx="4.5" ry="4.5"/>
</g>
<!-- 32&#45;&gt;44 -->
<g id="edge38" class="edge"><title>32&#45;&gt;44</title>
<path fill="none" stroke="black" d="M-76.323,-216.04C-73.2881,-203.103 -68.5751,-183.012 -66.4702,-174.039"/>
</g>
<!-- 45 -->
<g id="node46" class="node"><title>45</title>
<ellipse fill="#1874cd" stroke="black" cx="-127.33" cy="-259.163" rx="2.5" ry="2.5"/>
</g>
<!-- 32&#45;&gt;45 -->
<g id="edge39" class="edge"><title>32&#45;&gt;45</title>
<path fill="none" stroke="black" d="M-89.3255,-234.501C-98.6723,-240.566 -112.241,-249.371 -120.384,-254.655"/>
<polygon fill="black" stroke="black" points="-121.794,-253.484 -125.036,-257.674 -119.889,-256.42 -121.794,-253.484"/>
<text text-anchor="middle" x="-131.87" y="-234.686" font-family="monospace" font-size="14.00">L1617F</text>
</g>
<!-- 33 -->
<g id="node34" class="node"><title>33</title>
<ellipse fill="#1874cd" stroke="black" cx="-36.3256" cy="-136.237" rx="2.5" ry="2.5"/>
</g>
<!-- anon_33_36_0 -->
<g id="node66" class="node"><title>anon_33_36_0</title>
<ellipse fill="white" stroke="black" cx="3.0862" cy="-130.893" rx="1" ry="1"/>
</g>
<!-- 33&#45;&gt;anon_33_36_0 -->
<g id="edge40" class="edge"><title>33&#45;&gt;anon_33_36_0</title>
<path fill="none" stroke="black" d="M-33.7397,-135.887C-26.0676,-134.846 -3.62685,-131.803 1.86347,-131.058"/>
</g>
<!-- 34 -->
<g id="node35" class="node"><title>34</title>
<ellipse fill="#1874cd" stroke="black" cx="42" cy="-94" rx="2.5" ry="2.5"/>
</g>
<!-- 35 -->
<g id="node36" class="node"><title>35</title>
<ellipse fill="#1874cd" stroke="black" cx="-104.926" cy="-145.742" rx="2.5" ry="2.5"/>
</g>
<!-- 35&#45;&gt;38 -->
<g id="edge42" class="edge"><title>35&#45;&gt;38</title>
<path fill="none" stroke="black" d="M-106.034,-148.443C-109.147,-156.027 -117.931,-177.429 -120.859,-184.562"/>
</g>
<!-- 35&#45;&gt;44 -->
<g id="edge55" class="edge"><title>35&#45;&gt;44</title>
<path fill="none" stroke="black" stroke-dasharray="5,2" d="M-102.332,-147.297C-95.5978,-151.333 -77.5213,-162.168 -69.4179,-167.025"/>
</g>
<!-- 36 -->
<g id="node37" class="node"><title>36</title>
<ellipse fill="#1874cd" stroke="black" cx="42.2394" cy="-137.87" rx="2.5" ry="2.5"/>
</g>
<!-- 37 -->
<g id="node38" class="node"><title>37</title>
<path fill="#1874cd" stroke="black" stroke-width="0.5" d="M173.157,49.6138C173.157,49.6138 191.657,49.6138 191.657,49.6138 191.657,48.8961 191.615,48.179 191.532,47.4661 191.449,46.7532 191.324,46.0458 191.158,45.3474 190.993,44.649 190.787,43.9609 190.541,43.2864 190.296,42.612 190.011,41.9524 189.689,41.311 189.367,40.6696 189.008,40.0476 188.614,39.4479 188.219,38.8483 187.79,38.2721 187.329,37.7222 186.868,37.1724 186.375,36.6499 185.853,36.1574 185.33,35.6649 184.78,35.2031 184.204,34.7745 184.204,34.7745 173.157,49.6138 173.157,49.6138"/>
<path fill="olivedrab" stroke="black" stroke-width="0.5" d="M173.157,49.6138C173.157,49.6138 184.204,34.7745 184.204,34.7745 183.377,34.1582 182.499,33.6123 181.58,33.1424 180.661,32.6726 179.704,32.2804 178.72,31.9701 177.736,31.6597 176.727,31.4323 175.705,31.2901 174.683,31.148 173.651,31.0916 172.619,31.1216 171.587,31.1517 170.56,31.2679 169.548,31.4693 168.536,31.6706 167.542,31.9563 166.578,32.3234 165.613,32.6904 164.681,33.1375 163.791,33.66 162.901,34.1825 162.056,34.7786 161.265,35.442 160.475,36.1054 159.741,36.8338 159.072,37.6195 158.403,38.4052 157.801,39.2456 157.272,40.1318 156.743,41.018 156.289,41.9468 155.915,42.9087 155.541,43.8706 155.248,44.8621 155.039,45.8728 154.831,46.8835 154.707,47.9099 154.669,48.9413 154.632,49.9726 154.681,51.0053 154.815,52.0286 154.95,53.0518 155.17,54.0619 155.473,55.0484 155.776,56.0349 156.162,56.9943 156.625,57.9166 157.088,58.8389 157.628,59.7208 158.238,60.553 158.848,61.3853 159.527,62.1651 160.267,62.8842 161.008,63.6032 161.807,64.2591 162.656,64.8449 163.506,65.4307 164.403,65.9444 165.339,66.3805 166.274,66.8167 167.244,67.1738 168.239,67.4482 169.234,67.7225 170.25,67.9131 171.277,68.018 172.303,68.1229 173.337,68.1417 174.367,68.0742 175.397,68.0067 176.419,67.8532 177.423,67.6151 178.428,67.3771 179.41,67.0555 180.361,66.6537 181.311,66.2518 182.227,65.7711 183.097,65.2166 183.967,64.662 184.79,64.0357 185.556,63.344 186.322,62.6523 187.029,61.8977 187.669,61.0882 188.309,60.2786 188.88,59.4169 189.376,58.5121 189.873,57.6073 190.293,56.6625 190.632,55.6877 190.97,54.7129 191.227,53.7114 191.399,52.6937 191.571,51.6761 191.657,50.6459 191.657,49.6138 191.657,49.6138 173.157,49.6138 173.157,49.6138"/>
<ellipse fill="none" stroke="black" cx="173.157" cy="49.6138" rx="18.5" ry="18.5"/>
</g>
<!-- 50 -->
<g id="node51" class="node"><title>50</title>
<ellipse fill="olivedrab" stroke="black" cx="186.249" cy="-23.6023" rx="6" ry="6"/>
</g>
<!-- 37&#45;&gt;50 -->
<g id="edge43" class="edge"><title>37&#45;&gt;50</title>
<path fill="none" stroke="black" d="M176.461,31.1383C179.309,15.21 183.253,-6.84557 185.147,-17.4387"/>
</g>
<!-- 54 -->
<g id="node55" class="node"><title>54</title>
<ellipse fill="olivedrab" stroke="black" cx="238.421" cy="38.9185" rx="2.5" ry="2.5"/>
</g>
<!-- 37&#45;&gt;54 -->
<g id="edge44" class="edge"><title>37&#45;&gt;54</title>
<path fill="none" stroke="black" d="M191.685,46.5776C207.362,44.0084 228.417,40.558 235.762,39.3544"/>
</g>
<!-- 55 -->
<g id="node56" class="node"><title>55</title>
<ellipse fill="olivedrab" stroke="black" cx="125.988" cy="-5.54462" rx="7.5" ry="7.5"/>
</g>
<!-- 37&#45;&gt;55 -->
<g id="edge45" class="edge"><title>37&#45;&gt;55</title>
<path fill="none" stroke="black" d="M161.01,35.4091C151.292,24.0456 138.157,8.68501 131.054,0.379566"/>
</g>
<!-- 56 -->
<g id="node57" class="node"><title>56</title>
<ellipse fill="olivedrab" stroke="black" cx="106.045" cy="58.0681" rx="2.5" ry="2.5"/>
</g>
<!-- 37&#45;&gt;56 -->
<g id="edge46" class="edge"><title>37&#45;&gt;56</title>
<path fill="none" stroke="black" d="M154.462,51.9688C138.328,54.0013 116.449,56.7575 108.811,57.7196"/>
</g>
<!-- 57 -->
<g id="node58" class="node"><title>57</title>
<ellipse fill="olivedrab" stroke="black" cx="228.755" cy="87.3979" rx="2.5" ry="2.5"/>
</g>
<!-- 37&#45;&gt;57 -->
<g id="edge47" class="edge"><title>37&#45;&gt;57</title>
<path fill="none" stroke="black" d="M188.644,60.1388C202.011,69.2225 220.136,81.5404 226.464,85.8403"/>
</g>
<!-- 59 -->
<g id="node60" class="node"><title>59</title>
<ellipse fill="olivedrab" stroke="black" cx="131.953" cy="101.896" rx="2.5" ry="2.5"/>
</g>
<!-- 37&#45;&gt;59 -->
<g id="edge48" class="edge"><title>37&#45;&gt;59</title>
<path fill="none" stroke="black" d="M161.679,64.1772C151.774,76.7465 138.341,93.7908 133.652,99.7405"/>
</g>
<!-- 60 -->
<g id="node61" class="node"><title>60</title>
<ellipse fill="olivedrab" stroke="black" cx="183.656" cy="114.628" rx="2.5" ry="2.5"/>
</g>
<!-- 37&#45;&gt;60 -->
<g id="edge49" class="edge"><title>37&#45;&gt;60</title>
<path fill="none" stroke="black" d="M176.138,68.0703C178.206,80.8812 180.858,97.2972 182.396,106.822"/>
<polygon fill="black" stroke="black" points="184.159,106.763 183.228,111.978 180.704,107.321 184.159,106.763"/>
<text text-anchor="middle" x="158.674" y="86.1663" font-family="monospace" font-size="14.00">K251R</text>
</g>
<!-- 48 -->
<g id="node49" class="node"><title>48</title>
<ellipse fill="#1874cd" stroke="black" cx="-17.9761" cy="-170.071" rx="3.5" ry="3.5"/>
</g>
<!-- 41&#45;&gt;48 -->
<g id="edge50" class="edge"><title>41&#45;&gt;48</title>
<path fill="none" stroke="black" d="M-18.7523,-214.89C-18.5941,-205.754 -18.1951,-182.718 -18.0396,-173.736"/>
</g>
<!-- 49 -->
<g id="node50" class="node"><title>49</title>
<ellipse fill="#1874cd" stroke="black" cx="22.9976" cy="-236.479" rx="2.5" ry="2.5"/>
</g>
<!-- 41&#45;&gt;49 -->
<g id="edge51" class="edge"><title>41&#45;&gt;49</title>
<path fill="none" stroke="black" d="M-15.5372,-220.101C-7.52775,-223.506 12.9054,-232.19 20.2862,-235.327"/>
</g>
<!-- 42 -->
<g id="node43" class="node"><title>42</title>
<ellipse fill="#1874cd" stroke="black" cx="-88" cy="-94" rx="3.5" ry="3.5"/>
</g>
<!-- 44&#45;&gt;48 -->
<g id="edge56" class="edge"><title>44&#45;&gt;48</title>
<path fill="none" stroke="black" stroke-dasharray="5,2" d="M-60.6715,-169.502C-52.7608,-169.607 -36.71,-169.821 -26.6995,-169.954"/>
<polygon fill="black" stroke="black" points="-26.6335,-171.705 -21.6106,-170.022 -26.5868,-168.206 -26.6335,-171.705"/>
<text text-anchor="middle" x="-15.9397" y="-158.565" font-family="monospace" font-size="14.00">S2076T</text>
</g>
<!-- 46 -->
<g id="node47" class="node"><title>46</title>
<ellipse fill="#1874cd" stroke="black" cx="-88" cy="62" rx="2.5" ry="2.5"/>
</g>
<!-- 51 -->
<g id="node52" class="node"><title>51</title>
<ellipse fill="olivedrab" stroke="black" cx="222.092" cy="-59.1682" rx="3.5" ry="3.5"/>
</g>
<!-- 50&#45;&gt;51 -->
<g id="edge52" class="edge"><title>50&#45;&gt;51</title>
<path fill="none" stroke="black" d="M190.644,-27.9633C198.122,-35.383 213.11,-50.2554 219.31,-56.407"/>
</g>
<!-- 53 -->
<g id="node54" class="node"><title>53</title>
<ellipse fill="olivedrab" stroke="black" cx="143.682" cy="-52.2069" rx="3.5" ry="3.5"/>
</g>
<!-- 50&#45;&gt;53 -->
<g id="edge53" class="edge"><title>50&#45;&gt;53</title>
<path fill="none" stroke="black" d="M181.03,-27.1097C172.15,-33.0771 154.35,-45.0385 146.987,-49.9861"/>
</g>
<!-- 52 -->
<g id="node53" class="node"><title>52</title>
<ellipse fill="olivedrab" stroke="black" cx="-49" cy="88" rx="2.5" ry="2.5"/>
</g>
<!-- 53&#45;&gt;55 -->
<g id="edge57" class="edge"><title>53&#45;&gt;55</title>
<path fill="none" stroke="black" stroke-dasharray="5,2" d="M142.41,-48.851C139.557,-41.3281 132.597,-22.9743 128.716,-12.7397"/>
</g>
<!-- 58 -->
<g id="node59" class="node"><title>58</title>
<ellipse fill="olivedrab" stroke="black" cx="94" cy="101" rx="2.5" ry="2.5"/>
</g>
<!-- anon_1_6_0&#45;&gt;6 -->
<g id="edge5" class="edge"><title>anon_1_6_0&#45;&gt;6</title>
<path fill="none" stroke="black" d="M233.553,-232.249C238.737,-234.4 262.526,-244.272 270.551,-247.602"/>
</g>
<!-- anon_2_24_0&#45;&gt;24 -->
<g id="edge21" class="edge"><title>anon_2_24_0&#45;&gt;24</title>
<path fill="none" stroke="black" d="M-52.3652,-96.7308C-54.6479,-101.757 -65.1222,-124.818 -68.6553,-132.597"/>
</g>
<!-- anon_2_26_0&#45;&gt;26 -->
<g id="edge23" class="edge"><title>anon_2_26_0&#45;&gt;26</title>
<path fill="none" stroke="black" d="M-102.555,30.4999C-107.581,32.8262 -130.641,43.5005 -138.42,47.1011"/>
</g>
<!-- anon_4_16_0&#45;&gt;16 -->
<g id="edge27" class="edge"><title>anon_4_16_0&#45;&gt;16</title>
<path fill="none" stroke="black" d="M56.0835,110.147C59.5939,114.158 75.7016,132.564 81.1349,138.773"/>
</g>
<!-- anon_33_36_0&#45;&gt;36 -->
<g id="edge41" class="edge"><title>anon_33_36_0&#45;&gt;36</title>
<path fill="none" stroke="black" d="M4.3889,-131.125C10.0149,-132.127 32.2804,-136.095 39.7679,-137.43"/>
</g>
</g>
</svg>
