<?xml version="1.0" encoding="UTF-8" standalone="no"?>
<!DOCTYPE svg PUBLIC "-//W3C//DTD SVG 1.1//EN"
 "http://www.w3.org/Graphics/SVG/1.1/DTD/svg11.dtd">
<!-- Generated by graphviz version 2.38.0 (20140413.2041)
 -->
<!-- Title: %3 Pages: 1 -->
<svg width="262pt" height="140pt"
 viewBox="0.00 0.00 262.41 140.40" xmlns="http://www.w3.org/2000/svg" xmlns:xlink="http://www.w3.org/1999/xlink">
<g id="graph0" class="graph" transform="scale(1 1) rotate(0) translate(102.56 74.3741)">
<title>%3</title>
<polygon fill="white" stroke="none" points="-102.56,66.0258 -102.56,-74.3741 159.855,-74.3741 159.855,66.0258 -102.56,66.0258"/>
<!-- 0 -->
<g id="node1" class="node"><title>0</title>
<ellipse fill="#1874cd" stroke="black" cx="-53.4895" cy="5.53252" rx="5.5" ry="5.5"/>
</g>
<!-- 9 -->
<g id="node10" class="node"><title>9</title>
<ellipse fill="#1874cd" stroke="black" cx="-96.0602" cy="25.5203" rx="2.5" ry="2.5"/>
</g>
<!-- 0&#45;&gt;9 -->
<g id="edge2" class="edge"><title>0&#45;&gt;9</title>
<path fill="none" stroke="black" d="M-58.7095,7.98342C-67.9457,12.32 -86.8304,21.1867 -93.5875,24.3593"/>
</g>
<!-- 1 -->
<g id="node2" class="node"><title>1</title>
<ellipse fill="#1874cd" stroke="black" cx="91.589" cy="-1.44044" rx="14.5" ry="14.5"/>
</g>
<!-- 3 -->
<g id="node4" class="node"><title>3</title>
<ellipse fill="#1874cd" stroke="black" cx="126.394" cy="51.8374" rx="2.5" ry="2.5"/>
</g>
<!-- 1&#45;&gt;3 -->
<g id="edge5" class="edge"><title>1&#45;&gt;3</title>
<path fill="none" stroke="black" d="M99.6616,10.9165C108.016,23.7043 120.442,42.7261 124.808,49.4097"/>
</g>
<!-- 4 -->
<g id="node5" class="node"><title>4</title>
<ellipse fill="#1874cd" stroke="black" cx="98.4191" cy="-63.5655" rx="2.5" ry="2.5"/>
</g>
<!-- 1&#45;&gt;4 -->
<g id="edge6" class="edge"><title>1&#45;&gt;4</title>
<path fill="none" stroke="black" d="M93.2077,-16.1632C94.8487,-31.0898 97.2634,-53.0536 98.1112,-60.7653"/>
</g>
<!-- 5 -->
<g id="node6" class="node"><title>5</title>
<ellipse fill="#1874cd" stroke="black" cx="153.355" cy="8.59652" rx="2.5" ry="2.5"/>
</g>
<!-- 1&#45;&gt;5 -->
<g id="edge7" class="edge"><title>1&#45;&gt;5</title>
<path fill="none" stroke="black" d="M105.915,0.887469C120.74,3.29655 142.792,6.88005 150.54,8.13917"/>
</g>
<!-- 7 -->
<g id="node8" class="node"><title>7</title>
<ellipse fill="#1874cd" stroke="black" cx="141.117" cy="-41.1032" rx="2.5" ry="2.5"/>
</g>
<!-- 1&#45;&gt;7 -->
<g id="edge8" class="edge"><title>1&#45;&gt;7</title>
<path fill="none" stroke="black" d="M103.076,-10.6396C114.964,-20.1595 132.647,-34.3203 138.86,-39.2959"/>
</g>
<!-- 8 -->
<g id="node9" class="node"><title>8</title>
<ellipse fill="#1874cd" stroke="black" cx="78.9715" cy="59.5258" rx="2.5" ry="2.5"/>
</g>
<!-- 1&#45;&gt;8 -->
<g id="edge9" class="edge"><title>1&#45;&gt;8</title>
<path fill="none" stroke="black" d="M88.5989,13.0077C85.5673,27.6559 81.1064,49.21 79.5402,56.7778"/>
</g>
<!-- 2 -->
<g id="node3" class="node"><title>2</title>
<ellipse fill="#1874cd" stroke="black" cx="-11.8254" cy="-19.6029" rx="6" ry="6"/>
</g>
<!-- 2&#45;&gt;0 -->
<g id="edge1" class="edge"><title>2&#45;&gt;0</title>
<path fill="none" stroke="black" d="M-17.2722,-16.3169C-24.0674,-12.2174 -35.797,-5.14112 -44.0631,-0.15431"/>
<polygon fill="black" stroke="black" points="-43.5019,1.55095 -48.6872,2.63537 -45.31,-1.44593 -43.5019,1.55095"/>
<text text-anchor="middle" x="-49.6677" y="-11.6356" font-family="monospace" font-size="12.00">G317S</text>
</g>
<!-- 6 -->
<g id="node7" class="node"><title>6</title>
<ellipse fill="#1874cd" stroke="black" cx="-29.6781" cy="-67.8741" rx="2.5" ry="2.5"/>
</g>
<!-- 2&#45;&gt;6 -->
<g id="edge10" class="edge"><title>2&#45;&gt;6</title>
<path fill="none" stroke="black" d="M-14.0145,-25.5219C-17.9623,-36.1963 -26.1135,-58.236 -28.7988,-65.4968"/>
</g>
<!-- anon_1_2_0 -->
<g id="node11" class="node"><title>anon_1_2_0</title>
<ellipse fill="white" stroke="black" cx="39.0774" cy="-9.9989" rx="1" ry="1"/>
</g>
<!-- 2&#45;&gt;anon_1_2_0 -->
<g id="edge4" class="edge"><title>2&#45;&gt;anon_1_2_0</title>
<path fill="none" stroke="black" d="M-5.5837,-18.4252C4.17264,-16.5845 22.9326,-13.045 32.7447,-11.1937"/>
<polygon fill="black" stroke="black" points="33.127,-12.9025 37.7159,-10.2558 32.4781,-9.46321 33.127,-12.9025"/>
<text text-anchor="middle" x="36.5805" y="-18.2095" font-family="monospace" font-size="12.00">I1940T</text>
</g>
<!-- anon_1_2_0&#45;&gt;1 -->
<g id="edge3" class="edge"><title>anon_1_2_0&#45;&gt;1</title>
<path fill="none" stroke="black" d="M40.3755,-9.78734C44.77,-9.0711 59.5138,-6.66813 72.0601,-4.6233"/>
<polygon fill="black" stroke="black" points="72.6127,-6.30642 77.266,-3.77483 72.0496,-2.852 72.6127,-6.30642"/>
<text text-anchor="middle" x="37.2178" y="2.39468" font-family="monospace" font-size="12.00">D466H</text>
</g>
</g>
</svg>
