<?xml version="1.0" encoding="UTF-8" standalone="no"?>
<!DOCTYPE svg PUBLIC "-//W3C//DTD SVG 1.1//EN"
 "http://www.w3.org/Graphics/SVG/1.1/DTD/svg11.dtd">
<!-- Generated by graphviz version 2.38.0 (20140413.2041)
 -->
<!-- Title: %3 Pages: 1 -->
<svg width="231pt" height="300pt"
 viewBox="0.00 0.00 230.93 299.60" xmlns="http://www.w3.org/2000/svg" xmlns:xlink="http://www.w3.org/1999/xlink">
<g id="graph0" class="graph" transform="scale(1 1) rotate(0) translate(71.9456 163.435)">
<title>%3</title>
<polygon fill="white" stroke="none" points="-71.9456,136.165 -71.9456,-163.435 158.985,-163.435 158.985,136.165 -71.9456,136.165"/>
<!-- 0 -->
<g id="node1" class="node"><title>0</title>
<ellipse fill="#1874cd" stroke="black" cx="-5.39068" cy="-156.935" rx="2.5" ry="2.5"/>
</g>
<!-- 1 -->
<g id="node2" class="node"><title>1</title>
<path fill="#1874cd" stroke="black" stroke-width="0.5" d="M48.2133,-59.6136C48.2133,-59.6136 57.7133,-59.6136 57.7133,-59.6136 57.7133,-60.1469 57.6684,-60.6792 57.5791,-61.205 57.4897,-61.7307 57.3563,-62.248 57.1802,-62.7513 57.0041,-63.2546 56.7859,-63.7423 56.5279,-64.209 56.27,-64.6757 55.9732,-65.1199 55.6407,-65.5368 55.3082,-65.9537 54.9412,-66.3419 54.5436,-66.6972 54.146,-67.0526 53.7191,-67.3738 53.2676,-67.6575 52.8161,-67.9412 52.3415,-68.1864 51.8488,-68.3905 51.3561,-68.5946 50.8471,-68.7568 50.3272,-68.8755 49.8073,-68.9941 49.2784,-69.0688 48.746,-69.0987 48.2135,-69.1286 47.6795,-69.1136 47.1496,-69.0539 46.6197,-68.9942 46.0958,-68.89 45.5834,-68.7424 45.0709,-68.5947 44.5719,-68.4042 44.0914,-68.1729 43.6109,-67.9415 43.1508,-67.6701 42.7159,-67.3615 42.281,-67.0529 41.8729,-66.7082 41.4958,-66.3312 41.1187,-65.9541 40.774,-65.5459 40.4655,-65.111 40.1569,-64.6761 39.8855,-64.216 39.6541,-63.7355 39.6541,-63.7355 48.2133,-59.6136 48.2133,-59.6136"/>
<path fill="olivedrab" stroke="black" stroke-width="0.5" d="M48.2133,-59.6136C48.2133,-59.6136 39.6541,-63.7355 39.6541,-63.7355 39.4999,-63.4153 39.3638,-63.0867 39.2464,-62.7513 39.129,-62.4159 39.0306,-62.0741 38.9515,-61.7276 38.8724,-61.3811 38.8128,-61.0305 38.773,-60.6773 38.7332,-60.3242 38.7133,-59.969 38.7133,-59.6136 38.7133,-59.2583 38.7332,-58.9031 38.773,-58.55 38.8128,-58.1968 38.8724,-57.8462 38.9515,-57.4997 39.0306,-57.1532 39.129,-56.8114 39.2464,-56.476 39.3638,-56.1405 39.4999,-55.8119 39.6541,-55.4918 39.8083,-55.1716 39.9803,-54.8603 40.1694,-54.5593 40.3585,-54.2584 40.5643,-53.9684 40.7859,-53.6905 41.0075,-53.4126 41.2445,-53.1474 41.4958,-52.8961 41.7471,-52.6448 42.0123,-52.4078 42.2901,-52.1862 42.568,-51.9647 42.8581,-51.7588 43.159,-51.5698 43.4599,-51.3807 43.7712,-51.2086 44.0914,-51.0544 44.4116,-50.9002 44.7402,-50.7641 45.0756,-50.6468 45.4111,-50.5294 45.7529,-50.4309 46.0993,-50.3518 46.4458,-50.2728 46.7965,-50.2132 47.1496,-50.1734 47.5028,-50.1336 47.8579,-50.1136 48.2133,-50.1136 48.5687,-50.1136 48.9238,-50.1336 49.277,-50.1734 49.6301,-50.2132 49.9808,-50.2728 50.3272,-50.3518 50.6737,-50.4309 51.0155,-50.5294 51.3509,-50.6468 51.6864,-50.7641 52.015,-50.9002 52.3352,-51.0544 52.6554,-51.2086 52.9667,-51.3807 53.2676,-51.5698 53.5685,-51.7588 53.8586,-51.9647 54.1364,-52.1862 54.4143,-52.4078 54.6795,-52.6448 54.9308,-52.8961 55.1821,-53.1474 55.4191,-53.4126 55.6407,-53.6905 55.8623,-53.9684 56.0681,-54.2584 56.2572,-54.5593 56.4463,-54.8603 56.6183,-55.1716 56.7725,-55.4918 56.9267,-55.812 57.0628,-56.1405 57.1802,-56.476 57.2976,-56.8114 57.396,-57.1532 57.4751,-57.4997 57.5542,-57.8462 57.6138,-58.1968 57.6536,-58.55 57.6934,-58.9031 57.7133,-59.2583 57.7133,-59.6136 57.7133,-59.6136 48.2133,-59.6136 48.2133,-59.6136"/>
<ellipse fill="none" stroke="black" cx="48.2133" cy="-59.6136" rx="9.5" ry="9.5"/>
</g>
<!-- 2 -->
<g id="node3" class="node"><title>2</title>
<path fill="#1874cd" stroke="black" stroke-width="0.5" d="M-10.8799,-110.103C-10.8799,-110.103 -3.37988,-110.103 -3.37988,-110.103 -3.37988,-110.431 -3.40132,-110.758 -3.44405,-111.082 -3.48678,-111.407 -3.55071,-111.728 -3.63544,-112.044 -3.72017,-112.361 -3.82551,-112.671 -3.95079,-112.973 -4.07607,-113.276 -4.22101,-113.57 -4.38469,-113.853 -4.54838,-114.137 -4.73045,-114.409 -4.92973,-114.669 -5.12902,-114.929 -5.3451,-115.175 -5.57658,-115.407 -5.80807,-115.638 -6.05446,-115.854 -6.31417,-116.053 -6.57389,-116.253 -6.84638,-116.435 -7.12988,-116.598 -7.41339,-116.762 -7.70731,-116.907 -8.00976,-117.032 -8.31221,-117.158 -8.62253,-117.263 -8.93874,-117.348 -9.25495,-117.432 -9.57637,-117.496 -9.90094,-117.539 -10.2255,-117.582 -10.5525,-117.603 -10.8799,-117.603 -11.2073,-117.603 -11.5343,-117.582 -11.8588,-117.539 -12.1834,-117.496 -12.5048,-117.432 -12.821,-117.348 -13.1372,-117.263 -13.4476,-117.158 -13.75,-117.032 -14.0525,-116.907 -14.3464,-116.762 -14.6299,-116.598 -14.9134,-116.435 -15.1859,-116.253 -15.4456,-116.053 -15.7053,-115.854 -15.9517,-115.638 -16.1832,-115.407 -16.4147,-115.175 -16.6307,-114.929 -16.83,-114.669 -17.0293,-114.409 -17.2114,-114.137 -17.3751,-113.853 -17.5388,-113.57 -17.6837,-113.276 -17.809,-112.973 -17.9343,-112.671 -18.0396,-112.361 -18.1243,-112.044 -18.2091,-111.728 -18.273,-111.407 -18.3157,-111.082 -18.3585,-110.758 -18.3799,-110.431 -18.3799,-110.103 -18.3799,-109.776 -18.3585,-109.449 -18.3157,-109.124 -18.273,-108.8 -18.2091,-108.478 -18.1243,-108.162 -18.0396,-107.846 -17.9343,-107.536 -17.809,-107.233 -17.6837,-106.931 -17.5388,-106.637 -17.3751,-106.353 -17.2114,-106.07 -17.0293,-105.797 -16.83,-105.538 -16.6307,-105.278 -16.4147,-105.031 -16.1832,-104.8 -15.9517,-104.568 -15.7053,-104.352 -15.4456,-104.153 -15.1859,-103.954 -14.9134,-103.772 -14.6299,-103.608 -14.6299,-103.608 -10.8799,-110.103 -10.8799,-110.103"/>
<path fill="olivedrab" stroke="black" stroke-width="0.5" d="M-10.8799,-110.103C-10.8799,-110.103 -14.6299,-103.608 -14.6299,-103.608 -14.3464,-103.444 -14.0525,-103.299 -13.75,-103.174 -13.4476,-103.049 -13.1372,-102.944 -12.821,-102.859 -12.5048,-102.774 -12.1834,-102.71 -11.8588,-102.667 -11.5343,-102.625 -11.2072,-102.603 -10.8799,-102.603 -10.5525,-102.603 -10.2255,-102.625 -9.90094,-102.667 -9.57637,-102.71 -9.25495,-102.774 -8.93874,-102.859 -8.62253,-102.944 -8.31221,-103.049 -8.00976,-103.174 -7.70731,-103.299 -7.41339,-103.444 -7.12988,-103.608 -6.84638,-103.772 -6.57389,-103.954 -6.31417,-104.153 -6.05446,-104.352 -5.80807,-104.568 -5.57658,-104.8 -5.3451,-105.031 -5.12902,-105.278 -4.92973,-105.538 -4.73045,-105.797 -4.54838,-106.07 -4.38469,-106.353 -4.22101,-106.637 -4.07607,-106.931 -3.95079,-107.233 -3.82551,-107.536 -3.72017,-107.846 -3.63544,-108.162 -3.55071,-108.478 -3.48678,-108.8 -3.44405,-109.124 -3.40132,-109.449 -3.37988,-109.776 -3.37988,-110.103 -3.37988,-110.103 -10.8799,-110.103 -10.8799,-110.103"/>
<ellipse fill="none" stroke="black" cx="-10.8799" cy="-110.103" rx="7.5" ry="7.5"/>
</g>
<!-- 1&#45;&gt;2 -->
<g id="edge2" class="edge"><title>1&#45;&gt;2</title>
<path fill="none" stroke="black" d="M40.9673,-65.8047C30.427,-74.8103 10.8346,-91.5502 -1.01397,-101.674"/>
<polygon fill="black" stroke="black" points="-2.33312,-100.499 -4.99776,-105.078 -0.0595266,-103.16 -2.33312,-100.499"/>
<text text-anchor="middle" x="-3.02333" y="-87.1392" font-family="monospace" font-size="12.00">F1920S</text>
</g>
<!-- 4 -->
<g id="node5" class="node"><title>4</title>
<ellipse fill="olivedrab" stroke="black" cx="29.5726" cy="-20.7281" rx="2.5" ry="2.5"/>
</g>
<!-- 1&#45;&gt;4 -->
<g id="edge4" class="edge"><title>1&#45;&gt;4</title>
<path fill="none" stroke="black" d="M44.0763,-50.9837C39.7859,-42.0337 33.3469,-28.6015 30.7352,-23.1532"/>
</g>
<!-- 6 -->
<g id="node7" class="node"><title>6</title>
<ellipse fill="olivedrab" stroke="black" cx="3.68182" cy="-63.6263" rx="2.5" ry="2.5"/>
</g>
<!-- 1&#45;&gt;6 -->
<g id="edge5" class="edge"><title>1&#45;&gt;6</title>
<path fill="none" stroke="black" d="M38.3303,-60.5042C30.3229,-61.2257 19.1826,-62.2296 11.7167,-62.9023"/>
<polygon fill="black" stroke="black" points="11.2818,-61.1843 6.45905,-63.3761 11.596,-64.6702 11.2818,-61.1843"/>
<text text-anchor="middle" x="6.02352" y="-52.1033" font-family="monospace" font-size="12.00">K251R</text>
</g>
<!-- 8 -->
<g id="node9" class="node"><title>8</title>
<ellipse fill="#1874cd" stroke="black" cx="59.1935" cy="4.36894" rx="4.5" ry="4.5"/>
</g>
<!-- 1&#45;&gt;8 -->
<g id="edge6" class="edge"><title>1&#45;&gt;8</title>
<path fill="none" stroke="black" d="M49.8335,-50.1728C52.2197,-36.2682 56.5903,-10.7999 58.3883,-0.322885"/>
</g>
<!-- 12 -->
<g id="node13" class="node"><title>12</title>
<ellipse fill="olivedrab" stroke="black" cx="-5.6223" cy="-28.6365" rx="2.5" ry="2.5"/>
</g>
<!-- 1&#45;&gt;12 -->
<g id="edge9" class="edge"><title>1&#45;&gt;12</title>
<path fill="none" stroke="black" d="M39.8015,-54.7735C29.2218,-48.6859 11.2498,-38.3448 1.38125,-32.6663"/>
<polygon fill="black" stroke="black" points="2.03739,-31.0249 -3.1692,-30.048 0.291786,-34.0585 2.03739,-31.0249"/>
<text text-anchor="middle" x="39.5914" y="-34.1199" font-family="monospace" font-size="12.00">R537L</text>
</g>
<!-- 13 -->
<g id="node14" class="node"><title>13</title>
<ellipse fill="olivedrab" stroke="black" cx="51.8309" cy="-106.791" rx="2.5" ry="2.5"/>
</g>
<!-- 1&#45;&gt;13 -->
<g id="edge10" class="edge"><title>1&#45;&gt;13</title>
<path fill="none" stroke="black" d="M48.9454,-69.1608C49.7877,-80.1461 51.12,-97.5194 51.6264,-104.124"/>
</g>
<!-- anon_1_10_0 -->
<g id="node15" class="node"><title>anon_1_10_0</title>
<ellipse fill="white" stroke="black" cx="90.2385" cy="-98.2655" rx="1" ry="1"/>
</g>
<!-- 1&#45;&gt;anon_1_10_0 -->
<g id="edge7" class="edge"><title>1&#45;&gt;anon_1_10_0</title>
<path fill="none" stroke="black" d="M55.5335,-66.3463C66.069,-76.036 84.7384,-93.2069 89.2412,-97.3482"/>
</g>
<!-- 2&#45;&gt;0 -->
<g id="edge1" class="edge"><title>2&#45;&gt;0</title>
<path fill="none" stroke="black" d="M-9.97345,-117.837C-8.96401,-126.449 -7.34059,-140.299 -6.32141,-148.995"/>
<polygon fill="black" stroke="black" points="-8.04759,-149.301 -5.72734,-154.063 -4.57139,-148.893 -8.04759,-149.301"/>
<text text-anchor="middle" x="-31.1474" y="-123.816" font-family="monospace" font-size="12.00">N1570Y</text>
</g>
<!-- 5 -->
<g id="node6" class="node"><title>5</title>
<ellipse fill="olivedrab" stroke="black" cx="-51.7505" cy="-140.345" rx="2.5" ry="2.5"/>
</g>
<!-- 2&#45;&gt;5 -->
<g id="edge11" class="edge"><title>2&#45;&gt;5</title>
<path fill="none" stroke="black" d="M-16.9105,-114.566C-26.1477,-121.401 -43.3743,-134.147 -49.5095,-138.687"/>
</g>
<!-- 7 -->
<g id="node8" class="node"><title>7</title>
<ellipse fill="#1874cd" stroke="black" cx="-65.4456" cy="-91.4836" rx="2.5" ry="2.5"/>
</g>
<!-- 2&#45;&gt;7 -->
<g id="edge12" class="edge"><title>2&#45;&gt;7</title>
<path fill="none" stroke="black" d="M-18.0134,-107.669C-30.2619,-103.489 -54.7524,-95.1325 -62.8092,-92.3832"/>
</g>
<!-- 3 -->
<g id="node4" class="node"><title>3</title>
<ellipse fill="#1874cd" stroke="black" cx="99.9074" cy="-48.6267" rx="5.5" ry="5.5"/>
</g>
<!-- 3&#45;&gt;1 -->
<g id="edge3" class="edge"><title>3&#45;&gt;1</title>
<path fill="none" stroke="black" d="M94.3753,-49.8025C86.9228,-51.3864 73.3834,-54.264 62.8877,-56.4948"/>
<polygon fill="black" stroke="black" points="62.2518,-54.8408 57.7249,-57.5921 62.9795,-58.2643 62.2518,-54.8408"/>
<text text-anchor="middle" x="97.6315" y="-56.5486" font-family="monospace" font-size="12.00">L995F</text>
</g>
<!-- 9 -->
<g id="node10" class="node"><title>9</title>
<ellipse fill="#1874cd" stroke="black" cx="152.485" cy="-44.464" rx="2.5" ry="2.5"/>
</g>
<!-- 3&#45;&gt;9 -->
<g id="edge13" class="edge"><title>3&#45;&gt;9</title>
<path fill="none" stroke="black" d="M105.534,-48.1812C116.766,-47.2919 141.594,-45.3263 149.796,-44.6769"/>
</g>
<!-- anon_8_11_0 -->
<g id="node16" class="node"><title>anon_8_11_0</title>
<ellipse fill="white" stroke="black" cx="56.4186" cy="50.4" rx="1" ry="1"/>
</g>
<!-- 8&#45;&gt;anon_8_11_0 -->
<g id="edge14" class="edge"><title>8&#45;&gt;anon_8_11_0</title>
<path fill="none" stroke="black" d="M58.9173,8.95086C58.3031,19.1385 56.8507,43.2323 56.4972,49.0965"/>
</g>
<!-- 10 -->
<g id="node11" class="node"><title>10</title>
<ellipse fill="#1874cd" stroke="black" cx="118.271" cy="-127.076" rx="2.5" ry="2.5"/>
</g>
<!-- 11 -->
<g id="node12" class="node"><title>11</title>
<ellipse fill="#1874cd" stroke="black" cx="47.7058" cy="129.665" rx="2.5" ry="2.5"/>
</g>
<!-- anon_1_10_0&#45;&gt;10 -->
<g id="edge8" class="edge"><title>anon_1_10_0&#45;&gt;10</title>
<path fill="none" stroke="black" d="M91.4431,-99.5035C95.8026,-103.984 110.789,-119.386 116.255,-125.004"/>
</g>
<!-- anon_8_11_1 -->
<g id="node17" class="node"><title>anon_8_11_1</title>
<ellipse fill="white" stroke="black" cx="52.8931" cy="90.2857" rx="1" ry="1"/>
</g>
<!-- anon_8_11_0&#45;&gt;anon_8_11_1 -->
<g id="edge15" class="edge"><title>anon_8_11_0&#45;&gt;anon_8_11_1</title>
<path fill="none" stroke="black" d="M56.3013,51.7271C55.766,57.7828 53.5581,82.7624 53.0144,88.9127"/>
</g>
<!-- anon_8_11_1&#45;&gt;11 -->
<g id="edge16" class="edge"><title>anon_8_11_1&#45;&gt;11</title>
<path fill="none" stroke="black" d="M52.7205,91.5959C51.9751,97.2544 49.0252,119.648 48.0332,127.179"/>
</g>
</g>
</svg>
