<?xml version="1.0" encoding="UTF-8" standalone="no"?>
<!DOCTYPE svg PUBLIC "-//W3C//DTD SVG 1.1//EN"
 "http://www.w3.org/Graphics/SVG/1.1/DTD/svg11.dtd">
<!-- Generated by graphviz version 2.38.0 (20140413.2041)
 -->
<!-- Title: %3 Pages: 1 -->
<svg width="126pt" height="111pt"
 viewBox="0.00 0.00 126.27 111.33" xmlns="http://www.w3.org/2000/svg" xmlns:xlink="http://www.w3.org/1999/xlink">
<g id="graph0" class="graph" transform="scale(1 1) rotate(0) translate(74.5933 95.9322)">
<title>%3</title>
<polygon fill="white" stroke="none" points="-74.5933,15.3942 -74.5933,-95.9322 51.6787,-95.9322 51.6787,15.3942 -74.5933,15.3942"/>
<!-- 0 -->
<g id="node1" class="node"><title>0</title>
<ellipse fill="#1874cd" stroke="black" cx="6.37692" cy="-38.1716" rx="8" ry="8"/>
</g>
<!-- 2 -->
<g id="node3" class="node"><title>2</title>
<ellipse fill="#1874cd" stroke="black" cx="-17.5983" cy="8.89423" rx="2.5" ry="2.5"/>
</g>
<!-- 0&#45;&gt;2 -->
<g id="edge2" class="edge"><title>0&#45;&gt;2</title>
<path fill="none" stroke="black" d="M2.6308,-30.8176C-2.84791,-20.0623 -12.7781,-0.568351 -16.3093,6.36377"/>
</g>
<!-- 4 -->
<g id="node5" class="node"><title>4</title>
<ellipse fill="#1874cd" stroke="black" cx="41.7464" cy="-77.4009" rx="2.5" ry="2.5"/>
</g>
<!-- 0&#45;&gt;4 -->
<g id="edge5" class="edge"><title>0&#45;&gt;4</title>
<path fill="none" stroke="black" d="M11.9034,-44.3012C19.9859,-53.2657 34.6354,-69.5139 39.8448,-75.2918"/>
</g>
<!-- anon_0_3_0 -->
<g id="node6" class="node"><title>anon_0_3_0</title>
<ellipse fill="white" stroke="black" cx="-35.3584" cy="-66.8749" rx="1" ry="1"/>
</g>
<!-- 0&#45;&gt;anon_0_3_0 -->
<g id="edge3" class="edge"><title>0&#45;&gt;anon_0_3_0</title>
<path fill="none" stroke="black" d="M-0.51481,-42.9114C-10.8871,-50.0448 -29.785,-63.0418 -34.3474,-66.1796"/>
</g>
<!-- 1 -->
<g id="node2" class="node"><title>1</title>
<ellipse fill="#1874cd" stroke="black" cx="45.1787" cy="-11.4884" rx="2.5" ry="2.5"/>
</g>
<!-- 1&#45;&gt;0 -->
<g id="edge1" class="edge"><title>1&#45;&gt;0</title>
<path fill="none" stroke="black" d="M43.0926,-12.923C38.3308,-16.1976 26.3795,-24.4163 17.3962,-30.5939"/>
<polygon fill="black" stroke="black" points="16.3975,-29.1568 13.2692,-33.432 18.3807,-32.0407 16.3975,-29.1568"/>
<text text-anchor="middle" x="11.2444" y="-12.1584" font-family="monospace" font-size="12.00">L995F</text>
</g>
<!-- 3 -->
<g id="node4" class="node"><title>3</title>
<ellipse fill="#1874cd" stroke="black" cx="-68.0933" cy="-89.4322" rx="2.5" ry="2.5"/>
</g>
<!-- anon_0_3_0&#45;&gt;3 -->
<g id="edge4" class="edge"><title>anon_0_3_0&#45;&gt;3</title>
<path fill="none" stroke="black" d="M-36.7649,-67.8441C-41.8558,-71.3522 -59.3556,-83.4112 -65.7391,-87.81"/>
</g>
</g>
</svg>
