<?xml version="1.0" encoding="UTF-8" standalone="no"?>
<!DOCTYPE svg PUBLIC "-//W3C//DTD SVG 1.1//EN"
 "http://www.w3.org/Graphics/SVG/1.1/DTD/svg11.dtd">
<!-- Generated by graphviz version 2.38.0 (20140413.2041)
 -->
<!-- Title: %3 Pages: 1 -->
<svg width="311pt" height="216pt"
 viewBox="0.00 0.00 310.95 216.14" xmlns="http://www.w3.org/2000/svg" xmlns:xlink="http://www.w3.org/1999/xlink">
<g id="graph0" class="graph" transform="scale(1 1) rotate(0) translate(98.7551 165.365)">
<title>%3</title>
<polygon fill="white" stroke="none" points="-98.7551,50.777 -98.7551,-165.365 212.191,-165.365 212.191,50.777 -98.7551,50.777"/>
<!-- 0 -->
<g id="node1" class="node"><title>0</title>
<ellipse fill="#1874cd" stroke="black" cx="-17.6661" cy="39.6375" rx="2.5" ry="2.5"/>
</g>
<!-- 1 -->
<g id="node2" class="node"><title>1</title>
<path fill="#1874cd" stroke="black" stroke-width="0.5" d="M14.8576,-50.9551C14.8576,-50.9551 24.3576,-50.9551 24.3576,-50.9551 24.3576,-51.4884 24.3127,-52.0207 24.2233,-52.5464 24.134,-53.0721 24.0006,-53.5894 23.8245,-54.0928 23.6483,-54.5961 23.4301,-55.0837 23.1722,-55.5504 22.9142,-56.0172 22.6174,-56.4613 22.285,-56.8783 21.9525,-57.2952 21.5855,-57.6834 21.1879,-58.0387 20.7902,-58.394 20.3634,-58.7153 19.9119,-58.999 19.4603,-59.2827 18.9857,-59.5279 18.4931,-59.732 18.0004,-59.936 17.4914,-60.0983 16.9715,-60.2169 16.4516,-60.3356 15.9227,-60.4103 15.3902,-60.4402 14.8578,-60.4701 14.3238,-60.4551 13.7939,-60.3954 13.264,-60.3357 12.74,-60.2314 12.2276,-60.0838 11.7152,-59.9362 11.2161,-59.7457 10.7357,-59.5143 10.2552,-59.2829 9.79509,-59.0115 9.36018,-58.7029 8.92527,-58.3944 8.51712,-58.0497 8.14005,-57.6726 7.76297,-57.2955 7.41832,-56.8874 7.10973,-56.4525 6.80115,-56.0176 6.52973,-55.5575 6.29836,-55.077 6.29836,-55.077 14.8576,-50.9551 14.8576,-50.9551"/>
<path fill="olivedrab" stroke="black" stroke-width="0.5" d="M14.8576,-50.9551C14.8576,-50.9551 6.29836,-55.077 6.29836,-55.077 6.14416,-54.7568 6.00805,-54.4282 5.89067,-54.0928 5.77329,-53.7573 5.67483,-53.4155 5.59575,-53.0691 5.51666,-52.7226 5.45709,-52.3719 5.41729,-52.0188 5.3775,-51.6656 5.35756,-51.3105 5.35756,-50.9551 5.35756,-50.5997 5.3775,-50.2446 5.41729,-49.8914 5.45709,-49.5383 5.51666,-49.1876 5.59575,-48.8412 5.67483,-48.4947 5.77329,-48.1529 5.89067,-47.8175 6.00805,-47.482 6.14416,-47.1534 6.29836,-46.8332 6.45256,-46.513 6.6246,-46.2017 6.81368,-45.9008 7.00276,-45.5999 7.20858,-45.3098 7.43016,-45.032 7.65174,-44.7541 7.88875,-44.4889 8.14005,-44.2376 8.39135,-43.9863 8.65655,-43.7493 8.93441,-43.5277 9.21226,-43.3061 9.50234,-43.1003 9.80326,-42.9112 10.1042,-42.7221 10.4155,-42.5501 10.7357,-42.3959 11.0559,-42.2417 11.3845,-42.1056 11.7199,-41.9882 12.0554,-41.8708 12.3971,-41.7724 12.7436,-41.6933 13.0901,-41.6142 13.4407,-41.5546 13.7939,-41.5148 14.1471,-41.475 14.5022,-41.4551 14.8576,-41.4551 15.213,-41.4551 15.5681,-41.475 15.9212,-41.5148 16.2744,-41.5546 16.625,-41.6142 16.9715,-41.6933 17.318,-41.7724 17.6598,-41.8708 17.9952,-41.9882 18.3307,-42.1056 18.6593,-42.2417 18.9795,-42.3959 19.2997,-42.5501 19.6109,-42.7221 19.9119,-42.9112 20.2128,-43.1003 20.5029,-43.3061 20.7807,-43.5277 21.0586,-43.7493 21.3238,-43.9863 21.5751,-44.2376 21.8264,-44.4889 22.0634,-44.7541 22.285,-45.032 22.5065,-45.3098 22.7124,-45.5999 22.9014,-45.9008 23.0905,-46.2017 23.2626,-46.513 23.4168,-46.8332 23.571,-47.1534 23.7071,-47.482 23.8245,-47.8175 23.9418,-48.1529 24.0403,-48.4947 24.1194,-48.8412 24.1985,-49.1876 24.258,-49.5383 24.2978,-49.8914 24.3376,-50.2446 24.3576,-50.5997 24.3576,-50.9551 24.3576,-50.9551 14.8576,-50.9551 14.8576,-50.9551"/>
<ellipse fill="none" stroke="black" cx="14.8576" cy="-50.9551" rx="9.5" ry="9.5"/>
</g>
<!-- 2 -->
<g id="node3" class="node"><title>2</title>
<path fill="#1874cd" stroke="black" stroke-width="0.5" d="M-39.4311,-1.59553C-39.4311,-1.59553 -31.9311,-1.59553 -31.9311,-1.59553 -31.9311,-1.9229 -31.9525,-2.24991 -31.9952,-2.57448 -32.038,-2.89904 -32.1019,-3.22046 -32.1866,-3.53668 -32.2713,-3.85289 -32.3767,-4.16321 -32.502,-4.46566 -32.6272,-4.7681 -32.7722,-5.06203 -32.9359,-5.34553 -33.0996,-5.62904 -33.2816,-5.90153 -33.4809,-6.16124 -33.6802,-6.42096 -33.8963,-6.66735 -34.1278,-6.89883 -34.3592,-7.13032 -34.6056,-7.34639 -34.8654,-7.54568 -35.1251,-7.74497 -35.3976,-7.92704 -35.6811,-8.09072 -35.9646,-8.25441 -36.2585,-8.39935 -36.5609,-8.52463 -36.8634,-8.64991 -37.1737,-8.75525 -37.4899,-8.83998 -37.8061,-8.9247 -38.1276,-8.98864 -38.4521,-9.03137 -38.7767,-9.0741 -39.1037,-9.09553 -39.4311,-9.09553 -39.7584,-9.09553 -40.0854,-9.0741 -40.41,-9.03137 -40.7346,-8.98864 -41.056,-8.9247 -41.3722,-8.83998 -41.6884,-8.75525 -41.9987,-8.64991 -42.3012,-8.52463 -42.6036,-8.39935 -42.8976,-8.25441 -43.1811,-8.09072 -43.4646,-7.92704 -43.7371,-7.74497 -43.9968,-7.54568 -44.2565,-7.34639 -44.5029,-7.13032 -44.7344,-6.89883 -44.9658,-6.66735 -45.1819,-6.42096 -45.3812,-6.16124 -45.5805,-5.90153 -45.7626,-5.62904 -45.9263,-5.34553 -46.0899,-5.06202 -46.2349,-4.7681 -46.3602,-4.46566 -46.4854,-4.16321 -46.5908,-3.85289 -46.6755,-3.53667 -46.7602,-3.22046 -46.8242,-2.89904 -46.8669,-2.57448 -46.9096,-2.24991 -46.9311,-1.9229 -46.9311,-1.59553 -46.9311,-1.26817 -46.9096,-0.94115 -46.8669,-0.616585 -46.8242,-0.29202 -46.7602,0.0294 -46.6755,0.345611 -46.5908,0.661823 -46.4854,0.972147 -46.3602,1.27459 -46.2349,1.57704 -46.0899,1.87096 -45.9263,2.15447 -45.7626,2.43798 -45.5805,2.71046 -45.3812,2.97018 -45.1819,3.2299 -44.9658,3.47629 -44.7344,3.70777 -44.5029,3.93925 -44.2565,4.15533 -43.9968,4.35462 -43.7371,4.55391 -43.4646,4.73598 -43.1811,4.89966 -43.1811,4.89966 -39.4311,-1.59553 -39.4311,-1.59553"/>
<path fill="olivedrab" stroke="black" stroke-width="0.5" d="M-39.4311,-1.59553C-39.4311,-1.59553 -43.1811,4.89966 -43.1811,4.89966 -42.8976,5.06334 -42.6036,5.20829 -42.3012,5.33356 -41.9987,5.45884 -41.6884,5.56418 -41.3722,5.64891 -41.056,5.73364 -40.7346,5.79757 -40.41,5.8403 -40.0854,5.88303 -39.7584,5.90447 -39.4311,5.90447 -39.1037,5.90447 -38.7767,5.88303 -38.4521,5.8403 -38.1275,5.79757 -37.8061,5.73364 -37.4899,5.64891 -37.1737,5.56418 -36.8634,5.45884 -36.5609,5.33356 -36.2585,5.20829 -35.9646,5.06334 -35.6811,4.89966 -35.3976,4.73598 -35.1251,4.55391 -34.8654,4.35462 -34.6056,4.15533 -34.3592,3.93925 -34.1278,3.70777 -33.8963,3.47629 -33.6802,3.2299 -33.4809,2.97018 -33.2816,2.71046 -33.0996,2.43797 -32.9359,2.15447 -32.7722,1.87096 -32.6272,1.57704 -32.502,1.27459 -32.3767,0.972147 -32.2713,0.661822 -32.1866,0.34561 -32.1019,0.0293992 -32.038,-0.292021 -31.9952,-0.616586 -31.9525,-0.941151 -31.9311,-1.26817 -31.9311,-1.59553 -31.9311,-1.59553 -39.4311,-1.59553 -39.4311,-1.59553"/>
<ellipse fill="none" stroke="black" cx="-39.4311" cy="-1.59553" rx="7.5" ry="7.5"/>
</g>
<!-- 1&#45;&gt;2 -->
<g id="edge3" class="edge"><title>1&#45;&gt;2</title>
<path fill="none" stroke="black" d="M7.76027,-44.5022C-1.88156,-35.7358 -19.1479,-20.0371 -29.9081,-10.2539"/>
<polygon fill="black" stroke="black" points="-28.9394,-8.76942 -33.8162,-6.70062 -31.2939,-11.3591 -28.9394,-8.76942"/>
<text text-anchor="middle" x="-34.0739" y="-30.778" font-family="monospace" font-size="12.00">F1920S</text>
</g>
<!-- 4 -->
<g id="node5" class="node"><title>4</title>
<ellipse fill="olivedrab" stroke="black" cx="48.5703" cy="-26.2978" rx="2.5" ry="2.5"/>
</g>
<!-- 1&#45;&gt;4 -->
<g id="edge5" class="edge"><title>1&#45;&gt;4</title>
<path fill="none" stroke="black" d="M22.6767,-45.2362C30.4572,-39.5456 41.8849,-31.1874 46.5122,-27.8031"/>
</g>
<!-- 6 -->
<g id="node7" class="node"><title>6</title>
<ellipse fill="olivedrab" stroke="black" cx="39.5887" cy="3.43366" rx="2.5" ry="2.5"/>
</g>
<!-- 1&#45;&gt;6 -->
<g id="edge6" class="edge"><title>1&#45;&gt;6</title>
<path fill="none" stroke="black" d="M18.9414,-41.9739C23.8041,-31.2799 31.829,-13.6315 36.3076,-3.78211"/>
<polygon fill="black" stroke="black" points="38.0074,-4.27161 38.4841,1.00434 34.8214,-2.82282 38.0074,-4.27161"/>
<text text-anchor="middle" x="8.62452" y="-13.278" font-family="monospace" font-size="12.00">K251R</text>
</g>
<!-- 8 -->
<g id="node9" class="node"><title>8</title>
<ellipse fill="#1874cd" stroke="black" cx="2.05548" cy="3.19874" rx="2.5" ry="2.5"/>
</g>
<!-- 1&#45;&gt;8 -->
<g id="edge18" class="edge"><title>1&#45;&gt;8</title>
<path fill="none" stroke="black" stroke-dasharray="5,2" d="M12.6276,-41.5222C10.1597,-31.0826 6.22653,-14.4451 3.91722,-4.6766"/>
<polygon fill="black" stroke="black" points="5.57025,-4.06202 2.71681,0.401228 2.16413,-4.86729 5.57025,-4.06202"/>
<text text-anchor="middle" x="31.2724" y="-26.4994" font-family="monospace" font-size="12.00">N1570Y</text>
</g>
<!-- 9 -->
<g id="node10" class="node"><title>9</title>
<ellipse fill="#1874cd" stroke="black" cx="83.0943" cy="-43.5553" rx="4.5" ry="4.5"/>
</g>
<!-- 1&#45;&gt;9 -->
<g id="edge7" class="edge"><title>1&#45;&gt;9</title>
<path fill="none" stroke="black" d="M24.3456,-49.9262C39.1402,-48.3218 67.1652,-45.2827 78.3299,-44.0719"/>
</g>
<!-- 13 -->
<g id="node14" class="node"><title>13</title>
<ellipse fill="olivedrab" stroke="black" cx="-7.80981" cy="-89.6824" rx="2.5" ry="2.5"/>
</g>
<!-- 1&#45;&gt;13 -->
<g id="edge10" class="edge"><title>1&#45;&gt;13</title>
<path fill="none" stroke="black" d="M10.0504,-59.1682C5.98924,-66.1067 0.232103,-75.9428 -3.63782,-82.5546"/>
<polygon fill="black" stroke="black" points="-5.3506,-82.0165 -6.36603,-87.2157 -2.32996,-83.7846 -5.3506,-82.0165"/>
<text text-anchor="middle" x="-15.7937" y="-74.2614" font-family="monospace" font-size="12.00">R537L</text>
</g>
<!-- 14 -->
<g id="node15" class="node"><title>14</title>
<ellipse fill="olivedrab" stroke="black" cx="52.3087" cy="-84.7025" rx="2.5" ry="2.5"/>
</g>
<!-- 1&#45;&gt;14 -->
<g id="edge11" class="edge"><title>1&#45;&gt;14</title>
<path fill="none" stroke="black" d="M22.0785,-57.4619C30.7508,-65.2766 44.7981,-77.9347 50.147,-82.7546"/>
</g>
<!-- anon_1_11_0 -->
<g id="node16" class="node"><title>anon_1_11_0</title>
<ellipse fill="white" stroke="black" cx="-38.0075" cy="-74.9564" rx="1" ry="1"/>
</g>
<!-- 1&#45;&gt;anon_1_11_0 -->
<g id="edge8" class="edge"><title>1&#45;&gt;anon_1_11_0</title>
<path fill="none" stroke="black" d="M6.12797,-54.9184C-7.01031,-60.8834 -30.9478,-71.7513 -36.7269,-74.375"/>
</g>
<!-- 2&#45;&gt;0 -->
<g id="edge1" class="edge"><title>2&#45;&gt;0</title>
<path fill="none" stroke="black" d="M-35.837,5.21327C-31.8345,12.7959 -25.3976,24.9905 -21.3565,32.6462"/>
<polygon fill="black" stroke="black" points="-19.7874,31.87 -19.0009,37.1087 -22.8827,33.5039 -19.7874,31.87"/>
<text text-anchor="middle" x="-51.5968" y="15.5297" font-family="monospace" font-size="12.00">N1570Y</text>
</g>
<!-- 5 -->
<g id="node6" class="node"><title>5</title>
<ellipse fill="olivedrab" stroke="black" cx="-92.2551" cy="-6.39952" rx="2.5" ry="2.5"/>
</g>
<!-- 2&#45;&gt;5 -->
<g id="edge12" class="edge"><title>2&#45;&gt;5</title>
<path fill="none" stroke="black" d="M-47.2254,-2.30438C-59.1642,-3.39013 -81.4291,-5.41497 -89.3587,-6.13612"/>
</g>
<!-- 7 -->
<g id="node8" class="node"><title>7</title>
<ellipse fill="#1874cd" stroke="black" cx="-68.2699" cy="44.277" rx="2.5" ry="2.5"/>
</g>
<!-- 2&#45;&gt;7 -->
<g id="edge13" class="edge"><title>2&#45;&gt;7</title>
<path fill="none" stroke="black" d="M-43.441,4.78285C-50.0031,15.221 -62.7242,35.4557 -66.9031,42.103"/>
</g>
<!-- 3 -->
<g id="node4" class="node"><title>3</title>
<ellipse fill="#1874cd" stroke="black" cx="22.7954" cy="-104.291" rx="5.5" ry="5.5"/>
</g>
<!-- 3&#45;&gt;1 -->
<g id="edge4" class="edge"><title>3&#45;&gt;1</title>
<path fill="none" stroke="black" d="M21.9459,-98.583C20.7773,-90.731 18.634,-76.3297 17.0091,-65.4115"/>
<polygon fill="black" stroke="black" points="18.7266,-65.0632 16.2596,-60.3754 15.2647,-65.5785 18.7266,-65.0632"/>
<text text-anchor="middle" x="38.4775" y="-72.3973" font-family="monospace" font-size="12.00">L995F</text>
</g>
<!-- 10 -->
<g id="node11" class="node"><title>10</title>
<ellipse fill="#1874cd" stroke="black" cx="27.6429" cy="-158.865" rx="2.5" ry="2.5"/>
</g>
<!-- 3&#45;&gt;10 -->
<g id="edge14" class="edge"><title>3&#45;&gt;10</title>
<path fill="none" stroke="black" d="M23.3142,-110.131C24.3498,-121.79 26.6388,-147.56 27.395,-156.074"/>
</g>
<!-- 8&#45;&gt;0 -->
<g id="edge2" class="edge"><title>8&#45;&gt;0</title>
<path fill="none" stroke="black" d="M0.76149,5.58959C-2.13496,10.9413 -9.23805,24.0654 -13.7314,32.3676"/>
<polygon fill="black" stroke="black" points="-12.4225,33.6258 -16.3415,37.1901 -15.5006,31.9598 -12.4225,33.6258"/>
<text text-anchor="middle" x="-29.485" y="28.5786" font-family="monospace" font-size="12.00">F1920S</text>
</g>
<!-- anon_9_12_0 -->
<g id="node17" class="node"><title>anon_9_12_0</title>
<ellipse fill="white" stroke="black" cx="127.924" cy="-34.4005" rx="1" ry="1"/>
</g>
<!-- 9&#45;&gt;anon_9_12_0 -->
<g id="edge15" class="edge"><title>9&#45;&gt;anon_9_12_0</title>
<path fill="none" stroke="black" d="M87.5566,-42.644C97.4783,-40.6178 120.943,-35.826 126.654,-34.6597"/>
</g>
<!-- 11 -->
<g id="node12" class="node"><title>11</title>
<ellipse fill="#1874cd" stroke="black" cx="-68.0596" cy="-101.829" rx="2.5" ry="2.5"/>
</g>
<!-- 12 -->
<g id="node13" class="node"><title>12</title>
<ellipse fill="#1874cd" stroke="black" cx="205.691" cy="-17.6182" rx="2.5" ry="2.5"/>
</g>
<!-- anon_1_11_0&#45;&gt;11 -->
<g id="edge9" class="edge"><title>anon_1_11_0&#45;&gt;11</title>
<path fill="none" stroke="black" d="M-39.2988,-76.1111C-43.9725,-80.2903 -60.038,-94.6561 -65.8983,-99.8964"/>
</g>
<!-- anon_9_12_1 -->
<g id="node18" class="node"><title>anon_9_12_1</title>
<ellipse fill="white" stroke="black" cx="166.885" cy="-26.0855" rx="1" ry="1"/>
</g>
<!-- anon_9_12_0&#45;&gt;anon_9_12_1 -->
<g id="edge16" class="edge"><title>anon_9_12_0&#45;&gt;anon_9_12_1</title>
<path fill="none" stroke="black" d="M129.22,-34.1238C135.135,-32.8614 159.536,-27.6538 165.544,-26.3717"/>
</g>
<!-- anon_9_12_1&#45;&gt;12 -->
<g id="edge17" class="edge"><title>anon_9_12_1&#45;&gt;12</title>
<path fill="none" stroke="black" d="M168.176,-25.8037C173.752,-24.5871 195.82,-19.772 203.242,-18.1527"/>
</g>
</g>
</svg>
