<?xml version="1.0" encoding="UTF-8" standalone="no"?>
<!DOCTYPE svg PUBLIC "-//W3C//DTD SVG 1.1//EN"
 "http://www.w3.org/Graphics/SVG/1.1/DTD/svg11.dtd">
<!-- Generated by graphviz version 2.38.0 (20140413.2041)
 -->
<!-- Title: %3 Pages: 1 -->
<svg width="285pt" height="339pt"
 viewBox="0.00 0.00 285.44 338.58" xmlns="http://www.w3.org/2000/svg" xmlns:xlink="http://www.w3.org/1999/xlink">
<g id="graph0" class="graph" transform="scale(1 1) rotate(0) translate(82.612 175.331)">
<title>%3</title>
<polygon fill="white" stroke="none" points="-82.612,163.245 -82.612,-175.331 202.831,-175.331 202.831,163.245 -82.612,163.245"/>
<!-- 0 -->
<g id="node1" class="node"><title>0</title>
<path fill="olivedrab" stroke="black" stroke-width="0.5" d="M38.8325,12.3807C38.8325,12.3807 71.8325,12.3807 71.8325,12.3807 71.8325,11.2046 71.7697,10.0294 71.6442,8.86009 71.5187,7.69075 71.3309,6.52895 71.0814,5.37967 70.8319,4.23038 70.5211,3.09526 70.1504,1.97915 69.7797,0.86305 69.3496,-0.232442 68.862,-1.30263 68.3743,-2.37282 67.8298,-3.41617 67.2308,-4.42823 66.6318,-5.44029 65.979,-6.4196 65.2755,-7.36197 64.5719,-8.30434 63.8184,-9.20843 63.0183,-10.0704 62.2182,-10.9323 61.3726,-11.7508 60.4851,-12.5225 60.4851,-12.5225 38.8325,12.3807 38.8325,12.3807"/>
<path fill="#1874cd" stroke="black" stroke-width="0.5" d="M38.8325,12.3807C38.8325,12.3807 60.4851,-12.5225 60.4851,-12.5225 59.7809,-13.1347 59.0511,-13.7168 58.2976,-14.2672 57.5442,-14.8176 56.7677,-15.3358 55.9703,-15.8203 55.1729,-16.3049 54.3553,-16.7555 53.5197,-17.1707 52.6841,-17.586 51.8313,-17.9657 50.9635,-18.3087 50.0958,-18.6517 49.2139,-18.9578 48.3202,-19.226 47.4265,-19.4943 46.5218,-19.7245 45.6086,-19.9161 44.6954,-20.1077 43.7745,-20.2605 42.8483,-20.3741 41.9222,-20.4876 40.9916,-20.5618 40.0592,-20.5965 39.1267,-20.6312 38.1932,-20.6263 37.2612,-20.5819 36.3292,-20.5374 35.3994,-20.4535 34.4745,-20.3303 33.5496,-20.207 32.6303,-20.0446 31.7192,-19.8435 30.808,-19.6424 29.9058,-19.4027 29.0149,-19.1251 28.1241,-18.8475 27.2454,-18.5322 26.3813,-18.1802 25.5172,-17.8281 24.6684,-17.4396 23.8372,-17.0156 23.006,-16.5916 22.1932,-16.1325 21.4009,-15.6396 20.6086,-15.1467 19.8376,-14.6204 19.0899,-14.0622 18.3422,-13.504 17.6185,-12.9143 16.9208,-12.2947 16.2231,-11.6752 15.552,-11.0263 14.9093,-10.3498 14.2666,-9.67339 13.6528,-8.96999 13.0697,-8.24154 12.4866,-7.51308 11.9347,-6.76022 11.4154,-5.98499 10.8961,-5.20975 10.4099,-4.41284 9.95813,-3.59641 9.50637,-2.77997 9.08944,-1.94474 8.70846,-1.09296 8.32749,-0.241192 7.98281,0.626356 7.67537,1.50734 7.36792,2.38832 7.09797,3.28195 6.86626,4.18581 6.63454,5.08968 6.44127,6.00296 6.28695,6.9232 6.13264,7.84344 6.01743,8.76982 5.94162,9.69982 5.86582,10.6298 5.8295,11.5626 5.83275,12.4957 5.836,13.4288 5.87883,14.3613 5.96111,15.2908 6.0434,16.2202 6.16506,17.1458 6.32579,18.0649 6.48651,18.9841 6.68615,19.896 6.92416,20.7982 7.16217,21.7004 7.43834,22.5922 7.75192,23.471 8.0655,24.3498 8.41622,25.2149 8.80312,26.064 9.19002,26.9131 9.61276,27.7454 10.0702,28.5587 10.5276,29.372 11.0194,30.1655 11.5441,30.9371 12.0688,31.7087 12.6259,32.4576 13.2141,33.182 13.8023,33.9064 14.4209,34.6055 15.0683,35.2774 15.7157,35.9494 16.3914,36.5936 17.0934,37.2083 17.7954,37.8229 18.5231,38.4076 19.2747,38.9606 20.0263,39.5136 20.8009,40.0345 21.5966,40.5218 22.3923,41.0092 23.2084,41.4626 24.0425,41.8808 24.8766,42.299 25.7281,42.6816 26.5947,43.0276 27.4612,43.3737 28.3421,43.6828 29.2348,43.9542 30.1276,44.2255 31.0314,44.4589 31.944,44.6537 32.8565,44.8485 33.7769,45.0045 34.7026,45.1212 35.6284,45.238 36.5587,45.3155 37.491,45.3534 38.4233,45.3913 39.3568,45.3897 40.289,45.3485 41.2212,45.3074 42.1512,45.2267 43.0766,45.1067 44.0019,44.9867 44.9217,44.8275 45.8336,44.6295 46.7454,44.4315 47.6485,44.195 48.5403,43.9205 49.4321,43.646 50.3118,43.3338 51.1772,42.9848 52.0425,42.6357 52.8927,42.2501 53.7253,41.829 54.558,41.4079 55.3724,40.9517 56.1664,40.4616 56.9604,39.9715 57.7333,39.4479 58.4829,38.8923 59.2326,38.3366 59.9583,37.7495 60.6581,37.1323 61.358,36.5152 62.0314,35.8687 62.6765,35.1945 63.3215,34.5203 63.9377,33.819 64.5233,33.0926 65.109,32.3662 65.6636,31.6153 66.1855,30.8418 66.7075,30.0684 67.1965,29.2732 67.6511,28.4583 68.1057,27.6435 68.5255,26.8097 68.9095,25.9593 69.2934,25.1088 69.6411,24.2425 69.9516,23.3626 70.2622,22.4827 70.5352,21.59 70.7701,20.6869 71.0049,19.7839 71.2014,18.8713 71.3589,17.9516 71.5164,17.0319 71.6349,16.1059 71.7139,15.1762 71.793,14.2465 71.8325,13.3138 71.8325,12.3807 71.8325,12.3807 38.8325,12.3807 38.8325,12.3807"/>
<ellipse fill="none" stroke="black" cx="38.8325" cy="12.3807" rx="33" ry="33"/>
</g>
<!-- 1 -->
<g id="node2" class="node"><title>1</title>
<ellipse fill="#1874cd" stroke="black" cx="-27.854" cy="64.3338" rx="2.5" ry="2.5"/>
</g>
<!-- 0&#45;&gt;1 -->
<g id="edge1" class="edge"><title>0&#45;&gt;1</title>
<path fill="none" stroke="black" d="M12.4763,32.9139C-2.66877,44.7129 -19.8274,58.0806 -25.7294,62.6787"/>
</g>
<!-- 2 -->
<g id="node3" class="node"><title>2</title>
<ellipse fill="#1874cd" stroke="black" cx="68.0787" cy="-141.834" rx="2.5" ry="2.5"/>
</g>
<!-- 0&#45;&gt;2 -->
<g id="edge2" class="edge"><title>0&#45;&gt;2</title>
<path fill="none" stroke="black" d="M45.0349,-20.3243C52.6809,-60.6414 64.9861,-125.527 67.5864,-139.238"/>
</g>
<!-- 3 -->
<g id="node4" class="node"><title>3</title>
<ellipse fill="#1874cd" stroke="black" cx="109.464" cy="92.6396" rx="3.5" ry="3.5"/>
</g>
<!-- 0&#45;&gt;3 -->
<g id="edge3" class="edge"><title>0&#45;&gt;3</title>
<path fill="none" stroke="black" d="M60.7936,37.3352C77.6399,56.4778 99.2409,81.0233 106.749,89.5548"/>
</g>
<!-- 5 -->
<g id="node6" class="node"><title>5</title>
<ellipse fill="#1874cd" stroke="black" cx="-14.4016" cy="86.1847" rx="2.5" ry="2.5"/>
</g>
<!-- 0&#45;&gt;5 -->
<g id="edge4" class="edge"><title>0&#45;&gt;5</title>
<path fill="none" stroke="black" d="M19.3124,39.4435C6.73071,56.8868 -8.13329,77.4943 -12.8711,84.0628"/>
</g>
<!-- 6 -->
<g id="node7" class="node"><title>6</title>
<ellipse fill="#1874cd" stroke="black" cx="-76.112" cy="-22.7879" rx="2.5" ry="2.5"/>
</g>
<!-- 0&#45;&gt;6 -->
<g id="edge5" class="edge"><title>0&#45;&gt;6</title>
<path fill="none" stroke="black" d="M7.11918,2.67762C-22.385,-6.34954 -63.3089,-18.8707 -73.6588,-22.0374"/>
</g>
<!-- 7 -->
<g id="node8" class="node"><title>7</title>
<ellipse fill="#1874cd" stroke="black" cx="168.419" cy="9.61968" rx="2.5" ry="2.5"/>
</g>
<!-- 0&#45;&gt;7 -->
<g id="edge6" class="edge"><title>0&#45;&gt;7</title>
<path fill="none" stroke="black" d="M71.8681,11.6768C101.788,11.0394 143.711,10.1461 160.759,9.78291"/>
<polygon fill="black" stroke="black" points="160.809,8.03153 165.845,9.67453 160.884,11.5307 160.809,8.03153"/>
<text text-anchor="middle" x="97.3133" y="7.32987" font-family="monospace" font-size="12.00">A837V</text>
</g>
<!-- 9 -->
<g id="node10" class="node"><title>9</title>
<ellipse fill="#1874cd" stroke="black" cx="90.1559" cy="93.2147" rx="2.5" ry="2.5"/>
</g>
<!-- 0&#45;&gt;9 -->
<g id="edge7" class="edge"><title>0&#45;&gt;9</title>
<path fill="none" stroke="black" d="M56.783,40.6525C69.0394,59.9562 83.883,83.3348 88.6234,90.801"/>
</g>
<!-- 11 -->
<g id="node12" class="node"><title>11</title>
<ellipse fill="#1874cd" stroke="black" cx="179.051" cy="-17.0803" rx="2.5" ry="2.5"/>
</g>
<!-- 0&#45;&gt;11 -->
<g id="edge8" class="edge"><title>0&#45;&gt;11</title>
<path fill="none" stroke="black" d="M71.3538,5.5477C107.922,-2.1355 163.859,-13.8884 176.467,-16.5374"/>
</g>
<!-- 15 -->
<g id="node16" class="node"><title>15</title>
<ellipse fill="#1874cd" stroke="black" cx="-7.6368" cy="-130.834" rx="2.5" ry="2.5"/>
</g>
<!-- 0&#45;&gt;15 -->
<g id="edge13" class="edge"><title>0&#45;&gt;15</title>
<path fill="none" stroke="black" d="M28.6347,-19.0483C16.5586,-56.2655 -2.4641,-114.892 -6.75672,-128.121"/>
</g>
<!-- 16 -->
<g id="node17" class="node"><title>16</title>
<ellipse fill="#1874cd" stroke="black" cx="151.784" cy="58.5762" rx="2.5" ry="2.5"/>
</g>
<!-- 0&#45;&gt;16 -->
<g id="edge14" class="edge"><title>0&#45;&gt;16</title>
<path fill="none" stroke="black" d="M69.3989,24.8819C98.4072,36.7459 139.059,53.3719 149.346,57.5789"/>
</g>
<!-- 17 -->
<g id="node18" class="node"><title>17</title>
<ellipse fill="#1874cd" stroke="black" cx="-71.3225" cy="-64.4883" rx="2.5" ry="2.5"/>
</g>
<!-- 0&#45;&gt;17 -->
<g id="edge15" class="edge"><title>0&#45;&gt;17</title>
<path fill="none" stroke="black" d="M11.6032,-6.62063C-16.9393,-26.5383 -59.0224,-55.905 -69.0972,-62.9354"/>
</g>
<!-- 18 -->
<g id="node19" class="node"><title>18</title>
<ellipse fill="olivedrab" stroke="black" cx="143.124" cy="-109.446" rx="2.5" ry="2.5"/>
</g>
<!-- 0&#45;&gt;18 -->
<g id="edge16" class="edge"><title>0&#45;&gt;18</title>
<path fill="none" stroke="black" d="M60.4418,-12.8618C87.6482,-44.6426 131.978,-96.4255 141.349,-107.373"/>
</g>
<!-- 19 -->
<g id="node20" class="node"><title>19</title>
<ellipse fill="#1874cd" stroke="black" cx="-62.0391" cy="42.4342" rx="2.5" ry="2.5"/>
</g>
<!-- 0&#45;&gt;19 -->
<g id="edge17" class="edge"><title>0&#45;&gt;19</title>
<path fill="none" stroke="black" d="M7.1929,21.8074C-17.9983,29.3128 -50.4899,38.9933 -59.5808,41.7018"/>
</g>
<!-- anon_0_14_0 -->
<g id="node24" class="node"><title>anon_0_14_0</title>
<ellipse fill="white" stroke="black" cx="-22.8808" cy="26.8765" rx="1" ry="1"/>
</g>
<!-- 0&#45;&gt;anon_0_14_0 -->
<g id="edge9" class="edge"><title>0&#45;&gt;anon_0_14_0</title>
<path fill="none" stroke="black" d="M6.52993,19.9683C-6.06861,22.9275 -18.345,25.8111 -21.8738,26.64"/>
</g>
<!-- anon_1_14_0 -->
<g id="node27" class="node"><title>anon_1_14_0</title>
<ellipse fill="white" stroke="black" cx="8.54978" cy="45.9889" rx="1" ry="1"/>
</g>
<!-- 1&#45;&gt;anon_1_14_0 -->
<g id="edge23" class="edge"><title>1&#45;&gt;anon_1_14_0</title>
<path fill="none" stroke="black" stroke-dasharray="5,2" d="M-25.4654,63.1302C-18.3789,59.5591 2.34909,49.1136 7.42037,46.558"/>
</g>
<!-- anon_2_14_0 -->
<g id="node30" class="node"><title>anon_2_14_0</title>
<ellipse fill="white" stroke="black" cx="102.14" cy="-168.174" rx="1" ry="1"/>
</g>
<!-- 2&#45;&gt;anon_2_14_0 -->
<g id="edge27" class="edge"><title>2&#45;&gt;anon_2_14_0</title>
<path fill="none" stroke="black" stroke-dasharray="5,2" d="M70.3136,-143.562C76.9442,-148.69 96.3386,-163.687 101.084,-167.356"/>
</g>
<!-- anon_3_14_0 -->
<g id="node33" class="node"><title>anon_3_14_0</title>
<ellipse fill="white" stroke="black" cx="141.976" cy="70.637" rx="1" ry="1"/>
</g>
<!-- 3&#45;&gt;anon_3_14_0 -->
<g id="edge31" class="edge"><title>3&#45;&gt;anon_3_14_0</title>
<path fill="none" stroke="black" stroke-dasharray="5,2" d="M112.464,90.6091C119.507,85.843 136.82,74.1264 141.038,71.2717"/>
</g>
<!-- 4 -->
<g id="node5" class="node"><title>4</title>
<ellipse fill="#1874cd" stroke="black" cx="-14.8774" cy="141.904" rx="2.5" ry="2.5"/>
</g>
<!-- 20 -->
<g id="node21" class="node"><title>20</title>
<ellipse fill="#1874cd" stroke="black" cx="30.751" cy="101.499" rx="2.5" ry="2.5"/>
</g>
<!-- 4&#45;&gt;20 -->
<g id="edge20" class="edge"><title>4&#45;&gt;20</title>
<path fill="none" stroke="black" d="M-12.9168,140.168C-5.41137,133.522 21.4439,109.741 28.8485,103.184"/>
</g>
<!-- anon_5_14_0 -->
<g id="node36" class="node"><title>anon_5_14_0</title>
<ellipse fill="white" stroke="black" cx="3.46158" cy="64.5819" rx="1" ry="1"/>
</g>
<!-- 5&#45;&gt;anon_5_14_0 -->
<g id="edge35" class="edge"><title>5&#45;&gt;anon_5_14_0</title>
<path fill="none" stroke="black" stroke-dasharray="5,2" d="M-12.7531,84.1911C-9.02185,79.6787 -0.0436263,68.8209 2.67098,65.538"/>
</g>
<!-- anon_6_14_0 -->
<g id="node39" class="node"><title>anon_6_14_0</title>
<ellipse fill="white" stroke="black" cx="-71.3439" cy="-74.75" rx="1" ry="1"/>
</g>
<!-- 6&#45;&gt;anon_6_14_0 -->
<g id="edge39" class="edge"><title>6&#45;&gt;anon_6_14_0</title>
<path fill="none" stroke="black" stroke-dasharray="5,2" d="M-75.882,-25.2942C-75.0337,-34.5385 -72.0968,-66.5454 -71.4645,-73.4363"/>
</g>
<!-- anon_7_14_0 -->
<g id="node42" class="node"><title>anon_7_14_0</title>
<ellipse fill="white" stroke="black" cx="194.261" cy="-37.4267" rx="1" ry="1"/>
</g>
<!-- 7&#45;&gt;anon_7_14_0 -->
<g id="edge43" class="edge"><title>7&#45;&gt;anon_7_14_0</title>
<path fill="none" stroke="black" stroke-dasharray="5,2" d="M169.666,7.35054C174.344,-1.16613 190.742,-31.0214 193.776,-36.5445"/>
</g>
<!-- 8 -->
<g id="node9" class="node"><title>8</title>
<ellipse fill="#1874cd" stroke="black" cx="20.8995" cy="143.893" rx="2.5" ry="2.5"/>
</g>
<!-- anon_9_14_0 -->
<g id="node45" class="node"><title>anon_9_14_0</title>
<ellipse fill="white" stroke="black" cx="128.744" cy="68.2215" rx="1" ry="1"/>
</g>
<!-- 9&#45;&gt;anon_9_14_0 -->
<g id="edge47" class="edge"><title>9&#45;&gt;anon_9_14_0</title>
<path fill="none" stroke="black" stroke-dasharray="5,2" d="M92.6878,91.5748C100.199,86.7095 122.171,72.4786 127.546,68.9969"/>
</g>
<!-- 10 -->
<g id="node11" class="node"><title>10</title>
<ellipse fill="#1874cd" stroke="black" cx="52.4847" cy="-42.5322" rx="2.5" ry="2.5"/>
</g>
<!-- anon_11_14_0 -->
<g id="node48" class="node"><title>anon_11_14_0</title>
<ellipse fill="white" stroke="black" cx="197.831" cy="-69.8488" rx="1" ry="1"/>
</g>
<!-- 11&#45;&gt;anon_11_14_0 -->
<g id="edge51" class="edge"><title>11&#45;&gt;anon_11_14_0</title>
<path fill="none" stroke="black" stroke-dasharray="5,2" d="M179.956,-19.6255C183.356,-29.178 195.274,-62.6644 197.479,-68.8592"/>
</g>
<!-- 12 -->
<g id="node13" class="node"><title>12</title>
<ellipse fill="#1874cd" stroke="black" cx="55.0152" cy="-39.0061" rx="2.5" ry="2.5"/>
</g>
<!-- 13 -->
<g id="node14" class="node"><title>13</title>
<ellipse fill="#1874cd" stroke="black" cx="60.7829" cy="-46.159" rx="2.5" ry="2.5"/>
</g>
<!-- 14 -->
<g id="node15" class="node"><title>14</title>
<ellipse fill="#1874cd" stroke="black" cx="68.8821" cy="-60.2421" rx="2.5" ry="2.5"/>
</g>
<!-- anon_7_14_2 -->
<g id="node44" class="node"><title>anon_7_14_2</title>
<ellipse fill="white" stroke="black" cx="115.404" cy="-69.7726" rx="1" ry="1"/>
</g>
<!-- 14&#45;&gt;anon_7_14_2 -->
<g id="edge46" class="edge"><title>14&#45;&gt;anon_7_14_2</title>
<path fill="none" stroke="black" stroke-dasharray="5,2" d="M71.3833,-60.7545C78.3852,-62.1889 98.3531,-66.2796 108.82,-68.4238"/>
<polygon fill="black" stroke="black" points="108.659,-70.1771 113.909,-69.4663 109.362,-66.7483 108.659,-70.1771"/>
<text text-anchor="middle" x="71.1017" y="-67.9892" font-family="monospace" font-size="12.00">A837V</text>
</g>
<!-- anon_14_15_0 -->
<g id="node51" class="node"><title>anon_14_15_0</title>
<ellipse fill="white" stroke="black" cx="60.1565" cy="-110.982" rx="1" ry="1"/>
</g>
<!-- 14&#45;&gt;anon_14_15_0 -->
<g id="edge55" class="edge"><title>14&#45;&gt;anon_14_15_0</title>
<path fill="none" stroke="black" stroke-dasharray="5,2" d="M68.413,-62.9701C66.7988,-72.3565 61.5107,-103.107 60.3733,-109.721"/>
</g>
<!-- anon_14_16_0 -->
<g id="node54" class="node"><title>anon_14_16_0</title>
<ellipse fill="white" stroke="black" cx="114.874" cy="-46.9227" rx="1" ry="1"/>
</g>
<!-- 14&#45;&gt;anon_14_16_0 -->
<g id="edge59" class="edge"><title>14&#45;&gt;anon_14_16_0</title>
<path fill="none" stroke="black" stroke-dasharray="5,2" d="M71.3549,-59.526C79.7138,-57.1052 106.764,-49.2714 113.396,-47.3508"/>
</g>
<!-- anon_14_17_0 -->
<g id="node57" class="node"><title>anon_14_17_0</title>
<ellipse fill="white" stroke="black" cx="25.9233" cy="-92.9089" rx="1" ry="1"/>
</g>
<!-- 14&#45;&gt;anon_14_17_0 -->
<g id="edge63" class="edge"><title>14&#45;&gt;anon_14_17_0</title>
<path fill="none" stroke="black" stroke-dasharray="5,2" d="M66.8101,-61.8177C59.0334,-67.7312 31.7721,-88.4613 26.729,-92.2962"/>
</g>
<!-- anon_14_18_0 -->
<g id="node60" class="node"><title>anon_14_18_0</title>
<ellipse fill="white" stroke="black" cx="85.2925" cy="-106.062" rx="1" ry="1"/>
</g>
<!-- 14&#45;&gt;anon_14_18_0 -->
<g id="edge67" class="edge"><title>14&#45;&gt;anon_14_18_0</title>
<path fill="none" stroke="black" stroke-dasharray="5,2" d="M69.7644,-62.7056C72.7469,-71.0333 82.3987,-97.9826 84.7651,-104.59"/>
</g>
<!-- anon_14_19_0 -->
<g id="node63" class="node"><title>anon_14_19_0</title>
<ellipse fill="white" stroke="black" cx="13.2386" cy="-51.7797" rx="1" ry="1"/>
</g>
<!-- 14&#45;&gt;anon_14_19_0 -->
<g id="edge71" class="edge"><title>14&#45;&gt;anon_14_19_0</title>
<path fill="none" stroke="black" stroke-dasharray="5,2" d="M66.1983,-59.8339C56.1253,-58.302 20.8144,-52.9319 14.2821,-51.9384"/>
</g>
<!-- anon_14_20_0 -->
<g id="node66" class="node"><title>anon_14_20_0</title>
<ellipse fill="white" stroke="black" cx="70.0787" cy="-10.2029" rx="1" ry="1"/>
</g>
<!-- 14&#45;&gt;anon_14_20_0 -->
<g id="edge75" class="edge"><title>14&#45;&gt;anon_14_20_0</title>
<path fill="none" stroke="black" stroke-dasharray="5,2" d="M68.9464,-57.5518C69.1678,-48.2949 69.893,-17.9691 70.049,-11.4461"/>
</g>
<!-- anon_14_22_0 -->
<g id="node69" class="node"><title>anon_14_22_0</title>
<ellipse fill="white" stroke="black" cx="44.2829" cy="-100.992" rx="1" ry="1"/>
</g>
<!-- 14&#45;&gt;anon_14_22_0 -->
<g id="edge79" class="edge"><title>14&#45;&gt;anon_14_22_0</title>
<path fill="none" stroke="black" stroke-dasharray="5,2" d="M67.5596,-62.433C63.0887,-69.8392 48.6207,-93.8065 45.0735,-99.6826"/>
</g>
<!-- 20&#45;&gt;0 -->
<g id="edge18" class="edge"><title>20&#45;&gt;0</title>
<path fill="none" stroke="black" d="M30.9842,98.9284C31.6399,91.6978 33.5684,70.4304 35.3496,50.7887"/>
<polygon fill="black" stroke="black" points="33.6281,50.3947 35.8226,45.5732 37.1138,50.7108 33.6281,50.3947"/>
<text text-anchor="middle" x="14.1669" y="84.4586" font-family="monospace" font-size="12.00">L995F</text>
</g>
<!-- 20&#45;&gt;8 -->
<g id="edge21" class="edge"><title>20&#45;&gt;8</title>
<path fill="none" stroke="black" d="M30.1643,104.024C28.7098,110.283 24.8929,126.708 22.638,136.412"/>
<polygon fill="black" stroke="black" points="24.3072,136.961 21.4708,141.435 20.8981,136.168 24.3072,136.961"/>
<text text-anchor="middle" x="7.40111" y="116.818" font-family="monospace" font-size="12.00">L995S</text>
</g>
<!-- 21 -->
<g id="node22" class="node"><title>21</title>
<ellipse fill="#1874cd" stroke="black" cx="60.332" cy="156.745" rx="2.5" ry="2.5"/>
</g>
<!-- 20&#45;&gt;21 -->
<g id="edge22" class="edge"><title>20&#45;&gt;21</title>
<path fill="none" stroke="black" d="M32.0221,103.873C36.8878,112.961 54.2981,145.476 59.0986,154.441"/>
</g>
<!-- anon_14_20_2 -->
<g id="node68" class="node"><title>anon_14_20_2</title>
<ellipse fill="white" stroke="black" cx="61.178" cy="88.9243" rx="1" ry="1"/>
</g>
<!-- 20&#45;&gt;anon_14_20_2 -->
<g id="edge78" class="edge"><title>20&#45;&gt;anon_14_20_2</title>
<path fill="none" stroke="black" stroke-dasharray="5,2" d="M33.1386,100.513C37.858,98.5622 48.5056,94.1617 55.2373,91.3796"/>
<polygon fill="black" stroke="black" points="54.7468,89.6887 60.0362,89.3962 56.0837,92.9234 54.7468,89.6887"/>
<text text-anchor="middle" x="63.1879" y="105.546" font-family="monospace" font-size="12.00">L995F</text>
</g>
<!-- 22 -->
<g id="node23" class="node"><title>22</title>
<ellipse fill="#1874cd" stroke="black" cx="-25.1721" cy="-43.5897" rx="2.5" ry="2.5"/>
</g>
<!-- 22&#45;&gt;0 -->
<g id="edge19" class="edge"><title>22&#45;&gt;0</title>
<path fill="none" stroke="black" d="M-23.0426,-41.7275C-17.7686,-37.1155 -3.54992,-24.6817 9.92871,-12.895"/>
<polygon fill="black" stroke="black" points="11.0908,-14.2035 13.7027,-9.5947 8.78681,-11.5688 11.0908,-14.2035"/>
<text text-anchor="middle" x="12.4431" y="-30.7112" font-family="monospace" font-size="12.00">R254K</text>
</g>
<!-- anon_0_14_1 -->
<g id="node25" class="node"><title>anon_0_14_1</title>
<ellipse fill="white" stroke="black" cx="-12.6043" cy="-14.4596" rx="1" ry="1"/>
</g>
<!-- anon_0_14_0&#45;&gt;anon_0_14_1 -->
<g id="edge10" class="edge"><title>anon_0_14_0&#45;&gt;anon_0_14_1</title>
<path fill="none" stroke="black" d="M-22.6268,25.8547C-21.2421,20.285 -14.6072,-6.40339 -12.9701,-12.9885"/>
</g>
<!-- anon_0_14_2 -->
<g id="node26" class="node"><title>anon_0_14_2</title>
<ellipse fill="white" stroke="black" cx="31.4883" cy="-45.2959" rx="1" ry="1"/>
</g>
<!-- anon_0_14_1&#45;&gt;anon_0_14_2 -->
<g id="edge11" class="edge"><title>anon_0_14_1&#45;&gt;anon_0_14_2</title>
<path fill="none" stroke="black" d="M-11.5144,-15.2219C-5.36105,-19.5252 24.957,-40.7282 30.5876,-44.666"/>
</g>
<!-- anon_0_14_2&#45;&gt;14 -->
<g id="edge12" class="edge"><title>anon_0_14_2&#45;&gt;14</title>
<path fill="none" stroke="black" d="M32.7325,-45.7932C38.1057,-47.9408 59.3706,-56.4404 66.5217,-59.2986"/>
</g>
<!-- anon_1_14_1 -->
<g id="node28" class="node"><title>anon_1_14_1</title>
<ellipse fill="white" stroke="black" cx="48.4356" cy="2.52176" rx="1" ry="1"/>
</g>
<!-- anon_1_14_0&#45;&gt;anon_1_14_1 -->
<g id="edge24" class="edge"><title>anon_1_14_0&#45;&gt;anon_1_14_1</title>
<path fill="none" stroke="black" stroke-dasharray="5,2" d="M9.24208,45.2344C14.042,40.0035 42.3313,9.17419 47.5934,3.43966"/>
</g>
<!-- anon_1_14_2 -->
<g id="node29" class="node"><title>anon_1_14_2</title>
<ellipse fill="white" stroke="black" cx="83.1689" cy="-87.3736" rx="1" ry="1"/>
</g>
<!-- anon_1_14_1&#45;&gt;anon_1_14_2 -->
<g id="edge25" class="edge"><title>anon_1_14_1&#45;&gt;anon_1_14_2</title>
<path fill="none" stroke="black" stroke-dasharray="5,2" d="M48.8257,1.51219C52.3733,-7.66958 79.0081,-76.6046 82.736,-86.2532"/>
</g>
<!-- anon_1_14_2&#45;&gt;14 -->
<g id="edge26" class="edge"><title>anon_1_14_2&#45;&gt;14</title>
<path fill="none" stroke="black" stroke-dasharray="5,2" d="M82.555,-86.2078C80.3759,-82.0695 72.9873,-68.0381 70.0756,-62.5086"/>
</g>
<!-- anon_2_14_1 -->
<g id="node31" class="node"><title>anon_2_14_1</title>
<ellipse fill="white" stroke="black" cx="108.489" cy="-123.14" rx="1" ry="1"/>
</g>
<!-- anon_2_14_0&#45;&gt;anon_2_14_1 -->
<g id="edge28" class="edge"><title>anon_2_14_0&#45;&gt;anon_2_14_1</title>
<path fill="none" stroke="black" stroke-dasharray="5,2" d="M102.297,-167.06C103.168,-160.884 107.4,-130.871 108.315,-124.38"/>
</g>
<!-- anon_2_14_2 -->
<g id="node32" class="node"><title>anon_2_14_2</title>
<ellipse fill="white" stroke="black" cx="50.0761" cy="-38.7887" rx="1" ry="1"/>
</g>
<!-- anon_2_14_1&#45;&gt;anon_2_14_2 -->
<g id="edge29" class="edge"><title>anon_2_14_1&#45;&gt;anon_2_14_2</title>
<path fill="none" stroke="black" stroke-dasharray="5,2" d="M107.833,-122.193C101.817,-113.505 56.3181,-47.8024 50.6543,-39.6235"/>
</g>
<!-- anon_2_14_2&#45;&gt;14 -->
<g id="edge30" class="edge"><title>anon_2_14_2&#45;&gt;14</title>
<path fill="none" stroke="black" stroke-dasharray="5,2" d="M50.8842,-39.7105C53.6964,-42.9186 63.0996,-53.6455 67.0789,-58.185"/>
</g>
<!-- anon_3_14_1 -->
<g id="node34" class="node"><title>anon_3_14_1</title>
<ellipse fill="white" stroke="black" cx="122.748" cy="20.8199" rx="1" ry="1"/>
</g>
<!-- anon_3_14_0&#45;&gt;anon_3_14_1 -->
<g id="edge32" class="edge"><title>anon_3_14_0&#45;&gt;anon_3_14_1</title>
<path fill="none" stroke="black" stroke-dasharray="5,2" d="M141.501,69.4055C138.817,62.4533 125.596,28.1992 123.141,21.8376"/>
</g>
<!-- anon_3_14_2 -->
<g id="node35" class="node"><title>anon_3_14_2</title>
<ellipse fill="white" stroke="black" cx="90.1249" cy="-25.8963" rx="1" ry="1"/>
</g>
<!-- anon_3_14_1&#45;&gt;anon_3_14_2 -->
<g id="edge33" class="edge"><title>anon_3_14_1&#45;&gt;anon_3_14_2</title>
<path fill="none" stroke="black" stroke-dasharray="5,2" d="M121.941,19.6652C117.389,13.1457 94.9572,-18.9763 90.7913,-24.9419"/>
</g>
<!-- anon_3_14_2&#45;&gt;14 -->
<g id="edge34" class="edge"><title>anon_3_14_2&#45;&gt;14</title>
<path fill="none" stroke="black" stroke-dasharray="5,2" d="M89.2121,-27.3721C85.9085,-32.7134 74.5523,-51.0744 70.4098,-57.772"/>
</g>
<!-- anon_5_14_1 -->
<g id="node37" class="node"><title>anon_5_14_1</title>
<ellipse fill="white" stroke="black" cx="9.21789" cy="16.7843" rx="1" ry="1"/>
</g>
<!-- anon_5_14_0&#45;&gt;anon_5_14_1 -->
<g id="edge36" class="edge"><title>anon_5_14_0&#45;&gt;anon_5_14_1</title>
<path fill="none" stroke="black" stroke-dasharray="5,2" d="M3.60387,63.4004C4.39334,56.845 8.22968,24.9899 9.05944,18.1001"/>
</g>
<!-- anon_5_14_2 -->
<g id="node38" class="node"><title>anon_5_14_2</title>
<ellipse fill="white" stroke="black" cx="41.583" cy="-29.1071" rx="1" ry="1"/>
</g>
<!-- anon_5_14_1&#45;&gt;anon_5_14_2 -->
<g id="edge37" class="edge"><title>anon_5_14_1&#45;&gt;anon_5_14_2</title>
<path fill="none" stroke="black" stroke-dasharray="5,2" d="M10.0179,15.6499C14.5346,9.24556 36.7888,-22.3093 40.9218,-28.1696"/>
</g>
<!-- anon_5_14_2&#45;&gt;14 -->
<g id="edge38" class="edge"><title>anon_5_14_2&#45;&gt;14</title>
<path fill="none" stroke="black" stroke-dasharray="5,2" d="M42.2578,-29.8767C45.7391,-33.8472 61.7132,-52.0658 67.1015,-58.2112"/>
</g>
<!-- anon_6_14_1 -->
<g id="node40" class="node"><title>anon_6_14_1</title>
<ellipse fill="white" stroke="black" cx="-22.8872" cy="-100.066" rx="1" ry="1"/>
</g>
<!-- anon_6_14_0&#45;&gt;anon_6_14_1 -->
<g id="edge40" class="edge"><title>anon_6_14_0&#45;&gt;anon_6_14_1</title>
<path fill="none" stroke="black" stroke-dasharray="5,2" d="M-70.1461,-75.3758C-63.3837,-78.9088 -30.0649,-96.3161 -23.8771,-99.5489"/>
</g>
<!-- anon_6_14_2 -->
<g id="node41" class="node"><title>anon_6_14_2</title>
<ellipse fill="white" stroke="black" cx="31.3612" cy="-77.3034" rx="1" ry="1"/>
</g>
<!-- anon_6_14_1&#45;&gt;anon_6_14_2 -->
<g id="edge41" class="edge"><title>anon_6_14_1&#45;&gt;anon_6_14_2</title>
<path fill="none" stroke="black" stroke-dasharray="5,2" d="M-21.9456,-99.671C-15.4173,-96.9317 23.0588,-80.7871 30.2157,-77.784"/>
</g>
<!-- anon_6_14_2&#45;&gt;14 -->
<g id="edge42" class="edge"><title>anon_6_14_2&#45;&gt;14</title>
<path fill="none" stroke="black" stroke-dasharray="5,2" d="M32.2887,-76.8816C37.0735,-74.7059 59.0289,-64.7225 66.4347,-61.3549"/>
</g>
<!-- anon_7_14_1 -->
<g id="node43" class="node"><title>anon_7_14_1</title>
<ellipse fill="white" stroke="black" cx="167.882" cy="-72.9545" rx="1" ry="1"/>
</g>
<!-- anon_7_14_0&#45;&gt;anon_7_14_1 -->
<g id="edge44" class="edge"><title>anon_7_14_0&#45;&gt;anon_7_14_1</title>
<path fill="none" stroke="black" stroke-dasharray="5,2" d="M193.608,-38.305C190.054,-43.0921 173.023,-66.0303 168.82,-71.69"/>
</g>
<!-- anon_7_14_1&#45;&gt;anon_7_14_2 -->
<g id="edge45" class="edge"><title>anon_7_14_1&#45;&gt;anon_7_14_2</title>
<path fill="none" stroke="black" stroke-dasharray="5,2" d="M166.584,-72.8758C159.261,-72.4318 123.177,-70.2439 116.476,-69.8376"/>
</g>
<!-- anon_9_14_1 -->
<g id="node46" class="node"><title>anon_9_14_1</title>
<ellipse fill="white" stroke="black" cx="137.116" cy="10.885" rx="1" ry="1"/>
</g>
<!-- anon_9_14_0&#45;&gt;anon_9_14_1 -->
<g id="edge48" class="edge"><title>anon_9_14_0&#45;&gt;anon_9_14_1</title>
<path fill="none" stroke="black" stroke-dasharray="5,2" d="M128.889,67.2263C129.897,60.3264 135.835,19.6601 136.94,12.0958"/>
</g>
<!-- anon_9_14_2 -->
<g id="node47" class="node"><title>anon_9_14_2</title>
<ellipse fill="white" stroke="black" cx="99.5955" cy="-34.5999" rx="1" ry="1"/>
</g>
<!-- anon_9_14_1&#45;&gt;anon_9_14_2 -->
<g id="edge49" class="edge"><title>anon_9_14_1&#45;&gt;anon_9_14_2</title>
<path fill="none" stroke="black" stroke-dasharray="5,2" d="M136.465,10.0955C131.95,4.62182 105.338,-27.6386 100.388,-33.6394"/>
</g>
<!-- anon_9_14_2&#45;&gt;14 -->
<g id="edge50" class="edge"><title>anon_9_14_2&#45;&gt;14</title>
<path fill="none" stroke="black" stroke-dasharray="5,2" d="M98.2758,-35.7017C93.4993,-39.6895 77.0802,-53.3976 71.0909,-58.398"/>
</g>
<!-- anon_11_14_1 -->
<g id="node49" class="node"><title>anon_11_14_1</title>
<ellipse fill="white" stroke="black" cx="159.913" cy="-95.0905" rx="1" ry="1"/>
</g>
<!-- anon_11_14_0&#45;&gt;anon_11_14_1 -->
<g id="edge52" class="edge"><title>anon_11_14_0&#45;&gt;anon_11_14_1</title>
<path fill="none" stroke="black" stroke-dasharray="5,2" d="M196.893,-70.4727C191.784,-73.8739 167.303,-90.171 161.262,-94.1921"/>
</g>
<!-- anon_11_14_2 -->
<g id="node50" class="node"><title>anon_11_14_2</title>
<ellipse fill="white" stroke="black" cx="104.094" cy="-81.0478" rx="1" ry="1"/>
</g>
<!-- anon_11_14_1&#45;&gt;anon_11_14_2 -->
<g id="edge53" class="edge"><title>anon_11_14_1&#45;&gt;anon_11_14_2</title>
<path fill="none" stroke="black" stroke-dasharray="5,2" d="M158.533,-94.7433C150.743,-92.7836 112.363,-83.1279 105.235,-81.3347"/>
</g>
<!-- anon_11_14_2&#45;&gt;14 -->
<g id="edge54" class="edge"><title>anon_11_14_2&#45;&gt;14</title>
<path fill="none" stroke="black" stroke-dasharray="5,2" d="M103.224,-80.5335C98.7336,-77.8803 78.1291,-65.7058 71.1789,-61.5992"/>
</g>
<!-- anon_14_15_1 -->
<g id="node52" class="node"><title>anon_14_15_1</title>
<ellipse fill="white" stroke="black" cx="48.4138" cy="-163.839" rx="1" ry="1"/>
</g>
<!-- anon_14_15_0&#45;&gt;anon_14_15_1 -->
<g id="edge56" class="edge"><title>anon_14_15_0&#45;&gt;anon_14_15_1</title>
<path fill="none" stroke="black" stroke-dasharray="5,2" d="M59.8662,-112.288C58.2275,-119.665 50.1532,-156.01 48.6537,-162.76"/>
</g>
<!-- anon_14_15_2 -->
<g id="node53" class="node"><title>anon_14_15_2</title>
<ellipse fill="white" stroke="black" cx="4.43489" cy="-170.331" rx="1" ry="1"/>
</g>
<!-- anon_14_15_1&#45;&gt;anon_14_15_2 -->
<g id="edge57" class="edge"><title>anon_14_15_1&#45;&gt;anon_14_15_2</title>
<path fill="none" stroke="black" stroke-dasharray="5,2" d="M47.3267,-164C41.4008,-164.875 13.0062,-169.066 6.00012,-170.1"/>
</g>
<!-- anon_14_15_2&#45;&gt;15 -->
<g id="edge58" class="edge"><title>anon_14_15_2&#45;&gt;15</title>
<path fill="none" stroke="black" stroke-dasharray="5,2" d="M4.13648,-169.355C2.59705,-164.318 -4.46671,-141.206 -6.8494,-133.41"/>
</g>
<!-- anon_14_16_1 -->
<g id="node55" class="node"><title>anon_14_16_1</title>
<ellipse fill="white" stroke="black" cx="160.935" cy="-20.9952" rx="1" ry="1"/>
</g>
<!-- anon_14_16_0&#45;&gt;anon_14_16_1 -->
<g id="edge60" class="edge"><title>anon_14_16_0&#45;&gt;anon_14_16_1</title>
<path fill="none" stroke="black" stroke-dasharray="5,2" d="M116.013,-46.2818C122.441,-42.6635 154.112,-24.8358 159.994,-21.5249"/>
</g>
<!-- anon_14_16_2 -->
<g id="node56" class="node"><title>anon_14_16_2</title>
<ellipse fill="white" stroke="black" cx="177.647" cy="28.7456" rx="1" ry="1"/>
</g>
<!-- anon_14_16_1&#45;&gt;anon_14_16_2 -->
<g id="edge61" class="edge"><title>anon_14_16_1&#45;&gt;anon_14_16_2</title>
<path fill="none" stroke="black" stroke-dasharray="5,2" d="M161.348,-19.7657C163.681,-12.8241 175.172,21.3776 177.306,27.7294"/>
</g>
<!-- anon_14_16_2&#45;&gt;16 -->
<g id="edge62" class="edge"><title>anon_14_16_2&#45;&gt;16</title>
<path fill="none" stroke="black" stroke-dasharray="5,2" d="M176.536,30.0274C172.514,34.6665 158.688,50.6138 153.644,56.4309"/>
</g>
<!-- anon_14_17_1 -->
<g id="node58" class="node"><title>anon_14_17_1</title>
<ellipse fill="white" stroke="black" cx="-23.5399" cy="-123.599" rx="1" ry="1"/>
</g>
<!-- anon_14_17_0&#45;&gt;anon_14_17_1 -->
<g id="edge64" class="edge"><title>anon_14_17_0&#45;&gt;anon_14_17_1</title>
<path fill="none" stroke="black" stroke-dasharray="5,2" d="M25.0648,-93.4415C19.1124,-97.1348 -15.9698,-118.902 -22.4954,-122.951"/>
</g>
<!-- anon_14_17_2 -->
<g id="node59" class="node"><title>anon_14_17_2</title>
<ellipse fill="white" stroke="black" cx="-67.6119" cy="-104.981" rx="1" ry="1"/>
</g>
<!-- anon_14_17_1&#45;&gt;anon_14_17_2 -->
<g id="edge65" class="edge"><title>anon_14_17_1&#45;&gt;anon_14_17_2</title>
<path fill="none" stroke="black" stroke-dasharray="5,2" d="M-24.6293,-123.139C-30.5677,-120.63 -59.0224,-108.61 -66.0433,-105.644"/>
</g>
<!-- anon_14_17_2&#45;&gt;17 -->
<g id="edge66" class="edge"><title>anon_14_17_2&#45;&gt;17</title>
<path fill="none" stroke="black" stroke-dasharray="5,2" d="M-67.7036,-103.98C-68.1768,-98.8164 -70.3481,-75.122 -71.0804,-67.1295"/>
</g>
<!-- anon_14_18_1 -->
<g id="node61" class="node"><title>anon_14_18_1</title>
<ellipse fill="white" stroke="black" cx="111.456" cy="-150.195" rx="1" ry="1"/>
</g>
<!-- anon_14_18_0&#45;&gt;anon_14_18_1 -->
<g id="edge68" class="edge"><title>anon_14_18_0&#45;&gt;anon_14_18_1</title>
<path fill="none" stroke="black" stroke-dasharray="5,2" d="M85.9392,-107.153C89.5905,-113.312 107.581,-143.657 110.922,-149.293"/>
</g>
<!-- anon_14_18_2 -->
<g id="node62" class="node"><title>anon_14_18_2</title>
<ellipse fill="white" stroke="black" cx="146.252" cy="-149.554" rx="1" ry="1"/>
</g>
<!-- anon_14_18_1&#45;&gt;anon_14_18_2 -->
<g id="edge69" class="edge"><title>anon_14_18_1&#45;&gt;anon_14_18_2</title>
<path fill="none" stroke="black" stroke-dasharray="5,2" d="M112.951,-150.167C118.779,-150.06 139.904,-149.671 145.094,-149.576"/>
</g>
<!-- anon_14_18_2&#45;&gt;18 -->
<g id="edge70" class="edge"><title>anon_14_18_2&#45;&gt;18</title>
<path fill="none" stroke="black" stroke-dasharray="5,2" d="M146.148,-148.22C145.698,-142.456 143.919,-119.648 143.321,-111.977"/>
</g>
<!-- anon_14_19_1 -->
<g id="node64" class="node"><title>anon_14_19_1</title>
<ellipse fill="white" stroke="black" cx="-41.8215" cy="-33.5677" rx="1" ry="1"/>
</g>
<!-- anon_14_19_0&#45;&gt;anon_14_19_1 -->
<g id="edge72" class="edge"><title>anon_14_19_0&#45;&gt;anon_14_19_1</title>
<path fill="none" stroke="black" stroke-dasharray="5,2" d="M12.2829,-51.4636C5.65694,-49.272 -33.3948,-36.3549 -40.6588,-33.9523"/>
</g>
<!-- anon_14_19_2 -->
<g id="node65" class="node"><title>anon_14_19_2</title>
<ellipse fill="white" stroke="black" cx="-73.9781" cy="4.94307" rx="1" ry="1"/>
</g>
<!-- anon_14_19_1&#45;&gt;anon_14_19_2 -->
<g id="edge73" class="edge"><title>anon_14_19_1&#45;&gt;anon_14_19_2</title>
<path fill="none" stroke="black" stroke-dasharray="5,2" d="M-42.6164,-32.6157C-47.104,-27.2414 -69.2149,-0.761405 -73.3212,4.15635"/>
</g>
<!-- anon_14_19_2&#45;&gt;19 -->
<g id="edge74" class="edge"><title>anon_14_19_2&#45;&gt;19</title>
<path fill="none" stroke="black" stroke-dasharray="5,2" d="M-73.5809,6.19047C-71.8977,11.476 -65.3303,32.0991 -62.9267,39.6469"/>
</g>
<!-- anon_14_20_1 -->
<g id="node67" class="node"><title>anon_14_20_1</title>
<ellipse fill="white" stroke="black" cx="67.0265" cy="42.8296" rx="1" ry="1"/>
</g>
<!-- anon_14_20_0&#45;&gt;anon_14_20_1 -->
<g id="edge76" class="edge"><title>anon_14_20_0&#45;&gt;anon_14_20_1</title>
<path fill="none" stroke="black" stroke-dasharray="5,2" d="M70.0032,-8.89198C69.5773,-1.49103 67.4786,34.9741 67.0889,41.7462"/>
</g>
<!-- anon_14_20_1&#45;&gt;anon_14_20_2 -->
<g id="edge77" class="edge"><title>anon_14_20_1&#45;&gt;anon_14_20_2</title>
<path fill="none" stroke="black" stroke-dasharray="5,2" d="M66.8819,43.969C66.0798,50.2909 62.182,81.0111 61.339,87.6555"/>
</g>
<!-- anon_14_22_1 -->
<g id="node70" class="node"><title>anon_14_22_1</title>
<ellipse fill="white" stroke="black" cx="10.7847" cy="-123.097" rx="1" ry="1"/>
</g>
<!-- anon_14_22_1&#45;&gt;anon_14_22_0 -->
<g id="edge80" class="edge"><title>anon_14_22_1&#45;&gt;anon_14_22_0</title>
<path fill="none" stroke="black" stroke-dasharray="5,2" d="M12.224,-122.147C16.7824,-119.139 31.0629,-109.716 38.938,-104.519"/>
<polygon fill="black" stroke="black" points="39.9589,-105.942 43.1684,-101.728 38.0312,-103.021 39.9589,-105.942"/>
<text text-anchor="middle" x="6.581" y="-103.733" font-family="monospace" font-size="12.00">R254K</text>
</g>
<!-- anon_14_22_2 -->
<g id="node71" class="node"><title>anon_14_22_2</title>
<ellipse fill="white" stroke="black" cx="-37.6534" cy="-84.3135" rx="1" ry="1"/>
</g>
<!-- anon_14_22_1&#45;&gt;anon_14_22_2 -->
<g id="edge81" class="edge"><title>anon_14_22_1&#45;&gt;anon_14_22_2</title>
<path fill="none" stroke="black" stroke-dasharray="5,2" d="M9.94392,-122.424C4.11486,-117.757 -30.2402,-90.2491 -36.6305,-85.1324"/>
</g>
<!-- anon_14_22_2&#45;&gt;22 -->
<g id="edge82" class="edge"><title>anon_14_22_2&#45;&gt;22</title>
<path fill="none" stroke="black" stroke-dasharray="5,2" d="M-37.3449,-83.3068C-35.7532,-78.1135 -28.4498,-54.284 -25.9862,-46.246"/>
</g>
</g>
</svg>
