<?xml version="1.0" encoding="UTF-8" standalone="no"?>
<!DOCTYPE svg PUBLIC "-//W3C//DTD SVG 1.1//EN"
 "http://www.w3.org/Graphics/SVG/1.1/DTD/svg11.dtd">
<!-- Generated by graphviz version 2.38.0 (20140413.2041)
 -->
<!-- Title: %3 Pages: 1 -->
<svg width="287pt" height="570pt"
 viewBox="0.00 0.00 287.38 570.37" xmlns="http://www.w3.org/2000/svg" xmlns:xlink="http://www.w3.org/1999/xlink">
<g id="graph0" class="graph" transform="scale(1 1) rotate(0) translate(116.908 211.856)">
<title>%3</title>
<polygon fill="white" stroke="none" points="-116.908,358.512 -116.908,-211.856 170.472,-211.856 170.472,358.512 -116.908,358.512"/>
<!-- 0 -->
<g id="node1" class="node"><title>0</title>
<path fill="olivedrab" stroke="black" stroke-width="0.5" d="M14.7632,-48.4273C14.7632,-48.4273 47.7632,-48.4273 47.7632,-48.4273 47.7632,-49.6033 47.7003,-50.7785 47.5749,-51.9479 47.4494,-53.1172 47.2615,-54.279 47.012,-55.4283 46.7625,-56.5776 46.4517,-57.7127 46.0811,-58.8288 45.7104,-59.9449 45.2803,-61.0404 44.7926,-62.1106 44.305,-63.1808 43.7605,-64.2241 43.1614,-65.2362 42.5624,-66.2482 41.9097,-67.2275 41.2061,-68.1699 40.5025,-69.1123 39.7491,-70.0164 38.9489,-70.8783 38.1488,-71.7402 37.3032,-72.5588 36.4157,-73.3304 36.4157,-73.3304 14.7632,-48.4273 14.7632,-48.4273"/>
<path fill="#1874cd" stroke="black" stroke-width="0.5" d="M14.7632,-48.4273C14.7632,-48.4273 36.4157,-73.3304 36.4157,-73.3304 35.7116,-73.9427 34.9818,-74.5248 34.2283,-75.0751 33.4748,-75.6255 32.6983,-76.1437 31.9009,-76.6283 31.1035,-77.1129 30.2859,-77.5634 29.4504,-77.9787 28.6148,-78.394 27.762,-78.7736 26.8942,-79.1166 26.0264,-79.4597 25.1445,-79.7657 24.2508,-80.034 23.3571,-80.3022 22.4525,-80.5325 21.5393,-80.7241 20.626,-80.9157 19.7051,-81.0685 18.779,-81.182 17.8528,-81.2955 16.9223,-81.3698 15.9898,-81.4044 15.0574,-81.4391 14.1239,-81.4342 13.1918,-81.3898 12.2598,-81.3454 11.3301,-81.2614 10.4052,-81.1382 9.48024,-81.015 8.56096,-80.8526 7.64981,-80.6515 6.73865,-80.4503 5.83644,-80.2106 4.9456,-79.933 4.05476,-79.6554 3.17609,-79.3402 2.31197,-78.9881 1.44785,-78.6361 0.599043,-78.2475 -0.232149,-77.8235 -1.06334,-77.3995 -1.87618,-76.9404 -2.66847,-76.4475 -3.46075,-75.9547 -4.23178,-75.4284 -4.97946,-74.8702 -5.72715,-74.3119 -6.45082,-73.7222 -7.14853,-73.1027 -7.84624,-72.4831 -8.51736,-71.8342 -9.16007,-71.1578 -9.80279,-70.4813 -10.4165,-69.7779 -10.9996,-69.0495 -11.5827,-68.321 -12.1347,-67.5682 -12.654,-66.7929 -13.1733,-66.0177 -13.6595,-65.2208 -14.1112,-64.4044 -14.563,-63.5879 -14.9799,-62.7527 -15.3609,-61.9009 -15.7419,-61.0491 -16.0865,-60.1816 -16.394,-59.3006 -16.7014,-58.4196 -16.9714,-57.526 -17.2031,-56.6221 -17.4348,-55.7183 -17.6281,-54.805 -17.7824,-53.8847 -17.9367,-52.9645 -18.0519,-52.0381 -18.1277,-51.1081 -18.2035,-50.1781 -18.2399,-49.2453 -18.2366,-48.3122 -18.2333,-47.3791 -18.1905,-46.4466 -18.1082,-45.5172 -18.026,-44.5877 -17.9043,-43.6622 -17.7436,-42.743 -17.5828,-41.8239 -17.3832,-40.912 -17.1452,-40.0097 -16.9072,-39.1075 -16.631,-38.2158 -16.3174,-37.337 -16.0038,-36.4581 -15.6531,-35.593 -15.2662,-34.7439 -14.8793,-33.8948 -14.4566,-33.0625 -13.9991,-32.2493 -13.5417,-31.436 -13.05,-30.6425 -12.5253,-29.8709 -12.0006,-29.0993 -11.4434,-28.3503 -10.8552,-27.6259 -10.2671,-26.9016 -9.64846,-26.2025 -9.00104,-25.5305 -8.35362,-24.8586 -7.678,-24.2144 -6.97599,-23.5997 -6.27398,-22.985 -5.54621,-22.4004 -4.79465,-21.8474 -4.04309,-21.2944 -3.26842,-20.7735 -2.47271,-20.2861 -1.67701,-19.7988 -0.860994,-19.3454 -0.0268658,-18.9272 0.807263,-18.509 1.65875,-18.1264 2.52531,-17.7803 3.39187,-17.4343 4.27271,-17.1252 5.16546,-16.8538 6.05822,-16.5824 6.96208,-16.349 7.87461,-16.1542 8.78715,-15.9595 9.70753,-15.8035 10.6333,-15.6867 11.559,-15.5699 12.4893,-15.4925 13.4217,-15.4545 14.354,-15.4166 15.2875,-15.4182 16.2197,-15.4594 17.1518,-15.5006 18.0819,-15.5813 19.0072,-15.7013 19.9325,-15.8213 20.8524,-15.9805 21.7642,-16.1784 22.6761,-16.3764 23.5791,-16.6129 24.4709,-16.8874 25.3627,-17.1619 26.2425,-17.4741 27.1078,-17.8232 27.9732,-18.1722 28.8233,-18.5578 29.656,-18.9789 30.4887,-19.4 31.3031,-19.8562 32.0971,-20.3464 32.8911,-20.8365 33.664,-21.3601 34.4136,-21.9157 35.1632,-22.4713 35.8889,-23.0585 36.5888,-23.6756 37.2887,-24.2927 37.962,-24.9393 38.6071,-25.6135 39.2522,-26.2877 39.8684,-26.9889 40.454,-27.7153 41.0396,-28.4418 41.5942,-29.1927 42.1162,-29.9661 42.6382,-30.7395 43.1272,-31.5347 43.5818,-32.3496 44.0364,-33.1645 44.4562,-33.9982 44.8401,-34.8487 45.2241,-35.6991 45.5718,-36.5655 45.8823,-37.4454 46.1928,-38.3253 46.4659,-39.218 46.7007,-40.121 46.9356,-41.024 47.1321,-41.9367 47.2896,-42.8564 47.4471,-43.7761 47.5655,-44.702 47.6446,-45.6318 47.7236,-46.5615 47.7632,-47.4942 47.7632,-48.4273 47.7632,-48.4273 14.7632,-48.4273 14.7632,-48.4273"/>
<ellipse fill="none" stroke="black" cx="14.7632" cy="-48.4273" rx="33" ry="33"/>
</g>
<!-- 1 -->
<g id="node2" class="node"><title>1</title>
<ellipse fill="#1874cd" stroke="black" cx="120.274" cy="-40.5376" rx="2.5" ry="2.5"/>
</g>
<!-- 0&#45;&gt;1 -->
<g id="edge1" class="edge"><title>0&#45;&gt;1</title>
<path fill="none" stroke="black" d="M47.858,-45.9526C74.2078,-43.9822 108.194,-41.4409 117.703,-40.7298"/>
</g>
<!-- 2 -->
<g id="node3" class="node"><title>2</title>
<ellipse fill="#1874cd" stroke="black" cx="57.0278" cy="-132.3" rx="2.5" ry="2.5"/>
</g>
<!-- 0&#45;&gt;2 -->
<g id="edge2" class="edge"><title>0&#45;&gt;2</title>
<path fill="none" stroke="black" d="M29.7831,-78.2338C39.8432,-98.1978 51.9255,-122.175 55.7815,-129.827"/>
</g>
<!-- 3 -->
<g id="node4" class="node"><title>3</title>
<ellipse fill="#1874cd" stroke="black" cx="98.6856" cy="17.5193" rx="3.5" ry="3.5"/>
</g>
<!-- 0&#45;&gt;3 -->
<g id="edge3" class="edge"><title>0&#45;&gt;3</title>
<path fill="none" stroke="black" d="M40.8567,-27.9228C60.8732,-12.1939 86.539,7.97443 95.46,14.9846"/>
</g>
<!-- 5 -->
<g id="node6" class="node"><title>5</title>
<ellipse fill="#1874cd" stroke="black" cx="101.062" cy="0.359861" rx="2.5" ry="2.5"/>
</g>
<!-- 0&#45;&gt;5 -->
<g id="edge4" class="edge"><title>0&#45;&gt;5</title>
<path fill="none" stroke="black" d="M43.4995,-32.1818C64.6814,-20.2072 91.0986,-5.27286 98.8368,-0.898241"/>
</g>
<!-- 6 -->
<g id="node7" class="node"><title>6</title>
<ellipse fill="#1874cd" stroke="black" cx="-44.2103" cy="-104.227" rx="2.5" ry="2.5"/>
</g>
<!-- 0&#45;&gt;6 -->
<g id="edge5" class="edge"><title>0&#45;&gt;6</title>
<path fill="none" stroke="black" d="M-9.22358,-71.1231C-22.4894,-83.675 -37.295,-97.6837 -42.3807,-102.496"/>
</g>
<!-- 7 -->
<g id="node8" class="node"><title>7</title>
<ellipse fill="#1874cd" stroke="black" cx="90.1612" cy="-56.4771" rx="2.5" ry="2.5"/>
</g>
<!-- 0&#45;&gt;7 -->
<g id="edge6" class="edge"><title>0&#45;&gt;7</title>
<path fill="none" stroke="black" d="M47.6145,-51.9346C60.5168,-53.3121 74.1893,-54.7719 82.4512,-55.6539"/>
<polygon fill="black" stroke="black" points="82.4545,-57.4142 87.612,-56.2049 82.8261,-53.9339 82.4545,-57.4142"/>
<text text-anchor="middle" x="84.0328" y="-44.1943" font-family="monospace" font-size="12.00">A837V</text>
</g>
<!-- 9 -->
<g id="node10" class="node"><title>9</title>
<ellipse fill="#1874cd" stroke="black" cx="-25.7271" cy="-137.762" rx="2.5" ry="2.5"/>
</g>
<!-- 0&#45;&gt;9 -->
<g id="edge7" class="edge"><title>0&#45;&gt;9</title>
<path fill="none" stroke="black" d="M1.05502,-78.6718C-8.67261,-100.134 -20.6558,-126.573 -24.4877,-135.027"/>
</g>
<!-- 11 -->
<g id="node12" class="node"><title>11</title>
<ellipse fill="#1874cd" stroke="black" cx="49.0667" cy="-74.12" rx="2.5" ry="2.5"/>
</g>
<!-- 0&#45;&gt;11 -->
<g id="edge8" class="edge"><title>0&#45;&gt;11</title>
<path fill="none" stroke="black" d="M41.4536,-68.418C43.6679,-70.0764 45.5711,-71.5019 46.9208,-72.5128"/>
</g>
<!-- 17 -->
<g id="node18" class="node"><title>17</title>
<ellipse fill="#1874cd" stroke="black" cx="-0.859583" cy="-138.969" rx="2.5" ry="2.5"/>
</g>
<!-- 0&#45;&gt;17 -->
<g id="edge13" class="edge"><title>0&#45;&gt;17</title>
<path fill="none" stroke="black" d="M9.12302,-81.1151C5.41719,-102.592 1.00316,-128.174 -0.404687,-136.333"/>
</g>
<!-- 18 -->
<g id="node19" class="node"><title>18</title>
<ellipse fill="#1874cd" stroke="black" cx="-75.3776" cy="-82.8786" rx="2.5" ry="2.5"/>
</g>
<!-- 0&#45;&gt;18 -->
<g id="edge14" class="edge"><title>0&#45;&gt;18</title>
<path fill="none" stroke="black" d="M-16.2581,-60.2835C-37.8511,-68.5362 -64.2243,-78.6159 -72.6522,-81.837"/>
</g>
<!-- 19 -->
<g id="node20" class="node"><title>19</title>
<ellipse fill="#1874cd" stroke="black" cx="38.6257" cy="38.4017" rx="2.5" ry="2.5"/>
</g>
<!-- 0&#45;&gt;19 -->
<g id="edge15" class="edge"><title>0&#45;&gt;19</title>
<path fill="none" stroke="black" d="M23.5132,-16.5884C29.153,3.93334 35.8159,28.1777 37.9396,35.9054"/>
</g>
<!-- 20 -->
<g id="node21" class="node"><title>20</title>
<ellipse fill="olivedrab" stroke="black" cx="7.50088" cy="-139.46" rx="2.5" ry="2.5"/>
</g>
<!-- 0&#45;&gt;20 -->
<g id="edge16" class="edge"><title>0&#45;&gt;20</title>
<path fill="none" stroke="black" d="M12.1208,-81.5498C10.4012,-103.105 8.36139,-128.674 7.711,-136.826"/>
</g>
<!-- 21 -->
<g id="node22" class="node"><title>21</title>
<ellipse fill="#1874cd" stroke="black" cx="27.6978" cy="9.24246" rx="2.5" ry="2.5"/>
</g>
<!-- 0&#45;&gt;21 -->
<g id="edge17" class="edge"><title>0&#45;&gt;21</title>
<path fill="none" stroke="black" d="M21.9868,-16.2202C24.1163,-6.72554 26.135,2.27459 27.102,6.58613"/>
</g>
<!-- anon_0_16_0 -->
<g id="node26" class="node"><title>anon_0_16_0</title>
<ellipse fill="white" stroke="black" cx="110.45" cy="-104.775" rx="1" ry="1"/>
</g>
<!-- 0&#45;&gt;anon_0_16_0 -->
<g id="edge9" class="edge"><title>0&#45;&gt;anon_0_16_0</title>
<path fill="none" stroke="black" d="M43.2133,-65.181C68.7748,-80.2338 103.227,-100.522 109.462,-104.194"/>
</g>
<!-- 4 -->
<g id="node5" class="node"><title>4</title>
<ellipse fill="#1874cd" stroke="black" cx="-58.4311" cy="33.9087" rx="2.5" ry="2.5"/>
</g>
<!-- 22 -->
<g id="node23" class="node"><title>22</title>
<ellipse fill="#1874cd" stroke="black" cx="-45.9152" cy="6.1643" rx="2.5" ry="2.5"/>
</g>
<!-- 4&#45;&gt;22 -->
<g id="edge20" class="edge"><title>4&#45;&gt;22</title>
<path fill="none" stroke="black" d="M-57.2761,31.3483C-54.8554,25.9824 -49.2829,13.6296 -46.9607,8.48205"/>
</g>
<!-- 8 -->
<g id="node9" class="node"><title>8</title>
<ellipse fill="#1874cd" stroke="black" cx="-54.0893" cy="48.965" rx="2.5" ry="2.5"/>
</g>
<!-- anon_8_15_0 -->
<g id="node29" class="node"><title>anon_8_15_0</title>
<ellipse fill="white" stroke="black" cx="-68.529" cy="98.9681" rx="1" ry="1"/>
</g>
<!-- 8&#45;&gt;anon_8_15_0 -->
<g id="edge21" class="edge"><title>8&#45;&gt;anon_8_15_0</title>
<path fill="none" stroke="black" d="M-54.7858,51.3768C-57.3547,60.2726 -66.249,91.0728 -68.1639,97.7039"/>
</g>
<!-- 10 -->
<g id="node11" class="node"><title>10</title>
<ellipse fill="#1874cd" stroke="black" cx="50.9652" cy="352.012" rx="2.5" ry="2.5"/>
</g>
<!-- 12 -->
<g id="node13" class="node"><title>12</title>
<ellipse fill="#1874cd" stroke="black" cx="14.0422" cy="-85.3895" rx="2.5" ry="2.5"/>
</g>
<!-- 13 -->
<g id="node14" class="node"><title>13</title>
<ellipse fill="#1874cd" stroke="black" cx="22.1873" cy="-56.3082" rx="2.5" ry="2.5"/>
</g>
<!-- 14 -->
<g id="node15" class="node"><title>14</title>
<ellipse fill="#1874cd" stroke="black" cx="-87.8884" cy="-24.0986" rx="2.5" ry="2.5"/>
</g>
<!-- 14&#45;&gt;22 -->
<g id="edge24" class="edge"><title>14&#45;&gt;22</title>
<path fill="none" stroke="black" d="M-85.6318,-22.4716C-79.3676,-17.9551 -61.6014,-5.14556 -52.0956,1.70818"/>
<polygon fill="black" stroke="black" points="-51.0146,0.330119 -47.9823,4.67388 -53.0616,3.16915 -51.0146,0.330119"/>
<text text-anchor="middle" x="-87.8637" y="-0.781689" font-family="monospace" font-size="12.00">R254K</text>
</g>
<!-- 24 -->
<g id="node25" class="node"><title>24</title>
<ellipse fill="#1874cd" stroke="black" cx="-57.9129" cy="-50.6022" rx="2.5" ry="2.5"/>
</g>
<!-- 14&#45;&gt;24 -->
<g id="edge26" class="edge"><title>14&#45;&gt;24</title>
<path fill="none" stroke="black" stroke-dasharray="5,2" d="M-85.9216,-25.8376C-81.5192,-29.7301 -70.723,-39.2759 -63.8934,-45.3144"/>
<polygon fill="black" stroke="black" points="-64.8312,-46.8211 -59.9262,-48.8221 -62.5128,-44.1991 -64.8312,-46.8211"/>
<text text-anchor="middle" x="-93.9075" y="-38.976" font-family="monospace" font-size="12.00">L995F</text>
</g>
<!-- 15 -->
<g id="node16" class="node"><title>15</title>
<ellipse fill="#1874cd" stroke="black" cx="-55.4736" cy="136.824" rx="2.5" ry="2.5"/>
</g>
<!-- 16 -->
<g id="node17" class="node"><title>16</title>
<ellipse fill="#1874cd" stroke="black" cx="163.972" cy="-205.356" rx="2.5" ry="2.5"/>
</g>
<!-- 22&#45;&gt;0 -->
<g id="edge18" class="edge"><title>22&#45;&gt;0</title>
<path fill="none" stroke="black" d="M-43.8963,4.34794C-39.051,-0.0113347 -26.2419,-11.5355 -13.8252,-22.7066"/>
<polygon fill="black" stroke="black" points="-14.8811,-24.1106 -9.99359,-26.1539 -12.5402,-21.5087 -14.8811,-24.1106"/>
<text text-anchor="middle" x="-47.8607" y="-12.5793" font-family="monospace" font-size="12.00">L995F</text>
</g>
<!-- 22&#45;&gt;8 -->
<g id="edge23" class="edge"><title>22&#45;&gt;8</title>
<path fill="none" stroke="black" d="M-46.402,8.71351C-47.6088,15.0325 -50.7758,31.6151 -52.6468,41.4121"/>
<polygon fill="black" stroke="black" points="-50.9583,41.8998 -53.6152,46.4828 -54.3961,41.2432 -50.9583,41.8998"/>
<text text-anchor="middle" x="-68.5244" y="21.6628" font-family="monospace" font-size="12.00">L995S</text>
</g>
<!-- 23 -->
<g id="node24" class="node"><title>23</title>
<ellipse fill="#1874cd" stroke="black" cx="-103.364" cy="14.1386" rx="2.5" ry="2.5"/>
</g>
<!-- 22&#45;&gt;23 -->
<g id="edge25" class="edge"><title>22&#45;&gt;23</title>
<path fill="none" stroke="black" d="M-48.6861,6.54892C-58.4583,7.90537 -91.2377,12.4553 -100.754,13.7762"/>
</g>
<!-- 24&#45;&gt;0 -->
<g id="edge19" class="edge"><title>24&#45;&gt;0</title>
<path fill="none" stroke="black" d="M-55.1526,-50.5196C-49.7049,-50.3566 -36.9543,-49.975 -23.8119,-49.5817"/>
<polygon fill="black" stroke="black" points="-23.5191,-51.3238 -18.5737,-49.4249 -23.6239,-47.8254 -23.5191,-51.3238"/>
<text text-anchor="middle" x="-39.4823" y="-40.4506" font-family="monospace" font-size="12.00">R254K</text>
</g>
<!-- anon_0_16_1 -->
<g id="node27" class="node"><title>anon_0_16_1</title>
<ellipse fill="white" stroke="black" cx="139.193" cy="-129.963" rx="1" ry="1"/>
</g>
<!-- anon_0_16_0&#45;&gt;anon_0_16_1 -->
<g id="edge10" class="edge"><title>anon_0_16_0&#45;&gt;anon_0_16_1</title>
<path fill="none" stroke="black" d="M111.685,-105.858C116.499,-110.076 133.949,-125.368 138.236,-129.125"/>
</g>
<!-- anon_0_16_2 -->
<g id="node28" class="node"><title>anon_0_16_2</title>
<ellipse fill="white" stroke="black" cx="153.491" cy="-166.859" rx="1" ry="1"/>
</g>
<!-- anon_0_16_1&#45;&gt;anon_0_16_2 -->
<g id="edge11" class="edge"><title>anon_0_16_1&#45;&gt;anon_0_16_2</title>
<path fill="none" stroke="black" d="M139.807,-131.548C142.202,-137.728 150.882,-160.128 153.015,-165.632"/>
</g>
<!-- anon_0_16_2&#45;&gt;16 -->
<g id="edge12" class="edge"><title>anon_0_16_2&#45;&gt;16</title>
<path fill="none" stroke="black" d="M153.839,-168.14C155.345,-173.672 161.306,-195.564 163.31,-202.926"/>
</g>
<!-- anon_8_15_0&#45;&gt;15 -->
<g id="edge22" class="edge"><title>anon_8_15_0&#45;&gt;15</title>
<path fill="none" stroke="black" d="M-68.0946,100.228C-66.2186,105.667 -58.7944,127.195 -56.2977,134.435"/>
</g>
</g>
</svg>
