<?xml version="1.0" encoding="UTF-8" standalone="no"?>
<!DOCTYPE svg PUBLIC "-//W3C//DTD SVG 1.1//EN"
 "http://www.w3.org/Graphics/SVG/1.1/DTD/svg11.dtd">
<!-- Generated by graphviz version 2.38.0 (20140413.2041)
 -->
<!-- Title: %3 Pages: 1 -->
<svg width="287pt" height="570pt"
 viewBox="0.00 0.00 287.38 570.37" xmlns="http://www.w3.org/2000/svg" xmlns:xlink="http://www.w3.org/1999/xlink">
<g id="graph0" class="graph" transform="scale(1 1) rotate(0) translate(116.908 211.856)">
<title>%3</title>
<polygon fill="white" stroke="none" points="-116.908,358.512 -116.908,-211.856 170.472,-211.856 170.472,358.512 -116.908,358.512"/>
<!-- 0 -->
<g id="node1" class="node"><title>0</title>
<path fill="#1874cd" stroke="black" stroke-width="0.5" d="M14.7632,-48.4273C14.7632,-48.4273 47.7632,-48.4273 47.7632,-48.4273 47.7632,-49.3603 47.7236,-50.293 47.6446,-51.2227 47.5655,-52.1525 47.4471,-53.0785 47.2896,-53.9981 47.1321,-54.9178 46.9356,-55.8305 46.7007,-56.7335 46.4659,-57.6365 46.1928,-58.5292 45.8823,-59.4091 45.5718,-60.289 45.2241,-61.1554 44.8401,-62.0058 44.4562,-62.8563 44.0364,-63.69 43.5818,-64.5049 43.1272,-65.3198 42.6382,-66.115 42.1162,-66.8884 41.5942,-67.6618 41.0396,-68.4127 40.454,-69.1392 39.8684,-69.8656 39.2522,-70.5668 38.6071,-71.241 37.962,-71.9152 37.2887,-72.5618 36.5888,-73.1789 35.8889,-73.796 35.1632,-74.3832 34.4136,-74.9388 33.664,-75.4944 32.8911,-76.018 32.0971,-76.5081 31.3031,-76.9983 30.4887,-77.4545 29.656,-77.8756 28.8233,-78.2967 27.9732,-78.6823 27.1078,-79.0313 26.2425,-79.3804 25.3627,-79.6926 24.4709,-79.9671 23.5791,-80.2416 22.6761,-80.4781 21.7642,-80.6761 20.8524,-80.874 19.9325,-81.0332 19.0072,-81.1532 18.0819,-81.2732 17.1518,-81.3539 16.2197,-81.3951 15.2875,-81.4363 14.354,-81.4379 13.4217,-81.4 12.4893,-81.362 11.559,-81.2846 10.6333,-81.1678 9.70754,-81.051 8.78715,-80.895 7.87462,-80.7003 6.96208,-80.5055 6.05822,-80.2721 5.16546,-80.0007 4.27271,-79.7293 3.39187,-79.4202 2.52531,-79.0742 1.65875,-78.7281 0.807264,-78.3455 -0.0268648,-77.9273 -0.860993,-77.5091 -1.67701,-77.0557 -2.47271,-76.5684 -3.26842,-76.081 -4.04309,-75.5601 -4.79465,-75.0071 -5.54621,-74.4541 -6.27398,-73.8695 -6.97599,-73.2548 -7.678,-72.6401 -8.35362,-71.9959 -9.00104,-71.324 -9.64846,-70.6521 -10.2671,-69.9529 -10.8552,-69.2286 -11.4434,-68.5042 -12.0006,-67.7552 -12.5253,-66.9836 -13.05,-66.212 -13.5417,-65.4185 -13.9991,-64.6052 -14.4566,-63.792 -14.8793,-62.9597 -15.2662,-62.1106 -15.6531,-61.2615 -16.0038,-60.3964 -16.3174,-59.5175 -16.631,-58.6387 -16.9072,-57.747 -17.1452,-56.8448 -17.3832,-55.9425 -17.5828,-55.0306 -17.7436,-54.1115 -17.9043,-53.1923 -18.026,-52.2668 -18.1082,-51.3373 -18.1905,-50.4079 -18.2333,-49.4754 -18.2366,-48.5423 -18.2399,-47.6092 -18.2035,-46.6764 -18.1277,-45.7464 -18.0519,-44.8164 -17.9367,-43.89 -17.7824,-42.9698 -17.6281,-42.0495 -17.4348,-41.1362 -17.2031,-40.2324 -16.9714,-39.3285 -16.7014,-38.4349 -16.394,-37.5539 -16.0865,-36.6729 -15.7419,-35.8054 -15.3609,-34.9536 -14.9799,-34.1018 -14.563,-33.2666 -14.1112,-32.4501 -13.6595,-31.6337 -13.1733,-30.8368 -12.654,-30.0616 -12.1347,-29.2863 -11.5827,-28.5335 -10.9996,-27.805 -10.4165,-27.0766 -9.80279,-26.3732 -9.16008,-25.6967 -8.51736,-25.0203 -7.84624,-24.3714 -7.14853,-23.7518 -6.45082,-23.1323 -5.72715,-22.5426 -4.97947,-21.9843 -4.23178,-21.4261 -3.46075,-20.8998 -2.66847,-20.407 -1.87618,-19.9141 -1.06334,-19.455 -0.232152,-19.031 0.599041,-18.607 1.44784,-18.2184 2.31197,-17.8664 3.17609,-17.5143 4.05476,-17.1991 4.9456,-16.9215 5.83644,-16.6439 6.73865,-16.4042 7.64981,-16.203 8.56096,-16.0019 9.48024,-15.8395 10.4052,-15.7163 11.3301,-15.5931 12.2598,-15.5091 13.1918,-15.4647 14.1239,-15.4203 15.0574,-15.4154 15.9898,-15.4501 16.9223,-15.4847 17.8528,-15.559 18.779,-15.6725 19.7051,-15.786 20.626,-15.9388 21.5393,-16.1304 22.4525,-16.322 23.3571,-16.5523 24.2508,-16.8205 25.1445,-17.0888 26.0264,-17.3948 26.8942,-17.7379 27.762,-18.0809 28.6148,-18.4605 29.4504,-18.8758 30.2859,-19.2911 31.1035,-19.7416 31.9009,-20.2262 32.6983,-20.7108 33.4748,-21.229 34.2283,-21.7794 34.9818,-22.3297 35.7116,-22.9118 36.4157,-23.5241 36.4157,-23.5241 14.7632,-48.4273 14.7632,-48.4273"/>
<path fill="olivedrab" stroke="black" stroke-width="0.5" d="M14.7632,-48.4273C14.7632,-48.4273 36.4157,-23.5241 36.4157,-23.5241 37.3032,-24.2957 38.1488,-25.1143 38.9489,-25.9762 39.7491,-26.8381 40.5025,-27.7422 41.2061,-28.6846 41.9097,-29.627 42.5624,-30.6063 43.1614,-31.6183 43.7605,-32.6304 44.305,-33.6737 44.7926,-34.7439 45.2803,-35.8141 45.7104,-36.9096 46.0811,-38.0257 46.4517,-39.1418 46.7625,-40.2769 47.012,-41.4262 47.2615,-42.5755 47.4494,-43.7373 47.5749,-44.9066 47.7003,-46.076 47.7632,-47.2512 47.7632,-48.4273 47.7632,-48.4273 14.7632,-48.4273 14.7632,-48.4273"/>
<ellipse fill="none" stroke="black" cx="14.7632" cy="-48.4273" rx="33" ry="33"/>
</g>
<!-- 1 -->
<g id="node2" class="node"><title>1</title>
<ellipse fill="#1874cd" stroke="black" cx="120.274" cy="-40.5376" rx="2.5" ry="2.5"/>
</g>
<!-- 0&#45;&gt;1 -->
<g id="edge1" class="edge"><title>0&#45;&gt;1</title>
<path fill="none" stroke="black" d="M47.858,-45.9526C74.2078,-43.9822 108.194,-41.4409 117.703,-40.7298"/>
</g>
<!-- 2 -->
<g id="node3" class="node"><title>2</title>
<ellipse fill="#1874cd" stroke="black" cx="57.0278" cy="-132.3" rx="2.5" ry="2.5"/>
</g>
<!-- 0&#45;&gt;2 -->
<g id="edge2" class="edge"><title>0&#45;&gt;2</title>
<path fill="none" stroke="black" d="M29.7831,-78.2338C39.8432,-98.1978 51.9255,-122.175 55.7815,-129.827"/>
</g>
<!-- 3 -->
<g id="node4" class="node"><title>3</title>
<ellipse fill="#1874cd" stroke="black" cx="98.6856" cy="17.5193" rx="3.5" ry="3.5"/>
</g>
<!-- 0&#45;&gt;3 -->
<g id="edge3" class="edge"><title>0&#45;&gt;3</title>
<path fill="none" stroke="black" d="M40.8567,-27.9228C60.8732,-12.1939 86.539,7.97443 95.46,14.9846"/>
</g>
<!-- 5 -->
<g id="node6" class="node"><title>5</title>
<ellipse fill="#1874cd" stroke="black" cx="101.062" cy="0.359861" rx="2.5" ry="2.5"/>
</g>
<!-- 0&#45;&gt;5 -->
<g id="edge4" class="edge"><title>0&#45;&gt;5</title>
<path fill="none" stroke="black" d="M43.4995,-32.1818C64.6814,-20.2072 91.0986,-5.27286 98.8368,-0.898241"/>
</g>
<!-- 6 -->
<g id="node7" class="node"><title>6</title>
<ellipse fill="#1874cd" stroke="black" cx="-44.2103" cy="-104.227" rx="2.5" ry="2.5"/>
</g>
<!-- 0&#45;&gt;6 -->
<g id="edge5" class="edge"><title>0&#45;&gt;6</title>
<path fill="none" stroke="black" d="M-9.22358,-71.1231C-22.4894,-83.675 -37.295,-97.6837 -42.3807,-102.496"/>
</g>
<!-- 7 -->
<g id="node8" class="node"><title>7</title>
<ellipse fill="#1874cd" stroke="black" cx="90.1612" cy="-56.4771" rx="2.5" ry="2.5"/>
</g>
<!-- 0&#45;&gt;7 -->
<g id="edge6" class="edge"><title>0&#45;&gt;7</title>
<path fill="none" stroke="black" d="M47.6145,-51.9346C60.5168,-53.3121 74.1893,-54.7719 82.4512,-55.6539"/>
<polygon fill="black" stroke="black" points="82.4545,-57.4142 87.612,-56.2049 82.8261,-53.9339 82.4545,-57.4142"/>
<text text-anchor="middle" x="84.0328" y="-44.1943" font-family="monospace" font-size="12.00">A837V</text>
</g>
<!-- 9 -->
<g id="node10" class="node"><title>9</title>
<ellipse fill="#1874cd" stroke="black" cx="-25.7271" cy="-137.762" rx="2.5" ry="2.5"/>
</g>
<!-- 0&#45;&gt;9 -->
<g id="edge7" class="edge"><title>0&#45;&gt;9</title>
<path fill="none" stroke="black" d="M1.05502,-78.6718C-8.67261,-100.134 -20.6558,-126.573 -24.4877,-135.027"/>
</g>
<!-- 11 -->
<g id="node12" class="node"><title>11</title>
<ellipse fill="#1874cd" stroke="black" cx="49.0667" cy="-74.12" rx="2.5" ry="2.5"/>
</g>
<!-- 0&#45;&gt;11 -->
<g id="edge8" class="edge"><title>0&#45;&gt;11</title>
<path fill="none" stroke="black" d="M41.4536,-68.418C43.6679,-70.0764 45.5711,-71.5019 46.9208,-72.5128"/>
</g>
<!-- 17 -->
<g id="node18" class="node"><title>17</title>
<ellipse fill="#1874cd" stroke="black" cx="-0.859583" cy="-138.969" rx="2.5" ry="2.5"/>
</g>
<!-- 0&#45;&gt;17 -->
<g id="edge13" class="edge"><title>0&#45;&gt;17</title>
<path fill="none" stroke="black" d="M9.12302,-81.1151C5.41719,-102.592 1.00316,-128.174 -0.404687,-136.333"/>
</g>
<!-- 18 -->
<g id="node19" class="node"><title>18</title>
<ellipse fill="#1874cd" stroke="black" cx="-75.3776" cy="-82.8786" rx="2.5" ry="2.5"/>
</g>
<!-- 0&#45;&gt;18 -->
<g id="edge14" class="edge"><title>0&#45;&gt;18</title>
<path fill="none" stroke="black" d="M-16.2581,-60.2835C-37.8511,-68.5362 -64.2243,-78.6159 -72.6522,-81.837"/>
</g>
<!-- 19 -->
<g id="node20" class="node"><title>19</title>
<ellipse fill="#1874cd" stroke="black" cx="38.6257" cy="38.4017" rx="2.5" ry="2.5"/>
</g>
<!-- 0&#45;&gt;19 -->
<g id="edge15" class="edge"><title>0&#45;&gt;19</title>
<path fill="none" stroke="black" d="M23.5132,-16.5884C29.153,3.93334 35.8159,28.1777 37.9396,35.9054"/>
</g>
<!-- 20 -->
<g id="node21" class="node"><title>20</title>
<ellipse fill="olivedrab" stroke="black" cx="7.50088" cy="-139.46" rx="2.5" ry="2.5"/>
</g>
<!-- 0&#45;&gt;20 -->
<g id="edge16" class="edge"><title>0&#45;&gt;20</title>
<path fill="none" stroke="black" d="M12.1208,-81.5498C10.4012,-103.105 8.36139,-128.674 7.711,-136.826"/>
</g>
<!-- 21 -->
<g id="node22" class="node"><title>21</title>
<ellipse fill="#1874cd" stroke="black" cx="27.6978" cy="9.24246" rx="2.5" ry="2.5"/>
</g>
<!-- 0&#45;&gt;21 -->
<g id="edge17" class="edge"><title>0&#45;&gt;21</title>
<path fill="none" stroke="black" d="M21.9868,-16.2202C24.1163,-6.72554 26.135,2.27459 27.102,6.58613"/>
</g>
<!-- anon_0_16_0 -->
<g id="node26" class="node"><title>anon_0_16_0</title>
<ellipse fill="white" stroke="black" cx="110.45" cy="-104.775" rx="1" ry="1"/>
</g>
<!-- 0&#45;&gt;anon_0_16_0 -->
<g id="edge9" class="edge"><title>0&#45;&gt;anon_0_16_0</title>
<path fill="none" stroke="black" d="M43.2133,-65.181C68.7748,-80.2338 103.227,-100.522 109.462,-104.194"/>
</g>
<!-- 4 -->
<g id="node5" class="node"><title>4</title>
<ellipse fill="#1874cd" stroke="black" cx="-58.4311" cy="33.9087" rx="2.5" ry="2.5"/>
</g>
<!-- 22 -->
<g id="node23" class="node"><title>22</title>
<ellipse fill="#1874cd" stroke="black" cx="-45.9152" cy="6.1643" rx="2.5" ry="2.5"/>
</g>
<!-- 4&#45;&gt;22 -->
<g id="edge20" class="edge"><title>4&#45;&gt;22</title>
<path fill="none" stroke="black" d="M-57.2761,31.3483C-54.8554,25.9824 -49.2829,13.6296 -46.9607,8.48205"/>
</g>
<!-- 8 -->
<g id="node9" class="node"><title>8</title>
<ellipse fill="#1874cd" stroke="black" cx="-54.0893" cy="48.965" rx="2.5" ry="2.5"/>
</g>
<!-- anon_8_15_0 -->
<g id="node29" class="node"><title>anon_8_15_0</title>
<ellipse fill="white" stroke="black" cx="-68.529" cy="98.9681" rx="1" ry="1"/>
</g>
<!-- 8&#45;&gt;anon_8_15_0 -->
<g id="edge21" class="edge"><title>8&#45;&gt;anon_8_15_0</title>
<path fill="none" stroke="black" d="M-54.7858,51.3768C-57.3547,60.2726 -66.249,91.0728 -68.1639,97.7039"/>
</g>
<!-- 10 -->
<g id="node11" class="node"><title>10</title>
<ellipse fill="#1874cd" stroke="black" cx="50.9652" cy="352.012" rx="2.5" ry="2.5"/>
</g>
<!-- 12 -->
<g id="node13" class="node"><title>12</title>
<ellipse fill="#1874cd" stroke="black" cx="14.0422" cy="-85.3895" rx="2.5" ry="2.5"/>
</g>
<!-- 13 -->
<g id="node14" class="node"><title>13</title>
<ellipse fill="#1874cd" stroke="black" cx="22.1873" cy="-56.3082" rx="2.5" ry="2.5"/>
</g>
<!-- 14 -->
<g id="node15" class="node"><title>14</title>
<ellipse fill="#1874cd" stroke="black" cx="-87.8884" cy="-24.0986" rx="2.5" ry="2.5"/>
</g>
<!-- 14&#45;&gt;22 -->
<g id="edge24" class="edge"><title>14&#45;&gt;22</title>
<path fill="none" stroke="black" d="M-85.6318,-22.4716C-79.3676,-17.9551 -61.6014,-5.14556 -52.0956,1.70818"/>
<polygon fill="black" stroke="black" points="-51.0146,0.330119 -47.9823,4.67388 -53.0616,3.16915 -51.0146,0.330119"/>
<text text-anchor="middle" x="-87.8637" y="-0.781689" font-family="monospace" font-size="12.00">R254K</text>
</g>
<!-- 24 -->
<g id="node25" class="node"><title>24</title>
<ellipse fill="#1874cd" stroke="black" cx="-57.9129" cy="-50.6022" rx="2.5" ry="2.5"/>
</g>
<!-- 14&#45;&gt;24 -->
<g id="edge26" class="edge"><title>14&#45;&gt;24</title>
<path fill="none" stroke="black" stroke-dasharray="5,2" d="M-85.9216,-25.8376C-81.5192,-29.7301 -70.723,-39.2759 -63.8934,-45.3144"/>
<polygon fill="black" stroke="black" points="-64.8312,-46.8211 -59.9262,-48.8221 -62.5128,-44.1991 -64.8312,-46.8211"/>
<text text-anchor="middle" x="-93.9075" y="-38.976" font-family="monospace" font-size="12.00">L995F</text>
</g>
<!-- 15 -->
<g id="node16" class="node"><title>15</title>
<ellipse fill="#1874cd" stroke="black" cx="-55.4736" cy="136.824" rx="2.5" ry="2.5"/>
</g>
<!-- 16 -->
<g id="node17" class="node"><title>16</title>
<ellipse fill="#1874cd" stroke="black" cx="163.972" cy="-205.356" rx="2.5" ry="2.5"/>
</g>
<!-- 22&#45;&gt;0 -->
<g id="edge18" class="edge"><title>22&#45;&gt;0</title>
<path fill="none" stroke="black" d="M-43.8963,4.34794C-39.051,-0.0113347 -26.2419,-11.5355 -13.8252,-22.7066"/>
<polygon fill="black" stroke="black" points="-14.8811,-24.1106 -9.99359,-26.1539 -12.5402,-21.5087 -14.8811,-24.1106"/>
<text text-anchor="middle" x="-47.8607" y="-12.5793" font-family="monospace" font-size="12.00">L995F</text>
</g>
<!-- 22&#45;&gt;8 -->
<g id="edge23" class="edge"><title>22&#45;&gt;8</title>
<path fill="none" stroke="black" d="M-46.402,8.71351C-47.6088,15.0325 -50.7758,31.6151 -52.6468,41.4121"/>
<polygon fill="black" stroke="black" points="-50.9583,41.8998 -53.6152,46.4828 -54.3961,41.2432 -50.9583,41.8998"/>
<text text-anchor="middle" x="-68.5244" y="21.6628" font-family="monospace" font-size="12.00">L995S</text>
</g>
<!-- 23 -->
<g id="node24" class="node"><title>23</title>
<ellipse fill="#1874cd" stroke="black" cx="-103.364" cy="14.1386" rx="2.5" ry="2.5"/>
</g>
<!-- 22&#45;&gt;23 -->
<g id="edge25" class="edge"><title>22&#45;&gt;23</title>
<path fill="none" stroke="black" d="M-48.6861,6.54892C-58.4583,7.90537 -91.2377,12.4553 -100.754,13.7762"/>
</g>
<!-- 24&#45;&gt;0 -->
<g id="edge19" class="edge"><title>24&#45;&gt;0</title>
<path fill="none" stroke="black" d="M-55.1526,-50.5196C-49.7049,-50.3566 -36.9543,-49.975 -23.8119,-49.5817"/>
<polygon fill="black" stroke="black" points="-23.5191,-51.3238 -18.5737,-49.4249 -23.6239,-47.8254 -23.5191,-51.3238"/>
<text text-anchor="middle" x="-39.4823" y="-40.4506" font-family="monospace" font-size="12.00">R254K</text>
</g>
<!-- anon_0_16_1 -->
<g id="node27" class="node"><title>anon_0_16_1</title>
<ellipse fill="white" stroke="black" cx="139.193" cy="-129.963" rx="1" ry="1"/>
</g>
<!-- anon_0_16_0&#45;&gt;anon_0_16_1 -->
<g id="edge10" class="edge"><title>anon_0_16_0&#45;&gt;anon_0_16_1</title>
<path fill="none" stroke="black" d="M111.685,-105.858C116.499,-110.076 133.949,-125.368 138.236,-129.125"/>
</g>
<!-- anon_0_16_2 -->
<g id="node28" class="node"><title>anon_0_16_2</title>
<ellipse fill="white" stroke="black" cx="153.491" cy="-166.859" rx="1" ry="1"/>
</g>
<!-- anon_0_16_1&#45;&gt;anon_0_16_2 -->
<g id="edge11" class="edge"><title>anon_0_16_1&#45;&gt;anon_0_16_2</title>
<path fill="none" stroke="black" d="M139.807,-131.548C142.202,-137.728 150.882,-160.128 153.015,-165.632"/>
</g>
<!-- anon_0_16_2&#45;&gt;16 -->
<g id="edge12" class="edge"><title>anon_0_16_2&#45;&gt;16</title>
<path fill="none" stroke="black" d="M153.839,-168.14C155.345,-173.672 161.306,-195.564 163.31,-202.926"/>
</g>
<!-- anon_8_15_0&#45;&gt;15 -->
<g id="edge22" class="edge"><title>anon_8_15_0&#45;&gt;15</title>
<path fill="none" stroke="black" d="M-68.0946,100.228C-66.2186,105.667 -58.7944,127.195 -56.2977,134.435"/>
</g>
</g>
</svg>
