<?xml version="1.0" encoding="utf-8" standalone="no"?>
<!DOCTYPE svg PUBLIC "-//W3C//DTD SVG 1.1//EN"
  "http://www.w3.org/Graphics/SVG/1.1/DTD/svg11.dtd">
<!-- Created with matplotlib (http://matplotlib.org/) -->
<svg height="270pt" version="1.1" viewBox="0 0 502 270" width="502pt" xmlns="http://www.w3.org/2000/svg" xmlns:xlink="http://www.w3.org/1999/xlink">
 <defs>
  <style type="text/css">
*{stroke-linecap:butt;stroke-linejoin:round;}
  </style>
 </defs>
 <g id="figure_1">
  <g id="patch_1">
   <path d="M 0 270.1425 
L 502.7825 270.1425 
L 502.7825 0 
L 0 0 
z
" style="fill:#ffffff;"/>
  </g>
  <g id="axes_1">
   <g id="patch_2">
    <path d="M 43.1825 230.64 
L 489.5825 230.64 
L 489.5825 13.2 
L 43.1825 13.2 
z
" style="fill:#ffffff;"/>
   </g>
   <g id="matplotlib.axis_1">
    <g id="xtick_1">
     <g id="line2d_1">
      <defs>
       <path d="M 0 0 
L 0 6 
" id="md3f803bc54" style="stroke:#262626;stroke-width:0.8;"/>
      </defs>
      <g>
       <use style="fill:#262626;stroke:#262626;stroke-width:0.8;" x="92.12545" xlink:href="#md3f803bc54" y="230.64"/>
      </g>
     </g>
     <g id="text_1">
      <!-- $10^{1}$ -->
      <defs>
       <path d="M 12.40625 8.296875 
L 28.515625 8.296875 
L 28.515625 63.921875 
L 10.984375 60.40625 
L 10.984375 69.390625 
L 28.421875 72.90625 
L 38.28125 72.90625 
L 38.28125 8.296875 
L 54.390625 8.296875 
L 54.390625 0 
L 12.40625 0 
z
" id="DejaVuSans-31"/>
       <path d="M 31.78125 66.40625 
Q 24.171875 66.40625 20.328125 58.90625 
Q 16.5 51.421875 16.5 36.375 
Q 16.5 21.390625 20.328125 13.890625 
Q 24.171875 6.390625 31.78125 6.390625 
Q 39.453125 6.390625 43.28125 13.890625 
Q 47.125 21.390625 47.125 36.375 
Q 47.125 51.421875 43.28125 58.90625 
Q 39.453125 66.40625 31.78125 66.40625 
z
M 31.78125 74.21875 
Q 44.046875 74.21875 50.515625 64.515625 
Q 56.984375 54.828125 56.984375 36.375 
Q 56.984375 17.96875 50.515625 8.265625 
Q 44.046875 -1.421875 31.78125 -1.421875 
Q 19.53125 -1.421875 13.0625 8.265625 
Q 6.59375 17.96875 6.59375 36.375 
Q 6.59375 54.828125 13.0625 64.515625 
Q 19.53125 74.21875 31.78125 74.21875 
z
" id="DejaVuSans-30"/>
      </defs>
      <g style="fill:#262626;" transform="translate(85.08545 248.01)scale(0.08 -0.08)">
       <use transform="translate(0 0.684375)" xlink:href="#DejaVuSans-31"/>
       <use transform="translate(63.623047 0.684375)" xlink:href="#DejaVuSans-30"/>
       <use transform="translate(128.203125 38.965625)scale(0.7)" xlink:href="#DejaVuSans-31"/>
      </g>
     </g>
    </g>
    <g id="xtick_2">
     <g id="line2d_2">
      <g>
       <use style="fill:#262626;stroke:#262626;stroke-width:0.8;" x="163.064748" xlink:href="#md3f803bc54" y="230.64"/>
      </g>
     </g>
     <g id="text_2">
      <!-- $10^{2}$ -->
      <defs>
       <path d="M 19.1875 8.296875 
L 53.609375 8.296875 
L 53.609375 0 
L 7.328125 0 
L 7.328125 8.296875 
Q 12.9375 14.109375 22.625 23.890625 
Q 32.328125 33.6875 34.8125 36.53125 
Q 39.546875 41.84375 41.421875 45.53125 
Q 43.3125 49.21875 43.3125 52.78125 
Q 43.3125 58.59375 39.234375 62.25 
Q 35.15625 65.921875 28.609375 65.921875 
Q 23.96875 65.921875 18.8125 64.3125 
Q 13.671875 62.703125 7.8125 59.421875 
L 7.8125 69.390625 
Q 13.765625 71.78125 18.9375 73 
Q 24.125 74.21875 28.421875 74.21875 
Q 39.75 74.21875 46.484375 68.546875 
Q 53.21875 62.890625 53.21875 53.421875 
Q 53.21875 48.921875 51.53125 44.890625 
Q 49.859375 40.875 45.40625 35.40625 
Q 44.1875 33.984375 37.640625 27.21875 
Q 31.109375 20.453125 19.1875 8.296875 
z
" id="DejaVuSans-32"/>
      </defs>
      <g style="fill:#262626;" transform="translate(156.024748 248.09)scale(0.08 -0.08)">
       <use transform="translate(0 0.765625)" xlink:href="#DejaVuSans-31"/>
       <use transform="translate(63.623047 0.765625)" xlink:href="#DejaVuSans-30"/>
       <use transform="translate(128.203125 39.046875)scale(0.7)" xlink:href="#DejaVuSans-32"/>
      </g>
     </g>
    </g>
    <g id="xtick_3">
     <g id="line2d_3">
      <g>
       <use style="fill:#262626;stroke:#262626;stroke-width:0.8;" x="234.004046" xlink:href="#md3f803bc54" y="230.64"/>
      </g>
     </g>
     <g id="text_3">
      <!-- $10^{3}$ -->
      <defs>
       <path d="M 40.578125 39.3125 
Q 47.65625 37.796875 51.625 33 
Q 55.609375 28.21875 55.609375 21.1875 
Q 55.609375 10.40625 48.1875 4.484375 
Q 40.765625 -1.421875 27.09375 -1.421875 
Q 22.515625 -1.421875 17.65625 -0.515625 
Q 12.796875 0.390625 7.625 2.203125 
L 7.625 11.71875 
Q 11.71875 9.328125 16.59375 8.109375 
Q 21.484375 6.890625 26.8125 6.890625 
Q 36.078125 6.890625 40.9375 10.546875 
Q 45.796875 14.203125 45.796875 21.1875 
Q 45.796875 27.640625 41.28125 31.265625 
Q 36.765625 34.90625 28.71875 34.90625 
L 20.21875 34.90625 
L 20.21875 43.015625 
L 29.109375 43.015625 
Q 36.375 43.015625 40.234375 45.921875 
Q 44.09375 48.828125 44.09375 54.296875 
Q 44.09375 59.90625 40.109375 62.90625 
Q 36.140625 65.921875 28.71875 65.921875 
Q 24.65625 65.921875 20.015625 65.03125 
Q 15.375 64.15625 9.8125 62.3125 
L 9.8125 71.09375 
Q 15.4375 72.65625 20.34375 73.4375 
Q 25.25 74.21875 29.59375 74.21875 
Q 40.828125 74.21875 47.359375 69.109375 
Q 53.90625 64.015625 53.90625 55.328125 
Q 53.90625 49.265625 50.4375 45.09375 
Q 46.96875 40.921875 40.578125 39.3125 
z
" id="DejaVuSans-33"/>
      </defs>
      <g style="fill:#262626;" transform="translate(226.964046 248.09)scale(0.08 -0.08)">
       <use transform="translate(0 0.765625)" xlink:href="#DejaVuSans-31"/>
       <use transform="translate(63.623047 0.765625)" xlink:href="#DejaVuSans-30"/>
       <use transform="translate(128.203125 39.046875)scale(0.7)" xlink:href="#DejaVuSans-33"/>
      </g>
     </g>
    </g>
    <g id="xtick_4">
     <g id="line2d_4">
      <g>
       <use style="fill:#262626;stroke:#262626;stroke-width:0.8;" x="304.943344" xlink:href="#md3f803bc54" y="230.64"/>
      </g>
     </g>
     <g id="text_4">
      <!-- $10^{4}$ -->
      <defs>
       <path d="M 37.796875 64.3125 
L 12.890625 25.390625 
L 37.796875 25.390625 
z
M 35.203125 72.90625 
L 47.609375 72.90625 
L 47.609375 25.390625 
L 58.015625 25.390625 
L 58.015625 17.1875 
L 47.609375 17.1875 
L 47.609375 0 
L 37.796875 0 
L 37.796875 17.1875 
L 4.890625 17.1875 
L 4.890625 26.703125 
z
" id="DejaVuSans-34"/>
      </defs>
      <g style="fill:#262626;" transform="translate(297.903344 248.01)scale(0.08 -0.08)">
       <use transform="translate(0 0.684375)" xlink:href="#DejaVuSans-31"/>
       <use transform="translate(63.623047 0.684375)" xlink:href="#DejaVuSans-30"/>
       <use transform="translate(128.203125 38.965625)scale(0.7)" xlink:href="#DejaVuSans-34"/>
      </g>
     </g>
    </g>
    <g id="xtick_5">
     <g id="line2d_5">
      <g>
       <use style="fill:#262626;stroke:#262626;stroke-width:0.8;" x="375.882642" xlink:href="#md3f803bc54" y="230.64"/>
      </g>
     </g>
     <g id="text_5">
      <!-- $10^{5}$ -->
      <defs>
       <path d="M 10.796875 72.90625 
L 49.515625 72.90625 
L 49.515625 64.59375 
L 19.828125 64.59375 
L 19.828125 46.734375 
Q 21.96875 47.46875 24.109375 47.828125 
Q 26.265625 48.1875 28.421875 48.1875 
Q 40.625 48.1875 47.75 41.5 
Q 54.890625 34.8125 54.890625 23.390625 
Q 54.890625 11.625 47.5625 5.09375 
Q 40.234375 -1.421875 26.90625 -1.421875 
Q 22.3125 -1.421875 17.546875 -0.640625 
Q 12.796875 0.140625 7.71875 1.703125 
L 7.71875 11.625 
Q 12.109375 9.234375 16.796875 8.0625 
Q 21.484375 6.890625 26.703125 6.890625 
Q 35.15625 6.890625 40.078125 11.328125 
Q 45.015625 15.765625 45.015625 23.390625 
Q 45.015625 31 40.078125 35.4375 
Q 35.15625 39.890625 26.703125 39.890625 
Q 22.75 39.890625 18.8125 39.015625 
Q 14.890625 38.140625 10.796875 36.28125 
z
" id="DejaVuSans-35"/>
      </defs>
      <g style="fill:#262626;" transform="translate(368.842642 248.01)scale(0.08 -0.08)">
       <use transform="translate(0 0.684375)" xlink:href="#DejaVuSans-31"/>
       <use transform="translate(63.623047 0.684375)" xlink:href="#DejaVuSans-30"/>
       <use transform="translate(128.203125 38.965625)scale(0.7)" xlink:href="#DejaVuSans-35"/>
      </g>
     </g>
    </g>
    <g id="xtick_6">
     <g id="line2d_6">
      <g>
       <use style="fill:#262626;stroke:#262626;stroke-width:0.8;" x="446.82194" xlink:href="#md3f803bc54" y="230.64"/>
      </g>
     </g>
     <g id="text_6">
      <!-- $10^{6}$ -->
      <defs>
       <path d="M 33.015625 40.375 
Q 26.375 40.375 22.484375 35.828125 
Q 18.609375 31.296875 18.609375 23.390625 
Q 18.609375 15.53125 22.484375 10.953125 
Q 26.375 6.390625 33.015625 6.390625 
Q 39.65625 6.390625 43.53125 10.953125 
Q 47.40625 15.53125 47.40625 23.390625 
Q 47.40625 31.296875 43.53125 35.828125 
Q 39.65625 40.375 33.015625 40.375 
z
M 52.59375 71.296875 
L 52.59375 62.3125 
Q 48.875 64.0625 45.09375 64.984375 
Q 41.3125 65.921875 37.59375 65.921875 
Q 27.828125 65.921875 22.671875 59.328125 
Q 17.53125 52.734375 16.796875 39.40625 
Q 19.671875 43.65625 24.015625 45.921875 
Q 28.375 48.1875 33.59375 48.1875 
Q 44.578125 48.1875 50.953125 41.515625 
Q 57.328125 34.859375 57.328125 23.390625 
Q 57.328125 12.15625 50.6875 5.359375 
Q 44.046875 -1.421875 33.015625 -1.421875 
Q 20.359375 -1.421875 13.671875 8.265625 
Q 6.984375 17.96875 6.984375 36.375 
Q 6.984375 53.65625 15.1875 63.9375 
Q 23.390625 74.21875 37.203125 74.21875 
Q 40.921875 74.21875 44.703125 73.484375 
Q 48.484375 72.75 52.59375 71.296875 
z
" id="DejaVuSans-36"/>
      </defs>
      <g style="fill:#262626;" transform="translate(439.78194 248.09)scale(0.08 -0.08)">
       <use transform="translate(0 0.765625)" xlink:href="#DejaVuSans-31"/>
       <use transform="translate(63.623047 0.765625)" xlink:href="#DejaVuSans-30"/>
       <use transform="translate(128.203125 39.046875)scale(0.7)" xlink:href="#DejaVuSans-36"/>
      </g>
     </g>
    </g>
    <g id="text_7">
     <!-- Haplotype age -->
     <defs>
      <path d="M 8.015625 0 
L 8.015625 71.578125 
L 17.484375 71.578125 
L 17.484375 42.1875 
L 54.6875 42.1875 
L 54.6875 71.578125 
L 64.15625 71.578125 
L 64.15625 0 
L 54.6875 0 
L 54.6875 33.734375 
L 17.484375 33.734375 
L 17.484375 0 
z
" id="ArialMT-48"/>
      <path d="M 40.4375 6.390625 
Q 35.546875 2.25 31.03125 0.53125 
Q 26.515625 -1.171875 21.34375 -1.171875 
Q 12.796875 -1.171875 8.203125 3 
Q 3.609375 7.171875 3.609375 13.671875 
Q 3.609375 17.484375 5.34375 20.625 
Q 7.078125 23.78125 9.890625 25.6875 
Q 12.703125 27.59375 16.21875 28.5625 
Q 18.796875 29.25 24.03125 29.890625 
Q 34.671875 31.15625 39.703125 32.90625 
Q 39.75 34.71875 39.75 35.203125 
Q 39.75 40.578125 37.25 42.78125 
Q 33.890625 45.75 27.25 45.75 
Q 21.046875 45.75 18.09375 43.578125 
Q 15.140625 41.40625 13.71875 35.890625 
L 5.125 37.0625 
Q 6.296875 42.578125 8.984375 45.96875 
Q 11.671875 49.359375 16.75 51.1875 
Q 21.828125 53.03125 28.515625 53.03125 
Q 35.15625 53.03125 39.296875 51.46875 
Q 43.453125 49.90625 45.40625 47.53125 
Q 47.359375 45.171875 48.140625 41.546875 
Q 48.578125 39.3125 48.578125 33.453125 
L 48.578125 21.734375 
Q 48.578125 9.46875 49.140625 6.21875 
Q 49.703125 2.984375 51.375 0 
L 42.1875 0 
Q 40.828125 2.734375 40.4375 6.390625 
z
M 39.703125 26.03125 
Q 34.90625 24.078125 25.34375 22.703125 
Q 19.921875 21.921875 17.671875 20.9375 
Q 15.4375 19.96875 14.203125 18.09375 
Q 12.984375 16.21875 12.984375 13.921875 
Q 12.984375 10.40625 15.640625 8.0625 
Q 18.3125 5.71875 23.4375 5.71875 
Q 28.515625 5.71875 32.46875 7.9375 
Q 36.421875 10.15625 38.28125 14.015625 
Q 39.703125 17 39.703125 22.796875 
z
" id="ArialMT-61"/>
      <path d="M 6.59375 -19.875 
L 6.59375 51.859375 
L 14.59375 51.859375 
L 14.59375 45.125 
Q 17.4375 49.078125 21 51.046875 
Q 24.5625 53.03125 29.640625 53.03125 
Q 36.28125 53.03125 41.359375 49.609375 
Q 46.4375 46.1875 49.015625 39.953125 
Q 51.609375 33.734375 51.609375 26.3125 
Q 51.609375 18.359375 48.75 11.984375 
Q 45.90625 5.609375 40.453125 2.21875 
Q 35.015625 -1.171875 29 -1.171875 
Q 24.609375 -1.171875 21.109375 0.6875 
Q 17.625 2.546875 15.375 5.375 
L 15.375 -19.875 
z
M 14.546875 25.640625 
Q 14.546875 15.625 18.59375 10.84375 
Q 22.65625 6.0625 28.421875 6.0625 
Q 34.28125 6.0625 38.453125 11.015625 
Q 42.625 15.96875 42.625 26.375 
Q 42.625 36.28125 38.546875 41.203125 
Q 34.46875 46.140625 28.8125 46.140625 
Q 23.1875 46.140625 18.859375 40.890625 
Q 14.546875 35.640625 14.546875 25.640625 
z
" id="ArialMT-70"/>
      <path d="M 6.390625 0 
L 6.390625 71.578125 
L 15.1875 71.578125 
L 15.1875 0 
z
" id="ArialMT-6c"/>
      <path d="M 3.328125 25.921875 
Q 3.328125 40.328125 11.328125 47.265625 
Q 18.015625 53.03125 27.640625 53.03125 
Q 38.328125 53.03125 45.109375 46.015625 
Q 51.90625 39.015625 51.90625 26.65625 
Q 51.90625 16.65625 48.90625 10.90625 
Q 45.90625 5.171875 40.15625 2 
Q 34.421875 -1.171875 27.640625 -1.171875 
Q 16.75 -1.171875 10.03125 5.8125 
Q 3.328125 12.796875 3.328125 25.921875 
z
M 12.359375 25.921875 
Q 12.359375 15.96875 16.703125 11.015625 
Q 21.046875 6.0625 27.640625 6.0625 
Q 34.1875 6.0625 38.53125 11.03125 
Q 42.875 16.015625 42.875 26.21875 
Q 42.875 35.84375 38.5 40.796875 
Q 34.125 45.75 27.640625 45.75 
Q 21.046875 45.75 16.703125 40.8125 
Q 12.359375 35.890625 12.359375 25.921875 
z
" id="ArialMT-6f"/>
      <path d="M 25.78125 7.859375 
L 27.046875 0.09375 
Q 23.34375 -0.6875 20.40625 -0.6875 
Q 15.625 -0.6875 12.984375 0.828125 
Q 10.359375 2.34375 9.28125 4.8125 
Q 8.203125 7.28125 8.203125 15.1875 
L 8.203125 45.015625 
L 1.765625 45.015625 
L 1.765625 51.859375 
L 8.203125 51.859375 
L 8.203125 64.703125 
L 16.9375 69.96875 
L 16.9375 51.859375 
L 25.78125 51.859375 
L 25.78125 45.015625 
L 16.9375 45.015625 
L 16.9375 14.703125 
Q 16.9375 10.9375 17.40625 9.859375 
Q 17.875 8.796875 18.921875 8.15625 
Q 19.96875 7.515625 21.921875 7.515625 
Q 23.390625 7.515625 25.78125 7.859375 
z
" id="ArialMT-74"/>
      <path d="M 6.203125 -19.96875 
L 5.21875 -11.71875 
Q 8.109375 -12.5 10.25 -12.5 
Q 13.1875 -12.5 14.9375 -11.515625 
Q 16.703125 -10.546875 17.828125 -8.796875 
Q 18.65625 -7.46875 20.515625 -2.25 
Q 20.75 -1.515625 21.296875 -0.09375 
L 1.609375 51.859375 
L 11.078125 51.859375 
L 21.875 21.828125 
Q 23.96875 16.109375 25.640625 9.8125 
Q 27.15625 15.875 29.25 21.625 
L 40.328125 51.859375 
L 49.125 51.859375 
L 29.390625 -0.875 
Q 26.21875 -9.421875 24.46875 -12.640625 
Q 22.125 -17 19.09375 -19.015625 
Q 16.0625 -21.046875 11.859375 -21.046875 
Q 9.328125 -21.046875 6.203125 -19.96875 
z
" id="ArialMT-79"/>
      <path d="M 42.09375 16.703125 
L 51.171875 15.578125 
Q 49.03125 7.625 43.21875 3.21875 
Q 37.40625 -1.171875 28.375 -1.171875 
Q 17 -1.171875 10.328125 5.828125 
Q 3.65625 12.84375 3.65625 25.484375 
Q 3.65625 38.578125 10.390625 45.796875 
Q 17.140625 53.03125 27.875 53.03125 
Q 38.28125 53.03125 44.875 45.953125 
Q 51.46875 38.875 51.46875 26.03125 
Q 51.46875 25.25 51.421875 23.6875 
L 12.75 23.6875 
Q 13.234375 15.140625 17.578125 10.59375 
Q 21.921875 6.0625 28.421875 6.0625 
Q 33.25 6.0625 36.671875 8.59375 
Q 40.09375 11.140625 42.09375 16.703125 
z
M 13.234375 30.90625 
L 42.1875 30.90625 
Q 41.609375 37.453125 38.875 40.71875 
Q 34.671875 45.796875 27.984375 45.796875 
Q 21.921875 45.796875 17.796875 41.75 
Q 13.671875 37.703125 13.234375 30.90625 
z
" id="ArialMT-65"/>
      <path id="ArialMT-20"/>
      <path d="M 4.984375 -4.296875 
L 13.53125 -5.5625 
Q 14.0625 -9.515625 16.5 -11.328125 
Q 19.78125 -13.765625 25.4375 -13.765625 
Q 31.546875 -13.765625 34.859375 -11.328125 
Q 38.1875 -8.890625 39.359375 -4.5 
Q 40.046875 -1.8125 39.984375 6.78125 
Q 34.234375 0 25.640625 0 
Q 14.9375 0 9.078125 7.71875 
Q 3.21875 15.4375 3.21875 26.21875 
Q 3.21875 33.640625 5.90625 39.90625 
Q 8.59375 46.1875 13.6875 49.609375 
Q 18.796875 53.03125 25.6875 53.03125 
Q 34.859375 53.03125 40.828125 45.609375 
L 40.828125 51.859375 
L 48.921875 51.859375 
L 48.921875 7.03125 
Q 48.921875 -5.078125 46.453125 -10.125 
Q 44 -15.1875 38.640625 -18.109375 
Q 33.296875 -21.046875 25.484375 -21.046875 
Q 16.21875 -21.046875 10.5 -16.875 
Q 4.78125 -12.703125 4.984375 -4.296875 
z
M 12.25 26.859375 
Q 12.25 16.65625 16.296875 11.96875 
Q 20.359375 7.28125 26.46875 7.28125 
Q 32.515625 7.28125 36.609375 11.9375 
Q 40.71875 16.609375 40.71875 26.5625 
Q 40.71875 36.078125 36.5 40.90625 
Q 32.28125 45.75 26.3125 45.75 
Q 20.453125 45.75 16.34375 40.984375 
Q 12.25 36.234375 12.25 26.859375 
z
" id="ArialMT-67"/>
     </defs>
     <g style="fill:#262626;" transform="translate(234.13875 260.837812)scale(0.1 -0.1)">
      <use xlink:href="#ArialMT-48"/>
      <use x="72.216797" xlink:href="#ArialMT-61"/>
      <use x="127.832031" xlink:href="#ArialMT-70"/>
      <use x="183.447266" xlink:href="#ArialMT-6c"/>
      <use x="205.664062" xlink:href="#ArialMT-6f"/>
      <use x="261.279297" xlink:href="#ArialMT-74"/>
      <use x="289.0625" xlink:href="#ArialMT-79"/>
      <use x="339.0625" xlink:href="#ArialMT-70"/>
      <use x="394.677734" xlink:href="#ArialMT-65"/>
      <use x="450.292969" xlink:href="#ArialMT-20"/>
      <use x="478.076172" xlink:href="#ArialMT-61"/>
      <use x="533.691406" xlink:href="#ArialMT-67"/>
      <use x="589.306641" xlink:href="#ArialMT-65"/>
     </g>
    </g>
   </g>
   <g id="matplotlib.axis_2">
    <g id="ytick_1">
     <g id="line2d_7">
      <defs>
       <path d="M 0 0 
L -6 0 
" id="m43a4940e6d" style="stroke:#262626;stroke-width:0.8;"/>
      </defs>
      <g>
       <use style="fill:#262626;stroke:#262626;stroke-width:0.8;" x="43.1825" xlink:href="#m43a4940e6d" y="220.756364"/>
      </g>
     </g>
     <g id="text_8">
      <!-- 0.0 -->
      <defs>
       <path d="M 4.15625 35.296875 
Q 4.15625 48 6.765625 55.734375 
Q 9.375 63.484375 14.515625 67.671875 
Q 19.671875 71.875 27.484375 71.875 
Q 33.25 71.875 37.59375 69.546875 
Q 41.9375 67.234375 44.765625 62.859375 
Q 47.609375 58.5 49.21875 52.21875 
Q 50.828125 45.953125 50.828125 35.296875 
Q 50.828125 22.703125 48.234375 14.96875 
Q 45.65625 7.234375 40.5 3 
Q 35.359375 -1.21875 27.484375 -1.21875 
Q 17.140625 -1.21875 11.234375 6.203125 
Q 4.15625 15.140625 4.15625 35.296875 
z
M 13.1875 35.296875 
Q 13.1875 17.671875 17.3125 11.828125 
Q 21.4375 6 27.484375 6 
Q 33.546875 6 37.671875 11.859375 
Q 41.796875 17.71875 41.796875 35.296875 
Q 41.796875 52.984375 37.671875 58.78125 
Q 33.546875 64.59375 27.390625 64.59375 
Q 21.34375 64.59375 17.71875 59.46875 
Q 13.1875 52.9375 13.1875 35.296875 
z
" id="ArialMT-30"/>
       <path d="M 9.078125 0 
L 9.078125 10.015625 
L 19.09375 10.015625 
L 19.09375 0 
z
" id="ArialMT-2e"/>
      </defs>
      <g style="fill:#262626;" transform="translate(20.4625 223.619489)scale(0.08 -0.08)">
       <use xlink:href="#ArialMT-30"/>
       <use x="55.615234" xlink:href="#ArialMT-2e"/>
       <use x="83.398438" xlink:href="#ArialMT-30"/>
      </g>
     </g>
    </g>
    <g id="ytick_2">
     <g id="line2d_8">
      <g>
       <use style="fill:#262626;stroke:#262626;stroke-width:0.8;" x="43.1825" xlink:href="#m43a4940e6d" y="186.871662"/>
      </g>
     </g>
     <g id="text_9">
      <!-- 0.2 -->
      <defs>
       <path d="M 50.34375 8.453125 
L 50.34375 0 
L 3.03125 0 
Q 2.9375 3.171875 4.046875 6.109375 
Q 5.859375 10.9375 9.828125 15.625 
Q 13.8125 20.3125 21.34375 26.46875 
Q 33.015625 36.03125 37.109375 41.625 
Q 41.21875 47.21875 41.21875 52.203125 
Q 41.21875 57.421875 37.46875 61 
Q 33.734375 64.59375 27.734375 64.59375 
Q 21.390625 64.59375 17.578125 60.78125 
Q 13.765625 56.984375 13.71875 50.25 
L 4.6875 51.171875 
Q 5.609375 61.28125 11.65625 66.578125 
Q 17.71875 71.875 27.9375 71.875 
Q 38.234375 71.875 44.234375 66.15625 
Q 50.25 60.453125 50.25 52 
Q 50.25 47.703125 48.484375 43.546875 
Q 46.734375 39.40625 42.65625 34.8125 
Q 38.578125 30.21875 29.109375 22.21875 
Q 21.1875 15.578125 18.9375 13.203125 
Q 16.703125 10.84375 15.234375 8.453125 
z
" id="ArialMT-32"/>
      </defs>
      <g style="fill:#262626;" transform="translate(20.4625 189.734787)scale(0.08 -0.08)">
       <use xlink:href="#ArialMT-30"/>
       <use x="55.615234" xlink:href="#ArialMT-2e"/>
       <use x="83.398438" xlink:href="#ArialMT-32"/>
      </g>
     </g>
    </g>
    <g id="ytick_3">
     <g id="line2d_9">
      <g>
       <use style="fill:#262626;stroke:#262626;stroke-width:0.8;" x="43.1825" xlink:href="#m43a4940e6d" y="152.98696"/>
      </g>
     </g>
     <g id="text_10">
      <!-- 0.4 -->
      <defs>
       <path d="M 32.328125 0 
L 32.328125 17.140625 
L 1.265625 17.140625 
L 1.265625 25.203125 
L 33.9375 71.578125 
L 41.109375 71.578125 
L 41.109375 25.203125 
L 50.78125 25.203125 
L 50.78125 17.140625 
L 41.109375 17.140625 
L 41.109375 0 
z
M 32.328125 25.203125 
L 32.328125 57.46875 
L 9.90625 25.203125 
z
" id="ArialMT-34"/>
      </defs>
      <g style="fill:#262626;" transform="translate(20.4625 155.850085)scale(0.08 -0.08)">
       <use xlink:href="#ArialMT-30"/>
       <use x="55.615234" xlink:href="#ArialMT-2e"/>
       <use x="83.398438" xlink:href="#ArialMT-34"/>
      </g>
     </g>
    </g>
    <g id="ytick_4">
     <g id="line2d_10">
      <g>
       <use style="fill:#262626;stroke:#262626;stroke-width:0.8;" x="43.1825" xlink:href="#m43a4940e6d" y="119.102259"/>
      </g>
     </g>
     <g id="text_11">
      <!-- 0.6 -->
      <defs>
       <path d="M 49.75 54.046875 
L 41.015625 53.375 
Q 39.84375 58.546875 37.703125 60.890625 
Q 34.125 64.65625 28.90625 64.65625 
Q 24.703125 64.65625 21.53125 62.3125 
Q 17.390625 59.28125 14.984375 53.46875 
Q 12.59375 47.65625 12.5 36.921875 
Q 15.671875 41.75 20.265625 44.09375 
Q 24.859375 46.4375 29.890625 46.4375 
Q 38.671875 46.4375 44.84375 39.96875 
Q 51.03125 33.5 51.03125 23.25 
Q 51.03125 16.5 48.125 10.71875 
Q 45.21875 4.9375 40.140625 1.859375 
Q 35.0625 -1.21875 28.609375 -1.21875 
Q 17.625 -1.21875 10.6875 6.859375 
Q 3.765625 14.9375 3.765625 33.5 
Q 3.765625 54.25 11.421875 63.671875 
Q 18.109375 71.875 29.4375 71.875 
Q 37.890625 71.875 43.28125 67.140625 
Q 48.6875 62.40625 49.75 54.046875 
z
M 13.875 23.1875 
Q 13.875 18.65625 15.796875 14.5 
Q 17.71875 10.359375 21.1875 8.171875 
Q 24.65625 6 28.46875 6 
Q 34.03125 6 38.03125 10.484375 
Q 42.046875 14.984375 42.046875 22.703125 
Q 42.046875 30.125 38.078125 34.390625 
Q 34.125 38.671875 28.125 38.671875 
Q 22.171875 38.671875 18.015625 34.390625 
Q 13.875 30.125 13.875 23.1875 
z
" id="ArialMT-36"/>
      </defs>
      <g style="fill:#262626;" transform="translate(20.4625 121.965384)scale(0.08 -0.08)">
       <use xlink:href="#ArialMT-30"/>
       <use x="55.615234" xlink:href="#ArialMT-2e"/>
       <use x="83.398438" xlink:href="#ArialMT-36"/>
      </g>
     </g>
    </g>
    <g id="ytick_5">
     <g id="line2d_11">
      <g>
       <use style="fill:#262626;stroke:#262626;stroke-width:0.8;" x="43.1825" xlink:href="#m43a4940e6d" y="85.217557"/>
      </g>
     </g>
     <g id="text_12">
      <!-- 0.8 -->
      <defs>
       <path d="M 17.671875 38.8125 
Q 12.203125 40.828125 9.5625 44.53125 
Q 6.9375 48.25 6.9375 53.421875 
Q 6.9375 61.234375 12.546875 66.546875 
Q 18.171875 71.875 27.484375 71.875 
Q 36.859375 71.875 42.578125 66.421875 
Q 48.296875 60.984375 48.296875 53.171875 
Q 48.296875 48.1875 45.671875 44.5 
Q 43.0625 40.828125 37.75 38.8125 
Q 44.34375 36.671875 47.78125 31.875 
Q 51.21875 27.09375 51.21875 20.453125 
Q 51.21875 11.28125 44.71875 5.03125 
Q 38.234375 -1.21875 27.640625 -1.21875 
Q 17.046875 -1.21875 10.546875 5.046875 
Q 4.046875 11.328125 4.046875 20.703125 
Q 4.046875 27.6875 7.59375 32.390625 
Q 11.140625 37.109375 17.671875 38.8125 
z
M 15.921875 53.71875 
Q 15.921875 48.640625 19.1875 45.40625 
Q 22.46875 42.1875 27.6875 42.1875 
Q 32.765625 42.1875 36.015625 45.375 
Q 39.265625 48.578125 39.265625 53.21875 
Q 39.265625 58.0625 35.90625 61.359375 
Q 32.5625 64.65625 27.59375 64.65625 
Q 22.5625 64.65625 19.234375 61.421875 
Q 15.921875 58.203125 15.921875 53.71875 
z
M 13.09375 20.65625 
Q 13.09375 16.890625 14.875 13.375 
Q 16.65625 9.859375 20.171875 7.921875 
Q 23.6875 6 27.734375 6 
Q 34.03125 6 38.125 10.046875 
Q 42.234375 14.109375 42.234375 20.359375 
Q 42.234375 26.703125 38.015625 30.859375 
Q 33.796875 35.015625 27.4375 35.015625 
Q 21.234375 35.015625 17.15625 30.90625 
Q 13.09375 26.8125 13.09375 20.65625 
z
" id="ArialMT-38"/>
      </defs>
      <g style="fill:#262626;" transform="translate(20.4625 88.080682)scale(0.08 -0.08)">
       <use xlink:href="#ArialMT-30"/>
       <use x="55.615234" xlink:href="#ArialMT-2e"/>
       <use x="83.398438" xlink:href="#ArialMT-38"/>
      </g>
     </g>
    </g>
    <g id="ytick_6">
     <g id="line2d_12">
      <g>
       <use style="fill:#262626;stroke:#262626;stroke-width:0.8;" x="43.1825" xlink:href="#m43a4940e6d" y="51.332856"/>
      </g>
     </g>
     <g id="text_13">
      <!-- 1.0 -->
      <defs>
       <path d="M 37.25 0 
L 28.46875 0 
L 28.46875 56 
Q 25.296875 52.984375 20.140625 49.953125 
Q 14.984375 46.921875 10.890625 45.40625 
L 10.890625 53.90625 
Q 18.265625 57.375 23.78125 62.296875 
Q 29.296875 67.234375 31.59375 71.875 
L 37.25 71.875 
z
" id="ArialMT-31"/>
      </defs>
      <g style="fill:#262626;" transform="translate(20.4625 54.195981)scale(0.08 -0.08)">
       <use xlink:href="#ArialMT-31"/>
       <use x="55.615234" xlink:href="#ArialMT-2e"/>
       <use x="83.398438" xlink:href="#ArialMT-30"/>
      </g>
     </g>
    </g>
    <g id="ytick_7">
     <g id="line2d_13">
      <g>
       <use style="fill:#262626;stroke:#262626;stroke-width:0.8;" x="43.1825" xlink:href="#m43a4940e6d" y="17.448154"/>
      </g>
     </g>
     <g id="text_14">
      <!-- 1.2 -->
      <g style="fill:#262626;" transform="translate(20.4625 20.311279)scale(0.08 -0.08)">
       <use xlink:href="#ArialMT-31"/>
       <use x="55.615234" xlink:href="#ArialMT-2e"/>
       <use x="83.398438" xlink:href="#ArialMT-32"/>
      </g>
     </g>
    </g>
    <g id="text_15">
     <!-- Density -->
     <defs>
      <path d="M 7.71875 0 
L 7.71875 71.578125 
L 32.375 71.578125 
Q 40.71875 71.578125 45.125 70.5625 
Q 51.265625 69.140625 55.609375 65.4375 
Q 61.28125 60.640625 64.078125 53.1875 
Q 66.890625 45.75 66.890625 36.1875 
Q 66.890625 28.03125 64.984375 21.734375 
Q 63.09375 15.4375 60.109375 11.296875 
Q 57.125 7.171875 53.578125 4.796875 
Q 50.046875 2.4375 45.046875 1.21875 
Q 40.046875 0 33.546875 0 
z
M 17.1875 8.453125 
L 32.46875 8.453125 
Q 39.546875 8.453125 43.578125 9.765625 
Q 47.609375 11.078125 50 13.484375 
Q 53.375 16.84375 55.25 22.53125 
Q 57.125 28.21875 57.125 36.328125 
Q 57.125 47.5625 53.4375 53.59375 
Q 49.75 59.625 44.484375 61.671875 
Q 40.671875 63.140625 32.234375 63.140625 
L 17.1875 63.140625 
z
" id="ArialMT-44"/>
      <path d="M 6.59375 0 
L 6.59375 51.859375 
L 14.5 51.859375 
L 14.5 44.484375 
Q 20.21875 53.03125 31 53.03125 
Q 35.6875 53.03125 39.625 51.34375 
Q 43.5625 49.65625 45.515625 46.921875 
Q 47.46875 44.1875 48.25 40.4375 
Q 48.734375 37.984375 48.734375 31.890625 
L 48.734375 0 
L 39.9375 0 
L 39.9375 31.546875 
Q 39.9375 36.921875 38.90625 39.578125 
Q 37.890625 42.234375 35.28125 43.8125 
Q 32.671875 45.40625 29.15625 45.40625 
Q 23.53125 45.40625 19.453125 41.84375 
Q 15.375 38.28125 15.375 28.328125 
L 15.375 0 
z
" id="ArialMT-6e"/>
      <path d="M 3.078125 15.484375 
L 11.765625 16.84375 
Q 12.5 11.625 15.84375 8.84375 
Q 19.1875 6.0625 25.203125 6.0625 
Q 31.25 6.0625 34.171875 8.515625 
Q 37.109375 10.984375 37.109375 14.3125 
Q 37.109375 17.28125 34.515625 19 
Q 32.71875 20.171875 25.53125 21.96875 
Q 15.875 24.421875 12.140625 26.203125 
Q 8.40625 27.984375 6.46875 31.125 
Q 4.546875 34.28125 4.546875 38.09375 
Q 4.546875 41.546875 6.125 44.5 
Q 7.71875 47.46875 10.453125 49.421875 
Q 12.5 50.921875 16.03125 51.96875 
Q 19.578125 53.03125 23.640625 53.03125 
Q 29.734375 53.03125 34.34375 51.265625 
Q 38.96875 49.515625 41.15625 46.5 
Q 43.359375 43.5 44.1875 38.484375 
L 35.59375 37.3125 
Q 35.015625 41.3125 32.203125 43.546875 
Q 29.390625 45.796875 24.265625 45.796875 
Q 18.21875 45.796875 15.625 43.796875 
Q 13.03125 41.796875 13.03125 39.109375 
Q 13.03125 37.40625 14.109375 36.03125 
Q 15.1875 34.625 17.484375 33.6875 
Q 18.796875 33.203125 25.25 31.453125 
Q 34.578125 28.953125 38.25 27.359375 
Q 41.9375 25.78125 44.03125 22.75 
Q 46.140625 19.734375 46.140625 15.234375 
Q 46.140625 10.84375 43.578125 6.953125 
Q 41.015625 3.078125 36.171875 0.953125 
Q 31.34375 -1.171875 25.25 -1.171875 
Q 15.140625 -1.171875 9.84375 3.03125 
Q 4.546875 7.234375 3.078125 15.484375 
z
" id="ArialMT-73"/>
      <path d="M 6.640625 61.46875 
L 6.640625 71.578125 
L 15.4375 71.578125 
L 15.4375 61.46875 
z
M 6.640625 0 
L 6.640625 51.859375 
L 15.4375 51.859375 
L 15.4375 0 
z
" id="ArialMT-69"/>
     </defs>
     <g style="fill:#262626;" transform="translate(14.357812 138.591875)rotate(-90)scale(0.1 -0.1)">
      <use xlink:href="#ArialMT-44"/>
      <use x="72.216797" xlink:href="#ArialMT-65"/>
      <use x="127.832031" xlink:href="#ArialMT-6e"/>
      <use x="183.447266" xlink:href="#ArialMT-73"/>
      <use x="233.447266" xlink:href="#ArialMT-69"/>
      <use x="255.664062" xlink:href="#ArialMT-74"/>
      <use x="283.447266" xlink:href="#ArialMT-79"/>
     </g>
    </g>
   </g>
   <g id="line2d_14">
    <path clip-path="url(#peecf25b851)" d="M 78.376039 220.75186 
L 93.095017 220.65852 
L 100.454506 220.397158 
L 104.134251 220.113725 
L 107.813995 219.65625 
L 111.49374 218.952292 
L 115.173484 217.91897 
L 118.853229 216.471017 
L 120.693101 215.566964 
L 122.532973 214.531879 
L 124.372845 213.359436 
L 126.212718 212.045099 
L 128.05259 210.586192 
L 131.732334 207.232569 
L 135.412079 203.30669 
L 139.091823 198.823547 
L 142.771568 193.782467 
L 146.451312 188.145061 
L 150.131057 181.82191 
L 153.810801 174.674076 
L 155.650674 170.738025 
L 157.490546 166.530848 
L 159.330418 162.031245 
L 161.17029 157.220107 
L 163.010163 152.081679 
L 166.689907 140.783336 
L 170.369652 128.117889 
L 174.049396 114.184976 
L 177.729141 99.229602 
L 186.928502 60.573228 
L 190.608247 46.589985 
L 192.448119 40.406992 
L 194.287991 34.949713 
L 196.127863 30.359128 
L 197.967736 26.770994 
L 199.807608 24.310011 
L 201.64748 23.083636 
L 203.487352 23.175947 
L 205.327225 24.642013 
L 207.167097 27.503268 
L 209.006969 31.744346 
L 210.846841 37.311734 
L 212.686714 44.11448 
L 214.526586 52.027014 
L 216.366458 60.893951 
L 220.046203 80.760496 
L 229.245564 133.738259 
L 232.925309 152.699364 
L 234.765181 161.244686 
L 236.605053 169.094069 
L 238.444925 176.224353 
L 240.284798 182.633853 
L 242.12467 188.3388 
L 243.964542 193.369582 
L 245.804414 197.767048 
L 247.644287 201.579086 
L 249.484159 204.857617 
L 251.324031 207.656091 
L 253.163903 210.027499 
L 255.003776 212.022885 
L 256.843648 213.690309 
L 258.68352 215.074191 
L 260.523392 216.214963 
L 262.363265 217.148942 
L 264.203137 217.908391 
L 266.043009 218.521671 
L 269.722754 219.405157 
L 273.402498 219.958229 
L 277.082243 220.295215 
L 282.601859 220.56148 
L 291.801221 220.714447 
L 312.039816 220.753083 
L 312.039816 220.753083 
" style="fill:none;stroke:#6aaed6;stroke-linecap:round;stroke-width:1.2;"/>
   </g>
   <g id="line2d_15">
    <path clip-path="url(#peecf25b851)" d="M 81.244821 220.168501 
L 83.968052 220.437054 
L 89.414513 220.661302 
L 97.584204 220.685791 
L 105.753896 220.520428 
L 111.200357 220.24915 
L 116.646817 219.755616 
L 122.093278 218.935888 
L 124.816509 218.368739 
L 127.539739 217.677745 
L 130.26297 216.848244 
L 132.9862 215.864484 
L 135.709431 214.708585 
L 138.432661 213.359261 
L 141.155892 211.790591 
L 143.879122 209.97112 
L 146.602353 207.86364 
L 149.325583 205.425903 
L 152.048814 202.612502 
L 154.772044 199.377959 
L 157.495275 195.680996 
L 160.218505 191.48978 
L 162.941736 186.787764 
L 165.664966 181.579579 
L 168.388197 175.896232 
L 171.111427 169.798717 
L 176.557888 156.758885 
L 182.004349 143.509812 
L 184.727579 137.202898 
L 187.45081 131.314775 
L 190.17404 125.976752 
L 192.897271 121.28922 
L 195.620501 117.31673 
L 198.343732 114.088634 
L 201.066962 111.605498 
L 203.790193 109.850297 
L 206.513423 108.802205 
L 209.236654 108.44989 
L 211.959884 108.800947 
L 214.683115 109.884651 
L 217.406345 111.746599 
L 220.129576 114.435845 
L 222.852806 117.987128 
L 225.576037 122.402272 
L 228.299267 127.635248 
L 231.022498 133.584532 
L 233.745728 140.094635 
L 244.63865 167.48954 
L 247.36188 173.596226 
L 250.085111 179.070543 
L 252.808341 183.829228 
L 255.531572 187.845156 
L 258.254802 191.143873 
L 260.978033 193.795278 
L 263.701263 195.901588 
L 266.424494 197.583158 
L 269.147724 198.96409 
L 274.594185 201.266527 
L 280.040646 203.484087 
L 285.487107 205.92316 
L 293.656799 209.975453 
L 299.10326 212.683708 
L 304.549721 215.133486 
L 307.272951 216.200186 
L 309.996181 217.139954 
L 312.719412 217.945829 
L 315.442642 218.618203 
L 318.165873 219.163746 
L 323.612334 219.921065 
L 329.058795 220.316851 
L 334.505256 220.392514 
L 337.228486 220.278026 
L 339.951717 220.007367 
L 342.674947 219.504519 
L 345.398178 218.657491 
L 348.121408 217.314575 
L 350.844639 215.286569 
L 353.567869 212.358594 
L 356.2911 208.31449 
L 359.01433 202.974741 
L 361.737561 196.245202 
L 364.460791 188.169389 
L 367.184022 178.972767 
L 372.630482 159.129428 
L 375.353713 149.868018 
L 378.076943 142.11304 
L 380.800174 136.61048 
L 383.523404 133.922493 
L 386.246635 134.332832 
L 388.969865 137.797517 
L 391.693096 143.952598 
L 394.416326 152.177117 
L 397.139557 161.696215 
L 402.586018 181.457682 
L 405.309248 190.392152 
L 408.032479 198.128556 
L 410.755709 204.492616 
L 413.47894 209.481848 
L 416.20217 213.21801 
L 418.925401 215.894962 
L 421.648631 217.732462 
L 424.371862 218.941921 
L 427.095092 219.705723 
L 427.095092 219.705723 
" style="fill:none;stroke:#fb694a;stroke-linecap:round;stroke-width:1.2;"/>
   </g>
   <g id="line2d_16">
    <path clip-path="url(#peecf25b851)" d="M 71.030499 219.520661 
L 73.342412 220.016422 
L 75.654325 220.319027 
L 80.278151 220.588595 
L 84.901977 220.626725 
L 91.837715 220.416479 
L 96.461541 220.029248 
L 98.773454 219.712824 
L 101.085367 219.28088 
L 103.39728 218.701365 
L 105.709192 217.936834 
L 108.021105 216.944974 
L 110.333018 215.679697 
L 112.644931 214.092928 
L 114.956844 212.137125 
L 117.268757 209.768493 
L 119.58067 206.95071 
L 121.892583 203.658904 
L 124.204496 199.883472 
L 126.516408 195.633302 
L 128.828321 190.937949 
L 131.140234 185.848384 
L 135.76406 174.790598 
L 142.699799 157.528502 
L 145.011712 152.046479 
L 147.323624 146.883523 
L 149.635537 142.135982 
L 151.94745 137.88727 
L 154.259363 134.206813 
L 156.571276 131.150132 
L 158.883189 128.759701 
L 161.195102 127.066161 
L 163.507015 126.089437 
L 165.818927 125.839413 
L 168.13084 126.315976 
L 170.442753 127.508421 
L 172.754666 129.39442 
L 175.066579 131.938907 
L 177.378492 135.093291 
L 179.690405 138.795389 
L 182.002318 142.970374 
L 184.314231 147.532802 
L 188.938056 157.443969 
L 195.873795 172.847771 
L 200.497621 182.498529 
L 202.809534 186.949925 
L 205.121447 191.097797 
L 207.433359 194.917214 
L 209.745272 198.394705 
L 212.057185 201.526895 
L 214.369098 204.318956 
L 216.681011 206.78298 
L 218.992924 208.936401 
L 221.304837 210.800548 
L 223.61675 212.399377 
L 225.928663 213.758412 
L 228.240575 214.903879 
L 230.552488 215.861996 
L 232.864401 216.658373 
L 237.488227 217.862138 
L 242.112053 218.688659 
L 246.735878 219.272795 
L 253.671617 219.880011 
L 260.607356 220.272467 
L 267.543094 220.424 
L 272.16692 220.257124 
L 274.478833 220.008584 
L 276.790746 219.574481 
L 279.102659 218.86629 
L 281.414572 217.762516 
L 283.726485 216.103979 
L 286.038398 213.69237 
L 288.35031 210.294289 
L 290.662223 205.653 
L 292.974136 199.509636 
L 295.286049 191.634383 
L 297.597962 181.866309 
L 299.909875 170.158068 
L 302.221788 156.619314 
L 304.533701 141.550737 
L 311.469439 93.190819 
L 313.781352 78.827808 
L 316.093265 66.913425 
L 318.405178 58.292636 
L 320.717091 53.606517 
L 323.029004 53.213497 
L 325.340917 57.144064 
L 327.652829 65.096856 
L 329.964742 76.476839 
L 332.276655 90.468865 
L 336.900481 122.512743 
L 339.212394 138.719848 
L 341.524307 154.017687 
L 343.83622 167.861298 
L 346.148133 179.913183 
L 348.460045 190.031462 
L 350.771958 198.238464 
L 353.083871 204.678365 
L 355.395784 209.572175 
L 357.707697 213.176684 
L 360.01961 215.75155 
L 362.331523 217.536295 
L 364.643436 218.736931 
L 364.643436 218.736931 
" style="fill:none;stroke:#aedea7;stroke-linecap:round;stroke-width:1.2;"/>
   </g>
   <g id="line2d_17">
    <path clip-path="url(#peecf25b851)" d="M 140.953994 220.695339 
L 153.214481 220.734744 
L 170.379162 220.588424 
L 182.639649 220.261447 
L 189.995941 219.893054 
L 197.352233 219.326347 
L 204.708525 218.51496 
L 212.064817 217.437903 
L 219.421109 216.10691 
L 229.229498 214.04906 
L 239.037887 211.814846 
L 243.942082 210.544949 
L 248.846277 208.990633 
L 251.298374 208.043405 
L 253.750471 206.949117 
L 256.202569 205.688198 
L 258.654666 204.249945 
L 261.106763 202.635666 
L 266.010958 198.954524 
L 278.271445 189.087858 
L 283.175639 185.762425 
L 288.079834 182.9427 
L 292.984029 180.459163 
L 300.340321 176.842048 
L 305.244515 174.136124 
L 307.696613 172.584345 
L 310.14871 170.843015 
L 312.600807 168.872016 
L 315.052905 166.643141 
L 317.505002 164.150883 
L 322.409197 158.530588 
L 327.313391 152.75245 
L 329.765489 150.209658 
L 332.217586 148.155072 
L 334.669683 146.768936 
L 337.121781 146.190501 
L 339.573878 146.495365 
L 342.025975 147.679871 
L 344.478073 149.654862 
L 346.93017 152.248969 
L 354.286462 161.05307 
L 356.73856 163.211903 
L 359.190657 164.366836 
L 361.642754 164.144136 
L 364.094852 162.193998 
L 366.546949 158.220707 
L 368.999046 152.023708 
L 371.451144 143.546886 
L 373.903241 132.928508 
L 376.355338 120.540213 
L 383.71163 80.031856 
L 386.163728 68.695898 
L 388.615825 60.178113 
L 391.067922 55.317023 
L 393.52002 54.652762 
L 395.972117 58.354066 
L 398.424214 66.198303 
L 400.876312 77.607993 
L 403.328409 91.735914 
L 408.232604 124.117972 
L 410.684701 140.404477 
L 413.136798 155.673579 
L 415.588896 169.378389 
L 418.040993 181.203052 
L 420.49309 191.041642 
L 422.945188 198.956199 
L 425.397285 205.125465 
L 427.849382 209.794358 
L 430.30148 213.231154 
L 432.753577 215.695934 
L 435.205674 217.420772 
L 437.657772 218.600148 
L 440.109869 219.388981 
L 442.561966 219.905548 
L 445.014064 220.236916 
L 449.918258 220.573294 
L 452.370356 220.650327 
L 452.370356 220.650327 
" style="fill:none;stroke:#fece65;stroke-linecap:round;stroke-width:1.2;"/>
   </g>
   <g id="line2d_18">
    <path clip-path="url(#peecf25b851)" d="M 66.437876 220.121012 
L 69.137516 220.405194 
L 74.536798 220.631238 
L 79.93608 220.628379 
L 85.335361 220.459698 
L 90.734643 220.036308 
L 93.434283 219.668486 
L 96.133924 219.149634 
L 98.833565 218.435426 
L 101.533206 217.474616 
L 104.232847 216.209794 
L 106.932487 214.578568 
L 109.632128 212.515258 
L 112.331769 209.953205 
L 115.03141 206.827893 
L 117.731051 203.081088 
L 120.430691 198.666185 
L 123.130332 193.554772 
L 125.829973 187.744196 
L 128.529614 181.265567 
L 131.229254 174.191329 
L 136.628536 158.785499 
L 142.027818 143.078538 
L 144.727458 135.783599 
L 147.427099 129.265002 
L 150.12674 123.817827 
L 152.826381 119.699108 
L 155.526021 117.100423 
L 158.225662 116.123999 
L 160.925303 116.766643 
L 163.624944 118.915263 
L 166.324585 122.356353 
L 169.024225 126.799463 
L 171.723866 131.912025 
L 179.822789 148.159285 
L 182.522429 153.156636 
L 185.22207 157.804787 
L 187.921711 162.145163 
L 193.320992 170.287924 
L 206.819196 190.11209 
L 209.518837 193.581419 
L 212.218478 196.602179 
L 214.918119 199.08023 
L 217.617759 200.973173 
L 220.3174 202.296642 
L 223.017041 203.119038 
L 225.716682 203.546763 
L 228.416323 203.703899 
L 241.914527 203.790272 
L 247.313808 204.21493 
L 252.71309 204.952141 
L 255.41273 205.49099 
L 258.112371 206.184846 
L 260.812012 207.05775 
L 263.511653 208.116516 
L 266.211294 209.344968 
L 271.610575 212.134277 
L 277.009857 214.942763 
L 279.709497 216.196801 
L 282.409138 217.29106 
L 285.108779 218.203433 
L 287.80842 218.928951 
L 290.508061 219.475353 
L 293.207701 219.856845 
L 295.907342 220.087173 
L 298.606983 220.172881 
L 301.306624 220.107364 
L 304.006265 219.866136 
L 306.705905 219.403831 
L 309.405546 218.653566 
L 312.105187 217.529493 
L 314.804828 215.93319 
L 317.504468 213.764024 
L 320.204109 210.932536 
L 322.90375 207.374644 
L 325.603391 203.063326 
L 328.303032 198.014212 
L 331.002672 192.2826 
L 333.702313 185.951962 
L 336.401954 179.117452 
L 339.101595 171.871067 
L 344.500876 156.478664 
L 349.900158 140.635557 
L 352.599799 133.068745 
L 355.299439 126.226119 
L 357.99908 120.601367 
L 360.698721 116.733696 
L 363.398362 115.123754 
L 366.098003 116.136919 
L 368.797643 119.918346 
L 371.497284 126.343114 
L 374.196925 135.016291 
L 376.896566 145.324369 
L 384.995488 178.64768 
L 387.695129 188.367305 
L 390.39477 196.692205 
L 393.09441 203.490501 
L 395.794051 208.795094 
L 398.493692 212.756451 
L 401.193333 215.591236 
L 403.892973 217.537021 
L 406.592614 218.818898 
L 409.292255 219.629532 
L 409.292255 219.629532 
" style="fill:none;stroke:#959595;stroke-linecap:round;stroke-width:1.2;"/>
   </g>
   <g id="line2d_19">
    <path clip-path="url(#peecf25b851)" d="M 63.473409 220.685932 
L 78.282261 220.748329 
L 96.052883 220.61233 
L 101.976424 220.423479 
L 107.899965 220.050648 
L 113.823506 219.378447 
L 116.785276 218.887988 
L 119.747046 218.272568 
L 122.708817 217.518641 
L 125.670587 216.617389 
L 128.632358 215.56667 
L 131.594128 214.372671 
L 137.517669 211.626678 
L 149.36475 205.675922 
L 152.326521 204.352985 
L 155.288291 203.185723 
L 158.250061 202.21094 
L 161.211832 201.457485 
L 164.173602 200.944723 
L 167.135373 200.681288 
L 170.097143 200.664183 
L 173.058913 200.878443 
L 176.020684 201.297724 
L 178.982454 201.886129 
L 184.905995 203.398927 
L 196.753076 206.695993 
L 205.638388 208.88383 
L 217.485469 211.577191 
L 223.40901 212.728466 
L 229.332551 213.582002 
L 235.256091 214.076944 
L 241.179632 214.217013 
L 244.141403 214.141979 
L 247.103173 213.941954 
L 250.064943 213.576658 
L 253.026714 212.99038 
L 255.988484 212.114018 
L 258.950255 210.867958 
L 261.912025 209.164979 
L 264.873795 206.913123 
L 267.835566 204.01955 
L 270.797336 200.397268 
L 273.759106 195.976713 
L 276.720877 190.722824 
L 279.682647 184.655686 
L 282.644418 177.869609 
L 288.567958 162.932875 
L 291.529729 155.345794 
L 294.491499 148.093656 
L 297.45327 141.43666 
L 300.41504 135.531661 
L 303.37681 130.400073 
L 306.338581 125.92687 
L 312.262121 118.040306 
L 318.185662 110.054685 
L 324.109203 101.575435 
L 327.070973 97.660061 
L 330.032744 94.446949 
L 332.994514 92.320972 
L 335.956285 91.592284 
L 338.918055 92.438345 
L 341.879825 94.87817 
L 344.841596 98.784032 
L 347.803366 103.92457 
L 350.765136 110.023659 
L 353.726907 116.815221 
L 356.688677 124.077483 
L 362.612218 139.364628 
L 368.535759 154.769597 
L 371.497529 162.138909 
L 374.4593 169.05772 
L 377.42107 175.372518 
L 380.38284 180.979305 
L 383.344611 185.84497 
L 386.306381 190.012504 
L 389.268151 193.5883 
L 392.229922 196.715567 
L 395.191692 199.541675 
L 401.115233 204.731273 
L 407.038774 209.556767 
L 410.000544 211.767351 
L 412.962315 213.766651 
L 415.924085 215.503845 
L 418.885855 216.949121 
L 421.847626 218.098352 
L 424.809396 218.971015 
L 427.771167 219.603606 
L 430.732937 220.041348 
L 436.656478 220.512936 
L 439.618248 220.622792 
L 439.618248 220.622792 
" style="fill:none;stroke:#2070b4;stroke-linecap:round;stroke-width:1.2;"/>
   </g>
   <g id="line2d_20">
    <path clip-path="url(#peecf25b851)" d="M 69.088733 220.262114 
L 71.907681 220.492393 
L 74.726629 220.613038 
L 80.364524 220.677486 
L 86.002419 220.59493 
L 91.640315 220.322097 
L 94.459263 220.06348 
L 97.27821 219.678984 
L 100.097158 219.123318 
L 102.916106 218.340808 
L 105.735053 217.265026 
L 108.554001 215.81885 
L 111.372949 213.915219 
L 114.191896 211.458998 
L 117.010844 208.350503 
L 119.829792 204.49132 
L 122.64874 199.792884 
L 125.467687 194.187872 
L 128.286635 187.643811 
L 131.105583 180.177561 
L 133.92453 171.868656 
L 136.743478 162.869132 
L 145.200321 134.364316 
L 148.019269 125.546141 
L 150.838217 117.74338 
L 153.657164 111.346191 
L 156.476112 106.687018 
L 159.29506 104.008018 
L 162.114007 103.435816 
L 164.932955 104.967803 
L 167.751903 108.472694 
L 170.570851 113.705711 
L 173.389798 120.336018 
L 176.208746 127.981645 
L 181.846641 144.74988 
L 184.665589 153.156526 
L 187.484537 161.186193 
L 190.303485 168.623592 
L 193.122432 175.319208 
L 195.94138 181.187294 
L 198.760328 186.201734 
L 201.579275 190.389788 
L 204.398223 193.823036 
L 207.217171 196.605157 
L 210.036119 198.857267 
L 212.855066 200.702756 
L 215.674014 202.254156 
L 218.492962 203.604175 
L 224.130857 205.951928 
L 229.768752 208.028626 
L 235.406648 209.815495 
L 238.225596 210.523306 
L 241.044543 211.037979 
L 243.863491 211.296823 
L 246.682439 211.238393 
L 249.501386 210.813399 
L 252.320334 209.99585 
L 255.139282 208.79203 
L 257.95823 207.245116 
L 260.777177 205.434041 
L 269.23402 199.557824 
L 272.052968 197.852736 
L 274.871916 196.434093 
L 277.690864 195.350109 
L 280.509811 194.611776 
L 283.328759 194.196392 
L 286.147707 194.054851 
L 288.966654 194.120237 
L 300.242445 194.878727 
L 303.061393 194.815408 
L 305.880341 194.541956 
L 308.699288 194.051071 
L 314.337184 192.61041 
L 317.156131 191.87426 
L 319.975079 191.32923 
L 322.794027 191.139721 
L 325.612975 191.44675 
L 328.431922 192.339719 
L 331.25087 193.835177 
L 334.069818 195.866896 
L 336.888765 198.288462 
L 342.526661 203.399179 
L 345.345609 205.538131 
L 348.164556 207.005542 
L 350.983504 207.510992 
L 353.802452 206.787806 
L 356.621399 204.614457 
L 359.440347 200.844693 
L 362.259295 195.446567 
L 365.078242 188.544837 
L 367.89719 180.45529 
L 373.535086 162.963544 
L 376.354033 155.0637 
L 379.172981 148.808964 
L 381.991929 144.893624 
L 384.810876 143.777298 
L 387.629824 145.603764 
L 390.448772 150.176234 
L 393.26772 156.995895 
L 396.086667 165.354018 
L 401.724563 183.53872 
L 404.54351 191.983995 
L 407.362458 199.363324 
L 410.181406 205.45832 
L 413.000354 210.235208 
L 415.819301 213.797239 
L 418.638249 216.329323 
L 421.457197 218.047664 
L 424.276144 219.162031 
L 427.095092 219.852942 
L 427.095092 219.852942 
" style="fill:none;stroke:#a93c03;stroke-linecap:round;stroke-width:1.2;"/>
   </g>
   <g id="line2d_21">
    <path clip-path="url(#peecf25b851)" d="M 73.763978 220.351863 
L 76.64472 220.541051 
L 79.525462 220.637729 
L 88.167689 220.65572 
L 93.929174 220.501605 
L 99.690658 220.117908 
L 102.571401 219.777756 
L 105.452143 219.288953 
L 108.332885 218.602269 
L 111.213628 217.65832 
L 114.09437 216.387706 
L 116.975112 214.712063 
L 119.855854 212.546433 
L 122.736597 209.803453 
L 125.617339 206.399943 
L 128.498081 202.266396 
L 131.378824 197.359444 
L 134.259566 191.676584 
L 137.140308 185.271242 
L 140.02105 178.26501 
L 148.663277 155.918845 
L 151.54402 149.048791 
L 154.424762 143.012628 
L 157.305504 138.083672 
L 160.186246 134.456388 
L 163.066989 132.231049 
L 165.947731 131.413949 
L 168.828473 131.931037 
L 171.709216 133.649572 
L 174.589958 136.40143 
L 177.4707 140.003065 
L 180.351442 144.269895 
L 183.232185 149.025615 
L 188.993669 159.375503 
L 197.635896 175.211599 
L 203.397381 185.120958 
L 206.278123 189.751695 
L 209.158865 194.113838 
L 212.039607 198.160905 
L 214.92035 201.842371 
L 217.801092 205.109521 
L 220.681834 207.92313 
L 223.562577 210.260671 
L 226.443319 212.121328 
L 229.324061 213.527896 
L 232.204803 214.525608 
L 235.085546 215.178389 
L 237.966288 215.563241 
L 243.727773 215.860046 
L 252.369999 216.150627 
L 261.012226 216.724373 
L 263.892969 216.776357 
L 266.773711 216.610551 
L 269.654453 216.12735 
L 272.535195 215.238989 
L 275.415938 213.885762 
L 278.29668 212.052457 
L 281.177422 209.782386 
L 284.058165 207.185458 
L 289.819649 201.761528 
L 292.700391 199.41095 
L 295.581134 197.624643 
L 298.461876 196.593902 
L 301.342618 196.429469 
L 304.223361 197.142896 
L 307.104103 198.645661 
L 309.984845 200.765679 
L 315.74633 205.928183 
L 318.627072 208.479263 
L 321.507814 210.709225 
L 324.388557 212.422488 
L 327.269299 213.43751 
L 330.150041 213.569854 
L 333.030783 212.617706 
L 335.911526 210.359444 
L 338.792268 206.571088 
L 341.67301 201.066975 
L 344.553753 193.760073 
L 347.434495 184.730048 
L 350.315237 174.27987 
L 356.076722 151.530242 
L 358.957464 140.884858 
L 361.838206 131.896401 
L 364.718949 125.262078 
L 367.599691 121.361224 
L 370.480433 120.176795 
L 373.361175 121.307345 
L 376.241918 124.072358 
L 384.884145 134.908531 
L 387.764887 137.946596 
L 390.645629 140.756263 
L 393.526371 143.745948 
L 396.407114 147.386102 
L 399.287856 152.053897 
L 402.168598 157.918758 
L 405.049341 164.895835 
L 407.930083 172.671398 
L 413.691567 188.724504 
L 416.57231 196.045218 
L 419.453052 202.419122 
L 422.333794 207.67477 
L 425.214537 211.788023 
L 428.095279 214.849112 
L 430.976021 217.018513 
L 433.856763 218.484342 
L 436.737506 219.429403 
L 439.618248 220.010902 
L 439.618248 220.010902 
" style="fill:none;stroke:#37a055;stroke-linecap:round;stroke-width:1.2;"/>
   </g>
   <g id="line2d_22">
    <path clip-path="url(#peecf25b851)" d="M 85.108173 220.737012 
L 96.102878 220.594869 
L 101.600231 220.331799 
L 105.265132 219.996377 
L 108.930034 219.459424 
L 112.594936 218.641817 
L 116.259838 217.455113 
L 118.092288 216.695142 
L 119.924739 215.809838 
L 121.75719 214.789654 
L 123.589641 213.626398 
L 125.422092 212.313568 
L 127.254543 210.846599 
L 129.086994 209.223015 
L 130.919444 207.442418 
L 134.584346 203.417669 
L 138.249248 198.798266 
L 141.914149 193.609025 
L 145.579051 187.839908 
L 149.243953 181.411591 
L 152.908855 174.156205 
L 154.741305 170.143971 
L 156.573756 165.830051 
L 158.406207 161.181039 
L 160.238658 156.167645 
L 162.071109 150.768036 
L 163.90356 144.97111 
L 167.568461 132.211448 
L 171.233363 118.107363 
L 182.228068 73.701349 
L 184.060519 67.065571 
L 185.89297 60.929596 
L 187.725421 55.384432 
L 189.557872 50.509496 
L 191.390322 46.371346 
L 193.222773 43.023139 
L 195.055224 40.50471 
L 196.887675 38.843155 
L 198.720126 38.053747 
L 200.552577 38.141063 
L 202.385027 39.100162 
L 204.217478 40.917702 
L 206.049929 43.572888 
L 207.88238 47.038184 
L 209.714831 51.279733 
L 211.547282 56.257476 
L 213.379733 61.924999 
L 215.212183 68.229168 
L 217.044634 75.10967 
L 220.709536 90.320172 
L 224.374438 106.920561 
L 233.536692 149.490209 
L 237.201594 164.905208 
L 239.034044 171.939366 
L 240.866495 178.451359 
L 242.698946 184.405588 
L 244.531397 189.782404 
L 246.363848 194.577567 
L 248.196299 198.800993 
L 250.02875 202.47494 
L 251.8612 205.631784 
L 253.693651 208.311595 
L 255.526102 210.559663 
L 257.358553 212.42414 
L 259.191004 213.953918 
L 261.023455 215.196814 
L 262.855905 216.198121 
L 264.688356 216.999531 
L 266.520807 217.638408 
L 270.185709 218.554326 
L 273.850611 219.149985 
L 279.347963 219.721586 
L 286.677766 220.20024 
L 295.840021 220.549185 
L 306.834726 220.714946 
L 317.829431 220.741104 
L 317.829431 220.741104 
" style="fill:none;stroke:#c6dbef;stroke-linecap:round;stroke-width:1.2;"/>
   </g>
   <g id="line2d_23">
    <path clip-path="url(#peecf25b851)" d="M 63.473409 220.752789 
L 98.623015 220.676878 
L 108.209272 220.449552 
L 114.600109 220.092104 
L 120.990947 219.454653 
L 127.381784 218.441746 
L 133.772622 217.004918 
L 140.163459 215.172566 
L 146.554297 213.044454 
L 172.117647 203.995795 
L 178.508484 202.16151 
L 181.703903 201.420248 
L 184.899322 200.834178 
L 188.094741 200.430355 
L 191.290159 200.231592 
L 194.485578 200.254209 
L 197.680997 200.5064 
L 200.876416 200.987262 
L 204.071834 201.686467 
L 207.267253 202.584474 
L 210.462672 203.653254 
L 216.853509 206.156702 
L 226.439766 210.184001 
L 232.830603 212.565258 
L 236.026022 213.563611 
L 239.221441 214.400977 
L 242.416859 215.058178 
L 245.612278 215.518629 
L 248.807697 215.766414 
L 252.003116 215.784147 
L 255.198534 215.55086 
L 258.393953 215.040437 
L 261.589372 214.221487 
L 264.784791 213.059888 
L 267.980209 211.525165 
L 271.175628 209.600989 
L 274.371047 207.298321 
L 277.566466 204.667427 
L 283.957303 198.838154 
L 287.152722 195.92043 
L 290.348141 193.178556 
L 293.543559 190.681266 
L 303.129816 183.882393 
L 306.325234 181.120875 
L 309.520653 177.640192 
L 312.716072 173.213095 
L 315.911491 167.73004 
L 319.106909 161.23358 
L 322.302328 153.922256 
L 331.888584 130.588916 
L 335.084003 123.522176 
L 338.279422 117.165259 
L 341.474841 111.524307 
L 344.670259 106.510946 
L 347.865678 102.02766 
L 351.061097 98.061135 
L 354.256516 94.747647 
L 357.451935 92.382488 
L 360.647353 91.36505 
L 363.842772 92.094716 
L 367.038191 94.850934 
L 370.23361 99.696843 
L 373.429028 106.43774 
L 376.624447 114.646987 
L 389.406122 150.786898 
L 392.601541 158.470029 
L 395.79696 165.291122 
L 398.992378 171.33401 
L 402.187797 176.745501 
L 405.383216 181.686849 
L 408.578635 186.299703 
L 414.969472 194.901733 
L 418.164891 198.950983 
L 421.36031 202.796768 
L 424.555728 206.3712 
L 427.751147 209.59432 
L 430.946566 212.394616 
L 434.141985 214.726646 
L 437.337403 216.581191 
L 440.532822 217.985878 
L 443.728241 218.997464 
L 446.92366 219.689331 
L 450.119078 220.138437 
L 453.314497 220.415022 
L 459.705335 220.666153 
L 469.291591 220.747824 
L 469.291591 220.747824 
" style="fill:none;stroke:#000000;stroke-linecap:round;stroke-width:2;"/>
   </g>
   <g id="line2d_24">
    <path clip-path="url(#peecf25b851)" d="M 255.358903 230.64 
L 255.358903 13.2 
" style="fill:none;stroke:#000000;stroke-dasharray:7.4,3.2;stroke-dashoffset:0;stroke-width:2;"/>
   </g>
   <g id="patch_3">
    <path d="M 43.1825 230.64 
L 43.1825 13.2 
" style="fill:none;stroke:#262626;stroke-linecap:square;stroke-linejoin:miter;stroke-width:0.5;"/>
   </g>
   <g id="patch_4">
    <path d="M 489.5825 230.64 
L 489.5825 13.2 
" style="fill:none;stroke:#262626;stroke-linecap:square;stroke-linejoin:miter;stroke-width:0.5;"/>
   </g>
   <g id="patch_5">
    <path d="M 43.1825 230.64 
L 489.5825 230.64 
" style="fill:none;stroke:#262626;stroke-linecap:square;stroke-linejoin:miter;stroke-width:0.5;"/>
   </g>
   <g id="patch_6">
    <path d="M 43.1825 13.2 
L 489.5825 13.2 
" style="fill:none;stroke:#262626;stroke-linecap:square;stroke-linejoin:miter;stroke-width:0.5;"/>
   </g>
   <g id="legend_1">
    <g id="line2d_25">
     <path d="M 436.85875 23.44 
L 452.85875 23.44 
" style="fill:none;stroke:#6aaed6;stroke-linecap:round;stroke-width:1.2;"/>
    </g>
    <g id="line2d_26"/>
    <g id="text_16">
     <!-- BF$Ag$ -->
     <defs>
      <path d="M 7.328125 0 
L 7.328125 71.578125 
L 34.1875 71.578125 
Q 42.390625 71.578125 47.34375 69.40625 
Q 52.296875 67.234375 55.09375 62.71875 
Q 57.90625 58.203125 57.90625 53.265625 
Q 57.90625 48.6875 55.421875 44.625 
Q 52.9375 40.578125 47.90625 38.09375 
Q 54.390625 36.1875 57.875 31.59375 
Q 61.375 27 61.375 20.75 
Q 61.375 15.71875 59.25 11.390625 
Q 57.125 7.078125 54 4.734375 
Q 50.875 2.390625 46.15625 1.1875 
Q 41.453125 0 34.625 0 
z
M 16.796875 41.5 
L 32.28125 41.5 
Q 38.578125 41.5 41.3125 42.328125 
Q 44.921875 43.40625 46.75 45.890625 
Q 48.578125 48.390625 48.578125 52.15625 
Q 48.578125 55.71875 46.875 58.421875 
Q 45.171875 61.140625 41.984375 62.140625 
Q 38.8125 63.140625 31.109375 63.140625 
L 16.796875 63.140625 
z
M 16.796875 8.453125 
L 34.625 8.453125 
Q 39.203125 8.453125 41.0625 8.796875 
Q 44.34375 9.375 46.53125 10.734375 
Q 48.734375 12.109375 50.140625 14.71875 
Q 51.5625 17.328125 51.5625 20.75 
Q 51.5625 24.75 49.515625 27.703125 
Q 47.46875 30.671875 43.828125 31.859375 
Q 40.1875 33.0625 33.34375 33.0625 
L 16.796875 33.0625 
z
" id="ArialMT-42"/>
      <path d="M 8.203125 0 
L 8.203125 71.578125 
L 56.5 71.578125 
L 56.5 63.140625 
L 17.671875 63.140625 
L 17.671875 40.96875 
L 51.265625 40.96875 
L 51.265625 32.515625 
L 17.671875 32.515625 
L 17.671875 0 
z
" id="ArialMT-46"/>
      <path d="M 36.8125 72.90625 
L 48 72.90625 
L 61.53125 0 
L 51.21875 0 
L 48.1875 18.703125 
L 15.375 18.703125 
L 5.078125 0 
L -5.328125 0 
z
M 40.375 63.1875 
L 19.921875 26.90625 
L 46.6875 26.90625 
z
" id="DejaVuSans-Oblique-41"/>
      <path d="M 59.625 54.6875 
L 50.296875 6.78125 
Q 47.609375 -7.125 40.015625 -13.953125 
Q 32.421875 -20.796875 19.578125 -20.796875 
Q 14.84375 -20.796875 10.78125 -20.09375 
Q 6.734375 -19.390625 3.21875 -17.921875 
L 4.890625 -9.1875 
Q 8.203125 -11.328125 11.90625 -12.34375 
Q 15.625 -13.375 19.828125 -13.375 
Q 28.375 -13.375 33.859375 -8.703125 
Q 39.359375 -4.046875 41.109375 4.6875 
L 41.890625 8.796875 
Q 38.140625 4.5 33.15625 2.25 
Q 28.171875 0 22.40625 0 
Q 14.109375 0 9.34375 5.484375 
Q 4.59375 10.984375 4.59375 20.609375 
Q 4.59375 28.171875 7.46875 35.421875 
Q 10.359375 42.671875 15.578125 48.296875 
Q 19.046875 52 23.65625 54 
Q 28.265625 56 33.296875 56 
Q 38.8125 56 42.90625 53.4375 
Q 47.015625 50.875 49.03125 46.1875 
L 50.59375 54.6875 
z
M 46.09375 34.625 
Q 46.09375 41.265625 42.96875 44.875 
Q 39.84375 48.484375 34.078125 48.484375 
Q 30.515625 48.484375 27.296875 47.0625 
Q 24.078125 45.65625 21.78125 43.109375 
Q 18.0625 38.921875 15.984375 33.234375 
Q 13.921875 27.546875 13.921875 21.484375 
Q 13.921875 14.75 17.0625 11.125 
Q 20.21875 7.515625 26.125 7.515625 
Q 34.671875 7.515625 40.375 15.25 
Q 46.09375 23 46.09375 34.625 
z
" id="DejaVuSans-Oblique-67"/>
     </defs>
     <g style="fill:#262626;" transform="translate(459.25875 26.24)scale(0.08 -0.08)">
      <use transform="translate(0 0.09375)" xlink:href="#ArialMT-42"/>
      <use transform="translate(66.699219 0.09375)" xlink:href="#ArialMT-46"/>
      <use transform="translate(127.783203 0.09375)" xlink:href="#DejaVuSans-Oblique-41"/>
      <use transform="translate(196.191406 0.09375)" xlink:href="#DejaVuSans-Oblique-67"/>
     </g>
    </g>
    <g id="line2d_27">
     <path d="M 436.85875 34.84625 
L 452.85875 34.84625 
" style="fill:none;stroke:#fb694a;stroke-linecap:round;stroke-width:1.2;"/>
    </g>
    <g id="line2d_28"/>
    <g id="text_17">
     <!-- BF$Ac$ -->
     <defs>
      <path d="M 53.609375 52.59375 
L 51.8125 43.703125 
Q 48.578125 46.046875 44.9375 47.21875 
Q 41.3125 48.390625 37.40625 48.390625 
Q 33.109375 48.390625 29.21875 46.875 
Q 25.34375 45.359375 22.703125 42.578125 
Q 18.5 38.328125 16.203125 32.609375 
Q 13.921875 26.90625 13.921875 20.796875 
Q 13.921875 13.421875 17.609375 9.8125 
Q 21.296875 6.203125 28.8125 6.203125 
Q 32.515625 6.203125 36.6875 7.328125 
Q 40.875 8.453125 45.40625 10.6875 
L 43.703125 1.8125 
Q 39.796875 0.203125 35.671875 -0.609375 
Q 31.546875 -1.421875 27.203125 -1.421875 
Q 16.3125 -1.421875 10.453125 4.015625 
Q 4.59375 9.46875 4.59375 19.578125 
Q 4.59375 28.078125 7.640625 35.234375 
Q 10.6875 42.390625 16.703125 48.09375 
Q 20.796875 52 26.3125 54 
Q 31.84375 56 38.375 56 
Q 42.1875 56 45.9375 55.140625 
Q 49.703125 54.296875 53.609375 52.59375 
z
" id="DejaVuSans-Oblique-63"/>
     </defs>
     <g style="fill:#262626;" transform="translate(459.25875 37.64625)scale(0.08 -0.08)">
      <use transform="translate(0 0.09375)" xlink:href="#ArialMT-42"/>
      <use transform="translate(66.699219 0.09375)" xlink:href="#ArialMT-46"/>
      <use transform="translate(127.783203 0.09375)" xlink:href="#DejaVuSans-Oblique-41"/>
      <use transform="translate(196.191406 0.09375)" xlink:href="#DejaVuSans-Oblique-63"/>
     </g>
    </g>
    <g id="line2d_29">
     <path d="M 436.85875 46.27625 
L 452.85875 46.27625 
" style="fill:none;stroke:#aedea7;stroke-linecap:round;stroke-width:1.2;"/>
    </g>
    <g id="line2d_30"/>
    <g id="text_18">
     <!-- UG$Ag$ -->
     <defs>
      <path d="M 54.6875 71.578125 
L 64.15625 71.578125 
L 64.15625 30.21875 
Q 64.15625 19.4375 61.71875 13.078125 
Q 59.28125 6.734375 52.90625 2.75 
Q 46.53125 -1.21875 36.1875 -1.21875 
Q 26.125 -1.21875 19.71875 2.25 
Q 13.328125 5.71875 10.59375 12.28125 
Q 7.859375 18.84375 7.859375 30.21875 
L 7.859375 71.578125 
L 17.328125 71.578125 
L 17.328125 30.28125 
Q 17.328125 20.953125 19.0625 16.53125 
Q 20.796875 12.109375 25.015625 9.71875 
Q 29.25 7.328125 35.359375 7.328125 
Q 45.796875 7.328125 50.234375 12.0625 
Q 54.6875 16.796875 54.6875 30.28125 
z
" id="ArialMT-55"/>
      <path d="M 41.21875 28.078125 
L 41.21875 36.46875 
L 71.53125 36.53125 
L 71.53125 9.96875 
Q 64.546875 4.390625 57.125 1.578125 
Q 49.703125 -1.21875 41.890625 -1.21875 
Q 31.34375 -1.21875 22.71875 3.296875 
Q 14.109375 7.8125 9.71875 16.359375 
Q 5.328125 24.90625 5.328125 35.453125 
Q 5.328125 45.90625 9.6875 54.953125 
Q 14.0625 64.015625 22.265625 68.40625 
Q 30.46875 72.796875 41.15625 72.796875 
Q 48.921875 72.796875 55.1875 70.28125 
Q 61.46875 67.78125 65.03125 63.28125 
Q 68.609375 58.796875 70.453125 51.5625 
L 61.921875 49.21875 
Q 60.296875 54.6875 57.90625 57.8125 
Q 55.515625 60.9375 51.0625 62.8125 
Q 46.625 64.703125 41.21875 64.703125 
Q 34.71875 64.703125 29.984375 62.71875 
Q 25.25 60.75 22.34375 57.515625 
Q 19.4375 54.296875 17.828125 50.4375 
Q 15.09375 43.796875 15.09375 36.03125 
Q 15.09375 26.46875 18.390625 20.015625 
Q 21.6875 13.578125 27.984375 10.453125 
Q 34.28125 7.328125 41.359375 7.328125 
Q 47.515625 7.328125 53.375 9.6875 
Q 59.234375 12.0625 62.25 14.75 
L 62.25 28.078125 
z
" id="ArialMT-47"/>
     </defs>
     <g style="fill:#262626;" transform="translate(459.25875 49.07625)scale(0.08 -0.08)">
      <use transform="translate(0 0.09375)" xlink:href="#ArialMT-55"/>
      <use transform="translate(72.216797 0.09375)" xlink:href="#ArialMT-47"/>
      <use transform="translate(150 0.09375)" xlink:href="#DejaVuSans-Oblique-41"/>
      <use transform="translate(218.408203 0.09375)" xlink:href="#DejaVuSans-Oblique-67"/>
     </g>
    </g>
    <g id="line2d_31">
     <path d="M 436.85875 57.6825 
L 452.85875 57.6825 
" style="fill:none;stroke:#fece65;stroke-linecap:round;stroke-width:1.2;"/>
    </g>
    <g id="line2d_32"/>
    <g id="text_19">
     <!-- GW -->
     <defs>
      <path d="M 20.21875 0 
L 1.21875 71.578125 
L 10.9375 71.578125 
L 21.828125 24.65625 
Q 23.578125 17.28125 24.859375 10.015625 
Q 27.59375 21.484375 28.078125 23.25 
L 41.703125 71.578125 
L 53.125 71.578125 
L 63.375 35.359375 
Q 67.234375 21.875 68.953125 10.015625 
Q 70.3125 16.796875 72.515625 25.59375 
L 83.734375 71.578125 
L 93.265625 71.578125 
L 73.640625 0 
L 64.5 0 
L 49.421875 54.546875 
Q 47.515625 61.375 47.171875 62.9375 
Q 46.046875 58.015625 45.0625 54.546875 
L 29.890625 0 
z
" id="ArialMT-57"/>
     </defs>
     <g style="fill:#262626;" transform="translate(459.25875 60.4825)scale(0.08 -0.08)">
      <use xlink:href="#ArialMT-47"/>
      <use x="77.783203" xlink:href="#ArialMT-57"/>
     </g>
    </g>
    <g id="line2d_33">
     <path d="M 436.85875 68.99875 
L 452.85875 68.99875 
" style="fill:none;stroke:#959595;stroke-linecap:round;stroke-width:1.2;"/>
    </g>
    <g id="line2d_34"/>
    <g id="text_20">
     <!-- KE -->
     <defs>
      <path d="M 7.328125 0 
L 7.328125 71.578125 
L 16.796875 71.578125 
L 16.796875 36.078125 
L 52.34375 71.578125 
L 65.1875 71.578125 
L 35.15625 42.578125 
L 66.5 0 
L 54 0 
L 28.515625 36.234375 
L 16.796875 24.8125 
L 16.796875 0 
z
" id="ArialMT-4b"/>
      <path d="M 7.90625 0 
L 7.90625 71.578125 
L 59.671875 71.578125 
L 59.671875 63.140625 
L 17.390625 63.140625 
L 17.390625 41.21875 
L 56.984375 41.21875 
L 56.984375 32.8125 
L 17.390625 32.8125 
L 17.390625 8.453125 
L 61.328125 8.453125 
L 61.328125 0 
z
" id="ArialMT-45"/>
     </defs>
     <g style="fill:#262626;" transform="translate(459.25875 71.79875)scale(0.08 -0.08)">
      <use xlink:href="#ArialMT-4b"/>
      <use x="66.699219" xlink:href="#ArialMT-45"/>
     </g>
    </g>
    <g id="line2d_35">
     <path d="M 436.85875 80.42875 
L 452.85875 80.42875 
" style="fill:none;stroke:#2070b4;stroke-linecap:round;stroke-width:1.2;"/>
    </g>
    <g id="line2d_36"/>
    <g id="text_21">
     <!-- CM$Ag$ -->
     <defs>
      <path d="M 58.796875 25.09375 
L 68.265625 22.703125 
Q 65.28125 11.03125 57.546875 4.90625 
Q 49.8125 -1.21875 38.625 -1.21875 
Q 27.046875 -1.21875 19.796875 3.484375 
Q 12.546875 8.203125 8.765625 17.140625 
Q 4.984375 26.078125 4.984375 36.328125 
Q 4.984375 47.515625 9.25 55.828125 
Q 13.53125 64.15625 21.40625 68.46875 
Q 29.296875 72.796875 38.765625 72.796875 
Q 49.515625 72.796875 56.828125 67.328125 
Q 64.15625 61.859375 67.046875 51.953125 
L 57.71875 49.75 
Q 55.21875 57.5625 50.484375 61.125 
Q 45.75 64.703125 38.578125 64.703125 
Q 30.328125 64.703125 24.78125 60.734375 
Q 19.234375 56.78125 16.984375 50.109375 
Q 14.75 43.453125 14.75 36.375 
Q 14.75 27.25 17.40625 20.4375 
Q 20.0625 13.625 25.671875 10.25 
Q 31.296875 6.890625 37.84375 6.890625 
Q 45.796875 6.890625 51.3125 11.46875 
Q 56.84375 16.0625 58.796875 25.09375 
z
" id="ArialMT-43"/>
      <path d="M 7.421875 0 
L 7.421875 71.578125 
L 21.6875 71.578125 
L 38.625 20.90625 
Q 40.96875 13.8125 42.046875 10.296875 
Q 43.265625 14.203125 45.84375 21.78125 
L 62.984375 71.578125 
L 75.734375 71.578125 
L 75.734375 0 
L 66.609375 0 
L 66.609375 59.90625 
L 45.796875 0 
L 37.25 0 
L 16.546875 60.9375 
L 16.546875 0 
z
" id="ArialMT-4d"/>
     </defs>
     <g style="fill:#262626;" transform="translate(459.25875 83.22875)scale(0.08 -0.08)">
      <use transform="translate(0 0.09375)" xlink:href="#ArialMT-43"/>
      <use transform="translate(72.216797 0.09375)" xlink:href="#ArialMT-4d"/>
      <use transform="translate(155.517578 0.09375)" xlink:href="#DejaVuSans-Oblique-41"/>
      <use transform="translate(223.925781 0.09375)" xlink:href="#DejaVuSans-Oblique-67"/>
     </g>
    </g>
    <g id="line2d_37">
     <path d="M 436.85875 91.835 
L 452.85875 91.835 
" style="fill:none;stroke:#a93c03;stroke-linecap:round;stroke-width:1.2;"/>
    </g>
    <g id="line2d_38"/>
    <g id="text_22">
     <!-- AO$Ac$ -->
     <defs>
      <path d="M -0.140625 0 
L 27.34375 71.578125 
L 37.546875 71.578125 
L 66.84375 0 
L 56.0625 0 
L 47.703125 21.6875 
L 17.78125 21.6875 
L 9.90625 0 
z
M 20.515625 29.390625 
L 44.78125 29.390625 
L 37.3125 49.21875 
Q 33.890625 58.25 32.234375 64.0625 
Q 30.859375 57.171875 28.375 50.390625 
z
" id="ArialMT-41"/>
      <path d="M 4.828125 34.859375 
Q 4.828125 52.6875 14.390625 62.765625 
Q 23.96875 72.859375 39.109375 72.859375 
Q 49.03125 72.859375 56.984375 68.109375 
Q 64.9375 63.375 69.109375 54.90625 
Q 73.296875 46.4375 73.296875 35.6875 
Q 73.296875 24.8125 68.890625 16.21875 
Q 64.5 7.625 56.4375 3.203125 
Q 48.390625 -1.21875 39.0625 -1.21875 
Q 28.953125 -1.21875 20.984375 3.65625 
Q 13.03125 8.546875 8.921875 16.984375 
Q 4.828125 25.4375 4.828125 34.859375 
z
M 14.59375 34.71875 
Q 14.59375 21.78125 21.546875 14.328125 
Q 28.515625 6.890625 39.015625 6.890625 
Q 49.703125 6.890625 56.609375 14.40625 
Q 63.53125 21.921875 63.53125 35.75 
Q 63.53125 44.484375 60.578125 51 
Q 57.625 57.515625 51.921875 61.109375 
Q 46.234375 64.703125 39.15625 64.703125 
Q 29.109375 64.703125 21.84375 57.78125 
Q 14.59375 50.875 14.59375 34.71875 
z
" id="ArialMT-4f"/>
     </defs>
     <g style="fill:#262626;" transform="translate(459.25875 94.635)scale(0.08 -0.08)">
      <use transform="translate(0 0.09375)" xlink:href="#ArialMT-41"/>
      <use transform="translate(66.699219 0.09375)" xlink:href="#ArialMT-4f"/>
      <use transform="translate(144.482422 0.09375)" xlink:href="#DejaVuSans-Oblique-41"/>
      <use transform="translate(212.890625 0.09375)" xlink:href="#DejaVuSans-Oblique-63"/>
     </g>
    </g>
    <g id="line2d_39">
     <path d="M 436.85875 103.265 
L 452.85875 103.265 
" style="fill:none;stroke:#37a055;stroke-linecap:round;stroke-width:1.2;"/>
    </g>
    <g id="line2d_40"/>
    <g id="text_23">
     <!-- GA$Ag$ -->
     <g style="fill:#262626;" transform="translate(459.25875 106.065)scale(0.08 -0.08)">
      <use transform="translate(0 0.09375)" xlink:href="#ArialMT-47"/>
      <use transform="translate(77.783203 0.09375)" xlink:href="#ArialMT-41"/>
      <use transform="translate(144.482422 0.09375)" xlink:href="#DejaVuSans-Oblique-41"/>
      <use transform="translate(212.890625 0.09375)" xlink:href="#DejaVuSans-Oblique-67"/>
     </g>
    </g>
    <g id="line2d_41">
     <path d="M 436.85875 114.785 
L 452.85875 114.785 
" style="fill:none;stroke:#c6dbef;stroke-linecap:round;stroke-width:1.2;"/>
    </g>
    <g id="line2d_42"/>
    <g id="text_24">
     <!-- GN$Ag$ -->
     <defs>
      <path d="M 7.625 0 
L 7.625 71.578125 
L 17.328125 71.578125 
L 54.9375 15.375 
L 54.9375 71.578125 
L 64.015625 71.578125 
L 64.015625 0 
L 54.296875 0 
L 16.703125 56.25 
L 16.703125 0 
z
" id="ArialMT-4e"/>
     </defs>
     <g style="fill:#262626;" transform="translate(459.25875 117.585)scale(0.08 -0.08)">
      <use transform="translate(0 0.09375)" xlink:href="#ArialMT-47"/>
      <use transform="translate(77.783203 0.09375)" xlink:href="#ArialMT-4e"/>
      <use transform="translate(150 0.09375)" xlink:href="#DejaVuSans-Oblique-41"/>
      <use transform="translate(218.408203 0.09375)" xlink:href="#DejaVuSans-Oblique-67"/>
     </g>
    </g>
    <g id="line2d_43">
     <path d="M 436.85875 126.19125 
L 452.85875 126.19125 
" style="fill:none;stroke:#000000;stroke-linecap:round;stroke-width:2;"/>
    </g>
    <g id="line2d_44"/>
    <g id="text_25">
     <!-- Global -->
     <defs>
      <path d="M 14.703125 0 
L 6.546875 0 
L 6.546875 71.578125 
L 15.328125 71.578125 
L 15.328125 46.046875 
Q 20.90625 53.03125 29.546875 53.03125 
Q 34.328125 53.03125 38.59375 51.09375 
Q 42.875 49.171875 45.625 45.671875 
Q 48.390625 42.1875 49.953125 37.25 
Q 51.515625 32.328125 51.515625 26.703125 
Q 51.515625 13.375 44.921875 6.09375 
Q 38.328125 -1.171875 29.109375 -1.171875 
Q 19.921875 -1.171875 14.703125 6.5 
z
M 14.59375 26.3125 
Q 14.59375 17 17.140625 12.84375 
Q 21.296875 6.0625 28.375 6.0625 
Q 34.125 6.0625 38.328125 11.0625 
Q 42.53125 16.0625 42.53125 25.984375 
Q 42.53125 36.140625 38.5 40.96875 
Q 34.46875 45.796875 28.765625 45.796875 
Q 23 45.796875 18.796875 40.796875 
Q 14.59375 35.796875 14.59375 26.3125 
z
" id="ArialMT-62"/>
     </defs>
     <g style="fill:#262626;" transform="translate(459.25875 128.99125)scale(0.08 -0.08)">
      <use xlink:href="#ArialMT-47"/>
      <use x="77.783203" xlink:href="#ArialMT-6c"/>
      <use x="100" xlink:href="#ArialMT-6f"/>
      <use x="155.615234" xlink:href="#ArialMT-62"/>
      <use x="211.230469" xlink:href="#ArialMT-61"/>
      <use x="266.845703" xlink:href="#ArialMT-6c"/>
     </g>
    </g>
   </g>
  </g>
 </g>
 <defs>
  <clipPath id="peecf25b851">
   <rect height="217.44" width="446.4" x="43.1825" y="13.2"/>
  </clipPath>
 </defs>
</svg>
