<?xml version="1.0" encoding="UTF-8" standalone="no"?>
<!DOCTYPE svg PUBLIC "-//W3C//DTD SVG 1.1//EN"
 "http://www.w3.org/Graphics/SVG/1.1/DTD/svg11.dtd">
<!-- Generated by graphviz version 2.38.0 (20140413.2041)
 -->
<!-- Title: %3 Pages: 1 -->
<svg width="118pt" height="154pt"
 viewBox="0.00 0.00 117.52 153.93" xmlns="http://www.w3.org/2000/svg" xmlns:xlink="http://www.w3.org/1999/xlink">
<g id="graph0" class="graph" transform="scale(1 1) rotate(0) translate(-14.0647 114.174)">
<title>%3</title>
<polygon fill="white" stroke="none" points="14.0647,39.7538 14.0647,-114.174 131.585,-114.174 131.585,39.7538 14.0647,39.7538"/>
<!-- 0 -->
<g id="node1" class="node"><title>0</title>
<ellipse fill="#787878" stroke="black" cx="74.0021" cy="-56.1756" rx="9" ry="9"/>
</g>
<!-- 1 -->
<g id="node2" class="node"><title>1</title>
<ellipse fill="#787878" stroke="black" cx="125.085" cy="-71.8925" rx="2.5" ry="2.5"/>
</g>
<!-- 0&#45;&gt;1 -->
<g id="edge1" class="edge"><title>0&#45;&gt;1</title>
<path fill="none" stroke="black" d="M82.9001,-58.9133C94.7915,-62.572 115.208,-68.8536 122.446,-71.0806"/>
</g>
<!-- 3 -->
<g id="node4" class="node"><title>3</title>
<ellipse fill="#787878" stroke="black" cx="20.5647" cy="-56.6002" rx="2.5" ry="2.5"/>
</g>
<!-- 0&#45;&gt;3 -->
<g id="edge4" class="edge"><title>0&#45;&gt;3</title>
<path fill="none" stroke="black" d="M64.694,-56.2496C52.2545,-56.3484 30.8969,-56.5181 23.3252,-56.5782"/>
</g>
<!-- 4 -->
<g id="node5" class="node"><title>4</title>
<ellipse fill="#787878" stroke="black" cx="66.475" cy="-107.674" rx="2.5" ry="2.5"/>
</g>
<!-- 0&#45;&gt;4 -->
<g id="edge5" class="edge"><title>0&#45;&gt;4</title>
<path fill="none" stroke="black" d="M72.691,-65.1459C70.9388,-77.1341 67.9304,-97.7166 66.8638,-105.014"/>
</g>
<!-- anon_0_2_0 -->
<g id="node6" class="node"><title>anon_0_2_0</title>
<ellipse fill="white" stroke="black" cx="81.3419" cy="-6.0664" rx="1" ry="1"/>
</g>
<!-- 0&#45;&gt;anon_0_2_0 -->
<g id="edge2" class="edge"><title>0&#45;&gt;anon_0_2_0</title>
<path fill="none" stroke="black" d="M75.3483,-46.9848C77.2024,-34.327 80.4007,-12.4922 81.1713,-7.23127"/>
</g>
<!-- 2 -->
<g id="node3" class="node"><title>2</title>
<ellipse fill="#787878" stroke="black" cx="87.1304" cy="33.2538" rx="2.5" ry="2.5"/>
</g>
<!-- anon_0_2_0&#45;&gt;2 -->
<g id="edge3" class="edge"><title>anon_0_2_0&#45;&gt;2</title>
<path fill="none" stroke="black" d="M81.5345,-4.75814C82.3662,0.891867 85.658,23.2523 86.765,30.7718"/>
</g>
</g>
</svg>
