<?xml version="1.0" encoding="UTF-8" standalone="no"?>
<!DOCTYPE svg PUBLIC "-//W3C//DTD SVG 1.1//EN"
 "http://www.w3.org/Graphics/SVG/1.1/DTD/svg11.dtd">
<!-- Generated by graphviz version 2.38.0 (20140413.2041)
 -->
<!-- Title: %3 Pages: 1 -->
<svg width="307pt" height="271pt"
 viewBox="0.00 0.00 306.88 270.51" xmlns="http://www.w3.org/2000/svg" xmlns:xlink="http://www.w3.org/1999/xlink">
<g id="graph0" class="graph" transform="scale(1 1) rotate(0) translate(173.848 263.352)">
<title>%3</title>
<polygon fill="white" stroke="none" points="-173.848,7.15918 -173.848,-263.352 133.027,-263.352 133.027,7.15918 -173.848,7.15918"/>
<!-- 0 -->
<g id="node1" class="node"><title>0</title>
<ellipse fill="#ff3030" stroke="black" cx="-118.041" cy="-211.675" rx="3.5" ry="3.5"/>
</g>
<!-- 4 -->
<g id="node5" class="node"><title>4</title>
<ellipse fill="#ff3030" stroke="black" cx="-86.3954" cy="-184.608" rx="5" ry="5"/>
</g>
<!-- 0&#45;&gt;4 -->
<g id="edge1" class="edge"><title>0&#45;&gt;4</title>
<path fill="none" stroke="black" d="M-115.12,-209.177C-109.49,-204.361 -97.1137,-193.775 -90.5976,-188.202"/>
</g>
<!-- 1 -->
<g id="node2" class="node"><title>1</title>
<ellipse fill="#ff3030" stroke="black" cx="44.4466" cy="-17.8317" rx="4.5" ry="4.5"/>
</g>
<!-- 3 -->
<g id="node4" class="node"><title>3</title>
<ellipse fill="#ff3030" stroke="black" cx="70.1457" cy="-48.9026" rx="2.5" ry="2.5"/>
</g>
<!-- 1&#45;&gt;3 -->
<g id="edge2" class="edge"><title>1&#45;&gt;3</title>
<path fill="none" stroke="black" d="M47.5979,-21.6416C53.0663,-28.2531 64.1375,-41.6385 68.4096,-46.8036"/>
</g>
<!-- anon_1_5_0 -->
<g id="node11" class="node"><title>anon_1_5_0</title>
<ellipse fill="white" stroke="black" cx="10.8514" cy="2.15918" rx="1" ry="1"/>
</g>
<!-- 1&#45;&gt;anon_1_5_0 -->
<g id="edge3" class="edge"><title>1&#45;&gt;anon_1_5_0</title>
<path fill="none" stroke="black" d="M40.3272,-15.3804C32.4777,-10.7095 15.7974,-0.783941 11.75,1.62447"/>
</g>
<!-- 2 -->
<g id="node3" class="node"><title>2</title>
<ellipse fill="#ff3030" stroke="black" cx="68.3617" cy="-214.768" rx="4.5" ry="4.5"/>
</g>
<!-- 5 -->
<g id="node6" class="node"><title>5</title>
<ellipse fill="#ff3030" stroke="black" cx="-28.3883" cy="-2.00978" rx="2.5" ry="2.5"/>
</g>
<!-- 6 -->
<g id="node7" class="node"><title>6</title>
<ellipse fill="#ff3030" stroke="black" cx="126.527" cy="-146.817" rx="2.5" ry="2.5"/>
</g>
<!-- 7 -->
<g id="node8" class="node"><title>7</title>
<ellipse fill="#ff3030" stroke="black" cx="-140.76" cy="-17.7101" rx="2.5" ry="2.5"/>
</g>
<!-- 8 -->
<g id="node9" class="node"><title>8</title>
<ellipse fill="#ff3030" stroke="black" cx="-167.348" cy="-108.016" rx="2.5" ry="2.5"/>
</g>
<!-- 9 -->
<g id="node10" class="node"><title>9</title>
<ellipse fill="#ff3030" stroke="black" cx="-7.76902" cy="-256.852" rx="2.5" ry="2.5"/>
</g>
<!-- anon_1_5_0&#45;&gt;5 -->
<g id="edge4" class="edge"><title>anon_1_5_0&#45;&gt;5</title>
<path fill="none" stroke="black" d="M9.54583,2.02047C4.01377,1.43273 -17.5711,-0.860529 -25.471,-1.69984"/>
</g>
</g>
</svg>
