<?xml version="1.0" encoding="UTF-8" standalone="no"?>
<!DOCTYPE svg PUBLIC "-//W3C//DTD SVG 1.1//EN"
 "http://www.w3.org/Graphics/SVG/1.1/DTD/svg11.dtd">
<!-- Generated by graphviz version 2.38.0 (20140413.2041)
 -->
<!-- Title: %3 Pages: 1 -->
<svg width="217pt" height="292pt"
 viewBox="0.00 0.00 217.19 292.08" xmlns="http://www.w3.org/2000/svg" xmlns:xlink="http://www.w3.org/1999/xlink">
<g id="graph0" class="graph" transform="scale(1 1) rotate(0) translate(102.997 143.351)">
<title>%3</title>
<polygon fill="white" stroke="none" points="-102.997,148.729 -102.997,-143.351 114.197,-143.351 114.197,148.729 -102.997,148.729"/>
<!-- 0 -->
<g id="node1" class="node"><title>0</title>
<ellipse fill="palegreen" stroke="black" cx="76.4187" cy="0.72123" rx="2.5" ry="2.5"/>
</g>
<!-- 1 -->
<g id="node2" class="node"><title>1</title>
<ellipse fill="palegreen" stroke="black" cx="28.2317" cy="-58.3428" rx="23.5" ry="23.5"/>
</g>
<!-- 0&#45;&gt;1 -->
<g id="edge1" class="edge"><title>0&#45;&gt;1</title>
<path fill="none" stroke="black" d="M74.8154,-1.24394C69.949,-7.20889 54.9667,-25.5731 43.2925,-39.8824"/>
</g>
<!-- 2 -->
<g id="node3" class="node"><title>2</title>
<ellipse fill="palegreen" stroke="black" cx="107.384" cy="-79.4062" rx="2.5" ry="2.5"/>
</g>
<!-- 1&#45;&gt;2 -->
<g id="edge2" class="edge"><title>1&#45;&gt;2</title>
<path fill="none" stroke="black" d="M51.1258,-64.4352C70.4846,-69.5868 96.3617,-76.473 104.685,-78.688"/>
</g>
<!-- 3 -->
<g id="node4" class="node"><title>3</title>
<ellipse fill="palegreen" stroke="black" cx="-23.1337" cy="-80.2361" rx="2.5" ry="2.5"/>
</g>
<!-- 1&#45;&gt;3 -->
<g id="edge3" class="edge"><title>1&#45;&gt;3</title>
<path fill="none" stroke="black" d="M6.44817,-67.6275C-4.27031,-72.196 -15.9165,-77.1599 -20.7868,-79.2358"/>
</g>
<!-- 5 -->
<g id="node6" class="node"><title>5</title>
<ellipse fill="palegreen" stroke="black" cx="106.697" cy="-23.8951" rx="3.5" ry="3.5"/>
</g>
<!-- 1&#45;&gt;5 -->
<g id="edge6" class="edge"><title>1&#45;&gt;5</title>
<path fill="none" stroke="black" d="M50.0886,-48.7472C66.2998,-41.6302 87.4711,-32.3355 98.7722,-27.3741"/>
<polygon fill="black" stroke="black" points="99.5874,-28.9275 103.462,-25.3152 98.1804,-25.7228 99.5874,-28.9275"/>
<text text-anchor="middle" x="83.9304" y="-28.4607" font-family="monospace" font-size="12.00">I492N</text>
</g>
<!-- 6 -->
<g id="node7" class="node"><title>6</title>
<ellipse fill="palegreen" stroke="black" cx="-32.6339" cy="-120.82" rx="6" ry="6"/>
</g>
<!-- 1&#45;&gt;6 -->
<g id="edge7" class="edge"><title>1&#45;&gt;6</title>
<path fill="none" stroke="black" d="M11.5999,-75.4151C-1.91595,-89.2889 -20.0395,-107.893 -28.2566,-116.327"/>
</g>
<!-- 7 -->
<g id="node8" class="node"><title>7</title>
<ellipse fill="palegreen" stroke="black" cx="4.45107" cy="-132.916" rx="2.5" ry="2.5"/>
</g>
<!-- 1&#45;&gt;7 -->
<g id="edge8" class="edge"><title>1&#45;&gt;7</title>
<path fill="none" stroke="black" d="M20.9675,-81.1224C15.1761,-99.2837 7.64988,-122.885 5.23384,-130.461"/>
</g>
<!-- 8 -->
<g id="node9" class="node"><title>8</title>
<ellipse fill="palegreen" stroke="black" cx="84.5433" cy="-106.644" rx="2.5" ry="2.5"/>
</g>
<!-- 1&#45;&gt;8 -->
<g id="edge9" class="edge"><title>1&#45;&gt;8</title>
<path fill="none" stroke="black" d="M46.359,-73.8914C59.7342,-85.3639 76.5823,-99.8153 82.4302,-104.831"/>
</g>
<!-- 9 -->
<g id="node10" class="node"><title>9</title>
<ellipse fill="palegreen" stroke="black" cx="60.8381" cy="-135.851" rx="3.5" ry="3.5"/>
</g>
<!-- 1&#45;&gt;9 -->
<g id="edge10" class="edge"><title>1&#45;&gt;9</title>
<path fill="none" stroke="black" d="M37.4882,-80.3464C45.2453,-98.7857 55.6378,-123.49 59.4015,-132.437"/>
</g>
<!-- 10 -->
<g id="node11" class="node"><title>10</title>
<ellipse fill="palegreen" stroke="black" cx="87.5107" cy="-51.7683" rx="2.5" ry="2.5"/>
</g>
<!-- 1&#45;&gt;10 -->
<g id="edge11" class="edge"><title>1&#45;&gt;10</title>
<path fill="none" stroke="black" d="M51.6604,-55.7444C64.6053,-54.3087 79.2051,-52.6894 84.9731,-52.0497"/>
</g>
<!-- 12 -->
<g id="node13" class="node"><title>12</title>
<ellipse fill="palegreen" stroke="black" cx="-25.067" cy="-23.4697" rx="2.5" ry="2.5"/>
</g>
<!-- 1&#45;&gt;12 -->
<g id="edge16" class="edge"><title>1&#45;&gt;12</title>
<path fill="none" stroke="black" d="M8.38525,-45.3574C-1.04874,-39.1848 -11.7017,-32.2146 -18.3995,-27.8323"/>
<polygon fill="black" stroke="black" points="-17.5224,-26.3148 -22.6646,-25.0416 -19.4388,-29.2436 -17.5224,-26.3148"/>
<text text-anchor="middle" x="-24.0071" y="-39.9948" font-family="monospace" font-size="12.00">M925L</text>
</g>
<!-- 13 -->
<g id="node14" class="node"><title>13</title>
<ellipse fill="palegreen" stroke="black" cx="32.8843" cy="-116.844" rx="2.5" ry="2.5"/>
</g>
<!-- 1&#45;&gt;13 -->
<g id="edge17" class="edge"><title>1&#45;&gt;13</title>
<path fill="none" stroke="black" d="M30.0973,-81.8005C31.0883,-94.2614 32.1955,-108.183 32.6601,-114.025"/>
</g>
<!-- 14 -->
<g id="node15" class="node"><title>14</title>
<ellipse fill="palegreen" stroke="black" cx="40.1139" cy="-5.33248" rx="2.5" ry="2.5"/>
</g>
<!-- 1&#45;&gt;14 -->
<g id="edge18" class="edge"><title>1&#45;&gt;14</title>
<path fill="none" stroke="black" d="M33.4088,-35.2459C35.8103,-24.532 38.3812,-13.0627 39.5165,-7.9976"/>
</g>
<!-- anon_1_4_0 -->
<g id="node16" class="node"><title>anon_1_4_0</title>
<ellipse fill="white" stroke="black" cx="-56.7219" cy="-58.3406" rx="1" ry="1"/>
</g>
<!-- 1&#45;&gt;anon_1_4_0 -->
<g id="edge4" class="edge"><title>1&#45;&gt;anon_1_4_0</title>
<path fill="none" stroke="black" d="M4.56742,-58.3422C-17.8203,-58.3416 -48.9453,-58.3408 -55.4861,-58.3406"/>
</g>
<!-- anon_1_11_0 -->
<g id="node17" class="node"><title>anon_1_11_0</title>
<ellipse fill="white" stroke="black" cx="4.06802" cy="21.6203" rx="1" ry="1"/>
</g>
<!-- 1&#45;&gt;anon_1_11_0 -->
<g id="edge12" class="edge"><title>1&#45;&gt;anon_1_11_0</title>
<path fill="none" stroke="black" d="M21.372,-35.6425C15.1211,-14.957 6.56093,13.3707 4.51854,20.1294"/>
</g>
<!-- 4 -->
<g id="node5" class="node"><title>4</title>
<ellipse fill="palegreen" stroke="black" cx="-96.4974" cy="-63.989" rx="2.5" ry="2.5"/>
</g>
<!-- 11 -->
<g id="node12" class="node"><title>11</title>
<ellipse fill="palegreen" stroke="black" cx="-17.6353" cy="142.229" rx="2.5" ry="2.5"/>
</g>
<!-- anon_1_4_0&#45;&gt;4 -->
<g id="edge5" class="edge"><title>anon_1_4_0&#45;&gt;4</title>
<path fill="none" stroke="black" d="M-58.0453,-58.5285C-63.7607,-59.3402 -86.3801,-62.5523 -93.9866,-63.6325"/>
</g>
<!-- anon_1_11_1 -->
<g id="node18" class="node"><title>anon_1_11_1</title>
<ellipse fill="white" stroke="black" cx="-4.10164" cy="63.1713" rx="1" ry="1"/>
</g>
<!-- anon_1_11_0&#45;&gt;anon_1_11_1 -->
<g id="edge13" class="edge"><title>anon_1_11_0&#45;&gt;anon_1_11_1</title>
<path fill="none" stroke="black" d="M3.86607,22.6474C2.76527,28.2461 -2.50941,55.0732 -3.81088,61.6925"/>
</g>
<!-- anon_1_11_2 -->
<g id="node19" class="node"><title>anon_1_11_2</title>
<ellipse fill="white" stroke="black" cx="-11.1049" cy="103.007" rx="1" ry="1"/>
</g>
<!-- anon_1_11_1&#45;&gt;anon_1_11_2 -->
<g id="edge14" class="edge"><title>anon_1_11_1&#45;&gt;anon_1_11_2</title>
<path fill="none" stroke="black" d="M-4.33465,64.4967C-5.39792,70.5449 -9.78391,95.4935 -10.8638,101.636"/>
</g>
<!-- anon_1_11_2&#45;&gt;11 -->
<g id="edge15" class="edge"><title>anon_1_11_2&#45;&gt;11</title>
<path fill="none" stroke="black" d="M-11.3221,104.312C-12.2605,109.948 -15.9742,132.253 -17.2231,139.754"/>
</g>
</g>
</svg>
