<?xml version="1.0" encoding="UTF-8" standalone="no"?>
<!DOCTYPE svg PUBLIC "-//W3C//DTD SVG 1.1//EN"
 "http://www.w3.org/Graphics/SVG/1.1/DTD/svg11.dtd">
<!-- Generated by graphviz version 2.38.0 (20140413.2041)
 -->
<!-- Title: %3 Pages: 1 -->
<svg width="336pt" height="344pt"
 viewBox="0.00 0.00 336.13 343.96" xmlns="http://www.w3.org/2000/svg" xmlns:xlink="http://www.w3.org/1999/xlink">
<g id="graph0" class="graph" transform="scale(1 1) rotate(0) translate(199.449 157.794)">
<title>%3</title>
<polygon fill="white" stroke="none" points="-199.449,186.164 -199.449,-157.794 136.682,-157.794 136.682,186.164 -199.449,186.164"/>
<!-- 0 -->
<g id="node1" class="node"><title>0</title>
<ellipse fill="#1874cd" stroke="black" cx="86.742" cy="160.683" rx="14.5" ry="14.5"/>
</g>
<!-- 8 -->
<g id="node9" class="node"><title>8</title>
<ellipse fill="#1874cd" stroke="black" cx="130.182" cy="132.094" rx="2.5" ry="2.5"/>
</g>
<!-- 0&#45;&gt;8 -->
<g id="edge1" class="edge"><title>0&#45;&gt;8</title>
<path fill="none" stroke="black" d="M99.0739,152.567C109.107,145.963 122.45,137.182 127.808,133.656"/>
</g>
<!-- 9 -->
<g id="node10" class="node"><title>9</title>
<ellipse fill="#1874cd" stroke="black" cx="38.6154" cy="179.664" rx="2.5" ry="2.5"/>
</g>
<!-- 0&#45;&gt;9 -->
<g id="edge2" class="edge"><title>0&#45;&gt;9</title>
<path fill="none" stroke="black" d="M73.0796,166.071C61.9637,170.455 47.1811,176.286 41.2456,178.627"/>
</g>
<!-- 1 -->
<g id="node2" class="node"><title>1</title>
<ellipse fill="#1874cd" stroke="black" cx="12.1861" cy="-64.3297" rx="12" ry="12"/>
</g>
<!-- 2 -->
<g id="node3" class="node"><title>2</title>
<ellipse fill="#1874cd" stroke="black" cx="34.0404" cy="-114.889" rx="2.5" ry="2.5"/>
</g>
<!-- 1&#45;&gt;2 -->
<g id="edge3" class="edge"><title>1&#45;&gt;2</title>
<path fill="none" stroke="black" d="M17.0363,-75.5504C22.2675,-87.6526 30.2234,-106.058 33.0229,-112.535"/>
</g>
<!-- 5 -->
<g id="node6" class="node"><title>5</title>
<ellipse fill="#1874cd" stroke="black" cx="72.038" cy="-77.6509" rx="3.5" ry="3.5"/>
</g>
<!-- 1&#45;&gt;5 -->
<g id="edge4" class="edge"><title>1&#45;&gt;5</title>
<path fill="none" stroke="black" d="M24.0109,-66.9615C35.7387,-69.5718 53.4076,-73.5043 63.7266,-75.801"/>
<polygon fill="black" stroke="black" points="63.358,-77.5117 68.6188,-76.8899 64.1184,-74.0953 63.358,-77.5117"/>
<text text-anchor="middle" x="66.8687" y="-61.7813" font-family="monospace" font-size="12.00">S2076T</text>
</g>
<!-- 11 -->
<g id="node12" class="node"><title>11</title>
<ellipse fill="#1874cd" stroke="black" cx="-11.4168" cy="-6.91098" rx="3.5" ry="3.5"/>
</g>
<!-- 1&#45;&gt;11 -->
<g id="edge5" class="edge"><title>1&#45;&gt;11</title>
<path fill="none" stroke="black" d="M7.52294,-52.9856C2.04155,-39.6511 -6.73079,-18.3106 -10.0684,-10.1912"/>
</g>
<!-- 13 -->
<g id="node14" class="node"><title>13</title>
<ellipse fill="#1874cd" stroke="black" cx="49.8443" cy="-27.8546" rx="2.5" ry="2.5"/>
</g>
<!-- 1&#45;&gt;13 -->
<g id="edge6" class="edge"><title>1&#45;&gt;13</title>
<path fill="none" stroke="black" d="M20.9203,-55.8699C27.9845,-49.0276 37.7403,-39.5783 43.9207,-33.5921"/>
<polygon fill="black" stroke="black" points="45.4722,-34.5256 47.8462,-29.7899 43.0371,-32.0116 45.4722,-34.5256"/>
<text text-anchor="middle" x="9.4205" y="-35.131" font-family="monospace" font-size="12.00">L1617F</text>
</g>
<!-- 14 -->
<g id="node15" class="node"><title>14</title>
<ellipse fill="white" stroke="black" cx="-37.6319" cy="-92.1296" rx="1" ry="1"/>
</g>
<!-- 1&#45;&gt;14 -->
<g id="edge7" class="edge"><title>1&#45;&gt;14</title>
<path fill="none" stroke="black" d="M1.621,-70.2254C-11.1747,-77.3657 -31.6309,-88.7809 -36.545,-91.5232"/>
</g>
<!-- 3 -->
<g id="node4" class="node"><title>3</title>
<ellipse fill="#1874cd" stroke="black" cx="-74.4071" cy="-68.3615" rx="2.5" ry="2.5"/>
</g>
<!-- 3&#45;&gt;14 -->
<g id="edge8" class="edge"><title>3&#45;&gt;14</title>
<path fill="none" stroke="black" d="M-71.9941,-69.921C-64.8353,-74.5478 -43.8958,-88.0812 -38.7728,-91.3922"/>
</g>
<!-- 4 -->
<g id="node5" class="node"><title>4</title>
<ellipse fill="#1874cd" stroke="black" cx="-32.2247" cy="30.1829" rx="2.5" ry="2.5"/>
</g>
<!-- 6 -->
<g id="node7" class="node"><title>6</title>
<ellipse fill="#1874cd" stroke="black" cx="-60.5103" cy="63.4065" rx="2.5" ry="2.5"/>
</g>
<!-- 4&#45;&gt;6 -->
<g id="edge9" class="edge"><title>4&#45;&gt;6</title>
<path fill="none" stroke="black" d="M-34.0806,32.3628C-39.1935,38.3683 -53.4457,55.1085 -58.6105,61.175"/>
</g>
<!-- 10 -->
<g id="node11" class="node"><title>10</title>
<ellipse fill="#1874cd" stroke="black" cx="115.87" cy="-84.3232" rx="2.5" ry="2.5"/>
</g>
<!-- 5&#45;&gt;10 -->
<g id="edge11" class="edge"><title>5&#45;&gt;10</title>
<path fill="none" stroke="black" d="M75.7751,-78.2198C84.3875,-79.5308 105.474,-82.7406 113.078,-83.8983"/>
</g>
<!-- 7 -->
<g id="node8" class="node"><title>7</title>
<ellipse fill="#1874cd" stroke="black" cx="-192.949" cy="102.072" rx="2.5" ry="2.5"/>
</g>
<!-- 11&#45;&gt;4 -->
<g id="edge10" class="edge"><title>11&#45;&gt;4</title>
<path fill="none" stroke="black" d="M-13.3371,-3.48776C-16.7376,2.5744 -23.8798,15.3065 -28.3414,23.2602"/>
<polygon fill="black" stroke="black" points="-26.9506,24.3579 -30.9231,27.8625 -30.0031,22.6456 -26.9506,24.3579"/>
<text text-anchor="middle" x="-43.8392" y="6.48623" font-family="monospace" font-size="12.00">N1570Y</text>
</g>
<!-- 12 -->
<g id="node13" class="node"><title>12</title>
<ellipse fill="#1874cd" stroke="black" cx="-128.428" cy="-151.294" rx="2.5" ry="2.5"/>
</g>
<!-- anon_12_14_0 -->
<g id="node16" class="node"><title>anon_12_14_0</title>
<ellipse fill="white" stroke="black" cx="-87.6329" cy="-149.384" rx="1" ry="1"/>
</g>
<!-- 12&#45;&gt;anon_12_14_0 -->
<g id="edge12" class="edge"><title>12&#45;&gt;anon_12_14_0</title>
<path fill="none" stroke="black" d="M-125.751,-151.169C-117.81,-150.797 -94.5816,-149.709 -88.8986,-149.443"/>
</g>
<!-- anon_12_14_1 -->
<g id="node17" class="node"><title>anon_12_14_1</title>
<ellipse fill="white" stroke="black" cx="-55.1189" cy="-126.433" rx="1" ry="1"/>
</g>
<!-- anon_12_14_0&#45;&gt;anon_12_14_1 -->
<g id="edge13" class="edge"><title>anon_12_14_0&#45;&gt;anon_12_14_1</title>
<path fill="none" stroke="black" d="M-86.2358,-148.398C-80.7904,-144.554 -61.0505,-130.62 -56.2007,-127.197"/>
</g>
<!-- anon_12_14_1&#45;&gt;14 -->
<g id="edge14" class="edge"><title>anon_12_14_1&#45;&gt;14</title>
<path fill="none" stroke="black" d="M-54.3675,-124.96C-51.4387,-119.214 -40.8221,-98.3878 -38.2137,-93.271"/>
</g>
</g>
</svg>
