<?xml version="1.0" encoding="UTF-8" standalone="no"?>
<!DOCTYPE svg PUBLIC "-//W3C//DTD SVG 1.1//EN"
 "http://www.w3.org/Graphics/SVG/1.1/DTD/svg11.dtd">
<!-- Generated by graphviz version 2.38.0 (20140413.2041)
 -->
<!-- Title: %3 Pages: 1 -->
<svg width="267pt" height="246pt"
 viewBox="0.00 0.00 266.60 246.38" xmlns="http://www.w3.org/2000/svg" xmlns:xlink="http://www.w3.org/1999/xlink">
<g id="graph0" class="graph" transform="scale(1 1) rotate(0) translate(81.078 128.909)">
<title>%3</title>
<polygon fill="white" stroke="none" points="-81.078,117.475 -81.078,-128.909 185.526,-128.909 185.526,117.475 -81.078,117.475"/>
<!-- 0 -->
<g id="node1" class="node"><title>0</title>
<ellipse fill="olivedrab" stroke="black" cx="-12.7708" cy="-77.4505" rx="7" ry="7"/>
</g>
<!-- 1 -->
<g id="node2" class="node"><title>1</title>
<path fill="#1874cd" stroke="black" stroke-width="0.5" d="M29.5929,-10.2081C29.5929,-10.2081 48.5929,-10.2081 48.5929,-10.2081 48.5929,-10.8413 48.5613,-11.4741 48.4981,-12.1042 48.4349,-12.7342 48.3403,-13.3607 48.2145,-13.9813 48.0888,-14.6019 47.9321,-15.2158 47.745,-15.8208 47.558,-16.4258 47.3408,-17.021 47.0943,-17.6042 46.8478,-18.1875 46.5723,-18.7581 46.2688,-19.3138 45.9654,-19.8696 45.6343,-20.4098 45.2769,-20.9325 44.9195,-21.4552 44.5362,-21.9597 44.1284,-22.4441 43.7206,-22.9286 43.2888,-23.3923 42.8347,-23.8336 42.8347,-23.8336 29.5929,-10.2081 29.5929,-10.2081"/>
<path fill="olivedrab" stroke="black" stroke-width="0.5" d="M29.5929,-10.2081C29.5929,-10.2081 42.8347,-23.8336 42.8347,-23.8336 42.056,-24.5904 41.2138,-25.2791 40.3174,-25.8921 39.4209,-26.505 38.4736,-27.04 37.4858,-27.4911 36.498,-27.9422 35.4733,-28.3078 34.4231,-28.5839 33.3728,-28.86 32.3008,-29.0455 31.2189,-29.1384 30.1369,-29.2313 29.049,-29.2313 27.967,-29.1384 26.8851,-29.0455 25.813,-28.86 24.7628,-28.5839 23.7125,-28.3078 22.6879,-27.9422 21.7,-27.4911 20.7122,-27.04 19.7649,-26.505 18.8685,-25.8921 17.9721,-25.2791 17.1299,-24.5904 16.3511,-23.8336 15.5724,-23.0768 14.8599,-22.2546 14.2216,-21.376 13.5833,-20.4975 13.0215,-19.5658 12.5424,-18.5913 12.0632,-17.6168 11.6685,-16.603 11.3626,-15.561 11.0566,-14.5191 10.8406,-13.4528 10.7168,-12.3739 10.593,-11.2951 10.5619,-10.2076 10.6239,-9.12342 10.6859,-8.03925 10.8407,-6.96239 11.0867,-5.90467 11.3327,-4.84695 11.6689,-3.81226 12.0916,-2.81198 12.5143,-1.81169 13.022,-0.849483 13.6091,0.0640684 14.1962,0.97762 14.8606,1.83916 15.5949,2.63922 16.3291,3.43927 17.1307,4.17491 17.9906,4.83804 18.8506,5.50116 19.7658,6.08935 20.7263,6.59612 21.6867,7.10289 22.6888,7.52639 23.7216,7.86197 24.7544,8.19754 25.8141,8.44395 26.889,8.5985 27.9638,8.75305 29.05,8.81515 30.1355,8.78414 31.221,8.75313 32.3018,8.62912 33.3662,8.41346 34.4305,8.1978 35.4743,7.8913 36.4863,7.49731 37.4982,7.10332 38.4745,6.6233 39.4045,6.06252 40.3344,5.50175 41.2146,4.86227 42.0353,4.15113 42.856,3.43999 43.6142,2.6598 44.3016,1.81913 44.989,0.978458 45.6031,0.0803974 46.1371,-0.865181 46.6711,-1.81076 47.123,-2.80038 47.488,-3.82317 47.8529,-4.84596 48.1295,-5.89815 48.3147,-6.96819 48.4998,-8.03822 48.5929,-9.12217 48.5929,-10.2081 48.5929,-10.2081 29.5929,-10.2081 29.5929,-10.2081"/>
<ellipse fill="none" stroke="black" cx="29.5929" cy="-10.2081" rx="19" ry="19"/>
</g>
<!-- 0&#45;&gt;1 -->
<g id="edge1" class="edge"><title>0&#45;&gt;1</title>
<path fill="none" stroke="black" d="M-8.8613,-71.245C-2.51143,-61.1661 10.2462,-40.9165 19.3243,-26.5071"/>
</g>
<!-- 3 -->
<g id="node4" class="node"><title>3</title>
<ellipse fill="olivedrab" stroke="black" cx="-50.0282" cy="-111.042" rx="2.5" ry="2.5"/>
</g>
<!-- 0&#45;&gt;3 -->
<g id="edge2" class="edge"><title>0&#45;&gt;3</title>
<path fill="none" stroke="black" d="M-18.2683,-82.4071C-25.11,-88.5757 -36.7597,-99.0792 -43.8876,-105.506"/>
<polygon fill="black" stroke="black" points="-45.4437,-104.553 -47.9853,-109.2 -43.1,-107.152 -45.4437,-104.553"/>
<text text-anchor="middle" x="-54.078" y="-97.3565" font-family="monospace" font-size="12.00">H1755Y</text>
</g>
<!-- 4 -->
<g id="node5" class="node"><title>4</title>
<ellipse fill="olivedrab" stroke="black" cx="90.6047" cy="7.12035" rx="2.5" ry="2.5"/>
</g>
<!-- 1&#45;&gt;4 -->
<g id="edge7" class="edge"><title>1&#45;&gt;4</title>
<path fill="none" stroke="black" d="M47.8985,-5.009C62.2194,-0.941585 80.8353,4.34564 87.807,6.32576"/>
</g>
<!-- 5 -->
<g id="node6" class="node"><title>5</title>
<ellipse fill="olivedrab" stroke="black" cx="9.89722" cy="66.4905" rx="5.5" ry="5.5"/>
</g>
<!-- 1&#45;&gt;5 -->
<g id="edge8" class="edge"><title>1&#45;&gt;5</title>
<path fill="none" stroke="black" d="M24.8252,8.35848C20.4079,25.5602 14.1127,50.0746 11.3226,60.9398"/>
</g>
<!-- 6 -->
<g id="node7" class="node"><title>6</title>
<ellipse fill="#1874cd" stroke="black" cx="-30.7111" cy="9.30185" rx="2.5" ry="2.5"/>
</g>
<!-- 1&#45;&gt;6 -->
<g id="edge9" class="edge"><title>1&#45;&gt;6</title>
<path fill="none" stroke="black" d="M11.4997,-4.35448C-2.65513,0.224988 -21.055,6.17783 -27.9459,8.40723"/>
</g>
<!-- 9 -->
<g id="node10" class="node"><title>9</title>
<ellipse fill="olivedrab" stroke="black" cx="-25.8335" cy="-30.4746" rx="2.5" ry="2.5"/>
</g>
<!-- 1&#45;&gt;9 -->
<g id="edge10" class="edge"><title>1&#45;&gt;9</title>
<path fill="none" stroke="black" d="M11.4443,-16.8441C-1.43696,-21.5541 -17.4604,-27.4131 -23.4385,-29.5989"/>
</g>
<!-- 10 -->
<g id="node11" class="node"><title>10</title>
<ellipse fill="olivedrab" stroke="black" cx="68.9196" cy="38.404" rx="2.5" ry="2.5"/>
</g>
<!-- 1&#45;&gt;10 -->
<g id="edge11" class="edge"><title>1&#45;&gt;10</title>
<path fill="none" stroke="black" d="M41.6059,4.64128C50.822,16.0334 62.6944,30.709 67.1373,36.2009"/>
</g>
<!-- anon_1_2_0 -->
<g id="node12" class="node"><title>anon_1_2_0</title>
<ellipse fill="white" stroke="black" cx="77.4955" cy="-57.7116" rx="1" ry="1"/>
</g>
<!-- 1&#45;&gt;anon_1_2_0 -->
<g id="edge3" class="edge"><title>1&#45;&gt;anon_1_2_0</title>
<path fill="none" stroke="black" d="M43.1918,-23.6936C55.5836,-35.9823 72.5535,-52.8108 76.6024,-56.826"/>
</g>
<!-- 2 -->
<g id="node3" class="node"><title>2</title>
<ellipse fill="olivedrab" stroke="black" cx="179.026" cy="-122.409" rx="2.5" ry="2.5"/>
</g>
<!-- 7 -->
<g id="node8" class="node"><title>7</title>
<ellipse fill="olivedrab" stroke="black" cx="33.0051" cy="110.975" rx="2.5" ry="2.5"/>
</g>
<!-- 5&#45;&gt;7 -->
<g id="edge12" class="edge"><title>5&#45;&gt;7</title>
<path fill="none" stroke="black" d="M12.548,71.5935C16.7105,79.6067 24.785,95.1507 29.4481,104.128"/>
<polygon fill="black" stroke="black" points="31.0934,103.499 31.8453,108.743 27.9874,105.112 31.0934,103.499"/>
<text text-anchor="middle" x="1.99805" y="84.4606" font-family="monospace" font-size="12.00">K251R</text>
</g>
<!-- 8 -->
<g id="node9" class="node"><title>8</title>
<ellipse fill="olivedrab" stroke="black" cx="-32.4793" cy="94.4681" rx="3.5" ry="3.5"/>
</g>
<!-- 5&#45;&gt;8 -->
<g id="edge13" class="edge"><title>5&#45;&gt;8</title>
<path fill="none" stroke="black" d="M5.03609,69.6999C-3.65997,75.4411 -21.666,87.329 -29.1276,92.2552"/>
</g>
<!-- anon_1_2_1 -->
<g id="node13" class="node"><title>anon_1_2_1</title>
<ellipse fill="white" stroke="black" cx="110.812" cy="-81.8138" rx="1" ry="1"/>
</g>
<!-- anon_1_2_0&#45;&gt;anon_1_2_1 -->
<g id="edge4" class="edge"><title>anon_1_2_0&#45;&gt;anon_1_2_1</title>
<path fill="none" stroke="black" d="M78.3191,-58.3074C82.8082,-61.555 104.318,-77.1164 109.626,-80.956"/>
</g>
<!-- anon_1_2_2 -->
<g id="node14" class="node"><title>anon_1_2_2</title>
<ellipse fill="white" stroke="black" cx="144.269" cy="-103.262" rx="1" ry="1"/>
</g>
<!-- anon_1_2_1&#45;&gt;anon_1_2_2 -->
<g id="edge5" class="edge"><title>anon_1_2_1&#45;&gt;anon_1_2_2</title>
<path fill="none" stroke="black" d="M112.249,-82.7354C117.853,-86.3276 138.165,-99.3494 143.156,-102.549"/>
</g>
<!-- anon_1_2_2&#45;&gt;2 -->
<g id="edge6" class="edge"><title>anon_1_2_2&#45;&gt;2</title>
<path fill="none" stroke="black" d="M145.763,-104.085C151.168,-107.063 169.749,-117.298 176.526,-121.032"/>
</g>
</g>
</svg>
