<?xml version="1.0" encoding="UTF-8" standalone="no"?>
<!DOCTYPE svg PUBLIC "-//W3C//DTD SVG 1.1//EN"
 "http://www.w3.org/Graphics/SVG/1.1/DTD/svg11.dtd">
<!-- Generated by graphviz version 2.38.0 (20140413.2041)
 -->
<!-- Title: %3 Pages: 1 -->
<svg width="267pt" height="246pt"
 viewBox="0.00 0.00 266.60 246.38" xmlns="http://www.w3.org/2000/svg" xmlns:xlink="http://www.w3.org/1999/xlink">
<g id="graph0" class="graph" transform="scale(1 1) rotate(0) translate(81.078 128.909)">
<title>%3</title>
<polygon fill="white" stroke="none" points="-81.078,117.475 -81.078,-128.909 185.526,-128.909 185.526,117.475 -81.078,117.475"/>
<!-- 0 -->
<g id="node1" class="node"><title>0</title>
<ellipse fill="olivedrab" stroke="black" cx="-12.7708" cy="-77.4505" rx="7" ry="7"/>
</g>
<!-- 1 -->
<g id="node2" class="node"><title>1</title>
<path fill="olivedrab" stroke="black" stroke-width="0.5" d="M29.5929,-10.2081C29.5929,-10.2081 48.5929,-10.2081 48.5929,-10.2081 48.5929,-11.294 48.4998,-12.378 48.3147,-13.448 48.1295,-14.5181 47.8529,-15.5703 47.488,-16.593 47.123,-17.6158 46.6711,-18.6055 46.1371,-19.551 45.6031,-20.4966 44.989,-21.3947 44.3016,-22.2353 43.6142,-23.076 42.856,-23.8562 42.0353,-24.5673 41.2146,-25.2785 40.3344,-25.918 39.4045,-26.4787 38.4745,-27.0395 37.4982,-27.5195 36.4863,-27.9135 35.4743,-28.3075 34.4305,-28.614 33.3662,-28.8297 32.3018,-29.0453 31.221,-29.1693 30.1355,-29.2004 29.05,-29.2314 27.9638,-29.1693 26.889,-29.0147 25.8141,-28.8602 24.7544,-28.6138 23.7216,-28.2782 22.6888,-27.9426 21.6867,-27.5191 20.7263,-27.0123 19.7658,-26.5056 18.8506,-25.9174 17.9906,-25.2542 17.1307,-24.5911 16.3291,-23.8555 15.5949,-23.0554 14.8606,-22.2554 14.1962,-21.3938 13.6091,-20.4803 13.022,-19.5667 12.5143,-18.6045 12.0916,-17.6042 11.6689,-16.604 11.3327,-15.5693 11.0867,-14.5115 10.8407,-13.4538 10.6859,-12.377 10.6239,-11.2928 10.5619,-10.2086 10.593,-9.12113 10.7168,-8.04227 10.8406,-6.96341 11.0566,-5.89714 11.3626,-4.85519 11.6685,-3.81324 12.0632,-2.79943 12.5424,-1.82491 13.0215,-0.850384 13.5833,0.0812682 14.2216,0.959813 14.8599,1.83836 15.5724,2.66056 16.3511,3.4174 17.1299,4.17423 17.9721,4.86291 18.8685,5.47586 19.7649,6.08881 20.7122,6.62378 21.7,7.0749 22.6879,7.52602 23.7125,7.89162 24.7628,8.16768 25.813,8.44375 26.8851,8.62927 27.967,8.7222 29.049,8.81513 30.1369,8.81513 31.2189,8.7222 32.3008,8.62927 33.3728,8.44375 34.4231,8.16768 35.4733,7.89162 36.498,7.52602 37.4858,7.0749 38.4736,6.62378 39.4209,6.08881 40.3174,5.47586 41.2138,4.86291 42.056,4.17423 42.8347,3.4174 42.8347,3.4174 29.5929,-10.2081 29.5929,-10.2081"/>
<path fill="#1874cd" stroke="black" stroke-width="0.5" d="M29.5929,-10.2081C29.5929,-10.2081 42.8347,3.4174 42.8347,3.4174 43.2888,2.97609 43.7206,2.51236 44.1284,2.02794 44.5362,1.54351 44.9195,1.03901 45.2769,0.516314 45.6343,-0.00638334 45.9654,-0.546621 46.2688,-1.10238 46.5723,-1.65813 46.8478,-2.22871 47.0943,-2.81198 47.3408,-3.39524 47.558,-3.99046 47.745,-4.59541 47.9321,-5.20037 48.0888,-5.81429 48.2145,-6.43489 48.3403,-7.05549 48.4349,-7.68198 48.4981,-8.31203 48.5613,-8.94208 48.5929,-9.5749 48.5929,-10.2081 48.5929,-10.2081 29.5929,-10.2081 29.5929,-10.2081"/>
<ellipse fill="none" stroke="black" cx="29.5929" cy="-10.2081" rx="19" ry="19"/>
</g>
<!-- 0&#45;&gt;1 -->
<g id="edge1" class="edge"><title>0&#45;&gt;1</title>
<path fill="none" stroke="black" d="M-8.8613,-71.245C-2.51143,-61.1661 10.2462,-40.9165 19.3243,-26.5071"/>
</g>
<!-- 3 -->
<g id="node4" class="node"><title>3</title>
<ellipse fill="olivedrab" stroke="black" cx="-50.0282" cy="-111.042" rx="2.5" ry="2.5"/>
</g>
<!-- 0&#45;&gt;3 -->
<g id="edge2" class="edge"><title>0&#45;&gt;3</title>
<path fill="none" stroke="black" d="M-18.2683,-82.4071C-25.11,-88.5757 -36.7597,-99.0792 -43.8876,-105.506"/>
<polygon fill="black" stroke="black" points="-45.4437,-104.553 -47.9853,-109.2 -43.1,-107.152 -45.4437,-104.553"/>
<text text-anchor="middle" x="-54.078" y="-97.3565" font-family="monospace" font-size="12.00">H1755Y</text>
</g>
<!-- 4 -->
<g id="node5" class="node"><title>4</title>
<ellipse fill="olivedrab" stroke="black" cx="90.6047" cy="7.12035" rx="2.5" ry="2.5"/>
</g>
<!-- 1&#45;&gt;4 -->
<g id="edge7" class="edge"><title>1&#45;&gt;4</title>
<path fill="none" stroke="black" d="M47.8985,-5.009C62.2194,-0.941585 80.8353,4.34564 87.807,6.32576"/>
</g>
<!-- 5 -->
<g id="node6" class="node"><title>5</title>
<ellipse fill="olivedrab" stroke="black" cx="9.89722" cy="66.4905" rx="5.5" ry="5.5"/>
</g>
<!-- 1&#45;&gt;5 -->
<g id="edge8" class="edge"><title>1&#45;&gt;5</title>
<path fill="none" stroke="black" d="M24.8252,8.35848C20.4079,25.5602 14.1127,50.0746 11.3226,60.9398"/>
</g>
<!-- 6 -->
<g id="node7" class="node"><title>6</title>
<ellipse fill="#1874cd" stroke="black" cx="-30.7111" cy="9.30185" rx="2.5" ry="2.5"/>
</g>
<!-- 1&#45;&gt;6 -->
<g id="edge9" class="edge"><title>1&#45;&gt;6</title>
<path fill="none" stroke="black" d="M11.4997,-4.35448C-2.65513,0.224988 -21.055,6.17783 -27.9459,8.40723"/>
</g>
<!-- 9 -->
<g id="node10" class="node"><title>9</title>
<ellipse fill="olivedrab" stroke="black" cx="-25.8335" cy="-30.4746" rx="2.5" ry="2.5"/>
</g>
<!-- 1&#45;&gt;9 -->
<g id="edge10" class="edge"><title>1&#45;&gt;9</title>
<path fill="none" stroke="black" d="M11.4443,-16.8441C-1.43696,-21.5541 -17.4604,-27.4131 -23.4385,-29.5989"/>
</g>
<!-- 10 -->
<g id="node11" class="node"><title>10</title>
<ellipse fill="olivedrab" stroke="black" cx="68.9196" cy="38.404" rx="2.5" ry="2.5"/>
</g>
<!-- 1&#45;&gt;10 -->
<g id="edge11" class="edge"><title>1&#45;&gt;10</title>
<path fill="none" stroke="black" d="M41.6059,4.64128C50.822,16.0334 62.6944,30.709 67.1373,36.2009"/>
</g>
<!-- anon_1_2_0 -->
<g id="node12" class="node"><title>anon_1_2_0</title>
<ellipse fill="white" stroke="black" cx="77.4955" cy="-57.7116" rx="1" ry="1"/>
</g>
<!-- 1&#45;&gt;anon_1_2_0 -->
<g id="edge3" class="edge"><title>1&#45;&gt;anon_1_2_0</title>
<path fill="none" stroke="black" d="M43.1918,-23.6936C55.5836,-35.9823 72.5535,-52.8108 76.6024,-56.826"/>
</g>
<!-- 2 -->
<g id="node3" class="node"><title>2</title>
<ellipse fill="olivedrab" stroke="black" cx="179.026" cy="-122.409" rx="2.5" ry="2.5"/>
</g>
<!-- 7 -->
<g id="node8" class="node"><title>7</title>
<ellipse fill="olivedrab" stroke="black" cx="33.0051" cy="110.975" rx="2.5" ry="2.5"/>
</g>
<!-- 5&#45;&gt;7 -->
<g id="edge12" class="edge"><title>5&#45;&gt;7</title>
<path fill="none" stroke="black" d="M12.548,71.5935C16.7105,79.6067 24.785,95.1507 29.4481,104.128"/>
<polygon fill="black" stroke="black" points="31.0934,103.499 31.8453,108.743 27.9874,105.112 31.0934,103.499"/>
<text text-anchor="middle" x="1.99805" y="84.4606" font-family="monospace" font-size="12.00">K251R</text>
</g>
<!-- 8 -->
<g id="node9" class="node"><title>8</title>
<ellipse fill="olivedrab" stroke="black" cx="-32.4793" cy="94.4681" rx="3.5" ry="3.5"/>
</g>
<!-- 5&#45;&gt;8 -->
<g id="edge13" class="edge"><title>5&#45;&gt;8</title>
<path fill="none" stroke="black" d="M5.03609,69.6999C-3.65997,75.4411 -21.666,87.329 -29.1276,92.2552"/>
</g>
<!-- anon_1_2_1 -->
<g id="node13" class="node"><title>anon_1_2_1</title>
<ellipse fill="white" stroke="black" cx="110.812" cy="-81.8138" rx="1" ry="1"/>
</g>
<!-- anon_1_2_0&#45;&gt;anon_1_2_1 -->
<g id="edge4" class="edge"><title>anon_1_2_0&#45;&gt;anon_1_2_1</title>
<path fill="none" stroke="black" d="M78.3191,-58.3074C82.8082,-61.555 104.318,-77.1164 109.626,-80.956"/>
</g>
<!-- anon_1_2_2 -->
<g id="node14" class="node"><title>anon_1_2_2</title>
<ellipse fill="white" stroke="black" cx="144.269" cy="-103.262" rx="1" ry="1"/>
</g>
<!-- anon_1_2_1&#45;&gt;anon_1_2_2 -->
<g id="edge5" class="edge"><title>anon_1_2_1&#45;&gt;anon_1_2_2</title>
<path fill="none" stroke="black" d="M112.249,-82.7354C117.853,-86.3276 138.165,-99.3494 143.156,-102.549"/>
</g>
<!-- anon_1_2_2&#45;&gt;2 -->
<g id="edge6" class="edge"><title>anon_1_2_2&#45;&gt;2</title>
<path fill="none" stroke="black" d="M145.763,-104.085C151.168,-107.063 169.749,-117.298 176.526,-121.032"/>
</g>
</g>
</svg>
