<?xml version="1.0" encoding="UTF-8" standalone="no"?>
<!DOCTYPE svg PUBLIC "-//W3C//DTD SVG 1.1//EN"
 "http://www.w3.org/Graphics/SVG/1.1/DTD/svg11.dtd">
<!-- Generated by graphviz version 2.38.0 (20140413.2041)
 -->
<!-- Title: %3 Pages: 1 -->
<svg width="196pt" height="321pt"
 viewBox="0.00 0.00 196.22 320.60" xmlns="http://www.w3.org/2000/svg" xmlns:xlink="http://www.w3.org/1999/xlink">
<g id="graph0" class="graph" transform="scale(1 1) rotate(0) translate(65.6941 88.9709)">
<title>%3</title>
<polygon fill="white" stroke="none" points="-65.6941,231.626 -65.6941,-88.9709 130.531,-88.9709 130.531,231.626 -65.6941,231.626"/>
<!-- 0 -->
<g id="node1" class="node"><title>0</title>
<ellipse fill="olivedrab" stroke="black" cx="12.3289" cy="-37.9613" rx="7" ry="7"/>
</g>
<!-- 1 -->
<g id="node2" class="node"><title>1</title>
<path fill="#1874cd" stroke="black" stroke-width="0.5" d="M11.5625,35.9915C11.5625,35.9915 30.5625,35.9915 30.5625,35.9915 30.5625,35.3583 30.5308,34.7255 30.4676,34.0955 30.4044,33.4654 30.3098,32.8389 30.1841,32.2183 30.0583,31.5977 29.9016,30.9838 29.7146,30.3788 29.5275,29.7739 29.3103,29.1787 29.0638,28.5954 28.8173,28.0121 28.5419,27.4416 28.2384,26.8858 27.9349,26.33 27.6039,25.7898 27.2465,25.2671 26.889,24.7444 26.5057,24.2399 26.0979,23.7555 25.6901,23.2711 25.2584,22.8073 24.8043,22.366 24.8043,22.366 11.5625,35.9915 11.5625,35.9915"/>
<path fill="olivedrab" stroke="black" stroke-width="0.5" d="M11.5625,35.9915C11.5625,35.9915 24.8043,22.366 24.8043,22.366 24.0255,21.6092 23.1833,20.9205 22.2869,20.3076 21.3905,19.6946 20.4432,19.1596 19.4554,18.7085 18.4676,18.2574 17.4429,17.8918 16.3926,17.6157 15.3424,17.3397 14.2704,17.1542 13.1884,17.0612 12.1065,16.9683 11.0185,16.9683 9.93656,17.0612 8.8546,17.1542 7.7826,17.3397 6.73234,17.6157 5.68207,17.8918 4.65741,18.2574 3.6696,18.7085 2.68179,19.1596 1.73448,19.6946 0.838064,20.3076 -0.0583502,20.9205 -0.900566,21.6092 -1.67933,22.366 -2.45809,23.1229 -3.17054,23.9451 -3.80884,24.8236 -4.44714,25.7022 -5.00895,26.6338 -5.48809,27.6083 -5.96723,28.5829 -6.36194,29.5967 -6.66788,30.6386 -6.97383,31.6806 -7.18988,32.7468 -7.31367,33.8257 -7.43746,34.9046 -7.46852,35.992 -7.40653,37.0762 -7.34453,38.1604 -7.1897,39.2373 -6.94374,40.295 -6.69778,41.3527 -6.36159,42.3874 -5.93886,43.3877 -5.51614,44.3879 -5.00844,45.3502 -4.42133,46.2637 -3.83423,47.1773 -3.16988,48.0388 -2.4356,48.8389 -1.70131,49.6389 -0.899784,50.3745 -0.0398253,51.0377 0.820134,51.7008 1.73536,52.289 2.69581,52.7958 3.65625,53.3025 4.65837,53.726 5.69116,54.0616 6.72395,54.3972 7.78361,54.6436 8.8585,54.7981 9.93339,54.9527 11.0196,55.0148 12.105,54.9838 13.1905,54.9528 14.2714,54.8288 15.3357,54.6131 16.4,54.3974 17.4439,54.0909 18.4558,53.6969 19.4678,53.303 20.4441,52.8229 21.374,52.2622 22.304,51.7014 23.1841,51.0619 24.0048,50.3508 24.8255,49.6396 25.5838,48.8594 26.2712,48.0188 26.9586,47.1781 27.5727,46.28 28.1067,45.3345 28.6407,44.3889 29.0926,43.3993 29.4575,42.3765 29.8225,41.3537 30.099,40.3015 30.2842,39.2315 30.4694,38.1614 30.5625,37.0775 30.5625,35.9915 30.5625,35.9915 11.5625,35.9915 11.5625,35.9915"/>
<ellipse fill="none" stroke="black" cx="11.5625" cy="35.9915" rx="19" ry="19"/>
</g>
<!-- 0&#45;&gt;1 -->
<g id="edge1" class="edge"><title>0&#45;&gt;1</title>
<path fill="none" stroke="black" d="M12.2554,-30.8704C12.1423,-19.9525 11.9215,1.34802 11.7595,16.9844"/>
</g>
<!-- 3 -->
<g id="node4" class="node"><title>3</title>
<ellipse fill="olivedrab" stroke="black" cx="-13.5065" cy="-82.4709" rx="2.5" ry="2.5"/>
</g>
<!-- 0&#45;&gt;3 -->
<g id="edge2" class="edge"><title>0&#45;&gt;3</title>
<path fill="none" stroke="black" d="M8.73663,-44.1501C3.96015,-52.3791 -4.4587,-66.8833 -9.45592,-75.4926"/>
<polygon fill="black" stroke="black" points="-11.0655,-74.7796 -12.0621,-79.9825 -8.03848,-76.5367 -11.0655,-74.7796"/>
<text text-anchor="middle" x="-23.3596" y="-63.2213" font-family="monospace" font-size="12.00">H1755Y</text>
</g>
<!-- 9 -->
<g id="node10" class="node"><title>9</title>
<ellipse fill="olivedrab" stroke="black" cx="60.5385" cy="-52.2098" rx="3.5" ry="3.5"/>
</g>
<!-- 0&#45;&gt;9 -->
<g id="edge3" class="edge"><title>0&#45;&gt;9</title>
<path fill="none" stroke="black" d="M19.4424,-40.0637C29.9192,-43.1601 49.1091,-48.8318 57.0033,-51.1649"/>
</g>
<!-- 4 -->
<g id="node5" class="node"><title>4</title>
<ellipse fill="olivedrab" stroke="black" cx="-59.1941" cy="33.8747" rx="2.5" ry="2.5"/>
</g>
<!-- 1&#45;&gt;4 -->
<g id="edge8" class="edge"><title>1&#45;&gt;4</title>
<path fill="none" stroke="black" d="M-7.77206,35.4131C-24.7937,34.9038 -48.1017,34.2065 -56.2438,33.9629"/>
</g>
<!-- 5 -->
<g id="node6" class="node"><title>5</title>
<ellipse fill="olivedrab" stroke="black" cx="77.9373" cy="-4.2655" rx="5.5" ry="5.5"/>
</g>
<!-- 1&#45;&gt;5 -->
<g id="edge9" class="edge"><title>1&#45;&gt;5</title>
<path fill="none" stroke="black" d="M27.9697,26.0404C42.8649,17.0063 63.8799,4.26043 73.1854,-1.38345"/>
</g>
<!-- 6 -->
<g id="node7" class="node"><title>6</title>
<ellipse fill="#1874cd" stroke="black" cx="63.6098" cy="66.5054" rx="2.5" ry="2.5"/>
</g>
<!-- 1&#45;&gt;6 -->
<g id="edge10" class="edge"><title>1&#45;&gt;6</title>
<path fill="none" stroke="black" d="M28.0306,45.6463C40.1815,52.7701 55.5601,61.7861 61.3063,65.1549"/>
</g>
<!-- 10 -->
<g id="node11" class="node"><title>10</title>
<ellipse fill="olivedrab" stroke="black" cx="-41.5116" cy="69.6033" rx="2.5" ry="2.5"/>
</g>
<!-- 1&#45;&gt;10 -->
<g id="edge11" class="edge"><title>1&#45;&gt;10</title>
<path fill="none" stroke="black" d="M-4.64988,46.2588C-17.0876,54.1356 -33.1103,64.2827 -39.1063,68.08"/>
</g>
<!-- 11 -->
<g id="node12" class="node"><title>11</title>
<ellipse fill="olivedrab" stroke="black" cx="-41.3494" cy="-1.30783" rx="2.5" ry="2.5"/>
</g>
<!-- 1&#45;&gt;11 -->
<g id="edge12" class="edge"><title>1&#45;&gt;11</title>
<path fill="none" stroke="black" d="M-4.02664,25.0022C-16.7079,16.0628 -33.4209,4.28119 -39.2425,0.177362"/>
</g>
<!-- anon_1_2_0 -->
<g id="node13" class="node"><title>anon_1_2_0</title>
<ellipse fill="white" stroke="black" cx="15.1466" cy="105.032" rx="1" ry="1"/>
</g>
<!-- 1&#45;&gt;anon_1_2_0 -->
<g id="edge4" class="edge"><title>1&#45;&gt;anon_1_2_0</title>
<path fill="none" stroke="black" d="M12.5608,55.2231C13.4888,73.0979 14.7725,97.8265 15.0789,103.729"/>
</g>
<!-- 2 -->
<g id="node3" class="node"><title>2</title>
<ellipse fill="olivedrab" stroke="black" cx="19.5548" cy="225.126" rx="2.5" ry="2.5"/>
</g>
<!-- 7 -->
<g id="node8" class="node"><title>7</title>
<ellipse fill="olivedrab" stroke="black" cx="124.031" cy="15.8968" rx="2.5" ry="2.5"/>
</g>
<!-- 5&#45;&gt;7 -->
<g id="edge13" class="edge"><title>5&#45;&gt;7</title>
<path fill="none" stroke="black" d="M83.2248,-1.95264C91.5278,1.6793 107.634,8.72447 116.936,12.7932"/>
<polygon fill="black" stroke="black" points="117.838,11.2777 121.717,14.8848 116.435,14.4843 117.838,11.2777"/>
<text text-anchor="middle" x="81.0802" y="15.0203" font-family="monospace" font-size="12.00">K251R</text>
</g>
<!-- 8 -->
<g id="node9" class="node"><title>8</title>
<ellipse fill="olivedrab" stroke="black" cx="119.319" cy="-35.2612" rx="3.5" ry="3.5"/>
</g>
<!-- 5&#45;&gt;8 -->
<g id="edge14" class="edge"><title>5&#45;&gt;8</title>
<path fill="none" stroke="black" d="M82.3658,-7.58259C90.8728,-13.9544 109.287,-27.7474 116.417,-33.0878"/>
</g>
<!-- 5&#45;&gt;9 -->
<g id="edge15" class="edge"><title>5&#45;&gt;9</title>
<path fill="none" stroke="black" stroke-dasharray="5,2" d="M75.9414,-9.76532C72.2996,-19.8007 64.681,-40.7948 61.7361,-48.9096"/>
</g>
<!-- anon_1_2_1 -->
<g id="node14" class="node"><title>anon_1_2_1</title>
<ellipse fill="white" stroke="black" cx="16.1173" cy="146.085" rx="1" ry="1"/>
</g>
<!-- anon_1_2_0&#45;&gt;anon_1_2_1 -->
<g id="edge5" class="edge"><title>anon_1_2_0&#45;&gt;anon_1_2_1</title>
<path fill="none" stroke="black" d="M15.1706,106.046C15.3013,111.578 15.9281,138.083 16.0827,144.623"/>
</g>
<!-- anon_1_2_2 -->
<g id="node15" class="node"><title>anon_1_2_2</title>
<ellipse fill="white" stroke="black" cx="16.1216" cy="185.612" rx="1" ry="1"/>
</g>
<!-- anon_1_2_1&#45;&gt;anon_1_2_2 -->
<g id="edge6" class="edge"><title>anon_1_2_1&#45;&gt;anon_1_2_2</title>
<path fill="none" stroke="black" d="M16.1174,147.4C16.1181,153.401 16.1208,178.156 16.1215,184.251"/>
</g>
<!-- anon_1_2_2&#45;&gt;2 -->
<g id="edge7" class="edge"><title>anon_1_2_2&#45;&gt;2</title>
<path fill="none" stroke="black" d="M16.2359,186.926C16.7292,192.604 18.6815,215.075 19.3381,222.632"/>
</g>
</g>
</svg>
