<?xml version="1.0" encoding="UTF-8" standalone="no"?>
<!DOCTYPE svg PUBLIC "-//W3C//DTD SVG 1.1//EN"
 "http://www.w3.org/Graphics/SVG/1.1/DTD/svg11.dtd">
<!-- Generated by graphviz version 2.38.0 (20140413.2041)
 -->
<!-- Title: %3 Pages: 1 -->
<svg width="196pt" height="321pt"
 viewBox="0.00 0.00 196.22 320.60" xmlns="http://www.w3.org/2000/svg" xmlns:xlink="http://www.w3.org/1999/xlink">
<g id="graph0" class="graph" transform="scale(1 1) rotate(0) translate(65.6941 88.9709)">
<title>%3</title>
<polygon fill="white" stroke="none" points="-65.6941,231.626 -65.6941,-88.9709 130.531,-88.9709 130.531,231.626 -65.6941,231.626"/>
<!-- 0 -->
<g id="node1" class="node"><title>0</title>
<ellipse fill="olivedrab" stroke="black" cx="12.3289" cy="-37.9613" rx="7" ry="7"/>
</g>
<!-- 1 -->
<g id="node2" class="node"><title>1</title>
<path fill="olivedrab" stroke="black" stroke-width="0.5" d="M11.5625,35.9915C11.5625,35.9915 30.5625,35.9915 30.5625,35.9915 30.5625,34.9056 30.4694,33.8216 30.2842,32.7516 30.099,31.6816 29.8225,30.6294 29.4575,29.6066 29.0926,28.5838 28.6407,27.5942 28.1067,26.6486 27.5727,25.703 26.9586,24.805 26.2712,23.9643 25.5838,23.1236 24.8255,22.3434 24.0048,21.6323 23.1841,20.9211 22.304,20.2817 21.374,19.7209 20.4441,19.1601 19.4678,18.6801 18.4558,18.2861 17.4439,17.8921 16.4,17.5856 15.3357,17.37 14.2714,17.1543 13.1905,17.0303 12.105,16.9993 11.0196,16.9683 9.93339,17.0304 8.8585,17.1849 7.78361,17.3395 6.72395,17.5859 5.69116,17.9215 4.65837,18.257 3.65625,18.6805 2.69581,19.1873 1.73536,19.6941 0.820134,20.2823 -0.0398253,20.9454 -0.899784,21.6085 -1.70131,22.3442 -2.4356,23.1442 -3.16988,23.9443 -3.83423,24.8058 -4.42133,25.7194 -5.00844,26.6329 -5.51614,27.5951 -5.93886,28.5954 -6.36159,29.5957 -6.69778,30.6304 -6.94374,31.6881 -7.1897,32.7458 -7.34453,33.8227 -7.40653,34.9068 -7.46852,35.991 -7.43746,37.0785 -7.31367,38.1574 -7.18988,39.2362 -6.97383,40.3025 -6.66788,41.3445 -6.36194,42.3864 -5.96723,43.4002 -5.48809,44.3747 -5.00895,45.3493 -4.44714,46.2809 -3.80884,47.1595 -3.17054,48.038 -2.45809,48.8602 -1.67933,49.617 -0.900566,50.3739 -0.0583502,51.0625 0.838064,51.6755 1.73448,52.2884 2.68179,52.8234 3.6696,53.2745 4.65741,53.7257 5.68207,54.0913 6.73234,54.3673 7.7826,54.6434 8.8546,54.8289 9.93656,54.9218 11.0185,55.0148 12.1065,55.0148 13.1884,54.9218 14.2704,54.8289 15.3424,54.6434 16.3926,54.3673 17.4429,54.0913 18.4676,53.7257 19.4554,53.2745 20.4432,52.8234 21.3905,52.2884 22.2869,51.6755 23.1833,51.0625 24.0255,50.3739 24.8043,49.617 24.8043,49.617 11.5625,35.9915 11.5625,35.9915"/>
<path fill="#1874cd" stroke="black" stroke-width="0.5" d="M11.5625,35.9915C11.5625,35.9915 24.8043,49.617 24.8043,49.617 25.2584,49.1757 25.6901,48.712 26.0979,48.2276 26.5057,47.7432 26.889,47.2386 27.2465,46.716 27.6039,46.1933 27.9349,45.653 28.2384,45.0973 28.5419,44.5415 28.8173,43.9709 29.0638,43.3877 29.3103,42.8044 29.5275,42.2092 29.7146,41.6042 29.9016,40.9993 30.0583,40.3853 30.1841,39.7648 30.3098,39.1442 30.4044,38.5177 30.4676,37.8876 30.5308,37.2576 30.5625,36.6247 30.5625,35.9915 30.5625,35.9915 11.5625,35.9915 11.5625,35.9915"/>
<ellipse fill="none" stroke="black" cx="11.5625" cy="35.9915" rx="19" ry="19"/>
</g>
<!-- 0&#45;&gt;1 -->
<g id="edge1" class="edge"><title>0&#45;&gt;1</title>
<path fill="none" stroke="black" d="M12.2554,-30.8704C12.1423,-19.9525 11.9215,1.34802 11.7595,16.9844"/>
</g>
<!-- 3 -->
<g id="node4" class="node"><title>3</title>
<ellipse fill="olivedrab" stroke="black" cx="-13.5065" cy="-82.4709" rx="2.5" ry="2.5"/>
</g>
<!-- 0&#45;&gt;3 -->
<g id="edge2" class="edge"><title>0&#45;&gt;3</title>
<path fill="none" stroke="black" d="M8.73663,-44.1501C3.96015,-52.3791 -4.4587,-66.8833 -9.45592,-75.4926"/>
<polygon fill="black" stroke="black" points="-11.0655,-74.7796 -12.0621,-79.9825 -8.03848,-76.5367 -11.0655,-74.7796"/>
<text text-anchor="middle" x="-23.3596" y="-63.2213" font-family="monospace" font-size="12.00">H1755Y</text>
</g>
<!-- 9 -->
<g id="node10" class="node"><title>9</title>
<ellipse fill="olivedrab" stroke="black" cx="60.5385" cy="-52.2098" rx="3.5" ry="3.5"/>
</g>
<!-- 0&#45;&gt;9 -->
<g id="edge3" class="edge"><title>0&#45;&gt;9</title>
<path fill="none" stroke="black" d="M19.4424,-40.0637C29.9192,-43.1601 49.1091,-48.8318 57.0033,-51.1649"/>
</g>
<!-- 4 -->
<g id="node5" class="node"><title>4</title>
<ellipse fill="olivedrab" stroke="black" cx="-59.1941" cy="33.8747" rx="2.5" ry="2.5"/>
</g>
<!-- 1&#45;&gt;4 -->
<g id="edge8" class="edge"><title>1&#45;&gt;4</title>
<path fill="none" stroke="black" d="M-7.77206,35.4131C-24.7937,34.9038 -48.1017,34.2065 -56.2438,33.9629"/>
</g>
<!-- 5 -->
<g id="node6" class="node"><title>5</title>
<ellipse fill="olivedrab" stroke="black" cx="77.9373" cy="-4.2655" rx="5.5" ry="5.5"/>
</g>
<!-- 1&#45;&gt;5 -->
<g id="edge9" class="edge"><title>1&#45;&gt;5</title>
<path fill="none" stroke="black" d="M27.9697,26.0404C42.8649,17.0063 63.8799,4.26043 73.1854,-1.38345"/>
</g>
<!-- 6 -->
<g id="node7" class="node"><title>6</title>
<ellipse fill="#1874cd" stroke="black" cx="63.6098" cy="66.5054" rx="2.5" ry="2.5"/>
</g>
<!-- 1&#45;&gt;6 -->
<g id="edge10" class="edge"><title>1&#45;&gt;6</title>
<path fill="none" stroke="black" d="M28.0306,45.6463C40.1815,52.7701 55.5601,61.7861 61.3063,65.1549"/>
</g>
<!-- 10 -->
<g id="node11" class="node"><title>10</title>
<ellipse fill="olivedrab" stroke="black" cx="-41.5116" cy="69.6033" rx="2.5" ry="2.5"/>
</g>
<!-- 1&#45;&gt;10 -->
<g id="edge11" class="edge"><title>1&#45;&gt;10</title>
<path fill="none" stroke="black" d="M-4.64988,46.2588C-17.0876,54.1356 -33.1103,64.2827 -39.1063,68.08"/>
</g>
<!-- 11 -->
<g id="node12" class="node"><title>11</title>
<ellipse fill="olivedrab" stroke="black" cx="-41.3494" cy="-1.30783" rx="2.5" ry="2.5"/>
</g>
<!-- 1&#45;&gt;11 -->
<g id="edge12" class="edge"><title>1&#45;&gt;11</title>
<path fill="none" stroke="black" d="M-4.02664,25.0022C-16.7079,16.0628 -33.4209,4.28119 -39.2425,0.177362"/>
</g>
<!-- anon_1_2_0 -->
<g id="node13" class="node"><title>anon_1_2_0</title>
<ellipse fill="white" stroke="black" cx="15.1466" cy="105.032" rx="1" ry="1"/>
</g>
<!-- 1&#45;&gt;anon_1_2_0 -->
<g id="edge4" class="edge"><title>1&#45;&gt;anon_1_2_0</title>
<path fill="none" stroke="black" d="M12.5608,55.2231C13.4888,73.0979 14.7725,97.8265 15.0789,103.729"/>
</g>
<!-- 2 -->
<g id="node3" class="node"><title>2</title>
<ellipse fill="olivedrab" stroke="black" cx="19.5548" cy="225.126" rx="2.5" ry="2.5"/>
</g>
<!-- 7 -->
<g id="node8" class="node"><title>7</title>
<ellipse fill="olivedrab" stroke="black" cx="124.031" cy="15.8968" rx="2.5" ry="2.5"/>
</g>
<!-- 5&#45;&gt;7 -->
<g id="edge13" class="edge"><title>5&#45;&gt;7</title>
<path fill="none" stroke="black" d="M83.2248,-1.95264C91.5278,1.6793 107.634,8.72447 116.936,12.7932"/>
<polygon fill="black" stroke="black" points="117.838,11.2777 121.717,14.8848 116.435,14.4843 117.838,11.2777"/>
<text text-anchor="middle" x="81.0802" y="15.0203" font-family="monospace" font-size="12.00">K251R</text>
</g>
<!-- 8 -->
<g id="node9" class="node"><title>8</title>
<ellipse fill="olivedrab" stroke="black" cx="119.319" cy="-35.2612" rx="3.5" ry="3.5"/>
</g>
<!-- 5&#45;&gt;8 -->
<g id="edge14" class="edge"><title>5&#45;&gt;8</title>
<path fill="none" stroke="black" d="M82.3658,-7.58259C90.8728,-13.9544 109.287,-27.7474 116.417,-33.0878"/>
</g>
<!-- 5&#45;&gt;9 -->
<g id="edge15" class="edge"><title>5&#45;&gt;9</title>
<path fill="none" stroke="black" stroke-dasharray="5,2" d="M75.9414,-9.76532C72.2996,-19.8007 64.681,-40.7948 61.7361,-48.9096"/>
</g>
<!-- anon_1_2_1 -->
<g id="node14" class="node"><title>anon_1_2_1</title>
<ellipse fill="white" stroke="black" cx="16.1173" cy="146.085" rx="1" ry="1"/>
</g>
<!-- anon_1_2_0&#45;&gt;anon_1_2_1 -->
<g id="edge5" class="edge"><title>anon_1_2_0&#45;&gt;anon_1_2_1</title>
<path fill="none" stroke="black" d="M15.1706,106.046C15.3013,111.578 15.9281,138.083 16.0827,144.623"/>
</g>
<!-- anon_1_2_2 -->
<g id="node15" class="node"><title>anon_1_2_2</title>
<ellipse fill="white" stroke="black" cx="16.1216" cy="185.612" rx="1" ry="1"/>
</g>
<!-- anon_1_2_1&#45;&gt;anon_1_2_2 -->
<g id="edge6" class="edge"><title>anon_1_2_1&#45;&gt;anon_1_2_2</title>
<path fill="none" stroke="black" d="M16.1174,147.4C16.1181,153.401 16.1208,178.156 16.1215,184.251"/>
</g>
<!-- anon_1_2_2&#45;&gt;2 -->
<g id="edge7" class="edge"><title>anon_1_2_2&#45;&gt;2</title>
<path fill="none" stroke="black" d="M16.2359,186.926C16.7292,192.604 18.6815,215.075 19.3381,222.632"/>
</g>
</g>
</svg>
