<?xml version="1.0" encoding="UTF-8" standalone="no"?>
<!DOCTYPE svg PUBLIC "-//W3C//DTD SVG 1.1//EN"
 "http://www.w3.org/Graphics/SVG/1.1/DTD/svg11.dtd">
<!-- Generated by graphviz version 2.38.0 (20140413.2041)
 -->
<!-- Title: %3 Pages: 1 -->
<svg width="201pt" height="283pt"
 viewBox="0.00 0.00 201.31 282.97" xmlns="http://www.w3.org/2000/svg" xmlns:xlink="http://www.w3.org/1999/xlink">
<g id="graph0" class="graph" transform="scale(1 1) rotate(0) translate(40.8329 203.272)">
<title>%3</title>
<polygon fill="white" stroke="none" points="-40.8329,79.7021 -40.8329,-203.272 160.475,-203.272 160.475,79.7021 -40.8329,79.7021"/>
<!-- 0 -->
<g id="node1" class="node"><title>0</title>
<ellipse fill="palegreen" stroke="black" cx="79.3783" cy="60.21" rx="2.5" ry="2.5"/>
</g>
<!-- 1 -->
<g id="node2" class="node"><title>1</title>
<ellipse fill="palegreen" stroke="black" cx="60.9455" cy="-12.4813" rx="23.5" ry="23.5"/>
</g>
<!-- 0&#45;&gt;1 -->
<g id="edge1" class="edge"><title>0&#45;&gt;1</title>
<path fill="none" stroke="black" d="M78.6782,57.4492C76.7448,49.8248 71.1849,27.8985 66.8007,10.6092"/>
</g>
<!-- 2 -->
<g id="node3" class="node"><title>2</title>
<ellipse fill="palegreen" stroke="black" cx="52.1682" cy="44.8805" rx="2.5" ry="2.5"/>
</g>
<!-- 1&#45;&gt;2 -->
<g id="edge2" class="edge"><title>1&#45;&gt;2</title>
<path fill="none" stroke="black" d="M57.3755,10.8499C55.515,23.0088 53.451,36.4975 52.5857,42.1524"/>
</g>
<!-- 3 -->
<g id="node4" class="node"><title>3</title>
<ellipse fill="palegreen" stroke="black" cx="24.1267" cy="-81.9141" rx="2.5" ry="2.5"/>
</g>
<!-- 1&#45;&gt;3 -->
<g id="edge3" class="edge"><title>1&#45;&gt;3</title>
<path fill="none" stroke="black" d="M49.8987,-33.3134C40.9175,-50.2501 29.1372,-72.4653 25.353,-79.6015"/>
</g>
<!-- 5 -->
<g id="node6" class="node"><title>5</title>
<ellipse fill="palegreen" stroke="black" cx="-21.345" cy="-32.3337" rx="3.5" ry="3.5"/>
</g>
<!-- 1&#45;&gt;5 -->
<g id="edge6" class="edge"><title>1&#45;&gt;5</title>
<path fill="none" stroke="black" d="M38.023,-18.0113C21.1849,-22.0734 -0.755627,-27.3665 -12.6895,-30.2455"/>
<polygon fill="black" stroke="black" points="-13.2277,-28.5751 -17.6779,-31.449 -12.4069,-31.9775 -13.2277,-28.5751"/>
<text text-anchor="middle" x="-6.33323" y="-14.5284" font-family="monospace" font-size="12.00">I492N</text>
</g>
<!-- 7 -->
<g id="node8" class="node"><title>7</title>
<ellipse fill="palegreen" stroke="black" cx="14.4595" cy="61.7682" rx="6" ry="6"/>
</g>
<!-- 1&#45;&gt;7 -->
<g id="edge7" class="edge"><title>1&#45;&gt;7</title>
<path fill="none" stroke="black" d="M48.243,7.80772C37.9203,24.2957 24.0784,46.4045 17.8027,56.4284"/>
</g>
<!-- 8 -->
<g id="node9" class="node"><title>8</title>
<ellipse fill="palegreen" stroke="black" cx="55.7752" cy="-67.7855" rx="2.5" ry="2.5"/>
</g>
<!-- 1&#45;&gt;8 -->
<g id="edge8" class="edge"><title>1&#45;&gt;8</title>
<path fill="none" stroke="black" d="M58.7528,-35.9353C57.674,-47.4757 56.5017,-60.0149 56.0114,-65.2587"/>
</g>
<!-- 9 -->
<g id="node10" class="node"><title>9</title>
<ellipse fill="palegreen" stroke="black" cx="114.127" cy="9.27668" rx="2.5" ry="2.5"/>
</g>
<!-- 1&#45;&gt;9 -->
<g id="edge9" class="edge"><title>1&#45;&gt;9</title>
<path fill="none" stroke="black" d="M82.8836,-3.50587C94.0997,1.08289 106.456,6.13801 111.631,8.25553"/>
</g>
<!-- 10 -->
<g id="node11" class="node"><title>10</title>
<ellipse fill="palegreen" stroke="black" cx="-11.2188" cy="29.1458" rx="3.5" ry="3.5"/>
</g>
<!-- 1&#45;&gt;10 -->
<g id="edge10" class="edge"><title>1&#45;&gt;10</title>
<path fill="none" stroke="black" d="M40.4591,-0.663978C23.2912,9.23915 0.290277,22.5069 -8.03954,27.3119"/>
</g>
<!-- 11 -->
<g id="node12" class="node"><title>11</title>
<ellipse fill="palegreen" stroke="black" cx="0.191536" cy="-60.0656" rx="2.5" ry="2.5"/>
</g>
<!-- 1&#45;&gt;11 -->
<g id="edge11" class="edge"><title>1&#45;&gt;11</title>
<path fill="none" stroke="black" d="M42.3872,-27.0167C27.5914,-38.6052 8.36374,-53.6649 2.19131,-58.4993"/>
</g>
<!-- 13 -->
<g id="node14" class="node"><title>13</title>
<ellipse fill="palegreen" stroke="black" cx="116.385" cy="-40.6511" rx="2.5" ry="2.5"/>
</g>
<!-- 1&#45;&gt;13 -->
<g id="edge16" class="edge"><title>1&#45;&gt;13</title>
<path fill="none" stroke="black" d="M81.9048,-23.1311C91.487,-28 102.217,-33.4521 109.124,-36.9617"/>
<polygon fill="black" stroke="black" points="108.667,-38.6926 113.918,-39.3975 110.253,-35.5723 108.667,-38.6926"/>
<text text-anchor="middle" x="114.514" y="-20.4464" font-family="monospace" font-size="12.00">M925L</text>
</g>
<!-- 14 -->
<g id="node15" class="node"><title>14</title>
<ellipse fill="palegreen" stroke="black" cx="5.58786" cy="-9.50796" rx="2.5" ry="2.5"/>
</g>
<!-- 1&#45;&gt;14 -->
<g id="edge17" class="edge"><title>1&#45;&gt;14</title>
<path fill="none" stroke="black" d="M37.4689,-11.2203C25.9173,-10.5999 13.366,-9.92574 8.11715,-9.64381"/>
</g>
<!-- 15 -->
<g id="node16" class="node"><title>15</title>
<ellipse fill="palegreen" stroke="black" cx="140.949" cy="-15.4114" rx="2.5" ry="2.5"/>
</g>
<!-- 1&#45;&gt;15 -->
<g id="edge18" class="edge"><title>1&#45;&gt;15</title>
<path fill="none" stroke="black" d="M84.5166,-13.3446C104.06,-14.0603 129.935,-15.008 138.253,-15.3126"/>
</g>
<!-- anon_1_4_0 -->
<g id="node17" class="node"><title>anon_1_4_0</title>
<ellipse fill="white" stroke="black" cx="124.168" cy="46.277" rx="1" ry="1"/>
</g>
<!-- 1&#45;&gt;anon_1_4_0 -->
<g id="edge4" class="edge"><title>1&#45;&gt;anon_1_4_0</title>
<path fill="none" stroke="black" d="M78.2214,3.57466C94.6006,18.7972 117.494,40.0743 122.962,45.1557"/>
</g>
<!-- anon_1_12_0 -->
<g id="node18" class="node"><title>anon_1_12_0</title>
<ellipse fill="white" stroke="black" cx="99.3214" cy="-86.6121" rx="1" ry="1"/>
</g>
<!-- 1&#45;&gt;anon_1_12_0 -->
<g id="edge12" class="edge"><title>1&#45;&gt;anon_1_12_0</title>
<path fill="none" stroke="black" d="M71.8399,-33.5259C81.7673,-52.7027 95.3623,-78.9642 98.6059,-85.2299"/>
</g>
<!-- 4 -->
<g id="node5" class="node"><title>4</title>
<ellipse fill="palegreen" stroke="black" cx="153.975" cy="73.2021" rx="2.5" ry="2.5"/>
</g>
<!-- 6 -->
<g id="node7" class="node"><title>6</title>
<ellipse fill="palegreen" stroke="black" cx="-33.3329" cy="71.3364" rx="3.5" ry="3.5"/>
</g>
<!-- 6&#45;&gt;7 -->
<g id="edge19" class="edge"><title>6&#45;&gt;7</title>
<path fill="none" stroke="black" d="M-29.8958,70.6482C-21.8482,69.0371 -1.6994,65.0033 8.43686,62.974"/>
</g>
<!-- 6&#45;&gt;10 -->
<g id="edge20" class="edge"><title>6&#45;&gt;10</title>
<path fill="none" stroke="black" stroke-dasharray="5,2" d="M-31.5976,68.0257C-27.4434,60.1 -16.9692,40.1168 -12.8855,32.3256"/>
</g>
<!-- 12 -->
<g id="node13" class="node"><title>12</title>
<ellipse fill="palegreen" stroke="black" cx="152.363" cy="-196.772" rx="2.5" ry="2.5"/>
</g>
<!-- anon_1_4_0&#45;&gt;4 -->
<g id="edge5" class="edge"><title>anon_1_4_0&#45;&gt;4</title>
<path fill="none" stroke="black" d="M125.449,47.4339C130.084,51.6212 146.019,66.0152 151.832,71.2657"/>
</g>
<!-- anon_1_12_1 -->
<g id="node19" class="node"><title>anon_1_12_1</title>
<ellipse fill="white" stroke="black" cx="118.126" cy="-124.437" rx="1" ry="1"/>
</g>
<!-- anon_1_12_0&#45;&gt;anon_1_12_1 -->
<g id="edge13" class="edge"><title>anon_1_12_0&#45;&gt;anon_1_12_1</title>
<path fill="none" stroke="black" d="M99.7863,-87.5471C102.32,-92.6437 114.461,-117.065 117.457,-123.091"/>
</g>
<!-- anon_1_12_2 -->
<g id="node20" class="node"><title>anon_1_12_2</title>
<ellipse fill="white" stroke="black" cx="135.469" cy="-160.793" rx="1" ry="1"/>
</g>
<!-- anon_1_12_1&#45;&gt;anon_1_12_2 -->
<g id="edge14" class="edge"><title>anon_1_12_1&#45;&gt;anon_1_12_2</title>
<path fill="none" stroke="black" d="M118.872,-125.999C121.776,-132.088 132.305,-154.161 134.892,-159.584"/>
</g>
<!-- anon_1_12_2&#45;&gt;12 -->
<g id="edge15" class="edge"><title>anon_1_12_2&#45;&gt;12</title>
<path fill="none" stroke="black" d="M136.195,-162.339C138.822,-167.935 147.854,-187.169 151.148,-194.185"/>
</g>
</g>
</svg>
