<?xml version="1.0" encoding="UTF-8" standalone="no"?>
<!DOCTYPE svg PUBLIC "-//W3C//DTD SVG 1.1//EN"
 "http://www.w3.org/Graphics/SVG/1.1/DTD/svg11.dtd">
<!-- Generated by graphviz version 2.38.0 (20140413.2041)
 -->
<!-- Title: %3 Pages: 1 -->
<svg width="276pt" height="289pt"
 viewBox="0.00 0.00 276.02 289.10" xmlns="http://www.w3.org/2000/svg" xmlns:xlink="http://www.w3.org/1999/xlink">
<g id="graph0" class="graph" transform="scale(1 1) rotate(0) translate(112.686 180.541)">
<title>%3</title>
<polygon fill="white" stroke="none" points="-112.686,108.558 -112.686,-180.541 163.337,-180.541 163.337,108.558 -112.686,108.558"/>
<!-- 0 -->
<g id="node1" class="node"><title>0</title>
<path fill="palegreen" stroke="black" stroke-width="0.5" d="M8.27526,-28.5039C8.27526,-28.5039 37.2753,-28.5039 37.2753,-28.5039 37.2753,-29.6634 37.2057,-30.8218 37.067,-31.9729 36.9283,-33.1241 36.7207,-34.2659 36.4453,-35.3921 36.1699,-36.5184 35.8272,-37.6272 35.4191,-38.7124 35.0109,-39.7976 34.5381,-40.8574 34.003,-41.8861 33.468,-42.9147 32.8718,-43.9103 32.2175,-44.8676 31.5633,-45.8248 30.8522,-46.742 30.0882,-47.6141 29.3241,-48.4862 28.5085,-49.3117 27.6456,-50.0861 26.7827,-50.8606 25.8741,-51.5826 24.9248,-52.2483 23.9755,-52.9139 22.9871,-53.5221 21.9649,-54.0694 20.9428,-54.6167 19.8887,-55.1023 18.8085,-55.5234 17.7282,-55.9445 16.6236,-56.3005 15.5007,-56.5894 14.3778,-56.8783 13.2386,-57.0995 12.0892,-57.252 10.9399,-57.4045 9.78236,-57.4879 8.62299,-57.5018 7.46361,-57.5157 6.30444,-57.4601 5.15173,-57.3352 3.99902,-57.2103 2.85483,-57.0164 1.72533,-56.7546 0.595831,-56.4927 -0.516946,-56.1633 -1.60701,-55.7682 -2.69707,-55.3731 -3.76246,-54.913 -4.79743,-54.3903 -5.8324,-53.8676 -6.8351,-53.2834 -7.80012,-52.6407 -8.76514,-51.998 -9.69074,-51.2979 -10.572,-50.5444 -11.4532,-49.7909 -12.2884,-48.9852 -13.0731,-48.1316 -13.8579,-47.2781 -14.5907,-46.3783 -15.2677,-45.437 -15.9447,-44.4957 -16.5647,-43.5147 -17.1242,-42.4992 -17.6838,-41.4837 -18.1819,-40.4355 -18.616,-39.3604 -19.05,-38.2852 -19.4192,-37.185 -19.7215,-36.0656 -20.0239,-34.9463 -20.2588,-33.8098 -20.425,-32.6623 -20.5913,-31.5149 -20.6886,-30.3585 -20.7164,-29.1993 -20.7442,-28.0402 -20.7025,-26.8805 -20.5914,-25.7263 -20.4804,-24.5722 -20.3002,-23.4258 -20.0519,-22.2932 -19.8036,-21.1607 -19.4876,-20.044 -19.1056,-18.9493 -18.7235,-17.8546 -18.2762,-16.7837 -17.766,-15.7426 -17.2558,-14.7014 -16.6836,-13.6918 -16.0525,-12.7191 -15.4214,-11.7465 -14.7325,-10.8125 -13.9896,-9.92235 -13.9896,-9.92235 8.27526,-28.5039 8.27526,-28.5039"/>
<path fill="#787878" stroke="black" stroke-width="0.5" d="M8.27526,-28.5039C8.27526,-28.5039 -13.9896,-9.92235 -13.9896,-9.92235 -13.0422,-8.78716 -12.0094,-7.72608 -10.9002,-6.74841 -9.79096,-5.77074 -8.60859,-4.87932 -7.36341,-4.08197 -6.11824,-3.28463 -4.81391,-2.58367 -3.46184,-1.98525 -2.10976,-1.38682 -0.713897,-0.892678 0.713541,-0.507138 2.14098,-0.121598 3.59581,0.15421 5.06531,0.317871 6.53482,0.481533 8.01468,0.532569 9.49197,0.470534 10.9693,0.4085 12.4396,0.233575 13.8902,-0.0527092 15.3408,-0.338993 16.7674,-0.735799 18.1575,-1.23965 19.5476,-1.74351 20.8971,-2.35294 22.1943,-3.06261 23.4914,-3.77228 24.7324,-4.58012 25.9063,-5.47905 27.0803,-6.37799 28.1838,-7.36539 29.2071,-8.43261 30.2305,-9.49984 31.1707,-10.6438 32.0196,-11.8544 32.8685,-13.065 33.6235,-14.3388 34.2782,-15.6646 34.9328,-16.9903 35.4851,-18.3642 35.9301,-19.7743 36.3752,-21.1843 36.7118,-22.6262 36.937,-24.0876 37.1622,-25.5489 37.2753,-27.0253 37.2753,-28.5039 37.2753,-28.5039 8.27526,-28.5039 8.27526,-28.5039"/>
<ellipse fill="none" stroke="black" cx="8.27526" cy="-28.5039" rx="29" ry="29"/>
</g>
<!-- 1 -->
<g id="node2" class="node"><title>1</title>
<ellipse fill="#787878" stroke="black" cx="-53.302" cy="-122.039" rx="8" ry="8"/>
</g>
<!-- 0&#45;&gt;1 -->
<g id="edge1" class="edge"><title>0&#45;&gt;1</title>
<path fill="none" stroke="black" d="M-7.90344,-53.0791C-21.5867,-73.8637 -40.2817,-102.261 -48.7741,-115.161"/>
</g>
<!-- 4 -->
<g id="node5" class="node"><title>4</title>
<ellipse fill="#787878" stroke="black" cx="46.9868" cy="-16.2946" rx="2.5" ry="2.5"/>
</g>
<!-- 0&#45;&gt;4 -->
<g id="edge4" class="edge"><title>0&#45;&gt;4</title>
<path fill="none" stroke="black" d="M35.9972,-19.7606C39.4875,-18.6598 42.5284,-17.7007 44.5211,-17.0722"/>
</g>
<!-- 5 -->
<g id="node6" class="node"><title>5</title>
<ellipse fill="#787878" stroke="black" cx="-15.6452" cy="-73.5504" rx="2.5" ry="2.5"/>
</g>
<!-- 0&#45;&gt;5 -->
<g id="edge5" class="edge"><title>0&#45;&gt;5</title>
<path fill="none" stroke="black" d="M-5.36195,-54.1852C-9.0551,-61.1401 -12.5306,-67.6851 -14.3422,-71.0965"/>
</g>
<!-- 6 -->
<g id="node7" class="node"><title>6</title>
<ellipse fill="#787878" stroke="black" cx="-64.2048" cy="14.4091" rx="2.5" ry="2.5"/>
</g>
<!-- 0&#45;&gt;6 -->
<g id="edge6" class="edge"><title>0&#45;&gt;6</title>
<path fill="none" stroke="black" d="M-17.0748,-13.495C-34.3835,-3.24707 -55.346,9.16414 -62.0406,13.1278"/>
</g>
<!-- 8 -->
<g id="node9" class="node"><title>8</title>
<ellipse fill="palegreen" stroke="black" cx="107.551" cy="14.988" rx="9" ry="9"/>
</g>
<!-- 0&#45;&gt;8 -->
<g id="edge7" class="edge"><title>0&#45;&gt;8</title>
<path fill="none" stroke="black" d="M34.8793,-16.8489C56.2451,-7.48871 84.9266,5.07642 99.0143,11.2481"/>
</g>
<!-- 9 -->
<g id="node10" class="node"><title>9</title>
<ellipse fill="palegreen" stroke="black" cx="66.7923" cy="-5.64226" rx="2.5" ry="2.5"/>
</g>
<!-- 0&#45;&gt;9 -->
<g id="edge8" class="edge"><title>0&#45;&gt;9</title>
<path fill="none" stroke="black" d="M35.478,-17.8762C47.1778,-13.3053 59.3182,-8.56228 64.3663,-6.59008"/>
</g>
<!-- 11 -->
<g id="node12" class="node"><title>11</title>
<ellipse fill="palegreen" stroke="black" cx="-25.4126" cy="46.6117" rx="2.5" ry="2.5"/>
</g>
<!-- 0&#45;&gt;11 -->
<g id="edge9" class="edge"><title>0&#45;&gt;11</title>
<path fill="none" stroke="black" d="M-3.69666,-1.80946C-10.2732,12.8547 -17.934,29.9364 -22.1723,39.3868"/>
<polygon fill="black" stroke="black" points="-20.5954,40.1472 -24.2383,43.9933 -23.7889,38.715 -20.5954,40.1472"/>
<text text-anchor="middle" x="-35.9345" y="15.3887" font-family="monospace" font-size="12.00">F1529L</text>
</g>
<!-- 12 -->
<g id="node13" class="node"><title>12</title>
<ellipse fill="palegreen" stroke="black" cx="73.3723" cy="-102.416" rx="2.5" ry="2.5"/>
</g>
<!-- 0&#45;&gt;12 -->
<g id="edge10" class="edge"><title>0&#45;&gt;12</title>
<path fill="none" stroke="black" d="M27.4544,-50.2802C43.6561,-68.6757 65.207,-93.1449 71.5461,-100.342"/>
</g>
<!-- anon_0_2_0 -->
<g id="node15" class="node"><title>anon_0_2_0</title>
<ellipse fill="white" stroke="black" cx="-29.2832" cy="-91.8593" rx="1" ry="1"/>
</g>
<!-- 0&#45;&gt;anon_0_2_0 -->
<g id="edge2" class="edge"><title>0&#45;&gt;anon_0_2_0</title>
<path fill="none" stroke="black" d="M-6.56882,-53.5436C-15.7548,-69.0389 -26.256,-86.7529 -28.7377,-90.9392"/>
</g>
<!-- 3 -->
<g id="node4" class="node"><title>3</title>
<ellipse fill="#787878" stroke="black" cx="-106.186" cy="-122.849" rx="2.5" ry="2.5"/>
</g>
<!-- 1&#45;&gt;3 -->
<g id="edge11" class="edge"><title>1&#45;&gt;3</title>
<path fill="none" stroke="black" d="M-61.5651,-122.165C-73.6498,-122.35 -95.5533,-122.686 -103.342,-122.805"/>
</g>
<!-- 7 -->
<g id="node8" class="node"><title>7</title>
<ellipse fill="#787878" stroke="black" cx="-41.0602" cy="-174.041" rx="2.5" ry="2.5"/>
</g>
<!-- 1&#45;&gt;7 -->
<g id="edge12" class="edge"><title>1&#45;&gt;7</title>
<path fill="none" stroke="black" d="M-51.3892,-130.164C-48.5918,-142.048 -43.5214,-163.586 -41.7184,-171.245"/>
</g>
<!-- 2 -->
<g id="node3" class="node"><title>2</title>
<ellipse fill="#787878" stroke="black" cx="-6.06155" cy="-60.7491" rx="2.5" ry="2.5"/>
</g>
<!-- 13 -->
<g id="node14" class="node"><title>13</title>
<ellipse fill="palegreen" stroke="black" cx="156.837" cy="-10.4871" rx="2.5" ry="2.5"/>
</g>
<!-- 8&#45;&gt;13 -->
<g id="edge15" class="edge"><title>8&#45;&gt;13</title>
<path fill="none" stroke="black" d="M115.69,10.7813C127.063,4.90233 147.118,-5.4638 154.239,-9.14441"/>
</g>
<!-- anon_8_10_0 -->
<g id="node16" class="node"><title>anon_8_10_0</title>
<ellipse fill="white" stroke="black" cx="120.234" cy="65.9757" rx="1" ry="1"/>
</g>
<!-- 8&#45;&gt;anon_8_10_0 -->
<g id="edge13" class="edge"><title>8&#45;&gt;anon_8_10_0</title>
<path fill="none" stroke="black" d="M109.76,23.8694C112.94,36.6516 118.574,59.3026 119.933,64.7656"/>
</g>
<!-- 10 -->
<g id="node11" class="node"><title>10</title>
<ellipse fill="palegreen" stroke="black" cx="137.066" cy="102.058" rx="2.5" ry="2.5"/>
</g>
<!-- anon_0_2_0&#45;&gt;2 -->
<g id="edge3" class="edge"><title>anon_0_2_0&#45;&gt;2</title>
<path fill="none" stroke="black" d="M-28.2854,-90.5225C-24.674,-85.6843 -12.2599,-69.0531 -7.73159,-62.9865"/>
</g>
<!-- anon_8_10_0&#45;&gt;10 -->
<g id="edge14" class="edge"><title>anon_8_10_0&#45;&gt;10</title>
<path fill="none" stroke="black" d="M120.957,67.5261C123.575,73.1376 132.573,92.4272 135.855,99.4634"/>
</g>
</g>
</svg>
