<?xml version="1.0" encoding="UTF-8" standalone="no"?>
<!DOCTYPE svg PUBLIC "-//W3C//DTD SVG 1.1//EN"
 "http://www.w3.org/Graphics/SVG/1.1/DTD/svg11.dtd">
<!-- Generated by graphviz version 2.38.0 (20140413.2041)
 -->
<!-- Title: %3 Pages: 1 -->
<svg width="545pt" height="593pt"
 viewBox="0.00 0.00 545.12 592.84" xmlns="http://www.w3.org/2000/svg" xmlns:xlink="http://www.w3.org/1999/xlink">
<g id="graph0" class="graph" transform="scale(1 1) rotate(0) translate(252.423 240.635)">
<title>%3</title>
<polygon fill="white" stroke="none" points="-252.423,352.205 -252.423,-240.635 292.697,-240.635 292.697,352.205 -252.423,352.205"/>
<!-- 0 -->
<g id="node1" class="node"><title>0</title>
<path fill="deepskyblue" stroke="black" stroke-width="0.5" d="M-65.2019,-156.929C-65.2019,-156.929 -39.7019,-156.929 -39.7019,-156.929 -39.7019,-158.231 -39.8017,-159.532 -40.0004,-160.819 -40.1991,-162.106 -40.4961,-163.376 -40.8889,-164.618 -41.2816,-165.86 -41.7689,-167.07 -42.3465,-168.237 -42.9241,-169.404 -43.5902,-170.526 -44.3391,-171.591 -45.088,-172.657 -45.9175,-173.664 -46.8202,-174.603 -47.7229,-175.541 -48.6962,-176.41 -49.7315,-177.2 -50.7669,-177.99 -51.8613,-178.7 -53.0051,-179.323 -54.1489,-179.946 -55.3387,-180.48 -56.5641,-180.921 -57.7896,-181.362 -59.047,-181.709 -60.3254,-181.958 -61.6038,-182.207 -62.8994,-182.358 -64.2008,-182.409 -65.5023,-182.46 -66.8057,-182.412 -68.0997,-182.264 -69.3937,-182.116 -70.6744,-181.869 -71.9307,-181.525 -73.187,-181.181 -74.4151,-180.742 -75.6042,-180.211 -76.7934,-179.679 -77.94,-179.058 -79.0342,-178.351 -80.1284,-177.645 -81.1668,-176.855 -82.1404,-175.99 -83.114,-175.125 -84.0198,-174.187 -84.85,-173.183 -85.6802,-172.18 -86.4323,-171.114 -87.0997,-169.995 -87.7671,-168.877 -88.3478,-167.709 -88.8368,-166.502 -89.3257,-165.295 -89.7215,-164.052 -90.0206,-162.784 -90.3196,-161.517 -90.5212,-160.228 -90.6233,-158.93 -90.7255,-157.631 -90.7281,-156.327 -90.631,-155.028 -90.5339,-153.729 -90.3375,-152.44 -90.0434,-151.171 -89.7493,-149.902 -89.3584,-148.658 -88.8742,-147.449 -88.39,-146.24 -87.8139,-145.069 -87.1509,-143.948 -86.4879,-142.827 -85.74,-141.759 -84.9137,-140.752 -84.0875,-139.745 -83.1853,-138.803 -82.2151,-137.934 -81.2449,-137.065 -80.2096,-136.272 -79.1182,-135.561 -78.0268,-134.85 -76.8826,-134.224 -75.6956,-133.688 -74.5085,-133.152 -73.2822,-132.708 -72.0273,-132.359 -70.7723,-132.011 -69.4926,-131.759 -68.1992,-131.606 -66.9058,-131.452 -65.6025,-131.399 -64.3009,-131.445 -62.9993,-131.491 -61.7031,-131.636 -60.4237,-131.88 -60.4237,-131.88 -65.2019,-156.929 -65.2019,-156.929"/>
<path fill="#98f5ff" stroke="black" stroke-width="0.5" d="M-65.2019,-156.929C-65.2019,-156.929 -60.4237,-131.88 -60.4237,-131.88 -59.7023,-132.018 -58.9871,-132.187 -58.2802,-132.386 -57.5733,-132.586 -56.8754,-132.815 -56.1883,-133.075 -55.5013,-133.335 -54.8258,-133.624 -54.1637,-133.942 -53.5016,-134.26 -52.8536,-134.606 -52.2214,-134.98 -51.5892,-135.354 -50.9735,-135.755 -50.3759,-136.182 -49.7783,-136.609 -49.1995,-137.061 -48.641,-137.538 -48.0825,-138.015 -47.5449,-138.516 -47.0297,-139.04 -46.5144,-139.563 -46.022,-140.109 -45.5539,-140.674 -45.0857,-141.24 -44.6422,-141.826 -44.2246,-142.43 -43.807,-143.035 -43.4157,-143.657 -43.0518,-144.295 -42.6879,-144.933 -42.3518,-145.586 -42.0443,-146.253 -41.7368,-146.92 -41.4583,-147.6 -41.2095,-148.291 -40.9607,-148.982 -40.7419,-149.683 -40.5536,-150.393 -40.3654,-151.103 -40.2079,-151.821 -40.0817,-152.545 -39.9554,-153.268 -39.8604,-153.997 -39.7971,-154.728 -39.7337,-155.46 -39.7019,-156.194 -39.7019,-156.929 -39.7019,-156.929 -65.2019,-156.929 -65.2019,-156.929"/>
<ellipse fill="none" stroke="black" cx="-65.2019" cy="-156.929" rx="25.5" ry="25.5"/>
<text text-anchor="middle" x="-65.2019" y="-155.629" font-family="monospace" font-size="6.00">50</text>
</g>
<!-- 24 -->
<g id="node25" class="node"><title>24</title>
<ellipse fill="deepskyblue" stroke="black" cx="-131.98" cy="-209.886" rx="3.5" ry="3.5"/>
</g>
<!-- 0&#45;&gt;24 -->
<g id="edge3" class="edge"><title>0&#45;&gt;24</title>
<path fill="none" stroke="black" d="M-85.2375,-172.818C-98.7077,-183.5 -115.649,-196.936 -124.991,-204.344"/>
<polygon fill="black" stroke="black" points="-126.087,-202.98 -128.918,-207.458 -123.913,-205.722 -126.087,-202.98"/>
<text text-anchor="middle" x="-113.114" y="-190.781" font-family="monospace" font-size="6.00">P55L</text>
</g>
<!-- 58 -->
<g id="node59" class="node"><title>58</title>
<ellipse fill="black" stroke="black" cx="-35.7222" cy="-233.135" rx="3.5" ry="3.5"/>
</g>
<!-- 0&#45;&gt;58 -->
<g id="edge4" class="edge"><title>0&#45;&gt;58</title>
<path fill="none" stroke="black" d="M-55.8744,-181.041C-50.0674,-196.052 -42.959,-214.428 -38.9244,-224.858"/>
<polygon fill="black" stroke="black" points="-40.4631,-225.731 -37.0269,-229.762 -37.1988,-224.468 -40.4631,-225.731"/>
<text text-anchor="middle" x="-68.3994" y="-198.149" font-family="monospace" font-size="6.00">2415120:T&gt;A</text>
</g>
<!-- 1 -->
<g id="node2" class="node"><title>1</title>
<ellipse fill="deepskyblue" stroke="black" cx="167.681" cy="-23.5516" rx="3.5" ry="3.5"/>
</g>
<!-- 2 -->
<g id="node3" class="node"><title>2</title>
<ellipse fill="#ff3030" stroke="black" cx="-126.263" cy="-67.47" rx="14" ry="14"/>
<text text-anchor="middle" x="-126.263" y="-66.17" font-family="monospace" font-size="6.00">15</text>
</g>
<!-- 60 -->
<g id="node61" class="node"><title>60</title>
<ellipse fill="white" stroke="black" cx="-188.524" cy="-90.8841" rx="2.5" ry="2.5"/>
</g>
<!-- 2&#45;&gt;60 -->
<g id="edge7" class="edge"><title>2&#45;&gt;60</title>
<path fill="none" stroke="black" d="M-139.467,-72.4355C-152.237,-77.2379 -171.112,-84.3362 -181.326,-88.1773"/>
<polygon fill="black" stroke="black" points="-181.952,-86.5428 -186.016,-89.9409 -180.72,-89.8189 -181.952,-86.5428"/>
<text text-anchor="middle" x="-171.896" y="-82.5064" font-family="monospace" font-size="6.00">P1874S</text>
</g>
<!-- 3 -->
<g id="node4" class="node"><title>3</title>
<path fill="#1874cd" stroke="black" stroke-width="0.5" d="M123.179,-26.0342C123.179,-26.0342 157.179,-26.0342 157.179,-26.0342 157.179,-27.3203 157.106,-28.6053 156.961,-29.8831 156.815,-31.1609 156.597,-32.4295 156.308,-33.6826 156.018,-34.9357 155.658,-36.1714 155.229,-37.3837 154.8,-38.596 154.302,-39.7829 153.738,-40.9388 153.174,-42.0948 152.546,-43.2178 151.855,-44.3024 151.164,-45.3871 150.412,-46.4317 149.602,-47.4311 148.793,-48.4306 147.927,-49.3833 147.01,-50.2847 146.093,-51.1862 145.125,-52.0348 144.112,-52.8266 143.098,-53.6184 142.041,-54.352 140.944,-55.024 139.848,-55.696 138.714,-56.3052 137.548,-56.8487 136.383,-57.3922 135.187,-57.8692 133.968,-58.2772 132.748,-58.6853 131.506,-59.0239 130.248,-59.2912 128.99,-59.5586 127.718,-59.7544 126.438,-59.8777 125.158,-60.001 123.872,-60.0515 122.586,-60.029 121.3,-60.0066 120.016,-59.9112 118.741,-59.7433 117.466,-59.5755 116.202,-59.3354 114.954,-59.0243 114.954,-59.0243 123.179,-26.0342 123.179,-26.0342"/>
<path fill="deepskyblue" stroke="black" stroke-width="0.5" d="M123.179,-26.0342C123.179,-26.0342 114.954,-59.0243 114.954,-59.0243 113.61,-58.6892 112.288,-58.2723 110.995,-57.776 109.702,-57.2796 108.44,-56.7047 107.217,-56.0544 105.994,-55.4042 104.812,-54.6798 103.678,-53.8854 102.543,-53.091 101.458,-52.2279 100.429,-51.3011 99.3995,-50.3744 98.4278,-49.3855 97.5191,-48.3402 96.6104,-47.2949 95.7664,-46.195 94.9919,-45.0468 94.2174,-43.8985 93.5138,-42.704 92.885,-41.4699 92.2562,-40.2358 91.7034,-38.9644 91.2296,-37.6629 90.7559,-36.3614 90.3622,-35.0321 90.0506,-33.6826 89.739,-32.333 89.5102,-30.9657 89.3655,-29.5882 89.2207,-28.2107 89.1602,-26.8257 89.1844,-25.4408 89.2086,-24.056 89.3173,-22.6739 89.5101,-21.3023 89.7028,-19.9308 89.9792,-18.5722 90.3377,-17.2344 90.6962,-15.8965 91.1361,-14.5818 91.655,-13.2976 92.1738,-12.0134 92.7706,-10.7621 93.4421,-9.55069 94.1136,-8.33929 94.8585,-7.17006 95.6726,-6.04952 95.6726,-6.04952 123.179,-26.0342 123.179,-26.0342"/>
<path fill="#98f5ff" stroke="black" stroke-width="0.5" d="M123.179,-26.0342C123.179,-26.0342 95.6726,-6.04952 95.6726,-6.04952 96.254,-5.24926 96.8701,-4.47475 97.5191,-3.72821 98.168,-2.98167 98.8493,-2.26381 99.5608,-1.57667 100.272,-0.889528 101.014,-0.233768 101.782,0.388741 102.551,1.01125 103.347,1.59992 104.167,2.15306 104.167,2.15306 123.179,-26.0342 123.179,-26.0342"/>
<path fill="#ff3030" stroke="black" stroke-width="0.5" d="M123.179,-26.0342C123.179,-26.0342 104.167,2.15306 104.167,2.15306 105.438,3.01061 106.766,3.78117 108.141,4.45945 109.517,5.13773 110.937,5.72217 112.391,6.20878 113.845,6.69539 115.331,7.08304 116.837,7.36909 118.344,7.65514 119.868,7.83892 121.4,7.91918 122.931,7.99944 124.466,7.97599 125.995,7.849 127.523,7.72201 129.041,7.49176 130.538,7.15984 132.035,6.82791 133.508,6.39507 134.947,5.86428 136.386,5.33349 137.787,4.70596 139.141,3.98599 140.495,3.26603 141.799,2.45527 143.044,1.55929 144.288,0.663305 145.471,-0.315861 146.583,-1.3715 147.696,-2.42713 148.735,-3.55682 149.695,-4.75283 150.655,-5.94883 151.533,-7.20841 152.323,-8.52293 153.113,-9.83745 153.813,-11.2039 154.418,-12.6129 155.023,-14.022 155.533,-15.4703 155.943,-16.9481 156.352,-18.4259 156.662,-19.9297 156.869,-21.4493 157.075,-22.9689 157.179,-24.5007 157.179,-26.0342 157.179,-26.0342 123.179,-26.0342 123.179,-26.0342"/>
<ellipse fill="none" stroke="black" cx="123.179" cy="-26.0342" rx="34" ry="34"/>
<text text-anchor="middle" x="123.179" y="-24.7342" font-family="monospace" font-size="6.00">90</text>
</g>
<!-- 3&#45;&gt;1 -->
<g id="edge5" class="edge"><title>3&#45;&gt;1</title>
<path fill="none" stroke="black" d="M157.359,-24.1274C157.85,-24.1001 158.329,-24.0734 158.795,-24.0473"/>
<polygon fill="black" stroke="black" points="159.144,-25.7807 164.039,-23.7548 158.949,-22.2861 159.144,-25.7807"/>
<text text-anchor="middle" x="179.077" y="-26.2874" font-family="monospace" font-size="6.00">2381352:C&gt;A</text>
</g>
<!-- 10 -->
<g id="node11" class="node"><title>10</title>
<ellipse fill="#ff3030" stroke="black" cx="136.575" cy="42.6531" rx="3.5" ry="3.5"/>
</g>
<!-- 3&#45;&gt;10 -->
<g id="edge9" class="edge"><title>3&#45;&gt;10</title>
<path fill="none" stroke="black" d="M129.72,7.50459C131.592,17.0994 133.479,26.7781 134.799,33.5428"/>
<polygon fill="black" stroke="black" points="136.594,33.6075 135.834,38.85 133.159,34.2775 136.594,33.6075"/>
<text text-anchor="middle" x="153.259" y="18.3237" font-family="monospace" font-size="6.00">2384174:T&gt;A</text>
</g>
<!-- 16 -->
<g id="node17" class="node"><title>16</title>
<ellipse fill="#ff3030" stroke="black" cx="199.333" cy="15.947" rx="3.5" ry="3.5"/>
</g>
<!-- 3&#45;&gt;16 -->
<g id="edge10" class="edge"><title>3&#45;&gt;16</title>
<path fill="none" stroke="black" d="M153.277,-9.44213C167.179,-1.77863 182.566,6.70385 191.569,11.667"/>
<polygon fill="black" stroke="black" points="192.539,10.2034 196.073,14.1498 190.849,13.2685 192.539,10.2034"/>
<text text-anchor="middle" x="181.923" y="-1.08754" font-family="monospace" font-size="6.00">M704V</text>
</g>
<!-- 18 -->
<g id="node19" class="node"><title>18</title>
<ellipse fill="deepskyblue" stroke="black" cx="118.722" cy="-80.7202" rx="3.5" ry="3.5"/>
</g>
<!-- 3&#45;&gt;18 -->
<g id="edge11" class="edge"><title>3&#45;&gt;18</title>
<path fill="none" stroke="black" d="M120.407,-60.0458C120.053,-64.3899 119.718,-68.4948 119.442,-71.8846"/>
<polygon fill="black" stroke="black" points="117.678,-71.9853 119.016,-77.1109 121.166,-72.2697 117.678,-71.9853"/>
<text text-anchor="middle" x="98.9244" y="-68.1652" font-family="monospace" font-size="6.00">2360189:T&gt;C</text>
</g>
<!-- 21 -->
<g id="node22" class="node"><title>21</title>
<ellipse fill="deepskyblue" stroke="black" cx="110" cy="22.9076" rx="3.5" ry="3.5"/>
</g>
<!-- 3&#45;&gt;21 -->
<g id="edge12" class="edge"><title>3&#45;&gt;21</title>
<path fill="none" stroke="black" d="M114.315,6.8822C113.603,9.52777 112.931,12.0232 112.339,14.2221"/>
<polygon fill="black" stroke="black" points="113.975,14.8761 110.985,19.249 110.595,13.9659 113.975,14.8761"/>
<text text-anchor="middle" x="92.3269" y="15.3521" font-family="monospace" font-size="6.00">2428653:T&gt;C</text>
</g>
<!-- 25 -->
<g id="node26" class="node"><title>25</title>
<ellipse fill="deepskyblue" stroke="black" cx="163.12" cy="27.9354" rx="3.5" ry="3.5"/>
</g>
<!-- 3&#45;&gt;25 -->
<g id="edge13" class="edge"><title>3&#45;&gt;25</title>
<path fill="none" stroke="black" d="M143.618,1.58298C148.915,8.74084 154.168,15.8393 157.886,20.8625"/>
<polygon fill="black" stroke="black" points="159.468,20.059 161.036,25.1192 156.655,22.1411 159.468,20.059"/>
<text text-anchor="middle" x="171.752" y="9.02273" font-family="monospace" font-size="6.00">2359582:A&gt;G</text>
</g>
<!-- 29 -->
<g id="node30" class="node"><title>29</title>
<ellipse fill="deepskyblue" stroke="black" cx="201.132" cy="-11.5261" rx="3.5" ry="3.5"/>
</g>
<!-- 3&#45;&gt;29 -->
<g id="edge14" class="edge"><title>3&#45;&gt;29</title>
<path fill="none" stroke="black" d="M156.691,-19.7973C169.833,-17.3511 183.822,-14.7476 192.519,-13.1291"/>
<polygon fill="black" stroke="black" points="193.023,-14.8154 197.618,-12.18 192.382,-11.3745 193.023,-14.8154"/>
<text text-anchor="middle" x="186.105" y="-18.6632" font-family="monospace" font-size="6.00">V1303A</text>
</g>
<!-- 30 -->
<g id="node31" class="node"><title>30</title>
<ellipse fill="deepskyblue" stroke="black" cx="128.803" cy="-128.775" rx="3.5" ry="3.5"/>
</g>
<!-- 3&#45;&gt;30 -->
<g id="edge15" class="edge"><title>3&#45;&gt;30</title>
<path fill="none" stroke="black" d="M125.052,-60.2455C126.204,-81.3038 127.595,-106.709 128.316,-119.88"/>
<polygon fill="black" stroke="black" points="126.576,-120.115 128.597,-125.012 130.071,-119.924 126.576,-120.115"/>
<text text-anchor="middle" x="105.684" y="-92.263" font-family="monospace" font-size="6.00">2421715:C&gt;T</text>
</g>
<!-- 34 -->
<g id="node35" class="node"><title>34</title>
<ellipse fill="#ff3030" stroke="black" cx="174.283" cy="-101.739" rx="3.5" ry="3.5"/>
</g>
<!-- 3&#45;&gt;34 -->
<g id="edge16" class="edge"><title>3&#45;&gt;34</title>
<path fill="none" stroke="black" d="M142.208,-54.2238C151.977,-68.6956 163.11,-85.1869 169.356,-94.4398"/>
<polygon fill="black" stroke="black" points="168.036,-95.6117 172.284,-98.7768 170.936,-93.6534 168.036,-95.6117"/>
<text text-anchor="middle" x="176.782" y="-69.5318" font-family="monospace" font-size="6.00">2361414:A&gt;C</text>
</g>
<!-- 36 -->
<g id="node37" class="node"><title>36</title>
<ellipse fill="#ff3030" stroke="black" cx="153.8" cy="-77.007" rx="3.5" ry="3.5"/>
</g>
<!-- 3&#45;&gt;36 -->
<g id="edge19" class="edge"><title>3&#45;&gt;36</title>
<path fill="none" stroke="black" d="M140.814,-55.39C143.885,-60.5021 146.828,-65.4017 149.134,-69.2398"/>
<polygon fill="black" stroke="black" points="147.76,-70.3511 151.835,-73.736 150.76,-68.5487 147.76,-70.3511"/>
<text text-anchor="middle" x="165.974" y="-64.5149" font-family="monospace" font-size="6.00">2395858:T&gt;G</text>
</g>
<!-- 41 -->
<g id="node42" class="node"><title>41</title>
<ellipse fill="#1874cd" stroke="black" cx="68.6386" cy="-48.977" rx="3.5" ry="3.5"/>
</g>
<!-- 3&#45;&gt;41 -->
<g id="edge22" class="edge"><title>3&#45;&gt;41</title>
<path fill="none" stroke="black" d="M91.7687,-39.2472C86.2987,-41.5481 81.0563,-43.7534 76.9495,-45.4809"/>
<polygon fill="black" stroke="black" points="76.0688,-43.9528 72.1385,-47.5047 77.4259,-47.179 76.0688,-43.9528"/>
<text text-anchor="middle" x="63.3591" y="-37.5641" font-family="monospace" font-size="6.00">2366965:T&gt;G</text>
</g>
<!-- 44 -->
<g id="node45" class="node"><title>44</title>
<ellipse fill="#1874cd" stroke="black" cx="194.344" cy="-55.8856" rx="3.5" ry="3.5"/>
</g>
<!-- 3&#45;&gt;44 -->
<g id="edge24" class="edge"><title>3&#45;&gt;44</title>
<path fill="none" stroke="black" d="M154.6,-39.2144C165.994,-43.9937 177.965,-49.0151 185.753,-52.2821"/>
<polygon fill="black" stroke="black" points="185.527,-54.0849 190.815,-54.4053 186.881,-50.8574 185.527,-54.0849"/>
<text text-anchor="middle" x="191.177" y="-47.9482" font-family="monospace" font-size="6.00">2392973:A&gt;G</text>
</g>
<!-- 46 -->
<g id="node47" class="node"><title>46</title>
<ellipse fill="#1874cd" stroke="black" cx="225.27" cy="-36.9575" rx="3.5" ry="3.5"/>
</g>
<!-- 3&#45;&gt;46 -->
<g id="edge27" class="edge"><title>3&#45;&gt;46</title>
<path fill="none" stroke="black" d="M157.174,-29.6715C178.099,-31.9104 203.343,-34.6114 216.432,-36.0118"/>
<polygon fill="black" stroke="black" points="216.373,-37.7654 221.531,-36.5574 216.745,-34.2853 216.373,-37.7654"/>
<text text-anchor="middle" x="207.803" y="-35.0417" font-family="monospace" font-size="6.00">2392142:G&gt;T</text>
</g>
<!-- 56 -->
<g id="node57" class="node"><title>56</title>
<ellipse fill="#98f5ff" stroke="black" cx="118.838" cy="62.0462" rx="3.5" ry="3.5"/>
</g>
<!-- 3&#45;&gt;56 -->
<g id="edge28" class="edge"><title>3&#45;&gt;56</title>
<path fill="none" stroke="black" d="M121.501,8.01996C120.695,24.3689 119.794,42.6559 119.273,53.2111"/>
<polygon fill="black" stroke="black" points="121.009,53.5516 119.015,58.4593 117.513,53.3792 121.009,53.5516"/>
<text text-anchor="middle" x="99.3871" y="35.4155" font-family="monospace" font-size="6.00">2408896:C&gt;T</text>
</g>
<!-- 59 -->
<g id="node60" class="node"><title>59</title>
<ellipse fill="black" stroke="black" cx="113.761" cy="-111.175" rx="3.5" ry="3.5"/>
</g>
<!-- 3&#45;&gt;59 -->
<g id="edge29" class="edge"><title>3&#45;&gt;59</title>
<path fill="none" stroke="black" d="M119.403,-60.1738C117.692,-75.6432 115.809,-92.6598 114.709,-102.605"/>
<polygon fill="black" stroke="black" points="112.97,-102.416 114.159,-107.578 116.448,-102.801 112.97,-102.416"/>
<text text-anchor="middle" x="96.056" y="-83.5894" font-family="monospace" font-size="6.00">2415120:T&gt;A</text>
</g>
<!-- anon_3_35_0 -->
<g id="node63" class="node"><title>anon_3_35_0</title>
<ellipse fill="white" stroke="black" cx="158.398" cy="76.6372" rx="2.5" ry="2.5"/>
</g>
<!-- 3&#45;&gt;anon_3_35_0 -->
<g id="edge17" class="edge"><title>3&#45;&gt;anon_3_35_0</title>
<path fill="none" stroke="black" d="M134.226,6.16996C141.853,28.4052 151.397,56.2285 155.868,69.2611"/>
<polygon fill="black" stroke="black" points="157.573,68.8377 157.54,74.1351 154.262,69.9734 157.573,68.8377"/>
<text text-anchor="middle" x="166.047" y="42.5155" font-family="monospace" font-size="6.00">2395098:A&gt;G</text>
</g>
<!-- anon_3_40_0 -->
<g id="node64" class="node"><title>anon_3_40_0</title>
<ellipse fill="white" stroke="black" cx="163.781" cy="-130.428" rx="2.5" ry="2.5"/>
</g>
<!-- 3&#45;&gt;anon_3_40_0 -->
<g id="edge20" class="edge"><title>3&#45;&gt;anon_3_40_0</title>
<path fill="none" stroke="black" d="M135.582,-57.9229C144.48,-80.8019 155.777,-109.848 160.955,-123.163"/>
<polygon fill="black" stroke="black" points="159.43,-124.069 162.873,-128.095 162.692,-122.8 159.43,-124.069"/>
<text text-anchor="middle" x="169.268" y="-92.7429" font-family="monospace" font-size="6.00">2360106:G&gt;A</text>
</g>
<!-- anon_3_45_0 -->
<g id="node65" class="node"><title>anon_3_45_0</title>
<ellipse fill="white" stroke="black" cx="196.003" cy="48.8844" rx="2.5" ry="2.5"/>
</g>
<!-- 3&#45;&gt;anon_3_45_0 -->
<g id="edge25" class="edge"><title>3&#45;&gt;anon_3_45_0</title>
<path fill="none" stroke="black" d="M147.024,-1.50306C162.424,14.3399 181.243,33.6995 190.425,43.1463"/>
<polygon fill="black" stroke="black" points="191.872,42.1235 194.102,46.9286 189.362,44.5631 191.872,42.1235"/>
<text text-anchor="middle" x="189.725" y="25.6216" font-family="monospace" font-size="6.00">2360304:G&gt;A</text>
</g>
<!-- 4 -->
<g id="node5" class="node"><title>4</title>
<path fill="deepskyblue" stroke="black" stroke-width="0.5" d="M-124.513,92.4775C-124.513,92.4775 -92.5128,92.4775 -92.5128,92.4775 -92.5128,91.3763 -92.5696,90.2759 -92.6831,89.1807 -92.7965,88.0854 -92.9664,86.9967 -93.1921,85.9189 -93.4178,84.8411 -93.699,83.7757 -94.0345,82.727 -94.37,81.6782 -94.7594,80.6474 -95.2012,79.6388 -95.643,78.6301 -96.1366,77.645 -96.6799,76.6872 -97.2233,75.7295 -97.8157,74.8004 -98.4548,73.9037 -99.094,73.0071 -99.779,72.144 -100.507,71.3179 -101.235,70.4919 -102.005,69.704 -102.815,68.9573 -103.624,68.2107 -104.472,67.5063 -105.353,66.847 -106.235,66.1877 -107.151,65.5744 -108.096,65.0095 -109.041,64.4446 -110.015,63.9288 -111.013,63.4643 -112.012,62.9998 -113.033,62.5871 -114.074,62.2279 -115.115,61.8687 -116.174,61.5635 -117.246,61.3134 -118.319,61.0634 -119.403,60.8689 -120.496,60.7306 -121.588,60.5924 -122.687,60.5107 -123.788,60.4857 -124.889,60.4608 -125.99,60.4927 -127.088,60.5813 -128.185,60.6699 -129.278,60.8151 -130.36,61.0163 -131.443,61.2175 -132.514,61.4744 -133.57,61.7861 -134.626,62.0978 -135.666,62.4638 -136.684,62.8826 -137.703,63.3014 -138.699,63.7726 -139.668,64.2941 -140.638,64.8156 -141.581,65.3868 -142.491,66.0055 -143.402,66.6241 -144.281,67.2894 -145.123,67.9986 -145.965,68.7078 -146.771,69.4601 -147.535,70.2523 -148.3,71.0445 -149.024,71.8757 -149.703,72.7425 -150.382,73.6093 -151.016,74.5106 -151.602,75.4427 -152.188,76.3749 -152.726,77.3367 -153.213,78.3243 -153.7,79.3118 -154.135,80.3239 -154.518,81.3564 -154.901,82.3889 -155.23,83.4405 -155.504,84.5069 -155.779,85.5734 -155.998,86.6533 -156.16,87.7423 -156.323,88.8313 -156.43,89.928 -156.48,91.028 -156.53,92.128 -156.523,93.2299 -156.459,94.3292 -156.395,95.4285 -156.275,96.5238 -156.098,97.6107 -156.098,97.6107 -124.513,92.4775 -124.513,92.4775"/>
<path fill="#98f5ff" stroke="black" stroke-width="0.5" d="M-124.513,92.4775C-124.513,92.4775 -156.098,97.6107 -156.098,97.6107 -155.866,99.0424 -155.536,100.457 -155.111,101.844 -154.687,103.231 -154.168,104.587 -153.56,105.904 -152.951,107.221 -152.254,108.494 -151.472,109.716 -150.691,110.938 -149.827,112.106 -148.888,113.211 -147.948,114.316 -146.934,115.355 -145.853,116.323 -144.772,117.29 -143.627,118.183 -142.425,118.995 -141.223,119.807 -139.967,120.536 -138.666,121.177 -137.365,121.819 -136.022,122.371 -134.646,122.831 -133.27,123.29 -131.865,123.655 -130.439,123.924 -129.014,124.193 -127.572,124.364 -126.123,124.437 -124.674,124.51 -123.223,124.484 -121.777,124.36 -120.332,124.236 -118.897,124.014 -117.482,123.696 -116.067,123.377 -114.675,122.962 -113.316,122.455 -111.957,121.947 -110.635,121.348 -109.357,120.661 -108.08,119.974 -106.85,119.201 -105.678,118.347 -104.505,117.493 -103.392,116.561 -102.346,115.556 -102.346,115.556 -124.513,92.4775 -124.513,92.4775"/>
<path fill="#ff3030" stroke="black" stroke-width="0.5" d="M-124.513,92.4775C-124.513,92.4775 -102.346,115.556 -102.346,115.556 -101.571,114.812 -100.834,114.029 -100.138,113.211 -99.4419,112.392 -98.7876,111.54 -98.1773,110.656 -97.567,109.771 -97.0017,108.857 -96.4834,107.916 -95.9651,106.975 -95.4945,106.009 -95.0734,105.02 -94.6524,104.032 -94.2813,103.023 -93.9617,101.998 -93.6421,100.972 -93.3744,99.9309 -93.1595,98.8783 -92.9446,97.8258 -92.7829,96.763 -92.6749,95.6942 -92.5669,94.6254 -92.5128,93.5518 -92.5128,92.4775 -92.5128,92.4775 -124.513,92.4775 -124.513,92.4775"/>
<ellipse fill="none" stroke="black" cx="-124.513" cy="92.4775" rx="32" ry="32"/>
<text text-anchor="middle" x="-124.513" y="93.7775" font-family="monospace" font-size="6.00">78</text>
</g>
<!-- 55 -->
<g id="node56" class="node"><title>55</title>
<ellipse fill="#98f5ff" stroke="black" cx="-216.382" cy="130.616" rx="3.5" ry="3.5"/>
</g>
<!-- 4&#45;&gt;55 -->
<g id="edge32" class="edge"><title>4&#45;&gt;55</title>
<path fill="none" stroke="black" d="M-154.087,104.755C-173.009,112.61 -196.193,122.235 -208.239,127.235"/>
<polygon fill="black" stroke="black" points="-207.646,128.884 -212.935,129.185 -208.988,125.651 -207.646,128.884"/>
<text text-anchor="middle" x="-202.163" y="113.795" font-family="monospace" font-size="6.00">2366963:G&gt;A</text>
</g>
<!-- 5 -->
<g id="node6" class="node"><title>5</title>
<ellipse fill="#ff3030" stroke="black" cx="-160.221" cy="-33.8546" rx="18" ry="18"/>
<text text-anchor="middle" x="-160.221" y="-32.5546" font-family="monospace" font-size="6.00">25</text>
</g>
<!-- 39 -->
<g id="node40" class="node"><title>39</title>
<ellipse fill="#ff3030" stroke="black" cx="-229.844" cy="4.33768" rx="3.5" ry="3.5"/>
</g>
<!-- 5&#45;&gt;39 -->
<g id="edge36" class="edge"><title>5&#45;&gt;39</title>
<path fill="none" stroke="black" d="M-176.02,-25.1882C-190.363,-17.3202 -210.918,-6.04462 -222.017,0.0439158"/>
<polygon fill="black" stroke="black" points="-221.412,1.708 -226.637,2.5785 -223.095,-1.36062 -221.412,1.708"/>
<text text-anchor="middle" x="-220.018" y="-14.7721" font-family="monospace" font-size="6.00">2366538:C&gt;A</text>
</g>
<!-- 5&#45;&gt;60 -->
<g id="edge71" class="edge"><title>5&#45;&gt;60</title>
<path fill="none" stroke="black" stroke-dasharray="5,2" d="M-168.256,-50.0444C-173.78,-61.175 -180.843,-75.4079 -185.006,-83.7963"/>
<polygon fill="black" stroke="black" points="-186.715,-83.3033 -187.37,-88.56 -183.58,-84.8592 -186.715,-83.3033"/>
<text text-anchor="middle" x="-188.131" y="-69.1204" font-family="monospace" font-size="6.00">A1934V</text>
</g>
<!-- 6 -->
<g id="node7" class="node"><title>6</title>
<path fill="deepskyblue" stroke="black" stroke-width="0.5" d="M-39.6498,-8.22431C-39.6498,-8.22431 -5.14985,-8.22431 -5.14985,-8.22431 -5.14985,-9.38998 -5.20893,-10.5549 -5.32686,-11.7146 -5.44479,-12.8743 -5.62141,-14.0273 -5.85606,-15.1691 -6.09071,-16.3109 -6.38308,-17.4401 -6.73204,-18.5523 -7.081,-19.6646 -7.48611,-20.7584 -7.9458,-21.8296 -7.9458,-21.8296 -39.6498,-8.22431 -39.6498,-8.22431"/>
<path fill="brown" stroke="black" stroke-width="0.5" d="M-39.6498,-8.22431C-39.6498,-8.22431 -7.9458,-21.8296 -7.9458,-21.8296 -8.34322,-22.7557 -8.78103,-23.6639 -9.25797,-24.5517 -9.7349,-25.4395 -10.2505,-26.3059 -10.8033,-27.1485 -11.3561,-27.9912 -11.9455,-28.8092 -12.5699,-29.6002 -13.1944,-30.3912 -13.8531,-31.1545 -14.5444,-31.8879 -15.2356,-32.6212 -15.9586,-33.3239 -16.7114,-33.994 -17.4641,-34.664 -18.2459,-35.3008 -19.0544,-35.9024 -19.8629,-36.504 -20.6973,-37.0699 -21.5554,-37.5984 -22.4134,-38.127 -23.2942,-38.6177 -24.1952,-39.0691 -25.0962,-39.5206 -26.0166,-39.9323 -26.9536,-40.3032 -27.8907,-40.6741 -28.8435,-41.0037 -29.8094,-41.2911 -30.7753,-41.5786 -31.7534,-41.8236 -32.7407,-42.0254 -33.7281,-42.2272 -34.7238,-42.3857 -35.725,-42.5003 -36.7263,-42.615 -37.732,-42.6857 -38.7395,-42.7123 -39.7469,-42.7389 -40.755,-42.7213 -41.7609,-42.6597 -42.7668,-42.598 -43.7694,-42.4923 -44.7661,-42.3428 -45.7627,-42.1934 -46.7523,-42.0003 -47.732,-41.7643 -48.7118,-41.5282 -49.6807,-41.2493 -50.636,-40.9284 -51.5913,-40.6074 -52.5321,-40.2448 -53.4557,-39.8415 -54.3792,-39.4383 -55.2847,-38.9947 -56.1694,-38.5122 -57.0541,-38.0296 -57.9173,-37.5085 -58.7564,-36.9504 -59.5955,-36.3923 -60.4098,-35.7977 -61.1968,-35.1683 -61.9839,-34.5389 -62.743,-33.8753 -63.4719,-33.1794 -64.2009,-32.4836 -64.899,-31.7561 -65.5643,-30.9991 -66.2296,-30.2421 -66.8613,-29.4564 -67.4578,-28.6441 -68.0543,-27.8318 -68.6149,-26.9937 -69.138,-26.1324 -69.6611,-25.271 -70.1462,-24.3871 -70.592,-23.4833 -71.0377,-22.5794 -71.4436,-21.6565 -71.8085,-20.7171 -72.1734,-19.7777 -72.497,-18.8228 -72.7784,-17.8551 -73.0597,-16.8874 -73.2985,-15.9078 -73.494,-14.9192 -73.6896,-13.9306 -73.8417,-12.9339 -73.95,-11.9319 -74.0583,-10.93 -74.1227,-9.9238 -74.1429,-8.91624 -74.1631,-7.90867 -74.1392,-6.90069 -74.0711,-5.89522 -74.0031,-4.88975 -73.891,-3.88774 -73.7353,-2.89208 -73.5795,-1.89641 -73.3802,-0.908055 -73.1379,0.0701586 -72.8956,1.04837 -72.6106,2.0155 -72.2837,2.96876 -71.9567,3.92202 -71.5881,4.86049 -71.179,5.78148 -70.7699,6.70248 -70.3206,7.6051 -69.8325,8.48676 -69.3443,9.36842 -68.8178,10.2283 -68.2544,11.0638 -67.6909,11.8994 -67.0912,12.7099 -66.4568,13.4929 -65.8224,14.276 -65.154,15.0308 -64.4536,15.7554 -63.7531,16.4799 -63.0212,17.1734 -62.2601,17.8339 -61.4989,18.4943 -60.7091,19.1211 -59.8931,19.7124 -59.077,20.3038 -58.2354,20.859 -57.3708,21.3767 -56.5061,21.8943 -55.6192,22.3738 -54.7125,22.8138 -53.8059,23.2538 -52.8804,23.6539 -51.9387,24.0128 -50.997,24.3718 -50.0401,24.6893 -49.0706,24.9645 -48.1011,25.2397 -47.1201,25.4723 -46.1302,25.6616 -45.1404,25.8509 -44.1428,25.9967 -43.1402,26.0987 -42.1376,26.2006 -41.131,26.2586 -40.1233,26.2724 -39.1156,26.2863 -38.1078,26.2559 -37.1028,26.1815 -36.0978,26.1071 -35.0965,25.9887 -34.1018,25.8267 -33.1072,25.6646 -32.1201,25.4591 -31.1434,25.2106 -30.1668,24.9621 -29.2015,24.6709 -28.2503,24.338 -27.2991,24.005 -26.363,23.6305 -25.4446,23.2155 -24.5263,22.8006 -23.6265,22.3456 -22.7479,21.8519 -21.8694,21.3581 -21.0129,20.8262 -20.1809,20.2575 -19.349,19.6888 -18.5423,19.0839 -17.7633,18.4446 -16.9843,17.8052 -16.2336,17.1321 -15.5135,16.427 -14.7935,15.722 -14.1046,14.9857 -13.449,14.2204 -12.7934,13.4551 -12.1716,12.6613 -11.5854,11.8416 -10.9993,11.0218 -10.4494,10.1767 -9.93721,9.30878 -9.42505,8.44085 -8.95117,7.5509 -8.51693,6.64148 -8.08269,5.73206 -7.6885,4.80405 -7.33551,3.86013 -6.98251,2.9162 -6.67105,1.95726 -6.402,0.986063 -6.402,0.986063 -39.6498,-8.22431 -39.6498,-8.22431"/>
<path fill="#ff3030" stroke="black" stroke-width="0.5" d="M-39.6498,-8.22431C-39.6498,-8.22431 -6.402,0.986063 -6.402,0.986063 -5.987,-0.512015 -5.67373,-2.03643 -5.46432,-3.57676 -5.25491,-5.11709 -5.14985,-6.66981 -5.14985,-8.22431 -5.14985,-8.22431 -39.6498,-8.22431 -39.6498,-8.22431"/>
<ellipse fill="none" stroke="black" cx="-39.6498" cy="-8.22431" rx="34.5" ry="34.5"/>
<text text-anchor="middle" x="-39.6498" y="-6.92431" font-family="monospace" font-size="6.00">93</text>
</g>
<!-- 6&#45;&gt;0 -->
<g id="edge1" class="edge"><title>6&#45;&gt;0</title>
<path fill="none" stroke="black" d="M-45.512,-42.3401C-49.8863,-67.797 -55.808,-102.259 -60.0118,-126.724"/>
<polygon fill="black" stroke="black" points="-61.7595,-126.562 -60.8816,-131.786 -58.3101,-127.155 -61.7595,-126.562"/>
<text text-anchor="middle" x="-64.2619" y="-79.7321" font-family="monospace" font-size="6.00">I1868T</text>
</g>
<!-- 6&#45;&gt;2 -->
<g id="edge6" class="edge"><title>6&#45;&gt;2</title>
<path fill="none" stroke="black" d="M-68.4907,-27.9523C-82.3926,-37.4616 -98.5415,-48.5079 -110.226,-56.5001"/>
<polygon fill="black" stroke="black" points="-111.488,-55.2432 -114.627,-59.5106 -109.512,-58.1321 -111.488,-55.2432"/>
<text text-anchor="middle" x="-100.858" y="-44.4262" font-family="monospace" font-size="6.00">A1934V</text>
</g>
<!-- 6&#45;&gt;3 -->
<g id="edge8" class="edge"><title>6&#45;&gt;3</title>
<path fill="none" stroke="black" d="M-5.11799,-12.0013C21.0713,-14.8659 57.0789,-18.8043 84.2827,-21.7798"/>
<polygon fill="black" stroke="black" points="84.0948,-23.5196 89.2555,-22.3237 84.4754,-20.0404 84.0948,-23.5196"/>
<text text-anchor="middle" x="28.0824" y="-19.0906" font-family="monospace" font-size="6.00">N1570Y</text>
</g>
<!-- 6&#45;&gt;4 -->
<g id="edge30" class="edge"><title>6&#45;&gt;4</title>
<path fill="none" stroke="black" d="M-61.9466,18.2339C-73.797,32.2961 -88.3751,49.5951 -100.477,63.9561"/>
<polygon fill="black" stroke="black" points="-99.2605,65.2279 -103.821,67.9236 -101.937,62.9724 -99.2605,65.2279"/>
<text text-anchor="middle" x="-92.712" y="38.895" font-family="monospace" font-size="6.00">P1874L</text>
</g>
<!-- 6&#45;&gt;5 -->
<g id="edge33" class="edge"><title>6&#45;&gt;5</title>
<path fill="none" stroke="black" d="M-73.5566,-15.432C-93.8821,-19.7526 -119.191,-25.1326 -137.2,-28.9609"/>
<polygon fill="black" stroke="black" points="-138.014,-27.3448 -142.541,-30.0962 -137.286,-30.7683 -138.014,-27.3448"/>
<text text-anchor="middle" x="-116.878" y="-24.3964" font-family="monospace" font-size="6.00">P1874S</text>
</g>
<!-- 7 -->
<g id="node8" class="node"><title>7</title>
<ellipse fill="#ff3030" stroke="black" cx="3.23059" cy="44.8319" rx="9.5" ry="9.5"/>
<text text-anchor="middle" x="3.23059" y="46.1319" font-family="monospace" font-size="6.00">7</text>
</g>
<!-- 6&#45;&gt;7 -->
<g id="edge37" class="edge"><title>6&#45;&gt;7</title>
<path fill="none" stroke="black" d="M-17.9584,18.6147C-13.8454,23.7037 -9.74466,28.7776 -6.26186,33.0868"/>
<polygon fill="black" stroke="black" points="-4.78933,32.1247 -3.00746,37.1135 -7.51146,34.3248 -4.78933,32.1247"/>
<text text-anchor="middle" x="-0.610122" y="30.6508" font-family="monospace" font-size="6.00">K1603T</text>
</g>
<!-- 8 -->
<g id="node9" class="node"><title>8</title>
<ellipse fill="#ff3030" stroke="black" cx="-87.7883" cy="-70.3019" rx="6" ry="6"/>
<text text-anchor="middle" x="-87.7883" y="-69.0019" font-family="monospace" font-size="6.00">3</text>
</g>
<!-- 6&#45;&gt;8 -->
<g id="edge38" class="edge"><title>6&#45;&gt;8</title>
<path fill="none" stroke="black" d="M-60.9042,-35.6331C-67.9439,-44.7113 -75.3093,-54.2094 -80.5469,-60.9636"/>
<polygon fill="black" stroke="black" points="-82.1217,-60.1387 -83.8028,-65.1624 -79.3559,-62.2836 -82.1217,-60.1387"/>
<text text-anchor="middle" x="-59.2255" y="-50.4984" font-family="monospace" font-size="6.00">L1667M</text>
</g>
<!-- 13 -->
<g id="node14" class="node"><title>13</title>
<ellipse fill="#ff3030" stroke="black" cx="-0.969272" cy="74.9776" rx="8" ry="8"/>
<text text-anchor="middle" x="-0.969272" y="76.2776" font-family="monospace" font-size="6.00">5</text>
</g>
<!-- 6&#45;&gt;13 -->
<g id="edge39" class="edge"><title>6&#45;&gt;13</title>
<path fill="none" stroke="black" d="M-25.0264,23.2308C-18.5547,37.1513 -11.3327,52.686 -6.50595,63.0682"/>
<polygon fill="black" stroke="black" points="-4.86369,62.4497 -4.34268,67.7214 -8.03748,63.9252 -4.86369,62.4497"/>
<text text-anchor="middle" x="-21.5162" y="47.9495" font-family="monospace" font-size="6.00">I1940T</text>
</g>
<!-- 14 -->
<g id="node15" class="node"><title>14</title>
<path fill="#98f5ff" stroke="black" stroke-width="0.5" d="M-44.6051,111.406C-44.6051,111.406 -38.6051,111.406 -38.6051,111.406 -38.6051,111.144 -38.6223,110.883 -38.6565,110.623 -38.6906,110.363 -38.7418,110.106 -38.8096,109.853 -38.8774,109.6 -38.9616,109.352 -39.0618,109.11 -39.1621,108.868 -39.278,108.633 -39.409,108.406 -39.5399,108.179 -39.6856,107.961 -39.845,107.754 -40.0044,107.546 -40.1773,107.349 -40.3625,107.163 -40.5477,106.978 -40.7448,106.805 -40.9526,106.646 -41.1603,106.487 -41.3783,106.341 -41.6051,106.21 -41.8319,106.079 -42.0671,105.963 -42.309,105.863 -42.551,105.763 -42.7992,105.678 -43.0522,105.611 -43.3052,105.543 -43.5623,105.492 -43.822,105.457 -44.0816,105.423 -44.3432,105.406 -44.6051,105.406 -44.867,105.406 -45.1286,105.423 -45.3883,105.457 -45.6479,105.492 -45.9051,105.543 -46.158,105.611 -46.411,105.678 -46.6593,105.763 -46.9012,105.863 -47.1432,105.963 -47.3783,106.079 -47.6051,106.21 -47.6051,106.21 -44.6051,111.406 -44.6051,111.406"/>
<path fill="#ff3030" stroke="black" stroke-width="0.5" d="M-44.6051,111.406C-44.6051,111.406 -47.6051,106.21 -47.6051,106.21 -47.8319,106.341 -48.0499,106.487 -48.2577,106.646 -48.4655,106.805 -48.6626,106.978 -48.8478,107.163 -49.033,107.349 -49.2058,107.546 -49.3652,107.754 -49.5247,107.961 -49.6703,108.179 -49.8013,108.406 -49.9322,108.633 -50.0482,108.868 -50.1484,109.11 -50.2486,109.352 -50.3329,109.6 -50.4007,109.853 -50.4685,110.106 -50.5196,110.363 -50.5538,110.623 -50.588,110.883 -50.6051,111.144 -50.6051,111.406 -50.6051,111.668 -50.588,111.93 -50.5538,112.189 -50.5196,112.449 -50.4685,112.706 -50.4007,112.959 -50.3329,113.212 -50.2486,113.46 -50.1484,113.702 -50.0482,113.944 -49.9322,114.179 -49.8013,114.406 -49.6703,114.633 -49.5247,114.851 -49.3652,115.059 -49.2058,115.266 -49.0329,115.464 -48.8478,115.649 -48.6626,115.834 -48.4655,116.007 -48.2577,116.166 -48.0499,116.326 -47.8319,116.471 -47.6051,116.602 -47.3783,116.733 -47.1432,116.849 -46.9012,116.949 -46.6593,117.05 -46.411,117.134 -46.158,117.202 -45.9051,117.269 -45.6479,117.321 -45.3883,117.355 -45.1286,117.389 -44.867,117.406 -44.6051,117.406 -44.3432,117.406 -44.0816,117.389 -43.822,117.355 -43.5623,117.321 -43.3052,117.269 -43.0522,117.202 -42.7992,117.134 -42.551,117.05 -42.309,116.949 -42.0671,116.849 -41.8319,116.733 -41.6051,116.602 -41.3783,116.471 -41.1603,116.326 -40.9526,116.166 -40.7448,116.007 -40.5477,115.834 -40.3625,115.649 -40.1773,115.464 -40.0044,115.266 -39.845,115.059 -39.6856,114.851 -39.5399,114.633 -39.409,114.406 -39.278,114.179 -39.1621,113.944 -39.0618,113.702 -38.9616,113.46 -38.8774,113.212 -38.8096,112.959 -38.7418,112.706 -38.6906,112.449 -38.6565,112.189 -38.6223,111.93 -38.6051,111.668 -38.6051,111.406 -38.6051,111.406 -44.6051,111.406 -44.6051,111.406"/>
<ellipse fill="none" stroke="black" cx="-44.6051" cy="111.406" rx="6" ry="6"/>
<text text-anchor="middle" x="-44.6051" y="112.706" font-family="monospace" font-size="6.00">3</text>
</g>
<!-- 6&#45;&gt;14 -->
<g id="edge40" class="edge"><title>6&#45;&gt;14</title>
<path fill="none" stroke="black" d="M-41.0831,26.3778C-42.1206,51.425 -43.4572,83.692 -44.1473,100.354"/>
<polygon fill="black" stroke="black" points="-42.3997,100.45 -44.3552,105.374 -45.8967,100.305 -42.3997,100.45"/>
<text text-anchor="middle" x="-52.1152" y="61.166" font-family="monospace" font-size="6.00">T791M</text>
</g>
<!-- 17 -->
<g id="node18" class="node"><title>17</title>
<ellipse fill="#ff3030" stroke="black" cx="-68.2946" cy="21.2061" rx="6" ry="6"/>
<text text-anchor="middle" x="-68.2946" y="22.5061" font-family="monospace" font-size="6.00">3</text>
</g>
<!-- 6&#45;&gt;17 -->
<g id="edge41" class="edge"><title>6&#45;&gt;17</title>
<path fill="none" stroke="black" d="M-63.8189,16.6076C-63.9028,16.6938 -63.9858,16.7792 -64.068,16.8636"/>
<polygon fill="black" stroke="black" points="-59.5697,14.7512 -64.3117,17.1139 -62.0781,12.3098 -59.5697,14.7512"/>
<text text-anchor="middle" x="-75.4434" y="14.5356" font-family="monospace" font-size="6.00">N1345I</text>
</g>
<!-- 19 -->
<g id="node20" class="node"><title>19</title>
<path fill="deepskyblue" stroke="black" stroke-width="0.5" d="M-74.2226,-100.795C-74.2226,-100.795 -62.7226,-100.795 -62.7226,-100.795 -62.7226,-101.246 -62.7492,-101.698 -62.8023,-102.146 -62.8554,-102.595 -62.9349,-103.04 -63.0403,-103.479 -63.1458,-103.919 -63.277,-104.351 -63.4334,-104.775 -63.5897,-105.199 -63.7709,-105.613 -63.976,-106.016 -64.1811,-106.418 -64.4097,-106.808 -64.6607,-107.184 -64.9117,-107.559 -65.1845,-107.92 -65.4779,-108.263 -65.7713,-108.607 -66.0847,-108.933 -66.4164,-109.239 -66.7481,-109.546 -67.0976,-109.833 -67.4631,-110.098 -67.8285,-110.364 -68.2093,-110.608 -68.6035,-110.828 -68.9976,-111.049 -69.4044,-111.246 -69.8217,-111.419 -70.2391,-111.592 -70.6663,-111.74 -71.101,-111.863 -71.5358,-111.986 -71.9774,-112.082 -72.4236,-112.153 -72.8698,-112.224 -73.3197,-112.268 -73.7711,-112.286 -74.2225,-112.304 -74.6745,-112.295 -75.1249,-112.259 -75.5752,-112.224 -76.0231,-112.162 -76.4661,-112.074 -76.9092,-111.986 -77.3467,-111.871 -77.7763,-111.732 -78.2059,-111.592 -78.6269,-111.427 -79.0372,-111.238 -79.4474,-111.049 -79.8462,-110.836 -80.2313,-110.6 -80.6165,-110.364 -80.9874,-110.105 -81.3422,-109.826 -81.6969,-109.546 -82.0349,-109.246 -82.3543,-108.926 -82.6737,-108.607 -82.9741,-108.269 -83.2537,-107.914 -83.5334,-107.56 -83.7919,-107.189 -84.028,-106.803 -84.264,-106.418 -84.4771,-106.02 -84.6662,-105.609 -84.8554,-105.199 -85.0202,-104.778 -85.1597,-104.348 -85.2993,-103.919 -85.4135,-103.481 -85.5016,-103.038 -85.5898,-102.595 -85.6517,-102.147 -85.6871,-101.697 -85.7226,-101.247 -85.7315,-100.795 -85.7137,-100.343 -85.696,-99.8918 -85.6517,-99.4419 -85.581,-98.9957 -85.5103,-98.5495 -85.4134,-98.1079 -85.2908,-97.6731 -85.1682,-97.2383 -85.0201,-96.8112 -84.8472,-96.3938 -84.6743,-95.9765 -84.477,-95.5697 -84.2563,-95.1755 -84.0356,-94.7814 -83.7918,-94.4006 -83.5263,-94.0351 -83.5263,-94.0351 -74.2226,-100.795 -74.2226,-100.795"/>
<path fill="#98f5ff" stroke="black" stroke-width="0.5" d="M-74.2226,-100.795C-74.2226,-100.795 -83.5263,-94.0351 -83.5263,-94.0351 -83.1722,-93.5478 -82.7803,-93.0889 -82.3543,-92.6629 -81.9283,-92.237 -81.4695,-91.8451 -80.9821,-91.491 -80.4947,-91.1369 -79.9803,-90.8216 -79.4435,-90.5481 -78.9067,-90.2746 -78.3493,-90.0437 -77.7763,-89.8575 -77.2033,-89.6714 -76.6166,-89.5305 -76.0216,-89.4363 -75.4266,-89.342 -74.825,-89.2947 -74.2226,-89.2947 -73.6201,-89.2947 -73.0186,-89.342 -72.4236,-89.4363 -71.8286,-89.5305 -71.2419,-89.6714 -70.6689,-89.8575 -70.0959,-90.0437 -69.5385,-90.2746 -69.0017,-90.5481 -68.4649,-90.8216 -67.9505,-91.1369 -67.4631,-91.491 -66.9757,-91.8451 -66.5169,-92.237 -66.0909,-92.6629 -65.6649,-93.0889 -65.273,-93.5478 -64.9189,-94.0351 -64.5648,-94.5225 -64.2495,-95.037 -63.976,-95.5738 -63.7025,-96.1106 -63.4716,-96.668 -63.2854,-97.241 -63.0993,-97.8139 -62.9584,-98.4006 -62.8642,-98.9957 -62.7699,-99.5907 -62.7226,-100.192 -62.7226,-100.795 -62.7226,-100.795 -74.2226,-100.795 -74.2226,-100.795"/>
<ellipse fill="none" stroke="black" cx="-74.2226" cy="-100.795" rx="11.5" ry="11.5"/>
<text text-anchor="middle" x="-74.2226" y="-99.4947" font-family="monospace" font-size="6.00">10</text>
</g>
<!-- 6&#45;&gt;19 -->
<g id="edge42" class="edge"><title>6&#45;&gt;19</title>
<path fill="none" stroke="black" d="M-51.7417,-40.6009C-57.3302,-55.5645 -63.7173,-72.6662 -68.2517,-84.8072"/>
<polygon fill="black" stroke="black" points="-69.9638,-84.3897 -70.0738,-89.686 -66.685,-85.6143 -69.9638,-84.3897"/>
<text text-anchor="middle" x="-71.4967" y="-57.904" font-family="monospace" font-size="6.00">E1597G</text>
</g>
<!-- 26 -->
<g id="node27" class="node"><title>26</title>
<ellipse fill="deepskyblue" stroke="black" cx="-9.66198" cy="-33.7981" rx="5" ry="5"/>
<text text-anchor="middle" x="-9.66198" y="-32.4981" font-family="monospace" font-size="6.00">2</text>
</g>
<!-- 6&#45;&gt;26 -->
<g id="edge43" class="edge"><title>6&#45;&gt;26</title>
<path fill="none" stroke="black" d="M-13.3391,-30.6622C-13.269,-30.722 -13.1997,-30.781 -13.1313,-30.8394"/>
<polygon fill="black" stroke="black" points="-17.8689,-29.0991 -12.9283,-31.0125 -15.5974,-26.4357 -17.8689,-29.0991"/>
<text text-anchor="middle" x="-1.73517" y="-25.9508" font-family="monospace" font-size="6.00">I1584T</text>
</g>
<!-- 31 -->
<g id="node32" class="node"><title>31</title>
<path fill="deepskyblue" stroke="black" stroke-width="0.5" d="M-70.6309,83.8678C-70.6309,83.8678 -58.1309,83.8678 -58.1309,83.8678 -58.1309,83.3904 -58.1583,82.9135 -58.2128,82.4392 -58.2674,81.965 -58.3491,81.4942 -58.4575,81.0293 -58.5659,80.5644 -58.7008,80.1061 -58.8616,79.6567 -59.0224,79.2072 -59.2089,78.7673 -59.42,78.3392 -59.6311,77.9111 -59.8666,77.4954 -60.1253,77.0942 -60.384,76.693 -60.6654,76.3069 -60.9683,75.9379 -61.2711,75.5689 -61.5949,75.2175 -61.9379,74.8855 -62.2809,74.5535 -62.6427,74.2415 -63.0214,73.9509 -63.4001,73.6603 -63.7952,73.3916 -64.2046,73.1462 -64.6141,72.9008 -65.0373,72.679 -65.4721,72.482 -65.9069,72.285 -66.3526,72.113 -66.8071,71.967 -67.2616,71.821 -67.7241,71.7011 -68.1923,71.608 -68.6605,71.5149 -69.1336,71.4486 -69.6094,71.4096 -70.0852,71.3706 -70.5628,71.3589 -71.0399,71.3745 -71.517,71.3901 -71.9928,71.433 -72.465,71.5031 -72.9372,71.5731 -73.405,71.6702 -73.8662,71.7937 -74.3273,71.9173 -74.7809,72.0671 -75.2249,72.2426 -75.6688,72.418 -76.1024,72.6188 -76.5234,72.8438 -76.9444,73.0688 -77.3521,73.3178 -77.7447,73.5894 -78.1372,73.8611 -78.5138,74.1551 -78.8727,74.4698 -79.2316,74.7846 -79.5722,75.1196 -79.8928,75.4733 -80.2134,75.827 -80.5134,76.1988 -80.7915,76.5868 -81.0696,76.9749 -81.3252,77.3785 -81.557,77.7958 -81.7889,78.213 -81.9967,78.6432 -82.1794,79.0843 -82.3621,79.5253 -82.5194,79.9764 -82.6504,80.4354 -82.7815,80.8945 -82.8862,81.3606 -82.964,81.8316 -83.0417,82.3026 -83.0924,82.7777 -83.1159,83.2545 -83.1393,83.7312 -83.1354,84.209 -83.1042,84.6853 -83.0729,85.1617 -83.0144,85.6359 -82.929,86.1055 -82.8435,86.5752 -82.7312,87.0395 -82.5927,87.4964 -82.4541,87.9532 -82.2895,88.4017 -82.0996,88.8397 -81.9097,89.2776 -81.6949,89.7044 -81.4562,90.1178 -81.4562,90.1178 -70.6309,83.8678 -70.6309,83.8678"/>
<path fill="#98f5ff" stroke="black" stroke-width="0.5" d="M-70.6309,83.8678C-70.6309,83.8678 -81.4562,90.1178 -81.4562,90.1178 -81.1152,90.7086 -80.7263,91.2704 -80.2935,91.7977 -79.8608,92.325 -79.3856,92.816 -78.8727,93.2658 -78.3599,93.7156 -77.811,94.1226 -77.2318,94.4828 -76.6525,94.843 -76.0447,95.1552 -75.4145,95.4163 -74.7842,95.6773 -74.1337,95.8864 -73.4694,96.0413 -72.805,96.1962 -72.1291,96.2964 -71.4485,96.341 -70.7678,96.3857 -70.0846,96.3745 -69.4057,96.3076 -68.7268,96.2407 -68.0546,96.1184 -67.3957,95.9419 -66.7368,95.7653 -66.0934,95.5351 -65.4721,95.2536 -64.8507,94.9721 -64.2535,94.6402 -63.6863,94.2612 -63.1191,93.8822 -62.5839,93.4574 -62.086,92.9911 -61.5881,92.5248 -61.1293,92.0185 -60.714,91.4773 -60.2987,90.9361 -59.9285,90.3619 -59.6069,89.7603 -59.2853,89.1587 -59.0136,88.5317 -58.7943,87.8858 -58.575,87.2398 -58.409,86.577 -58.2979,85.904 -58.1868,85.231 -58.1309,84.55 -58.1309,83.8678 -58.1309,83.8678 -70.6309,83.8678 -70.6309,83.8678"/>
<ellipse fill="none" stroke="black" cx="-70.6309" cy="83.8678" rx="12.5" ry="12.5"/>
<text text-anchor="middle" x="-70.6309" y="85.1678" font-family="monospace" font-size="6.00">12</text>
</g>
<!-- 6&#45;&gt;31 -->
<g id="edge47" class="edge"><title>6&#45;&gt;31</title>
<path fill="none" stroke="black" d="M-50.6598,24.5032C-55.4688,38.798 -60.9081,54.9665 -64.8945,66.816"/>
<polygon fill="black" stroke="black" points="-63.2549,67.4309 -66.5079,71.6119 -66.5722,66.3149 -63.2549,67.4309"/>
<text text-anchor="middle" x="-69.2772" y="43.4596" font-family="monospace" font-size="6.00">V1853I</text>
</g>
<!-- 47 -->
<g id="node48" class="node"><title>47</title>
<ellipse fill="brown" stroke="black" cx="-35.3865" cy="41.2489" rx="3.5" ry="3.5"/>
</g>
<!-- 6&#45;&gt;47 -->
<g id="edge48" class="edge"><title>6&#45;&gt;47</title>
<path fill="none" stroke="black" d="M-36.6656,26.4053C-36.4872,28.4758 -36.3183,30.4356 -36.1653,32.2114"/>
<polygon fill="black" stroke="black" points="-34.4011,32.3018 -35.7152,37.4336 -37.8882,32.6024 -34.4011,32.3018"/>
<text text-anchor="middle" x="-57.4154" y="34.1084" font-family="monospace" font-size="6.00">2382263:A&gt;G</text>
</g>
<!-- 50 -->
<g id="node51" class="node"><title>50</title>
<ellipse fill="brown" stroke="black" cx="23.1402" cy="-71.3977" rx="8" ry="8"/>
<text text-anchor="middle" x="23.1402" y="-70.0977" font-family="monospace" font-size="6.00">5</text>
</g>
<!-- 6&#45;&gt;50 -->
<g id="edge52" class="edge"><title>6&#45;&gt;50</title>
<path fill="none" stroke="black" d="M-15.1938,-32.8297C-5.19918,-42.8853 5.78303,-53.9345 13.4212,-61.6192"/>
<polygon fill="black" stroke="black" points="12.527,-63.2021 17.293,-65.5147 15.0094,-60.7347 12.527,-63.2021"/>
<text text-anchor="middle" x="-21.8863" y="-49.4245" font-family="monospace" font-size="6.00">2366965:T&gt;G</text>
</g>
<!-- 51 -->
<g id="node52" class="node"><title>51</title>
<ellipse fill="brown" stroke="black" cx="2.03446" cy="12.4334" rx="3.5" ry="3.5"/>
</g>
<!-- 6&#45;&gt;51 -->
<g id="edge53" class="edge"><title>6&#45;&gt;51</title>
<path fill="none" stroke="black" d="M-8.48425,7.22056C-7.60084,7.65835 -6.75054,8.07974 -5.94259,8.48013"/>
<polygon fill="black" stroke="black" points="-5.0268,6.98081 -1.32383,10.7691 -6.58097,10.1168 -5.0268,6.98081"/>
<text text-anchor="middle" x="13.7866" y="5.65034" font-family="monospace" font-size="6.00">2388293:C&gt;T</text>
</g>
<!-- anon_6_27_0 -->
<g id="node66" class="node"><title>anon_6_27_0</title>
<ellipse fill="white" stroke="black" cx="-114.798" cy="-5.80303" rx="2.5" ry="2.5"/>
</g>
<!-- 6&#45;&gt;anon_6_27_0 -->
<g id="edge44" class="edge"><title>6&#45;&gt;anon_6_27_0</title>
<path fill="none" stroke="black" d="M-74.1447,-7.11288C-86.2023,-6.72438 -98.6856,-6.32217 -106.583,-6.06771"/>
<polygon fill="black" stroke="black" points="-106.975,-4.30427 -112.029,-5.89226 -107.088,-7.80245 -106.975,-4.30427"/>
<text text-anchor="middle" x="-111.364" y="-8.79029" font-family="monospace" font-size="6.00">2362002:A&gt;T</text>
</g>
<!-- anon_6_49_0 -->
<g id="node68" class="node"><title>anon_6_49_0</title>
<ellipse fill="white" stroke="black" cx="-32.7" cy="-82.6522" rx="2.5" ry="2.5"/>
</g>
<!-- 6&#45;&gt;anon_6_49_0 -->
<g id="edge50" class="edge"><title>6&#45;&gt;anon_6_49_0</title>
<path fill="none" stroke="black" d="M-36.4191,-42.8236C-35.3113,-54.6866 -34.1703,-66.9057 -33.4494,-74.627"/>
<polygon fill="black" stroke="black" points="-35.1598,-75.1327 -32.9525,-79.9483 -31.675,-74.8072 -35.1598,-75.1327"/>
<text text-anchor="middle" x="-13.9342" y="-60.9253" font-family="monospace" font-size="6.00">2359422:C&gt;G</text>
</g>
<!-- 57 -->
<g id="node58" class="node"><title>57</title>
<ellipse fill="black" stroke="black" cx="-131.415" cy="-121.178" rx="6" ry="6"/>
<text text-anchor="middle" x="-131.415" y="-119.878" font-family="monospace" font-size="6.00">3</text>
</g>
<!-- 8&#45;&gt;57 -->
<g id="edge55" class="edge"><title>8&#45;&gt;57</title>
<path fill="none" stroke="black" d="M-91.8144,-74.997C-99.1142,-83.5099 -114.637,-101.613 -123.933,-112.453"/>
<polygon fill="black" stroke="black" points="-125.345,-111.411 -127.271,-116.346 -122.688,-113.69 -125.345,-111.411"/>
<text text-anchor="middle" x="-128.873" y="-95.9248" font-family="monospace" font-size="6.00">2415120:T&gt;A</text>
</g>
<!-- 9 -->
<g id="node10" class="node"><title>9</title>
<ellipse fill="deepskyblue" stroke="black" cx="-80.6932" cy="235.65" rx="3.5" ry="3.5"/>
</g>
<!-- 11 -->
<g id="node12" class="node"><title>11</title>
<ellipse fill="deepskyblue" stroke="black" cx="-159.564" cy="67.3311" rx="3.5" ry="3.5"/>
</g>
<!-- 11&#45;&gt;4 -->
<g id="edge31" class="edge"><title>11&#45;&gt;4</title>
<path fill="none" stroke="black" d="M-156.329,69.6517C-155.956,69.9192 -155.557,70.2059 -155.133,70.5095"/>
<polygon fill="black" stroke="black" points="-153.807,69.3075 -150.764,73.6441 -155.847,72.1514 -153.807,69.3075"/>
<text text-anchor="middle" x="-176.731" y="74.8806" font-family="monospace" font-size="6.00">2358667:T&gt;A</text>
</g>
<!-- 12 -->
<g id="node13" class="node"><title>12</title>
<ellipse fill="deepskyblue" stroke="black" cx="23.6766" cy="229.159" rx="3.5" ry="3.5"/>
</g>
<!-- 28 -->
<g id="node29" class="node"><title>28</title>
<ellipse fill="#ff3030" stroke="black" cx="19.0712" cy="128.081" rx="3.5" ry="3.5"/>
</g>
<!-- 13&#45;&gt;28 -->
<g id="edge58" class="edge"><title>13&#45;&gt;28</title>
<path fill="none" stroke="black" d="M1.98777,82.8132C5.73593,92.7449 12.1668,109.785 15.9784,119.885"/>
<polygon fill="black" stroke="black" points="17.6647,119.397 17.7928,124.693 14.3901,120.633 17.6647,119.397"/>
<text text-anchor="middle" x="-12.0169" y="99.1492" font-family="monospace" font-size="6.00">2421454:A&gt;G</text>
</g>
<!-- 15 -->
<g id="node16" class="node"><title>15</title>
<path fill="deepskyblue" stroke="black" stroke-width="0.5" d="M-29.1514,188.546C-29.1514,188.546 -11.1514,188.546 -11.1514,188.546 -11.1514,187.698 -11.2114,186.85 -11.3309,186.01 -11.4505,185.17 -11.6293,184.339 -11.8661,183.525 -12.1028,182.71 -12.3969,181.913 -12.7461,181.139 -13.0953,180.366 -13.4988,179.618 -13.9535,178.902 -14.4082,178.185 -14.913,177.502 -15.4641,176.856 -16.0152,176.211 -16.6112,175.606 -17.2478,175.044 -17.8843,174.483 -18.5597,173.968 -19.269,173.502 -19.9782,173.036 -20.7195,172.621 -21.4873,172.26 -22.2552,171.898 -23.0476,171.592 -23.8586,171.342 -24.6697,171.093 -25.4974,170.901 -26.3356,170.768 -27.1737,170.635 -28.0202,170.562 -28.8686,170.549 -29.7171,170.535 -30.5655,170.582 -31.4074,170.688 -32.2493,170.795 -33.0826,170.96 -33.9011,171.184 -34.7196,171.408 -35.5212,171.69 -36.3,172.027 -37.0788,172.364 -37.8328,172.755 -38.5563,173.199 -39.2799,173.642 -39.9712,174.136 -40.625,174.677 -41.2789,175.218 -41.8936,175.805 -42.4647,176.432 -43.0358,177.06 -43.5619,177.727 -44.0388,178.429 -44.5158,179.131 -44.9425,179.865 -45.3159,180.627 -45.6892,181.39 -46.0082,182.177 -46.2704,182.984 -46.5326,183.791 -46.7374,184.616 -46.8833,185.452 -47.0292,186.288 -47.1158,187.133 -47.1425,187.981 -47.1691,188.829 -47.1358,189.678 -47.0427,190.522 -46.9496,191.365 -46.7969,192.201 -46.5859,193.023 -46.3748,193.845 -46.1059,194.651 -45.7812,195.435 -45.4565,196.219 -45.0767,196.979 -44.6447,197.709 -44.2128,198.44 -43.7297,199.139 -43.1991,199.801 -42.6685,200.463 -42.0918,201.087 -41.4732,201.668 -40.8546,202.249 -40.1957,202.785 -39.5015,203.273 -38.8072,203.761 -38.0793,204.199 -37.3232,204.585 -36.5671,204.97 -35.7847,205.301 -34.9819,205.576 -34.1791,205.851 -33.3578,206.069 -32.5242,206.228 -32.5242,206.228 -29.1514,188.546 -29.1514,188.546"/>
<path fill="#98f5ff" stroke="black" stroke-width="0.5" d="M-29.1514,188.546C-29.1514,188.546 -32.5242,206.228 -32.5242,206.228 -31.876,206.351 -31.2215,206.439 -30.5636,206.491 -29.9058,206.543 -29.2456,206.558 -28.586,206.538 -27.9264,206.517 -27.2685,206.46 -26.6151,206.367 -25.9618,206.274 -25.3141,206.145 -24.675,205.981 -24.0358,205.817 -23.4061,205.618 -22.7888,205.384 -22.1715,205.151 -21.5675,204.884 -20.9795,204.585 -20.3916,204.285 -19.8205,203.953 -19.269,203.591 -18.7174,203.229 -18.1862,202.836 -17.6777,202.416 -17.1693,201.995 -16.6843,201.547 -16.2251,201.073 -15.7659,200.599 -15.333,200.1 -14.9286,199.579 -14.5241,199.057 -14.1486,198.514 -13.8039,197.951 -13.4591,197.389 -13.1455,196.808 -12.8645,196.21 -12.5835,195.613 -12.3356,195.001 -12.1218,194.377 -11.9081,193.753 -11.7288,193.117 -11.5849,192.473 -11.4409,191.829 -11.3325,191.178 -11.2601,190.522 -11.1877,189.866 -11.1514,189.206 -11.1514,188.546 -11.1514,188.546 -29.1514,188.546 -29.1514,188.546"/>
<ellipse fill="none" stroke="black" cx="-29.1514" cy="188.546" rx="18" ry="18"/>
<text text-anchor="middle" x="-29.1514" y="189.846" font-family="monospace" font-size="6.00">25</text>
</g>
<!-- 14&#45;&gt;15 -->
<g id="edge59" class="edge"><title>14&#45;&gt;15</title>
<path fill="none" stroke="black" d="M-43.3925,117.459C-41.329,127.759 -37.0343,149.197 -33.6979,165.852"/>
<polygon fill="black" stroke="black" points="-31.9631,165.602 -32.6968,170.849 -35.3949,166.29 -31.9631,165.602"/>
<text text-anchor="middle" x="-50.0452" y="139.455" font-family="monospace" font-size="6.00">A1746S</text>
</g>
<!-- 61 -->
<g id="node62" class="node"><title>61</title>
<ellipse fill="white" stroke="black" cx="-87.0026" cy="138.474" rx="2.5" ry="2.5"/>
</g>
<!-- 14&#45;&gt;61 -->
<g id="edge60" class="edge"><title>14&#45;&gt;61</title>
<path fill="none" stroke="black" d="M-49.8039,114.725C-57.4215,119.588 -71.629,128.659 -80.1096,134.073"/>
<polygon fill="black" stroke="black" points="-79.3837,135.686 -84.5398,136.901 -81.2672,132.736 -79.3837,135.686"/>
<text text-anchor="middle" x="-76.4567" y="122.199" font-family="monospace" font-size="6.00">V1853I</text>
</g>
<!-- 15&#45;&gt;9 -->
<g id="edge56" class="edge"><title>15&#45;&gt;9</title>
<path fill="none" stroke="black" d="M-42.6934,200.922C-52.7597,210.122 -66.0666,222.283 -73.9678,229.503"/>
<polygon fill="black" stroke="black" points="-72.8749,230.875 -77.7464,232.957 -75.236,228.292 -72.8749,230.875"/>
<text text-anchor="middle" x="-79.3306" y="213.013" font-family="monospace" font-size="6.00">2360225:G&gt;A</text>
</g>
<!-- 15&#45;&gt;12 -->
<g id="edge57" class="edge"><title>15&#45;&gt;12</title>
<path fill="none" stroke="black" d="M-14.7159,199.644C-4.59634,207.424 8.49915,217.491 16.4841,223.629"/>
<polygon fill="black" stroke="black" points="17.8257,222.453 20.7231,226.888 15.6925,225.228 17.8257,222.453"/>
<text text-anchor="middle" x="-20.1159" y="216.437" font-family="monospace" font-size="6.00">2382425:A&gt;T</text>
</g>
<!-- anon_15_23_0 -->
<g id="node69" class="node"><title>anon_15_23_0</title>
<ellipse fill="white" stroke="black" cx="-26.9802" cy="255.153" rx="2.5" ry="2.5"/>
</g>
<!-- 15&#45;&gt;anon_15_23_0 -->
<g id="edge61" class="edge"><title>15&#45;&gt;anon_15_23_0</title>
<path fill="none" stroke="black" d="M-28.5581,206.747C-28.1256,220.016 -27.5607,237.344 -27.2375,247.261"/>
<polygon fill="black" stroke="black" points="-25.4847,247.321 -27.0707,252.375 -28.9828,247.435 -25.4847,247.321"/>
<text text-anchor="middle" x="-48.8978" y="224.804" font-family="monospace" font-size="6.00">2360354:C&gt;T</text>
</g>
<!-- 33 -->
<g id="node34" class="node"><title>33</title>
<ellipse fill="deepskyblue" stroke="black" cx="-110.341" cy="-159.025" rx="3.5" ry="3.5"/>
</g>
<!-- 19&#45;&gt;33 -->
<g id="edge64" class="edge"><title>19&#45;&gt;33</title>
<path fill="none" stroke="black" d="M-80.3495,-110.673C-87.5447,-122.273 -99.3139,-141.247 -105.762,-151.642"/>
<polygon fill="black" stroke="black" points="-107.308,-150.815 -108.456,-155.986 -104.333,-152.66 -107.308,-150.815"/>
<text text-anchor="middle" x="-114.056" y="-133.357" font-family="monospace" font-size="6.00">2376264:A&gt;G</text>
</g>
<!-- 20 -->
<g id="node21" class="node"><title>20</title>
<ellipse fill="deepskyblue" stroke="black" cx="-160.639" cy="204.676" rx="3.5" ry="3.5"/>
</g>
<!-- 22 -->
<g id="node23" class="node"><title>22</title>
<ellipse fill="deepskyblue" stroke="black" cx="-84.0428" cy="-231.218" rx="3.5" ry="3.5"/>
</g>
<!-- 22&#45;&gt;0 -->
<g id="edge2" class="edge"><title>22&#45;&gt;0</title>
<path fill="none" stroke="black" d="M-83.1341,-227.635C-81.2717,-220.292 -76.8615,-202.902 -72.881,-187.207"/>
<polygon fill="black" stroke="black" points="-71.0848,-187.243 -71.5519,-181.967 -74.4774,-186.383 -71.0848,-187.243"/>
<text text-anchor="middle" x="-99.0075" y="-209.621" font-family="monospace" font-size="6.00">2374779:A&gt;T</text>
</g>
<!-- 23 -->
<g id="node24" class="node"><title>23</title>
<ellipse fill="deepskyblue" stroke="black" cx="-27.3328" cy="344.705" rx="3.5" ry="3.5"/>
</g>
<!-- 27 -->
<g id="node28" class="node"><title>27</title>
<ellipse fill="#ff3030" stroke="black" cx="-225.855" cy="-4.25679" rx="5" ry="5"/>
<text text-anchor="middle" x="-225.855" y="-2.95679" font-family="monospace" font-size="6.00">2</text>
</g>
<!-- 31&#45;&gt;61 -->
<g id="edge73" class="edge"><title>31&#45;&gt;61</title>
<path fill="none" stroke="black" stroke-dasharray="5,2" d="M-74.2643,95.9866C-77.479,106.709 -82.0672,122.012 -84.7699,131.027"/>
<polygon fill="black" stroke="black" points="-83.128,131.645 -86.2403,135.931 -86.4806,130.639 -83.128,131.645"/>
<text text-anchor="middle" x="-70.0171" y="111.307" font-family="monospace" font-size="6.00">T791M</text>
</g>
<!-- 32 -->
<g id="node33" class="node"><title>32</title>
<ellipse fill="#ff3030" stroke="black" cx="-170.33" cy="20.5821" rx="3.5" ry="3.5"/>
</g>
<!-- 32&#45;&gt;5 -->
<g id="edge34" class="edge"><title>32&#45;&gt;5</title>
<path fill="none" stroke="black" d="M-169.667,17.0104C-168.61,11.3187 -166.46,-0.257814 -164.478,-10.9306"/>
<polygon fill="black" stroke="black" points="-166.158,-11.4712 -163.524,-16.0677 -162.717,-10.8322 -166.158,-11.4712"/>
<text text-anchor="middle" x="-188.073" y="7.83988" font-family="monospace" font-size="6.00">2358667:T&gt;A</text>
</g>
<!-- 35 -->
<g id="node36" class="node"><title>35</title>
<ellipse fill="#ff3030" stroke="black" cx="189.828" cy="115.863" rx="3.5" ry="3.5"/>
</g>
<!-- 37 -->
<g id="node38" class="node"><title>37</title>
<ellipse fill="#ff3030" stroke="black" cx="-229.813" cy="-118.803" rx="3.5" ry="3.5"/>
</g>
<!-- 38 -->
<g id="node39" class="node"><title>38</title>
<ellipse fill="#ff3030" stroke="black" cx="-226.538" cy="-51.7945" rx="3.5" ry="3.5"/>
</g>
<!-- 38&#45;&gt;5 -->
<g id="edge35" class="edge"><title>38&#45;&gt;5</title>
<path fill="none" stroke="black" d="M-222.973,-50.83C-215.431,-48.7899 -197.338,-43.8955 -182.508,-39.8836"/>
<polygon fill="black" stroke="black" points="-181.993,-41.5573 -177.624,-38.5623 -182.907,-38.1787 -181.993,-41.5573"/>
<text text-anchor="middle" x="-223.74" y="-40.5568" font-family="monospace" font-size="6.00">2362259:C&gt;G</text>
</g>
<!-- 40 -->
<g id="node41" class="node"><title>40</title>
<ellipse fill="deepskyblue" stroke="black" cx="190.942" cy="-170.52" rx="3.5" ry="3.5"/>
</g>
<!-- 42 -->
<g id="node43" class="node"><title>42</title>
<ellipse fill="#1874cd" stroke="black" cx="273.015" cy="-42.1938" rx="3.5" ry="3.5"/>
</g>
<!-- 43 -->
<g id="node44" class="node"><title>43</title>
<ellipse fill="#1874cd" stroke="black" cx="199.756" cy="-84.3099" rx="3.5" ry="3.5"/>
</g>
<!-- 43&#45;&gt;3 -->
<g id="edge23" class="edge"><title>43&#45;&gt;3</title>
<path fill="none" stroke="black" d="M196.847,-82.0965C189.846,-76.7683 171.396,-62.7278 154.713,-50.0318"/>
<polygon fill="black" stroke="black" points="155.556,-48.4745 150.518,-46.8391 153.437,-51.2597 155.556,-48.4745"/>
<text text-anchor="middle" x="196.78" y="-61.2642" font-family="monospace" font-size="6.00">2362259:C&gt;G</text>
</g>
<!-- 45 -->
<g id="node46" class="node"><title>45</title>
<ellipse fill="#1874cd" stroke="black" cx="238.457" cy="74.0605" rx="3.5" ry="3.5"/>
</g>
<!-- 46&#45;&gt;42 -->
<g id="edge68" class="edge"><title>46&#45;&gt;42</title>
<path fill="none" stroke="black" d="M229.017,-37.3684C236.584,-38.1983 253.866,-40.0937 264.378,-41.2465"/>
<polygon fill="black" stroke="black" points="264.256,-42.9935 269.417,-41.7992 264.637,-39.5144 264.256,-42.9935"/>
<text text-anchor="middle" x="267.697" y="-34.5075" font-family="monospace" font-size="6.00">2360151:T&gt;A</text>
</g>
<!-- 48 -->
<g id="node49" class="node"><title>48</title>
<ellipse fill="brown" stroke="black" cx="-116.792" cy="30.4278" rx="6" ry="6"/>
<text text-anchor="middle" x="-116.792" y="31.7278" font-family="monospace" font-size="6.00">3</text>
</g>
<!-- 48&#45;&gt;6 -->
<g id="edge49" class="edge"><title>48&#45;&gt;6</title>
<path fill="none" stroke="black" d="M-111.244,27.648C-103.608,23.8223 -89.2241,16.6151 -75.3404,9.65856"/>
<polygon fill="black" stroke="black" points="-75.9159,7.98956 -70.6616,7.31426 -74.3479,11.1187 -75.9159,7.98956"/>
<text text-anchor="middle" x="-114.292" y="16.4533" font-family="monospace" font-size="6.00">2358667:T&gt;A</text>
</g>
<!-- 48&#45;&gt;11 -->
<g id="edge72" class="edge"><title>48&#45;&gt;11</title>
<path fill="none" stroke="black" stroke-dasharray="5,2" d="M-121.369,34.3771C-128.788,40.778 -143.497,53.4691 -152.339,61.098"/>
<polygon fill="black" stroke="black" points="-151.636,62.8022 -156.565,64.7435 -153.922,60.1522 -151.636,62.8022"/>
<text text-anchor="middle" x="-148.354" y="45.5376" font-family="monospace" font-size="6.00">P1874L</text>
</g>
<!-- 48&#45;&gt;32 -->
<g id="edge74" class="edge"><title>48&#45;&gt;32</title>
<path fill="none" stroke="black" stroke-dasharray="5,2" d="M-122.933,29.2984C-132.388,27.5596 -150.556,24.2186 -161.445,22.216"/>
<polygon fill="black" stroke="black" points="-162.044,23.8854 -166.645,21.2598 -161.411,20.4431 -162.044,23.8854"/>
<text text-anchor="middle" x="-153.689" y="23.5572" font-family="monospace" font-size="6.00">P1874S</text>
</g>
<!-- 49 -->
<g id="node50" class="node"><title>49</title>
<ellipse fill="brown" stroke="black" cx="-34.1998" cy="-135.996" rx="3.5" ry="3.5"/>
</g>
<!-- 49&#45;&gt;anon_6_49_0 -->
<g id="edge51" class="edge"><title>49&#45;&gt;anon_6_49_0</title>
<path fill="none" stroke="black" d="M-34.1014,-132.496C-33.8616,-123.969 -33.2429,-101.964 -32.9136,-90.2504"/>
<polygon fill="black" stroke="black" points="-31.1626,-90.2365 -32.7713,-85.1893 -34.6612,-90.1381 -31.1626,-90.2365"/>
<text text-anchor="middle" x="-12.5075" y="-113.573" font-family="monospace" font-size="6.00">2417127:T&gt;A</text>
</g>
<!-- 50&#45;&gt;41 -->
<g id="edge75" class="edge"><title>50&#45;&gt;41</title>
<path fill="none" stroke="black" stroke-dasharray="5,2" d="M30.6534,-67.6953C39.0141,-63.5753 52.4561,-56.9514 60.9049,-52.788"/>
<polygon fill="black" stroke="black" points="61.7187,-54.3379 65.4302,-50.558 60.1716,-51.1984 61.7187,-54.3379"/>
<text text-anchor="middle" x="34.2791" y="-55.4416" font-family="monospace" font-size="6.00">N1570Y</text>
</g>
<!-- 52 -->
<g id="node53" class="node"><title>52</title>
<ellipse fill="brown" stroke="black" cx="39.9462" cy="-126.82" rx="3.5" ry="3.5"/>
</g>
<!-- 50&#45;&gt;52 -->
<g id="edge69" class="edge"><title>50&#45;&gt;52</title>
<path fill="none" stroke="black" d="M25.477,-79.1039C28.6106,-89.4378 34.1542,-107.719 37.394,-118.403"/>
<polygon fill="black" stroke="black" points="35.7275,-118.939 38.8532,-123.216 39.0769,-117.923 35.7275,-118.939"/>
<text text-anchor="middle" x="10.4355" y="-93.9536" font-family="monospace" font-size="6.00">2403047:T&gt;A</text>
</g>
<!-- 53 -->
<g id="node54" class="node"><title>53</title>
<ellipse fill="brown" stroke="black" cx="15.421" cy="-132.013" rx="3.5" ry="3.5"/>
</g>
<!-- 50&#45;&gt;53 -->
<g id="edge70" class="edge"><title>50&#45;&gt;53</title>
<path fill="none" stroke="black" d="M22.0992,-79.5725C20.6554,-90.9102 18.0545,-111.334 16.5602,-123.067"/>
<polygon fill="black" stroke="black" points="14.7874,-123.136 15.8917,-128.317 18.2594,-123.578 14.7874,-123.136"/>
<text text-anchor="middle" x="-1.67029" y="-103.52" font-family="monospace" font-size="6.00">2426642:T&gt;C</text>
</g>
<!-- 54 -->
<g id="node55" class="node"><title>54</title>
<ellipse fill="brown" stroke="black" cx="-54.2048" cy="-39.875" rx="3.5" ry="3.5"/>
</g>
<!-- 54&#45;&gt;6 -->
<g id="edge54" class="edge"><title>54&#45;&gt;6</title>
<path fill="none" stroke="black" d="M-52.6472,-36.4878C-52.6178,-36.424 -52.5882,-36.3595 -52.5582,-36.2943"/>
<polygon fill="black" stroke="black" points="-52.9675,-41.371 -52.4672,-36.0965 -56.1476,-39.9077 -52.9675,-41.371"/>
<text text-anchor="middle" x="-73.6027" y="-31.591" font-family="monospace" font-size="6.00">2410330:C&gt;T</text>
</g>
<!-- 60&#45;&gt;37 -->
<g id="edge67" class="edge"><title>60&#45;&gt;37</title>
<path fill="none" stroke="black" d="M-190.744,-92.3851C-196.563,-96.3202 -212.475,-107.08 -222.103,-113.589"/>
<polygon fill="black" stroke="black" points="-223.316,-112.297 -226.478,-116.548 -221.356,-115.196 -223.316,-112.297"/>
<text text-anchor="middle" x="-227.423" y="-105.187" font-family="monospace" font-size="6.00">2425696:G&gt;C</text>
</g>
<!-- anon_20_61_0 -->
<g id="node71" class="node"><title>anon_20_61_0</title>
<ellipse fill="white" stroke="black" cx="-124.526" cy="171.169" rx="2.5" ry="2.5"/>
</g>
<!-- 61&#45;&gt;anon_20_61_0 -->
<g id="edge66" class="edge"><title>61&#45;&gt;anon_20_61_0</title>
<path fill="none" stroke="black" d="M-89.02,140.231C-94.466,144.977 -109.637,158.195 -118.283,165.729"/>
<polygon fill="black" stroke="black" points="-117.393,167.274 -122.312,169.24 -119.692,164.636 -117.393,167.274"/>
<text text-anchor="middle" x="-115.152" y="150.78" font-family="monospace" font-size="6.00">L1366F</text>
</g>
<!-- anon_3_35_0&#45;&gt;35 -->
<g id="edge18" class="edge"><title>anon_3_35_0&#45;&gt;35</title>
<path fill="none" stroke="black" d="M160.088,78.7462C164.559,84.3257 176.853,99.6699 184.159,108.788"/>
<polygon fill="black" stroke="black" points="185.528,107.698 187.289,112.694 182.797,109.887 185.528,107.698"/>
<text text-anchor="middle" x="151.124" y="91.5672" font-family="monospace" font-size="6.00">2407846:C&gt;G</text>
</g>
<!-- anon_3_40_0&#45;&gt;40 -->
<g id="edge21" class="edge"><title>anon_3_40_0&#45;&gt;40</title>
<path fill="none" stroke="black" d="M165.241,-132.583C169.07,-138.234 179.537,-153.685 185.87,-163.034"/>
<polygon fill="black" stroke="black" points="184.495,-164.124 188.748,-167.282 187.393,-162.161 184.495,-164.124"/>
<text text-anchor="middle" x="166.056" y="-150.008" font-family="monospace" font-size="6.00">P940H</text>
</g>
<!-- anon_3_45_0&#45;&gt;45 -->
<g id="edge26" class="edge"><title>anon_3_45_0&#45;&gt;45</title>
<path fill="none" stroke="black" d="M198.286,50.238C204.328,53.8214 220.952,63.6798 230.819,69.5309"/>
<polygon fill="black" stroke="black" points="231.863,68.1152 235.271,72.1708 230.077,71.1256 231.863,68.1152"/>
<text text-anchor="middle" x="193.552" y="57.6844" font-family="monospace" font-size="6.00">2394110:C&gt;T</text>
</g>
<!-- anon_6_27_1 -->
<g id="node67" class="node"><title>anon_6_27_1</title>
<ellipse fill="white" stroke="black" cx="-169.618" cy="-2.78104" rx="2.5" ry="2.5"/>
</g>
<!-- anon_6_27_0&#45;&gt;anon_6_27_1 -->
<g id="edge45" class="edge"><title>anon_6_27_0&#45;&gt;anon_6_27_1</title>
<path fill="none" stroke="black" d="M-117.442,-5.65727C-125.382,-5.21957 -149.24,-3.90439 -161.757,-3.21439"/>
<polygon fill="black" stroke="black" points="-161.783,-1.46041 -166.871,-2.93246 -161.975,-4.95511 -161.783,-1.46041"/>
<text text-anchor="middle" x="-139.599" y="0.364171" font-family="monospace" font-size="6.00">2362003:C&gt;T</text>
</g>
<!-- anon_6_27_1&#45;&gt;27 -->
<g id="edge46" class="edge"><title>anon_6_27_1&#45;&gt;27</title>
<path fill="none" stroke="black" d="M-172.33,-2.85222C-180.01,-3.05374 -202.202,-3.6361 -215.477,-3.98445"/>
<polygon fill="black" stroke="black" points="-215.6,-2.23697 -220.552,-4.11762 -215.508,-5.73576 -215.6,-2.23697"/>
<text text-anchor="middle" x="-201.904" y="-5.61834" font-family="monospace" font-size="6.00">G54C</text>
</g>
<!-- anon_15_23_1 -->
<g id="node70" class="node"><title>anon_15_23_1</title>
<ellipse fill="white" stroke="black" cx="-27.7833" cy="300.402" rx="2.5" ry="2.5"/>
</g>
<!-- anon_15_23_0&#45;&gt;anon_15_23_1 -->
<g id="edge62" class="edge"><title>anon_15_23_0&#45;&gt;anon_15_23_1</title>
<path fill="none" stroke="black" d="M-27.028,257.848C-27.1477,264.591 -27.4637,282.391 -27.6468,292.708"/>
<polygon fill="black" stroke="black" points="-25.8982,292.809 -27.7367,297.777 -29.3976,292.747 -25.8982,292.809"/>
<text text-anchor="middle" x="-36.8374" y="273.078" font-family="monospace" font-size="6.00">Q545L</text>
</g>
<!-- anon_15_23_1&#45;&gt;23 -->
<g id="edge63" class="edge"><title>anon_15_23_1&#45;&gt;23</title>
<path fill="none" stroke="black" d="M-27.7565,303.04C-27.6919,309.394 -27.5254,325.771 -27.4214,335.999"/>
<polygon fill="black" stroke="black" points="-25.6696,336.17 -27.3686,341.187 -29.1694,336.205 -25.6696,336.17"/>
<text text-anchor="middle" x="-48.5889" y="317.319" font-family="monospace" font-size="6.00">2415877:C&gt;T</text>
</g>
<!-- anon_20_61_0&#45;&gt;20 -->
<g id="edge65" class="edge"><title>anon_20_61_0&#45;&gt;20</title>
<path fill="none" stroke="black" d="M-126.468,172.97C-131.511,177.65 -145.221,190.37 -153.663,198.203"/>
<polygon fill="black" stroke="black" points="-152.867,199.851 -157.722,201.969 -155.247,197.286 -152.867,199.851"/>
<text text-anchor="middle" x="-161.065" y="183.387" font-family="monospace" font-size="6.00">2384348:T&gt;G</text>
</g>
</g>
</svg>
