<?xml version="1.0" encoding="UTF-8" standalone="no"?>
<!DOCTYPE svg PUBLIC "-//W3C//DTD SVG 1.1//EN"
 "http://www.w3.org/Graphics/SVG/1.1/DTD/svg11.dtd">
<!-- Generated by graphviz version 2.38.0 (20140413.2041)
 -->
<!-- Title: %3 Pages: 1 -->
<svg width="146pt" height="158pt"
 viewBox="0.00 0.00 145.65 157.55" xmlns="http://www.w3.org/2000/svg" xmlns:xlink="http://www.w3.org/1999/xlink">
<g id="graph0" class="graph" transform="scale(1 1) rotate(0) translate(72.8964 82.7834)">
<title>%3</title>
<polygon fill="white" stroke="none" points="-72.8964,74.77 -72.8964,-82.7834 72.7579,-82.7834 72.7579,74.77 -72.8964,74.77"/>
<!-- 0 -->
<g id="node1" class="node"><title>0</title>
<ellipse fill="#1874cd" stroke="black" cx="-61.8964" cy="16.1867" rx="7" ry="7"/>
<text text-anchor="middle" x="-61.8964" y="17.4867" font-family="monospace" font-size="6.00">8</text>
</g>
<!-- 4 -->
<g id="node5" class="node"><title>4</title>
<ellipse fill="#1874cd" stroke="black" cx="-8.07142" cy="22.2939" rx="4.5" ry="4.5"/>
<text text-anchor="middle" x="-8.07142" y="23.5939" font-family="monospace" font-size="6.00">3</text>
</g>
<!-- 0&#45;&gt;4 -->
<g id="edge1" class="edge"><title>0&#45;&gt;4</title>
<path fill="none" stroke="black" d="M-54.8597,16.9851C-43.6893,18.2525 -22.1971,20.6912 -12.7363,21.7646"/>
</g>
<!-- 1 -->
<g id="node2" class="node"><title>1</title>
<ellipse fill="#1874cd" stroke="black" cx="12.486" cy="-30.2001" rx="8.5" ry="8.5"/>
<text text-anchor="middle" x="12.486" y="-28.9001" font-family="monospace" font-size="6.00">11</text>
</g>
<!-- 3 -->
<g id="node4" class="node"><title>3</title>
<ellipse fill="#1874cd" stroke="black" cx="63.7579" cy="-49.8058" rx="5" ry="5"/>
<text text-anchor="middle" x="63.7579" y="-48.5058" font-family="monospace" font-size="6.00">4</text>
</g>
<!-- 1&#45;&gt;3 -->
<g id="edge2" class="edge"><title>1&#45;&gt;3</title>
<path fill="none" stroke="black" d="M20.4972,-33.2635C29.6225,-36.7529 44.5224,-42.4504 54.2342,-46.1641"/>
<polygon fill="black" stroke="black" points="53.731,-47.8452 59.0263,-47.9965 54.9811,-44.5761 53.731,-47.8452"/>
<text text-anchor="middle" x="28.4957" y="-42.9195" font-family="monospace" font-size="6.00">V1681I</text>
</g>
<!-- 1&#45;&gt;4 -->
<g id="edge3" class="edge"><title>1&#45;&gt;4</title>
<path fill="none" stroke="black" d="M9.27388,-21.9979C4.84721,-10.6942 -2.96862,9.26376 -6.38912,17.9981"/>
</g>
<!-- 5 -->
<g id="node6" class="node"><title>5</title>
<ellipse fill="#1874cd" stroke="black" cx="-11.0879" cy="-76.2834" rx="2.5" ry="2.5"/>
</g>
<!-- 1&#45;&gt;5 -->
<g id="edge4" class="edge"><title>1&#45;&gt;5</title>
<path fill="none" stroke="black" d="M8.59322,-37.8098C4.17305,-46.4505 -2.98828,-60.4498 -7.34525,-68.967"/>
<polygon fill="black" stroke="black" points="-9.12626,-68.6061 -9.84542,-73.8545 -6.01028,-70.2001 -9.12626,-68.6061"/>
<text text-anchor="middle" x="-12.25" y="-58.2743" font-family="monospace" font-size="6.00">L1617F</text>
</g>
<!-- 2 -->
<g id="node3" class="node"><title>2</title>
<ellipse fill="#1874cd" stroke="black" cx="30.9329" cy="50.5387" rx="2.5" ry="2.5"/>
</g>
<!-- 2&#45;&gt;4 -->
<g id="edge5" class="edge"><title>2&#45;&gt;4</title>
<path fill="none" stroke="black" d="M28.8358,49.0201C22.6331,44.5284 4.29393,31.2482 -3.96181,25.2699"/>
</g>
<!-- 6 -->
<g id="node7" class="node"><title>6</title>
<ellipse fill="#1874cd" stroke="black" cx="-26.1211" cy="67.27" rx="3.5" ry="3.5"/>
<text text-anchor="middle" x="-26.1211" y="68.57" font-family="monospace" font-size="6.00">2</text>
</g>
<!-- 4&#45;&gt;6 -->
<g id="edge6" class="edge"><title>4&#45;&gt;6</title>
<path fill="none" stroke="black" d="M-9.86808,26.7708C-12.8497,34.2003 -18.8689,49.199 -22.6865,58.7116"/>
<polygon fill="black" stroke="black" points="-21.1538,59.5913 -24.6402,63.5798 -24.402,58.2878 -21.1538,59.5913"/>
<text text-anchor="middle" x="-28.795" y="43.0772" font-family="monospace" font-size="6.00">S2076T</text>
</g>
</g>
</svg>
