<?xml version="1.0" encoding="UTF-8" standalone="no"?>
<!DOCTYPE svg PUBLIC "-//W3C//DTD SVG 1.1//EN"
 "http://www.w3.org/Graphics/SVG/1.1/DTD/svg11.dtd">
<!-- Generated by graphviz version 2.38.0 (20140413.2041)
 -->
<!-- Title: %3 Pages: 1 -->
<svg width="147pt" height="162pt"
 viewBox="0.00 0.00 146.62 161.85" xmlns="http://www.w3.org/2000/svg" xmlns:xlink="http://www.w3.org/1999/xlink">
<g id="graph0" class="graph" transform="scale(1 1) rotate(0) translate(85.1619 80.0261)">
<title>%3</title>
<polygon fill="white" stroke="none" points="-85.1619,81.826 -85.1619,-80.0261 61.4611,-80.0261 61.4611,81.826 -85.1619,81.826"/>
<!-- 0 -->
<g id="node1" class="node"><title>0</title>
<ellipse fill="#1874cd" stroke="black" cx="-0.483203" cy="-0.317852" rx="8" ry="8"/>
<text text-anchor="middle" x="-0.483203" y="0.982148" font-family="monospace" font-size="6.00">10</text>
</g>
<!-- 2 -->
<g id="node3" class="node"><title>2</title>
<ellipse fill="#1874cd" stroke="black" cx="43.5868" cy="30.116" rx="2.5" ry="2.5"/>
</g>
<!-- 0&#45;&gt;2 -->
<g id="edge3" class="edge"><title>0&#45;&gt;2</title>
<path fill="none" stroke="black" d="M6.40273,4.43744C14.7425,10.1967 28.6937,19.8312 36.9294,25.5186"/>
<polygon fill="black" stroke="black" points="38.0975,24.1985 41.2174,28.4798 36.1086,27.0785 38.0975,24.1985"/>
<text text-anchor="middle" x="2.78663" y="14.2424" font-family="monospace" font-size="6.00">2366732:C&gt;A</text>
</g>
<!-- 3 -->
<g id="node4" class="node"><title>3</title>
<ellipse fill="#1874cd" stroke="black" cx="-44.5364" cy="-30.8231" rx="2.5" ry="2.5"/>
</g>
<!-- 0&#45;&gt;3 -->
<g id="edge4" class="edge"><title>0&#45;&gt;3</title>
<path fill="none" stroke="black" d="M-7.36652,-5.08429C-15.7031,-10.8571 -29.649,-20.5141 -37.8816,-26.2148"/>
<polygon fill="black" stroke="black" points="-39.0535,-24.8977 -42.1679,-29.183 -37.061,-27.7752 -39.0535,-24.8977"/>
<text text-anchor="middle" x="-45.7438" y="-19.3174" font-family="monospace" font-size="6.00">2385769:G&gt;T</text>
</g>
<!-- anon_0_1_0 -->
<g id="node6" class="node"><title>anon_0_1_0</title>
<ellipse fill="white" stroke="black" cx="27.6315" cy="-41.1283" rx="1" ry="1"/>
</g>
<!-- 0&#45;&gt;anon_0_1_0 -->
<g id="edge1" class="edge"><title>0&#45;&gt;anon_0_1_0</title>
<path fill="none" stroke="black" d="M4.15937,-7.05687C9.72729,-15.1391 18.9422,-28.5152 24.0113,-35.8733"/>
<polygon fill="black" stroke="black" points="22.6727,-37.015 26.9505,-40.1397 25.555,-35.0294 22.6727,-37.015"/>
<text text-anchor="middle" x="36.4611" y="-25.6621" font-family="monospace" font-size="6.00">2392697:G&gt;A</text>
</g>
<!-- anon_0_4_0 -->
<g id="node7" class="node"><title>anon_0_4_0</title>
<ellipse fill="white" stroke="black" cx="-28.7913" cy="40.3533" rx="1" ry="1"/>
</g>
<!-- 0&#45;&gt;anon_0_4_0 -->
<g id="edge5" class="edge"><title>0&#45;&gt;anon_0_4_0</title>
<path fill="none" stroke="black" d="M-5.15772,6.39816C-10.7639,14.4528 -20.0423,27.7833 -25.1462,35.1163"/>
<polygon fill="black" stroke="black" points="-23.8129,36.264 -28.1056,39.3681 -26.6856,34.2645 -23.8129,36.264"/>
<text text-anchor="middle" x="-37.5372" y="27.5474" font-family="monospace" font-size="6.00">2366788:C&gt;T</text>
</g>
<!-- 1 -->
<g id="node2" class="node"><title>1</title>
<ellipse fill="#1874cd" stroke="black" cx="52.6418" cy="-73.5261" rx="2.5" ry="2.5"/>
</g>
<!-- 4 -->
<g id="node5" class="node"><title>4</title>
<ellipse fill="#1874cd" stroke="black" cx="-50.0491" cy="75.326" rx="2.5" ry="2.5"/>
</g>
<!-- anon_0_1_0&#45;&gt;1 -->
<g id="edge2" class="edge"><title>anon_0_1_0&#45;&gt;1</title>
<path fill="none" stroke="black" d="M28.2497,-41.9291C30.891,-45.3506 41.3813,-58.9396 47.7129,-67.1414"/>
<polygon fill="black" stroke="black" points="46.5698,-68.5244 51.0104,-71.4129 49.3403,-66.3857 46.5698,-68.5244"/>
<text text-anchor="middle" x="18.8327" y="-59.1335" font-family="monospace" font-size="6.00">2407710:C&gt;T</text>
</g>
<!-- anon_0_4_0&#45;&gt;4 -->
<g id="edge6" class="edge"><title>anon_0_4_0&#45;&gt;4</title>
<path fill="none" stroke="black" d="M-29.3168,41.2178C-31.5618,44.9111 -40.4782,59.5802 -45.8598,68.4338"/>
<polygon fill="black" stroke="black" points="-44.57,69.6812 -48.6625,73.0448 -47.5608,67.8632 -44.57,69.6812"/>
<text text-anchor="middle" x="-60.1619" y="55.2146" font-family="monospace" font-size="6.00">2428746:A&gt;T</text>
</g>
</g>
</svg>
