<?xml version="1.0" encoding="UTF-8" standalone="no"?>
<!DOCTYPE svg PUBLIC "-//W3C//DTD SVG 1.1//EN"
 "http://www.w3.org/Graphics/SVG/1.1/DTD/svg11.dtd">
<!-- Generated by graphviz version 2.38.0 (20140413.2041)
 -->
<!-- Title: %3 Pages: 1 -->
<svg width="478pt" height="513pt"
 viewBox="0.00 0.00 477.69 512.76" xmlns="http://www.w3.org/2000/svg" xmlns:xlink="http://www.w3.org/1999/xlink">
<g id="graph0" class="graph" transform="scale(1 1) rotate(0) translate(220.088 203.648)">
<title>%3</title>
<polygon fill="white" stroke="none" points="-220.088,309.111 -220.088,-203.648 257.601,-203.648 257.601,309.111 -220.088,309.111"/>
<!-- 0 -->
<g id="node1" class="node"><title>0</title>
<path fill="#98f5ff" stroke="black" stroke-width="0.5" d="M-52.3933,-128.437C-52.3933,-128.437 -34.3933,-128.437 -34.3933,-128.437 -34.3933,-129.475 -34.483,-130.51 -34.6613,-131.532 -34.8397,-132.554 -35.106,-133.559 -35.4574,-134.535 -35.8088,-135.511 -36.244,-136.454 -36.7579,-137.356 -37.2719,-138.257 -37.8628,-139.112 -38.5241,-139.911 -39.1853,-140.71 -39.9144,-141.451 -40.7032,-142.125 -41.492,-142.798 -42.3376,-143.403 -43.2305,-143.931 -44.1235,-144.459 -45.0603,-144.909 -46.0307,-145.275 -47.0011,-145.642 -48.0014,-145.924 -49.0204,-146.119 -49.0204,-146.119 -52.3933,-128.437 -52.3933,-128.437"/>
<path fill="deepskyblue" stroke="black" stroke-width="0.5" d="M-52.3933,-128.437C-52.3933,-128.437 -49.0204,-146.119 -49.0204,-146.119 -49.9235,-146.291 -50.8385,-146.394 -51.7573,-146.426 -52.676,-146.459 -53.596,-146.421 -54.509,-146.313 -55.422,-146.205 -56.3253,-146.027 -57.2112,-145.781 -58.097,-145.535 -58.9626,-145.221 -59.8006,-144.843 -60.6385,-144.464 -61.4462,-144.022 -62.2165,-143.521 -62.9869,-143.019 -63.7178,-142.459 -64.4026,-141.845 -65.0874,-141.232 -65.7242,-140.567 -66.3075,-139.856 -66.8907,-139.146 -67.4187,-138.391 -67.8866,-137.6 -68.3546,-136.809 -68.7613,-135.983 -69.1031,-135.129 -69.4449,-134.276 -69.7208,-133.397 -69.9284,-132.502 -70.136,-131.606 -70.2747,-130.696 -70.3432,-129.779 -70.4117,-128.862 -70.4099,-127.942 -70.3378,-127.025 -70.2657,-126.109 -70.1234,-125.199 -69.9123,-124.304 -69.7012,-123.409 -69.4219,-122.532 -69.0767,-121.68 -68.7316,-120.828 -68.3216,-120.003 -67.8505,-119.214 -67.3794,-118.424 -66.8486,-117.672 -66.2625,-116.964 -65.6765,-116.255 -65.0371,-115.593 -64.3498,-114.982 -63.6626,-114.371 -62.9296,-113.814 -62.1572,-113.316 -61.3849,-112.817 -60.5755,-112.378 -59.7361,-112.003 -58.8967,-111.628 -58.0298,-111.318 -57.143,-111.075 -56.2562,-110.833 -55.3522,-110.658 -54.4388,-110.554 -53.5253,-110.449 -52.6053,-110.415 -51.6866,-110.451 -50.768,-110.487 -49.8534,-110.594 -48.951,-110.77 -48.0486,-110.945 -47.161,-111.19 -46.296,-111.501 -45.431,-111.813 -44.5911,-112.19 -43.7837,-112.63 -42.9764,-113.07 -42.2039,-113.571 -41.473,-114.128 -40.7422,-114.686 -40.0551,-115.299 -39.4179,-115.962 -38.7807,-116.624 -38.1952,-117.335 -37.6666,-118.087 -37.138,-118.839 -36.6677,-119.631 -36.26,-120.455 -35.8523,-121.279 -35.5083,-122.133 -35.2311,-123.01 -34.9539,-123.886 -34.7442,-124.783 -34.604,-125.691 -34.4637,-126.6 -34.3933,-127.518 -34.3933,-128.437 -34.3933,-128.437 -52.3933,-128.437 -52.3933,-128.437"/>
<ellipse fill="none" stroke="black" cx="-52.3933" cy="-128.437" rx="18" ry="18"/>
<text text-anchor="middle" x="-52.3933" y="-127.137" font-family="monospace" font-size="6.00">50</text>
</g>
<!-- 24 -->
<g id="node25" class="node"><title>24</title>
<ellipse fill="deepskyblue" stroke="black" cx="-107.3" cy="-178.425" rx="2.5" ry="2.5"/>
</g>
<!-- 0&#45;&gt;24 -->
<g id="edge3" class="edge"><title>0&#45;&gt;24</title>
<path fill="none" stroke="black" d="M-65.9656,-140.794C-77.3265,-151.137 -92.9913,-165.398 -101.399,-173.053"/>
<polygon fill="black" stroke="black" points="-102.73,-171.898 -105.25,-176.558 -100.374,-174.486 -102.73,-171.898"/>
<text text-anchor="middle" x="-93.3874" y="-160.676" font-family="monospace" font-size="6.00">P55L</text>
</g>
<!-- 58 -->
<g id="node59" class="node"><title>58</title>
<ellipse fill="black" stroke="black" cx="-25.5748" cy="-197.148" rx="2.5" ry="2.5"/>
</g>
<!-- 0&#45;&gt;58 -->
<g id="edge4" class="edge"><title>0&#45;&gt;58</title>
<path fill="none" stroke="black" d="M-45.764,-145.422C-40.2149,-159.639 -32.5636,-179.242 -28.457,-189.763"/>
<polygon fill="black" stroke="black" points="-30.0244,-190.561 -26.5761,-194.582 -26.764,-189.288 -30.0244,-190.561"/>
<text text-anchor="middle" x="-57.2776" y="-164.926" font-family="monospace" font-size="6.00">2415120:T&gt;A</text>
</g>
<!-- 1 -->
<g id="node2" class="node"><title>1</title>
<ellipse fill="deepskyblue" stroke="black" cx="140.216" cy="-19.3281" rx="2.5" ry="2.5"/>
</g>
<!-- 2 -->
<g id="node3" class="node"><title>2</title>
<ellipse fill="#ff3030" stroke="black" cx="-100.938" cy="-59.0363" rx="10" ry="10"/>
<text text-anchor="middle" x="-100.938" y="-57.7363" font-family="monospace" font-size="6.00">15</text>
</g>
<!-- 60 -->
<g id="node61" class="node"><title>60</title>
<ellipse fill="white" stroke="black" cx="-155.067" cy="-85.6927" rx="1" ry="1"/>
</g>
<!-- 2&#45;&gt;60 -->
<g id="edge7" class="edge"><title>2&#45;&gt;60</title>
<path fill="none" stroke="black" d="M-110.366,-63.6795C-121.498,-69.1613 -139.68,-78.1149 -149.056,-82.7322"/>
<polygon fill="black" stroke="black" points="-150.07,-81.2811 -153.783,-85.0601 -148.524,-84.421 -150.07,-81.2811"/>
<text text-anchor="middle" x="-143.861" y="-76.711" font-family="monospace" font-size="6.00">P1874S</text>
</g>
<!-- 3 -->
<g id="node4" class="node"><title>3</title>
<path fill="#98f5ff" stroke="black" stroke-width="0.5" d="M101.245,-19.2013C101.245,-19.2013 125.245,-19.2013 125.245,-19.2013 125.245,-19.8995 125.214,-20.5975 125.153,-21.293 125.092,-21.9886 125.001,-22.6812 124.88,-23.3689 124.759,-24.0565 124.608,-24.7385 124.427,-25.413 124.246,-26.0874 124.036,-26.7537 123.797,-27.4098 123.797,-27.4098 101.245,-19.2013 101.245,-19.2013"/>
<path fill="#ff3030" stroke="black" stroke-width="0.5" d="M101.245,-19.2013C101.245,-19.2013 123.797,-27.4098 123.797,-27.4098 123.427,-28.427 122.988,-29.418 122.484,-30.376 121.98,-31.3341 121.412,-32.2569 120.783,-33.1382 120.155,-34.0195 119.467,-34.8572 118.725,-35.6457 117.984,-36.4342 117.19,-37.1716 116.348,-37.8528 115.507,-38.5341 114.621,-39.1576 113.695,-39.7192 112.77,-40.2808 111.807,-40.7791 110.815,-41.2107 109.822,-41.6424 108.801,-42.0064 107.759,-42.3002 106.717,-42.5941 105.657,-42.8171 104.585,-42.9677 103.513,-43.1184 102.432,-43.1963 101.349,-43.2011 100.267,-43.2058 99.1852,-43.1373 98.112,-42.996 97.0387,-42.8547 95.9762,-42.6409 94.9318,-42.3562 93.8874,-42.0715 92.8635,-41.7164 91.867,-41.2934 90.8706,-40.8704 89.9039,-40.3805 88.9735,-39.8271 88.0432,-39.2736 87.1514,-38.6578 86.3042,-37.9839 85.457,-37.31 84.6564,-36.5796 83.9078,-35.7976 83.1593,-35.0156 82.4645,-34.1839 81.8282,-33.3081 81.8282,-33.3081 101.245,-19.2013 101.245,-19.2013"/>
<path fill="#1874cd" stroke="black" stroke-width="0.5" d="M101.245,-19.2013C101.245,-19.2013 81.8282,-33.3081 81.8282,-33.3081 81.2946,-32.5737 80.8031,-31.8096 80.356,-31.0195 79.909,-30.2293 79.5072,-29.4145 79.1525,-28.5788 78.7978,-27.7432 78.4907,-26.8881 78.2329,-26.0177 77.9751,-25.1472 77.7668,-24.2629 77.6092,-23.3689 77.4516,-22.4748 77.3448,-21.5726 77.2893,-20.6665 77.2339,-19.7603 77.23,-18.8518 77.2775,-17.9452 77.325,-17.0387 77.4239,-16.1355 77.5737,-15.2402 77.7236,-14.3448 77.9241,-13.4586 78.1743,-12.586 78.4245,-11.7134 78.7241,-10.8556 79.0715,-10.0169 79.4189,-9.17819 79.8136,-8.35986 80.2537,-7.56587 80.6938,-6.77188 81.1786,-6.00349 81.7058,-5.26443 82.233,-4.52536 82.8017,-3.8168 83.4091,-3.14216 84.0166,-2.46753 84.6618,-1.8279 85.3417,-1.22636 86.0216,-0.624826 86.7351,-0.0623514 87.4788,0.45835 88.2224,0.97905 88.995,1.45714 89.7928,1.89031 90.5906,2.32348 91.4123,2.71104 92.254,3.05111 92.254,3.05111 101.245,-19.2013 101.245,-19.2013"/>
<path fill="deepskyblue" stroke="black" stroke-width="0.5" d="M101.245,-19.2013C101.245,-19.2013 92.254,3.05111 92.254,3.05111 93.1605,3.41736 94.0886,3.72788 95.0329,3.98092 95.9773,4.23396 96.9363,4.42906 97.9044,4.56513 98.8726,4.7012 99.8482,4.77798 100.826,4.79504 101.803,4.81211 102.781,4.76942 103.753,4.66722 104.726,4.56503 105.691,4.40351 106.643,4.18358 107.596,3.96365 108.534,3.68571 109.453,3.35132 110.372,3.01693 111.269,2.62672 112.14,2.18285 113.011,1.73899 113.855,1.24232 114.665,0.695599 115.476,0.148883 116.252,-0.446851 116.99,-1.08827 117.728,-1.72969 118.426,-2.4156 119.08,-3.14217 119.734,-3.86873 120.343,-4.63459 120.904,-5.43547 121.465,-6.23634 121.976,-7.07074 122.435,-7.93398 122.894,-8.79723 123.3,-9.68772 123.651,-10.6005 124.001,-11.5132 124.295,-12.4465 124.532,-13.3952 124.768,-14.3438 124.947,-15.306 125.066,-16.2764 125.185,-17.2468 125.245,-18.2236 125.245,-19.2013 125.245,-19.2013 101.245,-19.2013 101.245,-19.2013"/>
<ellipse fill="none" stroke="black" cx="101.245" cy="-19.2013" rx="24" ry="24"/>
<text text-anchor="middle" x="101.245" y="-17.9013" font-family="monospace" font-size="6.00">90</text>
</g>
<!-- 3&#45;&gt;1 -->
<g id="edge5" class="edge"><title>3&#45;&gt;1</title>
<path fill="none" stroke="black" d="M125.26,-19.2794C127.766,-19.2876 130.167,-19.2954 132.283,-19.3023"/>
<polygon fill="black" stroke="black" points="132.593,-21.0532 137.599,-19.3196 132.604,-17.5532 132.593,-21.0532"/>
<text text-anchor="middle" x="152.476" y="-21.4997" font-family="monospace" font-size="6.00">2381352:C&gt;A</text>
</g>
<!-- 10 -->
<g id="node11" class="node"><title>10</title>
<ellipse fill="#ff3030" stroke="black" cx="110.838" cy="34.5163" rx="2.5" ry="2.5"/>
</g>
<!-- 3&#45;&gt;10 -->
<g id="edge9" class="edge"><title>3&#45;&gt;10</title>
<path fill="none" stroke="black" d="M105.48,4.51639C106.896,12.4422 108.377,20.738 109.422,26.5919"/>
<polygon fill="black" stroke="black" points="111.206,26.6226 110.362,31.8524 107.76,27.238 111.206,26.6226"/>
<text text-anchor="middle" x="86.9661" y="16.237" font-family="monospace" font-size="6.00">2384174:T&gt;A</text>
</g>
<!-- 16 -->
<g id="node17" class="node"><title>16</title>
<ellipse fill="#ff3030" stroke="black" cx="165.616" cy="19.2446" rx="2.5" ry="2.5"/>
</g>
<!-- 3&#45;&gt;16 -->
<g id="edge10" class="edge"><title>3&#45;&gt;16</title>
<path fill="none" stroke="black" d="M121.967,-6.82514C134.628,0.737024 150.013,9.92531 158.723,15.1278"/>
<polygon fill="black" stroke="black" points="159.805,13.7356 163.201,17.8019 158.011,16.7405 159.805,13.7356"/>
<text text-anchor="middle" x="132.936" y="10.2003" font-family="monospace" font-size="6.00">M704V</text>
</g>
<!-- 18 -->
<g id="node19" class="node"><title>18</title>
<ellipse fill="deepskyblue" stroke="black" cx="101.028" cy="-66.029" rx="2.5" ry="2.5"/>
</g>
<!-- 3&#45;&gt;18 -->
<g id="edge11" class="edge"><title>3&#45;&gt;18</title>
<path fill="none" stroke="black" d="M101.132,-43.4381C101.107,-48.8361 101.083,-54.1756 101.064,-58.3072"/>
<polygon fill="black" stroke="black" points="99.3135,-58.3542 101.04,-63.3623 102.813,-58.3705 99.3135,-58.3542"/>
<text text-anchor="middle" x="80.0851" y="-55.8649" font-family="monospace" font-size="6.00">2360189:T&gt;C</text>
</g>
<!-- 21 -->
<g id="node22" class="node"><title>21</title>
<ellipse fill="deepskyblue" stroke="black" cx="88.1994" cy="22.5515" rx="2.5" ry="2.5"/>
</g>
<!-- 3&#45;&gt;21 -->
<g id="edge12" class="edge"><title>3&#45;&gt;21</title>
<path fill="none" stroke="black" d="M93.9592,4.11657C92.7949,7.84316 91.6634,11.4645 90.716,14.4969"/>
<polygon fill="black" stroke="black" points="92.2397,15.4884 89.0782,19.739 88.899,14.4446 92.2397,15.4884"/>
<text text-anchor="middle" x="70.5557" y="9.60932" font-family="monospace" font-size="6.00">2428653:T&gt;C</text>
</g>
<!-- 25 -->
<g id="node26" class="node"><title>25</title>
<ellipse fill="deepskyblue" stroke="black" cx="135.109" cy="28.4448" rx="2.5" ry="2.5"/>
</g>
<!-- 3&#45;&gt;25 -->
<g id="edge13" class="edge"><title>3&#45;&gt;25</title>
<path fill="none" stroke="black" d="M115.214,0.453282C120.682,8.14672 126.576,16.4388 130.517,21.9842"/>
<polygon fill="black" stroke="black" points="132.05,21.1193 133.52,26.2087 129.197,23.147 132.05,21.1193"/>
<text text-anchor="middle" x="134.922" y="18.2088" font-family="monospace" font-size="6.00">2359582:A&gt;G</text>
</g>
<!-- 29 -->
<g id="node30" class="node"><title>29</title>
<ellipse fill="deepskyblue" stroke="black" cx="165.214" cy="-3.86334" rx="2.5" ry="2.5"/>
</g>
<!-- 3&#45;&gt;29 -->
<g id="edge14" class="edge"><title>3&#45;&gt;29</title>
<path fill="none" stroke="black" d="M124.701,-13.5771C136.294,-10.7974 149.5,-7.631 157.596,-5.68992"/>
<polygon fill="black" stroke="black" points="158.225,-7.33876 162.679,-4.4711 157.409,-3.93522 158.225,-7.33876"/>
<text text-anchor="middle" x="155.035" y="-11.2612" font-family="monospace" font-size="6.00">V1303A</text>
</g>
<!-- 30 -->
<g id="node31" class="node"><title>30</title>
<ellipse fill="deepskyblue" stroke="black" cx="110.321" cy="-106.201" rx="2.5" ry="2.5"/>
</g>
<!-- 3&#45;&gt;30 -->
<g id="edge15" class="edge"><title>3&#45;&gt;30</title>
<path fill="none" stroke="black" d="M103.773,-43.4356C105.703,-61.9318 108.24,-86.2516 109.515,-98.4777"/>
<polygon fill="black" stroke="black" points="107.798,-98.8825 110.058,-103.674 111.279,-98.5192 107.798,-98.8825"/>
<text text-anchor="middle" x="85.9379" y="-75.9724" font-family="monospace" font-size="6.00">2421715:C&gt;T</text>
</g>
<!-- 34 -->
<g id="node35" class="node"><title>34</title>
<ellipse fill="#ff3030" stroke="black" cx="147.404" cy="-81.8989" rx="2.5" ry="2.5"/>
</g>
<!-- 3&#45;&gt;34 -->
<g id="edge16" class="edge"><title>3&#45;&gt;34</title>
<path fill="none" stroke="black" d="M117.228,-37.7756C122.414,-44.0747 128.07,-51.2457 132.89,-58.0677 136.832,-63.6458 140.835,-70.3087 143.635,-75.1693"/>
<polygon fill="black" stroke="black" points="142.157,-76.11 146.142,-79.5995 145.203,-74.3861 142.157,-76.11"/>
<text text-anchor="middle" x="154.075" y="-53.53" font-family="monospace" font-size="6.00">2361414:A&gt;C</text>
</g>
<!-- 36 -->
<g id="node37" class="node"><title>36</title>
<ellipse fill="#ff3030" stroke="black" cx="131.116" cy="-59.8291" rx="2.5" ry="2.5"/>
</g>
<!-- 3&#45;&gt;36 -->
<g id="edge19" class="edge"><title>3&#45;&gt;36</title>
<path fill="none" stroke="black" d="M115.481,-38.5633C119.453,-43.9665 123.492,-49.4598 126.47,-53.5094"/>
<polygon fill="black" stroke="black" points="125.217,-54.7598 129.589,-57.7515 128.037,-52.6865 125.217,-54.7598"/>
<text text-anchor="middle" x="143.391" y="-43.162" font-family="monospace" font-size="6.00">2395858:T&gt;G</text>
</g>
<!-- 41 -->
<g id="node42" class="node"><title>41</title>
<ellipse fill="#1874cd" stroke="black" cx="59.9722" cy="-46.9985" rx="2.5" ry="2.5"/>
</g>
<!-- 3&#45;&gt;41 -->
<g id="edge22" class="edge"><title>3&#45;&gt;41</title>
<path fill="none" stroke="black" d="M81.092,-32.7742C75.7974,-36.3402 70.4603,-39.9347 66.4759,-42.6183"/>
<polygon fill="black" stroke="black" points="65.4269,-41.2148 62.2574,-45.4594 67.3821,-44.1178 65.4269,-41.2148"/>
<text text-anchor="middle" x="50.9081" y="-34.1596" font-family="monospace" font-size="6.00">2366965:T&gt;G</text>
</g>
<!-- 44 -->
<g id="node45" class="node"><title>44</title>
<ellipse fill="#1874cd" stroke="black" cx="167.157" cy="-42.4548" rx="2.5" ry="2.5"/>
</g>
<!-- 3&#45;&gt;44 -->
<g id="edge24" class="edge"><title>3&#45;&gt;44</title>
<path fill="none" stroke="black" d="M123.928,-27.2038C136.273,-31.5589 150.754,-36.6678 159.43,-39.7287"/>
<polygon fill="black" stroke="black" points="159.114,-41.4729 164.412,-41.4861 160.279,-38.1723 159.114,-41.4729"/>
<text text-anchor="middle" x="165.221" y="-29.5629" font-family="monospace" font-size="6.00">2392973:A&gt;G</text>
</g>
<!-- 46 -->
<g id="node47" class="node"><title>46</title>
<ellipse fill="#1874cd" stroke="black" cx="188.721" cy="-22.0613" rx="2.5" ry="2.5"/>
</g>
<!-- 3&#45;&gt;46 -->
<g id="edge27" class="edge"><title>3&#45;&gt;46</title>
<path fill="none" stroke="black" d="M125.542,-21.0753C130.393,-21.383 135.453,-21.6569 140.194,-21.828 154.56,-22.3464 171.333,-22.2774 180.923,-22.1737"/>
<polygon fill="black" stroke="black" points="181.113,-23.9215 186.09,-22.1064 181.068,-20.4218 181.113,-23.9215"/>
<text text-anchor="middle" x="176.822" y="-24.381" font-family="monospace" font-size="6.00">2392142:G&gt;T</text>
</g>
<!-- 56 -->
<g id="node57" class="node"><title>56</title>
<ellipse fill="#98f5ff" stroke="black" cx="97.0372" cy="55.567" rx="2.5" ry="2.5"/>
</g>
<!-- 3&#45;&gt;56 -->
<g id="edge28" class="edge"><title>3&#45;&gt;56</title>
<path fill="none" stroke="black" d="M99.8902,4.86741C99.0626,19.574 98.057,37.4431 97.4877,47.5608"/>
<polygon fill="black" stroke="black" points="99.2233,47.8674 97.1951,52.7612 95.7288,47.6707 99.2233,47.8674"/>
<text text-anchor="middle" x="77.5523" y="33.4429" font-family="monospace" font-size="6.00">2408896:C&gt;T</text>
</g>
<!-- 59 -->
<g id="node60" class="node"><title>59</title>
<ellipse fill="black" stroke="black" cx="96.8372" cy="-91.5479" rx="2.5" ry="2.5"/>
</g>
<!-- 3&#45;&gt;59 -->
<g id="edge29" class="edge"><title>3&#45;&gt;59</title>
<path fill="none" stroke="black" d="M99.777,-43.2917C98.9224,-57.3187 97.9011,-74.0843 97.3149,-83.7068"/>
<polygon fill="black" stroke="black" points="95.556,-83.8009 96.9986,-88.8981 99.0495,-84.0138 95.556,-83.8009"/>
<text text-anchor="middle" x="77.4046" y="-68.0194" font-family="monospace" font-size="6.00">2415120:T&gt;A</text>
</g>
<!-- anon_3_35_0 -->
<g id="node63" class="node"><title>anon_3_35_0</title>
<ellipse fill="white" stroke="black" cx="159.026" cy="46.9518" rx="1" ry="1"/>
</g>
<!-- 3&#45;&gt;anon_3_35_0 -->
<g id="edge17" class="edge"><title>3&#45;&gt;anon_3_35_0</title>
<path fill="none" stroke="black" d="M117.034,-1.12467C129.664,13.3358 146.533,32.649 154.498,41.7678"/>
<polygon fill="black" stroke="black" points="155.952,40.7724 157.923,45.6894 153.316,43.0748 155.952,40.7724"/>
<text text-anchor="middle" x="158.674" y="27.3068" font-family="monospace" font-size="6.00">2395098:A&gt;G</text>
</g>
<!-- anon_3_40_0 -->
<g id="node64" class="node"><title>anon_3_40_0</title>
<ellipse fill="white" stroke="black" cx="139.609" cy="-105.108" rx="1" ry="1"/>
</g>
<!-- 3&#45;&gt;anon_3_40_0 -->
<g id="edge20" class="edge"><title>3&#45;&gt;anon_3_40_0</title>
<path fill="none" stroke="black" d="M111.124,-41.3244C119.816,-60.7874 131.87,-87.7791 137.062,-99.4061"/>
<polygon fill="black" stroke="black" points="135.539,-100.288 139.176,-104.139 138.735,-98.8604 135.539,-100.288"/>
<text text-anchor="middle" x="136.017" y="-68.7528" font-family="monospace" font-size="6.00">2360106:G&gt;A</text>
</g>
<!-- anon_3_45_0 -->
<g id="node65" class="node"><title>anon_3_45_0</title>
<ellipse fill="white" stroke="black" cx="127.711" cy="67.6487" rx="1" ry="1"/>
</g>
<!-- 3&#45;&gt;anon_3_45_0 -->
<g id="edge25" class="edge"><title>3&#45;&gt;anon_3_45_0</title>
<path fill="none" stroke="black" d="M108.337,4.07291C114.276,23.5621 122.335,50.0093 125.894,61.6871"/>
<polygon fill="black" stroke="black" points="127.636,61.3989 127.419,66.6919 124.288,62.4192 127.636,61.3989"/>
<text text-anchor="middle" x="139.083" y="40.8554" font-family="monospace" font-size="6.00">2360304:G&gt;A</text>
</g>
<!-- 4 -->
<g id="node5" class="node"><title>4</title>
<path fill="#98f5ff" stroke="black" stroke-width="0.5" d="M-98.3835,68.9913C-98.3835,68.9913 -75.8835,68.9913 -75.8835,68.9913 -75.8835,67.9714 -75.9528,66.9527 -76.091,65.9422 -76.2292,64.9317 -76.436,63.9318 -76.7099,62.9494 -76.9838,61.9669 -77.3241,61.0042 -77.7286,60.068 -78.1331,59.1317 -78.6008,58.224 -79.1284,57.3512 -79.656,56.4784 -80.2424,55.6425 -80.8834,54.8492 -81.5245,54.056 -82.2187,53.3072 -82.9614,52.6082 -83.704,51.9091 -84.4933,51.2613 -85.3238,50.6693 -86.1543,50.0774 -87.0241,49.5425 -87.9272,49.0686 -88.8303,48.5946 -89.7645,48.1826 -90.7235,47.8354 -91.6825,47.4881 -92.664,47.2065 -93.6611,46.9925 -94.6583,46.7784 -95.6689,46.6324 -96.6859,46.5555 -97.7029,46.4785 -98.7239,46.4708 -99.742,46.5324 -100.76,46.594 -101.773,46.7247 -102.773,46.9237 -103.773,47.1226 -104.759,47.3894 -105.723,47.7221 -106.687,48.0548 -107.628,48.4526 -108.538,48.9129 -109.448,49.3732 -110.326,49.8948 -111.165,50.4742 -111.165,50.4742 -98.3835,68.9913 -98.3835,68.9913"/>
<path fill="#ff3030" stroke="black" stroke-width="0.5" d="M-98.3835,68.9913C-98.3835,68.9913 -111.165,50.4742 -111.165,50.4742 -111.787,50.9033 -112.386,51.3634 -112.962,51.8528 -113.537,52.3422 -114.087,52.8603 -114.611,53.405 -115.134,53.9498 -115.629,54.5206 -116.095,55.1152 -116.561,55.7098 -116.997,56.3274 -117.4,56.9658 -117.804,57.6043 -118.175,58.2626 -118.513,58.9384 -118.85,59.6141 -119.153,60.3065 -119.421,61.0127 -119.689,61.719 -119.921,62.4383 -120.117,63.1679 -120.312,63.8975 -120.471,64.6365 -120.592,65.3821 -120.592,65.3821 -98.3835,68.9913 -98.3835,68.9913"/>
<path fill="deepskyblue" stroke="black" stroke-width="0.5" d="M-98.3835,68.9913C-98.3835,68.9913 -120.592,65.3821 -120.592,65.3821 -120.716,66.1463 -120.801,66.9164 -120.846,67.6894 -120.891,68.4623 -120.895,69.237 -120.86,70.0105 -120.825,70.7839 -120.75,71.5551 -120.636,72.3208 -120.521,73.0865 -120.367,73.8458 -120.174,74.5956 -119.981,75.3455 -119.75,76.0849 -119.481,76.8108 -119.212,77.5368 -118.906,78.2484 -118.563,78.9428 -118.221,79.6372 -117.843,80.3135 -117.43,80.9689 -117.018,81.6243 -116.573,82.258 -116.095,82.8675 -115.618,83.477 -115.109,84.0614 -114.571,84.6184 -114.033,85.1755 -113.467,85.7044 -112.875,86.203 -112.283,86.7017 -111.665,87.1695 -111.025,87.6045 -110.384,88.0395 -109.722,88.4411 -109.04,88.8078 -108.358,89.1745 -107.658,89.5057 -106.941,89.8002 -106.225,90.0947 -105.495,90.352 -104.752,90.5712 -104.01,90.7903 -103.256,90.971 -102.495,91.1125 -101.734,91.254 -100.966,91.3561 -100.194,91.4184 -99.4222,91.4807 -98.6478,91.5031 -97.8738,91.4856 -97.0997,91.468 -96.3271,91.4105 -95.559,91.3133 -94.7909,91.2161 -94.0283,91.0794 -93.2743,90.9036 -92.5202,90.7277 -91.7758,90.5131 -91.0439,90.2606 -90.312,90.008 -89.5936,89.7178 -88.8917,89.3912 -88.1897,89.0646 -87.505,88.702 -86.8405,88.3048 -86.1759,87.9076 -85.5322,87.4763 -84.9121,87.0128 -84.292,86.5492 -83.6962,86.0539 -83.1271,85.529 -82.558,85.004 -82.0164,84.45 -81.5045,83.8691 -80.9925,83.2883 -80.5109,82.6815 -80.0615,82.051 -79.6121,81.4205 -79.1955,80.7673 -78.8135,80.0939 -78.4314,79.4204 -78.0844,78.7277 -77.7738,78.0186 -77.4631,77.3094 -77.1893,76.5846 -76.9534,75.8472 -76.7175,75.1098 -76.5198,74.3606 -76.3611,73.6028 -76.2024,72.845 -76.083,72.0795 -76.0032,71.3094 -75.9234,70.5393 -75.8835,69.7656 -75.8835,68.9913 -75.8835,68.9913 -98.3835,68.9913 -98.3835,68.9913"/>
<ellipse fill="none" stroke="black" cx="-98.3835" cy="68.9913" rx="22.5" ry="22.5"/>
<text text-anchor="middle" x="-98.3835" y="70.2913" font-family="monospace" font-size="6.00">78</text>
</g>
<!-- 55 -->
<g id="node56" class="node"><title>55</title>
<ellipse fill="#98f5ff" stroke="black" cx="-177.273" cy="104.916" rx="2.5" ry="2.5"/>
</g>
<!-- 4&#45;&gt;55 -->
<g id="edge32" class="edge"><title>4&#45;&gt;55</title>
<path fill="none" stroke="black" d="M-119.111,78.4301C-136.059,86.1479 -159.009,96.5987 -170.346,101.761"/>
<polygon fill="black" stroke="black" points="-169.626,103.356 -174.902,103.836 -171.076,100.171 -169.626,103.356"/>
<text text-anchor="middle" x="-168.267" y="89.0516" font-family="monospace" font-size="6.00">2366963:G&gt;A</text>
</g>
<!-- 5 -->
<g id="node6" class="node"><title>5</title>
<ellipse fill="#ff3030" stroke="black" cx="-129.313" cy="-35.4919" rx="12.5" ry="12.5"/>
<text text-anchor="middle" x="-129.313" y="-34.1919" font-family="monospace" font-size="6.00">25</text>
</g>
<!-- 39 -->
<g id="node40" class="node"><title>39</title>
<ellipse fill="#ff3030" stroke="black" cx="-192.819" cy="-21.8136" rx="2.5" ry="2.5"/>
</g>
<!-- 5&#45;&gt;39 -->
<g id="edge36" class="edge"><title>5&#45;&gt;39</title>
<path fill="none" stroke="black" d="M-141.557,-32.8546C-154.452,-30.0773 -174.354,-25.7907 -185.175,-23.4599"/>
<polygon fill="black" stroke="black" points="-184.894,-21.7304 -190.151,-22.3883 -185.631,-25.1519 -184.894,-21.7304"/>
<text text-anchor="middle" x="-186.999" y="-29.7902" font-family="monospace" font-size="6.00">2366538:C&gt;A</text>
</g>
<!-- 5&#45;&gt;60 -->
<g id="edge71" class="edge"><title>5&#45;&gt;60</title>
<path fill="none" stroke="black" stroke-dasharray="5,2" d="M-135.028,-46.6331C-140.319,-56.9454 -147.974,-71.8668 -152.124,-79.9562"/>
<polygon fill="black" stroke="black" points="-153.792,-79.3734 -154.518,-84.621 -150.678,-80.9711 -153.792,-79.3734"/>
<text text-anchor="middle" x="-156.37" y="-68.0158" font-family="monospace" font-size="6.00">A1934V</text>
</g>
<!-- 6 -->
<g id="node7" class="node"><title>6</title>
<path fill="brown" stroke="black" stroke-width="0.5" d="M-30.9244,-9.59291C-30.9244,-9.59291 -6.42436,-9.59291 -6.42436,-9.59291 -6.42436,-10.3086 -6.45572,-11.0239 -6.51835,-11.7368 -6.58097,-12.4497 -6.6748,-13.1596 -6.79957,-13.8643 -6.92434,-14.569 -7.07993,-15.2679 -7.26589,-15.959 -7.45185,-16.65 -7.66799,-17.3326 -7.91371,-18.0048 -8.15943,-18.677 -8.43448,-19.338 -8.73807,-19.9861 -9.04167,-20.6342 -9.37351,-21.2687 -9.73265,-21.8877 -10.0918,-22.5067 -10.4779,-23.1097 -10.8898,-23.6949 -11.3017,-24.2801 -11.7391,-24.847 -12.2007,-25.394 -12.6622,-25.9409 -13.1475,-26.4674 -13.6552,-26.9718 -14.1628,-27.4762 -14.6924,-27.9582 -15.2422,-28.4163 -15.7921,-28.8744 -16.3617,-29.3082 -16.9495,-29.7164 -17.5373,-30.1246 -18.1428,-30.5069 -18.7641,-30.8621 -19.3854,-31.2173 -20.0219,-31.5451 -20.6719,-31.8446 -21.3219,-32.1441 -21.9847,-32.4149 -22.6584,-32.6564 -23.3321,-32.8978 -24.016,-33.1097 -24.7083,-33.2912 -25.4005,-33.4728 -26.1004,-33.624 -26.8059,-33.7443 -27.5114,-33.8646 -28.2218,-33.9539 -28.9351,-34.012 -29.6484,-34.0701 -30.3639,-34.097 -31.0795,-34.0924 -31.7952,-34.0879 -32.5103,-34.052 -33.2228,-33.9849 -33.9353,-33.9177 -34.6445,-33.8194 -35.3484,-33.6902 -36.0523,-33.5609 -36.7502,-33.4009 -37.4401,-33.2106 -38.13,-33.0203 -38.8112,-32.7998 -39.4818,-32.5498 -40.1524,-32.2998 -40.8117,-32.0206 -41.4579,-31.7129 -42.104,-31.4052 -42.7364,-31.0694 -43.3531,-30.7063 -43.9698,-30.3433 -44.5704,-29.9534 -45.153,-29.5377 -45.7356,-29.1221 -46.2997,-28.6812 -46.8437,-28.2161 -47.3877,-27.7511 -47.9111,-27.2625 -48.4123,-26.7517 -48.9135,-26.2408 -49.3921,-25.7083 -49.8467,-25.1555 -50.3013,-24.6028 -50.7315,-24.0304 -51.1359,-23.44 -51.5404,-22.8496 -51.9188,-22.2418 -52.2701,-21.6182 -52.6214,-20.9947 -52.9452,-20.3561 -53.2405,-19.7042 -53.5359,-19.0524 -53.8025,-18.3879 -54.0397,-17.7126 -54.2769,-17.0374 -54.4844,-16.3521 -54.6616,-15.6588 -54.8388,-14.9654 -54.9855,-14.2646 -55.1013,-13.5583 -55.2172,-12.8521 -55.302,-12.1411 -55.3556,-11.4275 -55.4092,-10.7138 -55.4315,-9.99817 -55.4224,-9.28256 -55.4133,-8.56695 -55.3729,-7.85209 -55.3013,-7.14002 -55.2296,-6.42795 -55.1268,-5.71936 -54.9931,-5.0163 -54.8594,-4.31323 -54.695,-3.61636 -54.5003,-2.92769 -54.3056,-2.23901 -54.0808,-1.5592 -53.8266,-0.890211 -53.5724,-0.221218 -53.289,0.436315 -52.9772,1.0805 -52.6654,1.72468 -52.3256,2.35489 -51.9586,2.96932 -51.5917,3.58374 -51.198,4.1818 -50.7787,4.76176 -50.3594,5.34172 -49.9148,5.90303 -49.4464,6.44407 -48.9779,6.98511 -48.486,7.50537 -47.972,8.00334 -47.458,8.50132 -46.9224,8.97653 -46.3668,9.42762 -45.8112,9.87871 -45.2361,10.3052 -44.6432,10.706 -44.0502,11.1067 -43.44,11.4813 -42.8143,11.8286 -42.1885,12.1759 -41.5479,12.4956 -40.8941,12.7868 -40.2404,13.0781 -39.5742,13.3405 -38.8975,13.5734 -38.2208,13.8063 -37.5342,14.0095 -36.8397,14.1823 -36.1452,14.355 -35.4435,14.4973 -34.7366,14.6087 -34.0296,14.72 -33.3181,14.8004 -32.6042,14.8494 -31.8902,14.8985 -31.1744,14.9163 -30.4589,14.9027 -29.7433,14.8891 -29.0287,14.8441 -28.3171,14.768 -27.6055,14.6918 -26.8976,14.5845 -26.1954,14.4464 -25.4932,14.3082 -24.7974,14.1394 -24.1099,13.9403 -23.4225,13.7413 -22.7442,13.5122 -22.0768,13.2538 -21.4094,12.9953 -20.7537,12.7078 -20.1115,12.3919 -19.4693,12.076 -18.8413,11.7322 -18.2292,11.3614 -17.6171,10.9905 -17.0215,10.5931 -16.4442,10.1701 -15.8669,9.74711 -15.3085,9.29904 -14.7704,8.82717 -14.2323,8.3553 -13.7152,7.86008 -13.2205,7.34293 -12.7258,6.82579 -12.254,6.28722 -11.8064,5.72877 -11.8064,5.72877 -30.9244,-9.59291 -30.9244,-9.59291"/>
<path fill="#ff3030" stroke="black" stroke-width="0.5" d="M-30.9244,-9.59291C-30.9244,-9.59291 -11.8064,5.72877 -11.8064,5.72877 -11.116,4.86735 -10.4847,3.96026 -9.91667,3.0137 -9.34864,2.06714 -8.84523,1.08327 -8.4099,0.0688121 -8.4099,0.0688121 -30.9244,-9.59291 -30.9244,-9.59291"/>
<path fill="deepskyblue" stroke="black" stroke-width="0.5" d="M-30.9244,-9.59291C-30.9244,-9.59291 -8.4099,0.0688121 -8.4099,0.0688121 -8.08345,-0.691902 -7.79577,-1.46867 -7.54795,-2.25851 -7.30014,-3.04835 -7.09252,-3.85024 -6.92588,-4.66109 -6.75925,-5.47195 -6.63381,-6.29073 -6.55007,-7.11428 -6.46632,-7.93784 -6.42436,-8.76511 -6.42436,-9.59291 -6.42436,-9.59291 -30.9244,-9.59291 -30.9244,-9.59291"/>
<ellipse fill="none" stroke="black" cx="-30.9244" cy="-9.59291" rx="24.5" ry="24.5"/>
<text text-anchor="middle" x="-30.9244" y="-8.29291" font-family="monospace" font-size="6.00">93</text>
</g>
<!-- 6&#45;&gt;0 -->
<g id="edge1" class="edge"><title>6&#45;&gt;0</title>
<path fill="none" stroke="black" d="M-35.3207,-33.9296C-39.1206,-54.9645 -44.5714,-85.1379 -48.2847,-105.694"/>
<polygon fill="black" stroke="black" points="-50.0225,-105.47 -49.1893,-110.701 -46.5783,-106.092 -50.0225,-105.47"/>
<text text-anchor="middle" x="-53.7665" y="-67.5792" font-family="monospace" font-size="6.00">I1868T</text>
</g>
<!-- 6&#45;&gt;2 -->
<g id="edge6" class="edge"><title>6&#45;&gt;2</title>
<path fill="none" stroke="black" d="M-51.1752,-23.894C-63.19,-32.3788 -78.0434,-42.8683 -88.3801,-50.168"/>
<polygon fill="black" stroke="black" points="-89.4374,-48.7723 -92.5122,-53.0861 -87.4184,-51.6313 -89.4374,-48.7723"/>
<text text-anchor="middle" x="-83.4278" y="-40.7495" font-family="monospace" font-size="6.00">A1934V</text>
</g>
<!-- 6&#45;&gt;3 -->
<g id="edge8" class="edge"><title>6&#45;&gt;3</title>
<path fill="none" stroke="black" d="M-6.37415,-11.3777C15.8351,-12.9922 48.5695,-15.3719 72.0993,-17.0825"/>
<polygon fill="black" stroke="black" points="72.1577,-18.8413 77.2715,-17.4585 72.4116,-15.3505 72.1577,-18.8413"/>
<text text-anchor="middle" x="24.1272" y="-16.6311" font-family="monospace" font-size="6.00">N1570Y</text>
</g>
<!-- 6&#45;&gt;4 -->
<g id="edge30" class="edge"><title>6&#45;&gt;4</title>
<path fill="none" stroke="black" d="M-46.9112,9.03046C-56.9227,20.6929 -69.8494,35.7516 -80.2438,47.8602"/>
<polygon fill="black" stroke="black" points="-79.0793,49.1903 -83.6639,51.8443 -81.735,46.9105 -79.0793,49.1903"/>
<text text-anchor="middle" x="-76.8321" y="28.2892" font-family="monospace" font-size="6.00">P1874L</text>
</g>
<!-- 6&#45;&gt;5 -->
<g id="edge33" class="edge"><title>6&#45;&gt;5</title>
<path fill="none" stroke="black" d="M-54.7414,-15.8623C-72.4205,-20.5161 -96.1209,-26.7548 -112.014,-30.9384"/>
<polygon fill="black" stroke="black" points="-112.695,-29.3079 -117.085,-32.2731 -111.804,-32.6926 -112.695,-29.3079"/>
<text text-anchor="middle" x="-97.4422" y="-26.2754" font-family="monospace" font-size="6.00">P1874S</text>
</g>
<!-- 7 -->
<g id="node8" class="node"><title>7</title>
<ellipse fill="#ff3030" stroke="black" cx="1.99037" cy="36.7871" rx="6.5" ry="6.5"/>
<text text-anchor="middle" x="1.99037" y="38.0871" font-family="monospace" font-size="6.00">7</text>
</g>
<!-- 6&#45;&gt;7 -->
<g id="edge37" class="edge"><title>6&#45;&gt;7</title>
<path fill="none" stroke="black" d="M-16.5832,10.6151C-12.5294,16.3273 -8.30145,22.2849 -4.90525,27.0705"/>
<polygon fill="black" stroke="black" points="-3.29019,26.3225 -1.82356,31.4129 -6.14448,28.3481 -3.29019,26.3225"/>
<text text-anchor="middle" x="2.11125" y="25.5528" font-family="monospace" font-size="6.00">K1603T</text>
</g>
<!-- 8 -->
<g id="node9" class="node"><title>8</title>
<ellipse fill="#ff3030" stroke="black" cx="-72.1356" cy="-59.6361" rx="4.5" ry="4.5"/>
<text text-anchor="middle" x="-72.1356" y="-58.3361" font-family="monospace" font-size="6.00">3</text>
</g>
<!-- 6&#45;&gt;8 -->
<g id="edge38" class="edge"><title>6&#45;&gt;8</title>
<path fill="none" stroke="black" d="M-46.5046,-28.5121C-53.1888,-36.6288 -60.6244,-45.6579 -65.7579,-51.8916"/>
<polygon fill="black" stroke="black" points="-67.3566,-51.08 -69.1842,-56.0522 -64.6548,-53.305 -67.3566,-51.08"/>
<text text-anchor="middle" x="-46.1456" y="-44.2408" font-family="monospace" font-size="6.00">L1667M</text>
</g>
<!-- 13 -->
<g id="node14" class="node"><title>13</title>
<ellipse fill="#ff3030" stroke="black" cx="-2.6253" cy="61.9598" rx="5.5" ry="5.5"/>
<text text-anchor="middle" x="-2.6253" y="63.2598" font-family="monospace" font-size="6.00">5</text>
</g>
<!-- 6&#45;&gt;13 -->
<g id="edge39" class="edge"><title>6&#45;&gt;13</title>
<path fill="none" stroke="black" d="M-21.8146,13.4407C-16.6886,26.4016 -10.5475,41.929 -6.61733,51.8662"/>
<polygon fill="black" stroke="black" points="-4.89347,51.4667 -4.68186,56.7599 -8.14817,52.754 -4.89347,51.4667"/>
<text text-anchor="middle" x="-24.7692" y="39.8472" font-family="monospace" font-size="6.00">I1940T</text>
</g>
<!-- 14 -->
<g id="node15" class="node"><title>14</title>
<path fill="#98f5ff" stroke="black" stroke-width="0.5" d="M-37.9855,91.0912C-37.9855,91.0912 -33.4855,91.0912 -33.4855,91.0912 -33.4855,90.8948 -33.4984,90.6986 -33.524,90.5038 -33.5496,90.3091 -33.588,90.1162 -33.6388,89.9265 -33.6897,89.7368 -33.7529,89.5506 -33.8281,89.3691 -33.9032,89.1877 -33.9902,89.0113 -34.0884,88.8412 -34.1866,88.6711 -34.2958,88.5076 -34.4154,88.3518 -34.535,88.196 -34.6646,88.0481 -34.8035,87.9092 -34.9424,87.7703 -35.0903,87.6407 -35.2461,87.5211 -35.4019,87.4015 -35.5654,87.2923 -35.7355,87.1941 -35.9056,87.0959 -36.082,87.0089 -36.2634,86.9338 -36.4449,86.8586 -36.6311,86.7954 -36.8208,86.7445 -37.0105,86.6937 -37.2034,86.6553 -37.3981,86.6297 -37.5929,86.6041 -37.7891,86.5912 -37.9855,86.5912 -38.1819,86.5912 -38.3781,86.6041 -38.5729,86.6297 -38.7676,86.6553 -38.9605,86.6937 -39.1502,86.7445 -39.3399,86.7954 -39.5261,86.8586 -39.7076,86.9338 -39.8891,87.0089 -40.0654,87.0959 -40.2355,87.1941 -40.2355,87.1941 -37.9855,91.0912 -37.9855,91.0912"/>
<path fill="#ff3030" stroke="black" stroke-width="0.5" d="M-37.9855,91.0912C-37.9855,91.0912 -40.2355,87.1941 -40.2355,87.1941 -40.4056,87.2923 -40.5691,87.4015 -40.7249,87.5211 -40.8808,87.6407 -41.0286,87.7703 -41.1675,87.9092 -41.3064,88.0481 -41.436,88.196 -41.5556,88.3518 -41.6752,88.5076 -41.7844,88.6711 -41.8826,88.8412 -41.9808,89.0113 -42.0678,89.1877 -42.143,89.3691 -42.2181,89.5506 -42.2813,89.7368 -42.3322,89.9265 -42.383,90.1162 -42.4214,90.3091 -42.447,90.5038 -42.4726,90.6986 -42.4855,90.8948 -42.4855,91.0912 -42.4855,91.2876 -42.4726,91.4838 -42.447,91.6786 -42.4214,91.8733 -42.383,92.0662 -42.3322,92.2559 -42.2813,92.4456 -42.2181,92.6318 -42.143,92.8133 -42.0678,92.9948 -41.9808,93.1711 -41.8826,93.3412 -41.7844,93.5113 -41.6752,93.6748 -41.5556,93.8306 -41.436,93.9865 -41.3064,94.1343 -41.1675,94.2732 -41.0286,94.4121 -40.8808,94.5417 -40.7249,94.6613 -40.5691,94.7809 -40.4056,94.8901 -40.2355,94.9883 -40.0654,95.0865 -39.8891,95.1735 -39.7076,95.2487 -39.5261,95.3238 -39.3399,95.387 -39.1502,95.4379 -38.9605,95.4887 -38.7676,95.5271 -38.5729,95.5527 -38.3781,95.5783 -38.1819,95.5912 -37.9855,95.5912 -37.7891,95.5912 -37.5929,95.5783 -37.3981,95.5527 -37.2034,95.5271 -37.0105,95.4887 -36.8208,95.4379 -36.6311,95.387 -36.4449,95.3238 -36.2634,95.2487 -36.082,95.1735 -35.9056,95.0865 -35.7355,94.9883 -35.5654,94.8901 -35.4019,94.7809 -35.2461,94.6613 -35.0903,94.5417 -34.9424,94.4121 -34.8035,94.2732 -34.6646,94.1343 -34.535,93.9865 -34.4154,93.8306 -34.2958,93.6748 -34.1866,93.5113 -34.0884,93.3412 -33.9902,93.1711 -33.9032,92.9948 -33.8281,92.8133 -33.7529,92.6318 -33.6897,92.4456 -33.6388,92.2559 -33.588,92.0662 -33.5496,91.8733 -33.524,91.6786 -33.4984,91.4838 -33.4855,91.2876 -33.4855,91.0912 -33.4855,91.0912 -37.9855,91.0912 -37.9855,91.0912"/>
<ellipse fill="none" stroke="black" cx="-37.9855" cy="91.0912" rx="4.5" ry="4.5"/>
<text text-anchor="middle" x="-37.9855" y="92.3912" font-family="monospace" font-size="6.00">3</text>
</g>
<!-- 6&#45;&gt;14 -->
<g id="edge40" class="edge"><title>6&#45;&gt;14</title>
<path fill="none" stroke="black" d="M-32.6517,15.0372C-34.1367,36.212 -36.2036,65.6829 -37.2762,80.9771"/>
<polygon fill="black" stroke="black" points="-35.5515,81.4005 -37.6471,86.2657 -39.0429,81.1555 -35.5515,81.4005"/>
<text text-anchor="middle" x="-44.6578" y="48.5709" font-family="monospace" font-size="6.00">T791M</text>
</g>
<!-- 17 -->
<g id="node18" class="node"><title>17</title>
<ellipse fill="#ff3030" stroke="black" cx="-58.6451" cy="6.39136" rx="4.5" ry="4.5"/>
<text text-anchor="middle" x="-58.6451" y="7.69136" font-family="monospace" font-size="6.00">3</text>
</g>
<!-- 6&#45;&gt;17 -->
<g id="edge41" class="edge"><title>6&#45;&gt;17</title>
<path fill="none" stroke="black" d="M-52.2158,2.68407C-52.3175,2.74276 -52.4186,2.80101 -52.5188,2.8588"/>
<polygon fill="black" stroke="black" points="-49.2893,3.01666 -54.4951,3.99835 -51.0377,-0.0154108 -49.2893,3.01666"/>
<text text-anchor="middle" x="-63.8679" y="0.571771" font-family="monospace" font-size="6.00">N1345I</text>
</g>
<!-- 19 -->
<g id="node20" class="node"><title>19</title>
<path fill="#98f5ff" stroke="black" stroke-width="0.5" d="M-58.9873,-84.6063C-58.9873,-84.6063 -50.9873,-84.6063 -50.9873,-84.6063 -50.9873,-85.0254 -51.0203,-85.4438 -51.0858,-85.8577 -51.1514,-86.2717 -51.2494,-86.6798 -51.3789,-87.0784 -51.5084,-87.477 -51.669,-87.8648 -51.8593,-88.2382 -52.0496,-88.6116 -52.2689,-88.9695 -52.5152,-89.3085 -52.7615,-89.6476 -53.0341,-89.9668 -53.3305,-90.2631 -53.6268,-90.5595 -53.946,-90.8321 -54.2851,-91.0784 -54.6241,-91.3247 -54.982,-91.544 -55.3554,-91.7343 -55.7288,-91.9246 -56.1166,-92.0852 -56.5152,-92.2147 -56.9138,-92.3442 -57.3219,-92.4422 -57.7359,-92.5078 -58.1498,-92.5733 -58.5682,-92.6063 -58.9873,-92.6063 -59.4064,-92.6063 -59.8249,-92.5733 -60.2388,-92.5078 -60.6528,-92.4422 -61.0609,-92.3442 -61.4595,-92.2147 -61.8581,-92.0852 -62.2459,-91.9246 -62.6193,-91.7343 -62.9927,-91.544 -63.3506,-91.3247 -63.6896,-91.0784 -64.0287,-90.8321 -64.3479,-90.5595 -64.6442,-90.2631 -64.9405,-89.9668 -65.2131,-89.6476 -65.4595,-89.3085 -65.4595,-89.3085 -58.9873,-84.6063 -58.9873,-84.6063"/>
<path fill="deepskyblue" stroke="black" stroke-width="0.5" d="M-58.9873,-84.6063C-58.9873,-84.6063 -65.4595,-89.3085 -65.4595,-89.3085 -65.6442,-89.0543 -65.8138,-88.7894 -65.9673,-88.5152 -66.1209,-88.241 -66.2581,-87.9581 -66.3784,-87.6677 -66.4986,-87.3774 -66.6017,-87.0802 -66.687,-86.7778 -66.7723,-86.4753 -66.8397,-86.1681 -66.8888,-85.8577 -66.938,-85.5474 -66.9688,-85.2343 -66.9812,-84.9203 -66.9935,-84.6063 -66.9873,-84.2919 -66.9627,-83.9786 -66.938,-83.6653 -66.8949,-83.3538 -66.8336,-83.0455 -66.7723,-82.7373 -66.6929,-82.433 -66.5958,-82.1341 -66.4987,-81.8353 -66.3841,-81.5424 -66.2525,-81.257 -66.1209,-80.9716 -65.9727,-80.6942 -65.8085,-80.4263 -65.6443,-80.1583 -65.4644,-79.9003 -65.2699,-79.6535 -65.0753,-79.4067 -64.8664,-79.1716 -64.6442,-78.9494 -64.422,-78.7272 -64.1869,-78.5183 -63.9401,-78.3237 -63.6933,-78.1292 -63.4353,-77.9493 -63.1673,-77.7851 -62.8994,-77.6209 -62.622,-77.4727 -62.3366,-77.3411 -62.0512,-77.2096 -61.7583,-77.0949 -61.4595,-76.9978 -61.1606,-76.9007 -60.8563,-76.8213 -60.5481,-76.76 -60.2399,-76.6987 -59.9283,-76.6556 -59.615,-76.6309 -59.3017,-76.6063 -58.9873,-76.6001 -58.6733,-76.6124 -58.3593,-76.6248 -58.0462,-76.6556 -57.7359,-76.7048 -57.4255,-76.7539 -57.1183,-76.8213 -56.8158,-76.9066 -56.5134,-76.9919 -56.2162,-77.095 -55.9259,-77.2152 -55.6355,-77.3355 -55.3526,-77.4727 -55.0784,-77.6263 -54.8042,-77.7798 -54.5393,-77.9494 -54.2851,-78.1341 -54.0308,-78.3188 -53.7877,-78.5184 -53.5569,-78.7317 -53.3262,-78.945 -53.1082,-79.1717 -52.9041,-79.4107 -52.7,-79.6496 -52.5102,-79.9004 -52.3356,-80.1617 -52.161,-80.423 -52.002,-80.6943 -51.8593,-80.9743 -51.7166,-81.2543 -51.5906,-81.5425 -51.4818,-81.8373 -51.373,-82.1322 -51.2817,-82.4331 -51.2084,-82.7387 -51.135,-83.0443 -51.0797,-83.3539 -51.0428,-83.666 -51.0059,-83.978 -50.9873,-84.292 -50.9873,-84.6063 -50.9873,-84.6063 -58.9873,-84.6063 -58.9873,-84.6063"/>
<ellipse fill="none" stroke="black" cx="-58.9873" cy="-84.6063" rx="8" ry="8"/>
<text text-anchor="middle" x="-58.9873" y="-83.3063" font-family="monospace" font-size="6.00">10</text>
</g>
<!-- 6&#45;&gt;19 -->
<g id="edge42" class="edge"><title>6&#45;&gt;19</title>
<path fill="none" stroke="black" d="M-39.6498,-32.9164C-44.517,-45.9265 -50.383,-61.6066 -54.3687,-72.2604"/>
<polygon fill="black" stroke="black" points="-56.0486,-71.7567 -56.1616,-77.0529 -52.7705,-72.9831 -56.0486,-71.7567"/>
<text text-anchor="middle" x="-36.4407" y="-57.2782" font-family="monospace" font-size="6.00">E1597G</text>
</g>
<!-- 26 -->
<g id="node27" class="node"><title>26</title>
<ellipse fill="deepskyblue" stroke="black" cx="-1.60685" cy="-26.7141" rx="3.5" ry="3.5"/>
<text text-anchor="middle" x="-1.60685" y="-25.4141" font-family="monospace" font-size="6.00">2</text>
</g>
<!-- 6&#45;&gt;26 -->
<g id="edge43" class="edge"><title>6&#45;&gt;26</title>
<path fill="none" stroke="black" d="M-9.61799,-22.0357C-9.50254,-22.1031 -9.38779,-22.1701 -9.27378,-22.2367"/>
<polygon fill="black" stroke="black" points="-9.9724,-23.8552 -4.77219,-24.8656 -8.20733,-20.8329 -9.9724,-23.8552"/>
<text text-anchor="middle" x="2.14057" y="-17.3867" font-family="monospace" font-size="6.00">I1584T</text>
</g>
<!-- 31 -->
<g id="node32" class="node"><title>31</title>
<path fill="#98f5ff" stroke="black" stroke-width="0.5" d="M-58.7202,66.8791C-58.7202,66.8791 -49.7202,66.8791 -49.7202,66.8791 -49.7202,66.3879 -49.7604,65.8976 -49.8404,65.413 -49.9204,64.9284 -50.0399,64.4512 -50.1978,63.9861 -50.3557,63.521 -50.5513,63.0696 -50.7829,62.6365 -51.0144,62.2033 -51.281,61.7899 -51.58,61.4002 -51.879,61.0105 -52.2094,60.646 -52.5678,60.3103 -52.9263,59.9745 -53.3117,59.6687 -53.72,59.3958 -54.1284,59.123 -54.5584,58.884 -55.0058,58.6813 -55.4532,58.4786 -55.9164,58.3128 -56.3908,58.1857 -56.8652,58.0586 -57.3492,57.9705 -57.838,57.9224 -58.3268,57.8743 -58.8187,57.8662 -59.3088,57.8983 -59.7989,57.9304 -60.2855,58.0026 -60.7638,58.1142 -61.2422,58.2257 -61.7105,58.3762 -62.1643,58.5641 -62.6181,58.7521 -63.0557,58.9769 -63.4728,59.2362 -63.8899,59.4956 -64.285,59.7887 -64.6543,60.1125 -65.0235,60.4363 -65.3657,60.7899 -65.6773,61.1695 -65.9888,61.5492 -66.2688,61.9537 -66.5144,62.3791 -66.5144,62.3791 -58.7202,66.8791 -58.7202,66.8791"/>
<path fill="deepskyblue" stroke="black" stroke-width="0.5" d="M-58.7202,66.8791C-58.7202,66.8791 -66.5144,62.3791 -66.5144,62.3791 -66.6862,62.6767 -66.8409,62.984 -66.9776,63.2993 -67.1143,63.6147 -67.2329,63.9376 -67.3326,64.2665 -67.4324,64.5954 -67.5132,64.9297 -67.5748,65.2679 -67.6363,65.6061 -67.6784,65.9475 -67.7009,66.2904 -67.7234,66.6334 -67.7262,66.9774 -67.7093,67.3207 -67.6925,67.664 -67.6559,68.006 -67.6,68.3451 -67.544,68.6842 -67.4686,69.0199 -67.3742,69.3504 -67.2798,69.6808 -67.1666,70.0057 -67.0351,70.3232 -66.9035,70.6407 -66.7539,70.9505 -66.587,71.2509 -66.42,71.5514 -66.236,71.842 -66.0358,72.1214 -65.8356,72.4007 -65.6195,72.6684 -65.3887,72.9231 -65.1579,73.1778 -64.9127,73.419 -64.6543,73.6456 -64.3959,73.8722 -64.1247,74.0839 -63.8421,74.2795 -63.5594,74.4751 -63.2659,74.6543 -62.9627,74.8163 -62.6596,74.9784 -62.3475,75.1229 -62.0278,75.2492 -61.7082,75.3755 -61.3815,75.4834 -61.0495,75.5724 -60.7175,75.6613 -60.3807,75.7312 -60.0407,75.7816 -59.7007,75.8321 -59.3582,75.863 -59.0146,75.8742 -58.6711,75.8855 -58.3272,75.877 -57.9847,75.849 -57.6421,75.8209 -57.3014,75.7732 -56.9643,75.7061 -56.6272,75.6391 -56.2943,75.5528 -55.967,75.4476 -55.6398,75.3425 -55.3189,75.2187 -55.0058,75.0768 -54.6927,74.935 -54.388,74.7753 -54.0932,74.5986 -53.7984,74.4219 -53.514,74.2285 -53.2413,74.0192 -52.9686,73.81 -52.7082,73.5853 -52.4612,73.3463 -52.2142,73.1073 -51.9811,72.8543 -51.7631,72.5886 -51.545,72.3229 -51.3424,72.0449 -51.1561,71.7561 -50.9699,71.4672 -50.8003,71.1679 -50.6483,70.8597 -50.4963,70.5514 -50.3621,70.2347 -50.2463,69.9111 -50.1305,69.5874 -50.0333,69.2575 -49.9553,68.9227 -49.8772,68.588 -49.8184,68.2491 -49.7791,67.9076 -49.7398,67.5662 -49.7202,67.2228 -49.7202,66.8791 -49.7202,66.8791 -58.7202,66.8791 -58.7202,66.8791"/>
<ellipse fill="none" stroke="black" cx="-58.7202" cy="66.8791" rx="9" ry="9"/>
<text text-anchor="middle" x="-58.7202" y="68.1791" font-family="monospace" font-size="6.00">12</text>
</g>
<!-- 6&#45;&gt;31 -->
<g id="edge47" class="edge"><title>6&#45;&gt;31</title>
<path fill="none" stroke="black" d="M-39.4151,13.7667C-44.1348,26.7517 -49.8402,42.4485 -53.8196,53.3966"/>
<polygon fill="black" stroke="black" points="-52.2698,54.2556 -55.6226,58.357 -55.5592,53.06 -52.2698,54.2556"/>
<text text-anchor="middle" x="-59.0992" y="41.0831" font-family="monospace" font-size="6.00">V1853I</text>
</g>
<!-- 47 -->
<g id="node48" class="node"><title>47</title>
<ellipse fill="brown" stroke="black" cx="-30.8958" cy="32.0381" rx="2.5" ry="2.5"/>
</g>
<!-- 6&#45;&gt;47 -->
<g id="edge48" class="edge"><title>6&#45;&gt;47</title>
<path fill="none" stroke="black" d="M-30.9074,15.1052C-30.9052,18.4143 -30.903,21.5877 -30.9011,24.2747"/>
<polygon fill="black" stroke="black" points="-29.1511,24.4953 -30.8976,29.4965 -32.6511,24.4978 -29.1511,24.4953"/>
<text text-anchor="middle" x="-51.9022" y="20.5143" font-family="monospace" font-size="6.00">2382263:A&gt;G</text>
</g>
<!-- 50 -->
<g id="node51" class="node"><title>50</title>
<ellipse fill="brown" stroke="black" cx="18.6296" cy="-67.7912" rx="5.5" ry="5.5"/>
<text text-anchor="middle" x="18.6296" y="-66.4912" font-family="monospace" font-size="6.00">5</text>
</g>
<!-- 6&#45;&gt;50 -->
<g id="edge52" class="edge"><title>6&#45;&gt;50</title>
<path fill="none" stroke="black" d="M-14.9724,-28.3276C-5.99636,-38.8694 4.75719,-51.4989 11.6392,-59.5814"/>
<polygon fill="black" stroke="black" points="10.4544,-60.8893 15.0284,-63.5618 13.1193,-58.6203 10.4544,-60.8893"/>
<text text-anchor="middle" x="20.9912" y="-48.1014" font-family="monospace" font-size="6.00">2366965:T&gt;G</text>
</g>
<!-- 51 -->
<g id="node52" class="node"><title>51</title>
<ellipse fill="brown" stroke="black" cx="3.10248" cy="10.1933" rx="2.5" ry="2.5"/>
</g>
<!-- 6&#45;&gt;51 -->
<g id="edge53" class="edge"><title>6&#45;&gt;51</title>
<path fill="none" stroke="black" d="M-9.56786,2.82564C-7.43145,4.06794 -5.39296,5.2533 -3.59982,6.29599"/>
<polygon fill="black" stroke="black" points="-2.54657,4.88403 0.896101,8.91031 -4.30598,7.90969 -2.54657,4.88403"/>
<text text-anchor="middle" x="16.7165" y="3.69846" font-family="monospace" font-size="6.00">2388293:C&gt;T</text>
</g>
<!-- anon_6_27_0 -->
<g id="node66" class="node"><title>anon_6_27_0</title>
<ellipse fill="white" stroke="black" cx="-95.7729" cy="-1.95559" rx="1" ry="1"/>
</g>
<!-- 6&#45;&gt;anon_6_27_0 -->
<g id="edge44" class="edge"><title>6&#45;&gt;anon_6_27_0</title>
<path fill="none" stroke="black" d="M-55.4408,-6.70557C-67.7702,-5.25352 -81.7241,-3.61014 -89.5636,-2.68687"/>
<polygon fill="black" stroke="black" points="-89.3704,-0.94762 -94.5408,-2.1007 -89.7798,-4.4236 -89.3704,-0.94762"/>
<text text-anchor="middle" x="-95.7476" y="-6.63177" font-family="monospace" font-size="6.00">2362002:A&gt;T</text>
</g>
<!-- anon_6_49_0 -->
<g id="node68" class="node"><title>anon_6_49_0</title>
<ellipse fill="white" stroke="black" cx="-23.6721" cy="-71.8996" rx="1" ry="1"/>
</g>
<!-- 6&#45;&gt;anon_6_49_0 -->
<g id="edge50" class="edge"><title>6&#45;&gt;anon_6_49_0</title>
<path fill="none" stroke="black" d="M-28.0581,-34.2182C-26.7243,-45.6771 -25.2469,-58.3697 -24.3923,-65.7119"/>
<polygon fill="black" stroke="black" points="-26.121,-65.9975 -23.8045,-70.7616 -22.6444,-65.5928 -26.121,-65.9975"/>
<text text-anchor="middle" x="-4.92567" y="-54.7382" font-family="monospace" font-size="6.00">2359422:C&gt;G</text>
</g>
<!-- 57 -->
<g id="node58" class="node"><title>57</title>
<ellipse fill="black" stroke="black" cx="-113.564" cy="-107.514" rx="4.5" ry="4.5"/>
<text text-anchor="middle" x="-113.564" y="-106.214" font-family="monospace" font-size="6.00">3</text>
</g>
<!-- 8&#45;&gt;57 -->
<g id="edge55" class="edge"><title>8&#45;&gt;57</title>
<path fill="none" stroke="black" d="M-75.115,-63.0794C-81.8034,-70.809 -98.1347,-89.6825 -107.214,-100.175"/>
<polygon fill="black" stroke="black" points="-108.663,-99.1757 -110.612,-104.102 -106.017,-101.466 -108.663,-99.1757"/>
<text text-anchor="middle" x="-113.834" y="-85.7563" font-family="monospace" font-size="6.00">2415120:T&gt;A</text>
</g>
<!-- 9 -->
<g id="node10" class="node"><title>9</title>
<ellipse fill="deepskyblue" stroke="black" cx="-72.4752" cy="201.482" rx="2.5" ry="2.5"/>
</g>
<!-- 11 -->
<g id="node12" class="node"><title>11</title>
<ellipse fill="deepskyblue" stroke="black" cx="-137.129" cy="57.5481" rx="2.5" ry="2.5"/>
</g>
<!-- 11&#45;&gt;4 -->
<g id="edge31" class="edge"><title>11&#45;&gt;4</title>
<path fill="none" stroke="black" d="M-134.587,58.2989C-132.36,58.9565 -128.868,59.9878 -124.914,61.1558"/>
<polygon fill="black" stroke="black" points="-124.406,59.4809 -120.106,62.5756 -125.397,62.8376 -124.406,59.4809"/>
<text text-anchor="middle" x="-148.084" y="65.3148" font-family="monospace" font-size="6.00">2358667:T&gt;A</text>
</g>
<!-- 12 -->
<g id="node13" class="node"><title>12</title>
<ellipse fill="deepskyblue" stroke="black" cx="19.5906" cy="198.258" rx="2.5" ry="2.5"/>
</g>
<!-- 28 -->
<g id="node29" class="node"><title>28</title>
<ellipse fill="#ff3030" stroke="black" cx="13.375" cy="113.223" rx="2.5" ry="2.5"/>
</g>
<!-- 13&#45;&gt;28 -->
<g id="edge58" class="edge"><title>13&#45;&gt;28</title>
<path fill="none" stroke="black" d="M-0.912982,67.4459C1.97113,76.6862 7.80055,95.363 11.0512,105.778"/>
<polygon fill="black" stroke="black" points="12.7375,105.307 12.5568,110.601 9.39647,106.35 12.7375,105.307"/>
<text text-anchor="middle" x="26.8708" y="86.9803" font-family="monospace" font-size="6.00">2421454:A&gt;G</text>
</g>
<!-- 15 -->
<g id="node16" class="node"><title>15</title>
<path fill="#98f5ff" stroke="black" stroke-width="0.5" d="M-26.3813,159.814C-26.3813,159.814 -13.8813,159.814 -13.8813,159.814 -13.8813,159.356 -13.9065,158.898 -13.9568,158.442 -14.0071,157.987 -14.0824,157.534 -14.1824,157.087 -14.2823,156.64 -14.4068,156.199 -14.5552,155.765 -14.7037,155.331 -14.8759,154.906 -15.071,154.492 -15.2661,154.077 -15.4839,153.673 -15.7233,153.283 -15.9628,152.892 -16.2235,152.515 -16.5044,152.153 -16.7852,151.791 -17.0858,151.444 -17.4047,151.115 -17.7236,150.786 -18.0604,150.475 -18.4135,150.183 -18.7666,149.89 -19.1355,149.618 -19.5185,149.366 -19.9015,149.115 -20.2981,148.884 -20.7064,148.676 -21.1147,148.468 -21.5342,148.283 -21.9629,148.121 -22.3916,147.959 -22.8288,147.821 -23.2727,147.707 -23.7166,147.593 -24.1664,147.503 -24.62,147.439 -25.0737,147.374 -25.5306,147.335 -25.9887,147.32 -26.4467,147.306 -26.9052,147.317 -27.362,147.352 -27.8189,147.388 -28.2734,147.45 -28.7236,147.535 -28.7236,147.535 -26.3813,159.814 -26.3813,159.814"/>
<path fill="deepskyblue" stroke="black" stroke-width="0.5" d="M-26.3813,159.814C-26.3813,159.814 -28.7236,147.535 -28.7236,147.535 -29.3024,147.646 -29.8728,147.797 -30.4303,147.988 -30.9878,148.179 -31.5311,148.409 -32.0562,148.676 -32.5813,148.944 -33.0867,149.248 -33.5689,149.587 -34.051,149.926 -34.5086,150.298 -34.9381,150.702 -35.3677,151.105 -35.7682,151.539 -36.1367,151.998 -36.5051,152.458 -36.8406,152.944 -37.1406,153.451 -37.4406,153.958 -37.7043,154.486 -37.9298,155.03 -38.1553,155.575 -38.342,156.135 -38.4886,156.705 -38.6352,157.276 -38.7412,157.857 -38.8058,158.442 -38.8705,159.028 -38.8937,159.618 -38.8751,160.207 -38.8566,160.796 -38.7965,161.383 -38.6952,161.963 -38.5939,162.544 -38.4516,163.116 -38.2695,163.677 -38.0874,164.237 -37.8659,164.784 -37.6067,165.313 -37.3474,165.842 -37.0511,166.353 -36.7198,166.84 -36.3886,167.327 -36.0233,167.791 -35.6267,168.227 -35.2301,168.662 -34.8032,169.07 -34.3491,169.445 -33.8951,169.821 -33.415,170.164 -32.9125,170.472 -32.4101,170.78 -31.8865,171.052 -31.3457,171.286 -30.8048,171.52 -30.2481,171.715 -29.6797,171.871 -29.1113,172.026 -28.5326,172.142 -27.948,172.215 -27.3633,172.289 -26.7742,172.322 -26.185,172.312 -25.5957,172.303 -25.0079,172.252 -24.4259,172.16 -23.8438,172.068 -23.269,171.935 -22.7058,171.761 -22.1426,171.588 -21.5923,171.375 -21.0591,171.124 -20.5259,170.873 -20.0111,170.585 -19.5185,170.262 -19.026,169.938 -18.5569,169.58 -18.1149,169.19 -17.6729,168.801 -17.259,168.38 -16.8762,167.932 -16.4935,167.484 -16.143,167.009 -15.8272,166.512 -15.5115,166.014 -15.2313,165.495 -14.9888,164.958 -14.7463,164.421 -14.542,163.867 -14.3776,163.301 -14.2132,162.735 -14.089,162.159 -14.006,161.575 -13.923,160.992 -13.8813,160.403 -13.8813,159.814 -13.8813,159.814 -26.3813,159.814 -26.3813,159.814"/>
<ellipse fill="none" stroke="black" cx="-26.3813" cy="159.814" rx="12.5" ry="12.5"/>
<text text-anchor="middle" x="-26.3813" y="161.114" font-family="monospace" font-size="6.00">25</text>
</g>
<!-- 14&#45;&gt;15 -->
<g id="edge59" class="edge"><title>14&#45;&gt;15</title>
<path fill="none" stroke="black" d="M-37.2241,95.6003C-35.6476,104.937 -31.9532,126.816 -29.3154,142.437"/>
<polygon fill="black" stroke="black" points="-27.573,142.247 -28.466,147.468 -31.0241,142.829 -27.573,142.247"/>
<text text-anchor="middle" x="-44.3406" y="119.361" font-family="monospace" font-size="6.00">A1746S</text>
</g>
<!-- 61 -->
<g id="node62" class="node"><title>61</title>
<ellipse fill="white" stroke="black" cx="-77.6582" cy="116.649" rx="1" ry="1"/>
</g>
<!-- 14&#45;&gt;61 -->
<g id="edge60" class="edge"><title>14&#45;&gt;61</title>
<path fill="none" stroke="black" d="M-41.9345,93.6353C-49.0686,98.2312 -64.1148,107.924 -72.2173,113.144"/>
<polygon fill="black" stroke="black" points="-71.3837,114.689 -76.5347,115.926 -73.2792,111.747 -71.3837,114.689"/>
<text text-anchor="middle" x="-70.8705" y="102.668" font-family="monospace" font-size="6.00">V1853I</text>
</g>
<!-- 15&#45;&gt;9 -->
<g id="edge56" class="edge"><title>15&#45;&gt;9</title>
<path fill="none" stroke="black" d="M-35.7091,168.246C-44.9459,176.596 -58.8051,189.124 -66.6026,196.173"/>
<polygon fill="black" stroke="black" points="-65.696,197.713 -70.5787,199.768 -68.0431,195.116 -65.696,197.713"/>
<text text-anchor="middle" x="-74.2631" y="181.915" font-family="monospace" font-size="6.00">2360225:G&gt;A</text>
</g>
<!-- 15&#45;&gt;12 -->
<g id="edge57" class="edge"><title>15&#45;&gt;12</title>
<path fill="none" stroke="black" d="M-16.6318,167.967C-7.55195,175.56 5.70807,186.649 13.4123,193.092"/>
<polygon fill="black" stroke="black" points="14.6913,191.88 17.4042,196.43 12.446,194.565 14.6913,191.88"/>
<text text-anchor="middle" x="-20.577" y="180.029" font-family="monospace" font-size="6.00">2382425:A&gt;T</text>
</g>
<!-- anon_15_23_0 -->
<g id="node69" class="node"><title>anon_15_23_0</title>
<ellipse fill="white" stroke="black" cx="-25.1115" cy="218.478" rx="1" ry="1"/>
</g>
<!-- 15&#45;&gt;anon_15_23_0 -->
<g id="edge61" class="edge"><title>15&#45;&gt;anon_15_23_0</title>
<path fill="none" stroke="black" d="M-26.1058,172.543C-25.8428,184.691 -25.4572,202.505 -25.252,211.983"/>
<polygon fill="black" stroke="black" points="-23.4976,212.175 -25.1389,217.212 -26.9968,212.251 -23.4976,212.175"/>
<text text-anchor="middle" x="-46.6211" y="192.735" font-family="monospace" font-size="6.00">2360354:C&gt;T</text>
</g>
<!-- 33 -->
<g id="node34" class="node"><title>33</title>
<ellipse fill="deepskyblue" stroke="black" cx="-91.962" cy="-139.341" rx="2.5" ry="2.5"/>
</g>
<!-- 19&#45;&gt;33 -->
<g id="edge64" class="edge"><title>19&#45;&gt;33</title>
<path fill="none" stroke="black" d="M-63.2982,-91.7618C-69.7203,-102.422 -81.7115,-122.326 -87.9534,-132.687"/>
<polygon fill="black" stroke="black" points="-89.5524,-131.95 -90.6336,-137.136 -86.5544,-133.756 -89.5524,-131.95"/>
<text text-anchor="middle" x="-97.98" y="-116.672" font-family="monospace" font-size="6.00">2376264:A&gt;G</text>
</g>
<!-- 20 -->
<g id="node21" class="node"><title>20</title>
<ellipse fill="deepskyblue" stroke="black" cx="-148.349" cy="177.982" rx="2.5" ry="2.5"/>
</g>
<!-- 22 -->
<g id="node23" class="node"><title>22</title>
<ellipse fill="deepskyblue" stroke="black" cx="-66.037" cy="-195.535" rx="2.5" ry="2.5"/>
</g>
<!-- 22&#45;&gt;0 -->
<g id="edge2" class="edge"><title>22&#45;&gt;0</title>
<path fill="none" stroke="black" d="M-65.5188,-192.986C-64.1369,-186.19 -60.2518,-167.084 -57.0644,-151.409"/>
<polygon fill="black" stroke="black" points="-55.2963,-151.496 -56.0149,-146.248 -58.7262,-150.799 -55.2963,-151.496"/>
<text text-anchor="middle" x="-81.8521" y="-172.236" font-family="monospace" font-size="6.00">2374779:A&gt;T</text>
</g>
<!-- 23 -->
<g id="node24" class="node"><title>23</title>
<ellipse fill="deepskyblue" stroke="black" cx="-23.9898" cy="302.611" rx="2.5" ry="2.5"/>
</g>
<!-- 27 -->
<g id="node28" class="node"><title>27</title>
<ellipse fill="#ff3030" stroke="black" cx="-198.59" cy="21.6421" rx="3.5" ry="3.5"/>
<text text-anchor="middle" x="-198.59" y="22.9421" font-family="monospace" font-size="6.00">2</text>
</g>
<!-- 31&#45;&gt;61 -->
<g id="edge73" class="edge"><title>31&#45;&gt;61</title>
<path fill="none" stroke="black" stroke-dasharray="5,2" d="M-62.0189,75.5484C-65.8393,85.5885 -72.0331,101.866 -75.3641,110.62"/>
<polygon fill="black" stroke="black" points="-73.7949,111.417 -77.2087,115.468 -77.0661,110.173 -73.7949,111.417"/>
<text text-anchor="middle" x="-60.0598" y="93.1663" font-family="monospace" font-size="6.00">T791M</text>
</g>
<!-- 32 -->
<g id="node33" class="node"><title>32</title>
<ellipse fill="#ff3030" stroke="black" cx="-148.652" cy="12.7568" rx="2.5" ry="2.5"/>
</g>
<!-- 32&#45;&gt;5 -->
<g id="edge34" class="edge"><title>32&#45;&gt;5</title>
<path fill="none" stroke="black" d="M-147.719,10.4296C-145.625,5.20598 -140.394,-7.84503 -136.042,-18.7042"/>
<polygon fill="black" stroke="black" points="-137.603,-19.5133 -134.118,-23.5033 -134.354,-18.2111 -137.603,-19.5133"/>
<text text-anchor="middle" x="-161.888" y="-8.81245" font-family="monospace" font-size="6.00">2358667:T&gt;A</text>
</g>
<!-- 35 -->
<g id="node36" class="node"><title>35</title>
<ellipse fill="#ff3030" stroke="black" cx="199.364" cy="71.5366" rx="2.5" ry="2.5"/>
</g>
<!-- 37 -->
<g id="node38" class="node"><title>37</title>
<ellipse fill="#ff3030" stroke="black" cx="-194.22" cy="-113.226" rx="2.5" ry="2.5"/>
</g>
<!-- 38 -->
<g id="node39" class="node"><title>38</title>
<ellipse fill="#ff3030" stroke="black" cx="-186.64" cy="-56.2302" rx="2.5" ry="2.5"/>
</g>
<!-- 38&#45;&gt;5 -->
<g id="edge35" class="edge"><title>38&#45;&gt;5</title>
<path fill="none" stroke="black" d="M-184.177,-55.3391C-177.687,-52.9915 -159.683,-46.4784 -146.054,-41.5482"/>
<polygon fill="black" stroke="black" points="-145.367,-43.1607 -141.261,-39.8141 -146.558,-39.8694 -145.367,-43.1607"/>
<text text-anchor="middle" x="-183.738" y="-42.7836" font-family="monospace" font-size="6.00">2362259:C&gt;G</text>
</g>
<!-- 40 -->
<g id="node41" class="node"><title>40</title>
<ellipse fill="deepskyblue" stroke="black" cx="168.17" cy="-141.412" rx="2.5" ry="2.5"/>
</g>
<!-- 42 -->
<g id="node43" class="node"><title>42</title>
<ellipse fill="#1874cd" stroke="black" cx="234.693" cy="-24.9442" rx="2.5" ry="2.5"/>
</g>
<!-- 43 -->
<g id="node44" class="node"><title>43</title>
<ellipse fill="#1874cd" stroke="black" cx="168.401" cy="-66.4983" rx="2.5" ry="2.5"/>
</g>
<!-- 43&#45;&gt;3 -->
<g id="edge23" class="edge"><title>43&#45;&gt;3</title>
<path fill="none" stroke="black" d="M166.166,-64.9246C159.801,-60.4413 141.015,-47.2108 125.279,-36.1282"/>
<polygon fill="black" stroke="black" points="126.03,-34.5167 120.934,-33.0684 124.015,-37.3783 126.03,-34.5167"/>
<text text-anchor="middle" x="122.824" y="-51.389" font-family="monospace" font-size="6.00">2362259:C&gt;G</text>
</g>
<!-- 45 -->
<g id="node46" class="node"><title>45</title>
<ellipse fill="#1874cd" stroke="black" cx="157.906" cy="105.33" rx="2.5" ry="2.5"/>
</g>
<!-- 46&#45;&gt;42 -->
<g id="edge68" class="edge"><title>46&#45;&gt;42</title>
<path fill="none" stroke="black" d="M191.459,-22.233C198.311,-22.6626 216.395,-23.7967 226.877,-24.454"/>
<polygon fill="black" stroke="black" points="226.927,-26.2105 232.027,-24.777 227.146,-22.7174 226.927,-26.2105"/>
<text text-anchor="middle" x="232.601" y="-18.696" font-family="monospace" font-size="6.00">2360151:T&gt;A</text>
</g>
<!-- 48 -->
<g id="node49" class="node"><title>48</title>
<ellipse fill="brown" stroke="black" cx="-96.5592" cy="22.3934" rx="4.5" ry="4.5"/>
<text text-anchor="middle" x="-96.5592" y="23.6934" font-family="monospace" font-size="6.00">3</text>
</g>
<!-- 48&#45;&gt;6 -->
<g id="edge49" class="edge"><title>48&#45;&gt;6</title>
<path fill="none" stroke="black" d="M-92.5709,20.0089C-86.1902,16.2358 -73.2436,8.75128 -61.8443,3.22665 -60.4668,2.55906 -60.0822,2.48086 -58.6695,1.89142 -58.5673,1.84877 -58.4648,1.80602 -58.3622,1.7632"/>
<polygon fill="black" stroke="black" points="-58.9294,0.103818 -53.6409,-0.202304 -57.5842,3.33501 -58.9294,0.103818"/>
<text text-anchor="middle" x="-94.2786" y="6.89765" font-family="monospace" font-size="6.00">2358667:T&gt;A</text>
</g>
<!-- 48&#45;&gt;11 -->
<g id="edge72" class="edge"><title>48&#45;&gt;11</title>
<path fill="none" stroke="black" stroke-dasharray="5,2" d="M-100.018,25.3907C-106.873,31.3309 -122.267,44.6699 -130.92,52.168"/>
<polygon fill="black" stroke="black" points="-130.012,53.6968 -134.937,55.6487 -132.304,51.0517 -130.012,53.6968"/>
<text text-anchor="middle" x="-129.017" y="38.3536" font-family="monospace" font-size="6.00">P1874L</text>
</g>
<!-- 48&#45;&gt;32 -->
<g id="edge74" class="edge"><title>48&#45;&gt;32</title>
<path fill="none" stroke="black" stroke-dasharray="5,2" d="M-101.001,21.5718C-109.803,19.9435 -129.569,16.287 -140.68,14.2315"/>
<polygon fill="black" stroke="black" points="-141.239,15.9078 -145.837,13.2774 -140.602,12.4662 -141.239,15.9078"/>
<text text-anchor="middle" x="-134.969" y="15.2153" font-family="monospace" font-size="6.00">P1874S</text>
</g>
<!-- 49 -->
<g id="node50" class="node"><title>49</title>
<ellipse fill="brown" stroke="black" cx="-24.7151" cy="-123.954" rx="2.5" ry="2.5"/>
</g>
<!-- 49&#45;&gt;anon_6_49_0 -->
<g id="edge51" class="edge"><title>49&#45;&gt;anon_6_49_0</title>
<path fill="none" stroke="black" d="M-24.6648,-121.443C-24.5097,-113.702 -24.0353,-90.026 -23.803,-78.4333"/>
<polygon fill="black" stroke="black" points="-22.049,-78.2498 -23.6984,-73.2157 -25.5483,-78.1796 -22.049,-78.2498"/>
<text text-anchor="middle" x="-45.1841" y="-99.6533" font-family="monospace" font-size="6.00">2417127:T&gt;A</text>
</g>
<!-- 50&#45;&gt;41 -->
<g id="edge75" class="edge"><title>50&#45;&gt;41</title>
<path fill="none" stroke="black" stroke-dasharray="5,2" d="M23.699,-65.2416C30.9869,-61.5762 44.4606,-54.7998 52.7768,-50.6173"/>
<polygon fill="black" stroke="black" points="53.8902,-52.0163 57.5708,-48.2063 52.3176,-48.8895 53.8902,-52.0163"/>
<text text-anchor="middle" x="28.8496" y="-59.0674" font-family="monospace" font-size="6.00">N1570Y</text>
</g>
<!-- 52 -->
<g id="node53" class="node"><title>52</title>
<ellipse fill="brown" stroke="black" cx="36.5361" cy="-121.319" rx="2.5" ry="2.5"/>
</g>
<!-- 50&#45;&gt;52 -->
<g id="edge69" class="edge"><title>50&#45;&gt;52</title>
<path fill="none" stroke="black" d="M20.412,-73.1194C23.606,-82.6673 30.3138,-102.719 33.9912,-113.712"/>
<polygon fill="black" stroke="black" points="32.3574,-114.344 35.6033,-118.531 35.6766,-113.234 32.3574,-114.344"/>
<text text-anchor="middle" x="7.09145" y="-91.2757" font-family="monospace" font-size="6.00">2403047:T&gt;A</text>
</g>
<!-- 53 -->
<g id="node54" class="node"><title>53</title>
<ellipse fill="brown" stroke="black" cx="14.1761" cy="-125.229" rx="2.5" ry="2.5"/>
</g>
<!-- 50&#45;&gt;53 -->
<g id="edge70" class="edge"><title>50&#45;&gt;53</title>
<path fill="none" stroke="black" d="M18.1863,-73.5085C17.3769,-83.9471 15.6604,-106.086 14.7581,-117.723"/>
<polygon fill="black" stroke="black" points="13.0115,-117.613 14.3696,-122.733 16.501,-117.883 13.0115,-117.613"/>
<text text-anchor="middle" x="37.2959" y="-100.09" font-family="monospace" font-size="6.00">2426642:T&gt;C</text>
</g>
<!-- 54 -->
<g id="node55" class="node"><title>54</title>
<ellipse fill="brown" stroke="black" cx="-39.0196" cy="-38.7408" rx="2.5" ry="2.5"/>
</g>
<!-- 54&#45;&gt;6 -->
<g id="edge54" class="edge"><title>54&#45;&gt;6</title>
<path fill="none" stroke="black" d="M-38.2725,-36.0509C-38.2451,-35.9522 -38.2171,-35.8513 -38.1885,-35.7483"/>
<polygon fill="black" stroke="black" points="-37.1584,-38.5785 -37.5064,-33.2925 -40.5308,-37.6418 -37.1584,-38.5785"/>
<text text-anchor="middle" x="-17.231" y="-38.1012" font-family="monospace" font-size="6.00">2410330:C&gt;T</text>
</g>
<!-- 60&#45;&gt;37 -->
<g id="edge67" class="edge"><title>60&#45;&gt;37</title>
<path fill="none" stroke="black" d="M-156.035,-86.3733C-160.367,-89.4197 -178.187,-101.951 -187.876,-108.765"/>
<polygon fill="black" stroke="black" points="-189.004,-107.418 -192.087,-111.726 -186.991,-110.281 -189.004,-107.418"/>
<text text-anchor="middle" x="-195.088" y="-101.269" font-family="monospace" font-size="6.00">2425696:G&gt;C</text>
</g>
<!-- anon_20_61_0 -->
<g id="node71" class="node"><title>anon_20_61_0</title>
<ellipse fill="white" stroke="black" cx="-113.5" cy="146.901" rx="1" ry="1"/>
</g>
<!-- 61&#45;&gt;anon_20_61_0 -->
<g id="edge66" class="edge"><title>61&#45;&gt;anon_20_61_0</title>
<path fill="none" stroke="black" d="M-78.5441,117.397C-82.5435,120.773 -99.1009,134.748 -107.917,142.189"/>
<polygon fill="black" stroke="black" points="-107.275,143.937 -112.225,145.824 -109.532,141.262 -107.275,143.937"/>
<text text-anchor="middle" x="-106.752" y="129.299" font-family="monospace" font-size="6.00">L1366F</text>
</g>
<!-- anon_3_35_0&#45;&gt;35 -->
<g id="edge18" class="edge"><title>anon_3_35_0&#45;&gt;35</title>
<path fill="none" stroke="black" d="M160.023,47.5596C164.486,50.2797 182.846,61.4691 192.828,67.5531"/>
<polygon fill="black" stroke="black" points="193.808,66.1009 197.167,70.1974 191.987,69.0895 193.808,66.1009"/>
<text text-anchor="middle" x="157.623" y="56.6955" font-family="monospace" font-size="6.00">2407846:C&gt;G</text>
</g>
<!-- anon_3_40_0&#45;&gt;40 -->
<g id="edge21" class="edge"><title>anon_3_40_0&#45;&gt;40</title>
<path fill="none" stroke="black" d="M140.315,-106.005C143.446,-109.985 156.236,-126.243 163.346,-135.281"/>
<polygon fill="black" stroke="black" points="162.147,-136.587 166.614,-139.435 164.898,-134.423 162.147,-136.587"/>
<text text-anchor="middle" x="143.828" y="-124.747" font-family="monospace" font-size="6.00">P940H</text>
</g>
<!-- anon_3_45_0&#45;&gt;45 -->
<g id="edge26" class="edge"><title>anon_3_45_0&#45;&gt;45</title>
<path fill="none" stroke="black" d="M128.457,68.5802C131.798,72.7494 145.541,89.8996 153.014,99.2246"/>
<polygon fill="black" stroke="black" points="154.5,98.2813 156.261,103.277 151.769,100.47 154.5,98.2813"/>
<text text-anchor="middle" x="121.38" y="83.7549" font-family="monospace" font-size="6.00">2394110:C&gt;T</text>
</g>
<!-- anon_6_27_1 -->
<g id="node67" class="node"><title>anon_6_27_1</title>
<ellipse fill="white" stroke="black" cx="-147.331" cy="5.09144" rx="1" ry="1"/>
</g>
<!-- anon_6_27_0&#45;&gt;anon_6_27_1 -->
<g id="edge45" class="edge"><title>anon_6_27_0&#45;&gt;anon_6_27_1</title>
<path fill="none" stroke="black" d="M-97.0474,-1.78139C-103.118,-0.951608 -129.305,2.62765 -141.295,4.26645"/>
<polygon fill="black" stroke="black" points="-141.087,6.00416 -146.278,4.94748 -141.561,2.5364 -141.087,6.00416"/>
<text text-anchor="middle" x="-142.535" y="-0.634369" font-family="monospace" font-size="6.00">2362003:C&gt;T</text>
</g>
<!-- anon_6_27_1&#45;&gt;27 -->
<g id="edge46" class="edge"><title>anon_6_27_1&#45;&gt;27</title>
<path fill="none" stroke="black" d="M-148.598,5.50056C-154.267,7.33086 -177.575,14.8569 -190.265,18.9541"/>
<polygon fill="black" stroke="black" points="-189.95,20.6915 -195.246,20.5626 -191.026,17.3608 -189.95,20.6915"/>
<text text-anchor="middle" x="-179.827" y="10.8008" font-family="monospace" font-size="6.00">G54C</text>
</g>
<!-- anon_15_23_1 -->
<g id="node70" class="node"><title>anon_15_23_1</title>
<ellipse fill="white" stroke="black" cx="-25.3955" cy="260.835" rx="1" ry="1"/>
</g>
<!-- anon_15_23_0&#45;&gt;anon_15_23_1 -->
<g id="edge62" class="edge"><title>anon_15_23_0&#45;&gt;anon_15_23_1</title>
<path fill="none" stroke="black" d="M-25.1185,219.525C-25.1502,224.251 -25.2814,243.818 -25.3512,254.237"/>
<polygon fill="black" stroke="black" points="-23.6018,254.339 -25.3854,259.328 -27.1017,254.316 -23.6018,254.339"/>
<text text-anchor="middle" x="-34.7509" y="237.07" font-family="monospace" font-size="6.00">Q545L</text>
</g>
<!-- anon_15_23_1&#45;&gt;23 -->
<g id="edge63" class="edge"><title>anon_15_23_1&#45;&gt;23</title>
<path fill="none" stroke="black" d="M-25.3607,261.868C-25.2109,266.321 -24.6115,284.134 -24.2568,294.676"/>
<polygon fill="black" stroke="black" points="-22.5007,294.83 -24.0815,299.887 -25.9988,294.948 -22.5007,294.83"/>
<text text-anchor="middle" x="-45.7225" y="278.637" font-family="monospace" font-size="6.00">2415877:C&gt;T</text>
</g>
<!-- anon_20_61_0&#45;&gt;20 -->
<g id="edge65" class="edge"><title>anon_20_61_0&#45;&gt;20</title>
<path fill="none" stroke="black" d="M-114.362,147.669C-118.182,151.077 -133.789,164.996 -142.464,172.733"/>
<polygon fill="black" stroke="black" points="-141.555,174.267 -146.451,176.289 -143.884,171.655 -141.555,174.267"/>
<text text-anchor="middle" x="-151.24" y="159.631" font-family="monospace" font-size="6.00">2384348:T&gt;G</text>
</g>
</g>
</svg>
