<?xml version="1.0" encoding="UTF-8" standalone="no"?>
<!DOCTYPE svg PUBLIC "-//W3C//DTD SVG 1.1//EN"
 "http://www.w3.org/Graphics/SVG/1.1/DTD/svg11.dtd">
<!-- Generated by graphviz version 2.38.0 (20140413.2041)
 -->
<!-- Title: %3 Pages: 1 -->
<svg width="473pt" height="357pt"
 viewBox="0.00 0.00 473.39 356.82" xmlns="http://www.w3.org/2000/svg" xmlns:xlink="http://www.w3.org/1999/xlink">
<g id="graph0" class="graph" transform="scale(1 1) rotate(0) translate(220.348 182.637)">
<title>%3</title>
<polygon fill="white" stroke="none" points="-220.348,174.186 -220.348,-182.637 253.042,-182.637 253.042,174.186 -220.348,174.186"/>
<!-- 0 -->
<g id="node1" class="node"><title>0</title>
<path fill="#1874cd" stroke="black" stroke-width="0.5" d="M-6.04599,-3.1206C-6.04599,-3.1206 26.454,-3.1206 26.454,-3.1206 26.454,-4.03986 26.415,-4.95871 26.3371,-5.87467 26.2592,-6.79063 26.1425,-7.70287 25.9872,-8.60893 25.832,-9.51499 25.6384,-10.4141 25.4069,-11.3037 25.1755,-12.1934 24.9064,-13.0728 24.6004,-13.9396 24.2943,-14.8064 23.9517,-15.6599 23.5733,-16.4977 23.1949,-17.3355 22.7812,-18.1568 22.3332,-18.9595 21.8852,-19.7622 21.4033,-20.5456 20.8889,-21.3074 20.3745,-22.0693 19.828,-22.809 19.2509,-23.5245 18.6737,-24.24 18.0665,-24.9307 17.4308,-25.5948 16.7952,-26.2588 16.1316,-26.8956 15.4419,-27.5034 14.7522,-28.1112 14.0371,-28.6894 13.2984,-29.2366 12.5597,-29.7837 11.7981,-30.2993 11.0157,-30.7819 10.2333,-31.2645 9.43082,-31.7137 8.61034,-32.1282 7.78986,-32.5428 6.95216,-32.9223 6.0995,-33.2659 5.24684,-33.6094 4.37998,-33.9166 3.50128,-34.1867 2.62258,-34.4567 1.73281,-34.6893 0.834382,-34.884 -0.0640459,-35.0786 -0.970326,-35.235 -1.88201,-35.3527 -2.7937,-35.4705 -3.70998,-35.5496 -4.62836,-35.5897 -5.54675,-35.6298 -6.46643,-35.6309 -7.38491,-35.593 -8.3034,-35.5551 -9.21986,-35.4783 -10.1318,-35.3627 -11.0438,-35.2472 -11.9505,-35.093 -12.8494,-34.9005 -13.7483,-34.7081 -14.6386,-34.4776 -15.5179,-34.2097 -16.3973,-33.9418 -17.2649,-33.6367 -18.1184,-33.2952 -18.9719,-32.9538 -19.8105,-32.5762 -20.632,-32.1637 -21.4535,-31.7511 -22.2571,-31.3039 -23.0406,-30.8232 -23.8242,-30.3425 -24.587,-29.8288 -25.327,-29.2834 -26.0671,-28.738 -26.7836,-28.1615 -27.4747,-27.5554 -28.1659,-26.9493 -28.831,-26.3141 -29.4683,-25.6516 -30.1056,-24.9891 -30.7145,-24.2999 -31.2933,-23.5858 -31.8722,-22.8716 -32.4205,-22.1333 -32.9367,-21.3727 -33.453,-20.6121 -33.9368,-19.8299 -34.3867,-19.0283 -34.8367,-18.2267 -35.2524,-17.4063 -35.6328,-16.5694 -36.0132,-15.7326 -36.3579,-14.88 -36.666,-14.0139 -36.9741,-13.1478 -37.2454,-12.269 -37.479,-11.3799 -37.7126,-10.4908 -37.9084,-9.59224 -38.0658,-8.68656 -38.2233,-7.78088 -38.3422,-6.86893 -38.4223,-5.95316 -38.5024,-5.03739 -38.5437,-4.11864 -38.5459,-3.19938 -38.5481,-2.28012 -38.5114,-1.36118 -38.4357,-0.445034 -38.36,0.47111 -38.2455,1.38363 -38.0924,2.29006 -37.9394,3.1965 -37.748,4.09603 -37.5187,4.98624 -37.2894,5.87645 -37.0224,6.75652 -36.7185,7.62409 -36.4146,8.49167 -36.074,9.34595 -35.6976,10.1847 -35.3213,11.0234 -34.9095,11.8457 -34.4635,12.6495 -34.0174,13.4533 -33.5375,14.2378 -33.0249,15.0009 -32.5123,15.764 -31.9676,16.505 -31.3922,17.2219 -30.8168,17.9388 -30.2113,18.631 -29.5772,19.2966 -28.9432,19.9622 -28.2811,20.6006 -27.5929,21.21 -26.9047,21.8195 -26.191,22.3995 -25.4536,22.9484 -24.7163,23.4974 -23.956,24.0148 -23.1747,24.4993 -22.3935,24.9837 -21.5921,25.4349 -20.7726,25.8514 -19.9531,26.2679 -19.1163,26.6495 -18.2645,26.9951 -17.4127,27.3407 -16.5466,27.65 -15.6685,27.9222 -14.7905,28.1944 -13.9013,28.4292 -13.0033,28.626 -12.1054,28.8228 -11.1995,28.9814 -10.2881,29.1014 -9.37669,29.2213 -8.46061,29.3026 -7.54232,29.3449 -6.62403,29.3873 -5.70436,29.3906 -4.78579,29.355 -3.86722,29.3193 -2.95057,29.2447 -2.03832,29.1314 -1.12607,29.018 -0.219047,28.866 0.680313,28.6757 1.57967,28.4855 2.47056,28.2572 3.35056,27.9914 4.23056,27.7256 5.0989,27.4226 5.95321,27.0832 6.80753,26.7438 7.64706,26.3683 8.46954,25.9577 9.29202,25.5472 10.0967,25.1019 10.8814,24.6231 11.6662,24.1443 12.4302,23.6324 13.1716,23.0888 13.9129,22.5453 14.6308,21.9705 15.3235,21.3661 15.3235,21.3661 -6.04599,-3.1206 -6.04599,-3.1206"/>
<path fill="olivedrab" stroke="black" stroke-width="0.5" d="M-6.04599,-3.1206C-6.04599,-3.1206 15.3235,21.3661 15.3235,21.3661 16.1942,20.6061 17.0239,19.8003 17.8088,18.952 18.5937,18.1037 19.3328,17.2141 20.023,16.2871 20.7132,15.36 21.3534,14.3968 21.9409,13.4015 22.5285,12.4063 23.0625,11.3804 23.5408,10.3282 24.0191,9.2761 24.4409,8.19919 24.8044,7.1021 25.1679,6.00502 25.4727,4.88932 25.7174,3.75977 25.962,2.63022 26.1463,1.48843 26.2693,0.339248 26.3924,-0.80993 26.454,-1.96485 26.454,-3.1206 26.454,-3.1206 -6.04599,-3.1206 -6.04599,-3.1206"/>
<ellipse fill="none" stroke="black" cx="-6.04599" cy="-3.1206" rx="32.5" ry="32.5"/>
<text text-anchor="middle" x="-6.04599" y="-1.8206" font-family="monospace" font-size="6.00">162</text>
</g>
<!-- 1 -->
<g id="node2" class="node"><title>1</title>
<ellipse fill="#1874cd" stroke="black" cx="65.4616" cy="6.57708" rx="2.5" ry="2.5"/>
</g>
<!-- 0&#45;&gt;1 -->
<g id="edge1" class="edge"><title>0&#45;&gt;1</title>
<path fill="none" stroke="black" d="M26.3602,1.27425C37.9081,2.84034 49.9258,4.47016 57.538,5.5025"/>
<polygon fill="black" stroke="black" points="58.0695,3.80847 62.7889,6.21462 57.5991,7.27673 58.0695,3.80847"/>
<text text-anchor="middle" x="65.4315" y="1.52503" font-family="monospace" font-size="6.00">2362303:A&gt;C</text>
</g>
<!-- 2 -->
<g id="node3" class="node"><title>2</title>
<ellipse fill="#1874cd" stroke="black" cx="101.48" cy="0.00503618" rx="2.5" ry="2.5"/>
</g>
<!-- 0&#45;&gt;2 -->
<g id="edge2" class="edge"><title>0&#45;&gt;2</title>
<path fill="none" stroke="black" d="M26.5073,-2.17432C49.8781,-1.49497 79.617,-0.630504 93.5739,-0.224795"/>
<polygon fill="black" stroke="black" points="93.8495,-1.96762 98.7965,-0.0729826 93.7477,1.5309 93.8495,-1.96762"/>
<text text-anchor="middle" x="84.7125" y="-3.29282" font-family="monospace" font-size="6.00">2389372:C&gt;A</text>
</g>
<!-- 4 -->
<g id="node5" class="node"><title>4</title>
<ellipse fill="#1874cd" stroke="black" cx="40.9193" cy="-9.92723" rx="2.5" ry="2.5"/>
</g>
<!-- 0&#45;&gt;4 -->
<g id="edge4" class="edge"><title>0&#45;&gt;4</title>
<path fill="none" stroke="black" d="M26.3167,-7.81088C28.8589,-8.17932 31.2382,-8.52416 33.3083,-8.82417"/>
<polygon fill="black" stroke="black" points="33.2446,-10.5831 38.4439,-9.56848 33.7467,-7.11934 33.2446,-10.5831"/>
<text text-anchor="middle" x="53.5178" y="-10.9096" font-family="monospace" font-size="6.00">2421360:C&gt;T</text>
</g>
<!-- 5 -->
<g id="node6" class="node"><title>5</title>
<ellipse fill="#1874cd" stroke="black" cx="-79.0776" cy="4.7714" rx="2.5" ry="2.5"/>
</g>
<!-- 0&#45;&gt;5 -->
<g id="edge5" class="edge"><title>0&#45;&gt;5</title>
<path fill="none" stroke="black" d="M-38.7169,0.409906C-50.5852,1.69243 -63.0014,3.03416 -70.8753,3.88504"/>
<polygon fill="black" stroke="black" points="-71.1503,5.67486 -76.3094,4.47226 -71.5264,2.19512 -71.1503,5.67486"/>
<text text-anchor="middle" x="-78.3327" y="0.221583" font-family="monospace" font-size="6.00">2359542:T&gt;A</text>
</g>
<!-- 7 -->
<g id="node8" class="node"><title>7</title>
<ellipse fill="#1874cd" stroke="black" cx="66.7028" cy="36.8687" rx="2.5" ry="2.5"/>
</g>
<!-- 0&#45;&gt;7 -->
<g id="edge9" class="edge"><title>0&#45;&gt;7</title>
<path fill="none" stroke="black" d="M22.7063,12.6842C36.1302,20.0633 51.0043,28.2394 59.5637,32.9444"/>
<polygon fill="black" stroke="black" points="60.8465,31.6525 64.3851,35.5947 59.1605,34.7197 60.8465,31.6525"/>
<text text-anchor="middle" x="64.5636" y="21.9493" font-family="monospace" font-size="6.00">2362376:G&gt;T</text>
</g>
<!-- 13 -->
<g id="node14" class="node"><title>13</title>
<ellipse fill="#1874cd" stroke="black" cx="73.2428" cy="-36.812" rx="2.5" ry="2.5"/>
</g>
<!-- 0&#45;&gt;13 -->
<g id="edge17" class="edge"><title>0&#45;&gt;13</title>
<path fill="none" stroke="black" d="M23.9297,-15.8579C39.1799,-22.338 56.463,-29.6819 65.9824,-33.7269"/>
<polygon fill="black" stroke="black" points="65.3298,-35.351 70.616,-35.6959 66.6986,-32.1298 65.3298,-35.351"/>
<text text-anchor="middle" x="68.4522" y="-28.0531" font-family="monospace" font-size="6.00">2394724:C&gt;T</text>
</g>
<!-- 14 -->
<g id="node15" class="node"><title>14</title>
<ellipse fill="#1874cd" stroke="black" cx="-13.7566" cy="-96.1853" rx="2.5" ry="2.5"/>
</g>
<!-- 0&#45;&gt;14 -->
<g id="edge18" class="edge"><title>0&#45;&gt;14</title>
<path fill="none" stroke="black" d="M-8.7428,-35.6701C-10.2964,-54.4221 -12.1268,-76.5139 -13.0886,-88.123"/>
<polygon fill="black" stroke="black" points="-14.8575,-88.2789 -13.5264,-93.4064 -11.3694,-88.568 -14.8575,-88.2789"/>
<text text-anchor="middle" x="-20.6738" y="-60.2112" font-family="monospace" font-size="6.00">A586T</text>
</g>
<!-- 15 -->
<g id="node16" class="node"><title>15</title>
<ellipse fill="#1874cd" stroke="black" cx="7.36597" cy="52.2948" rx="2.5" ry="2.5"/>
</g>
<!-- 0&#45;&gt;15 -->
<g id="edge19" class="edge"><title>0&#45;&gt;15</title>
<path fill="none" stroke="black" d="M1.60025,28.4721C3.08858,34.6215 4.51386,40.5105 5.575,44.8949"/>
<polygon fill="black" stroke="black" points="7.29265,44.5527 6.76801,49.8241 3.89087,45.3761 7.29265,44.5527"/>
<text text-anchor="middle" x="-16.8784" y="36.6899" font-family="monospace" font-size="6.00">2409249:T&gt;G</text>
</g>
<!-- 17 -->
<g id="node18" class="node"><title>17</title>
<ellipse fill="#1874cd" stroke="black" cx="-86.1006" cy="-52.4062" rx="2.5" ry="2.5"/>
</g>
<!-- 0&#45;&gt;17 -->
<g id="edge20" class="edge"><title>0&#45;&gt;17</title>
<path fill="none" stroke="black" d="M-34.0452,-20.3583C-50.325,-30.381 -69.5313,-42.2054 -79.4405,-48.3059"/>
<polygon fill="black" stroke="black" points="-80.3698,-46.823 -83.7101,-50.9346 -78.5349,-49.8034 -80.3698,-46.823"/>
<text text-anchor="middle" x="-80.321" y="-38.1194" font-family="monospace" font-size="6.00">2375592:T&gt;A</text>
</g>
<!-- 19 -->
<g id="node20" class="node"><title>19</title>
<ellipse fill="#1874cd" stroke="black" cx="-96.9856" cy="-26.2296" rx="3.5" ry="3.5"/>
<text text-anchor="middle" x="-96.9856" y="-24.9296" font-family="monospace" font-size="6.00">2</text>
</g>
<!-- 0&#45;&gt;19 -->
<g id="edge23" class="edge"><title>0&#45;&gt;19</title>
<path fill="none" stroke="black" d="M-37.597,-11.1381C-55.5952,-15.7117 -76.8135,-21.1036 -88.3875,-24.0447"/>
<polygon fill="black" stroke="black" points="-89.0778,-22.4144 -93.4928,-25.342 -88.2158,-25.8066 -89.0778,-22.4144"/>
<text text-anchor="middle" x="-86.8227" y="-13.5106" font-family="monospace" font-size="6.00">2366965:T&gt;G</text>
</g>
<!-- 20 -->
<g id="node21" class="node"><title>20</title>
<ellipse fill="#1874cd" stroke="black" cx="-52.8408" cy="28.2092" rx="2.5" ry="2.5"/>
</g>
<!-- 0&#45;&gt;20 -->
<g id="edge24" class="edge"><title>0&#45;&gt;20</title>
<path fill="none" stroke="black" d="M-33.2667,15.1041C-37.9113,18.2137 -42.3493,21.185 -45.8217,23.5098"/>
<polygon fill="black" stroke="black" points="-45.246,25.2303 -50.3744,26.5579 -47.1932,22.322 -45.246,25.2303"/>
<text text-anchor="middle" x="-62.9293" y="18.7038" font-family="monospace" font-size="6.00">2426618:T&gt;A</text>
</g>
<!-- 21 -->
<g id="node22" class="node"><title>21</title>
<ellipse fill="#1874cd" stroke="black" cx="-67.5107" cy="52.479" rx="2.5" ry="2.5"/>
</g>
<!-- 0&#45;&gt;21 -->
<g id="edge25" class="edge"><title>0&#45;&gt;21</title>
<path fill="none" stroke="black" d="M-30.3385,18.8538C-41.6803,29.1133 -54.2472,40.4811 -61.479,47.0228"/>
<polygon fill="black" stroke="black" points="-60.6705,48.6512 -65.5525,50.7076 -63.0185,46.0556 -60.6705,48.6512"/>
<text text-anchor="middle" x="-68.9607" y="39.5944" font-family="monospace" font-size="6.00">2417855:C&gt;T</text>
</g>
<!-- 22 -->
<g id="node23" class="node"><title>22</title>
<ellipse fill="#1874cd" stroke="black" cx="14.6478" cy="-49.7278" rx="2.5" ry="2.5"/>
</g>
<!-- 0&#45;&gt;22 -->
<g id="edge26" class="edge"><title>0&#45;&gt;22</title>
<path fill="none" stroke="black" d="M7.17685,-32.9015C8.75712,-36.4607 10.2402,-39.8009 11.4618,-42.5523"/>
<polygon fill="black" stroke="black" points="9.9213,-43.3953 13.5498,-47.2549 13.1202,-41.9749 9.9213,-43.3953"/>
<text text-anchor="middle" x="-10.755" y="-42.0116" font-family="monospace" font-size="6.00">2425747:C&gt;G</text>
</g>
<!-- 23 -->
<g id="node24" class="node"><title>23</title>
<ellipse fill="#1874cd" stroke="black" cx="15.4212" cy="-83.8782" rx="3.5" ry="3.5"/>
<text text-anchor="middle" x="15.4212" y="-82.5782" font-family="monospace" font-size="6.00">2</text>
</g>
<!-- 0&#45;&gt;23 -->
<g id="edge27" class="edge"><title>0&#45;&gt;23</title>
<path fill="none" stroke="black" d="M2.31525,-34.5749C6.25176,-49.3836 10.6364,-65.8782 13.2049,-75.5406"/>
<polygon fill="black" stroke="black" points="11.5143,-75.9932 14.4902,-80.3758 14.8969,-75.094 11.5143,-75.9932"/>
<text text-anchor="middle" x="-12.5484" y="-52.859" font-family="monospace" font-size="6.00">2374818:A&gt;G</text>
</g>
<!-- 24 -->
<g id="node25" class="node"><title>24</title>
<ellipse fill="#1874cd" stroke="black" cx="-25.8051" cy="-70.297" rx="2.5" ry="2.5"/>
</g>
<!-- 0&#45;&gt;24 -->
<g id="edge28" class="edge"><title>0&#45;&gt;24</title>
<path fill="none" stroke="black" d="M-15.2314,-34.3488C-18.3808,-45.056 -21.6247,-56.0846 -23.6745,-63.0536"/>
<polygon fill="black" stroke="black" points="-25.3551,-62.5658 -25.0872,-67.8565 -21.9974,-63.5535 -25.3551,-62.5658"/>
<text text-anchor="middle" x="-41.1376" y="-46.2287" font-family="monospace" font-size="6.00">2359611:C&gt;A</text>
</g>
<!-- 26 -->
<g id="node27" class="node"><title>26</title>
<ellipse fill="#1874cd" stroke="black" cx="56.2458" cy="-56.1038" rx="2.5" ry="2.5"/>
</g>
<!-- 0&#45;&gt;26 -->
<g id="edge31" class="edge"><title>0&#45;&gt;26</title>
<path fill="none" stroke="black" d="M18.9315,-24.3656C30.3721,-34.0966 42.9693,-44.8113 50.2102,-50.9702"/>
<polygon fill="black" stroke="black" points="49.3448,-52.5315 54.2873,-54.438 51.6125,-49.8655 49.3448,-52.5315"/>
<text text-anchor="middle" x="27.1583" y="-41.6434" font-family="monospace" font-size="6.00">A837V</text>
</g>
<!-- 27 -->
<g id="node28" class="node"><title>27</title>
<ellipse fill="olivedrab" stroke="black" cx="-51.9778" cy="-22.6425" rx="2.5" ry="2.5"/>
</g>
<!-- 0&#45;&gt;27 -->
<g id="edge32" class="edge"><title>0&#45;&gt;27</title>
<path fill="none" stroke="black" d="M-36.1707,-15.9242C-39.3665,-17.2825 -42.3569,-18.5535 -44.858,-19.6165"/>
<polygon fill="black" stroke="black" points="-45.7554,-18.0963 -49.6725,-21.6627 -44.3863,-21.3175 -45.7554,-18.0963"/>
<text text-anchor="middle" x="-64.1494" y="-21.0903" font-family="monospace" font-size="6.00">2393383:A&gt;G</text>
</g>
<!-- 28 -->
<g id="node29" class="node"><title>28</title>
<ellipse fill="olivedrab" stroke="black" cx="-25.2521" cy="59.3637" rx="2.5" ry="2.5"/>
</g>
<!-- 0&#45;&gt;28 -->
<g id="edge33" class="edge"><title>0&#45;&gt;28</title>
<path fill="none" stroke="black" d="M-15.649,28.1216C-18.3499,36.9084 -21.0507,45.6953 -22.897,51.7019"/>
<polygon fill="black" stroke="black" points="-21.2849,52.4137 -24.4268,56.6788 -24.6305,51.3853 -21.2849,52.4137"/>
<text text-anchor="middle" x="-41.0546" y="47.2546" font-family="monospace" font-size="6.00">2404453:C&gt;A</text>
</g>
<!-- anon_0_6_0 -->
<g id="node30" class="node"><title>anon_0_6_0</title>
<ellipse fill="white" stroke="black" cx="-50.8743" cy="87.9461" rx="1" ry="1"/>
</g>
<!-- 0&#45;&gt;anon_0_6_0 -->
<g id="edge6" class="edge"><title>0&#45;&gt;anon_0_6_0</title>
<path fill="none" stroke="black" d="M-20.4767,26.1947C-30.2413,46.031 -42.3311,70.5909 -47.8597,81.8221"/>
<polygon fill="black" stroke="black" points="-46.3272,82.6716 -50.1056,86.3846 -49.4674,81.1258 -46.3272,82.6716"/>
<text text-anchor="middle" x="-56.8145" y="62.1527" font-family="monospace" font-size="6.00">2360542:T&gt;G</text>
</g>
<!-- anon_0_12_0 -->
<g id="node33" class="node"><title>anon_0_12_0</title>
<ellipse fill="white" stroke="black" cx="45.0977" cy="-94.4957" rx="1" ry="1"/>
</g>
<!-- 0&#45;&gt;anon_0_12_0 -->
<g id="edge14" class="edge"><title>0&#45;&gt;anon_0_12_0</title>
<path fill="none" stroke="black" d="M9.85584,-31.5314C21.3358,-52.0418 35.8649,-78.0001 42.068,-89.0827"/>
<polygon fill="black" stroke="black" points="40.6161,-90.0719 44.5853,-93.5802 43.6703,-88.3624 40.6161,-90.0719"/>
<text text-anchor="middle" x="49.0092" y="-66.1648" font-family="monospace" font-size="6.00">2407594:A&gt;C</text>
</g>
<!-- anon_0_18_0 -->
<g id="node35" class="node"><title>anon_0_18_0</title>
<ellipse fill="white" stroke="black" cx="-59.6898" cy="-91.9307" rx="1" ry="1"/>
</g>
<!-- 0&#45;&gt;anon_0_18_0 -->
<g id="edge21" class="edge"><title>0&#45;&gt;anon_0_18_0</title>
<path fill="none" stroke="black" d="M-23.0192,-31.2207C-35.0364,-51.1158 -50.1165,-76.0817 -56.5492,-86.7313"/>
<polygon fill="black" stroke="black" points="-58.0716,-85.8671 -59.1588,-91.0517 -55.0757,-87.6767 -58.0716,-85.8671"/>
<text text-anchor="middle" x="-62.9496" y="-64.7609" font-family="monospace" font-size="6.00">2415035:G&gt;T</text>
</g>
<!-- anon_0_25_0 -->
<g id="node36" class="node"><title>anon_0_25_0</title>
<ellipse fill="white" stroke="black" cx="5.23248" cy="92.4792" rx="1" ry="1"/>
</g>
<!-- 0&#45;&gt;anon_0_25_0 -->
<g id="edge29" class="edge"><title>0&#45;&gt;anon_0_25_0</title>
<path fill="none" stroke="black" d="M-2.22762,29.2451C0.165653,49.5312 3.04907,73.972 4.42518,85.6363"/>
<polygon fill="black" stroke="black" points="6.19818,85.7291 5.04613,90.8997 2.72228,86.1392 6.19818,85.7291"/>
<text text-anchor="middle" x="22.5081" y="65.7105" font-family="monospace" font-size="6.00">2380868:T&gt;G</text>
</g>
<!-- anon_2_8_0 -->
<g id="node37" class="node"><title>anon_2_8_0</title>
<ellipse fill="white" stroke="black" cx="146.53" cy="2.88446" rx="1" ry="1"/>
</g>
<!-- 2&#45;&gt;anon_2_8_0 -->
<g id="edge34" class="edge"><title>2&#45;&gt;anon_2_8_0</title>
<path fill="none" stroke="black" d="M104.164,0.176534C111.125,0.621472 129.92,1.8228 139.974,2.46545"/>
<polygon fill="black" stroke="black" points="140.229,0.728063 145.107,2.79353 140.005,4.22094 140.229,0.728063"/>
<text text-anchor="middle" x="145.772" y="-0.706219" font-family="monospace" font-size="6.00">2389737:G&gt;A</text>
</g>
<!-- 3 -->
<g id="node4" class="node"><title>3</title>
<ellipse fill="#1874cd" stroke="black" cx="-57.9147" cy="-59.1711" rx="2.5" ry="2.5"/>
</g>
<!-- 3&#45;&gt;0 -->
<g id="edge3" class="edge"><title>3&#45;&gt;0</title>
<path fill="none" stroke="black" d="M-56.1889,-57.3062C-52.2091,-53.0055 -41.9441,-41.9129 -31.7307,-30.876"/>
<polygon fill="black" stroke="black" points="-30.3897,-32.0035 -28.2781,-27.1451 -32.9586,-29.6263 -30.3897,-32.0035"/>
<text text-anchor="middle" x="-42.4679" y="-37.6789" font-family="monospace" font-size="6.00">2407178:G&gt;A</text>
</g>
<!-- 6 -->
<g id="node7" class="node"><title>6</title>
<ellipse fill="#1874cd" stroke="black" cx="-87.3746" cy="167.686" rx="2.5" ry="2.5"/>
</g>
<!-- 8 -->
<g id="node9" class="node"><title>8</title>
<ellipse fill="#1874cd" stroke="black" cx="228.458" cy="9.83981" rx="2.5" ry="2.5"/>
</g>
<!-- 9 -->
<g id="node10" class="node"><title>9</title>
<ellipse fill="#1874cd" stroke="black" cx="43.6575" cy="52.2816" rx="3.5" ry="3.5"/>
<text text-anchor="middle" x="43.6575" y="53.5816" font-family="monospace" font-size="6.00">2</text>
</g>
<!-- 9&#45;&gt;0 -->
<g id="edge10" class="edge"><title>9&#45;&gt;0</title>
<path fill="none" stroke="black" d="M41.2602,49.6094C37.1516,45.0298 28.3425,35.2106 19.4267,25.2726"/>
<polygon fill="black" stroke="black" points="17.9176,26.2111 15.8813,21.3207 20.5229,23.8738 17.9176,26.2111"/>
<text text-anchor="middle" x="19.2845" y="40.5033" font-family="monospace" font-size="6.00">R254K</text>
</g>
<!-- 10 -->
<g id="node11" class="node"><title>10</title>
<ellipse fill="#1874cd" stroke="black" cx="79.8508" cy="115.145" rx="2.5" ry="2.5"/>
</g>
<!-- 11 -->
<g id="node12" class="node"><title>11</title>
<ellipse fill="#1874cd" stroke="black" cx="-108.756" cy="20.8662" rx="2.5" ry="2.5"/>
</g>
<!-- 11&#45;&gt;0 -->
<g id="edge13" class="edge"><title>11&#45;&gt;0</title>
<path fill="none" stroke="black" d="M-106.218,20.2732C-97.4424,18.2239 -67.5701,11.2476 -42.7116,5.44221"/>
<polygon fill="black" stroke="black" points="-43.0815,3.73157 -37.8145,4.29855 -42.2855,7.13987 -43.0815,3.73157"/>
<text text-anchor="middle" x="-92.9995" y="10.082" font-family="monospace" font-size="6.00">2417678:T&gt;C</text>
</g>
<!-- anon_11_16_0 -->
<g id="node39" class="node"><title>anon_11_16_0</title>
<ellipse fill="white" stroke="black" cx="-154.16" cy="24.1891" rx="1" ry="1"/>
</g>
<!-- 11&#45;&gt;anon_11_16_0 -->
<g id="edge37" class="edge"><title>11&#45;&gt;anon_11_16_0</title>
<path fill="none" stroke="black" d="M-111.461,21.0641C-118.477,21.5775 -137.419,22.9639 -147.553,23.7055"/>
<polygon fill="black" stroke="black" points="-147.611,25.4644 -152.726,24.0841 -147.867,21.9737 -147.611,25.4644"/>
<text text-anchor="middle" x="-153.231" y="20.3842" font-family="monospace" font-size="6.00">2396175:A&gt;T</text>
</g>
<!-- 12 -->
<g id="node13" class="node"><title>12</title>
<ellipse fill="#1874cd" stroke="black" cx="73.9947" cy="-176.137" rx="2.5" ry="2.5"/>
</g>
<!-- 16 -->
<g id="node17" class="node"><title>16</title>
<ellipse fill="#1874cd" stroke="black" cx="-196.325" cy="28.9869" rx="2.5" ry="2.5"/>
</g>
<!-- 18 -->
<g id="node19" class="node"><title>18</title>
<ellipse fill="#1874cd" stroke="black" cx="-85.5082" cy="-129.472" rx="2.5" ry="2.5"/>
</g>
<!-- 25 -->
<g id="node26" class="node"><title>25</title>
<ellipse fill="#1874cd" stroke="black" cx="14.4423" cy="139.144" rx="2.5" ry="2.5"/>
</g>
<!-- 25&#45;&gt;anon_0_25_0 -->
<g id="edge30" class="edge"><title>25&#45;&gt;anon_0_25_0</title>
<path fill="none" stroke="black" d="M13.9472,136.635C12.561,129.612 8.60797,109.582 6.53584,99.0832"/>
<polygon fill="black" stroke="black" points="4.7798,99.2233 5.52848,93.979 8.21357,98.5455 4.7798,99.2233"/>
<text text-anchor="middle" x="-11.2385" y="113.227" font-family="monospace" font-size="6.00">2402774:T&gt;A</text>
</g>
<!-- anon_0_6_1 -->
<g id="node31" class="node"><title>anon_0_6_1</title>
<ellipse fill="white" stroke="black" cx="-70.9915" cy="127.642" rx="1" ry="1"/>
</g>
<!-- anon_0_6_0&#45;&gt;anon_0_6_1 -->
<g id="edge7" class="edge"><title>anon_0_6_0&#45;&gt;anon_0_6_1</title>
<path fill="none" stroke="black" d="M-51.3716,88.9274C-53.6375,93.3986 -63.0856,112.042 -67.9968,121.733"/>
<polygon fill="black" stroke="black" points="-66.4543,122.56 -70.2756,126.229 -69.5763,120.978 -66.4543,122.56"/>
<text text-anchor="middle" x="-81.8631" y="105.456" font-family="monospace" font-size="6.00">2417114:T&gt;A</text>
</g>
<!-- anon_0_6_1&#45;&gt;6 -->
<g id="edge8" class="edge"><title>anon_0_6_1&#45;&gt;6</title>
<path fill="none" stroke="black" d="M-71.3965,128.632C-73.1593,132.941 -80.2595,150.295 -84.3777,160.361"/>
<polygon fill="black" stroke="black" points="-82.7929,161.109 -86.3059,165.074 -86.0323,159.784 -82.7929,161.109"/>
<text text-anchor="middle" x="-99.8039" y="144.537" font-family="monospace" font-size="6.00">2417148:C&gt;T</text>
</g>
<!-- anon_0_10_0 -->
<g id="node32" class="node"><title>anon_0_10_0</title>
<ellipse fill="white" stroke="black" cx="50.4667" cy="78.9549" rx="1" ry="1"/>
</g>
<!-- anon_0_10_0&#45;&gt;0 -->
<g id="edge11" class="edge"><title>anon_0_10_0&#45;&gt;0</title>
<path fill="none" stroke="black" d="M49.8321,78.0332C46.4131,73.0677 29.815,48.9617 15.5894,28.3013"/>
<polygon fill="black" stroke="black" points="13.9897,29.0637 12.5954,23.953 16.8724,27.0788 13.9897,29.0637"/>
<text text-anchor="middle" x="10.1238" y="48.6625" font-family="monospace" font-size="6.00">2392093:A&gt;T</text>
</g>
<!-- anon_0_10_0&#45;&gt;10 -->
<g id="edge12" class="edge"><title>anon_0_10_0&#45;&gt;10</title>
<path fill="none" stroke="black" d="M51.1931,79.8495C54.4144,83.8171 67.5735,100.024 74.888,109.033"/>
<polygon fill="black" stroke="black" points="76.457,108.189 78.2501,113.174 73.7398,110.395 76.457,108.189"/>
<text text-anchor="middle" x="43.5816" y="94.1393" font-family="monospace" font-size="6.00">2399127:G&gt;A</text>
</g>
<!-- anon_0_12_1 -->
<g id="node34" class="node"><title>anon_0_12_1</title>
<ellipse fill="white" stroke="black" cx="60.3584" cy="-135.71" rx="1" ry="1"/>
</g>
<!-- anon_0_12_0&#45;&gt;anon_0_12_1 -->
<g id="edge15" class="edge"><title>anon_0_12_0&#45;&gt;anon_0_12_1</title>
<path fill="none" stroke="black" d="M45.4749,-95.5145C47.1778,-100.113 54.2275,-119.152 57.9813,-129.29"/>
<polygon fill="black" stroke="black" points="56.4379,-130.162 59.8153,-134.243 59.7202,-128.947 56.4379,-130.162"/>
<text text-anchor="middle" x="31.5887" y="-116.927" font-family="monospace" font-size="6.00">2407598:C&gt;G</text>
</g>
<!-- anon_0_12_1&#45;&gt;12 -->
<g id="edge16" class="edge"><title>anon_0_12_1&#45;&gt;12</title>
<path fill="none" stroke="black" d="M60.6955,-136.709C62.1628,-141.059 68.0726,-158.58 71.5003,-168.742"/>
<polygon fill="black" stroke="black" points="69.8489,-169.322 73.1053,-173.5 73.1653,-168.203 69.8489,-169.322"/>
<text text-anchor="middle" x="45.861" y="-157.188" font-family="monospace" font-size="6.00">2417108:A&gt;G</text>
</g>
<!-- anon_0_18_0&#45;&gt;18 -->
<g id="edge22" class="edge"><title>anon_0_18_0&#45;&gt;18</title>
<path fill="none" stroke="black" d="M-60.328,-92.8587C-63.1317,-96.9356 -74.5034,-113.471 -80.9644,-122.866"/>
<polygon fill="black" stroke="black" points="-82.4327,-121.912 -83.8241,-127.024 -79.5489,-123.896 -82.4327,-121.912"/>
<text text-anchor="middle" x="-92.9484" y="-111.956" font-family="monospace" font-size="6.00">2420686:G&gt;A</text>
</g>
<!-- anon_2_8_1 -->
<g id="node38" class="node"><title>anon_2_8_1</title>
<ellipse fill="white" stroke="black" cx="187.37" cy="5.63259" rx="1" ry="1"/>
</g>
<!-- anon_2_8_0&#45;&gt;anon_2_8_1 -->
<g id="edge35" class="edge"><title>anon_2_8_0&#45;&gt;anon_2_8_1</title>
<path fill="none" stroke="black" d="M147.539,2.95239C152.053,3.25614 170.608,4.50468 180.722,5.18523"/>
<polygon fill="black" stroke="black" points="181.045,3.45296 185.917,5.53479 180.81,6.94506 181.045,3.45296"/>
<text text-anchor="middle" x="145.346" y="9.01788" font-family="monospace" font-size="6.00">2423538:A&gt;G</text>
</g>
<!-- anon_2_8_1&#45;&gt;8 -->
<g id="edge36" class="edge"><title>anon_2_8_1&#45;&gt;8</title>
<path fill="none" stroke="black" d="M188.386,5.73659C192.766,6.18509 210.285,7.979 220.654,9.04064"/>
<polygon fill="black" stroke="black" points="220.983,7.31509 225.778,9.56539 220.626,10.7969 220.983,7.31509"/>
<text text-anchor="middle" x="228.042" y="5.44693" font-family="monospace" font-size="6.00">2423850:G&gt;T</text>
</g>
<!-- anon_11_16_0&#45;&gt;16 -->
<g id="edge38" class="edge"><title>anon_11_16_0&#45;&gt;16</title>
<path fill="none" stroke="black" d="M-155.202,24.3077C-159.697,24.8191 -177.676,26.8649 -188.315,28.0756"/>
<polygon fill="black" stroke="black" points="-188.409,29.8474 -193.574,28.674 -188.804,26.3698 -188.409,29.8474"/>
<text text-anchor="middle" x="-195.348" y="24.2862" font-family="monospace" font-size="6.00">2401282:C&gt;T</text>
</g>
</g>
</svg>
