<?xml version="1.0" encoding="UTF-8" standalone="no"?>
<!DOCTYPE svg PUBLIC "-//W3C//DTD SVG 1.1//EN"
 "http://www.w3.org/Graphics/SVG/1.1/DTD/svg11.dtd">
<!-- Generated by graphviz version 2.38.0 (20140413.2041)
 -->
<!-- Title: %3 Pages: 1 -->
<svg width="187pt" height="184pt"
 viewBox="0.00 0.00 187.39 184.19" xmlns="http://www.w3.org/2000/svg" xmlns:xlink="http://www.w3.org/1999/xlink">
<g id="graph0" class="graph" transform="scale(1 1) rotate(0) translate(89.8834 84.0537)">
<title>%3</title>
<polygon fill="white" stroke="none" points="-89.8834,100.14 -89.8834,-84.0537 97.5073,-84.0537 97.5073,100.14 -89.8834,100.14"/>
<!-- 0 -->
<g id="node1" class="node"><title>0</title>
<path fill="#1874cd" stroke="black" stroke-width="0.5" d="M-1.07104,-1.29836C-1.07104,-1.29836 25.429,-1.29836 25.429,-1.29836 25.429,-2.30775 25.3713,-3.31632 25.2562,-4.31913 25.1412,-5.32194 24.9689,-6.31736 24.7403,-7.30052 24.5117,-8.28368 24.227,-9.25297 23.8878,-10.2037 23.5486,-11.1544 23.1554,-12.0849 22.71,-12.9907 22.2647,-13.8965 21.7679,-14.7762 21.2222,-15.6253 20.6765,-16.4745 20.0827,-17.2918 19.4437,-18.0732 18.8048,-18.8546 18.1217,-19.5989 17.3978,-20.3023 16.6739,-21.0058 15.9105,-21.6674 15.1111,-22.2838 15.1111,-22.2838 -1.07104,-1.29836 -1.07104,-1.29836"/>
<path fill="olivedrab" stroke="black" stroke-width="0.5" d="M-1.07104,-1.29836C-1.07104,-1.29836 15.1111,-22.2838 15.1111,-22.2838 14.5242,-22.7364 13.9185,-23.1641 13.2957,-23.566 12.6729,-23.9678 12.0335,-24.3433 11.3792,-24.6915 10.725,-25.0398 10.0564,-25.3604 9.37519,-25.6525 8.69402,-25.9447 8.0009,-26.2082 7.29765,-26.4422 6.5944,-26.6763 5.88164,-26.8808 5.16125,-27.0551 4.44086,-27.2294 3.71347,-27.3734 2.98101,-27.4867 2.24855,-27.6001 1.51165,-27.6826 0.772267,-27.7342 0.0328832,-27.7857 -0.708339,-27.8062 -1.44944,-27.7957 -2.19055,-27.7851 -2.93088,-27.7434 -3.66849,-27.6708 -4.4061,-27.5981 -5.14034,-27.4945 -5.86927,-27.3603 -6.5982,-27.2261 -7.32117,-27.0614 -8.03629,-26.8666 -8.75141,-26.6718 -9.45804,-26.4471 -10.1543,-26.193 -10.8506,-25.939 -11.5359,-25.6558 -12.2085,-25.3443 -12.881,-25.0328 -13.5402,-24.6932 -14.1843,-24.3265 -14.8283,-23.9597 -15.4567,-23.5661 -16.0678,-23.1466 -16.6789,-22.7272 -17.2721,-22.2823 -17.8459,-21.8131 -18.4196,-21.3439 -18.9735,-20.8509 -19.5059,-20.3353 -20.0384,-19.8197 -20.549,-19.282 -21.0363,-18.7236 -21.5237,-18.1651 -21.9874,-17.5865 -22.4263,-16.9892 -22.8651,-16.392 -23.2787,-15.7765 -23.666,-15.1446 -24.0533,-14.5126 -24.4138,-13.8647 -24.7468,-13.2025 -25.0797,-12.5403 -25.3848,-11.8644 -25.661,-11.1767 -25.9373,-10.4889 -26.1846,-9.78987 -26.4023,-9.08138 -26.62,-8.37289 -26.8079,-7.65558 -26.9654,-6.93134 -27.123,-6.2071 -27.2501,-5.47656 -27.3464,-4.74167 -27.4427,-4.00677 -27.5081,-3.26816 -27.5425,-2.52778 -27.5769,-1.7874 -27.5802,-1.0459 -27.5524,-0.305239 -27.5246,0.43542 -27.4658,1.17459 -27.3761,1.91031 -27.2863,2.64604 -27.1658,3.37768 -27.0147,4.1033 -26.8636,4.82891 -26.6821,5.54787 -26.4708,6.25828 -26.2594,6.96869 -26.0184,7.66991 -25.7482,8.36011 -25.4781,9.05031 -25.1791,9.72887 -24.8521,10.394 -24.5251,11.0591 -24.1703,11.7103 -23.7887,12.3456 -23.4071,12.981 -22.999,13.6001 -22.5655,14.2013 -22.1319,14.8025 -21.6734,15.3852 -21.191,15.948 -20.7087,16.5107 -20.2029,17.0529 -19.6751,17.5733 -19.1473,18.0936 -18.5979,18.5916 -18.0283,19.0659 -17.4587,19.5401 -16.8695,19.9903 -16.2622,20.4152 -15.6549,20.8401 -15.03,21.2393 -14.3893,21.6118 -13.7485,21.9843 -13.0924,22.3297 -12.4226,22.6472 -11.7529,22.9647 -11.0701,23.254 -10.3761,23.5142 -9.68216,23.7745 -8.97756,24.0055 -8.26421,24.2067 -7.55086,24.4079 -6.82938,24.5791 -6.10168,24.7198 -5.37397,24.8605 -4.64069,24.9706 -3.90376,25.0498 -3.16683,25.129 -2.42689,25.1773 -1.68591,25.1945 -0.944933,25.2117 -0.203558,25.1978 0.536257,25.1529 1.27607,25.1079 2.01368,25.0319 2.74712,24.9251 3.48057,24.8183 4.20921,24.6808 4.93113,24.513 5.65304,24.3451 6.3676,24.147 7.07291,23.9192 7.77822,23.6914 8.47367,23.4342 9.15741,23.1481 9.84116,22.862 10.5126,22.5474 11.17,22.205 11.8273,21.8626 12.47,21.4928 13.0964,21.0966 13.7228,20.7003 14.3322,20.278 14.9232,19.8306 15.5142,19.3833 16.0861,18.9114 16.6375,18.4161 17.1889,17.9208 17.7192,17.4026 18.2272,16.8628 18.7351,16.3231 19.2202,15.7622 19.6812,15.1818 20.1421,14.6014 20.5785,14.0019 20.9892,13.3849 21.3998,12.7679 21.7844,12.1339 22.142,11.4847 22.4995,10.8354 22.8296,10.1715 23.1315,9.49457 23.4334,8.81765 23.7067,8.12836 23.9508,7.42852 24.1949,6.72869 24.4095,6.01892 24.5941,5.30109 24.7786,4.58326 24.933,3.858 25.0568,3.12723 25.1806,2.39646 25.2737,1.66082 25.3358,0.922249 25.3979,0.183677 25.429,-0.557177 25.429,-1.29836 25.429,-1.29836 -1.07104,-1.29836 -1.07104,-1.29836"/>
<ellipse fill="none" stroke="black" cx="-1.07104" cy="-1.29836" rx="26.5" ry="26.5"/>
<text text-anchor="middle" x="-1.07104" y="0.00164387" font-family="monospace" font-size="6.00">55</text>
</g>
<!-- 2 -->
<g id="node3" class="node"><title>2</title>
<ellipse fill="olivedrab" stroke="black" cx="-19.4471" cy="85.1399" rx="11" ry="11"/>
<text text-anchor="middle" x="-19.4471" y="86.4399" font-family="monospace" font-size="6.00">9</text>
</g>
<!-- 0&#45;&gt;2 -->
<g id="edge2" class="edge"><title>0&#45;&gt;2</title>
<path fill="none" stroke="black" d="M-6.58445,24.636C-9.65556,39.0821 -13.3825,56.6128 -16.0323,69.0774"/>
<polygon fill="black" stroke="black" points="-14.3454,69.5586 -17.097,74.0854 -17.7689,68.8307 -14.3454,69.5586"/>
<text text-anchor="middle" x="-32.3084" y="44.6567" font-family="monospace" font-size="6.00">2366965:T&gt;G</text>
</g>
<!-- 3 -->
<g id="node4" class="node"><title>3</title>
<ellipse fill="olivedrab" stroke="black" cx="-70.2757" cy="-34.8197" rx="3.5" ry="3.5"/>
</g>
<!-- 0&#45;&gt;3 -->
<g id="edge3" class="edge"><title>0&#45;&gt;3</title>
<path fill="none" stroke="black" d="M-25.2755,-13.0225C-38.3087,-19.3355 -53.5115,-26.6995 -62.4913,-31.0491"/>
<polygon fill="black" stroke="black" points="-63.2589,-29.4764 -66.996,-33.2311 -61.7331,-32.6263 -63.2589,-29.4764"/>
<text text-anchor="middle" x="-64.8834" y="-24.2358" font-family="monospace" font-size="6.00">2383492:G&gt;A</text>
</g>
<!-- 5 -->
<g id="node6" class="node"><title>5</title>
<ellipse fill="olivedrab" stroke="black" cx="-17.2745" cy="-76.5537" rx="3.5" ry="3.5"/>
</g>
<!-- 0&#45;&gt;5 -->
<g id="edge5" class="edge"><title>0&#45;&gt;5</title>
<path fill="none" stroke="black" d="M-6.73821,-27.619C-9.78977,-41.7917 -13.3493,-58.3238 -15.4518,-68.0887"/>
<polygon fill="black" stroke="black" points="-17.1648,-67.7308 -16.5065,-72.9872 -13.7432,-68.4676 -17.1648,-67.7308"/>
<text text-anchor="middle" x="-32.095" y="-50.0539" font-family="monospace" font-size="6.00">2380627:C&gt;A</text>
</g>
<!-- 6 -->
<g id="node7" class="node"><title>6</title>
<ellipse fill="olivedrab" stroke="black" cx="-68.6424" cy="32.0561" rx="3.5" ry="3.5"/>
</g>
<!-- 0&#45;&gt;6 -->
<g id="edge6" class="edge"><title>0&#45;&gt;6</title>
<path fill="none" stroke="black" d="M-25.0844,10.5551C-37.6499,16.7576 -52.1886,23.9342 -60.8877,28.2282"/>
<polygon fill="black" stroke="black" points="-60.2214,29.8509 -65.4796,30.4949 -61.7707,26.7124 -60.2214,29.8509"/>
<text text-anchor="middle" x="-63.9861" y="17.1917" font-family="monospace" font-size="6.00">2359596:T&gt;C</text>
</g>
<!-- 7 -->
<g id="node8" class="node"><title>7</title>
<ellipse fill="olivedrab" stroke="black" cx="45.3575" cy="56.4131" rx="3.5" ry="3.5"/>
</g>
<!-- 0&#45;&gt;7 -->
<g id="edge7" class="edge"><title>0&#45;&gt;7</title>
<path fill="none" stroke="black" d="M15.6907,19.5368C24.1227,30.0178 33.7883,42.0324 39.7336,49.4226"/>
<polygon fill="black" stroke="black" points="41.1397,48.3785 42.9104,53.3713 38.4127,50.5725 41.1397,48.3785"/>
<text text-anchor="middle" x="18.2122" y="32.2797" font-family="monospace" font-size="6.00">K251R</text>
</g>
<!-- 1 -->
<g id="node2" class="node"><title>1</title>
<ellipse fill="olivedrab" stroke="black" cx="84.5073" cy="-1.05995" rx="9" ry="9"/>
<text text-anchor="middle" x="84.5073" y="0.240045" font-family="monospace" font-size="6.00">6</text>
</g>
<!-- 1&#45;&gt;0 -->
<g id="edge1" class="edge"><title>1&#45;&gt;0</title>
<path fill="none" stroke="black" d="M75.3489,-1.08547C64.7342,-1.11504 46.6605,-1.16539 30.7542,-1.2097"/>
<polygon fill="black" stroke="black" points="30.452,0.539561 25.4569,-1.22446 30.4618,-2.96043 30.452,0.539561"/>
<text text-anchor="middle" x="53.0516" y="3.65242" font-family="monospace" font-size="6.00">2392571:T&gt;C</text>
</g>
<!-- 4 -->
<g id="node5" class="node"><title>4</title>
<ellipse fill="olivedrab" stroke="black" cx="46.8459" cy="-59.8774" rx="3.5" ry="3.5"/>
</g>
<!-- 4&#45;&gt;0 -->
<g id="edge4" class="edge"><title>4&#45;&gt;0</title>
<path fill="none" stroke="black" d="M44.5348,-57.052C39.8991,-51.3849 29.0564,-38.1295 19.1063,-25.9654"/>
<polygon fill="black" stroke="black" points="20.2967,-24.6566 15.7764,-21.8945 17.5876,-26.8727 20.2967,-24.6566"/>
<text text-anchor="middle" x="10.8205" y="-43.7087" font-family="monospace" font-size="6.00">2395858:T&gt;G</text>
</g>
</g>
</svg>
