<?xml version="1.0" encoding="UTF-8" standalone="no"?>
<!DOCTYPE svg PUBLIC "-//W3C//DTD SVG 1.1//EN"
 "http://www.w3.org/Graphics/SVG/1.1/DTD/svg11.dtd">
<!-- Generated by graphviz version 2.38.0 (20140413.2041)
 -->
<!-- Title: %3 Pages: 1 -->
<svg width="186pt" height="190pt"
 viewBox="0.00 0.00 186.00 189.52" xmlns="http://www.w3.org/2000/svg" xmlns:xlink="http://www.w3.org/1999/xlink">
<g id="graph0" class="graph" transform="scale(1 1) rotate(0) translate(91.5521 97.6685)">
<title>%3</title>
<polygon fill="white" stroke="none" points="-91.5521,91.8529 -91.5521,-97.6685 94.4469,-97.6685 94.4469,91.8529 -91.5521,91.8529"/>
<!-- 0 -->
<g id="node1" class="node"><title>0</title>
<ellipse fill="palegreen" stroke="black" cx="0.762451" cy="0.808663" rx="33" ry="33"/>
<text text-anchor="middle" x="0.762451" y="2.10866" font-family="monospace" font-size="6.00">85</text>
</g>
<!-- 1 -->
<g id="node2" class="node"><title>1</title>
<ellipse fill="palegreen" stroke="black" cx="62.7628" cy="-57.0029" rx="3.5" ry="3.5"/>
</g>
<!-- 0&#45;&gt;1 -->
<g id="edge1" class="edge"><title>0&#45;&gt;1</title>
<path fill="none" stroke="black" d="M24.9109,-21.7083C38.5115,-34.39 53.9641,-48.7987 60.0738,-54.4956"/>
</g>
<!-- 2 -->
<g id="node3" class="node"><title>2</title>
<ellipse fill="palegreen" stroke="black" cx="-25.9176" cy="84.3529" rx="3.5" ry="3.5"/>
</g>
<!-- 0&#45;&gt;2 -->
<g id="edge2" class="edge"><title>0&#45;&gt;2</title>
<path fill="none" stroke="black" d="M-9.32413,32.3931C-15.2267,50.8762 -22.0344,72.1932 -24.7302,80.6349"/>
</g>
<!-- 3 -->
<g id="node4" class="node"><title>3</title>
<ellipse fill="palegreen" stroke="black" cx="-17.6006" cy="-76.8824" rx="3.5" ry="3.5"/>
</g>
<!-- 0&#45;&gt;3 -->
<g id="edge3" class="edge"><title>0&#45;&gt;3</title>
<path fill="none" stroke="black" d="M-6.91875,-31.6892C-10.7713,-47.9888 -14.9862,-65.8211 -16.7503,-73.2846"/>
</g>
<!-- 4 -->
<g id="node5" class="node"><title>4</title>
<ellipse fill="palegreen" stroke="black" cx="27.8933" cy="-88.6685" rx="5" ry="5"/>
<text text-anchor="middle" x="27.8933" y="-87.3685" font-family="monospace" font-size="6.00">2</text>
</g>
<!-- 0&#45;&gt;4 -->
<g id="edge4" class="edge"><title>0&#45;&gt;4</title>
<path fill="none" stroke="black" d="M10.4042,-30.9896C15.4827,-47.7385 21.364,-67.1349 24.8486,-78.6269"/>
<polygon fill="black" stroke="black" points="23.227,-79.3102 26.3526,-83.5872 26.5764,-78.2945 23.227,-79.3102"/>
<text text-anchor="middle" x="8.12636" y="-57.0082" font-family="monospace" font-size="6.00">I492N</text>
</g>
<!-- 5 -->
<g id="node6" class="node"><title>5</title>
<ellipse fill="palegreen" stroke="black" cx="-67.8926" cy="-75.0873" rx="9" ry="9"/>
<text text-anchor="middle" x="-67.8926" y="-73.7873" font-family="monospace" font-size="6.00">6</text>
</g>
<!-- 0&#45;&gt;5 -->
<g id="edge5" class="edge"><title>0&#45;&gt;5</title>
<path fill="none" stroke="black" d="M-21.7178,-24.0425C-35.7962,-39.6058 -52.905,-58.519 -61.8225,-68.377"/>
</g>
<!-- 6 -->
<g id="node7" class="node"><title>6</title>
<ellipse fill="palegreen" stroke="black" cx="-84.0521" cy="18.2094" rx="3.5" ry="3.5"/>
</g>
<!-- 0&#45;&gt;6 -->
<g id="edge6" class="edge"><title>0&#45;&gt;6</title>
<path fill="none" stroke="black" d="M-31.7865,7.48648C-50.4725,11.3202 -71.862,15.7085 -80.3257,17.4449"/>
</g>
<!-- 7 -->
<g id="node8" class="node"><title>7</title>
<ellipse fill="palegreen" stroke="black" cx="83.1451" cy="26.7176" rx="3.5" ry="3.5"/>
</g>
<!-- 0&#45;&gt;7 -->
<g id="edge7" class="edge"><title>0&#45;&gt;7</title>
<path fill="none" stroke="black" d="M32.3781,10.7516C50.5284,16.4598 71.3046,22.9938 79.5256,25.5793"/>
</g>
<!-- 8 -->
<g id="node9" class="node"><title>8</title>
<ellipse fill="palegreen" stroke="black" cx="-67.7598" cy="61.9503" rx="5" ry="5"/>
<text text-anchor="middle" x="-67.7598" y="63.2503" font-family="monospace" font-size="6.00">2</text>
</g>
<!-- 0&#45;&gt;8 -->
<g id="edge8" class="edge"><title>0&#45;&gt;8</title>
<path fill="none" stroke="black" d="M-23.9756,22.8822C-38.6962,36.0171 -55.9645,51.4255 -63.6786,58.3087"/>
</g>
<!-- 9 -->
<g id="node10" class="node"><title>9</title>
<ellipse fill="palegreen" stroke="black" cx="60.5205" cy="67.1878" rx="3.5" ry="3.5"/>
</g>
<!-- 0&#45;&gt;9 -->
<g id="edge9" class="edge"><title>0&#45;&gt;9</title>
<path fill="none" stroke="black" d="M23.0142,25.5258C36.2876,40.2699 51.7134,57.4048 57.827,64.1958"/>
</g>
<!-- 10 -->
<g id="node11" class="node"><title>10</title>
<ellipse fill="palegreen" stroke="black" cx="18.3613" cy="82.8408" rx="3.5" ry="3.5"/>
</g>
<!-- 0&#45;&gt;10 -->
<g id="edge10" class="edge"><title>0&#45;&gt;10</title>
<path fill="none" stroke="black" d="M7.71797,33.2299C10.9005,48.0646 14.42,64.4698 16.5084,74.204"/>
<polygon fill="black" stroke="black" points="18.2701,74.0732 17.6079,79.3291 14.8479,74.8074 18.2701,74.0732"/>
<text text-anchor="middle" x="2.61317" y="51.5169" font-family="monospace" font-size="6.00">M925L</text>
</g>
<!-- 11 -->
<g id="node12" class="node"><title>11</title>
<ellipse fill="palegreen" stroke="black" cx="-77.1697" cy="-25.5784" rx="3.5" ry="3.5"/>
</g>
<!-- 0&#45;&gt;11 -->
<g id="edge11" class="edge"><title>0&#45;&gt;11</title>
<path fill="none" stroke="black" d="M-30.9356,-9.92395C-47.4546,-15.5171 -65.7805,-21.7221 -73.4633,-24.3234"/>
</g>
<!-- 12 -->
<g id="node13" class="node"><title>12</title>
<ellipse fill="palegreen" stroke="black" cx="86.9469" cy="-18.848" rx="3.5" ry="3.5"/>
</g>
<!-- 0&#45;&gt;12 -->
<g id="edge12" class="edge"><title>0&#45;&gt;12</title>
<path fill="none" stroke="black" d="M33.3451,-6.62268C52.6029,-11.0149 74.843,-16.0874 83.3687,-18.0319"/>
</g>
</g>
</svg>
