<?xml version="1.0" encoding="UTF-8" standalone="no"?>
<!DOCTYPE svg PUBLIC "-//W3C//DTD SVG 1.1//EN"
 "http://www.w3.org/Graphics/SVG/1.1/DTD/svg11.dtd">
<!-- Generated by graphviz version 2.38.0 (20140413.2041)
 -->
<!-- Title: %3 Pages: 1 -->
<svg width="304pt" height="189pt"
 viewBox="0.00 0.00 303.77 188.77" xmlns="http://www.w3.org/2000/svg" xmlns:xlink="http://www.w3.org/1999/xlink">
<g id="graph0" class="graph" transform="scale(1 1) rotate(0) translate(143.108 87.287)">
<title>%3</title>
<polygon fill="white" stroke="none" points="-143.108,101.48 -143.108,-87.287 160.665,-87.287 160.665,101.48 -143.108,101.48"/>
<!-- 0 -->
<g id="node1" class="node"><title>0</title>
<path fill="olivedrab" stroke="black" stroke-width="0.5" d="M-67.1116,53.8914C-67.1116,53.8914 -58.6116,53.8914 -58.6116,53.8914 -58.6116,53.2839 -58.6767,52.6782 -58.8058,52.0846 -58.935,51.491 -59.1274,50.913 -59.3797,50.3604 -59.6321,49.8078 -59.9429,49.2839 -60.307,48.7976 -60.671,48.3113 -61.0862,47.8654 -61.5453,47.4676 -62.0044,47.0697 -62.5048,46.7223 -63.038,46.4312 -63.5711,46.14 -64.134,45.9069 -64.7169,45.7357 -65.2997,45.5646 -65.8993,45.4564 -66.5052,45.4131 -67.1111,45.3697 -67.72,45.3915 -68.3213,45.4779 -68.3213,45.4779 -67.1116,53.8914 -67.1116,53.8914"/>
<path fill="#1874cd" stroke="black" stroke-width="0.5" d="M-67.1116,53.8914C-67.1116,53.8914 -68.3213,45.4779 -68.3213,45.4779 -68.7219,45.5355 -69.1179,45.6217 -69.5063,45.7357 -69.8947,45.8498 -70.2744,45.9914 -70.6426,46.1596 -71.0108,46.3277 -71.3665,46.5219 -71.707,46.7408 -72.0476,46.9596 -72.372,47.2025 -72.6779,47.4676 -72.9838,47.7326 -73.2704,48.0192 -73.5355,48.3251 -73.8005,48.631 -74.0434,48.9555 -74.2622,49.296 -74.4811,49.6365 -74.6753,49.9922 -74.8435,50.3604 -75.0116,50.7286 -75.1532,51.1083 -75.2673,51.4967 -75.3813,51.8851 -75.4675,52.2811 -75.5251,52.6817 -75.5827,53.0824 -75.6116,53.4867 -75.6116,53.8914 -75.6116,54.2962 -75.5827,54.7004 -75.5251,55.1011 -75.4675,55.5018 -75.3813,55.8978 -75.2673,56.2862 -75.1532,56.6745 -75.0116,57.0543 -74.8435,57.4225 -74.6753,57.7906 -74.4811,58.1464 -74.2622,58.4869 -74.0434,58.8274 -73.8005,59.1518 -73.5355,59.4577 -73.2704,59.7636 -72.9838,60.0502 -72.6779,60.3153 -72.372,60.5804 -72.0476,60.8232 -71.707,61.0421 -71.3665,61.2609 -71.0108,61.4551 -70.6426,61.6233 -70.2744,61.7914 -69.8947,61.9331 -69.5063,62.0471 -69.1179,62.1612 -68.7219,62.2473 -68.3213,62.3049 -67.9206,62.3625 -67.5164,62.3914 -67.1116,62.3914 -66.7068,62.3914 -66.3026,62.3625 -65.9019,62.3049 -65.5013,62.2473 -65.1052,62.1612 -64.7169,62.0471 -64.3285,61.9331 -63.9488,61.7914 -63.5806,61.6233 -63.2124,61.4551 -62.8567,61.2609 -62.5161,61.0421 -62.1756,60.8232 -61.8512,60.5804 -61.5453,60.3153 -61.2394,60.0502 -60.9528,59.7636 -60.6877,59.4577 -60.4227,59.1518 -60.1798,58.8274 -59.9609,58.4869 -59.7421,58.1464 -59.5479,57.7906 -59.3797,57.4225 -59.2116,57.0543 -59.0699,56.6745 -58.9559,56.2862 -58.8419,55.8978 -58.7557,55.5018 -58.6981,55.1011 -58.6405,54.7004 -58.6116,54.2962 -58.6116,53.8914 -58.6116,53.8914 -67.1116,53.8914 -67.1116,53.8914"/>
<ellipse fill="none" stroke="black" cx="-67.1116" cy="53.8914" rx="8.5" ry="8.5"/>
<text text-anchor="middle" x="-67.1116" y="55.1914" font-family="monospace" font-size="6.00">11</text>
</g>
<!-- 8 -->
<g id="node9" class="node"><title>8</title>
<ellipse fill="olivedrab" stroke="black" cx="-98.5266" cy="94.9797" rx="2.5" ry="2.5"/>
</g>
<!-- 0&#45;&gt;8 -->
<g id="edge2" class="edge"><title>0&#45;&gt;8</title>
<path fill="none" stroke="black" d="M-72.2991,60.6763C-78.1895,68.3805 -87.7328,80.8624 -93.539,88.4564"/>
<polygon fill="black" stroke="black" points="-92.4436,89.9049 -96.8708,92.8141 -95.224,87.7791 -92.4436,89.9049"/>
<text text-anchor="middle" x="-105.75" y="74.7611" font-family="monospace" font-size="6.00">2408941:T&gt;C</text>
</g>
<!-- 1 -->
<g id="node2" class="node"><title>1</title>
<path fill="olivedrab" stroke="black" stroke-width="0.5" d="M-10.1427,16.433C-10.1427,16.433 -0.142718,16.433 -0.142718,16.433 -0.142718,15.7342 -0.215959,15.0374 -0.361242,14.3539 -0.506524,13.6704 -0.723048,13.004 -1.00726,12.3656 -1.29148,11.7273 -1.64182,11.1205 -2.05255,10.5552 -2.46327,9.98984 -2.93213,9.46912 -3.45141,9.00156 -3.9707,8.53399 -4.53757,8.12213 -5.14272,7.77275 -5.74787,7.42337 -6.38798,7.13837 -7.05255,6.92244 -7.71712,6.70651 -8.40249,6.56083 -9.09743,6.48779 -9.79237,6.41474 -10.4931,6.41474 -11.188,6.48779 -11.8829,6.56083 -12.5683,6.70651 -13.2329,6.92244 -13.8975,7.13837 -14.5376,7.42337 -15.1427,7.77275 -15.7479,8.12214 -16.3147,8.53399 -16.834,9.00156 -17.3533,9.46912 -17.8222,9.98984 -18.2329,10.5552 -18.6436,11.1205 -18.994,11.7273 -19.2782,12.3656 -19.5624,13.004 -19.7789,13.6704 -19.9242,14.3539 -20.0695,15.0374 -20.1427,15.7342 -20.1427,16.433 -20.1427,17.1318 -20.0695,17.8286 -19.9242,18.5121 -19.9242,18.5121 -10.1427,16.433 -10.1427,16.433"/>
<path fill="#1874cd" stroke="black" stroke-width="0.5" d="M-10.1427,16.433C-10.1427,16.433 -19.9242,18.5121 -19.9242,18.5121 -19.7971,19.1101 -19.6154,19.6951 -19.3815,20.2598 -19.1476,20.8246 -18.8624,21.3667 -18.5294,21.8794 -18.1965,22.3921 -17.8172,22.8731 -17.3965,23.3166 -16.9757,23.76 -16.5151,24.1639 -16.0206,24.5232 -15.526,24.8825 -14.9996,25.1957 -14.4478,25.4589 -13.8961,25.722 -13.3214,25.934 -12.7309,26.0923 -12.1404,26.2505 -11.5367,26.3542 -10.9273,26.4022 -10.3179,26.4501 -9.70538,26.4421 -9.09743,26.3782 -8.48949,26.3143 -7.88868,26.1948 -7.30256,26.0212 -6.71644,25.8476 -6.14748,25.6206 -5.60281,25.3431 -5.05815,25.0655 -4.54007,24.7387 -4.0551,24.3665 -3.57013,23.9944 -3.1203,23.5786 -2.71127,23.1243 -2.30223,22.67 -1.93572,22.1792 -1.61632,21.658 -1.29692,21.1368 -1.02598,20.5874 -0.806913,20.0167 -0.587846,19.446 -0.421568,18.8564 -0.310169,18.2554 -0.198769,17.6543 -0.142718,17.0443 -0.142718,16.433 -0.142718,16.433 -10.1427,16.433 -10.1427,16.433"/>
<ellipse fill="none" stroke="black" cx="-10.1427" cy="16.433" rx="10" ry="10"/>
<text text-anchor="middle" x="-10.1427" y="17.733" font-family="monospace" font-size="6.00">15</text>
</g>
<!-- 1&#45;&gt;0 -->
<g id="edge1" class="edge"><title>1&#45;&gt;0</title>
<path fill="none" stroke="black" d="M-18.5487,21.9601C-28.2982,28.3707 -44.433,38.9797 -55.4058,46.1946"/>
<polygon fill="black" stroke="black" points="-54.6194,47.7719 -59.7587,49.0567 -56.5424,44.8475 -54.6194,47.7719"/>
<text text-anchor="middle" x="-50.818" y="33.4165" font-family="monospace" font-size="6.00">F1920S</text>
</g>
<!-- 2 -->
<g id="node3" class="node"><title>2</title>
<ellipse fill="#1874cd" stroke="black" cx="45.8838" cy="-11.9005" rx="4.5" ry="4.5"/>
<text text-anchor="middle" x="45.8838" y="-10.6005" font-family="monospace" font-size="6.00">3</text>
</g>
<!-- 1&#45;&gt;2 -->
<g id="edge3" class="edge"><title>1&#45;&gt;2</title>
<path fill="none" stroke="black" d="M-1.14108,11.8807C9.38561,6.55724 26.6938,-2.19579 37.118,-7.46744"/>
<polygon fill="black" stroke="black" points="36.3707,-9.05057 41.6224,-9.7454 37.9503,-5.92724 36.3707,-9.05057"/>
<text text-anchor="middle" x="-1.02131" y="-0.999844" font-family="monospace" font-size="6.00">2403731:A&gt;T</text>
</g>
<!-- 5 -->
<g id="node6" class="node"><title>5</title>
<ellipse fill="olivedrab" stroke="black" cx="-6.55376" cy="-32.7376" rx="2.5" ry="2.5"/>
</g>
<!-- 1&#45;&gt;5 -->
<g id="edge7" class="edge"><title>1&#45;&gt;5</title>
<path fill="none" stroke="black" d="M-9.38159,6.00518C-8.7126,-3.1603 -7.75295,-16.308 -7.14155,-24.6845"/>
<polygon fill="black" stroke="black" points="-8.86189,-25.1558 -6.75247,-30.0152 -5.37118,-24.901 -8.86189,-25.1558"/>
<text text-anchor="middle" x="-17.5533" y="-14.3927" font-family="monospace" font-size="6.00">R537L</text>
</g>
<!-- 6 -->
<g id="node7" class="node"><title>6</title>
<ellipse fill="olivedrab" stroke="black" cx="-24.9592" cy="62.5015" rx="2.5" ry="2.5"/>
</g>
<!-- 1&#45;&gt;6 -->
<g id="edge8" class="edge"><title>1&#45;&gt;6</title>
<path fill="none" stroke="black" d="M-13.2849,26.2029C-16.0467,34.7902 -20.0085,47.1084 -22.5326,54.9565"/>
<polygon fill="black" stroke="black" points="-20.9419,55.7267 -24.1388,59.9508 -24.2739,54.655 -20.9419,55.7267"/>
<text text-anchor="middle" x="-30.2684" y="41.0527" font-family="monospace" font-size="6.00">H1755Y</text>
</g>
<!-- 7 -->
<g id="node8" class="node"><title>7</title>
<ellipse fill="olivedrab" stroke="black" cx="34.9061" cy="44.2133" rx="2.5" ry="2.5"/>
</g>
<!-- 1&#45;&gt;7 -->
<g id="edge9" class="edge"><title>1&#45;&gt;7</title>
<path fill="none" stroke="black" d="M-1.45685,21.7893C7.18503,27.1185 20.2641,35.184 28.1557,40.0505"/>
<polygon fill="black" stroke="black" points="29.3348,38.7216 32.6721,42.8356 27.4977,41.7007 29.3348,38.7216"/>
<text text-anchor="middle" x="36.6252" y="30.1233" font-family="monospace" font-size="6.00">2417853:A&gt;C</text>
</g>
<!-- 9 -->
<g id="node10" class="node"><title>9</title>
<ellipse fill="olivedrab" stroke="black" cx="11.5148" cy="71.9428" rx="2.5" ry="2.5"/>
</g>
<!-- 1&#45;&gt;9 -->
<g id="edge10" class="edge"><title>1&#45;&gt;9</title>
<path fill="none" stroke="black" d="M-6.46881,25.8495C-2.19133,36.813 4.78211,54.6864 8.66901,64.6488"/>
<polygon fill="black" stroke="black" points="10.3701,64.1942 10.5572,69.4883 7.10945,65.4663 10.3701,64.1942"/>
<text text-anchor="middle" x="-7.47797" y="45.4121" font-family="monospace" font-size="6.00">K251R</text>
</g>
<!-- anon_1_3_0 -->
<g id="node11" class="node"><title>anon_1_3_0</title>
<ellipse fill="white" stroke="black" cx="-54.3929" cy="-20.1674" rx="1" ry="1"/>
</g>
<!-- 1&#45;&gt;anon_1_3_0 -->
<g id="edge4" class="edge"><title>1&#45;&gt;anon_1_3_0</title>
<path fill="none" stroke="black" d="M-17.8505,10.0577C-26.8637,2.60263 -41.531,-9.529 -49.2573,-15.9197"/>
<polygon fill="black" stroke="black" points="-50.6052,-14.7634 -53.3427,-19.2988 -48.3744,-17.4605 -50.6052,-14.7634"/>
<text text-anchor="middle" x="-56.6508" y="-6.86533" font-family="monospace" font-size="6.00">2400716:A&gt;C</text>
</g>
<!-- anon_2_4_0 -->
<g id="node13" class="node"><title>anon_2_4_0</title>
<ellipse fill="white" stroke="black" cx="87.3335" cy="-29.173" rx="1" ry="1"/>
</g>
<!-- 2&#45;&gt;anon_2_4_0 -->
<g id="edge11" class="edge"><title>2&#45;&gt;anon_2_4_0</title>
<path fill="none" stroke="black" d="M50.3197,-13.7489C57.8485,-16.8863 73.1252,-23.2522 81.5066,-26.7449"/>
<polygon fill="black" stroke="black" points="80.8931,-28.3851 86.1816,-28.693 82.2395,-25.1543 80.8931,-28.3851"/>
<text text-anchor="middle" x="47.3167" y="-23.4485" font-family="monospace" font-size="6.00">2390558:G&gt;A</text>
</g>
<!-- 3 -->
<g id="node4" class="node"><title>3</title>
<ellipse fill="#1874cd" stroke="black" cx="-111.579" cy="-80.787" rx="2.5" ry="2.5"/>
</g>
<!-- 4 -->
<g id="node5" class="node"><title>4</title>
<ellipse fill="#1874cd" stroke="black" cx="154.165" cy="-72.1659" rx="2.5" ry="2.5"/>
</g>
<!-- anon_1_3_1 -->
<g id="node12" class="node"><title>anon_1_3_1</title>
<ellipse fill="white" stroke="black" cx="-83.3235" cy="-50.4507" rx="1" ry="1"/>
</g>
<!-- anon_1_3_0&#45;&gt;anon_1_3_1 -->
<g id="edge5" class="edge"><title>anon_1_3_0&#45;&gt;anon_1_3_1</title>
<path fill="none" stroke="black" d="M-55.108,-20.916C-58.3362,-24.2951 -71.7008,-38.2846 -78.817,-45.7335"/>
<polygon fill="black" stroke="black" points="-80.1053,-44.5487 -82.2938,-49.3729 -77.5745,-46.9664 -80.1053,-44.5487"/>
<text text-anchor="middle" x="-89.594" y="-37.2326" font-family="monospace" font-size="6.00">2408043:T&gt;A</text>
</g>
<!-- anon_1_3_1&#45;&gt;3 -->
<g id="edge6" class="edge"><title>anon_1_3_1&#45;&gt;3</title>
<path fill="none" stroke="black" d="M-84.0219,-51.2006C-87.0059,-54.4043 -98.8574,-67.1286 -106.01,-74.8085"/>
<polygon fill="black" stroke="black" points="-107.609,-73.9567 -109.736,-78.8083 -105.047,-76.3422 -107.609,-73.9567"/>
<text text-anchor="middle" x="-118.108" y="-67.4502" font-family="monospace" font-size="6.00">2414435:C&gt;A</text>
</g>
<!-- anon_2_4_1 -->
<g id="node14" class="node"><title>anon_2_4_1</title>
<ellipse fill="white" stroke="black" cx="122.786" cy="-46.5796" rx="1" ry="1"/>
</g>
<!-- anon_2_4_0&#45;&gt;anon_2_4_1 -->
<g id="edge12" class="edge"><title>anon_2_4_0&#45;&gt;anon_2_4_1</title>
<path fill="none" stroke="black" d="M88.8568,-29.921C93.6347,-32.2668 108.505,-39.5679 116.887,-43.6832"/>
<polygon fill="black" stroke="black" points="116.346,-45.3676 121.606,-46.0004 117.889,-42.2258 116.346,-45.3676"/>
<text text-anchor="middle" x="84.0823" y="-40.0875" font-family="monospace" font-size="6.00">2426280:G&gt;T</text>
</g>
<!-- anon_2_4_1&#45;&gt;4 -->
<g id="edge13" class="edge"><title>anon_2_4_1&#45;&gt;4</title>
<path fill="none" stroke="black" d="M123.561,-47.212C126.875,-49.9141 140.037,-60.6461 147.981,-67.1235"/>
<polygon fill="black" stroke="black" points="147.137,-68.6936 152.118,-70.497 149.349,-65.981 147.137,-68.6936"/>
<text text-anchor="middle" x="117.094" y="-61.2618" font-family="monospace" font-size="6.00">2428660:A&gt;G</text>
</g>
</g>
</svg>
