<?xml version="1.0" encoding="UTF-8" standalone="no"?>
<!DOCTYPE svg PUBLIC "-//W3C//DTD SVG 1.1//EN"
 "http://www.w3.org/Graphics/SVG/1.1/DTD/svg11.dtd">
<!-- Generated by graphviz version 2.38.0 (20140413.2041)
 -->
<!-- Title: %3 Pages: 1 -->
<svg width="159pt" height="161pt"
 viewBox="0.00 0.00 158.74 161.10" xmlns="http://www.w3.org/2000/svg" xmlns:xlink="http://www.w3.org/1999/xlink">
<g id="graph0" class="graph" transform="scale(1 1) rotate(0) translate(78.2996 82.4201)">
<title>%3</title>
<polygon fill="white" stroke="none" points="-78.2996,78.6779 -78.2996,-82.4201 80.4433,-82.4201 80.4433,78.6779 -78.2996,78.6779"/>
<!-- 0 -->
<g id="node1" class="node"><title>0</title>
<ellipse fill="palegreen" stroke="black" cx="0.497012" cy="0.492329" rx="23.5" ry="23.5"/>
<text text-anchor="middle" x="0.497012" y="1.79233" font-family="monospace" font-size="6.00">85</text>
</g>
<!-- 1 -->
<g id="node2" class="node"><title>1</title>
<ellipse fill="palegreen" stroke="black" cx="53.6384" cy="-48.6919" rx="2.5" ry="2.5"/>
</g>
<!-- 0&#45;&gt;1 -->
<g id="edge1" class="edge"><title>0&#45;&gt;1</title>
<path fill="none" stroke="black" d="M17.8975,-15.6124C30.4898,-27.2671 46.2142,-41.8205 51.6682,-46.8684"/>
</g>
<!-- 2 -->
<g id="node3" class="node"><title>2</title>
<ellipse fill="palegreen" stroke="black" cx="-22.077" cy="72.1779" rx="2.5" ry="2.5"/>
</g>
<!-- 0&#45;&gt;2 -->
<g id="edge2" class="edge"><title>0&#45;&gt;2</title>
<path fill="none" stroke="black" d="M-6.64556,23.1741C-12.019,40.2379 -18.8478,61.9232 -21.2197,69.4553"/>
</g>
<!-- 3 -->
<g id="node4" class="node"><title>3</title>
<ellipse fill="palegreen" stroke="black" cx="-15.0464" cy="-66.575" rx="2.5" ry="2.5"/>
</g>
<!-- 0&#45;&gt;3 -->
<g id="edge3" class="edge"><title>0&#45;&gt;3</title>
<path fill="none" stroke="black" d="M-4.85216,-22.5884C-8.43504,-38.0479 -12.7812,-56.8007 -14.3989,-63.7812"/>
</g>
<!-- 4 -->
<g id="node5" class="node"><title>4</title>
<ellipse fill="palegreen" stroke="black" cx="23.6957" cy="-74.9201" rx="3.5" ry="3.5"/>
<text text-anchor="middle" x="23.6957" y="-73.6201" font-family="monospace" font-size="6.00">2</text>
</g>
<!-- 0&#45;&gt;4 -->
<g id="edge4" class="edge"><title>0&#45;&gt;4</title>
<path fill="none" stroke="black" d="M7.45738,-22.1339C12.0518,-37.0692 17.8089,-55.7838 21.0881,-66.4437"/>
<polygon fill="black" stroke="black" points="19.4891,-67.1977 22.6319,-71.4621 22.8344,-66.1685 19.4891,-67.1977"/>
<text text-anchor="middle" x="5.49267" y="-48.829" font-family="monospace" font-size="6.00">I492N</text>
</g>
<!-- 5 -->
<g id="node6" class="node"><title>5</title>
<ellipse fill="palegreen" stroke="black" cx="-56.8701" cy="-62.7102" rx="6" ry="6"/>
<text text-anchor="middle" x="-56.8701" y="-61.4102" font-family="monospace" font-size="6.00">6</text>
</g>
<!-- 0&#45;&gt;5 -->
<g id="edge5" class="edge"><title>0&#45;&gt;5</title>
<path fill="none" stroke="black" d="M-15.4829,-17.1131C-28.2138,-31.1389 -45.1286,-49.7744 -52.7904,-58.2155"/>
</g>
<!-- 6 -->
<g id="node7" class="node"><title>6</title>
<ellipse fill="palegreen" stroke="black" cx="-71.7996" cy="15.6559" rx="2.5" ry="2.5"/>
</g>
<!-- 0&#45;&gt;6 -->
<g id="edge6" class="edge"><title>0&#45;&gt;6</title>
<path fill="none" stroke="black" d="M-22.7761,5.37363C-39.9479,8.97526 -61.5787,13.5121 -69.0866,15.0868"/>
</g>
<!-- 7 -->
<g id="node8" class="node"><title>7</title>
<ellipse fill="palegreen" stroke="black" cx="70.6693" cy="22.6964" rx="2.5" ry="2.5"/>
</g>
<!-- 0&#45;&gt;7 -->
<g id="edge7" class="edge"><title>0&#45;&gt;7</title>
<path fill="none" stroke="black" d="M23.0862,7.64007C39.7535,12.914 60.7487,19.5573 68.036,21.8632"/>
</g>
<!-- 8 -->
<g id="node9" class="node"><title>8</title>
<ellipse fill="palegreen" stroke="black" cx="-57.14" cy="52.3322" rx="3.5" ry="3.5"/>
<text text-anchor="middle" x="-57.14" y="53.6322" font-family="monospace" font-size="6.00">2</text>
</g>
<!-- 0&#45;&gt;8 -->
<g id="edge8" class="edge"><title>0&#45;&gt;8</title>
<path fill="none" stroke="black" d="M-17.1092,16.3277C-30.6162,28.4762 -48.0164,44.1262 -54.5279,49.9828"/>
</g>
<!-- 9 -->
<g id="node10" class="node"><title>9</title>
<ellipse fill="palegreen" stroke="black" cx="51.4899" cy="57.2551" rx="2.5" ry="2.5"/>
</g>
<!-- 0&#45;&gt;9 -->
<g id="edge9" class="edge"><title>0&#45;&gt;9</title>
<path fill="none" stroke="black" d="M16.352,18.1413C28.5144,31.6798 44.1094,49.0394 49.53,55.0733"/>
</g>
<!-- 10 -->
<g id="node11" class="node"><title>10</title>
<ellipse fill="palegreen" stroke="black" cx="15.5348" cy="70.0465" rx="2.5" ry="2.5"/>
</g>
<!-- 0&#45;&gt;10 -->
<g id="edge10" class="edge"><title>0&#45;&gt;10</title>
<path fill="none" stroke="black" d="M5.50438,23.6529C8.42001,37.1385 11.9049,53.257 13.905,62.5081"/>
<polygon fill="black" stroke="black" points="15.6378,62.242 14.984,67.499 12.2169,62.9817 15.6378,62.242"/>
<text text-anchor="middle" x="0.686942" y="43.1111" font-family="monospace" font-size="6.00">M925L</text>
</g>
<!-- 11 -->
<g id="node12" class="node"><title>11</title>
<ellipse fill="palegreen" stroke="black" cx="-66.5353" cy="-21.7222" rx="2.5" ry="2.5"/>
</g>
<!-- 0&#45;&gt;11 -->
<g id="edge11" class="edge"><title>0&#45;&gt;11</title>
<path fill="none" stroke="black" d="M-21.8238,-6.90479C-37.6673,-12.1553 -57.2817,-18.6555 -64.0801,-20.9085"/>
</g>
<!-- 12 -->
<g id="node13" class="node"><title>12</title>
<ellipse fill="palegreen" stroke="black" cx="73.9433" cy="-16.0369" rx="2.5" ry="2.5"/>
</g>
<!-- 0&#45;&gt;12 -->
<g id="edge12" class="edge"><title>0&#45;&gt;12</title>
<path fill="none" stroke="black" d="M23.7359,-4.73763C41.2188,-8.6722 63.4367,-13.6724 71.1538,-15.4091"/>
</g>
</g>
</svg>
