<?xml version="1.0" encoding="UTF-8" standalone="no"?>
<!DOCTYPE svg PUBLIC "-//W3C//DTD SVG 1.1//EN"
 "http://www.w3.org/Graphics/SVG/1.1/DTD/svg11.dtd">
<!-- Generated by graphviz version 2.38.0 (20140413.2041)
 -->
<!-- Title: %3 Pages: 1 -->
<svg width="508pt" height="353pt"
 viewBox="0.00 0.00 508.47 353.34" xmlns="http://www.w3.org/2000/svg" xmlns:xlink="http://www.w3.org/1999/xlink">
<g id="graph0" class="graph" transform="scale(1 1) rotate(0) translate(285.51 181.884)">
<title>%3</title>
<polygon fill="white" stroke="none" points="-285.51,171.454 -285.51,-181.884 222.96,-181.884 222.96,171.454 -285.51,171.454"/>
<!-- 0 -->
<g id="node1" class="node"><title>0</title>
<ellipse fill="#1874cd" stroke="black" cx="51.1877" cy="32.5951" rx="10" ry="10"/>
<text text-anchor="middle" x="51.1877" y="33.8951" font-family="monospace" font-size="6.00">8</text>
</g>
<!-- anon_0_10_0 -->
<g id="node13" class="node"><title>anon_0_10_0</title>
<ellipse fill="white" stroke="black" cx="3.21204" cy="4.44564" rx="2.5" ry="2.5"/>
</g>
<!-- 0&#45;&gt;anon_0_10_0 -->
<g id="edge2" class="edge"><title>0&#45;&gt;anon_0_10_0</title>
<path fill="none" stroke="black" d="M42.3882,27.4321C33.0691,21.9641 18.5546,13.4478 10.0551,8.46078"/>
<polygon fill="black" stroke="black" points="9.06741,9.9103 5.64055,5.87055 10.8387,6.89155 9.06741,9.9103"/>
<text text-anchor="middle" x="5.22167" y="15.7464" font-family="monospace" font-size="6.00">2408423:C&gt;T</text>
</g>
<!-- 1 -->
<g id="node2" class="node"><title>1</title>
<ellipse fill="#1874cd" stroke="black" cx="153.153" cy="14.8105" rx="12" ry="12"/>
<text text-anchor="middle" x="153.153" y="16.1105" font-family="monospace" font-size="6.00">11</text>
</g>
<!-- 3 -->
<g id="node4" class="node"><title>3</title>
<ellipse fill="#1874cd" stroke="black" cx="162.142" cy="55.6641" rx="3.5" ry="3.5"/>
</g>
<!-- 1&#45;&gt;3 -->
<g id="edge10" class="edge"><title>1&#45;&gt;3</title>
<path fill="none" stroke="black" d="M155.802,26.847C157.231,33.3431 158.962,41.2095 160.254,47.0812"/>
<polygon fill="black" stroke="black" points="162.007,46.904 161.372,52.1633 158.588,47.6562 162.007,46.904"/>
<text text-anchor="middle" x="137.028" y="34.7641" font-family="monospace" font-size="6.00">2381529:T&gt;C</text>
</g>
<!-- 4 -->
<g id="node5" class="node"><title>4</title>
<ellipse fill="#1874cd" stroke="black" cx="210.594" cy="-14.5849" rx="7" ry="7"/>
<text text-anchor="middle" x="210.594" y="-13.2849" font-family="monospace" font-size="6.00">4</text>
</g>
<!-- 1&#45;&gt;4 -->
<g id="edge11" class="edge"><title>1&#45;&gt;4</title>
<path fill="none" stroke="black" d="M163.958,9.28143C174.124,4.07901 189.276,-3.67514 199.527,-8.92107"/>
<polygon fill="black" stroke="black" points="198.874,-10.5527 204.122,-11.2727 200.468,-7.43696 198.874,-10.5527"/>
<text text-anchor="middle" x="170.242" y="-2.01982" font-family="monospace" font-size="6.00">V1681I</text>
</g>
<!-- 5 -->
<g id="node6" class="node"><title>5</title>
<ellipse fill="#1874cd" stroke="black" cx="189.237" cy="73.3546" rx="5" ry="5"/>
<text text-anchor="middle" x="189.237" y="74.6546" font-family="monospace" font-size="6.00">2</text>
</g>
<!-- 1&#45;&gt;5 -->
<g id="edge12" class="edge"><title>1&#45;&gt;5</title>
<path fill="none" stroke="black" d="M159.605,25.277C166.503,36.4697 177.323,54.0236 183.803,64.5377"/>
<polygon fill="black" stroke="black" points="185.466,63.9002 186.599,69.0749 182.486,65.7367 185.466,63.9002"/>
<text text-anchor="middle" x="160.204" y="42.7073" font-family="monospace" font-size="6.00">S2076T</text>
</g>
<!-- 6 -->
<g id="node7" class="node"><title>6</title>
<ellipse fill="#1874cd" stroke="black" cx="98.3009" cy="65.2926" rx="6" ry="6"/>
<text text-anchor="middle" x="98.3009" y="66.5926" font-family="monospace" font-size="6.00">3</text>
</g>
<!-- 1&#45;&gt;6 -->
<g id="edge13" class="edge"><title>1&#45;&gt;6</title>
<path fill="none" stroke="black" d="M144.096,23.1466C133.765,32.6541 116.999,48.0839 106.875,57.4017"/>
<polygon fill="black" stroke="black" points="107.845,58.8875 102.981,60.9858 105.475,56.3122 107.845,58.8875"/>
<text text-anchor="middle" x="104.485" y="45.0742" font-family="monospace" font-size="6.00">2376361:T&gt;G</text>
</g>
<!-- 7 -->
<g id="node8" class="node"><title>7</title>
<ellipse fill="#1874cd" stroke="black" cx="215.46" cy="22.0387" rx="3.5" ry="3.5"/>
</g>
<!-- 1&#45;&gt;7 -->
<g id="edge14" class="edge"><title>1&#45;&gt;7</title>
<path fill="none" stroke="black" d="M165.167,16.2042C177.34,17.6164 195.88,19.7672 206.722,21.025"/>
<polygon fill="black" stroke="black" points="207.099,19.3069 211.864,21.6215 206.695,22.7836 207.099,19.3069"/>
<text text-anchor="middle" x="197.444" y="16.4146" font-family="monospace" font-size="6.00">L1617F</text>
</g>
<!-- anon_1_9_0 -->
<g id="node20" class="node"><title>anon_1_9_0</title>
<ellipse fill="white" stroke="black" cx="148.717" cy="-46.0255" rx="2.5" ry="2.5"/>
</g>
<!-- 1&#45;&gt;anon_1_9_0 -->
<g id="edge19" class="edge"><title>1&#45;&gt;anon_1_9_0</title>
<path fill="none" stroke="black" stroke-dasharray="5,2" d="M152.277,2.79125C151.382,-9.48215 150.02,-28.157 149.267,-38.4886"/>
<polygon fill="black" stroke="black" points="147.52,-38.382 148.901,-43.4961 151.011,-38.6366 147.52,-38.382"/>
<text text-anchor="middle" x="129.772" y="-20.0487" font-family="monospace" font-size="6.00">2408423:C&gt;T</text>
</g>
<!-- 2 -->
<g id="node3" class="node"><title>2</title>
<ellipse fill="#1874cd" stroke="black" cx="127.361" cy="88.5968" rx="3.5" ry="3.5"/>
</g>
<!-- 3&#45;&gt;2 -->
<g id="edge15" class="edge"><title>3&#45;&gt;2</title>
<path fill="none" stroke="black" d="M159.413,58.2483C153.9,63.4683 141.311,75.3885 133.653,82.6392"/>
<polygon fill="black" stroke="black" points="134.817,83.9478 129.983,86.1148 132.41,81.4063 134.817,83.9478"/>
<text text-anchor="middle" x="125.533" y="68.2438" font-family="monospace" font-size="6.00">2376361:T&gt;G</text>
</g>
<!-- 8 -->
<g id="node9" class="node"><title>8</title>
<ellipse fill="#1874cd" stroke="black" cx="145.648" cy="108.27" rx="5" ry="5"/>
<text text-anchor="middle" x="145.648" y="109.57" font-family="monospace" font-size="6.00">2</text>
</g>
<!-- 5&#45;&gt;8 -->
<g id="edge16" class="edge"><title>5&#45;&gt;8</title>
<path fill="none" stroke="black" d="M185.215,76.5767C178.115,82.2638 163.229,94.1874 153.877,101.679"/>
<polygon fill="black" stroke="black" points="154.785,103.193 149.788,104.953 152.597,100.462 154.785,103.193"/>
<text text-anchor="middle" x="190.546" y="86.9277" font-family="monospace" font-size="6.00">2376361:T&gt;G</text>
</g>
<!-- 6&#45;&gt;0 -->
<g id="edge1" class="edge"><title>6&#45;&gt;0</title>
<path fill="none" stroke="black" d="M93.259,61.7934C86.2599,56.9359 73.3702,47.9902 63.6952,41.2756"/>
<polygon fill="black" stroke="black" points="62.6188,42.6587 59.5089,38.3702 64.6144,39.7833 62.6188,42.6587"/>
<text text-anchor="middle" x="57.4771" y="49.3345" font-family="monospace" font-size="6.00">2366674:G&gt;T</text>
</g>
<!-- 6&#45;&gt;2 -->
<g id="edge27" class="edge"><title>6&#45;&gt;2</title>
<path fill="none" stroke="black" stroke-dasharray="5,2" d="M103.1,69.1408C107.835,72.9384 115.123,78.7827 120.476,83.0751"/>
<polygon fill="black" stroke="black" points="121.612,81.7434 124.418,86.2368 119.423,84.4739 121.612,81.7434"/>
<text text-anchor="middle" x="90.7877" y="80.908" font-family="monospace" font-size="6.00">2381529:T&gt;C</text>
</g>
<!-- 6&#45;&gt;8 -->
<g id="edge28" class="edge"><title>6&#45;&gt;8</title>
<path fill="none" stroke="black" stroke-dasharray="5,2" d="M103.014,69.5705C111.201,77.0016 128.117,92.3571 138.003,101.33"/>
<polygon fill="black" stroke="black" points="139.237,100.087 141.763,104.744 136.885,102.679 139.237,100.087"/>
<text text-anchor="middle" x="109.009" y="90.2504" font-family="monospace" font-size="6.00">S2076T</text>
</g>
<!-- anon_6_11_0 -->
<g id="node27" class="node"><title>anon_6_11_0</title>
<ellipse fill="white" stroke="black" cx="67.8737" cy="112.976" rx="2.5" ry="2.5"/>
</g>
<!-- 6&#45;&gt;anon_6_11_0 -->
<g id="edge29" class="edge"><title>6&#45;&gt;anon_6_11_0</title>
<path fill="none" stroke="black" stroke-dasharray="5,2" d="M95.0447,70.3956C89.5093,79.0702 78.2687,96.6857 72.1223,106.318"/>
<polygon fill="black" stroke="black" points="73.5946,107.264 69.4297,110.537 70.6441,105.381 73.5946,107.264"/>
<text text-anchor="middle" x="62.5835" y="93.1567" font-family="monospace" font-size="6.00">2408423:C&gt;T</text>
</g>
<!-- 9 -->
<g id="node10" class="node"><title>9</title>
<ellipse fill="#1874cd" stroke="black" cx="-123.211" cy="-88.5013" rx="18.5" ry="18.5"/>
<text text-anchor="middle" x="-123.211" y="-87.2013" font-family="monospace" font-size="6.00">26</text>
</g>
<!-- 11 -->
<g id="node12" class="node"><title>11</title>
<ellipse fill="#1874cd" stroke="black" cx="-167.658" cy="4.94121" rx="6" ry="6"/>
<text text-anchor="middle" x="-167.658" y="6.24121" font-family="monospace" font-size="6.00">3</text>
</g>
<!-- 9&#45;&gt;11 -->
<g id="edge17" class="edge"><title>9&#45;&gt;11</title>
<path fill="none" stroke="black" d="M-131.363,-71.3625C-140.55,-52.0492 -155.186,-21.2791 -162.76,-5.35644"/>
<polygon fill="black" stroke="black" points="-161.312,-4.32729 -165.04,-0.563799 -164.472,-5.83076 -161.312,-4.32729"/>
<text text-anchor="middle" x="-168.062" y="-40.5595" font-family="monospace" font-size="6.00">2376361:T&gt;G</text>
</g>
<!-- 10 -->
<g id="node11" class="node"><title>10</title>
<ellipse fill="#1874cd" stroke="black" cx="-227.865" cy="-2.54759" rx="9" ry="9"/>
<text text-anchor="middle" x="-227.865" y="-1.24759" font-family="monospace" font-size="6.00">6</text>
</g>
<!-- 11&#45;&gt;10 -->
<g id="edge18" class="edge"><title>11&#45;&gt;10</title>
<path fill="none" stroke="black" d="M-173.651,4.19577C-182.917,3.04334 -200.975,0.79714 -213.698,-0.785366"/>
<polygon fill="black" stroke="black" points="-214.037,0.936044 -218.783,-1.41782 -213.605,-2.53719 -214.037,0.936044"/>
<text text-anchor="middle" x="-193.675" y="6.5052" font-family="monospace" font-size="6.00">2366674:G&gt;T</text>
</g>
<!-- anon_0_10_1 -->
<g id="node14" class="node"><title>anon_0_10_1</title>
<ellipse fill="white" stroke="black" cx="-37.3338" cy="-19.1523" rx="2.5" ry="2.5"/>
</g>
<!-- anon_0_10_1&#45;&gt;anon_0_10_0 -->
<g id="edge3" class="edge"><title>anon_0_10_1&#45;&gt;anon_0_10_0</title>
<path fill="none" stroke="black" d="M-35.1539,-17.8836C-29.2693,-14.4588 -12.877,-4.91832 -3.53414,0.519312"/>
<polygon fill="black" stroke="black" points="-2.62149,-0.974391 0.819613,3.05323 -4.38208,2.05059 -2.62149,-0.974391"/>
<text text-anchor="middle" x="-40.344" y="-10.8822" font-family="monospace" font-size="6.00">2408677:A&gt;C</text>
</g>
<!-- anon_0_10_2 -->
<g id="node15" class="node"><title>anon_0_10_2</title>
<ellipse fill="white" stroke="black" cx="-79.6896" cy="-41.6576" rx="2.5" ry="2.5"/>
</g>
<!-- anon_0_10_2&#45;&gt;anon_0_10_1 -->
<g id="edge4" class="edge"><title>anon_0_10_2&#45;&gt;anon_0_10_1</title>
<path fill="none" stroke="black" d="M-77.4124,-40.4476C-71.2652,-37.1814 -54.1411,-28.0827 -44.3811,-22.8969"/>
<polygon fill="black" stroke="black" points="-43.4273,-24.3718 -39.833,-20.4803 -45.0696,-21.281 -43.4273,-24.3718"/>
<text text-anchor="middle" x="-81.8968" y="-33.8723" font-family="monospace" font-size="6.00">2408751:T&gt;A</text>
</g>
<!-- anon_0_10_3 -->
<g id="node16" class="node"><title>anon_0_10_3</title>
<ellipse fill="white" stroke="black" cx="-125.543" cy="-60.9664" rx="2.5" ry="2.5"/>
</g>
<!-- anon_0_10_3&#45;&gt;anon_0_10_2 -->
<g id="edge5" class="edge"><title>anon_0_10_3&#45;&gt;anon_0_10_2</title>
<path fill="none" stroke="black" d="M-123.078,-59.9283C-116.361,-57.1 -97.5406,-49.1746 -87.0275,-44.7476"/>
<polygon fill="black" stroke="black" points="-86.3242,-46.3503 -82.3953,-42.7969 -87.6826,-43.1246 -86.3242,-46.3503"/>
<text text-anchor="middle" x="-126.053" y="-47.5379" font-family="monospace" font-size="6.00">2408788:G&gt;A</text>
</g>
<!-- anon_0_10_4 -->
<g id="node17" class="node"><title>anon_0_10_4</title>
<ellipse fill="white" stroke="black" cx="-172.038" cy="-80.8573" rx="2.5" ry="2.5"/>
</g>
<!-- anon_0_10_3&#45;&gt;anon_0_10_4 -->
<g id="edge6" class="edge"><title>anon_0_10_3&#45;&gt;anon_0_10_4</title>
<path fill="none" stroke="black" d="M-128.043,-62.0358C-134.853,-64.9494 -153.937,-73.1137 -164.597,-77.6742"/>
<polygon fill="black" stroke="black" points="-165.385,-76.1079 -169.294,-79.6836 -164.009,-79.3258 -165.385,-76.1079"/>
<text text-anchor="middle" x="-167.32" y="-72.055" font-family="monospace" font-size="6.00">2410255:T&gt;C</text>
</g>
<!-- anon_0_10_5 -->
<g id="node18" class="node"><title>anon_0_10_5</title>
<ellipse fill="white" stroke="black" cx="-218.047" cy="-80.7344" rx="2.5" ry="2.5"/>
</g>
<!-- anon_0_10_4&#45;&gt;anon_0_10_5 -->
<g id="edge7" class="edge"><title>anon_0_10_4&#45;&gt;anon_0_10_5</title>
<path fill="none" stroke="black" d="M-174.778,-80.8499C-181.635,-80.8316 -199.734,-80.7833 -210.224,-80.7553"/>
<polygon fill="black" stroke="black" points="-210.374,-79.005 -215.379,-80.7415 -210.383,-82.505 -210.374,-79.005"/>
<text text-anchor="middle" x="-213.501" y="-76.0026" font-family="monospace" font-size="6.00">2410272:C&gt;T</text>
</g>
<!-- anon_0_10_6 -->
<g id="node19" class="node"><title>anon_0_10_6</title>
<ellipse fill="white" stroke="black" cx="-246.675" cy="-47.7205" rx="2.5" ry="2.5"/>
</g>
<!-- anon_0_10_6&#45;&gt;10 -->
<g id="edge9" class="edge"><title>anon_0_10_6&#45;&gt;10</title>
<path fill="none" stroke="black" d="M-245.664,-45.2918C-243.381,-39.8112 -237.693,-26.1496 -233.356,-15.7341"/>
<polygon fill="black" stroke="black" points="-231.663,-16.2204 -231.356,-10.9318 -234.894,-14.8749 -231.663,-16.2204"/>
<text text-anchor="middle" x="-260.51" y="-32.713" font-family="monospace" font-size="6.00">2422250:C&gt;T</text>
</g>
<!-- anon_0_10_6&#45;&gt;anon_0_10_5 -->
<g id="edge8" class="edge"><title>anon_0_10_6&#45;&gt;anon_0_10_5</title>
<path fill="none" stroke="black" d="M-244.796,-49.8867C-240.511,-54.8285 -229.882,-67.0858 -223.387,-74.5768"/>
<polygon fill="black" stroke="black" points="-224.568,-75.8859 -219.97,-78.517 -221.923,-73.5929 -224.568,-75.8859"/>
<text text-anchor="middle" x="-255.091" y="-64.4317" font-family="monospace" font-size="6.00">2415838:G&gt;A</text>
</g>
<!-- anon_1_9_1 -->
<g id="node21" class="node"><title>anon_1_9_1</title>
<ellipse fill="white" stroke="black" cx="140.308" cy="-92.9236" rx="2.5" ry="2.5"/>
</g>
<!-- anon_1_9_1&#45;&gt;anon_1_9_0 -->
<g id="edge20" class="edge"><title>anon_1_9_1&#45;&gt;anon_1_9_0</title>
<path fill="none" stroke="black" stroke-dasharray="5,2" d="M140.76,-90.4022C141.981,-83.5957 145.38,-64.6352 147.318,-53.8286"/>
<polygon fill="black" stroke="black" points="149.061,-54.0231 148.221,-48.7927 145.616,-53.4053 149.061,-54.0231"/>
<text text-anchor="middle" x="123.039" y="-74.3154" font-family="monospace" font-size="6.00">2408677:A&gt;C</text>
</g>
<!-- anon_1_9_2 -->
<g id="node22" class="node"><title>anon_1_9_2</title>
<ellipse fill="white" stroke="black" cx="114.02" cy="-132.84" rx="2.5" ry="2.5"/>
</g>
<!-- anon_1_9_2&#45;&gt;anon_1_9_1 -->
<g id="edge21" class="edge"><title>anon_1_9_2&#45;&gt;anon_1_9_1</title>
<path fill="none" stroke="black" stroke-dasharray="5,2" d="M115.433,-130.694C119.248,-124.901 129.876,-108.763 135.934,-99.5651"/>
<polygon fill="black" stroke="black" points="137.468,-100.417 138.757,-95.2789 134.545,-98.4921 137.468,-100.417"/>
<text text-anchor="middle" x="104.683" y="-117.33" font-family="monospace" font-size="6.00">2408751:T&gt;A</text>
</g>
<!-- anon_1_9_3 -->
<g id="node23" class="node"><title>anon_1_9_3</title>
<ellipse fill="white" stroke="black" cx="74.1284" cy="-160.478" rx="2.5" ry="2.5"/>
</g>
<!-- anon_1_9_3&#45;&gt;anon_1_9_2 -->
<g id="edge22" class="edge"><title>anon_1_9_3&#45;&gt;anon_1_9_2</title>
<path fill="none" stroke="black" stroke-dasharray="5,2" d="M76.2731,-158.992C82.0627,-154.981 98.1902,-143.807 107.382,-137.439"/>
<polygon fill="black" stroke="black" points="108.552,-138.757 111.666,-134.471 106.559,-135.88 108.552,-138.757"/>
<text text-anchor="middle" x="70.8277" y="-150.415" font-family="monospace" font-size="6.00">2408788:G&gt;A</text>
</g>
<!-- anon_1_9_4 -->
<g id="node24" class="node"><title>anon_1_9_4</title>
<ellipse fill="white" stroke="black" cx="26.5504" cy="-172.8" rx="2.5" ry="2.5"/>
</g>
<!-- anon_1_9_3&#45;&gt;anon_1_9_4 -->
<g id="edge23" class="edge"><title>anon_1_9_3&#45;&gt;anon_1_9_4</title>
<path fill="none" stroke="black" stroke-dasharray="5,2" d="M71.5704,-161.141C64.6652,-162.929 45.4299,-167.91 34.4666,-170.749"/>
<polygon fill="black" stroke="black" points="33.7593,-169.125 29.3578,-172.072 34.6368,-172.513 33.7593,-169.125"/>
<text text-anchor="middle" x="32.0185" y="-161.145" font-family="monospace" font-size="6.00">2410255:T&gt;C</text>
</g>
<!-- anon_1_9_5 -->
<g id="node25" class="node"><title>anon_1_9_5</title>
<ellipse fill="white" stroke="black" cx="-22.9667" cy="-168.514" rx="2.5" ry="2.5"/>
</g>
<!-- anon_1_9_4&#45;&gt;anon_1_9_5 -->
<g id="edge24" class="edge"><title>anon_1_9_4&#45;&gt;anon_1_9_5</title>
<path fill="none" stroke="black" stroke-dasharray="5,2" d="M23.8882,-172.569C16.635,-171.941 -3.68955,-170.182 -15.0426,-169.2"/>
<polygon fill="black" stroke="black" points="-14.9126,-167.455 -20.0449,-168.767 -15.2145,-170.942 -14.9126,-167.455"/>
<text text-anchor="middle" x="-16.5772" y="-173.084" font-family="monospace" font-size="6.00">2410272:C&gt;T</text>
</g>
<!-- anon_1_9_6 -->
<g id="node26" class="node"><title>anon_1_9_6</title>
<ellipse fill="white" stroke="black" cx="-68.9364" cy="-147.734" rx="2.5" ry="2.5"/>
</g>
<!-- anon_1_9_6&#45;&gt;9 -->
<g id="edge26" class="edge"><title>anon_1_9_6&#45;&gt;9</title>
<path fill="none" stroke="black" stroke-dasharray="5,2" d="M-70.7422,-145.763C-76.324,-139.671 -93.7217,-120.684 -106.967,-106.229"/>
<polygon fill="black" stroke="black" points="-105.912,-104.79 -110.58,-102.286 -108.492,-107.155 -105.912,-104.79"/>
<text text-anchor="middle" x="-109.855" y="-128.196" font-family="monospace" font-size="6.00">2422250:C&gt;T</text>
</g>
<!-- anon_1_9_6&#45;&gt;anon_1_9_5 -->
<g id="edge25" class="edge"><title>anon_1_9_6&#45;&gt;anon_1_9_5</title>
<path fill="none" stroke="black" stroke-dasharray="5,2" d="M-66.4649,-148.851C-59.7313,-151.895 -40.8628,-160.424 -30.3231,-165.189"/>
<polygon fill="black" stroke="black" points="-30.9562,-166.823 -25.6792,-167.288 -29.5144,-163.634 -30.9562,-166.823"/>
<text text-anchor="middle" x="-69.394" y="-159.22" font-family="monospace" font-size="6.00">2415838:G&gt;A</text>
</g>
<!-- anon_6_11_1 -->
<g id="node28" class="node"><title>anon_6_11_1</title>
<ellipse fill="white" stroke="black" cx="34.3016" cy="146.559" rx="2.5" ry="2.5"/>
</g>
<!-- anon_6_11_1&#45;&gt;anon_6_11_0 -->
<g id="edge30" class="edge"><title>anon_6_11_1&#45;&gt;anon_6_11_0</title>
<path fill="none" stroke="black" stroke-dasharray="5,2" d="M36.1066,144.753C40.979,139.879 54.5519,126.302 62.2879,118.564"/>
<polygon fill="black" stroke="black" points="61.1201,117.256 65.8928,114.957 63.5954,119.731 61.1201,117.256"/>
<text text-anchor="middle" x="28.1972" y="129.458" font-family="monospace" font-size="6.00">2408677:A&gt;C</text>
</g>
<!-- anon_6_11_2 -->
<g id="node29" class="node"><title>anon_6_11_2</title>
<ellipse fill="white" stroke="black" cx="-10.7497" cy="162.023" rx="2.5" ry="2.5"/>
</g>
<!-- anon_6_11_2&#45;&gt;anon_6_11_1 -->
<g id="edge31" class="edge"><title>anon_6_11_2&#45;&gt;anon_6_11_1</title>
<path fill="none" stroke="black" stroke-dasharray="5,2" d="M-8.32756,161.192C-1.7891,158.948 16.4247,152.695 26.8058,149.132"/>
<polygon fill="black" stroke="black" points="26.346,147.439 31.6433,147.471 27.4824,150.75 26.346,147.439"/>
<text text-anchor="middle" x="-11.7609" y="152.962" font-family="monospace" font-size="6.00">2408751:T&gt;A</text>
</g>
<!-- anon_6_11_3 -->
<g id="node30" class="node"><title>anon_6_11_3</title>
<ellipse fill="white" stroke="black" cx="-58.9724" cy="159.202" rx="2.5" ry="2.5"/>
</g>
<!-- anon_6_11_3&#45;&gt;anon_6_11_2 -->
<g id="edge32" class="edge"><title>anon_6_11_3&#45;&gt;anon_6_11_2</title>
<path fill="none" stroke="black" stroke-dasharray="5,2" d="M-56.3797,159.353C-49.381,159.763 -29.885,160.904 -18.7732,161.554"/>
<polygon fill="black" stroke="black" points="-18.4843,159.818 -13.5951,161.857 -18.6888,163.312 -18.4843,159.818"/>
<text text-anchor="middle" x="-37.5764" y="165.254" font-family="monospace" font-size="6.00">2408788:G&gt;A</text>
</g>
<!-- anon_6_11_4 -->
<g id="node31" class="node"><title>anon_6_11_4</title>
<ellipse fill="white" stroke="black" cx="-103.578" cy="139.705" rx="2.5" ry="2.5"/>
</g>
<!-- anon_6_11_3&#45;&gt;anon_6_11_4 -->
<g id="edge33" class="edge"><title>anon_6_11_3&#45;&gt;anon_6_11_4</title>
<path fill="none" stroke="black" stroke-dasharray="5,2" d="M-61.3706,158.153C-67.8444,155.324 -85.8781,147.442 -96.1566,142.949"/>
<polygon fill="black" stroke="black" points="-97.0657,144.462 -100.946,140.856 -95.6639,141.255 -97.0657,144.462"/>
<text text-anchor="middle" x="-99.7636" y="148.351" font-family="monospace" font-size="6.00">2410255:T&gt;C</text>
</g>
<!-- anon_6_11_5 -->
<g id="node32" class="node"><title>anon_6_11_5</title>
<ellipse fill="white" stroke="black" cx="-138.922" cy="106.002" rx="2.5" ry="2.5"/>
</g>
<!-- anon_6_11_4&#45;&gt;anon_6_11_5 -->
<g id="edge34" class="edge"><title>anon_6_11_4&#45;&gt;anon_6_11_5</title>
<path fill="none" stroke="black" stroke-dasharray="5,2" d="M-105.478,137.893C-110.608,133.002 -124.897,119.376 -133.041,111.61"/>
<polygon fill="black" stroke="black" points="-134.426,112.708 -136.836,107.99 -132.01,110.175 -134.426,112.708"/>
<text text-anchor="middle" x="-140.26" y="122.551" font-family="monospace" font-size="6.00">2410272:C&gt;T</text>
</g>
<!-- anon_6_11_6 -->
<g id="node33" class="node"><title>anon_6_11_6</title>
<ellipse fill="white" stroke="black" cx="-160.01" cy="61.5618" rx="2.5" ry="2.5"/>
</g>
<!-- anon_6_11_6&#45;&gt;11 -->
<g id="edge36" class="edge"><title>anon_6_11_6&#45;&gt;11</title>
<path fill="none" stroke="black" stroke-dasharray="5,2" d="M-160.379,58.8309C-161.403,51.2539 -164.322,29.6435 -166.137,16.2027"/>
<polygon fill="black" stroke="black" points="-167.904,16.1966 -166.839,11.0073 -164.435,15.728 -167.904,16.1966"/>
<text text-anchor="middle" x="-184.258" y="35.3168" font-family="monospace" font-size="6.00">2422250:C&gt;T</text>
</g>
<!-- anon_6_11_6&#45;&gt;anon_6_11_5 -->
<g id="edge35" class="edge"><title>anon_6_11_6&#45;&gt;anon_6_11_5</title>
<path fill="none" stroke="black" stroke-dasharray="5,2" d="M-158.876,63.9511C-155.816,70.4008 -147.29,88.3675 -142.431,98.6077"/>
<polygon fill="black" stroke="black" points="-140.729,98.1121 -140.166,103.38 -143.891,99.6127 -140.729,98.1121"/>
<text text-anchor="middle" x="-171.654" y="79.0794" font-family="monospace" font-size="6.00">2415838:G&gt;A</text>
</g>
</g>
</svg>
