<?xml version="1.0" encoding="UTF-8" standalone="no"?>
<!DOCTYPE svg PUBLIC "-//W3C//DTD SVG 1.1//EN"
 "http://www.w3.org/Graphics/SVG/1.1/DTD/svg11.dtd">
<!-- Generated by graphviz version 2.38.0 (20140413.2041)
 -->
<!-- Title: %3 Pages: 1 -->
<svg width="582pt" height="514pt"
 viewBox="0.00 0.00 582.30 513.53" xmlns="http://www.w3.org/2000/svg" xmlns:xlink="http://www.w3.org/1999/xlink">
<g id="graph0" class="graph" transform="scale(1 1) rotate(0) translate(302.345 269.773)">
<title>%3</title>
<polygon fill="white" stroke="none" points="-302.345,243.757 -302.345,-269.773 279.955,-269.773 279.955,243.757 -302.345,243.757"/>
<!-- 0 -->
<g id="node1" class="node"><title>0</title>
<path fill="deepskyblue" stroke="black" stroke-width="0.5" d="M-16.4294,153.73C-16.4294,153.73 9.07064,153.73 9.07064,153.73 9.07064,152.428 8.97086,151.127 8.77217,149.84 8.57347,148.553 8.27646,147.283 7.88372,146.041 7.49099,144.799 7.00369,143.589 6.42611,142.422 5.84853,141.255 5.18237,140.133 4.43346,139.068 3.68455,138.002 2.85511,136.996 1.95241,136.057 1.04971,135.118 0.0764051,134.249 -0.958957,133.459 -1.99432,132.669 -3.0887,131.959 -4.23248,131.337 -5.37627,130.714 -6.56611,130.179 -7.79154,129.738 -9.01697,129.297 -10.2744,128.95 -11.5528,128.701 -12.8312,128.452 -14.1268,128.301 -15.4282,128.25 -16.7297,128.199 -18.0331,128.248 -19.3271,128.396 -20.6211,128.544 -21.9018,128.791 -23.1581,129.134 -24.4144,129.478 -25.6425,129.917 -26.8316,130.449 -28.0208,130.98 -29.1674,131.602 -30.2616,132.308 -31.3558,133.015 -32.3942,133.804 -33.3678,134.669 -34.3414,135.534 -35.2472,136.473 -36.0774,137.476 -36.9076,138.48 -37.6597,139.545 -38.3271,140.664 -38.9945,141.782 -39.5752,142.95 -40.0642,144.157 -40.5532,145.364 -40.9489,146.607 -41.248,147.875 -41.547,149.143 -41.7486,150.431 -41.8507,151.73 -41.9529,153.028 -41.9555,154.332 -41.8584,155.631 -41.7613,156.93 -41.5649,158.22 -41.2708,159.488 -40.9767,160.757 -40.5858,162.002 -40.1016,163.211 -39.6174,164.42 -39.0413,165.59 -38.3783,166.711 -37.7153,167.832 -36.9674,168.901 -36.1411,169.907 -35.3149,170.914 -34.4127,171.856 -33.4425,172.725 -32.4723,173.594 -31.437,174.388 -30.3456,175.098 -29.2543,175.809 -28.11,176.435 -26.923,176.971 -25.7359,177.507 -24.5096,177.951 -23.2547,178.3 -21.9997,178.649 -20.72,178.901 -19.4266,179.054 -18.1332,179.207 -16.8299,179.26 -15.5283,179.214 -14.2267,179.168 -12.9305,179.023 -11.6511,178.779 -11.6511,178.779 -16.4294,153.73 -16.4294,153.73"/>
<path fill="#98f5ff" stroke="black" stroke-width="0.5" d="M-16.4294,153.73C-16.4294,153.73 -11.6511,178.779 -11.6511,178.779 -10.9297,178.641 -10.2145,178.472 -9.50763,178.273 -8.80074,178.074 -8.1028,177.844 -7.41575,177.584 -6.7287,177.325 -6.05319,177.035 -5.39111,176.718 -4.72903,176.4 -4.08099,176.053 -3.4488,175.679 -2.81662,175.305 -2.20089,174.904 -1.60332,174.477 -1.00576,174.05 -0.426923,173.598 0.131566,173.121 0.690055,172.644 1.22768,172.143 1.74292,171.619 2.25817,171.096 2.75057,170.551 3.21873,169.985 3.68689,169.419 4.13039,168.833 4.54797,168.229 4.96556,167.625 5.35685,167.003 5.72075,166.365 6.08464,165.727 6.4208,165.073 6.72829,164.406 7.03578,163.739 7.31431,163.059 7.5631,162.368 7.81189,161.677 8.03071,160.976 8.21894,160.266 8.40718,159.556 8.56465,158.838 8.69093,158.115 8.81721,157.391 8.91216,156.662 8.97554,155.931 9.03891,155.199 9.07064,154.465 9.07064,153.73 9.07064,153.73 -16.4294,153.73 -16.4294,153.73"/>
<ellipse fill="none" stroke="black" cx="-16.4294" cy="153.73" rx="25.5" ry="25.5"/>
<text text-anchor="middle" x="-16.4294" y="155.03" font-family="monospace" font-size="6.00">50</text>
</g>
<!-- 22 -->
<g id="node23" class="node"><title>22</title>
<ellipse fill="deepskyblue" stroke="black" cx="-54.8854" cy="217.607" rx="3.5" ry="3.5"/>
</g>
<!-- 0&#45;&gt;22 -->
<g id="edge3" class="edge"><title>0&#45;&gt;22</title>
<path fill="none" stroke="black" d="M-29.6638,175.713C-36.8607,187.667 -45.3023,201.689 -50.3656,210.099"/>
<polygon fill="black" stroke="black" points="-48.9621,211.161 -53.0403,214.542 -51.9607,209.356 -48.9621,211.161"/>
<text text-anchor="middle" x="-48.0147" y="190.706" font-family="monospace" font-size="6.00">P55L</text>
</g>
<!-- 1 -->
<g id="node2" class="node"><title>1</title>
<ellipse fill="deepskyblue" stroke="black" cx="24.3429" cy="-139.073" rx="3.5" ry="3.5"/>
</g>
<!-- 2 -->
<g id="node3" class="node"><title>2</title>
<ellipse fill="#ff3030" stroke="black" cx="-1.06812" cy="99.7061" rx="14" ry="14"/>
<text text-anchor="middle" x="-1.06812" y="101.006" font-family="monospace" font-size="6.00">15</text>
</g>
<!-- 3 -->
<g id="node4" class="node"><title>3</title>
<path fill="#1874cd" stroke="black" stroke-width="0.5" d="M-46.5669,-111.745C-46.5669,-111.745 -12.5669,-111.745 -12.5669,-111.745 -12.5669,-113.031 -12.6399,-114.316 -12.7855,-115.594 -12.931,-116.872 -13.149,-118.14 -13.4383,-119.393 -13.7276,-120.646 -14.0878,-121.882 -14.5171,-123.094 -14.9464,-124.307 -15.4441,-125.494 -16.0079,-126.65 -16.5717,-127.805 -17.2006,-128.928 -17.8916,-130.013 -18.5826,-131.098 -19.3346,-132.142 -20.1439,-133.142 -20.9533,-134.141 -21.8187,-135.094 -22.736,-135.995 -23.6533,-136.897 -24.621,-137.745 -25.6344,-138.537 -26.6479,-139.329 -27.7054,-140.063 -28.802,-140.735 -29.8985,-141.407 -31.0323,-142.016 -32.1979,-142.559 -33.3635,-143.103 -34.5589,-143.58 -35.7785,-143.988 -36.9982,-144.396 -38.2399,-144.735 -39.4979,-145.002 -40.7559,-145.269 -42.028,-145.465 -43.3082,-145.588 -44.5883,-145.712 -45.8744,-145.762 -47.1603,-145.74 -48.4462,-145.717 -49.7297,-145.622 -51.0048,-145.454 -52.2799,-145.286 -53.5444,-145.046 -54.7923,-144.735 -54.7923,-144.735 -46.5669,-111.745 -46.5669,-111.745"/>
<path fill="deepskyblue" stroke="black" stroke-width="0.5" d="M-46.5669,-111.745C-46.5669,-111.745 -54.7923,-144.735 -54.7923,-144.735 -56.1362,-144.4 -57.4584,-143.983 -58.7514,-143.487 -60.0445,-142.99 -61.306,-142.415 -62.5289,-141.765 -63.7519,-141.115 -64.9339,-140.391 -66.0685,-139.596 -67.2031,-138.802 -68.288,-137.939 -69.3173,-137.012 -70.3466,-136.085 -71.3184,-135.096 -72.227,-134.051 -73.1357,-133.006 -73.9797,-131.906 -74.7542,-130.757 -75.5287,-129.609 -76.2323,-128.415 -76.8611,-127.181 -77.4899,-125.946 -78.0427,-124.675 -78.5165,-123.374 -78.9902,-122.072 -79.3839,-120.743 -79.6955,-119.393 -80.0071,-118.044 -80.2359,-116.676 -80.3806,-115.299 -80.5254,-113.921 -80.5859,-112.536 -80.5617,-111.152 -80.5376,-109.767 -80.4288,-108.385 -80.236,-107.013 -80.0433,-105.641 -79.7669,-104.283 -79.4084,-102.945 -79.0499,-101.607 -78.61,-100.292 -78.0912,-99.0083 -77.5723,-97.7241 -76.9755,-96.4728 -76.304,-95.2614 -75.6325,-94.05 -74.8876,-92.8807 -74.0735,-91.7602 -74.0735,-91.7602 -46.5669,-111.745 -46.5669,-111.745"/>
<path fill="#98f5ff" stroke="black" stroke-width="0.5" d="M-46.5669,-111.745C-46.5669,-111.745 -74.0735,-91.7602 -74.0735,-91.7602 -73.4921,-90.9599 -72.876,-90.1854 -72.227,-89.4389 -71.5781,-88.6924 -70.8968,-87.9745 -70.1853,-87.2873 -69.4737,-86.6002 -68.7325,-85.9444 -67.9638,-85.3219 -67.1951,-84.6994 -66.3995,-84.1108 -65.5795,-83.5576 -65.5795,-83.5576 -46.5669,-111.745 -46.5669,-111.745"/>
<path fill="#ff3030" stroke="black" stroke-width="0.5" d="M-46.5669,-111.745C-46.5669,-111.745 -65.5795,-83.5576 -65.5795,-83.5576 -64.3081,-82.7001 -62.9801,-81.9295 -61.6047,-81.2512 -60.2293,-80.573 -58.8096,-79.9885 -57.3553,-79.5019 -55.9009,-79.0153 -54.4154,-78.6276 -52.9087,-78.3416 -51.4021,-78.0555 -49.8778,-77.8718 -48.3463,-77.7915 -46.8149,-77.7112 -45.2797,-77.7347 -43.7514,-77.8617 -42.2231,-77.9887 -40.7052,-78.2189 -39.208,-78.5508 -37.7107,-78.8828 -36.2377,-79.3156 -34.7989,-79.8464 -33.3601,-80.3772 -31.9589,-81.0047 -30.6049,-81.7247 -29.2508,-82.4447 -27.947,-83.2554 -26.7024,-84.1514 -25.4578,-85.0474 -24.2753,-86.0265 -23.1628,-87.0822 -22.0504,-88.1378 -21.0107,-89.2675 -20.0508,-90.4635 -19.0909,-91.6595 -18.2131,-92.9191 -17.4232,-94.2336 -16.6334,-95.5481 -15.9334,-96.9146 -15.328,-98.3236 -14.7226,-99.7326 -14.2133,-101.181 -13.8035,-102.659 -13.3936,-104.137 -13.0843,-105.64 -12.8775,-107.16 -12.6707,-108.68 -12.5669,-110.211 -12.5669,-111.745 -12.5669,-111.745 -46.5669,-111.745 -46.5669,-111.745"/>
<ellipse fill="none" stroke="black" cx="-46.5669" cy="-111.745" rx="34" ry="34"/>
<text text-anchor="middle" x="-46.5669" y="-110.445" font-family="monospace" font-size="6.00">90</text>
</g>
<!-- 3&#45;&gt;1 -->
<g id="edge4" class="edge"><title>3&#45;&gt;1</title>
<path fill="none" stroke="black" d="M-14.4316,-124.13C-3.21844,-128.451 8.44147,-132.945 16.0089,-135.861"/>
<polygon fill="black" stroke="black" points="15.6279,-137.59 20.9228,-137.755 16.8866,-134.324 15.6279,-137.59"/>
<text text-anchor="middle" x="21.7886" y="-125.195" font-family="monospace" font-size="6.00">2381352:C&gt;A</text>
</g>
<!-- 10 -->
<g id="node11" class="node"><title>10</title>
<ellipse fill="#ff3030" stroke="black" cx="-80.2725" cy="-73.6145" rx="3.5" ry="3.5"/>
</g>
<!-- 3&#45;&gt;10 -->
<g id="edge7" class="edge"><title>3&#45;&gt;10</title>
<path fill="none" stroke="black" d="M-69.2361,-86.0998C-71.058,-84.0386 -72.7766,-82.0944 -74.2909,-80.3813"/>
<polygon fill="black" stroke="black" points="-73.1302,-79.0521 -77.7529,-76.4649 -75.7526,-81.3701 -73.1302,-79.0521"/>
<text text-anchor="middle" x="-92.7635" y="-85.4406" font-family="monospace" font-size="6.00">2384174:T&gt;A</text>
</g>
<!-- 15 -->
<g id="node16" class="node"><title>15</title>
<ellipse fill="#ff3030" stroke="black" cx="-2.74667" cy="-123.357" rx="3.5" ry="3.5"/>
</g>
<!-- 3&#45;&gt;15 -->
<g id="edge8" class="edge"><title>3&#45;&gt;15</title>
<path fill="none" stroke="black" d="M-13.3543,-120.546C-12.6859,-120.723 -12.0367,-120.895 -11.4107,-121.061"/>
<polygon fill="black" stroke="black" points="-11.7832,-122.773 -6.5017,-122.362 -10.8866,-119.389 -11.7832,-122.773"/>
<text text-anchor="middle" x="-2.88251" y="-116.003" font-family="monospace" font-size="6.00">M704V</text>
</g>
<!-- 17 -->
<g id="node18" class="node"><title>17</title>
<ellipse fill="deepskyblue" stroke="black" cx="-79.145" cy="-161.03" rx="3.5" ry="3.5"/>
</g>
<!-- 3&#45;&gt;17 -->
<g id="edge9" class="edge"><title>3&#45;&gt;17</title>
<path fill="none" stroke="black" d="M-65.329,-140.129C-68.5963,-145.072 -71.7277,-149.809 -74.1808,-153.52"/>
<polygon fill="black" stroke="black" points="-75.7571,-152.731 -77.0544,-157.867 -72.8373,-154.661 -75.7571,-152.731"/>
<text text-anchor="middle" x="-90.7549" y="-149.024" font-family="monospace" font-size="6.00">2360189:T&gt;C</text>
</g>
<!-- 19 -->
<g id="node20" class="node"><title>19</title>
<ellipse fill="deepskyblue" stroke="black" cx="-117.123" cy="-152.589" rx="3.5" ry="3.5"/>
</g>
<!-- 3&#45;&gt;19 -->
<g id="edge10" class="edge"><title>3&#45;&gt;19</title>
<path fill="none" stroke="black" d="M-76.08,-128.83C-88.1072,-135.792 -101.053,-143.287 -109.121,-147.957"/>
<polygon fill="black" stroke="black" points="-110.405,-146.678 -113.855,-150.698 -108.651,-149.707 -110.405,-146.678"/>
<text text-anchor="middle" x="-113.6" y="-140.593" font-family="monospace" font-size="6.00">2428653:T&gt;C</text>
</g>
<!-- 23 -->
<g id="node24" class="node"><title>23</title>
<ellipse fill="deepskyblue" stroke="black" cx="35.7692" cy="-162.604" rx="3.5" ry="3.5"/>
</g>
<!-- 3&#45;&gt;23 -->
<g id="edge11" class="edge"><title>3&#45;&gt;23</title>
<path fill="none" stroke="black" d="M-17.3064,-129.819C-0.940879,-139.928 18.1716,-151.734 28.4056,-158.055"/>
<polygon fill="black" stroke="black" points="27.4919,-159.548 32.6655,-160.686 29.3312,-156.57 27.4919,-159.548"/>
<text text-anchor="middle" x="26.5496" y="-146.137" font-family="monospace" font-size="6.00">2359582:A&gt;G</text>
</g>
<!-- 27 -->
<g id="node28" class="node"><title>27</title>
<ellipse fill="deepskyblue" stroke="black" cx="-101.893" cy="-112.083" rx="3.5" ry="3.5"/>
</g>
<!-- 3&#45;&gt;27 -->
<g id="edge12" class="edge"><title>3&#45;&gt;27</title>
<path fill="none" stroke="black" d="M-80.6608,-111.953C-85.2194,-111.981 -89.5314,-112.008 -93.0634,-112.029"/>
<polygon fill="black" stroke="black" points="-93.1879,-110.28 -98.1771,-112.061 -93.1664,-113.78 -93.1879,-110.28"/>
<text text-anchor="middle" x="-92.6121" y="-107.191" font-family="monospace" font-size="6.00">V1303A</text>
</g>
<!-- 28 -->
<g id="node29" class="node"><title>28</title>
<ellipse fill="deepskyblue" stroke="black" cx="-113.02" cy="-60.0461" rx="3.5" ry="3.5"/>
</g>
<!-- 3&#45;&gt;28 -->
<g id="edge13" class="edge"><title>3&#45;&gt;28</title>
<path fill="none" stroke="black" d="M-73.5959,-90.717C-85.4988,-81.4569 -98.5019,-71.3408 -106.199,-65.3524"/>
<polygon fill="black" stroke="black" points="-105.228,-63.8907 -110.249,-62.2017 -107.377,-66.6532 -105.228,-63.8907"/>
<text text-anchor="middle" x="-110.898" y="-73.2347" font-family="monospace" font-size="6.00">2421715:C&gt;T</text>
</g>
<!-- 31 -->
<g id="node32" class="node"><title>31</title>
<ellipse fill="#ff3030" stroke="black" cx="-12.9282" cy="-171.323" rx="3.5" ry="3.5"/>
</g>
<!-- 3&#45;&gt;31 -->
<g id="edge14" class="edge"><title>3&#45;&gt;31</title>
<path fill="none" stroke="black" d="M-29.7475,-141.534C-25.1198,-149.731 -20.492,-157.927 -17.2656,-163.641"/>
<polygon fill="black" stroke="black" points="-18.719,-164.627 -14.7367,-168.12 -15.6712,-162.906 -18.719,-164.627"/>
<text text-anchor="middle" x="-44.5066" y="-154.788" font-family="monospace" font-size="6.00">2361414:A&gt;C</text>
</g>
<!-- 33 -->
<g id="node34" class="node"><title>33</title>
<ellipse fill="#ff3030" stroke="black" cx="-51.2909" cy="-182.205" rx="3.5" ry="3.5"/>
</g>
<!-- 3&#45;&gt;33 -->
<g id="edge17" class="edge"><title>3&#45;&gt;33</title>
<path fill="none" stroke="black" d="M-48.8459,-145.737C-49.5389,-156.074 -50.2415,-166.554 -50.7146,-173.61"/>
<polygon fill="black" stroke="black" points="-52.4643,-173.548 -51.0527,-178.654 -48.9721,-173.782 -52.4643,-173.548"/>
<text text-anchor="middle" x="-28.7802" y="-161.873" font-family="monospace" font-size="6.00">2395858:T&gt;G</text>
</g>
<!-- 38 -->
<g id="node39" class="node"><title>38</title>
<ellipse fill="#1874cd" stroke="black" cx="-137.583" cy="-98.2444" rx="3.5" ry="3.5"/>
</g>
<!-- 3&#45;&gt;38 -->
<g id="edge20" class="edge"><title>3&#45;&gt;38</title>
<path fill="none" stroke="black" d="M-80.1993,-106.756C-97.6317,-104.17 -117.564,-101.214 -128.753,-99.5541"/>
<polygon fill="black" stroke="black" points="-128.796,-97.7786 -133.999,-98.776 -129.31,-101.241 -128.796,-97.7786"/>
<text text-anchor="middle" x="-104.476" y="-98.3551" font-family="monospace" font-size="6.00">2392973:A&gt;G</text>
</g>
<!-- 40 -->
<g id="node41" class="node"><title>40</title>
<ellipse fill="#1874cd" stroke="black" cx="-31.9421" cy="-213.416" rx="3.5" ry="3.5"/>
</g>
<!-- 3&#45;&gt;40 -->
<g id="edge23" class="edge"><title>3&#45;&gt;40</title>
<path fill="none" stroke="black" d="M-41.697,-145.6C-38.6995,-166.439 -35.0832,-191.579 -33.2082,-204.614"/>
<polygon fill="black" stroke="black" points="-34.9219,-204.993 -32.4777,-209.692 -31.4575,-204.494 -34.9219,-204.993"/>
<text text-anchor="middle" x="-58.4526" y="-170.307" font-family="monospace" font-size="6.00">2392142:G&gt;T</text>
</g>
<!-- 50 -->
<g id="node51" class="node"><title>50</title>
<ellipse fill="#98f5ff" stroke="black" cx="-140.779" cy="-69.1498" rx="3.5" ry="3.5"/>
</g>
<!-- 3&#45;&gt;50 -->
<g id="edge24" class="edge"><title>3&#45;&gt;50</title>
<path fill="none" stroke="black" d="M-77.6767,-97.6796C-97.012,-88.9378 -120.427,-78.3512 -132.574,-72.8593"/>
<polygon fill="black" stroke="black" points="-132.03,-71.1848 -137.307,-70.7195 -133.472,-74.374 -132.03,-71.1848"/>
<text text-anchor="middle" x="-126.126" y="-80.4695" font-family="monospace" font-size="6.00">2408896:C&gt;T</text>
</g>
<!-- anon_3_32_0 -->
<g id="node53" class="node"><title>anon_3_32_0</title>
<ellipse fill="white" stroke="black" cx="-151.52" cy="-130.589" rx="2.5" ry="2.5"/>
</g>
<!-- 3&#45;&gt;anon_3_32_0 -->
<g id="edge15" class="edge"><title>3&#45;&gt;anon_3_32_0</title>
<path fill="none" stroke="black" d="M-80.0634,-117.759C-102.746,-121.832 -130.895,-126.886 -144.068,-129.251"/>
<polygon fill="black" stroke="black" points="-144.381,-127.529 -148.993,-130.135 -143.763,-130.974 -144.381,-127.529"/>
<text text-anchor="middle" x="-133.066" y="-118.705" font-family="monospace" font-size="6.00">2395098:A&gt;G</text>
</g>
<!-- anon_3_36_0 -->
<g id="node54" class="node"><title>anon_3_36_0</title>
<ellipse fill="white" stroke="black" cx="23.3164" cy="-195.476" rx="2.5" ry="2.5"/>
</g>
<!-- 3&#45;&gt;anon_3_36_0 -->
<g id="edge18" class="edge"><title>3&#45;&gt;anon_3_36_0</title>
<path fill="none" stroke="black" d="M-24.4554,-138.238C-9.47503,-156.187 9.15897,-178.513 18.0799,-189.201"/>
<polygon fill="black" stroke="black" points="16.8998,-190.519 21.4472,-193.236 19.5869,-188.276 16.8998,-190.519"/>
<text text-anchor="middle" x="17.8123" y="-165.92" font-family="monospace" font-size="6.00">2360106:G&gt;A</text>
</g>
<!-- anon_3_39_0 -->
<g id="node55" class="node"><title>anon_3_39_0</title>
<ellipse fill="white" stroke="black" cx="-101.423" cy="-192.964" rx="2.5" ry="2.5"/>
</g>
<!-- 3&#45;&gt;anon_3_39_0 -->
<g id="edge21" class="edge"><title>3&#45;&gt;anon_3_39_0</title>
<path fill="none" stroke="black" d="M-65.7528,-140.151C-76.9082,-156.668 -90.0689,-176.154 -96.859,-186.207"/>
<polygon fill="black" stroke="black" points="-98.4363,-185.416 -99.7847,-190.539 -95.5359,-187.375 -98.4363,-185.416"/>
<text text-anchor="middle" x="-102.306" y="-165.379" font-family="monospace" font-size="6.00">2360304:G&gt;A</text>
</g>
<!-- 4 -->
<g id="node5" class="node"><title>4</title>
<path fill="deepskyblue" stroke="black" stroke-width="0.5" d="M177.307,36.7462C177.307,36.7462 209.307,36.7462 209.307,36.7462 209.307,35.6451 209.25,34.5447 209.136,33.4494 209.023,32.3541 208.853,31.2654 208.627,30.1877 208.402,29.1099 208.12,28.0445 207.785,26.9957 207.449,25.9469 207.06,24.9162 206.618,23.9075 206.176,22.8989 205.683,21.9137 205.14,20.956 204.596,19.9982 204.004,19.0692 203.365,18.1725 202.725,17.2758 202.04,16.4127 201.312,15.5867 200.584,14.7606 199.814,13.9727 199.005,13.2261 198.195,12.4794 197.348,11.775 196.466,11.1158 195.584,10.4565 194.669,9.84315 193.723,9.27824 192.778,8.71333 191.804,8.19758 190.806,7.73306 189.808,7.26853 188.786,6.85584 187.745,6.49665 186.704,6.13745 185.645,5.83222 184.573,5.58218 183.501,5.33214 182.416,5.13761 181.324,4.99938 180.231,4.86115 179.132,4.7794 178.032,4.75445 176.931,4.72951 175.829,4.7614 174.732,4.85001 173.634,4.93861 172.542,5.08381 171.459,5.28502 170.377,5.48624 169.305,5.7432 168.249,6.05487 167.193,6.36655 166.154,6.73254 165.135,7.15136 164.117,7.57019 163.121,8.0413 162.151,8.56282 161.181,9.08434 160.239,9.65557 159.328,10.2742 158.417,10.8929 157.539,11.5582 156.696,12.2674 155.854,12.9766 155.049,13.7288 154.284,14.521 153.519,15.3133 152.796,16.1444 152.117,17.0112 151.438,17.878 150.804,18.7793 150.218,19.7115 149.631,20.6436 149.094,21.6054 148.607,22.593 148.12,23.5806 147.684,24.5927 147.301,25.6252 146.919,26.6577 146.589,27.7092 146.315,28.7757 146.041,29.8421 145.822,30.922 145.659,32.011 145.496,33.1001 145.389,34.1968 145.34,35.2968 145.29,36.3968 145.297,37.4986 145.36,38.5979 145.424,39.6972 145.544,40.7925 145.721,41.8794 145.721,41.8794 177.307,36.7462 177.307,36.7462"/>
<path fill="#98f5ff" stroke="black" stroke-width="0.5" d="M177.307,36.7462C177.307,36.7462 145.721,41.8794 145.721,41.8794 145.954,43.3111 146.283,44.7254 146.708,46.1124 147.133,47.4994 147.651,48.8559 148.26,50.1726 148.868,51.4893 149.566,52.763 150.347,53.9851 151.128,55.2071 151.992,56.3747 152.932,57.4795 153.872,58.5844 154.886,59.6241 155.966,60.5914 157.047,61.5588 158.193,62.4515 159.395,63.2634 160.597,64.0754 161.852,64.8046 163.153,65.4462 164.454,66.0877 165.797,66.6401 167.173,67.0994 168.549,67.5587 169.955,67.924 171.38,68.1926 172.806,68.4613 174.248,68.6327 175.696,68.7057 177.145,68.7787 178.597,68.7531 180.042,68.6291 181.487,68.5051 182.922,68.283 184.338,67.9643 185.753,67.6456 187.144,67.231 188.503,66.7235 189.862,66.216 191.185,65.6167 192.462,64.9297 193.74,64.2427 194.969,63.4696 196.142,62.6158 197.314,61.7621 198.428,60.8295 199.474,59.8247 199.474,59.8247 177.307,36.7462 177.307,36.7462"/>
<path fill="#ff3030" stroke="black" stroke-width="0.5" d="M177.307,36.7462C177.307,36.7462 199.474,59.8247 199.474,59.8247 200.249,59.0805 200.985,58.2978 201.681,57.4795 202.378,56.6612 203.032,55.8084 203.642,54.9243 204.252,54.0402 204.818,53.1259 205.336,52.1849 205.854,51.244 206.325,50.2775 206.746,49.2892 207.167,48.3009 207.538,47.292 207.858,46.2663 208.177,45.2407 208.445,44.1996 208.66,43.1471 208.875,42.0945 209.037,41.0318 209.145,39.9629 209.253,38.8941 209.307,37.8205 209.307,36.7462 209.307,36.7462 177.307,36.7462 177.307,36.7462"/>
<ellipse fill="none" stroke="black" cx="177.307" cy="36.7462" rx="32" ry="32"/>
<text text-anchor="middle" x="177.307" y="38.0462" font-family="monospace" font-size="6.00">78</text>
</g>
<!-- 49 -->
<g id="node50" class="node"><title>49</title>
<ellipse fill="#98f5ff" stroke="black" cx="267.771" cy="18.7612" rx="3.5" ry="3.5"/>
</g>
<!-- 4&#45;&gt;49 -->
<g id="edge26" class="edge"><title>4&#45;&gt;49</title>
<path fill="none" stroke="black" d="M208.693,30.5064C226.597,26.9469 247.704,22.7506 259.218,20.4616"/>
<polygon fill="black" stroke="black" points="259.051,18.7106 264.296,19.4519 259.734,22.1434 259.051,18.7106"/>
<text text-anchor="middle" x="254.955" y="30.284" font-family="monospace" font-size="6.00">2366963:G&gt;A</text>
</g>
<!-- 5 -->
<g id="node6" class="node"><title>5</title>
<ellipse fill="#ff3030" stroke="black" cx="143.871" cy="87.0184" rx="18" ry="18"/>
<text text-anchor="middle" x="143.871" y="88.3184" font-family="monospace" font-size="6.00">25</text>
</g>
<!-- 35 -->
<g id="node36" class="node"><title>35</title>
<ellipse fill="#ff3030" stroke="black" cx="188.72" cy="143.521" rx="3.5" ry="3.5"/>
</g>
<!-- 5&#45;&gt;35 -->
<g id="edge29" class="edge"><title>5&#45;&gt;35</title>
<path fill="none" stroke="black" d="M155.188,101.276C164.122,112.531 176.201,127.749 183.157,136.512"/>
<polygon fill="black" stroke="black" points="184.704,135.647 186.442,140.651 181.963,137.823 184.704,135.647"/>
<text text-anchor="middle" x="148.173" y="116.694" font-family="monospace" font-size="6.00">2366538:C&gt;A</text>
</g>
<!-- 6 -->
<g id="node7" class="node"><title>6</title>
<path fill="deepskyblue" stroke="black" stroke-width="0.5" d="M35.8904,32.3597C35.8904,32.3597 70.3904,32.3597 70.3904,32.3597 70.3904,31.194 70.3314,30.0291 70.2134,28.8694 70.0955,27.7097 69.9189,26.5567 69.6842,25.4149 69.4496,24.273 69.1572,23.1439 68.8083,22.0316 68.4593,20.9194 68.0542,19.8256 67.5945,18.7544 67.5945,18.7544 35.8904,32.3597 35.8904,32.3597"/>
<path fill="brown" stroke="black" stroke-width="0.5" d="M35.8904,32.3597C35.8904,32.3597 67.5945,18.7544 67.5945,18.7544 67.1971,17.8283 66.7593,16.92 66.2823,16.0323 65.8054,15.1445 65.2898,14.2781 64.737,13.4354 64.1842,12.5928 63.5948,11.7748 62.9703,10.9838 62.3459,10.1927 61.6872,9.42946 60.9959,8.69611 60.3047,7.96275 59.5817,7.26004 58.8289,6.58999 58.0762,5.91994 57.2944,5.28319 56.4859,4.68158 55.6774,4.07997 54.843,3.51408 53.9849,2.98552 53.1269,2.45697 52.2461,1.96627 51.3451,1.51482 50.4441,1.06338 49.5237,0.651635 48.5867,0.280768 47.6496,-0.0900988 46.6968,-0.41973 45.7309,-0.707176 44.765,-0.994623 43.7869,-1.23961 42.7996,-1.44143 41.8122,-1.64325 40.8165,-1.80171 39.8153,-1.91636 38.814,-2.03101 37.8083,-2.10173 36.8008,-2.12832 35.7934,-2.15491 34.7853,-2.13735 33.7794,-2.07569 32.7735,-2.01402 31.7708,-1.90832 30.7742,-1.75887 29.7776,-1.60942 28.788,-1.41637 27.8083,-1.18028 26.8285,-0.944197 25.8596,-0.665295 24.9043,-0.344381 23.949,-0.0234671 23.0082,0.339151 22.0846,0.742429 21.1611,1.14571 20.2556,1.58926 19.3709,2.07181 18.4862,2.55436 17.623,3.07544 16.7839,3.63356 15.9448,4.19168 15.1305,4.78629 14.3435,5.4157 13.5564,6.0451 12.7973,6.70869 12.0683,7.40455 11.3394,8.10041 10.6413,8.82788 9.976,9.58486 9.31073,10.3418 8.67895,11.1276 8.08247,11.9399 7.486,12.7522 6.9254,13.5902 6.40229,14.4516 5.87918,15.313 5.39407,16.1969 4.94834,17.1007 4.50261,18.0045 4.0967,18.9275 3.73178,19.8669 3.36685,20.8062 3.04327,21.7612 2.76194,22.7289 2.48062,23.6966 2.24183,24.6762 2.04627,25.6648 1.85071,26.6534 1.69855,27.6501 1.59025,28.652 1.48195,29.654 1.4176,30.6602 1.39739,31.6677 1.37718,32.6753 1.40112,33.6833 1.46916,34.6887 1.53719,35.6942 1.64925,36.6962 1.80501,37.6919 1.96076,38.6876 2.16007,39.6759 2.40236,40.6541 2.64465,41.6323 2.92968,42.5995 3.25664,43.5527 3.5836,44.506 3.95217,45.4445 4.36129,46.3655 4.77041,47.2864 5.21969,48.1891 5.70783,49.0707 6.19597,49.9524 6.72251,50.8122 7.28594,51.6478 7.84936,52.4834 8.44912,53.2938 9.0835,54.0769 9.71787,54.8599 10.3863,55.6148 11.0867,56.3393 11.7872,57.0639 12.5191,57.7574 13.2802,58.4178 14.0414,59.0783 14.8312,59.7051 15.6472,60.2964 16.4633,60.8877 17.3049,61.443 18.1695,61.9607 19.0342,62.4783 19.9211,62.9578 20.8278,63.3978 21.7344,63.8378 22.6599,64.2378 23.6016,64.5968 24.5433,64.9558 25.5002,65.2733 26.4697,65.5485 27.4392,65.8237 28.4202,66.0563 29.41,66.2456 30.3999,66.4349 31.3975,66.5807 32.4001,66.6827 33.4027,66.7846 34.4093,66.8426 35.417,66.8564 36.4247,66.8702 37.4325,66.8399 38.4375,66.7655 39.4425,66.6911 40.4438,66.5727 41.4385,66.4106 42.4331,66.2486 43.4202,66.043 44.3969,65.7945 45.3735,65.5461 46.3388,65.2549 47.29,64.9219 48.2412,64.5889 49.1773,64.2144 50.0957,63.7995 51.014,63.3845 51.9138,62.9296 52.7923,62.4358 53.6709,61.9421 54.5274,61.4101 55.3594,60.8414 56.1913,60.2727 56.998,59.6679 57.777,59.0285 58.556,58.3892 59.3067,57.7161 60.0267,57.011 60.7468,56.306 61.4357,55.5697 62.0913,54.8044 62.7469,54.039 63.3687,53.2453 63.9549,52.4255 64.541,51.6058 65.0909,50.7607 65.6031,49.8927 66.1152,49.0248 66.5891,48.1349 67.0234,47.2254 67.4576,46.316 67.8518,45.388 68.2048,44.4441 68.5578,43.5002 68.8692,42.5412 69.1383,41.57 69.1383,41.57 35.8904,32.3597 35.8904,32.3597"/>
<path fill="#ff3030" stroke="black" stroke-width="0.5" d="M35.8904,32.3597C35.8904,32.3597 69.1383,41.57 69.1383,41.57 69.5533,40.072 69.8666,38.5475 70.076,37.0072 70.2854,35.4669 70.3904,33.9142 70.3904,32.3597 70.3904,32.3597 35.8904,32.3597 35.8904,32.3597"/>
<ellipse fill="none" stroke="black" cx="35.8904" cy="32.3597" rx="34.5" ry="34.5"/>
<text text-anchor="middle" x="35.8904" y="33.6597" font-family="monospace" font-size="6.00">93</text>
</g>
<!-- 6&#45;&gt;0 -->
<g id="edge1" class="edge"><title>6&#45;&gt;0</title>
<path fill="none" stroke="black" d="M22.144,64.2484C14.0078,83.1228 3.78588,106.835 -4.09078,125.108"/>
<polygon fill="black" stroke="black" points="-2.66012,126.21 -6.24653,130.108 -5.87422,124.824 -2.66012,126.21"/>
<text text-anchor="middle" x="20.5266" y="92.478" font-family="monospace" font-size="6.00">I1868T</text>
</g>
<!-- 6&#45;&gt;2 -->
<g id="edge5" class="edge"><title>6&#45;&gt;2</title>
<path fill="none" stroke="black" d="M19.1413,62.8801C15.3669,69.7581 11.4953,76.8129 8.16386,82.8835"/>
<polygon fill="black" stroke="black" points="9.67189,83.7731 5.73217,87.3145 6.60355,82.0893 9.67189,83.7731"/>
<text text-anchor="middle" x="2.1526" y="77.6818" font-family="monospace" font-size="6.00">A1934V</text>
</g>
<!-- 6&#45;&gt;3 -->
<g id="edge6" class="edge"><title>6&#45;&gt;3</title>
<path fill="none" stroke="black" d="M18.6047,2.15063C5.26735,-21.158 -13.1858,-53.4072 -27.0527,-77.6414"/>
<polygon fill="black" stroke="black" points="-28.622,-76.8603 -29.5863,-82.0693 -25.5841,-78.5986 -28.622,-76.8603"/>
<text text-anchor="middle" x="-15.724" y="-39.9454" font-family="monospace" font-size="6.00">N1570Y</text>
</g>
<!-- 6&#45;&gt;4 -->
<g id="edge25" class="edge"><title>6&#45;&gt;4</title>
<path fill="none" stroke="black" d="M70.4847,33.4327C91.5296,34.0855 118.409,34.9193 139.939,35.5871"/>
<polygon fill="black" stroke="black" points="140.065,33.8401 145.008,35.7444 139.956,37.3384 140.065,33.8401"/>
<text text-anchor="middle" x="93.7119" y="39.3099" font-family="monospace" font-size="6.00">P1874L</text>
</g>
<!-- 6&#45;&gt;5 -->
<g id="edge27" class="edge"><title>6&#45;&gt;5</title>
<path fill="none" stroke="black" d="M66.8334,48.0227C84.7934,57.1138 106.942,68.3253 122.874,76.39"/>
<polygon fill="black" stroke="black" points="123.937,74.9664 127.608,78.786 122.356,78.0892 123.937,74.9664"/>
<text text-anchor="middle" x="106.354" y="60.0063" font-family="monospace" font-size="6.00">P1874S</text>
</g>
<!-- 7 -->
<g id="node8" class="node"><title>7</title>
<ellipse fill="#ff3030" stroke="black" cx="52.9021" cy="75.9667" rx="9.5" ry="9.5"/>
<text text-anchor="middle" x="52.9021" y="77.2667" font-family="monospace" font-size="6.00">7</text>
</g>
<!-- 6&#45;&gt;7 -->
<g id="edge30" class="edge"><title>6&#45;&gt;7</title>
<path fill="none" stroke="black" d="M48.4325,64.5095C48.4723,64.6116 48.512,64.7133 48.5515,64.8146"/>
<polygon fill="black" stroke="black" points="49.1696,61.5841 49.3566,66.8783 45.9089,62.8563 49.1696,61.5841"/>
<text text-anchor="middle" x="36.992" y="69.462" font-family="monospace" font-size="6.00">K1603T</text>
</g>
<!-- 8 -->
<g id="node9" class="node"><title>8</title>
<ellipse fill="#ff3030" stroke="black" cx="118.769" cy="25.079" rx="6" ry="6"/>
<text text-anchor="middle" x="118.769" y="26.379" font-family="monospace" font-size="6.00">3</text>
</g>
<!-- 6&#45;&gt;8 -->
<g id="edge31" class="edge"><title>6&#45;&gt;8</title>
<path fill="none" stroke="black" d="M70.558,29.3142C83.9067,28.1415 98.2189,26.8843 107.75,26.0469"/>
<polygon fill="black" stroke="black" points="107.632,24.3006 112.766,25.6063 107.939,27.7872 107.632,24.3006"/>
<text text-anchor="middle" x="100.654" y="25.4806" font-family="monospace" font-size="6.00">L1667M</text>
</g>
<!-- 12 -->
<g id="node13" class="node"><title>12</title>
<ellipse fill="#ff3030" stroke="black" cx="120.555" cy="-7.99485" rx="8" ry="8"/>
<text text-anchor="middle" x="120.555" y="-6.69485" font-family="monospace" font-size="6.00">5</text>
</g>
<!-- 6&#45;&gt;12 -->
<g id="edge32" class="edge"><title>6&#45;&gt;12</title>
<path fill="none" stroke="black" d="M67.4166,17.3331C81.6385,10.5544 97.6043,2.94452 108.289,-2.14819"/>
<polygon fill="black" stroke="black" points="107.813,-3.85973 113.079,-4.43136 109.319,-0.700261 107.813,-3.85973"/>
<text text-anchor="middle" x="99.3528" y="5.39247" font-family="monospace" font-size="6.00">I1940T</text>
</g>
<!-- 13 -->
<g id="node14" class="node"><title>13</title>
<path fill="#98f5ff" stroke="black" stroke-width="0.5" d="M-70.0616,88.8416C-70.0616,88.8416 -64.0616,88.8416 -64.0616,88.8416 -64.0616,88.5797 -64.0787,88.3181 -64.1129,88.0584 -64.1471,87.7988 -64.1982,87.5416 -64.266,87.2887 -64.3338,87.0357 -64.4181,86.7874 -64.5183,86.5455 -64.6185,86.3035 -64.7345,86.0684 -64.8654,85.8416 -64.9964,85.6148 -65.142,85.3968 -65.3014,85.189 -65.4609,84.9812 -65.6337,84.7841 -65.8189,84.5989 -66.0041,84.4137 -66.2012,84.2409 -66.409,84.0814 -66.6168,83.922 -66.8348,83.7764 -67.0616,83.6454 -67.2884,83.5145 -67.5235,83.3985 -67.7655,83.2983 -68.0074,83.1981 -68.2557,83.1138 -68.5087,83.046 -68.7616,82.9782 -69.0188,82.9271 -69.2784,82.8929 -69.5381,82.8587 -69.7997,82.8416 -70.0616,82.8416 -70.3235,82.8416 -70.5851,82.8587 -70.8447,82.8929 -71.1044,82.9271 -71.3615,82.9782 -71.6145,83.046 -71.8675,83.1138 -72.1157,83.1981 -72.3577,83.2983 -72.5996,83.3985 -72.8348,83.5145 -73.0616,83.6454 -73.0616,83.6454 -70.0616,88.8416 -70.0616,88.8416"/>
<path fill="#ff3030" stroke="black" stroke-width="0.5" d="M-70.0616,88.8416C-70.0616,88.8416 -73.0616,83.6454 -73.0616,83.6454 -73.2884,83.7764 -73.5064,83.922 -73.7141,84.0814 -73.9219,84.2409 -74.119,84.4137 -74.3042,84.5989 -74.4894,84.7841 -74.6623,84.9812 -74.8217,85.189 -74.9811,85.3968 -75.1268,85.6148 -75.2577,85.8416 -75.3887,86.0684 -75.5046,86.3035 -75.6048,86.5455 -75.7051,86.7874 -75.7893,87.0357 -75.8571,87.2887 -75.9249,87.5416 -75.9761,87.7988 -76.0102,88.0584 -76.0444,88.3181 -76.0616,88.5797 -76.0616,88.8416 -76.0616,89.1035 -76.0444,89.3651 -76.0102,89.6247 -75.9761,89.8844 -75.9249,90.1415 -75.8571,90.3945 -75.7893,90.6475 -75.7051,90.8957 -75.6048,91.1377 -75.5046,91.3796 -75.3887,91.6148 -75.2577,91.8416 -75.1268,92.0684 -74.9811,92.2864 -74.8217,92.4941 -74.6623,92.7019 -74.4894,92.899 -74.3042,93.0842 -74.119,93.2694 -73.9219,93.4423 -73.7141,93.6017 -73.5064,93.7611 -73.2884,93.9068 -73.0616,94.0377 -72.8348,94.1687 -72.5996,94.2846 -72.3577,94.3848 -72.1157,94.4851 -71.8675,94.5693 -71.6145,94.6371 -71.3615,94.7049 -71.1044,94.7561 -70.8447,94.7902 -70.5851,94.8244 -70.3235,94.8416 -70.0616,94.8416 -69.7997,94.8416 -69.5381,94.8244 -69.2784,94.7902 -69.0188,94.7561 -68.7616,94.7049 -68.5087,94.6371 -68.2557,94.5693 -68.0074,94.4851 -67.7655,94.3848 -67.5235,94.2846 -67.2884,94.1687 -67.0616,94.0377 -66.8348,93.9068 -66.6168,93.7611 -66.409,93.6017 -66.2012,93.4423 -66.0041,93.2694 -65.8189,93.0842 -65.6337,92.899 -65.4609,92.7019 -65.3014,92.4941 -65.142,92.2864 -64.9964,92.0684 -64.8654,91.8416 -64.7345,91.6148 -64.6185,91.3796 -64.5183,91.1377 -64.4181,90.8957 -64.3338,90.6475 -64.266,90.3945 -64.1982,90.1415 -64.1471,89.8844 -64.1129,89.6247 -64.0787,89.3651 -64.0616,89.1035 -64.0616,88.8416 -64.0616,88.8416 -70.0616,88.8416 -70.0616,88.8416"/>
<ellipse fill="none" stroke="black" cx="-70.0616" cy="88.8416" rx="6" ry="6"/>
<text text-anchor="middle" x="-70.0616" y="90.1416" font-family="monospace" font-size="6.00">3</text>
</g>
<!-- 6&#45;&gt;13 -->
<g id="edge33" class="edge"><title>6&#45;&gt;13</title>
<path fill="none" stroke="black" d="M5.24473,48.6966C-16.9387,60.5223 -45.5163,75.7567 -60.2733,83.6236"/>
<polygon fill="black" stroke="black" points="-59.4834,85.1855 -64.7188,85.9934 -61.1299,82.097 -59.4834,85.1855"/>
<text text-anchor="middle" x="-37.0143" y="63.9601" font-family="monospace" font-size="6.00">T791M</text>
</g>
<!-- 16 -->
<g id="node17" class="node"><title>16</title>
<ellipse fill="#ff3030" stroke="black" cx="-21.5414" cy="74.3432" rx="6" ry="6"/>
<text text-anchor="middle" x="-21.5414" y="75.6432" font-family="monospace" font-size="6.00">3</text>
</g>
<!-- 6&#45;&gt;16 -->
<g id="edge34" class="edge"><title>6&#45;&gt;16</title>
<path fill="none" stroke="black" d="M7.84751,52.8595C0.55102,58.1933 -6.80343,63.5696 -12.3301,67.6097"/>
<polygon fill="black" stroke="black" points="-11.432,69.1208 -16.5013,70.6588 -13.4976,66.2953 -11.432,69.1208"/>
<text text-anchor="middle" x="-13.7413" y="58.0346" font-family="monospace" font-size="6.00">N1345I</text>
</g>
<!-- 18 -->
<g id="node19" class="node"><title>18</title>
<path fill="deepskyblue" stroke="black" stroke-width="0.5" d="M110.614,-42.3386C110.614,-42.3386 122.114,-42.3386 122.114,-42.3386 122.114,-42.7903 122.088,-43.2417 122.035,-43.6903 121.981,-44.1389 121.902,-44.584 121.797,-45.0232 121.691,-45.4625 121.56,-45.8951 121.403,-46.319 121.247,-46.7428 121.066,-47.157 120.861,-47.5595 120.656,-47.962 120.427,-48.3521 120.176,-48.7277 119.925,-49.1033 119.652,-49.4638 119.359,-49.8073 119.066,-50.1508 118.752,-50.4767 118.42,-50.7833 118.089,-51.09 117.739,-51.3768 117.374,-51.6423 117.008,-51.9078 116.628,-52.1516 116.233,-52.3723 115.839,-52.593 115.432,-52.7904 115.015,-52.9632 114.598,-53.1361 114.171,-53.2842 113.736,-53.4068 113.301,-53.5295 112.859,-53.6264 112.413,-53.697 111.967,-53.7677 111.517,-53.812 111.066,-53.8297 110.614,-53.8475 110.162,-53.8386 109.712,-53.8032 109.262,-53.7677 108.814,-53.7058 108.371,-53.6176 107.928,-53.5295 107.49,-53.4154 107.061,-53.2758 106.631,-53.1362 106.21,-52.9714 105.8,-52.7823 105.389,-52.5931 104.991,-52.38 104.606,-52.144 104.22,-51.9079 103.849,-51.6494 103.495,-51.3698 103.14,-51.0901 102.802,-50.7898 102.483,-50.4703 102.163,-50.1509 101.863,-49.8129 101.583,-49.4582 101.303,-49.1034 101.045,-48.7325 100.809,-48.3473 100.573,-47.9622 100.36,-47.5634 100.171,-47.1532 99.9815,-46.743 99.8167,-46.3219 99.6771,-45.8923 99.5375,-45.4627 99.4234,-45.0252 99.3352,-44.5822 99.2471,-44.1391 99.1852,-43.6912 99.1497,-43.2409 99.1143,-42.7905 99.1054,-42.3385 99.1231,-41.8871 99.1409,-41.4357 99.1852,-40.9858 99.2558,-40.5396 99.3265,-40.0934 99.4234,-39.6518 99.546,-39.217 99.6686,-38.7823 99.8168,-38.3551 99.9896,-37.9378 100.163,-37.5204 100.36,-37.1136 100.581,-36.7195 100.801,-36.3253 101.045,-35.9445 101.311,-35.5791 101.311,-35.5791 110.614,-42.3386 110.614,-42.3386"/>
<path fill="#98f5ff" stroke="black" stroke-width="0.5" d="M110.614,-42.3386C110.614,-42.3386 101.311,-35.5791 101.311,-35.5791 101.665,-35.0917 102.057,-34.6329 102.483,-34.2069 102.909,-33.7809 103.367,-33.389 103.855,-33.0349 104.342,-32.6808 104.857,-32.3655 105.393,-32.092 105.93,-31.8185 106.488,-31.5876 107.061,-31.4015 107.634,-31.2153 108.22,-31.0744 108.815,-30.9802 109.41,-30.886 110.012,-30.8386 110.614,-30.8386 111.217,-30.8386 111.818,-30.886 112.413,-30.9802 113.008,-31.0744 113.595,-31.2153 114.168,-31.4015 114.741,-31.5876 115.298,-31.8185 115.835,-32.092 116.372,-32.3655 116.886,-32.6808 117.374,-33.0349 117.861,-33.389 118.32,-33.7809 118.746,-34.2069 119.172,-34.6329 119.564,-35.0917 119.918,-35.5791 120.272,-36.0665 120.587,-36.5809 120.861,-37.1177 121.134,-37.6545 121.365,-38.212 121.551,-38.7849 121.738,-39.3579 121.878,-39.9446 121.973,-40.5396 122.067,-41.1346 122.114,-41.7362 122.114,-42.3386 122.114,-42.3386 110.614,-42.3386 110.614,-42.3386"/>
<ellipse fill="none" stroke="black" cx="110.614" cy="-42.3386" rx="11.5" ry="11.5"/>
<text text-anchor="middle" x="110.614" y="-41.0386" font-family="monospace" font-size="6.00">10</text>
</g>
<!-- 6&#45;&gt;18 -->
<g id="edge35" class="edge"><title>6&#45;&gt;18</title>
<path fill="none" stroke="black" d="M60.3578,7.90065C73.2466,-4.98376 88.469,-20.2009 98.7562,-30.4846"/>
<polygon fill="black" stroke="black" points="97.5361,-31.7394 102.31,-34.0367 100.011,-29.2641 97.5361,-31.7394"/>
<text text-anchor="middle" x="68.057" y="-6.49199" font-family="monospace" font-size="6.00">E1597G</text>
</g>
<!-- 24 -->
<g id="node25" class="node"><title>24</title>
<ellipse fill="deepskyblue" stroke="black" cx="8.23855" cy="-9.97327" rx="5" ry="5"/>
<text text-anchor="middle" x="8.23855" y="-8.67327" font-family="monospace" font-size="6.00">2</text>
</g>
<!-- 6&#45;&gt;24 -->
<g id="edge36" class="edge"><title>6&#45;&gt;24</title>
<path fill="none" stroke="black" d="M16.9878,3.42113C15.9198,1.78608 14.8987,0.222869 13.9555,-1.22112"/>
<polygon fill="black" stroke="black" points="12.3629,-0.459209 11.0936,-5.60235 15.2932,-2.37329 12.3629,-0.459209"/>
<text text-anchor="middle" x="26.9716" y="-1.09999" font-family="monospace" font-size="6.00">I1584T</text>
</g>
<!-- 29 -->
<g id="node30" class="node"><title>29</title>
<path fill="deepskyblue" stroke="black" stroke-width="0.5" d="M90.1542,58.3388C90.1542,58.3388 102.654,58.3388 102.654,58.3388 102.654,57.8615 102.627,57.3845 102.572,56.9102 102.518,56.436 102.436,55.9653 102.328,55.5004 102.219,55.0355 102.084,54.5772 101.924,54.1277 101.763,53.6782 101.576,53.2384 101.365,52.8102 101.154,52.3821 100.919,51.9664 100.66,51.5652 100.401,51.164 100.12,50.7779 99.8169,50.4089 99.514,50.0399 99.1903,49.6885 98.8473,49.3566 98.5043,49.0246 98.1425,48.7125 97.7638,48.4219 97.385,48.1313 96.99,47.8626 96.5805,47.6172 96.1711,47.3718 95.7479,47.15 95.3131,46.953 94.8783,46.756 94.4325,46.5841 93.978,46.438 93.5235,46.292 93.0611,46.1721 92.5929,46.079 92.1247,45.9859 91.6515,45.9196 91.1758,45.8806 90.7,45.8416 90.2224,45.8299 89.7453,45.8455 89.2681,45.8611 88.7923,45.9041 88.3201,45.9741 87.8479,46.0442 87.3801,46.1412 86.919,46.2648 86.4579,46.3883 86.0043,46.5382 85.5603,46.7136 85.1163,46.8891 84.6828,47.0898 84.2618,47.3148 83.8408,47.5398 83.433,47.7888 83.0405,48.0605 82.648,48.3321 82.2713,48.6261 81.9124,48.9408 81.5535,49.2556 81.2129,49.5906 80.8924,49.9443 80.5718,50.298 80.2717,50.6698 79.9937,51.0579 79.7156,51.4459 79.46,51.8495 79.2281,52.2668 78.9962,52.684 78.7884,53.1143 78.6058,53.5553 78.4231,53.9963 78.2658,54.4474 78.1347,54.9065 78.0036,55.3655 77.899,55.8316 77.8212,56.3026 77.7434,56.7736 77.6927,57.2487 77.6693,57.7255 77.6459,58.2023 77.6498,58.68 77.681,59.1564 77.7122,59.6327 77.7707,60.1069 77.8562,60.5765 77.9416,61.0462 78.0539,61.5106 78.1925,61.9674 78.3311,62.4242 78.4957,62.8727 78.6856,63.3107 78.8754,63.7487 79.0902,64.1754 79.3289,64.5888 79.3289,64.5888 90.1542,58.3388 90.1542,58.3388"/>
<path fill="#98f5ff" stroke="black" stroke-width="0.5" d="M90.1542,58.3388C90.1542,58.3388 79.3289,64.5888 79.3289,64.5888 79.67,65.1796 80.0589,65.7414 80.4916,66.2687 80.9244,66.7961 81.3996,67.2871 81.9124,67.7368 82.4253,68.1866 82.9741,68.5936 83.5534,68.9539 84.1327,69.3141 84.7405,69.6263 85.3707,69.8873 86.0009,70.1484 86.6515,70.3574 87.3158,70.5123 87.9801,70.6672 88.656,70.7674 89.3367,70.8121 90.0174,70.8567 90.7006,70.8455 91.3795,70.7786 92.0583,70.7118 92.7306,70.5895 93.3895,70.4129 94.0484,70.2363 94.6917,70.0062 95.3131,69.7246 95.9344,69.4431 96.5317,69.1112 97.0989,68.7322 97.6661,68.3532 98.2013,67.9284 98.6991,67.4621 99.197,66.9958 99.6559,66.4895 100.071,65.9483 100.486,65.4072 100.857,64.8329 101.178,64.2313 101.5,63.6297 101.772,63.0028 101.991,62.3568 102.21,61.7109 102.376,61.0481 102.487,60.375 102.598,59.702 102.654,59.021 102.654,58.3388 102.654,58.3388 90.1542,58.3388 90.1542,58.3388"/>
<ellipse fill="none" stroke="black" cx="90.1542" cy="58.3388" rx="12.5" ry="12.5"/>
<text text-anchor="middle" x="90.1542" y="59.6388" font-family="monospace" font-size="6.00">12</text>
</g>
<!-- 6&#45;&gt;29 -->
<g id="edge40" class="edge"><title>6&#45;&gt;29</title>
<path fill="none" stroke="black" d="M67.1415,47.3213C69.4739,48.438 71.7647,49.5347 73.9428,50.5775"/>
<polygon fill="black" stroke="black" points="75.0329,49.1591 78.787,52.8967 73.5215,52.316 75.0329,49.1591"/>
<text text-anchor="middle" x="82.0422" y="46.7494" font-family="monospace" font-size="6.00">V1853I</text>
</g>
<!-- 41 -->
<g id="node42" class="node"><title>41</title>
<ellipse fill="brown" stroke="black" cx="-19.5542" cy="12.4563" rx="3.5" ry="3.5"/>
</g>
<!-- 6&#45;&gt;41 -->
<g id="edge41" class="edge"><title>6&#45;&gt;41</title>
<path fill="none" stroke="black" d="M3.31737,20.6667C-2.12772,18.712 -7.31511,16.8499 -11.369,15.3946"/>
<polygon fill="black" stroke="black" points="-11.9974,17.0284 -16.1121,13.6919 -10.8148,13.7343 -11.9974,17.0284"/>
<text text-anchor="middle" x="-25.0258" y="22.8306" font-family="monospace" font-size="6.00">2382263:A&gt;G</text>
</g>
<!-- 44 -->
<g id="node45" class="node"><title>44</title>
<ellipse fill="brown" stroke="black" cx="89.5828" cy="113.812" rx="8" ry="8"/>
<text text-anchor="middle" x="89.5828" y="115.112" font-family="monospace" font-size="6.00">5</text>
</g>
<!-- 6&#45;&gt;44 -->
<g id="edge45" class="edge"><title>6&#45;&gt;44</title>
<path fill="none" stroke="black" d="M54.9715,61.3059C64.3815,75.581 75.1841,91.9686 82.1826,102.585"/>
<polygon fill="black" stroke="black" points="83.8209,101.891 85.1117,107.029 80.8987,103.817 83.8209,101.891"/>
<text text-anchor="middle" x="89.5771" y="79.7457" font-family="monospace" font-size="6.00">2366965:T&gt;G</text>
</g>
<!-- 45 -->
<g id="node46" class="node"><title>45</title>
<ellipse fill="brown" stroke="black" cx="-17.5707" cy="45.0152" rx="3.5" ry="3.5"/>
</g>
<!-- 6&#45;&gt;45 -->
<g id="edge46" class="edge"><title>6&#45;&gt;45</title>
<path fill="none" stroke="black" d="M2.0327,40.3746C-2.00811,41.3312 -5.81451,42.2322 -8.97891,42.9813"/>
<polygon fill="black" stroke="black" points="-8.62477,44.6958 -13.8935,44.1447 -9.43107,41.2899 -8.62477,44.6958"/>
<text text-anchor="middle" x="-24.4731" y="39.478" font-family="monospace" font-size="6.00">2388293:C&gt;T</text>
</g>
<!-- anon_6_25_0 -->
<g id="node56" class="node"><title>anon_6_25_0</title>
<ellipse fill="white" stroke="black" cx="37.9716" cy="119.138" rx="2.5" ry="2.5"/>
</g>
<!-- 6&#45;&gt;anon_6_25_0 -->
<g id="edge37" class="edge"><title>6&#45;&gt;anon_6_25_0</title>
<path fill="none" stroke="black" d="M36.725,67.1556C37.1145,83.3997 37.5443,101.318 37.7837,111.303"/>
<polygon fill="black" stroke="black" points="39.5357,111.369 37.9062,116.409 36.0367,111.453 39.5357,111.369"/>
<text text-anchor="middle" x="58.2543" y="94.0293" font-family="monospace" font-size="6.00">2362002:A&gt;T</text>
</g>
<!-- anon_6_43_0 -->
<g id="node58" class="node"><title>anon_6_43_0</title>
<ellipse fill="white" stroke="black" cx="76.6545" cy="-32.4567" rx="2.5" ry="2.5"/>
</g>
<!-- 6&#45;&gt;anon_6_43_0 -->
<g id="edge43" class="edge"><title>6&#45;&gt;anon_6_43_0</title>
<path fill="none" stroke="black" d="M54.3641,2.98581C61.0789,-7.69082 68.0722,-18.8106 72.3948,-25.6837"/>
<polygon fill="black" stroke="black" points="70.9876,-26.7332 75.1309,-30.0341 73.9503,-24.8699 70.9876,-26.7332"/>
<text text-anchor="middle" x="84.3795" y="-13.5489" font-family="monospace" font-size="6.00">2359422:C&gt;G</text>
</g>
<!-- 51 -->
<g id="node52" class="node"><title>51</title>
<ellipse fill="black" stroke="black" cx="183.387" cy="9.15636" rx="6" ry="6"/>
<text text-anchor="middle" x="183.387" y="10.4564" font-family="monospace" font-size="6.00">3</text>
</g>
<!-- 8&#45;&gt;51 -->
<g id="edge48" class="edge"><title>8&#45;&gt;51</title>
<path fill="none" stroke="black" d="M124.732,23.6096C135.544,20.9453 158.537,15.2797 172.305,11.8872"/>
<polygon fill="black" stroke="black" points="171.976,10.1658 177.25,10.6687 172.814,13.5642 171.976,10.1658"/>
<text text-anchor="middle" x="127.518" y="15.5484" font-family="monospace" font-size="6.00">2415120:T&gt;A</text>
</g>
<!-- 9 -->
<g id="node10" class="node"><title>9</title>
<ellipse fill="deepskyblue" stroke="black" cx="-127.562" cy="211.077" rx="3.5" ry="3.5"/>
</g>
<!-- 11 -->
<g id="node12" class="node"><title>11</title>
<ellipse fill="deepskyblue" stroke="black" cx="-160.589" cy="187.736" rx="3.5" ry="3.5"/>
</g>
<!-- 26 -->
<g id="node27" class="node"><title>26</title>
<ellipse fill="#ff3030" stroke="black" cx="179.229" cy="-35.1332" rx="3.5" ry="3.5"/>
</g>
<!-- 12&#45;&gt;26 -->
<g id="edge51" class="edge"><title>12&#45;&gt;26</title>
<path fill="none" stroke="black" d="M128.226,-11.5427C139.331,-16.6791 159.794,-26.144 171.133,-31.3885"/>
<polygon fill="black" stroke="black" points="170.612,-33.0758 175.885,-33.5866 172.081,-29.8992 170.612,-33.0758"/>
<text text-anchor="middle" x="128.679" y="-23.6656" font-family="monospace" font-size="6.00">2421454:A&gt;G</text>
</g>
<!-- 14 -->
<g id="node15" class="node"><title>14</title>
<path fill="deepskyblue" stroke="black" stroke-width="0.5" d="M-130.847,136.423C-130.847,136.423 -112.847,136.423 -112.847,136.423 -112.847,135.574 -112.907,134.727 -113.027,133.887 -113.146,133.047 -113.325,132.216 -113.562,131.401 -113.799,130.586 -114.093,129.789 -114.442,129.016 -114.791,128.242 -115.194,127.494 -115.649,126.778 -116.104,126.062 -116.609,125.378 -117.16,124.733 -117.711,124.088 -118.307,123.482 -118.943,122.921 -119.58,122.36 -120.255,121.844 -120.965,121.378 -121.674,120.912 -122.415,120.497 -123.183,120.136 -123.951,119.775 -124.743,119.468 -125.554,119.219 -126.365,118.969 -127.193,118.777 -128.031,118.644 -128.869,118.512 -129.716,118.438 -130.564,118.425 -131.413,118.412 -132.261,118.458 -133.103,118.565 -133.945,118.671 -134.778,118.837 -135.597,119.061 -136.415,119.285 -137.217,119.566 -137.996,119.903 -138.775,120.24 -139.529,120.632 -140.252,121.075 -140.976,121.519 -141.667,122.013 -142.321,122.554 -142.975,123.095 -143.589,123.681 -144.16,124.309 -144.732,124.936 -145.258,125.604 -145.735,126.305 -146.211,127.007 -146.638,127.742 -147.012,128.504 -147.385,129.266 -147.704,130.054 -147.966,130.861 -148.228,131.668 -148.433,132.492 -148.579,133.328 -148.725,134.164 -148.812,135.009 -148.838,135.857 -148.865,136.706 -148.831,137.555 -148.738,138.398 -148.645,139.242 -148.493,140.077 -148.282,140.899 -148.071,141.721 -147.802,142.527 -147.477,143.311 -147.152,144.095 -146.772,144.855 -146.34,145.586 -145.908,146.316 -145.425,147.015 -144.895,147.677 -144.364,148.339 -143.788,148.963 -143.169,149.544 -142.55,150.125 -141.891,150.662 -141.197,151.15 -140.503,151.638 -139.775,152.076 -139.019,152.461 -138.263,152.846 -137.48,153.178 -136.678,153.452 -135.875,153.727 -135.053,153.945 -134.22,154.104 -134.22,154.104 -130.847,136.423 -130.847,136.423"/>
<path fill="#98f5ff" stroke="black" stroke-width="0.5" d="M-130.847,136.423C-130.847,136.423 -134.22,154.104 -134.22,154.104 -133.572,154.228 -132.917,154.316 -132.259,154.367 -131.601,154.419 -130.941,154.435 -130.282,154.414 -129.622,154.393 -128.964,154.336 -128.311,154.243 -127.658,154.15 -127.01,154.021 -126.371,153.857 -125.731,153.693 -125.102,153.494 -124.485,153.261 -123.867,153.028 -123.263,152.761 -122.675,152.461 -122.087,152.161 -121.516,151.83 -120.965,151.467 -120.413,151.105 -119.882,150.713 -119.373,150.292 -118.865,149.871 -118.38,149.423 -117.921,148.949 -117.462,148.475 -117.029,147.977 -116.624,147.455 -116.22,146.934 -115.844,146.39 -115.5,145.828 -115.155,145.265 -114.841,144.684 -114.56,144.087 -114.279,143.49 -114.031,142.878 -113.818,142.253 -113.604,141.629 -113.425,140.993 -113.281,140.349 -113.137,139.705 -113.028,139.054 -112.956,138.398 -112.883,137.742 -112.847,137.083 -112.847,136.423 -112.847,136.423 -130.847,136.423 -130.847,136.423"/>
<ellipse fill="none" stroke="black" cx="-130.847" cy="136.423" rx="18" ry="18"/>
<text text-anchor="middle" x="-130.847" y="137.723" font-family="monospace" font-size="6.00">25</text>
</g>
<!-- 13&#45;&gt;14 -->
<g id="edge52" class="edge"><title>13&#45;&gt;14</title>
<path fill="none" stroke="black" d="M-74.8313,92.5752C-82.8274,98.8344 -99.3418,111.761 -112.378,121.966"/>
<polygon fill="black" stroke="black" points="-111.632,123.605 -116.648,125.308 -113.79,120.848 -111.632,123.605"/>
<text text-anchor="middle" x="-105.105" y="105.07" font-family="monospace" font-size="6.00">A1746S</text>
</g>
<!-- 14&#45;&gt;9 -->
<g id="edge49" class="edge"><title>14&#45;&gt;9</title>
<path fill="none" stroke="black" d="M-130.052,154.494C-129.386,169.634 -128.463,190.594 -127.949,202.288"/>
<polygon fill="black" stroke="black" points="-126.192,202.407 -127.72,207.479 -129.688,202.561 -126.192,202.407"/>
<text text-anchor="middle" x="-150" y="176.191" font-family="monospace" font-size="6.00">2360225:G&gt;A</text>
</g>
<!-- 14&#45;&gt;11 -->
<g id="edge50" class="edge"><title>14&#45;&gt;11</title>
<path fill="none" stroke="black" d="M-139.932,152.097C-145.373,161.484 -152.038,172.984 -156.299,180.335"/>
<polygon fill="black" stroke="black" points="-154.799,181.236 -158.82,184.684 -157.827,179.481 -154.799,181.236"/>
<text text-anchor="middle" x="-169.116" y="164.016" font-family="monospace" font-size="6.00">2382425:A&gt;T</text>
</g>
<!-- anon_14_21_0 -->
<g id="node59" class="node"><title>anon_14_21_0</title>
<ellipse fill="white" stroke="black" cx="-200.324" cy="140.118" rx="2.5" ry="2.5"/>
</g>
<!-- 14&#45;&gt;anon_14_21_0 -->
<g id="edge53" class="edge"><title>14&#45;&gt;anon_14_21_0</title>
<path fill="none" stroke="black" d="M-149.101,137.394C-163.351,138.152 -182.419,139.166 -192.806,139.718"/>
<polygon fill="black" stroke="black" points="-192.73,141.467 -197.816,139.985 -192.916,137.972 -192.73,141.467"/>
<text text-anchor="middle" x="-170.953" y="143.356" font-family="monospace" font-size="6.00">2360354:C&gt;T</text>
</g>
<!-- 30 -->
<g id="node31" class="node"><title>30</title>
<ellipse fill="deepskyblue" stroke="black" cx="169.09" cy="-81.2027" rx="3.5" ry="3.5"/>
</g>
<!-- 18&#45;&gt;30 -->
<g id="edge56" class="edge"><title>18&#45;&gt;30</title>
<path fill="none" stroke="black" d="M120.27,-48.7562C131.867,-56.4638 151.071,-69.2268 161.605,-76.2277"/>
<polygon fill="black" stroke="black" points="160.875,-77.8441 166.008,-79.1543 162.812,-74.9292 160.875,-77.8441"/>
<text text-anchor="middle" x="119.938" y="-57.692" font-family="monospace" font-size="6.00">2376264:A&gt;G</text>
</g>
<!-- 20 -->
<g id="node21" class="node"><title>20</title>
<ellipse fill="deepskyblue" stroke="black" cx="3.42548" cy="236.257" rx="3.5" ry="3.5"/>
</g>
<!-- 20&#45;&gt;0 -->
<g id="edge2" class="edge"><title>20&#45;&gt;0</title>
<path fill="none" stroke="black" d="M2.57234,232.711C0.550511,224.307 -4.69824,202.491 -9.16813,183.912"/>
<polygon fill="black" stroke="black" points="-10.9367,184.042 -10.4049,178.771 -7.53379,183.223 -10.9367,184.042"/>
<text text-anchor="middle" x="-24.2979" y="206.111" font-family="monospace" font-size="6.00">2374779:A&gt;T</text>
</g>
<!-- 21 -->
<g id="node22" class="node"><title>21</title>
<ellipse fill="deepskyblue" stroke="black" cx="-276.9" cy="188.944" rx="3.5" ry="3.5"/>
</g>
<!-- 25 -->
<g id="node26" class="node"><title>25</title>
<ellipse fill="#ff3030" stroke="black" cx="62.2712" cy="219.311" rx="5" ry="5"/>
<text text-anchor="middle" x="62.2712" y="220.611" font-family="monospace" font-size="6.00">2</text>
</g>
<!-- 32 -->
<g id="node33" class="node"><title>32</title>
<ellipse fill="#ff3030" stroke="black" cx="-198.33" cy="-139.736" rx="3.5" ry="3.5"/>
</g>
<!-- 34 -->
<g id="node35" class="node"><title>34</title>
<ellipse fill="#ff3030" stroke="black" cx="216.007" cy="91.6523" rx="3.5" ry="3.5"/>
</g>
<!-- 34&#45;&gt;5 -->
<g id="edge28" class="edge"><title>34&#45;&gt;5</title>
<path fill="none" stroke="black" d="M212.129,91.4032C203.768,90.8661 183.484,89.5631 167.187,88.5162"/>
<polygon fill="black" stroke="black" points="166.713,90.2394 161.836,88.1724 166.938,86.7466 166.713,90.2394"/>
<text text-anchor="middle" x="189.658" y="94.7597" font-family="monospace" font-size="6.00">2362259:C&gt;G</text>
</g>
<!-- 36 -->
<g id="node37" class="node"><title>36</title>
<ellipse fill="deepskyblue" stroke="black" cx="51.1415" cy="-235.755" rx="3.5" ry="3.5"/>
</g>
<!-- 37 -->
<g id="node38" class="node"><title>37</title>
<ellipse fill="#1874cd" stroke="black" cx="-27.3959" cy="-262.273" rx="3.5" ry="3.5"/>
</g>
<!-- 39 -->
<g id="node40" class="node"><title>39</title>
<ellipse fill="#1874cd" stroke="black" cx="-130.099" cy="-230.29" rx="3.5" ry="3.5"/>
</g>
<!-- 40&#45;&gt;37 -->
<g id="edge57" class="edge"><title>40&#45;&gt;37</title>
<path fill="none" stroke="black" d="M-31.6151,-216.93C-30.9143,-224.462 -29.2485,-242.364 -28.2322,-253.286"/>
<polygon fill="black" stroke="black" points="-29.9505,-253.709 -27.7446,-258.526 -26.4655,-253.385 -29.9505,-253.709"/>
<text text-anchor="middle" x="-50.9237" y="-237.308" font-family="monospace" font-size="6.00">2360151:T&gt;A</text>
</g>
<!-- 42 -->
<g id="node43" class="node"><title>42</title>
<ellipse fill="brown" stroke="black" cx="-50.4012" cy="37.3519" rx="6" ry="6"/>
<text text-anchor="middle" x="-50.4012" y="38.6519" font-family="monospace" font-size="6.00">3</text>
</g>
<!-- 42&#45;&gt;6 -->
<g id="edge42" class="edge"><title>42&#45;&gt;6</title>
<path fill="none" stroke="black" d="M-44.1954,36.9928C-35.6544,36.4987 -19.564,35.5678 -4.03344,34.6694"/>
<polygon fill="black" stroke="black" points="-3.8925,32.9084 1.20026,34.3666 -3.69029,36.4025 -3.8925,32.9084"/>
<text text-anchor="middle" x="-45.1144" y="33.6311" font-family="monospace" font-size="6.00">2358667:T&gt;A</text>
</g>
<!-- 43 -->
<g id="node44" class="node"><title>43</title>
<ellipse fill="brown" stroke="black" cx="117.784" cy="-70.0533" rx="3.5" ry="3.5"/>
</g>
<!-- 43&#45;&gt;anon_6_43_0 -->
<g id="edge44" class="edge"><title>43&#45;&gt;anon_6_43_0</title>
<path fill="none" stroke="black" d="M115.085,-67.5865C108.571,-61.6319 91.8545,-46.3511 82.7634,-38.0409"/>
<polygon fill="black" stroke="black" points="83.4818,-36.3266 78.6106,-34.2447 81.1204,-38.9099 83.4818,-36.3266"/>
<text text-anchor="middle" x="77.9243" y="-55.0137" font-family="monospace" font-size="6.00">2417127:T&gt;A</text>
</g>
<!-- 46 -->
<g id="node47" class="node"><title>46</title>
<ellipse fill="brown" stroke="black" cx="137.781" cy="144.767" rx="3.5" ry="3.5"/>
</g>
<!-- 44&#45;&gt;46 -->
<g id="edge58" class="edge"><title>44&#45;&gt;46</title>
<path fill="none" stroke="black" d="M96.6946,118.379C105.709,124.169 121.176,134.102 130.343,139.99"/>
<polygon fill="black" stroke="black" points="131.445,138.618 134.706,142.792 129.554,141.563 131.445,138.618"/>
<text text-anchor="middle" x="92.5187" y="126.984" font-family="monospace" font-size="6.00">2403047:T&gt;A</text>
</g>
<!-- 47 -->
<g id="node48" class="node"><title>47</title>
<ellipse fill="brown" stroke="black" cx="99.8982" cy="170.325" rx="3.5" ry="3.5"/>
</g>
<!-- 44&#45;&gt;47 -->
<g id="edge59" class="edge"><title>44&#45;&gt;47</title>
<path fill="none" stroke="black" d="M91.1049,122.15C93.0341,132.72 96.3443,150.855 98.3062,161.603"/>
<polygon fill="black" stroke="black" points="100.064,161.487 99.2402,166.72 96.6207,162.116 100.064,161.487"/>
<text text-anchor="middle" x="73.7055" y="139.677" font-family="monospace" font-size="6.00">2426642:T&gt;C</text>
</g>
<!-- 48 -->
<g id="node49" class="node"><title>48</title>
<ellipse fill="brown" stroke="black" cx="44.0558" cy="-10.049" rx="3.5" ry="3.5"/>
</g>
<!-- 48&#45;&gt;6 -->
<g id="edge47" class="edge"><title>48&#45;&gt;6</title>
<path fill="none" stroke="black" d="M43.3596,-6.43324C43.3442,-6.35312 43.3285,-6.27188 43.3127,-6.18955"/>
<polygon fill="black" stroke="black" points="45.1356,-6.40081 42.4717,-1.82188 41.6987,-7.0626 45.1356,-6.40081"/>
<text text-anchor="middle" x="22.3361" y="-8.5114" font-family="monospace" font-size="6.00">2410330:C&gt;T</text>
</g>
<!-- anon_3_32_0&#45;&gt;32 -->
<g id="edge16" class="edge"><title>anon_3_32_0&#45;&gt;32</title>
<path fill="none" stroke="black" d="M-154.037,-131.081C-160.7,-132.383 -179.029,-135.965 -189.908,-138.09"/>
<polygon fill="black" stroke="black" points="-190.245,-136.373 -194.816,-139.05 -189.573,-139.808 -190.245,-136.373"/>
<text text-anchor="middle" x="-192.972" y="-129.786" font-family="monospace" font-size="6.00">2407846:C&gt;G</text>
</g>
<!-- anon_3_36_0&#45;&gt;36 -->
<g id="edge19" class="edge"><title>anon_3_36_0&#45;&gt;36</title>
<path fill="none" stroke="black" d="M24.8124,-197.641C28.7344,-203.319 39.4576,-218.841 45.9456,-228.233"/>
<polygon fill="black" stroke="black" points="44.6121,-229.382 48.8939,-232.501 47.4918,-227.393 44.6121,-229.382"/>
<text text-anchor="middle" x="25.879" y="-215.137" font-family="monospace" font-size="6.00">P940H</text>
</g>
<!-- anon_3_39_0&#45;&gt;39 -->
<g id="edge22" class="edge"><title>anon_3_39_0&#45;&gt;39</title>
<path fill="none" stroke="black" d="M-102.964,-194.971C-106.969,-200.184 -117.856,-214.354 -124.559,-223.079"/>
<polygon fill="black" stroke="black" points="-126.125,-222.244 -127.783,-227.275 -123.349,-224.376 -126.125,-222.244"/>
<text text-anchor="middle" x="-134.762" y="-211.225" font-family="monospace" font-size="6.00">2394110:C&gt;T</text>
</g>
<!-- anon_6_25_1 -->
<g id="node57" class="node"><title>anon_6_25_1</title>
<ellipse fill="white" stroke="black" cx="45.9459" cy="169.191" rx="2.5" ry="2.5"/>
</g>
<!-- anon_6_25_0&#45;&gt;anon_6_25_1 -->
<g id="edge38" class="edge"><title>anon_6_25_0&#45;&gt;anon_6_25_1</title>
<path fill="none" stroke="black" d="M38.4004,121.829C39.5684,129.16 42.8415,149.705 44.6698,161.181"/>
<polygon fill="black" stroke="black" points="46.4169,161.024 45.4754,166.237 42.9605,161.575 46.4169,161.024"/>
<text text-anchor="middle" x="62.5351" y="146.305" font-family="monospace" font-size="6.00">2362003:C&gt;T</text>
</g>
<!-- anon_6_25_1&#45;&gt;25 -->
<g id="edge39" class="edge"><title>anon_6_25_1&#45;&gt;25</title>
<path fill="none" stroke="black" d="M46.7333,171.608C48.9206,178.323 55.1636,197.49 59.038,209.385"/>
<polygon fill="black" stroke="black" points="60.7437,208.971 60.6283,214.267 57.4158,210.055 60.7437,208.971"/>
<text text-anchor="middle" x="44.8857" y="188.297" font-family="monospace" font-size="6.00">G54C</text>
</g>
<!-- anon_14_21_1 -->
<g id="node60" class="node"><title>anon_14_21_1</title>
<ellipse fill="white" stroke="black" cx="-240.653" cy="162.016" rx="2.5" ry="2.5"/>
</g>
<!-- anon_14_21_0&#45;&gt;anon_14_21_1 -->
<g id="edge54" class="edge"><title>anon_14_21_0&#45;&gt;anon_14_21_1</title>
<path fill="none" stroke="black" d="M-202.97,141.555C-209.181,144.928 -224.852,153.436 -233.908,158.354"/>
<polygon fill="black" stroke="black" points="-233.126,159.92 -238.355,160.768 -234.796,156.844 -233.126,159.92"/>
<text text-anchor="middle" x="-227.939" y="147.754" font-family="monospace" font-size="6.00">Q545L</text>
</g>
<!-- anon_14_21_1&#45;&gt;21 -->
<g id="edge55" class="edge"><title>anon_14_21_1&#45;&gt;21</title>
<path fill="none" stroke="black" d="M-243.031,163.783C-248.353,167.736 -261.4,177.429 -269.659,183.564"/>
<polygon fill="black" stroke="black" points="-269.014,185.265 -274.071,186.842 -271.101,182.455 -269.014,185.265"/>
<text text-anchor="middle" x="-277.345" y="171.474" font-family="monospace" font-size="6.00">2415877:C&gt;T</text>
</g>
</g>
</svg>
