<?xml version="1.0" encoding="UTF-8" standalone="no"?>
<!DOCTYPE svg PUBLIC "-//W3C//DTD SVG 1.1//EN"
 "http://www.w3.org/Graphics/SVG/1.1/DTD/svg11.dtd">
<!-- Generated by graphviz version 2.38.0 (20140413.2041)
 -->
<!-- Title: %3 Pages: 1 -->
<svg width="240pt" height="199pt"
 viewBox="0.00 0.00 239.84 199.16" xmlns="http://www.w3.org/2000/svg" xmlns:xlink="http://www.w3.org/1999/xlink">
<g id="graph0" class="graph" transform="scale(1 1) rotate(0) translate(136.802 102.506)">
<title>%3</title>
<polygon fill="white" stroke="none" points="-136.802,96.6506 -136.802,-102.506 103.036,-102.506 103.036,96.6506 -136.802,96.6506"/>
<!-- 0 -->
<g id="node1" class="node"><title>0</title>
<ellipse fill="palegreen" stroke="black" cx="7.6771" cy="-0.931607" rx="33" ry="33"/>
<text text-anchor="middle" x="7.6771" y="0.368393" font-family="monospace" font-size="6.00">85</text>
</g>
<!-- 1 -->
<g id="node2" class="node"><title>1</title>
<ellipse fill="palegreen" stroke="black" cx="84.5929" cy="-38.3494" rx="3.5" ry="3.5"/>
</g>
<!-- 0&#45;&gt;1 -->
<g id="edge1" class="edge"><title>0&#45;&gt;1</title>
<path fill="none" stroke="black" d="M37.635,-15.5054C54.5074,-23.7135 73.6775,-33.0393 81.2571,-36.7266"/>
</g>
<!-- 2 -->
<g id="node3" class="node"><title>2</title>
<ellipse fill="palegreen" stroke="black" cx="8.07451" cy="89.1506" rx="3.5" ry="3.5"/>
</g>
<!-- 0&#45;&gt;2 -->
<g id="edge2" class="edge"><title>0&#45;&gt;2</title>
<path fill="none" stroke="black" d="M7.82282,32.1002C7.91321,52.5874 8.01936,76.6507 8.05876,85.5811"/>
</g>
<!-- 3 -->
<g id="node4" class="node"><title>3</title>
<ellipse fill="palegreen" stroke="black" cx="-24.8859" cy="-82.3812" rx="3.5" ry="3.5"/>
</g>
<!-- 0&#45;&gt;3 -->
<g id="edge3" class="edge"><title>0&#45;&gt;3</title>
<path fill="none" stroke="black" d="M-4.63357,-31.7242C-11.8377,-49.7438 -20.1464,-70.5264 -23.4367,-78.7565"/>
</g>
<!-- 4 -->
<g id="node5" class="node"><title>4</title>
<ellipse fill="palegreen" stroke="black" cx="18.3062" cy="-93.5058" rx="5" ry="5"/>
<text text-anchor="middle" x="18.3062" y="-92.2058" font-family="monospace" font-size="6.00">2</text>
</g>
<!-- 0&#45;&gt;4 -->
<g id="edge4" class="edge"><title>0&#45;&gt;4</title>
<path fill="none" stroke="black" d="M11.4544,-33.8305C13.444,-51.1591 15.7482,-71.2269 17.1133,-83.1166"/>
<polygon fill="black" stroke="black" points="15.3935,-83.4809 17.7025,-88.2487 18.8707,-83.0816 15.3935,-83.4809"/>
<text text-anchor="middle" x="4.78387" y="-60.6735" font-family="monospace" font-size="6.00">I492N</text>
</g>
<!-- 6 -->
<g id="node7" class="node"><title>6</title>
<ellipse fill="palegreen" stroke="black" cx="-82.007" cy="44.1273" rx="9" ry="9"/>
<text text-anchor="middle" x="-82.007" y="45.4273" font-family="monospace" font-size="6.00">6</text>
</g>
<!-- 0&#45;&gt;6 -->
<g id="edge5" class="edge"><title>0&#45;&gt;6</title>
<path fill="none" stroke="black" d="M-22.1864,14.0724C-40.3265,23.1863 -62.1614,34.1565 -73.7829,39.9954"/>
</g>
<!-- 7 -->
<g id="node8" class="node"><title>7</title>
<ellipse fill="palegreen" stroke="black" cx="81.1937" cy="45.6572" rx="3.5" ry="3.5"/>
</g>
<!-- 0&#45;&gt;7 -->
<g id="edge6" class="edge"><title>0&#45;&gt;7</title>
<path fill="none" stroke="black" d="M35.8903,16.9476C52.0872,27.2119 70.6275,38.9611 77.9638,43.6103"/>
</g>
<!-- 8 -->
<g id="node9" class="node"><title>8</title>
<ellipse fill="palegreen" stroke="black" cx="-29.7645" cy="70.1918" rx="3.5" ry="3.5"/>
</g>
<!-- 0&#45;&gt;8 -->
<g id="edge7" class="edge"><title>0&#45;&gt;8</title>
<path fill="none" stroke="black" d="M-7.76802,28.4077C-15.6645,43.4076 -24.3634,59.932 -28.0073,66.8538"/>
</g>
<!-- 9 -->
<g id="node10" class="node"><title>9</title>
<ellipse fill="palegreen" stroke="black" cx="-83.7841" cy="-6.11261" rx="5" ry="5"/>
<text text-anchor="middle" x="-83.7841" y="-4.81261" font-family="monospace" font-size="6.00">2</text>
</g>
<!-- 0&#45;&gt;9 -->
<g id="edge8" class="edge"><title>0&#45;&gt;9</title>
<path fill="none" stroke="black" d="M-25.3425,-2.80207C-45.1957,-3.92669 -68.5207,-5.24798 -78.6543,-5.82202"/>
</g>
<!-- 10 -->
<g id="node11" class="node"><title>10</title>
<ellipse fill="palegreen" stroke="black" cx="49.8653" cy="75.5594" rx="3.5" ry="3.5"/>
</g>
<!-- 0&#45;&gt;10 -->
<g id="edge9" class="edge"><title>0&#45;&gt;10</title>
<path fill="none" stroke="black" d="M23.6266,27.9864C32.9602,44.9089 43.7248,64.4263 47.9878,72.1553"/>
</g>
<!-- 11 -->
<g id="node12" class="node"><title>11</title>
<ellipse fill="palegreen" stroke="black" cx="-54.4381" cy="-53.8047" rx="3.5" ry="3.5"/>
</g>
<!-- 0&#45;&gt;11 -->
<g id="edge10" class="edge"><title>0&#45;&gt;11</title>
<path fill="none" stroke="black" d="M-17.5875,-22.4371C-28.491,-31.7182 -40.382,-41.84 -47.6251,-48.0054"/>
<polygon fill="black" stroke="black" points="-48.8109,-46.7165 -51.484,-51.2901 -46.5422,-49.3817 -48.8109,-46.7165"/>
<text text-anchor="middle" x="-42.1063" y="-37.4213" font-family="monospace" font-size="6.00">M925L</text>
</g>
<!-- 12 -->
<g id="node13" class="node"><title>12</title>
<ellipse fill="palegreen" stroke="black" cx="95.5358" cy="3.87167" rx="3.5" ry="3.5"/>
</g>
<!-- 0&#45;&gt;12 -->
<g id="edge11" class="edge"><title>0&#45;&gt;12</title>
<path fill="none" stroke="black" d="M40.6424,0.870622C60.314,1.94607 83.1191,3.19284 91.8647,3.67097"/>
</g>
<!-- 13 -->
<g id="node14" class="node"><title>13</title>
<ellipse fill="palegreen" stroke="black" cx="57.436" cy="-71.4326" rx="3.5" ry="3.5"/>
</g>
<!-- 0&#45;&gt;13 -->
<g id="edge12" class="edge"><title>0&#45;&gt;13</title>
<path fill="none" stroke="black" d="M26.7729,-27.9875C37.7356,-43.52 50.2843,-61.2998 55.2498,-68.3351"/>
</g>
<!-- 5 -->
<g id="node6" class="node"><title>5</title>
<ellipse fill="palegreen" stroke="black" cx="-127.802" cy="17.9599" rx="5" ry="5"/>
<text text-anchor="middle" x="-127.802" y="19.2599" font-family="monospace" font-size="6.00">2</text>
</g>
<!-- 5&#45;&gt;6 -->
<g id="edge13" class="edge"><title>5&#45;&gt;6</title>
<path fill="none" stroke="black" d="M-123.243,20.5646C-115.461,25.0116 -99.5213,34.1195 -89.8989,39.6178"/>
</g>
<!-- 5&#45;&gt;9 -->
<g id="edge14" class="edge"><title>5&#45;&gt;9</title>
<path fill="none" stroke="black" stroke-dasharray="5,2" d="M-123.091,15.3837C-114.575,10.7262 -96.7227,0.963268 -88.329,-3.62709"/>
</g>
</g>
</svg>
