<?xml version="1.0" encoding="UTF-8" standalone="no"?>
<!DOCTYPE svg PUBLIC "-//W3C//DTD SVG 1.1//EN"
 "http://www.w3.org/Graphics/SVG/1.1/DTD/svg11.dtd">
<!-- Generated by graphviz version 2.38.0 (20140413.2041)
 -->
<!-- Title: %3 Pages: 1 -->
<svg width="281pt" height="219pt"
 viewBox="0.00 0.00 280.68 219.20" xmlns="http://www.w3.org/2000/svg" xmlns:xlink="http://www.w3.org/1999/xlink">
<g id="graph0" class="graph" transform="scale(1 1) rotate(0) translate(136.979 120.294)">
<title>%3</title>
<polygon fill="white" stroke="none" points="-136.979,98.906 -136.979,-120.294 143.703,-120.294 143.703,98.906 -136.979,98.906"/>
<!-- 0 -->
<g id="node1" class="node"><title>0</title>
<ellipse fill="#1874cd" stroke="black" cx="-51.2419" cy="-46.1928" rx="21.5" ry="21.5"/>
<text text-anchor="middle" x="-51.2419" y="-44.8928" font-family="monospace" font-size="6.00">35</text>
</g>
<!-- 4 -->
<g id="node5" class="node"><title>4</title>
<ellipse fill="#1874cd" stroke="black" cx="-42.8923" cy="-112.794" rx="3.5" ry="3.5"/>
</g>
<!-- 0&#45;&gt;4 -->
<g id="edge1" class="edge"><title>0&#45;&gt;4</title>
<path fill="none" stroke="black" d="M-48.554,-67.6325C-47.0211,-79.8605 -45.1804,-94.5428 -44.0232,-103.773"/>
<polygon fill="black" stroke="black" points="-45.73,-104.228 -43.3715,-108.971 -42.2572,-103.792 -45.73,-104.228"/>
<text text-anchor="middle" x="-67.2886" y="-87.9029" font-family="monospace" font-size="6.00">2361692:T&gt;C</text>
</g>
<!-- 5 -->
<g id="node6" class="node"><title>5</title>
<ellipse fill="#1874cd" stroke="black" cx="-118.227" cy="-41.119" rx="3.5" ry="3.5"/>
</g>
<!-- 0&#45;&gt;5 -->
<g id="edge2" class="edge"><title>0&#45;&gt;5</title>
<path fill="none" stroke="black" d="M-72.805,-44.5595C-85.1033,-43.628 -99.8702,-42.5094 -109.154,-41.8063"/>
<polygon fill="black" stroke="black" points="-109.264,-40.043 -114.382,-41.4103 -109.528,-43.533 -109.264,-40.043"/>
<text text-anchor="middle" x="-111.979" y="-45.3829" font-family="monospace" font-size="6.00">2381794:G&gt;T</text>
</g>
<!-- 1 -->
<g id="node2" class="node"><title>1</title>
<ellipse fill="#1874cd" stroke="black" cx="72.7511" cy="35.8689" rx="9" ry="9"/>
<text text-anchor="middle" x="72.7511" y="37.1689" font-family="monospace" font-size="6.00">6</text>
</g>
<!-- 3 -->
<g id="node4" class="node"><title>3</title>
<ellipse fill="#1874cd" stroke="black" cx="122.466" cy="40.1216" rx="3.5" ry="3.5"/>
</g>
<!-- 1&#45;&gt;3 -->
<g id="edge5" class="edge"><title>1&#45;&gt;3</title>
<path fill="none" stroke="black" d="M81.8697,36.6489C90.8837,37.42 104.589,38.5923 113.537,39.3577"/>
<polygon fill="black" stroke="black" points="113.8,37.6238 118.633,39.7936 113.502,41.111 113.8,37.6238"/>
<text text-anchor="middle" x="118.703" y="35.8033" font-family="monospace" font-size="6.00">2383854:C&gt;A</text>
</g>
<!-- 2 -->
<g id="node3" class="node"><title>2</title>
<ellipse fill="#1874cd" stroke="black" cx="3.13199" cy="85.906" rx="9" ry="9"/>
<text text-anchor="middle" x="3.13199" y="87.206" font-family="monospace" font-size="6.00">6</text>
</g>
<!-- 6 -->
<g id="node7" class="node"><title>6</title>
<ellipse fill="white" stroke="black" cx="21.0091" cy="36.394" rx="2.5" ry="2.5"/>
</g>
<!-- 6&#45;&gt;1 -->
<g id="edge6" class="edge"><title>6&#45;&gt;1</title>
<path fill="none" stroke="black" d="M23.791,36.3658C30.1985,36.3007 46.3684,36.1366 58.3826,36.0147"/>
<polygon fill="black" stroke="black" points="58.5428,34.2631 63.5603,35.9622 58.5783,37.7629 58.5428,34.2631"/>
<text text-anchor="middle" x="46.8368" y="40.9902" font-family="monospace" font-size="6.00">S1683I</text>
</g>
<!-- 6&#45;&gt;2 -->
<g id="edge7" class="edge"><title>6&#45;&gt;2</title>
<path fill="none" stroke="black" d="M20.1469,38.7821C17.9743,44.7993 12.1472,60.9376 7.91667,72.6545"/>
<polygon fill="black" stroke="black" points="9.56071,73.2544 6.21662,77.3629 6.26872,72.0657 9.56071,73.2544"/>
<text text-anchor="middle" x="4.53176" y="53.5183" font-family="monospace" font-size="6.00">G317S</text>
</g>
<!-- anon_0_6_0 -->
<g id="node8" class="node"><title>anon_0_6_0</title>
<ellipse fill="white" stroke="black" cx="-6.99797" cy="1.81543" rx="2.5" ry="2.5"/>
</g>
<!-- 6&#45;&gt;anon_0_6_0 -->
<g id="edge4" class="edge"><title>6&#45;&gt;anon_0_6_0</title>
<path fill="none" stroke="black" d="M19.1715,34.1252C14.8984,28.8495 4.17849,15.6143 -2.13626,7.81788"/>
<polygon fill="black" stroke="black" points="-3.61465,8.77303 -5.40179,3.78614 -0.894848,6.57011 -3.61465,8.77303"/>
<text text-anchor="middle" x="-2.98239" y="18.7715" font-family="monospace" font-size="6.00">I1940T</text>
</g>
<!-- anon_0_6_0&#45;&gt;0 -->
<g id="edge3" class="edge"><title>anon_0_6_0&#45;&gt;0</title>
<path fill="none" stroke="black" d="M-8.89908,-0.247422C-13.0827,-4.787 -23.4667,-16.0545 -32.9038,-26.2945"/>
<polygon fill="black" stroke="black" points="-34.223,-25.1436 -36.3246,-30.0063 -31.6492,-27.5155 -34.223,-25.1436"/>
<text text-anchor="middle" x="-30.4015" y="-15.471" font-family="monospace" font-size="6.00">D466H</text>
</g>
</g>
</svg>
