<?xml version="1.0" encoding="UTF-8" standalone="no"?>
<!DOCTYPE svg PUBLIC "-//W3C//DTD SVG 1.1//EN"
 "http://www.w3.org/Graphics/SVG/1.1/DTD/svg11.dtd">
<!-- Generated by graphviz version 2.38.0 (20140413.2041)
 -->
<!-- Title: %3 Pages: 1 -->
<svg width="176pt" height="120pt"
 viewBox="0.00 0.00 176.20 120.30" xmlns="http://www.w3.org/2000/svg" xmlns:xlink="http://www.w3.org/1999/xlink">
<g id="graph0" class="graph" transform="scale(1 1) rotate(0) translate(96.4959 61.1854)">
<title>%3</title>
<polygon fill="white" stroke="none" points="-96.4959,59.114 -96.4959,-61.1854 79.7039,-61.1854 79.7039,59.114 -96.4959,59.114"/>
<!-- 0 -->
<g id="node1" class="node"><title>0</title>
<ellipse fill="#1874cd" stroke="black" cx="-85.4959" cy="11.9854" rx="7" ry="7"/>
<text text-anchor="middle" x="-85.4959" y="13.2854" font-family="monospace" font-size="6.00">8</text>
</g>
<!-- 6 -->
<g id="node7" class="node"><title>6</title>
<ellipse fill="#1874cd" stroke="black" cx="-32.2" cy="4.71788" rx="4.5" ry="4.5"/>
<text text-anchor="middle" x="-32.2" y="6.01788" font-family="monospace" font-size="6.00">3</text>
</g>
<!-- 0&#45;&gt;6 -->
<g id="edge1" class="edge"><title>0&#45;&gt;6</title>
<path fill="none" stroke="black" d="M-78.5284,11.0353C-67.4678,9.52707 -46.1869,6.62516 -36.8191,5.34774"/>
</g>
<!-- 1 -->
<g id="node2" class="node"><title>1</title>
<ellipse fill="#1874cd" stroke="black" cx="25.3184" cy="-3.07215" rx="8.5" ry="8.5"/>
<text text-anchor="middle" x="25.3184" y="-1.77215" font-family="monospace" font-size="6.00">11</text>
</g>
<!-- 3 -->
<g id="node4" class="node"><title>3</title>
<ellipse fill="#1874cd" stroke="black" cx="15.9802" cy="49.8546" rx="2.5" ry="2.5"/>
</g>
<!-- 1&#45;&gt;3 -->
<g id="edge2" class="edge"><title>1&#45;&gt;3</title>
<path fill="none" stroke="black" d="M23.7764,5.66762C21.6214,17.8817 17.8215,39.4182 16.4724,47.065"/>
</g>
<!-- 4 -->
<g id="node5" class="node"><title>4</title>
<ellipse fill="#1874cd" stroke="black" cx="69.0298" cy="-39.2834" rx="5" ry="5"/>
<text text-anchor="middle" x="69.0298" y="-37.9834" font-family="monospace" font-size="6.00">4</text>
</g>
<!-- 1&#45;&gt;4 -->
<g id="edge3" class="edge"><title>1&#45;&gt;4</title>
<path fill="none" stroke="black" d="M32.1483,-8.73016C39.928,-15.175 52.6307,-25.6982 60.9104,-32.5572"/>
<polygon fill="black" stroke="black" points="60.029,-34.0995 64.9958,-35.9416 62.2618,-31.4042 60.029,-34.0995"/>
<text text-anchor="middle" x="37.2716" y="-24.7012" font-family="monospace" font-size="6.00">V1681I</text>
</g>
<!-- 5 -->
<g id="node6" class="node"><title>5</title>
<ellipse fill="#1874cd" stroke="black" cx="3.32377" cy="-53.6854" rx="3.5" ry="3.5"/>
<text text-anchor="middle" x="3.32377" y="-52.3854" font-family="monospace" font-size="6.00">2</text>
</g>
<!-- 1&#45;&gt;5 -->
<g id="edge4" class="edge"><title>1&#45;&gt;5</title>
<path fill="none" stroke="black" d="M21.8817,-10.9805C17.804,-20.3639 11.0385,-35.9326 6.9004,-45.455"/>
<polygon fill="black" stroke="black" points="5.29341,-44.7622 4.90557,-50.0454 8.50342,-46.1572 5.29341,-44.7622"/>
<text text-anchor="middle" x="1.89526" y="-32.7092" font-family="monospace" font-size="6.00">S2076T</text>
</g>
<!-- 1&#45;&gt;6 -->
<g id="edge5" class="edge"><title>1&#45;&gt;6</title>
<path fill="none" stroke="black" d="M16.8313,-1.92271C4.45656,-0.246722 -18.1068,2.80916 -27.6957,4.10783"/>
</g>
<!-- 7 -->
<g id="node8" class="node"><title>7</title>
<ellipse fill="#1874cd" stroke="black" cx="73.2039" cy="20.743" rx="2.5" ry="2.5"/>
</g>
<!-- 1&#45;&gt;7 -->
<g id="edge6" class="edge"><title>1&#45;&gt;7</title>
<path fill="none" stroke="black" d="M33.2257,0.860444C42.3771,5.41174 57.3127,12.8398 66.1057,17.2128"/>
<polygon fill="black" stroke="black" points="66.9824,15.6943 70.6801,19.4878 65.4238,18.8282 66.9824,15.6943"/>
<text text-anchor="middle" x="40.5364" y="15.0157" font-family="monospace" font-size="6.00">L1617F</text>
</g>
<!-- 2 -->
<g id="node3" class="node"><title>2</title>
<ellipse fill="#1874cd" stroke="black" cx="-27.5663" cy="52.614" rx="2.5" ry="2.5"/>
</g>
<!-- 2&#45;&gt;3 -->
<g id="edge7" class="edge"><title>2&#45;&gt;3</title>
<path fill="none" stroke="black" d="M-24.9727,52.4496C-17.2092,51.9577 5.78112,50.5008 13.4547,50.0146"/>
</g>
<!-- 2&#45;&gt;6 -->
<g id="edge9" class="edge"><title>2&#45;&gt;6</title>
<path fill="none" stroke="black" stroke-dasharray="5,2" d="M-27.8154,50.0388C-28.5598,42.3443 -30.7756,19.441 -31.7415,9.45791"/>
</g>
<!-- 8 -->
<g id="node9" class="node"><title>8</title>
<ellipse fill="#1874cd" stroke="black" cx="-41.5937" cy="-43.8739" rx="3.5" ry="3.5"/>
<text text-anchor="middle" x="-41.5937" y="-42.5739" font-family="monospace" font-size="6.00">2</text>
</g>
<!-- 5&#45;&gt;8 -->
<g id="edge8" class="edge"><title>5&#45;&gt;8</title>
<path fill="none" stroke="black" d="M-0.20083,-52.9155C-8.55612,-51.0904 -29.4978,-46.5161 -37.9608,-44.6675"/>
</g>
<!-- 6&#45;&gt;8 -->
<g id="edge10" class="edge"><title>6&#45;&gt;8</title>
<path fill="none" stroke="black" stroke-dasharray="5,2" d="M-33.0669,0.233579C-34.6305,-7.85449 -37.9462,-25.0061 -39.9511,-35.3769"/>
<polygon fill="black" stroke="black" points="-41.6797,-35.0989 -40.9106,-40.3402 -38.2433,-35.7633 -41.6797,-35.0989"/>
<text text-anchor="middle" x="-48.4438" y="-22.0205" font-family="monospace" font-size="6.00">S2076T</text>
</g>
</g>
</svg>
