<?xml version="1.0" encoding="UTF-8" standalone="no"?>
<!DOCTYPE svg PUBLIC "-//W3C//DTD SVG 1.1//EN"
 "http://www.w3.org/Graphics/SVG/1.1/DTD/svg11.dtd">
<!-- Generated by graphviz version 2.38.0 (20140413.2041)
 -->
<!-- Title: %3 Pages: 1 -->
<svg width="453pt" height="307pt"
 viewBox="0.00 0.00 452.55 307.49" xmlns="http://www.w3.org/2000/svg" xmlns:xlink="http://www.w3.org/1999/xlink">
<g id="graph0" class="graph" transform="scale(1 1) rotate(0) translate(253.049 154.915)">
<title>%3</title>
<polygon fill="white" stroke="none" points="-253.049,152.575 -253.049,-154.915 199.506,-154.915 199.506,152.575 -253.049,152.575"/>
<!-- 0 -->
<g id="node1" class="node"><title>0</title>
<ellipse fill="#1874cd" stroke="black" cx="41.5542" cy="32.5911" rx="7" ry="7"/>
<text text-anchor="middle" x="41.5542" y="33.8911" font-family="monospace" font-size="6.00">8</text>
</g>
<!-- anon_0_10_0 -->
<g id="node13" class="node"><title>anon_0_10_0</title>
<ellipse fill="white" stroke="black" cx="5.92029" cy="-5.08216" rx="1" ry="1"/>
</g>
<!-- 0&#45;&gt;anon_0_10_0 -->
<g id="edge2" class="edge"><title>0&#45;&gt;anon_0_10_0</title>
<path fill="none" stroke="black" d="M36.5995,27.3528C29.6385,19.9935 17.0689,6.70452 10.3838,-0.363235"/>
<polygon fill="black" stroke="black" points="9.00145,0.722021 6.83695,-4.11305 11.5442,-1.68309 9.00145,0.722021"/>
<text text-anchor="middle" x="0.800516" y="9.50689" font-family="monospace" font-size="6.00">2408423:C&gt;T</text>
</g>
<!-- 1 -->
<g id="node2" class="node"><title>1</title>
<ellipse fill="#1874cd" stroke="black" cx="135.308" cy="42.8181" rx="8.5" ry="8.5"/>
<text text-anchor="middle" x="135.308" y="44.1181" font-family="monospace" font-size="6.00">11</text>
</g>
<!-- 3 -->
<g id="node4" class="node"><title>3</title>
<ellipse fill="#1874cd" stroke="black" cx="141.772" cy="101.999" rx="2.5" ry="2.5"/>
</g>
<!-- 1&#45;&gt;3 -->
<g id="edge10" class="edge"><title>1&#45;&gt;3</title>
<path fill="none" stroke="black" d="M136.234,51.2972C137.483,62.7313 139.691,82.9406 140.907,94.0796"/>
<polygon fill="black" stroke="black" points="142.665,94.061 141.469,99.2215 139.186,94.4411 142.665,94.061"/>
<text text-anchor="middle" x="117.824" y="72.8108" font-family="monospace" font-size="6.00">2381529:T&gt;C</text>
</g>
<!-- 4 -->
<g id="node5" class="node"><title>4</title>
<ellipse fill="#1874cd" stroke="black" cx="190.506" cy="23.9459" rx="5" ry="5"/>
<text text-anchor="middle" x="190.506" y="25.2459" font-family="monospace" font-size="6.00">4</text>
</g>
<!-- 1&#45;&gt;4 -->
<g id="edge11" class="edge"><title>1&#45;&gt;4</title>
<path fill="none" stroke="black" d="M143.453,40.0334C153.361,36.6457 170.076,30.9308 180.686,27.303"/>
<polygon fill="black" stroke="black" points="180.313,25.5814 185.61,25.6196 181.445,28.8932 180.313,25.5814"/>
<text text-anchor="middle" x="153.152" y="30.5853" font-family="monospace" font-size="6.00">V1681I</text>
</g>
<!-- 5 -->
<g id="node6" class="node"><title>5</title>
<ellipse fill="#1874cd" stroke="black" cx="160.251" cy="82.2938" rx="3.5" ry="3.5"/>
<text text-anchor="middle" x="160.251" y="83.5938" font-family="monospace" font-size="6.00">2</text>
</g>
<!-- 1&#45;&gt;5 -->
<g id="edge12" class="edge"><title>1&#45;&gt;5</title>
<path fill="none" stroke="black" d="M139.883,50.0585C144.363,57.1478 151.151,67.8912 155.642,74.999"/>
<polygon fill="black" stroke="black" points="157.136,74.0878 158.327,79.2495 154.177,75.9573 157.136,74.0878"/>
<text text-anchor="middle" x="137.577" y="62.4094" font-family="monospace" font-size="6.00">S2076T</text>
</g>
<!-- 6 -->
<g id="node7" class="node"><title>6</title>
<ellipse fill="#1874cd" stroke="black" cx="76.8716" cy="72.832" rx="4.5" ry="4.5"/>
<text text-anchor="middle" x="76.8716" y="74.132" font-family="monospace" font-size="6.00">3</text>
</g>
<!-- 1&#45;&gt;6 -->
<g id="edge13" class="edge"><title>1&#45;&gt;6</title>
<path fill="none" stroke="black" d="M127.669,46.7418C116.83,52.3088 97.0402,62.4731 85.6241,68.3366"/>
<polygon fill="black" stroke="black" points="86.2775,69.9682 81.0303,70.696 84.6784,66.8549 86.2775,69.9682"/>
<text text-anchor="middle" x="83.327" y="56.5305" font-family="monospace" font-size="6.00">2376361:T&gt;G</text>
</g>
<!-- 7 -->
<g id="node8" class="node"><title>7</title>
<ellipse fill="#1874cd" stroke="black" cx="191.747" cy="57.893" rx="2.5" ry="2.5"/>
</g>
<!-- 1&#45;&gt;7 -->
<g id="edge14" class="edge"><title>1&#45;&gt;7</title>
<path fill="none" stroke="black" d="M143.636,45.0424C154.606,47.9724 173.735,53.0818 184.265,55.8945"/>
<polygon fill="black" stroke="black" points="184.745,54.2113 189.124,57.1924 183.842,57.5928 184.745,54.2113"/>
<text text-anchor="middle" x="154.713" y="48.8728" font-family="monospace" font-size="6.00">L1617F</text>
</g>
<!-- anon_1_9_0 -->
<g id="node20" class="node"><title>anon_1_9_0</title>
<ellipse fill="white" stroke="black" cx="142.602" cy="-12.181" rx="1" ry="1"/>
</g>
<!-- 1&#45;&gt;anon_1_9_0 -->
<g id="edge19" class="edge"><title>1&#45;&gt;anon_1_9_0</title>
<path fill="none" stroke="black" stroke-dasharray="5,2" d="M136.448,34.2245C137.92,23.1216 140.449,4.0494 141.76,-5.83159"/>
<polygon fill="black" stroke="black" points="140.029,-6.0949 142.422,-10.8214 143.499,-5.63473 140.029,-6.0949"/>
<text text-anchor="middle" x="118.44" y="9.4653" font-family="monospace" font-size="6.00">2408423:C&gt;T</text>
</g>
<!-- 2 -->
<g id="node3" class="node"><title>2</title>
<ellipse fill="#1874cd" stroke="black" cx="97.5626" cy="120.402" rx="2.5" ry="2.5"/>
</g>
<!-- 3&#45;&gt;2 -->
<g id="edge15" class="edge"><title>3&#45;&gt;2</title>
<path fill="none" stroke="black" d="M139.395,102.988C132.979,105.659 115.105,113.1 104.918,117.34"/>
<polygon fill="black" stroke="black" points="105.46,119.01 100.171,119.316 104.115,115.779 105.46,119.01"/>
<text text-anchor="middle" x="98.856" y="108.922" font-family="monospace" font-size="6.00">2376361:T&gt;G</text>
</g>
<!-- 8 -->
<g id="node9" class="node"><title>8</title>
<ellipse fill="#1874cd" stroke="black" cx="111.588" cy="95.3927" rx="3.5" ry="3.5"/>
<text text-anchor="middle" x="111.588" y="96.6927" font-family="monospace" font-size="6.00">2</text>
</g>
<!-- 5&#45;&gt;8 -->
<g id="edge16" class="edge"><title>5&#45;&gt;8</title>
<path fill="none" stroke="black" d="M156.751,83.2358C149.105,85.2939 130.731,90.2398 119.922,93.1493"/>
<polygon fill="black" stroke="black" points="120.339,94.8493 115.056,94.4592 119.429,91.4696 120.339,94.8493"/>
<text text-anchor="middle" x="156.942" y="93.6373" font-family="monospace" font-size="6.00">2376361:T&gt;G</text>
</g>
<!-- 6&#45;&gt;0 -->
<g id="edge1" class="edge"><title>6&#45;&gt;0</title>
<path fill="none" stroke="black" d="M73.8604,69.401C68.585,63.3902 57.501,50.761 49.7968,41.9827"/>
<polygon fill="black" stroke="black" points="48.3094,42.941 46.3265,38.0286 50.9399,40.6322 48.3094,42.941"/>
<text text-anchor="middle" x="39.0342" y="51.4473" font-family="monospace" font-size="6.00">2366674:G&gt;T</text>
</g>
<!-- 6&#45;&gt;2 -->
<g id="edge27" class="edge"><title>6&#45;&gt;2</title>
<path fill="none" stroke="black" stroke-dasharray="5,2" d="M78.781,77.222C82.3601,85.4506 90.1072,103.262 94.4503,113.247"/>
<polygon fill="black" stroke="black" points="96.0752,112.595 96.4648,117.878 92.8657,113.991 96.0752,112.595"/>
<text text-anchor="middle" x="66.7046" y="102.538" font-family="monospace" font-size="6.00">2381529:T&gt;C</text>
</g>
<!-- 6&#45;&gt;8 -->
<g id="edge28" class="edge"><title>6&#45;&gt;8</title>
<path fill="none" stroke="black" stroke-dasharray="5,2" d="M80.854,75.42C86.5266,79.1063 97.035,85.9352 104.168,90.5704"/>
<polygon fill="black" stroke="black" points="105.226,89.1713 108.465,93.3633 103.319,92.1061 105.226,89.1713"/>
<text text-anchor="middle" x="83.2532" y="82.2524" font-family="monospace" font-size="6.00">S2076T</text>
</g>
<!-- anon_6_11_0 -->
<g id="node27" class="node"><title>anon_6_11_0</title>
<ellipse fill="white" stroke="black" cx="40.3956" cy="109.64" rx="1" ry="1"/>
</g>
<!-- 6&#45;&gt;anon_6_11_0 -->
<g id="edge29" class="edge"><title>6&#45;&gt;anon_6_11_0</title>
<path fill="none" stroke="black" stroke-dasharray="5,2" d="M73.5054,76.2288C66.9622,82.8315 52.5169,97.4082 45.057,104.936"/>
<polygon fill="black" stroke="black" points="46.2105,106.258 41.4479,108.578 43.7244,103.795 46.2105,106.258"/>
<text text-anchor="middle" x="36.3614" y="90.3197" font-family="monospace" font-size="6.00">2408423:C&gt;T</text>
</g>
<!-- 9 -->
<g id="node10" class="node"><title>9</title>
<ellipse fill="#1874cd" stroke="black" cx="-101.345" cy="-73.0901" rx="13" ry="13"/>
<text text-anchor="middle" x="-101.345" y="-71.7901" font-family="monospace" font-size="6.00">26</text>
</g>
<!-- 11 -->
<g id="node12" class="node"><title>11</title>
<ellipse fill="#1874cd" stroke="black" cx="-155.576" cy="-16.5921" rx="4.5" ry="4.5"/>
<text text-anchor="middle" x="-155.576" y="-15.2921" font-family="monospace" font-size="6.00">3</text>
</g>
<!-- 9&#45;&gt;11 -->
<g id="edge17" class="edge"><title>9&#45;&gt;11</title>
<path fill="none" stroke="black" d="M-110.545,-63.5059C-121.333,-52.2666 -138.97,-33.8923 -148.66,-23.7973"/>
<polygon fill="black" stroke="black" points="-147.558,-22.4181 -152.283,-20.0227 -150.083,-24.8418 -147.558,-22.4181"/>
<text text-anchor="middle" x="-152.644" y="-43.7244" font-family="monospace" font-size="6.00">2376361:T&gt;G</text>
</g>
<!-- 10 -->
<g id="node11" class="node"><title>10</title>
<ellipse fill="#1874cd" stroke="black" cx="-203.814" cy="-42.0276" rx="6" ry="6"/>
<text text-anchor="middle" x="-203.814" y="-40.7276" font-family="monospace" font-size="6.00">6</text>
</g>
<!-- 11&#45;&gt;10 -->
<g id="edge18" class="edge"><title>11&#45;&gt;10</title>
<path fill="none" stroke="black" d="M-159.689,-18.7607C-167.129,-22.6839 -183.029,-31.0678 -193.57,-36.6261"/>
<polygon fill="black" stroke="black" points="-194.648,-35.2157 -198.254,-39.0959 -193.015,-38.3117 -194.648,-35.2157"/>
<text text-anchor="middle" x="-199.997" y="-31.1415" font-family="monospace" font-size="6.00">2366674:G&gt;T</text>
</g>
<!-- anon_0_10_1 -->
<g id="node14" class="node"><title>anon_0_10_1</title>
<ellipse fill="white" stroke="black" cx="-24.5171" cy="-38.2551" rx="1" ry="1"/>
</g>
<!-- anon_0_10_1&#45;&gt;anon_0_10_0 -->
<g id="edge3" class="edge"><title>anon_0_10_1&#45;&gt;anon_0_10_0</title>
<path fill="none" stroke="black" d="M-23.7647,-37.4351C-20.3684,-33.7335 -6.30771,-18.4092 1.17907,-10.2495"/>
<polygon fill="black" stroke="black" points="2.74609,-11.1301 4.83701,-6.2628 0.167148,-8.76386 2.74609,-11.1301"/>
<text text-anchor="middle" x="-30.5763" y="-24.1715" font-family="monospace" font-size="6.00">2408677:A&gt;C</text>
</g>
<!-- anon_0_10_2 -->
<g id="node15" class="node"><title>anon_0_10_2</title>
<ellipse fill="white" stroke="black" cx="-57.0731" cy="-71.6182" rx="1" ry="1"/>
</g>
<!-- anon_0_10_2&#45;&gt;anon_0_10_1 -->
<g id="edge4" class="edge"><title>anon_0_10_2&#45;&gt;anon_0_10_1</title>
<path fill="none" stroke="black" d="M-56.2683,-70.7935C-52.6356,-67.0707 -37.5962,-51.6585 -29.5883,-43.4521"/>
<polygon fill="black" stroke="black" points="-27.9153,-44.2433 -25.6758,-39.4425 -30.4203,-41.7989 -27.9153,-44.2433"/>
<text text-anchor="middle" x="-62.0923" y="-57.4413" font-family="monospace" font-size="6.00">2408751:T&gt;A</text>
</g>
<!-- anon_0_10_3 -->
<g id="node16" class="node"><title>anon_0_10_3</title>
<ellipse fill="white" stroke="black" cx="-94.1642" cy="-103.721" rx="1" ry="1"/>
</g>
<!-- anon_0_10_3&#45;&gt;anon_0_10_2 -->
<g id="edge5" class="edge"><title>anon_0_10_3&#45;&gt;anon_0_10_2</title>
<path fill="none" stroke="black" d="M-93.2473,-102.927C-88.9608,-99.2171 -70.7337,-83.4415 -61.9048,-75.8001"/>
<polygon fill="black" stroke="black" points="-60.4662,-76.8694 -57.8308,-72.274 -62.7567,-74.223 -60.4662,-76.8694"/>
<text text-anchor="middle" x="-96.4578" y="-89.7303" font-family="monospace" font-size="6.00">2408788:G&gt;A</text>
</g>
<!-- anon_0_10_4 -->
<g id="node17" class="node"><title>anon_0_10_4</title>
<ellipse fill="white" stroke="black" cx="-137.056" cy="-121.997" rx="1" ry="1"/>
</g>
<!-- anon_0_10_3&#45;&gt;anon_0_10_4 -->
<g id="edge6" class="edge"><title>anon_0_10_3&#45;&gt;anon_0_10_4</title>
<path fill="none" stroke="black" d="M-95.2245,-104.172C-100.056,-106.231 -120.2,-114.814 -130.671,-119.276"/>
<polygon fill="black" stroke="black" points="-131.616,-117.776 -135.53,-121.346 -130.244,-120.996 -131.616,-117.776"/>
<text text-anchor="middle" x="-136.462" y="-114.995" font-family="monospace" font-size="6.00">2410255:T&gt;C</text>
</g>
<!-- anon_0_10_5 -->
<g id="node18" class="node"><title>anon_0_10_5</title>
<ellipse fill="white" stroke="black" cx="-180.412" cy="-117.517" rx="1" ry="1"/>
</g>
<!-- anon_0_10_4&#45;&gt;anon_0_10_5 -->
<g id="edge7" class="edge"><title>anon_0_10_4&#45;&gt;anon_0_10_5</title>
<path fill="none" stroke="black" d="M-138.128,-121.886C-142.966,-121.386 -162.994,-119.317 -173.659,-118.215"/>
<polygon fill="black" stroke="black" points="-173.716,-116.45 -178.869,-117.677 -174.075,-119.931 -173.716,-116.45"/>
<text text-anchor="middle" x="-179.338" y="-121.998" font-family="monospace" font-size="6.00">2410272:C&gt;T</text>
</g>
<!-- anon_0_10_6 -->
<g id="node19" class="node"><title>anon_0_10_6</title>
<ellipse fill="white" stroke="black" cx="-209.717" cy="-87.8272" rx="1" ry="1"/>
</g>
<!-- anon_0_10_6&#45;&gt;10 -->
<g id="edge9" class="edge"><title>anon_0_10_6&#45;&gt;10</title>
<path fill="none" stroke="black" d="M-209.571,-86.6951C-208.985,-82.1494 -206.763,-64.9076 -205.257,-53.2241"/>
<polygon fill="black" stroke="black" points="-203.489,-53.1978 -204.586,-48.0151 -206.961,-52.7504 -203.489,-53.1978"/>
<text text-anchor="middle" x="-228.049" y="-69.3267" font-family="monospace" font-size="6.00">2422250:C&gt;T</text>
</g>
<!-- anon_0_10_6&#45;&gt;anon_0_10_5 -->
<g id="edge8" class="edge"><title>anon_0_10_6&#45;&gt;anon_0_10_5</title>
<path fill="none" stroke="black" d="M-208.993,-88.5611C-205.723,-91.874 -192.185,-105.589 -184.977,-112.892"/>
<polygon fill="black" stroke="black" points="-186.213,-114.131 -181.455,-116.46 -183.722,-111.673 -186.213,-114.131"/>
<text text-anchor="middle" x="-216.332" y="-104.601" font-family="monospace" font-size="6.00">2415838:G&gt;A</text>
</g>
<!-- anon_1_9_1 -->
<g id="node21" class="node"><title>anon_1_9_1</title>
<ellipse fill="white" stroke="black" cx="143.653" cy="-56.62" rx="1" ry="1"/>
</g>
<!-- anon_1_9_1&#45;&gt;anon_1_9_0 -->
<g id="edge20" class="edge"><title>anon_1_9_1&#45;&gt;anon_1_9_0</title>
<path fill="none" stroke="black" stroke-dasharray="5,2" d="M143.627,-55.5215C143.509,-50.5161 143.015,-29.6453 142.758,-18.7964"/>
<polygon fill="black" stroke="black" points="144.507,-18.7197 142.639,-13.7626 141.008,-18.8026 144.507,-18.7197"/>
<text text-anchor="middle" x="122.131" y="-36.7546" font-family="monospace" font-size="6.00">2408677:A&gt;C</text>
</g>
<!-- anon_1_9_2 -->
<g id="node22" class="node"><title>anon_1_9_2</title>
<ellipse fill="white" stroke="black" cx="125.272" cy="-97.2525" rx="1" ry="1"/>
</g>
<!-- anon_1_9_2&#45;&gt;anon_1_9_1 -->
<g id="edge21" class="edge"><title>anon_1_9_2&#45;&gt;anon_1_9_1</title>
<path fill="none" stroke="black" stroke-dasharray="5,2" d="M125.727,-96.2481C127.797,-91.6714 136.43,-72.5884 140.917,-62.6688"/>
<polygon fill="black" stroke="black" points="142.533,-63.343 142.999,-58.0662 139.344,-61.9004 142.533,-63.343"/>
<text text-anchor="middle" x="113.399" y="-79.2772" font-family="monospace" font-size="6.00">2408751:T&gt;A</text>
</g>
<!-- anon_1_9_3 -->
<g id="node23" class="node"><title>anon_1_9_3</title>
<ellipse fill="white" stroke="black" cx="91.5672" cy="-127.744" rx="1" ry="1"/>
</g>
<!-- anon_1_9_3&#45;&gt;anon_1_9_2 -->
<g id="edge22" class="edge"><title>anon_1_9_3&#45;&gt;anon_1_9_2</title>
<path fill="none" stroke="black" stroke-dasharray="5,2" d="M92.4004,-126.991C96.1614,-123.588 111.732,-109.502 120.022,-102.002"/>
<polygon fill="black" stroke="black" points="121.539,-102.99 124.073,-98.3377 119.191,-100.394 121.539,-102.99"/>
<text text-anchor="middle" x="87.1121" y="-114.977" font-family="monospace" font-size="6.00">2408788:G&gt;A</text>
</g>
<!-- anon_1_9_4 -->
<g id="node24" class="node"><title>anon_1_9_4</title>
<ellipse fill="white" stroke="black" cx="48.3307" cy="-144.028" rx="1" ry="1"/>
</g>
<!-- anon_1_9_3&#45;&gt;anon_1_9_4 -->
<g id="edge23" class="edge"><title>anon_1_9_3&#45;&gt;anon_1_9_4</title>
<path fill="none" stroke="black" stroke-dasharray="5,2" d="M90.4985,-128.147C85.6285,-129.981 65.3225,-137.629 54.7672,-141.604"/>
<polygon fill="black" stroke="black" points="53.9319,-140.049 49.8695,-143.449 55.1655,-143.324 53.9319,-140.049"/>
<text text-anchor="middle" x="49.0989" y="-138.03" font-family="monospace" font-size="6.00">2410255:T&gt;C</text>
</g>
<!-- anon_1_9_5 -->
<g id="node25" class="node"><title>anon_1_9_5</title>
<ellipse fill="white" stroke="black" cx="1.34883" cy="-143.801" rx="1" ry="1"/>
</g>
<!-- anon_1_9_4&#45;&gt;anon_1_9_5 -->
<g id="edge24" class="edge"><title>anon_1_9_4&#45;&gt;anon_1_9_5</title>
<path fill="none" stroke="black" stroke-dasharray="5,2" d="M47.1694,-144.023C41.783,-143.996 19.0191,-143.886 7.7387,-143.832"/>
<polygon fill="black" stroke="black" points="7.65055,-142.082 2.64211,-143.807 7.63356,-145.581 7.65055,-142.082"/>
<text text-anchor="middle" x="3.86587" y="-146.115" font-family="monospace" font-size="6.00">2410272:C&gt;T</text>
</g>
<!-- anon_1_9_6 -->
<g id="node26" class="node"><title>anon_1_9_6</title>
<ellipse fill="white" stroke="black" cx="-43.8108" cy="-126.349" rx="1" ry="1"/>
</g>
<!-- anon_1_9_6&#45;&gt;9 -->
<g id="edge26" class="edge"><title>anon_1_9_6&#45;&gt;9</title>
<path fill="none" stroke="black" stroke-dasharray="5,2" d="M-44.8094,-125.424C-49.8287,-120.778 -72.6552,-99.648 -87.7244,-85.6987"/>
<polygon fill="black" stroke="black" points="-86.8897,-84.0867 -91.7478,-81.9744 -89.2673,-86.6552 -86.8897,-84.0867"/>
<text text-anchor="middle" x="-47.4422" y="-105.748" font-family="monospace" font-size="6.00">2422250:C&gt;T</text>
</g>
<!-- anon_1_9_6&#45;&gt;anon_1_9_5 -->
<g id="edge25" class="edge"><title>anon_1_9_6&#45;&gt;anon_1_9_5</title>
<path fill="none" stroke="black" stroke-dasharray="5,2" d="M-42.6945,-126.78C-37.517,-128.781 -15.6361,-137.237 -4.79319,-141.427"/>
<polygon fill="black" stroke="black" points="-5.18899,-143.15 0.105712,-143.321 -3.92728,-139.886 -5.18899,-143.15"/>
<text text-anchor="middle" x="-42.2561" y="-137.265" font-family="monospace" font-size="6.00">2415838:G&gt;A</text>
</g>
<!-- anon_6_11_1 -->
<g id="node28" class="node"><title>anon_6_11_1</title>
<ellipse fill="white" stroke="black" cx="5.49611" cy="136.8" rx="1" ry="1"/>
</g>
<!-- anon_6_11_1&#45;&gt;anon_6_11_0 -->
<g id="edge30" class="edge"><title>anon_6_11_1&#45;&gt;anon_6_11_0</title>
<path fill="none" stroke="black" stroke-dasharray="5,2" d="M6.35879,136.129C10.253,133.098 26.375,120.551 34.9593,113.871"/>
<polygon fill="black" stroke="black" points="34.1328,112.296 39.1535,110.607 36.2824,115.058 34.1328,112.296"/>
<text text-anchor="middle" x="1.6272" y="121.268" font-family="monospace" font-size="6.00">2408677:A&gt;C</text>
</g>
<!-- anon_6_11_2 -->
<g id="node29" class="node"><title>anon_6_11_2</title>
<ellipse fill="white" stroke="black" cx="-37.5321" cy="145.911" rx="1" ry="1"/>
</g>
<!-- anon_6_11_2&#45;&gt;anon_6_11_1 -->
<g id="edge31" class="edge"><title>anon_6_11_2&#45;&gt;anon_6_11_1</title>
<path fill="none" stroke="black" stroke-dasharray="5,2" d="M-36.4684,145.685C-31.6672,144.669 -11.7902,140.46 -1.20638,138.22"/>
<polygon fill="black" stroke="black" points="-1.28936,136.448 3.96471,137.125 -0.564353,139.872 -1.28936,136.448"/>
<text text-anchor="middle" x="-37.4109" y="139.239" font-family="monospace" font-size="6.00">2408751:T&gt;A</text>
</g>
<!-- anon_6_11_3 -->
<g id="node30" class="node"><title>anon_6_11_3</title>
<ellipse fill="white" stroke="black" cx="-81.269" cy="137.298" rx="1" ry="1"/>
</g>
<!-- anon_6_11_3&#45;&gt;anon_6_11_2 -->
<g id="edge32" class="edge"><title>anon_6_11_3&#45;&gt;anon_6_11_2</title>
<path fill="none" stroke="black" stroke-dasharray="5,2" d="M-80.1878,137.511C-75.2614,138.481 -54.7205,142.526 -44.043,144.628"/>
<polygon fill="black" stroke="black" points="-43.6564,142.921 -39.0887,145.604 -44.3326,146.355 -43.6564,142.921"/>
<text text-anchor="middle" x="-80.5522" y="146.375" font-family="monospace" font-size="6.00">2408788:G&gt;A</text>
</g>
<!-- anon_6_11_4 -->
<g id="node31" class="node"><title>anon_6_11_4</title>
<ellipse fill="white" stroke="black" cx="-119.368" cy="113.509" rx="1" ry="1"/>
</g>
<!-- anon_6_11_3&#45;&gt;anon_6_11_4 -->
<g id="edge33" class="edge"><title>anon_6_11_3&#45;&gt;anon_6_11_4</title>
<path fill="none" stroke="black" stroke-dasharray="5,2" d="M-82.2107,136.71C-86.5021,134.031 -104.395,122.858 -113.697,117.051"/>
<polygon fill="black" stroke="black" points="-114.698,118.489 -118.012,114.356 -112.844,115.52 -114.698,118.489"/>
<text text-anchor="middle" x="-121.186" y="123.286" font-family="monospace" font-size="6.00">2410255:T&gt;C</text>
</g>
<!-- anon_6_11_5 -->
<g id="node32" class="node"><title>anon_6_11_5</title>
<ellipse fill="white" stroke="black" cx="-146.794" cy="77.8348" rx="1" ry="1"/>
</g>
<!-- anon_6_11_4&#45;&gt;anon_6_11_5 -->
<g id="edge34" class="edge"><title>anon_6_11_4&#45;&gt;anon_6_11_5</title>
<path fill="none" stroke="black" stroke-dasharray="5,2" d="M-120.046,112.628C-123.106,108.647 -135.776,92.1668 -142.522,83.3918"/>
<polygon fill="black" stroke="black" points="-144.158,84.1351 -145.818,79.1045 -141.383,82.0019 -144.158,84.1351"/>
<text text-anchor="middle" x="-153.831" y="93.7978" font-family="monospace" font-size="6.00">2410272:C&gt;T</text>
</g>
<!-- anon_6_11_6 -->
<g id="node33" class="node"><title>anon_6_11_6</title>
<ellipse fill="white" stroke="black" cx="-159.298" cy="34.5416" rx="1" ry="1"/>
</g>
<!-- anon_6_11_6&#45;&gt;11 -->
<g id="edge36" class="edge"><title>anon_6_11_6&#45;&gt;11</title>
<path fill="none" stroke="black" stroke-dasharray="5,2" d="M-159.206,33.2776C-158.81,27.8362 -157.228,6.10068 -156.288,-6.81073"/>
<polygon fill="black" stroke="black" points="-158.017,-7.17207 -155.908,-12.0318 -154.526,-6.91796 -158.017,-7.17207"/>
<text text-anchor="middle" x="-178.574" y="8.66203" font-family="monospace" font-size="6.00">2422250:C&gt;T</text>
</g>
<!-- anon_6_11_6&#45;&gt;anon_6_11_5 -->
<g id="edge35" class="edge"><title>anon_6_11_6&#45;&gt;anon_6_11_5</title>
<path fill="none" stroke="black" stroke-dasharray="5,2" d="M-158.989,35.6117C-157.58,40.4881 -151.708,60.8208 -148.655,71.3899"/>
<polygon fill="black" stroke="black" points="-146.945,71.0047 -147.239,76.294 -150.308,71.9759 -146.945,71.0047"/>
<text text-anchor="middle" x="-174.089" y="53.838" font-family="monospace" font-size="6.00">2415838:G&gt;A</text>
</g>
</g>
</svg>
