<?xml version="1.0" encoding="UTF-8" standalone="no"?>
<!DOCTYPE svg PUBLIC "-//W3C//DTD SVG 1.1//EN"
 "http://www.w3.org/Graphics/SVG/1.1/DTD/svg11.dtd">
<!-- Generated by graphviz version 2.38.0 (20140413.2041)
 -->
<!-- Title: %3 Pages: 1 -->
<svg width="501pt" height="465pt"
 viewBox="0.00 0.00 501.25 465.27" xmlns="http://www.w3.org/2000/svg" xmlns:xlink="http://www.w3.org/1999/xlink">
<g id="graph0" class="graph" transform="scale(1 1) rotate(0) translate(226.146 211.349)">
<title>%3</title>
<polygon fill="white" stroke="none" points="-226.146,253.919 -226.146,-211.349 275.105,-211.349 275.105,253.919 -226.146,253.919"/>
<!-- 0 -->
<g id="node1" class="node"><title>0</title>
<path fill="#1874cd" stroke="black" stroke-width="0.5" d="M-126.519,97.5142C-126.519,97.5142 -114.519,97.5142 -114.519,97.5142 -114.519,96.9428 -114.56,96.3721 -114.642,95.8064 -114.723,95.2408 -114.845,94.6817 -115.006,94.1334 -115.167,93.5851 -115.367,93.049 -115.604,92.5292 -115.841,92.0094 -116.115,91.5073 -116.424,91.0265 -116.733,90.5458 -117.076,90.0878 -117.45,89.6559 -117.825,89.224 -118.229,88.8194 -118.661,88.4452 -119.093,88.071 -119.551,87.7281 -120.032,87.4192 -120.513,87.1102 -121.015,86.836 -121.534,86.5986 -122.054,86.3612 -122.59,86.1613 -123.139,86.0003 -123.687,85.8393 -124.246,85.7177 -124.812,85.6364 -125.377,85.555 -125.948,85.5142 -126.519,85.5142 -127.091,85.5142 -127.662,85.555 -128.227,85.6364 -128.793,85.7177 -129.352,85.8393 -129.9,86.0003 -130.449,86.1613 -130.985,86.3613 -131.504,86.5986 -132.024,86.836 -132.526,87.1102 -133.007,87.4192 -133.488,87.7281 -133.946,88.071 -134.378,88.4452 -134.81,88.8194 -135.214,89.224 -135.588,89.6559 -135.963,90.0878 -136.306,90.5458 -136.615,91.0265 -136.923,91.5073 -137.198,92.0094 -137.435,92.5292 -137.672,93.049 -137.872,93.5851 -138.033,94.1334 -138.194,94.6817 -138.316,95.2408 -138.397,95.8064 -138.479,96.3721 -138.519,96.9428 -138.519,97.5142 -138.519,98.0857 -138.479,98.6564 -138.397,99.222 -138.316,99.7876 -138.194,100.347 -138.033,100.895 -137.872,101.443 -137.672,101.979 -137.435,102.499 -137.198,103.019 -136.923,103.521 -136.615,104.002 -136.306,104.483 -135.963,104.941 -135.588,105.373 -135.214,105.804 -134.81,106.209 -134.378,106.583 -133.946,106.957 -133.488,107.3 -133.007,107.609 -132.526,107.918 -132.024,108.192 -131.504,108.43 -130.985,108.667 -130.449,108.867 -129.9,109.028 -129.352,109.189 -128.793,109.311 -128.227,109.392 -128.227,109.392 -126.519,97.5142 -126.519,97.5142"/>
<path fill="olivedrab" stroke="black" stroke-width="0.5" d="M-126.519,97.5142C-126.519,97.5142 -128.227,109.392 -128.227,109.392 -127.803,109.453 -127.376,109.491 -126.948,109.507 -126.52,109.522 -126.091,109.514 -125.663,109.484 -125.236,109.453 -124.811,109.4 -124.389,109.324 -123.967,109.247 -123.55,109.149 -123.139,109.028 -122.728,108.907 -122.323,108.765 -121.927,108.601 -121.531,108.437 -121.145,108.252 -120.768,108.046 -120.392,107.841 -120.028,107.616 -119.676,107.371 -119.324,107.127 -118.985,106.864 -118.661,106.583 -118.337,106.303 -118.029,106.005 -117.737,105.691 -117.445,105.378 -117.17,105.049 -116.913,104.706 -116.656,104.363 -116.418,104.006 -116.199,103.637 -115.981,103.269 -115.782,102.889 -115.604,102.499 -115.426,102.109 -115.269,101.71 -115.134,101.304 -114.998,100.897 -114.885,100.484 -114.794,100.065 -114.703,99.6463 -114.634,99.223 -114.588,98.797 -114.542,98.3709 -114.519,97.9427 -114.519,97.5142 -114.519,97.5142 -126.519,97.5142 -126.519,97.5142"/>
<ellipse fill="none" stroke="black" cx="-126.519" cy="97.5142" rx="12" ry="12"/>
<text text-anchor="middle" x="-126.519" y="98.8142" font-family="monospace" font-size="6.00">11</text>
</g>
<!-- 8 -->
<g id="node9" class="node"><title>8</title>
<ellipse fill="olivedrab" stroke="black" cx="-174.732" cy="126.695" rx="3.5" ry="3.5"/>
</g>
<!-- 0&#45;&gt;8 -->
<g id="edge2" class="edge"><title>0&#45;&gt;8</title>
<path fill="none" stroke="black" d="M-137.219,103.99C-146.409,109.552 -159.41,117.421 -167.443,122.283"/>
<polygon fill="black" stroke="black" points="-166.542,123.783 -171.725,124.875 -168.354,120.789 -166.542,123.783"/>
<text text-anchor="middle" x="-173.331" y="110.937" font-family="monospace" font-size="6.00">2408941:T&gt;C</text>
</g>
<!-- 1 -->
<g id="node2" class="node"><title>1</title>
<path fill="#1874cd" stroke="black" stroke-width="0.5" d="M-61.8136,46.8162C-61.8136,46.8162 -47.8136,46.8162 -47.8136,46.8162 -47.8136,45.9603 -47.8921,45.1063 -48.048,44.2649 -48.204,43.4234 -48.4368,42.598 -48.7435,41.799 -49.0502,41 -49.4295,40.2309 -49.8767,39.5012 -50.3238,38.7715 -50.8369,38.0843 -51.4096,37.4483 -51.9822,36.8123 -52.612,36.2302 -53.291,35.7092 -53.9699,35.1882 -54.6952,34.7306 -55.4578,34.3421 -56.2203,33.9535 -57.0168,33.6357 -57.8374,33.3927 -58.658,33.1496 -59.4991,32.9823 -60.3502,32.8928 -61.2013,32.8034 -62.0589,32.7922 -62.912,32.8593 -63.7652,32.9265 -64.6104,33.0717 -65.4371,33.2932 -66.2637,33.5147 -67.0683,33.8115 -67.8408,34.18 -68.6132,34.5484 -69.3502,34.9869 -70.0426,35.4899 -70.735,35.9929 -71.3798,36.5584 -71.9689,37.1792 -72.558,37.8 -73.0889,38.4735 -73.555,39.1912 -74.0211,39.9089 -74.4204,40.6679 -74.7479,41.4586 -75.0754,42.2492 -75.3298,43.0683 -75.5077,43.9054 -75.5077,43.9054 -61.8136,46.8162 -61.8136,46.8162"/>
<path fill="olivedrab" stroke="black" stroke-width="0.5" d="M-61.8136,46.8162C-61.8136,46.8162 -75.5077,43.9054 -75.5077,43.9054 -75.6093,44.3835 -75.6858,44.8666 -75.7369,45.3528 -75.788,45.8389 -75.8136,46.3273 -75.8136,46.8162 -75.8136,47.305 -75.788,47.7934 -75.7369,48.2796 -75.6858,48.7657 -75.6093,49.2488 -75.5077,49.7269 -75.4061,50.205 -75.2795,50.6775 -75.1284,51.1424 -74.9774,51.6073 -74.8021,52.0639 -74.6033,52.5105 -74.4044,52.957 -74.1824,53.3928 -73.938,53.8162 -73.6936,54.2395 -73.4272,54.6497 -73.1399,55.0451 -72.8525,55.4406 -72.5447,55.8207 -72.2176,56.184 -71.8906,56.5472 -71.5447,56.8931 -71.1814,57.2202 -70.8182,57.5473 -70.4381,57.8551 -70.0426,58.1424 -69.6472,58.4297 -69.2369,58.6961 -68.8136,58.9405 -68.3903,59.1849 -67.9545,59.407 -67.5079,59.6058 -67.0614,59.8046 -66.6047,59.9799 -66.1399,60.1309 -65.675,60.282 -65.2025,60.4086 -64.7244,60.5102 -64.2463,60.6118 -63.7631,60.6884 -63.277,60.7395 -62.7909,60.7906 -62.3024,60.8162 -61.8136,60.8162 -61.3248,60.8162 -60.8363,60.7906 -60.3502,60.7395 -59.8641,60.6884 -59.381,60.6118 -58.9029,60.5102 -58.4247,60.4086 -57.9523,60.282 -57.4874,60.1309 -57.0225,59.9799 -56.5658,59.8046 -56.1193,59.6058 -55.6728,59.407 -55.2369,59.1849 -54.8136,58.9405 -54.3903,58.6961 -53.9801,58.4297 -53.5846,58.1424 -53.1892,57.8551 -52.809,57.5473 -52.4458,57.2202 -52.0825,56.8931 -51.7367,56.5472 -51.4096,56.184 -51.0825,55.8207 -50.7747,55.4406 -50.4874,55.0451 -50.2001,54.6497 -49.9337,54.2395 -49.6893,53.8162 -49.4449,53.3928 -49.2228,52.957 -49.024,52.5105 -48.8252,52.0639 -48.6499,51.6073 -48.4988,51.1424 -48.3478,50.6775 -48.2212,50.205 -48.1196,49.7269 -48.0179,49.2488 -47.9414,48.7657 -47.8903,48.2796 -47.8392,47.7934 -47.8136,47.305 -47.8136,46.8162 -47.8136,46.8162 -61.8136,46.8162 -61.8136,46.8162"/>
<ellipse fill="none" stroke="black" cx="-61.8136" cy="46.8162" rx="14" ry="14"/>
<text text-anchor="middle" x="-61.8136" y="48.1162" font-family="monospace" font-size="6.00">15</text>
</g>
<!-- 1&#45;&gt;0 -->
<g id="edge1" class="edge"><title>1&#45;&gt;0</title>
<path fill="none" stroke="black" d="M-73.0845,55.6471C-84.1778,64.3389 -101.128,77.6199 -112.954,86.8855"/>
<polygon fill="black" stroke="black" points="-112.044,88.3953 -117.059,90.1016 -114.202,85.6403 -112.044,88.3953"/>
<text text-anchor="middle" x="-104.519" y="69.0663" font-family="monospace" font-size="6.00">F1920S</text>
</g>
<!-- 2 -->
<g id="node3" class="node"><title>2</title>
<ellipse fill="#1874cd" stroke="black" cx="-27.3383" cy="114.823" rx="6" ry="6"/>
<text text-anchor="middle" x="-27.3383" y="116.123" font-family="monospace" font-size="6.00">3</text>
</g>
<!-- 1&#45;&gt;2 -->
<g id="edge3" class="edge"><title>1&#45;&gt;2</title>
<path fill="none" stroke="black" d="M-55.3291,59.6078C-48.7071,72.6706 -38.5599,92.6873 -32.4742,104.692"/>
<polygon fill="black" stroke="black" points="-30.8367,104.052 -30.1367,109.303 -33.9585,105.635 -30.8367,104.052"/>
<text text-anchor="middle" x="-64.9016" y="79.95" font-family="monospace" font-size="6.00">2403731:A&gt;T</text>
</g>
<!-- 5 -->
<g id="node6" class="node"><title>5</title>
<ellipse fill="olivedrab" stroke="black" cx="-75.6237" cy="-1.21801" rx="3.5" ry="3.5"/>
</g>
<!-- 1&#45;&gt;5 -->
<g id="edge7" class="edge"><title>1&#45;&gt;5</title>
<path fill="none" stroke="black" d="M-65.7341,33.18C-68.1264,24.8591 -71.1105,14.4796 -73.1716,7.31073"/>
<polygon fill="black" stroke="black" points="-74.9528,7.44857 -74.6526,2.15966 -71.5891,6.48144 -74.9528,7.44857"/>
<text text-anchor="middle" x="-78.9528" y="18.0454" font-family="monospace" font-size="6.00">R537L</text>
</g>
<!-- 6 -->
<g id="node7" class="node"><title>6</title>
<ellipse fill="olivedrab" stroke="black" cx="-108.234" cy="55.9722" rx="3.5" ry="3.5"/>
</g>
<!-- 1&#45;&gt;6 -->
<g id="edge8" class="edge"><title>1&#45;&gt;6</title>
<path fill="none" stroke="black" d="M-75.7412,49.5633C-83.4292,51.0797 -92.7439,52.9169 -99.4256,54.2349"/>
<polygon fill="black" stroke="black" points="-99.4554,56.0244 -104.7,55.2751 -100.133,52.5905 -99.4554,56.0244"/>
<text text-anchor="middle" x="-99.0834" y="49.6991" font-family="monospace" font-size="6.00">H1755Y</text>
</g>
<!-- 7 -->
<g id="node8" class="node"><title>7</title>
<ellipse fill="olivedrab" stroke="black" cx="-12.9995" cy="63.3686" rx="3.5" ry="3.5"/>
</g>
<!-- 1&#45;&gt;7 -->
<g id="edge9" class="edge"><title>1&#45;&gt;7</title>
<path fill="none" stroke="black" d="M-48.4749,51.3392C-39.837,54.2682 -28.8526,57.993 -21.4118,60.5161"/>
<polygon fill="black" stroke="black" points="-20.6833,58.9151 -16.5101,62.1782 -21.8073,62.2298 -20.6833,58.9151"/>
<text text-anchor="middle" x="-13.9434" y="53.7276" font-family="monospace" font-size="6.00">2417853:A&gt;C</text>
</g>
<!-- 9 -->
<g id="node10" class="node"><title>9</title>
<ellipse fill="olivedrab" stroke="black" cx="-70.7689" cy="94.4354" rx="3.5" ry="3.5"/>
</g>
<!-- 1&#45;&gt;9 -->
<g id="edge10" class="edge"><title>1&#45;&gt;9</title>
<path fill="none" stroke="black" d="M-64.4039,60.5896C-65.9213,68.6584 -67.7927,78.6095 -69.1124,85.627"/>
<polygon fill="black" stroke="black" points="-67.4273,86.1356 -70.0713,90.726 -70.867,85.4887 -67.4273,86.1356"/>
<text text-anchor="middle" x="-76.2581" y="70.9083" font-family="monospace" font-size="6.00">K251R</text>
</g>
<!-- anon_1_3_0 -->
<g id="node18" class="node"><title>anon_1_3_0</title>
<ellipse fill="white" stroke="black" cx="-121.34" cy="9.29447" rx="2.5" ry="2.5"/>
</g>
<!-- 1&#45;&gt;anon_1_3_0 -->
<g id="edge4" class="edge"><title>1&#45;&gt;anon_1_3_0</title>
<path fill="none" stroke="black" d="M-73.8597,39.2231C-86.1259,31.4913 -104.704,19.7807 -114.592,13.5481"/>
<polygon fill="black" stroke="black" points="-115.595,14.9849 -118.891,10.8383 -113.728,12.0241 -115.595,14.9849"/>
<text text-anchor="middle" x="-115.226" y="24.1856" font-family="monospace" font-size="6.00">2400716:A&gt;C</text>
</g>
<!-- anon_2_4_0 -->
<g id="node23" class="node"><title>anon_2_4_0</title>
<ellipse fill="white" stroke="black" cx="-11.6597" cy="162.211" rx="2.5" ry="2.5"/>
</g>
<!-- 2&#45;&gt;anon_2_4_0 -->
<g id="edge15" class="edge"><title>2&#45;&gt;anon_2_4_0</title>
<path fill="none" stroke="black" d="M-25.4158,120.634C-22.5988,129.148 -17.3448,145.028 -14.2087,154.507"/>
<polygon fill="black" stroke="black" points="-12.4796,154.162 -12.5704,159.458 -15.8024,155.261 -12.4796,154.162"/>
<text text-anchor="middle" x="-40.8122" y="135.37" font-family="monospace" font-size="6.00">2390558:G&gt;A</text>
</g>
<!-- 3 -->
<g id="node4" class="node"><title>3</title>
<ellipse fill="#1874cd" stroke="black" cx="-203.857" cy="-28.4175" rx="3.5" ry="3.5"/>
</g>
<!-- 4 -->
<g id="node5" class="node"><title>4</title>
<ellipse fill="#1874cd" stroke="black" cx="9.98984" cy="246.419" rx="3.5" ry="3.5"/>
</g>
<!-- 10 -->
<g id="node11" class="node"><title>10</title>
<ellipse fill="#1874cd" stroke="black" cx="190.52" cy="-134.732" rx="21.5" ry="21.5"/>
<text text-anchor="middle" x="190.52" y="-133.432" font-family="monospace" font-size="6.00">35</text>
</g>
<!-- 14 -->
<g id="node15" class="node"><title>14</title>
<ellipse fill="#1874cd" stroke="black" cx="218.783" cy="-196.77" rx="3.5" ry="3.5"/>
</g>
<!-- 10&#45;&gt;14 -->
<g id="edge18" class="edge"><title>10&#45;&gt;14</title>
<path fill="none" stroke="black" d="M199.463,-154.361C204.713,-165.885 211.072,-179.844 215.024,-188.518"/>
<polygon fill="black" stroke="black" points="213.476,-189.342 217.141,-193.166 216.661,-187.891 213.476,-189.342"/>
<text text-anchor="middle" x="186.243" y="-173.639" font-family="monospace" font-size="6.00">2361692:T&gt;C</text>
</g>
<!-- 15 -->
<g id="node16" class="node"><title>15</title>
<ellipse fill="#1874cd" stroke="black" cx="255.269" cy="-110.984" rx="3.5" ry="3.5"/>
</g>
<!-- 10&#45;&gt;15 -->
<g id="edge19" class="edge"><title>10&#45;&gt;15</title>
<path fill="none" stroke="black" d="M211.007,-127.218C223.28,-122.717 238.199,-117.245 247.203,-113.942"/>
<polygon fill="black" stroke="black" points="247.877,-115.559 251.969,-112.195 246.672,-112.273 247.877,-115.559"/>
<text text-anchor="middle" x="250.105" y="-122.78" font-family="monospace" font-size="6.00">2381794:G&gt;T</text>
</g>
<!-- 11 -->
<g id="node12" class="node"><title>11</title>
<ellipse fill="#1874cd" stroke="black" cx="59.741" cy="-152.158" rx="9" ry="9"/>
<text text-anchor="middle" x="59.741" y="-150.858" font-family="monospace" font-size="6.00">6</text>
</g>
<!-- 13 -->
<g id="node14" class="node"><title>13</title>
<ellipse fill="#1874cd" stroke="black" cx="46.3197" cy="-203.849" rx="3.5" ry="3.5"/>
</g>
<!-- 11&#45;&gt;13 -->
<g id="edge22" class="edge"><title>11&#45;&gt;13</title>
<path fill="none" stroke="black" d="M57.4032,-161.162C54.9154,-170.743 51.0074,-185.795 48.5582,-195.228"/>
<polygon fill="black" stroke="black" points="46.8103,-194.996 47.2475,-200.276 50.1979,-195.876 46.8103,-194.996"/>
<text text-anchor="middle" x="31.9807" y="-180.395" font-family="monospace" font-size="6.00">2383854:C&gt;A</text>
</g>
<!-- 12 -->
<g id="node13" class="node"><title>12</title>
<ellipse fill="#1874cd" stroke="black" cx="122.204" cy="-64.9397" rx="9" ry="9"/>
<text text-anchor="middle" x="122.204" y="-63.6397" font-family="monospace" font-size="6.00">6</text>
</g>
<!-- 16 -->
<g id="node17" class="node"><title>16</title>
<ellipse fill="white" stroke="black" cx="80.9963" cy="-99.6576" rx="2.5" ry="2.5"/>
</g>
<!-- 16&#45;&gt;11 -->
<g id="edge23" class="edge"><title>16&#45;&gt;11</title>
<path fill="none" stroke="black" d="M79.9711,-102.19C77.3356,-108.699 70.1773,-126.38 65.1265,-138.856"/>
<polygon fill="black" stroke="black" points="63.4963,-138.219 63.242,-143.51 66.7405,-139.533 63.4963,-138.219"/>
<text text-anchor="middle" x="61.0488" y="-122.723" font-family="monospace" font-size="6.00">S1683I</text>
</g>
<!-- 16&#45;&gt;12 -->
<g id="edge24" class="edge"><title>16&#45;&gt;12</title>
<path fill="none" stroke="black" d="M83.2118,-97.791C88.4192,-93.4037 101.723,-82.195 111.344,-74.0891"/>
<polygon fill="black" stroke="black" points="112.511,-75.394 115.208,-70.834 110.256,-72.7173 112.511,-75.394"/>
<text text-anchor="middle" x="87.778" y="-88.14" font-family="monospace" font-size="6.00">G317S</text>
</g>
<!-- anon_10_16_0 -->
<g id="node25" class="node"><title>anon_10_16_0</title>
<ellipse fill="white" stroke="black" cx="123.719" cy="-117.583" rx="2.5" ry="2.5"/>
</g>
<!-- 16&#45;&gt;anon_10_16_0 -->
<g id="edge21" class="edge"><title>16&#45;&gt;anon_10_16_0</title>
<path fill="none" stroke="black" d="M83.5409,-100.725C89.9078,-103.397 106.714,-110.448 116.455,-114.535"/>
<polygon fill="black" stroke="black" points="115.953,-116.223 121.241,-116.543 117.308,-112.995 115.953,-116.223"/>
<text text-anchor="middle" x="88.4977" y="-109.83" font-family="monospace" font-size="6.00">I1940T</text>
</g>
<!-- anon_1_3_1 -->
<g id="node19" class="node"><title>anon_1_3_1</title>
<ellipse fill="white" stroke="black" cx="-162.306" cy="-11.6025" rx="2.5" ry="2.5"/>
</g>
<!-- anon_1_3_0&#45;&gt;anon_1_3_1 -->
<g id="edge5" class="edge"><title>anon_1_3_0&#45;&gt;anon_1_3_1</title>
<path fill="none" stroke="black" d="M-124.028,7.92336C-130.337,4.70502 -146.255,-3.41476 -155.454,-8.10752"/>
<polygon fill="black" stroke="black" points="-156.312,-6.58059 -159.971,-10.4116 -154.722,-9.69837 -156.312,-6.58059"/>
<text text-anchor="middle" x="-160.741" y="-2.29208" font-family="monospace" font-size="6.00">2408043:T&gt;A</text>
</g>
<!-- anon_1_3_1&#45;&gt;3 -->
<g id="edge6" class="edge"><title>anon_1_3_1&#45;&gt;3</title>
<path fill="none" stroke="black" d="M-165.032,-12.7058C-171.069,-15.1489 -185.78,-21.1021 -195.261,-24.9387"/>
<polygon fill="black" stroke="black" points="-196.155,-23.4126 -200.133,-26.9105 -194.842,-26.657 -196.155,-23.4126"/>
<text text-anchor="middle" x="-201.146" y="-14.0223" font-family="monospace" font-size="6.00">2414435:C&gt;A</text>
</g>
<!-- anon_1_16_0 -->
<g id="node20" class="node"><title>anon_1_16_0</title>
<ellipse fill="white" stroke="black" cx="-14.1842" cy="0.195076" rx="2.5" ry="2.5"/>
</g>
<!-- anon_1_16_0&#45;&gt;1 -->
<g id="edge11" class="edge"><title>anon_1_16_0&#45;&gt;1</title>
<path fill="none" stroke="black" d="M-16.2308,2.19833C-21.6059,7.45966 -36.4885,22.0272 -47.7989,33.0981"/>
<polygon fill="black" stroke="black" points="-46.6814,34.4531 -51.4787,36.7001 -49.1297,31.9519 -46.6814,34.4531"/>
<text text-anchor="middle" x="-11.0148" y="15.4482" font-family="monospace" font-size="6.00">2358808:G&gt;C</text>
</g>
<!-- anon_1_16_1 -->
<g id="node21" class="node"><title>anon_1_16_1</title>
<ellipse fill="white" stroke="black" cx="17.1405" cy="-33.2205" rx="2.5" ry="2.5"/>
</g>
<!-- anon_1_16_0&#45;&gt;anon_1_16_1 -->
<g id="edge12" class="edge"><title>anon_1_16_0&#45;&gt;anon_1_16_1</title>
<path fill="none" stroke="black" d="M-12.1289,-1.99741C-7.34967,-7.09563 4.64014,-19.8857 11.7029,-27.4199"/>
<polygon fill="black" stroke="black" points="10.6589,-28.8651 15.3553,-31.3161 13.2124,-26.4714 10.6589,-28.8651"/>
<text text-anchor="middle" x="-21.213" y="-16.9087" font-family="monospace" font-size="6.00">2407174:T&gt;A</text>
</g>
<!-- anon_1_16_2 -->
<g id="node22" class="node"><title>anon_1_16_2</title>
<ellipse fill="white" stroke="black" cx="47.4059" cy="-66.8206" rx="2.5" ry="2.5"/>
</g>
<!-- anon_1_16_2&#45;&gt;16 -->
<g id="edge14" class="edge"><title>anon_1_16_2&#45;&gt;16</title>
<path fill="none" stroke="black" d="M49.2119,-68.5861C54.087,-73.3518 67.6673,-86.6275 75.4074,-94.1941"/>
<polygon fill="black" stroke="black" points="74.2155,-95.4762 79.0143,-97.72 76.6622,-92.9734 74.2155,-95.4762"/>
<text text-anchor="middle" x="41.3097" y="-83.5901" font-family="monospace" font-size="6.00">2426521:A&gt;T</text>
</g>
<!-- anon_1_16_2&#45;&gt;anon_1_16_1 -->
<g id="edge13" class="edge"><title>anon_1_16_2&#45;&gt;anon_1_16_1</title>
<path fill="none" stroke="black" d="M45.4201,-64.616C40.8025,-59.4896 29.2182,-46.6289 22.3943,-39.0531"/>
<polygon fill="black" stroke="black" points="23.5121,-37.6793 18.8654,-35.1355 20.9115,-40.0218 23.5121,-37.6793"/>
<text text-anchor="middle" x="12.9072" y="-54.0346" font-family="monospace" font-size="6.00">2411665:T&gt;C</text>
</g>
<!-- anon_2_4_1 -->
<g id="node24" class="node"><title>anon_2_4_1</title>
<ellipse fill="white" stroke="black" cx="-0.711844" cy="204.207" rx="2.5" ry="2.5"/>
</g>
<!-- anon_2_4_0&#45;&gt;anon_2_4_1 -->
<g id="edge16" class="edge"><title>anon_2_4_0&#45;&gt;anon_2_4_1</title>
<path fill="none" stroke="black" d="M-10.9413,164.967C-9.30255,171.253 -5.23789,186.845 -2.75379,196.374"/>
<polygon fill="black" stroke="black" points="-1.01511,196.107 -1.44716,201.386 -4.40192,196.989 -1.01511,196.107"/>
<text text-anchor="middle" x="-27.8476" y="178.47" font-family="monospace" font-size="6.00">2426280:G&gt;T</text>
</g>
<!-- anon_2_4_1&#45;&gt;4 -->
<g id="edge17" class="edge"><title>anon_2_4_1&#45;&gt;4</title>
<path fill="none" stroke="black" d="M-0.0744533,206.721C1.43015,212.656 5.26202,227.771 7.73966,237.544"/>
<polygon fill="black" stroke="black" points="9.48168,237.294 9.01414,242.571 6.089,238.154 9.48168,237.294"/>
<text text-anchor="middle" x="-17.1674" y="219.932" font-family="monospace" font-size="6.00">2428660:A&gt;G</text>
</g>
<!-- anon_10_16_0&#45;&gt;10 -->
<g id="edge20" class="edge"><title>anon_10_16_0&#45;&gt;10</title>
<path fill="none" stroke="black" d="M126.256,-118.234C132.594,-119.861 149.685,-124.249 164.65,-128.09"/>
<polygon fill="black" stroke="black" points="164.346,-129.819 169.624,-129.367 165.217,-126.429 164.346,-129.819"/>
<text text-anchor="middle" x="135.953" y="-125.362" font-family="monospace" font-size="6.00">D466H</text>
</g>
</g>
</svg>
