<?xml version="1.0" encoding="UTF-8" standalone="no"?>
<!DOCTYPE svg PUBLIC "-//W3C//DTD SVG 1.1//EN"
 "http://www.w3.org/Graphics/SVG/1.1/DTD/svg11.dtd">
<!-- Generated by graphviz version 2.38.0 (20140413.2041)
 -->
<!-- Title: %3 Pages: 1 -->
<svg width="526pt" height="320pt"
 viewBox="0.00 0.00 525.57 319.64" xmlns="http://www.w3.org/2000/svg" xmlns:xlink="http://www.w3.org/1999/xlink">
<g id="graph0" class="graph" transform="scale(1 1) rotate(0) translate(237.138 182.792)">
<title>%3</title>
<polygon fill="white" stroke="none" points="-237.138,136.843 -237.138,-182.792 288.43,-182.792 288.43,136.843 -237.138,136.843"/>
<!-- 0 -->
<g id="node1" class="node"><title>0</title>
<path fill="olivedrab" stroke="black" stroke-width="0.5" d="M-89.814,80.6739C-89.814,80.6739 -81.314,80.6739 -81.314,80.6739 -81.314,80.0664 -81.3791,79.4607 -81.5082,78.8671 -81.6374,78.2735 -81.8297,77.6954 -82.0821,77.1428 -82.3345,76.5903 -82.6453,76.0663 -83.0094,75.58 -83.3734,75.0937 -83.7886,74.6478 -84.2477,74.25 -84.7068,73.8522 -85.2072,73.5047 -85.7404,73.2136 -86.2735,72.9225 -86.8364,72.6893 -87.4192,72.5182 -88.0021,72.347 -88.6017,72.2389 -89.2076,72.1955 -89.8135,72.1522 -90.4224,72.1739 -91.0236,72.2604 -91.0236,72.2604 -89.814,80.6739 -89.814,80.6739"/>
<path fill="#1874cd" stroke="black" stroke-width="0.5" d="M-89.814,80.6739C-89.814,80.6739 -91.0236,72.2604 -91.0236,72.2604 -91.4243,72.318 -91.8203,72.4041 -92.2087,72.5182 -92.5971,72.6322 -92.9768,72.7738 -93.345,72.942 -93.7132,73.1101 -94.0689,73.3044 -94.4094,73.5232 -94.7499,73.742 -95.0744,73.9849 -95.3803,74.25 -95.6862,74.5151 -95.9728,74.8016 -96.2378,75.1075 -96.5029,75.4135 -96.7458,75.7379 -96.9646,76.0784 -97.1835,76.4189 -97.3777,76.7746 -97.5458,77.1428 -97.714,77.511 -97.8556,77.8908 -97.9697,78.2791 -98.0837,78.6675 -98.1698,79.0635 -98.2275,79.4642 -98.2851,79.8648 -98.314,80.2691 -98.314,80.6739 -98.314,81.0786 -98.2851,81.4829 -98.2275,81.8835 -98.1698,82.2842 -98.0837,82.6802 -97.9697,83.0686 -97.8556,83.457 -97.714,83.8367 -97.5458,84.2049 -97.3777,84.5731 -97.1835,84.9288 -96.9646,85.2693 -96.7458,85.6098 -96.5029,85.9343 -96.2378,86.2402 -95.9728,86.5461 -95.6862,86.8327 -95.3803,87.0977 -95.0744,87.3628 -94.7499,87.6057 -94.4094,87.8245 -94.0689,88.0434 -93.7132,88.2376 -93.345,88.4057 -92.9768,88.5739 -92.5971,88.7155 -92.2087,88.8296 -91.8203,88.9436 -91.4243,89.0297 -91.0236,89.0873 -90.623,89.1449 -90.2187,89.1739 -89.814,89.1739 -89.4092,89.1739 -89.0049,89.1449 -88.6043,89.0873 -88.2036,89.0297 -87.8076,88.9436 -87.4192,88.8296 -87.0309,88.7155 -86.6511,88.5739 -86.2829,88.4057 -85.9148,88.2376 -85.559,88.0434 -85.2185,87.8245 -84.878,87.6057 -84.5536,87.3628 -84.2477,87.0977 -83.9417,86.8327 -83.6552,86.5461 -83.3901,86.2402 -83.125,85.9343 -82.8822,85.6098 -82.6633,85.2693 -82.4445,84.9288 -82.2502,84.5731 -82.0821,84.2049 -81.914,83.8367 -81.7723,83.457 -81.6583,83.0686 -81.5442,82.6802 -81.4581,82.2842 -81.4005,81.8835 -81.3429,81.4829 -81.314,81.0786 -81.314,80.6739 -81.314,80.6739 -89.814,80.6739 -89.814,80.6739"/>
<ellipse fill="none" stroke="black" cx="-89.814" cy="80.6739" rx="8.5" ry="8.5"/>
<text text-anchor="middle" x="-89.814" y="81.9739" font-family="monospace" font-size="6.00">11</text>
</g>
<!-- 8 -->
<g id="node9" class="node"><title>8</title>
<ellipse fill="olivedrab" stroke="black" cx="-105.366" cy="130.343" rx="2.5" ry="2.5"/>
</g>
<!-- 0&#45;&gt;8 -->
<g id="edge2" class="edge"><title>0&#45;&gt;8</title>
<path fill="none" stroke="black" d="M-92.382,88.8757C-95.3261,98.2783 -100.113,113.568 -102.979,122.72"/>
<polygon fill="black" stroke="black" points="-101.382,123.476 -104.546,127.725 -104.722,122.43 -101.382,123.476"/>
<text text-anchor="middle" x="-119.519" y="106.277" font-family="monospace" font-size="6.00">2408941:T&gt;C</text>
</g>
<!-- 1 -->
<g id="node2" class="node"><title>1</title>
<path fill="olivedrab" stroke="black" stroke-width="0.5" d="M-70.8396,6.2567C-70.8396,6.2567 -60.8396,6.2567 -60.8396,6.2567 -60.8396,5.55793 -60.9128,4.86108 -61.0581,4.17759 -61.2034,3.49409 -61.4199,2.82769 -61.7041,2.18934 -61.9883,1.55098 -62.3387,0.944165 -62.7494,0.378849 -63.1601,-0.186467 -63.629,-0.707179 -64.1483,-1.17475 -64.6676,-1.64231 -65.2344,-2.05417 -65.8396,-2.40355 -66.4447,-2.75294 -67.0848,-3.03793 -67.7494,-3.25386 -68.414,-3.46979 -69.0994,-3.61548 -69.7943,-3.68852 -70.4892,-3.76156 -71.1899,-3.76156 -71.8849,-3.68852 -72.5798,-3.61548 -73.2652,-3.46979 -73.9298,-3.25386 -74.5943,-3.03793 -75.2344,-2.75294 -75.8396,-2.40355 -76.4447,-2.05417 -77.0116,-1.64231 -77.5309,-1.17475 -78.0502,-0.707178 -78.519,-0.186466 -78.9298,0.378851 -79.3405,0.944167 -79.6908,1.55098 -79.975,2.18934 -80.2593,2.82769 -80.4758,3.49409 -80.6211,4.17759 -80.7663,4.86109 -80.8396,5.55793 -80.8396,6.2567 -80.8396,6.95547 -80.7663,7.65232 -80.6211,8.33582 -80.6211,8.33582 -70.8396,6.2567 -70.8396,6.2567"/>
<path fill="#1874cd" stroke="black" stroke-width="0.5" d="M-70.8396,6.2567C-70.8396,6.2567 -80.6211,8.33582 -80.6211,8.33582 -80.494,8.93375 -80.3123,9.51878 -80.0784,10.0835 -79.8444,10.6483 -79.5592,11.1904 -79.2263,11.7031 -78.8934,12.2158 -78.5141,12.6968 -78.0933,13.1402 -77.6725,13.5837 -77.212,13.9876 -76.7174,14.3469 -76.2229,14.7062 -75.6964,15.0194 -75.1447,15.2826 -74.593,15.5457 -74.0182,15.7577 -73.4278,15.916 -72.8373,16.0742 -72.2336,16.1779 -71.6242,16.2259 -71.0148,16.2738 -70.4022,16.2658 -69.7943,16.2019 -69.1864,16.138 -68.5856,16.0185 -67.9994,15.8449 -67.4133,15.6713 -66.8443,15.4443 -66.2997,15.1668 -65.755,14.8892 -65.2369,14.5624 -64.752,14.1902 -64.267,13.8181 -63.8172,13.4023 -63.4081,12.948 -62.9991,12.4937 -62.6326,12.0029 -62.3132,11.4817 -61.9938,10.9605 -61.7228,10.4111 -61.5038,9.84038 -61.2847,9.26969 -61.1184,8.68011 -61.007,8.07906 -60.8956,7.478 -60.8396,6.86799 -60.8396,6.2567 -60.8396,6.2567 -70.8396,6.2567 -70.8396,6.2567"/>
<ellipse fill="none" stroke="black" cx="-70.8396" cy="6.2567" rx="10" ry="10"/>
<text text-anchor="middle" x="-70.8396" y="7.5567" font-family="monospace" font-size="6.00">15</text>
</g>
<!-- 1&#45;&gt;0 -->
<g id="edge1" class="edge"><title>1&#45;&gt;0</title>
<path fill="none" stroke="black" d="M-73.3202,15.9854C-76.6483,29.0384 -82.5757,52.2855 -86.3448,67.0678"/>
<polygon fill="black" stroke="black" points="-84.6958,67.6838 -87.6269,72.0964 -88.0873,66.819 -84.6958,67.6838"/>
<text text-anchor="middle" x="-91.9456" y="48.7315" font-family="monospace" font-size="6.00">F1920S</text>
</g>
<!-- 2 -->
<g id="node3" class="node"><title>2</title>
<ellipse fill="#1874cd" stroke="black" cx="-79.5858" cy="-59.6579" rx="4.5" ry="4.5"/>
<text text-anchor="middle" x="-79.5858" y="-58.3579" font-family="monospace" font-size="6.00">3</text>
</g>
<!-- 1&#45;&gt;2 -->
<g id="edge3" class="edge"><title>1&#45;&gt;2</title>
<path fill="none" stroke="black" d="M-72.168,-3.7543C-73.8271,-16.2581 -76.647,-37.5098 -78.2905,-49.896"/>
<polygon fill="black" stroke="black" points="-80.0697,-50.0004 -78.9926,-55.1872 -76.6001,-50.4608 -80.0697,-50.0004"/>
<text text-anchor="middle" x="-96.5492" y="-31.4363" font-family="monospace" font-size="6.00">2403731:A&gt;T</text>
</g>
<!-- 5 -->
<g id="node6" class="node"><title>5</title>
<ellipse fill="olivedrab" stroke="black" cx="-93.5902" cy="-26.892" rx="2.5" ry="2.5"/>
</g>
<!-- 1&#45;&gt;5 -->
<g id="edge7" class="edge"><title>1&#45;&gt;5</title>
<path fill="none" stroke="black" d="M-76.5805,-2.10811C-80.3716,-7.63188 -85.2797,-14.7832 -88.8486,-19.9833"/>
<polygon fill="black" stroke="black" points="-90.4937,-19.2877 -91.8802,-24.4005 -87.608,-21.2682 -90.4937,-19.2877"/>
<text text-anchor="middle" x="-93.6997" y="-15.4095" font-family="monospace" font-size="6.00">R537L</text>
</g>
<!-- 6 -->
<g id="node7" class="node"><title>6</title>
<ellipse fill="olivedrab" stroke="black" cx="-102.675" cy="38.511" rx="2.5" ry="2.5"/>
</g>
<!-- 1&#45;&gt;6 -->
<g id="edge8" class="edge"><title>1&#45;&gt;6</title>
<path fill="none" stroke="black" d="M-77.9049,13.415C-83.6294,19.2148 -91.5936,27.2837 -96.931,32.6913"/>
<polygon fill="black" stroke="black" points="-95.9318,34.1702 -100.69,36.4994 -98.4228,31.7115 -95.9318,34.1702"/>
<text text-anchor="middle" x="-100.952" y="22.9137" font-family="monospace" font-size="6.00">H1755Y</text>
</g>
<!-- 7 -->
<g id="node8" class="node"><title>7</title>
<ellipse fill="olivedrab" stroke="black" cx="-39.4976" cy="30.6528" rx="2.5" ry="2.5"/>
</g>
<!-- 1&#45;&gt;7 -->
<g id="edge9" class="edge"><title>1&#45;&gt;7</title>
<path fill="none" stroke="black" d="M-62.9307,12.4129C-57.708,16.4781 -50.9465,21.7412 -46.0298,25.5682"/>
<polygon fill="black" stroke="black" points="-44.7241,24.3669 -41.8534,28.8191 -46.8739,27.1288 -44.7241,24.3669"/>
<text text-anchor="middle" x="-31.4343" y="18.383" font-family="monospace" font-size="6.00">2417853:A&gt;C</text>
</g>
<!-- 9 -->
<g id="node10" class="node"><title>9</title>
<ellipse fill="olivedrab" stroke="black" cx="-55.884" cy="57.7638" rx="2.5" ry="2.5"/>
</g>
<!-- 1&#45;&gt;9 -->
<g id="edge10" class="edge"><title>1&#45;&gt;9</title>
<path fill="none" stroke="black" d="M-67.956,16.1878C-65.0594,26.1636 -60.6613,41.3108 -58.05,50.3043"/>
<polygon fill="black" stroke="black" points="-56.3394,49.9199 -56.6257,55.2096 -59.7006,50.8959 -56.3394,49.9199"/>
<text text-anchor="middle" x="-71.8944" y="33.1419" font-family="monospace" font-size="6.00">K251R</text>
</g>
<!-- anon_1_3_0 -->
<g id="node18" class="node"><title>anon_1_3_0</title>
<ellipse fill="white" stroke="black" cx="-129.927" cy="8.07146" rx="1" ry="1"/>
</g>
<!-- 1&#45;&gt;anon_1_3_0 -->
<g id="edge4" class="edge"><title>1&#45;&gt;anon_1_3_0</title>
<path fill="none" stroke="black" d="M-80.8629,6.56455C-92.963,6.93618 -112.97,7.55068 -123.3,7.86793"/>
<polygon fill="black" stroke="black" points="-123.458,9.62353 -128.51,8.02794 -123.566,6.12518 -123.458,9.62353"/>
<text text-anchor="middle" x="-125.933" y="5.10382" font-family="monospace" font-size="6.00">2400716:A&gt;C</text>
</g>
<!-- anon_2_4_0 -->
<g id="node23" class="node"><title>anon_2_4_0</title>
<ellipse fill="white" stroke="black" cx="-98.3907" cy="-102.732" rx="1" ry="1"/>
</g>
<!-- 2&#45;&gt;anon_2_4_0 -->
<g id="edge15" class="edge"><title>2&#45;&gt;anon_2_4_0</title>
<path fill="none" stroke="black" d="M-81.4577,-63.9454C-84.8392,-71.6912 -91.9711,-88.0274 -95.8117,-96.8246"/>
<polygon fill="black" stroke="black" points="-97.4614,-96.2297 -97.8582,-101.512 -94.2538,-97.6301 -97.4614,-96.2297"/>
<text text-anchor="middle" x="-110.722" y="-85.0764" font-family="monospace" font-size="6.00">2390558:G&gt;A</text>
</g>
<!-- 3 -->
<g id="node4" class="node"><title>3</title>
<ellipse fill="#1874cd" stroke="black" cx="-212.376" cy="24.7389" rx="2.5" ry="2.5"/>
</g>
<!-- 4 -->
<g id="node5" class="node"><title>4</title>
<ellipse fill="#1874cd" stroke="black" cx="-134.927" cy="-176.292" rx="2.5" ry="2.5"/>
</g>
<!-- 10 -->
<g id="node11" class="node"><title>10</title>
<ellipse fill="#1874cd" stroke="black" cx="208.136" cy="50.8316" rx="15" ry="15"/>
<text text-anchor="middle" x="208.136" y="52.1316" font-family="monospace" font-size="6.00">35</text>
</g>
<!-- 14 -->
<g id="node15" class="node"><title>14</title>
<ellipse fill="#1874cd" stroke="black" cx="264.789" cy="31.1624" rx="2.5" ry="2.5"/>
</g>
<!-- 10&#45;&gt;14 -->
<g id="edge18" class="edge"><title>10&#45;&gt;14</title>
<path fill="none" stroke="black" d="M222.432,45.8682C233.512,42.0216 248.422,36.8449 257.277,33.7705"/>
<polygon fill="black" stroke="black" points="257.021,32.007 262.319,32.0202 258.169,35.3134 257.021,32.007"/>
<text text-anchor="middle" x="263.43" y="43.7254" font-family="monospace" font-size="6.00">2361692:T&gt;C</text>
</g>
<!-- 15 -->
<g id="node16" class="node"><title>15</title>
<ellipse fill="#1874cd" stroke="black" cx="231.828" cy="106.735" rx="2.5" ry="2.5"/>
</g>
<!-- 10&#45;&gt;15 -->
<g id="edge19" class="edge"><title>10&#45;&gt;15</title>
<path fill="none" stroke="black" d="M213.993,64.6504C218.624,75.5789 224.914,90.419 228.653,99.2434"/>
<polygon fill="black" stroke="black" points="230.444,98.983 230.784,104.27 227.221,100.349 230.444,98.983"/>
<text text-anchor="middle" x="201.391" y="82.2659" font-family="monospace" font-size="6.00">2381794:G&gt;T</text>
</g>
<!-- 11 -->
<g id="node12" class="node"><title>11</title>
<ellipse fill="#1874cd" stroke="black" cx="139.356" cy="-46.3206" rx="6" ry="6"/>
<text text-anchor="middle" x="139.356" y="-45.0206" font-family="monospace" font-size="6.00">6</text>
</g>
<!-- 13 -->
<g id="node14" class="node"><title>13</title>
<ellipse fill="#1874cd" stroke="black" cx="165.578" cy="-88.2214" rx="2.5" ry="2.5"/>
</g>
<!-- 11&#45;&gt;13 -->
<g id="edge22" class="edge"><title>11&#45;&gt;13</title>
<path fill="none" stroke="black" d="M142.571,-51.4584C147.282,-58.9868 156.069,-73.0279 161.314,-81.4092"/>
<polygon fill="black" stroke="black" points="159.918,-82.4774 164.054,-85.7875 162.885,-80.6207 159.918,-82.4774"/>
<text text-anchor="middle" x="132.357" y="-70.8936" font-family="monospace" font-size="6.00">2383854:C&gt;A</text>
</g>
<!-- 12 -->
<g id="node13" class="node"><title>12</title>
<ellipse fill="#1874cd" stroke="black" cx="120.338" cy="49.9501" rx="6" ry="6"/>
<text text-anchor="middle" x="120.338" y="51.2501" font-family="monospace" font-size="6.00">6</text>
</g>
<!-- 16 -->
<g id="node17" class="node"><title>16</title>
<ellipse fill="white" stroke="black" cx="117.983" cy="0.809319" rx="1" ry="1"/>
</g>
<!-- 16&#45;&gt;11 -->
<g id="edge23" class="edge"><title>16&#45;&gt;11</title>
<path fill="none" stroke="black" d="M118.511,-0.355696C120.716,-5.21773 129.322,-24.1942 134.762,-36.1919"/>
<polygon fill="black" stroke="black" points="133.214,-37.0142 136.873,-40.8451 136.401,-35.5686 133.214,-37.0142"/>
<text text-anchor="middle" x="116.159" y="-22.7285" font-family="monospace" font-size="6.00">S1683I</text>
</g>
<!-- 16&#45;&gt;12 -->
<g id="edge24" class="edge"><title>16&#45;&gt;12</title>
<path fill="none" stroke="black" d="M118.041,2.02404C118.28,6.997 119.197,26.1315 119.797,38.667"/>
<polygon fill="black" stroke="black" points="121.556,38.8095 120.047,43.8876 118.06,38.9771 121.556,38.8095"/>
<text text-anchor="middle" x="109.54" y="20.6754" font-family="monospace" font-size="6.00">G317S</text>
</g>
<!-- anon_10_16_0 -->
<g id="node25" class="node"><title>anon_10_16_0</title>
<ellipse fill="white" stroke="black" cx="157.456" cy="18.6788" rx="1" ry="1"/>
</g>
<!-- 16&#45;&gt;anon_10_16_0 -->
<g id="edge21" class="edge"><title>16&#45;&gt;anon_10_16_0</title>
<path fill="none" stroke="black" d="M118.959,1.25104C123.363,3.24498 141.598,11.4998 151.307,15.8952"/>
<polygon fill="black" stroke="black" points="152.217,14.3864 156.051,18.0428 150.774,17.5749 152.217,14.3864"/>
<text text-anchor="middle" x="125.859" y="7.38088" font-family="monospace" font-size="6.00">I1940T</text>
</g>
<!-- anon_1_3_1 -->
<g id="node19" class="node"><title>anon_1_3_1</title>
<ellipse fill="white" stroke="black" cx="-171.629" cy="15.3904" rx="1" ry="1"/>
</g>
<!-- anon_1_3_0&#45;&gt;anon_1_3_1 -->
<g id="edge5" class="edge"><title>anon_1_3_0&#45;&gt;anon_1_3_1</title>
<path fill="none" stroke="black" d="M-130.957,8.25238C-135.611,9.06905 -154.875,12.4501 -165.133,14.2503"/>
<polygon fill="black" stroke="black" points="-164.918,15.9892 -170.145,15.1299 -165.523,12.5419 -164.918,15.9892"/>
<text text-anchor="middle" x="-171.397" y="9.46411" font-family="monospace" font-size="6.00">2408043:T&gt;A</text>
</g>
<!-- anon_1_3_1&#45;&gt;3 -->
<g id="edge6" class="edge"><title>anon_1_3_1&#45;&gt;3</title>
<path fill="none" stroke="black" d="M-172.636,15.6215C-176.98,16.6181 -194.354,20.6042 -204.636,22.9631"/>
<polygon fill="black" stroke="black" points="-204.454,24.7167 -209.718,24.1292 -205.236,21.3053 -204.454,24.7167"/>
<text text-anchor="middle" x="-212.138" y="17.6663" font-family="monospace" font-size="6.00">2414435:C&gt;A</text>
</g>
<!-- anon_1_16_0 -->
<g id="node20" class="node"><title>anon_1_16_0</title>
<ellipse fill="white" stroke="black" cx="-11.1708" cy="-5.43433" rx="1" ry="1"/>
</g>
<!-- anon_1_16_0&#45;&gt;1 -->
<g id="edge11" class="edge"><title>anon_1_16_0&#45;&gt;1</title>
<path fill="none" stroke="black" d="M-12.2064,-5.23141C-17.323,-4.22891 -40.2813,0.269347 -55.905,3.33054"/>
<polygon fill="black" stroke="black" points="-55.6427,5.06236 -60.886,4.30647 -56.3158,1.62766 -55.6427,5.06236"/>
<text text-anchor="middle" x="-15.15" y="4.25989" font-family="monospace" font-size="6.00">2358808:G&gt;C</text>
</g>
<!-- anon_1_16_1 -->
<g id="node21" class="node"><title>anon_1_16_1</title>
<ellipse fill="white" stroke="black" cx="31.9909" cy="-3.59249" rx="1" ry="1"/>
</g>
<!-- anon_1_16_0&#45;&gt;anon_1_16_1 -->
<g id="edge12" class="edge"><title>anon_1_16_0&#45;&gt;anon_1_16_1</title>
<path fill="none" stroke="black" d="M-10.1039,-5.3888C-5.28771,-5.18328 14.651,-4.33243 25.2676,-3.87939"/>
<polygon fill="black" stroke="black" points="25.5339,-5.61971 30.4548,-3.65804 25.3847,-2.12289 25.5339,-5.61971"/>
<text text-anchor="middle" x="31.016" y="-6.73023" font-family="monospace" font-size="6.00">2407174:T&gt;A</text>
</g>
<!-- anon_1_16_2 -->
<g id="node22" class="node"><title>anon_1_16_2</title>
<ellipse fill="white" stroke="black" cx="74.2211" cy="-1.86958" rx="1" ry="1"/>
</g>
<!-- anon_1_16_2&#45;&gt;16 -->
<g id="edge14" class="edge"><title>anon_1_16_2&#45;&gt;16</title>
<path fill="none" stroke="black" d="M75.3028,-1.80336C80.186,-1.50444 100.402,-0.266909 111.166,0.392028"/>
<polygon fill="black" stroke="black" points="111.542,-1.33835 116.426,0.713976 111.328,2.15511 111.542,-1.33835"/>
<text text-anchor="middle" x="74.7025" y="4.24541" font-family="monospace" font-size="6.00">2426521:A&gt;T</text>
</g>
<!-- anon_1_16_2&#45;&gt;anon_1_16_1 -->
<g id="edge13" class="edge"><title>anon_1_16_2&#45;&gt;anon_1_16_1</title>
<path fill="none" stroke="black" d="M73.1772,-1.91217C68.465,-2.10442 48.9566,-2.90032 38.5691,-3.32411"/>
<polygon fill="black" stroke="black" points="38.4184,-1.57871 33.4939,-3.53117 38.5611,-5.0758 38.4184,-1.57871"/>
<text text-anchor="middle" x="32.4916" y="2.0847" font-family="monospace" font-size="6.00">2411665:T&gt;C</text>
</g>
<!-- anon_2_4_1 -->
<g id="node24" class="node"><title>anon_2_4_1</title>
<ellipse fill="white" stroke="black" cx="-116.003" cy="-139.556" rx="1" ry="1"/>
</g>
<!-- anon_2_4_0&#45;&gt;anon_2_4_1 -->
<g id="edge16" class="edge"><title>anon_2_4_0&#45;&gt;anon_2_4_1</title>
<path fill="none" stroke="black" d="M-98.826,-103.642C-100.773,-107.712 -108.775,-124.442 -113.136,-133.561"/>
<polygon fill="black" stroke="black" points="-114.798,-132.98 -115.376,-138.245 -111.64,-134.49 -114.798,-132.98"/>
<text text-anchor="middle" x="-127.936" y="-122.799" font-family="monospace" font-size="6.00">2426280:G&gt;T</text>
</g>
<!-- anon_2_4_1&#45;&gt;4 -->
<g id="edge17" class="edge"><title>anon_2_4_1&#45;&gt;4</title>
<path fill="none" stroke="black" d="M-116.471,-140.464C-118.488,-144.38 -126.557,-160.044 -131.332,-169.314"/>
<polygon fill="black" stroke="black" points="-132.959,-168.65 -133.693,-173.896 -129.847,-170.253 -132.959,-168.65"/>
<text text-anchor="middle" x="-146.064" y="-159.345" font-family="monospace" font-size="6.00">2428660:A&gt;G</text>
</g>
<!-- anon_10_16_0&#45;&gt;10 -->
<g id="edge20" class="edge"><title>anon_10_16_0&#45;&gt;10</title>
<path fill="none" stroke="black" d="M158.335,19.2368C162.175,21.6729 177.845,31.6143 190.596,39.7036"/>
<polygon fill="black" stroke="black" points="191.85,38.4265 195.134,42.5828 189.975,41.3819 191.85,38.4265"/>
<text text-anchor="middle" x="167.206" y="28.6918" font-family="monospace" font-size="6.00">D466H</text>
</g>
</g>
</svg>
