<?xml version="1.0" encoding="UTF-8" standalone="no"?>
<!DOCTYPE svg PUBLIC "-//W3C//DTD SVG 1.1//EN"
 "http://www.w3.org/Graphics/SVG/1.1/DTD/svg11.dtd">
<!-- Generated by graphviz version 2.38.0 (20140413.2041)
 -->
<!-- Title: %3 Pages: 1 -->
<svg width="158pt" height="176pt"
 viewBox="0.00 0.00 158.28 176.24" xmlns="http://www.w3.org/2000/svg" xmlns:xlink="http://www.w3.org/1999/xlink">
<g id="graph0" class="graph" transform="scale(1 1) rotate(0) translate(87.6808 87.1504)">
<title>%3</title>
<polygon fill="white" stroke="none" points="-87.6808,89.0917 -87.6808,-87.1504 70.6006,-87.1504 70.6006,89.0917 -87.6808,89.0917"/>
<!-- 0 -->
<g id="node1" class="node"><title>0</title>
<ellipse fill="#1874cd" stroke="black" cx="-0.505244" cy="-0.342092" rx="11.5" ry="11.5"/>
<text text-anchor="middle" x="-0.505244" y="0.957908" font-family="monospace" font-size="6.00">10</text>
</g>
<!-- 2 -->
<g id="node3" class="node"><title>2</title>
<ellipse fill="#1874cd" stroke="black" cx="47.5438" cy="33.142" rx="3.5" ry="3.5"/>
</g>
<!-- 0&#45;&gt;2 -->
<g id="edge3" class="edge"><title>0&#45;&gt;2</title>
<path fill="none" stroke="black" d="M9.21819,6.43391C18.3017,12.764 31.6737,22.0826 39.9831,27.8731"/>
<polygon fill="black" stroke="black" points="41.3173,26.6699 44.4189,30.9644 39.3162,29.5414 41.3173,26.6699"/>
<text text-anchor="middle" x="45.6006" y="14.9535" font-family="monospace" font-size="6.00">2366732:C&gt;A</text>
</g>
<!-- 3 -->
<g id="node4" class="node"><title>3</title>
<ellipse fill="#1874cd" stroke="black" cx="-48.5822" cy="-33.893" rx="3.5" ry="3.5"/>
</g>
<!-- 0&#45;&gt;3 -->
<g id="edge4" class="edge"><title>0&#45;&gt;3</title>
<path fill="none" stroke="black" d="M-10.2343,-7.13162C-19.3231,-13.4743 -32.7029,-22.8115 -41.017,-28.6136"/>
<polygon fill="black" stroke="black" points="-42.3567,-27.4145 -45.4555,-31.711 -40.3537,-30.2847 -42.3567,-27.4145"/>
<text text-anchor="middle" x="-46.6257" y="-20.0726" font-family="monospace" font-size="6.00">2385769:G&gt;T</text>
</g>
<!-- anon_0_1_0 -->
<g id="node6" class="node"><title>anon_0_1_0</title>
<ellipse fill="white" stroke="black" cx="30.771" cy="-45.3822" rx="2.5" ry="2.5"/>
</g>
<!-- 0&#45;&gt;anon_0_1_0 -->
<g id="edge1" class="edge"><title>0&#45;&gt;anon_0_1_0</title>
<path fill="none" stroke="black" d="M6.12763,-9.89395C12.1884,-18.622 20.9868,-31.2923 26.267,-38.8961"/>
<polygon fill="black" stroke="black" points="24.9941,-40.1314 29.2835,-43.2402 27.869,-38.1351 24.9941,-40.1314"/>
<text text-anchor="middle" x="-4.80271" y="-26.595" font-family="monospace" font-size="6.00">2392697:G&gt;A</text>
</g>
<!-- anon_0_4_0 -->
<g id="node7" class="node"><title>anon_0_4_0</title>
<ellipse fill="white" stroke="black" cx="-32.0143" cy="44.534" rx="2.5" ry="2.5"/>
</g>
<!-- 0&#45;&gt;anon_0_4_0 -->
<g id="edge5" class="edge"><title>0&#45;&gt;anon_0_4_0</title>
<path fill="none" stroke="black" d="M-7.18749,9.17498C-13.2934,17.8712 -22.1573,30.4954 -27.4767,38.0715"/>
<polygon fill="black" stroke="black" points="-26.2103,39.3133 -30.5157,42.3997 -29.0747,37.3021 -26.2103,39.3133"/>
<text text-anchor="middle" x="-38.3321" y="21.4233" font-family="monospace" font-size="6.00">2366788:C&gt;T</text>
</g>
<!-- 1 -->
<g id="node2" class="node"><title>1</title>
<ellipse fill="#1874cd" stroke="black" cx="57.4847" cy="-79.6504" rx="3.5" ry="3.5"/>
</g>
<!-- 4 -->
<g id="node5" class="node"><title>4</title>
<ellipse fill="#1874cd" stroke="black" cx="-54.6978" cy="81.5917" rx="3.5" ry="3.5"/>
</g>
<!-- anon_0_1_0&#45;&gt;1 -->
<g id="edge2" class="edge"><title>anon_0_1_0&#45;&gt;1</title>
<path fill="none" stroke="black" d="M32.5237,-47.6307C36.3687,-52.563 45.6865,-64.5158 51.7862,-72.3404"/>
<polygon fill="black" stroke="black" points="50.6362,-73.7117 55.0905,-76.5791 53.3966,-71.5598 50.6362,-73.7117"/>
<text text-anchor="middle" x="21.1549" y="-62.1855" font-family="monospace" font-size="6.00">2407710:C&gt;T</text>
</g>
<!-- anon_0_4_0&#45;&gt;4 -->
<g id="edge6" class="edge"><title>anon_0_4_0&#45;&gt;4</title>
<path fill="none" stroke="black" d="M-33.5026,46.9655C-36.7675,52.2993 -44.6795,65.2251 -49.859,73.6866"/>
<polygon fill="black" stroke="black" points="-48.5618,74.9196 -52.6648,78.2704 -51.547,73.0923 -48.5618,74.9196"/>
<text text-anchor="middle" x="-62.6808" y="58.126" font-family="monospace" font-size="6.00">2428746:A&gt;T</text>
</g>
</g>
</svg>
