<?xml version="1.0" encoding="UTF-8" standalone="no"?>
<!DOCTYPE svg PUBLIC "-//W3C//DTD SVG 1.1//EN"
 "http://www.w3.org/Graphics/SVG/1.1/DTD/svg11.dtd">
<!-- Generated by graphviz version 2.38.0 (20140413.2041)
 -->
<!-- Title: %3 Pages: 1 -->
<svg width="326pt" height="211pt"
 viewBox="0.00 0.00 325.95 210.86" xmlns="http://www.w3.org/2000/svg" xmlns:xlink="http://www.w3.org/1999/xlink">
<g id="graph0" class="graph" transform="scale(1 1) rotate(0) translate(150.086 96.0074)">
<title>%3</title>
<polygon fill="white" stroke="none" points="-150.086,114.854 -150.086,-96.0074 175.866,-96.0074 175.866,114.854 -150.086,114.854"/>
<!-- 0 -->
<g id="node1" class="node"><title>0</title>
<path fill="#1874cd" stroke="black" stroke-width="0.5" d="M-75.4325,61.7237C-75.4325,61.7237 -63.4325,61.7237 -63.4325,61.7237 -63.4325,61.1523 -63.4733,60.5815 -63.5547,60.0159 -63.636,59.4503 -63.7576,58.8912 -63.9186,58.3429 -64.0796,57.7946 -64.2796,57.2585 -64.5169,56.7387 -64.7543,56.2189 -65.0285,55.7167 -65.3375,55.236 -65.6464,54.7553 -65.9893,54.2972 -66.3635,53.8654 -66.7377,53.4335 -67.1423,53.0289 -67.5742,52.6547 -68.0061,52.2805 -68.4641,51.9376 -68.9448,51.6287 -69.4256,51.3197 -69.9277,51.0455 -70.4475,50.8081 -70.9673,50.5707 -71.5034,50.3708 -72.0517,50.2098 -72.6,50.0488 -73.1591,49.9272 -73.7247,49.8458 -74.2904,49.7645 -74.8611,49.7237 -75.4325,49.7237 -76.004,49.7237 -76.5747,49.7645 -77.1403,49.8458 -77.7059,49.9272 -78.265,50.0488 -78.8133,50.2098 -79.3616,50.3708 -79.8977,50.5707 -80.4175,50.8081 -80.9373,51.0455 -81.4395,51.3197 -81.9202,51.6287 -82.4009,51.9376 -82.859,52.2805 -83.2909,52.6547 -83.7227,53.0289 -84.1273,53.4335 -84.5015,53.8654 -84.8757,54.2972 -85.2186,54.7553 -85.5276,55.236 -85.8365,55.7167 -86.1107,56.2189 -86.3481,56.7387 -86.5855,57.2585 -86.7854,57.7946 -86.9464,58.3429 -87.1074,58.8912 -87.2291,59.4503 -87.3104,60.0159 -87.3917,60.5815 -87.4325,61.1523 -87.4325,61.7237 -87.4325,62.2951 -87.3917,62.8659 -87.3104,63.4315 -87.2291,63.9971 -87.1074,64.5562 -86.9464,65.1045 -86.7854,65.6528 -86.5855,66.1889 -86.3481,66.7087 -86.1107,67.2285 -85.8365,67.7307 -85.5276,68.2114 -85.2186,68.6921 -84.8757,69.1502 -84.5015,69.582 -84.1273,70.0139 -83.7227,70.4185 -83.2909,70.7927 -82.859,71.1669 -82.4009,71.5098 -81.9202,71.8187 -81.4395,72.1277 -80.9373,72.4019 -80.4175,72.6393 -79.8977,72.8767 -79.3616,73.0766 -78.8133,73.2376 -78.265,73.3986 -77.7059,73.5202 -77.1403,73.6016 -77.1403,73.6016 -75.4325,61.7237 -75.4325,61.7237"/>
<path fill="olivedrab" stroke="black" stroke-width="0.5" d="M-75.4325,61.7237C-75.4325,61.7237 -77.1403,73.6016 -77.1403,73.6016 -76.7162,73.6625 -76.2891,73.7008 -75.8608,73.7161 -75.4326,73.7313 -75.0039,73.7237 -74.5765,73.6931 -74.149,73.6626 -73.7236,73.6091 -73.3019,73.533 -72.8802,73.457 -72.4629,73.3583 -72.0517,73.2376 -71.6406,73.1169 -71.2362,72.9742 -70.8403,72.8103 -70.4444,72.6463 -70.0576,72.4612 -69.6815,72.2558 -69.3054,72.0505 -68.9406,71.8251 -68.5887,71.5807 -68.2367,71.3364 -67.898,71.0733 -67.5742,70.7927 -67.2504,70.5121 -66.9418,70.2143 -66.6498,69.9007 -66.3578,69.5871 -66.0828,69.2581 -65.826,68.915 -65.5692,68.572 -65.331,68.2155 -65.1124,67.8469 -64.8937,67.4784 -64.6949,67.0985 -64.5169,66.7087 -64.3389,66.3189 -64.1819,65.9199 -64.0466,65.5133 -63.9113,65.1067 -63.7978,64.6932 -63.7068,64.2745 -63.6157,63.8558 -63.5471,63.4325 -63.5013,63.0064 -63.4555,62.5804 -63.4325,62.1522 -63.4325,61.7237 -63.4325,61.7237 -75.4325,61.7237 -75.4325,61.7237"/>
<ellipse fill="none" stroke="black" cx="-75.4325" cy="61.7237" rx="12" ry="12"/>
<text text-anchor="middle" x="-75.4325" y="63.0237" font-family="monospace" font-size="6.00">11</text>
</g>
<!-- 8 -->
<g id="node9" class="node"><title>8</title>
<ellipse fill="olivedrab" stroke="black" cx="-108.586" cy="107.354" rx="3.5" ry="3.5"/>
</g>
<!-- 0&#45;&gt;8 -->
<g id="edge2" class="edge"><title>0&#45;&gt;8</title>
<path fill="none" stroke="black" d="M-82.7904,71.8505C-89.1096,80.5477 -98.0495,92.8519 -103.574,100.455"/>
<polygon fill="black" stroke="black" points="-102.164,101.492 -106.519,104.508 -104.995,99.4342 -102.164,101.492"/>
<text text-anchor="middle" x="-114.182" y="83.9529" font-family="monospace" font-size="6.00">2408941:T&gt;C</text>
</g>
<!-- 1 -->
<g id="node2" class="node"><title>1</title>
<path fill="#1874cd" stroke="black" stroke-width="0.5" d="M-10.7071,17.0785C-10.7071,17.0785 3.2929,17.0785 3.2929,17.0785 3.2929,16.2227 3.21442,15.3687 3.05846,14.5272 2.90251,13.6857 2.66972,12.8603 2.36302,12.0613 2.05633,11.2624 1.67702,10.4932 1.22986,9.76351 0.782699,9.03382 0.269572,8.34666 -0.303076,7.71067 -0.875724,7.07468 -1.50548,6.49253 -2.18444,5.97155 -2.8634,5.45056 -3.58871,4.99293 -4.35124,4.6044 -5.11377,4.21587 -5.91032,3.89808 -6.73089,3.65502 -7.55146,3.41195 -8.39258,3.24464 -9.24371,3.15519 -10.0948,3.06573 -10.9524,3.05451 -11.8055,3.12165 -12.6587,3.1888 -13.5039,3.33403 -14.3306,3.55553 -15.1572,3.77703 -15.9618,4.07386 -16.7343,4.4423 -17.5067,4.81074 -18.2437,5.24922 -18.9361,5.75226 -19.6285,6.25529 -20.2732,6.82075 -20.8623,7.44153 -21.4514,8.06231 -21.9824,8.73581 -22.4485,9.45355 -22.9146,10.1713 -23.3139,10.9303 -23.6414,11.7209 -23.9689,12.5116 -24.2232,13.3306 -24.4012,14.1677 -24.4012,14.1677 -10.7071,17.0785 -10.7071,17.0785"/>
<path fill="olivedrab" stroke="black" stroke-width="0.5" d="M-10.7071,17.0785C-10.7071,17.0785 -24.4012,14.1677 -24.4012,14.1677 -24.5028,14.6459 -24.5793,15.129 -24.6304,15.6151 -24.6815,16.1012 -24.7071,16.5897 -24.7071,17.0785 -24.7071,17.5673 -24.6815,18.0558 -24.6304,18.5419 -24.5793,19.028 -24.5028,19.5111 -24.4012,19.9893 -24.2995,20.4674 -24.1729,20.9399 -24.0219,21.4047 -23.8708,21.8696 -23.6956,22.3263 -23.4967,22.7728 -23.2979,23.2194 -23.0759,23.6552 -22.8315,24.0785 -22.5871,24.5018 -22.3207,24.912 -22.0333,25.3075 -21.746,25.7029 -21.4382,26.0831 -21.1111,26.4463 -20.7841,26.8096 -20.4382,27.1554 -20.0749,27.4825 -19.7117,27.8096 -19.3315,28.1174 -18.9361,28.4047 -18.5406,28.692 -18.1304,28.9584 -17.7071,29.2028 -17.2838,29.4473 -16.848,29.6693 -16.4014,29.8681 -15.9549,30.0669 -15.4982,30.2422 -15.0333,30.3933 -14.5685,30.5443 -14.096,30.6709 -13.6179,30.7726 -13.1397,30.8742 -12.6566,30.9507 -12.1705,31.0018 -11.6844,31.0529 -11.1959,31.0785 -10.7071,31.0785 -10.2183,31.0785 -9.72983,31.0529 -9.24371,31.0018 -8.75758,30.9507 -8.27446,30.8742 -7.79634,30.7726 -7.31822,30.6709 -6.84575,30.5443 -6.38087,30.3933 -5.91599,30.2422 -5.45934,30.0669 -5.01279,29.8681 -4.56625,29.6693 -4.13042,29.4473 -3.7071,29.2028 -3.28379,28.9584 -2.87356,28.692 -2.47811,28.4047 -2.08266,28.1174 -1.70253,27.8096 -1.33928,27.4825 -0.976023,27.1554 -0.63015,26.8096 -0.303076,26.4463 0.0239974,26.0831 0.331823,25.7029 0.619134,25.3075 0.906446,24.912 1.17285,24.5018 1.41725,24.0785 1.66165,23.6552 1.88372,23.2194 2.08253,22.7728 2.28135,22.3263 2.45664,21.8696 2.60769,21.4047 2.75874,20.9399 2.88533,20.4674 2.98696,19.9893 3.08859,19.5111 3.16511,19.028 3.2162,18.5419 3.2673,18.0558 3.2929,17.5673 3.2929,17.0785 3.2929,17.0785 -10.7071,17.0785 -10.7071,17.0785"/>
<ellipse fill="none" stroke="black" cx="-10.7071" cy="17.0785" rx="14" ry="14"/>
<text text-anchor="middle" x="-10.7071" y="18.3785" font-family="monospace" font-size="6.00">15</text>
</g>
<!-- 1&#45;&gt;0 -->
<g id="edge1" class="edge"><title>1&#45;&gt;0</title>
<path fill="none" stroke="black" d="M-22.2787,25.0602C-33.0646,32.4999 -49.1936,43.625 -60.8545,51.6683"/>
<polygon fill="black" stroke="black" points="-60.1295,53.2942 -65.2391,54.6926 -62.1168,50.4131 -60.1295,53.2942"/>
<text text-anchor="middle" x="-53.0666" y="36.1642" font-family="monospace" font-size="6.00">F1920S</text>
</g>
<!-- 2 -->
<g id="node3" class="node"><title>2</title>
<ellipse fill="#1874cd" stroke="black" cx="52.0939" cy="-13.9114" rx="6" ry="6"/>
<text text-anchor="middle" x="52.0939" y="-12.6114" font-family="monospace" font-size="6.00">3</text>
</g>
<!-- 1&#45;&gt;2 -->
<g id="edge3" class="edge"><title>1&#45;&gt;2</title>
<path fill="none" stroke="black" d="M2.00162,10.8072C13.8124,4.97908 31.1703,-3.58635 42.0423,-8.95129"/>
<polygon fill="black" stroke="black" points="41.2797,-10.5264 46.538,-11.1697 42.8286,-7.38775 41.2797,-10.5264"/>
<text text-anchor="middle" x="1.02197" y="-1.27203" font-family="monospace" font-size="6.00">2403731:A&gt;T</text>
</g>
<!-- 5 -->
<g id="node6" class="node"><title>5</title>
<ellipse fill="olivedrab" stroke="black" cx="-6.76991" cy="-37.1137" rx="3.5" ry="3.5"/>
</g>
<!-- 1&#45;&gt;5 -->
<g id="edge7" class="edge"><title>1&#45;&gt;5</title>
<path fill="none" stroke="black" d="M-9.67265,2.84014C-8.94699,-7.14796 -8.00088,-20.1704 -7.38939,-28.587"/>
<polygon fill="black" stroke="black" points="-9.13414,-28.7241 -7.02634,-33.5841 -5.64334,-28.4704 -9.13414,-28.7241"/>
<text text-anchor="middle" x="-18.031" y="-15.0734" font-family="monospace" font-size="6.00">R537L</text>
</g>
<!-- 6 -->
<g id="node7" class="node"><title>6</title>
<ellipse fill="olivedrab" stroke="black" cx="-28.4413" cy="66.0144" rx="3.5" ry="3.5"/>
</g>
<!-- 1&#45;&gt;6 -->
<g id="edge8" class="edge"><title>1&#45;&gt;6</title>
<path fill="none" stroke="black" d="M-15.553,30.4504C-18.6912,39.1099 -22.6819,50.1218 -25.3851,57.5811"/>
<polygon fill="black" stroke="black" points="-23.8169,58.3905 -27.1659,62.495 -27.1075,57.1979 -23.8169,58.3905"/>
<text text-anchor="middle" x="-31.9691" y="48.8158" font-family="monospace" font-size="6.00">H1755Y</text>
</g>
<!-- 7 -->
<g id="node8" class="node"><title>7</title>
<ellipse fill="olivedrab" stroke="black" cx="38.6688" cy="48.8397" rx="3.5" ry="3.5"/>
</g>
<!-- 1&#45;&gt;7 -->
<g id="edge9" class="edge"><title>1&#45;&gt;7</title>
<path fill="none" stroke="black" d="M1.24541,24.767C10.6996,30.8484 23.585,39.137 31.5045,44.2313"/>
<polygon fill="black" stroke="black" points="32.4604,42.7653 35.7188,46.9421 30.5669,45.7089 32.4604,42.7653"/>
<text text-anchor="middle" x="-4.62502" y="39.2991" font-family="monospace" font-size="6.00">2417853:A&gt;C</text>
</g>
<!-- 9 -->
<g id="node10" class="node"><title>9</title>
<ellipse fill="olivedrab" stroke="black" cx="12.0937" cy="79.0045" rx="3.5" ry="3.5"/>
</g>
<!-- 1&#45;&gt;9 -->
<g id="edge10" class="edge"><title>1&#45;&gt;9</title>
<path fill="none" stroke="black" d="M-5.75967,30.5155C-1.25088,42.7612 5.26583,60.4604 9.05205,70.7436"/>
<polygon fill="black" stroke="black" points="10.7591,70.3151 10.8445,75.6118 7.47463,71.5244 10.7591,70.3151"/>
<text text-anchor="middle" x="-7.85381" y="48.4296" font-family="monospace" font-size="6.00">K251R</text>
</g>
<!-- anon_1_3_0 -->
<g id="node11" class="node"><title>anon_1_3_0</title>
<ellipse fill="white" stroke="black" cx="-60.4364" cy="-23.6476" rx="2.5" ry="2.5"/>
</g>
<!-- 1&#45;&gt;anon_1_3_0 -->
<g id="edge4" class="edge"><title>1&#45;&gt;anon_1_3_0</title>
<path fill="none" stroke="black" d="M-21.7436,8.04006C-31.7909,-0.188214 -46.2551,-12.0337 -54.3527,-18.6653"/>
<polygon fill="black" stroke="black" points="-55.7159,-17.5197 -58.4755,-22.0416 -53.4983,-20.2276 -55.7159,-17.5197"/>
<text text-anchor="middle" x="-59.0482" y="-7.51262" font-family="monospace" font-size="6.00">2400716:A&gt;C</text>
</g>
<!-- anon_2_4_0 -->
<g id="node13" class="node"><title>anon_2_4_0</title>
<ellipse fill="white" stroke="black" cx="96.7776" cy="-32.1747" rx="2.5" ry="2.5"/>
</g>
<!-- 2&#45;&gt;anon_2_4_0 -->
<g id="edge11" class="edge"><title>2&#45;&gt;anon_2_4_0</title>
<path fill="none" stroke="black" d="M57.9355,-16.299C65.9314,-19.5671 80.2978,-25.439 89.1391,-29.0526"/>
<polygon fill="black" stroke="black" points="88.9405,-30.862 94.231,-31.1338 90.2648,-27.6221 88.9405,-30.862"/>
<text text-anchor="middle" x="52.5373" y="-24.8758" font-family="monospace" font-size="6.00">2390558:G&gt;A</text>
</g>
<!-- 3 -->
<g id="node4" class="node"><title>3</title>
<ellipse fill="#1874cd" stroke="black" cx="-121.198" cy="-88.5074" rx="3.5" ry="3.5"/>
</g>
<!-- 4 -->
<g id="node5" class="node"><title>4</title>
<ellipse fill="#1874cd" stroke="black" cx="168.366" cy="-77.7983" rx="3.5" ry="3.5"/>
</g>
<!-- anon_1_3_1 -->
<g id="node12" class="node"><title>anon_1_3_1</title>
<ellipse fill="white" stroke="black" cx="-91.3789" cy="-56.1478" rx="2.5" ry="2.5"/>
</g>
<!-- anon_1_3_0&#45;&gt;anon_1_3_1 -->
<g id="edge5" class="edge"><title>anon_1_3_0&#45;&gt;anon_1_3_1</title>
<path fill="none" stroke="black" d="M-62.4666,-25.78C-67.1875,-30.7386 -79.031,-43.1783 -86.0076,-50.5061"/>
<polygon fill="black" stroke="black" points="-87.4351,-49.4676 -89.6154,-54.2955 -84.9002,-51.881 -87.4351,-49.4676"/>
<text text-anchor="middle" x="-95.2371" y="-40.3431" font-family="monospace" font-size="6.00">2408043:T&gt;A</text>
</g>
<!-- anon_1_3_1&#45;&gt;3 -->
<g id="edge6" class="edge"><title>anon_1_3_1&#45;&gt;3</title>
<path fill="none" stroke="black" d="M-93.3354,-58.271C-97.6274,-62.9287 -108.028,-74.2157 -114.837,-81.6045"/>
<polygon fill="black" stroke="black" points="-116.424,-80.7444 -118.526,-85.6072 -113.851,-83.1162 -116.424,-80.7444"/>
<text text-anchor="middle" x="-125.086" y="-72.1378" font-family="monospace" font-size="6.00">2414435:C&gt;A</text>
</g>
<!-- anon_2_4_1 -->
<g id="node14" class="node"><title>anon_2_4_1</title>
<ellipse fill="white" stroke="black" cx="134.951" cy="-50.7136" rx="2.5" ry="2.5"/>
</g>
<!-- anon_2_4_0&#45;&gt;anon_2_4_1 -->
<g id="edge12" class="edge"><title>anon_2_4_0&#45;&gt;anon_2_4_1</title>
<path fill="none" stroke="black" d="M99.2822,-33.3911C104.996,-36.1662 119.169,-43.0492 127.831,-47.2558"/>
<polygon fill="black" stroke="black" points="127.124,-48.8582 132.387,-49.4684 128.654,-45.7099 127.124,-48.8582"/>
<text text-anchor="middle" x="92.5565" y="-42.5234" font-family="monospace" font-size="6.00">2426280:G&gt;T</text>
</g>
<!-- anon_2_4_1&#45;&gt;4 -->
<g id="edge13" class="edge"><title>anon_2_4_1&#45;&gt;4</title>
<path fill="none" stroke="black" d="M137.143,-52.4907C141.953,-56.3891 153.608,-65.8363 161.238,-72.0207"/>
<polygon fill="black" stroke="black" points="160.385,-73.582 165.371,-75.3709 162.589,-70.863 160.385,-73.582"/>
<text text-anchor="middle" x="128.19" y="-64.4557" font-family="monospace" font-size="6.00">2428660:A&gt;G</text>
</g>
</g>
</svg>
