<?xml version="1.0" encoding="UTF-8" standalone="no"?>
<!DOCTYPE svg PUBLIC "-//W3C//DTD SVG 1.1//EN"
 "http://www.w3.org/Graphics/SVG/1.1/DTD/svg11.dtd">
<!-- Generated by graphviz version 2.38.0 (20140413.2041)
 -->
<!-- Title: %3 Pages: 1 -->
<svg width="191pt" height="199pt"
 viewBox="0.00 0.00 190.58 199.26" xmlns="http://www.w3.org/2000/svg" xmlns:xlink="http://www.w3.org/1999/xlink">
<g id="graph0" class="graph" transform="scale(1 1) rotate(0) translate(95.9428 102.546)">
<title>%3</title>
<polygon fill="white" stroke="none" points="-95.9428,96.713 -95.9428,-102.546 94.6389,-102.546 94.6389,96.713 -95.9428,96.713"/>
<!-- 0 -->
<g id="node1" class="node"><title>0</title>
<path fill="#1874cd" stroke="black" stroke-width="0.5" d="M-9.00466,-19.4021C-9.00466,-19.4021 17.4953,-19.4021 17.4953,-19.4021 17.4953,-20.4115 17.4377,-21.4201 17.3226,-22.4229 17.2075,-23.4257 17.0353,-24.4211 16.8067,-25.4043 16.578,-26.3875 16.2934,-27.3568 15.9542,-28.3074 15.615,-29.2581 15.2218,-30.1887 14.7764,-31.0945 14.331,-32.0003 13.8343,-32.88 13.2886,-33.7291 12.7428,-34.5783 12.1491,-35.3955 11.5101,-36.177 10.8711,-36.9584 10.1881,-37.7026 9.46419,-38.4061 8.74032,-39.1096 7.97685,-39.7712 7.17751,-40.3875 7.17751,-40.3875 -9.00466,-19.4021 -9.00466,-19.4021"/>
<path fill="olivedrab" stroke="black" stroke-width="0.5" d="M-9.00466,-19.4021C-9.00466,-19.4021 7.17751,-40.3875 7.17751,-40.3875 6.59057,-40.8401 5.9849,-41.2679 5.36209,-41.6697 4.73929,-42.0716 4.0999,-42.4471 3.44562,-42.7953 2.79133,-43.1435 2.12273,-43.4641 1.44156,-43.7563 0.760401,-44.0485 0.0672805,-44.312 -0.63597,-44.546 -1.33922,-44.7801 -2.05198,-44.9845 -2.77237,-45.1589 -3.49276,-45.3332 -4.22015,-45.4772 -4.95261,-45.5905 -5.68508,-45.7038 -6.42197,-45.7864 -7.16136,-45.8379 -7.90074,-45.8895 -8.64196,-45.91 -9.38307,-45.8994 -10.1242,-45.8888 -10.8645,-45.8472 -11.6021,-45.7745 -12.3397,-45.7019 -13.074,-45.5983 -13.8029,-45.4641 -14.5318,-45.3299 -15.2548,-45.1652 -15.9699,-44.9704 -16.685,-44.7756 -17.3917,-44.5508 -18.0879,-44.2968 -18.7842,-44.0427 -19.4695,-43.7596 -20.1421,-43.4481 -20.8146,-43.1366 -21.4738,-42.797 -22.1179,-42.4302 -22.7619,-42.0635 -23.3904,-41.6698 -24.0014,-41.2504 -24.6125,-40.831 -25.2057,-40.3861 -25.7795,-39.9169 -26.3533,-39.4477 -26.9071,-38.9547 -27.4396,-38.4391 -27.972,-37.9235 -28.4826,-37.3857 -28.9699,-36.8273 -29.4573,-36.2689 -29.921,-35.6903 -30.3599,-35.093 -30.7988,-34.4957 -31.2124,-33.8803 -31.5996,-33.2483 -31.9869,-32.6164 -32.3475,-31.9685 -32.6804,-31.3063 -33.0134,-30.6441 -33.3184,-29.9682 -33.5947,-29.2805 -33.871,-28.5927 -34.1183,-27.8937 -34.336,-27.1852 -34.5536,-26.4767 -34.7415,-25.7594 -34.8991,-25.0351 -35.0566,-24.3109 -35.1837,-23.5803 -35.28,-22.8454 -35.3763,-22.1105 -35.4417,-21.3719 -35.4761,-20.6316 -35.5105,-19.8912 -35.5138,-19.1497 -35.486,-18.409 -35.4583,-17.6684 -35.3994,-16.9292 -35.3097,-16.1935 -35.2199,-15.4577 -35.0994,-14.7261 -34.9483,-14.0005 -34.7972,-13.2749 -34.6158,-12.5559 -34.4044,-11.8455 -34.1931,-11.1351 -33.952,-10.4339 -33.6819,-9.74366 -33.4117,-9.05347 -33.1127,-8.37491 -32.7857,-7.70977 -32.4587,-7.04464 -32.1039,-6.39352 -31.7223,-5.75813 -31.3407,-5.12274 -30.9326,-4.50364 -30.4991,-3.90246 -30.0656,-3.30128 -29.607,-2.71855 -29.1247,-2.15582 -28.6423,-1.59308 -28.1365,-1.05083 -27.6087,-0.53049 -27.0809,-0.0101526 -26.5315,0.487812 -25.9619,0.96209 -25.3923,1.43637 -24.8031,1.88654 -24.1958,2.31142 -23.5885,2.73631 -22.9637,3.13552 -22.3229,3.50802 -21.6821,3.88052 -21.026,4.22597 -20.3562,4.54346 -19.6865,4.86096 -19.0038,5.15021 -18.3098,5.41047 -17.6158,5.67072 -16.9112,5.90175 -16.1978,6.10293 -15.4845,6.30412 -14.763,6.47529 -14.0353,6.61599 -13.3076,6.75669 -12.5743,6.8668 -11.8374,6.94603 -11.1004,7.02526 -10.3605,7.07354 -9.61954,7.09073 -8.87856,7.10793 -8.13718,7.09403 -7.39737,7.04908 -6.65755,7.00413 -5.91995,6.92815 -5.1865,6.82136 -4.45306,6.71457 -3.72441,6.57706 -3.0025,6.40918 -2.28058,6.24131 -1.56602,6.04322 -0.86071,5.81544 -0.155398,5.58766 0.540046,5.3304 1.22379,5.04432 1.90753,4.75824 2.57897,4.4436 3.23634,4.10123 3.89371,3.75886 4.53642,3.38906 5.16278,2.99281 5.78915,2.59656 6.39862,2.17421 6.98957,1.72687 7.58053,1.27952 8.15246,0.807583 8.70385,0.312293 9.25525,-0.182997 9.78562,-0.701202 10.2936,-1.24096 10.8015,-1.78071 11.2866,-2.34153 11.7475,-2.92195 12.2085,-3.50237 12.6449,-4.10187 13.0555,-4.71887 13.4662,-5.33588 13.8508,-5.96984 14.2083,-6.61908 14.5659,-7.26833 14.896,-7.93229 15.1979,-8.60921 15.4997,-9.28613 15.7731,-9.97542 16.0172,-10.6753 16.2612,-11.3751 16.4759,-12.0849 16.6604,-12.8027 16.845,-13.5205 16.9994,-14.2458 17.1232,-14.9765 17.247,-15.7073 17.34,-16.443 17.4021,-17.1815 17.4642,-17.9201 17.4953,-18.661 17.4953,-19.4021 17.4953,-19.4021 -9.00466,-19.4021 -9.00466,-19.4021"/>
<ellipse fill="none" stroke="black" cx="-9.00466" cy="-19.4021" rx="26.5" ry="26.5"/>
<text text-anchor="middle" x="-9.00466" y="-18.1021" font-family="monospace" font-size="6.00">55</text>
</g>
<!-- 4 -->
<g id="node5" class="node"><title>4</title>
<ellipse fill="olivedrab" stroke="black" cx="74.9232" cy="9.54626" rx="11" ry="11"/>
<text text-anchor="middle" x="74.9232" y="10.8463" font-family="monospace" font-size="6.00">9</text>
</g>
<!-- 0&#45;&gt;4 -->
<g id="edge2" class="edge"><title>0&#45;&gt;4</title>
<path fill="none" stroke="black" d="M16.1765,-10.7167C30.203,-5.87863 47.2246,-0.00752275 59.3272,4.16688"/>
<polygon fill="black" stroke="black" points="60.0336,2.55931 64.1897,5.84408 58.8923,5.86802 60.0336,2.55931"/>
<text text-anchor="middle" x="58.7518" y="-5.47489" font-family="monospace" font-size="6.00">2366965:T&gt;G</text>
</g>
<!-- 5 -->
<g id="node6" class="node"><title>5</title>
<ellipse fill="olivedrab" stroke="black" cx="-62.7194" cy="-72.9968" rx="3.5" ry="3.5"/>
</g>
<!-- 0&#45;&gt;5 -->
<g id="edge3" class="edge"><title>0&#45;&gt;5</title>
<path fill="none" stroke="black" d="M-27.7915,-38.1469C-37.8129,-48.146 -49.4871,-59.794 -56.4807,-66.772"/>
<polygon fill="black" stroke="black" points="-57.8703,-65.6864 -60.1737,-70.4568 -55.3982,-68.164 -57.8703,-65.6864"/>
<text text-anchor="middle" x="-63.1361" y="-54.6595" font-family="monospace" font-size="6.00">2383492:G&gt;A</text>
</g>
<!-- 7 -->
<g id="node8" class="node"><title>7</title>
<ellipse fill="olivedrab" stroke="black" cx="-2.82878" cy="-95.0465" rx="3.5" ry="3.5"/>
</g>
<!-- 0&#45;&gt;7 -->
<g id="edge5" class="edge"><title>0&#45;&gt;7</title>
<path fill="none" stroke="black" d="M-6.84464,-45.8589C-5.69242,-59.9717 -4.35017,-76.4119 -3.54608,-86.2608"/>
<polygon fill="black" stroke="black" points="-5.27262,-86.6206 -3.12147,-91.4616 -1.78422,-86.3357 -5.27262,-86.6206"/>
<text text-anchor="middle" x="-26.1954" y="-68.2598" font-family="monospace" font-size="6.00">2380627:C&gt;A</text>
</g>
<!-- 8 -->
<g id="node9" class="node"><title>8</title>
<ellipse fill="olivedrab" stroke="black" cx="-88.4428" cy="-16.215" rx="3.5" ry="3.5"/>
</g>
<!-- 0&#45;&gt;8 -->
<g id="edge6" class="edge"><title>0&#45;&gt;8</title>
<path fill="none" stroke="black" d="M-35.8988,-18.3231C-51.0998,-17.7132 -69.1084,-16.9907 -79.607,-16.5695"/>
<polygon fill="black" stroke="black" points="-79.7765,-14.8114 -84.8427,-16.3594 -79.9169,-18.3086 -79.7765,-14.8114"/>
<text text-anchor="middle" x="-57.7529" y="-12.6463" font-family="monospace" font-size="6.00">2359596:T&gt;C</text>
</g>
<!-- 9 -->
<g id="node10" class="node"><title>9</title>
<ellipse fill="olivedrab" stroke="black" cx="51.8809" cy="-68.6137" rx="3.5" ry="3.5"/>
</g>
<!-- 0&#45;&gt;9 -->
<g id="edge7" class="edge"><title>0&#45;&gt;9</title>
<path fill="none" stroke="black" d="M11.6084,-36.0629C23.0362,-45.2995 36.534,-56.2094 44.6401,-62.7612"/>
<polygon fill="black" stroke="black" points="43.935,-64.4415 48.9237,-66.2235 46.1352,-61.7194 43.935,-64.4415"/>
<text text-anchor="middle" x="18.6242" y="-51.6121" font-family="monospace" font-size="6.00">K251R</text>
</g>
<!-- 1 -->
<g id="node2" class="node"><title>1</title>
<ellipse fill="olivedrab" stroke="black" cx="-18.4844" cy="89.213" rx="3.5" ry="3.5"/>
</g>
<!-- 2 -->
<g id="node3" class="node"><title>2</title>
<ellipse fill="olivedrab" stroke="black" cx="22.3467" cy="58.0649" rx="9" ry="9"/>
<text text-anchor="middle" x="22.3467" y="59.3649" font-family="monospace" font-size="6.00">6</text>
</g>
<!-- 1&#45;&gt;2 -->
<g id="edge8" class="edge"><title>1&#45;&gt;2</title>
<path fill="none" stroke="black" d="M-15.5479,86.9729C-10.0794,82.8012 1.92961,73.6401 10.9727,66.7416"/>
<polygon fill="black" stroke="black" points="10.0953,65.2098 15.1321,63.5686 12.2181,67.9926 10.0953,65.2098"/>
<text text-anchor="middle" x="-23.2876" y="81.6573" font-family="monospace" font-size="6.00">2395858:T&gt;G</text>
</g>
<!-- 6 -->
<g id="node7" class="node"><title>6</title>
<ellipse fill="olivedrab" stroke="black" cx="-43.4354" cy="50.0784" rx="3.5" ry="3.5"/>
</g>
<!-- 1&#45;&gt;6 -->
<g id="edge10" class="edge"><title>1&#45;&gt;6</title>
<path fill="none" stroke="black" stroke-dasharray="5,2" d="M-20.4422,86.1422C-24.2477,80.1735 -32.7534,66.8326 -38.2847,58.1571"/>
<polygon fill="black" stroke="black" points="-40.0632,58.6227 -41.2756,53.4659 -37.112,56.7411 -40.0632,58.6227"/>
<text text-anchor="middle" x="-50.3635" y="69.9496" font-family="monospace" font-size="6.00">2392571:T&gt;C</text>
</g>
<!-- 2&#45;&gt;0 -->
<g id="edge1" class="edge"><title>2&#45;&gt;0</title>
<path fill="none" stroke="black" d="M18.8717,49.4786C15.033,39.9934 8.63968,24.1959 2.94345,10.1209"/>
<polygon fill="black" stroke="black" points="1.29672,10.7166 1.04311,5.42523 4.5411,9.40354 1.29672,10.7166"/>
<text text-anchor="middle" x="-10.0924" y="27.5997" font-family="monospace" font-size="6.00">2392571:T&gt;C</text>
</g>
<!-- 3 -->
<g id="node4" class="node"><title>3</title>
<ellipse fill="olivedrab" stroke="black" cx="75.7646" cy="65.3715" rx="5" ry="5"/>
<text text-anchor="middle" x="75.7646" y="66.6715" font-family="monospace" font-size="6.00">2</text>
</g>
<!-- 2&#45;&gt;3 -->
<g id="edge9" class="edge"><title>2&#45;&gt;3</title>
<path fill="none" stroke="black" d="M31.6514,59.3376C41.1467,60.6364 55.84,62.6462 65.6265,63.9848"/>
<polygon fill="black" stroke="black" points="66.0285,62.2734 70.7452,64.685 65.5541,65.7411 66.0285,62.2734"/>
<text text-anchor="middle" x="69.6389" y="59.4612" font-family="monospace" font-size="6.00">2366965:T&gt;G</text>
</g>
<!-- 3&#45;&gt;4 -->
<g id="edge11" class="edge"><title>3&#45;&gt;4</title>
<path fill="none" stroke="black" stroke-dasharray="5,2" d="M75.687,60.2197C75.5698,52.4484 75.3429,37.3941 75.1667,25.7047"/>
<polygon fill="black" stroke="black" points="73.4156,25.6347 75.0899,20.6089 76.9152,25.5819 73.4156,25.6347"/>
<text text-anchor="middle" x="54.4269" y="40.7622" font-family="monospace" font-size="6.00">2392571:T&gt;C</text>
</g>
<!-- 6&#45;&gt;0 -->
<g id="edge4" class="edge"><title>6&#45;&gt;0</title>
<path fill="none" stroke="black" d="M-41.7747,46.7272C-38.3661,39.8487 -30.287,23.5452 -23.0041,8.84848"/>
<polygon fill="black" stroke="black" points="-24.5637,8.05426 -20.7755,4.35121 -21.4276,9.60836 -24.5637,8.05426"/>
<text text-anchor="middle" x="-53.3894" y="25.5878" font-family="monospace" font-size="6.00">2395858:T&gt;G</text>
</g>
</g>
</svg>
