<?xml version="1.0" encoding="UTF-8" standalone="no"?>
<!DOCTYPE svg PUBLIC "-//W3C//DTD SVG 1.1//EN"
 "http://www.w3.org/Graphics/SVG/1.1/DTD/svg11.dtd">
<!-- Generated by graphviz version 2.38.0 (20140413.2041)
 -->
<!-- Title: %3 Pages: 1 -->
<svg width="209pt" height="168pt"
 viewBox="0.00 0.00 208.75 168.28" xmlns="http://www.w3.org/2000/svg" xmlns:xlink="http://www.w3.org/1999/xlink">
<g id="graph0" class="graph" transform="scale(1 1) rotate(0) translate(120.543 85.7816)">
<title>%3</title>
<polygon fill="white" stroke="none" points="-120.543,82.5026 -120.543,-85.7816 88.2113,-85.7816 88.2113,82.5026 -120.543,82.5026"/>
<!-- 0 -->
<g id="node1" class="node"><title>0</title>
<ellipse fill="palegreen" stroke="black" cx="6.79543" cy="-0.664591" rx="23.5" ry="23.5"/>
<text text-anchor="middle" x="6.79543" y="0.635409" font-family="monospace" font-size="6.00">85</text>
</g>
<!-- 1 -->
<g id="node2" class="node"><title>1</title>
<ellipse fill="palegreen" stroke="black" cx="72.8315" cy="-30.4742" rx="2.5" ry="2.5"/>
</g>
<!-- 0&#45;&gt;1 -->
<g id="edge1" class="edge"><title>0&#45;&gt;1</title>
<path fill="none" stroke="black" d="M28.4181,-10.4254C44.0659,-17.489 63.6058,-26.3096 70.3831,-29.369"/>
</g>
<!-- 2 -->
<g id="node3" class="node"><title>2</title>
<ellipse fill="palegreen" stroke="black" cx="4.88802" cy="76.0026" rx="2.5" ry="2.5"/>
</g>
<!-- 0&#45;&gt;2 -->
<g id="edge2" class="edge"><title>0&#45;&gt;2</title>
<path fill="none" stroke="black" d="M6.20237,23.1731C5.74743,41.4591 5.16409,64.9061 4.96133,73.0558"/>
</g>
<!-- 3 -->
<g id="node4" class="node"><title>3</title>
<ellipse fill="palegreen" stroke="black" cx="-19.3565" cy="-71.2244" rx="2.5" ry="2.5"/>
</g>
<!-- 0&#45;&gt;3 -->
<g id="edge3" class="edge"><title>0&#45;&gt;3</title>
<path fill="none" stroke="black" d="M-1.47919,-22.9902C-7.70431,-39.786 -15.6154,-61.1307 -18.3632,-68.5445"/>
</g>
<!-- 4 -->
<g id="node5" class="node"><title>4</title>
<ellipse fill="palegreen" stroke="black" cx="17.8824" cy="-78.2816" rx="3.5" ry="3.5"/>
<text text-anchor="middle" x="17.8824" y="-76.9816" font-family="monospace" font-size="6.00">2</text>
</g>
<!-- 0&#45;&gt;4 -->
<g id="edge4" class="edge"><title>0&#45;&gt;4</title>
<path fill="none" stroke="black" d="M10.1219,-23.9523C12.3177,-39.3242 15.069,-58.5859 16.6362,-69.5574"/>
<polygon fill="black" stroke="black" points="14.9345,-70.0202 17.374,-74.7225 18.3993,-69.5253 14.9345,-70.0202"/>
<text text-anchor="middle" x="4.22312" y="-51.3635" font-family="monospace" font-size="6.00">I492N</text>
</g>
<!-- 6 -->
<g id="node7" class="node"><title>6</title>
<ellipse fill="palegreen" stroke="black" cx="-69.5181" cy="35.0425" rx="6" ry="6"/>
<text text-anchor="middle" x="-69.5181" y="36.3425" font-family="monospace" font-size="6.00">6</text>
</g>
<!-- 0&#45;&gt;6 -->
<g id="edge5" class="edge"><title>0&#45;&gt;6</title>
<path fill="none" stroke="black" d="M-14.8688,9.47212C-31.6138,17.3071 -53.6061,27.5973 -63.8328,32.3824"/>
</g>
<!-- 7 -->
<g id="node8" class="node"><title>7</title>
<ellipse fill="palegreen" stroke="black" cx="68.2249" cy="40.7837" rx="2.5" ry="2.5"/>
</g>
<!-- 0&#45;&gt;7 -->
<g id="edge6" class="edge"><title>0&#45;&gt;7</title>
<path fill="none" stroke="black" d="M26.5702,12.678C41.1609,22.5228 59.5403,34.9239 65.9197,39.2282"/>
</g>
<!-- 8 -->
<g id="node9" class="node"><title>8</title>
<ellipse fill="palegreen" stroke="black" cx="-26.9806" cy="59.0518" rx="2.5" ry="2.5"/>
</g>
<!-- 0&#45;&gt;8 -->
<g id="edge7" class="edge"><title>0&#45;&gt;8</title>
<path fill="none" stroke="black" d="M-4.82835,19.8864C-12.614,33.6515 -22.0581,50.3489 -25.5736,56.5643"/>
</g>
<!-- 9 -->
<g id="node10" class="node"><title>9</title>
<ellipse fill="palegreen" stroke="black" cx="-70.8992" cy="-7.74764" rx="3.5" ry="3.5"/>
<text text-anchor="middle" x="-70.8992" y="-6.44764" font-family="monospace" font-size="6.00">2</text>
</g>
<!-- 0&#45;&gt;9 -->
<g id="edge8" class="edge"><title>0&#45;&gt;9</title>
<path fill="none" stroke="black" d="M-16.9377,-2.82823C-35.1452,-4.48811 -58.6006,-6.62643 -67.3781,-7.42664"/>
</g>
<!-- 10 -->
<g id="node11" class="node"><title>10</title>
<ellipse fill="palegreen" stroke="black" cx="40.8501" cy="65.5391" rx="2.5" ry="2.5"/>
</g>
<!-- 0&#45;&gt;10 -->
<g id="edge9" class="edge"><title>0&#45;&gt;10</title>
<path fill="none" stroke="black" d="M17.5705,20.2827C25.6768,36.0416 35.9785,56.0686 39.5567,63.0247"/>
</g>
<!-- 11 -->
<g id="node12" class="node"><title>11</title>
<ellipse fill="palegreen" stroke="black" cx="-44.7147" cy="-46.7586" rx="2.5" ry="2.5"/>
</g>
<!-- 0&#45;&gt;11 -->
<g id="edge10" class="edge"><title>0&#45;&gt;11</title>
<path fill="none" stroke="black" d="M-10.9314,-16.5275C-20.5786,-25.1604 -31.8956,-35.2874 -38.6759,-41.3548"/>
<polygon fill="black" stroke="black" points="-40.0099,-40.2002 -42.569,-44.8385 -37.676,-42.8084 -40.0099,-40.2002"/>
<text text-anchor="middle" x="-36.2899" y="-32.9185" font-family="monospace" font-size="6.00">M925L</text>
</g>
<!-- 12 -->
<g id="node13" class="node"><title>12</title>
<ellipse fill="palegreen" stroke="black" cx="81.7113" cy="5.54162" rx="2.5" ry="2.5"/>
</g>
<!-- 0&#45;&gt;12 -->
<g id="edge11" class="edge"><title>0&#45;&gt;12</title>
<path fill="none" stroke="black" d="M30.4993,1.29909C48.332,2.7764 70.9945,4.65382 78.866,5.30591"/>
</g>
<!-- 13 -->
<g id="node14" class="node"><title>13</title>
<ellipse fill="palegreen" stroke="black" cx="51.3281" cy="-59.9664" rx="2.5" ry="2.5"/>
</g>
<!-- 0&#45;&gt;13 -->
<g id="edge12" class="edge"><title>0&#45;&gt;13</title>
<path fill="none" stroke="black" d="M21.131,-19.7545C31.7084,-33.8398 45.0323,-51.5827 49.657,-57.741"/>
</g>
<!-- 5 -->
<g id="node6" class="node"><title>5</title>
<ellipse fill="palegreen" stroke="black" cx="-113.043" cy="13.1561" rx="3.5" ry="3.5"/>
<text text-anchor="middle" x="-113.043" y="14.4561" font-family="monospace" font-size="6.00">2</text>
</g>
<!-- 5&#45;&gt;6 -->
<g id="edge13" class="edge"><title>5&#45;&gt;6</title>
<path fill="none" stroke="black" d="M-109.913,14.7301C-102.584,18.4155 -84.234,27.6426 -75.0029,32.2845"/>
</g>
<!-- 5&#45;&gt;9 -->
<g id="edge14" class="edge"><title>5&#45;&gt;9</title>
<path fill="none" stroke="black" stroke-dasharray="5,2" d="M-109.736,11.5158C-101.819,7.58895 -81.858,-2.31196 -74.0755,-6.17218"/>
</g>
</g>
</svg>
