<?xml version="1.0" encoding="UTF-8" standalone="no"?>
<!DOCTYPE svg PUBLIC "-//W3C//DTD SVG 1.1//EN"
 "http://www.w3.org/Graphics/SVG/1.1/DTD/svg11.dtd">
<!-- Generated by graphviz version 2.38.0 (20140413.2041)
 -->
<!-- Title: %3 Pages: 1 -->
<svg width="508pt" height="429pt"
 viewBox="0.00 0.00 507.88 428.73" xmlns="http://www.w3.org/2000/svg" xmlns:xlink="http://www.w3.org/1999/xlink">
<g id="graph0" class="graph" transform="scale(1 1) rotate(0) translate(240.702 226.305)">
<title>%3</title>
<polygon fill="white" stroke="none" points="-240.702,202.43 -240.702,-226.305 267.183,-226.305 267.183,202.43 -240.702,202.43"/>
<!-- 0 -->
<g id="node1" class="node"><title>0</title>
<path fill="#1874cd" stroke="black" stroke-width="0.5" d="M-5.02944,-2.14871C-5.02944,-2.14871 40.9706,-2.14871 40.9706,-2.14871 40.9706,-3.44982 40.9154,-4.75035 40.8051,-6.04678 40.6948,-7.34321 40.5296,-8.63438 40.3099,-9.9168 40.0902,-11.1992 39.8162,-12.4718 39.4886,-13.7309 39.1609,-14.9901 38.7801,-16.2349 38.3469,-17.4618 37.9138,-18.6887 37.4288,-19.8966 36.8933,-21.0824 36.3577,-22.2682 35.7721,-23.4307 35.138,-24.5669 34.5039,-25.703 33.8219,-26.8117 33.0938,-27.8901 32.3657,-28.9684 31.5922,-30.0153 30.7753,-31.0281 29.9585,-32.0408 29.099,-33.0184 28.1993,-33.9583 27.2996,-34.8982 26.3604,-35.7995 25.3842,-36.6597 24.4081,-37.52 23.3959,-38.3384 22.3503,-39.1129 21.3048,-39.8873 20.2269,-40.617 19.1195,-41.3001 18.0121,-41.9831 16.8762,-42.6189 15.7149,-43.2056 14.5536,-43.7924 13.3679,-44.3296 12.1611,-44.8159 10.9543,-45.3021 9.72733,-45.7369 8.48362,-46.1191 7.23992,-46.5013 5.98056,-46.8306 4.70893,-47.1061 3.43731,-47.3815 2.15458,-47.6029 0.864191,-47.7696 -0.426198,-47.9363 -1.72308,-48.0482 -3.02295,-48.1049 -4.32283,-48.1617 -5.62452,-48.1633 -6.92453,-48.1097 -8.22454,-48.0561 -9.52168,-47.9473 -10.8125,-47.7837 -12.1033,-47.6202 -13.3865,-47.4019 -14.6588,-47.1295 -15.9311,-46.8572 -17.1913,-46.5309 -18.4359,-46.1517 -19.6805,-45.7725 -20.9085,-45.3407 -22.1165,-44.8574 -23.3245,-44.3741 -24.5115,-43.8397 -25.6742,-43.2558 -26.8369,-42.6719 -27.9743,-42.0389 -29.0834,-41.3585 -30.1924,-40.6781 -31.2721,-39.951 -32.3195,-39.1791 -33.3669,-38.4072 -34.3811,-37.5912 -35.3594,-36.7333 -36.3376,-35.8755 -37.279,-34.9765 -38.181,-34.0388 -39.083,-33.1011 -39.9448,-32.1255 -40.7641,-31.1148 -41.5834,-30.104 -42.3595,-29.059 -43.0902,-27.9824 -43.8209,-26.9059 -44.5056,-25.7988 -45.1424,-24.6642 -45.7793,-23.5296 -46.3677,-22.3685 -46.9061,-21.184 -47.4446,-19.9995 -47.9325,-18.7927 -48.3686,-17.5669 -48.8047,-16.341 -49.1886,-15.0972 -49.5192,-13.8388 -49.8499,-12.5804 -50.127,-11.3086 -50.3498,-10.0267 -50.5727,-8.7448 -50.741,-7.45403 -50.8544,-6.15787 -50.9678,-4.86171 -51.0262,-3.56132 -51.0293,-2.26021 -51.0325,-0.959103 -50.9804,0.341553 -50.8733,1.63825 -50.7662,2.93494 -50.6041,4.22651 -50.3875,5.50946 -50.1709,6.79242 -49.8999,8.0656 -49.5754,9.32559 -49.2508,10.5856 -48.873,11.8312 -48.4428,13.0592 -48.0127,14.2871 -47.5306,15.4963 -46.9979,16.6833 -46.4653,17.8704 -45.8825,19.0344 -45.2511,20.172 -44.6198,21.3097 -43.9405,22.4201 -43.215,23.5002 -42.4895,24.5802 -41.7185,25.6291 -40.9041,26.6438 -40.0897,27.6585 -39.2326,28.6382 -38.3352,29.5803 -37.4377,30.5223 -36.5007,31.4259 -35.5267,32.2885 -34.5526,33.1511 -33.5424,33.972 -32.4987,34.749 -31.4551,35.5259 -30.3789,36.2583 -29.2732,36.944 -28.1675,37.6297 -27.0331,38.2683 -25.8732,38.8578 -24.7134,39.4474 -23.529,39.9875 -22.3234,40.4766 -21.1177,40.9658 -19.8918,41.4036 -18.649,41.7888 -17.4063,42.1741 -16.1477,42.5064 -14.8768,42.7849 -13.6058,43.0634 -12.3236,43.2879 -11.0336,43.4578 -9.74366,43.6276 -8.44706,43.7426 -7.14732,43.8025 -5.84759,43.8624 -4.5459,43.8671 -3.24577,43.8167 -1.94564,43.7662 -0.648228,43.6607 0.642953,43.5002 1.93413,43.3398 3.21793,43.1246 4.49087,42.8553 5.76381,42.5861 7.02475,42.2629 8.2703,41.8867 9.51584,41.5105 10.7449,41.0817 11.954,40.6013 13.1632,40.1209 14.3515,39.5894 15.5156,39.0083 16.6797,38.4272 17.8187,37.7969 18.9294,37.1193 20.0401,36.4416 21.1215,35.7171 22.1708,34.9477 23.2201,34.1784 24.2362,33.3648 25.2165,32.5093 25.2165,32.5093 -5.02944,-2.14871 -5.02944,-2.14871"/>
<path fill="olivedrab" stroke="black" stroke-width="0.5" d="M-5.02944,-2.14871C-5.02944,-2.14871 25.2165,32.5093 25.2165,32.5093 26.449,31.4337 27.6233,30.2932 28.7343,29.0925 29.8452,27.8918 30.8914,26.6327 31.8682,25.3206 32.8451,24.0085 33.7512,22.6451 34.5828,21.2365 35.4145,19.8278 36.1703,18.3758 36.8473,16.8866 37.5242,15.3974 38.1212,13.8731 38.6357,12.3203 39.1503,10.7676 39.5816,9.18842 39.9279,7.58967 40.2742,5.99092 40.535,4.37484 40.7092,2.74831 40.8833,1.12178 40.9706,-0.512882 40.9706,-2.14871 40.9706,-2.14871 -5.02944,-2.14871 -5.02944,-2.14871"/>
<ellipse fill="none" stroke="black" cx="-5.02944" cy="-2.14871" rx="46" ry="46"/>
<text text-anchor="middle" x="-5.02944" y="-0.848708" font-family="monospace" font-size="6.00">162</text>
</g>
<!-- 1 -->
<g id="node2" class="node"><title>1</title>
<ellipse fill="#1874cd" stroke="black" cx="86.3482" cy="19.7218" rx="3.5" ry="3.5"/>
</g>
<!-- 0&#45;&gt;1 -->
<g id="edge1" class="edge"><title>0&#45;&gt;1</title>
<path fill="none" stroke="black" d="M39.8563,8.59434C54.2317,12.035 68.7131,15.501 77.6058,17.6294"/>
<polygon fill="black" stroke="black" points="78.3441,16.0066 82.7994,18.8724 77.5293,19.4105 78.3441,16.0066"/>
<text text-anchor="middle" x="79.731" y="10.9119" font-family="monospace" font-size="6.00">2362303:A&gt;C</text>
</g>
<!-- 2 -->
<g id="node3" class="node"><title>2</title>
<ellipse fill="#1874cd" stroke="black" cx="124.595" cy="-9.81039" rx="3.5" ry="3.5"/>
</g>
<!-- 0&#45;&gt;2 -->
<g id="edge2" class="edge"><title>0&#45;&gt;2</title>
<path fill="none" stroke="black" d="M41.0361,-4.8715C68.5314,-6.49667 100.952,-8.41293 116.054,-9.30556"/>
<polygon fill="black" stroke="black" points="116.006,-11.0557 121.1,-9.60385 116.212,-7.56179 116.006,-11.0557"/>
<text text-anchor="middle" x="99.5449" y="-9.28853" font-family="monospace" font-size="6.00">2389372:C&gt;A</text>
</g>
<!-- 4 -->
<g id="node5" class="node"><title>4</title>
<ellipse fill="#1874cd" stroke="black" cx="53.102" cy="-7.85893" rx="3.5" ry="3.5"/>
</g>
<!-- 0&#45;&gt;4 -->
<g id="edge4" class="edge"><title>0&#45;&gt;4</title>
<path fill="none" stroke="black" d="M40.7738,-6.64794C41.9347,-6.76197 43.0416,-6.8707 44.0817,-6.97287"/>
<polygon fill="black" stroke="black" points="44.0731,-8.73036 49.2202,-7.47762 44.4153,-5.24712 44.0731,-8.73036"/>
<text text-anchor="middle" x="63.4278" y="-2.01041" font-family="monospace" font-size="6.00">2421360:C&gt;T</text>
</g>
<!-- 5 -->
<g id="node6" class="node"><title>5</title>
<ellipse fill="#1874cd" stroke="black" cx="-93.2488" cy="6.67938" rx="3.5" ry="3.5"/>
</g>
<!-- 0&#45;&gt;5 -->
<g id="edge5" class="edge"><title>0&#45;&gt;5</title>
<path fill="none" stroke="black" d="M-50.9479,2.44634C-63.7591,3.72835 -76.3665,4.98997 -84.4376,5.79765"/>
<polygon fill="black" stroke="black" points="-84.5043,7.56297 -89.6537,6.31962 -84.8528,4.08037 -84.5043,7.56297"/>
<text text-anchor="middle" x="-88.6928" y="1.92199" font-family="monospace" font-size="6.00">2359542:T&gt;A</text>
</g>
<!-- 7 -->
<g id="node8" class="node"><title>7</title>
<ellipse fill="#1874cd" stroke="black" cx="48.7923" cy="47.5005" rx="3.5" ry="3.5"/>
</g>
<!-- 0&#45;&gt;7 -->
<g id="edge9" class="edge"><title>0&#45;&gt;7</title>
<path fill="none" stroke="black" d="M29.0567,29.2949C33.8758,33.7404 38.3637,37.8804 41.8383,41.0857"/>
<polygon fill="black" stroke="black" points="43.3958,40.1414 45.8843,44.818 41.0226,42.714 43.3958,40.1414"/>
<text text-anchor="middle" x="56.4475" y="32.9903" font-family="monospace" font-size="6.00">2362376:G&gt;T</text>
</g>
<!-- 13 -->
<g id="node14" class="node"><title>13</title>
<ellipse fill="#1874cd" stroke="black" cx="83.4553" cy="-38.5293" rx="3.5" ry="3.5"/>
</g>
<!-- 0&#45;&gt;13 -->
<g id="edge17" class="edge"><title>0&#45;&gt;13</title>
<path fill="none" stroke="black" d="M37.6578,-19.6996C52.0042,-25.5982 66.5689,-31.5865 75.3079,-35.1795"/>
<polygon fill="black" stroke="black" points="74.6524,-36.8021 79.9423,-37.085 75.9834,-33.565 74.6524,-36.8021"/>
<text text-anchor="middle" x="77.4829" y="-29.6396" font-family="monospace" font-size="6.00">2394724:C&gt;T</text>
</g>
<!-- 14 -->
<g id="node15" class="node"><title>14</title>
<ellipse fill="#1874cd" stroke="black" cx="5.60729" cy="-88.524" rx="3.5" ry="3.5"/>
</g>
<!-- 0&#45;&gt;14 -->
<g id="edge18" class="edge"><title>0&#45;&gt;14</title>
<path fill="none" stroke="black" d="M0.600387,-47.8656C2.09348,-59.9902 3.55373,-71.8481 4.50825,-79.5992"/>
<polygon fill="black" stroke="black" points="2.78368,-79.9138 5.13176,-84.6624 6.25744,-79.486 2.78368,-79.9138"/>
<text text-anchor="middle" x="-6.94568" y="-65.9324" font-family="monospace" font-size="6.00">A586T</text>
</g>
<!-- 15 -->
<g id="node16" class="node"><title>15</title>
<ellipse fill="#1874cd" stroke="black" cx="11.5351" cy="68.6924" rx="3.5" ry="3.5"/>
</g>
<!-- 0&#45;&gt;15 -->
<g id="edge19" class="edge"><title>0&#45;&gt;15</title>
<path fill="none" stroke="black" d="M5.46117,42.7161C7.01415,49.3577 8.45539,55.5214 9.54388,60.1764"/>
<polygon fill="black" stroke="black" points="11.2814,59.9213 10.7158,65.1885 7.87329,60.7183 11.2814,59.9213"/>
<text text-anchor="middle" x="-13.4975" y="49.2463" font-family="monospace" font-size="6.00">2409249:T&gt;G</text>
</g>
<!-- 17 -->
<g id="node18" class="node"><title>17</title>
<ellipse fill="#1874cd" stroke="black" cx="-100.926" cy="-57.843" rx="3.5" ry="3.5"/>
</g>
<!-- 0&#45;&gt;17 -->
<g id="edge20" class="edge"><title>0&#45;&gt;17</title>
<path fill="none" stroke="black" d="M-44.8653,-25.2842C-63.0854,-35.866 -82.9152,-47.3825 -93.4153,-53.4807"/>
<polygon fill="black" stroke="black" points="-94.3277,-51.9868 -97.7725,-56.0112 -92.5699,-55.0134 -94.3277,-51.9868"/>
<text text-anchor="middle" x="-90.1403" y="-41.5825" font-family="monospace" font-size="6.00">2375592:T&gt;A</text>
</g>
<!-- 19 -->
<g id="node20" class="node"><title>19</title>
<ellipse fill="#1874cd" stroke="black" cx="-116.417" cy="-28.7631" rx="5" ry="5"/>
<text text-anchor="middle" x="-116.417" y="-27.4631" font-family="monospace" font-size="6.00">2</text>
</g>
<!-- 0&#45;&gt;19 -->
<g id="edge23" class="edge"><title>0&#45;&gt;19</title>
<path fill="none" stroke="black" d="M-50.0138,-12.8971C-70.7483,-17.8513 -93.5408,-23.2972 -106.303,-26.3466"/>
<polygon fill="black" stroke="black" points="-106.961,-24.7045 -111.418,-27.5686 -106.148,-28.1087 -106.961,-24.7045"/>
<text text-anchor="middle" x="-99.1584" y="-14.8218" font-family="monospace" font-size="6.00">2366965:T&gt;G</text>
</g>
<!-- 20 -->
<g id="node21" class="node"><title>20</title>
<ellipse fill="#1874cd" stroke="black" cx="-62.4504" cy="34.3064" rx="3.5" ry="3.5"/>
</g>
<!-- 0&#45;&gt;20 -->
<g id="edge24" class="edge"><title>0&#45;&gt;20</title>
<path fill="none" stroke="black" d="M-43.966,22.5711C-47.9662,25.1107 -51.6617,27.4569 -54.6803,29.3733"/>
<polygon fill="black" stroke="black" points="-54.1428,31.105 -59.302,32.3075 -56.0188,28.1502 -54.1428,31.105"/>
<text text-anchor="middle" x="-70.3231" y="23.7722" font-family="monospace" font-size="6.00">2426618:T&gt;A</text>
</g>
<!-- 21 -->
<g id="node22" class="node"><title>21</title>
<ellipse fill="#1874cd" stroke="black" cx="-75.313" cy="65.6882" rx="3.5" ry="3.5"/>
</g>
<!-- 0&#45;&gt;21 -->
<g id="edge25" class="edge"><title>0&#45;&gt;21</title>
<path fill="none" stroke="black" d="M-38.5245,30.1804C-50.002,41.2583 -61.7142,52.5627 -68.7495,59.3532"/>
<polygon fill="black" stroke="black" points="-67.6688,60.7423 -72.4817,62.9555 -70.0995,58.2239 -67.6688,60.7423"/>
<text text-anchor="middle" x="-74.637" y="42.5668" font-family="monospace" font-size="6.00">2417855:C&gt;T</text>
</g>
<!-- 22 -->
<g id="node23" class="node"><title>22</title>
<ellipse fill="#1874cd" stroke="black" cx="31.6183" cy="-58.6742" rx="3.5" ry="3.5"/>
</g>
<!-- 0&#45;&gt;22 -->
<g id="edge26" class="edge"><title>0&#45;&gt;22</title>
<path fill="none" stroke="black" d="M20.0227,-40.7892C22.5391,-44.6705 24.8589,-48.2486 26.7518,-51.1681"/>
<polygon fill="black" stroke="black" points="25.4595,-52.3918 29.648,-55.6352 28.3963,-50.4877 25.4595,-52.3918"/>
<text text-anchor="middle" x="44.3872" y="-48.1786" font-family="monospace" font-size="6.00">2425747:C&gt;G</text>
</g>
<!-- 23 -->
<g id="node24" class="node"><title>23</title>
<ellipse fill="#1874cd" stroke="black" cx="58.8677" cy="-96.8358" rx="5" ry="5"/>
<text text-anchor="middle" x="58.8677" y="-95.5358" font-family="monospace" font-size="6.00">2</text>
</g>
<!-- 0&#45;&gt;23 -->
<g id="edge27" class="edge"><title>0&#45;&gt;23</title>
<path fill="none" stroke="black" d="M20.7758,-40.3886C32.6701,-58.0145 45.745,-77.3898 53.0661,-88.2386"/>
<polygon fill="black" stroke="black" points="51.7525,-89.4206 56,-92.5863 54.6537,-87.4628 51.7525,-89.4206"/>
<text text-anchor="middle" x="57.9209" y="-59.5136" font-family="monospace" font-size="6.00">2374818:A&gt;G</text>
</g>
<!-- 24 -->
<g id="node25" class="node"><title>24</title>
<ellipse fill="#1874cd" stroke="black" cx="-28.9999" cy="-81.1164" rx="3.5" ry="3.5"/>
</g>
<!-- 0&#45;&gt;24 -->
<g id="edge28" class="edge"><title>0&#45;&gt;24</title>
<path fill="none" stroke="black" d="M-18.4164,-46.2501C-21.4379,-56.2041 -24.3389,-65.7612 -26.3371,-72.3438"/>
<polygon fill="black" stroke="black" points="-28.118,-72.1863 -27.8958,-77.479 -24.7689,-73.2029 -28.118,-72.1863"/>
<text text-anchor="middle" x="-43.3767" y="-61.497" font-family="monospace" font-size="6.00">2359611:C&gt;A</text>
</g>
<!-- 26 -->
<g id="node27" class="node"><title>26</title>
<ellipse fill="#1874cd" stroke="black" cx="80.0471" cy="-71.4064" rx="3.5" ry="3.5"/>
</g>
<!-- 0&#45;&gt;26 -->
<g id="edge31" class="edge"><title>0&#45;&gt;26</title>
<path fill="none" stroke="black" d="M31.0507,-31.5202C46.7855,-44.3294 63.7274,-58.1212 72.9925,-65.6636"/>
<polygon fill="black" stroke="black" points="72.1083,-67.2003 77.0908,-68.9998 74.318,-64.486 72.1083,-67.2003"/>
<text text-anchor="middle" x="61.5216" y="-43.7919" font-family="monospace" font-size="6.00">A837V</text>
</g>
<!-- 27 -->
<g id="node28" class="node"><title>27</title>
<ellipse fill="olivedrab" stroke="black" cx="-60.1359" cy="-25.7564" rx="3.5" ry="3.5"/>
</g>
<!-- 0&#45;&gt;27 -->
<g id="edge32" class="edge"><title>0&#45;&gt;27</title>
<path fill="none" stroke="black" d="M-47.3549,-20.281C-48.9735,-20.9744 -50.4956,-21.6264 -51.8859,-22.2221"/>
<polygon fill="black" stroke="black" points="-52.6134,-20.6298 -56.5202,-24.2074 -51.2351,-23.847 -52.6134,-20.6298"/>
<text text-anchor="middle" x="-70.6204" y="-23.4515" font-family="monospace" font-size="6.00">2393383:A&gt;G</text>
</g>
<!-- 28 -->
<g id="node29" class="node"><title>28</title>
<ellipse fill="olivedrab" stroke="black" cx="-27.2652" cy="72.3386" rx="3.5" ry="3.5"/>
</g>
<!-- 0&#45;&gt;28 -->
<g id="edge33" class="edge"><title>0&#45;&gt;28</title>
<path fill="none" stroke="black" d="M-18.2211,42.0418C-20.746,50.5001 -23.123,58.4628 -24.806,64.1005"/>
<polygon fill="black" stroke="black" points="-23.1301,64.6049 -26.2373,68.8953 -26.4839,63.6037 -23.1301,64.6049"/>
<text text-anchor="middle" x="-42.5135" y="57.8711" font-family="monospace" font-size="6.00">2404453:C&gt;A</text>
</g>
<!-- anon_0_6_0 -->
<g id="node30" class="node"><title>anon_0_6_0</title>
<ellipse fill="white" stroke="black" cx="-57.8971" cy="109.659" rx="2.5" ry="2.5"/>
</g>
<!-- 0&#45;&gt;anon_0_6_0 -->
<g id="edge6" class="edge"><title>0&#45;&gt;anon_0_6_0</title>
<path fill="none" stroke="black" d="M-24.7154,39.4842C-35.7135,62.7434 -48.3817,89.5348 -54.3879,102.237"/>
<polygon fill="black" stroke="black" points="-52.9294,103.247 -56.6488,107.019 -56.0935,101.75 -52.9294,103.247"/>
<text text-anchor="middle" x="-60.5517" y="75.6607" font-family="monospace" font-size="6.00">2360542:T&gt;G</text>
</g>
<!-- anon_0_12_0 -->
<g id="node33" class="node"><title>anon_0_12_0</title>
<ellipse fill="white" stroke="black" cx="10.5049" cy="-128.129" rx="2.5" ry="2.5"/>
</g>
<!-- 0&#45;&gt;anon_0_12_0 -->
<g id="edge14" class="edge"><title>0&#45;&gt;anon_0_12_0</title>
<path fill="none" stroke="black" d="M0.622765,-47.987C3.93232,-74.8268 7.79643,-106.164 9.55122,-120.395"/>
<polygon fill="black" stroke="black" points="7.81753,-120.635 10.1664,-125.384 11.2912,-120.207 7.81753,-120.635"/>
<text text-anchor="middle" x="26.087" y="-79.391" font-family="monospace" font-size="6.00">2407594:A&gt;C</text>
</g>
<!-- anon_0_18_0 -->
<g id="node35" class="node"><title>anon_0_18_0</title>
<ellipse fill="white" stroke="black" cx="-73.006" cy="-106.1" rx="2.5" ry="2.5"/>
</g>
<!-- 0&#45;&gt;anon_0_18_0 -->
<g id="edge21" class="edge"><title>0&#45;&gt;anon_0_18_0</title>
<path fill="none" stroke="black" d="M-30.3414,-40.8565C-44.4825,-62.4816 -60.7711,-87.3906 -68.4939,-99.2005"/>
<polygon fill="black" stroke="black" points="-70.1291,-98.5036 -71.401,-103.646 -67.1998,-100.419 -70.1291,-98.5036"/>
<text text-anchor="middle" x="-28.4177" y="-72.2285" font-family="monospace" font-size="6.00">2415035:G&gt;T</text>
</g>
<!-- anon_0_25_0 -->
<g id="node36" class="node"><title>anon_0_25_0</title>
<ellipse fill="white" stroke="black" cx="12.0614" cy="114.351" rx="2.5" ry="2.5"/>
</g>
<!-- 0&#45;&gt;anon_0_25_0 -->
<g id="edge29" class="edge"><title>0&#45;&gt;anon_0_25_0</title>
<path fill="none" stroke="black" d="M1.67624,43.5608C5.14807,67.2266 9.04522,93.7916 10.9255,106.609"/>
<polygon fill="black" stroke="black" points="12.6815,106.522 11.6759,111.723 9.21856,107.03 12.6815,106.522"/>
<text text-anchor="middle" x="-14.6991" y="79.8848" font-family="monospace" font-size="6.00">2380868:T&gt;G</text>
</g>
<!-- anon_2_8_0 -->
<g id="node37" class="node"><title>anon_2_8_0</title>
<ellipse fill="white" stroke="black" cx="172.061" cy="-12.6597" rx="2.5" ry="2.5"/>
</g>
<!-- 2&#45;&gt;anon_2_8_0 -->
<g id="edge34" class="edge"><title>2&#45;&gt;anon_2_8_0</title>
<path fill="none" stroke="black" d="M128.319,-10.034C136.066,-10.499 154.049,-11.5785 164.384,-12.1988"/>
<polygon fill="black" stroke="black" points="164.354,-13.9501 169.45,-12.5029 164.564,-10.4564 164.354,-13.9501"/>
<text text-anchor="middle" x="167.352" y="-6.31641" font-family="monospace" font-size="6.00">2389737:G&gt;A</text>
</g>
<!-- 3 -->
<g id="node4" class="node"><title>3</title>
<ellipse fill="#1874cd" stroke="black" cx="-66.377" cy="-69.9358" rx="3.5" ry="3.5"/>
</g>
<!-- 3&#45;&gt;0 -->
<g id="edge3" class="edge"><title>3&#45;&gt;0</title>
<path fill="none" stroke="black" d="M-63.741,-67.0231C-59.2491,-62.0597 -49.6023,-51.4003 -39.4018,-40.129"/>
<polygon fill="black" stroke="black" points="-37.9854,-41.172 -35.9279,-36.2905 -40.5805,-38.8235 -37.9854,-41.172"/>
<text text-anchor="middle" x="-72.5714" y="-48.7761" font-family="monospace" font-size="6.00">2407178:G&gt;A</text>
</g>
<!-- 6 -->
<g id="node7" class="node"><title>6</title>
<ellipse fill="#1874cd" stroke="black" cx="-94.9803" cy="194.93" rx="3.5" ry="3.5"/>
</g>
<!-- 8 -->
<g id="node9" class="node"><title>8</title>
<ellipse fill="#1874cd" stroke="black" cx="259.683" cy="-14.9628" rx="3.5" ry="3.5"/>
</g>
<!-- 9 -->
<g id="node10" class="node"><title>9</title>
<ellipse fill="#1874cd" stroke="black" cx="87.0134" cy="59.3697" rx="5" ry="5"/>
<text text-anchor="middle" x="87.0134" y="60.6697" font-family="monospace" font-size="6.00">2</text>
</g>
<!-- 9&#45;&gt;0 -->
<g id="edge10" class="edge"><title>9&#45;&gt;0</title>
<path fill="none" stroke="black" d="M82.8193,56.5666C74.7141,51.1493 56.1057,38.7121 38.0922,26.6724"/>
<polygon fill="black" stroke="black" points="36.7166,27.8579 33.532,23.6245 38.6615,24.948 36.7166,27.8579"/>
<text text-anchor="middle" x="69.9557" y="46.4195" font-family="monospace" font-size="6.00">R254K</text>
</g>
<!-- 10 -->
<g id="node11" class="node"><title>10</title>
<ellipse fill="#1874cd" stroke="black" cx="98.0146" cy="133.081" rx="3.5" ry="3.5"/>
</g>
<!-- 11 -->
<g id="node12" class="node"><title>11</title>
<ellipse fill="#1874cd" stroke="black" cx="-127.865" cy="30.8323" rx="3.5" ry="3.5"/>
</g>
<!-- 11&#45;&gt;0 -->
<g id="edge13" class="edge"><title>11&#45;&gt;0</title>
<path fill="none" stroke="black" d="M-124.321,29.8808C-113.952,27.0968 -82.6412,18.6899 -54.6999,11.1877"/>
<polygon fill="black" stroke="black" points="-54.8105,9.40549 -49.5277,9.79899 -53.9028,12.7858 -54.8105,9.40549"/>
<text text-anchor="middle" x="-110.51" y="18.3343" font-family="monospace" font-size="6.00">2417678:T&gt;C</text>
</g>
<!-- anon_11_16_0 -->
<g id="node39" class="node"><title>anon_11_16_0</title>
<ellipse fill="white" stroke="black" cx="-175.485" cy="36.6984" rx="2.5" ry="2.5"/>
</g>
<!-- 11&#45;&gt;anon_11_16_0 -->
<g id="edge37" class="edge"><title>11&#45;&gt;anon_11_16_0</title>
<path fill="none" stroke="black" d="M-131.601,31.2926C-139.373,32.2499 -157.415,34.4724 -167.783,35.7496"/>
<polygon fill="black" stroke="black" points="-167.689,37.5012 -172.866,36.3757 -168.117,34.0274 -167.689,37.5012"/>
<text text-anchor="middle" x="-170.692" y="31.3211" font-family="monospace" font-size="6.00">2396175:A&gt;T</text>
</g>
<!-- 12 -->
<g id="node13" class="node"><title>12</title>
<ellipse fill="#1874cd" stroke="black" cx="24.0168" cy="-218.805" rx="3.5" ry="3.5"/>
</g>
<!-- 16 -->
<g id="node17" class="node"><title>16</title>
<ellipse fill="#1874cd" stroke="black" cx="-220.018" cy="44.032" rx="3.5" ry="3.5"/>
</g>
<!-- 18 -->
<g id="node19" class="node"><title>18</title>
<ellipse fill="#1874cd" stroke="black" cx="-105.645" cy="-141.56" rx="3.5" ry="3.5"/>
</g>
<!-- 25 -->
<g id="node26" class="node"><title>25</title>
<ellipse fill="#1874cd" stroke="black" cx="22.7066" cy="162.822" rx="3.5" ry="3.5"/>
</g>
<!-- 25&#45;&gt;anon_0_25_0 -->
<g id="edge30" class="edge"><title>25&#45;&gt;anon_0_25_0</title>
<path fill="none" stroke="black" d="M21.941,159.336C20.2355,151.57 16.0899,132.694 13.7468,122.025"/>
<polygon fill="black" stroke="black" points="12.0208,122.324 12.6575,117.065 15.4394,121.574 12.0208,122.324"/>
<text text-anchor="middle" x="-3.15611" y="138.481" font-family="monospace" font-size="6.00">2402774:T&gt;A</text>
</g>
<!-- anon_0_6_1 -->
<g id="node31" class="node"><title>anon_0_6_1</title>
<ellipse fill="white" stroke="black" cx="-78.2714" cy="152.282" rx="2.5" ry="2.5"/>
</g>
<!-- anon_0_6_0&#45;&gt;anon_0_6_1 -->
<g id="edge7" class="edge"><title>anon_0_6_0&#45;&gt;anon_0_6_1</title>
<path fill="none" stroke="black" d="M-58.9925,111.95C-61.9495,118.136 -70.1866,135.369 -74.8815,145.19"/>
<polygon fill="black" stroke="black" points="-73.3339,146.011 -77.0692,149.767 -76.4917,144.501 -73.3339,146.011"/>
<text text-anchor="middle" x="-87.937" y="126.37" font-family="monospace" font-size="6.00">2417114:T&gt;A</text>
</g>
<!-- anon_0_6_1&#45;&gt;6 -->
<g id="edge8" class="edge"><title>anon_0_6_1&#45;&gt;6</title>
<path fill="none" stroke="black" d="M-79.2666,154.822C-81.6851,160.995 -87.9551,176.999 -91.804,186.823"/>
<polygon fill="black" stroke="black" points="-90.2,187.526 -93.6534,191.543 -93.4588,186.249 -90.2,187.526"/>
<text text-anchor="middle" x="-106.535" y="168.623" font-family="monospace" font-size="6.00">2417148:C&gt;T</text>
</g>
<!-- anon_0_10_0 -->
<g id="node32" class="node"><title>anon_0_10_0</title>
<ellipse fill="white" stroke="black" cx="65.5408" cy="95.8392" rx="2.5" ry="2.5"/>
</g>
<!-- anon_0_10_0&#45;&gt;0 -->
<g id="edge11" class="edge"><title>anon_0_10_0&#45;&gt;0</title>
<path fill="none" stroke="black" d="M64.0668,93.7926C58.924,86.6517 41.2063,62.0504 25.0012,39.5493"/>
<polygon fill="black" stroke="black" points="23.4983,40.457 21.9963,35.377 26.3384,38.4116 23.4983,40.457"/>
<text text-anchor="middle" x="65.534" y="71.471" font-family="monospace" font-size="6.00">2392093:A&gt;T</text>
</g>
<!-- anon_0_10_0&#45;&gt;10 -->
<g id="edge12" class="edge"><title>anon_0_10_0&#45;&gt;10</title>
<path fill="none" stroke="black" d="M67.2867,97.8415C71.8219,103.042 84.1497,117.18 91.741,125.886"/>
<polygon fill="black" stroke="black" points="93.4244,125.154 95.3915,130.072 90.7864,127.454 93.4244,125.154"/>
<text text-anchor="middle" x="58.5139" y="109.664" font-family="monospace" font-size="6.00">2399127:G&gt;A</text>
</g>
<!-- anon_0_12_1 -->
<g id="node34" class="node"><title>anon_0_12_1</title>
<ellipse fill="white" stroke="black" cx="17.8935" cy="-174.077" rx="2.5" ry="2.5"/>
</g>
<!-- anon_0_12_0&#45;&gt;anon_0_12_1 -->
<g id="edge15" class="edge"><title>anon_0_12_0&#45;&gt;anon_0_12_1</title>
<path fill="none" stroke="black" d="M10.9022,-130.6C11.9646,-137.206 14.9065,-155.501 16.6166,-166.136"/>
<polygon fill="black" stroke="black" points="14.9359,-166.707 17.4576,-171.366 18.3915,-166.151 14.9359,-166.707"/>
<text text-anchor="middle" x="-7.24063" y="-150.568" font-family="monospace" font-size="6.00">2407598:C&gt;G</text>
</g>
<!-- anon_0_12_1&#45;&gt;12 -->
<g id="edge16" class="edge"><title>anon_0_12_1&#45;&gt;12</title>
<path fill="none" stroke="black" d="M18.2582,-176.741C19.1364,-183.155 21.3999,-199.689 22.8135,-210.015"/>
<polygon fill="black" stroke="black" points="21.1185,-210.537 23.5306,-215.253 24.5862,-210.062 21.1185,-210.537"/>
<text text-anchor="middle" x="-0.464156" y="-195.578" font-family="monospace" font-size="6.00">2417108:A&gt;G</text>
</g>
<!-- anon_0_18_0&#45;&gt;18 -->
<g id="edge22" class="edge"><title>anon_0_18_0&#45;&gt;18</title>
<path fill="none" stroke="black" d="M-74.7608,-108.007C-79.3191,-112.959 -91.7098,-126.42 -99.3397,-134.709"/>
<polygon fill="black" stroke="black" points="-100.91,-133.831 -103.009,-138.695 -98.335,-136.202 -100.91,-133.831"/>
<text text-anchor="middle" x="-108.05" y="-123.558" font-family="monospace" font-size="6.00">2420686:G&gt;A</text>
</g>
<!-- anon_2_8_1 -->
<g id="node38" class="node"><title>anon_2_8_1</title>
<ellipse fill="white" stroke="black" cx="215.867" cy="-15.327" rx="2.5" ry="2.5"/>
</g>
<!-- anon_2_8_0&#45;&gt;anon_2_8_1 -->
<g id="edge35" class="edge"><title>anon_2_8_0&#45;&gt;anon_2_8_1</title>
<path fill="none" stroke="black" d="M174.67,-12.8185C181.138,-13.2123 198.11,-14.2458 208.137,-14.8563"/>
<polygon fill="black" stroke="black" points="208.229,-16.6151 213.327,-15.1723 208.442,-13.1216 208.229,-16.6151"/>
<text text-anchor="middle" x="212.404" y="-9.03743" font-family="monospace" font-size="6.00">2423538:A&gt;G</text>
</g>
<!-- anon_2_8_1&#45;&gt;8 -->
<g id="edge36" class="edge"><title>anon_2_8_1&#45;&gt;8</title>
<path fill="none" stroke="black" d="M218.477,-15.3053C224.699,-15.2536 240.641,-15.1211 250.773,-15.0369"/>
<polygon fill="black" stroke="black" points="250.964,-16.7854 255.949,-14.9938 250.935,-13.2855 250.964,-16.7854"/>
<text text-anchor="middle" x="213.625" y="-17.3711" font-family="monospace" font-size="6.00">2423850:G&gt;T</text>
</g>
<!-- anon_11_16_0&#45;&gt;16 -->
<g id="edge38" class="edge"><title>anon_11_16_0&#45;&gt;16</title>
<path fill="none" stroke="black" d="M-178.138,37.1351C-184.524,38.1868 -200.986,40.8978 -211.266,42.5908"/>
<polygon fill="black" stroke="black" points="-211.264,44.3639 -216.482,43.4497 -211.833,40.9104 -211.264,44.3639"/>
<text text-anchor="middle" x="-215.702" y="37.663" font-family="monospace" font-size="6.00">2401282:C&gt;T</text>
</g>
</g>
</svg>
