<?xml version="1.0" encoding="UTF-8" standalone="no"?>
<!DOCTYPE svg PUBLIC "-//W3C//DTD SVG 1.1//EN"
 "http://www.w3.org/Graphics/SVG/1.1/DTD/svg11.dtd">
<!-- Generated by graphviz version 2.38.0 (20140413.2041)
 -->
<!-- Title: %3 Pages: 1 -->
<svg width="166pt" height="156pt"
 viewBox="0.00 0.00 166.29 156.23" xmlns="http://www.w3.org/2000/svg" xmlns:xlink="http://www.w3.org/1999/xlink">
<g id="graph0" class="graph" transform="scale(1 1) rotate(0) translate(84.2844 72.5217)">
<title>%3</title>
<polygon fill="white" stroke="none" points="-84.2844,83.7086 -84.2844,-72.5217 82.0009,-72.5217 82.0009,83.7086 -84.2844,83.7086"/>
<!-- 0 -->
<g id="node1" class="node"><title>0</title>
<path fill="#1874cd" stroke="black" stroke-width="0.5" d="M-0.762809,-0.870428C-0.762809,-0.870428 18.2372,-0.870428 18.2372,-0.870428 18.2372,-1.59414 18.1958,-2.31727 18.1133,-3.03627 18.0308,-3.75526 17.9073,-4.46896 17.7434,-5.17387 17.5795,-5.87877 17.3754,-6.57374 17.1322,-7.25537 16.889,-7.93699 16.6071,-8.60417 16.2878,-9.25363 15.9684,-9.90309 15.6123,-10.5338 15.221,-11.1426 14.8297,-11.7514 14.404,-12.3374 13.9459,-12.8977 13.4878,-13.4579 12.998,-13.9915 12.479,-14.4959 11.96,-15.0003 11.4126,-15.4746 10.8395,-15.9166 10.8395,-15.9166 -0.762809,-0.870428 -0.762809,-0.870428"/>
<path fill="olivedrab" stroke="black" stroke-width="0.5" d="M-0.762809,-0.870428C-0.762809,-0.870428 10.8395,-15.9166 10.8395,-15.9166 9.99748,-16.5659 9.10244,-17.1433 8.16381,-17.6429 7.22517,-18.1424 6.24626,-18.5623 5.23738,-18.8981 4.22851,-19.2339 3.19322,-19.4844 2.14243,-19.647 1.09165,-19.8096 0.0290636,-19.8837 -1.03412,-19.8685 -2.0973,-19.8533 -3.15733,-19.7489 -4.20305,-19.5564 -5.24876,-19.3639 -6.27648,-19.0839 -7.27535,-18.7194 -8.27423,-18.355 -9.24075,-17.9073 -10.1647,-17.3811 -11.0887,-16.855 -11.9669,-16.2522 -12.79,-15.5791 -13.6132,-14.906 -14.3784,-14.1651 -15.0775,-13.364 -15.7767,-12.5629 -16.4074,-11.7045 -16.963,-10.7979 -17.5185,-9.8913 -17.997,-8.93965 -18.3934,-7.953 -18.7897,-6.96635 -19.1026,-5.94816 -19.3286,-4.90917 -19.5546,-3.87018 -19.693,-2.81405 -19.7424,-1.7519 -19.7917,-0.689755 -19.7518,0.37466 -19.623,1.43013 -19.4943,2.48559 -19.2772,3.52839 -18.9739,4.54754 -18.6707,5.56668 -18.2825,6.55858 -17.8134,7.51277 -17.3442,8.46697 -16.7958,9.3801 -16.1739,10.2425 -15.552,11.105 -14.8588,11.9137 -14.1016,12.6602 -13.3444,13.4067 -12.5258,14.0882 -11.6546,14.6978 -10.7833,15.3073 -9.86248,15.8426 -8.90168,16.2981 -7.94088,16.7536 -6.94355,17.1276 -5.92018,17.4162 -4.89681,17.7048 -3.85101,17.907 -2.79382,18.0207 -1.73662,18.1344 -0.671742,18.1591 0.389591,18.0946 1.45092,18.0301 2.50497,17.8766 3.54063,17.6358 4.57629,17.395 5.5899,17.0676 6.5708,16.6572 7.55169,16.2468 8.4964,15.7548 9.39498,15.1863 10.2936,14.6179 11.1428,13.975 11.9339,13.2644 12.7249,12.5539 13.4549,11.7782 14.1161,10.9455 14.7774,10.1129 15.3676,9.22618 15.8805,8.29478 16.3934,7.36337 16.8272,6.39056 17.1774,5.38658 17.5275,4.3826 17.7928,3.35099 17.9704,2.30264 18.1479,1.25428 18.2372,0.192862 18.2372,-0.870428 18.2372,-0.870428 -0.762809,-0.870428 -0.762809,-0.870428"/>
<ellipse fill="none" stroke="black" cx="-0.762809" cy="-0.870428" rx="19" ry="19"/>
<text text-anchor="middle" x="-0.762809" y="0.429572" font-family="monospace" font-size="6.00">55</text>
</g>
<!-- 2 -->
<g id="node3" class="node"><title>2</title>
<ellipse fill="olivedrab" stroke="black" cx="-16.4786" cy="72.2086" rx="7.5" ry="7.5"/>
<text text-anchor="middle" x="-16.4786" y="73.5086" font-family="monospace" font-size="6.00">9</text>
</g>
<!-- 0&#45;&gt;2 -->
<g id="edge2" class="edge"><title>0&#45;&gt;2</title>
<path fill="none" stroke="black" d="M-4.81001,17.9492C-7.62368,31.0329 -11.2974,48.1159 -13.7645,59.5881"/>
<polygon fill="black" stroke="black" points="-12.1075,60.2067 -14.8697,64.727 -15.5292,59.4708 -12.1075,60.2067"/>
<text text-anchor="middle" x="-30.8598" y="39.2311" font-family="monospace" font-size="6.00">2366965:T&gt;G</text>
</g>
<!-- 3 -->
<g id="node4" class="node"><title>3</title>
<ellipse fill="olivedrab" stroke="black" cx="-60.6985" cy="-29.9364" rx="2.5" ry="2.5"/>
</g>
<!-- 0&#45;&gt;3 -->
<g id="edge3" class="edge"><title>0&#45;&gt;3</title>
<path fill="none" stroke="black" d="M-18.0987,-9.27751C-29.7843,-14.9445 -44.6065,-22.1325 -53.3313,-26.3637"/>
<polygon fill="black" stroke="black" points="-54.5487,-25.0091 -58.284,-28.7655 -53.0215,-28.1583 -54.5487,-25.0091"/>
<text text-anchor="middle" x="-59.2844" y="-21.2666" font-family="monospace" font-size="6.00">2383492:G&gt;A</text>
</g>
<!-- 5 -->
<g id="node6" class="node"><title>5</title>
<ellipse fill="olivedrab" stroke="black" cx="-14.9338" cy="-66.0217" rx="2.5" ry="2.5"/>
</g>
<!-- 0&#45;&gt;5 -->
<g id="edge5" class="edge"><title>0&#45;&gt;5</title>
<path fill="none" stroke="black" d="M-4.86165,-19.7149C-7.65113,-32.5395 -11.1965,-48.8395 -13.2511,-58.2852"/>
<polygon fill="black" stroke="black" points="-15.0102,-58.1394 -14.363,-63.3971 -11.5902,-58.8833 -15.0102,-58.1394"/>
<text text-anchor="middle" x="-30.6105" y="-43.7479" font-family="monospace" font-size="6.00">2380627:C&gt;A</text>
</g>
<!-- 6 -->
<g id="node7" class="node"><title>6</title>
<ellipse fill="olivedrab" stroke="black" cx="-59.5707" cy="27.9404" rx="2.5" ry="2.5"/>
</g>
<!-- 0&#45;&gt;6 -->
<g id="edge6" class="edge"><title>0&#45;&gt;6</title>
<path fill="none" stroke="black" d="M-18.089,7.61793C-29.5407,13.2283 -43.9505,20.2878 -52.4221,24.4382"/>
<polygon fill="black" stroke="black" points="-51.969,26.1649 -57.229,26.7932 -53.5089,23.0218 -51.969,26.1649"/>
<text text-anchor="middle" x="-58.5109" y="14.933" font-family="monospace" font-size="6.00">2359596:T&gt;C</text>
</g>
<!-- 7 -->
<g id="node8" class="node"><title>7</title>
<ellipse fill="olivedrab" stroke="black" cx="39.7598" cy="49.397" rx="2.5" ry="2.5"/>
</g>
<!-- 0&#45;&gt;7 -->
<g id="edge7" class="edge"><title>0&#45;&gt;7</title>
<path fill="none" stroke="black" d="M11.1761,13.9396C19.0671,23.7281 28.9965,36.0453 34.834,43.2866"/>
<polygon fill="black" stroke="black" points="36.3706,42.4044 38.1463,47.3954 33.6458,44.6011 36.3706,42.4044"/>
<text text-anchor="middle" x="15.0591" y="28.3409" font-family="monospace" font-size="6.00">K251R</text>
</g>
<!-- 1 -->
<g id="node2" class="node"><title>1</title>
<ellipse fill="olivedrab" stroke="black" cx="72.0009" cy="-0.802179" rx="6" ry="6"/>
<text text-anchor="middle" x="72.0009" y="0.497821" font-family="monospace" font-size="6.00">6</text>
</g>
<!-- 1&#45;&gt;0 -->
<g id="edge1" class="edge"><title>1&#45;&gt;0</title>
<path fill="none" stroke="black" d="M65.7971,-0.807998C56.5532,-0.816668 38.6529,-0.833458 23.7421,-0.847444"/>
<polygon fill="black" stroke="black" points="23.4039,0.902333 18.4055,-0.852449 23.4072,-2.59767 23.4039,0.902333"/>
<text text-anchor="middle" x="41.8901" y="3.96958" font-family="monospace" font-size="6.00">2392571:T&gt;C</text>
</g>
<!-- 4 -->
<g id="node5" class="node"><title>4</title>
<ellipse fill="olivedrab" stroke="black" cx="40.6836" cy="-51.9153" rx="2.5" ry="2.5"/>
</g>
<!-- 4&#45;&gt;0 -->
<g id="edge4" class="edge"><title>4&#45;&gt;0</title>
<path fill="none" stroke="black" d="M38.9027,-49.722C34.7076,-44.5554 23.8573,-31.1923 14.5636,-19.7462"/>
<polygon fill="black" stroke="black" points="15.7355,-18.4132 11.2252,-15.6347 13.0184,-20.6194 15.7355,-18.4132"/>
<text text-anchor="middle" x="4.0243" y="-34.8295" font-family="monospace" font-size="6.00">2395858:T&gt;G</text>
</g>
</g>
</svg>
