<?xml version="1.0" encoding="UTF-8" standalone="no"?>
<!DOCTYPE svg PUBLIC "-//W3C//DTD SVG 1.1//EN"
 "http://www.w3.org/Graphics/SVG/1.1/DTD/svg11.dtd">
<!-- Generated by graphviz version 2.38.0 (20140413.2041)
 -->
<!-- Title: %3 Pages: 1 -->
<svg width="492pt" height="435pt"
 viewBox="0.00 0.00 491.96 435.16" xmlns="http://www.w3.org/2000/svg" xmlns:xlink="http://www.w3.org/1999/xlink">
<g id="graph0" class="graph" transform="scale(1 1) rotate(0) translate(263.441 231.135)">
<title>%3</title>
<polygon fill="white" stroke="none" points="-263.441,204.03 -263.441,-231.135 228.518,-231.135 228.518,204.03 -263.441,204.03"/>
<!-- 0 -->
<g id="node1" class="node"><title>0</title>
<path fill="#98f5ff" stroke="black" stroke-width="0.5" d="M-36.5073,103.802C-36.5073,103.802 -18.5073,103.802 -18.5073,103.802 -18.5073,102.764 -18.5969,101.729 -18.7753,100.707 -18.9536,99.6852 -19.22,98.6806 -19.5714,97.7045 -19.9228,96.7285 -20.3579,95.7847 -20.8719,94.8836 -21.3859,93.9825 -21.9768,93.1275 -22.638,92.3282 -23.2993,91.5289 -24.0284,90.7882 -24.8172,90.1145 -25.606,89.4408 -26.4516,88.8365 -27.3445,88.3085 -28.2374,87.7804 -29.1743,87.3305 -30.1447,86.9638 -31.1151,86.5971 -32.1154,86.315 -33.1344,86.1207 -33.1344,86.1207 -36.5073,103.802 -36.5073,103.802"/>
<path fill="deepskyblue" stroke="black" stroke-width="0.5" d="M-36.5073,103.802C-36.5073,103.802 -33.1344,86.1207 -33.1344,86.1207 -34.0375,85.9484 -34.9524,85.8456 -35.8712,85.8131 -36.79,85.7806 -37.7099,85.8185 -38.6229,85.9266 -39.5359,86.0347 -40.4393,86.2125 -41.3251,86.4586 -42.2109,86.7047 -43.0766,87.0182 -43.9145,87.3966 -44.7524,87.7749 -45.5601,88.2169 -46.3305,88.7186 -47.1009,89.2203 -47.8317,89.7803 -48.5165,90.3937 -49.2014,91.0071 -49.8382,91.6721 -50.4214,92.3827 -51.0047,93.0934 -51.5326,93.8477 -52.0006,94.6391 -52.4686,95.4304 -52.8753,96.2564 -53.2171,97.1099 -53.5589,97.9634 -53.8348,98.8418 -54.0424,99.7374 -54.25,100.633 -54.3886,101.543 -54.4572,102.46 -54.5257,103.377 -54.5239,104.298 -54.4518,105.214 -54.3796,106.131 -54.2374,107.04 -54.0263,107.935 -53.8152,108.83 -53.5358,109.707 -53.1907,110.559 -52.8455,111.411 -52.4356,112.236 -51.9645,113.025 -51.4934,113.815 -50.9625,114.567 -50.3765,115.275 -49.7905,115.984 -49.151,116.646 -48.4638,117.257 -47.7766,117.868 -47.0436,118.425 -46.2712,118.924 -45.4989,119.422 -44.6894,119.861 -43.85,120.236 -43.0106,120.611 -42.1438,120.921 -41.257,121.164 -40.3702,121.406 -39.4661,121.581 -38.5527,121.685 -37.6393,121.79 -36.7192,121.824 -35.8006,121.788 -34.8819,121.752 -33.9674,121.645 -33.065,121.47 -32.1626,121.294 -31.275,121.049 -30.41,120.738 -29.545,120.426 -28.7051,120.049 -27.8977,119.609 -27.0903,119.17 -26.3178,118.669 -25.587,118.111 -24.8561,117.553 -24.1691,116.94 -23.5319,116.277 -22.8947,115.615 -22.3092,114.904 -21.7806,114.152 -21.2519,113.4 -20.7817,112.608 -20.374,111.784 -19.9663,110.96 -19.6223,110.106 -19.3451,109.23 -19.0679,108.353 -18.8582,107.456 -18.7179,106.548 -18.5777,105.639 -18.5073,104.721 -18.5073,103.802 -18.5073,103.802 -36.5073,103.802 -36.5073,103.802"/>
<ellipse fill="none" stroke="black" cx="-36.5073" cy="103.802" rx="18" ry="18"/>
<text text-anchor="middle" x="-36.5073" y="105.102" font-family="monospace" font-size="6.00">50</text>
</g>
<!-- 22 -->
<g id="node23" class="node"><title>22</title>
<ellipse fill="deepskyblue" stroke="black" cx="-109.404" cy="106.762" rx="2.5" ry="2.5"/>
</g>
<!-- 0&#45;&gt;22 -->
<g id="edge3" class="edge"><title>0&#45;&gt;22</title>
<path fill="none" stroke="black" d="M-54.5267,104.534C-69.61,105.146 -90.4074,105.99 -101.57,106.444"/>
<polygon fill="black" stroke="black" points="-101.615,108.197 -106.682,106.651 -101.757,104.7 -101.615,108.197"/>
<text text-anchor="middle" x="-88.3121" y="103.381" font-family="monospace" font-size="6.00">P55L</text>
</g>
<!-- 1 -->
<g id="node2" class="node"><title>1</title>
<ellipse fill="deepskyblue" stroke="black" cx="20.6911" cy="-117.259" rx="2.5" ry="2.5"/>
</g>
<!-- 2 -->
<g id="node3" class="node"><title>2</title>
<ellipse fill="#ff3030" stroke="black" cx="30.6492" cy="82.7939" rx="10" ry="10"/>
<text text-anchor="middle" x="30.6492" y="84.0939" font-family="monospace" font-size="6.00">15</text>
</g>
<!-- 3 -->
<g id="node4" class="node"><title>3</title>
<path fill="#1874cd" stroke="black" stroke-width="0.5" d="M-38.3449,-90.821C-38.3449,-90.821 -14.3449,-90.821 -14.3449,-90.821 -14.3449,-91.7288 -14.3965,-92.6359 -14.4992,-93.5379 -14.602,-94.4399 -14.7559,-95.3353 -14.9601,-96.2198 -15.1643,-97.1044 -15.4185,-97.9766 -15.7216,-98.8324 -16.0246,-99.6881 -16.3759,-100.526 -16.7739,-101.342 -17.1718,-102.158 -17.6158,-102.951 -18.1036,-103.716 -18.5913,-104.482 -19.1221,-105.219 -19.6934,-105.925 -20.2647,-106.63 -20.8756,-107.303 -21.5231,-107.939 -22.1706,-108.575 -22.8537,-109.174 -23.5691,-109.733 -24.2844,-110.292 -25.0309,-110.81 -25.805,-111.284 -26.579,-111.759 -27.3793,-112.189 -28.2021,-112.572 -29.0249,-112.956 -29.8687,-113.293 -30.7296,-113.581 -31.5905,-113.869 -32.4671,-114.108 -33.3551,-114.297 -34.243,-114.485 -35.141,-114.624 -36.0446,-114.711 -36.9483,-114.798 -37.8561,-114.833 -38.7638,-114.817 -39.6715,-114.802 -40.5775,-114.734 -41.4776,-114.616 -42.3776,-114.497 -43.2702,-114.328 -44.1511,-114.108 -44.1511,-114.108 -38.3449,-90.821 -38.3449,-90.821"/>
<path fill="#ff3030" stroke="black" stroke-width="0.5" d="M-38.3449,-90.821C-38.3449,-90.821 -44.1511,-114.108 -44.1511,-114.108 -45.2014,-113.846 -46.2329,-113.514 -47.2383,-113.112 -48.2438,-112.711 -49.2209,-112.243 -50.1631,-111.71 -51.1053,-111.176 -52.0103,-110.58 -52.872,-109.925 -53.7337,-109.27 -54.5501,-108.557 -55.3155,-107.792 -56.081,-107.026 -56.7938,-106.21 -57.449,-105.348 -58.1042,-104.486 -58.7004,-103.581 -59.2335,-102.639 -59.7665,-101.697 -60.2352,-100.72 -60.6364,-99.7144 -61.0375,-98.7089 -61.3702,-97.6775 -61.632,-96.6271 -61.8939,-95.5768 -62.0844,-94.5099 -62.2023,-93.4338 -62.3201,-92.3577 -62.3651,-91.2749 -62.3367,-90.1928 -62.3084,-89.1106 -62.2069,-88.0316 -62.0329,-86.9632 -61.8589,-85.8947 -61.6128,-84.8393 -61.2963,-83.8041 -60.9798,-82.7689 -60.5936,-81.7563 -60.1404,-80.7732 -59.6872,-79.7901 -59.168,-78.8388 -58.5863,-77.9258 -58.0047,-77.0128 -57.362,-76.1402 -56.6625,-75.314 -55.9631,-74.4878 -55.2085,-73.7099 -54.4041,-72.9855 -54.4041,-72.9855 -38.3449,-90.821 -38.3449,-90.821"/>
<path fill="#98f5ff" stroke="black" stroke-width="0.5" d="M-38.3449,-90.821C-38.3449,-90.821 -54.4041,-72.9855 -54.4041,-72.9855 -53.8852,-72.5183 -53.3461,-72.074 -52.7885,-71.6538 -52.2309,-71.2335 -51.6551,-70.8379 -51.063,-70.4679 -50.4709,-70.0978 -49.8629,-69.7539 -49.2407,-69.4369 -48.6186,-69.1199 -47.9829,-68.8302 -47.3355,-68.5686 -47.3355,-68.5686 -38.3449,-90.821 -38.3449,-90.821"/>
<path fill="deepskyblue" stroke="black" stroke-width="0.5" d="M-38.3449,-90.821C-38.3449,-90.821 -47.3355,-68.5686 -47.3355,-68.5686 -46.429,-68.2024 -45.501,-67.8918 -44.5566,-67.6388 -43.6122,-67.3857 -42.6533,-67.1906 -41.6851,-67.0546 -40.7169,-66.9185 -39.7413,-66.8417 -38.7638,-66.8247 -37.7863,-66.8076 -36.8086,-66.8503 -35.8363,-66.9525 -34.8639,-67.0547 -33.8987,-67.2162 -32.9461,-67.4361 -31.9935,-67.6561 -31.0552,-67.934 -30.1365,-68.2684 -29.2177,-68.6028 -28.3203,-68.993 -27.4492,-69.4369 -26.578,-69.8807 -25.7349,-70.3774 -24.9243,-70.9241 -24.1138,-71.4708 -23.3374,-72.0666 -22.5995,-72.708 -21.8617,-73.3494 -21.1637,-74.0353 -20.5095,-74.7619 -19.8553,-75.4884 -19.2461,-76.2543 -18.6853,-77.0552 -18.1245,-77.8561 -17.6132,-78.6904 -17.1542,-79.5537 -16.6952,-80.4169 -16.2894,-81.3074 -15.939,-82.2202 -15.5886,-83.1329 -15.2944,-84.0662 -15.0578,-85.0149 -14.8213,-85.9635 -14.643,-86.9257 -14.5238,-87.8961 -14.4047,-88.8666 -14.3449,-89.8433 -14.3449,-90.821 -14.3449,-90.821 -38.3449,-90.821 -38.3449,-90.821"/>
<ellipse fill="none" stroke="black" cx="-38.3449" cy="-90.821" rx="24" ry="24"/>
<text text-anchor="middle" x="-38.3449" y="-89.521" font-family="monospace" font-size="6.00">90</text>
</g>
<!-- 3&#45;&gt;1 -->
<g id="edge4" class="edge"><title>3&#45;&gt;1</title>
<path fill="none" stroke="black" d="M-16.3621,-100.665C-5.70359,-105.439 6.35964,-110.841 13.7457,-114.148"/>
<polygon fill="black" stroke="black" points="13.1028,-115.778 18.3814,-116.224 14.5333,-112.584 13.1028,-115.778"/>
<text text-anchor="middle" x="21.9024" y="-103.597" font-family="monospace" font-size="6.00">2381352:C&gt;A</text>
</g>
<!-- 10 -->
<g id="node11" class="node"><title>10</title>
<ellipse fill="#ff3030" stroke="black" cx="-70.4304" cy="-58.6821" rx="2.5" ry="2.5"/>
</g>
<!-- 3&#45;&gt;10 -->
<g id="edge7" class="edge"><title>3&#45;&gt;10</title>
<path fill="none" stroke="black" d="M-55.5149,-73.6225C-58.7928,-70.3392 -62.0076,-67.119 -64.6083,-64.5139"/>
<polygon fill="black" stroke="black" points="-63.7364,-62.9103 -68.5075,-60.6082 -66.2134,-65.3832 -63.7364,-62.9103"/>
<text text-anchor="middle" x="-83.007" y="-69.3195" font-family="monospace" font-size="6.00">2384174:T&gt;A</text>
</g>
<!-- 15 -->
<g id="node16" class="node"><title>15</title>
<ellipse fill="#ff3030" stroke="black" cx="-1.68197" cy="-101.791" rx="2.5" ry="2.5"/>
</g>
<!-- 3&#45;&gt;15 -->
<g id="edge8" class="edge"><title>3&#45;&gt;15</title>
<path fill="none" stroke="black" d="M-15.3339,-97.7061C-13.2838,-98.3195 -11.3173,-98.9079 -9.54675,-99.4377"/>
<polygon fill="black" stroke="black" points="-9.73701,-101.207 -4.44516,-100.964 -8.73368,-97.8542 -9.73701,-101.207"/>
<text text-anchor="middle" x="-0.380995" y="-94.5377" font-family="monospace" font-size="6.00">M704V</text>
</g>
<!-- 17 -->
<g id="node18" class="node"><title>17</title>
<ellipse fill="deepskyblue" stroke="black" cx="-69.6505" cy="-133.143" rx="2.5" ry="2.5"/>
</g>
<!-- 3&#45;&gt;17 -->
<g id="edge9" class="edge"><title>3&#45;&gt;17</title>
<path fill="none" stroke="black" d="M-52.898,-110.495C-57.2131,-116.329 -61.6403,-122.314 -64.859,-126.665"/>
<polygon fill="black" stroke="black" points="-66.4367,-125.855 -68.0033,-130.916 -63.6228,-127.937 -66.4367,-125.855"/>
<text text-anchor="middle" x="-39.4264" y="-122.873" font-family="monospace" font-size="6.00">2360189:T&gt;C</text>
</g>
<!-- 19 -->
<g id="node20" class="node"><title>19</title>
<ellipse fill="deepskyblue" stroke="black" cx="-100.971" cy="-128.095" rx="2.5" ry="2.5"/>
</g>
<!-- 3&#45;&gt;19 -->
<g id="edge10" class="edge"><title>3&#45;&gt;19</title>
<path fill="none" stroke="black" d="M-59.1986,-103.233C-71.2253,-110.391 -85.5778,-118.933 -93.9439,-123.913"/>
<polygon fill="black" stroke="black" points="-95.2759,-122.669 -98.6774,-126.73 -93.4857,-125.677 -95.2759,-122.669"/>
<text text-anchor="middle" x="-100.089" y="-117.271" font-family="monospace" font-size="6.00">2428653:T&gt;C</text>
</g>
<!-- 23 -->
<g id="node24" class="node"><title>23</title>
<ellipse fill="deepskyblue" stroke="black" cx="31.38" cy="-136.737" rx="2.5" ry="2.5"/>
</g>
<!-- 3&#45;&gt;23 -->
<g id="edge11" class="edge"><title>3&#45;&gt;23</title>
<path fill="none" stroke="black" d="M-18.1776,-104.102C-3.65582,-113.665 15.0298,-125.97 24.7848,-132.394"/>
<polygon fill="black" stroke="black" points="23.8642,-133.883 29.0026,-135.171 25.7892,-130.96 23.8642,-133.883"/>
<text text-anchor="middle" x="26.4519" y="-121.863" font-family="monospace" font-size="6.00">2359582:A&gt;G</text>
</g>
<!-- 27 -->
<g id="node28" class="node"><title>27</title>
<ellipse fill="deepskyblue" stroke="black" cx="-83.8449" cy="-94.4595" rx="2.5" ry="2.5"/>
</g>
<!-- 3&#45;&gt;27 -->
<g id="edge12" class="edge"><title>3&#45;&gt;27</title>
<path fill="none" stroke="black" d="M-62.4273,-92.7468C-67.4633,-93.1495 -72.4119,-93.5452 -76.2816,-93.8547"/>
<polygon fill="black" stroke="black" points="-76.4872,-92.1155 -81.3318,-94.2585 -76.2082,-95.6043 -76.4872,-92.1155"/>
<text text-anchor="middle" x="-83.4488" y="-88.7082" font-family="monospace" font-size="6.00">V1303A</text>
</g>
<!-- 28 -->
<g id="node29" class="node"><title>28</title>
<ellipse fill="deepskyblue" stroke="black" cx="-97.0174" cy="-46.8293" rx="2.5" ry="2.5"/>
</g>
<!-- 3&#45;&gt;28 -->
<g id="edge13" class="edge"><title>3&#45;&gt;28</title>
<path fill="none" stroke="black" d="M-57.5565,-76.4165C-69.0699,-67.7839 -82.9548,-57.3732 -90.8074,-51.4855"/>
<polygon fill="black" stroke="black" points="-89.7918,-50.0596 -94.842,-48.4603 -91.8914,-52.86 -89.7918,-50.0596"/>
<text text-anchor="middle" x="-97.1057" y="-57.7085" font-family="monospace" font-size="6.00">2421715:C&gt;T</text>
</g>
<!-- 31 -->
<g id="node32" class="node"><title>31</title>
<ellipse fill="#ff3030" stroke="black" cx="-10.7764" cy="-141.863" rx="2.5" ry="2.5"/>
</g>
<!-- 3&#45;&gt;31 -->
<g id="edge14" class="edge"><title>3&#45;&gt;31</title>
<path fill="none" stroke="black" d="M-26.8131,-112.172C-22.3848,-120.371 -17.6377,-129.16 -14.4672,-135.03"/>
<polygon fill="black" stroke="black" points="-15.969,-135.932 -12.0531,-139.5 -12.8895,-134.269 -15.969,-135.932"/>
<text text-anchor="middle" x="1.62489" y="-128.143" font-family="monospace" font-size="6.00">2361414:A&gt;C</text>
</g>
<!-- 33 -->
<g id="node34" class="node"><title>33</title>
<ellipse fill="#ff3030" stroke="black" cx="-42.2534" cy="-148.866" rx="2.5" ry="2.5"/>
</g>
<!-- 3&#45;&gt;33 -->
<g id="edge17" class="edge"><title>3&#45;&gt;33</title>
<path fill="none" stroke="black" d="M-39.9799,-115.101C-40.6077,-124.425 -41.2807,-134.42 -41.7302,-141.095"/>
<polygon fill="black" stroke="black" points="-43.4825,-141.072 -42.0724,-146.178 -39.9904,-141.307 -43.4825,-141.072"/>
<text text-anchor="middle" x="-62.0344" y="-132.962" font-family="monospace" font-size="6.00">2395858:T&gt;G</text>
</g>
<!-- 38 -->
<g id="node39" class="node"><title>38</title>
<ellipse fill="#1874cd" stroke="black" cx="-113.122" cy="-80.8048" rx="2.5" ry="2.5"/>
</g>
<!-- 3&#45;&gt;38 -->
<g id="edge20" class="edge"><title>3&#45;&gt;38</title>
<path fill="none" stroke="black" d="M-62.4164,-87.5967C-77.1246,-85.6266 -94.9957,-83.2328 -105.114,-81.8774"/>
<polygon fill="black" stroke="black" points="-105.127,-80.1101 -110.315,-81.1807 -105.592,-83.5791 -105.127,-80.1101"/>
<text text-anchor="middle" x="-86.1945" y="-79.6117" font-family="monospace" font-size="6.00">2392973:A&gt;G</text>
</g>
<!-- 40 -->
<g id="node41" class="node"><title>40</title>
<ellipse fill="#1874cd" stroke="black" cx="-27.0626" cy="-177.5" rx="2.5" ry="2.5"/>
</g>
<!-- 3&#45;&gt;40 -->
<g id="edge23" class="edge"><title>3&#45;&gt;40</title>
<path fill="none" stroke="black" d="M-35.2022,-114.966C-32.8036,-133.394 -29.6497,-157.624 -28.0642,-169.805"/>
<polygon fill="black" stroke="black" points="-29.7712,-170.25 -27.3904,-174.982 -26.3005,-169.798 -29.7712,-170.25"/>
<text text-anchor="middle" x="-52.2681" y="-140.391" font-family="monospace" font-size="6.00">2392142:G&gt;T</text>
</g>
<!-- 50 -->
<g id="node51" class="node"><title>50</title>
<ellipse fill="#98f5ff" stroke="black" cx="-119.587" cy="-56.9751" rx="2.5" ry="2.5"/>
</g>
<!-- 3&#45;&gt;50 -->
<g id="edge24" class="edge"><title>3&#45;&gt;50</title>
<path fill="none" stroke="black" d="M-60.5448,-81.5725C-77.8279,-74.3722 -100.756,-64.8204 -112.294,-60.0134"/>
<polygon fill="black" stroke="black" points="-111.911,-58.2772 -117.2,-57.9697 -113.257,-61.5081 -111.911,-58.2772"/>
<text text-anchor="middle" x="-110.011" y="-64.9134" font-family="monospace" font-size="6.00">2408896:C&gt;T</text>
</g>
<!-- anon_3_32_0 -->
<g id="node53" class="node"><title>anon_3_32_0</title>
<ellipse fill="white" stroke="black" cx="-126.832" cy="-105.973" rx="1" ry="1"/>
</g>
<!-- 3&#45;&gt;anon_3_32_0 -->
<g id="edge15" class="edge"><title>3&#45;&gt;anon_3_32_0</title>
<path fill="none" stroke="black" d="M-62.0579,-94.8815C-81.7546,-98.2542 -108.427,-102.821 -120.468,-104.883"/>
<polygon fill="black" stroke="black" points="-120.882,-103.179 -125.515,-105.747 -120.291,-106.628 -120.882,-103.179"/>
<text text-anchor="middle" x="-115.383" y="-95.6165" font-family="monospace" font-size="6.00">2395098:A&gt;G</text>
</g>
<!-- anon_3_36_0 -->
<g id="node54" class="node"><title>anon_3_36_0</title>
<ellipse fill="white" stroke="black" cx="17.6884" cy="-163.246" rx="1" ry="1"/>
</g>
<!-- 3&#45;&gt;anon_3_36_0 -->
<g id="edge18" class="edge"><title>3&#45;&gt;anon_3_36_0</title>
<path fill="none" stroke="black" d="M-23.6228,-109.85C-11.0459,-126.106 6.1842,-148.376 13.7993,-158.219"/>
<polygon fill="black" stroke="black" points="12.6202,-159.555 17.0639,-162.439 15.3884,-157.413 12.6202,-159.555"/>
<text text-anchor="middle" x="18.1089" y="-138.846" font-family="monospace" font-size="6.00">2360106:G&gt;A</text>
</g>
<!-- anon_3_39_0 -->
<g id="node55" class="node"><title>anon_3_39_0</title>
<ellipse fill="white" stroke="black" cx="-81.5912" cy="-161.254" rx="1" ry="1"/>
</g>
<!-- 3&#45;&gt;anon_3_39_0 -->
<g id="edge21" class="edge"><title>3&#45;&gt;anon_3_39_0</title>
<path fill="none" stroke="black" d="M-51.0863,-111.572C-60.3299,-126.627 -72.1943,-145.95 -78.028,-155.451"/>
<polygon fill="black" stroke="black" points="-79.6787,-154.795 -80.8036,-159.971 -76.696,-156.626 -79.6787,-154.795"/>
<text text-anchor="middle" x="-87.0629" y="-138.164" font-family="monospace" font-size="6.00">2360304:G&gt;A</text>
</g>
<!-- 4 -->
<g id="node5" class="node"><title>4</title>
<path fill="#98f5ff" stroke="black" stroke-width="0.5" d="M142.411,32.5432C142.411,32.5432 164.911,32.5432 164.911,32.5432 164.911,31.5233 164.842,30.5046 164.704,29.4941 164.565,28.4836 164.359,27.4837 164.085,26.5012 163.811,25.5188 163.471,24.5561 163.066,23.6198 162.662,22.6836 162.194,21.7759 161.666,20.9031 161.139,20.0303 160.552,19.1943 159.911,18.4011 159.27,17.6078 158.576,16.8591 157.833,16.16 157.091,15.4609 156.301,14.8132 155.471,14.2212 154.64,13.6292 153.77,13.0944 152.867,12.6204 151.964,12.1464 151.03,11.7344 150.071,11.3872 149.112,11.04 148.131,10.7584 147.133,10.5443 146.136,10.3303 145.126,10.1843 144.109,10.1073 143.092,10.0304 142.071,10.0226 141.053,10.0842 140.035,10.1458 139.022,10.2765 138.022,10.4755 137.021,10.6745 136.036,10.9412 135.072,11.2739 134.107,11.6066 133.167,12.0045 132.257,12.4648 131.347,12.925 130.469,13.4467 129.63,14.026 129.63,14.026 142.411,32.5432 142.411,32.5432"/>
<path fill="#ff3030" stroke="black" stroke-width="0.5" d="M142.411,32.5432C142.411,32.5432 129.63,14.026 129.63,14.026 129.008,14.4551 128.408,14.9153 127.833,15.4047 127.258,15.8941 126.707,16.4121 126.184,16.9569 125.661,17.5016 125.165,18.0724 124.7,18.667 124.234,19.2616 123.798,19.8793 123.394,20.5177 122.991,21.1561 122.619,21.8145 122.282,22.4902 121.944,23.166 121.641,23.8583 121.373,24.5646 121.105,25.2708 120.873,25.9901 120.678,26.7198 120.482,27.4494 120.324,28.1884 120.203,28.9339 120.203,28.9339 142.411,32.5432 142.411,32.5432"/>
<path fill="deepskyblue" stroke="black" stroke-width="0.5" d="M142.411,32.5432C142.411,32.5432 120.203,28.9339 120.203,28.9339 120.078,29.6981 119.994,30.4683 119.949,31.2412 119.904,32.0142 119.899,32.7889 119.934,33.5623 119.969,34.3358 120.044,35.1069 120.159,35.8726 120.273,36.6383 120.427,37.3976 120.62,38.1475 120.813,38.8973 121.045,39.6367 121.314,40.3627 121.583,41.0887 121.889,41.8003 122.232,42.4947 122.574,43.1891 122.952,43.8653 123.364,44.5208 123.776,45.1762 124.222,45.8099 124.7,46.4194 125.177,47.0288 125.686,47.6132 126.223,48.1703 126.761,48.7273 127.327,49.2562 127.92,49.7549 128.512,50.2536 129.129,50.7213 129.77,51.1563 130.41,51.5913 131.073,51.993 131.755,52.3596 132.437,52.7263 133.137,53.0576 133.853,53.3521 134.569,53.6466 135.3,53.9039 136.043,54.123 136.785,54.3422 137.539,54.5229 138.3,54.6643 139.061,54.8058 139.829,54.9079 140.601,54.9702 141.372,55.0325 142.147,55.0549 142.921,55.0374 143.695,55.0199 144.468,54.9624 145.236,54.8652 146.004,54.768 146.766,54.6312 147.52,54.4554 148.274,54.2796 149.019,54.065 149.751,53.8124 150.483,53.5599 151.201,53.2697 151.903,52.9431 152.605,52.6165 153.29,52.2538 153.954,51.8566 154.619,51.4594 155.262,51.0282 155.883,50.5646 156.503,50.101 157.098,49.6058 157.668,49.0808 158.237,48.5558 158.778,48.0018 159.29,47.421 159.802,46.8402 160.284,46.2333 160.733,45.6028 161.183,44.9724 161.599,44.3191 161.981,43.6457 162.363,42.9723 162.71,42.2796 163.021,41.5704 163.331,40.8612 163.605,40.1365 163.841,39.399 164.077,38.6616 164.275,37.9125 164.433,37.1547 164.592,36.3969 164.712,35.6314 164.791,34.8613 164.871,34.0911 164.911,33.3174 164.911,32.5432 164.911,32.5432 142.411,32.5432 142.411,32.5432"/>
<ellipse fill="none" stroke="black" cx="142.411" cy="32.5432" rx="22.5" ry="22.5"/>
<text text-anchor="middle" x="142.411" y="33.8432" font-family="monospace" font-size="6.00">78</text>
</g>
<!-- 49 -->
<g id="node50" class="node"><title>49</title>
<ellipse fill="#98f5ff" stroke="black" cx="222.018" cy="29.1095" rx="2.5" ry="2.5"/>
</g>
<!-- 4&#45;&gt;49 -->
<g id="edge26" class="edge"><title>4&#45;&gt;49</title>
<path fill="none" stroke="black" d="M165.01,31.5684C181.455,30.8591 202.751,29.9406 214.091,29.4515"/>
<polygon fill="black" stroke="black" points="214.201,27.6952 219.272,29.228 214.352,31.1919 214.201,27.6952"/>
<text text-anchor="middle" x="192.288" y="35.1919" font-family="monospace" font-size="6.00">2366963:G&gt;A</text>
</g>
<!-- 5 -->
<g id="node6" class="node"><title>5</title>
<ellipse fill="#ff3030" stroke="black" cx="118.537" cy="71.3571" rx="12.5" ry="12.5"/>
<text text-anchor="middle" x="118.537" y="72.6571" font-family="monospace" font-size="6.00">25</text>
</g>
<!-- 35 -->
<g id="node36" class="node"><title>35</title>
<ellipse fill="#ff3030" stroke="black" cx="160.119" cy="119.694" rx="2.5" ry="2.5"/>
</g>
<!-- 5&#45;&gt;35 -->
<g id="edge29" class="edge"><title>5&#45;&gt;35</title>
<path fill="none" stroke="black" d="M126.952,81.1388C135.284,90.8249 147.787,105.358 154.821,113.535"/>
<polygon fill="black" stroke="black" points="156.474,112.773 158.408,117.705 153.82,115.056 156.474,112.773"/>
<text text-anchor="middle" x="121.787" y="97.3468" font-family="monospace" font-size="6.00">2366538:C&gt;A</text>
</g>
<!-- 6 -->
<g id="node7" class="node"><title>6</title>
<path fill="#ff3030" stroke="black" stroke-width="0.5" d="M30.009,23.8865C30.009,23.8865 54.509,23.8865 54.509,23.8865 54.509,22.7826 54.4344,21.6799 54.2857,20.5861 54.137,19.4922 53.9145,18.4097 53.6198,17.3458 53.6198,17.3458 30.009,23.8865 30.009,23.8865"/>
<path fill="brown" stroke="black" stroke-width="0.5" d="M30.009,23.8865C30.009,23.8865 53.6198,17.3458 53.6198,17.3458 53.4288,16.6561 53.2076,15.9751 52.9569,15.3048 52.7062,14.6345 52.4263,13.9755 52.1179,13.3296 51.8096,12.6838 51.473,12.0518 51.1093,11.4355 50.7456,10.8191 50.3551,10.219 49.9388,9.63683 49.5226,9.05466 49.081,8.49102 48.6155,7.94751 48.1499,7.404 47.6607,6.88115 47.1493,6.38047 46.638,5.87979 46.1049,5.40176 45.5517,4.94774 44.9985,4.49373 44.4256,4.06418 43.8348,3.66032 43.244,3.25645 42.6357,2.87868 42.0118,2.52806 41.388,2.17745 40.749,1.85435 40.0968,1.55968 39.4446,1.265 38.7798,0.99905 38.1044,0.762579 37.4289,0.526109 36.7434,0.319348 36.0498,0.142892 35.3563,-0.0335642 34.6553,-0.179546 33.9489,-0.294633 33.2426,-0.409721 32.5315,-0.493803 31.8178,-0.546639 31.1041,-0.599475 30.3884,-0.621014 29.6728,-0.611193 28.9572,-0.601372 28.2424,-0.560201 27.5304,-0.487798 26.8184,-0.415396 26.11,-0.311831 25.407,-0.177402 24.7041,-0.0429739 24.0074,0.12219 23.3189,0.317613 22.6305,0.513036 21.9509,0.738532 21.2822,0.993451 20.6135,1.24837 19.9562,1.53247 19.3124,1.84492 18.6685,2.15738 18.0387,2.4979 17.4246,2.8655 16.8106,3.2331 16.2129,3.62743 15.6334,4.04736 15.0539,4.46728 14.4931,4.91239 13.9525,5.38142 13.412,5.85044 12.8922,6.34292 12.3948,6.85745 11.8974,7.37198 11.4227,7.90805 10.9722,8.46413 10.5217,9.02021 10.0958,9.59576 9.6957,10.1891 9.29559,10.7825 8.92167,11.3931 8.57502,12.0192 8.22836,12.6453 7.90931,13.2863 7.61878,13.9404 7.32824,14.5944 7.0665,15.2608 6.83432,15.9378 6.60213,16.6148 6.39971,17.3016 6.22765,17.9962 6.0556,18.6909 5.91406,19.3928 5.80344,20.0998 5.69283,20.8069 5.61326,21.5185 5.56494,22.2325 5.51663,22.9465 5.49962,23.6623 5.51398,24.3779 5.52833,25.0934 5.57403,25.8079 5.65094,26.5195 5.72785,27.231 5.8359,27.9388 5.97478,28.6408 6.11365,29.3429 6.28323,30.0385 6.48301,30.7258 6.68279,31.413 6.91258,32.0911 7.17173,32.7582 7.43088,33.4253 7.71913,34.0807 8.03567,34.7226 8.3522,35.3644 8.6967,35.9921 9.06818,36.6038 9.43966,37.2155 9.83777,37.8106 10.2614,38.3875 10.6849,38.9643 11.1336,39.5223 11.606,40.0599 12.0785,40.5975 12.5742,41.1141 13.0919,41.6082 13.6096,42.1024 14.1486,42.5737 14.7076,43.0206 15.2665,43.4676 15.8447,43.8899 16.4406,44.2862 17.0365,44.6825 17.6495,45.0526 18.2778,45.3953 18.9061,45.7379 19.5491,46.0529 20.2049,46.3393 20.8608,46.6257 21.5289,46.8832 22.2073,47.1111 22.8857,47.339 23.5738,47.5371 24.2695,47.7047 24.9653,47.8724 25.668,48.0095 26.3758,48.1156 27.0835,48.2217 27.7956,48.2968 28.5099,48.3406 29.2242,48.3844 29.9401,48.3969 30.6556,48.378 31.371,48.3591 32.0852,48.3089 32.7962,48.2274 33.5072,48.146 34.2144,48.0335 34.9155,47.8902 35.6167,47.7469 36.3112,47.5729 36.9972,47.3688 37.6831,47.1646 38.3598,46.9305 39.0252,46.6672 39.6907,46.4038 40.3442,46.1114 40.9841,45.7908 41.6239,45.4702 42.2494,45.1217 42.8587,44.7464 43.4681,44.371 44.0607,43.9692 44.6348,43.542 45.209,43.1147 45.7641,42.6625 46.2987,42.1867 46.8333,41.7109 47.3467,41.2118 47.8376,40.6911 48.3285,40.1703 48.7963,39.6282 49.2397,39.0665 49.6831,38.5047 50.1017,37.9238 50.4943,37.3255 50.8868,36.7271 51.253,36.1118 51.5917,35.4813 51.9304,34.8509 52.2413,34.2059 52.5235,33.5482 52.5235,33.5482 30.009,23.8865 30.009,23.8865"/>
<path fill="deepskyblue" stroke="black" stroke-width="0.5" d="M30.009,23.8865C30.009,23.8865 52.5235,33.5482 52.5235,33.5482 52.85,32.7875 53.1376,32.0107 53.3855,31.2209 53.6333,30.4311 53.8409,29.6292 54.0075,28.8183 54.1742,28.0075 54.2996,27.1887 54.3833,26.3651 54.4671,25.5416 54.509,24.7143 54.509,23.8865 54.509,23.8865 30.009,23.8865 30.009,23.8865"/>
<ellipse fill="none" stroke="black" cx="30.009" cy="23.8865" rx="24.5" ry="24.5"/>
<text text-anchor="middle" x="30.009" y="25.1865" font-family="monospace" font-size="6.00">93</text>
</g>
<!-- 6&#45;&gt;0 -->
<g id="edge1" class="edge"><title>6&#45;&gt;0</title>
<path fill="none" stroke="black" d="M15.3057,43.6506C10.5052,49.9393 5.08424,56.8718 -0.0611049,63.0776 -6.60149,70.9661 -14.1101,79.4467 -20.6059,86.6158"/>
<polygon fill="black" stroke="black" points="-19.4378,87.9324 -24.0979,90.4517 -22.026,85.5762 -19.4378,87.9324"/>
<text text-anchor="middle" x="-15.3291" y="72.3648" font-family="monospace" font-size="6.00">I1868T</text>
</g>
<!-- 6&#45;&gt;2 -->
<g id="edge5" class="edge"><title>6&#45;&gt;2</title>
<path fill="none" stroke="black" d="M30.2768,48.5272C30.3471,54.9963 30.4209,61.7838 30.4841,67.5955"/>
<polygon fill="black" stroke="black" points="32.2341,67.6025 30.5387,72.6213 28.7343,67.6406 32.2341,67.6025"/>
<text text-anchor="middle" x="18.906" y="58.2154" font-family="monospace" font-size="6.00">A1934V</text>
</g>
<!-- 6&#45;&gt;3 -->
<g id="edge6" class="edge"><title>6&#45;&gt;3</title>
<path fill="none" stroke="black" d="M17.3124,2.57972C5.8264,-16.6953 -11.1029,-45.1051 -23.2718,-65.5262"/>
<polygon fill="black" stroke="black" points="-24.8905,-64.824 -25.9467,-70.0151 -21.8839,-66.6157 -24.8905,-64.824"/>
<text text-anchor="middle" x="-15.9095" y="-36.0727" font-family="monospace" font-size="6.00">N1570Y</text>
</g>
<!-- 6&#45;&gt;4 -->
<g id="edge25" class="edge"><title>6&#45;&gt;4</title>
<path fill="none" stroke="black" d="M54.6762,25.7862C72.3972,27.151 96.3028,28.9921 114.685,30.4078"/>
<polygon fill="black" stroke="black" points="114.863,28.6663 119.714,30.7951 114.594,32.1559 114.863,28.6663"/>
<text text-anchor="middle" x="75.8838" y="26.1052" font-family="monospace" font-size="6.00">P1874L</text>
</g>
<!-- 6&#45;&gt;5 -->
<g id="edge27" class="edge"><title>6&#45;&gt;5</title>
<path fill="none" stroke="black" d="M49.4362,39.6525C56.3295,44.8286 64.3001,50.3604 72.0324,54.6976 74.7024,56.1953 75.5423,56.2272 78.4041,57.3147 86.0289,60.2122 94.5486,63.2247 101.77,65.713"/>
<polygon fill="black" stroke="black" points="102.371,64.069 106.535,67.344 101.238,67.3804 102.371,64.069"/>
<text text-anchor="middle" x="88.0767" y="61.4576" font-family="monospace" font-size="6.00">P1874S</text>
</g>
<!-- 7 -->
<g id="node8" class="node"><title>7</title>
<ellipse fill="#ff3030" stroke="black" cx="49.5205" cy="60.7032" rx="6.5" ry="6.5"/>
<text text-anchor="middle" x="49.5205" y="62.0032" font-family="monospace" font-size="6.00">7</text>
</g>
<!-- 6&#45;&gt;7 -->
<g id="edge30" class="edge"><title>6&#45;&gt;7</title>
<path fill="none" stroke="black" d="M41.5844,45.7284C42.4153,47.2962 43.2279,48.8295 43.9969,50.2806"/>
<polygon fill="black" stroke="black" points="45.6121,49.5913 46.4072,54.8287 42.5196,51.2303 45.6121,49.5913"/>
<text text-anchor="middle" x="43.8522" y="54.8076" font-family="monospace" font-size="6.00">K1603T</text>
</g>
<!-- 8 -->
<g id="node9" class="node"><title>8</title>
<ellipse fill="#ff3030" stroke="black" cx="102.591" cy="16.9191" rx="4.5" ry="4.5"/>
<text text-anchor="middle" x="102.591" y="18.2191" font-family="monospace" font-size="6.00">3</text>
</g>
<!-- 6&#45;&gt;8 -->
<g id="edge31" class="edge"><title>6&#45;&gt;8</title>
<path fill="none" stroke="black" d="M54.582,21.5277C67.7835,20.2604 83.3025,18.7707 93.0439,17.8356"/>
<polygon fill="black" stroke="black" points="92.9063,16.0908 98.0507,17.3549 93.2408,19.5748 92.9063,16.0908"/>
<text text-anchor="middle" x="64.8703" y="17.2361" font-family="monospace" font-size="6.00">L1667M</text>
</g>
<!-- 12 -->
<g id="node13" class="node"><title>12</title>
<ellipse fill="#ff3030" stroke="black" cx="103.655" cy="-11.8424" rx="5.5" ry="5.5"/>
<text text-anchor="middle" x="103.655" y="-10.5424" font-family="monospace" font-size="6.00">5</text>
</g>
<!-- 6&#45;&gt;12 -->
<g id="edge32" class="edge"><title>6&#45;&gt;12</title>
<path fill="none" stroke="black" d="M52.1053,13.1667C66.087,6.38351 83.4603,-2.045 94.0449,-7.18003"/>
<polygon fill="black" stroke="black" points="93.3886,-8.80666 98.651,-9.41466 94.9163,-5.65767 93.3886,-8.80666"/>
<text text-anchor="middle" x="86.8887" y="-0.32912" font-family="monospace" font-size="6.00">I1940T</text>
</g>
<!-- 13 -->
<g id="node14" class="node"><title>13</title>
<path fill="#98f5ff" stroke="black" stroke-width="0.5" d="M-52.517,75.2582C-52.517,75.2582 -48.017,75.2582 -48.017,75.2582 -48.017,75.0618 -48.0298,74.8656 -48.0555,74.6708 -48.0811,74.4761 -48.1195,74.2832 -48.1703,74.0935 -48.2211,73.9038 -48.2843,73.7176 -48.3595,73.5361 -48.4347,73.3546 -48.5216,73.1783 -48.6199,73.0082 -48.7181,72.8381 -48.8273,72.6746 -48.9469,72.5188 -49.0664,72.3629 -49.1961,72.2151 -49.335,72.0762 -49.4739,71.9373 -49.6217,71.8077 -49.7775,71.6881 -49.9334,71.5685 -50.0969,71.4593 -50.267,71.3611 -50.4371,71.2629 -50.6134,71.1759 -50.7949,71.1007 -50.9764,71.0256 -51.1626,70.9624 -51.3523,70.9115 -51.542,70.8607 -51.7349,70.8223 -51.9296,70.7967 -52.1243,70.771 -52.3205,70.7582 -52.517,70.7582 -52.7134,70.7582 -52.9096,70.771 -53.1043,70.7967 -53.2991,70.8223 -53.4919,70.8607 -53.6817,70.9115 -53.8714,70.9624 -54.0576,71.0256 -54.239,71.1007 -54.4205,71.1759 -54.5969,71.2629 -54.767,71.3611 -54.767,71.3611 -52.517,75.2582 -52.517,75.2582"/>
<path fill="#ff3030" stroke="black" stroke-width="0.5" d="M-52.517,75.2582C-52.517,75.2582 -54.767,71.3611 -54.767,71.3611 -54.9371,71.4593 -55.1006,71.5685 -55.2564,71.6881 -55.4122,71.8077 -55.5601,71.9373 -55.6989,72.0762 -55.8378,72.2151 -55.9675,72.3629 -56.0871,72.5188 -56.2066,72.6746 -56.3159,72.8381 -56.4141,73.0082 -56.5123,73.1783 -56.5993,73.3546 -56.6744,73.5361 -56.7496,73.7176 -56.8128,73.9038 -56.8636,74.0935 -56.9145,74.2832 -56.9528,74.4761 -56.9785,74.6708 -57.0041,74.8656 -57.017,75.0618 -57.017,75.2582 -57.017,75.4546 -57.0041,75.6508 -56.9785,75.8456 -56.9528,76.0403 -56.9145,76.2331 -56.8636,76.4229 -56.8128,76.6126 -56.7496,76.7988 -56.6744,76.9803 -56.5993,77.1617 -56.5123,77.3381 -56.4141,77.5082 -56.3159,77.6783 -56.2066,77.8418 -56.0871,77.9976 -55.9675,78.1534 -55.8378,78.3013 -55.6989,78.4402 -55.5601,78.5791 -55.4122,78.7087 -55.2564,78.8283 -55.1006,78.9478 -54.9371,79.0571 -54.767,79.1553 -54.5969,79.2535 -54.4205,79.3405 -54.239,79.4156 -54.0576,79.4908 -53.8714,79.554 -53.6817,79.6049 -53.4919,79.6557 -53.2991,79.694 -53.1043,79.7197 -52.9096,79.7453 -52.7134,79.7582 -52.517,79.7582 -52.3205,79.7582 -52.1243,79.7453 -51.9296,79.7197 -51.7349,79.694 -51.542,79.6557 -51.3523,79.6049 -51.1626,79.554 -50.9764,79.4908 -50.7949,79.4156 -50.6134,79.3405 -50.4371,79.2535 -50.267,79.1553 -50.0969,79.0571 -49.9334,78.9478 -49.7775,78.8283 -49.6217,78.7087 -49.4739,78.5791 -49.335,78.4402 -49.1961,78.3013 -49.0664,78.1534 -48.9469,77.9976 -48.8273,77.8418 -48.7181,77.6783 -48.6199,77.5082 -48.5216,77.3381 -48.4347,77.1617 -48.3595,76.9803 -48.2843,76.7988 -48.2211,76.6126 -48.1703,76.4229 -48.1195,76.2331 -48.0811,76.0403 -48.0555,75.8456 -48.0298,75.6508 -48.017,75.4546 -48.017,75.2582 -48.017,75.2582 -52.517,75.2582 -52.517,75.2582"/>
<ellipse fill="none" stroke="black" cx="-52.517" cy="75.2582" rx="4.5" ry="4.5"/>
<text text-anchor="middle" x="-52.517" y="76.5582" font-family="monospace" font-size="6.00">3</text>
</g>
<!-- 6&#45;&gt;13 -->
<g id="edge33" class="edge"><title>6&#45;&gt;13</title>
<path fill="none" stroke="black" d="M9.18425,36.8497C-8.18307,47.6607 -32.0129,62.4946 -44.359,70.18"/>
<polygon fill="black" stroke="black" points="-43.457,71.6798 -48.6266,72.8365 -45.3067,68.7084 -43.457,71.6798"/>
<text text-anchor="middle" x="-29.4232" y="52.7689" font-family="monospace" font-size="6.00">T791M</text>
</g>
<!-- 16 -->
<g id="node17" class="node"><title>16</title>
<ellipse fill="#ff3030" stroke="black" cx="-3.26724" cy="59.92" rx="4.5" ry="4.5"/>
<text text-anchor="middle" x="-3.26724" y="61.22" font-family="monospace" font-size="6.00">3</text>
</g>
<!-- 6&#45;&gt;16 -->
<g id="edge34" class="edge"><title>6&#45;&gt;16</title>
<path fill="none" stroke="black" d="M13.3709,41.9032C9.7963,45.774 6.2217,49.6448 3.30709,52.8009"/>
<polygon fill="black" stroke="black" points="4.48156,54.1086 -0.19633,56.5946 1.91025,51.734 4.48156,54.1086"/>
<text text-anchor="middle" x="-4.98006" y="47.1219" font-family="monospace" font-size="6.00">N1345I</text>
</g>
<!-- 18 -->
<g id="node19" class="node"><title>18</title>
<path fill="#98f5ff" stroke="black" stroke-width="0.5" d="M85.996,-45.8511C85.996,-45.8511 93.996,-45.8511 93.996,-45.8511 93.996,-46.2702 93.963,-46.6886 93.8975,-47.1025 93.8319,-47.5165 93.7339,-47.9246 93.6044,-48.3232 93.4749,-48.7218 93.3143,-49.1096 93.124,-49.483 92.9338,-49.8564 92.7144,-50.2143 92.4681,-50.5533 92.2218,-50.8924 91.9492,-51.2116 91.6528,-51.5079 91.3565,-51.8043 91.0373,-52.0769 90.6983,-52.3232 90.3592,-52.5695 90.0013,-52.7889 89.6279,-52.9791 89.2545,-53.1694 88.8667,-53.33 88.4681,-53.4595 88.0695,-53.589 87.6614,-53.687 87.2474,-53.7526 86.8335,-53.8181 86.4151,-53.8511 85.996,-53.8511 85.5769,-53.8511 85.1584,-53.8181 84.7445,-53.7526 84.3306,-53.687 83.9224,-53.589 83.5238,-53.4595 83.1253,-53.33 82.7375,-53.1694 82.364,-52.9791 81.9906,-52.7889 81.6327,-52.5695 81.2937,-52.3232 80.9546,-52.0769 80.6355,-51.8043 80.3391,-51.5079 80.0428,-51.2116 79.7702,-50.8924 79.5238,-50.5533 79.5238,-50.5533 85.996,-45.8511 85.996,-45.8511"/>
<path fill="deepskyblue" stroke="black" stroke-width="0.5" d="M85.996,-45.8511C85.996,-45.8511 79.5238,-50.5533 79.5238,-50.5533 79.3391,-50.2991 79.1696,-50.0342 79.016,-49.76 78.8625,-49.4859 78.7252,-49.2029 78.6049,-48.9125 78.4847,-48.6222 78.3816,-48.325 78.2963,-48.0226 78.211,-47.7201 78.1436,-47.4129 78.0945,-47.1025 78.0453,-46.7922 78.0145,-46.4791 78.0021,-46.1651 77.9898,-45.8511 77.996,-45.5367 78.0206,-45.2234 78.0453,-44.9101 78.0884,-44.5986 78.1497,-44.2903 78.211,-43.9821 78.2904,-43.6778 78.3875,-43.3789 78.4846,-43.0801 78.5993,-42.7872 78.7308,-42.5018 78.8624,-42.2164 79.0107,-41.939 79.1749,-41.6711 79.339,-41.4031 79.5189,-41.1451 79.7134,-40.8983 79.908,-40.6515 80.1169,-40.4164 80.3391,-40.1942 80.5613,-39.972 80.7964,-39.7631 81.0432,-39.5685 81.29,-39.374 81.548,-39.1941 81.816,-39.0299 82.0839,-38.8657 82.3613,-38.7175 82.6467,-38.5859 82.9321,-38.4544 83.225,-38.3397 83.5238,-38.2426 83.8227,-38.1455 84.127,-38.0661 84.4353,-38.0048 84.7435,-37.9435 85.055,-37.9004 85.3683,-37.8757 85.6816,-37.8511 85.996,-37.8449 86.3101,-37.8572 86.6241,-37.8696 86.9371,-37.9004 87.2474,-37.9496 87.5578,-37.9987 87.865,-38.0661 88.1675,-38.1514 88.4699,-38.2367 88.7671,-38.3398 89.0574,-38.46 89.3478,-38.5803 89.6308,-38.7175 89.9049,-38.8711 90.1791,-39.0246 90.444,-39.1942 90.6983,-39.3789 90.9525,-39.5636 91.1956,-39.7632 91.4264,-39.9765 91.6571,-40.1898 91.8751,-40.4165 92.0792,-40.6555 92.2833,-40.8944 92.4731,-41.1452 92.6477,-41.4065 92.8223,-41.6678 92.9814,-41.9391 93.124,-42.2191 93.2667,-42.4991 93.3927,-42.7873 93.5015,-43.0821 93.6103,-43.377 93.7016,-43.6779 93.7749,-43.9835 93.8483,-44.2891 93.9036,-44.5987 93.9405,-44.9108 93.9775,-45.2228 93.996,-45.5368 93.996,-45.8511 93.996,-45.8511 85.996,-45.8511 85.996,-45.8511"/>
<ellipse fill="none" stroke="black" cx="85.996" cy="-45.8511" rx="8" ry="8"/>
<text text-anchor="middle" x="85.996" y="-44.5511" font-family="monospace" font-size="6.00">10</text>
</g>
<!-- 6&#45;&gt;18 -->
<g id="edge35" class="edge"><title>6&#45;&gt;18</title>
<path fill="none" stroke="black" d="M46.1564,4.87941C53.7651,-4.19986 62.8969,-15.2758 70.8522,-25.4241 73.3238,-28.577 75.9461,-32.0616 78.3017,-35.2463"/>
<polygon fill="black" stroke="black" points="76.9401,-36.3488 81.3093,-39.3442 79.7617,-34.2778 76.9401,-36.3488"/>
<text text-anchor="middle" x="52.8144" y="-19.3956" font-family="monospace" font-size="6.00">E1597G</text>
</g>
<!-- 24 -->
<g id="node25" class="node"><title>24</title>
<ellipse fill="deepskyblue" stroke="black" cx="14.1716" cy="-15.3654" rx="3.5" ry="3.5"/>
<text text-anchor="middle" x="14.1716" y="-14.0654" font-family="monospace" font-size="6.00">2</text>
</g>
<!-- 6&#45;&gt;24 -->
<g id="edge36" class="edge"><title>6&#45;&gt;24</title>
<path fill="none" stroke="black" d="M20.7964,1.05354C19.6327,-1.83046 18.5074,-4.61949 17.5246,-7.05529"/>
<polygon fill="black" stroke="black" points="15.7871,-6.68465 15.5391,-11.9763 19.0329,-7.99429 15.7871,-6.68465"/>
<text text-anchor="middle" x="29.5918" y="-7.8496" font-family="monospace" font-size="6.00">I1584T</text>
</g>
<!-- 29 -->
<g id="node30" class="node"><title>29</title>
<path fill="#98f5ff" stroke="black" stroke-width="0.5" d="M78.3774,48.3148C78.3774,48.3148 87.3774,48.3148 87.3774,48.3148 87.3774,47.8236 87.3372,47.3333 87.2572,46.8487 87.1772,46.3641 87.0576,45.8869 86.8997,45.4218 86.7419,44.9567 86.5462,44.5054 86.3147,44.0722 86.0831,43.6391 85.8165,43.2256 85.5176,42.8359 85.2186,42.4463 84.8882,42.0817 84.5297,41.746 84.1712,41.4103 83.7859,41.1044 83.3775,40.8316 82.9691,40.5587 82.5391,40.3197 82.0917,40.117 81.6444,39.9143 81.1812,39.7486 80.7067,39.6214 80.2323,39.4943 79.7483,39.4063 79.2595,39.3581 78.7707,39.31 78.2788,39.3019 77.7887,39.3341 77.2987,39.3662 76.812,39.4384 76.3337,39.5499 75.8554,39.6614 75.387,39.8119 74.9332,39.9999 74.4795,40.1878 74.0418,40.4126 73.6248,40.672 73.2077,40.9313 72.8125,41.2244 72.4433,41.5482 72.074,41.8721 71.7319,42.2256 71.4203,42.6052 71.1087,42.9849 70.8287,43.3894 70.5831,43.8148 70.5831,43.8148 78.3774,48.3148 78.3774,48.3148"/>
<path fill="deepskyblue" stroke="black" stroke-width="0.5" d="M78.3774,48.3148C78.3774,48.3148 70.5831,43.8148 70.5831,43.8148 70.4113,44.1124 70.2566,44.4197 70.1199,44.735 69.9832,45.0504 69.8647,45.3733 69.7649,45.7022 69.6651,46.0311 69.5843,46.3655 69.5228,46.7036 69.4612,47.0418 69.4191,47.3832 69.3966,47.7262 69.3742,48.0691 69.3714,48.4131 69.3882,48.7564 69.4051,49.0997 69.4416,49.4417 69.4976,49.7808 69.5536,50.12 69.6289,50.4556 69.7233,50.7861 69.8177,51.1166 69.9309,51.4414 70.0625,51.7589 70.194,52.0765 70.3436,52.3862 70.5106,52.6867 70.6775,52.9871 70.8616,53.2777 71.0618,53.5571 71.262,53.8365 71.478,54.1041 71.7088,54.3588 71.9396,54.6135 72.1849,54.8547 72.4433,55.0813 72.7017,55.308 72.9729,55.5196 73.2555,55.7152 73.5381,55.9108 73.8317,56.0901 74.1348,56.2521 74.4379,56.4141 74.7501,56.5586 75.0697,56.6849 75.3894,56.8113 75.716,56.9192 76.048,57.0081 76.38,57.0971 76.7168,57.1669 77.0568,57.2174 77.3968,57.2678 77.7394,57.2987 78.0829,57.31 78.4264,57.3212 78.7703,57.3128 79.1129,57.2847 79.4554,57.2566 79.7961,57.2089 80.1332,57.1418 80.4703,57.0748 80.8033,56.9885 81.1305,56.8833 81.4577,56.7782 81.7787,56.6544 82.0917,56.5126 82.4048,56.3707 82.7095,56.211 83.0043,56.0343 83.2991,55.8576 83.5835,55.6642 83.8562,55.455 84.1289,55.2457 84.3894,55.021 84.6364,54.782 84.8833,54.543 85.1164,54.29 85.3345,54.0243 85.5525,53.7586 85.7552,53.4807 85.9414,53.1918 86.1277,52.9029 86.2972,52.6036 86.4492,52.2954 86.6012,51.9871 86.7355,51.6704 86.8513,51.3468 86.9671,51.0232 87.0642,50.6932 87.1423,50.3585 87.2203,50.0237 87.2791,49.6848 87.3184,49.3434 87.3577,49.0019 87.3774,48.6585 87.3774,48.3148 87.3774,48.3148 78.3774,48.3148 78.3774,48.3148"/>
<ellipse fill="none" stroke="black" cx="78.3774" cy="48.3148" rx="9" ry="9"/>
<text text-anchor="middle" x="78.3774" y="49.6148" font-family="monospace" font-size="6.00">12</text>
</g>
<!-- 6&#45;&gt;29 -->
<g id="edge40" class="edge"><title>6&#45;&gt;29</title>
<path fill="none" stroke="black" d="M51.9289,34.9571C56.5281,37.2798 61.2374,39.6583 65.3837,41.7524"/>
<polygon fill="black" stroke="black" points="66.2781,40.2435 69.9523,44.0597 64.7002,43.3677 66.2781,40.2435"/>
<text text-anchor="middle" x="72.4356" y="37.3059" font-family="monospace" font-size="6.00">V1853I</text>
</g>
<!-- 41 -->
<g id="node42" class="node"><title>41</title>
<ellipse fill="brown" stroke="black" cx="-12.5934" cy="6.16037" rx="2.5" ry="2.5"/>
</g>
<!-- 6&#45;&gt;41 -->
<g id="edge41" class="edge"><title>6&#45;&gt;41</title>
<path fill="none" stroke="black" d="M7.21116,14.4007C2.64121,12.4992 -1.83641,10.6362 -5.37479,9.16391"/>
<polygon fill="black" stroke="black" points="-6.09618,10.7593 -10.0402,7.2227 -4.75159,7.52782 -6.09618,10.7593"/>
<text text-anchor="middle" x="-22.4273" y="15.6064" font-family="monospace" font-size="6.00">2382263:A&gt;G</text>
</g>
<!-- 44 -->
<g id="node45" class="node"><title>44</title>
<ellipse fill="brown" stroke="black" cx="74.3238" cy="97.7321" rx="5.5" ry="5.5"/>
<text text-anchor="middle" x="74.3238" y="99.0321" font-family="monospace" font-size="6.00">5</text>
</g>
<!-- 6&#45;&gt;44 -->
<g id="edge45" class="edge"><title>6&#45;&gt;44</title>
<path fill="none" stroke="black" d="M45.3901,43.2184C48.4212,47.3603 51.4693,51.7835 54.0836,56.0742 60.3894,66.4233 66.2858,79.026 70.0692,87.6414"/>
<polygon fill="black" stroke="black" points="71.7633,87.1504 72.1366,92.4347 68.5494,88.5366 71.7633,87.1504"/>
<text text-anchor="middle" x="81.0984" y="71.569" font-family="monospace" font-size="6.00">2366965:T&gt;G</text>
</g>
<!-- 45 -->
<g id="node46" class="node"><title>45</title>
<ellipse fill="brown" stroke="black" cx="-19.671" cy="39.3368" rx="2.5" ry="2.5"/>
</g>
<!-- 6&#45;&gt;45 -->
<g id="edge46" class="edge"><title>6&#45;&gt;45</title>
<path fill="none" stroke="black" d="M6.33304,31.2497C-0.4209,33.3501 -7.28984,35.4863 -12.2707,37.0354"/>
<polygon fill="black" stroke="black" points="-11.8363,38.7329 -17.1304,38.5467 -12.8757,35.3908 -11.8363,38.7329"/>
<text text-anchor="middle" x="-26.3998" y="32.6985" font-family="monospace" font-size="6.00">2388293:C&gt;T</text>
</g>
<!-- anon_6_25_0 -->
<g id="node56" class="node"><title>anon_6_25_0</title>
<ellipse fill="white" stroke="black" cx="21.8969" cy="101.907" rx="1" ry="1"/>
</g>
<!-- 6&#45;&gt;anon_6_25_0 -->
<g id="edge37" class="edge"><title>6&#45;&gt;anon_6_25_0</title>
<path fill="none" stroke="black" d="M24.9123,48.137C23.0092,58.7329 21.1792,71.3401 20.6493,82.8289 20.4505,87.1393 20.7753,91.9915 21.1432,95.7238"/>
<polygon fill="black" stroke="black" points="22.9028,95.7034 21.7482,100.873 19.4267,96.1118 22.9028,95.7034"/>
<text text-anchor="middle" x="0.220321" y="79.4068" font-family="monospace" font-size="6.00">2362002:A&gt;T</text>
</g>
<!-- anon_6_43_0 -->
<g id="node58" class="node"><title>anon_6_43_0</title>
<ellipse fill="white" stroke="black" cx="70.1398" cy="-26.1259" rx="1" ry="1"/>
</g>
<!-- 6&#45;&gt;anon_6_43_0 -->
<g id="edge43" class="edge"><title>6&#45;&gt;anon_6_43_0</title>
<path fill="none" stroke="black" d="M45.4099,4.69345C52.8699,-4.60346 61.2405,-15.0352 66.0797,-21.0661"/>
<polygon fill="black" stroke="black" points="64.7224,-22.1708 69.2166,-24.9753 67.4523,-19.9803 64.7224,-22.1708"/>
<text text-anchor="middle" x="78.4043" y="-12.4544" font-family="monospace" font-size="6.00">2359422:C&gt;G</text>
</g>
<!-- 51 -->
<g id="node52" class="node"><title>51</title>
<ellipse fill="black" stroke="black" cx="163.591" cy="3.1377" rx="4.5" ry="4.5"/>
<text text-anchor="middle" x="163.591" y="4.4377" font-family="monospace" font-size="6.00">3</text>
</g>
<!-- 8&#45;&gt;51 -->
<g id="edge48" class="edge"><title>8&#45;&gt;51</title>
<path fill="none" stroke="black" d="M107.378,15.8377C117.404,13.5724 140.778,8.29165 154.011,5.30194"/>
<polygon fill="black" stroke="black" points="153.731,3.57132 158.993,4.17637 154.502,6.98528 153.731,3.57132"/>
<text text-anchor="middle" x="112.199" y="7.80387" font-family="monospace" font-size="6.00">2415120:T&gt;A</text>
</g>
<!-- 9 -->
<g id="node10" class="node"><title>9</title>
<ellipse fill="deepskyblue" stroke="black" cx="-88.732" cy="197.53" rx="2.5" ry="2.5"/>
</g>
<!-- 11 -->
<g id="node12" class="node"><title>11</title>
<ellipse fill="deepskyblue" stroke="black" cx="-122.356" cy="180.584" rx="2.5" ry="2.5"/>
</g>
<!-- 26 -->
<g id="node27" class="node"><title>26</title>
<ellipse fill="#ff3030" stroke="black" cx="158.993" cy="-36.3766" rx="2.5" ry="2.5"/>
</g>
<!-- 12&#45;&gt;26 -->
<g id="edge51" class="edge"><title>12&#45;&gt;26</title>
<path fill="none" stroke="black" d="M108.762,-14.1065C118.695,-18.5105 140.633,-28.2367 151.944,-33.2514"/>
<polygon fill="black" stroke="black" points="151.263,-34.864 156.543,-35.2908 152.682,-31.6644 151.263,-34.864"/>
<text text-anchor="middle" x="111.51" y="-26.8352" font-family="monospace" font-size="6.00">2421454:A&gt;G</text>
</g>
<!-- 14 -->
<g id="node15" class="node"><title>14</title>
<path fill="#98f5ff" stroke="black" stroke-width="0.5" d="M-99.5745,131.085C-99.5745,131.085 -87.0745,131.085 -87.0745,131.085 -87.0745,130.627 -87.0997,130.169 -87.15,129.713 -87.2003,129.258 -87.2756,128.806 -87.3755,128.358 -87.4755,127.911 -87.6,127.47 -87.7484,127.036 -87.8969,126.603 -88.069,126.177 -88.2642,125.763 -88.4593,125.348 -88.677,124.945 -88.9165,124.554 -89.1559,124.163 -89.4167,123.786 -89.6976,123.424 -89.9784,123.062 -90.279,122.715 -90.5979,122.386 -90.9168,122.057 -91.2536,121.746 -91.6067,121.454 -91.9598,121.162 -92.3287,120.889 -92.7117,120.637 -93.0947,120.386 -93.4913,120.156 -93.8996,119.948 -94.3079,119.739 -94.7274,119.554 -95.1561,119.392 -95.5847,119.23 -96.022,119.092 -96.4659,118.978 -96.9097,118.864 -97.3595,118.774 -97.8132,118.71 -98.2669,118.645 -98.7238,118.606 -99.1819,118.591 -99.6399,118.577 -100.098,118.588 -100.555,118.624 -101.012,118.66 -101.467,118.721 -101.917,118.806 -101.917,118.806 -99.5745,131.085 -99.5745,131.085"/>
<path fill="deepskyblue" stroke="black" stroke-width="0.5" d="M-99.5745,131.085C-99.5745,131.085 -101.917,118.806 -101.917,118.806 -102.496,118.917 -103.066,119.068 -103.623,119.259 -104.181,119.45 -104.724,119.68 -105.249,119.948 -105.774,120.215 -106.28,120.519 -106.762,120.858 -107.244,121.197 -107.702,121.57 -108.131,121.973 -108.561,122.376 -108.961,122.81 -109.33,123.27 -109.698,123.729 -110.034,124.215 -110.334,124.722 -110.634,125.229 -110.897,125.757 -111.123,126.302 -111.348,126.846 -111.535,127.406 -111.682,127.976 -111.828,128.547 -111.934,129.128 -111.999,129.713 -112.064,130.299 -112.087,130.889 -112.068,131.478 -112.05,132.067 -111.99,132.654 -111.888,133.234 -111.787,133.815 -111.645,134.387 -111.463,134.948 -111.281,135.508 -111.059,136.055 -110.8,136.584 -110.541,137.114 -110.244,137.624 -109.913,138.111 -109.582,138.599 -109.216,139.062 -108.82,139.498 -108.423,139.934 -107.996,140.341 -107.542,140.716 -107.088,141.092 -106.608,141.435 -106.106,141.743 -105.603,142.051 -105.08,142.323 -104.539,142.557 -103.998,142.791 -103.441,142.987 -102.873,143.142 -102.304,143.298 -101.726,143.413 -101.141,143.487 -100.557,143.56 -99.9674,143.593 -99.3781,143.584 -98.7889,143.574 -98.2011,143.523 -97.6191,143.431 -97.037,143.339 -96.4622,143.206 -95.899,143.032 -95.3357,142.859 -94.7855,142.646 -94.2522,142.395 -93.719,142.145 -93.2042,141.856 -92.7117,141.533 -92.2192,141.209 -91.7501,140.851 -91.3081,140.461 -90.8661,140.072 -90.4521,139.651 -90.0694,139.203 -89.6867,138.755 -89.3362,138.28 -89.0204,137.783 -88.7046,137.285 -88.4245,136.766 -88.1819,136.229 -87.9394,135.692 -87.7352,135.138 -87.5708,134.572 -87.4064,134.007 -87.2822,133.43 -87.1992,132.846 -87.1162,132.263 -87.0745,131.674 -87.0745,131.085 -87.0745,131.085 -99.5745,131.085 -99.5745,131.085"/>
<ellipse fill="none" stroke="black" cx="-99.5745" cy="131.085" rx="12.5" ry="12.5"/>
<text text-anchor="middle" x="-99.5745" y="132.385" font-family="monospace" font-size="6.00">25</text>
</g>
<!-- 13&#45;&gt;14 -->
<g id="edge52" class="edge"><title>13&#45;&gt;14</title>
<path fill="none" stroke="black" d="M-55.6045,78.9211C-62.071,86.5927 -77.3247,104.689 -88.0432,117.405"/>
<polygon fill="black" stroke="black" points="-86.9244,118.793 -91.485,121.488 -89.6005,116.537 -86.9244,118.793"/>
<text text-anchor="middle" x="-67.8778" y="105.103" font-family="monospace" font-size="6.00">A1746S</text>
</g>
<!-- 14&#45;&gt;9 -->
<g id="edge49" class="edge"><title>14&#45;&gt;9</title>
<path fill="none" stroke="black" d="M-97.5351,143.583C-95.3202,157.156 -91.8514,178.414 -89.9986,189.768"/>
<polygon fill="black" stroke="black" points="-88.2705,189.493 -89.1923,194.709 -91.7248,190.056 -88.2705,189.493"/>
<text text-anchor="middle" x="-114.374" y="166.884" font-family="monospace" font-size="6.00">2360225:G&gt;A</text>
</g>
<!-- 14&#45;&gt;11 -->
<g id="edge50" class="edge"><title>14&#45;&gt;11</title>
<path fill="none" stroke="black" d="M-104.858,142.566C-109.216,152.033 -115.266,165.179 -118.99,173.271"/>
<polygon fill="black" stroke="black" points="-117.467,174.148 -121.147,177.958 -120.647,172.684 -117.467,174.148"/>
<text text-anchor="middle" x="-133.869" y="157.77" font-family="monospace" font-size="6.00">2382425:A&gt;T</text>
</g>
<!-- anon_14_21_0 -->
<g id="node59" class="node"><title>anon_14_21_0</title>
<ellipse fill="white" stroke="black" cx="-162.692" cy="136.324" rx="1" ry="1"/>
</g>
<!-- 14&#45;&gt;anon_14_21_0 -->
<g id="edge53" class="edge"><title>14&#45;&gt;anon_14_21_0</title>
<path fill="none" stroke="black" d="M-112.044,132.12C-125.247,133.216 -145.59,134.905 -156.022,135.771"/>
<polygon fill="black" stroke="black" points="-156.143,137.537 -161.27,136.206 -156.432,134.049 -156.143,137.537"/>
<text text-anchor="middle" x="-157.575" y="131.956" font-family="monospace" font-size="6.00">2360354:C&gt;T</text>
</g>
<!-- 30 -->
<g id="node31" class="node"><title>30</title>
<ellipse fill="deepskyblue" stroke="black" cx="141.059" cy="-81.0259" rx="2.5" ry="2.5"/>
</g>
<!-- 18&#45;&gt;30 -->
<g id="edge56" class="edge"><title>18&#45;&gt;30</title>
<path fill="none" stroke="black" d="M92.7477,-50.1642C103.409,-56.9748 124.01,-70.1348 134.53,-76.8555"/>
<polygon fill="black" stroke="black" points="133.642,-78.3644 138.797,-79.5814 135.526,-75.4149 133.642,-78.3644"/>
<text text-anchor="middle" x="94.8824" y="-67.1429" font-family="monospace" font-size="6.00">2376264:A&gt;G</text>
</g>
<!-- 20 -->
<g id="node21" class="node"><title>20</title>
<ellipse fill="deepskyblue" stroke="black" cx="-32.5655" cy="177.563" rx="2.5" ry="2.5"/>
</g>
<!-- 20&#45;&gt;0 -->
<g id="edge2" class="edge"><title>20&#45;&gt;0</title>
<path fill="none" stroke="black" d="M-32.7153,174.761C-33.1282,167.034 -34.3146,144.832 -35.2516,127.299"/>
<polygon fill="black" stroke="black" points="-37.0138,127.115 -35.5332,122.029 -33.5188,126.928 -37.0138,127.115"/>
<text text-anchor="middle" x="-55.1232" y="146.214" font-family="monospace" font-size="6.00">2374779:A&gt;T</text>
</g>
<!-- 21 -->
<g id="node22" class="node"><title>21</title>
<ellipse fill="deepskyblue" stroke="black" cx="-235.357" cy="179.914" rx="2.5" ry="2.5"/>
</g>
<!-- 25 -->
<g id="node26" class="node"><title>25</title>
<ellipse fill="#ff3030" stroke="black" cx="43.5748" cy="195.158" rx="3.5" ry="3.5"/>
<text text-anchor="middle" x="43.5748" y="196.458" font-family="monospace" font-size="6.00">2</text>
</g>
<!-- 32 -->
<g id="node33" class="node"><title>32</title>
<ellipse fill="#ff3030" stroke="black" cx="-171.231" cy="-115.068" rx="2.5" ry="2.5"/>
</g>
<!-- 34 -->
<g id="node35" class="node"><title>34</title>
<ellipse fill="#ff3030" stroke="black" cx="183.251" cy="74.392" rx="2.5" ry="2.5"/>
</g>
<!-- 34&#45;&gt;5 -->
<g id="edge28" class="edge"><title>34&#45;&gt;5</title>
<path fill="none" stroke="black" d="M180.471,74.2616C172.95,73.9089 151.731,72.9138 136.22,72.1864"/>
<polygon fill="black" stroke="black" points="136.119,73.9337 131.207,71.9513 136.283,70.4375 136.119,73.9337"/>
<text text-anchor="middle" x="155.853" y="77.9071" font-family="monospace" font-size="6.00">2362259:C&gt;G</text>
</g>
<!-- 36 -->
<g id="node37" class="node"><title>36</title>
<ellipse fill="deepskyblue" stroke="black" cx="43.2481" cy="-202.432" rx="2.5" ry="2.5"/>
</g>
<!-- 37 -->
<g id="node38" class="node"><title>37</title>
<ellipse fill="#1874cd" stroke="black" cx="-22.9666" cy="-224.635" rx="2.5" ry="2.5"/>
</g>
<!-- 39 -->
<g id="node40" class="node"><title>39</title>
<ellipse fill="#1874cd" stroke="black" cx="-109.117" cy="-196.733" rx="2.5" ry="2.5"/>
</g>
<!-- 40&#45;&gt;37 -->
<g id="edge57" class="edge"><title>40&#45;&gt;37</title>
<path fill="none" stroke="black" d="M-26.8424,-180.034C-26.2479,-186.875 -24.592,-205.931 -23.6481,-216.792"/>
<polygon fill="black" stroke="black" points="-25.3847,-217.024 -23.2083,-221.853 -21.8978,-216.721 -25.3847,-217.024"/>
<text text-anchor="middle" x="-46.0321" y="-203.066" font-family="monospace" font-size="6.00">2360151:T&gt;A</text>
</g>
<!-- 42 -->
<g id="node43" class="node"><title>42</title>
<ellipse fill="brown" stroke="black" cx="-38.4517" cy="24.6557" rx="4.5" ry="4.5"/>
<text text-anchor="middle" x="-38.4517" y="25.9557" font-family="monospace" font-size="6.00">3</text>
</g>
<!-- 42&#45;&gt;6 -->
<g id="edge42" class="edge"><title>42&#45;&gt;6</title>
<path fill="none" stroke="black" d="M-33.5282,24.6004C-26.3827,24.5201 -12.5771,24.365 0.344647,24.2198"/>
<polygon fill="black" stroke="black" points="0.406733,22.4691 5.42611,24.1627 0.446122,25.9689 0.406733,22.4691"/>
<text text-anchor="middle" x="-35.1674" y="22.1828" font-family="monospace" font-size="6.00">2358667:T&gt;A</text>
</g>
<!-- 43 -->
<g id="node44" class="node"><title>43</title>
<ellipse fill="brown" stroke="black" cx="115.306" cy="-56.9201" rx="2.5" ry="2.5"/>
</g>
<!-- 43&#45;&gt;anon_6_43_0 -->
<g id="edge44" class="edge"><title>43&#45;&gt;anon_6_43_0</title>
<path fill="none" stroke="black" d="M113.108,-55.3265C108.953,-52.3224 99.6454,-45.6355 91.6665,-40.2079 86.2661,-36.5343 80.0104,-32.4621 75.6392,-29.6457"/>
<polygon fill="black" stroke="black" points="76.4702,-28.0997 71.3164,-26.8744 74.5812,-31.0462 76.4702,-28.0997"/>
<text text-anchor="middle" x="112.54" y="-35.3217" font-family="monospace" font-size="6.00">2417127:T&gt;A</text>
</g>
<!-- 46 -->
<g id="node47" class="node"><title>46</title>
<ellipse fill="brown" stroke="black" cx="117.279" cy="129.288" rx="2.5" ry="2.5"/>
</g>
<!-- 44&#45;&gt;46 -->
<g id="edge58" class="edge"><title>44&#45;&gt;46</title>
<path fill="none" stroke="black" d="M78.9208,101.109C86.6636,106.797 102.314,118.294 111.041,124.705"/>
<polygon fill="black" stroke="black" points="112.089,123.304 115.082,127.674 110.017,126.125 112.089,123.304"/>
<text text-anchor="middle" x="76.1328" y="112.288" font-family="monospace" font-size="6.00">2403047:T&gt;A</text>
</g>
<!-- 47 -->
<g id="node48" class="node"><title>47</title>
<ellipse fill="brown" stroke="black" cx="82.2863" cy="150.485" rx="2.5" ry="2.5"/>
</g>
<!-- 44&#45;&gt;47 -->
<g id="edge59" class="edge"><title>44&#45;&gt;47</title>
<path fill="none" stroke="black" d="M75.1759,103.378C76.6112,112.887 79.5122,132.106 81.1299,142.824"/>
<polygon fill="black" stroke="black" points="82.8632,142.582 81.8791,147.788 79.4024,143.105 82.8632,142.582"/>
<text text-anchor="middle" x="57.5519" y="123.544" font-family="monospace" font-size="6.00">2426642:T&gt;C</text>
</g>
<!-- 48 -->
<g id="node49" class="node"><title>48</title>
<ellipse fill="brown" stroke="black" cx="47.1159" cy="-3.97157" rx="2.5" ry="2.5"/>
</g>
<!-- 48&#45;&gt;6 -->
<g id="edge47" class="edge"><title>48&#45;&gt;6</title>
<path fill="none" stroke="black" d="M45.7736,-1.78559C45.6869,-1.6445 45.5967,-1.49762 45.5032,-1.34526"/>
<polygon fill="black" stroke="black" points="47.2183,-0.793918 43.1105,2.55112 44.2357,-2.62546 47.2183,-0.793918"/>
<text text-anchor="middle" x="66.5381" y="3.39786" font-family="monospace" font-size="6.00">2410330:C&gt;T</text>
</g>
<!-- anon_3_32_0&#45;&gt;32 -->
<g id="edge16" class="edge"><title>anon_3_32_0&#45;&gt;32</title>
<path fill="none" stroke="black" d="M-127.93,-106.198C-132.751,-107.185 -152.307,-111.191 -163.417,-113.467"/>
<polygon fill="black" stroke="black" points="-163.788,-111.757 -168.335,-114.475 -163.085,-115.185 -163.788,-111.757"/>
<text text-anchor="middle" x="-168.913" y="-105.491" font-family="monospace" font-size="6.00">2407846:C&gt;G</text>
</g>
<!-- anon_3_36_0&#45;&gt;36 -->
<g id="edge19" class="edge"><title>anon_3_36_0&#45;&gt;36</title>
<path fill="none" stroke="black" d="M18.3202,-164.214C21.1483,-168.55 32.7814,-186.385 39.1067,-196.083"/>
<polygon fill="black" stroke="black" points="37.6584,-197.066 41.8558,-200.298 40.5899,-195.154 37.6584,-197.066"/>
<text text-anchor="middle" x="20.6057" y="-184.483" font-family="monospace" font-size="6.00">P940H</text>
</g>
<!-- anon_3_39_0&#45;&gt;39 -->
<g id="edge22" class="edge"><title>anon_3_39_0&#45;&gt;39</title>
<path fill="none" stroke="black" d="M-82.2716,-162.131C-85.2333,-165.949 -97.1626,-181.325 -104.082,-190.243"/>
<polygon fill="black" stroke="black" points="-105.639,-189.395 -107.321,-194.418 -102.874,-191.541 -105.639,-189.395"/>
<text text-anchor="middle" x="-115.717" y="-180.372" font-family="monospace" font-size="6.00">2394110:C&gt;T</text>
</g>
<!-- anon_6_25_1 -->
<g id="node57" class="node"><title>anon_6_25_1</title>
<ellipse fill="white" stroke="black" cx="30.6659" cy="148.18" rx="1" ry="1"/>
</g>
<!-- anon_6_25_0&#45;&gt;anon_6_25_1 -->
<g id="edge38" class="edge"><title>anon_6_25_0&#45;&gt;anon_6_25_1</title>
<path fill="none" stroke="black" d="M22.1136,103.05C23.119,108.356 27.3678,130.776 29.4732,141.886"/>
<polygon fill="black" stroke="black" points="31.2128,141.668 30.4245,146.906 27.774,142.319 31.2128,141.668"/>
<text text-anchor="middle" x="5.2765" y="122.818" font-family="monospace" font-size="6.00">2362003:C&gt;T</text>
</g>
<!-- anon_6_25_1&#45;&gt;25 -->
<g id="edge39" class="edge"><title>anon_6_25_1&#45;&gt;25</title>
<path fill="none" stroke="black" d="M30.9849,149.341C32.373,154.392 37.9607,174.727 41.2066,186.54"/>
<polygon fill="black" stroke="black" points="42.9458,186.265 42.5833,191.55 39.5709,187.192 42.9458,186.265"/>
<text text-anchor="middle" x="28.7207" y="168.015" font-family="monospace" font-size="6.00">G54C</text>
</g>
<!-- anon_14_21_1 -->
<g id="node60" class="node"><title>anon_14_21_1</title>
<ellipse fill="white" stroke="black" cx="-200.374" cy="156.15" rx="1" ry="1"/>
</g>
<!-- anon_14_21_0&#45;&gt;anon_14_21_1 -->
<g id="edge54" class="edge"><title>anon_14_21_0&#45;&gt;anon_14_21_1</title>
<path fill="none" stroke="black" d="M-163.623,136.814C-167.828,139.027 -185.236,148.185 -194.505,153.062"/>
<polygon fill="black" stroke="black" points="-193.794,154.665 -199.033,155.444 -195.423,151.568 -193.794,154.665"/>
<text text-anchor="middle" x="-190.689" y="143.856" font-family="monospace" font-size="6.00">Q545L</text>
</g>
<!-- anon_14_21_1&#45;&gt;21 -->
<g id="edge55" class="edge"><title>anon_14_21_1&#45;&gt;21</title>
<path fill="none" stroke="black" d="M-201.239,156.737C-204.934,159.247 -219.607,169.214 -228.463,175.23"/>
<polygon fill="black" stroke="black" points="-227.956,177.002 -233.075,178.364 -229.923,174.106 -227.956,177.002"/>
<text text-anchor="middle" x="-238.441" y="165.543" font-family="monospace" font-size="6.00">2415877:C&gt;T</text>
</g>
</g>
</svg>
