<?xml version="1.0" encoding="UTF-8" standalone="no"?>
<!DOCTYPE svg PUBLIC "-//W3C//DTD SVG 1.1//EN"
 "http://www.w3.org/Graphics/SVG/1.1/DTD/svg11.dtd">
<!-- Generated by graphviz version 2.38.0 (20140413.2041)
 -->
<!-- Title: %3 Pages: 1 -->
<svg width="481pt" height="228pt"
 viewBox="0.00 0.00 480.67 228.40" xmlns="http://www.w3.org/2000/svg" xmlns:xlink="http://www.w3.org/1999/xlink">
<g id="graph0" class="graph" transform="scale(1 1) rotate(0) translate(197.331 108.258)">
<title>%3</title>
<polygon fill="white" stroke="none" points="-197.331,120.14 -197.331,-108.258 283.343,-108.258 283.343,120.14 -197.331,120.14"/>
<!-- 0 -->
<g id="node1" class="node"><title>0</title>
<ellipse fill="#1874cd" stroke="black" cx="-183.331" cy="56.6024" rx="10" ry="10"/>
<text text-anchor="middle" x="-183.331" y="57.9024" font-family="monospace" font-size="6.00">8</text>
</g>
<!-- 1 -->
<g id="node2" class="node"><title>1</title>
<ellipse fill="#1874cd" stroke="black" cx="-89.6583" cy="8.76847" rx="12" ry="12"/>
<text text-anchor="middle" x="-89.6583" y="10.0685" font-family="monospace" font-size="6.00">11</text>
</g>
<!-- 3 -->
<g id="node4" class="node"><title>3</title>
<ellipse fill="#1874cd" stroke="black" cx="-102.198" cy="-56.0303" rx="7" ry="7"/>
<text text-anchor="middle" x="-102.198" y="-54.7303" font-family="monospace" font-size="6.00">4</text>
</g>
<!-- 1&#45;&gt;3 -->
<g id="edge2" class="edge"><title>1&#45;&gt;3</title>
<path fill="none" stroke="black" d="M-91.9582,-3.11662C-94.1941,-14.6714 -97.5745,-32.1397 -99.8324,-43.8079"/>
<polygon fill="black" stroke="black" points="-101.609,-43.7772 -100.841,-49.0187 -98.1726,-44.4422 -101.609,-43.7772"/>
<text text-anchor="middle" x="-107.395" y="-25.6623" font-family="monospace" font-size="6.00">V1681I</text>
</g>
<!-- 4 -->
<g id="node5" class="node"><title>4</title>
<ellipse fill="#1874cd" stroke="black" cx="-122.572" cy="66.0178" rx="6" ry="6"/>
<text text-anchor="middle" x="-122.572" y="67.3178" font-family="monospace" font-size="6.00">3</text>
</g>
<!-- 1&#45;&gt;4 -->
<g id="edge3" class="edge"><title>1&#45;&gt;4</title>
<path fill="none" stroke="black" d="M-95.6952,19.2689C-101.756,29.8103 -111.019,45.9227 -116.934,56.2112"/>
<polygon fill="black" stroke="black" points="-115.531,57.2817 -119.54,60.7441 -118.565,55.5372 -115.531,57.2817"/>
<text text-anchor="middle" x="-127.315" y="35.54" font-family="monospace" font-size="6.00">2376361:T&gt;G</text>
</g>
<!-- 5 -->
<g id="node6" class="node"><title>5</title>
<ellipse fill="#1874cd" stroke="black" cx="-136.606" cy="-23.4725" rx="3.5" ry="3.5"/>
</g>
<!-- 1&#45;&gt;5 -->
<g id="edge4" class="edge"><title>1&#45;&gt;5</title>
<path fill="none" stroke="black" d="M-99.6148,1.93099C-108.531,-4.19198 -121.394,-13.0254 -129.364,-18.4991"/>
<polygon fill="black" stroke="black" points="-130.485,-17.1458 -133.616,-21.4189 -128.504,-20.031 -130.485,-17.1458"/>
<text text-anchor="middle" x="-125.99" y="-10.4841" font-family="monospace" font-size="6.00">L1617F</text>
</g>
<!-- anon_1_7_0 -->
<g id="node9" class="node"><title>anon_1_7_0</title>
<ellipse fill="white" stroke="black" cx="-32.5915" cy="4.63838" rx="2.5" ry="2.5"/>
</g>
<!-- 1&#45;&gt;anon_1_7_0 -->
<g id="edge5" class="edge"><title>1&#45;&gt;anon_1_7_0</title>
<path fill="none" stroke="black" d="M-77.5559,7.89258C-66.391,7.08454 -50.1346,5.90802 -40.5334,5.21316"/>
<polygon fill="black" stroke="black" points="-40.4189,3.45038 -35.3056,4.8348 -40.1662,6.94125 -40.4189,3.45038"/>
<text text-anchor="middle" x="-38.0447" y="11.3529" font-family="monospace" font-size="6.00">2408423:C&gt;T</text>
</g>
<!-- 2 -->
<g id="node3" class="node"><title>2</title>
<ellipse fill="#1874cd" stroke="black" cx="-99.6955" cy="112.64" rx="3.5" ry="3.5"/>
</g>
<!-- 4&#45;&gt;0 -->
<g id="edge1" class="edge"><title>4&#45;&gt;0</title>
<path fill="none" stroke="black" d="M-128.62,65.0806C-137.76,63.6643 -155.38,60.9339 -168.16,58.9534"/>
<polygon fill="black" stroke="black" points="-168.629,60.6516 -173.302,58.1565 -168.093,57.1929 -168.629,60.6516"/>
<text text-anchor="middle" x="-148.39" y="66.817" font-family="monospace" font-size="6.00">2366674:G&gt;T</text>
</g>
<!-- 4&#45;&gt;2 -->
<g id="edge13" class="edge"><title>4&#45;&gt;2</title>
<path fill="none" stroke="black" d="M-119.767,71.7346C-115.698,80.0276 -108.143,95.4233 -103.553,104.779"/>
<polygon fill="black" stroke="black" points="-101.873,104.23 -101.241,109.49 -105.015,105.772 -101.873,104.23"/>
<text text-anchor="middle" x="-132.66" y="93.0568" font-family="monospace" font-size="6.00">2381529:T&gt;C</text>
</g>
<!-- 6 -->
<g id="node7" class="node"><title>6</title>
<ellipse fill="#1874cd" stroke="black" cx="-153.031" cy="108.111" rx="5" ry="5"/>
<text text-anchor="middle" x="-153.031" y="109.411" font-family="monospace" font-size="6.00">2</text>
</g>
<!-- 4&#45;&gt;6 -->
<g id="edge14" class="edge"><title>4&#45;&gt;6</title>
<path fill="none" stroke="black" d="M-126.307,71.1792C-131.454,78.2921 -140.788,91.192 -146.949,99.7064"/>
<polygon fill="black" stroke="black" points="-145.65,100.896 -149.999,103.921 -148.486,98.8442 -145.65,100.896"/>
<text text-anchor="middle" x="-148.128" y="83.2428" font-family="monospace" font-size="6.00">S2076T</text>
</g>
<!-- 7 -->
<g id="node8" class="node"><title>7</title>
<ellipse fill="#1874cd" stroke="black" cx="260.843" cy="-85.7583" rx="18.5" ry="18.5"/>
<text text-anchor="middle" x="260.843" y="-84.4583" font-family="monospace" font-size="6.00">26</text>
</g>
<!-- anon_1_7_1 -->
<g id="node10" class="node"><title>anon_1_7_1</title>
<ellipse fill="white" stroke="black" cx="10.1596" cy="-1.59583" rx="2.5" ry="2.5"/>
</g>
<!-- anon_1_7_1&#45;&gt;anon_1_7_0 -->
<g id="edge6" class="edge"><title>anon_1_7_1&#45;&gt;anon_1_7_0</title>
<path fill="none" stroke="black" d="M7.61336,-1.22452C1.30166,-0.304117 -15.2617,2.11125 -25.0474,3.53825"/>
<polygon fill="black" stroke="black" points="-24.9119,5.28693 -30.1122,4.27683 -25.417,1.82356 -24.9119,5.28693"/>
<text text-anchor="middle" x="-29.717" y="-1.04314" font-family="monospace" font-size="6.00">2408677:A&gt;C</text>
</g>
<!-- anon_1_7_2 -->
<g id="node11" class="node"><title>anon_1_7_2</title>
<ellipse fill="white" stroke="black" cx="51.7409" cy="-9.38896" rx="2.5" ry="2.5"/>
</g>
<!-- anon_1_7_2&#45;&gt;anon_1_7_1 -->
<g id="edge7" class="edge"><title>anon_1_7_2&#45;&gt;anon_1_7_1</title>
<path fill="none" stroke="black" d="M49.0126,-8.87763C42.7883,-7.71107 27.3502,-4.81767 17.9152,-3.04938"/>
<polygon fill="black" stroke="black" points="18.1893,-1.32035 12.9524,-2.11926 17.5445,-4.76045 18.1893,-1.32035"/>
<text text-anchor="middle" x="12.4639" y="-8.16351" font-family="monospace" font-size="6.00">2408751:T&gt;A</text>
</g>
<!-- anon_1_7_3 -->
<g id="node12" class="node"><title>anon_1_7_3</title>
<ellipse fill="white" stroke="black" cx="91.7627" cy="-21.6178" rx="2.5" ry="2.5"/>
</g>
<!-- anon_1_7_3&#45;&gt;anon_1_7_2 -->
<g id="edge8" class="edge"><title>anon_1_7_3&#45;&gt;anon_1_7_2</title>
<path fill="none" stroke="black" d="M89.1368,-20.8154C83.2024,-19.0021 68.5663,-14.53 59.4642,-11.7488"/>
<polygon fill="black" stroke="black" points="59.7222,-9.99785 54.429,-10.2103 58.6994,-13.3451 59.7222,-9.99785"/>
<text text-anchor="middle" x="53.3005" y="-18.4821" font-family="monospace" font-size="6.00">2408788:G&gt;A</text>
</g>
<!-- anon_1_7_4 -->
<g id="node13" class="node"><title>anon_1_7_4</title>
<ellipse fill="white" stroke="black" cx="131.479" cy="-34.0643" rx="2.5" ry="2.5"/>
</g>
<!-- anon_1_7_3&#45;&gt;anon_1_7_4 -->
<g id="edge9" class="edge"><title>anon_1_7_3&#45;&gt;anon_1_7_4</title>
<path fill="none" stroke="black" d="M94.3686,-22.4344C100.258,-24.28 114.782,-28.8317 123.815,-31.6624"/>
<polygon fill="black" stroke="black" points="123.517,-33.4029 128.811,-33.2283 124.564,-30.0631 123.517,-33.4029"/>
<text text-anchor="middle" x="88.0916" y="-29.2484" font-family="monospace" font-size="6.00">2410255:T&gt;C</text>
</g>
<!-- anon_1_7_5 -->
<g id="node14" class="node"><title>anon_1_7_5</title>
<ellipse fill="white" stroke="black" cx="168.732" cy="-52.3735" rx="2.5" ry="2.5"/>
</g>
<!-- anon_1_7_4&#45;&gt;anon_1_7_5 -->
<g id="edge10" class="edge"><title>anon_1_7_4&#45;&gt;anon_1_7_5</title>
<path fill="none" stroke="black" d="M133.923,-35.2656C139.394,-37.9546 152.812,-44.549 161.299,-48.7206"/>
<polygon fill="black" stroke="black" points="160.97,-50.5088 166.23,-51.1437 162.514,-47.3677 160.97,-50.5088"/>
<text text-anchor="middle" x="126.611" y="-44.1931" font-family="monospace" font-size="6.00">2410272:C&gt;T</text>
</g>
<!-- anon_1_7_6 -->
<g id="node15" class="node"><title>anon_1_7_6</title>
<ellipse fill="white" stroke="black" cx="204.966" cy="-72.4761" rx="2.5" ry="2.5"/>
</g>
<!-- anon_1_7_6&#45;&gt;7 -->
<g id="edge12" class="edge"><title>anon_1_7_6&#45;&gt;7</title>
<path fill="none" stroke="black" d="M207.661,-73.1168C213.155,-74.4226 226.124,-77.5054 237.879,-80.2997"/>
<polygon fill="black" stroke="black" points="237.548,-82.0197 242.817,-81.4735 238.357,-78.6145 237.548,-82.0197"/>
<text text-anchor="middle" x="201.77" y="-78.9082" font-family="monospace" font-size="6.00">2422250:C&gt;T</text>
</g>
<!-- anon_1_7_6&#45;&gt;anon_1_7_5 -->
<g id="edge11" class="edge"><title>anon_1_7_6&#45;&gt;anon_1_7_5</title>
<path fill="none" stroke="black" d="M202.589,-71.1572C197.267,-68.2047 184.217,-60.9644 175.961,-56.3842"/>
<polygon fill="black" stroke="black" points="176.387,-54.6191 171.165,-53.7237 174.689,-57.6797 176.387,-54.6191"/>
<text text-anchor="middle" x="168.275" y="-65.9707" font-family="monospace" font-size="6.00">2415838:G&gt;A</text>
</g>
</g>
</svg>
