<?xml version="1.0" encoding="UTF-8" standalone="no"?>
<!DOCTYPE svg PUBLIC "-//W3C//DTD SVG 1.1//EN"
 "http://www.w3.org/Graphics/SVG/1.1/DTD/svg11.dtd">
<!-- Generated by graphviz version 2.38.0 (20140413.2041)
 -->
<!-- Title: %3 Pages: 1 -->
<svg width="434pt" height="208pt"
 viewBox="0.00 0.00 433.92 207.69" xmlns="http://www.w3.org/2000/svg" xmlns:xlink="http://www.w3.org/1999/xlink">
<g id="graph0" class="graph" transform="scale(1 1) rotate(0) translate(178.526 97.0069)">
<title>%3</title>
<polygon fill="white" stroke="none" points="-178.526,110.687 -178.526,-97.0069 255.395,-97.0069 255.395,110.687 -178.526,110.687"/>
<!-- 0 -->
<g id="node1" class="node"><title>0</title>
<ellipse fill="#1874cd" stroke="black" cx="-167.526" cy="51.2783" rx="7" ry="7"/>
<text text-anchor="middle" x="-167.526" y="52.5783" font-family="monospace" font-size="6.00">8</text>
</g>
<!-- 1 -->
<g id="node2" class="node"><title>1</title>
<ellipse fill="#1874cd" stroke="black" cx="-82.7053" cy="8.57374" rx="8.5" ry="8.5"/>
<text text-anchor="middle" x="-82.7053" y="9.87374" font-family="monospace" font-size="6.00">11</text>
</g>
<!-- 3 -->
<g id="node4" class="node"><title>3</title>
<ellipse fill="#1874cd" stroke="black" cx="-93.0907" cy="-49.3854" rx="5" ry="5"/>
<text text-anchor="middle" x="-93.0907" y="-48.0854" font-family="monospace" font-size="6.00">4</text>
</g>
<!-- 1&#45;&gt;3 -->
<g id="edge2" class="edge"><title>1&#45;&gt;3</title>
<path fill="none" stroke="black" d="M-84.2377,0.0216699C-86.1019,-10.3825 -89.2469,-27.9338 -91.2432,-39.075"/>
<polygon fill="black" stroke="black" points="-93.0102,-39.0148 -92.1696,-44.2451 -89.5651,-39.6322 -93.0102,-39.0148"/>
<text text-anchor="middle" x="-99.7263" y="-24.4383" font-family="monospace" font-size="6.00">V1681I</text>
</g>
<!-- 4 -->
<g id="node5" class="node"><title>4</title>
<ellipse fill="#1874cd" stroke="black" cx="-112.444" cy="60.0351" rx="4.5" ry="4.5"/>
<text text-anchor="middle" x="-112.444" y="61.3351" font-family="monospace" font-size="6.00">3</text>
</g>
<!-- 1&#45;&gt;4 -->
<g id="edge3" class="edge"><title>1&#45;&gt;4</title>
<path fill="none" stroke="black" d="M-87.0933,16.167C-92.5416,25.5952 -101.81,41.6337 -107.503,51.4852"/>
<polygon fill="black" stroke="black" points="-106.098,52.5515 -110.115,56.0051 -109.128,50.8003 -106.098,52.5515"/>
<text text-anchor="middle" x="-119.597" y="33.8741" font-family="monospace" font-size="6.00">2376361:T&gt;G</text>
</g>
<!-- 5 -->
<g id="node6" class="node"><title>5</title>
<ellipse fill="#1874cd" stroke="black" cx="-125.61" cy="-21.3044" rx="2.5" ry="2.5"/>
</g>
<!-- 1&#45;&gt;5 -->
<g id="edge4" class="edge"><title>1&#45;&gt;5</title>
<path fill="none" stroke="black" d="M-89.79,3.63998C-97.8347,-1.96226 -110.868,-11.0387 -118.798,-16.5608"/>
<polygon fill="black" stroke="black" points="-120.245,-15.4361 -123.348,-19.7296 -118.245,-18.3083 -120.245,-15.4361"/>
<text text-anchor="middle" x="-118.295" y="-10.4018" font-family="monospace" font-size="6.00">L1617F</text>
</g>
<!-- anon_1_7_0 -->
<g id="node9" class="node"><title>anon_1_7_0</title>
<ellipse fill="white" stroke="black" cx="-31.1574" cy="5.16706" rx="1" ry="1"/>
</g>
<!-- 1&#45;&gt;anon_1_7_0 -->
<g id="edge5" class="edge"><title>1&#45;&gt;anon_1_7_0</title>
<path fill="none" stroke="black" d="M-74.1932,8.0112C-63.8844,7.32991 -46.7571,6.19801 -37.5238,5.5878"/>
<polygon fill="black" stroke="black" points="-37.5106,3.8332 -32.406,5.24958 -37.2797,7.32558 -37.5106,3.8332"/>
<text text-anchor="middle" x="-32.5689" y="11.4482" font-family="monospace" font-size="6.00">2408423:C&gt;T</text>
</g>
<!-- 2 -->
<g id="node3" class="node"><title>2</title>
<ellipse fill="#1874cd" stroke="black" cx="-91.5421" cy="104.187" rx="2.5" ry="2.5"/>
</g>
<!-- 4&#45;&gt;0 -->
<g id="edge1" class="edge"><title>4&#45;&gt;0</title>
<path fill="none" stroke="black" d="M-117.14,59.2885C-125.533,57.9543 -143.352,55.1214 -155.387,53.2081"/>
<polygon fill="black" stroke="black" points="-155.792,54.9158 -160.455,52.4024 -155.242,51.4592 -155.792,54.9158"/>
<text text-anchor="middle" x="-117.875" y="53.6331" font-family="monospace" font-size="6.00">2366674:G&gt;T</text>
</g>
<!-- 4&#45;&gt;2 -->
<g id="edge13" class="edge"><title>4&#45;&gt;2</title>
<path fill="none" stroke="black" d="M-110.515,64.1097C-106.933,71.6762 -99.2179,87.9728 -94.8088,97.2864"/>
<polygon fill="black" stroke="black" points="-93.2088,96.5764 -92.6511,101.844 -96.3722,98.074 -93.2088,96.5764"/>
<text text-anchor="middle" x="-122.596" y="87.7502" font-family="monospace" font-size="6.00">2381529:T&gt;C</text>
</g>
<!-- 6 -->
<g id="node7" class="node"><title>6</title>
<ellipse fill="#1874cd" stroke="black" cx="-140.992" cy="99.0899" rx="3.5" ry="3.5"/>
<text text-anchor="middle" x="-140.992" y="100.39" font-family="monospace" font-size="6.00">2</text>
</g>
<!-- 4&#45;&gt;6 -->
<g id="edge14" class="edge"><title>4&#45;&gt;6</title>
<path fill="none" stroke="black" d="M-115.285,63.9226C-119.957,70.3137 -129.344,83.1552 -135.39,91.4254"/>
<polygon fill="black" stroke="black" points="-134.286,92.8818 -138.65,95.8856 -137.112,90.8163 -134.286,92.8818"/>
<text text-anchor="middle" x="-138.407" y="77.6217" font-family="monospace" font-size="6.00">S2076T</text>
</g>
<!-- 7 -->
<g id="node8" class="node"><title>7</title>
<ellipse fill="#1874cd" stroke="black" cx="238.395" cy="-80.0069" rx="13" ry="13"/>
<text text-anchor="middle" x="238.395" y="-78.7069" font-family="monospace" font-size="6.00">26</text>
</g>
<!-- anon_1_7_1 -->
<g id="node10" class="node"><title>anon_1_7_1</title>
<ellipse fill="white" stroke="black" cx="8.65295" cy="-0.709075" rx="1" ry="1"/>
</g>
<!-- anon_1_7_1&#45;&gt;anon_1_7_0 -->
<g id="edge6" class="edge"><title>anon_1_7_1&#45;&gt;anon_1_7_0</title>
<path fill="none" stroke="black" d="M7.32839,-0.513565C2.41745,0.211306 -14.9627,2.77667 -24.6002,4.19921"/>
<polygon fill="black" stroke="black" points="-24.585,5.96585 -29.787,4.96479 -25.0962,2.50336 -24.585,5.96585"/>
<text text-anchor="middle" x="-31.9667" y="-0.0131531" font-family="monospace" font-size="6.00">2408677:A&gt;C</text>
</g>
<!-- anon_1_7_2 -->
<g id="node11" class="node"><title>anon_1_7_2</title>
<ellipse fill="white" stroke="black" cx="47.3076" cy="-8.13647" rx="1" ry="1"/>
</g>
<!-- anon_1_7_2&#45;&gt;anon_1_7_1 -->
<g id="edge7" class="edge"><title>anon_1_7_2&#45;&gt;anon_1_7_1</title>
<path fill="none" stroke="black" d="M46.0215,-7.88935C41.2531,-6.97312 24.3775,-3.73051 15.0197,-1.93244"/>
<polygon fill="black" stroke="black" points="15.224,-0.189738 9.98353,-0.964742 14.5635,-3.62686 15.224,-0.189738"/>
<text text-anchor="middle" x="7.25751" y="-6.67605" font-family="monospace" font-size="6.00">2408751:T&gt;A</text>
</g>
<!-- anon_1_7_3 -->
<g id="node12" class="node"><title>anon_1_7_3</title>
<ellipse fill="white" stroke="black" cx="84.4282" cy="-19.8561" rx="1" ry="1"/>
</g>
<!-- anon_1_7_3&#45;&gt;anon_1_7_2 -->
<g id="edge8" class="edge"><title>anon_1_7_3&#45;&gt;anon_1_7_2</title>
<path fill="none" stroke="black" d="M83.1932,-19.4662C78.614,-18.0205 62.4081,-12.904 53.4217,-10.0668"/>
<polygon fill="black" stroke="black" points="53.8803,-8.37649 48.5854,-8.53989 52.8265,-11.7141 53.8803,-8.37649"/>
<text text-anchor="middle" x="45.1342" y="-16.2803" font-family="monospace" font-size="6.00">2408788:G&gt;A</text>
</g>
<!-- anon_1_7_4 -->
<g id="node13" class="node"><title>anon_1_7_4</title>
<ellipse fill="white" stroke="black" cx="121.277" cy="-31.7074" rx="1" ry="1"/>
</g>
<!-- anon_1_7_3&#45;&gt;anon_1_7_4 -->
<g id="edge9" class="edge"><title>anon_1_7_3&#45;&gt;anon_1_7_4</title>
<path fill="none" stroke="black" d="M86.0116,-20.3653C90.9777,-21.9625 106.434,-26.9335 115.146,-29.7354"/>
<polygon fill="black" stroke="black" points="114.755,-31.4481 120.051,-31.3131 115.827,-28.1162 114.755,-31.4481"/>
<text text-anchor="middle" x="81.8764" y="-27.9894" font-family="monospace" font-size="6.00">2410255:T&gt;C</text>
</g>
<!-- anon_1_7_5 -->
<g id="node14" class="node"><title>anon_1_7_5</title>
<ellipse fill="white" stroke="black" cx="155.725" cy="-49.143" rx="1" ry="1"/>
</g>
<!-- anon_1_7_4&#45;&gt;anon_1_7_5 -->
<g id="edge10" class="edge"><title>anon_1_7_4&#45;&gt;anon_1_7_5</title>
<path fill="none" stroke="black" d="M122.757,-32.4566C127.355,-34.7836 141.569,-41.9781 149.754,-46.1209"/>
<polygon fill="black" stroke="black" points="149.328,-47.8663 154.579,-48.5629 150.908,-44.7435 149.328,-47.8663"/>
<text text-anchor="middle" x="117.335" y="-42.5411" font-family="monospace" font-size="6.00">2410272:C&gt;T</text>
</g>
<!-- anon_1_7_6 -->
<g id="node15" class="node"><title>anon_1_7_6</title>
<ellipse fill="white" stroke="black" cx="189.28" cy="-68.0824" rx="1" ry="1"/>
</g>
<!-- anon_1_7_6&#45;&gt;7 -->
<g id="edge12" class="edge"><title>anon_1_7_6&#45;&gt;7</title>
<path fill="none" stroke="black" d="M190.494,-68.3772C194.682,-69.3939 208.918,-72.8503 220.791,-75.7329"/>
<polygon fill="black" stroke="black" points="220.427,-77.4453 225.699,-76.9244 221.253,-74.0441 220.427,-77.4453"/>
<text text-anchor="middle" x="187.214" y="-74.8792" font-family="monospace" font-size="6.00">2422250:C&gt;T</text>
</g>
<!-- anon_1_7_6&#45;&gt;anon_1_7_5 -->
<g id="edge11" class="edge"><title>anon_1_7_6&#45;&gt;anon_1_7_5</title>
<path fill="none" stroke="black" d="M187.839,-67.2686C183.36,-64.7409 169.514,-56.9259 161.541,-52.4258"/>
<polygon fill="black" stroke="black" points="162.056,-50.7069 156.842,-49.7732 160.336,-53.7549 162.056,-50.7069"/>
<text text-anchor="middle" x="151.665" y="-60.9041" font-family="monospace" font-size="6.00">2415838:G&gt;A</text>
</g>
</g>
</svg>
