<?xml version="1.0" encoding="UTF-8" standalone="no"?>
<!DOCTYPE svg PUBLIC "-//W3C//DTD SVG 1.1//EN"
 "http://www.w3.org/Graphics/SVG/1.1/DTD/svg11.dtd">
<!-- Generated by graphviz version 2.38.0 (20140413.2041)
 -->
<!-- Title: %3 Pages: 1 -->
<svg width="180pt" height="177pt"
 viewBox="0.00 0.00 179.69 176.96" xmlns="http://www.w3.org/2000/svg" xmlns:xlink="http://www.w3.org/1999/xlink">
<g id="graph0" class="graph" transform="scale(1 1) rotate(0) translate(97.5745 88.045)">
<title>%3</title>
<polygon fill="white" stroke="none" points="-97.5745,88.9194 -97.5745,-88.045 82.1167,-88.045 82.1167,88.9194 -97.5745,88.9194"/>
<!-- 0 -->
<g id="node1" class="node"><title>0</title>
<path fill="#1874cd" stroke="black" stroke-width="0.5" d="M-9.47181,-15.663C-9.47181,-15.663 9.52819,-15.663 9.52819,-15.663 9.52819,-16.3867 9.48684,-17.1099 9.40434,-17.8289 9.32185,-18.5479 9.19834,-19.2616 9.03442,-19.9665 8.8705,-20.6714 8.66644,-21.3663 8.42323,-22.048 8.18003,-22.7296 7.89808,-23.3968 7.57876,-24.0462 7.25944,-24.6957 6.90328,-25.3264 6.51201,-25.9352 6.12074,-26.544 5.695,-27.13 5.23688,-27.6903 4.77876,-28.2505 4.289,-28.7842 3.77001,-29.2885 3.25101,-29.7929 2.70361,-30.2672 2.1305,-30.7092 2.1305,-30.7092 -9.47181,-15.663 -9.47181,-15.663"/>
<path fill="olivedrab" stroke="black" stroke-width="0.5" d="M-9.47181,-15.663C-9.47181,-15.663 2.1305,-30.7092 2.1305,-30.7092 1.28848,-31.3585 0.393436,-31.9359 -0.545195,-32.4355 -1.48383,-32.9351 -2.46274,-33.3549 -3.47162,-33.6907 -4.48049,-34.0265 -5.51578,-34.277 -6.56657,-34.4396 -7.61735,-34.6022 -8.67994,-34.6763 -9.74312,-34.6611 -10.8063,-34.6459 -11.8663,-34.5415 -12.912,-34.349 -13.9578,-34.1565 -14.9855,-33.8765 -15.9844,-33.512 -16.9832,-33.1476 -17.9498,-32.6999 -18.8737,-32.1737 -19.7977,-31.6476 -20.6759,-31.0448 -21.499,-30.3717 -22.3222,-29.6986 -23.0874,-28.9577 -23.7865,-28.1566 -24.4857,-27.3555 -25.1164,-26.4971 -25.672,-25.5905 -26.2275,-24.6839 -26.706,-23.7323 -27.1024,-22.7456 -27.4987,-21.759 -27.8116,-20.7408 -28.0376,-19.7018 -28.2636,-18.6628 -28.402,-17.6067 -28.4514,-16.5445 -28.5007,-15.4824 -28.4608,-14.4179 -28.332,-13.3625 -28.2033,-12.307 -27.9862,-11.2642 -27.6829,-10.2451 -27.3797,-9.22592 -26.9915,-8.23403 -26.5224,-7.27983 -26.0532,-6.32564 -25.5048,-5.41251 -24.8829,-4.55006 -24.261,-3.68761 -23.5678,-2.87889 -22.8106,-2.13242 -22.0534,-1.38595 -21.2348,-0.704356 -20.3636,-0.0948228 -19.4923,0.51471 -18.5715,1.05003 -17.6107,1.50551 -16.6499,1.96098 -15.6525,2.335 -14.6292,2.62362 -13.6058,2.91224 -12.56,3.11444 -11.5028,3.2281 -10.4456,3.34176 -9.38074,3.36648 -8.31941,3.30199 -7.25808,3.2375 -6.20403,3.08403 -5.16837,2.84319 -4.13271,2.60236 -3.1191,2.27502 -2.1382,1.86461 -1.15731,1.4542 -0.212597,0.962176 0.685981,0.393719 1.58456,-0.174738 2.43384,-0.817623 3.22486,-1.52816 4.01589,-2.2387 4.74587,-3.01439 5.40712,-3.84706 6.06838,-4.67972 6.65857,-5.56643 7.17148,-6.49783 7.68439,-7.42923 8.11821,-8.40205 8.46837,-9.40603 8.81852,-10.41 9.08379,-11.4416 9.26136,-12.49 9.43893,-13.5383 9.52819,-14.5997 9.52819,-15.663 9.52819,-15.663 -9.47181,-15.663 -9.47181,-15.663"/>
<ellipse fill="none" stroke="black" cx="-9.47181" cy="-15.663" rx="19" ry="19"/>
<text text-anchor="middle" x="-9.47181" y="-14.363" font-family="monospace" font-size="6.00">55</text>
</g>
<!-- 4 -->
<g id="node5" class="node"><title>4</title>
<ellipse fill="olivedrab" stroke="black" cx="64.589" cy="-1.19218" rx="7.5" ry="7.5"/>
<text text-anchor="middle" x="64.589" y="0.107819" font-family="monospace" font-size="6.00">9</text>
</g>
<!-- 0&#45;&gt;4 -->
<g id="edge2" class="edge"><title>0&#45;&gt;4</title>
<path fill="none" stroke="black" d="M9.21686,-12.0114C22.5945,-9.39754 40.2449,-5.94882 51.9838,-3.65513"/>
<polygon fill="black" stroke="black" points="52.3532,-5.36612 56.9248,-2.6897 51.682,-1.93108 52.3532,-5.36612"/>
<text text-anchor="middle" x="33.3324" y="-2.49945" font-family="monospace" font-size="6.00">2366965:T&gt;G</text>
</g>
<!-- 5 -->
<g id="node6" class="node"><title>5</title>
<ellipse fill="olivedrab" stroke="black" cx="-60.8929" cy="-56.8418" rx="2.5" ry="2.5"/>
</g>
<!-- 0&#45;&gt;5 -->
<g id="edge3" class="edge"><title>0&#45;&gt;5</title>
<path fill="none" stroke="black" d="M-24.3449,-27.5736C-34.3705,-35.6022 -47.087,-45.7858 -54.5724,-51.7802"/>
<polygon fill="black" stroke="black" points="-56.0126,-50.6915 -58.8215,-55.1829 -53.8248,-53.4235 -56.0126,-50.6915"/>
<text text-anchor="middle" x="-62.6631" y="-43.6422" font-family="monospace" font-size="6.00">2383492:G&gt;A</text>
</g>
<!-- 7 -->
<g id="node8" class="node"><title>7</title>
<ellipse fill="olivedrab" stroke="black" cx="-11.9218" cy="-81.545" rx="2.5" ry="2.5"/>
</g>
<!-- 0&#45;&gt;7 -->
<g id="edge5" class="edge"><title>0&#45;&gt;7</title>
<path fill="none" stroke="black" d="M-10.1805,-34.7188C-10.6627,-47.6873 -11.2757,-64.1702 -11.6309,-73.7218"/>
<polygon fill="black" stroke="black" points="-13.386,-73.8294 -11.8231,-78.891 -9.88843,-73.9595 -13.386,-73.8294"/>
<text text-anchor="middle" x="-32.0015" y="-58.9967" font-family="monospace" font-size="6.00">2380627:C&gt;A</text>
</g>
<!-- 8 -->
<g id="node9" class="node"><title>8</title>
<ellipse fill="olivedrab" stroke="black" cx="-77.3574" cy="-5.772" rx="2.5" ry="2.5"/>
</g>
<!-- 0&#45;&gt;8 -->
<g id="edge6" class="edge"><title>0&#45;&gt;8</title>
<path fill="none" stroke="black" d="M-28.3817,-12.9078C-41.8972,-10.9386 -59.3976,-8.38878 -69.4015,-6.93119"/>
<polygon fill="black" stroke="black" points="-69.3589,-5.169 -74.559,-6.17974 -69.8636,-8.63243 -69.3589,-5.169"/>
<text text-anchor="middle" x="-72.5745" y="-11.7286" font-family="monospace" font-size="6.00">2359596:T&gt;C</text>
</g>
<!-- 9 -->
<g id="node10" class="node"><title>9</title>
<ellipse fill="olivedrab" stroke="black" cx="37.5205" cy="-64.4414" rx="2.5" ry="2.5"/>
</g>
<!-- 0&#45;&gt;9 -->
<g id="edge7" class="edge"><title>0&#45;&gt;9</title>
<path fill="none" stroke="black" d="M3.86859,-29.5105C13.2165,-39.2137 25.2201,-51.6735 32.0735,-58.7874"/>
<polygon fill="black" stroke="black" points="30.8761,-60.0669 35.6054,-62.4536 33.3967,-57.6385 30.8761,-60.0669"/>
<text text-anchor="middle" x="10.345" y="-48.2941" font-family="monospace" font-size="6.00">K251R</text>
</g>
<!-- 1 -->
<g id="node2" class="node"><title>1</title>
<ellipse fill="olivedrab" stroke="black" cx="-7.62177" cy="82.4194" rx="2.5" ry="2.5"/>
</g>
<!-- 2 -->
<g id="node3" class="node"><title>2</title>
<ellipse fill="olivedrab" stroke="black" cx="24.8658" cy="47.3006" rx="6" ry="6"/>
<text text-anchor="middle" x="24.8658" y="48.6006" font-family="monospace" font-size="6.00">6</text>
</g>
<!-- 1&#45;&gt;2 -->
<g id="edge8" class="edge"><title>1&#45;&gt;2</title>
<path fill="none" stroke="black" d="M-5.87509,80.5312C-1.5711,75.8787 9.74832,63.6425 17.3831,55.3893"/>
<polygon fill="black" stroke="black" points="16.1082,54.1904 20.7883,51.7084 18.6775,56.5672 16.1082,54.1904"/>
<text text-anchor="middle" x="-13.6128" y="70.9948" font-family="monospace" font-size="6.00">2395858:T&gt;G</text>
</g>
<!-- 6 -->
<g id="node7" class="node"><title>6</title>
<ellipse fill="olivedrab" stroke="black" cx="-34.3262" cy="47.0735" rx="2.5" ry="2.5"/>
</g>
<!-- 1&#45;&gt;6 -->
<g id="edge10" class="edge"><title>1&#45;&gt;6</title>
<path fill="none" stroke="black" stroke-dasharray="5,2" d="M-9.37392,80.1002C-13.4482,74.7075 -23.6696,61.1786 -29.6906,53.2092"/>
<polygon fill="black" stroke="black" points="-31.1865,54.1324 -32.8043,49.088 -28.3939,52.0225 -31.1865,54.1324"/>
<text text-anchor="middle" x="-41.9666" y="62.5563" font-family="monospace" font-size="6.00">2392571:T&gt;C</text>
</g>
<!-- 2&#45;&gt;0 -->
<g id="edge1" class="edge"><title>2&#45;&gt;0</title>
<path fill="none" stroke="black" d="M21.9382,41.9323C17.6049,33.9864 9.24042,18.6489 2.23222,5.79818"/>
<polygon fill="black" stroke="black" points="0.579185,6.4221 -0.278412,1.19454 3.65195,4.74632 0.579185,6.4221"/>
<text text-anchor="middle" x="-10.2553" y="19.2072" font-family="monospace" font-size="6.00">2392571:T&gt;C</text>
</g>
<!-- 3 -->
<g id="node4" class="node"><title>3</title>
<ellipse fill="olivedrab" stroke="black" cx="74.6167" cy="48.6619" rx="3.5" ry="3.5"/>
<text text-anchor="middle" x="74.6167" y="49.9619" font-family="monospace" font-size="6.00">2</text>
</g>
<!-- 2&#45;&gt;3 -->
<g id="edge9" class="edge"><title>2&#45;&gt;3</title>
<path fill="none" stroke="black" d="M30.9663,47.4675C39.7291,47.7073 55.9233,48.1504 65.9328,48.4242"/>
<polygon fill="black" stroke="black" points="66.0584,46.6769 71.0087,48.5631 65.9626,50.1756 66.0584,46.6769"/>
<text text-anchor="middle" x="50.9847" y="52.8152" font-family="monospace" font-size="6.00">2366965:T&gt;G</text>
</g>
<!-- 3&#45;&gt;4 -->
<g id="edge11" class="edge"><title>3&#45;&gt;4</title>
<path fill="none" stroke="black" stroke-dasharray="5,2" d="M73.8955,45.0765C72.5062,38.1693 69.3979,22.716 67.1553,11.5664"/>
<polygon fill="black" stroke="black" points="65.4056,11.742 66.1352,6.49507 68.8369,11.0518 65.4056,11.742"/>
<text text-anchor="middle" x="49.0256" y="23.6365" font-family="monospace" font-size="6.00">2392571:T&gt;C</text>
</g>
<!-- 6&#45;&gt;0 -->
<g id="edge4" class="edge"><title>6&#45;&gt;0</title>
<path fill="none" stroke="black" d="M-33.3822,44.6908C-30.9285,38.4973 -24.1428,21.369 -18.4244,6.93476"/>
<polygon fill="black" stroke="black" points="-20.0025,6.16658 -16.5338,2.16266 -16.7485,7.45574 -20.0025,6.16658"/>
<text text-anchor="middle" x="-45.888" y="28.0499" font-family="monospace" font-size="6.00">2395858:T&gt;G</text>
</g>
</g>
</svg>
