<?xml version="1.0" encoding="UTF-8" standalone="no"?>
<!DOCTYPE svg PUBLIC "-//W3C//DTD SVG 1.1//EN"
 "http://www.w3.org/Graphics/SVG/1.1/DTD/svg11.dtd">
<!-- Generated by graphviz version 2.38.0 (20140413.2041)
 -->
<!-- Title: %3 Pages: 1 -->
<svg width="164pt" height="174pt"
 viewBox="0.00 0.00 164.25 173.59" xmlns="http://www.w3.org/2000/svg" xmlns:xlink="http://www.w3.org/1999/xlink">
<g id="graph0" class="graph" transform="scale(1 1) rotate(0) translate(82.2646 91.1293)">
<title>%3</title>
<polygon fill="white" stroke="none" points="-82.2646,82.4634 -82.2646,-91.1293 81.99,-91.1293 81.99,82.4634 -82.2646,82.4634"/>
<!-- 0 -->
<g id="node1" class="node"><title>0</title>
<ellipse fill="#1874cd" stroke="black" cx="-68.2646" cy="18.3665" rx="10" ry="10"/>
<text text-anchor="middle" x="-68.2646" y="19.6665" font-family="monospace" font-size="6.00">8</text>
</g>
<!-- 4 -->
<g id="node5" class="node"><title>4</title>
<ellipse fill="#1874cd" stroke="black" cx="-8.96122" cy="25.1243" rx="6" ry="6"/>
<text text-anchor="middle" x="-8.96122" y="26.4243" font-family="monospace" font-size="6.00">3</text>
</g>
<!-- 0&#45;&gt;4 -->
<g id="edge1" class="edge"><title>0&#45;&gt;4</title>
<path fill="none" stroke="black" d="M-58.2046,19.5129C-45.9115,20.9137 -25.4866,23.2412 -15.2358,24.4093"/>
</g>
<!-- 1 -->
<g id="node2" class="node"><title>1</title>
<ellipse fill="#1874cd" stroke="black" cx="13.8347" cy="-33.1652" rx="12" ry="12"/>
<text text-anchor="middle" x="13.8347" y="-31.8652" font-family="monospace" font-size="6.00">11</text>
</g>
<!-- 3 -->
<g id="node4" class="node"><title>3</title>
<ellipse fill="#1874cd" stroke="black" cx="70.99" cy="-54.9738" rx="7" ry="7"/>
<text text-anchor="middle" x="70.99" y="-53.6738" font-family="monospace" font-size="6.00">4</text>
</g>
<!-- 1&#45;&gt;3 -->
<g id="edge2" class="edge"><title>1&#45;&gt;3</title>
<path fill="none" stroke="black" d="M25.1268,-37.4739C35.1001,-41.2794 49.5726,-46.8016 59.5809,-50.6205"/>
<polygon fill="black" stroke="black" points="59.0649,-52.2966 64.3603,-52.4441 60.3127,-49.0265 59.0649,-52.2966"/>
<text text-anchor="middle" x="53.8539" y="-39.2472" font-family="monospace" font-size="6.00">V1681I</text>
</g>
<!-- 1&#45;&gt;4 -->
<g id="edge3" class="edge"><title>1&#45;&gt;4</title>
<path fill="none" stroke="black" d="M9.43944,-21.9264C4.62652,-9.61968 -2.90621,9.64159 -6.66581,19.255"/>
</g>
<!-- 5 -->
<g id="node6" class="node"><title>5</title>
<ellipse fill="#1874cd" stroke="black" cx="-12.0723" cy="-83.6293" rx="3.5" ry="3.5"/>
</g>
<!-- 1&#45;&gt;5 -->
<g id="edge4" class="edge"><title>1&#45;&gt;5</title>
<path fill="none" stroke="black" d="M8.34051,-43.8673C3.42043,-53.4511 -3.67761,-67.2773 -8.07603,-75.8449"/>
<polygon fill="black" stroke="black" points="-9.69544,-75.1677 -10.4222,-80.415 -6.58177,-76.7662 -9.69544,-75.1677"/>
<text text-anchor="middle" x="-11.3678" y="-62.0561" font-family="monospace" font-size="6.00">L1617F</text>
</g>
<!-- 2 -->
<g id="node3" class="node"><title>2</title>
<ellipse fill="#1874cd" stroke="black" cx="32.7727" cy="54.814" rx="3.5" ry="3.5"/>
</g>
<!-- 2&#45;&gt;4 -->
<g id="edge5" class="edge"><title>2&#45;&gt;4</title>
<path fill="none" stroke="black" d="M29.7713,52.6788C22.6692,47.6263 4.77376,34.8954 -3.98151,28.6669"/>
</g>
<!-- 6 -->
<g id="node7" class="node"><title>6</title>
<ellipse fill="#1874cd" stroke="black" cx="-28.2993" cy="73.4634" rx="5" ry="5"/>
<text text-anchor="middle" x="-28.2993" y="74.7634" font-family="monospace" font-size="6.00">2</text>
</g>
<!-- 4&#45;&gt;6 -->
<g id="edge6" class="edge"><title>4&#45;&gt;6</title>
<path fill="none" stroke="black" d="M-11.3324,31.0517C-14.6002,39.22 -20.5266,54.0341 -24.4382,63.812"/>
<polygon fill="black" stroke="black" points="-22.8924,64.6595 -26.3744,68.6518 -26.142,63.3594 -22.8924,64.6595"/>
<text text-anchor="middle" x="-29.3853" y="45.2318" font-family="monospace" font-size="6.00">S2076T</text>
</g>
</g>
</svg>
