<?xml version="1.0" encoding="UTF-8" standalone="no"?>
<!DOCTYPE svg PUBLIC "-//W3C//DTD SVG 1.1//EN"
 "http://www.w3.org/Graphics/SVG/1.1/DTD/svg11.dtd">
<!-- Generated by graphviz version 2.38.0 (20140413.2041)
 -->
<!-- Title: %3 Pages: 1 -->
<svg width="180pt" height="177pt"
 viewBox="0.00 0.00 179.69 176.96" xmlns="http://www.w3.org/2000/svg" xmlns:xlink="http://www.w3.org/1999/xlink">
<g id="graph0" class="graph" transform="scale(1 1) rotate(0) translate(97.5745 88.045)">
<title>%3</title>
<polygon fill="white" stroke="none" points="-97.5745,88.9194 -97.5745,-88.045 82.1167,-88.045 82.1167,88.9194 -97.5745,88.9194"/>
<!-- 0 -->
<g id="node1" class="node"><title>0</title>
<path fill="olivedrab" stroke="black" stroke-width="0.5" d="M-9.47181,-15.663C-9.47181,-15.663 9.52819,-15.663 9.52819,-15.663 9.52819,-16.7263 9.43893,-17.7877 9.26136,-18.8361 9.08379,-19.8845 8.81852,-20.9161 8.46837,-21.92 8.11821,-22.924 7.68439,-23.8968 7.17148,-24.8282 6.65857,-25.7596 6.06838,-26.6463 5.40712,-27.479 4.74587,-28.3117 4.01589,-29.0874 3.22486,-29.7979 2.43384,-30.5084 1.58456,-31.1513 0.685981,-31.7198 -0.212598,-32.2882 -1.15731,-32.7803 -2.1382,-33.1907 -3.1191,-33.6011 -4.13271,-33.9284 -5.16837,-34.1693 -6.20403,-34.4101 -7.25808,-34.5636 -8.31941,-34.6281 -9.38074,-34.6925 -10.4456,-34.6678 -11.5028,-34.5542 -12.56,-34.4405 -13.6058,-34.2383 -14.6292,-33.9497 -15.6525,-33.6611 -16.6499,-33.287 -17.6107,-32.8316 -18.5715,-32.3761 -19.4923,-31.8408 -20.3636,-31.2312 -21.2348,-30.6217 -22.0534,-29.9401 -22.8106,-29.1936 -23.5678,-28.4472 -24.261,-27.6385 -24.8829,-26.776 -25.5048,-25.9136 -26.0532,-25.0004 -26.5224,-24.0462 -26.9915,-23.092 -27.3797,-22.1001 -27.6829,-21.081 -27.9862,-20.0619 -28.2033,-19.0191 -28.332,-17.9636 -28.4608,-16.9081 -28.5007,-15.8437 -28.4514,-14.7816 -28.402,-13.7194 -28.2636,-12.6633 -28.0376,-11.6243 -27.8116,-10.5853 -27.4987,-9.56711 -27.1024,-8.58046 -26.706,-7.59381 -26.2275,-6.64216 -25.672,-5.73556 -25.1164,-4.82895 -24.4857,-3.97059 -23.7865,-3.16949 -23.0874,-2.3684 -22.3222,-1.62742 -21.499,-0.954341 -20.6759,-0.281265 -19.7977,0.321527 -18.8737,0.847684 -17.9498,1.37384 -16.9832,1.82151 -15.9844,2.18597 -14.9855,2.55043 -13.9578,2.83039 -12.912,3.02292 -11.8663,3.21544 -10.8063,3.31985 -9.74312,3.33503 -8.67994,3.35021 -7.61735,3.27612 -6.56657,3.11354 -5.51578,2.95095 -4.48049,2.70045 -3.47161,2.36466 -2.46274,2.02887 -1.48383,1.60899 -0.545194,1.10943 0.393438,0.609873 1.28848,0.0324043 2.1305,-0.616892 2.1305,-0.616892 -9.47181,-15.663 -9.47181,-15.663"/>
<path fill="#1874cd" stroke="black" stroke-width="0.5" d="M-9.47181,-15.663C-9.47181,-15.663 2.1305,-0.616892 2.1305,-0.616892 2.70361,-1.05883 3.25101,-1.53315 3.77001,-2.03753 4.28901,-2.54191 4.77876,-3.07554 5.23688,-3.6358 5.695,-4.19606 6.12074,-4.78203 6.51201,-5.39086 6.90328,-5.99969 7.25944,-6.63037 7.57876,-7.27983 7.89808,-7.92929 8.18003,-8.59647 8.42323,-9.2781 8.66644,-9.95972 8.8705,-10.6547 9.03442,-11.3596 9.19834,-12.0645 9.32185,-12.7782 9.40434,-13.4972 9.48684,-14.2162 9.52819,-14.9393 9.52819,-15.663 9.52819,-15.663 -9.47181,-15.663 -9.47181,-15.663"/>
<ellipse fill="none" stroke="black" cx="-9.47181" cy="-15.663" rx="19" ry="19"/>
<text text-anchor="middle" x="-9.47181" y="-14.363" font-family="monospace" font-size="6.00">55</text>
</g>
<!-- 4 -->
<g id="node5" class="node"><title>4</title>
<ellipse fill="olivedrab" stroke="black" cx="64.589" cy="-1.19218" rx="7.5" ry="7.5"/>
<text text-anchor="middle" x="64.589" y="0.107819" font-family="monospace" font-size="6.00">9</text>
</g>
<!-- 0&#45;&gt;4 -->
<g id="edge2" class="edge"><title>0&#45;&gt;4</title>
<path fill="none" stroke="black" d="M9.21686,-12.0114C22.5945,-9.39754 40.2449,-5.94882 51.9838,-3.65513"/>
<polygon fill="black" stroke="black" points="52.3532,-5.36612 56.9248,-2.6897 51.682,-1.93108 52.3532,-5.36612"/>
<text text-anchor="middle" x="33.3324" y="-2.49945" font-family="monospace" font-size="6.00">2366965:T&gt;G</text>
</g>
<!-- 5 -->
<g id="node6" class="node"><title>5</title>
<ellipse fill="olivedrab" stroke="black" cx="-60.8929" cy="-56.8418" rx="2.5" ry="2.5"/>
</g>
<!-- 0&#45;&gt;5 -->
<g id="edge3" class="edge"><title>0&#45;&gt;5</title>
<path fill="none" stroke="black" d="M-24.3449,-27.5736C-34.3705,-35.6022 -47.087,-45.7858 -54.5724,-51.7802"/>
<polygon fill="black" stroke="black" points="-56.0126,-50.6915 -58.8215,-55.1829 -53.8248,-53.4235 -56.0126,-50.6915"/>
<text text-anchor="middle" x="-62.6631" y="-43.6422" font-family="monospace" font-size="6.00">2383492:G&gt;A</text>
</g>
<!-- 7 -->
<g id="node8" class="node"><title>7</title>
<ellipse fill="olivedrab" stroke="black" cx="-11.9218" cy="-81.545" rx="2.5" ry="2.5"/>
</g>
<!-- 0&#45;&gt;7 -->
<g id="edge5" class="edge"><title>0&#45;&gt;7</title>
<path fill="none" stroke="black" d="M-10.1805,-34.7188C-10.6627,-47.6873 -11.2757,-64.1702 -11.6309,-73.7218"/>
<polygon fill="black" stroke="black" points="-13.386,-73.8294 -11.8231,-78.891 -9.88843,-73.9595 -13.386,-73.8294"/>
<text text-anchor="middle" x="-32.0015" y="-58.9967" font-family="monospace" font-size="6.00">2380627:C&gt;A</text>
</g>
<!-- 8 -->
<g id="node9" class="node"><title>8</title>
<ellipse fill="olivedrab" stroke="black" cx="-77.3574" cy="-5.772" rx="2.5" ry="2.5"/>
</g>
<!-- 0&#45;&gt;8 -->
<g id="edge6" class="edge"><title>0&#45;&gt;8</title>
<path fill="none" stroke="black" d="M-28.3817,-12.9078C-41.8972,-10.9386 -59.3976,-8.38878 -69.4015,-6.93119"/>
<polygon fill="black" stroke="black" points="-69.3589,-5.169 -74.559,-6.17974 -69.8636,-8.63243 -69.3589,-5.169"/>
<text text-anchor="middle" x="-72.5745" y="-11.7286" font-family="monospace" font-size="6.00">2359596:T&gt;C</text>
</g>
<!-- 9 -->
<g id="node10" class="node"><title>9</title>
<ellipse fill="olivedrab" stroke="black" cx="37.5205" cy="-64.4414" rx="2.5" ry="2.5"/>
</g>
<!-- 0&#45;&gt;9 -->
<g id="edge7" class="edge"><title>0&#45;&gt;9</title>
<path fill="none" stroke="black" d="M3.86859,-29.5105C13.2165,-39.2137 25.2201,-51.6735 32.0735,-58.7874"/>
<polygon fill="black" stroke="black" points="30.8761,-60.0669 35.6054,-62.4536 33.3967,-57.6385 30.8761,-60.0669"/>
<text text-anchor="middle" x="10.345" y="-48.2941" font-family="monospace" font-size="6.00">K251R</text>
</g>
<!-- 1 -->
<g id="node2" class="node"><title>1</title>
<ellipse fill="olivedrab" stroke="black" cx="-7.62177" cy="82.4194" rx="2.5" ry="2.5"/>
</g>
<!-- 2 -->
<g id="node3" class="node"><title>2</title>
<ellipse fill="olivedrab" stroke="black" cx="24.8658" cy="47.3006" rx="6" ry="6"/>
<text text-anchor="middle" x="24.8658" y="48.6006" font-family="monospace" font-size="6.00">6</text>
</g>
<!-- 1&#45;&gt;2 -->
<g id="edge8" class="edge"><title>1&#45;&gt;2</title>
<path fill="none" stroke="black" d="M-5.87509,80.5312C-1.5711,75.8787 9.74832,63.6425 17.3831,55.3893"/>
<polygon fill="black" stroke="black" points="16.1082,54.1904 20.7883,51.7084 18.6775,56.5672 16.1082,54.1904"/>
<text text-anchor="middle" x="-13.6128" y="70.9948" font-family="monospace" font-size="6.00">2395858:T&gt;G</text>
</g>
<!-- 6 -->
<g id="node7" class="node"><title>6</title>
<ellipse fill="olivedrab" stroke="black" cx="-34.3262" cy="47.0735" rx="2.5" ry="2.5"/>
</g>
<!-- 1&#45;&gt;6 -->
<g id="edge10" class="edge"><title>1&#45;&gt;6</title>
<path fill="none" stroke="black" stroke-dasharray="5,2" d="M-9.37392,80.1002C-13.4482,74.7075 -23.6696,61.1786 -29.6906,53.2092"/>
<polygon fill="black" stroke="black" points="-31.1865,54.1324 -32.8043,49.088 -28.3939,52.0225 -31.1865,54.1324"/>
<text text-anchor="middle" x="-41.9666" y="62.5563" font-family="monospace" font-size="6.00">2392571:T&gt;C</text>
</g>
<!-- 2&#45;&gt;0 -->
<g id="edge1" class="edge"><title>2&#45;&gt;0</title>
<path fill="none" stroke="black" d="M21.9382,41.9323C17.6049,33.9864 9.24042,18.6489 2.23222,5.79818"/>
<polygon fill="black" stroke="black" points="0.579185,6.4221 -0.278412,1.19454 3.65195,4.74632 0.579185,6.4221"/>
<text text-anchor="middle" x="-10.2553" y="19.2072" font-family="monospace" font-size="6.00">2392571:T&gt;C</text>
</g>
<!-- 3 -->
<g id="node4" class="node"><title>3</title>
<ellipse fill="olivedrab" stroke="black" cx="74.6167" cy="48.6619" rx="3.5" ry="3.5"/>
<text text-anchor="middle" x="74.6167" y="49.9619" font-family="monospace" font-size="6.00">2</text>
</g>
<!-- 2&#45;&gt;3 -->
<g id="edge9" class="edge"><title>2&#45;&gt;3</title>
<path fill="none" stroke="black" d="M30.9663,47.4675C39.7291,47.7073 55.9233,48.1504 65.9328,48.4242"/>
<polygon fill="black" stroke="black" points="66.0584,46.6769 71.0087,48.5631 65.9626,50.1756 66.0584,46.6769"/>
<text text-anchor="middle" x="50.9847" y="52.8152" font-family="monospace" font-size="6.00">2366965:T&gt;G</text>
</g>
<!-- 3&#45;&gt;4 -->
<g id="edge11" class="edge"><title>3&#45;&gt;4</title>
<path fill="none" stroke="black" stroke-dasharray="5,2" d="M73.8955,45.0765C72.5062,38.1693 69.3979,22.716 67.1553,11.5664"/>
<polygon fill="black" stroke="black" points="65.4056,11.742 66.1352,6.49507 68.8369,11.0518 65.4056,11.742"/>
<text text-anchor="middle" x="49.0256" y="23.6365" font-family="monospace" font-size="6.00">2392571:T&gt;C</text>
</g>
<!-- 6&#45;&gt;0 -->
<g id="edge4" class="edge"><title>6&#45;&gt;0</title>
<path fill="none" stroke="black" d="M-33.3822,44.6908C-30.9285,38.4973 -24.1428,21.369 -18.4244,6.93476"/>
<polygon fill="black" stroke="black" points="-20.0025,6.16658 -16.5338,2.16266 -16.7485,7.45574 -20.0025,6.16658"/>
<text text-anchor="middle" x="-45.888" y="28.0499" font-family="monospace" font-size="6.00">2395858:T&gt;G</text>
</g>
</g>
</svg>
