<?xml version="1.0" encoding="UTF-8" standalone="no"?>
<!DOCTYPE svg PUBLIC "-//W3C//DTD SVG 1.1//EN"
 "http://www.w3.org/Graphics/SVG/1.1/DTD/svg11.dtd">
<!-- Generated by graphviz version 2.38.0 (20140413.2041)
 -->
<!-- Title: %3 Pages: 1 -->
<svg width="166pt" height="156pt"
 viewBox="0.00 0.00 166.29 156.23" xmlns="http://www.w3.org/2000/svg" xmlns:xlink="http://www.w3.org/1999/xlink">
<g id="graph0" class="graph" transform="scale(1 1) rotate(0) translate(84.2844 72.5217)">
<title>%3</title>
<polygon fill="white" stroke="none" points="-84.2844,83.7086 -84.2844,-72.5217 82.0009,-72.5217 82.0009,83.7086 -84.2844,83.7086"/>
<!-- 0 -->
<g id="node1" class="node"><title>0</title>
<path fill="olivedrab" stroke="black" stroke-width="0.5" d="M-0.762809,-0.870428C-0.762809,-0.870428 18.2372,-0.870428 18.2372,-0.870428 18.2372,-1.93372 18.1479,-2.99514 17.9704,-4.04349 17.7928,-5.09185 17.5275,-6.12346 17.1774,-7.12744 16.8272,-8.13141 16.3934,-9.10423 15.8805,-10.0356 15.3676,-10.967 14.7774,-11.8537 14.1161,-12.6864 13.4549,-13.5191 12.7249,-14.2948 11.9339,-15.0053 11.1428,-15.7158 10.2936,-16.3587 9.39498,-16.9272 8.4964,-17.4956 7.55169,-17.9877 6.5708,-18.3981 5.5899,-18.8085 4.57629,-19.1358 3.54063,-19.3767 2.50497,-19.6175 1.45092,-19.771 0.38959,-19.8354 -0.671743,-19.8999 -1.73662,-19.8752 -2.79382,-19.7616 -3.85101,-19.6479 -4.89681,-19.4457 -5.92018,-19.1571 -6.94355,-18.8685 -7.94089,-18.4944 -8.90168,-18.039 -9.86248,-17.5835 -10.7833,-17.0482 -11.6546,-16.4386 -12.5258,-15.8291 -13.3444,-15.1475 -14.1016,-14.401 -14.8588,-13.6546 -15.552,-12.8458 -16.1739,-11.9834 -16.7958,-11.121 -17.3442,-10.2078 -17.8134,-9.25363 -18.2825,-8.29943 -18.6707,-7.30754 -18.9739,-6.28839 -19.2772,-5.26925 -19.4943,-4.22645 -19.623,-3.17098 -19.7518,-2.11552 -19.7917,-1.0511 -19.7424,0.0110444 -19.693,1.07319 -19.5546,2.12932 -19.3286,3.16831 -19.1026,4.2073 -18.7897,5.22549 -18.3934,6.21215 -17.997,7.1988 -17.5185,8.15044 -16.963,9.05705 -16.4074,9.96365 -15.7767,10.822 -15.0775,11.6231 -14.3784,12.4242 -13.6132,13.1652 -12.79,13.8383 -11.9669,14.5113 -11.0887,15.1141 -10.1647,15.6403 -9.24075,16.1664 -8.27423,16.6141 -7.27535,16.9786 -6.27647,17.343 -5.24876,17.623 -4.20305,17.8155 -3.15733,18.008 -2.0973,18.1125 -1.03412,18.1276 0.0290652,18.1428 1.09165,18.0687 2.14243,17.9061 3.19322,17.7436 4.22851,17.4931 5.23739,17.1573 6.24626,16.8215 7.22518,16.4016 8.16381,15.902 9.10244,15.4025 9.99748,14.825 10.8395,14.1757 10.8395,14.1757 -0.762809,-0.870428 -0.762809,-0.870428"/>
<path fill="#1874cd" stroke="black" stroke-width="0.5" d="M-0.762809,-0.870428C-0.762809,-0.870428 10.8395,14.1757 10.8395,14.1757 11.4126,13.7338 11.96,13.2595 12.479,12.7551 12.998,12.2507 13.4878,11.7171 13.9459,11.1568 14.404,10.5965 14.8297,10.0106 15.221,9.40175 15.6123,8.79292 15.9684,8.16223 16.2878,7.51277 16.6071,6.86331 16.889,6.19614 17.1322,5.51451 17.3754,4.83288 17.5795,4.13792 17.7434,3.43301 17.9073,2.7281 18.0308,2.01441 18.1133,1.29541 18.1958,0.576411 18.2372,-0.146714 18.2372,-0.870428 18.2372,-0.870428 -0.762809,-0.870428 -0.762809,-0.870428"/>
<ellipse fill="none" stroke="black" cx="-0.762809" cy="-0.870428" rx="19" ry="19"/>
<text text-anchor="middle" x="-0.762809" y="0.429572" font-family="monospace" font-size="6.00">55</text>
</g>
<!-- 2 -->
<g id="node3" class="node"><title>2</title>
<ellipse fill="olivedrab" stroke="black" cx="-16.4786" cy="72.2086" rx="7.5" ry="7.5"/>
<text text-anchor="middle" x="-16.4786" y="73.5086" font-family="monospace" font-size="6.00">9</text>
</g>
<!-- 0&#45;&gt;2 -->
<g id="edge2" class="edge"><title>0&#45;&gt;2</title>
<path fill="none" stroke="black" d="M-4.81001,17.9492C-7.62368,31.0329 -11.2974,48.1159 -13.7645,59.5881"/>
<polygon fill="black" stroke="black" points="-12.1075,60.2067 -14.8697,64.727 -15.5292,59.4708 -12.1075,60.2067"/>
<text text-anchor="middle" x="-30.8598" y="39.2311" font-family="monospace" font-size="6.00">2366965:T&gt;G</text>
</g>
<!-- 3 -->
<g id="node4" class="node"><title>3</title>
<ellipse fill="olivedrab" stroke="black" cx="-60.6985" cy="-29.9364" rx="2.5" ry="2.5"/>
</g>
<!-- 0&#45;&gt;3 -->
<g id="edge3" class="edge"><title>0&#45;&gt;3</title>
<path fill="none" stroke="black" d="M-18.0987,-9.27751C-29.7843,-14.9445 -44.6065,-22.1325 -53.3313,-26.3637"/>
<polygon fill="black" stroke="black" points="-54.5487,-25.0091 -58.284,-28.7655 -53.0215,-28.1583 -54.5487,-25.0091"/>
<text text-anchor="middle" x="-59.2844" y="-21.2666" font-family="monospace" font-size="6.00">2383492:G&gt;A</text>
</g>
<!-- 5 -->
<g id="node6" class="node"><title>5</title>
<ellipse fill="olivedrab" stroke="black" cx="-14.9338" cy="-66.0217" rx="2.5" ry="2.5"/>
</g>
<!-- 0&#45;&gt;5 -->
<g id="edge5" class="edge"><title>0&#45;&gt;5</title>
<path fill="none" stroke="black" d="M-4.86165,-19.7149C-7.65113,-32.5395 -11.1965,-48.8395 -13.2511,-58.2852"/>
<polygon fill="black" stroke="black" points="-15.0102,-58.1394 -14.363,-63.3971 -11.5902,-58.8833 -15.0102,-58.1394"/>
<text text-anchor="middle" x="-30.6105" y="-43.7479" font-family="monospace" font-size="6.00">2380627:C&gt;A</text>
</g>
<!-- 6 -->
<g id="node7" class="node"><title>6</title>
<ellipse fill="olivedrab" stroke="black" cx="-59.5707" cy="27.9404" rx="2.5" ry="2.5"/>
</g>
<!-- 0&#45;&gt;6 -->
<g id="edge6" class="edge"><title>0&#45;&gt;6</title>
<path fill="none" stroke="black" d="M-18.089,7.61793C-29.5407,13.2283 -43.9505,20.2878 -52.4221,24.4382"/>
<polygon fill="black" stroke="black" points="-51.969,26.1649 -57.229,26.7932 -53.5089,23.0218 -51.969,26.1649"/>
<text text-anchor="middle" x="-58.5109" y="14.933" font-family="monospace" font-size="6.00">2359596:T&gt;C</text>
</g>
<!-- 7 -->
<g id="node8" class="node"><title>7</title>
<ellipse fill="olivedrab" stroke="black" cx="39.7598" cy="49.397" rx="2.5" ry="2.5"/>
</g>
<!-- 0&#45;&gt;7 -->
<g id="edge7" class="edge"><title>0&#45;&gt;7</title>
<path fill="none" stroke="black" d="M11.1761,13.9396C19.0671,23.7281 28.9965,36.0453 34.834,43.2866"/>
<polygon fill="black" stroke="black" points="36.3706,42.4044 38.1463,47.3954 33.6458,44.6011 36.3706,42.4044"/>
<text text-anchor="middle" x="15.0591" y="28.3409" font-family="monospace" font-size="6.00">K251R</text>
</g>
<!-- 1 -->
<g id="node2" class="node"><title>1</title>
<ellipse fill="olivedrab" stroke="black" cx="72.0009" cy="-0.802179" rx="6" ry="6"/>
<text text-anchor="middle" x="72.0009" y="0.497821" font-family="monospace" font-size="6.00">6</text>
</g>
<!-- 1&#45;&gt;0 -->
<g id="edge1" class="edge"><title>1&#45;&gt;0</title>
<path fill="none" stroke="black" d="M65.7971,-0.807998C56.5532,-0.816668 38.6529,-0.833458 23.7421,-0.847444"/>
<polygon fill="black" stroke="black" points="23.4039,0.902333 18.4055,-0.852449 23.4072,-2.59767 23.4039,0.902333"/>
<text text-anchor="middle" x="41.8901" y="3.96958" font-family="monospace" font-size="6.00">2392571:T&gt;C</text>
</g>
<!-- 4 -->
<g id="node5" class="node"><title>4</title>
<ellipse fill="olivedrab" stroke="black" cx="40.6836" cy="-51.9153" rx="2.5" ry="2.5"/>
</g>
<!-- 4&#45;&gt;0 -->
<g id="edge4" class="edge"><title>4&#45;&gt;0</title>
<path fill="none" stroke="black" d="M38.9027,-49.722C34.7076,-44.5554 23.8573,-31.1923 14.5636,-19.7462"/>
<polygon fill="black" stroke="black" points="15.7355,-18.4132 11.2252,-15.6347 13.0184,-20.6194 15.7355,-18.4132"/>
<text text-anchor="middle" x="4.0243" y="-34.8295" font-family="monospace" font-size="6.00">2395858:T&gt;G</text>
</g>
</g>
</svg>
